<?xml version="1.0" encoding="UTF-8" standalone="no"?>
<!DOCTYPE svg PUBLIC "-//W3C//DTD SVG 1.1//EN"
 "http://www.w3.org/Graphics/SVG/1.1/DTD/svg11.dtd">
<!-- Generated by graphviz version 2.40.1 (20161225.0304)
 -->
<!-- Title: GetBlockProofEquivalentTime Pages: 1 -->
<svg width="521pt" height="78pt"
 viewBox="0.00 0.00 521.00 77.50" xmlns="http://www.w3.org/2000/svg" xmlns:xlink="http://www.w3.org/1999/xlink">
<g id="graph0" class="graph" transform="scale(1 1) rotate(0) translate(4 73.5)">
<title>GetBlockProofEquivalentTime</title>
<polygon fill="#ffffff" stroke="transparent" points="-4,4 -4,-73.5 517,-73.5 517,4 -4,4"/>
<!-- Node13 -->
<g id="node1" class="node">
<title>Node13</title>
<polygon fill="#bfbfbf" stroke="#000000" points="0,-28 0,-47 148,-47 148,-28 0,-28"/>
<text text-anchor="middle" x="74" y="-35" font-family="Helvetica,sans-Serif" font-size="10.00" fill="#000000">GetBlockProofEquivalentTime</text>
</g>
<!-- Node14 -->
<g id="node2" class="node">
<title>Node14</title>
<g id="a_node2"><a xlink:href="class_c_block_index.html#a076aff906933e9d75a37aa9b81c01384" target="_top" xlink:title="Raise the validity level of this block index entry. ">
<polygon fill="#ffffff" stroke="#000000" points="184,-28 184,-47 321,-47 321,-28 184,-28"/>
<text text-anchor="middle" x="252.5" y="-35" font-family="Helvetica,sans-Serif" font-size="10.00" fill="#000000">CBlockIndex::RaiseValidity</text>
</a>
</g>
</g>
<!-- Node13&#45;&gt;Node14 -->
<g id="edge1" class="edge">
<title>Node13&#45;&gt;Node14</title>
<path fill="none" stroke="#191970" d="M158.157,-37.5C166.7228,-37.5 175.3513,-37.5 183.7256,-37.5"/>
<polygon fill="#191970" stroke="#191970" points="158.1494,-34.0001 148.1493,-37.5 158.1493,-41.0001 158.1494,-34.0001"/>
</g>
<!-- Node15 -->
<g id="node3" class="node">
<title>Node15</title>
<g id="a_node3"><a xlink:href="class_c_chain_state.html#ac45520cdaf73168c6ae16ec81c166b5b" target="_top" xlink:title="CChainState::AddToBlockIndex">
<polygon fill="#ffffff" stroke="#000000" points="357,-50 357,-69 513,-69 513,-50 357,-50"/>
<text text-anchor="middle" x="435" y="-57" font-family="Helvetica,sans-Serif" font-size="10.00" fill="#000000">CChainState::AddToBlockIndex</text>
</a>
</g>
</g>
<!-- Node14&#45;&gt;Node15 -->
<g id="edge2" class="edge">
<title>Node14&#45;&gt;Node15</title>
<path fill="none" stroke="#191970" d="M331.4223,-47.0139C339.8481,-48.0296 348.4167,-49.0626 356.8337,-50.0772"/>
<polygon fill="#191970" stroke="#191970" points="331.5824,-43.508 321.2354,-45.7859 330.7446,-50.4577 331.5824,-43.508"/>
</g>
<!-- Node16 -->
<g id="node4" class="node">
<title>Node16</title>
<g id="a_node4"><a xlink:href="class_c_chain_state.html#ada9f4af419d471de210cca765a36424e" target="_top" xlink:title="Mark a block as having its data received and checked (up to BLOCK_VALID_TRANSACTIONS). ">
<polygon fill="#ffffff" stroke="#000000" points="362.5,-.5 362.5,-30.5 507.5,-30.5 507.5,-.5 362.5,-.5"/>
<text text-anchor="start" x="370.5" y="-18.5" font-family="Helvetica,sans-Serif" font-size="10.00" fill="#000000">CChainState::ReceivedBlock</text>
<text text-anchor="middle" x="435" y="-7.5" font-family="Helvetica,sans-Serif" font-size="10.00" fill="#000000">Transactions</text>
</a>
</g>
</g>
<!-- Node14&#45;&gt;Node16 -->
<g id="edge3" class="edge">
<title>Node14&#45;&gt;Node16</title>
<path fill="none" stroke="#191970" d="M331.4247,-27.9858C341.7048,-26.7465 352.1974,-25.4817 362.3678,-24.2557"/>
<polygon fill="#191970" stroke="#191970" points="330.7446,-24.5423 321.2354,-29.2141 331.5824,-31.492 330.7446,-24.5423"/>
</g>
</g>
</svg>
