<?xml version="1.0" encoding="UTF-8" standalone="no"?>
<!DOCTYPE svg PUBLIC "-//W3C//DTD SVG 1.1//EN"
 "http://www.w3.org/Graphics/SVG/1.1/DTD/svg11.dtd">
<!-- Generated by graphviz version 2.40.1 (20161225.0304)
 -->
<!-- Title: interfaces::Wallet::getAddress Pages: 1 -->
<svg width="2459pt" height="418pt"
 viewBox="0.00 0.00 2459.00 417.50" xmlns="http://www.w3.org/2000/svg" xmlns:xlink="http://www.w3.org/1999/xlink">
<g id="graph0" class="graph" transform="scale(1 1) rotate(0) translate(4 413.5)">
<title>interfaces::Wallet::getAddress</title>
<polygon fill="#ffffff" stroke="transparent" points="-4,4 -4,-413.5 2455,-413.5 2455,4 -4,4"/>
<!-- Node96 -->
<g id="node1" class="node">
<title>Node96</title>
<polygon fill="#bfbfbf" stroke="#000000" points="0,-281 0,-311 93,-311 93,-281 0,-281"/>
<text text-anchor="start" x="8" y="-299" font-family="Helvetica,sans-Serif" font-size="10.00" fill="#000000">interfaces::Wallet</text>
<text text-anchor="middle" x="46.5" y="-288" font-family="Helvetica,sans-Serif" font-size="10.00" fill="#000000">::getAddress</text>
</g>
<!-- Node97 -->
<g id="node2" class="node">
<title>Node97</title>
<g id="a_node2"><a xlink:href="classinterfaces_1_1_wallet.html#a6dcbe2a99c23bc713b616d2d189cd9b7" target="_top" xlink:title="interfaces::Wallet\l::~Wallet">
<polygon fill="#ffffff" stroke="#000000" points="148.5,-379 148.5,-409 241.5,-409 241.5,-379 148.5,-379"/>
<text text-anchor="start" x="156.5" y="-397" font-family="Helvetica,sans-Serif" font-size="10.00" fill="#000000">interfaces::Wallet</text>
<text text-anchor="middle" x="195" y="-386" font-family="Helvetica,sans-Serif" font-size="10.00" fill="#000000">::~Wallet</text>
</a>
</g>
</g>
<!-- Node96&#45;&gt;Node97 -->
<g id="edge1" class="edge">
<title>Node96&#45;&gt;Node97</title>
<path fill="none" stroke="#191970" d="M67.1353,-318.6671C82.8104,-334.7829 105.599,-355.9742 129,-370 134.961,-373.5728 141.5394,-376.7444 148.1649,-379.5164"/>
<polygon fill="#191970" stroke="#191970" points="69.4712,-316.0447 60.0401,-311.217 64.4021,-320.8723 69.4712,-316.0447"/>
</g>
<!-- Node98 -->
<g id="node3" class="node">
<title>Node98</title>
<g id="a_node3"><a xlink:href="class_address_table_model.html#a5c6bd467fd1fc499d126fe2b7380ce5c" target="_top" xlink:title="AddressTableModel::\lsetData">
<polygon fill="#ffffff" stroke="#000000" points="140.5,-330 140.5,-360 249.5,-360 249.5,-330 140.5,-330"/>
<text text-anchor="start" x="148.5" y="-348" font-family="Helvetica,sans-Serif" font-size="10.00" fill="#000000">AddressTableModel::</text>
<text text-anchor="middle" x="195" y="-337" font-family="Helvetica,sans-Serif" font-size="10.00" fill="#000000">setData</text>
</a>
</g>
</g>
<!-- Node96&#45;&gt;Node98 -->
<g id="edge2" class="edge">
<title>Node96&#45;&gt;Node98</title>
<path fill="none" stroke="#191970" d="M101.8362,-314.2591C117.499,-319.4273 134.3648,-324.9924 149.3845,-329.9484"/>
<polygon fill="#191970" stroke="#191970" points="102.8597,-310.9113 92.2666,-311.1014 100.6663,-317.5587 102.8597,-310.9113"/>
</g>
<!-- Node99 -->
<g id="node4" class="node">
<title>Node99</title>
<g id="a_node4"><a xlink:href="class_address_table_model.html#a9f9ac7d8e7582bbcd73ce5a92995a0e4" target="_top" xlink:title="AddressTableModel::\laddRow">
<polygon fill="#ffffff" stroke="#000000" points="140.5,-281 140.5,-311 249.5,-311 249.5,-281 140.5,-281"/>
<text text-anchor="start" x="148.5" y="-299" font-family="Helvetica,sans-Serif" font-size="10.00" fill="#000000">AddressTableModel::</text>
<text text-anchor="middle" x="195" y="-288" font-family="Helvetica,sans-Serif" font-size="10.00" fill="#000000">addRow</text>
</a>
</g>
</g>
<!-- Node96&#45;&gt;Node99 -->
<g id="edge3" class="edge">
<title>Node96&#45;&gt;Node99</title>
<path fill="none" stroke="#191970" d="M103.1235,-296C115.3065,-296 128.1615,-296 140.2709,-296"/>
<polygon fill="#191970" stroke="#191970" points="103.0789,-292.5001 93.0789,-296 103.0789,-299.5001 103.0789,-292.5001"/>
</g>
<!-- Node104 -->
<g id="node9" class="node">
<title>Node104</title>
<g id="a_node9"><a xlink:href="class_address_table_model.html#afddd687530148c1b078952bf18c3ed21" target="_top" xlink:title="Look up address book data given an address string. ">
<polygon fill="#ffffff" stroke="#000000" points="140.5,-232 140.5,-262 249.5,-262 249.5,-232 140.5,-232"/>
<text text-anchor="start" x="148.5" y="-250" font-family="Helvetica,sans-Serif" font-size="10.00" fill="#000000">AddressTableModel::</text>
<text text-anchor="middle" x="195" y="-239" font-family="Helvetica,sans-Serif" font-size="10.00" fill="#000000">getAddressData</text>
</a>
</g>
</g>
<!-- Node96&#45;&gt;Node104 -->
<g id="edge8" class="edge">
<title>Node96&#45;&gt;Node104</title>
<path fill="none" stroke="#191970" d="M101.8362,-277.7409C117.499,-272.5727 134.3648,-267.0076 149.3845,-262.0516"/>
<polygon fill="#191970" stroke="#191970" points="100.6663,-274.4413 92.2666,-280.8986 102.8597,-281.0887 100.6663,-274.4413"/>
</g>
<!-- Node141 -->
<g id="node46" class="node">
<title>Node141</title>
<g id="a_node46"><a xlink:href="class_transaction_desc.html#a6ae7f995de691f91a24e0b1bcf0a1a95" target="_top" xlink:title="TransactionDesc::toHTML">
<polygon fill="#ffffff" stroke="#000000" points="129,-144.5 129,-163.5 261,-163.5 261,-144.5 129,-144.5"/>
<text text-anchor="middle" x="195" y="-151.5" font-family="Helvetica,sans-Serif" font-size="10.00" fill="#000000">TransactionDesc::toHTML</text>
</a>
</g>
</g>
<!-- Node96&#45;&gt;Node141 -->
<g id="edge54" class="edge">
<title>Node96&#45;&gt;Node141</title>
<path fill="none" stroke="#191970" d="M69.7843,-273.7349C102.7249,-242.2361 161.5284,-186.0065 184.9606,-163.5999"/>
<polygon fill="#191970" stroke="#191970" points="67.2007,-271.3627 62.3921,-280.8035 72.0385,-276.422 67.2007,-271.3627"/>
</g>
<!-- Node100 -->
<g id="node5" class="node">
<title>Node100</title>
<g id="a_node5"><a xlink:href="class_edit_address_dialog.html#a8494a551799cd1f4c253e557424c206c" target="_top" xlink:title="EditAddressDialog::\lsaveCurrentRow">
<polygon fill="#ffffff" stroke="#000000" points="312,-330 312,-360 416,-360 416,-330 312,-330"/>
<text text-anchor="start" x="320" y="-348" font-family="Helvetica,sans-Serif" font-size="10.00" fill="#000000">EditAddressDialog::</text>
<text text-anchor="middle" x="364" y="-337" font-family="Helvetica,sans-Serif" font-size="10.00" fill="#000000">saveCurrentRow</text>
</a>
</g>
</g>
<!-- Node99&#45;&gt;Node100 -->
<g id="edge4" class="edge">
<title>Node99&#45;&gt;Node100</title>
<path fill="none" stroke="#191970" d="M256.7163,-313.8941C274.8936,-319.1644 294.5911,-324.8755 312.0874,-329.9484"/>
<polygon fill="#191970" stroke="#191970" points="257.6637,-310.5247 247.0846,-311.1014 255.7143,-317.2478 257.6637,-310.5247"/>
</g>
<!-- Node102 -->
<g id="node7" class="node">
<title>Node102</title>
<g id="a_node7"><a xlink:href="class_receive_coins_dialog.html#a9db8de31f6889288cb22c061aa51e0cd" target="_top" xlink:title="ReceiveCoinsDialog\l::on_receiveButton_clicked">
<polygon fill="#ffffff" stroke="#000000" points="297,-281 297,-311 431,-311 431,-281 297,-281"/>
<text text-anchor="start" x="305" y="-299" font-family="Helvetica,sans-Serif" font-size="10.00" fill="#000000">ReceiveCoinsDialog</text>
<text text-anchor="middle" x="364" y="-288" font-family="Helvetica,sans-Serif" font-size="10.00" fill="#000000">::on_receiveButton_clicked</text>
</a>
</g>
</g>
<!-- Node99&#45;&gt;Node102 -->
<g id="edge6" class="edge">
<title>Node99&#45;&gt;Node102</title>
<path fill="none" stroke="#191970" d="M260.2153,-296C272.1771,-296 284.6836,-296 296.705,-296"/>
<polygon fill="#191970" stroke="#191970" points="259.8695,-292.5001 249.8695,-296 259.8694,-299.5001 259.8695,-292.5001"/>
</g>
<!-- Node101 -->
<g id="node6" class="node">
<title>Node101</title>
<g id="a_node6"><a xlink:href="class_edit_address_dialog.html#ac52b71129806bccf6533d0e9441393b6" target="_top" xlink:title="EditAddressDialog::\laccept">
<polygon fill="#ffffff" stroke="#000000" points="671,-330 671,-360 775,-360 775,-330 671,-330"/>
<text text-anchor="start" x="679" y="-348" font-family="Helvetica,sans-Serif" font-size="10.00" fill="#000000">EditAddressDialog::</text>
<text text-anchor="middle" x="723" y="-337" font-family="Helvetica,sans-Serif" font-size="10.00" fill="#000000">accept</text>
</a>
</g>
</g>
<!-- Node100&#45;&gt;Node101 -->
<g id="edge5" class="edge">
<title>Node100&#45;&gt;Node101</title>
<path fill="none" stroke="#191970" d="M426.5201,-345C495.7058,-345 605.9653,-345 670.7353,-345"/>
<polygon fill="#191970" stroke="#191970" points="426.2017,-341.5001 416.2017,-345 426.2016,-348.5001 426.2017,-341.5001"/>
</g>
<!-- Node103 -->
<g id="node8" class="node">
<title>Node103</title>
<g id="a_node8"><a xlink:href="class_receive_coins_dialog.html#abcf17b510c473bf3e94ef12f7f5cfc10" target="_top" xlink:title="ReceiveCoinsDialog\l::keyPressEvent">
<polygon fill="#ffffff" stroke="#000000" points="487,-281 487,-311 593,-311 593,-281 487,-281"/>
<text text-anchor="start" x="495" y="-299" font-family="Helvetica,sans-Serif" font-size="10.00" fill="#000000">ReceiveCoinsDialog</text>
<text text-anchor="middle" x="540" y="-288" font-family="Helvetica,sans-Serif" font-size="10.00" fill="#000000">::keyPressEvent</text>
</a>
</g>
</g>
<!-- Node102&#45;&gt;Node103 -->
<g id="edge7" class="edge">
<title>Node102&#45;&gt;Node103</title>
<path fill="none" stroke="#191970" d="M441.0959,-296C456.5287,-296 472.4159,-296 486.8193,-296"/>
<polygon fill="#191970" stroke="#191970" points="441.0402,-292.5001 431.0401,-296 441.0401,-299.5001 441.0402,-292.5001"/>
</g>
<!-- Node105 -->
<g id="node10" class="node">
<title>Node105</title>
<g id="a_node10"><a xlink:href="class_address_table_model.html#afcdbfc17ac480f5a57382cbcf096ccb3" target="_top" xlink:title="Look up label for address in address book, if not found return empty string. ">
<polygon fill="#ffffff" stroke="#000000" points="309.5,-161 309.5,-191 418.5,-191 418.5,-161 309.5,-161"/>
<text text-anchor="start" x="317.5" y="-179" font-family="Helvetica,sans-Serif" font-size="10.00" fill="#000000">AddressTableModel::</text>
<text text-anchor="middle" x="364" y="-168" font-family="Helvetica,sans-Serif" font-size="10.00" fill="#000000">labelForAddress</text>
</a>
</g>
</g>
<!-- Node104&#45;&gt;Node105 -->
<g id="edge9" class="edge">
<title>Node104&#45;&gt;Node105</title>
<path fill="none" stroke="#191970" d="M240.267,-227.9825C267.8367,-216.4 302.5683,-201.8086 328.2111,-191.0356"/>
<polygon fill="#191970" stroke="#191970" points="238.7043,-224.8426 230.8406,-231.9427 241.4157,-231.2962 238.7043,-224.8426"/>
</g>
<!-- Node140 -->
<g id="node45" class="node">
<title>Node140</title>
<g id="a_node45"><a xlink:href="class_address_table_model.html#af91c153d5258a6afae19f8fc7977560d" target="_top" xlink:title="Look up purpose for address in address book, if not found return empty string. ">
<polygon fill="#ffffff" stroke="#000000" points="309.5,-232 309.5,-262 418.5,-262 418.5,-232 309.5,-232"/>
<text text-anchor="start" x="317.5" y="-250" font-family="Helvetica,sans-Serif" font-size="10.00" fill="#000000">AddressTableModel::</text>
<text text-anchor="middle" x="364" y="-239" font-family="Helvetica,sans-Serif" font-size="10.00" fill="#000000">purposeForAddress</text>
</a>
</g>
</g>
<!-- Node104&#45;&gt;Node140 -->
<g id="edge52" class="edge">
<title>Node104&#45;&gt;Node140</title>
<path fill="none" stroke="#191970" d="M259.8904,-247C276.2375,-247 293.6209,-247 309.4058,-247"/>
<polygon fill="#191970" stroke="#191970" points="259.8695,-243.5001 249.8695,-247 259.8694,-250.5001 259.8695,-243.5001"/>
</g>
<!-- Node106 -->
<g id="node11" class="node">
<title>Node106</title>
<g id="a_node11"><a xlink:href="class_coin_control_dialog.html#aadea33050e5c1efd5eae8d2fcfa721f9" target="_top" xlink:title="CoinControlDialog::\lupdateView">
<polygon fill="#ffffff" stroke="#000000" points="489,-183 489,-213 591,-213 591,-183 489,-183"/>
<text text-anchor="start" x="497" y="-201" font-family="Helvetica,sans-Serif" font-size="10.00" fill="#000000">CoinControlDialog::</text>
<text text-anchor="middle" x="540" y="-190" font-family="Helvetica,sans-Serif" font-size="10.00" fill="#000000">updateView</text>
</a>
</g>
</g>
<!-- Node105&#45;&gt;Node106 -->
<g id="edge10" class="edge">
<title>Node105&#45;&gt;Node106</title>
<path fill="none" stroke="#191970" d="M428.8982,-184.1123C448.6937,-186.5867 470.1677,-189.271 488.9125,-191.6141"/>
<polygon fill="#191970" stroke="#191970" points="429.0797,-180.6078 418.7227,-182.8403 428.2114,-187.5537 429.0797,-180.6078"/>
</g>
<!-- Node113 -->
<g id="node18" class="node">
<title>Node113</title>
<g id="a_node18"><a xlink:href="class_edit_address_dialog.html#a2bf04c11b3638604dae3b7aabaefbd29" target="_top" xlink:title="Return a descriptive string when adding an already&#45;existing address fails. ">
<polygon fill="#ffffff" stroke="#000000" points="468.5,-232 468.5,-262 611.5,-262 611.5,-232 468.5,-232"/>
<text text-anchor="start" x="476.5" y="-250" font-family="Helvetica,sans-Serif" font-size="10.00" fill="#000000">EditAddressDialog::</text>
<text text-anchor="middle" x="540" y="-239" font-family="Helvetica,sans-Serif" font-size="10.00" fill="#000000">getDuplicateAddressWarning</text>
</a>
</g>
</g>
<!-- Node105&#45;&gt;Node113 -->
<g id="edge18" class="edge">
<title>Node105&#45;&gt;Node113</title>
<path fill="none" stroke="#191970" d="M404.8499,-195.261C423.6166,-203.8457 446.2659,-213.8389 467,-222 475.6011,-225.3855 484.8689,-228.7621 493.8192,-231.8888"/>
<polygon fill="#191970" stroke="#191970" points="406.2457,-192.0505 395.6985,-191.0461 403.3173,-198.4086 406.2457,-192.0505"/>
</g>
<!-- Node114 -->
<g id="node19" class="node">
<title>Node114</title>
<g id="a_node19"><a xlink:href="class_send_coins_dialog.html#a1f419f2381bce2ae9b4a7bd140f25a4e" target="_top" xlink:title="SendCoinsDialog::coinControl\lChangeEdited">
<polygon fill="#ffffff" stroke="#000000" points="649,-134 649,-164 797,-164 797,-134 649,-134"/>
<text text-anchor="start" x="657" y="-152" font-family="Helvetica,sans-Serif" font-size="10.00" fill="#000000">SendCoinsDialog::coinControl</text>
<text text-anchor="middle" x="723" y="-141" font-family="Helvetica,sans-Serif" font-size="10.00" fill="#000000">ChangeEdited</text>
</a>
</g>
</g>
<!-- Node105&#45;&gt;Node114 -->
<g id="edge20" class="edge">
<title>Node105&#45;&gt;Node114</title>
<path fill="none" stroke="#191970" d="M428.5665,-171.144C490.5121,-166.4852 583.9742,-159.456 648.9194,-154.5715"/>
<polygon fill="#191970" stroke="#191970" points="428.2337,-167.6591 418.5244,-171.8993 428.7587,-174.6394 428.2337,-167.6591"/>
</g>
<!-- Node116 -->
<g id="node21" class="node">
<title>Node116</title>
<g id="a_node21"><a xlink:href="class_send_coins_entry.html#a16e0fdd3248cbf32b60fd601dc8d565a" target="_top" xlink:title="SendCoinsEntry::updateLabel">
<polygon fill="#ffffff" stroke="#000000" points="467,-106.5 467,-125.5 613,-125.5 613,-106.5 467,-106.5"/>
<text text-anchor="middle" x="540" y="-113.5" font-family="Helvetica,sans-Serif" font-size="10.00" fill="#000000">SendCoinsEntry::updateLabel</text>
</a>
</g>
</g>
<!-- Node105&#45;&gt;Node116 -->
<g id="edge24" class="edge">
<title>Node105&#45;&gt;Node116</title>
<path fill="none" stroke="#191970" d="M416.3751,-157.4827C432.582,-151.8096 450.5098,-145.5919 467,-140 481.2768,-135.1586 497.1731,-129.9151 510.4776,-125.5678"/>
<polygon fill="#191970" stroke="#191970" points="414.8126,-154.3216 406.5346,-160.9341 417.1294,-160.9271 414.8126,-154.3216"/>
</g>
<!-- Node118 -->
<g id="node23" class="node">
<title>Node118</title>
<g id="a_node23"><a xlink:href="class_transaction_table_model.html#af13204a63b9901c0d9aeb9f43f915001" target="_top" xlink:title="TransactionTableModel\l::lookupAddress">
<polygon fill="#ffffff" stroke="#000000" points="481,-57 481,-87 599,-87 599,-57 481,-57"/>
<text text-anchor="start" x="489" y="-75" font-family="Helvetica,sans-Serif" font-size="10.00" fill="#000000">TransactionTableModel</text>
<text text-anchor="middle" x="540" y="-64" font-family="Helvetica,sans-Serif" font-size="10.00" fill="#000000">::lookupAddress</text>
</a>
</g>
</g>
<!-- Node105&#45;&gt;Node118 -->
<g id="edge26" class="edge">
<title>Node105&#45;&gt;Node118</title>
<path fill="none" stroke="#191970" d="M423.771,-156.0638C426.2943,-154.4925 428.7191,-152.8069 431,-151 453.6095,-133.0888 444.1491,-114.6022 467,-97 471.9879,-93.1578 477.605,-89.8837 483.4519,-87.0986"/>
<polygon fill="#191970" stroke="#191970" points="421.9392,-153.0772 414.8786,-160.9765 425.3242,-159.2043 421.9392,-153.0772"/>
</g>
<!-- Node139 -->
<g id="node44" class="node">
<title>Node139</title>
<g id="a_node44"><a xlink:href="class_transaction_table_model.html#a4350aca09ceca354956d9a00514c627a" target="_top" xlink:title="TransactionTableModel\l::addressColor">
<polygon fill="#ffffff" stroke="#000000" points="481,-8 481,-38 599,-38 599,-8 481,-8"/>
<text text-anchor="start" x="489" y="-26" font-family="Helvetica,sans-Serif" font-size="10.00" fill="#000000">TransactionTableModel</text>
<text text-anchor="middle" x="540" y="-15" font-family="Helvetica,sans-Serif" font-size="10.00" fill="#000000">::addressColor</text>
</a>
</g>
</g>
<!-- Node105&#45;&gt;Node139 -->
<g id="edge51" class="edge">
<title>Node105&#45;&gt;Node139</title>
<path fill="none" stroke="#191970" d="M426.5521,-155.058C428.1132,-153.7836 429.6014,-152.4324 431,-151 465.1712,-116.0025 432.1443,-81.3158 467,-47 471.0879,-42.9754 475.8622,-39.6257 480.9768,-36.8377"/>
<polygon fill="#191970" stroke="#191970" points="424.4588,-152.2501 418.2184,-160.8121 428.4361,-158.0104 424.4588,-152.2501"/>
</g>
<!-- Node107 -->
<g id="node12" class="node">
<title>Node107</title>
<g id="a_node12"><a xlink:href="class_coin_control_dialog.html#a4c34a48574814089c54f763a22f5317a" target="_top" xlink:title="CoinControlDialog::\lsetModel">
<polygon fill="#ffffff" stroke="#000000" points="672,-281 672,-311 774,-311 774,-281 672,-281"/>
<text text-anchor="start" x="680" y="-299" font-family="Helvetica,sans-Serif" font-size="10.00" fill="#000000">CoinControlDialog::</text>
<text text-anchor="middle" x="723" y="-288" font-family="Helvetica,sans-Serif" font-size="10.00" fill="#000000">setModel</text>
</a>
</g>
</g>
<!-- Node106&#45;&gt;Node107 -->
<g id="edge11" class="edge">
<title>Node106&#45;&gt;Node107</title>
<path fill="none" stroke="#191970" d="M600.3804,-214.4227C604.8222,-216.6491 609.0883,-219.1635 613,-222 634.8771,-237.8639 627.1878,-255.0469 649,-271 655.8956,-276.0434 663.8789,-280.1185 671.9969,-283.3965"/>
<polygon fill="#191970" stroke="#191970" points="601.6296,-211.1471 591.0732,-210.2457 598.7635,-217.5334 601.6296,-211.1471"/>
</g>
<!-- Node110 -->
<g id="node15" class="node">
<title>Node110</title>
<g id="a_node15"><a xlink:href="class_coin_control_dialog.html#a1990d478f3ffba666c358a4f1bd395ec" target="_top" xlink:title="CoinControlDialog::\lradioTreeMode">
<polygon fill="#ffffff" stroke="#000000" points="672,-232 672,-262 774,-262 774,-232 672,-232"/>
<text text-anchor="start" x="680" y="-250" font-family="Helvetica,sans-Serif" font-size="10.00" fill="#000000">CoinControlDialog::</text>
<text text-anchor="middle" x="723" y="-239" font-family="Helvetica,sans-Serif" font-size="10.00" fill="#000000">radioTreeMode</text>
</a>
</g>
</g>
<!-- Node106&#45;&gt;Node110 -->
<g id="edge14" class="edge">
<title>Node106&#45;&gt;Node110</title>
<path fill="none" stroke="#191970" d="M601.4219,-214.4463C624.3225,-220.5782 650.0515,-227.4674 671.9236,-233.3238"/>
<polygon fill="#191970" stroke="#191970" points="602.0277,-210.9853 591.4627,-211.7796 600.2171,-217.7471 602.0277,-210.9853"/>
</g>
<!-- Node112 -->
<g id="node17" class="node">
<title>Node112</title>
<g id="a_node17"><a xlink:href="class_coin_control_dialog.html#a775c6d290cb63667a434b09072094533" target="_top" xlink:title="CoinControlDialog::\lradioListMode">
<polygon fill="#ffffff" stroke="#000000" points="672,-183 672,-213 774,-213 774,-183 672,-183"/>
<text text-anchor="start" x="680" y="-201" font-family="Helvetica,sans-Serif" font-size="10.00" fill="#000000">CoinControlDialog::</text>
<text text-anchor="middle" x="723" y="-190" font-family="Helvetica,sans-Serif" font-size="10.00" fill="#000000">radioListMode</text>
</a>
</g>
</g>
<!-- Node106&#45;&gt;Node112 -->
<g id="edge16" class="edge">
<title>Node106&#45;&gt;Node112</title>
<path fill="none" stroke="#191970" d="M601.7301,-198C624.5532,-198 650.1496,-198 671.9236,-198"/>
<polygon fill="#191970" stroke="#191970" points="601.4627,-194.5001 591.4627,-198 601.4627,-201.5001 601.4627,-194.5001"/>
</g>
<!-- Node108 -->
<g id="node13" class="node">
<title>Node108</title>
<g id="a_node13"><a xlink:href="class_send_coins_dialog.html#a59d757d9e4bea5b380eb480fd79cfb49" target="_top" xlink:title="SendCoinsDialog::coinControl\lButtonClicked">
<polygon fill="#ffffff" stroke="#000000" points="833,-278 833,-308 981,-308 981,-278 833,-278"/>
<text text-anchor="start" x="841" y="-296" font-family="Helvetica,sans-Serif" font-size="10.00" fill="#000000">SendCoinsDialog::coinControl</text>
<text text-anchor="middle" x="907" y="-285" font-family="Helvetica,sans-Serif" font-size="10.00" fill="#000000">ButtonClicked</text>
</a>
</g>
</g>
<!-- Node107&#45;&gt;Node108 -->
<g id="edge12" class="edge">
<title>Node107&#45;&gt;Node108</title>
<path fill="none" stroke="#191970" d="M784.292,-295.0007C799.8918,-294.7463 816.8223,-294.4703 832.9824,-294.2068"/>
<polygon fill="#191970" stroke="#191970" points="784.1958,-291.5017 774.2543,-295.1643 784.31,-298.5007 784.1958,-291.5017"/>
</g>
<!-- Node109 -->
<g id="node14" class="node">
<title>Node109</title>
<g id="a_node14"><a xlink:href="class_send_coins_dialog.html#affacd36b4df87a68e2fe706ef388c0a6" target="_top" xlink:title="SendCoinsDialog::SendCoins\lDialog">
<polygon fill="#ffffff" stroke="#000000" points="1017,-178 1017,-208 1163,-208 1163,-178 1017,-178"/>
<text text-anchor="start" x="1025" y="-196" font-family="Helvetica,sans-Serif" font-size="10.00" fill="#000000">SendCoinsDialog::SendCoins</text>
<text text-anchor="middle" x="1090" y="-185" font-family="Helvetica,sans-Serif" font-size="10.00" fill="#000000">Dialog</text>
</a>
</g>
</g>
<!-- Node108&#45;&gt;Node109 -->
<g id="edge13" class="edge">
<title>Node108&#45;&gt;Node109</title>
<path fill="none" stroke="#191970" d="M963.1343,-274.1503C969.2544,-271.6154 975.3189,-268.8857 981,-266 1014.0989,-249.1875 1049.2382,-224.1897 1070.4009,-208.246"/>
<polygon fill="#191970" stroke="#191970" points="961.5213,-271.0248 953.5184,-277.9677 964.1042,-277.5309 961.5213,-271.0248"/>
</g>
<!-- Node111 -->
<g id="node16" class="node">
<title>Node111</title>
<g id="a_node16"><a xlink:href="class_coin_control_dialog.html#a3cec3ece6aa5eec3e7829e042356a659" target="_top" xlink:title="CoinControlDialog::\lCoinControlDialog">
<polygon fill="#ffffff" stroke="#000000" points="856,-227 856,-257 958,-257 958,-227 856,-227"/>
<text text-anchor="start" x="864" y="-245" font-family="Helvetica,sans-Serif" font-size="10.00" fill="#000000">CoinControlDialog::</text>
<text text-anchor="middle" x="907" y="-234" font-family="Helvetica,sans-Serif" font-size="10.00" fill="#000000">CoinControlDialog</text>
</a>
</g>
</g>
<!-- Node110&#45;&gt;Node111 -->
<g id="edge15" class="edge">
<title>Node110&#45;&gt;Node111</title>
<path fill="none" stroke="#191970" d="M784.3194,-245.3337C807.4747,-244.7045 833.5583,-243.9957 855.7018,-243.394"/>
<polygon fill="#191970" stroke="#191970" points="784.1555,-241.8368 774.2543,-245.6072 784.3457,-248.8342 784.1555,-241.8368"/>
</g>
<!-- Node112&#45;&gt;Node111 -->
<g id="edge17" class="edge">
<title>Node112&#45;&gt;Node111</title>
<path fill="none" stroke="#191970" d="M784.008,-212.5889C807.2407,-218.1445 833.459,-224.4141 855.7018,-229.733"/>
<polygon fill="#191970" stroke="#191970" points="784.7941,-209.1782 774.2543,-210.2565 783.166,-215.9863 784.7941,-209.1782"/>
</g>
<!-- Node113&#45;&gt;Node101 -->
<g id="edge19" class="edge">
<title>Node113&#45;&gt;Node101</title>
<path fill="none" stroke="#191970" d="M605.0782,-266.8463C607.8335,-268.4409 610.4898,-270.1561 613,-272 634.779,-287.9983 627.0911,-305.18 649,-321 655.5699,-325.744 663.125,-329.5826 670.8428,-332.6796"/>
<polygon fill="#191970" stroke="#191970" points="606.4905,-263.6364 595.9999,-262.1537 603.2762,-269.8548 606.4905,-263.6364"/>
</g>
<!-- Node114&#45;&gt;Node109 -->
<g id="edge21" class="edge">
<title>Node114&#45;&gt;Node109</title>
<path fill="none" stroke="#191970" d="M794.7449,-166.1363C807.4347,-168.7424 820.5641,-171.1683 833,-173 894.6533,-182.081 965.2748,-187.2004 1016.8663,-189.9811"/>
<polygon fill="#191970" stroke="#191970" points="795.1908,-162.6535 784.6839,-164.0156 793.747,-169.503 795.1908,-162.6535"/>
</g>
<!-- Node115 -->
<g id="node20" class="node">
<title>Node115</title>
<g id="a_node20"><a xlink:href="class_send_coins_dialog.html#a21224b0dedf14f7a6c05174bff9dea65" target="_top" xlink:title="SendCoinsDialog::coinControl\lChangeChecked">
<polygon fill="#ffffff" stroke="#000000" points="833,-134 833,-164 981,-164 981,-134 833,-134"/>
<text text-anchor="start" x="841" y="-152" font-family="Helvetica,sans-Serif" font-size="10.00" fill="#000000">SendCoinsDialog::coinControl</text>
<text text-anchor="middle" x="907" y="-141" font-family="Helvetica,sans-Serif" font-size="10.00" fill="#000000">ChangeChecked</text>
</a>
</g>
</g>
<!-- Node114&#45;&gt;Node115 -->
<g id="edge22" class="edge">
<title>Node114&#45;&gt;Node115</title>
<path fill="none" stroke="#191970" d="M807.0658,-149C815.6542,-149 824.3356,-149 832.8075,-149"/>
<polygon fill="#191970" stroke="#191970" points="807.0445,-145.5001 797.0445,-149 807.0445,-152.5001 807.0445,-145.5001"/>
</g>
<!-- Node115&#45;&gt;Node109 -->
<g id="edge23" class="edge">
<title>Node115&#45;&gt;Node109</title>
<path fill="none" stroke="#191970" d="M979.2721,-166.3769C995.2195,-170.2112 1011.9831,-174.2418 1027.5046,-177.9738"/>
<polygon fill="#191970" stroke="#191970" points="980.0075,-162.954 969.4664,-164.0192 978.3711,-169.7601 980.0075,-162.954"/>
</g>
<!-- Node117 -->
<g id="node22" class="node">
<title>Node117</title>
<g id="a_node22"><a xlink:href="class_send_coins_entry.html#a73088d2789e8ced5de3a0597fb1f30c5" target="_top" xlink:title="SendCoinsEntry::on\l_payTo_textChanged">
<polygon fill="#ffffff" stroke="#000000" points="668,-85 668,-115 778,-115 778,-85 668,-85"/>
<text text-anchor="start" x="676" y="-103" font-family="Helvetica,sans-Serif" font-size="10.00" fill="#000000">SendCoinsEntry::on</text>
<text text-anchor="middle" x="723" y="-92" font-family="Helvetica,sans-Serif" font-size="10.00" fill="#000000">_payTo_textChanged</text>
</a>
</g>
</g>
<!-- Node116&#45;&gt;Node117 -->
<g id="edge25" class="edge">
<title>Node116&#45;&gt;Node117</title>
<path fill="none" stroke="#191970" d="M623.4503,-108.7038C638.4748,-107.3902 653.7911,-106.051 667.7619,-104.8296"/>
<polygon fill="#191970" stroke="#191970" points="622.7725,-105.2496 613.1154,-109.6074 623.3823,-112.223 622.7725,-105.2496"/>
</g>
<!-- Node119 -->
<g id="node24" class="node">
<title>Node119</title>
<g id="a_node24"><a xlink:href="class_transaction_table_model.html#ada92bead83848f3ec231833e5964c27f" target="_top" xlink:title="TransactionTableModel\l::formatTxToAddress">
<polygon fill="#ffffff" stroke="#000000" points="664,-36 664,-66 782,-66 782,-36 664,-36"/>
<text text-anchor="start" x="672" y="-54" font-family="Helvetica,sans-Serif" font-size="10.00" fill="#000000">TransactionTableModel</text>
<text text-anchor="middle" x="723" y="-43" font-family="Helvetica,sans-Serif" font-size="10.00" fill="#000000">::formatTxToAddress</text>
</a>
</g>
</g>
<!-- Node118&#45;&gt;Node119 -->
<g id="edge27" class="edge">
<title>Node118&#45;&gt;Node119</title>
<path fill="none" stroke="#191970" d="M609.2703,-64.051C627.2066,-61.9927 646.3559,-59.7952 663.7283,-57.8017"/>
<polygon fill="#191970" stroke="#191970" points="608.6979,-60.5936 599.1621,-65.2109 609.496,-67.5479 608.6979,-60.5936"/>
</g>
<!-- Node120 -->
<g id="node25" class="node">
<title>Node120</title>
<g id="a_node25"><a xlink:href="class_transaction_table_model.html#a535a0f50a4404a73194e02c3c09e13c0" target="_top" xlink:title="TransactionTableModel\l::formatTooltip">
<polygon fill="#ffffff" stroke="#000000" points="848,-58 848,-88 966,-88 966,-58 848,-58"/>
<text text-anchor="start" x="856" y="-76" font-family="Helvetica,sans-Serif" font-size="10.00" fill="#000000">TransactionTableModel</text>
<text text-anchor="middle" x="907" y="-65" font-family="Helvetica,sans-Serif" font-size="10.00" fill="#000000">::formatTooltip</text>
</a>
</g>
</g>
<!-- Node119&#45;&gt;Node120 -->
<g id="edge28" class="edge">
<title>Node119&#45;&gt;Node120</title>
<path fill="none" stroke="#191970" d="M792.2527,-59.2802C810.5644,-61.4697 830.1589,-63.8125 847.8794,-65.9312"/>
<polygon fill="#191970" stroke="#191970" points="792.5764,-55.7941 782.2316,-58.082 791.7453,-62.7446 792.5764,-55.7941"/>
</g>
<!-- Node121 -->
<g id="node26" class="node">
<title>Node121</title>
<g id="a_node26"><a xlink:href="class_transaction_table_model.html#a02173c31b6014bff182e320217e30e10" target="_top" xlink:title="TransactionTableModel\l::data">
<polygon fill="#ffffff" stroke="#000000" points="1031,-36 1031,-66 1149,-66 1149,-36 1031,-36"/>
<text text-anchor="start" x="1039" y="-54" font-family="Helvetica,sans-Serif" font-size="10.00" fill="#000000">TransactionTableModel</text>
<text text-anchor="middle" x="1090" y="-43" font-family="Helvetica,sans-Serif" font-size="10.00" fill="#000000">::data</text>
</a>
</g>
</g>
<!-- Node119&#45;&gt;Node121 -->
<g id="edge50" class="edge">
<title>Node119&#45;&gt;Node121</title>
<path fill="none" stroke="#191970" d="M792.2764,-48.823C805.7812,-48.4799 819.8327,-48.1795 833,-48 898.7717,-47.1033 915.2284,-47.0951 981,-48 997.1843,-48.2227 1014.7164,-48.6312 1030.8908,-49.0767"/>
<polygon fill="#191970" stroke="#191970" points="791.9834,-45.3294 782.0794,-49.0924 792.1684,-52.3269 791.9834,-45.3294"/>
</g>
<!-- Node120&#45;&gt;Node121 -->
<g id="edge29" class="edge">
<title>Node120&#45;&gt;Node121</title>
<path fill="none" stroke="#191970" d="M976.2703,-64.6724C994.2066,-62.5161 1013.3559,-60.214 1030.7283,-58.1256"/>
<polygon fill="#191970" stroke="#191970" points="975.6729,-61.219 966.1621,-65.8876 976.5084,-68.1689 975.6729,-61.219"/>
</g>
<!-- Node122 -->
<g id="node27" class="node">
<title>Node122</title>
<g id="a_node27"><a xlink:href="class_transaction_table_model.html#af3a9a49314f80268a77a704f7f028905" target="_top" xlink:title="TransactionTableModel\l::index">
<polygon fill="#ffffff" stroke="#000000" points="1199,-58 1199,-88 1317,-88 1317,-58 1199,-58"/>
<text text-anchor="start" x="1207" y="-76" font-family="Helvetica,sans-Serif" font-size="10.00" fill="#000000">TransactionTableModel</text>
<text text-anchor="middle" x="1258" y="-65" font-family="Helvetica,sans-Serif" font-size="10.00" fill="#000000">::index</text>
</a>
</g>
</g>
<!-- Node121&#45;&gt;Node122 -->
<g id="edge30" class="edge">
<title>Node121&#45;&gt;Node122</title>
<path fill="none" stroke="#191970" d="M1159.1589,-60.0565C1172.2988,-61.7772 1185.9391,-63.5635 1198.7381,-65.2395"/>
<polygon fill="#191970" stroke="#191970" points="1159.6003,-56.5845 1149.2305,-58.7564 1158.6914,-63.5253 1159.6003,-56.5845"/>
</g>
<!-- Node129 -->
<g id="node34" class="node">
<title>Node129</title>
<g id="a_node34"><a xlink:href="class_wallet_view.html#addde7d2260658ee06f47f9c095a8cb2a" target="_top" xlink:title="Show incoming transaction notification for new transactions. ">
<polygon fill="#ffffff" stroke="#000000" points="1353,-19.5 1353,-38.5 1531,-38.5 1531,-19.5 1353,-19.5"/>
<text text-anchor="middle" x="1442" y="-26.5" font-family="Helvetica,sans-Serif" font-size="10.00" fill="#000000">WalletView::processNewTransaction</text>
</a>
</g>
</g>
<!-- Node121&#45;&gt;Node129 -->
<g id="edge49" class="edge">
<title>Node121&#45;&gt;Node129</title>
<path fill="none" stroke="#191970" d="M1159.3772,-46.6639C1214.7292,-43.2044 1292.661,-38.3337 1352.6742,-34.5829"/>
<polygon fill="#191970" stroke="#191970" points="1159.0761,-43.1758 1149.314,-47.2929 1159.5128,-50.1622 1159.0761,-43.1758"/>
</g>
<!-- Node123 -->
<g id="node28" class="node">
<title>Node123</title>
<g id="a_node28"><a xlink:href="class_transaction_table_model.html#a5899d9eda6465bfb16d2846b6459567e" target="_top" xlink:title="TransactionTableModel\l::updateConfirmations">
<polygon fill="#ffffff" stroke="#000000" points="1383,-145 1383,-175 1501,-175 1501,-145 1383,-145"/>
<text text-anchor="start" x="1391" y="-163" font-family="Helvetica,sans-Serif" font-size="10.00" fill="#000000">TransactionTableModel</text>
<text text-anchor="middle" x="1442" y="-152" font-family="Helvetica,sans-Serif" font-size="10.00" fill="#000000">::updateConfirmations</text>
</a>
</g>
</g>
<!-- Node122&#45;&gt;Node123 -->
<g id="edge31" class="edge">
<title>Node122&#45;&gt;Node123</title>
<path fill="none" stroke="#191970" d="M1285.7632,-94.3725C1304.0426,-107.6023 1328.9569,-124.0886 1353,-135 1362.3535,-139.2449 1372.5927,-142.9298 1382.6902,-146.0695"/>
<polygon fill="#191970" stroke="#191970" points="1287.4826,-91.2919 1277.3556,-88.1782 1283.3305,-96.9276 1287.4826,-91.2919"/>
</g>
<!-- Node126 -->
<g id="node31" class="node">
<title>Node126</title>
<g id="a_node31"><a xlink:href="class_transaction_table_model.html#a8b73ff7d72ec2dd69790bc61bbe8575e" target="_top" xlink:title="TransactionTableModel\l::updateDisplayUnit">
<polygon fill="#ffffff" stroke="#000000" points="1383,-96 1383,-126 1501,-126 1501,-96 1383,-96"/>
<text text-anchor="start" x="1391" y="-114" font-family="Helvetica,sans-Serif" font-size="10.00" fill="#000000">TransactionTableModel</text>
<text text-anchor="middle" x="1442" y="-103" font-family="Helvetica,sans-Serif" font-size="10.00" fill="#000000">::updateDisplayUnit</text>
</a>
</g>
</g>
<!-- Node122&#45;&gt;Node126 -->
<g id="edge34" class="edge">
<title>Node122&#45;&gt;Node126</title>
<path fill="none" stroke="#191970" d="M1327.2527,-87.3022C1345.5644,-91.084 1365.1589,-95.1306 1382.8794,-98.7903"/>
<polygon fill="#191970" stroke="#191970" points="1327.7328,-83.8276 1317.2316,-85.2326 1326.317,-90.6829 1327.7328,-83.8276"/>
</g>
<!-- Node128 -->
<g id="node33" class="node">
<title>Node128</title>
<g id="a_node33"><a xlink:href="class_transaction_view.html#a03be25d0d7808e8f96dffc8fb83e637e" target="_top" xlink:title="TransactionView::focusTransaction">
<polygon fill="#ffffff" stroke="#000000" points="1357,-57.5 1357,-76.5 1527,-76.5 1527,-57.5 1357,-57.5"/>
<text text-anchor="middle" x="1442" y="-64.5" font-family="Helvetica,sans-Serif" font-size="10.00" fill="#000000">TransactionView::focusTransaction</text>
</a>
</g>
</g>
<!-- Node122&#45;&gt;Node128 -->
<g id="edge36" class="edge">
<title>Node122&#45;&gt;Node128</title>
<path fill="none" stroke="#191970" d="M1327.4562,-70.7351C1337.0239,-70.4231 1346.9383,-70.0998 1356.7497,-69.7799"/>
<polygon fill="#191970" stroke="#191970" points="1327.1122,-67.2444 1317.2316,-71.0685 1327.3404,-74.2407 1327.1122,-67.2444"/>
</g>
<!-- Node122&#45;&gt;Node129 -->
<g id="edge37" class="edge">
<title>Node122&#45;&gt;Node129</title>
<path fill="none" stroke="#191970" d="M1323.2476,-55.3979C1333.1951,-52.8395 1343.3568,-50.2968 1353,-48 1366.679,-44.7419 1381.6037,-41.4528 1395.2548,-38.548"/>
<polygon fill="#191970" stroke="#191970" points="1322.1991,-52.0539 1313.3985,-57.9531 1323.957,-58.8296 1322.1991,-52.0539"/>
</g>
<!-- Node124 -->
<g id="node29" class="node">
<title>Node124</title>
<g id="a_node29"><a xlink:href="class_wallet_model.html#a51469b2d95cfd4bc0a14ee456fca7b95" target="_top" xlink:title="WalletModel::pollBalance\lChanged">
<polygon fill="#ffffff" stroke="#000000" points="1573.5,-145 1573.5,-175 1700.5,-175 1700.5,-145 1573.5,-145"/>
<text text-anchor="start" x="1581.5" y="-163" font-family="Helvetica,sans-Serif" font-size="10.00" fill="#000000">WalletModel::pollBalance</text>
<text text-anchor="middle" x="1637" y="-152" font-family="Helvetica,sans-Serif" font-size="10.00" fill="#000000">Changed</text>
</a>
</g>
</g>
<!-- Node123&#45;&gt;Node124 -->
<g id="edge32" class="edge">
<title>Node123&#45;&gt;Node124</title>
<path fill="none" stroke="#191970" d="M1511.1426,-160C1531.4238,-160 1553.4981,-160 1573.4153,-160"/>
<polygon fill="#191970" stroke="#191970" points="1511.0356,-156.5001 1501.0356,-160 1511.0356,-163.5001 1511.0356,-156.5001"/>
</g>
<!-- Node125 -->
<g id="node30" class="node">
<title>Node125</title>
<g id="a_node30"><a xlink:href="class_wallet_model.html#ac0d2832c06b91e9f0aecb2c7d45fce81" target="_top" xlink:title="WalletModel::WalletModel">
<polygon fill="#ffffff" stroke="#000000" points="1747.5,-150.5 1747.5,-169.5 1878.5,-169.5 1878.5,-150.5 1747.5,-150.5"/>
<text text-anchor="middle" x="1813" y="-157.5" font-family="Helvetica,sans-Serif" font-size="10.00" fill="#000000">WalletModel::WalletModel</text>
</a>
</g>
</g>
<!-- Node124&#45;&gt;Node125 -->
<g id="edge33" class="edge">
<title>Node124&#45;&gt;Node125</title>
<path fill="none" stroke="#191970" d="M1710.6872,-160C1722.8985,-160 1735.4876,-160 1747.4797,-160"/>
<polygon fill="#191970" stroke="#191970" points="1710.5401,-156.5001 1700.54,-160 1710.54,-163.5001 1710.5401,-156.5001"/>
</g>
<!-- Node127 -->
<g id="node32" class="node">
<title>Node127</title>
<g id="a_node32"><a xlink:href="class_transaction_table_model.html#addebfd4c35896f17a6a9fec9f40eeeb7" target="_top" xlink:title="TransactionTableModel\l::TransactionTableModel">
<polygon fill="#ffffff" stroke="#000000" points="1575,-96 1575,-126 1699,-126 1699,-96 1575,-96"/>
<text text-anchor="start" x="1583" y="-114" font-family="Helvetica,sans-Serif" font-size="10.00" fill="#000000">TransactionTableModel</text>
<text text-anchor="middle" x="1637" y="-103" font-family="Helvetica,sans-Serif" font-size="10.00" fill="#000000">::TransactionTableModel</text>
</a>
</g>
</g>
<!-- Node126&#45;&gt;Node127 -->
<g id="edge35" class="edge">
<title>Node126&#45;&gt;Node127</title>
<path fill="none" stroke="#191970" d="M1511.0609,-111C1531.8293,-111 1554.4843,-111 1574.7814,-111"/>
<polygon fill="#191970" stroke="#191970" points="1511.0356,-107.5001 1501.0356,-111 1511.0356,-114.5001 1511.0356,-107.5001"/>
</g>
<!-- Node130 -->
<g id="node35" class="node">
<title>Node130</title>
<g id="a_node35"><a xlink:href="class_wallet_view.html#a0a37ff693a4f9c1e5ddc23f9cd3913be" target="_top" xlink:title="Set the wallet model. ">
<polygon fill="#ffffff" stroke="#000000" points="1567,-19.5 1567,-38.5 1707,-38.5 1707,-19.5 1567,-19.5"/>
<text text-anchor="middle" x="1637" y="-26.5" font-family="Helvetica,sans-Serif" font-size="10.00" fill="#000000">WalletView::setWalletModel</text>
</a>
</g>
</g>
<!-- Node129&#45;&gt;Node130 -->
<g id="edge38" class="edge">
<title>Node129&#45;&gt;Node130</title>
<path fill="none" stroke="#191970" d="M1541.3179,-29C1549.9217,-29 1558.5066,-29 1566.8045,-29"/>
<polygon fill="#191970" stroke="#191970" points="1541.2252,-25.5001 1531.2252,-29 1541.2251,-32.5001 1541.2252,-25.5001"/>
</g>
<!-- Node131 -->
<g id="node36" class="node">
<title>Node131</title>
<g id="a_node36"><a xlink:href="class_wallet_frame.html#a06cb28194836995e50cc46716b2227ff" target="_top" xlink:title="WalletFrame::addWallet">
<polygon fill="#ffffff" stroke="#000000" points="1752,-57.5 1752,-76.5 1874,-76.5 1874,-57.5 1752,-57.5"/>
<text text-anchor="middle" x="1813" y="-64.5" font-family="Helvetica,sans-Serif" font-size="10.00" fill="#000000">WalletFrame::addWallet</text>
</a>
</g>
</g>
<!-- Node130&#45;&gt;Node131 -->
<g id="edge39" class="edge">
<title>Node130&#45;&gt;Node131</title>
<path fill="none" stroke="#191970" d="M1691.433,-40.7526C1716.3194,-46.1258 1745.4188,-52.4086 1768.9071,-57.4799"/>
<polygon fill="#191970" stroke="#191970" points="1691.9257,-37.2784 1681.4122,-38.589 1690.4483,-44.1207 1691.9257,-37.2784"/>
</g>
<!-- Node137 -->
<g id="node42" class="node">
<title>Node137</title>
<g id="a_node42"><a xlink:href="class_wallet_view.html#af74afee27526920cadb16622b1f836c1" target="_top" xlink:title="WalletView::getWalletModel">
<polygon fill="#ffffff" stroke="#000000" points="1743,-19.5 1743,-38.5 1883,-38.5 1883,-19.5 1743,-19.5"/>
<text text-anchor="middle" x="1813" y="-26.5" font-family="Helvetica,sans-Serif" font-size="10.00" fill="#000000">WalletView::getWalletModel</text>
</a>
</g>
</g>
<!-- Node130&#45;&gt;Node137 -->
<g id="edge46" class="edge">
<title>Node130&#45;&gt;Node137</title>
<path fill="none" stroke="#191970" d="M1717.1006,-29C1725.7058,-29 1734.4124,-29 1742.888,-29"/>
<polygon fill="#191970" stroke="#191970" points="1717.0656,-25.5001 1707.0656,-29 1717.0655,-32.5001 1717.0656,-25.5001"/>
</g>
<!-- Node132 -->
<g id="node37" class="node">
<title>Node132</title>
<g id="a_node37"><a xlink:href="class_bitcoin_g_u_i.html#a99d71e1f8478ab937ce2522c8d3815e3" target="_top" xlink:title="Set the client model. ">
<polygon fill="#ffffff" stroke="#000000" points="1919,-57.5 1919,-76.5 2055,-76.5 2055,-57.5 1919,-57.5"/>
<text text-anchor="middle" x="1987" y="-64.5" font-family="Helvetica,sans-Serif" font-size="10.00" fill="#000000">BitcoinGUI::setClientModel</text>
</a>
</g>
</g>
<!-- Node131&#45;&gt;Node132 -->
<g id="edge40" class="edge">
<title>Node131&#45;&gt;Node132</title>
<path fill="none" stroke="#191970" d="M1884.6053,-67C1895.9113,-67 1907.5755,-67 1918.8012,-67"/>
<polygon fill="#191970" stroke="#191970" points="1884.3459,-63.5001 1874.3459,-67 1884.3459,-70.5001 1884.3459,-63.5001"/>
</g>
<!-- Node133 -->
<g id="node38" class="node">
<title>Node133</title>
<g id="a_node38"><a xlink:href="class_bitcoin_application.html#a37c560d4c04d14a6da151b82caf8888f" target="_top" xlink:title="Request core shutdown. ">
<polygon fill="#ffffff" stroke="#000000" points="2353,-74 2353,-104 2451,-104 2451,-74 2353,-74"/>
<text text-anchor="start" x="2361" y="-92" font-family="Helvetica,sans-Serif" font-size="10.00" fill="#000000">BitcoinApplication</text>
<text text-anchor="middle" x="2402" y="-81" font-family="Helvetica,sans-Serif" font-size="10.00" fill="#000000">::requestShutdown</text>
</a>
</g>
</g>
<!-- Node132&#45;&gt;Node133 -->
<g id="edge41" class="edge">
<title>Node132&#45;&gt;Node133</title>
<path fill="none" stroke="#191970" d="M2065.1235,-71.1415C2149.6058,-75.6201 2281.6961,-82.6224 2352.774,-86.3904"/>
<polygon fill="#191970" stroke="#191970" points="2065.2354,-67.6426 2055.0641,-70.6082 2064.8648,-74.6328 2065.2354,-67.6426"/>
</g>
<!-- Node134 -->
<g id="node39" class="node">
<title>Node134</title>
<g id="a_node39"><a xlink:href="class_bitcoin_application.html#a5bcf1bf32a7508326e0dd630a59a887d" target="_top" xlink:title="BitcoinApplication\l::initializeResult">
<polygon fill="#ffffff" stroke="#000000" points="2091,-30 2091,-60 2186,-60 2186,-30 2091,-30"/>
<text text-anchor="start" x="2099" y="-48" font-family="Helvetica,sans-Serif" font-size="10.00" fill="#000000">BitcoinApplication</text>
<text text-anchor="middle" x="2138.5" y="-37" font-family="Helvetica,sans-Serif" font-size="10.00" fill="#000000">::initializeResult</text>
</a>
</g>
</g>
<!-- Node132&#45;&gt;Node134 -->
<g id="edge42" class="edge">
<title>Node132&#45;&gt;Node134</title>
<path fill="none" stroke="#191970" d="M2062.5183,-56.0336C2072.092,-54.6434 2081.6706,-53.2525 2090.6425,-51.9496"/>
<polygon fill="#191970" stroke="#191970" points="2061.9622,-52.5776 2052.569,-57.4784 2062.9682,-59.5049 2061.9622,-52.5776"/>
</g>
<!-- Node135 -->
<g id="node40" class="node">
<title>Node135</title>
<g id="a_node40"><a xlink:href="class_bitcoin_application.html#a61afce9356e452c53ad4c83f5ca19df8" target="_top" xlink:title="BitcoinApplication\l::startThread">
<polygon fill="#ffffff" stroke="#000000" points="2222,-30 2222,-60 2317,-60 2317,-30 2222,-30"/>
<text text-anchor="start" x="2230" y="-48" font-family="Helvetica,sans-Serif" font-size="10.00" fill="#000000">BitcoinApplication</text>
<text text-anchor="middle" x="2269.5" y="-37" font-family="Helvetica,sans-Serif" font-size="10.00" fill="#000000">::startThread</text>
</a>
</g>
</g>
<!-- Node134&#45;&gt;Node135 -->
<g id="edge43" class="edge">
<title>Node134&#45;&gt;Node135</title>
<path fill="none" stroke="#191970" d="M2196.3507,-45C2204.8031,-45 2213.4278,-45 2221.6514,-45"/>
<polygon fill="#191970" stroke="#191970" points="2196.1646,-41.5001 2186.1646,-45 2196.1645,-48.5001 2196.1646,-41.5001"/>
</g>
<!-- Node135&#45;&gt;Node133 -->
<g id="edge45" class="edge">
<title>Node135&#45;&gt;Node133</title>
<path fill="none" stroke="#191970" d="M2324.3974,-63.2301C2335.0864,-66.7796 2346.1819,-70.4642 2356.5256,-73.8991"/>
<polygon fill="#191970" stroke="#191970" points="2325.3219,-59.8492 2314.7284,-60.0192 2323.1157,-66.4925 2325.3219,-59.8492"/>
</g>
<!-- Node136 -->
<g id="node41" class="node">
<title>Node136</title>
<g id="a_node41"><a xlink:href="class_bitcoin_application.html#ade19c44b87b00b6b19b433caf4c22ba6" target="_top" xlink:title="Request core initialization. ">
<polygon fill="#ffffff" stroke="#000000" points="2354.5,-25 2354.5,-55 2449.5,-55 2449.5,-25 2354.5,-25"/>
<text text-anchor="start" x="2362.5" y="-43" font-family="Helvetica,sans-Serif" font-size="10.00" fill="#000000">BitcoinApplication</text>
<text text-anchor="middle" x="2402" y="-32" font-family="Helvetica,sans-Serif" font-size="10.00" fill="#000000">::requestInitialize</text>
</a>
</g>
</g>
<!-- Node135&#45;&gt;Node136 -->
<g id="edge44" class="edge">
<title>Node135&#45;&gt;Node136</title>
<path fill="none" stroke="#191970" d="M2327.3471,-42.8171C2336.325,-42.4783 2345.5122,-42.1316 2354.2347,-41.8025"/>
<polygon fill="#191970" stroke="#191970" points="2327.1964,-39.3202 2317.3355,-43.1949 2327.4604,-46.3152 2327.1964,-39.3202"/>
</g>
<!-- Node138 -->
<g id="node43" class="node">
<title>Node138</title>
<g id="a_node43"><a xlink:href="class_wallet_view.html#a8a1f4b689abc0f1073c547ec1f871a26" target="_top" xlink:title="Show progress dialog e.g. ">
<polygon fill="#ffffff" stroke="#000000" points="1920,-.5 1920,-19.5 2054,-19.5 2054,-.5 1920,-.5"/>
<text text-anchor="middle" x="1987" y="-7.5" font-family="Helvetica,sans-Serif" font-size="10.00" fill="#000000">WalletView::showProgress</text>
</a>
</g>
</g>
<!-- Node137&#45;&gt;Node138 -->
<g id="edge47" class="edge">
<title>Node137&#45;&gt;Node138</title>
<path fill="none" stroke="#191970" d="M1893.0964,-20.2538C1902.0763,-19.2733 1911.1549,-18.2819 1919.9463,-17.322"/>
<polygon fill="#191970" stroke="#191970" points="1892.5813,-16.7892 1883.0203,-21.3541 1893.3412,-23.7478 1892.5813,-16.7892"/>
</g>
<!-- Node138&#45;&gt;Node130 -->
<g id="edge48" class="edge">
<title>Node138&#45;&gt;Node130</title>
<path fill="none" stroke="#191970" d="M1909.7776,-6.5105C1861.7042,-5.2022 1798.6421,-5.0526 1743,-10 1722.1427,-11.8545 1699.2465,-15.723 1680.0876,-19.4884"/>
<polygon fill="#191970" stroke="#191970" points="1909.7016,-10.0096 1919.8003,-6.8058 1909.9078,-3.0127 1909.7016,-10.0096"/>
</g>
<!-- Node140&#45;&gt;Node113 -->
<g id="edge53" class="edge">
<title>Node140&#45;&gt;Node113</title>
<path fill="none" stroke="#191970" d="M428.8835,-247C441.7723,-247 455.3733,-247 468.4696,-247"/>
<polygon fill="#191970" stroke="#191970" points="428.7228,-243.5001 418.7227,-247 428.7227,-250.5001 428.7228,-243.5001"/>
</g>
<!-- Node142 -->
<g id="node47" class="node">
<title>Node142</title>
<g id="a_node47"><a xlink:href="class_transaction_table_priv.html#a5abfd796c5a65c0a2be564465556b99f" target="_top" xlink:title="TransactionTablePriv\l::describe">
<polygon fill="#ffffff" stroke="#000000" points="309.5,-112 309.5,-142 418.5,-142 418.5,-112 309.5,-112"/>
<text text-anchor="start" x="317.5" y="-130" font-family="Helvetica,sans-Serif" font-size="10.00" fill="#000000">TransactionTablePriv</text>
<text text-anchor="middle" x="364" y="-119" font-family="Helvetica,sans-Serif" font-size="10.00" fill="#000000">::describe</text>
</a>
</g>
</g>
<!-- Node141&#45;&gt;Node142 -->
<g id="edge55" class="edge">
<title>Node141&#45;&gt;Node142</title>
<path fill="none" stroke="#191970" d="M264.781,-142.8516C279.6913,-140.4694 295.2324,-137.9865 309.4696,-135.712"/>
<polygon fill="#191970" stroke="#191970" points="263.9057,-139.4469 254.5831,-144.4808 265.01,-146.3593 263.9057,-139.4469"/>
</g>
</g>
</svg>
