<?xml version="1.0" encoding="UTF-8" standalone="no"?>
<!DOCTYPE svg PUBLIC "-//W3C//DTD SVG 1.1//EN"
 "http://www.w3.org/Graphics/SVG/1.1/DTD/svg11.dtd">
<!-- Generated by graphviz version 2.40.1 (20161225.0304)
 -->
<!-- Title: CChainParams::GetConsensus Pages: 1 -->
<svg width="706pt" height="678pt"
 viewBox="0.00 0.00 706.00 677.50" xmlns="http://www.w3.org/2000/svg" xmlns:xlink="http://www.w3.org/1999/xlink">
<g id="graph0" class="graph" transform="scale(1 1) rotate(0) translate(4 673.5)">
<title>CChainParams::GetConsensus</title>
<polygon fill="#ffffff" stroke="transparent" points="-4,4 -4,-673.5 702,-673.5 702,4 -4,4"/>
<!-- Node61 -->
<g id="node1" class="node">
<title>Node61</title>
<polygon fill="#bfbfbf" stroke="#000000" points="0,-331 0,-350 155,-350 155,-331 0,-331"/>
<text text-anchor="middle" x="77.5" y="-338" font-family="Helvetica,sans-Serif" font-size="10.00" fill="#000000">CChainParams::GetConsensus</text>
</g>
<!-- Node62 -->
<g id="node2" class="node">
<title>Node62</title>
<g id="a_node2"><a xlink:href="class_base_index.html#a96a7407421fbf877509248bbe64f8d87" target="_top" xlink:title="Sync the index with the block index starting from the current best block. ">
<polygon fill="#ffffff" stroke="#000000" points="207.5,-650 207.5,-669 329.5,-669 329.5,-650 207.5,-650"/>
<text text-anchor="middle" x="268.5" y="-657" font-family="Helvetica,sans-Serif" font-size="10.00" fill="#000000">BaseIndex::ThreadSync</text>
</a>
</g>
</g>
<!-- Node61&#45;&gt;Node62 -->
<g id="edge1" class="edge">
<title>Node61&#45;&gt;Node62</title>
<path fill="none" stroke="#191970" d="M78.8454,-360.2758C83.6029,-414.0095 104.3869,-563.8015 191,-640.5 195.7708,-644.7247 201.3294,-648.0446 207.2387,-650.6485"/>
<polygon fill="#191970" stroke="#191970" points="82.3155,-359.7586 78.0373,-350.0659 75.3373,-360.3109 82.3155,-359.7586"/>
</g>
<!-- Node63 -->
<g id="node3" class="node">
<title>Node63</title>
<g id="a_node3"><a xlink:href="class_block_assembler.html#a24b566785f9f88bc72d744095b89c607" target="_top" xlink:title="Construct a new block template with coinbase to scriptPubKeyIn. ">
<polygon fill="#ffffff" stroke="#000000" points="197,-600.5 197,-630.5 340,-630.5 340,-600.5 197,-600.5"/>
<text text-anchor="start" x="205" y="-618.5" font-family="Helvetica,sans-Serif" font-size="10.00" fill="#000000">BlockAssembler::CreateNew</text>
<text text-anchor="middle" x="268.5" y="-607.5" font-family="Helvetica,sans-Serif" font-size="10.00" fill="#000000">Block</text>
</a>
</g>
</g>
<!-- Node61&#45;&gt;Node63 -->
<g id="edge2" class="edge">
<title>Node61&#45;&gt;Node63</title>
<path fill="none" stroke="#191970" d="M80.75,-360.2117C89.5573,-407.3279 118.2969,-527.3196 191,-591.5 194.907,-594.949 199.3035,-597.9024 203.9665,-600.4313"/>
<polygon fill="#191970" stroke="#191970" points="84.1526,-359.3532 78.9645,-350.1156 77.2595,-360.5723 84.1526,-359.3532"/>
</g>
<!-- Node64 -->
<g id="node4" class="node">
<title>Node64</title>
<g id="a_node4"><a xlink:href="class_peer_logic_validation.html#a31ede6a14fc897a70fe79717461ccbde" target="_top" xlink:title="Send queued protocol messages to be sent to a give node. ">
<polygon fill="#ffffff" stroke="#000000" points="217,-551.5 217,-581.5 320,-581.5 320,-551.5 217,-551.5"/>
<text text-anchor="start" x="225" y="-569.5" font-family="Helvetica,sans-Serif" font-size="10.00" fill="#000000">PeerLogicValidation</text>
<text text-anchor="middle" x="268.5" y="-558.5" font-family="Helvetica,sans-Serif" font-size="10.00" fill="#000000">::SendMessages</text>
</a>
</g>
</g>
<!-- Node61&#45;&gt;Node64 -->
<g id="edge3" class="edge">
<title>Node61&#45;&gt;Node64</title>
<path fill="none" stroke="#191970" d="M82.9957,-359.8411C95.3954,-399.9767 129.3783,-492.7102 191,-542.5 198.5596,-548.6081 207.6742,-553.167 216.9565,-556.5682"/>
<polygon fill="#191970" stroke="#191970" points="86.3337,-358.7866 80.1248,-350.2017 79.6249,-360.7847 86.3337,-358.7866"/>
</g>
<!-- Node65 -->
<g id="node5" class="node">
<title>Node65</title>
<g id="a_node5"><a xlink:href="class_bitcoin_g_u_i.html#ad06b7274e4d51189c0a1994866835f17" target="_top" xlink:title="BitcoinGUI::updateHeaders\lSyncProgressLabel">
<polygon fill="#ffffff" stroke="#000000" points="200,-502.5 200,-532.5 337,-532.5 337,-502.5 200,-502.5"/>
<text text-anchor="start" x="208" y="-520.5" font-family="Helvetica,sans-Serif" font-size="10.00" fill="#000000">BitcoinGUI::updateHeaders</text>
<text text-anchor="middle" x="268.5" y="-509.5" font-family="Helvetica,sans-Serif" font-size="10.00" fill="#000000">SyncProgressLabel</text>
</a>
</g>
</g>
<!-- Node61&#45;&gt;Node65 -->
<g id="edge4" class="edge">
<title>Node61&#45;&gt;Node65</title>
<path fill="none" stroke="#191970" d="M86.6913,-359.5138C103.1567,-391.6104 140.7176,-456.548 191,-492.5 196.4052,-496.3647 202.4379,-499.653 208.6855,-502.4463"/>
<polygon fill="#191970" stroke="#191970" points="89.6997,-357.7043 82.0972,-350.3252 83.4387,-360.8347 89.6997,-357.7043"/>
</g>
<!-- Node66 -->
<g id="node6" class="node">
<title>Node66</title>
<g id="a_node6"><a xlink:href="blockchain_8cpp.html#a474625d5c1ef0c47e33c078fb53f6ba4" target="_top" xlink:title="getblockchaininfo">
<polygon fill="#ffffff" stroke="#000000" points="222.5,-464 222.5,-483 314.5,-483 314.5,-464 222.5,-464"/>
<text text-anchor="middle" x="268.5" y="-471" font-family="Helvetica,sans-Serif" font-size="10.00" fill="#000000">getblockchaininfo</text>
</a>
</g>
</g>
<!-- Node61&#45;&gt;Node66 -->
<g id="edge5" class="edge">
<title>Node61&#45;&gt;Node66</title>
<path fill="none" stroke="#191970" d="M90.3079,-358.5586C109.3153,-383.9705 147.4644,-429.9184 191,-454.5 200.5299,-459.8809 211.5584,-463.7502 222.2531,-466.5283"/>
<polygon fill="#191970" stroke="#191970" points="92.9253,-356.2084 84.1968,-350.203 87.2752,-360.3408 92.9253,-356.2084"/>
</g>
<!-- Node67 -->
<g id="node7" class="node">
<title>Node67</title>
<g id="a_node7"><a xlink:href="mining_8h.html#a4910d289954727eb7c4c24a6b3c50c55" target="_top" xlink:title="Generate blocks (mine) ">
<polygon fill="#ffffff" stroke="#000000" points="407,-293 407,-312 491,-312 491,-293 407,-293"/>
<text text-anchor="middle" x="449" y="-300" font-family="Helvetica,sans-Serif" font-size="10.00" fill="#000000">generateBlocks</text>
</a>
</g>
</g>
<!-- Node61&#45;&gt;Node67 -->
<g id="edge6" class="edge">
<title>Node61&#45;&gt;Node67</title>
<path fill="none" stroke="#191970" d="M165.1105,-348.2351C217.9178,-350.9866 286.2924,-351.1628 346,-340.5 376.2088,-335.1052 409.1595,-321.4662 429.455,-312.0864"/>
<polygon fill="#191970" stroke="#191970" points="165.2813,-344.7392 155.1008,-347.6732 164.8889,-351.7282 165.2813,-344.7392"/>
</g>
<!-- Node69 -->
<g id="node9" class="node">
<title>Node69</title>
<g id="a_node9"><a xlink:href="class_c_chain_state.html#a6c0c017d41977fe6552ecfd1fc7c887d" target="_top" xlink:title="Apply the effects of this block (with given index) on the UTXO set represented by coins...">
<polygon fill="#ffffff" stroke="#000000" points="198.5,-426 198.5,-445 338.5,-445 338.5,-426 198.5,-426"/>
<text text-anchor="middle" x="268.5" y="-433" font-family="Helvetica,sans-Serif" font-size="10.00" fill="#000000">CChainState::ConnectBlock</text>
</a>
</g>
</g>
<!-- Node61&#45;&gt;Node69 -->
<g id="edge8" class="edge">
<title>Node61&#45;&gt;Node69</title>
<path fill="none" stroke="#191970" d="M98.8015,-356.1828C120.9311,-371.8967 157.0143,-395.9277 191,-411.5 203.5489,-417.2499 217.8474,-422.1147 230.7169,-425.9293"/>
<polygon fill="#191970" stroke="#191970" points="100.653,-353.2032 90.4911,-350.2052 96.5655,-358.8858 100.653,-353.2032"/>
</g>
<!-- Node70 -->
<g id="node10" class="node">
<title>Node70</title>
<g id="a_node10"><a xlink:href="class_c_verify_d_b.html#af12e07230f20d23cf01d417d0e785c49" target="_top" xlink:title="CVerifyDB::VerifyDB">
<polygon fill="#ffffff" stroke="#000000" points="394,-407 394,-426 504,-426 504,-407 394,-407"/>
<text text-anchor="middle" x="449" y="-414" font-family="Helvetica,sans-Serif" font-size="10.00" fill="#000000">CVerifyDB::VerifyDB</text>
</a>
</g>
</g>
<!-- Node61&#45;&gt;Node70 -->
<g id="edge16" class="edge">
<title>Node61&#45;&gt;Node70</title>
<path fill="none" stroke="#191970" d="M134.1768,-352.0947C207.6512,-367.1258 334.4117,-393.058 402.5164,-406.9906"/>
<polygon fill="#191970" stroke="#191970" points="134.6732,-348.6238 124.1746,-350.0485 133.2701,-355.4818 134.6732,-348.6238"/>
</g>
<!-- Node71 -->
<g id="node11" class="node">
<title>Node71</title>
<g id="a_node11"><a xlink:href="class_c_chain_state.html#a57682556dc35715fba5f0c6075efcc6e" target="_top" xlink:title="Disconnect chainActive&#39;s tip. ">
<polygon fill="#ffffff" stroke="#000000" points="197.5,-312 197.5,-331 339.5,-331 339.5,-312 197.5,-312"/>
<text text-anchor="middle" x="268.5" y="-319" font-family="Helvetica,sans-Serif" font-size="10.00" fill="#000000">CChainState::DisconnectTip</text>
</a>
</g>
</g>
<!-- Node61&#45;&gt;Node71 -->
<g id="edge10" class="edge">
<title>Node61&#45;&gt;Node71</title>
<path fill="none" stroke="#191970" d="M165.392,-331.7568C176.0955,-330.6921 186.9271,-329.6146 197.3447,-328.5783"/>
<polygon fill="#191970" stroke="#191970" points="164.7914,-328.2992 155.187,-332.772 165.4844,-335.2648 164.7914,-328.2992"/>
</g>
<!-- Node72 -->
<g id="node12" class="node">
<title>Node72</title>
<g id="a_node12"><a xlink:href="class_c_chain_state.html#a7b8212270ad8b00cc1daad6f38623654" target="_top" xlink:title="Connect a new block to chainActive. ">
<polygon fill="#ffffff" stroke="#000000" points="204,-274 204,-293 333,-293 333,-274 204,-274"/>
<text text-anchor="middle" x="268.5" y="-281" font-family="Helvetica,sans-Serif" font-size="10.00" fill="#000000">CChainState::ConnectTip</text>
</a>
</g>
</g>
<!-- Node61&#45;&gt;Node72 -->
<g id="edge11" class="edge">
<title>Node61&#45;&gt;Node72</title>
<path fill="none" stroke="#191970" d="M113.5803,-327.5716C135.7681,-319.8335 164.8625,-310.0654 191,-302.5 202.5772,-299.149 215.2363,-295.8813 226.9048,-293.0272"/>
<polygon fill="#191970" stroke="#191970" points="112.1825,-324.3528 103.9073,-330.9689 114.5021,-330.9573 112.1825,-324.3528"/>
</g>
<!-- Node73 -->
<g id="node13" class="node">
<title>Node73</title>
<g id="a_node13"><a xlink:href="class_c_chain_state.html#a059db2048ce030760838426613dfc3e7" target="_top" xlink:title="If a block header hasn&#39;t already been seen, call CheckBlockHeader on it, ensure that it doesn&#39;t desce...">
<polygon fill="#ffffff" stroke="#000000" points="201.5,-186.5 201.5,-216.5 335.5,-216.5 335.5,-186.5 201.5,-186.5"/>
<text text-anchor="start" x="209.5" y="-204.5" font-family="Helvetica,sans-Serif" font-size="10.00" fill="#000000">CChainState::AcceptBlock</text>
<text text-anchor="middle" x="268.5" y="-193.5" font-family="Helvetica,sans-Serif" font-size="10.00" fill="#000000">Header</text>
</a>
</g>
</g>
<!-- Node61&#45;&gt;Node73 -->
<g id="edge12" class="edge">
<title>Node61&#45;&gt;Node73</title>
<path fill="none" stroke="#191970" d="M90.8439,-322.4868C110.2447,-297.5069 148.5845,-252.4946 191,-226.5 197.2681,-222.6586 204.1874,-219.3462 211.2347,-216.5065"/>
<polygon fill="#191970" stroke="#191970" points="87.8548,-320.635 84.5806,-330.7113 93.4238,-324.8761 87.8548,-320.635"/>
</g>
<!-- Node75 -->
<g id="node15" class="node">
<title>Node75</title>
<g id="a_node15"><a xlink:href="validation_8h.html#a290fce59049c0951b8eb73f0129bf6f0" target="_top" xlink:title="Process an incoming block. ">
<polygon fill="#ffffff" stroke="#000000" points="219.5,-236 219.5,-255 317.5,-255 317.5,-236 219.5,-236"/>
<text text-anchor="middle" x="268.5" y="-243" font-family="Helvetica,sans-Serif" font-size="10.00" fill="#000000">ProcessNewBlock</text>
</a>
</g>
</g>
<!-- Node61&#45;&gt;Node75 -->
<g id="edge14" class="edge">
<title>Node61&#45;&gt;Node75</title>
<path fill="none" stroke="#191970" d="M97.0109,-324.299C118.6829,-307.0829 155.336,-280.2228 191,-264.5 199.8733,-260.5881 209.6885,-257.395 219.2671,-254.82"/>
<polygon fill="#191970" stroke="#191970" points="94.5281,-321.8052 88.948,-330.8115 98.9266,-327.2508 94.5281,-321.8052"/>
</g>
<!-- Node76 -->
<g id="node16" class="node">
<title>Node76</title>
<g id="a_node16"><a xlink:href="class_c_chain_state.html#a8a6a93bf81626b263deef801883f7abc" target="_top" xlink:title="Apply the effects of a block on the utxo cache, ignoring that it may already have been applied...">
<polygon fill="#ffffff" stroke="#000000" points="204.5,-137.5 204.5,-167.5 332.5,-167.5 332.5,-137.5 204.5,-137.5"/>
<text text-anchor="start" x="212.5" y="-155.5" font-family="Helvetica,sans-Serif" font-size="10.00" fill="#000000">CChainState::Rollforward</text>
<text text-anchor="middle" x="268.5" y="-144.5" font-family="Helvetica,sans-Serif" font-size="10.00" fill="#000000">Block</text>
</a>
</g>
</g>
<!-- Node61&#45;&gt;Node76 -->
<g id="edge17" class="edge">
<title>Node61&#45;&gt;Node76</title>
<path fill="none" stroke="#191970" d="M85.6655,-321.5248C101.2062,-287.6221 138.2559,-216.5489 191,-177.5 196.2268,-173.6304 202.0774,-170.3442 208.159,-167.5568"/>
<polygon fill="#191970" stroke="#191970" points="82.4161,-320.2179 81.5395,-330.7764 88.8091,-323.0691 82.4161,-320.2179"/>
</g>
<!-- Node77 -->
<g id="node17" class="node">
<title>Node77</title>
<g id="a_node17"><a xlink:href="class_c_chain_state.html#a219bb793d4d3b0a095ccc47c45bc5b83" target="_top" xlink:title="CChainState::ReplayBlocks">
<polygon fill="#ffffff" stroke="#000000" points="198.5,-99 198.5,-118 338.5,-118 338.5,-99 198.5,-99"/>
<text text-anchor="middle" x="268.5" y="-106" font-family="Helvetica,sans-Serif" font-size="10.00" fill="#000000">CChainState::ReplayBlocks</text>
</a>
</g>
</g>
<!-- Node61&#45;&gt;Node77 -->
<g id="edge18" class="edge">
<title>Node61&#45;&gt;Node77</title>
<path fill="none" stroke="#191970" d="M82.2803,-320.8279C93.5578,-278.7399 125.9057,-179.6384 191,-128.5 196.5728,-124.122 203.001,-120.6946 209.7226,-118.0128"/>
<polygon fill="#191970" stroke="#191970" points="78.8501,-320.114 79.7534,-330.6703 85.6302,-321.8548 78.8501,-320.114"/>
</g>
<!-- Node79 -->
<g id="node19" class="node">
<title>Node79</title>
<g id="a_node19"><a xlink:href="class_c_chain_state.html#afc0586502e4dd4092c4a0707d329f6eb" target="_top" xlink:title="CChainState::RewindBlock\lIndex">
<polygon fill="#ffffff" stroke="#000000" points="200,-49.5 200,-79.5 337,-79.5 337,-49.5 200,-49.5"/>
<text text-anchor="start" x="208" y="-67.5" font-family="Helvetica,sans-Serif" font-size="10.00" fill="#000000">CChainState::RewindBlock</text>
<text text-anchor="middle" x="268.5" y="-56.5" font-family="Helvetica,sans-Serif" font-size="10.00" fill="#000000">Index</text>
</a>
</g>
</g>
<!-- Node61&#45;&gt;Node79 -->
<g id="edge20" class="edge">
<title>Node61&#45;&gt;Node79</title>
<path fill="none" stroke="#191970" d="M80.799,-320.8435C89.7143,-273.8489 118.6746,-154.1057 191,-89.5 195.3229,-85.6385 200.249,-82.3727 205.4742,-79.6107"/>
<polygon fill="#191970" stroke="#191970" points="77.3135,-320.4511 78.9894,-330.9125 84.2031,-321.6893 77.3135,-320.4511"/>
</g>
<!-- Node82 -->
<g id="node22" class="node">
<title>Node82</title>
<g id="a_node22"><a xlink:href="class_c_z_m_q_publish_raw_block_notifier.html#ab97fec1e14be818d03022f9271b9443c" target="_top" xlink:title="CZMQPublishRawBlockNotifier\l::NotifyBlock">
<polygon fill="#ffffff" stroke="#000000" points="191,-.5 191,-30.5 346,-30.5 346,-.5 191,-.5"/>
<text text-anchor="start" x="199" y="-18.5" font-family="Helvetica,sans-Serif" font-size="10.00" fill="#000000">CZMQPublishRawBlockNotifier</text>
<text text-anchor="middle" x="268.5" y="-7.5" font-family="Helvetica,sans-Serif" font-size="10.00" fill="#000000">::NotifyBlock</text>
</a>
</g>
</g>
<!-- Node61&#45;&gt;Node82 -->
<g id="edge23" class="edge">
<title>Node61&#45;&gt;Node82</title>
<path fill="none" stroke="#191970" d="M79.1088,-320.5739C84.5064,-267.0518 106.7095,-118.8568 191,-39.5 194.6919,-36.0242 198.8781,-33.0513 203.3465,-30.5087"/>
<polygon fill="#191970" stroke="#191970" points="75.6024,-320.4838 78.1742,-330.7618 82.5732,-321.1233 75.6024,-320.4838"/>
</g>
<!-- Node68 -->
<g id="node8" class="node">
<title>Node68</title>
<g id="a_node8"><a xlink:href="rpcwallet_8cpp.html#a236a42206aa464fbb10bae6e6243092b" target="_top" xlink:title="generate">
<polygon fill="#ffffff" stroke="#000000" points="598,-293 598,-312 652,-312 652,-293 598,-293"/>
<text text-anchor="middle" x="625" y="-300" font-family="Helvetica,sans-Serif" font-size="10.00" fill="#000000">generate</text>
</a>
</g>
</g>
<!-- Node67&#45;&gt;Node68 -->
<g id="edge7" class="edge">
<title>Node67&#45;&gt;Node68</title>
<path fill="none" stroke="#191970" d="M501.1869,-302.5C532.9769,-302.5 572.2851,-302.5 597.9683,-302.5"/>
<polygon fill="#191970" stroke="#191970" points="501.1564,-299.0001 491.1564,-302.5 501.1564,-306.0001 501.1564,-299.0001"/>
</g>
<!-- Node69&#45;&gt;Node70 -->
<g id="edge9" class="edge">
<title>Node69&#45;&gt;Node70</title>
<path fill="none" stroke="#191970" d="M348.5217,-427.0767C363.8201,-425.4663 379.5157,-423.8141 393.8196,-422.3085"/>
<polygon fill="#191970" stroke="#191970" points="348.123,-423.5992 338.5444,-428.1269 348.8558,-430.5607 348.123,-423.5992"/>
</g>
<!-- Node74 -->
<g id="node14" class="node">
<title>Node74</title>
<g id="a_node14"><a xlink:href="validation_8h.html#a3028c49720732b5f1b558552f468af72" target="_top" xlink:title="Process incoming block headers. ">
<polygon fill="#ffffff" stroke="#000000" points="382,-192 382,-211 516,-211 516,-192 382,-192"/>
<text text-anchor="middle" x="449" y="-199" font-family="Helvetica,sans-Serif" font-size="10.00" fill="#000000">ProcessNewBlockHeaders</text>
</a>
</g>
</g>
<!-- Node73&#45;&gt;Node74 -->
<g id="edge13" class="edge">
<title>Node73&#45;&gt;Node74</title>
<path fill="none" stroke="#191970" d="M346.05,-201.5C357.9264,-201.5 370.1021,-201.5 381.7323,-201.5"/>
<polygon fill="#191970" stroke="#191970" points="345.7116,-198.0001 335.7115,-201.5 345.7115,-205.0001 345.7116,-198.0001"/>
</g>
<!-- Node75&#45;&gt;Node67 -->
<g id="edge15" class="edge">
<title>Node75&#45;&gt;Node67</title>
<path fill="none" stroke="#191970" d="M321.0905,-257.5411C329.466,-259.7032 338.0021,-262.0528 346,-264.5 373.7035,-272.9766 404.8206,-284.7837 425.5311,-292.978"/>
<polygon fill="#191970" stroke="#191970" points="321.926,-254.1423 311.374,-255.0946 320.2168,-260.9304 321.926,-254.1423"/>
</g>
<!-- Node78 -->
<g id="node18" class="node">
<title>Node78</title>
<g id="a_node18"><a xlink:href="validation_8h.html#ad16a624dfed17bddcd0901c6d32212ab" target="_top" xlink:title="Replay blocks that aren&#39;t fully applied to the database. ">
<polygon fill="#ffffff" stroke="#000000" points="410.5,-99 410.5,-118 487.5,-118 487.5,-99 410.5,-99"/>
<text text-anchor="middle" x="449" y="-106" font-family="Helvetica,sans-Serif" font-size="10.00" fill="#000000">ReplayBlocks</text>
</a>
</g>
</g>
<!-- Node77&#45;&gt;Node78 -->
<g id="edge19" class="edge">
<title>Node77&#45;&gt;Node78</title>
<path fill="none" stroke="#191970" d="M348.6398,-108.5C370.051,-108.5 392.231,-108.5 410.2774,-108.5"/>
<polygon fill="#191970" stroke="#191970" points="348.5444,-105.0001 338.5444,-108.5 348.5443,-112.0001 348.5444,-105.0001"/>
</g>
<!-- Node80 -->
<g id="node20" class="node">
<title>Node80</title>
<g id="a_node20"><a xlink:href="validation_8h.html#a2e51de180124822c526ac8f82777fa32" target="_top" xlink:title="When there are blocks in the active chain with missing data, rewind the chainstate and remove them fr...">
<polygon fill="#ffffff" stroke="#000000" points="400,-55 400,-74 498,-74 498,-55 400,-55"/>
<text text-anchor="middle" x="449" y="-62" font-family="Helvetica,sans-Serif" font-size="10.00" fill="#000000">RewindBlockIndex</text>
</a>
</g>
</g>
<!-- Node79&#45;&gt;Node80 -->
<g id="edge21" class="edge">
<title>Node79&#45;&gt;Node80</title>
<path fill="none" stroke="#191970" d="M347.6123,-64.5C365.3551,-64.5 383.681,-64.5 399.7903,-64.5"/>
<polygon fill="#191970" stroke="#191970" points="347.2543,-61.0001 337.2542,-64.5 347.2542,-68.0001 347.2543,-61.0001"/>
</g>
<!-- Node81 -->
<g id="node21" class="node">
<title>Node81</title>
<g id="a_node21"><a xlink:href="class_c_script_check.html#a1340496c37e521c253606b5957173afd" target="_top" xlink:title="CScriptCheck::GetScriptError">
<polygon fill="#ffffff" stroke="#000000" points="552,-55 552,-74 698,-74 698,-55 552,-55"/>
<text text-anchor="middle" x="625" y="-62" font-family="Helvetica,sans-Serif" font-size="10.00" fill="#000000">CScriptCheck::GetScriptError</text>
</a>
</g>
</g>
<!-- Node80&#45;&gt;Node81 -->
<g id="edge22" class="edge">
<title>Node80&#45;&gt;Node81</title>
<path fill="none" stroke="#191970" d="M508.0438,-64.5C522.1041,-64.5 537.2743,-64.5 551.8812,-64.5"/>
<polygon fill="#191970" stroke="#191970" points="508.0258,-61.0001 498.0258,-64.5 508.0258,-68.0001 508.0258,-61.0001"/>
</g>
</g>
</svg>
