<?xml version="1.0" encoding="UTF-8" standalone="no"?>
<!DOCTYPE svg PUBLIC "-//W3C//DTD SVG 1.1//EN"
 "http://www.w3.org/Graphics/SVG/1.1/DTD/svg11.dtd">
<!-- Generated by graphviz version 2.40.1 (20161225.0304)
 -->
<!-- Title: CHashWriter::GetHash Pages: 1 -->
<svg width="794pt" height="118pt"
 viewBox="0.00 0.00 794.00 117.50" xmlns="http://www.w3.org/2000/svg" xmlns:xlink="http://www.w3.org/1999/xlink">
<g id="graph0" class="graph" transform="scale(1 1) rotate(0) translate(4 113.5)">
<title>CHashWriter::GetHash</title>
<polygon fill="#ffffff" stroke="transparent" points="-4,4 -4,-113.5 790,-113.5 790,4 -4,4"/>
<!-- Node10 -->
<g id="node1" class="node">
<title>Node10</title>
<polygon fill="#bfbfbf" stroke="#000000" points="0,-54 0,-73 119,-73 119,-54 0,-54"/>
<text text-anchor="middle" x="59.5" y="-61" font-family="Helvetica,sans-Serif" font-size="10.00" fill="#000000">CHashWriter::GetHash</text>
</g>
<!-- Node11 -->
<g id="node2" class="node">
<title>Node11</title>
<g id="a_node2"><a xlink:href="class_sign_verify_message_dialog.html#ae37dec200b27f23c409221511447ae1e" target="_top" xlink:title="SignVerifyMessageDialog\l::on_verifyMessageButton\l_VM_clicked">
<polygon fill="#ffffff" stroke="#000000" points="155,-68 155,-109 286,-109 286,-68 155,-68"/>
<text text-anchor="start" x="163" y="-97" font-family="Helvetica,sans-Serif" font-size="10.00" fill="#000000">SignVerifyMessageDialog</text>
<text text-anchor="start" x="163" y="-86" font-family="Helvetica,sans-Serif" font-size="10.00" fill="#000000">::on_verifyMessageButton</text>
<text text-anchor="middle" x="220.5" y="-75" font-family="Helvetica,sans-Serif" font-size="10.00" fill="#000000">_VM_clicked</text>
</a>
</g>
</g>
<!-- Node10&#45;&gt;Node11 -->
<g id="edge1" class="edge">
<title>Node10&#45;&gt;Node11</title>
<path fill="none" stroke="#191970" d="M129.5779,-74.3817C137.9635,-75.6838 146.5026,-77.0097 154.8228,-78.3017"/>
<polygon fill="#191970" stroke="#191970" points="129.8691,-70.885 119.4505,-72.8091 128.795,-77.8021 129.8691,-70.885"/>
</g>
<!-- Node12 -->
<g id="node3" class="node">
<title>Node12</title>
<g id="a_node3"><a xlink:href="interpreter_8h.html#ad7fa04f3c495a5f5ae7a97bc15cf0ce0" target="_top" xlink:title="SignatureHash">
<polygon fill="#ffffff" stroke="#000000" points="180,-30 180,-49 261,-49 261,-30 180,-30"/>
<text text-anchor="middle" x="220.5" y="-37" font-family="Helvetica,sans-Serif" font-size="10.00" fill="#000000">SignatureHash</text>
</a>
</g>
</g>
<!-- Node10&#45;&gt;Node12 -->
<g id="edge2" class="edge">
<title>Node10&#45;&gt;Node12</title>
<path fill="none" stroke="#191970" d="M129.4301,-53.0756C146.5476,-50.524 164.314,-47.8756 179.5606,-45.6028"/>
<polygon fill="#191970" stroke="#191970" points="128.8251,-49.6271 119.4505,-54.5633 129.8572,-56.5506 128.8251,-49.6271"/>
</g>
<!-- Node13 -->
<g id="node4" class="node">
<title>Node13</title>
<g id="a_node4"><a xlink:href="class_generic_transaction_signature_checker.html#ac2f7d09fbb8afa5bde71fbc5ff6e1e19" target="_top" xlink:title="GenericTransactionSignature\lChecker::CheckSig">
<polygon fill="#ffffff" stroke="#000000" points="322,-49.5 322,-79.5 465,-79.5 465,-49.5 322,-49.5"/>
<text text-anchor="start" x="330" y="-67.5" font-family="Helvetica,sans-Serif" font-size="10.00" fill="#000000">GenericTransactionSignature</text>
<text text-anchor="middle" x="393.5" y="-56.5" font-family="Helvetica,sans-Serif" font-size="10.00" fill="#000000">Checker::CheckSig</text>
</a>
</g>
</g>
<!-- Node12&#45;&gt;Node13 -->
<g id="edge3" class="edge">
<title>Node12&#45;&gt;Node13</title>
<path fill="none" stroke="#191970" d="M271.1419,-46.8182C286.9514,-49.1028 304.7028,-51.668 321.6774,-54.121"/>
<polygon fill="#191970" stroke="#191970" points="271.4586,-43.3277 261.0608,-45.3614 270.4574,-50.2557 271.4586,-43.3277"/>
</g>
<!-- Node14 -->
<g id="node5" class="node">
<title>Node14</title>
<g id="a_node5"><a xlink:href="class_mutable_transaction_signature_creator.html#ad66cfa8bc9e1222e30125c90d1ecaddf" target="_top" xlink:title="Create a singular (non&#45;script) signature. ">
<polygon fill="#ffffff" stroke="#000000" points="322,-.5 322,-30.5 465,-30.5 465,-.5 322,-.5"/>
<text text-anchor="start" x="330" y="-18.5" font-family="Helvetica,sans-Serif" font-size="10.00" fill="#000000">MutableTransactionSignature</text>
<text text-anchor="middle" x="393.5" y="-7.5" font-family="Helvetica,sans-Serif" font-size="10.00" fill="#000000">Creator::CreateSig</text>
</a>
</g>
</g>
<!-- Node12&#45;&gt;Node14 -->
<g id="edge4" class="edge">
<title>Node12&#45;&gt;Node14</title>
<path fill="none" stroke="#191970" d="M271.1419,-32.4745C286.9514,-30.2813 304.7028,-27.8187 321.6774,-25.4638"/>
<polygon fill="#191970" stroke="#191970" points="270.485,-29.0321 261.0608,-33.8731 271.4469,-35.9657 270.485,-29.0321"/>
</g>
<!-- Node15 -->
<g id="node6" class="node">
<title>Node15</title>
<g id="a_node6"><a xlink:href="sign_8h.html#a85ce096b6886353ed6dbe400845a4366" target="_top" xlink:title="Combine two script signatures using a generic signature checker, intelligently, possibly with OP_0 pl...">
<polygon fill="#ffffff" stroke="#000000" points="501,-6 501,-25 603,-25 603,-6 501,-6"/>
<text text-anchor="middle" x="552" y="-13" font-family="Helvetica,sans-Serif" font-size="10.00" fill="#000000">CombineSignatures</text>
</a>
</g>
</g>
<!-- Node14&#45;&gt;Node15 -->
<g id="edge5" class="edge">
<title>Node14&#45;&gt;Node15</title>
<path fill="none" stroke="#191970" d="M475.4495,-15.5C484.074,-15.5 492.6559,-15.5 500.7858,-15.5"/>
<polygon fill="#191970" stroke="#191970" points="475.33,-12.0001 465.33,-15.5 475.33,-19.0001 475.33,-12.0001"/>
</g>
<!-- Node15&#45;&gt;Node15 -->
<g id="edge6" class="edge">
<title>Node15&#45;&gt;Node15</title>
<path fill="none" stroke="#191970" d="M522.5076,-34.1539C523.7404,-39.4368 533.5712,-43.5 552,-43.5 580.082,-43.5 588.1995,-34.0653 576.3524,-25.2571"/>
<polygon fill="#191970" stroke="#191970" points="525.6757,-35.6668 527.6476,-25.2571 519.6145,-32.165 525.6757,-35.6668"/>
</g>
<!-- Node16 -->
<g id="node7" class="node">
<title>Node16</title>
<g id="a_node7"><a xlink:href="struct_signature_data.html#aee920d76f133d8d46195452fee5c1fa2" target="_top" xlink:title="SignatureData::SignatureData">
<polygon fill="#ffffff" stroke="#000000" points="639,-6 639,-25 786,-25 786,-6 639,-6"/>
<text text-anchor="middle" x="712.5" y="-13" font-family="Helvetica,sans-Serif" font-size="10.00" fill="#000000">SignatureData::SignatureData</text>
</a>
</g>
</g>
<!-- Node15&#45;&gt;Node16 -->
<g id="edge7" class="edge">
<title>Node15&#45;&gt;Node16</title>
<path fill="none" stroke="#191970" d="M613.2883,-15.5C621.68,-15.5 630.3651,-15.5 638.9473,-15.5"/>
<polygon fill="#191970" stroke="#191970" points="613.2245,-12.0001 603.2245,-15.5 613.2245,-19.0001 613.2245,-12.0001"/>
</g>
</g>
</svg>
