<?xml version="1.0" encoding="UTF-8" standalone="no"?>
<!DOCTYPE svg PUBLIC "-//W3C//DTD SVG 1.1//EN"
 "http://www.w3.org/Graphics/SVG/1.1/DTD/svg11.dtd">
<!-- Generated by graphviz version 2.40.1 (20161225.0304)
 -->
<!-- Title: SendCoinsDialog::useAvailableBalance Pages: 1 -->
<svg width="961pt" height="379pt"
 viewBox="0.00 0.00 961.00 379.00" xmlns="http://www.w3.org/2000/svg" xmlns:xlink="http://www.w3.org/1999/xlink">
<g id="graph0" class="graph" transform="scale(1 1) rotate(0) translate(4 375)">
<title>SendCoinsDialog::useAvailableBalance</title>
<polygon fill="#ffffff" stroke="transparent" points="-4,4 -4,-375 957,-375 957,4 -4,4"/>
<!-- Node1337 -->
<g id="node1" class="node">
<title>Node1337</title>
<polygon fill="#bfbfbf" stroke="#000000" points="0,-187 0,-217 154,-217 154,-187 0,-187"/>
<text text-anchor="start" x="8" y="-205" font-family="Helvetica,sans-Serif" font-size="10.00" fill="#000000">SendCoinsDialog::useAvailable</text>
<text text-anchor="middle" x="77" y="-194" font-family="Helvetica,sans-Serif" font-size="10.00" fill="#000000">Balance</text>
</g>
<!-- Node1338 -->
<g id="node2" class="node">
<title>Node1338</title>
<g id="a_node2"><a xlink:href="class_wallet_model.html#a96d53e56b3f8f07537ea2523f7a7d300" target="_top" xlink:title="WalletModel::getOptionsModel">
<polygon fill="#ffffff" stroke="#000000" points="193.5,-351.5 193.5,-370.5 343.5,-370.5 343.5,-351.5 193.5,-351.5"/>
<text text-anchor="middle" x="268.5" y="-358.5" font-family="Helvetica,sans-Serif" font-size="10.00" fill="#000000">WalletModel::getOptionsModel</text>
</a>
</g>
</g>
<!-- Node1337&#45;&gt;Node1338 -->
<g id="edge1" class="edge">
<title>Node1337&#45;&gt;Node1338</title>
<path fill="none" stroke="#191970" d="M84.9093,-217.4025C100.7075,-246.5515 139.072,-309.7439 190,-342 193.3687,-344.1336 196.9576,-346.0276 200.6763,-347.709"/>
<polygon fill="#191970" stroke="#191970" points="199.5498,-351.0275 210.1356,-351.4657 202.1335,-344.5218 199.5498,-351.0275"/>
</g>
<!-- Node1339 -->
<g id="node3" class="node">
<title>Node1339</title>
<g id="a_node3"><a xlink:href="class_options_model.html#a2b094b0e95f630938054c90b35956263" target="_top" xlink:title="OptionsModel::getCoinControl\lFeatures">
<polygon fill="#ffffff" stroke="#000000" points="194.5,-302 194.5,-332 342.5,-332 342.5,-302 194.5,-302"/>
<text text-anchor="start" x="202.5" y="-320" font-family="Helvetica,sans-Serif" font-size="10.00" fill="#000000">OptionsModel::getCoinControl</text>
<text text-anchor="middle" x="268.5" y="-309" font-family="Helvetica,sans-Serif" font-size="10.00" fill="#000000">Features</text>
</a>
</g>
</g>
<!-- Node1337&#45;&gt;Node1339 -->
<g id="edge2" class="edge">
<title>Node1337&#45;&gt;Node1339</title>
<path fill="none" stroke="#191970" d="M91.7327,-217.0241C112.1081,-237.0135 150.8291,-272.2404 190,-293 193.4432,-294.8248 197.0463,-296.5336 200.7361,-298.1303"/>
<polygon fill="#191970" stroke="#191970" points="199.4604,-301.3896 210.0444,-301.8708 202.0706,-294.8944 199.4604,-301.3896"/>
</g>
<!-- Node1340 -->
<g id="node4" class="node">
<title>Node1340</title>
<g id="a_node4"><a xlink:href="class_coin_control_dialog.html#ad6c08e81a0cfc70cbf6e40f65857ab98" target="_top" xlink:title="CoinControlDialog::\lcoinControl">
<polygon fill="#ffffff" stroke="#000000" points="217.5,-253 217.5,-283 319.5,-283 319.5,-253 217.5,-253"/>
<text text-anchor="start" x="225.5" y="-271" font-family="Helvetica,sans-Serif" font-size="10.00" fill="#000000">CoinControlDialog::</text>
<text text-anchor="middle" x="268.5" y="-260" font-family="Helvetica,sans-Serif" font-size="10.00" fill="#000000">coinControl</text>
</a>
</g>
</g>
<!-- Node1337&#45;&gt;Node1340 -->
<g id="edge3" class="edge">
<title>Node1337&#45;&gt;Node1340</title>
<path fill="none" stroke="#191970" d="M117.1327,-217.0008C138.6653,-224.9379 165.7006,-234.726 190,-243 196.5498,-245.2302 203.4272,-247.5102 210.2747,-249.7416"/>
<polygon fill="#191970" stroke="#191970" points="209.652,-253.2186 220.2438,-252.9646 211.8054,-246.5581 209.652,-253.2186"/>
</g>
<!-- Node1341 -->
<g id="node5" class="node">
<title>Node1341</title>
<g id="a_node5"><a xlink:href="class_wallet_model.html#aa3a3b4a8064de3af096dbf64bfe12655" target="_top" xlink:title="WalletModel::wallet">
<polygon fill="#ffffff" stroke="#000000" points="217.5,-214.5 217.5,-233.5 319.5,-233.5 319.5,-214.5 217.5,-214.5"/>
<text text-anchor="middle" x="268.5" y="-221.5" font-family="Helvetica,sans-Serif" font-size="10.00" fill="#000000">WalletModel::wallet</text>
</a>
</g>
</g>
<!-- Node1337&#45;&gt;Node1341 -->
<g id="edge4" class="edge">
<title>Node1337&#45;&gt;Node1341</title>
<path fill="none" stroke="#191970" d="M154.0626,-210.8531C171.7066,-212.8801 190.2313,-215.0083 207.113,-216.9477"/>
<polygon fill="#191970" stroke="#191970" points="207.0552,-220.464 217.3894,-218.1283 207.8542,-213.5097 207.0552,-220.464"/>
</g>
<!-- Node1342 -->
<g id="node6" class="node">
<title>Node1342</title>
<g id="a_node6"><a xlink:href="classinterfaces_1_1_wallet.html#a3ce03dcae0b94cba593fb5d93ebfad2b" target="_top" xlink:title="Get available balance. ">
<polygon fill="#ffffff" stroke="#000000" points="213,-165 213,-195 324,-195 324,-165 213,-165"/>
<text text-anchor="start" x="221" y="-183" font-family="Helvetica,sans-Serif" font-size="10.00" fill="#000000">interfaces::Wallet</text>
<text text-anchor="middle" x="268.5" y="-172" font-family="Helvetica,sans-Serif" font-size="10.00" fill="#000000">::getAvailableBalance</text>
</a>
</g>
</g>
<!-- Node1337&#45;&gt;Node1342 -->
<g id="edge5" class="edge">
<title>Node1337&#45;&gt;Node1342</title>
<path fill="none" stroke="#191970" d="M154.0626,-193.1469C170.176,-191.2957 187.024,-189.3602 202.6843,-187.5611"/>
<polygon fill="#191970" stroke="#191970" points="203.249,-191.0193 212.7841,-186.4008 202.45,-184.0651 203.249,-191.0193"/>
</g>
<!-- Node1343 -->
<g id="node7" class="node">
<title>Node1343</title>
<g id="a_node7"><a xlink:href="class_send_coins_entry.html#af36fb0ed9e2e07079c1a982b31e793c8" target="_top" xlink:title="SendCoinsEntry::getValue">
<polygon fill="#ffffff" stroke="#000000" points="202.5,-126.5 202.5,-145.5 334.5,-145.5 334.5,-126.5 202.5,-126.5"/>
<text text-anchor="middle" x="268.5" y="-133.5" font-family="Helvetica,sans-Serif" font-size="10.00" fill="#000000">SendCoinsEntry::getValue</text>
</a>
</g>
</g>
<!-- Node1337&#45;&gt;Node1343 -->
<g id="edge6" class="edge">
<title>Node1337&#45;&gt;Node1343</title>
<path fill="none" stroke="#191970" d="M110.6664,-186.8775C132.9003,-177.2447 162.8392,-164.9415 190,-156 198.633,-153.158 207.9099,-150.4763 216.9554,-148.0551"/>
<polygon fill="#191970" stroke="#191970" points="217.8426,-151.4409 226.6385,-145.5349 216.0794,-144.6666 217.8426,-151.4409"/>
</g>
<!-- Node1345 -->
<g id="node9" class="node">
<title>Node1345</title>
<g id="a_node9"><a xlink:href="class_send_coins_entry.html#aecb04a64d79002630f1c04cef6b0e446" target="_top" xlink:title="SendCoinsEntry::checkSubtract\lFeeFromAmount">
<polygon fill="#ffffff" stroke="#000000" points="190,-77 190,-107 347,-107 347,-77 190,-77"/>
<text text-anchor="start" x="198" y="-95" font-family="Helvetica,sans-Serif" font-size="10.00" fill="#000000">SendCoinsEntry::checkSubtract</text>
<text text-anchor="middle" x="268.5" y="-84" font-family="Helvetica,sans-Serif" font-size="10.00" fill="#000000">FeeFromAmount</text>
</a>
</g>
</g>
<!-- Node1337&#45;&gt;Node1345 -->
<g id="edge8" class="edge">
<title>Node1337&#45;&gt;Node1345</title>
<path fill="none" stroke="#191970" d="M93.3964,-186.8078C114.3688,-168.0827 152.4821,-136.3711 190,-117 194.3012,-114.7792 198.8371,-112.7087 203.4704,-110.7875"/>
<polygon fill="#191970" stroke="#191970" points="205.0222,-113.9395 213.0741,-107.0535 202.4854,-107.4153 205.0222,-113.9395"/>
</g>
<!-- Node1346 -->
<g id="node10" class="node">
<title>Node1346</title>
<g id="a_node10"><a xlink:href="class_send_coins_entry.html#aa3b846406c9bf67315fd1783102670bb" target="_top" xlink:title="SendCoinsEntry::setAmount">
<polygon fill="#ffffff" stroke="#000000" points="198,-38.5 198,-57.5 339,-57.5 339,-38.5 198,-38.5"/>
<text text-anchor="middle" x="268.5" y="-45.5" font-family="Helvetica,sans-Serif" font-size="10.00" fill="#000000">SendCoinsEntry::setAmount</text>
</a>
</g>
</g>
<!-- Node1337&#45;&gt;Node1346 -->
<g id="edge9" class="edge">
<title>Node1337&#45;&gt;Node1346</title>
<path fill="none" stroke="#191970" d="M85.3734,-186.8804C101.6831,-158.8893 140.4913,-99.0286 190,-68 194.1039,-65.428 198.5241,-63.186 203.1015,-61.2319"/>
<polygon fill="#191970" stroke="#191970" points="204.5531,-64.4249 212.6665,-57.6114 202.075,-57.8781 204.5531,-64.4249"/>
</g>
<!-- Node1344 -->
<g id="node8" class="node">
<title>Node1344</title>
<g id="a_node8"><a xlink:href="class_payment_request_plus.html#aa3d8c57af7c7bc4ffbc31da32e5a40a6" target="_top" xlink:title="PaymentRequestPlus\l::IsInitialized">
<polygon fill="#ffffff" stroke="#000000" points="383,-121 383,-151 495,-151 495,-121 383,-121"/>
<text text-anchor="start" x="391" y="-139" font-family="Helvetica,sans-Serif" font-size="10.00" fill="#000000">PaymentRequestPlus</text>
<text text-anchor="middle" x="439" y="-128" font-family="Helvetica,sans-Serif" font-size="10.00" fill="#000000">::IsInitialized</text>
</a>
</g>
</g>
<!-- Node1343&#45;&gt;Node1344 -->
<g id="edge7" class="edge">
<title>Node1343&#45;&gt;Node1344</title>
<path fill="none" stroke="#191970" d="M334.908,-136C347.3263,-136 360.3062,-136 372.7207,-136"/>
<polygon fill="#191970" stroke="#191970" points="372.9912,-139.5001 382.9911,-136 372.9911,-132.5001 372.9912,-139.5001"/>
</g>
<!-- Node1347 -->
<g id="node11" class="node">
<title>Node1347</title>
<g id="a_node11"><a xlink:href="class_bitcoin_amount_field.html#ad34b8770f7acfc23be8a8780ad8742fe" target="_top" xlink:title="BitcoinAmountField\l::setValue">
<polygon fill="#ffffff" stroke="#000000" points="388.5,-33 388.5,-63 489.5,-63 489.5,-33 388.5,-33"/>
<text text-anchor="start" x="396.5" y="-51" font-family="Helvetica,sans-Serif" font-size="10.00" fill="#000000">BitcoinAmountField</text>
<text text-anchor="middle" x="439" y="-40" font-family="Helvetica,sans-Serif" font-size="10.00" fill="#000000">::setValue</text>
</a>
</g>
</g>
<!-- Node1346&#45;&gt;Node1347 -->
<g id="edge10" class="edge">
<title>Node1346&#45;&gt;Node1347</title>
<path fill="none" stroke="#191970" d="M339.3261,-48C352.1924,-48 365.5101,-48 378.0607,-48"/>
<polygon fill="#191970" stroke="#191970" points="378.3961,-51.5001 388.396,-48 378.396,-44.5001 378.3961,-51.5001"/>
</g>
<!-- Node1348 -->
<g id="node12" class="node">
<title>Node1348</title>
<g id="a_node12"><a xlink:href="class_amount_spin_box.html#aca3825a8e5735dd99d3fa9665afb614c" target="_top" xlink:title="AmountSpinBox::setValue">
<polygon fill="#ffffff" stroke="#000000" points="531,-38.5 531,-57.5 662,-57.5 662,-38.5 531,-38.5"/>
<text text-anchor="middle" x="596.5" y="-45.5" font-family="Helvetica,sans-Serif" font-size="10.00" fill="#000000">AmountSpinBox::setValue</text>
</a>
</g>
</g>
<!-- Node1347&#45;&gt;Node1348 -->
<g id="edge11" class="edge">
<title>Node1347&#45;&gt;Node1348</title>
<path fill="none" stroke="#191970" d="M489.7009,-48C499.6504,-48 510.2871,-48 520.8492,-48"/>
<polygon fill="#191970" stroke="#191970" points="520.9282,-51.5001 530.9282,-48 520.9281,-44.5001 520.9282,-51.5001"/>
</g>
<!-- Node1349 -->
<g id="node13" class="node">
<title>Node1349</title>
<g id="a_node13"><a xlink:href="class_bitcoin_units.html#ab07437e5a788c80a82d75e3714bd3925" target="_top" xlink:title="Format as string. ">
<polygon fill="#ffffff" stroke="#000000" points="698,-38.5 698,-57.5 802,-57.5 802,-38.5 698,-38.5"/>
<text text-anchor="middle" x="750" y="-45.5" font-family="Helvetica,sans-Serif" font-size="10.00" fill="#000000">BitcoinUnits::format</text>
</a>
</g>
</g>
<!-- Node1348&#45;&gt;Node1349 -->
<g id="edge12" class="edge">
<title>Node1348&#45;&gt;Node1349</title>
<path fill="none" stroke="#191970" d="M662.0431,-48C670.5011,-48 679.1446,-48 687.5509,-48"/>
<polygon fill="#191970" stroke="#191970" points="687.6587,-51.5001 697.6586,-48 687.6586,-44.5001 687.6587,-51.5001"/>
</g>
<!-- Node1350 -->
<g id="node14" class="node">
<title>Node1350</title>
<g id="a_node14"><a xlink:href="class_bitcoin_units.html#a81cbc41480adfb600dad79711d336e5f" target="_top" xlink:title="Is unit ID valid? ">
<polygon fill="#ffffff" stroke="#000000" points="847.5,-76.5 847.5,-95.5 943.5,-95.5 943.5,-76.5 847.5,-76.5"/>
<text text-anchor="middle" x="895.5" y="-83.5" font-family="Helvetica,sans-Serif" font-size="10.00" fill="#000000">BitcoinUnits::valid</text>
</a>
</g>
</g>
<!-- Node1349&#45;&gt;Node1350 -->
<g id="edge13" class="edge">
<title>Node1349&#45;&gt;Node1350</title>
<path fill="none" stroke="#191970" d="M786.7158,-57.589C805.6566,-62.5358 828.9572,-68.6211 849.1285,-73.8892"/>
<polygon fill="#191970" stroke="#191970" points="848.4883,-77.3394 859.0482,-76.4799 850.2572,-70.5665 848.4883,-77.3394"/>
</g>
<!-- Node1351 -->
<g id="node15" class="node">
<title>Node1351</title>
<g id="a_node15"><a xlink:href="class_bitcoin_units.html#ae967b9e6ecbb8f041bfe398d27533b09" target="_top" xlink:title="Number of Satoshis (1e&#45;8) per unit. ">
<polygon fill="#ffffff" stroke="#000000" points="845,-38.5 845,-57.5 946,-57.5 946,-38.5 845,-38.5"/>
<text text-anchor="middle" x="895.5" y="-45.5" font-family="Helvetica,sans-Serif" font-size="10.00" fill="#000000">BitcoinUnits::factor</text>
</a>
</g>
</g>
<!-- Node1349&#45;&gt;Node1351 -->
<g id="edge14" class="edge">
<title>Node1349&#45;&gt;Node1351</title>
<path fill="none" stroke="#191970" d="M802.1179,-48C812.6228,-48 823.7535,-48 834.5298,-48"/>
<polygon fill="#191970" stroke="#191970" points="834.7213,-51.5001 844.7213,-48 834.7213,-44.5001 834.7213,-51.5001"/>
</g>
<!-- Node1352 -->
<g id="node16" class="node">
<title>Node1352</title>
<g id="a_node16"><a xlink:href="class_bitcoin_units.html#a3f0fc21634520ea06c684ba0d7e25f2f" target="_top" xlink:title="Number of decimals left. ">
<polygon fill="#ffffff" stroke="#000000" points="838,-.5 838,-19.5 953,-19.5 953,-.5 838,-.5"/>
<text text-anchor="middle" x="895.5" y="-7.5" font-family="Helvetica,sans-Serif" font-size="10.00" fill="#000000">BitcoinUnits::decimals</text>
</a>
</g>
</g>
<!-- Node1349&#45;&gt;Node1352 -->
<g id="edge15" class="edge">
<title>Node1349&#45;&gt;Node1352</title>
<path fill="none" stroke="#191970" d="M786.7158,-38.411C805.6566,-33.4642 828.9572,-27.3789 849.1285,-22.1108"/>
<polygon fill="#191970" stroke="#191970" points="850.2572,-25.4335 859.0482,-19.5201 848.4883,-18.6606 850.2572,-25.4335"/>
</g>
</g>
</svg>
