<?xml version="1.0" encoding="UTF-8" standalone="no"?>
<!DOCTYPE svg PUBLIC "-//W3C//DTD SVG 1.1//EN"
 "http://www.w3.org/Graphics/SVG/1.1/DTD/svg11.dtd">
<!-- Generated by graphviz version 2.40.1 (20161225.0304)
 -->
<!-- Title: CNetMessage::readData Pages: 1 -->
<svg width="321pt" height="66pt"
 viewBox="0.00 0.00 321.00 66.00" xmlns="http://www.w3.org/2000/svg" xmlns:xlink="http://www.w3.org/1999/xlink">
<g id="graph0" class="graph" transform="scale(1 1) rotate(0) translate(4 62)">
<title>CNetMessage::readData</title>
<polygon fill="#ffffff" stroke="transparent" points="-4,4 -4,-62 317,-62 317,4 -4,4"/>
<!-- Node7 -->
<g id="node1" class="node">
<title>Node7</title>
<polygon fill="#bfbfbf" stroke="#000000" points="0,-19.5 0,-38.5 125,-38.5 125,-19.5 0,-19.5"/>
<text text-anchor="middle" x="62.5" y="-26.5" font-family="Helvetica,sans-Serif" font-size="10.00" fill="#000000">CNetMessage::readData</text>
</g>
<!-- Node8 -->
<g id="node2" class="node">
<title>Node8</title>
<g id="a_node2"><a xlink:href="glibc__compat_8cpp.html#a0f46826ab0466591e136db24394923cf" target="_top" xlink:title="memcpy">
<polygon fill="#ffffff" stroke="#000000" points="161,-19.5 161,-38.5 215,-38.5 215,-19.5 161,-19.5"/>
<text text-anchor="middle" x="188" y="-26.5" font-family="Helvetica,sans-Serif" font-size="10.00" fill="#000000">memcpy</text>
</a>
</g>
</g>
<!-- Node7&#45;&gt;Node8 -->
<g id="edge1" class="edge">
<title>Node7&#45;&gt;Node8</title>
<path fill="none" stroke="#191970" d="M125.25,-29C133.9421,-29 142.6342,-29 150.6591,-29"/>
<polygon fill="#191970" stroke="#191970" points="150.7684,-32.5001 160.7684,-29 150.7683,-25.5001 150.7684,-32.5001"/>
</g>
<!-- Node9 -->
<g id="node3" class="node">
<title>Node9</title>
<g id="a_node3"><a xlink:href="glibc__compat_8cpp.html#a9778d49e9029dd75bc53ecbbf9f5e9a1" target="_top" xlink:title="memmove">
<polygon fill="#ffffff" stroke="#000000" points="251,-38.5 251,-57.5 313,-57.5 313,-38.5 251,-38.5"/>
<text text-anchor="middle" x="282" y="-45.5" font-family="Helvetica,sans-Serif" font-size="10.00" fill="#000000">memmove</text>
</a>
</g>
</g>
<!-- Node8&#45;&gt;Node9 -->
<g id="edge2" class="edge">
<title>Node8&#45;&gt;Node9</title>
<path fill="none" stroke="#191970" d="M215.1887,-34.4956C223.217,-36.1183 232.1892,-37.9319 240.8881,-39.6901"/>
<polygon fill="#191970" stroke="#191970" points="240.4061,-43.1634 250.9013,-41.7141 241.793,-36.3022 240.4061,-43.1634"/>
</g>
<!-- Node10 -->
<g id="node4" class="node">
<title>Node10</title>
<g id="a_node4"><a xlink:href="glibc__compat_8cpp.html#a424ac71631da5ada2976630ff67051d1" target="_top" xlink:title="__chk_fail">
<polygon fill="#ffffff" stroke="#000000" points="251.5,-.5 251.5,-19.5 312.5,-19.5 312.5,-.5 251.5,-.5"/>
<text text-anchor="middle" x="282" y="-7.5" font-family="Helvetica,sans-Serif" font-size="10.00" fill="#000000">__chk_fail</text>
</a>
</g>
</g>
<!-- Node8&#45;&gt;Node10 -->
<g id="edge3" class="edge">
<title>Node8&#45;&gt;Node10</title>
<path fill="none" stroke="#191970" d="M215.1887,-23.5044C223.383,-21.8481 232.5608,-19.993 241.4275,-18.2008"/>
<polygon fill="#191970" stroke="#191970" points="242.1288,-21.6299 251.2371,-16.218 240.7419,-14.7687 242.1288,-21.6299"/>
</g>
</g>
</svg>
