<?xml version="1.0" encoding="UTF-8" standalone="no"?>
<!DOCTYPE svg PUBLIC "-//W3C//DTD SVG 1.1//EN"
 "http://www.w3.org/Graphics/SVG/1.1/DTD/svg11.dtd">
<!-- Generated by graphviz version 2.40.1 (20161225.0304)
 -->
<!-- Title: ReceiveCoinsDialog::ReceiveCoinsDialog Pages: 1 -->
<svg width="1032pt" height="515pt"
 viewBox="0.00 0.00 1032.00 515.00" xmlns="http://www.w3.org/2000/svg" xmlns:xlink="http://www.w3.org/1999/xlink">
<g id="graph0" class="graph" transform="scale(1 1) rotate(0) translate(4 511)">
<title>ReceiveCoinsDialog::ReceiveCoinsDialog</title>
<polygon fill="#ffffff" stroke="transparent" points="-4,4 -4,-511 1028,-511 1028,4 -4,4"/>
<!-- Node0 -->
<g id="node1" class="node">
<title>Node0</title>
<polygon fill="#bfbfbf" stroke="#000000" points="0,-292.5 0,-322.5 112,-322.5 112,-292.5 0,-292.5"/>
<text text-anchor="start" x="8" y="-310.5" font-family="Helvetica,sans-Serif" font-size="10.00" fill="#000000">ReceiveCoinsDialog</text>
<text text-anchor="middle" x="56" y="-299.5" font-family="Helvetica,sans-Serif" font-size="10.00" fill="#000000">::ReceiveCoinsDialog</text>
</g>
<!-- Node1 -->
<g id="node2" class="node">
<title>Node1</title>
<g id="a_node2"><a xlink:href="class_ui___receive_coins_dialog.html#a990cf54ed517108599c0fc1e97fb4288" target="_top" xlink:title="Ui_ReceiveCoinsDialog\l::setupUi">
<polygon fill="#ffffff" stroke="#000000" points="163,-461.5 163,-491.5 284,-491.5 284,-461.5 163,-461.5"/>
<text text-anchor="start" x="171" y="-479.5" font-family="Helvetica,sans-Serif" font-size="10.00" fill="#000000">Ui_ReceiveCoinsDialog</text>
<text text-anchor="middle" x="223.5" y="-468.5" font-family="Helvetica,sans-Serif" font-size="10.00" fill="#000000">::setupUi</text>
</a>
</g>
</g>
<!-- Node0&#45;&gt;Node1 -->
<g id="edge1" class="edge">
<title>Node0&#45;&gt;Node1</title>
<path fill="none" stroke="#191970" d="M61.5137,-322.6828C72.9762,-352.1284 102.1883,-417.1947 148,-452.5 149.8146,-453.8984 151.7126,-455.2165 153.6756,-456.4587"/>
<polygon fill="#191970" stroke="#191970" points="152.1986,-459.6418 162.6408,-461.4334 155.595,-453.521 152.1986,-459.6418"/>
</g>
<!-- Node3 -->
<g id="node4" class="node">
<title>Node3</title>
<g id="a_node4"><a xlink:href="class_platform_style.html#ab1c3a5c2bc7b5ff91d3e166fee62eea5" target="_top" xlink:title="PlatformStyle::getImages\lOnButtons">
<polygon fill="#ffffff" stroke="#000000" points="159.5,-412.5 159.5,-442.5 287.5,-442.5 287.5,-412.5 159.5,-412.5"/>
<text text-anchor="start" x="167.5" y="-430.5" font-family="Helvetica,sans-Serif" font-size="10.00" fill="#000000">PlatformStyle::getImages</text>
<text text-anchor="middle" x="223.5" y="-419.5" font-family="Helvetica,sans-Serif" font-size="10.00" fill="#000000">OnButtons</text>
</a>
</g>
</g>
<!-- Node0&#45;&gt;Node3 -->
<g id="edge3" class="edge">
<title>Node0&#45;&gt;Node3</title>
<path fill="none" stroke="#191970" d="M66.7781,-322.5319C82.4299,-343.3301 113.3877,-380.7708 148,-402.5 151.3255,-404.5877 154.8438,-406.5201 158.4711,-408.3059"/>
<polygon fill="#191970" stroke="#191970" points="157.1091,-411.531 167.6642,-412.4479 159.9847,-405.1489 157.1091,-411.531"/>
</g>
<!-- Node4 -->
<g id="node5" class="node">
<title>Node4</title>
<g id="a_node5"><a xlink:href="class_platform_style.html#a3f4ff8b7a2054cbd4283e67208523035" target="_top" xlink:title="Colorize an icon (given filename) with the icon color. ">
<polygon fill="#ffffff" stroke="#000000" points="148,-374 148,-393 299,-393 299,-374 148,-374"/>
<text text-anchor="middle" x="223.5" y="-381" font-family="Helvetica,sans-Serif" font-size="10.00" fill="#000000">PlatformStyle::SingleColorIcon</text>
</a>
</g>
</g>
<!-- Node0&#45;&gt;Node4 -->
<g id="edge4" class="edge">
<title>Node0&#45;&gt;Node4</title>
<path fill="none" stroke="#191970" d="M79.5133,-322.5877C97.6996,-333.8085 123.7817,-348.9418 148,-359.5 157.7455,-363.7486 168.4891,-367.6196 178.7396,-370.9537"/>
<polygon fill="#191970" stroke="#191970" points="177.7782,-374.3203 188.3675,-373.9806 179.8776,-367.6425 177.7782,-374.3203"/>
</g>
<!-- Node10 -->
<g id="node11" class="node">
<title>Node10</title>
<g id="a_node11"><a xlink:href="class_receive_coins_dialog.html#a9b485c40590668ac2e7d0a4a827a334f" target="_top" xlink:title="ReceiveCoinsDialog\l::showMenu">
<polygon fill="#ffffff" stroke="#000000" points="348,-340.5 348,-370.5 454,-370.5 454,-340.5 348,-340.5"/>
<text text-anchor="start" x="356" y="-358.5" font-family="Helvetica,sans-Serif" font-size="10.00" fill="#000000">ReceiveCoinsDialog</text>
<text text-anchor="middle" x="401" y="-347.5" font-family="Helvetica,sans-Serif" font-size="10.00" fill="#000000">::showMenu</text>
</a>
</g>
</g>
<!-- Node0&#45;&gt;Node10 -->
<g id="edge12" class="edge">
<title>Node0&#45;&gt;Node10</title>
<path fill="none" stroke="#191970" d="M112.198,-315.3189C174.0919,-323.9302 273.3773,-337.7438 337.8977,-346.7206"/>
<polygon fill="#191970" stroke="#191970" points="337.5564,-350.2067 347.9433,-348.1182 338.5211,-343.2735 337.5564,-350.2067"/>
</g>
<!-- Node13 -->
<g id="node14" class="node">
<title>Node13</title>
<g id="a_node14"><a xlink:href="class_receive_coins_dialog.html#aa3ed79752a859f8aea8e43f5197c798d" target="_top" xlink:title="ReceiveCoinsDialog\l::copyURI">
<polygon fill="#ffffff" stroke="#000000" points="348,-276.5 348,-306.5 454,-306.5 454,-276.5 348,-276.5"/>
<text text-anchor="start" x="356" y="-294.5" font-family="Helvetica,sans-Serif" font-size="10.00" fill="#000000">ReceiveCoinsDialog</text>
<text text-anchor="middle" x="401" y="-283.5" font-family="Helvetica,sans-Serif" font-size="10.00" fill="#000000">::copyURI</text>
</a>
</g>
</g>
<!-- Node0&#45;&gt;Node13 -->
<g id="edge15" class="edge">
<title>Node0&#45;&gt;Node13</title>
<path fill="none" stroke="#191970" d="M112.198,-304.8937C174.0919,-302.0233 273.3773,-297.4187 337.8977,-294.4265"/>
<polygon fill="#191970" stroke="#191970" points="338.1162,-297.9202 347.9433,-293.9606 337.7919,-290.9277 338.1162,-297.9202"/>
</g>
<!-- Node21 -->
<g id="node22" class="node">
<title>Node21</title>
<g id="a_node22"><a xlink:href="class_receive_coins_dialog.html#abdd69012e01da1d61b0bf622f9e156b1" target="_top" xlink:title="ReceiveCoinsDialog\l::copyLabel">
<polygon fill="#ffffff" stroke="#000000" points="170.5,-248.5 170.5,-278.5 276.5,-278.5 276.5,-248.5 170.5,-248.5"/>
<text text-anchor="start" x="178.5" y="-266.5" font-family="Helvetica,sans-Serif" font-size="10.00" fill="#000000">ReceiveCoinsDialog</text>
<text text-anchor="middle" x="223.5" y="-255.5" font-family="Helvetica,sans-Serif" font-size="10.00" fill="#000000">::copyLabel</text>
</a>
</g>
</g>
<!-- Node0&#45;&gt;Node21 -->
<g id="edge25" class="edge">
<title>Node0&#45;&gt;Node21</title>
<path fill="none" stroke="#191970" d="M112.241,-292.7262C127.7459,-288.6533 144.6659,-284.2087 160.525,-280.0427"/>
<polygon fill="#191970" stroke="#191970" points="161.4577,-283.4165 170.2403,-277.4906 159.6792,-276.6462 161.4577,-283.4165"/>
</g>
<!-- Node27 -->
<g id="node28" class="node">
<title>Node27</title>
<g id="a_node28"><a xlink:href="class_receive_coins_dialog.html#a99b4d3cbb14744e8b3eff41f83413cb7" target="_top" xlink:title="ReceiveCoinsDialog\l::copyMessage">
<polygon fill="#ffffff" stroke="#000000" points="170.5,-199.5 170.5,-229.5 276.5,-229.5 276.5,-199.5 170.5,-199.5"/>
<text text-anchor="start" x="178.5" y="-217.5" font-family="Helvetica,sans-Serif" font-size="10.00" fill="#000000">ReceiveCoinsDialog</text>
<text text-anchor="middle" x="223.5" y="-206.5" font-family="Helvetica,sans-Serif" font-size="10.00" fill="#000000">::copyMessage</text>
</a>
</g>
</g>
<!-- Node0&#45;&gt;Node27 -->
<g id="edge35" class="edge">
<title>Node0&#45;&gt;Node27</title>
<path fill="none" stroke="#191970" d="M72.8758,-292.4357C90.5404,-277.3157 119.6089,-254.2135 148,-239.5 152.2217,-237.3121 156.6739,-235.2605 161.2181,-233.348"/>
<polygon fill="#191970" stroke="#191970" points="162.6228,-236.5562 170.6305,-229.6188 160.0444,-230.0484 162.6228,-236.5562"/>
</g>
<!-- Node28 -->
<g id="node29" class="node">
<title>Node28</title>
<g id="a_node29"><a xlink:href="class_receive_coins_dialog.html#a3f8309dfaa944576bae760ba33222463" target="_top" xlink:title="ReceiveCoinsDialog\l::copyAmount">
<polygon fill="#ffffff" stroke="#000000" points="170.5,-150.5 170.5,-180.5 276.5,-180.5 276.5,-150.5 170.5,-150.5"/>
<text text-anchor="start" x="178.5" y="-168.5" font-family="Helvetica,sans-Serif" font-size="10.00" fill="#000000">ReceiveCoinsDialog</text>
<text text-anchor="middle" x="223.5" y="-157.5" font-family="Helvetica,sans-Serif" font-size="10.00" fill="#000000">::copyAmount</text>
</a>
</g>
</g>
<!-- Node0&#45;&gt;Node28 -->
<g id="edge37" class="edge">
<title>Node0&#45;&gt;Node28</title>
<path fill="none" stroke="#191970" d="M63.7593,-292.453C77.4198,-267.4249 108.1337,-217.2554 148,-189.5 152.0213,-186.7004 156.3854,-184.2151 160.9192,-182.011"/>
<polygon fill="#191970" stroke="#191970" points="162.642,-185.078 170.4079,-177.871 159.8427,-178.6621 162.642,-185.078"/>
</g>
<!-- Node29 -->
<g id="node30" class="node">
<title>Node29</title>
<g id="a_node30"><a xlink:href="class_receive_coins_dialog.html#aaea0511f0ab43f1d2b23f8684d1edfc3" target="_top" xlink:title="ReceiveCoinsDialog\l::clear">
<polygon fill="#ffffff" stroke="#000000" points="348,-49.5 348,-79.5 454,-79.5 454,-49.5 348,-49.5"/>
<text text-anchor="start" x="356" y="-67.5" font-family="Helvetica,sans-Serif" font-size="10.00" fill="#000000">ReceiveCoinsDialog</text>
<text text-anchor="middle" x="401" y="-56.5" font-family="Helvetica,sans-Serif" font-size="10.00" fill="#000000">::clear</text>
</a>
</g>
</g>
<!-- Node0&#45;&gt;Node29 -->
<g id="edge39" class="edge">
<title>Node0&#45;&gt;Node29</title>
<path fill="none" stroke="#191970" d="M60.1766,-292.0103C69.864,-259.0638 97.0182,-181.6883 148,-140.5 202.6586,-96.3411 282.5144,-77.8171 337.8285,-70.0608"/>
<polygon fill="#191970" stroke="#191970" points="338.4049,-73.5151 347.8597,-68.734 337.487,-66.5755 338.4049,-73.5151"/>
</g>
<!-- Node2 -->
<g id="node3" class="node">
<title>Node2</title>
<g id="a_node3"><a xlink:href="class_ui___receive_coins_dialog.html#ab8ec986ddacb3e597797189ff26a3de2" target="_top" xlink:title="Ui_ReceiveCoinsDialog\l::retranslateUi">
<polygon fill="#ffffff" stroke="#000000" points="340.5,-461.5 340.5,-491.5 461.5,-491.5 461.5,-461.5 340.5,-461.5"/>
<text text-anchor="start" x="348.5" y="-479.5" font-family="Helvetica,sans-Serif" font-size="10.00" fill="#000000">Ui_ReceiveCoinsDialog</text>
<text text-anchor="middle" x="401" y="-468.5" font-family="Helvetica,sans-Serif" font-size="10.00" fill="#000000">::retranslateUi</text>
</a>
</g>
</g>
<!-- Node1&#45;&gt;Node2 -->
<g id="edge2" class="edge">
<title>Node1&#45;&gt;Node2</title>
<path fill="none" stroke="#191970" d="M284.089,-476.5C298.8585,-476.5 314.7889,-476.5 329.9947,-476.5"/>
<polygon fill="#191970" stroke="#191970" points="330.383,-480.0001 340.3829,-476.5 330.3829,-473.0001 330.383,-480.0001"/>
</g>
<!-- Node5 -->
<g id="node6" class="node">
<title>Node5</title>
<g id="a_node6"><a xlink:href="class_platform_style.html#a76949291f8dfc8b7a34f90cf119ed8e4" target="_top" xlink:title="PlatformStyle::SingleColor">
<polygon fill="#ffffff" stroke="#000000" points="335,-411 335,-430 467,-430 467,-411 335,-411"/>
<text text-anchor="middle" x="401" y="-418" font-family="Helvetica,sans-Serif" font-size="10.00" fill="#000000">PlatformStyle::SingleColor</text>
</a>
</g>
</g>
<!-- Node4&#45;&gt;Node5 -->
<g id="edge5" class="edge">
<title>Node4&#45;&gt;Node5</title>
<path fill="none" stroke="#191970" d="M299.0334,-392.562C323.1881,-397.3506 348.679,-403.0978 368.1315,-408.2665"/>
<polygon fill="#191970" stroke="#191970" points="367.421,-411.7012 377.9918,-410.9883 369.2837,-404.9536 367.421,-411.7012"/>
</g>
<!-- Node5&#45;&gt;Node4 -->
<g id="edge8" class="edge">
<title>Node5&#45;&gt;Node4</title>
<path fill="none" stroke="#191970" d="M334.945,-413.2807C308.216,-408.19 278.5428,-401.6185 256.5397,-395.779"/>
<polygon fill="#191970" stroke="#191970" points="257.2756,-392.3513 246.705,-393.0684 255.4156,-399.0997 257.2756,-392.3513"/>
</g>
<!-- Node6 -->
<g id="node7" class="node">
<title>Node6</title>
<g id="a_node7"><a xlink:href="class_platform_style.html#adecebc4670880700203340d322351f89" target="_top" xlink:title="Colorize an image (given filename) with the icon color. ">
<polygon fill="#ffffff" stroke="#000000" points="508.5,-476.5 508.5,-506.5 640.5,-506.5 640.5,-476.5 508.5,-476.5"/>
<text text-anchor="start" x="516.5" y="-494.5" font-family="Helvetica,sans-Serif" font-size="10.00" fill="#000000">PlatformStyle::SingleColor</text>
<text text-anchor="middle" x="574.5" y="-483.5" font-family="Helvetica,sans-Serif" font-size="10.00" fill="#000000">Image</text>
</a>
</g>
</g>
<!-- Node5&#45;&gt;Node6 -->
<g id="edge6" class="edge">
<title>Node5&#45;&gt;Node6</title>
<path fill="none" stroke="#191970" d="M437.9686,-430.0612C457.1907,-438.0277 481.1716,-448.7811 503,-457.5 515.8159,-462.6191 530.14,-467.7424 542.582,-472.6263"/>
<polygon fill="#191970" stroke="#191970" points="541.5099,-475.9684 552.092,-476.487 544.143,-469.4825 541.5099,-475.9684"/>
</g>
<!-- Node7 -->
<g id="node8" class="node">
<title>Node7</title>
<g id="a_node8"><a xlink:href="class_platform_style.html#ac3c91893b60a84a98155b7b9603918bd" target="_top" xlink:title="Colorize an icon (given filename) with the text color. ">
<polygon fill="#ffffff" stroke="#000000" points="503,-438 503,-457 646,-457 646,-438 503,-438"/>
<text text-anchor="middle" x="574.5" y="-445" font-family="Helvetica,sans-Serif" font-size="10.00" fill="#000000">PlatformStyle::TextColorIcon</text>
</a>
</g>
</g>
<!-- Node5&#45;&gt;Node7 -->
<g id="edge9" class="edge">
<title>Node5&#45;&gt;Node7</title>
<path fill="none" stroke="#191970" d="M462.1696,-430.0192C475.3862,-432.076 489.4728,-434.2681 503.0437,-436.38"/>
<polygon fill="#191970" stroke="#191970" points="502.8787,-439.8964 513.298,-437.9758 503.9551,-432.9796 502.8787,-439.8964"/>
</g>
<!-- Node9 -->
<g id="node10" class="node">
<title>Node9</title>
<g id="a_node10"><a xlink:href="class_platform_style.html#a9336bcaeed5c9210db1550f85f6e22e6" target="_top" xlink:title="PlatformStyle::PlatformStyle">
<polygon fill="#ffffff" stroke="#000000" points="504,-400 504,-419 645,-419 645,-400 504,-400"/>
<text text-anchor="middle" x="574.5" y="-407" font-family="Helvetica,sans-Serif" font-size="10.00" fill="#000000">PlatformStyle::PlatformStyle</text>
</a>
</g>
</g>
<!-- Node5&#45;&gt;Node9 -->
<g id="edge11" class="edge">
<title>Node5&#45;&gt;Node9</title>
<path fill="none" stroke="#191970" d="M467.0879,-416.31C475.8547,-415.7542 484.9205,-415.1794 493.8981,-414.6102"/>
<polygon fill="#191970" stroke="#191970" points="494.2174,-418.0971 503.9759,-413.9713 493.7744,-411.1111 494.2174,-418.0971"/>
</g>
<!-- Node6&#45;&gt;Node5 -->
<g id="edge7" class="edge">
<title>Node6&#45;&gt;Node5</title>
<path fill="none" stroke="#191970" d="M508.2015,-477.5454C506.4462,-476.8659 504.7097,-476.1829 503,-475.5 472.943,-463.4943 438.8046,-447.6312 418.6291,-435.536"/>
<polygon fill="#191970" stroke="#191970" points="420.4719,-432.5598 410.1658,-430.1032 416.6905,-438.4506 420.4719,-432.5598"/>
</g>
<!-- Node8 -->
<g id="node9" class="node">
<title>Node8</title>
<g id="a_node9"><a xlink:href="class_platform_style.html#ad9c6683d8af86105edcb53970b689afb" target="_top" xlink:title="PlatformStyle::TextColor">
<polygon fill="#ffffff" stroke="#000000" points="701.5,-438 701.5,-457 826.5,-457 826.5,-438 701.5,-438"/>
<text text-anchor="middle" x="764" y="-445" font-family="Helvetica,sans-Serif" font-size="10.00" fill="#000000">PlatformStyle::TextColor</text>
</a>
</g>
</g>
<!-- Node7&#45;&gt;Node8 -->
<g id="edge10" class="edge">
<title>Node7&#45;&gt;Node8</title>
<path fill="none" stroke="#191970" d="M646.1418,-447.5C660.8743,-447.5 676.4005,-447.5 691.1743,-447.5"/>
<polygon fill="#191970" stroke="#191970" points="691.2632,-451.0001 701.2632,-447.5 691.2631,-444.0001 691.2632,-451.0001"/>
</g>
<!-- Node11 -->
<g id="node12" class="node">
<title>Node11</title>
<g id="a_node12"><a xlink:href="class_receive_coins_dialog.html#adb21771a4488b706bb523ff60ef0c625" target="_top" xlink:title="ReceiveCoinsDialog\l::selectedRow">
<polygon fill="#ffffff" stroke="#000000" points="521.5,-350.5 521.5,-380.5 627.5,-380.5 627.5,-350.5 521.5,-350.5"/>
<text text-anchor="start" x="529.5" y="-368.5" font-family="Helvetica,sans-Serif" font-size="10.00" fill="#000000">ReceiveCoinsDialog</text>
<text text-anchor="middle" x="574.5" y="-357.5" font-family="Helvetica,sans-Serif" font-size="10.00" fill="#000000">::selectedRow</text>
</a>
</g>
</g>
<!-- Node10&#45;&gt;Node11 -->
<g id="edge13" class="edge">
<title>Node10&#45;&gt;Node11</title>
<path fill="none" stroke="#191970" d="M454.4714,-358.5819C472.3655,-359.6133 492.4862,-360.773 511.0657,-361.8438"/>
<polygon fill="#191970" stroke="#191970" points="511.0203,-365.3469 521.2051,-362.4282 511.4231,-358.3585 511.0203,-365.3469"/>
</g>
<!-- Node12 -->
<g id="node13" class="node">
<title>Node12</title>
<g id="a_node13"><a xlink:href="class_wallet_model.html#ab13ca64220a1652d63e1e042d3be578f" target="_top" xlink:title="WalletModel::getRecentRequests\lTableModel">
<polygon fill="#ffffff" stroke="#000000" points="682,-306.5 682,-336.5 846,-336.5 846,-306.5 682,-306.5"/>
<text text-anchor="start" x="690" y="-324.5" font-family="Helvetica,sans-Serif" font-size="10.00" fill="#000000">WalletModel::getRecentRequests</text>
<text text-anchor="middle" x="764" y="-313.5" font-family="Helvetica,sans-Serif" font-size="10.00" fill="#000000">TableModel</text>
</a>
</g>
</g>
<!-- Node11&#45;&gt;Node12 -->
<g id="edge14" class="edge">
<title>Node11&#45;&gt;Node12</title>
<path fill="none" stroke="#191970" d="M627.5383,-353.185C646.6398,-348.7499 668.5671,-343.6586 689.177,-338.8732"/>
<polygon fill="#191970" stroke="#191970" points="690.2213,-342.2239 699.1705,-336.5527 688.638,-335.4053 690.2213,-342.2239"/>
</g>
<!-- Node13&#45;&gt;Node11 -->
<g id="edge16" class="edge">
<title>Node13&#45;&gt;Node11</title>
<path fill="none" stroke="#191970" d="M435.8968,-306.6558C455.581,-315.1789 480.6397,-325.9865 503,-335.5 511.46,-339.0994 520.4949,-342.9135 529.1959,-346.5716"/>
<polygon fill="#191970" stroke="#191970" points="527.888,-349.8184 538.4633,-350.4621 530.5977,-343.3641 527.888,-349.8184"/>
</g>
<!-- Node13&#45;&gt;Node12 -->
<g id="edge17" class="edge">
<title>Node13&#45;&gt;Node12</title>
<path fill="none" stroke="#191970" d="M454.1685,-297.5875C469.8813,-299.2908 487.1237,-301.0665 503,-302.5 558.984,-307.5549 621.8186,-312.1618 671.8051,-315.573"/>
<polygon fill="#191970" stroke="#191970" points="671.733,-319.076 681.9469,-316.2607 672.2067,-312.0921 671.733,-319.076"/>
</g>
<!-- Node14 -->
<g id="node15" class="node">
<title>Node14</title>
<g id="a_node15"><a xlink:href="namespace_g_u_i_util.html#ab9d4ba8e8713eebbe4e5eb7cd1ba479e" target="_top" xlink:title="GUIUtil::formatBitcoinURI">
<polygon fill="#ffffff" stroke="#000000" points="509,-224 509,-243 640,-243 640,-224 509,-224"/>
<text text-anchor="middle" x="574.5" y="-231" font-family="Helvetica,sans-Serif" font-size="10.00" fill="#000000">GUIUtil::formatBitcoinURI</text>
</a>
</g>
</g>
<!-- Node13&#45;&gt;Node14 -->
<g id="edge18" class="edge">
<title>Node13&#45;&gt;Node14</title>
<path fill="none" stroke="#191970" d="M438.9978,-276.4796C458.0728,-269.1608 481.6165,-260.4603 503,-253.5 511.1048,-250.8619 519.793,-248.2523 528.2226,-245.8324"/>
<polygon fill="#191970" stroke="#191970" points="529.2748,-249.1722 537.9489,-243.0885 527.3742,-242.4352 529.2748,-249.1722"/>
</g>
<!-- Node19 -->
<g id="node20" class="node">
<title>Node19</title>
<g id="a_node20"><a xlink:href="class_recent_requests_table_model.html#a6d0dead09080f7f8201a3feff0c30bb7" target="_top" xlink:title="RecentRequestsTableModel\l::entry">
<polygon fill="#ffffff" stroke="#000000" points="504.5,-262.5 504.5,-292.5 644.5,-292.5 644.5,-262.5 504.5,-262.5"/>
<text text-anchor="start" x="512.5" y="-280.5" font-family="Helvetica,sans-Serif" font-size="10.00" fill="#000000">RecentRequestsTableModel</text>
<text text-anchor="middle" x="574.5" y="-269.5" font-family="Helvetica,sans-Serif" font-size="10.00" fill="#000000">::entry</text>
</a>
</g>
</g>
<!-- Node13&#45;&gt;Node19 -->
<g id="edge23" class="edge">
<title>Node13&#45;&gt;Node19</title>
<path fill="none" stroke="#191970" d="M454.4714,-287.1853C467.0076,-286.1737 480.6365,-285.074 494.0628,-283.9906"/>
<polygon fill="#191970" stroke="#191970" points="494.5829,-287.4601 504.2689,-283.1671 494.0198,-280.4828 494.5829,-287.4601"/>
</g>
<!-- Node20 -->
<g id="node21" class="node">
<title>Node20</title>
<g id="a_node21"><a xlink:href="namespace_g_u_i_util.html#aef655b19f129179ca32f11a4d0da1a07" target="_top" xlink:title="GUIUtil::setClipboard">
<polygon fill="#ffffff" stroke="#000000" points="519.5,-186 519.5,-205 629.5,-205 629.5,-186 519.5,-186"/>
<text text-anchor="middle" x="574.5" y="-193" font-family="Helvetica,sans-Serif" font-size="10.00" fill="#000000">GUIUtil::setClipboard</text>
</a>
</g>
</g>
<!-- Node13&#45;&gt;Node20 -->
<g id="edge24" class="edge">
<title>Node13&#45;&gt;Node20</title>
<path fill="none" stroke="#191970" d="M416.992,-276.2448C436.0324,-258.8812 469.4874,-230.8201 503,-214.5 507.9077,-212.11 513.1565,-209.9899 518.4979,-208.116"/>
<polygon fill="#191970" stroke="#191970" points="519.7138,-211.4015 528.1588,-205.0036 517.5672,-204.7387 519.7138,-211.4015"/>
</g>
<!-- Node15 -->
<g id="node16" class="node">
<title>Node15</title>
<g id="a_node16"><a xlink:href="class_bitcoin_units.html#ab07437e5a788c80a82d75e3714bd3925" target="_top" xlink:title="Format as string. ">
<polygon fill="#ffffff" stroke="#000000" points="712,-197 712,-216 816,-216 816,-197 712,-197"/>
<text text-anchor="middle" x="764" y="-204" font-family="Helvetica,sans-Serif" font-size="10.00" fill="#000000">BitcoinUnits::format</text>
</a>
</g>
</g>
<!-- Node14&#45;&gt;Node15 -->
<g id="edge19" class="edge">
<title>Node14&#45;&gt;Node15</title>
<path fill="none" stroke="#191970" d="M640.2461,-224.1325C660.1818,-221.292 682.0135,-218.1815 701.7149,-215.3744"/>
<polygon fill="#191970" stroke="#191970" points="702.3957,-218.8128 711.802,-213.9372 701.4082,-211.8828 702.3957,-218.8128"/>
</g>
<!-- Node16 -->
<g id="node17" class="node">
<title>Node16</title>
<g id="a_node17"><a xlink:href="class_bitcoin_units.html#a81cbc41480adfb600dad79711d336e5f" target="_top" xlink:title="Is unit ID valid? ">
<polygon fill="#ffffff" stroke="#000000" points="905,-235 905,-254 1001,-254 1001,-235 905,-235"/>
<text text-anchor="middle" x="953" y="-242" font-family="Helvetica,sans-Serif" font-size="10.00" fill="#000000">BitcoinUnits::valid</text>
</a>
</g>
</g>
<!-- Node15&#45;&gt;Node16 -->
<g id="edge20" class="edge">
<title>Node15&#45;&gt;Node16</title>
<path fill="none" stroke="#191970" d="M811.6927,-216.089C837.195,-221.2165 868.7818,-227.5672 895.6196,-232.9632"/>
<polygon fill="#191970" stroke="#191970" points="895.1565,-236.4401 905.6503,-234.9799 896.5364,-229.5774 895.1565,-236.4401"/>
</g>
<!-- Node17 -->
<g id="node18" class="node">
<title>Node17</title>
<g id="a_node18"><a xlink:href="class_bitcoin_units.html#ae967b9e6ecbb8f041bfe398d27533b09" target="_top" xlink:title="Number of Satoshis (1e&#45;8) per unit. ">
<polygon fill="#ffffff" stroke="#000000" points="902.5,-197 902.5,-216 1003.5,-216 1003.5,-197 902.5,-197"/>
<text text-anchor="middle" x="953" y="-204" font-family="Helvetica,sans-Serif" font-size="10.00" fill="#000000">BitcoinUnits::factor</text>
</a>
</g>
</g>
<!-- Node15&#45;&gt;Node17 -->
<g id="edge21" class="edge">
<title>Node15&#45;&gt;Node17</title>
<path fill="none" stroke="#191970" d="M816.1454,-206.5C839.6643,-206.5 867.5964,-206.5 892.0741,-206.5"/>
<polygon fill="#191970" stroke="#191970" points="892.3302,-210.0001 902.3301,-206.5 892.3301,-203.0001 892.3302,-210.0001"/>
</g>
<!-- Node18 -->
<g id="node19" class="node">
<title>Node18</title>
<g id="a_node19"><a xlink:href="class_bitcoin_units.html#a3f0fc21634520ea06c684ba0d7e25f2f" target="_top" xlink:title="Number of decimals left. ">
<polygon fill="#ffffff" stroke="#000000" points="895.5,-159 895.5,-178 1010.5,-178 1010.5,-159 895.5,-159"/>
<text text-anchor="middle" x="953" y="-166" font-family="Helvetica,sans-Serif" font-size="10.00" fill="#000000">BitcoinUnits::decimals</text>
</a>
</g>
</g>
<!-- Node15&#45;&gt;Node18 -->
<g id="edge22" class="edge">
<title>Node15&#45;&gt;Node18</title>
<path fill="none" stroke="#191970" d="M811.6927,-196.911C837.195,-191.7835 868.7818,-185.4328 895.6196,-180.0368"/>
<polygon fill="#191970" stroke="#191970" points="896.5364,-183.4226 905.6503,-178.0201 895.1565,-176.5599 896.5364,-183.4226"/>
</g>
<!-- Node22 -->
<g id="node23" class="node">
<title>Node22</title>
<g id="a_node23"><a xlink:href="class_receive_coins_dialog.html#adcf53aced7dfa041a55278b4807a20a2" target="_top" xlink:title="ReceiveCoinsDialog\l::copyColumnToClipboard">
<polygon fill="#ffffff" stroke="#000000" points="336,-180.5 336,-210.5 466,-210.5 466,-180.5 336,-180.5"/>
<text text-anchor="start" x="344" y="-198.5" font-family="Helvetica,sans-Serif" font-size="10.00" fill="#000000">ReceiveCoinsDialog</text>
<text text-anchor="middle" x="401" y="-187.5" font-family="Helvetica,sans-Serif" font-size="10.00" fill="#000000">::copyColumnToClipboard</text>
</a>
</g>
</g>
<!-- Node21&#45;&gt;Node22 -->
<g id="edge26" class="edge">
<title>Node21&#45;&gt;Node22</title>
<path fill="none" stroke="#191970" d="M270.8232,-248.4684C280.2073,-245.3085 289.9521,-241.8991 299,-238.5 318.4292,-231.201 339.6188,-222.4074 357.6255,-214.6794"/>
<polygon fill="#191970" stroke="#191970" points="359.4789,-217.6914 367.2704,-210.512 356.7024,-211.2656 359.4789,-217.6914"/>
</g>
<!-- Node22&#45;&gt;Node11 -->
<g id="edge27" class="edge">
<title>Node22&#45;&gt;Node11</title>
<path fill="none" stroke="#191970" d="M414.7906,-210.7848C434.0302,-231.9169 470.2556,-271.0144 503,-302.5 517.7542,-316.687 534.947,-331.8756 548.7754,-343.7841"/>
<polygon fill="#191970" stroke="#191970" points="546.612,-346.5395 556.4847,-350.3844 551.1645,-341.2221 546.612,-346.5395"/>
</g>
<!-- Node22&#45;&gt;Node12 -->
<g id="edge29" class="edge">
<title>Node22&#45;&gt;Node12</title>
<path fill="none" stroke="#191970" d="M440.3577,-180.4368C490.9003,-163.6813 579.9592,-143.0713 646,-176.5 670.1107,-188.7044 665.213,-204.3229 682,-225.5 702.373,-251.201 726.943,-279.6533 743.8443,-298.8612"/>
<polygon fill="#191970" stroke="#191970" points="741.3406,-301.3136 750.5836,-306.4921 746.5874,-296.6798 741.3406,-301.3136"/>
</g>
<!-- Node22&#45;&gt;Node20 -->
<g id="edge28" class="edge">
<title>Node22&#45;&gt;Node20</title>
<path fill="none" stroke="#191970" d="M466.0986,-195.5C480.1808,-195.5 495.0762,-195.5 509.1673,-195.5"/>
<polygon fill="#191970" stroke="#191970" points="509.2627,-199.0001 519.2626,-195.5 509.2626,-192.0001 509.2627,-199.0001"/>
</g>
<!-- Node23 -->
<g id="node24" class="node">
<title>Node23</title>
<g id="a_node24"><a xlink:href="class_recent_requests_table_model.html#ad42929c480fc50cad83114ca5f2cc382" target="_top" xlink:title="RecentRequestsTableModel\l::data">
<polygon fill="#ffffff" stroke="#000000" points="504.5,-98.5 504.5,-128.5 644.5,-128.5 644.5,-98.5 504.5,-98.5"/>
<text text-anchor="start" x="512.5" y="-116.5" font-family="Helvetica,sans-Serif" font-size="10.00" fill="#000000">RecentRequestsTableModel</text>
<text text-anchor="middle" x="574.5" y="-105.5" font-family="Helvetica,sans-Serif" font-size="10.00" fill="#000000">::data</text>
</a>
</g>
</g>
<!-- Node22&#45;&gt;Node23 -->
<g id="edge30" class="edge">
<title>Node22&#45;&gt;Node23</title>
<path fill="none" stroke="#191970" d="M429.3001,-180.359C449.6179,-169.6646 477.7567,-155.2108 503,-143.5 510.9852,-139.7956 519.5561,-136.0262 527.8925,-132.4668"/>
<polygon fill="#191970" stroke="#191970" points="529.311,-135.6671 537.1612,-128.552 526.5873,-129.2187 529.311,-135.6671"/>
</g>
<!-- Node23&#45;&gt;Node15 -->
<g id="edge32" class="edge">
<title>Node23&#45;&gt;Node15</title>
<path fill="none" stroke="#191970" d="M613.1372,-128.6262C623.905,-133.1334 635.5197,-138.2726 646,-143.5 662.5758,-151.7677 665.7507,-155.6079 682,-164.5 699.5457,-174.1016 719.5155,-184.3442 735.3549,-192.3107"/>
<polygon fill="#191970" stroke="#191970" points="734.1158,-195.6044 744.6247,-196.9507 737.2491,-189.3448 734.1158,-195.6044"/>
</g>
<!-- Node24 -->
<g id="node25" class="node">
<title>Node24</title>
<g id="a_node25"><a xlink:href="namespace_g_u_i_util.html#aae732a04fea25190081120bf0cc773e8" target="_top" xlink:title="GUIUtil::dateTimeStr">
<polygon fill="#ffffff" stroke="#000000" points="709.5,-136 709.5,-155 818.5,-155 818.5,-136 709.5,-136"/>
<text text-anchor="middle" x="764" y="-143" font-family="Helvetica,sans-Serif" font-size="10.00" fill="#000000">GUIUtil::dateTimeStr</text>
</a>
</g>
</g>
<!-- Node23&#45;&gt;Node24 -->
<g id="edge31" class="edge">
<title>Node23&#45;&gt;Node24</title>
<path fill="none" stroke="#191970" d="M644.5244,-125.3247C662.4158,-128.3459 681.5719,-131.5807 699.189,-134.5557"/>
<polygon fill="#191970" stroke="#191970" points="698.9194,-138.0596 709.3626,-136.2736 700.085,-131.1573 698.9194,-138.0596"/>
</g>
<!-- Node25 -->
<g id="node26" class="node">
<title>Node25</title>
<g id="a_node26"><a xlink:href="class_wallet_model.html#a96d53e56b3f8f07537ea2523f7a7d300" target="_top" xlink:title="WalletModel::getOptionsModel">
<polygon fill="#ffffff" stroke="#000000" points="689,-60 689,-79 839,-79 839,-60 689,-60"/>
<text text-anchor="middle" x="764" y="-67" font-family="Helvetica,sans-Serif" font-size="10.00" fill="#000000">WalletModel::getOptionsModel</text>
</a>
</g>
</g>
<!-- Node23&#45;&gt;Node25 -->
<g id="edge33" class="edge">
<title>Node23&#45;&gt;Node25</title>
<path fill="none" stroke="#191970" d="M639.0174,-98.487C653.1784,-95.1943 668.0946,-91.7279 682,-88.5 691.9288,-86.1952 702.5344,-83.7359 712.711,-81.3773"/>
<polygon fill="#191970" stroke="#191970" points="713.7518,-84.729 722.7036,-79.0618 712.1716,-77.9096 713.7518,-84.729"/>
</g>
<!-- Node26 -->
<g id="node27" class="node">
<title>Node26</title>
<g id="a_node27"><a xlink:href="class_options_model.html#a00a1f0842f764f64086e7d5d42bbce63" target="_top" xlink:title="OptionsModel::getDisplayUnit">
<polygon fill="#ffffff" stroke="#000000" points="690.5,-98 690.5,-117 837.5,-117 837.5,-98 690.5,-98"/>
<text text-anchor="middle" x="764" y="-105" font-family="Helvetica,sans-Serif" font-size="10.00" fill="#000000">OptionsModel::getDisplayUnit</text>
</a>
</g>
</g>
<!-- Node23&#45;&gt;Node26 -->
<g id="edge34" class="edge">
<title>Node23&#45;&gt;Node26</title>
<path fill="none" stroke="#191970" d="M644.5244,-111.2829C656.2208,-110.9125 668.4578,-110.5251 680.4518,-110.1453"/>
<polygon fill="#191970" stroke="#191970" points="680.5683,-113.6435 690.4525,-109.8287 680.3467,-106.647 680.5683,-113.6435"/>
</g>
<!-- Node27&#45;&gt;Node22 -->
<g id="edge36" class="edge">
<title>Node27&#45;&gt;Node22</title>
<path fill="none" stroke="#191970" d="M276.7559,-208.7994C292.1467,-207.1519 309.2427,-205.3219 325.7062,-203.5596"/>
<polygon fill="#191970" stroke="#191970" points="326.2838,-207.0179 335.8545,-202.4733 325.5387,-200.0576 326.2838,-207.0179"/>
</g>
<!-- Node28&#45;&gt;Node22 -->
<g id="edge38" class="edge">
<title>Node28&#45;&gt;Node22</title>
<path fill="none" stroke="#191970" d="M276.7559,-174.501C292.1467,-177.1023 309.2427,-179.9917 325.7062,-182.7743"/>
<polygon fill="#191970" stroke="#191970" points="325.411,-186.274 335.8545,-184.4895 326.5776,-179.3718 325.411,-186.274"/>
</g>
<!-- Node30 -->
<g id="node31" class="node">
<title>Node30</title>
<g id="a_node31"><a xlink:href="class_bitcoin_amount_field.html#a66fb8e84968302c0a1b1914338ff8001" target="_top" xlink:title="Make field empty and ready for new input. ">
<polygon fill="#ffffff" stroke="#000000" points="524,-.5 524,-30.5 625,-30.5 625,-.5 524,-.5"/>
<text text-anchor="start" x="532" y="-18.5" font-family="Helvetica,sans-Serif" font-size="10.00" fill="#000000">BitcoinAmountField</text>
<text text-anchor="middle" x="574.5" y="-7.5" font-family="Helvetica,sans-Serif" font-size="10.00" fill="#000000">::clear</text>
</a>
</g>
</g>
<!-- Node29&#45;&gt;Node30 -->
<g id="edge40" class="edge">
<title>Node29&#45;&gt;Node30</title>
<path fill="none" stroke="#191970" d="M454.4714,-49.3986C473.3806,-44.0582 494.7763,-38.0156 514.2121,-32.5265"/>
<polygon fill="#191970" stroke="#191970" points="515.2016,-35.8841 523.8739,-29.7979 513.2991,-29.1476 515.2016,-35.8841"/>
</g>
<!-- Node31 -->
<g id="node32" class="node">
<title>Node31</title>
<g id="a_node32"><a xlink:href="class_receive_coins_dialog.html#a19eca7743c5326eee821bb8c0af234bb" target="_top" xlink:title="ReceiveCoinsDialog\l::updateDisplayUnit">
<polygon fill="#ffffff" stroke="#000000" points="521.5,-49.5 521.5,-79.5 627.5,-79.5 627.5,-49.5 521.5,-49.5"/>
<text text-anchor="start" x="529.5" y="-67.5" font-family="Helvetica,sans-Serif" font-size="10.00" fill="#000000">ReceiveCoinsDialog</text>
<text text-anchor="middle" x="574.5" y="-56.5" font-family="Helvetica,sans-Serif" font-size="10.00" fill="#000000">::updateDisplayUnit</text>
</a>
</g>
</g>
<!-- Node29&#45;&gt;Node31 -->
<g id="edge41" class="edge">
<title>Node29&#45;&gt;Node31</title>
<path fill="none" stroke="#191970" d="M454.4714,-64.5C472.3655,-64.5 492.4862,-64.5 511.0657,-64.5"/>
<polygon fill="#191970" stroke="#191970" points="511.2052,-68.0001 521.2051,-64.5 511.2051,-61.0001 511.2052,-68.0001"/>
</g>
<!-- Node31&#45;&gt;Node25 -->
<g id="edge42" class="edge">
<title>Node31&#45;&gt;Node25</title>
<path fill="none" stroke="#191970" d="M627.5383,-65.8994C643.373,-66.3172 661.1495,-66.7863 678.5077,-67.2443"/>
<polygon fill="#191970" stroke="#191970" points="678.5728,-70.7471 688.6617,-67.5122 678.7575,-63.7495 678.5728,-70.7471"/>
</g>
<!-- Node31&#45;&gt;Node26 -->
<g id="edge45" class="edge">
<title>Node31&#45;&gt;Node26</title>
<path fill="none" stroke="#191970" d="M627.5383,-76.5351C654.0439,-82.5495 685.9905,-89.7986 712.308,-95.7704"/>
<polygon fill="#191970" stroke="#191970" points="711.5692,-99.1917 722.0958,-97.9914 713.1182,-92.3652 711.5692,-99.1917"/>
</g>
<!-- Node32 -->
<g id="node33" class="node">
<title>Node32</title>
<g id="a_node33"><a xlink:href="class_bitcoin_amount_field.html#a623534b2ad508278c5fa8f4c7f363804" target="_top" xlink:title="Change unit used to display amount. ">
<polygon fill="#ffffff" stroke="#000000" points="713.5,-10.5 713.5,-40.5 814.5,-40.5 814.5,-10.5 713.5,-10.5"/>
<text text-anchor="start" x="721.5" y="-28.5" font-family="Helvetica,sans-Serif" font-size="10.00" fill="#000000">BitcoinAmountField</text>
<text text-anchor="middle" x="764" y="-17.5" font-family="Helvetica,sans-Serif" font-size="10.00" fill="#000000">::setDisplayUnit</text>
</a>
</g>
</g>
<!-- Node31&#45;&gt;Node32 -->
<g id="edge43" class="edge">
<title>Node31&#45;&gt;Node32</title>
<path fill="none" stroke="#191970" d="M627.5383,-53.5845C651.1158,-48.7321 678.9986,-42.9937 703.3949,-37.9728"/>
<polygon fill="#191970" stroke="#191970" points="704.1706,-41.3866 713.2598,-35.9426 702.7595,-34.5303 704.1706,-41.3866"/>
</g>
<!-- Node33 -->
<g id="node34" class="node">
<title>Node33</title>
<g id="a_node34"><a xlink:href="class_q_value_combo_box.html#af192c68c0c82f33000d8c1be8c013d2d" target="_top" xlink:title="QValueComboBox::setValue">
<polygon fill="#ffffff" stroke="#000000" points="882,-16 882,-35 1024,-35 1024,-16 882,-16"/>
<text text-anchor="middle" x="953" y="-23" font-family="Helvetica,sans-Serif" font-size="10.00" fill="#000000">QValueComboBox::setValue</text>
</a>
</g>
</g>
<!-- Node32&#45;&gt;Node33 -->
<g id="edge44" class="edge">
<title>Node32&#45;&gt;Node33</title>
<path fill="none" stroke="#191970" d="M814.6485,-25.5C832.2469,-25.5 852.4523,-25.5 871.8868,-25.5"/>
<polygon fill="#191970" stroke="#191970" points="871.9617,-29.0001 881.9616,-25.5 871.9616,-22.0001 871.9617,-29.0001"/>
</g>
</g>
</svg>
