<?xml version="1.0" encoding="UTF-8" standalone="no"?>
<!DOCTYPE svg PUBLIC "-//W3C//DTD SVG 1.1//EN"
 "http://www.w3.org/Graphics/SVG/1.1/DTD/svg11.dtd">
<!-- Generated by graphviz version 2.40.1 (20161225.0304)
 -->
<!-- Title: CCryptoKeyStore::Unlock Pages: 1 -->
<svg width="346pt" height="66pt"
 viewBox="0.00 0.00 346.00 66.00" xmlns="http://www.w3.org/2000/svg" xmlns:xlink="http://www.w3.org/1999/xlink">
<g id="graph0" class="graph" transform="scale(1 1) rotate(0) translate(4 62)">
<title>CCryptoKeyStore::Unlock</title>
<polygon fill="#ffffff" stroke="transparent" points="-4,4 -4,-62 342,-62 342,4 -4,4"/>
<!-- Node159 -->
<g id="node1" class="node">
<title>Node159</title>
<polygon fill="#bfbfbf" stroke="#000000" points="0,-19.5 0,-38.5 131,-38.5 131,-19.5 0,-19.5"/>
<text text-anchor="middle" x="65.5" y="-26.5" font-family="Helvetica,sans-Serif" font-size="10.00" fill="#000000">CCryptoKeyStore::Unlock</text>
</g>
<!-- Node160 -->
<g id="node2" class="node">
<title>Node160</title>
<g id="a_node2"><a xlink:href="group__map_wallet.html#ga002c61a2b74f2c46063340c568e6cc1b" target="_top" xlink:title="CWallet::Unlock">
<polygon fill="#ffffff" stroke="#000000" points="208,-38.5 208,-57.5 297,-57.5 297,-38.5 208,-38.5"/>
<text text-anchor="middle" x="252.5" y="-45.5" font-family="Helvetica,sans-Serif" font-size="10.00" fill="#000000">CWallet::Unlock</text>
</a>
</g>
</g>
<!-- Node159&#45;&gt;Node160 -->
<g id="edge1" class="edge">
<title>Node159&#45;&gt;Node160</title>
<path fill="none" stroke="#191970" d="M141.4109,-36.7129C163.9683,-39.0048 187.9426,-41.4407 207.8235,-43.4607"/>
<polygon fill="#191970" stroke="#191970" points="141.4689,-33.2008 131.1663,-35.672 140.7612,-40.165 141.4689,-33.2008"/>
</g>
<!-- Node161 -->
<g id="node3" class="node">
<title>Node161</title>
<g id="a_node3"><a xlink:href="group__map_wallet.html#ga4abcec3066e7c462f4564c159fc15031" target="_top" xlink:title="CWallet::ChangeWalletPassphrase">
<polygon fill="#ffffff" stroke="#000000" points="167,-.5 167,-19.5 338,-19.5 338,-.5 167,-.5"/>
<text text-anchor="middle" x="252.5" y="-7.5" font-family="Helvetica,sans-Serif" font-size="10.00" fill="#000000">CWallet::ChangeWalletPassphrase</text>
</a>
</g>
</g>
<!-- Node159&#45;&gt;Node161 -->
<g id="edge2" class="edge">
<title>Node159&#45;&gt;Node161</title>
<path fill="none" stroke="#191970" d="M141.3426,-21.2941C149.7823,-20.4366 158.4212,-19.5588 166.9705,-18.6902"/>
<polygon fill="#191970" stroke="#191970" points="140.7612,-17.835 131.1663,-22.328 141.4689,-24.7992 140.7612,-17.835"/>
</g>
</g>
</svg>
