<?xml version="1.0" encoding="UTF-8" standalone="no"?>
<!DOCTYPE svg PUBLIC "-//W3C//DTD SVG 1.1//EN"
 "http://www.w3.org/Graphics/SVG/1.1/DTD/svg11.dtd">
<!-- Generated by graphviz version 2.40.1 (20161225.0304)
 -->
<!-- Title: CMedianFilter::size Pages: 1 -->
<svg width="368pt" height="28pt"
 viewBox="0.00 0.00 368.00 28.00" xmlns="http://www.w3.org/2000/svg" xmlns:xlink="http://www.w3.org/1999/xlink">
<g id="graph0" class="graph" transform="scale(1 1) rotate(0) translate(4 24)">
<title>CMedianFilter::size</title>
<polygon fill="#ffffff" stroke="transparent" points="-4,4 -4,-24 364,-24 364,4 -4,4"/>
<!-- Node11 -->
<g id="node1" class="node">
<title>Node11</title>
<polygon fill="#bfbfbf" stroke="#000000" points="0,-.5 0,-19.5 101,-19.5 101,-.5 0,-.5"/>
<text text-anchor="middle" x="50.5" y="-7.5" font-family="Helvetica,sans-Serif" font-size="10.00" fill="#000000">CMedianFilter::size</text>
</g>
<!-- Node12 -->
<g id="node2" class="node">
<title>Node12</title>
<g id="a_node2"><a xlink:href="timedata_8h.html#ad8af089fc8835e11c7d77f6b473fccae" target="_top" xlink:title="AddTimeData">
<polygon fill="#ffffff" stroke="#000000" points="137,-.5 137,-19.5 214,-19.5 214,-.5 137,-.5"/>
<text text-anchor="middle" x="175.5" y="-7.5" font-family="Helvetica,sans-Serif" font-size="10.00" fill="#000000">AddTimeData</text>
</a>
</g>
</g>
<!-- Node11&#45;&gt;Node12 -->
<g id="edge1" class="edge">
<title>Node11&#45;&gt;Node12</title>
<path fill="none" stroke="#191970" d="M111.4781,-10C120.1618,-10 128.8848,-10 136.9759,-10"/>
<polygon fill="#191970" stroke="#191970" points="111.3423,-6.5001 101.3423,-10 111.3423,-13.5001 111.3423,-6.5001"/>
</g>
<!-- Node13 -->
<g id="node3" class="node">
<title>Node13</title>
<g id="a_node3"><a xlink:href="class_c_median_filter.html#a2ec3e6107c12dc2564f0323d39ecca1e" target="_top" xlink:title="CMedianFilter::sorted">
<polygon fill="#ffffff" stroke="#000000" points="250,-.5 250,-19.5 360,-19.5 360,-.5 250,-.5"/>
<text text-anchor="middle" x="305" y="-7.5" font-family="Helvetica,sans-Serif" font-size="10.00" fill="#000000">CMedianFilter::sorted</text>
</a>
</g>
</g>
<!-- Node12&#45;&gt;Node13 -->
<g id="edge2" class="edge">
<title>Node12&#45;&gt;Node13</title>
<path fill="none" stroke="#191970" d="M224.252,-3.4366C232.5353,-3.2397 241.1911,-3.1986 249.6298,-3.3134"/>
<polygon fill="#191970" stroke="#191970" points="223.8848,.0535 214.0036,-3.7692 224.112,-6.9429 223.8848,.0535"/>
</g>
<!-- Node13&#45;&gt;Node12 -->
<g id="edge3" class="edge">
<title>Node13&#45;&gt;Node12</title>
<path fill="none" stroke="#191970" d="M239.4369,-16.7495C230.7295,-16.7394 222.0418,-16.5665 214.0036,-16.2308"/>
<polygon fill="#191970" stroke="#191970" points="239.6517,-20.2484 249.6298,-16.6866 239.6084,-13.2485 239.6517,-20.2484"/>
</g>
</g>
</svg>
