<?xml version="1.0" encoding="UTF-8" standalone="no"?>
<!DOCTYPE svg PUBLIC "-//W3C//DTD SVG 1.1//EN"
 "http://www.w3.org/Graphics/SVG/1.1/DTD/svg11.dtd">
<!-- Generated by graphviz version 2.40.1 (20161225.0304)
 -->
<!-- Title: LockedPoolManager::Instance Pages: 1 -->
<svg width="293pt" height="66pt"
 viewBox="0.00 0.00 293.00 66.00" xmlns="http://www.w3.org/2000/svg" xmlns:xlink="http://www.w3.org/1999/xlink">
<g id="graph0" class="graph" transform="scale(1 1) rotate(0) translate(4 62)">
<title>LockedPoolManager::Instance</title>
<polygon fill="#ffffff" stroke="transparent" points="-4,4 -4,-62 289,-62 289,4 -4,4"/>
<!-- Node9 -->
<g id="node1" class="node">
<title>Node9</title>
<polygon fill="#bfbfbf" stroke="#000000" points="0,-14 0,-44 111,-44 111,-14 0,-14"/>
<text text-anchor="start" x="8" y="-32" font-family="Helvetica,sans-Serif" font-size="10.00" fill="#000000">LockedPoolManager::</text>
<text text-anchor="middle" x="55.5" y="-21" font-family="Helvetica,sans-Serif" font-size="10.00" fill="#000000">Instance</text>
</g>
<!-- Node10 -->
<g id="node2" class="node">
<title>Node10</title>
<g id="a_node2"><a xlink:href="structsecure__allocator.html#aee6c375ead3ab5b477898787308bd2d9" target="_top" xlink:title="secure_allocator::allocate">
<polygon fill="#ffffff" stroke="#000000" points="152,-38.5 152,-57.5 280,-57.5 280,-38.5 152,-38.5"/>
<text text-anchor="middle" x="216" y="-45.5" font-family="Helvetica,sans-Serif" font-size="10.00" fill="#000000">secure_allocator::allocate</text>
</a>
</g>
</g>
<!-- Node9&#45;&gt;Node10 -->
<g id="edge1" class="edge">
<title>Node9&#45;&gt;Node10</title>
<path fill="none" stroke="#191970" d="M121.1878,-36.7761C131.3229,-37.9759 141.7786,-39.2137 151.8787,-40.4093"/>
<polygon fill="#191970" stroke="#191970" points="121.5268,-33.2919 111.1847,-35.592 120.7038,-40.2434 121.5268,-33.2919"/>
</g>
<!-- Node11 -->
<g id="node3" class="node">
<title>Node11</title>
<g id="a_node3"><a xlink:href="structsecure__allocator.html#af86cc49185bd507b8b479e070d744eb0" target="_top" xlink:title="secure_allocator::deallocate">
<polygon fill="#ffffff" stroke="#000000" points="147,-.5 147,-19.5 285,-19.5 285,-.5 147,-.5"/>
<text text-anchor="middle" x="216" y="-7.5" font-family="Helvetica,sans-Serif" font-size="10.00" fill="#000000">secure_allocator::deallocate</text>
</a>
</g>
</g>
<!-- Node9&#45;&gt;Node11 -->
<g id="edge2" class="edge">
<title>Node9&#45;&gt;Node11</title>
<path fill="none" stroke="#191970" d="M121.3167,-21.2086C129.7335,-20.2122 138.3694,-19.1899 146.8373,-18.1875"/>
<polygon fill="#191970" stroke="#191970" points="120.7038,-17.7566 111.1847,-22.408 121.5268,-24.7081 120.7038,-17.7566"/>
</g>
</g>
</svg>
