<?xml version="1.0" encoding="UTF-8" standalone="no"?>
<!DOCTYPE svg PUBLIC "-//W3C//DTD SVG 1.1//EN"
 "http://www.w3.org/Graphics/SVG/1.1/DTD/svg11.dtd">
<!-- Generated by graphviz version 2.40.1 (20161225.0304)
 -->
<!-- Title: CHMAC_SHA256::Write Pages: 1 -->
<svg width="630pt" height="85pt"
 viewBox="0.00 0.00 630.00 85.00" xmlns="http://www.w3.org/2000/svg" xmlns:xlink="http://www.w3.org/1999/xlink">
<g id="graph0" class="graph" transform="scale(1 1) rotate(0) translate(4 81)">
<title>CHMAC_SHA256::Write</title>
<polygon fill="#ffffff" stroke="transparent" points="-4,4 -4,-81 626,-81 626,4 -4,4"/>
<!-- Node15 -->
<g id="node1" class="node">
<title>Node15</title>
<polygon fill="#bfbfbf" stroke="#000000" points="0,-19.5 0,-38.5 125,-38.5 125,-19.5 0,-19.5"/>
<text text-anchor="middle" x="62.5" y="-26.5" font-family="Helvetica,sans-Serif" font-size="10.00" fill="#000000">CHMAC_SHA256::Write</text>
</g>
<!-- Node16 -->
<g id="node2" class="node">
<title>Node16</title>
<g id="a_node2"><a xlink:href="class_c_s_h_a256.html#a9d7de520a562655da85349372820c883" target="_top" xlink:title="CSHA256::Write">
<polygon fill="#ffffff" stroke="#000000" points="338.5,-38.5 338.5,-57.5 428.5,-57.5 428.5,-38.5 338.5,-38.5"/>
<text text-anchor="middle" x="383.5" y="-45.5" font-family="Helvetica,sans-Serif" font-size="10.00" fill="#000000">CSHA256::Write</text>
</a>
</g>
</g>
<!-- Node15&#45;&gt;Node16 -->
<g id="edge1" class="edge">
<title>Node15&#45;&gt;Node16</title>
<path fill="none" stroke="#191970" d="M125.1541,-32.7085C184.0691,-36.1957 271.4277,-41.3664 327.9199,-44.7102"/>
<polygon fill="#191970" stroke="#191970" points="327.9058,-48.2154 338.0952,-45.3125 328.3195,-41.2276 327.9058,-48.2154"/>
</g>
<!-- Node20 -->
<g id="node6" class="node">
<title>Node20</title>
<g id="a_node6"><a xlink:href="class_c_h_m_a_c___s_h_a256.html#a1cc600fd485b79dc52e11b12635c6dbe" target="_top" xlink:title="CHMAC_SHA256::Finalize">
<polygon fill="#ffffff" stroke="#000000" points="161,-.5 161,-19.5 297,-19.5 297,-.5 161,-.5"/>
<text text-anchor="middle" x="229" y="-7.5" font-family="Helvetica,sans-Serif" font-size="10.00" fill="#000000">CHMAC_SHA256::Finalize</text>
</a>
</g>
</g>
<!-- Node15&#45;&gt;Node20 -->
<g id="edge5" class="edge">
<title>Node15&#45;&gt;Node20</title>
<path fill="none" stroke="#191970" d="M125.4465,-21.8169C133.7864,-20.8652 142.4158,-19.8805 150.9713,-18.9042"/>
<polygon fill="#191970" stroke="#191970" points="151.4204,-22.3757 160.9591,-17.7644 150.6267,-15.4209 151.4204,-22.3757"/>
</g>
<!-- Node17 -->
<g id="node3" class="node">
<title>Node17</title>
<g id="a_node3"><a xlink:href="glibc__compat_8cpp.html#a0f46826ab0466591e136db24394923cf" target="_top" xlink:title="memcpy">
<polygon fill="#ffffff" stroke="#000000" points="470,-38.5 470,-57.5 524,-57.5 524,-38.5 470,-38.5"/>
<text text-anchor="middle" x="497" y="-45.5" font-family="Helvetica,sans-Serif" font-size="10.00" fill="#000000">memcpy</text>
</a>
</g>
</g>
<!-- Node16&#45;&gt;Node17 -->
<g id="edge2" class="edge">
<title>Node16&#45;&gt;Node17</title>
<path fill="none" stroke="#191970" d="M428.6843,-48C439.0536,-48 449.9608,-48 459.9406,-48"/>
<polygon fill="#191970" stroke="#191970" points="459.9435,-51.5001 469.9435,-48 459.9435,-44.5001 459.9435,-51.5001"/>
</g>
<!-- Node18 -->
<g id="node4" class="node">
<title>Node18</title>
<g id="a_node4"><a xlink:href="glibc__compat_8cpp.html#a9778d49e9029dd75bc53ecbbf9f5e9a1" target="_top" xlink:title="memmove">
<polygon fill="#ffffff" stroke="#000000" points="560,-57.5 560,-76.5 622,-76.5 622,-57.5 560,-57.5"/>
<text text-anchor="middle" x="591" y="-64.5" font-family="Helvetica,sans-Serif" font-size="10.00" fill="#000000">memmove</text>
</a>
</g>
</g>
<!-- Node17&#45;&gt;Node18 -->
<g id="edge3" class="edge">
<title>Node17&#45;&gt;Node18</title>
<path fill="none" stroke="#191970" d="M524.1887,-53.4956C532.217,-55.1183 541.1892,-56.9319 549.8881,-58.6901"/>
<polygon fill="#191970" stroke="#191970" points="549.4061,-62.1634 559.9013,-60.7141 550.793,-55.3022 549.4061,-62.1634"/>
</g>
<!-- Node19 -->
<g id="node5" class="node">
<title>Node19</title>
<g id="a_node5"><a xlink:href="glibc__compat_8cpp.html#a424ac71631da5ada2976630ff67051d1" target="_top" xlink:title="__chk_fail">
<polygon fill="#ffffff" stroke="#000000" points="560.5,-19.5 560.5,-38.5 621.5,-38.5 621.5,-19.5 560.5,-19.5"/>
<text text-anchor="middle" x="591" y="-26.5" font-family="Helvetica,sans-Serif" font-size="10.00" fill="#000000">__chk_fail</text>
</a>
</g>
</g>
<!-- Node17&#45;&gt;Node19 -->
<g id="edge4" class="edge">
<title>Node17&#45;&gt;Node19</title>
<path fill="none" stroke="#191970" d="M524.1887,-42.5044C532.383,-40.8481 541.5608,-38.993 550.4275,-37.2008"/>
<polygon fill="#191970" stroke="#191970" points="551.1288,-40.6299 560.2371,-35.218 549.7419,-33.7687 551.1288,-40.6299"/>
</g>
<!-- Node20&#45;&gt;Node16 -->
<g id="edge7" class="edge">
<title>Node20&#45;&gt;Node16</title>
<path fill="none" stroke="#191970" d="M267.9869,-19.589C288.283,-24.5809 313.2935,-30.7324 334.8462,-36.0334"/>
<polygon fill="#191970" stroke="#191970" points="334.2469,-39.4902 344.7935,-38.4799 335.9188,-32.6928 334.2469,-39.4902"/>
</g>
<!-- Node21 -->
<g id="node7" class="node">
<title>Node21</title>
<g id="a_node7"><a xlink:href="class_c_s_h_a256.html#a4259230be0caefa590bc324fc12b9b90" target="_top" xlink:title="CSHA256::Finalize">
<polygon fill="#ffffff" stroke="#000000" points="333,-.5 333,-19.5 434,-19.5 434,-.5 333,-.5"/>
<text text-anchor="middle" x="383.5" y="-7.5" font-family="Helvetica,sans-Serif" font-size="10.00" fill="#000000">CSHA256::Finalize</text>
</a>
</g>
</g>
<!-- Node20&#45;&gt;Node21 -->
<g id="edge6" class="edge">
<title>Node20&#45;&gt;Node21</title>
<path fill="none" stroke="#191970" d="M297.2157,-10C305.7212,-10 314.3749,-10 322.7566,-10"/>
<polygon fill="#191970" stroke="#191970" points="322.8174,-13.5001 332.8173,-10 322.8173,-6.5001 322.8174,-13.5001"/>
</g>
</g>
</svg>
