<?xml version="1.0" encoding="UTF-8" standalone="no"?>
<!DOCTYPE svg PUBLIC "-//W3C//DTD SVG 1.1//EN"
 "http://www.w3.org/Graphics/SVG/1.1/DTD/svg11.dtd">
<!-- Generated by graphviz version 2.40.1 (20161225.0304)
 -->
<!-- Title: OpenURIDialog::accept Pages: 1 -->
<svg width="766pt" height="154pt"
 viewBox="0.00 0.00 766.00 153.50" xmlns="http://www.w3.org/2000/svg" xmlns:xlink="http://www.w3.org/1999/xlink">
<g id="graph0" class="graph" transform="scale(1 1) rotate(0) translate(4 149.5)">
<title>OpenURIDialog::accept</title>
<polygon fill="#ffffff" stroke="transparent" points="-4,4 -4,-149.5 762,-149.5 762,4 -4,4"/>
<!-- Node6 -->
<g id="node1" class="node">
<title>Node6</title>
<polygon fill="#bfbfbf" stroke="#000000" points="0,-50 0,-69 121,-69 121,-50 0,-50"/>
<text text-anchor="middle" x="60.5" y="-57" font-family="Helvetica,sans-Serif" font-size="10.00" fill="#000000">OpenURIDialog::accept</text>
</g>
<!-- Node7 -->
<g id="node2" class="node">
<title>Node7</title>
<g id="a_node2"><a xlink:href="namespace_g_u_i_util.html#ad39b3e74aaf6adc45b34b36a0649db45" target="_top" xlink:title="GUIUtil::parseBitcoinURI">
<polygon fill="#ffffff" stroke="#000000" points="157,-88 157,-107 285,-107 285,-88 157,-88"/>
<text text-anchor="middle" x="221" y="-95" font-family="Helvetica,sans-Serif" font-size="10.00" fill="#000000">GUIUtil::parseBitcoinURI</text>
</a>
</g>
</g>
<!-- Node6&#45;&gt;Node7 -->
<g id="edge1" class="edge">
<title>Node6&#45;&gt;Node7</title>
<path fill="none" stroke="#191970" d="M101.0009,-69.089C122.1806,-74.1035 148.3022,-80.2881 170.7604,-85.6053"/>
<polygon fill="#191970" stroke="#191970" points="170.2529,-89.0818 180.7903,-87.9799 171.8657,-82.2701 170.2529,-89.0818"/>
</g>
<!-- Node13 -->
<g id="node8" class="node">
<title>Node13</title>
<g id="a_node8"><a xlink:href="class_open_u_r_i_dialog.html#a38f9f110ae47996eff920171aea9400b" target="_top" xlink:title="OpenURIDialog::getURI">
<polygon fill="#ffffff" stroke="#000000" points="159.5,-50 159.5,-69 282.5,-69 282.5,-50 159.5,-50"/>
<text text-anchor="middle" x="221" y="-57" font-family="Helvetica,sans-Serif" font-size="10.00" fill="#000000">OpenURIDialog::getURI</text>
</a>
</g>
</g>
<!-- Node6&#45;&gt;Node13 -->
<g id="edge7" class="edge">
<title>Node6&#45;&gt;Node13</title>
<path fill="none" stroke="#191970" d="M121.1782,-59.5C130.3701,-59.5 139.927,-59.5 149.3251,-59.5"/>
<polygon fill="#191970" stroke="#191970" points="149.436,-63.0001 159.436,-59.5 149.436,-56.0001 149.436,-63.0001"/>
</g>
<!-- Node14 -->
<g id="node9" class="node">
<title>Node14</title>
<g id="a_node9"><a xlink:href="class_q_validated_line_edit.html#ad9984e2e463cc7fbf28fe334498a1df5" target="_top" xlink:title="QValidatedLineEdit\l::setValid">
<polygon fill="#ffffff" stroke="#000000" points="171,-.5 171,-30.5 271,-30.5 271,-.5 171,-.5"/>
<text text-anchor="start" x="179" y="-18.5" font-family="Helvetica,sans-Serif" font-size="10.00" fill="#000000">QValidatedLineEdit</text>
<text text-anchor="middle" x="221" y="-7.5" font-family="Helvetica,sans-Serif" font-size="10.00" fill="#000000">::setValid</text>
</a>
</g>
</g>
<!-- Node6&#45;&gt;Node14 -->
<g id="edge8" class="edge">
<title>Node6&#45;&gt;Node14</title>
<path fill="none" stroke="#191970" d="M95.3261,-49.9527C114.5205,-44.6906 138.8844,-38.0114 161.0401,-31.9376"/>
<polygon fill="#191970" stroke="#191970" points="161.9882,-35.3069 170.707,-29.2875 160.1374,-28.556 161.9882,-35.3069"/>
</g>
<!-- Node8 -->
<g id="node3" class="node">
<title>Node8</title>
<g id="a_node3"><a xlink:href="class_bitcoin_units.html#a23b5ed29b71bd5039776e8f3a87d668d" target="_top" xlink:title="Parse string to coin amount. ">
<polygon fill="#ffffff" stroke="#000000" points="321,-88 321,-107 421,-107 421,-88 321,-88"/>
<text text-anchor="middle" x="371" y="-95" font-family="Helvetica,sans-Serif" font-size="10.00" fill="#000000">BitcoinUnits::parse</text>
</a>
</g>
</g>
<!-- Node7&#45;&gt;Node8 -->
<g id="edge2" class="edge">
<title>Node7&#45;&gt;Node8</title>
<path fill="none" stroke="#191970" d="M285.0486,-97.5C293.5402,-97.5 302.2232,-97.5 310.6495,-97.5"/>
<polygon fill="#191970" stroke="#191970" points="310.7703,-101.0001 320.7703,-97.5 310.7702,-94.0001 310.7703,-101.0001"/>
</g>
<!-- Node9 -->
<g id="node4" class="node">
<title>Node9</title>
<g id="a_node4"><a xlink:href="class_bitcoin_units.html#a81cbc41480adfb600dad79711d336e5f" target="_top" xlink:title="Is unit ID valid? ">
<polygon fill="#ffffff" stroke="#000000" points="479.5,-126 479.5,-145 575.5,-145 575.5,-126 479.5,-126"/>
<text text-anchor="middle" x="527.5" y="-133" font-family="Helvetica,sans-Serif" font-size="10.00" fill="#000000">BitcoinUnits::valid</text>
</a>
</g>
</g>
<!-- Node8&#45;&gt;Node9 -->
<g id="edge3" class="edge">
<title>Node8&#45;&gt;Node9</title>
<path fill="none" stroke="#191970" d="M410.4916,-107.089C431.1434,-112.1035 456.614,-118.2881 478.5125,-123.6053"/>
<polygon fill="#191970" stroke="#191970" points="477.7489,-127.0215 488.2924,-125.9799 479.4007,-120.2191 477.7489,-127.0215"/>
</g>
<!-- Node10 -->
<g id="node5" class="node">
<title>Node10</title>
<g id="a_node5"><a xlink:href="class_bitcoin_units.html#a3f0fc21634520ea06c684ba0d7e25f2f" target="_top" xlink:title="Number of decimals left. ">
<polygon fill="#ffffff" stroke="#000000" points="470,-88 470,-107 585,-107 585,-88 470,-88"/>
<text text-anchor="middle" x="527.5" y="-95" font-family="Helvetica,sans-Serif" font-size="10.00" fill="#000000">BitcoinUnits::decimals</text>
</a>
</g>
</g>
<!-- Node8&#45;&gt;Node10 -->
<g id="edge4" class="edge">
<title>Node8&#45;&gt;Node10</title>
<path fill="none" stroke="#191970" d="M421.379,-97.5C433.5767,-97.5 446.8138,-97.5 459.6689,-97.5"/>
<polygon fill="#191970" stroke="#191970" points="459.8694,-101.0001 469.8694,-97.5 459.8693,-94.0001 459.8694,-101.0001"/>
</g>
<!-- Node11 -->
<g id="node6" class="node">
<title>Node11</title>
<g id="a_node6"><a xlink:href="class_bitcoin_units.html#a9354c3d913372b03101a23dc9cd18023" target="_top" xlink:title="BitcoinUnits::removeSpaces">
<polygon fill="#ffffff" stroke="#000000" points="457,-50 457,-69 598,-69 598,-50 457,-50"/>
<text text-anchor="middle" x="527.5" y="-57" font-family="Helvetica,sans-Serif" font-size="10.00" fill="#000000">BitcoinUnits::removeSpaces</text>
</a>
</g>
</g>
<!-- Node8&#45;&gt;Node11 -->
<g id="edge5" class="edge">
<title>Node8&#45;&gt;Node11</title>
<path fill="none" stroke="#191970" d="M410.4916,-87.911C431.1434,-82.8965 456.614,-76.7119 478.5125,-71.3947"/>
<polygon fill="#191970" stroke="#191970" points="479.4007,-74.7809 488.2924,-69.0201 477.7489,-67.9785 479.4007,-74.7809"/>
</g>
<!-- Node12 -->
<g id="node7" class="node">
<title>Node12</title>
<g id="a_node7"><a xlink:href="class_bitcoin_units.html#a310bc10d6973f335b5757a341909b7fe" target="_top" xlink:title="Return maximum number of base units (Satoshis) ">
<polygon fill="#ffffff" stroke="#000000" points="634,-50 634,-69 758,-69 758,-50 634,-50"/>
<text text-anchor="middle" x="696" y="-57" font-family="Helvetica,sans-Serif" font-size="10.00" fill="#000000">BitcoinUnits::maxMoney</text>
</a>
</g>
</g>
<!-- Node11&#45;&gt;Node12 -->
<g id="edge6" class="edge">
<title>Node11&#45;&gt;Node12</title>
<path fill="none" stroke="#191970" d="M598.4708,-59.5C606.8473,-59.5 615.4034,-59.5 623.7967,-59.5"/>
<polygon fill="#191970" stroke="#191970" points="623.9308,-63.0001 633.9308,-59.5 623.9307,-56.0001 623.9308,-63.0001"/>
</g>
</g>
</svg>
