<?xml version="1.0" encoding="UTF-8" standalone="no"?>
<!DOCTYPE svg PUBLIC "-//W3C//DTD SVG 1.1//EN"
 "http://www.w3.org/Graphics/SVG/1.1/DTD/svg11.dtd">
<!-- Generated by graphviz version 2.40.1 (20161225.0304)
 -->
<!-- Title: ECC_Start Pages: 1 -->
<svg width="261pt" height="104pt"
 viewBox="0.00 0.00 261.00 104.00" xmlns="http://www.w3.org/2000/svg" xmlns:xlink="http://www.w3.org/1999/xlink">
<g id="graph0" class="graph" transform="scale(1 1) rotate(0) translate(4 100)">
<title>ECC_Start</title>
<polygon fill="#ffffff" stroke="transparent" points="-4,4 -4,-100 257,-100 257,4 -4,4"/>
<!-- Node27 -->
<g id="node1" class="node">
<title>Node27</title>
<polygon fill="#bfbfbf" stroke="#000000" points="0,-38.5 0,-57.5 65,-57.5 65,-38.5 0,-38.5"/>
<text text-anchor="middle" x="32.5" y="-45.5" font-family="Helvetica,sans-Serif" font-size="10.00" fill="#000000">ECC_Start</text>
</g>
<!-- Node28 -->
<g id="node2" class="node">
<title>Node28</title>
<g id="a_node2"><a xlink:href="secp256k1_8h.html#a769d478f352afbb55200e33970533a3c" target="_top" xlink:title="Create a secp256k1 context object. ">
<polygon fill="#ffffff" stroke="#000000" points="110,-76.5 110,-95.5 244,-95.5 244,-76.5 110,-76.5"/>
<text text-anchor="middle" x="177" y="-83.5" font-family="Helvetica,sans-Serif" font-size="10.00" fill="#000000">secp256k1_context_create</text>
</a>
</g>
</g>
<!-- Node27&#45;&gt;Node28 -->
<g id="edge1" class="edge">
<title>Node27&#45;&gt;Node28</title>
<path fill="none" stroke="#191970" d="M65.206,-57.2553C76.5257,-60.4098 89.3051,-63.9168 101,-67 109.6952,-69.2924 118.9684,-71.668 127.9411,-73.931"/>
<polygon fill="#191970" stroke="#191970" points="127.346,-77.3901 137.8971,-76.4277 129.0488,-70.6003 127.346,-77.3901"/>
</g>
<!-- Node29 -->
<g id="node3" class="node">
<title>Node29</title>
<g id="a_node3"><a xlink:href="random_8cpp.html#ada0c29949c4d1ac0cc027d93c4771423" target="_top" xlink:title="Functions to gather random data via the OpenSSL PRNG. ">
<polygon fill="#ffffff" stroke="#000000" points="136.5,-38.5 136.5,-57.5 217.5,-57.5 217.5,-38.5 136.5,-38.5"/>
<text text-anchor="middle" x="177" y="-45.5" font-family="Helvetica,sans-Serif" font-size="10.00" fill="#000000">GetRandBytes</text>
</a>
</g>
</g>
<!-- Node27&#45;&gt;Node29 -->
<g id="edge2" class="edge">
<title>Node27&#45;&gt;Node29</title>
<path fill="none" stroke="#191970" d="M65.2893,-48C83.3114,-48 106.0589,-48 126.3162,-48"/>
<polygon fill="#191970" stroke="#191970" points="126.3356,-51.5001 136.3356,-48 126.3355,-44.5001 126.3356,-51.5001"/>
</g>
<!-- Node30 -->
<g id="node4" class="node">
<title>Node30</title>
<g id="a_node4"><a xlink:href="secp256k1_8h.html#a1b81d70feb6ed24dc902cbbd5ba569e7" target="_top" xlink:title="Updates the context randomization to protect against side&#45;channel leakage. ">
<polygon fill="#ffffff" stroke="#000000" points="101,-.5 101,-19.5 253,-19.5 253,-.5 101,-.5"/>
<text text-anchor="middle" x="177" y="-7.5" font-family="Helvetica,sans-Serif" font-size="10.00" fill="#000000">secp256k1_context_randomize</text>
</a>
</g>
</g>
<!-- Node27&#45;&gt;Node30 -->
<g id="edge3" class="edge">
<title>Node27&#45;&gt;Node30</title>
<path fill="none" stroke="#191970" d="M65.206,-38.7447C76.5257,-35.5902 89.3051,-32.0832 101,-29 109.6952,-26.7076 118.9684,-24.332 127.9411,-22.069"/>
<polygon fill="#191970" stroke="#191970" points="129.0488,-25.3997 137.8971,-19.5723 127.346,-18.6099 129.0488,-25.3997"/>
</g>
</g>
</svg>
