<?xml version="1.0" encoding="UTF-8" standalone="no"?>
<!DOCTYPE svg PUBLIC "-//W3C//DTD SVG 1.1//EN"
 "http://www.w3.org/Graphics/SVG/1.1/DTD/svg11.dtd">
<!-- Generated by graphviz version 2.40.1 (20161225.0304)
 -->
<!-- Title: src/qt/moc_walletview.cpp Pages: 1 -->
<svg width="370pt" height="196pt"
 viewBox="0.00 0.00 370.00 196.00" xmlns="http://www.w3.org/2000/svg" xmlns:xlink="http://www.w3.org/1999/xlink">
<g id="graph0" class="graph" transform="scale(1 1) rotate(0) translate(4 192)">
<title>src/qt/moc_walletview.cpp</title>
<polygon fill="#ffffff" stroke="transparent" points="-4,4 -4,-192 366,-192 366,4 -4,4"/>
<!-- Node0 -->
<g id="node1" class="node">
<title>Node0</title>
<polygon fill="#bfbfbf" stroke="#000000" points="120,-168.5 120,-187.5 253,-187.5 253,-168.5 120,-168.5"/>
<text text-anchor="middle" x="186.5" y="-175.5" font-family="Helvetica,sans-Serif" font-size="10.00" fill="#000000">src/qt/moc_walletview.cpp</text>
</g>
<!-- Node1 -->
<g id="node2" class="node">
<title>Node1</title>
<g id="a_node2"><a xlink:href="walletview_8h.html" target="_top" xlink:title="qt/walletview.h">
<polygon fill="#ffffff" stroke="#000000" points="33.5,-112.5 33.5,-131.5 115.5,-131.5 115.5,-112.5 33.5,-112.5"/>
<text text-anchor="middle" x="74.5" y="-119.5" font-family="Helvetica,sans-Serif" font-size="10.00" fill="#000000">qt/walletview.h</text>
</a>
</g>
</g>
<!-- Node0&#45;&gt;Node1 -->
<g id="edge1" class="edge">
<title>Node0&#45;&gt;Node1</title>
<path fill="none" stroke="#191970" d="M167.2465,-168.3733C149.4288,-159.4644 122.7253,-146.1127 102.5406,-136.0203"/>
<polygon fill="#191970" stroke="#191970" points="104.0118,-132.8428 93.5022,-131.5011 100.8813,-139.1038 104.0118,-132.8428"/>
</g>
<!-- Node5 -->
<g id="node6" class="node">
<title>Node5</title>
<polygon fill="#ffffff" stroke="#bfbfbf" points="134,-112.5 134,-131.5 239,-131.5 239,-112.5 134,-112.5"/>
<text text-anchor="middle" x="186.5" y="-119.5" font-family="Helvetica,sans-Serif" font-size="10.00" fill="#000000">QtCore/qbytearray.h</text>
</g>
<!-- Node0&#45;&gt;Node5 -->
<g id="edge5" class="edge">
<title>Node0&#45;&gt;Node5</title>
<path fill="none" stroke="#191970" d="M186.5,-168.2455C186.5,-160.9382 186.5,-150.6944 186.5,-141.7046"/>
<polygon fill="#191970" stroke="#191970" points="190.0001,-141.6426 186.5,-131.6427 183.0001,-141.6427 190.0001,-141.6426"/>
</g>
<!-- Node6 -->
<g id="node7" class="node">
<title>Node6</title>
<polygon fill="#ffffff" stroke="#bfbfbf" points="257,-112.5 257,-131.5 362,-131.5 362,-112.5 257,-112.5"/>
<text text-anchor="middle" x="309.5" y="-119.5" font-family="Helvetica,sans-Serif" font-size="10.00" fill="#000000">QtCore/qmetatype.h</text>
</g>
<!-- Node0&#45;&gt;Node6 -->
<g id="edge6" class="edge">
<title>Node0&#45;&gt;Node6</title>
<path fill="none" stroke="#191970" d="M207.6445,-168.3733C227.3892,-159.3838 257.0698,-145.8706 279.3055,-135.7471"/>
<polygon fill="#191970" stroke="#191970" points="280.9806,-138.8302 288.6315,-131.5011 278.08,-132.4594 280.9806,-138.8302"/>
</g>
<!-- Node2 -->
<g id="node3" class="node">
<title>Node2</title>
<g id="a_node3"><a xlink:href="amount_8h.html" target="_top" xlink:title="amount.h">
<polygon fill="#ffffff" stroke="#000000" points="0,-56.5 0,-75.5 57,-75.5 57,-56.5 0,-56.5"/>
<text text-anchor="middle" x="28.5" y="-63.5" font-family="Helvetica,sans-Serif" font-size="10.00" fill="#000000">amount.h</text>
</a>
</g>
</g>
<!-- Node1&#45;&gt;Node2 -->
<g id="edge2" class="edge">
<title>Node1&#45;&gt;Node2</title>
<path fill="none" stroke="#191970" d="M66.4874,-112.2455C60.0232,-104.3761 50.7615,-93.101 43.0017,-83.6542"/>
<polygon fill="#191970" stroke="#191970" points="45.4727,-81.1484 36.4208,-75.6427 40.0636,-85.5916 45.4727,-81.1484"/>
</g>
<!-- Node4 -->
<g id="node5" class="node">
<title>Node4</title>
<polygon fill="#ffffff" stroke="#bfbfbf" points="75,-56.5 75,-75.5 166,-75.5 166,-56.5 75,-56.5"/>
<text text-anchor="middle" x="120.5" y="-63.5" font-family="Helvetica,sans-Serif" font-size="10.00" fill="#000000">QStackedWidget</text>
</g>
<!-- Node1&#45;&gt;Node4 -->
<g id="edge4" class="edge">
<title>Node1&#45;&gt;Node4</title>
<path fill="none" stroke="#191970" d="M82.5126,-112.2455C88.9768,-104.3761 98.2385,-93.101 105.9983,-83.6542"/>
<polygon fill="#191970" stroke="#191970" points="108.9364,-85.5916 112.5792,-75.6427 103.5273,-81.1484 108.9364,-85.5916"/>
</g>
<!-- Node3 -->
<g id="node4" class="node">
<title>Node3</title>
<polygon fill="#ffffff" stroke="#bfbfbf" points="4,-.5 4,-19.5 53,-19.5 53,-.5 4,-.5"/>
<text text-anchor="middle" x="28.5" y="-7.5" font-family="Helvetica,sans-Serif" font-size="10.00" fill="#000000">stdint.h</text>
</g>
<!-- Node2&#45;&gt;Node3 -->
<g id="edge3" class="edge">
<title>Node2&#45;&gt;Node3</title>
<path fill="none" stroke="#191970" d="M28.5,-56.2455C28.5,-48.9382 28.5,-38.6944 28.5,-29.7046"/>
<polygon fill="#191970" stroke="#191970" points="32.0001,-29.6426 28.5,-19.6427 25.0001,-29.6427 32.0001,-29.6426"/>
</g>
</g>
</svg>
