<?xml version="1.0" encoding="UTF-8" standalone="no"?>
<!DOCTYPE svg PUBLIC "-//W3C//DTD SVG 1.1//EN"
 "http://www.w3.org/Graphics/SVG/1.1/DTD/svg11.dtd">
<!-- Generated by graphviz version 2.40.1 (20161225.0304)
 -->
<!-- Title: src/qt/platformstyle.cpp Pages: 1 -->
<svg width="551pt" height="140pt"
 viewBox="0.00 0.00 551.00 140.00" xmlns="http://www.w3.org/2000/svg" xmlns:xlink="http://www.w3.org/1999/xlink">
<g id="graph0" class="graph" transform="scale(1 1) rotate(0) translate(4 136)">
<title>src/qt/platformstyle.cpp</title>
<polygon fill="#ffffff" stroke="transparent" points="-4,4 -4,-136 547,-136 547,4 -4,4"/>
<!-- Node0 -->
<g id="node1" class="node">
<title>Node0</title>
<polygon fill="#bfbfbf" stroke="#000000" points="279,-112.5 279,-131.5 398,-131.5 398,-112.5 279,-112.5"/>
<text text-anchor="middle" x="338.5" y="-119.5" font-family="Helvetica,sans-Serif" font-size="10.00" fill="#000000">src/qt/platformstyle.cpp</text>
</g>
<!-- Node1 -->
<g id="node2" class="node">
<title>Node1</title>
<g id="a_node2"><a xlink:href="platformstyle_8h.html" target="_top" xlink:title="qt/platformstyle.h">
<polygon fill="#ffffff" stroke="#000000" points="43.5,-56.5 43.5,-75.5 135.5,-75.5 135.5,-56.5 43.5,-56.5"/>
<text text-anchor="middle" x="89.5" y="-63.5" font-family="Helvetica,sans-Serif" font-size="10.00" fill="#000000">qt/platformstyle.h</text>
</a>
</g>
</g>
<!-- Node0&#45;&gt;Node1 -->
<g id="edge1" class="edge">
<title>Node0&#45;&gt;Node1</title>
<path fill="none" stroke="#191970" d="M295.9783,-112.4369C253.3639,-102.8529 187.6824,-88.0812 141.879,-77.78"/>
<polygon fill="#191970" stroke="#191970" points="142.3706,-74.3032 131.8463,-75.5237 140.8346,-81.1326 142.3706,-74.3032"/>
</g>
<!-- Node5 -->
<g id="node6" class="node">
<title>Node5</title>
<g id="a_node6"><a xlink:href="guiconstants_8h.html" target="_top" xlink:title="qt/guiconstants.h">
<polygon fill="#ffffff" stroke="#000000" points="153.5,-56.5 153.5,-75.5 245.5,-75.5 245.5,-56.5 153.5,-56.5"/>
<text text-anchor="middle" x="199.5" y="-63.5" font-family="Helvetica,sans-Serif" font-size="10.00" fill="#000000">qt/guiconstants.h</text>
</a>
</g>
</g>
<!-- Node0&#45;&gt;Node5 -->
<g id="edge5" class="edge">
<title>Node0&#45;&gt;Node5</title>
<path fill="none" stroke="#191970" d="M314.605,-112.3733C291.9918,-103.2629 257.8458,-89.5062 232.6127,-79.3404"/>
<polygon fill="#191970" stroke="#191970" points="233.6666,-75.9917 223.0831,-75.5011 231.0507,-82.4845 233.6666,-75.9917"/>
</g>
<!-- Node6 -->
<g id="node7" class="node">
<title>Node6</title>
<polygon fill="#ffffff" stroke="#bfbfbf" points="263.5,-56.5 263.5,-75.5 335.5,-75.5 335.5,-56.5 263.5,-56.5"/>
<text text-anchor="middle" x="299.5" y="-63.5" font-family="Helvetica,sans-Serif" font-size="10.00" fill="#000000">QApplication</text>
</g>
<!-- Node0&#45;&gt;Node6 -->
<g id="edge6" class="edge">
<title>Node0&#45;&gt;Node6</title>
<path fill="none" stroke="#191970" d="M331.7067,-112.2455C326.2822,-104.4564 318.5339,-93.3308 311.9967,-83.9439"/>
<polygon fill="#191970" stroke="#191970" points="314.8025,-81.8485 306.2154,-75.6427 309.0583,-85.849 314.8025,-81.8485"/>
</g>
<!-- Node7 -->
<g id="node8" class="node">
<title>Node7</title>
<polygon fill="#ffffff" stroke="#bfbfbf" points="354,-56.5 354,-75.5 401,-75.5 401,-56.5 354,-56.5"/>
<text text-anchor="middle" x="377.5" y="-63.5" font-family="Helvetica,sans-Serif" font-size="10.00" fill="#000000">QColor</text>
</g>
<!-- Node0&#45;&gt;Node7 -->
<g id="edge7" class="edge">
<title>Node0&#45;&gt;Node7</title>
<path fill="none" stroke="#191970" d="M345.2933,-112.2455C350.7178,-104.4564 358.4661,-93.3308 365.0033,-83.9439"/>
<polygon fill="#191970" stroke="#191970" points="367.9417,-85.849 370.7846,-75.6427 362.1975,-81.8485 367.9417,-85.849"/>
</g>
<!-- Node8 -->
<g id="node9" class="node">
<title>Node8</title>
<polygon fill="#ffffff" stroke="#bfbfbf" points="419,-56.5 419,-75.5 470,-75.5 470,-56.5 419,-56.5"/>
<text text-anchor="middle" x="444.5" y="-63.5" font-family="Helvetica,sans-Serif" font-size="10.00" fill="#000000">QImage</text>
</g>
<!-- Node0&#45;&gt;Node8 -->
<g id="edge8" class="edge">
<title>Node0&#45;&gt;Node8</title>
<path fill="none" stroke="#191970" d="M356.9638,-112.2455C373.6074,-103.4527 398.2993,-90.4079 417.2192,-80.4125"/>
<polygon fill="#191970" stroke="#191970" points="419.0408,-83.4086 426.2478,-75.6427 415.7709,-77.2193 419.0408,-83.4086"/>
</g>
<!-- Node9 -->
<g id="node10" class="node">
<title>Node9</title>
<polygon fill="#ffffff" stroke="#bfbfbf" points="488,-56.5 488,-75.5 543,-75.5 543,-56.5 488,-56.5"/>
<text text-anchor="middle" x="515.5" y="-63.5" font-family="Helvetica,sans-Serif" font-size="10.00" fill="#000000">QPalette</text>
</g>
<!-- Node0&#45;&gt;Node9 -->
<g id="edge9" class="edge">
<title>Node0&#45;&gt;Node9</title>
<path fill="none" stroke="#191970" d="M368.9274,-112.3733C399.2038,-102.7943 445.7152,-88.0788 478.1992,-77.8014"/>
<polygon fill="#191970" stroke="#191970" points="479.3182,-81.1184 487.7966,-74.7649 477.2066,-74.4445 479.3182,-81.1184"/>
</g>
<!-- Node2 -->
<g id="node3" class="node">
<title>Node2</title>
<polygon fill="#ffffff" stroke="#bfbfbf" points="0,-.5 0,-19.5 43,-19.5 43,-.5 0,-.5"/>
<text text-anchor="middle" x="21.5" y="-7.5" font-family="Helvetica,sans-Serif" font-size="10.00" fill="#000000">QIcon</text>
</g>
<!-- Node1&#45;&gt;Node2 -->
<g id="edge2" class="edge">
<title>Node1&#45;&gt;Node2</title>
<path fill="none" stroke="#191970" d="M77.6553,-56.2455C67.612,-47.9746 53.0005,-35.9416 41.1996,-26.2232"/>
<polygon fill="#191970" stroke="#191970" points="43.1533,-23.298 33.209,-19.6427 38.7033,-28.7015 43.1533,-23.298"/>
</g>
<!-- Node3 -->
<g id="node4" class="node">
<title>Node3</title>
<polygon fill="#ffffff" stroke="#bfbfbf" points="61,-.5 61,-19.5 118,-19.5 118,-.5 61,-.5"/>
<text text-anchor="middle" x="89.5" y="-7.5" font-family="Helvetica,sans-Serif" font-size="10.00" fill="#000000">QPixmap</text>
</g>
<!-- Node1&#45;&gt;Node3 -->
<g id="edge3" class="edge">
<title>Node1&#45;&gt;Node3</title>
<path fill="none" stroke="#191970" d="M89.5,-56.2455C89.5,-48.9382 89.5,-38.6944 89.5,-29.7046"/>
<polygon fill="#191970" stroke="#191970" points="93.0001,-29.6426 89.5,-19.6427 86.0001,-29.6427 93.0001,-29.6426"/>
</g>
<!-- Node4 -->
<g id="node5" class="node">
<title>Node4</title>
<polygon fill="#ffffff" stroke="#bfbfbf" points="136.5,-.5 136.5,-19.5 186.5,-19.5 186.5,-.5 136.5,-.5"/>
<text text-anchor="middle" x="161.5" y="-7.5" font-family="Helvetica,sans-Serif" font-size="10.00" fill="#000000">QString</text>
</g>
<!-- Node1&#45;&gt;Node4 -->
<g id="edge4" class="edge">
<title>Node1&#45;&gt;Node4</title>
<path fill="none" stroke="#191970" d="M102.0414,-56.2455C112.7787,-47.8943 128.4473,-35.7076 141.0047,-25.9408"/>
<polygon fill="#191970" stroke="#191970" points="143.3575,-28.5449 149.1023,-19.6427 139.0599,-23.0194 143.3575,-28.5449"/>
</g>
</g>
</svg>
