<?xml version="1.0" encoding="UTF-8" standalone="no"?>
<!DOCTYPE svg PUBLIC "-//W3C//DTD SVG 1.1//EN"
 "http://www.w3.org/Graphics/SVG/1.1/DTD/svg11.dtd">
<!-- Generated by graphviz version 2.40.1 (20161225.0304)
 -->
<!-- Title: src/prevector.h Pages: 1 -->
<svg width="3209pt" height="364pt"
 viewBox="0.00 0.00 3208.98 364.00" xmlns="http://www.w3.org/2000/svg" xmlns:xlink="http://www.w3.org/1999/xlink">
<g id="graph0" class="graph" transform="scale(1 1) rotate(0) translate(4 360)">
<title>src/prevector.h</title>
<polygon fill="#ffffff" stroke="transparent" points="-4,4 -4,-360 3204.9807,-360 3204.9807,4 -4,4"/>
<!-- Node23 -->
<g id="node1" class="node">
<title>Node23</title>
<polygon fill="#bfbfbf" stroke="#000000" points="2245.4807,-336.5 2245.4807,-355.5 2327.4807,-355.5 2327.4807,-336.5 2245.4807,-336.5"/>
<text text-anchor="middle" x="2286.4807" y="-343.5" font-family="Helvetica,sans-Serif" font-size="10.00" fill="#000000">src/prevector.h</text>
</g>
<!-- Node24 -->
<g id="node2" class="node">
<title>Node24</title>
<g id="a_node2"><a xlink:href="checkqueue_8cpp.html" target="_top" xlink:title="src/bench/checkqueue.cpp">
<polygon fill="#ffffff" stroke="#000000" points="1984.4807,-280.5 1984.4807,-299.5 2118.4807,-299.5 2118.4807,-280.5 1984.4807,-280.5"/>
<text text-anchor="middle" x="2051.4807" y="-287.5" font-family="Helvetica,sans-Serif" font-size="10.00" fill="#000000">src/bench/checkqueue.cpp</text>
</a>
</g>
</g>
<!-- Node23&#45;&gt;Node24 -->
<g id="edge1" class="edge">
<title>Node23&#45;&gt;Node24</title>
<path fill="none" stroke="#191970" d="M2236.5955,-334.1125C2193.3286,-323.8021 2131.5203,-309.0733 2091.4461,-299.5237"/>
<polygon fill="#191970" stroke="#191970" points="2235.8108,-337.5234 2246.3498,-336.4369 2237.4335,-330.7141 2235.8108,-337.5234"/>
</g>
<!-- Node25 -->
<g id="node3" class="node">
<title>Node25</title>
<g id="a_node3"><a xlink:href="prevector_8cpp.html" target="_top" xlink:title="src/bench/prevector.cpp">
<polygon fill="#ffffff" stroke="#000000" points="2136.4807,-280.5 2136.4807,-299.5 2258.4807,-299.5 2258.4807,-280.5 2136.4807,-280.5"/>
<text text-anchor="middle" x="2197.4807" y="-287.5" font-family="Helvetica,sans-Serif" font-size="10.00" fill="#000000">src/bench/prevector.cpp</text>
</a>
</g>
</g>
<!-- Node23&#45;&gt;Node25 -->
<g id="edge2" class="edge">
<title>Node23&#45;&gt;Node25</title>
<path fill="none" stroke="#191970" d="M2262.2742,-330.769C2246.5032,-320.8456 2226.4047,-308.1994 2212.8056,-299.6427"/>
<polygon fill="#191970" stroke="#191970" points="2260.6502,-333.8823 2270.9781,-336.2455 2264.3781,-327.9575 2260.6502,-333.8823"/>
</g>
<!-- Node26 -->
<g id="node4" class="node">
<title>Node26</title>
<g id="a_node4"><a xlink:href="hash_8h.html" target="_top" xlink:title="src/hash.h">
<polygon fill="#ffffff" stroke="#000000" points="2327.4807,-224.5 2327.4807,-243.5 2389.4807,-243.5 2389.4807,-224.5 2327.4807,-224.5"/>
<text text-anchor="middle" x="2358.4807" y="-231.5" font-family="Helvetica,sans-Serif" font-size="10.00" fill="#000000">src/hash.h</text>
</a>
</g>
</g>
<!-- Node23&#45;&gt;Node26 -->
<g id="edge3" class="edge">
<title>Node23&#45;&gt;Node26</title>
<path fill="none" stroke="#191970" d="M2298.1211,-327.8927C2313.59,-303.8299 2340.3615,-262.1853 2352.3575,-243.5249"/>
<polygon fill="#191970" stroke="#191970" points="2295.0829,-326.1465 2292.6194,-336.4509 2300.9711,-329.9318 2295.0829,-326.1465"/>
</g>
<!-- Node181 -->
<g id="node31" class="node">
<title>Node181</title>
<g id="a_node31"><a xlink:href="script_8h.html" target="_top" xlink:title="src/script/script.h">
<polygon fill="#ffffff" stroke="#000000" points="951.4807,-224.5 951.4807,-243.5 1043.4807,-243.5 1043.4807,-224.5 951.4807,-224.5"/>
<text text-anchor="middle" x="997.4807" y="-231.5" font-family="Helvetica,sans-Serif" font-size="10.00" fill="#000000">src/script/script.h</text>
</a>
</g>
</g>
<!-- Node23&#45;&gt;Node181 -->
<g id="edge40" class="edge">
<title>Node23&#45;&gt;Node181</title>
<path fill="none" stroke="#191970" d="M2286.5833,-326.0471C2285.4847,-310.8501 2281.2562,-290.7654 2267.4807,-280 2255.1759,-270.384 1270.4759,-241.7745 1043.6967,-235.3086"/>
<polygon fill="#191970" stroke="#191970" points="2283.0991,-326.5984 2286.9196,-336.4804 2290.0955,-326.3728 2283.0991,-326.5984"/>
</g>
<!-- Node227 -->
<g id="node44" class="node">
<title>Node227</title>
<g id="a_node44"><a xlink:href="serialize_8h.html" target="_top" xlink:title="src/serialize.h">
<polygon fill="#ffffff" stroke="#ff0000" points="2352.9807,-280.5 2352.9807,-299.5 2429.9807,-299.5 2429.9807,-280.5 2352.9807,-280.5"/>
<text text-anchor="middle" x="2391.4807" y="-287.5" font-family="Helvetica,sans-Serif" font-size="10.00" fill="#000000">src/serialize.h</text>
</a>
</g>
</g>
<!-- Node23&#45;&gt;Node227 -->
<g id="edge76" class="edge">
<title>Node23&#45;&gt;Node227</title>
<path fill="none" stroke="#191970" d="M2313.7432,-331.46C2332.5329,-321.4388 2356.982,-308.3993 2373.4007,-299.6427"/>
<polygon fill="#191970" stroke="#191970" points="2311.9468,-328.4514 2304.7703,-336.2455 2315.2409,-334.6278 2311.9468,-328.4514"/>
</g>
<!-- Node27 -->
<g id="node5" class="node">
<title>Node27</title>
<g id="a_node5"><a xlink:href="addrdb_8cpp.html" target="_top" xlink:title="src/addrdb.cpp">
<polygon fill="#ffffff" stroke="#000000" points="3119.9807,-168.5 3119.9807,-187.5 3200.9807,-187.5 3200.9807,-168.5 3119.9807,-168.5"/>
<text text-anchor="middle" x="3160.4807" y="-175.5" font-family="Helvetica,sans-Serif" font-size="10.00" fill="#000000">src/addrdb.cpp</text>
</a>
</g>
</g>
<!-- Node26&#45;&gt;Node27 -->
<g id="edge4" class="edge">
<title>Node26&#45;&gt;Node27</title>
<path fill="none" stroke="#191970" d="M2399.4843,-230.6138C2424.8295,-228.5723 2458.0323,-225.9907 2487.4807,-224 2764.6426,-205.2641 2836.0113,-223.8664 3111.4807,-188 3114.2358,-187.6413 3117.0677,-187.216 3119.9142,-186.7464"/>
<polygon fill="#191970" stroke="#191970" points="2399.1708,-227.1276 2389.4861,-231.4239 2399.7361,-234.1048 2399.1708,-227.1276"/>
</g>
<!-- Node28 -->
<g id="node6" class="node">
<title>Node28</title>
<g id="a_node6"><a xlink:href="addrman_8cpp.html" target="_top" xlink:title="src/addrman.cpp">
<polygon fill="#ffffff" stroke="#000000" points="2688.9807,-168.5 2688.9807,-187.5 2777.9807,-187.5 2777.9807,-168.5 2688.9807,-168.5"/>
<text text-anchor="middle" x="2733.4807" y="-175.5" font-family="Helvetica,sans-Serif" font-size="10.00" fill="#000000">src/addrman.cpp</text>
</a>
</g>
</g>
<!-- Node26&#45;&gt;Node28 -->
<g id="edge5" class="edge">
<title>Node26&#45;&gt;Node28</title>
<path fill="none" stroke="#191970" d="M2399.8257,-228.2951C2460.2301,-219.8892 2576.1191,-203.4928 2674.4807,-188 2679.0989,-187.2726 2683.9165,-186.4919 2688.7208,-185.6992"/>
<polygon fill="#191970" stroke="#191970" points="2399.3368,-224.8293 2389.9135,-229.672 2400.3,-231.7628 2399.3368,-224.8293"/>
</g>
<!-- Node29 -->
<g id="node7" class="node">
<title>Node29</title>
<g id="a_node7"><a xlink:href="base58_8cpp.html" target="_top" xlink:title="src/base58.cpp">
<polygon fill="#ffffff" stroke="#000000" points="2246.9807,-168.5 2246.9807,-187.5 2329.9807,-187.5 2329.9807,-168.5 2246.9807,-168.5"/>
<text text-anchor="middle" x="2288.4807" y="-175.5" font-family="Helvetica,sans-Serif" font-size="10.00" fill="#000000">src/base58.cpp</text>
</a>
</g>
</g>
<!-- Node26&#45;&gt;Node29 -->
<g id="edge6" class="edge">
<title>Node26&#45;&gt;Node29</title>
<path fill="none" stroke="#191970" d="M2338.3907,-217.928C2326.1553,-208.1397 2310.93,-195.9595 2300.534,-187.6427"/>
<polygon fill="#191970" stroke="#191970" points="2336.2925,-220.7316 2346.2876,-224.2455 2340.6654,-215.2655 2336.2925,-220.7316"/>
</g>
<!-- Node30 -->
<g id="node8" class="node">
<title>Node30</title>
<g id="a_node8"><a xlink:href="blockencodings_8cpp.html" target="_top" xlink:title="src/blockencodings.cpp">
<polygon fill="#ffffff" stroke="#000000" points="1929.9807,-168.5 1929.9807,-187.5 2048.9807,-187.5 2048.9807,-168.5 1929.9807,-168.5"/>
<text text-anchor="middle" x="1989.4807" y="-175.5" font-family="Helvetica,sans-Serif" font-size="10.00" fill="#000000">src/blockencodings.cpp</text>
</a>
</g>
</g>
<!-- Node26&#45;&gt;Node30 -->
<g id="edge7" class="edge">
<title>Node26&#45;&gt;Node30</title>
<path fill="none" stroke="#191970" d="M2317.4235,-227.7691C2252.2025,-217.8711 2124.6126,-198.5078 2049.2468,-187.0702"/>
<polygon fill="#191970" stroke="#191970" points="2316.926,-231.2336 2327.338,-229.2737 2317.9764,-224.3128 2316.926,-231.2336"/>
</g>
<!-- Node31 -->
<g id="node9" class="node">
<title>Node31</title>
<g id="a_node9"><a xlink:href="bloom_8cpp.html" target="_top" xlink:title="src/bloom.cpp">
<polygon fill="#ffffff" stroke="#000000" points="1463.4807,-112.5 1463.4807,-131.5 1541.4807,-131.5 1541.4807,-112.5 1463.4807,-112.5"/>
<text text-anchor="middle" x="1502.4807" y="-119.5" font-family="Helvetica,sans-Serif" font-size="10.00" fill="#000000">src/bloom.cpp</text>
</a>
</g>
</g>
<!-- Node26&#45;&gt;Node31 -->
<g id="edge8" class="edge">
<title>Node26&#45;&gt;Node31</title>
<path fill="none" stroke="#191970" d="M2316.9243,-233.3427C2149.0888,-230.4888 1528.8617,-217.9434 1500.4807,-188 1486.1281,-172.8574 1493.194,-145.8871 1498.4782,-131.5603"/>
<polygon fill="#191970" stroke="#191970" points="2317.0308,-236.8449 2327.0881,-233.513 2317.1482,-229.8458 2317.0308,-236.8449"/>
</g>
<!-- Node32 -->
<g id="node10" class="node">
<title>Node32</title>
<g id="a_node10"><a xlink:href="coins_8h.html" target="_top" xlink:title="src/coins.h">
<polygon fill="#ffffff" stroke="#ff0000" points="1673.9807,-56.5 1673.9807,-75.5 1738.9807,-75.5 1738.9807,-56.5 1673.9807,-56.5"/>
<text text-anchor="middle" x="1706.4807" y="-63.5" font-family="Helvetica,sans-Serif" font-size="10.00" fill="#000000">src/coins.h</text>
</a>
</g>
</g>
<!-- Node26&#45;&gt;Node32 -->
<g id="edge9" class="edge">
<title>Node26&#45;&gt;Node32</title>
<path fill="none" stroke="#191970" d="M2357.5711,-214.0871C2355.8771,-199.5548 2351.3429,-180.3208 2339.4807,-168 2311.894,-139.3469 2208.4445,-119.9905 2169.4807,-112 1987.6842,-74.7182 1937.0323,-103.3623 1753.4807,-76 1748.7775,-75.2989 1743.8386,-74.4142 1739.0022,-73.4625"/>
<polygon fill="#191970" stroke="#191970" points="2354.0856,-214.4089 2358.3872,-224.0911 2361.0624,-213.8396 2354.0856,-214.4089"/>
</g>
<!-- Node38 -->
<g id="node12" class="node">
<title>Node38</title>
<g id="a_node12"><a xlink:href="miner_8cpp.html" target="_top" xlink:title="src/miner.cpp">
<polygon fill="#ffffff" stroke="#000000" points="1850.4807,-.5 1850.4807,-19.5 1926.4807,-19.5 1926.4807,-.5 1850.4807,-.5"/>
<text text-anchor="middle" x="1888.4807" y="-7.5" font-family="Helvetica,sans-Serif" font-size="10.00" fill="#000000">src/miner.cpp</text>
</a>
</g>
</g>
<!-- Node26&#45;&gt;Node38 -->
<g id="edge16" class="edge">
<title>Node26&#45;&gt;Node38</title>
<path fill="none" stroke="#191970" d="M2399.9764,-229.1062C2466.426,-220.8496 2590.5945,-203.5308 2603.4807,-188 2609.1566,-181.1592 2606.6488,-176.3051 2603.4807,-168 2539.3574,.097 2392.32,-83.2319 2214.4807,-56 2110.5219,-40.0812 1987.5918,-23.282 1926.6669,-15.0917"/>
<polygon fill="#191970" stroke="#191970" points="2399.3319,-225.659 2389.8331,-230.3519 2400.1852,-232.6068 2399.3319,-225.659"/>
</g>
<!-- Node89 -->
<g id="node14" class="node">
<title>Node89</title>
<g id="a_node14"><a xlink:href="compressor_8cpp.html" target="_top" xlink:title="src/compressor.cpp">
<polygon fill="#ffffff" stroke="#000000" points="1165.9807,-56.5 1165.9807,-75.5 1268.9807,-75.5 1268.9807,-56.5 1165.9807,-56.5"/>
<text text-anchor="middle" x="1217.4807" y="-63.5" font-family="Helvetica,sans-Serif" font-size="10.00" fill="#000000">src/compressor.cpp</text>
</a>
</g>
</g>
<!-- Node26&#45;&gt;Node89 -->
<g id="edge13" class="edge">
<title>Node26&#45;&gt;Node89</title>
<path fill="none" stroke="#191970" d="M2316.9453,-232.7262C2166.5676,-227.971 1650.8379,-210.3776 1487.4807,-188 1483.9419,-187.5152 1239.0819,-134.4477 1236.4807,-132 1220.6765,-117.1284 1217.7407,-90.0438 1217.364,-75.6282"/>
<polygon fill="#191970" stroke="#191970" points="2317.0262,-236.2303 2327.1312,-233.0462 2317.2461,-229.2338 2317.0262,-236.2303"/>
</g>
<!-- Node90 -->
<g id="node15" class="node">
<title>Node90</title>
<g id="a_node15"><a xlink:href="hash_8cpp.html" target="_top" xlink:title="src/hash.cpp">
<polygon fill="#ffffff" stroke="#000000" points="2155.9807,-168.5 2155.9807,-187.5 2228.9807,-187.5 2228.9807,-168.5 2155.9807,-168.5"/>
<text text-anchor="middle" x="2192.4807" y="-175.5" font-family="Helvetica,sans-Serif" font-size="10.00" fill="#000000">src/hash.cpp</text>
</a>
</g>
</g>
<!-- Node26&#45;&gt;Node90 -->
<g id="edge14" class="edge">
<title>Node26&#45;&gt;Node90</title>
<path fill="none" stroke="#191970" d="M2320.114,-221.057C2289.7341,-210.8084 2247.9988,-196.729 2220.6447,-187.5011"/>
<polygon fill="#191970" stroke="#191970" points="2319.3501,-224.4931 2329.9443,-224.3733 2321.5877,-217.8603 2319.3501,-224.4931"/>
</g>
<!-- Node91 -->
<g id="node16" class="node">
<title>Node91</title>
<g id="a_node16"><a xlink:href="merkleblock_8cpp.html" target="_top" xlink:title="src/merkleblock.cpp">
<polygon fill="#ffffff" stroke="#000000" points="2285.4807,-112.5 2285.4807,-131.5 2389.4807,-131.5 2389.4807,-112.5 2285.4807,-112.5"/>
<text text-anchor="middle" x="2337.4807" y="-119.5" font-family="Helvetica,sans-Serif" font-size="10.00" fill="#000000">src/merkleblock.cpp</text>
</a>
</g>
</g>
<!-- Node26&#45;&gt;Node91 -->
<g id="edge15" class="edge">
<title>Node26&#45;&gt;Node91</title>
<path fill="none" stroke="#191970" d="M2367.8546,-214.8751C2373.1165,-201.5274 2377.6781,-183.4142 2372.4807,-168 2367.6713,-153.7366 2356.4816,-140.3952 2348.0397,-131.7924"/>
<polygon fill="#191970" stroke="#191970" points="2364.4807,-213.8527 2363.6575,-224.4155 2370.8881,-216.6715 2364.4807,-213.8527"/>
</g>
<!-- Node92 -->
<g id="node17" class="node">
<title>Node92</title>
<g id="a_node17"><a xlink:href="net_8h.html" target="_top" xlink:title="src/net.h">
<polygon fill="#ffffff" stroke="#ff0000" points="3046.9807,-168.5 3046.9807,-187.5 3101.9807,-187.5 3101.9807,-168.5 3046.9807,-168.5"/>
<text text-anchor="middle" x="3074.4807" y="-175.5" font-family="Helvetica,sans-Serif" font-size="10.00" fill="#000000">src/net.h</text>
</a>
</g>
</g>
<!-- Node26&#45;&gt;Node92 -->
<g id="edge17" class="edge">
<title>Node26&#45;&gt;Node92</title>
<path fill="none" stroke="#191970" d="M2399.4899,-230.6947C2424.8372,-228.6831 2458.0402,-226.1045 2487.4807,-224 2731.8247,-206.5332 2795.8267,-228.1549 3037.4807,-188 3040.5002,-187.4983 3043.6292,-186.854 3046.7308,-186.1345"/>
<polygon fill="#191970" stroke="#191970" points="2399.1813,-227.2081 2389.4908,-231.4912 2399.7372,-234.186 2399.1813,-227.2081"/>
</g>
<!-- Node56 -->
<g id="node19" class="node">
<title>Node56</title>
<g id="a_node19"><a xlink:href="net__processing_8cpp.html" target="_top" xlink:title="src/net_processing.cpp">
<polygon fill="#ffffff" stroke="#000000" points="2407.4807,-112.5 2407.4807,-131.5 2525.4807,-131.5 2525.4807,-112.5 2407.4807,-112.5"/>
<text text-anchor="middle" x="2466.4807" y="-119.5" font-family="Helvetica,sans-Serif" font-size="10.00" fill="#000000">src/net_processing.cpp</text>
</a>
</g>
</g>
<!-- Node26&#45;&gt;Node56 -->
<g id="edge21" class="edge">
<title>Node26&#45;&gt;Node56</title>
<path fill="none" stroke="#191970" d="M2374.7254,-217.1536C2397.7163,-193.3113 2438.9835,-150.5156 2457.296,-131.5249"/>
<polygon fill="#191970" stroke="#191970" points="2372.1106,-214.823 2367.6887,-224.4509 2377.1496,-219.682 2372.1106,-214.823"/>
</g>
<!-- Node118 -->
<g id="node20" class="node">
<title>Node118</title>
<g id="a_node20"><a xlink:href="netaddress_8cpp.html" target="_top" xlink:title="src/netaddress.cpp">
<polygon fill="#ffffff" stroke="#000000" points="2834.4807,-168.5 2834.4807,-187.5 2934.4807,-187.5 2934.4807,-168.5 2834.4807,-168.5"/>
<text text-anchor="middle" x="2884.4807" y="-175.5" font-family="Helvetica,sans-Serif" font-size="10.00" fill="#000000">src/netaddress.cpp</text>
</a>
</g>
</g>
<!-- Node26&#45;&gt;Node118 -->
<g id="edge22" class="edge">
<title>Node26&#45;&gt;Node118</title>
<path fill="none" stroke="#191970" d="M2399.9442,-229.5856C2495.4258,-219.4203 2730.5463,-194.3884 2834.1127,-183.3624"/>
<polygon fill="#191970" stroke="#191970" points="2399.3824,-226.1256 2389.8092,-230.6646 2400.1235,-233.0862 2399.3824,-226.1256"/>
</g>
<!-- Node119 -->
<g id="node21" class="node">
<title>Node119</title>
<g id="a_node21"><a xlink:href="netbase_8cpp.html" target="_top" xlink:title="src/netbase.cpp">
<polygon fill="#ffffff" stroke="#000000" points="2657.4807,-112.5 2657.4807,-131.5 2743.4807,-131.5 2743.4807,-112.5 2657.4807,-112.5"/>
<text text-anchor="middle" x="2700.4807" y="-119.5" font-family="Helvetica,sans-Serif" font-size="10.00" fill="#000000">src/netbase.cpp</text>
</a>
</g>
</g>
<!-- Node26&#45;&gt;Node119 -->
<g id="edge23" class="edge">
<title>Node26&#45;&gt;Node119</title>
<path fill="none" stroke="#191970" d="M2399.8655,-230.3511C2466.9638,-223.9074 2596.0633,-209.1642 2636.4807,-188 2662.2148,-174.5245 2683.7059,-146.851 2693.9801,-131.9782"/>
<polygon fill="#191970" stroke="#191970" points="2399.2795,-226.8907 2389.6521,-231.3137 2399.9364,-233.8598 2399.2795,-226.8907"/>
</g>
<!-- Node120 -->
<g id="node22" class="node">
<title>Node120</title>
<g id="a_node22"><a xlink:href="pubkey_8h.html" target="_top" xlink:title="src/pubkey.h">
<polygon fill="#ffffff" stroke="#ff0000" points="239.9807,-168.5 239.9807,-187.5 312.9807,-187.5 312.9807,-168.5 239.9807,-168.5"/>
<text text-anchor="middle" x="276.4807" y="-175.5" font-family="Helvetica,sans-Serif" font-size="10.00" fill="#000000">src/pubkey.h</text>
</a>
</g>
</g>
<!-- Node26&#45;&gt;Node120 -->
<g id="edge24" class="edge">
<title>Node26&#45;&gt;Node120</title>
<path fill="none" stroke="#191970" d="M2317.059,-233.5862C2067.404,-231.0105 760.5353,-216.353 360.4807,-188 344.9521,-186.8994 327.8816,-184.9958 313.2083,-183.1428"/>
<polygon fill="#191970" stroke="#191970" points="2317.1213,-237.0869 2327.1567,-233.6897 2317.1931,-230.0873 2317.1213,-237.0869"/>
</g>
<!-- Node50 -->
<g id="node29" class="node">
<title>Node50</title>
<g id="a_node29"><a xlink:href="txdb_8cpp.html" target="_top" xlink:title="src/txdb.cpp">
<polygon fill="#ffffff" stroke="#000000" points="2066.9807,-168.5 2066.9807,-187.5 2137.9807,-187.5 2137.9807,-168.5 2066.9807,-168.5"/>
<text text-anchor="middle" x="2102.4807" y="-175.5" font-family="Helvetica,sans-Serif" font-size="10.00" fill="#000000">src/txdb.cpp</text>
</a>
</g>
</g>
<!-- Node26&#45;&gt;Node50 -->
<g id="edge38" class="edge">
<title>Node26&#45;&gt;Node50</title>
<path fill="none" stroke="#191970" d="M2317.3951,-225.0941C2274.8655,-215.8631 2206.5083,-200.9929 2147.4807,-188 2144.5106,-187.3462 2141.4308,-186.6662 2138.3392,-185.9822"/>
<polygon fill="#191970" stroke="#191970" points="2316.8538,-228.558 2327.3686,-227.2582 2318.3382,-221.7172 2316.8538,-228.558"/>
</g>
<!-- Node47 -->
<g id="node30" class="node">
<title>Node47</title>
<g id="a_node30"><a xlink:href="validation_8cpp.html" target="_top" xlink:title="src/validation.cpp">
<polygon fill="#ffffff" stroke="#000000" points="1095.9807,-112.5 1095.9807,-131.5 1188.9807,-131.5 1188.9807,-112.5 1095.9807,-112.5"/>
<text text-anchor="middle" x="1142.4807" y="-119.5" font-family="Helvetica,sans-Serif" font-size="10.00" fill="#000000">src/validation.cpp</text>
</a>
</g>
</g>
<!-- Node26&#45;&gt;Node47 -->
<g id="edge39" class="edge">
<title>Node26&#45;&gt;Node47</title>
<path fill="none" stroke="#191970" d="M2317.3049,-232.929C2161.0578,-228.7148 1604.7992,-212.305 1429.4807,-188 1336.0451,-175.0467 1228.2166,-146.4831 1175.2729,-131.5381"/>
<polygon fill="#191970" stroke="#191970" points="2317.342,-236.4312 2327.4321,-233.2002 2317.5294,-229.4337 2317.342,-236.4312"/>
</g>
<!-- Node35 -->
<g id="node11" class="node">
<title>Node35</title>
<g id="a_node11"><a xlink:href="bitcoin-tx_8cpp.html" target="_top" xlink:title="src/bitcoin&#45;tx.cpp">
<polygon fill="#ffffff" stroke="#000000" points="410.4807,-.5 410.4807,-19.5 502.4807,-19.5 502.4807,-.5 410.4807,-.5"/>
<text text-anchor="middle" x="456.4807" y="-7.5" font-family="Helvetica,sans-Serif" font-size="10.00" fill="#000000">src/bitcoin&#45;tx.cpp</text>
</a>
</g>
</g>
<!-- Node32&#45;&gt;Node35 -->
<g id="edge10" class="edge">
<title>Node32&#45;&gt;Node35</title>
<path fill="none" stroke="#191970" d="M1663.8236,-62.0301C1640.1705,-59.9552 1610.2179,-57.535 1583.4807,-56 1107.5513,-28.6774 985.482,-70.7743 511.4807,-20 508.5857,-19.6899 505.6139,-19.3151 502.6231,-18.8951"/>
<polygon fill="#191970" stroke="#191970" points="1663.6088,-65.5248 1673.8797,-62.9246 1664.2291,-58.5523 1663.6088,-65.5248"/>
</g>
<!-- Node32&#45;&gt;Node38 -->
<g id="edge11" class="edge">
<title>Node32&#45;&gt;Node38</title>
<path fill="none" stroke="#191970" d="M1747.6793,-53.3235C1781.0565,-43.0536 1827.3506,-28.8093 1857.602,-19.5011"/>
<polygon fill="#191970" stroke="#191970" points="1746.2961,-50.0871 1737.7676,-56.3733 1748.3547,-56.7776 1746.2961,-50.0871"/>
</g>
<!-- Node41 -->
<g id="node13" class="node">
<title>Node41</title>
<g id="a_node13"><a xlink:href="rawtransaction_8cpp.html" target="_top" xlink:title="src/rpc/rawtransaction.cpp">
<polygon fill="#ffffff" stroke="#000000" points="1693.4807,-.5 1693.4807,-19.5 1825.4807,-19.5 1825.4807,-.5 1693.4807,-.5"/>
<text text-anchor="middle" x="1759.4807" y="-7.5" font-family="Helvetica,sans-Serif" font-size="10.00" fill="#000000">src/rpc/rawtransaction.cpp</text>
</a>
</g>
</g>
<!-- Node32&#45;&gt;Node41 -->
<g id="edge12" class="edge">
<title>Node32&#45;&gt;Node41</title>
<path fill="none" stroke="#191970" d="M1722.7703,-48.7884C1731.8369,-39.2085 1742.7861,-27.6396 1750.3546,-19.6427"/>
<polygon fill="#191970" stroke="#191970" points="1720.0444,-46.5767 1715.7126,-56.2455 1725.1285,-51.3884 1720.0444,-46.5767"/>
</g>
<!-- Node92&#45;&gt;Node38 -->
<g id="edge18" class="edge">
<title>Node92&#45;&gt;Node38</title>
<path fill="none" stroke="#191970" d="M3038.5471,-164.9733C2965.3524,-139.0801 2793.2216,-81.4496 2643.4807,-56 2503.337,-32.1815 2060.2468,-15.7499 1926.8484,-11.2463"/>
<polygon fill="#191970" stroke="#191970" points="3037.6112,-168.3552 3048.2059,-168.4096 3039.9576,-161.7601 3037.6112,-168.3552"/>
</g>
<!-- Node92&#45;&gt;Node41 -->
<g id="edge19" class="edge">
<title>Node92&#45;&gt;Node41</title>
<path fill="none" stroke="#191970" d="M3036.8496,-168.0736C2988.8926,-157.2026 2785.4807,-112 2785.4807,-112 2533.6702,-71.824 2468.2776,-80.6929 2214.4807,-56 2048.7153,-39.872 2007.0443,-38.0821 1841.4807,-20 1836.3482,-19.4395 1831.0377,-18.8388 1825.7007,-18.2204"/>
<polygon fill="#191970" stroke="#191970" points="3036.1047,-171.4936 3046.6354,-170.3293 3037.677,-164.6725 3036.1047,-171.4936"/>
</g>
<!-- Node62 -->
<g id="node18" class="node">
<title>Node62</title>
<g id="a_node18"><a xlink:href="wallet_2wallet_8cpp.html" target="_top" xlink:title="src/wallet/wallet.cpp">
<polygon fill="#ffffff" stroke="#000000" points="520.4807,-.5 520.4807,-19.5 626.4807,-19.5 626.4807,-.5 520.4807,-.5"/>
<text text-anchor="middle" x="573.4807" y="-7.5" font-family="Helvetica,sans-Serif" font-size="10.00" fill="#000000">src/wallet/wallet.cpp</text>
</a>
</g>
</g>
<!-- Node92&#45;&gt;Node62 -->
<g id="edge20" class="edge">
<title>Node92&#45;&gt;Node62</title>
<path fill="none" stroke="#191970" d="M3036.6922,-168.0997C2924.6448,-146.5577 2888.996,-169.0114 2785.4807,-132 2769.3318,-126.2261 2768.8633,-117.073 2752.4807,-112 2699.1161,-95.4754 1804.2824,-58.6483 1748.4807,-56 1315.406,-35.4464 792.2224,-17.3368 626.4871,-11.7616"/>
<polygon fill="#191970" stroke="#191970" points="3036.1955,-171.5696 3046.6876,-170.0979 3037.5678,-164.7054 3036.1955,-171.5696"/>
</g>
<!-- Node120&#45;&gt;Node89 -->
<g id="edge25" class="edge">
<title>Node120&#45;&gt;Node89</title>
<path fill="none" stroke="#191970" d="M294.1807,-161.3549C313.4572,-143.6439 343.4147,-117.4326 357.4807,-112 432.7114,-82.9442 991.9669,-70.191 1165.9668,-66.899"/>
<polygon fill="#191970" stroke="#191970" points="291.6021,-158.9728 286.6507,-168.3395 296.3625,-164.1049 291.6021,-158.9728"/>
</g>
<!-- Node147 -->
<g id="node23" class="node">
<title>Node147</title>
<g id="a_node23"><a xlink:href="key_8h.html" target="_top" xlink:title="src/key.h">
<polygon fill="#ffffff" stroke="#ff0000" points="74.9807,-112.5 74.9807,-131.5 131.9807,-131.5 131.9807,-112.5 74.9807,-112.5"/>
<text text-anchor="middle" x="103.4807" y="-119.5" font-family="Helvetica,sans-Serif" font-size="10.00" fill="#000000">src/key.h</text>
</a>
</g>
</g>
<!-- Node120&#45;&gt;Node147 -->
<g id="edge26" class="edge">
<title>Node120&#45;&gt;Node147</title>
<path fill="none" stroke="#191970" d="M236.846,-165.1703C204.9432,-154.8434 160.857,-140.5727 132.2575,-131.315"/>
<polygon fill="#191970" stroke="#191970" points="236.149,-168.6234 246.7409,-168.3733 238.3049,-161.9636 236.149,-168.6234"/>
</g>
<!-- Node158 -->
<g id="node25" class="node">
<title>Node158</title>
<g id="a_node25"><a xlink:href="keystore_8h.html" target="_top" xlink:title="src/keystore.h">
<polygon fill="#ffffff" stroke="#ff0000" points="416.9807,-56.5 416.9807,-75.5 495.9807,-75.5 495.9807,-56.5 416.9807,-56.5"/>
<text text-anchor="middle" x="456.4807" y="-63.5" font-family="Helvetica,sans-Serif" font-size="10.00" fill="#000000">src/keystore.h</text>
</a>
</g>
</g>
<!-- Node120&#45;&gt;Node158 -->
<g id="edge35" class="edge">
<title>Node120&#45;&gt;Node158</title>
<path fill="none" stroke="#191970" d="M285.9333,-159.3083C294.2551,-144.572 307.6591,-124.4895 324.4807,-112 351.857,-91.674 388.9435,-79.8032 416.8357,-73.2291"/>
<polygon fill="#191970" stroke="#191970" points="282.6471,-158.0304 281.0044,-168.4972 288.8157,-161.3393 282.6471,-158.0304"/>
</g>
<!-- Node178 -->
<g id="node27" class="node">
<title>Node178</title>
<g id="a_node27"><a xlink:href="interpreter_8cpp.html" target="_top" xlink:title="src/script/interpreter.cpp">
<polygon fill="#ffffff" stroke="#000000" points="150.4807,-112.5 150.4807,-131.5 272.4807,-131.5 272.4807,-112.5 150.4807,-112.5"/>
<text text-anchor="middle" x="211.4807" y="-119.5" font-family="Helvetica,sans-Serif" font-size="10.00" fill="#000000">src/script/interpreter.cpp</text>
</a>
</g>
</g>
<!-- Node120&#45;&gt;Node178 -->
<g id="edge36" class="edge">
<title>Node120&#45;&gt;Node178</title>
<path fill="none" stroke="#191970" d="M257.4972,-161.645C246.1928,-151.9058 232.2337,-139.8795 222.6731,-131.6427"/>
<polygon fill="#191970" stroke="#191970" points="255.2979,-164.3701 265.1585,-168.2455 259.8669,-159.0668 255.2979,-164.3701"/>
</g>
<!-- Node180 -->
<g id="node28" class="node">
<title>Node180</title>
<g id="a_node28"><a xlink:href="standard_8cpp.html" target="_top" xlink:title="src/script/standard.cpp">
<polygon fill="#ffffff" stroke="#000000" points="366.4807,-112.5 366.4807,-131.5 482.4807,-131.5 482.4807,-112.5 366.4807,-112.5"/>
<text text-anchor="middle" x="424.4807" y="-119.5" font-family="Helvetica,sans-Serif" font-size="10.00" fill="#000000">src/script/standard.cpp</text>
</a>
</g>
</g>
<!-- Node120&#45;&gt;Node180 -->
<g id="edge37" class="edge">
<title>Node120&#45;&gt;Node180</title>
<path fill="none" stroke="#191970" d="M311.396,-164.7888C338.419,-154.5639 375.1946,-140.6488 399.3706,-131.5011"/>
<polygon fill="#191970" stroke="#191970" points="310.037,-161.5608 301.9228,-168.3733 312.5143,-168.1078 310.037,-161.5608"/>
</g>
<!-- Node147&#45;&gt;Node62 -->
<g id="edge34" class="edge">
<title>Node147&#45;&gt;Node62</title>
<path fill="none" stroke="#191970" d="M141.9155,-111.9371C291.3605,-74.7295 455.6922,-36.8441 531.3885,-19.5637"/>
<polygon fill="#191970" stroke="#191970" points="140.9502,-108.5705 132.0945,-114.3867 142.6443,-115.3625 140.9502,-108.5705"/>
</g>
<!-- Node148 -->
<g id="node24" class="node">
<title>Node148</title>
<g id="a_node24"><a xlink:href="verify__script_8cpp.html" target="_top" xlink:title="src/bench/verify_script.cpp">
<polygon fill="#ffffff" stroke="#000000" points="36.4807,-56.5 36.4807,-75.5 170.4807,-75.5 170.4807,-56.5 36.4807,-56.5"/>
<text text-anchor="middle" x="103.4807" y="-63.5" font-family="Helvetica,sans-Serif" font-size="10.00" fill="#000000">src/bench/verify_script.cpp</text>
</a>
</g>
</g>
<!-- Node147&#45;&gt;Node148 -->
<g id="edge27" class="edge">
<title>Node147&#45;&gt;Node148</title>
<path fill="none" stroke="#191970" d="M103.4807,-102.1575C103.4807,-93.155 103.4807,-82.9199 103.4807,-75.6427"/>
<polygon fill="#191970" stroke="#191970" points="99.9808,-102.2455 103.4807,-112.2455 106.9808,-102.2456 99.9808,-102.2455"/>
</g>
<!-- Node147&#45;&gt;Node158 -->
<g id="edge28" class="edge">
<title>Node147&#45;&gt;Node158</title>
<path fill="none" stroke="#191970" d="M141.8425,-112.1261C246.8154,-91.0713 358.8388,-77.0035 416.9476,-70.3274"/>
<polygon fill="#191970" stroke="#191970" points="141.1369,-108.6978 132.0337,-114.1184 142.5303,-115.5578 141.1369,-108.6978"/>
</g>
<!-- Node160 -->
<g id="node26" class="node">
<title>Node160</title>
<g id="a_node26"><a xlink:href="ismine_8cpp.html" target="_top" xlink:title="src/script/ismine.cpp">
<polygon fill="#ffffff" stroke="#000000" points="144.9807,-.5 144.9807,-19.5 251.9807,-19.5 251.9807,-.5 144.9807,-.5"/>
<text text-anchor="middle" x="198.4807" y="-7.5" font-family="Helvetica,sans-Serif" font-size="10.00" fill="#000000">src/script/ismine.cpp</text>
</a>
</g>
</g>
<!-- Node147&#45;&gt;Node160 -->
<g id="edge33" class="edge">
<title>Node147&#45;&gt;Node160</title>
<path fill="none" stroke="#191970" d="M138.1337,-107.9697C152.7792,-100.4605 168.8672,-89.8631 179.4807,-76 192.3828,-59.1477 196.5286,-33.8223 197.8572,-19.9541"/>
<polygon fill="#191970" stroke="#191970" points="136.286,-104.9744 128.7898,-112.4616 139.319,-111.2832 136.286,-104.9744"/>
</g>
<!-- Node158&#45;&gt;Node35 -->
<g id="edge29" class="edge">
<title>Node158&#45;&gt;Node35</title>
<path fill="none" stroke="#191970" d="M456.4807,-46.1575C456.4807,-37.155 456.4807,-26.9199 456.4807,-19.6427"/>
<polygon fill="#191970" stroke="#191970" points="452.9808,-46.2455 456.4807,-56.2455 459.9808,-46.2456 452.9808,-46.2455"/>
</g>
<!-- Node158&#45;&gt;Node41 -->
<g id="edge30" class="edge">
<title>Node158&#45;&gt;Node41</title>
<path fill="none" stroke="#191970" d="M506.1932,-63.8635C707.7592,-55.2006 1464.2724,-22.6874 1693.3441,-12.8424"/>
<polygon fill="#191970" stroke="#191970" points="506.0288,-60.3672 496.1883,-64.2935 506.3294,-67.3607 506.0288,-60.3672"/>
</g>
<!-- Node158&#45;&gt;Node62 -->
<g id="edge32" class="edge">
<title>Node158&#45;&gt;Node62</title>
<path fill="none" stroke="#191970" d="M485.7849,-51.9741C506.9687,-41.8348 535.021,-28.408 553.6301,-19.5011"/>
<polygon fill="#191970" stroke="#191970" points="484.1027,-48.8989 476.5937,-56.3733 487.1248,-55.2129 484.1027,-48.8989"/>
</g>
<!-- Node158&#45;&gt;Node160 -->
<g id="edge31" class="edge">
<title>Node158&#45;&gt;Node160</title>
<path fill="none" stroke="#191970" d="M406.664,-55.1871C359.1142,-44.8662 288.1562,-29.4644 242.5977,-19.5758"/>
<polygon fill="#191970" stroke="#191970" points="406.2187,-58.6719 416.7336,-57.3727 407.7036,-51.8311 406.2187,-58.6719"/>
</g>
<!-- Node181&#45;&gt;Node31 -->
<g id="edge43" class="edge">
<title>Node181&#45;&gt;Node31</title>
<path fill="none" stroke="#191970" d="M1053.9173,-228.1918C1114.9844,-221.2616 1214.964,-208.0343 1299.4807,-188 1364.929,-172.4858 1439.6134,-145.7947 1477.5392,-131.5736"/>
<polygon fill="#191970" stroke="#191970" points="1053.2694,-224.7423 1043.7201,-229.3314 1054.047,-231.699 1053.2694,-224.7423"/>
</g>
<!-- Node181&#45;&gt;Node35 -->
<g id="edge42" class="edge">
<title>Node181&#45;&gt;Node35</title>
<path fill="none" stroke="#191970" d="M941.1982,-233.7963C756.536,-232.7589 176.6677,-226.4426 102.4807,-188 74.3773,-173.4372 75.9796,-158.3755 58.4807,-132 38.3131,-101.6021 3.0995,-83.1353 27.4807,-56 40.1687,-41.8788 301.85,-21.2718 410.1646,-13.3099"/>
<polygon fill="#191970" stroke="#191970" points="941.2232,-237.2964 951.2417,-233.8496 941.2605,-230.2965 941.2232,-237.2964"/>
</g>
<!-- Node181&#45;&gt;Node41 -->
<g id="edge67" class="edge">
<title>Node181&#45;&gt;Node41</title>
<path fill="none" stroke="#191970" d="M1053.8972,-232.5205C1202.9988,-228.2622 1599.712,-214.5491 1652.4807,-188 1681.7639,-173.267 1734.6105,-105.7016 1748.4807,-76 1757.1313,-57.4755 1759.0866,-33.2269 1759.4638,-19.8805"/>
<polygon fill="#191970" stroke="#191970" points="1053.4953,-229.0303 1043.5979,-232.8108 1053.6926,-236.0275 1053.4953,-229.0303"/>
</g>
<!-- Node181&#45;&gt;Node62 -->
<g id="edge75" class="edge">
<title>Node181&#45;&gt;Node62</title>
<path fill="none" stroke="#191970" d="M941.2003,-229.4443C833.0244,-220.434 605.6212,-200.1585 593.4807,-188 546.8984,-141.3486 563.7522,-49.8928 570.9218,-19.833"/>
<polygon fill="#191970" stroke="#191970" points="941.0304,-232.9422 951.2855,-230.2805 941.6089,-225.9661 941.0304,-232.9422"/>
</g>
<!-- Node181&#45;&gt;Node148 -->
<g id="edge41" class="edge">
<title>Node181&#45;&gt;Node148</title>
<path fill="none" stroke="#191970" d="M941.0653,-232.9034C785.463,-229.5271 352.5478,-217.6655 213.4807,-188 144.6992,-173.3277 105.4542,-189.8644 65.4807,-132 52.2543,-112.8539 75.1751,-88.8384 90.7923,-75.6984"/>
<polygon fill="#191970" stroke="#191970" points="941.2725,-236.4085 951.345,-233.1228 941.422,-229.4101 941.2725,-236.4085"/>
</g>
<!-- Node181&#45;&gt;Node158 -->
<g id="edge50" class="edge">
<title>Node181&#45;&gt;Node158</title>
<path fill="none" stroke="#191970" d="M941.309,-229.8797C821.0705,-220.866 548.2741,-199.3015 531.4807,-188 499.8134,-166.6887 511.9967,-144.1882 491.4807,-112 483.0666,-98.7989 471.9104,-84.6051 464.4784,-75.5305"/>
<polygon fill="#191970" stroke="#191970" points="941.1905,-233.3805 951.4234,-230.6353 941.712,-226.4 941.1905,-233.3805"/>
</g>
<!-- Node181&#45;&gt;Node160 -->
<g id="edge69" class="edge">
<title>Node181&#45;&gt;Node160</title>
<path fill="none" stroke="#191970" d="M941.1281,-232.6054C746.5878,-227.607 113.0224,-209.7276 75.4807,-188 19.7055,-155.7196 -24.1456,-106.8197 15.4807,-56 31.2936,-35.7204 96.5398,-23.0137 144.6389,-16.2188"/>
<polygon fill="#191970" stroke="#191970" points="941.3276,-236.1115 951.4137,-232.8681 941.5064,-229.1138 941.3276,-236.1115"/>
</g>
<!-- Node181&#45;&gt;Node178 -->
<g id="edge68" class="edge">
<title>Node181&#45;&gt;Node178</title>
<path fill="none" stroke="#191970" d="M941.3439,-232.3967C769.1145,-227.2473 258.1602,-210.1644 230.4807,-188 213.5412,-174.4357 211.0843,-146.7996 211.0794,-131.9559"/>
<polygon fill="#191970" stroke="#191970" points="941.3685,-235.8988 951.468,-232.6972 941.5763,-228.9019 941.3685,-235.8988"/>
</g>
<!-- Node181&#45;&gt;Node180 -->
<g id="edge71" class="edge">
<title>Node181&#45;&gt;Node180</title>
<path fill="none" stroke="#191970" d="M941.2397,-231.9986C789.2117,-226.3176 380.1379,-209.128 360.4807,-188 341.5634,-167.6673 377.9282,-144.484 403.1653,-131.7184"/>
<polygon fill="#191970" stroke="#191970" points="941.1813,-235.4988 951.3042,-232.3719 941.4408,-228.5036 941.1813,-235.4988"/>
</g>
<!-- Node181&#45;&gt;Node47 -->
<g id="edge72" class="edge">
<title>Node181&#45;&gt;Node47</title>
<path fill="none" stroke="#191970" d="M941.284,-233.2362C821.4907,-230.6214 555.5826,-219.0629 602.4807,-168 635.5364,-132.0087 970.5691,-124.1387 1095.6865,-122.4507"/>
<polygon fill="#191970" stroke="#191970" points="941.305,-236.7373 951.3746,-233.4428 941.4484,-229.7387 941.305,-236.7373"/>
</g>
<!-- Node182 -->
<g id="node32" class="node">
<title>Node182</title>
<g id="a_node32"><a xlink:href="compressor_8h.html" target="_top" xlink:title="src/compressor.h">
<polygon fill="#ffffff" stroke="#ff0000" points="1353.4807,-112.5 1353.4807,-131.5 1445.4807,-131.5 1445.4807,-112.5 1353.4807,-112.5"/>
<text text-anchor="middle" x="1399.4807" y="-119.5" font-family="Helvetica,sans-Serif" font-size="10.00" fill="#000000">src/compressor.h</text>
</a>
</g>
</g>
<!-- Node181&#45;&gt;Node182 -->
<g id="edge44" class="edge">
<title>Node181&#45;&gt;Node182</title>
<path fill="none" stroke="#191970" d="M1053.83,-228.505C1107.6027,-222.2395 1190.4178,-209.9071 1259.4807,-188 1306.097,-173.2131 1357.1912,-146.0928 1382.835,-131.6494"/>
<polygon fill="#191970" stroke="#191970" points="1053.3484,-225.0371 1043.8066,-229.6418 1054.1373,-231.9925 1053.3484,-225.0371"/>
</g>
<!-- Node184 -->
<g id="node33" class="node">
<title>Node184</title>
<g id="a_node33"><a xlink:href="core__read_8cpp.html" target="_top" xlink:title="src/core_read.cpp">
<polygon fill="#ffffff" stroke="#000000" points="1859.9807,-112.5 1859.9807,-131.5 1954.9807,-131.5 1954.9807,-112.5 1859.9807,-112.5"/>
<text text-anchor="middle" x="1907.4807" y="-119.5" font-family="Helvetica,sans-Serif" font-size="10.00" fill="#000000">src/core_read.cpp</text>
</a>
</g>
</g>
<!-- Node181&#45;&gt;Node184 -->
<g id="edge47" class="edge">
<title>Node181&#45;&gt;Node184</title>
<path fill="none" stroke="#191970" d="M1054.0516,-232.5988C1196.2851,-228.6946 1565.9616,-216.0825 1685.4807,-188 1707.9791,-182.7137 1711.5914,-175.4151 1733.4807,-168 1777.576,-153.0624 1829.2859,-139.9302 1864.8088,-131.5619"/>
<polygon fill="#191970" stroke="#191970" points="1053.71,-229.1067 1043.8082,-232.8757 1053.8992,-236.1042 1053.71,-229.1067"/>
</g>
<!-- Node151 -->
<g id="node34" class="node">
<title>Node151</title>
<g id="a_node34"><a xlink:href="core__write_8cpp.html" target="_top" xlink:title="src/core_write.cpp">
<polygon fill="#ffffff" stroke="#000000" points="1775.9807,-168.5 1775.9807,-187.5 1872.9807,-187.5 1872.9807,-168.5 1775.9807,-168.5"/>
<text text-anchor="middle" x="1824.4807" y="-175.5" font-family="Helvetica,sans-Serif" font-size="10.00" fill="#000000">src/core_write.cpp</text>
</a>
</g>
</g>
<!-- Node181&#45;&gt;Node151 -->
<g id="edge48" class="edge">
<title>Node181&#45;&gt;Node151</title>
<path fill="none" stroke="#191970" d="M1053.9253,-232.4805C1180.741,-228.6557 1497.7718,-216.7991 1761.4807,-188 1766.1045,-187.495 1770.9068,-186.8866 1775.7046,-186.2223"/>
<polygon fill="#191970" stroke="#191970" points="1053.5782,-228.9892 1043.6864,-232.7842 1053.7858,-235.9861 1053.5782,-228.9892"/>
</g>
<!-- Node153 -->
<g id="node35" class="node">
<title>Node153</title>
<g id="a_node35"><a xlink:href="key__io_8cpp.html" target="_top" xlink:title="src/key_io.cpp">
<polygon fill="#ffffff" stroke="#000000" points="611.4807,-168.5 611.4807,-187.5 691.4807,-187.5 691.4807,-168.5 611.4807,-168.5"/>
<text text-anchor="middle" x="651.4807" y="-175.5" font-family="Helvetica,sans-Serif" font-size="10.00" fill="#000000">src/key_io.cpp</text>
</a>
</g>
</g>
<!-- Node181&#45;&gt;Node153 -->
<g id="edge49" class="edge">
<title>Node181&#45;&gt;Node153</title>
<path fill="none" stroke="#191970" d="M941.3273,-226.1168C881.507,-217.5287 784.1063,-203.0005 700.4807,-188 697.5751,-187.4788 694.577,-186.9197 691.5621,-186.3418"/>
<polygon fill="#191970" stroke="#191970" points="940.9272,-229.5951 951.3221,-227.5466 941.9185,-222.6657 940.9272,-229.5951"/>
</g>
<!-- Node185 -->
<g id="node36" class="node">
<title>Node185</title>
<g id="a_node36"><a xlink:href="transaction_8h.html" target="_top" xlink:title="src/primitives/transaction.h">
<polygon fill="#ffffff" stroke="#ff0000" points="1509.4807,-168.5 1509.4807,-187.5 1643.4807,-187.5 1643.4807,-168.5 1509.4807,-168.5"/>
<text text-anchor="middle" x="1576.4807" y="-175.5" font-family="Helvetica,sans-Serif" font-size="10.00" fill="#000000">src/primitives/transaction.h</text>
</a>
</g>
</g>
<!-- Node181&#45;&gt;Node185 -->
<g id="edge51" class="edge">
<title>Node181&#45;&gt;Node185</title>
<path fill="none" stroke="#191970" d="M1053.8654,-228.5466C1161.1487,-218.1703 1394.1968,-195.6302 1509.3359,-184.4941"/>
<polygon fill="#191970" stroke="#191970" points="1053.5005,-225.0654 1043.8839,-229.5119 1054.1745,-232.0329 1053.5005,-225.0654"/>
</g>
<!-- Node98 -->
<g id="node37" class="node">
<title>Node98</title>
<g id="a_node37"><a xlink:href="guiutil_8cpp.html" target="_top" xlink:title="src/qt/guiutil.cpp">
<polygon fill="#ffffff" stroke="#000000" points="1245.9807,-112.5 1245.9807,-131.5 1334.9807,-131.5 1334.9807,-112.5 1245.9807,-112.5"/>
<text text-anchor="middle" x="1290.4807" y="-119.5" font-family="Helvetica,sans-Serif" font-size="10.00" fill="#000000">src/qt/guiutil.cpp</text>
</a>
</g>
</g>
<!-- Node181&#45;&gt;Node98 -->
<g id="edge63" class="edge">
<title>Node181&#45;&gt;Node98</title>
<path fill="none" stroke="#191970" d="M1053.7254,-227.3381C1113.5382,-219.5046 1203.5683,-205.3446 1233.4807,-188 1257.3181,-174.1779 1276.0713,-146.6506 1284.9212,-131.8913"/>
<polygon fill="#191970" stroke="#191970" points="1053.1366,-223.885 1043.6656,-228.6335 1054.0307,-230.8276 1053.1366,-223.885"/>
</g>
<!-- Node223 -->
<g id="node38" class="node">
<title>Node223</title>
<g id="a_node38"><a xlink:href="paymentrequestplus_8h.html" target="_top" xlink:title="src/qt/paymentrequestplus.h">
<polygon fill="#ffffff" stroke="#ff0000" points="709.4807,-168.5 709.4807,-187.5 849.4807,-187.5 849.4807,-168.5 709.4807,-168.5"/>
<text text-anchor="middle" x="779.4807" y="-175.5" font-family="Helvetica,sans-Serif" font-size="10.00" fill="#000000">src/qt/paymentrequestplus.h</text>
</a>
</g>
</g>
<!-- Node181&#45;&gt;Node223 -->
<g id="edge64" class="edge">
<title>Node181&#45;&gt;Node223</title>
<path fill="none" stroke="#191970" d="M950.1868,-221.8511C910.0714,-211.5462 853.3272,-196.9697 816.4672,-187.5011"/>
<polygon fill="#191970" stroke="#191970" points="949.4488,-225.2751 960.0051,-224.3733 951.1904,-218.4952 949.4488,-225.2751"/>
</g>
<!-- Node79 -->
<g id="node39" class="node">
<title>Node79</title>
<g id="a_node39"><a xlink:href="transactiondesc_8cpp.html" target="_top" xlink:title="src/qt/transactiondesc.cpp">
<polygon fill="#ffffff" stroke="#000000" points="867.4807,-168.5 867.4807,-187.5 999.4807,-187.5 999.4807,-168.5 867.4807,-168.5"/>
<text text-anchor="middle" x="933.4807" y="-175.5" font-family="Helvetica,sans-Serif" font-size="10.00" fill="#000000">src/qt/transactiondesc.cpp</text>
</a>
</g>
</g>
<!-- Node181&#45;&gt;Node79 -->
<g id="edge65" class="edge">
<title>Node181&#45;&gt;Node79</title>
<path fill="none" stroke="#191970" d="M978.7893,-217.645C967.6588,-207.9058 953.9144,-195.8795 944.5009,-187.6427"/>
<polygon fill="#191970" stroke="#191970" points="976.5022,-220.2945 986.3327,-224.2455 981.1117,-215.0264 976.5022,-220.2945"/>
</g>
<!-- Node225 -->
<g id="node40" class="node">
<title>Node225</title>
<g id="a_node40"><a xlink:href="mining_8h.html" target="_top" xlink:title="src/rpc/mining.h">
<polygon fill="#ffffff" stroke="#ff0000" points="1017.4807,-168.5 1017.4807,-187.5 1103.4807,-187.5 1103.4807,-168.5 1017.4807,-168.5"/>
<text text-anchor="middle" x="1060.4807" y="-175.5" font-family="Helvetica,sans-Serif" font-size="10.00" fill="#000000">src/rpc/mining.h</text>
</a>
</g>
</g>
<!-- Node181&#45;&gt;Node225 -->
<g id="edge66" class="edge">
<title>Node181&#45;&gt;Node225</title>
<path fill="none" stroke="#191970" d="M1016.1999,-217.3607C1027.0989,-207.6727 1040.4562,-195.7995 1049.6327,-187.6427"/>
<polygon fill="#191970" stroke="#191970" points="1013.6033,-214.9859 1008.4544,-224.2455 1018.2538,-220.2178 1013.6033,-214.9859"/>
</g>
<!-- Node226 -->
<g id="node41" class="node">
<title>Node226</title>
<g id="a_node41"><a xlink:href="script_8cpp.html" target="_top" xlink:title="src/script/script.cpp">
<polygon fill="#ffffff" stroke="#000000" points="1121.9807,-168.5 1121.9807,-187.5 1224.9807,-187.5 1224.9807,-168.5 1121.9807,-168.5"/>
<text text-anchor="middle" x="1173.4807" y="-175.5" font-family="Helvetica,sans-Serif" font-size="10.00" fill="#000000">src/script/script.cpp</text>
</a>
</g>
</g>
<!-- Node181&#45;&gt;Node226 -->
<g id="edge70" class="edge">
<title>Node181&#45;&gt;Node226</title>
<path fill="none" stroke="#191970" d="M1037.3211,-221.3235C1069.598,-211.0536 1114.3659,-196.8093 1143.62,-187.5011"/>
<polygon fill="#191970" stroke="#191970" points="1036.2042,-218.0059 1027.7362,-224.3733 1038.3267,-224.6764 1036.2042,-218.0059"/>
</g>
<!-- Node162 -->
<g id="node42" class="node">
<title>Node162</title>
<g id="a_node42"><a xlink:href="crypter_8cpp.html" target="_top" xlink:title="src/wallet/crypter.cpp">
<polygon fill="#ffffff" stroke="#000000" points="369.4807,-168.5 369.4807,-187.5 479.4807,-187.5 479.4807,-168.5 369.4807,-168.5"/>
<text text-anchor="middle" x="424.4807" y="-175.5" font-family="Helvetica,sans-Serif" font-size="10.00" fill="#000000">src/wallet/crypter.cpp</text>
</a>
</g>
</g>
<!-- Node181&#45;&gt;Node162 -->
<g id="edge73" class="edge">
<title>Node181&#45;&gt;Node162</title>
<path fill="none" stroke="#191970" d="M941.1211,-229.8346C847.8525,-222.7218 655.5936,-207.1317 493.4807,-188 489.033,-187.4751 484.4295,-186.893 479.8083,-186.2813"/>
<polygon fill="#191970" stroke="#191970" points="940.9499,-233.3315 951.1862,-230.5985 941.4797,-226.3516 940.9499,-233.3315"/>
</g>
<!-- Node85 -->
<g id="node43" class="node">
<title>Node85</title>
<g id="a_node43"><a xlink:href="rpcdump_8cpp.html" target="_top" xlink:title="src/wallet/rpcdump.cpp">
<polygon fill="#ffffff" stroke="#000000" points="2042.4807,-112.5 2042.4807,-131.5 2160.4807,-131.5 2160.4807,-112.5 2042.4807,-112.5"/>
<text text-anchor="middle" x="2101.4807" y="-119.5" font-family="Helvetica,sans-Serif" font-size="10.00" fill="#000000">src/wallet/rpcdump.cpp</text>
</a>
</g>
</g>
<!-- Node181&#45;&gt;Node85 -->
<g id="edge74" class="edge">
<title>Node181&#45;&gt;Node85</title>
<path fill="none" stroke="#191970" d="M1054.1328,-233.0543C1202.0082,-230.1644 1596.9479,-219.6296 1723.4807,-188 1744.3204,-182.7907 1746.8467,-173.9724 1767.4807,-168 1817.7323,-153.4549 1960.6474,-136.7949 2042.3231,-128.0647"/>
<polygon fill="#191970" stroke="#191970" points="1053.8511,-229.559 1043.9198,-233.2494 1053.9848,-236.5577 1053.8511,-229.559"/>
</g>
<!-- Node182&#45;&gt;Node32 -->
<g id="edge45" class="edge">
<title>Node182&#45;&gt;Node32</title>
<path fill="none" stroke="#191970" d="M1455.7,-111.745C1519.6831,-100.0738 1622.0225,-81.406 1673.964,-71.9314"/>
<polygon fill="#191970" stroke="#191970" points="1454.9837,-108.3178 1445.7741,-113.5556 1456.2399,-115.2042 1454.9837,-108.3178"/>
</g>
<!-- Node182&#45;&gt;Node89 -->
<g id="edge46" class="edge">
<title>Node182&#45;&gt;Node89</title>
<path fill="none" stroke="#191970" d="M1358.2821,-109.3235C1324.9049,-99.0536 1278.6108,-84.8093 1248.3593,-75.5011"/>
<polygon fill="#191970" stroke="#191970" points="1357.6067,-112.7776 1368.1938,-112.3733 1359.6653,-106.0871 1357.6067,-112.7776"/>
</g>
<!-- Node185&#45;&gt;Node31 -->
<g id="edge53" class="edge">
<title>Node185&#45;&gt;Node31</title>
<path fill="none" stroke="#191970" d="M1555.615,-162.2097C1542.6182,-152.3743 1526.3185,-140.0394 1515.2228,-131.6427"/>
<polygon fill="#191970" stroke="#191970" points="1553.5047,-165.002 1563.5909,-168.2455 1557.7288,-159.4201 1553.5047,-165.002"/>
</g>
<!-- Node185&#45;&gt;Node32 -->
<g id="edge54" class="edge">
<title>Node185&#45;&gt;Node32</title>
<path fill="none" stroke="#191970" d="M1609.2305,-164.0709C1625.4574,-156.1683 1644.6899,-145.2107 1659.4807,-132 1678.3651,-115.1331 1693.9294,-89.3559 1701.5063,-75.5372"/>
<polygon fill="#191970" stroke="#191970" points="1607.646,-160.9481 1600.0799,-168.3647 1610.6196,-167.2851 1607.646,-160.9481"/>
</g>
<!-- Node185&#45;&gt;Node35 -->
<g id="edge52" class="edge">
<title>Node185&#45;&gt;Node35</title>
<path fill="none" stroke="#191970" d="M1573.7675,-158.0253C1570.6795,-143.1457 1564.154,-123.4918 1550.4807,-112 1455.6617,-32.3094 1400.3795,-71.3982 1277.4807,-56 939.3045,-13.6293 850.1115,-58.569 511.4807,-20 508.5878,-19.6705 505.6177,-19.2809 502.6281,-18.8498"/>
<polygon fill="#191970" stroke="#191970" points="1570.3823,-158.9933 1575.5204,-168.2589 1577.2818,-157.8115 1570.3823,-158.9933"/>
</g>
<!-- Node185&#45;&gt;Node38 -->
<g id="edge57" class="edge">
<title>Node185&#45;&gt;Node38</title>
<path fill="none" stroke="#191970" d="M1610.0191,-164.5132C1630.8724,-155.8325 1658.077,-143.969 1681.4807,-132 1755.76,-94.0123 1840.3207,-40.9175 1873.7616,-19.5063"/>
<polygon fill="#191970" stroke="#191970" points="1608.5397,-161.3373 1600.6296,-168.3858 1611.2087,-167.8085 1608.5397,-161.3373"/>
</g>
<!-- Node185&#45;&gt;Node41 -->
<g id="edge60" class="edge">
<title>Node185&#45;&gt;Node41</title>
<path fill="none" stroke="#191970" d="M1594.6813,-161.4419C1603.3391,-153.0745 1613.5131,-142.4896 1621.4807,-132 1645.0889,-100.9193 1636.9374,-82.6202 1665.4807,-56 1683.6839,-39.0232 1709.3249,-27.0428 1729.2296,-19.5732"/>
<polygon fill="#191970" stroke="#191970" points="1592.1378,-159.0296 1587.2632,-168.4365 1596.9401,-164.1226 1592.1378,-159.0296"/>
</g>
<!-- Node185&#45;&gt;Node62 -->
<g id="edge62" class="edge">
<title>Node185&#45;&gt;Node62</title>
<path fill="none" stroke="#191970" d="M1585.082,-159.0745C1595.8074,-132.2785 1609.7464,-83.4892 1583.4807,-56 1550.1717,-21.1395 829.8311,-12.2324 626.4963,-10.4089"/>
<polygon fill="#191970" stroke="#191970" points="1581.7742,-157.9094 1581.0823,-168.4817 1588.2161,-160.6485 1581.7742,-157.9094"/>
</g>
<!-- Node185&#45;&gt;Node56 -->
<g id="edge58" class="edge">
<title>Node185&#45;&gt;Node56</title>
<path fill="none" stroke="#191970" d="M1653.636,-173.8712C1851.0947,-163.2792 2361.8338,-135.7124 2398.4807,-132 2401.3299,-131.7114 2404.2426,-131.389 2407.1817,-131.0417"/>
<polygon fill="#191970" stroke="#191970" points="1653.4228,-170.3775 1643.6246,-174.4081 1653.7977,-177.3675 1653.4228,-170.3775"/>
</g>
<!-- Node185&#45;&gt;Node47 -->
<g id="edge61" class="edge">
<title>Node185&#45;&gt;Node47</title>
<path fill="none" stroke="#191970" d="M1498.9954,-168.0019C1409.0117,-156.3911 1263.4629,-137.6106 1189.2443,-128.034"/>
<polygon fill="#191970" stroke="#191970" points="1498.7787,-171.5029 1509.1444,-169.3114 1499.6745,-164.5604 1498.7787,-171.5029"/>
</g>
<!-- Node185&#45;&gt;Node182 -->
<g id="edge55" class="edge">
<title>Node185&#45;&gt;Node182</title>
<path fill="none" stroke="#191970" d="M1536.4139,-165.3235C1503.9536,-155.0536 1458.9314,-140.8093 1429.511,-131.5011"/>
<polygon fill="#191970" stroke="#191970" points="1535.4633,-168.6937 1546.0533,-168.3733 1537.5749,-162.0197 1535.4633,-168.6937"/>
</g>
<!-- Node185&#45;&gt;Node184 -->
<g id="edge56" class="edge">
<title>Node185&#45;&gt;Node184</title>
<path fill="none" stroke="#191970" d="M1643.0293,-166.741C1707.2311,-155.8791 1802.8263,-139.7059 1859.7798,-130.0702"/>
<polygon fill="#191970" stroke="#191970" points="1642.2815,-163.3177 1633.0055,-168.4369 1643.4493,-170.2196 1642.2815,-163.3177"/>
</g>
<!-- Node185&#45;&gt;Node98 -->
<g id="edge59" class="edge">
<title>Node185&#45;&gt;Node98</title>
<path fill="none" stroke="#191970" d="M1517.5065,-166.4526C1463.4154,-155.8614 1384.4672,-140.403 1335.3512,-130.7858"/>
<polygon fill="#191970" stroke="#191970" points="1517.1543,-169.95 1527.6405,-168.4369 1518.4994,-163.0805 1517.1543,-169.95"/>
</g>
<!-- Node227&#45;&gt;Node26 -->
<g id="edge94" class="edge">
<title>Node227&#45;&gt;Node26</title>
<path fill="none" stroke="#191970" d="M2380.6553,-271.6296C2375.1508,-262.2887 2368.6869,-251.3197 2364.163,-243.6427"/>
<polygon fill="#191970" stroke="#191970" points="2377.6402,-273.4071 2385.7325,-280.2455 2383.6709,-269.8532 2377.6402,-273.4071"/>
</g>
<!-- Node227&#45;&gt;Node28 -->
<g id="edge80" class="edge">
<title>Node227&#45;&gt;Node28</title>
<path fill="none" stroke="#191970" d="M2440.2193,-287.372C2534.6151,-281.7819 2734.952,-267.2862 2755.4807,-244 2769.8577,-227.6918 2753.1406,-201.6876 2741.9477,-187.6849"/>
<polygon fill="#191970" stroke="#191970" points="2439.8447,-283.8877 2430.065,-287.9631 2440.2516,-290.8759 2439.8447,-283.8877"/>
</g>
<!-- Node227&#45;&gt;Node32 -->
<g id="edge89" class="edge">
<title>Node227&#45;&gt;Node32</title>
<path fill="none" stroke="#191970" d="M2439.4349,-277.9962C2476.1501,-268.7775 2528.0404,-255.6877 2573.4807,-244 2574.9684,-243.6173 2786.542,-189.216 2787.4807,-188 2792.9125,-180.9638 2793.0456,-174.9314 2787.4807,-168 2778.4682,-156.7745 2548.7518,-113.8902 2534.4807,-112 2186.0483,-65.8496 2091.934,-129.0211 1744.4807,-76 1742.7273,-75.7324 1740.9381,-75.4161 1739.1385,-75.0636"/>
<polygon fill="#191970" stroke="#191970" points="2438.3471,-274.6606 2429.4997,-280.4893 2440.0509,-281.4501 2438.3471,-274.6606"/>
</g>
<!-- Node227&#45;&gt;Node120 -->
<g id="edge105" class="edge">
<title>Node227&#45;&gt;Node120</title>
<path fill="none" stroke="#191970" d="M2342.8389,-285.474C2319.9848,-283.5023 2292.3545,-281.3399 2267.4807,-280 1679.2274,-248.3113 1530.4977,-279.8061 942.4807,-244 679.1253,-227.9635 613.6259,-217.8851 351.4807,-188 338.9512,-186.5716 325.272,-184.8083 313.0672,-183.162"/>
<polygon fill="#191970" stroke="#191970" points="2342.7088,-288.976 2352.9763,-286.3629 2343.3203,-282.0027 2342.7088,-288.976"/>
</g>
<!-- Node227&#45;&gt;Node147 -->
<g id="edge95" class="edge">
<title>Node227&#45;&gt;Node147</title>
<path fill="none" stroke="#191970" d="M2342.8416,-285.4222C2319.9881,-283.4395 2292.3575,-281.2828 2267.4807,-280 1559.3521,-243.4857 1379.7137,-294.9987 672.4807,-244 467.5003,-229.2188 407.8436,-254.7722 213.4807,-188 174.7253,-174.6858 134.8546,-146.4151 115.493,-131.5659"/>
<polygon fill="#191970" stroke="#191970" points="2342.7096,-288.9241 2352.9787,-286.3173 2343.3253,-281.9512 2342.7096,-288.9241"/>
</g>
<!-- Node227&#45;&gt;Node181 -->
<g id="edge106" class="edge">
<title>Node227&#45;&gt;Node181</title>
<path fill="none" stroke="#191970" d="M2342.4548,-283.9381C2328.8779,-282.4433 2314.1234,-280.989 2300.4807,-280 2048.472,-261.7303 1245.0617,-240.3422 1043.6261,-235.1689"/>
<polygon fill="#191970" stroke="#191970" points="2342.2396,-287.436 2352.5697,-285.0822 2343.0264,-280.4804 2342.2396,-287.436"/>
</g>
<!-- Node227&#45;&gt;Node182 -->
<g id="edge90" class="edge">
<title>Node227&#45;&gt;Node182</title>
<path fill="none" stroke="#191970" d="M2342.9937,-285.0458C2325.5071,-283.3363 2305.6159,-281.4806 2287.4807,-280 1930.7686,-250.8773 1813.354,-335.9806 1487.4807,-188 1455.66,-173.5501 1424.3648,-146.0329 1409.1042,-131.5145"/>
<polygon fill="#191970" stroke="#191970" points="2342.6848,-288.5322 2352.9803,-286.0315 2343.3724,-281.5661 2342.6848,-288.5322"/>
</g>
<!-- Node227&#45;&gt;Node184 -->
<g id="edge91" class="edge">
<title>Node227&#45;&gt;Node184</title>
<path fill="none" stroke="#191970" d="M2342.6789,-282.4692C2228.4986,-264.4233 1951.3256,-217.985 1921.4807,-188 1906.4418,-172.8905 1905.7103,-145.9063 1906.544,-131.5686"/>
<polygon fill="#191970" stroke="#191970" points="2342.4609,-285.9779 2352.8835,-284.0749 2343.5491,-279.063 2342.4609,-285.9779"/>
</g>
<!-- Node227&#45;&gt;Node151 -->
<g id="edge92" class="edge">
<title>Node227&#45;&gt;Node151</title>
<path fill="none" stroke="#191970" d="M2342.7919,-284.4449C2329.1111,-282.9397 2314.2194,-281.3535 2300.4807,-280 2208.7987,-270.9679 1970.5231,-283.8888 1887.4807,-244 1861.2079,-231.3801 1840.1563,-202.8056 1830.3931,-187.7307"/>
<polygon fill="#191970" stroke="#191970" points="2342.6534,-287.951 2352.9784,-285.575 2343.4253,-280.9936 2342.6534,-287.951"/>
</g>
<!-- Node227&#45;&gt;Node185 -->
<g id="edge104" class="edge">
<title>Node227&#45;&gt;Node185</title>
<path fill="none" stroke="#191970" d="M2342.4203,-284.3491C2328.8433,-282.856 2314.0973,-281.2999 2300.4807,-280 2103.3958,-261.1851 2052.0514,-274.7983 1856.4807,-244 1766.1971,-229.7822 1661.9104,-202.1653 1609.7757,-187.5712"/>
<polygon fill="#191970" stroke="#191970" points="2342.2114,-287.8474 2352.5368,-285.4733 2342.9846,-280.8902 2342.2114,-287.8474"/>
</g>
<!-- Node228 -->
<g id="node45" class="node">
<title>Node228</title>
<g id="a_node45"><a xlink:href="addrdb_8h.html" target="_top" xlink:title="src/addrdb.h">
<polygon fill="#ffffff" stroke="#ff0000" points="3038.9807,-224.5 3038.9807,-243.5 3109.9807,-243.5 3109.9807,-224.5 3038.9807,-224.5"/>
<text text-anchor="middle" x="3074.4807" y="-231.5" font-family="Helvetica,sans-Serif" font-size="10.00" fill="#000000">src/addrdb.h</text>
</a>
</g>
</g>
<!-- Node227&#45;&gt;Node228 -->
<g id="edge77" class="edge">
<title>Node227&#45;&gt;Node228</title>
<path fill="none" stroke="#191970" d="M2440.2011,-287.1519C2543.0932,-280.9486 2790.0531,-265.066 2996.4807,-244 3010.3343,-242.5862 3025.531,-240.7115 3038.8012,-238.9677"/>
<polygon fill="#191970" stroke="#191970" points="2439.8899,-283.6642 2430.1174,-287.7566 2440.309,-290.6516 2439.8899,-283.6642"/>
</g>
<!-- Node229 -->
<g id="node46" class="node">
<title>Node229</title>
<g id="a_node46"><a xlink:href="bloom_8h.html" target="_top" xlink:title="src/bloom.h">
<polygon fill="#ffffff" stroke="#ff0000" points="2496.4807,-224.5 2496.4807,-243.5 2564.4807,-243.5 2564.4807,-224.5 2496.4807,-224.5"/>
<text text-anchor="middle" x="2530.4807" y="-231.5" font-family="Helvetica,sans-Serif" font-size="10.00" fill="#000000">src/bloom.h</text>
</a>
</g>
</g>
<!-- Node227&#45;&gt;Node229 -->
<g id="edge81" class="edge">
<title>Node227&#45;&gt;Node229</title>
<path fill="none" stroke="#191970" d="M2424.9428,-276.5189C2450.2575,-266.3201 2484.3909,-252.5685 2506.8975,-243.5011"/>
<polygon fill="#191970" stroke="#191970" points="2423.3432,-273.3899 2415.3756,-280.3733 2425.9591,-279.8827 2423.3432,-273.3899"/>
</g>
<!-- Node203 -->
<g id="node47" class="node">
<title>Node203</title>
<g id="a_node47"><a xlink:href="merkleblock_8h.html" target="_top" xlink:title="src/merkleblock.h">
<polygon fill="#ffffff" stroke="#000000" points="2500.4807,-168.5 2500.4807,-187.5 2594.4807,-187.5 2594.4807,-168.5 2500.4807,-168.5"/>
<text text-anchor="middle" x="2547.4807" y="-175.5" font-family="Helvetica,sans-Serif" font-size="10.00" fill="#000000">src/merkleblock.h</text>
</a>
</g>
</g>
<!-- Node227&#45;&gt;Node203 -->
<g id="edge96" class="edge">
<title>Node227&#45;&gt;Node203</title>
<path fill="none" stroke="#191970" d="M2413.2369,-274.3802C2446.0709,-250.807 2507.3025,-206.8459 2534.2139,-187.5249"/>
<polygon fill="#191970" stroke="#191970" points="2410.8632,-271.7757 2404.7812,-280.4509 2414.9457,-277.462 2410.8632,-271.7757"/>
</g>
<!-- Node232 -->
<g id="node48" class="node">
<title>Node232</title>
<g id="a_node48"><a xlink:href="dbwrapper_8h.html" target="_top" xlink:title="src/dbwrapper.h">
<polygon fill="#ffffff" stroke="#ff0000" points="2660.4807,-224.5 2660.4807,-243.5 2746.4807,-243.5 2746.4807,-224.5 2660.4807,-224.5"/>
<text text-anchor="middle" x="2703.4807" y="-231.5" font-family="Helvetica,sans-Serif" font-size="10.00" fill="#000000">src/dbwrapper.h</text>
</a>
</g>
</g>
<!-- Node227&#45;&gt;Node232 -->
<g id="edge93" class="edge">
<title>Node227&#45;&gt;Node232</title>
<path fill="none" stroke="#191970" d="M2440.092,-281.2749C2500.4548,-270.4406 2602.4942,-252.1258 2660.2479,-241.7597"/>
<polygon fill="#191970" stroke="#191970" points="2439.2753,-277.8655 2430.0509,-283.0771 2440.512,-284.7554 2439.2753,-277.8655"/>
</g>
<!-- Node234 -->
<g id="node49" class="node">
<title>Node234</title>
<g id="a_node49"><a xlink:href="netaddress_8h.html" target="_top" xlink:title="src/netaddress.h">
<polygon fill="#ffffff" stroke="#ff0000" points="2848.9807,-224.5 2848.9807,-243.5 2937.9807,-243.5 2937.9807,-224.5 2848.9807,-224.5"/>
<text text-anchor="middle" x="2893.4807" y="-231.5" font-family="Helvetica,sans-Serif" font-size="10.00" fill="#000000">src/netaddress.h</text>
</a>
</g>
</g>
<!-- Node227&#45;&gt;Node234 -->
<g id="edge97" class="edge">
<title>Node227&#45;&gt;Node234</title>
<path fill="none" stroke="#191970" d="M2440.1888,-284.5664C2537.5248,-273.7082 2754.7711,-249.4736 2848.7428,-238.9907"/>
<polygon fill="#191970" stroke="#191970" points="2439.5885,-281.1116 2430.0382,-285.6988 2440.3647,-288.0684 2439.5885,-281.1116"/>
</g>
<!-- Node237 -->
<g id="node50" class="node">
<title>Node237</title>
<g id="a_node50"><a xlink:href="netbase_8h.html" target="_top" xlink:title="src/netbase.h">
<polygon fill="#ffffff" stroke="#ff0000" points="2952.4807,-168.5 2952.4807,-187.5 3028.4807,-187.5 3028.4807,-168.5 2952.4807,-168.5"/>
<text text-anchor="middle" x="2990.4807" y="-175.5" font-family="Helvetica,sans-Serif" font-size="10.00" fill="#000000">src/netbase.h</text>
</a>
</g>
</g>
<!-- Node227&#45;&gt;Node237 -->
<g id="edge103" class="edge">
<title>Node227&#45;&gt;Node237</title>
<path fill="none" stroke="#191970" d="M2440.6362,-288.3917C2568.4871,-283.8647 2904.5009,-269.6438 2947.4807,-244 2969.0899,-231.1069 2981.8497,-202.6519 2987.3178,-187.6659"/>
<polygon fill="#191970" stroke="#191970" points="2440.23,-284.9037 2430.3583,-288.7506 2440.4744,-291.8994 2440.23,-284.9037"/>
</g>
<!-- Node228&#45;&gt;Node27 -->
<g id="edge78" class="edge">
<title>Node228&#45;&gt;Node27</title>
<path fill="none" stroke="#191970" d="M3097.8712,-218.769C3113.1106,-208.8456 3132.5316,-196.1994 3145.6723,-187.6427"/>
<polygon fill="#191970" stroke="#191970" points="3095.9309,-215.8558 3089.4607,-224.2455 3099.7506,-221.7218 3095.9309,-215.8558"/>
</g>
<!-- Node228&#45;&gt;Node92 -->
<g id="edge79" class="edge">
<title>Node228&#45;&gt;Node92</title>
<path fill="none" stroke="#191970" d="M3074.4807,-214.1575C3074.4807,-205.155 3074.4807,-194.9199 3074.4807,-187.6427"/>
<polygon fill="#191970" stroke="#191970" points="3070.9808,-214.2455 3074.4807,-224.2455 3077.9808,-214.2456 3070.9808,-214.2455"/>
</g>
<!-- Node229&#45;&gt;Node31 -->
<g id="edge82" class="edge">
<title>Node229&#45;&gt;Node31</title>
<path fill="none" stroke="#191970" d="M2499.9971,-220.4994C2462.8951,-204.7698 2397.9458,-179.4748 2339.4807,-168 2260.7136,-152.5406 1696.0491,-129.5621 1541.4984,-123.5067"/>
<polygon fill="#191970" stroke="#191970" points="2498.6821,-223.7437 2509.252,-224.4704 2501.4423,-217.3109 2498.6821,-223.7437"/>
</g>
<!-- Node229&#45;&gt;Node92 -->
<g id="edge88" class="edge">
<title>Node229&#45;&gt;Node92</title>
<path fill="none" stroke="#191970" d="M2574.9299,-230.1782C2694.3819,-219.8792 3014.8641,-192.0507 3037.4807,-188 3040.4936,-187.4604 3043.6184,-186.7918 3046.7176,-186.058"/>
<polygon fill="#191970" stroke="#191970" points="2574.3399,-226.7159 2564.6774,-231.0616 2574.941,-233.6901 2574.3399,-226.7159"/>
</g>
<!-- Node229&#45;&gt;Node203 -->
<g id="edge83" class="edge">
<title>Node229&#45;&gt;Node203</title>
<path fill="none" stroke="#191970" d="M2536.4143,-214.4538C2539.1688,-205.3803 2542.32,-194.9998 2544.5534,-187.6427"/>
<polygon fill="#191970" stroke="#191970" points="2532.9977,-213.66 2533.4419,-224.2455 2539.6958,-215.6934 2532.9977,-213.66"/>
</g>
<!-- Node203&#45;&gt;Node41 -->
<g id="edge86" class="edge">
<title>Node203&#45;&gt;Node41</title>
<path fill="none" stroke="#191970" d="M2549.2328,-158.0804C2549.3611,-143.2305 2546.8321,-123.5896 2534.4807,-112 2527.9939,-105.9133 2011.8705,-41.3269 1825.5923,-18.1887"/>
<polygon fill="#191970" stroke="#191970" points="2545.7262,-158.1311 2548.7353,-168.2896 2552.7179,-158.4719 2545.7262,-158.1311"/>
</g>
<!-- Node203&#45;&gt;Node91 -->
<g id="edge84" class="edge">
<title>Node203&#45;&gt;Node91</title>
<path fill="none" stroke="#191970" d="M2501.4303,-165.7199C2462.8162,-155.4228 2408.4668,-140.9296 2373.1099,-131.5011"/>
<polygon fill="#191970" stroke="#191970" points="2500.8162,-169.1784 2511.3804,-168.3733 2502.6199,-162.4147 2500.8162,-169.1784"/>
</g>
<!-- Node203&#45;&gt;Node56 -->
<g id="edge85" class="edge">
<title>Node203&#45;&gt;Node56</title>
<path fill="none" stroke="#191970" d="M2525.0466,-162.49C2510.7553,-152.6096 2492.6891,-140.1194 2480.4281,-131.6427"/>
<polygon fill="#191970" stroke="#191970" points="2523.1556,-165.4376 2533.3716,-168.2455 2527.1364,-159.6797 2523.1556,-165.4376"/>
</g>
<!-- Node203&#45;&gt;Node85 -->
<g id="edge87" class="edge">
<title>Node203&#45;&gt;Node85</title>
<path fill="none" stroke="#191970" d="M2490.186,-170.8061C2405.2179,-160.1374 2246.6091,-140.2224 2160.6003,-129.4231"/>
<polygon fill="#191970" stroke="#191970" points="2489.815,-174.2869 2500.1731,-172.06 2490.6871,-167.3414 2489.815,-174.2869"/>
</g>
<!-- Node234&#45;&gt;Node92 -->
<g id="edge98" class="edge">
<title>Node234&#45;&gt;Node92</title>
<path fill="none" stroke="#191970" d="M2934.3229,-221.3637C2968.6353,-210.7478 3016.7419,-195.8639 3046.7351,-186.5843"/>
<polygon fill="#191970" stroke="#191970" points="2933.1144,-218.0739 2924.5957,-224.3733 2935.1834,-224.7611 2933.1144,-218.0739"/>
</g>
<!-- Node234&#45;&gt;Node118 -->
<g id="edge99" class="edge">
<title>Node234&#45;&gt;Node118</title>
<path fill="none" stroke="#191970" d="M2890.2917,-214.1575C2888.8449,-205.155 2887.2,-194.9199 2886.0304,-187.6427"/>
<polygon fill="#191970" stroke="#191970" points="2886.8705,-214.9276 2891.913,-224.2455 2893.7818,-213.8168 2886.8705,-214.9276"/>
</g>
<!-- Node234&#45;&gt;Node237 -->
<g id="edge100" class="edge">
<title>Node234&#45;&gt;Node237</title>
<path fill="none" stroke="#191970" d="M2919.3823,-219.0465C2936.6416,-209.0824 2958.8182,-196.2794 2973.7782,-187.6427"/>
<polygon fill="#191970" stroke="#191970" points="2917.2872,-216.2146 2910.3768,-224.2455 2920.7871,-222.2768 2917.2872,-216.2146"/>
</g>
<!-- Node237&#45;&gt;Node56 -->
<g id="edge101" class="edge">
<title>Node237&#45;&gt;Node56</title>
<path fill="none" stroke="#191970" d="M2942.0863,-167.9359C2786.2228,-144.3624 2613.9305,-131.292 2525.4954,-125.5283"/>
<polygon fill="#191970" stroke="#191970" points="2941.9134,-171.4501 2952.3279,-169.5038 2942.9728,-164.5307 2941.9134,-171.4501"/>
</g>
<!-- Node237&#45;&gt;Node119 -->
<g id="edge102" class="edge">
<title>Node237&#45;&gt;Node119</title>
<path fill="none" stroke="#191970" d="M2942.1222,-167.7581C2866.6661,-152.6619 2790.0846,-138.3986 2743.555,-129.8507"/>
<polygon fill="#191970" stroke="#191970" points="2941.7828,-171.2597 2952.2761,-169.7961 2943.1604,-164.3966 2941.7828,-171.2597"/>
</g>
</g>
</svg>
