<?xml version="1.0" encoding="UTF-8" standalone="no"?>
<!DOCTYPE svg PUBLIC "-//W3C//DTD SVG 1.1//EN"
 "http://www.w3.org/Graphics/SVG/1.1/DTD/svg11.dtd">
<!-- Generated by graphviz version 2.40.1 (20161225.0304)
 -->
<!-- Title: src/script/sign.h Pages: 1 -->
<svg width="1867pt" height="420pt"
 viewBox="0.00 0.00 1866.65 420.00" xmlns="http://www.w3.org/2000/svg" xmlns:xlink="http://www.w3.org/1999/xlink">
<g id="graph0" class="graph" transform="scale(1 1) rotate(0) translate(4 416)">
<title>src/script/sign.h</title>
<polygon fill="#ffffff" stroke="transparent" points="-4,4 -4,-416 1862.6543,-416 1862.6543,4 -4,4"/>
<!-- Node0 -->
<g id="node1" class="node">
<title>Node0</title>
<polygon fill="#bfbfbf" stroke="#000000" points="1270,-392.5 1270,-411.5 1356,-411.5 1356,-392.5 1270,-392.5"/>
<text text-anchor="middle" x="1313" y="-399.5" font-family="Helvetica,sans-Serif" font-size="10.00" fill="#000000">src/script/sign.h</text>
</g>
<!-- Node1 -->
<g id="node2" class="node">
<title>Node1</title>
<g id="a_node2"><a xlink:href="interpreter_8h.html" target="_top" xlink:title="script/interpreter.h">
<polygon fill="#ffffff" stroke="#000000" points="1265.5,-336.5 1265.5,-355.5 1360.5,-355.5 1360.5,-336.5 1265.5,-336.5"/>
<text text-anchor="middle" x="1313" y="-343.5" font-family="Helvetica,sans-Serif" font-size="10.00" fill="#000000">script/interpreter.h</text>
</a>
</g>
</g>
<!-- Node0&#45;&gt;Node1 -->
<g id="edge1" class="edge">
<title>Node0&#45;&gt;Node1</title>
<path fill="none" stroke="#191970" d="M1313,-392.2455C1313,-384.9382 1313,-374.6944 1313,-365.7046"/>
<polygon fill="#191970" stroke="#191970" points="1316.5001,-365.6426 1313,-355.6427 1309.5001,-365.6427 1316.5001,-365.6426"/>
</g>
<!-- Node2 -->
<g id="node3" class="node">
<title>Node2</title>
<g id="a_node3"><a xlink:href="script__error_8h.html" target="_top" xlink:title="script/script_error.h">
<polygon fill="#ffffff" stroke="#000000" points="461.5,-280.5 461.5,-299.5 562.5,-299.5 562.5,-280.5 461.5,-280.5"/>
<text text-anchor="middle" x="512" y="-287.5" font-family="Helvetica,sans-Serif" font-size="10.00" fill="#000000">script/script_error.h</text>
</a>
</g>
</g>
<!-- Node1&#45;&gt;Node2 -->
<g id="edge2" class="edge">
<title>Node1&#45;&gt;Node2</title>
<path fill="none" stroke="#191970" d="M1265.0834,-344.503C1147.5546,-340.5055 835.712,-327.9281 577,-300 575.691,-299.8587 574.3681,-299.7098 573.0351,-299.5544"/>
<polygon fill="#191970" stroke="#191970" points="573.0433,-296.0278 562.6841,-298.2495 572.1678,-302.9728 573.0433,-296.0278"/>
</g>
<!-- Node3 -->
<g id="node4" class="node">
<title>Node3</title>
<g id="a_node4"><a xlink:href="transaction_8h.html" target="_top" xlink:title="primitives/transaction.h">
<polygon fill="#ffffff" stroke="#000000" points="1254,-280.5 1254,-299.5 1372,-299.5 1372,-280.5 1254,-280.5"/>
<text text-anchor="middle" x="1313" y="-287.5" font-family="Helvetica,sans-Serif" font-size="10.00" fill="#000000">primitives/transaction.h</text>
</a>
</g>
</g>
<!-- Node1&#45;&gt;Node3 -->
<g id="edge3" class="edge">
<title>Node1&#45;&gt;Node3</title>
<path fill="none" stroke="#191970" d="M1313,-336.2455C1313,-328.9382 1313,-318.6944 1313,-309.7046"/>
<polygon fill="#191970" stroke="#191970" points="1316.5001,-309.6426 1313,-299.6427 1309.5001,-309.6427 1316.5001,-309.6426"/>
</g>
<!-- Node4 -->
<g id="node5" class="node">
<title>Node4</title>
<polygon fill="#ffffff" stroke="#bfbfbf" points="1427.5,-.5 1427.5,-19.5 1476.5,-19.5 1476.5,-.5 1427.5,-.5"/>
<text text-anchor="middle" x="1452" y="-7.5" font-family="Helvetica,sans-Serif" font-size="10.00" fill="#000000">stdint.h</text>
</g>
<!-- Node1&#45;&gt;Node4 -->
<g id="edge75" class="edge">
<title>Node1&#45;&gt;Node4</title>
<path fill="none" stroke="#191970" d="M1265.3483,-343.6534C1104.4072,-335.1019 591,-302.4574 591,-234 591,-234 591,-234 591,-122 591,-61.1322 652.5436,-72.9627 711,-56 779.171,-36.2183 1278.6848,-16.4203 1416.7363,-11.2811"/>
<polygon fill="#191970" stroke="#191970" points="1417.2773,-14.7636 1427.1411,-10.8961 1417.0184,-7.7684 1417.2773,-14.7636"/>
</g>
<!-- Node39 -->
<g id="node40" class="node">
<title>Node39</title>
<polygon fill="#ffffff" stroke="#bfbfbf" points="1636.5,-112.5 1636.5,-131.5 1677.5,-131.5 1677.5,-112.5 1636.5,-112.5"/>
<text text-anchor="middle" x="1657" y="-119.5" font-family="Helvetica,sans-Serif" font-size="10.00" fill="#000000">string</text>
</g>
<!-- Node1&#45;&gt;Node39 -->
<g id="edge76" class="edge">
<title>Node1&#45;&gt;Node39</title>
<path fill="none" stroke="#191970" d="M1360.7706,-338.0721C1470.816,-318.6004 1735.7035,-264.3888 1774,-188 1792.7011,-150.6974 1728.1068,-133.2975 1687.5162,-126.2015"/>
<polygon fill="#191970" stroke="#191970" points="1687.965,-122.7285 1677.5325,-124.5763 1686.8402,-129.6376 1687.965,-122.7285"/>
</g>
<!-- Node41 -->
<g id="node42" class="node">
<title>Node41</title>
<polygon fill="#ffffff" stroke="#bfbfbf" points="1734,-112.5 1734,-131.5 1778,-131.5 1778,-112.5 1734,-112.5"/>
<text text-anchor="middle" x="1756" y="-119.5" font-family="Helvetica,sans-Serif" font-size="10.00" fill="#000000">vector</text>
</g>
<!-- Node1&#45;&gt;Node41 -->
<g id="edge74" class="edge">
<title>Node1&#45;&gt;Node41</title>
<path fill="none" stroke="#191970" d="M1360.7171,-344.4852C1480.5022,-339.5696 1788.6966,-319.6712 1850,-244 1880.7224,-206.0771 1819.8455,-160.21 1782.3733,-137.0068"/>
<polygon fill="#191970" stroke="#191970" points="1783.7928,-133.776 1773.4208,-131.6147 1780.1812,-139.7724 1783.7928,-133.776"/>
</g>
<!-- Node3&#45;&gt;Node4 -->
<g id="edge4" class="edge">
<title>Node3&#45;&gt;Node4</title>
<path fill="none" stroke="#191970" d="M1253.7936,-286.5137C1087.6299,-275.9446 629,-241.0612 629,-178 629,-178 629,-178 629,-122 629,-41.1241 1261.053,-15.9846 1417.3617,-11.0041"/>
<polygon fill="#191970" stroke="#191970" points="1417.4831,-14.5022 1427.3692,-10.6923 1417.2651,-7.5055 1417.4831,-14.5022"/>
</g>
<!-- Node5 -->
<g id="node6" class="node">
<title>Node5</title>
<g id="a_node6"><a xlink:href="amount_8h.html" target="_top" xlink:title="amount.h">
<polygon fill="#ffffff" stroke="#000000" points="1783.5,-224.5 1783.5,-243.5 1840.5,-243.5 1840.5,-224.5 1783.5,-224.5"/>
<text text-anchor="middle" x="1812" y="-231.5" font-family="Helvetica,sans-Serif" font-size="10.00" fill="#000000">amount.h</text>
</a>
</g>
</g>
<!-- Node3&#45;&gt;Node5 -->
<g id="edge5" class="edge">
<title>Node3&#45;&gt;Node5</title>
<path fill="none" stroke="#191970" d="M1372.2014,-283.3562C1475.6505,-271.7466 1686.5599,-248.0774 1773.3595,-238.3364"/>
<polygon fill="#191970" stroke="#191970" points="1773.7667,-241.8128 1783.314,-237.2193 1772.986,-234.8564 1773.7667,-241.8128"/>
</g>
<!-- Node6 -->
<g id="node7" class="node">
<title>Node6</title>
<g id="a_node7"><a xlink:href="script_8h.html" target="_top" xlink:title="script/script.h">
<polygon fill="#ffffff" stroke="#000000" points="1275,-224.5 1275,-243.5 1351,-243.5 1351,-224.5 1275,-224.5"/>
<text text-anchor="middle" x="1313" y="-231.5" font-family="Helvetica,sans-Serif" font-size="10.00" fill="#000000">script/script.h</text>
</a>
</g>
</g>
<!-- Node3&#45;&gt;Node6 -->
<g id="edge7" class="edge">
<title>Node3&#45;&gt;Node6</title>
<path fill="none" stroke="#191970" d="M1313,-280.2455C1313,-272.9382 1313,-262.6944 1313,-253.7046"/>
<polygon fill="#191970" stroke="#191970" points="1316.5001,-253.6426 1313,-243.6427 1309.5001,-253.6427 1316.5001,-253.6426"/>
</g>
<!-- Node32 -->
<g id="node33" class="node">
<title>Node32</title>
<g id="a_node33"><a xlink:href="serialize_8h.html" target="_top" xlink:title="serialize.h">
<polygon fill="#ffffff" stroke="#000000" points="1046.5,-168.5 1046.5,-187.5 1107.5,-187.5 1107.5,-168.5 1046.5,-168.5"/>
<text text-anchor="middle" x="1077" y="-175.5" font-family="Helvetica,sans-Serif" font-size="10.00" fill="#000000">serialize.h</text>
</a>
</g>
</g>
<!-- Node3&#45;&gt;Node32 -->
<g id="edge65" class="edge">
<title>Node3&#45;&gt;Node32</title>
<path fill="none" stroke="#191970" d="M1292.8788,-280.4509C1251.0784,-260.6135 1154.7027,-214.8758 1106.1194,-191.8194"/>
<polygon fill="#191970" stroke="#191970" points="1107.6052,-188.6504 1097.0703,-187.5249 1104.6039,-194.9744 1107.6052,-188.6504"/>
</g>
<!-- Node45 -->
<g id="node46" class="node">
<title>Node45</title>
<g id="a_node46"><a xlink:href="uint256_8h.html" target="_top" xlink:title="uint256.h">
<polygon fill="#ffffff" stroke="#000000" points="1634,-224.5 1634,-243.5 1690,-243.5 1690,-224.5 1634,-224.5"/>
<text text-anchor="middle" x="1662" y="-231.5" font-family="Helvetica,sans-Serif" font-size="10.00" fill="#000000">uint256.h</text>
</a>
</g>
</g>
<!-- Node3&#45;&gt;Node45 -->
<g id="edge66" class="edge">
<title>Node3&#45;&gt;Node45</title>
<path fill="none" stroke="#191970" d="M1372.2031,-280.5004C1444.0844,-268.9664 1563.2105,-249.8516 1623.9074,-240.1123"/>
<polygon fill="#191970" stroke="#191970" points="1624.5154,-243.5596 1633.8345,-238.5194 1623.4063,-236.648 1624.5154,-243.5596"/>
</g>
<!-- Node5&#45;&gt;Node4 -->
<g id="edge6" class="edge">
<title>Node5&#45;&gt;Node4</title>
<path fill="none" stroke="#191970" d="M1814.2768,-224.2628C1818.8271,-202.3786 1826.8392,-148.3788 1805,-112 1780.3621,-70.9594 1757.7891,-72.8905 1713,-56 1635.4285,-26.7468 1537.7554,-15.8848 1486.7059,-12.0168"/>
<polygon fill="#191970" stroke="#191970" points="1486.7674,-8.5124 1476.5441,-11.2935 1486.2703,-15.4947 1486.7674,-8.5124"/>
</g>
<!-- Node6&#45;&gt;Node4 -->
<g id="edge61" class="edge">
<title>Node6&#45;&gt;Node4</title>
<path fill="none" stroke="#191970" d="M1351.3256,-231.0947C1406.5062,-224.4705 1504.8105,-202.7949 1533,-132 1541.325,-111.0927 1524.5864,-62.6742 1520,-56 1510.8179,-42.6379 1496.3701,-32.0684 1483.149,-24.4479"/>
<polygon fill="#191970" stroke="#191970" points="1484.7325,-21.3252 1474.2717,-19.6452 1481.4016,-27.4819 1484.7325,-21.3252"/>
</g>
<!-- Node7 -->
<g id="node8" class="node">
<title>Node7</title>
<g id="a_node8"><a xlink:href="common_8h.html" target="_top" xlink:title="crypto/common.h">
<polygon fill="#ffffff" stroke="#000000" points="1379,-168.5 1379,-187.5 1471,-187.5 1471,-168.5 1379,-168.5"/>
<text text-anchor="middle" x="1425" y="-175.5" font-family="Helvetica,sans-Serif" font-size="10.00" fill="#000000">crypto/common.h</text>
</a>
</g>
</g>
<!-- Node6&#45;&gt;Node7 -->
<g id="edge8" class="edge">
<title>Node6&#45;&gt;Node7</title>
<path fill="none" stroke="#191970" d="M1332.2535,-224.3733C1350.0712,-215.4644 1376.7747,-202.1127 1396.9594,-192.0203"/>
<polygon fill="#191970" stroke="#191970" points="1398.6187,-195.1038 1405.9978,-187.5011 1395.4882,-188.8428 1398.6187,-195.1038"/>
</g>
<!-- Node8 -->
<g id="node9" class="node">
<title>Node8</title>
<polygon fill="#ffffff" stroke="#bfbfbf" points="1287.5,-56.5 1287.5,-75.5 1336.5,-75.5 1336.5,-56.5 1287.5,-56.5"/>
<text text-anchor="middle" x="1312" y="-63.5" font-family="Helvetica,sans-Serif" font-size="10.00" fill="#000000">string.h</text>
</g>
<!-- Node6&#45;&gt;Node8 -->
<g id="edge62" class="edge">
<title>Node6&#45;&gt;Node8</title>
<path fill="none" stroke="#191970" d="M1312.9434,-224.4862C1312.7853,-197.9293 1312.3367,-122.5651 1312.12,-86.1655"/>
<polygon fill="#191970" stroke="#191970" points="1315.6181,-85.8068 1312.0585,-75.8279 1308.6182,-85.8486 1315.6181,-85.8068"/>
</g>
<!-- Node11 -->
<g id="node12" class="node">
<title>Node11</title>
<g id="a_node12"><a xlink:href="prevector_8h.html" target="_top" xlink:title="prevector.h">
<polygon fill="#ffffff" stroke="#000000" points="1047.5,-112.5 1047.5,-131.5 1112.5,-131.5 1112.5,-112.5 1047.5,-112.5"/>
<text text-anchor="middle" x="1080" y="-119.5" font-family="Helvetica,sans-Serif" font-size="10.00" fill="#000000">prevector.h</text>
</a>
</g>
</g>
<!-- Node6&#45;&gt;Node11 -->
<g id="edge15" class="edge">
<title>Node6&#45;&gt;Node11</title>
<path fill="none" stroke="#191970" d="M1294.1446,-224.4244C1268.4457,-211.4235 1220.9319,-187.5651 1180,-168 1156.7375,-156.8807 1130.2185,-144.7046 1110.3372,-135.6742"/>
<polygon fill="#191970" stroke="#191970" points="1111.707,-132.4524 1101.1539,-131.5123 1108.8174,-138.8282 1111.707,-132.4524"/>
</g>
<!-- Node12 -->
<g id="node13" class="node">
<title>Node12</title>
<polygon fill="#ffffff" stroke="#bfbfbf" points="1217,-56.5 1217,-75.5 1269,-75.5 1269,-56.5 1217,-56.5"/>
<text text-anchor="middle" x="1243" y="-63.5" font-family="Helvetica,sans-Serif" font-size="10.00" fill="#000000">assert.h</text>
</g>
<!-- Node6&#45;&gt;Node12 -->
<g id="edge57" class="edge">
<title>Node6&#45;&gt;Node12</title>
<path fill="none" stroke="#191970" d="M1309.0359,-224.4862C1297.8748,-197.6994 1266.0235,-121.2565 1251.012,-85.2289"/>
<polygon fill="#191970" stroke="#191970" points="1254.1719,-83.7125 1247.095,-75.8279 1247.7104,-86.4048 1254.1719,-83.7125"/>
</g>
<!-- Node6&#45;&gt;Node32 -->
<g id="edge39" class="edge">
<title>Node6&#45;&gt;Node32</title>
<path fill="none" stroke="#191970" d="M1274.6531,-225.1728C1237.1209,-216.4948 1178.0701,-202.7396 1117.3245,-188.0536"/>
<polygon fill="#191970" stroke="#191970" points="1118.1066,-184.6419 1107.5637,-185.6892 1116.4586,-191.4451 1118.1066,-184.6419"/>
</g>
<!-- Node35 -->
<g id="node36" class="node">
<title>Node35</title>
<polygon fill="#ffffff" stroke="#bfbfbf" points="1207,-112.5 1207,-131.5 1247,-131.5 1247,-112.5 1207,-112.5"/>
<text text-anchor="middle" x="1227" y="-119.5" font-family="Helvetica,sans-Serif" font-size="10.00" fill="#000000">limits</text>
</g>
<!-- Node6&#45;&gt;Node35 -->
<g id="edge59" class="edge">
<title>Node6&#45;&gt;Node35</title>
<path fill="none" stroke="#191970" d="M1299.3468,-224.2112C1288.0458,-215.6105 1272.101,-202.2704 1261,-188 1249.7743,-173.5693 1240.5504,-154.868 1234.5562,-141.0587"/>
<polygon fill="#191970" stroke="#191970" points="1237.6954,-139.4923 1230.6224,-131.6041 1231.2325,-142.1814 1237.6954,-139.4923"/>
</g>
<!-- Node6&#45;&gt;Node39 -->
<g id="edge63" class="edge">
<title>Node6&#45;&gt;Node39</title>
<path fill="none" stroke="#191970" d="M1351.2387,-227.6038C1391.9711,-220.2387 1458.0195,-206.7042 1513,-188 1535.4296,-180.3695 1592.8982,-153.1127 1628.0792,-136.1051"/>
<polygon fill="#191970" stroke="#191970" points="1629.8916,-139.1162 1637.3635,-131.6047 1626.8382,-132.8172 1629.8916,-139.1162"/>
</g>
<!-- Node6&#45;&gt;Node41 -->
<g id="edge64" class="edge">
<title>Node6&#45;&gt;Node41</title>
<path fill="none" stroke="#191970" d="M1351.2313,-229.1602C1398.4351,-222.592 1480.8349,-209.1841 1549,-188 1570.2888,-181.3839 1574.0145,-175.523 1595,-168 1638.9524,-152.2437 1691.1291,-138.1511 1723.9085,-129.837"/>
<polygon fill="#191970" stroke="#191970" points="1724.9873,-133.1748 1733.8345,-127.3458 1723.2833,-126.3854 1724.9873,-133.1748"/>
</g>
<!-- Node43 -->
<g id="node44" class="node">
<title>Node43</title>
<polygon fill="#ffffff" stroke="#bfbfbf" points="1125.5,-168.5 1125.5,-187.5 1170.5,-187.5 1170.5,-168.5 1125.5,-168.5"/>
<text text-anchor="middle" x="1148" y="-175.5" font-family="Helvetica,sans-Serif" font-size="10.00" fill="#000000">climits</text>
</g>
<!-- Node6&#45;&gt;Node43 -->
<g id="edge58" class="edge">
<title>Node6&#45;&gt;Node43</title>
<path fill="none" stroke="#191970" d="M1284.6355,-224.3733C1255.6616,-214.5397 1210.7384,-199.293 1180.3858,-188.9916"/>
<polygon fill="#191970" stroke="#191970" points="1181.2894,-185.6022 1170.695,-185.7026 1179.0396,-192.2308 1181.2894,-185.6022"/>
</g>
<!-- Node44 -->
<g id="node45" class="node">
<title>Node44</title>
<polygon fill="#ffffff" stroke="#bfbfbf" points="1603.5,-168.5 1603.5,-187.5 1662.5,-187.5 1662.5,-168.5 1603.5,-168.5"/>
<text text-anchor="middle" x="1633" y="-175.5" font-family="Helvetica,sans-Serif" font-size="10.00" fill="#000000">stdexcept</text>
</g>
<!-- Node6&#45;&gt;Node44 -->
<g id="edge60" class="edge">
<title>Node6&#45;&gt;Node44</title>
<path fill="none" stroke="#191970" d="M1351.0746,-228.3733C1404.4286,-220.3252 1504.3974,-204.6494 1589,-188 1590.4412,-187.7164 1591.9073,-187.4207 1593.3869,-187.1161"/>
<polygon fill="#191970" stroke="#191970" points="1594.18,-190.5258 1603.228,-185.0135 1592.7174,-183.6803 1594.18,-190.5258"/>
</g>
<!-- Node7&#45;&gt;Node4 -->
<g id="edge9" class="edge">
<title>Node7&#45;&gt;Node4</title>
<path fill="none" stroke="#191970" d="M1464.8672,-168.3369C1483.8355,-161.5199 1504.7789,-150.2455 1516,-132 1538.4832,-95.4424 1498.005,-50.1947 1471.7822,-26.3999"/>
<polygon fill="#191970" stroke="#191970" points="1474.0129,-23.7009 1464.1873,-19.7374 1469.3967,-28.9631 1474.0129,-23.7009"/>
</g>
<!-- Node7&#45;&gt;Node8 -->
<g id="edge10" class="edge">
<title>Node7&#45;&gt;Node8</title>
<path fill="none" stroke="#191970" d="M1416.7946,-168.2731C1405.542,-155.1008 1384.4922,-131.0489 1365,-112 1354.5163,-101.7547 1342.1804,-90.9793 1332.0489,-82.4349"/>
<polygon fill="#191970" stroke="#191970" points="1334.0671,-79.5606 1324.1459,-75.843 1329.5833,-84.9361 1334.0671,-79.5606"/>
</g>
<!-- Node9 -->
<g id="node10" class="node">
<title>Node9</title>
<g id="a_node10"><a xlink:href="endian_8h.html" target="_top" xlink:title="compat/endian.h">
<polygon fill="#ffffff" stroke="#000000" points="1417.5,-112.5 1417.5,-131.5 1506.5,-131.5 1506.5,-112.5 1417.5,-112.5"/>
<text text-anchor="middle" x="1462" y="-119.5" font-family="Helvetica,sans-Serif" font-size="10.00" fill="#000000">compat/endian.h</text>
</a>
</g>
</g>
<!-- Node7&#45;&gt;Node9 -->
<g id="edge11" class="edge">
<title>Node7&#45;&gt;Node9</title>
<path fill="none" stroke="#191970" d="M1431.4449,-168.2455C1436.5382,-160.5367 1443.7908,-149.5598 1449.952,-140.2348"/>
<polygon fill="#191970" stroke="#191970" points="1453.0365,-141.9155 1455.6289,-131.6427 1447.1962,-138.0566 1453.0365,-141.9155"/>
</g>
<!-- Node9&#45;&gt;Node4 -->
<g id="edge14" class="edge">
<title>Node9&#45;&gt;Node4</title>
<path fill="none" stroke="#191970" d="M1465.6846,-112.1C1470.0108,-99.1379 1476.1062,-75.7426 1472,-56 1470.0586,-46.6655 1466.1196,-36.9017 1462.2469,-28.783"/>
<polygon fill="#191970" stroke="#191970" points="1465.3486,-27.161 1457.6945,-19.8354 1459.1097,-30.3353 1465.3486,-27.161"/>
</g>
<!-- Node10 -->
<g id="node11" class="node">
<title>Node10</title>
<g id="a_node11"><a xlink:href="byteswap_8h.html" target="_top" xlink:title="compat/byteswap.h">
<polygon fill="#ffffff" stroke="#000000" points="1361,-56.5 1361,-75.5 1463,-75.5 1463,-56.5 1361,-56.5"/>
<text text-anchor="middle" x="1412" y="-63.5" font-family="Helvetica,sans-Serif" font-size="10.00" fill="#000000">compat/byteswap.h</text>
</a>
</g>
</g>
<!-- Node9&#45;&gt;Node10 -->
<g id="edge12" class="edge">
<title>Node9&#45;&gt;Node10</title>
<path fill="none" stroke="#191970" d="M1453.2907,-112.2455C1446.1927,-104.2958 1435.9916,-92.8706 1427.505,-83.3656"/>
<polygon fill="#191970" stroke="#191970" points="1429.8805,-80.771 1420.6095,-75.6427 1424.6589,-85.4331 1429.8805,-80.771"/>
</g>
<!-- Node10&#45;&gt;Node4 -->
<g id="edge13" class="edge">
<title>Node10&#45;&gt;Node4</title>
<path fill="none" stroke="#191970" d="M1418.9675,-56.2455C1424.5311,-48.4564 1432.478,-37.3308 1439.1829,-27.9439"/>
<polygon fill="#191970" stroke="#191970" points="1442.148,-29.8144 1445.1124,-19.6427 1436.4519,-25.7457 1442.148,-29.8144"/>
</g>
<!-- Node11&#45;&gt;Node4 -->
<g id="edge18" class="edge">
<title>Node11&#45;&gt;Node4</title>
<path fill="none" stroke="#191970" d="M1098.9965,-112.3738C1117.2348,-103.1122 1145.5443,-88.6849 1170,-76 1186.9418,-67.2124 1189.9782,-62.282 1208,-56 1280.0912,-30.8706 1369.2158,-18.495 1417.3021,-13.2538"/>
<polygon fill="#191970" stroke="#191970" points="1417.9033,-16.71 1427.4831,-12.1846 1417.1722,-9.7483 1417.9033,-16.71"/>
</g>
<!-- Node11&#45;&gt;Node8 -->
<g id="edge19" class="edge">
<title>Node11&#45;&gt;Node8</title>
<path fill="none" stroke="#191970" d="M1112.7262,-115.0045C1150.1821,-106.8649 1213.573,-92.6855 1277.3435,-76.0634"/>
<polygon fill="#191970" stroke="#191970" points="1278.3808,-79.4097 1287.1639,-73.4847 1276.6029,-72.6392 1278.3808,-79.4097"/>
</g>
<!-- Node11&#45;&gt;Node12 -->
<g id="edge16" class="edge">
<title>Node11&#45;&gt;Node12</title>
<path fill="none" stroke="#191970" d="M1108.0207,-112.3733C1135.4985,-102.933 1177.497,-88.5041 1207.3414,-78.2508"/>
<polygon fill="#191970" stroke="#191970" points="1208.6379,-81.5063 1216.9581,-74.9469 1206.3634,-74.8861 1208.6379,-81.5063"/>
</g>
<!-- Node13 -->
<g id="node14" class="node">
<title>Node13</title>
<polygon fill="#ffffff" stroke="#bfbfbf" points="1047,-56.5 1047,-75.5 1095,-75.5 1095,-56.5 1047,-56.5"/>
<text text-anchor="middle" x="1071" y="-63.5" font-family="Helvetica,sans-Serif" font-size="10.00" fill="#000000">stdlib.h</text>
</g>
<!-- Node11&#45;&gt;Node13 -->
<g id="edge17" class="edge">
<title>Node11&#45;&gt;Node13</title>
<path fill="none" stroke="#191970" d="M1078.4323,-112.2455C1077.2579,-104.9382 1075.6116,-94.6944 1074.1668,-85.7046"/>
<polygon fill="#191970" stroke="#191970" points="1077.5922,-84.9606 1072.5497,-75.6427 1070.6809,-86.0714 1077.5922,-84.9606"/>
</g>
<!-- Node14 -->
<g id="node15" class="node">
<title>Node14</title>
<polygon fill="#ffffff" stroke="#bfbfbf" points="399.5,-56.5 399.5,-75.5 448.5,-75.5 448.5,-56.5 399.5,-56.5"/>
<text text-anchor="middle" x="424" y="-63.5" font-family="Helvetica,sans-Serif" font-size="10.00" fill="#000000">cstddef</text>
</g>
<!-- Node11&#45;&gt;Node14 -->
<g id="edge20" class="edge">
<title>Node11&#45;&gt;Node14</title>
<path fill="none" stroke="#191970" d="M1047.3516,-117.4885C1032.8681,-115.5983 1015.605,-113.4971 1000,-112 761.8909,-89.1559 699.1862,-113.8662 463,-76 461.5334,-75.7649 460.0415,-75.4999 458.5387,-75.2116"/>
<polygon fill="#191970" stroke="#191970" points="459.1305,-71.7583 448.6135,-73.0408 457.6347,-78.5967 459.1305,-71.7583"/>
</g>
<!-- Node15 -->
<g id="node16" class="node">
<title>Node15</title>
<polygon fill="#ffffff" stroke="#bfbfbf" points="1113.5,-56.5 1113.5,-75.5 1160.5,-75.5 1160.5,-56.5 1113.5,-56.5"/>
<text text-anchor="middle" x="1137" y="-63.5" font-family="Helvetica,sans-Serif" font-size="10.00" fill="#000000">iterator</text>
</g>
<!-- Node11&#45;&gt;Node15 -->
<g id="edge21" class="edge">
<title>Node11&#45;&gt;Node15</title>
<path fill="none" stroke="#191970" d="M1089.9286,-112.2455C1098.1838,-104.1352 1110.1209,-92.4075 1119.9082,-82.7919"/>
<polygon fill="#191970" stroke="#191970" points="1122.5046,-85.1476 1127.1851,-75.6427 1117.5989,-80.1542 1122.5046,-85.1476"/>
</g>
<!-- Node16 -->
<g id="node17" class="node">
<title>Node16</title>
<polygon fill="#ffffff" stroke="#bfbfbf" points="0,-.5 0,-19.5 62,-19.5 62,-.5 0,-.5"/>
<text text-anchor="middle" x="31" y="-7.5" font-family="Helvetica,sans-Serif" font-size="10.00" fill="#000000">type_traits</text>
</g>
<!-- Node11&#45;&gt;Node16 -->
<g id="edge22" class="edge">
<title>Node11&#45;&gt;Node16</title>
<path fill="none" stroke="#191970" d="M1047.3484,-117.5208C1032.8644,-115.6367 1015.6017,-113.5312 1000,-112 776.5031,-90.065 712.2795,-136.4581 496,-76 477.2395,-70.7558 475.7025,-61.4474 457,-56 294.7243,-8.7349 242.8194,-47.4428 72.4075,-19.9901"/>
<polygon fill="#191970" stroke="#191970" points="72.7864,-16.5051 62.3474,-18.3154 71.6369,-23.4101 72.7864,-16.5051"/>
</g>
<!-- Node17 -->
<g id="node18" class="node">
<title>Node17</title>
<g id="a_node18"><a xlink:href="compat_8h.html" target="_top" xlink:title="compat.h">
<polygon fill="#ffffff" stroke="#000000" points="505.5,-56.5 505.5,-75.5 562.5,-75.5 562.5,-56.5 505.5,-56.5"/>
<text text-anchor="middle" x="534" y="-63.5" font-family="Helvetica,sans-Serif" font-size="10.00" fill="#000000">compat.h</text>
</a>
</g>
</g>
<!-- Node11&#45;&gt;Node17 -->
<g id="edge23" class="edge">
<title>Node11&#45;&gt;Node17</title>
<path fill="none" stroke="#191970" d="M1047.3274,-117.7213C1032.8394,-115.8742 1015.5795,-113.7424 1000,-112 841.6858,-94.2946 652.7037,-76.7428 572.7581,-69.4829"/>
<polygon fill="#191970" stroke="#191970" points="572.937,-65.9849 562.6619,-68.5682 572.3053,-72.9564 572.937,-65.9849"/>
</g>
<!-- Node17&#45;&gt;Node16 -->
<g id="edge24" class="edge">
<title>Node17&#45;&gt;Node16</title>
<path fill="none" stroke="#191970" d="M505.431,-58.7556C500.6358,-57.7127 495.6935,-56.743 491,-56 309.2059,-27.2213 257.604,-49.9864 72.414,-19.9989"/>
<polygon fill="#191970" stroke="#191970" points="72.7799,-16.512 62.3436,-18.338 71.6407,-23.4187 72.7799,-16.512"/>
</g>
<!-- Node18 -->
<g id="node19" class="node">
<title>Node18</title>
<polygon fill="#ffffff" stroke="#bfbfbf" points="1094,-.5 1094,-19.5 1138,-19.5 1138,-.5 1094,-.5"/>
<text text-anchor="middle" x="1116" y="-7.5" font-family="Helvetica,sans-Serif" font-size="10.00" fill="#000000">fcntl.h</text>
</g>
<!-- Node17&#45;&gt;Node18 -->
<g id="edge25" class="edge">
<title>Node17&#45;&gt;Node18</title>
<path fill="none" stroke="#191970" d="M562.5598,-58.6959C567.3561,-57.6601 572.3011,-56.7084 577,-56 797.5366,-22.7544 860.9387,-61.8779 1083.7724,-19.7953"/>
<polygon fill="#191970" stroke="#191970" points="1084.6579,-23.1893 1093.8172,-17.8642 1083.3362,-16.3152 1084.6579,-23.1893"/>
</g>
<!-- Node19 -->
<g id="node20" class="node">
<title>Node19</title>
<polygon fill="#ffffff" stroke="#bfbfbf" points="80.5,-.5 80.5,-19.5 151.5,-19.5 151.5,-.5 80.5,-.5"/>
<text text-anchor="middle" x="116" y="-7.5" font-family="Helvetica,sans-Serif" font-size="10.00" fill="#000000">sys/mman.h</text>
</g>
<!-- Node17&#45;&gt;Node19 -->
<g id="edge26" class="edge">
<title>Node17&#45;&gt;Node19</title>
<path fill="none" stroke="#191970" d="M505.4157,-58.8491C500.6223,-57.7949 495.6846,-56.7973 491,-56 348.8215,-31.802 308.3704,-43.4832 162.0486,-20.0016"/>
<polygon fill="#191970" stroke="#191970" points="162.2257,-16.4842 151.7922,-18.3264 161.0972,-23.3927 162.2257,-16.4842"/>
</g>
<!-- Node20 -->
<g id="node21" class="node">
<title>Node20</title>
<polygon fill="#ffffff" stroke="#bfbfbf" points="170,-.5 170,-19.5 240,-19.5 240,-.5 170,-.5"/>
<text text-anchor="middle" x="205" y="-7.5" font-family="Helvetica,sans-Serif" font-size="10.00" fill="#000000">sys/select.h</text>
</g>
<!-- Node17&#45;&gt;Node20 -->
<g id="edge27" class="edge">
<title>Node17&#45;&gt;Node20</title>
<path fill="none" stroke="#191970" d="M505.3873,-59.0063C500.5974,-57.9332 495.6682,-56.8885 491,-56 387.3082,-36.2636 357.598,-39.8275 249.9761,-20.064"/>
<polygon fill="#191970" stroke="#191970" points="250.4863,-16.5989 240.0146,-18.2095 249.2051,-23.4807 250.4863,-16.5989"/>
</g>
<!-- Node21 -->
<g id="node22" class="node">
<title>Node21</title>
<polygon fill="#ffffff" stroke="#bfbfbf" points="258.5,-.5 258.5,-19.5 331.5,-19.5 331.5,-.5 258.5,-.5"/>
<text text-anchor="middle" x="295" y="-7.5" font-family="Helvetica,sans-Serif" font-size="10.00" fill="#000000">sys/socket.h</text>
</g>
<!-- Node17&#45;&gt;Node21 -->
<g id="edge28" class="edge">
<title>Node17&#45;&gt;Node21</title>
<path fill="none" stroke="#191970" d="M505.171,-59.2451C464.6028,-49.7396 390.2136,-32.3095 341.6957,-20.9413"/>
<polygon fill="#191970" stroke="#191970" points="342.2915,-17.4861 331.7567,-18.6125 340.6946,-24.3015 342.2915,-17.4861"/>
</g>
<!-- Node22 -->
<g id="node23" class="node">
<title>Node22</title>
<polygon fill="#ffffff" stroke="#bfbfbf" points="350,-.5 350,-19.5 418,-19.5 418,-.5 350,-.5"/>
<text text-anchor="middle" x="384" y="-7.5" font-family="Helvetica,sans-Serif" font-size="10.00" fill="#000000">sys/types.h</text>
</g>
<!-- Node17&#45;&gt;Node22 -->
<g id="edge29" class="edge">
<title>Node17&#45;&gt;Node22</title>
<path fill="none" stroke="#191970" d="M508.2141,-56.3733C483.5953,-47.1822 446.31,-33.2624 419.0125,-23.0713"/>
<polygon fill="#191970" stroke="#191970" points="420.042,-19.7198 409.4494,-19.5011 417.5937,-26.2777 420.042,-19.7198"/>
</g>
<!-- Node23 -->
<g id="node24" class="node">
<title>Node23</title>
<polygon fill="#ffffff" stroke="#bfbfbf" points="436.5,-.5 436.5,-19.5 483.5,-19.5 483.5,-.5 436.5,-.5"/>
<text text-anchor="middle" x="460" y="-7.5" font-family="Helvetica,sans-Serif" font-size="10.00" fill="#000000">net/if.h</text>
</g>
<!-- Node17&#45;&gt;Node23 -->
<g id="edge30" class="edge">
<title>Node17&#45;&gt;Node23</title>
<path fill="none" stroke="#191970" d="M521.1102,-56.2455C510.0746,-47.8943 493.9708,-35.7076 481.0647,-25.9408"/>
<polygon fill="#191970" stroke="#191970" points="482.8283,-22.8862 472.7421,-19.6427 478.6041,-28.4681 482.8283,-22.8862"/>
</g>
<!-- Node24 -->
<g id="node25" class="node">
<title>Node24</title>
<polygon fill="#ffffff" stroke="#bfbfbf" points="501.5,-.5 501.5,-19.5 566.5,-19.5 566.5,-.5 501.5,-.5"/>
<text text-anchor="middle" x="534" y="-7.5" font-family="Helvetica,sans-Serif" font-size="10.00" fill="#000000">netinet/in.h</text>
</g>
<!-- Node17&#45;&gt;Node24 -->
<g id="edge31" class="edge">
<title>Node17&#45;&gt;Node24</title>
<path fill="none" stroke="#191970" d="M534,-56.2455C534,-48.9382 534,-38.6944 534,-29.7046"/>
<polygon fill="#191970" stroke="#191970" points="537.5001,-29.6426 534,-19.6427 530.5001,-29.6427 537.5001,-29.6426"/>
</g>
<!-- Node25 -->
<g id="node26" class="node">
<title>Node25</title>
<polygon fill="#ffffff" stroke="#bfbfbf" points="584.5,-.5 584.5,-19.5 655.5,-19.5 655.5,-.5 584.5,-.5"/>
<text text-anchor="middle" x="620" y="-7.5" font-family="Helvetica,sans-Serif" font-size="10.00" fill="#000000">netinet/tcp.h</text>
</g>
<!-- Node17&#45;&gt;Node25 -->
<g id="edge32" class="edge">
<title>Node17&#45;&gt;Node25</title>
<path fill="none" stroke="#191970" d="M548.9801,-56.2455C562.1751,-47.6534 581.6051,-35.0014 596.8079,-25.1018"/>
<polygon fill="#191970" stroke="#191970" points="598.7215,-28.0325 605.1916,-19.6427 594.9017,-22.1665 598.7215,-28.0325"/>
</g>
<!-- Node26 -->
<g id="node27" class="node">
<title>Node26</title>
<polygon fill="#ffffff" stroke="#bfbfbf" points="674,-.5 674,-19.5 736,-19.5 736,-.5 674,-.5"/>
<text text-anchor="middle" x="705" y="-7.5" font-family="Helvetica,sans-Serif" font-size="10.00" fill="#000000">arpa/inet.h</text>
</g>
<!-- Node17&#45;&gt;Node26 -->
<g id="edge33" class="edge">
<title>Node17&#45;&gt;Node26</title>
<path fill="none" stroke="#191970" d="M562.6216,-56.6269C590.933,-47.3553 634.4721,-33.0969 665.9501,-22.7883"/>
<polygon fill="#191970" stroke="#191970" points="667.2978,-26.0299 675.7119,-19.5914 665.1192,-19.3775 667.2978,-26.0299"/>
</g>
<!-- Node27 -->
<g id="node28" class="node">
<title>Node27</title>
<polygon fill="#ffffff" stroke="#bfbfbf" points="754,-.5 754,-19.5 808,-19.5 808,-.5 754,-.5"/>
<text text-anchor="middle" x="781" y="-7.5" font-family="Helvetica,sans-Serif" font-size="10.00" fill="#000000">ifaddrs.h</text>
</g>
<!-- Node17&#45;&gt;Node27 -->
<g id="edge34" class="edge">
<title>Node17&#45;&gt;Node27</title>
<path fill="none" stroke="#191970" d="M562.6653,-59.2605C567.4489,-58.1568 572.3623,-57.0361 577,-56 648.4679,-40.0338 669.1677,-38.3453 744.0105,-20.1387"/>
<polygon fill="#191970" stroke="#191970" points="745.0399,-23.4901 753.9189,-17.7096 743.3731,-16.6914 745.0399,-23.4901"/>
</g>
<!-- Node28 -->
<g id="node29" class="node">
<title>Node28</title>
<polygon fill="#ffffff" stroke="#bfbfbf" points="826,-.5 826,-19.5 874,-19.5 874,-.5 826,-.5"/>
<text text-anchor="middle" x="850" y="-7.5" font-family="Helvetica,sans-Serif" font-size="10.00" fill="#000000">limits.h</text>
</g>
<!-- Node17&#45;&gt;Node28 -->
<g id="edge35" class="edge">
<title>Node17&#45;&gt;Node28</title>
<path fill="none" stroke="#191970" d="M562.6136,-59.0112C567.4035,-57.9375 572.3324,-56.8914 577,-56 679.8416,-36.3608 710.0211,-43.2619 816.1375,-19.9241"/>
<polygon fill="#191970" stroke="#191970" points="816.9628,-23.3261 825.9572,-17.7268 815.4342,-16.495 816.9628,-23.3261"/>
</g>
<!-- Node29 -->
<g id="node30" class="node">
<title>Node29</title>
<polygon fill="#ffffff" stroke="#bfbfbf" points="892.5,-.5 892.5,-19.5 941.5,-19.5 941.5,-.5 892.5,-.5"/>
<text text-anchor="middle" x="917" y="-7.5" font-family="Helvetica,sans-Serif" font-size="10.00" fill="#000000">netdb.h</text>
</g>
<!-- Node17&#45;&gt;Node29 -->
<g id="edge36" class="edge">
<title>Node17&#45;&gt;Node29</title>
<path fill="none" stroke="#191970" d="M562.5902,-58.8832C567.3829,-57.8249 572.3188,-56.8171 577,-56 708.7368,-33.0062 747.0496,-46.7372 882.3291,-19.8176"/>
<polygon fill="#191970" stroke="#191970" points="883.1345,-23.2256 892.2394,-17.8081 881.7433,-16.3652 883.1345,-23.2256"/>
</g>
<!-- Node30 -->
<g id="node31" class="node">
<title>Node30</title>
<polygon fill="#ffffff" stroke="#bfbfbf" points="959.5,-.5 959.5,-19.5 1010.5,-19.5 1010.5,-.5 959.5,-.5"/>
<text text-anchor="middle" x="985" y="-7.5" font-family="Helvetica,sans-Serif" font-size="10.00" fill="#000000">unistd.h</text>
</g>
<!-- Node17&#45;&gt;Node30 -->
<g id="edge37" class="edge">
<title>Node17&#45;&gt;Node30</title>
<path fill="none" stroke="#191970" d="M562.576,-58.7989C567.3703,-57.7507 572.3105,-56.7681 577,-56 738.1477,-29.6043 784.5599,-50.1677 949.1537,-19.833"/>
<polygon fill="#191970" stroke="#191970" points="949.9504,-23.2446 959.1325,-17.9588 948.6582,-16.3649 949.9504,-23.2446"/>
</g>
<!-- Node31 -->
<g id="node32" class="node">
<title>Node31</title>
<polygon fill="#ffffff" stroke="#bfbfbf" points="1028.5,-.5 1028.5,-19.5 1075.5,-19.5 1075.5,-.5 1028.5,-.5"/>
<text text-anchor="middle" x="1052" y="-7.5" font-family="Helvetica,sans-Serif" font-size="10.00" fill="#000000">errno.h</text>
</g>
<!-- Node17&#45;&gt;Node31 -->
<g id="edge38" class="edge">
<title>Node17&#45;&gt;Node31</title>
<path fill="none" stroke="#191970" d="M562.5662,-58.7377C567.3617,-57.6969 572.3048,-56.7326 577,-56 768.9359,-26.0504 824.2623,-56.6417 1018.4308,-19.9384"/>
<polygon fill="#191970" stroke="#191970" points="1019.227,-23.3495 1028.3846,-18.0214 1017.9031,-16.4758 1019.227,-23.3495"/>
</g>
<!-- Node32&#45;&gt;Node4 -->
<g id="edge48" class="edge">
<title>Node32&#45;&gt;Node4</title>
<path fill="none" stroke="#191970" d="M1065.6217,-168.3672C1056.5086,-159.8617 1044.3885,-146.5737 1039,-132 1027.2851,-100.3157 1015.4709,-81.1709 1038,-56 1063.1357,-27.9167 1321.8646,-15.0676 1417.0798,-11.2642"/>
<polygon fill="#191970" stroke="#191970" points="1417.481,-14.7513 1427.3371,-10.8644 1417.2083,-7.7566 1417.481,-14.7513"/>
</g>
<!-- Node32&#45;&gt;Node8 -->
<g id="edge50" class="edge">
<title>Node32&#45;&gt;Node8</title>
<path fill="none" stroke="#191970" d="M1096.0684,-168.4713C1114.0193,-159.398 1141.5722,-145.2051 1165,-132 1179.9402,-123.5789 1182.6648,-119.6781 1198,-112 1224.0993,-98.9325 1254.848,-86.6987 1277.8298,-78.1373"/>
<polygon fill="#191970" stroke="#191970" points="1279.3051,-81.324 1287.482,-74.5869 1276.8885,-74.7543 1279.3051,-81.324"/>
</g>
<!-- Node32&#45;&gt;Node9 -->
<g id="edge40" class="edge">
<title>Node32&#45;&gt;Node9</title>
<path fill="none" stroke="#191970" d="M1107.9326,-169.9018C1110.9862,-169.2123 1114.047,-168.5641 1117,-168 1218.7592,-148.56 1338.9595,-134.5265 1407.2584,-127.3772"/>
<polygon fill="#191970" stroke="#191970" points="1407.7709,-130.8429 1417.3569,-126.3308 1407.0494,-123.8802 1407.7709,-130.8429"/>
</g>
<!-- Node32&#45;&gt;Node11 -->
<g id="edge53" class="edge">
<title>Node32&#45;&gt;Node11</title>
<path fill="none" stroke="#191970" d="M1077.5226,-168.2455C1077.914,-160.9382 1078.4628,-150.6944 1078.9444,-141.7046"/>
<polygon fill="#191970" stroke="#191970" points="1082.4434,-141.8156 1079.4834,-131.6427 1075.4534,-141.4411 1082.4434,-141.8156"/>
</g>
<!-- Node32&#45;&gt;Node12 -->
<g id="edge42" class="edge">
<title>Node32&#45;&gt;Node12</title>
<path fill="none" stroke="#191970" d="M1088.9344,-168.3816C1105.5758,-155.126 1136.8782,-130.7548 1165,-112 1181.7885,-100.8035 1201.351,-89.2703 1216.685,-80.5529"/>
<polygon fill="#191970" stroke="#191970" points="1218.629,-83.4749 1225.6236,-75.5171 1215.1931,-77.3762 1218.629,-83.4749"/>
</g>
<!-- Node33 -->
<g id="node34" class="node">
<title>Node33</title>
<polygon fill="#ffffff" stroke="#bfbfbf" points="887,-112.5 887,-131.5 943,-131.5 943,-112.5 887,-112.5"/>
<text text-anchor="middle" x="915" y="-119.5" font-family="Helvetica,sans-Serif" font-size="10.00" fill="#000000">algorithm</text>
</g>
<!-- Node32&#45;&gt;Node33 -->
<g id="edge41" class="edge">
<title>Node32&#45;&gt;Node33</title>
<path fill="none" stroke="#191970" d="M1049.1512,-168.3733C1022.3297,-159.1016 981.5873,-145.0178 952.0402,-134.804"/>
<polygon fill="#191970" stroke="#191970" points="953.0802,-131.4603 942.4854,-131.5011 950.7931,-138.0762 953.0802,-131.4603"/>
</g>
<!-- Node34 -->
<g id="node35" class="node">
<title>Node34</title>
<polygon fill="#ffffff" stroke="#bfbfbf" points="961.5,-112.5 961.5,-131.5 990.5,-131.5 990.5,-112.5 961.5,-112.5"/>
<text text-anchor="middle" x="976" y="-119.5" font-family="Helvetica,sans-Serif" font-size="10.00" fill="#000000">ios</text>
</g>
<!-- Node32&#45;&gt;Node34 -->
<g id="edge43" class="edge">
<title>Node32&#45;&gt;Node34</title>
<path fill="none" stroke="#191970" d="M1059.4071,-168.2455C1042.8509,-159.0659 1017.9366,-145.252 999.6479,-135.1117"/>
<polygon fill="#191970" stroke="#191970" points="1001.2102,-131.976 990.7674,-130.1878 997.8158,-138.098 1001.2102,-131.976"/>
</g>
<!-- Node32&#45;&gt;Node35 -->
<g id="edge44" class="edge">
<title>Node32&#45;&gt;Node35</title>
<path fill="none" stroke="#191970" d="M1102.7859,-168.3733C1129.046,-158.5695 1169.7177,-143.3854 1197.3071,-133.0854"/>
<polygon fill="#191970" stroke="#191970" points="1198.6845,-136.3072 1206.8288,-129.5306 1196.2362,-129.7493 1198.6845,-136.3072"/>
</g>
<!-- Node36 -->
<g id="node37" class="node">
<title>Node36</title>
<polygon fill="#ffffff" stroke="#bfbfbf" points="657.5,-112.5 657.5,-131.5 692.5,-131.5 692.5,-112.5 657.5,-112.5"/>
<text text-anchor="middle" x="675" y="-119.5" font-family="Helvetica,sans-Serif" font-size="10.00" fill="#000000">map</text>
</g>
<!-- Node32&#45;&gt;Node36 -->
<g id="edge45" class="edge">
<title>Node32&#45;&gt;Node36</title>
<path fill="none" stroke="#191970" d="M1046.4339,-176.6582C983.5178,-173.3862 835.047,-163.0344 702.458,-131.5652"/>
<polygon fill="#191970" stroke="#191970" points="703.0782,-128.1143 692.5353,-129.1627 701.4309,-134.9177 703.0782,-128.1143"/>
</g>
<!-- Node37 -->
<g id="node38" class="node">
<title>Node37</title>
<polygon fill="#ffffff" stroke="#bfbfbf" points="711,-112.5 711,-131.5 763,-131.5 763,-112.5 711,-112.5"/>
<text text-anchor="middle" x="737" y="-119.5" font-family="Helvetica,sans-Serif" font-size="10.00" fill="#000000">memory</text>
</g>
<!-- Node32&#45;&gt;Node37 -->
<g id="edge46" class="edge">
<title>Node32&#45;&gt;Node37</title>
<path fill="none" stroke="#191970" d="M1046.4609,-174.7126C992.9435,-168.6687 878.6218,-154.4999 773.133,-132.0299"/>
<polygon fill="#191970" stroke="#191970" points="773.795,-128.5922 763.2813,-129.9011 772.3165,-135.4343 773.795,-128.5922"/>
</g>
<!-- Node38 -->
<g id="node39" class="node">
<title>Node38</title>
<polygon fill="#ffffff" stroke="#bfbfbf" points="781,-112.5 781,-131.5 811,-131.5 811,-112.5 781,-112.5"/>
<text text-anchor="middle" x="796" y="-119.5" font-family="Helvetica,sans-Serif" font-size="10.00" fill="#000000">set</text>
</g>
<!-- Node32&#45;&gt;Node38 -->
<g id="edge47" class="edge">
<title>Node32&#45;&gt;Node38</title>
<path fill="none" stroke="#191970" d="M1046.4358,-174.7134C999.5334,-169.2032 907.0158,-156.4886 820.7299,-131.6967"/>
<polygon fill="#191970" stroke="#191970" points="821.636,-128.315 811.0551,-128.8573 819.6648,-135.0318 821.636,-128.315"/>
</g>
<!-- Node32&#45;&gt;Node39 -->
<g id="edge49" class="edge">
<title>Node32&#45;&gt;Node39</title>
<path fill="none" stroke="#191970" d="M1107.9063,-169.7543C1110.9652,-169.0947 1114.0344,-168.4938 1117,-168 1167.249,-159.6339 1518.9204,-132.5035 1626.0798,-124.3431"/>
<polygon fill="#191970" stroke="#191970" points="1626.5274,-127.8192 1636.2332,-123.5709 1625.9966,-120.8394 1626.5274,-127.8192"/>
</g>
<!-- Node40 -->
<g id="node41" class="node">
<title>Node40</title>
<polygon fill="#ffffff" stroke="#bfbfbf" points="829,-112.5 829,-131.5 869,-131.5 869,-112.5 829,-112.5"/>
<text text-anchor="middle" x="849" y="-119.5" font-family="Helvetica,sans-Serif" font-size="10.00" fill="#000000">utility</text>
</g>
<!-- Node32&#45;&gt;Node40 -->
<g id="edge51" class="edge">
<title>Node32&#45;&gt;Node40</title>
<path fill="none" stroke="#191970" d="M1046.403,-171.9682C1009.0314,-164.3753 943.7397,-150.3836 879.1353,-132.1138"/>
<polygon fill="#191970" stroke="#191970" points="879.7724,-128.6557 869.1952,-129.2667 877.8449,-135.3851 879.7724,-128.6557"/>
</g>
<!-- Node32&#45;&gt;Node41 -->
<g id="edge52" class="edge">
<title>Node32&#45;&gt;Node41</title>
<path fill="none" stroke="#191970" d="M1107.8953,-169.6861C1110.9565,-169.0403 1114.0292,-168.4612 1117,-168 1367.833,-129.0566 1434.5203,-158.2253 1687,-132 1699.0753,-130.7457 1712.2799,-128.9393 1723.8755,-127.2059"/>
<polygon fill="#191970" stroke="#191970" points="1724.6405,-130.6296 1733.9935,-125.6525 1723.5782,-123.7106 1724.6405,-130.6296"/>
</g>
<!-- Node42 -->
<g id="node43" class="node">
<title>Node42</title>
<g id="a_node43"><a xlink:href="span_8h.html" target="_top" xlink:title="span.h">
<polygon fill="#ffffff" stroke="#000000" points="401,-112.5 401,-131.5 447,-131.5 447,-112.5 401,-112.5"/>
<text text-anchor="middle" x="424" y="-119.5" font-family="Helvetica,sans-Serif" font-size="10.00" fill="#000000">span.h</text>
</a>
</g>
</g>
<!-- Node32&#45;&gt;Node42 -->
<g id="edge54" class="edge">
<title>Node32&#45;&gt;Node42</title>
<path fill="none" stroke="#191970" d="M1046.3803,-175.3741C937.5581,-166.0417 569.9777,-134.5188 457.188,-124.8461"/>
<polygon fill="#191970" stroke="#191970" points="457.348,-121.3471 447.0855,-123.9798 456.7498,-128.3215 457.348,-121.3471"/>
</g>
<!-- Node42&#45;&gt;Node14 -->
<g id="edge56" class="edge">
<title>Node42&#45;&gt;Node14</title>
<path fill="none" stroke="#191970" d="M424,-112.2455C424,-104.9382 424,-94.6944 424,-85.7046"/>
<polygon fill="#191970" stroke="#191970" points="427.5001,-85.6426 424,-75.6427 420.5001,-85.6427 427.5001,-85.6426"/>
</g>
<!-- Node42&#45;&gt;Node16 -->
<g id="edge55" class="edge">
<title>Node42&#45;&gt;Node16</title>
<path fill="none" stroke="#191970" d="M400.8833,-115.412C336.4408,-97.0468 154.144,-45.0945 72.0129,-21.6882"/>
<polygon fill="#191970" stroke="#191970" points="72.851,-18.2877 62.2747,-18.9129 70.9325,-25.0197 72.851,-18.2877"/>
</g>
<!-- Node45&#45;&gt;Node4 -->
<g id="edge70" class="edge">
<title>Node45&#45;&gt;Node4</title>
<path fill="none" stroke="#191970" d="M1690.2304,-227.8281C1724.2396,-219.7539 1778.2842,-204.6597 1790,-188 1798.8315,-175.4417 1807.2882,-137.9061 1787,-112 1749.4089,-63.9998 1565.0927,-28.6034 1487.0326,-15.5247"/>
<polygon fill="#191970" stroke="#191970" points="1487.1858,-12.0027 1476.7495,-13.8283 1486.0464,-18.9094 1487.1858,-12.0027"/>
</g>
<!-- Node45&#45;&gt;Node7 -->
<g id="edge73" class="edge">
<title>Node45&#45;&gt;Node7</title>
<path fill="none" stroke="#191970" d="M1633.8823,-227.3562C1594.8472,-218.1327 1523.597,-201.2972 1475.2855,-189.8818"/>
<polygon fill="#191970" stroke="#191970" points="1475.8812,-186.4263 1465.3444,-187.5328 1474.2715,-193.2387 1475.8812,-186.4263"/>
</g>
<!-- Node45&#45;&gt;Node12 -->
<g id="edge67" class="edge">
<title>Node45&#45;&gt;Node12</title>
<path fill="none" stroke="#191970" d="M1633.7542,-231.7182C1569.8596,-226.2119 1416.197,-210.9335 1370,-188 1343.9671,-175.0765 1286.5531,-114.0578 1258.7289,-83.5103"/>
<polygon fill="#191970" stroke="#191970" points="1261.0236,-80.83 1251.7164,-75.7676 1255.8352,-85.5291 1261.0236,-80.83"/>
</g>
<!-- Node45&#45;&gt;Node39 -->
<g id="edge71" class="edge">
<title>Node45&#45;&gt;Node39</title>
<path fill="none" stroke="#191970" d="M1665.3949,-224.1531C1669.4078,-211.2485 1675.165,-187.9151 1672,-168 1670.5699,-159.0016 1667.6588,-149.3703 1664.7784,-141.2579"/>
<polygon fill="#191970" stroke="#191970" points="1667.9537,-139.7599 1661.1368,-131.6493 1661.408,-142.2407 1667.9537,-139.7599"/>
</g>
<!-- Node45&#45;&gt;Node41 -->
<g id="edge72" class="edge">
<title>Node45&#45;&gt;Node41</title>
<path fill="none" stroke="#191970" d="M1690.0384,-231.1495C1716.6921,-226.7834 1755.3898,-215.7622 1774,-188 1783.5643,-173.7322 1776.5772,-154.5209 1768.6873,-140.5053"/>
<polygon fill="#191970" stroke="#191970" points="1771.5119,-138.4184 1763.2732,-131.7569 1765.5595,-142.1021 1771.5119,-138.4184"/>
</g>
<!-- Node45&#45;&gt;Node44 -->
<g id="edge69" class="edge">
<title>Node45&#45;&gt;Node44</title>
<path fill="none" stroke="#191970" d="M1656.9486,-224.2455C1652.9981,-216.617 1647.3903,-205.7881 1642.5942,-196.5267"/>
<polygon fill="#191970" stroke="#191970" points="1645.7001,-194.9131 1637.9935,-187.6427 1639.4841,-198.1321 1645.7001,-194.9131"/>
</g>
<!-- Node46 -->
<g id="node47" class="node">
<title>Node46</title>
<polygon fill="#ffffff" stroke="#bfbfbf" points="1719,-168.5 1719,-187.5 1765,-187.5 1765,-168.5 1719,-168.5"/>
<text text-anchor="middle" x="1742" y="-175.5" font-family="Helvetica,sans-Serif" font-size="10.00" fill="#000000">cstring</text>
</g>
<!-- Node45&#45;&gt;Node46 -->
<g id="edge68" class="edge">
<title>Node45&#45;&gt;Node46</title>
<path fill="none" stroke="#191970" d="M1675.9349,-224.2455C1688.0947,-215.7337 1705.9464,-203.2375 1720.0285,-193.3801"/>
<polygon fill="#191970" stroke="#191970" points="1722.0395,-196.2447 1728.2248,-187.6427 1718.0253,-190.51 1722.0395,-196.2447"/>
</g>
</g>
</svg>
