<?xml version="1.0" encoding="UTF-8" standalone="no"?>
<!DOCTYPE svg PUBLIC "-//W3C//DTD SVG 1.1//EN"
 "http://www.w3.org/Graphics/SVG/1.1/DTD/svg11.dtd">
<!-- Generated by graphviz version 2.40.1 (20161225.0304)
 -->
<!-- Title: src/qt/transactiondesc.h Pages: 1 -->
<svg width="490pt" height="84pt"
 viewBox="0.00 0.00 490.00 84.00" xmlns="http://www.w3.org/2000/svg" xmlns:xlink="http://www.w3.org/1999/xlink">
<g id="graph0" class="graph" transform="scale(1 1) rotate(0) translate(4 80)">
<title>src/qt/transactiondesc.h</title>
<polygon fill="#ffffff" stroke="transparent" points="-4,4 -4,-80 486,-80 486,4 -4,4"/>
<!-- Node3 -->
<g id="node1" class="node">
<title>Node3</title>
<polygon fill="#bfbfbf" stroke="#000000" points="179,-56.5 179,-75.5 301,-75.5 301,-56.5 179,-56.5"/>
<text text-anchor="middle" x="240" y="-63.5" font-family="Helvetica,sans-Serif" font-size="10.00" fill="#000000">src/qt/transactiondesc.h</text>
</g>
<!-- Node4 -->
<g id="node2" class="node">
<title>Node4</title>
<g id="a_node2"><a xlink:href="moc__transactiondesc_8cpp.html" target="_top" xlink:title="src/qt/moc_transactiondesc.cpp">
<polygon fill="#ffffff" stroke="#000000" points="0,-.5 0,-19.5 156,-19.5 156,-.5 0,-.5"/>
<text text-anchor="middle" x="78" y="-7.5" font-family="Helvetica,sans-Serif" font-size="10.00" fill="#000000">src/qt/moc_transactiondesc.cpp</text>
</a>
</g>
</g>
<!-- Node3&#45;&gt;Node4 -->
<g id="edge1" class="edge">
<title>Node3&#45;&gt;Node4</title>
<path fill="none" stroke="#191970" d="M202.5578,-53.057C172.9099,-42.8084 132.1804,-28.729 105.4854,-19.5011"/>
<polygon fill="#191970" stroke="#191970" points="201.5564,-56.414 212.1512,-56.3733 203.8435,-49.7982 201.5564,-56.414"/>
</g>
<!-- Node5 -->
<g id="node3" class="node">
<title>Node5</title>
<g id="a_node3"><a xlink:href="transactiondesc_8cpp.html" target="_top" xlink:title="src/qt/transactiondesc.cpp">
<polygon fill="#ffffff" stroke="#000000" points="174,-.5 174,-19.5 306,-19.5 306,-.5 174,-.5"/>
<text text-anchor="middle" x="240" y="-7.5" font-family="Helvetica,sans-Serif" font-size="10.00" fill="#000000">src/qt/transactiondesc.cpp</text>
</a>
</g>
</g>
<!-- Node3&#45;&gt;Node5 -->
<g id="edge2" class="edge">
<title>Node3&#45;&gt;Node5</title>
<path fill="none" stroke="#191970" d="M240,-46.1575C240,-37.155 240,-26.9199 240,-19.6427"/>
<polygon fill="#191970" stroke="#191970" points="236.5001,-46.2455 240,-56.2455 243.5001,-46.2456 236.5001,-46.2455"/>
</g>
<!-- Node6 -->
<g id="node4" class="node">
<title>Node6</title>
<g id="a_node4"><a xlink:href="transactiontablemodel_8cpp.html" target="_top" xlink:title="src/qt/transactiontablemodel.cpp">
<polygon fill="#ffffff" stroke="#000000" points="324,-.5 324,-19.5 482,-19.5 482,-.5 324,-.5"/>
<text text-anchor="middle" x="403" y="-7.5" font-family="Helvetica,sans-Serif" font-size="10.00" fill="#000000">src/qt/transactiontablemodel.cpp</text>
</a>
</g>
</g>
<!-- Node3&#45;&gt;Node6 -->
<g id="edge3" class="edge">
<title>Node3&#45;&gt;Node6</title>
<path fill="none" stroke="#191970" d="M277.6733,-53.057C307.5042,-42.8084 348.4852,-28.729 375.3449,-19.5011"/>
<polygon fill="#191970" stroke="#191970" points="276.3409,-49.8139 268.0207,-56.3733 278.6154,-56.4341 276.3409,-49.8139"/>
</g>
</g>
</svg>
