<?xml version="1.0" encoding="UTF-8" standalone="no"?>
<!DOCTYPE svg PUBLIC "-//W3C//DTD SVG 1.1//EN"
 "http://www.w3.org/Graphics/SVG/1.1/DTD/svg11.dtd">
<!-- Generated by graphviz version 2.40.1 (20161225.0304)
 -->
<!-- Title: src/warnings.cpp Pages: 1 -->
<svg width="2187pt" height="274pt"
 viewBox="0.00 0.00 2186.50 274.00" xmlns="http://www.w3.org/2000/svg" xmlns:xlink="http://www.w3.org/1999/xlink">
<g id="graph0" class="graph" transform="scale(1 1) rotate(0) translate(4 270)">
<title>src/warnings.cpp</title>
<polygon fill="#ffffff" stroke="transparent" points="-4,4 -4,-270 2182.5,-270 2182.5,4 -4,4"/>
<!-- Node0 -->
<g id="node1" class="node">
<title>Node0</title>
<polygon fill="#bfbfbf" stroke="#000000" points="656,-246.5 656,-265.5 747,-265.5 747,-246.5 656,-246.5"/>
<text text-anchor="middle" x="701.5" y="-253.5" font-family="Helvetica,sans-Serif" font-size="10.00" fill="#000000">src/warnings.cpp</text>
</g>
<!-- Node1 -->
<g id="node2" class="node">
<title>Node1</title>
<g id="a_node2"><a xlink:href="sync_8h.html" target="_top" xlink:title="sync.h">
<polygon fill="#ffffff" stroke="#000000" points="232.5,-129 232.5,-148 278.5,-148 278.5,-129 232.5,-129"/>
<text text-anchor="middle" x="255.5" y="-136" font-family="Helvetica,sans-Serif" font-size="10.00" fill="#000000">sync.h</text>
</a>
</g>
</g>
<!-- Node0&#45;&gt;Node1 -->
<g id="edge1" class="edge">
<title>Node0&#45;&gt;Node1</title>
<path fill="none" stroke="#191970" d="M665.3797,-246.484C580.561,-224.1383 369.6919,-168.5842 288.2878,-147.138"/>
<polygon fill="#191970" stroke="#191970" points="289.1351,-143.7419 278.5734,-144.5787 287.3517,-150.5109 289.1351,-143.7419"/>
</g>
<!-- Node6 -->
<g id="node7" class="node">
<title>Node6</title>
<g id="a_node7"><a xlink:href="clientversion_8h.html" target="_top" xlink:title="clientversion.h">
<polygon fill="#ffffff" stroke="#000000" points="379.5,-129 379.5,-148 459.5,-148 459.5,-129 379.5,-129"/>
<text text-anchor="middle" x="419.5" y="-136" font-family="Helvetica,sans-Serif" font-size="10.00" fill="#000000">clientversion.h</text>
</a>
</g>
</g>
<!-- Node0&#45;&gt;Node6 -->
<g id="edge6" class="edge">
<title>Node0&#45;&gt;Node6</title>
<path fill="none" stroke="#191970" d="M678.4228,-246.3845C628.3101,-225.5042 509.4237,-175.9682 451.8517,-151.9799"/>
<polygon fill="#191970" stroke="#191970" points="453.0776,-148.699 442.5006,-148.0836 450.3852,-155.1606 453.0776,-148.699"/>
</g>
<!-- Node9 -->
<g id="node10" class="node">
<title>Node9</title>
<g id="a_node10"><a xlink:href="util_8h.html" target="_top" xlink:title="util.h">
<polygon fill="#ffffff" stroke="#000000" points="808.5,-190.5 808.5,-209.5 846.5,-209.5 846.5,-190.5 808.5,-190.5"/>
<text text-anchor="middle" x="827.5" y="-197.5" font-family="Helvetica,sans-Serif" font-size="10.00" fill="#000000">util.h</text>
</a>
</g>
</g>
<!-- Node0&#45;&gt;Node9 -->
<g id="edge9" class="edge">
<title>Node0&#45;&gt;Node9</title>
<path fill="none" stroke="#191970" d="M723.1602,-246.3733C744.0928,-237.0699 775.9271,-222.9213 798.9268,-212.6992"/>
<polygon fill="#191970" stroke="#191970" points="800.4687,-215.8441 808.1854,-208.5843 797.6257,-209.4474 800.4687,-215.8441"/>
</g>
<!-- Node50 -->
<g id="node49" class="node">
<title>Node50</title>
<g id="a_node49"><a xlink:href="warnings_8h.html" target="_top" xlink:title="warnings.h">
<polygon fill="#ffffff" stroke="#000000" points="2070.5,-190.5 2070.5,-209.5 2134.5,-209.5 2134.5,-190.5 2070.5,-190.5"/>
<text text-anchor="middle" x="2102.5" y="-197.5" font-family="Helvetica,sans-Serif" font-size="10.00" fill="#000000">warnings.h</text>
</a>
</g>
</g>
<!-- Node0&#45;&gt;Node50 -->
<g id="edge60" class="edge">
<title>Node0&#45;&gt;Node50</title>
<path fill="none" stroke="#191970" d="M747.3173,-254.1686C960.6564,-245.6411 1854.9678,-209.8942 2060.3369,-201.6853"/>
<polygon fill="#191970" stroke="#191970" points="2060.5649,-205.1791 2070.4171,-201.2824 2060.2853,-198.1847 2060.5649,-205.1791"/>
</g>
<!-- Node2 -->
<g id="node3" class="node">
<title>Node2</title>
<g id="a_node3"><a xlink:href="threadsafety_8h.html" target="_top" xlink:title="threadsafety.h">
<polygon fill="#ffffff" stroke="#000000" points="176,-67.5 176,-86.5 255,-86.5 255,-67.5 176,-67.5"/>
<text text-anchor="middle" x="215.5" y="-74.5" font-family="Helvetica,sans-Serif" font-size="10.00" fill="#000000">threadsafety.h</text>
</a>
</g>
</g>
<!-- Node1&#45;&gt;Node2 -->
<g id="edge2" class="edge">
<title>Node1&#45;&gt;Node2</title>
<path fill="none" stroke="#191970" d="M249.25,-128.8906C243.4135,-119.917 234.5491,-106.2879 227.3694,-95.2491"/>
<polygon fill="#191970" stroke="#191970" points="230.2245,-93.2194 221.8381,-86.7449 224.3564,-97.0361 230.2245,-93.2194"/>
</g>
<!-- Node3 -->
<g id="node4" class="node">
<title>Node3</title>
<polygon fill="#ffffff" stroke="#bfbfbf" points="0,-67.5 0,-86.5 95,-86.5 95,-67.5 0,-67.5"/>
<text text-anchor="middle" x="47.5" y="-74.5" font-family="Helvetica,sans-Serif" font-size="10.00" fill="#000000">condition_variable</text>
</g>
<!-- Node1&#45;&gt;Node3 -->
<g id="edge3" class="edge">
<title>Node1&#45;&gt;Node3</title>
<path fill="none" stroke="#191970" d="M232.4456,-131.6834C198.0025,-121.4995 132.5604,-102.1501 89.4827,-89.4131"/>
<polygon fill="#191970" stroke="#191970" points="90.4304,-86.0436 79.8484,-86.5645 88.4456,-92.7564 90.4304,-86.0436"/>
</g>
<!-- Node4 -->
<g id="node5" class="node">
<title>Node4</title>
<polygon fill="#ffffff" stroke="#bfbfbf" points="113.5,-67.5 113.5,-86.5 157.5,-86.5 157.5,-67.5 113.5,-67.5"/>
<text text-anchor="middle" x="135.5" y="-74.5" font-family="Helvetica,sans-Serif" font-size="10.00" fill="#000000">thread</text>
</g>
<!-- Node1&#45;&gt;Node4 -->
<g id="edge4" class="edge">
<title>Node1&#45;&gt;Node4</title>
<path fill="none" stroke="#191970" d="M236.75,-128.8906C217.024,-118.7811 185.7688,-102.7628 163.2,-91.1962"/>
<polygon fill="#191970" stroke="#191970" points="164.614,-87.9881 154.1183,-86.5419 161.4213,-94.2176 164.614,-87.9881"/>
</g>
<!-- Node5 -->
<g id="node6" class="node">
<title>Node5</title>
<polygon fill="#ffffff" stroke="#bfbfbf" points="272.5,-67.5 272.5,-86.5 316.5,-86.5 316.5,-67.5 272.5,-67.5"/>
<text text-anchor="middle" x="294.5" y="-74.5" font-family="Helvetica,sans-Serif" font-size="10.00" fill="#000000">mutex</text>
</g>
<!-- Node1&#45;&gt;Node5 -->
<g id="edge5" class="edge">
<title>Node1&#45;&gt;Node5</title>
<path fill="none" stroke="#191970" d="M261.5938,-128.8906C267.2843,-119.917 275.9272,-106.2879 282.9274,-95.2491"/>
<polygon fill="#191970" stroke="#191970" points="285.9207,-97.0644 288.3203,-86.7449 280.0091,-93.3155 285.9207,-97.0644"/>
</g>
<!-- Node7 -->
<g id="node8" class="node">
<title>Node7</title>
<polygon fill="#ffffff" stroke="#bfbfbf" points="724,-6 724,-25 765,-25 765,-6 724,-6"/>
<text text-anchor="middle" x="744.5" y="-13" font-family="Helvetica,sans-Serif" font-size="10.00" fill="#000000">string</text>
</g>
<!-- Node6&#45;&gt;Node7 -->
<g id="edge7" class="edge">
<title>Node6&#45;&gt;Node7</title>
<path fill="none" stroke="#191970" d="M420.6114,-128.8874C422.9575,-113.2816 429.9238,-82.6109 449.5,-67 490.0259,-34.6829 646.3942,-21.465 713.558,-17.2"/>
<polygon fill="#191970" stroke="#191970" points="714.1417,-20.671 723.9102,-16.5691 713.7158,-13.6839 714.1417,-20.671"/>
</g>
<!-- Node8 -->
<g id="node9" class="node">
<title>Node8</title>
<polygon fill="#ffffff" stroke="#bfbfbf" points="458.5,-67.5 458.5,-86.5 502.5,-86.5 502.5,-67.5 458.5,-67.5"/>
<text text-anchor="middle" x="480.5" y="-74.5" font-family="Helvetica,sans-Serif" font-size="10.00" fill="#000000">vector</text>
</g>
<!-- Node6&#45;&gt;Node8 -->
<g id="edge8" class="edge">
<title>Node6&#45;&gt;Node8</title>
<path fill="none" stroke="#191970" d="M429.0313,-128.8906C438.2879,-119.5581 452.539,-105.1902 463.7003,-93.9374"/>
<polygon fill="#191970" stroke="#191970" points="466.2772,-96.3095 470.8344,-86.7449 461.3072,-91.38 466.2772,-96.3095"/>
</g>
<!-- Node9&#45;&gt;Node1 -->
<g id="edge44" class="edge">
<title>Node9&#45;&gt;Node1</title>
<path fill="none" stroke="#191970" d="M808.2786,-198.8425C742.4131,-194.7386 519.8237,-179.7328 337.5,-154 321.4537,-151.7353 303.7756,-148.4906 288.9548,-145.5547"/>
<polygon fill="#191970" stroke="#191970" points="289.2272,-142.0391 278.7322,-143.4898 287.8412,-148.9005 289.2272,-142.0391"/>
</g>
<!-- Node9&#45;&gt;Node7 -->
<g id="edge55" class="edge">
<title>Node9&#45;&gt;Node7</title>
<path fill="none" stroke="#191970" d="M846.7091,-199.7409C934.9106,-198.3565 1298.2155,-190.4607 1331.5,-154 1340.7891,-143.8245 1340.8511,-133.1185 1331.5,-123 1297.005,-85.6743 924.2137,-101.4943 875.5,-87 864.3865,-83.6933 804.7653,-50.0525 769.9065,-30.1157"/>
<polygon fill="#191970" stroke="#191970" points="771.6236,-27.0657 761.2069,-25.1306 768.1433,-33.1392 771.6236,-27.0657"/>
</g>
<!-- Node9&#45;&gt;Node8 -->
<g id="edge57" class="edge">
<title>Node9&#45;&gt;Node8</title>
<path fill="none" stroke="#191970" d="M808.1503,-198.4056C742.3288,-192.8228 529.8742,-173.4391 506.5,-154 489.6009,-139.9458 483.6409,-114.4843 481.5644,-96.7022"/>
<polygon fill="#191970" stroke="#191970" points="485.0364,-96.2236 480.6973,-86.5581 478.0618,-96.8199 485.0364,-96.2236"/>
</g>
<!-- Node10 -->
<g id="node11" class="node">
<title>Node10</title>
<g id="a_node11"><a xlink:href="compat_8h.html" target="_top" xlink:title="compat.h">
<polygon fill="#ffffff" stroke="#000000" points="1474,-129 1474,-148 1531,-148 1531,-129 1474,-129"/>
<text text-anchor="middle" x="1502.5" y="-136" font-family="Helvetica,sans-Serif" font-size="10.00" fill="#000000">compat.h</text>
</a>
</g>
</g>
<!-- Node9&#45;&gt;Node10 -->
<g id="edge10" class="edge">
<title>Node9&#45;&gt;Node10</title>
<path fill="none" stroke="#191970" d="M846.6273,-199.3364C920.974,-196.5854 1197.7875,-184.7462 1423.5,-154 1436.7224,-152.1989 1451.0707,-149.5852 1463.8658,-147.0157"/>
<polygon fill="#191970" stroke="#191970" points="1464.655,-150.4267 1473.743,-144.9808 1463.2425,-143.5707 1464.655,-150.4267"/>
</g>
<!-- Node26 -->
<g id="node27" class="node">
<title>Node26</title>
<g id="a_node27"><a xlink:href="fs_8h.html" target="_top" xlink:title="fs.h">
<polygon fill="#ffffff" stroke="#000000" points="885,-67.5 885,-86.5 918,-86.5 918,-67.5 885,-67.5"/>
<text text-anchor="middle" x="901.5" y="-74.5" font-family="Helvetica,sans-Serif" font-size="10.00" fill="#000000">fs.h</text>
</a>
</g>
</g>
<!-- Node9&#45;&gt;Node26 -->
<g id="edge26" class="edge">
<title>Node9&#45;&gt;Node26</title>
<path fill="none" stroke="#191970" d="M846.5359,-199.9212C940.0984,-199.3404 1348.2128,-194.4875 1385.5,-154 1394.8336,-143.8653 1394.8529,-133.1169 1385.5,-123 1352.4387,-87.238 1010.8621,-97.2139 928.1403,-85.9619"/>
<polygon fill="#191970" stroke="#191970" points="928.5184,-82.4746 918.0623,-84.1832 927.3017,-89.368 928.5184,-82.4746"/>
</g>
<!-- Node31 -->
<g id="node32" class="node">
<title>Node31</title>
<g id="a_node32"><a xlink:href="logging_8h.html" target="_top" xlink:title="logging.h">
<polygon fill="#ffffff" stroke="#000000" points="515.5,-129 515.5,-148 571.5,-148 571.5,-129 515.5,-129"/>
<text text-anchor="middle" x="543.5" y="-136" font-family="Helvetica,sans-Serif" font-size="10.00" fill="#000000">logging.h</text>
</a>
</g>
</g>
<!-- Node9&#45;&gt;Node31 -->
<g id="edge32" class="edge">
<title>Node9&#45;&gt;Node31</title>
<path fill="none" stroke="#191970" d="M808.4275,-197.4731C767.2378,-191.7773 667.0936,-176.6425 585.5,-154 582.6915,-153.2206 579.8046,-152.337 576.9225,-151.3964"/>
<polygon fill="#191970" stroke="#191970" points="577.8579,-148.0163 567.2631,-148.0474 575.5648,-154.6301 577.8579,-148.0163"/>
</g>
<!-- Node32 -->
<g id="node33" class="node">
<title>Node32</title>
<g id="a_node33"><a xlink:href="tinyformat_8h.html" target="_top" xlink:title="tinyformat.h">
<polygon fill="#ffffff" stroke="#ff0000" points="334.5,-67.5 334.5,-86.5 402.5,-86.5 402.5,-67.5 334.5,-67.5"/>
<text text-anchor="middle" x="368.5" y="-74.5" font-family="Helvetica,sans-Serif" font-size="10.00" fill="#000000">tinyformat.h</text>
</a>
</g>
</g>
<!-- Node9&#45;&gt;Node32 -->
<g id="edge45" class="edge">
<title>Node9&#45;&gt;Node32</title>
<path fill="none" stroke="#191970" d="M808.4625,-199.5356C725.7986,-197.3289 400.7788,-186.6181 370.5,-154 356.4694,-138.8854 358.6175,-114.0376 362.5435,-96.6687"/>
<polygon fill="#191970" stroke="#191970" points="366.0563,-97.0747 365.228,-86.5123 359.2887,-95.2859 366.0563,-97.0747"/>
</g>
<!-- Node38 -->
<g id="node37" class="node">
<title>Node38</title>
<polygon fill="#ffffff" stroke="#bfbfbf" points="670.5,-67.5 670.5,-86.5 716.5,-86.5 716.5,-67.5 670.5,-67.5"/>
<text text-anchor="middle" x="693.5" y="-74.5" font-family="Helvetica,sans-Serif" font-size="10.00" fill="#000000">atomic</text>
</g>
<!-- Node9&#45;&gt;Node38 -->
<g id="edge49" class="edge">
<title>Node9&#45;&gt;Node38</title>
<path fill="none" stroke="#191970" d="M808.418,-198.759C761.4445,-195.2668 642.3009,-183.609 618.5,-154 609.868,-143.2615 611.7702,-135.0224 618.5,-123 627.5826,-106.7744 644.9865,-95.5785 660.7439,-88.2977"/>
<polygon fill="#191970" stroke="#191970" points="662.4163,-91.3901 670.2533,-84.2604 659.6807,-84.9468 662.4163,-91.3901"/>
</g>
<!-- Node41 -->
<g id="node40" class="node">
<title>Node41</title>
<g id="a_node40"><a xlink:href="utiltime_8h.html" target="_top" xlink:title="utiltime.h">
<polygon fill="#ffffff" stroke="#000000" points="627.5,-129 627.5,-148 683.5,-148 683.5,-129 627.5,-129"/>
<text text-anchor="middle" x="655.5" y="-136" font-family="Helvetica,sans-Serif" font-size="10.00" fill="#000000">utiltime.h</text>
</a>
</g>
</g>
<!-- Node9&#45;&gt;Node41 -->
<g id="edge46" class="edge">
<title>Node9&#45;&gt;Node41</title>
<path fill="none" stroke="#191970" d="M808.1263,-193.8592C781.7748,-185.4021 733.246,-169.4559 692.5,-154 690.693,-153.3146 688.843,-152.5956 686.9805,-151.8584"/>
<polygon fill="#191970" stroke="#191970" points="688.288,-148.6118 677.7059,-148.0918 685.654,-155.0974 688.288,-148.6118"/>
</g>
<!-- Node42 -->
<g id="node41" class="node">
<title>Node42</title>
<polygon fill="#ffffff" stroke="#bfbfbf" points="776,-67.5 776,-86.5 825,-86.5 825,-67.5 776,-67.5"/>
<text text-anchor="middle" x="800.5" y="-74.5" font-family="Helvetica,sans-Serif" font-size="10.00" fill="#000000">stdint.h</text>
</g>
<!-- Node9&#45;&gt;Node42 -->
<g id="edge54" class="edge">
<title>Node9&#45;&gt;Node42</title>
<path fill="none" stroke="#191970" d="M846.5969,-199.6746C932.6438,-198.015 1281.5245,-189.1449 1313.5,-154 1322.772,-143.809 1322.8638,-133.1068 1313.5,-123 1277.829,-84.4986 894.3566,-95.1035 842.5,-87 840.1256,-86.629 837.6871,-86.194 835.2379,-85.7169"/>
<polygon fill="#191970" stroke="#191970" points="835.7568,-82.2487 825.2453,-83.5748 834.2895,-89.0932 835.7568,-82.2487"/>
</g>
<!-- Node43 -->
<g id="node42" class="node">
<title>Node43</title>
<polygon fill="#ffffff" stroke="#bfbfbf" points="702,-129 702,-148 761,-148 761,-129 702,-129"/>
<text text-anchor="middle" x="731.5" y="-136" font-family="Helvetica,sans-Serif" font-size="10.00" fill="#000000">exception</text>
</g>
<!-- Node9&#45;&gt;Node43 -->
<g id="edge50" class="edge">
<title>Node9&#45;&gt;Node43</title>
<path fill="none" stroke="#191970" d="M812.5,-190.3906C797.1419,-180.5519 773.0479,-165.1167 755.1255,-153.6351"/>
<polygon fill="#191970" stroke="#191970" points="756.703,-150.4891 746.3947,-148.0419 752.927,-156.3833 756.703,-150.4891"/>
</g>
<!-- Node44 -->
<g id="node43" class="node">
<title>Node44</title>
<polygon fill="#ffffff" stroke="#bfbfbf" points="779,-129 779,-148 814,-148 814,-129 779,-129"/>
<text text-anchor="middle" x="796.5" y="-136" font-family="Helvetica,sans-Serif" font-size="10.00" fill="#000000">map</text>
</g>
<!-- Node9&#45;&gt;Node44 -->
<g id="edge51" class="edge">
<title>Node9&#45;&gt;Node44</title>
<path fill="none" stroke="#191970" d="M822.6563,-190.3906C818.2234,-181.5965 811.5369,-168.3312 806.0341,-157.4145"/>
<polygon fill="#191970" stroke="#191970" points="809.0386,-155.5992 801.412,-148.2449 802.7878,-158.75 809.0386,-155.5992"/>
</g>
<!-- Node45 -->
<g id="node44" class="node">
<title>Node45</title>
<polygon fill="#ffffff" stroke="#bfbfbf" points="832.5,-129 832.5,-148 884.5,-148 884.5,-129 832.5,-129"/>
<text text-anchor="middle" x="858.5" y="-136" font-family="Helvetica,sans-Serif" font-size="10.00" fill="#000000">memory</text>
</g>
<!-- Node9&#45;&gt;Node45 -->
<g id="edge52" class="edge">
<title>Node9&#45;&gt;Node45</title>
<path fill="none" stroke="#191970" d="M832.3438,-190.3906C836.7766,-181.5965 843.4631,-168.3312 848.9659,-157.4145"/>
<polygon fill="#191970" stroke="#191970" points="852.2122,-158.75 853.588,-148.2449 845.9614,-155.5992 852.2122,-158.75"/>
</g>
<!-- Node46 -->
<g id="node45" class="node">
<title>Node46</title>
<polygon fill="#ffffff" stroke="#bfbfbf" points="902.5,-129 902.5,-148 932.5,-148 932.5,-129 902.5,-129"/>
<text text-anchor="middle" x="917.5" y="-136" font-family="Helvetica,sans-Serif" font-size="10.00" fill="#000000">set</text>
</g>
<!-- Node9&#45;&gt;Node46 -->
<g id="edge53" class="edge">
<title>Node9&#45;&gt;Node46</title>
<path fill="none" stroke="#191970" d="M841.5625,-190.3906C855.8286,-180.6421 878.135,-165.3994 894.8872,-153.9521"/>
<polygon fill="#191970" stroke="#191970" points="897.2545,-156.5736 903.5362,-148.0419 893.3051,-150.7941 897.2545,-156.5736"/>
</g>
<!-- Node47 -->
<g id="node46" class="node">
<title>Node47</title>
<polygon fill="#ffffff" stroke="#bfbfbf" points="950.5,-129 950.5,-148 1028.5,-148 1028.5,-129 950.5,-129"/>
<text text-anchor="middle" x="989.5" y="-136" font-family="Helvetica,sans-Serif" font-size="10.00" fill="#000000">unordered_set</text>
</g>
<!-- Node9&#45;&gt;Node47 -->
<g id="edge56" class="edge">
<title>Node9&#45;&gt;Node47</title>
<path fill="none" stroke="#191970" d="M846.7197,-192.7036C873.304,-182.6114 921.7475,-164.2209 954.7635,-151.687"/>
<polygon fill="#191970" stroke="#191970" points="956.3666,-154.8222 964.4733,-148.0009 953.8821,-148.2779 956.3666,-154.8222"/>
</g>
<!-- Node48 -->
<g id="node47" class="node">
<title>Node48</title>
<polygon fill="#ffffff" stroke="#bfbfbf" points="1047,-129 1047,-148 1174,-148 1174,-129 1047,-129"/>
<text text-anchor="middle" x="1110.5" y="-136" font-family="Helvetica,sans-Serif" font-size="10.00" fill="#000000">boost/signals2/signal.hpp</text>
</g>
<!-- Node9&#45;&gt;Node48 -->
<g id="edge58" class="edge">
<title>Node9&#45;&gt;Node48</title>
<path fill="none" stroke="#191970" d="M846.5079,-195.8693C888.9159,-186.6534 992.5592,-164.1302 1056.642,-150.2041"/>
<polygon fill="#191970" stroke="#191970" points="1057.5431,-153.5901 1066.5718,-148.0462 1056.0566,-146.7497 1057.5431,-153.5901"/>
</g>
<!-- Node49 -->
<g id="node48" class="node">
<title>Node49</title>
<polygon fill="#ffffff" stroke="#bfbfbf" points="1192,-123.5 1192,-153.5 1305,-153.5 1305,-123.5 1192,-123.5"/>
<text text-anchor="start" x="1200" y="-141.5" font-family="Helvetica,sans-Serif" font-size="10.00" fill="#000000">boost/thread/condition</text>
<text text-anchor="middle" x="1248.5" y="-130.5" font-family="Helvetica,sans-Serif" font-size="10.00" fill="#000000">_variable.hpp</text>
</g>
<!-- Node9&#45;&gt;Node49 -->
<g id="edge59" class="edge">
<title>Node9&#45;&gt;Node49</title>
<path fill="none" stroke="#191970" d="M846.8474,-198.1925C899.1422,-193.1603 1047.8154,-177.8835 1181.6752,-154.0344"/>
<polygon fill="#191970" stroke="#191970" points="1182.4749,-157.4467 1191.6952,-152.2278 1181.2328,-150.5578 1182.4749,-157.4467"/>
</g>
<!-- Node11 -->
<g id="node12" class="node">
<title>Node11</title>
<polygon fill="#ffffff" stroke="#bfbfbf" points="2012.5,-67.5 2012.5,-86.5 2074.5,-86.5 2074.5,-67.5 2012.5,-67.5"/>
<text text-anchor="middle" x="2043.5" y="-74.5" font-family="Helvetica,sans-Serif" font-size="10.00" fill="#000000">type_traits</text>
</g>
<!-- Node10&#45;&gt;Node11 -->
<g id="edge11" class="edge">
<title>Node10&#45;&gt;Node11</title>
<path fill="none" stroke="#191970" d="M1531.1557,-136.9228C1606.6193,-132.4787 1817.1329,-118.2041 2002.3369,-86.7899"/>
<polygon fill="#191970" stroke="#191970" points="2002.9896,-90.2291 2012.253,-85.0871 2001.8049,-83.3301 2002.9896,-90.2291"/>
</g>
<!-- Node12 -->
<g id="node13" class="node">
<title>Node12</title>
<polygon fill="#ffffff" stroke="#bfbfbf" points="936.5,-67.5 936.5,-86.5 980.5,-86.5 980.5,-67.5 936.5,-67.5"/>
<text text-anchor="middle" x="958.5" y="-74.5" font-family="Helvetica,sans-Serif" font-size="10.00" fill="#000000">fcntl.h</text>
</g>
<!-- Node10&#45;&gt;Node12 -->
<g id="edge12" class="edge">
<title>Node10&#45;&gt;Node12</title>
<path fill="none" stroke="#191970" d="M1473.7375,-132.0593C1458.8155,-128.9209 1440.2505,-125.3306 1423.5,-123 1235.0716,-96.7824 1181.1277,-123.9971 990.745,-86.8289"/>
<polygon fill="#191970" stroke="#191970" points="991.1796,-83.3469 980.6893,-84.8312 989.8156,-90.2127 991.1796,-83.3469"/>
</g>
<!-- Node13 -->
<g id="node14" class="node">
<title>Node13</title>
<polygon fill="#ffffff" stroke="#bfbfbf" points="999,-67.5 999,-86.5 1070,-86.5 1070,-67.5 999,-67.5"/>
<text text-anchor="middle" x="1034.5" y="-74.5" font-family="Helvetica,sans-Serif" font-size="10.00" fill="#000000">sys/mman.h</text>
</g>
<!-- Node10&#45;&gt;Node13 -->
<g id="edge13" class="edge">
<title>Node10&#45;&gt;Node13</title>
<path fill="none" stroke="#191970" d="M1473.7158,-132.2095C1458.788,-129.1107 1440.2245,-125.5107 1423.5,-123 1274.7457,-100.6691 1233.0055,-111.2343 1080.4978,-86.9888"/>
<polygon fill="#191970" stroke="#191970" points="1080.7199,-83.4794 1070.2899,-85.3408 1079.6042,-90.39 1080.7199,-83.4794"/>
</g>
<!-- Node14 -->
<g id="node15" class="node">
<title>Node14</title>
<polygon fill="#ffffff" stroke="#bfbfbf" points="1088.5,-67.5 1088.5,-86.5 1158.5,-86.5 1158.5,-67.5 1088.5,-67.5"/>
<text text-anchor="middle" x="1123.5" y="-74.5" font-family="Helvetica,sans-Serif" font-size="10.00" fill="#000000">sys/select.h</text>
</g>
<!-- Node10&#45;&gt;Node14 -->
<g id="edge14" class="edge">
<title>Node10&#45;&gt;Node14</title>
<path fill="none" stroke="#191970" d="M1473.6765,-132.4564C1458.7383,-129.4228 1440.1774,-125.8066 1423.5,-123 1313.4048,-104.4724 1282.2567,-107.5521 1168.6569,-87.0855"/>
<polygon fill="#191970" stroke="#191970" points="1168.9756,-83.586 1158.5099,-85.2349 1167.7196,-90.4724 1168.9756,-83.586"/>
</g>
<!-- Node15 -->
<g id="node16" class="node">
<title>Node15</title>
<polygon fill="#ffffff" stroke="#bfbfbf" points="1177,-67.5 1177,-86.5 1250,-86.5 1250,-67.5 1177,-67.5"/>
<text text-anchor="middle" x="1213.5" y="-74.5" font-family="Helvetica,sans-Serif" font-size="10.00" fill="#000000">sys/socket.h</text>
</g>
<!-- Node10&#45;&gt;Node15 -->
<g id="edge15" class="edge">
<title>Node10&#45;&gt;Node15</title>
<path fill="none" stroke="#191970" d="M1473.6867,-132.4442C1429.9096,-123.2325 1343.7595,-105.0615 1260.0798,-87.1163"/>
<polygon fill="#191970" stroke="#191970" points="1260.6664,-83.6626 1250.1546,-84.9864 1259.1976,-90.5068 1260.6664,-83.6626"/>
</g>
<!-- Node16 -->
<g id="node17" class="node">
<title>Node16</title>
<polygon fill="#ffffff" stroke="#bfbfbf" points="1268.5,-67.5 1268.5,-86.5 1336.5,-86.5 1336.5,-67.5 1268.5,-67.5"/>
<text text-anchor="middle" x="1302.5" y="-74.5" font-family="Helvetica,sans-Serif" font-size="10.00" fill="#000000">sys/types.h</text>
</g>
<!-- Node10&#45;&gt;Node16 -->
<g id="edge16" class="edge">
<title>Node10&#45;&gt;Node16</title>
<path fill="none" stroke="#191970" d="M1473.8449,-129.6885C1439.6378,-119.1699 1382.1906,-101.5049 1343.3417,-89.5588"/>
<polygon fill="#191970" stroke="#191970" points="1343.9893,-86.0963 1333.4022,-86.5024 1341.9318,-92.7871 1343.9893,-86.0963"/>
</g>
<!-- Node17 -->
<g id="node18" class="node">
<title>Node17</title>
<polygon fill="#ffffff" stroke="#bfbfbf" points="1355,-67.5 1355,-86.5 1402,-86.5 1402,-67.5 1355,-67.5"/>
<text text-anchor="middle" x="1378.5" y="-74.5" font-family="Helvetica,sans-Serif" font-size="10.00" fill="#000000">net/if.h</text>
</g>
<!-- Node10&#45;&gt;Node17 -->
<g id="edge17" class="edge">
<title>Node10&#45;&gt;Node17</title>
<path fill="none" stroke="#191970" d="M1483.125,-128.8906C1462.6505,-118.7359 1430.1558,-102.6196 1406.8115,-91.0416"/>
<polygon fill="#191970" stroke="#191970" points="1408.2528,-87.8496 1397.7389,-86.5419 1405.1425,-94.1207 1408.2528,-87.8496"/>
</g>
<!-- Node18 -->
<g id="node19" class="node">
<title>Node18</title>
<polygon fill="#ffffff" stroke="#bfbfbf" points="1420,-67.5 1420,-86.5 1485,-86.5 1485,-67.5 1420,-67.5"/>
<text text-anchor="middle" x="1452.5" y="-74.5" font-family="Helvetica,sans-Serif" font-size="10.00" fill="#000000">netinet/in.h</text>
</g>
<!-- Node10&#45;&gt;Node18 -->
<g id="edge18" class="edge">
<title>Node10&#45;&gt;Node18</title>
<path fill="none" stroke="#191970" d="M1494.6875,-128.8906C1487.246,-119.7376 1475.8666,-105.7409 1466.8008,-94.59"/>
<polygon fill="#191970" stroke="#191970" points="1469.4467,-92.2962 1460.4226,-86.7449 1464.0153,-96.712 1469.4467,-92.2962"/>
</g>
<!-- Node19 -->
<g id="node20" class="node">
<title>Node19</title>
<polygon fill="#ffffff" stroke="#bfbfbf" points="1503,-67.5 1503,-86.5 1574,-86.5 1574,-67.5 1503,-67.5"/>
<text text-anchor="middle" x="1538.5" y="-74.5" font-family="Helvetica,sans-Serif" font-size="10.00" fill="#000000">netinet/tcp.h</text>
</g>
<!-- Node10&#45;&gt;Node19 -->
<g id="edge19" class="edge">
<title>Node10&#45;&gt;Node19</title>
<path fill="none" stroke="#191970" d="M1508.125,-128.8906C1513.3253,-120.0068 1521.1966,-106.5601 1527.6233,-95.5811"/>
<polygon fill="#191970" stroke="#191970" points="1530.7644,-97.1432 1532.7957,-86.7449 1524.7233,-93.6069 1530.7644,-97.1432"/>
</g>
<!-- Node20 -->
<g id="node21" class="node">
<title>Node20</title>
<polygon fill="#ffffff" stroke="#bfbfbf" points="1592.5,-67.5 1592.5,-86.5 1654.5,-86.5 1654.5,-67.5 1592.5,-67.5"/>
<text text-anchor="middle" x="1623.5" y="-74.5" font-family="Helvetica,sans-Serif" font-size="10.00" fill="#000000">arpa/inet.h</text>
</g>
<!-- Node10&#45;&gt;Node20 -->
<g id="edge20" class="edge">
<title>Node10&#45;&gt;Node20</title>
<path fill="none" stroke="#191970" d="M1521.4063,-128.8906C1541.2966,-118.7811 1572.8123,-102.7628 1595.5692,-91.1962"/>
<polygon fill="#191970" stroke="#191970" points="1597.3978,-94.193 1604.7265,-86.5419 1594.226,-87.9528 1597.3978,-94.193"/>
</g>
<!-- Node21 -->
<g id="node22" class="node">
<title>Node21</title>
<polygon fill="#ffffff" stroke="#bfbfbf" points="1672.5,-67.5 1672.5,-86.5 1726.5,-86.5 1726.5,-67.5 1672.5,-67.5"/>
<text text-anchor="middle" x="1699.5" y="-74.5" font-family="Helvetica,sans-Serif" font-size="10.00" fill="#000000">ifaddrs.h</text>
</g>
<!-- Node10&#45;&gt;Node21 -->
<g id="edge21" class="edge">
<title>Node10&#45;&gt;Node21</title>
<path fill="none" stroke="#191970" d="M1531.1455,-129.5574C1565.9213,-118.701 1624.6308,-100.3729 1662.7192,-88.4823"/>
<polygon fill="#191970" stroke="#191970" points="1663.9017,-91.7798 1672.4043,-85.4588 1661.8156,-85.0979 1663.9017,-91.7798"/>
</g>
<!-- Node22 -->
<g id="node23" class="node">
<title>Node22</title>
<polygon fill="#ffffff" stroke="#bfbfbf" points="1744.5,-67.5 1744.5,-86.5 1792.5,-86.5 1792.5,-67.5 1744.5,-67.5"/>
<text text-anchor="middle" x="1768.5" y="-74.5" font-family="Helvetica,sans-Serif" font-size="10.00" fill="#000000">limits.h</text>
</g>
<!-- Node10&#45;&gt;Node22 -->
<g id="edge22" class="edge">
<title>Node10&#45;&gt;Node22</title>
<path fill="none" stroke="#191970" d="M1531.0029,-132.9342C1573.2777,-124.5209 1655.2699,-107.5989 1734.2906,-87.1727"/>
<polygon fill="#191970" stroke="#191970" points="1735.6173,-90.4438 1744.41,-84.5329 1733.8503,-83.6704 1735.6173,-90.4438"/>
</g>
<!-- Node23 -->
<g id="node24" class="node">
<title>Node23</title>
<polygon fill="#ffffff" stroke="#bfbfbf" points="1811,-67.5 1811,-86.5 1860,-86.5 1860,-67.5 1811,-67.5"/>
<text text-anchor="middle" x="1835.5" y="-74.5" font-family="Helvetica,sans-Serif" font-size="10.00" fill="#000000">netdb.h</text>
</g>
<!-- Node10&#45;&gt;Node23 -->
<g id="edge23" class="edge">
<title>Node10&#45;&gt;Node23</title>
<path fill="none" stroke="#191970" d="M1531.166,-134.6875C1583.0569,-127.5453 1696.1273,-110.88 1800.9175,-86.9175"/>
<polygon fill="#191970" stroke="#191970" points="1801.7522,-90.3169 1810.7054,-84.652 1800.1737,-83.4972 1801.7522,-90.3169"/>
</g>
<!-- Node24 -->
<g id="node25" class="node">
<title>Node24</title>
<polygon fill="#ffffff" stroke="#bfbfbf" points="1878,-67.5 1878,-86.5 1929,-86.5 1929,-67.5 1878,-67.5"/>
<text text-anchor="middle" x="1903.5" y="-74.5" font-family="Helvetica,sans-Serif" font-size="10.00" fill="#000000">unistd.h</text>
</g>
<!-- Node10&#45;&gt;Node24 -->
<g id="edge24" class="edge">
<title>Node10&#45;&gt;Node24</title>
<path fill="none" stroke="#191970" d="M1531.2091,-135.8275C1591.7253,-129.9032 1736.8953,-114.1607 1868.1612,-86.8063"/>
<polygon fill="#191970" stroke="#191970" points="1868.9274,-90.2217 1877.9883,-84.7308 1867.4809,-83.3728 1868.9274,-90.2217"/>
</g>
<!-- Node25 -->
<g id="node26" class="node">
<title>Node25</title>
<polygon fill="#ffffff" stroke="#bfbfbf" points="1947,-67.5 1947,-86.5 1994,-86.5 1994,-67.5 1947,-67.5"/>
<text text-anchor="middle" x="1970.5" y="-74.5" font-family="Helvetica,sans-Serif" font-size="10.00" fill="#000000">errno.h</text>
</g>
<!-- Node10&#45;&gt;Node25 -->
<g id="edge25" class="edge">
<title>Node10&#45;&gt;Node25</title>
<path fill="none" stroke="#191970" d="M1531.0252,-136.8692C1599.5125,-132.5845 1778.6513,-119.1871 1936.9237,-86.7774"/>
<polygon fill="#191970" stroke="#191970" points="1937.7582,-90.1788 1946.8364,-84.7166 1936.3333,-83.3254 1937.7582,-90.1788"/>
</g>
<!-- Node26&#45;&gt;Node7 -->
<g id="edge28" class="edge">
<title>Node26&#45;&gt;Node7</title>
<path fill="none" stroke="#191970" d="M884.5987,-71.1837C854.9819,-60.9407 794.9119,-39.9251 774.5,-31 773.4794,-30.5538 772.4451,-30.0884 771.4047,-29.6092"/>
<polygon fill="#191970" stroke="#191970" points="772.6057,-26.301 762.0831,-25.0655 769.5386,-32.5933 772.6057,-26.301"/>
</g>
<!-- Node27 -->
<g id="node28" class="node">
<title>Node27</title>
<polygon fill="#ffffff" stroke="#bfbfbf" points="783.5,-6 783.5,-25 829.5,-25 829.5,-6 783.5,-6"/>
<text text-anchor="middle" x="806.5" y="-13" font-family="Helvetica,sans-Serif" font-size="10.00" fill="#000000">stdio.h</text>
</g>
<!-- Node26&#45;&gt;Node27 -->
<g id="edge27" class="edge">
<title>Node26&#45;&gt;Node27</title>
<path fill="none" stroke="#191970" d="M886.6563,-67.3906C871.4582,-57.5519 847.6152,-42.1167 829.8794,-30.6351"/>
<polygon fill="#191970" stroke="#191970" points="831.5361,-27.5382 821.2395,-25.0419 827.732,-33.4144 831.5361,-27.5382"/>
</g>
<!-- Node28 -->
<g id="node29" class="node">
<title>Node28</title>
<polygon fill="#ffffff" stroke="#bfbfbf" points="848,-6 848,-25 955,-25 955,-6 848,-6"/>
<text text-anchor="middle" x="901.5" y="-13" font-family="Helvetica,sans-Serif" font-size="10.00" fill="#000000">boost/filesystem.hpp</text>
</g>
<!-- Node26&#45;&gt;Node28 -->
<g id="edge29" class="edge">
<title>Node26&#45;&gt;Node28</title>
<path fill="none" stroke="#191970" d="M901.5,-67.3906C901.5,-58.8657 901.5,-46.1392 901.5,-35.4235"/>
<polygon fill="#191970" stroke="#191970" points="905.0001,-35.2448 901.5,-25.2449 898.0001,-35.2449 905.0001,-35.2448"/>
</g>
<!-- Node29 -->
<g id="node30" class="node">
<title>Node29</title>
<polygon fill="#ffffff" stroke="#bfbfbf" points="973,-6 973,-25 1116,-25 1116,-6 973,-6"/>
<text text-anchor="middle" x="1044.5" y="-13" font-family="Helvetica,sans-Serif" font-size="10.00" fill="#000000">boost/filesystem/fstream.hpp</text>
</g>
<!-- Node26&#45;&gt;Node29 -->
<g id="edge30" class="edge">
<title>Node26&#45;&gt;Node29</title>
<path fill="none" stroke="#191970" d="M918.1838,-69.8248C941.3513,-59.8612 983.7079,-41.6449 1012.9442,-29.0712"/>
<polygon fill="#191970" stroke="#191970" points="1014.5058,-32.2096 1022.3095,-25.0435 1011.7402,-25.7791 1014.5058,-32.2096"/>
</g>
<!-- Node30 -->
<g id="node31" class="node">
<title>Node30</title>
<polygon fill="#ffffff" stroke="#bfbfbf" points="1134.5,-.5 1134.5,-30.5 1256.5,-30.5 1256.5,-.5 1134.5,-.5"/>
<text text-anchor="start" x="1142.5" y="-18.5" font-family="Helvetica,sans-Serif" font-size="10.00" fill="#000000">boost/filesystem/detail</text>
<text text-anchor="middle" x="1195.5" y="-7.5" font-family="Helvetica,sans-Serif" font-size="10.00" fill="#000000">/utf8_codecvt_facet.hpp</text>
</g>
<!-- Node26&#45;&gt;Node30 -->
<g id="edge31" class="edge">
<title>Node26&#45;&gt;Node30</title>
<path fill="none" stroke="#191970" d="M918.1286,-70.0784C921.2105,-68.9465 924.4271,-67.8636 927.5,-67 1013.1862,-42.9199 1037.2308,-48.4944 1124.5,-31 1124.6005,-30.9799 1124.7011,-30.9597 1124.8018,-30.9395"/>
<polygon fill="#191970" stroke="#191970" points="1125.2399,-34.4223 1134.3369,-28.9915 1123.8387,-27.564 1125.2399,-34.4223"/>
</g>
<!-- Node31&#45;&gt;Node5 -->
<g id="edge41" class="edge">
<title>Node31&#45;&gt;Node5</title>
<path fill="none" stroke="#191970" d="M515.443,-132.625C475.5482,-124.1089 399.972,-107.3782 326.646,-87.1676"/>
<polygon fill="#191970" stroke="#191970" points="327.3587,-83.733 316.7865,-84.4247 325.4825,-90.4769 327.3587,-83.733"/>
</g>
<!-- Node31&#45;&gt;Node7 -->
<g id="edge42" class="edge">
<title>Node31&#45;&gt;Node7</title>
<path fill="none" stroke="#191970" d="M559.2721,-128.8484C594.2041,-107.4721 678.2997,-56.0106 720.0858,-30.44"/>
<polygon fill="#191970" stroke="#191970" points="722.0983,-33.3119 728.8011,-25.1068 718.4446,-27.3411 722.0983,-33.3119"/>
</g>
<!-- Node31&#45;&gt;Node8 -->
<g id="edge43" class="edge">
<title>Node31&#45;&gt;Node8</title>
<path fill="none" stroke="#191970" d="M533.6563,-128.8906C524.0961,-119.5581 509.3777,-105.1902 497.8505,-93.9374"/>
<polygon fill="#191970" stroke="#191970" points="500.0832,-91.2257 490.4825,-86.7449 495.1934,-96.2348 500.0832,-91.2257"/>
</g>
<!-- Node31&#45;&gt;Node26 -->
<g id="edge33" class="edge">
<title>Node31&#45;&gt;Node26</title>
<path fill="none" stroke="#191970" d="M571.5801,-132.4007C585.6404,-129.4221 602.9404,-125.871 618.5,-123 712.4447,-105.6655 824.584,-88.4687 874.839,-80.9455"/>
<polygon fill="#191970" stroke="#191970" points="875.4959,-84.3864 884.8702,-79.4495 874.4633,-77.4629 875.4959,-84.3864"/>
</g>
<!-- Node31&#45;&gt;Node32 -->
<g id="edge34" class="edge">
<title>Node31&#45;&gt;Node32</title>
<path fill="none" stroke="#191970" d="M516.1563,-128.8906C486.3618,-118.42 438.5315,-101.6111 405.4192,-89.9745"/>
<polygon fill="#191970" stroke="#191970" points="406.2466,-86.5554 395.6517,-86.5419 403.9257,-93.1595 406.2466,-86.5554"/>
</g>
<!-- Node31&#45;&gt;Node38 -->
<g id="edge38" class="edge">
<title>Node31&#45;&gt;Node38</title>
<path fill="none" stroke="#191970" d="M566.9375,-128.8906C592.1453,-118.5554 632.4153,-102.0447 660.7477,-90.4284"/>
<polygon fill="#191970" stroke="#191970" points="662.3023,-93.5739 670.2271,-86.5419 659.6468,-87.0971 662.3023,-93.5739"/>
</g>
<!-- Node39 -->
<g id="node38" class="node">
<title>Node39</title>
<polygon fill="#ffffff" stroke="#bfbfbf" points="520.5,-67.5 520.5,-86.5 566.5,-86.5 566.5,-67.5 520.5,-67.5"/>
<text text-anchor="middle" x="543.5" y="-74.5" font-family="Helvetica,sans-Serif" font-size="10.00" fill="#000000">cstdint</text>
</g>
<!-- Node31&#45;&gt;Node39 -->
<g id="edge39" class="edge">
<title>Node31&#45;&gt;Node39</title>
<path fill="none" stroke="#191970" d="M543.5,-128.8906C543.5,-120.3657 543.5,-107.6392 543.5,-96.9235"/>
<polygon fill="#191970" stroke="#191970" points="547.0001,-96.7448 543.5,-86.7449 540.0001,-96.7449 547.0001,-96.7448"/>
</g>
<!-- Node40 -->
<g id="node39" class="node">
<title>Node40</title>
<polygon fill="#ffffff" stroke="#bfbfbf" points="585,-67.5 585,-86.5 614,-86.5 614,-67.5 585,-67.5"/>
<text text-anchor="middle" x="599.5" y="-74.5" font-family="Helvetica,sans-Serif" font-size="10.00" fill="#000000">list</text>
</g>
<!-- Node31&#45;&gt;Node40 -->
<g id="edge40" class="edge">
<title>Node31&#45;&gt;Node40</title>
<path fill="none" stroke="#191970" d="M552.25,-128.8906C560.6662,-119.6478 573.5797,-105.466 583.781,-94.2628"/>
<polygon fill="#191970" stroke="#191970" points="586.4818,-96.4953 590.6266,-86.7449 581.306,-91.7824 586.4818,-96.4953"/>
</g>
<!-- Node33 -->
<g id="node34" class="node">
<title>Node33</title>
<polygon fill="#ffffff" stroke="#bfbfbf" points="269.5,-6 269.5,-25 325.5,-25 325.5,-6 269.5,-6"/>
<text text-anchor="middle" x="297.5" y="-13" font-family="Helvetica,sans-Serif" font-size="10.00" fill="#000000">algorithm</text>
</g>
<!-- Node32&#45;&gt;Node33 -->
<g id="edge35" class="edge">
<title>Node32&#45;&gt;Node33</title>
<path fill="none" stroke="#191970" d="M357.4063,-67.3906C346.5285,-57.9683 329.7252,-43.4134 316.68,-32.1137"/>
<polygon fill="#191970" stroke="#191970" points="318.6004,-29.1466 308.7502,-25.2449 314.0173,-34.4377 318.6004,-29.1466"/>
</g>
<!-- Node34 -->
<g id="node35" class="node">
<title>Node34</title>
<polygon fill="#ffffff" stroke="#bfbfbf" points="344,-6 344,-25 393,-25 393,-6 344,-6"/>
<text text-anchor="middle" x="368.5" y="-13" font-family="Helvetica,sans-Serif" font-size="10.00" fill="#000000">cassert</text>
</g>
<!-- Node32&#45;&gt;Node34 -->
<g id="edge36" class="edge">
<title>Node32&#45;&gt;Node34</title>
<path fill="none" stroke="#191970" d="M368.5,-67.3906C368.5,-58.8657 368.5,-46.1392 368.5,-35.4235"/>
<polygon fill="#191970" stroke="#191970" points="372.0001,-35.2448 368.5,-25.2449 365.0001,-35.2449 372.0001,-35.2448"/>
</g>
<!-- Node35 -->
<g id="node36" class="node">
<title>Node35</title>
<polygon fill="#ffffff" stroke="#bfbfbf" points="411.5,-6 411.5,-25 465.5,-25 465.5,-6 411.5,-6"/>
<text text-anchor="middle" x="438.5" y="-13" font-family="Helvetica,sans-Serif" font-size="10.00" fill="#000000">iostream</text>
</g>
<!-- Node32&#45;&gt;Node35 -->
<g id="edge37" class="edge">
<title>Node32&#45;&gt;Node35</title>
<path fill="none" stroke="#191970" d="M379.4375,-67.3906C390.162,-57.9683 406.7287,-43.4134 419.5901,-32.1137"/>
<polygon fill="#191970" stroke="#191970" points="422.2059,-34.4745 427.4083,-25.2449 417.5857,-29.2158 422.2059,-34.4745"/>
</g>
<!-- Node41&#45;&gt;Node7 -->
<g id="edge48" class="edge">
<title>Node41&#45;&gt;Node7</title>
<path fill="none" stroke="#191970" d="M675.011,-128.9427C690.9144,-120.169 712.7567,-105.7023 725.5,-87 735.9891,-71.606 740.6916,-50.7061 742.7975,-35.4795"/>
<polygon fill="#191970" stroke="#191970" points="746.3221,-35.4536 743.9546,-25.1266 739.3654,-34.676 746.3221,-35.4536"/>
</g>
<!-- Node41&#45;&gt;Node42 -->
<g id="edge47" class="edge">
<title>Node41&#45;&gt;Node42</title>
<path fill="none" stroke="#191970" d="M678.1563,-128.8906C702.4174,-118.6005 741.1118,-102.1888 768.48,-90.5809"/>
<polygon fill="#191970" stroke="#191970" points="770.1633,-93.6688 778.0028,-86.5419 767.43,-87.2245 770.1633,-93.6688"/>
</g>
<!-- Node50&#45;&gt;Node7 -->
<g id="edge62" class="edge">
<title>Node50&#45;&gt;Node7</title>
<path fill="none" stroke="#191970" d="M2104.7129,-190.4208C2109.8117,-165.6117 2119.3625,-98.9777 2083.5,-67 2029.2014,-18.5832 844.9485,-49.1531 774.5,-31 772.7827,-30.5575 771.0524,-30.0031 769.3361,-29.3695"/>
<polygon fill="#191970" stroke="#191970" points="770.4035,-26.012 759.8479,-25.1014 767.5318,-32.3958 770.4035,-26.012"/>
</g>
<!-- Node51 -->
<g id="node50" class="node">
<title>Node51</title>
<polygon fill="#ffffff" stroke="#bfbfbf" points="2130.5,-129 2130.5,-148 2178.5,-148 2178.5,-129 2130.5,-129"/>
<text text-anchor="middle" x="2154.5" y="-136" font-family="Helvetica,sans-Serif" font-size="10.00" fill="#000000">stdlib.h</text>
</g>
<!-- Node50&#45;&gt;Node51 -->
<g id="edge61" class="edge">
<title>Node50&#45;&gt;Node51</title>
<path fill="none" stroke="#191970" d="M2110.625,-190.3906C2118.3642,-181.2376 2130.1987,-167.2409 2139.6272,-156.09"/>
<polygon fill="#191970" stroke="#191970" points="2142.4765,-158.1409 2146.2604,-148.2449 2137.1311,-153.6213 2142.4765,-158.1409"/>
</g>
</g>
</svg>
