<?xml version="1.0" encoding="UTF-8" standalone="no"?>
<!DOCTYPE svg PUBLIC "-//W3C//DTD SVG 1.1//EN"
 "http://www.w3.org/Graphics/SVG/1.1/DTD/svg11.dtd">
<!-- Generated by graphviz version 2.49.3 (0)
 -->
<!-- Title: src/base58.h Pages: 1 -->
<svg width="312pt" height="140pt"
 viewBox="0.00 0.00 312.00 140.00" xmlns="http://www.w3.org/2000/svg" xmlns:xlink="http://www.w3.org/1999/xlink">
<g id="graph0" class="graph" transform="scale(1 1) rotate(0) translate(4 136)">
<title>src/base58.h</title>
<polygon fill="white" stroke="transparent" points="-4,4 -4,-136 308,-136 308,4 -4,4"/>
<!-- Node1 -->
<g id="node1" class="node">
<title>Node1</title>
<g id="a_node1"><a xlink:title=" ">
<polygon fill="#bfbfbf" stroke="black" points="144.5,-112.5 144.5,-131.5 222.5,-131.5 222.5,-112.5 144.5,-112.5"/>
<text text-anchor="middle" x="183.5" y="-119.5" font-family="Helvetica,sans-Serif" font-size="10.00">src/base58.h</text>
</a>
</g>
</g>
<!-- Node2 -->
<g id="node2" class="node">
<title>Node2</title>
<g id="a_node2"><a xlink:href="attributes_8h.html" target="_top" xlink:title=" ">
<polygon fill="white" stroke="black" points="36,-56.5 36,-75.5 109,-75.5 109,-56.5 36,-56.5"/>
<text text-anchor="middle" x="72.5" y="-63.5" font-family="Helvetica,sans-Serif" font-size="10.00">attributes.h</text>
</a>
</g>
</g>
<!-- Node1&#45;&gt;Node2 -->
<g id="edge1" class="edge">
<title>Node1&#45;&gt;Node2</title>
<path fill="none" stroke="midnightblue" d="M165.67,-112.32C147.78,-103.62 120.02,-90.12 99.45,-80.11"/>
<polygon fill="midnightblue" stroke="midnightblue" points="100.81,-76.88 90.29,-75.65 97.75,-83.18 100.81,-76.88"/>
</g>
<!-- Node3 -->
<g id="node3" class="node">
<title>Node3</title>
<g id="a_node3"><a xlink:href="span_8h.html" target="_top" xlink:title=" ">
<polygon fill="white" stroke="black" points="127,-56.5 127,-75.5 176,-75.5 176,-56.5 127,-56.5"/>
<text text-anchor="middle" x="151.5" y="-63.5" font-family="Helvetica,sans-Serif" font-size="10.00">span.h</text>
</a>
</g>
</g>
<!-- Node1&#45;&gt;Node3 -->
<g id="edge2" class="edge">
<title>Node1&#45;&gt;Node3</title>
<path fill="none" stroke="midnightblue" d="M178.22,-112.08C173.79,-104.61 167.34,-93.72 161.88,-84.52"/>
<polygon fill="midnightblue" stroke="midnightblue" points="164.79,-82.57 156.69,-75.75 158.77,-86.14 164.79,-82.57"/>
</g>
<!-- Node8 -->
<g id="node8" class="node">
<title>Node8</title>
<g id="a_node8"><a xlink:title=" ">
<polygon fill="white" stroke="#bfbfbf" points="194.5,-56.5 194.5,-75.5 238.5,-75.5 238.5,-56.5 194.5,-56.5"/>
<text text-anchor="middle" x="216.5" y="-63.5" font-family="Helvetica,sans-Serif" font-size="10.00">string</text>
</a>
</g>
</g>
<!-- Node1&#45;&gt;Node8 -->
<g id="edge7" class="edge">
<title>Node1&#45;&gt;Node8</title>
<path fill="none" stroke="midnightblue" d="M188.95,-112.08C193.51,-104.61 200.17,-93.72 205.79,-84.52"/>
<polygon fill="midnightblue" stroke="midnightblue" points="208.92,-86.11 211.15,-75.75 202.95,-82.46 208.92,-86.11"/>
</g>
<!-- Node9 -->
<g id="node9" class="node">
<title>Node9</title>
<g id="a_node9"><a xlink:title=" ">
<polygon fill="white" stroke="#bfbfbf" points="257,-56.5 257,-75.5 304,-75.5 304,-56.5 257,-56.5"/>
<text text-anchor="middle" x="280.5" y="-63.5" font-family="Helvetica,sans-Serif" font-size="10.00">vector</text>
</a>
</g>
</g>
<!-- Node1&#45;&gt;Node9 -->
<g id="edge8" class="edge">
<title>Node1&#45;&gt;Node9</title>
<path fill="none" stroke="midnightblue" d="M199.08,-112.32C214.5,-103.74 238.31,-90.49 256.21,-80.52"/>
<polygon fill="midnightblue" stroke="midnightblue" points="257.92,-83.58 264.95,-75.65 254.51,-77.46 257.92,-83.58"/>
</g>
<!-- Node4 -->
<g id="node4" class="node">
<title>Node4</title>
<g id="a_node4"><a xlink:title=" ">
<polygon fill="white" stroke="#bfbfbf" points="0,-0.5 0,-19.5 69,-19.5 69,-0.5 0,-0.5"/>
<text text-anchor="middle" x="34.5" y="-7.5" font-family="Helvetica,sans-Serif" font-size="10.00">type_traits</text>
</a>
</g>
</g>
<!-- Node3&#45;&gt;Node4 -->
<g id="edge3" class="edge">
<title>Node3&#45;&gt;Node4</title>
<path fill="none" stroke="midnightblue" d="M132.96,-56.44C113.88,-47.64 83.93,-33.81 62.06,-23.72"/>
<polygon fill="midnightblue" stroke="midnightblue" points="63.5,-20.53 52.95,-19.52 60.57,-26.88 63.5,-20.53"/>
</g>
<!-- Node5 -->
<g id="node5" class="node">
<title>Node5</title>
<g id="a_node5"><a xlink:title=" ">
<polygon fill="white" stroke="#bfbfbf" points="87,-0.5 87,-19.5 140,-19.5 140,-0.5 87,-0.5"/>
<text text-anchor="middle" x="113.5" y="-7.5" font-family="Helvetica,sans-Serif" font-size="10.00">cstddef</text>
</a>
</g>
</g>
<!-- Node3&#45;&gt;Node5 -->
<g id="edge4" class="edge">
<title>Node3&#45;&gt;Node5</title>
<path fill="none" stroke="midnightblue" d="M145.23,-56.08C139.86,-48.46 131.98,-37.26 125.42,-27.94"/>
<polygon fill="midnightblue" stroke="midnightblue" points="128.28,-25.91 119.66,-19.75 122.55,-29.94 128.28,-25.91"/>
</g>
<!-- Node6 -->
<g id="node6" class="node">
<title>Node6</title>
<g id="a_node6"><a xlink:title=" ">
<polygon fill="white" stroke="#bfbfbf" points="158.5,-0.5 158.5,-19.5 222.5,-19.5 222.5,-0.5 158.5,-0.5"/>
<text text-anchor="middle" x="190.5" y="-7.5" font-family="Helvetica,sans-Serif" font-size="10.00">algorithm</text>
</a>
</g>
</g>
<!-- Node3&#45;&gt;Node6 -->
<g id="edge5" class="edge">
<title>Node3&#45;&gt;Node6</title>
<path fill="none" stroke="midnightblue" d="M157.94,-56.08C163.45,-48.46 171.53,-37.26 178.26,-27.94"/>
<polygon fill="midnightblue" stroke="midnightblue" points="181.16,-29.91 184.18,-19.75 175.49,-25.81 181.16,-29.91"/>
</g>
<!-- Node7 -->
<g id="node7" class="node">
<title>Node7</title>
<g id="a_node7"><a xlink:title=" ">
<polygon fill="white" stroke="#bfbfbf" points="240.5,-0.5 240.5,-19.5 296.5,-19.5 296.5,-0.5 240.5,-0.5"/>
<text text-anchor="middle" x="268.5" y="-7.5" font-family="Helvetica,sans-Serif" font-size="10.00">assert.h</text>
</a>
</g>
</g>
<!-- Node3&#45;&gt;Node7 -->
<g id="edge6" class="edge">
<title>Node3&#45;&gt;Node7</title>
<path fill="none" stroke="midnightblue" d="M170.04,-56.44C189.12,-47.64 219.07,-33.81 240.94,-23.72"/>
<polygon fill="midnightblue" stroke="midnightblue" points="242.43,-26.88 250.05,-19.52 239.5,-20.53 242.43,-26.88"/>
</g>
</g>
</svg>
