<?xml version="1.0" encoding="UTF-8" standalone="no"?>
<!DOCTYPE svg PUBLIC "-//W3C//DTD SVG 1.1//EN"
 "http://www.w3.org/Graphics/SVG/1.1/DTD/svg11.dtd">
<!-- Generated by graphviz version 2.49.3 (0)
 -->
<!-- Title: ParseResult Pages: 1 -->
<svg width="489pt" height="180pt"
 viewBox="0.00 0.00 489.00 180.00" xmlns="http://www.w3.org/2000/svg" xmlns:xlink="http://www.w3.org/1999/xlink">
<g id="graph0" class="graph" transform="scale(1 1) rotate(0) translate(4 176)">
<title>ParseResult</title>
<polygon fill="white" stroke="transparent" points="-4,4 -4,-176 485,-176 485,4 -4,4"/>
<!-- Node1 -->
<g id="node1" class="node">
<title>Node1</title>
<g id="a_node1"><a xlink:title="Parse UniValue result to update the message to print to std::cout.">
<polygon fill="#bfbfbf" stroke="black" points="0,-95.5 0,-114.5 74,-114.5 74,-95.5 0,-95.5"/>
<text text-anchor="middle" x="37" y="-102.5" font-family="Helvetica,sans-Serif" font-size="10.00">ParseResult</text>
</a>
</g>
</g>
<!-- Node2 -->
<g id="node2" class="node">
<title>Node2</title>
<g id="a_node2"><a xlink:href="class_uni_value.html#a087ea6ccec615333371fa1aaf83ab7df" target="_top" xlink:title=" ">
<polygon fill="white" stroke="black" points="110,-152.5 110,-171.5 210,-171.5 210,-152.5 110,-152.5"/>
<text text-anchor="middle" x="160" y="-159.5" font-family="Helvetica,sans-Serif" font-size="10.00">UniValue::get_str</text>
</a>
</g>
</g>
<!-- Node1&#45;&gt;Node2 -->
<g id="edge1" class="edge">
<title>Node1&#45;&gt;Node2</title>
<path fill="none" stroke="midnightblue" d="M54.89,-114.63C69.31,-122.67 90.71,-134.2 110,-143 114.22,-144.93 118.7,-146.84 123.17,-148.66"/>
<polygon fill="midnightblue" stroke="midnightblue" points="122.24,-152.06 132.83,-152.5 124.83,-145.55 122.24,-152.06"/>
</g>
<!-- Node4 -->
<g id="node4" class="node">
<title>Node4</title>
<g id="a_node4"><a xlink:href="class_uni_value.html#a3661be0f5580daceb23e5338e3a0df22" target="_top" xlink:title=" ">
<polygon fill="white" stroke="black" points="113,-114.5 113,-133.5 207,-133.5 207,-114.5 113,-114.5"/>
<text text-anchor="middle" x="160" y="-121.5" font-family="Helvetica,sans-Serif" font-size="10.00">UniValue::isNull</text>
</a>
</g>
</g>
<!-- Node1&#45;&gt;Node4 -->
<g id="edge3" class="edge">
<title>Node1&#45;&gt;Node4</title>
<path fill="none" stroke="midnightblue" d="M74.3,-110.7C83.29,-112.11 93.14,-113.66 102.83,-115.18"/>
<polygon fill="midnightblue" stroke="midnightblue" points="102.42,-118.66 112.84,-116.75 103.5,-111.74 102.42,-118.66"/>
</g>
<!-- Node5 -->
<g id="node5" class="node">
<title>Node5</title>
<g id="a_node5"><a xlink:href="class_uni_value.html#a8abe13a4663ccfda54ae2440ed445c5a" target="_top" xlink:title=" ">
<polygon fill="white" stroke="black" points="116,-76.5 116,-95.5 204,-95.5 204,-76.5 116,-76.5"/>
<text text-anchor="middle" x="160" y="-83.5" font-family="Helvetica,sans-Serif" font-size="10.00">UniValue::isStr</text>
</a>
</g>
</g>
<!-- Node1&#45;&gt;Node5 -->
<g id="edge4" class="edge">
<title>Node1&#45;&gt;Node5</title>
<path fill="none" stroke="midnightblue" d="M74.3,-99.3C84.22,-97.74 95.18,-96.02 105.83,-94.35"/>
<polygon fill="midnightblue" stroke="midnightblue" points="106.56,-97.78 115.9,-92.77 105.48,-90.86 106.56,-97.78"/>
</g>
<!-- Node6 -->
<g id="node6" class="node">
<title>Node6</title>
<g id="a_node6"><a xlink:href="class_uni_value.html#a350a1d888e5d64e7e7bbb7dc6c045f16" target="_top" xlink:title=" ">
<polygon fill="white" stroke="black" points="114.5,-38.5 114.5,-57.5 205.5,-57.5 205.5,-38.5 114.5,-38.5"/>
<text text-anchor="middle" x="160" y="-45.5" font-family="Helvetica,sans-Serif" font-size="10.00">UniValue::write</text>
</a>
</g>
</g>
<!-- Node1&#45;&gt;Node6 -->
<g id="edge5" class="edge">
<title>Node1&#45;&gt;Node6</title>
<path fill="none" stroke="midnightblue" d="M54.89,-95.37C69.31,-87.33 90.71,-75.8 110,-67 114.22,-65.07 118.7,-63.16 123.17,-61.34"/>
<polygon fill="midnightblue" stroke="midnightblue" points="124.83,-64.45 132.83,-57.5 122.24,-57.94 124.83,-64.45"/>
</g>
<!-- Node3 -->
<g id="node3" class="node">
<title>Node3</title>
<g id="a_node3"><a xlink:href="class_uni_value.html#a46cb80a3205cfa12f8a6d4de7d6fe6e8" target="_top" xlink:title=" ">
<polygon fill="white" stroke="black" points="252,-152.5 252,-171.5 362,-171.5 362,-152.5 252,-152.5"/>
<text text-anchor="middle" x="307" y="-159.5" font-family="Helvetica,sans-Serif" font-size="10.00">UniValue::getValStr</text>
</a>
</g>
</g>
<!-- Node2&#45;&gt;Node3 -->
<g id="edge2" class="edge">
<title>Node2&#45;&gt;Node3</title>
<path fill="none" stroke="midnightblue" d="M210.09,-162C220.3,-162 231.21,-162 241.87,-162"/>
<polygon fill="midnightblue" stroke="midnightblue" points="241.98,-165.5 251.98,-162 241.98,-158.5 241.98,-165.5"/>
</g>
<!-- Node7 -->
<g id="node7" class="node">
<title>Node7</title>
<g id="a_node7"><a xlink:href="univalue__write_8cpp.html#a48d41711dfe22d01b33f0180039557b1" target="_top" xlink:title=" ">
<polygon fill="white" stroke="black" points="404,-57.5 404,-76.5 481,-76.5 481,-57.5 404,-57.5"/>
<text text-anchor="middle" x="442.5" y="-64.5" font-family="Helvetica,sans-Serif" font-size="10.00">json_escape</text>
</a>
</g>
</g>
<!-- Node6&#45;&gt;Node7 -->
<g id="edge6" class="edge">
<title>Node6&#45;&gt;Node7</title>
<path fill="none" stroke="midnightblue" d="M195.45,-57.51C210.79,-61.27 229.17,-65.14 246,-67 296.17,-72.54 354.02,-71.64 393.7,-69.92"/>
<polygon fill="midnightblue" stroke="midnightblue" points="394.06,-73.41 403.89,-69.44 393.73,-66.41 394.06,-73.41"/>
</g>
<!-- Node8 -->
<g id="node8" class="node">
<title>Node8</title>
<g id="a_node8"><a xlink:href="class_uni_value.html#a2824e7181bfb79b0b46839c34db41927" target="_top" xlink:title=" ">
<polygon fill="white" stroke="black" points="248.5,-0.5 248.5,-19.5 365.5,-19.5 365.5,-0.5 248.5,-0.5"/>
<text text-anchor="middle" x="307" y="-7.5" font-family="Helvetica,sans-Serif" font-size="10.00">UniValue::writeArray</text>
</a>
</g>
</g>
<!-- Node6&#45;&gt;Node8 -->
<g id="edge7" class="edge">
<title>Node6&#45;&gt;Node8</title>
<path fill="none" stroke="midnightblue" d="M197.59,-38.41C216.47,-33.46 239.69,-27.38 259.79,-22.11"/>
<polygon fill="midnightblue" stroke="midnightblue" points="260.89,-25.44 269.67,-19.52 259.11,-18.67 260.89,-25.44"/>
</g>
<!-- Node10 -->
<g id="node10" class="node">
<title>Node10</title>
<g id="a_node10"><a xlink:href="class_uni_value.html#ae162dacdbb5a5a945f4d98db9b70d99f" target="_top" xlink:title=" ">
<polygon fill="white" stroke="black" points="246,-38.5 246,-57.5 368,-57.5 368,-38.5 246,-38.5"/>
<text text-anchor="middle" x="307" y="-45.5" font-family="Helvetica,sans-Serif" font-size="10.00">UniValue::writeObject</text>
</a>
</g>
</g>
<!-- Node6&#45;&gt;Node10 -->
<g id="edge9" class="edge">
<title>Node6&#45;&gt;Node10</title>
<path fill="none" stroke="midnightblue" d="M205.69,-48C215.24,-48 225.54,-48 235.79,-48"/>
<polygon fill="midnightblue" stroke="midnightblue" points="235.99,-51.5 245.99,-48 235.99,-44.5 235.99,-51.5"/>
</g>
<!-- Node9 -->
<g id="node9" class="node">
<title>Node9</title>
<g id="a_node9"><a xlink:href="univalue__write_8cpp.html#abd519c7741d78400c857475112181673" target="_top" xlink:title=" ">
<polygon fill="white" stroke="black" points="412,-10.5 412,-29.5 473,-29.5 473,-10.5 412,-10.5"/>
<text text-anchor="middle" x="442.5" y="-17.5" font-family="Helvetica,sans-Serif" font-size="10.00">indentStr</text>
</a>
</g>
</g>
<!-- Node8&#45;&gt;Node9 -->
<g id="edge8" class="edge">
<title>Node8&#45;&gt;Node9</title>
<path fill="none" stroke="midnightblue" d="M365.78,-14.33C377.97,-15.24 390.57,-16.19 401.91,-17.03"/>
<polygon fill="midnightblue" stroke="midnightblue" points="401.69,-20.53 411.92,-17.78 402.21,-13.55 401.69,-20.53"/>
</g>
<!-- Node10&#45;&gt;Node7 -->
<g id="edge11" class="edge">
<title>Node10&#45;&gt;Node7</title>
<path fill="none" stroke="midnightblue" d="M368.11,-56.56C376.77,-57.79 385.58,-59.04 393.95,-60.23"/>
<polygon fill="midnightblue" stroke="midnightblue" points="393.51,-63.7 403.9,-61.65 394.49,-56.77 393.51,-63.7"/>
</g>
<!-- Node10&#45;&gt;Node9 -->
<g id="edge10" class="edge">
<title>Node10&#45;&gt;Node9</title>
<path fill="none" stroke="midnightblue" d="M353.57,-38.44C369.16,-35.17 386.47,-31.54 401.57,-28.37"/>
<polygon fill="midnightblue" stroke="midnightblue" points="402.57,-31.74 411.63,-26.26 401.13,-24.89 402.57,-31.74"/>
</g>
</g>
</svg>
