<?xml version="1.0" encoding="UTF-8" standalone="no"?>
<!DOCTYPE svg PUBLIC "-//W3C//DTD SVG 1.1//EN"
 "http://www.w3.org/Graphics/SVG/1.1/DTD/svg11.dtd">
<!-- Generated by graphviz version 2.38.0 (20140413.2041)
 -->
<!-- Title: src/qt/bitcoingui.h Pages: 1 -->
<svg width="819pt" height="84pt"
 viewBox="0.00 0.00 818.50 84.00" xmlns="http://www.w3.org/2000/svg" xmlns:xlink="http://www.w3.org/1999/xlink">
<g id="graph0" class="graph" transform="scale(1 1) rotate(0) translate(4 80)">
<title>src/qt/bitcoingui.h</title>
<polygon fill="white" stroke="none" points="-4,4 -4,-80 814.5,-80 814.5,4 -4,4"/>
<!-- Node1 -->
<g id="node1" class="node"><title>Node1</title>
<polygon fill="#bfbfbf" stroke="black" points="359.5,-56.5 359.5,-75.5 460.5,-75.5 460.5,-56.5 359.5,-56.5"/>
<text text-anchor="middle" x="410" y="-63.5" font-family="Helvetica,sans-Serif" font-size="10.00">src/qt/bitcoingui.h</text>
</g>
<!-- Node2 -->
<g id="node2" class="node"><title>Node2</title>
<g id="a_node2"><a xlink:href="addressbookpage_8cpp.html" target="_top" xlink:title="src/qt/addressbookpage.cpp">
<polygon fill="white" stroke="black" points="0,-0.5 0,-19.5 152,-19.5 152,-0.5 0,-0.5"/>
<text text-anchor="middle" x="76" y="-7.5" font-family="Helvetica,sans-Serif" font-size="10.00">src/qt/addressbookpage.cpp</text>
</a>
</g>
</g>
<!-- Node1&#45;&gt;Node2 -->
<g id="edge1" class="edge"><title>Node1&#45;&gt;Node2</title>
<path fill="none" stroke="midnightblue" d="M349.068,-55.1487C285.973,-44.9477 188.413,-29.1746 128.585,-19.5018"/>
<polygon fill="midnightblue" stroke="midnightblue" points="348.842,-58.6576 359.273,-56.7986 349.959,-51.7473 348.842,-58.6576"/>
</g>
<!-- Node3 -->
<g id="node3" class="node"><title>Node3</title>
<g id="a_node3"><a xlink:href="bitcoin_8cpp.html" target="_top" xlink:title="src/qt/bitcoin.cpp">
<polygon fill="white" stroke="black" points="170,-0.5 170,-19.5 268,-19.5 268,-0.5 170,-0.5"/>
<text text-anchor="middle" x="219" y="-7.5" font-family="Helvetica,sans-Serif" font-size="10.00">src/qt/bitcoin.cpp</text>
</a>
</g>
</g>
<!-- Node1&#45;&gt;Node3 -->
<g id="edge2" class="edge"><title>Node1&#45;&gt;Node3</title>
<path fill="none" stroke="midnightblue" d="M370.027,-53.6986C333.979,-43.507 281.757,-28.7429 249.123,-19.5164"/>
<polygon fill="midnightblue" stroke="midnightblue" points="369.16,-57.0909 379.735,-56.4435 371.065,-50.3549 369.16,-57.0909"/>
</g>
<!-- Node4 -->
<g id="node4" class="node"><title>Node4</title>
<g id="a_node4"><a xlink:href="bitcoingui_8cpp.html" target="_top" xlink:title="src/qt/bitcoingui.cpp">
<polygon fill="white" stroke="black" points="286.5,-0.5 286.5,-19.5 399.5,-19.5 399.5,-0.5 286.5,-0.5"/>
<text text-anchor="middle" x="343" y="-7.5" font-family="Helvetica,sans-Serif" font-size="10.00">src/qt/bitcoingui.cpp</text>
</a>
</g>
</g>
<!-- Node1&#45;&gt;Node4 -->
<g id="edge3" class="edge"><title>Node1&#45;&gt;Node4</title>
<path fill="none" stroke="midnightblue" d="M391.165,-49.8197C379.162,-40.1452 364.028,-27.9481 353.961,-19.8339"/>
<polygon fill="midnightblue" stroke="midnightblue" points="389.253,-52.7738 399.235,-56.324 393.646,-47.3236 389.253,-52.7738"/>
</g>
<!-- Node5 -->
<g id="node5" class="node"><title>Node5</title>
<g id="a_node5"><a xlink:href="utilitydialog_8cpp.html" target="_top" xlink:title="src/qt/utilitydialog.cpp">
<polygon fill="white" stroke="black" points="417.5,-0.5 417.5,-19.5 538.5,-19.5 538.5,-0.5 417.5,-0.5"/>
<text text-anchor="middle" x="478" y="-7.5" font-family="Helvetica,sans-Serif" font-size="10.00">src/qt/utilitydialog.cpp</text>
</a>
</g>
</g>
<!-- Node1&#45;&gt;Node5 -->
<g id="edge4" class="edge"><title>Node1&#45;&gt;Node5</title>
<path fill="none" stroke="midnightblue" d="M428.762,-50.1008C441,-40.3824 456.559,-28.0269 466.876,-19.8339"/>
<polygon fill="midnightblue" stroke="midnightblue" points="426.58,-47.3642 420.925,-56.324 430.933,-52.846 426.58,-47.3642"/>
</g>
<!-- Node6 -->
<g id="node6" class="node"><title>Node6</title>
<g id="a_node6"><a xlink:href="walletframe_8cpp.html" target="_top" xlink:title="src/qt/walletframe.cpp">
<polygon fill="white" stroke="black" points="557,-0.5 557,-19.5 679,-19.5 679,-0.5 557,-0.5"/>
<text text-anchor="middle" x="618" y="-7.5" font-family="Helvetica,sans-Serif" font-size="10.00">src/qt/walletframe.cpp</text>
</a>
</g>
</g>
<!-- Node1&#45;&gt;Node6 -->
<g id="edge5" class="edge"><title>Node1&#45;&gt;Node6</title>
<path fill="none" stroke="midnightblue" d="M452.778,-53.8941C492.058,-43.6966 549.429,-28.802 585.196,-19.5164"/>
<polygon fill="midnightblue" stroke="midnightblue" points="451.758,-50.5429 442.958,-56.4435 453.517,-57.3183 451.758,-50.5429"/>
</g>
<!-- Node7 -->
<g id="node7" class="node"><title>Node7</title>
<g id="a_node7"><a xlink:href="walletview_8cpp.html" target="_top" xlink:title="src/qt/walletview.cpp">
<polygon fill="white" stroke="black" points="697.5,-0.5 697.5,-19.5 810.5,-19.5 810.5,-0.5 697.5,-0.5"/>
<text text-anchor="middle" x="754" y="-7.5" font-family="Helvetica,sans-Serif" font-size="10.00">src/qt/walletview.cpp</text>
</a>
</g>
</g>
<!-- Node1&#45;&gt;Node7 -->
<g id="edge6" class="edge"><title>Node1&#45;&gt;Node7</title>
<path fill="none" stroke="midnightblue" d="M470.836,-55.4502C535.671,-45.2726 637.373,-29.3077 699.623,-19.536"/>
<polygon fill="midnightblue" stroke="midnightblue" points="470.095,-52.0236 460.758,-57.0321 471.18,-58.9389 470.095,-52.0236"/>
</g>
</g>
</svg>
