<?xml version="1.0" encoding="UTF-8" standalone="no"?>
<!DOCTYPE svg PUBLIC "-//W3C//DTD SVG 1.1//EN"
 "http://www.w3.org/Graphics/SVG/1.1/DTD/svg11.dtd">
<!-- Generated by graphviz version 2.49.3 (0)
 -->
<!-- Title: getmempoolinfo Pages: 1 -->
<svg width="1387pt" height="623pt"
 viewBox="0.00 0.00 1387.00 622.50" xmlns="http://www.w3.org/2000/svg" xmlns:xlink="http://www.w3.org/1999/xlink">
<g id="graph0" class="graph" transform="scale(1 1) rotate(0) translate(4 618.5)">
<title>getmempoolinfo</title>
<polygon fill="white" stroke="transparent" points="-4,4 -4,-618.5 1383,-618.5 1383,4 -4,4"/>
<!-- Node1 -->
<g id="node1" class="node">
<title>Node1</title>
<g id="a_node1"><a xlink:title=" ">
<polygon fill="#bfbfbf" stroke="black" points="0,-403.5 0,-422.5 98,-422.5 98,-403.5 0,-403.5"/>
<text text-anchor="middle" x="49" y="-410.5" font-family="Helvetica,sans-Serif" font-size="10.00">getmempoolinfo</text>
</a>
</g>
</g>
<!-- Node2 -->
<g id="node2" class="node">
<title>Node2</title>
<g id="a_node2"><a xlink:href="blockchain_8cpp.html#a81d9d3eec4d55a6c88f665db858a5e3d" target="_top" xlink:title=" ">
<polygon fill="white" stroke="black" points="135,-507.5 135,-526.5 249,-526.5 249,-507.5 135,-507.5"/>
<text text-anchor="middle" x="192" y="-514.5" font-family="Helvetica,sans-Serif" font-size="10.00">EnsureAnyMemPool</text>
</a>
</g>
</g>
<!-- Node1&#45;&gt;Node2 -->
<g id="edge1" class="edge">
<title>Node1&#45;&gt;Node2</title>
<path fill="none" stroke="midnightblue" d="M63.01,-422.6C87.36,-440.55 139.99,-479.38 169.62,-501.23"/>
<polygon fill="midnightblue" stroke="midnightblue" points="167.89,-504.31 178.02,-507.43 172.05,-498.67 167.89,-504.31"/>
</g>
<!-- Node17 -->
<g id="node11" class="node">
<title>Node17</title>
<g id="a_node11"><a xlink:href="rpc_2util_8cpp.html#a26bafe3d526ee8cbc84b3c0b0dc3a43b" target="_top" xlink:title=" ">
<polygon fill="white" stroke="black" points="144.5,-422.5 144.5,-441.5 239.5,-441.5 239.5,-422.5 144.5,-422.5"/>
<text text-anchor="middle" x="192" y="-429.5" font-family="Helvetica,sans-Serif" font-size="10.00">HelpExampleCli</text>
</a>
</g>
</g>
<!-- Node1&#45;&gt;Node17 -->
<g id="edge11" class="edge">
<title>Node1&#45;&gt;Node17</title>
<path fill="none" stroke="midnightblue" d="M98.13,-419.49C109.61,-421.03 121.97,-422.7 133.81,-424.29"/>
<polygon fill="midnightblue" stroke="midnightblue" points="133.66,-427.81 144.04,-425.67 134.6,-420.87 133.66,-427.81"/>
</g>
<!-- Node18 -->
<g id="node12" class="node">
<title>Node18</title>
<g id="a_node12"><a xlink:href="rpc_2util_8cpp.html#a9ef4f8fb114508ceb861a0e8c3e0d26e" target="_top" xlink:title=" ">
<polygon fill="white" stroke="black" points="142,-384.5 142,-403.5 242,-403.5 242,-384.5 142,-384.5"/>
<text text-anchor="middle" x="192" y="-391.5" font-family="Helvetica,sans-Serif" font-size="10.00">HelpExampleRpc</text>
</a>
</g>
</g>
<!-- Node1&#45;&gt;Node18 -->
<g id="edge12" class="edge">
<title>Node1&#45;&gt;Node18</title>
<path fill="none" stroke="midnightblue" d="M98.13,-406.51C108.88,-405.07 120.4,-403.51 131.55,-402.01"/>
<polygon fill="midnightblue" stroke="midnightblue" points="132.2,-405.45 141.65,-400.65 131.27,-398.52 132.2,-405.45"/>
</g>
<!-- Node19 -->
<g id="node13" class="node">
<title>Node19</title>
<g id="a_node13"><a xlink:href="blockchain_8cpp.html#a80859ca39e0f7b317d4965b47a1df62b" target="_top" xlink:title="Mempool information to JSON.">
<polygon fill="white" stroke="black" points="134,-296.5 134,-315.5 250,-315.5 250,-296.5 134,-296.5"/>
<text text-anchor="middle" x="192" y="-303.5" font-family="Helvetica,sans-Serif" font-size="10.00">MempoolInfoToJSON</text>
</a>
</g>
</g>
<!-- Node1&#45;&gt;Node19 -->
<g id="edge13" class="edge">
<title>Node1&#45;&gt;Node19</title>
<path fill="none" stroke="midnightblue" d="M63.01,-403.13C87.58,-384.48 140.98,-343.95 170.45,-321.59"/>
<polygon fill="midnightblue" stroke="midnightblue" points="172.58,-324.38 178.43,-315.54 168.34,-318.8 172.58,-324.38"/>
</g>
<!-- Node3 -->
<g id="node3" class="node">
<title>Node3</title>
<g id="a_node3"><a xlink:href="blockchain_8cpp.html#a67354cad1749b02a7186ea9e889ddd18" target="_top" xlink:title=" ">
<polygon fill="white" stroke="black" points="311.5,-545.5 311.5,-564.5 443.5,-564.5 443.5,-545.5 311.5,-545.5"/>
<text text-anchor="middle" x="377.5" y="-552.5" font-family="Helvetica,sans-Serif" font-size="10.00">EnsureAnyNodeContext</text>
</a>
</g>
</g>
<!-- Node2&#45;&gt;Node3 -->
<g id="edge2" class="edge">
<title>Node2&#45;&gt;Node3</title>
<path fill="none" stroke="midnightblue" d="M239.3,-526.59C263.96,-531.69 294.46,-538.01 320.44,-543.39"/>
<polygon fill="midnightblue" stroke="midnightblue" points="320.03,-546.88 330.53,-545.48 321.45,-540.02 320.03,-546.88"/>
</g>
<!-- Node16 -->
<g id="node10" class="node">
<title>Node16</title>
<g id="a_node10"><a xlink:href="blockchain_8cpp.html#a6d6787cfa4e88b858f330fa4ee6bf85a" target="_top" xlink:title=" ">
<polygon fill="white" stroke="black" points="330,-507.5 330,-526.5 425,-526.5 425,-507.5 330,-507.5"/>
<text text-anchor="middle" x="377.5" y="-514.5" font-family="Helvetica,sans-Serif" font-size="10.00">EnsureMemPool</text>
</a>
</g>
</g>
<!-- Node2&#45;&gt;Node16 -->
<g id="edge9" class="edge">
<title>Node2&#45;&gt;Node16</title>
<path fill="none" stroke="midnightblue" d="M249.05,-517C271.45,-517 297.2,-517 319.67,-517"/>
<polygon fill="midnightblue" stroke="midnightblue" points="319.74,-520.5 329.74,-517 319.74,-513.5 319.74,-520.5"/>
</g>
<!-- Node4 -->
<g id="node4" class="node">
<title>Node4</title>
<g id="a_node4"><a xlink:href="request_8cpp.html#a40b75d3d265c4a2e1d5fe3e129743884" target="_top" xlink:title=" ">
<polygon fill="white" stroke="black" points="549,-545.5 549,-564.5 632,-564.5 632,-545.5 549,-545.5"/>
<text text-anchor="middle" x="590.5" y="-552.5" font-family="Helvetica,sans-Serif" font-size="10.00">JSONRPCError</text>
</a>
</g>
</g>
<!-- Node3&#45;&gt;Node4 -->
<g id="edge3" class="edge">
<title>Node3&#45;&gt;Node4</title>
<path fill="none" stroke="midnightblue" d="M443.53,-555C474.16,-555 510.15,-555 538.73,-555"/>
<polygon fill="midnightblue" stroke="midnightblue" points="538.9,-558.5 548.9,-555 538.9,-551.5 538.9,-558.5"/>
</g>
<!-- Node5 -->
<g id="node5" class="node">
<title>Node5</title>
<g id="a_node5"><a xlink:href="system_8h.html#a96c5fc7111f69f7dcaba992d95d13e03" target="_top" xlink:title=" ">
<polygon fill="white" stroke="black" points="781,-570.5 781,-589.5 821,-589.5 821,-570.5 781,-570.5"/>
<text text-anchor="middle" x="801" y="-577.5" font-family="Helvetica,sans-Serif" font-size="10.00">error</text>
</a>
</g>
</g>
<!-- Node4&#45;&gt;Node5 -->
<g id="edge4" class="edge">
<title>Node4&#45;&gt;Node5</title>
<path fill="none" stroke="midnightblue" d="M632.2,-559.88C672.79,-564.75 734.18,-572.11 770.37,-576.45"/>
<polygon fill="midnightblue" stroke="midnightblue" points="770.39,-579.98 780.74,-577.69 771.23,-573.02 770.39,-579.98"/>
</g>
<!-- Node6 -->
<g id="node6" class="node">
<title>Node6</title>
<g id="a_node6"><a xlink:href="namespacetinyformat.html#a05144619d8b16e2b31b2594ca9c6bf1d" target="_top" xlink:title="Format list of arguments to the stream according to given format string.">
<polygon fill="white" stroke="black" points="935.5,-570.5 935.5,-589.5 1042.5,-589.5 1042.5,-570.5 935.5,-570.5"/>
<text text-anchor="middle" x="989" y="-577.5" font-family="Helvetica,sans-Serif" font-size="10.00">tinyformat::format</text>
</a>
</g>
</g>
<!-- Node5&#45;&gt;Node6 -->
<g id="edge5" class="edge">
<title>Node5&#45;&gt;Node6</title>
<path fill="none" stroke="midnightblue" d="M821.2,-580C845.55,-580 888.74,-580 925.07,-580"/>
<polygon fill="midnightblue" stroke="midnightblue" points="925.11,-583.5 935.11,-580 925.11,-576.5 925.11,-583.5"/>
</g>
<!-- Node7 -->
<g id="node7" class="node">
<title>Node7</title>
<g id="a_node7"><a xlink:href="namespacetinyformat.html#aa0e1f6113d2c7d019aac703672a650bd" target="_top" xlink:title="Make type&#45;agnostic format list from list of template arguments.">
<polygon fill="white" stroke="black" points="1088,-551.5 1088,-570.5 1241,-570.5 1241,-551.5 1088,-551.5"/>
<text text-anchor="middle" x="1164.5" y="-558.5" font-family="Helvetica,sans-Serif" font-size="10.00">tinyformat::makeFormatList</text>
</a>
</g>
</g>
<!-- Node6&#45;&gt;Node7 -->
<g id="edge6" class="edge">
<title>Node6&#45;&gt;Node7</title>
<path fill="none" stroke="midnightblue" d="M1042.53,-574.25C1053.67,-573.03 1065.71,-571.71 1077.72,-570.39"/>
<polygon fill="midnightblue" stroke="midnightblue" points="1078.23,-573.86 1087.79,-569.29 1077.47,-566.9 1078.23,-573.86"/>
</g>
<!-- Node8 -->
<g id="node8" class="node">
<title>Node8</title>
<g id="a_node8"><a xlink:href="namespacetinyformat.html#a86ed74eb3ed66a662e96220d877da964" target="_top" xlink:title="Format list of arguments to the stream according to the given format string.">
<polygon fill="white" stroke="black" points="1108,-589.5 1108,-608.5 1221,-608.5 1221,-589.5 1108,-589.5"/>
<text text-anchor="middle" x="1164.5" y="-596.5" font-family="Helvetica,sans-Serif" font-size="10.00">tinyformat::vformat</text>
</a>
</g>
</g>
<!-- Node6&#45;&gt;Node8 -->
<g id="edge7" class="edge">
<title>Node6&#45;&gt;Node8</title>
<path fill="none" stroke="midnightblue" d="M1042.53,-585.75C1059.95,-587.66 1079.56,-589.81 1097.84,-591.81"/>
<polygon fill="midnightblue" stroke="midnightblue" points="1097.52,-595.29 1107.84,-592.9 1098.28,-588.34 1097.52,-595.29"/>
</g>
<!-- Node9 -->
<g id="node9" class="node">
<title>Node9</title>
<g id="a_node9"><a xlink:href="namespacetinyformat_1_1detail.html#a9fe547bc617c38498e58c12cce507bec" target="_top" xlink:title=" ">
<polygon fill="white" stroke="red" points="1277,-584 1277,-614 1379,-614 1379,-584 1277,-584"/>
<text text-anchor="start" x="1285" y="-602" font-family="Helvetica,sans-Serif" font-size="10.00">tinyformat::detail</text>
<text text-anchor="middle" x="1328" y="-591" font-family="Helvetica,sans-Serif" font-size="10.00">::formatImpl</text>
</a>
</g>
</g>
<!-- Node8&#45;&gt;Node9 -->
<g id="edge8" class="edge">
<title>Node8&#45;&gt;Node9</title>
<path fill="none" stroke="midnightblue" d="M1221.08,-599C1235.76,-599 1251.67,-599 1266.59,-599"/>
<polygon fill="midnightblue" stroke="midnightblue" points="1266.73,-602.5 1276.73,-599 1266.73,-595.5 1266.73,-602.5"/>
</g>
<!-- Node16&#45;&gt;Node4 -->
<g id="edge10" class="edge">
<title>Node16&#45;&gt;Node4</title>
<path fill="none" stroke="midnightblue" d="M425.07,-525.39C458.76,-531.45 504.25,-539.65 538.85,-545.88"/>
<polygon fill="midnightblue" stroke="midnightblue" points="538.29,-549.33 548.75,-547.66 539.53,-542.44 538.29,-549.33"/>
</g>
<!-- Node20 -->
<g id="node14" class="node">
<title>Node20</title>
<g id="a_node14"><a xlink:href="class_c_tx_mem_pool.html#a4fcf05ad5f15a565c4b43c4b9f29906e" target="_top" xlink:title=" ">
<polygon fill="white" stroke="black" points="505,-481 505,-511 676,-511 676,-481 505,-481"/>
<text text-anchor="start" x="513" y="-499" font-family="Helvetica,sans-Serif" font-size="10.00">CTxMemPool::DynamicMemory</text>
<text text-anchor="middle" x="590.5" y="-488" font-family="Helvetica,sans-Serif" font-size="10.00">Usage</text>
</a>
</g>
</g>
<!-- Node19&#45;&gt;Node20 -->
<g id="edge14" class="edge">
<title>Node19&#45;&gt;Node20</title>
<path fill="none" stroke="midnightblue" d="M201.44,-315.53C216.62,-332.04 250.29,-365.83 286,-383 360.87,-418.99 392.99,-387.5 469,-421 487.06,-428.96 488.44,-436.26 505,-447 520.32,-456.94 537.69,-467.18 552.69,-475.72"/>
<polygon fill="midnightblue" stroke="midnightblue" points="551.25,-478.92 561.68,-480.79 554.69,-472.83 551.25,-478.92"/>
</g>
<!-- Node24 -->
<g id="node18" class="node">
<title>Node24</title>
<g id="a_node18"><a xlink:href="class_c_fee_rate.html#ac772be79983433d442d6b871d2fb6e11" target="_top" xlink:title="Return the fee in satoshis for a size of 1000 bytes.">
<polygon fill="white" stroke="black" points="527.5,-380.5 527.5,-399.5 653.5,-399.5 653.5,-380.5 527.5,-380.5"/>
<text text-anchor="middle" x="590.5" y="-387.5" font-family="Helvetica,sans-Serif" font-size="10.00">CFeeRate::GetFeePerK</text>
</a>
</g>
</g>
<!-- Node19&#45;&gt;Node24 -->
<g id="edge18" class="edge">
<title>Node19&#45;&gt;Node24</title>
<path fill="none" stroke="midnightblue" d="M250,-307.65C306.89,-310.77 396.08,-319.68 469,-345 486.5,-351.08 487.96,-358.75 505,-366 515.53,-370.48 527.14,-374.4 538.3,-377.69"/>
<polygon fill="midnightblue" stroke="midnightblue" points="537.38,-381.07 547.95,-380.43 539.29,-374.34 537.38,-381.07"/>
</g>
<!-- Node26 -->
<g id="node20" class="node">
<title>Node26</title>
<g id="a_node20"><a xlink:href="class_args_manager.html#a899e03676930fa4ae1c66e01a907956d" target="_top" xlink:title="Return integer argument or default value.">
<polygon fill="white" stroke="black" points="310.5,-274.5 310.5,-293.5 444.5,-293.5 444.5,-274.5 310.5,-274.5"/>
<text text-anchor="middle" x="377.5" y="-281.5" font-family="Helvetica,sans-Serif" font-size="10.00">ArgsManager::GetIntArg</text>
</a>
</g>
</g>
<!-- Node19&#45;&gt;Node26 -->
<g id="edge20" class="edge">
<title>Node19&#45;&gt;Node26</title>
<path fill="none" stroke="midnightblue" d="M250.05,-299.16C265.91,-297.26 283.39,-295.16 300.16,-293.15"/>
<polygon fill="midnightblue" stroke="midnightblue" points="300.98,-296.58 310.49,-291.91 300.15,-289.63 300.98,-296.58"/>
</g>
<!-- Node44 -->
<g id="node38" class="node">
<title>Node44</title>
<g id="a_node38"><a xlink:href="class_c_tx_mem_pool.html#a232651541c3393c81153ffc289e7b71d" target="_top" xlink:title="The minimum fee to get into the mempool, which may itself not be enough for larger&#45;sized transactions...">
<polygon fill="white" stroke="black" points="307.5,-354.5 307.5,-373.5 447.5,-373.5 447.5,-354.5 307.5,-354.5"/>
<text text-anchor="middle" x="377.5" y="-361.5" font-family="Helvetica,sans-Serif" font-size="10.00">CTxMemPool::GetMinFee</text>
</a>
</g>
</g>
<!-- Node19&#45;&gt;Node44 -->
<g id="edge41" class="edge">
<title>Node19&#45;&gt;Node44</title>
<path fill="none" stroke="midnightblue" d="M218.49,-315.6C237.09,-322.47 262.96,-331.74 286,-339 300.14,-343.45 315.65,-347.9 329.78,-351.78"/>
<polygon fill="midnightblue" stroke="midnightblue" points="329.21,-355.25 339.78,-354.49 331.04,-348.5 329.21,-355.25"/>
</g>
<!-- Node47 -->
<g id="node41" class="node">
<title>Node47</title>
<g id="a_node41"><a xlink:href="class_c_tx_mem_pool.html#aef0b691e3ecfd52b7bdbf5e1dec77cd3" target="_top" xlink:title=" ">
<polygon fill="white" stroke="black" points="305,-198.5 305,-217.5 450,-217.5 450,-198.5 305,-198.5"/>
<text text-anchor="middle" x="377.5" y="-205.5" font-family="Helvetica,sans-Serif" font-size="10.00">CTxMemPool::GetTotalFee</text>
</a>
</g>
</g>
<!-- Node19&#45;&gt;Node47 -->
<g id="edge47" class="edge">
<title>Node19&#45;&gt;Node47</title>
<path fill="none" stroke="midnightblue" d="M201.15,-296.49C216.13,-279.65 249.85,-244.71 286,-227 290.96,-224.57 296.21,-222.45 301.6,-220.61"/>
<polygon fill="midnightblue" stroke="midnightblue" points="302.89,-223.87 311.4,-217.56 300.81,-217.18 302.89,-223.87"/>
</g>
<!-- Node49 -->
<g id="node43" class="node">
<title>Node49</title>
<g id="a_node43"><a xlink:href="class_c_tx_mem_pool.html#af2f93e62a3913f08288c3328cfe67c57" target="_top" xlink:title=" ">
<polygon fill="white" stroke="black" points="297.5,-236.5 297.5,-255.5 457.5,-255.5 457.5,-236.5 297.5,-236.5"/>
<text text-anchor="middle" x="377.5" y="-243.5" font-family="Helvetica,sans-Serif" font-size="10.00">CTxMemPool::GetTotalTxSize</text>
</a>
</g>
</g>
<!-- Node19&#45;&gt;Node49 -->
<g id="edge49" class="edge">
<title>Node19&#45;&gt;Node49</title>
<path fill="none" stroke="midnightblue" d="M211.78,-296.33C230.25,-287.15 259.46,-273.53 286,-265 294.33,-262.32 303.21,-259.92 312.04,-257.81"/>
<polygon fill="midnightblue" stroke="midnightblue" points="312.98,-261.18 321.94,-255.54 311.41,-254.36 312.98,-261.18"/>
</g>
<!-- Node50 -->
<g id="node44" class="node">
<title>Node50</title>
<g id="a_node44"><a xlink:href="class_c_tx_mem_pool.html#a1268a32461fb5a2e7cfe44f1d142e0e2" target="_top" xlink:title="Returns transactions in unbroadcast set.">
<polygon fill="white" stroke="black" points="286,-160.5 286,-179.5 469,-179.5 469,-160.5 286,-160.5"/>
<text text-anchor="middle" x="377.5" y="-167.5" font-family="Helvetica,sans-Serif" font-size="10.00">CTxMemPool::GetUnbroadcastTxs</text>
</a>
</g>
</g>
<!-- Node19&#45;&gt;Node50 -->
<g id="edge51" class="edge">
<title>Node19&#45;&gt;Node50</title>
<path fill="none" stroke="midnightblue" d="M197.71,-296.25C209.28,-273.46 241.4,-216.53 286,-189 289.44,-186.88 293.07,-184.99 296.83,-183.31"/>
<polygon fill="midnightblue" stroke="midnightblue" points="298.38,-186.46 306.4,-179.55 295.81,-179.95 298.38,-186.46"/>
</g>
<!-- Node51 -->
<g id="node45" class="node">
<title>Node51</title>
<g id="a_node45"><a xlink:href="class_c_tx_mem_pool.html#ab0dbbfa92b977ed6eabc93b80ccf87e7" target="_top" xlink:title=" ">
<polygon fill="white" stroke="black" points="312,-122.5 312,-141.5 443,-141.5 443,-122.5 312,-122.5"/>
<text text-anchor="middle" x="377.5" y="-129.5" font-family="Helvetica,sans-Serif" font-size="10.00">CTxMemPool::IsLoaded</text>
</a>
</g>
</g>
<!-- Node19&#45;&gt;Node51 -->
<g id="edge52" class="edge">
<title>Node19&#45;&gt;Node51</title>
<path fill="none" stroke="midnightblue" d="M195.73,-296.49C204.13,-269.04 232.31,-189.22 286,-151 290.94,-147.48 296.4,-144.59 302.11,-142.21"/>
<polygon fill="midnightblue" stroke="midnightblue" points="303.69,-145.36 311.91,-138.68 301.32,-138.77 303.69,-145.36"/>
</g>
<!-- Node52 -->
<g id="node46" class="node">
<title>Node52</title>
<g id="a_node46"><a xlink:href="class_uni_value.html#abab649c2dbd593233de6364254456026" target="_top" xlink:title=" ">
<polygon fill="white" stroke="black" points="326,-38.5 326,-57.5 429,-57.5 429,-38.5 326,-38.5"/>
<text text-anchor="middle" x="377.5" y="-45.5" font-family="Helvetica,sans-Serif" font-size="10.00">UniValue::pushKV</text>
</a>
</g>
</g>
<!-- Node19&#45;&gt;Node52 -->
<g id="edge53" class="edge">
<title>Node19&#45;&gt;Node52</title>
<path fill="none" stroke="midnightblue" d="M195.8,-296.21C204.79,-266.12 235.29,-173.39 286,-113 303.72,-91.9 329.74,-74.16 349.34,-62.57"/>
<polygon fill="midnightblue" stroke="midnightblue" points="351.17,-65.55 358.1,-57.53 347.69,-59.48 351.17,-65.55"/>
</g>
<!-- Node55 -->
<g id="node49" class="node">
<title>Node55</title>
<g id="a_node49"><a xlink:href="class_c_tx_mem_pool.html#ad6913ee0f301da884acbc3970ad49358" target="_top" xlink:title=" ">
<polygon fill="white" stroke="black" points="324,-468.5 324,-487.5 431,-487.5 431,-468.5 324,-468.5"/>
<text text-anchor="middle" x="377.5" y="-475.5" font-family="Helvetica,sans-Serif" font-size="10.00">CTxMemPool::size</text>
</a>
</g>
</g>
<!-- Node19&#45;&gt;Node55 -->
<g id="edge56" class="edge">
<title>Node19&#45;&gt;Node55</title>
<path fill="none" stroke="midnightblue" d="M202.47,-315.6C214.65,-328.34 235.92,-351.92 250,-375 271.15,-409.68 254.58,-433.26 286,-459 294.09,-465.63 303.93,-470.12 314.1,-473.12"/>
<polygon fill="midnightblue" stroke="midnightblue" points="313.36,-476.54 323.91,-475.57 315.05,-469.75 313.36,-476.54"/>
</g>
<!-- Node56 -->
<g id="node50" class="node">
<title>Node56</title>
<g id="a_node50"><a xlink:href="core__write_8cpp.html#af7d87ece476c2d6ed5382abf4baa210e" target="_top" xlink:title=" ">
<polygon fill="white" stroke="black" points="324,-430.5 324,-449.5 431,-449.5 431,-430.5 324,-430.5"/>
<text text-anchor="middle" x="377.5" y="-437.5" font-family="Helvetica,sans-Serif" font-size="10.00">ValueFromAmount</text>
</a>
</g>
</g>
<!-- Node19&#45;&gt;Node56 -->
<g id="edge57" class="edge">
<title>Node19&#45;&gt;Node56</title>
<path fill="none" stroke="midnightblue" d="M201,-315.78C222.54,-342.08 280.51,-412.52 286,-416 294.55,-421.41 304.29,-425.61 314.15,-428.86"/>
<polygon fill="midnightblue" stroke="midnightblue" points="313.41,-432.3 323.99,-431.81 315.42,-425.59 313.41,-432.3"/>
</g>
<!-- Node21 -->
<g id="node15" class="node">
<title>Node21</title>
<g id="a_node15"><a xlink:href="namespacememusage.html#a24d4e7ba4b087b7c854e819c37e20ea0" target="_top" xlink:title="Dynamic memory usage for built&#45;in types is zero.">
<polygon fill="white" stroke="black" points="725,-532.5 725,-551.5 877,-551.5 877,-532.5 725,-532.5"/>
<text text-anchor="middle" x="801" y="-539.5" font-family="Helvetica,sans-Serif" font-size="10.00">memusage::DynamicUsage</text>
</a>
</g>
</g>
<!-- Node20&#45;&gt;Node21 -->
<g id="edge15" class="edge">
<title>Node20&#45;&gt;Node21</title>
<path fill="none" stroke="midnightblue" d="M658.09,-511.02C675.62,-514.94 694.52,-519.15 712,-523 722.87,-525.39 734.5,-527.92 745.63,-530.33"/>
<polygon fill="midnightblue" stroke="midnightblue" points="745.16,-533.81 755.67,-532.5 746.63,-526.97 745.16,-533.81"/>
</g>
<!-- Node22 -->
<g id="node16" class="node">
<title>Node22</title>
<g id="a_node16"><a xlink:href="namespacememusage.html#ae8ade104f83bf4c608c282adc365bf90" target="_top" xlink:title="Compute the total memory used by allocating alloc bytes.">
<polygon fill="white" stroke="black" points="731,-494.5 731,-513.5 871,-513.5 871,-494.5 731,-494.5"/>
<text text-anchor="middle" x="801" y="-501.5" font-family="Helvetica,sans-Serif" font-size="10.00">memusage::MallocUsage</text>
</a>
</g>
</g>
<!-- Node20&#45;&gt;Node22 -->
<g id="edge16" class="edge">
<title>Node20&#45;&gt;Node22</title>
<path fill="none" stroke="midnightblue" d="M676,-499.24C690.77,-499.81 706.09,-500.4 720.71,-500.96"/>
<polygon fill="midnightblue" stroke="midnightblue" points="720.57,-504.45 730.7,-501.34 720.84,-497.46 720.57,-504.45"/>
</g>
<!-- Node23 -->
<g id="node17" class="node">
<title>Node23</title>
<g id="a_node17"><a xlink:href="validation_8cpp.html#afb7ea74ba028421697aa7f364741ee6c" target="_top" xlink:title=" ">
<polygon fill="white" stroke="black" points="965.5,-475.5 965.5,-494.5 1012.5,-494.5 1012.5,-475.5 965.5,-475.5"/>
<text text-anchor="middle" x="989" y="-482.5" font-family="Helvetica,sans-Serif" font-size="10.00">assert</text>
</a>
</g>
</g>
<!-- Node22&#45;&gt;Node23 -->
<g id="edge17" class="edge">
<title>Node22&#45;&gt;Node23</title>
<path fill="none" stroke="midnightblue" d="M871.26,-496.93C900.1,-493.98 932.21,-490.7 955.44,-488.33"/>
<polygon fill="midnightblue" stroke="midnightblue" points="955.85,-491.8 965.44,-487.3 955.14,-484.84 955.85,-491.8"/>
</g>
<!-- Node25 -->
<g id="node19" class="node">
<title>Node25</title>
<g id="a_node19"><a xlink:href="class_c_fee_rate.html#a3fd9dd2fef3095de83ec75b4a5648dec" target="_top" xlink:title="Return the fee in satoshis for the given size in bytes.">
<polygon fill="white" stroke="black" points="749,-380.5 749,-399.5 853,-399.5 853,-380.5 749,-380.5"/>
<text text-anchor="middle" x="801" y="-387.5" font-family="Helvetica,sans-Serif" font-size="10.00">CFeeRate::GetFee</text>
</a>
</g>
</g>
<!-- Node24&#45;&gt;Node25 -->
<g id="edge19" class="edge">
<title>Node24&#45;&gt;Node25</title>
<path fill="none" stroke="midnightblue" d="M653.77,-390C680.69,-390 712.1,-390 738.89,-390"/>
<polygon fill="midnightblue" stroke="midnightblue" points="738.91,-393.5 748.91,-390 738.91,-386.5 738.91,-393.5"/>
</g>
<!-- Node27 -->
<g id="node21" class="node">
<title>Node27</title>
<g id="a_node21"><a xlink:href="class_uni_value.html#a34bd3bc2de335486d2060ff907b317d0" target="_top" xlink:title=" ">
<polygon fill="white" stroke="black" points="534.5,-266.5 534.5,-285.5 646.5,-285.5 646.5,-266.5 534.5,-266.5"/>
<text text-anchor="middle" x="590.5" y="-273.5" font-family="Helvetica,sans-Serif" font-size="10.00">UniValue::get_int64</text>
</a>
</g>
</g>
<!-- Node26&#45;&gt;Node27 -->
<g id="edge21" class="edge">
<title>Node26&#45;&gt;Node27</title>
<path fill="none" stroke="midnightblue" d="M444.68,-281.49C469.96,-280.53 498.76,-279.44 523.98,-278.48"/>
<polygon fill="midnightblue" stroke="midnightblue" points="524.32,-281.97 534.18,-278.1 524.06,-274.98 524.32,-281.97"/>
</g>
<!-- Node30 -->
<g id="node24" class="node">
<title>Node30</title>
<g id="a_node24"><a xlink:href="class_uni_value.html#a087ea6ccec615333371fa1aaf83ab7df" target="_top" xlink:title=" ">
<polygon fill="white" stroke="black" points="540.5,-114.5 540.5,-133.5 640.5,-133.5 640.5,-114.5 540.5,-114.5"/>
<text text-anchor="middle" x="590.5" y="-121.5" font-family="Helvetica,sans-Serif" font-size="10.00">UniValue::get_str</text>
</a>
</g>
</g>
<!-- Node26&#45;&gt;Node30 -->
<g id="edge24" class="edge">
<title>Node26&#45;&gt;Node30</title>
<path fill="none" stroke="midnightblue" d="M444.89,-278.82C453.77,-275.74 462.16,-271.32 469,-265 510.54,-226.66 463.73,-181.64 505,-143 512.09,-136.36 520.98,-131.87 530.3,-128.85"/>
<polygon fill="midnightblue" stroke="midnightblue" points="531.38,-132.19 540.13,-126.22 529.56,-125.43 531.38,-132.19"/>
</g>
<!-- Node31 -->
<g id="node25" class="node">
<title>Node31</title>
<g id="a_node25"><a xlink:href="class_args_manager.html#ae22ce1df21c32003b3822817ed4b710e" target="_top" xlink:title="Get setting value.">
<polygon fill="white" stroke="black" points="521,-304.5 521,-323.5 660,-323.5 660,-304.5 521,-304.5"/>
<text text-anchor="middle" x="590.5" y="-311.5" font-family="Helvetica,sans-Serif" font-size="10.00">ArgsManager::GetSetting</text>
</a>
</g>
</g>
<!-- Node26&#45;&gt;Node31 -->
<g id="edge26" class="edge">
<title>Node26&#45;&gt;Node31</title>
<path fill="none" stroke="midnightblue" d="M444.68,-293.41C466.17,-296.46 490.19,-299.88 512.4,-303.04"/>
<polygon fill="midnightblue" stroke="midnightblue" points="512.07,-306.53 522.46,-304.47 513.06,-299.6 512.07,-306.53"/>
</g>
<!-- Node37 -->
<g id="node31" class="node">
<title>Node37</title>
<g id="a_node31"><a xlink:href="class_uni_value.html#ae79ab57378176379dd206c5e2d6f5feb" target="_top" xlink:title=" ">
<polygon fill="white" stroke="black" points="1278.5,-279.5 1278.5,-298.5 1377.5,-298.5 1377.5,-279.5 1278.5,-279.5"/>
<text text-anchor="middle" x="1328" y="-286.5" font-family="Helvetica,sans-Serif" font-size="10.00">UniValue::isFalse</text>
</a>
</g>
</g>
<!-- Node26&#45;&gt;Node37 -->
<g id="edge37" class="edge">
<title>Node26&#45;&gt;Node37</title>
<path fill="none" stroke="midnightblue" d="M433.32,-293.55C445.4,-296.68 457.89,-300.75 469,-306 487.09,-314.54 486.24,-326.07 505,-333 628.24,-378.53 668.62,-352 800,-352 800,-352 800,-352 990,-352 1101.87,-352 1133.31,-363.3 1241,-333 1263.75,-326.6 1287.51,-313.92 1304.28,-303.8"/>
<polygon fill="midnightblue" stroke="midnightblue" points="1306.17,-306.75 1312.82,-298.51 1302.48,-300.8 1306.17,-306.75"/>
</g>
<!-- Node41 -->
<g id="node35" class="node">
<title>Node41</title>
<g id="a_node35"><a xlink:href="class_uni_value.html#a3661be0f5580daceb23e5338e3a0df22" target="_top" xlink:title=" ">
<polygon fill="white" stroke="black" points="543.5,-190.5 543.5,-209.5 637.5,-209.5 637.5,-190.5 543.5,-190.5"/>
<text text-anchor="middle" x="590.5" y="-197.5" font-family="Helvetica,sans-Serif" font-size="10.00">UniValue::isNull</text>
</a>
</g>
</g>
<!-- Node26&#45;&gt;Node41 -->
<g id="edge38" class="edge">
<title>Node26&#45;&gt;Node41</title>
<path fill="none" stroke="midnightblue" d="M444.87,-275.74C453.36,-273.08 461.64,-269.58 469,-265 491.04,-251.28 483.06,-232.88 505,-219 513.58,-213.57 523.51,-209.69 533.48,-206.91"/>
<polygon fill="midnightblue" stroke="midnightblue" points="534.53,-210.25 543.42,-204.48 532.87,-203.45 534.53,-210.25"/>
</g>
<!-- Node42 -->
<g id="node36" class="node">
<title>Node42</title>
<g id="a_node36"><a xlink:href="class_uni_value.html#ac5271a9bb4ece86f00052bb5603eaa78" target="_top" xlink:title=" ">
<polygon fill="white" stroke="black" points="541.5,-152.5 541.5,-171.5 639.5,-171.5 639.5,-152.5 541.5,-152.5"/>
<text text-anchor="middle" x="590.5" y="-159.5" font-family="Helvetica,sans-Serif" font-size="10.00">UniValue::isNum</text>
</a>
</g>
</g>
<!-- Node26&#45;&gt;Node42 -->
<g id="edge39" class="edge">
<title>Node26&#45;&gt;Node42</title>
<path fill="none" stroke="midnightblue" d="M444.71,-277.92C453.51,-274.96 461.92,-270.8 469,-265 500.42,-239.26 473.77,-206.97 505,-181 512.55,-174.72 521.75,-170.41 531.26,-167.47"/>
<polygon fill="midnightblue" stroke="midnightblue" points="532.44,-170.78 541.24,-164.88 530.68,-164.01 532.44,-170.78"/>
</g>
<!-- Node43 -->
<g id="node37" class="node">
<title>Node43</title>
<g id="a_node37"><a xlink:href="class_uni_value.html#a1491167609f899d0c7773749b5047969" target="_top" xlink:title=" ">
<polygon fill="white" stroke="black" points="543,-228.5 543,-247.5 638,-247.5 638,-228.5 543,-228.5"/>
<text text-anchor="middle" x="590.5" y="-235.5" font-family="Helvetica,sans-Serif" font-size="10.00">UniValue::isTrue</text>
</a>
</g>
</g>
<!-- Node26&#45;&gt;Node43 -->
<g id="edge40" class="edge">
<title>Node26&#45;&gt;Node43</title>
<path fill="none" stroke="midnightblue" d="M424.57,-274.45C438.82,-271.47 454.57,-268.13 469,-265 475.94,-263.49 507.99,-256.31 537.28,-249.73"/>
<polygon fill="midnightblue" stroke="midnightblue" points="538.08,-253.14 547.07,-247.54 536.55,-246.31 538.08,-253.14"/>
</g>
<!-- Node28 -->
<g id="node22" class="node">
<title>Node28</title>
<g id="a_node22"><a xlink:href="class_uni_value.html#a46cb80a3205cfa12f8a6d4de7d6fe6e8" target="_top" xlink:title=" ">
<polygon fill="white" stroke="black" points="746,-133.5 746,-152.5 856,-152.5 856,-133.5 746,-133.5"/>
<text text-anchor="middle" x="801" y="-140.5" font-family="Helvetica,sans-Serif" font-size="10.00">UniValue::getValStr</text>
</a>
</g>
</g>
<!-- Node27&#45;&gt;Node28 -->
<g id="edge22" class="edge">
<title>Node27&#45;&gt;Node28</title>
<path fill="none" stroke="midnightblue" d="M646.61,-271.15C657.16,-268.23 667.55,-263.76 676,-257 705.18,-233.65 685.12,-206.97 712,-181 723.28,-170.1 738.18,-162.08 752.51,-156.29"/>
<polygon fill="midnightblue" stroke="midnightblue" points="754.15,-159.41 762.29,-152.63 751.7,-152.86 754.15,-159.41"/>
</g>
<!-- Node29 -->
<g id="node23" class="node">
<title>Node29</title>
<g id="a_node23"><a xlink:href="strencodings_8cpp.html#acb4637787cab6998d4a403d0dcdf51e6" target="_top" xlink:title="Convert string to signed 64&#45;bit integer with strict parse error feedback.">
<polygon fill="white" stroke="black" points="767,-190.5 767,-209.5 835,-209.5 835,-190.5 767,-190.5"/>
<text text-anchor="middle" x="801" y="-197.5" font-family="Helvetica,sans-Serif" font-size="10.00">ParseInt64</text>
</a>
</g>
</g>
<!-- Node27&#45;&gt;Node29 -->
<g id="edge23" class="edge">
<title>Node27&#45;&gt;Node29</title>
<path fill="none" stroke="midnightblue" d="M646.9,-268.48C656.98,-265.76 667.11,-262.05 676,-257 696.23,-245.51 691.72,-230.41 712,-219 725.61,-211.34 742.01,-206.77 756.94,-204.03"/>
<polygon fill="midnightblue" stroke="midnightblue" points="757.67,-207.46 766.99,-202.42 756.56,-200.55 757.67,-207.46"/>
</g>
<!-- Node30&#45;&gt;Node28 -->
<g id="edge25" class="edge">
<title>Node30&#45;&gt;Node28</title>
<path fill="none" stroke="midnightblue" d="M640.65,-128.48C668.99,-131.06 704.95,-134.34 735.54,-137.13"/>
<polygon fill="midnightblue" stroke="midnightblue" points="735.41,-140.63 745.69,-138.05 736.04,-133.66 735.41,-140.63"/>
</g>
<!-- Node32 -->
<g id="node26" class="node">
<title>Node32</title>
<g id="a_node26"><a xlink:href="namespaceutil.html#ad600799ecf02db34bd57992490adc8cf" target="_top" xlink:title="Get settings value from combined sources: forced settings, command line arguments,...">
<polygon fill="white" stroke="black" points="756,-228.5 756,-247.5 846,-247.5 846,-228.5 756,-228.5"/>
<text text-anchor="middle" x="801" y="-235.5" font-family="Helvetica,sans-Serif" font-size="10.00">util::GetSetting</text>
</a>
</g>
</g>
<!-- Node31&#45;&gt;Node32 -->
<g id="edge27" class="edge">
<title>Node31&#45;&gt;Node32</title>
<path fill="none" stroke="midnightblue" d="M654.01,-304.39C661.68,-301.94 669.2,-298.86 676,-295 696.23,-283.51 691.72,-268.41 712,-257 722.22,-251.25 734.01,-247.24 745.57,-244.44"/>
<polygon fill="midnightblue" stroke="midnightblue" points="746.58,-247.8 755.62,-242.28 745.11,-240.96 746.58,-247.8"/>
</g>
<!-- Node39 -->
<g id="node33" class="node">
<title>Node39</title>
<g id="a_node33"><a xlink:href="util_2system_8cpp.html#aabbdc250e20dc3ba2de2a3718a5c0df8" target="_top" xlink:title=" ">
<polygon fill="white" stroke="black" points="761,-266.5 761,-285.5 841,-285.5 841,-266.5 761,-266.5"/>
<text text-anchor="middle" x="801" y="-273.5" font-family="Helvetica,sans-Serif" font-size="10.00">SettingName</text>
</a>
</g>
</g>
<!-- Node31&#45;&gt;Node39 -->
<g id="edge35" class="edge">
<title>Node31&#45;&gt;Node39</title>
<path fill="none" stroke="midnightblue" d="M643.84,-304.46C676.61,-298.49 718.55,-290.84 750.72,-284.98"/>
<polygon fill="midnightblue" stroke="midnightblue" points="751.59,-288.38 760.8,-283.14 750.33,-281.49 751.59,-288.38"/>
</g>
<!-- Node40 -->
<g id="node34" class="node">
<title>Node40</title>
<g id="a_node34"><a xlink:href="class_args_manager.html#ad4df00e7ccb999f80702c7e334d8a152" target="_top" xlink:title="Returns true if settings values from the default section should be used, depending on the current net...">
<polygon fill="white" stroke="black" points="712,-304.5 712,-323.5 890,-323.5 890,-304.5 712,-304.5"/>
<text text-anchor="middle" x="801" y="-311.5" font-family="Helvetica,sans-Serif" font-size="10.00">ArgsManager::UseDefaultSection</text>
</a>
</g>
</g>
<!-- Node31&#45;&gt;Node40 -->
<g id="edge36" class="edge">
<title>Node31&#45;&gt;Node40</title>
<path fill="none" stroke="midnightblue" d="M660.06,-314C673.34,-314 687.49,-314 701.5,-314"/>
<polygon fill="midnightblue" stroke="midnightblue" points="701.67,-317.5 711.67,-314 701.67,-310.5 701.67,-317.5"/>
</g>
<!-- Node33 -->
<g id="node27" class="node">
<title>Node33</title>
<g id="a_node27"><a xlink:href="structutil_1_1_settings_span.html#aedc8fc5f96bb66342cab93cee5dd716e" target="_top" xlink:title="Pointer to first non&#45;negated value.">
<polygon fill="white" stroke="black" points="938,-293 938,-323 1040,-323 1040,-293 938,-293"/>
<text text-anchor="start" x="946" y="-311" font-family="Helvetica,sans-Serif" font-size="10.00">util::SettingsSpan</text>
<text text-anchor="middle" x="989" y="-300" font-family="Helvetica,sans-Serif" font-size="10.00">::begin</text>
</a>
</g>
</g>
<!-- Node32&#45;&gt;Node33 -->
<g id="edge28" class="edge">
<title>Node32&#45;&gt;Node33</title>
<path fill="none" stroke="midnightblue" d="M846.09,-243.83C860.49,-246.7 876.29,-250.89 890,-257 908.03,-265.03 908.72,-273.46 926,-283 929.66,-285.02 933.51,-286.96 937.44,-288.82"/>
<polygon fill="midnightblue" stroke="midnightblue" points="936.11,-292.06 946.66,-292.96 938.98,-285.67 936.11,-292.06"/>
</g>
<!-- Node35 -->
<g id="node29" class="node">
<title>Node35</title>
<g id="a_node29"><a xlink:href="structutil_1_1_settings_span.html#a55d1b74058081147c8d5bb3da1e5d833" target="_top" xlink:title="True if there are any non&#45;negated values.">
<polygon fill="white" stroke="black" points="938,-167 938,-197 1040,-197 1040,-167 938,-167"/>
<text text-anchor="start" x="946" y="-185" font-family="Helvetica,sans-Serif" font-size="10.00">util::SettingsSpan</text>
<text text-anchor="middle" x="989" y="-174" font-family="Helvetica,sans-Serif" font-size="10.00">::empty</text>
</a>
</g>
</g>
<!-- Node32&#45;&gt;Node35 -->
<g id="edge30" class="edge">
<title>Node32&#45;&gt;Node35</title>
<path fill="none" stroke="midnightblue" d="M846.19,-229.8C860.3,-226.82 875.91,-223.16 890,-219 907.5,-213.84 926.33,-207.04 942.76,-200.68"/>
<polygon fill="midnightblue" stroke="midnightblue" points="944.1,-203.92 952.13,-197 941.55,-197.4 944.1,-203.92"/>
</g>
<!-- Node36 -->
<g id="node30" class="node">
<title>Node36</title>
<g id="a_node30"><a xlink:href="structutil_1_1_settings_span.html#ae9fee31fb1a95f26de9c2c2f568f0e19" target="_top" xlink:title="True if the last value is negated.">
<polygon fill="white" stroke="black" points="1113.5,-211 1113.5,-241 1215.5,-241 1215.5,-211 1113.5,-211"/>
<text text-anchor="start" x="1121.5" y="-229" font-family="Helvetica,sans-Serif" font-size="10.00">util::SettingsSpan</text>
<text text-anchor="middle" x="1164.5" y="-218" font-family="Helvetica,sans-Serif" font-size="10.00">::last_negated</text>
</a>
</g>
</g>
<!-- Node32&#45;&gt;Node36 -->
<g id="edge34" class="edge">
<title>Node32&#45;&gt;Node36</title>
<path fill="none" stroke="midnightblue" d="M846.33,-236.53C910.75,-234.39 1030.45,-230.42 1102.95,-228.01"/>
<polygon fill="midnightblue" stroke="midnightblue" points="1103.42,-231.5 1113.29,-227.67 1103.18,-224.5 1103.42,-231.5"/>
</g>
<!-- Node38 -->
<g id="node32" class="node">
<title>Node38</title>
<g id="a_node32"><a xlink:href="structutil_1_1_settings_span.html#a3787e02e0b03d4cbecdc3a60841b88b8" target="_top" xlink:title="Pointer to end of values.">
<polygon fill="white" stroke="black" points="926,-254.5 926,-273.5 1052,-273.5 1052,-254.5 926,-254.5"/>
<text text-anchor="middle" x="989" y="-261.5" font-family="Helvetica,sans-Serif" font-size="10.00">util::SettingsSpan::end</text>
</a>
</g>
</g>
<!-- Node32&#45;&gt;Node38 -->
<g id="edge33" class="edge">
<title>Node32&#45;&gt;Node38</title>
<path fill="none" stroke="midnightblue" d="M846.08,-244.16C866.95,-247.08 892.41,-250.64 915.97,-253.93"/>
<polygon fill="midnightblue" stroke="midnightblue" points="915.55,-257.41 925.94,-255.32 916.52,-250.47 915.55,-257.41"/>
</g>
<!-- Node34 -->
<g id="node28" class="node">
<title>Node34</title>
<g id="a_node28"><a xlink:href="structutil_1_1_settings_span.html#a006e39e85a82859a2d34e0266c90efd2" target="_top" xlink:title="Number of negated values.">
<polygon fill="white" stroke="black" points="1113.5,-293 1113.5,-323 1215.5,-323 1215.5,-293 1113.5,-293"/>
<text text-anchor="start" x="1121.5" y="-311" font-family="Helvetica,sans-Serif" font-size="10.00">util::SettingsSpan</text>
<text text-anchor="middle" x="1164.5" y="-300" font-family="Helvetica,sans-Serif" font-size="10.00">::negated</text>
</a>
</g>
</g>
<!-- Node33&#45;&gt;Node34 -->
<g id="edge29" class="edge">
<title>Node33&#45;&gt;Node34</title>
<path fill="none" stroke="midnightblue" d="M1040.18,-308C1059.87,-308 1082.64,-308 1103.22,-308"/>
<polygon fill="midnightblue" stroke="midnightblue" points="1103.43,-311.5 1113.43,-308 1103.43,-304.5 1103.43,-311.5"/>
</g>
<!-- Node35&#45;&gt;Node36 -->
<g id="edge31" class="edge">
<title>Node35&#45;&gt;Node36</title>
<path fill="none" stroke="midnightblue" d="M1040.18,-194.73C1059.96,-199.74 1082.85,-205.55 1103.5,-210.78"/>
<polygon fill="midnightblue" stroke="midnightblue" points="1102.88,-214.24 1113.43,-213.3 1104.6,-207.45 1102.88,-214.24"/>
</g>
<!-- Node36&#45;&gt;Node37 -->
<g id="edge32" class="edge">
<title>Node36&#45;&gt;Node37</title>
<path fill="none" stroke="midnightblue" d="M1204.18,-241.09C1231.16,-251.61 1266.82,-265.53 1292.77,-275.65"/>
<polygon fill="midnightblue" stroke="midnightblue" points="1291.61,-278.95 1302.2,-279.32 1294.15,-272.43 1291.61,-278.95"/>
</g>
<!-- Node44&#45;&gt;Node20 -->
<g id="edge42" class="edge">
<title>Node44&#45;&gt;Node20</title>
<path fill="none" stroke="midnightblue" d="M440.32,-373.59C450.53,-377.02 460.53,-381.68 469,-388 493.62,-406.37 483.04,-425.52 505,-447 516.74,-458.48 531.68,-468.28 545.72,-476.03"/>
<polygon fill="midnightblue" stroke="midnightblue" points="544.31,-479.24 554.78,-480.83 547.58,-473.06 544.31,-479.24"/>
</g>
<!-- Node44&#45;&gt;Node24 -->
<g id="edge43" class="edge">
<title>Node44&#45;&gt;Node24</title>
<path fill="none" stroke="midnightblue" d="M447.59,-372.51C469.89,-375.26 494.67,-378.32 517.2,-381.09"/>
<polygon fill="midnightblue" stroke="midnightblue" points="517.03,-384.6 527.38,-382.35 517.88,-377.65 517.03,-384.6"/>
</g>
<!-- Node45 -->
<g id="node39" class="node">
<title>Node45</title>
<g id="a_node39"><a xlink:href="time_8cpp.html#ad11e03a8d791f8cafff278a2c7de8c9a" target="_top" xlink:title="DEPRECATED Use either GetTimeSeconds (not mockable) or GetTime&lt;T&gt; (mockable)">
<polygon fill="white" stroke="black" points="561,-418.5 561,-437.5 620,-437.5 620,-418.5 561,-418.5"/>
<text text-anchor="middle" x="590.5" y="-425.5" font-family="Helvetica,sans-Serif" font-size="10.00">GetTime</text>
</a>
</g>
</g>
<!-- Node44&#45;&gt;Node45 -->
<g id="edge44" class="edge">
<title>Node44&#45;&gt;Node45</title>
<path fill="none" stroke="midnightblue" d="M423.94,-373.51C438.6,-377.24 454.74,-382.08 469,-388 486.11,-395.1 487.76,-402.22 505,-409 519.41,-414.67 535.91,-418.85 550.47,-421.83"/>
<polygon fill="midnightblue" stroke="midnightblue" points="550.2,-425.34 560.68,-423.78 551.52,-418.46 550.2,-425.34"/>
</g>
<!-- Node45&#45;&gt;Node23 -->
<g id="edge45" class="edge">
<title>Node45&#45;&gt;Node23</title>
<path fill="none" stroke="midnightblue" d="M620.21,-432.69C644.6,-436.63 680.57,-442.36 712,-447 799.78,-459.96 903.49,-473.86 955.21,-480.7"/>
<polygon fill="midnightblue" stroke="midnightblue" points="955.07,-484.21 965.44,-482.05 955.98,-477.27 955.07,-484.21"/>
</g>
<!-- Node46 -->
<g id="node40" class="node">
<title>Node46</title>
<g id="a_node40"><a xlink:href="time_8cpp.html#a3f7dd7433910d4d5aea5296836cf7257" target="_top" xlink:title="For testing.">
<polygon fill="white" stroke="black" points="764,-418.5 764,-437.5 838,-437.5 838,-418.5 764,-418.5"/>
<text text-anchor="middle" x="801" y="-425.5" font-family="Helvetica,sans-Serif" font-size="10.00">nMockTime</text>
</a>
</g>
</g>
<!-- Node45&#45;&gt;Node46 -->
<g id="edge46" class="edge">
<title>Node45&#45;&gt;Node46</title>
<path fill="none" stroke="midnightblue" d="M620.05,-428C654.42,-428 712.61,-428 753.49,-428"/>
<polygon fill="midnightblue" stroke="midnightblue" points="753.75,-431.5 763.75,-428 753.75,-424.5 753.75,-431.5"/>
</g>
<!-- Node48 -->
<g id="node42" class="node">
<title>Node48</title>
<g id="a_node42"><a xlink:href="validation_8cpp.html#abee2920f50f82cc5721ae2cd3f1c4f95" target="_top" xlink:title=" ">
<polygon fill="white" stroke="black" points="544.5,-76.5 544.5,-95.5 636.5,-95.5 636.5,-76.5 544.5,-76.5"/>
<text text-anchor="middle" x="590.5" y="-83.5" font-family="Helvetica,sans-Serif" font-size="10.00">AssertLockHeld</text>
</a>
</g>
</g>
<!-- Node47&#45;&gt;Node48 -->
<g id="edge48" class="edge">
<title>Node47&#45;&gt;Node48</title>
<path fill="none" stroke="midnightblue" d="M450.21,-199.89C456.99,-197.13 463.41,-193.58 469,-189 500.42,-163.26 473.77,-130.97 505,-105 513.41,-98.01 523.86,-93.46 534.52,-90.52"/>
<polygon fill="midnightblue" stroke="midnightblue" points="535.35,-93.92 544.31,-88.26 533.78,-87.1 535.35,-93.92"/>
</g>
<!-- Node49&#45;&gt;Node48 -->
<g id="edge50" class="edge">
<title>Node49&#45;&gt;Node48</title>
<path fill="none" stroke="midnightblue" d="M455.16,-236.49C460.18,-233.94 464.87,-230.81 469,-227 510.54,-188.66 463.73,-143.64 505,-105 513.07,-97.45 523.47,-92.66 534.2,-89.68"/>
<polygon fill="midnightblue" stroke="midnightblue" points="535.11,-93.06 544.08,-87.43 533.56,-86.24 535.11,-93.06"/>
</g>
<!-- Node53 -->
<g id="node47" class="node">
<title>Node53</title>
<g id="a_node47"><a xlink:href="class_uni_value.html#a505a2087cb7d9ee51d24a97a5cc7910c" target="_top" xlink:title=" ">
<polygon fill="white" stroke="black" points="534,-38.5 534,-57.5 647,-57.5 647,-38.5 534,-38.5"/>
<text text-anchor="middle" x="590.5" y="-45.5" font-family="Helvetica,sans-Serif" font-size="10.00">UniValue::__pushKV</text>
</a>
</g>
</g>
<!-- Node52&#45;&gt;Node53 -->
<g id="edge54" class="edge">
<title>Node52&#45;&gt;Node53</title>
<path fill="none" stroke="midnightblue" d="M429.04,-48C457.41,-48 493.14,-48 523.67,-48"/>
<polygon fill="midnightblue" stroke="midnightblue" points="523.81,-51.5 533.81,-48 523.81,-44.5 523.81,-51.5"/>
</g>
<!-- Node54 -->
<g id="node48" class="node">
<title>Node54</title>
<g id="a_node48"><a xlink:href="class_uni_value.html#a85f3a2f520375b464fb506b2ede5c3df" target="_top" xlink:title=" ">
<polygon fill="white" stroke="black" points="539.5,-0.5 539.5,-19.5 641.5,-19.5 641.5,-0.5 539.5,-0.5"/>
<text text-anchor="middle" x="590.5" y="-7.5" font-family="Helvetica,sans-Serif" font-size="10.00">UniValue::findKey</text>
</a>
</g>
</g>
<!-- Node52&#45;&gt;Node54 -->
<g id="edge55" class="edge">
<title>Node52&#45;&gt;Node54</title>
<path fill="none" stroke="midnightblue" d="M429.04,-38.9C459.18,-33.47 497.63,-26.54 529.34,-20.84"/>
<polygon fill="midnightblue" stroke="midnightblue" points="530.15,-24.24 539.37,-19.03 528.91,-17.36 530.15,-24.24"/>
</g>
</g>
</svg>
