<?xml version="1.0" encoding="UTF-8" standalone="no"?>
<!DOCTYPE svg PUBLIC "-//W3C//DTD SVG 1.1//EN"
 "http://www.w3.org/Graphics/SVG/1.1/DTD/svg11.dtd">
<!-- Generated by graphviz version 2.49.3 (0)
 -->
<!-- Title: src/index/blockfilterindex.h Pages: 1 -->
<svg width="903pt" height="95pt"
 viewBox="0.00 0.00 902.50 95.00" xmlns="http://www.w3.org/2000/svg" xmlns:xlink="http://www.w3.org/1999/xlink">
<g id="graph0" class="graph" transform="scale(1 1) rotate(0) translate(4 91)">
<title>src/index/blockfilterindex.h</title>
<polygon fill="white" stroke="transparent" points="-4,4 -4,-91 898.5,-91 898.5,4 -4,4"/>
<!-- Node1 -->
<g id="node1" class="node">
<title>Node1</title>
<g id="a_node1"><a xlink:title=" ">
<polygon fill="#bfbfbf" stroke="black" points="400.5,-67.5 400.5,-86.5 549.5,-86.5 549.5,-67.5 400.5,-67.5"/>
<text text-anchor="middle" x="475" y="-74.5" font-family="Helvetica,sans-Serif" font-size="10.00">src/index/blockfilterindex.h</text>
</a>
</g>
</g>
<!-- Node2 -->
<g id="node2" class="node">
<title>Node2</title>
<g id="a_node2"><a xlink:href="blockfilterindex_8cpp.html" target="_top" xlink:title=" ">
<polygon fill="white" stroke="black" points="0,-6 0,-25 160,-25 160,-6 0,-6"/>
<text text-anchor="middle" x="80" y="-13" font-family="Helvetica,sans-Serif" font-size="10.00">src/index/blockfilterindex.cpp</text>
</a>
</g>
</g>
<!-- Node1&#45;&gt;Node2 -->
<g id="edge1" class="edge">
<title>Node1&#45;&gt;Node2</title>
<path fill="none" stroke="midnightblue" d="M405.08,-66.03C343.03,-57.11 249.93,-43.54 169,-31 156.93,-29.13 143.96,-27.05 131.75,-25.07"/>
<polygon fill="midnightblue" stroke="midnightblue" points="404.76,-69.52 415.15,-67.48 405.75,-62.59 404.76,-69.52"/>
</g>
<!-- Node3 -->
<g id="node3" class="node">
<title>Node3</title>
<g id="a_node3"><a xlink:href="init_8cpp.html" target="_top" xlink:title=" ">
<polygon fill="white" stroke="black" points="178,-6 178,-25 248,-25 248,-6 178,-6"/>
<text text-anchor="middle" x="213" y="-13" font-family="Helvetica,sans-Serif" font-size="10.00">src/init.cpp</text>
</a>
</g>
</g>
<!-- Node1&#45;&gt;Node3 -->
<g id="edge2" class="edge">
<title>Node1&#45;&gt;Node3</title>
<path fill="none" stroke="midnightblue" d="M415.73,-65.67C371.64,-57.53 310.17,-45.2 257,-31 250.63,-29.3 243.82,-27.2 237.52,-25.13"/>
<polygon fill="midnightblue" stroke="midnightblue" points="415.24,-69.14 425.7,-67.5 416.5,-62.25 415.24,-69.14"/>
</g>
<!-- Node4 -->
<g id="node4" class="node">
<title>Node4</title>
<g id="a_node4"><a xlink:href="net__processing_8cpp.html" target="_top" xlink:title=" ">
<polygon fill="white" stroke="black" points="266,-6 266,-25 394,-25 394,-6 266,-6"/>
<text text-anchor="middle" x="330" y="-13" font-family="Helvetica,sans-Serif" font-size="10.00">src/net_processing.cpp</text>
</a>
</g>
</g>
<!-- Node1&#45;&gt;Node4 -->
<g id="edge3" class="edge">
<title>Node1&#45;&gt;Node4</title>
<path fill="none" stroke="midnightblue" d="M444.86,-63.63C416.69,-52.07 375.38,-35.12 350.74,-25.01"/>
<polygon fill="midnightblue" stroke="midnightblue" points="443.64,-66.92 454.23,-67.48 446.3,-60.44 443.64,-66.92"/>
</g>
<!-- Node5 -->
<g id="node5" class="node">
<title>Node5</title>
<g id="a_node5"><a xlink:href="blockchain_8cpp.html" target="_top" xlink:title=" ">
<polygon fill="white" stroke="black" points="412.5,-6 412.5,-25 537.5,-25 537.5,-6 412.5,-6"/>
<text text-anchor="middle" x="475" y="-13" font-family="Helvetica,sans-Serif" font-size="10.00">src/rpc/blockchain.cpp</text>
</a>
</g>
</g>
<!-- Node1&#45;&gt;Node5 -->
<g id="edge4" class="edge">
<title>Node1&#45;&gt;Node5</title>
<path fill="none" stroke="midnightblue" d="M475,-57.32C475,-46.5 475,-33.4 475,-25.01"/>
<polygon fill="midnightblue" stroke="midnightblue" points="471.5,-57.48 475,-67.48 478.5,-57.48 471.5,-57.48"/>
</g>
<!-- Node6 -->
<g id="node6" class="node">
<title>Node6</title>
<g id="a_node6"><a xlink:href="misc_8cpp.html" target="_top" xlink:title=" ">
<polygon fill="white" stroke="black" points="555.5,-6 555.5,-25 650.5,-25 650.5,-6 555.5,-6"/>
<text text-anchor="middle" x="603" y="-13" font-family="Helvetica,sans-Serif" font-size="10.00">src/rpc/misc.cpp</text>
</a>
</g>
</g>
<!-- Node1&#45;&gt;Node6 -->
<g id="edge5" class="edge">
<title>Node1&#45;&gt;Node6</title>
<path fill="none" stroke="midnightblue" d="M502.59,-63.17C527.43,-51.63 563.23,-34.99 584.69,-25.01"/>
<polygon fill="midnightblue" stroke="midnightblue" points="500.93,-60.09 493.34,-67.48 503.88,-66.43 500.93,-60.09"/>
</g>
<!-- Node7 -->
<g id="node7" class="node">
<title>Node7</title>
<g id="a_node7"><a xlink:href="blockfilter__index__tests_8cpp.html" target="_top" xlink:title=" ">
<polygon fill="white" stroke="black" points="669,-0.5 669,-30.5 773,-30.5 773,-0.5 669,-0.5"/>
<text text-anchor="start" x="677" y="-18.5" font-family="Helvetica,sans-Serif" font-size="10.00">src/test/blockfilter</text>
<text text-anchor="middle" x="721" y="-7.5" font-family="Helvetica,sans-Serif" font-size="10.00">_index_tests.cpp</text>
</a>
</g>
</g>
<!-- Node1&#45;&gt;Node7 -->
<g id="edge6" class="edge">
<title>Node1&#45;&gt;Node7</title>
<path fill="none" stroke="midnightblue" d="M520.18,-65.07C562.11,-54.93 624.53,-39.83 668.62,-29.17"/>
<polygon fill="midnightblue" stroke="midnightblue" points="519.14,-61.72 510.25,-67.48 520.79,-68.53 519.14,-61.72"/>
</g>
<!-- Node8 -->
<g id="node8" class="node">
<title>Node8</title>
<g id="a_node8"><a xlink:href="validation_8cpp.html" target="_top" xlink:title=" ">
<polygon fill="white" stroke="black" points="791.5,-6 791.5,-25 894.5,-25 894.5,-6 791.5,-6"/>
<text text-anchor="middle" x="843" y="-13" font-family="Helvetica,sans-Serif" font-size="10.00">src/validation.cpp</text>
</a>
</g>
</g>
<!-- Node1&#45;&gt;Node8 -->
<g id="edge7" class="edge">
<title>Node1&#45;&gt;Node8</title>
<path fill="none" stroke="midnightblue" d="M555.53,-66.16C617.65,-58.1 705.58,-45.66 782,-31 790.98,-29.28 800.63,-27.12 809.55,-25.01"/>
<polygon fill="midnightblue" stroke="midnightblue" points="554.88,-62.72 545.4,-67.47 555.77,-69.66 554.88,-62.72"/>
</g>
</g>
</svg>
