<?xml version="1.0" encoding="UTF-8" standalone="no"?>
<!DOCTYPE svg PUBLIC "-//W3C//DTD SVG 1.1//EN"
 "http://www.w3.org/Graphics/SVG/1.1/DTD/svg11.dtd">
<!-- Generated by graphviz version 2.49.3 (0)
 -->
<!-- Title: WriteUndoDataForBlock Pages: 1 -->
<svg width="1143pt" height="636pt"
 viewBox="0.00 0.00 1143.00 636.00" xmlns="http://www.w3.org/2000/svg" xmlns:xlink="http://www.w3.org/1999/xlink">
<g id="graph0" class="graph" transform="scale(1 1) rotate(0) translate(4 632)">
<title>WriteUndoDataForBlock</title>
<polygon fill="white" stroke="transparent" points="-4,4 -4,-632 1139,-632 1139,4 -4,4"/>
<!-- Node1 -->
<g id="node1" class="node">
<title>Node1</title>
<g id="a_node1"><a xlink:title=" ">
<polygon fill="#bfbfbf" stroke="black" points="0,-209.5 0,-228.5 134,-228.5 134,-209.5 0,-209.5"/>
<text text-anchor="middle" x="67" y="-216.5" font-family="Helvetica,sans-Serif" font-size="10.00">WriteUndoDataForBlock</text>
</a>
</g>
</g>
<!-- Node2 -->
<g id="node2" class="node">
<title>Node2</title>
<g id="a_node2"><a xlink:href="shutdown_8cpp.html#a6ee3f5dddaf76ef42f18ae17febcd170" target="_top" xlink:title="Abort with a message.">
<polygon fill="white" stroke="black" points="395,-418.5 395,-437.5 463,-437.5 463,-418.5 395,-418.5"/>
<text text-anchor="middle" x="429" y="-425.5" font-family="Helvetica,sans-Serif" font-size="10.00">AbortNode</text>
</a>
</g>
</g>
<!-- Node1&#45;&gt;Node2 -->
<g id="edge1" class="edge">
<title>Node1&#45;&gt;Node2</title>
<path fill="none" stroke="midnightblue" d="M74.2,-228.69C88.52,-250.36 126.07,-303.15 170,-333 237.87,-379.12 330.94,-406.14 384.75,-418.91"/>
<polygon fill="midnightblue" stroke="midnightblue" points="384.12,-422.36 394.65,-421.21 385.7,-415.54 384.12,-422.36"/>
</g>
<!-- Node11 -->
<g id="node11" class="node">
<title>Node11</title>
<g id="a_node11"><a xlink:href="system_8h.html#a96c5fc7111f69f7dcaba992d95d13e03" target="_top" xlink:title=" ">
<polygon fill="white" stroke="black" points="409,-228.5 409,-247.5 449,-247.5 449,-228.5 409,-228.5"/>
<text text-anchor="middle" x="429" y="-235.5" font-family="Helvetica,sans-Serif" font-size="10.00">error</text>
</a>
</g>
</g>
<!-- Node1&#45;&gt;Node11 -->
<g id="edge10" class="edge">
<title>Node1&#45;&gt;Node11</title>
<path fill="none" stroke="midnightblue" d="M134.03,-222.48C212.79,-226.64 341,-233.41 398.48,-236.44"/>
<polygon fill="midnightblue" stroke="midnightblue" points="398.51,-239.95 408.68,-236.98 398.88,-232.96 398.51,-239.95"/>
</g>
<!-- Node22 -->
<g id="node16" class="node">
<title>Node22</title>
<g id="a_node16"><a xlink:href="blockstorage_8cpp.html#aaecb7a3dec82736b00fbeb86302b098a" target="_top" xlink:title=" ">
<polygon fill="white" stroke="black" points="210,-418.5 210,-437.5 290,-437.5 290,-418.5 210,-418.5"/>
<text text-anchor="middle" x="250" y="-425.5" font-family="Helvetica,sans-Serif" font-size="10.00">FindUndoPos</text>
</a>
</g>
</g>
<!-- Node1&#45;&gt;Node22 -->
<g id="edge15" class="edge">
<title>Node1&#45;&gt;Node22</title>
<path fill="none" stroke="midnightblue" d="M71.87,-228.81C83.18,-256.49 118.72,-336.34 170,-385 182.82,-397.17 199.75,-406.98 214.65,-414.15"/>
<polygon fill="midnightblue" stroke="midnightblue" points="213.53,-417.48 224.08,-418.47 216.45,-411.12 213.53,-417.48"/>
</g>
<!-- Node29 -->
<g id="node23" class="node">
<title>Node29</title>
<g id="a_node23"><a xlink:href="struct_flat_file_pos.html#acd37c9ac8e92b49e148448050283c652" target="_top" xlink:title=" ">
<polygon fill="white" stroke="black" points="712,-266.5 712,-285.5 816,-285.5 816,-266.5 712,-266.5"/>
<text text-anchor="middle" x="764" y="-273.5" font-family="Helvetica,sans-Serif" font-size="10.00">FlatFilePos::IsNull</text>
</a>
</g>
</g>
<!-- Node1&#45;&gt;Node29 -->
<g id="edge43" class="edge">
<title>Node1&#45;&gt;Node29</title>
<path fill="none" stroke="midnightblue" d="M104.58,-228.6C123.91,-233.33 148.1,-238.71 170,-242 362.64,-270.93 593.88,-275.68 701.85,-276.18"/>
<polygon fill="midnightblue" stroke="midnightblue" points="701.9,-279.68 711.91,-276.22 701.92,-272.68 701.9,-279.68"/>
</g>
<!-- Node57 -->
<g id="node33" class="node">
<title>Node57</title>
<g id="a_node33"><a xlink:href="blockstorage_8cpp.html#a09a9feb4cb3b2b5ba3099ea502a87771" target="_top" xlink:title=" ">
<polygon fill="white" stroke="black" points="207,-304.5 207,-323.5 293,-323.5 293,-304.5 207,-304.5"/>
<text text-anchor="middle" x="250" y="-311.5" font-family="Helvetica,sans-Serif" font-size="10.00">FlushUndoFile</text>
</a>
</g>
</g>
<!-- Node1&#45;&gt;Node57 -->
<g id="edge37" class="edge">
<title>Node1&#45;&gt;Node57</title>
<path fill="none" stroke="midnightblue" d="M79.19,-228.58C97.21,-243.58 134.28,-272.68 170,-290 179.09,-294.41 189.17,-298.21 199,-301.4"/>
<polygon fill="midnightblue" stroke="midnightblue" points="198.11,-304.79 208.7,-304.39 200.17,-298.1 198.11,-304.79"/>
</g>
<!-- Node58 -->
<g id="node34" class="node">
<title>Node58</title>
<g id="a_node34"><a xlink:href="class_c_block_index.html#a98490a2788c65cdd6ae9002b004dd74c" target="_top" xlink:title=" ">
<polygon fill="white" stroke="black" points="174,-114.5 174,-133.5 326,-133.5 326,-114.5 174,-114.5"/>
<text text-anchor="middle" x="250" y="-121.5" font-family="Helvetica,sans-Serif" font-size="10.00">CBlockIndex::GetBlockHash</text>
</a>
</g>
</g>
<!-- Node1&#45;&gt;Node58 -->
<g id="edge40" class="edge">
<title>Node1&#45;&gt;Node58</title>
<path fill="none" stroke="midnightblue" d="M79.19,-209.42C97.21,-194.42 134.28,-165.32 170,-148 179.09,-143.59 189.17,-139.79 199,-136.6"/>
<polygon fill="midnightblue" stroke="midnightblue" points="200.17,-139.9 208.7,-133.61 198.11,-133.21 200.17,-139.9"/>
</g>
<!-- Node59 -->
<g id="node35" class="node">
<title>Node59</title>
<g id="a_node35"><a xlink:href="serialize_8h.html#adb5a4516b4946127a59c79d21efd61ca" target="_top" xlink:title=" ">
<polygon fill="white" stroke="black" points="381,-38.5 381,-57.5 477,-57.5 477,-38.5 381,-38.5"/>
<text text-anchor="middle" x="429" y="-45.5" font-family="Helvetica,sans-Serif" font-size="10.00">GetSerializeSize</text>
</a>
</g>
</g>
<!-- Node1&#45;&gt;Node59 -->
<g id="edge41" class="edge">
<title>Node1&#45;&gt;Node59</title>
<path fill="none" stroke="midnightblue" d="M91.22,-209.41C111.71,-201.18 142.52,-189.35 170,-181 239.93,-159.76 273.2,-189 330,-143 359.04,-119.48 337.73,-91.44 366,-67 367.97,-65.29 370.1,-63.74 372.33,-62.32"/>
<polygon fill="midnightblue" stroke="midnightblue" points="374.19,-65.3 381.39,-57.53 370.91,-59.12 374.19,-65.3"/>
</g>
<!-- Node60 -->
<g id="node36" class="node">
<title>Node60</title>
<g id="a_node36"><a xlink:href="class_c_block_index.html#ad62332c2b9b11389ebbbfc0fed890ea6" target="_top" xlink:title=" ">
<polygon fill="white" stroke="black" points="178.5,-76.5 178.5,-95.5 321.5,-95.5 321.5,-76.5 178.5,-76.5"/>
<text text-anchor="middle" x="250" y="-83.5" font-family="Helvetica,sans-Serif" font-size="10.00">CBlockIndex::GetUndoPos</text>
</a>
</g>
</g>
<!-- Node1&#45;&gt;Node60 -->
<g id="edge42" class="edge">
<title>Node1&#45;&gt;Node60</title>
<path fill="none" stroke="midnightblue" d="M73.76,-209.27C87.43,-187.04 124.17,-132.37 170,-105 173.68,-102.8 177.6,-100.86 181.64,-99.14"/>
<polygon fill="midnightblue" stroke="midnightblue" points="183.15,-102.32 191.28,-95.52 180.69,-95.76 183.15,-102.32"/>
</g>
<!-- Node61 -->
<g id="node37" class="node">
<title>Node61</title>
<g id="a_node37"><a xlink:href="class_c_chain_params.html#a971264914d49577eb2a6815979043546" target="_top" xlink:title=" ">
<polygon fill="white" stroke="black" points="170,-38.5 170,-57.5 330,-57.5 330,-38.5 170,-38.5"/>
<text text-anchor="middle" x="250" y="-45.5" font-family="Helvetica,sans-Serif" font-size="10.00">CChainParams::MessageStart</text>
</a>
</g>
</g>
<!-- Node1&#45;&gt;Node61 -->
<g id="edge44" class="edge">
<title>Node1&#45;&gt;Node61</title>
<path fill="none" stroke="midnightblue" d="M71.54,-209.35C82,-182.24 115.48,-104.94 170,-67 172.87,-65.01 175.92,-63.22 179.09,-61.62"/>
<polygon fill="midnightblue" stroke="midnightblue" points="180.54,-64.8 188.3,-57.59 177.73,-58.39 180.54,-64.8"/>
</g>
<!-- Node62 -->
<g id="node38" class="node">
<title>Node62</title>
<g id="a_node38"><a xlink:href="blockstorage_8cpp.html#ae8132605831bb7580ec787bde388644e" target="_top" xlink:title=" ">
<polygon fill="white" stroke="black" points="199.5,-190.5 199.5,-209.5 300.5,-209.5 300.5,-190.5 199.5,-190.5"/>
<text text-anchor="middle" x="250" y="-197.5" font-family="Helvetica,sans-Serif" font-size="10.00">UndoWriteToDisk</text>
</a>
</g>
</g>
<!-- Node1&#45;&gt;Node62 -->
<g id="edge45" class="edge">
<title>Node1&#45;&gt;Node62</title>
<path fill="none" stroke="midnightblue" d="M134.11,-212.06C152.09,-210.17 171.46,-208.14 189.08,-206.29"/>
<polygon fill="midnightblue" stroke="midnightblue" points="189.65,-209.75 199.23,-205.22 188.92,-202.79 189.65,-209.75"/>
</g>
<!-- Node3 -->
<g id="node3" class="node">
<title>Node3</title>
<g id="a_node3"><a xlink:href="translation_8h.html#ac613c01fd6a2330bb5969339c2ad2f57" target="_top" xlink:title="Translation function.">
<polygon fill="white" stroke="black" points="570.5,-532.5 570.5,-551.5 599.5,-551.5 599.5,-532.5 570.5,-532.5"/>
<text text-anchor="middle" x="585" y="-539.5" font-family="Helvetica,sans-Serif" font-size="10.00">_</text>
</a>
</g>
</g>
<!-- Node2&#45;&gt;Node3 -->
<g id="edge2" class="edge">
<title>Node2&#45;&gt;Node3</title>
<path fill="none" stroke="midnightblue" d="M439.85,-437.78C463.67,-461.39 522.84,-519.85 528,-523 537.99,-529.1 550.18,-533.54 560.64,-536.58"/>
<polygon fill="midnightblue" stroke="midnightblue" points="559.81,-539.98 570.38,-539.17 561.61,-533.22 559.81,-539.98"/>
</g>
<!-- Node4 -->
<g id="node4" class="node">
<title>Node4</title>
<g id="a_node4"><a xlink:href="structbilingual__str.html#a1cbc70cd93bd126f99930754b180fa02" target="_top" xlink:title=" ">
<polygon fill="white" stroke="black" points="528,-456.5 528,-475.5 642,-475.5 642,-456.5 528,-456.5"/>
<text text-anchor="middle" x="585" y="-463.5" font-family="Helvetica,sans-Serif" font-size="10.00">bilingual_str::empty</text>
</a>
</g>
</g>
<!-- Node2&#45;&gt;Node4 -->
<g id="edge3" class="edge">
<title>Node2&#45;&gt;Node4</title>
<path fill="none" stroke="midnightblue" d="M463.04,-436.15C484.15,-441.36 511.89,-448.21 535.48,-454.03"/>
<polygon fill="midnightblue" stroke="midnightblue" points="534.76,-457.45 545.31,-456.45 536.44,-450.66 534.76,-457.45"/>
</g>
<!-- Node5 -->
<g id="node5" class="node">
<title>Node5</title>
<g id="a_node5"><a xlink:href="warnings_8cpp.html#a96051dd11f115ea8da33dd78619830c0" target="_top" xlink:title=" ">
<polygon fill="white" stroke="black" points="537.5,-418.5 537.5,-437.5 632.5,-437.5 632.5,-418.5 537.5,-418.5"/>
<text text-anchor="middle" x="585" y="-425.5" font-family="Helvetica,sans-Serif" font-size="10.00">SetMiscWarning</text>
</a>
</g>
</g>
<!-- Node2&#45;&gt;Node5 -->
<g id="edge4" class="edge">
<title>Node2&#45;&gt;Node5</title>
<path fill="none" stroke="midnightblue" d="M463.04,-428C481.73,-428 505.62,-428 527.23,-428"/>
<polygon fill="midnightblue" stroke="midnightblue" points="527.29,-431.5 537.29,-428 527.29,-424.5 527.29,-431.5"/>
</g>
<!-- Node6 -->
<g id="node6" class="node">
<title>Node6</title>
<g id="a_node6"><a xlink:href="shutdown_8cpp.html#ac7140c7327b1e6a8d46470b1cd0e8e1b" target="_top" xlink:title="Request shutdown of the application.">
<polygon fill="white" stroke="black" points="541,-380.5 541,-399.5 629,-399.5 629,-380.5 541,-380.5"/>
<text text-anchor="middle" x="585" y="-387.5" font-family="Helvetica,sans-Serif" font-size="10.00">StartShutdown</text>
</a>
</g>
</g>
<!-- Node2&#45;&gt;Node6 -->
<g id="edge5" class="edge">
<title>Node2&#45;&gt;Node6</title>
<path fill="none" stroke="midnightblue" d="M463.04,-419.85C484.15,-414.64 511.89,-407.79 535.48,-401.97"/>
<polygon fill="midnightblue" stroke="midnightblue" points="536.44,-405.34 545.31,-399.55 534.76,-398.55 536.44,-405.34"/>
</g>
<!-- Node10 -->
<g id="node10" class="node">
<title>Node10</title>
<g id="a_node10"><a xlink:href="translation_8h.html#adff31aba0266455557bf721860f481b8" target="_top" xlink:title="Mark a bilingual_str as untranslated.">
<polygon fill="white" stroke="black" points="545,-494.5 545,-513.5 625,-513.5 625,-494.5 545,-494.5"/>
<text text-anchor="middle" x="585" y="-501.5" font-family="Helvetica,sans-Serif" font-size="10.00">Untranslated</text>
</a>
</g>
</g>
<!-- Node2&#45;&gt;Node10 -->
<g id="edge9" class="edge">
<title>Node2&#45;&gt;Node10</title>
<path fill="none" stroke="midnightblue" d="M444.45,-437.64C463.15,-449.83 497.01,-470.9 528,-485 532.67,-487.12 537.65,-489.14 542.64,-491.02"/>
<polygon fill="midnightblue" stroke="midnightblue" points="541.58,-494.36 552.18,-494.43 543.94,-487.76 541.58,-494.36"/>
</g>
<!-- Node7 -->
<g id="node7" class="node">
<title>Node7</title>
<g id="a_node7"><a xlink:href="validation_8cpp.html#afb7ea74ba028421697aa7f364741ee6c" target="_top" xlink:title=" ">
<polygon fill="white" stroke="black" points="1088,-414.5 1088,-433.5 1135,-433.5 1135,-414.5 1088,-414.5"/>
<text text-anchor="middle" x="1111.5" y="-421.5" font-family="Helvetica,sans-Serif" font-size="10.00">assert</text>
</a>
</g>
</g>
<!-- Node6&#45;&gt;Node7 -->
<g id="edge6" class="edge">
<title>Node6&#45;&gt;Node7</title>
<path fill="none" stroke="midnightblue" d="M616.51,-399.51C624.86,-402.34 633.85,-405.6 642,-409 658.51,-415.89 660.59,-422.89 678,-427 823.58,-461.37 1004.47,-440.43 1077.58,-429.45"/>
<polygon fill="midnightblue" stroke="midnightblue" points="1078.21,-432.9 1087.56,-427.91 1077.15,-425.98 1078.21,-432.9"/>
</g>
<!-- Node8 -->
<g id="node8" class="node">
<title>Node8</title>
<g id="a_node8"><a xlink:href="shutdown_8cpp.html#a80961bbf7599ca290cd91472c41cd9b3" target="_top" xlink:title=" ">
<polygon fill="white" stroke="black" points="710,-474.5 710,-493.5 818,-493.5 818,-474.5 710,-474.5"/>
<text text-anchor="middle" x="764" y="-481.5" font-family="Helvetica,sans-Serif" font-size="10.00">fRequestShutdown</text>
</a>
</g>
</g>
<!-- Node6&#45;&gt;Node8 -->
<g id="edge7" class="edge">
<title>Node6&#45;&gt;Node8</title>
<path fill="none" stroke="midnightblue" d="M624.66,-399.51C630.8,-402.01 636.82,-405.13 642,-409 664.23,-425.61 655.35,-443.98 678,-460 684.67,-464.72 692.26,-468.52 700.08,-471.57"/>
<polygon fill="midnightblue" stroke="midnightblue" points="699.1,-474.93 709.69,-474.93 701.41,-468.33 699.1,-474.93"/>
</g>
<!-- Node9 -->
<g id="node9" class="node">
<title>Node9</title>
<g id="a_node9"><a xlink:href="class_token_pipe_end.html#a99e3d1d692f37ed64fa2c152107cac69" target="_top" xlink:title="Write token to endpoint.">
<polygon fill="white" stroke="black" points="692.5,-512.5 692.5,-531.5 835.5,-531.5 835.5,-512.5 692.5,-512.5"/>
<text text-anchor="middle" x="764" y="-519.5" font-family="Helvetica,sans-Serif" font-size="10.00">TokenPipeEnd::TokenWrite</text>
</a>
</g>
</g>
<!-- Node6&#45;&gt;Node9 -->
<g id="edge8" class="edge">
<title>Node6&#45;&gt;Node9</title>
<path fill="none" stroke="midnightblue" d="M627.83,-399.51C633.03,-401.98 637.93,-405.09 642,-409 674.24,-440.02 644.15,-473.75 678,-503 679.95,-504.69 682.02,-506.23 684.18,-507.65"/>
<polygon fill="midnightblue" stroke="midnightblue" points="682.49,-510.71 692.94,-512.5 685.89,-504.59 682.49,-510.71"/>
</g>
<!-- Node12 -->
<g id="node12" class="node">
<title>Node12</title>
<g id="a_node12"><a xlink:href="namespacetinyformat.html#a05144619d8b16e2b31b2594ca9c6bf1d" target="_top" xlink:title="Format list of arguments to the stream according to given format string.">
<polygon fill="white" stroke="black" points="531.5,-190.5 531.5,-209.5 638.5,-209.5 638.5,-190.5 531.5,-190.5"/>
<text text-anchor="middle" x="585" y="-197.5" font-family="Helvetica,sans-Serif" font-size="10.00">tinyformat::format</text>
</a>
</g>
</g>
<!-- Node11&#45;&gt;Node12 -->
<g id="edge11" class="edge">
<title>Node11&#45;&gt;Node12</title>
<path fill="none" stroke="midnightblue" d="M449.19,-233.26C470.61,-227.98 506.1,-219.22 535.29,-212.02"/>
<polygon fill="midnightblue" stroke="midnightblue" points="536.45,-215.34 545.32,-209.54 534.77,-208.54 536.45,-215.34"/>
</g>
<!-- Node13 -->
<g id="node13" class="node">
<title>Node13</title>
<g id="a_node13"><a xlink:href="namespacetinyformat.html#aa0e1f6113d2c7d019aac703672a650bd" target="_top" xlink:title="Make type&#45;agnostic format list from list of template arguments.">
<polygon fill="white" stroke="black" points="687.5,-152.5 687.5,-171.5 840.5,-171.5 840.5,-152.5 687.5,-152.5"/>
<text text-anchor="middle" x="764" y="-159.5" font-family="Helvetica,sans-Serif" font-size="10.00">tinyformat::makeFormatList</text>
</a>
</g>
</g>
<!-- Node12&#45;&gt;Node13 -->
<g id="edge12" class="edge">
<title>Node12&#45;&gt;Node13</title>
<path fill="none" stroke="midnightblue" d="M630.66,-190.41C654.34,-185.33 683.61,-179.04 708.6,-173.68"/>
<polygon fill="midnightblue" stroke="midnightblue" points="709.61,-177.04 718.66,-171.52 708.14,-170.2 709.61,-177.04"/>
</g>
<!-- Node14 -->
<g id="node14" class="node">
<title>Node14</title>
<g id="a_node14"><a xlink:href="namespacetinyformat.html#a86ed74eb3ed66a662e96220d877da964" target="_top" xlink:title="Format list of arguments to the stream according to the given format string.">
<polygon fill="white" stroke="black" points="707.5,-190.5 707.5,-209.5 820.5,-209.5 820.5,-190.5 707.5,-190.5"/>
<text text-anchor="middle" x="764" y="-197.5" font-family="Helvetica,sans-Serif" font-size="10.00">tinyformat::vformat</text>
</a>
</g>
</g>
<!-- Node12&#45;&gt;Node14 -->
<g id="edge13" class="edge">
<title>Node12&#45;&gt;Node14</title>
<path fill="none" stroke="midnightblue" d="M638.63,-200C657.03,-200 677.91,-200 697.25,-200"/>
<polygon fill="midnightblue" stroke="midnightblue" points="697.5,-203.5 707.5,-200 697.5,-196.5 697.5,-203.5"/>
</g>
<!-- Node15 -->
<g id="node15" class="node">
<title>Node15</title>
<g id="a_node15"><a xlink:href="namespacetinyformat_1_1detail.html#a9fe547bc617c38498e58c12cce507bec" target="_top" xlink:title=" ">
<polygon fill="white" stroke="red" points="918,-122 918,-152 1020,-152 1020,-122 918,-122"/>
<text text-anchor="start" x="926" y="-140" font-family="Helvetica,sans-Serif" font-size="10.00">tinyformat::detail</text>
<text text-anchor="middle" x="969" y="-129" font-family="Helvetica,sans-Serif" font-size="10.00">::formatImpl</text>
</a>
</g>
</g>
<!-- Node14&#45;&gt;Node15 -->
<g id="edge14" class="edge">
<title>Node14&#45;&gt;Node15</title>
<path fill="none" stroke="midnightblue" d="M817.78,-190.49C828.59,-187.91 839.78,-184.76 850,-181 866.98,-174.75 869.27,-168.89 886,-162 892.98,-159.12 900.42,-156.4 907.86,-153.89"/>
<polygon fill="midnightblue" stroke="midnightblue" points="909.18,-157.14 917.6,-150.72 907.01,-150.49 909.18,-157.14"/>
</g>
<!-- Node22&#45;&gt;Node2 -->
<g id="edge17" class="edge">
<title>Node22&#45;&gt;Node2</title>
<path fill="none" stroke="midnightblue" d="M290.28,-428C318.22,-428 355.75,-428 384.58,-428"/>
<polygon fill="midnightblue" stroke="midnightblue" points="384.77,-431.5 394.77,-428 384.77,-424.5 384.77,-431.5"/>
</g>
<!-- Node22&#45;&gt;Node3 -->
<g id="edge16" class="edge">
<title>Node22&#45;&gt;Node3</title>
<path fill="none" stroke="midnightblue" d="M278.91,-437.6C328.85,-454.79 436.82,-491.9 528,-523 538.67,-526.64 550.5,-530.66 560.52,-534.05"/>
<polygon fill="midnightblue" stroke="midnightblue" points="559.59,-537.43 570.19,-537.33 561.84,-530.8 559.59,-537.43"/>
</g>
<!-- Node23 -->
<g id="node17" class="node">
<title>Node23</title>
<g id="a_node17"><a xlink:href="class_flat_file_seq.html#acb689529e3806eaeaf53d14ee3f3aeca" target="_top" xlink:title="Allocate additional space in a file after the given starting position.">
<polygon fill="white" stroke="black" points="371,-551.5 371,-570.5 487,-570.5 487,-551.5 371,-551.5"/>
<text text-anchor="middle" x="429" y="-558.5" font-family="Helvetica,sans-Serif" font-size="10.00">FlatFileSeq::Allocate</text>
</a>
</g>
</g>
<!-- Node22&#45;&gt;Node23 -->
<g id="edge18" class="edge">
<title>Node22&#45;&gt;Node23</title>
<path fill="none" stroke="midnightblue" d="M262.91,-437.69C283.6,-454.44 327.63,-489.72 366,-518 378.77,-527.41 393.34,-537.55 405.14,-545.61"/>
<polygon fill="midnightblue" stroke="midnightblue" points="403.31,-548.6 413.55,-551.33 407.25,-542.81 403.31,-548.6"/>
</g>
<!-- Node32 -->
<g id="node25" class="node">
<title>Node32</title>
<g id="a_node25"><a xlink:href="blockstorage_8cpp.html#ad30b119f17188fe02ed2f2d1c59c70f1" target="_top" xlink:title=" ">
<polygon fill="white" stroke="black" points="546.5,-304.5 546.5,-323.5 623.5,-323.5 623.5,-304.5 546.5,-304.5"/>
<text text-anchor="middle" x="585" y="-311.5" font-family="Helvetica,sans-Serif" font-size="10.00">UndoFileSeq</text>
</a>
</g>
</g>
<!-- Node22&#45;&gt;Node32 -->
<g id="edge27" class="edge">
<title>Node22&#45;&gt;Node32</title>
<path fill="none" stroke="midnightblue" d="M290.3,-421.53C349.4,-411.32 457.91,-390.63 492,-371 512.16,-359.39 508.41,-345.55 528,-333 531.12,-331 534.48,-329.19 537.94,-327.54"/>
<polygon fill="midnightblue" stroke="midnightblue" points="539.42,-330.72 547.27,-323.6 536.69,-324.27 539.42,-330.72"/>
</g>
<!-- Node24 -->
<g id="node18" class="node">
<title>Node24</title>
<g id="a_node18"><a xlink:href="util_2system_8cpp.html#a91c763bffc49cf7ed8d45cc44870e55c" target="_top" xlink:title="this function tries to make a particular range of a file allocated (corresponding to disk space) it i...">
<polygon fill="white" stroke="black" points="533,-608.5 533,-627.5 637,-627.5 637,-608.5 533,-608.5"/>
<text text-anchor="middle" x="585" y="-615.5" font-family="Helvetica,sans-Serif" font-size="10.00">AllocateFileRange</text>
</a>
</g>
</g>
<!-- Node23&#45;&gt;Node24 -->
<g id="edge19" class="edge">
<title>Node23&#45;&gt;Node24</title>
<path fill="none" stroke="midnightblue" d="M454.06,-570.66C473.83,-578.52 502.62,-589.78 528,-599 533.63,-601.04 539.59,-603.14 545.45,-605.16"/>
<polygon fill="midnightblue" stroke="midnightblue" points="544.55,-608.55 555.14,-608.47 546.81,-601.93 544.55,-608.55"/>
</g>
<!-- Node25 -->
<g id="node19" class="node">
<title>Node25</title>
<g id="a_node19"><a xlink:href="util_2system_8cpp.html#aafef764388e19a399584b65ef3d97b99" target="_top" xlink:title=" ">
<polygon fill="white" stroke="black" points="536,-570.5 536,-589.5 634,-589.5 634,-570.5 536,-570.5"/>
<text text-anchor="middle" x="585" y="-577.5" font-family="Helvetica,sans-Serif" font-size="10.00">CheckDiskSpace</text>
</a>
</g>
</g>
<!-- Node23&#45;&gt;Node25 -->
<g id="edge20" class="edge">
<title>Node23&#45;&gt;Node25</title>
<path fill="none" stroke="midnightblue" d="M487.34,-568.07C499.77,-569.61 512.93,-571.23 525.4,-572.77"/>
<polygon fill="midnightblue" stroke="midnightblue" points="525.34,-576.29 535.69,-574.04 526.19,-569.34 525.34,-576.29"/>
</g>
<!-- Node26 -->
<g id="node20" class="node">
<title>Node26</title>
<g id="a_node20"><a xlink:href="class_flat_file_seq.html#afeef659459201fb2d0efc6e28b468aad" target="_top" xlink:title="Open a handle to the file at the given position.">
<polygon fill="white" stroke="black" points="534,-342.5 534,-361.5 636,-361.5 636,-342.5 534,-342.5"/>
<text text-anchor="middle" x="585" y="-349.5" font-family="Helvetica,sans-Serif" font-size="10.00">FlatFileSeq::Open</text>
</a>
</g>
</g>
<!-- Node23&#45;&gt;Node26 -->
<g id="edge21" class="edge">
<title>Node23&#45;&gt;Node26</title>
<path fill="none" stroke="midnightblue" d="M435.49,-551.34C446.54,-531.81 472.09,-486.16 492,-447 508.94,-413.68 500.09,-395.86 528,-371 529.91,-369.3 531.98,-367.75 534.16,-366.33"/>
<polygon fill="midnightblue" stroke="midnightblue" points="535.89,-369.38 543.01,-361.54 532.55,-363.22 535.89,-369.38"/>
</g>
<!-- Node27 -->
<g id="node21" class="node">
<title>Node27</title>
<g id="a_node21"><a xlink:href="class_flat_file_seq.html#a0eb2f3695e776347a8b0bc003eada668" target="_top" xlink:title="Get the name of the file at the given position.">
<polygon fill="white" stroke="black" points="702.5,-360.5 702.5,-379.5 825.5,-379.5 825.5,-360.5 702.5,-360.5"/>
<text text-anchor="middle" x="764" y="-367.5" font-family="Helvetica,sans-Serif" font-size="10.00">FlatFileSeq::FileName</text>
</a>
</g>
</g>
<!-- Node26&#45;&gt;Node27 -->
<g id="edge22" class="edge">
<title>Node26&#45;&gt;Node27</title>
<path fill="none" stroke="midnightblue" d="M636.25,-357.11C653.66,-358.88 673.52,-360.9 692.27,-362.81"/>
<polygon fill="midnightblue" stroke="midnightblue" points="691.95,-366.29 702.25,-363.82 692.66,-359.33 691.95,-366.29"/>
</g>
<!-- Node28 -->
<g id="node22" class="node">
<title>Node28</title>
<g id="a_node22"><a xlink:href="namespacefsbridge.html#a19c84cec4ae9accfbc88a83e48f7ee92" target="_top" xlink:title=" ">
<polygon fill="white" stroke="black" points="719,-304.5 719,-323.5 809,-323.5 809,-304.5 719,-304.5"/>
<text text-anchor="middle" x="764" y="-311.5" font-family="Helvetica,sans-Serif" font-size="10.00">fsbridge::fopen</text>
</a>
</g>
</g>
<!-- Node26&#45;&gt;Node28 -->
<g id="edge23" class="edge">
<title>Node26&#45;&gt;Node28</title>
<path fill="none" stroke="midnightblue" d="M630.66,-342.41C654.43,-337.31 683.83,-331 708.88,-325.62"/>
<polygon fill="midnightblue" stroke="midnightblue" points="709.92,-328.98 718.96,-323.45 708.45,-322.13 709.92,-328.98"/>
</g>
<!-- Node26&#45;&gt;Node29 -->
<g id="edge25" class="edge">
<title>Node26&#45;&gt;Node29</title>
<path fill="none" stroke="midnightblue" d="M622.73,-342.4C629.41,-339.87 636.12,-336.77 642,-333 661.59,-320.45 657.77,-306.48 678,-295 685.37,-290.82 693.59,-287.55 701.94,-285.01"/>
<polygon fill="midnightblue" stroke="midnightblue" points="703.01,-288.34 711.74,-282.34 701.17,-281.59 703.01,-288.34"/>
</g>
<!-- Node30 -->
<g id="node24" class="node">
<title>Node30</title>
<g id="a_node24"><a xlink:href="namespacefs.html#aba5e168406402ed7b763a11d71b23c78" target="_top" xlink:title="Convert path object to byte string.">
<polygon fill="white" stroke="red" points="718,-398.5 718,-417.5 810,-417.5 810,-398.5 718,-398.5"/>
<text text-anchor="middle" x="764" y="-405.5" font-family="Helvetica,sans-Serif" font-size="10.00">fs::PathToString</text>
</a>
</g>
</g>
<!-- Node26&#45;&gt;Node30 -->
<g id="edge26" class="edge">
<title>Node26&#45;&gt;Node30</title>
<path fill="none" stroke="midnightblue" d="M616.51,-361.51C624.86,-364.34 633.85,-367.6 642,-371 658.51,-377.89 661.15,-383 678,-389 687.51,-392.38 697.84,-395.29 707.91,-397.75"/>
<polygon fill="midnightblue" stroke="midnightblue" points="707.33,-401.21 717.86,-400.05 708.91,-394.39 707.33,-401.21"/>
</g>
<!-- Node28&#45;&gt;Node28 -->
<g id="edge24" class="edge">
<title>Node28&#45;&gt;Node28</title>
<path fill="none" stroke="midnightblue" d="M736.57,-323.76C723.22,-332.57 732.36,-342 764,-342 785.75,-342 796.87,-337.54 797.36,-331.89"/>
<polygon fill="midnightblue" stroke="midnightblue" points="800.15,-329.78 791.43,-323.76 794.49,-333.9 800.15,-329.78"/>
</g>
<!-- Node33 -->
<g id="node26" class="node">
<title>Node33</title>
<g id="a_node26"><a xlink:href="class_args_manager.html#a0a5c5f8fbd788ff3e896080dfa714cd7" target="_top" xlink:title="Get blocks directory path.">
<polygon fill="white" stroke="black" points="678,-228.5 678,-247.5 850,-247.5 850,-228.5 678,-228.5"/>
<text text-anchor="middle" x="764" y="-235.5" font-family="Helvetica,sans-Serif" font-size="10.00">ArgsManager::GetBlocksDirPath</text>
</a>
</g>
</g>
<!-- Node32&#45;&gt;Node33 -->
<g id="edge28" class="edge">
<title>Node32&#45;&gt;Node33</title>
<path fill="none" stroke="midnightblue" d="M598.37,-304.44C615.38,-291.75 647.38,-269.49 678,-257 684.3,-254.43 691.02,-252.17 697.8,-250.21"/>
<polygon fill="midnightblue" stroke="midnightblue" points="699.02,-253.5 707.76,-247.52 697.19,-246.75 699.02,-253.5"/>
</g>
<!-- Node34 -->
<g id="node27" class="node">
<title>Node34</title>
<g id="a_node27"><a xlink:href="chainparamsbase_8cpp.html#a06aa55e81a512bf827dd3b98ab55e1ec" target="_top" xlink:title="Return the currently selected parameters.">
<polygon fill="white" stroke="black" points="930.5,-392.5 930.5,-411.5 1007.5,-411.5 1007.5,-392.5 930.5,-392.5"/>
<text text-anchor="middle" x="969" y="-399.5" font-family="Helvetica,sans-Serif" font-size="10.00">BaseParams</text>
</a>
</g>
</g>
<!-- Node33&#45;&gt;Node34 -->
<g id="edge29" class="edge">
<title>Node33&#45;&gt;Node34</title>
<path fill="none" stroke="midnightblue" d="M836.13,-247.63C841.16,-250.14 845.87,-253.22 850,-257 888.88,-292.59 849.93,-331.56 886,-370 895.33,-379.95 908.12,-386.85 920.83,-391.62"/>
<polygon fill="midnightblue" stroke="midnightblue" points="919.88,-394.99 930.47,-394.86 922.11,-388.35 919.88,-394.99"/>
</g>
<!-- Node35 -->
<g id="node28" class="node">
<title>Node35</title>
<g id="a_node28"><a xlink:href="class_args_manager.html#adb5d644d273b3a259f792affcdca8283" target="_top" xlink:title="Return string argument or default value.">
<polygon fill="white" stroke="red" points="908.5,-171.5 908.5,-190.5 1029.5,-190.5 1029.5,-171.5 908.5,-171.5"/>
<text text-anchor="middle" x="969" y="-178.5" font-family="Helvetica,sans-Serif" font-size="10.00">ArgsManager::GetArg</text>
</a>
</g>
</g>
<!-- Node33&#45;&gt;Node35 -->
<g id="edge31" class="edge">
<title>Node33&#45;&gt;Node35</title>
<path fill="none" stroke="midnightblue" d="M817.78,-228.49C828.59,-225.91 839.78,-222.76 850,-219 866.98,-212.75 869.05,-206.32 886,-200 892.95,-197.41 900.37,-195.1 907.8,-193.06"/>
<polygon fill="midnightblue" stroke="midnightblue" points="908.72,-196.44 917.53,-190.54 906.97,-189.66 908.72,-196.44"/>
</g>
<!-- Node50 -->
<g id="node29" class="node">
<title>Node50</title>
<g id="a_node29"><a xlink:href="class_args_manager.html#a029de0285f80ebde9539c1a58a83f3a0" target="_top" xlink:title="Get data directory path.">
<polygon fill="white" stroke="red" points="886,-341.5 886,-360.5 1052,-360.5 1052,-341.5 886,-341.5"/>
<text text-anchor="middle" x="969" y="-348.5" font-family="Helvetica,sans-Serif" font-size="10.00">ArgsManager::GetDataDirBase</text>
</a>
</g>
</g>
<!-- Node33&#45;&gt;Node50 -->
<g id="edge32" class="edge">
<title>Node33&#45;&gt;Node50</title>
<path fill="none" stroke="midnightblue" d="M833.89,-247.53C839.67,-250.03 845.15,-253.14 850,-257 878.94,-280.01 857.14,-308.88 886,-332 888.1,-333.68 890.31,-335.21 892.62,-336.62"/>
<polygon fill="midnightblue" stroke="midnightblue" points="891.45,-339.95 901.94,-341.41 894.65,-333.72 891.45,-339.95"/>
</g>
<!-- Node56 -->
<g id="node30" class="node">
<title>Node56</title>
<g id="a_node30"><a xlink:href="class_args_manager.html#a797473ebdea9030ae99f9aa8c0744a6f" target="_top" xlink:title="Return true if the given argument has been manually set.">
<polygon fill="white" stroke="red" points="905,-303.5 905,-322.5 1033,-322.5 1033,-303.5 905,-303.5"/>
<text text-anchor="middle" x="969" y="-310.5" font-family="Helvetica,sans-Serif" font-size="10.00">ArgsManager::IsArgSet</text>
</a>
</g>
</g>
<!-- Node33&#45;&gt;Node56 -->
<g id="edge33" class="edge">
<title>Node33&#45;&gt;Node56</title>
<path fill="none" stroke="midnightblue" d="M827.38,-247.52C835.26,-249.99 843,-253.09 850,-257 870.03,-268.19 866.01,-282.73 886,-294 889.97,-296.24 894.2,-298.22 898.55,-299.96"/>
<polygon fill="midnightblue" stroke="midnightblue" points="897.65,-303.36 908.25,-303.42 900,-296.76 897.65,-303.36"/>
</g>
<!-- Node53 -->
<g id="node31" class="node">
<title>Node53</title>
<g id="a_node31"><a xlink:href="namespacefs.html#abba62d94f8b56eb0b6bc1e437728fd89" target="_top" xlink:title="Convert byte string to path object.">
<polygon fill="white" stroke="red" points="916,-265.5 916,-284.5 1022,-284.5 1022,-265.5 916,-265.5"/>
<text text-anchor="middle" x="969" y="-272.5" font-family="Helvetica,sans-Serif" font-size="10.00">fs::PathFromString</text>
</a>
</g>
</g>
<!-- Node33&#45;&gt;Node53 -->
<g id="edge34" class="edge">
<title>Node33&#45;&gt;Node53</title>
<path fill="none" stroke="midnightblue" d="M817.28,-247.53C844.27,-252.45 877.39,-258.49 905.71,-263.65"/>
<polygon fill="midnightblue" stroke="midnightblue" points="905.43,-267.15 915.9,-265.5 906.69,-260.27 905.43,-267.15"/>
</g>
<!-- Node55 -->
<g id="node32" class="node">
<title>Node55</title>
<g id="a_node32"><a xlink:href="namespacefs.html#a493de8fc3defb7df52d9d9025fc9fb9e" target="_top" xlink:title=" ">
<polygon fill="white" stroke="black" points="909.5,-209.5 909.5,-228.5 1028.5,-228.5 1028.5,-209.5 909.5,-209.5"/>
<text text-anchor="middle" x="969" y="-216.5" font-family="Helvetica,sans-Serif" font-size="10.00">fs::system_complete</text>
</a>
</g>
</g>
<!-- Node33&#45;&gt;Node55 -->
<g id="edge35" class="edge">
<title>Node33&#45;&gt;Node55</title>
<path fill="none" stroke="midnightblue" d="M850.21,-230.02C866.58,-228.49 883.54,-226.9 899.32,-225.43"/>
<polygon fill="midnightblue" stroke="midnightblue" points="899.86,-228.89 909.49,-224.48 899.21,-221.92 899.86,-228.89"/>
</g>
<!-- Node34&#45;&gt;Node7 -->
<g id="edge30" class="edge">
<title>Node34&#45;&gt;Node7</title>
<path fill="none" stroke="midnightblue" d="M1007.65,-407.9C1029.49,-411.31 1056.72,-415.58 1077.68,-418.86"/>
<polygon fill="midnightblue" stroke="midnightblue" points="1077.28,-422.34 1087.7,-420.43 1078.37,-415.43 1077.28,-422.34"/>
</g>
<!-- Node55&#45;&gt;Node55 -->
<g id="edge36" class="edge">
<title>Node55&#45;&gt;Node55</title>
<path fill="none" stroke="midnightblue" d="M947.11,-228.76C936.47,-237.57 943.76,-247 969,-247 985.56,-247 994.4,-242.94 995.51,-237.65"/>
<polygon fill="midnightblue" stroke="midnightblue" points="998.6,-236.02 990.89,-228.76 992.39,-239.24 998.6,-236.02"/>
</g>
<!-- Node57&#45;&gt;Node2 -->
<g id="edge38" class="edge">
<title>Node57&#45;&gt;Node2</title>
<path fill="none" stroke="midnightblue" d="M270.23,-323.58C286.47,-331.89 310.19,-344.5 330,-357 357.74,-374.5 388.09,-397.05 407.55,-411.99"/>
<polygon fill="midnightblue" stroke="midnightblue" points="405.62,-414.93 415.67,-418.28 409.9,-409.39 405.62,-414.93"/>
</g>
<!-- Node57&#45;&gt;Node32 -->
<g id="edge39" class="edge">
<title>Node57&#45;&gt;Node32</title>
<path fill="none" stroke="midnightblue" d="M293.17,-314C355.3,-314 471.1,-314 536.26,-314"/>
<polygon fill="midnightblue" stroke="midnightblue" points="536.27,-317.5 546.27,-314 536.27,-310.5 536.27,-317.5"/>
</g>
<!-- Node62&#45;&gt;Node11 -->
<g id="edge46" class="edge">
<title>Node62&#45;&gt;Node11</title>
<path fill="none" stroke="midnightblue" d="M295.66,-209.59C327.99,-216.53 370.76,-225.71 398.81,-231.73"/>
<polygon fill="midnightblue" stroke="midnightblue" points="398.27,-235.2 408.78,-233.87 399.74,-228.35 398.27,-235.2"/>
</g>
<!-- Node62&#45;&gt;Node59 -->
<g id="edge57" class="edge">
<title>Node62&#45;&gt;Node59</title>
<path fill="none" stroke="midnightblue" d="M300.86,-192.65C311.54,-189.09 322,-183.81 330,-176 366.51,-140.36 329.54,-102.68 366,-67 367.87,-65.17 369.9,-63.52 372.06,-62.03"/>
<polygon fill="midnightblue" stroke="midnightblue" points="373.94,-64.99 380.92,-57.02 370.49,-58.9 373.94,-64.99"/>
</g>
<!-- Node63 -->
<g id="node39" class="node">
<title>Node63</title>
<g id="a_node39"><a xlink:href="class_c_auto_file.html#a9b3e3f0949a6ddac0bb17c386ec9451c" target="_top" xlink:title="Get wrapped FILE* without transfer of ownership.">
<polygon fill="white" stroke="black" points="386,-152.5 386,-171.5 472,-171.5 472,-152.5 386,-152.5"/>
<text text-anchor="middle" x="429" y="-159.5" font-family="Helvetica,sans-Serif" font-size="10.00">CAutoFile::Get</text>
</a>
</g>
</g>
<!-- Node62&#45;&gt;Node63 -->
<g id="edge47" class="edge">
<title>Node62&#45;&gt;Node63</title>
<path fill="none" stroke="midnightblue" d="M295.66,-190.41C320.08,-185.17 350.44,-178.65 375.92,-173.18"/>
<polygon fill="midnightblue" stroke="midnightblue" points="376.74,-176.58 385.79,-171.06 375.27,-169.74 376.74,-176.58"/>
</g>
<!-- Node64 -->
<g id="node40" class="node">
<title>Node64</title>
<g id="a_node40"><a xlink:href="class_c_hash_writer.html#ae94a937211502eabf19477630090093a" target="_top" xlink:title="Compute the double&#45;SHA256 hash of all data written to this object.">
<polygon fill="white" stroke="black" points="366,-114.5 366,-133.5 492,-133.5 492,-114.5 366,-114.5"/>
<text text-anchor="middle" x="429" y="-121.5" font-family="Helvetica,sans-Serif" font-size="10.00">CHashWriter::GetHash</text>
</a>
</g>
</g>
<!-- Node62&#45;&gt;Node64 -->
<g id="edge48" class="edge">
<title>Node62&#45;&gt;Node64</title>
<path fill="none" stroke="midnightblue" d="M295.08,-190.39C306.86,-186.82 319.29,-182.11 330,-176 348.85,-165.24 347.16,-153.78 366,-143 369.74,-140.86 373.74,-138.94 377.85,-137.21"/>
<polygon fill="midnightblue" stroke="midnightblue" points="379.44,-140.35 387.55,-133.54 376.96,-133.81 379.44,-140.35"/>
</g>
<!-- Node76 -->
<g id="node48" class="node">
<title>Node76</title>
<g id="a_node48"><a xlink:href="class_c_auto_file.html#ae93f26b241248ffc6534ffdd49b40a8a" target="_top" xlink:title=" ">
<polygon fill="white" stroke="black" points="368,-76.5 368,-95.5 490,-95.5 490,-76.5 368,-76.5"/>
<text text-anchor="middle" x="429" y="-83.5" font-family="Helvetica,sans-Serif" font-size="10.00">CAutoFile::GetVersion</text>
</a>
</g>
</g>
<!-- Node62&#45;&gt;Node76 -->
<g id="edge58" class="edge">
<title>Node62&#45;&gt;Node76</title>
<path fill="none" stroke="midnightblue" d="M300.87,-191.48C311.3,-187.96 321.66,-183 330,-176 357.1,-153.26 338.93,-127.78 366,-105 368.04,-103.29 370.22,-101.73 372.52,-100.31"/>
<polygon fill="midnightblue" stroke="midnightblue" points="374.53,-103.21 381.8,-95.51 371.31,-97 374.53,-103.21"/>
</g>
<!-- Node77 -->
<g id="node49" class="node">
<title>Node77</title>
<g id="a_node49"><a xlink:href="class_c_auto_file.html#a7fd47268b6d85a89acafdb73559f8e78" target="_top" xlink:title="Return true if the wrapped FILE* is nullptr, false otherwise.">
<polygon fill="white" stroke="black" points="380.5,-190.5 380.5,-209.5 477.5,-209.5 477.5,-190.5 380.5,-190.5"/>
<text text-anchor="middle" x="429" y="-197.5" font-family="Helvetica,sans-Serif" font-size="10.00">CAutoFile::IsNull</text>
</a>
</g>
</g>
<!-- Node62&#45;&gt;Node77 -->
<g id="edge59" class="edge">
<title>Node62&#45;&gt;Node77</title>
<path fill="none" stroke="midnightblue" d="M300.78,-200C322.41,-200 347.89,-200 370.35,-200"/>
<polygon fill="midnightblue" stroke="midnightblue" points="370.43,-203.5 380.43,-200 370.43,-196.5 370.43,-203.5"/>
</g>
<!-- Node78 -->
<g id="node50" class="node">
<title>Node78</title>
<g id="a_node50"><a xlink:href="blockstorage_8cpp.html#ab89a742618c023386e824530b4e296f6" target="_top" xlink:title="Open an undo file (rev?????.dat)">
<polygon fill="white" stroke="black" points="386.5,-342.5 386.5,-361.5 471.5,-361.5 471.5,-342.5 386.5,-342.5"/>
<text text-anchor="middle" x="429" y="-349.5" font-family="Helvetica,sans-Serif" font-size="10.00">OpenUndoFile</text>
</a>
</g>
</g>
<!-- Node62&#45;&gt;Node78 -->
<g id="edge60" class="edge">
<title>Node62&#45;&gt;Node78</title>
<path fill="none" stroke="midnightblue" d="M262.07,-209.51C291.5,-234.78 371.93,-303.85 408.92,-335.62"/>
<polygon fill="midnightblue" stroke="midnightblue" points="407.07,-338.64 416.93,-342.5 411.63,-333.33 407.07,-338.64"/>
</g>
<!-- Node65 -->
<g id="node41" class="node">
<title>Node65</title>
<g id="a_node41"><a xlink:href="classbase__blob.html#a6b3e01650a0101a43957dd813a441437" target="_top" xlink:title=" ">
<polygon fill="white" stroke="black" points="535.5,-114.5 535.5,-133.5 634.5,-133.5 634.5,-114.5 535.5,-114.5"/>
<text text-anchor="middle" x="585" y="-121.5" font-family="Helvetica,sans-Serif" font-size="10.00">base_blob::begin</text>
</a>
</g>
</g>
<!-- Node64&#45;&gt;Node65 -->
<g id="edge49" class="edge">
<title>Node64&#45;&gt;Node65</title>
<path fill="none" stroke="midnightblue" d="M492.19,-124C503.07,-124 514.37,-124 525.15,-124"/>
<polygon fill="midnightblue" stroke="midnightblue" points="525.31,-127.5 535.31,-124 525.31,-120.5 525.31,-127.5"/>
</g>
<!-- Node66 -->
<g id="node42" class="node">
<title>Node66</title>
<g id="a_node42"><a xlink:href="class_c_s_h_a256.html#a4259230be0caefa590bc324fc12b9b90" target="_top" xlink:title=" ">
<polygon fill="white" stroke="black" points="532.5,-38.5 532.5,-57.5 637.5,-57.5 637.5,-38.5 532.5,-38.5"/>
<text text-anchor="middle" x="585" y="-45.5" font-family="Helvetica,sans-Serif" font-size="10.00">CSHA256::Finalize</text>
</a>
</g>
</g>
<!-- Node64&#45;&gt;Node66 -->
<g id="edge50" class="edge">
<title>Node64&#45;&gt;Node66</title>
<path fill="none" stroke="midnightblue" d="M470.45,-114.46C477.87,-111.92 485.36,-108.8 492,-105 510.84,-94.22 509.77,-83.78 528,-72 533.91,-68.18 540.53,-64.73 547.09,-61.71"/>
<polygon fill="midnightblue" stroke="midnightblue" points="548.79,-64.79 556.57,-57.6 546.01,-58.36 548.79,-64.79"/>
</g>
<!-- Node67 -->
<g id="node43" class="node">
<title>Node67</title>
<g id="a_node43"><a xlink:href="class_c_s_h_a256.html#a9d7de520a562655da85349372820c883" target="_top" xlink:title=" ">
<polygon fill="white" stroke="black" points="717,-76.5 717,-95.5 811,-95.5 811,-76.5 717,-76.5"/>
<text text-anchor="middle" x="764" y="-83.5" font-family="Helvetica,sans-Serif" font-size="10.00">CSHA256::Write</text>
</a>
</g>
</g>
<!-- Node64&#45;&gt;Node67 -->
<g id="edge56" class="edge">
<title>Node64&#45;&gt;Node67</title>
<path fill="none" stroke="midnightblue" d="M473.73,-114.45C490.62,-111.04 510.14,-107.45 528,-105 588.83,-96.67 659.05,-91.58 706.78,-88.79"/>
<polygon fill="midnightblue" stroke="midnightblue" points="707.12,-92.28 716.91,-88.21 706.72,-85.29 707.12,-92.28"/>
</g>
<!-- Node75 -->
<g id="node47" class="node">
<title>Node75</title>
<g id="a_node47"><a xlink:href="class_c_s_h_a256.html#a2122395dd5604990eaa0077b43a0e8d4" target="_top" xlink:title=" ">
<polygon fill="white" stroke="black" points="537.5,-152.5 537.5,-171.5 632.5,-171.5 632.5,-152.5 537.5,-152.5"/>
<text text-anchor="middle" x="585" y="-159.5" font-family="Helvetica,sans-Serif" font-size="10.00">CSHA256::Reset</text>
</a>
</g>
</g>
<!-- Node64&#45;&gt;Node75 -->
<g id="edge55" class="edge">
<title>Node64&#45;&gt;Node75</title>
<path fill="none" stroke="midnightblue" d="M468.86,-133.59C489.09,-138.58 514.02,-144.73 535.5,-150.03"/>
<polygon fill="midnightblue" stroke="midnightblue" points="534.87,-153.48 545.42,-152.48 536.55,-146.69 534.87,-153.48"/>
</g>
<!-- Node66&#45;&gt;Node67 -->
<g id="edge51" class="edge">
<title>Node66&#45;&gt;Node67</title>
<path fill="none" stroke="midnightblue" d="M630.66,-57.59C654.34,-62.67 683.61,-68.96 708.6,-74.32"/>
<polygon fill="midnightblue" stroke="midnightblue" points="708.14,-77.8 718.66,-76.48 709.61,-70.96 708.14,-77.8"/>
</g>
<!-- Node69 -->
<g id="node45" class="node">
<title>Node69</title>
<g id="a_node45"><a xlink:href="crypto_2common_8h.html#aa3a53ff883fd14480eb603d00123a74a" target="_top" xlink:title=" ">
<polygon fill="white" stroke="red" points="730,-38.5 730,-57.5 798,-57.5 798,-38.5 730,-38.5"/>
<text text-anchor="middle" x="764" y="-45.5" font-family="Helvetica,sans-Serif" font-size="10.00">WriteBE32</text>
</a>
</g>
</g>
<!-- Node66&#45;&gt;Node69 -->
<g id="edge53" class="edge">
<title>Node66&#45;&gt;Node69</title>
<path fill="none" stroke="midnightblue" d="M637.67,-48C663.74,-48 695,-48 719.78,-48"/>
<polygon fill="midnightblue" stroke="midnightblue" points="719.97,-51.5 729.97,-48 719.97,-44.5 719.97,-51.5"/>
</g>
<!-- Node72 -->
<g id="node46" class="node">
<title>Node72</title>
<g id="a_node46"><a xlink:href="crypto_2common_8h.html#ab960e95bf479af0a88a20800366b6131" target="_top" xlink:title=" ">
<polygon fill="white" stroke="red" points="730,-0.5 730,-19.5 798,-19.5 798,-0.5 730,-0.5"/>
<text text-anchor="middle" x="764" y="-7.5" font-family="Helvetica,sans-Serif" font-size="10.00">WriteBE64</text>
</a>
</g>
</g>
<!-- Node66&#45;&gt;Node72 -->
<g id="edge54" class="edge">
<title>Node66&#45;&gt;Node72</title>
<path fill="none" stroke="midnightblue" d="M630.66,-38.41C658,-32.54 692.8,-25.07 719.85,-19.26"/>
<polygon fill="midnightblue" stroke="midnightblue" points="720.76,-22.65 729.81,-17.13 719.29,-15.8 720.76,-22.65"/>
</g>
<!-- Node68 -->
<g id="node44" class="node">
<title>Node68</title>
<g id="a_node44"><a xlink:href="namespacesha256__shani.html#a97d2e267c87add9a1172d948e05ba471" target="_top" xlink:title=" ">
<polygon fill="white" stroke="black" points="900,-76.5 900,-95.5 1038,-95.5 1038,-76.5 900,-76.5"/>
<text text-anchor="middle" x="969" y="-83.5" font-family="Helvetica,sans-Serif" font-size="10.00">sha256_shani::Transform</text>
</a>
</g>
</g>
<!-- Node67&#45;&gt;Node68 -->
<g id="edge52" class="edge">
<title>Node67&#45;&gt;Node68</title>
<path fill="none" stroke="midnightblue" d="M811.06,-86C834.3,-86 863.12,-86 889.71,-86"/>
<polygon fill="midnightblue" stroke="midnightblue" points="889.77,-89.5 899.77,-86 889.77,-82.5 889.77,-89.5"/>
</g>
<!-- Node78&#45;&gt;Node26 -->
<g id="edge61" class="edge">
<title>Node78&#45;&gt;Node26</title>
<path fill="none" stroke="midnightblue" d="M471.67,-352C487.68,-352 506.3,-352 523.71,-352"/>
<polygon fill="midnightblue" stroke="midnightblue" points="523.79,-355.5 533.79,-352 523.79,-348.5 523.79,-355.5"/>
</g>
<!-- Node78&#45;&gt;Node32 -->
<g id="edge62" class="edge">
<title>Node78&#45;&gt;Node32</title>
<path fill="none" stroke="midnightblue" d="M468.86,-342.41C489.4,-337.34 514.78,-331.08 536.48,-325.73"/>
<polygon fill="midnightblue" stroke="midnightblue" points="537.61,-329.05 546.48,-323.26 535.93,-322.26 537.61,-329.05"/>
</g>
</g>
</svg>
