<?xml version="1.0" encoding="UTF-8" standalone="no"?>
<!DOCTYPE svg PUBLIC "-//W3C//DTD SVG 1.1//EN"
 "http://www.w3.org/Graphics/SVG/1.1/DTD/svg11.dtd">
<!-- Generated by graphviz version 2.38.0 (20140413.2041)
 -->
<!-- Title: gettxout Pages: 1 -->
<svg width="765pt" height="1109pt"
 viewBox="0.00 0.00 765.00 1109.04" xmlns="http://www.w3.org/2000/svg" xmlns:xlink="http://www.w3.org/1999/xlink">
<g id="graph0" class="graph" transform="scale(1 1) rotate(0) translate(4 1105.04)">
<title>gettxout</title>
<polygon fill="white" stroke="none" points="-4,4 -4,-1105.04 761,-1105.04 761,4 -4,4"/>
<!-- Node1 -->
<g id="node1" class="node"><title>Node1</title>
<polygon fill="#bfbfbf" stroke="black" points="0,-682.539 0,-701.539 57,-701.539 57,-682.539 0,-682.539"/>
<text text-anchor="middle" x="28.5" y="-689.539" font-family="Helvetica,sans-Serif" font-size="10.00">gettxout</text>
</g>
<!-- Node2 -->
<g id="node2" class="node"><title>Node2</title>
<g id="a_node2"><a xlink:href="class_uni_value.html#a61ee4ef0fa78da6d936dddf408a51a13" target="_top" xlink:title="UniValue::size">
<polygon fill="white" stroke="black" points="119.5,-1081.54 119.5,-1100.54 202.5,-1100.54 202.5,-1081.54 119.5,-1081.54"/>
<text text-anchor="middle" x="161" y="-1088.54" font-family="Helvetica,sans-Serif" font-size="10.00">UniValue::size</text>
</a>
</g>
</g>
<!-- Node1&#45;&gt;Node2 -->
<g id="edge1" class="edge"><title>Node1&#45;&gt;Node2</title>
<path fill="none" stroke="midnightblue" d="M29.755,-701.573C31.3691,-754.798 41.8146,-1014.85 93,-1072.04 97.6048,-1077.18 103.489,-1080.98 109.854,-1083.77"/>
<polygon fill="midnightblue" stroke="midnightblue" points="108.833,-1087.12 119.428,-1087.18 111.183,-1080.53 108.833,-1087.12"/>
</g>
<!-- Node3 -->
<g id="node3" class="node"><title>Node3</title>
<g id="a_node3"><a xlink:href="server_8cpp.html#a26bafe3d526ee8cbc84b3c0b0dc3a43b" target="_top" xlink:title="HelpExampleCli">
<polygon fill="white" stroke="black" points="115.5,-1043.54 115.5,-1062.54 206.5,-1062.54 206.5,-1043.54 115.5,-1043.54"/>
<text text-anchor="middle" x="161" y="-1050.54" font-family="Helvetica,sans-Serif" font-size="10.00">HelpExampleCli</text>
</a>
</g>
</g>
<!-- Node1&#45;&gt;Node3 -->
<g id="edge2" class="edge"><title>Node1&#45;&gt;Node3</title>
<path fill="none" stroke="midnightblue" d="M29.9486,-701.592C32.4872,-751.629 46.6286,-983.154 93,-1034.04 96.6227,-1038.01 101.01,-1041.18 105.785,-1043.7"/>
<polygon fill="midnightblue" stroke="midnightblue" points="104.78,-1047.08 115.351,-1047.79 107.533,-1040.64 104.78,-1047.08"/>
</g>
<!-- Node4 -->
<g id="node4" class="node"><title>Node4</title>
<g id="a_node4"><a xlink:href="server_8cpp.html#a9ef4f8fb114508ceb861a0e8c3e0d26e" target="_top" xlink:title="HelpExampleRpc">
<polygon fill="white" stroke="black" points="112.5,-1005.54 112.5,-1024.54 209.5,-1024.54 209.5,-1005.54 112.5,-1005.54"/>
<text text-anchor="middle" x="161" y="-1012.54" font-family="Helvetica,sans-Serif" font-size="10.00">HelpExampleRpc</text>
</a>
</g>
</g>
<!-- Node1&#45;&gt;Node4 -->
<g id="edge3" class="edge"><title>Node1&#45;&gt;Node4</title>
<path fill="none" stroke="midnightblue" d="M30.2004,-701.749C33.7752,-748.668 51.4617,-951.468 93,-996.039 95.9675,-999.223 99.4254,-1001.89 103.177,-1004.12"/>
<polygon fill="midnightblue" stroke="midnightblue" points="101.845,-1007.36 112.371,-1008.56 104.892,-1001.06 101.845,-1007.36"/>
</g>
<!-- Node5 -->
<g id="node5" class="node"><title>Node5</title>
<g id="a_node5"><a xlink:href="class_uni_value.html#a9f69bbd4ccf8d083934cbb510c039cef" target="_top" xlink:title="UniValue::get_str">
<polygon fill="white" stroke="black" points="112,-967.539 112,-986.539 210,-986.539 210,-967.539 112,-967.539"/>
<text text-anchor="middle" x="161" y="-974.539" font-family="Helvetica,sans-Serif" font-size="10.00">UniValue::get_str</text>
</a>
</g>
</g>
<!-- Node1&#45;&gt;Node5 -->
<g id="edge4" class="edge"><title>Node1&#45;&gt;Node5</title>
<path fill="none" stroke="midnightblue" d="M30.5034,-701.67C35.182,-744.787 56.1969,-919.657 93,-958.039 95.8373,-960.998 99.0983,-963.506 102.621,-965.632"/>
<polygon fill="midnightblue" stroke="midnightblue" points="101.307,-968.886 111.824,-970.164 104.4,-962.606 101.307,-968.886"/>
</g>
<!-- Node7 -->
<g id="node7" class="node"><title>Node7</title>
<g id="a_node7"><a xlink:href="uint256_8h.html#a52e679560cc1ebf68f878ed69e38f259" target="_top" xlink:title="uint256S">
<polygon fill="white" stroke="black" points="131.5,-891.539 131.5,-910.539 190.5,-910.539 190.5,-891.539 131.5,-891.539"/>
<text text-anchor="middle" x="161" y="-898.539" font-family="Helvetica,sans-Serif" font-size="10.00">uint256S</text>
</a>
</g>
</g>
<!-- Node1&#45;&gt;Node7 -->
<g id="edge6" class="edge"><title>Node1&#45;&gt;Node7</title>
<path fill="none" stroke="midnightblue" d="M29.72,-701.553C30.9636,-732.403 39.1694,-830.64 93,-882.039 100.673,-889.366 110.958,-893.902 121.163,-896.7"/>
<polygon fill="midnightblue" stroke="midnightblue" points="120.718,-900.187 131.241,-898.958 122.248,-893.356 120.718,-900.187"/>
</g>
<!-- Node9 -->
<g id="node9" class="node"><title>Node9</title>
<g id="a_node9"><a xlink:href="class_uni_value.html#ad22273eb84c91fff70a61ad11faa7121" target="_top" xlink:title="UniValue::get_int">
<polygon fill="white" stroke="black" points="112,-929.539 112,-948.539 210,-948.539 210,-929.539 112,-929.539"/>
<text text-anchor="middle" x="161" y="-936.539" font-family="Helvetica,sans-Serif" font-size="10.00">UniValue::get_int</text>
</a>
</g>
</g>
<!-- Node1&#45;&gt;Node9 -->
<g id="edge8" class="edge"><title>Node1&#45;&gt;Node9</title>
<path fill="none" stroke="midnightblue" d="M29.0927,-701.901C28.2088,-736.961 30.0992,-856.842 93,-920.039 95.8919,-922.945 99.1931,-925.414 102.744,-927.511"/>
<polygon fill="midnightblue" stroke="midnightblue" points="101.471,-930.784 111.997,-931.996 104.525,-924.485 101.471,-930.784"/>
</g>
<!-- Node11 -->
<g id="node11" class="node"><title>Node11</title>
<g id="a_node11"><a xlink:href="class_uni_value.html#a70c4bfad8015106cc480042462f413c1" target="_top" xlink:title="UniValue::isNull">
<polygon fill="white" stroke="black" points="116,-853.539 116,-872.539 206,-872.539 206,-853.539 116,-853.539"/>
<text text-anchor="middle" x="161" y="-860.539" font-family="Helvetica,sans-Serif" font-size="10.00">UniValue::isNull</text>
</a>
</g>
</g>
<!-- Node1&#45;&gt;Node11 -->
<g id="edge11" class="edge"><title>Node1&#45;&gt;Node11</title>
<path fill="none" stroke="midnightblue" d="M30.667,-701.903C34.3934,-728.891 48.5023,-804.561 93,-844.039 96.913,-847.511 101.417,-850.352 106.201,-852.676"/>
<polygon fill="midnightblue" stroke="midnightblue" points="105.081,-855.999 115.663,-856.538 107.727,-849.518 105.081,-855.999"/>
</g>
<!-- Node12 -->
<g id="node12" class="node"><title>Node12</title>
<g id="a_node12"><a xlink:href="class_uni_value.html#a05cba948c8295915ae7b36493d2ee4e6" target="_top" xlink:title="UniValue::get_bool">
<polygon fill="white" stroke="black" points="108,-815.539 108,-834.539 214,-834.539 214,-815.539 108,-815.539"/>
<text text-anchor="middle" x="161" y="-822.539" font-family="Helvetica,sans-Serif" font-size="10.00">UniValue::get_bool</text>
</a>
</g>
</g>
<!-- Node1&#45;&gt;Node12 -->
<g id="edge12" class="edge"><title>Node1&#45;&gt;Node12</title>
<path fill="none" stroke="midnightblue" d="M32.0891,-701.651C38.5109,-723.619 57.2922,-777.781 93,-806.039 95.311,-807.868 97.7893,-809.521 100.382,-811.014"/>
<polygon fill="midnightblue" stroke="midnightblue" points="99.0413,-814.255 109.562,-815.505 102.117,-807.967 99.0413,-814.255"/>
</g>
<!-- Node14 -->
<g id="node14" class="node"><title>Node14</title>
<g id="a_node14"><a xlink:href="class_c_coins_view.html#a427577487b58b9ae75955cdc1bf4feec" target="_top" xlink:title="Retrieve the Coin (unspent transaction output) for a given outpoint. ">
<polygon fill="white" stroke="black" points="103.5,-777.539 103.5,-796.539 218.5,-796.539 218.5,-777.539 103.5,-777.539"/>
<text text-anchor="middle" x="161" y="-784.539" font-family="Helvetica,sans-Serif" font-size="10.00">CCoinsView::GetCoin</text>
</a>
</g>
</g>
<!-- Node1&#45;&gt;Node14 -->
<g id="edge14" class="edge"><title>Node1&#45;&gt;Node14</title>
<path fill="none" stroke="midnightblue" d="M34.821,-701.553C44.3482,-717.705 65.8832,-750.445 93,-768.039 96.1791,-770.102 99.5841,-771.944 103.112,-773.589"/>
<polygon fill="midnightblue" stroke="midnightblue" points="102.086,-776.951 112.667,-777.499 104.738,-770.473 102.086,-776.951"/>
</g>
<!-- Node15 -->
<g id="node15" class="node"><title>Node15</title>
<g id="a_node15"><a xlink:href="class_c_tx_mem_pool.html#a9518699fc2b9eba6713ffaa4d810e10a" target="_top" xlink:title="CTxMemPool::isSpent">
<polygon fill="white" stroke="black" points="101,-739.539 101,-758.539 221,-758.539 221,-739.539 101,-739.539"/>
<text text-anchor="middle" x="161" y="-746.539" font-family="Helvetica,sans-Serif" font-size="10.00">CTxMemPool::isSpent</text>
</a>
</g>
</g>
<!-- Node1&#45;&gt;Node15 -->
<g id="edge15" class="edge"><title>Node1&#45;&gt;Node15</title>
<path fill="none" stroke="midnightblue" d="M46.4429,-701.644C59.0622,-708.599 76.8313,-717.98 93,-725.039 101.993,-728.965 111.853,-732.765 121.179,-736.139"/>
<polygon fill="midnightblue" stroke="midnightblue" points="120.049,-739.451 130.643,-739.488 122.384,-732.852 120.049,-739.451"/>
</g>
<!-- Node16 -->
<g id="node16" class="node"><title>Node16</title>
<g id="a_node16"><a xlink:href="validation_8h.html#a9d9b2d3b31edbd48ce62f4e2a73cc04c" target="_top" xlink:title="LookupBlockIndex">
<polygon fill="white" stroke="black" points="110,-663.539 110,-682.539 212,-682.539 212,-663.539 110,-663.539"/>
<text text-anchor="middle" x="161" y="-670.539" font-family="Helvetica,sans-Serif" font-size="10.00">LookupBlockIndex</text>
</a>
</g>
</g>
<!-- Node1&#45;&gt;Node16 -->
<g id="edge16" class="edge"><title>Node1&#45;&gt;Node16</title>
<path fill="none" stroke="midnightblue" d="M57.1757,-688.01C69.6377,-686.195 84.8735,-683.977 99.7595,-681.81"/>
<polygon fill="midnightblue" stroke="midnightblue" points="100.58,-685.227 109.971,-680.323 99.571,-678.3 100.58,-685.227"/>
</g>
<!-- Node26 -->
<g id="node26" class="node"><title>Node26</title>
<g id="a_node26"><a xlink:href="chainparams_8cpp.html#ace5c5b706d71a324a417dd2db394fd4a" target="_top" xlink:title="Return the currently selected parameters. ">
<polygon fill="white" stroke="black" points="482.5,-454.539 482.5,-473.539 535.5,-473.539 535.5,-454.539 482.5,-454.539"/>
<text text-anchor="middle" x="509" y="-461.539" font-family="Helvetica,sans-Serif" font-size="10.00">Params</text>
</a>
</g>
</g>
<!-- Node1&#45;&gt;Node26 -->
<g id="edge60" class="edge"><title>Node1&#45;&gt;Node26</title>
<path fill="none" stroke="midnightblue" d="M29.9952,-682.528C32.0462,-653.463 42.3642,-565.123 93,-521.039 202.449,-425.752 393.411,-444.379 472.318,-457.229"/>
<polygon fill="midnightblue" stroke="midnightblue" points="471.807,-460.693 482.251,-458.915 472.978,-453.791 471.807,-460.693"/>
</g>
<!-- Node27 -->
<g id="node27" class="node"><title>Node27</title>
<g id="a_node27"><a xlink:href="class_args_manager.html#a565c101a8d753ca2d71c7069a9d411c1" target="_top" xlink:title="Return string argument or default value. ">
<polygon fill="white" stroke="black" points="449,-834.539 449,-853.539 569,-853.539 569,-834.539 449,-834.539"/>
<text text-anchor="middle" x="509" y="-841.539" font-family="Helvetica,sans-Serif" font-size="10.00">ArgsManager::GetArg</text>
</a>
</g>
</g>
<!-- Node1&#45;&gt;Node27 -->
<g id="edge57" class="edge"><title>Node1&#45;&gt;Node27</title>
<path fill="none" stroke="midnightblue" d="M57.1593,-693.746C105.922,-697.316 204.367,-707.213 229,-730.039 273.918,-771.662 216.369,-825.821 265,-863.039 328.034,-911.28 429.158,-878.625 478.711,-857.724"/>
<polygon fill="midnightblue" stroke="midnightblue" points="480.415,-860.8 488.189,-853.602 477.623,-854.38 480.415,-860.8"/>
</g>
<!-- Node30 -->
<g id="node30" class="node"><title>Node30</title>
<g id="a_node30"><a xlink:href="class_uni_value.html#abab649c2dbd593233de6364254456026" target="_top" xlink:title="UniValue::pushKV">
<polygon fill="white" stroke="black" points="288.5,-340.539 288.5,-359.539 389.5,-359.539 389.5,-340.539 288.5,-340.539"/>
<text text-anchor="middle" x="339" y="-347.539" font-family="Helvetica,sans-Serif" font-size="10.00">UniValue::pushKV</text>
</a>
</g>
</g>
<!-- Node1&#45;&gt;Node30 -->
<g id="edge32" class="edge"><title>Node1&#45;&gt;Node30</title>
<path fill="none" stroke="midnightblue" d="M30.3023,-682.296C34.2272,-637.007 52.8636,-447.553 93,-407.039 141.32,-358.265 222.692,-347.9 278.296,-347.163"/>
<polygon fill="midnightblue" stroke="midnightblue" points="278.376,-350.663 288.365,-347.131 278.354,-343.663 278.376,-350.663"/>
</g>
<!-- Node33 -->
<g id="node33" class="node"><title>Node33</title>
<g id="a_node33"><a xlink:href="class_c_block_index.html#ab843ef9b8b0a0193ec3a5c24738e484f" target="_top" xlink:title="CBlockIndex::GetBlockHash">
<polygon fill="white" stroke="black" points="265,-492.539 265,-511.539 413,-511.539 413,-492.539 265,-492.539"/>
<text text-anchor="middle" x="339" y="-499.539" font-family="Helvetica,sans-Serif" font-size="10.00">CBlockIndex::GetBlockHash</text>
</a>
</g>
</g>
<!-- Node1&#45;&gt;Node33 -->
<g id="edge35" class="edge"><title>Node1&#45;&gt;Node33</title>
<path fill="none" stroke="midnightblue" d="M44.7123,-682.523C85.4176,-656.963 195.974,-586.868 229,-559.039 246.79,-544.048 244.969,-532.871 265,-521.039 268.679,-518.866 272.605,-516.939 276.657,-515.229"/>
<polygon fill="midnightblue" stroke="midnightblue" points="278.144,-518.409 286.28,-511.623 275.688,-511.855 278.144,-518.409"/>
</g>
<!-- Node34 -->
<g id="node34" class="node"><title>Node34</title>
<g id="a_node34"><a xlink:href="classbase__blob.html#a9541747b1f91f9469ac0aff90665bd32" target="_top" xlink:title="base_blob::GetHex">
<polygon fill="white" stroke="black" points="107.5,-307.539 107.5,-326.539 214.5,-326.539 214.5,-307.539 107.5,-307.539"/>
<text text-anchor="middle" x="161" y="-314.539" font-family="Helvetica,sans-Serif" font-size="10.00">base_blob::GetHex</text>
</a>
</g>
</g>
<!-- Node1&#45;&gt;Node34 -->
<g id="edge36" class="edge"><title>Node1&#45;&gt;Node34</title>
<path fill="none" stroke="midnightblue" d="M30.3236,-682.347C34.6186,-633.581 55.6889,-415.214 93,-360.039 101.349,-347.693 114.551,-338.119 127.037,-331.172"/>
<polygon fill="midnightblue" stroke="midnightblue" points="128.649,-334.279 135.923,-326.575 125.432,-328.061 128.649,-334.279"/>
</g>
<!-- Node36 -->
<g id="node36" class="node"><title>Node36</title>
<g id="a_node36"><a xlink:href="core__io_8h.html#a513e384f1d458abddd1bf9be05125947" target="_top" xlink:title="ValueFromAmount">
<polygon fill="white" stroke="black" points="108.5,-416.539 108.5,-435.539 213.5,-435.539 213.5,-416.539 108.5,-416.539"/>
<text text-anchor="middle" x="161" y="-423.539" font-family="Helvetica,sans-Serif" font-size="10.00">ValueFromAmount</text>
</a>
</g>
</g>
<!-- Node1&#45;&gt;Node36 -->
<g id="edge38" class="edge"><title>Node1&#45;&gt;Node36</title>
<path fill="none" stroke="midnightblue" d="M29.0536,-682.24C27.9616,-646.254 29.0309,-519.855 93,-450.039 96.5096,-446.209 100.674,-442.989 105.183,-440.283"/>
<polygon fill="midnightblue" stroke="midnightblue" points="106.879,-443.347 114.198,-435.686 103.699,-437.111 106.879,-443.347"/>
</g>
<!-- Node38 -->
<g id="node38" class="node"><title>Node38</title>
<g id="a_node38"><a xlink:href="core__io_8h.html#a4a51bf7268adbdcd58e7af445ea4db61" target="_top" xlink:title="ScriptPubKeyToUniv">
<polygon fill="white" stroke="black" points="106,-260.539 106,-279.539 216,-279.539 216,-260.539 106,-260.539"/>
<text text-anchor="middle" x="161" y="-267.539" font-family="Helvetica,sans-Serif" font-size="10.00">ScriptPubKeyToUniv</text>
</a>
</g>
</g>
<!-- Node1&#45;&gt;Node38 -->
<g id="edge40" class="edge"><title>Node1&#45;&gt;Node38</title>
<path fill="none" stroke="midnightblue" d="M29.8186,-682.255C31.7786,-627.619 43.7926,-360.486 93,-298.039 97.5597,-292.253 103.529,-287.649 110.027,-283.989"/>
<polygon fill="midnightblue" stroke="midnightblue" points="111.669,-287.083 119.132,-279.562 108.608,-280.787 111.669,-287.083"/>
</g>
<!-- Node47 -->
<g id="node47" class="node"><title>Node47</title>
<g id="a_node47"><a xlink:href="class_c_verify_d_b.html#af12e07230f20d23cf01d417d0e785c49" target="_top" xlink:title="CVerifyDB::VerifyDB">
<polygon fill="white" stroke="red" points="106,-530.539 106,-549.539 216,-549.539 216,-530.539 106,-530.539"/>
<text text-anchor="middle" x="161" y="-537.539" font-family="Helvetica,sans-Serif" font-size="10.00">CVerifyDB::VerifyDB</text>
</a>
</g>
</g>
<!-- Node1&#45;&gt;Node47 -->
<g id="edge58" class="edge"><title>Node1&#45;&gt;Node47</title>
<path fill="none" stroke="midnightblue" d="M33.3084,-682.304C41.6407,-661.948 63.1565,-614.197 93,-583.039 103.924,-571.634 118.445,-561.843 131.175,-554.498"/>
<polygon fill="midnightblue" stroke="midnightblue" points="132.991,-557.493 140.051,-549.594 129.605,-551.367 132.991,-557.493"/>
</g>
<!-- Node48 -->
<g id="node48" class="node"><title>Node48</title>
<g id="a_node48"><a xlink:href="validation_8cpp.html#aa94e6fe0feee1012d0865e1f5294d2ed" target="_top" xlink:title="Get the BIP9 state for a given deployment at the current tip. ">
<polygon fill="white" stroke="red" points="106,-222.539 106,-241.539 216,-241.539 216,-222.539 106,-222.539"/>
<text text-anchor="middle" x="161" y="-229.539" font-family="Helvetica,sans-Serif" font-size="10.00">VersionBitsTipState</text>
</a>
</g>
</g>
<!-- Node1&#45;&gt;Node48 -->
<g id="edge61" class="edge"><title>Node1&#45;&gt;Node48</title>
<path fill="none" stroke="midnightblue" d="M29.5155,-682.167C29.8074,-623.245 34.1742,-318.281 93,-251.039 94.3434,-249.503 95.8008,-248.088 97.3514,-246.783"/>
<polygon fill="midnightblue" stroke="midnightblue" points="99.4204,-249.61 105.784,-241.139 95.5267,-243.792 99.4204,-249.61"/>
</g>
<!-- Node49 -->
<g id="node49" class="node"><title>Node49</title>
<g id="a_node49"><a xlink:href="validation_8cpp.html#ac96fbd2931c7ebea9d4041cb9eb93413" target="_top" xlink:title="Get the block height at which the BIP9 deployment switched into the state for the block building on t...">
<polygon fill="white" stroke="red" points="93,-173.039 93,-203.039 229,-203.039 229,-173.039 93,-173.039"/>
<text text-anchor="start" x="101" y="-191.039" font-family="Helvetica,sans-Serif" font-size="10.00">VersionBitsTipStateSince</text>
<text text-anchor="middle" x="161" y="-180.039" font-family="Helvetica,sans-Serif" font-size="10.00">Height</text>
</a>
</g>
</g>
<!-- Node1&#45;&gt;Node49 -->
<g id="edge62" class="edge"><title>Node1&#45;&gt;Node49</title>
<path fill="none" stroke="midnightblue" d="M29.4709,-682.205C29.4789,-620.707 32.3643,-289.147 93,-213.039 93.967,-211.825 94.9994,-210.67 96.0883,-209.572"/>
<polygon fill="midnightblue" stroke="midnightblue" points="98.4757,-212.141 104.005,-203.103 94.0467,-206.72 98.4757,-212.141"/>
</g>
<!-- Node50 -->
<g id="node50" class="node"><title>Node50</title>
<g id="a_node50"><a xlink:href="validation_8cpp.html#a152aa35cceda8e10042cdb2d1e6c3370" target="_top" xlink:title="Get the numerical statistics for the BIP9 state for a given deployment at the current tip...">
<polygon fill="white" stroke="red" points="97,-134.539 97,-153.539 225,-153.539 225,-134.539 97,-134.539"/>
<text text-anchor="middle" x="161" y="-141.539" font-family="Helvetica,sans-Serif" font-size="10.00">VersionBitsTipStatistics</text>
</a>
</g>
</g>
<!-- Node1&#45;&gt;Node50 -->
<g id="edge63" class="edge"><title>Node1&#45;&gt;Node50</title>
<path fill="none" stroke="midnightblue" d="M29.2598,-682.401C27.8414,-617.571 22.855,-245.15 93,-163.039 94.0307,-161.832 95.1319,-160.7 96.2935,-159.636"/>
<polygon fill="midnightblue" stroke="midnightblue" points="98.6502,-162.253 104.733,-153.578 94.5683,-156.566 98.6502,-162.253"/>
</g>
<!-- Node6 -->
<g id="node6" class="node"><title>Node6</title>
<g id="a_node6"><a xlink:href="class_uni_value.html#ae8e17c2a90b668d0771a0523d70cd70d" target="_top" xlink:title="UniValue::getValStr">
<polygon fill="white" stroke="black" points="284.5,-1024.54 284.5,-1043.54 393.5,-1043.54 393.5,-1024.54 284.5,-1024.54"/>
<text text-anchor="middle" x="339" y="-1031.54" font-family="Helvetica,sans-Serif" font-size="10.00">UniValue::getValStr</text>
</a>
</g>
</g>
<!-- Node5&#45;&gt;Node6 -->
<g id="edge5" class="edge"><title>Node5&#45;&gt;Node6</title>
<path fill="none" stroke="midnightblue" d="M201.081,-986.634C210.359,-989.319 220.133,-992.488 229,-996.039 245.795,-1002.77 248.133,-1008.49 265,-1015.04 271.316,-1017.49 278.061,-1019.73 284.803,-1021.73"/>
<polygon fill="midnightblue" stroke="midnightblue" points="284.053,-1025.16 294.628,-1024.51 285.958,-1018.42 284.053,-1025.16"/>
</g>
<!-- Node8 -->
<g id="node8" class="node"><title>Node8</title>
<g id="a_node8"><a xlink:href="classbase__blob.html#a5ec1f681a2830f4e180fe664c0eb4dd0" target="_top" xlink:title="base_blob::SetHex">
<polygon fill="white" stroke="red" points="285.5,-948.539 285.5,-967.539 392.5,-967.539 392.5,-948.539 285.5,-948.539"/>
<text text-anchor="middle" x="339" y="-955.539" font-family="Helvetica,sans-Serif" font-size="10.00">base_blob::SetHex</text>
</a>
</g>
</g>
<!-- Node7&#45;&gt;Node8 -->
<g id="edge7" class="edge"><title>Node7&#45;&gt;Node8</title>
<path fill="none" stroke="midnightblue" d="M190.803,-907.792C202.804,-910.967 216.766,-915.139 229,-920.039 245.795,-926.766 248.133,-932.495 265,-939.039 271.316,-941.49 278.061,-943.726 284.803,-945.734"/>
<polygon fill="midnightblue" stroke="midnightblue" points="284.053,-949.159 294.628,-948.512 285.958,-942.423 284.053,-949.159"/>
</g>
<!-- Node9&#45;&gt;Node6 -->
<g id="edge10" class="edge"><title>Node9&#45;&gt;Node6</title>
<path fill="none" stroke="midnightblue" d="M210.161,-948.02C216.872,-950.569 223.383,-953.84 229,-958.039 252.999,-975.978 240.808,-997.361 265,-1015.04 268.18,-1017.36 271.621,-1019.4 275.217,-1021.19"/>
<polygon fill="midnightblue" stroke="midnightblue" points="273.847,-1024.41 284.416,-1025.15 276.614,-1017.98 273.847,-1024.41"/>
</g>
<!-- Node10 -->
<g id="node10" class="node"><title>Node10</title>
<g id="a_node10"><a xlink:href="utilstrencodings_8cpp.html#a880a215d9e931432b095084c756a49bb" target="_top" xlink:title="Convert string to signed 32&#45;bit integer with strict parse error feedback. ">
<polygon fill="white" stroke="black" points="305.5,-986.539 305.5,-1005.54 372.5,-1005.54 372.5,-986.539 305.5,-986.539"/>
<text text-anchor="middle" x="339" y="-993.539" font-family="Helvetica,sans-Serif" font-size="10.00">ParseInt32</text>
</a>
</g>
</g>
<!-- Node9&#45;&gt;Node10 -->
<g id="edge9" class="edge"><title>Node9&#45;&gt;Node10</title>
<path fill="none" stroke="midnightblue" d="M201.081,-948.634C210.359,-951.319 220.133,-954.488 229,-958.039 245.795,-964.766 248.133,-970.495 265,-977.039 274.615,-980.77 285.222,-984.003 295.301,-986.692"/>
<polygon fill="midnightblue" stroke="midnightblue" points="294.594,-990.123 305.148,-989.198 296.32,-983.34 294.594,-990.123"/>
</g>
<!-- Node13 -->
<g id="node13" class="node"><title>Node13</title>
<g id="a_node13"><a xlink:href="class_uni_value.html#ab28e9956f511cfe0db77e41cd6e488f3" target="_top" xlink:title="UniValue::getBool">
<polygon fill="white" stroke="red" points="288.5,-910.539 288.5,-929.539 389.5,-929.539 389.5,-910.539 288.5,-910.539"/>
<text text-anchor="middle" x="339" y="-917.539" font-family="Helvetica,sans-Serif" font-size="10.00">UniValue::getBool</text>
</a>
</g>
</g>
<!-- Node12&#45;&gt;Node13 -->
<g id="edge13" class="edge"><title>Node12&#45;&gt;Node13</title>
<path fill="none" stroke="midnightblue" d="M211.047,-834.631C217.413,-837.088 223.591,-840.171 229,-844.039 251.865,-860.389 242.478,-879.22 265,-896.039 270.806,-900.375 277.434,-903.951 284.274,-906.895"/>
<polygon fill="midnightblue" stroke="midnightblue" points="283.086,-910.188 293.675,-910.529 285.61,-903.659 283.086,-910.188"/>
</g>
<!-- Node17 -->
<g id="node17" class="node"><title>Node17</title>
<g id="a_node17"><a xlink:href="validation_8h.html#af43d57aa8b46a53839777e8b670c9d66" target="_top" xlink:title="Find the last common block between the parameter chain and a locator. ">
<polygon fill="white" stroke="red" points="279.5,-758.539 279.5,-777.539 398.5,-777.539 398.5,-758.539 279.5,-758.539"/>
<text text-anchor="middle" x="339" y="-765.539" font-family="Helvetica,sans-Serif" font-size="10.00">FindForkInGlobalIndex</text>
</a>
</g>
</g>
<!-- Node16&#45;&gt;Node17 -->
<g id="edge17" class="edge"><title>Node16&#45;&gt;Node17</title>
<path fill="none" stroke="midnightblue" d="M212.12,-678.094C218.113,-680.814 223.903,-684.127 229,-688.039 251.299,-705.153 241.959,-723.938 265,-740.039 276.633,-748.169 291.5,-752.82 304.777,-756.165"/>
<polygon fill="midnightblue" stroke="midnightblue" points="304,-759.577 314.541,-758.503 305.631,-752.77 304,-759.577"/>
</g>
<!-- Node18 -->
<g id="node18" class="node"><title>Node18</title>
<g id="a_node18"><a xlink:href="validation_8h.html#a3f8adbd1749f9d3a146cfc3658dd649b" target="_top" xlink:title="Mark a block as precious and reorganize. ">
<polygon fill="white" stroke="red" points="297.5,-720.539 297.5,-739.539 380.5,-739.539 380.5,-720.539 297.5,-720.539"/>
<text text-anchor="middle" x="339" y="-727.539" font-family="Helvetica,sans-Serif" font-size="10.00">PreciousBlock</text>
</a>
</g>
</g>
<!-- Node16&#45;&gt;Node18 -->
<g id="edge19" class="edge"><title>Node16&#45;&gt;Node18</title>
<path fill="none" stroke="midnightblue" d="M189.118,-682.566C201.333,-686.906 215.92,-692.154 229,-697.039 245.082,-703.045 248.666,-705.757 265,-711.039 272.447,-713.447 280.396,-715.767 288.206,-717.907"/>
<polygon fill="midnightblue" stroke="midnightblue" points="287.412,-721.318 297.976,-720.516 289.218,-714.555 287.412,-721.318"/>
</g>
<!-- Node19 -->
<g id="node19" class="node"><title>Node19</title>
<g id="a_node19"><a xlink:href="validation_8h.html#ac1125805255945a06f6f6fe1d9c6c154" target="_top" xlink:title="Mark a block as invalid. ">
<polygon fill="white" stroke="red" points="295,-682.539 295,-701.539 383,-701.539 383,-682.539 295,-682.539"/>
<text text-anchor="middle" x="339" y="-689.539" font-family="Helvetica,sans-Serif" font-size="10.00">InvalidateBlock</text>
</a>
</g>
</g>
<!-- Node16&#45;&gt;Node19 -->
<g id="edge20" class="edge"><title>Node16&#45;&gt;Node19</title>
<path fill="none" stroke="midnightblue" d="M212.435,-678.484C234.985,-680.918 261.586,-683.79 284.487,-686.262"/>
<polygon fill="midnightblue" stroke="midnightblue" points="284.402,-689.773 294.72,-687.367 285.154,-682.814 284.402,-689.773"/>
</g>
<!-- Node20 -->
<g id="node20" class="node"><title>Node20</title>
<g id="a_node20"><a xlink:href="validation_8h.html#a8b3ab8d9e8e4e6c3b98c4a77623c924c" target="_top" xlink:title="Remove invalidity status from a block and its descendants. ">
<polygon fill="white" stroke="red" points="277,-644.539 277,-663.539 401,-663.539 401,-644.539 277,-644.539"/>
<text text-anchor="middle" x="339" y="-651.539" font-family="Helvetica,sans-Serif" font-size="10.00">ResetBlockFailureFlags</text>
</a>
</g>
</g>
<!-- Node16&#45;&gt;Node20 -->
<g id="edge21" class="edge"><title>Node16&#45;&gt;Node20</title>
<path fill="none" stroke="midnightblue" d="M212.435,-667.594C229.404,-665.762 248.669,-663.683 266.923,-661.712"/>
<polygon fill="midnightblue" stroke="midnightblue" points="267.373,-665.184 276.94,-660.631 266.622,-658.224 267.373,-665.184"/>
</g>
<!-- Node21 -->
<g id="node21" class="node"><title>Node21</title>
<g id="a_node21"><a xlink:href="validation_8h.html#ada1eab9ccd84d9a98f598eba9bd35330" target="_top" xlink:title="Return the spend height, which is one more than the inputs.GetBestBlock(). ">
<polygon fill="white" stroke="red" points="291,-606.539 291,-625.539 387,-625.539 387,-606.539 291,-606.539"/>
<text text-anchor="middle" x="339" y="-613.539" font-family="Helvetica,sans-Serif" font-size="10.00">GetSpendHeight</text>
</a>
</g>
</g>
<!-- Node16&#45;&gt;Node21 -->
<g id="edge22" class="edge"><title>Node16&#45;&gt;Node21</title>
<path fill="none" stroke="midnightblue" d="M172.41,-663.431C190.868,-652.396 230.629,-636.823 265,-626.039 270.154,-624.422 275.543,-622.832 280.956,-621.342"/>
<polygon fill="midnightblue" stroke="midnightblue" points="281.904,-624.712 290.683,-618.78 280.121,-617.942 281.904,-624.712"/>
</g>
<!-- Node22 -->
<g id="node22" class="node"><title>Node22</title>
<g id="a_node22"><a xlink:href="validation_8h.html#a0657e7220e2c33df7a210032ca61b7fe" target="_top" xlink:title="Determine what nVersion a new block should use. ">
<polygon fill="white" stroke="red" points="278,-568.539 278,-587.539 400,-587.539 400,-568.539 278,-568.539"/>
<text text-anchor="middle" x="339" y="-575.539" font-family="Helvetica,sans-Serif" font-size="10.00">ComputeBlockVersion</text>
</a>
</g>
</g>
<!-- Node16&#45;&gt;Node22 -->
<g id="edge24" class="edge"><title>Node16&#45;&gt;Node22</title>
<path fill="none" stroke="midnightblue" d="M172.24,-663.352C189.822,-647.238 227.493,-614.933 265,-597.039 269.949,-594.678 275.233,-592.58 280.609,-590.724"/>
<polygon fill="midnightblue" stroke="midnightblue" points="281.86,-593.999 290.333,-587.638 279.742,-587.327 281.86,-593.999"/>
</g>
<!-- Node23 -->
<g id="node23" class="node"><title>Node23</title>
<g id="a_node23"><a xlink:href="validation_8h.html#a7725a9cdef7f65f84b084d43b4a312ef" target="_top" xlink:title="Get block file info entry for one block file. ">
<polygon fill="white" stroke="black" points="293,-530.539 293,-549.539 385,-549.539 385,-530.539 293,-530.539"/>
<text text-anchor="middle" x="339" y="-537.539" font-family="Helvetica,sans-Serif" font-size="10.00">GetBlockFileInfo</text>
</a>
</g>
</g>
<!-- Node16&#45;&gt;Node23 -->
<g id="edge25" class="edge"><title>Node16&#45;&gt;Node23</title>
<path fill="none" stroke="midnightblue" d="M174.121,-663.225C188.147,-651.564 211.547,-631.146 229,-611.039 247.425,-589.811 241.959,-575.14 265,-559.039 270.553,-555.158 276.844,-552.07 283.346,-549.612"/>
<polygon fill="midnightblue" stroke="midnightblue" points="284.56,-552.897 292.963,-546.444 282.37,-546.249 284.56,-552.897"/>
</g>
<!-- Node24 -->
<g id="node24" class="node"><title>Node24</title>
<g id="a_node24"><a xlink:href="validation_8h.html#a4b0f164432912c7b1b0e3535c13ad01c" target="_top" xlink:title="Dump the mempool to disk. ">
<polygon fill="white" stroke="red" points="294,-834.539 294,-853.539 384,-853.539 384,-834.539 294,-834.539"/>
<text text-anchor="middle" x="339" y="-841.539" font-family="Helvetica,sans-Serif" font-size="10.00">DumpMempool</text>
</a>
</g>
</g>
<!-- Node16&#45;&gt;Node24 -->
<g id="edge26" class="edge"><title>Node16&#45;&gt;Node24</title>
<path fill="none" stroke="midnightblue" d="M207.37,-682.62C215.419,-686.053 223.101,-690.714 229,-697.039 269.304,-740.259 222.806,-783.662 265,-825.039 270.335,-830.271 276.919,-834.115 283.93,-836.929"/>
<polygon fill="midnightblue" stroke="midnightblue" points="283.084,-840.336 293.677,-840.162 285.288,-833.692 283.084,-840.336"/>
</g>
<!-- Node25 -->
<g id="node25" class="node"><title>Node25</title>
<g id="a_node25"><a xlink:href="validation_8h.html#adea951730b49ef41e5390df5be8d3f1b" target="_top" xlink:title="Load the mempool from disk. ">
<polygon fill="white" stroke="red" points="297,-796.539 297,-815.539 381,-815.539 381,-796.539 297,-796.539"/>
<text text-anchor="middle" x="339" y="-803.539" font-family="Helvetica,sans-Serif" font-size="10.00">LoadMempool</text>
</a>
</g>
</g>
<!-- Node16&#45;&gt;Node25 -->
<g id="edge27" class="edge"><title>Node16&#45;&gt;Node25</title>
<path fill="none" stroke="midnightblue" d="M205.461,-682.56C214.043,-686.01 222.418,-690.693 229,-697.039 260.014,-726.941 232.681,-758.552 265,-787.039 271.355,-792.641 279.16,-796.624 287.275,-799.45"/>
<polygon fill="midnightblue" stroke="midnightblue" points="286.296,-802.811 296.877,-802.264 288.264,-796.093 286.296,-802.811"/>
</g>
<!-- Node17&#45;&gt;Node16 -->
<g id="edge18" class="edge"><title>Node17&#45;&gt;Node16</title>
<path fill="none" stroke="midnightblue" d="M279.33,-765.816C274.265,-763.692 269.401,-761.115 265,-758.039 241.959,-741.938 251.299,-723.153 229,-706.039 216.659,-696.567 200.251,-690.607 186.761,-685.925"/>
<polygon fill="midnightblue" stroke="midnightblue" points="187.725,-682.554 177.13,-682.556 185.414,-689.161 187.725,-682.554"/>
</g>
<!-- Node21&#45;&gt;Node16 -->
<g id="edge23" class="edge"><title>Node21&#45;&gt;Node16</title>
<path fill="none" stroke="midnightblue" d="M324.967,-625.566C310.279,-631.474 285.742,-637.531 265,-644.039 249.411,-648.93 232.712,-654.807 217.396,-660.122"/>
<polygon fill="midnightblue" stroke="midnightblue" points="215.867,-656.947 207.556,-663.518 218.151,-663.564 215.867,-656.947"/>
</g>
<!-- Node25&#45;&gt;Node26 -->
<g id="edge28" class="edge"><title>Node25&#45;&gt;Node26</title>
<path fill="none" stroke="midnightblue" d="M381.22,-802.87C392.744,-800.13 404.442,-795.332 413,-787.039 500.966,-701.795 508.574,-539.667 508.44,-483.653"/>
<polygon fill="midnightblue" stroke="midnightblue" points="511.939,-483.606 508.325,-473.647 504.94,-483.686 511.939,-483.606"/>
</g>
<!-- Node25&#45;&gt;Node27 -->
<g id="edge29" class="edge"><title>Node25&#45;&gt;Node27</title>
<path fill="none" stroke="midnightblue" d="M381.097,-815.335C403.622,-820.43 431.773,-826.797 455.833,-832.239"/>
<polygon fill="midnightblue" stroke="midnightblue" points="455.341,-835.716 465.867,-834.509 456.885,-828.889 455.341,-835.716"/>
</g>
<!-- Node28 -->
<g id="node28" class="node"><title>Node28</title>
<g id="a_node28"><a xlink:href="class_args_manager.html#a279ccbf7bbe9de5dceb8c6bfd1736583" target="_top" xlink:title="Return true if the argument was originally passed as a negated option, i.e. ">
<polygon fill="white" stroke="red" points="605,-856.539 605,-875.539 757,-875.539 757,-856.539 605,-856.539"/>
<text text-anchor="middle" x="681" y="-863.539" font-family="Helvetica,sans-Serif" font-size="10.00">ArgsManager::IsArgNegated</text>
</a>
</g>
</g>
<!-- Node27&#45;&gt;Node28 -->
<g id="edge30" class="edge"><title>Node27&#45;&gt;Node28</title>
<path fill="none" stroke="midnightblue" d="M569.458,-851.734C578.154,-852.859 587.243,-854.035 596.312,-855.209"/>
<polygon fill="midnightblue" stroke="midnightblue" points="596.154,-858.718 606.521,-856.53 597.053,-851.775 596.154,-858.718"/>
</g>
<!-- Node29 -->
<g id="node29" class="node"><title>Node29</title>
<g id="a_node29"><a xlink:href="class_args_manager_helper.html#aa4f8f77dc468b29cffe50513c78a87cd" target="_top" xlink:title="ArgsManagerHelper::\lGetArg">
<polygon fill="white" stroke="black" points="622,-807.039 622,-837.039 740,-837.039 740,-807.039 622,-807.039"/>
<text text-anchor="start" x="630" y="-825.039" font-family="Helvetica,sans-Serif" font-size="10.00">ArgsManagerHelper::</text>
<text text-anchor="middle" x="681" y="-814.039" font-family="Helvetica,sans-Serif" font-size="10.00">GetArg</text>
</a>
</g>
</g>
<!-- Node27&#45;&gt;Node29 -->
<g id="edge31" class="edge"><title>Node27&#45;&gt;Node29</title>
<path fill="none" stroke="midnightblue" d="M569.458,-836.345C583.095,-834.58 597.7,-832.69 611.678,-830.881"/>
<polygon fill="midnightblue" stroke="midnightblue" points="612.254,-834.335 621.722,-829.581 611.356,-827.393 612.254,-834.335"/>
</g>
<!-- Node31 -->
<g id="node31" class="node"><title>Node31</title>
<g id="a_node31"><a xlink:href="class_uni_value.html#a0b2da6f10943e899d304a28ef1a12094" target="_top" xlink:title="UniValue::findKey">
<polygon fill="white" stroke="black" points="460,-321.539 460,-340.539 558,-340.539 558,-321.539 460,-321.539"/>
<text text-anchor="middle" x="509" y="-328.539" font-family="Helvetica,sans-Serif" font-size="10.00">UniValue::findKey</text>
</a>
</g>
</g>
<!-- Node30&#45;&gt;Node31 -->
<g id="edge33" class="edge"><title>Node30&#45;&gt;Node31</title>
<path fill="none" stroke="midnightblue" d="M389.951,-344.39C408.812,-342.257 430.431,-339.812 449.97,-337.602"/>
<polygon fill="midnightblue" stroke="midnightblue" points="450.43,-341.072 459.973,-336.471 449.643,-334.117 450.43,-341.072"/>
</g>
<!-- Node32 -->
<g id="node32" class="node"><title>Node32</title>
<g id="a_node32"><a xlink:href="class_uni_value.html#a505a2087cb7d9ee51d24a97a5cc7910c" target="_top" xlink:title="UniValue::__pushKV">
<polygon fill="white" stroke="black" points="453.5,-359.539 453.5,-378.539 564.5,-378.539 564.5,-359.539 453.5,-359.539"/>
<text text-anchor="middle" x="509" y="-366.539" font-family="Helvetica,sans-Serif" font-size="10.00">UniValue::__pushKV</text>
</a>
</g>
</g>
<!-- Node30&#45;&gt;Node32 -->
<g id="edge34" class="edge"><title>Node30&#45;&gt;Node32</title>
<path fill="none" stroke="midnightblue" d="M389.951,-355.688C406.607,-357.572 425.412,-359.699 443.038,-361.692"/>
<polygon fill="midnightblue" stroke="midnightblue" points="442.924,-365.201 453.254,-362.848 443.711,-358.246 442.924,-365.201"/>
</g>
<!-- Node35 -->
<g id="node35" class="node"><title>Node35</title>
<g id="a_node35"><a xlink:href="utilstrencodings_8h.html#ace13a819ca4e98c22847d26b3b357e75" target="_top" xlink:title="HexStr">
<polygon fill="white" stroke="black" points="484,-226.539 484,-245.539 534,-245.539 534,-226.539 484,-226.539"/>
<text text-anchor="middle" x="509" y="-233.539" font-family="Helvetica,sans-Serif" font-size="10.00">HexStr</text>
</a>
</g>
</g>
<!-- Node34&#45;&gt;Node35 -->
<g id="edge37" class="edge"><title>Node34&#45;&gt;Node35</title>
<path fill="none" stroke="midnightblue" d="M214.812,-318.684C266.58,-318.757 347.092,-314.725 413,-293.039 440.948,-283.843 469.416,-265.285 487.803,-251.837"/>
<polygon fill="midnightblue" stroke="midnightblue" points="490.074,-254.509 495.974,-245.709 485.874,-248.909 490.074,-254.509"/>
</g>
<!-- Node37 -->
<g id="node37" class="node"><title>Node37</title>
<g id="a_node37"><a xlink:href="class_uni_value.html#aa554610302e7e028dcdc78dcdf87d410" target="_top" xlink:title="UniValue::UniValue">
<polygon fill="white" stroke="black" points="285.5,-416.539 285.5,-435.539 392.5,-435.539 392.5,-416.539 285.5,-416.539"/>
<text text-anchor="middle" x="339" y="-423.539" font-family="Helvetica,sans-Serif" font-size="10.00">UniValue::UniValue</text>
</a>
</g>
</g>
<!-- Node36&#45;&gt;Node37 -->
<g id="edge39" class="edge"><title>Node36&#45;&gt;Node37</title>
<path fill="none" stroke="midnightblue" d="M213.854,-426.039C233.111,-426.039 255.163,-426.039 275.287,-426.039"/>
<polygon fill="midnightblue" stroke="midnightblue" points="275.299,-429.539 285.299,-426.039 275.298,-422.539 275.299,-429.539"/>
</g>
<!-- Node38&#45;&gt;Node30 -->
<g id="edge42" class="edge"><title>Node38&#45;&gt;Node30</title>
<path fill="none" stroke="midnightblue" d="M185.687,-279.605C198.564,-284.889 214.729,-291.658 229,-298.039 256.51,-310.341 287.489,-325.22 309.369,-335.906"/>
<polygon fill="midnightblue" stroke="midnightblue" points="307.924,-339.095 318.444,-340.352 311.004,-332.809 307.924,-339.095"/>
</g>
<!-- Node38&#45;&gt;Node35 -->
<g id="edge47" class="edge"><title>Node38&#45;&gt;Node35</title>
<path fill="none" stroke="midnightblue" d="M216.17,-261.459C231.892,-259.157 249.107,-256.816 265,-255.039 339.129,-246.753 426.382,-240.869 473.541,-238.009"/>
<polygon fill="midnightblue" stroke="midnightblue" points="474.033,-241.486 483.806,-237.395 473.615,-234.498 474.033,-241.486"/>
</g>
<!-- Node39 -->
<g id="node39" class="node"><title>Node39</title>
<g id="a_node39"><a xlink:href="class_uni_value.html#aa9c595a1e1a560e35eff5e8b6d8d859a" target="_top" xlink:title="UniValue::type">
<polygon fill="white" stroke="red" points="296,-150.539 296,-169.539 382,-169.539 382,-150.539 296,-150.539"/>
<text text-anchor="middle" x="339" y="-157.539" font-family="Helvetica,sans-Serif" font-size="10.00">UniValue::type</text>
</a>
</g>
</g>
<!-- Node38&#45;&gt;Node39 -->
<g id="edge41" class="edge"><title>Node38&#45;&gt;Node39</title>
<path fill="none" stroke="midnightblue" d="M213.287,-260.421C218.951,-257.97 224.344,-254.895 229,-251.039 256.553,-228.218 237.201,-201.56 265,-179.039 271.153,-174.054 278.472,-170.364 286.063,-167.635"/>
<polygon fill="midnightblue" stroke="midnightblue" points="287.22,-170.942 295.757,-164.668 285.17,-164.249 287.22,-170.942"/>
</g>
<!-- Node40 -->
<g id="node40" class="node"><title>Node40</title>
<g id="a_node40"><a xlink:href="core__write_8cpp.html#accaf6e3c14d2f3045f85984aa9cec2c8" target="_top" xlink:title="Create the assembly string representation of a CScript object. ">
<polygon fill="white" stroke="red" points="294,-74.539 294,-93.539 384,-93.539 384,-74.539 294,-74.539"/>
<text text-anchor="middle" x="339" y="-81.539" font-family="Helvetica,sans-Serif" font-size="10.00">ScriptToAsmStr</text>
</a>
</g>
</g>
<!-- Node38&#45;&gt;Node40 -->
<g id="edge43" class="edge"><title>Node38&#45;&gt;Node40</title>
<path fill="none" stroke="midnightblue" d="M216.119,-260.383C220.884,-257.922 225.295,-254.856 229,-251.039 274.649,-204.013 220.332,-155.998 265,-108.039 270.37,-102.273 277.148,-97.8902 284.399,-94.5592"/>
<polygon fill="midnightblue" stroke="midnightblue" points="285.738,-97.7933 293.765,-90.8774 283.177,-91.2786 285.738,-97.7933"/>
</g>
<!-- Node41 -->
<g id="node41" class="node"><title>Node41</title>
<g id="a_node41"><a xlink:href="classprevector.html#aa9210cbe708412a70868d6e0bca844c9" target="_top" xlink:title="prevector::begin">
<polygon fill="white" stroke="red" points="461.5,-74.539 461.5,-93.539 556.5,-93.539 556.5,-74.539 461.5,-74.539"/>
<text text-anchor="middle" x="509" y="-81.539" font-family="Helvetica,sans-Serif" font-size="10.00">prevector::begin</text>
</a>
</g>
</g>
<!-- Node38&#45;&gt;Node41 -->
<g id="edge48" class="edge"><title>Node38&#45;&gt;Node41</title>
<path fill="none" stroke="midnightblue" d="M215.191,-260.438C220.257,-257.974 224.99,-254.892 229,-251.039 266.093,-215.399 227.098,-175.818 265,-141.039 271.98,-134.634 382.845,-110.376 452.389,-95.6481"/>
<polygon fill="midnightblue" stroke="midnightblue" points="453.272,-99.0389 462.332,-93.5476 451.825,-92.1901 453.272,-99.0389"/>
</g>
<!-- Node42 -->
<g id="node42" class="node"><title>Node42</title>
<g id="a_node42"><a xlink:href="classprevector.html#aab7f6e13a3cac85cc340fc6b90c5365c" target="_top" xlink:title="prevector::end">
<polygon fill="white" stroke="red" points="466,-36.539 466,-55.539 552,-55.539 552,-36.539 466,-36.539"/>
<text text-anchor="middle" x="509" y="-43.539" font-family="Helvetica,sans-Serif" font-size="10.00">prevector::end</text>
</a>
</g>
</g>
<!-- Node38&#45;&gt;Node42 -->
<g id="edge49" class="edge"><title>Node38&#45;&gt;Node42</title>
<path fill="none" stroke="midnightblue" d="M216.148,-260.879C220.969,-258.328 225.384,-255.105 229,-251.039 296.01,-175.693 188.252,-92.4377 265,-27.039 325.995,24.9361 429.724,-10.3828 479.584,-32.287"/>
<polygon fill="midnightblue" stroke="midnightblue" points="478.256,-35.5274 488.809,-36.4591 481.14,-29.1493 478.256,-35.5274"/>
</g>
<!-- Node43 -->
<g id="node43" class="node"><title>Node43</title>
<g id="a_node43"><a xlink:href="standard_8cpp.html#a49e36ddce090cc66aba405c0755c8be7" target="_top" xlink:title="Parse a standard scriptPubKey with one or more destination addresses. ">
<polygon fill="white" stroke="red" points="284,-264.539 284,-283.539 394,-283.539 394,-264.539 284,-264.539"/>
<text text-anchor="middle" x="339" y="-271.539" font-family="Helvetica,sans-Serif" font-size="10.00">ExtractDestinations</text>
</a>
</g>
</g>
<!-- Node38&#45;&gt;Node43 -->
<g id="edge50" class="edge"><title>Node38&#45;&gt;Node43</title>
<path fill="none" stroke="midnightblue" d="M216.242,-271.272C234.478,-271.686 254.994,-272.153 273.913,-272.583"/>
<polygon fill="midnightblue" stroke="midnightblue" points="273.86,-276.082 283.937,-272.81 274.019,-269.084 273.86,-276.082"/>
</g>
<!-- Node44 -->
<g id="node44" class="node"><title>Node44</title>
<g id="a_node44"><a xlink:href="standard_8cpp.html#a998a2df1a42dc68c4cffa9933aa713c2" target="_top" xlink:title="Get the name of a txnouttype as a C string, or nullptr if unknown. ">
<polygon fill="white" stroke="red" points="287,-36.539 287,-55.539 391,-55.539 391,-36.539 287,-36.539"/>
<text text-anchor="middle" x="339" y="-43.539" font-family="Helvetica,sans-Serif" font-size="10.00">GetTxnOutputType</text>
</a>
</g>
</g>
<!-- Node38&#45;&gt;Node44 -->
<g id="edge51" class="edge"><title>Node38&#45;&gt;Node44</title>
<path fill="none" stroke="midnightblue" d="M216.017,-260.761C220.864,-258.232 225.32,-255.046 229,-251.039 285.951,-189.02 207.379,-126.436 265,-65.039 268.604,-61.1985 272.878,-58.0957 277.522,-55.5937"/>
<polygon fill="midnightblue" stroke="midnightblue" points="279.093,-58.7259 286.829,-51.4866 276.267,-52.3217 279.093,-58.7259"/>
</g>
<!-- Node45 -->
<g id="node45" class="node"><title>Node45</title>
<g id="a_node45"><a xlink:href="class_uni_value.html#a944cd1b59b040cd24c9f46b55a68d49a" target="_top" xlink:title="UniValue::push_back">
<polygon fill="white" stroke="black" points="281,-188.539 281,-207.539 397,-207.539 397,-188.539 281,-188.539"/>
<text text-anchor="middle" x="339" y="-195.539" font-family="Helvetica,sans-Serif" font-size="10.00">UniValue::push_back</text>
</a>
</g>
</g>
<!-- Node38&#45;&gt;Node45 -->
<g id="edge54" class="edge"><title>Node38&#45;&gt;Node45</title>
<path fill="none" stroke="midnightblue" d="M205.514,-260.458C213.546,-257.926 221.697,-254.815 229,-251.039 247.25,-241.602 246.949,-231.851 265,-222.039 272.92,-217.734 281.745,-214.03 290.445,-210.909"/>
<polygon fill="midnightblue" stroke="midnightblue" points="291.803,-214.144 300.16,-207.632 289.566,-207.511 291.803,-214.144"/>
</g>
<!-- Node46 -->
<g id="node46" class="node"><title>Node46</title>
<g id="a_node46"><a xlink:href="key__io_8cpp.html#a69b845c325e6bf516251cd3a67fe1df7" target="_top" xlink:title="EncodeDestination">
<polygon fill="white" stroke="black" points="285.5,-378.539 285.5,-397.539 392.5,-397.539 392.5,-378.539 285.5,-378.539"/>
<text text-anchor="middle" x="339" y="-385.539" font-family="Helvetica,sans-Serif" font-size="10.00">EncodeDestination</text>
</a>
</g>
</g>
<!-- Node38&#45;&gt;Node46 -->
<g id="edge55" class="edge"><title>Node38&#45;&gt;Node46</title>
<path fill="none" stroke="midnightblue" d="M197.757,-279.66C208.738,-283.929 220.226,-289.887 229,-298.039 254.919,-322.122 237.447,-346.845 265,-369.039 268.327,-371.719 271.992,-374.025 275.855,-376.008"/>
<polygon fill="midnightblue" stroke="midnightblue" points="274.594,-379.277 285.159,-380.074 277.397,-372.862 274.594,-379.277"/>
</g>
<!-- Node40&#45;&gt;Node35 -->
<g id="edge46" class="edge"><title>Node40&#45;&gt;Node35</title>
<path fill="none" stroke="midnightblue" d="M353.31,-93.6636C368.248,-104.638 393.006,-123.355 413,-141.039 442.199,-166.865 473.762,-199.459 492.158,-218.977"/>
<polygon fill="midnightblue" stroke="midnightblue" points="489.799,-221.579 499.191,-226.484 494.908,-216.793 489.799,-221.579"/>
</g>
<!-- Node40&#45;&gt;Node41 -->
<g id="edge44" class="edge"><title>Node40&#45;&gt;Node41</title>
<path fill="none" stroke="midnightblue" d="M384.14,-84.039C404.618,-84.039 429.21,-84.039 451.066,-84.039"/>
<polygon fill="midnightblue" stroke="midnightblue" points="451.217,-87.5391 461.217,-84.039 451.217,-80.5391 451.217,-87.5391"/>
</g>
<!-- Node40&#45;&gt;Node42 -->
<g id="edge45" class="edge"><title>Node40&#45;&gt;Node42</title>
<path fill="none" stroke="midnightblue" d="M382.393,-74.45C404.763,-69.3903 432.398,-63.1394 456.047,-57.7903"/>
<polygon fill="midnightblue" stroke="midnightblue" points="456.93,-61.1791 465.911,-55.5591 455.386,-54.3516 456.93,-61.1791"/>
</g>
<!-- Node44&#45;&gt;Node41 -->
<g id="edge52" class="edge"><title>Node44&#45;&gt;Node41</title>
<path fill="none" stroke="midnightblue" d="M382.393,-55.628C404.763,-60.6877 432.398,-66.9386 456.047,-72.2878"/>
<polygon fill="midnightblue" stroke="midnightblue" points="455.386,-75.7265 465.911,-74.519 456.93,-68.899 455.386,-75.7265"/>
</g>
<!-- Node44&#45;&gt;Node42 -->
<g id="edge53" class="edge"><title>Node44&#45;&gt;Node42</title>
<path fill="none" stroke="midnightblue" d="M391.318,-46.039C411.708,-46.039 435.141,-46.039 455.633,-46.039"/>
<polygon fill="midnightblue" stroke="midnightblue" points="455.739,-49.5391 465.739,-46.039 455.739,-42.5391 455.739,-49.5391"/>
</g>
<!-- Node46&#45;&gt;Node26 -->
<g id="edge56" class="edge"><title>Node46&#45;&gt;Node26</title>
<path fill="none" stroke="midnightblue" d="M385.065,-397.612C394.462,-400.203 404.185,-403.338 413,-407.039 439.671,-418.237 467.791,-435.95 486.453,-448.658"/>
<polygon fill="midnightblue" stroke="midnightblue" points="484.594,-451.628 494.807,-454.444 488.579,-445.873 484.594,-451.628"/>
</g>
<!-- Node47&#45;&gt;Node33 -->
<g id="edge59" class="edge"><title>Node47&#45;&gt;Node33</title>
<path fill="none" stroke="midnightblue" d="M206.412,-530.45C229.951,-525.368 259.057,-519.084 283.905,-513.719"/>
<polygon fill="midnightblue" stroke="midnightblue" points="284.871,-517.091 293.907,-511.559 283.394,-510.248 284.871,-517.091"/>
</g>
</g>
</svg>
