<?xml version="1.0" encoding="UTF-8" standalone="no"?>
<!DOCTYPE svg PUBLIC "-//W3C//DTD SVG 1.1//EN"
 "http://www.w3.org/Graphics/SVG/1.1/DTD/svg11.dtd">
<!-- Generated by graphviz version 2.49.3 (0)
 -->
<!-- Title: FlushUndoFile Pages: 1 -->
<svg width="2078pt" height="806pt"
 viewBox="0.00 0.00 2078.00 806.00" xmlns="http://www.w3.org/2000/svg" xmlns:xlink="http://www.w3.org/1999/xlink">
<g id="graph0" class="graph" transform="scale(1 1) rotate(0) translate(4 802)">
<title>FlushUndoFile</title>
<polygon fill="white" stroke="transparent" points="-4,4 -4,-802 2074,-802 2074,4 -4,4"/>
<!-- Node1 -->
<g id="node1" class="node">
<title>Node1</title>
<g id="a_node1"><a xlink:title=" ">
<polygon fill="#bfbfbf" stroke="black" points="1984,-245.5 1984,-264.5 2070,-264.5 2070,-245.5 1984,-245.5"/>
<text text-anchor="middle" x="2027" y="-252.5" font-family="Helvetica,sans-Serif" font-size="10.00">FlushUndoFile</text>
</a>
</g>
</g>
<!-- Node2 -->
<g id="node2" class="node">
<title>Node2</title>
<g id="a_node2"><a xlink:href="blockstorage_8cpp.html#a01d75c7177e38b0c6e0875a858cdad4f" target="_top" xlink:title=" ">
<polygon fill="white" stroke="black" points="1837.5,-226.5 1837.5,-245.5 1924.5,-245.5 1924.5,-226.5 1837.5,-226.5"/>
<text text-anchor="middle" x="1881" y="-233.5" font-family="Helvetica,sans-Serif" font-size="10.00">FlushBlockFile</text>
</a>
</g>
</g>
<!-- Node1&#45;&gt;Node2 -->
<g id="edge1" class="edge">
<title>Node1&#45;&gt;Node2</title>
<path fill="none" stroke="midnightblue" d="M1973.66,-248.09C1957.62,-245.98 1940.17,-243.67 1924.84,-241.65"/>
<polygon fill="midnightblue" stroke="midnightblue" points="1973.59,-251.62 1983.96,-249.45 1974.51,-244.68 1973.59,-251.62"/>
</g>
<!-- Node49 -->
<g id="node40" class="node">
<title>Node49</title>
<g id="a_node40"><a xlink:href="blockstorage_8cpp.html#aae5aa99373b0230b546b9363670b3d46" target="_top" xlink:title=" ">
<polygon fill="white" stroke="black" points="1814,-283.5 1814,-302.5 1948,-302.5 1948,-283.5 1814,-283.5"/>
<text text-anchor="middle" x="1881" y="-290.5" font-family="Helvetica,sans-Serif" font-size="10.00">WriteUndoDataForBlock</text>
</a>
</g>
</g>
<!-- Node1&#45;&gt;Node49 -->
<g id="edge56" class="edge">
<title>Node1&#45;&gt;Node49</title>
<path fill="none" stroke="midnightblue" d="M1979.83,-267.18C1959.84,-272.46 1936.78,-278.54 1918.08,-283.48"/>
<polygon fill="midnightblue" stroke="midnightblue" points="1980.89,-270.52 1989.66,-264.59 1979.1,-263.76 1980.89,-270.52"/>
</g>
<!-- Node3 -->
<g id="node3" class="node">
<title>Node3</title>
<g id="a_node3"><a xlink:href="blockstorage_8cpp.html#a5503583dd6ddfc2983521e7cc8a7dace" target="_top" xlink:title=" ">
<polygon fill="white" stroke="black" points="1654,-131.5 1654,-150.5 1735,-150.5 1735,-131.5 1654,-131.5"/>
<text text-anchor="middle" x="1694.5" y="-138.5" font-family="Helvetica,sans-Serif" font-size="10.00">FindBlockPos</text>
</a>
</g>
</g>
<!-- Node2&#45;&gt;Node3 -->
<g id="edge2" class="edge">
<title>Node2&#45;&gt;Node3</title>
<path fill="none" stroke="midnightblue" d="M1852.27,-221.72C1814.13,-202.08 1746.5,-167.26 1713.98,-150.52"/>
<polygon fill="midnightblue" stroke="midnightblue" points="1850.8,-224.9 1861.29,-226.37 1854.01,-218.68 1850.8,-224.9"/>
</g>
<!-- Node28 -->
<g id="node19" class="node">
<title>Node28</title>
<g id="a_node19"><a xlink:href="class_c_chain_state.html#a82dd9fb80f77ffc64401163c04bd80ee" target="_top" xlink:title="Update the on&#45;disk chain state.">
<polygon fill="white" stroke="black" points="1611,-226.5 1611,-245.5 1778,-245.5 1778,-226.5 1611,-226.5"/>
<text text-anchor="middle" x="1694.5" y="-233.5" font-family="Helvetica,sans-Serif" font-size="10.00">CChainState::FlushStateToDisk</text>
</a>
</g>
</g>
<!-- Node2&#45;&gt;Node28 -->
<g id="edge22" class="edge">
<title>Node2&#45;&gt;Node28</title>
<path fill="none" stroke="midnightblue" d="M1827,-236C1811.81,-236 1794.87,-236 1778.34,-236"/>
<polygon fill="midnightblue" stroke="midnightblue" points="1827.21,-239.5 1837.21,-236 1827.21,-232.5 1827.21,-239.5"/>
</g>
<!-- Node4 -->
<g id="node4" class="node">
<title>Node4</title>
<g id="a_node4"><a xlink:href="blockstorage_8cpp.html#ac821ccc511a43e5404cf9955156fde45" target="_top" xlink:title="Store block on disk.">
<polygon fill="white" stroke="black" points="1447.5,-74.5 1447.5,-93.5 1547.5,-93.5 1547.5,-74.5 1447.5,-74.5"/>
<text text-anchor="middle" x="1497.5" y="-81.5" font-family="Helvetica,sans-Serif" font-size="10.00">SaveBlockToDisk</text>
</a>
</g>
</g>
<!-- Node3&#45;&gt;Node4 -->
<g id="edge3" class="edge">
<title>Node3&#45;&gt;Node4</title>
<path fill="none" stroke="midnightblue" d="M1655.63,-128.14C1632.46,-120.46 1602.15,-110.72 1575,-103 1563.42,-99.71 1550.76,-96.43 1539.13,-93.56"/>
<polygon fill="midnightblue" stroke="midnightblue" points="1654.81,-131.56 1665.41,-131.41 1657.03,-124.92 1654.81,-131.56"/>
</g>
<!-- Node5 -->
<g id="node5" class="node">
<title>Node5</title>
<g id="a_node5"><a xlink:href="class_c_chain_state.html#a0f24bf7c56280b1beba9648b89d72b8c" target="_top" xlink:title="Store block on disk.">
<polygon fill="white" stroke="black" points="1233.5,-149.5 1233.5,-168.5 1376.5,-168.5 1376.5,-149.5 1233.5,-149.5"/>
<text text-anchor="middle" x="1305" y="-156.5" font-family="Helvetica,sans-Serif" font-size="10.00">CChainState::AcceptBlock</text>
</a>
</g>
</g>
<!-- Node4&#45;&gt;Node5 -->
<g id="edge4" class="edge">
<title>Node4&#45;&gt;Node5</title>
<path fill="none" stroke="midnightblue" d="M1437.65,-95.29C1431.52,-97.44 1425.52,-99.99 1420,-103 1400.69,-113.55 1403.14,-126.14 1384,-137 1374.7,-142.27 1364.05,-146.36 1353.66,-149.49"/>
<polygon fill="midnightblue" stroke="midnightblue" points="1438.86,-98.58 1447.34,-92.24 1436.75,-91.91 1438.86,-98.58"/>
</g>
<!-- Node26 -->
<g id="node17" class="node">
<title>Node26</title>
<g id="a_node17"><a xlink:href="class_c_chain_state.html#addf4769b485a084b9678538256081004" target="_top" xlink:title="Ensures we have a genesis block in the block tree, possibly writing one to disk.">
<polygon fill="white" stroke="black" points="1037,-32 1037,-62 1182,-62 1182,-32 1037,-32"/>
<text text-anchor="start" x="1045" y="-50" font-family="Helvetica,sans-Serif" font-size="10.00">CChainState::LoadGenesis</text>
<text text-anchor="middle" x="1109.5" y="-39" font-family="Helvetica,sans-Serif" font-size="10.00">Block</text>
</a>
</g>
</g>
<!-- Node4&#45;&gt;Node26 -->
<g id="edge18" class="edge">
<title>Node4&#45;&gt;Node26</title>
<path fill="none" stroke="midnightblue" d="M1437.01,-78.3C1368.36,-71.72 1255.52,-60.9 1182.12,-53.86"/>
<polygon fill="midnightblue" stroke="midnightblue" points="1436.93,-81.81 1447.22,-79.28 1437.6,-74.84 1436.93,-81.81"/>
</g>
<!-- Node6 -->
<g id="node6" class="node">
<title>Node6</title>
<g id="a_node6"><a xlink:href="class_c_chain_state.html#a7538c8dd8062b475f6e539ad3633d675" target="_top" xlink:title="Resize the CoinsViews caches dynamically and flush state to disk.">
<polygon fill="white" stroke="black" points="842.5,-143 842.5,-173 988.5,-173 988.5,-143 842.5,-143"/>
<text text-anchor="start" x="850.5" y="-161" font-family="Helvetica,sans-Serif" font-size="10.00">CChainState::LoadExternal</text>
<text text-anchor="middle" x="915.5" y="-150" font-family="Helvetica,sans-Serif" font-size="10.00">BlockFile</text>
</a>
</g>
</g>
<!-- Node5&#45;&gt;Node6 -->
<g id="edge5" class="edge">
<title>Node5&#45;&gt;Node6</title>
<path fill="none" stroke="midnightblue" d="M1222.96,-158.79C1153.75,-158.61 1055.12,-158.36 988.61,-158.19"/>
<polygon fill="midnightblue" stroke="midnightblue" points="1223.37,-162.29 1233.38,-158.82 1223.39,-155.29 1223.37,-162.29"/>
</g>
<!-- Node11 -->
<g id="node10" class="node">
<title>Node11</title>
<g id="a_node10"><a xlink:href="class_chainstate_manager.html#a3d980d7ab403c2cd1bcd45f50ac71c38" target="_top" xlink:title="Process an incoming block.">
<polygon fill="white" stroke="black" points="1050.5,-478 1050.5,-508 1168.5,-508 1168.5,-478 1050.5,-478"/>
<text text-anchor="start" x="1058.5" y="-496" font-family="Helvetica,sans-Serif" font-size="10.00">ChainstateManager::</text>
<text text-anchor="middle" x="1109.5" y="-485" font-family="Helvetica,sans-Serif" font-size="10.00">ProcessNewBlock</text>
</a>
</g>
</g>
<!-- Node5&#45;&gt;Node11 -->
<g id="edge9" class="edge">
<title>Node5&#45;&gt;Node11</title>
<path fill="none" stroke="midnightblue" d="M1275.23,-173.58C1258.38,-183.57 1238.1,-198.38 1226,-217 1186.28,-278.11 1219.13,-310.18 1190,-377 1172.73,-416.61 1141.34,-456.9 1123.61,-478"/>
<polygon fill="midnightblue" stroke="midnightblue" points="1277.18,-176.5 1284.16,-168.53 1273.73,-170.41 1277.18,-176.5"/>
</g>
<!-- Node7 -->
<g id="node7" class="node">
<title>Node7</title>
<g id="a_node7"><a xlink:href="blockstorage_8cpp.html#a38dabbdabba054942a90bc2df6f05411" target="_top" xlink:title=" ">
<polygon fill="white" stroke="black" points="670.5,-47.5 670.5,-66.5 753.5,-66.5 753.5,-47.5 670.5,-47.5"/>
<text text-anchor="middle" x="712" y="-54.5" font-family="Helvetica,sans-Serif" font-size="10.00">ThreadImport</text>
</a>
</g>
</g>
<!-- Node6&#45;&gt;Node7 -->
<g id="edge6" class="edge">
<title>Node6&#45;&gt;Node7</title>
<path fill="none" stroke="midnightblue" d="M875.27,-138.34C832.22,-116.76 764.87,-83 732.14,-66.59"/>
<polygon fill="midnightblue" stroke="midnightblue" points="873.83,-141.53 884.33,-142.88 876.96,-135.27 873.83,-141.53"/>
</g>
<!-- Node8 -->
<g id="node8" class="node">
<title>Node8</title>
<g id="a_node8"><a xlink:href="init_8cpp.html#ad2bfca84e560eb87fbfbe9c20f893374" target="_top" xlink:title="Bitcoin core main initialization.">
<polygon fill="white" stroke="black" points="87,-47.5 87,-66.5 162,-66.5 162,-47.5 87,-47.5"/>
<text text-anchor="middle" x="124.5" y="-54.5" font-family="Helvetica,sans-Serif" font-size="10.00">AppInitMain</text>
</a>
</g>
</g>
<!-- Node7&#45;&gt;Node8 -->
<g id="edge7" class="edge">
<title>Node7&#45;&gt;Node8</title>
<path fill="none" stroke="midnightblue" d="M660.27,-57C544.47,-57 262.92,-57 162.14,-57"/>
<polygon fill="midnightblue" stroke="midnightblue" points="660.29,-60.5 670.29,-57 660.29,-53.5 660.29,-60.5"/>
</g>
<!-- Node9 -->
<g id="node9" class="node">
<title>Node9</title>
<g id="a_node9"><a xlink:href="bitcoind_8cpp.html#a111f3c7b82a1c083ce04328e970f5aca" target="_top" xlink:title=" ">
<polygon fill="white" stroke="red" points="0,-47.5 0,-66.5 51,-66.5 51,-47.5 0,-47.5"/>
<text text-anchor="middle" x="25.5" y="-54.5" font-family="Helvetica,sans-Serif" font-size="10.00">AppInit</text>
</a>
</g>
</g>
<!-- Node8&#45;&gt;Node9 -->
<g id="edge8" class="edge">
<title>Node8&#45;&gt;Node9</title>
<path fill="none" stroke="midnightblue" d="M76.61,-57C67.82,-57 58.95,-57 51.18,-57"/>
<polygon fill="midnightblue" stroke="midnightblue" points="76.83,-60.5 86.83,-57 76.83,-53.5 76.83,-60.5"/>
</g>
<!-- Node12 -->
<g id="node11" class="node">
<title>Node12</title>
<g id="a_node11"><a xlink:href="rpc_2mining_8cpp.html#a93c467d89a7d7bf033dfcfda11446382" target="_top" xlink:title=" ">
<polygon fill="white" stroke="black" points="871,-515.5 871,-534.5 960,-534.5 960,-515.5 871,-515.5"/>
<text text-anchor="middle" x="915.5" y="-522.5" font-family="Helvetica,sans-Serif" font-size="10.00">GenerateBlock</text>
</a>
</g>
</g>
<!-- Node11&#45;&gt;Node12 -->
<g id="edge10" class="edge">
<title>Node11&#45;&gt;Node12</title>
<path fill="none" stroke="midnightblue" d="M1040.32,-504.36C1013.62,-508.81 983.79,-513.79 960.09,-517.73"/>
<polygon fill="midnightblue" stroke="midnightblue" points="1041.08,-507.78 1050.37,-502.69 1039.93,-500.88 1041.08,-507.78"/>
</g>
<!-- Node25 -->
<g id="node16" class="node">
<title>Node25</title>
<g id="a_node16"><a xlink:href="rpc_2mining_8cpp.html#a5195db6e4464b7653c398ff7a362b21e" target="_top" xlink:title=" ">
<polygon fill="white" stroke="black" points="877,-477.5 877,-496.5 954,-496.5 954,-477.5 877,-477.5"/>
<text text-anchor="middle" x="915.5" y="-484.5" font-family="Helvetica,sans-Serif" font-size="10.00">submitblock</text>
</a>
</g>
</g>
<!-- Node11&#45;&gt;Node25 -->
<g id="edge16" class="edge">
<title>Node11&#45;&gt;Node25</title>
<path fill="none" stroke="midnightblue" d="M1040.3,-490.87C1011.32,-489.96 978.64,-488.94 954.14,-488.18"/>
<polygon fill="midnightblue" stroke="midnightblue" points="1040.27,-494.37 1050.37,-491.18 1040.49,-487.37 1040.27,-494.37"/>
</g>
<!-- Node13 -->
<g id="node12" class="node">
<title>Node13</title>
<g id="a_node12"><a xlink:href="rpc_2mining_8cpp.html#a1e316c650d49e89b9b1255855ac1a283" target="_top" xlink:title=" ">
<polygon fill="white" stroke="black" points="669,-553.5 669,-572.5 755,-572.5 755,-553.5 669,-553.5"/>
<text text-anchor="middle" x="712" y="-560.5" font-family="Helvetica,sans-Serif" font-size="10.00">generateblock</text>
</a>
</g>
</g>
<!-- Node12&#45;&gt;Node13 -->
<g id="edge11" class="edge">
<title>Node12&#45;&gt;Node13</title>
<path fill="none" stroke="midnightblue" d="M860.82,-535.12C827.75,-541.36 785.96,-549.24 755.26,-555.03"/>
<polygon fill="midnightblue" stroke="midnightblue" points="861.6,-538.54 870.78,-533.25 860.3,-531.66 861.6,-538.54"/>
</g>
<!-- Node17 -->
<g id="node15" class="node">
<title>Node17</title>
<g id="a_node15"><a xlink:href="rpc_2mining_8cpp.html#a1abef53fce68bce9f5535aa0dce8519f" target="_top" xlink:title=" ">
<polygon fill="white" stroke="red" points="666,-515.5 666,-534.5 758,-534.5 758,-515.5 666,-515.5"/>
<text text-anchor="middle" x="712" y="-522.5" font-family="Helvetica,sans-Serif" font-size="10.00">generateBlocks</text>
</a>
</g>
</g>
<!-- Node12&#45;&gt;Node17 -->
<g id="edge15" class="edge">
<title>Node12&#45;&gt;Node17</title>
<path fill="none" stroke="midnightblue" d="M860.68,-525C828.62,-525 788.4,-525 758.03,-525"/>
<polygon fill="midnightblue" stroke="midnightblue" points="860.78,-528.5 870.78,-525 860.78,-521.5 860.78,-528.5"/>
</g>
<!-- Node14 -->
<g id="node13" class="node">
<title>Node14</title>
<g id="a_node13"><a xlink:href="rpc_2mining_8cpp.html#aeba9d490bedb150373a4c30b49f5cc00" target="_top" xlink:title="Register mining RPC commands.">
<polygon fill="white" stroke="black" points="411,-515.5 411,-534.5 576,-534.5 576,-515.5 411,-515.5"/>
<text text-anchor="middle" x="493.5" y="-522.5" font-family="Helvetica,sans-Serif" font-size="10.00">RegisterMiningRPCCommands</text>
</a>
</g>
</g>
<!-- Node13&#45;&gt;Node14 -->
<g id="edge12" class="edge">
<title>Node13&#45;&gt;Node14</title>
<path fill="none" stroke="midnightblue" d="M658.99,-553.87C625.66,-548.02 582.47,-540.44 548.71,-534.51"/>
<polygon fill="midnightblue" stroke="midnightblue" points="658.55,-557.35 669,-555.63 659.76,-550.45 658.55,-557.35"/>
</g>
<!-- Node15 -->
<g id="node14" class="node">
<title>Node15</title>
<g id="a_node14"><a xlink:href="register_8h.html#ac918c8838bc97cf6c3c18ddc8330354e" target="_top" xlink:title=" ">
<polygon fill="white" stroke="red" points="198,-268.5 198,-287.5 365,-287.5 365,-268.5 198,-268.5"/>
<text text-anchor="middle" x="281.5" y="-275.5" font-family="Helvetica,sans-Serif" font-size="10.00">RegisterAllCoreRPCCommands</text>
</a>
</g>
</g>
<!-- Node14&#45;&gt;Node15 -->
<g id="edge13" class="edge">
<title>Node14&#45;&gt;Node15</title>
<path fill="none" stroke="midnightblue" d="M475.25,-508.17C456.42,-489.57 425.68,-458.46 401,-430 356.06,-378.18 307.11,-311.88 289.38,-287.52"/>
<polygon fill="midnightblue" stroke="midnightblue" points="472.95,-510.82 482.53,-515.34 477.86,-505.83 472.95,-510.82"/>
</g>
<!-- Node15&#45;&gt;Node8 -->
<g id="edge14" class="edge">
<title>Node15&#45;&gt;Node8</title>
<path fill="none" stroke="midnightblue" d="M267.71,-259.77C236.29,-214.96 156.11,-100.65 132.28,-66.67"/>
<polygon fill="midnightblue" stroke="midnightblue" points="265.03,-262.04 273.64,-268.22 270.76,-258.02 265.03,-262.04"/>
</g>
<!-- Node25&#45;&gt;Node14 -->
<g id="edge17" class="edge">
<title>Node25&#45;&gt;Node14</title>
<path fill="none" stroke="midnightblue" d="M866.21,-488.91C808.13,-491.48 707.74,-496.84 622,-506 598.86,-508.47 573.47,-512.07 551.49,-515.47"/>
<polygon fill="midnightblue" stroke="midnightblue" points="866.71,-492.39 876.55,-488.46 866.41,-485.39 866.71,-492.39"/>
</g>
<!-- Node26&#45;&gt;Node7 -->
<g id="edge21" class="edge">
<title>Node26&#45;&gt;Node7</title>
<path fill="none" stroke="midnightblue" d="M1026.68,-49.07C943.36,-51.18 817.59,-54.36 753.56,-55.97"/>
<polygon fill="midnightblue" stroke="midnightblue" points="1026.97,-52.56 1036.88,-48.81 1026.79,-45.56 1026.97,-52.56"/>
</g>
<!-- Node26&#45;&gt;Node8 -->
<g id="edge19" class="edge">
<title>Node26&#45;&gt;Node8</title>
<path fill="none" stroke="midnightblue" d="M1027.02,-31.61C947.29,-17.9 822.25,0 713,0 713,0 713,0 492.5,0 370.31,0 227.92,-31.23 162.19,-47.46"/>
<polygon fill="midnightblue" stroke="midnightblue" points="1026.54,-35.08 1036.99,-33.34 1027.74,-28.18 1026.54,-35.08"/>
</g>
<!-- Node27 -->
<g id="node18" class="node">
<title>Node27</title>
<g id="a_node18"><a xlink:href="validation__chainstatemanager__tests_8cpp.html#a7b48fa2352b1ffcfba78744a50bac701" target="_top" xlink:title="Basic tests for ChainstateManager.">
<polygon fill="white" stroke="black" points="844,-66.5 844,-85.5 987,-85.5 987,-66.5 844,-66.5"/>
<text text-anchor="middle" x="915.5" y="-73.5" font-family="Helvetica,sans-Serif" font-size="10.00">BOOST_AUTO_TEST_CASE</text>
</a>
</g>
</g>
<!-- Node26&#45;&gt;Node27 -->
<g id="edge20" class="edge">
<title>Node26&#45;&gt;Node27</title>
<path fill="none" stroke="midnightblue" d="M1026.52,-59.38C1010.83,-61.75 994.64,-64.2 979.66,-66.46"/>
<polygon fill="midnightblue" stroke="midnightblue" points="1027.37,-62.79 1036.73,-57.84 1026.32,-55.87 1027.37,-62.79"/>
</g>
<!-- Node28&#45;&gt;Node5 -->
<g id="edge23" class="edge">
<title>Node28&#45;&gt;Node5</title>
<path fill="none" stroke="midnightblue" d="M1667.52,-221.68C1644.07,-209.48 1608.26,-192.6 1575,-184 1509.16,-166.97 1431.6,-161.21 1376.73,-159.42"/>
<polygon fill="midnightblue" stroke="midnightblue" points="1665.99,-224.83 1676.46,-226.43 1669.27,-218.65 1665.99,-224.83"/>
</g>
<!-- Node29 -->
<g id="node20" class="node">
<title>Node29</title>
<g id="a_node20"><a xlink:href="class_c_chain_state.html#a1d10196aeadf2e5c76b94123635b7c7b" target="_top" xlink:title="Find the best known block, and make it the tip of the block chain.">
<polygon fill="white" stroke="black" points="1037,-187 1037,-217 1182,-217 1182,-187 1037,-187"/>
<text text-anchor="start" x="1045" y="-205" font-family="Helvetica,sans-Serif" font-size="10.00">CChainState::ActivateBest</text>
<text text-anchor="middle" x="1109.5" y="-194" font-family="Helvetica,sans-Serif" font-size="10.00">Chain</text>
</a>
</g>
</g>
<!-- Node28&#45;&gt;Node29 -->
<g id="edge24" class="edge">
<title>Node28&#45;&gt;Node29</title>
<path fill="none" stroke="midnightblue" d="M1633.13,-224.81C1614.55,-221.77 1593.99,-218.82 1575,-217 1436.46,-203.71 1273.72,-201.52 1182.3,-201.5"/>
<polygon fill="midnightblue" stroke="midnightblue" points="1632.79,-228.3 1643.23,-226.5 1633.94,-221.39 1632.79,-228.3"/>
</g>
<!-- Node35 -->
<g id="node26" class="node">
<title>Node35</title>
<g id="a_node26"><a xlink:href="class_c_chain_state.html#a3ff41dbb22a3f8ac8b3e2cceff4294b9" target="_top" xlink:title="Connect a new block to m_chain.">
<polygon fill="white" stroke="black" points="1429,-302.5 1429,-321.5 1566,-321.5 1566,-302.5 1429,-302.5"/>
<text text-anchor="middle" x="1497.5" y="-309.5" font-family="Helvetica,sans-Serif" font-size="10.00">CChainState::ConnectTip</text>
</a>
</g>
</g>
<!-- Node28&#45;&gt;Node35 -->
<g id="edge35" class="edge">
<title>Node28&#45;&gt;Node35</title>
<path fill="none" stroke="midnightblue" d="M1667.31,-250.52C1643.74,-263.13 1607.84,-281.16 1575,-293 1564.96,-296.62 1553.93,-299.8 1543.46,-302.47"/>
<polygon fill="midnightblue" stroke="midnightblue" points="1669.19,-253.49 1676.32,-245.65 1665.86,-247.33 1669.19,-253.49"/>
</g>
<!-- Node37 -->
<g id="node28" class="node">
<title>Node37</title>
<g id="a_node28"><a xlink:href="class_c_chain_state.html#ad6c5b7e28f8a714fd2403971005a2978" target="_top" xlink:title="Disconnect m_chain&#39;s tip.">
<polygon fill="white" stroke="black" points="1421.5,-264.5 1421.5,-283.5 1573.5,-283.5 1573.5,-264.5 1421.5,-264.5"/>
<text text-anchor="middle" x="1497.5" y="-271.5" font-family="Helvetica,sans-Serif" font-size="10.00">CChainState::DisconnectTip</text>
</a>
</g>
</g>
<!-- Node28&#45;&gt;Node37 -->
<g id="edge38" class="edge">
<title>Node28&#45;&gt;Node37</title>
<path fill="none" stroke="midnightblue" d="M1634.54,-247.49C1606.72,-252.91 1573.9,-259.31 1547.48,-264.46"/>
<polygon fill="midnightblue" stroke="midnightblue" points="1635.4,-250.89 1644.54,-245.54 1634.06,-244.02 1635.4,-250.89"/>
</g>
<!-- Node39 -->
<g id="node30" class="node">
<title>Node39</title>
<g id="a_node30"><a xlink:href="class_c_chain_state.html#ae779736948817631aa6fee5d5d1377a8" target="_top" xlink:title="Unconditionally flush all changes to disk.">
<polygon fill="white" stroke="black" points="1029,-338 1029,-368 1190,-368 1190,-338 1029,-338"/>
<text text-anchor="start" x="1037" y="-356" font-family="Helvetica,sans-Serif" font-size="10.00">CChainState::ForceFlushState</text>
<text text-anchor="middle" x="1109.5" y="-345" font-family="Helvetica,sans-Serif" font-size="10.00">ToDisk</text>
</a>
</g>
</g>
<!-- Node28&#45;&gt;Node39 -->
<g id="edge42" class="edge">
<title>Node28&#45;&gt;Node39</title>
<path fill="none" stroke="midnightblue" d="M1678.85,-253.09C1658.29,-275.69 1618.49,-314.55 1575,-331 1447.19,-379.33 1285.35,-373.37 1190.34,-363.78"/>
<polygon fill="midnightblue" stroke="midnightblue" points="1681.51,-255.38 1685.53,-245.58 1676.27,-250.73 1681.51,-255.38"/>
</g>
<!-- Node46 -->
<g id="node37" class="node">
<title>Node46</title>
<g id="a_node37"><a xlink:href="class_c_chain_state.html#a62c8d4028eff1c760111280f977ad0c7" target="_top" xlink:title="Prune blockfiles from the disk if necessary and then flush chainstate changes if we pruned.">
<polygon fill="white" stroke="black" points="1420,-226.5 1420,-245.5 1575,-245.5 1575,-226.5 1420,-226.5"/>
<text text-anchor="middle" x="1497.5" y="-233.5" font-family="Helvetica,sans-Serif" font-size="10.00">CChainState::PruneAndFlush</text>
</a>
</g>
</g>
<!-- Node28&#45;&gt;Node46 -->
<g id="edge52" class="edge">
<title>Node28&#45;&gt;Node46</title>
<path fill="none" stroke="midnightblue" d="M1600.76,-236C1592.18,-236 1583.54,-236 1575.13,-236"/>
<polygon fill="midnightblue" stroke="midnightblue" points="1600.8,-239.5 1610.8,-236 1600.8,-232.5 1600.8,-239.5"/>
</g>
<!-- Node47 -->
<g id="node38" class="node">
<title>Node47</title>
<g id="a_node38"><a xlink:href="validation_8cpp.html#a475053a9fbe5020350d7d477dc73aed8" target="_top" xlink:title="Prune block files up to a given height.">
<polygon fill="white" stroke="black" points="1432.5,-112.5 1432.5,-131.5 1562.5,-131.5 1562.5,-112.5 1432.5,-112.5"/>
<text text-anchor="middle" x="1497.5" y="-119.5" font-family="Helvetica,sans-Serif" font-size="10.00">PruneBlockFilesManual</text>
</a>
</g>
</g>
<!-- Node28&#45;&gt;Node47 -->
<g id="edge53" class="edge">
<title>Node28&#45;&gt;Node47</title>
<path fill="none" stroke="midnightblue" d="M1676.02,-219.58C1654,-199.67 1614.28,-166.29 1575,-146 1563.5,-140.06 1550.26,-135.27 1538.06,-131.57"/>
<polygon fill="midnightblue" stroke="midnightblue" points="1673.82,-222.31 1683.55,-226.49 1678.55,-217.15 1673.82,-222.31"/>
</g>
<!-- Node29&#45;&gt;Node6 -->
<g id="edge29" class="edge">
<title>Node29&#45;&gt;Node6</title>
<path fill="none" stroke="midnightblue" d="M1033.15,-184.73C1016.27,-180.86 998.51,-176.79 982.07,-173.03"/>
<polygon fill="midnightblue" stroke="midnightblue" points="1032.43,-188.16 1042.96,-186.98 1034,-181.34 1032.43,-188.16"/>
</g>
<!-- Node29&#45;&gt;Node27 -->
<g id="edge25" class="edge">
<title>Node29&#45;&gt;Node27</title>
<path fill="none" stroke="midnightblue" d="M1076.83,-181.22C1034.67,-153.55 961.83,-105.75 930.98,-85.5"/>
<polygon fill="midnightblue" stroke="midnightblue" points="1075.06,-184.24 1085.34,-186.8 1078.9,-178.39 1075.06,-184.24"/>
</g>
<!-- Node30 -->
<g id="node21" class="node">
<title>Node30</title>
<g id="a_node21"><a xlink:href="blockchain_8cpp.html#a13f2c255a092ffba8c2d792b04c02f5a" target="_top" xlink:title=" ">
<polygon fill="white" stroke="black" points="869.5,-268.5 869.5,-287.5 961.5,-287.5 961.5,-268.5 869.5,-268.5"/>
<text text-anchor="middle" x="915.5" y="-275.5" font-family="Helvetica,sans-Serif" font-size="10.00">invalidateblock</text>
</a>
</g>
</g>
<!-- Node29&#45;&gt;Node30 -->
<g id="edge26" class="edge">
<title>Node29&#45;&gt;Node30</title>
<path fill="none" stroke="midnightblue" d="M1073.33,-221.83C1050.88,-233.85 1020.87,-248.8 993,-259 983.1,-262.62 972.24,-265.78 961.89,-268.44"/>
<polygon fill="midnightblue" stroke="midnightblue" points="1075.03,-224.89 1082.15,-217.04 1071.69,-218.73 1075.03,-224.89"/>
</g>
<!-- Node32 -->
<g id="node23" class="node">
<title>Node32</title>
<g id="a_node23"><a xlink:href="class_c_chain_state.html#ada2d0841e92d6530763f443542a7aacc" target="_top" xlink:title="Mark a block as precious and reorganize.">
<polygon fill="white" stroke="black" points="840,-230.5 840,-249.5 991,-249.5 991,-230.5 840,-230.5"/>
<text text-anchor="middle" x="915.5" y="-237.5" font-family="Helvetica,sans-Serif" font-size="10.00">CChainState::PreciousBlock</text>
</a>
</g>
</g>
<!-- Node29&#45;&gt;Node32 -->
<g id="edge30" class="edge">
<title>Node29&#45;&gt;Node32</title>
<path fill="none" stroke="midnightblue" d="M1026.75,-218.18C1005.57,-222.37 983.43,-226.75 964.6,-230.48"/>
<polygon fill="midnightblue" stroke="midnightblue" points="1027.6,-221.58 1036.73,-216.2 1026.24,-214.71 1027.6,-221.58"/>
</g>
<!-- Node34 -->
<g id="node25" class="node">
<title>Node34</title>
<g id="a_node25"><a xlink:href="blockchain_8cpp.html#a0a9035e48950cb1d0d5c6284496c7543" target="_top" xlink:title=" ">
<polygon fill="white" stroke="black" points="868.5,-192.5 868.5,-211.5 962.5,-211.5 962.5,-192.5 868.5,-192.5"/>
<text text-anchor="middle" x="915.5" y="-199.5" font-family="Helvetica,sans-Serif" font-size="10.00">reconsiderblock</text>
</a>
</g>
</g>
<!-- Node29&#45;&gt;Node34 -->
<g id="edge33" class="edge">
<title>Node29&#45;&gt;Node34</title>
<path fill="none" stroke="midnightblue" d="M1026.44,-202C1004.59,-202 981.75,-202 962.59,-202"/>
<polygon fill="midnightblue" stroke="midnightblue" points="1026.73,-205.5 1036.73,-202 1026.73,-198.5 1026.73,-205.5"/>
</g>
<!-- Node31 -->
<g id="node22" class="node">
<title>Node31</title>
<g id="a_node22"><a xlink:href="blockchain_8cpp.html#ab84c6cdc3bc7186443e3c33633aee492" target="_top" xlink:title="Register block chain RPC commands.">
<polygon fill="white" stroke="black" points="401,-268.5 401,-287.5 586,-287.5 586,-268.5 401,-268.5"/>
<text text-anchor="middle" x="493.5" y="-275.5" font-family="Helvetica,sans-Serif" font-size="10.00">RegisterBlockchainRPCCommands</text>
</a>
</g>
</g>
<!-- Node30&#45;&gt;Node31 -->
<g id="edge27" class="edge">
<title>Node30&#45;&gt;Node31</title>
<path fill="none" stroke="midnightblue" d="M858.85,-278C789.28,-278 669.24,-278 586.05,-278"/>
<polygon fill="midnightblue" stroke="midnightblue" points="859.15,-281.5 869.15,-278 859.15,-274.5 859.15,-281.5"/>
</g>
<!-- Node31&#45;&gt;Node15 -->
<g id="edge28" class="edge">
<title>Node31&#45;&gt;Node15</title>
<path fill="none" stroke="midnightblue" d="M390.69,-278C382.15,-278 373.57,-278 365.2,-278"/>
<polygon fill="midnightblue" stroke="midnightblue" points="390.7,-281.5 400.7,-278 390.7,-274.5 390.7,-281.5"/>
</g>
<!-- Node33 -->
<g id="node24" class="node">
<title>Node33</title>
<g id="a_node24"><a xlink:href="blockchain_8cpp.html#a5bebedecb04e4ce31e0bb9dacde18ecd" target="_top" xlink:title=" ">
<polygon fill="white" stroke="black" points="670,-211.5 670,-230.5 754,-230.5 754,-211.5 670,-211.5"/>
<text text-anchor="middle" x="712" y="-218.5" font-family="Helvetica,sans-Serif" font-size="10.00">preciousblock</text>
</a>
</g>
</g>
<!-- Node32&#45;&gt;Node33 -->
<g id="edge31" class="edge">
<title>Node32&#45;&gt;Node33</title>
<path fill="none" stroke="midnightblue" d="M829.79,-232.01C803.57,-229.54 775.86,-226.93 754.01,-224.87"/>
<polygon fill="midnightblue" stroke="midnightblue" points="829.47,-235.5 839.76,-232.95 830.13,-228.53 829.47,-235.5"/>
</g>
<!-- Node33&#45;&gt;Node31 -->
<g id="edge32" class="edge">
<title>Node33&#45;&gt;Node31</title>
<path fill="none" stroke="midnightblue" d="M664.98,-233.12C624.95,-243.65 567.74,-258.72 530.86,-268.43"/>
<polygon fill="midnightblue" stroke="midnightblue" points="665.98,-236.47 674.76,-230.54 664.2,-229.7 665.98,-236.47"/>
</g>
<!-- Node34&#45;&gt;Node31 -->
<g id="edge34" class="edge">
<title>Node34&#45;&gt;Node31</title>
<path fill="none" stroke="midnightblue" d="M858.41,-193.31C798.64,-186.04 701.83,-180.01 622,-202 574.55,-215.07 526.93,-250.94 505.81,-268.32"/>
<polygon fill="midnightblue" stroke="midnightblue" points="858.04,-196.79 868.4,-194.58 858.92,-189.84 858.04,-196.79"/>
</g>
<!-- Node36 -->
<g id="node27" class="node">
<title>Node36</title>
<g id="a_node27"><a xlink:href="class_c_chain_state.html#aedc49ebe3f9474e9764a630eb8477f6e" target="_top" xlink:title="Dictates whether we need to flush the cache to disk or not.">
<polygon fill="white" stroke="black" points="1232.5,-227 1232.5,-257 1377.5,-257 1377.5,-227 1232.5,-227"/>
<text text-anchor="start" x="1240.5" y="-245" font-family="Helvetica,sans-Serif" font-size="10.00">CChainState::ActivateBest</text>
<text text-anchor="middle" x="1305" y="-234" font-family="Helvetica,sans-Serif" font-size="10.00">ChainStep</text>
</a>
</g>
</g>
<!-- Node35&#45;&gt;Node36 -->
<g id="edge36" class="edge">
<title>Node35&#45;&gt;Node36</title>
<path fill="none" stroke="midnightblue" d="M1436.55,-299.48C1430.85,-297.58 1425.25,-295.44 1420,-293 1402.1,-284.69 1401.62,-275.9 1384,-267 1376.64,-263.28 1368.61,-259.96 1360.59,-257.06"/>
<polygon fill="midnightblue" stroke="midnightblue" points="1435.58,-302.84 1446.17,-302.42 1437.63,-296.15 1435.58,-302.84"/>
</g>
<!-- Node36&#45;&gt;Node29 -->
<g id="edge37" class="edge">
<title>Node36&#45;&gt;Node29</title>
<path fill="none" stroke="midnightblue" d="M1222.35,-225.12C1208.95,-222.35 1195.16,-219.5 1182.03,-216.79"/>
<polygon fill="midnightblue" stroke="midnightblue" points="1222,-228.62 1232.5,-227.22 1223.41,-221.77 1222,-228.62"/>
</g>
<!-- Node37&#45;&gt;Node36 -->
<g id="edge39" class="edge">
<title>Node37&#45;&gt;Node36</title>
<path fill="none" stroke="midnightblue" d="M1429.58,-262.76C1412.78,-259.94 1394.68,-256.9 1377.65,-254.04"/>
<polygon fill="midnightblue" stroke="midnightblue" points="1429.42,-266.28 1439.86,-264.49 1430.58,-259.38 1429.42,-266.28"/>
</g>
<!-- Node38 -->
<g id="node29" class="node">
<title>Node38</title>
<g id="a_node29"><a xlink:href="class_c_chain_state.html#ae8ab9222f3ad9a6aab8dba5ffa5eb530" target="_top" xlink:title="Mark a block as invalid.">
<polygon fill="white" stroke="black" points="1226,-276.5 1226,-295.5 1384,-295.5 1384,-276.5 1226,-276.5"/>
<text text-anchor="middle" x="1305" y="-283.5" font-family="Helvetica,sans-Serif" font-size="10.00">CChainState::InvalidateBlock</text>
</a>
</g>
</g>
<!-- Node37&#45;&gt;Node38 -->
<g id="edge40" class="edge">
<title>Node37&#45;&gt;Node38</title>
<path fill="none" stroke="midnightblue" d="M1411.32,-279.37C1402.25,-279.94 1393.06,-280.52 1384.08,-281.08"/>
<polygon fill="midnightblue" stroke="midnightblue" points="1411.72,-282.85 1421.48,-278.73 1411.28,-275.86 1411.72,-282.85"/>
</g>
<!-- Node38&#45;&gt;Node30 -->
<g id="edge41" class="edge">
<title>Node38&#45;&gt;Node30</title>
<path fill="none" stroke="midnightblue" d="M1215.13,-284.17C1135.98,-282.53 1023.4,-280.21 961.54,-278.93"/>
<polygon fill="midnightblue" stroke="midnightblue" points="1215.51,-287.67 1225.58,-284.38 1215.66,-280.68 1215.51,-287.67"/>
</g>
<!-- Node40 -->
<g id="node31" class="node">
<title>Node40</title>
<g id="a_node31"><a xlink:href="blockchain_8cpp.html#adee7e039211bbfd010af2874973f49d0" target="_top" xlink:title="Helper to create UTXO snapshots given a chainstate and a file handle.">
<polygon fill="white" stroke="black" points="855,-382.5 855,-401.5 976,-401.5 976,-382.5 855,-382.5"/>
<text text-anchor="middle" x="915.5" y="-389.5" font-family="Helvetica,sans-Serif" font-size="10.00">CreateUTXOSnapshot</text>
</a>
</g>
</g>
<!-- Node39&#45;&gt;Node40 -->
<g id="edge43" class="edge">
<title>Node39&#45;&gt;Node40</title>
<path fill="none" stroke="midnightblue" d="M1024.66,-370.03C1003.7,-374.29 981.95,-378.71 963.5,-382.45"/>
<polygon fill="midnightblue" stroke="midnightblue" points="1025.44,-373.44 1034.54,-368.02 1024.05,-366.58 1025.44,-373.44"/>
</g>
<!-- Node44 -->
<g id="node35" class="node">
<title>Node44</title>
<g id="a_node35"><a xlink:href="blockchain_8cpp.html#a2fdd1be76ca13ccdeef6d109942bab90" target="_top" xlink:title=" ">
<polygon fill="white" stroke="black" points="870,-344.5 870,-363.5 961,-363.5 961,-344.5 870,-344.5"/>
<text text-anchor="middle" x="915.5" y="-351.5" font-family="Helvetica,sans-Serif" font-size="10.00">gettxoutsetinfo</text>
</a>
</g>
</g>
<!-- Node39&#45;&gt;Node44 -->
<g id="edge48" class="edge">
<title>Node39&#45;&gt;Node44</title>
<path fill="none" stroke="midnightblue" d="M1018.67,-353.47C998.71,-353.57 978.39,-353.68 961.18,-353.77"/>
<polygon fill="midnightblue" stroke="midnightblue" points="1018.76,-356.97 1028.74,-353.42 1018.72,-349.97 1018.76,-356.97"/>
</g>
<!-- Node45 -->
<g id="node36" class="node">
<title>Node45</title>
<g id="a_node36"><a xlink:href="blockchain_8cpp.html#a6ad6986606a4c5a600b1d386c2371edd" target="_top" xlink:title=" ">
<polygon fill="white" stroke="black" points="876,-306.5 876,-325.5 955,-325.5 955,-306.5 876,-306.5"/>
<text text-anchor="middle" x="915.5" y="-313.5" font-family="Helvetica,sans-Serif" font-size="10.00">scantxoutset</text>
</a>
</g>
</g>
<!-- Node39&#45;&gt;Node45 -->
<g id="edge50" class="edge">
<title>Node39&#45;&gt;Node45</title>
<path fill="none" stroke="midnightblue" d="M1020.3,-336C997.39,-331.59 973.9,-327.06 955.07,-323.43"/>
<polygon fill="midnightblue" stroke="midnightblue" points="1019.92,-339.5 1030.41,-337.95 1021.25,-332.62 1019.92,-339.5"/>
</g>
<!-- Node41 -->
<g id="node32" class="node">
<title>Node41</title>
<g id="a_node32"><a xlink:href="chainstate_8h.html#a871bc3f7aa3d611ad0d6a0920970767d" target="_top" xlink:title="Create and activate a UTXO snapshot, optionally providing a function to malleate the snapshot.">
<polygon fill="white" stroke="black" points="622,-401.5 622,-420.5 802,-420.5 802,-401.5 622,-401.5"/>
<text text-anchor="middle" x="712" y="-408.5" font-family="Helvetica,sans-Serif" font-size="10.00">CreateAndActivateUTXOSnapshot</text>
</a>
</g>
</g>
<!-- Node40&#45;&gt;Node41 -->
<g id="edge44" class="edge">
<title>Node40&#45;&gt;Node41</title>
<path fill="none" stroke="midnightblue" d="M844.62,-398.59C830.99,-399.87 816.52,-401.24 802.36,-402.57"/>
<polygon fill="midnightblue" stroke="midnightblue" points="845.23,-402.05 854.86,-397.62 844.58,-395.08 845.23,-402.05"/>
</g>
<!-- Node43 -->
<g id="node34" class="node">
<title>Node43</title>
<g id="a_node34"><a xlink:href="blockchain_8cpp.html#af108940ad6e4bf5c6a14ff3275ad89f2" target="_top" xlink:title="Serialize the UTXO set to a file for loading elsewhere.">
<polygon fill="white" stroke="black" points="670,-363.5 670,-382.5 754,-382.5 754,-363.5 670,-363.5"/>
<text text-anchor="middle" x="712" y="-370.5" font-family="Helvetica,sans-Serif" font-size="10.00">dumptxoutset</text>
</a>
</g>
</g>
<!-- Node40&#45;&gt;Node43 -->
<g id="edge46" class="edge">
<title>Node40&#45;&gt;Node43</title>
<path fill="none" stroke="midnightblue" d="M844.8,-385.43C814.62,-382.58 780.32,-379.35 754.28,-376.89"/>
<polygon fill="midnightblue" stroke="midnightblue" points="844.58,-388.92 854.86,-386.38 845.23,-381.95 844.58,-388.92"/>
</g>
<!-- Node42 -->
<g id="node33" class="node">
<title>Node42</title>
<g id="a_node33"><a xlink:href="validation__chainstate__tests_8cpp.html#aa32cea3aa8182af8d7209ba4ac2768b3" target="_top" xlink:title="Test UpdateTip behavior for both active and background chainstates.">
<polygon fill="white" stroke="black" points="414.5,-401.5 414.5,-420.5 572.5,-420.5 572.5,-401.5 414.5,-401.5"/>
<text text-anchor="middle" x="493.5" y="-408.5" font-family="Helvetica,sans-Serif" font-size="10.00">BOOST_FIXTURE_TEST_CASE</text>
</a>
</g>
</g>
<!-- Node41&#45;&gt;Node42 -->
<g id="edge45" class="edge">
<title>Node41&#45;&gt;Node42</title>
<path fill="none" stroke="midnightblue" d="M611.31,-411C598.3,-411 585.12,-411 572.54,-411"/>
<polygon fill="midnightblue" stroke="midnightblue" points="611.69,-414.5 621.69,-411 611.69,-407.5 611.69,-414.5"/>
</g>
<!-- Node43&#45;&gt;Node31 -->
<g id="edge47" class="edge">
<title>Node43&#45;&gt;Node31</title>
<path fill="none" stroke="midnightblue" d="M660.06,-361.56C647.42,-358.1 634.05,-353.89 622,-349 578.81,-331.46 531.84,-302.45 508.83,-287.53"/>
<polygon fill="midnightblue" stroke="midnightblue" points="659.43,-365.01 669.99,-364.17 661.21,-358.25 659.43,-365.01"/>
</g>
<!-- Node44&#45;&gt;Node31 -->
<g id="edge49" class="edge">
<title>Node44&#45;&gt;Node31</title>
<path fill="none" stroke="midnightblue" d="M859.37,-348.41C800.29,-341.93 703.96,-329.92 622,-313 588.39,-306.06 550.55,-295.29 524.89,-287.53"/>
<polygon fill="midnightblue" stroke="midnightblue" points="859.28,-351.92 869.59,-349.52 860.03,-344.96 859.28,-351.92"/>
</g>
<!-- Node45&#45;&gt;Node31 -->
<g id="edge51" class="edge">
<title>Node45&#45;&gt;Node31</title>
<path fill="none" stroke="midnightblue" d="M865.68,-311.58C797.37,-305.4 672.01,-294.06 586.02,-286.28"/>
<polygon fill="midnightblue" stroke="midnightblue" points="865.47,-315.08 875.74,-312.49 866.1,-308.11 865.47,-315.08"/>
</g>
<!-- Node48 -->
<g id="node39" class="node">
<title>Node48</title>
<g id="a_node39"><a xlink:href="blockchain_8cpp.html#ad4ca9d81b3d11c5a24b94761bd73a900" target="_top" xlink:title=" ">
<polygon fill="white" stroke="black" points="1256.5,-108.5 1256.5,-127.5 1353.5,-127.5 1353.5,-108.5 1256.5,-108.5"/>
<text text-anchor="middle" x="1305" y="-115.5" font-family="Helvetica,sans-Serif" font-size="10.00">pruneblockchain</text>
</a>
</g>
</g>
<!-- Node47&#45;&gt;Node48 -->
<g id="edge54" class="edge">
<title>Node47&#45;&gt;Node48</title>
<path fill="none" stroke="midnightblue" d="M1422.18,-120.44C1399.15,-119.96 1374.41,-119.44 1353.7,-119"/>
<polygon fill="midnightblue" stroke="midnightblue" points="1422.2,-123.94 1432.27,-120.65 1422.35,-116.94 1422.2,-123.94"/>
</g>
<!-- Node48&#45;&gt;Node31 -->
<g id="edge55" class="edge">
<title>Node48&#45;&gt;Node31</title>
<path fill="none" stroke="midnightblue" d="M1245.91,-111.07C1123.88,-99.1 834.6,-84.49 622,-183 573.16,-205.63 524.75,-248.91 504.45,-268.24"/>
<polygon fill="midnightblue" stroke="midnightblue" points="1245.85,-114.58 1256.15,-112.11 1246.56,-107.62 1245.85,-114.58"/>
</g>
<!-- Node50 -->
<g id="node41" class="node">
<title>Node50</title>
<g id="a_node41"><a xlink:href="class_c_chain_state.html#a8961db4f2a9e23128d0d34f4206cc62b" target="_top" xlink:title="Apply the effects of this block (with given index) on the UTXO set represented by coins.">
<polygon fill="white" stroke="black" points="1620,-351.5 1620,-370.5 1769,-370.5 1769,-351.5 1620,-351.5"/>
<text text-anchor="middle" x="1694.5" y="-358.5" font-family="Helvetica,sans-Serif" font-size="10.00">CChainState::ConnectBlock</text>
</a>
</g>
</g>
<!-- Node49&#45;&gt;Node50 -->
<g id="edge57" class="edge">
<title>Node49&#45;&gt;Node50</title>
<path fill="none" stroke="midnightblue" d="M1844.32,-306.15C1808.29,-319.43 1753.49,-339.63 1721.41,-351.45"/>
<polygon fill="midnightblue" stroke="midnightblue" points="1845.78,-309.34 1853.96,-302.6 1843.36,-302.77 1845.78,-309.34"/>
</g>
<!-- Node50&#45;&gt;Node35 -->
<g id="edge58" class="edge">
<title>Node50&#45;&gt;Node35</title>
<path fill="none" stroke="midnightblue" d="M1645.38,-348.91C1611.79,-340.47 1567.58,-329.36 1536.46,-321.54"/>
<polygon fill="midnightblue" stroke="midnightblue" points="1644.89,-352.39 1655.44,-351.44 1646.59,-345.6 1644.89,-352.39"/>
</g>
<!-- Node51 -->
<g id="node42" class="node">
<title>Node51</title>
<g id="a_node42"><a xlink:href="validation_8cpp.html#a982fd5a0fb42d86f7de71a41e098db29" target="_top" xlink:title="Check a block is completely valid from start to finish (only works on top of our current best block)">
<polygon fill="white" stroke="black" points="1059.5,-608.5 1059.5,-627.5 1159.5,-627.5 1159.5,-608.5 1059.5,-608.5"/>
<text text-anchor="middle" x="1109.5" y="-615.5" font-family="Helvetica,sans-Serif" font-size="10.00">TestBlockValidity</text>
</a>
</g>
</g>
<!-- Node50&#45;&gt;Node51 -->
<g id="edge59" class="edge">
<title>Node50&#45;&gt;Node51</title>
<path fill="none" stroke="midnightblue" d="M1669.95,-376.06C1646.42,-390.78 1608.97,-413.34 1575,-430 1413.9,-509 1210.88,-582.74 1138.06,-608.41"/>
<polygon fill="midnightblue" stroke="midnightblue" points="1671.95,-378.94 1678.54,-370.64 1668.22,-373.02 1671.95,-378.94"/>
</g>
<!-- Node64 -->
<g id="node49" class="node">
<title>Node64</title>
<g id="a_node49"><a xlink:href="class_c_verify_d_b.html#ab93ceb35451e748fdfd1b7ab89b17b4f" target="_top" xlink:title=" ">
<polygon fill="white" stroke="black" points="1441,-401.5 1441,-420.5 1554,-420.5 1554,-401.5 1441,-401.5"/>
<text text-anchor="middle" x="1497.5" y="-408.5" font-family="Helvetica,sans-Serif" font-size="10.00">CVerifyDB::VerifyDB</text>
</a>
</g>
</g>
<!-- Node50&#45;&gt;Node64 -->
<g id="edge70" class="edge">
<title>Node50&#45;&gt;Node64</title>
<path fill="none" stroke="midnightblue" d="M1646.66,-373.01C1612.69,-381.72 1567.37,-393.34 1535.83,-401.43"/>
<polygon fill="midnightblue" stroke="midnightblue" points="1647.55,-376.4 1656.36,-370.52 1645.81,-369.62 1647.55,-376.4"/>
</g>
<!-- Node51&#45;&gt;Node13 -->
<g id="edge68" class="edge">
<title>Node51&#45;&gt;Node13</title>
<path fill="none" stroke="midnightblue" d="M1049.19,-609.75C968.39,-598.52 825.71,-578.67 755.06,-568.85"/>
<polygon fill="midnightblue" stroke="midnightblue" points="1048.82,-613.23 1059.21,-611.15 1049.79,-606.3 1048.82,-613.23"/>
</g>
<!-- Node52 -->
<g id="node43" class="node">
<title>Node52</title>
<g id="a_node43"><a xlink:href="class_block_assembler.html#acd45f01ed2556e805c82907def19efcb" target="_top" xlink:title="Construct a new block template with coinbase to scriptPubKeyIn.">
<polygon fill="white" stroke="black" points="838,-636 838,-666 993,-666 993,-636 838,-636"/>
<text text-anchor="start" x="846" y="-654" font-family="Helvetica,sans-Serif" font-size="10.00">BlockAssembler::CreateNew</text>
<text text-anchor="middle" x="915.5" y="-643" font-family="Helvetica,sans-Serif" font-size="10.00">Block</text>
</a>
</g>
</g>
<!-- Node51&#45;&gt;Node52 -->
<g id="edge60" class="edge">
<title>Node51&#45;&gt;Node52</title>
<path fill="none" stroke="midnightblue" d="M1048.95,-628.24C1031.36,-631.26 1011.87,-634.61 993.36,-637.79"/>
<polygon fill="midnightblue" stroke="midnightblue" points="1049.79,-631.64 1059.06,-626.5 1048.61,-624.74 1049.79,-631.64"/>
</g>
<!-- Node63 -->
<g id="node48" class="node">
<title>Node63</title>
<g id="a_node48"><a xlink:href="rpc_2mining_8cpp.html#a55115d559f5dbfb0d7c56692cd2b69e4" target="_top" xlink:title=" ">
<polygon fill="white" stroke="black" points="660.5,-778.5 660.5,-797.5 763.5,-797.5 763.5,-778.5 660.5,-778.5"/>
<text text-anchor="middle" x="712" y="-785.5" font-family="Helvetica,sans-Serif" font-size="10.00">getblocktemplate</text>
</a>
</g>
</g>
<!-- Node51&#45;&gt;Node63 -->
<g id="edge69" class="edge">
<title>Node51&#45;&gt;Node63</title>
<path fill="none" stroke="midnightblue" d="M1084.22,-632.63C1033.54,-662.54 912.09,-731.08 802,-769 789.9,-773.17 776.55,-776.6 763.95,-779.35"/>
<polygon fill="midnightblue" stroke="midnightblue" points="1086.03,-635.62 1092.84,-627.51 1082.45,-629.6 1086.03,-635.62"/>
</g>
<!-- Node52&#45;&gt;Node13 -->
<g id="edge65" class="edge">
<title>Node52&#45;&gt;Node13</title>
<path fill="none" stroke="midnightblue" d="M885.8,-630.07C863.84,-614.97 832.28,-595.18 802,-583 787.16,-577.03 770.18,-572.66 755.05,-569.55"/>
<polygon fill="midnightblue" stroke="midnightblue" points="883.81,-632.95 894.01,-635.81 887.82,-627.21 883.81,-632.95"/>
</g>
<!-- Node53 -->
<g id="node44" class="node">
<title>Node53</title>
<g id="a_node44"><a xlink:href="structvalidation__block__tests_1_1_miner_testing_setup.html#a9aff35171e0e7759018d7a83991656c1" target="_top" xlink:title=" ">
<polygon fill="white" stroke="black" points="639,-680 639,-710 785,-710 785,-680 639,-680"/>
<text text-anchor="start" x="647" y="-698" font-family="Helvetica,sans-Serif" font-size="10.00">validation_block_tests</text>
<text text-anchor="middle" x="712" y="-687" font-family="Helvetica,sans-Serif" font-size="10.00">::MinerTestingSetup::Block</text>
</a>
</g>
</g>
<!-- Node52&#45;&gt;Node53 -->
<g id="edge61" class="edge">
<title>Node52&#45;&gt;Node53</title>
<path fill="none" stroke="midnightblue" d="M835.91,-668.16C818.06,-672.06 799.23,-676.17 781.81,-679.97"/>
<polygon fill="midnightblue" stroke="midnightblue" points="836.7,-671.57 845.72,-666.02 835.2,-664.73 836.7,-671.57"/>
</g>
<!-- Node54 -->
<g id="node45" class="node">
<title>Node54</title>
<g id="a_node45"><a xlink:href="validation__block__tests_8cpp.html#a89a0da046e75d1e92410f11e4d579353" target="_top" xlink:title=" ">
<polygon fill="white" stroke="black" points="640.5,-641.5 640.5,-660.5 783.5,-660.5 783.5,-641.5 640.5,-641.5"/>
<text text-anchor="middle" x="712" y="-648.5" font-family="Helvetica,sans-Serif" font-size="10.00">BOOST_AUTO_TEST_CASE</text>
</a>
</g>
</g>
<!-- Node52&#45;&gt;Node54 -->
<g id="edge62" class="edge">
<title>Node52&#45;&gt;Node54</title>
<path fill="none" stroke="midnightblue" d="M827.64,-651C812.93,-651 797.81,-651 783.58,-651"/>
<polygon fill="midnightblue" stroke="midnightblue" points="827.75,-654.5 837.75,-651 827.75,-647.5 827.75,-654.5"/>
</g>
<!-- Node55 -->
<g id="node46" class="node">
<title>Node55</title>
<g id="a_node46"><a xlink:href="struct_build_chain_testing_setup.html#ac4ad085a2b62835132c0a27989911293" target="_top" xlink:title=" ">
<polygon fill="white" stroke="red" points="646.5,-592 646.5,-622 777.5,-622 777.5,-592 646.5,-592"/>
<text text-anchor="start" x="654.5" y="-610" font-family="Helvetica,sans-Serif" font-size="10.00">BuildChainTestingSetup</text>
<text text-anchor="middle" x="712" y="-599" font-family="Helvetica,sans-Serif" font-size="10.00">::CreateBlock</text>
</a>
</g>
</g>
<!-- Node52&#45;&gt;Node55 -->
<g id="edge63" class="edge">
<title>Node52&#45;&gt;Node55</title>
<path fill="none" stroke="midnightblue" d="M835.79,-633.81C816.57,-629.61 796.22,-625.17 777.74,-621.14"/>
<polygon fill="midnightblue" stroke="midnightblue" points="835.2,-637.27 845.72,-635.98 836.7,-630.43 835.2,-637.27"/>
</g>
<!-- Node57 -->
<g id="node47" class="node">
<title>Node57</title>
<g id="a_node47"><a xlink:href="struct_test_chain100_setup.html#a41a24014d08c8682c7b0229ef9bcfee4" target="_top" xlink:title="Create a new block with just given transactions, coinbase paying to scriptPubKey.">
<polygon fill="white" stroke="red" points="654,-729 654,-759 770,-759 770,-729 654,-729"/>
<text text-anchor="start" x="662" y="-747" font-family="Helvetica,sans-Serif" font-size="10.00">TestChain100Setup::</text>
<text text-anchor="middle" x="712" y="-736" font-family="Helvetica,sans-Serif" font-size="10.00">CreateBlock</text>
</a>
</g>
</g>
<!-- Node52&#45;&gt;Node57 -->
<g id="edge64" class="edge">
<title>Node52&#45;&gt;Node57</title>
<path fill="none" stroke="midnightblue" d="M885.69,-671.88C863.67,-687.02 832.09,-707.04 802,-720 792.01,-724.31 781.04,-728.02 770.33,-731.15"/>
<polygon fill="midnightblue" stroke="midnightblue" points="887.72,-674.73 893.92,-666.14 883.72,-668.99 887.72,-674.73"/>
</g>
<!-- Node52&#45;&gt;Node63 -->
<g id="edge66" class="edge">
<title>Node52&#45;&gt;Node63</title>
<path fill="none" stroke="midnightblue" d="M891.05,-673.34C875.66,-688.24 855.25,-708.43 838,-727 821.27,-745.01 823.13,-756.44 802,-769 790.46,-775.86 776.77,-780.26 763.63,-783.08"/>
<polygon fill="midnightblue" stroke="midnightblue" points="893.83,-675.53 898.6,-666.07 888.97,-670.49 893.83,-675.53"/>
</g>
<!-- Node63&#45;&gt;Node14 -->
<g id="edge67" class="edge">
<title>Node63&#45;&gt;Node14</title>
<path fill="none" stroke="midnightblue" d="M650.38,-782.55C640.22,-779.62 630.29,-775.3 622,-769 538.47,-705.53 504.45,-571.52 496.44,-534.6"/>
<polygon fill="midnightblue" stroke="midnightblue" points="649.61,-785.97 660.16,-784.96 651.29,-779.17 649.61,-785.97"/>
</g>
<!-- Node65 -->
<g id="node50" class="node">
<title>Node65</title>
<g id="a_node50"><a xlink:href="blockchain_8cpp.html#ac1f1607caf29c2451ae28fbc39f3c157" target="_top" xlink:title=" ">
<polygon fill="white" stroke="black" points="1269.5,-420.5 1269.5,-439.5 1340.5,-439.5 1340.5,-420.5 1269.5,-420.5"/>
<text text-anchor="middle" x="1305" y="-427.5" font-family="Helvetica,sans-Serif" font-size="10.00">verifychain</text>
</a>
</g>
</g>
<!-- Node64&#45;&gt;Node65 -->
<g id="edge71" class="edge">
<title>Node64&#45;&gt;Node65</title>
<path fill="none" stroke="midnightblue" d="M1430.81,-417.55C1400.52,-420.57 1365.81,-424.03 1340.69,-426.54"/>
<polygon fill="midnightblue" stroke="midnightblue" points="1431.28,-421.02 1440.89,-416.55 1430.59,-414.06 1431.28,-421.02"/>
</g>
<!-- Node65&#45;&gt;Node31 -->
<g id="edge72" class="edge">
<title>Node65&#45;&gt;Node31</title>
<path fill="none" stroke="midnightblue" d="M1259.21,-434.84C1126.14,-448.47 735.36,-482.87 622,-430 613.57,-426.07 528.6,-320.56 502.25,-287.69"/>
<polygon fill="midnightblue" stroke="midnightblue" points="1259.86,-438.29 1269.44,-433.78 1259.14,-431.33 1259.86,-438.29"/>
</g>
</g>
</svg>
