<?xml version="1.0" encoding="UTF-8" standalone="no"?>
<!DOCTYPE svg PUBLIC "-//W3C//DTD SVG 1.1//EN"
 "http://www.w3.org/Graphics/SVG/1.1/DTD/svg11.dtd">
<!-- Generated by graphviz version 2.49.3 (0)
 -->
<!-- Title: src/chainparamsbase.h Pages: 1 -->
<svg width="4846pt" height="218pt"
 viewBox="0.00 0.00 4845.50 218.00" xmlns="http://www.w3.org/2000/svg" xmlns:xlink="http://www.w3.org/1999/xlink">
<g id="graph0" class="graph" transform="scale(1 1) rotate(0) translate(4 214)">
<title>src/chainparamsbase.h</title>
<polygon fill="white" stroke="transparent" points="-4,4 -4,-214 4841.5,-214 4841.5,4 -4,4"/>
<!-- Node1 -->
<g id="node1" class="node">
<title>Node1</title>
<g id="a_node1"><a xlink:title=" ">
<polygon fill="#bfbfbf" stroke="black" points="3764.5,-190.5 3764.5,-209.5 3893.5,-209.5 3893.5,-190.5 3764.5,-190.5"/>
<text text-anchor="middle" x="3829" y="-197.5" font-family="Helvetica,sans-Serif" font-size="10.00">src/chainparamsbase.h</text>
</a>
</g>
</g>
<!-- Node2 -->
<g id="node2" class="node">
<title>Node2</title>
<g id="a_node2"><a xlink:href="bitcoin-cli_8cpp.html" target="_top" xlink:title=" ">
<polygon fill="white" stroke="black" points="0,-129 0,-148 102,-148 102,-129 0,-129"/>
<text text-anchor="middle" x="51" y="-136" font-family="Helvetica,sans-Serif" font-size="10.00">src/bitcoin&#45;cli.cpp</text>
</a>
</g>
</g>
<!-- Node1&#45;&gt;Node2 -->
<g id="edge1" class="edge">
<title>Node1&#45;&gt;Node2</title>
<path fill="none" stroke="midnightblue" d="M3754.06,-199.03C3260.91,-199.07 489.14,-197.4 116,-154 105.2,-152.74 93.57,-150.46 83.18,-148.06"/>
<polygon fill="midnightblue" stroke="midnightblue" points="3754.26,-202.53 3764.26,-199.02 3754.26,-195.53 3754.26,-202.53"/>
</g>
<!-- Node3 -->
<g id="node3" class="node">
<title>Node3</title>
<g id="a_node3"><a xlink:href="bitcoin-util_8cpp.html" target="_top" xlink:title=" ">
<polygon fill="white" stroke="black" points="196.5,-62 196.5,-81 303.5,-81 303.5,-62 196.5,-62"/>
<text text-anchor="middle" x="250" y="-69" font-family="Helvetica,sans-Serif" font-size="10.00">src/bitcoin&#45;util.cpp</text>
</a>
</g>
</g>
<!-- Node1&#45;&gt;Node3 -->
<g id="edge2" class="edge">
<title>Node1&#45;&gt;Node3</title>
<path fill="none" stroke="midnightblue" d="M3754.17,-198.59C3365.76,-196.36 1576.14,-184.54 1022,-154 705.52,-136.56 624.81,-138.1 312,-87 302.4,-85.43 292.07,-83.23 282.65,-81.01"/>
<polygon fill="midnightblue" stroke="midnightblue" points="3754.42,-202.09 3764.44,-198.65 3754.46,-195.09 3754.42,-202.09"/>
</g>
<!-- Node4 -->
<g id="node4" class="node">
<title>Node4</title>
<g id="a_node4"><a xlink:href="bitcoin-wallet_8cpp.html" target="_top" xlink:title=" ">
<polygon fill="white" stroke="black" points="321.5,-62 321.5,-81 442.5,-81 442.5,-62 321.5,-62"/>
<text text-anchor="middle" x="382" y="-69" font-family="Helvetica,sans-Serif" font-size="10.00">src/bitcoin&#45;wallet.cpp</text>
</a>
</g>
</g>
<!-- Node1&#45;&gt;Node4 -->
<g id="edge3" class="edge">
<title>Node1&#45;&gt;Node4</title>
<path fill="none" stroke="midnightblue" d="M3754.17,-197.93C3321.6,-191.54 1137.37,-156.26 469,-87 455.14,-85.56 440.14,-83.32 426.56,-81.02"/>
<polygon fill="midnightblue" stroke="midnightblue" points="3754.31,-201.43 3764.36,-198.08 3754.41,-194.43 3754.31,-201.43"/>
</g>
<!-- Node5 -->
<g id="node5" class="node">
<title>Node5</title>
<g id="a_node5"><a xlink:href="chainparams_8h.html" target="_top" xlink:title=" ">
<polygon fill="white" stroke="red" points="2097,-129 2097,-148 2203,-148 2203,-129 2097,-129"/>
<text text-anchor="middle" x="2150" y="-136" font-family="Helvetica,sans-Serif" font-size="10.00">src/chainparams.h</text>
</a>
</g>
</g>
<!-- Node1&#45;&gt;Node5 -->
<g id="edge4" class="edge">
<title>Node1&#45;&gt;Node5</title>
<path fill="none" stroke="midnightblue" d="M3754.21,-196.35C3468.36,-186.22 2448.72,-150.09 2203.38,-141.39"/>
<polygon fill="midnightblue" stroke="midnightblue" points="3754.35,-199.86 3764.47,-196.71 3754.6,-192.86 3754.35,-199.86"/>
</g>
<!-- Node45 -->
<g id="node23" class="node">
<title>Node45</title>
<g id="a_node23"><a xlink:href="test_2fuzz_2key_8cpp.html" target="_top" xlink:title=" ">
<polygon fill="white" stroke="black" points="1020.5,-0.5 1020.5,-19.5 1135.5,-19.5 1135.5,-0.5 1020.5,-0.5"/>
<text text-anchor="middle" x="1078" y="-7.5" font-family="Helvetica,sans-Serif" font-size="10.00">src/test/fuzz/key.cpp</text>
</a>
</g>
</g>
<!-- Node1&#45;&gt;Node45 -->
<g id="edge57" class="edge">
<title>Node1&#45;&gt;Node45</title>
<path fill="none" stroke="midnightblue" d="M3754.28,-198.69C3297.61,-196.73 891.59,-184.99 565,-154 395.14,-137.88 296.61,-217.75 187,-87 178.15,-76.44 177.47,-65.95 187,-56 218.69,-22.9 965.36,-24.05 1011,-20 1014.04,-19.73 1017.15,-19.42 1020.29,-19.09"/>
<polygon fill="midnightblue" stroke="midnightblue" points="3754.38,-202.2 3764.39,-198.74 3754.41,-195.2 3754.38,-202.2"/>
</g>
<!-- Node92 -->
<g id="node26" class="node">
<title>Node92</title>
<g id="a_node26"><a xlink:href="torcontrol_8cpp.html" target="_top" xlink:title=" ">
<polygon fill="white" stroke="black" points="420.5,-0.5 420.5,-19.5 521.5,-19.5 521.5,-0.5 420.5,-0.5"/>
<text text-anchor="middle" x="471" y="-7.5" font-family="Helvetica,sans-Serif" font-size="10.00">src/torcontrol.cpp</text>
</a>
</g>
</g>
<!-- Node1&#45;&gt;Node92 -->
<g id="edge76" class="edge">
<title>Node1&#45;&gt;Node92</title>
<path fill="none" stroke="midnightblue" d="M3754.3,-199.04C3245,-199.16 301.29,-197.98 221,-154 179.13,-131.06 145.9,-92.22 177,-56 207.78,-20.15 344.79,-12.56 420.42,-11.15"/>
<polygon fill="midnightblue" stroke="midnightblue" points="3754.47,-202.54 3764.47,-199.03 3754.47,-195.54 3754.47,-202.54"/>
</g>
<!-- Node110 -->
<g id="node38" class="node">
<title>Node110</title>
<g id="a_node38"><a xlink:href="coins__view_8cpp.html" target="_top" xlink:title=" ">
<polygon fill="white" stroke="black" points="4011,-56.5 4011,-86.5 4115,-86.5 4115,-56.5 4011,-56.5"/>
<text text-anchor="start" x="4019" y="-74.5" font-family="Helvetica,sans-Serif" font-size="10.00">src/test/fuzz/coins</text>
<text text-anchor="middle" x="4063" y="-63.5" font-family="Helvetica,sans-Serif" font-size="10.00">_view.cpp</text>
</a>
</g>
</g>
<!-- Node1&#45;&gt;Node110 -->
<g id="edge55" class="edge">
<title>Node1&#45;&gt;Node110</title>
<path fill="none" stroke="midnightblue" d="M3800,-185.33C3787.77,-177.92 3774.81,-167.48 3768,-154 3761.79,-141.7 3759.03,-133.46 3768,-123 3802.26,-83.07 3950.37,-97.09 4002,-87 4004.88,-86.44 4007.84,-85.83 4010.82,-85.2"/>
<polygon fill="midnightblue" stroke="midnightblue" points="3798.66,-188.59 3809.09,-190.41 3802.07,-182.48 3798.66,-188.59"/>
</g>
<!-- Node111 -->
<g id="node39" class="node">
<title>Node111</title>
<g id="a_node39"><a xlink:href="connman_8cpp.html" target="_top" xlink:title=" ">
<polygon fill="white" stroke="black" points="4416,-62 4416,-81 4560,-81 4560,-62 4416,-62"/>
<text text-anchor="middle" x="4488" y="-69" font-family="Helvetica,sans-Serif" font-size="10.00">src/test/fuzz/connman.cpp</text>
</a>
</g>
</g>
<!-- Node1&#45;&gt;Node111 -->
<g id="edge56" class="edge">
<title>Node1&#45;&gt;Node111</title>
<path fill="none" stroke="midnightblue" d="M3903.95,-197.58C4099.53,-193.52 4612.03,-180.4 4637,-154 4671.95,-117.05 4592.15,-92.89 4536.37,-81.06"/>
<polygon fill="midnightblue" stroke="midnightblue" points="3903.68,-194.09 3893.76,-197.79 3903.83,-201.09 3903.68,-194.09"/>
</g>
<!-- Node114 -->
<g id="node40" class="node">
<title>Node114</title>
<g id="a_node40"><a xlink:href="test_2fuzz_2net_8cpp.html" target="_top" xlink:title=" ">
<polygon fill="white" stroke="black" points="4282.5,-62 4282.5,-81 4397.5,-81 4397.5,-62 4282.5,-62"/>
<text text-anchor="middle" x="4340" y="-69" font-family="Helvetica,sans-Serif" font-size="10.00">src/test/fuzz/net.cpp</text>
</a>
</g>
</g>
<!-- Node1&#45;&gt;Node114 -->
<g id="edge58" class="edge">
<title>Node1&#45;&gt;Node114</title>
<path fill="none" stroke="midnightblue" d="M3903.96,-197.4C4093.97,-192.99 4581.17,-179.25 4605,-154 4709.48,-43.28 4807.71,-166.77 4407,-87 4397.66,-85.14 4387.62,-83.03 4378.22,-81"/>
<polygon fill="midnightblue" stroke="midnightblue" points="3903.7,-193.91 3893.78,-197.64 3903.86,-200.91 3903.7,-193.91"/>
</g>
<!-- Node117 -->
<g id="node41" class="node">
<title>Node117</title>
<g id="a_node41"><a xlink:href="script__sigcache_8cpp.html" target="_top" xlink:title=" ">
<polygon fill="white" stroke="black" points="3633,-56.5 3633,-86.5 3739,-86.5 3739,-56.5 3633,-56.5"/>
<text text-anchor="start" x="3641" y="-74.5" font-family="Helvetica,sans-Serif" font-size="10.00">src/test/fuzz/script</text>
<text text-anchor="middle" x="3686" y="-63.5" font-family="Helvetica,sans-Serif" font-size="10.00">_sigcache.cpp</text>
</a>
</g>
</g>
<!-- Node1&#45;&gt;Node117 -->
<g id="edge59" class="edge">
<title>Node1&#45;&gt;Node117</title>
<path fill="none" stroke="midnightblue" d="M3783.57,-187.24C3763.66,-180.24 3741.2,-169.6 3725,-154 3705.45,-135.18 3694.51,-104.58 3689.48,-86.71"/>
<polygon fill="midnightblue" stroke="midnightblue" points="3782.51,-190.57 3793.1,-190.39 3784.7,-183.92 3782.51,-190.57"/>
</g>
<!-- Node118 -->
<g id="node42" class="node">
<title>Node118</title>
<g id="a_node42"><a xlink:href="script__sign_8cpp.html" target="_top" xlink:title=" ">
<polygon fill="white" stroke="black" points="3757,-56.5 3757,-86.5 3863,-86.5 3863,-56.5 3757,-56.5"/>
<text text-anchor="start" x="3765" y="-74.5" font-family="Helvetica,sans-Serif" font-size="10.00">src/test/fuzz/script</text>
<text text-anchor="middle" x="3810" y="-63.5" font-family="Helvetica,sans-Serif" font-size="10.00">_sign.cpp</text>
</a>
</g>
</g>
<!-- Node1&#45;&gt;Node118 -->
<g id="edge60" class="edge">
<title>Node1&#45;&gt;Node118</title>
<path fill="none" stroke="midnightblue" d="M3779.44,-187.04C3762.35,-180.29 3745.01,-169.89 3735,-154 3727.66,-142.34 3728.53,-135.16 3735,-123 3743.63,-106.79 3760.04,-94.85 3775.31,-86.66"/>
<polygon fill="midnightblue" stroke="midnightblue" points="3778.26,-190.34 3788.85,-190.43 3780.63,-183.75 3778.26,-190.34"/>
</g>
<!-- Node140 -->
<g id="node43" class="node">
<title>Node140</title>
<g id="a_node43"><a xlink:href="chainparamsbase_8cpp.html" target="_top" xlink:title=" ">
<polygon fill="white" stroke="black" points="4019,-129 4019,-148 4159,-148 4159,-129 4019,-129"/>
<text text-anchor="middle" x="4089" y="-136" font-family="Helvetica,sans-Serif" font-size="10.00">src/chainparamsbase.cpp</text>
</a>
</g>
</g>
<!-- Node1&#45;&gt;Node140 -->
<g id="edge51" class="edge">
<title>Node1&#45;&gt;Node140</title>
<path fill="none" stroke="midnightblue" d="M3876.25,-188.19C3926.7,-176.64 4005.61,-158.58 4051.82,-148.01"/>
<polygon fill="midnightblue" stroke="midnightblue" points="3875.22,-184.83 3866.25,-190.48 3876.78,-191.66 3875.22,-184.83"/>
</g>
<!-- Node141 -->
<g id="node44" class="node">
<title>Node141</title>
<g id="a_node44"><a xlink:href="httpserver_8cpp.html" target="_top" xlink:title=" ">
<polygon fill="white" stroke="black" points="4177,-129 4177,-148 4281,-148 4281,-129 4177,-129"/>
<text text-anchor="middle" x="4229" y="-136" font-family="Helvetica,sans-Serif" font-size="10.00">src/httpserver.cpp</text>
</a>
</g>
</g>
<!-- Node1&#45;&gt;Node141 -->
<g id="edge52" class="edge">
<title>Node1&#45;&gt;Node141</title>
<path fill="none" stroke="midnightblue" d="M3903.99,-191.26C3972.91,-183.61 4077.76,-170.67 4168,-154 4177.1,-152.32 4186.88,-150.16 4195.89,-148.02"/>
<polygon fill="midnightblue" stroke="midnightblue" points="3903.22,-187.82 3893.66,-192.39 3903.99,-194.78 3903.22,-187.82"/>
</g>
<!-- Node142 -->
<g id="node45" class="node">
<title>Node142</title>
<g id="a_node45"><a xlink:href="networkstyle_8cpp.html" target="_top" xlink:title=" ">
<polygon fill="white" stroke="black" points="4299.5,-129 4299.5,-148 4430.5,-148 4430.5,-129 4299.5,-129"/>
<text text-anchor="middle" x="4365" y="-136" font-family="Helvetica,sans-Serif" font-size="10.00">src/qt/networkstyle.cpp</text>
</a>
</g>
</g>
<!-- Node1&#45;&gt;Node142 -->
<g id="edge53" class="edge">
<title>Node1&#45;&gt;Node142</title>
<path fill="none" stroke="midnightblue" d="M3903.73,-193.87C3995.13,-187.09 4154.42,-173.68 4290,-154 4301.29,-152.36 4313.45,-150.19 4324.64,-148.02"/>
<polygon fill="midnightblue" stroke="midnightblue" points="3903.46,-190.38 3893.75,-194.6 3903.97,-197.36 3903.46,-190.38"/>
</g>
<!-- Node143 -->
<g id="node46" class="node">
<title>Node143</title>
<g id="a_node46"><a xlink:href="rpc_2external__signer_8cpp.html" target="_top" xlink:title=" ">
<polygon fill="white" stroke="black" points="4448.5,-129 4448.5,-148 4595.5,-148 4595.5,-129 4448.5,-129"/>
<text text-anchor="middle" x="4522" y="-136" font-family="Helvetica,sans-Serif" font-size="10.00">src/rpc/external_signer.cpp</text>
</a>
</g>
</g>
<!-- Node1&#45;&gt;Node143 -->
<g id="edge54" class="edge">
<title>Node1&#45;&gt;Node143</title>
<path fill="none" stroke="midnightblue" d="M3904.02,-195.93C4019.5,-190.65 4247.65,-178.03 4440,-154 4452.62,-152.42 4466.26,-150.22 4478.72,-148"/>
<polygon fill="midnightblue" stroke="midnightblue" points="3903.71,-192.44 3893.87,-196.39 3904.02,-199.43 3903.71,-192.44"/>
</g>
<!-- Node144 -->
<g id="node47" class="node">
<title>Node144</title>
<g id="a_node47"><a xlink:href="test_2fuzz_2util_8h.html" target="_top" xlink:title=" ">
<polygon fill="white" stroke="red" points="3777,-129 3777,-148 3881,-148 3881,-129 3777,-129"/>
<text text-anchor="middle" x="3829" y="-136" font-family="Helvetica,sans-Serif" font-size="10.00">src/test/fuzz/util.h</text>
</a>
</g>
</g>
<!-- Node1&#45;&gt;Node144 -->
<g id="edge61" class="edge">
<title>Node1&#45;&gt;Node144</title>
<path fill="none" stroke="midnightblue" d="M3829,-180.32C3829,-169.5 3829,-156.4 3829,-148.01"/>
<polygon fill="midnightblue" stroke="midnightblue" points="3825.5,-180.48 3829,-190.48 3832.5,-180.48 3825.5,-180.48"/>
</g>
<!-- Node203 -->
<g id="node48" class="node">
<title>Node203</title>
<g id="a_node48"><a xlink:href="validation__load__mempool_8cpp.html" target="_top" xlink:title=" ">
<polygon fill="white" stroke="black" points="4578,-56.5 4578,-86.5 4706,-86.5 4706,-56.5 4578,-56.5"/>
<text text-anchor="start" x="4586" y="-74.5" font-family="Helvetica,sans-Serif" font-size="10.00">src/test/fuzz/validation</text>
<text text-anchor="middle" x="4642" y="-63.5" font-family="Helvetica,sans-Serif" font-size="10.00">_load_mempool.cpp</text>
</a>
</g>
</g>
<!-- Node1&#45;&gt;Node203 -->
<g id="edge68" class="edge">
<title>Node1&#45;&gt;Node203</title>
<path fill="none" stroke="midnightblue" d="M3903.55,-197.69C4101.91,-193.83 4629.37,-181.07 4655,-154 4672.14,-135.9 4659.98,-104.75 4650.42,-86.66"/>
<polygon fill="midnightblue" stroke="midnightblue" points="3903.44,-194.19 3893.5,-197.88 3903.57,-201.19 3903.44,-194.19"/>
</g>
<!-- Node205 -->
<g id="node49" class="node">
<title>Node205</title>
<g id="a_node49"><a xlink:href="setup__common_8h.html" target="_top" xlink:title=" ">
<polygon fill="white" stroke="red" points="3899.5,-123.5 3899.5,-153.5 4000.5,-153.5 4000.5,-123.5 3899.5,-123.5"/>
<text text-anchor="start" x="3907.5" y="-141.5" font-family="Helvetica,sans-Serif" font-size="10.00">src/test/util/setup</text>
<text text-anchor="middle" x="3950" y="-130.5" font-family="Helvetica,sans-Serif" font-size="10.00">_common.h</text>
</a>
</g>
</g>
<!-- Node1&#45;&gt;Node205 -->
<g id="edge69" class="edge">
<title>Node1&#45;&gt;Node205</title>
<path fill="none" stroke="midnightblue" d="M3855.56,-185.94C3875.07,-176.35 3901.53,-163.33 3921.48,-153.52"/>
<polygon fill="midnightblue" stroke="midnightblue" points="3853.77,-182.92 3846.34,-190.48 3856.85,-189.2 3853.77,-182.92"/>
</g>
<!-- Node280 -->
<g id="node50" class="node">
<title>Node280</title>
<g id="a_node50"><a xlink:href="util_2system_8cpp.html" target="_top" xlink:title=" ">
<polygon fill="white" stroke="black" points="4728.5,-129 4728.5,-148 4837.5,-148 4837.5,-129 4728.5,-129"/>
<text text-anchor="middle" x="4783" y="-136" font-family="Helvetica,sans-Serif" font-size="10.00">src/util/system.cpp</text>
</a>
</g>
</g>
<!-- Node1&#45;&gt;Node280 -->
<g id="edge77" class="edge">
<title>Node1&#45;&gt;Node280</title>
<path fill="none" stroke="midnightblue" d="M3903.93,-199.13C4056.87,-198.53 4415.72,-192.68 4714,-154 4725.05,-152.57 4736.96,-150.32 4747.72,-148.02"/>
<polygon fill="midnightblue" stroke="midnightblue" points="3903.7,-195.63 3893.72,-199.16 3903.73,-202.63 3903.7,-195.63"/>
</g>
<!-- Node5&#45;&gt;Node3 -->
<g id="edge8" class="edge">
<title>Node5&#45;&gt;Node3</title>
<path fill="none" stroke="midnightblue" d="M2086.65,-137.48C1805.16,-137.12 666.15,-132.8 312,-87 301.8,-85.68 290.83,-83.41 281,-81.05"/>
<polygon fill="midnightblue" stroke="midnightblue" points="2086.68,-140.98 2096.69,-137.49 2086.69,-133.98 2086.68,-140.98"/>
</g>
<!-- Node5&#45;&gt;Node4 -->
<g id="edge9" class="edge">
<title>Node5&#45;&gt;Node4</title>
<path fill="none" stroke="midnightblue" d="M2086.78,-135.68C1781.95,-126.91 477.65,-89.29 457,-87 444.87,-85.66 431.78,-83.41 419.97,-81.07"/>
<polygon fill="midnightblue" stroke="midnightblue" points="2086.68,-139.18 2096.78,-135.97 2086.88,-132.18 2086.68,-139.18"/>
</g>
<!-- Node6 -->
<g id="node6" class="node">
<title>Node6</title>
<g id="a_node6"><a xlink:href="addrdb_8cpp.html" target="_top" xlink:title=" ">
<polygon fill="white" stroke="black" points="2827,-62 2827,-81 2915,-81 2915,-62 2827,-62"/>
<text text-anchor="middle" x="2871" y="-69" font-family="Helvetica,sans-Serif" font-size="10.00">src/addrdb.cpp</text>
</a>
</g>
</g>
<!-- Node5&#45;&gt;Node6 -->
<g id="edge5" class="edge">
<title>Node5&#45;&gt;Node6</title>
<path fill="none" stroke="midnightblue" d="M2213.29,-136.74C2332.49,-134.42 2598.07,-125.04 2818,-87 2826.46,-85.54 2835.52,-83.31 2843.72,-81.04"/>
<polygon fill="midnightblue" stroke="midnightblue" points="2213.18,-133.24 2203.25,-136.93 2213.31,-140.24 2213.18,-133.24"/>
</g>
<!-- Node7 -->
<g id="node7" class="node">
<title>Node7</title>
<g id="a_node7"><a xlink:href="checkblock_8cpp.html" target="_top" xlink:title=" ">
<polygon fill="white" stroke="black" points="2933.5,-62 2933.5,-81 3074.5,-81 3074.5,-62 2933.5,-62"/>
<text text-anchor="middle" x="3004" y="-69" font-family="Helvetica,sans-Serif" font-size="10.00">src/bench/checkblock.cpp</text>
</a>
</g>
</g>
<!-- Node5&#45;&gt;Node7 -->
<g id="edge6" class="edge">
<title>Node5&#45;&gt;Node7</title>
<path fill="none" stroke="midnightblue" d="M2213.58,-135.81C2346.12,-131.74 2661.46,-119.25 2924,-87 2936.47,-85.47 2949.94,-83.25 2962.2,-81.01"/>
<polygon fill="midnightblue" stroke="midnightblue" points="2213.11,-132.32 2203.22,-136.12 2213.32,-139.32 2213.11,-132.32"/>
</g>
<!-- Node8 -->
<g id="node8" class="node">
<title>Node8</title>
<g id="a_node8"><a xlink:href="duplicate__inputs_8cpp.html" target="_top" xlink:title=" ">
<polygon fill="white" stroke="black" points="3881.5,-56.5 3881.5,-86.5 3992.5,-86.5 3992.5,-56.5 3881.5,-56.5"/>
<text text-anchor="start" x="3889.5" y="-74.5" font-family="Helvetica,sans-Serif" font-size="10.00">src/bench/duplicate</text>
<text text-anchor="middle" x="3937" y="-63.5" font-family="Helvetica,sans-Serif" font-size="10.00">_inputs.cpp</text>
</a>
</g>
</g>
<!-- Node5&#45;&gt;Node8 -->
<g id="edge7" class="edge">
<title>Node5&#45;&gt;Node8</title>
<path fill="none" stroke="midnightblue" d="M2213.28,-137.26C2483.48,-135.96 3541.63,-128.31 3872,-87 3875.1,-86.61 3878.26,-86.15 3881.45,-85.62"/>
<polygon fill="midnightblue" stroke="midnightblue" points="2213.24,-133.76 2203.26,-137.3 2213.27,-140.76 2213.24,-133.76"/>
</g>
<!-- Node9 -->
<g id="node9" class="node">
<title>Node9</title>
<g id="a_node9"><a xlink:href="bitcoind_8cpp.html" target="_top" xlink:title=" ">
<polygon fill="white" stroke="black" points="3092.5,-62 3092.5,-81 3185.5,-81 3185.5,-62 3092.5,-62"/>
<text text-anchor="middle" x="3139" y="-69" font-family="Helvetica,sans-Serif" font-size="10.00">src/bitcoind.cpp</text>
</a>
</g>
</g>
<!-- Node5&#45;&gt;Node9 -->
<g id="edge10" class="edge">
<title>Node5&#45;&gt;Node9</title>
<path fill="none" stroke="midnightblue" d="M2213.19,-135.76C2394.73,-130.5 2915.52,-113.48 3084,-87 3092.88,-85.6 3102.39,-83.37 3110.97,-81.07"/>
<polygon fill="midnightblue" stroke="midnightblue" points="2212.91,-132.27 2203.01,-136.06 2213.11,-139.27 2212.91,-132.27"/>
</g>
<!-- Node10 -->
<g id="node10" class="node">
<title>Node10</title>
<g id="a_node10"><a xlink:href="blockencodings_8cpp.html" target="_top" xlink:title=" ">
<polygon fill="white" stroke="black" points="3203.5,-62 3203.5,-81 3332.5,-81 3332.5,-62 3203.5,-62"/>
<text text-anchor="middle" x="3268" y="-69" font-family="Helvetica,sans-Serif" font-size="10.00">src/blockencodings.cpp</text>
</a>
</g>
</g>
<!-- Node5&#45;&gt;Node10 -->
<g id="edge11" class="edge">
<title>Node5&#45;&gt;Node10</title>
<path fill="none" stroke="midnightblue" d="M2213.6,-137.69C2377.11,-137.47 2825.2,-132.41 3195,-87 3206.67,-85.57 3219.27,-83.32 3230.66,-81.02"/>
<polygon fill="midnightblue" stroke="midnightblue" points="2213.25,-134.19 2203.25,-137.7 2213.25,-141.19 2213.25,-134.19"/>
</g>
<!-- Node11 -->
<g id="node11" class="node">
<title>Node11</title>
<g id="a_node11"><a xlink:href="chainparams_8cpp.html" target="_top" xlink:title=" ">
<polygon fill="white" stroke="black" points="3350.5,-62 3350.5,-81 3467.5,-81 3467.5,-62 3350.5,-62"/>
<text text-anchor="middle" x="3409" y="-69" font-family="Helvetica,sans-Serif" font-size="10.00">src/chainparams.cpp</text>
</a>
</g>
</g>
<!-- Node5&#45;&gt;Node11 -->
<g id="edge12" class="edge">
<title>Node5&#45;&gt;Node11</title>
<path fill="none" stroke="midnightblue" d="M2213.16,-136.25C2426.68,-131.8 3120.54,-115.44 3342,-87 3352.86,-85.61 3364.57,-83.34 3375.11,-81.01"/>
<polygon fill="midnightblue" stroke="midnightblue" points="2212.99,-132.75 2203.06,-136.46 2213.13,-139.75 2212.99,-132.75"/>
</g>
<!-- Node12 -->
<g id="node12" class="node">
<title>Node12</title>
<g id="a_node12"><a xlink:href="external__signer_8cpp.html" target="_top" xlink:title=" ">
<polygon fill="white" stroke="black" points="3485.5,-62 3485.5,-81 3614.5,-81 3614.5,-62 3485.5,-62"/>
<text text-anchor="middle" x="3550" y="-69" font-family="Helvetica,sans-Serif" font-size="10.00">src/external_signer.cpp</text>
</a>
</g>
</g>
<!-- Node5&#45;&gt;Node12 -->
<g id="edge13" class="edge">
<title>Node5&#45;&gt;Node12</title>
<path fill="none" stroke="midnightblue" d="M2213.24,-136.42C2442.22,-132.3 3227.68,-116.32 3477,-87 3488.81,-85.61 3501.55,-83.35 3513.04,-81.02"/>
<polygon fill="midnightblue" stroke="midnightblue" points="2213.01,-132.92 2203.08,-136.6 2213.14,-139.92 2213.01,-132.92"/>
</g>
<!-- Node13 -->
<g id="node13" class="node">
<title>Node13</title>
<g id="a_node13"><a xlink:href="httprpc_8cpp.html" target="_top" xlink:title=" ">
<polygon fill="white" stroke="black" points="499.5,-62 499.5,-81 588.5,-81 588.5,-62 499.5,-62"/>
<text text-anchor="middle" x="544" y="-69" font-family="Helvetica,sans-Serif" font-size="10.00">src/httprpc.cpp</text>
</a>
</g>
</g>
<!-- Node5&#45;&gt;Node13 -->
<g id="edge14" class="edge">
<title>Node5&#45;&gt;Node13</title>
<path fill="none" stroke="midnightblue" d="M2086.38,-135.63C1799.01,-127.18 634.4,-92.64 597,-87 588.23,-85.68 578.83,-83.4 570.43,-81.04"/>
<polygon fill="midnightblue" stroke="midnightblue" points="2086.53,-139.14 2096.63,-135.94 2086.74,-132.14 2086.53,-139.14"/>
</g>
<!-- Node14 -->
<g id="node14" class="node">
<title>Node14</title>
<g id="a_node14"><a xlink:href="i2p_8cpp.html" target="_top" xlink:title=" ">
<polygon fill="white" stroke="black" points="606.5,-62 606.5,-81 675.5,-81 675.5,-62 606.5,-62"/>
<text text-anchor="middle" x="641" y="-69" font-family="Helvetica,sans-Serif" font-size="10.00">src/i2p.cpp</text>
</a>
</g>
</g>
<!-- Node5&#45;&gt;Node14 -->
<g id="edge15" class="edge">
<title>Node5&#45;&gt;Node14</title>
<path fill="none" stroke="midnightblue" d="M2086.35,-135.56C1809.09,-127.07 718.98,-93.36 684,-87 676.87,-85.7 669.31,-83.47 662.55,-81.13"/>
<polygon fill="midnightblue" stroke="midnightblue" points="2086.54,-139.07 2096.64,-135.87 2086.75,-132.07 2086.54,-139.07"/>
</g>
<!-- Node15 -->
<g id="node15" class="node">
<title>Node15</title>
<g id="a_node15"><a xlink:href="base_8cpp.html" target="_top" xlink:title=" ">
<polygon fill="white" stroke="black" points="693.5,-62 693.5,-81 800.5,-81 800.5,-62 693.5,-62"/>
<text text-anchor="middle" x="747" y="-69" font-family="Helvetica,sans-Serif" font-size="10.00">src/index/base.cpp</text>
</a>
</g>
</g>
<!-- Node5&#45;&gt;Node15 -->
<g id="edge16" class="edge">
<title>Node5&#45;&gt;Node15</title>
<path fill="none" stroke="midnightblue" d="M2086.31,-135.44C1828.48,-127.07 872.87,-95.59 809,-87 798.92,-85.64 788.08,-83.39 778.32,-81.06"/>
<polygon fill="midnightblue" stroke="midnightblue" points="2086.52,-138.95 2096.63,-135.78 2086.75,-131.95 2086.52,-138.95"/>
</g>
<!-- Node16 -->
<g id="node16" class="node">
<title>Node16</title>
<g id="a_node16"><a xlink:href="coinstatsindex_8cpp.html" target="_top" xlink:title=" ">
<polygon fill="white" stroke="black" points="818.5,-62 818.5,-81 973.5,-81 973.5,-62 818.5,-62"/>
<text text-anchor="middle" x="896" y="-69" font-family="Helvetica,sans-Serif" font-size="10.00">src/index/coinstatsindex.cpp</text>
</a>
</g>
</g>
<!-- Node5&#45;&gt;Node16 -->
<g id="edge17" class="edge">
<title>Node5&#45;&gt;Node16</title>
<path fill="none" stroke="midnightblue" d="M2086.46,-135.77C1875.55,-129.88 1199.82,-109.67 983,-87 969.29,-85.57 954.47,-83.35 941.01,-81.08"/>
<polygon fill="midnightblue" stroke="midnightblue" points="2086.64,-139.28 2096.74,-136.06 2086.84,-132.28 2086.64,-139.28"/>
</g>
<!-- Node17 -->
<g id="node17" class="node">
<title>Node17</title>
<g id="a_node17"><a xlink:href="init_8cpp.html" target="_top" xlink:title=" ">
<polygon fill="white" stroke="black" points="932,-0.5 932,-19.5 1002,-19.5 1002,-0.5 932,-0.5"/>
<text text-anchor="middle" x="967" y="-7.5" font-family="Helvetica,sans-Serif" font-size="10.00">src/init.cpp</text>
</a>
</g>
</g>
<!-- Node5&#45;&gt;Node17 -->
<g id="edge18" class="edge">
<title>Node5&#45;&gt;Node17</title>
<path fill="none" stroke="midnightblue" d="M2086.71,-135.25C1868.71,-127.39 1159.74,-100.9 1113,-87 1086.84,-79.22 1084.08,-68.84 1060,-56 1034.68,-42.49 1004.68,-28.29 985.74,-19.54"/>
<polygon fill="midnightblue" stroke="midnightblue" points="2086.6,-138.75 2096.72,-135.61 2086.85,-131.75 2086.6,-138.75"/>
</g>
<!-- Node18 -->
<g id="node18" class="node">
<title>Node18</title>
<g id="a_node18"><a xlink:href="key__io_8h.html" target="_top" xlink:title=" ">
<polygon fill="white" stroke="red" points="1183,-62 1183,-81 1257,-81 1257,-62 1183,-62"/>
<text text-anchor="middle" x="1220" y="-69" font-family="Helvetica,sans-Serif" font-size="10.00">src/key_io.h</text>
</a>
</g>
</g>
<!-- Node5&#45;&gt;Node18 -->
<g id="edge19" class="edge">
<title>Node5&#45;&gt;Node18</title>
<path fill="none" stroke="midnightblue" d="M2086.82,-135.93C1911.9,-131.25 1423.8,-115.91 1266,-87 1258.42,-85.61 1250.35,-83.35 1243.12,-81.02"/>
<polygon fill="midnightblue" stroke="midnightblue" points="2086.81,-139.43 2096.9,-136.19 2086.99,-132.43 2086.81,-139.43"/>
</g>
<!-- Node25 -->
<g id="node19" class="node">
<title>Node25</title>
<g id="a_node19"><a xlink:href="guiutil_8cpp.html" target="_top" xlink:title=" ">
<polygon fill="white" stroke="black" points="1990,-0.5 1990,-19.5 2088,-19.5 2088,-0.5 1990,-0.5"/>
<text text-anchor="middle" x="2039" y="-7.5" font-family="Helvetica,sans-Serif" font-size="10.00">src/qt/guiutil.cpp</text>
</a>
</g>
</g>
<!-- Node5&#45;&gt;Node25 -->
<g id="edge34" class="edge">
<title>Node5&#45;&gt;Node25</title>
<path fill="none" stroke="midnightblue" d="M2154.03,-118.94C2156.8,-101.13 2157.95,-74.32 2145,-56 2131.56,-36.98 2108.4,-25.95 2087.15,-19.58"/>
<polygon fill="midnightblue" stroke="midnightblue" points="2150.56,-118.46 2152.16,-128.93 2157.44,-119.75 2150.56,-118.46"/>
</g>
<!-- Node26 -->
<g id="node20" class="node">
<title>Node26</title>
<g id="a_node20"><a xlink:href="paymentserver_8cpp.html" target="_top" xlink:title=" ">
<polygon fill="white" stroke="black" points="1154,-0.5 1154,-19.5 1294,-19.5 1294,-0.5 1154,-0.5"/>
<text text-anchor="middle" x="1224" y="-7.5" font-family="Helvetica,sans-Serif" font-size="10.00">src/qt/paymentserver.cpp</text>
</a>
</g>
</g>
<!-- Node5&#45;&gt;Node26 -->
<g id="edge37" class="edge">
<title>Node5&#45;&gt;Node26</title>
<path fill="none" stroke="midnightblue" d="M2086.64,-135.39C1872.75,-128.11 1189.76,-103.6 1174,-87 1153.55,-65.47 1190.1,-34.57 1210.96,-19.68"/>
<polygon fill="midnightblue" stroke="midnightblue" points="2086.66,-138.89 2096.77,-135.73 2086.89,-131.89 2086.66,-138.89"/>
</g>
<!-- Node29 -->
<g id="node21" class="node">
<title>Node29</title>
<g id="a_node21"><a xlink:href="sendcoinsdialog_8cpp.html" target="_top" xlink:title=" ">
<polygon fill="white" stroke="black" points="1312,-0.5 1312,-19.5 1458,-19.5 1458,-0.5 1312,-0.5"/>
<text text-anchor="middle" x="1385" y="-7.5" font-family="Helvetica,sans-Serif" font-size="10.00">src/qt/sendcoinsdialog.cpp</text>
</a>
</g>
</g>
<!-- Node5&#45;&gt;Node29 -->
<g id="edge39" class="edge">
<title>Node5&#45;&gt;Node29</title>
<path fill="none" stroke="midnightblue" d="M2086.64,-135.23C1911.16,-128.67 1430.02,-108.77 1404,-87 1383.97,-70.24 1383.3,-35.87 1384.21,-19.73"/>
<polygon fill="midnightblue" stroke="midnightblue" points="2086.64,-138.73 2096.76,-135.6 2086.9,-131.73 2086.64,-138.73"/>
</g>
<!-- Node36 -->
<g id="node22" class="node">
<title>Node36</title>
<g id="a_node22"><a xlink:href="rpc_2mining_8cpp.html" target="_top" xlink:title=" ">
<polygon fill="white" stroke="black" points="1736,-0.5 1736,-19.5 1842,-19.5 1842,-0.5 1736,-0.5"/>
<text text-anchor="middle" x="1789" y="-7.5" font-family="Helvetica,sans-Serif" font-size="10.00">src/rpc/mining.cpp</text>
</a>
</g>
</g>
<!-- Node5&#45;&gt;Node36 -->
<g id="edge43" class="edge">
<title>Node5&#45;&gt;Node36</title>
<path fill="none" stroke="midnightblue" d="M2146.7,-119.04C2142.28,-100.03 2132.47,-71.13 2112,-56 2070.28,-25.17 1922.78,-15.42 1842.32,-12.37"/>
<polygon fill="midnightblue" stroke="midnightblue" points="2143.29,-119.81 2148.73,-128.91 2150.14,-118.41 2143.29,-119.81"/>
</g>
<!-- Node5&#45;&gt;Node45 -->
<g id="edge46" class="edge">
<title>Node5&#45;&gt;Node45</title>
<path fill="none" stroke="midnightblue" d="M2086.59,-135.4C1875.38,-128.28 1206.72,-104.43 1164,-87 1128.21,-72.39 1097.28,-36.28 1084.39,-19.64"/>
<polygon fill="midnightblue" stroke="midnightblue" points="2086.77,-138.91 2096.89,-135.75 2087.01,-131.92 2086.77,-138.91"/>
</g>
<!-- Node65 -->
<g id="node24" class="node">
<title>Node65</title>
<g id="a_node24"><a xlink:href="miner_8cpp.html" target="_top" xlink:title=" ">
<polygon fill="white" stroke="black" points="1275,-62 1275,-81 1357,-81 1357,-62 1275,-62"/>
<text text-anchor="middle" x="1316" y="-69" font-family="Helvetica,sans-Serif" font-size="10.00">src/miner.cpp</text>
</a>
</g>
</g>
<!-- Node5&#45;&gt;Node65 -->
<g id="edge25" class="edge">
<title>Node5&#45;&gt;Node65</title>
<path fill="none" stroke="midnightblue" d="M2086.67,-137.52C1953.36,-136.65 1634.35,-129.84 1371,-87 1362.13,-85.56 1352.62,-83.31 1344.04,-81.01"/>
<polygon fill="midnightblue" stroke="midnightblue" points="2086.69,-141.02 2096.71,-137.57 2086.73,-134.02 2086.69,-141.02"/>
</g>
<!-- Node66 -->
<g id="node25" class="node">
<title>Node66</title>
<g id="a_node25"><a xlink:href="net_8h.html" target="_top" xlink:title=" ">
<polygon fill="white" stroke="red" points="991.5,-62 991.5,-81 1050.5,-81 1050.5,-62 991.5,-62"/>
<text text-anchor="middle" x="1021" y="-69" font-family="Helvetica,sans-Serif" font-size="10.00">src/net.h</text>
</a>
</g>
</g>
<!-- Node5&#45;&gt;Node66 -->
<g id="edge26" class="edge">
<title>Node5&#45;&gt;Node66</title>
<path fill="none" stroke="midnightblue" d="M2086.4,-135.55C1869.28,-128.74 1165.18,-105.48 1065,-87 1057.72,-85.66 1049.99,-83.41 1043.08,-81.08"/>
<polygon fill="midnightblue" stroke="midnightblue" points="2086.57,-139.05 2096.68,-135.87 2086.79,-132.06 2086.57,-139.05"/>
</g>
<!-- Node5&#45;&gt;Node92 -->
<g id="edge50" class="edge">
<title>Node5&#45;&gt;Node92</title>
<path fill="none" stroke="midnightblue" d="M2086.4,-135.69C1782.63,-127.05 493.96,-90.19 490,-87 469.66,-70.62 469.14,-36.06 470.16,-19.8"/>
<polygon fill="midnightblue" stroke="midnightblue" points="2086.69,-139.2 2096.79,-135.99 2086.89,-132.21 2086.69,-139.2"/>
</g>
<!-- Node70 -->
<g id="node27" class="node">
<title>Node70</title>
<g id="a_node27"><a xlink:href="net__processing_8cpp.html" target="_top" xlink:title=" ">
<polygon fill="white" stroke="black" points="1413,-62 1413,-81 1541,-81 1541,-62 1413,-62"/>
<text text-anchor="middle" x="1477" y="-69" font-family="Helvetica,sans-Serif" font-size="10.00">src/net_processing.cpp</text>
</a>
</g>
</g>
<!-- Node5&#45;&gt;Node70 -->
<g id="edge29" class="edge">
<title>Node5&#45;&gt;Node70</title>
<path fill="none" stroke="midnightblue" d="M2086.57,-134.5C1976.81,-128.8 1744.54,-114.42 1550,-87 1538.87,-85.43 1526.87,-83.25 1515.88,-81.06"/>
<polygon fill="midnightblue" stroke="midnightblue" points="2086.64,-138.01 2096.8,-135.03 2087,-131.02 2086.64,-138.01"/>
</g>
<!-- Node99 -->
<g id="node28" class="node">
<title>Node99</title>
<g id="a_node28"><a xlink:href="blockstorage_8cpp.html" target="_top" xlink:title=" ">
<polygon fill="white" stroke="black" points="1559,-62 1559,-81 1703,-81 1703,-62 1559,-62"/>
<text text-anchor="middle" x="1631" y="-69" font-family="Helvetica,sans-Serif" font-size="10.00">src/node/blockstorage.cpp</text>
</a>
</g>
</g>
<!-- Node5&#45;&gt;Node99 -->
<g id="edge30" class="edge">
<title>Node5&#45;&gt;Node99</title>
<path fill="none" stroke="midnightblue" d="M2086.9,-131.47C2001.63,-123.04 1844.99,-106.55 1712,-87 1700.27,-85.28 1687.63,-83.14 1675.91,-81.05"/>
<polygon fill="midnightblue" stroke="midnightblue" points="2086.64,-134.96 2096.93,-132.46 2087.33,-128 2086.64,-134.96"/>
</g>
<!-- Node72 -->
<g id="node29" class="node">
<title>Node72</title>
<g id="a_node29"><a xlink:href="node_2interfaces_8cpp.html" target="_top" xlink:title=" ">
<polygon fill="white" stroke="black" points="1721,-62 1721,-81 1851,-81 1851,-62 1721,-62"/>
<text text-anchor="middle" x="1786" y="-69" font-family="Helvetica,sans-Serif" font-size="10.00">src/node/interfaces.cpp</text>
</a>
</g>
</g>
<!-- Node5&#45;&gt;Node72 -->
<g id="edge31" class="edge">
<title>Node5&#45;&gt;Node72</title>
<path fill="none" stroke="midnightblue" d="M2088.91,-127.25C2030.17,-117.3 1938.93,-101.6 1860,-87 1849.83,-85.12 1838.89,-83.02 1828.62,-81.01"/>
<polygon fill="midnightblue" stroke="midnightblue" points="2088.68,-130.76 2099.13,-128.97 2089.85,-123.86 2088.68,-130.76"/>
</g>
<!-- Node100 -->
<g id="node30" class="node">
<title>Node100</title>
<g id="a_node30"><a xlink:href="bitcoin_8cpp.html" target="_top" xlink:title=" ">
<polygon fill="white" stroke="black" points="1869,-62 1869,-81 1969,-81 1969,-62 1869,-62"/>
<text text-anchor="middle" x="1919" y="-69" font-family="Helvetica,sans-Serif" font-size="10.00">src/qt/bitcoin.cpp</text>
</a>
</g>
</g>
<!-- Node5&#45;&gt;Node100 -->
<g id="edge32" class="edge">
<title>Node5&#45;&gt;Node100</title>
<path fill="none" stroke="midnightblue" d="M2109.45,-126.09C2063.76,-113.23 1990.5,-92.62 1949.43,-81.06"/>
<polygon fill="midnightblue" stroke="midnightblue" points="2108.75,-129.53 2119.32,-128.87 2110.65,-122.79 2108.75,-129.53"/>
</g>
<!-- Node80 -->
<g id="node31" class="node">
<title>Node80</title>
<g id="a_node31"><a xlink:href="bitcoingui_8cpp.html" target="_top" xlink:title=" ">
<polygon fill="white" stroke="black" points="1987.5,-62 1987.5,-81 2102.5,-81 2102.5,-62 1987.5,-62"/>
<text text-anchor="middle" x="2045" y="-69" font-family="Helvetica,sans-Serif" font-size="10.00">src/qt/bitcoingui.cpp</text>
</a>
</g>
</g>
<!-- Node5&#45;&gt;Node80 -->
<g id="edge33" class="edge">
<title>Node5&#45;&gt;Node80</title>
<path fill="none" stroke="midnightblue" d="M2127.29,-123.44C2106.5,-110.57 2076.38,-91.93 2058.94,-81.13"/>
<polygon fill="midnightblue" stroke="midnightblue" points="2125.49,-126.45 2135.84,-128.73 2129.18,-120.49 2125.49,-126.45"/>
</g>
<!-- Node101 -->
<g id="node32" class="node">
<title>Node101</title>
<g id="a_node32"><a xlink:href="intro_8cpp.html" target="_top" xlink:title=" ">
<polygon fill="white" stroke="black" points="2197.5,-62 2197.5,-81 2286.5,-81 2286.5,-62 2197.5,-62"/>
<text text-anchor="middle" x="2242" y="-69" font-family="Helvetica,sans-Serif" font-size="10.00">src/qt/intro.cpp</text>
</a>
</g>
</g>
<!-- Node5&#45;&gt;Node101 -->
<g id="edge35" class="edge">
<title>Node5&#45;&gt;Node101</title>
<path fill="none" stroke="midnightblue" d="M2170.64,-122.92C2188.82,-110.07 2214.71,-91.78 2229.79,-81.13"/>
<polygon fill="midnightblue" stroke="midnightblue" points="2168.56,-120.1 2162.41,-128.73 2172.59,-125.82 2168.56,-120.1"/>
</g>
<!-- Node102 -->
<g id="node33" class="node">
<title>Node102</title>
<g id="a_node33"><a xlink:href="modaloverlay_8cpp.html" target="_top" xlink:title=" ">
<polygon fill="white" stroke="black" points="2304.5,-62 2304.5,-81 2437.5,-81 2437.5,-62 2304.5,-62"/>
<text text-anchor="middle" x="2371" y="-69" font-family="Helvetica,sans-Serif" font-size="10.00">src/qt/modaloverlay.cpp</text>
</a>
</g>
</g>
<!-- Node5&#45;&gt;Node102 -->
<g id="edge36" class="edge">
<title>Node5&#45;&gt;Node102</title>
<path fill="none" stroke="midnightblue" d="M2189.07,-126.01C2232.81,-113.15 2302.68,-92.59 2341.88,-81.06"/>
<polygon fill="midnightblue" stroke="midnightblue" points="2187.95,-122.69 2179.35,-128.87 2189.93,-129.4 2187.95,-122.69"/>
</g>
<!-- Node82 -->
<g id="node34" class="node">
<title>Node82</title>
<g id="a_node34"><a xlink:href="rpcconsole_8cpp.html" target="_top" xlink:title=" ">
<polygon fill="white" stroke="black" points="2455.5,-62 2455.5,-81 2574.5,-81 2574.5,-62 2455.5,-62"/>
<text text-anchor="middle" x="2515" y="-69" font-family="Helvetica,sans-Serif" font-size="10.00">src/qt/rpcconsole.cpp</text>
</a>
</g>
</g>
<!-- Node5&#45;&gt;Node82 -->
<g id="edge38" class="edge">
<title>Node5&#45;&gt;Node82</title>
<path fill="none" stroke="midnightblue" d="M2213.35,-127.51C2273.57,-117.83 2366.63,-102.39 2447,-87 2456.48,-85.18 2466.68,-83.09 2476.22,-81.06"/>
<polygon fill="midnightblue" stroke="midnightblue" points="2212.55,-124.1 2203.23,-129.13 2213.66,-131.01 2212.55,-124.1"/>
</g>
<!-- Node83 -->
<g id="node35" class="node">
<title>Node83</title>
<g id="a_node35"><a xlink:href="apptests_8cpp.html" target="_top" xlink:title=" ">
<polygon fill="white" stroke="black" points="4133.5,-62 4133.5,-81 4264.5,-81 4264.5,-62 4133.5,-62"/>
<text text-anchor="middle" x="4199" y="-69" font-family="Helvetica,sans-Serif" font-size="10.00">src/qt/test/apptests.cpp</text>
</a>
</g>
</g>
<!-- Node5&#45;&gt;Node83 -->
<g id="edge40" class="edge">
<title>Node5&#45;&gt;Node83</title>
<path fill="none" stroke="midnightblue" d="M2213.13,-137.29C2506.74,-136.1 3740.66,-128.67 4124,-87 4136.26,-85.67 4149.51,-83.39 4161.42,-81.03"/>
<polygon fill="midnightblue" stroke="midnightblue" points="2213.07,-133.79 2203.08,-137.33 2213.1,-140.79 2213.07,-133.79"/>
</g>
<!-- Node103 -->
<g id="node36" class="node">
<title>Node103</title>
<g id="a_node36"><a xlink:href="rest_8cpp.html" target="_top" xlink:title=" ">
<polygon fill="white" stroke="black" points="2592.5,-62 2592.5,-81 2665.5,-81 2665.5,-62 2592.5,-62"/>
<text text-anchor="middle" x="2629" y="-69" font-family="Helvetica,sans-Serif" font-size="10.00">src/rest.cpp</text>
</a>
</g>
</g>
<!-- Node5&#45;&gt;Node103 -->
<g id="edge41" class="edge">
<title>Node5&#45;&gt;Node103</title>
<path fill="none" stroke="midnightblue" d="M2213.35,-134.03C2298.44,-128.48 2454,-115.22 2584,-87 2591.06,-85.47 2598.58,-83.28 2605.42,-81.06"/>
<polygon fill="midnightblue" stroke="midnightblue" points="2213.08,-130.54 2203.33,-134.66 2213.53,-137.52 2213.08,-130.54"/>
</g>
<!-- Node104 -->
<g id="node37" class="node">
<title>Node104</title>
<g id="a_node37"><a xlink:href="blockchain_8cpp.html" target="_top" xlink:title=" ">
<polygon fill="white" stroke="black" points="2683.5,-62 2683.5,-81 2808.5,-81 2808.5,-62 2683.5,-62"/>
<text text-anchor="middle" x="2746" y="-69" font-family="Helvetica,sans-Serif" font-size="10.00">src/rpc/blockchain.cpp</text>
</a>
</g>
</g>
<!-- Node5&#45;&gt;Node104 -->
<g id="edge42" class="edge">
<title>Node5&#45;&gt;Node104</title>
<path fill="none" stroke="midnightblue" d="M2213.26,-133.58C2312.16,-126.97 2509.26,-111.82 2675,-87 2685.7,-85.4 2697.22,-83.24 2707.81,-81.07"/>
<polygon fill="midnightblue" stroke="midnightblue" points="2212.88,-130.1 2203.13,-134.25 2213.34,-137.08 2212.88,-130.1"/>
</g>
<!-- Node5&#45;&gt;Node110 -->
<g id="edge44" class="edge">
<title>Node5&#45;&gt;Node110</title>
<path fill="none" stroke="midnightblue" d="M2213.37,-137.52C2496.22,-137.36 3645.04,-133.78 4002,-87 4004.91,-86.62 4007.89,-86.16 4010.89,-85.63"/>
<polygon fill="midnightblue" stroke="midnightblue" points="2213.28,-134.02 2203.28,-137.53 2213.29,-141.02 2213.28,-134.02"/>
</g>
<!-- Node5&#45;&gt;Node111 -->
<g id="edge45" class="edge">
<title>Node5&#45;&gt;Node111</title>
<path fill="none" stroke="midnightblue" d="M2213.61,-137.41C2533.08,-136.74 3964.51,-131.29 4407,-87 4420.22,-85.68 4434.52,-83.4 4447.38,-81.04"/>
<polygon fill="midnightblue" stroke="midnightblue" points="2213.15,-133.91 2203.16,-137.43 2213.17,-140.91 2213.15,-133.91"/>
</g>
<!-- Node5&#45;&gt;Node114 -->
<g id="edge47" class="edge">
<title>Node5&#45;&gt;Node114</title>
<path fill="none" stroke="midnightblue" d="M2213.39,-137.64C2520.98,-138.05 3860.09,-136.92 4274,-87 4284.83,-85.69 4296.5,-83.42 4306.98,-81.06"/>
<polygon fill="midnightblue" stroke="midnightblue" points="2213.31,-134.14 2203.31,-137.62 2213.3,-141.14 2213.31,-134.14"/>
</g>
<!-- Node5&#45;&gt;Node117 -->
<g id="edge48" class="edge">
<title>Node5&#45;&gt;Node117</title>
<path fill="none" stroke="midnightblue" d="M2213.21,-136.98C2458.16,-134.71 3344.99,-124.04 3624,-87 3626.85,-86.62 3629.76,-86.17 3632.69,-85.67"/>
<polygon fill="midnightblue" stroke="midnightblue" points="2213.02,-133.48 2203.06,-137.07 2213.09,-140.48 2213.02,-133.48"/>
</g>
<!-- Node5&#45;&gt;Node118 -->
<g id="edge49" class="edge">
<title>Node5&#45;&gt;Node118</title>
<path fill="none" stroke="midnightblue" d="M2213.31,-137.17C2471.23,-135.59 3443.48,-127.02 3748,-87 3750.85,-86.63 3753.76,-86.18 3756.69,-85.67"/>
<polygon fill="midnightblue" stroke="midnightblue" points="2212.98,-133.68 2203,-137.24 2213.02,-140.68 2212.98,-133.68"/>
</g>
<!-- Node18&#45;&gt;Node25 -->
<g id="edge20" class="edge">
<title>Node18&#45;&gt;Node25</title>
<path fill="none" stroke="midnightblue" d="M1252.98,-59.03C1257.32,-57.84 1261.74,-56.78 1266,-56 1301.62,-49.45 1825.03,-22.04 1989.76,-13.53"/>
<polygon fill="midnightblue" stroke="midnightblue" points="1251.69,-55.77 1243.12,-61.99 1253.7,-62.47 1251.69,-55.77"/>
</g>
<!-- Node18&#45;&gt;Node26 -->
<g id="edge21" class="edge">
<title>Node18&#45;&gt;Node26</title>
<path fill="none" stroke="midnightblue" d="M1221.26,-51.82C1221.98,-41 1222.86,-27.9 1223.43,-19.51"/>
<polygon fill="midnightblue" stroke="midnightblue" points="1217.75,-51.76 1220.57,-61.98 1224.74,-52.23 1217.75,-51.76"/>
</g>
<!-- Node18&#45;&gt;Node29 -->
<g id="edge22" class="edge">
<title>Node18&#45;&gt;Node29</title>
<path fill="none" stroke="midnightblue" d="M1253.05,-58.58C1285.12,-47.02 1333,-29.75 1361.4,-19.51"/>
<polygon fill="midnightblue" stroke="midnightblue" points="1251.86,-55.29 1243.64,-61.98 1254.23,-61.88 1251.86,-55.29"/>
</g>
<!-- Node18&#45;&gt;Node36 -->
<g id="edge23" class="edge">
<title>Node18&#45;&gt;Node36</title>
<path fill="none" stroke="midnightblue" d="M1253.29,-59.07C1257.53,-57.89 1261.84,-56.82 1266,-56 1435.41,-22.44 1640.59,-13.9 1735.76,-11.74"/>
<polygon fill="midnightblue" stroke="midnightblue" points="1252.19,-55.74 1243.62,-61.96 1254.2,-62.45 1252.19,-55.74"/>
</g>
<!-- Node18&#45;&gt;Node45 -->
<g id="edge24" class="edge">
<title>Node18&#45;&gt;Node45</title>
<path fill="none" stroke="midnightblue" d="M1190.12,-57.98C1162.54,-46.42 1122.33,-29.58 1098.31,-19.51"/>
<polygon fill="midnightblue" stroke="midnightblue" points="1189.08,-61.34 1199.65,-61.98 1191.78,-54.88 1189.08,-61.34"/>
</g>
<!-- Node66&#45;&gt;Node17 -->
<g id="edge27" class="edge">
<title>Node66&#45;&gt;Node17</title>
<path fill="none" stroke="midnightblue" d="M1006.48,-54.5C996.26,-43.24 982.98,-28.6 974.72,-19.51"/>
<polygon fill="midnightblue" stroke="midnightblue" points="1003.95,-56.92 1013.26,-61.98 1009.13,-52.22 1003.95,-56.92"/>
</g>
<!-- Node66&#45;&gt;Node92 -->
<g id="edge28" class="edge">
<title>Node66&#45;&gt;Node92</title>
<path fill="none" stroke="midnightblue" d="M992.13,-58.54C989.08,-57.57 986,-56.69 983,-56 817.12,-17.84 614.18,-11.57 521.5,-10.84"/>
<polygon fill="midnightblue" stroke="midnightblue" points="991.01,-61.86 1001.6,-61.91 993.35,-55.26 991.01,-61.86"/>
</g>
<!-- Node144&#45;&gt;Node110 -->
<g id="edge62" class="edge">
<title>Node144&#45;&gt;Node110</title>
<path fill="none" stroke="midnightblue" d="M3869.94,-126.13C3909.61,-115.11 3969.87,-98.37 4012.5,-86.53"/>
<polygon fill="midnightblue" stroke="midnightblue" points="3868.77,-122.82 3860.07,-128.87 3870.65,-129.56 3868.77,-122.82"/>
</g>
<!-- Node144&#45;&gt;Node111 -->
<g id="edge63" class="edge">
<title>Node144&#45;&gt;Node111</title>
<path fill="none" stroke="midnightblue" d="M3871.16,-126.69C3877.77,-125.27 3884.54,-123.97 3891,-123 4118.32,-88.71 4178.86,-115.3 4407,-87 4419.48,-85.45 4432.95,-83.26 4445.25,-81.04"/>
<polygon fill="midnightblue" stroke="midnightblue" points="3869.97,-123.37 3860.99,-128.99 3871.52,-130.2 3869.97,-123.37"/>
</g>
<!-- Node144&#45;&gt;Node114 -->
<g id="edge64" class="edge">
<title>Node144&#45;&gt;Node114</title>
<path fill="none" stroke="midnightblue" d="M3871.62,-126.73C3878.09,-125.33 3884.7,-124.03 3891,-123 4059.74,-95.47 4105.08,-113.39 4274,-87 4284.08,-85.42 4294.94,-83.25 4304.87,-81.05"/>
<polygon fill="midnightblue" stroke="midnightblue" points="3870.63,-123.37 3861.65,-128.99 3872.18,-130.19 3870.63,-123.37"/>
</g>
<!-- Node144&#45;&gt;Node117 -->
<g id="edge65" class="edge">
<title>Node144&#45;&gt;Node117</title>
<path fill="none" stroke="midnightblue" d="M3800.67,-124.62C3776.48,-113.63 3741.75,-97.84 3716.86,-86.53"/>
<polygon fill="midnightblue" stroke="midnightblue" points="3799.46,-127.92 3810.01,-128.87 3802.36,-121.54 3799.46,-127.92"/>
</g>
<!-- Node144&#45;&gt;Node118 -->
<g id="edge66" class="edge">
<title>Node144&#45;&gt;Node118</title>
<path fill="none" stroke="midnightblue" d="M3823.61,-119.06C3820.6,-108.75 3816.9,-96.1 3814.12,-86.59"/>
<polygon fill="midnightblue" stroke="midnightblue" points="3820.27,-120.12 3826.44,-128.73 3826.99,-118.15 3820.27,-120.12"/>
</g>
<!-- Node144&#45;&gt;Node203 -->
<g id="edge67" class="edge">
<title>Node144&#45;&gt;Node203</title>
<path fill="none" stroke="midnightblue" d="M3870.45,-126.74C3877.28,-125.28 3884.31,-123.95 3891,-123 4189.75,-80.48 4269.58,-124.49 4569,-87 4571.95,-86.63 4574.96,-86.21 4577.99,-85.75"/>
<polygon fill="midnightblue" stroke="midnightblue" points="3869.63,-123.34 3860.66,-128.96 3871.18,-130.16 3869.63,-123.34"/>
</g>
<!-- Node205&#45;&gt;Node8 -->
<g id="edge70" class="edge">
<title>Node205&#45;&gt;Node8</title>
<path fill="none" stroke="midnightblue" d="M3945.18,-113.4C3943.37,-104.37 3941.38,-94.41 3939.82,-86.58"/>
<polygon fill="midnightblue" stroke="midnightblue" points="3941.79,-114.28 3947.18,-123.4 3948.65,-112.9 3941.79,-114.28"/>
</g>
<!-- Node205&#45;&gt;Node83 -->
<g id="edge71" class="edge">
<title>Node205&#45;&gt;Node83</title>
<path fill="none" stroke="midnightblue" d="M4010.55,-121.69C4059.56,-108.9 4126.73,-91.37 4166.23,-81.06"/>
<polygon fill="midnightblue" stroke="midnightblue" points="4009.48,-118.36 4000.69,-124.27 4011.25,-125.13 4009.48,-118.36"/>
</g>
<!-- Node205&#45;&gt;Node110 -->
<g id="edge72" class="edge">
<title>Node205&#45;&gt;Node110</title>
<path fill="none" stroke="midnightblue" d="M3983.39,-118.3C4001.07,-108.12 4022.4,-95.85 4038.53,-86.58"/>
<polygon fill="midnightblue" stroke="midnightblue" points="3981.44,-115.38 3974.52,-123.4 3984.93,-121.44 3981.44,-115.38"/>
</g>
<!-- Node205&#45;&gt;Node111 -->
<g id="edge73" class="edge">
<title>Node205&#45;&gt;Node111</title>
<path fill="none" stroke="midnightblue" d="M4010.74,-123.06C4186.57,-94.71 4234.67,-110.19 4407,-87 4419.18,-85.36 4432.31,-83.19 4444.39,-81.02"/>
<polygon fill="midnightblue" stroke="midnightblue" points="4009.94,-119.64 4000.63,-124.71 4011.07,-126.55 4009.94,-119.64"/>
</g>
<!-- Node205&#45;&gt;Node114 -->
<g id="edge74" class="edge">
<title>Node205&#45;&gt;Node114</title>
<path fill="none" stroke="midnightblue" d="M4010.76,-122.99C4128.13,-101.41 4160.6,-107.16 4274,-87 4283.7,-85.28 4294.14,-83.12 4303.79,-81.01"/>
<polygon fill="midnightblue" stroke="midnightblue" points="4009.85,-119.6 4000.66,-124.87 4011.13,-126.48 4009.85,-119.6"/>
</g>
<!-- Node205&#45;&gt;Node203 -->
<g id="edge75" class="edge">
<title>Node205&#45;&gt;Node203</title>
<path fill="none" stroke="midnightblue" d="M4010.63,-123.11C4257.91,-86.5 4325.4,-118.9 4569,-87 4571.95,-86.61 4574.95,-86.18 4577.98,-85.71"/>
<polygon fill="midnightblue" stroke="midnightblue" points="4009.99,-119.67 4000.62,-124.62 4011.03,-126.59 4009.99,-119.67"/>
</g>
</g>
</svg>
