<?xml version="1.0" encoding="UTF-8" standalone="no"?>
<!DOCTYPE svg PUBLIC "-//W3C//DTD SVG 1.1//EN"
 "http://www.w3.org/Graphics/SVG/1.1/DTD/svg11.dtd">
<!-- Generated by graphviz version 2.38.0 (20140413.2041)
 -->
<!-- Title: CFeeRate::ToString Pages: 1 -->
<svg width="1011pt" height="269pt"
 viewBox="0.00 0.00 1011.00 269.15" xmlns="http://www.w3.org/2000/svg" xmlns:xlink="http://www.w3.org/1999/xlink">
<g id="graph0" class="graph" transform="scale(1 1) rotate(0) translate(4 265.152)">
<title>CFeeRate::ToString</title>
<polygon fill="white" stroke="none" points="-4,4 -4,-265.152 1007,-265.152 1007,4 -4,4"/>
<!-- Node1 -->
<g id="node1" class="node"><title>Node1</title>
<polygon fill="#bfbfbf" stroke="black" points="0,-107.652 0,-126.652 106,-126.652 106,-107.652 0,-107.652"/>
<text text-anchor="middle" x="53" y="-114.652" font-family="Helvetica,sans-Serif" font-size="10.00">CFeeRate::ToString</text>
</g>
<!-- Node2 -->
<g id="node2" class="node"><title>Node2</title>
<g id="a_node2"><a xlink:href="init_8h.html#a8c93f3a0ec8f251966c4de603f33e56a" target="_top" xlink:title="Initialization: parameter interaction. ">
<polygon fill="white" stroke="black" points="144.5,-221.652 144.5,-240.652 295.5,-240.652 295.5,-221.652 144.5,-221.652"/>
<text text-anchor="middle" x="220" y="-228.652" font-family="Helvetica,sans-Serif" font-size="10.00">AppInitParameterInteraction</text>
</a>
</g>
</g>
<!-- Node1&#45;&gt;Node2 -->
<g id="edge1" class="edge"><title>Node1&#45;&gt;Node2</title>
<path fill="none" stroke="midnightblue" d="M65.5782,-134.969C80.5806,-156.588 108.788,-192.568 142,-212.152 148.523,-215.998 155.798,-219.069 163.2,-221.519"/>
<polygon fill="midnightblue" stroke="midnightblue" points="68.4752,-133.005 59.9809,-126.673 62.6724,-136.92 68.4752,-133.005"/>
</g>
<!-- Node3 -->
<g id="node3" class="node"><title>Node3</title>
<g id="a_node3"><a xlink:href="class_c_wallet.html#a00d12e080cca1a55e7b6d6c74c235a09" target="_top" xlink:title="CWallet::CreateWalletFromFile">
<polygon fill="white" stroke="black" points="142,-183.652 142,-202.652 298,-202.652 298,-183.652 142,-183.652"/>
<text text-anchor="middle" x="220" y="-190.652" font-family="Helvetica,sans-Serif" font-size="10.00">CWallet::CreateWalletFromFile</text>
</a>
</g>
</g>
<!-- Node1&#45;&gt;Node3 -->
<g id="edge2" class="edge"><title>Node1&#45;&gt;Node3</title>
<path fill="none" stroke="midnightblue" d="M76.5859,-132.479C93.9158,-143.742 118.737,-158.821 142,-169.152 154.797,-174.835 169.346,-179.74 182.325,-183.608"/>
<polygon fill="midnightblue" stroke="midnightblue" points="78.0599,-129.258 67.7864,-126.669 74.2028,-135.099 78.0599,-129.258"/>
</g>
<!-- Node10 -->
<g id="node10" class="node"><title>Node10</title>
<g id="a_node10"><a xlink:href="rpcwallet_8cpp.html#a74b85c92ee6a84277c73b74f2e212bff" target="_top" xlink:title="listtransactions">
<polygon fill="white" stroke="black" points="376,-145.652 376,-164.652 465,-164.652 465,-145.652 376,-145.652"/>
<text text-anchor="middle" x="420.5" y="-152.652" font-family="Helvetica,sans-Serif" font-size="10.00">listtransactions</text>
</a>
</g>
</g>
<!-- Node1&#45;&gt;Node10 -->
<g id="edge21" class="edge"><title>Node1&#45;&gt;Node10</title>
<path fill="none" stroke="midnightblue" d="M102.354,-128.903C115.176,-131.658 129.056,-134.321 142,-136.152 224.001,-147.749 320.674,-152.335 375.559,-154.099"/>
<polygon fill="midnightblue" stroke="midnightblue" points="102.856,-125.429 92.3361,-126.687 101.344,-132.264 102.856,-125.429"/>
</g>
<!-- Node12 -->
<g id="node12" class="node"><title>Node12</title>
<g id="a_node12"><a xlink:href="class_block_assembler.html#a3bb43b38f5af6bac3cdeb9c811865884" target="_top" xlink:title="Add a tx to the block. ">
<polygon fill="white" stroke="black" points="143.5,-107.652 143.5,-126.652 296.5,-126.652 296.5,-107.652 143.5,-107.652"/>
<text text-anchor="middle" x="220" y="-114.652" font-family="Helvetica,sans-Serif" font-size="10.00">BlockAssembler::AddToBlock</text>
</a>
</g>
</g>
<!-- Node1&#45;&gt;Node12 -->
<g id="edge11" class="edge"><title>Node1&#45;&gt;Node12</title>
<path fill="none" stroke="midnightblue" d="M116.367,-117.152C125.171,-117.152 134.301,-117.152 143.321,-117.152"/>
<polygon fill="midnightblue" stroke="midnightblue" points="116.207,-113.652 106.207,-117.152 116.207,-120.652 116.207,-113.652"/>
</g>
<!-- Node15 -->
<g id="node15" class="node"><title>Node15</title>
<g id="a_node15"><a xlink:href="class_c_fee_rate.html#a1fbba9885f4a29778458333b6c780bb9" target="_top" xlink:title="CFeeRate::operator+=">
<polygon fill="white" stroke="black" points="157.5,-69.6515 157.5,-88.6515 282.5,-88.6515 282.5,-69.6515 157.5,-69.6515"/>
<text text-anchor="middle" x="220" y="-76.6515" font-family="Helvetica,sans-Serif" font-size="10.00">CFeeRate::operator+=</text>
</a>
</g>
</g>
<!-- Node1&#45;&gt;Node15 -->
<g id="edge14" class="edge"><title>Node1&#45;&gt;Node15</title>
<path fill="none" stroke="midnightblue" d="M105.654,-105.255C128.846,-99.9141 155.838,-93.6978 177.663,-88.6716"/>
<polygon fill="midnightblue" stroke="midnightblue" points="104.596,-101.907 95.6365,-107.563 106.167,-108.729 104.596,-101.907"/>
</g>
<!-- Node16 -->
<g id="node16" class="node"><title>Node16</title>
<g id="a_node16"><a xlink:href="class_c_tx_mem_pool.html#adb0214b2760eaedf15eb351348bc4f43" target="_top" xlink:title="Remove transactions from the mempool until its dynamic size is &lt;= sizelimit. ">
<polygon fill="white" stroke="black" points="153,-31.6515 153,-50.6515 287,-50.6515 287,-31.6515 153,-31.6515"/>
<text text-anchor="middle" x="220" y="-38.6515" font-family="Helvetica,sans-Serif" font-size="10.00">CTxMemPool::TrimToSize</text>
</a>
</g>
</g>
<!-- Node1&#45;&gt;Node16 -->
<g id="edge15" class="edge"><title>Node1&#45;&gt;Node16</title>
<path fill="none" stroke="midnightblue" d="M74.2152,-101.253C91.3728,-88.4694 117.104,-70.9232 142,-60.1515 150.719,-56.3789 160.332,-53.2596 169.724,-50.7156"/>
<polygon fill="midnightblue" stroke="midnightblue" points="71.9163,-98.6038 66.0742,-107.442 76.153,-104.176 71.9163,-98.6038"/>
</g>
<!-- Node17 -->
<g id="node17" class="node"><title>Node17</title>
<g id="a_node17"><a xlink:href="validation_8h.html#a666c20fae7b9d75f2d9f4fedd059995a" target="_top" xlink:title="Check if transaction will be BIP 68 final in the next block to be created. ">
<polygon fill="white" stroke="black" points="360,-12.6515 360,-31.6515 481,-31.6515 481,-12.6515 360,-12.6515"/>
<text text-anchor="middle" x="420.5" y="-19.6515" font-family="Helvetica,sans-Serif" font-size="10.00">CheckSequenceLocks</text>
</a>
</g>
</g>
<!-- Node1&#45;&gt;Node17 -->
<g id="edge20" class="edge"><title>Node1&#45;&gt;Node17</title>
<path fill="none" stroke="midnightblue" d="M64.4516,-98.6772C78.6207,-75.7407 106.307,-37.7421 142,-22.1515 220.586,12.174 324.048,-1.23439 379.8,-12.5917"/>
<polygon fill="midnightblue" stroke="midnightblue" points="61.3228,-97.0911 59.2228,-107.476 67.3404,-100.667 61.3228,-97.0911"/>
</g>
<!-- Node4 -->
<g id="node4" class="node"><title>Node4</title>
<g id="a_node4"><a xlink:href="wallet_2wallet_8h.html#ab115d1b86c25902d2a32d7a919382bd1" target="_top" xlink:title="LoadWallet">
<polygon fill="white" stroke="black" points="386.5,-221.652 386.5,-240.652 454.5,-240.652 454.5,-221.652 386.5,-221.652"/>
<text text-anchor="middle" x="420.5" y="-228.652" font-family="Helvetica,sans-Serif" font-size="10.00">LoadWallet</text>
</a>
</g>
</g>
<!-- Node3&#45;&gt;Node4 -->
<g id="edge3" class="edge"><title>Node3&#45;&gt;Node4</title>
<path fill="none" stroke="midnightblue" d="M280.848,-204.609C315.49,-211.24 357.777,-219.336 386.476,-224.83"/>
<polygon fill="midnightblue" stroke="midnightblue" points="281.313,-201.134 270.834,-202.691 279.997,-208.009 281.313,-201.134"/>
</g>
<!-- Node9 -->
<g id="node9" class="node"><title>Node9</title>
<g id="a_node9"><a xlink:href="load_8h.html#aae72a893f3fdc7a8287e9108a1a69915" target="_top" xlink:title="Load wallet databases. ">
<polygon fill="white" stroke="black" points="384,-183.652 384,-202.652 457,-202.652 457,-183.652 384,-183.652"/>
<text text-anchor="middle" x="420.5" y="-190.652" font-family="Helvetica,sans-Serif" font-size="10.00">LoadWallets</text>
</a>
</g>
</g>
<!-- Node3&#45;&gt;Node9 -->
<g id="edge8" class="edge"><title>Node3&#45;&gt;Node9</title>
<path fill="none" stroke="midnightblue" d="M308.194,-193.152C334.909,-193.152 362.807,-193.152 383.991,-193.152"/>
<polygon fill="midnightblue" stroke="midnightblue" points="308.029,-189.652 298.029,-193.152 308.029,-196.652 308.029,-189.652"/>
</g>
<!-- Node3&#45;&gt;Node10 -->
<g id="edge9" class="edge"><title>Node3&#45;&gt;Node10</title>
<path fill="none" stroke="midnightblue" d="M280.935,-181.678C311.451,-175.836 347.881,-168.862 375.728,-163.531"/>
<polygon fill="midnightblue" stroke="midnightblue" points="279.997,-178.294 270.834,-183.612 281.313,-185.169 279.997,-178.294"/>
</g>
<!-- Node5 -->
<g id="node5" class="node"><title>Node5</title>
<g id="a_node5"><a xlink:href="wallet_2wallet_8cpp.html#a1e3b0724aabb0c37fda10ce9f4c86432" target="_top" xlink:title="LoadWallet">
<polygon fill="white" stroke="black" points="590.5,-241.652 590.5,-260.652 658.5,-260.652 658.5,-241.652 590.5,-241.652"/>
<text text-anchor="middle" x="624.5" y="-248.652" font-family="Helvetica,sans-Serif" font-size="10.00">LoadWallet</text>
</a>
</g>
</g>
<!-- Node4&#45;&gt;Node5 -->
<g id="edge4" class="edge"><title>Node4&#45;&gt;Node5</title>
<path fill="none" stroke="midnightblue" d="M465.016,-235.46C502.642,-239.185 556.224,-244.491 590.43,-247.877"/>
<polygon fill="midnightblue" stroke="midnightblue" points="465.152,-231.957 454.856,-234.454 464.463,-238.922 465.152,-231.957"/>
</g>
<!-- Node6 -->
<g id="node6" class="node"><title>Node6</title>
<g id="a_node6"><a xlink:href="class_c_wallet.html#a112db1b8ea4c0bc36d6674ffeaaa55a7" target="_top" xlink:title="CWallet::GetAllReserveKeys">
<polygon fill="white" stroke="black" points="552,-203.652 552,-222.652 697,-222.652 697,-203.652 552,-203.652"/>
<text text-anchor="middle" x="624.5" y="-210.652" font-family="Helvetica,sans-Serif" font-size="10.00">CWallet::GetAllReserveKeys</text>
</a>
</g>
</g>
<!-- Node4&#45;&gt;Node6 -->
<g id="edge5" class="edge"><title>Node4&#45;&gt;Node6</title>
<path fill="none" stroke="midnightblue" d="M464.894,-227.285C490.25,-225.025 522.882,-222.117 551.949,-219.527"/>
<polygon fill="midnightblue" stroke="midnightblue" points="464.506,-223.805 454.856,-228.179 465.127,-230.778 464.506,-223.805"/>
</g>
<!-- Node7 -->
<g id="node7" class="node"><title>Node7</title>
<g id="a_node7"><a xlink:href="wallet__tests_8cpp.html#a73ce3a42e0b56b2e4516e55871d8590e" target="_top" xlink:title="dumpwallet">
<polygon fill="white" stroke="black" points="742,-203.652 742,-222.652 813,-222.652 813,-203.652 742,-203.652"/>
<text text-anchor="middle" x="777.5" y="-210.652" font-family="Helvetica,sans-Serif" font-size="10.00">dumpwallet</text>
</a>
</g>
</g>
<!-- Node6&#45;&gt;Node7 -->
<g id="edge6" class="edge"><title>Node6&#45;&gt;Node7</title>
<path fill="none" stroke="midnightblue" d="M707.23,-213.152C719.357,-213.152 731.268,-213.152 741.701,-213.152"/>
<polygon fill="midnightblue" stroke="midnightblue" points="707.02,-209.652 697.02,-213.152 707.02,-216.652 707.02,-209.652"/>
</g>
<!-- Node8 -->
<g id="node8" class="node"><title>Node8</title>
<g id="a_node8"><a xlink:href="wallet__tests_8cpp.html#a2a726fa52b0a343883cb50a3f68d0989" target="_top" xlink:title="BOOST_FIXTURE_TEST_CASE">
<polygon fill="white" stroke="black" points="849,-203.652 849,-222.652 1003,-222.652 1003,-203.652 849,-203.652"/>
<text text-anchor="middle" x="926" y="-210.652" font-family="Helvetica,sans-Serif" font-size="10.00">BOOST_FIXTURE_TEST_CASE</text>
</a>
</g>
</g>
<!-- Node7&#45;&gt;Node8 -->
<g id="edge7" class="edge"><title>Node7&#45;&gt;Node8</title>
<path fill="none" stroke="midnightblue" d="M823.242,-213.152C831.422,-213.152 840.165,-213.152 848.961,-213.152"/>
<polygon fill="midnightblue" stroke="midnightblue" points="823.218,-209.652 813.218,-213.152 823.218,-216.652 823.218,-209.652"/>
</g>
<!-- Node11 -->
<g id="node11" class="node"><title>Node11</title>
<g id="a_node11"><a xlink:href="rpcwallet_8cpp.html#afca55ac7a3c6c274b8b7b3e6eab9cd86" target="_top" xlink:title="walletcreatefundedpsbt">
<polygon fill="white" stroke="black" points="560.5,-146.652 560.5,-165.652 688.5,-165.652 688.5,-146.652 560.5,-146.652"/>
<text text-anchor="middle" x="624.5" y="-153.652" font-family="Helvetica,sans-Serif" font-size="10.00">walletcreatefundedpsbt</text>
</a>
</g>
</g>
<!-- Node10&#45;&gt;Node11 -->
<g id="edge10" class="edge"><title>Node10&#45;&gt;Node11</title>
<path fill="none" stroke="midnightblue" d="M475.411,-155.418C501.497,-155.548 532.983,-155.703 560.203,-155.838"/>
<polygon fill="midnightblue" stroke="midnightblue" points="475.348,-151.918 465.331,-155.369 475.314,-158.918 475.348,-151.918"/>
</g>
<!-- Node13 -->
<g id="node13" class="node"><title>Node13</title>
<g id="a_node13"><a xlink:href="class_block_assembler.html#ac88956b3067e44661e837505d1540aa0" target="_top" xlink:title="Add transactions based on feerate including unconfirmed ancestors Increments nPackagesSelected / nDes...">
<polygon fill="white" stroke="black" points="334,-104.652 334,-123.652 507,-123.652 507,-104.652 334,-104.652"/>
<text text-anchor="middle" x="420.5" y="-111.652" font-family="Helvetica,sans-Serif" font-size="10.00">BlockAssembler::addPackageTxs</text>
</a>
</g>
</g>
<!-- Node12&#45;&gt;Node13 -->
<g id="edge12" class="edge"><title>Node12&#45;&gt;Node13</title>
<path fill="none" stroke="midnightblue" d="M306.683,-115.857C315.676,-115.721 324.821,-115.582 333.814,-115.447"/>
<polygon fill="midnightblue" stroke="midnightblue" points="306.557,-112.358 296.611,-116.009 306.662,-119.357 306.557,-112.358"/>
</g>
<!-- Node14 -->
<g id="node14" class="node"><title>Node14</title>
<g id="a_node14"><a xlink:href="class_block_assembler.html#acd45f01ed2556e805c82907def19efcb" target="_top" xlink:title="Construct a new block template with coinbase to scriptPubKeyIn. ">
<polygon fill="white" stroke="black" points="548.5,-97.1515 548.5,-127.152 700.5,-127.152 700.5,-97.1515 548.5,-97.1515"/>
<text text-anchor="start" x="556.5" y="-115.152" font-family="Helvetica,sans-Serif" font-size="10.00">BlockAssembler::CreateNew</text>
<text text-anchor="middle" x="624.5" y="-104.152" font-family="Helvetica,sans-Serif" font-size="10.00">Block</text>
</a>
</g>
</g>
<!-- Node13&#45;&gt;Node14 -->
<g id="edge13" class="edge"><title>Node13&#45;&gt;Node14</title>
<path fill="none" stroke="midnightblue" d="M517.464,-113.201C527.802,-113.099 538.21,-112.996 548.253,-112.897"/>
<polygon fill="midnightblue" stroke="midnightblue" points="517.131,-109.704 507.166,-113.303 517.2,-116.704 517.131,-109.704"/>
</g>
<!-- Node16&#45;&gt;Node17 -->
<g id="edge16" class="edge"><title>Node16&#45;&gt;Node17</title>
<path fill="none" stroke="midnightblue" d="M297.143,-33.8633C317.873,-31.8791 340.027,-29.7585 359.708,-27.8747"/>
<polygon fill="midnightblue" stroke="midnightblue" points="296.719,-30.3878 287.098,-34.8248 297.386,-37.356 296.719,-30.3878"/>
</g>
<!-- Node17&#45;&gt;Node17 -->
<g id="edge19" class="edge"><title>Node17&#45;&gt;Node17</title>
<path fill="none" stroke="midnightblue" d="M383,-39.6558C383.006,-45.4871 395.506,-50.1515 420.5,-50.1515 456.047,-50.1515 466.322,-40.7168 451.326,-31.9086"/>
<polygon fill="midnightblue" stroke="midnightblue" points="385.799,-41.7693 389.674,-31.9086 380.496,-37.2004 385.799,-41.7693"/>
</g>
<!-- Node18 -->
<g id="node18" class="node"><title>Node18</title>
<g id="a_node18"><a xlink:href="class_c_tx_mem_pool.html#a14d49e10e7c1a12335bf983891c1ed07" target="_top" xlink:title="CTxMemPool::removeForReorg">
<polygon fill="white" stroke="black" points="543,-12.6515 543,-31.6515 706,-31.6515 706,-12.6515 543,-12.6515"/>
<text text-anchor="middle" x="624.5" y="-19.6515" font-family="Helvetica,sans-Serif" font-size="10.00">CTxMemPool::removeForReorg</text>
</a>
</g>
</g>
<!-- Node17&#45;&gt;Node18 -->
<g id="edge17" class="edge"><title>Node17&#45;&gt;Node18</title>
<path fill="none" stroke="midnightblue" d="M491.174,-15.6988C507.781,-15.3739 525.643,-15.3153 542.703,-15.523"/>
<polygon fill="midnightblue" stroke="midnightblue" points="490.93,-12.2034 481.014,-15.9355 491.093,-19.2015 490.93,-12.2034"/>
</g>
<!-- Node18&#45;&gt;Node17 -->
<g id="edge18" class="edge"><title>Node18&#45;&gt;Node17</title>
<path fill="none" stroke="midnightblue" d="M532.485,-28.8721C515.025,-28.9753 497.163,-28.8071 481.014,-28.3676"/>
<polygon fill="midnightblue" stroke="midnightblue" points="532.735,-32.3701 542.703,-28.78 532.671,-25.3704 532.735,-32.3701"/>
</g>
</g>
</svg>
