<?xml version="1.0" encoding="UTF-8" standalone="no"?>
<!DOCTYPE svg PUBLIC "-//W3C//DTD SVG 1.1//EN"
 "http://www.w3.org/Graphics/SVG/1.1/DTD/svg11.dtd">
<!-- Generated by graphviz version 2.38.0 (20140413.2041)
 -->
<!-- Title: CHash256::Write Pages: 1 -->
<svg width="1025pt" height="1186pt"
 viewBox="0.00 0.00 1025.00 1185.50" xmlns="http://www.w3.org/2000/svg" xmlns:xlink="http://www.w3.org/1999/xlink">
<g id="graph0" class="graph" transform="scale(1 1) rotate(0) translate(4 1181.5)">
<title>CHash256::Write</title>
<polygon fill="white" stroke="none" points="-4,4 -4,-1181.5 1021,-1181.5 1021,4 -4,4"/>
<!-- Node1 -->
<g id="node1" class="node"><title>Node1</title>
<polygon fill="#bfbfbf" stroke="black" points="0,-543 0,-562 95,-562 95,-543 0,-543"/>
<text text-anchor="middle" x="47.5" y="-550" font-family="Helvetica,sans-Serif" font-size="10.00">CHash256::Write</text>
</g>
<!-- Node2 -->
<g id="node2" class="node"><title>Node2</title>
<g id="a_node2"><a xlink:href="class_block_filter.html#a2ca056eaa8997bf4c5c439dd0e039623" target="_top" xlink:title="Compute the filter hash. ">
<polygon fill="white" stroke="black" points="159.5,-962 159.5,-981 272.5,-981 272.5,-962 159.5,-962"/>
<text text-anchor="middle" x="216" y="-969" font-family="Helvetica,sans-Serif" font-size="10.00">BlockFilter::GetHash</text>
</a>
</g>
</g>
<!-- Node1&#45;&gt;Node2 -->
<g id="edge1" class="edge"><title>Node1&#45;&gt;Node2</title>
<path fill="none" stroke="midnightblue" d="M48.7846,-572.343C50.4584,-628.669 61.4008,-792.626 131,-903.5 147.559,-929.88 177.963,-950.64 197.294,-961.977"/>
<polygon fill="midnightblue" stroke="midnightblue" points="52.2763,-571.933 48.5504,-562.015 45.2781,-572.092 52.2763,-571.933"/>
</g>
<!-- Node3 -->
<g id="node3" class="node"><title>Node3</title>
<g id="a_node3"><a xlink:href="class_block_filter.html#a9d029ed1c41723d8a82565f4d52172e3" target="_top" xlink:title="Compute the filter header given the previous one. ">
<polygon fill="white" stroke="black" points="339.5,-968 339.5,-987 489.5,-987 489.5,-968 339.5,-968"/>
<text text-anchor="middle" x="414.5" y="-975" font-family="Helvetica,sans-Serif" font-size="10.00">BlockFilter::ComputeHeader</text>
</a>
</g>
</g>
<!-- Node1&#45;&gt;Node3 -->
<g id="edge3" class="edge"><title>Node1&#45;&gt;Node3</title>
<path fill="none" stroke="midnightblue" d="M54.3036,-572.059C65.5505,-608.126 92.6281,-686.703 131,-744.5 204.02,-854.485 222.692,-892.452 337,-958.5 343.754,-962.402 351.293,-965.509 358.932,-967.981"/>
<polygon fill="midnightblue" stroke="midnightblue" points="57.5922,-570.844 51.3264,-562.3 50.8969,-572.886 57.5922,-570.844"/>
</g>
<!-- Node4 -->
<g id="node4" class="node"><title>Node4</title>
<g id="a_node4"><a xlink:href="hash_8h.html#ab3f6c437460137530d86e09c2c102e99" target="_top" xlink:title="Compute the 256&#45;bit hash of an object. ">
<polygon fill="white" stroke="black" points="195.5,-543 195.5,-562 236.5,-562 236.5,-543 195.5,-543"/>
<text text-anchor="middle" x="216" y="-550" font-family="Helvetica,sans-Serif" font-size="10.00">Hash</text>
</a>
</g>
</g>
<!-- Node1&#45;&gt;Node4 -->
<g id="edge4" class="edge"><title>Node1&#45;&gt;Node4</title>
<path fill="none" stroke="midnightblue" d="M105.671,-552.5C136.886,-552.5 173.541,-552.5 195.488,-552.5"/>
<polygon fill="midnightblue" stroke="midnightblue" points="105.323,-549 95.3226,-552.5 105.323,-556 105.323,-549"/>
</g>
<!-- Node35 -->
<g id="node35" class="node"><title>Node35</title>
<g id="a_node35"><a xlink:href="class_c_hash_writer.html#ac35dec9b4ebf26d4ce25a329c6c0cae7" target="_top" xlink:title="CHashWriter::write">
<polygon fill="white" stroke="black" points="164,-505 164,-524 268,-524 268,-505 164,-505"/>
<text text-anchor="middle" x="216" y="-512" font-family="Helvetica,sans-Serif" font-size="10.00">CHashWriter::write</text>
</a>
</g>
</g>
<!-- Node1&#45;&gt;Node35 -->
<g id="edge41" class="edge"><title>Node1&#45;&gt;Node35</title>
<path fill="none" stroke="midnightblue" d="M99.44,-540.736C109.878,-538.334 120.793,-535.83 131,-533.5 144.556,-530.406 159.349,-527.052 172.691,-524.036"/>
<polygon fill="midnightblue" stroke="midnightblue" points="98.5769,-537.343 89.6173,-542.997 100.148,-544.164 98.5769,-537.343"/>
</g>
<!-- Node36 -->
<g id="node36" class="node"><title>Node36</title>
<g id="a_node36"><a xlink:href="class_c_key.html#a3890764f7a2e5d9cdeffb3e102e4545d" target="_top" xlink:title="Verify thoroughly whether a private key and a public key match. ">
<polygon fill="white" stroke="black" points="361.5,-930 361.5,-949 467.5,-949 467.5,-930 361.5,-930"/>
<text text-anchor="middle" x="414.5" y="-937" font-family="Helvetica,sans-Serif" font-size="10.00">CKey::VerifyPubKey</text>
</a>
</g>
</g>
<!-- Node1&#45;&gt;Node36 -->
<g id="edge42" class="edge"><title>Node1&#45;&gt;Node36</title>
<path fill="none" stroke="midnightblue" d="M64.6836,-569.659C127.773,-636.551 356.116,-878.657 404.466,-929.922"/>
<polygon fill="midnightblue" stroke="midnightblue" points="66.93,-566.94 57.5225,-562.066 61.8376,-571.743 66.93,-566.94"/>
</g>
<!-- Node42 -->
<g id="node42" class="node"><title>Node42</title>
<g id="a_node42"><a xlink:href="interpreter_8h.html#acea38d31b2cc35a1ecfad02eaed0f85e" target="_top" xlink:title="EvalScript">
<polygon fill="white" stroke="black" points="184,-198 184,-217 248,-217 248,-198 184,-198"/>
<text text-anchor="middle" x="216" y="-205" font-family="Helvetica,sans-Serif" font-size="10.00">EvalScript</text>
</a>
</g>
</g>
<!-- Node1&#45;&gt;Node42 -->
<g id="edge55" class="edge"><title>Node1&#45;&gt;Node42</title>
<path fill="none" stroke="midnightblue" d="M57.5947,-533.655C88.3108,-470.009 187.552,-264.374 210.317,-217.205"/>
<polygon fill="midnightblue" stroke="midnightblue" points="54.3213,-532.385 53.1269,-542.913 60.6255,-535.428 54.3213,-532.385"/>
</g>
<!-- Node48 -->
<g id="node48" class="node"><title>Node48</title>
<g id="a_node48"><a xlink:href="validation_8h.html#a743ca389dc886ef8ec875ce8d08ec97e" target="_top" xlink:title="Produce the necessary coinbase commitment for a block (modifies the hash, don&#39;t call for mined blocks...">
<polygon fill="white" stroke="black" points="131,-50 131,-69 301,-69 301,-50 131,-50"/>
<text text-anchor="middle" x="216" y="-57" font-family="Helvetica,sans-Serif" font-size="10.00">GenerateCoinbaseCommitment</text>
</a>
</g>
</g>
<!-- Node1&#45;&gt;Node48 -->
<g id="edge61" class="edge"><title>Node1&#45;&gt;Node48</title>
<path fill="none" stroke="midnightblue" d="M50.4797,-532.886C56.6263,-477.062 78.2339,-313.29 131,-188.5 151.504,-140.008 190.194,-89.7571 206.939,-69.1704"/>
<polygon fill="midnightblue" stroke="midnightblue" points="46.9984,-532.526 49.4243,-542.839 53.9594,-533.264 46.9984,-532.526"/>
</g>
<!-- Node2&#45;&gt;Node3 -->
<g id="edge2" class="edge"><title>Node2&#45;&gt;Node3</title>
<path fill="none" stroke="midnightblue" d="M282.723,-973.507C300.911,-974.062 320.775,-974.669 339.404,-975.238"/>
<polygon fill="midnightblue" stroke="midnightblue" points="282.623,-970.002 272.521,-973.195 282.41,-976.999 282.623,-970.002"/>
</g>
<!-- Node5 -->
<g id="node5" class="node"><title>Node5</title>
<g id="a_node5"><a xlink:href="base58_8h.html#ace9a5807ee51604f33044339f073ec76" target="_top" xlink:title="Encode a byte vector into a base58&#45;encoded string, including checksum. ">
<polygon fill="white" stroke="black" points="356,-521 356,-540 473,-540 473,-521 356,-521"/>
<text text-anchor="middle" x="414.5" y="-528" font-family="Helvetica,sans-Serif" font-size="10.00">EncodeBase58Check</text>
</a>
</g>
</g>
<!-- Node4&#45;&gt;Node5 -->
<g id="edge5" class="edge"><title>Node4&#45;&gt;Node5</title>
<path fill="none" stroke="midnightblue" d="M246.796,-549.164C275.638,-545.935 320.123,-540.954 355.888,-536.95"/>
<polygon fill="midnightblue" stroke="midnightblue" points="246.108,-545.719 236.56,-550.31 246.887,-552.676 246.108,-545.719"/>
</g>
<!-- Node9 -->
<g id="node9" class="node"><title>Node9</title>
<g id="a_node9"><a xlink:href="base58_8h.html#a15d5698218cc9b782af7bd4ecf351a5b" target="_top" xlink:title="Decode a base58&#45;encoded string (psz) that includes a checksum into a byte vector (vchRet), return true if decoding is successful. ">
<polygon fill="white" stroke="black" points="355,-816 355,-835 474,-835 474,-816 355,-816"/>
<text text-anchor="middle" x="414.5" y="-823" font-family="Helvetica,sans-Serif" font-size="10.00">DecodeBase58Check</text>
</a>
</g>
</g>
<!-- Node4&#45;&gt;Node9 -->
<g id="edge9" class="edge"><title>Node4&#45;&gt;Node9</title>
<path fill="none" stroke="midnightblue" d="M230.03,-570.603C268.041,-623.412 377.918,-776.066 406.59,-815.9"/>
<polygon fill="midnightblue" stroke="midnightblue" points="232.676,-568.288 223.994,-562.216 226.995,-572.377 232.676,-568.288"/>
</g>
<!-- Node17 -->
<g id="node17" class="node"><title>Node17</title>
<g id="a_node17"><a xlink:href="class_c_partial_merkle_tree.html#a69e7771f95c498f6a340dcc227abcde4" target="_top" xlink:title="calculate the hash of a node in the merkle tree (at leaf level: the txid&#39;s themselves) ...">
<polygon fill="white" stroke="black" points="362.5,-466.5 362.5,-496.5 466.5,-496.5 466.5,-466.5 362.5,-466.5"/>
<text text-anchor="start" x="370.5" y="-484.5" font-family="Helvetica,sans-Serif" font-size="10.00">CPartialMerkleTree</text>
<text text-anchor="middle" x="414.5" y="-473.5" font-family="Helvetica,sans-Serif" font-size="10.00">::CalcHash</text>
</a>
</g>
</g>
<!-- Node4&#45;&gt;Node17 -->
<g id="edge17" class="edge"><title>Node4&#45;&gt;Node17</title>
<path fill="none" stroke="midnightblue" d="M246.672,-548.223C263.083,-545.26 283.612,-540.556 301,-533.5 318.375,-526.449 320.207,-519.844 337,-511.5 347.859,-506.104 359.941,-500.984 371.237,-496.552"/>
<polygon fill="midnightblue" stroke="midnightblue" points="245.838,-544.814 236.557,-549.925 247,-551.717 245.838,-544.814"/>
</g>
<!-- Node20 -->
<g id="node20" class="node"><title>Node20</title>
<g id="a_node20"><a xlink:href="class_c_partial_merkle_tree.html#ae91d33a101afde8870f56b2cd5526441" target="_top" xlink:title="recursive function that traverses tree nodes, consuming the bits and hashes produced by TraverseAndBu...">
<polygon fill="white" stroke="black" points="357,-406.5 357,-436.5 472,-436.5 472,-406.5 357,-406.5"/>
<text text-anchor="start" x="365" y="-424.5" font-family="Helvetica,sans-Serif" font-size="10.00">CPartialMerkleTree</text>
<text text-anchor="middle" x="414.5" y="-413.5" font-family="Helvetica,sans-Serif" font-size="10.00">::TraverseAndExtract</text>
</a>
</g>
</g>
<!-- Node4&#45;&gt;Node20 -->
<g id="edge20" class="edge"><title>Node4&#45;&gt;Node20</title>
<path fill="none" stroke="midnightblue" d="M247.007,-552.083C264.431,-550.401 285.859,-545.693 301,-533.5 330.424,-509.806 310.177,-483.102 337,-456.5 345.4,-448.169 356.143,-441.606 366.905,-436.527"/>
<polygon fill="midnightblue" stroke="midnightblue" points="246.508,-548.609 236.768,-552.779 246.982,-555.593 246.508,-548.609"/>
</g>
<!-- Node21 -->
<g id="node21" class="node"><title>Node21</title>
<g id="a_node21"><a xlink:href="class_c_connman.html#adc69330bc472e50487030c031d5063db" target="_top" xlink:title="CConnman::PushMessage">
<polygon fill="white" stroke="black" points="343.5,-302 343.5,-321 485.5,-321 485.5,-302 343.5,-302"/>
<text text-anchor="middle" x="414.5" y="-309" font-family="Helvetica,sans-Serif" font-size="10.00">CConnman::PushMessage</text>
</a>
</g>
</g>
<!-- Node4&#45;&gt;Node21 -->
<g id="edge23" class="edge"><title>Node4&#45;&gt;Node21</title>
<path fill="none" stroke="midnightblue" d="M246.609,-553.424C264.721,-552.345 287.022,-547.802 301,-533.5 357.416,-475.778 289.828,-420.993 337,-355.5 348.73,-339.214 368.487,-328.074 384.985,-321.078"/>
<polygon fill="midnightblue" stroke="midnightblue" points="246.422,-549.928 236.524,-553.706 246.618,-556.925 246.422,-549.928"/>
</g>
<!-- Node27 -->
<g id="node27" class="node"><title>Node27</title>
<g id="a_node27"><a xlink:href="class_c_net_addr.html#a4c94fea8695ef97adf5b2a18e1074308" target="_top" xlink:title="CNetAddr::GetHash">
<polygon fill="white" stroke="black" points="359,-365 359,-384 470,-384 470,-365 359,-365"/>
<text text-anchor="middle" x="414.5" y="-372" font-family="Helvetica,sans-Serif" font-size="10.00">CNetAddr::GetHash</text>
</a>
</g>
</g>
<!-- Node4&#45;&gt;Node27 -->
<g id="edge30" class="edge"><title>Node4&#45;&gt;Node27</title>
<path fill="none" stroke="midnightblue" d="M246.67,-553.123C264.613,-551.899 286.707,-547.308 301,-533.5 346.278,-489.758 293,-441.527 337,-396.5 343.085,-390.273 350.808,-385.779 358.994,-382.541"/>
<polygon fill="midnightblue" stroke="midnightblue" points="246.538,-549.625 236.676,-553.498 246.801,-556.62 246.538,-549.625"/>
</g>
<!-- Node28 -->
<g id="node28" class="node"><title>Node28</title>
<g id="a_node28"><a xlink:href="class_c_pub_key.html#a85b5eaf92b26cb4a230586050285c3f4" target="_top" xlink:title="Get the 256&#45;bit hash of this public key. ">
<polygon fill="white" stroke="black" points="362,-579 362,-598 467,-598 467,-579 362,-579"/>
<text text-anchor="middle" x="414.5" y="-586" font-family="Helvetica,sans-Serif" font-size="10.00">CPubKey::GetHash</text>
</a>
</g>
</g>
<!-- Node4&#45;&gt;Node28 -->
<g id="edge32" class="edge"><title>Node4&#45;&gt;Node28</title>
<path fill="none" stroke="midnightblue" d="M246.542,-557.912C276.974,-563.488 325.015,-572.289 361.768,-579.022"/>
<polygon fill="midnightblue" stroke="midnightblue" points="247.027,-554.443 236.56,-556.083 245.765,-561.328 247.027,-554.443"/>
</g>
<!-- Node33 -->
<g id="node33" class="node"><title>Node33</title>
<g id="a_node33"><a xlink:href="class_wallet_batch.html#a59805739add3be261c2693ed1f43258e" target="_top" xlink:title="WalletBatch::WriteKey">
<polygon fill="white" stroke="black" points="355.5,-627 355.5,-646 473.5,-646 473.5,-627 355.5,-627"/>
<text text-anchor="middle" x="414.5" y="-634" font-family="Helvetica,sans-Serif" font-size="10.00">WalletBatch::WriteKey</text>
</a>
</g>
</g>
<!-- Node4&#45;&gt;Node33 -->
<g id="edge38" class="edge"><title>Node4&#45;&gt;Node33</title>
<path fill="none" stroke="midnightblue" d="M246.082,-566.497C270.235,-577.959 305.595,-594.368 337,-607.5 353.38,-614.349 372.003,-621.424 386.773,-626.871"/>
<polygon fill="midnightblue" stroke="midnightblue" points="247.31,-563.205 236.777,-562.062 244.299,-569.524 247.31,-563.205"/>
</g>
<!-- Node34 -->
<g id="node34" class="node"><title>Node34</title>
<g id="a_node34"><a xlink:href="class_c_wallet_scan_state.html#a8012f2b0c336f7ee0b842d875f4fa4e6" target="_top" xlink:title="CWalletScanState::CWallet\lScanState">
<polygon fill="white" stroke="black" points="746.5,-698.5 746.5,-728.5 888.5,-728.5 888.5,-698.5 746.5,-698.5"/>
<text text-anchor="start" x="754.5" y="-716.5" font-family="Helvetica,sans-Serif" font-size="10.00">CWalletScanState::CWallet</text>
<text text-anchor="middle" x="817.5" y="-705.5" font-family="Helvetica,sans-Serif" font-size="10.00">ScanState</text>
</a>
</g>
</g>
<!-- Node4&#45;&gt;Node34 -->
<g id="edge40" class="edge"><title>Node4&#45;&gt;Node34</title>
<path fill="none" stroke="midnightblue" d="M231.442,-570.182C252.079,-594.063 292.467,-635.888 337,-655.5 408.753,-687.1 631.533,-703.482 746.413,-710.018"/>
<polygon fill="midnightblue" stroke="midnightblue" points="233.887,-567.652 224.761,-562.27 228.539,-572.169 233.887,-567.652"/>
</g>
<!-- Node6 -->
<g id="node6" class="node"><title>Node6</title>
<g id="a_node6"><a xlink:href="key__io_8h.html#a675809f738ce55f530880389fa330f66" target="_top" xlink:title="EncodeSecret">
<polygon fill="white" stroke="red" points="934,-712 934,-731 1017,-731 1017,-712 934,-712"/>
<text text-anchor="middle" x="975.5" y="-719" font-family="Helvetica,sans-Serif" font-size="10.00">EncodeSecret</text>
</a>
</g>
</g>
<!-- Node5&#45;&gt;Node6 -->
<g id="edge6" class="edge"><title>Node5&#45;&gt;Node6</title>
<path fill="none" stroke="midnightblue" d="M483.608,-525.41C583.627,-521.436 771.993,-527.627 898,-615.5 935.044,-641.334 960.723,-691.056 970.321,-711.917"/>
<polygon fill="midnightblue" stroke="midnightblue" points="483.162,-521.927 473.327,-525.867 483.473,-528.92 483.162,-521.927"/>
</g>
<!-- Node7 -->
<g id="node7" class="node"><title>Node7</title>
<g id="a_node7"><a xlink:href="key__io_8h.html#a49ce9e0a355e46193fdaf2756b0648f0" target="_top" xlink:title="EncodeExtPubKey">
<polygon fill="white" stroke="black" points="564,-456 564,-475 665,-475 665,-456 564,-456"/>
<text text-anchor="middle" x="614.5" y="-463" font-family="Helvetica,sans-Serif" font-size="10.00">EncodeExtPubKey</text>
</a>
</g>
</g>
<!-- Node5&#45;&gt;Node7 -->
<g id="edge7" class="edge"><title>Node5&#45;&gt;Node7</title>
<path fill="none" stroke="midnightblue" d="M459.64,-517.842C470.397,-514.277 481.753,-510.1 492,-505.5 508.899,-497.914 510.753,-491.256 528,-484.5 539.327,-480.063 551.924,-476.543 563.891,-473.802"/>
<polygon fill="midnightblue" stroke="midnightblue" points="458.433,-514.553 449.979,-520.939 460.57,-521.219 458.433,-514.553"/>
</g>
<!-- Node8 -->
<g id="node8" class="node"><title>Node8</title>
<g id="a_node8"><a xlink:href="key__io_8h.html#a69ad05a28e10f3f8b4a3ba691eea7288" target="_top" xlink:title="EncodeExtKey">
<polygon fill="white" stroke="red" points="573,-494 573,-513 656,-513 656,-494 573,-494"/>
<text text-anchor="middle" x="614.5" y="-501" font-family="Helvetica,sans-Serif" font-size="10.00">EncodeExtKey</text>
</a>
</g>
</g>
<!-- Node5&#45;&gt;Node8 -->
<g id="edge8" class="edge"><title>Node5&#45;&gt;Node8</title>
<path fill="none" stroke="midnightblue" d="M482.977,-521.299C512.825,-517.228 546.942,-512.576 572.808,-509.049"/>
<polygon fill="midnightblue" stroke="midnightblue" points="482.471,-517.835 473.036,-522.654 483.417,-524.771 482.471,-517.835"/>
</g>
<!-- Node10 -->
<g id="node10" class="node"><title>Node10</title>
<g id="a_node10"><a xlink:href="base58_8h.html#ab79f7a630768c006beea28d148437f77" target="_top" xlink:title="Decode a base58&#45;encoded string (str) that includes a checksum into a byte vector (vchRet), return true if decoding is successful. ">
<polygon fill="white" stroke="black" points="555,-816 555,-835 674,-835 674,-816 555,-816"/>
<text text-anchor="middle" x="614.5" y="-823" font-family="Helvetica,sans-Serif" font-size="10.00">DecodeBase58Check</text>
</a>
</g>
</g>
<!-- Node9&#45;&gt;Node10 -->
<g id="edge10" class="edge"><title>Node9&#45;&gt;Node10</title>
<path fill="none" stroke="midnightblue" d="M484.133,-825.5C507.124,-825.5 532.535,-825.5 554.705,-825.5"/>
<polygon fill="midnightblue" stroke="midnightblue" points="484.103,-822 474.103,-825.5 484.103,-829 484.103,-822"/>
</g>
<!-- Node11 -->
<g id="node11" class="node"><title>Node11</title>
<g id="a_node11"><a xlink:href="key__io_8h.html#a7941777b013d8d31958b7ffbc8c3563f" target="_top" xlink:title="DecodeSecret">
<polygon fill="white" stroke="red" points="572,-1006 572,-1025 657,-1025 657,-1006 572,-1006"/>
<text text-anchor="middle" x="614.5" y="-1013" font-family="Helvetica,sans-Serif" font-size="10.00">DecodeSecret</text>
</a>
</g>
</g>
<!-- Node9&#45;&gt;Node11 -->
<g id="edge11" class="edge"><title>Node9&#45;&gt;Node11</title>
<path fill="none" stroke="midnightblue" d="M433.045,-842.336C473.281,-880.946 571.189,-974.899 603.192,-1005.61"/>
<polygon fill="midnightblue" stroke="midnightblue" points="435.23,-839.582 425.591,-835.183 430.383,-844.633 435.23,-839.582"/>
</g>
<!-- Node15 -->
<g id="node15" class="node"><title>Node15</title>
<g id="a_node15"><a xlink:href="key__io_8h.html#a43d8040d92cf6b2c3e779bdc4c0da099" target="_top" xlink:title="DecodeExtPubKey">
<polygon fill="white" stroke="black" points="563,-722 563,-741 666,-741 666,-722 563,-722"/>
<text text-anchor="middle" x="614.5" y="-729" font-family="Helvetica,sans-Serif" font-size="10.00">DecodeExtPubKey</text>
</a>
</g>
</g>
<!-- Node9&#45;&gt;Node15 -->
<g id="edge15" class="edge"><title>Node9&#45;&gt;Node15</title>
<path fill="none" stroke="midnightblue" d="M434.787,-809.369C456.224,-792.255 492.516,-765.642 528,-750.5 538.909,-745.845 551.107,-742.263 562.797,-739.532"/>
<polygon fill="midnightblue" stroke="midnightblue" points="432.368,-806.824 426.814,-815.846 436.782,-812.257 432.368,-806.824"/>
</g>
<!-- Node16 -->
<g id="node16" class="node"><title>Node16</title>
<g id="a_node16"><a xlink:href="key__io_8h.html#af3acecb2bc3e58b2622d2eadad870d3a" target="_top" xlink:title="DecodeExtKey">
<polygon fill="white" stroke="black" points="572,-854 572,-873 657,-873 657,-854 572,-854"/>
<text text-anchor="middle" x="614.5" y="-861" font-family="Helvetica,sans-Serif" font-size="10.00">DecodeExtKey</text>
</a>
</g>
</g>
<!-- Node9&#45;&gt;Node16 -->
<g id="edge16" class="edge"><title>Node9&#45;&gt;Node16</title>
<path fill="none" stroke="midnightblue" d="M475.099,-836.938C506.298,-842.926 543.737,-850.111 571.804,-855.498"/>
<polygon fill="midnightblue" stroke="midnightblue" points="475.689,-833.488 465.208,-835.04 474.369,-840.362 475.689,-833.488"/>
</g>
<!-- Node12 -->
<g id="node12" class="node"><title>Node12</title>
<g id="a_node12"><a xlink:href="rpcwallet_8cpp.html#a2f46e2bb304dda9a197b5a68db6106f7" target="_top" xlink:title="importprivkey">
<polygon fill="white" stroke="red" points="776.5,-1053 776.5,-1072 858.5,-1072 858.5,-1053 776.5,-1053"/>
<text text-anchor="middle" x="817.5" y="-1060" font-family="Helvetica,sans-Serif" font-size="10.00">importprivkey</text>
</a>
</g>
</g>
<!-- Node11&#45;&gt;Node12 -->
<g id="edge12" class="edge"><title>Node11&#45;&gt;Node12</title>
<path fill="none" stroke="midnightblue" d="M667.305,-1026.85C678.43,-1029.33 690.114,-1031.97 701,-1034.5 726.725,-1040.48 755.6,-1047.48 778.044,-1052.98"/>
<polygon fill="midnightblue" stroke="midnightblue" points="667.806,-1023.37 657.284,-1024.62 666.287,-1030.2 667.806,-1023.37"/>
</g>
<!-- Node13 -->
<g id="node13" class="node"><title>Node13</title>
<g id="a_node13"><a xlink:href="wallet__tests_8cpp.html#a8c64ef6e0ced69002923098229448758" target="_top" xlink:title="importwallet">
<polygon fill="white" stroke="red" points="780,-977 780,-996 855,-996 855,-977 780,-977"/>
<text text-anchor="middle" x="817.5" y="-984" font-family="Helvetica,sans-Serif" font-size="10.00">importwallet</text>
</a>
</g>
</g>
<!-- Node11&#45;&gt;Node13 -->
<g id="edge13" class="edge"><title>Node11&#45;&gt;Node13</title>
<path fill="none" stroke="midnightblue" d="M667.267,-1008.03C702.567,-1002.94 748.449,-996.318 779.967,-991.771"/>
<polygon fill="midnightblue" stroke="midnightblue" points="666.545,-1004.6 657.147,-1009.49 667.545,-1011.53 666.545,-1004.6"/>
</g>
<!-- Node14 -->
<g id="node14" class="node"><title>Node14</title>
<g id="a_node14"><a xlink:href="rpcwallet_8cpp.html#a61c7a90d1b36888fe11b751e746e18c0" target="_top" xlink:title="sethdseed">
<polygon fill="white" stroke="red" points="784,-1110 784,-1129 851,-1129 851,-1110 784,-1110"/>
<text text-anchor="middle" x="817.5" y="-1117" font-family="Helvetica,sans-Serif" font-size="10.00">sethdseed</text>
</a>
</g>
</g>
<!-- Node11&#45;&gt;Node14 -->
<g id="edge14" class="edge"><title>Node11&#45;&gt;Node14</title>
<path fill="none" stroke="midnightblue" d="M667.47,-1021.02C679.123,-1023.85 690.986,-1028.11 701,-1034.5 723.182,-1048.65 716.565,-1064.92 737,-1081.5 752.326,-1093.93 772.393,-1103.48 788.531,-1109.9"/>
<polygon fill="midnightblue" stroke="midnightblue" points="667.844,-1017.52 657.337,-1018.88 666.397,-1024.37 667.844,-1017.52"/>
</g>
<!-- Node18 -->
<g id="node18" class="node"><title>Node18</title>
<g id="a_node18"><a xlink:href="class_c_partial_merkle_tree.html#a5a5bc6b75034a913d313bf45a30769e5" target="_top" xlink:title="helper function to efficiently calculate the number of nodes at given height in the merkle tree ...">
<polygon fill="white" stroke="red" points="562.5,-406.5 562.5,-436.5 666.5,-436.5 666.5,-406.5 562.5,-406.5"/>
<text text-anchor="start" x="570.5" y="-424.5" font-family="Helvetica,sans-Serif" font-size="10.00">CPartialMerkleTree</text>
<text text-anchor="middle" x="614.5" y="-413.5" font-family="Helvetica,sans-Serif" font-size="10.00">::CalcTreeWidth</text>
</a>
</g>
</g>
<!-- Node17&#45;&gt;Node18 -->
<g id="edge18" class="edge"><title>Node17&#45;&gt;Node18</title>
<path fill="none" stroke="midnightblue" d="M472.935,-463.423C490.581,-457.926 510.073,-451.909 528,-446.5 539.104,-443.149 551.041,-439.616 562.369,-436.295"/>
<polygon fill="midnightblue" stroke="midnightblue" points="471.847,-460.096 463.344,-466.417 473.933,-466.778 471.847,-460.096"/>
</g>
<!-- Node19 -->
<g id="node19" class="node"><title>Node19</title>
<g id="a_node19"><a xlink:href="class_c_partial_merkle_tree.html#a27712a344f6580787552ee8e3955ba62" target="_top" xlink:title="extract the matching txid&#39;s represented by this partial merkle tree and their respective indices with...">
<polygon fill="white" stroke="red" points="765.5,-384.5 765.5,-414.5 869.5,-414.5 869.5,-384.5 765.5,-384.5"/>
<text text-anchor="start" x="773.5" y="-402.5" font-family="Helvetica,sans-Serif" font-size="10.00">CPartialMerkleTree</text>
<text text-anchor="middle" x="817.5" y="-391.5" font-family="Helvetica,sans-Serif" font-size="10.00">::ExtractMatches</text>
</a>
</g>
</g>
<!-- Node18&#45;&gt;Node19 -->
<g id="edge19" class="edge"><title>Node18&#45;&gt;Node19</title>
<path fill="none" stroke="midnightblue" d="M676.927,-414.777C705.232,-411.679 738.434,-408.045 765.353,-405.098"/>
<polygon fill="midnightblue" stroke="midnightblue" points="676.301,-411.324 666.741,-415.892 677.062,-418.283 676.301,-411.324"/>
</g>
<!-- Node20&#45;&gt;Node18 -->
<g id="edge22" class="edge"><title>Node20&#45;&gt;Node18</title>
<path fill="none" stroke="midnightblue" d="M482.459,-421.5C508.616,-421.5 538.118,-421.5 562.497,-421.5"/>
<polygon fill="midnightblue" stroke="midnightblue" points="482.239,-418 472.239,-421.5 482.239,-425 482.239,-418"/>
</g>
<!-- Node20&#45;&gt;Node19 -->
<g id="edge21" class="edge"><title>Node20&#45;&gt;Node19</title>
<path fill="none" stroke="midnightblue" d="M481.551,-404.3C496.707,-401.059 512.827,-398.166 528,-396.5 610.652,-387.427 707.421,-391.382 765.246,-395.284"/>
<polygon fill="midnightblue" stroke="midnightblue" points="480.757,-400.891 471.751,-406.47 482.271,-407.725 480.757,-400.891"/>
</g>
<!-- Node22 -->
<g id="node22" class="node"><title>Node22</title>
<g id="a_node22"><a xlink:href="class_peer_logic_validation.html#a4ed18bc626b7e64f822912cd1057e5cb" target="_top" xlink:title="Overridden from CValidationInterface. ">
<polygon fill="white" stroke="black" points="559,-181.5 559,-211.5 670,-211.5 670,-181.5 559,-181.5"/>
<text text-anchor="start" x="567" y="-199.5" font-family="Helvetica,sans-Serif" font-size="10.00">PeerLogicValidation</text>
<text text-anchor="middle" x="614.5" y="-188.5" font-family="Helvetica,sans-Serif" font-size="10.00">::NewPoWValidBlock</text>
</a>
</g>
</g>
<!-- Node21&#45;&gt;Node22 -->
<g id="edge24" class="edge"><title>Node21&#45;&gt;Node22</title>
<path fill="none" stroke="midnightblue" d="M485.087,-297.275C487.506,-295.831 489.822,-294.244 492,-292.5 519.925,-270.135 500.416,-243.285 528,-220.5 536.796,-213.234 547.651,-208.164 558.64,-204.626"/>
<polygon fill="midnightblue" stroke="midnightblue" points="483.287,-294.263 475.944,-301.9 486.447,-300.509 483.287,-294.263"/>
</g>
<!-- Node23 -->
<g id="node23" class="node"><title>Node23</title>
<g id="a_node23"><a xlink:href="class_peer_logic_validation.html#a124965d7310e0df08cc027d4e1cbbe7b" target="_top" xlink:title="Overridden from CValidationInterface. ">
<polygon fill="white" stroke="black" points="559.5,-318.5 559.5,-348.5 669.5,-348.5 669.5,-318.5 559.5,-318.5"/>
<text text-anchor="start" x="567.5" y="-336.5" font-family="Helvetica,sans-Serif" font-size="10.00">PeerLogicValidation</text>
<text text-anchor="middle" x="614.5" y="-325.5" font-family="Helvetica,sans-Serif" font-size="10.00">::BlockChecked</text>
</a>
</g>
</g>
<!-- Node21&#45;&gt;Node23 -->
<g id="edge25" class="edge"><title>Node21&#45;&gt;Node23</title>
<path fill="none" stroke="midnightblue" d="M495.659,-320.407C517.088,-322.788 539.74,-325.304 559.397,-327.489"/>
<polygon fill="midnightblue" stroke="midnightblue" points="495.911,-316.913 485.586,-319.287 495.138,-323.87 495.911,-316.913"/>
</g>
<!-- Node24 -->
<g id="node24" class="node"><title>Node24</title>
<g id="a_node24"><a xlink:href="class_peer_logic_validation.html#adaa77fc4eee771d8e64b6c61f52c4266" target="_top" xlink:title="Process protocol messages received from a given node. ">
<polygon fill="white" stroke="black" points="559.5,-132.5 559.5,-162.5 669.5,-162.5 669.5,-132.5 559.5,-132.5"/>
<text text-anchor="start" x="567.5" y="-150.5" font-family="Helvetica,sans-Serif" font-size="10.00">PeerLogicValidation</text>
<text text-anchor="middle" x="614.5" y="-139.5" font-family="Helvetica,sans-Serif" font-size="10.00">::ProcessMessages</text>
</a>
</g>
</g>
<!-- Node21&#45;&gt;Node24 -->
<g id="edge26" class="edge"><title>Node21&#45;&gt;Node24</title>
<path fill="none" stroke="midnightblue" d="M487.296,-296.458C488.943,-295.235 490.516,-293.918 492,-292.5 532.571,-253.744 488.019,-210.865 528,-171.5 536.569,-163.063 547.854,-157.539 559.404,-153.937"/>
<polygon fill="midnightblue" stroke="midnightblue" points="485.231,-293.618 478.527,-301.822 488.884,-299.59 485.231,-293.618"/>
</g>
<!-- Node25 -->
<g id="node25" class="node"><title>Node25</title>
<g id="a_node25"><a xlink:href="class_peer_logic_validation.html#af87f0e0b6f4103d1c6cb35c575769ae2" target="_top" xlink:title="Consider evicting an outbound peer based on the amount of time they&#39;ve been behind our tip...">
<polygon fill="white" stroke="black" points="559.5,-230.5 559.5,-260.5 669.5,-260.5 669.5,-230.5 559.5,-230.5"/>
<text text-anchor="start" x="567.5" y="-248.5" font-family="Helvetica,sans-Serif" font-size="10.00">PeerLogicValidation</text>
<text text-anchor="middle" x="614.5" y="-237.5" font-family="Helvetica,sans-Serif" font-size="10.00">::ConsiderEviction</text>
</a>
</g>
</g>
<!-- Node21&#45;&gt;Node25 -->
<g id="edge27" class="edge"><title>Node21&#45;&gt;Node25</title>
<path fill="none" stroke="midnightblue" d="M470.126,-299.339C477.546,-297.28 485.009,-294.991 492,-292.5 508.668,-286.561 511.63,-282.216 528,-275.5 540.807,-270.246 554.913,-265.059 567.91,-260.514"/>
<polygon fill="midnightblue" stroke="midnightblue" points="469.205,-295.963 460.439,-301.913 471.002,-302.728 469.205,-295.963"/>
</g>
<!-- Node26 -->
<g id="node26" class="node"><title>Node26</title>
<g id="a_node26"><a xlink:href="class_peer_logic_validation.html#a04dab16e6310bf18d432111cb6b126ad" target="_top" xlink:title="Send queued protocol messages to be sent to a give node. ">
<polygon fill="white" stroke="black" points="762.5,-252.5 762.5,-282.5 872.5,-282.5 872.5,-252.5 762.5,-252.5"/>
<text text-anchor="start" x="770.5" y="-270.5" font-family="Helvetica,sans-Serif" font-size="10.00">PeerLogicValidation</text>
<text text-anchor="middle" x="817.5" y="-259.5" font-family="Helvetica,sans-Serif" font-size="10.00">::SendMessages</text>
</a>
</g>
</g>
<!-- Node21&#45;&gt;Node26 -->
<g id="edge29" class="edge"><title>Node21&#45;&gt;Node26</title>
<path fill="none" stroke="midnightblue" d="M496.225,-302.642C575.39,-293.956 693.883,-280.954 762.355,-273.441"/>
<polygon fill="midnightblue" stroke="midnightblue" points="495.366,-299.216 485.808,-303.785 496.13,-306.174 495.366,-299.216"/>
</g>
<!-- Node25&#45;&gt;Node26 -->
<g id="edge28" class="edge"><title>Node25&#45;&gt;Node26</title>
<path fill="none" stroke="midnightblue" d="M679.619,-252.518C706.239,-255.432 736.795,-258.776 762.275,-261.565"/>
<polygon fill="midnightblue" stroke="midnightblue" points="679.95,-249.033 669.629,-251.425 679.189,-255.992 679.95,-249.033"/>
</g>
<!-- Node27&#45;&gt;Node23 -->
<g id="edge31" class="edge"><title>Node27&#45;&gt;Node23</title>
<path fill="none" stroke="midnightblue" d="M471.313,-362.943C498.898,-357.231 532.046,-350.367 559.396,-344.703"/>
<polygon fill="midnightblue" stroke="midnightblue" points="470.505,-359.536 461.423,-364.991 471.925,-366.39 470.505,-359.536"/>
</g>
<!-- Node29 -->
<g id="node29" class="node"><title>Node29</title>
<g id="a_node29"><a xlink:href="class_c_crypter.html#ac5a813381a88db619331a9d5492cd339" target="_top" xlink:title="CCrypter::Decrypt">
<polygon fill="white" stroke="red" points="563.5,-760 563.5,-779 665.5,-779 665.5,-760 563.5,-760"/>
<text text-anchor="middle" x="614.5" y="-767" font-family="Helvetica,sans-Serif" font-size="10.00">CCrypter::Decrypt</text>
</a>
</g>
</g>
<!-- Node28&#45;&gt;Node29 -->
<g id="edge33" class="edge"><title>Node28&#45;&gt;Node29</title>
<path fill="none" stroke="midnightblue" d="M470.874,-602.153C478.769,-606.059 486.172,-611.071 492,-617.5 533.129,-662.871 483.721,-708.198 528,-750.5 537.566,-759.638 550.504,-764.76 563.419,-767.539"/>
<polygon fill="midnightblue" stroke="midnightblue" points="472.012,-598.832 461.446,-598.059 469.224,-605.253 472.012,-598.832"/>
</g>
<!-- Node30 -->
<g id="node30" class="node"><title>Node30</title>
<g id="a_node30"><a xlink:href="class_c_crypto_key_store.html#a4a2d6d44d1c5e844cf0166d286f5eb18" target="_top" xlink:title="Add a key to the store. ">
<polygon fill="white" stroke="red" points="528,-570 528,-589 701,-589 701,-570 528,-570"/>
<text text-anchor="middle" x="614.5" y="-577" font-family="Helvetica,sans-Serif" font-size="10.00">CCryptoKeyStore::AddKeyPubKey</text>
</a>
</g>
</g>
<!-- Node28&#45;&gt;Node30 -->
<g id="edge35" class="edge"><title>Node28&#45;&gt;Node30</title>
<path fill="none" stroke="midnightblue" d="M477.273,-585.692C493.262,-584.965 510.768,-584.17 527.745,-583.398"/>
<polygon fill="midnightblue" stroke="midnightblue" points="476.836,-582.208 467.005,-586.159 477.154,-589.201 476.836,-582.208"/>
</g>
<!-- Node32 -->
<g id="node32" class="node"><title>Node32</title>
<g id="a_node32"><a xlink:href="class_c_crypto_key_store.html#a8c0f6b63fb04193df16243c4459b7c61" target="_top" xlink:title="will encrypt previously unencrypted keys ">
<polygon fill="white" stroke="black" points="534,-608 534,-627 695,-627 695,-608 534,-608"/>
<text text-anchor="middle" x="614.5" y="-615" font-family="Helvetica,sans-Serif" font-size="10.00">CCryptoKeyStore::EncryptKeys</text>
</a>
</g>
</g>
<!-- Node28&#45;&gt;Node32 -->
<g id="edge37" class="edge"><title>Node28&#45;&gt;Node32</title>
<path fill="none" stroke="midnightblue" d="M477.169,-597.532C499.801,-600.847 525.483,-604.609 548.407,-607.966"/>
<polygon fill="midnightblue" stroke="midnightblue" points="477.407,-594.03 467.005,-596.044 476.392,-600.956 477.407,-594.03"/>
</g>
<!-- Node29&#45;&gt;Node29 -->
<g id="edge34" class="edge"><title>Node29&#45;&gt;Node29</title>
<path fill="none" stroke="midnightblue" d="M577,-787.004C577.006,-792.836 589.506,-797.5 614.5,-797.5 650.047,-797.5 660.322,-788.065 645.326,-779.257"/>
<polygon fill="midnightblue" stroke="midnightblue" points="579.799,-789.118 583.674,-779.257 574.496,-784.549 579.799,-789.118"/>
</g>
<!-- Node31 -->
<g id="node31" class="node"><title>Node31</title>
<g id="a_node31"><a xlink:href="group__map_wallet.html#gaf482ede71b2fde291b8c6ec262b22ef4" target="_top" xlink:title="CWallet::AddKeyPubKeyWithDB">
<polygon fill="white" stroke="red" points="737,-625 737,-644 898,-644 898,-625 737,-625"/>
<text text-anchor="middle" x="817.5" y="-632" font-family="Helvetica,sans-Serif" font-size="10.00">CWallet::AddKeyPubKeyWithDB</text>
</a>
</g>
</g>
<!-- Node30&#45;&gt;Node31 -->
<g id="edge36" class="edge"><title>Node30&#45;&gt;Node31</title>
<path fill="none" stroke="midnightblue" d="M671.851,-591.321C681.605,-593.567 691.622,-596.001 701,-598.5 731.037,-606.504 764.947,-617.285 788.213,-624.958"/>
<polygon fill="midnightblue" stroke="midnightblue" points="672.345,-587.844 661.819,-589.054 670.801,-594.672 672.345,-587.844"/>
</g>
<!-- Node33&#45;&gt;Node31 -->
<g id="edge39" class="edge"><title>Node33&#45;&gt;Node31</title>
<path fill="none" stroke="midnightblue" d="M483.85,-636.832C541.688,-637.033 626.774,-637.143 701,-636.5 712.632,-636.399 724.921,-636.242 736.974,-636.058"/>
<polygon fill="midnightblue" stroke="midnightblue" points="483.748,-633.332 473.735,-636.795 483.722,-640.332 483.748,-633.332"/>
</g>
<!-- Node36&#45;&gt;Node12 -->
<g id="edge53" class="edge"><title>Node36&#45;&gt;Node12</title>
<path fill="none" stroke="midnightblue" d="M477.132,-948.604C482.574,-951.176 487.655,-954.418 492,-958.5 530.725,-994.88 485.144,-1041.09 528,-1072.5 609.048,-1131.9 740.11,-1092.12 793.128,-1072.08"/>
<polygon fill="midnightblue" stroke="midnightblue" points="478.288,-945.298 467.702,-944.882 475.718,-951.809 478.288,-945.298"/>
</g>
<!-- Node36&#45;&gt;Node13 -->
<g id="edge54" class="edge"><title>Node36&#45;&gt;Node13</title>
<path fill="none" stroke="midnightblue" d="M477.499,-946.767C562.078,-956.68 710.96,-974.13 779.751,-982.193"/>
<polygon fill="midnightblue" stroke="midnightblue" points="477.852,-943.284 467.513,-945.596 477.037,-950.237 477.852,-943.284"/>
</g>
<!-- Node36&#45;&gt;Node29 -->
<g id="edge52" class="edge"><title>Node36&#45;&gt;Node29</title>
<path fill="none" stroke="midnightblue" d="M429.768,-921.736C457.321,-887.566 516.185,-815.27 528,-806.5 544.364,-794.353 565.332,-785.2 582.407,-779.036"/>
<polygon fill="midnightblue" stroke="midnightblue" points="426.731,-919.926 423.187,-929.91 432.184,-924.315 426.731,-919.926"/>
</g>
<!-- Node37 -->
<g id="node37" class="node"><title>Node37</title>
<g id="a_node37"><a xlink:href="group__map_wallet.html#ga5abb589b31879b8f4bf1890c22f15f64" target="_top" xlink:title="keystore implementation Generate a new key ">
<polygon fill="white" stroke="black" points="545,-1158 545,-1177 684,-1177 684,-1158 545,-1158"/>
<text text-anchor="middle" x="614.5" y="-1165" font-family="Helvetica,sans-Serif" font-size="10.00">CWallet::GenerateNewKey</text>
</a>
</g>
</g>
<!-- Node36&#45;&gt;Node37 -->
<g id="edge43" class="edge"><title>Node36&#45;&gt;Node37</title>
<path fill="none" stroke="midnightblue" d="M477.176,-947.853C482.698,-950.56 487.784,-954.04 492,-958.5 551.043,-1020.96 468.188,-1086.78 528,-1148.5 532.762,-1153.41 538.492,-1157.19 544.702,-1160.07"/>
<polygon fill="midnightblue" stroke="midnightblue" points="478.131,-944.465 467.547,-943.991 475.525,-950.962 478.131,-944.465"/>
</g>
<!-- Node38 -->
<g id="node38" class="node"><title>Node38</title>
<g id="a_node38"><a xlink:href="group__map_wallet.html#gaf72003c77abf215cc1576ab6c50125f7" target="_top" xlink:title="CWallet::DeriveNewSeed">
<polygon fill="white" stroke="red" points="548,-1120 548,-1139 681,-1139 681,-1120 548,-1120"/>
<text text-anchor="middle" x="614.5" y="-1127" font-family="Helvetica,sans-Serif" font-size="10.00">CWallet::DeriveNewSeed</text>
</a>
</g>
</g>
<!-- Node36&#45;&gt;Node38 -->
<g id="edge44" class="edge"><title>Node36&#45;&gt;Node38</title>
<path fill="none" stroke="midnightblue" d="M477.176,-948.199C482.653,-950.844 487.73,-954.216 492,-958.5 539.485,-1006.14 481.24,-1057.15 528,-1105.5 534.109,-1111.82 541.736,-1116.51 549.903,-1119.99"/>
<polygon fill="midnightblue" stroke="midnightblue" points="478.238,-944.854 467.653,-944.398 475.643,-951.355 478.238,-944.854"/>
</g>
<!-- Node39 -->
<g id="node39" class="node"><title>Node39</title>
<g id="a_node39"><a xlink:href="class_c_key.html#acdb99e6886c2828bdd32c64a3c9e4e18" target="_top" xlink:title="Load private key and check that public key matches. ">
<polygon fill="white" stroke="black" points="580.5,-892 580.5,-911 648.5,-911 648.5,-892 580.5,-892"/>
<text text-anchor="middle" x="614.5" y="-899" font-family="Helvetica,sans-Serif" font-size="10.00">CKey::Load</text>
</a>
</g>
</g>
<!-- Node36&#45;&gt;Node39 -->
<g id="edge46" class="edge"><title>Node36&#45;&gt;Node39</title>
<path fill="none" stroke="midnightblue" d="M475.165,-928.049C509.605,-921.439 551.629,-913.374 580.259,-907.88"/>
<polygon fill="midnightblue" stroke="midnightblue" points="474.369,-924.638 465.208,-929.96 475.689,-931.512 474.369,-924.638"/>
</g>
<!-- Node40 -->
<g id="node40" class="node"><title>Node40</title>
<g id="a_node40"><a xlink:href="class_c_key.html#abdc7d807f7a1b27ff3ad9dd5164a2273" target="_top" xlink:title="Check whether the public key corresponding to this private key is (to be) compressed. ">
<polygon fill="white" stroke="red" points="761,-892 761,-911 874,-911 874,-892 761,-892"/>
<text text-anchor="middle" x="817.5" y="-899" font-family="Helvetica,sans-Serif" font-size="10.00">CKey::IsCompressed</text>
</a>
</g>
</g>
<!-- Node36&#45;&gt;Node40 -->
<g id="edge51" class="edge"><title>Node36&#45;&gt;Node40</title>
<path fill="none" stroke="midnightblue" d="M477.83,-937.087C535.773,-934.434 624.419,-929.326 701,-920.5 722.096,-918.069 745.215,-914.456 765.19,-911.032"/>
<polygon fill="midnightblue" stroke="midnightblue" points="477.567,-933.595 467.734,-937.539 477.88,-940.588 477.567,-933.595"/>
</g>
<!-- Node41 -->
<g id="node41" class="node"><title>Node41</title>
<g id="a_node41"><a xlink:href="key_8h.html#adc8d142f5bcd2ca6646462fb45a7945d" target="_top" xlink:title="Check that required EC support is available at runtime. ">
<polygon fill="white" stroke="red" points="557,-1044 557,-1063 672,-1063 672,-1044 557,-1044"/>
<text text-anchor="middle" x="614.5" y="-1051" font-family="Helvetica,sans-Serif" font-size="10.00">ECC_InitSanityCheck</text>
</a>
</g>
</g>
<!-- Node36&#45;&gt;Node41 -->
<g id="edge50" class="edge"><title>Node36&#45;&gt;Node41</title>
<path fill="none" stroke="midnightblue" d="M477.46,-949.631C482.685,-952.008 487.632,-954.925 492,-958.5 520.922,-982.173 498.787,-1011.19 528,-1034.5 536.32,-1041.14 546.482,-1045.57 556.858,-1048.5"/>
<polygon fill="midnightblue" stroke="midnightblue" points="478.407,-946.245 467.818,-945.909 475.886,-952.775 478.407,-946.245"/>
</g>
<!-- Node38&#45;&gt;Node14 -->
<g id="edge45" class="edge"><title>Node38&#45;&gt;Node14</title>
<path fill="none" stroke="midnightblue" d="M691.266,-1125.73C723.212,-1124.14 758.714,-1122.37 783.736,-1121.13"/>
<polygon fill="midnightblue" stroke="midnightblue" points="690.85,-1122.25 681.037,-1126.24 691.198,-1129.24 690.85,-1122.25"/>
</g>
<!-- Node39&#45;&gt;Node34 -->
<g id="edge49" class="edge"><title>Node39&#45;&gt;Node34</title>
<path fill="none" stroke="midnightblue" d="M658.826,-898.28C673.183,-895.611 688.637,-890.867 701,-882.5 759.862,-842.663 797.248,-761.922 810.787,-728.504"/>
<polygon fill="midnightblue" stroke="midnightblue" points="657.963,-894.872 648.626,-899.879 659.047,-901.788 657.963,-894.872"/>
</g>
<!-- Node39&#45;&gt;Node40 -->
<g id="edge47" class="edge"><title>Node39&#45;&gt;Node40</title>
<path fill="none" stroke="midnightblue" d="M658.802,-901.5C688.661,-901.5 728.618,-901.5 760.84,-901.5"/>
<polygon fill="midnightblue" stroke="midnightblue" points="658.691,-898 648.691,-901.5 658.691,-905 658.691,-898"/>
</g>
<!-- Node40&#45;&gt;Node6 -->
<g id="edge48" class="edge"><title>Node40&#45;&gt;Node6</title>
<path fill="none" stroke="midnightblue" d="M833.827,-883.815C866.266,-846.386 940.94,-760.223 966.071,-731.225"/>
<polygon fill="midnightblue" stroke="midnightblue" points="830.792,-881.973 826.887,-891.822 836.081,-886.558 830.792,-881.973"/>
</g>
<!-- Node43 -->
<g id="node43" class="node"><title>Node43</title>
<g id="a_node43"><a xlink:href="policy_8h.html#a791e33e18bea9861e449e6ebcfce8890" target="_top" xlink:title="Check for standard transaction types. ">
<polygon fill="white" stroke="red" points="361,-88 361,-107 468,-107 468,-88 361,-88"/>
<text text-anchor="middle" x="414.5" y="-95" font-family="Helvetica,sans-Serif" font-size="10.00">AreInputsStandard</text>
</a>
</g>
</g>
<!-- Node42&#45;&gt;Node43 -->
<g id="edge56" class="edge"><title>Node42&#45;&gt;Node43</title>
<path fill="none" stroke="midnightblue" d="M234.168,-190.813C256.195,-170.322 296.425,-135.907 337,-116.5 345.024,-112.662 353.906,-109.548 362.692,-107.038"/>
<polygon fill="midnightblue" stroke="midnightblue" points="231.512,-188.508 226.654,-197.924 236.323,-193.592 231.512,-188.508"/>
</g>
<!-- Node44 -->
<g id="node44" class="node"><title>Node44</title>
<g id="a_node44"><a xlink:href="policy_8h.html#a8a73d04fc7e2d36b2acc4d6eb0cc2993" target="_top" xlink:title="Check if the transaction is over standard P2WSH resources limit: 3600bytes witnessScript size...">
<polygon fill="white" stroke="red" points="362,-264 362,-283 467,-283 467,-264 362,-264"/>
<text text-anchor="middle" x="414.5" y="-271" font-family="Helvetica,sans-Serif" font-size="10.00">IsWitnessStandard</text>
</a>
</g>
</g>
<!-- Node42&#45;&gt;Node44 -->
<g id="edge57" class="edge"><title>Node42&#45;&gt;Node44</title>
<path fill="none" stroke="midnightblue" d="M249.057,-220.897C273.033,-230.645 306.755,-243.782 337,-253.5 348.763,-257.279 361.71,-260.873 373.555,-263.945"/>
<polygon fill="midnightblue" stroke="midnightblue" points="250.317,-217.631 239.737,-217.079 247.664,-224.109 250.317,-217.631"/>
</g>
<!-- Node45 -->
<g id="node45" class="node"><title>Node45</title>
<g id="a_node45"><a xlink:href="class_generic_transaction_signature_checker.html#afbb6bedbca83ea20c5a549ba5ad8af6a" target="_top" xlink:title="GenericTransactionSignature\lChecker::CheckSequence">
<polygon fill="white" stroke="black" points="337.5,-214.5 337.5,-244.5 491.5,-244.5 491.5,-214.5 337.5,-214.5"/>
<text text-anchor="start" x="345.5" y="-232.5" font-family="Helvetica,sans-Serif" font-size="10.00">GenericTransactionSignature</text>
<text text-anchor="middle" x="414.5" y="-221.5" font-family="Helvetica,sans-Serif" font-size="10.00">Checker::CheckSequence</text>
</a>
</g>
</g>
<!-- Node42&#45;&gt;Node45 -->
<g id="edge58" class="edge"><title>Node42&#45;&gt;Node45</title>
<path fill="none" stroke="midnightblue" d="M258.172,-212.11C281.05,-214.671 310.25,-217.94 337.145,-220.951"/>
<polygon fill="midnightblue" stroke="midnightblue" points="258.463,-208.62 248.136,-210.986 257.684,-215.577 258.463,-208.62"/>
</g>
<!-- Node46 -->
<g id="node46" class="node"><title>Node46</title>
<g id="a_node46"><a xlink:href="interpreter_8h.html#a20c210d3ade38906e6b8f57b30a1880b" target="_top" xlink:title="VerifyScript">
<polygon fill="white" stroke="red" points="379,-176 379,-195 450,-195 450,-176 379,-176"/>
<text text-anchor="middle" x="414.5" y="-183" font-family="Helvetica,sans-Serif" font-size="10.00">VerifyScript</text>
</a>
</g>
</g>
<!-- Node42&#45;&gt;Node46 -->
<g id="edge59" class="edge"><title>Node42&#45;&gt;Node46</title>
<path fill="none" stroke="midnightblue" d="M258.246,-202.882C294.014,-198.878 345.192,-193.148 378.871,-189.377"/>
<polygon fill="midnightblue" stroke="midnightblue" points="257.684,-199.423 248.136,-204.014 258.463,-206.38 257.684,-199.423"/>
</g>
<!-- Node47 -->
<g id="node47" class="node"><title>Node47</title>
<g id="a_node47"><a xlink:href="class_signature_extractor_checker.html#a03d074e7c53911b00db94b4d7553d60c" target="_top" xlink:title="SignatureExtractorChecker\l::CheckSig">
<polygon fill="white" stroke="red" points="341.5,-126.5 341.5,-156.5 487.5,-156.5 487.5,-126.5 341.5,-126.5"/>
<text text-anchor="start" x="349.5" y="-144.5" font-family="Helvetica,sans-Serif" font-size="10.00">SignatureExtractorChecker</text>
<text text-anchor="middle" x="414.5" y="-133.5" font-family="Helvetica,sans-Serif" font-size="10.00">::CheckSig</text>
</a>
</g>
</g>
<!-- Node42&#45;&gt;Node47 -->
<g id="edge60" class="edge"><title>Node42&#45;&gt;Node47</title>
<path fill="none" stroke="midnightblue" d="M254.253,-194.628C277.924,-186.485 309.229,-175.782 337,-166.5 346.674,-163.267 357.051,-159.845 366.944,-156.604"/>
<polygon fill="midnightblue" stroke="midnightblue" points="252.924,-191.384 244.609,-197.95 255.203,-198.003 252.924,-191.384"/>
</g>
<!-- Node49 -->
<g id="node49" class="node"><title>Node49</title>
<g id="a_node49"><a xlink:href="class_c_script_check.html#a4bad3434ddad70669f634879a8af132e" target="_top" xlink:title="CScriptCheck::GetScriptError">
<polygon fill="white" stroke="black" points="337,-50 337,-69 492,-69 492,-50 337,-50"/>
<text text-anchor="middle" x="414.5" y="-57" font-family="Helvetica,sans-Serif" font-size="10.00">CScriptCheck::GetScriptError</text>
</a>
</g>
</g>
<!-- Node48&#45;&gt;Node49 -->
<g id="edge62" class="edge"><title>Node48&#45;&gt;Node49</title>
<path fill="none" stroke="midnightblue" d="M311.259,-59.5C319.867,-59.5 328.515,-59.5 336.94,-59.5"/>
<polygon fill="midnightblue" stroke="midnightblue" points="311.189,-56.0001 301.189,-59.5 311.189,-63.0001 311.189,-56.0001"/>
</g>
<!-- Node50 -->
<g id="node50" class="node"><title>Node50</title>
<g id="a_node50"><a xlink:href="class_block_assembler.html#acd45f01ed2556e805c82907def19efcb" target="_top" xlink:title="Construct a new block template with coinbase to scriptPubKeyIn. ">
<polygon fill="white" stroke="red" points="338.5,-0.5 338.5,-30.5 490.5,-30.5 490.5,-0.5 338.5,-0.5"/>
<text text-anchor="start" x="346.5" y="-18.5" font-family="Helvetica,sans-Serif" font-size="10.00">BlockAssembler::CreateNew</text>
<text text-anchor="middle" x="414.5" y="-7.5" font-family="Helvetica,sans-Serif" font-size="10.00">Block</text>
</a>
</g>
</g>
<!-- Node48&#45;&gt;Node50 -->
<g id="edge63" class="edge"><title>Node48&#45;&gt;Node50</title>
<path fill="none" stroke="midnightblue" d="M269.441,-47.7576C293.013,-42.4793 321.118,-36.186 346.219,-30.5654"/>
<polygon fill="midnightblue" stroke="midnightblue" points="268.631,-44.3521 259.638,-49.9527 270.161,-51.1829 268.631,-44.3521"/>
</g>
</g>
</svg>
