<?xml version="1.0" encoding="UTF-8" standalone="no"?>
<!DOCTYPE svg PUBLIC "-//W3C//DTD SVG 1.1//EN"
 "http://www.w3.org/Graphics/SVG/1.1/DTD/svg11.dtd">
<!-- Generated by graphviz version 2.40.1 (20161225.0304)
 -->
<!-- Title: CConnman::SweepBanned Pages: 1 -->
<svg width="410pt" height="66pt"
 viewBox="0.00 0.00 410.00 66.00" xmlns="http://www.w3.org/2000/svg" xmlns:xlink="http://www.w3.org/1999/xlink">
<g id="graph0" class="graph" transform="scale(1 1) rotate(0) translate(4 62)">
<title>CConnman::SweepBanned</title>
<polygon fill="#ffffff" stroke="transparent" points="-4,4 -4,-62 406,-62 406,4 -4,4"/>
<!-- Node717 -->
<g id="node1" class="node">
<title>Node717</title>
<polygon fill="#bfbfbf" stroke="#000000" points="0,-19.5 0,-38.5 135,-38.5 135,-19.5 0,-19.5"/>
<text text-anchor="middle" x="67.5" y="-26.5" font-family="Helvetica,sans-Serif" font-size="10.00" fill="#000000">CConnman::SweepBanned</text>
</g>
<!-- Node718 -->
<g id="node2" class="node">
<title>Node718</title>
<g id="a_node2"><a xlink:href="utiltime_8cpp.html#a46fac5fba8ba905b5f9acb364f5d8c6f" target="_top" xlink:title="GetTimeMicros() and GetTimeMillis() both return the system time, but in different units...">
<polygon fill="#ffffff" stroke="#000000" points="194,-38.5 194,-57.5 248,-57.5 248,-38.5 194,-38.5"/>
<text text-anchor="middle" x="221" y="-45.5" font-family="Helvetica,sans-Serif" font-size="10.00" fill="#000000">GetTime</text>
</a>
</g>
</g>
<!-- Node717&#45;&gt;Node718 -->
<g id="edge1" class="edge">
<title>Node717&#45;&gt;Node718</title>
<path fill="none" stroke="#191970" d="M135.2742,-37.389C151.948,-39.4528 169.1948,-41.5876 183.8084,-43.3965"/>
<polygon fill="#191970" stroke="#191970" points="183.5839,-46.8953 193.9382,-44.6503 184.4439,-39.9483 183.5839,-46.8953"/>
</g>
<!-- Node719 -->
<g id="node3" class="node">
<title>Node719</title>
<g id="a_node3"><a xlink:href="class_c_sub_net.html#a91cabfec6c5056fe8f8b477334563880" target="_top" xlink:title="CSubNet::ToString">
<polygon fill="#ffffff" stroke="#000000" points="171,-.5 171,-19.5 271,-19.5 271,-.5 171,-.5"/>
<text text-anchor="middle" x="221" y="-7.5" font-family="Helvetica,sans-Serif" font-size="10.00" fill="#000000">CSubNet::ToString</text>
</a>
</g>
</g>
<!-- Node717&#45;&gt;Node719 -->
<g id="edge2" class="edge">
<title>Node717&#45;&gt;Node719</title>
<path fill="none" stroke="#191970" d="M135.2742,-20.611C143.7246,-19.565 152.3223,-18.5008 160.6498,-17.4701"/>
<polygon fill="#191970" stroke="#191970" points="161.1511,-20.9348 170.6454,-16.2328 160.2911,-13.9878 161.1511,-20.9348"/>
</g>
<!-- Node720 -->
<g id="node4" class="node">
<title>Node720</title>
<g id="a_node4"><a xlink:href="class_c_net_addr.html#a7021b79e9a33c342b68db09dbb6c2293" target="_top" xlink:title="CNetAddr::IsIPv4">
<polygon fill="#ffffff" stroke="#000000" points="307,-.5 307,-19.5 402,-19.5 402,-.5 307,-.5"/>
<text text-anchor="middle" x="354.5" y="-7.5" font-family="Helvetica,sans-Serif" font-size="10.00" fill="#000000">CNetAddr::IsIPv4</text>
</a>
</g>
</g>
<!-- Node719&#45;&gt;Node720 -->
<g id="edge3" class="edge">
<title>Node719&#45;&gt;Node720</title>
<path fill="none" stroke="#191970" d="M271.0903,-10C279.4011,-10 288.0799,-10 296.5654,-10"/>
<polygon fill="#191970" stroke="#191970" points="296.7821,-13.5001 306.782,-10 296.782,-6.5001 296.7821,-13.5001"/>
</g>
</g>
</svg>
