<?xml version="1.0" encoding="UTF-8" standalone="no"?>
<!DOCTYPE svg PUBLIC "-//W3C//DTD SVG 1.1//EN"
 "http://www.w3.org/Graphics/SVG/1.1/DTD/svg11.dtd">
<!-- Generated by graphviz version 2.38.0 (20140413.2041)
 -->
<!-- Title: CScript::clear Pages: 1 -->
<svg width="998pt" height="340pt"
 viewBox="0.00 0.00 998.00 340.00" xmlns="http://www.w3.org/2000/svg" xmlns:xlink="http://www.w3.org/1999/xlink">
<g id="graph0" class="graph" transform="scale(1 1) rotate(0) translate(4 336)">
<title>CScript::clear</title>
<polygon fill="white" stroke="none" points="-4,4 -4,-336 994,-336 994,4 -4,4"/>
<!-- Node1 -->
<g id="node1" class="node"><title>Node1</title>
<polygon fill="#bfbfbf" stroke="black" points="0,-160.5 0,-179.5 80,-179.5 80,-160.5 0,-160.5"/>
<text text-anchor="middle" x="40" y="-167.5" font-family="Helvetica,sans-Serif" font-size="10.00">CScript::clear</text>
</g>
<!-- Node2 -->
<g id="node2" class="node"><title>Node2</title>
<g id="a_node2"><a xlink:href="class_c_tx_out.html#a9fe5e6a1be651f130d3dc84a64e78a24" target="_top" xlink:title="CTxOut::SetNull">
<polygon fill="white" stroke="black" points="125,-198.5 125,-217.5 217,-217.5 217,-198.5 125,-198.5"/>
<text text-anchor="middle" x="171" y="-205.5" font-family="Helvetica,sans-Serif" font-size="10.00">CTxOut::SetNull</text>
</a>
</g>
</g>
<!-- Node1&#45;&gt;Node2 -->
<g id="edge1" class="edge"><title>Node1&#45;&gt;Node2</title>
<path fill="none" stroke="midnightblue" d="M83.554,-182.535C101.103,-187.705 121.113,-193.599 137.458,-198.414"/>
<polygon fill="midnightblue" stroke="midnightblue" points="84.1336,-179.057 73.5521,-179.589 82.1556,-185.772 84.1336,-179.057"/>
</g>
<!-- Node4 -->
<g id="node4" class="node"><title>Node4</title>
<g id="a_node4"><a xlink:href="rawtransaction_8cpp.html#a6b6a0c0d5bd5b55553ea48b3da2e796c" target="_top" xlink:title="converttopsbt">
<polygon fill="white" stroke="black" points="887.5,-28.5 887.5,-47.5 970.5,-47.5 970.5,-28.5 887.5,-28.5"/>
<text text-anchor="middle" x="929" y="-35.5" font-family="Helvetica,sans-Serif" font-size="10.00">converttopsbt</text>
</a>
</g>
</g>
<!-- Node1&#45;&gt;Node4 -->
<g id="edge3" class="edge"><title>Node1&#45;&gt;Node4</title>
<path fill="none" stroke="midnightblue" d="M55.5201,-152.645C93.4835,-109.345 200.76,-0 316,-0 316,-0 316,-0 586,-0 695.659,-0 723.357,-4.10655 832,-19 850.179,-21.4921 870.106,-25.2631 887.07,-28.7904"/>
<polygon fill="midnightblue" stroke="midnightblue" points="52.74,-150.51 48.8698,-160.373 58.0458,-155.076 52.74,-150.51"/>
</g>
<!-- Node5 -->
<g id="node5" class="node"><title>Node5</title>
<g id="a_node5"><a xlink:href="standard_8h.html#a49e36ddce090cc66aba405c0755c8be7" target="_top" xlink:title="Parse a standard scriptPubKey with one or more destination addresses. ">
<polygon fill="white" stroke="black" points="116,-160.5 116,-179.5 226,-179.5 226,-160.5 116,-160.5"/>
<text text-anchor="middle" x="171" y="-167.5" font-family="Helvetica,sans-Serif" font-size="10.00">ExtractDestinations</text>
</a>
</g>
</g>
<!-- Node1&#45;&gt;Node5 -->
<g id="edge4" class="edge"><title>Node1&#45;&gt;Node5</title>
<path fill="none" stroke="midnightblue" d="M90.0969,-170C98.5153,-170 107.306,-170 115.847,-170"/>
<polygon fill="midnightblue" stroke="midnightblue" points="90.0544,-166.5 80.0543,-170 90.0543,-173.5 90.0544,-166.5"/>
</g>
<!-- Node3 -->
<g id="node3" class="node"><title>Node3</title>
<g id="a_node3"><a xlink:href="class_coin.html#a43f443512a1a3444555149d14a9a3d48" target="_top" xlink:title="Coin::Clear">
<polygon fill="white" stroke="black" points="283,-198.5 283,-217.5 351,-217.5 351,-198.5 283,-198.5"/>
<text text-anchor="middle" x="317" y="-205.5" font-family="Helvetica,sans-Serif" font-size="10.00">Coin::Clear</text>
</a>
</g>
</g>
<!-- Node2&#45;&gt;Node3 -->
<g id="edge2" class="edge"><title>Node2&#45;&gt;Node3</title>
<path fill="none" stroke="midnightblue" d="M227.375,-208C246.105,-208 266.424,-208 282.875,-208"/>
<polygon fill="midnightblue" stroke="midnightblue" points="227.167,-204.5 217.167,-208 227.167,-211.5 227.167,-204.5"/>
</g>
<!-- Node6 -->
<g id="node6" class="node"><title>Node6</title>
<g id="a_node6"><a xlink:href="core__write_8cpp.html#a4a51bf7268adbdcd58e7af445ea4db61" target="_top" xlink:title="ScriptPubKeyToUniv">
<polygon fill="white" stroke="black" points="262,-160.5 262,-179.5 372,-179.5 372,-160.5 262,-160.5"/>
<text text-anchor="middle" x="317" y="-167.5" font-family="Helvetica,sans-Serif" font-size="10.00">ScriptPubKeyToUniv</text>
</a>
</g>
</g>
<!-- Node5&#45;&gt;Node6 -->
<g id="edge5" class="edge"><title>Node5&#45;&gt;Node6</title>
<path fill="none" stroke="midnightblue" d="M236.27,-170C244.75,-170 253.375,-170 261.667,-170"/>
<polygon fill="midnightblue" stroke="midnightblue" points="236.03,-166.5 226.03,-170 236.03,-173.5 236.03,-166.5"/>
</g>
<!-- Node7 -->
<g id="node7" class="node"><title>Node7</title>
<g id="a_node7"><a xlink:href="core__write_8cpp.html#a14497f9c37438be66cf5904854fc2530" target="_top" xlink:title="TxToUniv">
<polygon fill="white" stroke="black" points="408,-160.5 408,-179.5 466,-179.5 466,-160.5 408,-160.5"/>
<text text-anchor="middle" x="437" y="-167.5" font-family="Helvetica,sans-Serif" font-size="10.00">TxToUniv</text>
</a>
</g>
</g>
<!-- Node6&#45;&gt;Node7 -->
<g id="edge6" class="edge"><title>Node6&#45;&gt;Node7</title>
<path fill="none" stroke="midnightblue" d="M382.323,-170C391.297,-170 400.106,-170 407.909,-170"/>
<polygon fill="midnightblue" stroke="midnightblue" points="382.165,-166.5 372.165,-170 382.165,-173.5 382.165,-166.5"/>
</g>
<!-- Node9 -->
<g id="node9" class="node"><title>Node9</title>
<g id="a_node9"><a xlink:href="struct_c_coin.html#a2a0a2532bdacb03b087b3b0a400830ec" target="_top" xlink:title="CCoin::SerializationOp">
<polygon fill="white" stroke="black" points="868,-217.5 868,-236.5 990,-236.5 990,-217.5 868,-217.5"/>
<text text-anchor="middle" x="929" y="-224.5" font-family="Helvetica,sans-Serif" font-size="10.00">CCoin::SerializationOp</text>
</a>
</g>
</g>
<!-- Node6&#45;&gt;Node9 -->
<g id="edge21" class="edge"><title>Node6&#45;&gt;Node9</title>
<path fill="none" stroke="midnightblue" d="M357.063,-183.024C362.13,-184.924 367.217,-186.938 372,-189 431.688,-214.737 439.23,-239.122 502,-256 643.701,-294.101 687.989,-294.136 832,-266 860.602,-260.412 891.448,-246.279 910.244,-236.653"/>
<polygon fill="midnightblue" stroke="midnightblue" points="358.023,-179.65 347.429,-179.531 355.637,-186.23 358.023,-179.65"/>
</g>
<!-- Node12 -->
<g id="node12" class="node"><title>Node12</title>
<g id="a_node12"><a xlink:href="rawtransaction_8h.html#aee85a5d91a985f7e1bc1b4a124870ab3" target="_top" xlink:title="Create a transaction from univalue parameters. ">
<polygon fill="white" stroke="black" points="526.5,-66.5 526.5,-85.5 643.5,-85.5 643.5,-66.5 526.5,-66.5"/>
<text text-anchor="middle" x="585" y="-73.5" font-family="Helvetica,sans-Serif" font-size="10.00">ConstructTransaction</text>
</a>
</g>
</g>
<!-- Node6&#45;&gt;Node12 -->
<g id="edge24" class="edge"><title>Node6&#45;&gt;Node12</title>
<path fill="none" stroke="midnightblue" d="M354.515,-157.096C408.637,-137.97 508.912,-102.535 556.959,-85.5557"/>
<polygon fill="midnightblue" stroke="midnightblue" points="353.232,-153.837 344.969,-160.469 355.564,-160.438 353.232,-153.837"/>
</g>
<!-- Node16 -->
<g id="node16" class="node"><title>Node16</title>
<g id="a_node16"><a xlink:href="blockchain_8cpp.html#a0d3ec9ae23b08828dd7ca646766ca637" target="_top" xlink:title="gettxout">
<polygon fill="white" stroke="black" points="408.5,-312.5 408.5,-331.5 465.5,-331.5 465.5,-312.5 408.5,-312.5"/>
<text text-anchor="middle" x="437" y="-319.5" font-family="Helvetica,sans-Serif" font-size="10.00">gettxout</text>
</a>
</g>
</g>
<!-- Node6&#45;&gt;Node16 -->
<g id="edge22" class="edge"><title>Node6&#45;&gt;Node16</title>
<path fill="none" stroke="midnightblue" d="M367.365,-184.939C369.01,-186.186 370.565,-187.537 372,-189 407.725,-225.422 379.591,-255.623 408,-298 411.636,-303.424 416.82,-308.336 421.741,-312.283"/>
<polygon fill="midnightblue" stroke="midnightblue" points="368.872,-181.758 358.515,-179.529 365.221,-187.731 368.872,-181.758"/>
</g>
<!-- Node8 -->
<g id="node8" class="node"><title>Node8</title>
<g id="a_node8"><a xlink:href="class_secp256k1_init.html#afc30fc1b48da30544d3365df6ed3e3f4" target="_top" xlink:title="Secp256k1Init::~Secp256k1Init">
<polygon fill="white" stroke="black" points="502,-122.5 502,-141.5 668,-141.5 668,-122.5 502,-122.5"/>
<text text-anchor="middle" x="585" y="-129.5" font-family="Helvetica,sans-Serif" font-size="10.00">Secp256k1Init::~Secp256k1Init</text>
</a>
</g>
</g>
<!-- Node7&#45;&gt;Node8 -->
<g id="edge7" class="edge"><title>Node7&#45;&gt;Node8</title>
<path fill="none" stroke="midnightblue" d="M475.839,-160.151C497.876,-154.416 525.529,-147.218 547.358,-141.537"/>
<polygon fill="midnightblue" stroke="midnightblue" points="474.946,-156.767 466.15,-162.673 476.709,-163.541 474.946,-156.767"/>
</g>
<!-- Node7&#45;&gt;Node9 -->
<g id="edge8" class="edge"><title>Node7&#45;&gt;Node9</title>
<path fill="none" stroke="midnightblue" d="M451.767,-187.719C463.474,-201.266 481.601,-218.943 502,-227 634.759,-279.438 809.47,-252.809 887.42,-236.527"/>
<polygon fill="midnightblue" stroke="midnightblue" points="454.41,-185.423 445.343,-179.94 449.012,-189.88 454.41,-185.423"/>
</g>
<!-- Node10 -->
<g id="node10" class="node"><title>Node10</title>
<g id="a_node10"><a xlink:href="blockchain_8h.html#a6b596f07acd85fe676c798170fd8ddbe" target="_top" xlink:title="Block description to JSON. ">
<polygon fill="white" stroke="black" points="547.5,-198.5 547.5,-217.5 622.5,-217.5 622.5,-198.5 547.5,-198.5"/>
<text text-anchor="middle" x="585" y="-205.5" font-family="Helvetica,sans-Serif" font-size="10.00">blockToJSON</text>
</a>
</g>
</g>
<!-- Node7&#45;&gt;Node10 -->
<g id="edge9" class="edge"><title>Node7&#45;&gt;Node10</title>
<path fill="none" stroke="midnightblue" d="M475.839,-179.849C497.876,-185.584 525.529,-192.782 547.358,-198.463"/>
<polygon fill="midnightblue" stroke="midnightblue" points="476.709,-176.459 466.15,-177.327 474.946,-183.233 476.709,-176.459"/>
</g>
<!-- Node7&#45;&gt;Node12 -->
<g id="edge14" class="edge"><title>Node7&#45;&gt;Node12</title>
<path fill="none" stroke="midnightblue" d="M454.464,-152.766C466.751,-140.575 484.391,-124.43 502,-113 519.424,-101.69 540.876,-92.1454 557.468,-85.5841"/>
<polygon fill="midnightblue" stroke="midnightblue" points="451.745,-150.539 447.216,-160.117 456.73,-155.453 451.745,-150.539"/>
</g>
<!-- Node15 -->
<g id="node15" class="node"><title>Node15</title>
<g id="a_node15"><a xlink:href="rawtransaction_8cpp.html#a0e9b5930a41831d5be26d74565f07340" target="_top" xlink:title="decodepsbt">
<polygon fill="white" stroke="black" points="731.5,-104.5 731.5,-123.5 804.5,-123.5 804.5,-104.5 731.5,-104.5"/>
<text text-anchor="middle" x="768" y="-111.5" font-family="Helvetica,sans-Serif" font-size="10.00">decodepsbt</text>
</a>
</g>
</g>
<!-- Node7&#45;&gt;Node15 -->
<g id="edge19" class="edge"><title>Node7&#45;&gt;Node15</title>
<path fill="none" stroke="midnightblue" d="M476.407,-171.228C522.718,-171.713 602.497,-169.343 668,-151 685.226,-146.176 687.376,-139.607 704,-133 712.812,-129.498 722.532,-126.27 731.645,-123.506"/>
<polygon fill="midnightblue" stroke="midnightblue" points="476.27,-167.726 466.217,-171.069 476.161,-174.725 476.27,-167.726"/>
</g>
<!-- Node10&#45;&gt;Node9 -->
<g id="edge10" class="edge"><title>Node10&#45;&gt;Node9</title>
<path fill="none" stroke="midnightblue" d="M632.721,-210.596C693.795,-213.989 800.857,-219.937 867.908,-223.662"/>
<polygon fill="midnightblue" stroke="midnightblue" points="632.779,-207.094 622.6,-210.033 632.39,-214.083 632.779,-207.094"/>
</g>
<!-- Node11 -->
<g id="node11" class="node"><title>Node11</title>
<g id="a_node11"><a xlink:href="blockchain_8h.html#a3b8a8939a31de29ceb0ea581341eeb92" target="_top" xlink:title="Mempool to JSON. ">
<polygon fill="white" stroke="black" points="720,-142.5 720,-161.5 816,-161.5 816,-142.5 720,-142.5"/>
<text text-anchor="middle" x="768" y="-149.5" font-family="Helvetica,sans-Serif" font-size="10.00">mempoolToJSON</text>
</a>
</g>
</g>
<!-- Node10&#45;&gt;Node11 -->
<g id="edge11" class="edge"><title>Node10&#45;&gt;Node11</title>
<path fill="none" stroke="midnightblue" d="M629.316,-195.567C641.821,-191.912 655.471,-187.857 668,-184 691.651,-176.718 718.341,-168.066 738.043,-161.595"/>
<polygon fill="midnightblue" stroke="midnightblue" points="628.199,-192.247 619.576,-198.402 630.156,-198.968 628.199,-192.247"/>
</g>
<!-- Node11&#45;&gt;Node9 -->
<g id="edge12" class="edge"><title>Node11&#45;&gt;Node9</title>
<path fill="none" stroke="midnightblue" d="M798.705,-166.012C830.471,-180.996 879.991,-204.354 907.618,-217.386"/>
<polygon fill="midnightblue" stroke="midnightblue" points="799.998,-162.752 789.461,-161.651 797.012,-169.083 799.998,-162.752"/>
</g>
<!-- Node11&#45;&gt;Node11 -->
<g id="edge13" class="edge"><title>Node11&#45;&gt;Node11</title>
<path fill="none" stroke="midnightblue" d="M738.06,-170.275C738.914,-175.741 748.894,-180 768,-180 796.438,-180 804.658,-170.565 792.661,-161.757"/>
<polygon fill="midnightblue" stroke="midnightblue" points="741.046,-172.101 743.339,-161.757 735.096,-168.413 741.046,-172.101"/>
</g>
<!-- Node12&#45;&gt;Node12 -->
<g id="edge15" class="edge"><title>Node12&#45;&gt;Node12</title>
<path fill="none" stroke="midnightblue" d="M557.374,-94.6539C558.529,-99.9368 567.738,-104 585,-104 611.305,-104 618.908,-94.5653 607.811,-85.7571"/>
<polygon fill="midnightblue" stroke="midnightblue" points="560.508,-96.2176 562.189,-85.7571 554.351,-92.886 560.508,-96.2176"/>
</g>
<!-- Node13 -->
<g id="node13" class="node"><title>Node13</title>
<g id="a_node13"><a xlink:href="rawtransaction_8cpp.html#ab96b0b3cf82a8f50975ee74c26c4dbf8" target="_top" xlink:title="createpsbt">
<polygon fill="white" stroke="black" points="734,-28.5 734,-47.5 802,-47.5 802,-28.5 734,-28.5"/>
<text text-anchor="middle" x="768" y="-35.5" font-family="Helvetica,sans-Serif" font-size="10.00">createpsbt</text>
</a>
</g>
</g>
<!-- Node12&#45;&gt;Node13 -->
<g id="edge16" class="edge"><title>Node12&#45;&gt;Node13</title>
<path fill="none" stroke="midnightblue" d="M641.657,-64.3152C671.854,-57.9754 708.16,-50.3532 733.907,-44.9477"/>
<polygon fill="midnightblue" stroke="midnightblue" points="640.741,-60.9309 631.674,-66.411 642.18,-67.7816 640.741,-60.9309"/>
</g>
<!-- Node14 -->
<g id="node14" class="node"><title>Node14</title>
<g id="a_node14"><a xlink:href="rpcwallet_8cpp.html#afca55ac7a3c6c274b8b7b3e6eab9cd86" target="_top" xlink:title="walletcreatefundedpsbt">
<polygon fill="white" stroke="black" points="704,-66.5 704,-85.5 832,-85.5 832,-66.5 704,-66.5"/>
<text text-anchor="middle" x="768" y="-73.5" font-family="Helvetica,sans-Serif" font-size="10.00">walletcreatefundedpsbt</text>
</a>
</g>
</g>
<!-- Node12&#45;&gt;Node14 -->
<g id="edge18" class="edge"><title>Node12&#45;&gt;Node14</title>
<path fill="none" stroke="midnightblue" d="M653.815,-76C670.207,-76 687.66,-76 703.829,-76"/>
<polygon fill="midnightblue" stroke="midnightblue" points="653.767,-72.5001 643.767,-76 653.767,-79.5001 653.767,-72.5001"/>
</g>
<!-- Node13&#45;&gt;Node4 -->
<g id="edge17" class="edge"><title>Node13&#45;&gt;Node4</title>
<path fill="none" stroke="midnightblue" d="M812.646,-38C835.977,-38 864.52,-38 887.376,-38"/>
<polygon fill="midnightblue" stroke="midnightblue" points="812.332,-34.5001 802.332,-38 812.332,-41.5001 812.332,-34.5001"/>
</g>
<!-- Node15&#45;&gt;Node4 -->
<g id="edge20" class="edge"><title>Node15&#45;&gt;Node4</title>
<path fill="none" stroke="midnightblue" d="M814.068,-101.872C820.18,-99.8045 826.304,-97.5052 832,-95 862.872,-81.4215 896.127,-59.9687 914.264,-47.6186"/>
<polygon fill="midnightblue" stroke="midnightblue" points="812.99,-98.5419 804.536,-104.927 815.127,-105.208 812.99,-98.5419"/>
</g>
<!-- Node17 -->
<g id="node17" class="node"><title>Node17</title>
<g id="a_node17"><a xlink:href="blockchain_8cpp.html#af8ae2be64c52204527fac00aefc1151c" target="_top" xlink:title="scantxoutset">
<polygon fill="white" stroke="black" points="545.5,-312.5 545.5,-331.5 624.5,-331.5 624.5,-312.5 545.5,-312.5"/>
<text text-anchor="middle" x="585" y="-319.5" font-family="Helvetica,sans-Serif" font-size="10.00">scantxoutset</text>
</a>
</g>
</g>
<!-- Node16&#45;&gt;Node17 -->
<g id="edge23" class="edge"><title>Node16&#45;&gt;Node17</title>
<path fill="none" stroke="midnightblue" d="M475.814,-322C497.158,-322 523.777,-322 545.27,-322"/>
<polygon fill="midnightblue" stroke="midnightblue" points="475.805,-318.5 465.805,-322 475.805,-325.5 475.805,-318.5"/>
</g>
</g>
</svg>
