<?xml version="1.0" encoding="UTF-8" standalone="no"?>
<!DOCTYPE svg PUBLIC "-//W3C//DTD SVG 1.1//EN"
 "http://www.w3.org/Graphics/SVG/1.1/DTD/svg11.dtd">
<!-- Generated by graphviz version 2.38.0 (20140413.2041)
 -->
<!-- Title: CConnman::Unban Pages: 1 -->
<svg width="1684pt" height="265pt"
 viewBox="0.00 0.00 1684.00 265.00" xmlns="http://www.w3.org/2000/svg" xmlns:xlink="http://www.w3.org/1999/xlink">
<g id="graph0" class="graph" transform="scale(1 1) rotate(0) translate(4 261)">
<title>CConnman::Unban</title>
<polygon fill="white" stroke="none" points="-4,4 -4,-261 1680,-261 1680,4 -4,4"/>
<!-- Node1 -->
<g id="node1" class="node"><title>Node1</title>
<polygon fill="#bfbfbf" stroke="black" points="0,-133.5 0,-152.5 107,-152.5 107,-133.5 0,-133.5"/>
<text text-anchor="middle" x="53.5" y="-140.5" font-family="Helvetica,sans-Serif" font-size="10.00">CConnman::Unban</text>
</g>
<!-- Node2 -->
<g id="node2" class="node"><title>Node2</title>
<g id="a_node2"><a xlink:href="class_c_connman.html#a6e729a956380ac422ab78d842e158df1" target="_top" xlink:title="CConnman::DumpBanlist">
<polygon fill="white" stroke="black" points="143,-133.5 143,-152.5 280,-152.5 280,-133.5 143,-133.5"/>
<text text-anchor="middle" x="211.5" y="-140.5" font-family="Helvetica,sans-Serif" font-size="10.00">CConnman::DumpBanlist</text>
</a>
</g>
</g>
<!-- Node1&#45;&gt;Node2 -->
<g id="edge1" class="edge"><title>Node1&#45;&gt;Node2</title>
<path fill="none" stroke="midnightblue" d="M107.314,-143C115.51,-143 124.121,-143 132.729,-143"/>
<polygon fill="midnightblue" stroke="midnightblue" points="132.806,-146.5 142.806,-143 132.806,-139.5 132.806,-146.5"/>
</g>
<!-- Node3 -->
<g id="node3" class="node"><title>Node3</title>
<g id="a_node3"><a xlink:href="class_c_connman.html#a0695d37447e19cfde25be7e9b7f13f67" target="_top" xlink:title="clean unused entries (if bantime has expired) ">
<polygon fill="white" stroke="black" points="520,-209.5 520,-228.5 664,-228.5 664,-209.5 520,-209.5"/>
<text text-anchor="middle" x="592" y="-216.5" font-family="Helvetica,sans-Serif" font-size="10.00">CConnman::SweepBanned</text>
</a>
</g>
</g>
<!-- Node2&#45;&gt;Node3 -->
<g id="edge2" class="edge"><title>Node2&#45;&gt;Node3</title>
<path fill="none" stroke="midnightblue" d="M221.304,-152.646C237.839,-169.961 275.538,-205.74 316,-219 385.977,-241.933 471.458,-237.232 528.359,-229.871"/>
<polygon fill="midnightblue" stroke="midnightblue" points="528.851,-233.336 538.289,-228.521 527.909,-226.4 528.851,-233.336"/>
</g>
<!-- Node20 -->
<g id="node20" class="node"><title>Node20</title>
<g id="a_node20"><a xlink:href="class_c_connman.html#ac5a5efb5d7a41f9a6f99c7328997f40d" target="_top" xlink:title="check is the banlist has unwritten changes ">
<polygon fill="white" stroke="black" points="320.5,-152.5 320.5,-171.5 479.5,-171.5 479.5,-152.5 320.5,-152.5"/>
<text text-anchor="middle" x="400" y="-159.5" font-family="Helvetica,sans-Serif" font-size="10.00">CConnman::BannedSetIsDirty</text>
</a>
</g>
</g>
<!-- Node2&#45;&gt;Node20 -->
<g id="edge26" class="edge"><title>Node2&#45;&gt;Node20</title>
<path fill="none" stroke="midnightblue" d="M280.094,-149.886C289.867,-150.882 300.048,-151.919 310.159,-152.949"/>
<polygon fill="midnightblue" stroke="midnightblue" points="309.927,-156.444 320.23,-153.975 310.636,-149.48 309.927,-156.444"/>
</g>
<!-- Node21 -->
<g id="node21" class="node"><title>Node21</title>
<g id="a_node21"><a xlink:href="utiltime_8cpp.html#a139d0fe6387b9e230a9b8bb12d9b43b9" target="_top" xlink:title="GetTimeMillis">
<polygon fill="white" stroke="black" points="360,-114.5 360,-133.5 440,-133.5 440,-114.5 360,-114.5"/>
<text text-anchor="middle" x="400" y="-121.5" font-family="Helvetica,sans-Serif" font-size="10.00">GetTimeMillis</text>
</a>
</g>
</g>
<!-- Node2&#45;&gt;Node21 -->
<g id="edge27" class="edge"><title>Node2&#45;&gt;Node21</title>
<path fill="none" stroke="midnightblue" d="M280.094,-136.114C303.118,-133.768 328.404,-131.192 349.716,-129.021"/>
<polygon fill="midnightblue" stroke="midnightblue" points="350.238,-132.486 359.832,-127.99 349.529,-125.522 350.238,-132.486"/>
</g>
<!-- Node22 -->
<g id="node22" class="node"><title>Node22</title>
<g id="a_node22"><a xlink:href="class_c_connman.html#a72472ae8962210960eea780bf0e733f6" target="_top" xlink:title="CConnman::GetBanned">
<polygon fill="white" stroke="black" points="335,-190.5 335,-209.5 465,-209.5 465,-190.5 335,-190.5"/>
<text text-anchor="middle" x="400" y="-197.5" font-family="Helvetica,sans-Serif" font-size="10.00">CConnman::GetBanned</text>
</a>
</g>
</g>
<!-- Node2&#45;&gt;Node22 -->
<g id="edge28" class="edge"><title>Node2&#45;&gt;Node22</title>
<path fill="none" stroke="midnightblue" d="M236.056,-152.621C256.849,-160.879 288.107,-172.723 316,-181 324.546,-183.536 333.672,-185.931 342.63,-188.112"/>
<polygon fill="midnightblue" stroke="midnightblue" points="342.095,-191.582 352.632,-190.478 343.707,-184.77 342.095,-191.582"/>
</g>
<!-- Node23 -->
<g id="node23" class="node"><title>Node23</title>
<g id="a_node23"><a xlink:href="class_c_ban_d_b.html#a0550a06c6b5987869f557467fe7f9896" target="_top" xlink:title="CBanDB::Write">
<polygon fill="white" stroke="black" points="357,-76.5 357,-95.5 443,-95.5 443,-76.5 357,-76.5"/>
<text text-anchor="middle" x="400" y="-83.5" font-family="Helvetica,sans-Serif" font-size="10.00">CBanDB::Write</text>
</a>
</g>
</g>
<!-- Node2&#45;&gt;Node23 -->
<g id="edge30" class="edge"><title>Node2&#45;&gt;Node23</title>
<path fill="none" stroke="midnightblue" d="M236.056,-133.379C256.849,-125.121 288.107,-113.277 316,-105 325.988,-102.036 336.767,-99.2645 347.144,-96.8034"/>
<polygon fill="midnightblue" stroke="midnightblue" points="347.976,-100.203 356.932,-94.5429 346.401,-93.383 347.976,-100.203"/>
</g>
<!-- Node24 -->
<g id="node24" class="node"><title>Node24</title>
<g id="a_node24"><a xlink:href="class_c_connman.html#a6006659dcdda45215102e5982d4879a1" target="_top" xlink:title="set the &quot;dirty&quot; flag for the banlist ">
<polygon fill="white" stroke="black" points="316,-38.5 316,-57.5 484,-57.5 484,-38.5 316,-38.5"/>
<text text-anchor="middle" x="400" y="-45.5" font-family="Helvetica,sans-Serif" font-size="10.00">CConnman::SetBannedSetDirty</text>
</a>
</g>
</g>
<!-- Node2&#45;&gt;Node24 -->
<g id="edge31" class="edge"><title>Node2&#45;&gt;Node24</title>
<path fill="none" stroke="midnightblue" d="M222.462,-133.454C239.936,-117.253 277.891,-84.4411 316,-67 321.425,-64.5172 327.202,-62.345 333.086,-60.4472"/>
<polygon fill="midnightblue" stroke="midnightblue" points="334.446,-63.6951 343.045,-57.506 332.463,-56.9817 334.446,-63.6951"/>
</g>
<!-- Node4 -->
<g id="node4" class="node"><title>Node4</title>
<g id="a_node4"><a xlink:href="utiltime_8cpp.html#a46fac5fba8ba905b5f9acb364f5d8c6f" target="_top" xlink:title="GetTimeMicros() and GetTimeMillis() both return the system time, but in different units...">
<polygon fill="white" stroke="black" points="723.5,-228.5 723.5,-247.5 780.5,-247.5 780.5,-228.5 723.5,-228.5"/>
<text text-anchor="middle" x="752" y="-235.5" font-family="Helvetica,sans-Serif" font-size="10.00">GetTime</text>
</a>
</g>
</g>
<!-- Node3&#45;&gt;Node4 -->
<g id="edge3" class="edge"><title>Node3&#45;&gt;Node4</title>
<path fill="none" stroke="midnightblue" d="M664.142,-227.555C681.016,-229.584 698.372,-231.671 713.091,-233.441"/>
<polygon fill="midnightblue" stroke="midnightblue" points="712.951,-236.95 723.298,-234.669 713.787,-230 712.951,-236.95"/>
</g>
<!-- Node5 -->
<g id="node5" class="node"><title>Node5</title>
<g id="a_node5"><a xlink:href="class_c_sub_net.html#af74e20241c5e2989e94560ab8d4c9fbd" target="_top" xlink:title="CSubNet::ToString">
<polygon fill="white" stroke="black" points="700,-190.5 700,-209.5 804,-209.5 804,-190.5 700,-190.5"/>
<text text-anchor="middle" x="752" y="-197.5" font-family="Helvetica,sans-Serif" font-size="10.00">CSubNet::ToString</text>
</a>
</g>
</g>
<!-- Node3&#45;&gt;Node5 -->
<g id="edge4" class="edge"><title>Node3&#45;&gt;Node5</title>
<path fill="none" stroke="midnightblue" d="M664.142,-210.445C672.644,-209.423 681.269,-208.385 689.617,-207.382"/>
<polygon fill="midnightblue" stroke="midnightblue" points="690.125,-210.846 699.635,-206.177 689.289,-203.896 690.125,-210.846"/>
</g>
<!-- Node6 -->
<g id="node6" class="node"><title>Node6</title>
<g id="a_node6"><a xlink:href="class_c_net_addr.html#a16ff4478f02f06f5a9a038a24d5da2f9" target="_top" xlink:title="CNetAddr::IsIPv4">
<polygon fill="white" stroke="black" points="1466.5,-171.5 1466.5,-190.5 1562.5,-190.5 1562.5,-171.5 1466.5,-171.5"/>
<text text-anchor="middle" x="1514.5" y="-178.5" font-family="Helvetica,sans-Serif" font-size="10.00">CNetAddr::IsIPv4</text>
</a>
</g>
</g>
<!-- Node5&#45;&gt;Node6 -->
<g id="edge5" class="edge"><title>Node5&#45;&gt;Node6</title>
<path fill="none" stroke="midnightblue" d="M781.55,-209.541C832.726,-225.767 943.735,-257 1040,-257 1040,-257 1040,-257 1200,-257 1299.89,-257 1326.25,-250.449 1422,-222 1444.53,-215.307 1468.74,-204.271 1486.6,-195.334"/>
<polygon fill="midnightblue" stroke="midnightblue" points="1488.5,-198.293 1495.81,-190.626 1485.31,-192.059 1488.5,-198.293"/>
</g>
<!-- Node7 -->
<g id="node7" class="node"><title>Node7</title>
<g id="a_node7"><a xlink:href="class_c_net_addr.html#aae906cecdba331389f249a64693895b6" target="_top" xlink:title="CNetAddr::ToString">
<polygon fill="white" stroke="black" points="840,-171.5 840,-190.5 947,-190.5 947,-171.5 840,-171.5"/>
<text text-anchor="middle" x="893.5" y="-178.5" font-family="Helvetica,sans-Serif" font-size="10.00">CNetAddr::ToString</text>
</a>
</g>
</g>
<!-- Node5&#45;&gt;Node7 -->
<g id="edge6" class="edge"><title>Node5&#45;&gt;Node7</title>
<path fill="none" stroke="midnightblue" d="M804.153,-193.033C812.536,-191.891 821.306,-190.697 829.929,-189.522"/>
<polygon fill="midnightblue" stroke="midnightblue" points="830.514,-192.975 839.95,-188.157 829.57,-186.039 830.514,-192.975"/>
</g>
<!-- Node8 -->
<g id="node8" class="node"><title>Node8</title>
<g id="a_node8"><a xlink:href="class_c_net_addr.html#a7ec845c27b63853fb0db08a4d154266f" target="_top" xlink:title="CNetAddr::ToStringIP">
<polygon fill="white" stroke="black" points="983,-133.5 983,-152.5 1099,-152.5 1099,-133.5 983,-133.5"/>
<text text-anchor="middle" x="1041" y="-140.5" font-family="Helvetica,sans-Serif" font-size="10.00">CNetAddr::ToStringIP</text>
</a>
</g>
</g>
<!-- Node7&#45;&gt;Node8 -->
<g id="edge7" class="edge"><title>Node7&#45;&gt;Node8</title>
<path fill="none" stroke="midnightblue" d="M931.216,-171.411C950.157,-166.464 973.457,-160.379 993.629,-155.111"/>
<polygon fill="midnightblue" stroke="midnightblue" points="994.757,-158.433 1003.55,-152.52 992.988,-151.661 994.757,-158.433"/>
</g>
<!-- Node8&#45;&gt;Node6 -->
<g id="edge24" class="edge"><title>Node8&#45;&gt;Node6</title>
<path fill="none" stroke="midnightblue" d="M1053.05,-152.641C1069.54,-166.326 1102.19,-190.746 1135,-200 1250.82,-232.669 1394.34,-208.959 1466.87,-192.755"/>
<polygon fill="midnightblue" stroke="midnightblue" points="1467.65,-196.166 1476.62,-190.525 1466.09,-189.342 1467.65,-196.166"/>
</g>
<!-- Node9 -->
<g id="node9" class="node"><title>Node9</title>
<g id="a_node9"><a xlink:href="class_c_net_addr.html#a3fba9e0b18f531c0ed15794a30e8165d" target="_top" xlink:title="CNetAddr::IsTor">
<polygon fill="white" stroke="black" points="1469.5,-38.5 1469.5,-57.5 1559.5,-57.5 1559.5,-38.5 1469.5,-38.5"/>
<text text-anchor="middle" x="1514.5" y="-45.5" font-family="Helvetica,sans-Serif" font-size="10.00">CNetAddr::IsTor</text>
</a>
</g>
</g>
<!-- Node8&#45;&gt;Node9 -->
<g id="edge8" class="edge"><title>Node8&#45;&gt;Node9</title>
<path fill="none" stroke="midnightblue" d="M1054.53,-133.481C1071.77,-120.837 1104.16,-98.6336 1135,-86 1204.24,-57.6394 1224.66,-56.4995 1299,-48 1353.29,-41.7925 1415.82,-42.7011 1459.3,-44.6076"/>
<polygon fill="midnightblue" stroke="midnightblue" points="1459.22,-48.1078 1469.38,-45.0822 1459.55,-41.1155 1459.22,-48.1078"/>
</g>
<!-- Node10 -->
<g id="node10" class="node"><title>Node10</title>
<g id="a_node10"><a xlink:href="utilstrencodings_8cpp.html#aed1944a78afffe9d5f3129e656dc8aa6" target="_top" xlink:title="EncodeBase32">
<polygon fill="white" stroke="black" points="1155,-171.5 1155,-190.5 1243,-190.5 1243,-171.5 1155,-171.5"/>
<text text-anchor="middle" x="1199" y="-178.5" font-family="Helvetica,sans-Serif" font-size="10.00">EncodeBase32</text>
</a>
</g>
</g>
<!-- Node8&#45;&gt;Node10 -->
<g id="edge9" class="edge"><title>Node8&#45;&gt;Node10</title>
<path fill="none" stroke="midnightblue" d="M1081.37,-152.589C1101.95,-157.604 1127.34,-163.788 1149.17,-169.105"/>
<polygon fill="midnightblue" stroke="midnightblue" points="1148.37,-172.514 1158.92,-171.48 1150.03,-165.713 1148.37,-172.514"/>
</g>
<!-- Node11 -->
<g id="node11" class="node"><title>Node11</title>
<g id="a_node11"><a xlink:href="class_c_net_addr.html#ab6a1988f734e2f0c4a67ebaefe8b01c8" target="_top" xlink:title="CNetAddr::IsInternal">
<polygon fill="white" stroke="black" points="1458,-0.5 1458,-19.5 1571,-19.5 1571,-0.5 1458,-0.5"/>
<text text-anchor="middle" x="1514.5" y="-7.5" font-family="Helvetica,sans-Serif" font-size="10.00">CNetAddr::IsInternal</text>
</a>
</g>
</g>
<!-- Node8&#45;&gt;Node11 -->
<g id="edge10" class="edge"><title>Node8&#45;&gt;Node11</title>
<path fill="none" stroke="midnightblue" d="M1048.01,-133.327C1061.04,-113.336 1094.02,-67.6973 1135,-48 1235.83,0.463696 1368.95,1.42884 1447.47,-3.46474"/>
<polygon fill="midnightblue" stroke="midnightblue" points="1447.5,-6.97438 1457.71,-4.15554 1447.97,0.00974503 1447.5,-6.97438"/>
</g>
<!-- Node12 -->
<g id="node12" class="node"><title>Node12</title>
<g id="a_node12"><a xlink:href="class_c_service.html#ab0f791c174511056236119cc1580faeb" target="_top" xlink:title="CService::GetSockAddr">
<polygon fill="white" stroke="black" points="1135,-95.5 1135,-114.5 1263,-114.5 1263,-95.5 1135,-95.5"/>
<text text-anchor="middle" x="1199" y="-102.5" font-family="Helvetica,sans-Serif" font-size="10.00">CService::GetSockAddr</text>
</a>
</g>
</g>
<!-- Node8&#45;&gt;Node12 -->
<g id="edge11" class="edge"><title>Node8&#45;&gt;Node12</title>
<path fill="none" stroke="midnightblue" d="M1081.37,-133.411C1101.95,-128.396 1127.34,-122.212 1149.17,-116.895"/>
<polygon fill="midnightblue" stroke="midnightblue" points="1150.03,-120.287 1158.92,-114.52 1148.37,-113.486 1150.03,-120.287"/>
</g>
<!-- Node19 -->
<g id="node19" class="node"><title>Node19</title>
<g id="a_node19"><a xlink:href="class_c_net_addr.html#a0793d30a6baae6e3d4e06084ec33eddd" target="_top" xlink:title="CNetAddr::GetByte">
<polygon fill="white" stroke="black" points="1145,-133.5 1145,-152.5 1253,-152.5 1253,-133.5 1145,-133.5"/>
<text text-anchor="middle" x="1199" y="-140.5" font-family="Helvetica,sans-Serif" font-size="10.00">CNetAddr::GetByte</text>
</a>
</g>
</g>
<!-- Node8&#45;&gt;Node19 -->
<g id="edge25" class="edge"><title>Node8&#45;&gt;Node19</title>
<path fill="none" stroke="midnightblue" d="M1099.2,-143C1110.77,-143 1123,-143 1134.76,-143"/>
<polygon fill="midnightblue" stroke="midnightblue" points="1134.95,-146.5 1144.95,-143 1134.95,-139.5 1134.95,-146.5"/>
</g>
<!-- Node12&#45;&gt;Node6 -->
<g id="edge12" class="edge"><title>Node12&#45;&gt;Node6</title>
<path fill="none" stroke="midnightblue" d="M1242.66,-114.554C1249.73,-117.055 1256.78,-120.162 1263,-124 1282.8,-136.213 1278.06,-151.873 1299,-162 1348.18,-185.78 1411.1,-188.604 1456.05,-186.647"/>
<polygon fill="midnightblue" stroke="midnightblue" points="1456.41,-190.133 1466.21,-186.11 1456.04,-183.142 1456.41,-190.133"/>
</g>
<!-- Node13 -->
<g id="node13" class="node"><title>Node13</title>
<g id="a_node13"><a xlink:href="class_c_net_addr.html#aa2e2c78db01a6a27d6a2740f2ba43e90" target="_top" xlink:title="CNetAddr::GetInAddr">
<polygon fill="white" stroke="black" points="1302,-133.5 1302,-152.5 1419,-152.5 1419,-133.5 1302,-133.5"/>
<text text-anchor="middle" x="1360.5" y="-140.5" font-family="Helvetica,sans-Serif" font-size="10.00">CNetAddr::GetInAddr</text>
</a>
</g>
</g>
<!-- Node12&#45;&gt;Node13 -->
<g id="edge13" class="edge"><title>Node12&#45;&gt;Node13</title>
<path fill="none" stroke="midnightblue" d="M1240.25,-114.589C1261.3,-119.604 1287.26,-125.788 1309.57,-131.105"/>
<polygon fill="midnightblue" stroke="midnightblue" points="1309,-134.567 1319.54,-133.48 1310.62,-127.758 1309,-134.567"/>
</g>
<!-- Node17 -->
<g id="node17" class="node"><title>Node17</title>
<g id="a_node17"><a xlink:href="class_c_net_addr.html#a0edb022cd6a186de8099799415409d57" target="_top" xlink:title="CNetAddr::IsIPv6">
<polygon fill="white" stroke="black" points="1312.5,-57.5 1312.5,-76.5 1408.5,-76.5 1408.5,-57.5 1312.5,-57.5"/>
<text text-anchor="middle" x="1360.5" y="-64.5" font-family="Helvetica,sans-Serif" font-size="10.00">CNetAddr::IsIPv6</text>
</a>
</g>
</g>
<!-- Node12&#45;&gt;Node17 -->
<g id="edge18" class="edge"><title>Node12&#45;&gt;Node17</title>
<path fill="none" stroke="midnightblue" d="M1240.25,-95.411C1261.3,-90.3965 1287.26,-84.2119 1309.57,-78.8947"/>
<polygon fill="midnightblue" stroke="midnightblue" points="1310.62,-82.2424 1319.54,-76.5201 1309,-75.433 1310.62,-82.2424"/>
</g>
<!-- Node18 -->
<g id="node18" class="node"><title>Node18</title>
<g id="a_node18"><a xlink:href="class_c_net_addr.html#add7811be50f5fe60c4fa65b461dea98c" target="_top" xlink:title="CNetAddr::GetIn6Addr">
<polygon fill="white" stroke="black" points="1299,-95.5 1299,-114.5 1422,-114.5 1422,-95.5 1299,-95.5"/>
<text text-anchor="middle" x="1360.5" y="-102.5" font-family="Helvetica,sans-Serif" font-size="10.00">CNetAddr::GetIn6Addr</text>
</a>
</g>
</g>
<!-- Node12&#45;&gt;Node18 -->
<g id="edge22" class="edge"><title>Node12&#45;&gt;Node18</title>
<path fill="none" stroke="midnightblue" d="M1263.04,-105C1271.4,-105 1280.01,-105 1288.49,-105"/>
<polygon fill="midnightblue" stroke="midnightblue" points="1288.74,-108.5 1298.74,-105 1288.74,-101.5 1288.74,-108.5"/>
</g>
<!-- Node13&#45;&gt;Node6 -->
<g id="edge14" class="edge"><title>Node13&#45;&gt;Node6</title>
<path fill="none" stroke="midnightblue" d="M1399.86,-152.589C1419.82,-157.581 1444.43,-163.732 1465.63,-169.033"/>
<polygon fill="midnightblue" stroke="midnightblue" points="1464.87,-172.45 1475.42,-171.48 1466.57,-165.659 1464.87,-172.45"/>
</g>
<!-- Node14 -->
<g id="node14" class="node"><title>Node14</title>
<g id="a_node14"><a xlink:href="glibc__compat_8cpp.html#a0f46826ab0466591e136db24394923cf" target="_top" xlink:title="memcpy">
<polygon fill="white" stroke="black" points="1485,-114.5 1485,-133.5 1544,-133.5 1544,-114.5 1485,-114.5"/>
<text text-anchor="middle" x="1514.5" y="-121.5" font-family="Helvetica,sans-Serif" font-size="10.00">memcpy</text>
</a>
</g>
</g>
<!-- Node13&#45;&gt;Node14 -->
<g id="edge15" class="edge"><title>Node13&#45;&gt;Node14</title>
<path fill="none" stroke="midnightblue" d="M1419.4,-135.763C1437.88,-133.453 1457.88,-130.953 1474.66,-128.854"/>
<polygon fill="midnightblue" stroke="midnightblue" points="1475.17,-132.318 1484.66,-127.605 1474.3,-125.372 1475.17,-132.318"/>
</g>
<!-- Node15 -->
<g id="node15" class="node"><title>Node15</title>
<g id="a_node15"><a xlink:href="glibc__compat_8cpp.html#a9778d49e9029dd75bc53ecbbf9f5e9a1" target="_top" xlink:title="memmove">
<polygon fill="white" stroke="black" points="1607,-133.5 1607,-152.5 1676,-152.5 1676,-133.5 1607,-133.5"/>
<text text-anchor="middle" x="1641.5" y="-140.5" font-family="Helvetica,sans-Serif" font-size="10.00">memmove</text>
</a>
</g>
</g>
<!-- Node14&#45;&gt;Node15 -->
<g id="edge16" class="edge"><title>Node14&#45;&gt;Node15</title>
<path fill="none" stroke="midnightblue" d="M1544.18,-128.359C1559.72,-130.722 1579.26,-133.692 1596.67,-136.338"/>
<polygon fill="midnightblue" stroke="midnightblue" points="1596.22,-139.81 1606.63,-137.852 1597.27,-132.889 1596.22,-139.81"/>
</g>
<!-- Node16 -->
<g id="node16" class="node"><title>Node16</title>
<g id="a_node16"><a xlink:href="glibc__compat_8cpp.html#a424ac71631da5ada2976630ff67051d1" target="_top" xlink:title="__chk_fail">
<polygon fill="white" stroke="black" points="1610.5,-95.5 1610.5,-114.5 1672.5,-114.5 1672.5,-95.5 1610.5,-95.5"/>
<text text-anchor="middle" x="1641.5" y="-102.5" font-family="Helvetica,sans-Serif" font-size="10.00">__chk_fail</text>
</a>
</g>
</g>
<!-- Node14&#45;&gt;Node16 -->
<g id="edge17" class="edge"><title>Node14&#45;&gt;Node16</title>
<path fill="none" stroke="midnightblue" d="M1544.18,-119.641C1560.76,-117.12 1581.9,-113.907 1600.14,-111.134"/>
<polygon fill="midnightblue" stroke="midnightblue" points="1600.85,-114.567 1610.21,-109.604 1599.8,-107.646 1600.85,-114.567"/>
</g>
<!-- Node17&#45;&gt;Node6 -->
<g id="edge19" class="edge"><title>Node17&#45;&gt;Node6</title>
<path fill="none" stroke="midnightblue" d="M1405.01,-76.5275C1411.07,-79.0009 1416.94,-82.1058 1422,-86 1445.75,-104.273 1437.21,-121.424 1458,-143 1466.5,-151.82 1477.35,-159.792 1487.2,-166.13"/>
<polygon fill="midnightblue" stroke="midnightblue" points="1485.52,-169.204 1495.87,-171.468 1489.19,-163.244 1485.52,-169.204"/>
</g>
<!-- Node17&#45;&gt;Node9 -->
<g id="edge20" class="edge"><title>Node17&#45;&gt;Node9</title>
<path fill="none" stroke="midnightblue" d="M1408.76,-61.0924C1424.78,-59.0897 1442.8,-56.8372 1459.32,-54.7725"/>
<polygon fill="midnightblue" stroke="midnightblue" points="1459.89,-58.2285 1469.38,-53.5151 1459.02,-51.2826 1459.89,-58.2285"/>
</g>
<!-- Node17&#45;&gt;Node11 -->
<g id="edge21" class="edge"><title>Node17&#45;&gt;Node11</title>
<path fill="none" stroke="midnightblue" d="M1384.79,-57.488C1404.26,-49.6154 1432.82,-38.262 1458,-29 1463.57,-26.9503 1469.48,-24.8488 1475.29,-22.8255"/>
<polygon fill="midnightblue" stroke="midnightblue" points="1476.58,-26.0844 1484.89,-19.5169 1474.3,-19.4665 1476.58,-26.0844"/>
</g>
<!-- Node18&#45;&gt;Node14 -->
<g id="edge23" class="edge"><title>Node18&#45;&gt;Node14</title>
<path fill="none" stroke="midnightblue" d="M1422.01,-112.564C1439.8,-114.788 1458.78,-117.16 1474.81,-119.164"/>
<polygon fill="midnightblue" stroke="midnightblue" points="1474.52,-122.655 1484.88,-120.422 1475.39,-115.709 1474.52,-122.655"/>
</g>
<!-- Node22&#45;&gt;Node3 -->
<g id="edge29" class="edge"><title>Node22&#45;&gt;Node3</title>
<path fill="none" stroke="midnightblue" d="M465.06,-206.406C479.328,-207.833 494.641,-209.364 509.504,-210.85"/>
<polygon fill="midnightblue" stroke="midnightblue" points="509.405,-214.358 519.704,-211.87 510.101,-207.393 509.405,-214.358"/>
</g>
</g>
</svg>
