<?xml version="1.0" encoding="UTF-8" standalone="no"?>
<!DOCTYPE svg PUBLIC "-//W3C//DTD SVG 1.1//EN"
 "http://www.w3.org/Graphics/SVG/1.1/DTD/svg11.dtd">
<!-- Generated by graphviz version 2.49.3 (0)
 -->
<!-- Title: WalletView::setClientModel Pages: 1 -->
<svg width="1530pt" height="437pt"
 viewBox="0.00 0.00 1530.00 436.55" xmlns="http://www.w3.org/2000/svg" xmlns:xlink="http://www.w3.org/1999/xlink">
<g id="graph0" class="graph" transform="scale(1 1) rotate(0) translate(4 432.55)">
<title>WalletView::setClientModel</title>
<polygon fill="white" stroke="transparent" points="-4,4 -4,-432.55 1526,-432.55 1526,4 -4,4"/>
<!-- Node1 -->
<g id="node1" class="node">
<title>Node1</title>
<g id="a_node1"><a xlink:title="Set the client model.">
<polygon fill="#bfbfbf" stroke="black" points="0,-292.05 0,-311.05 150,-311.05 150,-292.05 0,-292.05"/>
<text text-anchor="middle" x="75" y="-299.05" font-family="Helvetica,sans-Serif" font-size="10.00">WalletView::setClientModel</text>
</a>
</g>
</g>
<!-- Node2 -->
<g id="node2" class="node">
<title>Node2</title>
<g id="a_node2"><a xlink:href="class_wallet_model.html#a869bc6e7598cc1dd7677acd1d7d42c22" target="_top" xlink:title=" ">
<polygon fill="white" stroke="black" points="190.5,-330.05 190.5,-349.05 347.5,-349.05 347.5,-330.05 190.5,-330.05"/>
<text text-anchor="middle" x="269" y="-337.05" font-family="Helvetica,sans-Serif" font-size="10.00">WalletModel::setClientModel</text>
</a>
</g>
</g>
<!-- Node1&#45;&gt;Node2 -->
<g id="edge1" class="edge">
<title>Node1&#45;&gt;Node2</title>
<path fill="none" stroke="midnightblue" d="M124.45,-311.14C150.47,-316.29 182.73,-322.67 210.07,-328.08"/>
<polygon fill="midnightblue" stroke="midnightblue" points="209.41,-331.52 219.9,-330.03 210.77,-324.65 209.41,-331.52"/>
</g>
<!-- Node3 -->
<g id="node3" class="node">
<title>Node3</title>
<g id="a_node3"><a xlink:href="class_overview_page.html#a5d2610ab2b9c58e3b5f67c05f984e097" target="_top" xlink:title=" ">
<polygon fill="white" stroke="black" points="186,-292.05 186,-311.05 352,-311.05 352,-292.05 186,-292.05"/>
<text text-anchor="middle" x="269" y="-299.05" font-family="Helvetica,sans-Serif" font-size="10.00">OverviewPage::setClientModel</text>
</a>
</g>
</g>
<!-- Node1&#45;&gt;Node3 -->
<g id="edge2" class="edge">
<title>Node1&#45;&gt;Node3</title>
<path fill="none" stroke="midnightblue" d="M150.23,-301.55C158.65,-301.55 167.31,-301.55 175.92,-301.55"/>
<polygon fill="midnightblue" stroke="midnightblue" points="175.99,-305.05 185.99,-301.55 175.99,-298.05 175.99,-305.05"/>
</g>
<!-- Node11 -->
<g id="node11" class="node">
<title>Node11</title>
<g id="a_node11"><a xlink:href="class_send_coins_dialog.html#a360a23c02bd0e581b78603ccb863eb79" target="_top" xlink:title=" ">
<polygon fill="white" stroke="black" points="194.5,-218.55 194.5,-248.55 343.5,-248.55 343.5,-218.55 194.5,-218.55"/>
<text text-anchor="start" x="202.5" y="-236.55" font-family="Helvetica,sans-Serif" font-size="10.00">SendCoinsDialog::setClient</text>
<text text-anchor="middle" x="269" y="-225.55" font-family="Helvetica,sans-Serif" font-size="10.00">Model</text>
</a>
</g>
</g>
<!-- Node1&#45;&gt;Node11 -->
<g id="edge10" class="edge">
<title>Node1&#45;&gt;Node11</title>
<path fill="none" stroke="midnightblue" d="M103.1,-291.95C132.33,-281.6 179.56,-264.87 216,-251.96"/>
<polygon fill="midnightblue" stroke="midnightblue" points="217.23,-255.24 225.49,-248.6 214.89,-248.64 217.23,-255.24"/>
</g>
<!-- Node4 -->
<g id="node4" class="node">
<title>Node4</title>
<g id="a_node4"><a xlink:href="class_client_model.html#ae8da1e2eabfbbcc49a7eed821908bdb6" target="_top" xlink:title=" ">
<polygon fill="white" stroke="black" points="401,-273.05 401,-292.05 565,-292.05 565,-273.05 401,-273.05"/>
<text text-anchor="middle" x="483" y="-280.05" font-family="Helvetica,sans-Serif" font-size="10.00">ClientModel::getOptionsModel</text>
</a>
</g>
</g>
<!-- Node3&#45;&gt;Node4 -->
<g id="edge3" class="edge">
<title>Node3&#45;&gt;Node4</title>
<path fill="none" stroke="midnightblue" d="M352.27,-294.17C364.85,-293.05 377.9,-291.88 390.67,-290.73"/>
<polygon fill="midnightblue" stroke="midnightblue" points="391.18,-294.2 400.82,-289.82 390.55,-287.23 391.18,-294.2"/>
</g>
<!-- Node5 -->
<g id="node5" class="node">
<title>Node5</title>
<g id="a_node5"><a xlink:href="class_client_model.html#a16718fa6c90ac5bce0ce1dcbfb3ec95c" target="_top" xlink:title="Return warnings to be displayed in status bar.">
<polygon fill="white" stroke="black" points="411,-223.55 411,-253.55 555,-253.55 555,-223.55 411,-223.55"/>
<text text-anchor="start" x="419" y="-241.55" font-family="Helvetica,sans-Serif" font-size="10.00">ClientModel::getStatusBar</text>
<text text-anchor="middle" x="483" y="-230.55" font-family="Helvetica,sans-Serif" font-size="10.00">Warnings</text>
</a>
</g>
</g>
<!-- Node3&#45;&gt;Node5 -->
<g id="edge4" class="edge">
<title>Node3&#45;&gt;Node5</title>
<path fill="none" stroke="midnightblue" d="M298.49,-291.92C322.31,-283.98 357.23,-272.59 388,-263.55 396.36,-261.09 405.16,-258.61 413.9,-256.21"/>
<polygon fill="midnightblue" stroke="midnightblue" points="414.97,-259.55 423.7,-253.55 413.14,-252.8 414.97,-259.55"/>
</g>
<!-- Node7 -->
<g id="node7" class="node">
<title>Node7</title>
<g id="a_node7"><a xlink:href="class_options_model.html#a283f3d77d2171e42ed83d73ff4180a53" target="_top" xlink:title=" ">
<polygon fill="white" stroke="black" points="395,-387.55 395,-417.55 571,-417.55 571,-387.55 395,-387.55"/>
<text text-anchor="start" x="403" y="-405.55" font-family="Helvetica,sans-Serif" font-size="10.00">OptionsModel::getUseEmbedded</text>
<text text-anchor="middle" x="483" y="-394.55" font-family="Helvetica,sans-Serif" font-size="10.00">MonospacedFont</text>
</a>
</g>
</g>
<!-- Node3&#45;&gt;Node7 -->
<g id="edge6" class="edge">
<title>Node3&#45;&gt;Node7</title>
<path fill="none" stroke="midnightblue" d="M333.95,-311.07C340.36,-313.55 346.52,-316.66 352,-320.55 376.43,-337.9 363.85,-359.81 388,-377.55 390.65,-379.5 393.45,-381.3 396.35,-382.95"/>
<polygon fill="midnightblue" stroke="midnightblue" points="394.82,-386.1 405.32,-387.52 397.99,-379.86 394.82,-386.1"/>
</g>
<!-- Node8 -->
<g id="node8" class="node">
<title>Node8</title>
<g id="a_node8"><a xlink:href="class_overview_page.html#a7630c2044ce243e44fb2913971b9dff6" target="_top" xlink:title=" ">
<polygon fill="white" stroke="black" points="388,-349.05 388,-368.05 578,-368.05 578,-349.05 388,-349.05"/>
<text text-anchor="middle" x="483" y="-356.05" font-family="Helvetica,sans-Serif" font-size="10.00">OverviewPage::setMonospacedFont</text>
</a>
</g>
</g>
<!-- Node3&#45;&gt;Node8 -->
<g id="edge7" class="edge">
<title>Node3&#45;&gt;Node8</title>
<path fill="none" stroke="midnightblue" d="M320.47,-311.08C331.04,-313.68 342,-316.82 352,-320.55 368.95,-326.86 370.96,-333.47 388,-339.55 395.58,-342.25 403.65,-344.61 411.76,-346.66"/>
<polygon fill="midnightblue" stroke="midnightblue" points="411.09,-350.1 421.63,-349.01 412.71,-343.29 411.09,-350.1"/>
</g>
<!-- Node10 -->
<g id="node10" class="node">
<title>Node10</title>
<g id="a_node10"><a xlink:href="class_overview_page.html#a3f92603780b678f506929dc736e7cd1d" target="_top" xlink:title=" ">
<polygon fill="white" stroke="black" points="405.5,-311.05 405.5,-330.05 560.5,-330.05 560.5,-311.05 405.5,-311.05"/>
<text text-anchor="middle" x="483" y="-318.05" font-family="Helvetica,sans-Serif" font-size="10.00">OverviewPage::updateAlerts</text>
</a>
</g>
</g>
<!-- Node3&#45;&gt;Node10 -->
<g id="edge9" class="edge">
<title>Node3&#45;&gt;Node10</title>
<path fill="none" stroke="midnightblue" d="M352.27,-308.92C366.32,-310.18 380.95,-311.49 395.12,-312.76"/>
<polygon fill="midnightblue" stroke="midnightblue" points="395.06,-316.27 405.33,-313.68 395.68,-309.3 395.06,-316.27"/>
</g>
<!-- Node6 -->
<g id="node6" class="node">
<title>Node6</title>
<g id="a_node6"><a xlink:href="classinterfaces_1_1_node.html#a2bdcbcd63bc8e3f778f4e6c40c482033" target="_top" xlink:title="Get warnings.">
<polygon fill="white" stroke="black" points="616,-229.05 616,-248.05 780,-248.05 780,-229.05 616,-229.05"/>
<text text-anchor="middle" x="698" y="-236.05" font-family="Helvetica,sans-Serif" font-size="10.00">interfaces::Node::getWarnings</text>
</a>
</g>
</g>
<!-- Node5&#45;&gt;Node6 -->
<g id="edge5" class="edge">
<title>Node5&#45;&gt;Node6</title>
<path fill="none" stroke="midnightblue" d="M555.22,-238.55C571.35,-238.55 588.69,-238.55 605.52,-238.55"/>
<polygon fill="midnightblue" stroke="midnightblue" points="605.92,-242.05 615.92,-238.55 605.92,-235.05 605.92,-242.05"/>
</g>
<!-- Node9 -->
<g id="node9" class="node">
<title>Node9</title>
<g id="a_node9"><a xlink:href="namespace_g_u_i_util.html#a3560f2256ab1cea4de53242391114d9f" target="_top" xlink:title=" ">
<polygon fill="white" stroke="black" points="635,-349.05 635,-368.05 761,-368.05 761,-349.05 635,-349.05"/>
<text text-anchor="middle" x="698" y="-356.05" font-family="Helvetica,sans-Serif" font-size="10.00">GUIUtil::fixedPitchFont</text>
</a>
</g>
</g>
<!-- Node8&#45;&gt;Node9 -->
<g id="edge8" class="edge">
<title>Node8&#45;&gt;Node9</title>
<path fill="none" stroke="midnightblue" d="M578.04,-358.55C593.71,-358.55 609.74,-358.55 624.75,-358.55"/>
<polygon fill="midnightblue" stroke="midnightblue" points="624.97,-362.05 634.97,-358.55 624.97,-355.05 624.97,-362.05"/>
</g>
<!-- Node12 -->
<g id="node12" class="node">
<title>Node12</title>
<g id="a_node12"><a xlink:href="class_send_coins_dialog.html#a2abc013653a3608529c812981dc103e0" target="_top" xlink:title=" ">
<polygon fill="white" stroke="black" points="394,-174.55 394,-204.55 572,-204.55 572,-174.55 394,-174.55"/>
<text text-anchor="start" x="402" y="-192.55" font-family="Helvetica,sans-Serif" font-size="10.00">SendCoinsDialog::updateNumber</text>
<text text-anchor="middle" x="483" y="-181.55" font-family="Helvetica,sans-Serif" font-size="10.00">OfBlocks</text>
</a>
</g>
</g>
<!-- Node11&#45;&gt;Node12 -->
<g id="edge11" class="edge">
<title>Node11&#45;&gt;Node12</title>
<path fill="none" stroke="midnightblue" d="M342.37,-218.53C360.85,-214.69 380.87,-210.54 399.81,-206.61"/>
<polygon fill="midnightblue" stroke="midnightblue" points="400.52,-210.03 409.6,-204.57 399.1,-203.18 400.52,-210.03"/>
</g>
<!-- Node13 -->
<g id="node13" class="node">
<title>Node13</title>
<g id="a_node13"><a xlink:href="class_send_coins_dialog.html#ac42a9db733fbb2e06882660400c49517" target="_top" xlink:title=" ">
<polygon fill="white" stroke="black" points="614,-174.55 614,-204.55 782,-204.55 782,-174.55 614,-174.55"/>
<text text-anchor="start" x="622" y="-192.55" font-family="Helvetica,sans-Serif" font-size="10.00">SendCoinsDialog::updateSmart</text>
<text text-anchor="middle" x="698" y="-181.55" font-family="Helvetica,sans-Serif" font-size="10.00">FeeLabel</text>
</a>
</g>
</g>
<!-- Node12&#45;&gt;Node13 -->
<g id="edge12" class="edge">
<title>Node12&#45;&gt;Node13</title>
<path fill="none" stroke="midnightblue" d="M572.17,-189.55C582.47,-189.55 593.01,-189.55 603.38,-189.55"/>
<polygon fill="midnightblue" stroke="midnightblue" points="603.68,-193.05 613.68,-189.55 603.68,-186.05 603.68,-193.05"/>
</g>
<!-- Node14 -->
<g id="node14" class="node">
<title>Node14</title>
<g id="a_node14"><a xlink:href="class_bitcoin_units.html#a9921b948533af41a203275686dee817d" target="_top" xlink:title="Format as string (with unit)">
<polygon fill="white" stroke="black" points="1019.5,-333.05 1019.5,-352.05 1177.5,-352.05 1177.5,-333.05 1019.5,-333.05"/>
<text text-anchor="middle" x="1098.5" y="-340.05" font-family="Helvetica,sans-Serif" font-size="10.00">BitcoinUnits::formatWithUnit</text>
</a>
</g>
</g>
<!-- Node13&#45;&gt;Node14 -->
<g id="edge13" class="edge">
<title>Node13&#45;&gt;Node14</title>
<path fill="none" stroke="midnightblue" d="M760.79,-204.68C768.61,-208.57 775.97,-213.44 782,-219.55 816.35,-254.37 779.14,-293.84 818,-323.55 884.66,-374.51 988.41,-365.41 1048.98,-354.06"/>
<polygon fill="midnightblue" stroke="midnightblue" points="1049.91,-357.45 1059.05,-352.08 1048.56,-350.58 1049.91,-357.45"/>
</g>
<!-- Node21 -->
<g id="node21" class="node">
<title>Node21</title>
<g id="a_node21"><a xlink:href="class_options_model.html#a00a1f0842f764f64086e7d5d42bbce63" target="_top" xlink:title=" ">
<polygon fill="white" stroke="black" points="1017,-273.05 1017,-292.05 1180,-292.05 1180,-273.05 1017,-273.05"/>
<text text-anchor="middle" x="1098.5" y="-280.05" font-family="Helvetica,sans-Serif" font-size="10.00">OptionsModel::getDisplayUnit</text>
</a>
</g>
</g>
<!-- Node13&#45;&gt;Node21 -->
<g id="edge20" class="edge">
<title>Node13&#45;&gt;Node21</title>
<path fill="none" stroke="midnightblue" d="M758.95,-204.67C767.32,-208.57 775.33,-213.45 782,-219.55 809.89,-245.02 786.13,-276.27 818,-296.55 894.6,-345.29 1008.3,-315.41 1064.12,-295.72"/>
<polygon fill="midnightblue" stroke="midnightblue" points="1065.64,-298.89 1073.85,-292.19 1063.25,-292.31 1065.64,-298.89"/>
</g>
<!-- Node22 -->
<g id="node22" class="node">
<title>Node22</title>
<g id="a_node22"><a xlink:href="class_c_fee_rate.html#ac772be79983433d442d6b871d2fb6e11" target="_top" xlink:title="Return the fee in satoshis for a size of 1000 bytes.">
<polygon fill="white" stroke="black" points="835.5,-180.05 835.5,-199.05 961.5,-199.05 961.5,-180.05 835.5,-180.05"/>
<text text-anchor="middle" x="898.5" y="-187.05" font-family="Helvetica,sans-Serif" font-size="10.00">CFeeRate::GetFeePerK</text>
</a>
</g>
</g>
<!-- Node13&#45;&gt;Node22 -->
<g id="edge21" class="edge">
<title>Node13&#45;&gt;Node22</title>
<path fill="none" stroke="midnightblue" d="M782.03,-189.55C796.39,-189.55 811.22,-189.55 825.27,-189.55"/>
<polygon fill="midnightblue" stroke="midnightblue" points="825.34,-193.05 835.34,-189.55 825.34,-186.05 825.34,-193.05"/>
</g>
<!-- Node24 -->
<g id="node24" class="node">
<title>Node24</title>
<g id="a_node24"><a xlink:href="classinterfaces_1_1_wallet.html#ab36fb9f57fd5eae3f0125d4a8ac051b7" target="_top" xlink:title="Get minimum fee.">
<polygon fill="white" stroke="black" points="847.5,-130.55 847.5,-160.55 949.5,-160.55 949.5,-130.55 847.5,-130.55"/>
<text text-anchor="start" x="855.5" y="-148.55" font-family="Helvetica,sans-Serif" font-size="10.00">interfaces::Wallet</text>
<text text-anchor="middle" x="898.5" y="-137.55" font-family="Helvetica,sans-Serif" font-size="10.00">::getMinimumFee</text>
</a>
</g>
</g>
<!-- Node13&#45;&gt;Node24 -->
<g id="edge23" class="edge">
<title>Node13&#45;&gt;Node24</title>
<path fill="none" stroke="midnightblue" d="M766.76,-174.53C789.65,-169.46 815.03,-163.83 837.29,-158.89"/>
<polygon fill="midnightblue" stroke="midnightblue" points="838.27,-162.26 847.28,-156.68 836.76,-155.43 838.27,-162.26"/>
</g>
<!-- Node25 -->
<g id="node25" class="node">
<title>Node25</title>
<g id="a_node25"><a xlink:href="class_wallet_model.html#a96d53e56b3f8f07537ea2523f7a7d300" target="_top" xlink:title=" ">
<polygon fill="white" stroke="black" points="1015,-232.05 1015,-251.05 1182,-251.05 1182,-232.05 1015,-232.05"/>
<text text-anchor="middle" x="1098.5" y="-239.05" font-family="Helvetica,sans-Serif" font-size="10.00">WalletModel::getOptionsModel</text>
</a>
</g>
</g>
<!-- Node13&#45;&gt;Node25 -->
<g id="edge24" class="edge">
<title>Node13&#45;&gt;Node25</title>
<path fill="none" stroke="midnightblue" d="M782.16,-203.27C794.17,-205.12 806.4,-206.94 818,-208.55 880.19,-217.18 950.37,-225.46 1004.85,-231.57"/>
<polygon fill="midnightblue" stroke="midnightblue" points="1004.51,-235.05 1014.83,-232.68 1005.28,-228.1 1004.51,-235.05"/>
</g>
<!-- Node26 -->
<g id="node26" class="node">
<title>Node26</title>
<g id="a_node26"><a xlink:href="namespace_g_u_i_util.html#ae7c022d56a6f7cf11179b590a2624eba" target="_top" xlink:title="Returns the distance in pixels appropriate for drawing a subsequent character after text.">
<polygon fill="white" stroke="black" points="845,-92.05 845,-111.05 952,-111.05 952,-92.05 845,-92.05"/>
<text text-anchor="middle" x="898.5" y="-99.05" font-family="Helvetica,sans-Serif" font-size="10.00">GUIUtil::TextWidth</text>
</a>
</g>
</g>
<!-- Node13&#45;&gt;Node26 -->
<g id="edge25" class="edge">
<title>Node13&#45;&gt;Node26</title>
<path fill="none" stroke="midnightblue" d="M721.32,-174.32C744.56,-159.06 782.46,-135.86 818,-121.55 825.24,-118.63 833.03,-116.05 840.79,-113.79"/>
<polygon fill="midnightblue" stroke="midnightblue" points="841.87,-117.12 850.58,-111.1 840.01,-110.37 841.87,-117.12"/>
</g>
<!-- Node27 -->
<g id="node27" class="node">
<title>Node27</title>
<g id="a_node27"><a xlink:href="class_send_coins_dialog.html#ac8445a777559c38a967fae3890a0ae2f" target="_top" xlink:title=" ">
<polygon fill="white" stroke="black" points="818,-42.55 818,-72.55 979,-72.55 979,-42.55 818,-42.55"/>
<text text-anchor="start" x="826" y="-60.55" font-family="Helvetica,sans-Serif" font-size="10.00">SendCoinsDialog::updateCoin</text>
<text text-anchor="middle" x="898.5" y="-49.55" font-family="Helvetica,sans-Serif" font-size="10.00">ControlState</text>
</a>
</g>
</g>
<!-- Node13&#45;&gt;Node27 -->
<g id="edge26" class="edge">
<title>Node13&#45;&gt;Node27</title>
<path fill="none" stroke="midnightblue" d="M712.07,-174.18C732.46,-151.12 774.08,-107.61 818,-82.55 821.85,-80.35 825.92,-78.32 830.1,-76.45"/>
<polygon fill="midnightblue" stroke="midnightblue" points="831.48,-79.67 839.38,-72.61 828.8,-73.2 831.48,-79.67"/>
</g>
<!-- Node31 -->
<g id="node31" class="node">
<title>Node31</title>
<g id="a_node31"><a xlink:href="class_wallet_model.html#aafd08fd0ce515b7c3ccf7e6987a287fb" target="_top" xlink:title=" ">
<polygon fill="white" stroke="black" points="1042,-4.05 1042,-23.05 1155,-23.05 1155,-4.05 1042,-4.05"/>
<text text-anchor="middle" x="1098.5" y="-11.05" font-family="Helvetica,sans-Serif" font-size="10.00">WalletModel::wallet</text>
</a>
</g>
</g>
<!-- Node13&#45;&gt;Node31 -->
<g id="edge35" class="edge">
<title>Node13&#45;&gt;Node31</title>
<path fill="none" stroke="midnightblue" d="M705.16,-174.47C719.42,-141.82 758.11,-64.88 818,-32.55 884.15,3.16 972.3,2.68 1031.78,-3.31"/>
<polygon fill="midnightblue" stroke="midnightblue" points="1031.48,-6.8 1041.8,-4.4 1032.24,0.16 1031.48,-6.8"/>
</g>
<!-- Node32 -->
<g id="node32" class="node">
<title>Node32</title>
<g id="a_node32"><a xlink:href="class_send_coins_dialog.html#a454df839e09d247a1df5d7994ba3208e" target="_top" xlink:title=" ">
<polygon fill="white" stroke="black" points="820.5,-256.55 820.5,-286.55 976.5,-286.55 976.5,-256.55 820.5,-256.55"/>
<text text-anchor="start" x="828.5" y="-274.55" font-family="Helvetica,sans-Serif" font-size="10.00">SendCoinsDialog::updateFee</text>
<text text-anchor="middle" x="898.5" y="-263.55" font-family="Helvetica,sans-Serif" font-size="10.00">MinimizedLabel</text>
</a>
</g>
</g>
<!-- Node13&#45;&gt;Node32 -->
<g id="edge31" class="edge">
<title>Node13&#45;&gt;Node32</title>
<path fill="none" stroke="midnightblue" d="M745.78,-204.59C757.78,-208.95 770.54,-214.04 782,-219.55 798.9,-227.66 801.15,-233.31 818,-241.55 826.18,-245.54 835.03,-249.36 843.75,-252.84"/>
<polygon fill="midnightblue" stroke="midnightblue" points="842.55,-256.13 853.14,-256.49 845.08,-249.6 842.55,-256.13"/>
</g>
<!-- Node15 -->
<g id="node15" class="node">
<title>Node15</title>
<g id="a_node15"><a xlink:href="class_bitcoin_units.html#aeac5a3e4cf9cb39505980cd1e338f1fa" target="_top" xlink:title="Format as string.">
<polygon fill="white" stroke="black" points="1228.5,-352.05 1228.5,-371.05 1343.5,-371.05 1343.5,-352.05 1228.5,-352.05"/>
<text text-anchor="middle" x="1286" y="-359.05" font-family="Helvetica,sans-Serif" font-size="10.00">BitcoinUnits::format</text>
</a>
</g>
</g>
<!-- Node14&#45;&gt;Node15 -->
<g id="edge14" class="edge">
<title>Node14&#45;&gt;Node15</title>
<path fill="none" stroke="midnightblue" d="M1177.63,-350.55C1191.07,-351.93 1204.93,-353.35 1218.04,-354.69"/>
<polygon fill="midnightblue" stroke="midnightblue" points="1218.07,-358.21 1228.37,-355.75 1218.78,-351.25 1218.07,-358.21"/>
</g>
<!-- Node19 -->
<g id="node19" class="node">
<title>Node19</title>
<g id="a_node19"><a xlink:href="class_bitcoin_units.html#af65eb534385613f176593cc7545136d0" target="_top" xlink:title="Short name.">
<polygon fill="white" stroke="black" points="1218,-314.05 1218,-333.05 1354,-333.05 1354,-314.05 1218,-314.05"/>
<text text-anchor="middle" x="1286" y="-321.05" font-family="Helvetica,sans-Serif" font-size="10.00">BitcoinUnits::shortName</text>
</a>
</g>
</g>
<!-- Node14&#45;&gt;Node19 -->
<g id="edge18" class="edge">
<title>Node14&#45;&gt;Node19</title>
<path fill="none" stroke="midnightblue" d="M1177.63,-334.55C1187.55,-333.53 1197.7,-332.49 1207.61,-331.47"/>
<polygon fill="midnightblue" stroke="midnightblue" points="1208.24,-334.93 1217.83,-330.43 1207.53,-327.96 1208.24,-334.93"/>
</g>
<!-- Node16 -->
<g id="node16" class="node">
<title>Node16</title>
<g id="a_node16"><a xlink:href="class_bitcoin_units.html#a3f0fc21634520ea06c684ba0d7e25f2f" target="_top" xlink:title="Number of decimals left.">
<polygon fill="white" stroke="black" points="1393,-409.05 1393,-428.05 1519,-428.05 1519,-409.05 1393,-409.05"/>
<text text-anchor="middle" x="1456" y="-416.05" font-family="Helvetica,sans-Serif" font-size="10.00">BitcoinUnits::decimals</text>
</a>
</g>
</g>
<!-- Node15&#45;&gt;Node16 -->
<g id="edge15" class="edge">
<title>Node15&#45;&gt;Node16</title>
<path fill="none" stroke="midnightblue" d="M1311.39,-371.09C1332.16,-379.08 1362.85,-390.58 1390,-399.55 1396.68,-401.75 1403.78,-403.96 1410.75,-406.06"/>
<polygon fill="midnightblue" stroke="midnightblue" points="1410.21,-409.55 1420.79,-409.03 1412.19,-402.84 1410.21,-409.55"/>
</g>
<!-- Node17 -->
<g id="node17" class="node">
<title>Node17</title>
<g id="a_node17"><a xlink:href="class_bitcoin_units.html#ae967b9e6ecbb8f041bfe398d27533b09" target="_top" xlink:title="Number of Satoshis (1e&#45;8) per unit.">
<polygon fill="white" stroke="black" points="1401,-371.05 1401,-390.05 1511,-390.05 1511,-371.05 1401,-371.05"/>
<text text-anchor="middle" x="1456" y="-378.05" font-family="Helvetica,sans-Serif" font-size="10.00">BitcoinUnits::factor</text>
</a>
</g>
</g>
<!-- Node15&#45;&gt;Node17 -->
<g id="edge16" class="edge">
<title>Node15&#45;&gt;Node17</title>
<path fill="none" stroke="midnightblue" d="M1343.88,-367.98C1358.95,-369.68 1375.32,-371.54 1390.76,-373.28"/>
<polygon fill="midnightblue" stroke="midnightblue" points="1390.41,-376.76 1400.74,-374.41 1391.19,-369.81 1390.41,-376.76"/>
</g>
<!-- Node18 -->
<g id="node18" class="node">
<title>Node18</title>
<g id="a_node18"><a xlink:href="class_bitcoin_units.html#a81cbc41480adfb600dad79711d336e5f" target="_top" xlink:title="Is unit ID valid?">
<polygon fill="white" stroke="black" points="1403,-333.05 1403,-352.05 1509,-352.05 1509,-333.05 1403,-333.05"/>
<text text-anchor="middle" x="1456" y="-340.05" font-family="Helvetica,sans-Serif" font-size="10.00">BitcoinUnits::valid</text>
</a>
</g>
</g>
<!-- Node15&#45;&gt;Node18 -->
<g id="edge17" class="edge">
<title>Node15&#45;&gt;Node18</title>
<path fill="none" stroke="midnightblue" d="M1343.88,-355.12C1359.57,-353.34 1376.68,-351.41 1392.67,-349.6"/>
<polygon fill="midnightblue" stroke="midnightblue" points="1393.44,-353.03 1402.99,-348.43 1392.66,-346.08 1393.44,-353.03"/>
</g>
<!-- Node20 -->
<g id="node20" class="node">
<title>Node20</title>
<g id="a_node20"><a xlink:href="class_bitcoin_units.html#a97f983970ff33cae20996ba26ab257cd" target="_top" xlink:title="Long name.">
<polygon fill="white" stroke="black" points="1390,-295.05 1390,-314.05 1522,-314.05 1522,-295.05 1390,-295.05"/>
<text text-anchor="middle" x="1456" y="-302.05" font-family="Helvetica,sans-Serif" font-size="10.00">BitcoinUnits::longName</text>
</a>
</g>
</g>
<!-- Node19&#45;&gt;Node20 -->
<g id="edge19" class="edge">
<title>Node19&#45;&gt;Node20</title>
<path fill="none" stroke="midnightblue" d="M1354.36,-315.93C1362.67,-314.99 1371.2,-314.02 1379.62,-313.07"/>
<polygon fill="midnightblue" stroke="midnightblue" points="1380.26,-316.52 1389.81,-311.92 1379.48,-309.57 1380.26,-316.52"/>
</g>
<!-- Node23 -->
<g id="node23" class="node">
<title>Node23</title>
<g id="a_node23"><a xlink:href="class_c_fee_rate.html#a3fd9dd2fef3095de83ec75b4a5648dec" target="_top" xlink:title="Return the fee in satoshis for the given size in bytes.">
<polygon fill="white" stroke="black" points="1046.5,-180.05 1046.5,-199.05 1150.5,-199.05 1150.5,-180.05 1046.5,-180.05"/>
<text text-anchor="middle" x="1098.5" y="-187.05" font-family="Helvetica,sans-Serif" font-size="10.00">CFeeRate::GetFee</text>
</a>
</g>
</g>
<!-- Node22&#45;&gt;Node23 -->
<g id="edge22" class="edge">
<title>Node22&#45;&gt;Node23</title>
<path fill="none" stroke="midnightblue" d="M961.61,-189.55C985.32,-189.55 1012.32,-189.55 1035.98,-189.55"/>
<polygon fill="midnightblue" stroke="midnightblue" points="1036.24,-193.05 1046.24,-189.55 1036.24,-186.05 1036.24,-193.05"/>
</g>
<!-- Node28 -->
<g id="node28" class="node">
<title>Node28</title>
<g id="a_node28"><a xlink:href="sendcoinsdialog_8cpp.html#a71cff9731ecdee1cef8bfc2c12dc3842" target="_top" xlink:title=" ">
<polygon fill="white" stroke="black" points="1035,-141.05 1035,-160.05 1162,-160.05 1162,-141.05 1035,-141.05"/>
<text text-anchor="middle" x="1098.5" y="-148.05" font-family="Helvetica,sans-Serif" font-size="10.00">getConfTargetForIndex</text>
</a>
</g>
</g>
<!-- Node27&#45;&gt;Node28 -->
<g id="edge27" class="edge">
<title>Node27&#45;&gt;Node28</title>
<path fill="none" stroke="midnightblue" d="M961.29,-72.6C967.55,-75.39 973.59,-78.68 979,-82.55 1000.98,-98.27 992.42,-116.7 1015,-131.55 1018.29,-133.71 1021.8,-135.63 1025.44,-137.33"/>
<polygon fill="midnightblue" stroke="midnightblue" points="1024.13,-140.58 1034.71,-141.13 1026.79,-134.1 1024.13,-140.58"/>
</g>
<!-- Node29 -->
<g id="node29" class="node">
<title>Node29</title>
<g id="a_node29"><a xlink:href="classinterfaces_1_1_wallet.html#a766095d0a183164e71c8fcfcced24fdc" target="_top" xlink:title=" ">
<polygon fill="white" stroke="black" points="1043,-91.55 1043,-121.55 1154,-121.55 1154,-91.55 1043,-91.55"/>
<text text-anchor="start" x="1051" y="-109.55" font-family="Helvetica,sans-Serif" font-size="10.00">interfaces::Wallet</text>
<text text-anchor="middle" x="1098.5" y="-98.55" font-family="Helvetica,sans-Serif" font-size="10.00">::hasExternalSigner</text>
</a>
</g>
</g>
<!-- Node27&#45;&gt;Node29 -->
<g id="edge28" class="edge">
<title>Node27&#45;&gt;Node29</title>
<path fill="none" stroke="midnightblue" d="M960.25,-72.58C983.33,-78.29 1009.68,-84.81 1033.09,-90.61"/>
<polygon fill="midnightblue" stroke="midnightblue" points="1032.37,-94.03 1042.92,-93.04 1034.05,-87.24 1032.37,-94.03"/>
</g>
<!-- Node30 -->
<g id="node30" class="node">
<title>Node30</title>
<g id="a_node30"><a xlink:href="classinterfaces_1_1_wallet.html#aed915931b2463158ef674377e855cec5" target="_top" xlink:title=" ">
<polygon fill="white" stroke="black" points="1037,-42.55 1037,-72.55 1160,-72.55 1160,-42.55 1037,-42.55"/>
<text text-anchor="start" x="1045" y="-60.55" font-family="Helvetica,sans-Serif" font-size="10.00">interfaces::Wallet</text>
<text text-anchor="middle" x="1098.5" y="-49.55" font-family="Helvetica,sans-Serif" font-size="10.00">::privateKeysDisabled</text>
</a>
</g>
</g>
<!-- Node27&#45;&gt;Node30 -->
<g id="edge29" class="edge">
<title>Node27&#45;&gt;Node30</title>
<path fill="none" stroke="midnightblue" d="M979.18,-57.55C994.81,-57.55 1011.1,-57.55 1026.43,-57.55"/>
<polygon fill="midnightblue" stroke="midnightblue" points="1026.86,-61.05 1036.86,-57.55 1026.86,-54.05 1026.86,-61.05"/>
</g>
<!-- Node27&#45;&gt;Node31 -->
<g id="edge30" class="edge">
<title>Node27&#45;&gt;Node31</title>
<path fill="none" stroke="midnightblue" d="M967.09,-42.53C992.48,-36.89 1020.94,-30.56 1044.78,-25.26"/>
<polygon fill="midnightblue" stroke="midnightblue" points="1045.69,-28.65 1054.69,-23.06 1044.17,-21.81 1045.69,-28.65"/>
</g>
<!-- Node32&#45;&gt;Node14 -->
<g id="edge32" class="edge">
<title>Node32&#45;&gt;Node14</title>
<path fill="none" stroke="midnightblue" d="M941.49,-286.61C977.03,-299.35 1027.44,-317.43 1061.25,-329.55"/>
<polygon fill="midnightblue" stroke="midnightblue" points="1060.15,-332.87 1070.75,-332.95 1062.51,-326.28 1060.15,-332.87"/>
</g>
<!-- Node32&#45;&gt;Node21 -->
<g id="edge33" class="edge">
<title>Node32&#45;&gt;Node21</title>
<path fill="none" stroke="midnightblue" d="M976.62,-275.83C986.55,-276.38 996.8,-276.95 1006.93,-277.52"/>
<polygon fill="midnightblue" stroke="midnightblue" points="1006.82,-281.02 1017,-278.08 1007.21,-274.03 1006.82,-281.02"/>
</g>
<!-- Node32&#45;&gt;Node25 -->
<g id="edge34" class="edge">
<title>Node32&#45;&gt;Node25</title>
<path fill="none" stroke="midnightblue" d="M976.62,-259.86C992.38,-257.47 1008.93,-254.97 1024.54,-252.6"/>
<polygon fill="midnightblue" stroke="midnightblue" points="1025.29,-256.03 1034.65,-251.07 1024.24,-249.11 1025.29,-256.03"/>
</g>
</g>
</svg>
