<?xml version="1.0" encoding="UTF-8" standalone="no"?>
<!DOCTYPE svg PUBLIC "-//W3C//DTD SVG 1.1//EN"
 "http://www.w3.org/Graphics/SVG/1.1/DTD/svg11.dtd">
<!-- Generated by graphviz version 2.40.1 (20161225.0304)
 -->
<!-- Title: CDBBatch::Write Pages: 1 -->
<svg width="667pt" height="186pt"
 viewBox="0.00 0.00 667.00 186.00" xmlns="http://www.w3.org/2000/svg" xmlns:xlink="http://www.w3.org/1999/xlink">
<g id="graph0" class="graph" transform="scale(1 1) rotate(0) translate(4 182)">
<title>CDBBatch::Write</title>
<polygon fill="#ffffff" stroke="transparent" points="-4,4 -4,-182 663,-182 663,4 -4,4"/>
<!-- Node12 -->
<g id="node1" class="node">
<title>Node12</title>
<polygon fill="#bfbfbf" stroke="#000000" points="0,-38.5 0,-57.5 93,-57.5 93,-38.5 0,-38.5"/>
<text text-anchor="middle" x="46.5" y="-45.5" font-family="Helvetica,sans-Serif" font-size="10.00" fill="#000000">CDBBatch::Write</text>
</g>
<!-- Node13 -->
<g id="node2" class="node">
<title>Node13</title>
<g id="a_node2"><a xlink:href="class_c_d_b_wrapper.html#a6600aa8c2b30880dd7e032ea21f74aed" target="_top" xlink:title="CDBWrapper::Write">
<polygon fill="#ffffff" stroke="#000000" points="157,-76.5 157,-95.5 261,-95.5 261,-76.5 157,-76.5"/>
<text text-anchor="middle" x="209" y="-83.5" font-family="Helvetica,sans-Serif" font-size="10.00" fill="#000000">CDBWrapper::Write</text>
</a>
</g>
</g>
<!-- Node12&#45;&gt;Node13 -->
<g id="edge1" class="edge">
<title>Node12&#45;&gt;Node13</title>
<path fill="none" stroke="#191970" d="M97.3714,-59.8961C120.2124,-65.2374 146.7953,-71.4537 168.2893,-76.4799"/>
<polygon fill="#191970" stroke="#191970" points="98.0399,-56.4581 87.5056,-57.589 96.4459,-63.2742 98.0399,-56.4581"/>
</g>
<!-- Node20 -->
<g id="node9" class="node">
<title>Node20</title>
<g id="a_node9"><a xlink:href="class_tx_index_1_1_d_b.html#a1a74538fe62aa9bea4c4ad27a090b902" target="_top" xlink:title="Write a batch of transaction positions to the DB. ">
<polygon fill="#ffffff" stroke="#000000" points="150,-38.5 150,-57.5 268,-57.5 268,-38.5 150,-38.5"/>
<text text-anchor="middle" x="209" y="-45.5" font-family="Helvetica,sans-Serif" font-size="10.00" fill="#000000">TxIndex::DB::WriteTxs</text>
</a>
</g>
</g>
<!-- Node12&#45;&gt;Node20 -->
<g id="edge9" class="edge">
<title>Node12&#45;&gt;Node20</title>
<path fill="none" stroke="#191970" d="M103.2934,-48C118.3954,-48 134.7404,-48 149.9594,-48"/>
<polygon fill="#191970" stroke="#191970" points="103.066,-44.5001 93.066,-48 103.0659,-51.5001 103.066,-44.5001"/>
</g>
<!-- Node21 -->
<g id="node10" class="node">
<title>Node21</title>
<g id="a_node10"><a xlink:href="class_c_block_tree_d_b.html#af5509ed62ce84023882fe243e4cd21ba" target="_top" xlink:title="CBlockTreeDB::WriteBatchSync">
<polygon fill="#ffffff" stroke="#000000" points="129,-.5 129,-19.5 289,-19.5 289,-.5 129,-.5"/>
<text text-anchor="middle" x="209" y="-7.5" font-family="Helvetica,sans-Serif" font-size="10.00" fill="#000000">CBlockTreeDB::WriteBatchSync</text>
</a>
</g>
</g>
<!-- Node12&#45;&gt;Node21 -->
<g id="edge10" class="edge">
<title>Node12&#45;&gt;Node21</title>
<path fill="none" stroke="#191970" d="M97.3714,-36.1039C120.2124,-30.7626 146.7953,-24.5463 168.2893,-19.5201"/>
<polygon fill="#191970" stroke="#191970" points="96.4459,-32.7258 87.5056,-38.411 98.0399,-39.5419 96.4459,-32.7258"/>
</g>
<!-- Node14 -->
<g id="node3" class="node">
<title>Node14</title>
<g id="a_node3"><a xlink:href="class_base_index_1_1_d_b.html#abe7afe749f8e643c2eaacb626cbe4f65" target="_top" xlink:title="Write block locator of the chain that the txindex is in sync with. ">
<polygon fill="#ffffff" stroke="#000000" points="339,-134 339,-164 472,-164 472,-134 339,-134"/>
<text text-anchor="start" x="347" y="-152" font-family="Helvetica,sans-Serif" font-size="10.00" fill="#000000">BaseIndex::DB::WriteBest</text>
<text text-anchor="middle" x="405.5" y="-141" font-family="Helvetica,sans-Serif" font-size="10.00" fill="#000000">Block</text>
</a>
</g>
</g>
<!-- Node13&#45;&gt;Node14 -->
<g id="edge2" class="edge">
<title>Node13&#45;&gt;Node14</title>
<path fill="none" stroke="#191970" d="M248.6666,-98.7175C280.4036,-108.8927 324.9875,-123.1868 358.5114,-133.935"/>
<polygon fill="#191970" stroke="#191970" points="249.4353,-95.2885 238.8441,-95.5683 247.2981,-101.9543 249.4353,-95.2885"/>
</g>
<!-- Node17 -->
<g id="node6" class="node">
<title>Node17</title>
<g id="a_node6"><a xlink:href="class_tx_index_1_1_d_b.html#a7eeb3325ee83f6fe2736278a7952ba5c" target="_top" xlink:title="Migrate txindex data from the block tree DB, where it may be for older nodes that have not been upgra...">
<polygon fill="#ffffff" stroke="#000000" points="525,-60.5 525,-79.5 656,-79.5 656,-60.5 525,-60.5"/>
<text text-anchor="middle" x="590.5" y="-67.5" font-family="Helvetica,sans-Serif" font-size="10.00" fill="#000000">TxIndex::DB::MigrateData</text>
</a>
</g>
</g>
<!-- Node13&#45;&gt;Node17 -->
<g id="edge5" class="edge">
<title>Node13&#45;&gt;Node17</title>
<path fill="none" stroke="#191970" d="M271.3159,-88.6961C327.5239,-90.4869 412.4187,-91.6004 486,-86 503.2028,-84.6907 521.8617,-82.1857 538.5879,-79.5396"/>
<polygon fill="#191970" stroke="#191970" points="271.2754,-85.1929 261.1636,-88.3553 271.0405,-92.1889 271.2754,-85.1929"/>
</g>
<!-- Node18 -->
<g id="node7" class="node">
<title>Node18</title>
<g id="a_node7"><a xlink:href="class_c_block_tree_d_b.html#a55914903b15bc119d0c4952af8fdf721" target="_top" xlink:title="CBlockTreeDB::WriteReindexing">
<polygon fill="#ffffff" stroke="#000000" points="325,-57.5 325,-76.5 486,-76.5 486,-57.5 325,-57.5"/>
<text text-anchor="middle" x="405.5" y="-64.5" font-family="Helvetica,sans-Serif" font-size="10.00" fill="#000000">CBlockTreeDB::WriteReindexing</text>
</a>
</g>
</g>
<!-- Node13&#45;&gt;Node18 -->
<g id="edge6" class="edge">
<title>Node13&#45;&gt;Node18</title>
<path fill="none" stroke="#191970" d="M271.4836,-79.9583C288.4701,-78.3159 307.1084,-76.5137 324.9425,-74.7893"/>
<polygon fill="#191970" stroke="#191970" points="270.7592,-76.512 261.1425,-80.9582 271.433,-83.4795 270.7592,-76.512"/>
</g>
<!-- Node19 -->
<g id="node8" class="node">
<title>Node19</title>
<g id="a_node8"><a xlink:href="class_c_block_tree_d_b.html#af2f65b70ac5d8a198d4f29a7e909c08a" target="_top" xlink:title="CBlockTreeDB::WriteFlag">
<polygon fill="#ffffff" stroke="#000000" points="340,-19.5 340,-38.5 471,-38.5 471,-19.5 340,-19.5"/>
<text text-anchor="middle" x="405.5" y="-26.5" font-family="Helvetica,sans-Serif" font-size="10.00" fill="#000000">CBlockTreeDB::WriteFlag</text>
</a>
</g>
</g>
<!-- Node13&#45;&gt;Node19 -->
<g id="edge7" class="edge">
<title>Node13&#45;&gt;Node19</title>
<path fill="none" stroke="#191970" d="M267.6827,-73.8728C274.9456,-71.8438 282.2015,-69.5543 289,-67 305.9358,-60.6369 308.0598,-54.3513 325,-48 334.8154,-44.32 345.5787,-41.1938 355.9513,-38.6047"/>
<polygon fill="#191970" stroke="#191970" points="266.5913,-70.5409 257.8166,-76.4786 268.3788,-77.3089 266.5913,-70.5409"/>
</g>
<!-- Node15 -->
<g id="node4" class="node">
<title>Node15</title>
<g id="a_node4"><a xlink:href="class_base_index.html#a96a7407421fbf877509248bbe64f8d87" target="_top" xlink:title="Sync the index with the block index starting from the current best block. ">
<polygon fill="#ffffff" stroke="#000000" points="529.5,-158.5 529.5,-177.5 651.5,-177.5 651.5,-158.5 529.5,-158.5"/>
<text text-anchor="middle" x="590.5" y="-165.5" font-family="Helvetica,sans-Serif" font-size="10.00" fill="#000000">BaseIndex::ThreadSync</text>
</a>
</g>
</g>
<!-- Node14&#45;&gt;Node15 -->
<g id="edge3" class="edge">
<title>Node14&#45;&gt;Node15</title>
<path fill="none" stroke="#191970" d="M482.2652,-156.884C498.0114,-158.5012 514.3844,-160.1827 529.486,-161.7337"/>
<polygon fill="#191970" stroke="#191970" points="482.3332,-153.3726 472.0279,-155.8326 481.6179,-160.336 482.3332,-153.3726"/>
</g>
<!-- Node16 -->
<g id="node5" class="node">
<title>Node16</title>
<g id="a_node5"><a xlink:href="class_base_index.html#aec33bcb4ab5a0b0de416b4f3c4a1774b" target="_top" xlink:title="Write the current chain block locator to the DB. ">
<polygon fill="#ffffff" stroke="#000000" points="522,-120.5 522,-139.5 659,-139.5 659,-120.5 522,-120.5"/>
<text text-anchor="middle" x="590.5" y="-127.5" font-family="Helvetica,sans-Serif" font-size="10.00" fill="#000000">BaseIndex::WriteBestBlock</text>
</a>
</g>
</g>
<!-- Node14&#45;&gt;Node16 -->
<g id="edge4" class="edge">
<title>Node14&#45;&gt;Node16</title>
<path fill="none" stroke="#191970" d="M481.9993,-141.1433C495.1769,-139.7899 508.8014,-138.3907 521.7587,-137.0599"/>
<polygon fill="#191970" stroke="#191970" points="481.6179,-137.664 472.0279,-142.1674 482.3332,-144.6274 481.6179,-137.664"/>
</g>
<!-- Node19&#45;&gt;Node17 -->
<g id="edge8" class="edge">
<title>Node19&#45;&gt;Node17</title>
<path fill="none" stroke="#191970" d="M458.5034,-40.7467C486.7163,-46.9993 520.9648,-54.5895 547.5049,-60.4714"/>
<polygon fill="#191970" stroke="#191970" points="458.9282,-37.256 448.4077,-38.5093 457.4135,-44.0902 458.9282,-37.256"/>
</g>
</g>
</svg>
