<?xml version="1.0" encoding="UTF-8" standalone="no"?>
<!DOCTYPE svg PUBLIC "-//W3C//DTD SVG 1.1//EN"
 "http://www.w3.org/Graphics/SVG/1.1/DTD/svg11.dtd">
<!-- Generated by graphviz version 2.49.3 (0)
 -->
<!-- Title: SendCoinsEntry::setModel Pages: 1 -->
<svg width="925pt" height="301pt"
 viewBox="0.00 0.00 925.00 301.00" xmlns="http://www.w3.org/2000/svg" xmlns:xlink="http://www.w3.org/1999/xlink">
<g id="graph0" class="graph" transform="scale(1 1) rotate(0) translate(4 297)">
<title>SendCoinsEntry::setModel</title>
<polygon fill="white" stroke="transparent" points="-4,4 -4,-297 921,-297 921,4 -4,4"/>
<!-- Node1 -->
<g id="node1" class="node">
<title>Node1</title>
<g id="a_node1"><a xlink:title=" ">
<polygon fill="#bfbfbf" stroke="black" points="0,-88 0,-107 143,-107 143,-88 0,-88"/>
<text text-anchor="middle" x="71.5" y="-95" font-family="Helvetica,sans-Serif" font-size="10.00">SendCoinsEntry::setModel</text>
</a>
</g>
</g>
<!-- Node2 -->
<g id="node2" class="node">
<title>Node2</title>
<g id="a_node2"><a xlink:href="class_send_coins_entry.html#abff66fcd456c82144e7a2c410f5082ac" target="_top" xlink:title=" ">
<polygon fill="white" stroke="black" points="179,-148 179,-167 301,-167 301,-148 179,-148"/>
<text text-anchor="middle" x="240" y="-155" font-family="Helvetica,sans-Serif" font-size="10.00">SendCoinsEntry::clear</text>
</a>
</g>
</g>
<!-- Node1&#45;&gt;Node2 -->
<g id="edge1" class="edge">
<title>Node1&#45;&gt;Node2</title>
<path fill="none" stroke="midnightblue" d="M98.88,-107.01C126.93,-117.12 171.48,-133.17 202.8,-144.45"/>
<polygon fill="midnightblue" stroke="midnightblue" points="201.87,-147.84 212.47,-147.94 204.24,-141.26 201.87,-147.84"/>
</g>
<!-- Node6 -->
<g id="node6" class="node">
<title>Node6</title>
<g id="a_node6"><a xlink:href="class_wallet_model.html#a96d53e56b3f8f07537ea2523f7a7d300" target="_top" xlink:title=" ">
<polygon fill="white" stroke="black" points="562,-88 562,-107 729,-107 729,-88 562,-88"/>
<text text-anchor="middle" x="645.5" y="-95" font-family="Helvetica,sans-Serif" font-size="10.00">WalletModel::getOptionsModel</text>
</a>
</g>
</g>
<!-- Node1&#45;&gt;Node6 -->
<g id="edge12" class="edge">
<title>Node1&#45;&gt;Node6</title>
<path fill="none" stroke="midnightblue" d="M143.21,-97.5C246.21,-97.5 437.65,-97.5 551.81,-97.5"/>
<polygon fill="midnightblue" stroke="midnightblue" points="551.93,-101 561.93,-97.5 551.93,-94 551.93,-101"/>
</g>
<!-- Node8 -->
<g id="node8" class="node">
<title>Node8</title>
<g id="a_node8"><a xlink:href="class_send_coins_entry.html#a6ff4bd5b370545bcfd6214e866ee33f3" target="_top" xlink:title=" ">
<polygon fill="white" stroke="black" points="337,-50 337,-69 526,-69 526,-50 337,-50"/>
<text text-anchor="middle" x="431.5" y="-57" font-family="Helvetica,sans-Serif" font-size="10.00">SendCoinsEntry::updateDisplayUnit</text>
</a>
</g>
</g>
<!-- Node1&#45;&gt;Node8 -->
<g id="edge13" class="edge">
<title>Node1&#45;&gt;Node8</title>
<path fill="none" stroke="midnightblue" d="M142.06,-87.99C154.36,-86.42 167.05,-84.86 179,-83.5 227.52,-78 281.4,-72.74 326.81,-68.56"/>
<polygon fill="midnightblue" stroke="midnightblue" points="327.32,-72.03 336.96,-67.63 326.68,-65.06 327.32,-72.03"/>
</g>
<!-- Node3 -->
<g id="node3" class="node">
<title>Node3</title>
<g id="a_node3"><a xlink:href="class_bitcoin_amount_field.html#a66fb8e84968302c0a1b1914338ff8001" target="_top" xlink:title="Make field empty and ready for new input.">
<polygon fill="white" stroke="black" points="375.5,-213.5 375.5,-243.5 487.5,-243.5 487.5,-213.5 375.5,-213.5"/>
<text text-anchor="start" x="383.5" y="-231.5" font-family="Helvetica,sans-Serif" font-size="10.00">BitcoinAmountField</text>
<text text-anchor="middle" x="431.5" y="-220.5" font-family="Helvetica,sans-Serif" font-size="10.00">::clear</text>
</a>
</g>
</g>
<!-- Node2&#45;&gt;Node3 -->
<g id="edge2" class="edge">
<title>Node2&#45;&gt;Node3</title>
<path fill="none" stroke="midnightblue" d="M257.88,-167.08C276.7,-177.44 308.27,-193.91 337,-204.5 345.99,-207.81 355.62,-210.84 365.16,-213.55"/>
<polygon fill="midnightblue" stroke="midnightblue" points="364.48,-216.99 375.05,-216.26 366.32,-210.24 364.48,-216.99"/>
</g>
<!-- Node4 -->
<g id="node4" class="node">
<title>Node4</title>
<g id="a_node4"><a xlink:href="class_q_validated_line_edit.html#aee2a648f6f4904f21e55871afbddefa9" target="_top" xlink:title=" ">
<polygon fill="white" stroke="black" points="377,-164.5 377,-194.5 486,-194.5 486,-164.5 377,-164.5"/>
<text text-anchor="start" x="385" y="-182.5" font-family="Helvetica,sans-Serif" font-size="10.00">QValidatedLineEdit</text>
<text text-anchor="middle" x="431.5" y="-171.5" font-family="Helvetica,sans-Serif" font-size="10.00">::clear</text>
</a>
</g>
</g>
<!-- Node2&#45;&gt;Node4 -->
<g id="edge3" class="edge">
<title>Node2&#45;&gt;Node4</title>
<path fill="none" stroke="midnightblue" d="M301.22,-164.49C322.08,-166.91 345.53,-169.64 366.67,-172.09"/>
<polygon fill="midnightblue" stroke="midnightblue" points="366.51,-175.59 376.85,-173.27 367.32,-168.64 366.51,-175.59"/>
</g>
<!-- Node2&#45;&gt;Node6 -->
<g id="edge5" class="edge">
<title>Node2&#45;&gt;Node6</title>
<path fill="none" stroke="midnightblue" d="M301.41,-148.52C373.16,-137.85 492.83,-120.05 570.18,-108.55"/>
<polygon fill="midnightblue" stroke="midnightblue" points="570.96,-111.97 580.34,-107.04 569.93,-105.05 570.96,-111.97"/>
</g>
<!-- Node7 -->
<g id="node7" class="node">
<title>Node7</title>
<g id="a_node7"><a xlink:href="class_options_model.html#a5181f43b7e70174674ad99332ab387dc" target="_top" xlink:title=" ">
<polygon fill="white" stroke="black" points="348.5,-262.5 348.5,-292.5 514.5,-292.5 514.5,-262.5 348.5,-262.5"/>
<text text-anchor="start" x="356.5" y="-280.5" font-family="Helvetica,sans-Serif" font-size="10.00">OptionsModel::getSubFeeFrom</text>
<text text-anchor="middle" x="431.5" y="-269.5" font-family="Helvetica,sans-Serif" font-size="10.00">Amount</text>
</a>
</g>
</g>
<!-- Node2&#45;&gt;Node7 -->
<g id="edge6" class="edge">
<title>Node2&#45;&gt;Node7</title>
<path fill="none" stroke="midnightblue" d="M247.74,-167.08C261.92,-186.5 296.87,-230.61 337,-253.5 340.08,-255.26 343.28,-256.88 346.58,-258.4"/>
<polygon fill="midnightblue" stroke="midnightblue" points="345.48,-261.73 356.06,-262.35 348.18,-255.27 345.48,-261.73"/>
</g>
<!-- Node2&#45;&gt;Node8 -->
<g id="edge7" class="edge">
<title>Node2&#45;&gt;Node8</title>
<path fill="none" stroke="midnightblue" d="M259.52,-147.92C292.91,-130.65 363.41,-94.2 402.65,-73.9"/>
<polygon fill="midnightblue" stroke="midnightblue" points="404.64,-76.82 411.91,-69.11 401.42,-70.6 404.64,-76.82"/>
</g>
<!-- Node5 -->
<g id="node5" class="node">
<title>Node5</title>
<g id="a_node5"><a xlink:href="class_q_validated_line_edit.html#ad9984e2e463cc7fbf28fe334498a1df5" target="_top" xlink:title=" ">
<polygon fill="white" stroke="black" points="591,-164.5 591,-194.5 700,-194.5 700,-164.5 591,-164.5"/>
<text text-anchor="start" x="599" y="-182.5" font-family="Helvetica,sans-Serif" font-size="10.00">QValidatedLineEdit</text>
<text text-anchor="middle" x="645.5" y="-171.5" font-family="Helvetica,sans-Serif" font-size="10.00">::setValid</text>
</a>
</g>
</g>
<!-- Node4&#45;&gt;Node5 -->
<g id="edge4" class="edge">
<title>Node4&#45;&gt;Node5</title>
<path fill="none" stroke="midnightblue" d="M486.27,-179.5C514.91,-179.5 550.33,-179.5 580.4,-179.5"/>
<polygon fill="midnightblue" stroke="midnightblue" points="580.79,-183 590.79,-179.5 580.79,-176 580.79,-183"/>
</g>
<!-- Node8&#45;&gt;Node6 -->
<g id="edge9" class="edge">
<title>Node8&#45;&gt;Node6</title>
<path fill="none" stroke="midnightblue" d="M485.72,-69.04C514.7,-74.23 550.75,-80.7 581.17,-86.15"/>
<polygon fill="midnightblue" stroke="midnightblue" points="580.79,-89.64 591.26,-87.96 582.03,-82.75 580.79,-89.64"/>
</g>
<!-- Node9 -->
<g id="node9" class="node">
<title>Node9</title>
<g id="a_node9"><a xlink:href="class_options_model.html#a00a1f0842f764f64086e7d5d42bbce63" target="_top" xlink:title=" ">
<polygon fill="white" stroke="black" points="564,-50 564,-69 727,-69 727,-50 564,-50"/>
<text text-anchor="middle" x="645.5" y="-57" font-family="Helvetica,sans-Serif" font-size="10.00">OptionsModel::getDisplayUnit</text>
</a>
</g>
</g>
<!-- Node8&#45;&gt;Node9 -->
<g id="edge8" class="edge">
<title>Node8&#45;&gt;Node9</title>
<path fill="none" stroke="midnightblue" d="M526.1,-59.5C535.21,-59.5 544.44,-59.5 553.52,-59.5"/>
<polygon fill="midnightblue" stroke="midnightblue" points="553.7,-63 563.7,-59.5 553.7,-56 553.7,-63"/>
</g>
<!-- Node10 -->
<g id="node10" class="node">
<title>Node10</title>
<g id="a_node10"><a xlink:href="class_bitcoin_amount_field.html#a623534b2ad508278c5fa8f4c7f363804" target="_top" xlink:title="Change unit used to display amount.">
<polygon fill="white" stroke="black" points="589.5,-0.5 589.5,-30.5 701.5,-30.5 701.5,-0.5 589.5,-0.5"/>
<text text-anchor="start" x="597.5" y="-18.5" font-family="Helvetica,sans-Serif" font-size="10.00">BitcoinAmountField</text>
<text text-anchor="middle" x="645.5" y="-7.5" font-family="Helvetica,sans-Serif" font-size="10.00">::setDisplayUnit</text>
</a>
</g>
</g>
<!-- Node8&#45;&gt;Node10 -->
<g id="edge10" class="edge">
<title>Node8&#45;&gt;Node10</title>
<path fill="none" stroke="midnightblue" d="M478.5,-49.95C507.97,-43.84 546.66,-35.81 579.27,-29.04"/>
<polygon fill="midnightblue" stroke="midnightblue" points="580.1,-32.44 589.18,-26.98 578.68,-25.59 580.1,-32.44"/>
</g>
<!-- Node11 -->
<g id="node11" class="node">
<title>Node11</title>
<g id="a_node11"><a xlink:href="class_q_value_combo_box.html#af192c68c0c82f33000d8c1be8c013d2d" target="_top" xlink:title=" ">
<polygon fill="white" stroke="black" points="765,-6 765,-25 917,-25 917,-6 765,-6"/>
<text text-anchor="middle" x="841" y="-13" font-family="Helvetica,sans-Serif" font-size="10.00">QValueComboBox::setValue</text>
</a>
</g>
</g>
<!-- Node10&#45;&gt;Node11 -->
<g id="edge11" class="edge">
<title>Node10&#45;&gt;Node11</title>
<path fill="none" stroke="midnightblue" d="M701.69,-15.5C718.2,-15.5 736.71,-15.5 754.68,-15.5"/>
<polygon fill="midnightblue" stroke="midnightblue" points="754.88,-19 764.88,-15.5 754.88,-12 754.88,-19"/>
</g>
</g>
</svg>
