<?xml version="1.0" encoding="UTF-8" standalone="no"?>
<!DOCTYPE svg PUBLIC "-//W3C//DTD SVG 1.1//EN"
 "http://www.w3.org/Graphics/SVG/1.1/DTD/svg11.dtd">
<!-- Generated by graphviz version 2.40.1 (20161225.0304)
 -->
<!-- Title: WalletFrame::encryptWallet Pages: 1 -->
<svg width="524pt" height="96pt"
 viewBox="0.00 0.00 524.00 95.50" xmlns="http://www.w3.org/2000/svg" xmlns:xlink="http://www.w3.org/1999/xlink">
<g id="graph0" class="graph" transform="scale(1 1) rotate(0) translate(4 91.5)">
<title>WalletFrame::encryptWallet</title>
<polygon fill="#ffffff" stroke="transparent" points="-4,4 -4,-91.5 520,-91.5 520,4 -4,4"/>
<!-- Node199 -->
<g id="node1" class="node">
<title>Node199</title>
<polygon fill="#bfbfbf" stroke="#000000" points="0,-49 0,-68 138,-68 138,-49 0,-49"/>
<text text-anchor="middle" x="69" y="-56" font-family="Helvetica,sans-Serif" font-size="10.00" fill="#000000">WalletFrame::encryptWallet</text>
</g>
<!-- Node200 -->
<g id="node2" class="node">
<title>Node200</title>
<g id="a_node2"><a xlink:href="class_wallet_frame.html#a026798332d142b693e4f1820185d3f1c" target="_top" xlink:title="WalletFrame::currentWalletView">
<polygon fill="#ffffff" stroke="#000000" points="174,-68 174,-87 332,-87 332,-68 174,-68"/>
<text text-anchor="middle" x="253" y="-75" font-family="Helvetica,sans-Serif" font-size="10.00" fill="#000000">WalletFrame::currentWalletView</text>
</a>
</g>
</g>
<!-- Node199&#45;&gt;Node200 -->
<g id="edge1" class="edge">
<title>Node199&#45;&gt;Node200</title>
<path fill="none" stroke="#191970" d="M138.0383,-65.629C146.4671,-66.4993 155.1706,-67.3981 163.8404,-68.2933"/>
<polygon fill="#191970" stroke="#191970" points="163.6775,-71.795 173.9841,-69.3408 164.3965,-64.832 163.6775,-71.795"/>
</g>
<!-- Node201 -->
<g id="node3" class="node">
<title>Node201</title>
<g id="a_node3"><a xlink:href="class_wallet_view.html#a164c3de8fc69ef6f39fb7c15e4bda553" target="_top" xlink:title="Encrypt the wallet. ">
<polygon fill="#ffffff" stroke="#000000" points="187,-30 187,-49 319,-49 319,-30 187,-30"/>
<text text-anchor="middle" x="253" y="-37" font-family="Helvetica,sans-Serif" font-size="10.00" fill="#000000">WalletView::encryptWallet</text>
</a>
</g>
</g>
<!-- Node199&#45;&gt;Node201 -->
<g id="edge2" class="edge">
<title>Node199&#45;&gt;Node201</title>
<path fill="none" stroke="#191970" d="M138.0383,-51.371C150.6711,-50.0666 163.9211,-48.6984 176.7498,-47.3737"/>
<polygon fill="#191970" stroke="#191970" points="177.3406,-50.8314 186.9282,-46.3226 176.6215,-43.8684 177.3406,-50.8314"/>
</g>
<!-- Node202 -->
<g id="node4" class="node">
<title>Node202</title>
<g id="a_node4"><a xlink:href="class_ask_passphrase_dialog.html#a35b83e1ef98813b6b88155aab0803ed3" target="_top" xlink:title="AskPassphraseDialog\l::setModel">
<polygon fill="#ffffff" stroke="#000000" points="385.5,-49.5 385.5,-79.5 498.5,-79.5 498.5,-49.5 385.5,-49.5"/>
<text text-anchor="start" x="393.5" y="-67.5" font-family="Helvetica,sans-Serif" font-size="10.00" fill="#000000">AskPassphraseDialog</text>
<text text-anchor="middle" x="442" y="-56.5" font-family="Helvetica,sans-Serif" font-size="10.00" fill="#000000">::setModel</text>
</a>
</g>
</g>
<!-- Node201&#45;&gt;Node202 -->
<g id="edge3" class="edge">
<title>Node201&#45;&gt;Node202</title>
<path fill="none" stroke="#191970" d="M319.103,-48.2438C337.3358,-50.6555 357.1234,-53.2729 375.385,-55.6885"/>
<polygon fill="#191970" stroke="#191970" points="374.9812,-59.1655 385.3538,-57.0071 375.8991,-52.2259 374.9812,-59.1655"/>
</g>
<!-- Node203 -->
<g id="node5" class="node">
<title>Node203</title>
<g id="a_node5"><a xlink:href="class_wallet_view.html#ad348f2ed9f843ef9125ca416307c7412" target="_top" xlink:title="Re&#45;emit encryption status signal. ">
<polygon fill="#ffffff" stroke="#000000" points="368,-.5 368,-30.5 516,-30.5 516,-.5 368,-.5"/>
<text text-anchor="start" x="376" y="-18.5" font-family="Helvetica,sans-Serif" font-size="10.00" fill="#000000">WalletView::updateEncryption</text>
<text text-anchor="middle" x="442" y="-7.5" font-family="Helvetica,sans-Serif" font-size="10.00" fill="#000000">Status</text>
</a>
</g>
</g>
<!-- Node201&#45;&gt;Node203 -->
<g id="edge4" class="edge">
<title>Node201&#45;&gt;Node203</title>
<path fill="none" stroke="#191970" d="M319.103,-31.106C331.5343,-29.5274 344.6884,-27.857 357.5888,-26.2189"/>
<polygon fill="#191970" stroke="#191970" points="358.3822,-29.6463 367.8616,-24.9144 357.5003,-22.7021 358.3822,-29.6463"/>
</g>
</g>
</svg>
