<?xml version="1.0" encoding="UTF-8" standalone="no"?>
<!DOCTYPE svg PUBLIC "-//W3C//DTD SVG 1.1//EN"
 "http://www.w3.org/Graphics/SVG/1.1/DTD/svg11.dtd">
<!-- Generated by graphviz version 2.38.0 (20140413.2041)
 -->
<!-- Title: CBasicKeyStore::GetPubKey Pages: 1 -->
<svg width="539pt" height="78pt"
 viewBox="0.00 0.00 539.00 77.50" xmlns="http://www.w3.org/2000/svg" xmlns:xlink="http://www.w3.org/1999/xlink">
<g id="graph0" class="graph" transform="scale(1 1) rotate(0) translate(4 73.5)">
<title>CBasicKeyStore::GetPubKey</title>
<polygon fill="white" stroke="none" points="-4,4 -4,-73.5 535,-73.5 535,4 -4,4"/>
<!-- Node1 -->
<g id="node1" class="node"><title>Node1</title>
<polygon fill="#bfbfbf" stroke="black" points="0,-22.5 0,-41.5 149,-41.5 149,-22.5 0,-22.5"/>
<text text-anchor="middle" x="74.5" y="-29.5" font-family="Helvetica,sans-Serif" font-size="10.00">CBasicKeyStore::GetPubKey</text>
</g>
<!-- Node2 -->
<g id="node2" class="node"><title>Node2</title>
<g id="a_node2"><a xlink:href="class_c_crypto_key_store.html#af57d6ee7c31e1d9673e811a32aaa5ebc" target="_top" xlink:title="CCryptoKeyStore::GetPubKey">
<polygon fill="white" stroke="black" points="185,-22.5 185,-41.5 340,-41.5 340,-22.5 185,-22.5"/>
<text text-anchor="middle" x="262.5" y="-29.5" font-family="Helvetica,sans-Serif" font-size="10.00">CCryptoKeyStore::GetPubKey</text>
</a>
</g>
</g>
<!-- Node1&#45;&gt;Node2 -->
<g id="edge1" class="edge"><title>Node1&#45;&gt;Node2</title>
<path fill="none" stroke="midnightblue" d="M159.036,-32C167.634,-32 176.34,-32 184.857,-32"/>
<polygon fill="midnightblue" stroke="midnightblue" points="159.012,-28.5001 149.012,-32 159.012,-35.5001 159.012,-28.5001"/>
</g>
<!-- Node3 -->
<g id="node3" class="node"><title>Node3</title>
<g id="a_node3"><a xlink:href="class_describe_wallet_address_visitor.html#a4b1ab9a6f862a62eacc004633180dab4" target="_top" xlink:title="DescribeWalletAddressVisitor\l::operator()">
<polygon fill="white" stroke="black" points="376,-39 376,-69 531,-69 531,-39 376,-39"/>
<text text-anchor="start" x="384" y="-57" font-family="Helvetica,sans-Serif" font-size="10.00">DescribeWalletAddressVisitor</text>
<text text-anchor="middle" x="453.5" y="-46" font-family="Helvetica,sans-Serif" font-size="10.00">::operator()</text>
</a>
</g>
</g>
<!-- Node2&#45;&gt;Node3 -->
<g id="edge2" class="edge"><title>Node2&#45;&gt;Node3</title>
<path fill="none" stroke="midnightblue" d="M350.104,-42.0809C358.674,-43.0784 367.33,-44.0861 375.79,-45.0708"/>
<polygon fill="midnightblue" stroke="midnightblue" points="350.439,-38.5963 340.101,-40.9165 349.629,-45.5494 350.439,-38.5963"/>
</g>
<!-- Node4 -->
<g id="node4" class="node"><title>Node4</title>
<g id="a_node4"><a xlink:href="rpcwallet_8cpp.html#a614a0b6d4fe51abf85bdb57475cb9d48" target="_top" xlink:title="AddKeypathToMap">
<polygon fill="white" stroke="black" points="401.5,-0.5 401.5,-19.5 505.5,-19.5 505.5,-0.5 401.5,-0.5"/>
<text text-anchor="middle" x="453.5" y="-7.5" font-family="Helvetica,sans-Serif" font-size="10.00">AddKeypathToMap</text>
</a>
</g>
</g>
<!-- Node2&#45;&gt;Node4 -->
<g id="edge3" class="edge"><title>Node2&#45;&gt;Node4</title>
<path fill="none" stroke="midnightblue" d="M350.301,-21.8962C367.724,-19.8681 385.498,-17.7992 401.234,-15.9675"/>
<polygon fill="midnightblue" stroke="midnightblue" points="349.629,-18.4506 340.101,-23.0835 350.439,-25.4037 349.629,-18.4506"/>
</g>
</g>
</svg>
