<?xml version="1.0" encoding="UTF-8" standalone="no"?>
<!DOCTYPE svg PUBLIC "-//W3C//DTD SVG 1.1//EN"
 "http://www.w3.org/Graphics/SVG/1.1/DTD/svg11.dtd">
<!-- Generated by graphviz version 2.40.1 (20161225.0304)
 -->
<!-- Title: TransactionRecord Pages: 1 -->
<svg width="194pt" height="152pt"
 viewBox="0.00 0.00 193.50 152.00" xmlns="http://www.w3.org/2000/svg" xmlns:xlink="http://www.w3.org/1999/xlink">
<g id="graph0" class="graph" transform="scale(1 1) rotate(0) translate(4 148)">
<title>TransactionRecord</title>
<polygon fill="#ffffff" stroke="transparent" points="-4,4 -4,-148 189.5,-148 189.5,4 -4,4"/>
<!-- Node1 -->
<g id="node1" class="node">
<title>Node1</title>
<polygon fill="#bfbfbf" stroke="#000000" points="64,-.5 64,-19.5 163,-19.5 163,-.5 64,-.5"/>
<text text-anchor="middle" x="113.5" y="-7.5" font-family="Helvetica,sans-Serif" font-size="10.00" fill="#000000">TransactionRecord</text>
</g>
<!-- Node2 -->
<g id="node2" class="node">
<title>Node2</title>
<g id="a_node2"><a xlink:href="classuint256.html" target="_top" xlink:title="256&#45;bit opaque blob. ">
<polygon fill="#ffffff" stroke="#000000" points="23.5,-67.5 23.5,-86.5 71.5,-86.5 71.5,-67.5 23.5,-67.5"/>
<text text-anchor="middle" x="47.5" y="-74.5" font-family="Helvetica,sans-Serif" font-size="10.00" fill="#000000">uint256</text>
</a>
</g>
</g>
<!-- Node2&#45;&gt;Node1 -->
<g id="edge1" class="edge">
<title>Node2&#45;&gt;Node1</title>
<path fill="none" stroke="#9a32cd" stroke-dasharray="5,2" d="M64.1689,-60.0785C76.7923,-47.2639 93.6785,-30.1218 104.0614,-19.5817"/>
<polygon fill="#9a32cd" stroke="#9a32cd" points="61.4805,-57.8203 56.9562,-67.4005 66.4673,-62.7327 61.4805,-57.8203"/>
<text text-anchor="middle" x="97" y="-41" font-family="Helvetica,sans-Serif" font-size="10.00" fill="#000000"> hash</text>
</g>
<!-- Node3 -->
<g id="node3" class="node">
<title>Node3</title>
<g id="a_node3"><a xlink:href="classbase__blob.html" target="_top" xlink:title="base_blob\&lt; 256 \&gt;">
<polygon fill="#ffffff" stroke="#000000" points="0,-124.5 0,-143.5 95,-143.5 95,-124.5 0,-124.5"/>
<text text-anchor="middle" x="47.5" y="-131.5" font-family="Helvetica,sans-Serif" font-size="10.00" fill="#000000">base_blob&lt; 256 &gt;</text>
</a>
</g>
</g>
<!-- Node3&#45;&gt;Node2 -->
<g id="edge2" class="edge">
<title>Node3&#45;&gt;Node2</title>
<path fill="none" stroke="#191970" d="M47.5,-114.2342C47.5,-104.8491 47.5,-94.0651 47.5,-86.5265"/>
<polygon fill="#191970" stroke="#191970" points="44.0001,-114.3307 47.5,-124.3307 51.0001,-114.3308 44.0001,-114.3307"/>
</g>
<!-- Node4 -->
<g id="node4" class="node">
<title>Node4</title>
<g id="a_node4"><a xlink:href="class_transaction_status.html" target="_top" xlink:title="UI model for transaction status. ">
<polygon fill="#ffffff" stroke="#000000" points="89.5,-67.5 89.5,-86.5 185.5,-86.5 185.5,-67.5 89.5,-67.5"/>
<text text-anchor="middle" x="137.5" y="-74.5" font-family="Helvetica,sans-Serif" font-size="10.00" fill="#000000">TransactionStatus</text>
</a>
</g>
</g>
<!-- Node4&#45;&gt;Node1 -->
<g id="edge3" class="edge">
<title>Node4&#45;&gt;Node1</title>
<path fill="none" stroke="#9a32cd" stroke-dasharray="5,2" d="M130.6449,-57.8628C126.1607,-45.3444 120.4941,-29.5252 116.9322,-19.5817"/>
<polygon fill="#9a32cd" stroke="#9a32cd" points="127.3941,-59.1666 134.0614,-67.4005 133.984,-56.806 127.3941,-59.1666"/>
<text text-anchor="middle" x="142" y="-41" font-family="Helvetica,sans-Serif" font-size="10.00" fill="#000000"> status</text>
</g>
</g>
</svg>
