<?xml version="1.0" encoding="UTF-8" standalone="no"?>
<!DOCTYPE svg PUBLIC "-//W3C//DTD SVG 1.1//EN"
 "http://www.w3.org/Graphics/SVG/1.1/DTD/svg11.dtd">
<!-- Generated by graphviz version 2.38.0 (20140413.2041)
 -->
<!-- Title: TransactionView::bumpedFee Pages: 1 -->
<svg width="549pt" height="47pt"
 viewBox="0.00 0.00 549.00 47.00" xmlns="http://www.w3.org/2000/svg" xmlns:xlink="http://www.w3.org/1999/xlink">
<g id="graph0" class="graph" transform="scale(1 1) rotate(0) translate(4 43)">
<title>TransactionView::bumpedFee</title>
<polygon fill="white" stroke="none" points="-4,4 -4,-43 545,-43 545,4 -4,4"/>
<!-- Node1 -->
<g id="node1" class="node"><title>Node1</title>
<polygon fill="#bfbfbf" stroke="black" points="0,-19.5 0,-38.5 154,-38.5 154,-19.5 0,-19.5"/>
<text text-anchor="middle" x="77" y="-26.5" font-family="Helvetica,sans-Serif" font-size="10.00">TransactionView::bumpedFee</text>
</g>
<!-- Node2 -->
<g id="node2" class="node"><title>Node2</title>
<g id="a_node2"><a xlink:href="class_transaction_view.html#a6bad80e62c684ad1e77250510c9323aa" target="_top" xlink:title="TransactionView::TransactionView">
<polygon fill="white" stroke="black" points="368,-19.5 368,-38.5 541,-38.5 541,-19.5 368,-19.5"/>
<text text-anchor="middle" x="454.5" y="-26.5" font-family="Helvetica,sans-Serif" font-size="10.00">TransactionView::TransactionView</text>
</a>
</g>
</g>
<!-- Node1&#45;&gt;Node2 -->
<g id="edge1" class="edge"><title>Node1&#45;&gt;Node2</title>
<path fill="none" stroke="midnightblue" d="M164.449,-29C225.555,-29 307.096,-29 367.991,-29"/>
<polygon fill="midnightblue" stroke="midnightblue" points="164.441,-25.5001 154.441,-29 164.441,-32.5001 164.441,-25.5001"/>
</g>
<!-- Node3 -->
<g id="node3" class="node"><title>Node3</title>
<g id="a_node3"><a xlink:href="class_transaction_view.html#a6cf5d062668e5e29c6203b6e0dc3836b" target="_top" xlink:title="TransactionView::bumpFee">
<polygon fill="white" stroke="black" points="190,-0.5 190,-19.5 332,-19.5 332,-0.5 190,-0.5"/>
<text text-anchor="middle" x="261" y="-7.5" font-family="Helvetica,sans-Serif" font-size="10.00">TransactionView::bumpFee</text>
</a>
</g>
</g>
<!-- Node1&#45;&gt;Node3 -->
<g id="edge2" class="edge"><title>Node1&#45;&gt;Node3</title>
<path fill="none" stroke="midnightblue" d="M164.221,-19.999C172.855,-19.0976 181.547,-18.1902 189.984,-17.3094"/>
<polygon fill="midnightblue" stroke="midnightblue" points="163.712,-16.5329 154.13,-21.0524 164.439,-23.4951 163.712,-16.5329"/>
</g>
<!-- Node3&#45;&gt;Node2 -->
<g id="edge3" class="edge"><title>Node3&#45;&gt;Node2</title>
<path fill="none" stroke="midnightblue" d="M342.428,-17.9798C350.878,-18.8182 359.491,-19.6728 367.996,-20.5165"/>
<polygon fill="midnightblue" stroke="midnightblue" points="342.517,-14.4715 332.22,-16.967 341.826,-21.4373 342.517,-14.4715"/>
</g>
</g>
</svg>
