<?xml version="1.0" encoding="UTF-8" standalone="no"?>
<!DOCTYPE svg PUBLIC "-//W3C//DTD SVG 1.1//EN"
 "http://www.w3.org/Graphics/SVG/1.1/DTD/svg11.dtd">
<!-- Generated by graphviz version 2.38.0 (20140413.2041)
 -->
<!-- Title: UniValue::get_int Pages: 1 -->
<svg width="1346pt" height="852pt"
 viewBox="0.00 0.00 1346.00 851.50" xmlns="http://www.w3.org/2000/svg" xmlns:xlink="http://www.w3.org/1999/xlink">
<g id="graph0" class="graph" transform="scale(1 1) rotate(0) translate(4 847.5)">
<title>UniValue::get_int</title>
<polygon fill="white" stroke="none" points="-4,4 -4,-847.5 1342,-847.5 1342,4 -4,4"/>
<!-- Node1 -->
<g id="node1" class="node"><title>Node1</title>
<polygon fill="#bfbfbf" stroke="black" points="0,-397.5 0,-416.5 98,-416.5 98,-397.5 0,-397.5"/>
<text text-anchor="middle" x="49" y="-404.5" font-family="Helvetica,sans-Serif" font-size="10.00">UniValue::get_int</text>
</g>
<!-- Node2 -->
<g id="node2" class="node"><title>Node2</title>
<g id="a_node2"><a xlink:href="class_default_request_handler.html#a79e399b51ea29faf9bd596165155aa11" target="_top" xlink:title="DefaultRequestHandler\l::ProcessReply">
<polygon fill="white" stroke="black" points="149,-813 149,-843 276,-843 276,-813 149,-813"/>
<text text-anchor="start" x="157" y="-831" font-family="Helvetica,sans-Serif" font-size="10.00">DefaultRequestHandler</text>
<text text-anchor="middle" x="212.5" y="-820" font-family="Helvetica,sans-Serif" font-size="10.00">::ProcessReply</text>
</a>
</g>
</g>
<!-- Node1&#45;&gt;Node2 -->
<g id="edge1" class="edge"><title>Node1&#45;&gt;Node2</title>
<path fill="none" stroke="midnightblue" d="M51.6227,-426.954C57.8843,-499.242 82.7233,-746.149 134,-803 138.166,-807.619 143.19,-811.389 148.653,-814.465"/>
<polygon fill="midnightblue" stroke="midnightblue" points="55.0749,-426.238 50.7483,-416.567 48.0996,-426.826 55.0749,-426.238"/>
</g>
<!-- Node3 -->
<g id="node3" class="node"><title>Node3</title>
<g id="a_node3"><a xlink:href="rpc_2protocol_8h.html#ab86b6a5bfbfcf85b519c5222df9133d8" target="_top" xlink:title="Parse JSON&#45;RPC batch reply into a vector. ">
<polygon fill="white" stroke="black" points="138,-774.5 138,-793.5 287,-793.5 287,-774.5 138,-774.5"/>
<text text-anchor="middle" x="212.5" y="-781.5" font-family="Helvetica,sans-Serif" font-size="10.00">JSONRPCProcessBatchReply</text>
</a>
</g>
</g>
<!-- Node1&#45;&gt;Node3 -->
<g id="edge2" class="edge"><title>Node1&#45;&gt;Node3</title>
<path fill="none" stroke="midnightblue" d="M51.9581,-426.897C59.0388,-494.816 85.4887,-716.004 134,-765 137.801,-768.839 142.243,-771.95 147.042,-774.464"/>
<polygon fill="midnightblue" stroke="midnightblue" points="55.4162,-426.306 50.9232,-416.712 48.452,-427.014 55.4162,-426.306"/>
</g>
<!-- Node5 -->
<g id="node5" class="node"><title>Node5</title>
<g id="a_node5"><a xlink:href="class_r_p_c_executor.html#ac596acfdaab015d3c9aaa291ec210d78" target="_top" xlink:title="RPCExecutor::request">
<polygon fill="white" stroke="black" points="152.5,-736.5 152.5,-755.5 272.5,-755.5 272.5,-736.5 152.5,-736.5"/>
<text text-anchor="middle" x="212.5" y="-743.5" font-family="Helvetica,sans-Serif" font-size="10.00">RPCExecutor::request</text>
</a>
</g>
</g>
<!-- Node1&#45;&gt;Node5 -->
<g id="edge4" class="edge"><title>Node1&#45;&gt;Node5</title>
<path fill="none" stroke="midnightblue" d="M52.5391,-426.798C61.0086,-489.791 90.2514,-683.958 134,-727 139.234,-732.149 145.622,-735.981 152.463,-738.82"/>
<polygon fill="midnightblue" stroke="midnightblue" points="55.9757,-426.087 51.2005,-416.629 49.0355,-427 55.9757,-426.087"/>
</g>
<!-- Node15 -->
<g id="node15" class="node"><title>Node15</title>
<g id="a_node15"><a xlink:href="blockchain_8h.html#ac5ec0fb7871f93c9889aecd50e2e408f" target="_top" xlink:title="Callback for when block tip changed. ">
<polygon fill="white" stroke="black" points="150,-698.5 150,-717.5 275,-717.5 275,-698.5 150,-698.5"/>
<text text-anchor="middle" x="212.5" y="-705.5" font-family="Helvetica,sans-Serif" font-size="10.00">RPCNotifyBlockChange</text>
</a>
</g>
</g>
<!-- Node1&#45;&gt;Node15 -->
<g id="edge16" class="edge"><title>Node1&#45;&gt;Node15</title>
<path fill="none" stroke="midnightblue" d="M49.6395,-426.822C49.8425,-478.154 57.8126,-616.463 134,-689 138.615,-693.394 144.074,-696.823 149.925,-699.491"/>
<polygon fill="midnightblue" stroke="midnightblue" points="53.1398,-426.754 49.7005,-416.733 46.14,-426.712 53.1398,-426.754"/>
</g>
<!-- Node18 -->
<g id="node18" class="node"><title>Node18</title>
<g id="a_node18"><a xlink:href="blockchain_8h.html#a3b8a8939a31de29ceb0ea581341eeb92" target="_top" xlink:title="Mempool to JSON. ">
<polygon fill="white" stroke="black" points="164.5,-642.5 164.5,-661.5 260.5,-661.5 260.5,-642.5 164.5,-642.5"/>
<text text-anchor="middle" x="212.5" y="-649.5" font-family="Helvetica,sans-Serif" font-size="10.00">mempoolToJSON</text>
</a>
</g>
</g>
<!-- Node1&#45;&gt;Node18 -->
<g id="edge19" class="edge"><title>Node1&#45;&gt;Node18</title>
<path fill="none" stroke="midnightblue" d="M51.349,-426.968C55.4417,-471.101 71.6044,-577.421 134,-633 142.379,-640.464 153.215,-645.106 164.113,-647.966"/>
<polygon fill="midnightblue" stroke="midnightblue" points="54.8319,-426.614 50.5321,-416.931 47.8549,-427.182 54.8319,-426.614"/>
</g>
<!-- Node20 -->
<g id="node20" class="node"><title>Node20</title>
<g id="a_node20"><a xlink:href="struct_c_coins_stats.html#a3f68ce1f423e40599c8d3c4bf2d97aa9" target="_top" xlink:title="CCoinsStats::CCoinsStats">
<polygon fill="white" stroke="black" points="142.5,-548.5 142.5,-567.5 282.5,-567.5 282.5,-548.5 142.5,-548.5"/>
<text text-anchor="middle" x="212.5" y="-555.5" font-family="Helvetica,sans-Serif" font-size="10.00">CCoinsStats::CCoinsStats</text>
</a>
</g>
</g>
<!-- Node1&#45;&gt;Node20 -->
<g id="edge22" class="edge"><title>Node1&#45;&gt;Node20</title>
<path fill="none" stroke="midnightblue" d="M57.5694,-425.974C69.6099,-453.757 95.7415,-505.314 134,-534 142.452,-540.337 152.603,-545.021 162.733,-548.477"/>
<polygon fill="midnightblue" stroke="midnightblue" points="60.7325,-424.465 53.6489,-416.587 54.2732,-427.163 60.7325,-424.465"/>
</g>
<!-- Node21 -->
<g id="node21" class="node"><title>Node21</title>
<g id="a_node21"><a xlink:href="blockchain_8cpp.html#a0d3ec9ae23b08828dd7ca646766ca637" target="_top" xlink:title="gettxout">
<polygon fill="white" stroke="black" points="184,-472.5 184,-491.5 241,-491.5 241,-472.5 184,-472.5"/>
<text text-anchor="middle" x="212.5" y="-479.5" font-family="Helvetica,sans-Serif" font-size="10.00">gettxout</text>
</a>
</g>
</g>
<!-- Node1&#45;&gt;Node21 -->
<g id="edge23" class="edge"><title>Node1&#45;&gt;Node21</title>
<path fill="none" stroke="midnightblue" d="M69.6713,-423.004C86.002,-435.554 110.309,-452.584 134,-463 149.852,-469.969 168.701,-474.663 183.841,-477.641"/>
<polygon fill="midnightblue" stroke="midnightblue" points="71.4995,-419.99 61.4738,-416.564 67.1748,-425.494 71.4995,-419.99"/>
</g>
<!-- Node22 -->
<g id="node22" class="node"><title>Node22</title>
<g id="a_node22"><a xlink:href="blockchain_8cpp.html#af8ae2be64c52204527fac00aefc1151c" target="_top" xlink:title="scantxoutset">
<polygon fill="white" stroke="black" points="363.5,-491.5 363.5,-510.5 442.5,-510.5 442.5,-491.5 363.5,-491.5"/>
<text text-anchor="middle" x="403" y="-498.5" font-family="Helvetica,sans-Serif" font-size="10.00">scantxoutset</text>
</a>
</g>
</g>
<!-- Node1&#45;&gt;Node22 -->
<g id="edge30" class="edge"><title>Node1&#45;&gt;Node22</title>
<path fill="none" stroke="midnightblue" d="M59.987,-425.565C73.3873,-448.27 99.5442,-485.582 134,-501 209.384,-534.733 309.072,-521.688 363.12,-510.516"/>
<polygon fill="midnightblue" stroke="midnightblue" points="62.863,-423.541 54.8904,-416.563 56.7715,-426.99 62.863,-423.541"/>
</g>
<!-- Node23 -->
<g id="node23" class="node"><title>Node23</title>
<g id="a_node23"><a xlink:href="blockchain_8h.html#a7305038a43cc5f399ca00e00c6f07186" target="_top" xlink:title="Mempool information to JSON. ">
<polygon fill="white" stroke="black" points="156,-586.5 156,-605.5 269,-605.5 269,-586.5 156,-586.5"/>
<text text-anchor="middle" x="212.5" y="-593.5" font-family="Helvetica,sans-Serif" font-size="10.00">mempoolInfoToJSON</text>
</a>
</g>
</g>
<!-- Node1&#45;&gt;Node23 -->
<g id="edge25" class="edge"><title>Node1&#45;&gt;Node23</title>
<path fill="none" stroke="midnightblue" d="M54.0903,-427.044C62.4794,-462.864 85.1113,-537.777 134,-577 140.375,-582.115 147.928,-585.881 155.778,-588.649"/>
<polygon fill="midnightblue" stroke="midnightblue" points="57.4212,-425.895 51.8518,-416.882 50.5852,-427.401 57.4212,-425.895"/>
</g>
<!-- Node24 -->
<g id="node24" class="node"><title>Node24</title>
<g id="a_node24"><a xlink:href="blockchain_8h.html#a7916bb05b909d901a0375641330510d1" target="_top" xlink:title="Used by getblockstats to get feerates at different percentiles by weight. ">
<polygon fill="white" stroke="black" points="134,-416.5 134,-435.5 291,-435.5 291,-416.5 134,-416.5"/>
<text text-anchor="middle" x="212.5" y="-423.5" font-family="Helvetica,sans-Serif" font-size="10.00">CalculatePercentilesByWeight</text>
</a>
</g>
</g>
<!-- Node1&#45;&gt;Node24 -->
<g id="edge28" class="edge"><title>Node1&#45;&gt;Node24</title>
<path fill="none" stroke="midnightblue" d="M108.003,-413.824C116.355,-414.807 125.061,-415.831 133.72,-416.849"/>
<polygon fill="midnightblue" stroke="midnightblue" points="108.359,-410.342 98.0181,-412.649 107.541,-417.294 108.359,-410.342"/>
</g>
<!-- Node25 -->
<g id="node25" class="node"><title>Node25</title>
<g id="a_node25"><a xlink:href="mining_8h.html#aeae629d66e8abfac91fb0b43f5f1962e" target="_top" xlink:title="Check bounds on a command line confirm target. ">
<polygon fill="white" stroke="black" points="157.5,-340.5 157.5,-359.5 267.5,-359.5 267.5,-340.5 157.5,-340.5"/>
<text text-anchor="middle" x="212.5" y="-347.5" font-family="Helvetica,sans-Serif" font-size="10.00">ParseConfirmTarget</text>
</a>
</g>
</g>
<!-- Node1&#45;&gt;Node25 -->
<g id="edge31" class="edge"><title>Node1&#45;&gt;Node25</title>
<path fill="none" stroke="midnightblue" d="M82.6355,-393.529C98.1032,-387.312 116.899,-379.998 134,-374 148.621,-368.872 164.986,-363.72 178.896,-359.511"/>
<polygon fill="midnightblue" stroke="midnightblue" points="80.9571,-390.433 73.0027,-397.431 83.5853,-396.921 80.9571,-390.433"/>
</g>
<!-- Node27 -->
<g id="node27" class="node"><title>Node27</title>
<g id="a_node27"><a xlink:href="rpcwallet_8cpp.html#a7424e87562c3781c88662ebfb6ef7e4a" target="_top" xlink:title="GetLabelDestination">
<polygon fill="white" stroke="black" points="346,-378.5 346,-397.5 460,-397.5 460,-378.5 346,-378.5"/>
<text text-anchor="middle" x="403" y="-385.5" font-family="Helvetica,sans-Serif" font-size="10.00">GetLabelDestination</text>
</a>
</g>
</g>
<!-- Node1&#45;&gt;Node27 -->
<g id="edge52" class="edge"><title>Node1&#45;&gt;Node27</title>
<path fill="none" stroke="midnightblue" d="M108.433,-403.846C174.407,-400.285 280.992,-394.532 345.962,-391.025"/>
<polygon fill="midnightblue" stroke="midnightblue" points="108.003,-400.364 98.206,-404.398 108.38,-407.354 108.003,-400.364"/>
</g>
<!-- Node28 -->
<g id="node28" class="node"><title>Node28</title>
<g id="a_node28"><a xlink:href="rpcwallet_8cpp.html#aaaebd94e806360dd08e7254b09c7997b" target="_top" xlink:title="FundTransaction">
<polygon fill="white" stroke="black" points="356.5,-246.5 356.5,-265.5 449.5,-265.5 449.5,-246.5 356.5,-246.5"/>
<text text-anchor="middle" x="403" y="-253.5" font-family="Helvetica,sans-Serif" font-size="10.00">FundTransaction</text>
</a>
</g>
</g>
<!-- Node1&#45;&gt;Node28 -->
<g id="edge56" class="edge"><title>Node1&#45;&gt;Node28</title>
<path fill="none" stroke="midnightblue" d="M56.0982,-387.36C66.5969,-357.255 91.1891,-300.512 134,-275 202.719,-234.048 299.642,-239.438 356.14,-247.458"/>
<polygon fill="midnightblue" stroke="midnightblue" points="52.6811,-386.546 52.8604,-397.139 59.3263,-388.746 52.6811,-386.546"/>
</g>
<!-- Node33 -->
<g id="node33" class="node"><title>Node33</title>
<g id="a_node33"><a xlink:href="mining_8h.html#a4910d289954727eb7c4c24a6b3c50c55" target="_top" xlink:title="Generate blocks (mine) ">
<polygon fill="white" stroke="black" points="167,-152.5 167,-171.5 258,-171.5 258,-152.5 167,-152.5"/>
<text text-anchor="middle" x="212.5" y="-159.5" font-family="Helvetica,sans-Serif" font-size="10.00">generateBlocks</text>
</a>
</g>
</g>
<!-- Node1&#45;&gt;Node33 -->
<g id="edge40" class="edge"><title>Node1&#45;&gt;Node33</title>
<path fill="none" stroke="midnightblue" d="M53.5327,-387.443C61.4948,-348.293 84.1725,-259.315 134,-204 147.418,-189.104 167.397,-178.456 183.709,-171.608"/>
<polygon fill="midnightblue" stroke="midnightblue" points="50.0893,-386.816 51.6298,-397.298 56.9623,-388.143 50.0893,-386.816"/>
</g>
<!-- Node34 -->
<g id="node34" class="node"><title>Node34</title>
<g id="a_node34"><a xlink:href="rpcwallet_8cpp.html#a236a42206aa464fbb10bae6e6243092b" target="_top" xlink:title="generate">
<polygon fill="white" stroke="black" points="373,-189.5 373,-208.5 433,-208.5 433,-189.5 373,-189.5"/>
<text text-anchor="middle" x="403" y="-196.5" font-family="Helvetica,sans-Serif" font-size="10.00">generate</text>
</a>
</g>
</g>
<!-- Node1&#45;&gt;Node34 -->
<g id="edge57" class="edge"><title>Node1&#45;&gt;Node34</title>
<path fill="none" stroke="midnightblue" d="M53.5086,-387.455C61.1177,-351.251 82.7585,-274.076 134,-237 171.692,-209.728 311.398,-201.911 372.768,-199.768"/>
<polygon fill="midnightblue" stroke="midnightblue" points="50.0707,-386.799 51.5804,-397.286 56.9398,-388.147 50.0707,-386.799"/>
</g>
<!-- Node35 -->
<g id="node35" class="node"><title>Node35</title>
<g id="a_node35"><a xlink:href="rawtransaction_8h.html#aee85a5d91a985f7e1bc1b4a124870ab3" target="_top" xlink:title="Create a transaction from univalue parameters. ">
<polygon fill="white" stroke="black" points="344.5,-57.5 344.5,-76.5 461.5,-76.5 461.5,-57.5 344.5,-57.5"/>
<text text-anchor="middle" x="403" y="-64.5" font-family="Helvetica,sans-Serif" font-size="10.00">ConstructTransaction</text>
</a>
</g>
</g>
<!-- Node1&#45;&gt;Node35 -->
<g id="edge44" class="edge"><title>Node1&#45;&gt;Node35</title>
<path fill="none" stroke="midnightblue" d="M51.766,-387.225C58.1475,-320.773 82.4093,-107.396 134,-67 205.436,-11.0652 323.541,-40.3436 375.77,-57.4724"/>
<polygon fill="midnightblue" stroke="midnightblue" points="48.2775,-386.94 50.8362,-397.221 55.2475,-387.588 48.2775,-386.94"/>
</g>
<!-- Node37 -->
<g id="node37" class="node"><title>Node37</title>
<g id="a_node37"><a xlink:href="rawtransaction_8h.html#a69f132a19b8e91bd9b0b1330b5323f0a" target="_top" xlink:title="Sign a transaction with the given keystore and previous transactions. ">
<polygon fill="white" stroke="black" points="166.5,-284.5 166.5,-303.5 258.5,-303.5 258.5,-284.5 166.5,-284.5"/>
<text text-anchor="middle" x="212.5" y="-291.5" font-family="Helvetica,sans-Serif" font-size="10.00">SignTransaction</text>
</a>
</g>
</g>
<!-- Node1&#45;&gt;Node37 -->
<g id="edge49" class="edge"><title>Node1&#45;&gt;Node37</title>
<path fill="none" stroke="midnightblue" d="M66.1186,-389.759C82.1991,-373.234 108.167,-348.313 134,-331 150.596,-319.877 171.052,-310.261 186.78,-303.622"/>
<polygon fill="midnightblue" stroke="midnightblue" points="63.4514,-387.484 59.0627,-397.127 68.507,-392.325 63.4514,-387.484"/>
</g>
<!-- Node38 -->
<g id="node38" class="node"><title>Node38</title>
<g id="a_node38"><a xlink:href="structtallyitem.html#ae5422f8bac6178b3e7dd634d6bfc454c" target="_top" xlink:title="tallyitem::tallyitem">
<polygon fill="white" stroke="black" points="160,-0.5 160,-19.5 265,-19.5 265,-0.5 160,-0.5"/>
<text text-anchor="middle" x="212.5" y="-7.5" font-family="Helvetica,sans-Serif" font-size="10.00">tallyitem::tallyitem</text>
</a>
</g>
</g>
<!-- Node1&#45;&gt;Node38 -->
<g id="edge53" class="edge"><title>Node1&#45;&gt;Node38</title>
<path fill="none" stroke="midnightblue" d="M51.8585,-387.277C58.7694,-317.962 85.1363,-86.8745 134,-34 140.883,-26.552 150.025,-21.3951 159.61,-17.8297"/>
<polygon fill="midnightblue" stroke="midnightblue" points="48.3691,-386.999 50.8847,-397.291 55.3362,-387.676 48.3691,-386.999"/>
</g>
<!-- Node39 -->
<g id="node39" class="node"><title>Node39</title>
<g id="a_node39"><a xlink:href="rpcwallet_8cpp.html#a74b85c92ee6a84277c73b74f2e212bff" target="_top" xlink:title="listtransactions">
<polygon fill="white" stroke="black" points="358.5,-151.5 358.5,-170.5 447.5,-170.5 447.5,-151.5 358.5,-151.5"/>
<text text-anchor="middle" x="403" y="-158.5" font-family="Helvetica,sans-Serif" font-size="10.00">listtransactions</text>
</a>
</g>
</g>
<!-- Node1&#45;&gt;Node39 -->
<g id="edge54" class="edge"><title>Node1&#45;&gt;Node39</title>
<path fill="none" stroke="midnightblue" d="M49.2023,-387.039C48.3943,-336.125 54.2169,-201.339 134,-143 168.584,-117.711 291.594,-137.999 358.273,-151.465"/>
<polygon fill="midnightblue" stroke="midnightblue" points="45.7115,-387.432 49.48,-397.334 52.709,-387.244 45.7115,-387.432"/>
</g>
<!-- Node40 -->
<g id="node40" class="node"><title>Node40</title>
<g id="a_node40"><a xlink:href="rpcwallet_8cpp.html#a151535abf7394b299deb8d0a333de70b" target="_top" xlink:title="rescanblockchain">
<polygon fill="white" stroke="black" points="163,-76.5 163,-95.5 262,-95.5 262,-76.5 163,-76.5"/>
<text text-anchor="middle" x="212.5" y="-83.5" font-family="Helvetica,sans-Serif" font-size="10.00">rescanblockchain</text>
</a>
</g>
</g>
<!-- Node1&#45;&gt;Node40 -->
<g id="edge58" class="edge"><title>Node1&#45;&gt;Node40</title>
<path fill="none" stroke="midnightblue" d="M49.5406,-387.138C49.4364,-334.376 56.5948,-189.34 134,-110 141.771,-102.035 152.126,-96.7008 162.73,-93.1316"/>
<polygon fill="midnightblue" stroke="midnightblue" points="46.0445,-387.499 49.6616,-397.458 53.044,-387.417 46.0445,-387.499"/>
</g>
<!-- Node4 -->
<g id="node4" class="node"><title>Node4</title>
<g id="a_node4"><a xlink:href="class_getinfo_request_handler.html#abc5063d93d13b72549c56082aaf607a5" target="_top" xlink:title="Collect values from the batch and form a simulated getinfo reply. ">
<polygon fill="white" stroke="black" points="339.5,-813 339.5,-843 466.5,-843 466.5,-813 339.5,-813"/>
<text text-anchor="start" x="347.5" y="-831" font-family="Helvetica,sans-Serif" font-size="10.00">GetinfoRequestHandler</text>
<text text-anchor="middle" x="403" y="-820" font-family="Helvetica,sans-Serif" font-size="10.00">::ProcessReply</text>
</a>
</g>
</g>
<!-- Node3&#45;&gt;Node4 -->
<g id="edge3" class="edge"><title>Node3&#45;&gt;Node4</title>
<path fill="none" stroke="midnightblue" d="M264.332,-795.865C287.415,-801.253 314.943,-807.679 339.296,-813.363"/>
<polygon fill="midnightblue" stroke="midnightblue" points="264.936,-792.412 254.402,-793.547 263.344,-799.229 264.936,-792.412"/>
</g>
<!-- Node6 -->
<g id="node6" class="node"><title>Node6</title>
<g id="a_node6"><a xlink:href="class_r_p_c_executor.html#a8cb99abccb018dc52777223241f4525e" target="_top" xlink:title="RPCExecutor::RPCExecutor">
<polygon fill="white" stroke="black" points="331,-736.5 331,-755.5 475,-755.5 475,-736.5 331,-736.5"/>
<text text-anchor="middle" x="403" y="-743.5" font-family="Helvetica,sans-Serif" font-size="10.00">RPCExecutor::RPCExecutor</text>
</a>
</g>
</g>
<!-- Node5&#45;&gt;Node6 -->
<g id="edge5" class="edge"><title>Node5&#45;&gt;Node6</title>
<path fill="none" stroke="midnightblue" d="M282.761,-746C298.434,-746 315.1,-746 330.849,-746"/>
<polygon fill="midnightblue" stroke="midnightblue" points="282.625,-742.5 272.625,-746 282.625,-749.5 282.625,-742.5"/>
</g>
<!-- Node7 -->
<g id="node7" class="node"><title>Node7</title>
<g id="a_node7"><a xlink:href="class_r_p_c_console.html#ac6250045ef6f8bd5e5fece3e478e141d" target="_top" xlink:title="RPCConsole::startExecutor">
<polygon fill="white" stroke="black" points="331,-774.5 331,-793.5 475,-793.5 475,-774.5 331,-774.5"/>
<text text-anchor="middle" x="403" y="-781.5" font-family="Helvetica,sans-Serif" font-size="10.00">RPCConsole::startExecutor</text>
</a>
</g>
</g>
<!-- Node5&#45;&gt;Node7 -->
<g id="edge6" class="edge"><title>Node5&#45;&gt;Node7</title>
<path fill="none" stroke="midnightblue" d="M271.089,-757.61C297.898,-763.014 329.395,-769.364 354.776,-774.48"/>
<polygon fill="midnightblue" stroke="midnightblue" points="271.561,-754.134 261.067,-755.589 270.178,-760.996 271.561,-754.134"/>
</g>
<!-- Node8 -->
<g id="node8" class="node"><title>Node8</title>
<g id="a_node8"><a xlink:href="class_r_p_c_console.html#a355349a33664a07628e9ca22a60f5fa7" target="_top" xlink:title="RPCConsole::setClientModel">
<polygon fill="white" stroke="black" points="515,-774.5 515,-793.5 665,-793.5 665,-774.5 515,-774.5"/>
<text text-anchor="middle" x="590" y="-781.5" font-family="Helvetica,sans-Serif" font-size="10.00">RPCConsole::setClientModel</text>
</a>
</g>
</g>
<!-- Node7&#45;&gt;Node8 -->
<g id="edge7" class="edge"><title>Node7&#45;&gt;Node8</title>
<path fill="none" stroke="midnightblue" d="M485.357,-784C495.122,-784 505.055,-784 514.712,-784"/>
<polygon fill="midnightblue" stroke="midnightblue" points="485.261,-780.5 475.261,-784 485.261,-787.5 485.261,-780.5"/>
</g>
<!-- Node9 -->
<g id="node9" class="node"><title>Node9</title>
<g id="a_node9"><a xlink:href="class_bitcoin_g_u_i.html#a99d71e1f8478ab937ce2522c8d3815e3" target="_top" xlink:title="Set the client model. ">
<polygon fill="white" stroke="black" points="701,-774.5 701,-793.5 844,-793.5 844,-774.5 701,-774.5"/>
<text text-anchor="middle" x="772.5" y="-781.5" font-family="Helvetica,sans-Serif" font-size="10.00">BitcoinGUI::setClientModel</text>
</a>
</g>
</g>
<!-- Node8&#45;&gt;Node9 -->
<g id="edge8" class="edge"><title>Node8&#45;&gt;Node9</title>
<path fill="none" stroke="midnightblue" d="M675.475,-784C683.944,-784 692.482,-784 700.787,-784"/>
<polygon fill="midnightblue" stroke="midnightblue" points="675.198,-780.5 665.198,-784 675.198,-787.5 675.198,-780.5"/>
</g>
<!-- Node10 -->
<g id="node10" class="node"><title>Node10</title>
<g id="a_node10"><a xlink:href="class_bitcoin_application.html#a37c560d4c04d14a6da151b82caf8888f" target="_top" xlink:title="Request core shutdown. ">
<polygon fill="white" stroke="black" points="1154,-791 1154,-821 1261,-821 1261,-791 1154,-791"/>
<text text-anchor="start" x="1162" y="-809" font-family="Helvetica,sans-Serif" font-size="10.00">BitcoinApplication</text>
<text text-anchor="middle" x="1207.5" y="-798" font-family="Helvetica,sans-Serif" font-size="10.00">::requestShutdown</text>
</a>
</g>
</g>
<!-- Node9&#45;&gt;Node10 -->
<g id="edge9" class="edge"><title>Node9&#45;&gt;Node10</title>
<path fill="none" stroke="midnightblue" d="M854.192,-788.1C941.75,-792.549 1079.02,-799.523 1153.73,-803.319"/>
<polygon fill="midnightblue" stroke="midnightblue" points="854.197,-784.596 844.033,-787.584 853.842,-791.587 854.197,-784.596"/>
</g>
<!-- Node12 -->
<g id="node12" class="node"><title>Node12</title>
<g id="a_node12"><a xlink:href="class_bitcoin_application.html#a5bcf1bf32a7508326e0dd630a59a887d" target="_top" xlink:title="BitcoinApplication\l::initializeResult">
<polygon fill="white" stroke="black" points="880,-747 880,-777 981,-777 981,-747 880,-747"/>
<text text-anchor="start" x="888" y="-765" font-family="Helvetica,sans-Serif" font-size="10.00">BitcoinApplication</text>
<text text-anchor="middle" x="930.5" y="-754" font-family="Helvetica,sans-Serif" font-size="10.00">::initializeResult</text>
</a>
</g>
</g>
<!-- Node9&#45;&gt;Node12 -->
<g id="edge11" class="edge"><title>Node9&#45;&gt;Node12</title>
<path fill="none" stroke="midnightblue" d="M851.133,-773.052C860.868,-771.679 870.61,-770.305 879.754,-769.016"/>
<polygon fill="midnightblue" stroke="midnightblue" points="850.43,-769.616 841.017,-774.478 851.407,-776.548 850.43,-769.616"/>
</g>
<!-- Node11 -->
<g id="node11" class="node"><title>Node11</title>
<g id="a_node11"><a xlink:href="bitcoin_8cpp.html#a0ddf1224851353fc92bfbff6f499fa97" target="_top" xlink:title="main">
<polygon fill="white" stroke="black" points="1297,-771.5 1297,-790.5 1338,-790.5 1338,-771.5 1297,-771.5"/>
<text text-anchor="middle" x="1317.5" y="-778.5" font-family="Helvetica,sans-Serif" font-size="10.00">main</text>
</a>
</g>
</g>
<!-- Node10&#45;&gt;Node11 -->
<g id="edge10" class="edge"><title>Node10&#45;&gt;Node11</title>
<path fill="none" stroke="midnightblue" d="M1271.06,-791.518C1280.42,-789.353 1289.42,-787.269 1296.91,-785.535"/>
<polygon fill="midnightblue" stroke="midnightblue" points="1270.19,-788.128 1261.23,-793.793 1271.77,-794.948 1270.19,-788.128"/>
</g>
<!-- Node13 -->
<g id="node13" class="node"><title>Node13</title>
<g id="a_node13"><a xlink:href="class_bitcoin_application.html#a61afce9356e452c53ad4c83f5ca19df8" target="_top" xlink:title="BitcoinApplication\l::startThread">
<polygon fill="white" stroke="black" points="1017,-747 1017,-777 1118,-777 1118,-747 1017,-747"/>
<text text-anchor="start" x="1025" y="-765" font-family="Helvetica,sans-Serif" font-size="10.00">BitcoinApplication</text>
<text text-anchor="middle" x="1067.5" y="-754" font-family="Helvetica,sans-Serif" font-size="10.00">::startThread</text>
</a>
</g>
</g>
<!-- Node12&#45;&gt;Node13 -->
<g id="edge12" class="edge"><title>Node12&#45;&gt;Node13</title>
<path fill="none" stroke="midnightblue" d="M991.207,-762C999.67,-762 1008.3,-762 1016.55,-762"/>
<polygon fill="midnightblue" stroke="midnightblue" points="991.002,-758.5 981.002,-762 991.002,-765.5 991.002,-758.5"/>
</g>
<!-- Node13&#45;&gt;Node10 -->
<g id="edge15" class="edge"><title>Node13&#45;&gt;Node10</title>
<path fill="none" stroke="midnightblue" d="M1125.34,-780.121C1136.57,-783.704 1148.25,-787.429 1159.14,-790.899"/>
<polygon fill="midnightblue" stroke="midnightblue" points="1126.2,-776.722 1115.61,-777.019 1124.07,-783.392 1126.2,-776.722"/>
</g>
<!-- Node14 -->
<g id="node14" class="node"><title>Node14</title>
<g id="a_node14"><a xlink:href="class_bitcoin_application.html#ade19c44b87b00b6b19b433caf4c22ba6" target="_top" xlink:title="Request core initialization. ">
<polygon fill="white" stroke="black" points="1157,-742 1157,-772 1258,-772 1258,-742 1157,-742"/>
<text text-anchor="start" x="1165" y="-760" font-family="Helvetica,sans-Serif" font-size="10.00">BitcoinApplication</text>
<text text-anchor="middle" x="1207.5" y="-749" font-family="Helvetica,sans-Serif" font-size="10.00">::requestInitialize</text>
</a>
</g>
</g>
<!-- Node13&#45;&gt;Node14 -->
<g id="edge13" class="edge"><title>Node13&#45;&gt;Node14</title>
<path fill="none" stroke="midnightblue" d="M1128.45,-759.828C1137.89,-759.486 1147.57,-759.135 1156.75,-758.802"/>
<polygon fill="midnightblue" stroke="midnightblue" points="1128.19,-756.335 1118.32,-760.195 1128.44,-763.33 1128.19,-756.335"/>
</g>
<!-- Node14&#45;&gt;Node11 -->
<g id="edge14" class="edge"><title>Node14&#45;&gt;Node11</title>
<path fill="none" stroke="midnightblue" d="M1268.08,-770.241C1278.49,-772.552 1288.61,-774.802 1296.89,-776.642"/>
<polygon fill="midnightblue" stroke="midnightblue" points="1268.6,-766.769 1258.07,-768.017 1267.08,-773.603 1268.6,-766.769"/>
</g>
<!-- Node16 -->
<g id="node16" class="node"><title>Node16</title>
<g id="a_node16"><a xlink:href="init_8h.html#ac5f038c2b480cf9ef5e19e3eba8dbaf9" target="_top" xlink:title="Shutdown">
<polygon fill="white" stroke="black" points="371,-660.5 371,-679.5 435,-679.5 435,-660.5 371,-660.5"/>
<text text-anchor="middle" x="403" y="-667.5" font-family="Helvetica,sans-Serif" font-size="10.00">Shutdown</text>
</a>
</g>
</g>
<!-- Node15&#45;&gt;Node16 -->
<g id="edge17" class="edge"><title>Node15&#45;&gt;Node16</title>
<path fill="none" stroke="midnightblue" d="M270.999,-696.409C303.803,-689.796 343.65,-681.763 370.721,-676.306"/>
<polygon fill="midnightblue" stroke="midnightblue" points="270.178,-693.004 261.067,-698.411 271.561,-699.866 270.178,-693.004"/>
</g>
<!-- Node17 -->
<g id="node17" class="node"><title>Node17</title>
<g id="a_node17"><a xlink:href="init_8h.html#a50b568a1d0cbbcde470f678bbbd60ecf" target="_top" xlink:title="Bitcoin core main initialization. ">
<polygon fill="white" stroke="black" points="367,-698.5 367,-717.5 439,-717.5 439,-698.5 367,-698.5"/>
<text text-anchor="middle" x="403" y="-705.5" font-family="Helvetica,sans-Serif" font-size="10.00">AppInitMain</text>
</a>
</g>
</g>
<!-- Node15&#45;&gt;Node17 -->
<g id="edge18" class="edge"><title>Node15&#45;&gt;Node17</title>
<path fill="none" stroke="midnightblue" d="M285.357,-708C313.262,-708 343.947,-708 366.838,-708"/>
<polygon fill="midnightblue" stroke="midnightblue" points="285.222,-704.5 275.222,-708 285.222,-711.5 285.222,-704.5"/>
</g>
<!-- Node18&#45;&gt;Node18 -->
<g id="edge21" class="edge"><title>Node18&#45;&gt;Node18</title>
<path fill="none" stroke="midnightblue" d="M182.186,-670.275C183.05,-675.741 193.155,-680 212.5,-680 241.293,-680 249.616,-670.565 237.469,-661.757"/>
<polygon fill="midnightblue" stroke="midnightblue" points="185.18,-672.088 187.531,-661.757 179.251,-668.367 185.18,-672.088"/>
</g>
<!-- Node19 -->
<g id="node19" class="node"><title>Node19</title>
<g id="a_node19"><a xlink:href="struct_c_coin.html#a2a0a2532bdacb03b087b3b0a400830ec" target="_top" xlink:title="CCoin::SerializationOp">
<polygon fill="white" stroke="black" points="342,-604.5 342,-623.5 464,-623.5 464,-604.5 342,-604.5"/>
<text text-anchor="middle" x="403" y="-611.5" font-family="Helvetica,sans-Serif" font-size="10.00">CCoin::SerializationOp</text>
</a>
</g>
</g>
<!-- Node18&#45;&gt;Node19 -->
<g id="edge20" class="edge"><title>Node18&#45;&gt;Node19</title>
<path fill="none" stroke="midnightblue" d="M270.645,-640.48C297.582,-635.05 329.331,-628.65 354.867,-623.502"/>
<polygon fill="midnightblue" stroke="midnightblue" points="269.691,-637.102 260.58,-642.509 271.075,-643.964 269.691,-637.102"/>
</g>
<!-- Node21&#45;&gt;Node22 -->
<g id="edge24" class="edge"><title>Node21&#45;&gt;Node22</title>
<path fill="none" stroke="midnightblue" d="M251.334,-485.813C283.838,-489.09 330.506,-493.794 363.268,-497.096"/>
<polygon fill="midnightblue" stroke="midnightblue" points="251.614,-482.324 241.314,-484.804 250.912,-489.289 251.614,-482.324"/>
</g>
<!-- Node23&#45;&gt;Node19 -->
<g id="edge26" class="edge"><title>Node23&#45;&gt;Node19</title>
<path fill="none" stroke="midnightblue" d="M279.183,-602.272C299.575,-604.219 321.938,-606.355 341.928,-608.264"/>
<polygon fill="midnightblue" stroke="midnightblue" points="279.324,-598.77 269.037,-601.303 278.659,-605.738 279.324,-598.77"/>
</g>
<!-- Node23&#45;&gt;Node23 -->
<g id="edge27" class="edge"><title>Node23&#45;&gt;Node23</title>
<path fill="none" stroke="midnightblue" d="M182.186,-614.275C183.05,-619.741 193.155,-624 212.5,-624 241.293,-624 249.616,-614.565 237.469,-605.757"/>
<polygon fill="midnightblue" stroke="midnightblue" points="185.18,-616.088 187.531,-605.757 179.251,-612.367 185.18,-616.088"/>
</g>
<!-- Node24&#45;&gt;Node24 -->
<g id="edge29" class="edge"><title>Node24&#45;&gt;Node24</title>
<path fill="none" stroke="midnightblue" d="M182.186,-444.275C183.05,-449.741 193.155,-454 212.5,-454 241.293,-454 249.616,-444.565 237.469,-435.757"/>
<polygon fill="midnightblue" stroke="midnightblue" points="185.18,-446.088 187.531,-435.757 179.251,-442.367 185.18,-446.088"/>
</g>
<!-- Node26 -->
<g id="node26" class="node"><title>Node26</title>
<g id="a_node26"><a xlink:href="classsubmitblock___state_catcher.html#a89abec4d0d8ea6b2cd651439e3a4f45f" target="_top" xlink:title="Notifies listeners of a block validation result. ">
<polygon fill="white" stroke="black" points="331.5,-329 331.5,-359 474.5,-359 474.5,-329 331.5,-329"/>
<text text-anchor="start" x="339.5" y="-347" font-family="Helvetica,sans-Serif" font-size="10.00">submitblock_StateCatcher</text>
<text text-anchor="middle" x="403" y="-336" font-family="Helvetica,sans-Serif" font-size="10.00">::BlockChecked</text>
</a>
</g>
</g>
<!-- Node25&#45;&gt;Node26 -->
<g id="edge32" class="edge"><title>Node25&#45;&gt;Node26</title>
<path fill="none" stroke="midnightblue" d="M277.533,-347.962C294.88,-347.41 313.754,-346.809 331.438,-346.246"/>
<polygon fill="midnightblue" stroke="midnightblue" points="277.4,-344.464 267.517,-348.281 277.623,-351.461 277.4,-344.464"/>
</g>
<!-- Node25&#45;&gt;Node27 -->
<g id="edge33" class="edge"><title>Node25&#45;&gt;Node27</title>
<path fill="none" stroke="midnightblue" d="M271.089,-361.61C297.898,-367.014 329.395,-373.364 354.776,-378.48"/>
<polygon fill="midnightblue" stroke="midnightblue" points="271.561,-358.134 261.067,-359.589 270.178,-364.996 271.561,-358.134"/>
</g>
<!-- Node25&#45;&gt;Node28 -->
<g id="edge34" class="edge"><title>Node25&#45;&gt;Node28</title>
<path fill="none" stroke="midnightblue" d="M277.148,-338.748C282.049,-336.598 286.74,-334.041 291,-331 315.082,-313.81 302.984,-292.283 327,-275 335.613,-268.802 346.052,-264.62 356.371,-261.8"/>
<polygon fill="midnightblue" stroke="midnightblue" points="275.629,-335.581 267.521,-342.401 278.112,-342.126 275.629,-335.581"/>
</g>
<!-- Node30 -->
<g id="node30" class="node"><title>Node30</title>
<g id="a_node30"><a xlink:href="rpcwallet_8h.html#a7c13054932c9e3b351bd6277fa9361d7" target="_top" xlink:title="signrawtransactionwithwallet">
<polygon fill="white" stroke="black" points="327,-284.5 327,-303.5 479,-303.5 479,-284.5 327,-284.5"/>
<text text-anchor="middle" x="403" y="-291.5" font-family="Helvetica,sans-Serif" font-size="10.00">signrawtransactionwithwallet</text>
</a>
</g>
</g>
<!-- Node25&#45;&gt;Node30 -->
<g id="edge36" class="edge"><title>Node25&#45;&gt;Node30</title>
<path fill="none" stroke="midnightblue" d="M264.844,-338.036C273.603,-335.817 282.587,-333.429 291,-331 320.079,-322.604 352.911,-311.447 375.276,-303.588"/>
<polygon fill="midnightblue" stroke="midnightblue" points="263.951,-334.651 255.092,-340.463 265.642,-341.444 263.951,-334.651"/>
</g>
<!-- Node29 -->
<g id="node29" class="node"><title>Node29</title>
<g id="a_node29"><a xlink:href="rpcwallet_8cpp.html#afca55ac7a3c6c274b8b7b3e6eab9cd86" target="_top" xlink:title="walletcreatefundedpsbt">
<polygon fill="white" stroke="black" points="526,-170.5 526,-189.5 654,-189.5 654,-170.5 526,-170.5"/>
<text text-anchor="middle" x="590" y="-177.5" font-family="Helvetica,sans-Serif" font-size="10.00">walletcreatefundedpsbt</text>
</a>
</g>
</g>
<!-- Node28&#45;&gt;Node29 -->
<g id="edge35" class="edge"><title>Node28&#45;&gt;Node29</title>
<path fill="none" stroke="midnightblue" d="M436.792,-242.529C473.839,-227.309 533.197,-202.924 565.76,-189.547"/>
<polygon fill="midnightblue" stroke="midnightblue" points="435.35,-239.337 427.43,-246.375 438.01,-245.812 435.35,-239.337"/>
</g>
<!-- Node30&#45;&gt;Node29 -->
<g id="edge39" class="edge"><title>Node30&#45;&gt;Node29</title>
<path fill="none" stroke="midnightblue" d="M464.77,-281.23C469.693,-279.411 474.499,-277.345 479,-275 490.357,-269.084 552.871,-212.814 578.268,-189.769"/>
<polygon fill="midnightblue" stroke="midnightblue" points="463.58,-277.938 455.209,-284.432 465.803,-284.575 463.58,-277.938"/>
</g>
<!-- Node31 -->
<g id="node31" class="node"><title>Node31</title>
<g id="a_node31"><a xlink:href="rawtransaction_8cpp.html#a5b2abfea4548c97e780cfae39f9ac11b" target="_top" xlink:title="signrawtransaction">
<polygon fill="white" stroke="black" points="536.5,-256.5 536.5,-275.5 643.5,-275.5 643.5,-256.5 536.5,-256.5"/>
<text text-anchor="middle" x="590" y="-263.5" font-family="Helvetica,sans-Serif" font-size="10.00">signrawtransaction</text>
</a>
</g>
</g>
<!-- Node30&#45;&gt;Node31 -->
<g id="edge37" class="edge"><title>Node30&#45;&gt;Node31</title>
<path fill="none" stroke="midnightblue" d="M476.848,-282.974C496.745,-279.963 517.914,-276.759 536.439,-273.955"/>
<polygon fill="midnightblue" stroke="midnightblue" points="476.254,-279.524 466.891,-284.481 477.302,-286.445 476.254,-279.524"/>
</g>
<!-- Node32 -->
<g id="node32" class="node"><title>Node32</title>
<g id="a_node32"><a xlink:href="rawtransaction_8cpp.html#a6b6a0c0d5bd5b55553ea48b3da2e796c" target="_top" xlink:title="converttopsbt">
<polygon fill="white" stroke="black" points="731,-180.5 731,-199.5 814,-199.5 814,-180.5 731,-180.5"/>
<text text-anchor="middle" x="772.5" y="-187.5" font-family="Helvetica,sans-Serif" font-size="10.00">converttopsbt</text>
</a>
</g>
</g>
<!-- Node31&#45;&gt;Node32 -->
<g id="edge38" class="edge"><title>Node31&#45;&gt;Node32</title>
<path fill="none" stroke="midnightblue" d="M623.457,-252.334C659.632,-237.102 717.19,-212.867 748.825,-199.547"/>
<polygon fill="midnightblue" stroke="midnightblue" points="621.719,-249.268 613.86,-256.375 624.435,-255.72 621.719,-249.268"/>
</g>
<!-- Node33&#45;&gt;Node33 -->
<g id="edge41" class="edge"><title>Node33&#45;&gt;Node33</title>
<path fill="none" stroke="midnightblue" d="M182.186,-180.275C183.05,-185.741 193.155,-190 212.5,-190 241.293,-190 249.616,-180.565 237.469,-171.757"/>
<polygon fill="midnightblue" stroke="midnightblue" points="185.18,-182.088 187.531,-171.757 179.251,-178.367 185.18,-182.088"/>
</g>
<!-- Node33&#45;&gt;Node34 -->
<g id="edge42" class="edge"><title>Node33&#45;&gt;Node34</title>
<path fill="none" stroke="midnightblue" d="M268.033,-172.704C302.252,-179.421 345.02,-187.816 372.899,-193.288"/>
<polygon fill="midnightblue" stroke="midnightblue" points="268.659,-169.26 258.172,-170.768 267.31,-176.129 268.659,-169.26"/>
</g>
<!-- Node34&#45;&gt;Node29 -->
<g id="edge43" class="edge"><title>Node34&#45;&gt;Node29</title>
<path fill="none" stroke="midnightblue" d="M443.429,-194.95C467.354,-192.493 498.437,-189.301 525.735,-186.498"/>
<polygon fill="midnightblue" stroke="midnightblue" points="442.904,-191.486 433.314,-195.989 443.619,-198.449 442.904,-191.486"/>
</g>
<!-- Node35&#45;&gt;Node29 -->
<g id="edge48" class="edge"><title>Node35&#45;&gt;Node29</title>
<path fill="none" stroke="midnightblue" d="M430.658,-81.3978C445.092,-89.3263 463.162,-99.467 479,-109 513.859,-129.982 553.749,-156.334 574.593,-170.289"/>
<polygon fill="midnightblue" stroke="midnightblue" points="432.211,-78.2583 421.758,-76.5357 428.856,-84.4015 432.211,-78.2583"/>
</g>
<!-- Node35&#45;&gt;Node35 -->
<g id="edge45" class="edge"><title>Node35&#45;&gt;Node35</title>
<path fill="none" stroke="midnightblue" d="M368.143,-84.8913C368.653,-90.5406 380.272,-95 403,-95 436.059,-95 445.615,-85.5653 431.668,-76.7571"/>
<polygon fill="midnightblue" stroke="midnightblue" points="371.062,-86.8346 374.332,-76.7571 365.491,-82.5958 371.062,-86.8346"/>
</g>
<!-- Node36 -->
<g id="node36" class="node"><title>Node36</title>
<g id="a_node36"><a xlink:href="rawtransaction_8cpp.html#ab96b0b3cf82a8f50975ee74c26c4dbf8" target="_top" xlink:title="createpsbt">
<polygon fill="white" stroke="black" points="556,-85.5 556,-104.5 624,-104.5 624,-85.5 556,-85.5"/>
<text text-anchor="middle" x="590" y="-92.5" font-family="Helvetica,sans-Serif" font-size="10.00">createpsbt</text>
</a>
</g>
</g>
<!-- Node35&#45;&gt;Node36 -->
<g id="edge46" class="edge"><title>Node35&#45;&gt;Node36</title>
<path fill="none" stroke="midnightblue" d="M471.506,-77.2171C500.199,-81.5598 532.361,-86.4276 555.772,-89.9709"/>
<polygon fill="midnightblue" stroke="midnightblue" points="471.932,-73.7419 461.521,-75.7059 470.885,-80.663 471.932,-73.7419"/>
</g>
<!-- Node36&#45;&gt;Node32 -->
<g id="edge47" class="edge"><title>Node36&#45;&gt;Node32</title>
<path fill="none" stroke="midnightblue" d="M618.604,-109.528C656.005,-129.213 721.736,-163.809 753.419,-180.484"/>
<polygon fill="midnightblue" stroke="midnightblue" points="619.78,-106.192 609.301,-104.632 616.52,-112.387 619.78,-106.192"/>
</g>
<!-- Node37&#45;&gt;Node30 -->
<g id="edge51" class="edge"><title>Node37&#45;&gt;Node30</title>
<path fill="none" stroke="midnightblue" d="M268.739,-294C286.861,-294 307.32,-294 326.669,-294"/>
<polygon fill="midnightblue" stroke="midnightblue" points="268.65,-290.5 258.65,-294 268.65,-297.5 268.65,-290.5"/>
</g>
<!-- Node37&#45;&gt;Node37 -->
<g id="edge50" class="edge"><title>Node37&#45;&gt;Node37</title>
<path fill="none" stroke="midnightblue" d="M182.186,-312.275C183.05,-317.741 193.155,-322 212.5,-322 241.293,-322 249.616,-312.565 237.469,-303.757"/>
<polygon fill="midnightblue" stroke="midnightblue" points="185.18,-314.088 187.531,-303.757 179.251,-310.367 185.18,-314.088"/>
</g>
<!-- Node39&#45;&gt;Node29 -->
<g id="edge55" class="edge"><title>Node39&#45;&gt;Node29</title>
<path fill="none" stroke="midnightblue" d="M457.985,-166.544C479.239,-168.727 503.795,-171.249 525.863,-173.516"/>
<polygon fill="midnightblue" stroke="midnightblue" points="458.148,-163.043 447.842,-165.503 457.432,-170.006 458.148,-163.043"/>
</g>
<!-- Node40&#45;&gt;Node29 -->
<g id="edge59" class="edge"><title>Node40&#45;&gt;Node29</title>
<path fill="none" stroke="midnightblue" d="M272.494,-96.2578C326.635,-106.187 408.842,-122.564 479,-142 508.596,-150.199 541.826,-162.058 563.941,-170.341"/>
<polygon fill="midnightblue" stroke="midnightblue" points="272.851,-92.7654 262.386,-94.4193 271.598,-99.6524 272.851,-92.7654"/>
</g>
</g>
</svg>
