<?xml version="1.0" encoding="UTF-8" standalone="no"?>
<!DOCTYPE svg PUBLIC "-//W3C//DTD SVG 1.1//EN"
 "http://www.w3.org/Graphics/SVG/1.1/DTD/svg11.dtd">
<!-- Generated by graphviz version 2.40.1 (20161225.0304)
 -->
<!-- Title: Secp256k1Init::Secp256k1Init Pages: 1 -->
<svg width="444pt" height="104pt"
 viewBox="0.00 0.00 444.00 104.00" xmlns="http://www.w3.org/2000/svg" xmlns:xlink="http://www.w3.org/1999/xlink">
<g id="graph0" class="graph" transform="scale(1 1) rotate(0) translate(4 100)">
<title>Secp256k1Init::Secp256k1Init</title>
<polygon fill="#ffffff" stroke="transparent" points="-4,4 -4,-100 440,-100 440,4 -4,4"/>
<!-- Node0 -->
<g id="node1" class="node">
<title>Node0</title>
<polygon fill="#bfbfbf" stroke="#000000" points="0,-38.5 0,-57.5 147,-57.5 147,-38.5 0,-38.5"/>
<text text-anchor="middle" x="73.5" y="-45.5" font-family="Helvetica,sans-Serif" font-size="10.00" fill="#000000">Secp256k1Init::Secp256k1Init</text>
</g>
<!-- Node1 -->
<g id="node2" class="node">
<title>Node1</title>
<g id="a_node2"><a xlink:href="key_8cpp.html#ae4d2893f2f5af1cca247516578171860" target="_top" xlink:title="Initialize the elliptic curve support. ">
<polygon fill="#ffffff" stroke="#000000" points="183,-38.5 183,-57.5 248,-57.5 248,-38.5 183,-38.5"/>
<text text-anchor="middle" x="215.5" y="-45.5" font-family="Helvetica,sans-Serif" font-size="10.00" fill="#000000">ECC_Start</text>
</a>
</g>
</g>
<!-- Node0&#45;&gt;Node1 -->
<g id="edge1" class="edge">
<title>Node0&#45;&gt;Node1</title>
<path fill="none" stroke="#191970" d="M147.4114,-48C156.033,-48 164.5974,-48 172.5947,-48"/>
<polygon fill="#191970" stroke="#191970" points="172.7385,-51.5001 182.7385,-48 172.7384,-44.5001 172.7385,-51.5001"/>
</g>
<!-- Node2 -->
<g id="node3" class="node">
<title>Node2</title>
<g id="a_node3"><a xlink:href="secp256k1_8h.html#a769d478f352afbb55200e33970533a3c" target="_top" xlink:title="Create a secp256k1 context object. ">
<polygon fill="#ffffff" stroke="#000000" points="293,-76.5 293,-95.5 427,-95.5 427,-76.5 293,-76.5"/>
<text text-anchor="middle" x="360" y="-83.5" font-family="Helvetica,sans-Serif" font-size="10.00" fill="#000000">secp256k1_context_create</text>
</a>
</g>
</g>
<!-- Node1&#45;&gt;Node2 -->
<g id="edge2" class="edge">
<title>Node1&#45;&gt;Node2</title>
<path fill="none" stroke="#191970" d="M248.206,-57.2553C259.5257,-60.4098 272.3051,-63.9168 284,-67 292.6952,-69.2924 301.9684,-71.668 310.9411,-73.931"/>
<polygon fill="#191970" stroke="#191970" points="310.346,-77.3901 320.8971,-76.4277 312.0488,-70.6003 310.346,-77.3901"/>
</g>
<!-- Node3 -->
<g id="node4" class="node">
<title>Node3</title>
<g id="a_node4"><a xlink:href="random_8cpp.html#ada0c29949c4d1ac0cc027d93c4771423" target="_top" xlink:title="Functions to gather random data via the OpenSSL PRNG. ">
<polygon fill="#ffffff" stroke="#000000" points="319.5,-38.5 319.5,-57.5 400.5,-57.5 400.5,-38.5 319.5,-38.5"/>
<text text-anchor="middle" x="360" y="-45.5" font-family="Helvetica,sans-Serif" font-size="10.00" fill="#000000">GetRandBytes</text>
</a>
</g>
</g>
<!-- Node1&#45;&gt;Node3 -->
<g id="edge3" class="edge">
<title>Node1&#45;&gt;Node3</title>
<path fill="none" stroke="#191970" d="M248.2893,-48C266.3114,-48 289.0589,-48 309.3162,-48"/>
<polygon fill="#191970" stroke="#191970" points="309.3356,-51.5001 319.3356,-48 309.3355,-44.5001 309.3356,-51.5001"/>
</g>
<!-- Node4 -->
<g id="node5" class="node">
<title>Node4</title>
<g id="a_node5"><a xlink:href="secp256k1_8h.html#a1b81d70feb6ed24dc902cbbd5ba569e7" target="_top" xlink:title="Updates the context randomization to protect against side&#45;channel leakage. ">
<polygon fill="#ffffff" stroke="#000000" points="284,-.5 284,-19.5 436,-19.5 436,-.5 284,-.5"/>
<text text-anchor="middle" x="360" y="-7.5" font-family="Helvetica,sans-Serif" font-size="10.00" fill="#000000">secp256k1_context_randomize</text>
</a>
</g>
</g>
<!-- Node1&#45;&gt;Node4 -->
<g id="edge4" class="edge">
<title>Node1&#45;&gt;Node4</title>
<path fill="none" stroke="#191970" d="M248.206,-38.7447C259.5257,-35.5902 272.3051,-32.0832 284,-29 292.6952,-26.7076 301.9684,-24.332 310.9411,-22.069"/>
<polygon fill="#191970" stroke="#191970" points="312.0488,-25.3997 320.8971,-19.5723 310.346,-18.6099 312.0488,-25.3997"/>
</g>
</g>
</svg>
