<?xml version="1.0" encoding="UTF-8" standalone="no"?>
<!DOCTYPE svg PUBLIC "-//W3C//DTD SVG 1.1//EN"
 "http://www.w3.org/Graphics/SVG/1.1/DTD/svg11.dtd">
<!-- Generated by graphviz version 2.38.0 (20140413.2041)
 -->
<!-- Title: org.bitcoin.NativeSecp256k1.randomize Pages: 1 -->
<svg width="740pt" height="666pt"
 viewBox="0.00 0.00 740.00 665.50" xmlns="http://www.w3.org/2000/svg" xmlns:xlink="http://www.w3.org/1999/xlink">
<g id="graph0" class="graph" transform="scale(1 1) rotate(0) translate(4 661.5)">
<title>org.bitcoin.NativeSecp256k1.randomize</title>
<polygon fill="white" stroke="none" points="-4,4 -4,-661.5 736,-661.5 736,4 -4,4"/>
<!-- Node1 -->
<g id="node1" class="node"><title>Node1</title>
<polygon fill="#bfbfbf" stroke="black" points="0,-313.5 0,-332.5 208,-332.5 208,-313.5 0,-313.5"/>
<text text-anchor="middle" x="104" y="-320.5" font-family="Helvetica,sans-Serif" font-size="10.00">org.bitcoin.NativeSecp256k1.randomize</text>
</g>
<!-- Node2 -->
<g id="node2" class="node"><title>Node2</title>
<g id="a_node2"><a xlink:href="classorg_1_1bitcoin_1_1_native_secp256k1.html#af6e43c0c4bb7382eceab25a50d8f7763" target="_top" xlink:title="org.bitcoin.NativeSecp256k1.secp256k1\l_context_randomize">
<polygon fill="white" stroke="black" points="258,-627 258,-657 467,-657 467,-627 258,-627"/>
<text text-anchor="start" x="266" y="-645" font-family="Helvetica,sans-Serif" font-size="10.00">org.bitcoin.NativeSecp256k1.secp256k1</text>
<text text-anchor="middle" x="362.5" y="-634" font-family="Helvetica,sans-Serif" font-size="10.00">_context_randomize</text>
</a>
</g>
</g>
<!-- Node1&#45;&gt;Node2 -->
<g id="edge1" class="edge"><title>Node1&#45;&gt;Node2</title>
<path fill="none" stroke="midnightblue" d="M106.385,-332.554C112.932,-374.043 144.725,-539.997 244,-618 245.627,-619.278 247.305,-620.494 249.027,-621.649"/>
<polygon fill="midnightblue" stroke="midnightblue" points="247.587,-624.863 257.977,-626.937 251.148,-618.837 247.587,-624.863"/>
</g>
<!-- Node3 -->
<g id="node3" class="node"><title>Node3</title>
<g id="a_node3"><a xlink:href="classorg_1_1bitcoin_1_1_secp256k1_context.html#a46e8cc0f7925f60a29c11c2f4f407de9" target="_top" xlink:title="org.bitcoin.Secp256k1Context.get\lContext">
<polygon fill="white" stroke="black" points="273,-578 273,-608 452,-608 452,-578 273,-578"/>
<text text-anchor="start" x="281" y="-596" font-family="Helvetica,sans-Serif" font-size="10.00">org.bitcoin.Secp256k1Context.get</text>
<text text-anchor="middle" x="362.5" y="-585" font-family="Helvetica,sans-Serif" font-size="10.00">Context</text>
</a>
</g>
</g>
<!-- Node1&#45;&gt;Node3 -->
<g id="edge2" class="edge"><title>Node1&#45;&gt;Node3</title>
<path fill="none" stroke="midnightblue" d="M107.361,-332.713C116.983,-370.084 156.931,-505.653 244,-569 249.961,-573.337 256.521,-576.933 263.4,-579.911"/>
<polygon fill="midnightblue" stroke="midnightblue" points="262.362,-583.262 272.951,-583.6 264.883,-576.732 262.362,-583.262"/>
</g>
<!-- Node5 -->
<g id="node5" class="node"><title>Node5</title>
<g id="a_node5"><a xlink:href="classorg_1_1bitcoin_1_1_native_secp256k1.html#a72350e18131068d74ad91800f888c5fd" target="_top" xlink:title="org.bitcoin.NativeSecp256k1.secp256k1\l_ctx_clone">
<polygon fill="white" stroke="black" points="258,-529 258,-559 467,-559 467,-529 258,-529"/>
<text text-anchor="start" x="266" y="-547" font-family="Helvetica,sans-Serif" font-size="10.00">org.bitcoin.NativeSecp256k1.secp256k1</text>
<text text-anchor="middle" x="362.5" y="-536" font-family="Helvetica,sans-Serif" font-size="10.00">_ctx_clone</text>
</a>
</g>
</g>
<!-- Node1&#45;&gt;Node5 -->
<g id="edge4" class="edge"><title>Node1&#45;&gt;Node5</title>
<path fill="none" stroke="midnightblue" d="M108.757,-332.752C121.829,-365.277 168.669,-470.763 244,-520 246.451,-521.602 248.987,-523.1 251.592,-524.501"/>
<polygon fill="midnightblue" stroke="midnightblue" points="250.161,-527.697 260.687,-528.901 253.209,-521.396 250.161,-527.697"/>
</g>
<!-- Node6 -->
<g id="node6" class="node"><title>Node6</title>
<g id="a_node6"><a xlink:href="classorg_1_1bitcoin_1_1_native_secp256k1.html#a109cb3d8757b9acd59aa896a7660c416" target="_top" xlink:title="org.bitcoin.NativeSecp256k1.secp256k1\l_privkey_tweak_add">
<polygon fill="white" stroke="black" points="258,-480 258,-510 467,-510 467,-480 258,-480"/>
<text text-anchor="start" x="266" y="-498" font-family="Helvetica,sans-Serif" font-size="10.00">org.bitcoin.NativeSecp256k1.secp256k1</text>
<text text-anchor="middle" x="362.5" y="-487" font-family="Helvetica,sans-Serif" font-size="10.00">_privkey_tweak_add</text>
</a>
</g>
</g>
<!-- Node1&#45;&gt;Node6 -->
<g id="edge5" class="edge"><title>Node1&#45;&gt;Node6</title>
<path fill="none" stroke="midnightblue" d="M110.83,-332.503C127.733,-359.17 179.671,-435.092 244,-471 247.284,-472.833 250.689,-474.527 254.182,-476.092"/>
<polygon fill="midnightblue" stroke="midnightblue" points="253.031,-479.402 263.612,-479.942 255.677,-472.922 253.031,-479.402"/>
</g>
<!-- Node7 -->
<g id="node7" class="node"><title>Node7</title>
<g id="a_node7"><a xlink:href="classorg_1_1bitcoin_1_1_native_secp256k1.html#a7408cb8d623ca7592022298baa0df680" target="_top" xlink:title="org.bitcoin.NativeSecp256k1.secp256k1\l_privkey_tweak_mul">
<polygon fill="white" stroke="black" points="258,-431 258,-461 467,-461 467,-431 258,-431"/>
<text text-anchor="start" x="266" y="-449" font-family="Helvetica,sans-Serif" font-size="10.00">org.bitcoin.NativeSecp256k1.secp256k1</text>
<text text-anchor="middle" x="362.5" y="-438" font-family="Helvetica,sans-Serif" font-size="10.00">_privkey_tweak_mul</text>
</a>
</g>
</g>
<!-- Node1&#45;&gt;Node7 -->
<g id="edge6" class="edge"><title>Node1&#45;&gt;Node7</title>
<path fill="none" stroke="midnightblue" d="M115.217,-332.643C137.016,-352.646 190.476,-398.725 244,-422 248.952,-424.154 254.107,-426.117 259.373,-427.907"/>
<polygon fill="midnightblue" stroke="midnightblue" points="258.361,-431.258 268.951,-430.945 260.477,-424.585 258.361,-431.258"/>
</g>
<!-- Node8 -->
<g id="node8" class="node"><title>Node8</title>
<g id="a_node8"><a xlink:href="classorg_1_1bitcoin_1_1_native_secp256k1.html#a778dc6981ab7719596a2d752358c9ef6" target="_top" xlink:title="org.bitcoin.NativeSecp256k1.secp256k1\l_pubkey_tweak_add">
<polygon fill="white" stroke="black" points="258,-382 258,-412 467,-412 467,-382 258,-382"/>
<text text-anchor="start" x="266" y="-400" font-family="Helvetica,sans-Serif" font-size="10.00">org.bitcoin.NativeSecp256k1.secp256k1</text>
<text text-anchor="middle" x="362.5" y="-389" font-family="Helvetica,sans-Serif" font-size="10.00">_pubkey_tweak_add</text>
</a>
</g>
</g>
<!-- Node1&#45;&gt;Node8 -->
<g id="edge7" class="edge"><title>Node1&#45;&gt;Node8</title>
<path fill="none" stroke="midnightblue" d="M128.276,-332.539C155.617,-343.469 202.515,-361.367 244,-373 252.539,-375.394 261.489,-377.656 270.477,-379.764"/>
<polygon fill="midnightblue" stroke="midnightblue" points="269.7,-383.176 280.228,-381.989 271.257,-376.352 269.7,-383.176"/>
</g>
<!-- Node9 -->
<g id="node9" class="node"><title>Node9</title>
<g id="a_node9"><a xlink:href="classorg_1_1bitcoin_1_1_native_secp256k1.html#a56a4fb44da209ef736053fa28be5f95b" target="_top" xlink:title="org.bitcoin.NativeSecp256k1.secp256k1\l_pubkey_tweak_mul">
<polygon fill="white" stroke="black" points="258,-333 258,-363 467,-363 467,-333 258,-333"/>
<text text-anchor="start" x="266" y="-351" font-family="Helvetica,sans-Serif" font-size="10.00">org.bitcoin.NativeSecp256k1.secp256k1</text>
<text text-anchor="middle" x="362.5" y="-340" font-family="Helvetica,sans-Serif" font-size="10.00">_pubkey_tweak_mul</text>
</a>
</g>
</g>
<!-- Node1&#45;&gt;Node9 -->
<g id="edge8" class="edge"><title>Node1&#45;&gt;Node9</title>
<path fill="none" stroke="midnightblue" d="M202.703,-332.523C217.312,-333.947 232.483,-335.425 247.395,-336.879"/>
<polygon fill="midnightblue" stroke="midnightblue" points="247.375,-340.393 257.667,-337.88 248.054,-333.426 247.375,-340.393"/>
</g>
<!-- Node10 -->
<g id="node10" class="node"><title>Node10</title>
<g id="a_node10"><a xlink:href="classorg_1_1bitcoin_1_1_native_secp256k1.html#ac7e2f88f82296c2fdac58594a5db2a60" target="_top" xlink:title="org.bitcoin.NativeSecp256k1.secp256k1\l_destroy_context">
<polygon fill="white" stroke="black" points="258,-284 258,-314 467,-314 467,-284 258,-284"/>
<text text-anchor="start" x="266" y="-302" font-family="Helvetica,sans-Serif" font-size="10.00">org.bitcoin.NativeSecp256k1.secp256k1</text>
<text text-anchor="middle" x="362.5" y="-291" font-family="Helvetica,sans-Serif" font-size="10.00">_destroy_context</text>
</a>
</g>
</g>
<!-- Node1&#45;&gt;Node10 -->
<g id="edge9" class="edge"><title>Node1&#45;&gt;Node10</title>
<path fill="none" stroke="midnightblue" d="M206.744,-313.48C220.119,-312.229 233.896,-310.94 247.459,-309.671"/>
<polygon fill="midnightblue" stroke="midnightblue" points="248.148,-313.121 257.778,-308.705 247.496,-306.152 248.148,-313.121"/>
</g>
<!-- Node11 -->
<g id="node11" class="node"><title>Node11</title>
<g id="a_node11"><a xlink:href="classorg_1_1bitcoin_1_1_native_secp256k1.html#a7386dd7bf32df7496d795bf1dc0fa3f7" target="_top" xlink:title="org.bitcoin.NativeSecp256k1.secp256k1\l_ecdsa_verify">
<polygon fill="white" stroke="black" points="258,-235 258,-265 467,-265 467,-235 258,-235"/>
<text text-anchor="start" x="266" y="-253" font-family="Helvetica,sans-Serif" font-size="10.00">org.bitcoin.NativeSecp256k1.secp256k1</text>
<text text-anchor="middle" x="362.5" y="-242" font-family="Helvetica,sans-Serif" font-size="10.00">_ecdsa_verify</text>
</a>
</g>
</g>
<!-- Node1&#45;&gt;Node11 -->
<g id="edge10" class="edge"><title>Node1&#45;&gt;Node11</title>
<path fill="none" stroke="midnightblue" d="M129.819,-313.392C157.402,-302.959 203.413,-286.28 244,-275 253.746,-272.292 264.016,-269.712 274.263,-267.31"/>
<polygon fill="midnightblue" stroke="midnightblue" points="275.097,-270.709 284.061,-265.063 273.532,-263.887 275.097,-270.709"/>
</g>
<!-- Node12 -->
<g id="node12" class="node"><title>Node12</title>
<g id="a_node12"><a xlink:href="classorg_1_1bitcoin_1_1_native_secp256k1.html#a4cbaaf6d5a7327c539fa4f17ab3a1f10" target="_top" xlink:title="org.bitcoin.NativeSecp256k1.secp256k1\l_ecdsa_sign">
<polygon fill="white" stroke="black" points="258,-186 258,-216 467,-216 467,-186 258,-186"/>
<text text-anchor="start" x="266" y="-204" font-family="Helvetica,sans-Serif" font-size="10.00">org.bitcoin.NativeSecp256k1.secp256k1</text>
<text text-anchor="middle" x="362.5" y="-193" font-family="Helvetica,sans-Serif" font-size="10.00">_ecdsa_sign</text>
</a>
</g>
</g>
<!-- Node1&#45;&gt;Node12 -->
<g id="edge11" class="edge"><title>Node1&#45;&gt;Node12</title>
<path fill="none" stroke="midnightblue" d="M115.608,-313.297C137.72,-293.623 191.091,-248.962 244,-226 249.838,-223.466 255.954,-221.181 262.199,-219.122"/>
<polygon fill="midnightblue" stroke="midnightblue" points="263.572,-222.361 272.096,-216.068 261.508,-215.672 263.572,-222.361"/>
</g>
<!-- Node13 -->
<g id="node13" class="node"><title>Node13</title>
<g id="a_node13"><a xlink:href="classorg_1_1bitcoin_1_1_native_secp256k1.html#af59bc23ead77186b10f587ffd5bb7336" target="_top" xlink:title="org.bitcoin.NativeSecp256k1.secp256k1\l_ec_seckey_verify">
<polygon fill="white" stroke="black" points="258,-137 258,-167 467,-167 467,-137 258,-137"/>
<text text-anchor="start" x="266" y="-155" font-family="Helvetica,sans-Serif" font-size="10.00">org.bitcoin.NativeSecp256k1.secp256k1</text>
<text text-anchor="middle" x="362.5" y="-144" font-family="Helvetica,sans-Serif" font-size="10.00">_ec_seckey_verify</text>
</a>
</g>
</g>
<!-- Node1&#45;&gt;Node13 -->
<g id="edge12" class="edge"><title>Node1&#45;&gt;Node13</title>
<path fill="none" stroke="midnightblue" d="M111.126,-313.273C128.411,-286.704 180.461,-212.524 244,-177 247.999,-174.764 252.177,-172.728 256.474,-170.873"/>
<polygon fill="midnightblue" stroke="midnightblue" points="258.029,-174.023 266.047,-167.097 255.46,-167.511 258.029,-174.023"/>
</g>
<!-- Node14 -->
<g id="node14" class="node"><title>Node14</title>
<g id="a_node14"><a xlink:href="classorg_1_1bitcoin_1_1_native_secp256k1.html#aa8afd0f60ccbf6003706988d58a8d0b8" target="_top" xlink:title="org.bitcoin.NativeSecp256k1.secp256k1\l_ec_pubkey_create">
<polygon fill="white" stroke="black" points="258,-88 258,-118 467,-118 467,-88 258,-88"/>
<text text-anchor="start" x="266" y="-106" font-family="Helvetica,sans-Serif" font-size="10.00">org.bitcoin.NativeSecp256k1.secp256k1</text>
<text text-anchor="middle" x="362.5" y="-95" font-family="Helvetica,sans-Serif" font-size="10.00">_ec_pubkey_create</text>
</a>
</g>
</g>
<!-- Node1&#45;&gt;Node14 -->
<g id="edge13" class="edge"><title>Node1&#45;&gt;Node14</title>
<path fill="none" stroke="midnightblue" d="M108.803,-313.37C122.018,-281.245 169.261,-177.029 244,-128 247.15,-125.934 250.44,-124.035 253.835,-122.289"/>
<polygon fill="midnightblue" stroke="midnightblue" points="255.444,-125.401 263.044,-118.019 252.499,-119.051 255.444,-125.401"/>
</g>
<!-- Node15 -->
<g id="node15" class="node"><title>Node15</title>
<g id="a_node15"><a xlink:href="classorg_1_1bitcoin_1_1_native_secp256k1.html#a8f774e00db7ebf95487da94a1d6ee4a0" target="_top" xlink:title="org.bitcoin.NativeSecp256k1.secp256k1\l_ec_pubkey_parse">
<polygon fill="white" stroke="black" points="258,-39 258,-69 467,-69 467,-39 258,-39"/>
<text text-anchor="start" x="266" y="-57" font-family="Helvetica,sans-Serif" font-size="10.00">org.bitcoin.NativeSecp256k1.secp256k1</text>
<text text-anchor="middle" x="362.5" y="-46" font-family="Helvetica,sans-Serif" font-size="10.00">_ec_pubkey_parse</text>
</a>
</g>
</g>
<!-- Node1&#45;&gt;Node15 -->
<g id="edge14" class="edge"><title>Node1&#45;&gt;Node15</title>
<path fill="none" stroke="midnightblue" d="M107.403,-313.386C117.178,-276.392 157.614,-142.159 244,-79 246.569,-77.1219 249.249,-75.3788 252.018,-73.7614"/>
<polygon fill="midnightblue" stroke="midnightblue" points="253.883,-76.7361 261.135,-69.0119 250.649,-70.528 253.883,-76.7361"/>
</g>
<!-- Node16 -->
<g id="node16" class="node"><title>Node16</title>
<g id="a_node16"><a xlink:href="classorg_1_1bitcoin_1_1_native_secp256k1.html#ad97782d7540cc8c1b69e55dbb43620de" target="_top" xlink:title="org.bitcoin.NativeSecp256k1.secp256k1_ecdh">
<polygon fill="white" stroke="black" points="244,-0.5 244,-19.5 481,-19.5 481,-0.5 244,-0.5"/>
<text text-anchor="middle" x="362.5" y="-7.5" font-family="Helvetica,sans-Serif" font-size="10.00">org.bitcoin.NativeSecp256k1.secp256k1_ecdh</text>
</a>
</g>
</g>
<!-- Node1&#45;&gt;Node16 -->
<g id="edge15" class="edge"><title>Node1&#45;&gt;Node16</title>
<path fill="none" stroke="midnightblue" d="M106.344,-313.428C112.723,-271.873 143.914,-105.805 244,-30 246.849,-27.8419 249.849,-25.884 252.966,-24.1091"/>
<polygon fill="midnightblue" stroke="midnightblue" points="254.653,-27.179 262.033,-19.5773 251.523,-20.9176 254.653,-27.179"/>
</g>
<!-- Node4 -->
<g id="node4" class="node"><title>Node4</title>
<g id="a_node4"><a xlink:href="classorg_1_1bitcoin_1_1_secp256k1_context.html#a1af84f62cad555044726d34d6d515913" target="_top" xlink:title="org.bitcoin.Secp256k1Context.secp256k1\l_init_context">
<polygon fill="white" stroke="black" points="517,-578 517,-608 732,-608 732,-578 517,-578"/>
<text text-anchor="start" x="525" y="-596" font-family="Helvetica,sans-Serif" font-size="10.00">org.bitcoin.Secp256k1Context.secp256k1</text>
<text text-anchor="middle" x="624.5" y="-585" font-family="Helvetica,sans-Serif" font-size="10.00">_init_context</text>
</a>
</g>
</g>
<!-- Node3&#45;&gt;Node4 -->
<g id="edge3" class="edge"><title>Node3&#45;&gt;Node4</title>
<path fill="none" stroke="midnightblue" d="M452.25,-593C469.751,-593 488.366,-593 506.631,-593"/>
<polygon fill="midnightblue" stroke="midnightblue" points="506.733,-596.5 516.732,-593 506.732,-589.5 506.733,-596.5"/>
</g>
</g>
</svg>
