<?xml version="1.0" encoding="UTF-8" standalone="no"?>
<!DOCTYPE svg PUBLIC "-//W3C//DTD SVG 1.1//EN"
 "http://www.w3.org/Graphics/SVG/1.1/DTD/svg11.dtd">
<!-- Generated by graphviz version 2.49.3 (0)
 -->
<!-- Title: CWallet::GetOrCreateLegacyScriptPubKeyMan Pages: 1 -->
<svg width="836pt" height="148pt"
 viewBox="0.00 0.00 836.00 147.50" xmlns="http://www.w3.org/2000/svg" xmlns:xlink="http://www.w3.org/1999/xlink">
<g id="graph0" class="graph" transform="scale(1 1) rotate(0) translate(4 143.5)">
<title>CWallet::GetOrCreateLegacyScriptPubKeyMan</title>
<polygon fill="white" stroke="transparent" points="-4,4 -4,-143.5 832,-143.5 832,4 -4,4"/>
<!-- Node1 -->
<g id="node1" class="node">
<title>Node1</title>
<g id="a_node1"><a xlink:title=" ">
<polygon fill="#bfbfbf" stroke="black" points="673,-71 673,-101 828,-101 828,-71 673,-71"/>
<text text-anchor="start" x="681" y="-89" font-family="Helvetica,sans-Serif" font-size="10.00">CWallet::GetOrCreateLegacy</text>
<text text-anchor="middle" x="750.5" y="-78" font-family="Helvetica,sans-Serif" font-size="10.00">ScriptPubKeyMan</text>
</a>
</g>
</g>
<!-- Node2 -->
<g id="node2" class="node">
<title>Node2</title>
<g id="a_node2"><a xlink:href="class_wallet_batch.html#af17758ea2f62ca2d80def7ae780e81f8" target="_top" xlink:title=" ">
<polygon fill="white" stroke="black" points="330,-114.5 330,-133.5 465,-133.5 465,-114.5 330,-114.5"/>
<text text-anchor="middle" x="397.5" y="-121.5" font-family="Helvetica,sans-Serif" font-size="10.00">WalletBatch::LoadWallet</text>
</a>
</g>
</g>
<!-- Node1&#45;&gt;Node2 -->
<g id="edge1" class="edge">
<title>Node1&#45;&gt;Node2</title>
<path fill="none" stroke="midnightblue" d="M662.65,-101.45C654,-102.75 645.34,-103.97 637,-105 579.19,-112.17 513.14,-117.19 465.23,-120.26"/>
<polygon fill="midnightblue" stroke="midnightblue" points="663.43,-104.87 672.78,-99.88 662.36,-97.95 663.43,-104.87"/>
</g>
<!-- Node5 -->
<g id="node5" class="node">
<title>Node5</title>
<g id="a_node5"><a xlink:href="walletdb_8cpp.html#a653d9a2eb177350e7160edd6b32cec5c" target="_top" xlink:title=" ">
<polygon fill="white" stroke="black" points="526,-76.5 526,-95.5 612,-95.5 612,-76.5 526,-76.5"/>
<text text-anchor="middle" x="569" y="-83.5" font-family="Helvetica,sans-Serif" font-size="10.00">ReadKeyValue</text>
</a>
</g>
</g>
<!-- Node1&#45;&gt;Node5 -->
<g id="edge4" class="edge">
<title>Node1&#45;&gt;Node5</title>
<path fill="none" stroke="midnightblue" d="M662.57,-86C645.05,-86 627.38,-86 612.25,-86"/>
<polygon fill="midnightblue" stroke="midnightblue" points="662.86,-89.5 672.86,-86 662.86,-82.5 662.86,-89.5"/>
</g>
<!-- Node10 -->
<g id="node10" class="node">
<title>Node10</title>
<g id="a_node10"><a xlink:href="namespace_wallet_tool.html#ac6beb456f25cd76cea32b7c255b0181a" target="_top" xlink:title=" ">
<polygon fill="white" stroke="black" points="501,-19.5 501,-38.5 637,-38.5 637,-19.5 501,-19.5"/>
<text text-anchor="middle" x="569" y="-26.5" font-family="Helvetica,sans-Serif" font-size="10.00">WalletTool::WalletCreate</text>
</a>
</g>
</g>
<!-- Node1&#45;&gt;Node10 -->
<g id="edge10" class="edge">
<title>Node1&#45;&gt;Node10</title>
<path fill="none" stroke="midnightblue" d="M692.16,-67.79C661.55,-58.07 625.14,-46.51 600.08,-38.55"/>
<polygon fill="midnightblue" stroke="midnightblue" points="691.28,-71.18 701.87,-70.87 693.4,-64.51 691.28,-71.18"/>
</g>
<!-- Node3 -->
<g id="node3" class="node">
<title>Node3</title>
<g id="a_node3"><a xlink:href="group___actions.html#ga69ca1edc0a5b96138c708f50a0626d40" target="_top" xlink:title=" ">
<polygon fill="white" stroke="black" points="166,-114.5 166,-133.5 280,-133.5 280,-114.5 166,-114.5"/>
<text text-anchor="middle" x="223" y="-121.5" font-family="Helvetica,sans-Serif" font-size="10.00">CWallet::LoadWallet</text>
</a>
</g>
</g>
<!-- Node2&#45;&gt;Node3 -->
<g id="edge2" class="edge">
<title>Node2&#45;&gt;Node3</title>
<path fill="none" stroke="midnightblue" d="M319.71,-124C306.4,-124 292.79,-124 280.16,-124"/>
<polygon fill="midnightblue" stroke="midnightblue" points="319.81,-127.5 329.81,-124 319.81,-120.5 319.81,-127.5"/>
</g>
<!-- Node4 -->
<g id="node4" class="node">
<title>Node4</title>
<g id="a_node4"><a xlink:href="struct_wallet_testing_setup.html#a0125ada997b4b16803624bfd537d8902" target="_top" xlink:title=" ">
<polygon fill="white" stroke="black" points="0,-109 0,-139 116,-139 116,-109 0,-109"/>
<text text-anchor="start" x="8" y="-127" font-family="Helvetica,sans-Serif" font-size="10.00">WalletTestingSetup</text>
<text text-anchor="middle" x="58" y="-116" font-family="Helvetica,sans-Serif" font-size="10.00">::WalletTestingSetup</text>
</a>
</g>
</g>
<!-- Node3&#45;&gt;Node4 -->
<g id="edge3" class="edge">
<title>Node3&#45;&gt;Node4</title>
<path fill="none" stroke="midnightblue" d="M155.54,-124C142.43,-124 128.79,-124 116.03,-124"/>
<polygon fill="midnightblue" stroke="midnightblue" points="155.9,-127.5 165.9,-124 155.9,-120.5 155.9,-127.5"/>
</g>
<!-- Node5&#45;&gt;Node2 -->
<g id="edge5" class="edge">
<title>Node5&#45;&gt;Node2</title>
<path fill="none" stroke="midnightblue" d="M515.65,-97.74C491.64,-103.12 463.54,-109.42 440.88,-114.5"/>
<polygon fill="midnightblue" stroke="midnightblue" points="516.67,-101.09 525.67,-95.49 515.14,-94.26 516.67,-101.09"/>
</g>
<!-- Node6 -->
<g id="node6" class="node">
<title>Node6</title>
<g id="a_node6"><a xlink:href="walletdb_8cpp.html#abe2274efef59b60fdc1590b8ad8b8d44" target="_top" xlink:title="Unserialize a given Key&#45;Value pair and load it into the wallet.">
<polygon fill="white" stroke="black" points="354.5,-76.5 354.5,-95.5 440.5,-95.5 440.5,-76.5 354.5,-76.5"/>
<text text-anchor="middle" x="397.5" y="-83.5" font-family="Helvetica,sans-Serif" font-size="10.00">ReadKeyValue</text>
</a>
</g>
</g>
<!-- Node5&#45;&gt;Node6 -->
<g id="edge6" class="edge">
<title>Node5&#45;&gt;Node6</title>
<path fill="none" stroke="midnightblue" d="M515.61,-86C491.5,-86 463.29,-86 440.59,-86"/>
<polygon fill="midnightblue" stroke="midnightblue" points="515.67,-89.5 525.67,-86 515.67,-82.5 515.67,-89.5"/>
</g>
<!-- Node7 -->
<g id="node7" class="node">
<title>Node7</title>
<g id="a_node7"><a xlink:href="salvage_8cpp.html#a7c33d426b6f301acc8f24e43029870bd" target="_top" xlink:title=" ">
<polygon fill="white" stroke="black" points="337.5,-38.5 337.5,-57.5 457.5,-57.5 457.5,-38.5 337.5,-38.5"/>
<text text-anchor="middle" x="397.5" y="-45.5" font-family="Helvetica,sans-Serif" font-size="10.00">RecoverDatabaseFile</text>
</a>
</g>
</g>
<!-- Node5&#45;&gt;Node7 -->
<g id="edge7" class="edge">
<title>Node5&#45;&gt;Node7</title>
<path fill="none" stroke="midnightblue" d="M515.65,-74.26C491.64,-68.88 463.54,-62.58 440.88,-57.5"/>
<polygon fill="midnightblue" stroke="midnightblue" points="515.14,-77.74 525.67,-76.51 516.67,-70.91 515.14,-77.74"/>
</g>
<!-- Node8 -->
<g id="node8" class="node">
<title>Node8</title>
<g id="a_node8"><a xlink:href="namespace_wallet_tool.html#a61a6172c4ae27397fced90138a29c662" target="_top" xlink:title=" ">
<polygon fill="white" stroke="black" points="152,-14 152,-44 294,-44 294,-14 152,-14"/>
<text text-anchor="start" x="160" y="-32" font-family="Helvetica,sans-Serif" font-size="10.00">WalletTool::ExecuteWallet</text>
<text text-anchor="middle" x="223" y="-21" font-family="Helvetica,sans-Serif" font-size="10.00">ToolFunc</text>
</a>
</g>
</g>
<!-- Node7&#45;&gt;Node8 -->
<g id="edge8" class="edge">
<title>Node7&#45;&gt;Node8</title>
<path fill="none" stroke="midnightblue" d="M326.92,-40.34C316.13,-39.15 304.98,-37.92 294.17,-36.73"/>
<polygon fill="midnightblue" stroke="midnightblue" points="326.81,-43.85 337.14,-41.46 327.58,-36.89 326.81,-43.85"/>
</g>
<!-- Node9 -->
<g id="node9" class="node">
<title>Node9</title>
<g id="a_node9"><a xlink:href="bitcoin-wallet_8cpp.html#a0ddf1224851353fc92bfbff6f499fa97" target="_top" xlink:title=" ">
<polygon fill="white" stroke="black" points="37.5,-19.5 37.5,-38.5 78.5,-38.5 78.5,-19.5 37.5,-19.5"/>
<text text-anchor="middle" x="58" y="-26.5" font-family="Helvetica,sans-Serif" font-size="10.00">main</text>
</a>
</g>
</g>
<!-- Node8&#45;&gt;Node9 -->
<g id="edge9" class="edge">
<title>Node8&#45;&gt;Node9</title>
<path fill="none" stroke="midnightblue" d="M141.91,-29C118.45,-29 94.84,-29 78.84,-29"/>
<polygon fill="midnightblue" stroke="midnightblue" points="141.93,-32.5 151.93,-29 141.93,-25.5 141.93,-32.5"/>
</g>
<!-- Node11 -->
<g id="node11" class="node">
<title>Node11</title>
<g id="a_node11"><a xlink:href="namespace_wallet_tool.html#aab77144753175e2f62f0fb58d71cfeaf" target="_top" xlink:title=" ">
<polygon fill="white" stroke="black" points="332.5,-0.5 332.5,-19.5 462.5,-19.5 462.5,-0.5 332.5,-0.5"/>
<text text-anchor="middle" x="397.5" y="-7.5" font-family="Helvetica,sans-Serif" font-size="10.00">WalletTool::MakeWallet</text>
</a>
</g>
</g>
<!-- Node10&#45;&gt;Node11 -->
<g id="edge11" class="edge">
<title>Node10&#45;&gt;Node11</title>
<path fill="none" stroke="midnightblue" d="M490.5,-20.31C481.2,-19.27 471.79,-18.22 462.71,-17.2"/>
<polygon fill="midnightblue" stroke="midnightblue" points="490.19,-23.8 500.52,-21.44 490.97,-16.84 490.19,-23.8"/>
</g>
<!-- Node11&#45;&gt;Node8 -->
<g id="edge12" class="edge">
<title>Node11&#45;&gt;Node8</title>
<path fill="none" stroke="midnightblue" d="M322.23,-18.18C312.88,-19.21 303.35,-20.26 294.08,-21.28"/>
<polygon fill="midnightblue" stroke="midnightblue" points="322.71,-21.65 332.27,-17.07 321.94,-14.69 322.71,-21.65"/>
</g>
</g>
</svg>
