<?xml version="1.0" encoding="UTF-8" standalone="no"?>
<!DOCTYPE svg PUBLIC "-//W3C//DTD SVG 1.1//EN"
 "http://www.w3.org/Graphics/SVG/1.1/DTD/svg11.dtd">
<!-- Generated by graphviz version 2.38.0 (20140413.2041)
 -->
<!-- Title: CHMAC_SHA512::Finalize Pages: 1 -->
<svg width="1536pt" height="1107pt"
 viewBox="0.00 0.00 1536.00 1106.50" xmlns="http://www.w3.org/2000/svg" xmlns:xlink="http://www.w3.org/1999/xlink">
<g id="graph0" class="graph" transform="scale(1 1) rotate(0) translate(4 1102.5)">
<title>CHMAC_SHA512::Finalize</title>
<polygon fill="white" stroke="none" points="-4,4 -4,-1102.5 1532,-1102.5 1532,4 -4,4"/>
<!-- Node1 -->
<g id="node1" class="node"><title>Node1</title>
<polygon fill="#bfbfbf" stroke="black" points="0,-116.5 0,-135.5 137,-135.5 137,-116.5 0,-116.5"/>
<text text-anchor="middle" x="68.5" y="-123.5" font-family="Helvetica,sans-Serif" font-size="10.00">CHMAC_SHA512::Finalize</text>
</g>
<!-- Node2 -->
<g id="node2" class="node"><title>Node2</title>
<g id="a_node2"><a xlink:href="class_c_h_m_a_c___s_h_a512.html#aefdf2b068b668027b67c8822227a5a18" target="_top" xlink:title="CHMAC_SHA512::Write">
<polygon fill="white" stroke="black" points="173,-116.5 173,-135.5 299,-135.5 299,-116.5 173,-116.5"/>
<text text-anchor="middle" x="236" y="-123.5" font-family="Helvetica,sans-Serif" font-size="10.00">CHMAC_SHA512::Write</text>
</a>
</g>
</g>
<!-- Node1&#45;&gt;Node2 -->
<g id="edge1" class="edge"><title>Node1&#45;&gt;Node2</title>
<path fill="none" stroke="midnightblue" d="M147.312,-126C155.894,-126 164.546,-126 172.899,-126"/>
<polygon fill="midnightblue" stroke="midnightblue" points="147.293,-122.5 137.293,-126 147.293,-129.5 147.293,-122.5"/>
</g>
<!-- Node3 -->
<g id="node3" class="node"><title>Node3</title>
<g id="a_node3"><a xlink:href="hash_8h.html#a391c1a6a1f947abbc53cc51fc709110e" target="_top" xlink:title="BIP32Hash">
<polygon fill="white" stroke="black" points="351.5,-157.5 351.5,-176.5 419.5,-176.5 419.5,-157.5 351.5,-157.5"/>
<text text-anchor="middle" x="385.5" y="-164.5" font-family="Helvetica,sans-Serif" font-size="10.00">BIP32Hash</text>
</a>
</g>
</g>
<!-- Node1&#45;&gt;Node3 -->
<g id="edge64" class="edge"><title>Node1&#45;&gt;Node3</title>
<path fill="none" stroke="midnightblue" d="M127.14,-137.404C142.041,-140.125 158.087,-142.859 173,-145 235.853,-154.024 309.721,-160.853 351.431,-164.363"/>
<polygon fill="midnightblue" stroke="midnightblue" points="127.506,-133.912 117.035,-135.528 126.229,-140.794 127.506,-133.912"/>
</g>
<!-- Node48 -->
<g id="node48" class="node"><title>Node48</title>
<g id="a_node48"><a xlink:href="struct_c_ext_key.html#a8593d6ce0dadfca0f8c2f71ebb4e1fe0" target="_top" xlink:title="CExtKey::SetSeed">
<polygon fill="white" stroke="black" points="335,-76.5 335,-95.5 436,-95.5 436,-76.5 335,-76.5"/>
<text text-anchor="middle" x="385.5" y="-83.5" font-family="Helvetica,sans-Serif" font-size="10.00">CExtKey::SetSeed</text>
</a>
</g>
</g>
<!-- Node1&#45;&gt;Node48 -->
<g id="edge65" class="edge"><title>Node1&#45;&gt;Node48</title>
<path fill="none" stroke="midnightblue" d="M126.913,-114.589C141.876,-111.854 158.008,-109.117 173,-107 228.171,-99.2106 291.841,-93.304 334.79,-89.7692"/>
<polygon fill="midnightblue" stroke="midnightblue" points="125.962,-111.205 116.769,-116.473 127.24,-118.088 125.962,-111.205"/>
</g>
<!-- Node2&#45;&gt;Node3 -->
<g id="edge2" class="edge"><title>Node2&#45;&gt;Node3</title>
<path fill="none" stroke="midnightblue" d="M280.923,-138.209C303.546,-144.498 330.673,-152.038 351.49,-157.824"/>
<polygon fill="midnightblue" stroke="midnightblue" points="281.782,-134.815 271.21,-135.509 279.908,-141.56 281.782,-134.815"/>
</g>
<!-- Node2&#45;&gt;Node48 -->
<g id="edge59" class="edge"><title>Node2&#45;&gt;Node48</title>
<path fill="none" stroke="midnightblue" d="M282.271,-113.723C303.883,-107.862 329.35,-100.956 349.458,-95.5028"/>
<polygon fill="midnightblue" stroke="midnightblue" points="281.065,-110.424 272.33,-116.419 282.897,-117.18 281.065,-110.424"/>
</g>
<!-- Node4 -->
<g id="node4" class="node"><title>Node4</title>
<g id="a_node4"><a xlink:href="hash_8h.html#a6de694e43f17c62025c6883965b65e63" target="_top" xlink:title="Compute the 256&#45;bit hash of an object&#39;s serialization. ">
<polygon fill="white" stroke="black" points="490.5,-240.5 490.5,-259.5 572.5,-259.5 572.5,-240.5 490.5,-240.5"/>
<text text-anchor="middle" x="531.5" y="-247.5" font-family="Helvetica,sans-Serif" font-size="10.00">SerializeHash</text>
</a>
</g>
</g>
<!-- Node3&#45;&gt;Node4 -->
<g id="edge3" class="edge"><title>Node3&#45;&gt;Node4</title>
<path fill="none" stroke="midnightblue" d="M407.958,-182.79C424.875,-194.869 449.318,-211.517 472,-224 483.003,-230.055 495.69,-235.831 506.431,-240.394"/>
<polygon fill="midnightblue" stroke="midnightblue" points="409.549,-179.621 399.392,-176.605 405.451,-185.297 409.549,-179.621"/>
</g>
<!-- Node39 -->
<g id="node39" class="node"><title>Node39</title>
<g id="a_node39"><a xlink:href="class_c_key.html#a1bae09b7447a951d8fc3328b7dcc3a3f" target="_top" xlink:title="Derive BIP32 child key. ">
<polygon fill="white" stroke="black" points="493.5,-157.5 493.5,-176.5 569.5,-176.5 569.5,-157.5 493.5,-157.5"/>
<text text-anchor="middle" x="531.5" y="-164.5" font-family="Helvetica,sans-Serif" font-size="10.00">CKey::Derive</text>
</a>
</g>
</g>
<!-- Node3&#45;&gt;Node39 -->
<g id="edge49" class="edge"><title>Node3&#45;&gt;Node39</title>
<path fill="none" stroke="midnightblue" d="M429.752,-167C450.001,-167 473.879,-167 493.306,-167"/>
<polygon fill="midnightblue" stroke="midnightblue" points="429.537,-163.5 419.537,-167 429.536,-170.5 429.537,-163.5"/>
</g>
<!-- Node47 -->
<g id="node47" class="node"><title>Node47</title>
<g id="a_node47"><a xlink:href="class_c_pub_key.html#add183528b09791bdd0f982e63308d263" target="_top" xlink:title="Derive BIP32 child pubkey. ">
<polygon fill="white" stroke="black" points="484.5,-195.5 484.5,-214.5 578.5,-214.5 578.5,-195.5 484.5,-195.5"/>
<text text-anchor="middle" x="531.5" y="-202.5" font-family="Helvetica,sans-Serif" font-size="10.00">CPubKey::Derive</text>
</a>
</g>
</g>
<!-- Node3&#45;&gt;Node47 -->
<g id="edge58" class="edge"><title>Node3&#45;&gt;Node47</title>
<path fill="none" stroke="midnightblue" d="M429.346,-178.307C450.039,-183.767 474.598,-190.248 494.335,-195.456"/>
<polygon fill="midnightblue" stroke="midnightblue" points="430.099,-174.885 419.537,-175.718 428.312,-181.654 430.099,-174.885"/>
</g>
<!-- Node5 -->
<g id="node5" class="node"><title>Node5</title>
<g id="a_node5"><a xlink:href="class_c_block_header.html#ae1165e54882d364b030fb33673d64dbd" target="_top" xlink:title="CBlockHeader::GetHash">
<polygon fill="white" stroke="black" points="655.5,-689.5 655.5,-708.5 787.5,-708.5 787.5,-689.5 655.5,-689.5"/>
<text text-anchor="middle" x="721.5" y="-696.5" font-family="Helvetica,sans-Serif" font-size="10.00">CBlockHeader::GetHash</text>
</a>
</g>
</g>
<!-- Node4&#45;&gt;Node5 -->
<g id="edge4" class="edge"><title>Node4&#45;&gt;Node5</title>
<path fill="none" stroke="midnightblue" d="M540.571,-269.276C572.955,-346.619 692.854,-632.972 716.453,-689.333"/>
<polygon fill="midnightblue" stroke="midnightblue" points="543.692,-267.668 536.601,-259.796 537.235,-270.371 543.692,-267.668"/>
</g>
<!-- Node34 -->
<g id="node34" class="node"><title>Node34</title>
<g id="a_node34"><a xlink:href="struct_c_mutable_transaction.html#af57dc15618f64c9ae3a4c0e06850e382" target="_top" xlink:title="Compute the hash of this CMutableTransaction. ">
<polygon fill="white" stroke="black" points="663.5,-279 663.5,-309 779.5,-309 779.5,-279 663.5,-279"/>
<text text-anchor="start" x="671.5" y="-297" font-family="Helvetica,sans-Serif" font-size="10.00">CMutableTransaction</text>
<text text-anchor="middle" x="721.5" y="-286" font-family="Helvetica,sans-Serif" font-size="10.00">::GetHash</text>
</a>
</g>
</g>
<!-- Node4&#45;&gt;Node34 -->
<g id="edge43" class="edge"><title>Node4&#45;&gt;Node34</title>
<path fill="none" stroke="midnightblue" d="M582.783,-261.768C607.645,-267.587 637.756,-274.634 663.475,-280.654"/>
<polygon fill="midnightblue" stroke="midnightblue" points="583.365,-258.31 572.831,-259.439 581.77,-265.126 583.365,-258.31"/>
</g>
<!-- Node36 -->
<g id="node36" class="node"><title>Node36</title>
<g id="a_node36"><a xlink:href="class_c_transaction.html#a2bed45cfd41166dec912c5259150c240" target="_top" xlink:title="CTransaction::ComputeHash">
<polygon fill="white" stroke="black" points="645.5,-240.5 645.5,-259.5 797.5,-259.5 797.5,-240.5 645.5,-240.5"/>
<text text-anchor="middle" x="721.5" y="-247.5" font-family="Helvetica,sans-Serif" font-size="10.00">CTransaction::ComputeHash</text>
</a>
</g>
</g>
<!-- Node4&#45;&gt;Node36 -->
<g id="edge45" class="edge"><title>Node4&#45;&gt;Node36</title>
<path fill="none" stroke="midnightblue" d="M582.849,-250C602.039,-250 624.348,-250 645.349,-250"/>
<polygon fill="midnightblue" stroke="midnightblue" points="582.831,-246.5 572.831,-250 582.831,-253.5 582.831,-246.5"/>
</g>
<!-- Node38 -->
<g id="node38" class="node"><title>Node38</title>
<g id="a_node38"><a xlink:href="class_c_transaction.html#a188fef4d6747e1371601b5cf9cbd245b" target="_top" xlink:title="CTransaction::ComputeWitnessHash">
<polygon fill="white" stroke="black" points="627,-202.5 627,-221.5 816,-221.5 816,-202.5 627,-202.5"/>
<text text-anchor="middle" x="721.5" y="-209.5" font-family="Helvetica,sans-Serif" font-size="10.00">CTransaction::ComputeWitnessHash</text>
</a>
</g>
</g>
<!-- Node4&#45;&gt;Node38 -->
<g id="edge47" class="edge"><title>Node4&#45;&gt;Node38</title>
<path fill="none" stroke="midnightblue" d="M582.849,-239.823C610.933,-234.147 645.698,-227.12 673.263,-221.548"/>
<polygon fill="midnightblue" stroke="midnightblue" points="581.939,-236.436 572.831,-241.848 583.326,-243.297 581.939,-236.436"/>
</g>
<!-- Node6 -->
<g id="node6" class="node"><title>Node6</title>
<g id="a_node6"><a xlink:href="class_partially_downloaded_block.html#a04e1b3207e547c972e002c1ec472da1f" target="_top" xlink:title="PartiallyDownloadedBlock\l::InitData">
<polygon fill="white" stroke="black" points="1080,-1068 1080,-1098 1217,-1098 1217,-1068 1080,-1068"/>
<text text-anchor="start" x="1088" y="-1086" font-family="Helvetica,sans-Serif" font-size="10.00">PartiallyDownloadedBlock</text>
<text text-anchor="middle" x="1148.5" y="-1075" font-family="Helvetica,sans-Serif" font-size="10.00">::InitData</text>
</a>
</g>
</g>
<!-- Node5&#45;&gt;Node6 -->
<g id="edge5" class="edge"><title>Node5&#45;&gt;Node6</title>
<path fill="none" stroke="midnightblue" d="M725.881,-718.673C735.6,-768.953 768.462,-902.92 852,-970 911.768,-1017.99 955.994,-966.824 1020,-1009 1042.57,-1023.87 1033.73,-1042.7 1056,-1058 1063.19,-1062.94 1071.33,-1066.91 1079.71,-1070.09"/>
<polygon fill="midnightblue" stroke="midnightblue" points="729.311,-717.968 724.061,-708.765 722.426,-719.233 729.311,-717.968"/>
</g>
<!-- Node7 -->
<g id="node7" class="node"><title>Node7</title>
<g id="a_node7"><a xlink:href="class_peer_logic_validation.html#a124965d7310e0df08cc027d4e1cbbe7b" target="_top" xlink:title="Overridden from CValidationInterface. ">
<polygon fill="white" stroke="black" points="1299.5,-893 1299.5,-923 1409.5,-923 1409.5,-893 1299.5,-893"/>
<text text-anchor="start" x="1307.5" y="-911" font-family="Helvetica,sans-Serif" font-size="10.00">PeerLogicValidation</text>
<text text-anchor="middle" x="1354.5" y="-900" font-family="Helvetica,sans-Serif" font-size="10.00">::BlockChecked</text>
</a>
</g>
</g>
<!-- Node5&#45;&gt;Node7 -->
<g id="edge17" class="edge"><title>Node5&#45;&gt;Node7</title>
<path fill="none" stroke="midnightblue" d="M733.406,-717.577C752.819,-748.735 796.589,-810.87 852,-839 1007.19,-917.783 1069.26,-855.812 1241,-884 1260.12,-887.137 1280.9,-891.343 1299.34,-895.357"/>
<polygon fill="midnightblue" stroke="midnightblue" points="736.156,-715.363 727.974,-708.632 730.173,-718.996 736.156,-715.363"/>
</g>
<!-- Node8 -->
<g id="node8" class="node"><title>Node8</title>
<g id="a_node8"><a xlink:href="class_partially_downloaded_block.html#ae31ee4302e77d9757aae8b96df99486a" target="_top" xlink:title="PartiallyDownloadedBlock\l::FillBlock">
<polygon fill="white" stroke="black" points="1080,-893 1080,-923 1217,-923 1217,-893 1080,-893"/>
<text text-anchor="start" x="1088" y="-911" font-family="Helvetica,sans-Serif" font-size="10.00">PartiallyDownloadedBlock</text>
<text text-anchor="middle" x="1148.5" y="-900" font-family="Helvetica,sans-Serif" font-size="10.00">::FillBlock</text>
</a>
</g>
</g>
<!-- Node5&#45;&gt;Node8 -->
<g id="edge7" class="edge"><title>Node5&#45;&gt;Node8</title>
<path fill="none" stroke="midnightblue" d="M729.514,-718.409C744.83,-757.617 785.327,-845.776 852,-884 921.882,-924.064 1016.76,-924.112 1079.95,-918.098"/>
<polygon fill="midnightblue" stroke="midnightblue" points="732.744,-717.053 725.936,-708.935 726.195,-719.527 732.744,-717.053"/>
</g>
<!-- Node9 -->
<g id="node9" class="node"><title>Node9</title>
<g id="a_node9"><a xlink:href="class_c_disk_block_index.html#adbe404c55c68be782360b4594d355fad" target="_top" xlink:title="CDiskBlockIndex::GetBlockHash">
<polygon fill="white" stroke="black" points="852,-670.5 852,-689.5 1020,-689.5 1020,-670.5 852,-670.5"/>
<text text-anchor="middle" x="936" y="-677.5" font-family="Helvetica,sans-Serif" font-size="10.00">CDiskBlockIndex::GetBlockHash</text>
</a>
</g>
</g>
<!-- Node5&#45;&gt;Node9 -->
<g id="edge9" class="edge"><title>Node5&#45;&gt;Node9</title>
<path fill="none" stroke="midnightblue" d="M797.843,-692.263C815.335,-690.699 834.052,-689.026 851.859,-687.434"/>
<polygon fill="midnightblue" stroke="midnightblue" points="797.35,-688.794 787.701,-693.17 797.973,-695.766 797.35,-688.794"/>
</g>
<!-- Node11 -->
<g id="node11" class="node"><title>Node11</title>
<g id="a_node11"><a xlink:href="class_c_main_params.html#ab7dfebf3c4dd5cc0ebdfabe1111056d6" target="_top" xlink:title="CMainParams::CMainParams">
<polygon fill="white" stroke="black" points="859.5,-632.5 859.5,-651.5 1012.5,-651.5 1012.5,-632.5 859.5,-632.5"/>
<text text-anchor="middle" x="936" y="-639.5" font-family="Helvetica,sans-Serif" font-size="10.00">CMainParams::CMainParams</text>
</a>
</g>
</g>
<!-- Node5&#45;&gt;Node11 -->
<g id="edge11" class="edge"><title>Node5&#45;&gt;Node11</title>
<path fill="none" stroke="midnightblue" d="M762.654,-686.538C788.14,-678.797 821.878,-668.86 852,-661 864.587,-657.716 878.328,-654.444 890.943,-651.565"/>
<polygon fill="midnightblue" stroke="midnightblue" points="761.511,-683.227 752.969,-689.494 763.555,-689.922 761.511,-683.227"/>
</g>
<!-- Node13 -->
<g id="node13" class="node"><title>Node13</title>
<g id="a_node13"><a xlink:href="class_c_test_net_params.html#abbd5f6e3e94bc8abf99a5dfaff75374a" target="_top" xlink:title="CTestNetParams::CTestNet\lParams">
<polygon fill="white" stroke="black" points="864,-583 864,-613 1008,-613 1008,-583 864,-583"/>
<text text-anchor="start" x="872" y="-601" font-family="Helvetica,sans-Serif" font-size="10.00">CTestNetParams::CTestNet</text>
<text text-anchor="middle" x="936" y="-590" font-family="Helvetica,sans-Serif" font-size="10.00">Params</text>
</a>
</g>
</g>
<!-- Node5&#45;&gt;Node13 -->
<g id="edge13" class="edge"><title>Node5&#45;&gt;Node13</title>
<path fill="none" stroke="midnightblue" d="M744.714,-683.741C769.841,-667.019 812.423,-640.278 852,-623 860.413,-619.327 869.53,-615.985 878.536,-613.025"/>
<polygon fill="midnightblue" stroke="midnightblue" points="742.628,-680.926 736.285,-689.412 746.536,-686.734 742.628,-680.926"/>
</g>
<!-- Node14 -->
<g id="node14" class="node"><title>Node14</title>
<g id="a_node14"><a xlink:href="class_c_reg_test_params.html#abd6a789d40eeaf94598c72a6b0e67927" target="_top" xlink:title="CRegTestParams::CRegTest\lParams">
<polygon fill="white" stroke="black" points="864,-534 864,-564 1008,-564 1008,-534 864,-534"/>
<text text-anchor="start" x="872" y="-552" font-family="Helvetica,sans-Serif" font-size="10.00">CRegTestParams::CRegTest</text>
<text text-anchor="middle" x="936" y="-541" font-family="Helvetica,sans-Serif" font-size="10.00">Params</text>
</a>
</g>
</g>
<!-- Node5&#45;&gt;Node14 -->
<g id="edge14" class="edge"><title>Node5&#45;&gt;Node14</title>
<path fill="none" stroke="midnightblue" d="M735.88,-681.27C757.384,-654 802.296,-601.895 852,-573 857.836,-569.608 864.184,-566.666 870.685,-564.122"/>
<polygon fill="midnightblue" stroke="midnightblue" points="732.865,-679.447 729.511,-689.497 738.4,-683.732 732.865,-679.447"/>
</g>
<!-- Node15 -->
<g id="node15" class="node"><title>Node15</title>
<g id="a_node15"><a xlink:href="class_tx_index.html#a3afb69a776345e408580bcacca36334a" target="_top" xlink:title="Look up a transaction by hash. ">
<polygon fill="white" stroke="black" points="892,-495.5 892,-514.5 980,-514.5 980,-495.5 892,-495.5"/>
<text text-anchor="middle" x="936" y="-502.5" font-family="Helvetica,sans-Serif" font-size="10.00">TxIndex::FindTx</text>
</a>
</g>
</g>
<!-- Node5&#45;&gt;Node15 -->
<g id="edge15" class="edge"><title>Node5&#45;&gt;Node15</title>
<path fill="none" stroke="midnightblue" d="M731.09,-679.651C748.372,-643.084 790.973,-563.929 852,-524 863.751,-516.311 878.211,-511.712 891.751,-508.969"/>
<polygon fill="midnightblue" stroke="midnightblue" points="727.718,-678.608 726.719,-689.156 734.077,-681.533 727.718,-678.608"/>
</g>
<!-- Node17 -->
<g id="node17" class="node"><title>Node17</title>
<g id="a_node17"><a xlink:href="class_c_block.html#a85d1cca7cd03ad1893767ae8305bd3b5" target="_top" xlink:title="CBlock::ToString">
<polygon fill="white" stroke="black" points="889.5,-457.5 889.5,-476.5 982.5,-476.5 982.5,-457.5 889.5,-457.5"/>
<text text-anchor="middle" x="936" y="-464.5" font-family="Helvetica,sans-Serif" font-size="10.00">CBlock::ToString</text>
</a>
</g>
</g>
<!-- Node5&#45;&gt;Node17 -->
<g id="edge18" class="edge"><title>Node5&#45;&gt;Node17</title>
<path fill="none" stroke="midnightblue" d="M728.576,-679.325C742.76,-636.84 782.252,-536.299 852,-486 862.791,-478.218 876.253,-473.559 889.174,-470.79"/>
<polygon fill="midnightblue" stroke="midnightblue" points="725.185,-678.438 725.444,-689.029 731.846,-680.588 725.185,-678.438"/>
</g>
<!-- Node18 -->
<g id="node18" class="node"><title>Node18</title>
<g id="a_node18"><a xlink:href="class_c_block_header.html#a5c179f4a8b5728ba381a26d0450403b8" target="_top" xlink:title="CBlockHeader::IsNull">
<polygon fill="white" stroke="black" points="878,-941.5 878,-960.5 994,-960.5 994,-941.5 878,-941.5"/>
<text text-anchor="middle" x="936" y="-948.5" font-family="Helvetica,sans-Serif" font-size="10.00">CBlockHeader::IsNull</text>
</a>
</g>
</g>
<!-- Node5&#45;&gt;Node18 -->
<g id="edge19" class="edge"><title>Node5&#45;&gt;Node18</title>
<path fill="none" stroke="midnightblue" d="M728.55,-718.401C742.909,-761.336 783.096,-865.084 852,-922 862.709,-930.846 876.293,-937.067 889.353,-941.412"/>
<polygon fill="midnightblue" stroke="midnightblue" points="731.8,-717.075 725.386,-708.642 725.141,-719.234 731.8,-717.075"/>
</g>
<!-- Node22 -->
<g id="node22" class="node"><title>Node22</title>
<g id="a_node22"><a xlink:href="mining_8h.html#a4910d289954727eb7c4c24a6b3c50c55" target="_top" xlink:title="Generate blocks (mine) ">
<polygon fill="white" stroke="black" points="1309,-711.5 1309,-730.5 1400,-730.5 1400,-711.5 1309,-711.5"/>
<text text-anchor="middle" x="1354.5" y="-718.5" font-family="Helvetica,sans-Serif" font-size="10.00">generateBlocks</text>
</a>
</g>
</g>
<!-- Node5&#45;&gt;Node22 -->
<g id="edge26" class="edge"><title>Node5&#45;&gt;Node22</title>
<path fill="none" stroke="midnightblue" d="M797.731,-701.623C930.384,-706.248 1201.95,-715.716 1308.85,-719.443"/>
<polygon fill="midnightblue" stroke="midnightblue" points="797.767,-698.122 787.651,-701.272 797.523,-705.118 797.767,-698.122"/>
</g>
<!-- Node24 -->
<g id="node24" class="node"><title>Node24</title>
<g id="a_node24"><a xlink:href="classsubmitblock___state_catcher.html#a89abec4d0d8ea6b2cd651439e3a4f45f" target="_top" xlink:title="Notifies listeners of a block validation result. ">
<polygon fill="white" stroke="black" points="864.5,-408 864.5,-438 1007.5,-438 1007.5,-408 864.5,-408"/>
<text text-anchor="start" x="872.5" y="-426" font-family="Helvetica,sans-Serif" font-size="10.00">submitblock_StateCatcher</text>
<text text-anchor="middle" x="936" y="-415" font-family="Helvetica,sans-Serif" font-size="10.00">::BlockChecked</text>
</a>
</g>
</g>
<!-- Node5&#45;&gt;Node24 -->
<g id="edge29" class="edge"><title>Node5&#45;&gt;Node24</title>
<path fill="none" stroke="midnightblue" d="M726.974,-679.507C738.8,-632.424 775.375,-511.696 852,-448 856.629,-444.152 861.838,-440.896 867.332,-438.141"/>
<polygon fill="midnightblue" stroke="midnightblue" points="723.544,-678.801 724.599,-689.344 730.349,-680.444 723.544,-678.801"/>
</g>
<!-- Node25 -->
<g id="node25" class="node"><title>Node25</title>
<g id="a_node25"><a xlink:href="validation_8h.html#a578c1df234b05798180f0235d469a5ba" target="_top" xlink:title="Functions for disk access for blocks. ">
<polygon fill="white" stroke="red" points="1093.5,-816.5 1093.5,-835.5 1203.5,-835.5 1203.5,-816.5 1093.5,-816.5"/>
<text text-anchor="middle" x="1148.5" y="-823.5" font-family="Helvetica,sans-Serif" font-size="10.00">ReadBlockFromDisk</text>
</a>
</g>
</g>
<!-- Node5&#45;&gt;Node25 -->
<g id="edge30" class="edge"><title>Node5&#45;&gt;Node25</title>
<path fill="none" stroke="midnightblue" d="M735.897,-716.796C757.127,-743.4 801.327,-792.59 852,-813 931.309,-844.944 1032.45,-840.835 1093.48,-834.057"/>
<polygon fill="midnightblue" stroke="midnightblue" points="738.508,-714.453 729.601,-708.714 732.985,-718.754 738.508,-714.453"/>
</g>
<!-- Node28 -->
<g id="node28" class="node"><title>Node28</title>
<g id="a_node28"><a xlink:href="class_c_chain_state.html#a06a01f2d89b7a40b5341083aa522a1e2" target="_top" xlink:title="Apply the effects of this block (with given index) on the UTXO set represented by coins...">
<polygon fill="white" stroke="red" points="862,-784.5 862,-803.5 1010,-803.5 1010,-784.5 862,-784.5"/>
<text text-anchor="middle" x="936" y="-791.5" font-family="Helvetica,sans-Serif" font-size="10.00">CChainState::ConnectBlock</text>
</a>
</g>
</g>
<!-- Node5&#45;&gt;Node28 -->
<g id="edge34" class="edge"><title>Node5&#45;&gt;Node28</title>
<path fill="none" stroke="midnightblue" d="M746.067,-713.993C771.439,-729.634 813.373,-754.055 852,-770 865.726,-775.666 881.249,-780.539 895.126,-784.385"/>
<polygon fill="midnightblue" stroke="midnightblue" points="747.843,-710.976 737.505,-708.66 744.142,-716.918 747.843,-710.976"/>
</g>
<!-- Node29 -->
<g id="node29" class="node"><title>Node29</title>
<g id="a_node29"><a xlink:href="validation_8h.html#a0ec350d618710819b35262406646a0ab" target="_top" xlink:title="Check a block is completely valid from start to finish (only works on top of our current best block) ...">
<polygon fill="white" stroke="red" points="1101,-759.5 1101,-778.5 1196,-778.5 1196,-759.5 1101,-759.5"/>
<text text-anchor="middle" x="1148.5" y="-766.5" font-family="Helvetica,sans-Serif" font-size="10.00">TestBlockValidity</text>
</a>
</g>
</g>
<!-- Node5&#45;&gt;Node29 -->
<g id="edge41" class="edge"><title>Node5&#45;&gt;Node29</title>
<path fill="none" stroke="midnightblue" d="M765.177,-711.307C790.283,-718.186 822.747,-726.464 852,-732 939.251,-748.512 1042.43,-759.522 1100.9,-764.981"/>
<polygon fill="midnightblue" stroke="midnightblue" points="765.818,-707.853 755.247,-708.554 763.948,-714.598 765.818,-707.853"/>
</g>
<!-- Node30 -->
<g id="node30" class="node"><title>Node30</title>
<g id="a_node30"><a xlink:href="class_c_chain_state.html#a75381aa4f08cbb957a2158dd852602a8" target="_top" xlink:title="CChainState::AddToBlockIndex">
<polygon fill="white" stroke="black" points="855,-369.5 855,-388.5 1017,-388.5 1017,-369.5 855,-369.5"/>
<text text-anchor="middle" x="936" y="-376.5" font-family="Helvetica,sans-Serif" font-size="10.00">CChainState::AddToBlockIndex</text>
</a>
</g>
</g>
<!-- Node5&#45;&gt;Node30 -->
<g id="edge38" class="edge"><title>Node5&#45;&gt;Node30</title>
<path fill="none" stroke="midnightblue" d="M724.843,-679.361C732.37,-625.393 761.017,-473.824 852,-398 856.542,-394.214 861.692,-391.148 867.147,-388.668"/>
<polygon fill="midnightblue" stroke="midnightblue" points="721.365,-678.965 723.543,-689.333 728.306,-679.87 721.365,-678.965"/>
</g>
<!-- Node31 -->
<g id="node31" class="node"><title>Node31</title>
<g id="a_node31"><a xlink:href="class_c_chain_state.html#a58e0c027d75d7a5f2fc604ce01b93ba2" target="_top" xlink:title="Mark a block as having its data received and checked (up to BLOCK_VALID_TRANSACTIONS). ">
<polygon fill="white" stroke="black" points="861,-320 861,-350 1011,-350 1011,-320 861,-320"/>
<text text-anchor="start" x="869" y="-338" font-family="Helvetica,sans-Serif" font-size="10.00">CChainState::ReceivedBlock</text>
<text text-anchor="middle" x="936" y="-327" font-family="Helvetica,sans-Serif" font-size="10.00">Transactions</text>
</a>
</g>
</g>
<!-- Node5&#45;&gt;Node31 -->
<g id="edge39" class="edge"><title>Node5&#45;&gt;Node31</title>
<path fill="none" stroke="midnightblue" d="M724.118,-679.214C729.932,-621.262 754.908,-450.311 852,-360 856.187,-356.105 860.96,-352.816 866.053,-350.038"/>
<polygon fill="midnightblue" stroke="midnightblue" points="720.627,-678.962 723.196,-689.241 727.597,-679.604 720.627,-678.962"/>
</g>
<!-- Node32 -->
<g id="node32" class="node"><title>Node32</title>
<g id="a_node32"><a xlink:href="class_c_chain_state.html#ab70c11d94a3f6e5cae415521437ef627" target="_top" xlink:title="If a block header hasn&#39;t already been seen, call CheckBlockHeader on it, ensure that it doesn&#39;t desce...">
<polygon fill="white" stroke="red" points="865.5,-1067 865.5,-1097 1006.5,-1097 1006.5,-1067 865.5,-1067"/>
<text text-anchor="start" x="873.5" y="-1085" font-family="Helvetica,sans-Serif" font-size="10.00">CChainState::AcceptBlock</text>
<text text-anchor="middle" x="936" y="-1074" font-family="Helvetica,sans-Serif" font-size="10.00">Header</text>
</a>
</g>
</g>
<!-- Node5&#45;&gt;Node32 -->
<g id="edge40" class="edge"><title>Node5&#45;&gt;Node32</title>
<path fill="none" stroke="midnightblue" d="M723.589,-718.788C727.992,-779.046 749.588,-962.011 852,-1058 855.94,-1061.69 860.413,-1064.82 865.192,-1067.47"/>
<polygon fill="midnightblue" stroke="midnightblue" points="727.076,-718.474 722.934,-708.722 720.09,-718.928 727.076,-718.474"/>
</g>
<!-- Node33 -->
<g id="node33" class="node"><title>Node33</title>
<g id="a_node33"><a xlink:href="class_c_chain_state.html#a6beb735dce3a8f0182660c04789df961" target="_top" xlink:title="CChainState::LoadGenesis\lBlock">
<polygon fill="white" stroke="red" points="864,-1018 864,-1048 1008,-1048 1008,-1018 864,-1018"/>
<text text-anchor="start" x="872" y="-1036" font-family="Helvetica,sans-Serif" font-size="10.00">CChainState::LoadGenesis</text>
<text text-anchor="middle" x="936" y="-1025" font-family="Helvetica,sans-Serif" font-size="10.00">Block</text>
</a>
</g>
</g>
<!-- Node5&#45;&gt;Node33 -->
<g id="edge42" class="edge"><title>Node5&#45;&gt;Node33</title>
<path fill="none" stroke="midnightblue" d="M725.397,-718.956C734.212,-772.588 765.598,-921.295 852,-1003 858.457,-1009.11 866.249,-1013.99 874.439,-1017.88"/>
<polygon fill="midnightblue" stroke="midnightblue" points="728.805,-718.092 723.808,-708.749 721.888,-719.169 728.805,-718.092"/>
</g>
<!-- Node6&#45;&gt;Node7 -->
<g id="edge6" class="edge"><title>Node6&#45;&gt;Node7</title>
<path fill="none" stroke="midnightblue" d="M1226.54,-1066.12C1231.61,-1063.76 1236.49,-1061.07 1241,-1058 1293.5,-1022.32 1331.29,-953.962 1346.32,-923.413"/>
<polygon fill="midnightblue" stroke="midnightblue" points="1225.11,-1062.93 1217.24,-1070.03 1227.82,-1069.38 1225.11,-1062.93"/>
</g>
<!-- Node8&#45;&gt;Node7 -->
<g id="edge8" class="edge"><title>Node8&#45;&gt;Node7</title>
<path fill="none" stroke="midnightblue" d="M1227.3,-908C1251.3,-908 1277.2,-908 1299.25,-908"/>
<polygon fill="midnightblue" stroke="midnightblue" points="1227.15,-904.5 1217.15,-908 1227.15,-911.5 1227.15,-904.5"/>
</g>
<!-- Node10 -->
<g id="node10" class="node"><title>Node10</title>
<g id="a_node10"><a xlink:href="class_c_block_tree_d_b.html#ad7a8a0cab9aa1bf37eeb52e8a44d47f6" target="_top" xlink:title="CBlockTreeDB::LoadBlockIndexGuts">
<polygon fill="white" stroke="red" points="1056,-670.5 1056,-689.5 1241,-689.5 1241,-670.5 1056,-670.5"/>
<text text-anchor="middle" x="1148.5" y="-677.5" font-family="Helvetica,sans-Serif" font-size="10.00">CBlockTreeDB::LoadBlockIndexGuts</text>
</a>
</g>
</g>
<!-- Node9&#45;&gt;Node10 -->
<g id="edge10" class="edge"><title>Node9&#45;&gt;Node10</title>
<path fill="none" stroke="midnightblue" d="M1030.44,-680C1038.89,-680 1047.45,-680 1055.89,-680"/>
<polygon fill="midnightblue" stroke="midnightblue" points="1030.2,-676.5 1020.2,-680 1030.2,-683.5 1030.2,-676.5"/>
</g>
<!-- Node12 -->
<g id="node12" class="node"><title>Node12</title>
<g id="a_node12"><a xlink:href="chainparams_8h.html#a5ea79f6881b2b728e4e732889fb0aa1b" target="_top" xlink:title="Creates and returns a std::unique_ptr&lt;CChainParams&gt; of the chosen chain. ">
<polygon fill="white" stroke="red" points="1092.5,-632.5 1092.5,-651.5 1204.5,-651.5 1204.5,-632.5 1092.5,-632.5"/>
<text text-anchor="middle" x="1148.5" y="-639.5" font-family="Helvetica,sans-Serif" font-size="10.00">CreateChainParams</text>
</a>
</g>
</g>
<!-- Node11&#45;&gt;Node12 -->
<g id="edge12" class="edge"><title>Node11&#45;&gt;Node12</title>
<path fill="none" stroke="midnightblue" d="M1022.98,-642C1046.37,-642 1071.08,-642 1092.26,-642"/>
<polygon fill="midnightblue" stroke="midnightblue" points="1022.7,-638.5 1012.7,-642 1022.7,-645.5 1022.7,-638.5"/>
</g>
<!-- Node16 -->
<g id="node16" class="node"><title>Node16</title>
<g id="a_node16"><a xlink:href="class_tx_index.html#acccd6ba0330149fe58eac33e9b7104df" target="_top" xlink:title="Get the name of the index for display in logs. ">
<polygon fill="white" stroke="black" points="1096,-495.5 1096,-514.5 1201,-514.5 1201,-495.5 1096,-495.5"/>
<text text-anchor="middle" x="1148.5" y="-502.5" font-family="Helvetica,sans-Serif" font-size="10.00">TxIndex::GetName</text>
</a>
</g>
</g>
<!-- Node15&#45;&gt;Node16 -->
<g id="edge16" class="edge"><title>Node15&#45;&gt;Node16</title>
<path fill="none" stroke="midnightblue" d="M990.291,-505C1022.68,-505 1063.83,-505 1095.9,-505"/>
<polygon fill="midnightblue" stroke="midnightblue" points="990.106,-501.5 980.106,-505 990.106,-508.5 990.106,-501.5"/>
</g>
<!-- Node18&#45;&gt;Node6 -->
<g id="edge20" class="edge"><title>Node18&#45;&gt;Node6</title>
<path fill="none" stroke="midnightblue" d="M1003.58,-964.285C1009.52,-967.182 1015.12,-970.709 1020,-975 1050.19,-1001.56 1025.62,-1031.66 1056,-1058 1062.97,-1064.04 1071.27,-1068.63 1079.98,-1072.13"/>
<polygon fill="midnightblue" stroke="midnightblue" points="1004.58,-960.911 994.011,-960.231 1001.85,-967.356 1004.58,-960.911"/>
</g>
<!-- Node18&#45;&gt;Node8 -->
<g id="edge23" class="edge"><title>Node18&#45;&gt;Node8</title>
<path fill="none" stroke="midnightblue" d="M993.605,-939.437C1020.13,-934.018 1051.94,-927.52 1079.74,-921.841"/>
<polygon fill="midnightblue" stroke="midnightblue" points="992.814,-936.026 983.717,-941.457 994.215,-942.885 992.814,-936.026"/>
</g>
<!-- Node19 -->
<g id="node19" class="node"><title>Node19</title>
<g id="a_node19"><a xlink:href="class_partially_downloaded_block.html#ade6114faf58b6260aeba06e7a65eb7f6" target="_top" xlink:title="PartiallyDownloadedBlock\l::IsTxAvailable">
<polygon fill="white" stroke="black" points="1080,-942 1080,-972 1217,-972 1217,-942 1080,-942"/>
<text text-anchor="start" x="1088" y="-960" font-family="Helvetica,sans-Serif" font-size="10.00">PartiallyDownloadedBlock</text>
<text text-anchor="middle" x="1148.5" y="-949" font-family="Helvetica,sans-Serif" font-size="10.00">::IsTxAvailable</text>
</a>
</g>
</g>
<!-- Node18&#45;&gt;Node19 -->
<g id="edge21" class="edge"><title>Node18&#45;&gt;Node19</title>
<path fill="none" stroke="midnightblue" d="M1004.37,-952.92C1028.49,-953.608 1055.66,-954.382 1079.81,-955.07"/>
<polygon fill="midnightblue" stroke="midnightblue" points="1004.34,-949.418 994.242,-952.632 1004.14,-956.415 1004.34,-949.418"/>
</g>
<!-- Node20 -->
<g id="node20" class="node"><title>Node20</title>
<g id="a_node20"><a xlink:href="group__map_wallet.html#gaa71bd6f5ab2fa70b25a8825955b739f8" target="_top" xlink:title="Scan the block chain (starting in start_block) for transactions from or to us. ">
<polygon fill="white" stroke="red" points="1057,-1029.5 1057,-1048.5 1240,-1048.5 1240,-1029.5 1057,-1029.5"/>
<text text-anchor="middle" x="1148.5" y="-1036.5" font-family="Helvetica,sans-Serif" font-size="10.00">CWallet::ScanForWalletTransactions</text>
</a>
</g>
</g>
<!-- Node18&#45;&gt;Node20 -->
<g id="edge24" class="edge"><title>Node18&#45;&gt;Node20</title>
<path fill="none" stroke="midnightblue" d="M997.883,-963.84C1005.67,-966.829 1013.26,-970.499 1020,-975 1041.3,-989.224 1034.17,-1006.6 1056,-1020 1062.36,-1023.9 1069.39,-1027.02 1076.64,-1029.5"/>
<polygon fill="midnightblue" stroke="midnightblue" points="998.932,-960.499 988.337,-960.521 996.633,-967.11 998.932,-960.499"/>
</g>
<!-- Node21 -->
<g id="node21" class="node"><title>Node21</title>
<g id="a_node21"><a xlink:href="rpcwallet_8cpp.html#a74b85c92ee6a84277c73b74f2e212bff" target="_top" xlink:title="listtransactions">
<polygon fill="white" stroke="red" points="1104,-991.5 1104,-1010.5 1193,-1010.5 1193,-991.5 1104,-991.5"/>
<text text-anchor="middle" x="1148.5" y="-998.5" font-family="Helvetica,sans-Serif" font-size="10.00">listtransactions</text>
</a>
</g>
</g>
<!-- Node18&#45;&gt;Node21 -->
<g id="edge25" class="edge"><title>Node18&#45;&gt;Node21</title>
<path fill="none" stroke="midnightblue" d="M981.621,-963.19C1003.9,-969.131 1031.3,-976.223 1056,-982 1071.48,-985.622 1088.52,-989.255 1103.65,-992.36"/>
<polygon fill="midnightblue" stroke="midnightblue" points="982.339,-959.758 971.773,-960.549 980.526,-966.52 982.339,-959.758"/>
</g>
<!-- Node19&#45;&gt;Node7 -->
<g id="edge22" class="edge"><title>Node19&#45;&gt;Node7</title>
<path fill="none" stroke="midnightblue" d="M1222.07,-939.57C1247.51,-933.458 1275.63,-926.705 1299.3,-921.018"/>
<polygon fill="midnightblue" stroke="midnightblue" points="1221,-936.227 1212.09,-941.965 1222.63,-943.033 1221,-936.227"/>
</g>
<!-- Node22&#45;&gt;Node22 -->
<g id="edge27" class="edge"><title>Node22&#45;&gt;Node22</title>
<path fill="none" stroke="midnightblue" d="M1327.99,-739.654C1329.1,-744.937 1337.94,-749 1354.5,-749 1379.74,-749 1387.03,-739.565 1376.39,-730.757"/>
<polygon fill="midnightblue" stroke="midnightblue" points="1331.11,-741.245 1332.61,-730.757 1324.9,-738.019 1331.11,-741.245"/>
</g>
<!-- Node23 -->
<g id="node23" class="node"><title>Node23</title>
<g id="a_node23"><a xlink:href="rpcwallet_8cpp.html#a236a42206aa464fbb10bae6e6243092b" target="_top" xlink:title="generate">
<polygon fill="white" stroke="red" points="1468,-711.5 1468,-730.5 1528,-730.5 1528,-711.5 1468,-711.5"/>
<text text-anchor="middle" x="1498" y="-718.5" font-family="Helvetica,sans-Serif" font-size="10.00">generate</text>
</a>
</g>
</g>
<!-- Node22&#45;&gt;Node23 -->
<g id="edge28" class="edge"><title>Node22&#45;&gt;Node23</title>
<path fill="none" stroke="midnightblue" d="M1410.3,-721C1429.85,-721 1451.11,-721 1467.68,-721"/>
<polygon fill="midnightblue" stroke="midnightblue" points="1410.27,-717.5 1400.27,-721 1410.27,-724.5 1410.27,-717.5"/>
</g>
<!-- Node25&#45;&gt;Node7 -->
<g id="edge33" class="edge"><title>Node25&#45;&gt;Node7</title>
<path fill="none" stroke="midnightblue" d="M1203.67,-838.107C1216.1,-841.462 1229.14,-845.452 1241,-850 1272.19,-861.962 1306,-880.166 1328.33,-892.983"/>
<polygon fill="midnightblue" stroke="midnightblue" points="1204.43,-834.687 1193.87,-835.555 1202.66,-841.462 1204.43,-834.687"/>
</g>
<!-- Node26 -->
<g id="node26" class="node"><title>Node26</title>
<g id="a_node26"><a xlink:href="class_c_script_check.html#a4bad3434ddad70669f634879a8af132e" target="_top" xlink:title="CScriptCheck::GetScriptError">
<polygon fill="white" stroke="black" points="1277,-771.5 1277,-790.5 1432,-790.5 1432,-771.5 1277,-771.5"/>
<text text-anchor="middle" x="1354.5" y="-778.5" font-family="Helvetica,sans-Serif" font-size="10.00">CScriptCheck::GetScriptError</text>
</a>
</g>
</g>
<!-- Node25&#45;&gt;Node26 -->
<g id="edge31" class="edge"><title>Node25&#45;&gt;Node26</title>
<path fill="none" stroke="midnightblue" d="M1202.84,-814.234C1236.32,-806.848 1278.94,-797.447 1310.3,-790.53"/>
<polygon fill="midnightblue" stroke="midnightblue" points="1201.77,-810.885 1192.76,-816.457 1203.28,-817.72 1201.77,-810.885"/>
</g>
<!-- Node27 -->
<g id="node27" class="node"><title>Node27</title>
<g id="a_node27"><a xlink:href="class_base_index.html#a96a7407421fbf877509248bbe64f8d87" target="_top" xlink:title="Sync the index with the block index starting from the current best block. ">
<polygon fill="white" stroke="red" points="1290.5,-816.5 1290.5,-835.5 1418.5,-835.5 1418.5,-816.5 1290.5,-816.5"/>
<text text-anchor="middle" x="1354.5" y="-823.5" font-family="Helvetica,sans-Serif" font-size="10.00">BaseIndex::ThreadSync</text>
</a>
</g>
</g>
<!-- Node25&#45;&gt;Node27 -->
<g id="edge32" class="edge"><title>Node25&#45;&gt;Node27</title>
<path fill="none" stroke="midnightblue" d="M1213.88,-826C1238.32,-826 1266.11,-826 1290.43,-826"/>
<polygon fill="midnightblue" stroke="midnightblue" points="1213.63,-822.5 1203.63,-826 1213.63,-829.5 1213.63,-822.5"/>
</g>
<!-- Node28&#45;&gt;Node29 -->
<g id="edge35" class="edge"><title>Node28&#45;&gt;Node29</title>
<path fill="none" stroke="midnightblue" d="M1020.05,-784.136C1047.56,-780.87 1077.18,-777.352 1100.94,-774.53"/>
<polygon fill="midnightblue" stroke="midnightblue" points="1019.55,-780.671 1010.03,-785.326 1020.37,-787.623 1019.55,-780.671"/>
</g>
<!-- Node29&#45;&gt;Node22 -->
<g id="edge37" class="edge"><title>Node29&#45;&gt;Node22</title>
<path fill="none" stroke="midnightblue" d="M1200.24,-757.061C1234.97,-748.889 1280.41,-738.197 1312.78,-730.582"/>
<polygon fill="midnightblue" stroke="midnightblue" points="1199.22,-753.704 1190.29,-759.402 1200.83,-760.518 1199.22,-753.704"/>
</g>
<!-- Node29&#45;&gt;Node26 -->
<g id="edge36" class="edge"><title>Node29&#45;&gt;Node26</title>
<path fill="none" stroke="midnightblue" d="M1206.14,-772.332C1227.99,-773.617 1253.32,-775.107 1276.76,-776.486"/>
<polygon fill="midnightblue" stroke="midnightblue" points="1206.23,-768.831 1196.05,-771.738 1205.82,-775.819 1206.23,-768.831"/>
</g>
<!-- Node35 -->
<g id="node35" class="node"><title>Node35</title>
<g id="a_node35"><a xlink:href="rpcwallet_8cpp.html#a4b35e53468d94704834a928013d7e716" target="_top" xlink:title="importprunedfunds">
<polygon fill="white" stroke="red" points="882,-281.5 882,-300.5 990,-300.5 990,-281.5 882,-281.5"/>
<text text-anchor="middle" x="936" y="-288.5" font-family="Helvetica,sans-Serif" font-size="10.00">importprunedfunds</text>
</a>
</g>
</g>
<!-- Node34&#45;&gt;Node35 -->
<g id="edge44" class="edge"><title>Node34&#45;&gt;Node35</title>
<path fill="none" stroke="midnightblue" d="M789.991,-293.047C819.615,-292.629 853.898,-292.145 881.689,-291.753"/>
<polygon fill="midnightblue" stroke="midnightblue" points="789.675,-289.551 779.726,-293.192 789.774,-296.551 789.675,-289.551"/>
</g>
<!-- Node37 -->
<g id="node37" class="node"><title>Node37</title>
<g id="a_node37"><a xlink:href="class_c_transaction.html#a6607e95af3e2851ee3b7fe335a05eb4c" target="_top" xlink:title="Convert a CMutableTransaction into a CTransaction. ">
<polygon fill="white" stroke="black" points="864,-240.5 864,-259.5 1008,-259.5 1008,-240.5 864,-240.5"/>
<text text-anchor="middle" x="936" y="-247.5" font-family="Helvetica,sans-Serif" font-size="10.00">CTransaction::CTransaction</text>
</a>
</g>
</g>
<!-- Node36&#45;&gt;Node37 -->
<g id="edge46" class="edge"><title>Node36&#45;&gt;Node37</title>
<path fill="none" stroke="midnightblue" d="M807.913,-250C826.454,-250 845.876,-250 863.8,-250"/>
<polygon fill="midnightblue" stroke="midnightblue" points="807.719,-246.5 797.719,-250 807.719,-253.5 807.719,-246.5"/>
</g>
<!-- Node38&#45;&gt;Node37 -->
<g id="edge48" class="edge"><title>Node38&#45;&gt;Node37</title>
<path fill="none" stroke="midnightblue" d="M785.953,-223.347C816.442,-228.799 852.576,-235.261 881.63,-240.456"/>
<polygon fill="midnightblue" stroke="midnightblue" points="786.308,-219.855 775.848,-221.54 785.076,-226.746 786.308,-219.855"/>
</g>
<!-- Node40 -->
<g id="node40" class="node"><title>Node40</title>
<g id="a_node40"><a xlink:href="class_c_key.html#abdc7d807f7a1b27ff3ad9dd5164a2273" target="_top" xlink:title="Check whether the public key corresponding to this private key is (to be) compressed. ">
<polygon fill="white" stroke="black" points="665,-157.5 665,-176.5 778,-176.5 778,-157.5 665,-157.5"/>
<text text-anchor="middle" x="721.5" y="-164.5" font-family="Helvetica,sans-Serif" font-size="10.00">CKey::IsCompressed</text>
</a>
</g>
</g>
<!-- Node39&#45;&gt;Node40 -->
<g id="edge50" class="edge"><title>Node39&#45;&gt;Node40</title>
<path fill="none" stroke="midnightblue" d="M579.934,-161.048C605.769,-160.083 637.884,-159.993 664.893,-160.778"/>
<polygon fill="midnightblue" stroke="midnightblue" points="579.481,-157.564 569.643,-161.496 579.786,-164.558 579.481,-157.564"/>
</g>
<!-- Node40&#45;&gt;Node39 -->
<g id="edge51" class="edge"><title>Node40&#45;&gt;Node39</title>
<path fill="none" stroke="midnightblue" d="M654.594,-173.475C626.116,-174.049 593.85,-173.725 569.643,-172.504"/>
<polygon fill="midnightblue" stroke="midnightblue" points="654.981,-176.966 664.893,-173.222 654.81,-169.968 654.981,-176.966"/>
</g>
<!-- Node41 -->
<g id="node41" class="node"><title>Node41</title>
<g id="a_node41"><a xlink:href="key__io_8h.html#a675809f738ce55f530880389fa330f66" target="_top" xlink:title="EncodeSecret">
<polygon fill="white" stroke="red" points="894.5,-114.5 894.5,-133.5 977.5,-133.5 977.5,-114.5 894.5,-114.5"/>
<text text-anchor="middle" x="936" y="-121.5" font-family="Helvetica,sans-Serif" font-size="10.00">EncodeSecret</text>
</a>
</g>
</g>
<!-- Node40&#45;&gt;Node41 -->
<g id="edge52" class="edge"><title>Node40&#45;&gt;Node41</title>
<path fill="none" stroke="midnightblue" d="M779.605,-155.445C815.852,-148.11 861.885,-138.795 894.413,-132.213"/>
<polygon fill="midnightblue" stroke="midnightblue" points="778.768,-152.043 769.661,-157.457 780.156,-158.904 778.768,-152.043"/>
</g>
<!-- Node44 -->
<g id="node44" class="node"><title>Node44</title>
<g id="a_node44"><a xlink:href="keystore_8h.html#a2325e8758e074d2f2cd564ba7da2d0e8" target="_top" xlink:title="Checks if a CKey is in the given CKeyStore compressed or otherwise. ">
<polygon fill="white" stroke="red" points="907,-202.5 907,-221.5 965,-221.5 965,-202.5 907,-202.5"/>
<text text-anchor="middle" x="936" y="-209.5" font-family="Helvetica,sans-Serif" font-size="10.00">HaveKey</text>
</a>
</g>
</g>
<!-- Node40&#45;&gt;Node44 -->
<g id="edge55" class="edge"><title>Node40&#45;&gt;Node44</title>
<path fill="none" stroke="midnightblue" d="M777.518,-178.651C818.959,-187.427 874.071,-199.097 906.905,-206.05"/>
<polygon fill="midnightblue" stroke="midnightblue" points="778.074,-175.191 767.566,-176.543 776.624,-182.039 778.074,-175.191"/>
</g>
<!-- Node46 -->
<g id="node46" class="node"><title>Node46</title>
<g id="a_node46"><a xlink:href="class_mutable_transaction_signature_creator.html#ad66cfa8bc9e1222e30125c90d1ecaddf" target="_top" xlink:title="Create a singular (non&#45;script) signature. ">
<polygon fill="white" stroke="red" points="858.5,-153 858.5,-183 1013.5,-183 1013.5,-153 858.5,-153"/>
<text text-anchor="start" x="866.5" y="-171" font-family="Helvetica,sans-Serif" font-size="10.00">MutableTransactionSignature</text>
<text text-anchor="middle" x="936" y="-160" font-family="Helvetica,sans-Serif" font-size="10.00">Creator::CreateSig</text>
</a>
</g>
</g>
<!-- Node40&#45;&gt;Node46 -->
<g id="edge57" class="edge"><title>Node40&#45;&gt;Node46</title>
<path fill="none" stroke="midnightblue" d="M788.335,-167.31C810.449,-167.414 835.307,-167.531 858.188,-167.639"/>
<polygon fill="midnightblue" stroke="midnightblue" points="788.071,-163.809 778.054,-167.261 788.038,-170.809 788.071,-163.809"/>
</g>
<!-- Node42 -->
<g id="node42" class="node"><title>Node42</title>
<g id="a_node42"><a xlink:href="wallet__tests_8cpp.html#a73ce3a42e0b56b2e4516e55871d8590e" target="_top" xlink:title="dumpwallet">
<polygon fill="white" stroke="black" points="1113,-76.5 1113,-95.5 1184,-95.5 1184,-76.5 1113,-76.5"/>
<text text-anchor="middle" x="1148.5" y="-83.5" font-family="Helvetica,sans-Serif" font-size="10.00">dumpwallet</text>
</a>
</g>
</g>
<!-- Node41&#45;&gt;Node42 -->
<g id="edge53" class="edge"><title>Node41&#45;&gt;Node42</title>
<path fill="none" stroke="midnightblue" d="M987.633,-114.86C1026.42,-107.858 1078.89,-98.3861 1112.96,-92.235"/>
<polygon fill="midnightblue" stroke="midnightblue" points="986.806,-111.452 977.587,-116.673 988.049,-118.341 986.806,-111.452"/>
</g>
<!-- Node43 -->
<g id="node43" class="node"><title>Node43</title>
<g id="a_node43"><a xlink:href="wallet__tests_8cpp.html#a2a726fa52b0a343883cb50a3f68d0989" target="_top" xlink:title="BOOST_FIXTURE_TEST_CASE">
<polygon fill="white" stroke="black" points="1277.5,-76.5 1277.5,-95.5 1431.5,-95.5 1431.5,-76.5 1277.5,-76.5"/>
<text text-anchor="middle" x="1354.5" y="-83.5" font-family="Helvetica,sans-Serif" font-size="10.00">BOOST_FIXTURE_TEST_CASE</text>
</a>
</g>
</g>
<!-- Node42&#45;&gt;Node43 -->
<g id="edge54" class="edge"><title>Node42&#45;&gt;Node43</title>
<path fill="none" stroke="midnightblue" d="M1194.43,-86C1218.69,-86 1249.3,-86 1277.18,-86"/>
<polygon fill="midnightblue" stroke="midnightblue" points="1194.11,-82.5001 1184.11,-86 1194.11,-89.5001 1194.11,-82.5001"/>
</g>
<!-- Node45 -->
<g id="node45" class="node"><title>Node45</title>
<g id="a_node45"><a xlink:href="group__map_wallet.html#gafb01fcc10d890174b2db560a7f27b58a" target="_top" xlink:title="CWallet::DeriveNewChildKey">
<polygon fill="white" stroke="black" points="1074.5,-177.5 1074.5,-196.5 1222.5,-196.5 1222.5,-177.5 1074.5,-177.5"/>
<text text-anchor="middle" x="1148.5" y="-184.5" font-family="Helvetica,sans-Serif" font-size="10.00">CWallet::DeriveNewChildKey</text>
</a>
</g>
</g>
<!-- Node44&#45;&gt;Node45 -->
<g id="edge56" class="edge"><title>Node44&#45;&gt;Node45</title>
<path fill="none" stroke="midnightblue" d="M975.422,-207.437C1003.02,-204.159 1041.07,-199.64 1074.38,-195.685"/>
<polygon fill="midnightblue" stroke="midnightblue" points="974.906,-203.973 965.389,-208.628 975.732,-210.925 974.906,-203.973"/>
</g>
<!-- Node48&#45;&gt;Node42 -->
<g id="edge63" class="edge"><title>Node48&#45;&gt;Node42</title>
<path fill="none" stroke="midnightblue" d="M446.114,-74.971C454.771,-73.7392 463.595,-72.6836 472,-72 714.754,-52.2569 776.808,-58.6883 1020,-72 1051.57,-73.7283 1087.35,-77.8467 1112.95,-81.172"/>
<polygon fill="midnightblue" stroke="midnightblue" points="445.431,-71.5345 436.064,-76.4864 446.475,-78.4562 445.431,-71.5345"/>
</g>
<!-- Node48&#45;&gt;Node45 -->
<g id="edge60" class="edge"><title>Node48&#45;&gt;Node45</title>
<path fill="none" stroke="midnightblue" d="M446.509,-83.7351C583.239,-79.2286 914.247,-72.1986 1020,-105 1068.51,-120.047 1116.35,-159.013 1136.95,-177.28"/>
<polygon fill="midnightblue" stroke="midnightblue" points="446.102,-80.2467 436.225,-84.0814 446.338,-87.2428 446.102,-80.2467"/>
</g>
<!-- Node49 -->
<g id="node49" class="node"><title>Node49</title>
<g id="a_node49"><a xlink:href="class_c_wallet.html#a4fded992ac1b212e1b59ab777646b1e4" target="_top" xlink:title="Implement lookup of key origin information through wallet key metadata. ">
<polygon fill="white" stroke="black" points="472,-0.5 472,-19.5 591,-19.5 591,-0.5 472,-0.5"/>
<text text-anchor="middle" x="531.5" y="-7.5" font-family="Helvetica,sans-Serif" font-size="10.00">CWallet::GetKeyOrigin</text>
</a>
</g>
</g>
<!-- Node48&#45;&gt;Node49 -->
<g id="edge61" class="edge"><title>Node48&#45;&gt;Node49</title>
<path fill="none" stroke="midnightblue" d="M409.254,-70.8096C426.167,-59.8563 450.02,-45.1063 472,-34 482.484,-28.7027 494.424,-23.6408 504.771,-19.5431"/>
<polygon fill="midnightblue" stroke="midnightblue" points="407.078,-68.0512 400.628,-76.457 410.912,-73.9077 407.078,-68.0512"/>
</g>
<!-- Node50 -->
<g id="node50" class="node"><title>Node50</title>
<g id="a_node50"><a xlink:href="rpcwallet_8cpp.html#a614a0b6d4fe51abf85bdb57475cb9d48" target="_top" xlink:title="AddKeypathToMap">
<polygon fill="white" stroke="black" points="669.5,-0.5 669.5,-19.5 773.5,-19.5 773.5,-0.5 669.5,-0.5"/>
<text text-anchor="middle" x="721.5" y="-7.5" font-family="Helvetica,sans-Serif" font-size="10.00">AddKeypathToMap</text>
</a>
</g>
</g>
<!-- Node49&#45;&gt;Node50 -->
<g id="edge62" class="edge"><title>Node49&#45;&gt;Node50</title>
<path fill="none" stroke="midnightblue" d="M601.356,-10C623.796,-10 648.299,-10 669.217,-10"/>
<polygon fill="midnightblue" stroke="midnightblue" points="601.211,-6.5001 591.211,-10 601.211,-13.5001 601.211,-6.5001"/>
</g>
</g>
</svg>
