<?xml version="1.0" encoding="UTF-8" standalone="no"?>
<!DOCTYPE svg PUBLIC "-//W3C//DTD SVG 1.1//EN"
 "http://www.w3.org/Graphics/SVG/1.1/DTD/svg11.dtd">
<!-- Generated by graphviz version 2.49.3 (0)
 -->
<!-- Title: CConnman::DisconnectNode Pages: 1 -->
<svg width="1089pt" height="85pt"
 viewBox="0.00 0.00 1089.00 85.00" xmlns="http://www.w3.org/2000/svg" xmlns:xlink="http://www.w3.org/1999/xlink">
<g id="graph0" class="graph" transform="scale(1 1) rotate(0) translate(4 81)">
<title>CConnman::DisconnectNode</title>
<polygon fill="white" stroke="transparent" points="-4,4 -4,-81 1085,-81 1085,4 -4,4"/>
<!-- Node1 -->
<g id="node1" class="node">
<title>Node1</title>
<g id="a_node1"><a xlink:title=" ">
<polygon fill="#bfbfbf" stroke="black" points="926,-19.5 926,-38.5 1081,-38.5 1081,-19.5 926,-19.5"/>
<text text-anchor="middle" x="1003.5" y="-26.5" font-family="Helvetica,sans-Serif" font-size="10.00">CConnman::DisconnectNode</text>
</a>
</g>
</g>
<!-- Node2 -->
<g id="node2" class="node">
<title>Node2</title>
<g id="a_node2"><a xlink:href="rpc_2net_8cpp.html#a982e3340a0f10ab75c0424f1965b5d4b" target="_top" xlink:title=" ">
<polygon fill="white" stroke="black" points="766,-38.5 766,-57.5 859,-57.5 859,-38.5 766,-38.5"/>
<text text-anchor="middle" x="812.5" y="-45.5" font-family="Helvetica,sans-Serif" font-size="10.00">disconnectnode</text>
</a>
</g>
</g>
<!-- Node1&#45;&gt;Node2 -->
<g id="edge1" class="edge">
<title>Node1&#45;&gt;Node2</title>
<path fill="none" stroke="midnightblue" d="M915.75,-37.72C896.24,-39.68 876.28,-41.69 859.24,-43.4"/>
<polygon fill="midnightblue" stroke="midnightblue" points="916.3,-41.18 925.9,-36.7 915.6,-34.22 916.3,-41.18"/>
</g>
<!-- Node9 -->
<g id="node9" class="node">
<title>Node9</title>
<g id="a_node9"><a xlink:href="class_c_connman.html#aab610ca9a0be107efb338da193402d4b" target="_top" xlink:title=" ">
<polygon fill="white" stroke="black" points="735,-0.5 735,-19.5 890,-19.5 890,-0.5 735,-0.5"/>
<text text-anchor="middle" x="812.5" y="-7.5" font-family="Helvetica,sans-Serif" font-size="10.00">CConnman::DisconnectNode</text>
</a>
</g>
</g>
<!-- Node1&#45;&gt;Node9 -->
<g id="edge8" class="edge">
<title>Node1&#45;&gt;Node9</title>
<path fill="none" stroke="midnightblue" d="M915.9,-20.29C907.33,-19.43 898.67,-18.56 890.21,-17.71"/>
<polygon fill="midnightblue" stroke="midnightblue" points="915.6,-23.78 925.9,-21.3 916.3,-16.82 915.6,-23.78"/>
</g>
<!-- Node3 -->
<g id="node3" class="node">
<title>Node3</title>
<g id="a_node3"><a xlink:href="rpc_2net_8cpp.html#a28d74cfde8ea9a283031986e9e0068bf" target="_top" xlink:title="Register P2P networking RPC commands.">
<polygon fill="white" stroke="black" points="550,-38.5 550,-57.5 699,-57.5 699,-38.5 550,-38.5"/>
<text text-anchor="middle" x="624.5" y="-45.5" font-family="Helvetica,sans-Serif" font-size="10.00">RegisterNetRPCCommands</text>
</a>
</g>
</g>
<!-- Node2&#45;&gt;Node3 -->
<g id="edge2" class="edge">
<title>Node2&#45;&gt;Node3</title>
<path fill="none" stroke="midnightblue" d="M755.8,-48C738,-48 718.02,-48 699.15,-48"/>
<polygon fill="midnightblue" stroke="midnightblue" points="756,-51.5 766,-48 756,-44.5 756,-51.5"/>
</g>
<!-- Node4 -->
<g id="node4" class="node">
<title>Node4</title>
<g id="a_node4"><a xlink:href="register_8h.html#ac918c8838bc97cf6c3c18ddc8330354e" target="_top" xlink:title=" ">
<polygon fill="white" stroke="black" points="347,-38.5 347,-57.5 514,-57.5 514,-38.5 347,-38.5"/>
<text text-anchor="middle" x="430.5" y="-45.5" font-family="Helvetica,sans-Serif" font-size="10.00">RegisterAllCoreRPCCommands</text>
</a>
</g>
</g>
<!-- Node3&#45;&gt;Node4 -->
<g id="edge3" class="edge">
<title>Node3&#45;&gt;Node4</title>
<path fill="none" stroke="midnightblue" d="M539.63,-48C531.21,-48 522.67,-48 514.27,-48"/>
<polygon fill="midnightblue" stroke="midnightblue" points="539.82,-51.5 549.82,-48 539.82,-44.5 539.82,-51.5"/>
</g>
<!-- Node5 -->
<g id="node5" class="node">
<title>Node5</title>
<g id="a_node5"><a xlink:href="init_8cpp.html#ad2bfca84e560eb87fbfbe9c20f893374" target="_top" xlink:title="Bitcoin core main initialization.">
<polygon fill="white" stroke="black" points="200,-57.5 200,-76.5 275,-76.5 275,-57.5 200,-57.5"/>
<text text-anchor="middle" x="237.5" y="-64.5" font-family="Helvetica,sans-Serif" font-size="10.00">AppInitMain</text>
</a>
</g>
</g>
<!-- Node4&#45;&gt;Node5 -->
<g id="edge4" class="edge">
<title>Node4&#45;&gt;Node5</title>
<path fill="none" stroke="midnightblue" d="M336.83,-57.22C314.98,-59.39 292.93,-61.59 275.26,-63.34"/>
<polygon fill="midnightblue" stroke="midnightblue" points="337.23,-60.7 346.84,-56.22 336.54,-53.73 337.23,-60.7"/>
</g>
<!-- Node8 -->
<g id="node8" class="node">
<title>Node8</title>
<g id="a_node8"><a xlink:href="struct_testing_setup.html#ac1d74d948830f0dfc4eba7e4cea94cf9" target="_top" xlink:title=" ">
<polygon fill="white" stroke="black" points="164,-19.5 164,-38.5 311,-38.5 311,-19.5 164,-19.5"/>
<text text-anchor="middle" x="237.5" y="-26.5" font-family="Helvetica,sans-Serif" font-size="10.00">TestingSetup::TestingSetup</text>
</a>
</g>
</g>
<!-- Node4&#45;&gt;Node8 -->
<g id="edge7" class="edge">
<title>Node4&#45;&gt;Node8</title>
<path fill="none" stroke="midnightblue" d="M336.75,-38.77C328.13,-37.92 319.49,-37.06 311.09,-36.22"/>
<polygon fill="midnightblue" stroke="midnightblue" points="336.54,-42.27 346.84,-39.78 337.23,-35.3 336.54,-42.27"/>
</g>
<!-- Node6 -->
<g id="node6" class="node">
<title>Node6</title>
<g id="a_node6"><a xlink:href="bitcoind_8cpp.html#a111f3c7b82a1c083ce04328e970f5aca" target="_top" xlink:title=" ">
<polygon fill="white" stroke="black" points="77,-57.5 77,-76.5 128,-76.5 128,-57.5 77,-57.5"/>
<text text-anchor="middle" x="102.5" y="-64.5" font-family="Helvetica,sans-Serif" font-size="10.00">AppInit</text>
</a>
</g>
</g>
<!-- Node5&#45;&gt;Node6 -->
<g id="edge5" class="edge">
<title>Node5&#45;&gt;Node6</title>
<path fill="none" stroke="midnightblue" d="M189.61,-67C168.95,-67 145.51,-67 128.31,-67"/>
<polygon fill="midnightblue" stroke="midnightblue" points="189.81,-70.5 199.81,-67 189.81,-63.5 189.81,-70.5"/>
</g>
<!-- Node7 -->
<g id="node7" class="node">
<title>Node7</title>
<g id="a_node7"><a xlink:href="bitcoind_8cpp.html#a0ddf1224851353fc92bfbff6f499fa97" target="_top" xlink:title=" ">
<polygon fill="white" stroke="black" points="0,-57.5 0,-76.5 41,-76.5 41,-57.5 0,-57.5"/>
<text text-anchor="middle" x="20.5" y="-64.5" font-family="Helvetica,sans-Serif" font-size="10.00">main</text>
</a>
</g>
</g>
<!-- Node6&#45;&gt;Node7 -->
<g id="edge6" class="edge">
<title>Node6&#45;&gt;Node7</title>
<path fill="none" stroke="midnightblue" d="M66.59,-67C57.83,-67 48.73,-67 41.02,-67"/>
<polygon fill="midnightblue" stroke="midnightblue" points="66.63,-70.5 76.63,-67 66.63,-63.5 66.63,-70.5"/>
</g>
</g>
</svg>
