<?xml version="1.0" encoding="UTF-8" standalone="no"?>
<!DOCTYPE svg PUBLIC "-//W3C//DTD SVG 1.1//EN"
 "http://www.w3.org/Graphics/SVG/1.1/DTD/svg11.dtd">
<!-- Generated by graphviz version 2.49.3 (0)
 -->
<!-- Title: SigningProvider::GetKey Pages: 1 -->
<svg width="530pt" height="137pt"
 viewBox="0.00 0.00 530.00 137.00" xmlns="http://www.w3.org/2000/svg" xmlns:xlink="http://www.w3.org/1999/xlink">
<g id="graph0" class="graph" transform="scale(1 1) rotate(0) translate(4 133)">
<title>SigningProvider::GetKey</title>
<polygon fill="white" stroke="transparent" points="-4,4 -4,-133 526,-133 526,4 -4,4"/>
<!-- Node1 -->
<g id="node1" class="node">
<title>Node1</title>
<g id="a_node1"><a xlink:title=" ">
<polygon fill="#bfbfbf" stroke="black" points="388,-55 388,-74 522,-74 522,-55 388,-55"/>
<text text-anchor="middle" x="455" y="-62" font-family="Helvetica,sans-Serif" font-size="10.00">SigningProvider::GetKey</text>
</a>
</g>
</g>
<!-- Node2 -->
<g id="node2" class="node">
<title>Node2</title>
<g id="a_node2"><a xlink:href="class_mutable_transaction_signature_creator.html#ad66cfa8bc9e1222e30125c90d1ecaddf" target="_top" xlink:title="Create a singular (non&#45;script) signature.">
<polygon fill="white" stroke="black" points="194,-98.5 194,-128.5 352,-128.5 352,-98.5 194,-98.5"/>
<text text-anchor="start" x="202" y="-116.5" font-family="Helvetica,sans-Serif" font-size="10.00">MutableTransactionSignature</text>
<text text-anchor="middle" x="273" y="-105.5" font-family="Helvetica,sans-Serif" font-size="10.00">Creator::CreateSig</text>
</a>
</g>
</g>
<!-- Node1&#45;&gt;Node2 -->
<g id="edge1" class="edge">
<title>Node1&#45;&gt;Node2</title>
<path fill="none" stroke="midnightblue" d="M408.9,-76.78C384.74,-83.35 354.78,-91.51 329.24,-98.46"/>
<polygon fill="midnightblue" stroke="midnightblue" points="410.14,-80.07 418.87,-74.06 408.3,-73.31 410.14,-80.07"/>
</g>
<!-- Node3 -->
<g id="node3" class="node">
<title>Node3</title>
<g id="a_node3"><a xlink:href="class_hiding_signing_provider.html#a39f2c6985440995db9ac81979b746b46" target="_top" xlink:title=" ">
<polygon fill="white" stroke="black" points="210.5,-49.5 210.5,-79.5 335.5,-79.5 335.5,-49.5 210.5,-49.5"/>
<text text-anchor="start" x="218.5" y="-67.5" font-family="Helvetica,sans-Serif" font-size="10.00">HidingSigningProvider</text>
<text text-anchor="middle" x="273" y="-56.5" font-family="Helvetica,sans-Serif" font-size="10.00">::GetKey</text>
</a>
</g>
</g>
<!-- Node1&#45;&gt;Node3 -->
<g id="edge2" class="edge">
<title>Node1&#45;&gt;Node3</title>
<path fill="none" stroke="midnightblue" d="M377.82,-64.5C363.7,-64.5 349.12,-64.5 335.51,-64.5"/>
<polygon fill="midnightblue" stroke="midnightblue" points="378,-68 388,-64.5 378,-61 378,-68"/>
</g>
<!-- Node4 -->
<g id="node4" class="node">
<title>Node4</title>
<g id="a_node4"><a xlink:href="class_signing_provider.html#aa7b6eb6fbdffd91b5a7fdc56b34f35fc" target="_top" xlink:title=" ">
<polygon fill="white" stroke="black" points="199.5,-0.5 199.5,-30.5 346.5,-30.5 346.5,-0.5 199.5,-0.5"/>
<text text-anchor="start" x="207.5" y="-18.5" font-family="Helvetica,sans-Serif" font-size="10.00">SigningProvider::GetKeyBy</text>
<text text-anchor="middle" x="273" y="-7.5" font-family="Helvetica,sans-Serif" font-size="10.00">XOnly</text>
</a>
</g>
</g>
<!-- Node1&#45;&gt;Node4 -->
<g id="edge3" class="edge">
<title>Node1&#45;&gt;Node4</title>
<path fill="none" stroke="midnightblue" d="M408.9,-52.22C384.74,-45.65 354.78,-37.49 329.24,-30.54"/>
<polygon fill="midnightblue" stroke="midnightblue" points="408.3,-55.69 418.87,-54.94 410.14,-48.93 408.3,-55.69"/>
</g>
<!-- Node5 -->
<g id="node5" class="node">
<title>Node5</title>
<g id="a_node5"><a xlink:href="class_mutable_transaction_signature_creator.html#a2ec218c6ac899256f2074726cd9d6102" target="_top" xlink:title=" ">
<polygon fill="white" stroke="black" points="0,-0.5 0,-30.5 158,-30.5 158,-0.5 0,-0.5"/>
<text text-anchor="start" x="8" y="-18.5" font-family="Helvetica,sans-Serif" font-size="10.00">MutableTransactionSignature</text>
<text text-anchor="middle" x="79" y="-7.5" font-family="Helvetica,sans-Serif" font-size="10.00">Creator::CreateSchnorrSig</text>
</a>
</g>
</g>
<!-- Node4&#45;&gt;Node5 -->
<g id="edge4" class="edge">
<title>Node4&#45;&gt;Node5</title>
<path fill="none" stroke="midnightblue" d="M189.19,-15.5C178.89,-15.5 168.37,-15.5 158.14,-15.5"/>
<polygon fill="midnightblue" stroke="midnightblue" points="189.41,-19 199.41,-15.5 189.41,-12 189.41,-19"/>
</g>
</g>
</svg>
