<?xml version="1.0" encoding="UTF-8" standalone="no"?>
<!DOCTYPE svg PUBLIC "-//W3C//DTD SVG 1.1//EN"
 "http://www.w3.org/Graphics/SVG/1.1/DTD/svg11.dtd">
<!-- Generated by graphviz version 2.38.0 (20140413.2041)
 -->
<!-- Title: CMerkleTx::IsImmatureCoinBase Pages: 1 -->
<svg width="726pt" height="142pt"
 viewBox="0.00 0.00 726.00 142.00" xmlns="http://www.w3.org/2000/svg" xmlns:xlink="http://www.w3.org/1999/xlink">
<g id="graph0" class="graph" transform="scale(1 1) rotate(0) translate(4 138)">
<title>CMerkleTx::IsImmatureCoinBase</title>
<polygon fill="white" stroke="none" points="-4,4 -4,-138 722,-138 722,4 -4,4"/>
<!-- Node1 -->
<g id="node1" class="node"><title>Node1</title>
<polygon fill="#bfbfbf" stroke="black" points="0,-57.5 0,-76.5 171,-76.5 171,-57.5 0,-57.5"/>
<text text-anchor="middle" x="85.5" y="-64.5" font-family="Helvetica,sans-Serif" font-size="10.00">CMerkleTx::IsImmatureCoinBase</text>
</g>
<!-- Node2 -->
<g id="node2" class="node"><title>Node2</title>
<g id="a_node2"><a xlink:href="group___actions.html#ga84eceaf4e068f3d5167f909a7d7d7d86" target="_top" xlink:title="CWallet::GetLegacyBalance">
<polygon fill="white" stroke="black" points="212.5,-114.5 212.5,-133.5 358.5,-133.5 358.5,-114.5 212.5,-114.5"/>
<text text-anchor="middle" x="285.5" y="-121.5" font-family="Helvetica,sans-Serif" font-size="10.00">CWallet::GetLegacyBalance</text>
</a>
</g>
</g>
<!-- Node1&#45;&gt;Node2 -->
<g id="edge1" class="edge"><title>Node1&#45;&gt;Node2</title>
<path fill="none" stroke="midnightblue" d="M124.705,-79.7475C148.305,-87.4473 179.275,-97.2388 207,-105 218.74,-108.286 231.566,-111.558 243.345,-114.438"/>
<polygon fill="midnightblue" stroke="midnightblue" points="125.665,-76.3791 115.073,-76.5876 123.483,-83.0304 125.665,-76.3791"/>
</g>
<!-- Node4 -->
<g id="node4" class="node"><title>Node4</title>
<g id="a_node4"><a xlink:href="group___actions.html#gaa7b36dcdaf3f8053d2781dfcf33f1c59" target="_top" xlink:title="populate vCoins with vector of available COutputs. ">
<polygon fill="white" stroke="black" points="223,-38.5 223,-57.5 348,-57.5 348,-38.5 223,-38.5"/>
<text text-anchor="middle" x="285.5" y="-45.5" font-family="Helvetica,sans-Serif" font-size="10.00">CWallet::AvailableCoins</text>
</a>
</g>
</g>
<!-- Node1&#45;&gt;Node4 -->
<g id="edge3" class="edge"><title>Node1&#45;&gt;Node4</title>
<path fill="none" stroke="midnightblue" d="M181.321,-57.901C195.485,-56.5418 209.764,-55.1717 222.994,-53.9021"/>
<polygon fill="midnightblue" stroke="midnightblue" points="180.664,-54.4479 171.044,-58.8872 181.333,-61.4159 180.664,-54.4479"/>
</g>
<!-- Node8 -->
<g id="node8" class="node"><title>Node8</title>
<g id="a_node8"><a xlink:href="group___actions.html#ga0bbcbd8b9632b13e646f046d4dcc17d6" target="_top" xlink:title="CWallet::GetAddressBalances">
<polygon fill="white" stroke="black" points="207,-76.5 207,-95.5 364,-95.5 364,-76.5 207,-76.5"/>
<text text-anchor="middle" x="285.5" y="-83.5" font-family="Helvetica,sans-Serif" font-size="10.00">CWallet::GetAddressBalances</text>
</a>
</g>
</g>
<!-- Node1&#45;&gt;Node8 -->
<g id="edge7" class="edge"><title>Node1&#45;&gt;Node8</title>
<path fill="none" stroke="midnightblue" d="M181.117,-76.0794C189.729,-76.9058 198.385,-77.7364 206.823,-78.5462"/>
<polygon fill="midnightblue" stroke="midnightblue" points="181.333,-72.5841 171.044,-75.1128 180.664,-79.5521 181.333,-72.5841"/>
</g>
<!-- Node9 -->
<g id="node9" class="node"><title>Node9</title>
<g id="a_node9"><a xlink:href="structtallyitem.html#ae5422f8bac6178b3e7dd634d6bfc454c" target="_top" xlink:title="tallyitem::tallyitem">
<polygon fill="white" stroke="black" points="233,-0.5 233,-19.5 338,-19.5 338,-0.5 233,-0.5"/>
<text text-anchor="middle" x="285.5" y="-7.5" font-family="Helvetica,sans-Serif" font-size="10.00">tallyitem::tallyitem</text>
</a>
</g>
</g>
<!-- Node1&#45;&gt;Node9 -->
<g id="edge9" class="edge"><title>Node1&#45;&gt;Node9</title>
<path fill="none" stroke="midnightblue" d="M124.705,-54.2525C148.305,-46.5527 179.275,-36.7612 207,-29 218.74,-25.7136 231.566,-22.4415 243.345,-19.5622"/>
<polygon fill="midnightblue" stroke="midnightblue" points="123.483,-50.9696 115.073,-57.4124 125.665,-57.6209 123.483,-50.9696"/>
</g>
<!-- Node3 -->
<g id="node3" class="node"><title>Node3</title>
<g id="a_node3"><a xlink:href="rpcwallet_8cpp.html#a7424e87562c3781c88662ebfb6ef7e4a" target="_top" xlink:title="GetLabelDestination">
<polygon fill="white" stroke="black" points="420,-95.5 420,-114.5 534,-114.5 534,-95.5 420,-95.5"/>
<text text-anchor="middle" x="477" y="-102.5" font-family="Helvetica,sans-Serif" font-size="10.00">GetLabelDestination</text>
</a>
</g>
</g>
<!-- Node2&#45;&gt;Node3 -->
<g id="edge2" class="edge"><title>Node2&#45;&gt;Node3</title>
<path fill="none" stroke="midnightblue" d="M368.77,-115.751C386.044,-114.019 403.881,-112.231 419.931,-110.622"/>
<polygon fill="midnightblue" stroke="midnightblue" points="368.283,-112.282 358.682,-116.763 368.982,-119.248 368.283,-112.282"/>
</g>
<!-- Node5 -->
<g id="node5" class="node"><title>Node5</title>
<g id="a_node5"><a xlink:href="rpcwallet_8cpp.html#a74b85c92ee6a84277c73b74f2e212bff" target="_top" xlink:title="listtransactions">
<polygon fill="white" stroke="black" points="432.5,-57.5 432.5,-76.5 521.5,-76.5 521.5,-57.5 432.5,-57.5"/>
<text text-anchor="middle" x="477" y="-64.5" font-family="Helvetica,sans-Serif" font-size="10.00">listtransactions</text>
</a>
</g>
</g>
<!-- Node4&#45;&gt;Node5 -->
<g id="edge4" class="edge"><title>Node4&#45;&gt;Node5</title>
<path fill="none" stroke="midnightblue" d="M358.206,-55.1895C383.198,-57.6953 410.467,-60.4294 432.468,-62.6353"/>
<polygon fill="midnightblue" stroke="midnightblue" points="358.325,-51.6839 348.025,-54.1688 357.626,-58.649 358.325,-51.6839"/>
</g>
<!-- Node7 -->
<g id="node7" class="node"><title>Node7</title>
<g id="a_node7"><a xlink:href="wallet__tests_8cpp.html#a5124bfced35ed545732a62fc7c82f9b1" target="_top" xlink:title="BOOST_FIXTURE_TEST_CASE">
<polygon fill="white" stroke="black" points="400,-19.5 400,-38.5 554,-38.5 554,-19.5 400,-19.5"/>
<text text-anchor="middle" x="477" y="-26.5" font-family="Helvetica,sans-Serif" font-size="10.00">BOOST_FIXTURE_TEST_CASE</text>
</a>
</g>
</g>
<!-- Node4&#45;&gt;Node7 -->
<g id="edge6" class="edge"><title>Node4&#45;&gt;Node7</title>
<path fill="none" stroke="midnightblue" d="M358.272,-40.8038C371.87,-39.4405 386.14,-38.0097 399.867,-36.6334"/>
<polygon fill="midnightblue" stroke="midnightblue" points="357.626,-37.351 348.025,-41.8312 358.325,-44.3161 357.626,-37.351"/>
</g>
<!-- Node6 -->
<g id="node6" class="node"><title>Node6</title>
<g id="a_node6"><a xlink:href="rpcwallet_8cpp.html#afca55ac7a3c6c274b8b7b3e6eab9cd86" target="_top" xlink:title="walletcreatefundedpsbt">
<polygon fill="white" stroke="black" points="590,-57.5 590,-76.5 718,-76.5 718,-57.5 590,-57.5"/>
<text text-anchor="middle" x="654" y="-64.5" font-family="Helvetica,sans-Serif" font-size="10.00">walletcreatefundedpsbt</text>
</a>
</g>
</g>
<!-- Node5&#45;&gt;Node6 -->
<g id="edge5" class="edge"><title>Node5&#45;&gt;Node6</title>
<path fill="none" stroke="midnightblue" d="M531.889,-67C550.174,-67 570.767,-67 589.716,-67"/>
<polygon fill="midnightblue" stroke="midnightblue" points="531.709,-63.5001 521.708,-67 531.708,-70.5001 531.709,-63.5001"/>
</g>
<!-- Node8&#45;&gt;Node3 -->
<g id="edge8" class="edge"><title>Node8&#45;&gt;Node3</title>
<path fill="none" stroke="midnightblue" d="M374.278,-94.801C389.813,-96.3586 405.599,-97.9413 419.954,-99.3806"/>
<polygon fill="midnightblue" stroke="midnightblue" points="374.423,-91.298 364.124,-93.7828 373.725,-98.2631 374.423,-91.298"/>
</g>
</g>
</svg>
