<?xml version="1.0" encoding="UTF-8" standalone="no"?>
<!DOCTYPE svg PUBLIC "-//W3C//DTD SVG 1.1//EN"
 "http://www.w3.org/Graphics/SVG/1.1/DTD/svg11.dtd">
<!-- Generated by graphviz version 2.49.3 (0)
 -->
<!-- Title: AddrInfo Pages: 1 -->
<svg width="118pt" height="209pt"
 viewBox="0.00 0.00 117.50 209.00" xmlns="http://www.w3.org/2000/svg" xmlns:xlink="http://www.w3.org/1999/xlink">
<g id="graph0" class="graph" transform="scale(1 1) rotate(0) translate(4 205)">
<title>AddrInfo</title>
<polygon fill="white" stroke="transparent" points="-4,4 -4,-205 113.5,-205 113.5,4 -4,4"/>
<!-- Node1 -->
<g id="node1" class="node">
<title>Node1</title>
<g id="a_node1"><a xlink:title="Extended statistics about a CAddress.">
<polygon fill="#bfbfbf" stroke="black" points="11.5,-0.5 11.5,-19.5 69.5,-19.5 69.5,-0.5 11.5,-0.5"/>
<text text-anchor="middle" x="40.5" y="-7.5" font-family="Helvetica,sans-Serif" font-size="10.00">AddrInfo</text>
</a>
</g>
</g>
<!-- Node2 -->
<g id="node2" class="node">
<title>Node2</title>
<g id="a_node2"><a xlink:href="class_c_address.html" target="_top" xlink:title="A CService with information about it as peer.">
<polygon fill="white" stroke="black" points="47.5,-57.5 47.5,-76.5 109.5,-76.5 109.5,-57.5 47.5,-57.5"/>
<text text-anchor="middle" x="78.5" y="-64.5" font-family="Helvetica,sans-Serif" font-size="10.00">CAddress</text>
</a>
</g>
</g>
<!-- Node2&#45;&gt;Node1 -->
<g id="edge1" class="edge">
<title>Node2&#45;&gt;Node1</title>
<path fill="none" stroke="midnightblue" d="M66.71,-48.94C60.02,-39.25 51.93,-27.54 46.52,-19.71"/>
<polygon fill="midnightblue" stroke="midnightblue" points="64,-51.17 72.56,-57.41 69.76,-47.19 64,-51.17"/>
</g>
<!-- Node3 -->
<g id="node3" class="node">
<title>Node3</title>
<g id="a_node3"><a xlink:href="class_c_service.html" target="_top" xlink:title="A combination of a network address (CNetAddr) and a (TCP) port.">
<polygon fill="white" stroke="black" points="48,-124.5 48,-143.5 107,-143.5 107,-124.5 48,-124.5"/>
<text text-anchor="middle" x="77.5" y="-131.5" font-family="Helvetica,sans-Serif" font-size="10.00">CService</text>
</a>
</g>
</g>
<!-- Node3&#45;&gt;Node2 -->
<g id="edge2" class="edge">
<title>Node3&#45;&gt;Node2</title>
<path fill="none" stroke="midnightblue" d="M77.79,-114.04C77.98,-101.67 78.22,-86.12 78.37,-76.63"/>
<polygon fill="midnightblue" stroke="midnightblue" points="74.29,-114.18 77.63,-124.23 81.29,-114.29 74.29,-114.18"/>
</g>
<!-- Node4 -->
<g id="node4" class="node">
<title>Node4</title>
<g id="a_node4"><a xlink:href="class_c_net_addr.html" target="_top" xlink:title="Network address.">
<polygon fill="white" stroke="black" points="0,-181.5 0,-200.5 63,-200.5 63,-181.5 0,-181.5"/>
<text text-anchor="middle" x="31.5" y="-188.5" font-family="Helvetica,sans-Serif" font-size="10.00">CNetAddr</text>
</a>
</g>
</g>
<!-- Node4&#45;&gt;Node1 -->
<g id="edge4" class="edge">
<title>Node4&#45;&gt;Node1</title>
<path fill="none" stroke="#9a32cd" stroke-dasharray="5,2" d="M32.45,-171.09C34.38,-132.68 38.7,-46.89 40.07,-19.55"/>
<polygon fill="#9a32cd" stroke="#9a32cd" points="28.94,-171.2 31.93,-181.37 35.93,-171.55 28.94,-171.2"/>
<text text-anchor="middle" x="54.5" y="-98" font-family="Helvetica,sans-Serif" font-size="10.00"> source</text>
</g>
<!-- Node4&#45;&gt;Node3 -->
<g id="edge3" class="edge">
<title>Node4&#45;&gt;Node3</title>
<path fill="none" stroke="midnightblue" d="M45.27,-173.53C53.47,-163.74 63.53,-151.7 70.21,-143.71"/>
<polygon fill="midnightblue" stroke="midnightblue" points="42.42,-171.49 38.69,-181.41 47.79,-175.98 42.42,-171.49"/>
</g>
</g>
</svg>
