<?xml version="1.0" encoding="UTF-8" standalone="no"?>
<!DOCTYPE svg PUBLIC "-//W3C//DTD SVG 1.1//EN"
 "http://www.w3.org/Graphics/SVG/1.1/DTD/svg11.dtd">
<!-- Generated by graphviz version 2.38.0 (20140413.2041)
 -->
<!-- Title: TransactionView::exportClicked Pages: 1 -->
<svg width="711pt" height="355pt"
 viewBox="0.00 0.00 711.00 355.00" xmlns="http://www.w3.org/2000/svg" xmlns:xlink="http://www.w3.org/1999/xlink">
<g id="graph0" class="graph" transform="scale(1 1) rotate(0) translate(4 351)">
<title>TransactionView::exportClicked</title>
<polygon fill="white" stroke="none" points="-4,4 -4,-351 707,-351 707,4 -4,4"/>
<!-- Node1 -->
<g id="node1" class="node"><title>Node1</title>
<polygon fill="#bfbfbf" stroke="black" points="0,-175.5 0,-194.5 162,-194.5 162,-175.5 0,-175.5"/>
<text text-anchor="middle" x="81" y="-182.5" font-family="Helvetica,sans-Serif" font-size="10.00">TransactionView::exportClicked</text>
</g>
<!-- Node2 -->
<g id="node2" class="node"><title>Node2</title>
<g id="a_node2"><a xlink:href="class_wallet_model.html#a96d53e56b3f8f07537ea2523f7a7d300" target="_top" xlink:title="WalletModel::getOptionsModel">
<polygon fill="white" stroke="black" points="203,-327.5 203,-346.5 363,-346.5 363,-327.5 203,-327.5"/>
<text text-anchor="middle" x="283" y="-334.5" font-family="Helvetica,sans-Serif" font-size="10.00">WalletModel::getOptionsModel</text>
</a>
</g>
</g>
<!-- Node1&#45;&gt;Node2 -->
<g id="edge1" class="edge"><title>Node1&#45;&gt;Node2</title>
<path fill="none" stroke="midnightblue" d="M87.344,-194.538C101.716,-219.246 143.8,-285.658 198,-318 201.683,-320.198 205.596,-322.142 209.64,-323.861"/>
<polygon fill="midnightblue" stroke="midnightblue" points="208.678,-327.238 219.27,-327.479 211.14,-320.685 208.678,-327.238"/>
</g>
<!-- Node3 -->
<g id="node3" class="node"><title>Node3</title>
<g id="a_node3"><a xlink:href="namespace_g_u_i_util.html#a788c51092a2255b1f8976d4794fc3ee6" target="_top" xlink:title="Get save filename, mimics QFileDialog::getSaveFileName, except that it appends a default suffix when ...">
<polygon fill="white" stroke="black" points="213,-289.5 213,-308.5 353,-308.5 353,-289.5 213,-289.5"/>
<text text-anchor="middle" x="283" y="-296.5" font-family="Helvetica,sans-Serif" font-size="10.00">GUIUtil::getSaveFileName</text>
</a>
</g>
</g>
<!-- Node1&#45;&gt;Node3 -->
<g id="edge2" class="edge"><title>Node1&#45;&gt;Node3</title>
<path fill="none" stroke="midnightblue" d="M90.5744,-194.52C108.513,-213.817 152.155,-257.61 198,-280 202.954,-282.42 208.224,-284.536 213.616,-286.387"/>
<polygon fill="midnightblue" stroke="midnightblue" points="212.822,-289.806 223.411,-289.44 214.905,-283.123 212.822,-289.806"/>
</g>
<!-- Node4 -->
<g id="node4" class="node"><title>Node4</title>
<g id="a_node4"><a xlink:href="class_c_s_v_model_writer.html#a7b8be6f49a66b965a94a89c78fb96e40" target="_top" xlink:title="CSVModelWriter::setModel">
<polygon fill="white" stroke="black" points="212,-251.5 212,-270.5 354,-270.5 354,-251.5 212,-251.5"/>
<text text-anchor="middle" x="283" y="-258.5" font-family="Helvetica,sans-Serif" font-size="10.00">CSVModelWriter::setModel</text>
</a>
</g>
</g>
<!-- Node1&#45;&gt;Node4 -->
<g id="edge3" class="edge"><title>Node1&#45;&gt;Node4</title>
<path fill="none" stroke="midnightblue" d="M98.3702,-194.58C120.363,-207.087 160.975,-228.92 198,-242 205.335,-244.591 213.159,-246.914 220.969,-248.971"/>
<polygon fill="midnightblue" stroke="midnightblue" points="220.267,-252.403 230.817,-251.433 221.965,-245.612 220.267,-252.403"/>
</g>
<!-- Node5 -->
<g id="node5" class="node"><title>Node5</title>
<g id="a_node5"><a xlink:href="class_c_s_v_model_writer.html#a9e5f0d60f2c873747582ce21ddeb53b5" target="_top" xlink:title="CSVModelWriter::addColumn">
<polygon fill="white" stroke="black" points="206.5,-213.5 206.5,-232.5 359.5,-232.5 359.5,-213.5 206.5,-213.5"/>
<text text-anchor="middle" x="283" y="-220.5" font-family="Helvetica,sans-Serif" font-size="10.00">CSVModelWriter::addColumn</text>
</a>
</g>
</g>
<!-- Node1&#45;&gt;Node5 -->
<g id="edge4" class="edge"><title>Node1&#45;&gt;Node5</title>
<path fill="none" stroke="midnightblue" d="M132.21,-194.54C159.433,-199.712 193.264,-206.14 221.883,-211.578"/>
<polygon fill="midnightblue" stroke="midnightblue" points="221.291,-215.028 231.769,-213.456 222.598,-208.151 221.291,-215.028"/>
</g>
<!-- Node6 -->
<g id="node6" class="node"><title>Node6</title>
<g id="a_node6"><a xlink:href="class_wallet_model.html#a1c5870f02d5221d26a9a50f188c42d1f" target="_top" xlink:title="WalletModel::wallet">
<polygon fill="white" stroke="black" points="230,-175.5 230,-194.5 336,-194.5 336,-175.5 230,-175.5"/>
<text text-anchor="middle" x="283" y="-182.5" font-family="Helvetica,sans-Serif" font-size="10.00">WalletModel::wallet</text>
</a>
</g>
</g>
<!-- Node1&#45;&gt;Node6 -->
<g id="edge5" class="edge"><title>Node1&#45;&gt;Node6</title>
<path fill="none" stroke="midnightblue" d="M162.195,-185C181.362,-185 201.54,-185 219.758,-185"/>
<polygon fill="midnightblue" stroke="midnightblue" points="219.946,-188.5 229.946,-185 219.946,-181.5 219.946,-188.5"/>
</g>
<!-- Node7 -->
<g id="node7" class="node"><title>Node7</title>
<g id="a_node7"><a xlink:href="classinterfaces_1_1_wallet.html#ad4870d1187f6f86a27baef8bdef80823" target="_top" xlink:title="Return whether wallet has watch only keys. ">
<polygon fill="white" stroke="black" points="234,-126 234,-156 332,-156 332,-126 234,-126"/>
<text text-anchor="start" x="242" y="-144" font-family="Helvetica,sans-Serif" font-size="10.00">interfaces::Wallet</text>
<text text-anchor="middle" x="283" y="-133" font-family="Helvetica,sans-Serif" font-size="10.00">::haveWatchOnly</text>
</a>
</g>
</g>
<!-- Node1&#45;&gt;Node7 -->
<g id="edge6" class="edge"><title>Node1&#45;&gt;Node7</title>
<path fill="none" stroke="midnightblue" d="M125.397,-175.453C154.216,-169.112 192.388,-160.715 223.829,-153.798"/>
<polygon fill="midnightblue" stroke="midnightblue" points="224.766,-157.175 233.781,-151.608 223.262,-150.339 224.766,-157.175"/>
</g>
<!-- Node8 -->
<g id="node8" class="node"><title>Node8</title>
<g id="a_node8"><a xlink:href="class_bitcoin_units.html#ae15618373f7e2230cb6263a0f06d2180" target="_top" xlink:title="Gets title for amount column including current display unit if optionsModel reference available */...">
<polygon fill="white" stroke="black" points="198,-77 198,-107 368,-107 368,-77 198,-77"/>
<text text-anchor="start" x="206" y="-95" font-family="Helvetica,sans-Serif" font-size="10.00">BitcoinUnits::getAmountColumn</text>
<text text-anchor="middle" x="283" y="-84" font-family="Helvetica,sans-Serif" font-size="10.00">Title</text>
</a>
</g>
</g>
<!-- Node1&#45;&gt;Node8 -->
<g id="edge7" class="edge"><title>Node1&#45;&gt;Node8</title>
<path fill="none" stroke="midnightblue" d="M95.7058,-175.482C116.841,-161.154 159.031,-133.925 198,-117 203.364,-114.67 209.012,-112.476 214.736,-110.43"/>
<polygon fill="midnightblue" stroke="midnightblue" points="216.073,-113.672 224.405,-107.128 213.811,-107.048 216.073,-113.672"/>
</g>
<!-- Node12 -->
<g id="node12" class="node"><title>Node12</title>
<g id="a_node12"><a xlink:href="class_options_model.html#a3a78bccf5eeaa4fc27e408adbaf64087" target="_top" xlink:title="OptionsModel::getDisplayUnit">
<polygon fill="white" stroke="black" points="204,-38.5 204,-57.5 362,-57.5 362,-38.5 204,-38.5"/>
<text text-anchor="middle" x="283" y="-45.5" font-family="Helvetica,sans-Serif" font-size="10.00">OptionsModel::getDisplayUnit</text>
</a>
</g>
</g>
<!-- Node1&#45;&gt;Node12 -->
<g id="edge11" class="edge"><title>Node1&#45;&gt;Node12</title>
<path fill="none" stroke="midnightblue" d="M88.582,-175.355C104.523,-152.783 147.622,-96.2932 198,-68 202.82,-65.2931 207.994,-62.9511 213.32,-60.9249"/>
<polygon fill="midnightblue" stroke="midnightblue" points="214.697,-64.1533 223.029,-57.6085 212.434,-57.5291 214.697,-64.1533"/>
</g>
<!-- Node13 -->
<g id="node13" class="node"><title>Node13</title>
<g id="a_node13"><a xlink:href="class_c_s_v_model_writer.html#a71fe52fdd6f41c506f9631175cb04615" target="_top" xlink:title="Perform export of the model to CSV. ">
<polygon fill="white" stroke="black" points="222.5,-0.5 222.5,-19.5 343.5,-19.5 343.5,-0.5 222.5,-0.5"/>
<text text-anchor="middle" x="283" y="-7.5" font-family="Helvetica,sans-Serif" font-size="10.00">CSVModelWriter::write</text>
</a>
</g>
</g>
<!-- Node1&#45;&gt;Node13 -->
<g id="edge12" class="edge"><title>Node1&#45;&gt;Node13</title>
<path fill="none" stroke="midnightblue" d="M86.1361,-175.444C98.5939,-147.868 138.596,-67.6593 198,-29 202.621,-25.9927 207.654,-23.4575 212.884,-21.3208"/>
<polygon fill="midnightblue" stroke="midnightblue" points="214.23,-24.5565 222.464,-17.8894 211.869,-17.9665 214.23,-24.5565"/>
</g>
<!-- Node9 -->
<g id="node9" class="node"><title>Node9</title>
<g id="a_node9"><a xlink:href="class_bitcoin_units.html#a81cbc41480adfb600dad79711d336e5f" target="_top" xlink:title="Is unit ID valid? ">
<polygon fill="white" stroke="black" points="420.5,-101.5 420.5,-120.5 521.5,-120.5 521.5,-101.5 420.5,-101.5"/>
<text text-anchor="middle" x="471" y="-108.5" font-family="Helvetica,sans-Serif" font-size="10.00">BitcoinUnits::valid</text>
</a>
</g>
</g>
<!-- Node8&#45;&gt;Node9 -->
<g id="edge8" class="edge"><title>Node8&#45;&gt;Node9</title>
<path fill="none" stroke="midnightblue" d="M368.021,-100.583C382.291,-102.04 396.845,-103.527 410.323,-104.904"/>
<polygon fill="midnightblue" stroke="midnightblue" points="410.093,-108.399 420.397,-105.933 410.804,-101.435 410.093,-108.399"/>
</g>
<!-- Node10 -->
<g id="node10" class="node"><title>Node10</title>
<g id="a_node10"><a xlink:href="class_bitcoin_units.html#af65eb534385613f176593cc7545136d0" target="_top" xlink:title="Short name. ">
<polygon fill="white" stroke="black" points="404,-63.5 404,-82.5 538,-82.5 538,-63.5 404,-63.5"/>
<text text-anchor="middle" x="471" y="-70.5" font-family="Helvetica,sans-Serif" font-size="10.00">BitcoinUnits::shortName</text>
</a>
</g>
</g>
<!-- Node8&#45;&gt;Node10 -->
<g id="edge9" class="edge"><title>Node8&#45;&gt;Node10</title>
<path fill="none" stroke="midnightblue" d="M368.021,-83.4172C376.577,-82.5432 385.234,-81.6588 393.701,-80.794"/>
<polygon fill="midnightblue" stroke="midnightblue" points="394.322,-84.2489 403.914,-79.7507 393.611,-77.2851 394.322,-84.2489"/>
</g>
<!-- Node11 -->
<g id="node11" class="node"><title>Node11</title>
<g id="a_node11"><a xlink:href="class_bitcoin_units.html#a97f983970ff33cae20996ba26ab257cd" target="_top" xlink:title="Long name. ">
<polygon fill="white" stroke="black" points="574,-63.5 574,-82.5 703,-82.5 703,-63.5 574,-63.5"/>
<text text-anchor="middle" x="638.5" y="-70.5" font-family="Helvetica,sans-Serif" font-size="10.00">BitcoinUnits::longName</text>
</a>
</g>
</g>
<!-- Node10&#45;&gt;Node11 -->
<g id="edge10" class="edge"><title>Node10&#45;&gt;Node11</title>
<path fill="none" stroke="midnightblue" d="M538.362,-73C546.673,-73 555.214,-73 563.631,-73"/>
<polygon fill="midnightblue" stroke="midnightblue" points="563.813,-76.5001 573.813,-73 563.813,-69.5001 563.813,-76.5001"/>
</g>
</g>
</svg>
