<?xml version="1.0" encoding="UTF-8" standalone="no"?>
<!DOCTYPE svg PUBLIC "-//W3C//DTD SVG 1.1//EN"
 "http://www.w3.org/Graphics/SVG/1.1/DTD/svg11.dtd">
<!-- Generated by graphviz version 2.38.0 (20140413.2041)
 -->
<!-- Title: CTxMemPool::GetSortedDepthAndScore Pages: 1 -->
<svg width="1600pt" height="811pt"
 viewBox="0.00 0.00 1600.00 810.50" xmlns="http://www.w3.org/2000/svg" xmlns:xlink="http://www.w3.org/1999/xlink">
<g id="graph0" class="graph" transform="scale(1 1) rotate(0) translate(4 806.5)">
<title>CTxMemPool::GetSortedDepthAndScore</title>
<polygon fill="white" stroke="none" points="-4,4 -4,-806.5 1596,-806.5 1596,4 -4,4"/>
<!-- Node1 -->
<g id="node1" class="node"><title>Node1</title>
<polygon fill="#bfbfbf" stroke="black" points="0,-280.5 0,-310.5 163,-310.5 163,-280.5 0,-280.5"/>
<text text-anchor="start" x="8" y="-298.5" font-family="Helvetica,sans-Serif" font-size="10.00">CTxMemPool::GetSortedDepth</text>
<text text-anchor="middle" x="81.5" y="-287.5" font-family="Helvetica,sans-Serif" font-size="10.00">AndScore</text>
</g>
<!-- Node2 -->
<g id="node2" class="node"><title>Node2</title>
<g id="a_node2"><a xlink:href="class_c_tx_mem_pool.html#a6180280e78ca3ba357f648806003ee90" target="_top" xlink:title="CTxMemPool::queryHashes">
<polygon fill="white" stroke="black" points="348,-478 348,-497 495,-497 495,-478 348,-478"/>
<text text-anchor="middle" x="421.5" y="-485" font-family="Helvetica,sans-Serif" font-size="10.00">CTxMemPool::queryHashes</text>
</a>
</g>
</g>
<!-- Node1&#45;&gt;Node2 -->
<g id="edge1" class="edge"><title>Node1&#45;&gt;Node2</title>
<path fill="none" stroke="midnightblue" d="M117.739,-315.518C189.615,-356.347 350.789,-447.901 403.478,-477.831"/>
<polygon fill="midnightblue" stroke="midnightblue" points="119.446,-312.462 109.022,-310.566 115.989,-318.548 119.446,-312.462"/>
</g>
<!-- Node5 -->
<g id="node5" class="node"><title>Node5</title>
<g id="a_node5"><a xlink:href="class_c_tx_mem_pool.html#a6b37a6b649aac008a68ce97fa00d18ff" target="_top" xlink:title="CTxMemPool::infoAll">
<polygon fill="white" stroke="black" points="199,-233 199,-252 312,-252 312,-233 199,-233"/>
<text text-anchor="middle" x="255.5" y="-240" font-family="Helvetica,sans-Serif" font-size="10.00">CTxMemPool::infoAll</text>
</a>
</g>
</g>
<!-- Node1&#45;&gt;Node5 -->
<g id="edge5" class="edge"><title>Node1&#45;&gt;Node5</title>
<path fill="none" stroke="midnightblue" d="M140.914,-277.5C168.577,-268.976 200.5,-259.139 223.445,-252.069"/>
<polygon fill="midnightblue" stroke="midnightblue" points="139.854,-274.164 131.328,-280.454 141.916,-280.854 139.854,-274.164"/>
</g>
<!-- Node3 -->
<g id="node3" class="node"><title>Node3</title>
<g id="a_node3"><a xlink:href="blockchain_8h.html#af764b4341f499ae302549b200056c076" target="_top" xlink:title="Mempool to JSON. ">
<polygon fill="white" stroke="black" points="706.5,-642 706.5,-661 801.5,-661 801.5,-642 706.5,-642"/>
<text text-anchor="middle" x="754" y="-649" font-family="Helvetica,sans-Serif" font-size="10.00">MempoolToJSON</text>
</a>
</g>
</g>
<!-- Node2&#45;&gt;Node3 -->
<g id="edge2" class="edge"><title>Node2&#45;&gt;Node3</title>
<path fill="none" stroke="midnightblue" d="M443.549,-502.967C484.735,-532.509 579.762,-597.158 669,-632.5 680.816,-637.18 694.046,-640.846 706.448,-643.657"/>
<polygon fill="midnightblue" stroke="midnightblue" points="445.53,-500.08 435.376,-497.057 441.428,-505.753 445.53,-500.08"/>
</g>
<!-- Node3&#45;&gt;Node3 -->
<g id="edge4" class="edge"><title>Node3&#45;&gt;Node3</title>
<path fill="none" stroke="midnightblue" d="M721.814,-669.775C722.732,-675.241 733.461,-679.5 754,-679.5 784.57,-679.5 793.407,-670.065 780.51,-661.257"/>
<polygon fill="midnightblue" stroke="midnightblue" points="724.857,-671.52 727.49,-661.257 719.032,-667.638 724.857,-671.52"/>
</g>
<!-- Node4 -->
<g id="node4" class="node"><title>Node4</title>
<g id="a_node4"><a xlink:href="struct_c_coin.html#a2a0a2532bdacb03b087b3b0a400830ec" target="_top" xlink:title="CCoin::SerializationOp">
<polygon fill="white" stroke="black" points="902,-536 902,-555 1024,-555 1024,-536 902,-536"/>
<text text-anchor="middle" x="963" y="-543" font-family="Helvetica,sans-Serif" font-size="10.00">CCoin::SerializationOp</text>
</a>
</g>
</g>
<!-- Node3&#45;&gt;Node4 -->
<g id="edge3" class="edge"><title>Node3&#45;&gt;Node4</title>
<path fill="none" stroke="midnightblue" d="M811.828,-641.852C821.112,-639.373 830.474,-636.297 839,-632.5 884.875,-612.067 931.125,-573.346 951.383,-555.263"/>
<polygon fill="midnightblue" stroke="midnightblue" points="810.701,-638.525 801.828,-644.315 812.375,-645.322 810.701,-638.525"/>
</g>
<!-- Node6 -->
<g id="node6" class="node"><title>Node6</title>
<g id="a_node6"><a xlink:href="class_peer_logic_validation.html#a04dab16e6310bf18d432111cb6b126ad" target="_top" xlink:title="Send queued protocol messages to be sent to a give node. ">
<polygon fill="white" stroke="black" points="699,-0.5 699,-30.5 809,-30.5 809,-0.5 699,-0.5"/>
<text text-anchor="start" x="707" y="-18.5" font-family="Helvetica,sans-Serif" font-size="10.00">PeerLogicValidation</text>
<text text-anchor="middle" x="754" y="-7.5" font-family="Helvetica,sans-Serif" font-size="10.00">::SendMessages</text>
</a>
</g>
</g>
<!-- Node5&#45;&gt;Node6 -->
<g id="edge6" class="edge"><title>Node5&#45;&gt;Node6</title>
<path fill="none" stroke="midnightblue" d="M282.311,-227.973C346.259,-192.402 517.809,-99.5456 669,-40.5 678.496,-36.7915 688.775,-33.3118 698.777,-30.195"/>
<polygon fill="midnightblue" stroke="midnightblue" points="280.356,-225.055 273.331,-232.985 283.768,-231.167 280.356,-225.055"/>
</g>
<!-- Node7 -->
<g id="node7" class="node"><title>Node7</title>
<g id="a_node7"><a xlink:href="validation_8h.html#a4b0f164432912c7b1b0e3535c13ad01c" target="_top" xlink:title="Dump the mempool to disk. ">
<polygon fill="white" stroke="black" points="376.5,-233 376.5,-252 466.5,-252 466.5,-233 376.5,-233"/>
<text text-anchor="middle" x="421.5" y="-240" font-family="Helvetica,sans-Serif" font-size="10.00">DumpMempool</text>
</a>
</g>
</g>
<!-- Node5&#45;&gt;Node7 -->
<g id="edge7" class="edge"><title>Node5&#45;&gt;Node7</title>
<path fill="none" stroke="midnightblue" d="M322.033,-242.5C340.305,-242.5 359.716,-242.5 376.43,-242.5"/>
<polygon fill="midnightblue" stroke="midnightblue" points="322.023,-239 312.023,-242.5 322.023,-246 322.023,-239"/>
</g>
<!-- Node8 -->
<g id="node8" class="node"><title>Node8</title>
<g id="a_node8"><a xlink:href="validation_8h.html#a9d9b2d3b31edbd48ce62f4e2a73cc04c" target="_top" xlink:title="LookupBlockIndex">
<polygon fill="white" stroke="black" points="531,-346 531,-365 633,-365 633,-346 531,-346"/>
<text text-anchor="middle" x="582" y="-353" font-family="Helvetica,sans-Serif" font-size="10.00">LookupBlockIndex</text>
</a>
</g>
</g>
<!-- Node7&#45;&gt;Node8 -->
<g id="edge8" class="edge"><title>Node7&#45;&gt;Node8</title>
<path fill="none" stroke="midnightblue" d="M444.179,-257.956C477.433,-281.663 540.061,-326.313 567.521,-345.89"/>
<polygon fill="midnightblue" stroke="midnightblue" points="446.188,-255.09 436.014,-252.134 442.124,-260.789 446.188,-255.09"/>
</g>
<!-- Node17 -->
<g id="node17" class="node"><title>Node17</title>
<g id="a_node17"><a xlink:href="blockchain_8h.html#a7916bb05b909d901a0375641330510d1" target="_top" xlink:title="Used by getblockstats to get feerates at different percentiles by weight. ">
<polygon fill="white" stroke="black" points="675.5,-50 675.5,-69 832.5,-69 832.5,-50 675.5,-50"/>
<text text-anchor="middle" x="754" y="-57" font-family="Helvetica,sans-Serif" font-size="10.00">CalculatePercentilesByWeight</text>
</a>
</g>
</g>
<!-- Node7&#45;&gt;Node17 -->
<g id="edge55" class="edge"><title>Node7&#45;&gt;Node17</title>
<path fill="none" stroke="midnightblue" d="M445.773,-227.437C488.892,-199.819 584.515,-139.929 669,-96.5 688.842,-86.3006 712.103,-76.1911 729.111,-69.1236"/>
<polygon fill="midnightblue" stroke="midnightblue" points="443.674,-224.625 437.154,-232.976 447.459,-230.513 443.674,-224.625"/>
</g>
<!-- Node38 -->
<g id="node38" class="node"><title>Node38</title>
<g id="a_node38"><a xlink:href="init_8h.html#aadf7f77f5efa149dc63b413e86cc63f3" target="_top" xlink:title="Shutdown">
<polygon fill="white" stroke="black" points="550,-233 550,-252 614,-252 614,-233 550,-233"/>
<text text-anchor="middle" x="582" y="-240" font-family="Helvetica,sans-Serif" font-size="10.00">Shutdown</text>
</a>
</g>
</g>
<!-- Node7&#45;&gt;Node38 -->
<g id="edge54" class="edge"><title>Node7&#45;&gt;Node38</title>
<path fill="none" stroke="midnightblue" d="M476.818,-242.5C501.109,-242.5 528.88,-242.5 549.638,-242.5"/>
<polygon fill="midnightblue" stroke="midnightblue" points="476.651,-239 466.651,-242.5 476.651,-246 476.651,-239"/>
</g>
<!-- Node8&#45;&gt;Node3 -->
<g id="edge15" class="edge"><title>Node8&#45;&gt;Node3</title>
<path fill="none" stroke="midnightblue" d="M589.539,-374.809C599.292,-403.764 618.1,-460.196 633,-508.5 649.915,-563.337 627.22,-593.159 669,-632.5 679.015,-641.93 692.68,-647.036 706.078,-649.708"/>
<polygon fill="midnightblue" stroke="midnightblue" points="592.786,-373.486 586.271,-365.131 586.154,-375.725 592.786,-373.486"/>
</g>
<!-- Node8&#45;&gt;Node4 -->
<g id="edge14" class="edge"><title>Node8&#45;&gt;Node4</title>
<path fill="none" stroke="midnightblue" d="M589.734,-374.675C601.146,-404.178 627.206,-460.245 669,-488.5 688.078,-501.397 821.919,-523.864 901.957,-536.394"/>
<polygon fill="midnightblue" stroke="midnightblue" points="592.946,-373.27 586.19,-365.108 586.382,-375.701 592.946,-373.27"/>
</g>
<!-- Node8&#45;&gt;Node6 -->
<g id="edge13" class="edge"><title>Node8&#45;&gt;Node6</title>
<path fill="none" stroke="midnightblue" d="M594.999,-337.32C606.545,-318.956 623.597,-289.393 633,-261.5 664.792,-167.198 603.268,-115.219 669,-40.5 676.739,-31.7035 687.421,-25.9369 698.577,-22.1734"/>
<polygon fill="midnightblue" stroke="midnightblue" points="591.99,-335.527 589.532,-345.833 597.881,-339.31 591.99,-335.527"/>
</g>
<!-- Node9 -->
<g id="node9" class="node"><title>Node9</title>
<g id="a_node9"><a xlink:href="class_base_index.html#a770e60b2fcbc0b8adaaeb54f18eb9c8a" target="_top" xlink:title="Notifies listeners of the new active block chain on&#45;disk. ">
<polygon fill="white" stroke="black" points="673,-460 673,-479 835,-479 835,-460 673,-460"/>
<text text-anchor="middle" x="754" y="-467" font-family="Helvetica,sans-Serif" font-size="10.00">BaseIndex::ChainStateFlushed</text>
</a>
</g>
</g>
<!-- Node8&#45;&gt;Node9 -->
<g id="edge9" class="edge"><title>Node8&#45;&gt;Node9</title>
<path fill="none" stroke="midnightblue" d="M595.449,-373.396C610.555,-393.791 637.896,-426.72 669,-445.5 679.387,-451.772 691.485,-456.467 703.211,-459.959"/>
<polygon fill="midnightblue" stroke="midnightblue" points="598.263,-371.314 589.574,-365.252 592.586,-375.41 598.263,-371.314"/>
</g>
<!-- Node10 -->
<g id="node10" class="node"><title>Node10</title>
<g id="a_node10"><a xlink:href="init_8h.html#a15f6e0c217711d40a5433e55748b731d" target="_top" xlink:title="Bitcoin core main initialization. ">
<polygon fill="white" stroke="black" points="1310.5,-384 1310.5,-403 1382.5,-403 1382.5,-384 1310.5,-384"/>
<text text-anchor="middle" x="1346.5" y="-391" font-family="Helvetica,sans-Serif" font-size="10.00">AppInitMain</text>
</a>
</g>
</g>
<!-- Node8&#45;&gt;Node10 -->
<g id="edge10" class="edge"><title>Node8&#45;&gt;Node10</title>
<path fill="none" stroke="midnightblue" d="M607.509,-370.372C624.203,-379.687 647.158,-390.944 669,-396.5 919.346,-460.186 992.924,-437.825 1250,-412.5 1270.19,-410.511 1292.43,-406.212 1310.37,-402.206"/>
<polygon fill="midnightblue" stroke="midnightblue" points="608.872,-367.119 598.458,-365.17 605.384,-373.188 608.872,-367.119"/>
</g>
<!-- Node11 -->
<g id="node11" class="node"><title>Node11</title>
<g id="a_node11"><a xlink:href="class_peer_logic_validation.html#a124965d7310e0df08cc027d4e1cbbe7b" target="_top" xlink:title="Overridden from CValidationInterface. ">
<polygon fill="white" stroke="black" points="699,-220.5 699,-250.5 809,-250.5 809,-220.5 699,-220.5"/>
<text text-anchor="start" x="707" y="-238.5" font-family="Helvetica,sans-Serif" font-size="10.00">PeerLogicValidation</text>
<text text-anchor="middle" x="754" y="-227.5" font-family="Helvetica,sans-Serif" font-size="10.00">::BlockChecked</text>
</a>
</g>
</g>
<!-- Node8&#45;&gt;Node11 -->
<g id="edge11" class="edge"><title>Node8&#45;&gt;Node11</title>
<path fill="none" stroke="midnightblue" d="M594.797,-337.313C609.62,-315.881 637.026,-280.643 669,-260.5 678.012,-254.823 688.376,-250.381 698.678,-246.924"/>
<polygon fill="midnightblue" stroke="midnightblue" points="591.747,-335.577 589.069,-345.828 597.555,-339.484 591.747,-335.577"/>
</g>
<!-- Node12 -->
<g id="node12" class="node"><title>Node12</title>
<g id="a_node12"><a xlink:href="net__processing_8cpp.html#a4c3f4b7e7b0e61fb40a351f816b363c5" target="_top" xlink:title="while">
<polygon fill="white" stroke="black" points="1148.5,-232 1148.5,-251 1188.5,-251 1188.5,-232 1148.5,-232"/>
<text text-anchor="middle" x="1168.5" y="-239" font-family="Helvetica,sans-Serif" font-size="10.00">while</text>
</a>
</g>
</g>
<!-- Node8&#45;&gt;Node12 -->
<g id="edge12" class="edge"><title>Node8&#45;&gt;Node12</title>
<path fill="none" stroke="midnightblue" d="M635.751,-343.744C646.735,-341.325 658.241,-338.811 669,-336.5 760.443,-316.856 783.169,-311.243 875,-293.5 977.801,-273.637 1101.49,-252.578 1148.3,-244.71"/>
<polygon fill="midnightblue" stroke="midnightblue" points="634.858,-340.357 625.848,-345.931 636.367,-347.192 634.858,-340.357"/>
</g>
<!-- Node13 -->
<g id="node13" class="node"><title>Node13</title>
<g id="a_node13"><a xlink:href="struct_c_coins_stats.html#a3f68ce1f423e40599c8d3c4bf2d97aa9" target="_top" xlink:title="CCoinsStats::CCoinsStats">
<polygon fill="white" stroke="black" points="684,-182 684,-201 824,-201 824,-182 684,-182"/>
<text text-anchor="middle" x="754" y="-189" font-family="Helvetica,sans-Serif" font-size="10.00">CCoinsStats::CCoinsStats</text>
</a>
</g>
</g>
<!-- Node8&#45;&gt;Node13 -->
<g id="edge16" class="edge"><title>Node8&#45;&gt;Node13</title>
<path fill="none" stroke="midnightblue" d="M592.91,-336.982C612.951,-299.817 657.377,-218.956 669,-210.5 674.32,-206.63 680.292,-203.529 686.536,-201.046"/>
<polygon fill="midnightblue" stroke="midnightblue" points="589.814,-335.35 588.162,-345.816 595.98,-338.664 589.814,-335.35"/>
</g>
<!-- Node14 -->
<g id="node14" class="node"><title>Node14</title>
<g id="a_node14"><a xlink:href="blockchain_8cpp.html#a0d3ec9ae23b08828dd7ca646766ca637" target="_top" xlink:title="gettxout">
<polygon fill="white" stroke="black" points="725.5,-106 725.5,-125 782.5,-125 782.5,-106 725.5,-106"/>
<text text-anchor="middle" x="754" y="-113" font-family="Helvetica,sans-Serif" font-size="10.00">gettxout</text>
</a>
</g>
</g>
<!-- Node8&#45;&gt;Node14 -->
<g id="edge17" class="edge"><title>Node8&#45;&gt;Node14</title>
<path fill="none" stroke="midnightblue" d="M594.082,-337.34C605.059,-318.787 621.807,-288.894 633,-261.5 654.383,-209.166 628.852,-179.302 669,-139.5 683.864,-124.764 707.112,-118.941 725.386,-116.704"/>
<polygon fill="midnightblue" stroke="midnightblue" points="591.069,-335.56 588.927,-345.936 597.072,-339.16 591.069,-335.56"/>
</g>
<!-- Node15 -->
<g id="node15" class="node"><title>Node15</title>
<g id="a_node15"><a xlink:href="blockchain_8cpp.html#af8ae2be64c52204527fac00aefc1151c" target="_top" xlink:title="scantxoutset">
<polygon fill="white" stroke="black" points="923.5,-106 923.5,-125 1002.5,-125 1002.5,-106 923.5,-106"/>
<text text-anchor="middle" x="963" y="-113" font-family="Helvetica,sans-Serif" font-size="10.00">scantxoutset</text>
</a>
</g>
</g>
<!-- Node8&#45;&gt;Node15 -->
<g id="edge24" class="edge"><title>Node8&#45;&gt;Node15</title>
<path fill="none" stroke="midnightblue" d="M593.671,-336.839C604.22,-318.079 620.544,-288.193 633,-261.5 651.044,-222.834 636.072,-199.637 669,-172.5 678.823,-164.405 846.195,-135.154 923.466,-121.994"/>
<polygon fill="midnightblue" stroke="midnightblue" points="590.483,-335.366 588.599,-345.792 596.573,-338.817 590.483,-335.366"/>
</g>
<!-- Node16 -->
<g id="node16" class="node"><title>Node16</title>
<g id="a_node16"><a xlink:href="blockchain_8h.html#a80859ca39e0f7b317d4965b47a1df62b" target="_top" xlink:title="Mempool information to JSON. ">
<polygon fill="white" stroke="black" points="698,-536 698,-555 810,-555 810,-536 698,-536"/>
<text text-anchor="middle" x="754" y="-543" font-family="Helvetica,sans-Serif" font-size="10.00">MempoolInfoToJSON</text>
</a>
</g>
</g>
<!-- Node8&#45;&gt;Node16 -->
<g id="edge19" class="edge"><title>Node8&#45;&gt;Node16</title>
<path fill="none" stroke="midnightblue" d="M587.625,-374.91C596.913,-409.628 621.165,-482.376 669,-521.5 677.336,-528.318 687.509,-533.199 697.859,-536.695"/>
<polygon fill="midnightblue" stroke="midnightblue" points="590.978,-373.896 585.124,-365.065 584.194,-375.619 590.978,-373.896"/>
</g>
<!-- Node8&#45;&gt;Node17 -->
<g id="edge22" class="edge"><title>Node8&#45;&gt;Node17</title>
<path fill="none" stroke="midnightblue" d="M594.681,-337.208C605.985,-318.759 622.856,-289.132 633,-261.5 658.867,-191.039 621.492,-154.61 669,-96.5 679.792,-83.2993 696.238,-74.6697 711.725,-69.0963"/>
<polygon fill="midnightblue" stroke="midnightblue" points="591.666,-335.429 589.343,-345.767 597.605,-339.134 591.666,-335.429"/>
</g>
<!-- Node18 -->
<g id="node18" class="node"><title>Node18</title>
<g id="a_node18"><a xlink:href="classsubmitblock___state_catcher.html#a89abec4d0d8ea6b2cd651439e3a4f45f" target="_top" xlink:title="Notifies listeners of a block validation result. ">
<polygon fill="white" stroke="black" points="682.5,-592.5 682.5,-622.5 825.5,-622.5 825.5,-592.5 682.5,-592.5"/>
<text text-anchor="start" x="690.5" y="-610.5" font-family="Helvetica,sans-Serif" font-size="10.00">submitblock_StateCatcher</text>
<text text-anchor="middle" x="754" y="-599.5" font-family="Helvetica,sans-Serif" font-size="10.00">::BlockChecked</text>
</a>
</g>
</g>
<!-- Node8&#45;&gt;Node18 -->
<g id="edge25" class="edge"><title>Node8&#45;&gt;Node18</title>
<path fill="none" stroke="midnightblue" d="M589.197,-374.731C606.122,-426.79 652.935,-567.565 669,-582.5 673.123,-586.333 677.809,-589.581 682.809,-592.331"/>
<polygon fill="midnightblue" stroke="midnightblue" points="592.471,-373.482 586.061,-365.046 585.812,-375.638 592.471,-373.482"/>
</g>
<!-- Node19 -->
<g id="node19" class="node"><title>Node19</title>
<g id="a_node19"><a xlink:href="validation_8h.html#a8bc0d7a6f1e3a0d1f11f0ccad16efcf7" target="_top" xlink:title="Find the last common block between the parameter chain and a locator. ">
<polygon fill="white" stroke="black" points="694.5,-346 694.5,-365 813.5,-365 813.5,-346 694.5,-346"/>
<text text-anchor="middle" x="754" y="-353" font-family="Helvetica,sans-Serif" font-size="10.00">FindForkInGlobalIndex</text>
</a>
</g>
</g>
<!-- Node8&#45;&gt;Node19 -->
<g id="edge26" class="edge"><title>Node8&#45;&gt;Node19</title>
<path fill="none" stroke="midnightblue" d="M643.214,-349.012C659.807,-348.652 677.781,-348.663 694.287,-349.045"/>
<polygon fill="midnightblue" stroke="midnightblue" points="642.988,-345.517 633.086,-349.284 643.177,-352.514 642.988,-345.517"/>
</g>
<!-- Node27 -->
<g id="node27" class="node"><title>Node27</title>
<g id="a_node27"><a xlink:href="validation_8h.html#ada1eab9ccd84d9a98f598eba9bd35330" target="_top" xlink:title="Return the spend height, which is one more than the inputs.GetBestBlock(). ">
<polygon fill="white" stroke="black" points="706,-270 706,-289 802,-289 802,-270 706,-270"/>
<text text-anchor="middle" x="754" y="-277" font-family="Helvetica,sans-Serif" font-size="10.00">GetSpendHeight</text>
</a>
</g>
</g>
<!-- Node8&#45;&gt;Node27 -->
<g id="edge38" class="edge"><title>Node8&#45;&gt;Node27</title>
<path fill="none" stroke="midnightblue" d="M596.795,-339.139C613.282,-325.083 642.032,-306.255 669,-294.5 680.54,-289.47 693.427,-285.179 705.574,-281.983"/>
<polygon fill="midnightblue" stroke="midnightblue" points="594.344,-336.639 589.366,-345.992 599.09,-341.784 594.344,-336.639"/>
</g>
<!-- Node32 -->
<g id="node32" class="node"><title>Node32</title>
<g id="a_node32"><a xlink:href="validation_8h.html#a743ca389dc886ef8ec875ce8d08ec97e" target="_top" xlink:title="Produce the necessary coinbase commitment for a block (modifies the hash, don&#39;t call for mined blocks...">
<polygon fill="white" stroke="black" points="669,-739 669,-758 839,-758 839,-739 669,-739"/>
<text text-anchor="middle" x="754" y="-746" font-family="Helvetica,sans-Serif" font-size="10.00">GenerateCoinbaseCommitment</text>
</a>
</g>
</g>
<!-- Node8&#45;&gt;Node32 -->
<g id="edge47" class="edge"><title>Node8&#45;&gt;Node32</title>
<path fill="none" stroke="midnightblue" d="M584.906,-375.199C591.991,-444.417 619.016,-675.078 669,-726.5 674.149,-731.797 680.404,-735.872 687.153,-738.999"/>
<polygon fill="midnightblue" stroke="midnightblue" points="588.384,-374.801 583.907,-365.199 581.418,-375.497 588.384,-374.801"/>
</g>
<!-- Node35 -->
<g id="node35" class="node"><title>Node35</title>
<g id="a_node35"><a xlink:href="validation_8h.html#a3d5c8a89aff9de194bfa0ebc60be7d89" target="_top" xlink:title="Update the chain tip based on database information. ">
<polygon fill="white" stroke="black" points="1128.5,-384 1128.5,-403 1208.5,-403 1208.5,-384 1128.5,-384"/>
<text text-anchor="middle" x="1168.5" y="-391" font-family="Helvetica,sans-Serif" font-size="10.00">LoadChainTip</text>
</a>
</g>
</g>
<!-- Node8&#45;&gt;Node35 -->
<g id="edge50" class="edge"><title>Node8&#45;&gt;Node35</title>
<path fill="none" stroke="midnightblue" d="M629.5,-367.369C642.226,-370.179 656.076,-372.84 669,-374.5 838.871,-396.323 1043.76,-395.768 1128.2,-394.386"/>
<polygon fill="midnightblue" stroke="midnightblue" points="630.102,-363.916 619.573,-365.099 628.541,-370.74 630.102,-363.916"/>
</g>
<!-- Node36 -->
<g id="node36" class="node"><title>Node36</title>
<g id="a_node36"><a xlink:href="validation_8h.html#a7f6c6d38725bf1777775385e2f80c216" target="_top" xlink:title="Import blocks from an external file. ">
<polygon fill="white" stroke="black" points="694.5,-698 694.5,-717 813.5,-717 813.5,-698 694.5,-698"/>
<text text-anchor="middle" x="754" y="-705" font-family="Helvetica,sans-Serif" font-size="10.00">LoadExternalBlockFile</text>
</a>
</g>
</g>
<!-- Node8&#45;&gt;Node36 -->
<g id="edge52" class="edge"><title>Node8&#45;&gt;Node36</title>
<path fill="none" stroke="midnightblue" d="M585.411,-375.297C593.69,-440.04 623.013,-643.885 669,-688.5 675.975,-695.267 684.824,-699.823 694.145,-702.854"/>
<polygon fill="midnightblue" stroke="midnightblue" points="588.862,-374.692 584.148,-365.204 581.916,-375.561 588.862,-374.692"/>
</g>
<!-- Node14&#45;&gt;Node15 -->
<g id="edge18" class="edge"><title>Node14&#45;&gt;Node15</title>
<path fill="none" stroke="midnightblue" d="M793.294,-115.5C830.309,-115.5 886.098,-115.5 923.262,-115.5"/>
<polygon fill="midnightblue" stroke="midnightblue" points="792.917,-112 782.917,-115.5 792.917,-119 792.917,-112"/>
</g>
<!-- Node16&#45;&gt;Node4 -->
<g id="edge20" class="edge"><title>Node16&#45;&gt;Node4</title>
<path fill="none" stroke="midnightblue" d="M820.374,-545.5C846.466,-545.5 876.317,-545.5 901.864,-545.5"/>
<polygon fill="midnightblue" stroke="midnightblue" points="820.2,-542 810.2,-545.5 820.2,-549 820.2,-542"/>
</g>
<!-- Node16&#45;&gt;Node16 -->
<g id="edge21" class="edge"><title>Node16&#45;&gt;Node16</title>
<path fill="none" stroke="midnightblue" d="M721.814,-563.775C722.732,-569.241 733.461,-573.5 754,-573.5 784.57,-573.5 793.407,-564.065 780.51,-555.257"/>
<polygon fill="midnightblue" stroke="midnightblue" points="724.857,-565.52 727.49,-555.257 719.032,-561.638 724.857,-565.52"/>
</g>
<!-- Node17&#45;&gt;Node17 -->
<g id="edge23" class="edge"><title>Node17&#45;&gt;Node17</title>
<path fill="none" stroke="midnightblue" d="M721.814,-77.7746C722.732,-83.241 733.461,-87.5 754,-87.5 784.57,-87.5 793.407,-78.0653 780.51,-69.2571"/>
<polygon fill="midnightblue" stroke="midnightblue" points="724.857,-79.5197 727.49,-69.2571 719.032,-75.6381 724.857,-79.5197"/>
</g>
<!-- Node19&#45;&gt;Node8 -->
<g id="edge27" class="edge"><title>Node19&#45;&gt;Node8</title>
<path fill="none" stroke="midnightblue" d="M683.845,-362.145C666.852,-362.373 648.983,-362.23 633.086,-361.716"/>
<polygon fill="midnightblue" stroke="midnightblue" points="684.353,-365.636 694.287,-361.955 684.225,-358.637 684.353,-365.636"/>
</g>
<!-- Node19&#45;&gt;Node12 -->
<g id="edge37" class="edge"><title>Node19&#45;&gt;Node12</title>
<path fill="none" stroke="midnightblue" d="M817.997,-344.143C898.648,-329.321 1030.48,-304.033 1051,-293.5 1070.31,-283.589 1067.82,-270.655 1087,-260.5 1106.42,-250.221 1131.38,-245.442 1148.32,-243.26"/>
<polygon fill="midnightblue" stroke="midnightblue" points="817.148,-340.741 807.942,-345.986 818.41,-347.626 817.148,-340.741"/>
</g>
<!-- Node20 -->
<g id="node20" class="node"><title>Node20</title>
<g id="a_node20"><a xlink:href="class_base_index.html#a10dbed01cf8ad8126b6195844a62d281" target="_top" xlink:title="Initialize internal state from the database and block index. ">
<polygon fill="white" stroke="black" points="920,-346 920,-365 1006,-365 1006,-346 920,-346"/>
<text text-anchor="middle" x="963" y="-353" font-family="Helvetica,sans-Serif" font-size="10.00">BaseIndex::Init</text>
</a>
</g>
</g>
<!-- Node19&#45;&gt;Node20 -->
<g id="edge28" class="edge"><title>Node19&#45;&gt;Node20</title>
<path fill="none" stroke="midnightblue" d="M823.882,-355.5C855.633,-355.5 892.295,-355.5 919.865,-355.5"/>
<polygon fill="midnightblue" stroke="midnightblue" points="823.764,-352 813.764,-355.5 823.764,-359 823.764,-352"/>
</g>
<!-- Node21 -->
<g id="node21" class="node"><title>Node21</title>
<g id="a_node21"><a xlink:href="class_base_index.html#a2babb71bb9b93aadba06dae6e62d721b" target="_top" xlink:title="Start initializes the sync state and registers the instance as a ValidationInterface so that it stays...">
<polygon fill="white" stroke="black" points="1120.5,-270 1120.5,-289 1216.5,-289 1216.5,-270 1120.5,-270"/>
<text text-anchor="middle" x="1168.5" y="-277" font-family="Helvetica,sans-Serif" font-size="10.00">BaseIndex::Start</text>
</a>
</g>
</g>
<!-- Node20&#45;&gt;Node21 -->
<g id="edge29" class="edge"><title>Node20&#45;&gt;Node21</title>
<path fill="none" stroke="midnightblue" d="M1016.13,-345.427C1028.01,-341.973 1040.29,-337.428 1051,-331.5 1069.99,-320.988 1067.82,-308.655 1087,-298.5 1097.28,-293.058 1109.11,-289.158 1120.49,-286.368"/>
<polygon fill="midnightblue" stroke="midnightblue" points="1015.02,-342.1 1006.27,-348.079 1016.84,-348.86 1015.02,-342.1"/>
</g>
<!-- Node25 -->
<g id="node25" class="node"><title>Node25</title>
<g id="a_node25"><a xlink:href="class_block_filter_index.html#a77a5500d15d374075a3f14837edbc358" target="_top" xlink:title="Initialize internal state from the database and block index. ">
<polygon fill="white" stroke="black" points="1113.5,-346 1113.5,-365 1223.5,-365 1223.5,-346 1113.5,-346"/>
<text text-anchor="middle" x="1168.5" y="-353" font-family="Helvetica,sans-Serif" font-size="10.00">BlockFilterIndex::Init</text>
</a>
</g>
</g>
<!-- Node20&#45;&gt;Node25 -->
<g id="edge35" class="edge"><title>Node20&#45;&gt;Node25</title>
<path fill="none" stroke="midnightblue" d="M1016.36,-355.5C1046.12,-355.5 1083.33,-355.5 1113.38,-355.5"/>
<polygon fill="midnightblue" stroke="midnightblue" points="1016.17,-352 1006.17,-355.5 1016.17,-359 1016.17,-352"/>
</g>
<!-- Node26 -->
<g id="node26" class="node"><title>Node26</title>
<g id="a_node26"><a xlink:href="class_tx_index.html#a2ebe57b9a6d64ab90a9c6f8390649b48" target="_top" xlink:title="Override base class init to migrate from old database. ">
<polygon fill="white" stroke="black" points="1132,-308 1132,-327 1205,-327 1205,-308 1132,-308"/>
<text text-anchor="middle" x="1168.5" y="-315" font-family="Helvetica,sans-Serif" font-size="10.00">TxIndex::Init</text>
</a>
</g>
</g>
<!-- Node20&#45;&gt;Node26 -->
<g id="edge36" class="edge"><title>Node20&#45;&gt;Node26</title>
<path fill="none" stroke="midnightblue" d="M1016.08,-345.775C1052.36,-339 1099.8,-330.141 1131.84,-324.159"/>
<polygon fill="midnightblue" stroke="midnightblue" points="1015.35,-342.35 1006.17,-347.626 1016.64,-349.231 1015.35,-342.35"/>
</g>
<!-- Node21&#45;&gt;Node10 -->
<g id="edge34" class="edge"><title>Node21&#45;&gt;Node10</title>
<path fill="none" stroke="midnightblue" d="M1226.32,-288.727C1234.55,-291.242 1242.69,-294.439 1250,-298.5 1290.06,-320.768 1324.76,-364.625 1338.82,-383.96"/>
<polygon fill="midnightblue" stroke="midnightblue" points="1227.24,-285.35 1216.67,-286.076 1225.39,-292.1 1227.24,-285.35"/>
</g>
<!-- Node22 -->
<g id="node22" class="node"><title>Node22</title>
<g id="a_node22"><a xlink:href="class_base_index.html#a8960ca12b00a8a6c38428a07849ef88a" target="_top" xlink:title="Write update index entries for a newly connected block. ">
<polygon fill="white" stroke="black" points="1286,-251 1286,-270 1407,-270 1407,-251 1286,-251"/>
<text text-anchor="middle" x="1346.5" y="-258" font-family="Helvetica,sans-Serif" font-size="10.00">BaseIndex::WriteBlock</text>
</a>
</g>
</g>
<!-- Node21&#45;&gt;Node22 -->
<g id="edge30" class="edge"><title>Node21&#45;&gt;Node22</title>
<path fill="none" stroke="midnightblue" d="M1226.65,-273.33C1245.61,-271.283 1266.76,-269 1285.9,-266.934"/>
<polygon fill="midnightblue" stroke="midnightblue" points="1226.23,-269.855 1216.66,-274.408 1226.98,-276.815 1226.23,-269.855"/>
</g>
<!-- Node23 -->
<g id="node23" class="node"><title>Node23</title>
<g id="a_node23"><a xlink:href="class_base_index.html#a96a7407421fbf877509248bbe64f8d87" target="_top" xlink:title="Sync the index with the block index starting from the current best block. ">
<polygon fill="white" stroke="black" points="1453.5,-289 1453.5,-308 1581.5,-308 1581.5,-289 1453.5,-289"/>
<text text-anchor="middle" x="1517.5" y="-296" font-family="Helvetica,sans-Serif" font-size="10.00">BaseIndex::ThreadSync</text>
</a>
</g>
</g>
<!-- Node22&#45;&gt;Node23 -->
<g id="edge31" class="edge"><title>Node22&#45;&gt;Node23</title>
<path fill="none" stroke="midnightblue" d="M1400.09,-272.324C1423.91,-277.682 1451.71,-283.931 1474.16,-288.98"/>
<polygon fill="midnightblue" stroke="midnightblue" points="1400.67,-268.868 1390.15,-270.089 1399.13,-275.698 1400.67,-268.868"/>
</g>
<!-- Node24 -->
<g id="node24" class="node"><title>Node24</title>
<g id="a_node24"><a xlink:href="class_base_index.html#ab3f7a06bc635950918ee072262887223" target="_top" xlink:title="Notifies listeners of a block being connected. ">
<polygon fill="white" stroke="black" points="1443,-251 1443,-270 1592,-270 1592,-251 1443,-251"/>
<text text-anchor="middle" x="1517.5" y="-258" font-family="Helvetica,sans-Serif" font-size="10.00">BaseIndex::BlockConnected</text>
</a>
</g>
</g>
<!-- Node22&#45;&gt;Node24 -->
<g id="edge33" class="edge"><title>Node22&#45;&gt;Node24</title>
<path fill="none" stroke="midnightblue" d="M1417.29,-260.5C1425.75,-260.5 1434.42,-260.5 1442.94,-260.5"/>
<polygon fill="midnightblue" stroke="midnightblue" points="1417.08,-257 1407.08,-260.5 1417.08,-264 1417.08,-257"/>
</g>
<!-- Node23&#45;&gt;Node21 -->
<g id="edge32" class="edge"><title>Node23&#45;&gt;Node21</title>
<path fill="none" stroke="midnightblue" d="M1443,-294.475C1374.67,-290.734 1274.91,-285.272 1216.66,-282.082"/>
<polygon fill="midnightblue" stroke="midnightblue" points="1443.09,-297.985 1453.26,-295.038 1443.47,-290.996 1443.09,-297.985"/>
</g>
<!-- Node27&#45;&gt;Node8 -->
<g id="edge39" class="edge"><title>Node27&#45;&gt;Node8</title>
<path fill="none" stroke="midnightblue" d="M728.251,-292.321C711.196,-297.789 688.228,-304.119 669,-312.5 647.248,-321.982 624.336,-336.065 607.635,-345.835"/>
<polygon fill="midnightblue" stroke="midnightblue" points="729.669,-295.536 738.02,-289.017 727.426,-288.905 729.669,-295.536"/>
</g>
<!-- Node28 -->
<g id="node28" class="node"><title>Node28</title>
<g id="a_node28"><a xlink:href="class_c_tx_mem_pool.html#ad74247cc4eb672fb9063d4e9503f4cf0" target="_top" xlink:title="If sanity&#45;checking is turned on, check makes sure the pool is consistent (does not contain two transa...">
<polygon fill="white" stroke="black" points="907,-232 907,-251 1019,-251 1019,-232 907,-232"/>
<text text-anchor="middle" x="963" y="-239" font-family="Helvetica,sans-Serif" font-size="10.00">CTxMemPool::check</text>
</a>
</g>
</g>
<!-- Node27&#45;&gt;Node28 -->
<g id="edge40" class="edge"><title>Node27&#45;&gt;Node28</title>
<path fill="none" stroke="midnightblue" d="M812.311,-268.979C842.859,-263.371 880.161,-256.524 909.886,-251.067"/>
<polygon fill="midnightblue" stroke="midnightblue" points="811.434,-265.582 802.231,-270.83 812.698,-272.466 811.434,-265.582"/>
</g>
<!-- Node30 -->
<g id="node30" class="node"><title>Node30</title>
<g id="a_node30"><a xlink:href="validation_8h.html#a666c20fae7b9d75f2d9f4fedd059995a" target="_top" xlink:title="Check if transaction will be BIP 68 final in the next block to be created. ">
<polygon fill="white" stroke="black" points="902.5,-144 902.5,-163 1023.5,-163 1023.5,-144 902.5,-144"/>
<text text-anchor="middle" x="963" y="-151" font-family="Helvetica,sans-Serif" font-size="10.00">CheckSequenceLocks</text>
</a>
</g>
</g>
<!-- Node27&#45;&gt;Node30 -->
<g id="edge43" class="edge"><title>Node27&#45;&gt;Node30</title>
<path fill="none" stroke="midnightblue" d="M811.872,-270.597C821.286,-267.837 830.679,-264.225 839,-259.5 858.952,-248.171 857.977,-237.883 875,-222.5 900.031,-199.882 931.495,-175.943 948.9,-163.059"/>
<polygon fill="midnightblue" stroke="midnightblue" points="810.874,-267.24 802.099,-273.176 812.661,-274.009 810.874,-267.24"/>
</g>
<!-- Node28&#45;&gt;Node12 -->
<g id="edge41" class="edge"><title>Node28&#45;&gt;Node12</title>
<path fill="none" stroke="midnightblue" d="M1029.09,-241.5C1070.43,-241.5 1121.1,-241.5 1148.2,-241.5"/>
<polygon fill="midnightblue" stroke="midnightblue" points="1029.07,-238 1019.07,-241.5 1029.07,-245 1029.07,-238"/>
</g>
<!-- Node29 -->
<g id="node29" class="node"><title>Node29</title>
<g id="a_node29"><a xlink:href="class_c_chain_state.html#afb6986710de5db645a000d4bac55cf9f" target="_top" xlink:title="Try to make some progress towards making pindexMostWork the active block. ">
<polygon fill="white" stroke="black" points="1097,-182.5 1097,-212.5 1240,-212.5 1240,-182.5 1097,-182.5"/>
<text text-anchor="start" x="1105" y="-200.5" font-family="Helvetica,sans-Serif" font-size="10.00">CChainState::ActivateBest</text>
<text text-anchor="middle" x="1168.5" y="-189.5" font-family="Helvetica,sans-Serif" font-size="10.00">ChainStep</text>
</a>
</g>
</g>
<!-- Node28&#45;&gt;Node29 -->
<g id="edge42" class="edge"><title>Node28&#45;&gt;Node29</title>
<path fill="none" stroke="midnightblue" d="M1017.98,-229.828C1042.46,-224.535 1071.71,-218.211 1097.82,-212.565"/>
<polygon fill="midnightblue" stroke="midnightblue" points="1017.19,-226.418 1008.16,-231.953 1018.67,-233.26 1017.19,-226.418"/>
</g>
<!-- Node30&#45;&gt;Node30 -->
<g id="edge46" class="edge"><title>Node30&#45;&gt;Node30</title>
<path fill="none" stroke="midnightblue" d="M924.768,-170.614C924.196,-176.626 936.94,-181.5 963,-181.5 999.258,-181.5 1009.74,-172.065 994.442,-163.257"/>
<polygon fill="midnightblue" stroke="midnightblue" points="927.348,-172.98 931.558,-163.257 922.204,-168.232 927.348,-172.98"/>
</g>
<!-- Node31 -->
<g id="node31" class="node"><title>Node31</title>
<g id="a_node31"><a xlink:href="class_c_tx_mem_pool.html#a14d49e10e7c1a12335bf983891c1ed07" target="_top" xlink:title="CTxMemPool::removeForReorg">
<polygon fill="white" stroke="black" points="1087,-144 1087,-163 1250,-163 1250,-144 1087,-144"/>
<text text-anchor="middle" x="1168.5" y="-151" font-family="Helvetica,sans-Serif" font-size="10.00">CTxMemPool::removeForReorg</text>
</a>
</g>
</g>
<!-- Node30&#45;&gt;Node31 -->
<g id="edge44" class="edge"><title>Node30&#45;&gt;Node31</title>
<path fill="none" stroke="midnightblue" d="M1034.05,-147.05C1051,-146.719 1069.25,-146.662 1086.66,-146.878"/>
<polygon fill="midnightblue" stroke="midnightblue" points="1033.6,-143.559 1023.68,-147.291 1033.76,-150.558 1033.6,-143.559"/>
</g>
<!-- Node31&#45;&gt;Node30 -->
<g id="edge45" class="edge"><title>Node31&#45;&gt;Node30</title>
<path fill="none" stroke="midnightblue" d="M1076.23,-160.218C1058.41,-160.327 1040.15,-160.157 1023.68,-159.709"/>
<polygon fill="midnightblue" stroke="midnightblue" points="1076.69,-163.714 1086.66,-160.122 1076.62,-156.714 1076.69,-163.714"/>
</g>
<!-- Node33 -->
<g id="node33" class="node"><title>Node33</title>
<g id="a_node33"><a xlink:href="class_c_script_check.html#a4bad3434ddad70669f634879a8af132e" target="_top" xlink:title="CScriptCheck::GetScriptError">
<polygon fill="white" stroke="black" points="885.5,-783 885.5,-802 1040.5,-802 1040.5,-783 885.5,-783"/>
<text text-anchor="middle" x="963" y="-790" font-family="Helvetica,sans-Serif" font-size="10.00">CScriptCheck::GetScriptError</text>
</a>
</g>
</g>
<!-- Node32&#45;&gt;Node33 -->
<g id="edge48" class="edge"><title>Node32&#45;&gt;Node33</title>
<path fill="none" stroke="midnightblue" d="M810.005,-760.192C843.491,-767.31 885.726,-776.287 917.172,-782.971"/>
<polygon fill="midnightblue" stroke="midnightblue" points="810.425,-756.703 799.916,-758.047 808.97,-763.55 810.425,-756.703"/>
</g>
<!-- Node34 -->
<g id="node34" class="node"><title>Node34</title>
<g id="a_node34"><a xlink:href="class_block_assembler.html#acd45f01ed2556e805c82907def19efcb" target="_top" xlink:title="Construct a new block template with coinbase to scriptPubKeyIn. ">
<polygon fill="white" stroke="black" points="887,-733.5 887,-763.5 1039,-763.5 1039,-733.5 887,-733.5"/>
<text text-anchor="start" x="895" y="-751.5" font-family="Helvetica,sans-Serif" font-size="10.00">BlockAssembler::CreateNew</text>
<text text-anchor="middle" x="963" y="-740.5" font-family="Helvetica,sans-Serif" font-size="10.00">Block</text>
</a>
</g>
</g>
<!-- Node32&#45;&gt;Node34 -->
<g id="edge49" class="edge"><title>Node32&#45;&gt;Node34</title>
<path fill="none" stroke="midnightblue" d="M849.251,-748.5C861.856,-748.5 874.647,-748.5 886.866,-748.5"/>
<polygon fill="midnightblue" stroke="midnightblue" points="849.195,-745 839.195,-748.5 849.195,-752 849.195,-745"/>
</g>
<!-- Node35&#45;&gt;Node10 -->
<g id="edge51" class="edge"><title>Node35&#45;&gt;Node10</title>
<path fill="none" stroke="midnightblue" d="M1218.56,-393.5C1247.76,-393.5 1284.12,-393.5 1310.43,-393.5"/>
<polygon fill="midnightblue" stroke="midnightblue" points="1218.56,-390 1208.56,-393.5 1218.56,-397 1218.56,-390"/>
</g>
<!-- Node37 -->
<g id="node37" class="node"><title>Node37</title>
<g id="a_node37"><a xlink:href="struct_c_importing_now.html#a0e449b23ac612ff3ff491d989fd08a18" target="_top" xlink:title="CImportingNow::~CImportingNow">
<polygon fill="white" stroke="black" points="875,-695 875,-714 1051,-714 1051,-695 875,-695"/>
<text text-anchor="middle" x="963" y="-702" font-family="Helvetica,sans-Serif" font-size="10.00">CImportingNow::~CImportingNow</text>
</a>
</g>
</g>
<!-- Node36&#45;&gt;Node37 -->
<g id="edge53" class="edge"><title>Node36&#45;&gt;Node37</title>
<path fill="none" stroke="midnightblue" d="M823.767,-706.503C840.132,-706.266 857.808,-706.01 874.874,-705.763"/>
<polygon fill="midnightblue" stroke="midnightblue" points="823.712,-703.004 813.764,-706.648 823.814,-710.003 823.712,-703.004"/>
</g>
</g>
</svg>
