<?xml version="1.0" encoding="UTF-8" standalone="no"?>
<!DOCTYPE svg PUBLIC "-//W3C//DTD SVG 1.1//EN"
 "http://www.w3.org/Graphics/SVG/1.1/DTD/svg11.dtd">
<!-- Generated by graphviz version 2.38.0 (20140413.2041)
 -->
<!-- Title: OverrideStream::size Pages: 1 -->
<svg width="1527pt" height="963pt"
 viewBox="0.00 0.00 1527.00 963.00" xmlns="http://www.w3.org/2000/svg" xmlns:xlink="http://www.w3.org/1999/xlink">
<g id="graph0" class="graph" transform="scale(1 1) rotate(0) translate(4 959)">
<title>OverrideStream::size</title>
<polygon fill="white" stroke="none" points="-4,4 -4,-959 1523,-959 1523,4 -4,4"/>
<!-- Node1 -->
<g id="node1" class="node"><title>Node1</title>
<polygon fill="#bfbfbf" stroke="black" points="0,-576.5 0,-595.5 118,-595.5 118,-576.5 0,-576.5"/>
<text text-anchor="middle" x="59" y="-583.5" font-family="Helvetica,sans-Serif" font-size="10.00">OverrideStream::size</text>
</g>
<!-- Node2 -->
<g id="node2" class="node"><title>Node2</title>
<g id="a_node2"><a xlink:href="class_c_data_stream.html#abf5a9f3a26a56ef1ea1fb56b674677bf" target="_top" xlink:title="CDataStream::eof">
<polygon fill="white" stroke="black" points="164,-680.5 164,-699.5 268,-699.5 268,-680.5 164,-680.5"/>
<text text-anchor="middle" x="216" y="-687.5" font-family="Helvetica,sans-Serif" font-size="10.00">CDataStream::eof</text>
</a>
</g>
</g>
<!-- Node1&#45;&gt;Node2 -->
<g id="edge1" class="edge"><title>Node1&#45;&gt;Node2</title>
<path fill="none" stroke="midnightblue" d="M82.7079,-601.236C115.137,-622.995 173.767,-662.334 200.73,-680.426"/>
<polygon fill="midnightblue" stroke="midnightblue" points="84.5583,-598.263 74.3042,-595.598 80.6581,-604.076 84.5583,-598.263"/>
</g>
<!-- Node14 -->
<g id="node14" class="node"><title>Node14</title>
<g id="a_node14"><a xlink:href="class_c_data_stream.html#a270ab3e98d29ff2ac04e5c7a04222b2c" target="_top" xlink:title="CDataStream::in_avail">
<polygon fill="white" stroke="black" points="154,-576.5 154,-595.5 278,-595.5 278,-576.5 154,-576.5"/>
<text text-anchor="middle" x="216" y="-583.5" font-family="Helvetica,sans-Serif" font-size="10.00">CDataStream::in_avail</text>
</a>
</g>
</g>
<!-- Node1&#45;&gt;Node14 -->
<g id="edge21" class="edge"><title>Node1&#45;&gt;Node14</title>
<path fill="none" stroke="midnightblue" d="M128.417,-586C136.912,-586 145.554,-586 153.928,-586"/>
<polygon fill="midnightblue" stroke="midnightblue" points="128.157,-582.5 118.157,-586 128.157,-589.5 128.157,-582.5"/>
</g>
<!-- Node16 -->
<g id="node16" class="node"><title>Node16</title>
<g id="a_node16"><a xlink:href="class_c_data_stream.html#a5b631dc9cc9d5ba6a5b6ee910bd7d8a8" target="_top" xlink:title="XOR the contents of this stream with a certain key. ">
<polygon fill="white" stroke="black" points="164,-386.5 164,-405.5 268,-405.5 268,-386.5 164,-386.5"/>
<text text-anchor="middle" x="216" y="-393.5" font-family="Helvetica,sans-Serif" font-size="10.00">CDataStream::Xor</text>
</a>
</g>
</g>
<!-- Node1&#45;&gt;Node16 -->
<g id="edge23" class="edge"><title>Node1&#45;&gt;Node16</title>
<path fill="none" stroke="midnightblue" d="M74.3321,-568.432C106.191,-529.379 182.035,-436.409 206.93,-405.892"/>
<polygon fill="midnightblue" stroke="midnightblue" points="71.5088,-566.356 67.8996,-576.317 76.9329,-570.78 71.5088,-566.356"/>
</g>
<!-- Node3 -->
<g id="node3" class="node"><title>Node3</title>
<g id="a_node3"><a xlink:href="core__read_8cpp.html#a45f62104849154dbfc8f78cd6a6f8ba7" target="_top" xlink:title="DecodeHexTx">
<polygon fill="white" stroke="black" points="333.5,-747.5 333.5,-766.5 416.5,-766.5 416.5,-747.5 333.5,-747.5"/>
<text text-anchor="middle" x="375" y="-754.5" font-family="Helvetica,sans-Serif" font-size="10.00">DecodeHexTx</text>
</a>
</g>
</g>
<!-- Node2&#45;&gt;Node3 -->
<g id="edge2" class="edge"><title>Node2&#45;&gt;Node3</title>
<path fill="none" stroke="midnightblue" d="M248.841,-703.588C279.356,-716.61 324.635,-735.934 351.547,-747.418"/>
<polygon fill="midnightblue" stroke="midnightblue" points="250.066,-700.305 239.494,-699.599 247.318,-706.744 250.066,-700.305"/>
</g>
<!-- Node4 -->
<g id="node4" class="node"><title>Node4</title>
<g id="a_node4"><a xlink:href="class_secp256k1_init.html#afc30fc1b48da30544d3365df6ed3e3f4" target="_top" xlink:title="Secp256k1Init::~Secp256k1Init">
<polygon fill="white" stroke="black" points="472,-709.5 472,-728.5 638,-728.5 638,-709.5 472,-709.5"/>
<text text-anchor="middle" x="555" y="-716.5" font-family="Helvetica,sans-Serif" font-size="10.00">Secp256k1Init::~Secp256k1Init</text>
</a>
</g>
</g>
<!-- Node3&#45;&gt;Node4 -->
<g id="edge3" class="edge"><title>Node3&#45;&gt;Node4</title>
<path fill="none" stroke="midnightblue" d="M426.881,-746.138C452.881,-740.587 484.234,-733.894 509.296,-728.544"/>
<polygon fill="midnightblue" stroke="midnightblue" points="425.886,-742.771 416.837,-748.282 427.347,-749.617 425.886,-742.771"/>
</g>
<!-- Node5 -->
<g id="node5" class="node"><title>Node5</title>
<g id="a_node5"><a xlink:href="rawtransaction_8h.html#aee85a5d91a985f7e1bc1b4a124870ab3" target="_top" xlink:title="Create a transaction from univalue parameters. ">
<polygon fill="white" stroke="black" points="496.5,-841.5 496.5,-860.5 613.5,-860.5 613.5,-841.5 496.5,-841.5"/>
<text text-anchor="middle" x="555" y="-848.5" font-family="Helvetica,sans-Serif" font-size="10.00">ConstructTransaction</text>
</a>
</g>
</g>
<!-- Node3&#45;&gt;Node5 -->
<g id="edge4" class="edge"><title>Node3&#45;&gt;Node5</title>
<path fill="none" stroke="midnightblue" d="M392.764,-773.887C410.789,-791.072 441.049,-817.223 472,-832 480.044,-835.841 488.911,-838.93 497.751,-841.408"/>
<polygon fill="midnightblue" stroke="midnightblue" points="394.989,-771.168 385.384,-766.695 390.103,-776.181 394.989,-771.168"/>
</g>
<!-- Node7 -->
<g id="node7" class="node"><title>Node7</title>
<g id="a_node7"><a xlink:href="rawtransaction_8cpp.html#a6b6a0c0d5bd5b55553ea48b3da2e796c" target="_top" xlink:title="converttopsbt">
<polygon fill="white" stroke="black" points="922.5,-897.5 922.5,-916.5 1005.5,-916.5 1005.5,-897.5 922.5,-897.5"/>
<text text-anchor="middle" x="964" y="-904.5" font-family="Helvetica,sans-Serif" font-size="10.00">converttopsbt</text>
</a>
</g>
</g>
<!-- Node3&#45;&gt;Node7 -->
<g id="edge15" class="edge"><title>Node3&#45;&gt;Node7</title>
<path fill="none" stroke="midnightblue" d="M383.393,-775.909C396.262,-805.904 425.897,-863.496 472,-888 549.4,-929.138 818.928,-916.473 922.254,-909.876"/>
<polygon fill="midnightblue" stroke="midnightblue" points="386.583,-774.465 379.54,-766.55 380.11,-777.13 386.583,-774.465"/>
</g>
<!-- Node9 -->
<g id="node9" class="node"><title>Node9</title>
<g id="a_node9"><a xlink:href="rawtransaction_8h.html#a5e724e06b03599639652035640a7d74b" target="_top" xlink:title="Sign a transaction with the given keystore and previous transactions. ">
<polygon fill="white" stroke="black" points="509,-747.5 509,-766.5 601,-766.5 601,-747.5 509,-747.5"/>
<text text-anchor="middle" x="555" y="-754.5" font-family="Helvetica,sans-Serif" font-size="10.00">SignTransaction</text>
</a>
</g>
</g>
<!-- Node3&#45;&gt;Node9 -->
<g id="edge9" class="edge"><title>Node3&#45;&gt;Node9</title>
<path fill="none" stroke="midnightblue" d="M426.842,-757C452.741,-757 483.957,-757 508.979,-757"/>
<polygon fill="midnightblue" stroke="midnightblue" points="426.837,-753.5 416.837,-757 426.837,-760.5 426.837,-753.5"/>
</g>
<!-- Node10 -->
<g id="node10" class="node"><title>Node10</title>
<g id="a_node10"><a xlink:href="rpcwallet_8h.html#a7c13054932c9e3b351bd6277fa9361d7" target="_top" xlink:title="signrawtransactionwithwallet">
<polygon fill="white" stroke="black" points="684.5,-745.5 684.5,-764.5 836.5,-764.5 836.5,-745.5 684.5,-745.5"/>
<text text-anchor="middle" x="760.5" y="-752.5" font-family="Helvetica,sans-Serif" font-size="10.00">signrawtransactionwithwallet</text>
</a>
</g>
</g>
<!-- Node3&#45;&gt;Node10 -->
<g id="edge20" class="edge"><title>Node3&#45;&gt;Node10</title>
<path fill="none" stroke="midnightblue" d="M395.37,-741.203C413.8,-727.268 442.955,-707.973 472,-700 543.146,-680.47 565.882,-684.437 638,-700 678.514,-708.743 721.774,-732.149 744.132,-745.439"/>
<polygon fill="midnightblue" stroke="midnightblue" points="393.207,-738.451 387.463,-747.354 397.505,-743.976 393.207,-738.451"/>
</g>
<!-- Node11 -->
<g id="node11" class="node"><title>Node11</title>
<g id="a_node11"><a xlink:href="rawtransaction_8cpp.html#a5b2abfea4548c97e780cfae39f9ac11b" target="_top" xlink:title="signrawtransaction">
<polygon fill="white" stroke="black" points="501.5,-935.5 501.5,-954.5 608.5,-954.5 608.5,-935.5 501.5,-935.5"/>
<text text-anchor="middle" x="555" y="-942.5" font-family="Helvetica,sans-Serif" font-size="10.00">signrawtransaction</text>
</a>
</g>
</g>
<!-- Node3&#45;&gt;Node11 -->
<g id="edge13" class="edge"><title>Node3&#45;&gt;Node11</title>
<path fill="none" stroke="midnightblue" d="M382.095,-776.665C393.799,-811.152 422.726,-882.524 472,-921 480.535,-927.664 490.87,-932.48 501.284,-935.958"/>
<polygon fill="midnightblue" stroke="midnightblue" points="385.323,-775.275 378.896,-766.852 378.668,-777.445 385.323,-775.275"/>
</g>
<!-- Node12 -->
<g id="node12" class="node"><title>Node12</title>
<g id="a_node12"><a xlink:href="rpcwallet_8cpp.html#a4b35e53468d94704834a928013d7e716" target="_top" xlink:title="importprunedfunds">
<polygon fill="white" stroke="black" points="501,-633.5 501,-652.5 609,-652.5 609,-633.5 501,-633.5"/>
<text text-anchor="middle" x="555" y="-640.5" font-family="Helvetica,sans-Serif" font-size="10.00">importprunedfunds</text>
</a>
</g>
</g>
<!-- Node3&#45;&gt;Node12 -->
<g id="edge16" class="edge"><title>Node3&#45;&gt;Node12</title>
<path fill="none" stroke="midnightblue" d="M390.148,-739.471C407.421,-719.189 438.499,-686.134 472,-667 482.82,-660.82 495.367,-656.112 507.344,-652.575"/>
<polygon fill="midnightblue" stroke="midnightblue" points="387.335,-737.38 383.624,-747.304 392.714,-741.86 387.335,-737.38"/>
</g>
<!-- Node13 -->
<g id="node13" class="node"><title>Node13</title>
<g id="a_node13"><a xlink:href="rpcwallet_8cpp.html#aaaebd94e806360dd08e7254b09c7997b" target="_top" xlink:title="FundTransaction">
<polygon fill="white" stroke="black" points="508.5,-803.5 508.5,-822.5 601.5,-822.5 601.5,-803.5 508.5,-803.5"/>
<text text-anchor="middle" x="555" y="-810.5" font-family="Helvetica,sans-Serif" font-size="10.00">FundTransaction</text>
</a>
</g>
</g>
<!-- Node3&#45;&gt;Node13 -->
<g id="edge18" class="edge"><title>Node3&#45;&gt;Node13</title>
<path fill="none" stroke="midnightblue" d="M407.609,-770.47C426.145,-778.043 450.144,-787.292 472,-794 483.595,-797.559 496.291,-800.807 508.156,-803.572"/>
<polygon fill="midnightblue" stroke="midnightblue" points="408.767,-767.161 398.189,-766.574 406.092,-773.63 408.767,-767.161"/>
</g>
<!-- Node5&#45;&gt;Node5 -->
<g id="edge5" class="edge"><title>Node5&#45;&gt;Node5</title>
<path fill="none" stroke="midnightblue" d="M521.267,-868.891C521.761,-874.541 533.005,-879 555,-879 586.992,-879 596.24,-869.565 582.743,-860.757"/>
<polygon fill="midnightblue" stroke="midnightblue" points="524.146,-870.885 527.257,-860.757 518.509,-866.734 524.146,-870.885"/>
</g>
<!-- Node6 -->
<g id="node6" class="node"><title>Node6</title>
<g id="a_node6"><a xlink:href="rawtransaction_8cpp.html#ab96b0b3cf82a8f50975ee74c26c4dbf8" target="_top" xlink:title="createpsbt">
<polygon fill="white" stroke="black" points="726.5,-859.5 726.5,-878.5 794.5,-878.5 794.5,-859.5 726.5,-859.5"/>
<text text-anchor="middle" x="760.5" y="-866.5" font-family="Helvetica,sans-Serif" font-size="10.00">createpsbt</text>
</a>
</g>
</g>
<!-- Node5&#45;&gt;Node6 -->
<g id="edge6" class="edge"><title>Node5&#45;&gt;Node6</title>
<path fill="none" stroke="midnightblue" d="M623.796,-856.997C658.293,-860.048 698.67,-863.619 726.358,-866.069"/>
<polygon fill="midnightblue" stroke="midnightblue" points="624.04,-853.505 613.771,-856.11 623.423,-860.477 624.04,-853.505"/>
</g>
<!-- Node8 -->
<g id="node8" class="node"><title>Node8</title>
<g id="a_node8"><a xlink:href="rpcwallet_8cpp.html#afca55ac7a3c6c274b8b7b3e6eab9cd86" target="_top" xlink:title="walletcreatefundedpsbt">
<polygon fill="white" stroke="black" points="900,-764.5 900,-783.5 1028,-783.5 1028,-764.5 900,-764.5"/>
<text text-anchor="middle" x="964" y="-771.5" font-family="Helvetica,sans-Serif" font-size="10.00">walletcreatefundedpsbt</text>
</a>
</g>
</g>
<!-- Node5&#45;&gt;Node8 -->
<g id="edge8" class="edge"><title>Node5&#45;&gt;Node8</title>
<path fill="none" stroke="midnightblue" d="M623.527,-843.261C682.791,-835.882 771.121,-823.46 847,-807 876.67,-800.564 909.944,-790.832 933.221,-783.602"/>
<polygon fill="midnightblue" stroke="midnightblue" points="623.038,-839.794 613.541,-844.491 623.894,-846.742 623.038,-839.794"/>
</g>
<!-- Node6&#45;&gt;Node7 -->
<g id="edge7" class="edge"><title>Node6&#45;&gt;Node7</title>
<path fill="none" stroke="midnightblue" d="M804.663,-877.14C839.516,-883.713 888.213,-892.896 922.371,-899.338"/>
<polygon fill="midnightblue" stroke="midnightblue" points="805.249,-873.689 794.774,-875.275 803.952,-880.568 805.249,-873.689"/>
</g>
<!-- Node9&#45;&gt;Node9 -->
<g id="edge10" class="edge"><title>Node9&#45;&gt;Node9</title>
<path fill="none" stroke="midnightblue" d="M521.267,-774.891C521.761,-780.541 533.005,-785 555,-785 586.992,-785 596.24,-775.565 582.743,-766.757"/>
<polygon fill="midnightblue" stroke="midnightblue" points="524.146,-776.885 527.257,-766.757 518.509,-772.734 524.146,-776.885"/>
</g>
<!-- Node9&#45;&gt;Node10 -->
<g id="edge11" class="edge"><title>Node9&#45;&gt;Node10</title>
<path fill="none" stroke="midnightblue" d="M611.231,-756.457C633.787,-756.236 660.228,-755.976 684.487,-755.737"/>
<polygon fill="midnightblue" stroke="midnightblue" points="611.128,-752.958 601.163,-756.556 611.197,-759.958 611.128,-752.958"/>
</g>
<!-- Node10&#45;&gt;Node8 -->
<g id="edge12" class="edge"><title>Node10&#45;&gt;Node8</title>
<path fill="none" stroke="midnightblue" d="M846.884,-763.051C864.625,-764.724 883.016,-766.458 899.788,-768.04"/>
<polygon fill="midnightblue" stroke="midnightblue" points="846.816,-759.529 836.531,-762.075 846.158,-766.498 846.816,-759.529"/>
</g>
<!-- Node11&#45;&gt;Node7 -->
<g id="edge14" class="edge"><title>Node11&#45;&gt;Node7</title>
<path fill="none" stroke="midnightblue" d="M618.897,-940.503C677.878,-936.122 768.499,-928.971 847,-921 872.025,-918.459 900.023,-915.095 922.242,-912.301"/>
<polygon fill="midnightblue" stroke="midnightblue" points="618.34,-937.034 608.625,-941.261 618.855,-944.015 618.34,-937.034"/>
</g>
<!-- Node12&#45;&gt;Node8 -->
<g id="edge17" class="edge"><title>Node12&#45;&gt;Node8</title>
<path fill="none" stroke="midnightblue" d="M595.733,-655.598C651.787,-673.394 757.267,-706.964 847,-736 876.639,-745.591 910.488,-756.697 933.939,-764.415"/>
<polygon fill="midnightblue" stroke="midnightblue" points="596.776,-652.257 586.185,-652.568 594.658,-658.929 596.776,-652.257"/>
</g>
<!-- Node13&#45;&gt;Node8 -->
<g id="edge19" class="edge"><title>Node13&#45;&gt;Node8</title>
<path fill="none" stroke="midnightblue" d="M611.728,-807.66C687.027,-800.445 820.9,-787.616 899.843,-780.052"/>
<polygon fill="midnightblue" stroke="midnightblue" points="611.124,-804.202 601.503,-808.64 611.792,-811.17 611.124,-804.202"/>
</g>
<!-- Node15 -->
<g id="node15" class="node"><title>Node15</title>
<g id="a_node15"><a xlink:href="class_peer_logic_validation.html#a124965d7310e0df08cc027d4e1cbbe7b" target="_top" xlink:title="Overridden from CValidationInterface. ">
<polygon fill="white" stroke="black" points="320,-571 320,-601 430,-601 430,-571 320,-571"/>
<text text-anchor="start" x="328" y="-589" font-family="Helvetica,sans-Serif" font-size="10.00">PeerLogicValidation</text>
<text text-anchor="middle" x="375" y="-578" font-family="Helvetica,sans-Serif" font-size="10.00">::BlockChecked</text>
</a>
</g>
</g>
<!-- Node14&#45;&gt;Node15 -->
<g id="edge22" class="edge"><title>Node14&#45;&gt;Node15</title>
<path fill="none" stroke="midnightblue" d="M288.265,-586C298.9,-586 309.713,-586 319.915,-586"/>
<polygon fill="midnightblue" stroke="midnightblue" points="288.15,-582.5 278.15,-586 288.15,-589.5 288.15,-582.5"/>
</g>
<!-- Node17 -->
<g id="node17" class="node"><title>Node17</title>
<g id="a_node17"><a xlink:href="class_c_d_b_batch.html#a91b5d889a8d7e56c4f0bbf446e246111" target="_top" xlink:title="CDBBatch::Write">
<polygon fill="white" stroke="black" points="327.5,-405.5 327.5,-424.5 422.5,-424.5 422.5,-405.5 327.5,-405.5"/>
<text text-anchor="middle" x="375" y="-412.5" font-family="Helvetica,sans-Serif" font-size="10.00">CDBBatch::Write</text>
</a>
</g>
</g>
<!-- Node16&#45;&gt;Node17 -->
<g id="edge24" class="edge"><title>Node16&#45;&gt;Node17</title>
<path fill="none" stroke="midnightblue" d="M278.37,-403.427C294.626,-405.394 311.913,-407.486 327.254,-409.343"/>
<polygon fill="midnightblue" stroke="midnightblue" points="278.756,-399.948 268.408,-402.221 277.915,-406.897 278.756,-399.948"/>
</g>
<!-- Node34 -->
<g id="node34" class="node"><title>Node34</title>
<g id="a_node34"><a xlink:href="class_c_d_b_iterator.html#a1b99353b18b45216db24940526838e7a" target="_top" xlink:title="CDBIterator::GetValue">
<polygon fill="white" stroke="black" points="314,-329.5 314,-348.5 436,-348.5 436,-329.5 314,-329.5"/>
<text text-anchor="middle" x="375" y="-336.5" font-family="Helvetica,sans-Serif" font-size="10.00">CDBIterator::GetValue</text>
</a>
</g>
</g>
<!-- Node16&#45;&gt;Node34 -->
<g id="edge44" class="edge"><title>Node16&#45;&gt;Node34</title>
<path fill="none" stroke="midnightblue" d="M252.987,-382.935C281.846,-372.457 321.681,-357.995 347.636,-348.572"/>
<polygon fill="midnightblue" stroke="midnightblue" points="251.484,-379.757 243.278,-386.459 253.872,-386.337 251.484,-379.757"/>
</g>
<!-- Node35 -->
<g id="node35" class="node"><title>Node35</title>
<g id="a_node35"><a xlink:href="class_c_d_b_wrapper.html#a839a7dcca6afbf52a30c3efaead7bef0" target="_top" xlink:title="CDBWrapper::Read">
<polygon fill="white" stroke="black" points="502,-367.5 502,-386.5 608,-386.5 608,-367.5 502,-367.5"/>
<text text-anchor="middle" x="555" y="-374.5" font-family="Helvetica,sans-Serif" font-size="10.00">CDBWrapper::Read</text>
</a>
</g>
</g>
<!-- Node16&#45;&gt;Node35 -->
<g id="edge45" class="edge"><title>Node16&#45;&gt;Node35</title>
<path fill="none" stroke="midnightblue" d="M278.526,-392.531C342.485,-388.925 441.505,-383.342 501.78,-379.944"/>
<polygon fill="midnightblue" stroke="midnightblue" points="277.97,-389.057 268.183,-393.114 278.364,-396.046 277.97,-389.057"/>
</g>
<!-- Node18 -->
<g id="node18" class="node"><title>Node18</title>
<g id="a_node18"><a xlink:href="class_c_d_b_wrapper.html#a6600aa8c2b30880dd7e032ea21f74aed" target="_top" xlink:title="CDBWrapper::Write">
<polygon fill="white" stroke="black" points="502,-158.5 502,-177.5 608,-177.5 608,-158.5 502,-158.5"/>
<text text-anchor="middle" x="555" y="-165.5" font-family="Helvetica,sans-Serif" font-size="10.00">CDBWrapper::Write</text>
</a>
</g>
</g>
<!-- Node17&#45;&gt;Node18 -->
<g id="edge25" class="edge"><title>Node17&#45;&gt;Node18</title>
<path fill="none" stroke="midnightblue" d="M395.817,-398.492C408.151,-387.68 423.911,-372.846 436,-358 487.734,-294.468 534.349,-206.591 549.139,-177.659"/>
<polygon fill="midnightblue" stroke="midnightblue" points="393.215,-396.113 387.913,-405.286 397.778,-401.422 393.215,-396.113"/>
</g>
<!-- Node27 -->
<g id="node27" class="node"><title>Node27</title>
<g id="a_node27"><a xlink:href="class_tx_index_1_1_d_b.html#a7eeb3325ee83f6fe2736278a7952ba5c" target="_top" xlink:title="Migrate txindex data from the block tree DB, where it may be for older nodes that have not been upgra...">
<polygon fill="white" stroke="black" points="895,-177.5 895,-196.5 1033,-196.5 1033,-177.5 895,-177.5"/>
<text text-anchor="middle" x="964" y="-184.5" font-family="Helvetica,sans-Serif" font-size="10.00">TxIndex::DB::MigrateData</text>
</a>
</g>
</g>
<!-- Node17&#45;&gt;Node27 -->
<g id="edge40" class="edge"><title>Node17&#45;&gt;Node27</title>
<path fill="none" stroke="midnightblue" d="M398.77,-399.241C411.76,-389.01 427.167,-374.528 436,-358 480.427,-274.87 408.921,-219.038 472,-149 528.41,-86.3675 775.774,-46.9257 847,-92 878.583,-111.987 853.957,-144.475 883,-168 887.77,-171.864 893.195,-174.965 898.919,-177.452"/>
<polygon fill="midnightblue" stroke="midnightblue" points="396.565,-396.521 390.677,-405.329 400.772,-402.115 396.565,-396.521"/>
</g>
<!-- Node30 -->
<g id="node30" class="node"><title>Node30</title>
<g id="a_node30"><a xlink:href="class_tx_index_1_1_d_b.html#a1a74538fe62aa9bea4c4ad27a090b902" target="_top" xlink:title="Write a batch of transaction positions to the DB. ">
<polygon fill="white" stroke="black" points="496,-25.5 496,-44.5 614,-44.5 614,-25.5 496,-25.5"/>
<text text-anchor="middle" x="555" y="-32.5" font-family="Helvetica,sans-Serif" font-size="10.00">TxIndex::DB::WriteTxs</text>
</a>
</g>
</g>
<!-- Node17&#45;&gt;Node30 -->
<g id="edge39" class="edge"><title>Node17&#45;&gt;Node30</title>
<path fill="none" stroke="midnightblue" d="M399.075,-399.399C412.174,-389.225 427.589,-374.747 436,-358 496.072,-238.389 385.471,-161.119 472,-59 478.329,-51.5308 486.845,-46.3177 495.999,-42.6938"/>
<polygon fill="midnightblue" stroke="midnightblue" points="396.859,-396.685 390.899,-405.444 401.02,-402.313 396.859,-396.685"/>
</g>
<!-- Node31 -->
<g id="node31" class="node"><title>Node31</title>
<g id="a_node31"><a xlink:href="class_c_coins_view_d_b.html#aeb6c04068de59681a8bbc85f81f50c34" target="_top" xlink:title="Do a bulk modification (multiple Coin changes + BestBlock change). ">
<polygon fill="white" stroke="black" points="892.5,-519.5 892.5,-538.5 1035.5,-538.5 1035.5,-519.5 892.5,-519.5"/>
<text text-anchor="middle" x="964" y="-526.5" font-family="Helvetica,sans-Serif" font-size="10.00">CCoinsViewDB::BatchWrite</text>
</a>
</g>
</g>
<!-- Node17&#45;&gt;Node31 -->
<g id="edge41" class="edge"><title>Node17&#45;&gt;Node31</title>
<path fill="none" stroke="midnightblue" d="M395.268,-431.046C440.415,-467.456 558.016,-555.53 674,-586 748.366,-605.536 772.107,-603.406 847,-586 886.341,-576.856 927.708,-552.391 948.801,-538.671"/>
<polygon fill="midnightblue" stroke="midnightblue" points="397.424,-428.287 387.462,-424.679 392.999,-433.712 397.424,-428.287"/>
</g>
<!-- Node32 -->
<g id="node32" class="node"><title>Node32</title>
<g id="a_node32"><a xlink:href="class_c_block_tree_d_b.html#aa4b53c1cae368f02f56244af5f2499d7" target="_top" xlink:title="CBlockTreeDB::WriteBatchSync">
<polygon fill="white" stroke="black" points="473.5,-443.5 473.5,-462.5 636.5,-462.5 636.5,-443.5 473.5,-443.5"/>
<text text-anchor="middle" x="555" y="-450.5" font-family="Helvetica,sans-Serif" font-size="10.00">CBlockTreeDB::WriteBatchSync</text>
</a>
</g>
</g>
<!-- Node17&#45;&gt;Node32 -->
<g id="edge42" class="edge"><title>Node17&#45;&gt;Node32</title>
<path fill="none" stroke="midnightblue" d="M430.716,-426.681C455.959,-432.07 485.545,-438.386 509.406,-443.48"/>
<polygon fill="midnightblue" stroke="midnightblue" points="431.427,-423.254 420.917,-424.589 429.966,-430.1 431.427,-423.254"/>
</g>
<!-- Node33 -->
<g id="node33" class="node"><title>Node33</title>
<g id="a_node33"><a xlink:href="class_c_coins_view_d_b.html#a72c1d718a15df89eadab97ce3b34fa56" target="_top" xlink:title="Attempt to update from an older database format. Returns whether an error occurred. ">
<polygon fill="white" stroke="black" points="488.5,-405.5 488.5,-424.5 621.5,-424.5 621.5,-405.5 488.5,-405.5"/>
<text text-anchor="middle" x="555" y="-412.5" font-family="Helvetica,sans-Serif" font-size="10.00">CCoinsViewDB::Upgrade</text>
</a>
</g>
</g>
<!-- Node17&#45;&gt;Node33 -->
<g id="edge43" class="edge"><title>Node17&#45;&gt;Node33</title>
<path fill="none" stroke="midnightblue" d="M432.93,-415C450.615,-415 470.252,-415 488.474,-415"/>
<polygon fill="midnightblue" stroke="midnightblue" points="432.767,-411.5 422.767,-415 432.767,-418.5 432.767,-411.5"/>
</g>
<!-- Node19 -->
<g id="node19" class="node"><title>Node19</title>
<g id="a_node19"><a xlink:href="class_c_d_b_wrapper.html#aac6220002df70f327ab09893e08902f5" target="_top" xlink:title="CDBWrapper::CDBWrapper">
<polygon fill="white" stroke="black" points="689,-215.5 689,-234.5 832,-234.5 832,-215.5 689,-215.5"/>
<text text-anchor="middle" x="760.5" y="-222.5" font-family="Helvetica,sans-Serif" font-size="10.00">CDBWrapper::CDBWrapper</text>
</a>
</g>
</g>
<!-- Node18&#45;&gt;Node19 -->
<g id="edge26" class="edge"><title>Node18&#45;&gt;Node19</title>
<path fill="none" stroke="midnightblue" d="M599.736,-180.25C637.334,-190.781 690.803,-205.758 725.328,-215.428"/>
<polygon fill="midnightblue" stroke="midnightblue" points="600.635,-176.867 590.061,-177.541 598.747,-183.608 600.635,-176.867"/>
</g>
<!-- Node20 -->
<g id="node20" class="node"><title>Node20</title>
<g id="a_node20"><a xlink:href="class_base_index_1_1_d_b.html#abe7afe749f8e643c2eaacb626cbe4f65" target="_top" xlink:title="Write block locator of the chain that the txindex is in sync with. ">
<polygon fill="white" stroke="black" points="692,-14 692,-44 829,-44 829,-14 692,-14"/>
<text text-anchor="start" x="700" y="-32" font-family="Helvetica,sans-Serif" font-size="10.00">BaseIndex::DB::WriteBest</text>
<text text-anchor="middle" x="760.5" y="-21" font-family="Helvetica,sans-Serif" font-size="10.00">Block</text>
</a>
</g>
</g>
<!-- Node18&#45;&gt;Node20 -->
<g id="edge27" class="edge"><title>Node18&#45;&gt;Node20</title>
<path fill="none" stroke="midnightblue" d="M578.604,-152.561C617.905,-125.716 698.355,-70.7652 737.342,-44.1349"/>
<polygon fill="midnightblue" stroke="midnightblue" points="576.271,-149.915 569.987,-158.446 580.219,-155.696 576.271,-149.915"/>
</g>
<!-- Node18&#45;&gt;Node27 -->
<g id="edge35" class="edge"><title>Node18&#45;&gt;Node27</title>
<path fill="none" stroke="midnightblue" d="M618.578,-170.921C693.297,-174.409 817.817,-180.222 894.896,-183.821"/>
<polygon fill="midnightblue" stroke="midnightblue" points="618.527,-167.415 608.375,-170.445 618.201,-174.408 618.527,-167.415"/>
</g>
<!-- Node28 -->
<g id="node28" class="node"><title>Node28</title>
<g id="a_node28"><a xlink:href="class_c_block_tree_d_b.html#a55914903b15bc119d0c4952af8fdf721" target="_top" xlink:title="CBlockTreeDB::WriteReindexing">
<polygon fill="white" stroke="black" points="679,-139.5 679,-158.5 842,-158.5 842,-139.5 679,-139.5"/>
<text text-anchor="middle" x="760.5" y="-146.5" font-family="Helvetica,sans-Serif" font-size="10.00">CBlockTreeDB::WriteReindexing</text>
</a>
</g>
</g>
<!-- Node18&#45;&gt;Node28 -->
<g id="edge36" class="edge"><title>Node18&#45;&gt;Node28</title>
<path fill="none" stroke="midnightblue" d="M618.189,-162.194C637.253,-160.414 658.512,-158.429 678.632,-156.55"/>
<polygon fill="midnightblue" stroke="midnightblue" points="617.773,-158.717 608.142,-163.132 618.424,-165.687 617.773,-158.717"/>
</g>
<!-- Node29 -->
<g id="node29" class="node"><title>Node29</title>
<g id="a_node29"><a xlink:href="class_c_block_tree_d_b.html#af2f65b70ac5d8a198d4f29a7e909c08a" target="_top" xlink:title="CBlockTreeDB::WriteFlag">
<polygon fill="white" stroke="black" points="695,-101.5 695,-120.5 826,-120.5 826,-101.5 695,-101.5"/>
<text text-anchor="middle" x="760.5" y="-108.5" font-family="Helvetica,sans-Serif" font-size="10.00">CBlockTreeDB::WriteFlag</text>
</a>
</g>
</g>
<!-- Node18&#45;&gt;Node29 -->
<g id="edge37" class="edge"><title>Node18&#45;&gt;Node29</title>
<path fill="none" stroke="midnightblue" d="M593.182,-155.047C616.282,-147.245 646.68,-137.417 674,-130 686.473,-126.613 700.09,-123.381 712.715,-120.574"/>
<polygon fill="midnightblue" stroke="midnightblue" points="591.779,-151.827 583.44,-158.363 594.035,-158.454 591.779,-151.827"/>
</g>
<!-- Node21 -->
<g id="node21" class="node"><title>Node21</title>
<g id="a_node21"><a xlink:href="class_base_index.html#a96a7407421fbf877509248bbe64f8d87" target="_top" xlink:title="Sync the index with the block index starting from the current best block. ">
<polygon fill="white" stroke="black" points="900,-139.5 900,-158.5 1028,-158.5 1028,-139.5 900,-139.5"/>
<text text-anchor="middle" x="964" y="-146.5" font-family="Helvetica,sans-Serif" font-size="10.00">BaseIndex::ThreadSync</text>
</a>
</g>
</g>
<!-- Node20&#45;&gt;Node21 -->
<g id="edge28" class="edge"><title>Node20&#45;&gt;Node21</title>
<path fill="none" stroke="midnightblue" d="M822.704,-47.7487C831.056,-51.0879 839.371,-54.8458 847,-59 889.98,-82.4051 933.74,-121.328 952.934,-139.326"/>
<polygon fill="midnightblue" stroke="midnightblue" points="823.886,-44.4533 813.295,-44.1576 821.39,-50.9932 823.886,-44.4533"/>
</g>
<!-- Node25 -->
<g id="node25" class="node"><title>Node25</title>
<g id="a_node25"><a xlink:href="class_base_index.html#aec33bcb4ab5a0b0de416b4f3c4a1774b" target="_top" xlink:title="Write the current chain block locator to the DB. ">
<polygon fill="white" stroke="black" points="892.5,-38.5 892.5,-57.5 1035.5,-57.5 1035.5,-38.5 892.5,-38.5"/>
<text text-anchor="middle" x="964" y="-45.5" font-family="Helvetica,sans-Serif" font-size="10.00">BaseIndex::WriteBestBlock</text>
</a>
</g>
</g>
<!-- Node20&#45;&gt;Node25 -->
<g id="edge33" class="edge"><title>Node20&#45;&gt;Node25</title>
<path fill="none" stroke="midnightblue" d="M839.32,-36.3379C856.801,-37.9862 875.255,-39.7263 892.421,-41.3449"/>
<polygon fill="midnightblue" stroke="midnightblue" points="839.442,-32.8339 829.157,-35.3796 838.784,-39.803 839.442,-32.8339"/>
</g>
<!-- Node26 -->
<g id="node26" class="node"><title>Node26</title>
<g id="a_node26"><a xlink:href="class_base_index.html#a770e60b2fcbc0b8adaaeb54f18eb9c8a" target="_top" xlink:title="Notifies listeners of the new active block chain on&#45;disk. ">
<polygon fill="white" stroke="black" points="883,-0.5 883,-19.5 1045,-19.5 1045,-0.5 883,-0.5"/>
<text text-anchor="middle" x="964" y="-7.5" font-family="Helvetica,sans-Serif" font-size="10.00">BaseIndex::ChainStateFlushed</text>
</a>
</g>
</g>
<!-- Node20&#45;&gt;Node26 -->
<g id="edge34" class="edge"><title>Node20&#45;&gt;Node26</title>
<path fill="none" stroke="midnightblue" d="M839.422,-21.6525C853.7,-20.3062 868.624,-18.899 882.963,-17.5469"/>
<polygon fill="midnightblue" stroke="midnightblue" points="838.784,-18.197 829.157,-22.6204 839.442,-25.1661 838.784,-18.197"/>
</g>
<!-- Node22 -->
<g id="node22" class="node"><title>Node22</title>
<g id="a_node22"><a xlink:href="class_base_index.html#a2babb71bb9b93aadba06dae6e62d721b" target="_top" xlink:title="Start initializes the sync state and registers the instance as a ValidationInterface so that it stays...">
<polygon fill="white" stroke="black" points="1081,-177.5 1081,-196.5 1177,-196.5 1177,-177.5 1081,-177.5"/>
<text text-anchor="middle" x="1129" y="-184.5" font-family="Helvetica,sans-Serif" font-size="10.00">BaseIndex::Start</text>
</a>
</g>
</g>
<!-- Node21&#45;&gt;Node22 -->
<g id="edge29" class="edge"><title>Node21&#45;&gt;Node22</title>
<path fill="none" stroke="midnightblue" d="M1016.03,-160.896C1038.94,-166.237 1065.6,-172.454 1087.16,-177.48"/>
<polygon fill="midnightblue" stroke="midnightblue" points="1016.67,-157.451 1006.13,-158.589 1015.08,-164.268 1016.67,-157.451"/>
</g>
<!-- Node23 -->
<g id="node23" class="node"><title>Node23</title>
<g id="a_node23"><a xlink:href="class_base_index.html#a8960ca12b00a8a6c38428a07849ef88a" target="_top" xlink:title="Write update index entries for a newly connected block. ">
<polygon fill="white" stroke="black" points="1213,-158.5 1213,-177.5 1334,-177.5 1334,-158.5 1213,-158.5"/>
<text text-anchor="middle" x="1273.5" y="-165.5" font-family="Helvetica,sans-Serif" font-size="10.00">BaseIndex::WriteBlock</text>
</a>
</g>
</g>
<!-- Node22&#45;&gt;Node23 -->
<g id="edge30" class="edge"><title>Node22&#45;&gt;Node23</title>
<path fill="none" stroke="midnightblue" d="M1187.17,-179.377C1195.6,-178.253 1204.31,-177.092 1212.79,-175.961"/>
<polygon fill="midnightblue" stroke="midnightblue" points="1186.5,-175.935 1177.05,-180.726 1187.43,-182.874 1186.5,-175.935"/>
</g>
<!-- Node23&#45;&gt;Node21 -->
<g id="edge31" class="edge"><title>Node23&#45;&gt;Node21</title>
<path fill="none" stroke="midnightblue" d="M1202.68,-163.686C1150.27,-160.448 1079.11,-156.051 1028.34,-152.914"/>
<polygon fill="midnightblue" stroke="midnightblue" points="1202.7,-167.194 1212.89,-164.317 1203.13,-160.207 1202.7,-167.194"/>
</g>
<!-- Node24 -->
<g id="node24" class="node"><title>Node24</title>
<g id="a_node24"><a xlink:href="class_base_index.html#ab3f7a06bc635950918ee072262887223" target="_top" xlink:title="Notifies listeners of a block being connected. ">
<polygon fill="white" stroke="black" points="1370,-158.5 1370,-177.5 1519,-177.5 1519,-158.5 1370,-158.5"/>
<text text-anchor="middle" x="1444.5" y="-165.5" font-family="Helvetica,sans-Serif" font-size="10.00">BaseIndex::BlockConnected</text>
</a>
</g>
</g>
<!-- Node23&#45;&gt;Node24 -->
<g id="edge32" class="edge"><title>Node23&#45;&gt;Node24</title>
<path fill="none" stroke="midnightblue" d="M1344.29,-168C1352.75,-168 1361.42,-168 1369.94,-168"/>
<polygon fill="midnightblue" stroke="midnightblue" points="1344.08,-164.5 1334.08,-168 1344.08,-171.5 1344.08,-164.5"/>
</g>
<!-- Node29&#45;&gt;Node27 -->
<g id="edge38" class="edge"><title>Node29&#45;&gt;Node27</title>
<path fill="none" stroke="midnightblue" d="M834.446,-124.009C838.801,-125.76 843.023,-127.746 847,-130 867.241,-141.47 862.843,-156.384 883,-168 889.679,-171.849 897.1,-174.92 904.652,-177.369"/>
<polygon fill="midnightblue" stroke="midnightblue" points="835.339,-120.612 824.745,-120.54 832.983,-127.203 835.339,-120.612"/>
</g>
<!-- Node35&#45;&gt;Node19 -->
<g id="edge46" class="edge"><title>Node35&#45;&gt;Node19</title>
<path fill="none" stroke="midnightblue" d="M566.815,-358.704C585.043,-329.569 624.762,-272.974 674,-244 680.553,-240.144 687.807,-237.07 695.24,-234.619"/>
<polygon fill="midnightblue" stroke="midnightblue" points="563.697,-357.093 561.474,-367.452 569.672,-360.74 563.697,-357.093"/>
</g>
<!-- Node35&#45;&gt;Node27 -->
<g id="edge52" class="edge"><title>Node35&#45;&gt;Node27</title>
<path fill="none" stroke="midnightblue" d="M581.589,-362.473C605.003,-349.711 640.931,-331.442 674,-320 748.395,-294.259 776.157,-316.327 847,-282 892.914,-259.752 936.519,-215.884 954.437,-196.543"/>
<polygon fill="midnightblue" stroke="midnightblue" points="579.726,-359.503 572.664,-367.402 583.11,-365.631 579.726,-359.503"/>
</g>
<!-- Node36 -->
<g id="node36" class="node"><title>Node36</title>
<g id="a_node36"><a xlink:href="class_base_index_1_1_d_b.html#ad7a39256bcec05d4af7a1255fb898cfd" target="_top" xlink:title="Read block locator of the chain that the txindex is in sync with. ">
<polygon fill="white" stroke="black" points="679,-443.5 679,-462.5 842,-462.5 842,-443.5 679,-443.5"/>
<text text-anchor="middle" x="760.5" y="-450.5" font-family="Helvetica,sans-Serif" font-size="10.00">BaseIndex::DB::ReadBestBlock</text>
</a>
</g>
</g>
<!-- Node35&#45;&gt;Node36 -->
<g id="edge47" class="edge"><title>Node35&#45;&gt;Node36</title>
<path fill="none" stroke="midnightblue" d="M617.735,-387.127C624.807,-389.491 631.723,-392.405 638,-396 658.189,-407.561 653.759,-422.53 674,-434 680.879,-437.898 688.492,-440.997 696.255,-443.46"/>
<polygon fill="midnightblue" stroke="midnightblue" points="618.622,-383.739 608.039,-384.234 616.621,-390.447 618.622,-383.739"/>
</g>
<!-- Node39 -->
<g id="node39" class="node"><title>Node39</title>
<g id="a_node39"><a xlink:href="class_tx_index_1_1_d_b.html#ad3761b9c1360128982614719acc5def4" target="_top" xlink:title="Read the disk location of the transaction data with the given hash. ">
<polygon fill="white" stroke="black" points="695.5,-329.5 695.5,-348.5 825.5,-348.5 825.5,-329.5 695.5,-329.5"/>
<text text-anchor="middle" x="760.5" y="-336.5" font-family="Helvetica,sans-Serif" font-size="10.00">TxIndex::DB::ReadTxPos</text>
</a>
</g>
</g>
<!-- Node35&#45;&gt;Node39 -->
<g id="edge51" class="edge"><title>Node35&#45;&gt;Node39</title>
<path fill="none" stroke="midnightblue" d="M617.147,-365.582C646.264,-360.145 680.688,-353.717 708.39,-348.544"/>
<polygon fill="midnightblue" stroke="midnightblue" points="616.277,-362.184 607.089,-367.46 617.562,-369.065 616.277,-362.184"/>
</g>
<!-- Node40 -->
<g id="node40" class="node"><title>Node40</title>
<g id="a_node40"><a xlink:href="class_c_coins_view_d_b.html#a2a018edc94bdca2b96a126688f22770d" target="_top" xlink:title="Retrieve the Coin (unspent transaction output) for a given outpoint. ">
<polygon fill="white" stroke="black" points="695.5,-557.5 695.5,-576.5 825.5,-576.5 825.5,-557.5 695.5,-557.5"/>
<text text-anchor="middle" x="760.5" y="-564.5" font-family="Helvetica,sans-Serif" font-size="10.00">CCoinsViewDB::GetCoin</text>
</a>
</g>
</g>
<!-- Node35&#45;&gt;Node40 -->
<g id="edge53" class="edge"><title>Node35&#45;&gt;Node40</title>
<path fill="none" stroke="midnightblue" d="M617.8,-383.286C625.309,-386.244 632.319,-390.347 638,-396 687.21,-444.971 624.57,-499.252 674,-548 679.955,-553.872 687.297,-558.099 695.156,-561.115"/>
<polygon fill="midnightblue" stroke="midnightblue" points="618.676,-379.891 608.083,-380.122 616.508,-386.546 618.676,-379.891"/>
</g>
<!-- Node41 -->
<g id="node41" class="node"><title>Node41</title>
<g id="a_node41"><a xlink:href="class_c_coins_view_d_b.html#aac696880a5bb854dcdcb20d8a035be9b" target="_top" xlink:title="Retrieve the block hash whose state this CCoinsView currently represents. ">
<polygon fill="white" stroke="black" points="682.5,-519.5 682.5,-538.5 838.5,-538.5 838.5,-519.5 682.5,-519.5"/>
<text text-anchor="middle" x="760.5" y="-526.5" font-family="Helvetica,sans-Serif" font-size="10.00">CCoinsViewDB::GetBestBlock</text>
</a>
</g>
</g>
<!-- Node35&#45;&gt;Node41 -->
<g id="edge54" class="edge"><title>Node35&#45;&gt;Node41</title>
<path fill="none" stroke="midnightblue" d="M617.714,-383.791C625.172,-386.679 632.191,-390.629 638,-396 677.01,-432.074 634.827,-474.103 674,-510 678.148,-513.801 682.883,-516.9 687.949,-519.421"/>
<polygon fill="midnightblue" stroke="midnightblue" points="618.682,-380.425 608.09,-380.672 616.524,-387.085 618.682,-380.425"/>
</g>
<!-- Node42 -->
<g id="node42" class="node"><title>Node42</title>
<g id="a_node42"><a xlink:href="class_c_coins_view_d_b.html#aec0d3d60ab629a23873894e44b6bc266" target="_top" xlink:title="Retrieve the range of blocks that may have been only partially written. ">
<polygon fill="white" stroke="black" points="678,-481.5 678,-500.5 843,-500.5 843,-481.5 678,-481.5"/>
<text text-anchor="middle" x="760.5" y="-488.5" font-family="Helvetica,sans-Serif" font-size="10.00">CCoinsViewDB::GetHeadBlocks</text>
</a>
</g>
</g>
<!-- Node35&#45;&gt;Node42 -->
<g id="edge56" class="edge"><title>Node35&#45;&gt;Node42</title>
<path fill="none" stroke="midnightblue" d="M618.133,-384.955C625.301,-387.68 632.132,-391.273 638,-396 667.108,-419.445 644.787,-448.687 674,-472 678.754,-475.794 684.11,-478.866 689.763,-481.349"/>
<polygon fill="midnightblue" stroke="midnightblue" points="618.801,-381.493 608.209,-381.753 616.651,-388.155 618.801,-381.493"/>
</g>
<!-- Node43 -->
<g id="node43" class="node"><title>Node43</title>
<g id="a_node43"><a xlink:href="class_c_block_tree_d_b.html#a3f597e6bab0a7003cbf7ea86cb434e85" target="_top" xlink:title="CBlockTreeDB::ReadBlockFileInfo">
<polygon fill="white" stroke="black" points="675.5,-405.5 675.5,-424.5 845.5,-424.5 845.5,-405.5 675.5,-405.5"/>
<text text-anchor="middle" x="760.5" y="-412.5" font-family="Helvetica,sans-Serif" font-size="10.00">CBlockTreeDB::ReadBlockFileInfo</text>
</a>
</g>
</g>
<!-- Node35&#45;&gt;Node43 -->
<g id="edge58" class="edge"><title>Node35&#45;&gt;Node43</title>
<path fill="none" stroke="midnightblue" d="M617.147,-388.418C646.264,-393.855 680.688,-400.283 708.39,-405.456"/>
<polygon fill="midnightblue" stroke="midnightblue" points="617.562,-384.935 607.089,-386.54 616.277,-391.816 617.562,-384.935"/>
</g>
<!-- Node44 -->
<g id="node44" class="node"><title>Node44</title>
<g id="a_node44"><a xlink:href="class_c_block_tree_d_b.html#adb1276fe2f0e0c4c106660948c581711" target="_top" xlink:title="CBlockTreeDB::ReadLastBlockFile">
<polygon fill="white" stroke="black" points="674,-367.5 674,-386.5 847,-386.5 847,-367.5 674,-367.5"/>
<text text-anchor="middle" x="760.5" y="-374.5" font-family="Helvetica,sans-Serif" font-size="10.00">CBlockTreeDB::ReadLastBlockFile</text>
</a>
</g>
</g>
<!-- Node35&#45;&gt;Node44 -->
<g id="edge59" class="edge"><title>Node35&#45;&gt;Node44</title>
<path fill="none" stroke="midnightblue" d="M618.25,-377C635.815,-377 655.239,-377 673.918,-377"/>
<polygon fill="midnightblue" stroke="midnightblue" points="618.142,-373.5 608.142,-377 618.142,-380.5 618.142,-373.5"/>
</g>
<!-- Node45 -->
<g id="node45" class="node"><title>Node45</title>
<g id="a_node45"><a xlink:href="class_c_block_tree_d_b.html#acd779c4653fd9a87fffe95d53ce7c6d3" target="_top" xlink:title="CBlockTreeDB::ReadFlag">
<polygon fill="white" stroke="black" points="695,-253.5 695,-272.5 826,-272.5 826,-253.5 695,-253.5"/>
<text text-anchor="middle" x="760.5" y="-260.5" font-family="Helvetica,sans-Serif" font-size="10.00">CBlockTreeDB::ReadFlag</text>
</a>
</g>
</g>
<!-- Node35&#45;&gt;Node45 -->
<g id="edge60" class="edge"><title>Node35&#45;&gt;Node45</title>
<path fill="none" stroke="midnightblue" d="M573.296,-360.374C595.106,-340.267 634.542,-306.679 674,-287 686.141,-280.945 700.038,-276.217 713.05,-272.619"/>
<polygon fill="midnightblue" stroke="midnightblue" points="570.741,-357.972 565.837,-367.363 575.527,-363.08 570.741,-357.972"/>
</g>
<!-- Node37 -->
<g id="node37" class="node"><title>Node37</title>
<g id="a_node37"><a xlink:href="class_base_index.html#a10dbed01cf8ad8126b6195844a62d281" target="_top" xlink:title="Initialize internal state from the database and block index. ">
<polygon fill="white" stroke="black" points="921,-329.5 921,-348.5 1007,-348.5 1007,-329.5 921,-329.5"/>
<text text-anchor="middle" x="964" y="-336.5" font-family="Helvetica,sans-Serif" font-size="10.00">BaseIndex::Init</text>
</a>
</g>
</g>
<!-- Node36&#45;&gt;Node37 -->
<g id="edge48" class="edge"><title>Node36&#45;&gt;Node37</title>
<path fill="none" stroke="midnightblue" d="M831.384,-440.362C836.775,-438.518 842.042,-436.41 847,-434 892.887,-411.696 936.506,-367.858 954.433,-348.534"/>
<polygon fill="midnightblue" stroke="midnightblue" points="830.1,-437.095 821.587,-443.403 832.176,-443.781 830.1,-437.095"/>
</g>
<!-- Node37&#45;&gt;Node22 -->
<g id="edge49" class="edge"><title>Node37&#45;&gt;Node22</title>
<path fill="none" stroke="midnightblue" d="M982.575,-322.611C1016.65,-290.839 1090.71,-221.772 1117.81,-196.505"/>
<polygon fill="midnightblue" stroke="midnightblue" points="980.123,-320.112 975.196,-329.492 984.897,-325.231 980.123,-320.112"/>
</g>
<!-- Node38 -->
<g id="node38" class="node"><title>Node38</title>
<g id="a_node38"><a xlink:href="class_tx_index.html#a2ebe57b9a6d64ab90a9c6f8390649b48" target="_top" xlink:title="Override base class init to migrate from old database. ">
<polygon fill="white" stroke="black" points="1092.5,-329.5 1092.5,-348.5 1165.5,-348.5 1165.5,-329.5 1092.5,-329.5"/>
<text text-anchor="middle" x="1129" y="-336.5" font-family="Helvetica,sans-Serif" font-size="10.00">TxIndex::Init</text>
</a>
</g>
</g>
<!-- Node37&#45;&gt;Node38 -->
<g id="edge50" class="edge"><title>Node37&#45;&gt;Node38</title>
<path fill="none" stroke="midnightblue" d="M1017.61,-339C1042.08,-339 1070.53,-339 1092.42,-339"/>
<polygon fill="midnightblue" stroke="midnightblue" points="1017.4,-335.5 1007.4,-339 1017.4,-342.5 1017.4,-335.5"/>
</g>
<!-- Node41&#45;&gt;Node31 -->
<g id="edge55" class="edge"><title>Node41&#45;&gt;Node31</title>
<path fill="none" stroke="midnightblue" d="M848.571,-529C863.171,-529 878.162,-529 892.286,-529"/>
<polygon fill="midnightblue" stroke="midnightblue" points="848.541,-525.5 838.541,-529 848.541,-532.5 848.541,-525.5"/>
</g>
<!-- Node42&#45;&gt;Node31 -->
<g id="edge57" class="edge"><title>Node42&#45;&gt;Node31</title>
<path fill="none" stroke="midnightblue" d="M822.046,-502.418C850.877,-507.855 884.962,-514.283 912.392,-519.456"/>
<polygon fill="midnightblue" stroke="midnightblue" points="822.562,-498.954 812.087,-500.54 821.265,-505.833 822.562,-498.954"/>
</g>
<!-- Node45&#45;&gt;Node27 -->
<g id="edge61" class="edge"><title>Node45&#45;&gt;Node27</title>
<path fill="none" stroke="midnightblue" d="M823.358,-251.096C831.396,-249.014 839.452,-246.65 847,-244 884.05,-230.99 924.653,-209.131 946.637,-196.601"/>
<polygon fill="midnightblue" stroke="midnightblue" points="822.474,-247.71 813.6,-253.498 824.146,-254.507 822.474,-247.71"/>
</g>
</g>
</svg>
