<?xml version="1.0" encoding="UTF-8" standalone="no"?>
<!DOCTYPE svg PUBLIC "-//W3C//DTD SVG 1.1//EN"
 "http://www.w3.org/Graphics/SVG/1.1/DTD/svg11.dtd">
<!-- Generated by graphviz version 2.49.3 (0)
 -->
<!-- Title: WalletView::message Pages: 1 -->
<svg width="831pt" height="66pt"
 viewBox="0.00 0.00 831.00 66.00" xmlns="http://www.w3.org/2000/svg" xmlns:xlink="http://www.w3.org/1999/xlink">
<g id="graph0" class="graph" transform="scale(1 1) rotate(0) translate(4 62)">
<title>WalletView::message</title>
<polygon fill="white" stroke="transparent" points="-4,4 -4,-62 827,-62 827,4 -4,4"/>
<!-- Node1 -->
<g id="node1" class="node">
<title>Node1</title>
<g id="a_node1"><a xlink:title="Fired when a message should be reported to the user.">
<polygon fill="#bfbfbf" stroke="black" points="702,-19.5 702,-38.5 823,-38.5 823,-19.5 702,-19.5"/>
<text text-anchor="middle" x="762.5" y="-26.5" font-family="Helvetica,sans-Serif" font-size="10.00">WalletView::message</text>
</a>
</g>
</g>
<!-- Node2 -->
<g id="node2" class="node">
<title>Node2</title>
<g id="a_node2"><a xlink:href="class_wallet_view.html#a9800d793b552076b4207276d9e08c8b6" target="_top" xlink:title="Backup the wallet.">
<polygon fill="white" stroke="black" points="524,-38.5 524,-57.5 666,-57.5 666,-38.5 524,-38.5"/>
<text text-anchor="middle" x="595" y="-45.5" font-family="Helvetica,sans-Serif" font-size="10.00">WalletView::backupWallet</text>
</a>
</g>
</g>
<!-- Node1&#45;&gt;Node2 -->
<g id="edge1" class="edge">
<title>Node1&#45;&gt;Node2</title>
<path fill="none" stroke="midnightblue" d="M691.58,-37.03C683.14,-38 674.52,-38.99 666.08,-39.95"/>
<polygon fill="midnightblue" stroke="midnightblue" points="692.22,-40.48 701.75,-35.86 691.42,-33.52 692.22,-40.48"/>
</g>
<!-- Node6 -->
<g id="node6" class="node">
<title>Node6</title>
<g id="a_node6"><a xlink:href="class_wallet_view.html#a79d29a17c35d1abb09c5898d2d4f2220" target="_top" xlink:title=" ">
<polygon fill="white" stroke="black" points="529.5,-0.5 529.5,-19.5 660.5,-19.5 660.5,-0.5 529.5,-0.5"/>
<text text-anchor="middle" x="595" y="-7.5" font-family="Helvetica,sans-Serif" font-size="10.00">WalletView::WalletView</text>
</a>
</g>
</g>
<!-- Node1&#45;&gt;Node6 -->
<g id="edge5" class="edge">
<title>Node1&#45;&gt;Node6</title>
<path fill="none" stroke="midnightblue" d="M691.61,-20.98C681.36,-19.8 670.84,-18.59 660.7,-17.43"/>
<polygon fill="midnightblue" stroke="midnightblue" points="691.42,-24.48 701.75,-22.14 692.22,-17.52 691.42,-24.48"/>
</g>
<!-- Node3 -->
<g id="node3" class="node">
<title>Node3</title>
<g id="a_node3"><a xlink:href="class_wallet_frame.html#a76aa3543635fedea052661a4cd44b81d" target="_top" xlink:title="Backup the wallet.">
<polygon fill="white" stroke="black" points="339,-38.5 339,-57.5 488,-57.5 488,-38.5 339,-38.5"/>
<text text-anchor="middle" x="413.5" y="-45.5" font-family="Helvetica,sans-Serif" font-size="10.00">WalletFrame::backupWallet</text>
</a>
</g>
</g>
<!-- Node2&#45;&gt;Node3 -->
<g id="edge2" class="edge">
<title>Node2&#45;&gt;Node3</title>
<path fill="none" stroke="midnightblue" d="M513.59,-48C505.13,-48 496.55,-48 488.17,-48"/>
<polygon fill="midnightblue" stroke="midnightblue" points="513.83,-51.5 523.83,-48 513.83,-44.5 513.83,-51.5"/>
</g>
<!-- Node4 -->
<g id="node4" class="node">
<title>Node4</title>
<g id="a_node4"><a xlink:href="class_bitcoin_g_u_i.html#a7340679e1356b1bb3cfaeb64a3e93218" target="_top" xlink:title="Create the main UI actions.">
<polygon fill="white" stroke="black" points="162,-38.5 162,-57.5 303,-57.5 303,-38.5 162,-38.5"/>
<text text-anchor="middle" x="232.5" y="-45.5" font-family="Helvetica,sans-Serif" font-size="10.00">BitcoinGUI::createActions</text>
</a>
</g>
</g>
<!-- Node3&#45;&gt;Node4 -->
<g id="edge3" class="edge">
<title>Node3&#45;&gt;Node4</title>
<path fill="none" stroke="midnightblue" d="M328.84,-48C320.21,-48 311.5,-48 303.05,-48"/>
<polygon fill="midnightblue" stroke="midnightblue" points="328.92,-51.5 338.92,-48 328.92,-44.5 328.92,-51.5"/>
</g>
<!-- Node5 -->
<g id="node5" class="node">
<title>Node5</title>
<g id="a_node5"><a xlink:href="class_bitcoin_g_u_i.html#a404685aca2cd82b3a453b69f035569dc" target="_top" xlink:title=" ">
<polygon fill="white" stroke="black" points="0,-38.5 0,-57.5 126,-57.5 126,-38.5 0,-38.5"/>
<text text-anchor="middle" x="63" y="-45.5" font-family="Helvetica,sans-Serif" font-size="10.00">BitcoinGUI::BitcoinGUI</text>
</a>
</g>
</g>
<!-- Node4&#45;&gt;Node5 -->
<g id="edge4" class="edge">
<title>Node4&#45;&gt;Node5</title>
<path fill="none" stroke="midnightblue" d="M151.84,-48C143.21,-48 134.52,-48 126.14,-48"/>
<polygon fill="midnightblue" stroke="midnightblue" points="151.92,-51.5 161.92,-48 151.92,-44.5 151.92,-51.5"/>
</g>
</g>
</svg>
