<?xml version="1.0" encoding="UTF-8" standalone="no"?>
<!DOCTYPE svg PUBLIC "-//W3C//DTD SVG 1.1//EN"
 "http://www.w3.org/Graphics/SVG/1.1/DTD/svg11.dtd">
<!-- Generated by graphviz version 2.38.0 (20140413.2041)
 -->
<!-- Title: prevector::begin Pages: 1 -->
<svg width="406pt" height="104pt"
 viewBox="0.00 0.00 406.00 104.00" xmlns="http://www.w3.org/2000/svg" xmlns:xlink="http://www.w3.org/1999/xlink">
<g id="graph0" class="graph" transform="scale(1 1) rotate(0) translate(4 100)">
<title>prevector::begin</title>
<polygon fill="white" stroke="none" points="-4,4 -4,-100 402,-100 402,4 -4,4"/>
<!-- Node1 -->
<g id="node1" class="node"><title>Node1</title>
<polygon fill="#bfbfbf" stroke="black" points="0,-38.5 0,-57.5 95,-57.5 95,-38.5 0,-38.5"/>
<text text-anchor="middle" x="47.5" y="-45.5" font-family="Helvetica,sans-Serif" font-size="10.00">prevector::begin</text>
</g>
<!-- Node2 -->
<g id="node2" class="node"><title>Node2</title>
<g id="a_node2"><a xlink:href="classprevector.html#a59f1d7bcbc751cfa0faddd7ffa184846" target="_top" xlink:title="prevector::item_ptr">
<polygon fill="white" stroke="black" points="131,-38.5 131,-57.5 240,-57.5 240,-38.5 131,-38.5"/>
<text text-anchor="middle" x="185.5" y="-45.5" font-family="Helvetica,sans-Serif" font-size="10.00">prevector::item_ptr</text>
</a>
</g>
</g>
<!-- Node1&#45;&gt;Node2 -->
<g id="edge1" class="edge"><title>Node1&#45;&gt;Node2</title>
<path fill="none" stroke="midnightblue" d="M95.3035,-48C103.388,-48 111.917,-48 120.366,-48"/>
<polygon fill="midnightblue" stroke="midnightblue" points="120.597,-51.5001 130.597,-48 120.597,-44.5001 120.597,-51.5001"/>
</g>
<!-- Node3 -->
<g id="node3" class="node"><title>Node3</title>
<g id="a_node3"><a xlink:href="classprevector.html#a27fda335354582aa9452867c4b610dab" target="_top" xlink:title="prevector::is_direct">
<polygon fill="white" stroke="black" points="283,-76.5 283,-95.5 391,-95.5 391,-76.5 283,-76.5"/>
<text text-anchor="middle" x="337" y="-83.5" font-family="Helvetica,sans-Serif" font-size="10.00">prevector::is_direct</text>
</a>
</g>
</g>
<!-- Node2&#45;&gt;Node3 -->
<g id="edge2" class="edge"><title>Node2&#45;&gt;Node3</title>
<path fill="none" stroke="midnightblue" d="M224.225,-57.589C243.776,-62.5583 267.847,-68.6767 288.637,-73.9613"/>
<polygon fill="midnightblue" stroke="midnightblue" points="287.992,-77.4085 298.546,-76.4799 289.717,-70.6243 287.992,-77.4085"/>
</g>
<!-- Node4 -->
<g id="node4" class="node"><title>Node4</title>
<g id="a_node4"><a xlink:href="classprevector.html#a20150a43dd87c33f0e855a55bd3418e8" target="_top" xlink:title="prevector::direct_ptr">
<polygon fill="white" stroke="black" points="280,-38.5 280,-57.5 394,-57.5 394,-38.5 280,-38.5"/>
<text text-anchor="middle" x="337" y="-45.5" font-family="Helvetica,sans-Serif" font-size="10.00">prevector::direct_ptr</text>
</a>
</g>
</g>
<!-- Node2&#45;&gt;Node4 -->
<g id="edge3" class="edge"><title>Node2&#45;&gt;Node4</title>
<path fill="none" stroke="midnightblue" d="M240.051,-48C249.627,-48 259.709,-48 269.594,-48"/>
<polygon fill="midnightblue" stroke="midnightblue" points="269.795,-51.5001 279.795,-48 269.795,-44.5001 269.795,-51.5001"/>
</g>
<!-- Node5 -->
<g id="node5" class="node"><title>Node5</title>
<g id="a_node5"><a xlink:href="classprevector.html#ae3343cc65be9fd678b4a6f8305624de6" target="_top" xlink:title="prevector::indirect_ptr">
<polygon fill="white" stroke="black" points="276,-0.5 276,-19.5 398,-19.5 398,-0.5 276,-0.5"/>
<text text-anchor="middle" x="337" y="-7.5" font-family="Helvetica,sans-Serif" font-size="10.00">prevector::indirect_ptr</text>
</a>
</g>
</g>
<!-- Node2&#45;&gt;Node5 -->
<g id="edge4" class="edge"><title>Node2&#45;&gt;Node5</title>
<path fill="none" stroke="midnightblue" d="M224.225,-38.411C243.776,-33.4417 267.847,-27.3233 288.637,-22.0387"/>
<polygon fill="midnightblue" stroke="midnightblue" points="289.717,-25.3757 298.546,-19.5201 287.992,-18.5915 289.717,-25.3757"/>
</g>
</g>
</svg>
