<?xml version="1.0" encoding="UTF-8" standalone="no"?>
<!DOCTYPE svg PUBLIC "-//W3C//DTD SVG 1.1//EN"
 "http://www.w3.org/Graphics/SVG/1.1/DTD/svg11.dtd">
<!-- Generated by graphviz version 2.49.3 (0)
 -->
<!-- Title: CuckooCache::cache::setup_bytes Pages: 1 -->
<svg width="452pt" height="39pt"
 viewBox="0.00 0.00 452.00 39.00" xmlns="http://www.w3.org/2000/svg" xmlns:xlink="http://www.w3.org/1999/xlink">
<g id="graph0" class="graph" transform="scale(1 1) rotate(0) translate(4 35)">
<title>CuckooCache::cache::setup_bytes</title>
<polygon fill="white" stroke="transparent" points="-4,4 -4,-35 448,-35 448,4 -4,4"/>
<!-- Node1 -->
<g id="node1" class="node">
<title>Node1</title>
<g id="a_node1"><a xlink:title="setup_bytes is a convenience function which accounts for internal memory usage when deciding how many...">
<polygon fill="#bfbfbf" stroke="black" points="0,-0.5 0,-30.5 116,-30.5 116,-0.5 0,-0.5"/>
<text text-anchor="start" x="8" y="-18.5" font-family="Helvetica,sans-Serif" font-size="10.00">CuckooCache::cache</text>
<text text-anchor="middle" x="58" y="-7.5" font-family="Helvetica,sans-Serif" font-size="10.00">::setup_bytes</text>
</a>
</g>
</g>
<!-- Node2 -->
<g id="node2" class="node">
<title>Node2</title>
<g id="a_node2"><a xlink:href="class_cuckoo_cache_1_1cache.html#a49c60604e9dc27cbede5e54d56761778" target="_top" xlink:title="setup initializes the container to store no more than new_size elements.">
<polygon fill="white" stroke="black" points="152,-0.5 152,-30.5 268,-30.5 268,-0.5 152,-0.5"/>
<text text-anchor="start" x="160" y="-18.5" font-family="Helvetica,sans-Serif" font-size="10.00">CuckooCache::cache</text>
<text text-anchor="middle" x="210" y="-7.5" font-family="Helvetica,sans-Serif" font-size="10.00">::setup</text>
</a>
</g>
</g>
<!-- Node1&#45;&gt;Node2 -->
<g id="edge1" class="edge">
<title>Node1&#45;&gt;Node2</title>
<path fill="none" stroke="midnightblue" d="M116.14,-15.5C124.38,-15.5 132.92,-15.5 141.34,-15.5"/>
<polygon fill="midnightblue" stroke="midnightblue" points="141.53,-19 151.53,-15.5 141.53,-12 141.53,-19"/>
</g>
<!-- Node3 -->
<g id="node3" class="node">
<title>Node3</title>
<g id="a_node3"><a xlink:href="class_cuckoo_cache_1_1bit__packed__atomic__flags.html#a43271fa91fc8fd480fbfe2a4a212db29" target="_top" xlink:title="setup marks all entries and ensures that bit_packed_atomic_flags can store at least b entries.">
<polygon fill="white" stroke="black" points="304,-0.5 304,-30.5 444,-30.5 444,-0.5 304,-0.5"/>
<text text-anchor="start" x="312" y="-18.5" font-family="Helvetica,sans-Serif" font-size="10.00">CuckooCache::bit_packed</text>
<text text-anchor="middle" x="374" y="-7.5" font-family="Helvetica,sans-Serif" font-size="10.00">_atomic_flags::setup</text>
</a>
</g>
</g>
<!-- Node2&#45;&gt;Node3 -->
<g id="edge2" class="edge">
<title>Node2&#45;&gt;Node3</title>
<path fill="none" stroke="midnightblue" d="M268.12,-15.5C276.43,-15.5 285.11,-15.5 293.77,-15.5"/>
<polygon fill="midnightblue" stroke="midnightblue" points="293.9,-19 303.9,-15.5 293.9,-12 293.9,-19"/>
</g>
</g>
</svg>
