<?xml version="1.0" encoding="UTF-8" standalone="no"?>
<!DOCTYPE svg PUBLIC "-//W3C//DTD SVG 1.1//EN"
 "http://www.w3.org/Graphics/SVG/1.1/DTD/svg11.dtd">
<!-- Generated by graphviz version 2.49.3 (0)
 -->
<!-- Title: CChainState::LoadMempool Pages: 1 -->
<svg width="1166pt" height="273pt"
 viewBox="0.00 0.00 1166.00 273.00" xmlns="http://www.w3.org/2000/svg" xmlns:xlink="http://www.w3.org/1999/xlink">
<g id="graph0" class="graph" transform="scale(1 1) rotate(0) translate(4 269)">
<title>CChainState::LoadMempool</title>
<polygon fill="white" stroke="transparent" points="-4,4 -4,-269 1162,-269 1162,4 -4,4"/>
<!-- Node1 -->
<g id="node1" class="node">
<title>Node1</title>
<g id="a_node1"><a xlink:title="Load the persisted mempool from disk.">
<polygon fill="#bfbfbf" stroke="black" points="0,-67.5 0,-86.5 152,-86.5 152,-67.5 0,-67.5"/>
<text text-anchor="middle" x="76" y="-74.5" font-family="Helvetica,sans-Serif" font-size="10.00">CChainState::LoadMempool</text>
</a>
</g>
</g>
<!-- Node1&#45;&gt;Node1 -->
<g id="edge21" class="edge">
<title>Node1&#45;&gt;Node1</title>
<path fill="none" stroke="midnightblue" d="M47.64,-86.76C33.84,-95.57 43.3,-105 76,-105 98.48,-105 109.98,-100.54 110.48,-94.89"/>
<polygon fill="midnightblue" stroke="midnightblue" points="113.17,-92.64 104.36,-86.76 107.58,-96.85 113.17,-92.64"/>
</g>
<!-- Node2 -->
<g id="node2" class="node">
<title>Node2</title>
<g id="a_node2"><a xlink:href="class_args_manager.html#af81c6e2a9dcd6b12557a2387fd67b2a6" target="_top" xlink:title="Return boolean argument or default value.">
<polygon fill="white" stroke="black" points="189.5,-114.5 189.5,-133.5 332.5,-133.5 332.5,-114.5 189.5,-114.5"/>
<text text-anchor="middle" x="261" y="-121.5" font-family="Helvetica,sans-Serif" font-size="10.00">ArgsManager::GetBoolArg</text>
</a>
</g>
</g>
<!-- Node1&#45;&gt;Node2 -->
<g id="edge1" class="edge">
<title>Node1&#45;&gt;Node2</title>
<path fill="none" stroke="midnightblue" d="M114.03,-86.51C142.46,-93.81 181.93,-103.95 212.65,-111.84"/>
<polygon fill="midnightblue" stroke="midnightblue" points="212.15,-115.32 222.71,-114.42 213.89,-108.54 212.15,-115.32"/>
</g>
<!-- Node21 -->
<g id="node21" class="node">
<title>Node21</title>
<g id="a_node21"><a xlink:href="class_c_tx_mem_pool.html#a586ab375753065a1b29789d4b5584840" target="_top" xlink:title="Sets the current loaded state.">
<polygon fill="white" stroke="black" points="188,-67.5 188,-86.5 334,-86.5 334,-67.5 188,-67.5"/>
<text text-anchor="middle" x="261" y="-74.5" font-family="Helvetica,sans-Serif" font-size="10.00">CTxMemPool::SetIsLoaded</text>
</a>
</g>
</g>
<!-- Node1&#45;&gt;Node21 -->
<g id="edge22" class="edge">
<title>Node1&#45;&gt;Node21</title>
<path fill="none" stroke="midnightblue" d="M152.23,-77C160.57,-77 169.09,-77 177.52,-77"/>
<polygon fill="midnightblue" stroke="midnightblue" points="177.72,-80.5 187.72,-77 177.72,-73.5 177.72,-80.5"/>
</g>
<!-- Node22 -->
<g id="node22" class="node">
<title>Node22</title>
<g id="a_node22"><a xlink:href="shutdown_8cpp.html#a6f201ca9fe6b594f1985c12b4482ea5a" target="_top" xlink:title="Returns true if a shutdown is requested, false otherwise.">
<polygon fill="white" stroke="black" points="203,-10.5 203,-29.5 319,-29.5 319,-10.5 203,-10.5"/>
<text text-anchor="middle" x="261" y="-17.5" font-family="Helvetica,sans-Serif" font-size="10.00">ShutdownRequested</text>
</a>
</g>
</g>
<!-- Node1&#45;&gt;Node22 -->
<g id="edge23" class="edge">
<title>Node1&#45;&gt;Node22</title>
<path fill="none" stroke="midnightblue" d="M107.63,-67.46C138.38,-57.88 185.9,-43.08 219.69,-32.55"/>
<polygon fill="midnightblue" stroke="midnightblue" points="220.76,-35.89 229.27,-29.57 218.68,-29.2 220.76,-35.89"/>
</g>
<!-- Node3 -->
<g id="node3" class="node">
<title>Node3</title>
<g id="a_node3"><a xlink:href="class_uni_value.html#ae8a27d40aa1b1322ea95ff4fb2dec2b1" target="_top" xlink:title=" ">
<polygon fill="white" stroke="black" points="385.5,-233.5 385.5,-252.5 493.5,-252.5 493.5,-233.5 385.5,-233.5"/>
<text text-anchor="middle" x="439.5" y="-240.5" font-family="Helvetica,sans-Serif" font-size="10.00">UniValue::get_bool</text>
</a>
</g>
</g>
<!-- Node2&#45;&gt;Node3 -->
<g id="edge2" class="edge">
<title>Node2&#45;&gt;Node3</title>
<path fill="none" stroke="midnightblue" d="M270.58,-133.71C287.72,-152.6 328.18,-194.54 370,-219 377.19,-223.21 385.24,-226.84 393.22,-229.92"/>
<polygon fill="midnightblue" stroke="midnightblue" points="392.26,-233.29 402.86,-233.4 394.64,-226.71 392.26,-233.29"/>
</g>
<!-- Node6 -->
<g id="node6" class="node">
<title>Node6</title>
<g id="a_node6"><a xlink:href="class_uni_value.html#a087ea6ccec615333371fa1aaf83ab7df" target="_top" xlink:title=" ">
<polygon fill="white" stroke="black" points="389.5,-190.5 389.5,-209.5 489.5,-209.5 489.5,-190.5 389.5,-190.5"/>
<text text-anchor="middle" x="439.5" y="-197.5" font-family="Helvetica,sans-Serif" font-size="10.00">UniValue::get_str</text>
</a>
</g>
</g>
<!-- Node2&#45;&gt;Node6 -->
<g id="edge5" class="edge">
<title>Node2&#45;&gt;Node6</title>
<path fill="none" stroke="midnightblue" d="M277.59,-133.61C298.14,-145.94 335.72,-167.38 370,-181 375.95,-183.36 382.29,-185.55 388.64,-187.53"/>
<polygon fill="midnightblue" stroke="midnightblue" points="387.96,-190.98 398.54,-190.47 389.95,-184.27 387.96,-190.98"/>
</g>
<!-- Node8 -->
<g id="node8" class="node">
<title>Node8</title>
<g id="a_node8"><a xlink:href="class_args_manager.html#ae22ce1df21c32003b3822817ed4b710e" target="_top" xlink:title="Get setting value.">
<polygon fill="white" stroke="black" points="370,-152.5 370,-171.5 509,-171.5 509,-152.5 370,-152.5"/>
<text text-anchor="middle" x="439.5" y="-159.5" font-family="Helvetica,sans-Serif" font-size="10.00">ArgsManager::GetSetting</text>
</a>
</g>
</g>
<!-- Node2&#45;&gt;Node8 -->
<g id="edge7" class="edge">
<title>Node2&#45;&gt;Node8</title>
<path fill="none" stroke="midnightblue" d="M306.54,-133.59C330.14,-138.67 359.33,-144.96 384.25,-150.32"/>
<polygon fill="midnightblue" stroke="midnightblue" points="383.77,-153.8 394.28,-152.48 385.24,-146.95 383.77,-153.8"/>
</g>
<!-- Node18 -->
<g id="node18" class="node">
<title>Node18</title>
<g id="a_node18"><a xlink:href="util_2system_8cpp.html#adcbab0c1a0f7f85a15bcf661621a08f5" target="_top" xlink:title="Interpret a string argument as a boolean.">
<polygon fill="white" stroke="black" points="399.5,-114.5 399.5,-133.5 479.5,-133.5 479.5,-114.5 399.5,-114.5"/>
<text text-anchor="middle" x="439.5" y="-121.5" font-family="Helvetica,sans-Serif" font-size="10.00">InterpretBool</text>
</a>
</g>
</g>
<!-- Node2&#45;&gt;Node18 -->
<g id="edge18" class="edge">
<title>Node2&#45;&gt;Node18</title>
<path fill="none" stroke="midnightblue" d="M332.52,-124C351.28,-124 371.17,-124 388.58,-124"/>
<polygon fill="midnightblue" stroke="midnightblue" points="389.07,-127.5 399.07,-124 389.07,-120.5 389.07,-127.5"/>
</g>
<!-- Node19 -->
<g id="node19" class="node">
<title>Node19</title>
<g id="a_node19"><a xlink:href="class_uni_value.html#a97cbb7890d4a8c4b924ad5ffd7bc34c1" target="_top" xlink:title=" ">
<polygon fill="white" stroke="black" points="391.5,-76.5 391.5,-95.5 487.5,-95.5 487.5,-76.5 391.5,-76.5"/>
<text text-anchor="middle" x="439.5" y="-83.5" font-family="Helvetica,sans-Serif" font-size="10.00">UniValue::isBool</text>
</a>
</g>
</g>
<!-- Node2&#45;&gt;Node19 -->
<g id="edge19" class="edge">
<title>Node2&#45;&gt;Node19</title>
<path fill="none" stroke="midnightblue" d="M306.54,-114.41C330.14,-109.33 359.33,-103.04 384.25,-97.68"/>
<polygon fill="midnightblue" stroke="midnightblue" points="385.24,-101.05 394.28,-95.52 383.77,-94.2 385.24,-101.05"/>
</g>
<!-- Node20 -->
<g id="node20" class="node">
<title>Node20</title>
<g id="a_node20"><a xlink:href="class_uni_value.html#a3661be0f5580daceb23e5338e3a0df22" target="_top" xlink:title=" ">
<polygon fill="white" stroke="black" points="392.5,-38.5 392.5,-57.5 486.5,-57.5 486.5,-38.5 392.5,-38.5"/>
<text text-anchor="middle" x="439.5" y="-45.5" font-family="Helvetica,sans-Serif" font-size="10.00">UniValue::isNull</text>
</a>
</g>
</g>
<!-- Node2&#45;&gt;Node20 -->
<g id="edge20" class="edge">
<title>Node2&#45;&gt;Node20</title>
<path fill="none" stroke="midnightblue" d="M292.73,-114.4C305.87,-109.71 321.11,-103.46 334,-96 351.78,-85.71 351.72,-76.38 370,-67 374.48,-64.7 379.28,-62.65 384.17,-60.83"/>
<polygon fill="midnightblue" stroke="midnightblue" points="385.31,-64.14 393.65,-57.6 383.05,-57.51 385.31,-64.14"/>
</g>
<!-- Node4 -->
<g id="node4" class="node">
<title>Node4</title>
<g id="a_node4"><a xlink:href="class_uni_value.html#acb5c848d20cb741dbe65e28bc513baa8" target="_top" xlink:title=" ">
<polygon fill="white" stroke="black" points="582,-241.5 582,-260.5 686,-260.5 686,-241.5 582,-241.5"/>
<text text-anchor="middle" x="634" y="-248.5" font-family="Helvetica,sans-Serif" font-size="10.00">UniValue::getBool</text>
</a>
</g>
</g>
<!-- Node3&#45;&gt;Node4 -->
<g id="edge3" class="edge">
<title>Node3&#45;&gt;Node4</title>
<path fill="none" stroke="midnightblue" d="M493.61,-245.21C517.77,-246.21 546.5,-247.41 571.58,-248.45"/>
<polygon fill="midnightblue" stroke="midnightblue" points="571.59,-251.95 581.72,-248.87 571.88,-244.96 571.59,-251.95"/>
</g>
<!-- Node5 -->
<g id="node5" class="node">
<title>Node5</title>
<g id="a_node5"><a xlink:href="class_uni_value.html#a1491167609f899d0c7773749b5047969" target="_top" xlink:title=" ">
<polygon fill="white" stroke="black" points="774.5,-245.5 774.5,-264.5 869.5,-264.5 869.5,-245.5 774.5,-245.5"/>
<text text-anchor="middle" x="822" y="-252.5" font-family="Helvetica,sans-Serif" font-size="10.00">UniValue::isTrue</text>
</a>
</g>
</g>
<!-- Node4&#45;&gt;Node5 -->
<g id="edge4" class="edge">
<title>Node4&#45;&gt;Node5</title>
<path fill="none" stroke="midnightblue" d="M686.32,-252.1C710.51,-252.62 739.45,-253.25 764.29,-253.78"/>
<polygon fill="midnightblue" stroke="midnightblue" points="764.23,-257.28 774.3,-254 764.38,-250.28 764.23,-257.28"/>
</g>
<!-- Node7 -->
<g id="node7" class="node">
<title>Node7</title>
<g id="a_node7"><a xlink:href="class_uni_value.html#a46cb80a3205cfa12f8a6d4de7d6fe6e8" target="_top" xlink:title=" ">
<polygon fill="white" stroke="black" points="579,-190.5 579,-209.5 689,-209.5 689,-190.5 579,-190.5"/>
<text text-anchor="middle" x="634" y="-197.5" font-family="Helvetica,sans-Serif" font-size="10.00">UniValue::getValStr</text>
</a>
</g>
</g>
<!-- Node6&#45;&gt;Node7 -->
<g id="edge6" class="edge">
<title>Node6&#45;&gt;Node7</title>
<path fill="none" stroke="midnightblue" d="M489.57,-200C513.67,-200 543,-200 568.85,-200"/>
<polygon fill="midnightblue" stroke="midnightblue" points="568.93,-203.5 578.93,-200 568.93,-196.5 568.93,-203.5"/>
</g>
<!-- Node9 -->
<g id="node9" class="node">
<title>Node9</title>
<g id="a_node9"><a xlink:href="namespaceutil.html#ad600799ecf02db34bd57992490adc8cf" target="_top" xlink:title="Get settings value from combined sources: forced settings, command line arguments,...">
<polygon fill="white" stroke="black" points="589,-152.5 589,-171.5 679,-171.5 679,-152.5 589,-152.5"/>
<text text-anchor="middle" x="634" y="-159.5" font-family="Helvetica,sans-Serif" font-size="10.00">util::GetSetting</text>
</a>
</g>
</g>
<!-- Node8&#45;&gt;Node9 -->
<g id="edge8" class="edge">
<title>Node8&#45;&gt;Node9</title>
<path fill="none" stroke="midnightblue" d="M509.18,-162C532.01,-162 557.09,-162 578.68,-162"/>
<polygon fill="midnightblue" stroke="midnightblue" points="578.97,-165.5 588.97,-162 578.97,-158.5 578.97,-165.5"/>
</g>
<!-- Node16 -->
<g id="node16" class="node">
<title>Node16</title>
<g id="a_node16"><a xlink:href="util_2system_8cpp.html#aabbdc250e20dc3ba2de2a3718a5c0df8" target="_top" xlink:title=" ">
<polygon fill="white" stroke="black" points="594,-114.5 594,-133.5 674,-133.5 674,-114.5 594,-114.5"/>
<text text-anchor="middle" x="634" y="-121.5" font-family="Helvetica,sans-Serif" font-size="10.00">SettingName</text>
</a>
</g>
</g>
<!-- Node8&#45;&gt;Node16 -->
<g id="edge16" class="edge">
<title>Node8&#45;&gt;Node16</title>
<path fill="none" stroke="midnightblue" d="M489.08,-152.41C518.07,-146.69 554.78,-139.44 583.87,-133.7"/>
<polygon fill="midnightblue" stroke="midnightblue" points="584.69,-137.1 593.82,-131.73 583.33,-130.24 584.69,-137.1"/>
</g>
<!-- Node17 -->
<g id="node17" class="node">
<title>Node17</title>
<g id="a_node17"><a xlink:href="class_args_manager.html#ad4df00e7ccb999f80702c7e334d8a152" target="_top" xlink:title="Returns true if settings values from the default section should be used, depending on the current net...">
<polygon fill="white" stroke="black" points="545,-76.5 545,-95.5 723,-95.5 723,-76.5 545,-76.5"/>
<text text-anchor="middle" x="634" y="-83.5" font-family="Helvetica,sans-Serif" font-size="10.00">ArgsManager::UseDefaultSection</text>
</a>
</g>
</g>
<!-- Node8&#45;&gt;Node17 -->
<g id="edge17" class="edge">
<title>Node8&#45;&gt;Node17</title>
<path fill="none" stroke="midnightblue" d="M487.96,-152.48C495.28,-149.99 502.55,-146.88 509,-143 528.94,-131.01 524.72,-116.41 545,-105 549.02,-102.74 553.27,-100.75 557.67,-98.99"/>
<polygon fill="midnightblue" stroke="midnightblue" points="559.2,-102.16 567.45,-95.52 556.86,-95.57 559.2,-102.16"/>
</g>
<!-- Node10 -->
<g id="node10" class="node">
<title>Node10</title>
<g id="a_node10"><a xlink:href="structutil_1_1_settings_span.html#aedc8fc5f96bb66342cab93cee5dd716e" target="_top" xlink:title="Pointer to first non&#45;negated value.">
<polygon fill="white" stroke="black" points="771,-196 771,-226 873,-226 873,-196 771,-196"/>
<text text-anchor="start" x="779" y="-214" font-family="Helvetica,sans-Serif" font-size="10.00">util::SettingsSpan</text>
<text text-anchor="middle" x="822" y="-203" font-family="Helvetica,sans-Serif" font-size="10.00">::begin</text>
</a>
</g>
</g>
<!-- Node9&#45;&gt;Node10 -->
<g id="edge9" class="edge">
<title>Node9&#45;&gt;Node10</title>
<path fill="none" stroke="midnightblue" d="M679.04,-170.75C693.14,-173.75 708.78,-177.3 723,-181 736.58,-184.54 751.09,-188.74 764.67,-192.87"/>
<polygon fill="midnightblue" stroke="midnightblue" points="763.79,-196.26 774.37,-195.85 765.84,-189.56 763.79,-196.26"/>
</g>
<!-- Node12 -->
<g id="node12" class="node">
<title>Node12</title>
<g id="a_node12"><a xlink:href="structutil_1_1_settings_span.html#a55d1b74058081147c8d5bb3da1e5d833" target="_top" xlink:title="True if there are any non&#45;negated values.">
<polygon fill="white" stroke="black" points="771,-147 771,-177 873,-177 873,-147 771,-147"/>
<text text-anchor="start" x="779" y="-165" font-family="Helvetica,sans-Serif" font-size="10.00">util::SettingsSpan</text>
<text text-anchor="middle" x="822" y="-154" font-family="Helvetica,sans-Serif" font-size="10.00">::empty</text>
</a>
</g>
</g>
<!-- Node9&#45;&gt;Node12 -->
<g id="edge11" class="edge">
<title>Node9&#45;&gt;Node12</title>
<path fill="none" stroke="midnightblue" d="M679.08,-162C703.36,-162 733.85,-162 760.35,-162"/>
<polygon fill="midnightblue" stroke="midnightblue" points="760.67,-165.5 770.67,-162 760.67,-158.5 760.67,-165.5"/>
</g>
<!-- Node13 -->
<g id="node13" class="node">
<title>Node13</title>
<g id="a_node13"><a xlink:href="structutil_1_1_settings_span.html#ae9fee31fb1a95f26de9c2c2f568f0e19" target="_top" xlink:title="True if the last value is negated.">
<polygon fill="white" stroke="black" points="921,-125 921,-155 1023,-155 1023,-125 921,-125"/>
<text text-anchor="start" x="929" y="-143" font-family="Helvetica,sans-Serif" font-size="10.00">util::SettingsSpan</text>
<text text-anchor="middle" x="972" y="-132" font-family="Helvetica,sans-Serif" font-size="10.00">::last_negated</text>
</a>
</g>
</g>
<!-- Node9&#45;&gt;Node13 -->
<g id="edge15" class="edge">
<title>Node9&#45;&gt;Node13</title>
<path fill="none" stroke="midnightblue" d="M679.21,-152.52C708.32,-146.46 743.78,-139.46 759,-138 814.74,-132.65 829,-137.35 885,-138 893.37,-138.1 902.2,-138.25 910.89,-138.42"/>
<polygon fill="midnightblue" stroke="midnightblue" points="910.91,-141.93 920.98,-138.64 911.06,-134.93 910.91,-141.93"/>
</g>
<!-- Node15 -->
<g id="node15" class="node">
<title>Node15</title>
<g id="a_node15"><a xlink:href="structutil_1_1_settings_span.html#a3787e02e0b03d4cbecdc3a60841b88b8" target="_top" xlink:title="Pointer to end of values.">
<polygon fill="white" stroke="black" points="759,-70.5 759,-89.5 885,-89.5 885,-70.5 759,-70.5"/>
<text text-anchor="middle" x="822" y="-77.5" font-family="Helvetica,sans-Serif" font-size="10.00">util::SettingsSpan::end</text>
</a>
</g>
</g>
<!-- Node9&#45;&gt;Node15 -->
<g id="edge14" class="edge">
<title>Node9&#45;&gt;Node15</title>
<path fill="none" stroke="midnightblue" d="M679.44,-157.82C694.01,-155.07 709.84,-150.52 723,-143 743.48,-131.3 739.5,-117.27 759,-104 765.04,-99.89 771.87,-96.35 778.75,-93.35"/>
<polygon fill="midnightblue" stroke="midnightblue" points="780.12,-96.57 788.08,-89.58 777.49,-90.08 780.12,-96.57"/>
</g>
<!-- Node11 -->
<g id="node11" class="node">
<title>Node11</title>
<g id="a_node11"><a xlink:href="structutil_1_1_settings_span.html#a006e39e85a82859a2d34e0266c90efd2" target="_top" xlink:title="Number of negated values.">
<polygon fill="white" stroke="black" points="921,-196 921,-226 1023,-226 1023,-196 921,-196"/>
<text text-anchor="start" x="929" y="-214" font-family="Helvetica,sans-Serif" font-size="10.00">util::SettingsSpan</text>
<text text-anchor="middle" x="972" y="-203" font-family="Helvetica,sans-Serif" font-size="10.00">::negated</text>
</a>
</g>
</g>
<!-- Node10&#45;&gt;Node11 -->
<g id="edge10" class="edge">
<title>Node10&#45;&gt;Node11</title>
<path fill="none" stroke="midnightblue" d="M873.11,-211C885.16,-211 898.16,-211 910.63,-211"/>
<polygon fill="midnightblue" stroke="midnightblue" points="910.95,-214.5 920.95,-211 910.95,-207.5 910.95,-214.5"/>
</g>
<!-- Node12&#45;&gt;Node13 -->
<g id="edge12" class="edge">
<title>Node12&#45;&gt;Node13</title>
<path fill="none" stroke="midnightblue" d="M873.11,-154.55C885.28,-152.74 898.42,-150.79 911,-148.92"/>
<polygon fill="midnightblue" stroke="midnightblue" points="911.57,-152.37 920.95,-147.44 910.54,-145.45 911.57,-152.37"/>
</g>
<!-- Node14 -->
<g id="node14" class="node">
<title>Node14</title>
<g id="a_node14"><a xlink:href="class_uni_value.html#ae79ab57378176379dd206c5e2d6f5feb" target="_top" xlink:title=" ">
<polygon fill="white" stroke="black" points="1059,-130.5 1059,-149.5 1158,-149.5 1158,-130.5 1059,-130.5"/>
<text text-anchor="middle" x="1108.5" y="-137.5" font-family="Helvetica,sans-Serif" font-size="10.00">UniValue::isFalse</text>
</a>
</g>
</g>
<!-- Node13&#45;&gt;Node14 -->
<g id="edge13" class="edge">
<title>Node13&#45;&gt;Node14</title>
<path fill="none" stroke="midnightblue" d="M1023.08,-140C1031.37,-140 1040.02,-140 1048.5,-140"/>
<polygon fill="midnightblue" stroke="midnightblue" points="1048.72,-143.5 1058.72,-140 1048.72,-136.5 1048.72,-143.5"/>
</g>
<!-- Node23 -->
<g id="node23" class="node">
<title>Node23</title>
<g id="a_node23"><a xlink:href="shutdown_8cpp.html#a80961bbf7599ca290cd91472c41cd9b3" target="_top" xlink:title=" ">
<polygon fill="white" stroke="black" points="385.5,-0.5 385.5,-19.5 493.5,-19.5 493.5,-0.5 385.5,-0.5"/>
<text text-anchor="middle" x="439.5" y="-7.5" font-family="Helvetica,sans-Serif" font-size="10.00">fRequestShutdown</text>
</a>
</g>
</g>
<!-- Node22&#45;&gt;Node23 -->
<g id="edge24" class="edge">
<title>Node22&#45;&gt;Node23</title>
<path fill="none" stroke="midnightblue" d="M319.3,-16.75C337.14,-15.74 356.91,-14.62 375.14,-13.59"/>
<polygon fill="midnightblue" stroke="midnightblue" points="375.59,-17.07 385.37,-13.01 375.19,-10.08 375.59,-17.07"/>
</g>
</g>
</svg>
