<?xml version="1.0" encoding="UTF-8" standalone="no"?>
<!DOCTYPE svg PUBLIC "-//W3C//DTD SVG 1.1//EN"
 "http://www.w3.org/Graphics/SVG/1.1/DTD/svg11.dtd">
<!-- Generated by graphviz version 2.49.3 (0)
 -->
<!-- Title: CKey::VerifyPubKey Pages: 1 -->
<svg width="982pt" height="1076pt"
 viewBox="0.00 0.00 982.00 1076.00" xmlns="http://www.w3.org/2000/svg" xmlns:xlink="http://www.w3.org/1999/xlink">
<g id="graph0" class="graph" transform="scale(1 1) rotate(0) translate(4 1072)">
<title>CKey::VerifyPubKey</title>
<polygon fill="white" stroke="transparent" points="-4,4 -4,-1072 978,-1072 978,4 -4,4"/>
<!-- Node1 -->
<g id="node1" class="node">
<title>Node1</title>
<g id="a_node1"><a xlink:title="Verify thoroughly whether a private key and a public key match.">
<polygon fill="#bfbfbf" stroke="black" points="0,-706.5 0,-725.5 110,-725.5 110,-706.5 0,-706.5"/>
<text text-anchor="middle" x="55" y="-713.5" font-family="Helvetica,sans-Serif" font-size="10.00">CKey::VerifyPubKey</text>
</a>
</g>
</g>
<!-- Node2 -->
<g id="node2" class="node">
<title>Node2</title>
<g id="a_node2"><a xlink:href="class_c_hash256.html#a0d56fbcf8ffbc7f6b37d5cbc45d87435" target="_top" xlink:title=" ">
<polygon fill="white" stroke="black" points="158,-915.5 158,-934.5 268,-934.5 268,-915.5 158,-915.5"/>
<text text-anchor="middle" x="213" y="-922.5" font-family="Helvetica,sans-Serif" font-size="10.00">CHash256::Finalize</text>
</a>
</g>
</g>
<!-- Node1&#45;&gt;Node2 -->
<g id="edge1" class="edge">
<title>Node1&#45;&gt;Node2</title>
<path fill="none" stroke="midnightblue" d="M58.94,-725.66C67.88,-753.69 97.14,-836.25 146,-887 155.41,-896.77 167.87,-904.81 179.43,-910.94"/>
<polygon fill="midnightblue" stroke="midnightblue" points="177.93,-914.1 188.44,-915.44 181.06,-907.84 177.93,-914.1"/>
</g>
<!-- Node16 -->
<g id="node12" class="node">
<title>Node16</title>
<g id="a_node12"><a xlink:href="random_8cpp.html#a6ee67373bce34cf387d83c86b438ff84" target="_top" xlink:title="Overall design of the RNG and entropy sources.">
<polygon fill="white" stroke="black" points="170,-763.5 170,-782.5 256,-782.5 256,-763.5 170,-763.5"/>
<text text-anchor="middle" x="213" y="-770.5" font-family="Helvetica,sans-Serif" font-size="10.00">GetRandBytes</text>
</a>
</g>
</g>
<!-- Node1&#45;&gt;Node16 -->
<g id="edge12" class="edge">
<title>Node1&#45;&gt;Node16</title>
<path fill="none" stroke="midnightblue" d="M82.11,-725.54C107.87,-734.95 147.45,-749.41 176.15,-759.9"/>
<polygon fill="midnightblue" stroke="midnightblue" points="175.21,-763.28 185.8,-763.43 177.61,-756.71 175.21,-763.28"/>
</g>
<!-- Node44 -->
<g id="node18" class="node">
<title>Node44</title>
<g id="a_node18"><a xlink:href="class_c_pub_key.html#a25f8b70340ad20ddab0f80ec4cee9396" target="_top" xlink:title="Check whether this is a compressed public key.">
<polygon fill="white" stroke="black" points="146,-139.5 146,-158.5 280,-158.5 280,-139.5 146,-139.5"/>
<text text-anchor="middle" x="213" y="-146.5" font-family="Helvetica,sans-Serif" font-size="10.00">CPubKey::IsCompressed</text>
</a>
</g>
</g>
<!-- Node1&#45;&gt;Node44 -->
<g id="edge22" class="edge">
<title>Node1&#45;&gt;Node44</title>
<path fill="none" stroke="midnightblue" d="M57.13,-706.39C62.86,-659.37 90.53,-449.2 146,-286 161,-241.87 186.7,-193.44 201.21,-167.64"/>
<polygon fill="midnightblue" stroke="midnightblue" points="204.44,-169.04 206.35,-158.62 198.36,-165.58 204.44,-169.04"/>
</g>
<!-- Node47 -->
<g id="node21" class="node">
<title>Node47</title>
<g id="a_node21"><a xlink:href="span_8h.html#afa031115bbf9201cd1c99b59e7dd2245" target="_top" xlink:title="Like MakeSpan, but for (const) unsigned char member types only.">
<polygon fill="white" stroke="black" points="164.5,-706.5 164.5,-725.5 261.5,-725.5 261.5,-706.5 164.5,-706.5"/>
<text text-anchor="middle" x="213" y="-713.5" font-family="Helvetica,sans-Serif" font-size="10.00">MakeUCharSpan</text>
</a>
</g>
</g>
<!-- Node1&#45;&gt;Node47 -->
<g id="edge25" class="edge">
<title>Node1&#45;&gt;Node47</title>
<path fill="none" stroke="midnightblue" d="M110.12,-716C124.36,-716 139.76,-716 154.18,-716"/>
<polygon fill="midnightblue" stroke="midnightblue" points="154.48,-719.5 164.48,-716 154.48,-712.5 154.48,-719.5"/>
</g>
<!-- Node51 -->
<g id="node25" class="node">
<title>Node51</title>
<g id="a_node25"><a xlink:href="class_c_key.html#a58eae0abed8da2f52c940f894b5ace06" target="_top" xlink:title="Create a DER&#45;serialized signature.">
<polygon fill="white" stroke="black" points="179,-535.5 179,-554.5 247,-554.5 247,-535.5 179,-535.5"/>
<text text-anchor="middle" x="213" y="-542.5" font-family="Helvetica,sans-Serif" font-size="10.00">CKey::Sign</text>
</a>
</g>
</g>
<!-- Node1&#45;&gt;Node51 -->
<g id="edge29" class="edge">
<title>Node1&#45;&gt;Node51</title>
<path fill="none" stroke="midnightblue" d="M64.83,-706.32C90.25,-678.45 163.83,-597.8 196.29,-562.22"/>
<polygon fill="midnightblue" stroke="midnightblue" points="199.11,-564.32 203.26,-554.58 193.94,-559.61 199.11,-564.32"/>
</g>
<!-- Node73 -->
<g id="node39" class="node">
<title>Node73</title>
<g id="a_node39"><a xlink:href="class_c_pub_key.html#a5b3fef213b227394ca9d0a1e3baa957e" target="_top" xlink:title="Verify a DER signature (~72 bytes).">
<polygon fill="white" stroke="black" points="167,-295.5 167,-314.5 259,-314.5 259,-295.5 167,-295.5"/>
<text text-anchor="middle" x="213" y="-302.5" font-family="Helvetica,sans-Serif" font-size="10.00">CPubKey::Verify</text>
</a>
</g>
</g>
<!-- Node1&#45;&gt;Node73 -->
<g id="edge45" class="edge">
<title>Node1&#45;&gt;Node73</title>
<path fill="none" stroke="midnightblue" d="M59.7,-706.25C79.89,-653.06 176.8,-397.75 204.55,-324.62"/>
<polygon fill="midnightblue" stroke="midnightblue" points="207.99,-325.44 208.26,-314.85 201.44,-322.95 207.99,-325.44"/>
</g>
<!-- Node97 -->
<g id="node50" class="node">
<title>Node97</title>
<g id="a_node50"><a xlink:href="class_c_hash256.html#a530077f33cd5344f161ae7c84093a0e1" target="_top" xlink:title=" ">
<polygon fill="white" stroke="black" points="164,-858.5 164,-877.5 262,-877.5 262,-858.5 164,-858.5"/>
<text text-anchor="middle" x="213" y="-865.5" font-family="Helvetica,sans-Serif" font-size="10.00">CHash256::Write</text>
</a>
</g>
</g>
<!-- Node1&#45;&gt;Node97 -->
<g id="edge64" class="edge">
<title>Node1&#45;&gt;Node97</title>
<path fill="none" stroke="midnightblue" d="M65.76,-725.51C91.59,-750.67 161.98,-819.26 194.77,-851.21"/>
<polygon fill="midnightblue" stroke="midnightblue" points="192.64,-854.02 202.25,-858.5 197.53,-849.01 192.64,-854.02"/>
</g>
<!-- Node3 -->
<g id="node3" class="node">
<title>Node3</title>
<g id="a_node3"><a xlink:href="validation_8cpp.html#afb7ea74ba028421697aa7f364741ee6c" target="_top" xlink:title=" ">
<polygon fill="white" stroke="black" points="559.5,-725.5 559.5,-744.5 606.5,-744.5 606.5,-725.5 559.5,-725.5"/>
<text text-anchor="middle" x="583" y="-732.5" font-family="Helvetica,sans-Serif" font-size="10.00">assert</text>
</a>
</g>
</g>
<!-- Node2&#45;&gt;Node3 -->
<g id="edge2" class="edge">
<title>Node2&#45;&gt;Node3</title>
<path fill="none" stroke="midnightblue" d="M239.42,-915.37C253.04,-909.09 269.2,-899.68 280,-887 309.27,-852.62 281.75,-821.43 316,-792 324.9,-784.35 480.38,-754.21 549.42,-741.12"/>
<polygon fill="midnightblue" stroke="midnightblue" points="550.17,-744.54 559.34,-739.25 548.86,-737.66 550.17,-744.54"/>
</g>
<!-- Node4 -->
<g id="node4" class="node">
<title>Node4</title>
<g id="a_node4"><a xlink:href="class_span.html#a791cdbdc5584d3bfd062aa9244e0c57f" target="_top" xlink:title=" ">
<polygon fill="white" stroke="black" points="359,-915.5 359,-934.5 427,-934.5 427,-915.5 359,-915.5"/>
<text text-anchor="middle" x="393" y="-922.5" font-family="Helvetica,sans-Serif" font-size="10.00">Span::data</text>
</a>
</g>
</g>
<!-- Node2&#45;&gt;Node4 -->
<g id="edge3" class="edge">
<title>Node2&#45;&gt;Node4</title>
<path fill="none" stroke="midnightblue" d="M268.37,-925C294.11,-925 324.43,-925 348.6,-925"/>
<polygon fill="midnightblue" stroke="midnightblue" points="348.89,-928.5 358.89,-925 348.89,-921.5 348.89,-928.5"/>
</g>
<!-- Node5 -->
<g id="node5" class="node">
<title>Node5</title>
<g id="a_node5"><a xlink:href="class_c_s_h_a256.html#a4259230be0caefa590bc324fc12b9b90" target="_top" xlink:title=" ">
<polygon fill="white" stroke="black" points="340.5,-1029.5 340.5,-1048.5 445.5,-1048.5 445.5,-1029.5 340.5,-1029.5"/>
<text text-anchor="middle" x="393" y="-1036.5" font-family="Helvetica,sans-Serif" font-size="10.00">CSHA256::Finalize</text>
</a>
</g>
</g>
<!-- Node2&#45;&gt;Node5 -->
<g id="edge4" class="edge">
<title>Node2&#45;&gt;Node5</title>
<path fill="none" stroke="midnightblue" d="M221.55,-934.78C237.06,-954.15 274.53,-997.48 316,-1020 320.59,-1022.49 325.51,-1024.66 330.56,-1026.55"/>
<polygon fill="midnightblue" stroke="midnightblue" points="329.79,-1029.99 340.38,-1029.86 332.02,-1023.35 329.79,-1029.99"/>
</g>
<!-- Node6 -->
<g id="node6" class="node">
<title>Node6</title>
<g id="a_node6"><a xlink:href="class_c_s_h_a256.html#a9d7de520a562655da85349372820c883" target="_top" xlink:title=" ">
<polygon fill="white" stroke="black" points="536,-953.5 536,-972.5 630,-972.5 630,-953.5 536,-953.5"/>
<text text-anchor="middle" x="583" y="-960.5" font-family="Helvetica,sans-Serif" font-size="10.00">CSHA256::Write</text>
</a>
</g>
</g>
<!-- Node2&#45;&gt;Node6 -->
<g id="edge11" class="edge">
<title>Node2&#45;&gt;Node6</title>
<path fill="none" stroke="midnightblue" d="M259.02,-934.52C276.71,-937.96 297.24,-941.59 316,-944 388.04,-953.25 471.69,-958.3 525.66,-960.82"/>
<polygon fill="midnightblue" stroke="midnightblue" points="525.56,-964.32 535.71,-961.28 525.88,-957.33 525.56,-964.32"/>
</g>
<!-- Node14 -->
<g id="node10" class="node">
<title>Node14</title>
<g id="a_node10"><a xlink:href="class_c_s_h_a256.html#a2122395dd5604990eaa0077b43a0e8d4" target="_top" xlink:title=" ">
<polygon fill="white" stroke="black" points="345.5,-991.5 345.5,-1010.5 440.5,-1010.5 440.5,-991.5 345.5,-991.5"/>
<text text-anchor="middle" x="393" y="-998.5" font-family="Helvetica,sans-Serif" font-size="10.00">CSHA256::Reset</text>
</a>
</g>
</g>
<!-- Node2&#45;&gt;Node14 -->
<g id="edge9" class="edge">
<title>Node2&#45;&gt;Node14</title>
<path fill="none" stroke="midnightblue" d="M230.56,-934.52C250.42,-945.69 284.91,-964.27 316,-977 326.09,-981.13 337.17,-985 347.68,-988.36"/>
<polygon fill="midnightblue" stroke="midnightblue" points="346.93,-991.8 357.52,-991.43 349.02,-985.11 346.93,-991.8"/>
</g>
<!-- Node15 -->
<g id="node11" class="node">
<title>Node15</title>
<g id="a_node11"><a xlink:href="class_span.html#a14c28485a34145fb36bb08135ac6cf8f" target="_top" xlink:title=" ">
<polygon fill="white" stroke="black" points="360,-877.5 360,-896.5 426,-896.5 426,-877.5 360,-877.5"/>
<text text-anchor="middle" x="393" y="-884.5" font-family="Helvetica,sans-Serif" font-size="10.00">Span::size</text>
</a>
</g>
</g>
<!-- Node2&#45;&gt;Node15 -->
<g id="edge10" class="edge">
<title>Node2&#45;&gt;Node15</title>
<path fill="none" stroke="midnightblue" d="M258.92,-915.41C286.77,-909.46 322.33,-901.87 349.68,-896.03"/>
<polygon fill="midnightblue" stroke="midnightblue" points="350.68,-899.4 359.73,-893.89 349.22,-892.55 350.68,-899.4"/>
</g>
<!-- Node5&#45;&gt;Node6 -->
<g id="edge5" class="edge">
<title>Node5&#45;&gt;Node6</title>
<path fill="none" stroke="midnightblue" d="M439.96,-1029.4C450,-1026.78 460.47,-1023.64 470,-1020 486.9,-1013.54 489.91,-1009.27 506,-1001 521.56,-993 539.02,-984.26 553.28,-977.17"/>
<polygon fill="midnightblue" stroke="midnightblue" points="555.17,-980.14 562.57,-972.57 552.06,-973.87 555.17,-980.14"/>
</g>
<!-- Node8 -->
<g id="node8" class="node">
<title>Node8</title>
<g id="a_node8"><a xlink:href="crypto_2common_8h.html#aa3a53ff883fd14480eb603d00123a74a" target="_top" xlink:title=" ">
<polygon fill="white" stroke="red" points="549,-1048.5 549,-1067.5 617,-1067.5 617,-1048.5 549,-1048.5"/>
<text text-anchor="middle" x="583" y="-1055.5" font-family="Helvetica,sans-Serif" font-size="10.00">WriteBE32</text>
</a>
</g>
</g>
<!-- Node5&#45;&gt;Node8 -->
<g id="edge7" class="edge">
<title>Node5&#45;&gt;Node8</title>
<path fill="none" stroke="midnightblue" d="M445.87,-1044.24C475.07,-1047.19 511.11,-1050.84 538.77,-1053.63"/>
<polygon fill="midnightblue" stroke="midnightblue" points="538.63,-1057.13 548.93,-1054.66 539.33,-1050.17 538.63,-1057.13"/>
</g>
<!-- Node11 -->
<g id="node9" class="node">
<title>Node11</title>
<g id="a_node9"><a xlink:href="crypto_2common_8h.html#ab960e95bf479af0a88a20800366b6131" target="_top" xlink:title=" ">
<polygon fill="white" stroke="red" points="549,-1010.5 549,-1029.5 617,-1029.5 617,-1010.5 549,-1010.5"/>
<text text-anchor="middle" x="583" y="-1017.5" font-family="Helvetica,sans-Serif" font-size="10.00">WriteBE64</text>
</a>
</g>
</g>
<!-- Node5&#45;&gt;Node11 -->
<g id="edge8" class="edge">
<title>Node5&#45;&gt;Node11</title>
<path fill="none" stroke="midnightblue" d="M445.87,-1033.76C475.07,-1030.81 511.11,-1027.16 538.77,-1024.37"/>
<polygon fill="midnightblue" stroke="midnightblue" points="539.33,-1027.83 548.93,-1023.34 538.63,-1020.87 539.33,-1027.83"/>
</g>
<!-- Node7 -->
<g id="node7" class="node">
<title>Node7</title>
<g id="a_node7"><a xlink:href="namespacesha256__shani.html#a97d2e267c87add9a1172d948e05ba471" target="_top" xlink:title=" ">
<polygon fill="white" stroke="black" points="718,-953.5 718,-972.5 856,-972.5 856,-953.5 718,-953.5"/>
<text text-anchor="middle" x="787" y="-960.5" font-family="Helvetica,sans-Serif" font-size="10.00">sha256_shani::Transform</text>
</a>
</g>
</g>
<!-- Node6&#45;&gt;Node7 -->
<g id="edge6" class="edge">
<title>Node6&#45;&gt;Node7</title>
<path fill="none" stroke="midnightblue" d="M630.09,-963C653.01,-963 681.36,-963 707.57,-963"/>
<polygon fill="midnightblue" stroke="midnightblue" points="707.87,-966.5 717.87,-963 707.87,-959.5 707.87,-966.5"/>
</g>
<!-- Node17 -->
<g id="node13" class="node">
<title>Node17</title>
<g id="a_node13"><a xlink:href="random_8cpp.html#a8ae9b8a6be2563ac9695b0b0c2828da2" target="_top" xlink:title=" ">
<polygon fill="white" stroke="black" points="362,-801.5 362,-820.5 424,-820.5 424,-801.5 362,-801.5"/>
<text text-anchor="middle" x="393" y="-808.5" font-family="Helvetica,sans-Serif" font-size="10.00">ProcRand</text>
</a>
</g>
</g>
<!-- Node16&#45;&gt;Node17 -->
<g id="edge13" class="edge">
<title>Node16&#45;&gt;Node17</title>
<path fill="none" stroke="midnightblue" d="M256.18,-782.01C285.12,-788.18 323.28,-796.33 351.78,-802.41"/>
<polygon fill="midnightblue" stroke="midnightblue" points="351.3,-805.89 361.81,-804.56 352.76,-799.04 351.3,-805.89"/>
</g>
<!-- Node17&#45;&gt;Node3 -->
<g id="edge14" class="edge">
<title>Node17&#45;&gt;Node3</title>
<path fill="none" stroke="midnightblue" d="M424.12,-804.72C438.61,-800.91 455.86,-795.17 470,-787 488.79,-776.14 486.88,-764.28 506,-754 519.27,-746.86 535.28,-742.35 549.18,-739.52"/>
<polygon fill="midnightblue" stroke="midnightblue" points="550.11,-742.91 559.32,-737.67 548.85,-736.02 550.11,-742.91"/>
</g>
<!-- Node18 -->
<g id="node14" class="node">
<title>Node18</title>
<g id="a_node14"><a xlink:href="random_8cpp.html#a46aa1c803cdf7cb3dae88c97ce3ff4ee" target="_top" xlink:title=" ">
<polygon fill="white" stroke="red" points="914,-839.5 914,-858.5 974,-858.5 974,-839.5 914,-839.5"/>
<text text-anchor="middle" x="944" y="-846.5" font-family="Helvetica,sans-Serif" font-size="10.00">SeedFast</text>
</a>
</g>
</g>
<!-- Node17&#45;&gt;Node18 -->
<g id="edge15" class="edge">
<title>Node17&#45;&gt;Node18</title>
<path fill="none" stroke="midnightblue" d="M419.88,-820.61C442.35,-828.59 475.91,-839.62 506,-846 668.02,-880.38 714.05,-891.47 878,-868 887.57,-866.63 897.7,-864.18 907.05,-861.48"/>
<polygon fill="midnightblue" stroke="midnightblue" points="908.27,-864.77 916.81,-858.5 906.22,-858.07 908.27,-864.77"/>
</g>
<!-- Node22 -->
<g id="node15" class="node">
<title>Node22</title>
<g id="a_node15"><a xlink:href="random_8cpp.html#aac760c61051f75d8930464ee2b6b4750" target="_top" xlink:title=" ">
<polygon fill="white" stroke="red" points="747,-839.5 747,-858.5 827,-858.5 827,-839.5 747,-839.5"/>
<text text-anchor="middle" x="787" y="-846.5" font-family="Helvetica,sans-Serif" font-size="10.00">SeedPeriodic</text>
</a>
</g>
</g>
<!-- Node17&#45;&gt;Node22 -->
<g id="edge16" class="edge">
<title>Node17&#45;&gt;Node22</title>
<path fill="none" stroke="midnightblue" d="M424.39,-815.12C446.89,-818.1 478.33,-822.09 506,-825 586.85,-833.51 681.08,-841.11 737.01,-845.38"/>
<polygon fill="midnightblue" stroke="midnightblue" points="736.76,-848.87 747,-846.14 737.29,-841.89 736.76,-848.87"/>
</g>
<!-- Node36 -->
<g id="node16" class="node">
<title>Node36</title>
<g id="a_node16"><a xlink:href="random_8cpp.html#afc3bb33c6729b0c714d3ae8f1f94cb74" target="_top" xlink:title=" ">
<polygon fill="white" stroke="red" points="755,-801.5 755,-820.5 819,-820.5 819,-801.5 755,-801.5"/>
<text text-anchor="middle" x="787" y="-808.5" font-family="Helvetica,sans-Serif" font-size="10.00">SeedSlow</text>
</a>
</g>
</g>
<!-- Node17&#45;&gt;Node36 -->
<g id="edge18" class="edge">
<title>Node17&#45;&gt;Node36</title>
<path fill="none" stroke="midnightblue" d="M424.11,-811C493.68,-811 665.7,-811 744.89,-811"/>
<polygon fill="midnightblue" stroke="midnightblue" points="744.98,-814.5 754.98,-811 744.98,-807.5 744.98,-814.5"/>
</g>
<!-- Node40 -->
<g id="node17" class="node">
<title>Node40</title>
<g id="a_node17"><a xlink:href="random_8cpp.html#a2978864f7deaa6e13a1a98df08b0b394" target="_top" xlink:title=" ">
<polygon fill="white" stroke="red" points="545,-763.5 545,-782.5 621,-782.5 621,-763.5 545,-763.5"/>
<text text-anchor="middle" x="583" y="-770.5" font-family="Helvetica,sans-Serif" font-size="10.00">SeedStartup</text>
</a>
</g>
</g>
<!-- Node17&#45;&gt;Node40 -->
<g id="edge20" class="edge">
<title>Node17&#45;&gt;Node40</title>
<path fill="none" stroke="midnightblue" d="M424.21,-804.89C454.06,-798.86 500.16,-789.54 534.84,-782.53"/>
<polygon fill="midnightblue" stroke="midnightblue" points="535.64,-785.94 544.75,-780.53 534.26,-779.08 535.64,-785.94"/>
</g>
<!-- Node22&#45;&gt;Node18 -->
<g id="edge17" class="edge">
<title>Node22&#45;&gt;Node18</title>
<path fill="none" stroke="midnightblue" d="M827.11,-849C850.44,-849 879.99,-849 903.4,-849"/>
<polygon fill="midnightblue" stroke="midnightblue" points="903.69,-852.5 913.69,-849 903.69,-845.5 903.69,-852.5"/>
</g>
<!-- Node36&#45;&gt;Node18 -->
<g id="edge19" class="edge">
<title>Node36&#45;&gt;Node18</title>
<path fill="none" stroke="midnightblue" d="M819.37,-817.01C836.73,-820.49 858.64,-825.13 878,-830 886.44,-832.12 895.44,-834.6 903.96,-837.06"/>
<polygon fill="midnightblue" stroke="midnightblue" points="903.1,-840.46 913.68,-839.92 905.07,-833.74 903.1,-840.46"/>
</g>
<!-- Node40&#45;&gt;Node36 -->
<g id="edge21" class="edge">
<title>Node40&#45;&gt;Node36</title>
<path fill="none" stroke="midnightblue" d="M621.05,-779.97C655.98,-786.54 708.26,-796.38 744.56,-803.2"/>
<polygon fill="midnightblue" stroke="midnightblue" points="744.34,-806.72 754.81,-805.13 745.63,-799.84 744.34,-806.72"/>
</g>
<!-- Node45 -->
<g id="node19" class="node">
<title>Node45</title>
<g id="a_node19"><a xlink:href="class_c_pub_key.html#a6bb28fcf0a5f799c69f5b7269363b309" target="_top" xlink:title="Simple read&#45;only vector&#45;like interface to the pubkey data.">
<polygon fill="white" stroke="black" points="541,-0.5 541,-19.5 625,-19.5 625,-0.5 541,-0.5"/>
<text text-anchor="middle" x="583" y="-7.5" font-family="Helvetica,sans-Serif" font-size="10.00">CPubKey::size</text>
</a>
</g>
</g>
<!-- Node44&#45;&gt;Node45 -->
<g id="edge23" class="edge">
<title>Node44&#45;&gt;Node45</title>
<path fill="none" stroke="midnightblue" d="M219.06,-139.3C231.74,-116.11 267.41,-57.55 316,-33 384.16,1.44 474.75,1.08 530.68,-3.56"/>
<polygon fill="midnightblue" stroke="midnightblue" points="530.43,-7.05 540.71,-4.46 531.06,-0.08 530.43,-7.05"/>
</g>
<!-- Node46 -->
<g id="node20" class="node">
<title>Node46</title>
<g id="a_node20"><a xlink:href="class_c_pub_key.html#a7dc71b3f037c84268dc22de97d7b65fb" target="_top" xlink:title="Compute the length of a pubkey with a given first byte.">
<polygon fill="white" stroke="black" points="737.5,-0.5 737.5,-19.5 836.5,-19.5 836.5,-0.5 737.5,-0.5"/>
<text text-anchor="middle" x="787" y="-7.5" font-family="Helvetica,sans-Serif" font-size="10.00">CPubKey::GetLen</text>
</a>
</g>
</g>
<!-- Node45&#45;&gt;Node46 -->
<g id="edge24" class="edge">
<title>Node45&#45;&gt;Node46</title>
<path fill="none" stroke="midnightblue" d="M625.37,-10C654.63,-10 694.31,-10 726.9,-10"/>
<polygon fill="midnightblue" stroke="midnightblue" points="727.22,-13.5 737.22,-10 727.22,-6.5 727.22,-13.5"/>
</g>
<!-- Node48 -->
<g id="node22" class="node">
<title>Node48</title>
<g id="a_node22"><a xlink:href="span_8h.html#ae0ff71ebba0ddb89220884bee4dec029" target="_top" xlink:title="MakeSpan for arrays:">
<polygon fill="white" stroke="black" points="359.5,-725.5 359.5,-744.5 426.5,-744.5 426.5,-725.5 359.5,-725.5"/>
<text text-anchor="middle" x="393" y="-732.5" font-family="Helvetica,sans-Serif" font-size="10.00">MakeSpan</text>
</a>
</g>
</g>
<!-- Node47&#45;&gt;Node48 -->
<g id="edge26" class="edge">
<title>Node47&#45;&gt;Node48</title>
<path fill="none" stroke="midnightblue" d="M261.7,-721.09C288.97,-724 322.9,-727.62 349.29,-730.44"/>
<polygon fill="midnightblue" stroke="midnightblue" points="349.06,-733.94 359.37,-731.52 349.8,-726.98 349.06,-733.94"/>
</g>
<!-- Node49 -->
<g id="node23" class="node">
<title>Node49</title>
<g id="a_node23"><a xlink:href="span_8h.html#ad104eb5c93a4f2f8b298630a2be84bb7" target="_top" xlink:title=" ">
<polygon fill="white" stroke="black" points="347,-687.5 347,-706.5 439,-706.5 439,-687.5 347,-687.5"/>
<text text-anchor="middle" x="393" y="-694.5" font-family="Helvetica,sans-Serif" font-size="10.00">UCharSpanCast</text>
</a>
</g>
</g>
<!-- Node47&#45;&gt;Node49 -->
<g id="edge27" class="edge">
<title>Node47&#45;&gt;Node49</title>
<path fill="none" stroke="midnightblue" d="M261.7,-710.91C284.86,-708.44 312.81,-705.45 336.88,-702.88"/>
<polygon fill="midnightblue" stroke="midnightblue" points="337.35,-706.35 346.93,-701.81 336.61,-699.39 337.35,-706.35"/>
</g>
<!-- Node50 -->
<g id="node24" class="node">
<title>Node50</title>
<g id="a_node24"><a xlink:href="span_8h.html#ad150fa0b59e38198809cfce8d0d5d11d" target="_top" xlink:title=" ">
<polygon fill="white" stroke="black" points="549,-687.5 549,-706.5 617,-706.5 617,-687.5 549,-687.5"/>
<text text-anchor="middle" x="583" y="-694.5" font-family="Helvetica,sans-Serif" font-size="10.00">UCharCast</text>
</a>
</g>
</g>
<!-- Node49&#45;&gt;Node50 -->
<g id="edge28" class="edge">
<title>Node49&#45;&gt;Node50</title>
<path fill="none" stroke="midnightblue" d="M439.03,-697C469.25,-697 508.84,-697 538.7,-697"/>
<polygon fill="midnightblue" stroke="midnightblue" points="538.82,-700.5 548.82,-697 538.82,-693.5 538.82,-700.5"/>
</g>
<!-- Node51&#45;&gt;Node3 -->
<g id="edge30" class="edge">
<title>Node51&#45;&gt;Node3</title>
<path fill="none" stroke="midnightblue" d="M221.54,-554.79C237.04,-574.18 274.5,-617.55 316,-640 378.01,-673.54 409.07,-642.53 470,-678 490.11,-689.7 485.91,-704.27 506,-716 519.1,-723.65 535.22,-728.24 549.23,-730.99"/>
<polygon fill="midnightblue" stroke="midnightblue" points="549.01,-734.5 559.46,-732.75 550.19,-727.6 549.01,-734.5"/>
</g>
<!-- Node52 -->
<g id="node26" class="node">
<title>Node52</title>
<g id="a_node26"><a xlink:href="classbase__blob.html#a6b3e01650a0101a43957dd813a441437" target="_top" xlink:title=" ">
<polygon fill="white" stroke="black" points="343.5,-371.5 343.5,-390.5 442.5,-390.5 442.5,-371.5 343.5,-371.5"/>
<text text-anchor="middle" x="393" y="-378.5" font-family="Helvetica,sans-Serif" font-size="10.00">base_blob::begin</text>
</a>
</g>
</g>
<!-- Node51&#45;&gt;Node52 -->
<g id="edge31" class="edge">
<title>Node51&#45;&gt;Node52</title>
<path fill="none" stroke="midnightblue" d="M217.85,-535.44C228.87,-509.31 263.21,-436.22 316,-400 321.3,-396.36 327.23,-393.42 333.38,-391.04"/>
<polygon fill="midnightblue" stroke="midnightblue" points="334.81,-394.26 343.17,-387.75 332.57,-387.62 334.81,-394.26"/>
</g>
<!-- Node53 -->
<g id="node27" class="node">
<title>Node53</title>
<g id="a_node27"><a xlink:href="class_c_key.html#a0bd3b7bace202d624322c6744228517a" target="_top" xlink:title=" ">
<polygon fill="white" stroke="black" points="356,-611.5 356,-630.5 430,-630.5 430,-611.5 356,-611.5"/>
<text text-anchor="middle" x="393" y="-618.5" font-family="Helvetica,sans-Serif" font-size="10.00">CKey::begin</text>
</a>
</g>
</g>
<!-- Node51&#45;&gt;Node53 -->
<g id="edge32" class="edge">
<title>Node51&#45;&gt;Node53</title>
<path fill="none" stroke="midnightblue" d="M228.26,-554.58C247.45,-567.09 283,-588.92 316,-602 325.48,-605.76 335.93,-608.94 345.97,-611.57"/>
<polygon fill="midnightblue" stroke="midnightblue" points="345.27,-615 355.82,-614.01 346.95,-608.21 345.27,-615"/>
</g>
<!-- Node54 -->
<g id="node28" class="node">
<title>Node54</title>
<g id="a_node28"><a xlink:href="secp256k1_8c.html#af5ff5bb2cad5c58e90c653092648c63a" target="_top" xlink:title="Create an ECDSA signature.">
<polygon fill="white" stroke="black" points="329,-409.5 329,-428.5 457,-428.5 457,-409.5 329,-409.5"/>
<text text-anchor="middle" x="393" y="-416.5" font-family="Helvetica,sans-Serif" font-size="10.00">secp256k1_ecdsa_sign</text>
</a>
</g>
</g>
<!-- Node51&#45;&gt;Node54 -->
<g id="edge33" class="edge">
<title>Node51&#45;&gt;Node54</title>
<path fill="none" stroke="midnightblue" d="M220.4,-535.4C234.85,-514.51 272.17,-464.74 316,-439 320.52,-436.35 325.39,-434.04 330.41,-432.04"/>
<polygon fill="midnightblue" stroke="midnightblue" points="331.94,-435.2 340.18,-428.54 329.59,-428.61 331.94,-435.2"/>
</g>
<!-- Node66 -->
<g id="node32" class="node">
<title>Node66</title>
<g id="a_node32"><a xlink:href="secp256k1_8c.html#a3f1fbd9cfe9bd6b6303bdd8f6c0687ba" target="_top" xlink:title="Serialize an ECDSA signature in DER format.">
<polygon fill="white" stroke="black" points="316,-448 316,-478 470,-478 470,-448 316,-448"/>
<text text-anchor="start" x="324" y="-466" font-family="Helvetica,sans-Serif" font-size="10.00">secp256k1_ecdsa_signature</text>
<text text-anchor="middle" x="393" y="-455" font-family="Helvetica,sans-Serif" font-size="10.00">_serialize_der</text>
</a>
</g>
</g>
<!-- Node51&#45;&gt;Node66 -->
<g id="edge37" class="edge">
<title>Node51&#45;&gt;Node66</title>
<path fill="none" stroke="midnightblue" d="M229.08,-535.36C248.58,-523.18 283.87,-502.11 316,-488 321.09,-485.77 326.44,-483.62 331.85,-481.59"/>
<polygon fill="midnightblue" stroke="midnightblue" points="333.4,-484.75 341.61,-478.06 331.02,-478.17 333.4,-484.75"/>
</g>
<!-- Node69 -->
<g id="node35" class="node">
<title>Node69</title>
<g id="a_node35"><a xlink:href="key_8cpp.html#ac9ec599027c6b68a87ebd788be2a611c" target="_top" xlink:title=" ">
<polygon fill="white" stroke="black" points="354.5,-497.5 354.5,-516.5 431.5,-516.5 431.5,-497.5 354.5,-497.5"/>
<text text-anchor="middle" x="393" y="-504.5" font-family="Helvetica,sans-Serif" font-size="10.00">SigHasLowR</text>
</a>
</g>
</g>
<!-- Node51&#45;&gt;Node69 -->
<g id="edge40" class="edge">
<title>Node51&#45;&gt;Node69</title>
<path fill="none" stroke="midnightblue" d="M247.06,-537.94C274.43,-532.1 313.67,-523.72 344.42,-517.16"/>
<polygon fill="midnightblue" stroke="midnightblue" points="345.44,-520.52 354.49,-515.01 343.98,-513.67 345.44,-520.52"/>
</g>
<!-- Node71 -->
<g id="node37" class="node">
<title>Node71</title>
<g id="a_node37"><a xlink:href="crypto_2common_8h.html#ab23d5d245f265908700af234252b751f" target="_top" xlink:title=" ">
<polygon fill="white" stroke="black" points="360,-573.5 360,-592.5 426,-592.5 426,-573.5 360,-573.5"/>
<text text-anchor="middle" x="393" y="-580.5" font-family="Helvetica,sans-Serif" font-size="10.00">WriteLE32</text>
</a>
</g>
</g>
<!-- Node51&#45;&gt;Node71 -->
<g id="edge43" class="edge">
<title>Node51&#45;&gt;Node71</title>
<path fill="none" stroke="midnightblue" d="M247.06,-552.06C276.09,-558.26 318.48,-567.3 349.92,-574.02"/>
<polygon fill="midnightblue" stroke="midnightblue" points="349.2,-577.44 359.71,-576.11 350.67,-570.6 349.2,-577.44"/>
</g>
<!-- Node55 -->
<g id="node29" class="node">
<title>Node55</title>
<g id="a_node29"><a xlink:href="secp256k1_8c.html#afe2f8280c1abb92f6201db4c46e8e7ad" target="_top" xlink:title=" ">
<polygon fill="white" stroke="red" points="519,-440 519,-470 647,-470 647,-440 519,-440"/>
<text text-anchor="start" x="527" y="-458" font-family="Helvetica,sans-Serif" font-size="10.00">secp256k1_ecdsa_sign</text>
<text text-anchor="middle" x="583" y="-447" font-family="Helvetica,sans-Serif" font-size="10.00">_inner</text>
</a>
</g>
</g>
<!-- Node54&#45;&gt;Node55 -->
<g id="edge34" class="edge">
<title>Node54&#45;&gt;Node55</title>
<path fill="none" stroke="midnightblue" d="M443.89,-428.55C463.79,-432.36 487.11,-436.83 508.86,-440.99"/>
<polygon fill="midnightblue" stroke="midnightblue" points="508.24,-444.44 518.72,-442.88 509.56,-437.56 508.24,-444.44"/>
</g>
<!-- Node63 -->
<g id="node30" class="node">
<title>Node63</title>
<g id="a_node30"><a xlink:href="secp256k1_8c.html#a94e522f94c4819bebf8e854952eb6a8f" target="_top" xlink:title=" ">
<polygon fill="white" stroke="red" points="696,-264.5 696,-283.5 878,-283.5 878,-264.5 696,-264.5"/>
<text text-anchor="middle" x="787" y="-271.5" font-family="Helvetica,sans-Serif" font-size="10.00">secp256k1_ecdsa_signature_save</text>
</a>
</g>
</g>
<!-- Node54&#45;&gt;Node63 -->
<g id="edge35" class="edge">
<title>Node54&#45;&gt;Node63</title>
<path fill="none" stroke="midnightblue" d="M455.73,-409.48C460.93,-406.98 465.8,-403.87 470,-400 506.6,-366.3 466.61,-324.4 506,-294 533.49,-272.78 617.12,-268.99 685.89,-269.8"/>
<polygon fill="midnightblue" stroke="midnightblue" points="685.86,-273.3 695.91,-269.95 685.97,-266.3 685.86,-273.3"/>
</g>
<!-- Node65 -->
<g id="node31" class="node">
<title>Node65</title>
<g id="a_node31"><a xlink:href="ecmult__gen_8h.html#a9a40662d6ed2cbab43dbddc25f570f97" target="_top" xlink:title=" ">
<polygon fill="white" stroke="black" points="517.5,-391 517.5,-421 648.5,-421 648.5,-391 517.5,-391"/>
<text text-anchor="start" x="525.5" y="-409" font-family="Helvetica,sans-Serif" font-size="10.00">secp256k1_ecmult_gen</text>
<text text-anchor="middle" x="583" y="-398" font-family="Helvetica,sans-Serif" font-size="10.00">_context_is_built</text>
</a>
</g>
</g>
<!-- Node54&#45;&gt;Node65 -->
<g id="edge36" class="edge">
<title>Node54&#45;&gt;Node65</title>
<path fill="none" stroke="midnightblue" d="M457.12,-414.64C473.2,-413.52 490.63,-412.32 507.23,-411.17"/>
<polygon fill="midnightblue" stroke="midnightblue" points="507.7,-414.65 517.44,-410.46 507.22,-407.66 507.7,-414.65"/>
</g>
<!-- Node67 -->
<g id="node33" class="node">
<title>Node67</title>
<g id="a_node33"><a xlink:href="ecdsa_8h.html#a313b6733f5b079162fa15332d4b2ef36" target="_top" xlink:title=" ">
<polygon fill="white" stroke="black" points="522,-528 522,-558 644,-558 644,-528 522,-528"/>
<text text-anchor="start" x="530" y="-546" font-family="Helvetica,sans-Serif" font-size="10.00">secp256k1_ecdsa_sig</text>
<text text-anchor="middle" x="583" y="-535" font-family="Helvetica,sans-Serif" font-size="10.00">_serialize</text>
</a>
</g>
</g>
<!-- Node66&#45;&gt;Node67 -->
<g id="edge38" class="edge">
<title>Node66&#45;&gt;Node67</title>
<path fill="none" stroke="midnightblue" d="M446.72,-478.13C454.67,-481.05 462.67,-484.34 470,-488 487.43,-496.69 488.83,-503.81 506,-513 513.37,-516.95 521.38,-520.66 529.33,-524.05"/>
<polygon fill="midnightblue" stroke="midnightblue" points="528.03,-527.3 538.61,-527.87 530.69,-520.83 528.03,-527.3"/>
</g>
<!-- Node68 -->
<g id="node34" class="node">
<title>Node68</title>
<g id="a_node34"><a xlink:href="secp256k1_8c.html#af2027241c9dfc85fa5b6a3bb5fe41d18" target="_top" xlink:title=" ">
<polygon fill="white" stroke="red" points="697,-420.5 697,-439.5 877,-439.5 877,-420.5 697,-420.5"/>
<text text-anchor="middle" x="787" y="-427.5" font-family="Helvetica,sans-Serif" font-size="10.00">secp256k1_ecdsa_signature_load</text>
</a>
</g>
</g>
<!-- Node66&#45;&gt;Node68 -->
<g id="edge39" class="edge">
<title>Node66&#45;&gt;Node68</title>
<path fill="none" stroke="midnightblue" d="M470.02,-477.93C523.57,-486.01 596.71,-492.1 660,-480 695.71,-473.17 734.21,-456.38 759.12,-444.13"/>
<polygon fill="midnightblue" stroke="midnightblue" points="760.92,-447.14 768.29,-439.53 757.78,-440.89 760.92,-447.14"/>
</g>
<!-- Node70 -->
<g id="node36" class="node">
<title>Node70</title>
<g id="a_node36"><a xlink:href="secp256k1_8c.html#ac369bdcc5f8d5ced129e84895bf739db" target="_top" xlink:title="Serialize an ECDSA signature in compact (64 byte) format.">
<polygon fill="white" stroke="red" points="506,-577 506,-607 660,-607 660,-577 506,-577"/>
<text text-anchor="start" x="514" y="-595" font-family="Helvetica,sans-Serif" font-size="10.00">secp256k1_ecdsa_signature</text>
<text text-anchor="middle" x="583" y="-584" font-family="Helvetica,sans-Serif" font-size="10.00">_serialize_compact</text>
</a>
</g>
</g>
<!-- Node69&#45;&gt;Node70 -->
<g id="edge41" class="edge">
<title>Node69&#45;&gt;Node70</title>
<path fill="none" stroke="midnightblue" d="M431.54,-514.9C444.33,-518.59 458.34,-523.81 470,-531 489.53,-543.04 486.47,-555.96 506,-568 508.77,-569.71 511.67,-571.3 514.65,-572.79"/>
<polygon fill="midnightblue" stroke="midnightblue" points="513.26,-576 523.81,-576.95 516.16,-569.63 513.26,-576"/>
</g>
<!-- Node70&#45;&gt;Node68 -->
<g id="edge42" class="edge">
<title>Node70&#45;&gt;Node68</title>
<path fill="none" stroke="midnightblue" d="M642.69,-576.96C648.75,-574.4 654.64,-571.43 660,-568 710.82,-535.54 754.27,-477.46 774.26,-448.08"/>
<polygon fill="midnightblue" stroke="midnightblue" points="777.27,-449.88 779.9,-439.62 771.44,-446 777.27,-449.88"/>
</g>
<!-- Node72 -->
<g id="node38" class="node">
<title>Node72</title>
<g id="a_node38"><a xlink:href="endian_8h.html#abab10181b2a9a38233ca246e1a653b5e" target="_top" xlink:title=" ">
<polygon fill="white" stroke="black" points="556.5,-626.5 556.5,-645.5 609.5,-645.5 609.5,-626.5 556.5,-626.5"/>
<text text-anchor="middle" x="583" y="-633.5" font-family="Helvetica,sans-Serif" font-size="10.00">htole32</text>
</a>
</g>
</g>
<!-- Node71&#45;&gt;Node72 -->
<g id="edge44" class="edge">
<title>Node71&#45;&gt;Node72</title>
<path fill="none" stroke="midnightblue" d="M426.11,-589.9C439.77,-593.13 455.8,-597.3 470,-602 486.45,-607.45 489.55,-611.55 506,-617 519.04,-621.32 533.62,-625.19 546.5,-628.29"/>
<polygon fill="midnightblue" stroke="midnightblue" points="545.86,-631.73 556.39,-630.61 547.45,-624.92 545.86,-631.73"/>
</g>
<!-- Node73&#45;&gt;Node3 -->
<g id="edge46" class="edge">
<title>Node73&#45;&gt;Node3</title>
<path fill="none" stroke="midnightblue" d="M215.46,-314.76C221.17,-349.42 245.29,-467.62 316,-526 370.36,-570.88 420.38,-513.92 470,-564 518.86,-613.32 457.22,-666.61 506,-716 517.26,-727.4 534.25,-732.33 549.32,-734.33"/>
<polygon fill="midnightblue" stroke="midnightblue" points="549.05,-737.82 559.34,-735.3 549.72,-730.86 549.05,-737.82"/>
</g>
<!-- Node73&#45;&gt;Node45 -->
<g id="edge63" class="edge">
<title>Node73&#45;&gt;Node45</title>
<path fill="none" stroke="midnightblue" d="M218.52,-295.39C236.08,-258.19 299.69,-124.98 316,-112 371.41,-67.88 410.03,-108.69 470,-71 490.81,-57.92 485.09,-41.93 506,-29 513.57,-24.32 522.22,-20.8 530.92,-18.14"/>
<polygon fill="midnightblue" stroke="midnightblue" points="531.97,-21.48 540.71,-15.49 530.14,-14.72 531.97,-21.48"/>
</g>
<!-- Node73&#45;&gt;Node52 -->
<g id="edge47" class="edge">
<title>Node73&#45;&gt;Node52</title>
<path fill="none" stroke="midnightblue" d="M228.26,-314.58C247.45,-327.09 283,-348.92 316,-362 322.29,-364.49 329,-366.73 335.73,-368.72"/>
<polygon fill="midnightblue" stroke="midnightblue" points="334.99,-372.15 345.57,-371.47 336.87,-365.41 334.99,-372.15"/>
</g>
<!-- Node74 -->
<g id="node40" class="node">
<title>Node74</title>
<g id="a_node40"><a xlink:href="pubkey_8cpp.html#aebc754e4d7457c16a922ea14977974a4" target="_top" xlink:title="This function is taken from the libsecp256k1 distribution and implements DER parsing for ECDSA signat...">
<polygon fill="white" stroke="black" points="329,-122 329,-152 457,-152 457,-122 329,-122"/>
<text text-anchor="start" x="337" y="-140" font-family="Helvetica,sans-Serif" font-size="10.00">ecdsa_signature_parse</text>
<text text-anchor="middle" x="393" y="-129" font-family="Helvetica,sans-Serif" font-size="10.00">_der_lax</text>
</a>
</g>
</g>
<!-- Node73&#45;&gt;Node74 -->
<g id="edge48" class="edge">
<title>Node73&#45;&gt;Node74</title>
<path fill="none" stroke="midnightblue" d="M218.15,-295.3C229.7,-269.46 264.76,-198.37 316,-161 318.05,-159.5 320.2,-158.09 322.43,-156.77"/>
<polygon fill="midnightblue" stroke="midnightblue" points="324.09,-159.85 331.31,-152.09 320.83,-153.66 324.09,-159.85"/>
</g>
<!-- Node76 -->
<g id="node42" class="node">
<title>Node76</title>
<g id="a_node42"><a xlink:href="class_c_pub_key.html#a4fa94293cf8577fd039b9a133f6c7f30" target="_top" xlink:title=" ">
<polygon fill="white" stroke="black" points="344.5,-42.5 344.5,-61.5 441.5,-61.5 441.5,-42.5 344.5,-42.5"/>
<text text-anchor="middle" x="393" y="-49.5" font-family="Helvetica,sans-Serif" font-size="10.00">CPubKey::IsValid</text>
</a>
</g>
</g>
<!-- Node73&#45;&gt;Node76 -->
<g id="edge51" class="edge">
<title>Node73&#45;&gt;Node76</title>
<path fill="none" stroke="midnightblue" d="M218.87,-295.47C230.13,-273.33 258.62,-216.57 280,-168 297.36,-128.57 284.77,-107.68 316,-78 321.42,-72.85 327.91,-68.71 334.77,-65.4"/>
<polygon fill="midnightblue" stroke="midnightblue" points="336.46,-68.48 344.3,-61.36 333.73,-62.04 336.46,-68.48"/>
</g>
<!-- Node77 -->
<g id="node43" class="node">
<title>Node77</title>
<g id="a_node43"><a xlink:href="secp256k1_8c.html#a4a359778a7faf65fba9d34db17642d20" target="_top" xlink:title="Parse a variable&#45;length public key into the pubkey object.">
<polygon fill="white" stroke="black" points="330,-171 330,-201 456,-201 456,-171 330,-171"/>
<text text-anchor="start" x="338" y="-189" font-family="Helvetica,sans-Serif" font-size="10.00">secp256k1_ec_pubkey</text>
<text text-anchor="middle" x="393" y="-178" font-family="Helvetica,sans-Serif" font-size="10.00">_parse</text>
</a>
</g>
</g>
<!-- Node73&#45;&gt;Node77 -->
<g id="edge53" class="edge">
<title>Node73&#45;&gt;Node77</title>
<path fill="none" stroke="midnightblue" d="M228.27,-295.46C256.95,-276.29 322.19,-232.67 361.1,-206.66"/>
<polygon fill="midnightblue" stroke="midnightblue" points="363.08,-209.54 369.45,-201.07 359.19,-203.72 363.08,-209.54"/>
</g>
<!-- Node86 -->
<g id="node48" class="node">
<title>Node86</title>
<g id="a_node48"><a xlink:href="secp256k1_8c.html#a6ebd89d119f3da65e165947573ebd3ce" target="_top" xlink:title="Convert a signature to a normalized lower&#45;S form.">
<polygon fill="white" stroke="red" points="506,-303 506,-333 660,-333 660,-303 506,-303"/>
<text text-anchor="start" x="514" y="-321" font-family="Helvetica,sans-Serif" font-size="10.00">secp256k1_ecdsa_signature</text>
<text text-anchor="middle" x="583" y="-310" font-family="Helvetica,sans-Serif" font-size="10.00">_normalize</text>
</a>
</g>
</g>
<!-- Node73&#45;&gt;Node86 -->
<g id="edge58" class="edge">
<title>Node73&#45;&gt;Node86</title>
<path fill="none" stroke="midnightblue" d="M259.12,-306.59C317.78,-308.67 421.46,-312.33 495.51,-314.94"/>
<polygon fill="midnightblue" stroke="midnightblue" points="495.63,-318.45 505.75,-315.31 495.88,-311.46 495.63,-318.45"/>
</g>
<!-- Node89 -->
<g id="node49" class="node">
<title>Node89</title>
<g id="a_node49"><a xlink:href="secp256k1_8c.html#abd11af3da8d88984e87ec8f06fb0087a" target="_top" xlink:title="Verify an ECDSA signature.">
<polygon fill="white" stroke="red" points="325,-333.5 325,-352.5 461,-352.5 461,-333.5 325,-333.5"/>
<text text-anchor="middle" x="393" y="-340.5" font-family="Helvetica,sans-Serif" font-size="10.00">secp256k1_ecdsa_verify</text>
</a>
</g>
</g>
<!-- Node73&#45;&gt;Node89 -->
<g id="edge61" class="edge">
<title>Node73&#45;&gt;Node89</title>
<path fill="none" stroke="midnightblue" d="M258.92,-314.59C282.83,-319.69 312.42,-326.01 337.62,-331.39"/>
<polygon fill="midnightblue" stroke="midnightblue" points="336.9,-334.81 347.41,-333.48 338.36,-327.97 336.9,-334.81"/>
</g>
<!-- Node75 -->
<g id="node41" class="node">
<title>Node75</title>
<g id="a_node41"><a xlink:href="secp256k1_8c.html#a933083356e7171e174bc958b8233f758" target="_top" xlink:title="Parse an ECDSA signature in compact (64 bytes) format.">
<polygon fill="white" stroke="red" points="506,-39 506,-69 660,-69 660,-39 506,-39"/>
<text text-anchor="start" x="514" y="-57" font-family="Helvetica,sans-Serif" font-size="10.00">secp256k1_ecdsa_signature</text>
<text text-anchor="middle" x="583" y="-46" font-family="Helvetica,sans-Serif" font-size="10.00">_parse_compact</text>
</a>
</g>
</g>
<!-- Node74&#45;&gt;Node75 -->
<g id="edge49" class="edge">
<title>Node74&#45;&gt;Node75</title>
<path fill="none" stroke="midnightblue" d="M436.32,-121.97C447.54,-117.39 459.46,-111.97 470,-106 487.4,-96.14 488.27,-88.25 506,-79 510.24,-76.79 514.72,-74.72 519.29,-72.79"/>
<polygon fill="midnightblue" stroke="midnightblue" points="520.75,-75.98 528.76,-69.05 518.17,-69.47 520.75,-75.98"/>
</g>
<!-- Node75&#45;&gt;Node63 -->
<g id="edge50" class="edge">
<title>Node75&#45;&gt;Node63</title>
<path fill="none" stroke="midnightblue" d="M643.7,-69.17C649.5,-71.93 655.05,-75.18 660,-79 722.41,-127.18 763.01,-215.58 778.69,-254.61"/>
<polygon fill="midnightblue" stroke="midnightblue" points="775.55,-256.19 782.45,-264.23 782.07,-253.64 775.55,-256.19"/>
</g>
<!-- Node76&#45;&gt;Node45 -->
<g id="edge52" class="edge">
<title>Node76&#45;&gt;Node45</title>
<path fill="none" stroke="midnightblue" d="M436.66,-42.47C464.57,-36.23 501.19,-28.05 530.69,-21.46"/>
<polygon fill="midnightblue" stroke="midnightblue" points="531.8,-24.8 540.8,-19.2 530.28,-17.97 531.8,-24.8"/>
</g>
<!-- Node78 -->
<g id="node44" class="node">
<title>Node78</title>
<g id="a_node44"><a xlink:href="eckey_8h.html#ae0cdb1eef2dc770d70aac0ad50a35e9a" target="_top" xlink:title=" ">
<polygon fill="white" stroke="black" points="511.5,-215 511.5,-245 654.5,-245 654.5,-215 511.5,-215"/>
<text text-anchor="start" x="519.5" y="-233" font-family="Helvetica,sans-Serif" font-size="10.00">secp256k1_eckey_pubkey</text>
<text text-anchor="middle" x="583" y="-222" font-family="Helvetica,sans-Serif" font-size="10.00">_parse</text>
</a>
</g>
</g>
<!-- Node77&#45;&gt;Node78 -->
<g id="edge54" class="edge">
<title>Node77&#45;&gt;Node78</title>
<path fill="none" stroke="midnightblue" d="M456.08,-200.53C472.62,-204.4 490.66,-208.62 507.78,-212.63"/>
<polygon fill="midnightblue" stroke="midnightblue" points="507.2,-216.09 517.73,-214.96 508.79,-209.27 507.2,-216.09"/>
</g>
<!-- Node79 -->
<g id="node45" class="node">
<title>Node79</title>
<g id="a_node45"><a xlink:href="group_8h.html#a34793cf48794f089bb28597d1a9f23b2" target="_top" xlink:title="Clear a secp256k1_ge to prevent leaking sensitive information.">
<polygon fill="white" stroke="black" points="525,-176.5 525,-195.5 641,-195.5 641,-176.5 525,-176.5"/>
<text text-anchor="middle" x="583" y="-183.5" font-family="Helvetica,sans-Serif" font-size="10.00">secp256k1_ge_clear</text>
</a>
</g>
</g>
<!-- Node77&#45;&gt;Node79 -->
<g id="edge55" class="edge">
<title>Node77&#45;&gt;Node79</title>
<path fill="none" stroke="midnightblue" d="M456.08,-186C474.85,-186 495.54,-186 514.63,-186"/>
<polygon fill="midnightblue" stroke="midnightblue" points="514.75,-189.5 524.75,-186 514.75,-182.5 514.75,-189.5"/>
</g>
<!-- Node80 -->
<g id="node46" class="node">
<title>Node80</title>
<g id="a_node46"><a xlink:href="group_8h.html#aae7c46ab2f0383e473c4a93f8fe8cdee" target="_top" xlink:title="Determine if a point (which is assumed to be on the curve) is in the correct (sub)group of the curve.">
<polygon fill="white" stroke="black" points="526,-127 526,-157 640,-157 640,-127 526,-127"/>
<text text-anchor="start" x="534" y="-145" font-family="Helvetica,sans-Serif" font-size="10.00">secp256k1_ge_is_in</text>
<text text-anchor="middle" x="583" y="-134" font-family="Helvetica,sans-Serif" font-size="10.00">_correct_subgroup</text>
</a>
</g>
</g>
<!-- Node77&#45;&gt;Node80 -->
<g id="edge56" class="edge">
<title>Node77&#45;&gt;Node80</title>
<path fill="none" stroke="midnightblue" d="M456.08,-171.47C475.21,-166.99 496.33,-162.05 515.73,-157.51"/>
<polygon fill="midnightblue" stroke="midnightblue" points="516.76,-160.86 525.7,-155.18 515.16,-154.05 516.76,-160.86"/>
</g>
<!-- Node81 -->
<g id="node47" class="node">
<title>Node81</title>
<g id="a_node47"><a xlink:href="secp256k1_8c.html#aa061c9c5c861017bef990e5c4653e0f4" target="_top" xlink:title=" ">
<polygon fill="white" stroke="red" points="514,-88.5 514,-107.5 652,-107.5 652,-88.5 514,-88.5"/>
<text text-anchor="middle" x="583" y="-95.5" font-family="Helvetica,sans-Serif" font-size="10.00">secp256k1_pubkey_save</text>
</a>
</g>
</g>
<!-- Node77&#45;&gt;Node81 -->
<g id="edge57" class="edge">
<title>Node77&#45;&gt;Node81</title>
<path fill="none" stroke="midnightblue" d="M451.71,-170.95C458.14,-168.14 464.39,-164.85 470,-161 490.83,-146.7 484.66,-130.53 506,-117 509.33,-114.89 512.88,-113.01 516.56,-111.35"/>
<polygon fill="midnightblue" stroke="midnightblue" points="517.92,-114.57 525.91,-107.61 515.32,-108.07 517.92,-114.57"/>
</g>
<!-- Node86&#45;&gt;Node63 -->
<g id="edge60" class="edge">
<title>Node86&#45;&gt;Node63</title>
<path fill="none" stroke="midnightblue" d="M652.95,-302.98C678.97,-297.31 708.15,-290.96 732.54,-285.64"/>
<polygon fill="midnightblue" stroke="midnightblue" points="733.3,-289.06 742.33,-283.51 731.81,-282.22 733.3,-289.06"/>
</g>
<!-- Node86&#45;&gt;Node68 -->
<g id="edge59" class="edge">
<title>Node86&#45;&gt;Node68</title>
<path fill="none" stroke="midnightblue" d="M626.48,-333.03C637.59,-337.43 649.41,-342.54 660,-348 698.83,-368.04 740.77,-396.95 765.14,-414.54"/>
<polygon fill="midnightblue" stroke="midnightblue" points="763.14,-417.42 773.28,-420.48 767.26,-411.76 763.14,-417.42"/>
</g>
<!-- Node89&#45;&gt;Node68 -->
<g id="edge62" class="edge">
<title>Node89&#45;&gt;Node68</title>
<path fill="none" stroke="midnightblue" d="M461.22,-348.76C515.49,-354.38 593.49,-364.68 660,-382 693.6,-390.75 730.56,-405.47 755.71,-416.31"/>
<polygon fill="midnightblue" stroke="midnightblue" points="754.5,-419.6 765.06,-420.4 757.3,-413.19 754.5,-419.6"/>
</g>
<!-- Node97&#45;&gt;Node4 -->
<g id="edge65" class="edge">
<title>Node97&#45;&gt;Node4</title>
<path fill="none" stroke="midnightblue" d="M237.24,-877.51C257.75,-885.69 288.57,-897.49 316,-906 326.64,-909.3 338.26,-912.44 349.13,-915.17"/>
<polygon fill="midnightblue" stroke="midnightblue" points="348.31,-918.57 358.86,-917.56 349.98,-911.78 348.31,-918.57"/>
</g>
<!-- Node97&#45;&gt;Node6 -->
<g id="edge67" class="edge">
<title>Node97&#45;&gt;Node6</title>
<path fill="none" stroke="midnightblue" d="M258.82,-858.48C311.38,-849.44 400.21,-840.85 470,-868 490.23,-875.87 489.58,-886.8 506,-901 524.58,-917.07 546.36,-934.72 561.83,-947.07"/>
<polygon fill="midnightblue" stroke="midnightblue" points="559.71,-949.85 569.71,-953.33 564.06,-944.37 559.71,-949.85"/>
</g>
<!-- Node97&#45;&gt;Node15 -->
<g id="edge66" class="edge">
<title>Node97&#45;&gt;Node15</title>
<path fill="none" stroke="midnightblue" d="M262.17,-873.14C289.53,-876.06 323.46,-879.68 349.77,-882.49"/>
<polygon fill="midnightblue" stroke="midnightblue" points="349.5,-885.98 359.81,-883.56 350.24,-879.02 349.5,-885.98"/>
</g>
</g>
</svg>
