<?xml version="1.0" encoding="UTF-8" standalone="no"?>
<!DOCTYPE svg PUBLIC "-//W3C//DTD SVG 1.1//EN"
 "http://www.w3.org/Graphics/SVG/1.1/DTD/svg11.dtd">
<!-- Generated by graphviz version 2.38.0 (20140413.2041)
 -->
<!-- Title: UnitDisplayStatusBarControl::updateDisplayUnit Pages: 1 -->
<svg width="1114pt" height="88pt"
 viewBox="0.00 0.00 1114.00 88.00" xmlns="http://www.w3.org/2000/svg" xmlns:xlink="http://www.w3.org/1999/xlink">
<g id="graph0" class="graph" transform="scale(1 1) rotate(0) translate(4 84)">
<title>UnitDisplayStatusBarControl::updateDisplayUnit</title>
<polygon fill="white" stroke="none" points="-4,4 -4,-84 1110,-84 1110,4 -4,4"/>
<!-- Node1 -->
<g id="node1" class="node"><title>Node1</title>
<polygon fill="#bfbfbf" stroke="black" points="0,-27.5 0,-57.5 153,-57.5 153,-27.5 0,-27.5"/>
<text text-anchor="start" x="8" y="-45.5" font-family="Helvetica,sans-Serif" font-size="10.00">UnitDisplayStatusBarControl</text>
<text text-anchor="middle" x="76.5" y="-34.5" font-family="Helvetica,sans-Serif" font-size="10.00">::updateDisplayUnit</text>
</g>
<!-- Node2 -->
<g id="node2" class="node"><title>Node2</title>
<g id="a_node2"><a xlink:href="class_unit_display_status_bar_control.html#ac8d2a43f66f3f71c7d6926dbd5927066" target="_top" xlink:title="Lets the control know about the Options Model (and its signals) ">
<polygon fill="white" stroke="black" points="189,-27.5 189,-57.5 342,-57.5 342,-27.5 189,-27.5"/>
<text text-anchor="start" x="197" y="-45.5" font-family="Helvetica,sans-Serif" font-size="10.00">UnitDisplayStatusBarControl</text>
<text text-anchor="middle" x="265.5" y="-34.5" font-family="Helvetica,sans-Serif" font-size="10.00">::setOptionsModel</text>
</a>
</g>
</g>
<!-- Node1&#45;&gt;Node2 -->
<g id="edge1" class="edge"><title>Node1&#45;&gt;Node2</title>
<path fill="none" stroke="midnightblue" d="M163.298,-42.5C171.773,-42.5 180.333,-42.5 188.697,-42.5"/>
<polygon fill="midnightblue" stroke="midnightblue" points="163.021,-39.0001 153.021,-42.5 163.021,-46.0001 163.021,-39.0001"/>
</g>
<!-- Node3 -->
<g id="node3" class="node"><title>Node3</title>
<g id="a_node3"><a xlink:href="class_bitcoin_g_u_i.html#a99d71e1f8478ab937ce2522c8d3815e3" target="_top" xlink:title="Set the client model. ">
<polygon fill="white" stroke="black" points="378,-33 378,-52 521,-52 521,-33 378,-33"/>
<text text-anchor="middle" x="449.5" y="-40" font-family="Helvetica,sans-Serif" font-size="10.00">BitcoinGUI::setClientModel</text>
</a>
</g>
</g>
<!-- Node2&#45;&gt;Node3 -->
<g id="edge2" class="edge"><title>Node2&#45;&gt;Node3</title>
<path fill="none" stroke="midnightblue" d="M352.14,-42.5C360.731,-42.5 369.386,-42.5 377.797,-42.5"/>
<polygon fill="midnightblue" stroke="midnightblue" points="352.103,-39.0001 342.103,-42.5 352.103,-46.0001 352.103,-39.0001"/>
</g>
<!-- Node4 -->
<g id="node4" class="node"><title>Node4</title>
<g id="a_node4"><a xlink:href="class_bitcoin_application.html#a37c560d4c04d14a6da151b82caf8888f" target="_top" xlink:title="Request core shutdown. ">
<polygon fill="white" stroke="black" points="831,-49.5 831,-79.5 938,-79.5 938,-49.5 831,-49.5"/>
<text text-anchor="start" x="839" y="-67.5" font-family="Helvetica,sans-Serif" font-size="10.00">BitcoinApplication</text>
<text text-anchor="middle" x="884.5" y="-56.5" font-family="Helvetica,sans-Serif" font-size="10.00">::requestShutdown</text>
</a>
</g>
</g>
<!-- Node3&#45;&gt;Node4 -->
<g id="edge3" class="edge"><title>Node3&#45;&gt;Node4</title>
<path fill="none" stroke="midnightblue" d="M531.192,-46.5998C618.75,-51.0485 756.016,-58.0227 830.734,-61.819"/>
<polygon fill="midnightblue" stroke="midnightblue" points="531.197,-43.0957 521.033,-46.0836 530.842,-50.0867 531.197,-43.0957"/>
</g>
<!-- Node7 -->
<g id="node7" class="node"><title>Node7</title>
<g id="a_node7"><a xlink:href="class_bitcoin_application.html#a5bcf1bf32a7508326e0dd630a59a887d" target="_top" xlink:title="BitcoinApplication\l::initializeResult">
<polygon fill="white" stroke="black" points="557,-5.5 557,-35.5 658,-35.5 658,-5.5 557,-5.5"/>
<text text-anchor="start" x="565" y="-23.5" font-family="Helvetica,sans-Serif" font-size="10.00">BitcoinApplication</text>
<text text-anchor="middle" x="607.5" y="-12.5" font-family="Helvetica,sans-Serif" font-size="10.00">::initializeResult</text>
</a>
</g>
</g>
<!-- Node3&#45;&gt;Node7 -->
<g id="edge6" class="edge"><title>Node3&#45;&gt;Node7</title>
<path fill="none" stroke="midnightblue" d="M528.133,-31.5518C537.868,-30.1789 547.61,-28.805 556.754,-27.5155"/>
<polygon fill="midnightblue" stroke="midnightblue" points="527.43,-28.1162 518.017,-32.9784 528.407,-35.0476 527.43,-28.1162"/>
</g>
<!-- Node5 -->
<g id="node5" class="node"><title>Node5</title>
<g id="a_node5"><a xlink:href="bitcoin_8h.html#a810d06fb8004c57d668eeb540ae582b7" target="_top" xlink:title="GuiMain">
<polygon fill="white" stroke="black" points="974,-30 974,-49 1029,-49 1029,-30 974,-30"/>
<text text-anchor="middle" x="1001.5" y="-37" font-family="Helvetica,sans-Serif" font-size="10.00">GuiMain</text>
</a>
</g>
</g>
<!-- Node4&#45;&gt;Node5 -->
<g id="edge4" class="edge"><title>Node4&#45;&gt;Node5</title>
<path fill="none" stroke="midnightblue" d="M948.094,-50.8927C957.108,-48.933 965.955,-47.0099 973.737,-45.318"/>
<polygon fill="midnightblue" stroke="midnightblue" points="947.316,-47.4799 938.288,-53.0244 948.803,-54.3201 947.316,-47.4799"/>
</g>
<!-- Node6 -->
<g id="node6" class="node"><title>Node6</title>
<g id="a_node6"><a xlink:href="main_8cpp.html#a0ddf1224851353fc92bfbff6f499fa97" target="_top" xlink:title="main">
<polygon fill="white" stroke="black" points="1065,-30 1065,-49 1106,-49 1106,-30 1065,-30"/>
<text text-anchor="middle" x="1085.5" y="-37" font-family="Helvetica,sans-Serif" font-size="10.00">main</text>
</a>
</g>
</g>
<!-- Node5&#45;&gt;Node6 -->
<g id="edge5" class="edge"><title>Node5&#45;&gt;Node6</title>
<path fill="none" stroke="midnightblue" d="M1039.43,-39.5C1048.2,-39.5 1057.23,-39.5 1064.87,-39.5"/>
<polygon fill="midnightblue" stroke="midnightblue" points="1039.35,-36.0001 1029.35,-39.5 1039.35,-43.0001 1039.35,-36.0001"/>
</g>
<!-- Node8 -->
<g id="node8" class="node"><title>Node8</title>
<g id="a_node8"><a xlink:href="class_bitcoin_application.html#a61afce9356e452c53ad4c83f5ca19df8" target="_top" xlink:title="BitcoinApplication\l::startThread">
<polygon fill="white" stroke="black" points="694,-5.5 694,-35.5 795,-35.5 795,-5.5 694,-5.5"/>
<text text-anchor="start" x="702" y="-23.5" font-family="Helvetica,sans-Serif" font-size="10.00">BitcoinApplication</text>
<text text-anchor="middle" x="744.5" y="-12.5" font-family="Helvetica,sans-Serif" font-size="10.00">::startThread</text>
</a>
</g>
</g>
<!-- Node7&#45;&gt;Node8 -->
<g id="edge7" class="edge"><title>Node7&#45;&gt;Node8</title>
<path fill="none" stroke="midnightblue" d="M668.207,-20.5C676.67,-20.5 685.299,-20.5 693.552,-20.5"/>
<polygon fill="midnightblue" stroke="midnightblue" points="668.002,-17.0001 658.002,-20.5 668.002,-24.0001 668.002,-17.0001"/>
</g>
<!-- Node8&#45;&gt;Node4 -->
<g id="edge10" class="edge"><title>Node8&#45;&gt;Node4</title>
<path fill="none" stroke="midnightblue" d="M802.335,-38.6215C813.573,-42.2044 825.255,-45.9291 836.138,-49.3991"/>
<polygon fill="midnightblue" stroke="midnightblue" points="803.196,-35.2224 792.606,-35.5192 801.07,-41.8917 803.196,-35.2224"/>
</g>
<!-- Node9 -->
<g id="node9" class="node"><title>Node9</title>
<g id="a_node9"><a xlink:href="class_bitcoin_application.html#ade19c44b87b00b6b19b433caf4c22ba6" target="_top" xlink:title="Request core initialization. ">
<polygon fill="white" stroke="black" points="834,-0.5 834,-30.5 935,-30.5 935,-0.5 834,-0.5"/>
<text text-anchor="start" x="842" y="-18.5" font-family="Helvetica,sans-Serif" font-size="10.00">BitcoinApplication</text>
<text text-anchor="middle" x="884.5" y="-7.5" font-family="Helvetica,sans-Serif" font-size="10.00">::requestInitialize</text>
</a>
</g>
</g>
<!-- Node8&#45;&gt;Node9 -->
<g id="edge8" class="edge"><title>Node8&#45;&gt;Node9</title>
<path fill="none" stroke="midnightblue" d="M805.447,-18.328C814.893,-17.9858 824.57,-17.6352 833.752,-17.3025"/>
<polygon fill="midnightblue" stroke="midnightblue" points="805.188,-14.835 795.321,-18.6949 805.441,-21.8304 805.188,-14.835"/>
</g>
<!-- Node9&#45;&gt;Node5 -->
<g id="edge9" class="edge"><title>Node9&#45;&gt;Node5</title>
<path fill="none" stroke="midnightblue" d="M945.256,-27.9709C955.255,-30.0576 965.163,-32.1253 973.768,-33.9211"/>
<polygon fill="midnightblue" stroke="midnightblue" points="945.776,-24.504 935.272,-25.8872 944.346,-31.3564 945.776,-24.504"/>
</g>
</g>
</svg>
