<?xml version="1.0" encoding="UTF-8" standalone="no"?>
<!DOCTYPE svg PUBLIC "-//W3C//DTD SVG 1.1//EN"
 "http://www.w3.org/Graphics/SVG/1.1/DTD/svg11.dtd">
<!-- Generated by graphviz version 2.38.0 (20140413.2041)
 -->
<!-- Title: ArgsManager::GetHelpMessage Pages: 1 -->
<svg width="695pt" height="138pt"
 viewBox="0.00 0.00 695.00 137.50" xmlns="http://www.w3.org/2000/svg" xmlns:xlink="http://www.w3.org/1999/xlink">
<g id="graph0" class="graph" transform="scale(1 1) rotate(0) translate(4 133.5)">
<title>ArgsManager::GetHelpMessage</title>
<polygon fill="white" stroke="none" points="-4,4 -4,-133.5 691,-133.5 691,4 -4,4"/>
<!-- Node1 -->
<g id="node1" class="node"><title>Node1</title>
<polygon fill="#bfbfbf" stroke="black" points="0,-38.5 0,-57.5 168,-57.5 168,-38.5 0,-38.5"/>
<text text-anchor="middle" x="84" y="-45.5" font-family="Helvetica,sans-Serif" font-size="10.00">ArgsManager::GetHelpMessage</text>
</g>
<!-- Node2 -->
<g id="node2" class="node"><title>Node2</title>
<g id="a_node2"><a xlink:href="class_args_manager.html#a690fd2e1bae8f2de37bbcf0583d0b3ad" target="_top" xlink:title="Return boolean argument or default value. ">
<polygon fill="white" stroke="black" points="204,-76.5 204,-95.5 345,-95.5 345,-76.5 204,-76.5"/>
<text text-anchor="middle" x="274.5" y="-83.5" font-family="Helvetica,sans-Serif" font-size="10.00">ArgsManager::GetBoolArg</text>
</a>
</g>
</g>
<!-- Node1&#45;&gt;Node2 -->
<g id="edge1" class="edge"><title>Node1&#45;&gt;Node2</title>
<path fill="none" stroke="midnightblue" d="M132.567,-57.589C158.001,-62.7165 189.505,-69.0672 216.271,-74.4632"/>
<polygon fill="midnightblue" stroke="midnightblue" points="215.781,-77.9347 226.276,-76.4799 217.164,-71.0727 215.781,-77.9347"/>
</g>
<!-- Node6 -->
<g id="node6" class="node"><title>Node6</title>
<g id="a_node6"><a xlink:href="util_8cpp.html#aae6ceac1cd94a0e700783c733e60e970" target="_top" xlink:title="Format a string to be used as group of options in help messages. ">
<polygon fill="white" stroke="black" points="219.5,-38.5 219.5,-57.5 329.5,-57.5 329.5,-38.5 219.5,-38.5"/>
<text text-anchor="middle" x="274.5" y="-45.5" font-family="Helvetica,sans-Serif" font-size="10.00">HelpMessageGroup</text>
</a>
</g>
</g>
<!-- Node1&#45;&gt;Node6 -->
<g id="edge5" class="edge"><title>Node1&#45;&gt;Node6</title>
<path fill="none" stroke="midnightblue" d="M168.228,-48C181.924,-48 195.936,-48 209.084,-48"/>
<polygon fill="midnightblue" stroke="midnightblue" points="209.42,-51.5001 219.42,-48 209.42,-44.5001 209.42,-51.5001"/>
</g>
<!-- Node7 -->
<g id="node7" class="node"><title>Node7</title>
<g id="a_node7"><a xlink:href="util_8cpp.html#aec85bcd561766ad0362a8fc5cd4a8542" target="_top" xlink:title="Format a string to be used as option description in help messages. ">
<polygon fill="white" stroke="black" points="225.5,-0.5 225.5,-19.5 323.5,-19.5 323.5,-0.5 225.5,-0.5"/>
<text text-anchor="middle" x="274.5" y="-7.5" font-family="Helvetica,sans-Serif" font-size="10.00">HelpMessageOpt</text>
</a>
</g>
</g>
<!-- Node1&#45;&gt;Node7 -->
<g id="edge6" class="edge"><title>Node1&#45;&gt;Node7</title>
<path fill="none" stroke="midnightblue" d="M132.567,-38.411C158.001,-33.2835 189.505,-26.9328 216.271,-21.5368"/>
<polygon fill="midnightblue" stroke="midnightblue" points="217.164,-24.9273 226.276,-19.5201 215.781,-18.0653 217.164,-24.9273"/>
</g>
<!-- Node3 -->
<g id="node3" class="node"><title>Node3</title>
<g id="a_node3"><a xlink:href="class_args_manager.html#a279ccbf7bbe9de5dceb8c6bfd1736583" target="_top" xlink:title="Return true if the argument was originally passed as a negated option, i.e. ">
<polygon fill="white" stroke="black" points="381,-104.5 381,-123.5 533,-123.5 533,-104.5 381,-104.5"/>
<text text-anchor="middle" x="457" y="-111.5" font-family="Helvetica,sans-Serif" font-size="10.00">ArgsManager::IsArgNegated</text>
</a>
</g>
</g>
<!-- Node2&#45;&gt;Node3 -->
<g id="edge2" class="edge"><title>Node2&#45;&gt;Node3</title>
<path fill="none" stroke="midnightblue" d="M336.861,-95.5186C352.119,-97.8855 368.609,-100.444 384.315,-102.88"/>
<polygon fill="midnightblue" stroke="midnightblue" points="384.084,-106.386 394.502,-104.46 385.157,-99.4685 384.084,-106.386"/>
</g>
<!-- Node5 -->
<g id="node5" class="node"><title>Node5</title>
<g id="a_node5"><a xlink:href="class_args_manager_helper.html#aa4f8f77dc468b29cffe50513c78a87cd" target="_top" xlink:title="ArgsManagerHelper::\lGetArg">
<polygon fill="white" stroke="black" points="398,-55 398,-85 516,-85 516,-55 398,-55"/>
<text text-anchor="start" x="406" y="-73" font-family="Helvetica,sans-Serif" font-size="10.00">ArgsManagerHelper::</text>
<text text-anchor="middle" x="457" y="-62" font-family="Helvetica,sans-Serif" font-size="10.00">GetArg</text>
</a>
</g>
</g>
<!-- Node2&#45;&gt;Node5 -->
<g id="edge4" class="edge"><title>Node2&#45;&gt;Node5</title>
<path fill="none" stroke="midnightblue" d="M345.028,-79.8369C359.093,-78.5901 373.868,-77.2804 387.883,-76.038"/>
<polygon fill="midnightblue" stroke="midnightblue" points="388.282,-79.5165 397.934,-75.1471 387.664,-72.5438 388.282,-79.5165"/>
</g>
<!-- Node4 -->
<g id="node4" class="node"><title>Node4</title>
<g id="a_node4"><a xlink:href="class_args_manager_helper.html#a863ddbcfbd113cf88cf622a0a4e32c1d" target="_top" xlink:title="Convert regular argument into the network&#45;specific setting. ">
<polygon fill="white" stroke="black" points="569,-99 569,-129 687,-129 687,-99 569,-99"/>
<text text-anchor="start" x="577" y="-117" font-family="Helvetica,sans-Serif" font-size="10.00">ArgsManagerHelper::</text>
<text text-anchor="middle" x="628" y="-106" font-family="Helvetica,sans-Serif" font-size="10.00">NetworkArg</text>
</a>
</g>
</g>
<!-- Node3&#45;&gt;Node4 -->
<g id="edge3" class="edge"><title>Node3&#45;&gt;Node4</title>
<path fill="none" stroke="midnightblue" d="M533.11,-114C541.634,-114 550.286,-114 558.715,-114"/>
<polygon fill="midnightblue" stroke="midnightblue" points="558.862,-117.5 568.862,-114 558.862,-110.5 558.862,-117.5"/>
</g>
<!-- Node8 -->
<g id="node8" class="node"><title>Node8</title>
<g id="a_node8"><a xlink:href="utilstrencodings_8cpp.html#a1f12da14116d6d2317c16d9a9daa6548" target="_top" xlink:title="Format a paragraph of text to a fixed width, adding spaces for indentation to any added line...">
<polygon fill="white" stroke="black" points="407,-0.5 407,-19.5 507,-19.5 507,-0.5 407,-0.5"/>
<text text-anchor="middle" x="457" y="-7.5" font-family="Helvetica,sans-Serif" font-size="10.00">FormatParagraph</text>
</a>
</g>
</g>
<!-- Node7&#45;&gt;Node8 -->
<g id="edge7" class="edge"><title>Node7&#45;&gt;Node8</title>
<path fill="none" stroke="midnightblue" d="M323.871,-10C346.248,-10 373.039,-10 396.63,-10"/>
<polygon fill="midnightblue" stroke="midnightblue" points="396.868,-13.5001 406.868,-10 396.868,-6.5001 396.868,-13.5001"/>
</g>
</g>
</svg>
