<?xml version="1.0" encoding="UTF-8" standalone="no"?>
<!DOCTYPE svg PUBLIC "-//W3C//DTD SVG 1.1//EN"
 "http://www.w3.org/Graphics/SVG/1.1/DTD/svg11.dtd">
<!-- Generated by graphviz version 2.38.0 (20140413.2041)
 -->
<!-- Title: CBasicKeyStore::GetCScript Pages: 1 -->
<svg width="538pt" height="116pt"
 viewBox="0.00 0.00 538.00 115.50" xmlns="http://www.w3.org/2000/svg" xmlns:xlink="http://www.w3.org/1999/xlink">
<g id="graph0" class="graph" transform="scale(1 1) rotate(0) translate(4 111.5)">
<title>CBasicKeyStore::GetCScript</title>
<polygon fill="white" stroke="none" points="-4,4 -4,-111.5 534,-111.5 534,4 -4,4"/>
<!-- Node1 -->
<g id="node1" class="node"><title>Node1</title>
<polygon fill="#bfbfbf" stroke="black" points="0,-50 0,-69 149,-69 149,-50 0,-50"/>
<text text-anchor="middle" x="74.5" y="-57" font-family="Helvetica,sans-Serif" font-size="10.00">CBasicKeyStore::GetCScript</text>
</g>
<!-- Node2 -->
<g id="node2" class="node"><title>Node2</title>
<g id="a_node2"><a xlink:href="wallet__tests_8cpp.html#a73ce3a42e0b56b2e4516e55871d8590e" target="_top" xlink:title="dumpwallet">
<polygon fill="white" stroke="black" points="227,-88 227,-107 298,-107 298,-88 227,-88"/>
<text text-anchor="middle" x="262.5" y="-95" font-family="Helvetica,sans-Serif" font-size="10.00">dumpwallet</text>
</a>
</g>
</g>
<!-- Node1&#45;&gt;Node2 -->
<g id="edge1" class="edge"><title>Node1&#45;&gt;Node2</title>
<path fill="none" stroke="midnightblue" d="M132.625,-71.1707C163.443,-77.4668 200.468,-85.0312 226.91,-90.4332"/>
<polygon fill="midnightblue" stroke="midnightblue" points="132.934,-67.6616 122.436,-69.089 131.533,-74.5199 132.934,-67.6616"/>
</g>
<!-- Node4 -->
<g id="node4" class="node"><title>Node4</title>
<g id="a_node4"><a xlink:href="rpcwallet_8cpp.html#a74b85c92ee6a84277c73b74f2e212bff" target="_top" xlink:title="listtransactions">
<polygon fill="white" stroke="black" points="218,-50 218,-69 307,-69 307,-50 218,-50"/>
<text text-anchor="middle" x="262.5" y="-57" font-family="Helvetica,sans-Serif" font-size="10.00">listtransactions</text>
</a>
</g>
</g>
<!-- Node1&#45;&gt;Node4 -->
<g id="edge3" class="edge"><title>Node1&#45;&gt;Node4</title>
<path fill="none" stroke="midnightblue" d="M159.227,-59.5C179.52,-59.5 200.407,-59.5 217.972,-59.5"/>
<polygon fill="midnightblue" stroke="midnightblue" points="159.012,-56.0001 149.012,-59.5 159.012,-63.0001 159.012,-56.0001"/>
</g>
<!-- Node6 -->
<g id="node6" class="node"><title>Node6</title>
<g id="a_node6"><a xlink:href="class_describe_wallet_address_visitor.html#ac97f51f2fed922f29efe84df174fc73f" target="_top" xlink:title="DescribeWalletAddressVisitor\l::operator()">
<polygon fill="white" stroke="black" points="185,-0.5 185,-30.5 340,-30.5 340,-0.5 185,-0.5"/>
<text text-anchor="start" x="193" y="-18.5" font-family="Helvetica,sans-Serif" font-size="10.00">DescribeWalletAddressVisitor</text>
<text text-anchor="middle" x="262.5" y="-7.5" font-family="Helvetica,sans-Serif" font-size="10.00">::operator()</text>
</a>
</g>
</g>
<!-- Node1&#45;&gt;Node6 -->
<g id="edge5" class="edge"><title>Node1&#45;&gt;Node6</title>
<path fill="none" stroke="midnightblue" d="M125.737,-47.616C147.926,-42.3669 174.267,-36.1358 197.815,-30.5654"/>
<polygon fill="midnightblue" stroke="midnightblue" points="124.785,-44.2445 115.859,-49.9527 126.396,-51.0565 124.785,-44.2445"/>
</g>
<!-- Node3 -->
<g id="node3" class="node"><title>Node3</title>
<g id="a_node3"><a xlink:href="wallet__tests_8cpp.html#a2a726fa52b0a343883cb50a3f68d0989" target="_top" xlink:title="BOOST_FIXTURE_TEST_CASE">
<polygon fill="white" stroke="black" points="376,-88 376,-107 530,-107 530,-88 376,-88"/>
<text text-anchor="middle" x="453" y="-95" font-family="Helvetica,sans-Serif" font-size="10.00">BOOST_FIXTURE_TEST_CASE</text>
</a>
</g>
</g>
<!-- Node2&#45;&gt;Node3 -->
<g id="edge2" class="edge"><title>Node2&#45;&gt;Node3</title>
<path fill="none" stroke="midnightblue" d="M308.224,-97.5C328.432,-97.5 352.882,-97.5 375.843,-97.5"/>
<polygon fill="midnightblue" stroke="midnightblue" points="308.074,-94.0001 298.074,-97.5 308.074,-101 308.074,-94.0001"/>
</g>
<!-- Node5 -->
<g id="node5" class="node"><title>Node5</title>
<g id="a_node5"><a xlink:href="rpcwallet_8cpp.html#afca55ac7a3c6c274b8b7b3e6eab9cd86" target="_top" xlink:title="walletcreatefundedpsbt">
<polygon fill="white" stroke="black" points="389,-50 389,-69 517,-69 517,-50 389,-50"/>
<text text-anchor="middle" x="453" y="-57" font-family="Helvetica,sans-Serif" font-size="10.00">walletcreatefundedpsbt</text>
</a>
</g>
</g>
<!-- Node4&#45;&gt;Node5 -->
<g id="edge4" class="edge"><title>Node4&#45;&gt;Node5</title>
<path fill="none" stroke="midnightblue" d="M317.497,-59.5C339.767,-59.5 365.729,-59.5 388.872,-59.5"/>
<polygon fill="midnightblue" stroke="midnightblue" points="317.22,-56.0001 307.219,-59.5 317.219,-63.0001 317.22,-56.0001"/>
</g>
</g>
</svg>
