<?xml version="1.0" encoding="UTF-8" standalone="no"?>
<!DOCTYPE svg PUBLIC "-//W3C//DTD SVG 1.1//EN"
 "http://www.w3.org/Graphics/SVG/1.1/DTD/svg11.dtd">
<!-- Generated by graphviz version 2.38.0 (20140413.2041)
 -->
<!-- Title: base_blob::ToString Pages: 1 -->
<svg width="480pt" height="237pt"
 viewBox="0.00 0.00 480.00 237.00" xmlns="http://www.w3.org/2000/svg" xmlns:xlink="http://www.w3.org/1999/xlink">
<g id="graph0" class="graph" transform="scale(1 1) rotate(0) translate(4 233)">
<title>base_blob::ToString</title>
<polygon fill="white" stroke="none" points="-4,4 -4,-233 476,-233 476,4 -4,4"/>
<!-- Node1 -->
<g id="node1" class="node"><title>Node1</title>
<polygon fill="#bfbfbf" stroke="black" points="0,-118.5 0,-137.5 110,-137.5 110,-118.5 0,-118.5"/>
<text text-anchor="middle" x="55" y="-125.5" font-family="Helvetica,sans-Serif" font-size="10.00">base_blob::ToString</text>
</g>
<!-- Node2 -->
<g id="node2" class="node"><title>Node2</title>
<g id="a_node2"><a xlink:href="classbase__blob.html#ada7be83089951dc9438f384c0587cf29" target="_top" xlink:title="base_blob::base_blob">
<polygon fill="white" stroke="black" points="146,-156.5 146,-175.5 266,-175.5 266,-156.5 146,-156.5"/>
<text text-anchor="middle" x="206" y="-163.5" font-family="Helvetica,sans-Serif" font-size="10.00">base_blob::base_blob</text>
</a>
</g>
</g>
<!-- Node1&#45;&gt;Node2 -->
<g id="edge1" class="edge"><title>Node1&#45;&gt;Node2</title>
<path fill="none" stroke="midnightblue" d="M93.599,-137.589C113.084,-142.558 137.075,-148.677 157.796,-153.961"/>
<polygon fill="midnightblue" stroke="midnightblue" points="157.117,-157.4 167.671,-156.48 158.846,-150.617 157.117,-157.4"/>
</g>
<!-- Node3 -->
<g id="node3" class="node"><title>Node3</title>
<g id="a_node3"><a xlink:href="classbase__blob.html#a9541747b1f91f9469ac0aff90665bd32" target="_top" xlink:title="base_blob::GetHex">
<polygon fill="white" stroke="black" points="152.5,-118.5 152.5,-137.5 259.5,-137.5 259.5,-118.5 152.5,-118.5"/>
<text text-anchor="middle" x="206" y="-125.5" font-family="Helvetica,sans-Serif" font-size="10.00">base_blob::GetHex</text>
</a>
</g>
</g>
<!-- Node1&#45;&gt;Node3 -->
<g id="edge2" class="edge"><title>Node1&#45;&gt;Node3</title>
<path fill="none" stroke="midnightblue" d="M110.214,-128C120.555,-128 131.461,-128 142.048,-128"/>
<polygon fill="midnightblue" stroke="midnightblue" points="142.072,-131.5 152.072,-128 142.072,-124.5 142.072,-131.5"/>
</g>
<!-- Node5 -->
<g id="node5" class="node"><title>Node5</title>
<g id="a_node5"><a xlink:href="classbase__blob.html#a5ec1f681a2830f4e180fe664c0eb4dd0" target="_top" xlink:title="base_blob::SetHex">
<polygon fill="white" stroke="black" points="152.5,-52.5 152.5,-71.5 259.5,-71.5 259.5,-52.5 152.5,-52.5"/>
<text text-anchor="middle" x="206" y="-59.5" font-family="Helvetica,sans-Serif" font-size="10.00">base_blob::SetHex</text>
</a>
</g>
</g>
<!-- Node1&#45;&gt;Node5 -->
<g id="edge4" class="edge"><title>Node1&#45;&gt;Node5</title>
<path fill="none" stroke="midnightblue" d="M77.6659,-118.403C103.046,-107.161 145.281,-88.4525 174.095,-75.6896"/>
<polygon fill="midnightblue" stroke="midnightblue" points="175.582,-78.8587 183.308,-71.6085 172.747,-72.4585 175.582,-78.8587"/>
</g>
<!-- Node4 -->
<g id="node4" class="node"><title>Node4</title>
<g id="a_node4"><a xlink:href="strencodings_8h.html#ace13a819ca4e98c22847d26b3b357e75" target="_top" xlink:title="HexStr">
<polygon fill="white" stroke="black" points="305.5,-133.5 305.5,-152.5 355.5,-152.5 355.5,-133.5 305.5,-133.5"/>
<text text-anchor="middle" x="330.5" y="-140.5" font-family="Helvetica,sans-Serif" font-size="10.00">HexStr</text>
</a>
</g>
</g>
<!-- Node3&#45;&gt;Node4 -->
<g id="edge3" class="edge"><title>Node3&#45;&gt;Node4</title>
<path fill="none" stroke="midnightblue" d="M259.662,-134.448C271.751,-135.929 284.295,-137.465 295.36,-138.82"/>
<polygon fill="midnightblue" stroke="midnightblue" points="295.102,-142.314 305.453,-140.055 295.953,-135.366 295.102,-142.314"/>
</g>
<!-- Node6 -->
<g id="node6" class="node"><title>Node6</title>
<g id="a_node6"><a xlink:href="strencodings_8h.html#aa30de1eac29287732050df7168cde03a" target="_top" xlink:title="Tests if the given character is a whitespace character. ">
<polygon fill="white" stroke="black" points="303.5,-95.5 303.5,-114.5 357.5,-114.5 357.5,-95.5 303.5,-95.5"/>
<text text-anchor="middle" x="330.5" y="-102.5" font-family="Helvetica,sans-Serif" font-size="10.00">IsSpace</text>
</a>
</g>
</g>
<!-- Node5&#45;&gt;Node6 -->
<g id="edge5" class="edge"><title>Node5&#45;&gt;Node6</title>
<path fill="none" stroke="midnightblue" d="M234.187,-71.5431C251.714,-77.6955 274.697,-85.7632 293.704,-92.4347"/>
<polygon fill="midnightblue" stroke="midnightblue" points="292.635,-95.769 303.23,-95.7787 294.954,-89.1641 292.635,-95.769"/>
</g>
<!-- Node12 -->
<g id="node12" class="node"><title>Node12</title>
<g id="a_node12"><a xlink:href="strencodings_8h.html#a879b5fdf563d3d7d07e7686fd9e025d7" target="_top" xlink:title="Converts the given character to its lowercase equivalent. ">
<polygon fill="white" stroke="black" points="303.5,-38.5 303.5,-57.5 357.5,-57.5 357.5,-38.5 303.5,-38.5"/>
<text text-anchor="middle" x="330.5" y="-45.5" font-family="Helvetica,sans-Serif" font-size="10.00">ToLower</text>
</a>
</g>
</g>
<!-- Node5&#45;&gt;Node12 -->
<g id="edge11" class="edge"><title>Node5&#45;&gt;Node12</title>
<path fill="none" stroke="midnightblue" d="M259.662,-55.9815C270.945,-54.692 282.625,-53.3571 293.129,-52.1566"/>
<polygon fill="midnightblue" stroke="midnightblue" points="293.645,-55.6206 303.183,-51.0076 292.85,-48.6658 293.645,-55.6206"/>
</g>
<!-- Node14 -->
<g id="node14" class="node"><title>Node14</title>
<g id="a_node14"><a xlink:href="strencodings_8cpp.html#aa59e8a8c5a39cb5041f93bb95dd02119" target="_top" xlink:title="HexDigit">
<polygon fill="white" stroke="black" points="302,-0.5 302,-19.5 359,-19.5 359,-0.5 302,-0.5"/>
<text text-anchor="middle" x="330.5" y="-7.5" font-family="Helvetica,sans-Serif" font-size="10.00">HexDigit</text>
</a>
</g>
</g>
<!-- Node5&#45;&gt;Node14 -->
<g id="edge14" class="edge"><title>Node5&#45;&gt;Node14</title>
<path fill="none" stroke="midnightblue" d="M229.468,-52.4624C248.516,-44.3769 276.064,-32.683 297.43,-23.6133"/>
<polygon fill="midnightblue" stroke="midnightblue" points="298.922,-26.7825 306.759,-19.6532 296.187,-20.339 298.922,-26.7825"/>
</g>
<!-- Node7 -->
<g id="node7" class="node"><title>Node7</title>
<g id="a_node7"><a xlink:href="strencodings_8h.html#a28581aab6ddb04da2c69bd0f0ffee6ae" target="_top" xlink:title="Convert string to signed 32&#45;bit integer with strict parse error feedback. ">
<polygon fill="white" stroke="black" points="400,-209.5 400,-228.5 467,-228.5 467,-209.5 400,-209.5"/>
<text text-anchor="middle" x="433.5" y="-216.5" font-family="Helvetica,sans-Serif" font-size="10.00">ParseInt32</text>
</a>
</g>
</g>
<!-- Node6&#45;&gt;Node7 -->
<g id="edge6" class="edge"><title>Node6&#45;&gt;Node7</title>
<path fill="none" stroke="midnightblue" d="M348.36,-114.577C352.181,-117.28 355.994,-120.462 359,-124 383.2,-152.483 368.925,-173.222 395,-200 396.375,-201.412 397.877,-202.737 399.464,-203.979"/>
<polygon fill="midnightblue" stroke="midnightblue" points="397.626,-206.959 407.912,-209.498 401.455,-201.099 397.626,-206.959"/>
</g>
<!-- Node8 -->
<g id="node8" class="node"><title>Node8</title>
<g id="a_node8"><a xlink:href="strencodings_8h.html#a7598ac1ae52f69abe5f103fc6e4c9bd9" target="_top" xlink:title="Convert string to signed 64&#45;bit integer with strict parse error feedback. ">
<polygon fill="white" stroke="black" points="400,-171.5 400,-190.5 467,-190.5 467,-171.5 400,-171.5"/>
<text text-anchor="middle" x="433.5" y="-178.5" font-family="Helvetica,sans-Serif" font-size="10.00">ParseInt64</text>
</a>
</g>
</g>
<!-- Node6&#45;&gt;Node8 -->
<g id="edge7" class="edge"><title>Node6&#45;&gt;Node8</title>
<path fill="none" stroke="midnightblue" d="M346.476,-114.515C350.661,-117.394 355.122,-120.677 359,-124 376.665,-139.138 376.349,-148.094 395,-162 397.048,-163.527 399.237,-164.991 401.49,-166.382"/>
<polygon fill="midnightblue" stroke="midnightblue" points="399.903,-169.505 410.335,-171.356 403.334,-163.404 399.903,-169.505"/>
</g>
<!-- Node9 -->
<g id="node9" class="node"><title>Node9</title>
<g id="a_node9"><a xlink:href="strencodings_8h.html#ad4cd67d1bc9cc91801e9c22a0bd94ca7" target="_top" xlink:title="Convert decimal string to unsigned 32&#45;bit integer with strict parse error feedback. ">
<polygon fill="white" stroke="black" points="396.5,-133.5 396.5,-152.5 470.5,-152.5 470.5,-133.5 396.5,-133.5"/>
<text text-anchor="middle" x="433.5" y="-140.5" font-family="Helvetica,sans-Serif" font-size="10.00">ParseUInt32</text>
</a>
</g>
</g>
<!-- Node6&#45;&gt;Node9 -->
<g id="edge8" class="edge"><title>Node6&#45;&gt;Node9</title>
<path fill="none" stroke="midnightblue" d="M356.987,-114.589C369.307,-119.224 384.285,-124.86 397.643,-129.885"/>
<polygon fill="midnightblue" stroke="midnightblue" points="396.43,-133.168 407.022,-133.414 398.895,-126.617 396.43,-133.168"/>
</g>
<!-- Node10 -->
<g id="node10" class="node"><title>Node10</title>
<g id="a_node10"><a xlink:href="strencodings_8h.html#ab721ae646504bb11a2ac467cc9013659" target="_top" xlink:title="Convert decimal string to unsigned 64&#45;bit integer with strict parse error feedback. ">
<polygon fill="white" stroke="black" points="396.5,-95.5 396.5,-114.5 470.5,-114.5 470.5,-95.5 396.5,-95.5"/>
<text text-anchor="middle" x="433.5" y="-102.5" font-family="Helvetica,sans-Serif" font-size="10.00">ParseUInt64</text>
</a>
</g>
</g>
<!-- Node6&#45;&gt;Node10 -->
<g id="edge9" class="edge"><title>Node6&#45;&gt;Node10</title>
<path fill="none" stroke="midnightblue" d="M357.51,-105C366.273,-105 376.333,-105 386.181,-105"/>
<polygon fill="midnightblue" stroke="midnightblue" points="386.302,-108.5 396.302,-105 386.302,-101.5 386.302,-108.5"/>
</g>
<!-- Node11 -->
<g id="node11" class="node"><title>Node11</title>
<g id="a_node11"><a xlink:href="strencodings_8h.html#ab126210409626dcb61aeb0e4300a8a46" target="_top" xlink:title="Convert string to double with strict parse error feedback. ">
<polygon fill="white" stroke="black" points="395,-57.5 395,-76.5 472,-76.5 472,-57.5 395,-57.5"/>
<text text-anchor="middle" x="433.5" y="-64.5" font-family="Helvetica,sans-Serif" font-size="10.00">ParseDouble</text>
</a>
</g>
</g>
<!-- Node6&#45;&gt;Node11 -->
<g id="edge10" class="edge"><title>Node6&#45;&gt;Node11</title>
<path fill="none" stroke="midnightblue" d="M356.987,-95.411C369.307,-90.7756 384.285,-85.1404 397.643,-80.1147"/>
<polygon fill="midnightblue" stroke="midnightblue" points="398.895,-83.3832 407.022,-76.5859 396.43,-76.8316 398.895,-83.3832"/>
</g>
<!-- Node13 -->
<g id="node13" class="node"><title>Node13</title>
<g id="a_node13"><a xlink:href="strencodings_8h.html#a0112c4a0e8c623b7fc4a52730c57e2d0" target="_top" xlink:title="Converts the given string to its lowercase equivalent. ">
<polygon fill="white" stroke="black" points="401,-19.5 401,-38.5 466,-38.5 466,-19.5 401,-19.5"/>
<text text-anchor="middle" x="433.5" y="-26.5" font-family="Helvetica,sans-Serif" font-size="10.00">Downcase</text>
</a>
</g>
</g>
<!-- Node12&#45;&gt;Node13 -->
<g id="edge12" class="edge"><title>Node12&#45;&gt;Node13</title>
<path fill="none" stroke="midnightblue" d="M352.427,-38.4705C363.57,-35.3819 377.678,-32.3738 390.937,-30.1636"/>
<polygon fill="midnightblue" stroke="midnightblue" points="391.496,-33.6189 400.848,-28.6408 390.433,-26.7001 391.496,-33.6189"/>
</g>
<!-- Node13&#45;&gt;Node12 -->
<g id="edge13" class="edge"><title>Node13&#45;&gt;Node12</title>
<path fill="none" stroke="midnightblue" d="M411.665,-38.5041C399.032,-42.0111 382.564,-45.4172 367.842,-47.6719"/>
<polygon fill="midnightblue" stroke="midnightblue" points="366.939,-44.2632 357.51,-49.0953 367.894,-51.1977 366.939,-44.2632"/>
</g>
</g>
</svg>
