<?xml version="1.0" encoding="UTF-8" standalone="no"?>
<!DOCTYPE svg PUBLIC "-//W3C//DTD SVG 1.1//EN"
 "http://www.w3.org/Graphics/SVG/1.1/DTD/svg11.dtd">
<!-- Generated by graphviz version 2.38.0 (20140413.2041)
 -->
<!-- Title: BlockAssembler::UpdatePackagesForAdded Pages: 1 -->
<svg width="711pt" height="52pt"
 viewBox="0.00 0.00 711.00 51.50" xmlns="http://www.w3.org/2000/svg" xmlns:xlink="http://www.w3.org/1999/xlink">
<g id="graph0" class="graph" transform="scale(1 1) rotate(0) translate(4 47.5)">
<title>BlockAssembler::UpdatePackagesForAdded</title>
<polygon fill="white" stroke="none" points="-4,4 -4,-47.5 707,-47.5 707,4 -4,4"/>
<!-- Node1 -->
<g id="node1" class="node"><title>Node1</title>
<polygon fill="#bfbfbf" stroke="black" points="0,-0.5 0,-30.5 179,-30.5 179,-0.5 0,-0.5"/>
<text text-anchor="start" x="8" y="-18.5" font-family="Helvetica,sans-Serif" font-size="10.00">BlockAssembler::UpdatePackages</text>
<text text-anchor="middle" x="89.5" y="-7.5" font-family="Helvetica,sans-Serif" font-size="10.00">ForAdded</text>
</g>
<!-- Node2 -->
<g id="node2" class="node"><title>Node2</title>
<g id="a_node2"><a xlink:href="class_block_assembler.html#ac88956b3067e44661e837505d1540aa0" target="_top" xlink:title="Add transactions based on feerate including unconfirmed ancestors Increments nPackagesSelected / nDes...">
<polygon fill="white" stroke="black" points="215,-6 215,-25 388,-25 388,-6 215,-6"/>
<text text-anchor="middle" x="301.5" y="-13" font-family="Helvetica,sans-Serif" font-size="10.00">BlockAssembler::addPackageTxs</text>
</a>
</g>
</g>
<!-- Node1&#45;&gt;Node2 -->
<g id="edge1" class="edge"><title>Node1&#45;&gt;Node2</title>
<path fill="none" stroke="midnightblue" d="M189.502,-15.5C197.937,-15.5 206.423,-15.5 214.742,-15.5"/>
<polygon fill="midnightblue" stroke="midnightblue" points="189.255,-12.0001 179.255,-15.5 189.254,-19.0001 189.255,-12.0001"/>
</g>
<!-- Node3 -->
<g id="node3" class="node"><title>Node3</title>
<g id="a_node3"><a xlink:href="class_block_assembler.html#acd45f01ed2556e805c82907def19efcb" target="_top" xlink:title="Construct a new block template with coinbase to scriptPubKeyIn. ">
<polygon fill="white" stroke="black" points="424,-0.5 424,-30.5 576,-30.5 576,-0.5 424,-0.5"/>
<text text-anchor="start" x="432" y="-18.5" font-family="Helvetica,sans-Serif" font-size="10.00">BlockAssembler::CreateNew</text>
<text text-anchor="middle" x="500" y="-7.5" font-family="Helvetica,sans-Serif" font-size="10.00">Block</text>
</a>
</g>
</g>
<!-- Node2&#45;&gt;Node3 -->
<g id="edge2" class="edge"><title>Node2&#45;&gt;Node3</title>
<path fill="none" stroke="midnightblue" d="M398.195,-15.5C406.805,-15.5 415.441,-15.5 423.838,-15.5"/>
<polygon fill="midnightblue" stroke="midnightblue" points="398.116,-12.0001 388.116,-15.5 398.116,-19.0001 398.116,-12.0001"/>
</g>
<!-- Node4 -->
<g id="node4" class="node"><title>Node4</title>
<g id="a_node4"><a xlink:href="mining_8h.html#a4910d289954727eb7c4c24a6b3c50c55" target="_top" xlink:title="Generate blocks (mine) ">
<polygon fill="white" stroke="black" points="612,-6 612,-25 703,-25 703,-6 612,-6"/>
<text text-anchor="middle" x="657.5" y="-13" font-family="Helvetica,sans-Serif" font-size="10.00">generateBlocks</text>
</a>
</g>
</g>
<!-- Node3&#45;&gt;Node4 -->
<g id="edge3" class="edge"><title>Node3&#45;&gt;Node4</title>
<path fill="none" stroke="midnightblue" d="M586.079,-15.5C594.964,-15.5 603.72,-15.5 611.878,-15.5"/>
<polygon fill="midnightblue" stroke="midnightblue" points="586.017,-12.0001 576.017,-15.5 586.017,-19.0001 586.017,-12.0001"/>
</g>
<!-- Node4&#45;&gt;Node4 -->
<g id="edge4" class="edge"><title>Node4&#45;&gt;Node4</title>
<path fill="none" stroke="midnightblue" d="M628.381,-34.1539C629.598,-39.4368 639.304,-43.5 657.5,-43.5 685.227,-43.5 693.241,-34.0653 681.544,-25.2571"/>
<polygon fill="midnightblue" stroke="midnightblue" points="631.541,-35.6775 633.456,-25.2571 625.461,-32.2091 631.541,-35.6775"/>
</g>
</g>
</svg>
