<?xml version="1.0" encoding="UTF-8" standalone="no"?>
<!DOCTYPE svg PUBLIC "-//W3C//DTD SVG 1.1//EN"
 "http://www.w3.org/Graphics/SVG/1.1/DTD/svg11.dtd">
<!-- Generated by graphviz version 2.49.3 (0)
 -->
<!-- Title: base_blob::SetHex Pages: 1 -->
<svg width="1066pt" height="1137pt"
 viewBox="0.00 0.00 1066.00 1136.68" xmlns="http://www.w3.org/2000/svg" xmlns:xlink="http://www.w3.org/1999/xlink">
<g id="graph0" class="graph" transform="scale(1 1) rotate(0) translate(4 1132.68)">
<title>base_blob::SetHex</title>
<polygon fill="white" stroke="transparent" points="-4,4 -4,-1132.68 1062,-1132.68 1062,4 -4,4"/>
<!-- Node1 -->
<g id="node1" class="node">
<title>Node1</title>
<g id="a_node1"><a xlink:title=" ">
<polygon fill="#bfbfbf" stroke="black" points="951,-682.5 951,-701.5 1058,-701.5 1058,-682.5 951,-682.5"/>
<text text-anchor="middle" x="1004.5" y="-689.5" font-family="Helvetica,sans-Serif" font-size="10.00">base_blob::SetHex</text>
</a>
</g>
</g>
<!-- Node2 -->
<g id="node2" class="node">
<title>Node2</title>
<g id="a_node2"><a xlink:href="class_transaction_view.html#a8dc3e9fc910cec4f6764d84c21941180" target="_top" xlink:title=" ">
<polygon fill="white" stroke="black" points="542,-1094.5 542,-1113.5 697,-1113.5 697,-1094.5 542,-1094.5"/>
<text text-anchor="middle" x="619.5" y="-1101.5" font-family="Helvetica,sans-Serif" font-size="10.00">TransactionView::abandonTx</text>
</a>
</g>
</g>
<!-- Node1&#45;&gt;Node2 -->
<g id="edge1" class="edge">
<title>Node1&#45;&gt;Node2</title>
<path fill="none" stroke="midnightblue" d="M1002.09,-711.81C996.45,-784.58 973.05,-1035.42 915,-1085 841.17,-1148.06 715.27,-1128.17 654.85,-1113.58"/>
<polygon fill="midnightblue" stroke="midnightblue" points="1005.58,-711.95 1002.84,-701.72 998.6,-711.43 1005.58,-711.95"/>
</g>
<!-- Node4 -->
<g id="node4" class="node">
<title>Node4</title>
<g id="a_node4"><a xlink:href="pow__tests_8cpp.html#a38519f9de35fd160ff158009e77c2af0" target="_top" xlink:title=" ">
<polygon fill="white" stroke="black" points="753.5,-682.5 753.5,-701.5 896.5,-701.5 896.5,-682.5 753.5,-682.5"/>
<text text-anchor="middle" x="825" y="-689.5" font-family="Helvetica,sans-Serif" font-size="10.00">BOOST_AUTO_TEST_CASE</text>
</a>
</g>
</g>
<!-- Node1&#45;&gt;Node4 -->
<g id="edge3" class="edge">
<title>Node1&#45;&gt;Node4</title>
<path fill="none" stroke="midnightblue" d="M940.57,-692C926.35,-692 911.16,-692 896.65,-692"/>
<polygon fill="midnightblue" stroke="midnightblue" points="940.72,-695.5 950.72,-692 940.72,-688.5 940.72,-695.5"/>
</g>
<!-- Node5 -->
<g id="node5" class="node">
<title>Node5</title>
<g id="a_node5"><a xlink:href="class_transaction_view.html#a186bf228d4dd2c93e70a8289a2c5b7db" target="_top" xlink:title=" ">
<polygon fill="white" stroke="black" points="546.5,-1056.5 546.5,-1075.5 692.5,-1075.5 692.5,-1056.5 546.5,-1056.5"/>
<text text-anchor="middle" x="619.5" y="-1063.5" font-family="Helvetica,sans-Serif" font-size="10.00">TransactionView::bumpFee</text>
</a>
</g>
</g>
<!-- Node1&#45;&gt;Node5 -->
<g id="edge4" class="edge">
<title>Node1&#45;&gt;Node5</title>
<path fill="none" stroke="midnightblue" d="M998.66,-711.51C988.48,-749.5 961.81,-834.59 915,-891 840.52,-980.75 803.41,-988.03 699,-1040 685.63,-1046.65 670.17,-1052.19 656.52,-1056.42"/>
<polygon fill="midnightblue" stroke="midnightblue" points="1002.08,-712.27 1001.2,-701.71 995.31,-710.51 1002.08,-712.27"/>
</g>
<!-- Node6 -->
<g id="node6" class="node">
<title>Node6</title>
<g id="a_node6"><a xlink:href="class_transaction_view.html#abe5793b86a4ea6f80a6d822ee878e646" target="_top" xlink:title=" ">
<polygon fill="white" stroke="black" points="735,-862.5 735,-881.5 915,-881.5 915,-862.5 735,-862.5"/>
<text text-anchor="middle" x="825" y="-869.5" font-family="Helvetica,sans-Serif" font-size="10.00">TransactionView::contextualMenu</text>
</a>
</g>
</g>
<!-- Node1&#45;&gt;Node6 -->
<g id="edge6" class="edge">
<title>Node1&#45;&gt;Node6</title>
<path fill="none" stroke="midnightblue" d="M986.53,-709.21C949.87,-746.39 864.31,-833.15 835.59,-862.27"/>
<polygon fill="midnightblue" stroke="midnightblue" points="989.43,-711.26 993.96,-701.68 984.44,-706.34 989.43,-711.26"/>
</g>
<!-- Node7 -->
<g id="node7" class="node">
<title>Node7</title>
<g id="a_node7"><a xlink:href="core__read_8cpp.html#a8bd7bbb483c3c2b5738c703496a3829c" target="_top" xlink:title="Parse a hex string into 256 bits.">
<polygon fill="white" stroke="black" points="784.5,-209.5 784.5,-228.5 865.5,-228.5 865.5,-209.5 784.5,-209.5"/>
<text text-anchor="middle" x="825" y="-216.5" font-family="Helvetica,sans-Serif" font-size="10.00">ParseHashStr</text>
</a>
</g>
</g>
<!-- Node1&#45;&gt;Node7 -->
<g id="edge8" class="edge">
<title>Node1&#45;&gt;Node7</title>
<path fill="none" stroke="midnightblue" d="M996.27,-672.74C966.23,-592.67 851.74,-287.58 829.69,-228.82"/>
<polygon fill="midnightblue" stroke="midnightblue" points="993,-673.99 999.79,-682.12 999.56,-671.53 993,-673.99"/>
</g>
<!-- Node27 -->
<g id="node20" class="node">
<title>Node27</title>
<g id="a_node20"><a xlink:href="rest_8cpp.html#a2a2cbf24424d5e4510bad37bdc3e946f" target="_top" xlink:title=" ">
<polygon fill="white" stroke="black" points="783.5,-171.5 783.5,-190.5 866.5,-190.5 866.5,-171.5 783.5,-171.5"/>
<text text-anchor="middle" x="825" y="-178.5" font-family="Helvetica,sans-Serif" font-size="10.00">rest_getutxos</text>
</a>
</g>
</g>
<!-- Node1&#45;&gt;Node27 -->
<g id="edge22" class="edge">
<title>Node1&#45;&gt;Node27</title>
<path fill="none" stroke="midnightblue" d="M1002.78,-672C999.36,-588.54 982.02,-269.23 915,-200 902.58,-187.17 883.79,-181.97 866.66,-180.16"/>
<polygon fill="midnightblue" stroke="midnightblue" points="999.29,-672.3 1003.17,-682.16 1006.28,-672.03 999.29,-672.3"/>
</g>
<!-- Node28 -->
<g id="node21" class="node">
<title>Node28</title>
<g id="a_node21"><a xlink:href="uint256__tests_8cpp.html#a322a536a99b156e7d325a7aeaa44ef8b" target="_top" xlink:title=" ">
<polygon fill="white" stroke="black" points="795.5,-57.5 795.5,-76.5 854.5,-76.5 854.5,-57.5 795.5,-57.5"/>
<text text-anchor="middle" x="825" y="-64.5" font-family="Helvetica,sans-Serif" font-size="10.00">uint160S</text>
</a>
</g>
</g>
<!-- Node1&#45;&gt;Node28 -->
<g id="edge23" class="edge">
<title>Node1&#45;&gt;Node28</title>
<path fill="none" stroke="midnightblue" d="M1001.74,-672.23C993.97,-587.49 961.05,-255.14 915,-162 896.67,-124.92 859.07,-92.31 839.11,-76.72"/>
<polygon fill="midnightblue" stroke="midnightblue" points="998.26,-672.65 1002.65,-682.29 1005.24,-672.02 998.26,-672.65"/>
</g>
<!-- Node30 -->
<g id="node23" class="node">
<title>Node30</title>
<g id="a_node23"><a xlink:href="uint256_8h.html#a52e679560cc1ebf68f878ed69e38f259" target="_top" xlink:title=" ">
<polygon fill="white" stroke="black" points="795.5,-626.5 795.5,-645.5 854.5,-645.5 854.5,-626.5 795.5,-626.5"/>
<text text-anchor="middle" x="825" y="-633.5" font-family="Helvetica,sans-Serif" font-size="10.00">uint256S</text>
</a>
</g>
</g>
<!-- Node1&#45;&gt;Node30 -->
<g id="edge25" class="edge">
<title>Node1&#45;&gt;Node30</title>
<path fill="none" stroke="midnightblue" d="M963.17,-679.28C930.08,-668.84 884.06,-654.32 854.65,-645.04"/>
<polygon fill="midnightblue" stroke="midnightblue" points="962.4,-682.7 972.99,-682.37 964.5,-676.03 962.4,-682.7"/>
</g>
<!-- Node148 -->
<g id="node50" class="node">
<title>Node148</title>
<g id="a_node50"><a xlink:href="class_transaction_table_model.html#a8de43b3c7ba0612304906eb5a2f51a06" target="_top" xlink:title=" ">
<polygon fill="white" stroke="black" points="761,-1045 761,-1075 889,-1075 889,-1045 761,-1045"/>
<text text-anchor="start" x="769" y="-1063" font-family="Helvetica,sans-Serif" font-size="10.00">TransactionTableModel</text>
<text text-anchor="middle" x="825" y="-1052" font-family="Helvetica,sans-Serif" font-size="10.00">::updateTransaction</text>
</a>
</g>
</g>
<!-- Node1&#45;&gt;Node148 -->
<g id="edge57" class="edge">
<title>Node1&#45;&gt;Node148</title>
<path fill="none" stroke="midnightblue" d="M1002.11,-711.64C997.63,-762.81 979.84,-902.64 915,-995 899.94,-1016.45 875.51,-1033.56 856.05,-1044.83"/>
<polygon fill="midnightblue" stroke="midnightblue" points="1005.6,-711.86 1002.91,-701.61 998.63,-711.3 1005.6,-711.86"/>
</g>
<!-- Node3 -->
<g id="node3" class="node">
<title>Node3</title>
<g id="a_node3"><a xlink:href="class_transaction_view.html#a194c58387a43f18ff4f59a2d340fec72" target="_top" xlink:title=" ">
<polygon fill="white" stroke="black" points="323,-1056.5 323,-1075.5 504,-1075.5 504,-1056.5 323,-1056.5"/>
<text text-anchor="middle" x="413.5" y="-1063.5" font-family="Helvetica,sans-Serif" font-size="10.00">TransactionView::TransactionView</text>
</a>
</g>
</g>
<!-- Node2&#45;&gt;Node3 -->
<g id="edge2" class="edge">
<title>Node2&#45;&gt;Node3</title>
<path fill="none" stroke="midnightblue" d="M557.2,-1092.58C528.01,-1087.14 493.51,-1080.72 465.74,-1075.54"/>
<polygon fill="midnightblue" stroke="midnightblue" points="556.81,-1096.07 567.29,-1094.46 558.1,-1089.19 556.81,-1096.07"/>
</g>
<!-- Node5&#45;&gt;Node3 -->
<g id="edge5" class="edge">
<title>Node5&#45;&gt;Node3</title>
<path fill="none" stroke="midnightblue" d="M536.26,-1066C525.69,-1066 514.82,-1066 504.13,-1066"/>
<polygon fill="midnightblue" stroke="midnightblue" points="536.29,-1069.5 546.29,-1066 536.29,-1062.5 536.29,-1069.5"/>
</g>
<!-- Node6&#45;&gt;Node3 -->
<g id="edge7" class="edge">
<title>Node6&#45;&gt;Node3</title>
<path fill="none" stroke="midnightblue" d="M807.81,-888.82C789.8,-907.65 759.94,-939.17 735,-967 718.59,-985.31 720.21,-996.57 699,-1009 679.69,-1020.32 550.03,-1043.4 472.58,-1056.45"/>
<polygon fill="midnightblue" stroke="midnightblue" points="810.37,-891.22 814.76,-881.58 805.31,-886.37 810.37,-891.22"/>
</g>
<!-- Node8 -->
<g id="node8" class="node">
<title>Node8</title>
<g id="a_node8"><a xlink:href="blockfilter__tests_8cpp.html#a7cf593c19cb56edb3bef6bb537845ddc" target="_top" xlink:title=" ">
<polygon fill="white" stroke="black" points="548,-76.5 548,-95.5 691,-95.5 691,-76.5 548,-76.5"/>
<text text-anchor="middle" x="619.5" y="-83.5" font-family="Helvetica,sans-Serif" font-size="10.00">BOOST_AUTO_TEST_CASE</text>
</a>
</g>
</g>
<!-- Node7&#45;&gt;Node8 -->
<g id="edge9" class="edge">
<title>Node7&#45;&gt;Node8</title>
<path fill="none" stroke="midnightblue" d="M774.3,-217.16C760.29,-214.47 745.9,-209.36 735,-200 700.74,-170.59 732.86,-134.88 699,-105 694.69,-101.2 689.75,-98.12 684.48,-95.65"/>
<polygon fill="midnightblue" stroke="midnightblue" points="773.98,-220.65 784.39,-218.72 775.05,-213.73 773.98,-220.65"/>
</g>
<!-- Node9 -->
<g id="node9" class="node">
<title>Node9</title>
<g id="a_node9"><a xlink:href="hex_8cpp.html#ae10d1a08f277272c925eded912945d04" target="_top" xlink:title=" ">
<polygon fill="white" stroke="black" points="563.5,-304.5 563.5,-323.5 675.5,-323.5 675.5,-304.5 563.5,-304.5"/>
<text text-anchor="middle" x="619.5" y="-311.5" font-family="Helvetica,sans-Serif" font-size="10.00">FUZZ_TARGET_INIT</text>
</a>
</g>
</g>
<!-- Node7&#45;&gt;Node9 -->
<g id="edge10" class="edge">
<title>Node7&#45;&gt;Node9</title>
<path fill="none" stroke="midnightblue" d="M802.88,-234.66C778.86,-251.78 737.92,-278.92 699,-295 689.93,-298.75 679.95,-301.87 670.24,-304.42"/>
<polygon fill="midnightblue" stroke="midnightblue" points="805.17,-237.33 811.22,-228.63 801.06,-231.66 805.17,-237.33"/>
</g>
<!-- Node10 -->
<g id="node10" class="node">
<title>Node10</title>
<g id="a_node10"><a xlink:href="rpc_2mining_8cpp.html#a1e316c650d49e89b9b1255855ac1a283" target="_top" xlink:title=" ">
<polygon fill="white" stroke="black" points="201,-171.5 201,-190.5 287,-190.5 287,-171.5 201,-171.5"/>
<text text-anchor="middle" x="244" y="-178.5" font-family="Helvetica,sans-Serif" font-size="10.00">generateblock</text>
</a>
</g>
</g>
<!-- Node7&#45;&gt;Node10 -->
<g id="edge11" class="edge">
<title>Node7&#45;&gt;Node10</title>
<path fill="none" stroke="midnightblue" d="M774.09,-217.88C759.93,-215.23 745.52,-209.97 735,-200 690.54,-157.88 747.63,-104.22 699,-67 554.12,43.88 314.2,-127.38 257.35,-171.21"/>
<polygon fill="midnightblue" stroke="midnightblue" points="773.89,-221.39 784.3,-219.38 774.91,-214.47 773.89,-221.39"/>
</g>
<!-- Node17 -->
<g id="node12" class="node">
<title>Node17</title>
<g id="a_node12"><a xlink:href="bitcoin-tx_8cpp.html#abd2e1752d7c1a910988ccdf3e49a8c21" target="_top" xlink:title=" ">
<polygon fill="white" stroke="black" points="566,-114.5 566,-133.5 673,-133.5 673,-114.5 566,-114.5"/>
<text text-anchor="middle" x="619.5" y="-121.5" font-family="Helvetica,sans-Serif" font-size="10.00">MutateTxAddInput</text>
</a>
</g>
</g>
<!-- Node7&#45;&gt;Node17 -->
<g id="edge13" class="edge">
<title>Node7&#45;&gt;Node17</title>
<path fill="none" stroke="midnightblue" d="M773.9,-215.43C760.38,-212.65 746.36,-207.92 735,-200 710.42,-182.86 723.34,-160.47 699,-143 691.37,-137.52 682.35,-133.61 673.2,-130.82"/>
<polygon fill="midnightblue" stroke="midnightblue" points="773.63,-218.94 784.09,-217.21 774.83,-212.04 773.63,-218.94"/>
</g>
<!-- Node21 -->
<g id="node14" class="node">
<title>Node21</title>
<g id="a_node14"><a xlink:href="bitcoin-tx_8cpp.html#a16aafe92ec3f8643450298e50cfb1ac7" target="_top" xlink:title=" ">
<polygon fill="white" stroke="black" points="577.5,-228.5 577.5,-247.5 661.5,-247.5 661.5,-228.5 577.5,-228.5"/>
<text text-anchor="middle" x="619.5" y="-235.5" font-family="Helvetica,sans-Serif" font-size="10.00">MutateTxSign</text>
</a>
</g>
</g>
<!-- Node7&#45;&gt;Node21 -->
<g id="edge15" class="edge">
<title>Node7&#45;&gt;Node21</title>
<path fill="none" stroke="midnightblue" d="M773.92,-223.68C739.35,-226.9 693.94,-231.14 661.51,-234.17"/>
<polygon fill="midnightblue" stroke="midnightblue" points="774.65,-227.12 784.28,-222.71 774,-220.15 774.65,-227.12"/>
</g>
<!-- Node22 -->
<g id="node15" class="node">
<title>Node22</title>
<g id="a_node15"><a xlink:href="rest_8cpp.html#af558a5b2c0d18a52cdb99830ce001847" target="_top" xlink:title=" ">
<polygon fill="white" stroke="black" points="586,-266.5 586,-285.5 653,-285.5 653,-266.5 586,-266.5"/>
<text text-anchor="middle" x="619.5" y="-273.5" font-family="Helvetica,sans-Serif" font-size="10.00">rest_block</text>
</a>
</g>
</g>
<!-- Node7&#45;&gt;Node22 -->
<g id="edge17" class="edge">
<title>Node7&#45;&gt;Node22</title>
<path fill="none" stroke="midnightblue" d="M784.67,-231.59C760.14,-239.29 727.85,-249.13 699,-257 683.98,-261.1 667.23,-265.21 653.07,-268.56"/>
<polygon fill="midnightblue" stroke="midnightblue" points="785.85,-234.89 794.34,-228.54 783.75,-228.21 785.85,-234.89"/>
</g>
<!-- Node25 -->
<g id="node18" class="node">
<title>Node25</title>
<g id="a_node18"><a xlink:href="rest_8cpp.html#a36aec9a35d3b99bdcaa8e44b521dd648" target="_top" xlink:title=" ">
<polygon fill="white" stroke="black" points="579.5,-190.5 579.5,-209.5 659.5,-209.5 659.5,-190.5 579.5,-190.5"/>
<text text-anchor="middle" x="619.5" y="-197.5" font-family="Helvetica,sans-Serif" font-size="10.00">rest_headers</text>
</a>
</g>
</g>
<!-- Node7&#45;&gt;Node25 -->
<g id="edge20" class="edge">
<title>Node7&#45;&gt;Node25</title>
<path fill="none" stroke="midnightblue" d="M774.2,-214.35C738.97,-211.06 692.39,-206.71 659.77,-203.67"/>
<polygon fill="midnightblue" stroke="midnightblue" points="774,-217.85 784.28,-215.29 774.65,-210.88 774,-217.85"/>
</g>
<!-- Node26 -->
<g id="node19" class="node">
<title>Node26</title>
<g id="a_node19"><a xlink:href="rest_8cpp.html#a577e52f7ebe289a1bcefdd194dae65b2" target="_top" xlink:title=" ">
<polygon fill="white" stroke="black" points="594.5,-152.5 594.5,-171.5 644.5,-171.5 644.5,-152.5 594.5,-152.5"/>
<text text-anchor="middle" x="619.5" y="-159.5" font-family="Helvetica,sans-Serif" font-size="10.00">rest_tx</text>
</a>
</g>
</g>
<!-- Node7&#45;&gt;Node26 -->
<g id="edge21" class="edge">
<title>Node7&#45;&gt;Node26</title>
<path fill="none" stroke="midnightblue" d="M774.19,-210.89C761.23,-208.1 747.42,-204.51 735,-200 717.99,-193.83 715.92,-187.4 699,-181 681.29,-174.3 660.43,-169.39 644.67,-166.23"/>
<polygon fill="midnightblue" stroke="midnightblue" points="773.86,-214.39 784.36,-212.96 775.25,-207.53 773.86,-214.39"/>
</g>
<!-- Node11 -->
<g id="node11" class="node">
<title>Node11</title>
<g id="a_node11"><a xlink:href="rpc_2mining_8cpp.html#aeba9d490bedb150373a4c30b49f5cc00" target="_top" xlink:title="Register mining RPC commands.">
<polygon fill="white" stroke="red" points="0,-171.5 0,-190.5 165,-190.5 165,-171.5 0,-171.5"/>
<text text-anchor="middle" x="82.5" y="-178.5" font-family="Helvetica,sans-Serif" font-size="10.00">RegisterMiningRPCCommands</text>
</a>
</g>
</g>
<!-- Node10&#45;&gt;Node11 -->
<g id="edge12" class="edge">
<title>Node10&#45;&gt;Node11</title>
<path fill="none" stroke="midnightblue" d="M190.6,-181C182.44,-181 173.84,-181 165.22,-181"/>
<polygon fill="midnightblue" stroke="midnightblue" points="190.68,-184.5 200.68,-181 190.68,-177.5 190.68,-184.5"/>
</g>
<!-- Node18 -->
<g id="node13" class="node">
<title>Node18</title>
<g id="a_node13"><a xlink:href="bitcoin-tx_8cpp.html#a63ce19b4d1caddb98e06ee64785e3c6a" target="_top" xlink:title=" ">
<polygon fill="white" stroke="red" points="382,-152.5 382,-171.5 445,-171.5 445,-152.5 382,-152.5"/>
<text text-anchor="middle" x="413.5" y="-159.5" font-family="Helvetica,sans-Serif" font-size="10.00">MutateTx</text>
</a>
</g>
</g>
<!-- Node17&#45;&gt;Node18 -->
<g id="edge14" class="edge">
<title>Node17&#45;&gt;Node18</title>
<path fill="none" stroke="midnightblue" d="M557.1,-135.44C520.11,-142.33 474.62,-150.8 445.11,-156.3"/>
<polygon fill="midnightblue" stroke="midnightblue" points="558.1,-138.81 567.29,-133.54 556.81,-131.93 558.1,-138.81"/>
</g>
<!-- Node21&#45;&gt;Node18 -->
<g id="edge16" class="edge">
<title>Node21&#45;&gt;Node18</title>
<path fill="none" stroke="midnightblue" d="M567.46,-227.13C558.23,-224.75 548.76,-222.02 540,-219 500.63,-205.43 456.8,-183.98 432.76,-171.62"/>
<polygon fill="midnightblue" stroke="midnightblue" points="566.79,-230.57 577.33,-229.58 568.47,-223.78 566.79,-230.57"/>
</g>
<!-- Node23 -->
<g id="node16" class="node">
<title>Node23</title>
<g id="a_node16"><a xlink:href="rest_8cpp.html#adf7bfa76a17255ec6794df9dcfa3ba5f" target="_top" xlink:title=" ">
<polygon fill="white" stroke="black" points="354.5,-228.5 354.5,-247.5 472.5,-247.5 472.5,-228.5 354.5,-228.5"/>
<text text-anchor="middle" x="413.5" y="-235.5" font-family="Helvetica,sans-Serif" font-size="10.00">rest_block_extended</text>
</a>
</g>
</g>
<!-- Node22&#45;&gt;Node23 -->
<g id="edge18" class="edge">
<title>Node22&#45;&gt;Node23</title>
<path fill="none" stroke="midnightblue" d="M575.74,-268.04C543.62,-262.05 499.49,-253.83 465.52,-247.5"/>
<polygon fill="midnightblue" stroke="midnightblue" points="575.25,-271.5 585.72,-269.89 576.53,-264.62 575.25,-271.5"/>
</g>
<!-- Node24 -->
<g id="node17" class="node">
<title>Node24</title>
<g id="a_node17"><a xlink:href="rest_8cpp.html#a68b54438ad0de972881ebf537c9a326e" target="_top" xlink:title=" ">
<polygon fill="white" stroke="black" points="350,-266.5 350,-285.5 477,-285.5 477,-266.5 350,-266.5"/>
<text text-anchor="middle" x="413.5" y="-273.5" font-family="Helvetica,sans-Serif" font-size="10.00">rest_block_notxdetails</text>
</a>
</g>
</g>
<!-- Node22&#45;&gt;Node24 -->
<g id="edge19" class="edge">
<title>Node22&#45;&gt;Node24</title>
<path fill="none" stroke="midnightblue" d="M575.67,-276C547.13,-276 509.16,-276 477.24,-276"/>
<polygon fill="midnightblue" stroke="midnightblue" points="575.72,-279.5 585.72,-276 575.72,-272.5 575.72,-279.5"/>
</g>
<!-- Node29 -->
<g id="node22" class="node">
<title>Node29</title>
<g id="a_node22"><a xlink:href="uint256__tests_8cpp.html#a4c436d9db0127cd9482644d951d28e61" target="_top" xlink:title=" ">
<polygon fill="white" stroke="black" points="548,-0.5 548,-19.5 691,-19.5 691,-0.5 548,-0.5"/>
<text text-anchor="middle" x="619.5" y="-7.5" font-family="Helvetica,sans-Serif" font-size="10.00">BOOST_AUTO_TEST_CASE</text>
</a>
</g>
</g>
<!-- Node28&#45;&gt;Node29 -->
<g id="edge24" class="edge">
<title>Node28&#45;&gt;Node29</title>
<path fill="none" stroke="midnightblue" d="M785.64,-56.26C747.86,-45.67 690.7,-29.66 654.51,-19.52"/>
<polygon fill="midnightblue" stroke="midnightblue" points="784.7,-59.63 795.28,-58.95 786.59,-52.89 784.7,-59.63"/>
</g>
<!-- Node30&#45;&gt;Node9 -->
<g id="edge39" class="edge">
<title>Node30&#45;&gt;Node9</title>
<path fill="none" stroke="midnightblue" d="M821.96,-616.31C815.27,-562.19 788.96,-410.09 699,-333 692.29,-327.25 684.13,-323.18 675.64,-320.31"/>
<polygon fill="midnightblue" stroke="midnightblue" points="818.49,-616.77 823.11,-626.31 825.45,-615.98 818.49,-616.77"/>
</g>
<!-- Node31 -->
<g id="node24" class="node">
<title>Node31</title>
<g id="a_node24"><a xlink:href="init_8cpp.html#aaa92337b42c631fb6b24a979685bf615" target="_top" xlink:title="Initialization: parameter interaction.">
<polygon fill="white" stroke="black" points="542.5,-456.5 542.5,-475.5 696.5,-475.5 696.5,-456.5 542.5,-456.5"/>
<text text-anchor="middle" x="619.5" y="-463.5" font-family="Helvetica,sans-Serif" font-size="10.00">AppInitParameterInteraction</text>
</a>
</g>
</g>
<!-- Node30&#45;&gt;Node31 -->
<g id="edge26" class="edge">
<title>Node30&#45;&gt;Node31</title>
<path fill="none" stroke="midnightblue" d="M814.12,-617.6C795.87,-585.43 753.67,-519.15 699,-485 692.82,-481.14 685.91,-478.06 678.82,-475.61"/>
<polygon fill="midnightblue" stroke="midnightblue" points="811.1,-619.36 819.01,-626.41 817.22,-615.97 811.1,-619.36"/>
</g>
<!-- Node33 -->
<g id="node27" class="node">
<title>Node33</title>
<g id="a_node27"><a xlink:href="bloom__tests_8cpp.html#a74ae73501cfd606ddad7bad958c8978e" target="_top" xlink:title=" ">
<polygon fill="white" stroke="black" points="548,-418.5 548,-437.5 691,-437.5 691,-418.5 548,-418.5"/>
<text text-anchor="middle" x="619.5" y="-425.5" font-family="Helvetica,sans-Serif" font-size="10.00">BOOST_AUTO_TEST_CASE</text>
</a>
</g>
</g>
<!-- Node30&#45;&gt;Node33 -->
<g id="edge29" class="edge">
<title>Node30&#45;&gt;Node33</title>
<path fill="none" stroke="midnightblue" d="M816.93,-616.79C801.7,-578.2 761.99,-491.21 699,-447 693.49,-443.13 687.29,-440.05 680.85,-437.59"/>
<polygon fill="midnightblue" stroke="midnightblue" points="813.73,-618.23 820.57,-626.31 820.27,-615.72 813.73,-618.23"/>
</g>
<!-- Node34 -->
<g id="node28" class="node">
<title>Node34</title>
<g id="a_node28"><a xlink:href="class_c_main_params.html#ab7dfebf3c4dd5cc0ebdfabe1111056d6" target="_top" xlink:title=" ">
<polygon fill="white" stroke="black" points="541.5,-380.5 541.5,-399.5 697.5,-399.5 697.5,-380.5 541.5,-380.5"/>
<text text-anchor="middle" x="619.5" y="-387.5" font-family="Helvetica,sans-Serif" font-size="10.00">CMainParams::CMainParams</text>
</a>
</g>
</g>
<!-- Node30&#45;&gt;Node34 -->
<g id="edge30" class="edge">
<title>Node30&#45;&gt;Node34</title>
<path fill="none" stroke="midnightblue" d="M819.11,-616.65C806.92,-572.5 770.84,-463.89 699,-409 693.99,-405.17 688.31,-402.1 682.36,-399.64"/>
<polygon fill="midnightblue" stroke="midnightblue" points="815.76,-617.65 821.71,-626.42 822.52,-615.85 815.76,-617.65"/>
</g>
<!-- Node35 -->
<g id="node29" class="node">
<title>Node35</title>
<g id="a_node29"><a xlink:href="class_c_chain_state.html#a8961db4f2a9e23128d0d34f4206cc62b" target="_top" xlink:title="Apply the effects of this block (with given index) on the UTXO set represented by coins.">
<polygon fill="white" stroke="black" points="545,-342.5 545,-361.5 694,-361.5 694,-342.5 545,-342.5"/>
<text text-anchor="middle" x="619.5" y="-349.5" font-family="Helvetica,sans-Serif" font-size="10.00">CChainState::ConnectBlock</text>
</a>
</g>
</g>
<!-- Node30&#45;&gt;Node35 -->
<g id="edge31" class="edge">
<title>Node30&#45;&gt;Node35</title>
<path fill="none" stroke="midnightblue" d="M820.72,-616.5C811.37,-567.22 779.85,-436.88 699,-371 694.33,-367.19 689.01,-364.13 683.39,-361.66"/>
<polygon fill="midnightblue" stroke="midnightblue" points="817.3,-617.25 822.52,-626.48 824.19,-616.01 817.3,-617.25"/>
</g>
<!-- Node62 -->
<g id="node33" class="node">
<title>Node62</title>
<g id="a_node33"><a xlink:href="class_c_reg_test_params.html#abd6a789d40eeaf94598c72a6b0e67927" target="_top" xlink:title=" ">
<polygon fill="white" stroke="black" points="545,-969 545,-999 694,-999 694,-969 545,-969"/>
<text text-anchor="start" x="553" y="-987" font-family="Helvetica,sans-Serif" font-size="10.00">CRegTestParams::CRegTest</text>
<text text-anchor="middle" x="619.5" y="-976" font-family="Helvetica,sans-Serif" font-size="10.00">Params</text>
</a>
</g>
</g>
<!-- Node30&#45;&gt;Node62 -->
<g id="edge36" class="edge">
<title>Node30&#45;&gt;Node62</title>
<path fill="none" stroke="midnightblue" d="M785.55,-642.73C767.42,-647.92 747.15,-657.05 735,-673 657.12,-775.28 781.76,-861.63 699,-960 696.16,-963.38 692.85,-966.29 689.23,-968.8"/>
<polygon fill="midnightblue" stroke="midnightblue" points="786.51,-646.1 795.34,-640.23 784.78,-639.31 786.51,-646.1"/>
</g>
<!-- Node63 -->
<g id="node34" class="node">
<title>Node63</title>
<g id="a_node34"><a xlink:href="class_c_test_net_params.html#abbd5f6e3e94bc8abf99a5dfaff75374a" target="_top" xlink:title=" ">
<polygon fill="white" stroke="black" points="546.5,-920 546.5,-950 692.5,-950 692.5,-920 546.5,-920"/>
<text text-anchor="start" x="554.5" y="-938" font-family="Helvetica,sans-Serif" font-size="10.00">CTestNetParams::CTestNet</text>
<text text-anchor="middle" x="619.5" y="-927" font-family="Helvetica,sans-Serif" font-size="10.00">Params</text>
</a>
</g>
</g>
<!-- Node30&#45;&gt;Node63 -->
<g id="edge37" class="edge">
<title>Node30&#45;&gt;Node63</title>
<path fill="none" stroke="midnightblue" d="M785.72,-642.87C767.64,-648.09 747.35,-657.21 735,-673 669.36,-756.92 768.17,-828.97 699,-910 695.75,-913.81 691.92,-917.04 687.73,-919.79"/>
<polygon fill="midnightblue" stroke="midnightblue" points="786.68,-646.23 795.48,-640.34 784.92,-639.46 786.68,-646.23"/>
</g>
<!-- Node64 -->
<g id="node35" class="node">
<title>Node64</title>
<g id="a_node35"><a xlink:href="test_2fuzz_2muhash_8cpp.html#a3bc2bf912b9b22e0ba3966a1e74d2c62" target="_top" xlink:title=" ">
<polygon fill="white" stroke="black" points="576,-881.5 576,-900.5 663,-900.5 663,-881.5 576,-881.5"/>
<text text-anchor="middle" x="619.5" y="-888.5" font-family="Helvetica,sans-Serif" font-size="10.00">FUZZ_TARGET</text>
</a>
</g>
</g>
<!-- Node30&#45;&gt;Node64 -->
<g id="edge38" class="edge">
<title>Node30&#45;&gt;Node64</title>
<path fill="none" stroke="midnightblue" d="M785.53,-643.13C767.59,-648.41 747.48,-657.49 735,-673 678.63,-743.01 760.67,-806.61 699,-872 689.76,-881.79 676.42,-886.91 663.34,-889.49"/>
<polygon fill="midnightblue" stroke="midnightblue" points="786.44,-646.51 795.21,-640.57 784.65,-639.74 786.44,-646.51"/>
</g>
<!-- Node65 -->
<g id="node36" class="node">
<title>Node65</title>
<g id="a_node36"><a xlink:href="setup__common_8cpp.html#acf832730f48649e19719ae40b377a116" target="_top" xlink:title="Return the unsigned from the environment var if available, otherwise 0.">
<polygon fill="white" stroke="black" points="571,-843.5 571,-862.5 668,-862.5 668,-843.5 571,-843.5"/>
<text text-anchor="middle" x="619.5" y="-850.5" font-family="Helvetica,sans-Serif" font-size="10.00">GetUintFromEnv</text>
</a>
</g>
</g>
<!-- Node30&#45;&gt;Node65 -->
<g id="edge40" class="edge">
<title>Node30&#45;&gt;Node65</title>
<path fill="none" stroke="midnightblue" d="M785.3,-643.5C767.55,-648.86 747.68,-657.89 735,-673 687.85,-729.16 750.39,-781.7 699,-834 690.74,-842.4 679.45,-847.33 668.01,-850.17"/>
<polygon fill="midnightblue" stroke="midnightblue" points="786.7,-646.75 795.44,-640.75 784.87,-639.99 786.7,-646.75"/>
</g>
<!-- Node74 -->
<g id="node38" class="node">
<title>Node74</title>
<g id="a_node38"><a xlink:href="class_coin_control_dialog.html#a92d82e9a08d81b99fda6546d83f63a19" target="_top" xlink:title=" ">
<polygon fill="white" stroke="black" points="564,-794 564,-824 675,-824 675,-794 564,-794"/>
<text text-anchor="start" x="572" y="-812" font-family="Helvetica,sans-Serif" font-size="10.00">CoinControlDialog::</text>
<text text-anchor="middle" x="619.5" y="-801" font-family="Helvetica,sans-Serif" font-size="10.00">lockCoin</text>
</a>
</g>
</g>
<!-- Node30&#45;&gt;Node74 -->
<g id="edge42" class="edge">
<title>Node30&#45;&gt;Node74</title>
<path fill="none" stroke="midnightblue" d="M785.14,-644.25C767.72,-649.75 748.17,-658.69 735,-673 699.59,-711.47 736.24,-748.29 699,-785 692.4,-791.5 684.1,-796.25 675.37,-799.72"/>
<polygon fill="midnightblue" stroke="midnightblue" points="786.45,-647.52 795.09,-641.4 784.51,-640.79 786.45,-647.52"/>
</g>
<!-- Node76 -->
<g id="node40" class="node">
<title>Node76</title>
<g id="a_node40"><a xlink:href="rpc_2util_8cpp.html#adb231eaeb57d26011655ee8aaa5315e2" target="_top" xlink:title="Utilities: convert hex&#45;encoded Values (throws error if not hex).">
<polygon fill="white" stroke="red" points="582.5,-608.5 582.5,-627.5 656.5,-627.5 656.5,-608.5 582.5,-608.5"/>
<text text-anchor="middle" x="619.5" y="-615.5" font-family="Helvetica,sans-Serif" font-size="10.00">ParseHashV</text>
</a>
</g>
</g>
<!-- Node30&#45;&gt;Node76 -->
<g id="edge44" class="edge">
<title>Node30&#45;&gt;Node76</title>
<path fill="none" stroke="midnightblue" d="M784.87,-632.54C747.82,-629.26 692.66,-624.38 656.63,-621.2"/>
<polygon fill="midnightblue" stroke="midnightblue" points="785.01,-636.06 795.28,-633.46 785.62,-629.09 785.01,-636.06"/>
</g>
<!-- Node141 -->
<g id="node44" class="node">
<title>Node141</title>
<g id="a_node44"><a xlink:href="classbase__uint.html#ade1a897fac931f28f54998c92c797228" target="_top" xlink:title=" ">
<polygon fill="white" stroke="red" points="567,-570.5 567,-589.5 672,-589.5 672,-570.5 567,-570.5"/>
<text text-anchor="middle" x="619.5" y="-577.5" font-family="Helvetica,sans-Serif" font-size="10.00">base_uint::SetHex</text>
</a>
</g>
</g>
<!-- Node30&#45;&gt;Node141 -->
<g id="edge48" class="edge">
<title>Node30&#45;&gt;Node141</title>
<path fill="none" stroke="midnightblue" d="M785.62,-624.1C760.96,-616.58 728.2,-606.85 699,-599 686.95,-595.76 673.79,-592.48 661.75,-589.57"/>
<polygon fill="midnightblue" stroke="midnightblue" points="784.73,-627.48 795.32,-627.06 786.78,-620.79 784.73,-627.48"/>
</g>
<!-- Node143 -->
<g id="node45" class="node">
<title>Node143</title>
<g id="a_node45"><a xlink:href="class_coin_control_dialog.html#aaab37948490af620c7c2a1ab809c15ff" target="_top" xlink:title=" ">
<polygon fill="white" stroke="black" points="564,-745 564,-775 675,-775 675,-745 564,-745"/>
<text text-anchor="start" x="572" y="-763" font-family="Helvetica,sans-Serif" font-size="10.00">CoinControlDialog::</text>
<text text-anchor="middle" x="619.5" y="-752" font-family="Helvetica,sans-Serif" font-size="10.00">showMenu</text>
</a>
</g>
</g>
<!-- Node30&#45;&gt;Node143 -->
<g id="edge49" class="edge">
<title>Node30&#45;&gt;Node143</title>
<path fill="none" stroke="midnightblue" d="M785.67,-645.8C768.7,-651.58 749.37,-660.32 735,-673 710.82,-694.33 724.19,-715.87 699,-736 691.99,-741.6 683.67,-745.9 675.12,-749.2"/>
<polygon fill="midnightblue" stroke="midnightblue" points="786.86,-649.09 795.33,-642.72 784.74,-642.42 786.86,-649.09"/>
</g>
<!-- Node144 -->
<g id="node46" class="node">
<title>Node144</title>
<g id="a_node46"><a xlink:href="class_sig_net_params.html#a5b967942bed29fde9b3a5b943f553adc" target="_top" xlink:title=" ">
<polygon fill="white" stroke="black" points="540,-532.5 540,-551.5 699,-551.5 699,-532.5 540,-532.5"/>
<text text-anchor="middle" x="619.5" y="-539.5" font-family="Helvetica,sans-Serif" font-size="10.00">SigNetParams::SigNetParams</text>
</a>
</g>
</g>
<!-- Node30&#45;&gt;Node144 -->
<g id="edge51" class="edge">
<title>Node30&#45;&gt;Node144</title>
<path fill="none" stroke="midnightblue" d="M802.46,-620.29C778.36,-603.39 737.62,-576.83 699,-561 689.79,-557.22 679.65,-554.08 669.8,-551.51"/>
<polygon fill="midnightblue" stroke="midnightblue" points="800.66,-623.31 810.84,-626.25 804.72,-617.6 800.66,-623.31"/>
</g>
<!-- Node145 -->
<g id="node47" class="node">
<title>Node145</title>
<g id="a_node47"><a xlink:href="class_coin_control_dialog.html#a3097ebdc8972660aae30f49f2ccd1d8c" target="_top" xlink:title=" ">
<polygon fill="white" stroke="black" points="564,-696 564,-726 675,-726 675,-696 564,-696"/>
<text text-anchor="start" x="572" y="-714" font-family="Helvetica,sans-Serif" font-size="10.00">CoinControlDialog::</text>
<text text-anchor="middle" x="619.5" y="-703" font-family="Helvetica,sans-Serif" font-size="10.00">unlockCoin</text>
</a>
</g>
</g>
<!-- Node30&#45;&gt;Node145 -->
<g id="edge52" class="edge">
<title>Node30&#45;&gt;Node145</title>
<path fill="none" stroke="midnightblue" d="M791.74,-649.55C760.92,-662.43 716.63,-680.72 699,-687 690.41,-690.06 681.21,-693.09 672.23,-695.91"/>
<polygon fill="midnightblue" stroke="midnightblue" points="793.34,-652.67 801.22,-645.59 790.64,-646.22 793.34,-652.67"/>
</g>
<!-- Node146 -->
<g id="node48" class="node">
<title>Node146</title>
<g id="a_node48"><a xlink:href="class_coin_control_dialog.html#ac3c37dabd83f71d9c96bf5567fe85234" target="_top" xlink:title=" ">
<polygon fill="white" stroke="black" points="564,-647 564,-677 675,-677 675,-647 564,-647"/>
<text text-anchor="start" x="572" y="-665" font-family="Helvetica,sans-Serif" font-size="10.00">CoinControlDialog::</text>
<text text-anchor="middle" x="619.5" y="-654" font-family="Helvetica,sans-Serif" font-size="10.00">viewItemChanged</text>
</a>
</g>
</g>
<!-- Node30&#45;&gt;Node146 -->
<g id="edge54" class="edge">
<title>Node30&#45;&gt;Node146</title>
<path fill="none" stroke="midnightblue" d="M785.23,-640.95C754.05,-644.94 709.86,-650.58 675.1,-655.02"/>
<polygon fill="midnightblue" stroke="midnightblue" points="785.8,-644.41 795.28,-639.67 784.91,-637.47 785.8,-644.41"/>
</g>
<!-- Node147 -->
<g id="node49" class="node">
<title>Node147</title>
<g id="a_node49"><a xlink:href="class_coin_stats_index.html#abb1dc5dbc7f41fa7667dc27713411b2e" target="_top" xlink:title="Write update index entries for a newly connected block.">
<polygon fill="white" stroke="black" points="545,-494.5 545,-513.5 694,-513.5 694,-494.5 545,-494.5"/>
<text text-anchor="middle" x="619.5" y="-501.5" font-family="Helvetica,sans-Serif" font-size="10.00">CoinStatsIndex::WriteBlock</text>
</a>
</g>
</g>
<!-- Node30&#45;&gt;Node147 -->
<g id="edge56" class="edge">
<title>Node30&#45;&gt;Node147</title>
<path fill="none" stroke="midnightblue" d="M809.73,-618.46C788.34,-593.37 745.5,-547.58 699,-523 691.69,-519.13 683.57,-516.04 675.42,-513.57"/>
<polygon fill="midnightblue" stroke="midnightblue" points="807.27,-620.97 816.37,-626.4 812.64,-616.48 807.27,-620.97"/>
</g>
<!-- Node14 -->
<g id="node25" class="node">
<title>Node14</title>
<g id="a_node25"><a xlink:href="bitcoind_8cpp.html#a111f3c7b82a1c083ce04328e970f5aca" target="_top" xlink:title=" ">
<polygon fill="white" stroke="red" points="388,-484.5 388,-503.5 439,-503.5 439,-484.5 388,-484.5"/>
<text text-anchor="middle" x="413.5" y="-491.5" font-family="Helvetica,sans-Serif" font-size="10.00">AppInit</text>
</a>
</g>
</g>
<!-- Node31&#45;&gt;Node14 -->
<g id="edge27" class="edge">
<title>Node31&#45;&gt;Node14</title>
<path fill="none" stroke="midnightblue" d="M538.79,-476.94C503.39,-481.8 464.22,-487.18 439.49,-490.57"/>
<polygon fill="midnightblue" stroke="midnightblue" points="539.72,-480.35 549.15,-475.52 538.77,-473.41 539.72,-480.35"/>
</g>
<!-- Node32 -->
<g id="node26" class="node">
<title>Node32</title>
<g id="a_node26"><a xlink:href="struct_basic_testing_setup.html#a8684b845f50ef68c606ecf9213905b2c" target="_top" xlink:title=" ">
<polygon fill="white" stroke="black" points="358,-435 358,-465 469,-465 469,-435 358,-435"/>
<text text-anchor="start" x="366" y="-453" font-family="Helvetica,sans-Serif" font-size="10.00">BasicTestingSetup::</text>
<text text-anchor="middle" x="413.5" y="-442" font-family="Helvetica,sans-Serif" font-size="10.00">BasicTestingSetup</text>
</a>
</g>
</g>
<!-- Node31&#45;&gt;Node32 -->
<g id="edge28" class="edge">
<title>Node31&#45;&gt;Node32</title>
<path fill="none" stroke="midnightblue" d="M532.17,-459.23C510.77,-457.55 488.42,-455.8 469.03,-454.28"/>
<polygon fill="midnightblue" stroke="midnightblue" points="532,-462.73 542.25,-460.02 532.55,-455.75 532,-462.73"/>
</g>
<!-- Node36 -->
<g id="node30" class="node">
<title>Node36</title>
<g id="a_node30"><a xlink:href="class_c_chain_state.html#a3ff41dbb22a3f8ac8b3e2cceff4294b9" target="_top" xlink:title="Connect a new block to m_chain.">
<polygon fill="white" stroke="red" points="345,-342.5 345,-361.5 482,-361.5 482,-342.5 345,-342.5"/>
<text text-anchor="middle" x="413.5" y="-349.5" font-family="Helvetica,sans-Serif" font-size="10.00">CChainState::ConnectTip</text>
</a>
</g>
</g>
<!-- Node35&#45;&gt;Node36 -->
<g id="edge32" class="edge">
<title>Node35&#45;&gt;Node36</title>
<path fill="none" stroke="midnightblue" d="M534.68,-352C517.23,-352 499.05,-352 482.27,-352"/>
<polygon fill="midnightblue" stroke="midnightblue" points="534.85,-355.5 544.85,-352 534.85,-348.5 534.85,-355.5"/>
</g>
<!-- Node47 -->
<g id="node31" class="node">
<title>Node47</title>
<g id="a_node31"><a xlink:href="validation_8cpp.html#a982fd5a0fb42d86f7de71a41e098db29" target="_top" xlink:title="Check a block is completely valid from start to finish (only works on top of our current best block)">
<polygon fill="white" stroke="red" points="363.5,-304.5 363.5,-323.5 463.5,-323.5 463.5,-304.5 363.5,-304.5"/>
<text text-anchor="middle" x="413.5" y="-311.5" font-family="Helvetica,sans-Serif" font-size="10.00">TestBlockValidity</text>
</a>
</g>
</g>
<!-- Node35&#45;&gt;Node47 -->
<g id="edge33" class="edge">
<title>Node35&#45;&gt;Node47</title>
<path fill="none" stroke="midnightblue" d="M557.36,-340.61C527.39,-335.03 491.79,-328.4 463.62,-323.15"/>
<polygon fill="midnightblue" stroke="midnightblue" points="556.81,-344.07 567.29,-342.46 558.1,-337.19 556.81,-344.07"/>
</g>
<!-- Node60 -->
<g id="node32" class="node">
<title>Node60</title>
<g id="a_node32"><a xlink:href="class_c_verify_d_b.html#ab93ceb35451e748fdfd1b7ab89b17b4f" target="_top" xlink:title=" ">
<polygon fill="white" stroke="red" points="357,-380.5 357,-399.5 470,-399.5 470,-380.5 357,-380.5"/>
<text text-anchor="middle" x="413.5" y="-387.5" font-family="Helvetica,sans-Serif" font-size="10.00">CVerifyDB::VerifyDB</text>
</a>
</g>
</g>
<!-- Node35&#45;&gt;Node60 -->
<g id="edge35" class="edge">
<title>Node35&#45;&gt;Node60</title>
<path fill="none" stroke="midnightblue" d="M557.2,-363.42C528.01,-368.86 493.51,-375.28 465.74,-380.46"/>
<polygon fill="midnightblue" stroke="midnightblue" points="558.1,-366.81 567.29,-361.54 556.81,-359.93 558.1,-366.81"/>
</g>
<!-- Node47&#45;&gt;Node10 -->
<g id="edge34" class="edge">
<title>Node47&#45;&gt;Node10</title>
<path fill="none" stroke="midnightblue" d="M353.54,-308.15C342.78,-305.28 332.1,-301.09 323,-295 282.95,-268.18 257.7,-213.2 248.71,-190.81"/>
<polygon fill="midnightblue" stroke="midnightblue" points="352.86,-311.58 363.39,-310.43 354.44,-304.76 352.86,-311.58"/>
</g>
<!-- Node66 -->
<g id="node37" class="node">
<title>Node66</title>
<g id="a_node37"><a xlink:href="setup__common_8cpp.html#aa51a422ad6f560eab50e8aafe36e6aba" target="_top" xlink:title="Seed the given random ctx or use the seed passed in via an environment var.">
<polygon fill="white" stroke="red" points="393,-843.5 393,-862.5 434,-862.5 434,-843.5 393,-843.5"/>
<text text-anchor="middle" x="413.5" y="-850.5" font-family="Helvetica,sans-Serif" font-size="10.00">Seed</text>
</a>
</g>
</g>
<!-- Node65&#45;&gt;Node66 -->
<g id="edge41" class="edge">
<title>Node65&#45;&gt;Node66</title>
<path fill="none" stroke="midnightblue" d="M560.7,-853C518.21,-853 463.03,-853 434.12,-853"/>
<polygon fill="midnightblue" stroke="midnightblue" points="560.93,-856.5 570.93,-853 560.93,-849.5 560.93,-856.5"/>
</g>
<!-- Node75 -->
<g id="node39" class="node">
<title>Node75</title>
<g id="a_node39"><a xlink:href="class_coin_control_dialog.html#a9670b95cf72fa2af5a766940e9ab5b21" target="_top" xlink:title=" ">
<polygon fill="white" stroke="black" points="358,-720 358,-750 469,-750 469,-720 358,-720"/>
<text text-anchor="start" x="366" y="-738" font-family="Helvetica,sans-Serif" font-size="10.00">CoinControlDialog::</text>
<text text-anchor="middle" x="413.5" y="-727" font-family="Helvetica,sans-Serif" font-size="10.00">CoinControlDialog</text>
</a>
</g>
</g>
<!-- Node74&#45;&gt;Node75 -->
<g id="edge43" class="edge">
<title>Node74&#45;&gt;Node75</title>
<path fill="none" stroke="midnightblue" d="M557.33,-790.84C551.45,-788.93 545.6,-786.97 540,-785 509.24,-774.19 474.89,-760.38 449.91,-750.01"/>
<polygon fill="midnightblue" stroke="midnightblue" points="556.62,-794.28 567.21,-793.98 558.74,-787.61 556.62,-794.28"/>
</g>
<!-- Node77 -->
<g id="node41" class="node">
<title>Node77</title>
<g id="a_node41"><a xlink:href="rpcwallet_8cpp.html#afdf1c02be806780e987dc291f421a173" target="_top" xlink:title=" ">
<polygon fill="white" stroke="red" points="357,-646.5 357,-665.5 470,-665.5 470,-646.5 357,-646.5"/>
<text text-anchor="middle" x="413.5" y="-653.5" font-family="Helvetica,sans-Serif" font-size="10.00">abandontransaction</text>
</a>
</g>
</g>
<!-- Node76&#45;&gt;Node77 -->
<g id="edge45" class="edge">
<title>Node76&#45;&gt;Node77</title>
<path fill="none" stroke="midnightblue" d="M572.6,-626.55C540.88,-632.46 498.66,-640.32 465.83,-646.44"/>
<polygon fill="midnightblue" stroke="midnightblue" points="573.31,-629.98 582.5,-624.71 572.03,-623.1 573.31,-629.98"/>
</g>
<!-- Node79 -->
<g id="node42" class="node">
<title>Node79</title>
<g id="a_node42"><a xlink:href="rpcwallet_8cpp.html#a09d4fde10c059f903bc22986003ebc35" target="_top" xlink:title=" ">
<polygon fill="white" stroke="red" points="365.5,-608.5 365.5,-627.5 461.5,-627.5 461.5,-608.5 365.5,-608.5"/>
<text text-anchor="middle" x="413.5" y="-615.5" font-family="Helvetica,sans-Serif" font-size="10.00">bumpfee_helper</text>
</a>
</g>
</g>
<!-- Node76&#45;&gt;Node79 -->
<g id="edge46" class="edge">
<title>Node76&#45;&gt;Node79</title>
<path fill="none" stroke="midnightblue" d="M572.19,-618C539.16,-618 494.87,-618 461.64,-618"/>
<polygon fill="midnightblue" stroke="midnightblue" points="572.5,-621.5 582.5,-618 572.5,-614.5 572.5,-621.5"/>
</g>
<!-- Node82 -->
<g id="node43" class="node">
<title>Node82</title>
<g id="a_node43"><a xlink:href="parse__univalue_8cpp.html#a68a527f86023886f90ecfc9cbdef2ce4" target="_top" xlink:title=" ">
<polygon fill="white" stroke="black" points="357.5,-570.5 357.5,-589.5 469.5,-589.5 469.5,-570.5 357.5,-570.5"/>
<text text-anchor="middle" x="413.5" y="-577.5" font-family="Helvetica,sans-Serif" font-size="10.00">FUZZ_TARGET_INIT</text>
</a>
</g>
</g>
<!-- Node76&#45;&gt;Node82 -->
<g id="edge47" class="edge">
<title>Node76&#45;&gt;Node82</title>
<path fill="none" stroke="midnightblue" d="M572.6,-609.45C540.88,-603.54 498.66,-595.68 465.83,-589.56"/>
<polygon fill="midnightblue" stroke="midnightblue" points="572.03,-612.9 582.5,-611.29 573.31,-606.02 572.03,-612.9"/>
</g>
<!-- Node143&#45;&gt;Node75 -->
<g id="edge50" class="edge">
<title>Node143&#45;&gt;Node75</title>
<path fill="none" stroke="midnightblue" d="M553.65,-752.05C526.5,-748.73 495.29,-744.9 469.32,-741.72"/>
<polygon fill="midnightblue" stroke="midnightblue" points="553.48,-755.56 563.83,-753.3 554.33,-748.61 553.48,-755.56"/>
</g>
<!-- Node145&#45;&gt;Node75 -->
<g id="edge53" class="edge">
<title>Node145&#45;&gt;Node75</title>
<path fill="none" stroke="midnightblue" d="M553.65,-718.63C526.5,-721.82 495.29,-725.49 469.32,-728.55"/>
<polygon fill="midnightblue" stroke="midnightblue" points="554.31,-722.08 563.83,-717.43 553.49,-715.12 554.31,-722.08"/>
</g>
<!-- Node146&#45;&gt;Node75 -->
<g id="edge55" class="edge">
<title>Node146&#45;&gt;Node75</title>
<path fill="none" stroke="midnightblue" d="M559.95,-680.24C553.2,-682.46 546.44,-684.75 540,-687 510.28,-697.41 477,-710.19 452.19,-719.94"/>
<polygon fill="midnightblue" stroke="midnightblue" points="561.36,-683.46 569.78,-677.04 559.19,-676.81 561.36,-683.46"/>
</g>
<!-- Node148&#45;&gt;Node2 -->
<g id="edge58" class="edge">
<title>Node148&#45;&gt;Node2</title>
<path fill="none" stroke="midnightblue" d="M750.7,-1075.85C721.91,-1082.07 689.82,-1089.01 664.7,-1094.44"/>
<polygon fill="midnightblue" stroke="midnightblue" points="751.69,-1079.22 760.73,-1073.68 750.21,-1072.37 751.69,-1079.22"/>
</g>
<!-- Node148&#45;&gt;Node5 -->
<g id="edge59" class="edge">
<title>Node148&#45;&gt;Node5</title>
<path fill="none" stroke="midnightblue" d="M750.69,-1062.16C731.79,-1062.72 711.46,-1063.32 692.62,-1063.87"/>
<polygon fill="midnightblue" stroke="midnightblue" points="750.83,-1065.66 760.73,-1061.87 750.63,-1058.66 750.83,-1065.66"/>
</g>
</g>
</svg>
