<?xml version="1.0" encoding="UTF-8" standalone="no"?>
<!DOCTYPE svg PUBLIC "-//W3C//DTD SVG 1.1//EN"
 "http://www.w3.org/Graphics/SVG/1.1/DTD/svg11.dtd">
<!-- Generated by graphviz version 2.38.0 (20140413.2041)
 -->
<!-- Title: CScript::EncodeOP_N Pages: 1 -->
<svg width="1264pt" height="350pt"
 viewBox="0.00 0.00 1264.00 350.00" xmlns="http://www.w3.org/2000/svg" xmlns:xlink="http://www.w3.org/1999/xlink">
<g id="graph0" class="graph" transform="scale(1 1) rotate(0) translate(4 346)">
<title>CScript::EncodeOP_N</title>
<polygon fill="white" stroke="none" points="-4,4 -4,-346 1260,-346 1260,4 -4,4"/>
<!-- Node1 -->
<g id="node1" class="node"><title>Node1</title>
<polygon fill="#bfbfbf" stroke="black" points="0,-82.5 0,-101.5 119,-101.5 119,-82.5 0,-82.5"/>
<text text-anchor="middle" x="59.5" y="-89.5" font-family="Helvetica,sans-Serif" font-size="10.00">CScript::EncodeOP_N</text>
</g>
<!-- Node2 -->
<g id="node2" class="node"><title>Node2</title>
<g id="a_node2"><a xlink:href="class_mutable_transaction_signature_creator.html#ad66cfa8bc9e1222e30125c90d1ecaddf" target="_top" xlink:title="Create a singular (non&#45;script) signature. ">
<polygon fill="white" stroke="black" points="155,-140 155,-170 310,-170 310,-140 155,-140"/>
<text text-anchor="start" x="163" y="-158" font-family="Helvetica,sans-Serif" font-size="10.00">MutableTransactionSignature</text>
<text text-anchor="middle" x="232.5" y="-147" font-family="Helvetica,sans-Serif" font-size="10.00">Creator::CreateSig</text>
</a>
</g>
</g>
<!-- Node1&#45;&gt;Node2 -->
<g id="edge1" class="edge"><title>Node1&#45;&gt;Node2</title>
<path fill="none" stroke="midnightblue" d="M96.1007,-105.116C123.644,-115.263 161.815,-129.326 190.609,-139.935"/>
<polygon fill="midnightblue" stroke="midnightblue" points="97.0646,-101.741 86.4712,-101.568 94.6447,-108.31 97.0646,-101.741"/>
</g>
<!-- Node4 -->
<g id="node4" class="node"><title>Node4</title>
<g id="a_node4"><a xlink:href="standard_8h.html#a49e36ddce090cc66aba405c0755c8be7" target="_top" xlink:title="Parse a standard scriptPubKey with one or more destination addresses. ">
<polygon fill="white" stroke="black" points="177.5,-82.5 177.5,-101.5 287.5,-101.5 287.5,-82.5 177.5,-82.5"/>
<text text-anchor="middle" x="232.5" y="-89.5" font-family="Helvetica,sans-Serif" font-size="10.00">ExtractDestinations</text>
</a>
</g>
</g>
<!-- Node1&#45;&gt;Node4 -->
<g id="edge3" class="edge"><title>Node1&#45;&gt;Node4</title>
<path fill="none" stroke="midnightblue" d="M129.665,-92C145.573,-92 162.265,-92 177.426,-92"/>
<polygon fill="midnightblue" stroke="midnightblue" points="129.349,-88.5001 119.348,-92 129.348,-95.5001 129.349,-88.5001"/>
</g>
<!-- Node18 -->
<g id="node18" class="node"><title>Node18</title>
<g id="a_node18"><a xlink:href="standard_8h.html#a7030aee2e7c653ebc11b77dab70b09f1" target="_top" xlink:title="Generate a multisig script. ">
<polygon fill="white" stroke="black" points="176,-35.5 176,-54.5 289,-54.5 289,-35.5 176,-35.5"/>
<text text-anchor="middle" x="232.5" y="-42.5" font-family="Helvetica,sans-Serif" font-size="10.00">GetScriptForMultisig</text>
</a>
</g>
</g>
<!-- Node1&#45;&gt;Node18 -->
<g id="edge23" class="edge"><title>Node1&#45;&gt;Node18</title>
<path fill="none" stroke="midnightblue" d="M104.857,-79.8084C133.464,-71.9455 170.141,-61.8649 196.654,-54.5776"/>
<polygon fill="midnightblue" stroke="midnightblue" points="103.819,-76.4637 95.1044,-82.4888 105.674,-83.2134 103.819,-76.4637"/>
</g>
<!-- Node3 -->
<g id="node3" class="node"><title>Node3</title>
<g id="a_node3"><a xlink:href="sign_8h.html#ac425c440cbc90e69519067760dc68df7" target="_top" xlink:title="SignSignature">
<polygon fill="white" stroke="black" points="379,-155.5 379,-174.5 463,-174.5 463,-155.5 379,-155.5"/>
<text text-anchor="middle" x="421" y="-162.5" font-family="Helvetica,sans-Serif" font-size="10.00">SignSignature</text>
</a>
</g>
</g>
<!-- Node2&#45;&gt;Node3 -->
<g id="edge2" class="edge"><title>Node2&#45;&gt;Node3</title>
<path fill="none" stroke="midnightblue" d="M320.151,-159.646C340.599,-160.743 361.473,-161.862 378.813,-162.792"/>
<polygon fill="midnightblue" stroke="midnightblue" points="320.337,-156.151 310.164,-159.111 319.962,-163.141 320.337,-156.151"/>
</g>
<!-- Node5 -->
<g id="node5" class="node"><title>Node5</title>
<g id="a_node5"><a xlink:href="core__write_8cpp.html#a4a51bf7268adbdcd58e7af445ea4db61" target="_top" xlink:title="ScriptPubKeyToUniv">
<polygon fill="white" stroke="black" points="366,-117.5 366,-136.5 476,-136.5 476,-117.5 366,-117.5"/>
<text text-anchor="middle" x="421" y="-124.5" font-family="Helvetica,sans-Serif" font-size="10.00">ScriptPubKeyToUniv</text>
</a>
</g>
</g>
<!-- Node4&#45;&gt;Node5 -->
<g id="edge4" class="edge"><title>Node4&#45;&gt;Node5</title>
<path fill="none" stroke="midnightblue" d="M294.575,-103.462C318.692,-107.988 346.081,-113.128 369.1,-117.448"/>
<polygon fill="midnightblue" stroke="midnightblue" points="294.936,-99.9685 284.462,-101.564 293.645,-106.848 294.936,-99.9685"/>
</g>
<!-- Node13 -->
<g id="node13" class="node"><title>Node13</title>
<g id="a_node13"><a xlink:href="class_c_affected_keys_visitor.html#a749859ce2a826e2d60c8fe31685efae3" target="_top" xlink:title="CAffectedKeysVisitor\l::Process">
<polygon fill="white" stroke="black" points="363.5,-68 363.5,-98 478.5,-98 478.5,-68 363.5,-68"/>
<text text-anchor="start" x="371.5" y="-86" font-family="Helvetica,sans-Serif" font-size="10.00">CAffectedKeysVisitor</text>
<text text-anchor="middle" x="421" y="-75" font-family="Helvetica,sans-Serif" font-size="10.00">::Process</text>
</a>
</g>
</g>
<!-- Node4&#45;&gt;Node13 -->
<g id="edge18" class="edge"><title>Node4&#45;&gt;Node13</title>
<path fill="none" stroke="midnightblue" d="M297.944,-88.8901C319.233,-87.8628 342.742,-86.7283 363.399,-85.7314"/>
<polygon fill="midnightblue" stroke="midnightblue" points="297.514,-85.4067 287.694,-89.3847 297.851,-92.3986 297.514,-85.4067"/>
</g>
<!-- Node6 -->
<g id="node6" class="node"><title>Node6</title>
<g id="a_node6"><a xlink:href="core__write_8cpp.html#a14497f9c37438be66cf5904854fc2530" target="_top" xlink:title="TxToUniv">
<polygon fill="white" stroke="black" points="590,-265.5 590,-284.5 648,-284.5 648,-265.5 590,-265.5"/>
<text text-anchor="middle" x="619" y="-272.5" font-family="Helvetica,sans-Serif" font-size="10.00">TxToUniv</text>
</a>
</g>
</g>
<!-- Node5&#45;&gt;Node6 -->
<g id="edge5" class="edge"><title>Node5&#45;&gt;Node6</title>
<path fill="none" stroke="midnightblue" d="M483.842,-139.994C488.07,-141.751 492.168,-143.743 496,-146 523.755,-162.348 587.507,-237.984 609.98,-265.205"/>
<polygon fill="midnightblue" stroke="midnightblue" points="485.023,-136.699 474.43,-136.509 482.593,-143.263 485.023,-136.699"/>
</g>
<!-- Node8 -->
<g id="node8" class="node"><title>Node8</title>
<g id="a_node8"><a xlink:href="struct_c_coin.html#a2a0a2532bdacb03b087b3b0a400830ec" target="_top" xlink:title="CCoin::SerializationOp">
<polygon fill="white" stroke="black" points="1134,-190.5 1134,-209.5 1256,-209.5 1256,-190.5 1134,-190.5"/>
<text text-anchor="middle" x="1195" y="-197.5" font-family="Helvetica,sans-Serif" font-size="10.00">CCoin::SerializationOp</text>
</a>
</g>
</g>
<!-- Node5&#45;&gt;Node8 -->
<g id="edge13" class="edge"><title>Node5&#45;&gt;Node8</title>
<path fill="none" stroke="midnightblue" d="M486.086,-131.694C643.073,-143.253 1038.41,-172.751 1098,-181 1115.5,-183.423 1134.63,-187.013 1151.17,-190.422"/>
<polygon fill="midnightblue" stroke="midnightblue" points="486.327,-128.202 476.097,-130.959 485.813,-135.183 486.327,-128.202"/>
</g>
<!-- Node11 -->
<g id="node11" class="node"><title>Node11</title>
<g id="a_node11"><a xlink:href="blockchain_8cpp.html#a0d3ec9ae23b08828dd7ca646766ca637" target="_top" xlink:title="gettxout">
<polygon fill="white" stroke="black" points="796.5,-105.5 796.5,-124.5 853.5,-124.5 853.5,-105.5 796.5,-105.5"/>
<text text-anchor="middle" x="825" y="-112.5" font-family="Helvetica,sans-Serif" font-size="10.00">gettxout</text>
</a>
</g>
</g>
<!-- Node5&#45;&gt;Node11 -->
<g id="edge14" class="edge"><title>Node5&#45;&gt;Node11</title>
<path fill="none" stroke="midnightblue" d="M486.472,-125.075C575.594,-122.415 732.62,-117.728 796.153,-115.831"/>
<polygon fill="midnightblue" stroke="midnightblue" points="486.107,-121.585 476.216,-125.382 486.316,-128.582 486.107,-121.585"/>
</g>
<!-- Node7 -->
<g id="node7" class="node"><title>Node7</title>
<g id="a_node7"><a xlink:href="class_secp256k1_init.html#afc30fc1b48da30544d3365df6ed3e3f4" target="_top" xlink:title="Secp256k1Init::~Secp256k1Init">
<polygon fill="white" stroke="black" points="742,-322.5 742,-341.5 908,-341.5 908,-322.5 742,-322.5"/>
<text text-anchor="middle" x="825" y="-329.5" font-family="Helvetica,sans-Serif" font-size="10.00">Secp256k1Init::~Secp256k1Init</text>
</a>
</g>
</g>
<!-- Node6&#45;&gt;Node7 -->
<g id="edge6" class="edge"><title>Node6&#45;&gt;Node7</title>
<path fill="none" stroke="midnightblue" d="M658.002,-285.618C695.814,-296.183 753.316,-312.25 789.754,-322.431"/>
<polygon fill="midnightblue" stroke="midnightblue" points="658.938,-282.246 648.365,-282.926 657.055,-288.988 658.938,-282.246"/>
</g>
<!-- Node6&#45;&gt;Node8 -->
<g id="edge7" class="edge"><title>Node6&#45;&gt;Node8</title>
<path fill="none" stroke="midnightblue" d="M658.111,-280.925C740.771,-292.26 941.672,-311.579 1098,-260 1131.78,-248.854 1165.78,-223.475 1182.81,-209.562"/>
<polygon fill="midnightblue" stroke="midnightblue" points="658.558,-277.453 648.167,-279.52 657.579,-284.384 658.558,-277.453"/>
</g>
<!-- Node9 -->
<g id="node9" class="node"><title>Node9</title>
<g id="a_node9"><a xlink:href="blockchain_8h.html#a6b596f07acd85fe676c798170fd8ddbe" target="_top" xlink:title="Block description to JSON. ">
<polygon fill="white" stroke="black" points="787.5,-246.5 787.5,-265.5 862.5,-265.5 862.5,-246.5 787.5,-246.5"/>
<text text-anchor="middle" x="825" y="-253.5" font-family="Helvetica,sans-Serif" font-size="10.00">blockToJSON</text>
</a>
</g>
</g>
<!-- Node6&#45;&gt;Node9 -->
<g id="edge8" class="edge"><title>Node6&#45;&gt;Node9</title>
<path fill="none" stroke="midnightblue" d="M658.74,-271.392C695.7,-267.949 750.973,-262.802 787.256,-259.422"/>
<polygon fill="midnightblue" stroke="midnightblue" points="657.998,-267.946 648.365,-272.358 658.647,-274.916 657.998,-267.946"/>
</g>
<!-- Node9&#45;&gt;Node8 -->
<g id="edge9" class="edge"><title>Node9&#45;&gt;Node8</title>
<path fill="none" stroke="midnightblue" d="M872.648,-256.927C927.309,-257.056 1020.29,-254.279 1098,-237 1125.37,-230.913 1155.28,-218.376 1174.31,-209.589"/>
<polygon fill="midnightblue" stroke="midnightblue" points="872.591,-253.427 862.571,-256.869 872.551,-260.427 872.591,-253.427"/>
</g>
<!-- Node10 -->
<g id="node10" class="node"><title>Node10</title>
<g id="a_node10"><a xlink:href="blockchain_8h.html#a3b8a8939a31de29ceb0ea581341eeb92" target="_top" xlink:title="Mempool to JSON. ">
<polygon fill="white" stroke="black" points="973,-190.5 973,-209.5 1069,-209.5 1069,-190.5 973,-190.5"/>
<text text-anchor="middle" x="1021" y="-197.5" font-family="Helvetica,sans-Serif" font-size="10.00">mempoolToJSON</text>
</a>
</g>
</g>
<!-- Node9&#45;&gt;Node10 -->
<g id="edge10" class="edge"><title>Node9&#45;&gt;Node10</title>
<path fill="none" stroke="midnightblue" d="M868.998,-243.588C904.641,-233.3 954.561,-218.889 987.085,-209.501"/>
<polygon fill="midnightblue" stroke="midnightblue" points="867.987,-240.237 859.35,-246.373 869.928,-246.963 867.987,-240.237"/>
</g>
<!-- Node10&#45;&gt;Node8 -->
<g id="edge11" class="edge"><title>Node10&#45;&gt;Node8</title>
<path fill="none" stroke="midnightblue" d="M1079.5,-200C1096.94,-200 1116.15,-200 1133.77,-200"/>
<polygon fill="midnightblue" stroke="midnightblue" points="1079.46,-196.5 1069.46,-200 1079.46,-203.5 1079.46,-196.5"/>
</g>
<!-- Node10&#45;&gt;Node10 -->
<g id="edge12" class="edge"><title>Node10&#45;&gt;Node10</title>
<path fill="none" stroke="midnightblue" d="M988.44,-218.275C989.368,-223.741 1000.22,-228 1021,-228 1051.93,-228 1060.87,-218.565 1047.82,-209.757"/>
<polygon fill="midnightblue" stroke="midnightblue" points="991.494,-220.005 994.182,-209.757 985.69,-216.093 991.494,-220.005"/>
</g>
<!-- Node12 -->
<g id="node12" class="node"><title>Node12</title>
<g id="a_node12"><a xlink:href="blockchain_8h.html#a7305038a43cc5f399ca00e00c6f07186" target="_top" xlink:title="Mempool information to JSON. ">
<polygon fill="white" stroke="black" points="964.5,-96.5 964.5,-115.5 1077.5,-115.5 1077.5,-96.5 964.5,-96.5"/>
<text text-anchor="middle" x="1021" y="-103.5" font-family="Helvetica,sans-Serif" font-size="10.00">mempoolInfoToJSON</text>
</a>
</g>
</g>
<!-- Node11&#45;&gt;Node12 -->
<g id="edge15" class="edge"><title>Node11&#45;&gt;Node12</title>
<path fill="none" stroke="midnightblue" d="M863.786,-113.247C892.361,-111.921 932.04,-110.081 964.257,-108.586"/>
<polygon fill="midnightblue" stroke="midnightblue" points="863.622,-109.751 853.795,-113.711 863.947,-116.743 863.622,-109.751"/>
</g>
<!-- Node12&#45;&gt;Node8 -->
<g id="edge16" class="edge"><title>Node12&#45;&gt;Node8</title>
<path fill="none" stroke="midnightblue" d="M1048.28,-120.362C1083.81,-139.783 1146.22,-173.888 1176.52,-190.444"/>
<polygon fill="midnightblue" stroke="midnightblue" points="1049.89,-117.255 1039.44,-115.531 1046.54,-123.398 1049.89,-117.255"/>
</g>
<!-- Node12&#45;&gt;Node12 -->
<g id="edge17" class="edge"><title>Node12&#45;&gt;Node12</title>
<path fill="none" stroke="midnightblue" d="M988.44,-124.275C989.368,-129.741 1000.22,-134 1021,-134 1051.93,-134 1060.87,-124.565 1047.82,-115.757"/>
<polygon fill="midnightblue" stroke="midnightblue" points="991.494,-126.005 994.182,-115.757 985.69,-122.093 991.494,-126.005"/>
</g>
<!-- Node14 -->
<g id="node14" class="node"><title>Node14</title>
<g id="a_node14"><a xlink:href="group__map_wallet.html#gaee8f634287d083737471595f658da519" target="_top" xlink:title="Add a transaction to the wallet, or update it. ">
<polygon fill="white" stroke="black" points="532,-76.5 532,-95.5 706,-95.5 706,-76.5 532,-76.5"/>
<text text-anchor="middle" x="619" y="-83.5" font-family="Helvetica,sans-Serif" font-size="10.00">CWallet::AddToWalletIfInvolvingMe</text>
</a>
</g>
</g>
<!-- Node13&#45;&gt;Node14 -->
<g id="edge19" class="edge"><title>Node13&#45;&gt;Node14</title>
<path fill="none" stroke="midnightblue" d="M489.038,-84.0261C502.828,-84.2372 517.53,-84.4622 531.887,-84.6819"/>
<polygon fill="midnightblue" stroke="midnightblue" points="488.744,-80.5213 478.691,-83.8677 488.637,-87.5205 488.744,-80.5213"/>
</g>
<!-- Node15 -->
<g id="node15" class="node"><title>Node15</title>
<g id="a_node15"><a xlink:href="class_c_wallet.html#a880d5c8c69fa55759c1e3782ccb7ae41" target="_top" xlink:title="CWallet::GetKeyBirthTimes">
<polygon fill="white" stroke="black" points="548,-38.5 548,-57.5 690,-57.5 690,-38.5 548,-38.5"/>
<text text-anchor="middle" x="619" y="-45.5" font-family="Helvetica,sans-Serif" font-size="10.00">CWallet::GetKeyBirthTimes</text>
</a>
</g>
</g>
<!-- Node13&#45;&gt;Node15 -->
<g id="edge20" class="edge"><title>Node13&#45;&gt;Node15</title>
<path fill="none" stroke="midnightblue" d="M488.757,-71.0791C513.567,-66.6488 541.36,-61.6856 564.798,-57.5004"/>
<polygon fill="midnightblue" stroke="midnightblue" points="487.92,-67.6731 478.691,-72.8765 489.151,-74.5641 487.92,-67.6731"/>
</g>
<!-- Node16 -->
<g id="node16" class="node"><title>Node16</title>
<g id="a_node16"><a xlink:href="wallet__tests_8cpp.html#a73ce3a42e0b56b2e4516e55871d8590e" target="_top" xlink:title="dumpwallet">
<polygon fill="white" stroke="black" points="789.5,-38.5 789.5,-57.5 860.5,-57.5 860.5,-38.5 789.5,-38.5"/>
<text text-anchor="middle" x="825" y="-45.5" font-family="Helvetica,sans-Serif" font-size="10.00">dumpwallet</text>
</a>
</g>
</g>
<!-- Node15&#45;&gt;Node16 -->
<g id="edge21" class="edge"><title>Node15&#45;&gt;Node16</title>
<path fill="none" stroke="midnightblue" d="M700.564,-48C731.473,-48 765.131,-48 789.483,-48"/>
<polygon fill="midnightblue" stroke="midnightblue" points="700.205,-44.5001 690.205,-48 700.205,-51.5001 700.205,-44.5001"/>
</g>
<!-- Node17 -->
<g id="node17" class="node"><title>Node17</title>
<g id="a_node17"><a xlink:href="wallet__tests_8cpp.html#a2a726fa52b0a343883cb50a3f68d0989" target="_top" xlink:title="BOOST_FIXTURE_TEST_CASE">
<polygon fill="white" stroke="black" points="944,-38.5 944,-57.5 1098,-57.5 1098,-38.5 944,-38.5"/>
<text text-anchor="middle" x="1021" y="-45.5" font-family="Helvetica,sans-Serif" font-size="10.00">BOOST_FIXTURE_TEST_CASE</text>
</a>
</g>
</g>
<!-- Node16&#45;&gt;Node17 -->
<g id="edge22" class="edge"><title>Node16&#45;&gt;Node17</title>
<path fill="none" stroke="midnightblue" d="M870.886,-48C892.537,-48 919.114,-48 943.805,-48"/>
<polygon fill="midnightblue" stroke="midnightblue" points="870.683,-44.5001 860.683,-48 870.683,-51.5001 870.683,-44.5001"/>
</g>
<!-- Node19 -->
<g id="node19" class="node"><title>Node19</title>
<g id="a_node19"><a xlink:href="rpc_2util_8h.html#a804d6824bed98b30dc92d53b40d776c9" target="_top" xlink:title="CreateMultisigRedeemscript">
<polygon fill="white" stroke="black" points="346,-16.5 346,-35.5 496,-35.5 496,-16.5 346,-16.5"/>
<text text-anchor="middle" x="421" y="-23.5" font-family="Helvetica,sans-Serif" font-size="10.00">CreateMultisigRedeemscript</text>
</a>
</g>
</g>
<!-- Node18&#45;&gt;Node19 -->
<g id="edge24" class="edge"><title>Node18&#45;&gt;Node19</title>
<path fill="none" stroke="midnightblue" d="M299.436,-38.2827C314.487,-36.7493 330.58,-35.1098 345.946,-33.5444"/>
<polygon fill="midnightblue" stroke="midnightblue" points="298.797,-34.8295 289.204,-39.3251 299.507,-41.7935 298.797,-34.8295"/>
</g>
<!-- Node20 -->
<g id="node20" class="node"><title>Node20</title>
<g id="a_node20"><a xlink:href="rpcwallet_8cpp.html#a7424e87562c3781c88662ebfb6ef7e4a" target="_top" xlink:title="GetLabelDestination">
<polygon fill="white" stroke="black" points="562,-0.5 562,-19.5 676,-19.5 676,-0.5 562,-0.5"/>
<text text-anchor="middle" x="619" y="-7.5" font-family="Helvetica,sans-Serif" font-size="10.00">GetLabelDestination</text>
</a>
</g>
</g>
<!-- Node19&#45;&gt;Node20 -->
<g id="edge25" class="edge"><title>Node19&#45;&gt;Node20</title>
<path fill="none" stroke="midnightblue" d="M506.158,-19.13C524.97,-17.5943 544.476,-16.002 561.828,-14.5855"/>
<polygon fill="midnightblue" stroke="midnightblue" points="505.781,-15.649 496.099,-19.9511 506.351,-22.6258 505.781,-15.649"/>
</g>
</g>
</svg>
