<?xml version="1.0" encoding="UTF-8" standalone="no"?>
<!DOCTYPE svg PUBLIC "-//W3C//DTD SVG 1.1//EN"
 "http://www.w3.org/Graphics/SVG/1.1/DTD/svg11.dtd">
<!-- Generated by graphviz version 2.38.0 (20140413.2041)
 -->
<!-- Title: PaymentServer::verifyExpired Pages: 1 -->
<svg width="1023pt" height="146pt"
 viewBox="0.00 0.00 1023.00 145.50" xmlns="http://www.w3.org/2000/svg" xmlns:xlink="http://www.w3.org/1999/xlink">
<g id="graph0" class="graph" transform="scale(1 1) rotate(0) translate(4 141.5)">
<title>PaymentServer::verifyExpired</title>
<polygon fill="white" stroke="none" points="-4,4 -4,-141.5 1019,-141.5 1019,4 -4,4"/>
<!-- Node1 -->
<g id="node1" class="node"><title>Node1</title>
<polygon fill="#bfbfbf" stroke="black" points="0,-28 0,-47 157,-47 157,-28 0,-28"/>
<text text-anchor="middle" x="78.5" y="-35" font-family="Helvetica,sans-Serif" font-size="10.00">PaymentServer::verifyExpired</text>
</g>
<!-- Node2 -->
<g id="node2" class="node"><title>Node2</title>
<g id="a_node2"><a xlink:href="class_payment_server.html#a19092e1d4d7c6eee3ec9d4390d11a092" target="_top" xlink:title="PaymentServer::processPayment\lRequest">
<polygon fill="white" stroke="black" points="193,-44.5 193,-74.5 369,-74.5 369,-44.5 193,-44.5"/>
<text text-anchor="start" x="201" y="-62.5" font-family="Helvetica,sans-Serif" font-size="10.00">PaymentServer::processPayment</text>
<text text-anchor="middle" x="281" y="-51.5" font-family="Helvetica,sans-Serif" font-size="10.00">Request</text>
</a>
</g>
</g>
<!-- Node1&#45;&gt;Node2 -->
<g id="edge1" class="edge"><title>Node1&#45;&gt;Node2</title>
<path fill="none" stroke="midnightblue" d="M166.962,-47.0969C175.495,-48.0331 184.153,-48.9831 192.684,-49.9192"/>
<polygon fill="midnightblue" stroke="midnightblue" points="167.341,-43.6175 157.019,-46.0058 166.577,-50.5757 167.341,-43.6175"/>
</g>
<!-- Node10 -->
<g id="node10" class="node"><title>Node10</title>
<g id="a_node10"><a xlink:href="class_wallet_model.html#a53443aca544c824550f21e5f87e4ec39" target="_top" xlink:title="WalletModel::sendCoins">
<polygon fill="white" stroke="black" points="217,-6 217,-25 345,-25 345,-6 217,-6"/>
<text text-anchor="middle" x="281" y="-13" font-family="Helvetica,sans-Serif" font-size="10.00">WalletModel::sendCoins</text>
</a>
</g>
</g>
<!-- Node1&#45;&gt;Node10 -->
<g id="edge10" class="edge"><title>Node1&#45;&gt;Node10</title>
<path fill="none" stroke="midnightblue" d="M167.34,-27.8617C184.042,-26.0291 201.21,-24.1453 216.952,-22.418"/>
<polygon fill="midnightblue" stroke="midnightblue" points="166.577,-24.4243 157.019,-28.9942 167.341,-31.3825 166.577,-24.4243"/>
</g>
<!-- Node3 -->
<g id="node3" class="node"><title>Node3</title>
<g id="a_node3"><a xlink:href="class_payment_server.html#adf4f844b3ce7f053690fd9260210640d" target="_top" xlink:title="PaymentServer::handleURIOrFile">
<polygon fill="white" stroke="black" points="405,-50 405,-69 575,-69 575,-50 405,-50"/>
<text text-anchor="middle" x="490" y="-57" font-family="Helvetica,sans-Serif" font-size="10.00">PaymentServer::handleURIOrFile</text>
</a>
</g>
</g>
<!-- Node2&#45;&gt;Node3 -->
<g id="edge2" class="edge"><title>Node2&#45;&gt;Node3</title>
<path fill="none" stroke="midnightblue" d="M379.217,-59.5C387.796,-59.5 396.433,-59.5 404.89,-59.5"/>
<polygon fill="midnightblue" stroke="midnightblue" points="379.187,-56.0001 369.187,-59.5 379.187,-63.0001 379.187,-56.0001"/>
</g>
<!-- Node8 -->
<g id="node8" class="node"><title>Node8</title>
<g id="a_node8"><a xlink:href="class_payment_server.html#a5b8e2e6380142fb7ad631400bcfc6f28" target="_top" xlink:title="PaymentServer::netRequest\lFinished">
<polygon fill="white" stroke="black" points="415,-104.5 415,-134.5 565,-134.5 565,-104.5 415,-104.5"/>
<text text-anchor="start" x="423" y="-122.5" font-family="Helvetica,sans-Serif" font-size="10.00">PaymentServer::netRequest</text>
<text text-anchor="middle" x="490" y="-111.5" font-family="Helvetica,sans-Serif" font-size="10.00">Finished</text>
</a>
</g>
</g>
<!-- Node2&#45;&gt;Node8 -->
<g id="edge7" class="edge"><title>Node2&#45;&gt;Node8</title>
<path fill="none" stroke="midnightblue" d="M343.811,-77.4162C373.511,-86.0249 408.709,-96.2274 437.011,-104.431"/>
<polygon fill="midnightblue" stroke="midnightblue" points="344.547,-73.9855 333.968,-74.5631 342.598,-80.7088 344.547,-73.9855"/>
</g>
<!-- Node4 -->
<g id="node4" class="node"><title>Node4</title>
<g id="a_node4"><a xlink:href="class_payment_server.html#af795e3c318556c833792e530b279efc9" target="_top" xlink:title="PaymentServer::eventFilter">
<polygon fill="white" stroke="black" points="637,-80 637,-99 783,-99 783,-80 637,-80"/>
<text text-anchor="middle" x="710" y="-87" font-family="Helvetica,sans-Serif" font-size="10.00">PaymentServer::eventFilter</text>
</a>
</g>
</g>
<!-- Node3&#45;&gt;Node4 -->
<g id="edge3" class="edge"><title>Node3&#45;&gt;Node4</title>
<path fill="none" stroke="midnightblue" d="M570.264,-70.4079C593.073,-73.5467 617.763,-76.9444 639.904,-79.9914"/>
<polygon fill="midnightblue" stroke="midnightblue" points="570.66,-66.9295 560.276,-69.0334 569.706,-73.8641 570.66,-66.9295"/>
</g>
<!-- Node5 -->
<g id="node5" class="node"><title>Node5</title>
<g id="a_node5"><a xlink:href="class_payment_server.html#abb6c65fabbf97ba95381997ca9cd6993" target="_top" xlink:title="PaymentServer::uiReady">
<polygon fill="white" stroke="black" points="863.5,-80 863.5,-99 996.5,-99 996.5,-80 863.5,-80"/>
<text text-anchor="middle" x="930" y="-87" font-family="Helvetica,sans-Serif" font-size="10.00">PaymentServer::uiReady</text>
</a>
</g>
</g>
<!-- Node3&#45;&gt;Node5 -->
<g id="edge4" class="edge"><title>Node3&#45;&gt;Node5</title>
<path fill="none" stroke="midnightblue" d="M585.581,-59.7444C648.93,-60.6515 734.123,-63.3045 809,-70.5 831.676,-72.6791 856.576,-76.4012 877.789,-79.9765"/>
<polygon fill="midnightblue" stroke="midnightblue" points="585.254,-56.2399 575.209,-59.6087 585.163,-63.2393 585.254,-56.2399"/>
</g>
<!-- Node6 -->
<g id="node6" class="node"><title>Node6</title>
<g id="a_node6"><a xlink:href="class_payment_server.html#a6ee6e29e1255605582459463d195a651" target="_top" xlink:title="PaymentServer::handleURIConnection">
<polygon fill="white" stroke="black" points="611,-4 611,-23 809,-23 809,-4 611,-4"/>
<text text-anchor="middle" x="710" y="-11" font-family="Helvetica,sans-Serif" font-size="10.00">PaymentServer::handleURIConnection</text>
</a>
</g>
</g>
<!-- Node3&#45;&gt;Node6 -->
<g id="edge5" class="edge"><title>Node3&#45;&gt;Node6</title>
<path fill="none" stroke="midnightblue" d="M546.139,-47.8651C582.563,-40.1794 629.704,-30.2322 663.888,-23.019"/>
<polygon fill="midnightblue" stroke="midnightblue" points="545.232,-44.4795 536.17,-49.9688 546.677,-51.3287 545.232,-44.4795"/>
</g>
<!-- Node7 -->
<g id="node7" class="node"><title>Node7</title>
<g id="a_node7"><a xlink:href="class_payment_server.html#a4a66f55c11f4757b121179d5d6988ab2" target="_top" xlink:title="PaymentServer::PaymentServer">
<polygon fill="white" stroke="black" points="845,-4 845,-23 1015,-23 1015,-4 845,-4"/>
<text text-anchor="middle" x="930" y="-11" font-family="Helvetica,sans-Serif" font-size="10.00">PaymentServer::PaymentServer</text>
</a>
</g>
</g>
<!-- Node6&#45;&gt;Node7 -->
<g id="edge6" class="edge"><title>Node6&#45;&gt;Node7</title>
<path fill="none" stroke="midnightblue" d="M819.199,-13.5C827.766,-13.5 836.339,-13.5 844.707,-13.5"/>
<polygon fill="midnightblue" stroke="midnightblue" points="819.159,-10.0001 809.159,-13.5 819.159,-17.0001 819.159,-10.0001"/>
</g>
<!-- Node9 -->
<g id="node9" class="node"><title>Node9</title>
<g id="a_node9"><a xlink:href="class_payment_server.html#a2f94f2c3e12d03199870e17008535302" target="_top" xlink:title="PaymentServer::initNetManager">
<polygon fill="white" stroke="black" points="625,-118 625,-137 795,-137 795,-118 625,-118"/>
<text text-anchor="middle" x="710" y="-125" font-family="Helvetica,sans-Serif" font-size="10.00">PaymentServer::initNetManager</text>
</a>
</g>
</g>
<!-- Node8&#45;&gt;Node9 -->
<g id="edge8" class="edge"><title>Node8&#45;&gt;Node9</title>
<path fill="none" stroke="midnightblue" d="M575.168,-122.589C591.508,-123.188 608.635,-123.817 624.971,-124.416"/>
<polygon fill="midnightblue" stroke="midnightblue" points="575.231,-119.089 565.109,-122.22 574.974,-126.084 575.231,-119.089"/>
</g>
<!-- Node9&#45;&gt;Node5 -->
<g id="edge9" class="edge"><title>Node9&#45;&gt;Node5</title>
<path fill="none" stroke="midnightblue" d="M775.688,-116.224C807.051,-110.757 844.313,-104.262 874.248,-99.0439"/>
<polygon fill="midnightblue" stroke="midnightblue" points="774.98,-112.795 765.729,-117.96 776.182,-119.691 774.98,-112.795"/>
</g>
<!-- Node11 -->
<g id="node11" class="node"><title>Node11</title>
<g id="a_node11"><a xlink:href="class_send_coins_dialog.html#a2cab7cf9ea5040b9e2189297f7d3c764" target="_top" xlink:title="SendCoinsDialog::on\l_sendButton_clicked">
<polygon fill="white" stroke="black" points="432,-0.5 432,-30.5 548,-30.5 548,-0.5 432,-0.5"/>
<text text-anchor="start" x="440" y="-18.5" font-family="Helvetica,sans-Serif" font-size="10.00">SendCoinsDialog::on</text>
<text text-anchor="middle" x="490" y="-7.5" font-family="Helvetica,sans-Serif" font-size="10.00">_sendButton_clicked</text>
</a>
</g>
</g>
<!-- Node10&#45;&gt;Node11 -->
<g id="edge11" class="edge"><title>Node10&#45;&gt;Node11</title>
<path fill="none" stroke="midnightblue" d="M355.434,-15.5C380.514,-15.5 408.174,-15.5 431.785,-15.5"/>
<polygon fill="midnightblue" stroke="midnightblue" points="355.232,-12.0001 345.232,-15.5 355.232,-19.0001 355.232,-12.0001"/>
</g>
</g>
</svg>
