<?xml version="1.0" encoding="UTF-8" standalone="no"?>
<!DOCTYPE svg PUBLIC "-//W3C//DTD SVG 1.1//EN"
 "http://www.w3.org/Graphics/SVG/1.1/DTD/svg11.dtd">
<!-- Generated by graphviz version 2.40.1 (20161225.0304)
 -->
<!-- Title: ClientModel::ClientModel Pages: 1 -->
<svg width="501pt" height="176pt"
 viewBox="0.00 0.00 501.00 175.50" xmlns="http://www.w3.org/2000/svg" xmlns:xlink="http://www.w3.org/1999/xlink">
<g id="graph0" class="graph" transform="scale(1 1) rotate(0) translate(4 171.5)">
<title>ClientModel::ClientModel</title>
<polygon fill="#ffffff" stroke="transparent" points="-4,4 -4,-171.5 497,-171.5 497,4 -4,4"/>
<!-- Node0 -->
<g id="node1" class="node">
<title>Node0</title>
<polygon fill="#bfbfbf" stroke="#000000" points="0,-79 0,-98 126,-98 126,-79 0,-79"/>
<text text-anchor="middle" x="63" y="-86" font-family="Helvetica,sans-Serif" font-size="10.00" fill="#000000">ClientModel::ClientModel</text>
</g>
<!-- Node1 -->
<g id="node2" class="node">
<title>Node1</title>
<g id="a_node2"><a xlink:href="class_client_model.html#a82d434ebd032c00736e043ce2d36ac5e" target="_top" xlink:title="ClientModel::updateTimer">
<polygon fill="#ffffff" stroke="#000000" points="162,-79 162,-98 290,-98 290,-79 162,-79"/>
<text text-anchor="middle" x="226" y="-86" font-family="Helvetica,sans-Serif" font-size="10.00" fill="#000000">ClientModel::updateTimer</text>
</a>
</g>
</g>
<!-- Node0&#45;&gt;Node1 -->
<g id="edge1" class="edge">
<title>Node0&#45;&gt;Node1</title>
<path fill="none" stroke="#191970" d="M126.0201,-88.5C134.4552,-88.5 143.1691,-88.5 151.7739,-88.5"/>
<polygon fill="#191970" stroke="#191970" points="151.802,-92.0001 161.802,-88.5 151.802,-85.0001 151.802,-92.0001"/>
</g>
<!-- Node2 -->
<g id="node3" class="node">
<title>Node2</title>
<g id="a_node3"><a xlink:href="classinterfaces_1_1_node.html#a79176b1ea0cabed74d4be04fca9facab" target="_top" xlink:title="Get mempool size. ">
<polygon fill="#ffffff" stroke="#000000" points="326,-148 326,-167 493,-167 493,-148 326,-148"/>
<text text-anchor="middle" x="409.5" y="-155" font-family="Helvetica,sans-Serif" font-size="10.00" fill="#000000">interfaces::Node::getMempoolSize</text>
</a>
</g>
</g>
<!-- Node1&#45;&gt;Node2 -->
<g id="edge2" class="edge">
<title>Node1&#45;&gt;Node2</title>
<path fill="none" stroke="#191970" d="M242.0971,-98.0692C261.4272,-109.1967 295.115,-127.4464 326,-138.5 333.2831,-141.1066 341.055,-143.4385 348.8162,-145.4997"/>
<polygon fill="#191970" stroke="#191970" points="348.0515,-148.9164 358.6036,-147.9661 349.762,-142.1286 348.0515,-148.9164"/>
</g>
<!-- Node3 -->
<g id="node4" class="node">
<title>Node3</title>
<g id="a_node4"><a xlink:href="classinterfaces_1_1_node.html#acf53f8dd87b5727b511b82ec320a5d69" target="_top" xlink:title="Get mempool dynamic usage. ">
<polygon fill="#ffffff" stroke="#000000" points="335.5,-98.5 335.5,-128.5 483.5,-128.5 483.5,-98.5 335.5,-98.5"/>
<text text-anchor="start" x="343.5" y="-116.5" font-family="Helvetica,sans-Serif" font-size="10.00" fill="#000000">interfaces::Node::getMempool</text>
<text text-anchor="middle" x="409.5" y="-105.5" font-family="Helvetica,sans-Serif" font-size="10.00" fill="#000000">DynamicUsage</text>
</a>
</g>
</g>
<!-- Node1&#45;&gt;Node3 -->
<g id="edge3" class="edge">
<title>Node1&#45;&gt;Node3</title>
<path fill="none" stroke="#191970" d="M290.1794,-97.2438C301.4504,-98.7793 313.3333,-100.3983 325.0562,-101.9954"/>
<polygon fill="#191970" stroke="#191970" points="324.9165,-105.5086 335.2975,-103.3907 325.8615,-98.5727 324.9165,-105.5086"/>
</g>
<!-- Node4 -->
<g id="node5" class="node">
<title>Node4</title>
<g id="a_node5"><a xlink:href="classinterfaces_1_1_node.html#aad3ff5433693832c54d5874dd0b8bd45" target="_top" xlink:title="Get total bytes recv. ">
<polygon fill="#ffffff" stroke="#000000" points="344.5,-49.5 344.5,-79.5 474.5,-79.5 474.5,-49.5 344.5,-49.5"/>
<text text-anchor="start" x="352.5" y="-67.5" font-family="Helvetica,sans-Serif" font-size="10.00" fill="#000000">interfaces::Node::getTotal</text>
<text text-anchor="middle" x="409.5" y="-56.5" font-family="Helvetica,sans-Serif" font-size="10.00" fill="#000000">BytesRecv</text>
</a>
</g>
</g>
<!-- Node1&#45;&gt;Node4 -->
<g id="edge4" class="edge">
<title>Node1&#45;&gt;Node4</title>
<path fill="none" stroke="#191970" d="M290.1794,-80.106C304.4549,-78.2389 319.712,-76.2434 334.3822,-74.3247"/>
<polygon fill="#191970" stroke="#191970" points="334.9638,-77.7785 344.4254,-73.0111 334.0559,-70.8376 334.9638,-77.7785"/>
</g>
<!-- Node5 -->
<g id="node6" class="node">
<title>Node5</title>
<g id="a_node6"><a xlink:href="classinterfaces_1_1_node.html#ac9a207f916f301b029fb6abd3ba6c3db" target="_top" xlink:title="Get total bytes sent. ">
<polygon fill="#ffffff" stroke="#000000" points="344.5,-.5 344.5,-30.5 474.5,-30.5 474.5,-.5 344.5,-.5"/>
<text text-anchor="start" x="352.5" y="-18.5" font-family="Helvetica,sans-Serif" font-size="10.00" fill="#000000">interfaces::Node::getTotal</text>
<text text-anchor="middle" x="409.5" y="-7.5" font-family="Helvetica,sans-Serif" font-size="10.00" fill="#000000">BytesSent</text>
</a>
</g>
</g>
<!-- Node1&#45;&gt;Node5 -->
<g id="edge5" class="edge">
<title>Node1&#45;&gt;Node5</title>
<path fill="none" stroke="#191970" d="M243.6908,-78.9633C263.3903,-68.5925 296.3663,-51.967 326,-40.5 332.1632,-38.1151 338.6537,-35.8163 345.1803,-33.6437"/>
<polygon fill="#191970" stroke="#191970" points="346.2958,-36.9615 354.7346,-30.5555 344.1429,-30.3008 346.2958,-36.9615"/>
</g>
</g>
</svg>
