<?xml version="1.0" encoding="UTF-8" standalone="no"?>
<!DOCTYPE svg PUBLIC "-//W3C//DTD SVG 1.1//EN"
 "http://www.w3.org/Graphics/SVG/1.1/DTD/svg11.dtd">
<!-- Generated by graphviz version 2.38.0 (20140413.2041)
 -->
<!-- Title: SendCoinsDialog::addEntry Pages: 1 -->
<svg width="2220pt" height="269pt"
 viewBox="0.00 0.00 2220.00 269.00" xmlns="http://www.w3.org/2000/svg" xmlns:xlink="http://www.w3.org/1999/xlink">
<g id="graph0" class="graph" transform="scale(1 1) rotate(0) translate(4 265)">
<title>SendCoinsDialog::addEntry</title>
<polygon fill="white" stroke="none" points="-4,4 -4,-265 2216,-265 2216,4 -4,4"/>
<!-- Node1 -->
<g id="node1" class="node"><title>Node1</title>
<polygon fill="#bfbfbf" stroke="black" points="0,-154 0,-173 146,-173 146,-154 0,-154"/>
<text text-anchor="middle" x="73" y="-161" font-family="Helvetica,sans-Serif" font-size="10.00">SendCoinsDialog::addEntry</text>
</g>
<!-- Node2 -->
<g id="node2" class="node"><title>Node2</title>
<g id="a_node2"><a xlink:href="class_send_coins_dialog.html#affacd36b4df87a68e2fe706ef388c0a6" target="_top" xlink:title="SendCoinsDialog::SendCoins\lDialog">
<polygon fill="white" stroke="black" points="394.5,-230.5 394.5,-260.5 549.5,-260.5 549.5,-230.5 394.5,-230.5"/>
<text text-anchor="start" x="402.5" y="-248.5" font-family="Helvetica,sans-Serif" font-size="10.00">SendCoinsDialog::SendCoins</text>
<text text-anchor="middle" x="472" y="-237.5" font-family="Helvetica,sans-Serif" font-size="10.00">Dialog</text>
</a>
</g>
</g>
<!-- Node1&#45;&gt;Node2 -->
<g id="edge1" class="edge"><title>Node1&#45;&gt;Node2</title>
<path fill="none" stroke="midnightblue" d="M96.423,-178.773C117.508,-192.277 150.461,-211.227 182,-220.5 251.937,-241.063 335.182,-246.365 394.325,-247.089"/>
<polygon fill="midnightblue" stroke="midnightblue" points="98.1692,-175.733 87.8853,-173.185 94.3358,-181.59 98.1692,-175.733"/>
</g>
<!-- Node3 -->
<g id="node3" class="node"><title>Node3</title>
<g id="a_node3"><a xlink:href="class_send_coins_dialog.html#a127bddff45f49ff5e6e263efe218ae26" target="_top" xlink:title="SendCoinsDialog::clear">
<polygon fill="white" stroke="black" points="201,-192 201,-211 328,-211 328,-192 201,-192"/>
<text text-anchor="middle" x="264.5" y="-199" font-family="Helvetica,sans-Serif" font-size="10.00">SendCoinsDialog::clear</text>
</a>
</g>
</g>
<!-- Node1&#45;&gt;Node3 -->
<g id="edge2" class="edge"><title>Node1&#45;&gt;Node3</title>
<path fill="none" stroke="midnightblue" d="M131.895,-175.11C158.846,-180.514 190.51,-186.864 216.025,-191.98"/>
<polygon fill="midnightblue" stroke="midnightblue" points="132.312,-171.624 121.819,-173.089 130.935,-178.487 132.312,-171.624"/>
</g>
<!-- Node7 -->
<g id="node7" class="node"><title>Node7</title>
<g id="a_node7"><a xlink:href="class_send_coins_dialog.html#aabd82a79bd2358493f36425f1d62136b" target="_top" xlink:title="SendCoinsDialog::removeEntry">
<polygon fill="white" stroke="black" points="182,-154 182,-173 347,-173 347,-154 182,-154"/>
<text text-anchor="middle" x="264.5" y="-161" font-family="Helvetica,sans-Serif" font-size="10.00">SendCoinsDialog::removeEntry</text>
</a>
</g>
</g>
<!-- Node1&#45;&gt;Node7 -->
<g id="edge7" class="edge"><title>Node1&#45;&gt;Node7</title>
<path fill="none" stroke="midnightblue" d="M156.353,-156.802C164.759,-156.731 173.298,-156.733 181.699,-156.806"/>
<polygon fill="midnightblue" stroke="midnightblue" points="156.14,-153.304 146.182,-156.923 156.224,-160.303 156.14,-153.304"/>
</g>
<!-- Node8 -->
<g id="node8" class="node"><title>Node8</title>
<g id="a_node8"><a xlink:href="class_send_coins_dialog.html#a920b2dbf121ca3cfac2adc56e96295f8" target="_top" xlink:title="SendCoinsDialog::setAddress">
<polygon fill="white" stroke="black" points="185.5,-116 185.5,-135 343.5,-135 343.5,-116 185.5,-116"/>
<text text-anchor="middle" x="264.5" y="-123" font-family="Helvetica,sans-Serif" font-size="10.00">SendCoinsDialog::setAddress</text>
</a>
</g>
</g>
<!-- Node1&#45;&gt;Node8 -->
<g id="edge9" class="edge"><title>Node1&#45;&gt;Node8</title>
<path fill="none" stroke="midnightblue" d="M131.895,-151.89C158.846,-146.486 190.51,-140.136 216.025,-135.02"/>
<polygon fill="midnightblue" stroke="midnightblue" points="130.935,-148.513 121.819,-153.911 132.312,-155.376 130.935,-148.513"/>
</g>
<!-- Node10 -->
<g id="node10" class="node"><title>Node10</title>
<g id="a_node10"><a xlink:href="class_send_coins_dialog.html#a4440d15ced5d217baaad33a17d56b409" target="_top" xlink:title="SendCoinsDialog::pasteEntry">
<polygon fill="white" stroke="black" points="187,-75 187,-94 342,-94 342,-75 187,-75"/>
<text text-anchor="middle" x="264.5" y="-82" font-family="Helvetica,sans-Serif" font-size="10.00">SendCoinsDialog::pasteEntry</text>
</a>
</g>
</g>
<!-- Node1&#45;&gt;Node10 -->
<g id="edge11" class="edge"><title>Node1&#45;&gt;Node10</title>
<path fill="none" stroke="midnightblue" d="M98.3235,-148.654C119.742,-136.075 152.094,-118.259 182,-106.5 194.412,-101.62 208.298,-97.429 221.041,-94.0544"/>
<polygon fill="midnightblue" stroke="midnightblue" points="96.3814,-145.736 89.5766,-153.857 99.9603,-151.752 96.3814,-145.736"/>
</g>
<!-- Node3&#45;&gt;Node2 -->
<g id="edge3" class="edge"><title>Node3&#45;&gt;Node2</title>
<path fill="none" stroke="midnightblue" d="M320.013,-213.172C344.732,-218.465 374.27,-224.789 400.638,-230.435"/>
<polygon fill="midnightblue" stroke="midnightblue" points="320.602,-209.719 310.09,-211.047 319.136,-216.564 320.602,-209.719"/>
</g>
<!-- Node4 -->
<g id="node4" class="node"><title>Node4</title>
<g id="a_node4"><a xlink:href="class_send_coins_dialog.html#a4879553d77d29f522ac92ac04580f4ad" target="_top" xlink:title="SendCoinsDialog::reject">
<polygon fill="white" stroke="black" points="406.5,-192 406.5,-211 537.5,-211 537.5,-192 406.5,-192"/>
<text text-anchor="middle" x="472" y="-199" font-family="Helvetica,sans-Serif" font-size="10.00">SendCoinsDialog::reject</text>
</a>
</g>
</g>
<!-- Node3&#45;&gt;Node4 -->
<g id="edge4" class="edge"><title>Node3&#45;&gt;Node4</title>
<path fill="none" stroke="midnightblue" d="M338.327,-201.5C360.56,-201.5 384.84,-201.5 406.481,-201.5"/>
<polygon fill="midnightblue" stroke="midnightblue" points="338.273,-198 328.273,-201.5 338.273,-205 338.273,-198"/>
</g>
<!-- Node5 -->
<g id="node5" class="node"><title>Node5</title>
<g id="a_node5"><a xlink:href="class_send_coins_dialog.html#af2185c3d29e43d37c30669f0def46060" target="_top" xlink:title="SendCoinsDialog::accept">
<polygon fill="white" stroke="black" points="404,-154 404,-173 540,-173 540,-154 404,-154"/>
<text text-anchor="middle" x="472" y="-161" font-family="Helvetica,sans-Serif" font-size="10.00">SendCoinsDialog::accept</text>
</a>
</g>
</g>
<!-- Node3&#45;&gt;Node5 -->
<g id="edge5" class="edge"><title>Node3&#45;&gt;Node5</title>
<path fill="none" stroke="midnightblue" d="M327.248,-190.082C356.651,-184.645 391.413,-178.217 419.388,-173.044"/>
<polygon fill="midnightblue" stroke="midnightblue" points="326.288,-186.7 317.091,-191.96 327.561,-193.583 326.288,-186.7"/>
</g>
<!-- Node6 -->
<g id="node6" class="node"><title>Node6</title>
<g id="a_node6"><a xlink:href="class_send_coins_dialog.html#a2cab7cf9ea5040b9e2189297f7d3c764" target="_top" xlink:title="SendCoinsDialog::on\l_sendButton_clicked">
<polygon fill="white" stroke="black" points="612,-148.5 612,-178.5 728,-178.5 728,-148.5 612,-148.5"/>
<text text-anchor="start" x="620" y="-166.5" font-family="Helvetica,sans-Serif" font-size="10.00">SendCoinsDialog::on</text>
<text text-anchor="middle" x="670" y="-155.5" font-family="Helvetica,sans-Serif" font-size="10.00">_sendButton_clicked</text>
</a>
</g>
</g>
<!-- Node5&#45;&gt;Node6 -->
<g id="edge6" class="edge"><title>Node5&#45;&gt;Node6</title>
<path fill="none" stroke="midnightblue" d="M550.412,-163.5C570.85,-163.5 592.54,-163.5 611.705,-163.5"/>
<polygon fill="midnightblue" stroke="midnightblue" points="550.178,-160 540.178,-163.5 550.178,-167 550.178,-160"/>
</g>
<!-- Node7&#45;&gt;Node1 -->
<g id="edge8" class="edge"><title>Node7&#45;&gt;Node1</title>
<path fill="none" stroke="midnightblue" d="M171.681,-170.247C163.12,-170.264 154.527,-170.207 146.182,-170.077"/>
<polygon fill="midnightblue" stroke="midnightblue" points="171.718,-173.747 181.699,-170.194 171.68,-166.747 171.718,-173.747"/>
</g>
<!-- Node9 -->
<g id="node9" class="node"><title>Node9</title>
<g id="a_node9"><a xlink:href="class_wallet_view.html#a2a70c2b00b097dd7b83b6915bb037ea3" target="_top" xlink:title="Switch to send coins page. ">
<polygon fill="white" stroke="black" points="388.5,-116 388.5,-135 555.5,-135 555.5,-116 388.5,-116"/>
<text text-anchor="middle" x="472" y="-123" font-family="Helvetica,sans-Serif" font-size="10.00">WalletView::gotoSendCoinsPage</text>
</a>
</g>
</g>
<!-- Node8&#45;&gt;Node9 -->
<g id="edge10" class="edge"><title>Node8&#45;&gt;Node9</title>
<path fill="none" stroke="midnightblue" d="M353.815,-125.5C365.328,-125.5 377.087,-125.5 388.499,-125.5"/>
<polygon fill="midnightblue" stroke="midnightblue" points="353.777,-122 343.777,-125.5 353.777,-129 353.777,-122"/>
</g>
<!-- Node11 -->
<g id="node11" class="node"><title>Node11</title>
<g id="a_node11"><a xlink:href="class_send_coins_dialog.html#a82ed6a3badadaa523415e1924ebd292a" target="_top" xlink:title="SendCoinsDialog::handlePayment\lRequest">
<polygon fill="white" stroke="black" points="383,-66.5 383,-96.5 561,-96.5 561,-66.5 383,-66.5"/>
<text text-anchor="start" x="391" y="-84.5" font-family="Helvetica,sans-Serif" font-size="10.00">SendCoinsDialog::handlePayment</text>
<text text-anchor="middle" x="472" y="-73.5" font-family="Helvetica,sans-Serif" font-size="10.00">Request</text>
</a>
</g>
</g>
<!-- Node10&#45;&gt;Node11 -->
<g id="edge12" class="edge"><title>Node10&#45;&gt;Node11</title>
<path fill="none" stroke="midnightblue" d="M352.137,-83.2352C362.342,-83.0862 372.764,-82.9341 382.988,-82.7848"/>
<polygon fill="midnightblue" stroke="midnightblue" points="351.968,-79.7372 342.021,-83.3829 352.071,-86.7365 351.968,-79.7372"/>
</g>
<!-- Node12 -->
<g id="node12" class="node"><title>Node12</title>
<g id="a_node12"><a xlink:href="class_wallet_view.html#a0ae21d91a9d7755026ce2a6846cef68d" target="_top" xlink:title="WalletView::handlePayment\lRequest">
<polygon fill="white" stroke="black" points="597,-66.5 597,-96.5 743,-96.5 743,-66.5 597,-66.5"/>
<text text-anchor="start" x="605" y="-84.5" font-family="Helvetica,sans-Serif" font-size="10.00">WalletView::handlePayment</text>
<text text-anchor="middle" x="670" y="-73.5" font-family="Helvetica,sans-Serif" font-size="10.00">Request</text>
</a>
</g>
</g>
<!-- Node11&#45;&gt;Node12 -->
<g id="edge13" class="edge"><title>Node11&#45;&gt;Node12</title>
<path fill="none" stroke="midnightblue" d="M571.313,-81.5C579.896,-81.5 588.475,-81.5 596.788,-81.5"/>
<polygon fill="midnightblue" stroke="midnightblue" points="571.253,-78.0001 561.253,-81.5 571.253,-85.0001 571.253,-78.0001"/>
</g>
<!-- Node13 -->
<g id="node13" class="node"><title>Node13</title>
<g id="a_node13"><a xlink:href="class_wallet_frame.html#aa8c5b10f2240df164795619ca41c619c" target="_top" xlink:title="WalletFrame::handlePayment\lRequest">
<polygon fill="white" stroke="black" points="779,-88.5 779,-118.5 934,-118.5 934,-88.5 779,-88.5"/>
<text text-anchor="start" x="787" y="-106.5" font-family="Helvetica,sans-Serif" font-size="10.00">WalletFrame::handlePayment</text>
<text text-anchor="middle" x="856.5" y="-95.5" font-family="Helvetica,sans-Serif" font-size="10.00">Request</text>
</a>
</g>
</g>
<!-- Node12&#45;&gt;Node13 -->
<g id="edge14" class="edge"><title>Node12&#45;&gt;Node13</title>
<path fill="none" stroke="midnightblue" d="M753.107,-91.2906C761.672,-92.3119 770.355,-93.3472 778.856,-94.3609"/>
<polygon fill="midnightblue" stroke="midnightblue" points="753.469,-87.809 743.125,-90.1003 752.64,-94.7598 753.469,-87.809"/>
</g>
<!-- Node15 -->
<g id="node15" class="node"><title>Node15</title>
<g id="a_node15"><a xlink:href="class_wallet_view.html#af74afee27526920cadb16622b1f836c1" target="_top" xlink:title="WalletView::getWalletModel">
<polygon fill="white" stroke="black" points="785,-50 785,-69 928,-69 928,-50 785,-50"/>
<text text-anchor="middle" x="856.5" y="-57" font-family="Helvetica,sans-Serif" font-size="10.00">WalletView::getWalletModel</text>
</a>
</g>
</g>
<!-- Node12&#45;&gt;Node15 -->
<g id="edge16" class="edge"><title>Node12&#45;&gt;Node15</title>
<path fill="none" stroke="midnightblue" d="M753.204,-71.6979C763.792,-70.4353 774.559,-69.1515 784.938,-67.9139"/>
<polygon fill="midnightblue" stroke="midnightblue" points="752.64,-68.2402 743.125,-72.8997 753.469,-75.191 752.64,-68.2402"/>
</g>
<!-- Node14 -->
<g id="node14" class="node"><title>Node14</title>
<g id="a_node14"><a xlink:href="class_bitcoin_g_u_i.html#aeee2453bf1a3fb39bb22757e21f676d4" target="_top" xlink:title="BitcoinGUI::eventFilter">
<polygon fill="white" stroke="black" points="977.5,-93 977.5,-112 1099.5,-112 1099.5,-93 977.5,-93"/>
<text text-anchor="middle" x="1038.5" y="-100" font-family="Helvetica,sans-Serif" font-size="10.00">BitcoinGUI::eventFilter</text>
</a>
</g>
</g>
<!-- Node13&#45;&gt;Node14 -->
<g id="edge15" class="edge"><title>Node13&#45;&gt;Node14</title>
<path fill="none" stroke="midnightblue" d="M944.314,-103.018C955.481,-102.956 966.714,-102.893 977.323,-102.834"/>
<polygon fill="midnightblue" stroke="midnightblue" points="944.078,-99.5189 934.097,-103.074 944.117,-106.519 944.078,-99.5189"/>
</g>
<!-- Node15&#45;&gt;Node14 -->
<g id="edge17" class="edge"><title>Node15&#45;&gt;Node14</title>
<path fill="none" stroke="midnightblue" d="M907.22,-71.3775C935.718,-78.1854 971.005,-86.615 997.664,-92.9836"/>
<polygon fill="midnightblue" stroke="midnightblue" points="907.987,-67.9625 897.448,-69.0431 906.361,-74.7709 907.987,-67.9625"/>
</g>
<!-- Node16 -->
<g id="node16" class="node"><title>Node16</title>
<g id="a_node16"><a xlink:href="class_wallet_view.html#a8a1f4b689abc0f1073c547ec1f871a26" target="_top" xlink:title="Show progress dialog e.g. ">
<polygon fill="white" stroke="black" points="970,-52 970,-71 1107,-71 1107,-52 970,-52"/>
<text text-anchor="middle" x="1038.5" y="-59" font-family="Helvetica,sans-Serif" font-size="10.00">WalletView::showProgress</text>
</a>
</g>
</g>
<!-- Node15&#45;&gt;Node16 -->
<g id="edge18" class="edge"><title>Node15&#45;&gt;Node16</title>
<path fill="none" stroke="midnightblue" d="M938.162,-60.3962C948.708,-60.5134 959.426,-60.6325 969.729,-60.747"/>
<polygon fill="midnightblue" stroke="midnightblue" points="938.162,-56.8961 928.124,-60.2847 938.085,-63.8957 938.162,-56.8961"/>
</g>
<!-- Node17 -->
<g id="node17" class="node"><title>Node17</title>
<g id="a_node17"><a xlink:href="class_wallet_view.html#a0a37ff693a4f9c1e5ddc23f9cd3913be" target="_top" xlink:title="Set the wallet model. ">
<polygon fill="white" stroke="black" points="1143,-33 1143,-52 1286,-52 1286,-33 1143,-33"/>
<text text-anchor="middle" x="1214.5" y="-40" font-family="Helvetica,sans-Serif" font-size="10.00">WalletView::setWalletModel</text>
</a>
</g>
</g>
<!-- Node16&#45;&gt;Node17 -->
<g id="edge19" class="edge"><title>Node16&#45;&gt;Node17</title>
<path fill="none" stroke="midnightblue" d="M1117.47,-52.9864C1125.89,-52.0668 1134.42,-51.1346 1142.75,-50.225"/>
<polygon fill="midnightblue" stroke="midnightblue" points="1116.83,-49.5348 1107.27,-54.0997 1117.59,-56.4934 1116.83,-49.5348"/>
</g>
<!-- Node17&#45;&gt;Node15 -->
<g id="edge30" class="edge"><title>Node17&#45;&gt;Node15</title>
<path fill="none" stroke="midnightblue" d="M1132.59,-39.4675C1085.15,-38.4461 1024.1,-38.4355 970,-42.5 950.106,-43.9947 928.398,-46.9561 909.404,-49.9942"/>
<polygon fill="midnightblue" stroke="midnightblue" points="1132.72,-42.9716 1142.8,-39.7075 1132.89,-35.9735 1132.72,-42.9716"/>
</g>
<!-- Node18 -->
<g id="node18" class="node"><title>Node18</title>
<g id="a_node18"><a xlink:href="class_wallet_frame.html#a06cb28194836995e50cc46716b2227ff" target="_top" xlink:title="WalletFrame::addWallet">
<polygon fill="white" stroke="black" points="1322,-33 1322,-52 1448,-52 1448,-33 1322,-33"/>
<text text-anchor="middle" x="1385" y="-40" font-family="Helvetica,sans-Serif" font-size="10.00">WalletFrame::addWallet</text>
</a>
</g>
</g>
<!-- Node17&#45;&gt;Node18 -->
<g id="edge20" class="edge"><title>Node17&#45;&gt;Node18</title>
<path fill="none" stroke="midnightblue" d="M1296.48,-42.5C1305.03,-42.5 1313.64,-42.5 1321.93,-42.5"/>
<polygon fill="midnightblue" stroke="midnightblue" points="1296.47,-39.0001 1286.47,-42.5 1296.47,-46.0001 1296.47,-39.0001"/>
</g>
<!-- Node19 -->
<g id="node19" class="node"><title>Node19</title>
<g id="a_node19"><a xlink:href="class_bitcoin_g_u_i.html#a99d71e1f8478ab937ce2522c8d3815e3" target="_top" xlink:title="Set the client model. ">
<polygon fill="white" stroke="black" points="1484,-33 1484,-52 1627,-52 1627,-33 1484,-33"/>
<text text-anchor="middle" x="1555.5" y="-40" font-family="Helvetica,sans-Serif" font-size="10.00">BitcoinGUI::setClientModel</text>
</a>
</g>
</g>
<!-- Node18&#45;&gt;Node19 -->
<g id="edge21" class="edge"><title>Node18&#45;&gt;Node19</title>
<path fill="none" stroke="midnightblue" d="M1458.47,-42.5C1466.93,-42.5 1475.54,-42.5 1483.97,-42.5"/>
<polygon fill="midnightblue" stroke="midnightblue" points="1458.26,-39.0001 1448.26,-42.5 1458.26,-46.0001 1458.26,-39.0001"/>
</g>
<!-- Node20 -->
<g id="node20" class="node"><title>Node20</title>
<g id="a_node20"><a xlink:href="class_bitcoin_application.html#a37c560d4c04d14a6da151b82caf8888f" target="_top" xlink:title="Request core shutdown. ">
<polygon fill="white" stroke="black" points="1937,-49.5 1937,-79.5 2044,-79.5 2044,-49.5 1937,-49.5"/>
<text text-anchor="start" x="1945" y="-67.5" font-family="Helvetica,sans-Serif" font-size="10.00">BitcoinApplication</text>
<text text-anchor="middle" x="1990.5" y="-56.5" font-family="Helvetica,sans-Serif" font-size="10.00">::requestShutdown</text>
</a>
</g>
</g>
<!-- Node19&#45;&gt;Node20 -->
<g id="edge22" class="edge"><title>Node19&#45;&gt;Node20</title>
<path fill="none" stroke="midnightblue" d="M1637.19,-46.5998C1724.75,-51.0485 1862.02,-58.0227 1936.73,-61.819"/>
<polygon fill="midnightblue" stroke="midnightblue" points="1637.2,-43.0957 1627.03,-46.0836 1636.84,-50.0867 1637.2,-43.0957"/>
</g>
<!-- Node23 -->
<g id="node23" class="node"><title>Node23</title>
<g id="a_node23"><a xlink:href="class_bitcoin_application.html#a5bcf1bf32a7508326e0dd630a59a887d" target="_top" xlink:title="BitcoinApplication\l::initializeResult">
<polygon fill="white" stroke="black" points="1663,-5.5 1663,-35.5 1764,-35.5 1764,-5.5 1663,-5.5"/>
<text text-anchor="start" x="1671" y="-23.5" font-family="Helvetica,sans-Serif" font-size="10.00">BitcoinApplication</text>
<text text-anchor="middle" x="1713.5" y="-12.5" font-family="Helvetica,sans-Serif" font-size="10.00">::initializeResult</text>
</a>
</g>
</g>
<!-- Node19&#45;&gt;Node23 -->
<g id="edge25" class="edge"><title>Node19&#45;&gt;Node23</title>
<path fill="none" stroke="midnightblue" d="M1634.13,-31.5518C1643.87,-30.1789 1653.61,-28.805 1662.75,-27.5155"/>
<polygon fill="midnightblue" stroke="midnightblue" points="1633.43,-28.1162 1624.02,-32.9784 1634.41,-35.0476 1633.43,-28.1162"/>
</g>
<!-- Node21 -->
<g id="node21" class="node"><title>Node21</title>
<g id="a_node21"><a xlink:href="bitcoin_8h.html#a810d06fb8004c57d668eeb540ae582b7" target="_top" xlink:title="GuiMain">
<polygon fill="white" stroke="black" points="2080,-30 2080,-49 2135,-49 2135,-30 2080,-30"/>
<text text-anchor="middle" x="2107.5" y="-37" font-family="Helvetica,sans-Serif" font-size="10.00">GuiMain</text>
</a>
</g>
</g>
<!-- Node20&#45;&gt;Node21 -->
<g id="edge23" class="edge"><title>Node20&#45;&gt;Node21</title>
<path fill="none" stroke="midnightblue" d="M2054.09,-50.8927C2063.11,-48.933 2071.95,-47.0099 2079.74,-45.318"/>
<polygon fill="midnightblue" stroke="midnightblue" points="2053.32,-47.4799 2044.29,-53.0244 2054.8,-54.3201 2053.32,-47.4799"/>
</g>
<!-- Node22 -->
<g id="node22" class="node"><title>Node22</title>
<g id="a_node22"><a xlink:href="main_8cpp.html#a0ddf1224851353fc92bfbff6f499fa97" target="_top" xlink:title="main">
<polygon fill="white" stroke="black" points="2171,-30 2171,-49 2212,-49 2212,-30 2171,-30"/>
<text text-anchor="middle" x="2191.5" y="-37" font-family="Helvetica,sans-Serif" font-size="10.00">main</text>
</a>
</g>
</g>
<!-- Node21&#45;&gt;Node22 -->
<g id="edge24" class="edge"><title>Node21&#45;&gt;Node22</title>
<path fill="none" stroke="midnightblue" d="M2145.43,-39.5C2154.2,-39.5 2163.23,-39.5 2170.87,-39.5"/>
<polygon fill="midnightblue" stroke="midnightblue" points="2145.35,-36.0001 2135.35,-39.5 2145.35,-43.0001 2145.35,-36.0001"/>
</g>
<!-- Node24 -->
<g id="node24" class="node"><title>Node24</title>
<g id="a_node24"><a xlink:href="class_bitcoin_application.html#a61afce9356e452c53ad4c83f5ca19df8" target="_top" xlink:title="BitcoinApplication\l::startThread">
<polygon fill="white" stroke="black" points="1800,-5.5 1800,-35.5 1901,-35.5 1901,-5.5 1800,-5.5"/>
<text text-anchor="start" x="1808" y="-23.5" font-family="Helvetica,sans-Serif" font-size="10.00">BitcoinApplication</text>
<text text-anchor="middle" x="1850.5" y="-12.5" font-family="Helvetica,sans-Serif" font-size="10.00">::startThread</text>
</a>
</g>
</g>
<!-- Node23&#45;&gt;Node24 -->
<g id="edge26" class="edge"><title>Node23&#45;&gt;Node24</title>
<path fill="none" stroke="midnightblue" d="M1774.21,-20.5C1782.67,-20.5 1791.3,-20.5 1799.55,-20.5"/>
<polygon fill="midnightblue" stroke="midnightblue" points="1774,-17.0001 1764,-20.5 1774,-24.0001 1774,-17.0001"/>
</g>
<!-- Node24&#45;&gt;Node20 -->
<g id="edge29" class="edge"><title>Node24&#45;&gt;Node20</title>
<path fill="none" stroke="midnightblue" d="M1908.34,-38.6215C1919.57,-42.2044 1931.25,-45.9291 1942.14,-49.3991"/>
<polygon fill="midnightblue" stroke="midnightblue" points="1909.2,-35.2224 1898.61,-35.5192 1907.07,-41.8917 1909.2,-35.2224"/>
</g>
<!-- Node25 -->
<g id="node25" class="node"><title>Node25</title>
<g id="a_node25"><a xlink:href="class_bitcoin_application.html#ade19c44b87b00b6b19b433caf4c22ba6" target="_top" xlink:title="Request core initialization. ">
<polygon fill="white" stroke="black" points="1940,-0.5 1940,-30.5 2041,-30.5 2041,-0.5 1940,-0.5"/>
<text text-anchor="start" x="1948" y="-18.5" font-family="Helvetica,sans-Serif" font-size="10.00">BitcoinApplication</text>
<text text-anchor="middle" x="1990.5" y="-7.5" font-family="Helvetica,sans-Serif" font-size="10.00">::requestInitialize</text>
</a>
</g>
</g>
<!-- Node24&#45;&gt;Node25 -->
<g id="edge27" class="edge"><title>Node24&#45;&gt;Node25</title>
<path fill="none" stroke="midnightblue" d="M1911.45,-18.328C1920.89,-17.9858 1930.57,-17.6352 1939.75,-17.3025"/>
<polygon fill="midnightblue" stroke="midnightblue" points="1911.19,-14.835 1901.32,-18.6949 1911.44,-21.8304 1911.19,-14.835"/>
</g>
<!-- Node25&#45;&gt;Node21 -->
<g id="edge28" class="edge"><title>Node25&#45;&gt;Node21</title>
<path fill="none" stroke="midnightblue" d="M2051.26,-27.9709C2061.26,-30.0576 2071.16,-32.1253 2079.77,-33.9211"/>
<polygon fill="midnightblue" stroke="midnightblue" points="2051.78,-24.504 2041.27,-25.8872 2050.35,-31.3564 2051.78,-24.504"/>
</g>
</g>
</svg>
