<?xml version="1.0" encoding="UTF-8" standalone="no"?>
<!DOCTYPE svg PUBLIC "-//W3C//DTD SVG 1.1//EN"
 "http://www.w3.org/Graphics/SVG/1.1/DTD/svg11.dtd">
<!-- Generated by graphviz version 2.38.0 (20140413.2041)
 -->
<!-- Title: AES256CBCEncrypt::Encrypt Pages: 1 -->
<svg width="958pt" height="172pt"
 viewBox="0.00 0.00 958.00 171.50" xmlns="http://www.w3.org/2000/svg" xmlns:xlink="http://www.w3.org/1999/xlink">
<g id="graph0" class="graph" transform="scale(1 1) rotate(0) translate(4 167.5)">
<title>AES256CBCEncrypt::Encrypt</title>
<polygon fill="white" stroke="none" points="-4,4 -4,-167.5 954,-167.5 954,4 -4,4"/>
<!-- Node1 -->
<g id="node1" class="node"><title>Node1</title>
<polygon fill="#bfbfbf" stroke="black" points="0,-78 0,-97 152,-97 152,-78 0,-78"/>
<text text-anchor="middle" x="76" y="-85" font-family="Helvetica,sans-Serif" font-size="10.00">AES256CBCEncrypt::Encrypt</text>
</g>
<!-- Node2 -->
<g id="node2" class="node"><title>Node2</title>
<g id="a_node2"><a xlink:href="class_c_crypter.html#a329901fe08961af3db216022b4f21369" target="_top" xlink:title="CCrypter::Encrypt">
<polygon fill="white" stroke="black" points="188,-78 188,-97 289,-97 289,-78 188,-78"/>
<text text-anchor="middle" x="238.5" y="-85" font-family="Helvetica,sans-Serif" font-size="10.00">CCrypter::Encrypt</text>
</a>
</g>
</g>
<!-- Node1&#45;&gt;Node2 -->
<g id="edge1" class="edge"><title>Node1&#45;&gt;Node2</title>
<path fill="none" stroke="midnightblue" d="M162.282,-87.5C170.961,-87.5 179.562,-87.5 187.675,-87.5"/>
<polygon fill="midnightblue" stroke="midnightblue" points="162.081,-84.0001 152.081,-87.5 162.081,-91.0001 162.081,-84.0001"/>
</g>
<!-- Node3 -->
<g id="node3" class="node"><title>Node3</title>
<g id="a_node3"><a xlink:href="group__map_wallet.html#ga4abcec3066e7c462f4564c159fc15031" target="_top" xlink:title="CWallet::ChangeWalletPassphrase">
<polygon fill="white" stroke="black" points="492,-106 492,-125 668,-125 668,-106 492,-106"/>
<text text-anchor="middle" x="580" y="-113" font-family="Helvetica,sans-Serif" font-size="10.00">CWallet::ChangeWalletPassphrase</text>
</a>
</g>
</g>
<!-- Node2&#45;&gt;Node3 -->
<g id="edge2" class="edge"><title>Node2&#45;&gt;Node3</title>
<path fill="none" stroke="midnightblue" d="M299.244,-94.0214C307.882,-94.8966 316.666,-95.7498 325,-96.5 380.493,-101.495 442.892,-106.176 491.954,-109.642"/>
<polygon fill="midnightblue" stroke="midnightblue" points="299.513,-90.5307 289.207,-92.9888 298.797,-97.494 299.513,-90.5307"/>
</g>
<!-- Node6 -->
<g id="node6" class="node"><title>Node6</title>
<g id="a_node6"><a xlink:href="group__map_wallet.html#gab34fe5bf771619dcbe22a65f013e5469" target="_top" xlink:title="CWallet::EncryptWallet">
<polygon fill="white" stroke="black" points="330,-144 330,-163 451,-163 451,-144 330,-144"/>
<text text-anchor="middle" x="390.5" y="-151" font-family="Helvetica,sans-Serif" font-size="10.00">CWallet::EncryptWallet</text>
</a>
</g>
</g>
<!-- Node2&#45;&gt;Node6 -->
<g id="edge5" class="edge"><title>Node2&#45;&gt;Node6</title>
<path fill="none" stroke="midnightblue" d="M266.741,-101.752C283.376,-110.236 305.19,-120.974 325,-129.5 336.962,-134.648 350.431,-139.763 361.955,-143.94"/>
<polygon fill="midnightblue" stroke="midnightblue" points="268.092,-98.5112 257.598,-97.0506 264.891,-104.736 268.092,-98.5112"/>
</g>
<!-- Node7 -->
<g id="node7" class="node"><title>Node7</title>
<g id="a_node7"><a xlink:href="class_c_crypter.html#ac5a813381a88db619331a9d5492cd339" target="_top" xlink:title="CCrypter::Decrypt">
<polygon fill="white" stroke="black" points="339.5,-50 339.5,-69 441.5,-69 441.5,-50 339.5,-50"/>
<text text-anchor="middle" x="390.5" y="-57" font-family="Helvetica,sans-Serif" font-size="10.00">CCrypter::Decrypt</text>
</a>
</g>
</g>
<!-- Node2&#45;&gt;Node7 -->
<g id="edge7" class="edge"><title>Node2&#45;&gt;Node7</title>
<path fill="none" stroke="midnightblue" d="M299.051,-76.3838C312.365,-73.8986 326.358,-71.2865 339.252,-68.8797"/>
<polygon fill="midnightblue" stroke="midnightblue" points="298.219,-72.9785 289.031,-78.2542 299.504,-79.8597 298.219,-72.9785"/>
</g>
<!-- Node11 -->
<g id="node11" class="node"><title>Node11</title>
<g id="a_node11"><a xlink:href="class_test_crypter.html#afea5fb6e96495ddd00a23bd4b1aabfa0" target="_top" xlink:title="TestCrypter::TestEncrypt\lSingle">
<polygon fill="white" stroke="black" points="325,-0.5 325,-30.5 456,-30.5 456,-0.5 325,-0.5"/>
<text text-anchor="start" x="333" y="-18.5" font-family="Helvetica,sans-Serif" font-size="10.00">TestCrypter::TestEncrypt</text>
<text text-anchor="middle" x="390.5" y="-7.5" font-family="Helvetica,sans-Serif" font-size="10.00">Single</text>
</a>
</g>
</g>
<!-- Node2&#45;&gt;Node11 -->
<g id="edge14" class="edge"><title>Node2&#45;&gt;Node11</title>
<path fill="none" stroke="midnightblue" d="M264.23,-72.7632C281.064,-63.0172 304.015,-50.282 325,-40.5 332.402,-37.0497 340.422,-33.6684 348.211,-30.563"/>
<polygon fill="midnightblue" stroke="midnightblue" points="262.424,-69.7642 255.557,-77.8324 265.957,-75.8075 262.424,-69.7642"/>
</g>
<!-- Node4 -->
<g id="node4" class="node"><title>Node4</title>
<g id="a_node4"><a xlink:href="rpcwallet_8cpp.html#a74b85c92ee6a84277c73b74f2e212bff" target="_top" xlink:title="listtransactions">
<polygon fill="white" stroke="black" points="731,-106 731,-125 820,-125 820,-106 731,-106"/>
<text text-anchor="middle" x="775.5" y="-113" font-family="Helvetica,sans-Serif" font-size="10.00">listtransactions</text>
</a>
</g>
</g>
<!-- Node3&#45;&gt;Node4 -->
<g id="edge3" class="edge"><title>Node3&#45;&gt;Node4</title>
<path fill="none" stroke="midnightblue" d="M678.362,-115.5C696.809,-115.5 715.227,-115.5 730.933,-115.5"/>
<polygon fill="midnightblue" stroke="midnightblue" points="678.127,-112 668.127,-115.5 678.127,-119 678.127,-112"/>
</g>
<!-- Node5 -->
<g id="node5" class="node"><title>Node5</title>
<g id="a_node5"><a xlink:href="rpcwallet_8cpp.html#a61c7a90d1b36888fe11b751e746e18c0" target="_top" xlink:title="sethdseed">
<polygon fill="white" stroke="black" points="883,-106 883,-125 950,-125 950,-106 883,-106"/>
<text text-anchor="middle" x="916.5" y="-113" font-family="Helvetica,sans-Serif" font-size="10.00">sethdseed</text>
</a>
</g>
</g>
<!-- Node4&#45;&gt;Node5 -->
<g id="edge4" class="edge"><title>Node4&#45;&gt;Node5</title>
<path fill="none" stroke="midnightblue" d="M830.291,-115.5C847.945,-115.5 867.025,-115.5 882.646,-115.5"/>
<polygon fill="midnightblue" stroke="midnightblue" points="830.099,-112 820.099,-115.5 830.099,-119 830.099,-112"/>
</g>
<!-- Node6&#45;&gt;Node4 -->
<g id="edge6" class="edge"><title>Node6&#45;&gt;Node4</title>
<path fill="none" stroke="midnightblue" d="M461.175,-150.796C517.205,-148.12 597.866,-143.14 668,-134.5 688.784,-131.939 711.667,-128.005 730.877,-124.379"/>
<polygon fill="midnightblue" stroke="midnightblue" points="460.834,-147.308 451.007,-151.269 461.159,-154.3 460.834,-147.308"/>
</g>
<!-- Node7&#45;&gt;Node3 -->
<g id="edge10" class="edge"><title>Node7&#45;&gt;Node3</title>
<path fill="none" stroke="midnightblue" d="M424.082,-72.7921C443.567,-80.4141 468.944,-89.773 492,-96.5 504.021,-100.007 517.145,-103.198 529.471,-105.92"/>
<polygon fill="midnightblue" stroke="midnightblue" points="425.336,-69.5244 414.75,-69.0987 422.76,-76.0332 425.336,-69.5244"/>
</g>
<!-- Node7&#45;&gt;Node7 -->
<g id="edge11" class="edge"><title>Node7&#45;&gt;Node7</title>
<path fill="none" stroke="midnightblue" d="M362.128,-78.1539C363.314,-83.4368 372.771,-87.5 390.5,-87.5 417.516,-87.5 425.325,-78.0653 413.928,-69.2571"/>
<polygon fill="midnightblue" stroke="midnightblue" points="365.274,-79.6981 367.072,-69.2571 359.155,-76.2974 365.274,-79.6981"/>
</g>
<!-- Node8 -->
<g id="node8" class="node"><title>Node8</title>
<g id="a_node8"><a xlink:href="group__map_wallet.html#ga002c61a2b74f2c46063340c568e6cc1b" target="_top" xlink:title="CWallet::Unlock">
<polygon fill="white" stroke="black" points="535.5,-68 535.5,-87 624.5,-87 624.5,-68 535.5,-68"/>
<text text-anchor="middle" x="580" y="-75" font-family="Helvetica,sans-Serif" font-size="10.00">CWallet::Unlock</text>
</a>
</g>
</g>
<!-- Node7&#45;&gt;Node8 -->
<g id="edge8" class="edge"><title>Node7&#45;&gt;Node8</title>
<path fill="none" stroke="midnightblue" d="M451.919,-65.3002C479.067,-67.9064 510.502,-70.9242 535.315,-73.3062"/>
<polygon fill="midnightblue" stroke="midnightblue" points="452.035,-61.7954 441.747,-64.3237 451.366,-68.7633 452.035,-61.7954"/>
</g>
<!-- Node9 -->
<g id="node9" class="node"><title>Node9</title>
<g id="a_node9"><a xlink:href="class_test_crypter.html#a93c08804ea02ced9541291535625590d" target="_top" xlink:title="TestCrypter::TestDecrypt">
<polygon fill="white" stroke="black" points="513.5,-30 513.5,-49 646.5,-49 646.5,-30 513.5,-30"/>
<text text-anchor="middle" x="580" y="-37" font-family="Helvetica,sans-Serif" font-size="10.00">TestCrypter::TestDecrypt</text>
</a>
</g>
</g>
<!-- Node7&#45;&gt;Node9 -->
<g id="edge12" class="edge"><title>Node7&#45;&gt;Node9</title>
<path fill="none" stroke="midnightblue" d="M451.803,-53.0677C471.469,-50.97 493.394,-48.6313 513.428,-46.4944"/>
<polygon fill="midnightblue" stroke="midnightblue" points="451.319,-49.5994 441.747,-54.1404 452.061,-56.5599 451.319,-49.5994"/>
</g>
<!-- Node8&#45;&gt;Node4 -->
<g id="edge9" class="edge"><title>Node8&#45;&gt;Node4</title>
<path fill="none" stroke="midnightblue" d="M634.871,-88.0793C665.108,-94.0174 702.35,-101.331 730.766,-106.911"/>
<polygon fill="midnightblue" stroke="midnightblue" points="635.395,-84.6155 624.908,-86.1228 634.046,-91.4843 635.395,-84.6155"/>
</g>
<!-- Node10 -->
<g id="node10" class="node"><title>Node10</title>
<g id="a_node10"><a xlink:href="wallet__crypto__tests_8cpp.html#aee84e10c9cfc1d150e3e60eab1245ce4" target="_top" xlink:title="BOOST_AUTO_TEST_CASE">
<polygon fill="white" stroke="black" points="704,-30 704,-49 847,-49 847,-30 704,-30"/>
<text text-anchor="middle" x="775.5" y="-37" font-family="Helvetica,sans-Serif" font-size="10.00">BOOST_AUTO_TEST_CASE</text>
</a>
</g>
</g>
<!-- Node9&#45;&gt;Node10 -->
<g id="edge13" class="edge"><title>Node9&#45;&gt;Node10</title>
<path fill="none" stroke="midnightblue" d="M656.586,-39.5C672.112,-39.5 688.404,-39.5 703.752,-39.5"/>
<polygon fill="midnightblue" stroke="midnightblue" points="656.51,-36.0001 646.51,-39.5 656.51,-43.0001 656.51,-36.0001"/>
</g>
</g>
</svg>
