<?xml version="1.0" encoding="UTF-8" standalone="no"?>
<!DOCTYPE svg PUBLIC "-//W3C//DTD SVG 1.1//EN"
 "http://www.w3.org/Graphics/SVG/1.1/DTD/svg11.dtd">
<!-- Generated by graphviz version 2.40.1 (20161225.0304)
 -->
<!-- Title: ClientModel::getBlockSource Pages: 1 -->
<svg width="518pt" height="110pt"
 viewBox="0.00 0.00 518.00 109.50" xmlns="http://www.w3.org/2000/svg" xmlns:xlink="http://www.w3.org/1999/xlink">
<g id="graph0" class="graph" transform="scale(1 1) rotate(0) translate(4 105.5)">
<title>ClientModel::getBlockSource</title>
<polygon fill="#ffffff" stroke="transparent" points="-4,4 -4,-105.5 514,-105.5 514,4 -4,4"/>
<!-- Node65 -->
<g id="node1" class="node">
<title>Node65</title>
<polygon fill="#bfbfbf" stroke="#000000" points="0,-44 0,-63 143,-63 143,-44 0,-44"/>
<text text-anchor="middle" x="71.5" y="-51" font-family="Helvetica,sans-Serif" font-size="10.00" fill="#000000">ClientModel::getBlockSource</text>
</g>
<!-- Node66 -->
<g id="node2" class="node">
<title>Node66</title>
<g id="a_node2"><a xlink:href="classinterfaces_1_1_node.html#a632b312863433ed8028c4b91c433fbc5" target="_top" xlink:title="Get reindex. ">
<polygon fill="#ffffff" stroke="#000000" points="189,-82 189,-101 333,-101 333,-82 189,-82"/>
<text text-anchor="middle" x="261" y="-89" font-family="Helvetica,sans-Serif" font-size="10.00" fill="#000000">interfaces::Node::getReindex</text>
</a>
</g>
</g>
<!-- Node65&#45;&gt;Node66 -->
<g id="edge1" class="edge">
<title>Node65&#45;&gt;Node66</title>
<path fill="none" stroke="#191970" d="M119.3189,-63.089C144.8886,-68.2165 176.559,-74.5672 203.4678,-79.9632"/>
<polygon fill="#191970" stroke="#191970" points="203.032,-83.4454 213.525,-81.9799 204.4084,-76.5821 203.032,-83.4454"/>
</g>
<!-- Node67 -->
<g id="node3" class="node">
<title>Node67</title>
<g id="a_node3"><a xlink:href="classinterfaces_1_1_node.html#a1996ff8c079369678347e6201789fcb6" target="_top" xlink:title="Get importing. ">
<polygon fill="#ffffff" stroke="#000000" points="186.5,-44 186.5,-63 335.5,-63 335.5,-44 186.5,-44"/>
<text text-anchor="middle" x="261" y="-51" font-family="Helvetica,sans-Serif" font-size="10.00" fill="#000000">interfaces::Node::getImporting</text>
</a>
</g>
</g>
<!-- Node65&#45;&gt;Node67 -->
<g id="edge2" class="edge">
<title>Node65&#45;&gt;Node67</title>
<path fill="none" stroke="#191970" d="M143.1418,-53.5C153.975,-53.5 165.2374,-53.5 176.3142,-53.5"/>
<polygon fill="#191970" stroke="#191970" points="176.417,-57.0001 186.417,-53.5 176.4169,-50.0001 176.417,-57.0001"/>
</g>
<!-- Node68 -->
<g id="node4" class="node">
<title>Node68</title>
<g id="a_node4"><a xlink:href="class_client_model.html#ab1a71928e2ff3902e854d301f4cfe6ef" target="_top" xlink:title="Return number of connections, default is in&#45; and outbound (total) ">
<polygon fill="#ffffff" stroke="#000000" points="179,-6 179,-25 343,-25 343,-6 179,-6"/>
<text text-anchor="middle" x="261" y="-13" font-family="Helvetica,sans-Serif" font-size="10.00" fill="#000000">ClientModel::getNumConnections</text>
</a>
</g>
</g>
<!-- Node65&#45;&gt;Node68 -->
<g id="edge3" class="edge">
<title>Node65&#45;&gt;Node68</title>
<path fill="none" stroke="#191970" d="M119.3189,-43.911C144.8886,-38.7835 176.559,-32.4328 203.4678,-27.0368"/>
<polygon fill="#191970" stroke="#191970" points="204.4084,-30.4179 213.525,-25.0201 203.032,-23.5546 204.4084,-30.4179"/>
</g>
<!-- Node69 -->
<g id="node5" class="node">
<title>Node69</title>
<g id="a_node5"><a xlink:href="classinterfaces_1_1_node.html#a95f48f789c07754efd4197788dfe661a" target="_top" xlink:title="Get number of connections. ">
<polygon fill="#ffffff" stroke="#000000" points="379,-.5 379,-30.5 510,-30.5 510,-.5 379,-.5"/>
<text text-anchor="start" x="387" y="-18.5" font-family="Helvetica,sans-Serif" font-size="10.00" fill="#000000">interfaces::Node::getNode</text>
<text text-anchor="middle" x="444.5" y="-7.5" font-family="Helvetica,sans-Serif" font-size="10.00" fill="#000000">Count</text>
</a>
</g>
</g>
<!-- Node68&#45;&gt;Node69 -->
<g id="edge4" class="edge">
<title>Node68&#45;&gt;Node69</title>
<path fill="none" stroke="#191970" d="M343.0892,-15.5C351.6372,-15.5 360.2984,-15.5 368.7714,-15.5"/>
<polygon fill="#191970" stroke="#191970" points="368.9931,-19.0001 378.9931,-15.5 368.993,-12.0001 368.9931,-19.0001"/>
</g>
</g>
</svg>
