<?xml version="1.0" encoding="UTF-8" standalone="no"?>
<!DOCTYPE svg PUBLIC "-//W3C//DTD SVG 1.1//EN"
 "http://www.w3.org/Graphics/SVG/1.1/DTD/svg11.dtd">
<!-- Generated by graphviz version 2.49.3 (0)
 -->
<!-- Title: ArgsManager::GetBlocksDirPath Pages: 1 -->
<svg width="1548pt" height="317pt"
 viewBox="0.00 0.00 1548.00 317.00" xmlns="http://www.w3.org/2000/svg" xmlns:xlink="http://www.w3.org/1999/xlink">
<g id="graph0" class="graph" transform="scale(1 1) rotate(0) translate(4 313)">
<title>ArgsManager::GetBlocksDirPath</title>
<polygon fill="white" stroke="transparent" points="-4,4 -4,-313 1544,-313 1544,4 -4,4"/>
<!-- Node1 -->
<g id="node1" class="node">
<title>Node1</title>
<g id="a_node1"><a xlink:title="Get blocks directory path.">
<polygon fill="#bfbfbf" stroke="black" points="0,-126.5 0,-145.5 172,-145.5 172,-126.5 0,-126.5"/>
<text text-anchor="middle" x="86" y="-133.5" font-family="Helvetica,sans-Serif" font-size="10.00">ArgsManager::GetBlocksDirPath</text>
</a>
</g>
</g>
<!-- Node2 -->
<g id="node2" class="node">
<title>Node2</title>
<g id="a_node2"><a xlink:href="chainparamsbase_8cpp.html#a06aa55e81a512bf827dd3b98ab55e1ec" target="_top" xlink:title="Return the currently selected parameters.">
<polygon fill="white" stroke="black" points="613.5,-238.5 613.5,-257.5 690.5,-257.5 690.5,-238.5 613.5,-238.5"/>
<text text-anchor="middle" x="652" y="-245.5" font-family="Helvetica,sans-Serif" font-size="10.00">BaseParams</text>
</a>
</g>
</g>
<!-- Node1&#45;&gt;Node2 -->
<g id="edge1" class="edge">
<title>Node1&#45;&gt;Node2</title>
<path fill="none" stroke="midnightblue" d="M99.98,-145.54C121.3,-160.65 165.61,-189.73 208,-203 346.66,-246.42 520.52,-250.34 603.14,-249.36"/>
<polygon fill="midnightblue" stroke="midnightblue" points="603.28,-252.85 613.23,-249.2 603.18,-245.85 603.28,-252.85"/>
</g>
<!-- Node4 -->
<g id="node4" class="node">
<title>Node4</title>
<g id="a_node4"><a xlink:href="class_args_manager.html#adb5d644d273b3a259f792affcdca8283" target="_top" xlink:title="Return string argument or default value.">
<polygon fill="white" stroke="black" points="591.5,-200.5 591.5,-219.5 712.5,-219.5 712.5,-200.5 591.5,-200.5"/>
<text text-anchor="middle" x="652" y="-207.5" font-family="Helvetica,sans-Serif" font-size="10.00">ArgsManager::GetArg</text>
</a>
</g>
</g>
<!-- Node1&#45;&gt;Node4 -->
<g id="edge3" class="edge">
<title>Node1&#45;&gt;Node4</title>
<path fill="none" stroke="midnightblue" d="M108.81,-145.52C132.67,-155.48 172.28,-170.64 208,-178 337.86,-204.74 493.12,-210 581.08,-210.57"/>
<polygon fill="midnightblue" stroke="midnightblue" points="581.19,-214.07 591.21,-210.61 581.22,-207.07 581.19,-214.07"/>
</g>
<!-- Node19 -->
<g id="node19" class="node">
<title>Node19</title>
<g id="a_node19"><a xlink:href="class_args_manager.html#a029de0285f80ebde9539c1a58a83f3a0" target="_top" xlink:title="Get data directory path.">
<polygon fill="white" stroke="black" points="208,-149.5 208,-168.5 374,-168.5 374,-149.5 208,-149.5"/>
<text text-anchor="middle" x="291" y="-156.5" font-family="Helvetica,sans-Serif" font-size="10.00">ArgsManager::GetDataDirBase</text>
</a>
</g>
</g>
<!-- Node1&#45;&gt;Node19 -->
<g id="edge20" class="edge">
<title>Node1&#45;&gt;Node19</title>
<path fill="none" stroke="midnightblue" d="M171.03,-145.52C179.91,-146.53 188.97,-147.55 197.93,-148.57"/>
<polygon fill="midnightblue" stroke="midnightblue" points="197.66,-152.06 207.99,-149.71 198.45,-145.1 197.66,-152.06"/>
</g>
<!-- Node22 -->
<g id="node22" class="node">
<title>Node22</title>
<g id="a_node22"><a xlink:href="namespacefs.html#abba62d94f8b56eb0b6bc1e437728fd89" target="_top" xlink:title="Convert byte string to path object.">
<polygon fill="white" stroke="black" points="599,-30.5 599,-49.5 705,-49.5 705,-30.5 599,-30.5"/>
<text text-anchor="middle" x="652" y="-37.5" font-family="Helvetica,sans-Serif" font-size="10.00">fs::PathFromString</text>
</a>
</g>
</g>
<!-- Node1&#45;&gt;Node22 -->
<g id="edge32" class="edge">
<title>Node1&#45;&gt;Node22</title>
<path fill="none" stroke="midnightblue" d="M115.55,-126.47C139.89,-118.66 175.91,-107.81 208,-101 342.28,-72.49 502.39,-54.26 588.6,-45.72"/>
<polygon fill="midnightblue" stroke="midnightblue" points="589.13,-49.18 598.74,-44.72 588.45,-42.21 589.13,-49.18"/>
</g>
<!-- Node24 -->
<g id="node24" class="node">
<title>Node24</title>
<g id="a_node24"><a xlink:href="namespacefs.html#a493de8fc3defb7df52d9d9025fc9fb9e" target="_top" xlink:title=" ">
<polygon fill="white" stroke="black" points="592.5,-106.5 592.5,-125.5 711.5,-125.5 711.5,-106.5 592.5,-106.5"/>
<text text-anchor="middle" x="652" y="-113.5" font-family="Helvetica,sans-Serif" font-size="10.00">fs::system_complete</text>
</a>
</g>
</g>
<!-- Node1&#45;&gt;Node24 -->
<g id="edge33" class="edge">
<title>Node1&#45;&gt;Node24</title>
<path fill="none" stroke="midnightblue" d="M172.05,-132.98C284.17,-129.01 479.28,-122.09 582.47,-118.43"/>
<polygon fill="midnightblue" stroke="midnightblue" points="582.59,-121.93 592.46,-118.08 582.35,-114.93 582.59,-121.93"/>
</g>
<!-- Node25 -->
<g id="node25" class="node">
<title>Node25</title>
<g id="a_node25"><a xlink:href="class_args_manager.html#a797473ebdea9030ae99f9aa8c0744a6f" target="_top" xlink:title="Return true if the given argument has been manually set.">
<polygon fill="white" stroke="black" points="588,-68.5 588,-87.5 716,-87.5 716,-68.5 588,-68.5"/>
<text text-anchor="middle" x="652" y="-75.5" font-family="Helvetica,sans-Serif" font-size="10.00">ArgsManager::IsArgSet</text>
</a>
</g>
</g>
<!-- Node1&#45;&gt;Node25 -->
<g id="edge29" class="edge">
<title>Node1&#45;&gt;Node25</title>
<path fill="none" stroke="midnightblue" d="M167.69,-126.48C181.14,-124.95 194.96,-123.4 208,-122 338.1,-108.01 489.86,-93.28 577.74,-84.91"/>
<polygon fill="midnightblue" stroke="midnightblue" points="578.25,-88.38 587.88,-83.95 577.59,-81.41 578.25,-88.38"/>
</g>
<!-- Node3 -->
<g id="node3" class="node">
<title>Node3</title>
<g id="a_node3"><a xlink:href="validation_8cpp.html#afb7ea74ba028421697aa7f364741ee6c" target="_top" xlink:title=" ">
<polygon fill="white" stroke="black" points="798,-289.5 798,-308.5 845,-308.5 845,-289.5 798,-289.5"/>
<text text-anchor="middle" x="821.5" y="-296.5" font-family="Helvetica,sans-Serif" font-size="10.00">assert</text>
</a>
</g>
</g>
<!-- Node2&#45;&gt;Node3 -->
<g id="edge2" class="edge">
<title>Node2&#45;&gt;Node3</title>
<path fill="none" stroke="midnightblue" d="M681.49,-257.56C701.22,-264.09 728.13,-272.83 752,-280 763.67,-283.5 776.54,-287.13 787.93,-290.27"/>
<polygon fill="midnightblue" stroke="midnightblue" points="787.34,-293.73 797.91,-292.99 789.18,-286.98 787.34,-293.73"/>
</g>
<!-- Node5 -->
<g id="node5" class="node">
<title>Node5</title>
<g id="a_node5"><a xlink:href="class_uni_value.html#a087ea6ccec615333371fa1aaf83ab7df" target="_top" xlink:title=" ">
<polygon fill="white" stroke="black" points="771.5,-251.5 771.5,-270.5 871.5,-270.5 871.5,-251.5 771.5,-251.5"/>
<text text-anchor="middle" x="821.5" y="-258.5" font-family="Helvetica,sans-Serif" font-size="10.00">UniValue::get_str</text>
</a>
</g>
</g>
<!-- Node4&#45;&gt;Node5 -->
<g id="edge4" class="edge">
<title>Node4&#45;&gt;Node5</title>
<path fill="none" stroke="midnightblue" d="M685.8,-219.53C695.56,-222.46 706.24,-225.77 716,-229 732.15,-234.35 735.79,-236.83 752,-242 759.19,-244.29 766.86,-246.58 774.37,-248.72"/>
<polygon fill="midnightblue" stroke="midnightblue" points="773.51,-252.12 784.09,-251.45 775.41,-245.38 773.51,-252.12"/>
</g>
<!-- Node7 -->
<g id="node7" class="node">
<title>Node7</title>
<g id="a_node7"><a xlink:href="class_args_manager.html#ae22ce1df21c32003b3822817ed4b710e" target="_top" xlink:title="Get setting value.">
<polygon fill="white" stroke="black" points="752,-106.5 752,-125.5 891,-125.5 891,-106.5 752,-106.5"/>
<text text-anchor="middle" x="821.5" y="-113.5" font-family="Helvetica,sans-Serif" font-size="10.00">ArgsManager::GetSetting</text>
</a>
</g>
</g>
<!-- Node4&#45;&gt;Node7 -->
<g id="edge6" class="edge">
<title>Node4&#45;&gt;Node7</title>
<path fill="none" stroke="midnightblue" d="M692.08,-200.4C700.18,-197.81 708.52,-194.69 716,-191 748.6,-174.94 781.99,-148.99 801.98,-132.21"/>
<polygon fill="midnightblue" stroke="midnightblue" points="804.35,-134.79 809.69,-125.64 799.81,-129.46 804.35,-134.79"/>
</g>
<!-- Node13 -->
<g id="node13" class="node">
<title>Node13</title>
<g id="a_node13"><a xlink:href="class_uni_value.html#ae79ab57378176379dd206c5e2d6f5feb" target="_top" xlink:title=" ">
<polygon fill="white" stroke="black" points="1441,-153.5 1441,-172.5 1540,-172.5 1540,-153.5 1441,-153.5"/>
<text text-anchor="middle" x="1490.5" y="-160.5" font-family="Helvetica,sans-Serif" font-size="10.00">UniValue::isFalse</text>
</a>
</g>
</g>
<!-- Node4&#45;&gt;Node13 -->
<g id="edge17" class="edge">
<title>Node4&#45;&gt;Node13</title>
<path fill="none" stroke="midnightblue" d="M712.8,-203.33C784.51,-195.93 908.38,-185 1015,-185 1015,-185 1015,-185 1205,-185 1283.28,-185 1373.31,-176.62 1430.77,-170.2"/>
<polygon fill="midnightblue" stroke="midnightblue" points="1431.21,-173.67 1440.76,-169.07 1430.43,-166.72 1431.21,-173.67"/>
</g>
<!-- Node17 -->
<g id="node17" class="node">
<title>Node17</title>
<g id="a_node17"><a xlink:href="class_uni_value.html#a3661be0f5580daceb23e5338e3a0df22" target="_top" xlink:title=" ">
<polygon fill="white" stroke="black" points="774.5,-68.5 774.5,-87.5 868.5,-87.5 868.5,-68.5 774.5,-68.5"/>
<text text-anchor="middle" x="821.5" y="-75.5" font-family="Helvetica,sans-Serif" font-size="10.00">UniValue::isNull</text>
</a>
</g>
</g>
<!-- Node4&#45;&gt;Node17 -->
<g id="edge18" class="edge">
<title>Node4&#45;&gt;Node17</title>
<path fill="none" stroke="midnightblue" d="M701.6,-200.45C706.86,-197.98 711.82,-194.89 716,-191 748.76,-160.54 718.9,-127.09 752,-97 755.84,-93.51 760.27,-90.65 764.98,-88.32"/>
<polygon fill="midnightblue" stroke="midnightblue" points="766.44,-91.5 774.33,-84.43 763.76,-85.04 766.44,-91.5"/>
</g>
<!-- Node18 -->
<g id="node18" class="node">
<title>Node18</title>
<g id="a_node18"><a xlink:href="class_uni_value.html#a1491167609f899d0c7773749b5047969" target="_top" xlink:title=" ">
<polygon fill="white" stroke="black" points="774,-213.5 774,-232.5 869,-232.5 869,-213.5 774,-213.5"/>
<text text-anchor="middle" x="821.5" y="-220.5" font-family="Helvetica,sans-Serif" font-size="10.00">UniValue::isTrue</text>
</a>
</g>
</g>
<!-- Node4&#45;&gt;Node18 -->
<g id="edge19" class="edge">
<title>Node4&#45;&gt;Node18</title>
<path fill="none" stroke="midnightblue" d="M712.53,-214.62C729.19,-215.91 747.25,-217.32 763.75,-218.6"/>
<polygon fill="midnightblue" stroke="midnightblue" points="763.56,-222.09 773.8,-219.38 764.1,-215.11 763.56,-222.09"/>
</g>
<!-- Node6 -->
<g id="node6" class="node">
<title>Node6</title>
<g id="a_node6"><a xlink:href="class_uni_value.html#a46cb80a3205cfa12f8a6d4de7d6fe6e8" target="_top" xlink:title=" ">
<polygon fill="white" stroke="black" points="961,-251.5 961,-270.5 1071,-270.5 1071,-251.5 961,-251.5"/>
<text text-anchor="middle" x="1016" y="-258.5" font-family="Helvetica,sans-Serif" font-size="10.00">UniValue::getValStr</text>
</a>
</g>
</g>
<!-- Node5&#45;&gt;Node6 -->
<g id="edge5" class="edge">
<title>Node5&#45;&gt;Node6</title>
<path fill="none" stroke="midnightblue" d="M871.57,-261C895.67,-261 925,-261 950.85,-261"/>
<polygon fill="midnightblue" stroke="midnightblue" points="950.93,-264.5 960.93,-261 950.93,-257.5 950.93,-264.5"/>
</g>
<!-- Node8 -->
<g id="node8" class="node">
<title>Node8</title>
<g id="a_node8"><a xlink:href="namespaceutil.html#ad600799ecf02db34bd57992490adc8cf" target="_top" xlink:title="Get settings value from combined sources: forced settings, command line arguments,...">
<polygon fill="white" stroke="black" points="971,-106.5 971,-125.5 1061,-125.5 1061,-106.5 971,-106.5"/>
<text text-anchor="middle" x="1016" y="-113.5" font-family="Helvetica,sans-Serif" font-size="10.00">util::GetSetting</text>
</a>
</g>
</g>
<!-- Node7&#45;&gt;Node8 -->
<g id="edge7" class="edge">
<title>Node7&#45;&gt;Node8</title>
<path fill="none" stroke="midnightblue" d="M891.18,-116C914.01,-116 939.09,-116 960.68,-116"/>
<polygon fill="midnightblue" stroke="midnightblue" points="960.97,-119.5 970.97,-116 960.97,-112.5 960.97,-119.5"/>
</g>
<!-- Node15 -->
<g id="node15" class="node">
<title>Node15</title>
<g id="a_node15"><a xlink:href="util_2system_8cpp.html#aabbdc250e20dc3ba2de2a3718a5c0df8" target="_top" xlink:title=" ">
<polygon fill="white" stroke="black" points="976,-30.5 976,-49.5 1056,-49.5 1056,-30.5 976,-30.5"/>
<text text-anchor="middle" x="1016" y="-37.5" font-family="Helvetica,sans-Serif" font-size="10.00">SettingName</text>
</a>
</g>
</g>
<!-- Node7&#45;&gt;Node15 -->
<g id="edge15" class="edge">
<title>Node7&#45;&gt;Node15</title>
<path fill="none" stroke="midnightblue" d="M869.96,-106.48C877.28,-103.99 884.55,-100.88 891,-97 910.94,-85.01 906.72,-70.41 927,-59 938.83,-52.34 952.76,-48.02 966.01,-45.2"/>
<polygon fill="midnightblue" stroke="midnightblue" points="966.78,-48.62 975.96,-43.34 965.49,-41.74 966.78,-48.62"/>
</g>
<!-- Node16 -->
<g id="node16" class="node">
<title>Node16</title>
<g id="a_node16"><a xlink:href="class_args_manager.html#ad4df00e7ccb999f80702c7e334d8a152" target="_top" xlink:title="Returns true if settings values from the default section should be used, depending on the current net...">
<polygon fill="white" stroke="black" points="927,-68.5 927,-87.5 1105,-87.5 1105,-68.5 927,-68.5"/>
<text text-anchor="middle" x="1016" y="-75.5" font-family="Helvetica,sans-Serif" font-size="10.00">ArgsManager::UseDefaultSection</text>
</a>
</g>
</g>
<!-- Node7&#45;&gt;Node16 -->
<g id="edge16" class="edge">
<title>Node7&#45;&gt;Node16</title>
<path fill="none" stroke="midnightblue" d="M871.08,-106.41C897.16,-101.26 929.51,-94.88 956.92,-89.47"/>
<polygon fill="midnightblue" stroke="midnightblue" points="957.64,-92.89 966.77,-87.52 956.28,-86.02 957.64,-92.89"/>
</g>
<!-- Node9 -->
<g id="node9" class="node">
<title>Node9</title>
<g id="a_node9"><a xlink:href="structutil_1_1_settings_span.html#aedc8fc5f96bb66342cab93cee5dd716e" target="_top" xlink:title="Pointer to first non&#45;negated value.">
<polygon fill="white" stroke="black" points="1153,-39 1153,-69 1255,-69 1255,-39 1153,-39"/>
<text text-anchor="start" x="1161" y="-57" font-family="Helvetica,sans-Serif" font-size="10.00">util::SettingsSpan</text>
<text text-anchor="middle" x="1204" y="-46" font-family="Helvetica,sans-Serif" font-size="10.00">::begin</text>
</a>
</g>
</g>
<!-- Node8&#45;&gt;Node9 -->
<g id="edge8" class="edge">
<title>Node8&#45;&gt;Node9</title>
<path fill="none" stroke="midnightblue" d="M1061.08,-108.93C1075.33,-106.01 1091.05,-102.08 1105,-97 1122,-90.81 1124.54,-85.5 1141,-78 1144.78,-76.28 1148.73,-74.56 1152.71,-72.89"/>
<polygon fill="midnightblue" stroke="midnightblue" points="1154.1,-76.11 1162.03,-69.08 1151.45,-69.63 1154.1,-76.11"/>
</g>
<!-- Node11 -->
<g id="node11" class="node">
<title>Node11</title>
<g id="a_node11"><a xlink:href="structutil_1_1_settings_span.html#a55d1b74058081147c8d5bb3da1e5d833" target="_top" xlink:title="True if there are any non&#45;negated values.">
<polygon fill="white" stroke="black" points="1153,-88 1153,-118 1255,-118 1255,-88 1153,-88"/>
<text text-anchor="start" x="1161" y="-106" font-family="Helvetica,sans-Serif" font-size="10.00">util::SettingsSpan</text>
<text text-anchor="middle" x="1204" y="-95" font-family="Helvetica,sans-Serif" font-size="10.00">::empty</text>
</a>
</g>
</g>
<!-- Node8&#45;&gt;Node11 -->
<g id="edge10" class="edge">
<title>Node8&#45;&gt;Node11</title>
<path fill="none" stroke="midnightblue" d="M1061.08,-112.92C1085.36,-111.22 1115.85,-109.09 1142.35,-107.24"/>
<polygon fill="midnightblue" stroke="midnightblue" points="1142.93,-110.71 1152.67,-106.52 1142.45,-103.72 1142.93,-110.71"/>
</g>
<!-- Node12 -->
<g id="node12" class="node">
<title>Node12</title>
<g id="a_node12"><a xlink:href="structutil_1_1_settings_span.html#ae9fee31fb1a95f26de9c2c2f568f0e19" target="_top" xlink:title="True if the last value is negated.">
<polygon fill="white" stroke="black" points="1303,-126 1303,-156 1405,-156 1405,-126 1303,-126"/>
<text text-anchor="start" x="1311" y="-144" font-family="Helvetica,sans-Serif" font-size="10.00">util::SettingsSpan</text>
<text text-anchor="middle" x="1354" y="-133" font-family="Helvetica,sans-Serif" font-size="10.00">::last_negated</text>
</a>
</g>
</g>
<!-- Node8&#45;&gt;Node12 -->
<g id="edge14" class="edge">
<title>Node8&#45;&gt;Node12</title>
<path fill="none" stroke="midnightblue" d="M1061.17,-120.16C1084.84,-122.33 1114.5,-124.95 1141,-127 1192.13,-130.96 1250.26,-134.74 1292.7,-137.38"/>
<polygon fill="midnightblue" stroke="midnightblue" points="1292.66,-140.88 1302.86,-138.01 1293.1,-133.9 1292.66,-140.88"/>
</g>
<!-- Node14 -->
<g id="node14" class="node">
<title>Node14</title>
<g id="a_node14"><a xlink:href="structutil_1_1_settings_span.html#a3787e02e0b03d4cbecdc3a60841b88b8" target="_top" xlink:title="Pointer to end of values.">
<polygon fill="white" stroke="black" points="1141,-0.5 1141,-19.5 1267,-19.5 1267,-0.5 1141,-0.5"/>
<text text-anchor="middle" x="1204" y="-7.5" font-family="Helvetica,sans-Serif" font-size="10.00">util::SettingsSpan::end</text>
</a>
</g>
</g>
<!-- Node8&#45;&gt;Node14 -->
<g id="edge13" class="edge">
<title>Node8&#45;&gt;Node14</title>
<path fill="none" stroke="midnightblue" d="M1061.33,-113.95C1076.39,-111.4 1092.54,-106.44 1105,-97 1132.26,-76.35 1114.64,-50.78 1141,-29 1143.05,-27.31 1145.25,-25.76 1147.55,-24.36"/>
<polygon fill="midnightblue" stroke="midnightblue" points="1149.56,-27.26 1156.87,-19.59 1146.37,-21.03 1149.56,-27.26"/>
</g>
<!-- Node10 -->
<g id="node10" class="node">
<title>Node10</title>
<g id="a_node10"><a xlink:href="structutil_1_1_settings_span.html#a006e39e85a82859a2d34e0266c90efd2" target="_top" xlink:title="Number of negated values.">
<polygon fill="white" stroke="black" points="1303,-39 1303,-69 1405,-69 1405,-39 1303,-39"/>
<text text-anchor="start" x="1311" y="-57" font-family="Helvetica,sans-Serif" font-size="10.00">util::SettingsSpan</text>
<text text-anchor="middle" x="1354" y="-46" font-family="Helvetica,sans-Serif" font-size="10.00">::negated</text>
</a>
</g>
</g>
<!-- Node9&#45;&gt;Node10 -->
<g id="edge9" class="edge">
<title>Node9&#45;&gt;Node10</title>
<path fill="none" stroke="midnightblue" d="M1255.11,-54C1267.16,-54 1280.16,-54 1292.63,-54"/>
<polygon fill="midnightblue" stroke="midnightblue" points="1292.95,-57.5 1302.95,-54 1292.95,-50.5 1292.95,-57.5"/>
</g>
<!-- Node11&#45;&gt;Node12 -->
<g id="edge11" class="edge">
<title>Node11&#45;&gt;Node12</title>
<path fill="none" stroke="midnightblue" d="M1255.11,-115.87C1267.28,-118.99 1280.42,-122.37 1293,-125.6"/>
<polygon fill="midnightblue" stroke="midnightblue" points="1292.39,-129.05 1302.95,-128.15 1294.13,-122.27 1292.39,-129.05"/>
</g>
<!-- Node12&#45;&gt;Node13 -->
<g id="edge12" class="edge">
<title>Node12&#45;&gt;Node13</title>
<path fill="none" stroke="midnightblue" d="M1405.08,-149.19C1413.46,-150.56 1422.21,-151.99 1430.78,-153.4"/>
<polygon fill="midnightblue" stroke="midnightblue" points="1430.28,-156.86 1440.72,-155.02 1431.41,-149.95 1430.28,-156.86"/>
</g>
<!-- Node20 -->
<g id="node20" class="node">
<title>Node20</title>
<g id="a_node20"><a xlink:href="class_args_manager.html#a934563dfb0d520bfa2de5fba2578138b" target="_top" xlink:title="Get data directory path.">
<polygon fill="white" stroke="black" points="410,-149.5 410,-168.5 552,-168.5 552,-149.5 410,-149.5"/>
<text text-anchor="middle" x="481" y="-156.5" font-family="Helvetica,sans-Serif" font-size="10.00">ArgsManager::GetDataDir</text>
</a>
</g>
</g>
<!-- Node19&#45;&gt;Node20 -->
<g id="edge21" class="edge">
<title>Node19&#45;&gt;Node20</title>
<path fill="none" stroke="midnightblue" d="M374.19,-159C382.62,-159 391.17,-159 399.58,-159"/>
<polygon fill="midnightblue" stroke="midnightblue" points="399.75,-162.5 409.75,-159 399.75,-155.5 399.75,-162.5"/>
</g>
<!-- Node20&#45;&gt;Node2 -->
<g id="edge22" class="edge">
<title>Node20&#45;&gt;Node2</title>
<path fill="none" stroke="midnightblue" d="M494.03,-168.65C512.99,-183.46 551.46,-211.87 588,-229 592.98,-231.33 598.31,-233.46 603.69,-235.38"/>
<polygon fill="midnightblue" stroke="midnightblue" points="602.76,-238.76 613.35,-238.6 604.97,-232.12 602.76,-238.76"/>
</g>
<!-- Node20&#45;&gt;Node4 -->
<g id="edge23" class="edge">
<title>Node20&#45;&gt;Node4</title>
<path fill="none" stroke="midnightblue" d="M513.54,-168.52C534.62,-174.89 562.97,-183.45 588,-191 594.99,-193.11 602.42,-195.35 609.63,-197.53"/>
<polygon fill="midnightblue" stroke="midnightblue" points="608.69,-200.9 619.27,-200.43 610.71,-194.19 608.69,-200.9"/>
</g>
<!-- Node21 -->
<g id="node21" class="node">
<title>Node21</title>
<g id="a_node21"><a xlink:href="util_2system_8cpp.html#a15cb85964fe08c264605537f44570d3c" target="_top" xlink:title=" ">
<polygon fill="white" stroke="black" points="598.5,-162.5 598.5,-181.5 705.5,-181.5 705.5,-162.5 598.5,-162.5"/>
<text text-anchor="middle" x="652" y="-169.5" font-family="Helvetica,sans-Serif" font-size="10.00">GetDefaultDataDir</text>
</a>
</g>
</g>
<!-- Node20&#45;&gt;Node21 -->
<g id="edge24" class="edge">
<title>Node20&#45;&gt;Node21</title>
<path fill="none" stroke="midnightblue" d="M552.2,-164.4C564.13,-165.32 576.44,-166.26 588.16,-167.17"/>
<polygon fill="midnightblue" stroke="midnightblue" points="588.04,-170.67 598.28,-167.94 588.58,-163.69 588.04,-170.67"/>
</g>
<!-- Node20&#45;&gt;Node22 -->
<g id="edge25" class="edge">
<title>Node20&#45;&gt;Node22</title>
<path fill="none" stroke="midnightblue" d="M489.42,-149.49C505.35,-129.72 544.86,-83.96 588,-59 591.73,-56.84 595.72,-54.91 599.82,-53.18"/>
<polygon fill="midnightblue" stroke="midnightblue" points="601.41,-56.32 609.52,-49.51 598.93,-49.78 601.41,-56.32"/>
</g>
<!-- Node20&#45;&gt;Node24 -->
<g id="edge27" class="edge">
<title>Node20&#45;&gt;Node24</title>
<path fill="none" stroke="midnightblue" d="M519.51,-149.46C544.34,-143.14 577.11,-134.8 603.73,-128.03"/>
<polygon fill="midnightblue" stroke="midnightblue" points="604.77,-131.37 613.6,-125.52 603.04,-124.59 604.77,-131.37"/>
</g>
<!-- Node23 -->
<g id="node23" class="node">
<title>Node23</title>
<g id="a_node23"><a xlink:href="namespacefs.html#a569be13cd9507f234827b70c296e517c" target="_top" xlink:title=" ">
<polygon fill="white" stroke="black" points="789,-30.5 789,-49.5 854,-49.5 854,-30.5 789,-30.5"/>
<text text-anchor="middle" x="821.5" y="-37.5" font-family="Helvetica,sans-Serif" font-size="10.00">fs::u8path</text>
</a>
</g>
</g>
<!-- Node22&#45;&gt;Node23 -->
<g id="edge26" class="edge">
<title>Node22&#45;&gt;Node23</title>
<path fill="none" stroke="midnightblue" d="M705.08,-40C728.79,-40 756.47,-40 778.78,-40"/>
<polygon fill="midnightblue" stroke="midnightblue" points="778.94,-43.5 788.94,-40 778.94,-36.5 778.94,-43.5"/>
</g>
<!-- Node24&#45;&gt;Node24 -->
<g id="edge28" class="edge">
<title>Node24&#45;&gt;Node24</title>
<path fill="none" stroke="midnightblue" d="M626.11,-125.76C613.51,-134.57 622.14,-144 652,-144 672.06,-144 682.54,-139.74 683.44,-134.27"/>
<polygon fill="midnightblue" stroke="midnightblue" points="686.28,-132.23 677.89,-125.76 680.42,-136.05 686.28,-132.23"/>
</g>
<!-- Node25&#45;&gt;Node7 -->
<g id="edge30" class="edge">
<title>Node25&#45;&gt;Node7</title>
<path fill="none" stroke="midnightblue" d="M695.27,-87.59C717.57,-92.65 745.12,-98.9 768.7,-104.25"/>
<polygon fill="midnightblue" stroke="midnightblue" points="768.01,-107.68 778.54,-106.48 769.56,-100.85 768.01,-107.68"/>
</g>
<!-- Node25&#45;&gt;Node17 -->
<g id="edge31" class="edge">
<title>Node25&#45;&gt;Node17</title>
<path fill="none" stroke="midnightblue" d="M716.32,-78C731.98,-78 748.65,-78 763.96,-78"/>
<polygon fill="midnightblue" stroke="midnightblue" points="764.31,-81.5 774.31,-78 764.31,-74.5 764.31,-81.5"/>
</g>
</g>
</svg>
