<?xml version="1.0" encoding="UTF-8" standalone="no"?>
<!DOCTYPE svg PUBLIC "-//W3C//DTD SVG 1.1//EN"
 "http://www.w3.org/Graphics/SVG/1.1/DTD/svg11.dtd">
<!-- Generated by graphviz version 2.38.0 (20140413.2041)
 -->
<!-- Title: base_blob::SetNull Pages: 1 -->
<svg width="1271pt" height="771pt"
 viewBox="0.00 0.00 1271.00 770.50" xmlns="http://www.w3.org/2000/svg" xmlns:xlink="http://www.w3.org/1999/xlink">
<g id="graph0" class="graph" transform="scale(1 1) rotate(0) translate(4 766.5)">
<title>base_blob::SetNull</title>
<polygon fill="white" stroke="none" points="-4,4 -4,-766.5 1267,-766.5 1267,4 -4,4"/>
<!-- Node1 -->
<g id="node1" class="node"><title>Node1</title>
<polygon fill="#bfbfbf" stroke="black" points="0,-261 0,-280 106,-280 106,-261 0,-261"/>
<text text-anchor="middle" x="53" y="-268" font-family="Helvetica,sans-Serif" font-size="10.00">base_blob::SetNull</text>
</g>
<!-- Node2 -->
<g id="node2" class="node"><title>Node2</title>
<g id="a_node2"><a xlink:href="class_c_addr_man.html#ae1b1838e4de4effbc1fbc888126a9352" target="_top" xlink:title="CAddrMan::~CAddrMan">
<polygon fill="white" stroke="black" points="155,-661 155,-680 285,-680 285,-661 155,-661"/>
<text text-anchor="middle" x="220" y="-668" font-family="Helvetica,sans-Serif" font-size="10.00">CAddrMan::~CAddrMan</text>
</a>
</g>
</g>
<!-- Node1&#45;&gt;Node2 -->
<g id="edge1" class="edge"><title>Node1&#45;&gt;Node2</title>
<path fill="none" stroke="midnightblue" d="M55.8667,-290.291C62.9199,-360.886 90.2117,-598.933 142,-651.5 145.769,-655.325 150.176,-658.426 154.94,-660.934"/>
<polygon fill="midnightblue" stroke="midnightblue" points="59.3289,-289.732 54.8762,-280.119 52.3619,-290.411 59.3289,-289.732"/>
</g>
<!-- Node3 -->
<g id="node3" class="node"><title>Node3</title>
<g id="a_node3"><a xlink:href="merkle_8h.html#a72503311b28837a23c66de625a428628" target="_top" xlink:title="BlockWitnessMerkleRoot">
<polygon fill="white" stroke="black" points="154.5,-470 154.5,-489 285.5,-489 285.5,-470 154.5,-470"/>
<text text-anchor="middle" x="220" y="-477" font-family="Helvetica,sans-Serif" font-size="10.00">BlockWitnessMerkleRoot</text>
</a>
</g>
</g>
<!-- Node1&#45;&gt;Node3 -->
<g id="edge2" class="edge"><title>Node1&#45;&gt;Node3</title>
<path fill="none" stroke="midnightblue" d="M67.8465,-288.039C101.309,-330.425 185.708,-437.33 211.437,-469.921"/>
<polygon fill="midnightblue" stroke="midnightblue" points="70.462,-285.703 61.5185,-280.023 64.9678,-290.041 70.462,-285.703"/>
</g>
<!-- Node10 -->
<g id="node10" class="node"><title>Node10</title>
<g id="a_node10"><a xlink:href="class_c_wallet.html#a00d12e080cca1a55e7b6d6c74c235a09" target="_top" xlink:title="CWallet::CreateWalletFromFile">
<polygon fill="white" stroke="black" points="142,-623 142,-642 298,-642 298,-623 142,-623"/>
<text text-anchor="middle" x="220" y="-630" font-family="Helvetica,sans-Serif" font-size="10.00">CWallet::CreateWalletFromFile</text>
</a>
</g>
</g>
<!-- Node1&#45;&gt;Node10 -->
<g id="edge10" class="edge"><title>Node1&#45;&gt;Node10</title>
<path fill="none" stroke="midnightblue" d="M60.3318,-289.816C73.6285,-329.638 106.201,-423.425 142,-498.5 164.982,-546.695 198.762,-600.933 212.666,-622.697"/>
<polygon fill="midnightblue" stroke="midnightblue" points="63.6399,-288.671 57.173,-280.279 56.9949,-290.872 63.6399,-288.671"/>
</g>
<!-- Node18 -->
<g id="node18" class="node"><title>Node18</title>
<g id="a_node18"><a xlink:href="class_peer_logic_validation.html#a124965d7310e0df08cc027d4e1cbbe7b" target="_top" xlink:title="Overridden from CValidationInterface. ">
<polygon fill="white" stroke="black" points="752.5,-0.5 752.5,-30.5 862.5,-30.5 862.5,-0.5 752.5,-0.5"/>
<text text-anchor="start" x="760.5" y="-18.5" font-family="Helvetica,sans-Serif" font-size="10.00">PeerLogicValidation</text>
<text text-anchor="middle" x="807.5" y="-7.5" font-family="Helvetica,sans-Serif" font-size="10.00">::BlockChecked</text>
</a>
</g>
</g>
<!-- Node1&#45;&gt;Node18 -->
<g id="edge19" class="edge"><title>Node1&#45;&gt;Node18</title>
<path fill="none" stroke="midnightblue" d="M80.4581,-256.093C97.8715,-246.679 121.206,-234.194 142,-223.5 226.667,-179.957 244.471,-160.888 334,-128.5 481.128,-75.2758 663.126,-39.8534 752.208,-24.38"/>
<polygon fill="midnightblue" stroke="midnightblue" points="78.5716,-253.134 71.4469,-260.976 81.9066,-259.289 78.5716,-253.134"/>
</g>
<!-- Node19 -->
<g id="node19" class="node"><title>Node19</title>
<g id="a_node19"><a xlink:href="class_c_out_point.html#aa98ceceb3fc5f4d2c52033451ee8e251" target="_top" xlink:title="COutPoint::SetNull">
<polygon fill="white" stroke="black" points="167.5,-290 167.5,-309 272.5,-309 272.5,-290 167.5,-290"/>
<text text-anchor="middle" x="220" y="-297" font-family="Helvetica,sans-Serif" font-size="10.00">COutPoint::SetNull</text>
</a>
</g>
</g>
<!-- Node1&#45;&gt;Node19 -->
<g id="edge20" class="edge"><title>Node1&#45;&gt;Node19</title>
<path fill="none" stroke="midnightblue" d="M116.491,-281.483C133.295,-284.437 151.277,-287.597 167.415,-290.434"/>
<polygon fill="midnightblue" stroke="midnightblue" points="116.662,-277.96 106.207,-279.676 115.45,-284.854 116.662,-277.96"/>
</g>
<!-- Node21 -->
<g id="node21" class="node"><title>Node21</title>
<g id="a_node21"><a xlink:href="class_c_block_header.html#ae39c04a4357417d98954a51f53beb78a" target="_top" xlink:title="CBlockHeader::SetNull">
<polygon fill="white" stroke="black" points="157.5,-233 157.5,-252 282.5,-252 282.5,-233 157.5,-233"/>
<text text-anchor="middle" x="220" y="-240" font-family="Helvetica,sans-Serif" font-size="10.00">CBlockHeader::SetNull</text>
</a>
</g>
</g>
<!-- Node1&#45;&gt;Node21 -->
<g id="edge22" class="edge"><title>Node1&#45;&gt;Node21</title>
<path fill="none" stroke="midnightblue" d="M116.121,-259.958C131.464,-257.355 147.81,-254.581 162.851,-252.028"/>
<polygon fill="midnightblue" stroke="midnightblue" points="115.48,-256.517 106.207,-261.641 116.652,-263.418 115.48,-256.517"/>
</g>
<!-- Node49 -->
<g id="node49" class="node"><title>Node49</title>
<g id="a_node49"><a xlink:href="class_c_h_d_chain.html#a8862cfaa748f812775b617a0377ca12f" target="_top" xlink:title="CHDChain::SetNull">
<polygon fill="white" stroke="black" points="167,-56 167,-75 273,-75 273,-56 167,-56"/>
<text text-anchor="middle" x="220" y="-63" font-family="Helvetica,sans-Serif" font-size="10.00">CHDChain::SetNull</text>
</a>
</g>
</g>
<!-- Node1&#45;&gt;Node49 -->
<g id="edge59" class="edge"><title>Node1&#45;&gt;Node49</title>
<path fill="none" stroke="midnightblue" d="M58.1952,-250.493C67.0353,-213.286 91.1001,-133.268 142,-89.5 149.326,-83.2007 158.296,-78.5536 167.493,-75.1257"/>
<polygon fill="midnightblue" stroke="midnightblue" points="54.7067,-250.053 55.9277,-260.577 61.5362,-251.589 54.7067,-250.053"/>
</g>
<!-- Node50 -->
<g id="node50" class="node"><title>Node50</title>
<g id="a_node50"><a xlink:href="class_c_key_metadata.html#ab78641eb092af623a363b5c403c06a1f" target="_top" xlink:title="CKeyMetadata::SetNull">
<polygon fill="white" stroke="black" points="157,-18 157,-37 283,-37 283,-18 157,-18"/>
<text text-anchor="middle" x="220" y="-25" font-family="Helvetica,sans-Serif" font-size="10.00">CKeyMetadata::SetNull</text>
</a>
</g>
</g>
<!-- Node1&#45;&gt;Node50 -->
<g id="edge60" class="edge"><title>Node1&#45;&gt;Node50</title>
<path fill="none" stroke="midnightblue" d="M55.7939,-250.689C60.8533,-206.905 79.2497,-101.447 142,-46.5 146.351,-42.6903 151.347,-39.6193 156.658,-37.147"/>
<polygon fill="midnightblue" stroke="midnightblue" points="52.3117,-250.337 54.7554,-260.647 59.2739,-251.064 52.3117,-250.337"/>
</g>
<!-- Node4 -->
<g id="node4" class="node"><title>Node4</title>
<g id="a_node4"><a xlink:href="validation_8h.html#a743ca389dc886ef8ec875ce8d08ec97e" target="_top" xlink:title="Produce the necessary coinbase commitment for a block (modifies the hash, don&#39;t call for mined blocks...">
<polygon fill="white" stroke="black" points="334,-579 334,-598 504,-598 504,-579 334,-579"/>
<text text-anchor="middle" x="419" y="-586" font-family="Helvetica,sans-Serif" font-size="10.00">GenerateCoinbaseCommitment</text>
</a>
</g>
</g>
<!-- Node3&#45;&gt;Node4 -->
<g id="edge3" class="edge"><title>Node3&#45;&gt;Node4</title>
<path fill="none" stroke="midnightblue" d="M247.332,-494.07C288.229,-516.698 365.907,-559.677 400.557,-578.849"/>
<polygon fill="midnightblue" stroke="midnightblue" points="248.927,-490.952 238.482,-489.173 245.538,-497.077 248.927,-490.952"/>
</g>
<!-- Node5 -->
<g id="node5" class="node"><title>Node5</title>
<g id="a_node5"><a xlink:href="class_c_script_check.html#a4bad3434ddad70669f634879a8af132e" target="_top" xlink:title="CScriptCheck::GetScriptError">
<polygon fill="white" stroke="black" points="730,-598 730,-617 885,-617 885,-598 730,-598"/>
<text text-anchor="middle" x="807.5" y="-605" font-family="Helvetica,sans-Serif" font-size="10.00">CScriptCheck::GetScriptError</text>
</a>
</g>
</g>
<!-- Node4&#45;&gt;Node5 -->
<g id="edge4" class="edge"><title>Node4&#45;&gt;Node5</title>
<path fill="none" stroke="midnightblue" d="M514.364,-593.139C580.573,-596.394 667.979,-600.69 729.88,-603.733"/>
<polygon fill="midnightblue" stroke="midnightblue" points="514.501,-589.641 504.341,-592.646 514.158,-596.633 514.501,-589.641"/>
</g>
<!-- Node6 -->
<g id="node6" class="node"><title>Node6</title>
<g id="a_node6"><a xlink:href="class_block_assembler.html#acd45f01ed2556e805c82907def19efcb" target="_top" xlink:title="Construct a new block template with coinbase to scriptPubKeyIn. ">
<polygon fill="white" stroke="black" points="540,-617.5 540,-647.5 692,-647.5 692,-617.5 540,-617.5"/>
<text text-anchor="start" x="548" y="-635.5" font-family="Helvetica,sans-Serif" font-size="10.00">BlockAssembler::CreateNew</text>
<text text-anchor="middle" x="616" y="-624.5" font-family="Helvetica,sans-Serif" font-size="10.00">Block</text>
</a>
</g>
</g>
<!-- Node4&#45;&gt;Node6 -->
<g id="edge5" class="edge"><title>Node4&#45;&gt;Node6</title>
<path fill="none" stroke="midnightblue" d="M472.354,-600.313C495.682,-605.577 523.435,-611.839 548.233,-617.435"/>
<polygon fill="midnightblue" stroke="midnightblue" points="472.837,-596.834 462.312,-598.047 471.296,-603.663 472.837,-596.834"/>
</g>
<!-- Node7 -->
<g id="node7" class="node"><title>Node7</title>
<g id="a_node7"><a xlink:href="mining_8h.html#a4910d289954727eb7c4c24a6b3c50c55" target="_top" xlink:title="Generate blocks (mine) ">
<polygon fill="white" stroke="black" points="762,-636 762,-655 853,-655 853,-636 762,-636"/>
<text text-anchor="middle" x="807.5" y="-643" font-family="Helvetica,sans-Serif" font-size="10.00">generateBlocks</text>
</a>
</g>
</g>
<!-- Node6&#45;&gt;Node7 -->
<g id="edge6" class="edge"><title>Node6&#45;&gt;Node7</title>
<path fill="none" stroke="midnightblue" d="M702.19,-638.344C722.74,-639.754 743.897,-641.205 761.739,-642.429"/>
<polygon fill="midnightblue" stroke="midnightblue" points="702.384,-634.849 692.168,-637.657 701.905,-641.833 702.384,-634.849"/>
</g>
<!-- Node7&#45;&gt;Node7 -->
<g id="edge7" class="edge"><title>Node7&#45;&gt;Node7</title>
<path fill="none" stroke="midnightblue" d="M771.875,-663.004C771.881,-668.836 783.756,-673.5 807.5,-673.5 841.27,-673.5 851.031,-664.065 836.785,-655.257"/>
<polygon fill="midnightblue" stroke="midnightblue" points="774.591,-665.212 778.215,-655.257 769.173,-660.779 774.591,-665.212"/>
</g>
<!-- Node8 -->
<g id="node8" class="node"><title>Node8</title>
<g id="a_node8"><a xlink:href="rpcwallet_8cpp.html#a236a42206aa464fbb10bae6e6243092b" target="_top" xlink:title="generate">
<polygon fill="white" stroke="black" points="981,-645 981,-664 1041,-664 1041,-645 981,-645"/>
<text text-anchor="middle" x="1011" y="-652" font-family="Helvetica,sans-Serif" font-size="10.00">generate</text>
</a>
</g>
</g>
<!-- Node7&#45;&gt;Node8 -->
<g id="edge8" class="edge"><title>Node7&#45;&gt;Node8</title>
<path fill="none" stroke="midnightblue" d="M863.602,-647.961C901.528,-649.655 950.397,-651.838 980.969,-653.203"/>
<polygon fill="midnightblue" stroke="midnightblue" points="863.366,-644.447 853.219,-647.497 863.053,-651.44 863.366,-644.447"/>
</g>
<!-- Node9 -->
<g id="node9" class="node"><title>Node9</title>
<g id="a_node9"><a xlink:href="rpcwallet_8cpp.html#afca55ac7a3c6c274b8b7b3e6eab9cd86" target="_top" xlink:title="walletcreatefundedpsbt">
<polygon fill="white" stroke="black" points="1135,-668 1135,-687 1263,-687 1263,-668 1135,-668"/>
<text text-anchor="middle" x="1199" y="-675" font-family="Helvetica,sans-Serif" font-size="10.00">walletcreatefundedpsbt</text>
</a>
</g>
</g>
<!-- Node8&#45;&gt;Node9 -->
<g id="edge9" class="edge"><title>Node8&#45;&gt;Node9</title>
<path fill="none" stroke="midnightblue" d="M1051.3,-659.36C1075.55,-662.358 1107.2,-666.273 1134.9,-669.697"/>
<polygon fill="midnightblue" stroke="midnightblue" points="1051.42,-655.848 1041.06,-658.094 1050.56,-662.795 1051.42,-655.848"/>
</g>
<!-- Node11 -->
<g id="node11" class="node"><title>Node11</title>
<g id="a_node11"><a xlink:href="wallet_2wallet_8h.html#aae72a893f3fdc7a8287e9108a1a69915" target="_top" xlink:title="Load wallet databases. ">
<polygon fill="white" stroke="black" points="382.5,-661 382.5,-680 455.5,-680 455.5,-661 382.5,-661"/>
<text text-anchor="middle" x="419" y="-668" font-family="Helvetica,sans-Serif" font-size="10.00">LoadWallets</text>
</a>
</g>
</g>
<!-- Node10&#45;&gt;Node11 -->
<g id="edge11" class="edge"><title>Node10&#45;&gt;Node11</title>
<path fill="none" stroke="midnightblue" d="M280.502,-643.977C313.662,-650.374 353.855,-658.127 382.197,-663.594"/>
<polygon fill="midnightblue" stroke="midnightblue" points="280.939,-640.497 270.457,-642.04 279.613,-647.371 280.939,-640.497"/>
</g>
<!-- Node12 -->
<g id="node12" class="node"><title>Node12</title>
<g id="a_node12"><a xlink:href="wallet_2wallet_8h.html#ab115d1b86c25902d2a32d7a919382bd1" target="_top" xlink:title="LoadWallet">
<polygon fill="white" stroke="black" points="385,-705 385,-724 453,-724 453,-705 385,-705"/>
<text text-anchor="middle" x="419" y="-712" font-family="Helvetica,sans-Serif" font-size="10.00">LoadWallet</text>
</a>
</g>
</g>
<!-- Node10&#45;&gt;Node12 -->
<g id="edge12" class="edge"><title>Node10&#45;&gt;Node12</title>
<path fill="none" stroke="midnightblue" d="M285.798,-645.531C290.038,-647.278 294.147,-649.257 298,-651.5 318.106,-663.204 314.177,-677.323 334,-689.5 349.428,-698.977 368.664,-705.045 384.833,-708.826"/>
<polygon fill="midnightblue" stroke="midnightblue" points="286.95,-642.226 276.356,-642.067 284.539,-648.798 286.95,-642.226"/>
</g>
<!-- Node17 -->
<g id="node17" class="node"><title>Node17</title>
<g id="a_node17"><a xlink:href="rpcwallet_8cpp.html#a74b85c92ee6a84277c73b74f2e212bff" target="_top" xlink:title="listtransactions">
<polygon fill="white" stroke="black" points="571.5,-667 571.5,-686 660.5,-686 660.5,-667 571.5,-667"/>
<text text-anchor="middle" x="616" y="-674" font-family="Helvetica,sans-Serif" font-size="10.00">listtransactions</text>
</a>
</g>
</g>
<!-- Node10&#45;&gt;Node17 -->
<g id="edge17" class="edge"><title>Node10&#45;&gt;Node17</title>
<path fill="none" stroke="midnightblue" d="M308.47,-634.885C364.579,-637.274 438.857,-642.035 504,-651.5 529.413,-655.192 557.64,-661.581 579.269,-666.976"/>
<polygon fill="midnightblue" stroke="midnightblue" points="308.346,-631.378 298.211,-634.466 308.06,-638.372 308.346,-631.378"/>
</g>
<!-- Node13 -->
<g id="node13" class="node"><title>Node13</title>
<g id="a_node13"><a xlink:href="wallet_2wallet_8cpp.html#a1e3b0724aabb0c37fda10ce9f4c86432" target="_top" xlink:title="LoadWallet">
<polygon fill="white" stroke="black" points="582,-705 582,-724 650,-724 650,-705 582,-705"/>
<text text-anchor="middle" x="616" y="-712" font-family="Helvetica,sans-Serif" font-size="10.00">LoadWallet</text>
</a>
</g>
</g>
<!-- Node12&#45;&gt;Node13 -->
<g id="edge13" class="edge"><title>Node12&#45;&gt;Node13</title>
<path fill="none" stroke="midnightblue" d="M463.223,-714.5C498.992,-714.5 549.065,-714.5 581.759,-714.5"/>
<polygon fill="midnightblue" stroke="midnightblue" points="463.079,-711 453.079,-714.5 463.079,-718 463.079,-711"/>
</g>
<!-- Node14 -->
<g id="node14" class="node"><title>Node14</title>
<g id="a_node14"><a xlink:href="class_c_wallet.html#a112db1b8ea4c0bc36d6674ffeaaa55a7" target="_top" xlink:title="CWallet::GetAllReserveKeys">
<polygon fill="white" stroke="black" points="543.5,-743 543.5,-762 688.5,-762 688.5,-743 543.5,-743"/>
<text text-anchor="middle" x="616" y="-750" font-family="Helvetica,sans-Serif" font-size="10.00">CWallet::GetAllReserveKeys</text>
</a>
</g>
</g>
<!-- Node12&#45;&gt;Node14 -->
<g id="edge14" class="edge"><title>Node12&#45;&gt;Node14</title>
<path fill="none" stroke="midnightblue" d="M462.972,-722.874C493.409,-728.805 534.294,-736.773 566,-742.951"/>
<polygon fill="midnightblue" stroke="midnightblue" points="463.564,-719.424 453.079,-720.946 462.225,-726.294 463.564,-719.424"/>
</g>
<!-- Node15 -->
<g id="node15" class="node"><title>Node15</title>
<g id="a_node15"><a xlink:href="wallet__tests_8cpp.html#a73ce3a42e0b56b2e4516e55871d8590e" target="_top" xlink:title="dumpwallet">
<polygon fill="white" stroke="black" points="772,-743 772,-762 843,-762 843,-743 772,-743"/>
<text text-anchor="middle" x="807.5" y="-750" font-family="Helvetica,sans-Serif" font-size="10.00">dumpwallet</text>
</a>
</g>
</g>
<!-- Node14&#45;&gt;Node15 -->
<g id="edge15" class="edge"><title>Node14&#45;&gt;Node15</title>
<path fill="none" stroke="midnightblue" d="M698.769,-752.5C724.416,-752.5 751.356,-752.5 771.881,-752.5"/>
<polygon fill="midnightblue" stroke="midnightblue" points="698.642,-749 688.642,-752.5 698.642,-756 698.642,-749"/>
</g>
<!-- Node16 -->
<g id="node16" class="node"><title>Node16</title>
<g id="a_node16"><a xlink:href="wallet__tests_8cpp.html#a2a726fa52b0a343883cb50a3f68d0989" target="_top" xlink:title="BOOST_FIXTURE_TEST_CASE">
<polygon fill="white" stroke="black" points="934,-743 934,-762 1088,-762 1088,-743 934,-743"/>
<text text-anchor="middle" x="1011" y="-750" font-family="Helvetica,sans-Serif" font-size="10.00">BOOST_FIXTURE_TEST_CASE</text>
</a>
</g>
</g>
<!-- Node15&#45;&gt;Node16 -->
<g id="edge16" class="edge"><title>Node15&#45;&gt;Node16</title>
<path fill="none" stroke="midnightblue" d="M853.208,-752.5C876.843,-752.5 906.513,-752.5 933.666,-752.5"/>
<polygon fill="midnightblue" stroke="midnightblue" points="853.139,-749 843.139,-752.5 853.139,-756 853.139,-749"/>
</g>
<!-- Node17&#45;&gt;Node9 -->
<g id="edge18" class="edge"><title>Node17&#45;&gt;Node9</title>
<path fill="none" stroke="midnightblue" d="M670.847,-679.997C688.995,-681.019 709.367,-681.997 728,-682.5 873.606,-686.432 1044.66,-682.45 1134.89,-679.678"/>
<polygon fill="midnightblue" stroke="midnightblue" points="670.921,-676.495 660.735,-679.41 670.516,-683.484 670.921,-676.495"/>
</g>
<!-- Node20 -->
<g id="node20" class="node"><title>Node20</title>
<g id="a_node20"><a xlink:href="class_c_tx_out.html#a46110a759b21c75968297768f759be59" target="_top" xlink:title="CTxOut::CTxOut">
<polygon fill="white" stroke="black" points="373,-328 373,-347 465,-347 465,-328 373,-328"/>
<text text-anchor="middle" x="419" y="-335" font-family="Helvetica,sans-Serif" font-size="10.00">CTxOut::CTxOut</text>
</a>
</g>
</g>
<!-- Node19&#45;&gt;Node20 -->
<g id="edge21" class="edge"><title>Node19&#45;&gt;Node20</title>
<path fill="none" stroke="midnightblue" d="M280.299,-310.938C310.022,-316.672 345.436,-323.503 372.907,-328.802"/>
<polygon fill="midnightblue" stroke="midnightblue" points="280.939,-307.497 270.457,-309.04 279.613,-314.371 280.939,-307.497"/>
</g>
<!-- Node22 -->
<g id="node22" class="node"><title>Node22</title>
<g id="a_node22"><a xlink:href="class_partially_downloaded_block.html#ae31ee4302e77d9757aae8b96df99486a" target="_top" xlink:title="PartiallyDownloadedBlock\l::FillBlock">
<polygon fill="white" stroke="black" points="547.5,-219.5 547.5,-249.5 684.5,-249.5 684.5,-219.5 547.5,-219.5"/>
<text text-anchor="start" x="555.5" y="-237.5" font-family="Helvetica,sans-Serif" font-size="10.00">PartiallyDownloadedBlock</text>
<text text-anchor="middle" x="616" y="-226.5" font-family="Helvetica,sans-Serif" font-size="10.00">::FillBlock</text>
</a>
</g>
</g>
<!-- Node21&#45;&gt;Node22 -->
<g id="edge23" class="edge"><title>Node21&#45;&gt;Node22</title>
<path fill="none" stroke="midnightblue" d="M292.965,-241.039C365.425,-239.568 476.354,-237.315 547.269,-235.875"/>
<polygon fill="midnightblue" stroke="midnightblue" points="292.489,-237.548 282.562,-241.25 292.632,-244.546 292.489,-237.548"/>
</g>
<!-- Node23 -->
<g id="node23" class="node"><title>Node23</title>
<g id="a_node23"><a xlink:href="class_c_block_header.html#a9afed57bea877bbd25b5eb6740c6990d" target="_top" xlink:title="CBlockHeader::CBlockHeader">
<polygon fill="white" stroke="black" points="340,-138 340,-157 498,-157 498,-138 340,-138"/>
<text text-anchor="middle" x="419" y="-145" font-family="Helvetica,sans-Serif" font-size="10.00">CBlockHeader::CBlockHeader</text>
</a>
</g>
</g>
<!-- Node21&#45;&gt;Node23 -->
<g id="edge25" class="edge"><title>Node21&#45;&gt;Node23</title>
<path fill="none" stroke="midnightblue" d="M240.015,-226.449C261.488,-209.134 298.13,-181.974 334,-166.5 342.924,-162.65 352.731,-159.531 362.398,-157.019"/>
<polygon fill="midnightblue" stroke="midnightblue" points="237.555,-223.939 232.044,-232.988 241.995,-229.351 237.555,-223.939"/>
</g>
<!-- Node24 -->
<g id="node24" class="node"><title>Node24</title>
<g id="a_node24"><a xlink:href="class_c_block.html#aaaf8819d785559699cffbbfccb37a3b6" target="_top" xlink:title="CBlock::CBlock">
<polygon fill="white" stroke="black" points="375.5,-252 375.5,-271 462.5,-271 462.5,-252 375.5,-252"/>
<text text-anchor="middle" x="419" y="-259" font-family="Helvetica,sans-Serif" font-size="10.00">CBlock::CBlock</text>
</a>
</g>
</g>
<!-- Node21&#45;&gt;Node24 -->
<g id="edge26" class="edge"><title>Node21&#45;&gt;Node24</title>
<path fill="none" stroke="midnightblue" d="M292.588,-249.404C320.34,-252.081 351.178,-255.055 375.33,-257.385"/>
<polygon fill="midnightblue" stroke="midnightblue" points="292.812,-245.91 282.522,-248.434 292.139,-252.878 292.812,-245.91"/>
</g>
<!-- Node25 -->
<g id="node25" class="node"><title>Node25</title>
<g id="a_node25"><a xlink:href="class_c_block.html#a0410d7ba8d60679c4cf364b82ffffea5" target="_top" xlink:title="CBlock::SetNull">
<polygon fill="white" stroke="black" points="374.5,-290 374.5,-309 463.5,-309 463.5,-290 374.5,-290"/>
<text text-anchor="middle" x="419" y="-297" font-family="Helvetica,sans-Serif" font-size="10.00">CBlock::SetNull</text>
</a>
</g>
</g>
<!-- Node21&#45;&gt;Node25 -->
<g id="edge27" class="edge"><title>Node21&#45;&gt;Node25</title>
<path fill="none" stroke="midnightblue" d="M256.431,-255.45C278.556,-263.278 307.731,-273.133 334,-280.5 346.957,-284.134 361.185,-287.561 374.19,-290.477"/>
<polygon fill="midnightblue" stroke="midnightblue" points="257.392,-252.077 246.798,-252.013 255.04,-258.67 257.392,-252.077"/>
</g>
<!-- Node47 -->
<g id="node47" class="node"><title>Node47</title>
<g id="a_node47"><a xlink:href="validation_8h.html#ad959cc64d22660f1f561798040bb1f6a" target="_top" xlink:title="Process incoming block headers. ">
<polygon fill="white" stroke="black" points="349,-176 349,-195 489,-195 489,-176 349,-176"/>
<text text-anchor="middle" x="419" y="-183" font-family="Helvetica,sans-Serif" font-size="10.00">ProcessNewBlockHeaders</text>
</a>
</g>
</g>
<!-- Node21&#45;&gt;Node47 -->
<g id="edge56" class="edge"><title>Node21&#45;&gt;Node47</title>
<path fill="none" stroke="midnightblue" d="M263.303,-230.082C284.517,-223.872 310.609,-216.257 334,-209.5 350.611,-204.702 369.085,-199.417 384.469,-195.032"/>
<polygon fill="midnightblue" stroke="midnightblue" points="262.234,-226.748 253.622,-232.919 264.202,-233.466 262.234,-226.748"/>
</g>
<!-- Node22&#45;&gt;Node18 -->
<g id="edge24" class="edge"><title>Node22&#45;&gt;Node18</title>
<path fill="none" stroke="midnightblue" d="M688.206,-213.3C689.537,-212.102 690.805,-210.837 692,-209.5 743.182,-152.246 676.434,-97.409 728,-40.5 734.531,-33.2927 743.131,-28.1503 752.24,-24.4845"/>
<polygon fill="midnightblue" stroke="midnightblue" points="685.89,-210.661 679.971,-219.448 690.078,-216.27 685.89,-210.661"/>
</g>
<!-- Node26 -->
<g id="node26" class="node"><title>Node26</title>
<g id="a_node26"><a xlink:href="validation_8h.html#a578c1df234b05798180f0235d469a5ba" target="_top" xlink:title="Functions for disk access for blocks. ">
<polygon fill="white" stroke="black" points="561,-290 561,-309 671,-309 671,-290 561,-290"/>
<text text-anchor="middle" x="616" y="-297" font-family="Helvetica,sans-Serif" font-size="10.00">ReadBlockFromDisk</text>
</a>
</g>
</g>
<!-- Node25&#45;&gt;Node26 -->
<g id="edge28" class="edge"><title>Node25&#45;&gt;Node26</title>
<path fill="none" stroke="midnightblue" d="M473.856,-299.5C500.982,-299.5 533.787,-299.5 560.941,-299.5"/>
<polygon fill="midnightblue" stroke="midnightblue" points="473.762,-296 463.762,-299.5 473.762,-303 473.762,-296"/>
</g>
<!-- Node26&#45;&gt;Node5 -->
<g id="edge29" class="edge"><title>Node26&#45;&gt;Node5</title>
<path fill="none" stroke="midnightblue" d="M618.469,-319.274C623.463,-371.68 644.485,-515.136 728,-588.5 732.319,-592.294 737.268,-595.36 742.535,-597.834"/>
<polygon fill="midnightblue" stroke="midnightblue" points="621.953,-318.936 617.61,-309.272 614.979,-319.535 621.953,-318.936"/>
</g>
<!-- Node26&#45;&gt;Node18 -->
<g id="edge34" class="edge"><title>Node26&#45;&gt;Node18</title>
<path fill="none" stroke="midnightblue" d="M658.062,-285.91C670.777,-279.76 683.629,-271.178 692,-259.5 749.464,-179.327 663.501,-115.13 728,-40.5 734.453,-33.0331 743.13,-27.7752 752.364,-24.0779"/>
<polygon fill="midnightblue" stroke="midnightblue" points="656.622,-282.72 648.895,-289.969 659.456,-289.121 656.622,-282.72"/>
</g>
<!-- Node27 -->
<g id="node27" class="node"><title>Node27</title>
<g id="a_node27"><a xlink:href="class_base_index.html#a96a7407421fbf877509248bbe64f8d87" target="_top" xlink:title="Sync the index with the block index starting from the current best block. ">
<polygon fill="white" stroke="black" points="743.5,-384 743.5,-403 871.5,-403 871.5,-384 743.5,-384"/>
<text text-anchor="middle" x="807.5" y="-391" font-family="Helvetica,sans-Serif" font-size="10.00">BaseIndex::ThreadSync</text>
</a>
</g>
</g>
<!-- Node26&#45;&gt;Node27 -->
<g id="edge30" class="edge"><title>Node26&#45;&gt;Node27</title>
<path fill="none" stroke="midnightblue" d="M636.047,-315.516C657.212,-332.531 693.033,-359.059 728,-374.5 736.594,-378.295 746.067,-381.405 755.369,-383.929"/>
<polygon fill="midnightblue" stroke="midnightblue" points="638.131,-312.699 628.174,-309.08 633.7,-318.119 638.131,-312.699"/>
</g>
<!-- Node30 -->
<g id="node30" class="node"><title>Node30</title>
<g id="a_node30"><a xlink:href="class_peer_logic_validation.html#a04dab16e6310bf18d432111cb6b126ad" target="_top" xlink:title="Send queued protocol messages to be sent to a give node. ">
<polygon fill="white" stroke="black" points="752.5,-422.5 752.5,-452.5 862.5,-452.5 862.5,-422.5 752.5,-422.5"/>
<text text-anchor="start" x="760.5" y="-440.5" font-family="Helvetica,sans-Serif" font-size="10.00">PeerLogicValidation</text>
<text text-anchor="middle" x="807.5" y="-429.5" font-family="Helvetica,sans-Serif" font-size="10.00">::SendMessages</text>
</a>
</g>
</g>
<!-- Node26&#45;&gt;Node30 -->
<g id="edge35" class="edge"><title>Node26&#45;&gt;Node30</title>
<path fill="none" stroke="midnightblue" d="M629.982,-317.385C648.875,-342.182 686.274,-386.842 728,-412.5 735.432,-417.07 743.779,-420.882 752.184,-424.037"/>
<polygon fill="midnightblue" stroke="midnightblue" points="632.673,-315.139 623.885,-309.22 627.064,-319.327 632.673,-315.139"/>
</g>
<!-- Node31 -->
<g id="node31" class="node"><title>Node31</title>
<g id="a_node31"><a xlink:href="struct_c_coin.html#a2a0a2532bdacb03b087b3b0a400830ec" target="_top" xlink:title="CCoin::SerializationOp">
<polygon fill="white" stroke="black" points="950,-290 950,-309 1072,-309 1072,-290 950,-290"/>
<text text-anchor="middle" x="1011" y="-297" font-family="Helvetica,sans-Serif" font-size="10.00">CCoin::SerializationOp</text>
</a>
</g>
</g>
<!-- Node26&#45;&gt;Node31 -->
<g id="edge36" class="edge"><title>Node26&#45;&gt;Node31</title>
<path fill="none" stroke="midnightblue" d="M681.412,-299.5C755.837,-299.5 877.343,-299.5 949.893,-299.5"/>
<polygon fill="midnightblue" stroke="midnightblue" points="681.232,-296 671.232,-299.5 681.232,-303 681.232,-296"/>
</g>
<!-- Node32 -->
<g id="node32" class="node"><title>Node32</title>
<g id="a_node32"><a xlink:href="blockchain_8h.html#a3b8a8939a31de29ceb0ea581341eeb92" target="_top" xlink:title="Mempool to JSON. ">
<polygon fill="white" stroke="black" points="759.5,-328 759.5,-347 855.5,-347 855.5,-328 759.5,-328"/>
<text text-anchor="middle" x="807.5" y="-335" font-family="Helvetica,sans-Serif" font-size="10.00">mempoolToJSON</text>
</a>
</g>
</g>
<!-- Node26&#45;&gt;Node32 -->
<g id="edge37" class="edge"><title>Node26&#45;&gt;Node32</title>
<path fill="none" stroke="midnightblue" d="M674.934,-311.117C701.992,-316.543 733.794,-322.92 759.353,-328.046"/>
<polygon fill="midnightblue" stroke="midnightblue" points="675.312,-307.624 664.819,-309.089 673.935,-314.487 675.312,-307.624"/>
</g>
<!-- Node33 -->
<g id="node33" class="node"><title>Node33</title>
<g id="a_node33"><a xlink:href="validation_8h.html#a4ff810cfc9c6e80dea8acc0fc5aceacf" target="_top" xlink:title="Retrieve a transaction (from memory pool, or from disk, if possible) ">
<polygon fill="white" stroke="black" points="763.5,-138 763.5,-157 851.5,-157 851.5,-138 763.5,-138"/>
<text text-anchor="middle" x="807.5" y="-145" font-family="Helvetica,sans-Serif" font-size="10.00">GetTransaction</text>
</a>
</g>
</g>
<!-- Node26&#45;&gt;Node33 -->
<g id="edge40" class="edge"><title>Node26&#45;&gt;Node33</title>
<path fill="none" stroke="midnightblue" d="M654.856,-285.757C668.03,-279.437 681.998,-270.787 692,-259.5 721.394,-226.328 694.663,-195.708 728,-166.5 737.808,-157.907 750.85,-153.049 763.482,-150.348"/>
<polygon fill="midnightblue" stroke="midnightblue" points="653.173,-282.675 645.471,-289.951 656.029,-289.066 653.173,-282.675"/>
</g>
<!-- Node35 -->
<g id="node35" class="node"><title>Node35</title>
<g id="a_node35"><a xlink:href="validation_8h.html#aee79e45a0b167f9b312f83a23880cfbc" target="_top" xlink:title="ReadBlockFromDisk">
<polygon fill="white" stroke="black" points="752.5,-252 752.5,-271 862.5,-271 862.5,-252 752.5,-252"/>
<text text-anchor="middle" x="807.5" y="-259" font-family="Helvetica,sans-Serif" font-size="10.00">ReadBlockFromDisk</text>
</a>
</g>
</g>
<!-- Node26&#45;&gt;Node35 -->
<g id="edge44" class="edge"><title>Node26&#45;&gt;Node35</title>
<path fill="none" stroke="midnightblue" d="M674.895,-287.89C701.846,-282.486 733.51,-276.136 759.025,-271.02"/>
<polygon fill="midnightblue" stroke="midnightblue" points="673.935,-284.513 664.819,-289.911 675.312,-291.376 673.935,-284.513"/>
</g>
<!-- Node36 -->
<g id="node36" class="node"><title>Node36</title>
<g id="a_node36"><a xlink:href="class_c_chain_state.html#a29c507c11fc5d2c34a3e7472e0d4dc07" target="_top" xlink:title="Disconnect chainActive&#39;s tip. ">
<polygon fill="white" stroke="black" points="733,-214 733,-233 882,-233 882,-214 733,-214"/>
<text text-anchor="middle" x="807.5" y="-221" font-family="Helvetica,sans-Serif" font-size="10.00">CChainState::DisconnectTip</text>
</a>
</g>
</g>
<!-- Node26&#45;&gt;Node36 -->
<g id="edge45" class="edge"><title>Node26&#45;&gt;Node36</title>
<path fill="none" stroke="midnightblue" d="M644.396,-285.002C674.421,-269.182 719.48,-245.667 728,-242.5 737.857,-238.835 748.677,-235.687 759.048,-233.067"/>
<polygon fill="midnightblue" stroke="midnightblue" points="642.452,-282.07 635.241,-289.833 645.719,-288.261 642.452,-282.07"/>
</g>
<!-- Node37 -->
<g id="node37" class="node"><title>Node37</title>
<g id="a_node37"><a xlink:href="class_c_chain_state.html#a1ac66256eca2e5a25c7484f82b3b50ad" target="_top" xlink:title="Connect a new block to chainActive. ">
<polygon fill="white" stroke="black" points="739.5,-176 739.5,-195 875.5,-195 875.5,-176 739.5,-176"/>
<text text-anchor="middle" x="807.5" y="-183" font-family="Helvetica,sans-Serif" font-size="10.00">CChainState::ConnectTip</text>
</a>
</g>
</g>
<!-- Node26&#45;&gt;Node37 -->
<g id="edge46" class="edge"><title>Node26&#45;&gt;Node37</title>
<path fill="none" stroke="midnightblue" d="M651.092,-285.792C664.804,-279.195 680.142,-270.341 692,-259.5 713.563,-239.788 704.127,-221.341 728,-204.5 733.5,-200.62 739.697,-197.528 746.137,-195.063"/>
<polygon fill="midnightblue" stroke="midnightblue" points="649.554,-282.647 641.921,-289.996 652.47,-289.011 649.554,-282.647"/>
</g>
<!-- Node38 -->
<g id="node38" class="node"><title>Node38</title>
<g id="a_node38"><a xlink:href="class_c_verify_d_b.html#af12e07230f20d23cf01d417d0e785c49" target="_top" xlink:title="CVerifyDB::VerifyDB">
<polygon fill="white" stroke="black" points="752.5,-50 752.5,-69 862.5,-69 862.5,-50 752.5,-50"/>
<text text-anchor="middle" x="807.5" y="-57" font-family="Helvetica,sans-Serif" font-size="10.00">CVerifyDB::VerifyDB</text>
</a>
</g>
</g>
<!-- Node26&#45;&gt;Node38 -->
<g id="edge47" class="edge"><title>Node26&#45;&gt;Node38</title>
<path fill="none" stroke="midnightblue" d="M657.524,-285.9C670.323,-279.725 683.365,-271.132 692,-259.5 740.889,-193.643 671.208,-137.678 728,-78.5 734.602,-71.6205 743.236,-67.0552 752.355,-64.06"/>
<polygon fill="midnightblue" stroke="midnightblue" points="656.041,-282.728 648.314,-289.977 658.875,-289.129 656.041,-282.728"/>
</g>
<!-- Node41 -->
<g id="node41" class="node"><title>Node41</title>
<g id="a_node41"><a xlink:href="class_c_chain_state.html#ac231f6529bc41aea7917d0716d0c9d1a" target="_top" xlink:title="Apply the effects of a block on the utxo cache, ignoring that it may already have been applied...">
<polygon fill="white" stroke="black" points="740.5,-88.5 740.5,-118.5 874.5,-118.5 874.5,-88.5 740.5,-88.5"/>
<text text-anchor="start" x="748.5" y="-106.5" font-family="Helvetica,sans-Serif" font-size="10.00">CChainState::Rollforward</text>
<text text-anchor="middle" x="807.5" y="-95.5" font-family="Helvetica,sans-Serif" font-size="10.00">Block</text>
</a>
</g>
</g>
<!-- Node26&#45;&gt;Node41 -->
<g id="edge50" class="edge"><title>Node26&#45;&gt;Node41</title>
<path fill="none" stroke="midnightblue" d="M656.427,-285.841C669.383,-279.612 682.804,-271 692,-259.5 729.709,-212.342 686.17,-172.044 728,-128.5 731.666,-124.684 735.913,-121.448 740.495,-118.705"/>
<polygon fill="midnightblue" stroke="midnightblue" points="654.862,-282.706 647.142,-289.962 657.702,-289.104 654.862,-282.706"/>
</g>
<!-- Node42 -->
<g id="node42" class="node"><title>Node42</title>
<g id="a_node42"><a xlink:href="class_c_chain_state.html#a219bb793d4d3b0a095ccc47c45bc5b83" target="_top" xlink:title="CChainState::ReplayBlocks">
<polygon fill="white" stroke="black" points="735.5,-560 735.5,-579 879.5,-579 879.5,-560 735.5,-560"/>
<text text-anchor="middle" x="807.5" y="-567" font-family="Helvetica,sans-Serif" font-size="10.00">CChainState::ReplayBlocks</text>
</a>
</g>
</g>
<!-- Node26&#45;&gt;Node42 -->
<g id="edge51" class="edge"><title>Node26&#45;&gt;Node42</title>
<path fill="none" stroke="midnightblue" d="M619.731,-319.176C627.404,-366.705 653.681,-488.415 728,-550.5 732.627,-554.366 737.915,-557.469 743.51,-559.956"/>
<polygon fill="midnightblue" stroke="midnightblue" points="623.149,-318.373 618.195,-309.008 616.227,-319.418 623.149,-318.373"/>
</g>
<!-- Node44 -->
<g id="node44" class="node"><title>Node44</title>
<g id="a_node44"><a xlink:href="validation_8h.html#adb7b04c54228efef3b7bbafd0830839e" target="_top" xlink:title="Import blocks from an external file. ">
<polygon fill="white" stroke="black" points="748,-472 748,-491 867,-491 867,-472 748,-472"/>
<text text-anchor="middle" x="807.5" y="-479" font-family="Helvetica,sans-Serif" font-size="10.00">LoadExternalBlockFile</text>
</a>
</g>
</g>
<!-- Node26&#45;&gt;Node44 -->
<g id="edge53" class="edge"><title>Node26&#45;&gt;Node44</title>
<path fill="none" stroke="midnightblue" d="M624.384,-318.375C638.821,-352.706 674.161,-425.253 728,-462.5 733.996,-466.648 740.796,-469.895 747.824,-472.436"/>
<polygon fill="midnightblue" stroke="midnightblue" points="627.59,-316.97 620.577,-309.029 621.108,-319.611 627.59,-316.97"/>
</g>
<!-- Node46 -->
<g id="node46" class="node"><title>Node46</title>
<g id="a_node46"><a xlink:href="class_c_z_m_q_publish_raw_block_notifier.html#ab97fec1e14be818d03022f9271b9443c" target="_top" xlink:title="CZMQPublishRawBlockNotifier\l::NotifyBlock">
<polygon fill="white" stroke="black" points="728,-510.5 728,-540.5 887,-540.5 887,-510.5 728,-510.5"/>
<text text-anchor="start" x="736" y="-528.5" font-family="Helvetica,sans-Serif" font-size="10.00">CZMQPublishRawBlockNotifier</text>
<text text-anchor="middle" x="807.5" y="-517.5" font-family="Helvetica,sans-Serif" font-size="10.00">::NotifyBlock</text>
</a>
</g>
</g>
<!-- Node26&#45;&gt;Node46 -->
<g id="edge55" class="edge"><title>Node26&#45;&gt;Node46</title>
<path fill="none" stroke="midnightblue" d="M622.385,-318.959C634.448,-358.953 667.444,-450.798 728,-500.5 732.754,-504.402 738.126,-507.698 743.774,-510.483"/>
<polygon fill="midnightblue" stroke="midnightblue" points="625.681,-317.759 619.532,-309.131 618.958,-319.711 625.681,-317.759"/>
</g>
<!-- Node28 -->
<g id="node28" class="node"><title>Node28</title>
<g id="a_node28"><a xlink:href="class_base_index.html#a2babb71bb9b93aadba06dae6e62d721b" target="_top" xlink:title="Start initializes the sync state and registers the instance as a ValidationInterface so that it stays...">
<polygon fill="white" stroke="black" points="963,-365 963,-384 1059,-384 1059,-365 963,-365"/>
<text text-anchor="middle" x="1011" y="-372" font-family="Helvetica,sans-Serif" font-size="10.00">BaseIndex::Start</text>
</a>
</g>
</g>
<!-- Node27&#45;&gt;Node28 -->
<g id="edge31" class="edge"><title>Node27&#45;&gt;Node28</title>
<path fill="none" stroke="midnightblue" d="M881.879,-386.581C908.839,-384.039 938.628,-381.23 962.693,-378.961"/>
<polygon fill="midnightblue" stroke="midnightblue" points="881.33,-383.117 871.703,-387.54 881.987,-390.086 881.33,-383.117"/>
</g>
<!-- Node29 -->
<g id="node29" class="node"><title>Node29</title>
<g id="a_node29"><a xlink:href="class_base_index.html#a8960ca12b00a8a6c38428a07849ef88a" target="_top" xlink:title="Write update index entries for a newly connected block. ">
<polygon fill="white" stroke="red" points="1138.5,-384 1138.5,-403 1259.5,-403 1259.5,-384 1138.5,-384"/>
<text text-anchor="middle" x="1199" y="-391" font-family="Helvetica,sans-Serif" font-size="10.00">BaseIndex::WriteBlock</text>
</a>
</g>
</g>
<!-- Node28&#45;&gt;Node29 -->
<g id="edge32" class="edge"><title>Node28&#45;&gt;Node29</title>
<path fill="none" stroke="midnightblue" d="M1069.54,-380.378C1091.38,-382.609 1116.29,-385.153 1138.33,-387.404"/>
<polygon fill="midnightblue" stroke="midnightblue" points="1069.72,-376.878 1059.42,-379.344 1069.01,-383.842 1069.72,-376.878"/>
</g>
<!-- Node29&#45;&gt;Node27 -->
<g id="edge33" class="edge"><title>Node29&#45;&gt;Node27</title>
<path fill="none" stroke="midnightblue" d="M1128.26,-393.5C1055.31,-393.5 941.84,-393.5 871.513,-393.5"/>
<polygon fill="midnightblue" stroke="midnightblue" points="1128.28,-397 1138.27,-393.5 1128.27,-390 1128.28,-397"/>
</g>
<!-- Node32&#45;&gt;Node31 -->
<g id="edge38" class="edge"><title>Node32&#45;&gt;Node31</title>
<path fill="none" stroke="midnightblue" d="M865.906,-326.674C895.424,-321.107 931.075,-314.384 959.531,-309.018"/>
<polygon fill="midnightblue" stroke="midnightblue" points="864.921,-323.298 855.743,-328.591 866.218,-330.177 864.921,-323.298"/>
</g>
<!-- Node32&#45;&gt;Node32 -->
<g id="edge39" class="edge"><title>Node32&#45;&gt;Node32</title>
<path fill="none" stroke="midnightblue" d="M771.875,-355.004C771.881,-360.836 783.756,-365.5 807.5,-365.5 841.27,-365.5 851.031,-356.065 836.785,-347.257"/>
<polygon fill="midnightblue" stroke="midnightblue" points="774.591,-357.212 778.215,-347.257 769.173,-352.779 774.591,-357.212"/>
</g>
<!-- Node33&#45;&gt;Node31 -->
<g id="edge41" class="edge"><title>Node33&#45;&gt;Node31</title>
<path fill="none" stroke="midnightblue" d="M861.701,-155.871C870.503,-158.503 879.269,-161.96 887,-166.5 942.598,-199.147 988.026,-264.794 1003.92,-289.655"/>
<polygon fill="midnightblue" stroke="midnightblue" points="862.366,-152.426 851.802,-153.236 860.565,-159.19 862.366,-152.426"/>
</g>
<!-- Node34 -->
<g id="node34" class="node"><title>Node34</title>
<g id="a_node34"><a xlink:href="blockchain_8h.html#a7916bb05b909d901a0375641330510d1" target="_top" xlink:title="Used by getblockstats to get feerates at different percentiles by weight. ">
<polygon fill="white" stroke="black" points="932.5,-138 932.5,-157 1089.5,-157 1089.5,-138 932.5,-138"/>
<text text-anchor="middle" x="1011" y="-145" font-family="Helvetica,sans-Serif" font-size="10.00">CalculatePercentilesByWeight</text>
</a>
</g>
</g>
<!-- Node33&#45;&gt;Node34 -->
<g id="edge42" class="edge"><title>Node33&#45;&gt;Node34</title>
<path fill="none" stroke="midnightblue" d="M861.978,-147.5C883.519,-147.5 908.788,-147.5 932.29,-147.5"/>
<polygon fill="midnightblue" stroke="midnightblue" points="861.727,-144 851.727,-147.5 861.727,-151 861.727,-144"/>
</g>
<!-- Node34&#45;&gt;Node34 -->
<g id="edge43" class="edge"><title>Node34&#45;&gt;Node34</title>
<path fill="none" stroke="midnightblue" d="M975.768,-165.391C976.284,-171.041 988.028,-175.5 1011,-175.5 1044.41,-175.5 1054.07,-166.065 1039.98,-157.257"/>
<polygon fill="midnightblue" stroke="midnightblue" points="978.702,-167.318 982.024,-157.257 973.153,-163.05 978.702,-167.318"/>
</g>
<!-- Node39 -->
<g id="node39" class="node"><title>Node39</title>
<g id="a_node39"><a xlink:href="blockchain_8cpp.html#a0d3ec9ae23b08828dd7ca646766ca637" target="_top" xlink:title="gettxout">
<polygon fill="white" stroke="black" points="982.5,-50 982.5,-69 1039.5,-69 1039.5,-50 982.5,-50"/>
<text text-anchor="middle" x="1011" y="-57" font-family="Helvetica,sans-Serif" font-size="10.00">gettxout</text>
</a>
</g>
</g>
<!-- Node38&#45;&gt;Node39 -->
<g id="edge48" class="edge"><title>Node38&#45;&gt;Node39</title>
<path fill="none" stroke="midnightblue" d="M872.949,-59.5C909.836,-59.5 954.217,-59.5 982.273,-59.5"/>
<polygon fill="midnightblue" stroke="midnightblue" points="872.763,-56.0001 862.763,-59.5 872.763,-63.0001 872.763,-56.0001"/>
</g>
<!-- Node40 -->
<g id="node40" class="node"><title>Node40</title>
<g id="a_node40"><a xlink:href="blockchain_8cpp.html#af8ae2be64c52204527fac00aefc1151c" target="_top" xlink:title="scantxoutset">
<polygon fill="white" stroke="black" points="1159.5,-50 1159.5,-69 1238.5,-69 1238.5,-50 1159.5,-50"/>
<text text-anchor="middle" x="1199" y="-57" font-family="Helvetica,sans-Serif" font-size="10.00">scantxoutset</text>
</a>
</g>
</g>
<!-- Node39&#45;&gt;Node40 -->
<g id="edge49" class="edge"><title>Node39&#45;&gt;Node40</title>
<path fill="none" stroke="midnightblue" d="M1050.1,-59.5C1081.97,-59.5 1127.23,-59.5 1159.27,-59.5"/>
<polygon fill="midnightblue" stroke="midnightblue" points="1049.85,-56.0001 1039.85,-59.5 1049.85,-63.0001 1049.85,-56.0001"/>
</g>
<!-- Node43 -->
<g id="node43" class="node"><title>Node43</title>
<g id="a_node43"><a xlink:href="validation_8h.html#ad16a624dfed17bddcd0901c6d32212ab" target="_top" xlink:title="Replay blocks that aren&#39;t fully applied to the database. ">
<polygon fill="white" stroke="red" points="972,-560 972,-579 1050,-579 1050,-560 972,-560"/>
<text text-anchor="middle" x="1011" y="-567" font-family="Helvetica,sans-Serif" font-size="10.00">ReplayBlocks</text>
</a>
</g>
</g>
<!-- Node42&#45;&gt;Node43 -->
<g id="edge52" class="edge"><title>Node42&#45;&gt;Node43</title>
<path fill="none" stroke="midnightblue" d="M889.859,-569.5C918.173,-569.5 948.61,-569.5 971.764,-569.5"/>
<polygon fill="midnightblue" stroke="midnightblue" points="889.541,-566 879.541,-569.5 889.541,-573 889.541,-566"/>
</g>
<!-- Node45 -->
<g id="node45" class="node"><title>Node45</title>
<g id="a_node45"><a xlink:href="struct_c_importing_now.html#a0e449b23ac612ff3ff491d989fd08a18" target="_top" xlink:title="CImportingNow::~CImportingNow">
<polygon fill="white" stroke="black" points="923,-472 923,-491 1099,-491 1099,-472 923,-472"/>
<text text-anchor="middle" x="1011" y="-479" font-family="Helvetica,sans-Serif" font-size="10.00">CImportingNow::~CImportingNow</text>
</a>
</g>
</g>
<!-- Node44&#45;&gt;Node45 -->
<g id="edge54" class="edge"><title>Node44&#45;&gt;Node45</title>
<path fill="none" stroke="midnightblue" d="M877.056,-481.5C891.767,-481.5 907.502,-481.5 922.811,-481.5"/>
<polygon fill="midnightblue" stroke="midnightblue" points="877.053,-478 867.053,-481.5 877.053,-485 877.053,-478"/>
</g>
<!-- Node47&#45;&gt;Node18 -->
<g id="edge57" class="edge"><title>Node47&#45;&gt;Node18</title>
<path fill="none" stroke="midnightblue" d="M473.61,-173.648C483.719,-171.335 494.194,-168.886 504,-166.5 587.899,-146.084 625.637,-172.743 692,-117.5 721.034,-93.3305 699.621,-65.4353 728,-40.5 734.984,-34.3636 743.482,-29.7316 752.275,-26.2357"/>
<polygon fill="midnightblue" stroke="midnightblue" points="472.637,-170.279 463.661,-175.907 474.188,-177.105 472.637,-170.279"/>
</g>
<!-- Node48 -->
<g id="node48" class="node"><title>Node48</title>
<g id="a_node48"><a xlink:href="classsubmitblock___state_catcher.html#a89abec4d0d8ea6b2cd651439e3a4f45f" target="_top" xlink:title="Notifies listeners of a block validation result. ">
<polygon fill="white" stroke="black" points="544.5,-170.5 544.5,-200.5 687.5,-200.5 687.5,-170.5 544.5,-170.5"/>
<text text-anchor="start" x="552.5" y="-188.5" font-family="Helvetica,sans-Serif" font-size="10.00">submitblock_StateCatcher</text>
<text text-anchor="middle" x="616" y="-177.5" font-family="Helvetica,sans-Serif" font-size="10.00">::BlockChecked</text>
</a>
</g>
</g>
<!-- Node47&#45;&gt;Node48 -->
<g id="edge58" class="edge"><title>Node47&#45;&gt;Node48</title>
<path fill="none" stroke="midnightblue" d="M499.262,-185.5C514.214,-185.5 529.758,-185.5 544.422,-185.5"/>
<polygon fill="midnightblue" stroke="midnightblue" points="499.024,-182 489.024,-185.5 499.024,-189 499.024,-182"/>
</g>
</g>
</svg>
