<?xml version="1.0" encoding="UTF-8" standalone="no"?>
<!DOCTYPE svg PUBLIC "-//W3C//DTD SVG 1.1//EN"
 "http://www.w3.org/Graphics/SVG/1.1/DTD/svg11.dtd">
<!-- Generated by graphviz version 2.38.0 (20140413.2041)
 -->
<!-- Title: BerkeleyEnvironment::Verify Pages: 1 -->
<svg width="952pt" height="66pt"
 viewBox="0.00 0.00 952.00 66.00" xmlns="http://www.w3.org/2000/svg" xmlns:xlink="http://www.w3.org/1999/xlink">
<g id="graph0" class="graph" transform="scale(1 1) rotate(0) translate(4 62)">
<title>BerkeleyEnvironment::Verify</title>
<polygon fill="white" stroke="none" points="-4,4 -4,-62 948,-62 948,4 -4,4"/>
<!-- Node1 -->
<g id="node1" class="node"><title>Node1</title>
<polygon fill="#bfbfbf" stroke="black" points="0,-14 0,-44 119,-44 119,-14 0,-14"/>
<text text-anchor="start" x="8" y="-32" font-family="Helvetica,sans-Serif" font-size="10.00">BerkeleyEnvironment</text>
<text text-anchor="middle" x="59.5" y="-21" font-family="Helvetica,sans-Serif" font-size="10.00">::Verify</text>
</g>
<!-- Node2 -->
<g id="node2" class="node"><title>Node2</title>
<g id="a_node2"><a xlink:href="class_berkeley_batch.html#a7a90b43e500951e81f6c60f9ec0239f1" target="_top" xlink:title="BerkeleyBatch::VerifyDatabaseFile">
<polygon fill="white" stroke="black" points="155,-19.5 155,-38.5 334,-38.5 334,-19.5 155,-19.5"/>
<text text-anchor="middle" x="244.5" y="-26.5" font-family="Helvetica,sans-Serif" font-size="10.00">BerkeleyBatch::VerifyDatabaseFile</text>
</a>
</g>
</g>
<!-- Node1&#45;&gt;Node2 -->
<g id="edge1" class="edge"><title>Node1&#45;&gt;Node2</title>
<path fill="none" stroke="midnightblue" d="M129.215,-29C137.588,-29 146.233,-29 154.844,-29"/>
<polygon fill="midnightblue" stroke="midnightblue" points="129.157,-25.5001 119.157,-29 129.157,-32.5001 129.157,-25.5001"/>
</g>
<!-- Node3 -->
<g id="node3" class="node"><title>Node3</title>
<g id="a_node3"><a xlink:href="class_wallet_batch.html#a92563e74e5656264cfe5c5603ea230ef" target="_top" xlink:title="WalletBatch::VerifyDatabaseFile">
<polygon fill="white" stroke="black" points="370,-19.5 370,-38.5 536,-38.5 536,-19.5 370,-19.5"/>
<text text-anchor="middle" x="453" y="-26.5" font-family="Helvetica,sans-Serif" font-size="10.00">WalletBatch::VerifyDatabaseFile</text>
</a>
</g>
</g>
<!-- Node2&#45;&gt;Node3 -->
<g id="edge2" class="edge"><title>Node2&#45;&gt;Node3</title>
<path fill="none" stroke="midnightblue" d="M344.281,-29C352.835,-29 361.429,-29 369.829,-29"/>
<polygon fill="midnightblue" stroke="midnightblue" points="344.273,-25.5001 334.273,-29 344.273,-32.5001 344.273,-25.5001"/>
</g>
<!-- Node4 -->
<g id="node4" class="node"><title>Node4</title>
<g id="a_node4"><a xlink:href="class_c_wallet.html#a698a966b418eec1727031667d6f93bcb" target="_top" xlink:title="Verify wallet naming and perform salvage on the wallet if required. ">
<polygon fill="white" stroke="black" points="572,-19.5 572,-38.5 655,-38.5 655,-19.5 572,-19.5"/>
<text text-anchor="middle" x="613.5" y="-26.5" font-family="Helvetica,sans-Serif" font-size="10.00">CWallet::Verify</text>
</a>
</g>
</g>
<!-- Node3&#45;&gt;Node4 -->
<g id="edge3" class="edge"><title>Node3&#45;&gt;Node4</title>
<path fill="none" stroke="midnightblue" d="M546.153,-29C555.051,-29 563.727,-29 571.714,-29"/>
<polygon fill="midnightblue" stroke="midnightblue" points="546.036,-25.5001 536.036,-29 546.036,-32.5001 546.036,-25.5001"/>
</g>
<!-- Node5 -->
<g id="node5" class="node"><title>Node5</title>
<g id="a_node5"><a xlink:href="wallet_2wallet_8h.html#a7058e0a66c69a84d56417e0489fdce86" target="_top" xlink:title="Responsible for reading and validating the &#45;wallet arguments and verifying the wallet database...">
<polygon fill="white" stroke="black" points="697.5,-38.5 697.5,-57.5 773.5,-57.5 773.5,-38.5 697.5,-38.5"/>
<text text-anchor="middle" x="735.5" y="-45.5" font-family="Helvetica,sans-Serif" font-size="10.00">VerifyWallets</text>
</a>
</g>
</g>
<!-- Node4&#45;&gt;Node5 -->
<g id="edge4" class="edge"><title>Node4&#45;&gt;Node5</title>
<path fill="none" stroke="midnightblue" d="M665.223,-37.0311C675.93,-38.7264 687.041,-40.4857 697.148,-42.0859"/>
<polygon fill="midnightblue" stroke="midnightblue" points="665.551,-33.5395 655.127,-35.4325 664.456,-40.4534 665.551,-33.5395"/>
</g>
<!-- Node6 -->
<g id="node6" class="node"><title>Node6</title>
<g id="a_node6"><a xlink:href="rpcwallet_8cpp.html#a74b85c92ee6a84277c73b74f2e212bff" target="_top" xlink:title="listtransactions">
<polygon fill="white" stroke="black" points="691,-0.5 691,-19.5 780,-19.5 780,-0.5 691,-0.5"/>
<text text-anchor="middle" x="735.5" y="-7.5" font-family="Helvetica,sans-Serif" font-size="10.00">listtransactions</text>
</a>
</g>
</g>
<!-- Node4&#45;&gt;Node6 -->
<g id="edge5" class="edge"><title>Node4&#45;&gt;Node6</title>
<path fill="none" stroke="midnightblue" d="M665.249,-20.9647C673.688,-19.6286 682.376,-18.253 690.625,-16.9468"/>
<polygon fill="midnightblue" stroke="midnightblue" points="664.456,-17.5466 655.127,-22.5675 665.551,-24.4605 664.456,-17.5466"/>
</g>
<!-- Node7 -->
<g id="node7" class="node"><title>Node7</title>
<g id="a_node7"><a xlink:href="rpcwallet_8cpp.html#afca55ac7a3c6c274b8b7b3e6eab9cd86" target="_top" xlink:title="walletcreatefundedpsbt">
<polygon fill="white" stroke="black" points="816,-0.5 816,-19.5 944,-19.5 944,-0.5 816,-0.5"/>
<text text-anchor="middle" x="880" y="-7.5" font-family="Helvetica,sans-Serif" font-size="10.00">walletcreatefundedpsbt</text>
</a>
</g>
</g>
<!-- Node6&#45;&gt;Node7 -->
<g id="edge6" class="edge"><title>Node6&#45;&gt;Node7</title>
<path fill="none" stroke="midnightblue" d="M790.066,-10C798.465,-10 807.213,-10 815.804,-10"/>
<polygon fill="midnightblue" stroke="midnightblue" points="790.029,-6.5001 780.029,-10 790.029,-13.5001 790.029,-6.5001"/>
</g>
</g>
</svg>
