<?xml version="1.0" encoding="UTF-8" standalone="no"?>
<!DOCTYPE svg PUBLIC "-//W3C//DTD SVG 1.1//EN"
 "http://www.w3.org/Graphics/SVG/1.1/DTD/svg11.dtd">
<!-- Generated by graphviz version 2.40.1 (20161225.0304)
 -->
<!-- Title: CAffectedKeysVisitor::operator() Pages: 1 -->
<svg width="483pt" height="123pt"
 viewBox="0.00 0.00 483.00 123.00" xmlns="http://www.w3.org/2000/svg" xmlns:xlink="http://www.w3.org/1999/xlink">
<g id="graph0" class="graph" transform="scale(1 1) rotate(0) translate(4 119)">
<title>CAffectedKeysVisitor::operator()</title>
<polygon fill="#ffffff" stroke="transparent" points="-4,4 -4,-119 479,-119 479,4 -4,4"/>
<!-- Node8 -->
<g id="node1" class="node">
<title>Node8</title>
<polygon fill="#bfbfbf" stroke="#000000" points="0,-33 0,-63 111,-63 111,-33 0,-33"/>
<text text-anchor="start" x="8" y="-51" font-family="Helvetica,sans-Serif" font-size="10.00" fill="#000000">CAffectedKeysVisitor</text>
<text text-anchor="middle" x="55.5" y="-40" font-family="Helvetica,sans-Serif" font-size="10.00" fill="#000000">::operator()</text>
</g>
<!-- Node9 -->
<g id="node2" class="node">
<title>Node9</title>
<g id="a_node2"><a xlink:href="class_c_r_i_p_e_m_d160.html#a221143b9d94af623d07c4f4ba1bf6007" target="_top" xlink:title="CRIPEMD160::Write">
<polygon fill="#ffffff" stroke="#000000" points="162.5,-76.5 162.5,-95.5 271.5,-95.5 271.5,-76.5 162.5,-76.5"/>
<text text-anchor="middle" x="217" y="-83.5" font-family="Helvetica,sans-Serif" font-size="10.00" fill="#000000">CRIPEMD160::Write</text>
</a>
</g>
</g>
<!-- Node8&#45;&gt;Node9 -->
<g id="edge1" class="edge">
<title>Node8&#45;&gt;Node9</title>
<path fill="none" stroke="#191970" d="M111.0791,-61.0774C129.0796,-65.3128 148.9342,-69.9845 166.5415,-74.1274"/>
<polygon fill="#191970" stroke="#191970" points="166.082,-77.6148 176.6178,-76.4983 167.6853,-70.8009 166.082,-77.6148"/>
</g>
<!-- Node13 -->
<g id="node6" class="node">
<title>Node13</title>
<g id="a_node6"><a xlink:href="classbase__blob.html#aeee68e00ceeacf49086e98b661e017ff" target="_top" xlink:title="base_blob::begin">
<polygon fill="#ffffff" stroke="#000000" points="172,-38.5 172,-57.5 262,-57.5 262,-38.5 172,-38.5"/>
<text text-anchor="middle" x="217" y="-45.5" font-family="Helvetica,sans-Serif" font-size="10.00" fill="#000000">base_blob::begin</text>
</a>
</g>
</g>
<!-- Node8&#45;&gt;Node13 -->
<g id="edge5" class="edge">
<title>Node8&#45;&gt;Node13</title>
<path fill="none" stroke="#191970" d="M111.0791,-48C127.321,-48 145.0725,-48 161.3206,-48"/>
<polygon fill="#191970" stroke="#191970" points="161.7498,-51.5001 171.7498,-48 161.7498,-44.5001 161.7498,-51.5001"/>
</g>
<!-- Node14 -->
<g id="node7" class="node">
<title>Node14</title>
<g id="a_node7"><a xlink:href="class_signing_provider.html#ae79047f6fb401728d3dc42997e69af99" target="_top" xlink:title="SigningProvider::GetCScript">
<polygon fill="#ffffff" stroke="#000000" points="147,-.5 147,-19.5 287,-19.5 287,-.5 147,-.5"/>
<text text-anchor="middle" x="217" y="-7.5" font-family="Helvetica,sans-Serif" font-size="10.00" fill="#000000">SigningProvider::GetCScript</text>
</a>
</g>
</g>
<!-- Node8&#45;&gt;Node14 -->
<g id="edge6" class="edge">
<title>Node8&#45;&gt;Node14</title>
<path fill="none" stroke="#191970" d="M111.0791,-34.9226C129.0796,-30.6872 148.9342,-26.0155 166.5415,-21.8726"/>
<polygon fill="#191970" stroke="#191970" points="167.6853,-25.1991 176.6178,-19.5017 166.082,-18.3852 167.6853,-25.1991"/>
</g>
<!-- Node10 -->
<g id="node3" class="node">
<title>Node10</title>
<g id="a_node3"><a xlink:href="glibc__compat_8cpp.html#a0f46826ab0466591e136db24394923cf" target="_top" xlink:title="memcpy">
<polygon fill="#ffffff" stroke="#000000" points="323,-76.5 323,-95.5 377,-95.5 377,-76.5 323,-76.5"/>
<text text-anchor="middle" x="350" y="-83.5" font-family="Helvetica,sans-Serif" font-size="10.00" fill="#000000">memcpy</text>
</a>
</g>
</g>
<!-- Node9&#45;&gt;Node10 -->
<g id="edge2" class="edge">
<title>Node9&#45;&gt;Node10</title>
<path fill="none" stroke="#191970" d="M271.8641,-86C285.6161,-86 300.0534,-86 312.7238,-86"/>
<polygon fill="#191970" stroke="#191970" points="312.8976,-89.5001 322.8976,-86 312.8975,-82.5001 312.8976,-89.5001"/>
</g>
<!-- Node11 -->
<g id="node4" class="node">
<title>Node11</title>
<g id="a_node4"><a xlink:href="glibc__compat_8cpp.html#a9778d49e9029dd75bc53ecbbf9f5e9a1" target="_top" xlink:title="memmove">
<polygon fill="#ffffff" stroke="#000000" points="413,-95.5 413,-114.5 475,-114.5 475,-95.5 413,-95.5"/>
<text text-anchor="middle" x="444" y="-102.5" font-family="Helvetica,sans-Serif" font-size="10.00" fill="#000000">memmove</text>
</a>
</g>
</g>
<!-- Node10&#45;&gt;Node11 -->
<g id="edge3" class="edge">
<title>Node10&#45;&gt;Node11</title>
<path fill="none" stroke="#191970" d="M377.1887,-91.4956C385.217,-93.1183 394.1892,-94.9319 402.8881,-96.6901"/>
<polygon fill="#191970" stroke="#191970" points="402.4061,-100.1634 412.9013,-98.7141 403.793,-93.3022 402.4061,-100.1634"/>
</g>
<!-- Node12 -->
<g id="node5" class="node">
<title>Node12</title>
<g id="a_node5"><a xlink:href="glibc__compat_8cpp.html#a424ac71631da5ada2976630ff67051d1" target="_top" xlink:title="__chk_fail">
<polygon fill="#ffffff" stroke="#000000" points="413.5,-57.5 413.5,-76.5 474.5,-76.5 474.5,-57.5 413.5,-57.5"/>
<text text-anchor="middle" x="444" y="-64.5" font-family="Helvetica,sans-Serif" font-size="10.00" fill="#000000">__chk_fail</text>
</a>
</g>
</g>
<!-- Node10&#45;&gt;Node12 -->
<g id="edge4" class="edge">
<title>Node10&#45;&gt;Node12</title>
<path fill="none" stroke="#191970" d="M377.1887,-80.5044C385.383,-78.8481 394.5608,-76.993 403.4275,-75.2008"/>
<polygon fill="#191970" stroke="#191970" points="404.1288,-78.6299 413.2371,-73.218 402.7419,-71.7687 404.1288,-78.6299"/>
</g>
</g>
</svg>
