<?xml version="1.0" encoding="UTF-8" standalone="no"?>
<!DOCTYPE svg PUBLIC "-//W3C//DTD SVG 1.1//EN"
 "http://www.w3.org/Graphics/SVG/1.1/DTD/svg11.dtd">
<!-- Generated by graphviz version 2.38.0 (20140413.2041)
 -->
<!-- Title: PaymentServer::uiReady Pages: 1 -->
<svg width="726pt" height="88pt"
 viewBox="0.00 0.00 726.00 88.00" xmlns="http://www.w3.org/2000/svg" xmlns:xlink="http://www.w3.org/1999/xlink">
<g id="graph0" class="graph" transform="scale(1 1) rotate(0) translate(4 84)">
<title>PaymentServer::uiReady</title>
<polygon fill="white" stroke="none" points="-4,4 -4,-84 722,-84 722,4 -4,4"/>
<!-- Node1 -->
<g id="node1" class="node"><title>Node1</title>
<polygon fill="#bfbfbf" stroke="black" points="0,-30 0,-49 133,-49 133,-30 0,-30"/>
<text text-anchor="middle" x="66.5" y="-37" font-family="Helvetica,sans-Serif" font-size="10.00">PaymentServer::uiReady</text>
</g>
<!-- Node2 -->
<g id="node2" class="node"><title>Node2</title>
<g id="a_node2"><a xlink:href="class_bitcoin_application.html#a5bcf1bf32a7508326e0dd630a59a887d" target="_top" xlink:title="BitcoinApplication\l::initializeResult">
<polygon fill="white" stroke="black" points="169,-24.5 169,-54.5 270,-54.5 270,-24.5 169,-24.5"/>
<text text-anchor="start" x="177" y="-42.5" font-family="Helvetica,sans-Serif" font-size="10.00">BitcoinApplication</text>
<text text-anchor="middle" x="219.5" y="-31.5" font-family="Helvetica,sans-Serif" font-size="10.00">::initializeResult</text>
</a>
</g>
</g>
<!-- Node1&#45;&gt;Node2 -->
<g id="edge1" class="edge"><title>Node1&#45;&gt;Node2</title>
<path fill="none" stroke="midnightblue" d="M143.401,-39.5C152.033,-39.5 160.658,-39.5 168.825,-39.5"/>
<polygon fill="midnightblue" stroke="midnightblue" points="143.292,-36.0001 133.292,-39.5 143.292,-43.0001 143.292,-36.0001"/>
</g>
<!-- Node3 -->
<g id="node3" class="node"><title>Node3</title>
<g id="a_node3"><a xlink:href="class_bitcoin_application.html#a61afce9356e452c53ad4c83f5ca19df8" target="_top" xlink:title="BitcoinApplication\l::startThread">
<polygon fill="white" stroke="black" points="306,-24.5 306,-54.5 407,-54.5 407,-24.5 306,-24.5"/>
<text text-anchor="start" x="314" y="-42.5" font-family="Helvetica,sans-Serif" font-size="10.00">BitcoinApplication</text>
<text text-anchor="middle" x="356.5" y="-31.5" font-family="Helvetica,sans-Serif" font-size="10.00">::startThread</text>
</a>
</g>
</g>
<!-- Node2&#45;&gt;Node3 -->
<g id="edge2" class="edge"><title>Node2&#45;&gt;Node3</title>
<path fill="none" stroke="midnightblue" d="M280.207,-39.5C288.67,-39.5 297.299,-39.5 305.552,-39.5"/>
<polygon fill="midnightblue" stroke="midnightblue" points="280.002,-36.0001 270.002,-39.5 280.002,-43.0001 280.002,-36.0001"/>
</g>
<!-- Node4 -->
<g id="node4" class="node"><title>Node4</title>
<g id="a_node4"><a xlink:href="class_bitcoin_application.html#ade19c44b87b00b6b19b433caf4c22ba6" target="_top" xlink:title="Request core initialization. ">
<polygon fill="white" stroke="black" points="446,-49.5 446,-79.5 547,-79.5 547,-49.5 446,-49.5"/>
<text text-anchor="start" x="454" y="-67.5" font-family="Helvetica,sans-Serif" font-size="10.00">BitcoinApplication</text>
<text text-anchor="middle" x="496.5" y="-56.5" font-family="Helvetica,sans-Serif" font-size="10.00">::requestInitialize</text>
</a>
</g>
</g>
<!-- Node3&#45;&gt;Node4 -->
<g id="edge3" class="edge"><title>Node3&#45;&gt;Node4</title>
<path fill="none" stroke="midnightblue" d="M417.447,-50.3599C426.893,-52.0712 436.57,-53.8242 445.752,-55.4877"/>
<polygon fill="midnightblue" stroke="midnightblue" points="417.785,-46.8643 407.321,-48.5256 416.537,-53.7522 417.785,-46.8643"/>
</g>
<!-- Node7 -->
<g id="node7" class="node"><title>Node7</title>
<g id="a_node7"><a xlink:href="class_bitcoin_application.html#a37c560d4c04d14a6da151b82caf8888f" target="_top" xlink:title="Request core shutdown. ">
<polygon fill="white" stroke="black" points="443,-0.5 443,-30.5 550,-30.5 550,-0.5 443,-0.5"/>
<text text-anchor="start" x="451" y="-18.5" font-family="Helvetica,sans-Serif" font-size="10.00">BitcoinApplication</text>
<text text-anchor="middle" x="496.5" y="-7.5" font-family="Helvetica,sans-Serif" font-size="10.00">::requestShutdown</text>
</a>
</g>
</g>
<!-- Node3&#45;&gt;Node7 -->
<g id="edge6" class="edge"><title>Node3&#45;&gt;Node7</title>
<path fill="none" stroke="midnightblue" d="M417.246,-29.1094C425.803,-27.6212 434.554,-26.0993 442.959,-24.6376"/>
<polygon fill="midnightblue" stroke="midnightblue" points="416.574,-25.6737 407.321,-30.8354 417.773,-32.5702 416.574,-25.6737"/>
</g>
<!-- Node5 -->
<g id="node5" class="node"><title>Node5</title>
<g id="a_node5"><a xlink:href="bitcoin_8h.html#a810d06fb8004c57d668eeb540ae582b7" target="_top" xlink:title="GuiMain">
<polygon fill="white" stroke="black" points="586,-30 586,-49 641,-49 641,-30 586,-30"/>
<text text-anchor="middle" x="613.5" y="-37" font-family="Helvetica,sans-Serif" font-size="10.00">GuiMain</text>
</a>
</g>
</g>
<!-- Node4&#45;&gt;Node5 -->
<g id="edge4" class="edge"><title>Node4&#45;&gt;Node5</title>
<path fill="none" stroke="midnightblue" d="M557.256,-51.5095C567.255,-49.3358 577.163,-47.182 585.768,-45.3114"/>
<polygon fill="midnightblue" stroke="midnightblue" points="556.3,-48.1355 547.272,-53.68 557.787,-54.9758 556.3,-48.1355"/>
</g>
<!-- Node6 -->
<g id="node6" class="node"><title>Node6</title>
<g id="a_node6"><a xlink:href="main_8cpp.html#a0ddf1224851353fc92bfbff6f499fa97" target="_top" xlink:title="main">
<polygon fill="white" stroke="black" points="677,-30 677,-49 718,-49 718,-30 677,-30"/>
<text text-anchor="middle" x="697.5" y="-37" font-family="Helvetica,sans-Serif" font-size="10.00">main</text>
</a>
</g>
</g>
<!-- Node5&#45;&gt;Node6 -->
<g id="edge5" class="edge"><title>Node5&#45;&gt;Node6</title>
<path fill="none" stroke="midnightblue" d="M651.434,-39.5C660.205,-39.5 669.227,-39.5 676.872,-39.5"/>
<polygon fill="midnightblue" stroke="midnightblue" points="651.35,-36.0001 641.35,-39.5 651.35,-43.0001 651.35,-36.0001"/>
</g>
<!-- Node7&#45;&gt;Node5 -->
<g id="edge7" class="edge"><title>Node7&#45;&gt;Node5</title>
<path fill="none" stroke="midnightblue" d="M560.094,-28.563C569.108,-30.4443 577.955,-32.2905 585.737,-33.9147"/>
<polygon fill="midnightblue" stroke="midnightblue" points="560.792,-25.1334 550.288,-26.5166 559.362,-31.9858 560.792,-25.1334"/>
</g>
</g>
</svg>
