<?xml version="1.0" encoding="UTF-8" standalone="no"?>
<!DOCTYPE svg PUBLIC "-//W3C//DTD SVG 1.1//EN"
 "http://www.w3.org/Graphics/SVG/1.1/DTD/svg11.dtd">
<!-- Generated by graphviz version 2.49.3 (0)
 -->
<!-- Title: interfaces::Wallet::listCoins Pages: 1 -->
<svg width="551pt" height="176pt"
 viewBox="0.00 0.00 551.00 176.00" xmlns="http://www.w3.org/2000/svg" xmlns:xlink="http://www.w3.org/1999/xlink">
<g id="graph0" class="graph" transform="scale(1 1) rotate(0) translate(4 172)">
<title>interfaces::Wallet::listCoins</title>
<polygon fill="white" stroke="transparent" points="-4,4 -4,-172 547,-172 547,4 -4,4"/>
<!-- Node1 -->
<g id="node1" class="node">
<title>Node1</title>
<g id="a_node1"><a xlink:title=" ">
<polygon fill="#bfbfbf" stroke="black" points="441,-71.5 441,-101.5 543,-101.5 543,-71.5 441,-71.5"/>
<text text-anchor="start" x="449" y="-89.5" font-family="Helvetica,sans-Serif" font-size="10.00">interfaces::Wallet</text>
<text text-anchor="middle" x="492" y="-78.5" font-family="Helvetica,sans-Serif" font-size="10.00">::listCoins</text>
</a>
</g>
</g>
<!-- Node2 -->
<g id="node2" class="node">
<title>Node2</title>
<g id="a_node2"><a xlink:href="class_coin_control_dialog.html#aadea33050e5c1efd5eae8d2fcfa721f9" target="_top" xlink:title=" ">
<polygon fill="white" stroke="black" points="294,-71.5 294,-101.5 405,-101.5 405,-71.5 294,-71.5"/>
<text text-anchor="start" x="302" y="-89.5" font-family="Helvetica,sans-Serif" font-size="10.00">CoinControlDialog::</text>
<text text-anchor="middle" x="349.5" y="-78.5" font-family="Helvetica,sans-Serif" font-size="10.00">updateView</text>
</a>
</g>
</g>
<!-- Node1&#45;&gt;Node2 -->
<g id="edge1" class="edge">
<title>Node1&#45;&gt;Node2</title>
<path fill="none" stroke="midnightblue" d="M430.54,-86.5C422.13,-86.5 413.53,-86.5 405.23,-86.5"/>
<polygon fill="midnightblue" stroke="midnightblue" points="430.67,-90 440.67,-86.5 430.67,-83 430.67,-90"/>
</g>
<!-- Node3 -->
<g id="node3" class="node">
<title>Node3</title>
<g id="a_node3"><a xlink:href="class_coin_control_dialog.html#a71e14e45b7b0c67129aa068eb8a5fe07" target="_top" xlink:title=" ">
<polygon fill="white" stroke="black" points="147,-137.5 147,-167.5 258,-167.5 258,-137.5 147,-137.5"/>
<text text-anchor="start" x="155" y="-155.5" font-family="Helvetica,sans-Serif" font-size="10.00">CoinControlDialog::</text>
<text text-anchor="middle" x="202.5" y="-144.5" font-family="Helvetica,sans-Serif" font-size="10.00">changeEvent</text>
</a>
</g>
</g>
<!-- Node2&#45;&gt;Node3 -->
<g id="edge2" class="edge">
<title>Node2&#45;&gt;Node3</title>
<path fill="none" stroke="midnightblue" d="M306.05,-105.82C283.9,-115.9 257.21,-128.05 236.61,-137.43"/>
<polygon fill="midnightblue" stroke="midnightblue" points="307.58,-108.97 315.23,-101.64 304.68,-102.6 307.58,-108.97"/>
</g>
<!-- Node4 -->
<g id="node4" class="node">
<title>Node4</title>
<g id="a_node4"><a xlink:href="class_coin_control_dialog.html#a9670b95cf72fa2af5a766940e9ab5b21" target="_top" xlink:title=" ">
<polygon fill="white" stroke="black" points="0,-49.5 0,-79.5 111,-79.5 111,-49.5 0,-49.5"/>
<text text-anchor="start" x="8" y="-67.5" font-family="Helvetica,sans-Serif" font-size="10.00">CoinControlDialog::</text>
<text text-anchor="middle" x="55.5" y="-56.5" font-family="Helvetica,sans-Serif" font-size="10.00">CoinControlDialog</text>
</a>
</g>
</g>
<!-- Node2&#45;&gt;Node4 -->
<g id="edge3" class="edge">
<title>Node2&#45;&gt;Node4</title>
<path fill="none" stroke="midnightblue" d="M283.86,-92.35C244.19,-94.73 192.45,-95.66 147,-89.5 131.98,-87.46 115.93,-83.61 101.58,-79.52"/>
<polygon fill="midnightblue" stroke="midnightblue" points="284.18,-95.83 293.93,-91.7 283.73,-88.85 284.18,-95.83"/>
</g>
<!-- Node5 -->
<g id="node5" class="node">
<title>Node5</title>
<g id="a_node5"><a xlink:href="class_coin_control_dialog.html#a775c6d290cb63667a434b09072094533" target="_top" xlink:title=" ">
<polygon fill="white" stroke="black" points="147,-49.5 147,-79.5 258,-79.5 258,-49.5 147,-49.5"/>
<text text-anchor="start" x="155" y="-67.5" font-family="Helvetica,sans-Serif" font-size="10.00">CoinControlDialog::</text>
<text text-anchor="middle" x="202.5" y="-56.5" font-family="Helvetica,sans-Serif" font-size="10.00">radioListMode</text>
</a>
</g>
</g>
<!-- Node2&#45;&gt;Node5 -->
<g id="edge4" class="edge">
<title>Node2&#45;&gt;Node5</title>
<path fill="none" stroke="midnightblue" d="M283.54,-76.64C275.14,-75.37 266.61,-74.08 258.4,-72.83"/>
<polygon fill="midnightblue" stroke="midnightblue" points="283.27,-80.14 293.68,-78.18 284.32,-73.22 283.27,-80.14"/>
</g>
<!-- Node6 -->
<g id="node6" class="node">
<title>Node6</title>
<g id="a_node6"><a xlink:href="class_coin_control_dialog.html#a1990d478f3ffba666c358a4f1bd395ec" target="_top" xlink:title=" ">
<polygon fill="white" stroke="black" points="147,-0.5 147,-30.5 258,-30.5 258,-0.5 147,-0.5"/>
<text text-anchor="start" x="155" y="-18.5" font-family="Helvetica,sans-Serif" font-size="10.00">CoinControlDialog::</text>
<text text-anchor="middle" x="202.5" y="-7.5" font-family="Helvetica,sans-Serif" font-size="10.00">radioTreeMode</text>
</a>
</g>
</g>
<!-- Node2&#45;&gt;Node6 -->
<g id="edge6" class="edge">
<title>Node2&#45;&gt;Node6</title>
<path fill="none" stroke="midnightblue" d="M310.58,-66.8C294.45,-58.53 275.38,-48.9 258,-40.5 251.25,-37.24 243.99,-33.83 237.03,-30.63"/>
<polygon fill="midnightblue" stroke="midnightblue" points="309.22,-70.03 319.71,-71.49 312.42,-63.81 309.22,-70.03"/>
</g>
<!-- Node5&#45;&gt;Node4 -->
<g id="edge5" class="edge">
<title>Node5&#45;&gt;Node4</title>
<path fill="none" stroke="midnightblue" d="M136.54,-64.5C128.14,-64.5 119.61,-64.5 111.4,-64.5"/>
<polygon fill="midnightblue" stroke="midnightblue" points="136.68,-68 146.68,-64.5 136.68,-61 136.68,-68"/>
</g>
<!-- Node6&#45;&gt;Node4 -->
<g id="edge7" class="edge">
<title>Node6&#45;&gt;Node4</title>
<path fill="none" stroke="midnightblue" d="M147.08,-33.89C131.98,-38.99 115.77,-44.47 101.29,-49.36"/>
<polygon fill="midnightblue" stroke="midnightblue" points="148.46,-37.12 156.81,-30.6 146.22,-30.49 148.46,-37.12"/>
</g>
</g>
</svg>
