<?xml version="1.0" encoding="UTF-8" standalone="no"?>
<!DOCTYPE svg PUBLIC "-//W3C//DTD SVG 1.1//EN"
 "http://www.w3.org/Graphics/SVG/1.1/DTD/svg11.dtd">
<!-- Generated by graphviz version 2.38.0 (20140413.2041)
 -->
<!-- Title: Coin::Serialize Pages: 1 -->
<svg width="327pt" height="66pt"
 viewBox="0.00 0.00 327.00 66.00" xmlns="http://www.w3.org/2000/svg" xmlns:xlink="http://www.w3.org/1999/xlink">
<g id="graph0" class="graph" transform="scale(1 1) rotate(0) translate(4 62)">
<title>Coin::Serialize</title>
<polygon fill="white" stroke="none" points="-4,4 -4,-62 323,-62 323,4 -4,4"/>
<!-- Node1 -->
<g id="node1" class="node"><title>Node1</title>
<polygon fill="#bfbfbf" stroke="black" points="0,-19.5 0,-38.5 84,-38.5 84,-19.5 0,-19.5"/>
<text text-anchor="middle" x="42" y="-26.5" font-family="Helvetica,sans-Serif" font-size="10.00">Coin::Serialize</text>
</g>
<!-- Node2 -->
<g id="node2" class="node"><title>Node2</title>
<g id="a_node2"><a xlink:href="class_coin.html#a628049831dea554ed4bbe92dbdf2d816" target="_top" xlink:title="Coin::IsSpent">
<polygon fill="white" stroke="black" points="120,-38.5 120,-57.5 200,-57.5 200,-38.5 120,-38.5"/>
<text text-anchor="middle" x="160" y="-45.5" font-family="Helvetica,sans-Serif" font-size="10.00">Coin::IsSpent</text>
</a>
</g>
</g>
<!-- Node1&#45;&gt;Node2 -->
<g id="edge1" class="edge"><title>Node1&#45;&gt;Node2</title>
<path fill="none" stroke="midnightblue" d="M84.2239,-35.7522C92.5552,-37.1168 101.392,-38.5642 109.961,-39.9678"/>
<polygon fill="midnightblue" stroke="midnightblue" points="109.417,-43.4252 119.852,-41.5877 110.549,-36.5173 109.417,-43.4252"/>
</g>
<!-- Node4 -->
<g id="node4" class="node"><title>Node4</title>
<g id="a_node4"><a xlink:href="serialize_8h.html#abd1caa7e45d4ba31b7dfdda9949c3b05" target="_top" xlink:title="Used to bypass the rule against non&#45;const reference to temporary where it makes sense with wrappers...">
<polygon fill="white" stroke="black" points="143,-0.5 143,-19.5 177,-19.5 177,-0.5 143,-0.5"/>
<text text-anchor="middle" x="160" y="-7.5" font-family="Helvetica,sans-Serif" font-size="10.00">REF</text>
</a>
</g>
</g>
<!-- Node1&#45;&gt;Node4 -->
<g id="edge3" class="edge"><title>Node1&#45;&gt;Node4</title>
<path fill="none" stroke="midnightblue" d="M84.2239,-22.2478C100.414,-19.5959 118.513,-16.6314 132.849,-14.2833"/>
<polygon fill="midnightblue" stroke="midnightblue" points="133.682,-17.6936 142.985,-12.6232 132.551,-10.7857 133.682,-17.6936"/>
</g>
<!-- Node3 -->
<g id="node3" class="node"><title>Node3</title>
<g id="a_node3"><a xlink:href="class_c_tx_out.html#aeaa6b16e0c4caee54196cf8eb0f127f3" target="_top" xlink:title="CTxOut::IsNull">
<polygon fill="white" stroke="black" points="236,-38.5 236,-57.5 319,-57.5 319,-38.5 236,-38.5"/>
<text text-anchor="middle" x="277.5" y="-45.5" font-family="Helvetica,sans-Serif" font-size="10.00">CTxOut::IsNull</text>
</a>
</g>
</g>
<!-- Node2&#45;&gt;Node3 -->
<g id="edge2" class="edge"><title>Node2&#45;&gt;Node3</title>
<path fill="none" stroke="midnightblue" d="M200.103,-48C208.292,-48 217.041,-48 225.587,-48"/>
<polygon fill="midnightblue" stroke="midnightblue" points="225.86,-51.5001 235.86,-48 225.86,-44.5001 225.86,-51.5001"/>
</g>
</g>
</svg>
