<?xml version="1.0" encoding="UTF-8" standalone="no"?>
<!DOCTYPE svg PUBLIC "-//W3C//DTD SVG 1.1//EN"
 "http://www.w3.org/Graphics/SVG/1.1/DTD/svg11.dtd">
<!-- Generated by graphviz version 2.49.3 (0)
 -->
<!-- Title: CZMQAbstractNotifier::NotifyTransaction Pages: 1 -->
<svg width="332pt" height="137pt"
 viewBox="0.00 0.00 332.00 137.00" xmlns="http://www.w3.org/2000/svg" xmlns:xlink="http://www.w3.org/1999/xlink">
<g id="graph0" class="graph" transform="scale(1 1) rotate(0) translate(4 133)">
<title>CZMQAbstractNotifier::NotifyTransaction</title>
<polygon fill="white" stroke="transparent" points="-4,4 -4,-133 328,-133 328,4 -4,4"/>
<!-- Node1 -->
<g id="node1" class="node">
<title>Node1</title>
<g id="a_node1"><a xlink:title=" ">
<polygon fill="#bfbfbf" stroke="black" points="201,-49.5 201,-79.5 324,-79.5 324,-49.5 201,-49.5"/>
<text text-anchor="start" x="209" y="-67.5" font-family="Helvetica,sans-Serif" font-size="10.00">CZMQAbstractNotifier</text>
<text text-anchor="middle" x="262.5" y="-56.5" font-family="Helvetica,sans-Serif" font-size="10.00">::NotifyTransaction</text>
</a>
</g>
</g>
<!-- Node2 -->
<g id="node2" class="node">
<title>Node2</title>
<g id="a_node2"><a xlink:href="class_c_z_m_q_notification_interface.html#a8fc1cf4965baedd1e5db8e200f9d2719" target="_top" xlink:title="Notifies listeners of a block being connected.">
<polygon fill="white" stroke="black" points="9.5,-98.5 9.5,-128.5 155.5,-128.5 155.5,-98.5 9.5,-98.5"/>
<text text-anchor="start" x="17.5" y="-116.5" font-family="Helvetica,sans-Serif" font-size="10.00">CZMQNotificationInterface</text>
<text text-anchor="middle" x="82.5" y="-105.5" font-family="Helvetica,sans-Serif" font-size="10.00">::BlockConnected</text>
</a>
</g>
</g>
<!-- Node1&#45;&gt;Node2 -->
<g id="edge1" class="edge">
<title>Node1&#45;&gt;Node2</title>
<path fill="none" stroke="midnightblue" d="M196.76,-82.32C177.54,-87.61 156.69,-93.35 138.18,-98.45"/>
<polygon fill="midnightblue" stroke="midnightblue" points="197.93,-85.63 206.64,-79.6 196.07,-78.88 197.93,-85.63"/>
</g>
<!-- Node3 -->
<g id="node3" class="node">
<title>Node3</title>
<g id="a_node3"><a xlink:href="class_c_z_m_q_notification_interface.html#acb9b34c1065d297f7edcc434963c57fa" target="_top" xlink:title="Notifies listeners of a block being disconnected.">
<polygon fill="white" stroke="black" points="9.5,-49.5 9.5,-79.5 155.5,-79.5 155.5,-49.5 9.5,-49.5"/>
<text text-anchor="start" x="17.5" y="-67.5" font-family="Helvetica,sans-Serif" font-size="10.00">CZMQNotificationInterface</text>
<text text-anchor="middle" x="82.5" y="-56.5" font-family="Helvetica,sans-Serif" font-size="10.00">::BlockDisconnected</text>
</a>
</g>
</g>
<!-- Node1&#45;&gt;Node3 -->
<g id="edge2" class="edge">
<title>Node1&#45;&gt;Node3</title>
<path fill="none" stroke="midnightblue" d="M190.73,-64.5C179.19,-64.5 167.23,-64.5 155.66,-64.5"/>
<polygon fill="midnightblue" stroke="midnightblue" points="190.74,-68 200.74,-64.5 190.74,-61 190.74,-68"/>
</g>
<!-- Node4 -->
<g id="node4" class="node">
<title>Node4</title>
<g id="a_node4"><a xlink:href="class_c_z_m_q_notification_interface.html#ab2314d744eb782c11be1a72f530e6bbb" target="_top" xlink:title="Notifies listeners of a transaction having been added to mempool.">
<polygon fill="white" stroke="black" points="0,-0.5 0,-30.5 165,-30.5 165,-0.5 0,-0.5"/>
<text text-anchor="start" x="8" y="-18.5" font-family="Helvetica,sans-Serif" font-size="10.00">CZMQNotificationInterface</text>
<text text-anchor="middle" x="82.5" y="-7.5" font-family="Helvetica,sans-Serif" font-size="10.00">::TransactionAddedToMempool</text>
</a>
</g>
</g>
<!-- Node1&#45;&gt;Node4 -->
<g id="edge3" class="edge">
<title>Node1&#45;&gt;Node4</title>
<path fill="none" stroke="midnightblue" d="M196.76,-46.68C177.54,-41.39 156.69,-35.65 138.18,-30.55"/>
<polygon fill="midnightblue" stroke="midnightblue" points="196.07,-50.12 206.64,-49.4 197.93,-43.37 196.07,-50.12"/>
</g>
</g>
</svg>
