<?xml version="1.0" encoding="UTF-8" standalone="no"?>
<!DOCTYPE svg PUBLIC "-//W3C//DTD SVG 1.1//EN"
 "http://www.w3.org/Graphics/SVG/1.1/DTD/svg11.dtd">
<!-- Generated by graphviz version 2.49.3 (0)
 -->
<!-- Title: ChainstateManager::LoadBlockIndex Pages: 1 -->
<svg width="401pt" height="39pt"
 viewBox="0.00 0.00 401.00 39.00" xmlns="http://www.w3.org/2000/svg" xmlns:xlink="http://www.w3.org/1999/xlink">
<g id="graph0" class="graph" transform="scale(1 1) rotate(0) translate(4 35)">
<title>ChainstateManager::LoadBlockIndex</title>
<polygon fill="white" stroke="transparent" points="-4,4 -4,-35 397,-35 397,4 -4,4"/>
<!-- Node1 -->
<g id="node1" class="node">
<title>Node1</title>
<g id="a_node1"><a xlink:title="Load the block tree and coins database from disk, initializing state if we&#39;re running with &#45;reindex.">
<polygon fill="#bfbfbf" stroke="black" points="275,-0.5 275,-30.5 393,-30.5 393,-0.5 275,-0.5"/>
<text text-anchor="start" x="283" y="-18.5" font-family="Helvetica,sans-Serif" font-size="10.00">ChainstateManager::</text>
<text text-anchor="middle" x="334" y="-7.5" font-family="Helvetica,sans-Serif" font-size="10.00">LoadBlockIndex</text>
</a>
</g>
</g>
<!-- Node2 -->
<g id="node2" class="node">
<title>Node2</title>
<g id="a_node2"><a xlink:href="init_8cpp.html#ad2bfca84e560eb87fbfbe9c20f893374" target="_top" xlink:title="Bitcoin core main initialization.">
<polygon fill="white" stroke="black" points="164,-6 164,-25 239,-25 239,-6 164,-6"/>
<text text-anchor="middle" x="201.5" y="-13" font-family="Helvetica,sans-Serif" font-size="10.00">AppInitMain</text>
</a>
</g>
</g>
<!-- Node1&#45;&gt;Node2 -->
<g id="edge1" class="edge">
<title>Node1&#45;&gt;Node2</title>
<path fill="none" stroke="midnightblue" d="M264.39,-15.5C255.68,-15.5 247.04,-15.5 239.11,-15.5"/>
<polygon fill="midnightblue" stroke="midnightblue" points="264.62,-19 274.62,-15.5 264.62,-12 264.62,-19"/>
</g>
<!-- Node3 -->
<g id="node3" class="node">
<title>Node3</title>
<g id="a_node3"><a xlink:href="bitcoind_8cpp.html#a111f3c7b82a1c083ce04328e970f5aca" target="_top" xlink:title=" ">
<polygon fill="white" stroke="black" points="77,-6 77,-25 128,-25 128,-6 77,-6"/>
<text text-anchor="middle" x="102.5" y="-13" font-family="Helvetica,sans-Serif" font-size="10.00">AppInit</text>
</a>
</g>
</g>
<!-- Node2&#45;&gt;Node3 -->
<g id="edge2" class="edge">
<title>Node2&#45;&gt;Node3</title>
<path fill="none" stroke="midnightblue" d="M153.61,-15.5C144.82,-15.5 135.95,-15.5 128.18,-15.5"/>
<polygon fill="midnightblue" stroke="midnightblue" points="153.83,-19 163.83,-15.5 153.83,-12 153.83,-19"/>
</g>
<!-- Node4 -->
<g id="node4" class="node">
<title>Node4</title>
<g id="a_node4"><a xlink:href="bitcoind_8cpp.html#a0ddf1224851353fc92bfbff6f499fa97" target="_top" xlink:title=" ">
<polygon fill="white" stroke="black" points="0,-6 0,-25 41,-25 41,-6 0,-6"/>
<text text-anchor="middle" x="20.5" y="-13" font-family="Helvetica,sans-Serif" font-size="10.00">main</text>
</a>
</g>
</g>
<!-- Node3&#45;&gt;Node4 -->
<g id="edge3" class="edge">
<title>Node3&#45;&gt;Node4</title>
<path fill="none" stroke="midnightblue" d="M66.59,-15.5C57.83,-15.5 48.73,-15.5 41.02,-15.5"/>
<polygon fill="midnightblue" stroke="midnightblue" points="66.63,-19 76.63,-15.5 66.63,-12 66.63,-19"/>
</g>
</g>
</svg>
