<?xml version="1.0" encoding="UTF-8" standalone="no"?>
<!DOCTYPE svg PUBLIC "-//W3C//DTD SVG 1.1//EN"
 "http://www.w3.org/Graphics/SVG/1.1/DTD/svg11.dtd">
<!-- Generated by graphviz version 2.38.0 (20140413.2041)
 -->
<!-- Title: CBasicKeyStore::GetKey Pages: 1 -->
<svg width="896pt" height="382pt"
 viewBox="0.00 0.00 896.00 381.50" xmlns="http://www.w3.org/2000/svg" xmlns:xlink="http://www.w3.org/1999/xlink">
<g id="graph0" class="graph" transform="scale(1 1) rotate(0) translate(4 377.5)">
<title>CBasicKeyStore::GetKey</title>
<polygon fill="white" stroke="none" points="-4,4 -4,-377.5 892,-377.5 892,4 -4,4"/>
<!-- Node1 -->
<g id="node1" class="node"><title>Node1</title>
<polygon fill="#bfbfbf" stroke="black" points="0,-227.5 0,-246.5 131,-246.5 131,-227.5 0,-227.5"/>
<text text-anchor="middle" x="65.5" y="-234.5" font-family="Helvetica,sans-Serif" font-size="10.00">CBasicKeyStore::GetKey</text>
</g>
<!-- Node2 -->
<g id="node2" class="node"><title>Node2</title>
<g id="a_node2"><a xlink:href="class_c_basic_key_store.html#a9c437c32a05f9977bc5fabe6a976a4bc" target="_top" xlink:title="CBasicKeyStore::GetPubKey">
<polygon fill="white" stroke="black" points="167,-275.5 167,-294.5 316,-294.5 316,-275.5 167,-275.5"/>
<text text-anchor="middle" x="241.5" y="-282.5" font-family="Helvetica,sans-Serif" font-size="10.00">CBasicKeyStore::GetPubKey</text>
</a>
</g>
</g>
<!-- Node1&#45;&gt;Node2 -->
<g id="edge1" class="edge"><title>Node1&#45;&gt;Node2</title>
<path fill="none" stroke="midnightblue" d="M111.313,-249.362C140.729,-257.477 178.636,-267.934 205.767,-275.418"/>
<polygon fill="midnightblue" stroke="midnightblue" points="111.864,-245.884 101.293,-246.598 110.002,-252.631 111.864,-245.884"/>
</g>
<!-- Node6 -->
<g id="node6" class="node"><title>Node6</title>
<g id="a_node6"><a xlink:href="class_c_crypto_key_store.html#a01b3cbe18b296f2c51e6fe4137f24c4b" target="_top" xlink:title="CCryptoKeyStore::GetKey">
<polygon fill="white" stroke="black" points="173,-180.5 173,-199.5 310,-199.5 310,-180.5 173,-180.5"/>
<text text-anchor="middle" x="241.5" y="-187.5" font-family="Helvetica,sans-Serif" font-size="10.00">CCryptoKeyStore::GetKey</text>
</a>
</g>
</g>
<!-- Node1&#45;&gt;Node6 -->
<g id="edge5" class="edge"><title>Node1&#45;&gt;Node6</title>
<path fill="none" stroke="midnightblue" d="M111.635,-224.808C140.744,-216.945 178.064,-206.865 205.043,-199.578"/>
<polygon fill="midnightblue" stroke="midnightblue" points="110.453,-221.502 101.711,-227.489 112.278,-228.26 110.453,-221.502"/>
</g>
<!-- Node3 -->
<g id="node3" class="node"><title>Node3</title>
<g id="a_node3"><a xlink:href="class_c_crypto_key_store.html#af57d6ee7c31e1d9673e811a32aaa5ebc" target="_top" xlink:title="CCryptoKeyStore::GetPubKey">
<polygon fill="white" stroke="black" points="352,-304.5 352,-323.5 507,-323.5 507,-304.5 352,-304.5"/>
<text text-anchor="middle" x="429.5" y="-311.5" font-family="Helvetica,sans-Serif" font-size="10.00">CCryptoKeyStore::GetPubKey</text>
</a>
</g>
</g>
<!-- Node2&#45;&gt;Node3 -->
<g id="edge2" class="edge"><title>Node2&#45;&gt;Node3</title>
<path fill="none" stroke="midnightblue" d="M313.887,-296.13C331.504,-298.877 350.217,-301.795 367.302,-304.458"/>
<polygon fill="midnightblue" stroke="midnightblue" points="314.081,-292.618 303.661,-294.536 313.002,-299.535 314.081,-292.618"/>
</g>
<!-- Node4 -->
<g id="node4" class="node"><title>Node4</title>
<g id="a_node4"><a xlink:href="class_describe_wallet_address_visitor.html#a4b1ab9a6f862a62eacc004633180dab4" target="_top" xlink:title="DescribeWalletAddressVisitor\l::operator()">
<polygon fill="white" stroke="black" points="543,-343 543,-373 698,-373 698,-343 543,-343"/>
<text text-anchor="start" x="551" y="-361" font-family="Helvetica,sans-Serif" font-size="10.00">DescribeWalletAddressVisitor</text>
<text text-anchor="middle" x="620.5" y="-350" font-family="Helvetica,sans-Serif" font-size="10.00">::operator()</text>
</a>
</g>
</g>
<!-- Node3&#45;&gt;Node4 -->
<g id="edge3" class="edge"><title>Node3&#45;&gt;Node4</title>
<path fill="none" stroke="midnightblue" d="M481.547,-325.884C504.094,-331.133 530.86,-337.364 554.787,-342.935"/>
<polygon fill="midnightblue" stroke="midnightblue" points="482.043,-322.406 471.51,-323.547 480.456,-329.224 482.043,-322.406"/>
</g>
<!-- Node5 -->
<g id="node5" class="node"><title>Node5</title>
<g id="a_node5"><a xlink:href="rpcwallet_8cpp.html#a614a0b6d4fe51abf85bdb57475cb9d48" target="_top" xlink:title="AddKeypathToMap">
<polygon fill="white" stroke="black" points="568.5,-304.5 568.5,-323.5 672.5,-323.5 672.5,-304.5 568.5,-304.5"/>
<text text-anchor="middle" x="620.5" y="-311.5" font-family="Helvetica,sans-Serif" font-size="10.00">AddKeypathToMap</text>
</a>
</g>
</g>
<!-- Node3&#45;&gt;Node5 -->
<g id="edge4" class="edge"><title>Node3&#45;&gt;Node5</title>
<path fill="none" stroke="midnightblue" d="M517.301,-314C534.724,-314 552.498,-314 568.234,-314"/>
<polygon fill="midnightblue" stroke="midnightblue" points="517.101,-310.5 507.101,-314 517.101,-317.5 517.101,-310.5"/>
</g>
<!-- Node7 -->
<g id="node7" class="node"><title>Node7</title>
<g id="a_node7"><a xlink:href="rpcwallet_8cpp.html#ab3f51d8e8fe414dbf91c37485e481ae3" target="_top" xlink:title="dumpprivkey">
<polygon fill="white" stroke="black" points="581.5,-0.5 581.5,-19.5 659.5,-19.5 659.5,-0.5 581.5,-0.5"/>
<text text-anchor="middle" x="620.5" y="-7.5" font-family="Helvetica,sans-Serif" font-size="10.00">dumpprivkey</text>
</a>
</g>
</g>
<!-- Node6&#45;&gt;Node7 -->
<g id="edge6" class="edge"><title>Node6&#45;&gt;Node7</title>
<path fill="none" stroke="midnightblue" d="M265.827,-174.877C315.122,-143.521 434.297,-70.8681 543,-29 555.132,-24.3273 568.794,-20.5062 581.181,-17.548"/>
<polygon fill="midnightblue" stroke="midnightblue" points="263.725,-172.067 257.189,-180.405 267.498,-177.963 263.725,-172.067"/>
</g>
<!-- Node9 -->
<g id="node9" class="node"><title>Node9</title>
<g id="a_node9"><a xlink:href="wallet__tests_8cpp.html#a73ce3a42e0b56b2e4516e55871d8590e" target="_top" xlink:title="dumpwallet">
<polygon fill="white" stroke="black" points="585,-266.5 585,-285.5 656,-285.5 656,-266.5 585,-266.5"/>
<text text-anchor="middle" x="620.5" y="-273.5" font-family="Helvetica,sans-Serif" font-size="10.00">dumpwallet</text>
</a>
</g>
</g>
<!-- Node6&#45;&gt;Node9 -->
<g id="edge8" class="edge"><title>Node6&#45;&gt;Node9</title>
<path fill="none" stroke="midnightblue" d="M294.384,-201.836C372.489,-219.653 518.199,-252.891 584.743,-268.071"/>
<polygon fill="midnightblue" stroke="midnightblue" points="294.814,-198.344 284.286,-199.532 293.257,-205.169 294.814,-198.344"/>
</g>
<!-- Node11 -->
<g id="node11" class="node"><title>Node11</title>
<g id="a_node11"><a xlink:href="rpcwallet_8h.html#aae9bc665151c5bab626a7ffcaeed9c0d" target="_top" xlink:title="EnsureWalletIsUnlocked">
<polygon fill="white" stroke="black" points="365,-152.5 365,-171.5 494,-171.5 494,-152.5 365,-152.5"/>
<text text-anchor="middle" x="429.5" y="-159.5" font-family="Helvetica,sans-Serif" font-size="10.00">EnsureWalletIsUnlocked</text>
</a>
</g>
</g>
<!-- Node6&#45;&gt;Node11 -->
<g id="edge10" class="edge"><title>Node6&#45;&gt;Node11</title>
<path fill="none" stroke="midnightblue" d="M315.762,-178.971C332.08,-176.515 349.248,-173.93 365.128,-171.54"/>
<polygon fill="midnightblue" stroke="midnightblue" points="315.098,-175.532 305.731,-180.481 316.14,-182.454 315.098,-175.532"/>
</g>
<!-- Node8 -->
<g id="node8" class="node"><title>Node8</title>
<g id="a_node8"><a xlink:href="rpcwallet_8cpp.html#afca55ac7a3c6c274b8b7b3e6eab9cd86" target="_top" xlink:title="walletcreatefundedpsbt">
<polygon fill="white" stroke="black" points="747,-76.5 747,-95.5 875,-95.5 875,-76.5 747,-76.5"/>
<text text-anchor="middle" x="811" y="-83.5" font-family="Helvetica,sans-Serif" font-size="10.00">walletcreatefundedpsbt</text>
</a>
</g>
</g>
<!-- Node7&#45;&gt;Node8 -->
<g id="edge7" class="edge"><title>Node7&#45;&gt;Node8</title>
<path fill="none" stroke="midnightblue" d="M669.549,-20.1577C679.096,-22.6709 688.96,-25.6271 698,-29 733.568,-42.2703 772.527,-63.8339 793.836,-76.2865"/>
<polygon fill="midnightblue" stroke="midnightblue" points="670.313,-16.7409 659.761,-17.7001 668.608,-23.5302 670.313,-16.7409"/>
</g>
<!-- Node10 -->
<g id="node10" class="node"><title>Node10</title>
<g id="a_node10"><a xlink:href="wallet__tests_8cpp.html#a2a726fa52b0a343883cb50a3f68d0989" target="_top" xlink:title="BOOST_FIXTURE_TEST_CASE">
<polygon fill="white" stroke="black" points="734,-247.5 734,-266.5 888,-266.5 888,-247.5 734,-247.5"/>
<text text-anchor="middle" x="811" y="-254.5" font-family="Helvetica,sans-Serif" font-size="10.00">BOOST_FIXTURE_TEST_CASE</text>
</a>
</g>
</g>
<!-- Node9&#45;&gt;Node10 -->
<g id="edge9" class="edge"><title>Node9&#45;&gt;Node10</title>
<path fill="none" stroke="midnightblue" d="M666.224,-271.492C686.432,-269.455 710.882,-266.991 733.843,-264.676"/>
<polygon fill="midnightblue" stroke="midnightblue" points="665.672,-268.03 656.074,-272.515 666.374,-274.994 665.672,-268.03"/>
</g>
<!-- Node11&#45;&gt;Node7 -->
<g id="edge15" class="edge"><title>Node11&#45;&gt;Node7</title>
<path fill="none" stroke="midnightblue" d="M447.576,-145.431C463.621,-129.521 487.949,-104.502 507,-81 524.701,-59.1641 519.87,-44.9723 543,-29 554.261,-21.224 568.397,-16.6238 581.444,-13.9049"/>
<polygon fill="midnightblue" stroke="midnightblue" points="445.101,-142.957 440.424,-152.464 450.008,-147.948 445.101,-142.957"/>
</g>
<!-- Node11&#45;&gt;Node9 -->
<g id="edge16" class="edge"><title>Node11&#45;&gt;Node9</title>
<path fill="none" stroke="midnightblue" d="M448.006,-178.509C474.08,-202.79 522.267,-246.407 543,-257 555.917,-263.6 571.253,-267.992 584.79,-270.873"/>
<polygon fill="midnightblue" stroke="midnightblue" points="450.372,-175.93 440.679,-171.652 445.589,-181.041 450.372,-175.93"/>
</g>
<!-- Node11&#45;&gt;Node11 -->
<g id="edge19" class="edge"><title>Node11&#45;&gt;Node11</title>
<path fill="none" stroke="midnightblue" d="M394.268,-179.891C394.784,-185.541 406.528,-190 429.5,-190 462.914,-190 472.573,-180.565 458.476,-171.757"/>
<polygon fill="midnightblue" stroke="midnightblue" points="397.202,-181.818 400.524,-171.757 391.653,-177.55 397.202,-181.818"/>
</g>
<!-- Node12 -->
<g id="node12" class="node"><title>Node12</title>
<g id="a_node12"><a xlink:href="rpcwallet_8cpp.html#a2f46e2bb304dda9a197b5a68db6106f7" target="_top" xlink:title="importprivkey">
<polygon fill="white" stroke="black" points="579.5,-76.5 579.5,-95.5 661.5,-95.5 661.5,-76.5 579.5,-76.5"/>
<text text-anchor="middle" x="620.5" y="-83.5" font-family="Helvetica,sans-Serif" font-size="10.00">importprivkey</text>
</a>
</g>
</g>
<!-- Node11&#45;&gt;Node12 -->
<g id="edge11" class="edge"><title>Node11&#45;&gt;Node12</title>
<path fill="none" stroke="midnightblue" d="M455.562,-147.23C477.885,-134.583 511.757,-116.625 543,-105 554.543,-100.705 567.425,-97.0817 579.278,-94.1885"/>
<polygon fill="midnightblue" stroke="midnightblue" points="453.674,-144.278 446.743,-152.291 457.158,-150.349 453.674,-144.278"/>
</g>
<!-- Node13 -->
<g id="node13" class="node"><title>Node13</title>
<g id="a_node13"><a xlink:href="wallet__tests_8cpp.html#a8c64ef6e0ced69002923098229448758" target="_top" xlink:title="importwallet">
<polygon fill="white" stroke="black" points="583,-228.5 583,-247.5 658,-247.5 658,-228.5 583,-228.5"/>
<text text-anchor="middle" x="620.5" y="-235.5" font-family="Helvetica,sans-Serif" font-size="10.00">importwallet</text>
</a>
</g>
</g>
<!-- Node11&#45;&gt;Node13 -->
<g id="edge13" class="edge"><title>Node11&#45;&gt;Node13</title>
<path fill="none" stroke="midnightblue" d="M455.562,-176.77C477.885,-189.417 511.757,-207.375 543,-219 555.697,-223.724 570.015,-227.636 582.8,-230.657"/>
<polygon fill="midnightblue" stroke="midnightblue" points="457.158,-173.651 446.743,-171.709 453.674,-179.722 457.158,-173.651"/>
</g>
<!-- Node14 -->
<g id="node14" class="node"><title>Node14</title>
<g id="a_node14"><a xlink:href="wallet__tests_8cpp.html#af0e3c9469f1d8f368d3d5f38e5580367" target="_top" xlink:title="importmulti">
<polygon fill="white" stroke="black" points="584.5,-190.5 584.5,-209.5 656.5,-209.5 656.5,-190.5 584.5,-190.5"/>
<text text-anchor="middle" x="620.5" y="-197.5" font-family="Helvetica,sans-Serif" font-size="10.00">importmulti</text>
</a>
</g>
</g>
<!-- Node11&#45;&gt;Node14 -->
<g id="edge17" class="edge"><title>Node11&#45;&gt;Node14</title>
<path fill="none" stroke="midnightblue" d="M488.138,-173.589C519.534,-179.901 557.367,-187.508 584.352,-192.933"/>
<polygon fill="midnightblue" stroke="midnightblue" points="488.686,-170.129 478.193,-171.589 487.307,-176.992 488.686,-170.129"/>
</g>
<!-- Node16 -->
<g id="node16" class="node"><title>Node16</title>
<g id="a_node16"><a xlink:href="rpcwallet_8cpp.html#a74b85c92ee6a84277c73b74f2e212bff" target="_top" xlink:title="listtransactions">
<polygon fill="white" stroke="black" points="576,-38.5 576,-57.5 665,-57.5 665,-38.5 576,-38.5"/>
<text text-anchor="middle" x="620.5" y="-45.5" font-family="Helvetica,sans-Serif" font-size="10.00">listtransactions</text>
</a>
</g>
</g>
<!-- Node11&#45;&gt;Node16 -->
<g id="edge20" class="edge"><title>Node11&#45;&gt;Node16</title>
<path fill="none" stroke="midnightblue" d="M445.921,-144.829C466.126,-123.394 503.638,-87.111 543,-67 553.115,-61.8322 564.712,-58.0181 575.768,-55.2232"/>
<polygon fill="midnightblue" stroke="midnightblue" points="443.277,-142.534 439.057,-152.252 448.416,-147.286 443.277,-142.534"/>
</g>
<!-- Node17 -->
<g id="node17" class="node"><title>Node17</title>
<g id="a_node17"><a xlink:href="rpcwallet_8h.html#a7c13054932c9e3b351bd6277fa9361d7" target="_top" xlink:title="signrawtransactionwithwallet">
<polygon fill="white" stroke="black" points="544.5,-152.5 544.5,-171.5 696.5,-171.5 696.5,-152.5 544.5,-152.5"/>
<text text-anchor="middle" x="620.5" y="-159.5" font-family="Helvetica,sans-Serif" font-size="10.00">signrawtransactionwithwallet</text>
</a>
</g>
</g>
<!-- Node11&#45;&gt;Node17 -->
<g id="edge22" class="edge"><title>Node11&#45;&gt;Node17</title>
<path fill="none" stroke="midnightblue" d="M504.553,-162C517.606,-162 531.204,-162 544.288,-162"/>
<polygon fill="midnightblue" stroke="midnightblue" points="504.223,-158.5 494.223,-162 504.223,-165.5 504.223,-158.5"/>
</g>
<!-- Node18 -->
<g id="node18" class="node"><title>Node18</title>
<g id="a_node18"><a xlink:href="rpcwallet_8cpp.html#a61c7a90d1b36888fe11b751e746e18c0" target="_top" xlink:title="sethdseed">
<polygon fill="white" stroke="black" points="587,-114.5 587,-133.5 654,-133.5 654,-114.5 587,-114.5"/>
<text text-anchor="middle" x="620.5" y="-121.5" font-family="Helvetica,sans-Serif" font-size="10.00">sethdseed</text>
</a>
</g>
</g>
<!-- Node11&#45;&gt;Node18 -->
<g id="edge24" class="edge"><title>Node11&#45;&gt;Node18</title>
<path fill="none" stroke="midnightblue" d="M488.022,-150.435C520.477,-143.909 559.841,-135.995 586.99,-130.536"/>
<polygon fill="midnightblue" stroke="midnightblue" points="487.307,-147.008 478.193,-152.411 488.686,-153.871 487.307,-147.008"/>
</g>
<!-- Node12&#45;&gt;Node8 -->
<g id="edge12" class="edge"><title>Node12&#45;&gt;Node8</title>
<path fill="none" stroke="midnightblue" d="M672.13,-86C695.046,-86 722.377,-86 746.638,-86"/>
<polygon fill="midnightblue" stroke="midnightblue" points="671.938,-82.5001 661.938,-86 671.938,-89.5001 671.938,-82.5001"/>
</g>
<!-- Node13&#45;&gt;Node10 -->
<g id="edge14" class="edge"><title>Node13&#45;&gt;Node10</title>
<path fill="none" stroke="midnightblue" d="M668.283,-242.715C688.1,-244.713 711.707,-247.092 733.915,-249.331"/>
<polygon fill="midnightblue" stroke="midnightblue" points="668.593,-239.229 658.292,-241.708 667.891,-246.194 668.593,-239.229"/>
</g>
<!-- Node15 -->
<g id="node15" class="node"><title>Node15</title>
<g id="a_node15"><a xlink:href="wallet__tests_8cpp.html#a102aa881fd1aa3b1be48920b5b27dcc3" target="_top" xlink:title="BOOST_FIXTURE_TEST_CASE">
<polygon fill="white" stroke="black" points="734,-190.5 734,-209.5 888,-209.5 888,-190.5 734,-190.5"/>
<text text-anchor="middle" x="811" y="-197.5" font-family="Helvetica,sans-Serif" font-size="10.00">BOOST_FIXTURE_TEST_CASE</text>
</a>
</g>
</g>
<!-- Node14&#45;&gt;Node15 -->
<g id="edge18" class="edge"><title>Node14&#45;&gt;Node15</title>
<path fill="none" stroke="midnightblue" d="M666.623,-200C686.733,-200 710.985,-200 733.776,-200"/>
<polygon fill="midnightblue" stroke="midnightblue" points="666.514,-196.5 656.514,-200 666.514,-203.5 666.514,-196.5"/>
</g>
<!-- Node16&#45;&gt;Node8 -->
<g id="edge21" class="edge"><title>Node16&#45;&gt;Node8</title>
<path fill="none" stroke="midnightblue" d="M675.089,-58.8031C702.645,-64.3581 735.938,-71.0696 762.555,-76.4355"/>
<polygon fill="midnightblue" stroke="midnightblue" points="675.714,-55.3587 665.219,-56.8135 674.331,-62.2207 675.714,-55.3587"/>
</g>
<!-- Node17&#45;&gt;Node8 -->
<g id="edge23" class="edge"><title>Node17&#45;&gt;Node8</title>
<path fill="none" stroke="midnightblue" d="M677.01,-149.801C684.149,-147.77 691.301,-145.499 698,-143 733.568,-129.73 772.527,-108.166 793.836,-95.7135"/>
<polygon fill="midnightblue" stroke="midnightblue" points="676.063,-146.431 667.324,-152.422 677.891,-153.189 676.063,-146.431"/>
</g>
<!-- Node18&#45;&gt;Node8 -->
<g id="edge25" class="edge"><title>Node18&#45;&gt;Node8</title>
<path fill="none" stroke="midnightblue" d="M664.272,-115.378C693.582,-109.469 732.474,-101.629 762.707,-95.5338"/>
<polygon fill="midnightblue" stroke="midnightblue" points="663.445,-111.974 654.334,-117.381 664.829,-118.836 663.445,-111.974"/>
</g>
</g>
</svg>
