<?xml version="1.0" encoding="UTF-8" standalone="no"?>
<!DOCTYPE svg PUBLIC "-//W3C//DTD SVG 1.1//EN"
 "http://www.w3.org/Graphics/SVG/1.1/DTD/svg11.dtd">
<!-- Generated by graphviz version 2.49.3 (0)
 -->
<!-- Title: CCoinsViewMemPool Pages: 1 -->
<svg width="1008pt" height="166pt"
 viewBox="0.00 0.00 1008.00 166.47" xmlns="http://www.w3.org/2000/svg" xmlns:xlink="http://www.w3.org/1999/xlink">
<g id="graph0" class="graph" transform="scale(1 1) rotate(0) translate(4 162.47)">
<title>CCoinsViewMemPool</title>
<polygon fill="white" stroke="transparent" points="-4,4 -4,-162.47 1004,-162.47 1004,4 -4,4"/>
<!-- Node1 -->
<g id="node1" class="node">
<title>Node1</title>
<g id="a_node1"><a xlink:title="CCoinsView that brings transactions from a mempool into view.">
<polygon fill="#bfbfbf" stroke="black" points="880,-14.47 880,-33.47 1000,-33.47 1000,-14.47 880,-14.47"/>
<text text-anchor="middle" x="940" y="-21.47" font-family="Helvetica,sans-Serif" font-size="10.00">CCoinsViewMemPool</text>
</a>
</g>
</g>
<!-- Node2 -->
<g id="node2" class="node">
<title>Node2</title>
<g id="a_node2"><a xlink:href="class_c_coins_view_backed.html" target="_top" xlink:title="CCoinsView backed by another CCoinsView.">
<polygon fill="white" stroke="black" points="187,-5.47 187,-24.47 297,-24.47 297,-5.47 187,-5.47"/>
<text text-anchor="middle" x="242" y="-12.47" font-family="Helvetica,sans-Serif" font-size="10.00">CCoinsViewBacked</text>
</a>
</g>
</g>
<!-- Node2&#45;&gt;Node1 -->
<g id="edge1" class="edge">
<title>Node2&#45;&gt;Node1</title>
<path fill="none" stroke="midnightblue" d="M307.16,-15.8C441.3,-17.54 749.74,-21.52 879.62,-23.2"/>
<polygon fill="midnightblue" stroke="midnightblue" points="307.08,-12.3 297.03,-15.67 306.99,-19.3 307.08,-12.3"/>
</g>
<!-- Node8 -->
<g id="node8" class="node">
<title>Node8</title>
<g id="a_node8"><a xlink:href="class_c_coins_view_cache.html" target="_top" xlink:title="CCoinsView that adds a memory cache for transactions to another CCoinsView.">
<polygon fill="white" stroke="black" points="452.5,-42.47 452.5,-61.47 556.5,-61.47 556.5,-42.47 452.5,-42.47"/>
<text text-anchor="middle" x="504.5" y="-49.47" font-family="Helvetica,sans-Serif" font-size="10.00">CCoinsViewCache</text>
</a>
</g>
</g>
<!-- Node2&#45;&gt;Node8 -->
<g id="edge10" class="edge">
<title>Node2&#45;&gt;Node8</title>
<path fill="none" stroke="midnightblue" d="M307.47,-24.13C352.17,-30.48 410.9,-38.82 452.38,-44.71"/>
<polygon fill="midnightblue" stroke="midnightblue" points="307.69,-20.62 297.29,-22.68 306.7,-27.55 307.69,-20.62"/>
</g>
<!-- Node3 -->
<g id="node3" class="node">
<title>Node3</title>
<g id="a_node3"><a xlink:href="class_c_coins_view.html" target="_top" xlink:title="Abstract view on the open txout dataset.">
<polygon fill="white" stroke="black" points="22.5,-5.47 22.5,-24.47 96.5,-24.47 96.5,-5.47 22.5,-5.47"/>
<text text-anchor="middle" x="59.5" y="-12.47" font-family="Helvetica,sans-Serif" font-size="10.00">CCoinsView</text>
</a>
</g>
</g>
<!-- Node3&#45;&gt;Node2 -->
<g id="edge2" class="edge">
<title>Node3&#45;&gt;Node2</title>
<path fill="none" stroke="midnightblue" d="M106.69,-14.97C131.12,-14.97 161.27,-14.97 186.81,-14.97"/>
<polygon fill="midnightblue" stroke="midnightblue" points="106.59,-11.47 96.59,-14.97 106.59,-18.47 106.59,-11.47"/>
</g>
<!-- Node3&#45;&gt;Node2 -->
<g id="edge3" class="edge">
<title>Node3&#45;&gt;Node2</title>
<path fill="none" stroke="#9a32cd" stroke-dasharray="5,2" d="M106.64,-5.14C116.61,-3.4 127.12,-1.87 137,-0.97 158.41,0.97 182.18,-1.85 201.58,-5.46"/>
<polygon fill="#9a32cd" stroke="#9a32cd" points="105.71,-1.75 96.51,-7 106.97,-8.63 105.71,-1.75"/>
<text text-anchor="middle" x="150.5" y="-3.97" font-family="Helvetica,sans-Serif" font-size="10.00"> base</text>
</g>
<!-- Node4 -->
<g id="node4" class="node">
<title>Node4</title>
<g id="a_node4"><a xlink:href="class_c_tx_mem_pool.html" target="_top" xlink:title="CTxMemPool stores valid&#45;according&#45;to&#45;the&#45;current&#45;best&#45;chain transactions that may be included in the ...">
<polygon fill="white" stroke="black" points="713,-58.47 713,-77.47 794,-77.47 794,-58.47 713,-58.47"/>
<text text-anchor="middle" x="753.5" y="-65.47" font-family="Helvetica,sans-Serif" font-size="10.00">CTxMemPool</text>
</a>
</g>
</g>
<!-- Node4&#45;&gt;Node1 -->
<g id="edge4" class="edge">
<title>Node4&#45;&gt;Node1</title>
<path fill="none" stroke="#9a32cd" stroke-dasharray="5,2" d="M803.84,-56.2C833.57,-49.12 870.94,-40.2 898.85,-33.55"/>
<polygon fill="#9a32cd" stroke="#9a32cd" points="803,-52.81 794.08,-58.53 804.62,-59.62 803,-52.81"/>
<text text-anchor="middle" x="837" y="-55.97" font-family="Helvetica,sans-Serif" font-size="10.00"> mempool</text>
</g>
<!-- Node5 -->
<g id="node5" class="node">
<title>Node5</title>
<g id="a_node5"><a xlink:href="class_c_block_policy_estimator.html" target="_top" xlink:title="The BlockPolicyEstimator is used for estimating the feerate needed for a transaction to be included i...">
<polygon fill="white" stroke="black" points="441,-87.47 441,-106.47 568,-106.47 568,-87.47 441,-87.47"/>
<text text-anchor="middle" x="504.5" y="-94.47" font-family="Helvetica,sans-Serif" font-size="10.00">CBlockPolicyEstimator</text>
</a>
</g>
</g>
<!-- Node5&#45;&gt;Node4 -->
<g id="edge5" class="edge">
<title>Node5&#45;&gt;Node4</title>
<path fill="none" stroke="#9a32cd" stroke-dasharray="5,2" d="M578.44,-88.6C613.66,-84.53 656.54,-79.55 695,-74.97 700.79,-74.28 706.91,-73.55 712.91,-72.82"/>
<polygon fill="#9a32cd" stroke="#9a32cd" points="577.78,-85.15 568.25,-89.78 578.58,-92.11 577.78,-85.15"/>
<text text-anchor="middle" x="640.5" y="-89.97" font-family="Helvetica,sans-Serif" font-size="10.00"> minerPolicyEstimator</text>
</g>
<!-- Node6 -->
<g id="node6" class="node">
<title>Node6</title>
<g id="a_node6"><a xlink:href="class_annotated_mixin.html" target="_top" xlink:title=" ">
<polygon fill="white" stroke="black" points="182,-127.97 182,-157.97 302,-157.97 302,-127.97 182,-127.97"/>
<text text-anchor="start" x="190" y="-145.97" font-family="Helvetica,sans-Serif" font-size="10.00">AnnotatedMixin&lt; std</text>
<text text-anchor="middle" x="242" y="-134.97" font-family="Helvetica,sans-Serif" font-size="10.00">::recursive_mutex &gt;</text>
</a>
</g>
</g>
<!-- Node6&#45;&gt;Node4 -->
<g id="edge8" class="edge">
<title>Node6&#45;&gt;Node4</title>
<path fill="none" stroke="#9a32cd" stroke-dasharray="5,2" d="M312.32,-146.4C402.79,-148.7 564.91,-145.36 695,-101.97 711.72,-96.39 728.86,-85.45 740.02,-77.49"/>
<polygon fill="#9a32cd" stroke="#9a32cd" points="312.28,-142.89 302.18,-146.11 312.08,-149.89 312.28,-142.89"/>
<text text-anchor="middle" x="504.5" y="-146.97" font-family="Helvetica,sans-Serif" font-size="10.00"> cs</text>
</g>
<!-- Node6&#45;&gt;Node5 -->
<g id="edge6" class="edge">
<title>Node6&#45;&gt;Node5</title>
<path fill="none" stroke="#9a32cd" stroke-dasharray="5,2" d="M293.77,-124.91C302.44,-122.28 311.42,-119.84 320,-117.97 359.79,-109.33 405.27,-104.09 440.99,-101.01"/>
<polygon fill="#9a32cd" stroke="#9a32cd" points="292.63,-121.6 284.14,-127.93 294.73,-128.27 292.63,-121.6"/>
<text text-anchor="middle" x="371.5" y="-120.97" font-family="Helvetica,sans-Serif" font-size="10.00"> m_cs_fee_estimator</text>
</g>
<!-- Node7 -->
<g id="node7" class="node">
<title>Node7</title>
<g id="a_node7"><a xlink:title=" ">
<polygon fill="white" stroke="#bfbfbf" points="0,-133.47 0,-152.47 119,-152.47 119,-133.47 0,-133.47"/>
<text text-anchor="middle" x="59.5" y="-140.47" font-family="Helvetica,sans-Serif" font-size="10.00">std::recursive_mutex</text>
</a>
</g>
</g>
<!-- Node7&#45;&gt;Node6 -->
<g id="edge7" class="edge">
<title>Node7&#45;&gt;Node6</title>
<path fill="none" stroke="midnightblue" d="M129.16,-142.97C146.48,-142.97 164.94,-142.97 181.76,-142.97"/>
<polygon fill="midnightblue" stroke="midnightblue" points="129.1,-139.47 119.1,-142.97 129.1,-146.47 129.1,-139.47"/>
</g>
<!-- Node8&#45;&gt;Node4 -->
<g id="edge9" class="edge">
<title>Node8&#45;&gt;Node4</title>
<path fill="none" stroke="#9a32cd" stroke-dasharray="5,2" d="M566.99,-48.43C604.2,-47.25 652.51,-47.41 695,-52.97 703.8,-54.12 713.17,-56.19 721.75,-58.44"/>
<polygon fill="#9a32cd" stroke="#9a32cd" points="566.67,-44.94 556.81,-48.8 566.93,-51.93 566.67,-44.94"/>
<text text-anchor="middle" x="640.5" y="-66.97" font-family="Helvetica,sans-Serif" font-size="10.00"> addUnchecked</text>
<text text-anchor="middle" x="640.5" y="-55.97" font-family="Helvetica,sans-Serif" font-size="10.00">cs_main</text>
</g>
<!-- Node9 -->
<g id="node9" class="node">
<title>Node9</title>
<g id="a_node9"><a xlink:href="classuint256.html" target="_top" xlink:title="256&#45;bit opaque blob.">
<polygon fill="white" stroke="black" points="215.5,-49.47 215.5,-68.47 268.5,-68.47 268.5,-49.47 215.5,-49.47"/>
<text text-anchor="middle" x="242" y="-56.47" font-family="Helvetica,sans-Serif" font-size="10.00">uint256</text>
</a>
</g>
</g>
<!-- Node9&#45;&gt;Node8 -->
<g id="edge11" class="edge">
<title>Node9&#45;&gt;Node8</title>
<path fill="none" stroke="#9a32cd" stroke-dasharray="5,2" d="M279.09,-58C324.06,-56.79 401.18,-54.72 452.25,-53.35"/>
<polygon fill="#9a32cd" stroke="#9a32cd" points="278.83,-54.51 268.93,-58.27 279.02,-61.5 278.83,-54.51"/>
<text text-anchor="middle" x="371.5" y="-58.97" font-family="Helvetica,sans-Serif" font-size="10.00"> hashBlock</text>
</g>
<!-- Node9&#45;&gt;Node9 -->
<g id="edge13" class="edge">
<title>Node9&#45;&gt;Node9</title>
<path fill="none" stroke="#9a32cd" stroke-dasharray="5,2" d="M225.33,-78.37C226.45,-83.29 232,-86.97 242,-86.97 258,-86.97 262.62,-77.54 255.87,-68.73"/>
<polygon fill="#9a32cd" stroke="#9a32cd" points="228.71,-79.31 228.13,-68.73 221.98,-77.36 228.71,-79.31"/>
<text text-anchor="middle" x="242" y="-100.97" font-family="Helvetica,sans-Serif" font-size="10.00"> ONE</text>
<text text-anchor="middle" x="242" y="-89.97" font-family="Helvetica,sans-Serif" font-size="10.00">ZERO</text>
</g>
<!-- Node10 -->
<g id="node10" class="node">
<title>Node10</title>
<g id="a_node10"><a xlink:href="classbase__blob.html" target="_top" xlink:title=" ">
<polygon fill="white" stroke="black" points="6,-49.47 6,-68.47 113,-68.47 113,-49.47 6,-49.47"/>
<text text-anchor="middle" x="59.5" y="-56.47" font-family="Helvetica,sans-Serif" font-size="10.00">base_blob&lt; 256 &gt;</text>
</a>
</g>
</g>
<!-- Node10&#45;&gt;Node9 -->
<g id="edge12" class="edge">
<title>Node10&#45;&gt;Node9</title>
<path fill="none" stroke="midnightblue" d="M123.23,-58.97C154.74,-58.97 191.2,-58.97 215.1,-58.97"/>
<polygon fill="midnightblue" stroke="midnightblue" points="123.19,-55.47 113.19,-58.97 123.19,-62.47 123.19,-55.47"/>
</g>
</g>
</svg>
