<?xml version="1.0" encoding="UTF-8" standalone="no"?>
<!DOCTYPE svg PUBLIC "-//W3C//DTD SVG 1.1//EN"
 "http://www.w3.org/Graphics/SVG/1.1/DTD/svg11.dtd">
<!-- Generated by graphviz version 2.38.0 (20140413.2041)
 -->
<!-- Title: CCoinsViewDB::GetBestBlock Pages: 1 -->
<svg width="467pt" height="192pt"
 viewBox="0.00 0.00 467.00 192.00" xmlns="http://www.w3.org/2000/svg" xmlns:xlink="http://www.w3.org/1999/xlink">
<g id="graph0" class="graph" transform="scale(1 1) rotate(0) translate(4 188)">
<title>CCoinsViewDB::GetBestBlock</title>
<polygon fill="white" stroke="none" points="-4,4 -4,-188 463,-188 463,4 -4,4"/>
<!-- Node1 -->
<g id="node1" class="node"><title>Node1</title>
<polygon fill="#bfbfbf" stroke="black" points="0,-88.5 0,-107.5 156,-107.5 156,-88.5 0,-88.5"/>
<text text-anchor="middle" x="78" y="-95.5" font-family="Helvetica,sans-Serif" font-size="10.00">CCoinsViewDB::GetBestBlock</text>
</g>
<!-- Node2 -->
<g id="node2" class="node"><title>Node2</title>
<g id="a_node2"><a xlink:href="class_c_d_b_wrapper.html#a839a7dcca6afbf52a30c3efaead7bef0" target="_top" xlink:title="CDBWrapper::Read">
<polygon fill="white" stroke="black" points="192,-88.5 192,-107.5 298,-107.5 298,-88.5 192,-88.5"/>
<text text-anchor="middle" x="245" y="-95.5" font-family="Helvetica,sans-Serif" font-size="10.00">CDBWrapper::Read</text>
</a>
</g>
</g>
<!-- Node1&#45;&gt;Node2 -->
<g id="edge1" class="edge"><title>Node1&#45;&gt;Node2</title>
<path fill="none" stroke="midnightblue" d="M156.186,-98C164.772,-98 173.436,-98 181.803,-98"/>
<polygon fill="midnightblue" stroke="midnightblue" points="181.835,-101.5 191.835,-98 181.835,-94.5001 181.835,-101.5"/>
</g>
<!-- Node3 -->
<g id="node3" class="node"><title>Node3</title>
<g id="a_node3"><a xlink:href="class_c_data_stream.html#a5542e71bd7af2ab7cd7be0f381d39cb5" target="_top" xlink:title="CDataStream::reserve">
<polygon fill="white" stroke="black" points="334,-164.5 334,-183.5 459,-183.5 459,-164.5 334,-164.5"/>
<text text-anchor="middle" x="396.5" y="-171.5" font-family="Helvetica,sans-Serif" font-size="10.00">CDataStream::reserve</text>
</a>
</g>
</g>
<!-- Node2&#45;&gt;Node3 -->
<g id="edge2" class="edge"><title>Node2&#45;&gt;Node3</title>
<path fill="none" stroke="midnightblue" d="M258.47,-107.67C274.964,-120.076 305.307,-141.589 334,-155 338.75,-157.22 343.825,-159.265 348.946,-161.124"/>
<polygon fill="midnightblue" stroke="midnightblue" points="348.184,-164.561 358.778,-164.467 350.437,-157.934 348.184,-164.561"/>
</g>
<!-- Node4 -->
<g id="node4" class="node"><title>Node4</title>
<g id="a_node4"><a xlink:href="class_c_data_stream.html#a1c0a87d9ea725d5d83562dfda15fbeeb" target="_top" xlink:title="CDataStream::data">
<polygon fill="white" stroke="black" points="341.5,-126.5 341.5,-145.5 451.5,-145.5 451.5,-126.5 341.5,-126.5"/>
<text text-anchor="middle" x="396.5" y="-133.5" font-family="Helvetica,sans-Serif" font-size="10.00">CDataStream::data</text>
</a>
</g>
</g>
<!-- Node2&#45;&gt;Node4 -->
<g id="edge3" class="edge"><title>Node2&#45;&gt;Node4</title>
<path fill="none" stroke="midnightblue" d="M283.725,-107.589C303.276,-112.558 327.347,-118.677 348.137,-123.961"/>
<polygon fill="midnightblue" stroke="midnightblue" points="347.492,-127.409 358.046,-126.48 349.217,-120.624 347.492,-127.409"/>
</g>
<!-- Node5 -->
<g id="node5" class="node"><title>Node5</title>
<g id="a_node5"><a xlink:href="class_c_data_stream.html#ac6567f6d600d644d9855b52bb59049cd" target="_top" xlink:title="CDataStream::size">
<polygon fill="white" stroke="black" points="343,-88.5 343,-107.5 450,-107.5 450,-88.5 343,-88.5"/>
<text text-anchor="middle" x="396.5" y="-95.5" font-family="Helvetica,sans-Serif" font-size="10.00">CDataStream::size</text>
</a>
</g>
</g>
<!-- Node2&#45;&gt;Node5 -->
<g id="edge4" class="edge"><title>Node2&#45;&gt;Node5</title>
<path fill="none" stroke="midnightblue" d="M298.288,-98C309.489,-98 321.433,-98 332.976,-98"/>
<polygon fill="midnightblue" stroke="midnightblue" points="332.989,-101.5 342.989,-98 332.989,-94.5001 332.989,-101.5"/>
</g>
<!-- Node6 -->
<g id="node6" class="node"><title>Node6</title>
<g id="a_node6"><a xlink:href="namespacedbwrapper__private.html#a69015f423e1a3c2bcf387e4a208c3c36" target="_top" xlink:title="Handle database error by throwing dbwrapper_error exception. ">
<polygon fill="white" stroke="black" points="341,-39 341,-69 452,-69 452,-39 341,-39"/>
<text text-anchor="start" x="349" y="-57" font-family="Helvetica,sans-Serif" font-size="10.00">dbwrapper_private::</text>
<text text-anchor="middle" x="396.5" y="-46" font-family="Helvetica,sans-Serif" font-size="10.00">HandleError</text>
</a>
</g>
</g>
<!-- Node2&#45;&gt;Node6 -->
<g id="edge5" class="edge"><title>Node2&#45;&gt;Node6</title>
<path fill="none" stroke="midnightblue" d="M278.439,-88.4527C294.896,-83.6094 315.431,-77.5654 334.687,-71.898"/>
<polygon fill="midnightblue" stroke="midnightblue" points="335.707,-75.2464 344.312,-69.0654 333.731,-68.5312 335.707,-75.2464"/>
</g>
<!-- Node7 -->
<g id="node7" class="node"><title>Node7</title>
<g id="a_node7"><a xlink:href="class_c_data_stream.html#a5b631dc9cc9d5ba6a5b6ee910bd7d8a8" target="_top" xlink:title="XOR the contents of this stream with a certain key. ">
<polygon fill="white" stroke="black" points="344.5,-0.5 344.5,-19.5 448.5,-19.5 448.5,-0.5 344.5,-0.5"/>
<text text-anchor="middle" x="396.5" y="-7.5" font-family="Helvetica,sans-Serif" font-size="10.00">CDataStream::Xor</text>
</a>
</g>
</g>
<!-- Node2&#45;&gt;Node7 -->
<g id="edge6" class="edge"><title>Node2&#45;&gt;Node7</title>
<path fill="none" stroke="midnightblue" d="M256.02,-88.3548C271.561,-73.8612 302.932,-46.4183 334,-30 338.901,-27.4099 344.2,-25.0749 349.56,-22.993"/>
<polygon fill="midnightblue" stroke="midnightblue" points="350.981,-26.2014 359.202,-19.5184 348.607,-19.6159 350.981,-26.2014"/>
</g>
</g>
</svg>
