<?xml version="1.0" encoding="UTF-8" standalone="no"?>
<!DOCTYPE svg PUBLIC "-//W3C//DTD SVG 1.1//EN"
 "http://www.w3.org/Graphics/SVG/1.1/DTD/svg11.dtd">
<!-- Generated by graphviz version 2.40.1 (20161225.0304)
 -->
<!-- Title: payments::Output::GetMetadata Pages: 1 -->
<svg width="494pt" height="664pt"
 viewBox="0.00 0.00 494.00 664.00" xmlns="http://www.w3.org/2000/svg" xmlns:xlink="http://www.w3.org/1999/xlink">
<g id="graph0" class="graph" transform="scale(1 1) rotate(0) translate(4 660)">
<title>payments::Output::GetMetadata</title>
<polygon fill="#ffffff" stroke="transparent" points="-4,4 -4,-660 490,-660 490,4 -4,4"/>
<!-- Node243 -->
<g id="node1" class="node">
<title>Node243</title>
<polygon fill="#bfbfbf" stroke="#000000" points="0,-324 0,-343 157,-343 157,-324 0,-324"/>
<text text-anchor="middle" x="78.5" y="-331" font-family="Helvetica,sans-Serif" font-size="10.00" fill="#000000">payments::Output::GetMetadata</text>
</g>
<!-- Node244 -->
<g id="node2" class="node">
<title>Node244</title>
<g id="a_node2"><a xlink:href="classpayments_1_1_output.html#a6ecd7aabf5063f688ae5dfa3493ca076" target="_top" xlink:title="payments::Output::has\l_amount">
<polygon fill="#ffffff" stroke="#000000" points="202.5,-625.5 202.5,-655.5 318.5,-655.5 318.5,-625.5 202.5,-625.5"/>
<text text-anchor="start" x="210.5" y="-643.5" font-family="Helvetica,sans-Serif" font-size="10.00" fill="#000000">payments::Output::has</text>
<text text-anchor="middle" x="260.5" y="-632.5" font-family="Helvetica,sans-Serif" font-size="10.00" fill="#000000">_amount</text>
</a>
</g>
</g>
<!-- Node243&#45;&gt;Node244 -->
<g id="edge1" class="edge">
<title>Node243&#45;&gt;Node244</title>
<path fill="none" stroke="#191970" d="M79.5593,-343.109C84.4333,-382.7476 108.2286,-535.2849 193,-616.5 194.1226,-617.5755 195.2965,-618.6032 196.5141,-619.5852"/>
<polygon fill="#191970" stroke="#191970" points="194.8641,-622.6958 205.1013,-625.4253 198.8006,-616.9075 194.8641,-622.6958"/>
</g>
<!-- Node245 -->
<g id="node3" class="node">
<title>Node245</title>
<g id="a_node3"><a xlink:href="classpayments_1_1_output.html#a3cfc47c091786c25990332153c1d9973" target="_top" xlink:title="payments::Output::set\l_has_amount">
<polygon fill="#ffffff" stroke="#000000" points="368,-444.5 368,-474.5 482,-474.5 482,-444.5 368,-444.5"/>
<text text-anchor="start" x="376" y="-462.5" font-family="Helvetica,sans-Serif" font-size="10.00" fill="#000000">payments::Output::set</text>
<text text-anchor="middle" x="425" y="-451.5" font-family="Helvetica,sans-Serif" font-size="10.00" fill="#000000">_has_amount</text>
</a>
</g>
</g>
<!-- Node243&#45;&gt;Node245 -->
<g id="edge2" class="edge">
<title>Node243&#45;&gt;Node245</title>
<path fill="none" stroke="#191970" d="M91.5452,-343.1775C112.1018,-357.9953 153.7433,-386.2885 193,-402.5 222.4737,-414.6715 300.2427,-432.7861 357.6557,-445.3129"/>
<polygon fill="#191970" stroke="#191970" points="357.2474,-448.8057 367.7622,-447.5064 358.7321,-441.965 357.2474,-448.8057"/>
</g>
<!-- Node246 -->
<g id="node4" class="node">
<title>Node246</title>
<g id="a_node4"><a xlink:href="classpayments_1_1_output.html#a427db310aea71e163138608c389ac18c" target="_top" xlink:title="payments::Output::clear\l_has_amount">
<polygon fill="#ffffff" stroke="#000000" points="364,-554.5 364,-584.5 486,-584.5 486,-554.5 364,-554.5"/>
<text text-anchor="start" x="372" y="-572.5" font-family="Helvetica,sans-Serif" font-size="10.00" fill="#000000">payments::Output::clear</text>
<text text-anchor="middle" x="425" y="-561.5" font-family="Helvetica,sans-Serif" font-size="10.00" fill="#000000">_has_amount</text>
</a>
</g>
</g>
<!-- Node243&#45;&gt;Node246 -->
<g id="edge3" class="edge">
<title>Node243&#45;&gt;Node246</title>
<path fill="none" stroke="#191970" d="M81.0367,-343.1962C90.0381,-375.5288 123.6902,-480.3271 193,-528.5 218.466,-546.1998 295.1692,-557.3168 353.4717,-563.4391"/>
<polygon fill="#191970" stroke="#191970" points="353.4558,-566.9556 363.7593,-564.4882 354.166,-559.9917 353.4558,-566.9556"/>
</g>
<!-- Node247 -->
<g id="node5" class="node">
<title>Node247</title>
<g id="a_node5"><a xlink:href="classpayments_1_1_output.html#acdaadcb1f8b28b30c7a84c477ef44de2" target="_top" xlink:title="payments::Output::clear\l_amount">
<polygon fill="#ffffff" stroke="#000000" points="199.5,-576.5 199.5,-606.5 321.5,-606.5 321.5,-576.5 199.5,-576.5"/>
<text text-anchor="start" x="207.5" y="-594.5" font-family="Helvetica,sans-Serif" font-size="10.00" fill="#000000">payments::Output::clear</text>
<text text-anchor="middle" x="260.5" y="-583.5" font-family="Helvetica,sans-Serif" font-size="10.00" fill="#000000">_amount</text>
</a>
</g>
</g>
<!-- Node243&#45;&gt;Node247 -->
<g id="edge4" class="edge">
<title>Node243&#45;&gt;Node247</title>
<path fill="none" stroke="#191970" d="M80.82,-343.1431C89.5382,-377.4629 123.4496,-495.1557 193,-561.5 196.9437,-565.2619 201.4384,-568.6016 206.1923,-571.5555"/>
<polygon fill="#191970" stroke="#191970" points="204.5305,-574.6363 214.9666,-576.464 207.9481,-568.5272 204.5305,-574.6363"/>
</g>
<!-- Node248 -->
<g id="node6" class="node">
<title>Node248</title>
<g id="a_node6"><a xlink:href="classpayments_1_1_output.html#a387b3bc27c48751ab6b503d7e49850d6" target="_top" xlink:title="payments::Output::amount">
<polygon fill="#ffffff" stroke="#000000" points="194,-450 194,-469 327,-469 327,-450 194,-450"/>
<text text-anchor="middle" x="260.5" y="-457" font-family="Helvetica,sans-Serif" font-size="10.00" fill="#000000">payments::Output::amount</text>
</a>
</g>
</g>
<!-- Node243&#45;&gt;Node248 -->
<g id="edge6" class="edge">
<title>Node243&#45;&gt;Node248</title>
<path fill="none" stroke="#191970" d="M87.0219,-343.301C104.8367,-363.2462 148.1029,-408.9116 193,-435.5 200.1517,-439.7353 208.1694,-443.3949 216.1135,-446.4907"/>
<polygon fill="#191970" stroke="#191970" points="215.1101,-449.8502 225.7041,-449.9881 217.5084,-443.2738 215.1101,-449.8502"/>
</g>
<!-- Node249 -->
<g id="node7" class="node">
<title>Node249</title>
<g id="a_node7"><a xlink:href="classpayments_1_1_output.html#ad00849b23719073439f91973fa7a2146" target="_top" xlink:title="payments::Output::set\l_amount">
<polygon fill="#ffffff" stroke="#000000" points="203.5,-488.5 203.5,-518.5 317.5,-518.5 317.5,-488.5 203.5,-488.5"/>
<text text-anchor="start" x="211.5" y="-506.5" font-family="Helvetica,sans-Serif" font-size="10.00" fill="#000000">payments::Output::set</text>
<text text-anchor="middle" x="260.5" y="-495.5" font-family="Helvetica,sans-Serif" font-size="10.00" fill="#000000">_amount</text>
</a>
</g>
</g>
<!-- Node243&#45;&gt;Node249 -->
<g id="edge7" class="edge">
<title>Node243&#45;&gt;Node249</title>
<path fill="none" stroke="#191970" d="M83.5758,-343.1124C97.5773,-368.7507 139.2926,-439.4603 193,-478.5 195.6282,-480.4104 198.4187,-482.1906 201.3116,-483.8474"/>
<polygon fill="#191970" stroke="#191970" points="199.7457,-486.9778 210.2371,-488.4542 202.9562,-480.7575 199.7457,-486.9778"/>
</g>
<!-- Node250 -->
<g id="node8" class="node">
<title>Node250</title>
<g id="a_node8"><a xlink:href="classpayments_1_1_output.html#ae1eefe17c56da63d934b41396f3879dc" target="_top" xlink:title="payments::Output::has\l_script">
<polygon fill="#ffffff" stroke="#000000" points="202.5,-362.5 202.5,-392.5 318.5,-392.5 318.5,-362.5 202.5,-362.5"/>
<text text-anchor="start" x="210.5" y="-380.5" font-family="Helvetica,sans-Serif" font-size="10.00" fill="#000000">payments::Output::has</text>
<text text-anchor="middle" x="260.5" y="-369.5" font-family="Helvetica,sans-Serif" font-size="10.00" fill="#000000">_script</text>
</a>
</g>
</g>
<!-- Node243&#45;&gt;Node250 -->
<g id="edge9" class="edge">
<title>Node243&#45;&gt;Node250</title>
<path fill="none" stroke="#191970" d="M117.9913,-343.0473C139.7728,-348.3132 167.4249,-354.9983 192.5632,-361.0757"/>
<polygon fill="#191970" stroke="#191970" points="191.879,-364.5111 202.4215,-363.459 193.524,-357.7071 191.879,-364.5111"/>
</g>
<!-- Node251 -->
<g id="node9" class="node">
<title>Node251</title>
<g id="a_node9"><a xlink:href="classpayments_1_1_output.html#af756736c767892da923aa6024478f099" target="_top" xlink:title="payments::Output::set\l_has_script">
<polygon fill="#ffffff" stroke="#000000" points="368,-66.5 368,-96.5 482,-96.5 482,-66.5 368,-66.5"/>
<text text-anchor="start" x="376" y="-84.5" font-family="Helvetica,sans-Serif" font-size="10.00" fill="#000000">payments::Output::set</text>
<text text-anchor="middle" x="425" y="-73.5" font-family="Helvetica,sans-Serif" font-size="10.00" fill="#000000">_has_script</text>
</a>
</g>
</g>
<!-- Node243&#45;&gt;Node251 -->
<g id="edge10" class="edge">
<title>Node243&#45;&gt;Node251</title>
<path fill="none" stroke="#191970" d="M79.2865,-323.7715C83.0484,-284.4731 102.9613,-136.7698 193,-78.5 244.6769,-45.0565 317.3253,-52.6084 367.4949,-64.13"/>
<polygon fill="#191970" stroke="#191970" points="366.6742,-67.5323 377.2163,-66.4762 368.3166,-60.7277 366.6742,-67.5323"/>
</g>
<!-- Node252 -->
<g id="node10" class="node">
<title>Node252</title>
<g id="a_node10"><a xlink:href="classpayments_1_1_output.html#a10cf566dae05f4ce914b516923f726df" target="_top" xlink:title="payments::Output::clear\l_has_script">
<polygon fill="#ffffff" stroke="#000000" points="364,-249.5 364,-279.5 486,-279.5 486,-249.5 364,-249.5"/>
<text text-anchor="start" x="372" y="-267.5" font-family="Helvetica,sans-Serif" font-size="10.00" fill="#000000">payments::Output::clear</text>
<text text-anchor="middle" x="425" y="-256.5" font-family="Helvetica,sans-Serif" font-size="10.00" fill="#000000">_has_script</text>
</a>
</g>
</g>
<!-- Node243&#45;&gt;Node252 -->
<g id="edge11" class="edge">
<title>Node243&#45;&gt;Node252</title>
<path fill="none" stroke="#191970" d="M157.1641,-335.4633C206.9925,-334.7736 272.3047,-330.2729 328,-314.5 351.0796,-307.9638 375.0563,-295.663 393.3975,-284.8982"/>
<polygon fill="#191970" stroke="#191970" points="395.4192,-287.7664 402.1797,-279.6088 391.8076,-281.77 395.4192,-287.7664"/>
</g>
<!-- Node253 -->
<g id="node11" class="node">
<title>Node253</title>
<g id="a_node11"><a xlink:href="classpayments_1_1_output.html#a57c616862b2e1770e88289fc07475feb" target="_top" xlink:title="payments::Output::clear\l_script">
<polygon fill="#ffffff" stroke="#000000" points="199.5,-274.5 199.5,-304.5 321.5,-304.5 321.5,-274.5 199.5,-274.5"/>
<text text-anchor="start" x="207.5" y="-292.5" font-family="Helvetica,sans-Serif" font-size="10.00" fill="#000000">payments::Output::clear</text>
<text text-anchor="middle" x="260.5" y="-281.5" font-family="Helvetica,sans-Serif" font-size="10.00" fill="#000000">_script</text>
</a>
</g>
</g>
<!-- Node243&#45;&gt;Node253 -->
<g id="edge12" class="edge">
<title>Node243&#45;&gt;Node253</title>
<path fill="none" stroke="#191970" d="M117.9913,-323.9527C138.8495,-318.91 165.0911,-312.5659 189.3533,-306.7003"/>
<polygon fill="#191970" stroke="#191970" points="190.3522,-310.0597 199.2497,-304.3078 188.7073,-303.2557 190.3522,-310.0597"/>
</g>
<!-- Node254 -->
<g id="node12" class="node">
<title>Node254</title>
<g id="a_node12"><a xlink:href="classpayments_1_1_output.html#ad7de126dfc8cac563b65ae09ec0b73d5" target="_top" xlink:title="payments::Output::script">
<polygon fill="#ffffff" stroke="#000000" points="198,-187 198,-206 323,-206 323,-187 198,-187"/>
<text text-anchor="middle" x="260.5" y="-194" font-family="Helvetica,sans-Serif" font-size="10.00" fill="#000000">payments::Output::script</text>
</a>
</g>
</g>
<!-- Node243&#45;&gt;Node254 -->
<g id="edge14" class="edge">
<title>Node243&#45;&gt;Node254</title>
<path fill="none" stroke="#191970" d="M85.0227,-323.9041C100.8132,-301.422 143.4668,-245.018 193,-215.5 196.6472,-213.3265 200.5534,-211.3926 204.5804,-209.6734"/>
<polygon fill="#191970" stroke="#191970" points="206.0291,-212.867 214.1307,-206.0395 203.5397,-206.3246 206.0291,-212.867"/>
</g>
<!-- Node255 -->
<g id="node13" class="node">
<title>Node255</title>
<g id="a_node13"><a xlink:href="classpayments_1_1_output.html#ab4263ea2e71f7cc6fc5f6bb604fd83d2" target="_top" xlink:title="payments::Output::set\l_script">
<polygon fill="#ffffff" stroke="#000000" points="203.5,-.5 203.5,-30.5 317.5,-30.5 317.5,-.5 203.5,-.5"/>
<text text-anchor="start" x="211.5" y="-18.5" font-family="Helvetica,sans-Serif" font-size="10.00" fill="#000000">payments::Output::set</text>
<text text-anchor="middle" x="260.5" y="-7.5" font-family="Helvetica,sans-Serif" font-size="10.00" fill="#000000">_script</text>
</a>
</g>
</g>
<!-- Node243&#45;&gt;Node255 -->
<g id="edge15" class="edge">
<title>Node243&#45;&gt;Node255</title>
<path fill="none" stroke="#191970" d="M79.6787,-323.9002C85.0239,-284.2678 110.4201,-131.4351 193,-45.5 196.4293,-41.9314 200.3587,-38.7569 204.5596,-35.9388"/>
<polygon fill="#191970" stroke="#191970" points="206.6741,-38.7541 213.4902,-30.6429 203.1036,-32.7331 206.6741,-38.7541"/>
</g>
<!-- Node256 -->
<g id="node14" class="node">
<title>Node256</title>
<g id="a_node14"><a xlink:href="classpayments_1_1_output.html#a95733c8bee373cb4701fb134ad3fe221" target="_top" xlink:title="payments::Output::mutable\l_script">
<polygon fill="#ffffff" stroke="#000000" points="193,-88.5 193,-118.5 328,-118.5 328,-88.5 193,-88.5"/>
<text text-anchor="start" x="201" y="-106.5" font-family="Helvetica,sans-Serif" font-size="10.00" fill="#000000">payments::Output::mutable</text>
<text text-anchor="middle" x="260.5" y="-95.5" font-family="Helvetica,sans-Serif" font-size="10.00" fill="#000000">_script</text>
</a>
</g>
</g>
<!-- Node243&#45;&gt;Node256 -->
<g id="edge17" class="edge">
<title>Node243&#45;&gt;Node256</title>
<path fill="none" stroke="#191970" d="M81.2037,-323.715C90.7332,-291.0076 125.8604,-184.3446 193,-127.5 194.5306,-126.2041 196.1362,-124.9762 197.8013,-123.8129"/>
<polygon fill="#191970" stroke="#191970" points="199.8066,-126.6905 206.5503,-118.519 196.1827,-120.7015 199.8066,-126.6905"/>
</g>
<!-- Node257 -->
<g id="node15" class="node">
<title>Node257</title>
<g id="a_node15"><a xlink:href="classpayments_1_1_output.html#a9512d06e6d8310cd0fa6775b92babddb" target="_top" xlink:title="payments::Output::release\l_script">
<polygon fill="#ffffff" stroke="#000000" points="194.5,-225.5 194.5,-255.5 326.5,-255.5 326.5,-225.5 194.5,-225.5"/>
<text text-anchor="start" x="202.5" y="-243.5" font-family="Helvetica,sans-Serif" font-size="10.00" fill="#000000">payments::Output::release</text>
<text text-anchor="middle" x="260.5" y="-232.5" font-family="Helvetica,sans-Serif" font-size="10.00" fill="#000000">_script</text>
</a>
</g>
</g>
<!-- Node243&#45;&gt;Node257 -->
<g id="edge19" class="edge">
<title>Node243&#45;&gt;Node257</title>
<path fill="none" stroke="#191970" d="M92.8522,-323.8185C114.0934,-309.7614 155.4428,-283.4254 193,-265.5 197.5359,-263.3351 202.3125,-261.2334 207.1424,-259.2285"/>
<polygon fill="#191970" stroke="#191970" points="208.4656,-262.4689 216.4468,-255.5009 205.8624,-255.9709 208.4656,-262.4689"/>
</g>
<!-- Node258 -->
<g id="node16" class="node">
<title>Node258</title>
<g id="a_node16"><a xlink:href="classpayments_1_1_output.html#a2ccf6b84cbe7f8a6d837bbc89ea87101" target="_top" xlink:title="payments::Output::set\l_allocated_script">
<polygon fill="#ffffff" stroke="#000000" points="203.5,-137.5 203.5,-167.5 317.5,-167.5 317.5,-137.5 203.5,-137.5"/>
<text text-anchor="start" x="211.5" y="-155.5" font-family="Helvetica,sans-Serif" font-size="10.00" fill="#000000">payments::Output::set</text>
<text text-anchor="middle" x="260.5" y="-144.5" font-family="Helvetica,sans-Serif" font-size="10.00" fill="#000000">_allocated_script</text>
</a>
</g>
</g>
<!-- Node243&#45;&gt;Node258 -->
<g id="edge21" class="edge">
<title>Node243&#45;&gt;Node258</title>
<path fill="none" stroke="#191970" d="M82.9924,-323.9312C96.0993,-297.0011 136.9408,-219.7785 193,-177.5 195.4647,-175.6412 198.0823,-173.9083 200.8003,-172.2944"/>
<polygon fill="#191970" stroke="#191970" points="202.5687,-175.3182 209.7583,-167.5362 199.285,-169.1362 202.5687,-175.3182"/>
</g>
<!-- Node247&#45;&gt;Node246 -->
<g id="edge5" class="edge">
<title>Node247&#45;&gt;Node246</title>
<path fill="none" stroke="#191970" d="M321.7537,-583.308C332.2065,-581.9101 343.1442,-580.4473 353.8279,-579.0185"/>
<polygon fill="#191970" stroke="#191970" points="354.5213,-582.457 363.9691,-577.6622 353.5933,-575.5187 354.5213,-582.457"/>
</g>
<!-- Node249&#45;&gt;Node245 -->
<g id="edge8" class="edge">
<title>Node249&#45;&gt;Node245</title>
<path fill="none" stroke="#191970" d="M316.6515,-488.4808C330.2077,-484.8548 344.8191,-480.9466 358.7884,-477.2101"/>
<polygon fill="#191970" stroke="#191970" points="360.0665,-480.4914 368.8225,-474.5262 358.2577,-473.7291 360.0665,-480.4914"/>
</g>
<!-- Node253&#45;&gt;Node252 -->
<g id="edge13" class="edge">
<title>Node253&#45;&gt;Node252</title>
<path fill="none" stroke="#191970" d="M321.7537,-280.1909C332.2065,-278.6023 343.1442,-276.9401 353.8279,-275.3164"/>
<polygon fill="#191970" stroke="#191970" points="354.6085,-278.7381 363.9691,-273.7752 353.5567,-271.8175 354.6085,-278.7381"/>
</g>
<!-- Node255&#45;&gt;Node251 -->
<g id="edge16" class="edge">
<title>Node255&#45;&gt;Node251</title>
<path fill="none" stroke="#191970" d="M298.2396,-30.6417C321.9587,-40.1582 352.7448,-52.5101 378.0375,-62.6579"/>
<polygon fill="#191970" stroke="#191970" points="376.8518,-65.9533 387.436,-66.4287 379.4584,-59.4567 376.8518,-65.9533"/>
</g>
<!-- Node256&#45;&gt;Node251 -->
<g id="edge18" class="edge">
<title>Node256&#45;&gt;Node251</title>
<path fill="none" stroke="#191970" d="M328.3582,-94.4247C338.0796,-93.1246 348.078,-91.7874 357.7869,-90.489"/>
<polygon fill="#191970" stroke="#191970" points="358.3284,-93.9478 367.7761,-89.153 357.4004,-87.0096 358.3284,-93.9478"/>
</g>
<!-- Node257&#45;&gt;Node252 -->
<g id="edge20" class="edge">
<title>Node257&#45;&gt;Node252</title>
<path fill="none" stroke="#191970" d="M326.9343,-250.1925C335.8101,-251.4875 344.9413,-252.8197 353.8931,-254.1257"/>
<polygon fill="#191970" stroke="#191970" points="353.5001,-257.6054 363.9006,-255.5858 354.5107,-250.6787 353.5001,-257.6054"/>
</g>
<!-- Node258&#45;&gt;Node251 -->
<g id="edge22" class="edge">
<title>Node258&#45;&gt;Node251</title>
<path fill="none" stroke="#191970" d="M302.8529,-137.4644C311.239,-134.3048 319.9386,-130.8965 328,-127.5 347.1294,-119.4401 367.9737,-109.6866 385.4201,-101.2386"/>
<polygon fill="#191970" stroke="#191970" points="387.2762,-104.2276 394.7305,-96.6987 384.2081,-97.9357 387.2762,-104.2276"/>
</g>
<!-- Node258&#45;&gt;Node252 -->
<g id="edge23" class="edge">
<title>Node258&#45;&gt;Node252</title>
<path fill="none" stroke="#191970" d="M308.0384,-167.5117C314.9355,-170.4244 321.7941,-173.7555 328,-177.5 357.4504,-195.2699 386.1359,-222.6224 404.5758,-241.9056"/>
<polygon fill="#191970" stroke="#191970" points="402.1911,-244.479 411.5893,-249.3703 407.2926,-239.6858 402.1911,-244.479"/>
</g>
</g>
</svg>
