<?xml version="1.0" encoding="UTF-8" standalone="no"?>
<!DOCTYPE svg PUBLIC "-//W3C//DTD SVG 1.1//EN"
 "http://www.w3.org/Graphics/SVG/1.1/DTD/svg11.dtd">
<!-- Generated by graphviz version 2.49.3 (0)
 -->
<!-- Title: CDBWrapper::CreateObfuscateKey Pages: 1 -->
<svg width="1388pt" height="484pt"
 viewBox="0.00 0.00 1388.00 484.00" xmlns="http://www.w3.org/2000/svg" xmlns:xlink="http://www.w3.org/1999/xlink">
<g id="graph0" class="graph" transform="scale(1 1) rotate(0) translate(4 480)">
<title>CDBWrapper::CreateObfuscateKey</title>
<polygon fill="white" stroke="transparent" points="-4,4 -4,-480 1384,-480 1384,4 -4,4"/>
<!-- Node1 -->
<g id="node1" class="node">
<title>Node1</title>
<g id="a_node1"><a xlink:title="Returns a string (consisting of 8 random bytes) suitable for use as an obfuscating XOR key.">
<polygon fill="#bfbfbf" stroke="black" points="0,-275.5 0,-294.5 185,-294.5 185,-275.5 0,-275.5"/>
<text text-anchor="middle" x="92.5" y="-282.5" font-family="Helvetica,sans-Serif" font-size="10.00">CDBWrapper::CreateObfuscateKey</text>
</a>
</g>
</g>
<!-- Node2 -->
<g id="node2" class="node">
<title>Node2</title>
<g id="a_node2"><a xlink:href="random_8cpp.html#a6ee67373bce34cf387d83c86b438ff84" target="_top" xlink:title="Overall design of the RNG and entropy sources.">
<polygon fill="white" stroke="black" points="221,-275.5 221,-294.5 307,-294.5 307,-275.5 221,-275.5"/>
<text text-anchor="middle" x="264" y="-282.5" font-family="Helvetica,sans-Serif" font-size="10.00">GetRandBytes</text>
</a>
</g>
</g>
<!-- Node1&#45;&gt;Node2 -->
<g id="edge1" class="edge">
<title>Node1&#45;&gt;Node2</title>
<path fill="none" stroke="midnightblue" d="M185.2,-285C193.97,-285 202.65,-285 210.84,-285"/>
<polygon fill="midnightblue" stroke="midnightblue" points="210.94,-288.5 220.94,-285 210.94,-281.5 210.94,-288.5"/>
</g>
<!-- Node3 -->
<g id="node3" class="node">
<title>Node3</title>
<g id="a_node3"><a xlink:href="random_8cpp.html#a8ae9b8a6be2563ac9695b0b0c2828da2" target="_top" xlink:title=" ">
<polygon fill="white" stroke="black" points="343,-275.5 343,-294.5 405,-294.5 405,-275.5 343,-275.5"/>
<text text-anchor="middle" x="374" y="-282.5" font-family="Helvetica,sans-Serif" font-size="10.00">ProcRand</text>
</a>
</g>
</g>
<!-- Node2&#45;&gt;Node3 -->
<g id="edge2" class="edge">
<title>Node2&#45;&gt;Node3</title>
<path fill="none" stroke="midnightblue" d="M307.06,-285C315.48,-285 324.3,-285 332.65,-285"/>
<polygon fill="midnightblue" stroke="midnightblue" points="332.91,-288.5 342.91,-285 332.91,-281.5 332.91,-288.5"/>
</g>
<!-- Node4 -->
<g id="node4" class="node">
<title>Node4</title>
<g id="a_node4"><a xlink:href="validation_8cpp.html#afb7ea74ba028421697aa7f364741ee6c" target="_top" xlink:title=" ">
<polygon fill="white" stroke="black" points="1184,-0.5 1184,-19.5 1231,-19.5 1231,-0.5 1184,-0.5"/>
<text text-anchor="middle" x="1207.5" y="-7.5" font-family="Helvetica,sans-Serif" font-size="10.00">assert</text>
</a>
</g>
</g>
<!-- Node3&#45;&gt;Node4 -->
<g id="edge3" class="edge">
<title>Node3&#45;&gt;Node4</title>
<path fill="none" stroke="midnightblue" d="M378.06,-275.21C394.01,-226.22 472.64,-10 617,-10 617,-10 617,-10 877.5,-10 985.85,-10 1114.27,-10 1173.53,-10"/>
<polygon fill="midnightblue" stroke="midnightblue" points="1173.76,-13.5 1183.76,-10 1173.76,-6.5 1173.76,-13.5"/>
</g>
<!-- Node5 -->
<g id="node5" class="node">
<title>Node5</title>
<g id="a_node5"><a xlink:href="random_8cpp.html#a46aa1c803cdf7cb3dae88c97ce3ff4ee" target="_top" xlink:title=" ">
<polygon fill="white" stroke="black" points="721,-408.5 721,-427.5 781,-427.5 781,-408.5 721,-408.5"/>
<text text-anchor="middle" x="751" y="-415.5" font-family="Helvetica,sans-Serif" font-size="10.00">SeedFast</text>
</a>
</g>
</g>
<!-- Node3&#45;&gt;Node5 -->
<g id="edge4" class="edge">
<title>Node3&#45;&gt;Node5</title>
<path fill="none" stroke="midnightblue" d="M386.88,-294.64C414.68,-316.59 486.89,-370.22 557,-394 608.22,-411.37 670.91,-416.4 710.66,-417.73"/>
<polygon fill="midnightblue" stroke="midnightblue" points="710.65,-421.23 720.74,-418.01 710.84,-414.23 710.65,-421.23"/>
</g>
<!-- Node9 -->
<g id="node9" class="node">
<title>Node9</title>
<g id="a_node9"><a xlink:href="random_8cpp.html#aac760c61051f75d8930464ee2b6b4750" target="_top" xlink:title=" ">
<polygon fill="white" stroke="black" points="441,-275.5 441,-294.5 521,-294.5 521,-275.5 441,-275.5"/>
<text text-anchor="middle" x="481" y="-282.5" font-family="Helvetica,sans-Serif" font-size="10.00">SeedPeriodic</text>
</a>
</g>
</g>
<!-- Node3&#45;&gt;Node9 -->
<g id="edge8" class="edge">
<title>Node3&#45;&gt;Node9</title>
<path fill="none" stroke="midnightblue" d="M405.09,-285C413.1,-285 421.98,-285 430.73,-285"/>
<polygon fill="midnightblue" stroke="midnightblue" points="430.89,-288.5 440.89,-285 430.89,-281.5 430.89,-288.5"/>
</g>
<!-- Node27 -->
<g id="node27" class="node">
<title>Node27</title>
<g id="a_node27"><a xlink:href="random_8cpp.html#afc3bb33c6729b0c714d3ae8f1f94cb74" target="_top" xlink:title=" ">
<polygon fill="white" stroke="black" points="586,-332.5 586,-351.5 650,-351.5 650,-332.5 586,-332.5"/>
<text text-anchor="middle" x="618" y="-339.5" font-family="Helvetica,sans-Serif" font-size="10.00">SeedSlow</text>
</a>
</g>
</g>
<!-- Node3&#45;&gt;Node27 -->
<g id="edge31" class="edge">
<title>Node3&#45;&gt;Node27</title>
<path fill="none" stroke="midnightblue" d="M405.11,-294.13C416.33,-297.41 429.21,-301.03 441,-304 486.8,-315.52 539.84,-326.68 575.63,-333.89"/>
<polygon fill="midnightblue" stroke="midnightblue" points="575.2,-337.38 585.7,-335.91 576.58,-330.51 575.2,-337.38"/>
</g>
<!-- Node31 -->
<g id="node31" class="node">
<title>Node31</title>
<g id="a_node31"><a xlink:href="random_8cpp.html#a2978864f7deaa6e13a1a98df08b0b394" target="_top" xlink:title=" ">
<polygon fill="white" stroke="black" points="443,-218.5 443,-237.5 519,-237.5 519,-218.5 443,-218.5"/>
<text text-anchor="middle" x="481" y="-225.5" font-family="Helvetica,sans-Serif" font-size="10.00">SeedStartup</text>
</a>
</g>
</g>
<!-- Node3&#45;&gt;Node31 -->
<g id="edge38" class="edge">
<title>Node3&#45;&gt;Node31</title>
<path fill="none" stroke="midnightblue" d="M392.81,-275.33C409.43,-266.31 434.44,-252.73 453.42,-242.43"/>
<polygon fill="midnightblue" stroke="midnightblue" points="455.33,-245.37 462.45,-237.53 451.99,-239.22 455.33,-245.37"/>
</g>
<!-- Node6 -->
<g id="node6" class="node">
<title>Node6</title>
<g id="a_node6"><a xlink:href="random_8cpp.html#a4b4a1167b747ef68a0698771109e9f87" target="_top" xlink:title="Add 64 bits of entropy gathered from hardware to hasher.">
<polygon fill="white" stroke="black" points="823,-456.5 823,-475.5 930,-475.5 930,-456.5 823,-456.5"/>
<text text-anchor="middle" x="876.5" y="-463.5" font-family="Helvetica,sans-Serif" font-size="10.00">SeedHardwareFast</text>
</a>
</g>
</g>
<!-- Node5&#45;&gt;Node6 -->
<g id="edge5" class="edge">
<title>Node5&#45;&gt;Node6</title>
<path fill="none" stroke="midnightblue" d="M776.7,-427.6C795.21,-434.79 820.77,-444.73 841.25,-452.69"/>
<polygon fill="midnightblue" stroke="midnightblue" points="840.26,-456.06 850.85,-456.42 842.79,-449.53 840.26,-456.06"/>
</g>
<!-- Node7 -->
<g id="node7" class="node">
<title>Node7</title>
<g id="a_node7"><a xlink:href="random_8cpp.html#a7ccd6757cd58c0e6c48b923b8a0bf601" target="_top" xlink:title=" ">
<polygon fill="white" stroke="black" points="828.5,-342.5 828.5,-361.5 924.5,-361.5 924.5,-342.5 828.5,-342.5"/>
<text text-anchor="middle" x="876.5" y="-349.5" font-family="Helvetica,sans-Serif" font-size="10.00">SeedTimestamp</text>
</a>
</g>
</g>
<!-- Node5&#45;&gt;Node7 -->
<g id="edge6" class="edge">
<title>Node5&#45;&gt;Node7</title>
<path fill="none" stroke="midnightblue" d="M770.86,-408.49C776.18,-405.62 781.91,-402.33 787,-399 803.96,-387.91 805.25,-380.79 823,-371 826.68,-368.97 830.61,-367.09 834.61,-365.35"/>
<polygon fill="midnightblue" stroke="midnightblue" points="836,-368.57 843.98,-361.59 833.39,-362.07 836,-368.57"/>
</g>
<!-- Node8 -->
<g id="node8" class="node">
<title>Node8</title>
<g id="a_node8"><a xlink:href="random_8cpp.html#afb692c2693344fde8ce5532d32141446" target="_top" xlink:title=" ">
<polygon fill="white" stroke="black" points="966,-332.5 966,-351.5 1100,-351.5 1100,-332.5 966,-332.5"/>
<text text-anchor="middle" x="1033" y="-339.5" font-family="Helvetica,sans-Serif" font-size="10.00">GetPerformanceCounter</text>
</a>
</g>
</g>
<!-- Node7&#45;&gt;Node8 -->
<g id="edge7" class="edge">
<title>Node7&#45;&gt;Node8</title>
<path fill="none" stroke="midnightblue" d="M924.69,-348.95C934.51,-348.31 945.1,-347.62 955.66,-346.94"/>
<polygon fill="midnightblue" stroke="midnightblue" points="956,-350.43 965.76,-346.29 955.55,-343.44 956,-350.43"/>
</g>
<!-- Node9&#45;&gt;Node5 -->
<g id="edge10" class="edge">
<title>Node9&#45;&gt;Node5</title>
<path fill="none" stroke="midnightblue" d="M488.93,-294.71C500.95,-310.85 527.26,-343.19 557,-361 583.02,-376.59 662.54,-397.25 711.01,-408.94"/>
<polygon fill="midnightblue" stroke="midnightblue" points="710.31,-412.37 720.85,-411.29 711.94,-405.56 710.31,-412.37"/>
</g>
<!-- Node9&#45;&gt;Node7 -->
<g id="edge30" class="edge">
<title>Node9&#45;&gt;Node7</title>
<path fill="none" stroke="midnightblue" d="M521.17,-291.67C590.98,-303.56 737.2,-328.45 818.28,-342.26"/>
<polygon fill="midnightblue" stroke="midnightblue" points="817.87,-345.74 828.31,-343.97 819.04,-338.84 817.87,-345.74"/>
</g>
<!-- Node10 -->
<g id="node10" class="node">
<title>Node10</title>
<g id="a_node10"><a xlink:href="randomenv_8cpp.html#aec43374cb02027b6189251e243cb3f4d" target="_top" xlink:title="Gather non&#45;cryptographic environment data that changes over time.">
<polygon fill="white" stroke="black" points="557,-256.5 557,-275.5 679,-275.5 679,-256.5 557,-256.5"/>
<text text-anchor="middle" x="618" y="-263.5" font-family="Helvetica,sans-Serif" font-size="10.00">RandAddDynamicEnv</text>
</a>
</g>
</g>
<!-- Node9&#45;&gt;Node10 -->
<g id="edge9" class="edge">
<title>Node9&#45;&gt;Node10</title>
<path fill="none" stroke="midnightblue" d="M521.05,-279.5C529.19,-278.36 538.02,-277.12 546.9,-275.87"/>
<polygon fill="midnightblue" stroke="midnightblue" points="547.51,-279.31 556.93,-274.45 546.54,-272.38 547.51,-279.31"/>
</g>
<!-- Node11 -->
<g id="node11" class="node">
<title>Node11</title>
<g id="a_node11"><a xlink:href="random_8cpp.html#a27dc45ff7a8f4413fec336f8b6d7749e" target="_top" xlink:title="Extract entropy from rng, strengthen it, and feed it into hasher.">
<polygon fill="white" stroke="black" points="571,-218.5 571,-237.5 665,-237.5 665,-218.5 571,-218.5"/>
<text text-anchor="middle" x="618" y="-225.5" font-family="Helvetica,sans-Serif" font-size="10.00">SeedStrengthen</text>
</a>
</g>
</g>
<!-- Node9&#45;&gt;Node11 -->
<g id="edge11" class="edge">
<title>Node9&#45;&gt;Node11</title>
<path fill="none" stroke="midnightblue" d="M498.91,-275.44C513.87,-267.21 536.46,-255.39 557,-247 562.44,-244.78 568.25,-242.65 574.02,-240.67"/>
<polygon fill="midnightblue" stroke="midnightblue" points="575.24,-243.96 583.65,-237.5 573.05,-237.31 575.24,-243.96"/>
</g>
<!-- Node12 -->
<g id="node12" class="node">
<title>Node12</title>
<g id="a_node12"><a xlink:href="random_8cpp.html#a0178c8e55ae07cfbfb79d5bc26333fe3" target="_top" xlink:title="Use repeated SHA512 to strengthen the randomness in seed32, and feed into hasher.">
<polygon fill="white" stroke="black" points="716,-209.5 716,-228.5 786,-228.5 786,-209.5 716,-209.5"/>
<text text-anchor="middle" x="751" y="-216.5" font-family="Helvetica,sans-Serif" font-size="10.00">Strengthen</text>
</a>
</g>
</g>
<!-- Node11&#45;&gt;Node12 -->
<g id="edge12" class="edge">
<title>Node11&#45;&gt;Node12</title>
<path fill="none" stroke="midnightblue" d="M665.19,-224.83C678.32,-223.92 692.6,-222.94 705.62,-222.05"/>
<polygon fill="midnightblue" stroke="midnightblue" points="706.02,-225.53 715.76,-221.35 705.54,-218.55 706.02,-225.53"/>
</g>
<!-- Node12&#45;&gt;Node8 -->
<g id="edge19" class="edge">
<title>Node12&#45;&gt;Node8</title>
<path fill="none" stroke="midnightblue" d="M758.13,-228.67C769.06,-245.05 793.55,-278.12 823,-295 863.39,-318.14 914.26,-329.89 955.69,-335.86"/>
<polygon fill="midnightblue" stroke="midnightblue" points="955.36,-339.34 965.74,-337.22 956.3,-332.41 955.36,-339.34"/>
</g>
<!-- Node13 -->
<g id="node13" class="node">
<title>Node13</title>
<g id="a_node13"><a xlink:href="class_c_s_h_a512.html#aef4627aae19eeeb54bf02ea7b222b688" target="_top" xlink:title=" ">
<polygon fill="white" stroke="black" points="824,-152.5 824,-171.5 929,-171.5 929,-152.5 824,-152.5"/>
<text text-anchor="middle" x="876.5" y="-159.5" font-family="Helvetica,sans-Serif" font-size="10.00">CSHA512::Finalize</text>
</a>
</g>
</g>
<!-- Node12&#45;&gt;Node13 -->
<g id="edge13" class="edge">
<title>Node12&#45;&gt;Node13</title>
<path fill="none" stroke="midnightblue" d="M768.3,-209.4C782.48,-201.27 803.72,-189.6 823,-181 827.52,-178.98 832.33,-177.02 837.12,-175.16"/>
<polygon fill="midnightblue" stroke="midnightblue" points="838.72,-178.3 846.87,-171.52 836.27,-171.74 838.72,-178.3"/>
</g>
<!-- Node14 -->
<g id="node14" class="node">
<title>Node14</title>
<g id="a_node14"><a xlink:href="class_c_s_h_a512.html#aefd8260a2c205f11d44670ae68f1aff0" target="_top" xlink:title=" ">
<polygon fill="white" stroke="black" points="986,-114.5 986,-133.5 1080,-133.5 1080,-114.5 986,-114.5"/>
<text text-anchor="middle" x="1033" y="-121.5" font-family="Helvetica,sans-Serif" font-size="10.00">CSHA512::Write</text>
</a>
</g>
</g>
<!-- Node12&#45;&gt;Node14 -->
<g id="edge29" class="edge">
<title>Node12&#45;&gt;Node14</title>
<path fill="none" stroke="midnightblue" d="M757.58,-209.46C768,-192.64 792.18,-158.08 823,-143 870.72,-119.65 931.88,-116.74 975.69,-118.55"/>
<polygon fill="midnightblue" stroke="midnightblue" points="975.71,-122.06 985.88,-119.07 976.07,-115.07 975.71,-122.06"/>
</g>
<!-- Node19 -->
<g id="node19" class="node">
<title>Node19</title>
<g id="a_node19"><a xlink:href="time_8cpp.html#a0c5a06b50cd805b1923552114494c029" target="_top" xlink:title="Returns the system time (not mockable)">
<polygon fill="white" stroke="black" points="831,-266.5 831,-285.5 922,-285.5 922,-266.5 831,-266.5"/>
<text text-anchor="middle" x="876.5" y="-273.5" font-family="Helvetica,sans-Serif" font-size="10.00">GetTimeMicros</text>
</a>
</g>
</g>
<!-- Node12&#45;&gt;Node19 -->
<g id="edge20" class="edge">
<title>Node12&#45;&gt;Node19</title>
<path fill="none" stroke="midnightblue" d="M768.3,-228.6C782.48,-236.73 803.72,-248.4 823,-257 827.52,-259.02 832.33,-260.98 837.12,-262.84"/>
<polygon fill="midnightblue" stroke="midnightblue" points="836.27,-266.26 846.87,-266.48 838.72,-259.7 836.27,-266.26"/>
</g>
<!-- Node20 -->
<g id="node20" class="node">
<title>Node20</title>
<g id="a_node20"><a xlink:href="cleanse_8cpp.html#a5a4afb85dd16ecc1f6019c782db78663" target="_top" xlink:title="Secure overwrite a buffer (possibly containing secret data) with zero&#45;bytes.">
<polygon fill="white" stroke="black" points="826,-228.5 826,-247.5 927,-247.5 927,-228.5 826,-228.5"/>
<text text-anchor="middle" x="876.5" y="-235.5" font-family="Helvetica,sans-Serif" font-size="10.00">memory_cleanse</text>
</a>
</g>
</g>
<!-- Node12&#45;&gt;Node20 -->
<g id="edge21" class="edge">
<title>Node12&#45;&gt;Node20</title>
<path fill="none" stroke="midnightblue" d="M786.07,-224.24C795.28,-225.66 805.53,-227.24 815.71,-228.8"/>
<polygon fill="midnightblue" stroke="midnightblue" points="815.4,-232.29 825.82,-230.36 816.46,-225.38 815.4,-232.29"/>
</g>
<!-- Node21 -->
<g id="node21" class="node">
<title>Node21</title>
<g id="a_node21"><a xlink:href="class_c_s_h_a512.html#a6c469e0a6d1988cb255acf15afc66c2e" target="_top" xlink:title=" ">
<polygon fill="white" stroke="black" points="829,-190.5 829,-209.5 924,-209.5 924,-190.5 829,-190.5"/>
<text text-anchor="middle" x="876.5" y="-197.5" font-family="Helvetica,sans-Serif" font-size="10.00">CSHA512::Reset</text>
</a>
</g>
</g>
<!-- Node12&#45;&gt;Node21 -->
<g id="edge22" class="edge">
<title>Node12&#45;&gt;Node21</title>
<path fill="none" stroke="midnightblue" d="M786.07,-213.76C796.13,-212.21 807.43,-210.47 818.51,-208.77"/>
<polygon fill="midnightblue" stroke="midnightblue" points="819.24,-212.2 828.6,-207.22 818.18,-205.28 819.24,-212.2"/>
</g>
<!-- Node22 -->
<g id="node22" class="node">
<title>Node22</title>
<g id="a_node22"><a xlink:href="server_8cpp.html#a5a17d4abbbc321825cc2442dd560d666" target="_top" xlink:title=" ">
<polygon fill="white" stroke="black" points="857.5,-38.5 857.5,-57.5 895.5,-57.5 895.5,-38.5 857.5,-38.5"/>
<text text-anchor="middle" x="876.5" y="-45.5" font-family="Helvetica,sans-Serif" font-size="10.00">stop</text>
</a>
</g>
</g>
<!-- Node12&#45;&gt;Node22 -->
<g id="edge23" class="edge">
<title>Node12&#45;&gt;Node22</title>
<path fill="none" stroke="midnightblue" d="M757.69,-209.4C769.27,-190.08 796.7,-145.32 823,-110 834.63,-94.37 849,-77.56 859.76,-65.39"/>
<polygon fill="midnightblue" stroke="midnightblue" points="862.5,-67.57 866.55,-57.78 857.28,-62.91 862.5,-67.57"/>
</g>
<!-- Node13&#45;&gt;Node14 -->
<g id="edge14" class="edge">
<title>Node13&#45;&gt;Node14</title>
<path fill="none" stroke="midnightblue" d="M916.49,-152.41C936.78,-147.42 961.79,-141.27 983.35,-135.97"/>
<polygon fill="midnightblue" stroke="midnightblue" points="984.42,-139.31 993.29,-133.52 982.75,-132.51 984.42,-139.31"/>
</g>
<!-- Node16 -->
<g id="node16" class="node">
<title>Node16</title>
<g id="a_node16"><a xlink:href="crypto_2common_8h.html#ab960e95bf479af0a88a20800366b6131" target="_top" xlink:title=" ">
<polygon fill="white" stroke="black" points="999,-152.5 999,-171.5 1067,-171.5 1067,-152.5 999,-152.5"/>
<text text-anchor="middle" x="1033" y="-159.5" font-family="Helvetica,sans-Serif" font-size="10.00">WriteBE64</text>
</a>
</g>
</g>
<!-- Node13&#45;&gt;Node16 -->
<g id="edge16" class="edge">
<title>Node13&#45;&gt;Node16</title>
<path fill="none" stroke="midnightblue" d="M929.38,-162C948.67,-162 970.33,-162 988.76,-162"/>
<polygon fill="midnightblue" stroke="midnightblue" points="988.92,-165.5 998.92,-162 988.92,-158.5 988.92,-165.5"/>
</g>
<!-- Node15 -->
<g id="node15" class="node">
<title>Node15</title>
<g id="a_node15"><a xlink:href="namespacesha256__shani.html#a97d2e267c87add9a1172d948e05ba471" target="_top" xlink:title=" ">
<polygon fill="white" stroke="black" points="1138.5,-114.5 1138.5,-133.5 1276.5,-133.5 1276.5,-114.5 1138.5,-114.5"/>
<text text-anchor="middle" x="1207.5" y="-121.5" font-family="Helvetica,sans-Serif" font-size="10.00">sha256_shani::Transform</text>
</a>
</g>
</g>
<!-- Node14&#45;&gt;Node15 -->
<g id="edge15" class="edge">
<title>Node14&#45;&gt;Node15</title>
<path fill="none" stroke="midnightblue" d="M1080.23,-124C1095.02,-124 1111.83,-124 1128.25,-124"/>
<polygon fill="midnightblue" stroke="midnightblue" points="1128.41,-127.5 1138.41,-124 1128.41,-120.5 1128.41,-127.5"/>
</g>
<!-- Node17 -->
<g id="node17" class="node">
<title>Node17</title>
<g id="a_node17"><a xlink:href="endian_8h.html#a55844e5fbe9a8ab3e9793335a16e2efc" target="_top" xlink:title=" ">
<polygon fill="white" stroke="black" points="1179.5,-152.5 1179.5,-171.5 1235.5,-171.5 1235.5,-152.5 1179.5,-152.5"/>
<text text-anchor="middle" x="1207.5" y="-159.5" font-family="Helvetica,sans-Serif" font-size="10.00">htobe64</text>
</a>
</g>
</g>
<!-- Node16&#45;&gt;Node17 -->
<g id="edge17" class="edge">
<title>Node16&#45;&gt;Node17</title>
<path fill="none" stroke="midnightblue" d="M1067.26,-162C1096.42,-162 1138.78,-162 1169.11,-162"/>
<polygon fill="midnightblue" stroke="midnightblue" points="1169.3,-165.5 1179.3,-162 1169.3,-158.5 1169.3,-165.5"/>
</g>
<!-- Node18 -->
<g id="node18" class="node">
<title>Node18</title>
<g id="a_node18"><a xlink:href="byteswap_8h.html#aaf6a6e8515061fb001505d3b9f6164e2" target="_top" xlink:title=" ">
<polygon fill="white" stroke="black" points="1315,-152.5 1315,-171.5 1380,-171.5 1380,-152.5 1315,-152.5"/>
<text text-anchor="middle" x="1347.5" y="-159.5" font-family="Helvetica,sans-Serif" font-size="10.00">bswap_64</text>
</a>
</g>
</g>
<!-- Node17&#45;&gt;Node18 -->
<g id="edge18" class="edge">
<title>Node17&#45;&gt;Node18</title>
<path fill="none" stroke="midnightblue" d="M1235.76,-162C1255.43,-162 1282.34,-162 1304.71,-162"/>
<polygon fill="midnightblue" stroke="midnightblue" points="1304.95,-165.5 1314.95,-162 1304.95,-158.5 1304.95,-165.5"/>
</g>
<!-- Node23 -->
<g id="node23" class="node">
<title>Node23</title>
<g id="a_node23"><a xlink:href="shutdown_8cpp.html#ac7140c7327b1e6a8d46470b1cd0e8e1b" target="_top" xlink:title="Request shutdown of the application.">
<polygon fill="white" stroke="black" points="989,-38.5 989,-57.5 1077,-57.5 1077,-38.5 989,-38.5"/>
<text text-anchor="middle" x="1033" y="-45.5" font-family="Helvetica,sans-Serif" font-size="10.00">StartShutdown</text>
</a>
</g>
</g>
<!-- Node22&#45;&gt;Node23 -->
<g id="edge24" class="edge">
<title>Node22&#45;&gt;Node23</title>
<path fill="none" stroke="midnightblue" d="M895.53,-48C915.82,-48 949.74,-48 978.69,-48"/>
<polygon fill="midnightblue" stroke="midnightblue" points="978.69,-51.5 988.69,-48 978.69,-44.5 978.69,-51.5"/>
</g>
<!-- Node26 -->
<g id="node26" class="node">
<title>Node26</title>
<g id="a_node26"><a xlink:href="time_8cpp.html#a31a1bae0d4cc067165c23c609f2c37ee" target="_top" xlink:title=" ">
<polygon fill="white" stroke="black" points="974.5,-76.5 974.5,-95.5 1091.5,-95.5 1091.5,-76.5 974.5,-76.5"/>
<text text-anchor="middle" x="1033" y="-83.5" font-family="Helvetica,sans-Serif" font-size="10.00">UninterruptibleSleep</text>
</a>
</g>
</g>
<!-- Node22&#45;&gt;Node26 -->
<g id="edge28" class="edge">
<title>Node22&#45;&gt;Node26</title>
<path fill="none" stroke="midnightblue" d="M895.53,-52.43C916.91,-57.69 953.42,-66.67 983.3,-74.02"/>
<polygon fill="midnightblue" stroke="midnightblue" points="982.6,-77.46 993.15,-76.44 984.28,-70.66 982.6,-77.46"/>
</g>
<!-- Node23&#45;&gt;Node4 -->
<g id="edge25" class="edge">
<title>Node23&#45;&gt;Node4</title>
<path fill="none" stroke="midnightblue" d="M1077.08,-38.51C1107.17,-31.88 1146.7,-23.17 1174.11,-17.13"/>
<polygon fill="midnightblue" stroke="midnightblue" points="1174.97,-20.53 1183.98,-14.96 1173.47,-13.69 1174.97,-20.53"/>
</g>
<!-- Node24 -->
<g id="node24" class="node">
<title>Node24</title>
<g id="a_node24"><a xlink:href="shutdown_8cpp.html#a80961bbf7599ca290cd91472c41cd9b3" target="_top" xlink:title=" ">
<polygon fill="white" stroke="black" points="1153.5,-38.5 1153.5,-57.5 1261.5,-57.5 1261.5,-38.5 1153.5,-38.5"/>
<text text-anchor="middle" x="1207.5" y="-45.5" font-family="Helvetica,sans-Serif" font-size="10.00">fRequestShutdown</text>
</a>
</g>
</g>
<!-- Node23&#45;&gt;Node24 -->
<g id="edge26" class="edge">
<title>Node23&#45;&gt;Node24</title>
<path fill="none" stroke="midnightblue" d="M1077.08,-48C1097.07,-48 1121.22,-48 1143.22,-48"/>
<polygon fill="midnightblue" stroke="midnightblue" points="1143.49,-51.5 1153.49,-48 1143.49,-44.5 1143.49,-51.5"/>
</g>
<!-- Node25 -->
<g id="node25" class="node">
<title>Node25</title>
<g id="a_node25"><a xlink:href="class_token_pipe_end.html#a99e3d1d692f37ed64fa2c152107cac69" target="_top" xlink:title="Write token to endpoint.">
<polygon fill="white" stroke="black" points="1136,-76.5 1136,-95.5 1279,-95.5 1279,-76.5 1136,-76.5"/>
<text text-anchor="middle" x="1207.5" y="-83.5" font-family="Helvetica,sans-Serif" font-size="10.00">TokenPipeEnd::TokenWrite</text>
</a>
</g>
</g>
<!-- Node23&#45;&gt;Node25 -->
<g id="edge27" class="edge">
<title>Node23&#45;&gt;Node25</title>
<path fill="none" stroke="midnightblue" d="M1077.08,-57.49C1100.24,-62.59 1128.99,-68.92 1153.5,-74.32"/>
<polygon fill="midnightblue" stroke="midnightblue" points="1152.85,-77.76 1163.37,-76.5 1154.35,-70.93 1152.85,-77.76"/>
</g>
<!-- Node27&#45;&gt;Node5 -->
<g id="edge36" class="edge">
<title>Node27&#45;&gt;Node5</title>
<path fill="none" stroke="midnightblue" d="M649.02,-351.57C658.94,-355.36 669.79,-360.21 679,-366 697.38,-377.55 697.33,-386.39 715,-399 717.07,-400.48 719.26,-401.92 721.51,-403.31"/>
<polygon fill="midnightblue" stroke="midnightblue" points="719.83,-406.38 730.23,-408.36 723.33,-400.32 719.83,-406.38"/>
</g>
<!-- Node27&#45;&gt;Node7 -->
<g id="edge37" class="edge">
<title>Node27&#45;&gt;Node7</title>
<path fill="none" stroke="midnightblue" d="M650.2,-343.22C691.88,-344.84 766.49,-347.75 818.38,-349.77"/>
<polygon fill="midnightblue" stroke="midnightblue" points="818.31,-353.27 828.44,-350.17 818.59,-346.28 818.31,-353.27"/>
</g>
<!-- Node28 -->
<g id="node28" class="node">
<title>Node28</title>
<g id="a_node28"><a xlink:href="random_8cpp.html#ad5a1de953fbf69ebdf3db0387a8271d3" target="_top" xlink:title="Get 32 bytes of system entropy.">
<polygon fill="white" stroke="black" points="715,-370.5 715,-389.5 787,-389.5 787,-370.5 715,-370.5"/>
<text text-anchor="middle" x="751" y="-377.5" font-family="Helvetica,sans-Serif" font-size="10.00">GetOSRand</text>
</a>
</g>
</g>
<!-- Node27&#45;&gt;Node28 -->
<g id="edge32" class="edge">
<title>Node27&#45;&gt;Node28</title>
<path fill="none" stroke="midnightblue" d="M650.05,-351.01C667.1,-355.95 688.52,-362.17 707.15,-367.57"/>
<polygon fill="midnightblue" stroke="midnightblue" points="706.31,-370.97 716.89,-370.39 708.26,-364.25 706.31,-370.97"/>
</g>
<!-- Node29 -->
<g id="node29" class="node">
<title>Node29</title>
<g id="a_node29"><a xlink:href="random_8cpp.html#a33681ded2d3b238986f64b12b00adb88" target="_top" xlink:title="Fallback: get 32 bytes of system entropy from /dev/urandom.">
<polygon fill="white" stroke="black" points="826,-380.5 826,-399.5 927,-399.5 927,-380.5 826,-380.5"/>
<text text-anchor="middle" x="876.5" y="-387.5" font-family="Helvetica,sans-Serif" font-size="10.00">GetDevURandom</text>
</a>
</g>
</g>
<!-- Node28&#45;&gt;Node29 -->
<g id="edge33" class="edge">
<title>Node28&#45;&gt;Node29</title>
<path fill="none" stroke="midnightblue" d="M787.06,-382.84C795.95,-383.56 805.76,-384.35 815.51,-385.14"/>
<polygon fill="midnightblue" stroke="midnightblue" points="815.35,-388.64 825.6,-385.96 815.92,-381.66 815.35,-388.64"/>
</g>
<!-- Node30 -->
<g id="node30" class="node">
<title>Node30</title>
<g id="a_node30"><a xlink:href="random_8cpp.html#ac2fd3df4be152041d5339aafd81e5d17" target="_top" xlink:title=" ">
<polygon fill="white" stroke="black" points="996,-389.5 996,-408.5 1070,-408.5 1070,-389.5 996,-389.5"/>
<text text-anchor="middle" x="1033" y="-396.5" font-family="Helvetica,sans-Serif" font-size="10.00">RandFailure</text>
</a>
</g>
</g>
<!-- Node28&#45;&gt;Node30 -->
<g id="edge35" class="edge">
<title>Node28&#45;&gt;Node30</title>
<path fill="none" stroke="midnightblue" d="M769.78,-389.53C783.79,-396.47 804.06,-405.28 823,-409 878.16,-419.83 943,-413.91 985.66,-407.54"/>
<polygon fill="midnightblue" stroke="midnightblue" points="986.4,-410.97 995.74,-405.96 985.32,-404.05 986.4,-410.97"/>
</g>
<!-- Node29&#45;&gt;Node30 -->
<g id="edge34" class="edge">
<title>Node29&#45;&gt;Node30</title>
<path fill="none" stroke="midnightblue" d="M927.24,-392.9C945.9,-393.98 967.04,-395.22 985.41,-396.29"/>
<polygon fill="midnightblue" stroke="midnightblue" points="985.4,-399.79 995.59,-396.88 985.81,-392.8 985.4,-399.79"/>
</g>
<!-- Node31&#45;&gt;Node10 -->
<g id="edge39" class="edge">
<title>Node31&#45;&gt;Node10</title>
<path fill="none" stroke="midnightblue" d="M516.07,-237.59C533.41,-242.47 554.7,-248.46 573.25,-253.68"/>
<polygon fill="midnightblue" stroke="midnightblue" points="572.37,-257.07 582.94,-256.41 574.27,-250.34 572.37,-257.07"/>
</g>
<!-- Node31&#45;&gt;Node11 -->
<g id="edge46" class="edge">
<title>Node31&#45;&gt;Node11</title>
<path fill="none" stroke="midnightblue" d="M519.25,-228C532.06,-228 546.7,-228 560.69,-228"/>
<polygon fill="midnightblue" stroke="midnightblue" points="560.72,-231.5 570.72,-228 560.72,-224.5 560.72,-231.5"/>
</g>
<!-- Node31&#45;&gt;Node27 -->
<g id="edge45" class="edge">
<title>Node31&#45;&gt;Node27</title>
<path fill="none" stroke="midnightblue" d="M493.51,-237.72C516.72,-257.32 569.36,-301.77 597.84,-325.82"/>
<polygon fill="midnightblue" stroke="midnightblue" points="595.62,-328.53 605.52,-332.31 600.14,-323.18 595.62,-328.53"/>
</g>
<!-- Node32 -->
<g id="node32" class="node">
<title>Node32</title>
<g id="a_node32"><a xlink:href="randomenv_8cpp.html#a987b128d90770afb43bfaeacf16f378d" target="_top" xlink:title="Gather non&#45;cryptographic environment data that does not change over time.">
<polygon fill="white" stroke="black" points="565,-119.5 565,-138.5 671,-138.5 671,-119.5 565,-119.5"/>
<text text-anchor="middle" x="618" y="-126.5" font-family="Helvetica,sans-Serif" font-size="10.00">RandAddStaticEnv</text>
</a>
</g>
</g>
<!-- Node31&#45;&gt;Node32 -->
<g id="edge40" class="edge">
<title>Node31&#45;&gt;Node32</title>
<path fill="none" stroke="midnightblue" d="M495.44,-218.15C518.91,-200.93 567.54,-165.27 595.66,-144.65"/>
<polygon fill="midnightblue" stroke="midnightblue" points="598.02,-147.26 604.01,-138.52 593.88,-141.61 598.02,-147.26"/>
</g>
<!-- Node34 -->
<g id="node34" class="node">
<title>Node34</title>
<g id="a_node34"><a xlink:href="random_8cpp.html#af25ba1dd1405979639388c3dfa302a28" target="_top" xlink:title="Add 256 bits of entropy gathered from hardware to hasher.">
<polygon fill="white" stroke="black" points="562.5,-81.5 562.5,-100.5 673.5,-100.5 673.5,-81.5 562.5,-81.5"/>
<text text-anchor="middle" x="618" y="-88.5" font-family="Helvetica,sans-Serif" font-size="10.00">SeedHardwareSlow</text>
</a>
</g>
</g>
<!-- Node31&#45;&gt;Node34 -->
<g id="edge44" class="edge">
<title>Node31&#45;&gt;Node34</title>
<path fill="none" stroke="midnightblue" d="M485.42,-218.45C493.91,-196.08 518.13,-139.89 557,-110 559.43,-108.13 562.05,-106.44 564.79,-104.91"/>
<polygon fill="midnightblue" stroke="midnightblue" points="566.35,-108.05 573.86,-100.58 563.33,-101.74 566.35,-108.05"/>
</g>
<!-- Node32&#45;&gt;Node14 -->
<g id="edge43" class="edge">
<title>Node32&#45;&gt;Node14</title>
<path fill="none" stroke="midnightblue" d="M671,-123.41C732.76,-117.48 838.89,-109.54 930,-114 944.87,-114.73 960.92,-116.05 975.79,-117.5"/>
<polygon fill="midnightblue" stroke="midnightblue" points="975.56,-120.99 985.86,-118.51 976.27,-114.03 975.56,-120.99"/>
</g>
<!-- Node32&#45;&gt;Node32 -->
<g id="edge41" class="edge">
<title>Node32&#45;&gt;Node32</title>
<path fill="none" stroke="midnightblue" d="M597.65,-138.76C587.76,-147.57 594.54,-157 618,-157 633.03,-157 641.21,-153.13 642.55,-148.03"/>
<polygon fill="midnightblue" stroke="midnightblue" points="645.67,-146.42 638.35,-138.76 639.29,-149.31 645.67,-146.42"/>
</g>
<!-- Node33 -->
<g id="node33" class="node">
<title>Node33</title>
<g id="a_node33"><a xlink:href="strnlen_8cpp.html#a704976ad1d3be55ba3f6431c77ddf5f7" target="_top" xlink:title=" ">
<polygon fill="white" stroke="black" points="726,-38.5 726,-57.5 776,-57.5 776,-38.5 726,-38.5"/>
<text text-anchor="middle" x="751" y="-45.5" font-family="Helvetica,sans-Serif" font-size="10.00">strnlen</text>
</a>
</g>
</g>
<!-- Node32&#45;&gt;Node33 -->
<g id="edge42" class="edge">
<title>Node32&#45;&gt;Node33</title>
<path fill="none" stroke="midnightblue" d="M658.99,-119.46C665.94,-116.94 672.89,-113.83 679,-110 698.72,-97.65 697.31,-87.11 715,-72 718.5,-69.01 722.37,-66.06 726.23,-63.29"/>
<polygon fill="midnightblue" stroke="midnightblue" points="728.24,-66.16 734.5,-57.61 724.28,-60.39 728.24,-66.16"/>
</g>
</g>
</svg>
