<?xml version="1.0" encoding="UTF-8" standalone="no"?>
<!DOCTYPE svg PUBLIC "-//W3C//DTD SVG 1.1//EN"
 "http://www.w3.org/Graphics/SVG/1.1/DTD/svg11.dtd">
<!-- Generated by graphviz version 2.40.1 (20161225.0304)
 -->
<!-- Title: WalletBatch::GetAccountCreditDebit Pages: 1 -->
<svg width="493pt" height="39pt"
 viewBox="0.00 0.00 493.00 39.00" xmlns="http://www.w3.org/2000/svg" xmlns:xlink="http://www.w3.org/1999/xlink">
<g id="graph0" class="graph" transform="scale(1 1) rotate(0) translate(4 35)">
<title>WalletBatch::GetAccountCreditDebit</title>
<polygon fill="#ffffff" stroke="transparent" points="-4,4 -4,-35 489,-35 489,4 -4,4"/>
<!-- Node70 -->
<g id="node1" class="node">
<title>Node70</title>
<polygon fill="#bfbfbf" stroke="#000000" points="0,-.5 0,-30.5 154,-30.5 154,-.5 0,-.5"/>
<text text-anchor="start" x="8" y="-18.5" font-family="Helvetica,sans-Serif" font-size="10.00" fill="#000000">WalletBatch::GetAccountCredit</text>
<text text-anchor="middle" x="77" y="-7.5" font-family="Helvetica,sans-Serif" font-size="10.00" fill="#000000">Debit</text>
</g>
<!-- Node71 -->
<g id="node2" class="node">
<title>Node71</title>
<g id="a_node2"><a xlink:href="class_wallet_batch.html#addb58c1ab9e1fc72ae1a40d9ac85cae4" target="_top" xlink:title="WalletBatch::ListAccount\lCreditDebit">
<polygon fill="#ffffff" stroke="#000000" points="190,-.5 190,-30.5 318,-30.5 318,-.5 190,-.5"/>
<text text-anchor="start" x="198" y="-18.5" font-family="Helvetica,sans-Serif" font-size="10.00" fill="#000000">WalletBatch::ListAccount</text>
<text text-anchor="middle" x="254" y="-7.5" font-family="Helvetica,sans-Serif" font-size="10.00" fill="#000000">CreditDebit</text>
</a>
</g>
</g>
<!-- Node70&#45;&gt;Node71 -->
<g id="edge1" class="edge">
<title>Node70&#45;&gt;Node71</title>
<path fill="none" stroke="#191970" d="M154.1199,-15.5C162.5974,-15.5 171.2166,-15.5 179.6593,-15.5"/>
<polygon fill="#191970" stroke="#191970" points="179.8487,-19.0001 189.8487,-15.5 179.8486,-12.0001 179.8487,-19.0001"/>
</g>
<!-- Node72 -->
<g id="node3" class="node">
<title>Node72</title>
<g id="a_node3"><a xlink:href="class_berkeley_batch.html#a1e32d0aeea205d2a9a57c62a9c2d9d7d" target="_top" xlink:title="BerkeleyBatch::GetCursor">
<polygon fill="#ffffff" stroke="#000000" points="354,-6 354,-25 485,-25 485,-6 354,-6"/>
<text text-anchor="middle" x="419.5" y="-13" font-family="Helvetica,sans-Serif" font-size="10.00" fill="#000000">BerkeleyBatch::GetCursor</text>
</a>
</g>
</g>
<!-- Node71&#45;&gt;Node72 -->
<g id="edge2" class="edge">
<title>Node71&#45;&gt;Node72</title>
<path fill="none" stroke="#191970" d="M318.4605,-15.5C326.7198,-15.5 335.2349,-15.5 343.6541,-15.5"/>
<polygon fill="#191970" stroke="#191970" points="343.8523,-19.0001 353.8523,-15.5 343.8523,-12.0001 343.8523,-19.0001"/>
</g>
</g>
</svg>
