<?xml version="1.0" encoding="UTF-8" standalone="no"?>
<!DOCTYPE svg PUBLIC "-//W3C//DTD SVG 1.1//EN"
 "http://www.w3.org/Graphics/SVG/1.1/DTD/svg11.dtd">
<!-- Generated by graphviz version 2.38.0 (20140413.2041)
 -->
<!-- Title: TorController::~TorController Pages: 1 -->
<svg width="1316pt" height="517pt"
 viewBox="0.00 0.00 1316.00 517.23" xmlns="http://www.w3.org/2000/svg" xmlns:xlink="http://www.w3.org/1999/xlink">
<g id="graph0" class="graph" transform="scale(1 1) rotate(0) translate(4 513.228)">
<title>TorController::~TorController</title>
<polygon fill="white" stroke="none" points="-4,4 -4,-513.228 1312,-513.228 1312,4 -4,4"/>
<!-- Node1 -->
<g id="node1" class="node"><title>Node1</title>
<polygon fill="#bfbfbf" stroke="black" points="0,-365.5 0,-384.5 151,-384.5 151,-365.5 0,-365.5"/>
<text text-anchor="middle" x="75.5" y="-372.5" font-family="Helvetica,sans-Serif" font-size="10.00">TorController::~TorController</text>
</g>
<!-- Node2 -->
<g id="node2" class="node"><title>Node2</title>
<g id="a_node2"><a xlink:href="class_c_net_addr.html#a52a1b506f07e5450057e12a8b5a7fbcd" target="_top" xlink:title="CNetAddr::IsValid">
<polygon fill="white" stroke="black" points="458,-399.5 458,-418.5 557,-418.5 557,-399.5 458,-399.5"/>
<text text-anchor="middle" x="507.5" y="-406.5" font-family="Helvetica,sans-Serif" font-size="10.00">CNetAddr::IsValid</text>
</a>
</g>
</g>
<!-- Node1&#45;&gt;Node2 -->
<g id="edge1" class="edge"><title>Node1&#45;&gt;Node2</title>
<path fill="none" stroke="midnightblue" d="M151.4,-380.922C235.683,-387.587 370.843,-398.274 447.82,-404.36"/>
<polygon fill="midnightblue" stroke="midnightblue" points="447.582,-407.852 457.827,-405.151 448.134,-400.874 447.582,-407.852"/>
</g>
<!-- Node7 -->
<g id="node7" class="node"><title>Node7</title>
<g id="a_node7"><a xlink:href="net_8cpp.html#a040c40f60af5f50a128fc1aac4cb5ebd" target="_top" xlink:title="RemoveLocal">
<polygon fill="white" stroke="black" points="187,-337.5 187,-356.5 267,-356.5 267,-337.5 187,-337.5"/>
<text text-anchor="middle" x="227" y="-344.5" font-family="Helvetica,sans-Serif" font-size="10.00">RemoveLocal</text>
</a>
</g>
</g>
<!-- Node1&#45;&gt;Node7 -->
<g id="edge6" class="edge"><title>Node1&#45;&gt;Node7</title>
<path fill="none" stroke="midnightblue" d="M127.531,-365.442C143.491,-362.453 161.059,-359.163 176.884,-356.199"/>
<polygon fill="midnightblue" stroke="midnightblue" points="177.812,-359.586 186.997,-354.305 176.523,-352.706 177.812,-359.586"/>
</g>
<!-- Node3 -->
<g id="node3" class="node"><title>Node3</title>
<g id="a_node3"><a xlink:href="class_c_net_addr.html#a639dff0ffea6ad930353784686def39b" target="_top" xlink:title="CNetAddr::IsRFC3849">
<polygon fill="white" stroke="black" points="610.5,-361.5 610.5,-380.5 729.5,-380.5 729.5,-361.5 610.5,-361.5"/>
<text text-anchor="middle" x="670" y="-368.5" font-family="Helvetica,sans-Serif" font-size="10.00">CNetAddr::IsRFC3849</text>
</a>
</g>
</g>
<!-- Node2&#45;&gt;Node3 -->
<g id="edge2" class="edge"><title>Node2&#45;&gt;Node3</title>
<path fill="none" stroke="midnightblue" d="M549.001,-399.411C570.181,-394.396 596.302,-388.212 618.76,-382.895"/>
<polygon fill="midnightblue" stroke="midnightblue" points="619.866,-386.23 628.79,-380.52 618.253,-379.418 619.866,-386.23"/>
</g>
<!-- Node5 -->
<g id="node5" class="node"><title>Node5</title>
<g id="a_node5"><a xlink:href="class_c_net_addr.html#ab6a1988f734e2f0c4a67ebaefe8b01c8" target="_top" xlink:title="CNetAddr::IsInternal">
<polygon fill="white" stroke="black" points="1090,-427.5 1090,-446.5 1203,-446.5 1203,-427.5 1090,-427.5"/>
<text text-anchor="middle" x="1146.5" y="-434.5" font-family="Helvetica,sans-Serif" font-size="10.00">CNetAddr::IsInternal</text>
</a>
</g>
</g>
<!-- Node2&#45;&gt;Node5 -->
<g id="edge4" class="edge"><title>Node2&#45;&gt;Node5</title>
<path fill="none" stroke="midnightblue" d="M523.099,-418.701C542.041,-430.77 576.518,-451.003 609,-461 798.199,-519.232 860.799,-523.134 1054,-480 1078.14,-474.611 1103.42,-462.127 1121.28,-451.991"/>
<polygon fill="midnightblue" stroke="midnightblue" points="1123.52,-454.735 1130.39,-446.662 1119.99,-448.694 1123.52,-454.735"/>
</g>
<!-- Node6 -->
<g id="node6" class="node"><title>Node6</title>
<g id="a_node6"><a xlink:href="class_c_net_addr.html#a16ff4478f02f06f5a9a038a24d5da2f9" target="_top" xlink:title="CNetAddr::IsIPv4">
<polygon fill="white" stroke="black" points="1098.5,-247.5 1098.5,-266.5 1194.5,-266.5 1194.5,-247.5 1098.5,-247.5"/>
<text text-anchor="middle" x="1146.5" y="-254.5" font-family="Helvetica,sans-Serif" font-size="10.00">CNetAddr::IsIPv4</text>
</a>
</g>
</g>
<!-- Node2&#45;&gt;Node6 -->
<g id="edge5" class="edge"><title>Node2&#45;&gt;Node6</title>
<path fill="none" stroke="midnightblue" d="M557.232,-417.245C631.657,-428.015 777.389,-441.891 895,-409 991.101,-382.124 1087.01,-307.188 1126.59,-273.625"/>
<polygon fill="midnightblue" stroke="midnightblue" points="1129.28,-275.931 1134.58,-266.759 1124.72,-270.622 1129.28,-275.931"/>
</g>
<!-- Node4 -->
<g id="node4" class="node"><title>Node4</title>
<g id="a_node4"><a xlink:href="class_c_net_addr.html#a0793d30a6baae6e3d4e06084ec33eddd" target="_top" xlink:title="CNetAddr::GetByte">
<polygon fill="white" stroke="black" points="777,-380.5 777,-399.5 885,-399.5 885,-380.5 777,-380.5"/>
<text text-anchor="middle" x="831" y="-387.5" font-family="Helvetica,sans-Serif" font-size="10.00">CNetAddr::GetByte</text>
</a>
</g>
</g>
<!-- Node3&#45;&gt;Node4 -->
<g id="edge3" class="edge"><title>Node3&#45;&gt;Node4</title>
<path fill="none" stroke="midnightblue" d="M729.754,-378.021C741.779,-379.458 754.486,-380.976 766.664,-382.432"/>
<polygon fill="midnightblue" stroke="midnightblue" points="766.398,-385.925 776.743,-383.636 767.229,-378.974 766.398,-385.925"/>
</g>
<!-- Node8 -->
<g id="node8" class="node"><title>Node8</title>
<g id="a_node8"><a xlink:href="class_c_service.html#a336f9848fe9364e260c76499be0351a5" target="_top" xlink:title="CService::ToString">
<polygon fill="white" stroke="black" points="303,-294.5 303,-313.5 406,-313.5 406,-294.5 303,-294.5"/>
<text text-anchor="middle" x="354.5" y="-301.5" font-family="Helvetica,sans-Serif" font-size="10.00">CService::ToString</text>
</a>
</g>
</g>
<!-- Node7&#45;&gt;Node8 -->
<g id="edge7" class="edge"><title>Node7&#45;&gt;Node8</title>
<path fill="none" stroke="midnightblue" d="M255.853,-337.457C273.563,-331.389 296.711,-323.457 316.024,-316.84"/>
<polygon fill="midnightblue" stroke="midnightblue" points="317.4,-320.069 325.725,-313.516 315.131,-313.447 317.4,-320.069"/>
</g>
<!-- Node9 -->
<g id="node9" class="node"><title>Node9</title>
<g id="a_node9"><a xlink:href="class_c_service.html#a39b82301356b0dfc2a92befc727b77be" target="_top" xlink:title="CService::ToStringIPPort">
<polygon fill="white" stroke="black" points="442,-285.5 442,-304.5 573,-304.5 573,-285.5 442,-285.5"/>
<text text-anchor="middle" x="507.5" y="-292.5" font-family="Helvetica,sans-Serif" font-size="10.00">CService::ToStringIPPort</text>
</a>
</g>
</g>
<!-- Node8&#45;&gt;Node9 -->
<g id="edge8" class="edge"><title>Node8&#45;&gt;Node9</title>
<path fill="none" stroke="midnightblue" d="M406.201,-300.978C414.453,-300.486 423.149,-299.968 431.831,-299.45"/>
<polygon fill="midnightblue" stroke="midnightblue" points="432.214,-302.934 441.988,-298.845 431.798,-295.946 432.214,-302.934"/>
</g>
<!-- Node9&#45;&gt;Node5 -->
<g id="edge11" class="edge"><title>Node9&#45;&gt;Node5</title>
<path fill="none" stroke="midnightblue" d="M515.23,-304.612C529.747,-324.487 566.176,-369.919 609,-390 765.069,-463.184 974.594,-455.335 1079.64,-445.211"/>
<polygon fill="midnightblue" stroke="midnightblue" points="1080.18,-448.675 1089.78,-444.195 1079.48,-441.71 1080.18,-448.675"/>
</g>
<!-- Node9&#45;&gt;Node6 -->
<g id="edge9" class="edge"><title>Node9&#45;&gt;Node6</title>
<path fill="none" stroke="midnightblue" d="M573.123,-297.47C675.634,-300.383 881.577,-302.139 1054,-278 1069.34,-275.852 1085.91,-272.403 1100.67,-268.917"/>
<polygon fill="midnightblue" stroke="midnightblue" points="1101.68,-272.274 1110.57,-266.512 1100.03,-265.472 1101.68,-272.274"/>
</g>
<!-- Node10 -->
<g id="node10" class="node"><title>Node10</title>
<g id="a_node10"><a xlink:href="class_c_net_addr.html#a3fba9e0b18f531c0ed15794a30e8165d" target="_top" xlink:title="CNetAddr::IsTor">
<polygon fill="white" stroke="black" points="1101.5,-76.5 1101.5,-95.5 1191.5,-95.5 1191.5,-76.5 1101.5,-76.5"/>
<text text-anchor="middle" x="1146.5" y="-83.5" font-family="Helvetica,sans-Serif" font-size="10.00">CNetAddr::IsTor</text>
</a>
</g>
</g>
<!-- Node9&#45;&gt;Node10 -->
<g id="edge10" class="edge"><title>Node9&#45;&gt;Node10</title>
<path fill="none" stroke="midnightblue" d="M518.312,-285.474C550.689,-254.65 658.281,-157.016 767,-112 875.108,-67.2373 1015.44,-72.0786 1091.21,-79.2357"/>
<polygon fill="midnightblue" stroke="midnightblue" points="1091.17,-82.7486 1101.47,-80.2561 1091.86,-75.783 1091.17,-82.7486"/>
</g>
<!-- Node11 -->
<g id="node11" class="node"><title>Node11</title>
<g id="a_node11"><a xlink:href="class_c_net_addr.html#a7ec845c27b63853fb0db08a4d154266f" target="_top" xlink:title="CNetAddr::ToStringIP">
<polygon fill="white" stroke="black" points="612,-266.5 612,-285.5 728,-285.5 728,-266.5 612,-266.5"/>
<text text-anchor="middle" x="670" y="-273.5" font-family="Helvetica,sans-Serif" font-size="10.00">CNetAddr::ToStringIP</text>
</a>
</g>
</g>
<!-- Node9&#45;&gt;Node11 -->
<g id="edge12" class="edge"><title>Node9&#45;&gt;Node11</title>
<path fill="none" stroke="midnightblue" d="M573.319,-287.327C582.711,-286.215 592.396,-285.068 601.833,-283.951"/>
<polygon fill="midnightblue" stroke="midnightblue" points="602.431,-287.405 611.95,-282.754 601.608,-280.453 602.431,-287.405"/>
</g>
<!-- Node20 -->
<g id="node20" class="node"><title>Node20</title>
<g id="a_node20"><a xlink:href="class_c_service.html#a1e0f0b98239a9097044695a9e439bb46" target="_top" xlink:title="CService::ToStringPort">
<polygon fill="white" stroke="black" points="609,-0.5 609,-19.5 731,-19.5 731,-0.5 609,-0.5"/>
<text text-anchor="middle" x="670" y="-7.5" font-family="Helvetica,sans-Serif" font-size="10.00">CService::ToStringPort</text>
</a>
</g>
</g>
<!-- Node9&#45;&gt;Node20 -->
<g id="edge31" class="edge"><title>Node9&#45;&gt;Node20</title>
<path fill="none" stroke="midnightblue" d="M509.451,-285.478C513.672,-248.136 533.956,-110.022 609,-34 612.892,-30.0578 617.514,-26.7434 622.44,-23.9614"/>
<polygon fill="midnightblue" stroke="midnightblue" points="624.099,-27.0462 631.544,-19.5081 621.024,-20.7582 624.099,-27.0462"/>
</g>
<!-- Node11&#45;&gt;Node4 -->
<g id="edge30" class="edge"><title>Node11&#45;&gt;Node4</title>
<path fill="none" stroke="midnightblue" d="M679.026,-285.704C694.402,-303.752 729.803,-342.754 767,-366 773.483,-370.051 780.758,-373.598 788,-376.633"/>
<polygon fill="midnightblue" stroke="midnightblue" points="787.189,-380.073 797.777,-380.454 789.737,-373.554 787.189,-380.073"/>
</g>
<!-- Node11&#45;&gt;Node5 -->
<g id="edge15" class="edge"><title>Node11&#45;&gt;Node5</title>
<path fill="none" stroke="midnightblue" d="M699.261,-285.589C780.688,-313.218 1015.85,-393.008 1107.91,-424.245"/>
<polygon fill="midnightblue" stroke="midnightblue" points="1106.79,-427.562 1117.39,-427.461 1109.04,-420.934 1106.79,-427.562"/>
</g>
<!-- Node11&#45;&gt;Node6 -->
<g id="edge29" class="edge"><title>Node11&#45;&gt;Node6</title>
<path fill="none" stroke="midnightblue" d="M728.236,-273.708C819.494,-270.054 996.954,-262.948 1088.23,-259.293"/>
<polygon fill="midnightblue" stroke="midnightblue" points="1088.54,-262.784 1098.39,-258.886 1088.26,-255.789 1088.54,-262.784"/>
</g>
<!-- Node11&#45;&gt;Node10 -->
<g id="edge13" class="edge"><title>Node11&#45;&gt;Node10</title>
<path fill="none" stroke="midnightblue" d="M678.827,-266.262C694.142,-247.702 729.831,-206.815 767,-181 832.982,-135.173 853.389,-125.742 931,-105 984.165,-90.7914 1047.11,-86.6408 1091.01,-85.6792"/>
<polygon fill="midnightblue" stroke="midnightblue" points="1091.25,-89.1758 1101.18,-85.5059 1091.13,-82.1768 1091.25,-89.1758"/>
</g>
<!-- Node12 -->
<g id="node12" class="node"><title>Node12</title>
<g id="a_node12"><a xlink:href="utilstrencodings_8cpp.html#aed1944a78afffe9d5f3129e656dc8aa6" target="_top" xlink:title="EncodeBase32">
<polygon fill="white" stroke="black" points="787,-228.5 787,-247.5 875,-247.5 875,-228.5 787,-228.5"/>
<text text-anchor="middle" x="831" y="-235.5" font-family="Helvetica,sans-Serif" font-size="10.00">EncodeBase32</text>
</a>
</g>
</g>
<!-- Node11&#45;&gt;Node12 -->
<g id="edge14" class="edge"><title>Node11&#45;&gt;Node12</title>
<path fill="none" stroke="midnightblue" d="M711.122,-266.411C732.104,-261.396 757.982,-255.212 780.23,-249.895"/>
<polygon fill="midnightblue" stroke="midnightblue" points="781.254,-253.249 790.166,-247.52 779.626,-246.44 781.254,-253.249"/>
</g>
<!-- Node13 -->
<g id="node13" class="node"><title>Node13</title>
<g id="a_node13"><a xlink:href="class_c_service.html#ab0f791c174511056236119cc1580faeb" target="_top" xlink:title="CService::GetSockAddr">
<polygon fill="white" stroke="black" points="767,-190.5 767,-209.5 895,-209.5 895,-190.5 767,-190.5"/>
<text text-anchor="middle" x="831" y="-197.5" font-family="Helvetica,sans-Serif" font-size="10.00">CService::GetSockAddr</text>
</a>
</g>
</g>
<!-- Node11&#45;&gt;Node13 -->
<g id="edge16" class="edge"><title>Node11&#45;&gt;Node13</title>
<path fill="none" stroke="midnightblue" d="M684.736,-266.381C702.873,-254.031 736.128,-232.579 767,-219 772.098,-216.758 777.539,-214.681 783.007,-212.787"/>
<polygon fill="midnightblue" stroke="midnightblue" points="784.395,-216.015 792.812,-209.58 782.219,-209.362 784.395,-216.015"/>
</g>
<!-- Node13&#45;&gt;Node6 -->
<g id="edge17" class="edge"><title>Node13&#45;&gt;Node6</title>
<path fill="none" stroke="midnightblue" d="M895.03,-200.255C939.928,-201.675 1001.39,-206.153 1054,-219 1076.28,-224.44 1100.17,-234.519 1117.95,-242.93"/>
<polygon fill="midnightblue" stroke="midnightblue" points="1116.62,-246.178 1127.15,-247.392 1119.68,-239.879 1116.62,-246.178"/>
</g>
<!-- Node14 -->
<g id="node14" class="node"><title>Node14</title>
<g id="a_node14"><a xlink:href="class_c_net_addr.html#aa2e2c78db01a6a27d6a2740f2ba43e90" target="_top" xlink:title="CNetAddr::GetInAddr">
<polygon fill="white" stroke="black" points="934,-152.5 934,-171.5 1051,-171.5 1051,-152.5 934,-152.5"/>
<text text-anchor="middle" x="992.5" y="-159.5" font-family="Helvetica,sans-Serif" font-size="10.00">CNetAddr::GetInAddr</text>
</a>
</g>
</g>
<!-- Node13&#45;&gt;Node14 -->
<g id="edge18" class="edge"><title>Node13&#45;&gt;Node14</title>
<path fill="none" stroke="midnightblue" d="M872.249,-190.411C893.296,-185.396 919.255,-179.212 941.573,-173.895"/>
<polygon fill="midnightblue" stroke="midnightblue" points="942.624,-177.242 951.541,-171.52 941.002,-170.433 942.624,-177.242"/>
</g>
<!-- Node18 -->
<g id="node18" class="node"><title>Node18</title>
<g id="a_node18"><a xlink:href="class_c_net_addr.html#a0edb022cd6a186de8099799415409d57" target="_top" xlink:title="CNetAddr::IsIPv6">
<polygon fill="white" stroke="black" points="944.5,-228.5 944.5,-247.5 1040.5,-247.5 1040.5,-228.5 944.5,-228.5"/>
<text text-anchor="middle" x="992.5" y="-235.5" font-family="Helvetica,sans-Serif" font-size="10.00">CNetAddr::IsIPv6</text>
</a>
</g>
</g>
<!-- Node13&#45;&gt;Node18 -->
<g id="edge23" class="edge"><title>Node13&#45;&gt;Node18</title>
<path fill="none" stroke="midnightblue" d="M872.249,-209.589C893.296,-214.604 919.255,-220.788 941.573,-226.105"/>
<polygon fill="midnightblue" stroke="midnightblue" points="941.002,-229.567 951.541,-228.48 942.624,-222.758 941.002,-229.567"/>
</g>
<!-- Node19 -->
<g id="node19" class="node"><title>Node19</title>
<g id="a_node19"><a xlink:href="class_c_net_addr.html#add7811be50f5fe60c4fa65b461dea98c" target="_top" xlink:title="CNetAddr::GetIn6Addr">
<polygon fill="white" stroke="black" points="931,-114.5 931,-133.5 1054,-133.5 1054,-114.5 931,-114.5"/>
<text text-anchor="middle" x="992.5" y="-121.5" font-family="Helvetica,sans-Serif" font-size="10.00">CNetAddr::GetIn6Addr</text>
</a>
</g>
</g>
<!-- Node13&#45;&gt;Node19 -->
<g id="edge27" class="edge"><title>Node13&#45;&gt;Node19</title>
<path fill="none" stroke="midnightblue" d="M846.238,-190.468C865.019,-178.213 899.397,-156.862 931,-143 936.041,-140.789 941.421,-138.717 946.815,-136.814"/>
<polygon fill="midnightblue" stroke="midnightblue" points="948.1,-140.074 956.469,-133.577 945.875,-133.437 948.1,-140.074"/>
</g>
<!-- Node14&#45;&gt;Node6 -->
<g id="edge19" class="edge"><title>Node14&#45;&gt;Node6</title>
<path fill="none" stroke="midnightblue" d="M1022.28,-171.517C1032.58,-175.412 1044.09,-180.341 1054,-186 1081.46,-201.678 1109.71,-224.888 1127.42,-240.459"/>
<polygon fill="midnightblue" stroke="midnightblue" points="1125.43,-243.372 1135.22,-247.423 1130.09,-238.151 1125.43,-243.372"/>
</g>
<!-- Node15 -->
<g id="node15" class="node"><title>Node15</title>
<g id="a_node15"><a xlink:href="glibc__compat_8cpp.html#a0f46826ab0466591e136db24394923cf" target="_top" xlink:title="memcpy">
<polygon fill="white" stroke="black" points="1117,-133.5 1117,-152.5 1176,-152.5 1176,-133.5 1117,-133.5"/>
<text text-anchor="middle" x="1146.5" y="-140.5" font-family="Helvetica,sans-Serif" font-size="10.00">memcpy</text>
</a>
</g>
</g>
<!-- Node14&#45;&gt;Node15 -->
<g id="edge20" class="edge"><title>Node14&#45;&gt;Node15</title>
<path fill="none" stroke="midnightblue" d="M1051.4,-154.763C1069.88,-152.453 1089.88,-149.953 1106.66,-147.854"/>
<polygon fill="midnightblue" stroke="midnightblue" points="1107.17,-151.318 1116.66,-146.605 1106.3,-144.372 1107.17,-151.318"/>
</g>
<!-- Node16 -->
<g id="node16" class="node"><title>Node16</title>
<g id="a_node16"><a xlink:href="glibc__compat_8cpp.html#a9778d49e9029dd75bc53ecbbf9f5e9a1" target="_top" xlink:title="memmove">
<polygon fill="white" stroke="black" points="1239,-152.5 1239,-171.5 1308,-171.5 1308,-152.5 1239,-152.5"/>
<text text-anchor="middle" x="1273.5" y="-159.5" font-family="Helvetica,sans-Serif" font-size="10.00">memmove</text>
</a>
</g>
</g>
<!-- Node15&#45;&gt;Node16 -->
<g id="edge21" class="edge"><title>Node15&#45;&gt;Node16</title>
<path fill="none" stroke="midnightblue" d="M1176.18,-147.359C1191.72,-149.722 1211.26,-152.692 1228.67,-155.338"/>
<polygon fill="midnightblue" stroke="midnightblue" points="1228.22,-158.81 1238.63,-156.852 1229.27,-151.889 1228.22,-158.81"/>
</g>
<!-- Node17 -->
<g id="node17" class="node"><title>Node17</title>
<g id="a_node17"><a xlink:href="glibc__compat_8cpp.html#a424ac71631da5ada2976630ff67051d1" target="_top" xlink:title="__chk_fail">
<polygon fill="white" stroke="black" points="1242.5,-114.5 1242.5,-133.5 1304.5,-133.5 1304.5,-114.5 1242.5,-114.5"/>
<text text-anchor="middle" x="1273.5" y="-121.5" font-family="Helvetica,sans-Serif" font-size="10.00">__chk_fail</text>
</a>
</g>
</g>
<!-- Node15&#45;&gt;Node17 -->
<g id="edge22" class="edge"><title>Node15&#45;&gt;Node17</title>
<path fill="none" stroke="midnightblue" d="M1176.18,-138.641C1192.76,-136.12 1213.9,-132.907 1232.14,-130.134"/>
<polygon fill="midnightblue" stroke="midnightblue" points="1232.85,-133.567 1242.21,-128.604 1231.8,-126.646 1232.85,-133.567"/>
</g>
<!-- Node18&#45;&gt;Node5 -->
<g id="edge26" class="edge"><title>Node18&#45;&gt;Node5</title>
<path fill="none" stroke="midnightblue" d="M1000.83,-247.598C1024.76,-278.924 1100.82,-378.501 1131.98,-419.304"/>
<polygon fill="midnightblue" stroke="midnightblue" points="1129.39,-421.676 1138.24,-427.498 1134.95,-417.427 1129.39,-421.676"/>
</g>
<!-- Node18&#45;&gt;Node6 -->
<g id="edge24" class="edge"><title>Node18&#45;&gt;Node6</title>
<path fill="none" stroke="midnightblue" d="M1040.76,-243.908C1055.77,-245.784 1072.54,-247.88 1088.18,-249.835"/>
<polygon fill="midnightblue" stroke="midnightblue" points="1087.91,-253.329 1098.27,-251.096 1088.78,-246.383 1087.91,-253.329"/>
</g>
<!-- Node18&#45;&gt;Node10 -->
<g id="edge25" class="edge"><title>Node18&#45;&gt;Node10</title>
<path fill="none" stroke="midnightblue" d="M1005.49,-228.283C1018.35,-217.52 1038.95,-199.264 1054,-181 1073.06,-157.877 1069.21,-145.576 1090,-124 1098.5,-115.18 1109.35,-107.208 1119.2,-100.87"/>
<polygon fill="midnightblue" stroke="midnightblue" points="1121.19,-103.756 1127.87,-95.5316 1117.52,-97.796 1121.19,-103.756"/>
</g>
<!-- Node19&#45;&gt;Node15 -->
<g id="edge28" class="edge"><title>Node19&#45;&gt;Node15</title>
<path fill="none" stroke="midnightblue" d="M1054.01,-131.564C1071.8,-133.788 1090.78,-136.16 1106.81,-138.164"/>
<polygon fill="midnightblue" stroke="midnightblue" points="1106.52,-141.655 1116.88,-139.422 1107.39,-134.709 1106.52,-141.655"/>
</g>
</g>
</svg>
