<?xml version="1.0" encoding="UTF-8" standalone="no"?>
<!DOCTYPE svg PUBLIC "-//W3C//DTD SVG 1.1//EN"
 "http://www.w3.org/Graphics/SVG/1.1/DTD/svg11.dtd">
<!-- Generated by graphviz version 2.49.3 (0)
 -->
<!-- Title: AbstractThresholdConditionChecker::BeginTime Pages: 1 -->
<svg width="737pt" height="88pt"
 viewBox="0.00 0.00 737.00 88.00" xmlns="http://www.w3.org/2000/svg" xmlns:xlink="http://www.w3.org/1999/xlink">
<g id="graph0" class="graph" transform="scale(1 1) rotate(0) translate(4 84)">
<title>AbstractThresholdConditionChecker::BeginTime</title>
<polygon fill="white" stroke="transparent" points="-4,4 -4,-84 733,-84 733,4 -4,4"/>
<!-- Node1 -->
<g id="node1" class="node">
<title>Node1</title>
<g id="a_node1"><a xlink:title=" ">
<polygon fill="#bfbfbf" stroke="black" points="577,-22.5 577,-52.5 729,-52.5 729,-22.5 577,-22.5"/>
<text text-anchor="start" x="585" y="-40.5" font-family="Helvetica,sans-Serif" font-size="10.00">AbstractThresholdCondition</text>
<text text-anchor="middle" x="653" y="-29.5" font-family="Helvetica,sans-Serif" font-size="10.00">Checker::BeginTime</text>
</a>
</g>
</g>
<!-- Node2 -->
<g id="node2" class="node">
<title>Node2</title>
<g id="a_node2"><a xlink:href="class_abstract_threshold_condition_checker.html#a7986d06396d52f6961d7c983dc68b8f3" target="_top" xlink:title="Returns the state for pindex A based on parent pindexPrev B.">
<polygon fill="white" stroke="black" points="389,-44.5 389,-74.5 541,-74.5 541,-44.5 389,-44.5"/>
<text text-anchor="start" x="397" y="-62.5" font-family="Helvetica,sans-Serif" font-size="10.00">AbstractThresholdCondition</text>
<text text-anchor="middle" x="465" y="-51.5" font-family="Helvetica,sans-Serif" font-size="10.00">Checker::GetStateFor</text>
</a>
</g>
</g>
<!-- Node1&#45;&gt;Node2 -->
<g id="edge1" class="edge">
<title>Node1&#45;&gt;Node2</title>
<path fill="none" stroke="midnightblue" d="M566.85,-47.57C558.26,-48.59 549.57,-49.61 541.1,-50.62"/>
<polygon fill="midnightblue" stroke="midnightblue" points="567.36,-51.04 576.88,-46.38 566.54,-44.08 567.36,-51.04"/>
</g>
<!-- Node5 -->
<g id="node5" class="node">
<title>Node5</title>
<g id="a_node5"><a xlink:href="class_abstract_threshold_condition_checker.html#aa00a2bee3e85de7445422cab3dfd1ced" target="_top" xlink:title="Returns the height since when the ThresholdState has started for pindex A based on parent pindexPrev ...">
<polygon fill="white" stroke="black" points="175,-0.5 175,-30.5 353,-30.5 353,-0.5 175,-0.5"/>
<text text-anchor="start" x="183" y="-18.5" font-family="Helvetica,sans-Serif" font-size="10.00">AbstractThresholdCondition</text>
<text text-anchor="middle" x="264" y="-7.5" font-family="Helvetica,sans-Serif" font-size="10.00">Checker::GetStateSinceHeightFor</text>
</a>
</g>
</g>
<!-- Node1&#45;&gt;Node5 -->
<g id="edge6" class="edge">
<title>Node1&#45;&gt;Node5</title>
<path fill="none" stroke="midnightblue" d="M566.56,-32.64C503.19,-29.04 417.06,-24.14 353.08,-20.51"/>
<polygon fill="midnightblue" stroke="midnightblue" points="566.74,-36.16 576.92,-33.23 567.14,-29.17 566.74,-36.16"/>
</g>
<!-- Node3 -->
<g id="node3" class="node">
<title>Node3</title>
<g id="a_node3"><a xlink:href="class_test_condition_checker.html#a8b92db2b56cc395d786006c25e4df170" target="_top" xlink:title=" ">
<polygon fill="white" stroke="black" points="203,-49.5 203,-79.5 325,-79.5 325,-49.5 203,-49.5"/>
<text text-anchor="start" x="211" y="-67.5" font-family="Helvetica,sans-Serif" font-size="10.00">TestConditionChecker</text>
<text text-anchor="middle" x="264" y="-56.5" font-family="Helvetica,sans-Serif" font-size="10.00">::GetStateFor</text>
</a>
</g>
</g>
<!-- Node2&#45;&gt;Node3 -->
<g id="edge2" class="edge">
<title>Node2&#45;&gt;Node3</title>
<path fill="none" stroke="midnightblue" d="M378.56,-61.65C360.58,-62.1 341.98,-62.57 325.16,-62.99"/>
<polygon fill="midnightblue" stroke="midnightblue" points="378.86,-65.14 388.77,-61.39 378.68,-58.14 378.86,-65.14"/>
</g>
<!-- Node2&#45;&gt;Node5 -->
<g id="edge4" class="edge">
<title>Node2&#45;&gt;Node5</title>
<path fill="none" stroke="midnightblue" d="M385.9,-42.23C368.41,-38.36 350,-34.29 332.96,-30.53"/>
<polygon fill="midnightblue" stroke="midnightblue" points="385.55,-45.74 396.07,-44.48 387.06,-38.9 385.55,-45.74"/>
</g>
<!-- Node4 -->
<g id="node4" class="node">
<title>Node4</title>
<g id="a_node4"><a xlink:href="class_version_bits_tester.html#a05b3967e52f27c50bfe28800ba72db04" target="_top" xlink:title=" ">
<polygon fill="white" stroke="black" points="16,-49.5 16,-79.5 123,-79.5 123,-49.5 16,-49.5"/>
<text text-anchor="start" x="24" y="-67.5" font-family="Helvetica,sans-Serif" font-size="10.00">VersionBitsTester::</text>
<text text-anchor="middle" x="69.5" y="-56.5" font-family="Helvetica,sans-Serif" font-size="10.00">TestState</text>
</a>
</g>
</g>
<!-- Node3&#45;&gt;Node4 -->
<g id="edge3" class="edge">
<title>Node3&#45;&gt;Node4</title>
<path fill="none" stroke="midnightblue" d="M192.81,-64.5C169.75,-64.5 144.53,-64.5 123.01,-64.5"/>
<polygon fill="midnightblue" stroke="midnightblue" points="192.88,-68 202.88,-64.5 192.88,-61 192.88,-68"/>
</g>
<!-- Node6 -->
<g id="node6" class="node">
<title>Node6</title>
<g id="a_node6"><a xlink:href="class_test_condition_checker.html#ab541ead35fd4b3b3c6c202bb60cb1bc5" target="_top" xlink:title=" ">
<polygon fill="white" stroke="black" points="0,-0.5 0,-30.5 139,-30.5 139,-0.5 0,-0.5"/>
<text text-anchor="start" x="8" y="-18.5" font-family="Helvetica,sans-Serif" font-size="10.00">TestConditionChecker</text>
<text text-anchor="middle" x="69.5" y="-7.5" font-family="Helvetica,sans-Serif" font-size="10.00">::GetStateSinceHeightFor</text>
</a>
</g>
</g>
<!-- Node5&#45;&gt;Node6 -->
<g id="edge5" class="edge">
<title>Node5&#45;&gt;Node6</title>
<path fill="none" stroke="midnightblue" d="M164.79,-15.5C156.15,-15.5 147.54,-15.5 139.22,-15.5"/>
<polygon fill="midnightblue" stroke="midnightblue" points="164.92,-19 174.92,-15.5 164.92,-12 164.92,-19"/>
</g>
</g>
</svg>
