<?xml version="1.0" encoding="UTF-8" standalone="no"?>
<!DOCTYPE svg PUBLIC "-//W3C//DTD SVG 1.1//EN"
 "http://www.w3.org/Graphics/SVG/1.1/DTD/svg11.dtd">
<!-- Generated by graphviz version 2.38.0 (20140413.2041)
 -->
<!-- Title: WalletModel::getWalletName Pages: 1 -->
<svg width="1443pt" height="326pt"
 viewBox="0.00 0.00 1443.00 325.50" xmlns="http://www.w3.org/2000/svg" xmlns:xlink="http://www.w3.org/1999/xlink">
<g id="graph0" class="graph" transform="scale(1 1) rotate(0) translate(4 321.5)">
<title>WalletModel::getWalletName</title>
<polygon fill="white" stroke="none" points="-4,4 -4,-321.5 1439,-321.5 1439,4 -4,4"/>
<!-- Node1 -->
<g id="node1" class="node"><title>Node1</title>
<polygon fill="#bfbfbf" stroke="black" points="0,-153.5 0,-172.5 152,-172.5 152,-153.5 0,-153.5"/>
<text text-anchor="middle" x="76" y="-160.5" font-family="Helvetica,sans-Serif" font-size="10.00">WalletModel::getWalletName</text>
</g>
<!-- Node2 -->
<g id="node2" class="node"><title>Node2</title>
<g id="a_node2"><a xlink:href="class_receive_request_dialog.html#a8e1c0ee2fbacf42b4dc7ea05986c86c9" target="_top" xlink:title="ReceiveRequestDialog\l::update">
<polygon fill="white" stroke="black" points="224.5,-238 224.5,-268 345.5,-268 345.5,-238 224.5,-238"/>
<text text-anchor="start" x="232.5" y="-256" font-family="Helvetica,sans-Serif" font-size="10.00">ReceiveRequestDialog</text>
<text text-anchor="middle" x="285" y="-245" font-family="Helvetica,sans-Serif" font-size="10.00">::update</text>
</a>
</g>
</g>
<!-- Node1&#45;&gt;Node2 -->
<g id="edge1" class="edge"><title>Node1&#45;&gt;Node2</title>
<path fill="none" stroke="midnightblue" d="M99.7133,-178.069C121.583,-192.045 155.97,-212.639 188,-226 199.505,-230.799 212.132,-235.035 224.34,-238.644"/>
<polygon fill="midnightblue" stroke="midnightblue" points="101.447,-175.022 91.1501,-172.526 97.6424,-180.898 101.447,-175.022"/>
</g>
<!-- Node7 -->
<g id="node7" class="node"><title>Node7</title>
<g id="a_node7"><a xlink:href="class_r_p_c_console.html#a49ae75439e266c6c114191d44c25bfe6" target="_top" xlink:title="Split shell command line into a list of arguments and optionally execute the command(s). ">
<polygon fill="white" stroke="black" points="188,-197.5 188,-216.5 382,-216.5 382,-197.5 188,-197.5"/>
<text text-anchor="middle" x="285" y="-204.5" font-family="Helvetica,sans-Serif" font-size="10.00">RPCConsole::RPCParseCommandLine</text>
</a>
</g>
</g>
<!-- Node1&#45;&gt;Node7 -->
<g id="edge7" class="edge"><title>Node1&#45;&gt;Node7</title>
<path fill="none" stroke="midnightblue" d="M130.6,-174.675C148.812,-178.619 169.286,-183.028 188,-187 204.154,-190.429 221.849,-194.131 237.598,-197.407"/>
<polygon fill="midnightblue" stroke="midnightblue" points="131.256,-171.235 120.741,-172.537 129.772,-178.077 131.256,-171.235"/>
</g>
<!-- Node9 -->
<g id="node9" class="node"><title>Node9</title>
<g id="a_node9"><a xlink:href="class_send_coins_dialog.html#a2cab7cf9ea5040b9e2189297f7d3c764" target="_top" xlink:title="SendCoinsDialog::on\l_sendButton_clicked">
<polygon fill="white" stroke="black" points="227,-148 227,-178 343,-178 343,-148 227,-148"/>
<text text-anchor="start" x="235" y="-166" font-family="Helvetica,sans-Serif" font-size="10.00">SendCoinsDialog::on</text>
<text text-anchor="middle" x="285" y="-155" font-family="Helvetica,sans-Serif" font-size="10.00">_sendButton_clicked</text>
</a>
</g>
</g>
<!-- Node1&#45;&gt;Node9 -->
<g id="edge9" class="edge"><title>Node1&#45;&gt;Node9</title>
<path fill="none" stroke="midnightblue" d="M162.248,-163C183.974,-163 206.809,-163 226.757,-163"/>
<polygon fill="midnightblue" stroke="midnightblue" points="162.024,-159.5 152.024,-163 162.024,-166.5 162.024,-159.5"/>
</g>
<!-- Node10 -->
<g id="node10" class="node"><title>Node10</title>
<g id="a_node10"><a xlink:href="class_wallet_model.html#a8c731ae43940a6976356989de4b9980c" target="_top" xlink:title="WalletModel::getDisplayName">
<polygon fill="white" stroke="black" points="418,-114.5 418,-133.5 576,-133.5 576,-114.5 418,-114.5"/>
<text text-anchor="middle" x="497" y="-121.5" font-family="Helvetica,sans-Serif" font-size="10.00">WalletModel::getDisplayName</text>
</a>
</g>
</g>
<!-- Node1&#45;&gt;Node10 -->
<g id="edge10" class="edge"><title>Node1&#45;&gt;Node10</title>
<path fill="none" stroke="midnightblue" d="M122.003,-150.972C142.057,-146.104 166.06,-140.946 188,-138 265.72,-127.564 355.353,-124.488 417.813,-123.765"/>
<polygon fill="midnightblue" stroke="midnightblue" points="121.068,-147.598 112.205,-153.403 122.754,-154.392 121.068,-147.598"/>
</g>
<!-- Node18 -->
<g id="node18" class="node"><title>Node18</title>
<g id="a_node18"><a xlink:href="class_wallet_view.html#addde7d2260658ee06f47f9c095a8cb2a" target="_top" xlink:title="Show incoming transaction notification for new transactions. ">
<polygon fill="white" stroke="black" points="193.5,-62.5 193.5,-81.5 376.5,-81.5 376.5,-62.5 193.5,-62.5"/>
<text text-anchor="middle" x="285" y="-69.5" font-family="Helvetica,sans-Serif" font-size="10.00">WalletView::processNewTransaction</text>
</a>
</g>
</g>
<!-- Node1&#45;&gt;Node18 -->
<g id="edge21" class="edge"><title>Node1&#45;&gt;Node18</title>
<path fill="none" stroke="midnightblue" d="M102.316,-148.374C124.477,-135.912 157.766,-118.008 188,-105 209.046,-95.9453 233.473,-87.5769 252.42,-81.5328"/>
<polygon fill="midnightblue" stroke="midnightblue" points="100.513,-145.373 93.5418,-153.351 103.967,-151.461 100.513,-145.373"/>
</g>
<!-- Node3 -->
<g id="node3" class="node"><title>Node3</title>
<g id="a_node3"><a xlink:href="class_receive_request_dialog.html#a2392a9b3bf94d7267dee0695049711a6" target="_top" xlink:title="ReceiveRequestDialog\l::setModel">
<polygon fill="white" stroke="black" points="436.5,-287 436.5,-317 557.5,-317 557.5,-287 436.5,-287"/>
<text text-anchor="start" x="444.5" y="-305" font-family="Helvetica,sans-Serif" font-size="10.00">ReceiveRequestDialog</text>
<text text-anchor="middle" x="497" y="-294" font-family="Helvetica,sans-Serif" font-size="10.00">::setModel</text>
</a>
</g>
</g>
<!-- Node2&#45;&gt;Node3 -->
<g id="edge2" class="edge"><title>Node2&#45;&gt;Node3</title>
<path fill="none" stroke="midnightblue" d="M355.454,-269.206C381.59,-275.304 411.058,-282.18 436.235,-288.055"/>
<polygon fill="midnightblue" stroke="midnightblue" points="356.15,-265.774 345.616,-266.91 354.559,-272.591 356.15,-265.774"/>
</g>
<!-- Node6 -->
<g id="node6" class="node"><title>Node6</title>
<g id="a_node6"><a xlink:href="class_receive_request_dialog.html#a43344270ef71e68ad9c7a931cc0ca9ed" target="_top" xlink:title="ReceiveRequestDialog\l::setInfo">
<polygon fill="white" stroke="black" points="436.5,-238 436.5,-268 557.5,-268 557.5,-238 436.5,-238"/>
<text text-anchor="start" x="444.5" y="-256" font-family="Helvetica,sans-Serif" font-size="10.00">ReceiveRequestDialog</text>
<text text-anchor="middle" x="497" y="-245" font-family="Helvetica,sans-Serif" font-size="10.00">::setInfo</text>
</a>
</g>
</g>
<!-- Node2&#45;&gt;Node6 -->
<g id="edge5" class="edge"><title>Node2&#45;&gt;Node6</title>
<path fill="none" stroke="midnightblue" d="M355.799,-253C381.849,-253 411.168,-253 436.235,-253"/>
<polygon fill="midnightblue" stroke="midnightblue" points="355.616,-249.5 345.616,-253 355.616,-256.5 355.616,-249.5"/>
</g>
<!-- Node4 -->
<g id="node4" class="node"><title>Node4</title>
<g id="a_node4"><a xlink:href="class_receive_coins_dialog.html#a5eabd6106c8e3b275305b84c0303f314" target="_top" xlink:title="ReceiveCoinsDialog\l::on_recentRequestsView\l_doubleClicked">
<polygon fill="white" stroke="black" points="619,-256.5 619,-297.5 755,-297.5 755,-256.5 619,-256.5"/>
<text text-anchor="start" x="627" y="-285.5" font-family="Helvetica,sans-Serif" font-size="10.00">ReceiveCoinsDialog</text>
<text text-anchor="start" x="627" y="-274.5" font-family="Helvetica,sans-Serif" font-size="10.00">::on_recentRequestsView</text>
<text text-anchor="middle" x="687" y="-263.5" font-family="Helvetica,sans-Serif" font-size="10.00">_doubleClicked</text>
</a>
</g>
</g>
<!-- Node3&#45;&gt;Node4 -->
<g id="edge3" class="edge"><title>Node3&#45;&gt;Node4</title>
<path fill="none" stroke="midnightblue" d="M567.958,-292.697C584.621,-290.481 602.365,-288.122 618.896,-285.923"/>
<polygon fill="midnightblue" stroke="midnightblue" points="567.194,-289.268 557.743,-294.055 568.117,-296.207 567.194,-289.268"/>
</g>
<!-- Node5 -->
<g id="node5" class="node"><title>Node5</title>
<g id="a_node5"><a xlink:href="class_receive_coins_dialog.html#a56df78045de75af55f4c4045ad4b7fcd" target="_top" xlink:title="ReceiveCoinsDialog\l::on_showRequestButton\l_clicked">
<polygon fill="white" stroke="black" points="802.5,-256.5 802.5,-297.5 936.5,-297.5 936.5,-256.5 802.5,-256.5"/>
<text text-anchor="start" x="810.5" y="-285.5" font-family="Helvetica,sans-Serif" font-size="10.00">ReceiveCoinsDialog</text>
<text text-anchor="start" x="810.5" y="-274.5" font-family="Helvetica,sans-Serif" font-size="10.00">::on_showRequestButton</text>
<text text-anchor="middle" x="869.5" y="-263.5" font-family="Helvetica,sans-Serif" font-size="10.00">_clicked</text>
</a>
</g>
</g>
<!-- Node4&#45;&gt;Node5 -->
<g id="edge4" class="edge"><title>Node4&#45;&gt;Node5</title>
<path fill="none" stroke="midnightblue" d="M765.459,-277C777.773,-277 790.412,-277 802.433,-277"/>
<polygon fill="midnightblue" stroke="midnightblue" points="765.212,-273.5 755.212,-277 765.212,-280.5 765.212,-273.5"/>
</g>
<!-- Node6&#45;&gt;Node4 -->
<g id="edge6" class="edge"><title>Node6&#45;&gt;Node4</title>
<path fill="none" stroke="midnightblue" d="M567.958,-261.931C584.621,-264.058 602.365,-266.323 618.896,-268.434"/>
<polygon fill="midnightblue" stroke="midnightblue" points="568.105,-258.421 557.743,-260.627 567.219,-265.365 568.105,-258.421"/>
</g>
<!-- Node8 -->
<g id="node8" class="node"><title>Node8</title>
<g id="a_node8"><a xlink:href="class_r_p_c_console.html#a2ab27700348f83acaee6ceb7c22225f8" target="_top" xlink:title="RPCConsole::on_lineEdit\l_returnPressed">
<polygon fill="white" stroke="black" points="431.5,-189 431.5,-219 562.5,-219 562.5,-189 431.5,-189"/>
<text text-anchor="start" x="439.5" y="-207" font-family="Helvetica,sans-Serif" font-size="10.00">RPCConsole::on_lineEdit</text>
<text text-anchor="middle" x="497" y="-196" font-family="Helvetica,sans-Serif" font-size="10.00">_returnPressed</text>
</a>
</g>
</g>
<!-- Node7&#45;&gt;Node8 -->
<g id="edge8" class="edge"><title>Node7&#45;&gt;Node8</title>
<path fill="none" stroke="midnightblue" d="M392.247,-205.482C405.542,-205.292 418.811,-205.103 431.2,-204.926"/>
<polygon fill="midnightblue" stroke="midnightblue" points="392.038,-201.985 382.089,-205.627 392.138,-208.984 392.038,-201.985"/>
</g>
<!-- Node11 -->
<g id="node11" class="node"><title>Node11</title>
<g id="a_node11"><a xlink:href="class_bitcoin_g_u_i.html#a99d71e1f8478ab937ce2522c8d3815e3" target="_top" xlink:title="Set the client model. ">
<polygon fill="white" stroke="black" points="798,-114.5 798,-133.5 941,-133.5 941,-114.5 798,-114.5"/>
<text text-anchor="middle" x="869.5" y="-121.5" font-family="Helvetica,sans-Serif" font-size="10.00">BitcoinGUI::setClientModel</text>
</a>
</g>
</g>
<!-- Node10&#45;&gt;Node11 -->
<g id="edge11" class="edge"><title>Node10&#45;&gt;Node11</title>
<path fill="none" stroke="midnightblue" d="M554.305,-135.277C572.624,-138.438 593.103,-141.436 612,-143 678.44,-148.499 695.593,-148.877 762,-143 782.953,-141.146 805.957,-137.277 825.207,-133.512"/>
<polygon fill="midnightblue" stroke="midnightblue" points="554.831,-131.816 544.373,-133.513 553.607,-138.708 554.831,-131.816"/>
</g>
<!-- Node17 -->
<g id="node17" class="node"><title>Node17</title>
<g id="a_node17"><a xlink:href="class_r_p_c_console.html#a355349a33664a07628e9ca22a60f5fa7" target="_top" xlink:title="RPCConsole::setClientModel">
<polygon fill="white" stroke="black" points="612,-114.5 612,-133.5 762,-133.5 762,-114.5 612,-114.5"/>
<text text-anchor="middle" x="687" y="-121.5" font-family="Helvetica,sans-Serif" font-size="10.00">RPCConsole::setClientModel</text>
</a>
</g>
</g>
<!-- Node10&#45;&gt;Node17 -->
<g id="edge19" class="edge"><title>Node10&#45;&gt;Node17</title>
<path fill="none" stroke="midnightblue" d="M586.119,-124C594.698,-124 603.343,-124 611.766,-124"/>
<polygon fill="midnightblue" stroke="midnightblue" points="586.096,-120.5 576.096,-124 586.096,-127.5 586.096,-120.5"/>
</g>
<!-- Node12 -->
<g id="node12" class="node"><title>Node12</title>
<g id="a_node12"><a xlink:href="class_bitcoin_application.html#a37c560d4c04d14a6da151b82caf8888f" target="_top" xlink:title="Request core shutdown. ">
<polygon fill="white" stroke="black" points="1251,-131 1251,-161 1358,-161 1358,-131 1251,-131"/>
<text text-anchor="start" x="1259" y="-149" font-family="Helvetica,sans-Serif" font-size="10.00">BitcoinApplication</text>
<text text-anchor="middle" x="1304.5" y="-138" font-family="Helvetica,sans-Serif" font-size="10.00">::requestShutdown</text>
</a>
</g>
</g>
<!-- Node11&#45;&gt;Node12 -->
<g id="edge12" class="edge"><title>Node11&#45;&gt;Node12</title>
<path fill="none" stroke="midnightblue" d="M951.192,-128.1C1038.75,-132.549 1176.02,-139.523 1250.73,-143.319"/>
<polygon fill="midnightblue" stroke="midnightblue" points="951.197,-124.596 941.033,-127.584 950.842,-131.587 951.197,-124.596"/>
</g>
<!-- Node14 -->
<g id="node14" class="node"><title>Node14</title>
<g id="a_node14"><a xlink:href="class_bitcoin_application.html#a5bcf1bf32a7508326e0dd630a59a887d" target="_top" xlink:title="BitcoinApplication\l::initializeResult">
<polygon fill="white" stroke="black" points="977,-87 977,-117 1078,-117 1078,-87 977,-87"/>
<text text-anchor="start" x="985" y="-105" font-family="Helvetica,sans-Serif" font-size="10.00">BitcoinApplication</text>
<text text-anchor="middle" x="1027.5" y="-94" font-family="Helvetica,sans-Serif" font-size="10.00">::initializeResult</text>
</a>
</g>
</g>
<!-- Node11&#45;&gt;Node14 -->
<g id="edge14" class="edge"><title>Node11&#45;&gt;Node14</title>
<path fill="none" stroke="midnightblue" d="M948.133,-113.052C957.868,-111.679 967.61,-110.305 976.754,-109.016"/>
<polygon fill="midnightblue" stroke="midnightblue" points="947.43,-109.616 938.017,-114.478 948.407,-116.548 947.43,-109.616"/>
</g>
<!-- Node13 -->
<g id="node13" class="node"><title>Node13</title>
<g id="a_node13"><a xlink:href="bitcoin_8cpp.html#a0ddf1224851353fc92bfbff6f499fa97" target="_top" xlink:title="main">
<polygon fill="white" stroke="black" points="1394,-111.5 1394,-130.5 1435,-130.5 1435,-111.5 1394,-111.5"/>
<text text-anchor="middle" x="1414.5" y="-118.5" font-family="Helvetica,sans-Serif" font-size="10.00">main</text>
</a>
</g>
</g>
<!-- Node12&#45;&gt;Node13 -->
<g id="edge13" class="edge"><title>Node12&#45;&gt;Node13</title>
<path fill="none" stroke="midnightblue" d="M1368.06,-131.518C1377.42,-129.353 1386.42,-127.269 1393.91,-125.535"/>
<polygon fill="midnightblue" stroke="midnightblue" points="1367.19,-128.128 1358.23,-133.793 1368.77,-134.948 1367.19,-128.128"/>
</g>
<!-- Node15 -->
<g id="node15" class="node"><title>Node15</title>
<g id="a_node15"><a xlink:href="class_bitcoin_application.html#a61afce9356e452c53ad4c83f5ca19df8" target="_top" xlink:title="BitcoinApplication\l::startThread">
<polygon fill="white" stroke="black" points="1114,-87 1114,-117 1215,-117 1215,-87 1114,-87"/>
<text text-anchor="start" x="1122" y="-105" font-family="Helvetica,sans-Serif" font-size="10.00">BitcoinApplication</text>
<text text-anchor="middle" x="1164.5" y="-94" font-family="Helvetica,sans-Serif" font-size="10.00">::startThread</text>
</a>
</g>
</g>
<!-- Node14&#45;&gt;Node15 -->
<g id="edge15" class="edge"><title>Node14&#45;&gt;Node15</title>
<path fill="none" stroke="midnightblue" d="M1088.21,-102C1096.67,-102 1105.3,-102 1113.55,-102"/>
<polygon fill="midnightblue" stroke="midnightblue" points="1088,-98.5001 1078,-102 1088,-105.5 1088,-98.5001"/>
</g>
<!-- Node15&#45;&gt;Node12 -->
<g id="edge18" class="edge"><title>Node15&#45;&gt;Node12</title>
<path fill="none" stroke="midnightblue" d="M1222.34,-120.121C1233.57,-123.704 1245.25,-127.429 1256.14,-130.899"/>
<polygon fill="midnightblue" stroke="midnightblue" points="1223.2,-116.722 1212.61,-117.019 1221.07,-123.392 1223.2,-116.722"/>
</g>
<!-- Node16 -->
<g id="node16" class="node"><title>Node16</title>
<g id="a_node16"><a xlink:href="class_bitcoin_application.html#ade19c44b87b00b6b19b433caf4c22ba6" target="_top" xlink:title="Request core initialization. ">
<polygon fill="white" stroke="black" points="1254,-82 1254,-112 1355,-112 1355,-82 1254,-82"/>
<text text-anchor="start" x="1262" y="-100" font-family="Helvetica,sans-Serif" font-size="10.00">BitcoinApplication</text>
<text text-anchor="middle" x="1304.5" y="-89" font-family="Helvetica,sans-Serif" font-size="10.00">::requestInitialize</text>
</a>
</g>
</g>
<!-- Node15&#45;&gt;Node16 -->
<g id="edge16" class="edge"><title>Node15&#45;&gt;Node16</title>
<path fill="none" stroke="midnightblue" d="M1225.45,-99.828C1234.89,-99.4858 1244.57,-99.1352 1253.75,-98.8025"/>
<polygon fill="midnightblue" stroke="midnightblue" points="1225.19,-96.335 1215.32,-100.195 1225.44,-103.33 1225.19,-96.335"/>
</g>
<!-- Node16&#45;&gt;Node13 -->
<g id="edge17" class="edge"><title>Node16&#45;&gt;Node13</title>
<path fill="none" stroke="midnightblue" d="M1365.08,-110.241C1375.49,-112.552 1385.61,-114.802 1393.89,-116.642"/>
<polygon fill="midnightblue" stroke="midnightblue" points="1365.6,-106.769 1355.07,-108.017 1364.08,-113.603 1365.6,-106.769"/>
</g>
<!-- Node17&#45;&gt;Node11 -->
<g id="edge20" class="edge"><title>Node17&#45;&gt;Node11</title>
<path fill="none" stroke="midnightblue" d="M772.475,-124C780.944,-124 789.482,-124 797.787,-124"/>
<polygon fill="midnightblue" stroke="midnightblue" points="772.198,-120.5 762.198,-124 772.198,-127.5 772.198,-120.5"/>
</g>
<!-- Node19 -->
<g id="node19" class="node"><title>Node19</title>
<g id="a_node19"><a xlink:href="class_wallet_view.html#a0a37ff693a4f9c1e5ddc23f9cd3913be" target="_top" xlink:title="Set the wallet model. ">
<polygon fill="white" stroke="black" points="425.5,-43.5 425.5,-62.5 568.5,-62.5 568.5,-43.5 425.5,-43.5"/>
<text text-anchor="middle" x="497" y="-50.5" font-family="Helvetica,sans-Serif" font-size="10.00">WalletView::setWalletModel</text>
</a>
</g>
</g>
<!-- Node18&#45;&gt;Node19 -->
<g id="edge22" class="edge"><title>Node18&#45;&gt;Node19</title>
<path fill="none" stroke="midnightblue" d="M386.572,-62.9007C399.675,-61.7151 412.871,-60.5212 425.341,-59.393"/>
<polygon fill="midnightblue" stroke="midnightblue" points="386.227,-59.4175 376.583,-63.8044 386.857,-66.389 386.227,-59.4175"/>
</g>
<!-- Node20 -->
<g id="node20" class="node"><title>Node20</title>
<g id="a_node20"><a xlink:href="class_wallet_frame.html#a06cb28194836995e50cc46716b2227ff" target="_top" xlink:title="WalletFrame::addWallet">
<polygon fill="white" stroke="black" points="624,-76.5 624,-95.5 750,-95.5 750,-76.5 624,-76.5"/>
<text text-anchor="middle" x="687" y="-83.5" font-family="Helvetica,sans-Serif" font-size="10.00">WalletFrame::addWallet</text>
</a>
</g>
</g>
<!-- Node19&#45;&gt;Node20 -->
<g id="edge23" class="edge"><title>Node19&#45;&gt;Node20</title>
<path fill="none" stroke="midnightblue" d="M561.983,-64.2311C584.617,-68.204 609.844,-72.6322 631.606,-76.4521"/>
<polygon fill="midnightblue" stroke="midnightblue" points="562.58,-60.7824 552.125,-62.5007 561.369,-67.677 562.58,-60.7824"/>
</g>
<!-- Node21 -->
<g id="node21" class="node"><title>Node21</title>
<g id="a_node21"><a xlink:href="class_wallet_view.html#af74afee27526920cadb16622b1f836c1" target="_top" xlink:title="WalletView::getWalletModel">
<polygon fill="white" stroke="black" points="615.5,-38.5 615.5,-57.5 758.5,-57.5 758.5,-38.5 615.5,-38.5"/>
<text text-anchor="middle" x="687" y="-45.5" font-family="Helvetica,sans-Serif" font-size="10.00">WalletView::getWalletModel</text>
</a>
</g>
</g>
<!-- Node19&#45;&gt;Node21 -->
<g id="edge25" class="edge"><title>Node19&#45;&gt;Node21</title>
<path fill="none" stroke="midnightblue" d="M578.699,-50.8537C590.902,-50.5292 603.41,-50.1965 615.378,-49.8782"/>
<polygon fill="midnightblue" stroke="midnightblue" points="578.443,-47.3592 568.539,-51.124 578.629,-54.3568 578.443,-47.3592"/>
</g>
<!-- Node20&#45;&gt;Node11 -->
<g id="edge24" class="edge"><title>Node20&#45;&gt;Node11</title>
<path fill="none" stroke="midnightblue" d="M743.485,-97.681C769.082,-103.07 799.084,-109.386 823.28,-114.48"/>
<polygon fill="midnightblue" stroke="midnightblue" points="744.054,-94.2243 733.548,-95.589 742.612,-101.074 744.054,-94.2243"/>
</g>
<!-- Node22 -->
<g id="node22" class="node"><title>Node22</title>
<g id="a_node22"><a xlink:href="class_bitcoin_g_u_i.html#aeee2453bf1a3fb39bb22757e21f676d4" target="_top" xlink:title="BitcoinGUI::eventFilter">
<polygon fill="white" stroke="black" points="808.5,-38.5 808.5,-57.5 930.5,-57.5 930.5,-38.5 808.5,-38.5"/>
<text text-anchor="middle" x="869.5" y="-45.5" font-family="Helvetica,sans-Serif" font-size="10.00">BitcoinGUI::eventFilter</text>
</a>
</g>
</g>
<!-- Node21&#45;&gt;Node22 -->
<g id="edge26" class="edge"><title>Node21&#45;&gt;Node22</title>
<path fill="none" stroke="midnightblue" d="M768.657,-48C781.956,-48 795.536,-48 808.225,-48"/>
<polygon fill="midnightblue" stroke="midnightblue" points="768.562,-44.5001 758.562,-48 768.561,-51.5001 768.562,-44.5001"/>
</g>
<!-- Node23 -->
<g id="node23" class="node"><title>Node23</title>
<g id="a_node23"><a xlink:href="class_wallet_view.html#a8a1f4b689abc0f1073c547ec1f871a26" target="_top" xlink:title="Show progress dialog e.g. ">
<polygon fill="white" stroke="black" points="801,-0.5 801,-19.5 938,-19.5 938,-0.5 801,-0.5"/>
<text text-anchor="middle" x="869.5" y="-7.5" font-family="Helvetica,sans-Serif" font-size="10.00">WalletView::showProgress</text>
</a>
</g>
</g>
<!-- Node21&#45;&gt;Node23 -->
<g id="edge27" class="edge"><title>Node21&#45;&gt;Node23</title>
<path fill="none" stroke="midnightblue" d="M743.485,-36.319C769.082,-30.9301 799.084,-24.6139 823.28,-19.5201"/>
<polygon fill="midnightblue" stroke="midnightblue" points="742.612,-32.9259 733.548,-38.411 744.054,-39.7757 742.612,-32.9259"/>
</g>
<!-- Node23&#45;&gt;Node19 -->
<g id="edge28" class="edge"><title>Node23&#45;&gt;Node19</title>
<path fill="none" stroke="midnightblue" d="M790.709,-13.0578C739.705,-15.7273 671.665,-20.5482 612,-29 586.768,-32.5742 558.757,-38.4441 536.816,-43.4839"/>
<polygon fill="midnightblue" stroke="midnightblue" points="791.189,-16.538 800.999,-12.5362 790.835,-9.54701 791.189,-16.538"/>
</g>
</g>
</svg>
