<?xml version="1.0" encoding="UTF-8" standalone="no"?>
<!DOCTYPE svg PUBLIC "-//W3C//DTD SVG 1.1//EN"
 "http://www.w3.org/Graphics/SVG/1.1/DTD/svg11.dtd">
<!-- Generated by graphviz version 2.49.3 (0)
 -->
<!-- Title: BlockManager::FindForkInGlobalIndex Pages: 1 -->
<svg width="469pt" height="278pt"
 viewBox="0.00 0.00 469.00 277.51" xmlns="http://www.w3.org/2000/svg" xmlns:xlink="http://www.w3.org/1999/xlink">
<g id="graph0" class="graph" transform="scale(1 1) rotate(0) translate(4 273.51)">
<title>BlockManager::FindForkInGlobalIndex</title>
<polygon fill="white" stroke="transparent" points="-4,4 -4,-273.51 465,-273.51 465,4 -4,4"/>
<!-- Node1 -->
<g id="node1" class="node">
<title>Node1</title>
<g id="a_node1"><a xlink:title="Find the last common block between the parameter chain and a locator.">
<polygon fill="#bfbfbf" stroke="black" points="0,-121 0,-151 143,-151 143,-121 0,-121"/>
<text text-anchor="start" x="8" y="-139" font-family="Helvetica,sans-Serif" font-size="10.00">BlockManager::FindForkIn</text>
<text text-anchor="middle" x="71.5" y="-128" font-family="Helvetica,sans-Serif" font-size="10.00">GlobalIndex</text>
</a>
</g>
</g>
<!-- Node2 -->
<g id="node2" class="node">
<title>Node2</title>
<g id="a_node2"><a xlink:href="validation_8cpp.html#abee2920f50f82cc5721ae2cd3f1c4f95" target="_top" xlink:title=" ">
<polygon fill="white" stroke="black" points="369,-151.5 369,-170.5 461,-170.5 461,-151.5 369,-151.5"/>
<text text-anchor="middle" x="415" y="-158.5" font-family="Helvetica,sans-Serif" font-size="10.00">AssertLockHeld</text>
</a>
</g>
</g>
<!-- Node1&#45;&gt;Node2 -->
<g id="edge1" class="edge">
<title>Node1&#45;&gt;Node2</title>
<path fill="none" stroke="midnightblue" d="M80.95,-151.02C96.47,-176.84 132.22,-228.81 179,-249 241.84,-276.13 270.32,-276.5 333,-249 365.32,-234.82 390.43,-200.68 403.66,-179.33"/>
<polygon fill="midnightblue" stroke="midnightblue" points="406.78,-180.93 408.88,-170.54 400.76,-177.35 406.78,-180.93"/>
</g>
<!-- Node3 -->
<g id="node3" class="node">
<title>Node3</title>
<g id="a_node3"><a xlink:href="class_c_chain.html#af1786dc229c215dea7f727c11df2c8dc" target="_top" xlink:title="Efficiently check whether a block is present in this chain.">
<polygon fill="white" stroke="black" points="206,-220.5 206,-239.5 306,-239.5 306,-220.5 206,-220.5"/>
<text text-anchor="middle" x="256" y="-227.5" font-family="Helvetica,sans-Serif" font-size="10.00">CChain::Contains</text>
</a>
</g>
</g>
<!-- Node1&#45;&gt;Node3 -->
<g id="edge2" class="edge">
<title>Node1&#45;&gt;Node3</title>
<path fill="none" stroke="midnightblue" d="M89.71,-151.19C109.8,-168.15 144.66,-195.28 179,-211 184.39,-213.47 190.14,-215.64 195.98,-217.56"/>
<polygon fill="midnightblue" stroke="midnightblue" points="195.26,-221 205.84,-220.54 197.28,-214.29 195.26,-221"/>
</g>
<!-- Node4 -->
<g id="node4" class="node">
<title>Node4</title>
<g id="a_node4"><a xlink:href="class_c_chain.html#a7490a223fd4029a92c9ac3d7d4f20ec6" target="_top" xlink:title="Returns the index entry for the genesis block of this chain, or nullptr if none.">
<polygon fill="white" stroke="black" points="208,-182.5 208,-201.5 304,-201.5 304,-182.5 208,-182.5"/>
<text text-anchor="middle" x="256" y="-189.5" font-family="Helvetica,sans-Serif" font-size="10.00">CChain::Genesis</text>
</a>
</g>
</g>
<!-- Node1&#45;&gt;Node4 -->
<g id="edge3" class="edge">
<title>Node1&#45;&gt;Node4</title>
<path fill="none" stroke="midnightblue" d="M112.93,-151C132.72,-158.1 156.96,-166.43 179,-173 187.06,-175.4 195.65,-177.75 204.06,-179.93"/>
<polygon fill="midnightblue" stroke="midnightblue" points="203.24,-183.34 213.8,-182.41 204.97,-176.55 203.24,-183.34"/>
</g>
<!-- Node5 -->
<g id="node5" class="node">
<title>Node5</title>
<g id="a_node5"><a xlink:href="class_c_block_index.html#ae1f702384690c6b8302e026a84172ef3" target="_top" xlink:title="Efficiently find an ancestor of this block.">
<polygon fill="white" stroke="black" points="184.5,-126.5 184.5,-145.5 327.5,-145.5 327.5,-126.5 184.5,-126.5"/>
<text text-anchor="middle" x="256" y="-133.5" font-family="Helvetica,sans-Serif" font-size="10.00">CBlockIndex::GetAncestor</text>
</a>
</g>
</g>
<!-- Node1&#45;&gt;Node5 -->
<g id="edge4" class="edge">
<title>Node1&#45;&gt;Node5</title>
<path fill="none" stroke="midnightblue" d="M143.06,-136C153.22,-136 163.73,-136 174.07,-136"/>
<polygon fill="midnightblue" stroke="midnightblue" points="174.33,-139.5 184.33,-136 174.33,-132.5 174.33,-139.5"/>
</g>
<!-- Node6 -->
<g id="node6" class="node">
<title>Node6</title>
<g id="a_node6"><a xlink:href="class_c_chain.html#ad4758bc8872ce065a9579f77c3171d40" target="_top" xlink:title="Return the maximal height in the chain.">
<polygon fill="white" stroke="black" points="211.5,-88.5 211.5,-107.5 300.5,-107.5 300.5,-88.5 211.5,-88.5"/>
<text text-anchor="middle" x="256" y="-95.5" font-family="Helvetica,sans-Serif" font-size="10.00">CChain::Height</text>
</a>
</g>
</g>
<!-- Node1&#45;&gt;Node6 -->
<g id="edge6" class="edge">
<title>Node1&#45;&gt;Node6</title>
<path fill="none" stroke="midnightblue" d="M143.06,-121.31C162.44,-117.27 183.13,-112.96 201.39,-109.16"/>
<polygon fill="midnightblue" stroke="midnightblue" points="202.18,-112.57 211.26,-107.11 200.76,-105.72 202.18,-112.57"/>
</g>
<!-- Node7 -->
<g id="node7" class="node">
<title>Node7</title>
<g id="a_node7"><a xlink:href="class_block_manager.html#a2ecd3262962674c6ca2c9979d1613ac8" target="_top" xlink:title=" ">
<polygon fill="white" stroke="black" points="179,-39 179,-69 333,-69 333,-39 179,-39"/>
<text text-anchor="start" x="187" y="-57" font-family="Helvetica,sans-Serif" font-size="10.00">BlockManager::LookupBlock</text>
<text text-anchor="middle" x="256" y="-46" font-family="Helvetica,sans-Serif" font-size="10.00">Index</text>
</a>
</g>
</g>
<!-- Node1&#45;&gt;Node7 -->
<g id="edge7" class="edge">
<title>Node1&#45;&gt;Node7</title>
<path fill="none" stroke="midnightblue" d="M97.71,-120.9C118.91,-108.59 150.28,-91.3 179,-79 184.32,-76.72 189.91,-74.53 195.56,-72.44"/>
<polygon fill="midnightblue" stroke="midnightblue" points="196.83,-75.71 205.07,-69.05 194.48,-69.11 196.83,-75.71"/>
</g>
<!-- Node8 -->
<g id="node8" class="node">
<title>Node8</title>
<g id="a_node8"><a xlink:href="class_c_chain.html#a25b53736dc3f5bc7fc46b4e333f62901" target="_top" xlink:title="Returns the index entry for the tip of this chain, or nullptr if none.">
<polygon fill="white" stroke="black" points="220,-0.5 220,-19.5 292,-19.5 292,-0.5 220,-0.5"/>
<text text-anchor="middle" x="256" y="-7.5" font-family="Helvetica,sans-Serif" font-size="10.00">CChain::Tip</text>
</a>
</g>
</g>
<!-- Node1&#45;&gt;Node8 -->
<g id="edge9" class="edge">
<title>Node1&#45;&gt;Node8</title>
<path fill="none" stroke="midnightblue" d="M83.44,-120.85C100.95,-97.7 137.58,-53.73 179,-30 188.42,-24.6 199.33,-20.63 209.89,-17.72"/>
<polygon fill="midnightblue" stroke="midnightblue" points="210.99,-21.05 219.84,-15.23 209.29,-14.26 210.99,-21.05"/>
</g>
<!-- Node5&#45;&gt;Node5 -->
<g id="edge5" class="edge">
<title>Node5&#45;&gt;Node5</title>
<path fill="none" stroke="midnightblue" d="M231.65,-145.76C219.8,-154.57 227.92,-164 256,-164 274.43,-164 284.26,-159.94 285.49,-154.65"/>
<polygon fill="midnightblue" stroke="midnightblue" points="288.39,-152.66 280.35,-145.76 282.32,-156.17 288.39,-152.66"/>
</g>
<!-- Node7&#45;&gt;Node2 -->
<g id="edge8" class="edge">
<title>Node7&#45;&gt;Node2</title>
<path fill="none" stroke="midnightblue" d="M313.17,-69.08C320.08,-71.91 326.86,-75.2 333,-79 360.77,-96.21 386.07,-124.82 400.75,-143.29"/>
<polygon fill="midnightblue" stroke="midnightblue" points="398.18,-145.69 407.07,-151.45 403.71,-141.4 398.18,-145.69"/>
</g>
</g>
</svg>
