<?xml version="1.0" encoding="UTF-8" standalone="no"?>
<!DOCTYPE svg PUBLIC "-//W3C//DTD SVG 1.1//EN"
 "http://www.w3.org/Graphics/SVG/1.1/DTD/svg11.dtd">
<!-- Generated by graphviz version 2.38.0 (20140413.2041)
 -->
<!-- Title: prevector::change_capacity Pages: 1 -->
<svg width="459pt" height="178pt"
 viewBox="0.00 0.00 459.00 178.30" xmlns="http://www.w3.org/2000/svg" xmlns:xlink="http://www.w3.org/1999/xlink">
<g id="graph0" class="graph" transform="scale(1 1) rotate(0) translate(4 174.296)">
<title>prevector::change_capacity</title>
<polygon fill="white" stroke="none" points="-4,4 -4,-174.296 455,-174.296 455,4 -4,4"/>
<!-- Node1 -->
<g id="node1" class="node"><title>Node1</title>
<polygon fill="#bfbfbf" stroke="black" points="0,-95.5 0,-114.5 149,-114.5 149,-95.5 0,-95.5"/>
<text text-anchor="middle" x="74.5" y="-102.5" font-family="Helvetica,sans-Serif" font-size="10.00">prevector::change_capacity</text>
</g>
<!-- Node2 -->
<g id="node2" class="node"><title>Node2</title>
<g id="a_node2"><a xlink:href="classprevector.html#a27fda335354582aa9452867c4b610dab" target="_top" xlink:title="prevector::is_direct">
<polygon fill="white" stroke="black" points="343,-123.5 343,-142.5 451,-142.5 451,-123.5 343,-123.5"/>
<text text-anchor="middle" x="397" y="-130.5" font-family="Helvetica,sans-Serif" font-size="10.00">prevector::is_direct</text>
</a>
</g>
</g>
<!-- Node1&#45;&gt;Node2 -->
<g id="edge1" class="edge"><title>Node1&#45;&gt;Node2</title>
<path fill="none" stroke="midnightblue" d="M88.8144,-114.664C108.616,-128.376 147.528,-152.831 185,-162 237.668,-174.887 253.449,-170.505 307,-162 326.272,-158.939 347.046,-152.37 363.673,-146.256"/>
<polygon fill="midnightblue" stroke="midnightblue" points="365.335,-149.369 373.439,-142.544 362.848,-142.825 365.335,-149.369"/>
</g>
<!-- Node3 -->
<g id="node3" class="node"><title>Node3</title>
<g id="a_node3"><a xlink:href="classprevector.html#ae3343cc65be9fd678b4a6f8305624de6" target="_top" xlink:title="prevector::indirect_ptr">
<polygon fill="white" stroke="black" points="185,-133.5 185,-152.5 307,-152.5 307,-133.5 185,-133.5"/>
<text text-anchor="middle" x="246" y="-140.5" font-family="Helvetica,sans-Serif" font-size="10.00">prevector::indirect_ptr</text>
</a>
</g>
</g>
<!-- Node1&#45;&gt;Node3 -->
<g id="edge2" class="edge"><title>Node1&#45;&gt;Node3</title>
<path fill="none" stroke="midnightblue" d="M118.272,-114.589C140.841,-119.649 168.723,-125.9 192.583,-131.249"/>
<polygon fill="midnightblue" stroke="midnightblue" points="192.012,-134.708 202.536,-133.48 193.543,-127.877 192.012,-134.708"/>
</g>
<!-- Node4 -->
<g id="node4" class="node"><title>Node4</title>
<g id="a_node4"><a xlink:href="classprevector.html#a20150a43dd87c33f0e855a55bd3418e8" target="_top" xlink:title="prevector::direct_ptr">
<polygon fill="white" stroke="black" points="189,-95.5 189,-114.5 303,-114.5 303,-95.5 189,-95.5"/>
<text text-anchor="middle" x="246" y="-102.5" font-family="Helvetica,sans-Serif" font-size="10.00">prevector::direct_ptr</text>
</a>
</g>
</g>
<!-- Node1&#45;&gt;Node4 -->
<g id="edge3" class="edge"><title>Node1&#45;&gt;Node4</title>
<path fill="none" stroke="midnightblue" d="M149.352,-105C159.114,-105 169.072,-105 178.696,-105"/>
<polygon fill="midnightblue" stroke="midnightblue" points="178.984,-108.5 188.984,-105 178.984,-101.5 178.984,-108.5"/>
</g>
<!-- Node5 -->
<g id="node5" class="node"><title>Node5</title>
<g id="a_node5"><a xlink:href="glibc__compat_8cpp.html#a0f46826ab0466591e136db24394923cf" target="_top" xlink:title="memcpy">
<polygon fill="white" stroke="black" points="216.5,-19.5 216.5,-38.5 275.5,-38.5 275.5,-19.5 216.5,-19.5"/>
<text text-anchor="middle" x="246" y="-26.5" font-family="Helvetica,sans-Serif" font-size="10.00">memcpy</text>
</a>
</g>
</g>
<!-- Node1&#45;&gt;Node5 -->
<g id="edge4" class="edge"><title>Node1&#45;&gt;Node5</title>
<path fill="none" stroke="midnightblue" d="M91.7678,-95.3912C112.787,-83.245 150.754,-62.2098 185,-48 191.869,-45.1498 199.327,-42.4722 206.574,-40.0767"/>
<polygon fill="midnightblue" stroke="midnightblue" points="207.786,-43.3643 216.253,-36.9955 205.662,-36.6941 207.786,-43.3643"/>
</g>
<!-- Node8 -->
<g id="node8" class="node"><title>Node8</title>
<g id="a_node8"><a xlink:href="classprevector.html#a8430c39b212986d6cd2ba9d6fa939241" target="_top" xlink:title="prevector::size">
<polygon fill="white" stroke="black" points="202.5,-57.5 202.5,-76.5 289.5,-76.5 289.5,-57.5 202.5,-57.5"/>
<text text-anchor="middle" x="246" y="-64.5" font-family="Helvetica,sans-Serif" font-size="10.00">prevector::size</text>
</a>
</g>
</g>
<!-- Node1&#45;&gt;Node8 -->
<g id="edge7" class="edge"><title>Node1&#45;&gt;Node8</title>
<path fill="none" stroke="midnightblue" d="M118.272,-95.411C140.841,-90.3513 168.723,-84.1004 192.583,-78.7512"/>
<polygon fill="midnightblue" stroke="midnightblue" points="193.543,-82.1229 202.536,-76.5201 192.012,-75.2925 193.543,-82.1229"/>
</g>
<!-- Node6 -->
<g id="node6" class="node"><title>Node6</title>
<g id="a_node6"><a xlink:href="glibc__compat_8cpp.html#a9778d49e9029dd75bc53ecbbf9f5e9a1" target="_top" xlink:title="memmove">
<polygon fill="white" stroke="black" points="362.5,-38.5 362.5,-57.5 431.5,-57.5 431.5,-38.5 362.5,-38.5"/>
<text text-anchor="middle" x="397" y="-45.5" font-family="Helvetica,sans-Serif" font-size="10.00">memmove</text>
</a>
</g>
</g>
<!-- Node5&#45;&gt;Node6 -->
<g id="edge5" class="edge"><title>Node5&#45;&gt;Node6</title>
<path fill="none" stroke="midnightblue" d="M275.729,-32.6634C297.409,-35.428 327.533,-39.2694 352.209,-42.4159"/>
<polygon fill="midnightblue" stroke="midnightblue" points="352.048,-45.9237 362.411,-43.7168 352.934,-38.9799 352.048,-45.9237"/>
</g>
<!-- Node7 -->
<g id="node7" class="node"><title>Node7</title>
<g id="a_node7"><a xlink:href="glibc__compat_8cpp.html#a424ac71631da5ada2976630ff67051d1" target="_top" xlink:title="__chk_fail">
<polygon fill="white" stroke="black" points="366,-0.5 366,-19.5 428,-19.5 428,-0.5 366,-0.5"/>
<text text-anchor="middle" x="397" y="-7.5" font-family="Helvetica,sans-Serif" font-size="10.00">__chk_fail</text>
</a>
</g>
</g>
<!-- Node5&#45;&gt;Node7 -->
<g id="edge6" class="edge"><title>Node5&#45;&gt;Node7</title>
<path fill="none" stroke="midnightblue" d="M275.729,-25.3366C298.472,-22.4364 330.508,-18.3514 355.798,-15.1264"/>
<polygon fill="midnightblue" stroke="midnightblue" points="356.348,-18.5847 365.825,-13.8478 355.463,-11.6409 356.348,-18.5847"/>
</g>
<!-- Node8&#45;&gt;Node2 -->
<g id="edge8" class="edge"><title>Node8&#45;&gt;Node2</title>
<path fill="none" stroke="midnightblue" d="M280.707,-76.5076C289.386,-79.2717 298.634,-82.4995 307,-86 329.305,-95.3327 353.501,-108.308 371.026,-118.262"/>
<polygon fill="midnightblue" stroke="midnightblue" points="369.608,-121.484 380.021,-123.438 373.099,-115.417 369.608,-121.484"/>
</g>
</g>
</svg>
