<?xml version="1.0" encoding="UTF-8" standalone="no"?>
<!DOCTYPE svg PUBLIC "-//W3C//DTD SVG 1.1//EN"
 "http://www.w3.org/Graphics/SVG/1.1/DTD/svg11.dtd">
<!-- Generated by graphviz version 2.38.0 (20140413.2041)
 -->
<!-- Title: CChainState Pages: 1 -->
<svg width="551pt" height="254pt"
 viewBox="0.00 0.00 551.00 254.00" xmlns="http://www.w3.org/2000/svg" xmlns:xlink="http://www.w3.org/1999/xlink">
<g id="graph0" class="graph" transform="scale(1 1) rotate(0) translate(4 250)">
<title>CChainState</title>
<polygon fill="white" stroke="none" points="-4,4 -4,-250 547,-250 547,4 -4,4"/>
<!-- Node1 -->
<g id="node1" class="node"><title>Node1</title>
<polygon fill="#bfbfbf" stroke="black" points="231.5,-0.5 231.5,-19.5 308.5,-19.5 308.5,-0.5 231.5,-0.5"/>
<text text-anchor="middle" x="270" y="-7.5" font-family="Helvetica,sans-Serif" font-size="10.00">CChainState</text>
</g>
<!-- Node2 -->
<g id="node2" class="node"><title>Node2</title>
<g id="a_node2"><a xlink:href="class_c_block_index.html" target="_top" xlink:title="The block chain is a tree shaped structure starting with the genesis block at the root...">
<polygon fill="white" stroke="black" points="70,-79.5 70,-98.5 144,-98.5 144,-79.5 70,-79.5"/>
<text text-anchor="middle" x="107" y="-86.5" font-family="Helvetica,sans-Serif" font-size="10.00">CBlockIndex</text>
</a>
</g>
</g>
<!-- Node2&#45;&gt;Node1 -->
<g id="edge1" class="edge"><title>Node2&#45;&gt;Node1</title>
<path fill="none" stroke="#9a32cd" stroke-dasharray="5,2" d="M109.117,-69.3862C111.321,-58.6645 115.819,-45.8067 125,-38 140.704,-24.6472 194.006,-17.4106 231.404,-13.8785"/>
<polygon fill="#9a32cd" stroke="#9a32cd" points="105.625,-69.0666 107.551,-79.4849 112.542,-70.1395 105.625,-69.0666"/>
<text text-anchor="middle" x="168.5" y="-46.5" font-family="Helvetica,sans-Serif" font-size="10.00"> pindexBestInvalid</text>
</g>
<!-- Node2&#45;&gt;Node2 -->
<g id="edge2" class="edge"><title>Node2&#45;&gt;Node2</title>
<path fill="none" stroke="#9a32cd" stroke-dasharray="5,2" d="M154.186,-95.1528C158.957,-93.9318 162,-91.8809 162,-89 162,-84.3906 154.21,-81.9059 144.015,-81.5458"/>
<polygon fill="#9a32cd" stroke="#9a32cd" points="153.49,-91.7132 144.015,-96.4542 154.379,-98.6565 153.49,-91.7132"/>
<text text-anchor="middle" x="176" y="-92" font-family="Helvetica,sans-Serif" font-size="10.00"> pskip</text>
<text text-anchor="middle" x="176" y="-81" font-family="Helvetica,sans-Serif" font-size="10.00">pprev</text>
</g>
<!-- Node3 -->
<g id="node3" class="node"><title>Node3</title>
<g id="a_node3"><a xlink:href="classuint256.html" target="_top" xlink:title="256&#45;bit opaque blob. ">
<polygon fill="white" stroke="black" points="26.5,-164 26.5,-183 79.5,-183 79.5,-164 26.5,-164"/>
<text text-anchor="middle" x="53" y="-171" font-family="Helvetica,sans-Serif" font-size="10.00">uint256</text>
</a>
</g>
</g>
<!-- Node3&#45;&gt;Node2 -->
<g id="edge3" class="edge"><title>Node3&#45;&gt;Node2</title>
<path fill="none" stroke="#9a32cd" stroke-dasharray="5,2" d="M48.8195,-153.632C47.3951,-142.475 47.5286,-128.518 54,-118 59.5077,-109.048 68.9192,-102.801 78.2968,-98.5188"/>
<polygon fill="#9a32cd" stroke="#9a32cd" points="45.3985,-154.386 50.5862,-163.624 52.2916,-153.167 45.3985,-154.386"/>
<text text-anchor="middle" x="92" y="-132" font-family="Helvetica,sans-Serif" font-size="10.00"> phashBlock</text>
<text text-anchor="middle" x="92" y="-121" font-family="Helvetica,sans-Serif" font-size="10.00">hashMerkleRoot</text>
</g>
<!-- Node4 -->
<g id="node4" class="node"><title>Node4</title>
<g id="a_node4"><a xlink:href="classbase__blob.html" target="_top" xlink:title="base_blob\&lt; 256 \&gt;">
<polygon fill="white" stroke="black" points="0,-226.5 0,-245.5 106,-245.5 106,-226.5 0,-226.5"/>
<text text-anchor="middle" x="53" y="-233.5" font-family="Helvetica,sans-Serif" font-size="10.00">base_blob&lt; 256 &gt;</text>
</a>
</g>
</g>
<!-- Node4&#45;&gt;Node3 -->
<g id="edge4" class="edge"><title>Node4&#45;&gt;Node3</title>
<path fill="none" stroke="midnightblue" d="M53,-216.003C53,-205 53,-191.682 53,-183.152"/>
<polygon fill="midnightblue" stroke="midnightblue" points="49.5001,-216.332 53,-226.332 56.5001,-216.332 49.5001,-216.332"/>
</g>
<!-- Node5 -->
<g id="node5" class="node"><title>Node5</title>
<g id="a_node5"><a xlink:href="classarith__uint256.html" target="_top" xlink:title="256&#45;bit unsigned big integer. ">
<polygon fill="white" stroke="black" points="161,-164 161,-183 241,-183 241,-164 161,-164"/>
<text text-anchor="middle" x="201" y="-171" font-family="Helvetica,sans-Serif" font-size="10.00">arith_uint256</text>
</a>
</g>
</g>
<!-- Node5&#45;&gt;Node1 -->
<g id="edge10" class="edge"><title>Node5&#45;&gt;Node1</title>
<path fill="none" stroke="#9a32cd" stroke-dasharray="5,2" d="M207.302,-154.054C215.33,-130.726 228.893,-91.922 235,-78 244.384,-56.6079 257.639,-32.5724 264.846,-19.9117"/>
<polygon fill="#9a32cd" stroke="#9a32cd" points="203.889,-153.218 203.956,-163.812 210.51,-155.488 203.889,-153.218"/>
<text text-anchor="middle" x="294.5" y="-86.5" font-family="Helvetica,sans-Serif" font-size="10.00"> nLastPreciousChainwork</text>
</g>
<!-- Node5&#45;&gt;Node2 -->
<g id="edge5" class="edge"><title>Node5&#45;&gt;Node2</title>
<path fill="none" stroke="#9a32cd" stroke-dasharray="5,2" d="M178.072,-158.536C169.859,-153.136 160.727,-146.657 153,-140 137.808,-126.913 122.508,-109.158 113.942,-98.706"/>
<polygon fill="#9a32cd" stroke="#9a32cd" points="176.202,-161.494 186.513,-163.928 179.97,-155.595 176.202,-161.494"/>
<text text-anchor="middle" x="182.5" y="-126.5" font-family="Helvetica,sans-Serif" font-size="10.00"> nChainWork</text>
</g>
<!-- Node6 -->
<g id="node6" class="node"><title>Node6</title>
<g id="a_node6"><a xlink:href="classbase__uint.html" target="_top" xlink:title="base_uint\&lt; 256 \&gt;">
<polygon fill="white" stroke="black" points="149,-226.5 149,-245.5 253,-245.5 253,-226.5 149,-226.5"/>
<text text-anchor="middle" x="201" y="-233.5" font-family="Helvetica,sans-Serif" font-size="10.00">base_uint&lt; 256 &gt;</text>
</a>
</g>
</g>
<!-- Node6&#45;&gt;Node5 -->
<g id="edge6" class="edge"><title>Node6&#45;&gt;Node5</title>
<path fill="none" stroke="midnightblue" d="M201,-216.003C201,-205 201,-191.682 201,-183.152"/>
<polygon fill="midnightblue" stroke="midnightblue" points="197.5,-216.332 201,-226.332 204.5,-216.332 197.5,-216.332"/>
</g>
<!-- Node7 -->
<g id="node7" class="node"><title>Node7</title>
<g id="a_node7"><a xlink:href="class_c_critical_section.html" target="_top" xlink:title="Wrapped mutex: supports recursive locking, but no waiting TODO: We should move away from using the re...">
<polygon fill="white" stroke="black" points="363,-79.5 363,-98.5 455,-98.5 455,-79.5 363,-79.5"/>
<text text-anchor="middle" x="409" y="-86.5" font-family="Helvetica,sans-Serif" font-size="10.00">CCriticalSection</text>
</a>
</g>
</g>
<!-- Node7&#45;&gt;Node1 -->
<g id="edge7" class="edge"><title>Node7&#45;&gt;Node1</title>
<path fill="none" stroke="#9a32cd" stroke-dasharray="5,2" d="M384.647,-74.5096C356.065,-58.6763 309.524,-32.8944 285.476,-19.5728"/>
<polygon fill="#9a32cd" stroke="#9a32cd" points="383.15,-77.6813 393.593,-79.4655 386.542,-71.558 383.15,-77.6813"/>
<text text-anchor="middle" x="409" y="-52" font-family="Helvetica,sans-Serif" font-size="10.00"> m_cs_chainstate</text>
<text text-anchor="middle" x="409" y="-41" font-family="Helvetica,sans-Serif" font-size="10.00">cs_nBlockSequenceId</text>
</g>
<!-- Node8 -->
<g id="node8" class="node"><title>Node8</title>
<g id="a_node8"><a xlink:href="class_annotated_mixin.html" target="_top" xlink:title="AnnotatedMixin\&lt; std\l::recursive_mutex \&gt;">
<polygon fill="white" stroke="black" points="350.5,-158.5 350.5,-188.5 467.5,-188.5 467.5,-158.5 350.5,-158.5"/>
<text text-anchor="start" x="358.5" y="-176.5" font-family="Helvetica,sans-Serif" font-size="10.00">AnnotatedMixin&lt; std</text>
<text text-anchor="middle" x="409" y="-165.5" font-family="Helvetica,sans-Serif" font-size="10.00">::recursive_mutex &gt;</text>
</a>
</g>
</g>
<!-- Node8&#45;&gt;Node7 -->
<g id="edge8" class="edge"><title>Node8&#45;&gt;Node7</title>
<path fill="none" stroke="midnightblue" d="M409,-147.951C409,-131.281 409,-110.234 409,-98.6439"/>
<polygon fill="midnightblue" stroke="midnightblue" points="405.5,-148.13 409,-158.13 412.5,-148.13 405.5,-148.13"/>
</g>
<!-- Node9 -->
<g id="node9" class="node"><title>Node9</title>
<polygon fill="white" stroke="#bfbfbf" points="350.5,-226.5 350.5,-245.5 467.5,-245.5 467.5,-226.5 350.5,-226.5"/>
<text text-anchor="middle" x="409" y="-233.5" font-family="Helvetica,sans-Serif" font-size="10.00">std::recursive_mutex</text>
</g>
<!-- Node9&#45;&gt;Node8 -->
<g id="edge9" class="edge"><title>Node9&#45;&gt;Node8</title>
<path fill="none" stroke="midnightblue" d="M409,-216.215C409,-207.356 409,-196.958 409,-188.759"/>
<polygon fill="midnightblue" stroke="midnightblue" points="405.5,-216.332 409,-226.332 412.5,-216.332 405.5,-216.332"/>
</g>
<!-- Node10 -->
<g id="node10" class="node"><title>Node10</title>
<g id="a_node10"><a xlink:href="class_c_chain.html" target="_top" xlink:title="An in&#45;memory indexed chain of blocks. ">
<polygon fill="white" stroke="black" points="473,-79.5 473,-98.5 523,-98.5 523,-79.5 473,-79.5"/>
<text text-anchor="middle" x="498" y="-86.5" font-family="Helvetica,sans-Serif" font-size="10.00">CChain</text>
</a>
</g>
</g>
<!-- Node10&#45;&gt;Node1 -->
<g id="edge11" class="edge"><title>Node10&#45;&gt;Node1</title>
<path fill="none" stroke="#9a32cd" stroke-dasharray="5,2" d="M490.783,-70.0058C485.373,-58.9333 476.856,-45.4743 465,-38 439.703,-22.0515 357.868,-15.2905 308.615,-12.6087"/>
<polygon fill="#9a32cd" stroke="#9a32cd" points="487.633,-71.5374 494.883,-79.2634 494.033,-68.7026 487.633,-71.5374"/>
<text text-anchor="middle" x="514" y="-46.5" font-family="Helvetica,sans-Serif" font-size="10.00"> chainActive</text>
</g>
</g>
</svg>
