<?xml version="1.0" encoding="UTF-8" standalone="no"?>
<!DOCTYPE svg PUBLIC "-//W3C//DTD SVG 1.1//EN"
 "http://www.w3.org/Graphics/SVG/1.1/DTD/svg11.dtd">
<!-- Generated by graphviz version 2.38.0 (20140413.2041)
 -->
<!-- Title: RPCConsole::banSelectedNode Pages: 1 -->
<svg width="379pt" height="329pt"
 viewBox="0.00 0.00 379.00 329.00" xmlns="http://www.w3.org/2000/svg" xmlns:xlink="http://www.w3.org/1999/xlink">
<g id="graph0" class="graph" transform="scale(1 1) rotate(0) translate(4 325)">
<title>RPCConsole::banSelectedNode</title>
<polygon fill="white" stroke="none" points="-4,4 -4,-325 375,-325 375,4 -4,4"/>
<!-- Node1 -->
<g id="node1" class="node"><title>Node1</title>
<polygon fill="#bfbfbf" stroke="black" points="0,-145.5 0,-164.5 165,-164.5 165,-145.5 0,-145.5"/>
<text text-anchor="middle" x="82.5" y="-152.5" font-family="Helvetica,sans-Serif" font-size="10.00">RPCConsole::banSelectedNode</text>
</g>
<!-- Node2 -->
<g id="node2" class="node"><title>Node2</title>
<g id="a_node2"><a xlink:href="namespace_g_u_i_util.html#a76327913a06a858ddd4a4449706a8bb6" target="_top" xlink:title="Return a field of the currently selected entry as a QString. ">
<polygon fill="white" stroke="black" points="226.5,-301.5 226.5,-320.5 345.5,-320.5 345.5,-301.5 226.5,-301.5"/>
<text text-anchor="middle" x="286" y="-308.5" font-family="Helvetica,sans-Serif" font-size="10.00">GUIUtil::getEntryData</text>
</a>
</g>
</g>
<!-- Node1&#45;&gt;Node2 -->
<g id="edge1" class="edge"><title>Node1&#45;&gt;Node2</title>
<path fill="none" stroke="midnightblue" d="M88.8682,-164.825C103.318,-190.279 145.708,-258.694 201,-292 205.803,-294.893 211.001,-297.346 216.376,-299.426"/>
<polygon fill="midnightblue" stroke="midnightblue" points="215.599,-302.86 226.193,-302.782 217.863,-296.236 215.599,-302.86"/>
</g>
<!-- Node3 -->
<g id="node3" class="node"><title>Node3</title>
<g id="a_node3"><a xlink:href="class_client_model.html#a643fc112ce94f50ac7187ecdf3c75360" target="_top" xlink:title="ClientModel::getPeerTable\lModel">
<polygon fill="white" stroke="black" points="216,-252 216,-282 356,-282 356,-252 216,-252"/>
<text text-anchor="start" x="224" y="-270" font-family="Helvetica,sans-Serif" font-size="10.00">ClientModel::getPeerTable</text>
<text text-anchor="middle" x="286" y="-259" font-family="Helvetica,sans-Serif" font-size="10.00">Model</text>
</a>
</g>
</g>
<!-- Node1&#45;&gt;Node3 -->
<g id="edge2" class="edge"><title>Node1&#45;&gt;Node3</title>
<path fill="none" stroke="midnightblue" d="M93.6404,-164.672C112.989,-182.626 157.165,-221.252 201,-243 204.821,-244.896 208.817,-246.665 212.902,-248.312"/>
<polygon fill="midnightblue" stroke="midnightblue" points="211.966,-251.699 222.558,-251.936 214.426,-245.145 211.966,-251.699"/>
</g>
<!-- Node4 -->
<g id="node4" class="node"><title>Node4</title>
<g id="a_node4"><a xlink:href="class_peer_table_model.html#aa735d366015dafba4c5d79dfb76abe49" target="_top" xlink:title="PeerTableModel::getRowBy\lNodeId">
<polygon fill="white" stroke="black" points="214.5,-203 214.5,-233 357.5,-233 357.5,-203 214.5,-203"/>
<text text-anchor="start" x="222.5" y="-221" font-family="Helvetica,sans-Serif" font-size="10.00">PeerTableModel::getRowBy</text>
<text text-anchor="middle" x="286" y="-210" font-family="Helvetica,sans-Serif" font-size="10.00">NodeId</text>
</a>
</g>
</g>
<!-- Node1&#45;&gt;Node4 -->
<g id="edge3" class="edge"><title>Node1&#45;&gt;Node4</title>
<path fill="none" stroke="midnightblue" d="M112.412,-164.56C136.159,-172.361 170.696,-183.592 201,-193 208.459,-195.316 216.303,-197.708 224.079,-200.052"/>
<polygon fill="midnightblue" stroke="midnightblue" points="223.273,-203.465 233.858,-202.988 225.286,-196.76 223.273,-203.465"/>
</g>
<!-- Node5 -->
<g id="node5" class="node"><title>Node5</title>
<g id="a_node5"><a xlink:href="class_peer_table_model.html#a98084d3299642316c71c5de3d36b9859" target="_top" xlink:title="PeerTableModel::getNodeStats">
<polygon fill="white" stroke="black" points="204,-164.5 204,-183.5 368,-183.5 368,-164.5 204,-164.5"/>
<text text-anchor="middle" x="286" y="-171.5" font-family="Helvetica,sans-Serif" font-size="10.00">PeerTableModel::getNodeStats</text>
</a>
</g>
</g>
<!-- Node1&#45;&gt;Node5 -->
<g id="edge4" class="edge"><title>Node1&#45;&gt;Node5</title>
<path fill="none" stroke="midnightblue" d="M165.167,-162.701C174.541,-163.584 184.143,-164.49 193.633,-165.385"/>
<polygon fill="midnightblue" stroke="midnightblue" points="193.586,-168.896 203.871,-166.35 194.244,-161.927 193.586,-168.896"/>
</g>
<!-- Node6 -->
<g id="node6" class="node"><title>Node6</title>
<g id="a_node6"><a xlink:href="classinterfaces_1_1_node.html#a35fa5e48d98076630b35217d6366e565" target="_top" xlink:title="Ban node. ">
<polygon fill="white" stroke="black" points="226.5,-126.5 226.5,-145.5 345.5,-145.5 345.5,-126.5 226.5,-126.5"/>
<text text-anchor="middle" x="286" y="-133.5" font-family="Helvetica,sans-Serif" font-size="10.00">interfaces::Node::ban</text>
</a>
</g>
</g>
<!-- Node1&#45;&gt;Node6 -->
<g id="edge5" class="edge"><title>Node1&#45;&gt;Node6</title>
<path fill="none" stroke="midnightblue" d="M165.167,-147.299C182.152,-145.698 199.887,-144.026 216.346,-142.474"/>
<polygon fill="midnightblue" stroke="midnightblue" points="216.784,-145.948 226.411,-141.525 216.127,-138.979 216.784,-145.948"/>
</g>
<!-- Node7 -->
<g id="node7" class="node"><title>Node7</title>
<g id="a_node7"><a xlink:href="class_r_p_c_console.html#a9c6e2b13f981313a28bcbf10433d0d11" target="_top" xlink:title="clear the selected node ">
<polygon fill="white" stroke="black" points="201,-88.5 201,-107.5 371,-107.5 371,-88.5 201,-88.5"/>
<text text-anchor="middle" x="286" y="-95.5" font-family="Helvetica,sans-Serif" font-size="10.00">RPCConsole::clearSelectedNode</text>
</a>
</g>
</g>
<!-- Node1&#45;&gt;Node7 -->
<g id="edge6" class="edge"><title>Node1&#45;&gt;Node7</title>
<path fill="none" stroke="midnightblue" d="M110.829,-145.386C134.509,-137.243 169.779,-125.561 201,-117 210.204,-114.476 220.04,-112.03 229.621,-109.779"/>
<polygon fill="midnightblue" stroke="midnightblue" points="230.516,-113.165 239.475,-107.51 228.945,-106.343 230.516,-113.165"/>
</g>
<!-- Node8 -->
<g id="node8" class="node"><title>Node8</title>
<g id="a_node8"><a xlink:href="class_client_model.html#ad02b8bf216a08845e393f9bac8c4ed42" target="_top" xlink:title="ClientModel::getBanTable\lModel">
<polygon fill="white" stroke="black" points="217.5,-39 217.5,-69 354.5,-69 354.5,-39 217.5,-39"/>
<text text-anchor="start" x="225.5" y="-57" font-family="Helvetica,sans-Serif" font-size="10.00">ClientModel::getBanTable</text>
<text text-anchor="middle" x="286" y="-46" font-family="Helvetica,sans-Serif" font-size="10.00">Model</text>
</a>
</g>
</g>
<!-- Node1&#45;&gt;Node8 -->
<g id="edge7" class="edge"><title>Node1&#45;&gt;Node8</title>
<path fill="none" stroke="midnightblue" d="M95.8454,-145.301C116.528,-129.46 159.958,-97.9073 201,-79 206.01,-76.6922 211.285,-74.5367 216.65,-72.5366"/>
<polygon fill="midnightblue" stroke="midnightblue" points="218.102,-75.7355 226.366,-69.105 215.771,-69.1351 218.102,-75.7355"/>
</g>
<!-- Node9 -->
<g id="node9" class="node"><title>Node9</title>
<g id="a_node9"><a xlink:href="class_ban_table_model.html#a15107160d33bbf2635b9460cb07f9661" target="_top" xlink:title="BanTableModel::refresh">
<polygon fill="white" stroke="black" points="222,-0.5 222,-19.5 350,-19.5 350,-0.5 222,-0.5"/>
<text text-anchor="middle" x="286" y="-7.5" font-family="Helvetica,sans-Serif" font-size="10.00">BanTableModel::refresh</text>
</a>
</g>
</g>
<!-- Node1&#45;&gt;Node9 -->
<g id="edge8" class="edge"><title>Node1&#45;&gt;Node9</title>
<path fill="none" stroke="midnightblue" d="M89.5668,-145.392C105.028,-121.749 148.425,-60.4549 201,-30 205.702,-27.2762 210.757,-24.9227 215.97,-22.8893"/>
<polygon fill="midnightblue" stroke="midnightblue" points="217.199,-26.1678 225.484,-19.5641 214.889,-19.5598 217.199,-26.1678"/>
</g>
</g>
</svg>
