<?xml version="1.0" encoding="UTF-8" standalone="no"?>
<!DOCTYPE svg PUBLIC "-//W3C//DTD SVG 1.1//EN"
 "http://www.w3.org/Graphics/SVG/1.1/DTD/svg11.dtd">
<!-- Generated by graphviz version 2.38.0 (20140413.2041)
 -->
<!-- Title: ArgsManager::AddArg Pages: 1 -->
<svg width="520pt" height="174pt"
 viewBox="0.00 0.00 520.00 174.01" xmlns="http://www.w3.org/2000/svg" xmlns:xlink="http://www.w3.org/1999/xlink">
<g id="graph0" class="graph" transform="scale(1 1) rotate(0) translate(4 170.009)">
<title>ArgsManager::AddArg</title>
<polygon fill="white" stroke="none" points="-4,4 -4,-170.009 516,-170.009 516,4 -4,4"/>
<!-- Node1 -->
<g id="node1" class="node"><title>Node1</title>
<polygon fill="#bfbfbf" stroke="black" points="0,-88 0,-107 122,-107 122,-88 0,-88"/>
<text text-anchor="middle" x="61" y="-95" font-family="Helvetica,sans-Serif" font-size="10.00">ArgsManager::AddArg</text>
</g>
<!-- Node2 -->
<g id="node2" class="node"><title>Node2</title>
<g id="a_node2"><a xlink:href="chainparamsbase_8h.html#a971d01612e49cf6df9de2adede00409b" target="_top" xlink:title="Set the arguments for chainparams. ">
<polygon fill="white" stroke="black" points="158,-126 158,-145 327,-145 327,-126 158,-126"/>
<text text-anchor="middle" x="242.5" y="-133" font-family="Helvetica,sans-Serif" font-size="10.00">SetupChainParamsBaseOptions</text>
</a>
</g>
</g>
<!-- Node1&#45;&gt;Node2 -->
<g id="edge1" class="edge"><title>Node1&#45;&gt;Node2</title>
<path fill="none" stroke="midnightblue" d="M117.177,-109.181C142.633,-114.57 172.468,-120.886 196.53,-125.98"/>
<polygon fill="midnightblue" stroke="midnightblue" points="117.804,-105.736 107.295,-107.089 116.354,-112.584 117.804,-105.736"/>
</g>
<!-- Node3 -->
<g id="node3" class="node"><title>Node3</title>
<g id="a_node3"><a xlink:href="init_8h.html#ad94849be44418b435cba219289d3220b" target="_top" xlink:title="Setup the arguments for gArgs. ">
<polygon fill="white" stroke="black" points="388.5,-126 388.5,-145 486.5,-145 486.5,-126 388.5,-126"/>
<text text-anchor="middle" x="437.5" y="-133" font-family="Helvetica,sans-Serif" font-size="10.00">SetupServerArgs</text>
</a>
</g>
</g>
<!-- Node1&#45;&gt;Node3 -->
<g id="edge3" class="edge"><title>Node1&#45;&gt;Node3</title>
<path fill="none" stroke="midnightblue" d="M81.3696,-113.297C99.7998,-127.232 128.955,-146.527 158,-154.5 243.29,-177.913 348.512,-158.288 401.903,-145.089"/>
<polygon fill="midnightblue" stroke="midnightblue" points="83.5052,-110.524 73.4632,-107.146 79.2069,-116.049 83.5052,-110.524"/>
</g>
<!-- Node4 -->
<g id="node4" class="node"><title>Node4</title>
<g id="a_node4"><a xlink:href="class_wallet_init.html#a1b28f41e8a76979da1a14e443665113f" target="_top" xlink:title="Return the wallets help message. ">
<polygon fill="white" stroke="black" points="168.5,-88 168.5,-107 316.5,-107 316.5,-88 168.5,-88"/>
<text text-anchor="middle" x="242.5" y="-95" font-family="Helvetica,sans-Serif" font-size="10.00">WalletInit::AddWalletOptions</text>
</a>
</g>
</g>
<!-- Node1&#45;&gt;Node4 -->
<g id="edge4" class="edge"><title>Node1&#45;&gt;Node4</title>
<path fill="none" stroke="midnightblue" d="M132.471,-97.5C144.239,-97.5 156.471,-97.5 168.305,-97.5"/>
<polygon fill="midnightblue" stroke="midnightblue" points="132.27,-94.0001 122.27,-97.5 132.27,-101 132.27,-94.0001"/>
</g>
<!-- Node5 -->
<g id="node5" class="node"><title>Node5</title>
<g id="a_node5"><a xlink:href="class_bitcoin_application.html#a436f6b8115daa97b17023d3f8c72fa39" target="_top" xlink:title="Get window identifier of QMainWindow (BitcoinGUI) ">
<polygon fill="white" stroke="black" points="192,-0.5 192,-30.5 293,-30.5 293,-0.5 192,-0.5"/>
<text text-anchor="start" x="200" y="-18.5" font-family="Helvetica,sans-Serif" font-size="10.00">BitcoinApplication</text>
<text text-anchor="middle" x="242.5" y="-7.5" font-family="Helvetica,sans-Serif" font-size="10.00">::getMainWinId</text>
</a>
</g>
</g>
<!-- Node1&#45;&gt;Node5 -->
<g id="edge5" class="edge"><title>Node1&#45;&gt;Node5</title>
<path fill="none" stroke="midnightblue" d="M84.2298,-82.1646C103.169,-69.6313 131.457,-52.1425 158,-40.5 168.671,-35.8196 180.476,-31.693 191.769,-28.2105"/>
<polygon fill="midnightblue" stroke="midnightblue" points="82.0822,-79.3908 75.7322,-87.8718 85.9851,-85.2018 82.0822,-79.3908"/>
</g>
<!-- Node7 -->
<g id="node7" class="node"><title>Node7</title>
<g id="a_node7"><a xlink:href="class_args_manager.html#afa6e08d5af7e87c1eb9e3f4986f7c5fc" target="_top" xlink:title="Add many hidden arguments. ">
<polygon fill="white" stroke="black" points="162,-50 162,-69 323,-69 323,-50 162,-50"/>
<text text-anchor="middle" x="242.5" y="-57" font-family="Helvetica,sans-Serif" font-size="10.00">ArgsManager::AddHiddenArgs</text>
</a>
</g>
</g>
<!-- Node1&#45;&gt;Node7 -->
<g id="edge7" class="edge"><title>Node1&#45;&gt;Node7</title>
<path fill="none" stroke="midnightblue" d="M117.177,-85.819C142.633,-80.4301 172.468,-74.1139 196.53,-69.0201"/>
<polygon fill="midnightblue" stroke="midnightblue" points="116.354,-82.4157 107.295,-87.911 117.804,-89.2639 116.354,-82.4157"/>
</g>
<!-- Node2&#45;&gt;Node3 -->
<g id="edge2" class="edge"><title>Node2&#45;&gt;Node3</title>
<path fill="none" stroke="midnightblue" d="M337.409,-135.5C355.089,-135.5 372.886,-135.5 388.422,-135.5"/>
<polygon fill="midnightblue" stroke="midnightblue" points="337.03,-132 327.03,-135.5 337.03,-139 337.03,-132"/>
</g>
<!-- Node6 -->
<g id="node6" class="node"><title>Node6</title>
<g id="a_node6"><a xlink:href="bitcoin_8cpp.html#a0ddf1224851353fc92bfbff6f499fa97" target="_top" xlink:title="main">
<polygon fill="white" stroke="black" points="417,-6 417,-25 458,-25 458,-6 417,-6"/>
<text text-anchor="middle" x="437.5" y="-13" font-family="Helvetica,sans-Serif" font-size="10.00">main</text>
</a>
</g>
</g>
<!-- Node5&#45;&gt;Node6 -->
<g id="edge6" class="edge"><title>Node5&#45;&gt;Node6</title>
<path fill="none" stroke="midnightblue" d="M303.364,-15.5C342.18,-15.5 390.284,-15.5 416.741,-15.5"/>
<polygon fill="midnightblue" stroke="midnightblue" points="303.202,-12.0001 293.202,-15.5 303.202,-19.0001 303.202,-12.0001"/>
</g>
<!-- Node7&#45;&gt;Node3 -->
<g id="edge9" class="edge"><title>Node7&#45;&gt;Node3</title>
<path fill="none" stroke="midnightblue" d="M304.794,-71.5406C312.359,-73.5831 319.916,-75.8994 327,-78.5 362.208,-91.4255 400.45,-113.316 421.124,-125.874"/>
<polygon fill="midnightblue" stroke="midnightblue" points="305.44,-68.0932 294.885,-69.0124 303.709,-74.876 305.44,-68.0932"/>
</g>
<!-- Node8 -->
<g id="node8" class="node"><title>Node8</title>
<g id="a_node8"><a xlink:href="class_dummy_wallet_init.html#a5b25e9f8676e593471942d72a41bc2bc" target="_top" xlink:title="Get wallet help string. ">
<polygon fill="white" stroke="black" points="363,-44.5 363,-74.5 512,-74.5 512,-44.5 363,-44.5"/>
<text text-anchor="start" x="371" y="-62.5" font-family="Helvetica,sans-Serif" font-size="10.00">DummyWalletInit::AddWallet</text>
<text text-anchor="middle" x="437.5" y="-51.5" font-family="Helvetica,sans-Serif" font-size="10.00">Options</text>
</a>
</g>
</g>
<!-- Node7&#45;&gt;Node8 -->
<g id="edge8" class="edge"><title>Node7&#45;&gt;Node8</title>
<path fill="none" stroke="midnightblue" d="M333.383,-59.5C343.286,-59.5 353.282,-59.5 362.952,-59.5"/>
<polygon fill="midnightblue" stroke="midnightblue" points="333.115,-56.0001 323.115,-59.5 333.115,-63.0001 333.115,-56.0001"/>
</g>
</g>
</svg>
