<?xml version="1.0" encoding="UTF-8" standalone="no"?>
<!DOCTYPE svg PUBLIC "-//W3C//DTD SVG 1.1//EN"
 "http://www.w3.org/Graphics/SVG/1.1/DTD/svg11.dtd">
<!-- Generated by graphviz version 2.38.0 (20140413.2041)
 -->
<!-- Title: CTxMemPool::CalculateMemPoolAncestors Pages: 1 -->
<svg width="1681pt" height="936pt"
 viewBox="0.00 0.00 1681.00 936.35" xmlns="http://www.w3.org/2000/svg" xmlns:xlink="http://www.w3.org/1999/xlink">
<g id="graph0" class="graph" transform="scale(1 1) rotate(0) translate(4 932.353)">
<title>CTxMemPool::CalculateMemPoolAncestors</title>
<polygon fill="white" stroke="none" points="-4,4 -4,-932.353 1677,-932.353 1677,4 -4,4"/>
<!-- Node1 -->
<g id="node1" class="node"><title>Node1</title>
<polygon fill="#bfbfbf" stroke="black" points="0,-780.353 0,-810.353 152,-810.353 152,-780.353 0,-780.353"/>
<text text-anchor="start" x="8" y="-798.353" font-family="Helvetica,sans-Serif" font-size="10.00">CTxMemPool::CalculateMem</text>
<text text-anchor="middle" x="76" y="-787.353" font-family="Helvetica,sans-Serif" font-size="10.00">PoolAncestors</text>
</g>
<!-- Node2 -->
<g id="node2" class="node"><title>Node2</title>
<g id="a_node2"><a xlink:href="class_block_assembler.html#ac88956b3067e44661e837505d1540aa0" target="_top" xlink:title="Add transactions based on feerate including unconfirmed ancestors Increments nPackagesSelected / nDes...">
<polygon fill="white" stroke="black" points="403,-880.853 403,-899.853 576,-899.853 576,-880.853 403,-880.853"/>
<text text-anchor="middle" x="489.5" y="-887.853" font-family="Helvetica,sans-Serif" font-size="10.00">BlockAssembler::addPackageTxs</text>
</a>
</g>
</g>
<!-- Node1&#45;&gt;Node2 -->
<g id="edge1" class="edge"><title>Node1&#45;&gt;Node2</title>
<path fill="none" stroke="midnightblue" d="M100.891,-817.438C122.046,-835.501 154.666,-859.869 188,-871.353 257.564,-895.317 341.472,-898.673 402.922,-896.838"/>
<polygon fill="midnightblue" stroke="midnightblue" points="102.929,-814.57 93.0969,-810.622 98.3208,-819.84 102.929,-814.57"/>
</g>
<!-- Node4 -->
<g id="node4" class="node"><title>Node4</title>
<g id="a_node4"><a xlink:href="policy_2rbf_8h.html#a25df898f04ad7966374a4c537e3bfe15" target="_top" xlink:title="IsRBFOptIn">
<polygon fill="white" stroke="black" points="243.5,-842.853 243.5,-861.853 311.5,-861.853 311.5,-842.853 243.5,-842.853"/>
<text text-anchor="middle" x="277.5" y="-849.853" font-family="Helvetica,sans-Serif" font-size="10.00">IsRBFOptIn</text>
</a>
</g>
</g>
<!-- Node1&#45;&gt;Node4 -->
<g id="edge3" class="edge"><title>Node1&#45;&gt;Node4</title>
<path fill="none" stroke="midnightblue" d="M136.293,-813.268C152.993,-818.236 171.187,-823.574 188,-828.353 206.223,-833.531 226.627,-839.081 243.247,-843.539"/>
<polygon fill="midnightblue" stroke="midnightblue" points="137.239,-809.898 126.655,-810.394 135.238,-816.606 137.239,-809.898"/>
</g>
<!-- Node8 -->
<g id="node8" class="node"><title>Node8</title>
<g id="a_node8"><a xlink:href="blockchain_8h.html#af764b4341f499ae302549b200056c076" target="_top" xlink:title="Mempool to JSON. ">
<polygon fill="white" stroke="black" points="787.5,-31.8525 787.5,-50.8525 882.5,-50.8525 882.5,-31.8525 787.5,-31.8525"/>
<text text-anchor="middle" x="835" y="-38.8525" font-family="Helvetica,sans-Serif" font-size="10.00">MempoolToJSON</text>
</a>
</g>
</g>
<!-- Node1&#45;&gt;Node8 -->
<g id="edge7" class="edge"><title>Node1&#45;&gt;Node8</title>
<path fill="none" stroke="midnightblue" d="M84.3435,-770.377C98.7973,-724.059 134.275,-623.125 188,-552.353 385.569,-292.091 472.77,-251.306 750,-78.3525 767.982,-67.1344 789.952,-57.5858 806.913,-51"/>
<polygon fill="midnightblue" stroke="midnightblue" points="80.9272,-769.58 81.3499,-780.167 87.6213,-771.627 80.9272,-769.58"/>
</g>
<!-- Node10 -->
<g id="node10" class="node"><title>Node10</title>
<g id="a_node10"><a xlink:href="class_c_tx_mem_pool.html#ad74247cc4eb672fb9063d4e9503f4cf0" target="_top" xlink:title="If sanity&#45;checking is turned on, check makes sure the pool is consistent (does not contain two transa...">
<polygon fill="white" stroke="black" points="988,-652.853 988,-671.853 1100,-671.853 1100,-652.853 988,-652.853"/>
<text text-anchor="middle" x="1044" y="-659.853" font-family="Helvetica,sans-Serif" font-size="10.00">CTxMemPool::check</text>
</a>
</g>
</g>
<!-- Node1&#45;&gt;Node10 -->
<g id="edge10" class="edge"><title>Node1&#45;&gt;Node10</title>
<path fill="none" stroke="midnightblue" d="M162.199,-789.122C245.38,-783.582 375.565,-776.353 488.5,-776.353 488.5,-776.353 488.5,-776.353 664,-776.353 778.091,-776.353 814.585,-800.992 920,-757.353 939.509,-749.276 939.484,-739.507 956,-726.353 981.228,-706.26 1011.83,-684.276 1029.19,-672.013"/>
<polygon fill="midnightblue" stroke="midnightblue" points="161.784,-785.642 152.041,-789.806 162.254,-792.626 161.784,-785.642"/>
</g>
<!-- Node13 -->
<g id="node13" class="node"><title>Node13</title>
<g id="a_node13"><a xlink:href="class_c_tx_mem_pool.html#a076041ea11b38722d1419c1640bf6ac4" target="_top" xlink:title="Affect CreateNewBlock prioritisation of transactions. ">
<polygon fill="white" stroke="black" points="188,-561.853 188,-580.853 367,-580.853 367,-561.853 188,-561.853"/>
<text text-anchor="middle" x="277.5" y="-568.853" font-family="Helvetica,sans-Serif" font-size="10.00">CTxMemPool::PrioritiseTransaction</text>
</a>
</g>
</g>
<!-- Node1&#45;&gt;Node13 -->
<g id="edge13" class="edge"><title>Node1&#45;&gt;Node13</title>
<path fill="none" stroke="midnightblue" d="M97.2535,-772.612C140.091,-724.513 238.37,-614.165 267.934,-580.971"/>
<polygon fill="midnightblue" stroke="midnightblue" points="94.4368,-770.512 90.3995,-780.307 99.6641,-775.168 94.4368,-770.512"/>
</g>
<!-- Node34 -->
<g id="node34" class="node"><title>Node34</title>
<g id="a_node34"><a xlink:href="validation_8h.html#a666c20fae7b9d75f2d9f4fedd059995a" target="_top" xlink:title="Check if transaction will be BIP 68 final in the next block to be created. ">
<polygon fill="white" stroke="black" points="983.5,-735.853 983.5,-754.853 1104.5,-754.853 1104.5,-735.853 983.5,-735.853"/>
<text text-anchor="middle" x="1044" y="-742.853" font-family="Helvetica,sans-Serif" font-size="10.00">CheckSequenceLocks</text>
</a>
</g>
</g>
<!-- Node1&#45;&gt;Node34 -->
<g id="edge60" class="edge"><title>Node1&#45;&gt;Node34</title>
<path fill="none" stroke="midnightblue" d="M162.199,-801.583C245.38,-807.123 375.565,-814.353 488.5,-814.353 488.5,-814.353 488.5,-814.353 664,-814.353 778.277,-814.353 808.53,-815.525 920,-790.353 957.04,-781.988 998.098,-765.387 1022.17,-754.855"/>
<polygon fill="midnightblue" stroke="midnightblue" points="162.254,-798.079 152.041,-800.899 161.784,-805.063 162.254,-798.079"/>
</g>
<!-- Node3 -->
<g id="node3" class="node"><title>Node3</title>
<g id="a_node3"><a xlink:href="class_block_assembler.html#acd45f01ed2556e805c82907def19efcb" target="_top" xlink:title="Construct a new block template with coinbase to scriptPubKeyIn. ">
<polygon fill="white" stroke="black" points="968,-869.353 968,-899.353 1120,-899.353 1120,-869.353 968,-869.353"/>
<text text-anchor="start" x="976" y="-887.353" font-family="Helvetica,sans-Serif" font-size="10.00">BlockAssembler::CreateNew</text>
<text text-anchor="middle" x="1044" y="-876.353" font-family="Helvetica,sans-Serif" font-size="10.00">Block</text>
</a>
</g>
</g>
<!-- Node2&#45;&gt;Node3 -->
<g id="edge2" class="edge"><title>Node2&#45;&gt;Node3</title>
<path fill="none" stroke="midnightblue" d="M586.495,-889.31C694.82,-888.134 868.776,-886.245 967.735,-885.17"/>
<polygon fill="midnightblue" stroke="midnightblue" points="586.183,-885.813 576.222,-889.422 586.259,-892.813 586.183,-885.813"/>
</g>
<!-- Node5 -->
<g id="node5" class="node"><title>Node5</title>
<g id="a_node5"><a xlink:href="blockchain_8h.html#ac5ec0fb7871f93c9889aecd50e2e408f" target="_top" xlink:title="Callback for when block tip changed. ">
<polygon fill="white" stroke="black" points="427,-842.853 427,-861.853 552,-861.853 552,-842.853 427,-842.853"/>
<text text-anchor="middle" x="489.5" y="-849.853" font-family="Helvetica,sans-Serif" font-size="10.00">RPCNotifyBlockChange</text>
</a>
</g>
</g>
<!-- Node4&#45;&gt;Node5 -->
<g id="edge4" class="edge"><title>Node4&#45;&gt;Node5</title>
<path fill="none" stroke="midnightblue" d="M322.005,-852.353C352.248,-852.353 393.001,-852.353 426.618,-852.353"/>
<polygon fill="midnightblue" stroke="midnightblue" points="321.775,-848.853 311.775,-852.353 321.775,-855.853 321.775,-848.853"/>
</g>
<!-- Node6 -->
<g id="node6" class="node"><title>Node6</title>
<g id="a_node6"><a xlink:href="init_8h.html#aadf7f77f5efa149dc63b413e86cc63f3" target="_top" xlink:title="Shutdown">
<polygon fill="white" stroke="black" points="631,-842.853 631,-861.853 695,-861.853 695,-842.853 631,-842.853"/>
<text text-anchor="middle" x="663" y="-849.853" font-family="Helvetica,sans-Serif" font-size="10.00">Shutdown</text>
</a>
</g>
</g>
<!-- Node5&#45;&gt;Node6 -->
<g id="edge5" class="edge"><title>Node5&#45;&gt;Node6</title>
<path fill="none" stroke="midnightblue" d="M562.552,-852.353C586.465,-852.353 611.836,-852.353 630.967,-852.353"/>
<polygon fill="midnightblue" stroke="midnightblue" points="562.415,-848.853 552.415,-852.353 562.415,-855.853 562.415,-848.853"/>
</g>
<!-- Node7 -->
<g id="node7" class="node"><title>Node7</title>
<g id="a_node7"><a xlink:href="init_8h.html#a15f6e0c217711d40a5433e55748b731d" target="_top" xlink:title="Bitcoin core main initialization. ">
<polygon fill="white" stroke="black" points="1391.5,-521.853 1391.5,-540.853 1463.5,-540.853 1463.5,-521.853 1391.5,-521.853"/>
<text text-anchor="middle" x="1427.5" y="-528.853" font-family="Helvetica,sans-Serif" font-size="10.00">AppInitMain</text>
</a>
</g>
</g>
<!-- Node5&#45;&gt;Node7 -->
<g id="edge6" class="edge"><title>Node5&#45;&gt;Node7</title>
<path fill="none" stroke="midnightblue" d="M543.34,-864.081C639.439,-885.406 833.082,-928.353 834,-928.353 834,-928.353 834,-928.353 1045,-928.353 1191.53,-928.353 1240.39,-879.504 1331,-764.353 1389.39,-690.143 1417.24,-575.286 1424.51,-541.205"/>
<polygon fill="midnightblue" stroke="midnightblue" points="544.037,-860.651 533.517,-861.901 542.521,-867.484 544.037,-860.651"/>
</g>
<!-- Node8&#45;&gt;Node8 -->
<g id="edge9" class="edge"><title>Node8&#45;&gt;Node8</title>
<path fill="none" stroke="midnightblue" d="M802.814,-59.6271C803.732,-65.0935 814.461,-69.3525 835,-69.3525 865.57,-69.3525 874.407,-59.9178 861.51,-51.1096"/>
<polygon fill="midnightblue" stroke="midnightblue" points="805.857,-61.3722 808.49,-51.1096 800.032,-57.4906 805.857,-61.3722"/>
</g>
<!-- Node9 -->
<g id="node9" class="node"><title>Node9</title>
<g id="a_node9"><a xlink:href="struct_c_coin.html#a2a0a2532bdacb03b087b3b0a400830ec" target="_top" xlink:title="CCoin::SerializationOp">
<polygon fill="white" stroke="black" points="983,-262.853 983,-281.853 1105,-281.853 1105,-262.853 983,-262.853"/>
<text text-anchor="middle" x="1044" y="-269.853" font-family="Helvetica,sans-Serif" font-size="10.00">CCoin::SerializationOp</text>
</a>
</g>
</g>
<!-- Node8&#45;&gt;Node9 -->
<g id="edge8" class="edge"><title>Node8&#45;&gt;Node9</title>
<path fill="none" stroke="midnightblue" d="M878.83,-54.5452C892.979,-60.3106 908.122,-68.1368 920,-78.3525 984.4,-133.742 1026.78,-231.262 1039.21,-262.459"/>
<polygon fill="midnightblue" stroke="midnightblue" points="879.836,-51.1829 869.246,-50.8791 877.336,-57.7209 879.836,-51.1829"/>
</g>
<!-- Node11 -->
<g id="node11" class="node"><title>Node11</title>
<g id="a_node11"><a xlink:href="net__processing_8cpp.html#a4c3f4b7e7b0e61fb40a351f816b363c5" target="_top" xlink:title="while">
<polygon fill="white" stroke="black" points="1229.5,-350.853 1229.5,-369.853 1269.5,-369.853 1269.5,-350.853 1229.5,-350.853"/>
<text text-anchor="middle" x="1249.5" y="-357.853" font-family="Helvetica,sans-Serif" font-size="10.00">while</text>
</a>
</g>
</g>
<!-- Node10&#45;&gt;Node11 -->
<g id="edge11" class="edge"><title>Node10&#45;&gt;Node11</title>
<path fill="none" stroke="midnightblue" d="M1109.97,-657.56C1118.29,-654.423 1125.98,-649.872 1132,-643.353 1212.34,-556.357 1088.39,-467.019 1168,-379.353 1183.35,-362.45 1210.69,-359.214 1229.2,-359.189"/>
<polygon fill="midnightblue" stroke="midnightblue" points="1108.89,-654.23 1100.37,-660.532 1110.96,-660.917 1108.89,-654.23"/>
</g>
<!-- Node12 -->
<g id="node12" class="node"><title>Node12</title>
<g id="a_node12"><a xlink:href="class_c_chain_state.html#afb6986710de5db645a000d4bac55cf9f" target="_top" xlink:title="Try to make some progress towards making pindexMostWork the active block. ">
<polygon fill="white" stroke="black" points="1178,-647.353 1178,-677.353 1321,-677.353 1321,-647.353 1178,-647.353"/>
<text text-anchor="start" x="1186" y="-665.353" font-family="Helvetica,sans-Serif" font-size="10.00">CChainState::ActivateBest</text>
<text text-anchor="middle" x="1249.5" y="-654.353" font-family="Helvetica,sans-Serif" font-size="10.00">ChainStep</text>
</a>
</g>
</g>
<!-- Node10&#45;&gt;Node12 -->
<g id="edge12" class="edge"><title>Node10&#45;&gt;Node12</title>
<path fill="none" stroke="midnightblue" d="M1110.1,-662.353C1131.64,-662.353 1155.72,-662.353 1177.68,-662.353"/>
<polygon fill="midnightblue" stroke="midnightblue" points="1110.07,-658.853 1100.07,-662.353 1110.07,-665.853 1110.07,-658.853"/>
</g>
<!-- Node14 -->
<g id="node14" class="node"><title>Node14</title>
<g id="a_node14"><a xlink:href="validation_8h.html#adea951730b49ef41e5390df5be8d3f1b" target="_top" xlink:title="Load the mempool from disk. ">
<polygon fill="white" stroke="black" points="447.5,-416.853 447.5,-435.853 531.5,-435.853 531.5,-416.853 447.5,-416.853"/>
<text text-anchor="middle" x="489.5" y="-423.853" font-family="Helvetica,sans-Serif" font-size="10.00">LoadMempool</text>
</a>
</g>
</g>
<!-- Node13&#45;&gt;Node14 -->
<g id="edge14" class="edge"><title>Node13&#45;&gt;Node14</title>
<path fill="none" stroke="midnightblue" d="M300.721,-556.009C344.138,-526.031 439.09,-460.469 474.671,-435.901"/>
<polygon fill="midnightblue" stroke="midnightblue" points="298.519,-553.277 292.279,-561.839 302.496,-559.037 298.519,-553.277"/>
</g>
<!-- Node15 -->
<g id="node15" class="node"><title>Node15</title>
<g id="a_node15"><a xlink:href="validation_8h.html#a9d9b2d3b31edbd48ce62f4e2a73cc04c" target="_top" xlink:title="LookupBlockIndex">
<polygon fill="white" stroke="black" points="612,-416.853 612,-435.853 714,-435.853 714,-416.853 612,-416.853"/>
<text text-anchor="middle" x="663" y="-423.853" font-family="Helvetica,sans-Serif" font-size="10.00">LookupBlockIndex</text>
</a>
</g>
</g>
<!-- Node14&#45;&gt;Node15 -->
<g id="edge15" class="edge"><title>Node14&#45;&gt;Node15</title>
<path fill="none" stroke="midnightblue" d="M541.791,-426.353C563.931,-426.353 589.747,-426.353 611.767,-426.353"/>
<polygon fill="midnightblue" stroke="midnightblue" points="541.579,-422.853 531.579,-426.353 541.578,-429.853 541.579,-422.853"/>
</g>
<!-- Node40 -->
<g id="node40" class="node"><title>Node40</title>
<g id="a_node40"><a xlink:href="struct_c_importing_now.html#a0e449b23ac612ff3ff491d989fd08a18" target="_top" xlink:title="CImportingNow::~CImportingNow">
<polygon fill="white" stroke="black" points="956,-40.8525 956,-59.8525 1132,-59.8525 1132,-40.8525 956,-40.8525"/>
<text text-anchor="middle" x="1044" y="-47.8525" font-family="Helvetica,sans-Serif" font-size="10.00">CImportingNow::~CImportingNow</text>
</a>
</g>
</g>
<!-- Node14&#45;&gt;Node40 -->
<g id="edge59" class="edge"><title>Node14&#45;&gt;Node40</title>
<path fill="none" stroke="midnightblue" d="M495.829,-406.597C515.558,-337.891 591.645,-108.845 750,-22.3525 840.814,27.2495 971.289,-19.1402 1021.86,-40.696"/>
<polygon fill="midnightblue" stroke="midnightblue" points="492.374,-405.956 493.053,-416.529 499.115,-407.84 492.374,-405.956"/>
</g>
<!-- Node15&#45;&gt;Node7 -->
<g id="edge17" class="edge"><title>Node15&#45;&gt;Node7</title>
<path fill="none" stroke="midnightblue" d="M677.93,-444.05C693.401,-462.296 720.163,-489.917 750,-503.353 866.025,-555.6 1269.65,-539.502 1391.44,-533.29"/>
<polygon fill="midnightblue" stroke="midnightblue" points="680.329,-441.457 671.278,-435.95 674.92,-445.899 680.329,-441.457"/>
</g>
<!-- Node15&#45;&gt;Node8 -->
<g id="edge22" class="edge"><title>Node15&#45;&gt;Node8</title>
<path fill="none" stroke="midnightblue" d="M663.186,-406.397C661.904,-348.526 665.886,-178.403 750,-78.3525 761.075,-65.1793 777.756,-56.5357 793.341,-50.9445"/>
<polygon fill="midnightblue" stroke="midnightblue" points="659.697,-406.812 663.502,-416.7 666.694,-406.598 659.697,-406.812"/>
</g>
<!-- Node15&#45;&gt;Node9 -->
<g id="edge21" class="edge"><title>Node15&#45;&gt;Node9</title>
<path fill="none" stroke="midnightblue" d="M669.937,-407.083C680.498,-376.479 705.712,-317.551 750,-291.353 825.792,-246.519 932.715,-253.541 994.242,-262.85"/>
<polygon fill="midnightblue" stroke="midnightblue" points="666.597,-406.034 666.804,-416.627 673.248,-408.217 666.597,-406.034"/>
</g>
<!-- Node15&#45;&gt;Node11 -->
<g id="edge19" class="edge"><title>Node15&#45;&gt;Node11</title>
<path fill="none" stroke="midnightblue" d="M688.196,-411.629C704.913,-402.271 728.015,-390.907 750,-385.353 931.469,-339.501 1161.6,-353.226 1229.08,-358.635"/>
<polygon fill="midnightblue" stroke="midnightblue" points="686.062,-408.819 679.148,-416.848 689.559,-414.883 686.062,-408.819"/>
</g>
<!-- Node16 -->
<g id="node16" class="node"><title>Node16</title>
<g id="a_node16"><a xlink:href="class_base_index.html#a770e60b2fcbc0b8adaaeb54f18eb9c8a" target="_top" xlink:title="Notifies listeners of the new active block chain on&#45;disk. ">
<polygon fill="white" stroke="black" points="754,-224.853 754,-243.853 916,-243.853 916,-224.853 754,-224.853"/>
<text text-anchor="middle" x="835" y="-231.853" font-family="Helvetica,sans-Serif" font-size="10.00">BaseIndex::ChainStateFlushed</text>
</a>
</g>
</g>
<!-- Node15&#45;&gt;Node16 -->
<g id="edge16" class="edge"><title>Node15&#45;&gt;Node16</title>
<path fill="none" stroke="midnightblue" d="M668.554,-406.712C677.729,-371.582 701.806,-297.966 750,-258.353 757.733,-251.996 767.062,-247.322 776.65,-243.886"/>
<polygon fill="midnightblue" stroke="midnightblue" points="665.093,-406.126 666.087,-416.674 671.888,-407.808 665.093,-406.126"/>
</g>
<!-- Node17 -->
<g id="node17" class="node"><title>Node17</title>
<g id="a_node17"><a xlink:href="class_peer_logic_validation.html#a124965d7310e0df08cc027d4e1cbbe7b" target="_top" xlink:title="Overridden from CValidationInterface. ">
<polygon fill="white" stroke="black" points="780,-175.353 780,-205.353 890,-205.353 890,-175.353 780,-175.353"/>
<text text-anchor="start" x="788" y="-193.353" font-family="Helvetica,sans-Serif" font-size="10.00">PeerLogicValidation</text>
<text text-anchor="middle" x="835" y="-182.353" font-family="Helvetica,sans-Serif" font-size="10.00">::BlockChecked</text>
</a>
</g>
</g>
<!-- Node15&#45;&gt;Node17 -->
<g id="edge18" class="edge"><title>Node15&#45;&gt;Node17</title>
<path fill="none" stroke="midnightblue" d="M666.321,-406.781C672.29,-365.275 692.018,-267.927 750,-215.353 758.341,-207.789 768.879,-202.51 779.646,-198.825"/>
<polygon fill="midnightblue" stroke="midnightblue" points="662.849,-406.339 665.007,-416.712 669.788,-407.257 662.849,-406.339"/>
</g>
<!-- Node18 -->
<g id="node18" class="node"><title>Node18</title>
<g id="a_node18"><a xlink:href="class_peer_logic_validation.html#a04dab16e6310bf18d432111cb6b126ad" target="_top" xlink:title="Send queued protocol messages to be sent to a give node. ">
<polygon fill="white" stroke="black" points="780,-126.353 780,-156.353 890,-156.353 890,-126.353 780,-126.353"/>
<text text-anchor="start" x="788" y="-144.353" font-family="Helvetica,sans-Serif" font-size="10.00">PeerLogicValidation</text>
<text text-anchor="middle" x="835" y="-133.353" font-family="Helvetica,sans-Serif" font-size="10.00">::SendMessages</text>
</a>
</g>
</g>
<!-- Node15&#45;&gt;Node18 -->
<g id="edge20" class="edge"><title>Node15&#45;&gt;Node18</title>
<path fill="none" stroke="midnightblue" d="M664.528,-406.534C666.919,-358.079 679.93,-232.674 750,-165.353 758.203,-157.472 768.809,-152.148 779.706,-148.561"/>
<polygon fill="midnightblue" stroke="midnightblue" points="661.026,-406.505 664.134,-416.634 668.021,-406.778 661.026,-406.505"/>
</g>
<!-- Node19 -->
<g id="node19" class="node"><title>Node19</title>
<g id="a_node19"><a xlink:href="struct_c_coins_stats.html#a3f68ce1f423e40599c8d3c4bf2d97aa9" target="_top" xlink:title="CCoinsStats::CCoinsStats">
<polygon fill="white" stroke="black" points="765,-690.853 765,-709.853 905,-709.853 905,-690.853 765,-690.853"/>
<text text-anchor="middle" x="835" y="-697.853" font-family="Helvetica,sans-Serif" font-size="10.00">CCoinsStats::CCoinsStats</text>
</a>
</g>
</g>
<!-- Node15&#45;&gt;Node19 -->
<g id="edge23" class="edge"><title>Node15&#45;&gt;Node19</title>
<path fill="none" stroke="midnightblue" d="M664.469,-446.275C666.734,-494.41 679.494,-617.748 750,-681.353 754.441,-685.359 759.545,-688.577 764.996,-691.155"/>
<polygon fill="midnightblue" stroke="midnightblue" points="667.955,-445.845 664.096,-435.978 660.96,-446.098 667.955,-445.845"/>
</g>
<!-- Node20 -->
<g id="node20" class="node"><title>Node20</title>
<g id="a_node20"><a xlink:href="blockchain_8cpp.html#a0d3ec9ae23b08828dd7ca646766ca637" target="_top" xlink:title="gettxout">
<polygon fill="white" stroke="black" points="806.5,-728.853 806.5,-747.853 863.5,-747.853 863.5,-728.853 806.5,-728.853"/>
<text text-anchor="middle" x="835" y="-735.853" font-family="Helvetica,sans-Serif" font-size="10.00">gettxout</text>
</a>
</g>
</g>
<!-- Node15&#45;&gt;Node20 -->
<g id="edge24" class="edge"><title>Node15&#45;&gt;Node20</title>
<path fill="none" stroke="midnightblue" d="M663.454,-445.969C663.125,-498.621 669.883,-644.135 750,-719.353 765.043,-733.475 788.277,-737.893 806.5,-738.965"/>
<polygon fill="midnightblue" stroke="midnightblue" points="666.954,-445.999 663.615,-435.944 659.955,-445.886 666.954,-445.999"/>
</g>
<!-- Node21 -->
<g id="node21" class="node"><title>Node21</title>
<g id="a_node21"><a xlink:href="blockchain_8cpp.html#af8ae2be64c52204527fac00aefc1151c" target="_top" xlink:title="scantxoutset">
<polygon fill="white" stroke="black" points="1004.5,-614.853 1004.5,-633.853 1083.5,-633.853 1083.5,-614.853 1004.5,-614.853"/>
<text text-anchor="middle" x="1044" y="-621.853" font-family="Helvetica,sans-Serif" font-size="10.00">scantxoutset</text>
</a>
</g>
</g>
<!-- Node15&#45;&gt;Node21 -->
<g id="edge31" class="edge"><title>Node15&#45;&gt;Node21</title>
<path fill="none" stroke="midnightblue" d="M666.942,-446.216C673.774,-484.482 694.583,-567.939 750,-605.353 790.453,-632.663 934.339,-629.746 1004.28,-626.543"/>
<polygon fill="midnightblue" stroke="midnightblue" points="670.321,-445.193 665.247,-435.892 663.413,-446.327 670.321,-445.193"/>
</g>
<!-- Node22 -->
<g id="node22" class="node"><title>Node22</title>
<g id="a_node22"><a xlink:href="blockchain_8h.html#a80859ca39e0f7b317d4965b47a1df62b" target="_top" xlink:title="Mempool information to JSON. ">
<polygon fill="white" stroke="black" points="779,-300.853 779,-319.853 891,-319.853 891,-300.853 779,-300.853"/>
<text text-anchor="middle" x="835" y="-307.853" font-family="Helvetica,sans-Serif" font-size="10.00">MempoolInfoToJSON</text>
</a>
</g>
</g>
<!-- Node15&#45;&gt;Node22 -->
<g id="edge26" class="edge"><title>Node15&#45;&gt;Node22</title>
<path fill="none" stroke="midnightblue" d="M680.729,-409.739C697.361,-393.778 724.069,-369.606 750,-352.353 769.547,-339.347 793.682,-327.683 811.058,-319.967"/>
<polygon fill="midnightblue" stroke="midnightblue" points="678.148,-407.367 673.421,-416.849 683.03,-412.384 678.148,-407.367"/>
</g>
<!-- Node23 -->
<g id="node23" class="node"><title>Node23</title>
<g id="a_node23"><a xlink:href="blockchain_8h.html#a7916bb05b909d901a0375641330510d1" target="_top" xlink:title="Used by getblockstats to get feerates at different percentiles by weight. ">
<polygon fill="white" stroke="black" points="756.5,-558.853 756.5,-577.853 913.5,-577.853 913.5,-558.853 756.5,-558.853"/>
<text text-anchor="middle" x="835" y="-565.853" font-family="Helvetica,sans-Serif" font-size="10.00">CalculatePercentilesByWeight</text>
</a>
</g>
</g>
<!-- Node15&#45;&gt;Node23 -->
<g id="edge29" class="edge"><title>Node15&#45;&gt;Node23</title>
<path fill="none" stroke="midnightblue" d="M672.711,-445.2C685.78,-471.387 712.938,-518.469 750,-544.353 759.077,-550.692 769.808,-555.368 780.511,-558.813"/>
<polygon fill="midnightblue" stroke="midnightblue" points="675.758,-443.461 668.261,-435.975 669.453,-446.503 675.758,-443.461"/>
</g>
<!-- Node24 -->
<g id="node24" class="node"><title>Node24</title>
<g id="a_node24"><a xlink:href="classsubmitblock___state_catcher.html#a89abec4d0d8ea6b2cd651439e3a4f45f" target="_top" xlink:title="Notifies listeners of a block validation result. ">
<polygon fill="white" stroke="black" points="763.5,-433.353 763.5,-463.353 906.5,-463.353 906.5,-433.353 763.5,-433.353"/>
<text text-anchor="start" x="771.5" y="-451.353" font-family="Helvetica,sans-Serif" font-size="10.00">submitblock_StateCatcher</text>
<text text-anchor="middle" x="835" y="-440.353" font-family="Helvetica,sans-Serif" font-size="10.00">::BlockChecked</text>
</a>
</g>
</g>
<!-- Node15&#45;&gt;Node24 -->
<g id="edge32" class="edge"><title>Node15&#45;&gt;Node24</title>
<path fill="none" stroke="midnightblue" d="M724.103,-434.131C736.844,-435.779 750.403,-437.534 763.489,-439.228"/>
<polygon fill="midnightblue" stroke="midnightblue" points="724.453,-430.647 714.086,-432.834 723.554,-437.589 724.453,-430.647"/>
</g>
<!-- Node25 -->
<g id="node25" class="node"><title>Node25</title>
<g id="a_node25"><a xlink:href="validation_8h.html#a8bc0d7a6f1e3a0d1f11f0ccad16efcf7" target="_top" xlink:title="Find the last common block between the parameter chain and a locator. ">
<polygon fill="white" stroke="black" points="775.5,-394.853 775.5,-413.853 894.5,-413.853 894.5,-394.853 775.5,-394.853"/>
<text text-anchor="middle" x="835" y="-401.853" font-family="Helvetica,sans-Serif" font-size="10.00">FindForkInGlobalIndex</text>
</a>
</g>
</g>
<!-- Node15&#45;&gt;Node25 -->
<g id="edge33" class="edge"><title>Node15&#45;&gt;Node25</title>
<path fill="none" stroke="midnightblue" d="M705.838,-415.03C726.773,-411.427 752.463,-407.92 775.332,-405.491"/>
<polygon fill="midnightblue" stroke="midnightblue" points="705.199,-411.589 695.976,-416.803 706.437,-418.479 705.199,-411.589"/>
</g>
<!-- Node33 -->
<g id="node33" class="node"><title>Node33</title>
<g id="a_node33"><a xlink:href="validation_8h.html#ada1eab9ccd84d9a98f598eba9bd35330" target="_top" xlink:title="Return the spend height, which is one more than the inputs.GetBestBlock(). ">
<polygon fill="white" stroke="black" points="787,-652.853 787,-671.853 883,-671.853 883,-652.853 787,-652.853"/>
<text text-anchor="middle" x="835" y="-659.853" font-family="Helvetica,sans-Serif" font-size="10.00">GetSpendHeight</text>
</a>
</g>
</g>
<!-- Node15&#45;&gt;Node33 -->
<g id="edge45" class="edge"><title>Node15&#45;&gt;Node33</title>
<path fill="none" stroke="midnightblue" d="M666.993,-445.904C673.653,-486.449 693.822,-578.889 750,-629.353 765.232,-643.035 787.759,-648.961 805.651,-652.826"/>
<polygon fill="midnightblue" stroke="midnightblue" points="670.437,-445.272 665.454,-435.922 663.519,-446.338 670.437,-445.272"/>
</g>
<!-- Node36 -->
<g id="node36" class="node"><title>Node36</title>
<g id="a_node36"><a xlink:href="validation_8h.html#a743ca389dc886ef8ec875ce8d08ec97e" target="_top" xlink:title="Produce the necessary coinbase commitment for a block (modifies the hash, don&#39;t call for mined blocks...">
<polygon fill="white" stroke="black" points="750,-842.853 750,-861.853 920,-861.853 920,-842.853 750,-842.853"/>
<text text-anchor="middle" x="835" y="-849.853" font-family="Helvetica,sans-Serif" font-size="10.00">GenerateCoinbaseCommitment</text>
</a>
</g>
</g>
<!-- Node15&#45;&gt;Node36 -->
<g id="edge52" class="edge"><title>Node15&#45;&gt;Node36</title>
<path fill="none" stroke="midnightblue" d="M665.875,-445.943C671.608,-498.986 692.174,-648.708 750,-757.353 769.136,-793.306 804.482,-826.908 822.616,-842.78"/>
<polygon fill="midnightblue" stroke="midnightblue" points="669.346,-445.473 664.844,-435.883 662.382,-446.187 669.346,-445.473"/>
</g>
<!-- Node38 -->
<g id="node38" class="node"><title>Node38</title>
<g id="a_node38"><a xlink:href="validation_8h.html#a3d5c8a89aff9de194bfa0ebc60be7d89" target="_top" xlink:title="Update the chain tip based on database information. ">
<polygon fill="white" stroke="black" points="1209.5,-502.853 1209.5,-521.853 1289.5,-521.853 1289.5,-502.853 1209.5,-502.853"/>
<text text-anchor="middle" x="1249.5" y="-509.853" font-family="Helvetica,sans-Serif" font-size="10.00">LoadChainTip</text>
</a>
</g>
</g>
<!-- Node15&#45;&gt;Node38 -->
<g id="edge55" class="edge"><title>Node15&#45;&gt;Node38</title>
<path fill="none" stroke="midnightblue" d="M686.039,-441.431C702.793,-452.054 726.834,-465.55 750,-472.353 915.362,-520.91 1124,-518.215 1209.38,-514.554"/>
<polygon fill="midnightblue" stroke="midnightblue" points="687.822,-438.415 677.533,-435.886 683.999,-444.279 687.822,-438.415"/>
</g>
<!-- Node39 -->
<g id="node39" class="node"><title>Node39</title>
<g id="a_node39"><a xlink:href="validation_8h.html#a7f6c6d38725bf1777775385e2f80c216" target="_top" xlink:title="Import blocks from an external file. ">
<polygon fill="white" stroke="black" points="775.5,-87.8525 775.5,-106.853 894.5,-106.853 894.5,-87.8525 775.5,-87.8525"/>
<text text-anchor="middle" x="835" y="-94.8525" font-family="Helvetica,sans-Serif" font-size="10.00">LoadExternalBlockFile</text>
</a>
</g>
</g>
<!-- Node15&#45;&gt;Node39 -->
<g id="edge57" class="edge"><title>Node15&#45;&gt;Node39</title>
<path fill="none" stroke="midnightblue" d="M666.79,-406.724C675.932,-345.146 706.893,-157.432 750,-116.353 757.036,-109.648 765.914,-105.123 775.245,-102.103"/>
<polygon fill="midnightblue" stroke="midnightblue" points="663.316,-406.29 665.339,-416.69 670.243,-407.299 663.316,-406.29"/>
</g>
<!-- Node20&#45;&gt;Node21 -->
<g id="edge25" class="edge"><title>Node20&#45;&gt;Node21</title>
<path fill="none" stroke="midnightblue" d="M873.614,-736.993C889.357,-734.729 906.982,-729.782 920,-719.353 949.169,-695.984 926.744,-666.613 956,-643.353 969.554,-632.577 987.9,-627.593 1004.25,-625.396"/>
<polygon fill="midnightblue" stroke="midnightblue" points="873.151,-733.522 863.607,-738.123 873.936,-740.478 873.151,-733.522"/>
</g>
<!-- Node22&#45;&gt;Node9 -->
<g id="edge27" class="edge"><title>Node22&#45;&gt;Node9</title>
<path fill="none" stroke="midnightblue" d="M897.811,-299.006C927.511,-293.553 962.709,-287.092 991.011,-281.896"/>
<polygon fill="midnightblue" stroke="midnightblue" points="897.171,-295.564 887.968,-300.813 898.435,-302.449 897.171,-295.564"/>
</g>
<!-- Node22&#45;&gt;Node22 -->
<g id="edge28" class="edge"><title>Node22&#45;&gt;Node22</title>
<path fill="none" stroke="midnightblue" d="M802.814,-328.627C803.732,-334.094 814.461,-338.353 835,-338.353 865.57,-338.353 874.407,-328.918 861.51,-320.11"/>
<polygon fill="midnightblue" stroke="midnightblue" points="805.857,-330.372 808.49,-320.11 800.032,-326.491 805.857,-330.372"/>
</g>
<!-- Node23&#45;&gt;Node23 -->
<g id="edge30" class="edge"><title>Node23&#45;&gt;Node23</title>
<path fill="none" stroke="midnightblue" d="M802.814,-586.627C803.732,-592.094 814.461,-596.353 835,-596.353 865.57,-596.353 874.407,-586.918 861.51,-578.11"/>
<polygon fill="midnightblue" stroke="midnightblue" points="805.857,-588.372 808.49,-578.11 800.032,-584.491 805.857,-588.372"/>
</g>
<!-- Node25&#45;&gt;Node11 -->
<g id="edge44" class="edge"><title>Node25&#45;&gt;Node11</title>
<path fill="none" stroke="midnightblue" d="M904.696,-400.523C964.803,-396.757 1054.39,-390.141 1132,-380.353 1166.41,-376.013 1206.16,-368.687 1229.2,-364.209"/>
<polygon fill="midnightblue" stroke="midnightblue" points="904.334,-397.038 894.568,-401.148 904.765,-404.025 904.334,-397.038"/>
</g>
<!-- Node25&#45;&gt;Node15 -->
<g id="edge34" class="edge"><title>Node25&#45;&gt;Node15</title>
<path fill="none" stroke="midnightblue" d="M792.148,-415.677C768.55,-419.739 738.913,-423.677 714.086,-426.087"/>
<polygon fill="midnightblue" stroke="midnightblue" points="792.97,-419.085 802.193,-413.87 791.731,-412.196 792.97,-419.085"/>
</g>
<!-- Node26 -->
<g id="node26" class="node"><title>Node26</title>
<g id="a_node26"><a xlink:href="class_base_index.html#a10dbed01cf8ad8126b6195844a62d281" target="_top" xlink:title="Initialize internal state from the database and block index. ">
<polygon fill="white" stroke="black" points="1001,-432.853 1001,-451.853 1087,-451.853 1087,-432.853 1001,-432.853"/>
<text text-anchor="middle" x="1044" y="-439.853" font-family="Helvetica,sans-Serif" font-size="10.00">BaseIndex::Init</text>
</a>
</g>
</g>
<!-- Node25&#45;&gt;Node26 -->
<g id="edge35" class="edge"><title>Node25&#45;&gt;Node26</title>
<path fill="none" stroke="midnightblue" d="M898.026,-415.739C931.203,-421.829 971.193,-429.17 1000.76,-434.598"/>
<polygon fill="midnightblue" stroke="midnightblue" points="898.435,-412.256 887.968,-413.892 897.171,-419.141 898.435,-412.256"/>
</g>
<!-- Node27 -->
<g id="node27" class="node"><title>Node27</title>
<g id="a_node27"><a xlink:href="class_base_index.html#a2babb71bb9b93aadba06dae6e62d721b" target="_top" xlink:title="Start initializes the sync state and registers the instance as a ValidationInterface so that it stays...">
<polygon fill="white" stroke="black" points="1201.5,-388.853 1201.5,-407.853 1297.5,-407.853 1297.5,-388.853 1201.5,-388.853"/>
<text text-anchor="middle" x="1249.5" y="-395.853" font-family="Helvetica,sans-Serif" font-size="10.00">BaseIndex::Start</text>
</a>
</g>
</g>
<!-- Node26&#45;&gt;Node27 -->
<g id="edge36" class="edge"><title>Node26&#45;&gt;Node27</title>
<path fill="none" stroke="midnightblue" d="M1097.14,-431.08C1130.3,-423.91 1172.77,-414.727 1204.28,-407.914"/>
<polygon fill="midnightblue" stroke="midnightblue" points="1096.2,-427.701 1087.17,-433.236 1097.68,-434.543 1096.2,-427.701"/>
</g>
<!-- Node31 -->
<g id="node31" class="node"><title>Node31</title>
<g id="a_node31"><a xlink:href="class_block_filter_index.html#a77a5500d15d374075a3f14837edbc358" target="_top" xlink:title="Initialize internal state from the database and block index. ">
<polygon fill="white" stroke="black" points="1194.5,-426.853 1194.5,-445.853 1304.5,-445.853 1304.5,-426.853 1194.5,-426.853"/>
<text text-anchor="middle" x="1249.5" y="-433.853" font-family="Helvetica,sans-Serif" font-size="10.00">BlockFilterIndex::Init</text>
</a>
</g>
</g>
<!-- Node26&#45;&gt;Node31 -->
<g id="edge42" class="edge"><title>Node26&#45;&gt;Node31</title>
<path fill="none" stroke="midnightblue" d="M1097.36,-440.809C1127.12,-439.931 1164.33,-438.834 1194.38,-437.948"/>
<polygon fill="midnightblue" stroke="midnightblue" points="1097.06,-437.316 1087.17,-441.109 1097.26,-444.313 1097.06,-437.316"/>
</g>
<!-- Node32 -->
<g id="node32" class="node"><title>Node32</title>
<g id="a_node32"><a xlink:href="class_tx_index.html#a2ebe57b9a6d64ab90a9c6f8390649b48" target="_top" xlink:title="Override base class init to migrate from old database. ">
<polygon fill="white" stroke="black" points="1213,-464.853 1213,-483.853 1286,-483.853 1286,-464.853 1213,-464.853"/>
<text text-anchor="middle" x="1249.5" y="-471.853" font-family="Helvetica,sans-Serif" font-size="10.00">TxIndex::Init</text>
</a>
</g>
</g>
<!-- Node26&#45;&gt;Node32 -->
<g id="edge43" class="edge"><title>Node26&#45;&gt;Node32</title>
<path fill="none" stroke="midnightblue" d="M1097.08,-450.542C1133.36,-456.247 1180.8,-463.707 1212.84,-468.745"/>
<polygon fill="midnightblue" stroke="midnightblue" points="1097.59,-447.079 1087.17,-448.983 1096.5,-453.994 1097.59,-447.079"/>
</g>
<!-- Node27&#45;&gt;Node7 -->
<g id="edge41" class="edge"><title>Node27&#45;&gt;Node7</title>
<path fill="none" stroke="midnightblue" d="M1307.36,-406.898C1315.64,-409.506 1323.8,-412.91 1331,-417.353 1375.17,-444.594 1408.85,-499.335 1421.29,-521.6"/>
<polygon fill="midnightblue" stroke="midnightblue" points="1308.2,-403.497 1297.62,-404.187 1306.32,-410.241 1308.2,-403.497"/>
</g>
<!-- Node28 -->
<g id="node28" class="node"><title>Node28</title>
<g id="a_node28"><a xlink:href="class_base_index.html#a8960ca12b00a8a6c38428a07849ef88a" target="_top" xlink:title="Write update index entries for a newly connected block. ">
<polygon fill="white" stroke="black" points="1367,-407.853 1367,-426.853 1488,-426.853 1488,-407.853 1367,-407.853"/>
<text text-anchor="middle" x="1427.5" y="-414.853" font-family="Helvetica,sans-Serif" font-size="10.00">BaseIndex::WriteBlock</text>
</a>
</g>
</g>
<!-- Node27&#45;&gt;Node28 -->
<g id="edge37" class="edge"><title>Node27&#45;&gt;Node28</title>
<path fill="none" stroke="midnightblue" d="M1307.65,-404.522C1326.61,-406.569 1347.76,-408.852 1366.9,-410.919"/>
<polygon fill="midnightblue" stroke="midnightblue" points="1307.98,-401.038 1297.66,-403.444 1307.23,-407.997 1307.98,-401.038"/>
</g>
<!-- Node29 -->
<g id="node29" class="node"><title>Node29</title>
<g id="a_node29"><a xlink:href="class_base_index.html#a96a7407421fbf877509248bbe64f8d87" target="_top" xlink:title="Sync the index with the block index starting from the current best block. ">
<polygon fill="white" stroke="black" points="1534.5,-369.853 1534.5,-388.853 1662.5,-388.853 1662.5,-369.853 1534.5,-369.853"/>
<text text-anchor="middle" x="1598.5" y="-376.853" font-family="Helvetica,sans-Serif" font-size="10.00">BaseIndex::ThreadSync</text>
</a>
</g>
</g>
<!-- Node28&#45;&gt;Node29 -->
<g id="edge38" class="edge"><title>Node28&#45;&gt;Node29</title>
<path fill="none" stroke="midnightblue" d="M1481.09,-405.528C1504.91,-400.171 1532.71,-393.921 1555.16,-388.873"/>
<polygon fill="midnightblue" stroke="midnightblue" points="1480.13,-402.155 1471.15,-407.764 1481.67,-408.984 1480.13,-402.155"/>
</g>
<!-- Node30 -->
<g id="node30" class="node"><title>Node30</title>
<g id="a_node30"><a xlink:href="class_base_index.html#ab3f7a06bc635950918ee072262887223" target="_top" xlink:title="Notifies listeners of a block being connected. ">
<polygon fill="white" stroke="black" points="1524,-407.853 1524,-426.853 1673,-426.853 1673,-407.853 1524,-407.853"/>
<text text-anchor="middle" x="1598.5" y="-414.853" font-family="Helvetica,sans-Serif" font-size="10.00">BaseIndex::BlockConnected</text>
</a>
</g>
</g>
<!-- Node28&#45;&gt;Node30 -->
<g id="edge40" class="edge"><title>Node28&#45;&gt;Node30</title>
<path fill="none" stroke="midnightblue" d="M1498.29,-417.353C1506.75,-417.353 1515.42,-417.353 1523.94,-417.353"/>
<polygon fill="midnightblue" stroke="midnightblue" points="1498.08,-413.853 1488.08,-417.353 1498.08,-420.853 1498.08,-413.853"/>
</g>
<!-- Node29&#45;&gt;Node27 -->
<g id="edge39" class="edge"><title>Node29&#45;&gt;Node27</title>
<path fill="none" stroke="midnightblue" d="M1524,-383.377C1455.67,-387.119 1355.91,-392.581 1297.66,-395.77"/>
<polygon fill="midnightblue" stroke="midnightblue" points="1524.47,-386.857 1534.26,-382.815 1524.09,-379.867 1524.47,-386.857"/>
</g>
<!-- Node33&#45;&gt;Node10 -->
<g id="edge47" class="edge"><title>Node33&#45;&gt;Node10</title>
<path fill="none" stroke="midnightblue" d="M893.389,-662.353C922.911,-662.353 958.725,-662.353 987.91,-662.353"/>
<polygon fill="midnightblue" stroke="midnightblue" points="893.231,-658.853 883.231,-662.353 893.23,-665.853 893.231,-658.853"/>
</g>
<!-- Node33&#45;&gt;Node15 -->
<g id="edge46" class="edge"><title>Node33&#45;&gt;Node15</title>
<path fill="none" stroke="midnightblue" d="M776.828,-662.441C767.056,-659.096 757.616,-654.194 750,-647.353 684.108,-588.164 667.755,-471.226 664.634,-436.113"/>
<polygon fill="midnightblue" stroke="midnightblue" points="776.077,-665.867 786.656,-665.281 778.021,-659.142 776.077,-665.867"/>
</g>
<!-- Node33&#45;&gt;Node34 -->
<g id="edge48" class="edge"><title>Node33&#45;&gt;Node34</title>
<path fill="none" stroke="midnightblue" d="M893.079,-673.175C902.198,-675.499 911.442,-678.218 920,-681.353 960.686,-696.255 1004.97,-721.842 1027.67,-735.72"/>
<polygon fill="midnightblue" stroke="midnightblue" points="893.813,-669.752 883.271,-670.808 892.171,-676.557 893.813,-669.752"/>
</g>
<!-- Node34&#45;&gt;Node34 -->
<g id="edge51" class="edge"><title>Node34&#45;&gt;Node34</title>
<path fill="none" stroke="midnightblue" d="M1005.77,-762.466C1005.2,-768.479 1017.94,-773.353 1044,-773.353 1080.26,-773.353 1090.74,-763.918 1075.44,-755.11"/>
<polygon fill="midnightblue" stroke="midnightblue" points="1008.35,-764.832 1012.56,-755.11 1003.2,-760.085 1008.35,-764.832"/>
</g>
<!-- Node35 -->
<g id="node35" class="node"><title>Node35</title>
<g id="a_node35"><a xlink:href="class_c_tx_mem_pool.html#a14d49e10e7c1a12335bf983891c1ed07" target="_top" xlink:title="CTxMemPool::removeForReorg">
<polygon fill="white" stroke="black" points="1168,-735.853 1168,-754.853 1331,-754.853 1331,-735.853 1168,-735.853"/>
<text text-anchor="middle" x="1249.5" y="-742.853" font-family="Helvetica,sans-Serif" font-size="10.00">CTxMemPool::removeForReorg</text>
</a>
</g>
</g>
<!-- Node34&#45;&gt;Node35 -->
<g id="edge49" class="edge"><title>Node34&#45;&gt;Node35</title>
<path fill="none" stroke="midnightblue" d="M1115.05,-738.903C1132,-738.572 1150.25,-738.514 1167.66,-738.731"/>
<polygon fill="midnightblue" stroke="midnightblue" points="1114.6,-735.412 1104.68,-739.144 1114.76,-742.41 1114.6,-735.412"/>
</g>
<!-- Node35&#45;&gt;Node34 -->
<g id="edge50" class="edge"><title>Node35&#45;&gt;Node34</title>
<path fill="none" stroke="midnightblue" d="M1157.23,-752.071C1139.41,-752.18 1121.15,-752.01 1104.68,-751.561"/>
<polygon fill="midnightblue" stroke="midnightblue" points="1157.69,-755.567 1167.66,-751.974 1157.62,-748.567 1157.69,-755.567"/>
</g>
<!-- Node36&#45;&gt;Node3 -->
<g id="edge54" class="edge"><title>Node36&#45;&gt;Node3</title>
<path fill="none" stroke="midnightblue" d="M907.55,-863.413C927.002,-866.42 948.124,-869.686 967.773,-872.723"/>
<polygon fill="midnightblue" stroke="midnightblue" points="907.964,-859.936 897.546,-861.867 906.894,-866.854 907.964,-859.936"/>
</g>
<!-- Node37 -->
<g id="node37" class="node"><title>Node37</title>
<g id="a_node37"><a xlink:href="class_c_script_check.html#a4bad3434ddad70669f634879a8af132e" target="_top" xlink:title="CScriptCheck::GetScriptError">
<polygon fill="white" stroke="black" points="966.5,-830.853 966.5,-849.853 1121.5,-849.853 1121.5,-830.853 966.5,-830.853"/>
<text text-anchor="middle" x="1044" y="-837.853" font-family="Helvetica,sans-Serif" font-size="10.00">CScriptCheck::GetScriptError</text>
</a>
</g>
</g>
<!-- Node36&#45;&gt;Node37 -->
<g id="edge53" class="edge"><title>Node36&#45;&gt;Node37</title>
<path fill="none" stroke="midnightblue" d="M930.253,-846.889C942.292,-846.191 954.499,-845.483 966.215,-844.804"/>
<polygon fill="midnightblue" stroke="midnightblue" points="929.975,-843.399 920.195,-847.472 930.381,-850.387 929.975,-843.399"/>
</g>
<!-- Node38&#45;&gt;Node7 -->
<g id="edge56" class="edge"><title>Node38&#45;&gt;Node7</title>
<path fill="none" stroke="midnightblue" d="M1299.56,-517.649C1328.76,-520.801 1365.12,-524.726 1391.43,-527.566"/>
<polygon fill="midnightblue" stroke="midnightblue" points="1299.88,-514.163 1289.56,-516.569 1299.13,-521.122 1299.88,-514.163"/>
</g>
<!-- Node39&#45;&gt;Node40 -->
<g id="edge58" class="edge"><title>Node39&#45;&gt;Node40</title>
<path fill="none" stroke="midnightblue" d="M888.215,-85.5537C898.739,-83.1723 909.724,-80.6844 920,-78.3525 947.017,-72.2219 977.367,-65.3131 1001.16,-59.8922"/>
<polygon fill="midnightblue" stroke="midnightblue" points="887.286,-82.1754 878.305,-87.7956 888.83,-89.0029 887.286,-82.1754"/>
</g>
</g>
</svg>
