<?xml version="1.0" encoding="UTF-8" standalone="no"?>
<!DOCTYPE svg PUBLIC "-//W3C//DTD SVG 1.1//EN"
 "http://www.w3.org/Graphics/SVG/1.1/DTD/svg11.dtd">
<!-- Generated by graphviz version 2.38.0 (20140413.2041)
 -->
<!-- Title: BerkeleyDatabase::CreateDummy Pages: 1 -->
<svg width="944pt" height="104pt"
 viewBox="0.00 0.00 944.00 104.00" xmlns="http://www.w3.org/2000/svg" xmlns:xlink="http://www.w3.org/1999/xlink">
<g id="graph0" class="graph" transform="scale(1 1) rotate(0) translate(4 100)">
<title>BerkeleyDatabase::CreateDummy</title>
<polygon fill="white" stroke="none" points="-4,4 -4,-100 940,-100 940,4 -4,4"/>
<!-- Node1 -->
<g id="node1" class="node"><title>Node1</title>
<polygon fill="#bfbfbf" stroke="black" points="0,-14 0,-44 143,-44 143,-14 0,-14"/>
<text text-anchor="start" x="8" y="-32" font-family="Helvetica,sans-Serif" font-size="10.00">BerkeleyDatabase::Create</text>
<text text-anchor="middle" x="71.5" y="-21" font-family="Helvetica,sans-Serif" font-size="10.00">Dummy</text>
</g>
<!-- Node2 -->
<g id="node2" class="node"><title>Node2</title>
<g id="a_node2"><a xlink:href="class_c_wallet.html#a698a966b418eec1727031667d6f93bcb" target="_top" xlink:title="Verify wallet naming and perform salvage on the wallet if required. ">
<polygon fill="white" stroke="black" points="214.5,-38.5 214.5,-57.5 297.5,-57.5 297.5,-38.5 214.5,-38.5"/>
<text text-anchor="middle" x="256" y="-45.5" font-family="Helvetica,sans-Serif" font-size="10.00">CWallet::Verify</text>
</a>
</g>
</g>
<!-- Node1&#45;&gt;Node2 -->
<g id="edge1" class="edge"><title>Node1&#45;&gt;Node2</title>
<path fill="none" stroke="midnightblue" d="M153.07,-37.3881C174.304,-39.5987 196.319,-41.8908 214.433,-43.7766"/>
<polygon fill="midnightblue" stroke="midnightblue" points="153.368,-33.9003 143.059,-36.3459 152.643,-40.8627 153.368,-33.9003"/>
</g>
<!-- Node11 -->
<g id="node11" class="node"><title>Node11</title>
<g id="a_node11"><a xlink:href="wallet__tests_8cpp.html#aaa523842972d408c5762c7a71b1ecc0c" target="_top" xlink:title="BOOST_FIXTURE_TEST_CASE">
<polygon fill="white" stroke="black" points="179,-0.5 179,-19.5 333,-19.5 333,-0.5 179,-0.5"/>
<text text-anchor="middle" x="256" y="-7.5" font-family="Helvetica,sans-Serif" font-size="10.00">BOOST_FIXTURE_TEST_CASE</text>
</a>
</g>
</g>
<!-- Node1&#45;&gt;Node11 -->
<g id="edge10" class="edge"><title>Node1&#45;&gt;Node11</title>
<path fill="none" stroke="midnightblue" d="M153.057,-20.6132C161.639,-19.7197 170.35,-18.8129 178.879,-17.925"/>
<polygon fill="midnightblue" stroke="midnightblue" points="152.643,-17.1373 143.059,-21.6541 153.368,-24.0997 152.643,-17.1373"/>
</g>
<!-- Node3 -->
<g id="node3" class="node"><title>Node3</title>
<g id="a_node3"><a xlink:href="wallet_2wallet_8h.html#a7058e0a66c69a84d56417e0489fdce86" target="_top" xlink:title="Responsible for reading and validating the &#45;wallet arguments and verifying the wallet database...">
<polygon fill="white" stroke="black" points="375.5,-76.5 375.5,-95.5 451.5,-95.5 451.5,-76.5 375.5,-76.5"/>
<text text-anchor="middle" x="413.5" y="-83.5" font-family="Helvetica,sans-Serif" font-size="10.00">VerifyWallets</text>
</a>
</g>
</g>
<!-- Node2&#45;&gt;Node3 -->
<g id="edge2" class="edge"><title>Node2&#45;&gt;Node3</title>
<path fill="none" stroke="midnightblue" d="M306.241,-60.0331C328.641,-65.5071 354.706,-71.8767 375.414,-76.9373"/>
<polygon fill="midnightblue" stroke="midnightblue" points="306.784,-56.563 296.239,-57.589 305.122,-63.3629 306.784,-56.563"/>
</g>
<!-- Node4 -->
<g id="node4" class="node"><title>Node4</title>
<g id="a_node4"><a xlink:href="wallet_2wallet_8h.html#ab115d1b86c25902d2a32d7a919382bd1" target="_top" xlink:title="LoadWallet">
<polygon fill="white" stroke="black" points="379.5,-38.5 379.5,-57.5 447.5,-57.5 447.5,-38.5 379.5,-38.5"/>
<text text-anchor="middle" x="413.5" y="-45.5" font-family="Helvetica,sans-Serif" font-size="10.00">LoadWallet</text>
</a>
</g>
</g>
<!-- Node2&#45;&gt;Node4 -->
<g id="edge3" class="edge"><title>Node2&#45;&gt;Node4</title>
<path fill="none" stroke="midnightblue" d="M308.014,-48C331.518,-48 358.734,-48 379.496,-48"/>
<polygon fill="midnightblue" stroke="midnightblue" points="307.856,-44.5001 297.856,-48 307.856,-51.5001 307.856,-44.5001"/>
</g>
<!-- Node9 -->
<g id="node9" class="node"><title>Node9</title>
<g id="a_node9"><a xlink:href="rpcwallet_8cpp.html#a74b85c92ee6a84277c73b74f2e212bff" target="_top" xlink:title="listtransactions">
<polygon fill="white" stroke="black" points="369,-0.5 369,-19.5 458,-19.5 458,-0.5 369,-0.5"/>
<text text-anchor="middle" x="413.5" y="-7.5" font-family="Helvetica,sans-Serif" font-size="10.00">listtransactions</text>
</a>
</g>
</g>
<!-- Node2&#45;&gt;Node9 -->
<g id="edge8" class="edge"><title>Node2&#45;&gt;Node9</title>
<path fill="none" stroke="midnightblue" d="M305.974,-36.032C327.765,-30.7069 353.067,-24.5238 373.543,-19.5201"/>
<polygon fill="midnightblue" stroke="midnightblue" points="305.122,-32.6371 296.239,-38.411 306.784,-39.437 305.122,-32.6371"/>
</g>
<!-- Node5 -->
<g id="node5" class="node"><title>Node5</title>
<g id="a_node5"><a xlink:href="wallet_2wallet_8cpp.html#a1e3b0724aabb0c37fda10ce9f4c86432" target="_top" xlink:title="LoadWallet">
<polygon fill="white" stroke="black" points="532.5,-76.5 532.5,-95.5 600.5,-95.5 600.5,-76.5 532.5,-76.5"/>
<text text-anchor="middle" x="566.5" y="-83.5" font-family="Helvetica,sans-Serif" font-size="10.00">LoadWallet</text>
</a>
</g>
</g>
<!-- Node4&#45;&gt;Node5 -->
<g id="edge4" class="edge"><title>Node4&#45;&gt;Node5</title>
<path fill="none" stroke="midnightblue" d="M457.478,-58.8156C481.286,-64.807 510.427,-72.1406 532.44,-77.6802"/>
<polygon fill="midnightblue" stroke="midnightblue" points="458.189,-55.3856 447.638,-56.3393 456.481,-62.174 458.189,-55.3856"/>
</g>
<!-- Node6 -->
<g id="node6" class="node"><title>Node6</title>
<g id="a_node6"><a xlink:href="class_c_wallet.html#a112db1b8ea4c0bc36d6674ffeaaa55a7" target="_top" xlink:title="CWallet::GetAllReserveKeys">
<polygon fill="white" stroke="black" points="494,-38.5 494,-57.5 639,-57.5 639,-38.5 494,-38.5"/>
<text text-anchor="middle" x="566.5" y="-45.5" font-family="Helvetica,sans-Serif" font-size="10.00">CWallet::GetAllReserveKeys</text>
</a>
</g>
</g>
<!-- Node4&#45;&gt;Node6 -->
<g id="edge5" class="edge"><title>Node4&#45;&gt;Node6</title>
<path fill="none" stroke="midnightblue" d="M457.978,-48C469.175,-48 481.526,-48 493.746,-48"/>
<polygon fill="midnightblue" stroke="midnightblue" points="457.638,-44.5001 447.638,-48 457.638,-51.5001 457.638,-44.5001"/>
</g>
<!-- Node7 -->
<g id="node7" class="node"><title>Node7</title>
<g id="a_node7"><a xlink:href="wallet__tests_8cpp.html#a73ce3a42e0b56b2e4516e55871d8590e" target="_top" xlink:title="dumpwallet">
<polygon fill="white" stroke="black" points="675,-38.5 675,-57.5 746,-57.5 746,-38.5 675,-38.5"/>
<text text-anchor="middle" x="710.5" y="-45.5" font-family="Helvetica,sans-Serif" font-size="10.00">dumpwallet</text>
</a>
</g>
</g>
<!-- Node6&#45;&gt;Node7 -->
<g id="edge6" class="edge"><title>Node6&#45;&gt;Node7</title>
<path fill="none" stroke="midnightblue" d="M649.451,-48C658.352,-48 667.018,-48 674.871,-48"/>
<polygon fill="midnightblue" stroke="midnightblue" points="649.332,-44.5001 639.332,-48 649.332,-51.5001 649.332,-44.5001"/>
</g>
<!-- Node8 -->
<g id="node8" class="node"><title>Node8</title>
<g id="a_node8"><a xlink:href="wallet__tests_8cpp.html#a2a726fa52b0a343883cb50a3f68d0989" target="_top" xlink:title="BOOST_FIXTURE_TEST_CASE">
<polygon fill="white" stroke="black" points="782,-38.5 782,-57.5 936,-57.5 936,-38.5 782,-38.5"/>
<text text-anchor="middle" x="859" y="-45.5" font-family="Helvetica,sans-Serif" font-size="10.00">BOOST_FIXTURE_TEST_CASE</text>
</a>
</g>
</g>
<!-- Node7&#45;&gt;Node8 -->
<g id="edge7" class="edge"><title>Node7&#45;&gt;Node8</title>
<path fill="none" stroke="midnightblue" d="M756.242,-48C764.422,-48 773.165,-48 781.961,-48"/>
<polygon fill="midnightblue" stroke="midnightblue" points="756.218,-44.5001 746.218,-48 756.218,-51.5001 756.218,-44.5001"/>
</g>
<!-- Node10 -->
<g id="node10" class="node"><title>Node10</title>
<g id="a_node10"><a xlink:href="rpcwallet_8cpp.html#afca55ac7a3c6c274b8b7b3e6eab9cd86" target="_top" xlink:title="walletcreatefundedpsbt">
<polygon fill="white" stroke="black" points="502.5,-0.5 502.5,-19.5 630.5,-19.5 630.5,-0.5 502.5,-0.5"/>
<text text-anchor="middle" x="566.5" y="-7.5" font-family="Helvetica,sans-Serif" font-size="10.00">walletcreatefundedpsbt</text>
</a>
</g>
</g>
<!-- Node9&#45;&gt;Node10 -->
<g id="edge9" class="edge"><title>Node9&#45;&gt;Node10</title>
<path fill="none" stroke="midnightblue" d="M468.445,-10C479.402,-10 491.02,-10 502.266,-10"/>
<polygon fill="midnightblue" stroke="midnightblue" points="468.175,-6.5001 458.175,-10 468.175,-13.5001 468.175,-6.5001"/>
</g>
</g>
</svg>
