<?xml version="1.0" encoding="UTF-8" standalone="no"?>
<!DOCTYPE svg PUBLIC "-//W3C//DTD SVG 1.1//EN"
 "http://www.w3.org/Graphics/SVG/1.1/DTD/svg11.dtd">
<!-- Generated by graphviz version 2.49.3 (0)
 -->
<!-- Title: CCrypter::SetKey Pages: 1 -->
<svg width="1580pt" height="654pt"
 viewBox="0.00 0.00 1580.00 653.50" xmlns="http://www.w3.org/2000/svg" xmlns:xlink="http://www.w3.org/1999/xlink">
<g id="graph0" class="graph" transform="scale(1 1) rotate(0) translate(4 649.5)">
<title>CCrypter::SetKey</title>
<polygon fill="white" stroke="transparent" points="-4,4 -4,-649.5 1576,-649.5 1576,4 -4,4"/>
<!-- Node1 -->
<g id="node1" class="node">
<title>Node1</title>
<g id="a_node1"><a xlink:title=" ">
<polygon fill="#bfbfbf" stroke="black" points="1473,-295 1473,-314 1572,-314 1572,-295 1473,-295"/>
<text text-anchor="middle" x="1522.5" y="-302" font-family="Helvetica,sans-Serif" font-size="10.00">CCrypter::SetKey</text>
</a>
</g>
</g>
<!-- Node2 -->
<g id="node2" class="node">
<title>Node2</title>
<g id="a_node2"><a xlink:href="crypter_8cpp.html#aded00aa7498a7485a00e77a20856b3e4" target="_top" xlink:title=" ">
<polygon fill="white" stroke="black" points="1351,-400 1351,-419 1437,-419 1437,-400 1351,-400"/>
<text text-anchor="middle" x="1394" y="-407" font-family="Helvetica,sans-Serif" font-size="10.00">DecryptSecret</text>
</a>
</g>
</g>
<!-- Node1&#45;&gt;Node2 -->
<g id="edge1" class="edge">
<title>Node1&#45;&gt;Node2</title>
<path fill="none" stroke="midnightblue" d="M1501.94,-320.74C1475.28,-342.87 1428.37,-381.8 1406.65,-399.83"/>
<polygon fill="midnightblue" stroke="midnightblue" points="1504.37,-323.27 1509.83,-314.19 1499.9,-317.88 1504.37,-323.27"/>
</g>
<!-- Node45 -->
<g id="node36" class="node">
<title>Node45</title>
<g id="a_node36"><a xlink:href="crypter_8cpp.html#a4fa4e3134d2b6e4913b9ce6369820697" target="_top" xlink:title=" ">
<polygon fill="white" stroke="black" points="1231,-104 1231,-123 1315,-123 1315,-104 1231,-104"/>
<text text-anchor="middle" x="1273" y="-111" font-family="Helvetica,sans-Serif" font-size="10.00">EncryptSecret</text>
</a>
</g>
</g>
<!-- Node1&#45;&gt;Node45 -->
<g id="edge39" class="edge">
<title>Node1&#45;&gt;Node45</title>
<path fill="none" stroke="midnightblue" d="M1500.79,-288.52C1451.17,-250.22 1326.6,-154.1 1286.59,-123.21"/>
<polygon fill="midnightblue" stroke="midnightblue" points="1498.83,-291.43 1508.89,-294.77 1503.11,-285.89 1498.83,-291.43"/>
</g>
<!-- Node3 -->
<g id="node3" class="node">
<title>Node3</title>
<g id="a_node3"><a xlink:href="crypter_8cpp.html#a2490328e4058dc403898775581def0d6" target="_top" xlink:title=" ">
<polygon fill="white" stroke="black" points="1236.5,-486 1236.5,-505 1309.5,-505 1309.5,-486 1236.5,-486"/>
<text text-anchor="middle" x="1273" y="-493" font-family="Helvetica,sans-Serif" font-size="10.00">DecryptKey</text>
</a>
</g>
</g>
<!-- Node2&#45;&gt;Node3 -->
<g id="edge2" class="edge">
<title>Node2&#45;&gt;Node3</title>
<path fill="none" stroke="midnightblue" d="M1371.51,-425.03C1346.99,-442.75 1307.66,-471.18 1287.25,-485.93"/>
<polygon fill="midnightblue" stroke="midnightblue" points="1373.76,-427.73 1379.81,-419.03 1369.66,-422.05 1373.76,-427.73"/>
</g>
<!-- Node4 -->
<g id="node4" class="node">
<title>Node4</title>
<g id="a_node4"><a xlink:href="class_legacy_script_pub_key_man.html#a55f2712e5fb2d84480c06ccfc9ec86ec" target="_top" xlink:title="Check that the given decryption key is valid for this ScriptPubKeyMan, i.e. it decrypts all of the ke...">
<polygon fill="white" stroke="black" points="1051,-578.5 1051,-608.5 1187,-608.5 1187,-578.5 1051,-578.5"/>
<text text-anchor="start" x="1059" y="-596.5" font-family="Helvetica,sans-Serif" font-size="10.00">LegacyScriptPubKeyMan</text>
<text text-anchor="middle" x="1119" y="-585.5" font-family="Helvetica,sans-Serif" font-size="10.00">::CheckDecryptionKey</text>
</a>
</g>
</g>
<!-- Node3&#45;&gt;Node4 -->
<g id="edge3" class="edge">
<title>Node3&#45;&gt;Node4</title>
<path fill="none" stroke="midnightblue" d="M1257.95,-513.01C1243.71,-529.7 1220.22,-554.46 1195,-569.5 1189.36,-572.86 1183.2,-575.8 1176.92,-578.37"/>
<polygon fill="midnightblue" stroke="midnightblue" points="1260.82,-515.04 1264.52,-505.11 1255.44,-510.56 1260.82,-515.04"/>
</g>
<!-- Node5 -->
<g id="node5" class="node">
<title>Node5</title>
<g id="a_node5"><a xlink:href="class_descriptor_script_pub_key_man.html#af21f35870f6402b6936a48922bf4957a" target="_top" xlink:title="Check that the given decryption key is valid for this ScriptPubKeyMan, i.e. it decrypts all of the ke...">
<polygon fill="white" stroke="black" points="1043,-529.5 1043,-559.5 1195,-559.5 1195,-529.5 1043,-529.5"/>
<text text-anchor="start" x="1051" y="-547.5" font-family="Helvetica,sans-Serif" font-size="10.00">DescriptorScriptPubKeyMan</text>
<text text-anchor="middle" x="1119" y="-536.5" font-family="Helvetica,sans-Serif" font-size="10.00">::CheckDecryptionKey</text>
</a>
</g>
</g>
<!-- Node3&#45;&gt;Node5 -->
<g id="edge4" class="edge">
<title>Node3&#45;&gt;Node5</title>
<path fill="none" stroke="midnightblue" d="M1232.91,-508.23C1220.77,-512.17 1207.33,-516.52 1195,-520.5 1186.02,-523.39 1176.43,-526.47 1167.22,-529.42"/>
<polygon fill="midnightblue" stroke="midnightblue" points="1234.33,-511.45 1242.76,-505.03 1232.17,-504.79 1234.33,-511.45"/>
</g>
<!-- Node6 -->
<g id="node6" class="node">
<title>Node6</title>
<g id="a_node6"><a xlink:href="class_legacy_script_pub_key_man.html#a34e872806720126d936cfe07dcab0a73" target="_top" xlink:title=" ">
<polygon fill="white" stroke="black" points="1051,-480.5 1051,-510.5 1187,-510.5 1187,-480.5 1051,-480.5"/>
<text text-anchor="start" x="1059" y="-498.5" font-family="Helvetica,sans-Serif" font-size="10.00">LegacyScriptPubKeyMan</text>
<text text-anchor="middle" x="1119" y="-487.5" font-family="Helvetica,sans-Serif" font-size="10.00">::GetKey</text>
</a>
</g>
</g>
<!-- Node3&#45;&gt;Node6 -->
<g id="edge5" class="edge">
<title>Node3&#45;&gt;Node6</title>
<path fill="none" stroke="midnightblue" d="M1226.32,-495.5C1213.95,-495.5 1200.31,-495.5 1187.04,-495.5"/>
<polygon fill="midnightblue" stroke="midnightblue" points="1226.36,-499 1236.36,-495.5 1226.36,-492 1226.36,-499"/>
</g>
<!-- Node29 -->
<g id="node22" class="node">
<title>Node29</title>
<g id="a_node22"><a xlink:href="class_descriptor_script_pub_key_man.html#a9e23fcd0c0c66864ed49ae445021acd4" target="_top" xlink:title=" ">
<polygon fill="white" stroke="black" points="1043,-382.5 1043,-412.5 1195,-412.5 1195,-382.5 1043,-382.5"/>
<text text-anchor="start" x="1051" y="-400.5" font-family="Helvetica,sans-Serif" font-size="10.00">DescriptorScriptPubKeyMan</text>
<text text-anchor="middle" x="1119" y="-389.5" font-family="Helvetica,sans-Serif" font-size="10.00">::GetKeys</text>
</a>
</g>
</g>
<!-- Node3&#45;&gt;Node29 -->
<g id="edge24" class="edge">
<title>Node3&#45;&gt;Node29</title>
<path fill="none" stroke="midnightblue" d="M1248.59,-480.41C1219.98,-461.96 1171.86,-430.94 1143.3,-412.52"/>
<polygon fill="midnightblue" stroke="midnightblue" points="1246.85,-483.45 1257.15,-485.92 1250.64,-477.56 1246.85,-483.45"/>
</g>
<!-- Node7 -->
<g id="node7" class="node">
<title>Node7</title>
<g id="a_node7"><a xlink:href="class_legacy_script_pub_key_man.html#afcee3106f0dc945453fb3f28fd6fee1a" target="_top" xlink:title=" ">
<polygon fill="white" stroke="black" points="863,-333.5 863,-363.5 999,-363.5 999,-333.5 863,-333.5"/>
<text text-anchor="start" x="871" y="-351.5" font-family="Helvetica,sans-Serif" font-size="10.00">LegacyScriptPubKeyMan</text>
<text text-anchor="middle" x="931" y="-340.5" font-family="Helvetica,sans-Serif" font-size="10.00">::DeriveNewChildKey</text>
</a>
</g>
</g>
<!-- Node6&#45;&gt;Node7 -->
<g id="edge6" class="edge">
<title>Node6&#45;&gt;Node7</title>
<path fill="none" stroke="midnightblue" d="M1093.34,-473.44C1078.19,-459.43 1058.75,-440.59 1043,-422.5 1025.26,-402.12 1028.84,-389.41 1007,-373.5 1001.67,-369.62 995.71,-366.32 989.53,-363.51"/>
<polygon fill="midnightblue" stroke="midnightblue" points="1091.09,-476.12 1100.82,-480.3 1095.81,-470.96 1091.09,-476.12"/>
</g>
<!-- Node24 -->
<g id="node17" class="node">
<title>Node24</title>
<g id="a_node17"><a xlink:href="rpcdump_8cpp.html#abc913300d07bc7b7573126048a1d3b60" target="_top" xlink:title=" ">
<polygon fill="white" stroke="black" points="180.5,-618 180.5,-637 260.5,-637 260.5,-618 180.5,-618"/>
<text text-anchor="middle" x="220.5" y="-625" font-family="Helvetica,sans-Serif" font-size="10.00">dumpprivkey</text>
</a>
</g>
</g>
<!-- Node6&#45;&gt;Node24 -->
<g id="edge17" class="edge">
<title>Node6&#45;&gt;Node24</title>
<path fill="none" stroke="midnightblue" d="M1048.29,-516.1C1046.44,-517.47 1044.67,-518.94 1043,-520.5 1012.14,-549.37 1041.22,-583.71 1007,-608.5 911.01,-678.03 859.52,-627.5 741,-627.5 741,-627.5 741,-627.5 548,-627.5 444.27,-627.5 322,-627.5 260.7,-627.5"/>
<polygon fill="midnightblue" stroke="midnightblue" points="1050.3,-518.97 1056.85,-510.65 1046.54,-513.07 1050.3,-518.97"/>
</g>
<!-- Node25 -->
<g id="node18" class="node">
<title>Node25</title>
<g id="a_node18"><a xlink:href="rpcdump_8cpp.html#a5e0e8a39d9dd61d74fa4b97ccb541bb9" target="_top" xlink:title=" ">
<polygon fill="white" stroke="black" points="894,-530 894,-549 968,-549 968,-530 894,-530"/>
<text text-anchor="middle" x="931" y="-537" font-family="Helvetica,sans-Serif" font-size="10.00">dumpwallet</text>
</a>
</g>
</g>
<!-- Node6&#45;&gt;Node25 -->
<g id="edge19" class="edge">
<title>Node6&#45;&gt;Node25</title>
<path fill="none" stroke="midnightblue" d="M1044.57,-512.87C1018.29,-519.09 989.84,-525.82 968.11,-530.96"/>
<polygon fill="midnightblue" stroke="midnightblue" points="1045.58,-516.23 1054.51,-510.52 1043.97,-509.42 1045.58,-516.23"/>
</g>
<!-- Node27 -->
<g id="node20" class="node">
<title>Node27</title>
<g id="a_node20"><a xlink:href="class_legacy_script_pub_key_man.html#af10272ba53efa686bc3254a8d98f8489" target="_top" xlink:title="Sign a message with the given script.">
<polygon fill="white" stroke="black" points="863,-480.5 863,-510.5 999,-510.5 999,-480.5 863,-480.5"/>
<text text-anchor="start" x="871" y="-498.5" font-family="Helvetica,sans-Serif" font-size="10.00">LegacyScriptPubKeyMan</text>
<text text-anchor="middle" x="931" y="-487.5" font-family="Helvetica,sans-Serif" font-size="10.00">::SignMessage</text>
</a>
</g>
</g>
<!-- Node6&#45;&gt;Node27 -->
<g id="edge22" class="edge">
<title>Node6&#45;&gt;Node27</title>
<path fill="none" stroke="midnightblue" d="M1040.45,-495.5C1026.7,-495.5 1012.48,-495.5 999.05,-495.5"/>
<polygon fill="midnightblue" stroke="midnightblue" points="1040.85,-499 1050.85,-495.5 1040.85,-492 1040.85,-499"/>
</g>
<!-- Node28 -->
<g id="node21" class="node">
<title>Node28</title>
<g id="a_node21"><a xlink:href="class_legacy_script_pub_key_man.html#a063d5254ad43189923438e59151434ac" target="_top" xlink:title="Upgrade stored CKeyMetadata objects to store key origin info as KeyOriginInfo.">
<polygon fill="white" stroke="black" points="863,-568.5 863,-598.5 999,-598.5 999,-568.5 863,-568.5"/>
<text text-anchor="start" x="871" y="-586.5" font-family="Helvetica,sans-Serif" font-size="10.00">LegacyScriptPubKeyMan</text>
<text text-anchor="middle" x="931" y="-575.5" font-family="Helvetica,sans-Serif" font-size="10.00">::UpgradeKeyMetadata</text>
</a>
</g>
</g>
<!-- Node6&#45;&gt;Node28 -->
<g id="edge23" class="edge">
<title>Node6&#45;&gt;Node28</title>
<path fill="none" stroke="midnightblue" d="M1053.37,-514.67C1049.78,-516.46 1046.29,-518.4 1043,-520.5 1023.38,-533 1026.62,-546 1007,-558.5 1000.98,-562.33 994.31,-565.64 987.51,-568.48"/>
<polygon fill="midnightblue" stroke="midnightblue" points="1054.84,-517.85 1062.49,-510.52 1051.94,-511.48 1054.84,-517.85"/>
</g>
<!-- Node8 -->
<g id="node8" class="node">
<title>Node8</title>
<g id="a_node8"><a xlink:href="class_legacy_script_pub_key_man.html#abce1d65f9ecbff9c8a05003b71c2c450" target="_top" xlink:title="Generate a new key.">
<polygon fill="white" stroke="black" points="672,-257.5 672,-287.5 808,-287.5 808,-257.5 672,-257.5"/>
<text text-anchor="start" x="680" y="-275.5" font-family="Helvetica,sans-Serif" font-size="10.00">LegacyScriptPubKeyMan</text>
<text text-anchor="middle" x="740" y="-264.5" font-family="Helvetica,sans-Serif" font-size="10.00">::GenerateNewKey</text>
</a>
</g>
</g>
<!-- Node7&#45;&gt;Node8 -->
<g id="edge7" class="edge">
<title>Node7&#45;&gt;Node8</title>
<path fill="none" stroke="midnightblue" d="M868.11,-329.66C863.6,-327.75 859.19,-325.69 855,-323.5 837.28,-314.22 836.82,-305.58 819,-296.5 812.43,-293.16 805.32,-290.18 798.15,-287.56"/>
<polygon fill="midnightblue" stroke="midnightblue" points="866.87,-332.94 877.46,-333.4 869.47,-326.44 866.87,-332.94"/>
</g>
<!-- Node9 -->
<g id="node9" class="node">
<title>Node9</title>
<g id="a_node9"><a xlink:href="class_legacy_script_pub_key_man.html#afca22212ede59cb6f9c4273a8a524dea" target="_top" xlink:title="Fetches a key from the keypool.">
<polygon fill="white" stroke="black" points="481,-208.5 481,-238.5 617,-238.5 617,-208.5 481,-208.5"/>
<text text-anchor="start" x="489" y="-226.5" font-family="Helvetica,sans-Serif" font-size="10.00">LegacyScriptPubKeyMan</text>
<text text-anchor="middle" x="549" y="-215.5" font-family="Helvetica,sans-Serif" font-size="10.00">::GetKeyFromPool</text>
</a>
</g>
</g>
<!-- Node8&#45;&gt;Node9 -->
<g id="edge8" class="edge">
<title>Node8&#45;&gt;Node9</title>
<path fill="none" stroke="midnightblue" d="M671.31,-254.95C650.55,-249.57 627.92,-243.7 607.88,-238.51"/>
<polygon fill="midnightblue" stroke="midnightblue" points="670.45,-258.34 681.01,-257.47 672.21,-251.57 670.45,-258.34"/>
</g>
<!-- Node11 -->
<g id="node11" class="node">
<title>Node11</title>
<g id="a_node11"><a xlink:href="class_legacy_script_pub_key_man.html#a8ea64850b0953330bf90cc927f7ac649" target="_top" xlink:title="Fills internal address pool.">
<polygon fill="white" stroke="black" points="481,-257.5 481,-287.5 617,-287.5 617,-257.5 481,-257.5"/>
<text text-anchor="start" x="489" y="-275.5" font-family="Helvetica,sans-Serif" font-size="10.00">LegacyScriptPubKeyMan</text>
<text text-anchor="middle" x="549" y="-264.5" font-family="Helvetica,sans-Serif" font-size="10.00">::TopUp</text>
</a>
</g>
</g>
<!-- Node8&#45;&gt;Node11 -->
<g id="edge10" class="edge">
<title>Node8&#45;&gt;Node11</title>
<path fill="none" stroke="midnightblue" d="M661.74,-272.5C646.99,-272.5 631.67,-272.5 617.27,-272.5"/>
<polygon fill="midnightblue" stroke="midnightblue" points="661.83,-276 671.83,-272.5 661.83,-269 661.83,-276"/>
</g>
<!-- Node23 -->
<g id="node16" class="node">
<title>Node23</title>
<g id="a_node16"><a xlink:href="class_legacy_script_pub_key_man.html#a48868b2824e53c1ac2b4a708cfd6a3e8" target="_top" xlink:title="Like TopUp() but adds keys for inactive HD chains.">
<polygon fill="white" stroke="black" points="481,-306.5 481,-336.5 617,-336.5 617,-306.5 481,-306.5"/>
<text text-anchor="start" x="489" y="-324.5" font-family="Helvetica,sans-Serif" font-size="10.00">LegacyScriptPubKeyMan</text>
<text text-anchor="middle" x="549" y="-313.5" font-family="Helvetica,sans-Serif" font-size="10.00">::TopUpInactiveHDChain</text>
</a>
</g>
</g>
<!-- Node8&#45;&gt;Node23 -->
<g id="edge15" class="edge">
<title>Node8&#45;&gt;Node23</title>
<path fill="none" stroke="midnightblue" d="M671.31,-290.05C650.55,-295.43 627.92,-301.3 607.88,-306.49"/>
<polygon fill="midnightblue" stroke="midnightblue" points="672.21,-293.43 681.01,-287.53 670.45,-286.66 672.21,-293.43"/>
</g>
<!-- Node10 -->
<g id="node10" class="node">
<title>Node10</title>
<g id="a_node10"><a xlink:href="class_legacy_script_pub_key_man.html#abcfb772b8f4809a07d63e620427a4afc" target="_top" xlink:title=" ">
<polygon fill="white" stroke="black" points="301,-208.5 301,-238.5 437,-238.5 437,-208.5 301,-208.5"/>
<text text-anchor="start" x="309" y="-226.5" font-family="Helvetica,sans-Serif" font-size="10.00">LegacyScriptPubKeyMan</text>
<text text-anchor="middle" x="369" y="-215.5" font-family="Helvetica,sans-Serif" font-size="10.00">::GetNewDestination</text>
</a>
</g>
</g>
<!-- Node9&#45;&gt;Node10 -->
<g id="edge9" class="edge">
<title>Node9&#45;&gt;Node10</title>
<path fill="none" stroke="midnightblue" d="M470.8,-223.5C459.64,-223.5 448.22,-223.5 437.28,-223.5"/>
<polygon fill="midnightblue" stroke="midnightblue" points="470.96,-227 480.96,-223.5 470.96,-220 470.96,-227"/>
</g>
<!-- Node12 -->
<g id="node12" class="node">
<title>Node12</title>
<g id="a_node12"><a xlink:href="class_legacy_script_pub_key_man.html#a1e90fd28882dcd7d1f0edecfa41f6dc8" target="_top" xlink:title="Mark unused addresses as being used.">
<polygon fill="white" stroke="black" points="301,-306.5 301,-336.5 437,-336.5 437,-306.5 301,-306.5"/>
<text text-anchor="start" x="309" y="-324.5" font-family="Helvetica,sans-Serif" font-size="10.00">LegacyScriptPubKeyMan</text>
<text text-anchor="middle" x="369" y="-313.5" font-family="Helvetica,sans-Serif" font-size="10.00">::MarkUnusedAddresses</text>
</a>
</g>
</g>
<!-- Node11&#45;&gt;Node12 -->
<g id="edge11" class="edge">
<title>Node11&#45;&gt;Node12</title>
<path fill="none" stroke="midnightblue" d="M483.26,-290.32C464.04,-295.61 443.19,-301.35 424.68,-306.45"/>
<polygon fill="midnightblue" stroke="midnightblue" points="484.43,-293.63 493.14,-287.6 482.57,-286.88 484.43,-293.63"/>
</g>
<!-- Node13 -->
<g id="node13" class="node">
<title>Node13</title>
<g id="a_node13"><a xlink:href="class_legacy_script_pub_key_man.html#ab50971b7c07a1814423218b10dbf3b56" target="_top" xlink:title="Mark old keypool keys as used, and generate all new keys.">
<polygon fill="white" stroke="red" points="301,-257.5 301,-287.5 437,-287.5 437,-257.5 301,-257.5"/>
<text text-anchor="start" x="309" y="-275.5" font-family="Helvetica,sans-Serif" font-size="10.00">LegacyScriptPubKeyMan</text>
<text text-anchor="middle" x="369" y="-264.5" font-family="Helvetica,sans-Serif" font-size="10.00">::NewKeyPool</text>
</a>
</g>
</g>
<!-- Node11&#45;&gt;Node13 -->
<g id="edge12" class="edge">
<title>Node11&#45;&gt;Node13</title>
<path fill="none" stroke="midnightblue" d="M470.8,-272.5C459.64,-272.5 448.22,-272.5 437.28,-272.5"/>
<polygon fill="midnightblue" stroke="midnightblue" points="470.96,-276 480.96,-272.5 470.96,-269 470.96,-276"/>
</g>
<!-- Node16 -->
<g id="node14" class="node">
<title>Node16</title>
<g id="a_node14"><a xlink:href="rpcwallet_8cpp.html#a07378078c8f1febcfecf348dd2b5d56c" target="_top" xlink:title=" ">
<polygon fill="white" stroke="black" points="187,-212 187,-231 254,-231 254,-212 187,-212"/>
<text text-anchor="middle" x="220.5" y="-219" font-family="Helvetica,sans-Serif" font-size="10.00">sethdseed</text>
</a>
</g>
</g>
<!-- Node13&#45;&gt;Node16 -->
<g id="edge13" class="edge">
<title>Node13&#45;&gt;Node16</title>
<path fill="none" stroke="midnightblue" d="M315.13,-254.1C292.79,-246.32 267.71,-237.59 249.13,-231.12"/>
<polygon fill="midnightblue" stroke="midnightblue" points="314.24,-257.49 324.84,-257.47 316.54,-250.88 314.24,-257.49"/>
</g>
<!-- Node15 -->
<g id="node15" class="node">
<title>Node15</title>
<g id="a_node15"><a xlink:href="rpcwallet_8cpp.html#a0f1fb991b53dfc0965c1652a3a032941" target="_top" xlink:title=" ">
<polygon fill="white" stroke="black" points="0,-524 0,-543 140,-543 140,-524 0,-524"/>
<text text-anchor="middle" x="70" y="-531" font-family="Helvetica,sans-Serif" font-size="10.00">GetWalletRPCCommands</text>
</a>
</g>
</g>
<!-- Node16&#45;&gt;Node15 -->
<g id="edge14" class="edge">
<title>Node16&#45;&gt;Node15</title>
<path fill="none" stroke="midnightblue" d="M210.46,-240.5C182.22,-299.84 96.32,-480.31 75.55,-523.93"/>
<polygon fill="midnightblue" stroke="midnightblue" points="213.76,-241.71 214.89,-231.18 207.43,-238.7 213.76,-241.71"/>
</g>
<!-- Node23&#45;&gt;Node12 -->
<g id="edge16" class="edge">
<title>Node23&#45;&gt;Node12</title>
<path fill="none" stroke="midnightblue" d="M470.8,-321.5C459.64,-321.5 448.22,-321.5 437.28,-321.5"/>
<polygon fill="midnightblue" stroke="midnightblue" points="470.96,-325 480.96,-321.5 470.96,-318 470.96,-325"/>
</g>
<!-- Node24&#45;&gt;Node15 -->
<g id="edge18" class="edge">
<title>Node24&#45;&gt;Node15</title>
<path fill="none" stroke="midnightblue" d="M192.26,-612.93C186.82,-609.89 181.19,-606.66 176,-603.5 142.49,-583.13 104.5,-557.02 84.69,-543.16"/>
<polygon fill="midnightblue" stroke="midnightblue" points="190.65,-616.04 201.1,-617.79 194.03,-609.91 190.65,-616.04"/>
</g>
<!-- Node25&#45;&gt;Node15 -->
<g id="edge21" class="edge">
<title>Node25&#45;&gt;Node15</title>
<path fill="none" stroke="midnightblue" d="M883.92,-551.51C874.34,-554.08 864.33,-556.83 855,-559.5 838.91,-564.1 835.45,-567.45 819,-570.5 701.16,-592.37 669.85,-589.5 550,-589.5 550,-589.5 550,-589.5 368,-589.5 269.09,-589.5 154.81,-559.14 101.43,-543.13"/>
<polygon fill="midnightblue" stroke="midnightblue" points="884.93,-554.86 893.69,-548.9 883.12,-548.1 884.93,-554.86"/>
</g>
<!-- Node26 -->
<g id="node19" class="node">
<title>Node26</title>
<g id="a_node19"><a xlink:href="wallet__tests_8cpp.html#a2a726fa52b0a343883cb50a3f68d0989" target="_top" xlink:title=" ">
<polygon fill="white" stroke="black" points="661,-542 661,-561 819,-561 819,-542 661,-542"/>
<text text-anchor="middle" x="740" y="-549" font-family="Helvetica,sans-Serif" font-size="10.00">BOOST_FIXTURE_TEST_CASE</text>
</a>
</g>
</g>
<!-- Node25&#45;&gt;Node26 -->
<g id="edge20" class="edge">
<title>Node25&#45;&gt;Node26</title>
<path fill="none" stroke="midnightblue" d="M883.49,-542.45C864.1,-543.68 841.04,-545.15 819.19,-546.54"/>
<polygon fill="midnightblue" stroke="midnightblue" points="883.8,-545.94 893.56,-541.81 883.36,-538.95 883.8,-545.94"/>
</g>
<!-- Node30 -->
<g id="node23" class="node">
<title>Node30</title>
<g id="a_node23"><a xlink:href="class_descriptor_script_pub_key_man.html#af2bcff41880af8116507f503ab68de2e" target="_top" xlink:title=" ">
<polygon fill="white" stroke="black" points="855,-382.5 855,-412.5 1007,-412.5 1007,-382.5 855,-382.5"/>
<text text-anchor="start" x="863" y="-400.5" font-family="Helvetica,sans-Serif" font-size="10.00">DescriptorScriptPubKeyMan</text>
<text text-anchor="middle" x="931" y="-389.5" font-family="Helvetica,sans-Serif" font-size="10.00">::GetDescriptorString</text>
</a>
</g>
</g>
<!-- Node29&#45;&gt;Node30 -->
<g id="edge25" class="edge">
<title>Node29&#45;&gt;Node30</title>
<path fill="none" stroke="midnightblue" d="M1032.85,-397.5C1024.26,-397.5 1015.57,-397.5 1007.1,-397.5"/>
<polygon fill="midnightblue" stroke="midnightblue" points="1032.88,-401 1042.88,-397.5 1032.88,-394 1032.88,-401"/>
</g>
<!-- Node32 -->
<g id="node25" class="node">
<title>Node32</title>
<g id="a_node25"><a xlink:href="class_descriptor_script_pub_key_man.html#a61c31d3ce74379e19f120f073d2b8686" target="_top" xlink:title=" ">
<polygon fill="white" stroke="black" points="855,-284.5 855,-314.5 1007,-314.5 1007,-284.5 855,-284.5"/>
<text text-anchor="start" x="863" y="-302.5" font-family="Helvetica,sans-Serif" font-size="10.00">DescriptorScriptPubKeyMan</text>
<text text-anchor="middle" x="931" y="-291.5" font-family="Helvetica,sans-Serif" font-size="10.00">::GetSigningProvider</text>
</a>
</g>
</g>
<!-- Node29&#45;&gt;Node32 -->
<g id="edge28" class="edge">
<title>Node29&#45;&gt;Node32</title>
<path fill="none" stroke="midnightblue" d="M1090.85,-376.27C1069.14,-360.08 1037.39,-338.14 1007,-323.5 1000.23,-320.24 992.9,-317.27 985.57,-314.62"/>
<polygon fill="midnightblue" stroke="midnightblue" points="1088.86,-379.15 1098.95,-382.38 1093.08,-373.56 1088.86,-379.15"/>
</g>
<!-- Node33 -->
<g id="node26" class="node">
<title>Node33</title>
<g id="a_node26"><a xlink:href="class_descriptor_script_pub_key_man.html#a336844366c025115a52bbd632bb4020e" target="_top" xlink:title="Fills internal address pool.">
<polygon fill="white" stroke="black" points="855,-431.5 855,-461.5 1007,-461.5 1007,-431.5 855,-431.5"/>
<text text-anchor="start" x="863" y="-449.5" font-family="Helvetica,sans-Serif" font-size="10.00">DescriptorScriptPubKeyMan</text>
<text text-anchor="middle" x="931" y="-438.5" font-family="Helvetica,sans-Serif" font-size="10.00">::TopUp</text>
</a>
</g>
</g>
<!-- Node29&#45;&gt;Node33 -->
<g id="edge29" class="edge">
<title>Node29&#45;&gt;Node33</title>
<path fill="none" stroke="midnightblue" d="M1051.1,-415.12C1030.76,-420.48 1008.59,-426.32 988.96,-431.49"/>
<polygon fill="midnightblue" stroke="midnightblue" points="1052.15,-418.47 1060.93,-412.53 1050.37,-411.7 1052.15,-418.47"/>
</g>
<!-- Node39 -->
<g id="node32" class="node">
<title>Node39</title>
<g id="a_node32"><a xlink:href="class_descriptor_script_pub_key_man.html#ad5da4f28bcdbcf02de26fa9f4496653b" target="_top" xlink:title=" ">
<polygon fill="white" stroke="black" points="855,-235.5 855,-265.5 1007,-265.5 1007,-235.5 855,-235.5"/>
<text text-anchor="start" x="863" y="-253.5" font-family="Helvetica,sans-Serif" font-size="10.00">DescriptorScriptPubKeyMan</text>
<text text-anchor="middle" x="931" y="-242.5" font-family="Helvetica,sans-Serif" font-size="10.00">::UpgradeDescriptorCache</text>
</a>
</g>
</g>
<!-- Node29&#45;&gt;Node39 -->
<g id="edge35" class="edge">
<title>Node29&#45;&gt;Node39</title>
<path fill="none" stroke="midnightblue" d="M1102.62,-373.99C1083.4,-346.36 1048,-300.96 1007,-274.5 1001.72,-271.09 995.91,-268.13 989.94,-265.57"/>
<polygon fill="midnightblue" stroke="midnightblue" points="1099.76,-375.99 1108.28,-382.28 1105.54,-372.05 1099.76,-375.99"/>
</g>
<!-- Node31 -->
<g id="node24" class="node">
<title>Node31</title>
<g id="a_node24"><a xlink:href="rpcwallet_8cpp.html#a7746f416e0554c4665dc59cd747459bb" target="_top" xlink:title=" ">
<polygon fill="white" stroke="black" points="176,-412 176,-431 265,-431 265,-412 176,-412"/>
<text text-anchor="middle" x="220.5" y="-419" font-family="Helvetica,sans-Serif" font-size="10.00">getaddressinfo</text>
</a>
</g>
</g>
<!-- Node30&#45;&gt;Node31 -->
<g id="edge26" class="edge">
<title>Node30&#45;&gt;Node31</title>
<path fill="none" stroke="midnightblue" d="M844.7,-387.34C836.03,-386.59 827.35,-385.95 819,-385.5 611.72,-374.33 364.14,-402.51 265.34,-415.43"/>
<polygon fill="midnightblue" stroke="midnightblue" points="844.58,-390.84 854.86,-388.27 845.22,-383.87 844.58,-390.84"/>
</g>
<!-- Node31&#45;&gt;Node15 -->
<g id="edge27" class="edge">
<title>Node31&#45;&gt;Node15</title>
<path fill="none" stroke="midnightblue" d="M198.79,-437.12C167.53,-460.69 109.25,-504.65 83.63,-523.98"/>
<polygon fill="midnightblue" stroke="midnightblue" points="200.96,-439.86 206.84,-431.05 196.75,-434.28 200.96,-439.86"/>
</g>
<!-- Node34 -->
<g id="node27" class="node">
<title>Node34</title>
<g id="a_node27"><a xlink:href="class_descriptor_script_pub_key_man.html#a217346c413e4ac65e0164a910a2c9050" target="_top" xlink:title=" ">
<polygon fill="white" stroke="black" points="664,-492.5 664,-522.5 816,-522.5 816,-492.5 664,-492.5"/>
<text text-anchor="start" x="672" y="-510.5" font-family="Helvetica,sans-Serif" font-size="10.00">DescriptorScriptPubKeyMan</text>
<text text-anchor="middle" x="740" y="-499.5" font-family="Helvetica,sans-Serif" font-size="10.00">::GetNewDestination</text>
</a>
</g>
</g>
<!-- Node33&#45;&gt;Node34 -->
<g id="edge30" class="edge">
<title>Node33&#45;&gt;Node34</title>
<path fill="none" stroke="midnightblue" d="M875.03,-464.83C847.49,-474.01 819.77,-483.25 819,-483.5 809.83,-486.44 800.02,-489.51 790.57,-492.44"/>
<polygon fill="midnightblue" stroke="midnightblue" points="876.34,-468.08 884.72,-461.6 874.12,-461.44 876.34,-468.08"/>
</g>
<!-- Node36 -->
<g id="node29" class="node">
<title>Node36</title>
<g id="a_node29"><a xlink:href="class_descriptor_script_pub_key_man.html#a0fd166d6a855326391be922a38605eb9" target="_top" xlink:title="Mark unused addresses as being used.">
<polygon fill="white" stroke="black" points="664,-443.5 664,-473.5 816,-473.5 816,-443.5 664,-443.5"/>
<text text-anchor="start" x="672" y="-461.5" font-family="Helvetica,sans-Serif" font-size="10.00">DescriptorScriptPubKeyMan</text>
<text text-anchor="middle" x="740" y="-450.5" font-family="Helvetica,sans-Serif" font-size="10.00">::MarkUnusedAddresses</text>
</a>
</g>
</g>
<!-- Node33&#45;&gt;Node36 -->
<g id="edge32" class="edge">
<title>Node33&#45;&gt;Node36</title>
<path fill="none" stroke="midnightblue" d="M844.59,-451.92C835.15,-452.52 825.59,-453.13 816.29,-453.72"/>
<polygon fill="midnightblue" stroke="midnightblue" points="845,-455.4 854.76,-451.28 844.56,-448.42 845,-455.4"/>
</g>
<!-- Node37 -->
<g id="node30" class="node">
<title>Node37</title>
<g id="a_node30"><a xlink:href="class_external_signer_script_pub_key_man.html#a9a8908d3d1e560fd0cd8d57792b1f4a1" target="_top" xlink:title="Provide a descriptor at setup time Returns false if already setup or setup fails, true if setup is su...">
<polygon fill="white" stroke="black" points="664,-394.5 664,-424.5 816,-424.5 816,-394.5 664,-394.5"/>
<text text-anchor="start" x="672" y="-412.5" font-family="Helvetica,sans-Serif" font-size="10.00">ExternalSignerScriptPubKey</text>
<text text-anchor="middle" x="740" y="-401.5" font-family="Helvetica,sans-Serif" font-size="10.00">Man::SetupDescriptor</text>
</a>
</g>
</g>
<!-- Node33&#45;&gt;Node37 -->
<g id="edge33" class="edge">
<title>Node33&#45;&gt;Node37</title>
<path fill="none" stroke="midnightblue" d="M844.89,-429.84C835.35,-427.97 825.69,-426.08 816.29,-424.24"/>
<polygon fill="midnightblue" stroke="midnightblue" points="844.27,-433.28 854.76,-431.77 845.62,-426.41 844.27,-433.28"/>
</g>
<!-- Node38 -->
<g id="node31" class="node">
<title>Node38</title>
<g id="a_node31"><a xlink:href="class_descriptor_script_pub_key_man.html#a5d3602f822b9b3d38a1f3f6b4aa53e8c" target="_top" xlink:title="Setup descriptors based on the given CExtkey.">
<polygon fill="white" stroke="black" points="662.5,-306.5 662.5,-336.5 817.5,-336.5 817.5,-306.5 662.5,-306.5"/>
<text text-anchor="start" x="670.5" y="-324.5" font-family="Helvetica,sans-Serif" font-size="10.00">DescriptorScriptPubKeyMan</text>
<text text-anchor="middle" x="740" y="-313.5" font-family="Helvetica,sans-Serif" font-size="10.00">::SetupDescriptorGeneration</text>
</a>
</g>
</g>
<!-- Node33&#45;&gt;Node38 -->
<g id="edge34" class="edge">
<title>Node33&#45;&gt;Node38</title>
<path fill="none" stroke="midnightblue" d="M863.26,-427.12C860.41,-425.68 857.65,-424.14 855,-422.5 835.49,-410.42 835.9,-401.02 819,-385.5 799.91,-367.96 776.82,-349.31 760.74,-336.7"/>
<polygon fill="midnightblue" stroke="midnightblue" points="862.03,-430.4 872.58,-431.39 864.95,-424.04 862.03,-430.4"/>
</g>
<!-- Node35 -->
<g id="node28" class="node">
<title>Node35</title>
<g id="a_node28"><a xlink:href="class_descriptor_script_pub_key_man.html#ac9fb867f919fa195472ec5c5970f2e80" target="_top" xlink:title=" ">
<polygon fill="white" stroke="black" points="473,-492.5 473,-522.5 625,-522.5 625,-492.5 473,-492.5"/>
<text text-anchor="start" x="481" y="-510.5" font-family="Helvetica,sans-Serif" font-size="10.00">DescriptorScriptPubKeyMan</text>
<text text-anchor="middle" x="549" y="-499.5" font-family="Helvetica,sans-Serif" font-size="10.00">::GetReservedDestination</text>
</a>
</g>
</g>
<!-- Node34&#45;&gt;Node35 -->
<g id="edge31" class="edge">
<title>Node34&#45;&gt;Node35</title>
<path fill="none" stroke="midnightblue" d="M653.59,-507.5C644.15,-507.5 634.59,-507.5 625.29,-507.5"/>
<polygon fill="midnightblue" stroke="midnightblue" points="653.76,-511 663.76,-507.5 653.76,-504 653.76,-511"/>
</g>
<!-- Node40 -->
<g id="node33" class="node">
<title>Node40</title>
<g id="a_node33"><a xlink:href="group__map_wallet.html#gaa77c9c64e44a13eb6b2bc82e7924b34b" target="_top" xlink:title="Upgrade DescriptorCaches.">
<polygon fill="white" stroke="black" points="664,-180.5 664,-210.5 816,-210.5 816,-180.5 664,-180.5"/>
<text text-anchor="start" x="672" y="-198.5" font-family="Helvetica,sans-Serif" font-size="10.00">CWallet::UpgradeDescriptor</text>
<text text-anchor="middle" x="740" y="-187.5" font-family="Helvetica,sans-Serif" font-size="10.00">Cache</text>
</a>
</g>
</g>
<!-- Node39&#45;&gt;Node40 -->
<g id="edge36" class="edge">
<title>Node39&#45;&gt;Node40</title>
<path fill="none" stroke="midnightblue" d="M868.43,-232.58C843.91,-225.45 816.01,-217.33 792.58,-210.51"/>
<polygon fill="midnightblue" stroke="midnightblue" points="867.78,-236.04 878.35,-235.47 869.73,-229.32 867.78,-236.04"/>
</g>
<!-- Node41 -->
<g id="node34" class="node">
<title>Node41</title>
<g id="a_node34"><a xlink:href="class_wallet_batch.html#af17758ea2f62ca2d80def7ae780e81f8" target="_top" xlink:title=" ">
<polygon fill="white" stroke="red" points="481.5,-132 481.5,-151 616.5,-151 616.5,-132 481.5,-132"/>
<text text-anchor="middle" x="549" y="-139" font-family="Helvetica,sans-Serif" font-size="10.00">WalletBatch::LoadWallet</text>
</a>
</g>
</g>
<!-- Node40&#45;&gt;Node41 -->
<g id="edge37" class="edge">
<title>Node40&#45;&gt;Node41</title>
<path fill="none" stroke="midnightblue" d="M682.39,-177.51C664.13,-171.87 643.76,-165.75 625,-160.5 613.49,-157.28 600.92,-154 589.41,-151.09"/>
<polygon fill="midnightblue" stroke="midnightblue" points="681.42,-180.88 692.01,-180.5 683.5,-174.19 681.42,-180.88"/>
</g>
<!-- Node44 -->
<g id="node35" class="node">
<title>Node44</title>
<g id="a_node35"><a xlink:href="group__map_wallet.html#ga4370ceeca17c1fc58c419e4cdc65b433" target="_top" xlink:title=" ">
<polygon fill="white" stroke="black" points="502,-170 502,-189 596,-189 596,-170 502,-170"/>
<text text-anchor="middle" x="549" y="-177" font-family="Helvetica,sans-Serif" font-size="10.00">CWallet::Unlock</text>
</a>
</g>
</g>
<!-- Node40&#45;&gt;Node44 -->
<g id="edge38" class="edge">
<title>Node40&#45;&gt;Node44</title>
<path fill="none" stroke="midnightblue" d="M653.77,-188.28C633.93,-186.61 613.54,-184.88 596.15,-183.41"/>
<polygon fill="midnightblue" stroke="midnightblue" points="653.5,-191.77 663.76,-189.13 654.09,-184.8 653.5,-191.77"/>
</g>
<!-- Node46 -->
<g id="node37" class="node">
<title>Node46</title>
<g id="a_node37"><a xlink:href="class_descriptor_script_pub_key_man.html#ab0e59960a7e022fc25eba29eabf46a5f" target="_top" xlink:title=" ">
<polygon fill="white" stroke="black" points="1043,-147.5 1043,-177.5 1195,-177.5 1195,-147.5 1043,-147.5"/>
<text text-anchor="start" x="1051" y="-165.5" font-family="Helvetica,sans-Serif" font-size="10.00">DescriptorScriptPubKeyMan</text>
<text text-anchor="middle" x="1119" y="-154.5" font-family="Helvetica,sans-Serif" font-size="10.00">::AddDescriptorKeyWithDB</text>
</a>
</g>
</g>
<!-- Node45&#45;&gt;Node46 -->
<g id="edge40" class="edge">
<title>Node45&#45;&gt;Node46</title>
<path fill="none" stroke="midnightblue" d="M1232.54,-126.22C1212.39,-132.72 1187.73,-140.66 1166.65,-147.46"/>
<polygon fill="midnightblue" stroke="midnightblue" points="1233.89,-129.46 1242.33,-123.06 1231.74,-122.8 1233.89,-129.46"/>
</g>
<!-- Node48 -->
<g id="node39" class="node">
<title>Node48</title>
<g id="a_node39"><a xlink:href="class_legacy_script_pub_key_man.html#a4b805e4263c5c01d2f4a831c63039a2c" target="_top" xlink:title=" ">
<polygon fill="white" stroke="black" points="1051,-98.5 1051,-128.5 1187,-128.5 1187,-98.5 1051,-98.5"/>
<text text-anchor="start" x="1059" y="-116.5" font-family="Helvetica,sans-Serif" font-size="10.00">LegacyScriptPubKeyMan</text>
<text text-anchor="middle" x="1119" y="-105.5" font-family="Helvetica,sans-Serif" font-size="10.00">::AddKeyPubKeyInner</text>
</a>
</g>
</g>
<!-- Node45&#45;&gt;Node48 -->
<g id="edge43" class="edge">
<title>Node45&#45;&gt;Node48</title>
<path fill="none" stroke="midnightblue" d="M1220.8,-113.5C1210.02,-113.5 1198.5,-113.5 1187.24,-113.5"/>
<polygon fill="midnightblue" stroke="midnightblue" points="1220.87,-117 1230.87,-113.5 1220.87,-110 1220.87,-117"/>
</g>
<!-- Node58 -->
<g id="node49" class="node">
<title>Node58</title>
<g id="a_node49"><a xlink:href="class_legacy_script_pub_key_man.html#a3b9841acd752f1adfd05a2780061a7f3" target="_top" xlink:title=" ">
<polygon fill="white" stroke="black" points="1051,-49.5 1051,-79.5 1187,-79.5 1187,-49.5 1051,-49.5"/>
<text text-anchor="start" x="1059" y="-67.5" font-family="Helvetica,sans-Serif" font-size="10.00">LegacyScriptPubKeyMan</text>
<text text-anchor="middle" x="1119" y="-56.5" font-family="Helvetica,sans-Serif" font-size="10.00">::Encrypt</text>
</a>
</g>
</g>
<!-- Node45&#45;&gt;Node58 -->
<g id="edge57" class="edge">
<title>Node45&#45;&gt;Node58</title>
<path fill="none" stroke="midnightblue" d="M1232.91,-100.77C1220.77,-96.83 1207.33,-92.48 1195,-88.5 1186.02,-85.61 1176.43,-82.53 1167.22,-79.58"/>
<polygon fill="midnightblue" stroke="midnightblue" points="1232.17,-104.21 1242.76,-103.97 1234.33,-97.55 1232.17,-104.21"/>
</g>
<!-- Node59 -->
<g id="node50" class="node">
<title>Node59</title>
<g id="a_node50"><a xlink:href="class_descriptor_script_pub_key_man.html#aaffe2ca921a745e097ecae0561a56b3b" target="_top" xlink:title=" ">
<polygon fill="white" stroke="black" points="1043,-0.5 1043,-30.5 1195,-30.5 1195,-0.5 1043,-0.5"/>
<text text-anchor="start" x="1051" y="-18.5" font-family="Helvetica,sans-Serif" font-size="10.00">DescriptorScriptPubKeyMan</text>
<text text-anchor="middle" x="1119" y="-7.5" font-family="Helvetica,sans-Serif" font-size="10.00">::Encrypt</text>
</a>
</g>
</g>
<!-- Node45&#45;&gt;Node59 -->
<g id="edge58" class="edge">
<title>Node45&#45;&gt;Node59</title>
<path fill="none" stroke="midnightblue" d="M1257.95,-95.99C1243.71,-79.3 1220.22,-54.54 1195,-39.5 1189.36,-36.14 1183.2,-33.2 1176.92,-30.63"/>
<polygon fill="midnightblue" stroke="midnightblue" points="1255.44,-98.44 1264.52,-103.89 1260.82,-93.96 1255.44,-98.44"/>
</g>
<!-- Node46&#45;&gt;Node38 -->
<g id="edge42" class="edge">
<title>Node46&#45;&gt;Node38</title>
<path fill="none" stroke="midnightblue" d="M1038.99,-179.74C964.25,-196.3 862.41,-219.65 855,-225.5 827.23,-247.42 845.93,-273.55 819,-296.5 814.45,-300.37 809.3,-303.65 803.86,-306.42"/>
<polygon fill="midnightblue" stroke="midnightblue" points="1039.87,-183.13 1048.88,-177.55 1038.36,-176.29 1039.87,-183.13"/>
</g>
<!-- Node47 -->
<g id="node38" class="node">
<title>Node47</title>
<g id="a_node38"><a xlink:href="class_descriptor_script_pub_key_man.html#a855bd3ca6f47eb097d1a056fc5b735ea" target="_top" xlink:title=" ">
<polygon fill="white" stroke="black" points="855,-147.5 855,-177.5 1007,-177.5 1007,-147.5 855,-147.5"/>
<text text-anchor="start" x="863" y="-165.5" font-family="Helvetica,sans-Serif" font-size="10.00">DescriptorScriptPubKeyMan</text>
<text text-anchor="middle" x="931" y="-154.5" font-family="Helvetica,sans-Serif" font-size="10.00">::AddDescriptorKey</text>
</a>
</g>
</g>
<!-- Node46&#45;&gt;Node47 -->
<g id="edge41" class="edge">
<title>Node46&#45;&gt;Node47</title>
<path fill="none" stroke="midnightblue" d="M1032.85,-162.5C1024.26,-162.5 1015.57,-162.5 1007.1,-162.5"/>
<polygon fill="midnightblue" stroke="midnightblue" points="1032.88,-166 1042.88,-162.5 1032.88,-159 1032.88,-166"/>
</g>
<!-- Node49 -->
<g id="node40" class="node">
<title>Node49</title>
<g id="a_node40"><a xlink:href="class_legacy_script_pub_key_man.html#ad2d9b4af6a0e41001c9d41d10d808a2f" target="_top" xlink:title="Adds a key to the store, and saves it to disk.">
<polygon fill="white" stroke="black" points="863,-98.5 863,-128.5 999,-128.5 999,-98.5 863,-98.5"/>
<text text-anchor="start" x="871" y="-116.5" font-family="Helvetica,sans-Serif" font-size="10.00">LegacyScriptPubKeyMan</text>
<text text-anchor="middle" x="931" y="-105.5" font-family="Helvetica,sans-Serif" font-size="10.00">::AddKeyPubKeyWithDB</text>
</a>
</g>
</g>
<!-- Node48&#45;&gt;Node49 -->
<g id="edge44" class="edge">
<title>Node48&#45;&gt;Node49</title>
<path fill="none" stroke="midnightblue" d="M1040.45,-113.5C1026.7,-113.5 1012.48,-113.5 999.05,-113.5"/>
<polygon fill="midnightblue" stroke="midnightblue" points="1040.85,-117 1050.85,-113.5 1040.85,-110 1040.85,-117"/>
</g>
<!-- Node54 -->
<g id="node45" class="node">
<title>Node54</title>
<g id="a_node45"><a xlink:href="class_legacy_script_pub_key_man.html#a87161b49f40debe74a46eb421a3f66cf" target="_top" xlink:title="Adds a key to the store, without saving it to disk (used by LoadWallet)">
<polygon fill="white" stroke="black" points="863,-44.5 863,-74.5 999,-74.5 999,-44.5 863,-44.5"/>
<text text-anchor="start" x="871" y="-62.5" font-family="Helvetica,sans-Serif" font-size="10.00">LegacyScriptPubKeyMan</text>
<text text-anchor="middle" x="931" y="-51.5" font-family="Helvetica,sans-Serif" font-size="10.00">::LoadKey</text>
</a>
</g>
</g>
<!-- Node48&#45;&gt;Node54 -->
<g id="edge52" class="edge">
<title>Node48&#45;&gt;Node54</title>
<path fill="none" stroke="midnightblue" d="M1056.33,-95.6C1032.84,-88.78 1006.34,-81.08 983.86,-74.55"/>
<polygon fill="midnightblue" stroke="midnightblue" points="1055.61,-99.03 1066.19,-98.46 1057.56,-92.31 1055.61,-99.03"/>
</g>
<!-- Node49&#45;&gt;Node8 -->
<g id="edge50" class="edge">
<title>Node49&#45;&gt;Node8</title>
<path fill="none" stroke="midnightblue" d="M859.15,-134.09C857.71,-135.17 856.33,-136.3 855,-137.5 825.43,-164.14 844.45,-188.9 819,-219.5 805.91,-235.23 787.01,-248.24 771.09,-257.43"/>
<polygon fill="midnightblue" stroke="midnightblue" points="861.33,-136.85 867.86,-128.51 857.56,-130.95 861.33,-136.85"/>
</g>
<!-- Node50 -->
<g id="node41" class="node">
<title>Node50</title>
<g id="a_node41"><a xlink:href="class_legacy_script_pub_key_man.html#abcac2e31e6e8972428614aae4e75ff4c" target="_top" xlink:title="Adds a key to the store, and saves it to disk.">
<polygon fill="white" stroke="black" points="672,-82.5 672,-112.5 808,-112.5 808,-82.5 672,-82.5"/>
<text text-anchor="start" x="680" y="-100.5" font-family="Helvetica,sans-Serif" font-size="10.00">LegacyScriptPubKeyMan</text>
<text text-anchor="middle" x="740" y="-89.5" font-family="Helvetica,sans-Serif" font-size="10.00">::AddKeyPubKey</text>
</a>
</g>
</g>
<!-- Node49&#45;&gt;Node50 -->
<g id="edge45" class="edge">
<title>Node49&#45;&gt;Node50</title>
<path fill="none" stroke="midnightblue" d="M852.74,-106.96C837.99,-105.71 822.67,-104.41 808.27,-103.19"/>
<polygon fill="midnightblue" stroke="midnightblue" points="852.57,-110.46 862.83,-107.81 853.16,-103.48 852.57,-110.46"/>
</g>
<!-- Node53 -->
<g id="node44" class="node">
<title>Node53</title>
<g id="a_node44"><a xlink:href="class_legacy_script_pub_key_man.html#a4790b587d8d9c229143cc0fa16bfbf39" target="_top" xlink:title=" ">
<polygon fill="white" stroke="black" points="672,-131.5 672,-161.5 808,-161.5 808,-131.5 672,-131.5"/>
<text text-anchor="start" x="680" y="-149.5" font-family="Helvetica,sans-Serif" font-size="10.00">LegacyScriptPubKeyMan</text>
<text text-anchor="middle" x="740" y="-138.5" font-family="Helvetica,sans-Serif" font-size="10.00">::ImportPrivKeys</text>
</a>
</g>
</g>
<!-- Node49&#45;&gt;Node53 -->
<g id="edge51" class="edge">
<title>Node49&#45;&gt;Node53</title>
<path fill="none" stroke="midnightblue" d="M852.74,-126.99C837.99,-129.56 822.67,-132.24 808.27,-134.75"/>
<polygon fill="midnightblue" stroke="midnightblue" points="853.58,-130.4 862.83,-125.23 852.38,-123.5 853.58,-130.4"/>
</g>
<!-- Node51 -->
<g id="node42" class="node">
<title>Node51</title>
<g id="a_node42"><a xlink:href="class_legacy_script_pub_key_man.html#ae297da8721692890b66fd4ba2f3f4259" target="_top" xlink:title=" ">
<polygon fill="white" stroke="black" points="481,-82.5 481,-112.5 617,-112.5 617,-82.5 481,-82.5"/>
<text text-anchor="start" x="489" y="-100.5" font-family="Helvetica,sans-Serif" font-size="10.00">LegacyScriptPubKeyMan</text>
<text text-anchor="middle" x="549" y="-89.5" font-family="Helvetica,sans-Serif" font-size="10.00">::DeriveNewSeed</text>
</a>
</g>
</g>
<!-- Node50&#45;&gt;Node51 -->
<g id="edge46" class="edge">
<title>Node50&#45;&gt;Node51</title>
<path fill="none" stroke="midnightblue" d="M661.74,-97.5C646.99,-97.5 631.67,-97.5 617.27,-97.5"/>
<polygon fill="midnightblue" stroke="midnightblue" points="661.83,-101 671.83,-97.5 661.83,-94 661.83,-101"/>
</g>
<!-- Node51&#45;&gt;Node16 -->
<g id="edge49" class="edge">
<title>Node51&#45;&gt;Node16</title>
<path fill="none" stroke="midnightblue" d="M491.61,-115.93C485.32,-118.1 479.01,-120.32 473,-122.5 388.1,-153.34 288.67,-193.78 244.57,-211.94"/>
<polygon fill="midnightblue" stroke="midnightblue" points="493.12,-119.12 501.46,-112.59 490.86,-112.49 493.12,-119.12"/>
</g>
<!-- Node52 -->
<g id="node43" class="node">
<title>Node52</title>
<g id="a_node43"><a xlink:href="class_legacy_script_pub_key_man.html#aca11c5a43808a115f1b1849466d928f6" target="_top" xlink:title=" ">
<polygon fill="white" stroke="red" points="301,-92.5 301,-122.5 437,-122.5 437,-92.5 301,-92.5"/>
<text text-anchor="start" x="309" y="-110.5" font-family="Helvetica,sans-Serif" font-size="10.00">LegacyScriptPubKeyMan</text>
<text text-anchor="middle" x="369" y="-99.5" font-family="Helvetica,sans-Serif" font-size="10.00">::GenerateNewSeed</text>
</a>
</g>
</g>
<!-- Node51&#45;&gt;Node52 -->
<g id="edge47" class="edge">
<title>Node51&#45;&gt;Node52</title>
<path fill="none" stroke="midnightblue" d="M470.8,-101.84C459.64,-102.46 448.22,-103.11 437.28,-103.72"/>
<polygon fill="midnightblue" stroke="midnightblue" points="471.17,-105.32 480.96,-101.27 470.78,-98.33 471.17,-105.32"/>
</g>
<!-- Node52&#45;&gt;Node16 -->
<g id="edge48" class="edge">
<title>Node52&#45;&gt;Node16</title>
<path fill="none" stroke="midnightblue" d="M338.47,-128.57C326.7,-137.1 313.11,-147.13 301,-156.5 276.32,-175.59 248.23,-198.95 232.93,-211.83"/>
<polygon fill="midnightblue" stroke="midnightblue" points="340.6,-131.35 346.66,-122.66 336.5,-125.67 340.6,-131.35"/>
</g>
<!-- Node55 -->
<g id="node46" class="node">
<title>Node55</title>
<g id="a_node46"><a xlink:href="walletdb_8cpp.html#a653d9a2eb177350e7160edd6b32cec5c" target="_top" xlink:title=" ">
<polygon fill="white" stroke="black" points="697,-44 697,-63 783,-63 783,-44 697,-44"/>
<text text-anchor="middle" x="740" y="-51" font-family="Helvetica,sans-Serif" font-size="10.00">ReadKeyValue</text>
</a>
</g>
</g>
<!-- Node54&#45;&gt;Node55 -->
<g id="edge53" class="edge">
<title>Node54&#45;&gt;Node55</title>
<path fill="none" stroke="midnightblue" d="M852.76,-57.05C828.99,-56.29 803.71,-55.49 783.22,-54.84"/>
<polygon fill="midnightblue" stroke="midnightblue" points="852.73,-60.55 862.83,-57.37 852.95,-53.55 852.73,-60.55"/>
</g>
<!-- Node55&#45;&gt;Node41 -->
<g id="edge54" class="edge">
<title>Node55&#45;&gt;Node41</title>
<path fill="none" stroke="midnightblue" d="M686.87,-60.83C677.77,-63.57 668.75,-67.33 661,-72.5 638.52,-87.49 647.32,-106.27 625,-121.5 618.66,-125.83 611.42,-129.22 604,-131.88"/>
<polygon fill="midnightblue" stroke="midnightblue" points="687.93,-64.17 696.71,-58.24 686.15,-57.4 687.93,-64.17"/>
</g>
<!-- Node56 -->
<g id="node47" class="node">
<title>Node56</title>
<g id="a_node47"><a xlink:href="walletdb_8cpp.html#abe2274efef59b60fdc1590b8ad8b8d44" target="_top" xlink:title="Unserialize a given Key&#45;Value pair and load it into the wallet.">
<polygon fill="white" stroke="black" points="506,-44 506,-63 592,-63 592,-44 506,-44"/>
<text text-anchor="middle" x="549" y="-51" font-family="Helvetica,sans-Serif" font-size="10.00">ReadKeyValue</text>
</a>
</g>
</g>
<!-- Node55&#45;&gt;Node56 -->
<g id="edge55" class="edge">
<title>Node55&#45;&gt;Node56</title>
<path fill="none" stroke="midnightblue" d="M686.4,-53.5C656.7,-53.5 620.09,-53.5 592.27,-53.5"/>
<polygon fill="midnightblue" stroke="midnightblue" points="686.58,-57 696.58,-53.5 686.58,-50 686.58,-57"/>
</g>
<!-- Node57 -->
<g id="node48" class="node">
<title>Node57</title>
<g id="a_node48"><a xlink:href="salvage_8cpp.html#a7c33d426b6f301acc8f24e43029870bd" target="_top" xlink:title=" ">
<polygon fill="white" stroke="red" points="489,-6 489,-25 609,-25 609,-6 489,-6"/>
<text text-anchor="middle" x="549" y="-13" font-family="Helvetica,sans-Serif" font-size="10.00">RecoverDatabaseFile</text>
</a>
</g>
</g>
<!-- Node55&#45;&gt;Node57 -->
<g id="edge56" class="edge">
<title>Node55&#45;&gt;Node57</title>
<path fill="none" stroke="midnightblue" d="M686.58,-42.96C658.59,-37.33 624.42,-30.46 597.25,-25"/>
<polygon fill="midnightblue" stroke="midnightblue" points="686.09,-46.43 696.58,-44.97 687.47,-39.57 686.09,-46.43"/>
</g>
</g>
</svg>
