<?xml version="1.0" encoding="UTF-8" standalone="no"?>
<!DOCTYPE svg PUBLIC "-//W3C//DTD SVG 1.1//EN"
 "http://www.w3.org/Graphics/SVG/1.1/DTD/svg11.dtd">
<!-- Generated by graphviz version 2.38.0 (20140413.2041)
 -->
<!-- Title: CKey::Set Pages: 1 -->
<svg width="1254pt" height="672pt"
 viewBox="0.00 0.00 1254.00 672.00" xmlns="http://www.w3.org/2000/svg" xmlns:xlink="http://www.w3.org/1999/xlink">
<g id="graph0" class="graph" transform="scale(1 1) rotate(0) translate(4 668)">
<title>CKey::Set</title>
<polygon fill="white" stroke="none" points="-4,4 -4,-668 1250,-668 1250,4 -4,4"/>
<!-- Node1 -->
<g id="node1" class="node"><title>Node1</title>
<polygon fill="#bfbfbf" stroke="black" points="0,-473.5 0,-492.5 62,-492.5 62,-473.5 0,-473.5"/>
<text text-anchor="middle" x="31" y="-480.5" font-family="Helvetica,sans-Serif" font-size="10.00">CKey::Set</text>
</g>
<!-- Node2 -->
<g id="node2" class="node"><title>Node2</title>
<g id="a_node2"><a xlink:href="key__io_8h.html#a7941777b013d8d31958b7ffbc8c3563f" target="_top" xlink:title="DecodeSecret">
<polygon fill="white" stroke="black" points="426,-152.5 426,-171.5 511,-171.5 511,-152.5 426,-152.5"/>
<text text-anchor="middle" x="468.5" y="-159.5" font-family="Helvetica,sans-Serif" font-size="10.00">DecodeSecret</text>
</a>
</g>
</g>
<!-- Node1&#45;&gt;Node2 -->
<g id="edge1" class="edge"><title>Node1&#45;&gt;Node2</title>
<path fill="none" stroke="midnightblue" d="M53.5154,-467.141C130.796,-410.179 393.02,-216.898 454.517,-171.569"/>
<polygon fill="midnightblue" stroke="midnightblue" points="51.0066,-464.642 45.0336,-473.393 55.1599,-470.277 51.0066,-464.642"/>
</g>
<!-- Node14 -->
<g id="node14" class="node"><title>Node14</title>
<g id="a_node14"><a xlink:href="keystore_8h.html#a2325e8758e074d2f2cd564ba7da2d0e8" target="_top" xlink:title="Checks if a CKey is in the given CKeyStore compressed or otherwise. ">
<polygon fill="white" stroke="black" points="98,-473.5 98,-492.5 156,-492.5 156,-473.5 98,-473.5"/>
<text text-anchor="middle" x="127" y="-480.5" font-family="Helvetica,sans-Serif" font-size="10.00">HaveKey</text>
</a>
</g>
</g>
<!-- Node1&#45;&gt;Node14 -->
<g id="edge17" class="edge"><title>Node1&#45;&gt;Node14</title>
<path fill="none" stroke="midnightblue" d="M72.0007,-483C80.7105,-483 89.7484,-483 97.8815,-483"/>
<polygon fill="midnightblue" stroke="midnightblue" points="72.0007,-479.5 62.0006,-483 72.0006,-486.5 72.0007,-479.5"/>
</g>
<!-- Node25 -->
<g id="node25" class="node"><title>Node25</title>
<g id="a_node25"><a xlink:href="class_c_crypter.html#ac5a813381a88db619331a9d5492cd339" target="_top" xlink:title="CCrypter::Decrypt">
<polygon fill="white" stroke="black" points="417.5,-596.5 417.5,-615.5 519.5,-615.5 519.5,-596.5 417.5,-596.5"/>
<text text-anchor="middle" x="468.5" y="-603.5" font-family="Helvetica,sans-Serif" font-size="10.00">CCrypter::Decrypt</text>
</a>
</g>
</g>
<!-- Node1&#45;&gt;Node25 -->
<g id="edge43" class="edge"><title>Node1&#45;&gt;Node25</title>
<path fill="none" stroke="midnightblue" d="M56.9584,-497.519C87.7133,-514.772 142.043,-543.206 192,-559 268.567,-583.207 361.278,-595.758 417.259,-601.607"/>
<polygon fill="midnightblue" stroke="midnightblue" points="58.6262,-494.441 48.2016,-492.549 55.1714,-500.529 58.6262,-494.441"/>
</g>
<!-- Node3 -->
<g id="node3" class="node"><title>Node3</title>
<g id="a_node3"><a xlink:href="rawtransaction_8h.html#a69f132a19b8e91bd9b0b1330b5323f0a" target="_top" xlink:title="Sign a transaction with the given keystore and previous transactions. ">
<polygon fill="white" stroke="black" points="615,-152.5 615,-171.5 707,-171.5 707,-152.5 615,-152.5"/>
<text text-anchor="middle" x="661" y="-159.5" font-family="Helvetica,sans-Serif" font-size="10.00">SignTransaction</text>
</a>
</g>
</g>
<!-- Node2&#45;&gt;Node3 -->
<g id="edge2" class="edge"><title>Node2&#45;&gt;Node3</title>
<path fill="none" stroke="midnightblue" d="M521.349,-162C550.634,-162 586.88,-162 614.967,-162"/>
<polygon fill="midnightblue" stroke="midnightblue" points="521.306,-158.5 511.306,-162 521.306,-165.5 521.306,-158.5"/>
</g>
<!-- Node8 -->
<g id="node8" class="node"><title>Node8</title>
<g id="a_node8"><a xlink:href="rpcwallet_8cpp.html#a2f46e2bb304dda9a197b5a68db6106f7" target="_top" xlink:title="importprivkey">
<polygon fill="white" stroke="black" points="820,-312.5 820,-331.5 902,-331.5 902,-312.5 820,-312.5"/>
<text text-anchor="middle" x="861" y="-319.5" font-family="Helvetica,sans-Serif" font-size="10.00">importprivkey</text>
</a>
</g>
</g>
<!-- Node2&#45;&gt;Node8 -->
<g id="edge8" class="edge"><title>Node2&#45;&gt;Node8</title>
<path fill="none" stroke="midnightblue" d="M478.292,-181.042C493.127,-210.738 526.163,-267.327 573,-293 651.828,-336.209 761.213,-333.082 819.549,-327.354"/>
<polygon fill="midnightblue" stroke="midnightblue" points="481.308,-179.241 473.81,-171.755 475.004,-182.283 481.308,-179.241"/>
</g>
<!-- Node9 -->
<g id="node9" class="node"><title>Node9</title>
<g id="a_node9"><a xlink:href="wallet__tests_8cpp.html#a8c64ef6e0ced69002923098229448758" target="_top" xlink:title="importwallet">
<polygon fill="white" stroke="black" points="823.5,-76.5 823.5,-95.5 898.5,-95.5 898.5,-76.5 823.5,-76.5"/>
<text text-anchor="middle" x="861" y="-83.5" font-family="Helvetica,sans-Serif" font-size="10.00">importwallet</text>
</a>
</g>
</g>
<!-- Node2&#45;&gt;Node9 -->
<g id="edge10" class="edge"><title>Node2&#45;&gt;Node9</title>
<path fill="none" stroke="midnightblue" d="M492.745,-147.06C513.059,-134.82 543.793,-118.225 573,-110 660.353,-85.4003 768.105,-83.6184 823.422,-84.6646"/>
<polygon fill="midnightblue" stroke="midnightblue" points="490.866,-144.107 484.188,-152.332 494.538,-150.066 490.866,-144.107"/>
</g>
<!-- Node11 -->
<g id="node11" class="node"><title>Node11</title>
<g id="a_node11"><a xlink:href="wallet__tests_8cpp.html#a73ce3a42e0b56b2e4516e55871d8590e" target="_top" xlink:title="dumpwallet">
<polygon fill="white" stroke="black" points="825.5,-38.5 825.5,-57.5 896.5,-57.5 896.5,-38.5 825.5,-38.5"/>
<text text-anchor="middle" x="861" y="-45.5" font-family="Helvetica,sans-Serif" font-size="10.00">dumpwallet</text>
</a>
</g>
</g>
<!-- Node2&#45;&gt;Node11 -->
<g id="edge12" class="edge"><title>Node2&#45;&gt;Node11</title>
<path fill="none" stroke="midnightblue" d="M485.558,-144.961C504.494,-126.065 537.866,-96.3589 573,-82 658.692,-46.9787 769.939,-44.7773 825.396,-46.2795"/>
<polygon fill="midnightblue" stroke="midnightblue" points="482.851,-142.723 478.363,-152.32 487.856,-147.616 482.851,-142.723"/>
</g>
<!-- Node12 -->
<g id="node12" class="node"><title>Node12</title>
<g id="a_node12"><a xlink:href="rpcwallet_8cpp.html#a61c7a90d1b36888fe11b751e746e18c0" target="_top" xlink:title="sethdseed">
<polygon fill="white" stroke="black" points="827.5,-350.5 827.5,-369.5 894.5,-369.5 894.5,-350.5 827.5,-350.5"/>
<text text-anchor="middle" x="861" y="-357.5" font-family="Helvetica,sans-Serif" font-size="10.00">sethdseed</text>
</a>
</g>
</g>
<!-- Node2&#45;&gt;Node12 -->
<g id="edge14" class="edge"><title>Node2&#45;&gt;Node12</title>
<path fill="none" stroke="midnightblue" d="M475.617,-181.456C487.824,-216.737 518.801,-290.777 573,-325 614.7,-351.33 761.478,-357.861 827.454,-359.474"/>
<polygon fill="midnightblue" stroke="midnightblue" points="478.897,-180.228 472.426,-171.838 472.253,-182.432 478.897,-180.228"/>
</g>
<!-- Node13 -->
<g id="node13" class="node"><title>Node13</title>
<g id="a_node13"><a xlink:href="psbt__wallet__tests_8cpp.html#a0508d4d7e942faaa45c8e03ed7151dc4" target="_top" xlink:title="BOOST_AUTO_TEST_CASE">
<polygon fill="white" stroke="black" points="589.5,-0.5 589.5,-19.5 732.5,-19.5 732.5,-0.5 589.5,-0.5"/>
<text text-anchor="middle" x="661" y="-7.5" font-family="Helvetica,sans-Serif" font-size="10.00">BOOST_AUTO_TEST_CASE</text>
</a>
</g>
</g>
<!-- Node2&#45;&gt;Node13 -->
<g id="edge16" class="edge"><title>Node2&#45;&gt;Node13</title>
<path fill="none" stroke="midnightblue" d="M479.412,-143.466C495.355,-115.455 529.378,-62.5798 573,-34 582.698,-27.6459 594.059,-22.9599 605.311,-19.5085"/>
<polygon fill="midnightblue" stroke="midnightblue" points="476.326,-141.813 474.54,-152.256 482.449,-145.206 476.326,-141.813"/>
</g>
<!-- Node3&#45;&gt;Node3 -->
<g id="edge3" class="edge"><title>Node3&#45;&gt;Node3</title>
<path fill="none" stroke="midnightblue" d="M625,-179.504C625.006,-185.336 637.006,-190 661,-190 695.125,-190 704.989,-180.565 690.593,-171.757"/>
<polygon fill="midnightblue" stroke="midnightblue" points="627.731,-181.694 631.407,-171.757 622.337,-177.232 627.731,-181.694"/>
</g>
<!-- Node4 -->
<g id="node4" class="node"><title>Node4</title>
<g id="a_node4"><a xlink:href="rpcwallet_8h.html#a7c13054932c9e3b351bd6277fa9361d7" target="_top" xlink:title="signrawtransactionwithwallet">
<polygon fill="white" stroke="black" points="785,-198.5 785,-217.5 937,-217.5 937,-198.5 785,-198.5"/>
<text text-anchor="middle" x="861" y="-205.5" font-family="Helvetica,sans-Serif" font-size="10.00">signrawtransactionwithwallet</text>
</a>
</g>
</g>
<!-- Node3&#45;&gt;Node4 -->
<g id="edge4" class="edge"><title>Node3&#45;&gt;Node4</title>
<path fill="none" stroke="midnightblue" d="M712.931,-173.832C745.893,-181.49 788.244,-191.329 819.027,-198.481"/>
<polygon fill="midnightblue" stroke="midnightblue" points="713.558,-170.385 703.026,-171.531 711.974,-177.203 713.558,-170.385"/>
</g>
<!-- Node5 -->
<g id="node5" class="node"><title>Node5</title>
<g id="a_node5"><a xlink:href="rawtransaction_8cpp.html#a5b2abfea4548c97e780cfae39f9ac11b" target="_top" xlink:title="signrawtransaction">
<polygon fill="white" stroke="black" points="996.5,-156.5 996.5,-175.5 1103.5,-175.5 1103.5,-156.5 996.5,-156.5"/>
<text text-anchor="middle" x="1050" y="-163.5" font-family="Helvetica,sans-Serif" font-size="10.00">signrawtransaction</text>
</a>
</g>
</g>
<!-- Node4&#45;&gt;Node5 -->
<g id="edge5" class="edge"><title>Node4&#45;&gt;Node5</title>
<path fill="none" stroke="midnightblue" d="M914.407,-196.23C943.451,-189.706 979.1,-181.699 1006.41,-175.565"/>
<polygon fill="midnightblue" stroke="midnightblue" points="913.423,-192.863 904.433,-198.47 914.957,-199.693 913.423,-192.863"/>
</g>
<!-- Node7 -->
<g id="node7" class="node"><title>Node7</title>
<g id="a_node7"><a xlink:href="rpcwallet_8cpp.html#afca55ac7a3c6c274b8b7b3e6eab9cd86" target="_top" xlink:title="walletcreatefundedpsbt">
<polygon fill="white" stroke="black" points="986,-331.5 986,-350.5 1114,-350.5 1114,-331.5 986,-331.5"/>
<text text-anchor="middle" x="1050" y="-338.5" font-family="Helvetica,sans-Serif" font-size="10.00">walletcreatefundedpsbt</text>
</a>
</g>
</g>
<!-- Node4&#45;&gt;Node7 -->
<g id="edge7" class="edge"><title>Node4&#45;&gt;Node7</title>
<path fill="none" stroke="midnightblue" d="M925.237,-221.18C929.324,-222.891 933.285,-224.822 937,-227 957.07,-238.766 956.773,-248.329 973,-265 996.427,-289.069 1024.48,-316.864 1039.08,-331.246"/>
<polygon fill="midnightblue" stroke="midnightblue" points="926.121,-217.775 915.528,-217.574 923.683,-224.337 926.121,-217.775"/>
</g>
<!-- Node6 -->
<g id="node6" class="node"><title>Node6</title>
<g id="a_node6"><a xlink:href="rawtransaction_8cpp.html#a6b6a0c0d5bd5b55553ea48b3da2e796c" target="_top" xlink:title="converttopsbt">
<polygon fill="white" stroke="black" points="1163,-156.5 1163,-175.5 1246,-175.5 1246,-156.5 1163,-156.5"/>
<text text-anchor="middle" x="1204.5" y="-163.5" font-family="Helvetica,sans-Serif" font-size="10.00">converttopsbt</text>
</a>
</g>
</g>
<!-- Node5&#45;&gt;Node6 -->
<g id="edge6" class="edge"><title>Node5&#45;&gt;Node6</title>
<path fill="none" stroke="midnightblue" d="M1114.01,-166C1130.46,-166 1147.75,-166 1162.71,-166"/>
<polygon fill="midnightblue" stroke="midnightblue" points="1113.91,-162.5 1103.91,-166 1113.91,-169.5 1113.91,-162.5"/>
</g>
<!-- Node8&#45;&gt;Node7 -->
<g id="edge9" class="edge"><title>Node8&#45;&gt;Node7</title>
<path fill="none" stroke="midnightblue" d="M912.181,-327.099C934.81,-329.398 961.784,-332.138 985.777,-334.576"/>
<polygon fill="midnightblue" stroke="midnightblue" points="912.419,-323.605 902.116,-326.076 911.711,-330.569 912.419,-323.605"/>
</g>
<!-- Node10 -->
<g id="node10" class="node"><title>Node10</title>
<g id="a_node10"><a xlink:href="wallet__tests_8cpp.html#a2a726fa52b0a343883cb50a3f68d0989" target="_top" xlink:title="BOOST_FIXTURE_TEST_CASE">
<polygon fill="white" stroke="black" points="973,-57.5 973,-76.5 1127,-76.5 1127,-57.5 973,-57.5"/>
<text text-anchor="middle" x="1050" y="-64.5" font-family="Helvetica,sans-Serif" font-size="10.00">BOOST_FIXTURE_TEST_CASE</text>
</a>
</g>
</g>
<!-- Node9&#45;&gt;Node10 -->
<g id="edge11" class="edge"><title>Node9&#45;&gt;Node10</title>
<path fill="none" stroke="midnightblue" d="M908.977,-81.227C928.272,-79.2665 951.114,-76.9456 972.691,-74.7533"/>
<polygon fill="midnightblue" stroke="midnightblue" points="908.54,-77.7532 898.945,-82.2462 909.248,-84.7174 908.54,-77.7532"/>
</g>
<!-- Node11&#45;&gt;Node10 -->
<g id="edge13" class="edge"><title>Node11&#45;&gt;Node10</title>
<path fill="none" stroke="midnightblue" d="M906.712,-52.543C926.558,-54.5593 950.476,-56.9896 972.992,-59.2772"/>
<polygon fill="midnightblue" stroke="midnightblue" points="907.038,-49.0581 896.735,-51.5292 906.33,-56.0222 907.038,-49.0581"/>
</g>
<!-- Node12&#45;&gt;Node7 -->
<g id="edge15" class="edge"><title>Node12&#45;&gt;Node7</title>
<path fill="none" stroke="midnightblue" d="M904.77,-355.654C928.759,-353.217 959.137,-350.13 985.821,-347.419"/>
<polygon fill="midnightblue" stroke="midnightblue" points="904.168,-352.197 894.573,-356.69 904.876,-359.162 904.168,-352.197"/>
</g>
<!-- Node14&#45;&gt;Node12 -->
<g id="edge42" class="edge"><title>Node14&#45;&gt;Node12</title>
<path fill="none" stroke="midnightblue" d="M148.816,-467.486C160.817,-459.376 176.551,-450.101 192,-445 310.151,-405.991 627.358,-414.164 749,-388 765.488,-384.453 768.728,-380.433 785,-376 798.745,-372.256 814.102,-368.846 827.323,-366.146"/>
<polygon fill="midnightblue" stroke="midnightblue" points="146.606,-464.761 140.433,-473.372 150.628,-470.49 146.606,-464.761"/>
</g>
<!-- Node15 -->
<g id="node15" class="node"><title>Node15</title>
<g id="a_node15"><a xlink:href="group__map_wallet.html#gafb01fcc10d890174b2db560a7f27b58a" target="_top" xlink:title="CWallet::DeriveNewChildKey">
<polygon fill="white" stroke="black" points="204,-530.5 204,-549.5 352,-549.5 352,-530.5 204,-530.5"/>
<text text-anchor="middle" x="278" y="-537.5" font-family="Helvetica,sans-Serif" font-size="10.00">CWallet::DeriveNewChildKey</text>
</a>
</g>
</g>
<!-- Node14&#45;&gt;Node15 -->
<g id="edge18" class="edge"><title>Node14&#45;&gt;Node15</title>
<path fill="none" stroke="midnightblue" d="M149.994,-498.418C161.946,-506.176 177.261,-515.149 192,-521 201.557,-524.794 212.034,-527.912 222.268,-530.447"/>
<polygon fill="midnightblue" stroke="midnightblue" points="151.835,-495.438 141.575,-492.794 147.946,-501.259 151.835,-495.438"/>
</g>
<!-- Node16 -->
<g id="node16" class="node"><title>Node16</title>
<g id="a_node16"><a xlink:href="group___actions.html#gaa869ffae7560168064463f3157633a8b" target="_top" xlink:title="Reserves a key from the keypool and sets nIndex to its index. ">
<polygon fill="white" stroke="black" points="192,-492.5 192,-511.5 364,-511.5 364,-492.5 192,-492.5"/>
<text text-anchor="middle" x="278" y="-499.5" font-family="Helvetica,sans-Serif" font-size="10.00">CWallet::ReserveKeyFromKeyPool</text>
</a>
</g>
</g>
<!-- Node14&#45;&gt;Node16 -->
<g id="edge19" class="edge"><title>Node14&#45;&gt;Node16</title>
<path fill="none" stroke="midnightblue" d="M166.169,-487.867C177.251,-489.28 189.752,-490.874 202.263,-492.47"/>
<polygon fill="midnightblue" stroke="midnightblue" points="166.388,-484.367 156.026,-486.574 165.503,-491.311 166.388,-484.367"/>
</g>
<!-- Node17 -->
<g id="node17" class="node"><title>Node17</title>
<g id="a_node17"><a xlink:href="class_c_crypto_key_store.html#a1cb434078a9ea686c0acf168d2c81252" target="_top" xlink:title="CCryptoKeyStore::IsCrypted">
<polygon fill="white" stroke="black" points="203.5,-454.5 203.5,-473.5 352.5,-473.5 352.5,-454.5 203.5,-454.5"/>
<text text-anchor="middle" x="278" y="-461.5" font-family="Helvetica,sans-Serif" font-size="10.00">CCryptoKeyStore::IsCrypted</text>
</a>
</g>
</g>
<!-- Node14&#45;&gt;Node17 -->
<g id="edge20" class="edge"><title>Node14&#45;&gt;Node17</title>
<path fill="none" stroke="midnightblue" d="M166.023,-478.151C177.42,-476.698 190.329,-475.052 203.209,-473.41"/>
<polygon fill="midnightblue" stroke="midnightblue" points="165.503,-474.689 156.026,-479.426 166.388,-481.633 165.503,-474.689"/>
</g>
<!-- Node18 -->
<g id="node18" class="node"><title>Node18</title>
<g id="a_node18"><a xlink:href="rpcwallet_8h.html#ad35d45071ce42aaef4b74910e36eda5a" target="_top" xlink:title="HelpRequiringPassphrase">
<polygon fill="white" stroke="black" points="400,-378.5 400,-397.5 537,-397.5 537,-378.5 400,-378.5"/>
<text text-anchor="middle" x="468.5" y="-385.5" font-family="Helvetica,sans-Serif" font-size="10.00">HelpRequiringPassphrase</text>
</a>
</g>
</g>
<!-- Node17&#45;&gt;Node18 -->
<g id="edge21" class="edge"><title>Node17&#45;&gt;Node18</title>
<path fill="none" stroke="midnightblue" d="M312.413,-450.529C350.16,-435.309 410.642,-410.924 443.82,-397.547"/>
<polygon fill="midnightblue" stroke="midnightblue" points="310.839,-447.389 302.874,-454.375 313.457,-453.881 310.839,-447.389"/>
</g>
<!-- Node23 -->
<g id="node23" class="node"><title>Node23</title>
<g id="a_node23"><a xlink:href="rpcwallet_8cpp.html#a74b85c92ee6a84277c73b74f2e212bff" target="_top" xlink:title="listtransactions">
<polygon fill="white" stroke="black" points="816.5,-508.5 816.5,-527.5 905.5,-527.5 905.5,-508.5 816.5,-508.5"/>
<text text-anchor="middle" x="861" y="-515.5" font-family="Helvetica,sans-Serif" font-size="10.00">listtransactions</text>
</a>
</g>
</g>
<!-- Node17&#45;&gt;Node23 -->
<g id="edge41" class="edge"><title>Node17&#45;&gt;Node23</title>
<path fill="none" stroke="midnightblue" d="M331.175,-475.677C389.688,-488.156 487.589,-507.197 573,-515 658.847,-522.843 759.734,-521.456 816.128,-519.732"/>
<polygon fill="midnightblue" stroke="midnightblue" points="331.585,-472.185 321.072,-473.504 330.113,-479.028 331.585,-472.185"/>
</g>
<!-- Node18&#45;&gt;Node4 -->
<g id="edge37" class="edge"><title>Node18&#45;&gt;Node4</title>
<path fill="none" stroke="midnightblue" d="M476.339,-368.941C489.377,-335.696 521.2,-267.721 573,-237 607.621,-216.467 711.926,-210.286 784.75,-208.529"/>
<polygon fill="midnightblue" stroke="midnightblue" points="473.016,-367.832 472.764,-378.424 479.566,-370.301 473.016,-367.832"/>
</g>
<!-- Node18&#45;&gt;Node5 -->
<g id="edge22" class="edge"><title>Node18&#45;&gt;Node5</title>
<path fill="none" stroke="midnightblue" d="M474.79,-368.337C489.586,-314.958 532.942,-169.564 573,-143 641.78,-97.3904 892.437,-136.836 999.728,-156.469"/>
<polygon fill="midnightblue" stroke="midnightblue" points="471.339,-367.686 472.077,-378.255 478.091,-369.532 471.339,-367.686"/>
</g>
<!-- Node18&#45;&gt;Node12 -->
<g id="edge38" class="edge"><title>Node18&#45;&gt;Node12</title>
<path fill="none" stroke="midnightblue" d="M547.253,-382.425C632.729,-376.296 766.038,-366.737 827.255,-362.348"/>
<polygon fill="midnightblue" stroke="midnightblue" points="546.798,-378.948 537.074,-383.155 547.299,-385.93 546.798,-378.948"/>
</g>
<!-- Node19 -->
<g id="node19" class="node"><title>Node19</title>
<g id="a_node19"><a xlink:href="rpcwallet_8h.html#aae9bc665151c5bab626a7ffcaeed9c0d" target="_top" xlink:title="EnsureWalletIsUnlocked">
<polygon fill="white" stroke="black" points="596.5,-246.5 596.5,-265.5 725.5,-265.5 725.5,-246.5 596.5,-246.5"/>
<text text-anchor="middle" x="661" y="-253.5" font-family="Helvetica,sans-Serif" font-size="10.00">EnsureWalletIsUnlocked</text>
</a>
</g>
</g>
<!-- Node18&#45;&gt;Node19 -->
<g id="edge23" class="edge"><title>Node18&#45;&gt;Node19</title>
<path fill="none" stroke="midnightblue" d="M491.763,-372.573C531.526,-345.021 613.634,-288.127 646.228,-265.542"/>
<polygon fill="midnightblue" stroke="midnightblue" points="489.734,-369.721 483.508,-378.294 493.721,-375.475 489.734,-369.721"/>
</g>
<!-- Node18&#45;&gt;Node23 -->
<g id="edge36" class="edge"><title>Node18&#45;&gt;Node23</title>
<path fill="none" stroke="midnightblue" d="M482.718,-405.561C500.529,-427.767 534.478,-465.241 573,-483 653.001,-519.882 758.196,-522.644 816.443,-520.735"/>
<polygon fill="midnightblue" stroke="midnightblue" points="485.419,-403.333 476.505,-397.607 479.902,-407.642 485.419,-403.333"/>
</g>
<!-- Node24 -->
<g id="node24" class="node"><title>Node24</title>
<g id="a_node24"><a xlink:href="rpcwallet_8cpp.html#a9c99ceacf389a1ce91977c6f7ffa5022" target="_top" xlink:title="walletprocesspsbt">
<polygon fill="white" stroke="black" points="610,-454.5 610,-473.5 712,-473.5 712,-454.5 610,-454.5"/>
<text text-anchor="middle" x="661" y="-461.5" font-family="Helvetica,sans-Serif" font-size="10.00">walletprocesspsbt</text>
</a>
</g>
</g>
<!-- Node18&#45;&gt;Node24 -->
<g id="edge39" class="edge"><title>Node18&#45;&gt;Node24</title>
<path fill="none" stroke="midnightblue" d="M503.267,-401.471C541.415,-416.691 602.538,-441.076 636.069,-454.453"/>
<polygon fill="midnightblue" stroke="midnightblue" points="504.212,-398.08 493.627,-397.625 501.618,-404.582 504.212,-398.08"/>
</g>
<!-- Node19&#45;&gt;Node4 -->
<g id="edge34" class="edge"><title>Node19&#45;&gt;Node4</title>
<path fill="none" stroke="midnightblue" d="M711.683,-243.956C745.336,-235.797 789.199,-225.164 820.476,-217.582"/>
<polygon fill="midnightblue" stroke="midnightblue" points="710.486,-240.644 701.592,-246.402 712.136,-247.447 710.486,-240.644"/>
</g>
<!-- Node19&#45;&gt;Node8 -->
<g id="edge24" class="edge"><title>Node19&#45;&gt;Node8</title>
<path fill="none" stroke="midnightblue" d="M694.387,-269.567C718.98,-279.576 753.777,-293.117 785,-303 796.141,-306.527 808.372,-309.851 819.665,-312.702"/>
<polygon fill="midnightblue" stroke="midnightblue" points="695.419,-266.207 684.839,-265.65 692.762,-272.683 695.419,-266.207"/>
</g>
<!-- Node19&#45;&gt;Node9 -->
<g id="edge25" class="edge"><title>Node19&#45;&gt;Node9</title>
<path fill="none" stroke="midnightblue" d="M687.495,-241.294C705.389,-230.504 729.505,-214.997 749,-199 790.879,-164.635 834.036,-116.244 851.703,-95.7636"/>
<polygon fill="midnightblue" stroke="midnightblue" points="685.57,-238.367 678.762,-246.485 689.147,-244.384 685.57,-238.367"/>
</g>
<!-- Node19&#45;&gt;Node11 -->
<g id="edge28" class="edge"><title>Node19&#45;&gt;Node11</title>
<path fill="none" stroke="midnightblue" d="M694.437,-241.975C712.968,-232.397 735.195,-217.993 749,-199 784.753,-149.811 741.613,-109.607 785,-67 795.638,-56.5533 811.151,-51.5938 825.312,-49.327"/>
<polygon fill="midnightblue" stroke="midnightblue" points="692.845,-238.857 685.419,-246.414 695.937,-245.137 692.845,-238.857"/>
</g>
<!-- Node19&#45;&gt;Node12 -->
<g id="edge35" class="edge"><title>Node19&#45;&gt;Node12</title>
<path fill="none" stroke="midnightblue" d="M680.975,-272.369C704.074,-291.49 744.975,-322.817 785,-341 798.33,-347.056 813.905,-351.399 827.398,-354.39"/>
<polygon fill="midnightblue" stroke="midnightblue" points="682.939,-269.447 673.032,-265.691 678.434,-274.805 682.939,-269.447"/>
</g>
<!-- Node19&#45;&gt;Node19 -->
<g id="edge31" class="edge"><title>Node19&#45;&gt;Node19</title>
<path fill="none" stroke="midnightblue" d="M625,-273.504C625.006,-279.336 637.006,-284 661,-284 695.125,-284 704.989,-274.565 690.593,-265.757"/>
<polygon fill="midnightblue" stroke="midnightblue" points="627.731,-275.694 631.407,-265.757 622.337,-271.232 627.731,-275.694"/>
</g>
<!-- Node20 -->
<g id="node20" class="node"><title>Node20</title>
<g id="a_node20"><a xlink:href="rpcwallet_8cpp.html#ab3f51d8e8fe414dbf91c37485e481ae3" target="_top" xlink:title="dumpprivkey">
<polygon fill="white" stroke="black" points="822,-274.5 822,-293.5 900,-293.5 900,-274.5 822,-274.5"/>
<text text-anchor="middle" x="861" y="-281.5" font-family="Helvetica,sans-Serif" font-size="10.00">dumpprivkey</text>
</a>
</g>
</g>
<!-- Node19&#45;&gt;Node20 -->
<g id="edge26" class="edge"><title>Node19&#45;&gt;Node20</title>
<path fill="none" stroke="midnightblue" d="M735.92,-266.453C765.125,-270.583 797.448,-275.154 821.78,-278.595"/>
<polygon fill="midnightblue" stroke="midnightblue" points="736.13,-262.948 725.738,-265.014 735.15,-269.879 736.13,-262.948"/>
</g>
<!-- Node21 -->
<g id="node21" class="node"><title>Node21</title>
<g id="a_node21"><a xlink:href="wallet__tests_8cpp.html#af0e3c9469f1d8f368d3d5f38e5580367" target="_top" xlink:title="importmulti">
<polygon fill="white" stroke="black" points="825,-236.5 825,-255.5 897,-255.5 897,-236.5 825,-236.5"/>
<text text-anchor="middle" x="861" y="-243.5" font-family="Helvetica,sans-Serif" font-size="10.00">importmulti</text>
</a>
</g>
</g>
<!-- Node19&#45;&gt;Node21 -->
<g id="edge29" class="edge"><title>Node19&#45;&gt;Node21</title>
<path fill="none" stroke="midnightblue" d="M735.928,-252.266C766.414,-250.727 800.295,-249.015 824.938,-247.771"/>
<polygon fill="midnightblue" stroke="midnightblue" points="735.549,-248.781 725.738,-252.781 735.902,-255.772 735.549,-248.781"/>
</g>
<!-- Node19&#45;&gt;Node23 -->
<g id="edge32" class="edge"><title>Node19&#45;&gt;Node23</title>
<path fill="none" stroke="midnightblue" d="M675.392,-273.72C713.764,-324.496 823.243,-469.362 852.652,-508.277"/>
<polygon fill="midnightblue" stroke="midnightblue" points="678.103,-271.503 669.282,-265.635 672.519,-275.724 678.103,-271.503"/>
</g>
<!-- Node20&#45;&gt;Node7 -->
<g id="edge27" class="edge"><title>Node20&#45;&gt;Node7</title>
<path fill="none" stroke="midnightblue" d="M910.229,-295.619C919.163,-297.941 928.39,-300.453 937,-303 966.535,-311.737 999.911,-323.281 1022.49,-331.344"/>
<polygon fill="midnightblue" stroke="midnightblue" points="910.869,-292.17 900.313,-293.086 909.136,-298.952 910.869,-292.17"/>
</g>
<!-- Node22 -->
<g id="node22" class="node"><title>Node22</title>
<g id="a_node22"><a xlink:href="wallet__tests_8cpp.html#acc117bb030f4fc677e16addf014e9908" target="_top" xlink:title="BOOST_FIXTURE_TEST_CASE">
<polygon fill="white" stroke="black" points="973,-236.5 973,-255.5 1127,-255.5 1127,-236.5 973,-236.5"/>
<text text-anchor="middle" x="1050" y="-243.5" font-family="Helvetica,sans-Serif" font-size="10.00">BOOST_FIXTURE_TEST_CASE</text>
</a>
</g>
</g>
<!-- Node21&#45;&gt;Node22 -->
<g id="edge30" class="edge"><title>Node21&#45;&gt;Node22</title>
<path fill="none" stroke="midnightblue" d="M907.381,-246C927.075,-246 950.683,-246 972.927,-246"/>
<polygon fill="midnightblue" stroke="midnightblue" points="907.173,-242.5 897.173,-246 907.173,-249.5 907.173,-242.5"/>
</g>
<!-- Node23&#45;&gt;Node7 -->
<g id="edge33" class="edge"><title>Node23&#45;&gt;Node7</title>
<path fill="none" stroke="midnightblue" d="M884.465,-502.462C899.79,-491.498 920.264,-476.125 937,-461 979.074,-422.976 1023.41,-371.556 1041.07,-350.543"/>
<polygon fill="midnightblue" stroke="midnightblue" points="882.249,-499.742 876.104,-508.372 886.29,-505.458 882.249,-499.742"/>
</g>
<!-- Node24&#45;&gt;Node7 -->
<g id="edge40" class="edge"><title>Node24&#45;&gt;Node7</title>
<path fill="none" stroke="midnightblue" d="M707.96,-451.733C721.238,-448.078 735.725,-443.982 749,-440 850.389,-409.583 969.415,-368.76 1021.86,-350.51"/>
<polygon fill="midnightblue" stroke="midnightblue" points="706.805,-448.42 698.082,-454.433 708.651,-455.173 706.805,-448.42"/>
</g>
<!-- Node25&#45;&gt;Node25 -->
<g id="edge48" class="edge"><title>Node25&#45;&gt;Node25</title>
<path fill="none" stroke="midnightblue" d="M432.875,-623.504C432.881,-629.336 444.756,-634 468.5,-634 502.27,-634 512.031,-624.565 497.785,-615.757"/>
<polygon fill="midnightblue" stroke="midnightblue" points="435.591,-625.712 439.215,-615.757 430.173,-621.279 435.591,-625.712"/>
</g>
<!-- Node26 -->
<g id="node26" class="node"><title>Node26</title>
<g id="a_node26"><a xlink:href="group__map_wallet.html#ga002c61a2b74f2c46063340c568e6cc1b" target="_top" xlink:title="CWallet::Unlock">
<polygon fill="white" stroke="black" points="616.5,-606.5 616.5,-625.5 705.5,-625.5 705.5,-606.5 616.5,-606.5"/>
<text text-anchor="middle" x="661" y="-613.5" font-family="Helvetica,sans-Serif" font-size="10.00">CWallet::Unlock</text>
</a>
</g>
</g>
<!-- Node25&#45;&gt;Node26 -->
<g id="edge44" class="edge"><title>Node25&#45;&gt;Node26</title>
<path fill="none" stroke="midnightblue" d="M529.686,-609.159C557.836,-610.637 590.734,-612.364 616.434,-613.713"/>
<polygon fill="midnightblue" stroke="midnightblue" points="529.721,-605.657 519.552,-608.627 529.354,-612.647 529.721,-605.657"/>
</g>
<!-- Node27 -->
<g id="node27" class="node"><title>Node27</title>
<g id="a_node27"><a xlink:href="group__map_wallet.html#ga4abcec3066e7c462f4564c159fc15031" target="_top" xlink:title="CWallet::ChangeWalletPassphrase">
<polygon fill="white" stroke="black" points="573,-568.5 573,-587.5 749,-587.5 749,-568.5 573,-568.5"/>
<text text-anchor="middle" x="661" y="-575.5" font-family="Helvetica,sans-Serif" font-size="10.00">CWallet::ChangeWalletPassphrase</text>
</a>
</g>
</g>
<!-- Node25&#45;&gt;Node27 -->
<g id="edge46" class="edge"><title>Node25&#45;&gt;Node27</title>
<path fill="none" stroke="midnightblue" d="M529.572,-597.171C550.456,-594.101 573.966,-590.645 595.215,-587.522"/>
<polygon fill="midnightblue" stroke="midnightblue" points="528.936,-593.726 519.552,-598.643 529.954,-600.652 528.936,-593.726"/>
</g>
<!-- Node28 -->
<g id="node28" class="node"><title>Node28</title>
<g id="a_node28"><a xlink:href="class_test_crypter.html#a93c08804ea02ced9541291535625590d" target="_top" xlink:title="TestCrypter::TestDecrypt">
<polygon fill="white" stroke="black" points="594.5,-644.5 594.5,-663.5 727.5,-663.5 727.5,-644.5 594.5,-644.5"/>
<text text-anchor="middle" x="661" y="-651.5" font-family="Helvetica,sans-Serif" font-size="10.00">TestCrypter::TestDecrypt</text>
</a>
</g>
</g>
<!-- Node25&#45;&gt;Node28 -->
<g id="edge49" class="edge"><title>Node25&#45;&gt;Node28</title>
<path fill="none" stroke="midnightblue" d="M511.707,-618.426C530.418,-623.779 552.739,-629.954 573,-635 586.202,-638.288 600.607,-641.561 613.83,-644.44"/>
<polygon fill="midnightblue" stroke="midnightblue" points="512.579,-615.035 502.001,-615.63 510.642,-621.761 512.579,-615.035"/>
</g>
<!-- Node26&#45;&gt;Node23 -->
<g id="edge45" class="edge"><title>Node26&#45;&gt;Node23</title>
<path fill="none" stroke="midnightblue" d="M715.417,-607.895C726.777,-605.197 738.503,-601.647 749,-597 789.878,-578.903 830.899,-544.468 849.57,-527.682"/>
<polygon fill="midnightblue" stroke="midnightblue" points="714.588,-604.493 705.569,-610.053 716.086,-611.331 714.588,-604.493"/>
</g>
<!-- Node27&#45;&gt;Node23 -->
<g id="edge47" class="edge"><title>Node27&#45;&gt;Node23</title>
<path fill="none" stroke="midnightblue" d="M707.96,-565.732C721.237,-562.077 735.725,-557.982 749,-554 777.331,-545.503 809.451,-534.988 831.822,-527.521"/>
<polygon fill="midnightblue" stroke="midnightblue" points="706.805,-562.419 698.082,-568.432 708.651,-569.171 706.805,-562.419"/>
</g>
<!-- Node29 -->
<g id="node29" class="node"><title>Node29</title>
<g id="a_node29"><a xlink:href="wallet__crypto__tests_8cpp.html#aee84e10c9cfc1d150e3e60eab1245ce4" target="_top" xlink:title="BOOST_AUTO_TEST_CASE">
<polygon fill="white" stroke="black" points="789.5,-644.5 789.5,-663.5 932.5,-663.5 932.5,-644.5 789.5,-644.5"/>
<text text-anchor="middle" x="861" y="-651.5" font-family="Helvetica,sans-Serif" font-size="10.00">BOOST_AUTO_TEST_CASE</text>
</a>
</g>
</g>
<!-- Node28&#45;&gt;Node29 -->
<g id="edge50" class="edge"><title>Node28&#45;&gt;Node29</title>
<path fill="none" stroke="midnightblue" d="M738.032,-654C754.922,-654 772.756,-654 789.417,-654"/>
<polygon fill="midnightblue" stroke="midnightblue" points="737.656,-650.5 727.656,-654 737.656,-657.5 737.656,-650.5"/>
</g>
</g>
</svg>
