<?xml version="1.0" encoding="UTF-8" standalone="no"?>
<!DOCTYPE svg PUBLIC "-//W3C//DTD SVG 1.1//EN"
 "http://www.w3.org/Graphics/SVG/1.1/DTD/svg11.dtd">
<!-- Generated by graphviz version 2.38.0 (20140413.2041)
 -->
<!-- Title: CChainState::DisconnectTip Pages: 1 -->
<svg width="713pt" height="926pt"
 viewBox="0.00 0.00 713.00 926.00" xmlns="http://www.w3.org/2000/svg" xmlns:xlink="http://www.w3.org/1999/xlink">
<g id="graph0" class="graph" transform="scale(1 1) rotate(0) translate(4 922)">
<title>CChainState::DisconnectTip</title>
<polygon fill="white" stroke="none" points="-4,4 -4,-922 709,-922 709,4 -4,4"/>
<!-- Node1 -->
<g id="node1" class="node"><title>Node1</title>
<polygon fill="#bfbfbf" stroke="black" points="0,-357.5 0,-376.5 149,-376.5 149,-357.5 0,-357.5"/>
<text text-anchor="middle" x="74.5" y="-364.5" font-family="Helvetica,sans-Serif" font-size="10.00">CChainState::DisconnectTip</text>
</g>
<!-- Node2 -->
<g id="node2" class="node"><title>Node2</title>
<g id="a_node2"><a xlink:href="class_c_chain.html#a7482d06d8e8143f46326cf9c12c06daf" target="_top" xlink:title="Returns the index entry for the tip of this chain, or nullptr if none. ">
<polygon fill="white" stroke="black" points="238.5,-673.5 238.5,-692.5 308.5,-692.5 308.5,-673.5 238.5,-673.5"/>
<text text-anchor="middle" x="273.5" y="-680.5" font-family="Helvetica,sans-Serif" font-size="10.00">CChain::Tip</text>
</a>
</g>
</g>
<!-- Node1&#45;&gt;Node2 -->
<g id="edge1" class="edge"><title>Node1&#45;&gt;Node2</title>
<path fill="none" stroke="midnightblue" d="M75.8793,-376.525C78.0682,-417.904 92.5191,-583.589 185,-664 196.819,-674.276 212.887,-679.407 228.03,-681.85"/>
<polygon fill="midnightblue" stroke="midnightblue" points="227.943,-685.367 238.302,-683.143 228.817,-678.422 227.943,-685.367"/>
</g>
<!-- Node3 -->
<g id="node3" class="node"><title>Node3</title>
<g id="a_node3"><a xlink:href="validation_8cpp.html#a578c1df234b05798180f0235d469a5ba" target="_top" xlink:title="Functions for disk access for blocks. ">
<polygon fill="white" stroke="black" points="218.5,-635.5 218.5,-654.5 328.5,-654.5 328.5,-635.5 218.5,-635.5"/>
<text text-anchor="middle" x="273.5" y="-642.5" font-family="Helvetica,sans-Serif" font-size="10.00">ReadBlockFromDisk</text>
</a>
</g>
</g>
<!-- Node1&#45;&gt;Node3 -->
<g id="edge2" class="edge"><title>Node1&#45;&gt;Node3</title>
<path fill="none" stroke="midnightblue" d="M76.6577,-376.544C81.71,-413.918 105.279,-551.679 185,-621 191.896,-626.997 200.16,-631.508 208.819,-634.899"/>
<polygon fill="midnightblue" stroke="midnightblue" points="207.728,-638.225 218.322,-638.156 209.997,-631.603 207.728,-638.225"/>
</g>
<!-- Node7 -->
<g id="node7" class="node"><title>Node7</title>
<g id="a_node7"><a xlink:href="system_8h.html#a0605c886f88f190fa6a51ae07ca7558a" target="_top" xlink:title="error">
<polygon fill="white" stroke="black" points="448.5,-556.5 448.5,-575.5 488.5,-575.5 488.5,-556.5 448.5,-556.5"/>
<text text-anchor="middle" x="468.5" y="-563.5" font-family="Helvetica,sans-Serif" font-size="10.00">error</text>
</a>
</g>
</g>
<!-- Node1&#45;&gt;Node7 -->
<g id="edge37" class="edge"><title>Node1&#45;&gt;Node7</title>
<path fill="none" stroke="midnightblue" d="M76.7789,-376.909C82.0482,-413.128 105.684,-538.781 185,-588 251.843,-629.479 283.749,-596.072 362,-588 388.111,-585.307 417.289,-578.958 438.329,-573.769"/>
<polygon fill="midnightblue" stroke="midnightblue" points="439.407,-577.107 448.243,-571.262 437.69,-570.321 439.407,-577.107"/>
</g>
<!-- Node30 -->
<g id="node30" class="node"><title>Node30</title>
<g id="a_node30"><a xlink:href="class_c_chain_params.html#a34b124f87e3b7864fec208ba8879e9e9" target="_top" xlink:title="CChainParams::GetConsensus">
<polygon fill="white" stroke="black" points="192.5,-559.5 192.5,-578.5 354.5,-578.5 354.5,-559.5 192.5,-559.5"/>
<text text-anchor="middle" x="273.5" y="-566.5" font-family="Helvetica,sans-Serif" font-size="10.00">CChainParams::GetConsensus</text>
</a>
</g>
</g>
<!-- Node1&#45;&gt;Node30 -->
<g id="edge31" class="edge"><title>Node1&#45;&gt;Node30</title>
<path fill="none" stroke="midnightblue" d="M78.3083,-376.862C87.6758,-407.862 120.941,-504.005 185,-550 187.569,-551.844 190.282,-553.516 193.1,-555.03"/>
<polygon fill="midnightblue" stroke="midnightblue" points="191.866,-558.316 202.411,-559.349 194.812,-551.966 191.866,-558.316"/>
</g>
<!-- Node31 -->
<g id="node31" class="node"><title>Node31</title>
<g id="a_node31"><a xlink:href="time_8cpp.html#a0c5a06b50cd805b1923552114494c029" target="_top" xlink:title="GetTimeMicros">
<polygon fill="white" stroke="black" points="229.5,-521.5 229.5,-540.5 317.5,-540.5 317.5,-521.5 229.5,-521.5"/>
<text text-anchor="middle" x="273.5" y="-528.5" font-family="Helvetica,sans-Serif" font-size="10.00">GetTimeMicros</text>
</a>
</g>
</g>
<!-- Node1&#45;&gt;Node31 -->
<g id="edge32" class="edge"><title>Node1&#45;&gt;Node31</title>
<path fill="none" stroke="midnightblue" d="M79.775,-376.653C91.9831,-403.022 129.721,-476.653 185,-512 195.232,-518.542 207.367,-522.861 219.292,-525.704"/>
<polygon fill="midnightblue" stroke="midnightblue" points="218.711,-529.158 229.213,-527.762 220.132,-522.304 218.711,-529.158"/>
</g>
<!-- Node32 -->
<g id="node32" class="node"><title>Node32</title>
<g id="a_node32"><a xlink:href="class_c_coins_view_cache.html#a943a3d13f2ba6936002d7a87b969edba" target="_top" xlink:title="Retrieve the block hash whose state this CCoinsView currently represents. ">
<polygon fill="white" stroke="black" points="200.5,-472 200.5,-502 346.5,-502 346.5,-472 200.5,-472"/>
<text text-anchor="start" x="208.5" y="-490" font-family="Helvetica,sans-Serif" font-size="10.00">CCoinsViewCache::GetBest</text>
<text text-anchor="middle" x="273.5" y="-479" font-family="Helvetica,sans-Serif" font-size="10.00">Block</text>
</a>
</g>
</g>
<!-- Node1&#45;&gt;Node32 -->
<g id="edge33" class="edge"><title>Node1&#45;&gt;Node32</title>
<path fill="none" stroke="midnightblue" d="M83.8384,-376.629C100.902,-395.739 141.848,-438.624 185,-462 189.207,-464.279 193.642,-466.368 198.194,-468.281"/>
<polygon fill="midnightblue" stroke="midnightblue" points="197.075,-471.601 207.664,-471.964 199.612,-465.077 197.075,-471.601"/>
</g>
<!-- Node35 -->
<g id="node35" class="node"><title>Node35</title>
<g id="a_node35"><a xlink:href="class_c_block_index.html#ab843ef9b8b0a0193ec3a5c24738e484f" target="_top" xlink:title="CBlockIndex::GetBlockHash">
<polygon fill="white" stroke="black" points="199.5,-433.5 199.5,-452.5 347.5,-452.5 347.5,-433.5 199.5,-433.5"/>
<text text-anchor="middle" x="273.5" y="-440.5" font-family="Helvetica,sans-Serif" font-size="10.00">CBlockIndex::GetBlockHash</text>
</a>
</g>
</g>
<!-- Node1&#45;&gt;Node35 -->
<g id="edge36" class="edge"><title>Node1&#45;&gt;Node35</title>
<path fill="none" stroke="midnightblue" d="M90.8565,-376.679C111.51,-389.295 149.728,-411.249 185,-424 192.298,-426.638 200.077,-428.97 207.872,-431.015"/>
<polygon fill="midnightblue" stroke="midnightblue" points="207.172,-434.447 217.72,-433.452 208.854,-427.652 207.172,-434.447"/>
</g>
<!-- Node36 -->
<g id="node36" class="node"><title>Node36</title>
<g id="a_node36"><a xlink:href="classbase__blob.html#a1a26b5da921f48b09b228d1bfda05088" target="_top" xlink:title="base_blob::ToString">
<polygon fill="white" stroke="black" points="218.5,-395.5 218.5,-414.5 328.5,-414.5 328.5,-395.5 218.5,-395.5"/>
<text text-anchor="middle" x="273.5" y="-402.5" font-family="Helvetica,sans-Serif" font-size="10.00">base_blob::ToString</text>
</a>
</g>
</g>
<!-- Node1&#45;&gt;Node36 -->
<g id="edge38" class="edge"><title>Node1&#45;&gt;Node36</title>
<path fill="none" stroke="midnightblue" d="M124.957,-376.54C151.654,-381.69 184.804,-388.084 212.915,-393.506"/>
<polygon fill="midnightblue" stroke="midnightblue" points="212.541,-396.999 223.023,-395.456 213.866,-390.125 212.541,-396.999"/>
</g>
<!-- Node40 -->
<g id="node40" class="node"><title>Node40</title>
<g id="a_node40"><a xlink:href="class_c_coins_view_cache.html#ac9888d4feaa46666d03871cd7cd1c01d" target="_top" xlink:title="Push the modifications applied to this cache to its base. ">
<polygon fill="white" stroke="black" points="207.5,-357.5 207.5,-376.5 339.5,-376.5 339.5,-357.5 207.5,-357.5"/>
<text text-anchor="middle" x="273.5" y="-364.5" font-family="Helvetica,sans-Serif" font-size="10.00">CCoinsViewCache::Flush</text>
</a>
</g>
</g>
<!-- Node1&#45;&gt;Node40 -->
<g id="edge42" class="edge"><title>Node1&#45;&gt;Node40</title>
<path fill="none" stroke="midnightblue" d="M149.136,-367C164.824,-367 181.413,-367 197.165,-367"/>
<polygon fill="midnightblue" stroke="midnightblue" points="197.377,-370.5 207.377,-367 197.377,-363.5 197.377,-370.5"/>
</g>
<!-- Node42 -->
<g id="node42" class="node"><title>Node42</title>
<g id="a_node42"><a xlink:href="validation_8cpp.html#a0d01c135cc5a05475e3dc3910c9888da" target="_top" xlink:title="Flush all state, indexes and buffers to disk. ">
<polygon fill="white" stroke="red" points="224.5,-301.5 224.5,-320.5 322.5,-320.5 322.5,-301.5 224.5,-301.5"/>
<text text-anchor="middle" x="273.5" y="-308.5" font-family="Helvetica,sans-Serif" font-size="10.00">FlushStateToDisk</text>
</a>
</g>
</g>
<!-- Node1&#45;&gt;Node42 -->
<g id="edge44" class="edge"><title>Node1&#45;&gt;Node42</title>
<path fill="none" stroke="midnightblue" d="M109.366,-357.373C142.549,-347.94 193.255,-333.526 229.319,-323.275"/>
<polygon fill="midnightblue" stroke="midnightblue" points="230.415,-326.602 239.076,-320.501 228.5,-319.869 230.415,-326.602"/>
</g>
<!-- Node44 -->
<g id="node44" class="node"><title>Node44</title>
<g id="a_node44"><a xlink:href="struct_disconnected_block_transactions.html#ab4b218d76bfc674cd32fe7d3319fbf66" target="_top" xlink:title="DisconnectedBlockTransactions\l::addTransaction">
<polygon fill="white" stroke="black" points="190,-252 190,-282 357,-282 357,-252 190,-252"/>
<text text-anchor="start" x="198" y="-270" font-family="Helvetica,sans-Serif" font-size="10.00">DisconnectedBlockTransactions</text>
<text text-anchor="middle" x="273.5" y="-259" font-family="Helvetica,sans-Serif" font-size="10.00">::addTransaction</text>
</a>
</g>
</g>
<!-- Node1&#45;&gt;Node44 -->
<g id="edge47" class="edge"><title>Node1&#45;&gt;Node44</title>
<path fill="none" stroke="midnightblue" d="M86.884,-357.333C105.984,-341.563 146.213,-310.233 185,-292 190.004,-289.648 195.276,-287.471 200.648,-285.467"/>
<polygon fill="midnightblue" stroke="midnightblue" points="202.116,-288.66 210.39,-282.043 199.795,-282.056 202.116,-288.66"/>
</g>
<!-- Node45 -->
<g id="node45" class="node"><title>Node45</title>
<g id="a_node45"><a xlink:href="struct_disconnected_block_transactions.html#a14b18a1213742bb9994abdd1476a8901" target="_top" xlink:title="DisconnectedBlockTransactions\l::DynamicMemoryUsage">
<polygon fill="white" stroke="black" points="190,-203 190,-233 357,-233 357,-203 190,-203"/>
<text text-anchor="start" x="198" y="-221" font-family="Helvetica,sans-Serif" font-size="10.00">DisconnectedBlockTransactions</text>
<text text-anchor="middle" x="273.5" y="-210" font-family="Helvetica,sans-Serif" font-size="10.00">::DynamicMemoryUsage</text>
</a>
</g>
</g>
<!-- Node1&#45;&gt;Node45 -->
<g id="edge48" class="edge"><title>Node1&#45;&gt;Node45</title>
<path fill="none" stroke="midnightblue" d="M81.2965,-357.256C95.73,-333.853 135.692,-274.11 185,-243 188.361,-240.879 191.907,-238.934 195.568,-237.15"/>
<polygon fill="midnightblue" stroke="midnightblue" points="197.136,-240.284 204.868,-233.04 194.307,-233.881 197.136,-240.284"/>
</g>
<!-- Node46 -->
<g id="node46" class="node"><title>Node46</title>
<g id="a_node46"><a xlink:href="class_c_tx_mem_pool.html#a1bdc49203ca7654d8508c356bcbca47e" target="_top" xlink:title="CTxMemPool::removeRecursive">
<polygon fill="white" stroke="red" points="190.5,-164.5 190.5,-183.5 356.5,-183.5 356.5,-164.5 190.5,-164.5"/>
<text text-anchor="middle" x="273.5" y="-171.5" font-family="Helvetica,sans-Serif" font-size="10.00">CTxMemPool::removeRecursive</text>
</a>
</g>
</g>
<!-- Node1&#45;&gt;Node46 -->
<g id="edge49" class="edge"><title>Node1&#45;&gt;Node46</title>
<path fill="none" stroke="midnightblue" d="M78.64,-357.281C88.7574,-327.6 123.477,-237.515 185,-194 188.435,-191.57 192.119,-189.431 195.961,-187.547"/>
<polygon fill="midnightblue" stroke="midnightblue" points="197.357,-190.757 205.169,-183.6 194.599,-184.323 197.357,-190.757"/>
</g>
<!-- Node47 -->
<g id="node47" class="node"><title>Node47</title>
<g id="a_node47"><a xlink:href="struct_disconnected_block_transactions.html#a390636fac0e48e88530aa83f664857f7" target="_top" xlink:title="DisconnectedBlockTransactions\l::removeEntry">
<polygon fill="white" stroke="black" points="190,-115 190,-145 357,-145 357,-115 190,-115"/>
<text text-anchor="start" x="198" y="-133" font-family="Helvetica,sans-Serif" font-size="10.00">DisconnectedBlockTransactions</text>
<text text-anchor="middle" x="273.5" y="-122" font-family="Helvetica,sans-Serif" font-size="10.00">::removeEntry</text>
</a>
</g>
</g>
<!-- Node1&#45;&gt;Node47 -->
<g id="edge50" class="edge"><title>Node1&#45;&gt;Node47</title>
<path fill="none" stroke="midnightblue" d="M77.6142,-357.242C85.4117,-323.642 115.772,-211.691 185,-155 187.086,-153.292 189.282,-151.701 191.565,-150.218"/>
<polygon fill="midnightblue" stroke="midnightblue" points="193.77,-152.992 200.749,-145.021 190.322,-146.9 193.77,-152.992"/>
</g>
<!-- Node48 -->
<g id="node48" class="node"><title>Node48</title>
<g id="a_node48"><a xlink:href="class_c_chain.html#aeb563751f7362d4308c7c2cb35b834a5" target="_top" xlink:title="Set/initialize a chain with a given tip. ">
<polygon fill="white" stroke="black" points="230.5,-76.5 230.5,-95.5 316.5,-95.5 316.5,-76.5 230.5,-76.5"/>
<text text-anchor="middle" x="273.5" y="-83.5" font-family="Helvetica,sans-Serif" font-size="10.00">CChain::SetTip</text>
</a>
</g>
</g>
<!-- Node1&#45;&gt;Node48 -->
<g id="edge51" class="edge"><title>Node1&#45;&gt;Node48</title>
<path fill="none" stroke="midnightblue" d="M76.414,-357.296C80.5958,-318.666 101.466,-174.56 185,-105 194.897,-96.7585 207.553,-91.8615 220.145,-89.0073"/>
<polygon fill="midnightblue" stroke="midnightblue" points="220.99,-92.41 230.177,-87.1314 219.704,-85.5293 220.99,-92.41"/>
</g>
<!-- Node49 -->
<g id="node49" class="node"><title>Node49</title>
<g id="a_node49"><a xlink:href="validationinterface_8cpp.html#a0aaad62c8654cb1868295e0682b05866" target="_top" xlink:title="GetMainSignals">
<polygon fill="white" stroke="black" points="228,-38.5 228,-57.5 319,-57.5 319,-38.5 228,-38.5"/>
<text text-anchor="middle" x="273.5" y="-45.5" font-family="Helvetica,sans-Serif" font-size="10.00">GetMainSignals</text>
</a>
</g>
</g>
<!-- Node1&#45;&gt;Node49 -->
<g id="edge52" class="edge"><title>Node1&#45;&gt;Node49</title>
<path fill="none" stroke="midnightblue" d="M75.8449,-357.382C77.8901,-315.596 91.8282,-148.278 185,-67 194.152,-59.0166 205.867,-54.1363 217.728,-51.2087"/>
<polygon fill="midnightblue" stroke="midnightblue" points="218.573,-54.6087 227.673,-49.1836 217.176,-47.7494 218.573,-54.6087"/>
</g>
<!-- Node50 -->
<g id="node50" class="node"><title>Node50</title>
<g id="a_node50"><a xlink:href="class_c_main_signals.html#ad2cc3747a43f1748d50936266171e3fb" target="_top" xlink:title="CMainSignals::BlockDisconnected">
<polygon fill="white" stroke="black" points="185,-0.5 185,-19.5 362,-19.5 362,-0.5 185,-0.5"/>
<text text-anchor="middle" x="273.5" y="-7.5" font-family="Helvetica,sans-Serif" font-size="10.00">CMainSignals::BlockDisconnected</text>
</a>
</g>
</g>
<!-- Node1&#45;&gt;Node50 -->
<g id="edge53" class="edge"><title>Node1&#45;&gt;Node50</title>
<path fill="none" stroke="midnightblue" d="M75.4017,-357.429C75.494,-312.654 82.1052,-122.137 185,-29 186.556,-27.5917 188.191,-26.2791 189.893,-25.056"/>
<polygon fill="midnightblue" stroke="midnightblue" points="192.12,-27.8017 198.897,-19.6579 188.52,-21.798 192.12,-27.8017"/>
</g>
<!-- Node4 -->
<g id="node4" class="node"><title>Node4</title>
<g id="a_node4"><a xlink:href="class_c_block.html#a0410d7ba8d60679c4cf364b82ffffea5" target="_top" xlink:title="CBlock::SetNull">
<polygon fill="white" stroke="red" points="424,-784.5 424,-803.5 513,-803.5 513,-784.5 424,-784.5"/>
<text text-anchor="middle" x="468.5" y="-791.5" font-family="Helvetica,sans-Serif" font-size="10.00">CBlock::SetNull</text>
</a>
</g>
</g>
<!-- Node3&#45;&gt;Node4 -->
<g id="edge3" class="edge"><title>Node3&#45;&gt;Node4</title>
<path fill="none" stroke="midnightblue" d="M328.63,-647.762C340.776,-650.672 352.779,-655.656 362,-664 400.456,-698.798 360.48,-739.195 398,-775 402.632,-779.42 408.191,-782.833 414.12,-785.463"/>
<polygon fill="midnightblue" stroke="midnightblue" points="413.069,-788.806 423.662,-788.986 415.493,-782.239 413.069,-788.806"/>
</g>
<!-- Node5 -->
<g id="node5" class="node"><title>Node5</title>
<g id="a_node5"><a xlink:href="validation_8cpp.html#a0d81388930a4ccb6a69b9abdd1ef5097" target="_top" xlink:title="Open a block file (blk?????.dat) ">
<polygon fill="white" stroke="black" points="427,-746.5 427,-765.5 510,-765.5 510,-746.5 427,-746.5"/>
<text text-anchor="middle" x="468.5" y="-753.5" font-family="Helvetica,sans-Serif" font-size="10.00">OpenBlockFile</text>
</a>
</g>
</g>
<!-- Node3&#45;&gt;Node5 -->
<g id="edge4" class="edge"><title>Node3&#45;&gt;Node5</title>
<path fill="none" stroke="midnightblue" d="M328.723,-648.956C340.59,-651.855 352.445,-656.535 362,-664 390.506,-686.272 370.094,-713.98 398,-737 403.639,-741.652 410.325,-745.17 417.286,-747.829"/>
<polygon fill="midnightblue" stroke="midnightblue" points="416.284,-751.184 426.877,-750.949 418.45,-744.527 416.284,-751.184"/>
</g>
<!-- Node6 -->
<g id="node6" class="node"><title>Node6</title>
<g id="a_node6"><a xlink:href="class_c_auto_file.html#a78d666b1ef5dff5fd3f4ee33692b6d1d" target="_top" xlink:title="Return true if the wrapped FILE* is nullptr, false otherwise. ">
<polygon fill="white" stroke="black" points="422.5,-708.5 422.5,-727.5 514.5,-727.5 514.5,-708.5 422.5,-708.5"/>
<text text-anchor="middle" x="468.5" y="-715.5" font-family="Helvetica,sans-Serif" font-size="10.00">CAutoFile::IsNull</text>
</a>
</g>
</g>
<!-- Node3&#45;&gt;Node6 -->
<g id="edge5" class="edge"><title>Node3&#45;&gt;Node6</title>
<path fill="none" stroke="midnightblue" d="M328.924,-651.907C340.277,-654.678 351.864,-658.56 362,-664 381.663,-674.553 378.624,-687.93 398,-699 402.684,-701.676 407.762,-703.99 412.968,-705.987"/>
<polygon fill="midnightblue" stroke="midnightblue" points="411.827,-709.296 422.421,-709.251 414.111,-702.679 411.827,-709.296"/>
</g>
<!-- Node3&#45;&gt;Node7 -->
<g id="edge6" class="edge"><title>Node3&#45;&gt;Node7</title>
<path fill="none" stroke="midnightblue" d="M326.716,-635.415C338.79,-631.933 351.241,-627.254 362,-621 381.562,-609.629 378.433,-596.363 398,-585 410.376,-577.813 425.572,-573.255 438.595,-570.411"/>
<polygon fill="midnightblue" stroke="midnightblue" points="439.335,-573.833 448.478,-568.481 437.993,-566.963 439.335,-573.833"/>
</g>
<!-- Node27 -->
<g id="node27" class="node"><title>Node27</title>
<g id="a_node27"><a xlink:href="struct_c_disk_block_pos.html#ab187c46272360bde44f6ae611373a984" target="_top" xlink:title="CDiskBlockPos::ToString">
<polygon fill="white" stroke="black" points="403,-670.5 403,-689.5 534,-689.5 534,-670.5 403,-670.5"/>
<text text-anchor="middle" x="468.5" y="-677.5" font-family="Helvetica,sans-Serif" font-size="10.00">CDiskBlockPos::ToString</text>
</a>
</g>
</g>
<!-- Node3&#45;&gt;Node27 -->
<g id="edge28" class="edge"><title>Node3&#45;&gt;Node27</title>
<path fill="none" stroke="midnightblue" d="M326.983,-654.518C351.126,-658.896 379.947,-664.123 405.185,-668.699"/>
<polygon fill="midnightblue" stroke="midnightblue" points="404.563,-672.144 415.027,-670.484 405.812,-665.256 404.563,-672.144"/>
</g>
<!-- Node28 -->
<g id="node28" class="node"><title>Node28</title>
<g id="a_node28"><a xlink:href="pow_8cpp.html#a4e1129d7ab72643eb7e830f7f72953d7" target="_top" xlink:title="Check whether a block hash satisfies the proof&#45;of&#45;work requirement specified by nBits. ">
<polygon fill="white" stroke="red" points="416.5,-632.5 416.5,-651.5 520.5,-651.5 520.5,-632.5 416.5,-632.5"/>
<text text-anchor="middle" x="468.5" y="-639.5" font-family="Helvetica,sans-Serif" font-size="10.00">CheckProofOfWork</text>
</a>
</g>
</g>
<!-- Node3&#45;&gt;Node28 -->
<g id="edge29" class="edge"><title>Node3&#45;&gt;Node28</title>
<path fill="none" stroke="midnightblue" d="M328.518,-644.16C352.727,-643.784 381.393,-643.338 406.383,-642.95"/>
<polygon fill="midnightblue" stroke="midnightblue" points="406.538,-646.448 416.482,-642.793 406.429,-639.449 406.538,-646.448"/>
</g>
<!-- Node29 -->
<g id="node29" class="node"><title>Node29</title>
<g id="a_node29"><a xlink:href="class_c_block_header.html#ae1165e54882d364b030fb33673d64dbd" target="_top" xlink:title="CBlockHeader::GetHash">
<polygon fill="white" stroke="red" points="402.5,-594.5 402.5,-613.5 534.5,-613.5 534.5,-594.5 402.5,-594.5"/>
<text text-anchor="middle" x="468.5" y="-601.5" font-family="Helvetica,sans-Serif" font-size="10.00">CBlockHeader::GetHash</text>
</a>
</g>
</g>
<!-- Node3&#45;&gt;Node29 -->
<g id="edge30" class="edge"><title>Node3&#45;&gt;Node29</title>
<path fill="none" stroke="midnightblue" d="M319.263,-635.491C347.055,-629.587 382.974,-621.956 412.495,-615.685"/>
<polygon fill="midnightblue" stroke="midnightblue" points="413.591,-619.03 422.646,-613.529 412.137,-612.183 413.591,-619.03"/>
</g>
<!-- Node8 -->
<g id="node8" class="node"><title>Node8</title>
<g id="a_node8"><a xlink:href="namespacetinyformat.html#ad784060b98bfd4f1b3089fbb7686a676" target="_top" xlink:title="Format list of arguments to the stream according to given format string. ">
<polygon fill="white" stroke="red" points="588,-898.5 588,-917.5 692,-917.5 692,-898.5 588,-898.5"/>
<text text-anchor="middle" x="640" y="-905.5" font-family="Helvetica,sans-Serif" font-size="10.00">tinyformat::format</text>
</a>
</g>
</g>
<!-- Node7&#45;&gt;Node8 -->
<g id="edge7" class="edge"><title>Node7&#45;&gt;Node8</title>
<path fill="none" stroke="midnightblue" d="M488.764,-565.743C504.71,-566.649 526.675,-570.687 539,-585 627.779,-688.099 487.347,-784.943 575,-889 576.316,-890.562 577.754,-892 579.292,-893.322"/>
<polygon fill="midnightblue" stroke="midnightblue" points="577.455,-896.305 587.697,-899.017 581.382,-890.51 577.455,-896.305"/>
</g>
<!-- Node9 -->
<g id="node9" class="node"><title>Node9</title>
<g id="a_node9"><a xlink:href="system_8h.html#aaada8c5faa502eb0c33fc01294955db8" target="_top" xlink:title="PrintExceptionContinue">
<polygon fill="white" stroke="black" points="576,-860.5 576,-879.5 704,-879.5 704,-860.5 576,-860.5"/>
<text text-anchor="middle" x="640" y="-867.5" font-family="Helvetica,sans-Serif" font-size="10.00">PrintExceptionContinue</text>
</a>
</g>
</g>
<!-- Node7&#45;&gt;Node9 -->
<g id="edge8" class="edge"><title>Node7&#45;&gt;Node9</title>
<path fill="none" stroke="midnightblue" d="M488.704,-565.796C504.612,-566.733 526.556,-570.79 539,-585 617.595,-674.751 497.384,-760.4 575,-851 576.037,-852.21 577.147,-853.345 578.319,-854.41"/>
<polygon fill="midnightblue" stroke="midnightblue" points="576.667,-857.528 586.848,-860.459 580.716,-851.819 576.667,-857.528"/>
</g>
<!-- Node10 -->
<g id="node10" class="node"><title>Node10</title>
<g id="a_node10"><a xlink:href="system_8h.html#aedd7d9ab25c6cfb8c81a4aaa917b104e" target="_top" xlink:title="FileCommit">
<polygon fill="white" stroke="black" points="605,-822.5 605,-841.5 675,-841.5 675,-822.5 605,-822.5"/>
<text text-anchor="middle" x="640" y="-829.5" font-family="Helvetica,sans-Serif" font-size="10.00">FileCommit</text>
</a>
</g>
</g>
<!-- Node7&#45;&gt;Node10 -->
<g id="edge9" class="edge"><title>Node7&#45;&gt;Node10</title>
<path fill="none" stroke="midnightblue" d="M488.626,-565.865C504.484,-566.846 526.4,-570.928 539,-585 607.434,-661.428 507.4,-735.833 575,-813 580.316,-819.069 587.473,-823.242 595.077,-826.102"/>
<polygon fill="midnightblue" stroke="midnightblue" points="594.257,-829.51 604.842,-829.066 596.29,-822.812 594.257,-829.51"/>
</g>
<!-- Node11 -->
<g id="node11" class="node"><title>Node11</title>
<g id="a_node11"><a xlink:href="system_8h.html#acb8d6b822bc1bfa609bf43bbac1a0d44" target="_top" xlink:title="TruncateFile">
<polygon fill="white" stroke="black" points="604,-784.5 604,-803.5 676,-803.5 676,-784.5 604,-784.5"/>
<text text-anchor="middle" x="640" y="-791.5" font-family="Helvetica,sans-Serif" font-size="10.00">TruncateFile</text>
</a>
</g>
</g>
<!-- Node7&#45;&gt;Node11 -->
<g id="edge10" class="edge"><title>Node7&#45;&gt;Node11</title>
<path fill="none" stroke="midnightblue" d="M488.518,-565.964C504.308,-567.006 526.186,-571.123 539,-585 597.307,-648.144 517.382,-711.226 575,-775 580.128,-780.676 586.866,-784.688 594.043,-787.517"/>
<polygon fill="midnightblue" stroke="midnightblue" points="593.401,-790.986 603.991,-790.687 595.526,-784.316 593.401,-790.986"/>
</g>
<!-- Node12 -->
<g id="node12" class="node"><title>Node12</title>
<g id="a_node12"><a xlink:href="system_8h.html#a756a5c49a4bb607d16d9842f8f3ede4f" target="_top" xlink:title="this function tries to raise the file descriptor limit to the requested number. ">
<polygon fill="white" stroke="black" points="575,-746.5 575,-765.5 705,-765.5 705,-746.5 575,-746.5"/>
<text text-anchor="middle" x="640" y="-753.5" font-family="Helvetica,sans-Serif" font-size="10.00">RaiseFileDescriptorLimit</text>
</a>
</g>
</g>
<!-- Node7&#45;&gt;Node12 -->
<g id="edge11" class="edge"><title>Node7&#45;&gt;Node12</title>
<path fill="none" stroke="midnightblue" d="M488.673,-566.135C504.342,-567.303 525.962,-571.507 539,-585 587.241,-634.925 527.304,-686.554 575,-737 576.374,-738.453 577.853,-739.796 579.417,-741.038"/>
<polygon fill="midnightblue" stroke="midnightblue" points="577.543,-743.994 587.851,-746.441 581.318,-738.1 577.543,-743.994"/>
</g>
<!-- Node13 -->
<g id="node13" class="node"><title>Node13</title>
<g id="a_node13"><a xlink:href="system_8h.html#a91c763bffc49cf7ed8d45cc44870e55c" target="_top" xlink:title="this function tries to make a particular range of a file allocated (corresponding to disk space) it i...">
<polygon fill="white" stroke="black" points="590,-708.5 590,-727.5 690,-727.5 690,-708.5 590,-708.5"/>
<text text-anchor="middle" x="640" y="-715.5" font-family="Helvetica,sans-Serif" font-size="10.00">AllocateFileRange</text>
</a>
</g>
</g>
<!-- Node7&#45;&gt;Node13 -->
<g id="edge12" class="edge"><title>Node7&#45;&gt;Node13</title>
<path fill="none" stroke="midnightblue" d="M488.734,-566.412C504.226,-567.764 525.566,-572.081 539,-585 577.296,-621.831 537.106,-661.756 575,-699 576.844,-700.813 578.853,-702.454 580.984,-703.939"/>
<polygon fill="midnightblue" stroke="midnightblue" points="579.3,-707.008 589.718,-708.933 582.774,-700.931 579.3,-707.008"/>
</g>
<!-- Node14 -->
<g id="node14" class="node"><title>Node14</title>
<g id="a_node14"><a xlink:href="system_8h.html#a579657da2b55b131ecd453bf1b0d2314" target="_top" xlink:title="RenameOver">
<polygon fill="white" stroke="black" points="601,-670.5 601,-689.5 679,-689.5 679,-670.5 601,-670.5"/>
<text text-anchor="middle" x="640" y="-677.5" font-family="Helvetica,sans-Serif" font-size="10.00">RenameOver</text>
</a>
</g>
</g>
<!-- Node7&#45;&gt;Node14 -->
<g id="edge13" class="edge"><title>Node7&#45;&gt;Node14</title>
<path fill="none" stroke="midnightblue" d="M488.597,-566.942C503.8,-568.615 524.812,-573.107 539,-585 567.643,-609.011 546.619,-636.68 575,-661 579.794,-665.108 585.445,-668.328 591.372,-670.852"/>
<polygon fill="midnightblue" stroke="midnightblue" points="590.234,-674.162 600.828,-674.273 592.615,-667.58 590.234,-674.162"/>
</g>
<!-- Node15 -->
<g id="node15" class="node"><title>Node15</title>
<g id="a_node15"><a xlink:href="system_8h.html#a9f16e26cc90b17ed75fcbbe7ce75e7c3" target="_top" xlink:title="LockDirectory">
<polygon fill="white" stroke="red" points="599,-632.5 599,-651.5 681,-651.5 681,-632.5 599,-632.5"/>
<text text-anchor="middle" x="640" y="-639.5" font-family="Helvetica,sans-Serif" font-size="10.00">LockDirectory</text>
</a>
</g>
</g>
<!-- Node7&#45;&gt;Node15 -->
<g id="edge14" class="edge"><title>Node7&#45;&gt;Node15</title>
<path fill="none" stroke="midnightblue" d="M488.592,-560.998C503.21,-561.823 523.44,-566.68 539,-576 558.958,-587.954 555.173,-601.83 575,-614 586.576,-621.105 600.965,-625.687 613.166,-629.43"/>
<polygon fill="midnightblue" stroke="midnightblue" points="612.202,-632.795 622.79,-632.413 614.275,-626.109 612.202,-632.795"/>
</g>
<!-- Node16 -->
<g id="node16" class="node"><title>Node16</title>
<g id="a_node16"><a xlink:href="system_8h.html#a3e9e4ea96c8d168ad5b7d1428780418b" target="_top" xlink:title="UnlockDirectory">
<polygon fill="white" stroke="black" points="594,-594.5 594,-613.5 686,-613.5 686,-594.5 594,-594.5"/>
<text text-anchor="middle" x="640" y="-601.5" font-family="Helvetica,sans-Serif" font-size="10.00">UnlockDirectory</text>
</a>
</g>
</g>
<!-- Node7&#45;&gt;Node16 -->
<g id="edge16" class="edge"><title>Node7&#45;&gt;Node16</title>
<path fill="none" stroke="midnightblue" d="M488.614,-570.285C512.153,-575.562 553.097,-584.742 586.325,-592.191"/>
<polygon fill="midnightblue" stroke="midnightblue" points="585.838,-595.668 596.361,-594.441 587.369,-588.838 585.838,-595.668"/>
</g>
<!-- Node17 -->
<g id="node17" class="node"><title>Node17</title>
<g id="a_node17"><a xlink:href="system_8h.html#a4d79c90e36d7957a773336ec3d55a842" target="_top" xlink:title="DirIsWritable">
<polygon fill="white" stroke="red" points="602.5,-556.5 602.5,-575.5 677.5,-575.5 677.5,-556.5 602.5,-556.5"/>
<text text-anchor="middle" x="640" y="-563.5" font-family="Helvetica,sans-Serif" font-size="10.00">DirIsWritable</text>
</a>
</g>
</g>
<!-- Node7&#45;&gt;Node17 -->
<g id="edge17" class="edge"><title>Node7&#45;&gt;Node17</title>
<path fill="none" stroke="midnightblue" d="M488.614,-566C513.565,-566 558.073,-566 592.217,-566"/>
<polygon fill="midnightblue" stroke="midnightblue" points="592.448,-569.5 602.448,-566 592.448,-562.5 592.448,-569.5"/>
</g>
<!-- Node18 -->
<g id="node18" class="node"><title>Node18</title>
<g id="a_node18"><a xlink:href="system_8h.html#a851fa89def443bac9d04ddb908cb91bb" target="_top" xlink:title="Release all directory locks. ">
<polygon fill="white" stroke="black" points="578,-518.5 578,-537.5 702,-537.5 702,-518.5 578,-518.5"/>
<text text-anchor="middle" x="640" y="-525.5" font-family="Helvetica,sans-Serif" font-size="10.00">ReleaseDirectoryLocks</text>
</a>
</g>
</g>
<!-- Node7&#45;&gt;Node18 -->
<g id="edge18" class="edge"><title>Node7&#45;&gt;Node18</title>
<path fill="none" stroke="midnightblue" d="M488.614,-561.715C512.153,-556.438 553.097,-547.258 586.325,-539.809"/>
<polygon fill="midnightblue" stroke="midnightblue" points="587.369,-543.162 596.361,-537.559 585.838,-536.332 587.369,-543.162"/>
</g>
<!-- Node19 -->
<g id="node19" class="node"><title>Node19</title>
<g id="a_node19"><a xlink:href="system_8h.html#a9042a919d837da9d97311a0c460c597c" target="_top" xlink:title="Ignores exceptions thrown by Boost&#39;s create_directories if the requested directory exists...">
<polygon fill="white" stroke="black" points="583.5,-480.5 583.5,-499.5 696.5,-499.5 696.5,-480.5 583.5,-480.5"/>
<text text-anchor="middle" x="640" y="-487.5" font-family="Helvetica,sans-Serif" font-size="10.00">TryCreateDirectories</text>
</a>
</g>
</g>
<!-- Node7&#45;&gt;Node19 -->
<g id="edge19" class="edge"><title>Node7&#45;&gt;Node19</title>
<path fill="none" stroke="midnightblue" d="M488.787,-562.423C503.324,-559.145 523.359,-553.353 539,-544 558.152,-532.547 555.746,-520.28 575,-509 578.656,-506.858 582.574,-504.94 586.603,-503.226"/>
<polygon fill="midnightblue" stroke="midnightblue" points="588.043,-506.423 596.138,-499.588 585.547,-499.883 588.043,-506.423"/>
</g>
<!-- Node20 -->
<g id="node20" class="node"><title>Node20</title>
<g id="a_node20"><a xlink:href="system_8h.html#a15cb85964fe08c264605537f44570d3c" target="_top" xlink:title="GetDefaultDataDir">
<polygon fill="white" stroke="black" points="587.5,-442.5 587.5,-461.5 692.5,-461.5 692.5,-442.5 587.5,-442.5"/>
<text text-anchor="middle" x="640" y="-449.5" font-family="Helvetica,sans-Serif" font-size="10.00">GetDefaultDataDir</text>
</a>
</g>
</g>
<!-- Node7&#45;&gt;Node20 -->
<g id="edge20" class="edge"><title>Node7&#45;&gt;Node20</title>
<path fill="none" stroke="midnightblue" d="M488.585,-564.073C503.782,-561.65 524.79,-556.204 539,-544 566.443,-520.431 547.346,-494.322 575,-471 577.016,-469.3 579.179,-467.752 581.447,-466.343"/>
<polygon fill="midnightblue" stroke="midnightblue" points="583.372,-469.286 590.626,-461.565 580.14,-463.077 583.372,-469.286"/>
</g>
<!-- Node21 -->
<g id="node21" class="node"><title>Node21</title>
<g id="a_node21"><a xlink:href="system_8h.html#ad04024054d5b0cafa53288c7207de4cb" target="_top" xlink:title="GetBlocksDir">
<polygon fill="white" stroke="red" points="601,-404.5 601,-423.5 679,-423.5 679,-404.5 601,-404.5"/>
<text text-anchor="middle" x="640" y="-411.5" font-family="Helvetica,sans-Serif" font-size="10.00">GetBlocksDir</text>
</a>
</g>
</g>
<!-- Node7&#45;&gt;Node21 -->
<g id="edge21" class="edge"><title>Node7&#45;&gt;Node21</title>
<path fill="none" stroke="midnightblue" d="M488.762,-564.646C504.27,-562.56 525.619,-557.287 539,-544 575.802,-507.457 537.871,-469.211 575,-433 579.629,-428.486 585.279,-425.037 591.285,-422.403"/>
<polygon fill="midnightblue" stroke="midnightblue" points="592.72,-425.606 600.922,-418.9 590.328,-419.027 592.72,-425.606"/>
</g>
<!-- Node22 -->
<g id="node22" class="node"><title>Node22</title>
<g id="a_node22"><a xlink:href="system_8h.html#abb63dfb710832aefb746933af05198d4" target="_top" xlink:title="GetDataDir">
<polygon fill="white" stroke="red" points="604.5,-366.5 604.5,-385.5 675.5,-385.5 675.5,-366.5 604.5,-366.5"/>
<text text-anchor="middle" x="640" y="-373.5" font-family="Helvetica,sans-Serif" font-size="10.00">GetDataDir</text>
</a>
</g>
</g>
<!-- Node7&#45;&gt;Node22 -->
<g id="edge22" class="edge"><title>Node7&#45;&gt;Node22</title>
<path fill="none" stroke="midnightblue" d="M488.719,-564.948C504.415,-563.049 526.051,-557.882 539,-544 585.471,-494.182 528.083,-444.398 575,-395 580.268,-389.453 587.074,-385.504 594.274,-382.697"/>
<polygon fill="midnightblue" stroke="midnightblue" points="595.759,-385.897 604.23,-379.534 593.639,-379.226 595.759,-385.897"/>
</g>
<!-- Node23 -->
<g id="node23" class="node"><title>Node23</title>
<g id="a_node23"><a xlink:href="system_8h.html#abfb50dfe077aced7591f2aba601f605d" target="_top" xlink:title="ClearDatadirCache">
<polygon fill="white" stroke="black" points="586.5,-328.5 586.5,-347.5 693.5,-347.5 693.5,-328.5 586.5,-328.5"/>
<text text-anchor="middle" x="640" y="-335.5" font-family="Helvetica,sans-Serif" font-size="10.00">ClearDatadirCache</text>
</a>
</g>
</g>
<!-- Node7&#45;&gt;Node23 -->
<g id="edge23" class="edge"><title>Node7&#45;&gt;Node23</title>
<path fill="none" stroke="midnightblue" d="M488.573,-565.138C504.398,-563.365 526.296,-558.276 539,-544 595.266,-480.773 518.168,-419.718 575,-357 576.204,-355.671 577.496,-354.434 578.861,-353.282"/>
<polygon fill="midnightblue" stroke="midnightblue" points="581.022,-356.047 587.375,-347.568 577.121,-350.234 581.022,-356.047"/>
</g>
<!-- Node24 -->
<g id="node24" class="node"><title>Node24</title>
<g id="a_node24"><a xlink:href="system_8h.html#aa634f312705d4811dfa2a5392bddf6cf" target="_top" xlink:title="GetConfigFile">
<polygon fill="white" stroke="red" points="600.5,-290.5 600.5,-309.5 679.5,-309.5 679.5,-290.5 600.5,-290.5"/>
<text text-anchor="middle" x="640" y="-297.5" font-family="Helvetica,sans-Serif" font-size="10.00">GetConfigFile</text>
</a>
</g>
</g>
<!-- Node7&#45;&gt;Node24 -->
<g id="edge24" class="edge"><title>Node7&#45;&gt;Node24</title>
<path fill="none" stroke="midnightblue" d="M488.687,-558.085C504.584,-554.528 526.522,-549.475 539,-535 605.123,-458.295 508.19,-386.108 575,-310 579.265,-305.141 584.71,-301.498 590.619,-298.864"/>
<polygon fill="midnightblue" stroke="midnightblue" points="591.893,-302.126 600.181,-295.526 589.586,-295.517 591.893,-302.126"/>
</g>
<!-- Node25 -->
<g id="node25" class="node"><title>Node25</title>
<g id="a_node25"><a xlink:href="system_8h.html#aa803aa631ab8b4bd79fa9d7b2172bf9a" target="_top" xlink:title="runCommand">
<polygon fill="white" stroke="black" points="598.5,-252.5 598.5,-271.5 681.5,-271.5 681.5,-252.5 598.5,-252.5"/>
<text text-anchor="middle" x="640" y="-259.5" font-family="Helvetica,sans-Serif" font-size="10.00">runCommand</text>
</a>
</g>
</g>
<!-- Node7&#45;&gt;Node25 -->
<g id="edge26" class="edge"><title>Node7&#45;&gt;Node25</title>
<path fill="none" stroke="midnightblue" d="M488.77,-565.309C504.719,-563.643 526.687,-558.615 539,-544 615.016,-453.775 498.176,-370.538 575,-281 578.868,-276.492 583.752,-273.027 589.091,-270.369"/>
<polygon fill="midnightblue" stroke="midnightblue" points="590.439,-273.6 598.405,-266.615 587.822,-267.107 590.439,-273.6"/>
</g>
<!-- Node26 -->
<g id="node26" class="node"><title>Node26</title>
<g id="a_node26"><a xlink:href="system_8h.html#a95a1d5584353ab05e85da8b0e8844c95" target="_top" xlink:title="Most paths passed as configuration arguments are treated as relative to the datadir if they are not a...">
<polygon fill="white" stroke="red" points="582.5,-214.5 582.5,-233.5 697.5,-233.5 697.5,-214.5 582.5,-214.5"/>
<text text-anchor="middle" x="640" y="-221.5" font-family="Helvetica,sans-Serif" font-size="10.00">AbsPathForConfigVal</text>
</a>
</g>
</g>
<!-- Node7&#45;&gt;Node26 -->
<g id="edge27" class="edge"><title>Node7&#45;&gt;Node26</title>
<path fill="none" stroke="midnightblue" d="M488.516,-565.393C504.53,-563.794 526.731,-558.817 539,-544 624.931,-440.229 488.14,-345.994 575,-243 576.004,-241.809 577.079,-240.691 578.215,-239.642"/>
<polygon fill="midnightblue" stroke="midnightblue" points="580.433,-242.357 586.483,-233.659 576.33,-236.686 580.433,-242.357"/>
</g>
<!-- Node15&#45;&gt;Node7 -->
<g id="edge15" class="edge"><title>Node15&#45;&gt;Node7</title>
<path fill="none" stroke="midnightblue" d="M598.699,-642.33C590.514,-639.873 582.211,-636.426 575,-632 555.173,-619.83 558.958,-605.954 539,-594 526.553,-586.545 511.117,-581.945 497.956,-578.306"/>
<polygon fill="midnightblue" stroke="midnightblue" points="498.561,-574.842 487.99,-575.558 496.7,-581.59 498.561,-574.842"/>
</g>
<!-- Node24&#45;&gt;Node7 -->
<g id="edge25" class="edge"><title>Node24&#45;&gt;Node7</title>
<path fill="none" stroke="midnightblue" d="M612.096,-309.535C599.056,-312.639 584.252,-317.46 575,-328 508.19,-404.108 605.123,-476.295 539,-553 529.057,-564.535 513.106,-570.086 498.992,-571.797"/>
<polygon fill="midnightblue" stroke="midnightblue" points="498.469,-568.321 488.687,-572.391 498.872,-575.309 498.469,-568.321"/>
</g>
<!-- Node33 -->
<g id="node33" class="node"><title>Node33</title>
<g id="a_node33"><a xlink:href="classbase__blob.html#aff2f3d1d623d91b6895a6a153434770e" target="_top" xlink:title="base_blob::IsNull">
<polygon fill="white" stroke="black" points="420,-515.5 420,-534.5 517,-534.5 517,-515.5 420,-515.5"/>
<text text-anchor="middle" x="468.5" y="-522.5" font-family="Helvetica,sans-Serif" font-size="10.00">base_blob::IsNull</text>
</a>
</g>
</g>
<!-- Node32&#45;&gt;Node33 -->
<g id="edge34" class="edge"><title>Node32&#45;&gt;Node33</title>
<path fill="none" stroke="midnightblue" d="M346.641,-501.204C367.524,-505.316 390.036,-509.748 409.905,-513.66"/>
<polygon fill="midnightblue" stroke="midnightblue" points="409.24,-517.096 419.728,-515.594 410.593,-510.228 409.24,-517.096"/>
</g>
<!-- Node34 -->
<g id="node34" class="node"><title>Node34</title>
<g id="a_node34"><a xlink:href="class_c_coins_view.html#a556cf7661ff49df1ada5cd0ad552f8db" target="_top" xlink:title="Retrieve the block hash whose state this CCoinsView currently represents. ">
<polygon fill="white" stroke="black" points="398,-477.5 398,-496.5 539,-496.5 539,-477.5 398,-477.5"/>
<text text-anchor="middle" x="468.5" y="-484.5" font-family="Helvetica,sans-Serif" font-size="10.00">CCoinsView::GetBestBlock</text>
</a>
</g>
</g>
<!-- Node32&#45;&gt;Node34 -->
<g id="edge35" class="edge"><title>Node32&#45;&gt;Node34</title>
<path fill="none" stroke="midnightblue" d="M346.641,-487C359.95,-487 373.922,-487 387.449,-487"/>
<polygon fill="midnightblue" stroke="midnightblue" points="387.688,-490.5 397.688,-487 387.688,-483.5 387.688,-490.5"/>
</g>
<!-- Node37 -->
<g id="node37" class="node"><title>Node37</title>
<g id="a_node37"><a xlink:href="classbase__blob.html#ada7be83089951dc9438f384c0587cf29" target="_top" xlink:title="base_blob::base_blob">
<polygon fill="white" stroke="black" points="408.5,-439.5 408.5,-458.5 528.5,-458.5 528.5,-439.5 408.5,-439.5"/>
<text text-anchor="middle" x="468.5" y="-446.5" font-family="Helvetica,sans-Serif" font-size="10.00">base_blob::base_blob</text>
</a>
</g>
</g>
<!-- Node36&#45;&gt;Node37 -->
<g id="edge39" class="edge"><title>Node36&#45;&gt;Node37</title>
<path fill="none" stroke="midnightblue" d="M319.049,-414.504C332.83,-417.489 348.054,-420.834 362,-424 380.26,-428.146 400.259,-432.844 417.888,-437.04"/>
<polygon fill="midnightblue" stroke="midnightblue" points="417.424,-440.528 427.963,-439.445 419.049,-433.719 417.424,-440.528"/>
</g>
<!-- Node38 -->
<g id="node38" class="node"><title>Node38</title>
<g id="a_node38"><a xlink:href="classbase__blob.html#a9541747b1f91f9469ac0aff90665bd32" target="_top" xlink:title="base_blob::GetHex">
<polygon fill="white" stroke="red" points="415,-401.5 415,-420.5 522,-420.5 522,-401.5 415,-401.5"/>
<text text-anchor="middle" x="468.5" y="-408.5" font-family="Helvetica,sans-Serif" font-size="10.00">base_blob::GetHex</text>
</a>
</g>
</g>
<!-- Node36&#45;&gt;Node38 -->
<g id="edge40" class="edge"><title>Node36&#45;&gt;Node38</title>
<path fill="none" stroke="midnightblue" d="M328.518,-406.679C352.131,-407.413 379.985,-408.279 404.533,-409.042"/>
<polygon fill="midnightblue" stroke="midnightblue" points="404.725,-412.55 414.829,-409.363 404.942,-405.553 404.725,-412.55"/>
</g>
<!-- Node39 -->
<g id="node39" class="node"><title>Node39</title>
<g id="a_node39"><a xlink:href="classbase__blob.html#a5ec1f681a2830f4e180fe664c0eb4dd0" target="_top" xlink:title="base_blob::SetHex">
<polygon fill="white" stroke="red" points="415,-363.5 415,-382.5 522,-382.5 522,-363.5 415,-363.5"/>
<text text-anchor="middle" x="468.5" y="-370.5" font-family="Helvetica,sans-Serif" font-size="10.00">base_blob::SetHex</text>
</a>
</g>
</g>
<!-- Node36&#45;&gt;Node39 -->
<g id="edge41" class="edge"><title>Node36&#45;&gt;Node39</title>
<path fill="none" stroke="midnightblue" d="M328.518,-396.044C352.237,-392.111 380.234,-387.469 404.861,-383.386"/>
<polygon fill="midnightblue" stroke="midnightblue" points="405.536,-386.822 414.829,-381.733 404.391,-379.916 405.536,-386.822"/>
</g>
<!-- Node41 -->
<g id="node41" class="node"><title>Node41</title>
<g id="a_node41"><a xlink:href="class_c_coins_view.html#ad7dc37396ca4fac7014cea06fec7178e" target="_top" xlink:title="Do a bulk modification (multiple Coin changes + BestBlock change). ">
<polygon fill="white" stroke="black" points="404.5,-325.5 404.5,-344.5 532.5,-344.5 532.5,-325.5 404.5,-325.5"/>
<text text-anchor="middle" x="468.5" y="-332.5" font-family="Helvetica,sans-Serif" font-size="10.00">CCoinsView::BatchWrite</text>
</a>
</g>
</g>
<!-- Node40&#45;&gt;Node41 -->
<g id="edge43" class="edge"><title>Node40&#45;&gt;Node41</title>
<path fill="none" stroke="midnightblue" d="M331.884,-357.486C353.275,-353.939 377.754,-349.88 399.973,-346.196"/>
<polygon fill="midnightblue" stroke="midnightblue" points="400.711,-349.622 410.004,-344.533 399.566,-342.716 400.711,-349.622"/>
</g>
<!-- Node42&#45;&gt;Node42 -->
<g id="edge46" class="edge"><title>Node42&#45;&gt;Node42</title>
<path fill="none" stroke="midnightblue" d="M243.599,-320.757C229.053,-329.565 239.02,-339 273.5,-339 297.744,-339 309.869,-334.336 309.875,-328.504"/>
<polygon fill="midnightblue" stroke="midnightblue" points="312.499,-326.186 303.401,-320.757 307.128,-330.675 312.499,-326.186"/>
</g>
<!-- Node43 -->
<g id="node43" class="node"><title>Node43</title>
<g id="a_node43"><a xlink:href="chainparams_8cpp.html#ace5c5b706d71a324a417dd2db394fd4a" target="_top" xlink:title="Return the currently selected parameters. ">
<polygon fill="white" stroke="black" points="442,-287.5 442,-306.5 495,-306.5 495,-287.5 442,-287.5"/>
<text text-anchor="middle" x="468.5" y="-294.5" font-family="Helvetica,sans-Serif" font-size="10.00">Params</text>
</a>
</g>
</g>
<!-- Node42&#45;&gt;Node43 -->
<g id="edge45" class="edge"><title>Node42&#45;&gt;Node43</title>
<path fill="none" stroke="midnightblue" d="M322.704,-307.503C356.462,-305.055 400.844,-301.835 431.53,-299.609"/>
<polygon fill="midnightblue" stroke="midnightblue" points="432.052,-303.081 441.773,-298.866 431.546,-296.099 432.052,-303.081"/>
</g>
</g>
</svg>
