<?xml version="1.0" encoding="UTF-8" standalone="no"?>
<!DOCTYPE svg PUBLIC "-//W3C//DTD SVG 1.1//EN"
 "http://www.w3.org/Graphics/SVG/1.1/DTD/svg11.dtd">
<!-- Generated by graphviz version 2.49.3 (0)
 -->
<!-- Title: AddressBookPage::on_exportButton_clicked Pages: 1 -->
<svg width="444pt" height="198pt"
 viewBox="0.00 0.00 444.00 198.00" xmlns="http://www.w3.org/2000/svg" xmlns:xlink="http://www.w3.org/1999/xlink">
<g id="graph0" class="graph" transform="scale(1 1) rotate(0) translate(4 194)">
<title>AddressBookPage::on_exportButton_clicked</title>
<polygon fill="white" stroke="transparent" points="-4,4 -4,-194 440,-194 440,4 -4,4"/>
<!-- Node1 -->
<g id="node1" class="node">
<title>Node1</title>
<g id="a_node1"><a xlink:title="Export button clicked.">
<polygon fill="#bfbfbf" stroke="black" points="0,-90 0,-120 125,-120 125,-90 0,-90"/>
<text text-anchor="start" x="8" y="-108" font-family="Helvetica,sans-Serif" font-size="10.00">AddressBookPage::on</text>
<text text-anchor="middle" x="62.5" y="-97" font-family="Helvetica,sans-Serif" font-size="10.00">_exportButton_clicked</text>
</a>
</g>
</g>
<!-- Node2 -->
<g id="node2" class="node">
<title>Node2</title>
<g id="a_node2"><a xlink:href="class_c_s_v_model_writer.html#a9e5f0d60f2c873747582ce21ddeb53b5" target="_top" xlink:title=" ">
<polygon fill="white" stroke="black" points="161,-170.5 161,-189.5 319,-189.5 319,-170.5 161,-170.5"/>
<text text-anchor="middle" x="240" y="-177.5" font-family="Helvetica,sans-Serif" font-size="10.00">CSVModelWriter::addColumn</text>
</a>
</g>
</g>
<!-- Node1&#45;&gt;Node2 -->
<g id="edge1" class="edge">
<title>Node1&#45;&gt;Node2</title>
<path fill="none" stroke="midnightblue" d="M85.44,-120.01C104.62,-132.54 133.63,-150.06 161,-161 167.26,-163.5 173.94,-165.74 180.66,-167.72"/>
<polygon fill="midnightblue" stroke="midnightblue" points="179.91,-171.14 190.48,-170.43 181.78,-164.39 179.91,-171.14"/>
</g>
<!-- Node3 -->
<g id="node3" class="node">
<title>Node3</title>
<g id="a_node3"><a xlink:href="namespace_g_u_i_util.html#a788c51092a2255b1f8976d4794fc3ee6" target="_top" xlink:title="Get save filename, mimics QFileDialog::getSaveFileName, except that it appends a default suffix when ...">
<polygon fill="white" stroke="black" points="168,-114.5 168,-133.5 312,-133.5 312,-114.5 168,-114.5"/>
<text text-anchor="middle" x="240" y="-121.5" font-family="Helvetica,sans-Serif" font-size="10.00">GUIUtil::getSaveFileName</text>
</a>
</g>
</g>
<!-- Node1&#45;&gt;Node3 -->
<g id="edge2" class="edge">
<title>Node1&#45;&gt;Node3</title>
<path fill="none" stroke="midnightblue" d="M125.37,-111.7C135.88,-112.84 146.92,-114.03 157.83,-115.21"/>
<polygon fill="midnightblue" stroke="midnightblue" points="157.47,-118.69 167.79,-116.29 158.23,-111.73 157.47,-118.69"/>
</g>
<!-- Node4 -->
<g id="node4" class="node">
<title>Node4</title>
<g id="a_node4"><a xlink:href="class_c_s_v_model_writer.html#a7b8be6f49a66b965a94a89c78fb96e40" target="_top" xlink:title=" ">
<polygon fill="white" stroke="black" points="166.5,-76.5 166.5,-95.5 313.5,-95.5 313.5,-76.5 166.5,-76.5"/>
<text text-anchor="middle" x="240" y="-83.5" font-family="Helvetica,sans-Serif" font-size="10.00">CSVModelWriter::setModel</text>
</a>
</g>
</g>
<!-- Node1&#45;&gt;Node4 -->
<g id="edge4" class="edge">
<title>Node1&#45;&gt;Node4</title>
<path fill="none" stroke="midnightblue" d="M125.37,-98.3C135.29,-97.23 145.7,-96.1 156.01,-94.98"/>
<polygon fill="midnightblue" stroke="midnightblue" points="156.71,-98.43 166.27,-93.87 155.95,-91.47 156.71,-98.43"/>
</g>
<!-- Node5 -->
<g id="node5" class="node">
<title>Node5</title>
<g id="a_node5"><a xlink:href="class_c_s_v_model_writer.html#a71fe52fdd6f41c506f9631175cb04615" target="_top" xlink:title="Perform export of the model to CSV.">
<polygon fill="white" stroke="black" points="176.5,-38.5 176.5,-57.5 303.5,-57.5 303.5,-38.5 176.5,-38.5"/>
<text text-anchor="middle" x="240" y="-45.5" font-family="Helvetica,sans-Serif" font-size="10.00">CSVModelWriter::write</text>
</a>
</g>
</g>
<!-- Node1&#45;&gt;Node5 -->
<g id="edge5" class="edge">
<title>Node1&#45;&gt;Node5</title>
<path fill="none" stroke="midnightblue" d="M98.75,-89.96C117.11,-82.46 140.03,-73.61 161,-67 168.84,-64.53 177.22,-62.19 185.46,-60.05"/>
<polygon fill="midnightblue" stroke="midnightblue" points="186.56,-63.38 195.4,-57.54 184.84,-56.59 186.56,-63.38"/>
</g>
<!-- Node3&#45;&gt;Node3 -->
<g id="edge3" class="edge">
<title>Node3&#45;&gt;Node3</title>
<path fill="none" stroke="midnightblue" d="M216.26,-133.76C204.72,-142.57 212.63,-152 240,-152 257.96,-152 267.54,-147.94 268.75,-142.65"/>
<polygon fill="midnightblue" stroke="midnightblue" points="271.69,-140.75 263.74,-133.76 265.59,-144.19 271.69,-140.75"/>
</g>
<!-- Node6 -->
<g id="node6" class="node">
<title>Node6</title>
<g id="a_node6"><a xlink:href="csvmodelwriter_8cpp.html#a7a453a98e3543054f75e89e26c1365e4" target="_top" xlink:title=" ">
<polygon fill="white" stroke="black" points="355,-76.5 355,-95.5 436,-95.5 436,-76.5 355,-76.5"/>
<text text-anchor="middle" x="395.5" y="-83.5" font-family="Helvetica,sans-Serif" font-size="10.00">writeNewline</text>
</a>
</g>
</g>
<!-- Node5&#45;&gt;Node6 -->
<g id="edge6" class="edge">
<title>Node5&#45;&gt;Node6</title>
<path fill="none" stroke="midnightblue" d="M280.29,-57.51C292.68,-60.53 306.42,-63.88 319,-67 328.06,-69.24 337.72,-71.66 347,-73.99"/>
<polygon fill="midnightblue" stroke="midnightblue" points="346.33,-77.43 356.88,-76.47 348.03,-70.64 346.33,-77.43"/>
</g>
<!-- Node7 -->
<g id="node7" class="node">
<title>Node7</title>
<g id="a_node7"><a xlink:href="csvmodelwriter_8cpp.html#a6be07c08b797caef0f70aa7da48045e9" target="_top" xlink:title=" ">
<polygon fill="white" stroke="black" points="366,-38.5 366,-57.5 425,-57.5 425,-38.5 366,-38.5"/>
<text text-anchor="middle" x="395.5" y="-45.5" font-family="Helvetica,sans-Serif" font-size="10.00">writeSep</text>
</a>
</g>
</g>
<!-- Node5&#45;&gt;Node7 -->
<g id="edge7" class="edge">
<title>Node5&#45;&gt;Node7</title>
<path fill="none" stroke="midnightblue" d="M303.88,-48C321.37,-48 339.85,-48 355.53,-48"/>
<polygon fill="midnightblue" stroke="midnightblue" points="355.9,-51.5 365.89,-48 355.89,-44.5 355.9,-51.5"/>
</g>
<!-- Node8 -->
<g id="node8" class="node">
<title>Node8</title>
<g id="a_node8"><a xlink:href="csvmodelwriter_8cpp.html#a513c2da991b3384f4ea2d82eb89bc3dc" target="_top" xlink:title=" ">
<polygon fill="white" stroke="black" points="361.5,-0.5 361.5,-19.5 429.5,-19.5 429.5,-0.5 361.5,-0.5"/>
<text text-anchor="middle" x="395.5" y="-7.5" font-family="Helvetica,sans-Serif" font-size="10.00">writeValue</text>
</a>
</g>
</g>
<!-- Node5&#45;&gt;Node8 -->
<g id="edge8" class="edge">
<title>Node5&#45;&gt;Node8</title>
<path fill="none" stroke="midnightblue" d="M279.73,-38.41C301.61,-33 328.99,-26.22 351.53,-20.64"/>
<polygon fill="midnightblue" stroke="midnightblue" points="352.63,-23.97 361.5,-18.17 350.95,-17.18 352.63,-23.97"/>
</g>
</g>
</svg>
