<?xml version="1.0" encoding="UTF-8" standalone="no"?>
<!DOCTYPE svg PUBLIC "-//W3C//DTD SVG 1.1//EN"
 "http://www.w3.org/Graphics/SVG/1.1/DTD/svg11.dtd">
<!-- Generated by graphviz version 2.49.3 (0)
 -->
<!-- Title: TorController::add_onion_cb Pages: 1 -->
<svg width="1099pt" height="767pt"
 viewBox="0.00 0.00 1099.00 767.00" xmlns="http://www.w3.org/2000/svg" xmlns:xlink="http://www.w3.org/1999/xlink">
<g id="graph0" class="graph" transform="scale(1 1) rotate(0) translate(4 763)">
<title>TorController::add_onion_cb</title>
<polygon fill="white" stroke="transparent" points="-4,4 -4,-763 1095,-763 1095,4 -4,4"/>
<!-- Node1 -->
<g id="node1" class="node">
<title>Node1</title>
<g id="a_node1"><a xlink:title="Callback for ADD_ONION result.">
<polygon fill="#bfbfbf" stroke="black" points="0,-210 0,-240 103,-240 103,-210 0,-210"/>
<text text-anchor="start" x="8" y="-228" font-family="Helvetica,sans-Serif" font-size="10.00">TorController::add</text>
<text text-anchor="middle" x="51.5" y="-217" font-family="Helvetica,sans-Serif" font-size="10.00">_onion_cb</text>
</a>
</g>
</g>
<!-- Node2 -->
<g id="node2" class="node">
<title>Node2</title>
<g id="a_node2"><a xlink:href="net_8cpp.html#a4f6e53907e84dcb0c8ad532a0438d8e2" target="_top" xlink:title=" ">
<polygon fill="white" stroke="black" points="177,-417.5 177,-436.5 238,-436.5 238,-417.5 177,-417.5"/>
<text text-anchor="middle" x="207.5" y="-424.5" font-family="Helvetica,sans-Serif" font-size="10.00">AddLocal</text>
</a>
</g>
</g>
<!-- Node1&#45;&gt;Node2 -->
<g id="edge1" class="edge">
<title>Node1&#45;&gt;Node2</title>
<path fill="none" stroke="midnightblue" d="M55.56,-240.26C63.26,-274.74 86.69,-359.22 139,-405 146.93,-411.94 157.09,-416.7 167.11,-419.96"/>
<polygon fill="midnightblue" stroke="midnightblue" points="166.42,-423.4 176.99,-422.74 168.32,-416.66 166.42,-423.4"/>
</g>
<!-- Node5 -->
<g id="node5" class="node">
<title>Node5</title>
<g id="a_node5"><a xlink:href="class_tor_controller.html#a55913c25c46f3d6cd49acb173664c350" target="_top" xlink:title="Get name of file to store private key in.">
<polygon fill="white" stroke="black" points="139,-365 139,-395 276,-395 276,-365 139,-365"/>
<text text-anchor="start" x="147" y="-383" font-family="Helvetica,sans-Serif" font-size="10.00">TorController::GetPrivate</text>
<text text-anchor="middle" x="207.5" y="-372" font-family="Helvetica,sans-Serif" font-size="10.00">KeyFile</text>
</a>
</g>
</g>
<!-- Node1&#45;&gt;Node5 -->
<g id="edge4" class="edge">
<title>Node1&#45;&gt;Node5</title>
<path fill="none" stroke="midnightblue" d="M60.26,-240.01C73.57,-264.58 102.85,-313.78 139,-345 145.53,-350.64 153.14,-355.69 160.83,-360.07"/>
<polygon fill="midnightblue" stroke="midnightblue" points="159.39,-363.27 169.85,-364.91 162.7,-357.1 159.39,-363.27"/>
</g>
<!-- Node29 -->
<g id="node20" class="node">
<title>Node29</title>
<g id="a_node20"><a xlink:href="netbase_8cpp.html#ae6fcf05041086b7dd0bb4c938b1cf92e" target="_top" xlink:title="Resolve a service string with a numeric IP to its first corresponding service.">
<polygon fill="white" stroke="black" points="161.5,-215.5 161.5,-234.5 253.5,-234.5 253.5,-215.5 161.5,-215.5"/>
<text text-anchor="middle" x="207.5" y="-222.5" font-family="Helvetica,sans-Serif" font-size="10.00">LookupNumeric</text>
</a>
</g>
</g>
<!-- Node1&#45;&gt;Node29 -->
<g id="edge20" class="edge">
<title>Node1&#45;&gt;Node29</title>
<path fill="none" stroke="midnightblue" d="M103.35,-225C118.73,-225 135.69,-225 151.34,-225"/>
<polygon fill="midnightblue" stroke="midnightblue" points="151.4,-228.5 161.4,-225 151.4,-221.5 151.4,-228.5"/>
</g>
<!-- Node54 -->
<g id="node29" class="node">
<title>Node54</title>
<g id="a_node29"><a xlink:href="chainparams_8cpp.html#ad82533eea3b187c1ac5b7c54d8c6f121" target="_top" xlink:title="Return the currently selected parameters.">
<polygon fill="white" stroke="black" points="365,-341.5 365,-360.5 418,-360.5 418,-341.5 365,-341.5"/>
<text text-anchor="middle" x="391.5" y="-348.5" font-family="Helvetica,sans-Serif" font-size="10.00">Params</text>
</a>
</g>
</g>
<!-- Node1&#45;&gt;Node54 -->
<g id="edge32" class="edge">
<title>Node1&#45;&gt;Node54</title>
<path fill="none" stroke="midnightblue" d="M64.86,-240.09C80.28,-257.85 108.37,-286.83 139,-302 210.08,-337.21 304.16,-347.14 354.71,-349.93"/>
<polygon fill="midnightblue" stroke="midnightblue" points="354.66,-353.43 364.82,-350.42 355,-346.44 354.66,-353.43"/>
</g>
<!-- Node55 -->
<g id="node30" class="node">
<title>Node55</title>
<g id="a_node30"><a xlink:href="torcontrol_8cpp.html#ab50a461a384ff81a89788cae9cf1d85d" target="_top" xlink:title="Parse reply arguments in the form &#39;METHODS=COOKIE,SAFECOOKIE COOKIEFILE=&quot;.../control_auth_cookie&quot;&#39;.">
<polygon fill="white" stroke="black" points="144,-177.5 144,-196.5 271,-196.5 271,-177.5 144,-177.5"/>
<text text-anchor="middle" x="207.5" y="-184.5" font-family="Helvetica,sans-Serif" font-size="10.00">ParseTorReplyMapping</text>
</a>
</g>
</g>
<!-- Node1&#45;&gt;Node55 -->
<g id="edge34" class="edge">
<title>Node1&#45;&gt;Node55</title>
<path fill="none" stroke="midnightblue" d="M103.35,-212.45C120.93,-208.11 140.57,-203.27 157.96,-198.98"/>
<polygon fill="midnightblue" stroke="midnightblue" points="159.03,-202.32 167.9,-196.52 157.35,-195.52 159.03,-202.32"/>
</g>
<!-- Node56 -->
<g id="node31" class="node">
<title>Node56</title>
<g id="a_node31"><a xlink:href="namespacefs.html#aba5e168406402ed7b763a11d71b23c78" target="_top" xlink:title="Convert path object to byte string.">
<polygon fill="white" stroke="black" points="161.5,-139.5 161.5,-158.5 253.5,-158.5 253.5,-139.5 161.5,-139.5"/>
<text text-anchor="middle" x="207.5" y="-146.5" font-family="Helvetica,sans-Serif" font-size="10.00">fs::PathToString</text>
</a>
</g>
</g>
<!-- Node1&#45;&gt;Node56 -->
<g id="edge35" class="edge">
<title>Node1&#45;&gt;Node56</title>
<path fill="none" stroke="midnightblue" d="M71.75,-209.79C88.64,-197.09 114.3,-179.28 139,-168 144.05,-165.69 149.45,-163.6 154.9,-161.73"/>
<polygon fill="midnightblue" stroke="midnightblue" points="156.27,-164.97 164.73,-158.59 154.14,-158.3 156.27,-164.97"/>
</g>
<!-- Node58 -->
<g id="node33" class="node">
<title>Node58</title>
<g id="a_node33"><a xlink:href="strencodings_8cpp.html#aa179dc54b52ee4d555344dd5472ccb6b" target="_top" xlink:title="Remove unsafe chars.">
<polygon fill="white" stroke="black" points="165.5,-101.5 165.5,-120.5 249.5,-120.5 249.5,-101.5 165.5,-101.5"/>
<text text-anchor="middle" x="207.5" y="-108.5" font-family="Helvetica,sans-Serif" font-size="10.00">SanitizeString</text>
</a>
</g>
</g>
<!-- Node1&#45;&gt;Node58 -->
<g id="edge37" class="edge">
<title>Node1&#45;&gt;Node58</title>
<path fill="none" stroke="midnightblue" d="M62.29,-209.73C76.6,-188.64 105.22,-150.86 139,-130 144.11,-126.84 149.76,-124.2 155.54,-121.99"/>
<polygon fill="midnightblue" stroke="midnightblue" points="157,-125.19 165.34,-118.65 154.75,-118.56 157,-125.19"/>
</g>
<!-- Node59 -->
<g id="node34" class="node">
<title>Node59</title>
<g id="a_node34"><a xlink:href="class_c_service.html#a225473158bc07c87a6a862160d73cfea" target="_top" xlink:title=" ">
<polygon fill="white" stroke="black" points="155.5,-273.5 155.5,-292.5 259.5,-292.5 259.5,-273.5 155.5,-273.5"/>
<text text-anchor="middle" x="207.5" y="-280.5" font-family="Helvetica,sans-Serif" font-size="10.00">CService::ToString</text>
</a>
</g>
</g>
<!-- Node1&#45;&gt;Node59 -->
<g id="edge38" class="edge">
<title>Node1&#45;&gt;Node59</title>
<path fill="none" stroke="midnightblue" d="M92.56,-240.09C117.05,-249.31 148.06,-260.99 171.55,-269.84"/>
<polygon fill="midnightblue" stroke="midnightblue" points="170.52,-273.19 181.11,-273.44 172.99,-266.64 170.52,-273.19"/>
</g>
<!-- Node74 -->
<g id="node49" class="node">
<title>Node74</title>
<g id="a_node49"><a xlink:href="readwritefile_8cpp.html#a086d97c857f3acc7dfff960742583ec5" target="_top" xlink:title="Write contents of std::string to a file.">
<polygon fill="white" stroke="black" points="161.5,-22.5 161.5,-41.5 253.5,-41.5 253.5,-22.5 161.5,-22.5"/>
<text text-anchor="middle" x="207.5" y="-29.5" font-family="Helvetica,sans-Serif" font-size="10.00">WriteBinaryFile</text>
</a>
</g>
</g>
<!-- Node1&#45;&gt;Node74 -->
<g id="edge59" class="edge">
<title>Node1&#45;&gt;Node74</title>
<path fill="none" stroke="midnightblue" d="M60.64,-209.73C74.74,-184.02 105.41,-131.05 139,-92 153.14,-75.56 171.7,-59.37 185.78,-47.96"/>
<polygon fill="midnightblue" stroke="midnightblue" points="188.24,-50.48 193.89,-41.52 183.88,-45 188.24,-50.48"/>
</g>
<!-- Node3 -->
<g id="node3" class="node">
<title>Node3</title>
<g id="a_node3"><a xlink:href="net_8cpp.html#af6de8e47b01a96206402ddef734114f2" target="_top" xlink:title=" ">
<polygon fill="white" stroke="black" points="353.5,-455.5 353.5,-474.5 429.5,-474.5 429.5,-455.5 353.5,-455.5"/>
<text text-anchor="middle" x="391.5" y="-462.5" font-family="Helvetica,sans-Serif" font-size="10.00">IsReachable</text>
</a>
</g>
</g>
<!-- Node2&#45;&gt;Node3 -->
<g id="edge2" class="edge">
<title>Node2&#45;&gt;Node3</title>
<path fill="none" stroke="midnightblue" d="M238.15,-433.19C266.63,-439.14 310.12,-448.22 343.35,-455.16"/>
<polygon fill="midnightblue" stroke="midnightblue" points="342.8,-458.62 353.31,-457.23 344.23,-451.76 342.8,-458.62"/>
</g>
<!-- Node4 -->
<g id="node4" class="node">
<title>Node4</title>
<g id="a_node4"><a xlink:href="net_8cpp.html#aa0d388812dee65a6371a4bdff962dfa4" target="_top" xlink:title="If an IPv6 address belongs to the address range used by the CJDNS network and the CJDNS network is re...">
<polygon fill="white" stroke="black" points="327,-417.5 327,-436.5 456,-436.5 456,-417.5 327,-417.5"/>
<text text-anchor="middle" x="391.5" y="-424.5" font-family="Helvetica,sans-Serif" font-size="10.00">MaybeFlipIPv6toCJDNS</text>
</a>
</g>
</g>
<!-- Node2&#45;&gt;Node4 -->
<g id="edge3" class="edge">
<title>Node2&#45;&gt;Node4</title>
<path fill="none" stroke="midnightblue" d="M238.15,-427C259.5,-427 289.28,-427 316.86,-427"/>
<polygon fill="midnightblue" stroke="midnightblue" points="316.9,-430.5 326.9,-427 316.9,-423.5 316.9,-430.5"/>
</g>
<!-- Node6 -->
<g id="node6" class="node">
<title>Node6</title>
<g id="a_node6"><a xlink:href="class_args_manager.html#a86c513ebb1ed4f9a139fae482bd4fc25" target="_top" xlink:title="Get data directory path with appended network identifier.">
<polygon fill="white" stroke="black" points="312,-379.5 312,-398.5 471,-398.5 471,-379.5 312,-379.5"/>
<text text-anchor="middle" x="391.5" y="-386.5" font-family="Helvetica,sans-Serif" font-size="10.00">ArgsManager::GetDataDirNet</text>
</a>
</g>
</g>
<!-- Node5&#45;&gt;Node6 -->
<g id="edge5" class="edge">
<title>Node5&#45;&gt;Node6</title>
<path fill="none" stroke="midnightblue" d="M276.01,-383.34C284.37,-383.75 293.02,-384.18 301.64,-384.61"/>
<polygon fill="midnightblue" stroke="midnightblue" points="301.57,-388.11 311.73,-385.1 301.91,-381.11 301.57,-388.11"/>
</g>
<!-- Node7 -->
<g id="node7" class="node">
<title>Node7</title>
<g id="a_node7"><a xlink:href="class_args_manager.html#a934563dfb0d520bfa2de5fba2578138b" target="_top" xlink:title="Get data directory path.">
<polygon fill="white" stroke="black" points="507,-578.5 507,-597.5 649,-597.5 649,-578.5 507,-578.5"/>
<text text-anchor="middle" x="578" y="-585.5" font-family="Helvetica,sans-Serif" font-size="10.00">ArgsManager::GetDataDir</text>
</a>
</g>
</g>
<!-- Node6&#45;&gt;Node7 -->
<g id="edge6" class="edge">
<title>Node6&#45;&gt;Node7</title>
<path fill="none" stroke="midnightblue" d="M456.02,-398.55C461.45,-401.04 466.55,-404.14 471,-408 503.56,-436.21 485.56,-460.63 507,-498 522.57,-525.15 545.61,-553.1 560.96,-570.5"/>
<polygon fill="midnightblue" stroke="midnightblue" points="558.53,-573.03 567.8,-578.14 563.74,-568.36 558.53,-573.03"/>
</g>
<!-- Node8 -->
<g id="node8" class="node">
<title>Node8</title>
<g id="a_node8"><a xlink:href="chainparamsbase_8cpp.html#a06aa55e81a512bf827dd3b98ab55e1ec" target="_top" xlink:title="Return the currently selected parameters.">
<polygon fill="white" stroke="black" points="707,-512.5 707,-531.5 784,-531.5 784,-512.5 707,-512.5"/>
<text text-anchor="middle" x="745.5" y="-519.5" font-family="Helvetica,sans-Serif" font-size="10.00">BaseParams</text>
</a>
</g>
</g>
<!-- Node7&#45;&gt;Node8 -->
<g id="edge7" class="edge">
<title>Node7&#45;&gt;Node8</title>
<path fill="none" stroke="midnightblue" d="M599.05,-578.33C620.17,-568.33 654.52,-552.59 685,-541 690.65,-538.85 696.66,-536.74 702.6,-534.75"/>
<polygon fill="midnightblue" stroke="midnightblue" points="704.05,-537.96 712.47,-531.53 701.88,-531.3 704.05,-537.96"/>
</g>
<!-- Node10 -->
<g id="node10" class="node">
<title>Node10</title>
<g id="a_node10"><a xlink:href="class_args_manager.html#adb5d644d273b3a259f792affcdca8283" target="_top" xlink:title="Return string argument or default value.">
<polygon fill="white" stroke="black" points="685,-644.5 685,-663.5 806,-663.5 806,-644.5 685,-644.5"/>
<text text-anchor="middle" x="745.5" y="-651.5" font-family="Helvetica,sans-Serif" font-size="10.00">ArgsManager::GetArg</text>
</a>
</g>
</g>
<!-- Node7&#45;&gt;Node10 -->
<g id="edge9" class="edge">
<title>Node7&#45;&gt;Node10</title>
<path fill="none" stroke="midnightblue" d="M599.05,-597.67C620.17,-607.67 654.52,-623.41 685,-635 690.65,-637.15 696.66,-639.26 702.6,-641.25"/>
<polygon fill="midnightblue" stroke="midnightblue" points="701.88,-644.7 712.47,-644.47 704.05,-638.04 701.88,-644.7"/>
</g>
<!-- Node25 -->
<g id="node16" class="node">
<title>Node25</title>
<g id="a_node16"><a xlink:href="util_2system_8cpp.html#a15cb85964fe08c264605537f44570d3c" target="_top" xlink:title=" ">
<polygon fill="white" stroke="black" points="692,-682.5 692,-701.5 799,-701.5 799,-682.5 692,-682.5"/>
<text text-anchor="middle" x="745.5" y="-689.5" font-family="Helvetica,sans-Serif" font-size="10.00">GetDefaultDataDir</text>
</a>
</g>
</g>
<!-- Node7&#45;&gt;Node25 -->
<g id="edge15" class="edge">
<title>Node7&#45;&gt;Node25</title>
<path fill="none" stroke="midnightblue" d="M588.35,-597.54C605.83,-614.87 645.3,-651.7 685,-673 689.03,-675.16 693.35,-677.13 697.76,-678.91"/>
<polygon fill="midnightblue" stroke="midnightblue" points="696.86,-682.31 707.45,-682.49 699.28,-675.74 696.86,-682.31"/>
</g>
<!-- Node26 -->
<g id="node17" class="node">
<title>Node26</title>
<g id="a_node17"><a xlink:href="namespacefs.html#abba62d94f8b56eb0b6bc1e437728fd89" target="_top" xlink:title="Convert byte string to path object.">
<polygon fill="white" stroke="black" points="692.5,-606.5 692.5,-625.5 798.5,-625.5 798.5,-606.5 692.5,-606.5"/>
<text text-anchor="middle" x="745.5" y="-613.5" font-family="Helvetica,sans-Serif" font-size="10.00">fs::PathFromString</text>
</a>
</g>
</g>
<!-- Node7&#45;&gt;Node26 -->
<g id="edge16" class="edge">
<title>Node7&#45;&gt;Node26</title>
<path fill="none" stroke="midnightblue" d="M635.49,-597.56C650.63,-600.12 667.06,-602.9 682.48,-605.51"/>
<polygon fill="midnightblue" stroke="midnightblue" points="681.99,-608.97 692.44,-607.19 683.16,-602.07 681.99,-608.97"/>
</g>
<!-- Node28 -->
<g id="node19" class="node">
<title>Node28</title>
<g id="a_node19"><a xlink:href="namespacefs.html#a493de8fc3defb7df52d9d9025fc9fb9e" target="_top" xlink:title=" ">
<polygon fill="white" stroke="black" points="686,-550.5 686,-569.5 805,-569.5 805,-550.5 686,-550.5"/>
<text text-anchor="middle" x="745.5" y="-557.5" font-family="Helvetica,sans-Serif" font-size="10.00">fs::system_complete</text>
</a>
</g>
</g>
<!-- Node7&#45;&gt;Node28 -->
<g id="edge18" class="edge">
<title>Node7&#45;&gt;Node28</title>
<path fill="none" stroke="midnightblue" d="M635.49,-578.44C649.21,-576.12 663.99,-573.62 678.12,-571.23"/>
<polygon fill="midnightblue" stroke="midnightblue" points="678.99,-574.63 688.26,-569.51 677.82,-567.73 678.99,-574.63"/>
</g>
<!-- Node9 -->
<g id="node9" class="node">
<title>Node9</title>
<g id="a_node9"><a xlink:href="validation_8cpp.html#afb7ea74ba028421697aa7f364741ee6c" target="_top" xlink:title=" ">
<polygon fill="white" stroke="black" points="888,-436.5 888,-455.5 935,-455.5 935,-436.5 888,-436.5"/>
<text text-anchor="middle" x="911.5" y="-443.5" font-family="Helvetica,sans-Serif" font-size="10.00">assert</text>
</a>
</g>
</g>
<!-- Node8&#45;&gt;Node9 -->
<g id="edge8" class="edge">
<title>Node8&#45;&gt;Node9</title>
<path fill="none" stroke="midnightblue" d="M771.58,-512.39C782.27,-508.16 794.83,-503.02 806,-498 832.61,-486.04 862.33,-471.09 883.26,-460.29"/>
<polygon fill="midnightblue" stroke="midnightblue" points="884.94,-463.36 892.21,-455.65 881.72,-457.14 884.94,-463.36"/>
</g>
<!-- Node11 -->
<g id="node11" class="node">
<title>Node11</title>
<g id="a_node11"><a xlink:href="class_uni_value.html#a087ea6ccec615333371fa1aaf83ab7df" target="_top" xlink:title=" ">
<polygon fill="white" stroke="red" points="861.5,-701.5 861.5,-720.5 961.5,-720.5 961.5,-701.5 861.5,-701.5"/>
<text text-anchor="middle" x="911.5" y="-708.5" font-family="Helvetica,sans-Serif" font-size="10.00">UniValue::get_str</text>
</a>
</g>
</g>
<!-- Node10&#45;&gt;Node11 -->
<g id="edge10" class="edge">
<title>Node10&#45;&gt;Node11</title>
<path fill="none" stroke="midnightblue" d="M779.92,-663.53C788.53,-666.3 797.7,-669.52 806,-673 822.68,-680 825.19,-685.32 842,-692 847.95,-694.36 854.29,-696.55 860.64,-698.53"/>
<polygon fill="midnightblue" stroke="midnightblue" points="859.96,-701.98 870.54,-701.47 861.95,-695.27 859.96,-701.98"/>
</g>
<!-- Node13 -->
<g id="node12" class="node">
<title>Node13</title>
<g id="a_node12"><a xlink:href="class_args_manager.html#ae22ce1df21c32003b3822817ed4b710e" target="_top" xlink:title="Get setting value.">
<polygon fill="white" stroke="red" points="842,-663.5 842,-682.5 981,-682.5 981,-663.5 842,-663.5"/>
<text text-anchor="middle" x="911.5" y="-670.5" font-family="Helvetica,sans-Serif" font-size="10.00">ArgsManager::GetSetting</text>
</a>
</g>
</g>
<!-- Node10&#45;&gt;Node13 -->
<g id="edge11" class="edge">
<title>Node10&#45;&gt;Node13</title>
<path fill="none" stroke="midnightblue" d="M806.17,-660.91C814.53,-661.88 823.23,-662.89 831.87,-663.89"/>
<polygon fill="midnightblue" stroke="midnightblue" points="831.64,-667.39 841.97,-665.06 832.44,-660.43 831.64,-667.39"/>
</g>
<!-- Node19 -->
<g id="node13" class="node">
<title>Node19</title>
<g id="a_node13"><a xlink:href="class_uni_value.html#ae79ab57378176379dd206c5e2d6f5feb" target="_top" xlink:title=" ">
<polygon fill="white" stroke="black" points="862,-625.5 862,-644.5 961,-644.5 961,-625.5 862,-625.5"/>
<text text-anchor="middle" x="911.5" y="-632.5" font-family="Helvetica,sans-Serif" font-size="10.00">UniValue::isFalse</text>
</a>
</g>
</g>
<!-- Node10&#45;&gt;Node19 -->
<g id="edge12" class="edge">
<title>Node10&#45;&gt;Node19</title>
<path fill="none" stroke="midnightblue" d="M806.17,-647.09C821.05,-645.36 837,-643.52 851.83,-641.8"/>
<polygon fill="midnightblue" stroke="midnightblue" points="852.37,-645.26 861.9,-640.63 851.56,-638.3 852.37,-645.26"/>
</g>
<!-- Node23 -->
<g id="node14" class="node">
<title>Node23</title>
<g id="a_node14"><a xlink:href="class_uni_value.html#a3661be0f5580daceb23e5338e3a0df22" target="_top" xlink:title=" ">
<polygon fill="white" stroke="black" points="864.5,-587.5 864.5,-606.5 958.5,-606.5 958.5,-587.5 864.5,-587.5"/>
<text text-anchor="middle" x="911.5" y="-594.5" font-family="Helvetica,sans-Serif" font-size="10.00">UniValue::isNull</text>
</a>
</g>
</g>
<!-- Node10&#45;&gt;Node23 -->
<g id="edge13" class="edge">
<title>Node10&#45;&gt;Node23</title>
<path fill="none" stroke="midnightblue" d="M779.92,-644.47C788.53,-641.7 797.7,-638.48 806,-635 822.68,-628 825.19,-622.68 842,-616 847.95,-613.64 854.29,-611.45 860.64,-609.47"/>
<polygon fill="midnightblue" stroke="midnightblue" points="861.95,-612.73 870.54,-606.53 859.96,-606.02 861.95,-612.73"/>
</g>
<!-- Node24 -->
<g id="node15" class="node">
<title>Node24</title>
<g id="a_node15"><a xlink:href="class_uni_value.html#a1491167609f899d0c7773749b5047969" target="_top" xlink:title=" ">
<polygon fill="white" stroke="black" points="864,-739.5 864,-758.5 959,-758.5 959,-739.5 864,-739.5"/>
<text text-anchor="middle" x="911.5" y="-746.5" font-family="Helvetica,sans-Serif" font-size="10.00">UniValue::isTrue</text>
</a>
</g>
</g>
<!-- Node10&#45;&gt;Node24 -->
<g id="edge14" class="edge">
<title>Node10&#45;&gt;Node24</title>
<path fill="none" stroke="midnightblue" d="M789.29,-663.61C795.25,-666.07 801.02,-669.15 806,-673 829.7,-691.33 817.95,-712.13 842,-730 845.82,-732.84 850.05,-735.26 854.47,-737.31"/>
<polygon fill="midnightblue" stroke="midnightblue" points="853.17,-740.56 863.76,-741.04 855.78,-734.07 853.17,-740.56"/>
</g>
<!-- Node27 -->
<g id="node18" class="node">
<title>Node27</title>
<g id="a_node18"><a xlink:href="namespacefs.html#a569be13cd9507f234827b70c296e517c" target="_top" xlink:title=" ">
<polygon fill="white" stroke="black" points="879,-549.5 879,-568.5 944,-568.5 944,-549.5 879,-549.5"/>
<text text-anchor="middle" x="911.5" y="-556.5" font-family="Helvetica,sans-Serif" font-size="10.00">fs::u8path</text>
</a>
</g>
</g>
<!-- Node26&#45;&gt;Node27 -->
<g id="edge17" class="edge">
<title>Node26&#45;&gt;Node27</title>
<path fill="none" stroke="midnightblue" d="M779.92,-606.47C788.53,-603.7 797.7,-600.48 806,-597 822.68,-590 825.19,-584.68 842,-578 850.5,-574.62 859.82,-571.61 868.77,-569.03"/>
<polygon fill="midnightblue" stroke="midnightblue" points="869.95,-572.34 878.66,-566.31 868.09,-565.59 869.95,-572.34"/>
</g>
<!-- Node28&#45;&gt;Node28 -->
<g id="edge19" class="edge">
<title>Node28&#45;&gt;Node28</title>
<path fill="none" stroke="midnightblue" d="M719.91,-569.76C707.47,-578.57 716,-588 745.5,-588 765.32,-588 775.68,-583.74 776.56,-578.27"/>
<polygon fill="midnightblue" stroke="midnightblue" points="779.44,-576.27 771.09,-569.76 773.55,-580.06 779.44,-576.27"/>
</g>
<!-- Node30 -->
<g id="node21" class="node">
<title>Node30</title>
<g id="a_node21"><a xlink:href="netbase_8cpp.html#aad76edf31e18eb9e07c29f0cdc9117ae" target="_top" xlink:title="Resolve a service string to its corresponding service.">
<polygon fill="white" stroke="black" points="366,-189.5 366,-208.5 417,-208.5 417,-189.5 366,-189.5"/>
<text text-anchor="middle" x="391.5" y="-196.5" font-family="Helvetica,sans-Serif" font-size="10.00">Lookup</text>
</a>
</g>
</g>
<!-- Node29&#45;&gt;Node30 -->
<g id="edge21" class="edge">
<title>Node29&#45;&gt;Node30</title>
<path fill="none" stroke="midnightblue" d="M253.96,-218.51C285.56,-213.99 327.03,-208.07 355.94,-203.94"/>
<polygon fill="midnightblue" stroke="midnightblue" points="356.58,-207.38 365.98,-202.5 355.59,-200.45 356.58,-207.38"/>
</g>
<!-- Node51 -->
<g id="node26" class="node">
<title>Node51</title>
<g id="a_node26"><a xlink:href="string_8h.html#a44a20afcb18adde03052b1649dd06fc3" target="_top" xlink:title="Check if a string does not contain any embedded NUL (\0) characters.">
<polygon fill="white" stroke="black" points="867.5,-132.5 867.5,-151.5 955.5,-151.5 955.5,-132.5 867.5,-132.5"/>
<text text-anchor="middle" x="911.5" y="-139.5" font-family="Helvetica,sans-Serif" font-size="10.00">ValidAsCString</text>
</a>
</g>
</g>
<!-- Node29&#45;&gt;Node51 -->
<g id="edge31" class="edge">
<title>Node29&#45;&gt;Node51</title>
<path fill="none" stroke="midnightblue" d="M251.11,-215.46C259.56,-212.89 268.22,-209.76 276,-206 293.77,-197.42 293.95,-187.98 312,-180 498.1,-97.7 748.89,-118.92 857.12,-133.56"/>
<polygon fill="midnightblue" stroke="midnightblue" points="856.75,-137.04 867.14,-134.95 857.72,-130.11 856.75,-137.04"/>
</g>
<!-- Node31 -->
<g id="node22" class="node">
<title>Node31</title>
<g id="a_node22"><a xlink:href="netbase_8cpp.html#a5fb92a064a4cc4c61e556d8c7b1be802" target="_top" xlink:title=" ">
<polygon fill="white" stroke="black" points="538,-208.5 538,-227.5 618,-227.5 618,-208.5 538,-208.5"/>
<text text-anchor="middle" x="578" y="-215.5" font-family="Helvetica,sans-Serif" font-size="10.00">LookupIntern</text>
</a>
</g>
</g>
<!-- Node30&#45;&gt;Node31 -->
<g id="edge22" class="edge">
<title>Node30&#45;&gt;Node31</title>
<path fill="none" stroke="midnightblue" d="M417,-201.52C445.1,-204.42 491.9,-209.24 527.65,-212.92"/>
<polygon fill="midnightblue" stroke="midnightblue" points="527.57,-216.43 537.88,-213.97 528.29,-209.47 527.57,-216.43"/>
</g>
<!-- Node30&#45;&gt;Node51 -->
<g id="edge30" class="edge">
<title>Node30&#45;&gt;Node51</title>
<path fill="none" stroke="midnightblue" d="M415.26,-189.39C438.02,-180.27 474.26,-167.08 507,-161 630.89,-137.98 779.65,-137.91 857.33,-139.92"/>
<polygon fill="midnightblue" stroke="midnightblue" points="857.26,-143.42 867.36,-140.2 857.46,-136.42 857.26,-143.42"/>
</g>
<!-- Node52 -->
<g id="node27" class="node">
<title>Node52</title>
<g id="a_node27"><a xlink:href="strencodings_8cpp.html#ae2294c6bb15b1816e2876e4c6692e43b" target="_top" xlink:title=" ">
<polygon fill="white" stroke="black" points="538,-170.5 538,-189.5 618,-189.5 618,-170.5 538,-170.5"/>
<text text-anchor="middle" x="578" y="-177.5" font-family="Helvetica,sans-Serif" font-size="10.00">SplitHostPort</text>
</a>
</g>
</g>
<!-- Node30&#45;&gt;Node52 -->
<g id="edge28" class="edge">
<title>Node30&#45;&gt;Node52</title>
<path fill="none" stroke="midnightblue" d="M417,-196.48C445.1,-193.58 491.9,-188.76 527.65,-185.08"/>
<polygon fill="midnightblue" stroke="midnightblue" points="528.29,-188.53 537.88,-184.03 527.57,-181.57 528.29,-188.53"/>
</g>
<!-- Node32 -->
<g id="node23" class="node">
<title>Node32</title>
<g id="a_node23"><a xlink:href="class_c_net_addr.html#a1f5d22cfa59ba01eff53cfd9f5987382" target="_top" xlink:title="Parse a Tor or I2P address and set this object to it.">
<polygon fill="white" stroke="black" points="685.5,-246.5 685.5,-265.5 805.5,-265.5 805.5,-246.5 685.5,-246.5"/>
<text text-anchor="middle" x="745.5" y="-253.5" font-family="Helvetica,sans-Serif" font-size="10.00">CNetAddr::SetSpecial</text>
</a>
</g>
</g>
<!-- Node31&#45;&gt;Node32 -->
<g id="edge23" class="edge">
<title>Node31&#45;&gt;Node32</title>
<path fill="none" stroke="midnightblue" d="M618.22,-227.01C640.55,-232.13 668.8,-238.62 692.91,-244.15"/>
<polygon fill="midnightblue" stroke="midnightblue" points="692.43,-247.64 702.96,-246.46 694,-240.81 692.43,-247.64"/>
</g>
<!-- Node31&#45;&gt;Node51 -->
<g id="edge27" class="edge">
<title>Node31&#45;&gt;Node51</title>
<path fill="none" stroke="midnightblue" d="M618.13,-222.87C665.18,-226.94 745.4,-228.12 806,-199 826.97,-188.92 822.06,-172.99 842,-161 846.83,-158.1 852.11,-155.63 857.53,-153.52"/>
<polygon fill="midnightblue" stroke="midnightblue" points="859.06,-156.7 867.37,-150.13 856.77,-150.08 859.06,-156.7"/>
</g>
<!-- Node33 -->
<g id="node24" class="node">
<title>Node33</title>
<g id="a_node24"><a xlink:href="class_c_net_addr.html#a5efbe4615b9e185f478bda6d4e06910b" target="_top" xlink:title="Parse an I2P address and set this object to it.">
<polygon fill="white" stroke="red" points="861.5,-208.5 861.5,-227.5 961.5,-227.5 961.5,-208.5 861.5,-208.5"/>
<text text-anchor="middle" x="911.5" y="-215.5" font-family="Helvetica,sans-Serif" font-size="10.00">CNetAddr::SetI2P</text>
</a>
</g>
</g>
<!-- Node32&#45;&gt;Node33 -->
<g id="edge24" class="edge">
<title>Node32&#45;&gt;Node33</title>
<path fill="none" stroke="midnightblue" d="M787.88,-246.41C809.62,-241.37 836.46,-235.16 859.47,-229.82"/>
<polygon fill="midnightblue" stroke="midnightblue" points="860.46,-233.19 869.41,-227.52 858.88,-226.37 860.46,-233.19"/>
</g>
<!-- Node36 -->
<g id="node25" class="node">
<title>Node36</title>
<g id="a_node25"><a xlink:href="class_c_net_addr.html#a779959d458bf8c30b6a1d0addeb6b5d5" target="_top" xlink:title="Parse a Tor address and set this object to it.">
<polygon fill="white" stroke="red" points="862,-170.5 862,-189.5 961,-189.5 961,-170.5 862,-170.5"/>
<text text-anchor="middle" x="911.5" y="-177.5" font-family="Helvetica,sans-Serif" font-size="10.00">CNetAddr::SetTor</text>
</a>
</g>
</g>
<!-- Node32&#45;&gt;Node36 -->
<g id="edge25" class="edge">
<title>Node32&#45;&gt;Node36</title>
<path fill="none" stroke="midnightblue" d="M776.27,-246.4C786.11,-242.61 796.86,-237.76 806,-232 824.36,-220.42 823.02,-209.52 842,-199 845.99,-196.79 850.26,-194.81 854.65,-193.06"/>
<polygon fill="midnightblue" stroke="midnightblue" points="856.14,-196.25 864.36,-189.57 853.77,-189.66 856.14,-196.25"/>
</g>
<!-- Node32&#45;&gt;Node51 -->
<g id="edge26" class="edge">
<title>Node32&#45;&gt;Node51</title>
<path fill="none" stroke="midnightblue" d="M781.96,-246.5C790.54,-242.97 799.19,-238.25 806,-232 832.07,-208.08 814.62,-183.41 842,-161 846.65,-157.19 852.01,-154.15 857.64,-151.71"/>
<polygon fill="midnightblue" stroke="midnightblue" points="859.12,-154.9 867.29,-148.16 856.7,-148.33 859.12,-154.9"/>
</g>
<!-- Node53 -->
<g id="node28" class="node">
<title>Node53</title>
<g id="a_node28"><a xlink:href="strencodings_8cpp.html#a3fb0adf01d15bde8687e24699de3b575" target="_top" xlink:title="Convert decimal string to unsigned 16&#45;bit integer with strict parse error feedback.">
<polygon fill="white" stroke="black" points="708,-170.5 708,-189.5 783,-189.5 783,-170.5 708,-170.5"/>
<text text-anchor="middle" x="745.5" y="-177.5" font-family="Helvetica,sans-Serif" font-size="10.00">ParseUInt16</text>
</a>
</g>
</g>
<!-- Node52&#45;&gt;Node53 -->
<g id="edge29" class="edge">
<title>Node52&#45;&gt;Node53</title>
<path fill="none" stroke="midnightblue" d="M618.22,-180C642.08,-180 672.69,-180 697.8,-180"/>
<polygon fill="midnightblue" stroke="midnightblue" points="697.83,-183.5 707.83,-180 697.83,-176.5 697.83,-183.5"/>
</g>
<!-- Node54&#45;&gt;Node9 -->
<g id="edge33" class="edge">
<title>Node54&#45;&gt;Node9</title>
<path fill="none" stroke="midnightblue" d="M418.28,-351.26C435.13,-352.74 456.6,-357.29 471,-370 504.86,-399.88 469.84,-439.35 507,-465 616.36,-540.5 673.65,-476.93 806,-465 830.35,-462.8 857.51,-457.79 878.04,-453.46"/>
<polygon fill="midnightblue" stroke="midnightblue" points="878.8,-456.88 887.83,-451.34 877.32,-450.03 878.8,-456.88"/>
</g>
<!-- Node57 -->
<g id="node32" class="node">
<title>Node57</title>
<g id="a_node32"><a xlink:href="classfs_1_1path.html#a564975456d024dab5b33103085ad9957" target="_top" xlink:title=" ">
<polygon fill="white" stroke="black" points="342,-56.5 342,-75.5 441,-75.5 441,-56.5 342,-56.5"/>
<text text-anchor="middle" x="391.5" y="-63.5" font-family="Helvetica,sans-Serif" font-size="10.00">fs::path::u8string</text>
</a>
</g>
</g>
<!-- Node56&#45;&gt;Node57 -->
<g id="edge36" class="edge">
<title>Node56&#45;&gt;Node57</title>
<path fill="none" stroke="midnightblue" d="M253.58,-140.15C261.38,-137.56 269.18,-134.24 276,-130 296.31,-117.37 291.83,-102.85 312,-90 318.92,-85.59 326.7,-81.95 334.6,-78.96"/>
<polygon fill="midnightblue" stroke="midnightblue" points="335.95,-82.19 344.25,-75.62 333.66,-75.58 335.95,-82.19"/>
</g>
<!-- Node60 -->
<g id="node35" class="node">
<title>Node60</title>
<g id="a_node35"><a xlink:href="class_c_service.html#a224204c838b12eeb49ca7eabe6f75004" target="_top" xlink:title=" ">
<polygon fill="white" stroke="black" points="325,-303.5 325,-322.5 458,-322.5 458,-303.5 325,-303.5"/>
<text text-anchor="middle" x="391.5" y="-310.5" font-family="Helvetica,sans-Serif" font-size="10.00">CService::ToStringIPPort</text>
</a>
</g>
</g>
<!-- Node59&#45;&gt;Node60 -->
<g id="edge39" class="edge">
<title>Node59&#45;&gt;Node60</title>
<path fill="none" stroke="midnightblue" d="M259.68,-291.44C279.2,-294.65 301.76,-298.37 322.59,-301.81"/>
<polygon fill="midnightblue" stroke="midnightblue" points="322.22,-305.29 332.66,-303.47 323.36,-298.39 322.22,-305.29"/>
</g>
<!-- Node61 -->
<g id="node36" class="node">
<title>Node61</title>
<g id="a_node36"><a xlink:href="class_c_net_addr.html#afc07b09ccfd8406c5aa30ce009727eab" target="_top" xlink:title="Check whether this object represents an I2P address.">
<polygon fill="white" stroke="black" points="532,-398.5 532,-417.5 624,-417.5 624,-398.5 532,-398.5"/>
<text text-anchor="middle" x="578" y="-405.5" font-family="Helvetica,sans-Serif" font-size="10.00">CNetAddr::IsI2P</text>
</a>
</g>
</g>
<!-- Node60&#45;&gt;Node61 -->
<g id="edge40" class="edge">
<title>Node60&#45;&gt;Node61</title>
<path fill="none" stroke="midnightblue" d="M453.33,-322.63C459.61,-325.09 465.65,-328.16 471,-332 495.34,-349.47 482.9,-371.2 507,-389 511.56,-392.37 516.68,-395.14 522.02,-397.42"/>
<polygon fill="midnightblue" stroke="midnightblue" points="521.21,-400.85 531.8,-401.01 523.62,-394.28 521.21,-400.85"/>
</g>
<!-- Node62 -->
<g id="node37" class="node">
<title>Node62</title>
<g id="a_node37"><a xlink:href="class_c_net_addr.html#ab0848a1ba29b6f72fcc3b6ba8d7c8fbb" target="_top" xlink:title=" ">
<polygon fill="white" stroke="black" points="520.5,-360.5 520.5,-379.5 635.5,-379.5 635.5,-360.5 520.5,-360.5"/>
<text text-anchor="middle" x="578" y="-367.5" font-family="Helvetica,sans-Serif" font-size="10.00">CNetAddr::IsInternal</text>
</a>
</g>
</g>
<!-- Node60&#45;&gt;Node62 -->
<g id="edge41" class="edge">
<title>Node60&#45;&gt;Node62</title>
<path fill="none" stroke="midnightblue" d="M440.4,-322.59C450.64,-325.19 461.29,-328.33 471,-332 487.92,-338.4 490.17,-344.37 507,-351 513,-353.36 519.39,-355.54 525.79,-357.51"/>
<polygon fill="midnightblue" stroke="midnightblue" points="525.21,-360.99 535.79,-360.44 527.18,-354.27 525.21,-360.99"/>
</g>
<!-- Node63 -->
<g id="node38" class="node">
<title>Node63</title>
<g id="a_node38"><a xlink:href="class_c_net_addr.html#a7021b79e9a33c342b68db09dbb6c2293" target="_top" xlink:title=" ">
<polygon fill="white" stroke="black" points="529,-322.5 529,-341.5 627,-341.5 627,-322.5 529,-322.5"/>
<text text-anchor="middle" x="578" y="-329.5" font-family="Helvetica,sans-Serif" font-size="10.00">CNetAddr::IsIPv4</text>
</a>
</g>
</g>
<!-- Node60&#45;&gt;Node63 -->
<g id="edge42" class="edge">
<title>Node60&#45;&gt;Node63</title>
<path fill="none" stroke="midnightblue" d="M458.07,-319.75C477.82,-321.79 499.36,-324 518.62,-325.99"/>
<polygon fill="midnightblue" stroke="midnightblue" points="518.45,-329.49 528.75,-327.03 519.16,-322.53 518.45,-329.49"/>
</g>
<!-- Node64 -->
<g id="node39" class="node">
<title>Node64</title>
<g id="a_node39"><a xlink:href="class_c_net_addr.html#a4db37b4997ff3b8c57959f2aa915a9a3" target="_top" xlink:title="Check whether this object represents a TOR address.">
<polygon fill="white" stroke="black" points="532,-284.5 532,-303.5 624,-303.5 624,-284.5 532,-284.5"/>
<text text-anchor="middle" x="578" y="-291.5" font-family="Helvetica,sans-Serif" font-size="10.00">CNetAddr::IsTor</text>
</a>
</g>
</g>
<!-- Node60&#45;&gt;Node64 -->
<g id="edge43" class="edge">
<title>Node60&#45;&gt;Node64</title>
<path fill="none" stroke="midnightblue" d="M458.07,-306.25C478.88,-304.1 501.68,-301.76 521.7,-299.69"/>
<polygon fill="midnightblue" stroke="midnightblue" points="522.3,-303.15 531.89,-298.65 521.58,-296.19 522.3,-303.15"/>
</g>
<!-- Node65 -->
<g id="node40" class="node">
<title>Node65</title>
<g id="a_node40"><a xlink:href="class_c_net_addr.html#a0c8d9b5ed3824546ff4dccca3b28b073" target="_top" xlink:title=" ">
<polygon fill="white" stroke="black" points="519.5,-246.5 519.5,-265.5 636.5,-265.5 636.5,-246.5 519.5,-246.5"/>
<text text-anchor="middle" x="578" y="-253.5" font-family="Helvetica,sans-Serif" font-size="10.00">CNetAddr::ToStringIP</text>
</a>
</g>
</g>
<!-- Node60&#45;&gt;Node65 -->
<g id="edge44" class="edge">
<title>Node60&#45;&gt;Node65</title>
<path fill="none" stroke="midnightblue" d="M420.13,-303.35C443.23,-295.4 477.12,-284.01 507,-275 514.54,-272.73 522.58,-270.43 530.42,-268.25"/>
<polygon fill="midnightblue" stroke="midnightblue" points="531.48,-271.6 540.2,-265.58 529.63,-264.84 531.48,-271.6"/>
</g>
<!-- Node73 -->
<g id="node48" class="node">
<title>Node73</title>
<g id="a_node48"><a xlink:href="class_c_service.html#a95d6f24b6a613fca24734ba4e38ef3dc" target="_top" xlink:title=" ">
<polygon fill="white" stroke="black" points="516,-436.5 516,-455.5 640,-455.5 640,-436.5 516,-436.5"/>
<text text-anchor="middle" x="578" y="-443.5" font-family="Helvetica,sans-Serif" font-size="10.00">CService::ToStringPort</text>
</a>
</g>
</g>
<!-- Node60&#45;&gt;Node73 -->
<g id="edge58" class="edge">
<title>Node60&#45;&gt;Node73</title>
<path fill="none" stroke="midnightblue" d="M456.48,-322.65C461.75,-325.12 466.69,-328.2 471,-332 504.86,-361.88 473.56,-396.66 507,-427 508.74,-428.58 510.6,-430.03 512.56,-431.37"/>
<polygon fill="midnightblue" stroke="midnightblue" points="511.2,-434.62 521.63,-436.48 514.64,-428.52 511.2,-434.62"/>
</g>
<!-- Node65&#45;&gt;Node9 -->
<g id="edge45" class="edge">
<title>Node65&#45;&gt;Node9</title>
<path fill="none" stroke="midnightblue" d="M635.28,-265.61C640.31,-268.08 645,-271.16 649,-275 687.33,-311.8 646.35,-352.54 685,-389 699.1,-402.3 818.86,-427.71 877.88,-439.58"/>
<polygon fill="midnightblue" stroke="midnightblue" points="877.33,-443.04 887.82,-441.57 878.7,-436.18 877.33,-443.04"/>
</g>
<!-- Node66 -->
<g id="node41" class="node">
<title>Node66</title>
<g id="a_node41"><a xlink:href="strencodings_8cpp.html#a7988aa4314a652a2697c92422ccf20e7" target="_top" xlink:title="Base32 encode.">
<polygon fill="white" stroke="black" points="867.5,-322.5 867.5,-341.5 955.5,-341.5 955.5,-322.5 867.5,-322.5"/>
<text text-anchor="middle" x="911.5" y="-329.5" font-family="Helvetica,sans-Serif" font-size="10.00">EncodeBase32</text>
</a>
</g>
</g>
<!-- Node65&#45;&gt;Node66 -->
<g id="edge46" class="edge">
<title>Node65&#45;&gt;Node66</title>
<path fill="none" stroke="midnightblue" d="M627.86,-265.54C635.22,-268.02 642.51,-271.12 649,-275 668.97,-286.94 664.03,-302.92 685,-313 739.43,-339.17 809.8,-340.76 857.34,-337.86"/>
<polygon fill="midnightblue" stroke="midnightblue" points="857.69,-341.34 867.42,-337.15 857.2,-334.36 857.69,-341.34"/>
</g>
<!-- Node67 -->
<g id="node45" class="node">
<title>Node67</title>
<g id="a_node45"><a xlink:href="netaddress_8cpp.html#ad5b3cda6110f14994b75b1d62d863c18" target="_top" xlink:title=" ">
<polygon fill="white" stroke="black" points="707,-436.5 707,-455.5 784,-455.5 784,-436.5 707,-436.5"/>
<text text-anchor="middle" x="745.5" y="-443.5" font-family="Helvetica,sans-Serif" font-size="10.00">IPv4ToString</text>
</a>
</g>
</g>
<!-- Node65&#45;&gt;Node67 -->
<g id="edge50" class="edge">
<title>Node65&#45;&gt;Node67</title>
<path fill="none" stroke="midnightblue" d="M635.89,-265.52C640.73,-268.01 645.22,-271.12 649,-275 695.97,-323.15 640.96,-371.16 685,-422 688.6,-426.16 693.03,-429.6 697.82,-432.46"/>
<polygon fill="midnightblue" stroke="midnightblue" points="696.26,-435.59 706.76,-436.98 699.42,-429.35 696.26,-435.59"/>
</g>
<!-- Node68 -->
<g id="node46" class="node">
<title>Node68</title>
<g id="a_node46"><a xlink:href="netaddress_8cpp.html#a9a48a4821f2e3db2f3a2be861471417b" target="_top" xlink:title=" ">
<polygon fill="white" stroke="red" points="707,-360.5 707,-379.5 784,-379.5 784,-360.5 707,-360.5"/>
<text text-anchor="middle" x="745.5" y="-367.5" font-family="Helvetica,sans-Serif" font-size="10.00">IPv6ToString</text>
</a>
</g>
</g>
<!-- Node65&#45;&gt;Node68 -->
<g id="edge51" class="edge">
<title>Node65&#45;&gt;Node68</title>
<path fill="none" stroke="midnightblue" d="M632.9,-265.54C638.7,-268 644.21,-271.1 649,-275 676.44,-297.34 658.93,-322.08 685,-346 689.36,-350 694.48,-353.38 699.85,-356.22"/>
<polygon fill="midnightblue" stroke="midnightblue" points="698.5,-359.45 709.04,-360.5 701.45,-353.1 698.5,-359.45"/>
</g>
<!-- Node72 -->
<g id="node47" class="node">
<title>Node72</title>
<g id="a_node47"><a xlink:href="netaddress_8cpp.html#a4883facebdcd8e153f336d6bf711d041" target="_top" xlink:title=" ">
<polygon fill="white" stroke="red" points="703.5,-284.5 703.5,-303.5 787.5,-303.5 787.5,-284.5 703.5,-284.5"/>
<text text-anchor="middle" x="745.5" y="-291.5" font-family="Helvetica,sans-Serif" font-size="10.00">OnionToString</text>
</a>
</g>
</g>
<!-- Node65&#45;&gt;Node72 -->
<g id="edge54" class="edge">
<title>Node65&#45;&gt;Node72</title>
<path fill="none" stroke="midnightblue" d="M620.76,-265.59C642.78,-270.65 669.99,-276.89 693.27,-282.24"/>
<polygon fill="midnightblue" stroke="midnightblue" points="692.79,-285.72 703.32,-284.55 694.36,-278.9 692.79,-285.72"/>
</g>
<!-- Node48 -->
<g id="node42" class="node">
<title>Node48</title>
<g id="a_node42"><a xlink:href="class_span.html#aba913ab7ea39559834e64d08ce0ce9c4" target="_top" xlink:title=" ">
<polygon fill="white" stroke="black" points="1017,-293.5 1017,-312.5 1091,-312.5 1091,-293.5 1017,-293.5"/>
<text text-anchor="middle" x="1054" y="-300.5" font-family="Helvetica,sans-Serif" font-size="10.00">Span::begin</text>
</a>
</g>
</g>
<!-- Node66&#45;&gt;Node48 -->
<g id="edge47" class="edge">
<title>Node66&#45;&gt;Node48</title>
<path fill="none" stroke="midnightblue" d="M955.8,-323.06C971.96,-319.73 990.36,-315.93 1006.77,-312.54"/>
<polygon fill="midnightblue" stroke="midnightblue" points="1007.61,-315.94 1016.7,-310.49 1006.2,-309.09 1007.61,-315.94"/>
</g>
<!-- Node49 -->
<g id="node43" class="node">
<title>Node49</title>
<g id="a_node43"><a xlink:href="class_span.html#acc0c9ba9f8d622e4e3f579350d4c2c0a" target="_top" xlink:title=" ">
<polygon fill="white" stroke="black" points="1021.5,-255.5 1021.5,-274.5 1086.5,-274.5 1086.5,-255.5 1021.5,-255.5"/>
<text text-anchor="middle" x="1054" y="-262.5" font-family="Helvetica,sans-Serif" font-size="10.00">Span::end</text>
</a>
</g>
</g>
<!-- Node66&#45;&gt;Node49 -->
<g id="edge48" class="edge">
<title>Node66&#45;&gt;Node49</title>
<path fill="none" stroke="midnightblue" d="M932.63,-322.4C956.52,-311.01 996.55,-291.92 1023.84,-278.91"/>
<polygon fill="midnightblue" stroke="midnightblue" points="1025.39,-282.05 1032.91,-274.58 1022.37,-275.73 1025.39,-282.05"/>
</g>
<!-- Node43 -->
<g id="node44" class="node">
<title>Node43</title>
<g id="a_node44"><a xlink:href="class_span.html#a14c28485a34145fb36bb08135ac6cf8f" target="_top" xlink:title=" ">
<polygon fill="white" stroke="black" points="1021,-350.5 1021,-369.5 1087,-369.5 1087,-350.5 1021,-350.5"/>
<text text-anchor="middle" x="1054" y="-357.5" font-family="Helvetica,sans-Serif" font-size="10.00">Span::size</text>
</a>
</g>
</g>
<!-- Node66&#45;&gt;Node43 -->
<g id="edge49" class="edge">
<title>Node66&#45;&gt;Node43</title>
<path fill="none" stroke="midnightblue" d="M955.8,-340.63C973.33,-344.12 993.49,-348.14 1010.89,-351.61"/>
<polygon fill="midnightblue" stroke="midnightblue" points="1010.28,-355.06 1020.77,-353.58 1011.65,-348.19 1010.28,-355.06"/>
</g>
<!-- Node68&#45;&gt;Node9 -->
<g id="edge52" class="edge">
<title>Node68&#45;&gt;Node9</title>
<path fill="none" stroke="midnightblue" d="M771.58,-379.61C782.27,-383.84 794.83,-388.98 806,-394 832.61,-405.96 862.33,-420.91 883.26,-431.71"/>
<polygon fill="midnightblue" stroke="midnightblue" points="881.72,-434.86 892.21,-436.35 884.94,-428.64 881.72,-434.86"/>
</g>
<!-- Node68&#45;&gt;Node43 -->
<g id="edge53" class="edge">
<title>Node68&#45;&gt;Node43</title>
<path fill="none" stroke="midnightblue" d="M784.08,-368.77C841.39,-366.9 950.27,-363.35 1010.42,-361.39"/>
<polygon fill="midnightblue" stroke="midnightblue" points="1010.83,-364.88 1020.71,-361.05 1010.6,-357.88 1010.83,-364.88"/>
</g>
<!-- Node72&#45;&gt;Node66 -->
<g id="edge56" class="edge">
<title>Node72&#45;&gt;Node66</title>
<path fill="none" stroke="midnightblue" d="M787.88,-303.59C809.62,-308.63 836.46,-314.84 859.47,-320.18"/>
<polygon fill="midnightblue" stroke="midnightblue" points="858.88,-323.63 869.41,-322.48 860.46,-316.81 858.88,-323.63"/>
</g>
<!-- Node72&#45;&gt;Node48 -->
<g id="edge55" class="edge">
<title>Node72&#45;&gt;Node48</title>
<path fill="none" stroke="midnightblue" d="M787.52,-295.2C844.45,-296.88 947.14,-299.89 1006.74,-301.64"/>
<polygon fill="midnightblue" stroke="midnightblue" points="1006.89,-305.15 1016.99,-301.94 1007.1,-298.15 1006.89,-305.15"/>
</g>
<!-- Node72&#45;&gt;Node49 -->
<g id="edge57" class="edge">
<title>Node72&#45;&gt;Node49</title>
<path fill="none" stroke="midnightblue" d="M787.52,-290.12C845.84,-284.6 952.17,-274.54 1011.01,-268.97"/>
<polygon fill="midnightblue" stroke="midnightblue" points="1011.45,-272.45 1021.08,-268.02 1010.79,-265.48 1011.45,-272.45"/>
</g>
<!-- Node75 -->
<g id="node50" class="node">
<title>Node75</title>
<g id="a_node50"><a xlink:href="namespacefsbridge.html#a19c84cec4ae9accfbc88a83e48f7ee92" target="_top" xlink:title=" ">
<polygon fill="white" stroke="black" points="346.5,-0.5 346.5,-19.5 436.5,-19.5 436.5,-0.5 346.5,-0.5"/>
<text text-anchor="middle" x="391.5" y="-7.5" font-family="Helvetica,sans-Serif" font-size="10.00">fsbridge::fopen</text>
</a>
</g>
</g>
<!-- Node74&#45;&gt;Node75 -->
<g id="edge60" class="edge">
<title>Node74&#45;&gt;Node75</title>
<path fill="none" stroke="midnightblue" d="M253.96,-26.51C278.87,-23.49 309.91,-19.74 336.1,-16.58"/>
<polygon fill="midnightblue" stroke="midnightblue" points="336.74,-20.02 346.25,-15.35 335.9,-13.07 336.74,-20.02"/>
</g>
<!-- Node75&#45;&gt;Node75 -->
<g id="edge61" class="edge">
<title>Node75&#45;&gt;Node75</title>
<path fill="none" stroke="midnightblue" d="M363.14,-19.76C349.34,-28.57 358.8,-38 391.5,-38 413.98,-38 425.48,-33.54 425.98,-27.89"/>
<polygon fill="midnightblue" stroke="midnightblue" points="428.67,-25.64 419.86,-19.76 423.08,-29.85 428.67,-25.64"/>
</g>
</g>
</svg>
