<?xml version="1.0" encoding="UTF-8" standalone="no"?>
<!DOCTYPE svg PUBLIC "-//W3C//DTD SVG 1.1//EN"
 "http://www.w3.org/Graphics/SVG/1.1/DTD/svg11.dtd">
<!-- Generated by graphviz version 2.38.0 (20140413.2041)
 -->
<!-- Title: CPubKey::ValidSize Pages: 1 -->
<svg width="1204pt" height="349pt"
 viewBox="0.00 0.00 1204.00 348.88" xmlns="http://www.w3.org/2000/svg" xmlns:xlink="http://www.w3.org/1999/xlink">
<g id="graph0" class="graph" transform="scale(1 1) rotate(0) translate(4 344.877)">
<title>CPubKey::ValidSize</title>
<polygon fill="white" stroke="none" points="-4,4 -4,-344.877 1200,-344.877 1200,4 -4,4"/>
<!-- Node1 -->
<g id="node1" class="node"><title>Node1</title>
<polygon fill="#bfbfbf" stroke="black" points="0,-220.377 0,-239.377 106,-239.377 106,-220.377 0,-220.377"/>
<text text-anchor="middle" x="53" y="-227.377" font-family="Helvetica,sans-Serif" font-size="10.00">CPubKey::ValidSize</text>
</g>
<!-- Node2 -->
<g id="node2" class="node"><title>Node2</title>
<g id="a_node2"><a xlink:href="class_c_basic_key_store.html#a7dc20df2337bca743b7323b76e626e20" target="_top" xlink:title="CBasicKeyStore::GetCScript">
<polygon fill="white" stroke="black" points="142,-255.377 142,-274.377 291,-274.377 291,-255.377 142,-255.377"/>
<text text-anchor="middle" x="216.5" y="-262.377" font-family="Helvetica,sans-Serif" font-size="10.00">CBasicKeyStore::GetCScript</text>
</a>
</g>
</g>
<!-- Node1&#45;&gt;Node2 -->
<g id="edge1" class="edge"><title>Node1&#45;&gt;Node2</title>
<path fill="none" stroke="midnightblue" d="M108.01,-241.582C128.618,-246.048 151.846,-251.082 171.423,-255.325"/>
<polygon fill="midnightblue" stroke="midnightblue" points="108.645,-238.138 98.1306,-239.441 107.162,-244.98 108.645,-238.138"/>
</g>
<!-- Node8 -->
<g id="node8" class="node"><title>Node8</title>
<g id="a_node8"><a xlink:href="standard_8h.html#a998a2df1a42dc68c4cffa9933aa713c2" target="_top" xlink:title="Get the name of a txnouttype as a C string, or nullptr if unknown. ">
<polygon fill="white" stroke="black" points="164.5,-164.377 164.5,-183.377 268.5,-183.377 268.5,-164.377 164.5,-164.377"/>
<text text-anchor="middle" x="216.5" y="-171.377" font-family="Helvetica,sans-Serif" font-size="10.00">GetTxnOutputType</text>
</a>
</g>
</g>
<!-- Node1&#45;&gt;Node8 -->
<g id="edge7" class="edge"><title>Node1&#45;&gt;Node8</title>
<path fill="none" stroke="midnightblue" d="M91.3266,-216.934C120.883,-206.685 161.487,-192.606 188.099,-183.378"/>
<polygon fill="midnightblue" stroke="midnightblue" points="90.0643,-213.667 81.7628,-220.25 92.3576,-220.281 90.0643,-213.667"/>
</g>
<!-- Node3 -->
<g id="node3" class="node"><title>Node3</title>
<g id="a_node3"><a xlink:href="wallet__tests_8cpp.html#a73ce3a42e0b56b2e4516e55871d8590e" target="_top" xlink:title="dumpwallet">
<polygon fill="white" stroke="black" points="369,-321.377 369,-340.377 440,-340.377 440,-321.377 369,-321.377"/>
<text text-anchor="middle" x="404.5" y="-328.377" font-family="Helvetica,sans-Serif" font-size="10.00">dumpwallet</text>
</a>
</g>
</g>
<!-- Node2&#45;&gt;Node3 -->
<g id="edge2" class="edge"><title>Node2&#45;&gt;Node3</title>
<path fill="none" stroke="midnightblue" d="M246.638,-278.919C268.416,-289.034 299.113,-302.498 327,-311.877 340.49,-316.414 355.644,-320.4 368.885,-323.535"/>
<polygon fill="midnightblue" stroke="midnightblue" points="247.841,-275.617 237.302,-274.534 244.865,-281.953 247.841,-275.617"/>
</g>
<!-- Node5 -->
<g id="node5" class="node"><title>Node5</title>
<g id="a_node5"><a xlink:href="rpcwallet_8cpp.html#a74b85c92ee6a84277c73b74f2e212bff" target="_top" xlink:title="listtransactions">
<polygon fill="white" stroke="black" points="550.5,-252.377 550.5,-271.377 639.5,-271.377 639.5,-252.377 550.5,-252.377"/>
<text text-anchor="middle" x="595" y="-259.377" font-family="Helvetica,sans-Serif" font-size="10.00">listtransactions</text>
</a>
</g>
</g>
<!-- Node2&#45;&gt;Node5 -->
<g id="edge4" class="edge"><title>Node2&#45;&gt;Node5</title>
<path fill="none" stroke="midnightblue" d="M301.29,-263.222C309.972,-263.088 318.664,-262.969 327,-262.877 405.566,-262.012 497.143,-261.854 550.06,-261.846"/>
<polygon fill="midnightblue" stroke="midnightblue" points="301.066,-259.725 291.124,-263.386 301.179,-266.724 301.066,-259.725"/>
</g>
<!-- Node7 -->
<g id="node7" class="node"><title>Node7</title>
<g id="a_node7"><a xlink:href="class_describe_wallet_address_visitor.html#ac97f51f2fed922f29efe84df174fc73f" target="_top" xlink:title="DescribeWalletAddressVisitor\l::operator()">
<polygon fill="white" stroke="black" points="327,-271.877 327,-301.877 482,-301.877 482,-271.877 327,-271.877"/>
<text text-anchor="start" x="335" y="-289.877" font-family="Helvetica,sans-Serif" font-size="10.00">DescribeWalletAddressVisitor</text>
<text text-anchor="middle" x="404.5" y="-278.877" font-family="Helvetica,sans-Serif" font-size="10.00">::operator()</text>
</a>
</g>
</g>
<!-- Node2&#45;&gt;Node7 -->
<g id="edge6" class="edge"><title>Node2&#45;&gt;Node7</title>
<path fill="none" stroke="midnightblue" d="M301.036,-274.758C309.634,-275.775 318.34,-276.804 326.857,-277.812"/>
<polygon fill="midnightblue" stroke="midnightblue" points="301.354,-271.271 291.012,-273.572 300.532,-278.222 301.354,-271.271"/>
</g>
<!-- Node4 -->
<g id="node4" class="node"><title>Node4</title>
<g id="a_node4"><a xlink:href="wallet__tests_8cpp.html#a2a726fa52b0a343883cb50a3f68d0989" target="_top" xlink:title="BOOST_FIXTURE_TEST_CASE">
<polygon fill="white" stroke="black" points="518,-321.377 518,-340.377 672,-340.377 672,-321.377 518,-321.377"/>
<text text-anchor="middle" x="595" y="-328.377" font-family="Helvetica,sans-Serif" font-size="10.00">BOOST_FIXTURE_TEST_CASE</text>
</a>
</g>
</g>
<!-- Node3&#45;&gt;Node4 -->
<g id="edge3" class="edge"><title>Node3&#45;&gt;Node4</title>
<path fill="none" stroke="midnightblue" d="M450.224,-330.877C470.432,-330.877 494.882,-330.877 517.843,-330.877"/>
<polygon fill="midnightblue" stroke="midnightblue" points="450.074,-327.377 440.074,-330.877 450.074,-334.377 450.074,-327.377"/>
</g>
<!-- Node6 -->
<g id="node6" class="node"><title>Node6</title>
<g id="a_node6"><a xlink:href="rpcwallet_8cpp.html#afca55ac7a3c6c274b8b7b3e6eab9cd86" target="_top" xlink:title="walletcreatefundedpsbt">
<polygon fill="white" stroke="black" points="910,-204.377 910,-223.377 1038,-223.377 1038,-204.377 910,-204.377"/>
<text text-anchor="middle" x="974" y="-211.377" font-family="Helvetica,sans-Serif" font-size="10.00">walletcreatefundedpsbt</text>
</a>
</g>
</g>
<!-- Node5&#45;&gt;Node6 -->
<g id="edge5" class="edge"><title>Node5&#45;&gt;Node6</title>
<path fill="none" stroke="midnightblue" d="M649.669,-268.539C706.241,-273.979 797.571,-278.243 874,-260.877 905.911,-253.626 939.632,-234.902 958.325,-223.395"/>
<polygon fill="midnightblue" stroke="midnightblue" points="649.823,-265.037 639.522,-267.515 649.12,-272.002 649.823,-265.037"/>
</g>
<!-- Node9 -->
<g id="node9" class="node"><title>Node9</title>
<g id="a_node9"><a xlink:href="core__write_8cpp.html#a0008f40d9c179d229ead567d0d356023" target="_top" xlink:title="ScriptToUniv">
<polygon fill="white" stroke="black" points="557.5,-214.377 557.5,-233.377 632.5,-233.377 632.5,-214.377 557.5,-214.377"/>
<text text-anchor="middle" x="595" y="-221.377" font-family="Helvetica,sans-Serif" font-size="10.00">ScriptToUniv</text>
</a>
</g>
</g>
<!-- Node8&#45;&gt;Node9 -->
<g id="edge8" class="edge"><title>Node8&#45;&gt;Node9</title>
<path fill="none" stroke="midnightblue" d="M278.968,-182.04C358.018,-192.538 492.794,-210.437 557.38,-219.014"/>
<polygon fill="midnightblue" stroke="midnightblue" points="279.042,-178.519 268.668,-180.672 278.12,-185.458 279.042,-178.519"/>
</g>
<!-- Node12 -->
<g id="node12" class="node"><title>Node12</title>
<g id="a_node12"><a xlink:href="core__write_8cpp.html#a4a51bf7268adbdcd58e7af445ea4db61" target="_top" xlink:title="ScriptPubKeyToUniv">
<polygon fill="white" stroke="black" points="349.5,-143.377 349.5,-162.377 459.5,-162.377 459.5,-143.377 349.5,-143.377"/>
<text text-anchor="middle" x="404.5" y="-150.377" font-family="Helvetica,sans-Serif" font-size="10.00">ScriptPubKeyToUniv</text>
</a>
</g>
</g>
<!-- Node8&#45;&gt;Node12 -->
<g id="edge11" class="edge"><title>Node8&#45;&gt;Node12</title>
<path fill="none" stroke="midnightblue" d="M279.047,-166.928C301.795,-164.36 327.39,-161.47 349.427,-158.982"/>
<polygon fill="midnightblue" stroke="midnightblue" points="278.362,-163.483 268.818,-168.083 279.147,-170.439 278.362,-163.483"/>
</g>
<!-- Node22 -->
<g id="node22" class="node"><title>Node22</title>
<g id="a_node22"><a xlink:href="class_describe_wallet_address_visitor.html#a2c09871e09eca1fb0cd59706143cf733" target="_top" xlink:title="DescribeWalletAddressVisitor\l::ProcessSubScript">
<polygon fill="white" stroke="black" points="327,-93.877 327,-123.877 482,-123.877 482,-93.877 327,-93.877"/>
<text text-anchor="start" x="335" y="-111.877" font-family="Helvetica,sans-Serif" font-size="10.00">DescribeWalletAddressVisitor</text>
<text text-anchor="middle" x="404.5" y="-100.877" font-family="Helvetica,sans-Serif" font-size="10.00">::ProcessSubScript</text>
</a>
</g>
</g>
<!-- Node8&#45;&gt;Node22 -->
<g id="edge30" class="edge"><title>Node8&#45;&gt;Node22</title>
<path fill="none" stroke="midnightblue" d="M252.721,-160.662C274.134,-152.715 302.067,-142.502 327,-133.877 336.507,-130.588 346.718,-127.172 356.485,-123.96"/>
<polygon fill="midnightblue" stroke="midnightblue" points="251.227,-157.483 243.076,-164.252 253.669,-164.044 251.227,-157.483"/>
</g>
<!-- Node10 -->
<g id="node10" class="node"><title>Node10</title>
<g id="a_node10"><a xlink:href="rawtransaction_8cpp.html#a0e9b5930a41831d5be26d74565f07340" target="_top" xlink:title="decodepsbt">
<polygon fill="white" stroke="black" points="754.5,-232.377 754.5,-251.377 827.5,-251.377 827.5,-232.377 754.5,-232.377"/>
<text text-anchor="middle" x="791" y="-239.377" font-family="Helvetica,sans-Serif" font-size="10.00">decodepsbt</text>
</a>
</g>
</g>
<!-- Node9&#45;&gt;Node10 -->
<g id="edge9" class="edge"><title>Node9&#45;&gt;Node10</title>
<path fill="none" stroke="midnightblue" d="M643.169,-228.254C677.374,-231.427 722.929,-235.654 754.175,-238.553"/>
<polygon fill="midnightblue" stroke="midnightblue" points="643.227,-224.744 632.947,-227.305 642.58,-231.714 643.227,-224.744"/>
</g>
<!-- Node11 -->
<g id="node11" class="node"><title>Node11</title>
<g id="a_node11"><a xlink:href="rawtransaction_8cpp.html#ad42de5fabb97fd8179f7874ccaae708a" target="_top" xlink:title="analyzepsbt">
<polygon fill="white" stroke="black" points="1098,-204.377 1098,-223.377 1172,-223.377 1172,-204.377 1098,-204.377"/>
<text text-anchor="middle" x="1135" y="-211.377" font-family="Helvetica,sans-Serif" font-size="10.00">analyzepsbt</text>
</a>
</g>
</g>
<!-- Node10&#45;&gt;Node11 -->
<g id="edge10" class="edge"><title>Node10&#45;&gt;Node11</title>
<path fill="none" stroke="midnightblue" d="M837.644,-242.368C887.157,-242.397 968.448,-240.98 1038,-232.877 1057.91,-230.557 1079.87,-226.339 1097.75,-222.466"/>
<polygon fill="midnightblue" stroke="midnightblue" points="837.586,-238.868 827.576,-242.342 837.567,-245.868 837.586,-238.868"/>
</g>
<!-- Node13 -->
<g id="node13" class="node"><title>Node13</title>
<g id="a_node13"><a xlink:href="core__write_8cpp.html#a14497f9c37438be66cf5904854fc2530" target="_top" xlink:title="TxToUniv">
<polygon fill="white" stroke="black" points="566,-138.377 566,-157.377 624,-157.377 624,-138.377 566,-138.377"/>
<text text-anchor="middle" x="595" y="-145.377" font-family="Helvetica,sans-Serif" font-size="10.00">TxToUniv</text>
</a>
</g>
</g>
<!-- Node12&#45;&gt;Node13 -->
<g id="edge12" class="edge"><title>Node12&#45;&gt;Node13</title>
<path fill="none" stroke="midnightblue" d="M469.917,-151.168C502.6,-150.301 540.618,-149.293 565.873,-148.623"/>
<polygon fill="midnightblue" stroke="midnightblue" points="469.42,-147.68 459.517,-151.444 469.606,-154.678 469.42,-147.68"/>
</g>
<!-- Node15 -->
<g id="node15" class="node"><title>Node15</title>
<g id="a_node15"><a xlink:href="struct_c_coin.html#a2a0a2532bdacb03b087b3b0a400830ec" target="_top" xlink:title="CCoin::SerializationOp">
<polygon fill="white" stroke="black" points="1074,-25.377 1074,-44.377 1196,-44.377 1196,-25.377 1074,-25.377"/>
<text text-anchor="middle" x="1135" y="-32.377" font-family="Helvetica,sans-Serif" font-size="10.00">CCoin::SerializationOp</text>
</a>
</g>
</g>
<!-- Node12&#45;&gt;Node15 -->
<g id="edge26" class="edge"><title>Node12&#45;&gt;Node15</title>
<path fill="none" stroke="midnightblue" d="M468.859,-142.24C473.581,-139.956 478.039,-137.2 482,-133.877 512.182,-108.558 487.806,-78.1819 518,-52.877 584.671,2.99922 621.649,-16.3987 708,-5.877 843.397,10.6208 1004.23,-11.5784 1083.99,-25.3705"/>
<polygon fill="midnightblue" stroke="midnightblue" points="467.436,-139.04 459.513,-146.075 470.093,-145.516 467.436,-139.04"/>
</g>
<!-- Node18 -->
<g id="node18" class="node"><title>Node18</title>
<g id="a_node18"><a xlink:href="rawtransaction_8h.html#aee85a5d91a985f7e1bc1b4a124870ab3" target="_top" xlink:title="Create a transaction from univalue parameters. ">
<polygon fill="white" stroke="black" points="732.5,-176.377 732.5,-195.377 849.5,-195.377 849.5,-176.377 732.5,-176.377"/>
<text text-anchor="middle" x="791" y="-183.377" font-family="Helvetica,sans-Serif" font-size="10.00">ConstructTransaction</text>
</a>
</g>
</g>
<!-- Node12&#45;&gt;Node18 -->
<g id="edge29" class="edge"><title>Node12&#45;&gt;Node18</title>
<path fill="none" stroke="midnightblue" d="M469.697,-161.474C485.473,-163.419 502.332,-165.356 518,-166.877 591.854,-174.047 677.243,-179.56 732.352,-182.757"/>
<polygon fill="midnightblue" stroke="midnightblue" points="469.867,-157.968 459.509,-160.199 468.997,-164.914 469.867,-157.968"/>
</g>
<!-- Node20 -->
<g id="node20" class="node"><title>Node20</title>
<g id="a_node20"><a xlink:href="blockchain_8cpp.html#a0d3ec9ae23b08828dd7ca646766ca637" target="_top" xlink:title="gettxout">
<polygon fill="white" stroke="black" points="566.5,-62.377 566.5,-81.377 623.5,-81.377 623.5,-62.377 566.5,-62.377"/>
<text text-anchor="middle" x="595" y="-69.377" font-family="Helvetica,sans-Serif" font-size="10.00">gettxout</text>
</a>
</g>
</g>
<!-- Node12&#45;&gt;Node20 -->
<g id="edge27" class="edge"><title>Node12&#45;&gt;Node20</title>
<path fill="none" stroke="midnightblue" d="M462.13,-140.597C468.91,-138.605 475.668,-136.366 482,-133.877 519.025,-119.324 559.031,-94.8101 579.747,-81.3802"/>
<polygon fill="midnightblue" stroke="midnightblue" points="460.931,-137.297 452.228,-143.339 462.8,-144.043 460.931,-137.297"/>
</g>
<!-- Node13&#45;&gt;Node10 -->
<g id="edge25" class="edge"><title>Node13&#45;&gt;Node10</title>
<path fill="none" stroke="midnightblue" d="M615.215,-163.951C636.568,-181.015 672.709,-207.586 708,-222.877 722.615,-229.21 739.651,-233.594 754.395,-236.542"/>
<polygon fill="midnightblue" stroke="midnightblue" points="617.239,-161.086 607.272,-157.494 612.824,-166.518 617.239,-161.086"/>
</g>
<!-- Node14 -->
<g id="node14" class="node"><title>Node14</title>
<g id="a_node14"><a xlink:href="class_secp256k1_init.html#afc30fc1b48da30544d3365df6ed3e3f4" target="_top" xlink:title="Secp256k1Init::~Secp256k1Init">
<polygon fill="white" stroke="black" points="708,-138.377 708,-157.377 874,-157.377 874,-138.377 708,-138.377"/>
<text text-anchor="middle" x="791" y="-145.377" font-family="Helvetica,sans-Serif" font-size="10.00">Secp256k1Init::~Secp256k1Init</text>
</a>
</g>
</g>
<!-- Node13&#45;&gt;Node14 -->
<g id="edge13" class="edge"><title>Node13&#45;&gt;Node14</title>
<path fill="none" stroke="midnightblue" d="M634.305,-147.877C655.285,-147.877 682.135,-147.877 707.609,-147.877"/>
<polygon fill="midnightblue" stroke="midnightblue" points="634.209,-144.377 624.209,-147.877 634.209,-151.377 634.209,-144.377"/>
</g>
<!-- Node13&#45;&gt;Node15 -->
<g id="edge14" class="edge"><title>Node13&#45;&gt;Node15</title>
<path fill="none" stroke="midnightblue" d="M634.111,-140.892C655.738,-137.059 683.334,-132.387 708,-128.877 854.164,-108.079 897.922,-137.509 1038,-90.877 1070.4,-80.0897 1103.89,-57.4489 1121.47,-44.5025"/>
<polygon fill="midnightblue" stroke="midnightblue" points="633.24,-137.493 624.012,-142.698 634.472,-144.383 633.24,-137.493"/>
</g>
<!-- Node16 -->
<g id="node16" class="node"><title>Node16</title>
<g id="a_node16"><a xlink:href="blockchain_8h.html#a9963929b421fa4f0b8b7b31c1cbbbb9d" target="_top" xlink:title="Block description to JSON. ">
<polygon fill="white" stroke="black" points="753.5,-53.377 753.5,-72.377 828.5,-72.377 828.5,-53.377 753.5,-53.377"/>
<text text-anchor="middle" x="791" y="-60.377" font-family="Helvetica,sans-Serif" font-size="10.00">blockToJSON</text>
</a>
</g>
</g>
<!-- Node13&#45;&gt;Node16 -->
<g id="edge15" class="edge"><title>Node13&#45;&gt;Node16</title>
<path fill="none" stroke="midnightblue" d="M625.006,-133.904C647.508,-123.188 679.553,-108.195 708,-95.877 727.011,-87.645 748.775,-78.9182 765.101,-72.5077"/>
<polygon fill="midnightblue" stroke="midnightblue" points="623.2,-130.889 615.686,-138.358 626.218,-137.204 623.2,-130.889"/>
</g>
<!-- Node13&#45;&gt;Node18 -->
<g id="edge20" class="edge"><title>Node13&#45;&gt;Node18</title>
<path fill="none" stroke="midnightblue" d="M634.111,-155.342C664.842,-161.361 708.259,-169.866 741.472,-176.371"/>
<polygon fill="midnightblue" stroke="midnightblue" points="634.696,-151.89 624.209,-153.403 633.35,-158.76 634.696,-151.89"/>
</g>
<!-- Node16&#45;&gt;Node15 -->
<g id="edge16" class="edge"><title>Node16&#45;&gt;Node15</title>
<path fill="none" stroke="midnightblue" d="M838.677,-52.2088C850.23,-49.5277 862.572,-46.6292 874,-43.877 890.034,-40.0155 893.631,-36.8921 910,-34.877 965.194,-28.0823 1028.62,-28.8785 1073.86,-30.9053"/>
<polygon fill="midnightblue" stroke="midnightblue" points="837.724,-48.8368 828.769,-54.4999 839.301,-55.6568 837.724,-48.8368"/>
</g>
<!-- Node17 -->
<g id="node17" class="node"><title>Node17</title>
<g id="a_node17"><a xlink:href="blockchain_8h.html#af764b4341f499ae302549b200056c076" target="_top" xlink:title="Mempool to JSON. ">
<polygon fill="white" stroke="black" points="926.5,-44.377 926.5,-63.377 1021.5,-63.377 1021.5,-44.377 926.5,-44.377"/>
<text text-anchor="middle" x="974" y="-51.377" font-family="Helvetica,sans-Serif" font-size="10.00">MempoolToJSON</text>
</a>
</g>
</g>
<!-- Node16&#45;&gt;Node17 -->
<g id="edge17" class="edge"><title>Node16&#45;&gt;Node17</title>
<path fill="none" stroke="midnightblue" d="M838.963,-60.5418C865.89,-59.2029 899.567,-57.5284 926.428,-56.1927"/>
<polygon fill="midnightblue" stroke="midnightblue" points="838.442,-57.0633 828.628,-61.0557 838.79,-64.0547 838.442,-57.0633"/>
</g>
<!-- Node17&#45;&gt;Node15 -->
<g id="edge18" class="edge"><title>Node17&#45;&gt;Node15</title>
<path fill="none" stroke="midnightblue" d="M1032.03,-47.0625C1045.62,-45.4378 1060.17,-43.699 1073.9,-42.0584"/>
<polygon fill="midnightblue" stroke="midnightblue" points="1031.36,-43.6172 1021.85,-48.2791 1032.19,-50.5678 1031.36,-43.6172"/>
</g>
<!-- Node17&#45;&gt;Node17 -->
<g id="edge19" class="edge"><title>Node17&#45;&gt;Node17</title>
<path fill="none" stroke="midnightblue" d="M944.06,-72.1516C944.914,-77.618 954.894,-81.877 974,-81.877 1002.44,-81.877 1010.66,-72.4423 998.661,-63.6341"/>
<polygon fill="midnightblue" stroke="midnightblue" points="947.046,-73.9777 949.339,-63.6341 941.096,-70.2898 947.046,-73.9777"/>
</g>
<!-- Node18&#45;&gt;Node6 -->
<g id="edge24" class="edge"><title>Node18&#45;&gt;Node6</title>
<path fill="none" stroke="midnightblue" d="M860.091,-196.41C876.938,-199.017 894.891,-201.794 911.408,-204.349"/>
<polygon fill="midnightblue" stroke="midnightblue" points="860.185,-192.883 849.767,-194.813 859.115,-199.801 860.185,-192.883"/>
</g>
<!-- Node18&#45;&gt;Node18 -->
<g id="edge21" class="edge"><title>Node18&#45;&gt;Node18</title>
<path fill="none" stroke="midnightblue" d="M756.892,-203.768C757.392,-209.418 768.761,-213.877 791,-213.877 823.348,-213.877 832.698,-204.442 819.051,-195.634"/>
<polygon fill="midnightblue" stroke="midnightblue" points="759.784,-205.745 762.949,-195.634 754.169,-201.565 759.784,-205.745"/>
</g>
<!-- Node19 -->
<g id="node19" class="node"><title>Node19</title>
<g id="a_node19"><a xlink:href="rawtransaction_8cpp.html#ab96b0b3cf82a8f50975ee74c26c4dbf8" target="_top" xlink:title="createpsbt">
<polygon fill="white" stroke="black" points="940,-166.377 940,-185.377 1008,-185.377 1008,-166.377 940,-166.377"/>
<text text-anchor="middle" x="974" y="-173.377" font-family="Helvetica,sans-Serif" font-size="10.00">createpsbt</text>
</a>
</g>
</g>
<!-- Node18&#45;&gt;Node19 -->
<g id="edge22" class="edge"><title>Node18&#45;&gt;Node19</title>
<path fill="none" stroke="midnightblue" d="M860.081,-182.116C887.424,-180.605 917.68,-178.933 939.986,-177.701"/>
<polygon fill="midnightblue" stroke="midnightblue" points="859.559,-178.639 849.767,-182.685 859.945,-185.628 859.559,-178.639"/>
</g>
<!-- Node19&#45;&gt;Node11 -->
<g id="edge23" class="edge"><title>Node19&#45;&gt;Node11</title>
<path fill="none" stroke="midnightblue" d="M1018.28,-186.219C1043.25,-192.189 1074.3,-199.609 1097.95,-205.26"/>
<polygon fill="midnightblue" stroke="midnightblue" points="1018.87,-182.763 1008.33,-183.843 1017.24,-189.572 1018.87,-182.763"/>
</g>
<!-- Node21 -->
<g id="node21" class="node"><title>Node21</title>
<g id="a_node21"><a xlink:href="blockchain_8cpp.html#af8ae2be64c52204527fac00aefc1151c" target="_top" xlink:title="scantxoutset">
<polygon fill="white" stroke="black" points="751.5,-15.377 751.5,-34.377 830.5,-34.377 830.5,-15.377 751.5,-15.377"/>
<text text-anchor="middle" x="791" y="-22.377" font-family="Helvetica,sans-Serif" font-size="10.00">scantxoutset</text>
</a>
</g>
</g>
<!-- Node20&#45;&gt;Node21 -->
<g id="edge28" class="edge"><title>Node20&#45;&gt;Node21</title>
<path fill="none" stroke="midnightblue" d="M633.413,-62.3519C655.161,-56.8582 683.104,-49.8728 708,-43.877 722.065,-40.4897 737.515,-36.8807 751.175,-33.7282"/>
<polygon fill="midnightblue" stroke="midnightblue" points="632.419,-58.9931 623.584,-64.8399 634.137,-65.7791 632.419,-58.9931"/>
</g>
</g>
</svg>
