<?xml version="1.0" encoding="UTF-8" standalone="no"?>
<!DOCTYPE svg PUBLIC "-//W3C//DTD SVG 1.1//EN"
 "http://www.w3.org/Graphics/SVG/1.1/DTD/svg11.dtd">
<!-- Generated by graphviz version 2.49.3 (0)
 -->
<!-- Title: WalletModel::encryptionStatusChanged Pages: 1 -->
<svg width="358pt" height="66pt"
 viewBox="0.00 0.00 358.00 66.00" xmlns="http://www.w3.org/2000/svg" xmlns:xlink="http://www.w3.org/1999/xlink">
<g id="graph0" class="graph" transform="scale(1 1) rotate(0) translate(4 62)">
<title>WalletModel::encryptionStatusChanged</title>
<polygon fill="white" stroke="transparent" points="-4,4 -4,-62 354,-62 354,4 -4,4"/>
<!-- Node1 -->
<g id="node1" class="node">
<title>Node1</title>
<g id="a_node1"><a xlink:title=" ">
<polygon fill="#bfbfbf" stroke="black" points="184,-14 184,-44 350,-44 350,-14 184,-14"/>
<text text-anchor="start" x="192" y="-32" font-family="Helvetica,sans-Serif" font-size="10.00">WalletModel::encryptionStatus</text>
<text text-anchor="middle" x="267" y="-21" font-family="Helvetica,sans-Serif" font-size="10.00">Changed</text>
</a>
</g>
</g>
<!-- Node2 -->
<g id="node2" class="node">
<title>Node2</title>
<g id="a_node2"><a xlink:href="class_wallet_model.html#a89180a13e5b0c2ca7732164b9dec3806" target="_top" xlink:title=" ">
<polygon fill="white" stroke="black" points="0,-38.5 0,-57.5 148,-57.5 148,-38.5 0,-38.5"/>
<text text-anchor="middle" x="74" y="-45.5" font-family="Helvetica,sans-Serif" font-size="10.00">WalletModel::updateStatus</text>
</a>
</g>
</g>
<!-- Node1&#45;&gt;Node2 -->
<g id="edge1" class="edge">
<title>Node1&#45;&gt;Node2</title>
<path fill="none" stroke="midnightblue" d="M173.77,-38.17C165.13,-39.03 156.44,-39.9 148.01,-40.74"/>
<polygon fill="midnightblue" stroke="midnightblue" points="174.29,-41.64 183.89,-37.17 173.59,-34.68 174.29,-41.64"/>
</g>
<!-- Node3 -->
<g id="node3" class="node">
<title>Node3</title>
<g id="a_node3"><a xlink:href="class_wallet_view.html#a79d29a17c35d1abb09c5898d2d4f2220" target="_top" xlink:title=" ">
<polygon fill="white" stroke="black" points="8.5,-0.5 8.5,-19.5 139.5,-19.5 139.5,-0.5 8.5,-0.5"/>
<text text-anchor="middle" x="74" y="-7.5" font-family="Helvetica,sans-Serif" font-size="10.00">WalletView::WalletView</text>
</a>
</g>
</g>
<!-- Node1&#45;&gt;Node3 -->
<g id="edge2" class="edge">
<title>Node1&#45;&gt;Node3</title>
<path fill="none" stroke="midnightblue" d="M173.81,-19.83C162.29,-18.68 150.72,-17.53 139.75,-16.44"/>
<polygon fill="midnightblue" stroke="midnightblue" points="173.59,-23.32 183.89,-20.83 174.29,-16.36 173.59,-23.32"/>
</g>
</g>
</svg>
