<?xml version="1.0" encoding="UTF-8" standalone="no"?>
<!DOCTYPE svg PUBLIC "-//W3C//DTD SVG 1.1//EN"
 "http://www.w3.org/Graphics/SVG/1.1/DTD/svg11.dtd">
<!-- Generated by graphviz version 2.38.0 (20140413.2041)
 -->
<!-- Title: BitcoinGUI::showModalOverlay Pages: 1 -->
<svg width="867pt" height="178pt"
 viewBox="0.00 0.00 867.00 177.50" xmlns="http://www.w3.org/2000/svg" xmlns:xlink="http://www.w3.org/1999/xlink">
<g id="graph0" class="graph" transform="scale(1 1) rotate(0) translate(4 173.5)">
<title>BitcoinGUI::showModalOverlay</title>
<polygon fill="white" stroke="none" points="-4,4 -4,-173.5 863,-173.5 863,4 -4,4"/>
<!-- Node1 -->
<g id="node1" class="node"><title>Node1</title>
<polygon fill="#bfbfbf" stroke="black" points="0,-93 0,-112 161,-112 161,-93 0,-93"/>
<text text-anchor="middle" x="80.5" y="-100" font-family="Helvetica,sans-Serif" font-size="10.00">BitcoinGUI::showModalOverlay</text>
</g>
<!-- Node2 -->
<g id="node2" class="node"><title>Node2</title>
<g id="a_node2"><a xlink:href="class_modal_overlay.html#aca00bd817d89c022d4efb28c515fb4fa" target="_top" xlink:title="ModalOverlay::isLayerVisible">
<polygon fill="white" stroke="black" points="199,-150 199,-169 350,-169 350,-150 199,-150"/>
<text text-anchor="middle" x="274.5" y="-157" font-family="Helvetica,sans-Serif" font-size="10.00">ModalOverlay::isLayerVisible</text>
</a>
</g>
</g>
<!-- Node1&#45;&gt;Node2 -->
<g id="edge1" class="edge"><title>Node1&#45;&gt;Node2</title>
<path fill="none" stroke="midnightblue" d="M108.859,-112.139C132.15,-120.191 166.575,-131.73 197,-140.5 205.222,-142.87 213.992,-145.216 222.552,-147.408"/>
<polygon fill="midnightblue" stroke="midnightblue" points="221.905,-150.855 232.457,-149.903 223.615,-144.067 221.905,-150.855"/>
</g>
<!-- Node3 -->
<g id="node3" class="node"><title>Node3</title>
<g id="a_node3"><a xlink:href="class_modal_overlay.html#a417f7a13143484ec7813f23a81691a0c" target="_top" xlink:title="ModalOverlay::toggleVisibility">
<polygon fill="white" stroke="black" points="197,-112 197,-131 352,-131 352,-112 197,-112"/>
<text text-anchor="middle" x="274.5" y="-119" font-family="Helvetica,sans-Serif" font-size="10.00">ModalOverlay::toggleVisibility</text>
</a>
</g>
</g>
<!-- Node1&#45;&gt;Node3 -->
<g id="edge2" class="edge"><title>Node1&#45;&gt;Node3</title>
<path fill="none" stroke="midnightblue" d="M161.257,-110.393C169.608,-111.219 178.127,-112.062 186.552,-112.896"/>
<polygon fill="midnightblue" stroke="midnightblue" points="186.469,-116.405 196.765,-113.906 187.158,-109.439 186.469,-116.405"/>
</g>
<!-- Node5 -->
<g id="node5" class="node"><title>Node5</title>
<g id="a_node5"><a xlink:href="class_bitcoin_g_u_i.html#ad3d278358e571a9b70ee99dacaeaa0f5" target="_top" xlink:title="Notify the user of an event from the core network or transaction handling code. ">
<polygon fill="white" stroke="black" points="216.5,-74 216.5,-93 332.5,-93 332.5,-74 216.5,-74"/>
<text text-anchor="middle" x="274.5" y="-81" font-family="Helvetica,sans-Serif" font-size="10.00">BitcoinGUI::message</text>
</a>
</g>
</g>
<!-- Node1&#45;&gt;Node5 -->
<g id="edge4" class="edge"><title>Node1&#45;&gt;Node5</title>
<path fill="none" stroke="midnightblue" d="M161.257,-94.6074C176.098,-93.1388 191.472,-91.6174 205.904,-90.1892"/>
<polygon fill="midnightblue" stroke="midnightblue" points="206.619,-93.6356 216.226,-89.1678 205.93,-86.6696 206.619,-93.6356"/>
</g>
<!-- Node11 -->
<g id="node11" class="node"><title>Node11</title>
<g id="a_node11"><a xlink:href="namespace_g_u_i_util.html#a2046fc343a70996c23cae6fe7f8d94f2" target="_top" xlink:title="Get connection type to call object slot in GUI thread with invokeMethod. ">
<polygon fill="white" stroke="black" points="202,-24.5 202,-54.5 347,-54.5 347,-24.5 202,-24.5"/>
<text text-anchor="start" x="210" y="-42.5" font-family="Helvetica,sans-Serif" font-size="10.00">GUIUtil::blockingGUIThread</text>
<text text-anchor="middle" x="274.5" y="-31.5" font-family="Helvetica,sans-Serif" font-size="10.00">Connection</text>
</a>
</g>
</g>
<!-- Node1&#45;&gt;Node11 -->
<g id="edge11" class="edge"><title>Node1&#45;&gt;Node11</title>
<path fill="none" stroke="midnightblue" d="M110.449,-92.9578C133.807,-85.263 167.514,-74.1685 197,-64.5 203.755,-62.2852 210.846,-59.9633 217.873,-57.6644"/>
<polygon fill="midnightblue" stroke="midnightblue" points="218.962,-60.9909 227.378,-54.556 216.786,-54.3376 218.962,-60.9909"/>
</g>
<!-- Node4 -->
<g id="node4" class="node"><title>Node4</title>
<g id="a_node4"><a xlink:href="class_modal_overlay.html#a0144e7dbb1a7701743d7b3393e52f12c" target="_top" xlink:title="ModalOverlay::showHide">
<polygon fill="white" stroke="black" points="390.5,-136 390.5,-155 522.5,-155 522.5,-136 390.5,-136"/>
<text text-anchor="middle" x="456.5" y="-143" font-family="Helvetica,sans-Serif" font-size="10.00">ModalOverlay::showHide</text>
</a>
</g>
</g>
<!-- Node3&#45;&gt;Node4 -->
<g id="edge3" class="edge"><title>Node3&#45;&gt;Node4</title>
<path fill="none" stroke="midnightblue" d="M346.899,-131.02C357.871,-132.483 369.229,-133.997 380.28,-135.471"/>
<polygon fill="midnightblue" stroke="midnightblue" points="379.949,-138.957 390.324,-136.81 380.874,-132.019 379.949,-138.957"/>
</g>
<!-- Node6 -->
<g id="node6" class="node"><title>Node6</title>
<g id="a_node6"><a xlink:href="class_bitcoin_g_u_i.html#aca9a193e0484c1caf924e76d96800a9f" target="_top" xlink:title="Show window if hidden, unminimize when minimized, rise when obscured or show if hidden and fToggleHid...">
<polygon fill="white" stroke="black" points="388,-68.5 388,-98.5 525,-98.5 525,-68.5 388,-68.5"/>
<text text-anchor="start" x="396" y="-86.5" font-family="Helvetica,sans-Serif" font-size="10.00">BitcoinGUI::showNormalIf</text>
<text text-anchor="middle" x="456.5" y="-75.5" font-family="Helvetica,sans-Serif" font-size="10.00">Minimized</text>
</a>
</g>
</g>
<!-- Node5&#45;&gt;Node6 -->
<g id="edge5" class="edge"><title>Node5&#45;&gt;Node6</title>
<path fill="none" stroke="midnightblue" d="M332.948,-83.5C347.159,-83.5 362.622,-83.5 377.627,-83.5"/>
<polygon fill="midnightblue" stroke="midnightblue" points="377.921,-87.0001 387.92,-83.5 377.92,-80.0001 377.921,-87.0001"/>
</g>
<!-- Node7 -->
<g id="node7" class="node"><title>Node7</title>
<g id="a_node7"><a xlink:href="class_notificator.html#ae08e1e7e85ddc4690f307649021f7fdc" target="_top" xlink:title="Show notification message. ">
<polygon fill="white" stroke="black" points="407.5,-30 407.5,-49 505.5,-49 505.5,-30 407.5,-30"/>
<text text-anchor="middle" x="456.5" y="-37" font-family="Helvetica,sans-Serif" font-size="10.00">Notificator::notify</text>
</a>
</g>
</g>
<!-- Node5&#45;&gt;Node7 -->
<g id="edge7" class="edge"><title>Node5&#45;&gt;Node7</title>
<path fill="none" stroke="midnightblue" d="M314.557,-73.9527C341.565,-67.3508 377.699,-58.5181 406.618,-51.449"/>
<polygon fill="midnightblue" stroke="midnightblue" points="407.636,-54.8032 416.519,-49.0287 405.974,-48.0034 407.636,-54.8032"/>
</g>
<!-- Node6&#45;&gt;Node6 -->
<g id="edge6" class="edge"><title>Node6&#45;&gt;Node6</title>
<path fill="none" stroke="midnightblue" d="M426.874,-98.659C419.73,-108.057 429.605,-117 456.5,-117 472.889,-117 482.958,-113.679 486.707,-108.958"/>
<polygon fill="midnightblue" stroke="midnightblue" points="490.184,-108.446 486.126,-98.659 483.195,-108.84 490.184,-108.446"/>
</g>
<!-- Node8 -->
<g id="node8" class="node"><title>Node8</title>
<g id="a_node8"><a xlink:href="class_notificator.html#ac48ec94cd02fc4ea80db6c50e24086c1" target="_top" xlink:title="Notificator::notifySystray">
<polygon fill="white" stroke="black" points="561,-30 561,-49 695,-49 695,-30 561,-30"/>
<text text-anchor="middle" x="628" y="-37" font-family="Helvetica,sans-Serif" font-size="10.00">Notificator::notifySystray</text>
</a>
</g>
</g>
<!-- Node7&#45;&gt;Node8 -->
<g id="edge8" class="edge"><title>Node7&#45;&gt;Node8</title>
<path fill="none" stroke="midnightblue" d="M505.619,-39.5C519.669,-39.5 535.382,-39.5 550.722,-39.5"/>
<polygon fill="midnightblue" stroke="midnightblue" points="550.727,-43.0001 560.727,-39.5 550.727,-36.0001 550.727,-43.0001"/>
</g>
<!-- Node9 -->
<g id="node9" class="node"><title>Node9</title>
<g id="a_node9"><a xlink:href="class_mac_notification_handler.html#a8ba83adcb63db47e3f7a76a0afc02b9d" target="_top" xlink:title="MacNotificationHandler\l::instance">
<polygon fill="white" stroke="black" points="731,-49.5 731,-79.5 859,-79.5 859,-49.5 731,-49.5"/>
<text text-anchor="start" x="739" y="-67.5" font-family="Helvetica,sans-Serif" font-size="10.00">MacNotificationHandler</text>
<text text-anchor="middle" x="795" y="-56.5" font-family="Helvetica,sans-Serif" font-size="10.00">::instance</text>
</a>
</g>
</g>
<!-- Node8&#45;&gt;Node9 -->
<g id="edge9" class="edge"><title>Node8&#45;&gt;Node9</title>
<path fill="none" stroke="midnightblue" d="M691.85,-49.0227C701.313,-50.4565 711.142,-51.9458 720.799,-53.409"/>
<polygon fill="midnightblue" stroke="midnightblue" points="720.367,-56.8833 730.778,-54.9209 721.415,-49.9623 720.367,-56.8833"/>
</g>
<!-- Node10 -->
<g id="node10" class="node"><title>Node10</title>
<g id="a_node10"><a xlink:href="class_mac_notification_handler.html#abeb9b3a7c81397499fbb7e1d24610cd9" target="_top" xlink:title="shows a macOS 10.8+ UserNotification in the UserNotificationCenter ">
<polygon fill="white" stroke="black" points="731,-0.5 731,-30.5 859,-30.5 859,-0.5 731,-0.5"/>
<text text-anchor="start" x="739" y="-18.5" font-family="Helvetica,sans-Serif" font-size="10.00">MacNotificationHandler</text>
<text text-anchor="middle" x="795" y="-7.5" font-family="Helvetica,sans-Serif" font-size="10.00">::showNotification</text>
</a>
</g>
</g>
<!-- Node8&#45;&gt;Node10 -->
<g id="edge10" class="edge"><title>Node8&#45;&gt;Node10</title>
<path fill="none" stroke="midnightblue" d="M694.686,-29.9456C703.277,-28.696 712.122,-27.4095 720.827,-26.1433"/>
<polygon fill="midnightblue" stroke="midnightblue" points="721.566,-29.5728 730.958,-24.6698 720.558,-22.6457 721.566,-29.5728"/>
</g>
</g>
</svg>
