<?xml version="1.0" encoding="UTF-8" standalone="no"?>
<!DOCTYPE svg PUBLIC "-//W3C//DTD SVG 1.1//EN"
 "http://www.w3.org/Graphics/SVG/1.1/DTD/svg11.dtd">
<!-- Generated by graphviz version 2.38.0 (20140413.2041)
 -->
<!-- Title: CDataStream::size Pages: 1 -->
<svg width="896pt" height="1312pt"
 viewBox="0.00 0.00 896.00 1311.50" xmlns="http://www.w3.org/2000/svg" xmlns:xlink="http://www.w3.org/1999/xlink">
<g id="graph0" class="graph" transform="scale(1 1) rotate(0) translate(4 1307.5)">
<title>CDataStream::size</title>
<polygon fill="white" stroke="none" points="-4,4 -4,-1307.5 892,-1307.5 892,4 -4,4"/>
<!-- Node1 -->
<g id="node1" class="node"><title>Node1</title>
<polygon fill="#bfbfbf" stroke="black" points="0,-354 0,-373 107,-373 107,-354 0,-354"/>
<text text-anchor="middle" x="53.5" y="-361" font-family="Helvetica,sans-Serif" font-size="10.00">CDataStream::size</text>
</g>
<!-- Node2 -->
<g id="node2" class="node"><title>Node2</title>
<g id="a_node2"><a xlink:href="class_c_d_b_batch.html#a91b5d889a8d7e56c4f0bbf446e246111" target="_top" xlink:title="CDBBatch::Write">
<polygon fill="white" stroke="black" points="175,-1104 175,-1123 270,-1123 270,-1104 175,-1104"/>
<text text-anchor="middle" x="222.5" y="-1111" font-family="Helvetica,sans-Serif" font-size="10.00">CDBBatch::Write</text>
</a>
</g>
</g>
<!-- Node1&#45;&gt;Node2 -->
<g id="edge1" class="edge"><title>Node1&#45;&gt;Node2</title>
<path fill="none" stroke="midnightblue" d="M55.3602,-383.491C59.8726,-482.25 82.93,-918.084 143,-1037.5 157.747,-1066.82 188.412,-1091.22 206.746,-1103.96"/>
<polygon fill="midnightblue" stroke="midnightblue" points="58.8517,-383.22 54.9103,-373.386 51.8586,-383.531 58.8517,-383.22"/>
</g>
<!-- Node13 -->
<g id="node13" class="node"><title>Node13</title>
<g id="a_node13"><a xlink:href="class_c_d_b_batch.html#a0b9ed3a5fa7fb461cd668c5a5c7ccd42" target="_top" xlink:title="CDBBatch::Erase">
<polygon fill="white" stroke="black" points="173.5,-914 173.5,-933 271.5,-933 271.5,-914 173.5,-914"/>
<text text-anchor="middle" x="222.5" y="-921" font-family="Helvetica,sans-Serif" font-size="10.00">CDBBatch::Erase</text>
</a>
</g>
</g>
<!-- Node1&#45;&gt;Node13 -->
<g id="edge14" class="edge"><title>Node1&#45;&gt;Node13</title>
<path fill="none" stroke="midnightblue" d="M58.597,-382.946C70.0332,-436.408 104.03,-589.909 143,-714.5 167.414,-792.554 204.911,-883.922 217.339,-913.632"/>
<polygon fill="midnightblue" stroke="midnightblue" points="62.0075,-382.157 56.5055,-373.103 55.1604,-383.612 62.0075,-382.157"/>
</g>
<!-- Node15 -->
<g id="node15" class="node"><title>Node15</title>
<g id="a_node15"><a xlink:href="class_c_d_b_iterator.html#aa16a3cbdc2e514996a73ef1e3bc67209" target="_top" xlink:title="CDBIterator::Seek">
<polygon fill="white" stroke="black" points="171,-556 171,-575 274,-575 274,-556 171,-556"/>
<text text-anchor="middle" x="222.5" y="-563" font-family="Helvetica,sans-Serif" font-size="10.00">CDBIterator::Seek</text>
</a>
</g>
</g>
<!-- Node1&#45;&gt;Node15 -->
<g id="edge20" class="edge"><title>Node1&#45;&gt;Node15</title>
<path fill="none" stroke="midnightblue" d="M58.3063,-383.505C66.6012,-421.41 89.983,-503.723 143,-546.5 150.966,-552.928 160.772,-557.235 170.721,-560.107"/>
<polygon fill="midnightblue" stroke="midnightblue" points="61.6422,-382.35 56.2003,-373.259 54.7856,-383.759 61.6422,-382.35"/>
</g>
<!-- Node16 -->
<g id="node16" class="node"><title>Node16</title>
<g id="a_node16"><a xlink:href="class_c_d_b_wrapper.html#a839a7dcca6afbf52a30c3efaead7bef0" target="_top" xlink:title="CDBWrapper::Read">
<polygon fill="white" stroke="black" points="169.5,-686 169.5,-705 275.5,-705 275.5,-686 169.5,-686"/>
<text text-anchor="middle" x="222.5" y="-693" font-family="Helvetica,sans-Serif" font-size="10.00">CDBWrapper::Read</text>
</a>
</g>
</g>
<!-- Node1&#45;&gt;Node16 -->
<g id="edge21" class="edge"><title>Node1&#45;&gt;Node16</title>
<path fill="none" stroke="midnightblue" d="M60.5015,-382.737C73.1023,-421.964 104.367,-513.483 143,-584.5 164.768,-624.516 198.332,-667.285 213.533,-685.912"/>
<polygon fill="midnightblue" stroke="midnightblue" points="63.811,-381.594 57.4518,-373.12 57.1385,-383.71 63.811,-381.594"/>
</g>
<!-- Node25 -->
<g id="node25" class="node"><title>Node25</title>
<g id="a_node25"><a xlink:href="class_c_d_b_wrapper.html#aa87b3ce4d3e14fed988d75d363a329b6" target="_top" xlink:title="CDBWrapper::Exists">
<polygon fill="white" stroke="black" points="167.5,-518 167.5,-537 277.5,-537 277.5,-518 167.5,-518"/>
<text text-anchor="middle" x="222.5" y="-525" font-family="Helvetica,sans-Serif" font-size="10.00">CDBWrapper::Exists</text>
</a>
</g>
</g>
<!-- Node1&#45;&gt;Node25 -->
<g id="edge35" class="edge"><title>Node1&#45;&gt;Node25</title>
<path fill="none" stroke="midnightblue" d="M60.7798,-382.813C72.026,-414.237 98.665,-476.165 143,-508.5 150.137,-513.705 158.516,-517.499 167.092,-520.262"/>
<polygon fill="midnightblue" stroke="midnightblue" points="63.9933,-381.394 57.44,-373.069 57.3714,-383.664 63.9933,-381.394"/>
</g>
<!-- Node28 -->
<g id="node28" class="node"><title>Node28</title>
<g id="a_node28"><a xlink:href="class_c_d_b_wrapper.html#a18c8853f1d6d2d5e6489789f345889be" target="_top" xlink:title="CDBWrapper::EstimateSize">
<polygon fill="white" stroke="black" points="149.5,-480 149.5,-499 295.5,-499 295.5,-480 149.5,-480"/>
<text text-anchor="middle" x="222.5" y="-487" font-family="Helvetica,sans-Serif" font-size="10.00">CDBWrapper::EstimateSize</text>
</a>
</g>
</g>
<!-- Node1&#45;&gt;Node28 -->
<g id="edge38" class="edge"><title>Node1&#45;&gt;Node28</title>
<path fill="none" stroke="midnightblue" d="M64.8371,-381.943C79.2144,-405.858 107.526,-447.146 143,-469.5 149.901,-473.849 157.705,-477.254 165.647,-479.919"/>
<polygon fill="midnightblue" stroke="midnightblue" points="67.7663,-380.018 59.7057,-373.142 61.7191,-383.544 67.7663,-380.018"/>
</g>
<!-- Node30 -->
<g id="node30" class="node"><title>Node30</title>
<g id="a_node30"><a xlink:href="class_c_d_b_wrapper.html#af8af15fcb12ccde4b340951cd81afb81" target="_top" xlink:title="Compact a certain range of keys in the database. ">
<polygon fill="white" stroke="black" points="144.5,-1009 144.5,-1028 300.5,-1028 300.5,-1009 144.5,-1009"/>
<text text-anchor="middle" x="222.5" y="-1016" font-family="Helvetica,sans-Serif" font-size="10.00">CDBWrapper::CompactRange</text>
</a>
</g>
</g>
<!-- Node1&#45;&gt;Node30 -->
<g id="edge40" class="edge"><title>Node1&#45;&gt;Node30</title>
<path fill="none" stroke="midnightblue" d="M55.8388,-383.426C62.135,-473.333 90.7081,-841.224 143,-942.5 158.056,-971.659 188.612,-996.116 206.843,-1008.91"/>
<polygon fill="midnightblue" stroke="midnightblue" points="59.317,-382.987 55.1391,-373.251 52.3335,-383.468 59.317,-382.987"/>
</g>
<!-- Node31 -->
<g id="node31" class="node"><title>Node31</title>
<g id="a_node31"><a xlink:href="class_peer_logic_validation.html#a124965d7310e0df08cc027d4e1cbbe7b" target="_top" xlink:title="Overridden from CValidationInterface. ">
<polygon fill="white" stroke="black" points="167.5,-430.5 167.5,-460.5 277.5,-460.5 277.5,-430.5 167.5,-430.5"/>
<text text-anchor="start" x="175.5" y="-448.5" font-family="Helvetica,sans-Serif" font-size="10.00">PeerLogicValidation</text>
<text text-anchor="middle" x="222.5" y="-437.5" font-family="Helvetica,sans-Serif" font-size="10.00">::BlockChecked</text>
</a>
</g>
</g>
<!-- Node1&#45;&gt;Node31 -->
<g id="edge42" class="edge"><title>Node1&#45;&gt;Node31</title>
<path fill="none" stroke="midnightblue" d="M75.3381,-379.176C92.7155,-391.683 118.503,-408.96 143,-420.5 150.763,-424.157 159.2,-427.474 167.567,-430.408"/>
<polygon fill="midnightblue" stroke="midnightblue" points="77.2062,-376.206 67.0688,-373.127 73.073,-381.856 77.2062,-376.206"/>
</g>
<!-- Node32 -->
<g id="node32" class="node"><title>Node32</title>
<g id="a_node32"><a xlink:href="class_wallet_model.html#a53443aca544c824550f21e5f87e4ec39" target="_top" xlink:title="WalletModel::sendCoins">
<polygon fill="white" stroke="black" points="158.5,-392 158.5,-411 286.5,-411 286.5,-392 158.5,-392"/>
<text text-anchor="middle" x="222.5" y="-399" font-family="Helvetica,sans-Serif" font-size="10.00">WalletModel::sendCoins</text>
</a>
</g>
</g>
<!-- Node1&#45;&gt;Node32 -->
<g id="edge43" class="edge"><title>Node1&#45;&gt;Node32</title>
<path fill="none" stroke="midnightblue" d="M106.465,-375.324C130.009,-380.682 157.474,-386.931 179.662,-391.98"/>
<polygon fill="midnightblue" stroke="midnightblue" points="107.168,-371.895 96.6412,-373.089 105.615,-378.721 107.168,-371.895"/>
</g>
<!-- Node34 -->
<g id="node34" class="node"><title>Node34</title>
<g id="a_node34"><a xlink:href="rawtransaction_8cpp.html#a220a68cf9c7fa672caf17951c5d280bd" target="_top" xlink:title="combinepsbt">
<polygon fill="white" stroke="black" points="183,-354 183,-373 262,-373 262,-354 183,-354"/>
<text text-anchor="middle" x="222.5" y="-361" font-family="Helvetica,sans-Serif" font-size="10.00">combinepsbt</text>
</a>
</g>
</g>
<!-- Node1&#45;&gt;Node34 -->
<g id="edge45" class="edge"><title>Node1&#45;&gt;Node34</title>
<path fill="none" stroke="midnightblue" d="M117.576,-363.5C139.492,-363.5 163.409,-363.5 182.767,-363.5"/>
<polygon fill="midnightblue" stroke="midnightblue" points="117.34,-360 107.34,-363.5 117.34,-367 117.34,-360"/>
</g>
<!-- Node35 -->
<g id="node35" class="node"><title>Node35</title>
<g id="a_node35"><a xlink:href="rawtransaction_8cpp.html#a6b6a0c0d5bd5b55553ea48b3da2e796c" target="_top" xlink:title="converttopsbt">
<polygon fill="white" stroke="black" points="383,-316 383,-335 466,-335 466,-316 383,-316"/>
<text text-anchor="middle" x="424.5" y="-323" font-family="Helvetica,sans-Serif" font-size="10.00">converttopsbt</text>
</a>
</g>
</g>
<!-- Node1&#45;&gt;Node35 -->
<g id="edge49" class="edge"><title>Node1&#45;&gt;Node35</title>
<path fill="none" stroke="midnightblue" d="M72.8306,-347.152C89.7056,-333.279 116.126,-314.406 143,-306.5 229.393,-281.086 336.954,-302.173 390.298,-315.934"/>
<polygon fill="midnightblue" stroke="midnightblue" points="70.281,-344.725 64.9242,-353.866 74.8121,-350.061 70.281,-344.725"/>
</g>
<!-- Node36 -->
<g id="node36" class="node"><title>Node36</title>
<g id="a_node36"><a xlink:href="rawtransaction_8cpp.html#ab96b0b3cf82a8f50975ee74c26c4dbf8" target="_top" xlink:title="createpsbt">
<polygon fill="white" stroke="black" points="188.5,-316 188.5,-335 256.5,-335 256.5,-316 188.5,-316"/>
<text text-anchor="middle" x="222.5" y="-323" font-family="Helvetica,sans-Serif" font-size="10.00">createpsbt</text>
</a>
</g>
</g>
<!-- Node1&#45;&gt;Node36 -->
<g id="edge47" class="edge"><title>Node1&#45;&gt;Node36</title>
<path fill="none" stroke="midnightblue" d="M106.596,-351.646C133.285,-345.573 164.983,-338.36 188.319,-333.05"/>
<polygon fill="midnightblue" stroke="midnightblue" points="105.615,-348.279 96.6412,-353.911 107.168,-355.105 105.615,-348.279"/>
</g>
<!-- Node37 -->
<g id="node37" class="node"><title>Node37</title>
<g id="a_node37"><a xlink:href="class_berkeley_batch.html#aeb31fe645f69bfacde35a777fef11f3e" target="_top" xlink:title="BerkeleyBatch::Rewrite">
<polygon fill="white" stroke="black" points="362,-240 362,-259 487,-259 487,-240 362,-240"/>
<text text-anchor="middle" x="424.5" y="-247" font-family="Helvetica,sans-Serif" font-size="10.00">BerkeleyBatch::Rewrite</text>
</a>
</g>
</g>
<!-- Node1&#45;&gt;Node37 -->
<g id="edge50" class="edge"><title>Node1&#45;&gt;Node37</title>
<path fill="none" stroke="midnightblue" d="M70.0555,-346.341C86.4462,-329.445 113.881,-304.357 143,-291.5 213.721,-260.274 303.198,-251.552 361.827,-249.476"/>
<polygon fill="midnightblue" stroke="midnightblue" points="67.2525,-344.212 62.9374,-353.888 72.3449,-349.015 67.2525,-344.212"/>
</g>
<!-- Node40 -->
<g id="node40" class="node"><title>Node40</title>
<g id="a_node40"><a xlink:href="class_berkeley_batch.html#afbf2d778e5791c88149b8c6c1cab0ab8" target="_top" xlink:title="BerkeleyBatch::Read">
<polygon fill="white" stroke="black" points="165,-164 165,-183 280,-183 280,-164 165,-164"/>
<text text-anchor="middle" x="222.5" y="-171" font-family="Helvetica,sans-Serif" font-size="10.00">BerkeleyBatch::Read</text>
</a>
</g>
</g>
<!-- Node1&#45;&gt;Node40 -->
<g id="edge53" class="edge"><title>Node1&#45;&gt;Node40</title>
<path fill="none" stroke="midnightblue" d="M58.9616,-343.816C68.1529,-307.939 92.693,-231.976 143,-192.5 149.398,-187.479 156.926,-183.759 164.745,-181.006"/>
<polygon fill="midnightblue" stroke="midnightblue" points="55.4574,-343.416 56.5036,-353.959 62.2605,-345.065 55.4574,-343.416"/>
</g>
<!-- Node45 -->
<g id="node45" class="node"><title>Node45</title>
<g id="a_node45"><a xlink:href="class_berkeley_batch.html#ac31c83ec96f7bd149f856d28e97dba23" target="_top" xlink:title="BerkeleyBatch::Write">
<polygon fill="white" stroke="black" points="165,-126 165,-145 280,-145 280,-126 165,-126"/>
<text text-anchor="middle" x="222.5" y="-133" font-family="Helvetica,sans-Serif" font-size="10.00">BerkeleyBatch::Write</text>
</a>
</g>
</g>
<!-- Node1&#45;&gt;Node45 -->
<g id="edge58" class="edge"><title>Node1&#45;&gt;Node45</title>
<path fill="none" stroke="midnightblue" d="M56.9239,-343.864C63.1368,-302.265 83.5641,-204.955 143,-154.5 149.307,-149.146 156.876,-145.251 164.791,-142.426"/>
<polygon fill="midnightblue" stroke="midnightblue" points="53.4496,-343.438 55.5544,-353.821 60.3844,-344.391 53.4496,-343.438"/>
</g>
<!-- Node46 -->
<g id="node46" class="node"><title>Node46</title>
<g id="a_node46"><a xlink:href="class_berkeley_batch.html#af17c19ee65042d1c497f61d4560e9639" target="_top" xlink:title="BerkeleyBatch::Erase">
<polygon fill="white" stroke="black" points="163,-88 163,-107 282,-107 282,-88 163,-88"/>
<text text-anchor="middle" x="222.5" y="-95" font-family="Helvetica,sans-Serif" font-size="10.00">BerkeleyBatch::Erase</text>
</a>
</g>
</g>
<!-- Node1&#45;&gt;Node46 -->
<g id="edge59" class="edge"><title>Node1&#45;&gt;Node46</title>
<path fill="none" stroke="midnightblue" d="M55.4767,-343.919C58.9071,-297.149 74.2988,-178.243 143,-116.5 148.736,-111.345 155.631,-107.528 162.921,-104.712"/>
<polygon fill="midnightblue" stroke="midnightblue" points="51.9809,-343.745 54.849,-353.944 58.9672,-344.183 51.9809,-343.745"/>
</g>
<!-- Node47 -->
<g id="node47" class="node"><title>Node47</title>
<g id="a_node47"><a xlink:href="class_berkeley_batch.html#a739cd356431ea488faad8f82e3cd285d" target="_top" xlink:title="BerkeleyBatch::Exists">
<polygon fill="white" stroke="black" points="163,-50 163,-69 282,-69 282,-50 163,-50"/>
<text text-anchor="middle" x="222.5" y="-57" font-family="Helvetica,sans-Serif" font-size="10.00">BerkeleyBatch::Exists</text>
</a>
</g>
</g>
<!-- Node1&#45;&gt;Node47 -->
<g id="edge60" class="edge"><title>Node1&#45;&gt;Node47</title>
<path fill="none" stroke="midnightblue" d="M54.3974,-343.783C55.2547,-292.102 65.0223,-151.669 143,-78.5 148.624,-73.2229 155.455,-69.3363 162.714,-66.4863"/>
<polygon fill="midnightblue" stroke="midnightblue" points="50.8966,-343.896 54.3301,-353.919 57.8965,-343.942 50.8966,-343.896"/>
</g>
<!-- Node49 -->
<g id="node49" class="node"><title>Node49</title>
<g id="a_node49"><a xlink:href="class_berkeley_batch.html#a9c4377c1e44354d2e4c5824952549b94" target="_top" xlink:title="BerkeleyBatch::ReadAtCursor">
<polygon fill="white" stroke="black" points="144,-202 144,-221 301,-221 301,-202 144,-202"/>
<text text-anchor="middle" x="222.5" y="-209" font-family="Helvetica,sans-Serif" font-size="10.00">BerkeleyBatch::ReadAtCursor</text>
</a>
</g>
</g>
<!-- Node1&#45;&gt;Node49 -->
<g id="edge62" class="edge"><title>Node1&#45;&gt;Node49</title>
<path fill="none" stroke="midnightblue" d="M62.6961,-344.359C75.663,-316.334 103.548,-264.343 143,-235.5 151.628,-229.192 161.939,-224.52 172.205,-221.067"/>
<polygon fill="midnightblue" stroke="midnightblue" points="59.349,-343.27 58.4639,-353.828 65.7398,-346.126 59.349,-343.27"/>
</g>
<!-- Node50 -->
<g id="node50" class="node"><title>Node50</title>
<g id="a_node50"><a xlink:href="class_c_z_m_q_publish_raw_block_notifier.html#ab97fec1e14be818d03022f9271b9443c" target="_top" xlink:title="CZMQPublishRawBlockNotifier\l::NotifyBlock">
<polygon fill="white" stroke="black" points="143,-0.5 143,-30.5 302,-30.5 302,-0.5 143,-0.5"/>
<text text-anchor="start" x="151" y="-18.5" font-family="Helvetica,sans-Serif" font-size="10.00">CZMQPublishRawBlockNotifier</text>
<text text-anchor="middle" x="222.5" y="-7.5" font-family="Helvetica,sans-Serif" font-size="10.00">::NotifyBlock</text>
</a>
</g>
</g>
<!-- Node1&#45;&gt;Node50 -->
<g id="edge66" class="edge"><title>Node1&#45;&gt;Node50</title>
<path fill="none" stroke="midnightblue" d="M53.8407,-343.426C53.1322,-287.453 58.9849,-128.022 143,-40.5 146.665,-36.6822 150.91,-33.4458 155.491,-30.7024"/>
<polygon fill="midnightblue" stroke="midnightblue" points="50.3483,-343.816 54.0657,-353.737 57.3466,-343.663 50.3483,-343.816"/>
</g>
<!-- Node3 -->
<g id="node3" class="node"><title>Node3</title>
<g id="a_node3"><a xlink:href="class_c_d_b_wrapper.html#a6600aa8c2b30880dd7e032ea21f74aed" target="_top" xlink:title="CDBWrapper::Write">
<polygon fill="white" stroke="black" points="371.5,-1218 371.5,-1237 477.5,-1237 477.5,-1218 371.5,-1218"/>
<text text-anchor="middle" x="424.5" y="-1225" font-family="Helvetica,sans-Serif" font-size="10.00">CDBWrapper::Write</text>
</a>
</g>
</g>
<!-- Node2&#45;&gt;Node3 -->
<g id="edge2" class="edge"><title>Node2&#45;&gt;Node3</title>
<path fill="none" stroke="midnightblue" d="M238.867,-1130.49C259.339,-1152.03 297.688,-1188.75 338,-1208.5 348.241,-1213.52 359.82,-1217.23 371.074,-1219.96"/>
<polygon fill="midnightblue" stroke="midnightblue" points="241.306,-1127.97 231.929,-1123.04 236.184,-1132.74 241.306,-1127.97"/>
</g>
<!-- Node6 -->
<g id="node6" class="node"><title>Node6</title>
<g id="a_node6"><a xlink:href="class_tx_index_1_1_d_b.html#a7eeb3325ee83f6fe2736278a7952ba5c" target="_top" xlink:title="Migrate txindex data from the block tree DB, where it may be for older nodes that have not been upgra...">
<polygon fill="white" stroke="black" points="750,-1017 750,-1036 888,-1036 888,-1017 750,-1017"/>
<text text-anchor="middle" x="819" y="-1024" font-family="Helvetica,sans-Serif" font-size="10.00">TxIndex::DB::MigrateData</text>
</a>
</g>
</g>
<!-- Node2&#45;&gt;Node6 -->
<g id="edge10" class="edge"><title>Node2&#45;&gt;Node6</title>
<path fill="none" stroke="midnightblue" d="M280.175,-1121.22C298.582,-1123.38 319.124,-1125.43 338,-1126.5 414.766,-1130.84 435.062,-1138.56 511,-1126.5 622,-1108.88 747.445,-1057.52 796.62,-1036.08"/>
<polygon fill="midnightblue" stroke="midnightblue" points="280.541,-1117.74 270.193,-1120.01 279.701,-1124.69 280.541,-1117.74"/>
</g>
<!-- Node9 -->
<g id="node9" class="node"><title>Node9</title>
<g id="a_node9"><a xlink:href="class_tx_index_1_1_d_b.html#a1a74538fe62aa9bea4c4ad27a090b902" target="_top" xlink:title="Write a batch of transaction positions to the DB. ">
<polygon fill="white" stroke="black" points="365.5,-1066 365.5,-1085 483.5,-1085 483.5,-1066 365.5,-1066"/>
<text text-anchor="middle" x="424.5" y="-1073" font-family="Helvetica,sans-Serif" font-size="10.00">TxIndex::DB::WriteTxs</text>
</a>
</g>
</g>
<!-- Node2&#45;&gt;Node9 -->
<g id="edge9" class="edge"><title>Node2&#45;&gt;Node9</title>
<path fill="none" stroke="midnightblue" d="M280.226,-1102.72C309.531,-1097.15 344.979,-1090.42 373.284,-1085.04"/>
<polygon fill="midnightblue" stroke="midnightblue" points="279.31,-1099.33 270.139,-1104.64 280.616,-1106.21 279.31,-1099.33"/>
</g>
<!-- Node10 -->
<g id="node10" class="node"><title>Node10</title>
<g id="a_node10"><a xlink:href="class_c_coins_view_d_b.html#aeb6c04068de59681a8bbc85f81f50c34" target="_top" xlink:title="Do a bulk modification (multiple Coin changes + BestBlock change). ">
<polygon fill="white" stroke="black" points="559,-857 559,-876 702,-876 702,-857 559,-857"/>
<text text-anchor="middle" x="630.5" y="-864" font-family="Helvetica,sans-Serif" font-size="10.00">CCoinsViewDB::BatchWrite</text>
</a>
</g>
</g>
<!-- Node2&#45;&gt;Node10 -->
<g id="edge11" class="edge"><title>Node2&#45;&gt;Node10</title>
<path fill="none" stroke="midnightblue" d="M275.71,-1124.78C337.509,-1135.04 440.863,-1142.2 511,-1094.5 541.906,-1073.48 530.079,-1051.83 547,-1018.5 574.73,-963.885 610.654,-899.791 624.103,-876.006"/>
<polygon fill="midnightblue" stroke="midnightblue" points="276.241,-1121.32 265.788,-1123.04 275.036,-1128.21 276.241,-1121.32"/>
</g>
<!-- Node11 -->
<g id="node11" class="node"><title>Node11</title>
<g id="a_node11"><a xlink:href="class_c_block_tree_d_b.html#aa4b53c1cae368f02f56244af5f2499d7" target="_top" xlink:title="CBlockTreeDB::WriteBatchSync">
<polygon fill="white" stroke="black" points="343,-1180 343,-1199 506,-1199 506,-1180 343,-1180"/>
<text text-anchor="middle" x="424.5" y="-1187" font-family="Helvetica,sans-Serif" font-size="10.00">CBlockTreeDB::WriteBatchSync</text>
</a>
</g>
</g>
<!-- Node2&#45;&gt;Node11 -->
<g id="edge12" class="edge"><title>Node2&#45;&gt;Node11</title>
<path fill="none" stroke="midnightblue" d="M251.293,-1127.57C274.177,-1138.8 307.672,-1154.43 338,-1165.5 353.062,-1171 369.997,-1175.99 384.797,-1179.98"/>
<polygon fill="midnightblue" stroke="midnightblue" points="252.689,-1124.35 242.175,-1123.05 249.582,-1130.63 252.689,-1124.35"/>
</g>
<!-- Node12 -->
<g id="node12" class="node"><title>Node12</title>
<g id="a_node12"><a xlink:href="class_c_coins_view_d_b.html#a72c1d718a15df89eadab97ce3b34fa56" target="_top" xlink:title="Attempt to update from an older database format. Returns whether an error occurred. ">
<polygon fill="white" stroke="black" points="358,-1028 358,-1047 491,-1047 491,-1028 358,-1028"/>
<text text-anchor="middle" x="424.5" y="-1035" font-family="Helvetica,sans-Serif" font-size="10.00">CCoinsViewDB::Upgrade</text>
</a>
</g>
</g>
<!-- Node2&#45;&gt;Node12 -->
<g id="edge13" class="edge"><title>Node2&#45;&gt;Node12</title>
<path fill="none" stroke="midnightblue" d="M248.582,-1098.78C271.274,-1086.01 305.948,-1067.85 338,-1056.5 348.464,-1052.8 359.912,-1049.66 370.933,-1047.07"/>
<polygon fill="midnightblue" stroke="midnightblue" points="246.584,-1095.89 239.633,-1103.89 250.053,-1101.97 246.584,-1095.89"/>
</g>
<!-- Node4 -->
<g id="node4" class="node"><title>Node4</title>
<g id="a_node4"><a xlink:href="class_c_d_b_wrapper.html#aac6220002df70f327ab09893e08902f5" target="_top" xlink:title="CDBWrapper::CDBWrapper">
<polygon fill="white" stroke="black" points="559,-1028 559,-1047 702,-1047 702,-1028 559,-1028"/>
<text text-anchor="middle" x="630.5" y="-1035" font-family="Helvetica,sans-Serif" font-size="10.00">CDBWrapper::CDBWrapper</text>
</a>
</g>
</g>
<!-- Node3&#45;&gt;Node4 -->
<g id="edge3" class="edge"><title>Node3&#45;&gt;Node4</title>
<path fill="none" stroke="midnightblue" d="M487.249,-1220.15C495.716,-1217.37 503.92,-1213.6 511,-1208.5 536.228,-1190.32 529.703,-1174.34 547,-1148.5 572.908,-1109.79 606.927,-1066 621.886,-1047.07"/>
<polygon fill="midnightblue" stroke="midnightblue" points="486.287,-1216.79 477.623,-1222.88 488.199,-1223.52 486.287,-1216.79"/>
</g>
<!-- Node5 -->
<g id="node5" class="node"><title>Node5</title>
<g id="a_node5"><a xlink:href="class_base_index_1_1_d_b.html#abe7afe749f8e643c2eaacb626cbe4f65" target="_top" xlink:title="Write block locator of the chain that the txindex is in sync with. ">
<polygon fill="white" stroke="red" points="562,-1234.5 562,-1264.5 699,-1264.5 699,-1234.5 562,-1234.5"/>
<text text-anchor="start" x="570" y="-1252.5" font-family="Helvetica,sans-Serif" font-size="10.00">BaseIndex::DB::WriteBest</text>
<text text-anchor="middle" x="630.5" y="-1241.5" font-family="Helvetica,sans-Serif" font-size="10.00">Block</text>
</a>
</g>
</g>
<!-- Node3&#45;&gt;Node5 -->
<g id="edge4" class="edge"><title>Node3&#45;&gt;Node5</title>
<path fill="none" stroke="midnightblue" d="M487.671,-1234.2C511.105,-1236.73 537.866,-1239.62 561.782,-1242.2"/>
<polygon fill="midnightblue" stroke="midnightblue" points="487.823,-1230.7 477.506,-1233.11 487.073,-1237.66 487.823,-1230.7"/>
</g>
<!-- Node3&#45;&gt;Node6 -->
<g id="edge5" class="edge"><title>Node3&#45;&gt;Node6</title>
<path fill="none" stroke="midnightblue" d="M487.788,-1224.63C561.116,-1220.24 677.541,-1209.76 714,-1186.5 772.936,-1148.91 805.371,-1064.59 814.952,-1036.11"/>
<polygon fill="midnightblue" stroke="midnightblue" points="487.521,-1221.14 477.74,-1225.21 487.925,-1228.13 487.521,-1221.14"/>
</g>
<!-- Node7 -->
<g id="node7" class="node"><title>Node7</title>
<g id="a_node7"><a xlink:href="class_c_block_tree_d_b.html#a55914903b15bc119d0c4952af8fdf721" target="_top" xlink:title="CBlockTreeDB::WriteReindexing">
<polygon fill="white" stroke="black" points="549,-1158 549,-1177 712,-1177 712,-1158 549,-1158"/>
<text text-anchor="middle" x="630.5" y="-1165" font-family="Helvetica,sans-Serif" font-size="10.00">CBlockTreeDB::WriteReindexing</text>
</a>
</g>
</g>
<!-- Node3&#45;&gt;Node7 -->
<g id="edge6" class="edge"><title>Node3&#45;&gt;Node7</title>
<path fill="none" stroke="midnightblue" d="M486.994,-1215.57C495.145,-1213.48 503.329,-1211.13 511,-1208.5 527.74,-1202.77 530.453,-1197.77 547,-1191.5 561.507,-1186 577.843,-1181.01 592.127,-1177.02"/>
<polygon fill="midnightblue" stroke="midnightblue" points="485.991,-1212.21 477.104,-1217.98 487.648,-1219.01 485.991,-1212.21"/>
</g>
<!-- Node8 -->
<g id="node8" class="node"><title>Node8</title>
<g id="a_node8"><a xlink:href="class_c_block_tree_d_b.html#af2f65b70ac5d8a198d4f29a7e909c08a" target="_top" xlink:title="CBlockTreeDB::WriteFlag">
<polygon fill="white" stroke="black" points="565,-1284 565,-1303 696,-1303 696,-1284 565,-1284"/>
<text text-anchor="middle" x="630.5" y="-1291" font-family="Helvetica,sans-Serif" font-size="10.00">CBlockTreeDB::WriteFlag</text>
</a>
</g>
</g>
<!-- Node3&#45;&gt;Node8 -->
<g id="edge7" class="edge"><title>Node3&#45;&gt;Node8</title>
<path fill="none" stroke="midnightblue" d="M456.969,-1241.1C481.246,-1251.24 515.834,-1264.94 547,-1274.5 558.522,-1278.04 571.127,-1281.26 582.94,-1284"/>
<polygon fill="midnightblue" stroke="midnightblue" points="458.132,-1237.79 447.558,-1237.13 455.412,-1244.24 458.132,-1237.79"/>
</g>
<!-- Node8&#45;&gt;Node6 -->
<g id="edge8" class="edge"><title>Node8&#45;&gt;Node6</title>
<path fill="none" stroke="midnightblue" d="M705.223,-1280.62C708.328,-1278.83 711.276,-1276.79 714,-1274.5 792.379,-1208.48 812.808,-1073.35 817.04,-1036.16"/>
<polygon fill="midnightblue" stroke="midnightblue" points="703.554,-1277.54 696.114,-1285.09 706.634,-1283.83 703.554,-1277.54"/>
</g>
<!-- Node13&#45;&gt;Node6 -->
<g id="edge17" class="edge"><title>Node13&#45;&gt;Node6</title>
<path fill="none" stroke="midnightblue" d="M281.652,-933.575C396.455,-953.465 650.792,-997.53 762.993,-1016.97"/>
<polygon fill="midnightblue" stroke="midnightblue" points="282.098,-930.1 271.647,-931.842 280.903,-936.997 282.098,-930.1"/>
</g>
<!-- Node13&#45;&gt;Node10 -->
<g id="edge18" class="edge"><title>Node13&#45;&gt;Node10</title>
<path fill="none" stroke="midnightblue" d="M281.754,-915.321C355.834,-904.921 483.507,-886.997 561.827,-876.001"/>
<polygon fill="midnightblue" stroke="midnightblue" points="281.084,-911.881 271.668,-916.738 282.057,-918.813 281.084,-911.881"/>
</g>
<!-- Node13&#45;&gt;Node12 -->
<g id="edge19" class="edge"><title>Node13&#45;&gt;Node12</title>
<path fill="none" stroke="midnightblue" d="M238.867,-940.485C259.339,-962.029 297.688,-998.747 338,-1018.5 345.92,-1022.38 354.64,-1025.48 363.39,-1027.95"/>
<polygon fill="midnightblue" stroke="midnightblue" points="241.306,-937.969 231.929,-933.038 236.184,-942.741 241.306,-937.969"/>
</g>
<!-- Node14 -->
<g id="node14" class="node"><title>Node14</title>
<g id="a_node14"><a xlink:href="class_c_d_b_wrapper.html#a583311ba1b0eb24d07511aad3325d61f" target="_top" xlink:title="CDBWrapper::Erase">
<polygon fill="white" stroke="black" points="369.5,-990 369.5,-1009 479.5,-1009 479.5,-990 369.5,-990"/>
<text text-anchor="middle" x="424.5" y="-997" font-family="Helvetica,sans-Serif" font-size="10.00">CDBWrapper::Erase</text>
</a>
</g>
</g>
<!-- Node13&#45;&gt;Node14 -->
<g id="edge15" class="edge"><title>Node13&#45;&gt;Node14</title>
<path fill="none" stroke="midnightblue" d="M251.293,-937.569C274.177,-948.799 307.672,-964.43 338,-975.5 353.062,-980.998 369.997,-985.99 384.797,-989.979"/>
<polygon fill="midnightblue" stroke="midnightblue" points="252.689,-934.355 242.175,-933.052 249.582,-940.627 252.689,-934.355"/>
</g>
<!-- Node14&#45;&gt;Node7 -->
<g id="edge16" class="edge"><title>Node14&#45;&gt;Node7</title>
<path fill="none" stroke="midnightblue" d="M489.377,-1008.58C496.981,-1011.12 504.382,-1014.36 511,-1018.5 526.063,-1027.92 599.407,-1126.61 622.514,-1157.98"/>
<polygon fill="midnightblue" stroke="midnightblue" points="490.261,-1005.19 479.68,-1005.72 488.284,-1011.91 490.261,-1005.19"/>
</g>
<!-- Node16&#45;&gt;Node4 -->
<g id="edge22" class="edge"><title>Node16&#45;&gt;Node4</title>
<path fill="none" stroke="midnightblue" d="M232.472,-714.288C249.324,-748.067 288.511,-819.872 338,-866.5 383.266,-909.15 553.468,-998.431 610.638,-1027.86"/>
<polygon fill="midnightblue" stroke="midnightblue" points="235.513,-712.539 227.973,-705.096 229.226,-715.616 235.513,-712.539"/>
</g>
<!-- Node16&#45;&gt;Node6 -->
<g id="edge25" class="edge"><title>Node16&#45;&gt;Node6</title>
<path fill="none" stroke="midnightblue" d="M262.382,-683.231C318.992,-667.49 426.556,-645.673 511,-676.5 683.732,-739.556 791.909,-966.948 813.855,-1016.8"/>
<polygon fill="midnightblue" stroke="midnightblue" points="261.402,-679.87 252.752,-685.987 263.329,-686.6 261.402,-679.87"/>
</g>
<!-- Node17 -->
<g id="node17" class="node"><title>Node17</title>
<g id="a_node17"><a xlink:href="class_base_index_1_1_d_b.html#ad7a39256bcec05d4af7a1255fb898cfd" target="_top" xlink:title="Read block locator of the chain that the txindex is in sync with. ">
<polygon fill="white" stroke="red" points="343,-610 343,-629 506,-629 506,-610 343,-610"/>
<text text-anchor="middle" x="424.5" y="-617" font-family="Helvetica,sans-Serif" font-size="10.00">BaseIndex::DB::ReadBestBlock</text>
</a>
</g>
</g>
<!-- Node16&#45;&gt;Node17 -->
<g id="edge23" class="edge"><title>Node16&#45;&gt;Node17</title>
<path fill="none" stroke="midnightblue" d="M251.293,-681.431C274.177,-670.201 307.672,-654.57 338,-643.5 353.062,-638.002 369.997,-633.01 384.797,-629.021"/>
<polygon fill="midnightblue" stroke="midnightblue" points="249.582,-678.373 242.175,-685.948 252.689,-684.645 249.582,-678.373"/>
</g>
<!-- Node18 -->
<g id="node18" class="node"><title>Node18</title>
<g id="a_node18"><a xlink:href="class_tx_index_1_1_d_b.html#ad3761b9c1360128982614719acc5def4" target="_top" xlink:title="Read the disk location of the transaction data with the given hash. ">
<polygon fill="white" stroke="black" points="359.5,-572 359.5,-591 489.5,-591 489.5,-572 359.5,-572"/>
<text text-anchor="middle" x="424.5" y="-579" font-family="Helvetica,sans-Serif" font-size="10.00">TxIndex::DB::ReadTxPos</text>
</a>
</g>
</g>
<!-- Node16&#45;&gt;Node18 -->
<g id="edge24" class="edge"><title>Node16&#45;&gt;Node18</title>
<path fill="none" stroke="midnightblue" d="M238.867,-678.515C259.339,-656.971 297.688,-620.253 338,-600.5 345.92,-596.619 354.64,-593.522 363.39,-591.052"/>
<polygon fill="midnightblue" stroke="midnightblue" points="236.184,-676.259 231.929,-685.962 241.306,-681.031 236.184,-676.259"/>
</g>
<!-- Node19 -->
<g id="node19" class="node"><title>Node19</title>
<g id="a_node19"><a xlink:href="class_c_coins_view_d_b.html#a2a018edc94bdca2b96a126688f22770d" target="_top" xlink:title="Retrieve the Coin (unspent transaction output) for a given outpoint. ">
<polygon fill="white" stroke="black" points="359.5,-762 359.5,-781 489.5,-781 489.5,-762 359.5,-762"/>
<text text-anchor="middle" x="424.5" y="-769" font-family="Helvetica,sans-Serif" font-size="10.00">CCoinsViewDB::GetCoin</text>
</a>
</g>
</g>
<!-- Node16&#45;&gt;Node19 -->
<g id="edge26" class="edge"><title>Node16&#45;&gt;Node19</title>
<path fill="none" stroke="midnightblue" d="M248.582,-710.219C271.274,-722.986 305.948,-741.152 338,-752.5 348.464,-756.205 359.912,-759.342 370.933,-761.933"/>
<polygon fill="midnightblue" stroke="midnightblue" points="250.053,-707.028 239.633,-705.113 246.584,-713.109 250.053,-707.028"/>
</g>
<!-- Node20 -->
<g id="node20" class="node"><title>Node20</title>
<g id="a_node20"><a xlink:href="class_c_coins_view_d_b.html#aac696880a5bb854dcdcb20d8a035be9b" target="_top" xlink:title="Retrieve the block hash whose state this CCoinsView currently represents. ">
<polygon fill="white" stroke="black" points="346.5,-800 346.5,-819 502.5,-819 502.5,-800 346.5,-800"/>
<text text-anchor="middle" x="424.5" y="-807" font-family="Helvetica,sans-Serif" font-size="10.00">CCoinsViewDB::GetBestBlock</text>
</a>
</g>
</g>
<!-- Node16&#45;&gt;Node20 -->
<g id="edge27" class="edge"><title>Node16&#45;&gt;Node20</title>
<path fill="none" stroke="midnightblue" d="M238.867,-712.485C259.339,-734.029 297.688,-770.747 338,-790.5 345.92,-794.381 354.64,-797.478 363.39,-799.948"/>
<polygon fill="midnightblue" stroke="midnightblue" points="241.306,-709.969 231.929,-705.038 236.184,-714.741 241.306,-709.969"/>
</g>
<!-- Node21 -->
<g id="node21" class="node"><title>Node21</title>
<g id="a_node21"><a xlink:href="class_c_coins_view_d_b.html#aec0d3d60ab629a23873894e44b6bc266" target="_top" xlink:title="Retrieve the range of blocks that may have been only partially written. ">
<polygon fill="white" stroke="black" points="342,-838 342,-857 507,-857 507,-838 342,-838"/>
<text text-anchor="middle" x="424.5" y="-845" font-family="Helvetica,sans-Serif" font-size="10.00">CCoinsViewDB::GetHeadBlocks</text>
</a>
</g>
</g>
<!-- Node16&#45;&gt;Node21 -->
<g id="edge29" class="edge"><title>Node16&#45;&gt;Node21</title>
<path fill="none" stroke="midnightblue" d="M233.854,-713.799C251.345,-742.938 289.615,-799.54 338,-828.5 344.524,-832.405 351.761,-835.509 359.183,-837.976"/>
<polygon fill="midnightblue" stroke="midnightblue" points="236.805,-711.913 228.734,-705.05 230.764,-715.449 236.805,-711.913"/>
</g>
<!-- Node22 -->
<g id="node22" class="node"><title>Node22</title>
<g id="a_node22"><a xlink:href="class_c_block_tree_d_b.html#a3f597e6bab0a7003cbf7ea86cb434e85" target="_top" xlink:title="CBlockTreeDB::ReadBlockFileInfo">
<polygon fill="white" stroke="black" points="339.5,-724 339.5,-743 509.5,-743 509.5,-724 339.5,-724"/>
<text text-anchor="middle" x="424.5" y="-731" font-family="Helvetica,sans-Serif" font-size="10.00">CBlockTreeDB::ReadBlockFileInfo</text>
</a>
</g>
</g>
<!-- Node16&#45;&gt;Node22 -->
<g id="edge31" class="edge"><title>Node16&#45;&gt;Node22</title>
<path fill="none" stroke="midnightblue" d="M283.595,-706.918C312.212,-712.355 346.043,-718.783 373.269,-723.956"/>
<polygon fill="midnightblue" stroke="midnightblue" points="284.188,-703.468 273.71,-705.04 282.881,-710.345 284.188,-703.468"/>
</g>
<!-- Node23 -->
<g id="node23" class="node"><title>Node23</title>
<g id="a_node23"><a xlink:href="class_c_block_tree_d_b.html#adb1276fe2f0e0c4c106660948c581711" target="_top" xlink:title="CBlockTreeDB::ReadLastBlockFile">
<polygon fill="white" stroke="black" points="338,-686 338,-705 511,-705 511,-686 338,-686"/>
<text text-anchor="middle" x="424.5" y="-693" font-family="Helvetica,sans-Serif" font-size="10.00">CBlockTreeDB::ReadLastBlockFile</text>
</a>
</g>
</g>
<!-- Node16&#45;&gt;Node23 -->
<g id="edge32" class="edge"><title>Node16&#45;&gt;Node23</title>
<path fill="none" stroke="midnightblue" d="M285.561,-695.5C302.045,-695.5 320.144,-695.5 337.653,-695.5"/>
<polygon fill="midnightblue" stroke="midnightblue" points="285.526,-692 275.526,-695.5 285.526,-699 285.526,-692"/>
</g>
<!-- Node24 -->
<g id="node24" class="node"><title>Node24</title>
<g id="a_node24"><a xlink:href="class_c_block_tree_d_b.html#acd779c4653fd9a87fffe95d53ce7c6d3" target="_top" xlink:title="CBlockTreeDB::ReadFlag">
<polygon fill="white" stroke="black" points="565,-572 565,-591 696,-591 696,-572 565,-572"/>
<text text-anchor="middle" x="630.5" y="-579" font-family="Helvetica,sans-Serif" font-size="10.00">CBlockTreeDB::ReadFlag</text>
</a>
</g>
</g>
<!-- Node16&#45;&gt;Node24 -->
<g id="edge33" class="edge"><title>Node16&#45;&gt;Node24</title>
<path fill="none" stroke="midnightblue" d="M232.953,-676.393C249.395,-645.615 286.495,-586.122 338,-562.5 428.122,-521.168 550.598,-554.045 603.454,-571.893"/>
<polygon fill="midnightblue" stroke="midnightblue" points="229.658,-675.146 228.178,-685.637 235.877,-678.359 229.658,-675.146"/>
</g>
<!-- Node20&#45;&gt;Node10 -->
<g id="edge28" class="edge"><title>Node20&#45;&gt;Node10</title>
<path fill="none" stroke="midnightblue" d="M482.208,-821.335C491.853,-823.567 501.741,-825.992 511,-828.5 542.489,-837.028 578.059,-848.717 601.94,-856.87"/>
<polygon fill="midnightblue" stroke="midnightblue" points="482.809,-817.882 472.283,-819.084 481.261,-824.709 482.809,-817.882"/>
</g>
<!-- Node21&#45;&gt;Node10 -->
<g id="edge30" class="edge"><title>Node21&#45;&gt;Node10</title>
<path fill="none" stroke="midnightblue" d="M517.162,-856.037C531.196,-857.344 545.494,-858.676 558.977,-859.932"/>
<polygon fill="midnightblue" stroke="midnightblue" points="517.287,-852.534 507.006,-855.091 516.638,-859.504 517.287,-852.534"/>
</g>
<!-- Node24&#45;&gt;Node6 -->
<g id="edge34" class="edge"><title>Node24&#45;&gt;Node6</title>
<path fill="none" stroke="midnightblue" d="M659.776,-596.243C677.816,-607.034 700.302,-623.294 714,-643.5 801.182,-772.106 815.469,-971.319 817.636,-1016.96"/>
<polygon fill="midnightblue" stroke="midnightblue" points="661.234,-593.044 650.817,-591.107 657.752,-599.117 661.234,-593.044"/>
</g>
<!-- Node26 -->
<g id="node26" class="node"><title>Node26</title>
<g id="a_node26"><a xlink:href="class_c_coins_view_d_b.html#a3fcf56cd1715d603eccacc500ef03609" target="_top" xlink:title="Just check whether a given outpoint is unspent. ">
<polygon fill="white" stroke="black" points="356,-496 356,-515 493,-515 493,-496 356,-496"/>
<text text-anchor="middle" x="424.5" y="-503" font-family="Helvetica,sans-Serif" font-size="10.00">CCoinsViewDB::HaveCoin</text>
</a>
</g>
</g>
<!-- Node25&#45;&gt;Node26 -->
<g id="edge36" class="edge"><title>Node25&#45;&gt;Node26</title>
<path fill="none" stroke="midnightblue" d="M287.726,-520.435C309.444,-518.046 333.754,-515.372 355.737,-512.954"/>
<polygon fill="midnightblue" stroke="midnightblue" points="287.18,-516.974 277.623,-521.546 287.946,-523.932 287.18,-516.974"/>
</g>
<!-- Node27 -->
<g id="node27" class="node"><title>Node27</title>
<g id="a_node27"><a xlink:href="class_c_block_tree_d_b.html#a724d07b1333dba0027d6e427af930dc5" target="_top" xlink:title="CBlockTreeDB::ReadReindexing">
<polygon fill="white" stroke="black" points="343,-458 343,-477 506,-477 506,-458 343,-458"/>
<text text-anchor="middle" x="424.5" y="-465" font-family="Helvetica,sans-Serif" font-size="10.00">CBlockTreeDB::ReadReindexing</text>
</a>
</g>
</g>
<!-- Node25&#45;&gt;Node27 -->
<g id="edge37" class="edge"><title>Node25&#45;&gt;Node27</title>
<path fill="none" stroke="midnightblue" d="M283.305,-515.099C289.707,-513.16 296.05,-510.967 302,-508.5 319.322,-501.319 320.612,-493.518 338,-486.5 347.447,-482.687 357.806,-479.568 367.952,-477.042"/>
<polygon fill="midnightblue" stroke="midnightblue" points="281.916,-511.854 273.243,-517.938 283.817,-518.591 281.916,-511.854"/>
</g>
<!-- Node29 -->
<g id="node29" class="node"><title>Node29</title>
<g id="a_node29"><a xlink:href="class_c_coins_view_d_b.html#aff2543247ac56cc5f708aa9be387e72b" target="_top" xlink:title="Estimate database size (0 if not implemented) ">
<polygon fill="white" stroke="black" points="347,-420 347,-439 502,-439 502,-420 347,-420"/>
<text text-anchor="middle" x="424.5" y="-427" font-family="Helvetica,sans-Serif" font-size="10.00">CCoinsViewDB::EstimateSize</text>
</a>
</g>
</g>
<!-- Node28&#45;&gt;Node29 -->
<g id="edge39" class="edge"><title>Node28&#45;&gt;Node29</title>
<path fill="none" stroke="midnightblue" d="M279.514,-477.276C287.18,-475.013 294.862,-472.424 302,-469.5 319.141,-462.479 320.753,-455.256 338,-448.5 347.628,-444.728 358.173,-441.62 368.47,-439.088"/>
<polygon fill="midnightblue" stroke="midnightblue" points="278.548,-473.912 269.855,-479.97 280.428,-480.655 278.548,-473.912"/>
</g>
<!-- Node30&#45;&gt;Node9 -->
<g id="edge41" class="edge"><title>Node30&#45;&gt;Node9</title>
<path fill="none" stroke="midnightblue" d="M259.104,-1031.36C281.56,-1039.2 311.269,-1049.11 338,-1056.5 350.312,-1059.9 363.749,-1063.12 376.248,-1065.9"/>
<polygon fill="midnightblue" stroke="midnightblue" points="260.239,-1028.04 249.644,-1028.02 257.912,-1034.65 260.239,-1028.04"/>
</g>
<!-- Node33 -->
<g id="node33" class="node"><title>Node33</title>
<g id="a_node33"><a xlink:href="class_send_coins_dialog.html#a2cab7cf9ea5040b9e2189297f7d3c764" target="_top" xlink:title="SendCoinsDialog::on\l_sendButton_clicked">
<polygon fill="white" stroke="black" points="366.5,-370.5 366.5,-400.5 482.5,-400.5 482.5,-370.5 366.5,-370.5"/>
<text text-anchor="start" x="374.5" y="-388.5" font-family="Helvetica,sans-Serif" font-size="10.00">SendCoinsDialog::on</text>
<text text-anchor="middle" x="424.5" y="-377.5" font-family="Helvetica,sans-Serif" font-size="10.00">_sendButton_clicked</text>
</a>
</g>
</g>
<!-- Node32&#45;&gt;Node33 -->
<g id="edge44" class="edge"><title>Node32&#45;&gt;Node33</title>
<path fill="none" stroke="midnightblue" d="M296.55,-395.656C319.516,-393.819 344.532,-391.817 366.238,-390.081"/>
<polygon fill="midnightblue" stroke="midnightblue" points="296.196,-392.173 286.507,-396.459 296.754,-399.151 296.196,-392.173"/>
</g>
<!-- Node34&#45;&gt;Node35 -->
<g id="edge46" class="edge"><title>Node34&#45;&gt;Node35</title>
<path fill="none" stroke="midnightblue" d="M272.231,-354.241C306.2,-347.787 350.988,-339.277 382.997,-333.196"/>
<polygon fill="midnightblue" stroke="midnightblue" points="271.233,-350.868 262.062,-356.173 272.54,-357.745 271.233,-350.868"/>
</g>
<!-- Node36&#45;&gt;Node35 -->
<g id="edge48" class="edge"><title>Node36&#45;&gt;Node35</title>
<path fill="none" stroke="midnightblue" d="M266.754,-325.5C301.197,-325.5 349.065,-325.5 382.816,-325.5"/>
<polygon fill="midnightblue" stroke="midnightblue" points="266.526,-322 256.526,-325.5 266.526,-329 266.526,-322"/>
</g>
<!-- Node38 -->
<g id="node38" class="node"><title>Node38</title>
<g id="a_node38"><a xlink:href="class_berkeley_database.html#a02181a0f0943c68156d94ce658989849" target="_top" xlink:title="Rewrite the entire database on disk, with the exception of key pszSkip if non&#45;zero. ">
<polygon fill="white" stroke="black" points="558.5,-259 558.5,-278 702.5,-278 702.5,-259 558.5,-259"/>
<text text-anchor="middle" x="630.5" y="-266" font-family="Helvetica,sans-Serif" font-size="10.00">BerkeleyDatabase::Rewrite</text>
</a>
</g>
</g>
<!-- Node37&#45;&gt;Node38 -->
<g id="edge51" class="edge"><title>Node37&#45;&gt;Node38</title>
<path fill="none" stroke="midnightblue" d="M497.421,-256.199C517.172,-258.038 538.577,-260.032 558.288,-261.868"/>
<polygon fill="midnightblue" stroke="midnightblue" points="497.542,-252.695 487.26,-255.252 496.893,-259.665 497.542,-252.695"/>
</g>
<!-- Node39 -->
<g id="node39" class="node"><title>Node39</title>
<g id="a_node39"><a xlink:href="class_berkeley_database.html#acd50f7e44ad659b6c3a3dc94c8155859" target="_top" xlink:title="Return object for accessing temporary in&#45;memory database. ">
<polygon fill="white" stroke="red" points="547,-221 547,-240 714,-240 714,-221 547,-221"/>
<text text-anchor="middle" x="630.5" y="-228" font-family="Helvetica,sans-Serif" font-size="10.00">BerkeleyDatabase::CreateMock</text>
</a>
</g>
</g>
<!-- Node37&#45;&gt;Node39 -->
<g id="edge52" class="edge"><title>Node37&#45;&gt;Node39</title>
<path fill="none" stroke="midnightblue" d="M497.566,-242.788C513.511,-241.303 530.527,-239.718 546.856,-238.197"/>
<polygon fill="midnightblue" stroke="midnightblue" points="496.893,-239.335 487.26,-243.748 497.542,-246.305 496.893,-239.335"/>
</g>
<!-- Node41 -->
<g id="node41" class="node"><title>Node41</title>
<g id="a_node41"><a xlink:href="class_wallet_batch.html#a79ad2ac5d901ecb4ef37ac877a335b76" target="_top" xlink:title="WalletBatch::ReadBestBlock">
<polygon fill="white" stroke="red" points="350,-126 350,-145 499,-145 499,-126 350,-126"/>
<text text-anchor="middle" x="424.5" y="-133" font-family="Helvetica,sans-Serif" font-size="10.00">WalletBatch::ReadBestBlock</text>
</a>
</g>
</g>
<!-- Node40&#45;&gt;Node41 -->
<g id="edge54" class="edge"><title>Node40&#45;&gt;Node41</title>
<path fill="none" stroke="midnightblue" d="M283.595,-162.082C312.212,-156.645 346.043,-150.217 373.269,-145.044"/>
<polygon fill="midnightblue" stroke="midnightblue" points="282.881,-158.655 273.71,-163.96 284.188,-165.532 282.881,-158.655"/>
</g>
<!-- Node42 -->
<g id="node42" class="node"><title>Node42</title>
<g id="a_node42"><a xlink:href="class_wallet_batch.html#a4ba38551200a5cbfbaafbb5826a009b8" target="_top" xlink:title="WalletBatch::ReadPool">
<polygon fill="white" stroke="red" points="363.5,-88 363.5,-107 485.5,-107 485.5,-88 363.5,-88"/>
<text text-anchor="middle" x="424.5" y="-95" font-family="Helvetica,sans-Serif" font-size="10.00">WalletBatch::ReadPool</text>
</a>
</g>
</g>
<!-- Node40&#45;&gt;Node42 -->
<g id="edge55" class="edge"><title>Node40&#45;&gt;Node42</title>
<path fill="none" stroke="midnightblue" d="M289.79,-160.448C294.031,-158.707 298.142,-156.734 302,-154.5 322.132,-142.841 317.759,-127.97 338,-116.5 345.805,-112.077 354.554,-108.684 363.397,-106.08"/>
<polygon fill="midnightblue" stroke="midnightblue" points="288.534,-157.181 280.344,-163.902 290.938,-163.755 288.534,-157.181"/>
</g>
<!-- Node43 -->
<g id="node43" class="node"><title>Node43</title>
<g id="a_node43"><a xlink:href="class_wallet_batch.html#af17758ea2f62ca2d80def7ae780e81f8" target="_top" xlink:title="WalletBatch::LoadWallet">
<polygon fill="white" stroke="red" points="360,-164 360,-183 489,-183 489,-164 360,-164"/>
<text text-anchor="middle" x="424.5" y="-171" font-family="Helvetica,sans-Serif" font-size="10.00">WalletBatch::LoadWallet</text>
</a>
</g>
</g>
<!-- Node40&#45;&gt;Node43 -->
<g id="edge56" class="edge"><title>Node40&#45;&gt;Node43</title>
<path fill="none" stroke="midnightblue" d="M290.121,-173.5C312.558,-173.5 337.526,-173.5 359.737,-173.5"/>
<polygon fill="midnightblue" stroke="midnightblue" points="290.01,-170 280.01,-173.5 290.01,-177 290.01,-170"/>
</g>
<!-- Node44 -->
<g id="node44" class="node"><title>Node44</title>
<g id="a_node44"><a xlink:href="class_wallet_batch.html#a32af4723c4cb7cb41958b42b13f78f78" target="_top" xlink:title="WalletBatch::FindWalletTx">
<polygon fill="white" stroke="red" points="357,-202 357,-221 492,-221 492,-202 357,-202"/>
<text text-anchor="middle" x="424.5" y="-209" font-family="Helvetica,sans-Serif" font-size="10.00">WalletBatch::FindWalletTx</text>
</a>
</g>
</g>
<!-- Node40&#45;&gt;Node44 -->
<g id="edge57" class="edge"><title>Node40&#45;&gt;Node44</title>
<path fill="none" stroke="midnightblue" d="M283.595,-184.918C312.212,-190.355 346.043,-196.783 373.269,-201.956"/>
<polygon fill="midnightblue" stroke="midnightblue" points="284.188,-181.468 273.71,-183.04 282.881,-188.345 284.188,-181.468"/>
</g>
<!-- Node48 -->
<g id="node48" class="node"><title>Node48</title>
<g id="a_node48"><a xlink:href="class_berkeley_batch.html#ae8f502cca937a7339e3e8fc39c9791e1" target="_top" xlink:title="BerkeleyBatch::BerkeleyBatch">
<polygon fill="white" stroke="black" points="344,-50 344,-69 505,-69 505,-50 344,-50"/>
<text text-anchor="middle" x="424.5" y="-57" font-family="Helvetica,sans-Serif" font-size="10.00">BerkeleyBatch::BerkeleyBatch</text>
</a>
</g>
</g>
<!-- Node47&#45;&gt;Node48 -->
<g id="edge61" class="edge"><title>Node47&#45;&gt;Node48</title>
<path fill="none" stroke="midnightblue" d="M292.282,-59.5C308.838,-59.5 326.664,-59.5 343.677,-59.5"/>
<polygon fill="midnightblue" stroke="midnightblue" points="292.155,-56.0001 282.155,-59.5 292.155,-63.0001 292.155,-56.0001"/>
</g>
<!-- Node49&#45;&gt;Node37 -->
<g id="edge63" class="edge"><title>Node49&#45;&gt;Node37</title>
<path fill="none" stroke="midnightblue" d="M283.595,-222.918C312.212,-228.355 346.043,-234.783 373.269,-239.956"/>
<polygon fill="midnightblue" stroke="midnightblue" points="284.188,-219.468 273.71,-221.04 282.881,-226.345 284.188,-219.468"/>
</g>
<!-- Node49&#45;&gt;Node43 -->
<g id="edge64" class="edge"><title>Node49&#45;&gt;Node43</title>
<path fill="none" stroke="midnightblue" d="M283.595,-200.082C312.212,-194.645 346.043,-188.217 373.269,-183.044"/>
<polygon fill="midnightblue" stroke="midnightblue" points="282.881,-196.655 273.71,-201.96 284.188,-203.532 282.881,-196.655"/>
</g>
<!-- Node49&#45;&gt;Node44 -->
<g id="edge65" class="edge"><title>Node49&#45;&gt;Node44</title>
<path fill="none" stroke="midnightblue" d="M311.144,-211.5C326.52,-211.5 342.293,-211.5 356.977,-211.5"/>
<polygon fill="midnightblue" stroke="midnightblue" points="311.112,-208 301.111,-211.5 311.111,-215 311.112,-208"/>
</g>
</g>
</svg>
