<?xml version="1.0" encoding="UTF-8" standalone="no"?>
<!DOCTYPE svg PUBLIC "-//W3C//DTD SVG 1.1//EN"
 "http://www.w3.org/Graphics/SVG/1.1/DTD/svg11.dtd">
<!-- Generated by graphviz version 2.38.0 (20140413.2041)
 -->
<!-- Title: CChainState::ReceivedBlockTransactions Pages: 1 -->
<svg width="1180pt" height="730pt"
 viewBox="0.00 0.00 1180.00 730.00" xmlns="http://www.w3.org/2000/svg" xmlns:xlink="http://www.w3.org/1999/xlink">
<g id="graph0" class="graph" transform="scale(1 1) rotate(0) translate(4 726)">
<title>CChainState::ReceivedBlockTransactions</title>
<polygon fill="white" stroke="none" points="-4,4 -4,-726 1176,-726 1176,4 -4,4"/>
<!-- Node1 -->
<g id="node1" class="node"><title>Node1</title>
<polygon fill="#bfbfbf" stroke="black" points="0,-284 0,-314 150,-314 150,-284 0,-284"/>
<text text-anchor="start" x="8" y="-302" font-family="Helvetica,sans-Serif" font-size="10.00">CChainState::ReceivedBlock</text>
<text text-anchor="middle" x="75" y="-291" font-family="Helvetica,sans-Serif" font-size="10.00">Transactions</text>
</g>
<!-- Node2 -->
<g id="node2" class="node"><title>Node2</title>
<g id="a_node2"><a xlink:href="validation_8cpp.html#acb0226867d001d0edd267f2e4842bace" target="_top" xlink:title="Check whether witness commitments are required for block. ">
<polygon fill="white" stroke="black" points="226,-479.5 226,-498.5 325,-498.5 325,-479.5 226,-479.5"/>
<text text-anchor="middle" x="275.5" y="-486.5" font-family="Helvetica,sans-Serif" font-size="10.00">IsWitnessEnabled</text>
</a>
</g>
</g>
<!-- Node1&#45;&gt;Node2 -->
<g id="edge1" class="edge"><title>Node1&#45;&gt;Node2</title>
<path fill="none" stroke="midnightblue" d="M83.3132,-314.017C98.5427,-343.892 136.408,-411.309 186,-451 199.279,-461.628 215.978,-469.81 231.282,-475.811"/>
<polygon fill="midnightblue" stroke="midnightblue" points="230.495,-479.252 241.088,-479.444 232.927,-472.688 230.495,-479.252"/>
</g>
<!-- Node4 -->
<g id="node4" class="node"><title>Node4</title>
<g id="a_node4"><a xlink:href="class_c_block_index.html#a076aff906933e9d75a37aa9b81c01384" target="_top" xlink:title="Raise the validity level of this block index entry. ">
<polygon fill="white" stroke="black" points="205.5,-422.5 205.5,-441.5 345.5,-441.5 345.5,-422.5 205.5,-422.5"/>
<text text-anchor="middle" x="275.5" y="-429.5" font-family="Helvetica,sans-Serif" font-size="10.00">CBlockIndex::RaiseValidity</text>
</a>
</g>
</g>
<!-- Node1&#45;&gt;Node4 -->
<g id="edge3" class="edge"><title>Node1&#45;&gt;Node4</title>
<path fill="none" stroke="midnightblue" d="M86.1468,-314.334C103.48,-339.227 141.289,-388.145 186,-413 190.159,-415.312 194.573,-417.343 199.122,-419.127"/>
<polygon fill="midnightblue" stroke="midnightblue" points="198.019,-422.449 208.613,-422.453 200.333,-415.843 198.019,-422.449"/>
</g>
<!-- Node26 -->
<g id="node26" class="node"><title>Node26</title>
<g id="a_node26"><a xlink:href="class_c_block_index.html#aa31a93fd2095ae5bcfe54ccaadfcbbbd" target="_top" xlink:title="Check whether this block&#39;s and all previous blocks&#39; transactions have been downloaded (and stored to ...">
<polygon fill="white" stroke="black" points="186,-384.5 186,-403.5 365,-403.5 365,-384.5 186,-384.5"/>
<text text-anchor="middle" x="275.5" y="-391.5" font-family="Helvetica,sans-Serif" font-size="10.00">CBlockIndex::HaveTxsDownloaded</text>
</a>
</g>
</g>
<!-- Node1&#45;&gt;Node26 -->
<g id="edge27" class="edge"><title>Node1&#45;&gt;Node26</title>
<path fill="none" stroke="midnightblue" d="M93.3691,-314.282C114.018,-331.631 150.205,-359.526 186,-375 191.869,-377.537 198.108,-379.748 204.451,-381.672"/>
<polygon fill="midnightblue" stroke="midnightblue" points="203.894,-385.15 214.466,-384.464 205.774,-378.407 203.894,-385.15"/>
</g>
<!-- Node27 -->
<g id="node27" class="node"><title>Node27</title>
<g id="a_node27"><a xlink:href="class_c_chain.html#a7482d06d8e8143f46326cf9c12c06daf" target="_top" xlink:title="Returns the index entry for the tip of this chain, or nullptr if none. ">
<polygon fill="white" stroke="black" points="240.5,-346.5 240.5,-365.5 310.5,-365.5 310.5,-346.5 240.5,-346.5"/>
<text text-anchor="middle" x="275.5" y="-353.5" font-family="Helvetica,sans-Serif" font-size="10.00">CChain::Tip</text>
</a>
</g>
</g>
<!-- Node1&#45;&gt;Node27 -->
<g id="edge28" class="edge"><title>Node1&#45;&gt;Node27</title>
<path fill="none" stroke="midnightblue" d="M115.861,-314.077C136.589,-321.582 162.452,-330.431 186,-337 200.251,-340.976 215.99,-344.597 230.195,-347.587"/>
<polygon fill="midnightblue" stroke="midnightblue" points="229.724,-351.063 240.223,-349.648 231.133,-344.206 229.724,-351.063"/>
</g>
<!-- Node28 -->
<g id="node28" class="node"><title>Node28</title>
<g id="a_node28"><a xlink:href="class_c_block_index.html#ab79ac7f3db34001898a371ecce27808f" target="_top" xlink:title="Check whether this block index entry is valid up to the passed validity level. ">
<polygon fill="white" stroke="black" points="220.5,-308.5 220.5,-327.5 330.5,-327.5 330.5,-308.5 220.5,-308.5"/>
<text text-anchor="middle" x="275.5" y="-315.5" font-family="Helvetica,sans-Serif" font-size="10.00">CBlockIndex::IsValid</text>
</a>
</g>
</g>
<!-- Node1&#45;&gt;Node28 -->
<g id="edge29" class="edge"><title>Node1&#45;&gt;Node28</title>
<path fill="none" stroke="midnightblue" d="M150.196,-306.102C169.892,-307.987 190.996,-310.007 210.12,-311.838"/>
<polygon fill="midnightblue" stroke="midnightblue" points="209.933,-315.336 220.221,-312.804 210.6,-308.367 209.933,-315.336"/>
</g>
<!-- Node29 -->
<g id="node29" class="node"><title>Node29</title>
<g id="a_node29"><a xlink:href="class_flat_file_seq.html#acb689529e3806eaeaf53d14ee3f3aeca" target="_top" xlink:title="Allocate additional space in a file after the given starting position. ">
<polygon fill="white" stroke="black" points="219.5,-217.5 219.5,-236.5 331.5,-236.5 331.5,-217.5 219.5,-217.5"/>
<text text-anchor="middle" x="275.5" y="-224.5" font-family="Helvetica,sans-Serif" font-size="10.00">FlatFileSeq::Allocate</text>
</a>
</g>
</g>
<!-- Node1&#45;&gt;Node29 -->
<g id="edge30" class="edge"><title>Node1&#45;&gt;Node29</title>
<path fill="none" stroke="midnightblue" d="M117.612,-283.906C153.413,-270.921 204.526,-252.381 238.571,-240.032"/>
<polygon fill="midnightblue" stroke="midnightblue" points="239.916,-243.268 248.123,-236.567 237.529,-236.687 239.916,-243.268"/>
</g>
<!-- Node38 -->
<g id="node38" class="node"><title>Node38</title>
<g id="a_node38"><a xlink:href="system_8h.html#aad133bb6103b53cebf03fd01e2f11ba1" target="_top" xlink:title="Translation function. ">
<polygon fill="white" stroke="black" points="261,-160.5 261,-179.5 290,-179.5 290,-160.5 261,-160.5"/>
<text text-anchor="middle" x="275.5" y="-167.5" font-family="Helvetica,sans-Serif" font-size="10.00">_</text>
</a>
</g>
</g>
<!-- Node1&#45;&gt;Node38 -->
<g id="edge40" class="edge"><title>Node1&#45;&gt;Node38</title>
<path fill="none" stroke="midnightblue" d="M91.3,-283.891C111.606,-264.442 149.197,-230.481 186,-208 206.852,-195.262 232.736,-184.685 251.112,-177.951"/>
<polygon fill="midnightblue" stroke="midnightblue" points="252.472,-181.182 260.719,-174.53 250.124,-174.588 252.472,-181.182"/>
</g>
<!-- Node41 -->
<g id="node41" class="node"><title>Node41</title>
<g id="a_node41"><a xlink:href="pow_8cpp.html#a4e1129d7ab72643eb7e830f7f72953d7" target="_top" xlink:title="Check whether a block hash satisfies the proof&#45;of&#45;work requirement specified by nBits. ">
<polygon fill="white" stroke="black" points="612,-284.5 612,-303.5 716,-303.5 716,-284.5 612,-284.5"/>
<text text-anchor="middle" x="664" y="-291.5" font-family="Helvetica,sans-Serif" font-size="10.00">CheckProofOfWork</text>
</a>
</g>
</g>
<!-- Node1&#45;&gt;Node41 -->
<g id="edge43" class="edge"><title>Node1&#45;&gt;Node41</title>
<path fill="none" stroke="midnightblue" d="M150.047,-298.369C267.24,-297.371 493.272,-295.446 601.851,-294.521"/>
<polygon fill="midnightblue" stroke="midnightblue" points="602.015,-298.02 611.985,-294.435 601.955,-291.02 602.015,-298.02"/>
</g>
<!-- Node42 -->
<g id="node42" class="node"><title>Node42</title>
<g id="a_node42"><a xlink:href="class_c_block_header.html#ae1165e54882d364b030fb33673d64dbd" target="_top" xlink:title="CBlockHeader::GetHash">
<polygon fill="white" stroke="black" points="209.5,-122.5 209.5,-141.5 341.5,-141.5 341.5,-122.5 209.5,-122.5"/>
<text text-anchor="middle" x="275.5" y="-129.5" font-family="Helvetica,sans-Serif" font-size="10.00">CBlockHeader::GetHash</text>
</a>
</g>
</g>
<!-- Node1&#45;&gt;Node42 -->
<g id="edge46" class="edge"><title>Node1&#45;&gt;Node42</title>
<path fill="none" stroke="midnightblue" d="M82.8169,-283.547C97.1542,-252.965 133.495,-184.77 186,-151 190.349,-148.203 195.043,-145.811 199.92,-143.766"/>
<polygon fill="midnightblue" stroke="midnightblue" points="201.307,-146.985 209.483,-140.246 198.89,-140.415 201.307,-146.985"/>
</g>
<!-- Node50 -->
<g id="node50" class="node"><title>Node50</title>
<g id="a_node50"><a xlink:href="class_c_validation_state.html#a084ab7448f23966f0650d3ca53d0b88a" target="_top" xlink:title="CValidationState::DoS">
<polygon fill="white" stroke="black" points="214.5,-84.5 214.5,-103.5 336.5,-103.5 336.5,-84.5 214.5,-84.5"/>
<text text-anchor="middle" x="275.5" y="-91.5" font-family="Helvetica,sans-Serif" font-size="10.00">CValidationState::DoS</text>
</a>
</g>
</g>
<!-- Node1&#45;&gt;Node50 -->
<g id="edge55" class="edge"><title>Node1&#45;&gt;Node50</title>
<path fill="none" stroke="midnightblue" d="M80.3271,-283.842C91.4051,-247.937 124.351,-157.395 186,-113 191.569,-108.99 197.814,-105.794 204.341,-103.253"/>
<polygon fill="midnightblue" stroke="midnightblue" points="205.702,-106.488 214.061,-99.9792 203.467,-99.8545 205.702,-106.488"/>
</g>
<!-- Node3 -->
<g id="node3" class="node"><title>Node3</title>
<g id="a_node3"><a xlink:href="versionbits_8cpp.html#a90d3b0a121694c9559dddcdd848757be" target="_top" xlink:title="VersionBitsState">
<polygon fill="white" stroke="black" points="431.5,-489.5 431.5,-508.5 527.5,-508.5 527.5,-489.5 431.5,-489.5"/>
<text text-anchor="middle" x="479.5" y="-496.5" font-family="Helvetica,sans-Serif" font-size="10.00">VersionBitsState</text>
</a>
</g>
</g>
<!-- Node2&#45;&gt;Node3 -->
<g id="edge2" class="edge"><title>Node2&#45;&gt;Node3</title>
<path fill="none" stroke="midnightblue" d="M325.141,-491.408C354.089,-492.841 390.969,-494.667 421.308,-496.169"/>
<polygon fill="midnightblue" stroke="midnightblue" points="421.164,-499.666 431.325,-496.665 421.511,-492.674 421.164,-499.666"/>
</g>
<!-- Node5 -->
<g id="node5" class="node"><title>Node5</title>
<g id="a_node5"><a xlink:href="chain_8h.html#a334aa8015cc7185f7fdf484783e40f38" target="_top" xlink:title="GetBlockProof">
<polygon fill="white" stroke="black" points="437.5,-413.5 437.5,-432.5 521.5,-432.5 521.5,-413.5 437.5,-413.5"/>
<text text-anchor="middle" x="479.5" y="-420.5" font-family="Helvetica,sans-Serif" font-size="10.00">GetBlockProof</text>
</a>
</g>
</g>
<!-- Node4&#45;&gt;Node5 -->
<g id="edge4" class="edge"><title>Node4&#45;&gt;Node5</title>
<path fill="none" stroke="midnightblue" d="M345.734,-428.915C372.416,-427.726 402.391,-426.391 427.099,-425.29"/>
<polygon fill="midnightblue" stroke="midnightblue" points="427.506,-428.776 437.34,-424.834 427.194,-421.783 427.506,-428.776"/>
</g>
<!-- Node7 -->
<g id="node7" class="node"><title>Node7</title>
<g id="a_node7"><a xlink:href="chain_8h.html#a6f922f61b23b0fc46182f8ab457af736" target="_top" xlink:title="Return the time it would take to redo the work difference between from and to, assuming the current h...">
<polygon fill="white" stroke="black" points="401,-451.5 401,-470.5 558,-470.5 558,-451.5 401,-451.5"/>
<text text-anchor="middle" x="479.5" y="-458.5" font-family="Helvetica,sans-Serif" font-size="10.00">GetBlockProofEquivalentTime</text>
</a>
</g>
</g>
<!-- Node4&#45;&gt;Node7 -->
<g id="edge6" class="edge"><title>Node4&#45;&gt;Node7</title>
<path fill="none" stroke="midnightblue" d="M342.922,-441.536C361.821,-444.249 382.557,-447.226 402.003,-450.018"/>
<polygon fill="midnightblue" stroke="midnightblue" points="401.642,-453.502 412.038,-451.458 402.637,-446.573 401.642,-453.502"/>
</g>
<!-- Node24 -->
<g id="node24" class="node"><title>Node24</title>
<g id="a_node24"><a xlink:href="chain_8h.html#a821669bb03bef97dac98734b839c3006" target="_top" xlink:title="Find the forking point between two chain tips. ">
<polygon fill="white" stroke="black" points="417.5,-375.5 417.5,-394.5 541.5,-394.5 541.5,-375.5 417.5,-375.5"/>
<text text-anchor="middle" x="479.5" y="-382.5" font-family="Helvetica,sans-Serif" font-size="10.00">LastCommonAncestor</text>
</a>
</g>
</g>
<!-- Node4&#45;&gt;Node24 -->
<g id="edge25" class="edge"><title>Node4&#45;&gt;Node24</title>
<path fill="none" stroke="midnightblue" d="M322.498,-422.43C336.195,-419.498 351.224,-416.2 365,-413 381.065,-409.269 384.991,-407.964 401,-404 410.282,-401.702 420.192,-399.262 429.718,-396.924"/>
<polygon fill="midnightblue" stroke="midnightblue" points="430.584,-400.315 439.463,-394.534 428.917,-393.516 430.584,-400.315"/>
</g>
<!-- Node6 -->
<g id="node6" class="node"><title>Node6</title>
<g id="a_node6"><a xlink:href="classarith__uint256.html#a06c0f1937edece69b8d33f88e8d35bc8" target="_top" xlink:title="The &quot;compact&quot; format is a representation of a whole number N using an unsigned 32bit number similar t...">
<polygon fill="white" stroke="black" points="770,-284.5 770,-303.5 916,-303.5 916,-284.5 770,-284.5"/>
<text text-anchor="middle" x="843" y="-291.5" font-family="Helvetica,sans-Serif" font-size="10.00">arith_uint256::SetCompact</text>
</a>
</g>
</g>
<!-- Node5&#45;&gt;Node6 -->
<g id="edge5" class="edge"><title>Node5&#45;&gt;Node6</title>
<path fill="none" stroke="midnightblue" d="M521.894,-432.247C576.176,-441.848 671.796,-449.779 734,-404 769.03,-378.22 737.475,-341.877 770,-313 771.767,-311.431 773.649,-309.989 775.621,-308.664"/>
<polygon fill="midnightblue" stroke="midnightblue" points="777.726,-311.498 784.758,-303.574 774.319,-305.383 777.726,-311.498"/>
</g>
<!-- Node8 -->
<g id="node8" class="node"><title>Node8</title>
<g id="a_node8"><a xlink:href="chain_8cpp.html#a334aa8015cc7185f7fdf484783e40f38" target="_top" xlink:title="GetBlockProof">
<polygon fill="white" stroke="black" points="622,-451.5 622,-470.5 706,-470.5 706,-451.5 622,-451.5"/>
<text text-anchor="middle" x="664" y="-458.5" font-family="Helvetica,sans-Serif" font-size="10.00">GetBlockProof</text>
</a>
</g>
</g>
<!-- Node7&#45;&gt;Node8 -->
<g id="edge7" class="edge"><title>Node7&#45;&gt;Node8</title>
<path fill="none" stroke="midnightblue" d="M558.161,-461C576.318,-461 595.209,-461 611.872,-461"/>
<polygon fill="midnightblue" stroke="midnightblue" points="611.932,-464.5 621.932,-461 611.932,-457.5 611.932,-464.5"/>
</g>
<!-- Node9 -->
<g id="node9" class="node"><title>Node9</title>
<g id="a_node9"><a xlink:href="classbase__uint.html#a4867652ab4163a10ac4e3d04f0352423" target="_top" xlink:title="Returns the position of the highest bit set plus one, or zero if the value is zero. ">
<polygon fill="white" stroke="black" points="621,-491.5 621,-510.5 707,-510.5 707,-491.5 621,-491.5"/>
<text text-anchor="middle" x="664" y="-498.5" font-family="Helvetica,sans-Serif" font-size="10.00">base_uint::bits</text>
</a>
</g>
</g>
<!-- Node7&#45;&gt;Node9 -->
<g id="edge9" class="edge"><title>Node7&#45;&gt;Node9</title>
<path fill="none" stroke="midnightblue" d="M524.213,-470.581C550.322,-476.304 583.635,-483.605 611.079,-489.62"/>
<polygon fill="midnightblue" stroke="midnightblue" points="610.382,-493.05 620.9,-491.773 611.881,-486.213 610.382,-493.05"/>
</g>
<!-- Node23 -->
<g id="node23" class="node"><title>Node23</title>
<g id="a_node23"><a xlink:href="classbase__uint.html#abf39b71afc016b333b8996def4c6bc40" target="_top" xlink:title="base_uint::GetLow64">
<polygon fill="white" stroke="black" points="606,-529.5 606,-548.5 722,-548.5 722,-529.5 606,-529.5"/>
<text text-anchor="middle" x="664" y="-536.5" font-family="Helvetica,sans-Serif" font-size="10.00">base_uint::GetLow64</text>
</a>
</g>
</g>
<!-- Node7&#45;&gt;Node23 -->
<g id="edge24" class="edge"><title>Node7&#45;&gt;Node23</title>
<path fill="none" stroke="midnightblue" d="M536.713,-470.511C544.156,-472.98 551.462,-476.088 558,-480 578.524,-492.28 573.652,-507.431 594,-520 597.411,-522.107 601.058,-523.984 604.828,-525.657"/>
<polygon fill="midnightblue" stroke="midnightblue" points="603.798,-529.013 614.386,-529.407 606.354,-522.496 603.798,-529.013"/>
</g>
<!-- Node8&#45;&gt;Node6 -->
<g id="edge8" class="edge"><title>Node8&#45;&gt;Node6</title>
<path fill="none" stroke="midnightblue" d="M706.297,-453.647C716.478,-450.092 726.578,-444.819 734,-437 773.506,-395.377 728.926,-353.077 770,-313 771.492,-311.544 773.082,-310.196 774.751,-308.949"/>
<polygon fill="midnightblue" stroke="midnightblue" points="776.958,-311.703 783.675,-303.509 773.314,-305.725 776.958,-311.703"/>
</g>
<!-- Node10 -->
<g id="node10" class="node"><title>Node10</title>
<g id="a_node10"><a xlink:href="classbase__uint.html#aafd4418923a92b58a1c360e657fa7d83" target="_top" xlink:title="base_uint::base_uint">
<polygon fill="white" stroke="black" points="785,-436.5 785,-455.5 901,-455.5 901,-436.5 785,-436.5"/>
<text text-anchor="middle" x="843" y="-443.5" font-family="Helvetica,sans-Serif" font-size="10.00">base_uint::base_uint</text>
</a>
</g>
</g>
<!-- Node9&#45;&gt;Node10 -->
<g id="edge10" class="edge"><title>Node9&#45;&gt;Node10</title>
<path fill="none" stroke="midnightblue" d="M698.912,-491.41C710.157,-488.037 722.688,-484.067 734,-480 750.311,-474.136 753.582,-470.558 770,-465 777.067,-462.608 784.607,-460.329 792.047,-458.233"/>
<polygon fill="midnightblue" stroke="midnightblue" points="792.998,-461.601 801.722,-455.59 791.153,-454.849 792.998,-461.601"/>
</g>
<!-- Node11 -->
<g id="node11" class="node"><title>Node11</title>
<g id="a_node11"><a xlink:href="classbase__uint.html#acb449d2fcb5af767fa6b01890e836a4e" target="_top" xlink:title="base_uint::operator\&lt;\&lt;=">
<polygon fill="white" stroke="black" points="775.5,-398.5 775.5,-417.5 910.5,-417.5 910.5,-398.5 775.5,-398.5"/>
<text text-anchor="middle" x="843" y="-405.5" font-family="Helvetica,sans-Serif" font-size="10.00">base_uint::operator&lt;&lt;=</text>
</a>
</g>
</g>
<!-- Node9&#45;&gt;Node11 -->
<g id="edge11" class="edge"><title>Node9&#45;&gt;Node11</title>
<path fill="none" stroke="midnightblue" d="M707.28,-493.061C716.658,-490.004 726.136,-485.792 734,-480 756.929,-463.114 746.759,-443.454 770,-427 772.829,-424.997 775.855,-423.205 779.006,-421.602"/>
<polygon fill="midnightblue" stroke="midnightblue" points="780.42,-424.804 788.157,-417.567 777.595,-418.399 780.42,-424.804"/>
</g>
<!-- Node12 -->
<g id="node12" class="node"><title>Node12</title>
<g id="a_node12"><a xlink:href="classbase__uint.html#a4e0344432bbcce79525fd2c182173b3b" target="_top" xlink:title="base_uint::operator\&gt;\&gt;=">
<polygon fill="white" stroke="black" points="775.5,-360.5 775.5,-379.5 910.5,-379.5 910.5,-360.5 775.5,-360.5"/>
<text text-anchor="middle" x="843" y="-367.5" font-family="Helvetica,sans-Serif" font-size="10.00">base_uint::operator&gt;&gt;=</text>
</a>
</g>
</g>
<!-- Node9&#45;&gt;Node12 -->
<g id="edge12" class="edge"><title>Node9&#45;&gt;Node12</title>
<path fill="none" stroke="midnightblue" d="M707.194,-494.614C716.897,-491.501 726.543,-486.875 734,-480 765.979,-450.52 737.475,-417.877 770,-389 771.767,-387.431 773.649,-385.989 775.621,-384.664"/>
<polygon fill="midnightblue" stroke="midnightblue" points="777.726,-387.498 784.758,-379.574 774.319,-381.383 777.726,-387.498"/>
</g>
<!-- Node13 -->
<g id="node13" class="node"><title>Node13</title>
<g id="a_node13"><a xlink:href="classbase__uint.html#aa70b7d954258d2cd4bb77721e357fd40" target="_top" xlink:title="base_uint::operator*=">
<polygon fill="white" stroke="black" points="781,-322.5 781,-341.5 905,-341.5 905,-322.5 781,-322.5"/>
<text text-anchor="middle" x="843" y="-329.5" font-family="Helvetica,sans-Serif" font-size="10.00">base_uint::operator*=</text>
</a>
</g>
</g>
<!-- Node9&#45;&gt;Node13 -->
<g id="edge13" class="edge"><title>Node9&#45;&gt;Node13</title>
<path fill="none" stroke="midnightblue" d="M707.353,-495.262C717.167,-492.139 726.825,-487.344 734,-480 775.597,-437.423 727.614,-392.791 770,-351 771.45,-349.57 772.994,-348.245 774.615,-347.016"/>
<polygon fill="midnightblue" stroke="midnightblue" points="776.629,-349.886 783.284,-341.642 772.94,-343.936 776.629,-349.886"/>
</g>
<!-- Node14 -->
<g id="node14" class="node"><title>Node14</title>
<g id="a_node14"><a xlink:href="classbase__uint.html#ad6fa7e22ab995247c0bf298069732e1d" target="_top" xlink:title="base_uint::operator/=">
<polygon fill="white" stroke="black" points="782,-702.5 782,-721.5 904,-721.5 904,-702.5 782,-702.5"/>
<text text-anchor="middle" x="843" y="-709.5" font-family="Helvetica,sans-Serif" font-size="10.00">base_uint::operator/=</text>
</a>
</g>
</g>
<!-- Node9&#45;&gt;Node14 -->
<g id="edge14" class="edge"><title>Node9&#45;&gt;Node14</title>
<path fill="none" stroke="midnightblue" d="M707.276,-496.307C717.209,-498.839 726.943,-503.48 734,-511 787.741,-568.269 715.953,-627.019 770,-684 777.629,-692.043 788.225,-696.83 798.945,-699.977"/>
<polygon fill="midnightblue" stroke="midnightblue" points="798.191,-703.397 808.743,-702.454 799.906,-696.61 798.191,-703.397"/>
</g>
<!-- Node15 -->
<g id="node15" class="node"><title>Node15</title>
<g id="a_node15"><a xlink:href="classbase__uint.html#ac9777c80cfcf1355cf17258027ca35bb" target="_top" xlink:title="base_uint::CompareTo">
<polygon fill="white" stroke="black" points="781.5,-664.5 781.5,-683.5 904.5,-683.5 904.5,-664.5 781.5,-664.5"/>
<text text-anchor="middle" x="843" y="-671.5" font-family="Helvetica,sans-Serif" font-size="10.00">base_uint::CompareTo</text>
</a>
</g>
</g>
<!-- Node9&#45;&gt;Node15 -->
<g id="edge16" class="edge"><title>Node9&#45;&gt;Node15</title>
<path fill="none" stroke="midnightblue" d="M707.353,-505.376C717.167,-508.218 726.825,-512.767 734,-520 777.731,-564.086 726.034,-611.148 770,-655 771.442,-656.438 772.978,-657.771 774.593,-659.006"/>
<polygon fill="midnightblue" stroke="midnightblue" points="772.902,-662.076 783.237,-664.405 776.61,-656.139 772.902,-662.076"/>
</g>
<!-- Node16 -->
<g id="node16" class="node"><title>Node16</title>
<g id="a_node16"><a xlink:href="classbase__uint.html#a39817436d7ba143e8d52abc475097384" target="_top" xlink:title="base_uint::EqualTo">
<polygon fill="white" stroke="black" points="790.5,-626.5 790.5,-645.5 895.5,-645.5 895.5,-626.5 790.5,-626.5"/>
<text text-anchor="middle" x="843" y="-633.5" font-family="Helvetica,sans-Serif" font-size="10.00">base_uint::EqualTo</text>
</a>
</g>
</g>
<!-- Node9&#45;&gt;Node16 -->
<g id="edge17" class="edge"><title>Node9&#45;&gt;Node16</title>
<path fill="none" stroke="midnightblue" d="M707.248,-505.962C716.95,-508.799 726.582,-513.198 734,-520 767.894,-551.077 735.94,-586.105 770,-617 773.377,-620.063 777.19,-622.643 781.254,-624.814"/>
<polygon fill="midnightblue" stroke="midnightblue" points="779.926,-628.054 790.483,-628.945 782.785,-621.665 779.926,-628.054"/>
</g>
<!-- Node17 -->
<g id="node17" class="node"><title>Node17</title>
<g id="a_node17"><a xlink:href="classbase__uint.html#aa701be5115bacf02c299b05598cf616d" target="_top" xlink:title="base_uint::getdouble">
<polygon fill="white" stroke="black" points="784.5,-588.5 784.5,-607.5 901.5,-607.5 901.5,-588.5 784.5,-588.5"/>
<text text-anchor="middle" x="843" y="-595.5" font-family="Helvetica,sans-Serif" font-size="10.00">base_uint::getdouble</text>
</a>
</g>
</g>
<!-- Node9&#45;&gt;Node17 -->
<g id="edge18" class="edge"><title>Node9&#45;&gt;Node17</title>
<path fill="none" stroke="midnightblue" d="M707.101,-507.216C716.589,-510.021 726.161,-514.092 734,-520 758.532,-538.488 745.37,-560.644 770,-579 772.51,-580.871 775.19,-582.558 777.985,-584.079"/>
<polygon fill="midnightblue" stroke="midnightblue" points="776.693,-587.338 787.235,-588.395 779.653,-580.995 776.693,-587.338"/>
</g>
<!-- Node18 -->
<g id="node18" class="node"><title>Node18</title>
<g id="a_node18"><a xlink:href="classbase__uint.html#ac9929c28600796a9acf75881bb750576" target="_top" xlink:title="base_uint::GetHex">
<polygon fill="white" stroke="red" points="790.5,-550.5 790.5,-569.5 895.5,-569.5 895.5,-550.5 790.5,-550.5"/>
<text text-anchor="middle" x="843" y="-557.5" font-family="Helvetica,sans-Serif" font-size="10.00">base_uint::GetHex</text>
</a>
</g>
</g>
<!-- Node9&#45;&gt;Node18 -->
<g id="edge19" class="edge"><title>Node9&#45;&gt;Node18</title>
<path fill="none" stroke="midnightblue" d="M706.458,-510.537C715.679,-513.174 725.296,-516.337 734,-520 751.073,-527.186 752.889,-533.906 770,-541 775.799,-543.405 781.989,-545.58 788.213,-547.528"/>
<polygon fill="midnightblue" stroke="midnightblue" points="787.389,-550.934 797.97,-550.401 789.366,-544.219 787.389,-550.934"/>
</g>
<!-- Node19 -->
<g id="node19" class="node"><title>Node19</title>
<g id="a_node19"><a xlink:href="classbase__uint.html#ac3080a72402cadf28dbc9f9b69cc60be" target="_top" xlink:title="base_uint::ToString">
<polygon fill="white" stroke="black" points="789.5,-512.5 789.5,-531.5 896.5,-531.5 896.5,-512.5 789.5,-512.5"/>
<text text-anchor="middle" x="843" y="-519.5" font-family="Helvetica,sans-Serif" font-size="10.00">base_uint::ToString</text>
</a>
</g>
</g>
<!-- Node9&#45;&gt;Node19 -->
<g id="edge20" class="edge"><title>Node9&#45;&gt;Node19</title>
<path fill="none" stroke="midnightblue" d="M707.396,-506.03C728.873,-508.578 755.377,-511.723 779.17,-514.546"/>
<polygon fill="midnightblue" stroke="midnightblue" points="778.836,-518.03 789.179,-515.733 779.661,-511.079 778.836,-518.03"/>
</g>
<!-- Node20 -->
<g id="node20" class="node"><title>Node20</title>
<g id="a_node20"><a xlink:href="classbase__uint.html#ade1a897fac931f28f54998c92c797228" target="_top" xlink:title="base_uint::SetHex">
<polygon fill="white" stroke="red" points="791,-474.5 791,-493.5 895,-493.5 895,-474.5 791,-474.5"/>
<text text-anchor="middle" x="843" y="-481.5" font-family="Helvetica,sans-Serif" font-size="10.00">base_uint::SetHex</text>
</a>
</g>
</g>
<!-- Node9&#45;&gt;Node20 -->
<g id="edge21" class="edge"><title>Node9&#45;&gt;Node20</title>
<path fill="none" stroke="midnightblue" d="M707.396,-496.928C729.321,-494.822 756.483,-492.213 780.654,-489.892"/>
<polygon fill="midnightblue" stroke="midnightblue" points="781.186,-493.357 790.805,-488.917 780.516,-486.389 781.186,-493.357"/>
</g>
<!-- Node14&#45;&gt;Node9 -->
<g id="edge15" class="edge"><title>Node14&#45;&gt;Node9</title>
<path fill="none" stroke="midnightblue" d="M781.983,-711.042C777.553,-708.643 773.47,-705.658 770,-702 715.953,-645.019 787.741,-586.269 734,-529 726.449,-520.953 715.833,-516.203 705.187,-513.054"/>
<polygon fill="midnightblue" stroke="midnightblue" points="706.045,-509.661 695.488,-510.565 704.304,-516.441 706.045,-509.661"/>
</g>
<!-- Node21 -->
<g id="node21" class="node"><title>Node21</title>
<g id="a_node21"><a xlink:href="arith__uint256_8cpp.html#a6a6e0e2e41ba7e31c4a741eb2426a516" target="_top" xlink:title="UintToArith256">
<polygon fill="white" stroke="black" points="952,-246.5 952,-265.5 1038,-265.5 1038,-246.5 952,-246.5"/>
<text text-anchor="middle" x="995" y="-253.5" font-family="Helvetica,sans-Serif" font-size="10.00">UintToArith256</text>
</a>
</g>
</g>
<!-- Node20&#45;&gt;Node21 -->
<g id="edge22" class="edge"><title>Node20&#45;&gt;Node21</title>
<path fill="none" stroke="midnightblue" d="M895.14,-477.072C902.771,-474.268 910.058,-470.38 916,-465 972.684,-413.677 988.329,-317.203 992.521,-275.75"/>
<polygon fill="midnightblue" stroke="midnightblue" points="996.024,-275.872 993.424,-265.601 989.052,-275.251 996.024,-275.872"/>
</g>
<!-- Node22 -->
<g id="node22" class="node"><title>Node22</title>
<g id="a_node22"><a xlink:href="classbase__blob.html#aeee68e00ceeacf49086e98b661e017ff" target="_top" xlink:title="base_blob::begin">
<polygon fill="white" stroke="black" points="1074,-184.5 1074,-203.5 1172,-203.5 1172,-184.5 1074,-184.5"/>
<text text-anchor="middle" x="1123" y="-191.5" font-family="Helvetica,sans-Serif" font-size="10.00">base_blob::begin</text>
</a>
</g>
</g>
<!-- Node21&#45;&gt;Node22 -->
<g id="edge23" class="edge"><title>Node21&#45;&gt;Node22</title>
<path fill="none" stroke="midnightblue" d="M1015.41,-246.448C1036.16,-236.238 1069.28,-219.939 1093.1,-208.22"/>
<polygon fill="midnightblue" stroke="midnightblue" points="1094.93,-211.22 1102.36,-203.665 1091.84,-204.939 1094.93,-211.22"/>
</g>
<!-- Node25 -->
<g id="node25" class="node"><title>Node25</title>
<g id="a_node25"><a xlink:href="class_c_block_index.html#ae1f702384690c6b8302e026a84172ef3" target="_top" xlink:title="Efficiently find an ancestor of this block. ">
<polygon fill="white" stroke="black" points="594,-375.5 594,-394.5 734,-394.5 734,-375.5 594,-375.5"/>
<text text-anchor="middle" x="664" y="-382.5" font-family="Helvetica,sans-Serif" font-size="10.00">CBlockIndex::GetAncestor</text>
</a>
</g>
</g>
<!-- Node24&#45;&gt;Node25 -->
<g id="edge26" class="edge"><title>Node24&#45;&gt;Node25</title>
<path fill="none" stroke="midnightblue" d="M541.524,-385C555.032,-385 569.536,-385 583.653,-385"/>
<polygon fill="midnightblue" stroke="midnightblue" points="583.845,-388.5 593.845,-385 583.845,-381.5 583.845,-388.5"/>
</g>
<!-- Node30 -->
<g id="node30" class="node"><title>Node30</title>
<g id="a_node30"><a xlink:href="system_8cpp.html#aafef764388e19a399584b65ef3d97b99" target="_top" xlink:title="CheckDiskSpace">
<polygon fill="white" stroke="black" points="431.5,-165.5 431.5,-184.5 527.5,-184.5 527.5,-165.5 431.5,-165.5"/>
<text text-anchor="middle" x="479.5" y="-172.5" font-family="Helvetica,sans-Serif" font-size="10.00">CheckDiskSpace</text>
</a>
</g>
</g>
<!-- Node29&#45;&gt;Node30 -->
<g id="edge31" class="edge"><title>Node29&#45;&gt;Node30</title>
<path fill="none" stroke="midnightblue" d="M311.873,-217.436C336.766,-210.751 370.883,-201.683 401,-194 410.069,-191.687 419.749,-189.271 429.086,-186.968"/>
<polygon fill="midnightblue" stroke="midnightblue" points="430.162,-190.308 439.038,-184.524 428.492,-183.51 430.162,-190.308"/>
</g>
<!-- Node32 -->
<g id="node32" class="node"><title>Node32</title>
<g id="a_node32"><a xlink:href="class_flat_file_seq.html#afeef659459201fb2d0efc6e28b468aad" target="_top" xlink:title="Open a handle to the file at the given position. ">
<polygon fill="white" stroke="black" points="430,-203.5 430,-222.5 529,-222.5 529,-203.5 430,-203.5"/>
<text text-anchor="middle" x="479.5" y="-210.5" font-family="Helvetica,sans-Serif" font-size="10.00">FlatFileSeq::Open</text>
</a>
</g>
</g>
<!-- Node29&#45;&gt;Node32 -->
<g id="edge34" class="edge"><title>Node29&#45;&gt;Node32</title>
<path fill="none" stroke="midnightblue" d="M331.697,-223.174C359.059,-221.278 392.111,-218.987 419.919,-217.06"/>
<polygon fill="midnightblue" stroke="midnightblue" points="420.173,-220.551 429.907,-216.368 419.689,-213.568 420.173,-220.551"/>
</g>
<!-- Node37 -->
<g id="node37" class="node"><title>Node37</title>
<g id="a_node37"><a xlink:href="system_8cpp.html#a91c763bffc49cf7ed8d45cc44870e55c" target="_top" xlink:title="this function tries to make a particular range of a file allocated (corresponding to disk space) it i...">
<polygon fill="white" stroke="black" points="429.5,-241.5 429.5,-260.5 529.5,-260.5 529.5,-241.5 429.5,-241.5"/>
<text text-anchor="middle" x="479.5" y="-248.5" font-family="Helvetica,sans-Serif" font-size="10.00">AllocateFileRange</text>
</a>
</g>
</g>
<!-- Node29&#45;&gt;Node37 -->
<g id="edge39" class="edge"><title>Node29&#45;&gt;Node37</title>
<path fill="none" stroke="midnightblue" d="M331.697,-233.558C358.851,-236.784 391.608,-240.676 419.284,-243.964"/>
<polygon fill="midnightblue" stroke="midnightblue" points="418.887,-247.442 429.231,-245.146 419.713,-240.491 418.887,-247.442"/>
</g>
<!-- Node31 -->
<g id="node31" class="node"><title>Node31</title>
<g id="a_node31"><a xlink:href="strencodings_8cpp.html#aa5ce96ec36f4413f820cec9c1831c070" target="_top" xlink:title="atoi">
<polygon fill="white" stroke="black" points="646.5,-114.5 646.5,-133.5 681.5,-133.5 681.5,-114.5 646.5,-114.5"/>
<text text-anchor="middle" x="664" y="-121.5" font-family="Helvetica,sans-Serif" font-size="10.00">atoi</text>
</a>
</g>
</g>
<!-- Node30&#45;&gt;Node31 -->
<g id="edge32" class="edge"><title>Node30&#45;&gt;Node31</title>
<path fill="none" stroke="midnightblue" d="M521.234,-165.463C533.122,-162.558 546.111,-159.266 558,-156 585.004,-148.581 615.605,-139.135 636.775,-132.434"/>
<polygon fill="midnightblue" stroke="midnightblue" points="637.885,-135.754 646.353,-129.386 635.762,-129.083 637.885,-135.754"/>
</g>
<!-- Node31&#45;&gt;Node31 -->
<g id="edge33" class="edge"><title>Node31&#45;&gt;Node31</title>
<path fill="none" stroke="midnightblue" d="M646.4,-128.952C620.586,-138.711 626.453,-152 664,-152 695.974,-152 704.974,-142.363 691.001,-133.476"/>
<polygon fill="midnightblue" stroke="midnightblue" points="692.129,-130.134 681.6,-128.952 689.093,-136.442 692.129,-130.134"/>
</g>
<!-- Node33 -->
<g id="node33" class="node"><title>Node33</title>
<g id="a_node33"><a xlink:href="struct_flat_file_pos.html#ab2110b2da65cfe5ad909c48edbeebf4c" target="_top" xlink:title="FlatFilePos::IsNull">
<polygon fill="white" stroke="black" points="615,-170.5 615,-189.5 713,-189.5 713,-170.5 615,-170.5"/>
<text text-anchor="middle" x="664" y="-177.5" font-family="Helvetica,sans-Serif" font-size="10.00">FlatFilePos::IsNull</text>
</a>
</g>
</g>
<!-- Node32&#45;&gt;Node33 -->
<g id="edge35" class="edge"><title>Node32&#45;&gt;Node33</title>
<path fill="none" stroke="midnightblue" d="M529.407,-204.157C552.595,-199.964 580.472,-194.923 604.747,-190.533"/>
<polygon fill="midnightblue" stroke="midnightblue" points="605.689,-193.92 614.907,-188.696 604.443,-187.032 605.689,-193.92"/>
</g>
<!-- Node35 -->
<g id="node35" class="node"><title>Node35</title>
<g id="a_node35"><a xlink:href="class_flat_file_seq.html#a0f88fd06ef27e47ec0bd56e018d33dbb" target="_top" xlink:title="Get the name of the file at the given position. ">
<polygon fill="white" stroke="black" points="605,-208.5 605,-227.5 723,-227.5 723,-208.5 605,-208.5"/>
<text text-anchor="middle" x="664" y="-215.5" font-family="Helvetica,sans-Serif" font-size="10.00">FlatFileSeq::FileName</text>
</a>
</g>
</g>
<!-- Node32&#45;&gt;Node35 -->
<g id="edge37" class="edge"><title>Node32&#45;&gt;Node35</title>
<path fill="none" stroke="midnightblue" d="M529.407,-214.34C549.459,-214.889 573.017,-215.535 594.721,-216.129"/>
<polygon fill="midnightblue" stroke="midnightblue" points="594.78,-219.632 604.872,-216.407 594.971,-212.635 594.78,-219.632"/>
</g>
<!-- Node36 -->
<g id="node36" class="node"><title>Node36</title>
<g id="a_node36"><a xlink:href="namespacefsbridge.html#a19c84cec4ae9accfbc88a83e48f7ee92" target="_top" xlink:title="fsbridge::fopen">
<polygon fill="white" stroke="black" points="620,-246.5 620,-265.5 708,-265.5 708,-246.5 620,-246.5"/>
<text text-anchor="middle" x="664" y="-253.5" font-family="Helvetica,sans-Serif" font-size="10.00">fsbridge::fopen</text>
</a>
</g>
</g>
<!-- Node32&#45;&gt;Node36 -->
<g id="edge38" class="edge"><title>Node32&#45;&gt;Node36</title>
<path fill="none" stroke="midnightblue" d="M521.003,-222.543C548.056,-228.917 583.836,-237.348 612.711,-244.151"/>
<polygon fill="midnightblue" stroke="midnightblue" points="612.074,-247.597 622.611,-246.484 613.68,-240.783 612.074,-247.597"/>
</g>
<!-- Node34 -->
<g id="node34" class="node"><title>Node34</title>
<g id="a_node34"><a xlink:href="struct_flat_file_pos.html#ab9288887a48cf6e72f18f7540f66e484" target="_top" xlink:title="FlatFilePos::ToString">
<polygon fill="white" stroke="black" points="788,-170.5 788,-189.5 898,-189.5 898,-170.5 788,-170.5"/>
<text text-anchor="middle" x="843" y="-177.5" font-family="Helvetica,sans-Serif" font-size="10.00">FlatFilePos::ToString</text>
</a>
</g>
</g>
<!-- Node33&#45;&gt;Node34 -->
<g id="edge36" class="edge"><title>Node33&#45;&gt;Node34</title>
<path fill="none" stroke="midnightblue" d="M713.366,-180C733.158,-180 756.347,-180 777.544,-180"/>
<polygon fill="midnightblue" stroke="midnightblue" points="777.767,-183.5 787.767,-180 777.767,-176.5 777.767,-183.5"/>
</g>
<!-- Node39 -->
<g id="node39" class="node"><title>Node39</title>
<g id="a_node39"><a xlink:href="system_8h.html#a9ed616020f4ef9b1a261b222bbec78e2" target="_top" xlink:title="SetupEnvironment">
<polygon fill="white" stroke="black" points="426.5,-89.5 426.5,-108.5 532.5,-108.5 532.5,-89.5 426.5,-89.5"/>
<text text-anchor="middle" x="479.5" y="-96.5" font-family="Helvetica,sans-Serif" font-size="10.00">SetupEnvironment</text>
</a>
</g>
</g>
<!-- Node38&#45;&gt;Node39 -->
<g id="edge41" class="edge"><title>Node38&#45;&gt;Node39</title>
<path fill="none" stroke="midnightblue" d="M290.135,-169.287C308.181,-167.864 340.565,-163.619 365,-151 384.285,-141.04 381.861,-128.238 401,-118 405.886,-115.386 411.138,-113.126 416.521,-111.171"/>
<polygon fill="midnightblue" stroke="midnightblue" points="417.884,-114.408 426.302,-107.974 415.71,-107.754 417.884,-114.408"/>
</g>
<!-- Node40 -->
<g id="node40" class="node"><title>Node40</title>
<g id="a_node40"><a xlink:href="system_8h.html#a66791919e137c59061e988d2d87ee9a1" target="_top" xlink:title="SetupNetworking">
<polygon fill="white" stroke="black" points="430.5,-127.5 430.5,-146.5 528.5,-146.5 528.5,-127.5 430.5,-127.5"/>
<text text-anchor="middle" x="479.5" y="-134.5" font-family="Helvetica,sans-Serif" font-size="10.00">SetupNetworking</text>
</a>
</g>
</g>
<!-- Node38&#45;&gt;Node40 -->
<g id="edge42" class="edge"><title>Node38&#45;&gt;Node40</title>
<path fill="none" stroke="midnightblue" d="M290.067,-167.784C316.302,-163.498 375.367,-153.849 420.427,-146.487"/>
<polygon fill="midnightblue" stroke="midnightblue" points="421.085,-149.926 430.39,-144.86 419.956,-143.018 421.085,-149.926"/>
</g>
<!-- Node41&#45;&gt;Node6 -->
<g id="edge44" class="edge"><title>Node41&#45;&gt;Node6</title>
<path fill="none" stroke="midnightblue" d="M716.196,-294C729.8,-294 744.845,-294 759.658,-294"/>
<polygon fill="midnightblue" stroke="midnightblue" points="759.856,-297.5 769.856,-294 759.856,-290.5 759.856,-297.5"/>
</g>
<!-- Node41&#45;&gt;Node21 -->
<g id="edge45" class="edge"><title>Node41&#45;&gt;Node21</title>
<path fill="none" stroke="midnightblue" d="M712.154,-284.489C730.192,-281.108 750.993,-277.52 770,-275 828.507,-267.243 896.054,-262.02 941.547,-259.045"/>
<polygon fill="midnightblue" stroke="midnightblue" points="942.005,-262.523 951.761,-258.39 941.558,-255.537 942.005,-262.523"/>
</g>
<!-- Node43 -->
<g id="node43" class="node"><title>Node43</title>
<g id="a_node43"><a xlink:href="hash_8h.html#a6de694e43f17c62025c6883965b65e63" target="_top" xlink:title="Compute the 256&#45;bit hash of an object&#39;s serialization. ">
<polygon fill="white" stroke="black" points="438.5,-42.5 438.5,-61.5 520.5,-61.5 520.5,-42.5 438.5,-42.5"/>
<text text-anchor="middle" x="479.5" y="-49.5" font-family="Helvetica,sans-Serif" font-size="10.00">SerializeHash</text>
</a>
</g>
</g>
<!-- Node42&#45;&gt;Node43 -->
<g id="edge47" class="edge"><title>Node42&#45;&gt;Node43</title>
<path fill="none" stroke="midnightblue" d="M340.765,-122.453C349.163,-119.99 357.46,-116.894 365,-113 384.285,-103.04 382.432,-91.2397 401,-80 410.939,-73.9837 422.371,-68.9667 433.349,-64.9205"/>
<polygon fill="midnightblue" stroke="midnightblue" points="434.541,-68.2117 442.831,-61.6139 432.236,-61.6021 434.541,-68.2117"/>
</g>
<!-- Node44 -->
<g id="node44" class="node"><title>Node44</title>
<g id="a_node44"><a xlink:href="class_c_hash_writer.html#ae94a937211502eabf19477630090093a" target="_top" xlink:title="CHashWriter::GetHash">
<polygon fill="white" stroke="black" points="602.5,-38.5 602.5,-57.5 725.5,-57.5 725.5,-38.5 602.5,-38.5"/>
<text text-anchor="middle" x="664" y="-45.5" font-family="Helvetica,sans-Serif" font-size="10.00">CHashWriter::GetHash</text>
</a>
</g>
</g>
<!-- Node43&#45;&gt;Node44 -->
<g id="edge48" class="edge"><title>Node43&#45;&gt;Node44</title>
<path fill="none" stroke="midnightblue" d="M520.55,-51.1222C541.483,-50.6634 567.73,-50.0881 591.973,-49.5568"/>
<polygon fill="midnightblue" stroke="midnightblue" points="592.297,-53.0506 602.218,-49.3322 592.144,-46.0523 592.297,-53.0506"/>
</g>
<!-- Node46 -->
<g id="node46" class="node"><title>Node46</title>
<g id="a_node46"><a xlink:href="hash_8h.html#a3cf0406d24590eaad9a3163c552e9730" target="_top" xlink:title="MurmurHash3">
<polygon fill="white" stroke="black" points="621.5,-0.5 621.5,-19.5 706.5,-19.5 706.5,-0.5 621.5,-0.5"/>
<text text-anchor="middle" x="664" y="-7.5" font-family="Helvetica,sans-Serif" font-size="10.00">MurmurHash3</text>
</a>
</g>
</g>
<!-- Node43&#45;&gt;Node46 -->
<g id="edge50" class="edge"><title>Node43&#45;&gt;Node46</title>
<path fill="none" stroke="midnightblue" d="M520.55,-42.7829C547.3,-36.6268 582.729,-28.4732 611.562,-21.8378"/>
<polygon fill="midnightblue" stroke="midnightblue" points="612.5,-25.2135 621.46,-19.5598 610.93,-18.3918 612.5,-25.2135"/>
</g>
<!-- Node48 -->
<g id="node48" class="node"><title>Node48</title>
<g id="a_node48"><a xlink:href="hash_8h.html#a391c1a6a1f947abbc53cc51fc709110e" target="_top" xlink:title="BIP32Hash">
<polygon fill="white" stroke="red" points="630,-76.5 630,-95.5 698,-95.5 698,-76.5 630,-76.5"/>
<text text-anchor="middle" x="664" y="-83.5" font-family="Helvetica,sans-Serif" font-size="10.00">BIP32Hash</text>
</a>
</g>
</g>
<!-- Node43&#45;&gt;Node48 -->
<g id="edge52" class="edge"><title>Node43&#45;&gt;Node48</title>
<path fill="none" stroke="midnightblue" d="M520.55,-59.4614C549.834,-64.9171 589.52,-72.3106 619.566,-77.9082"/>
<polygon fill="midnightblue" stroke="midnightblue" points="619.287,-81.4163 629.759,-79.8071 620.569,-74.5347 619.287,-81.4163"/>
</g>
<!-- Node45 -->
<g id="node45" class="node"><title>Node45</title>
<g id="a_node45"><a xlink:href="class_c_hash256.html#aa8a70c1b7cf24ce7d00240a1131cf4e7" target="_top" xlink:title="CHash256::Finalize">
<polygon fill="white" stroke="red" points="789.5,-38.5 789.5,-57.5 896.5,-57.5 896.5,-38.5 789.5,-38.5"/>
<text text-anchor="middle" x="843" y="-45.5" font-family="Helvetica,sans-Serif" font-size="10.00">CHash256::Finalize</text>
</a>
</g>
</g>
<!-- Node44&#45;&gt;Node45 -->
<g id="edge49" class="edge"><title>Node44&#45;&gt;Node45</title>
<path fill="none" stroke="midnightblue" d="M725.913,-48C743.134,-48 761.902,-48 779.23,-48"/>
<polygon fill="midnightblue" stroke="midnightblue" points="779.242,-51.5001 789.242,-48 779.242,-44.5001 779.242,-51.5001"/>
</g>
<!-- Node47 -->
<g id="node47" class="node"><title>Node47</title>
<g id="a_node47"><a xlink:href="hash_8cpp.html#aa8045f521ac28bee04e4980f93272dc0" target="_top" xlink:title="ROTL32">
<polygon fill="white" stroke="black" points="816.5,-0.5 816.5,-19.5 869.5,-19.5 869.5,-0.5 816.5,-0.5"/>
<text text-anchor="middle" x="843" y="-7.5" font-family="Helvetica,sans-Serif" font-size="10.00">ROTL32</text>
</a>
</g>
</g>
<!-- Node46&#45;&gt;Node47 -->
<g id="edge51" class="edge"><title>Node46&#45;&gt;Node47</title>
<path fill="none" stroke="midnightblue" d="M706.947,-10C737.174,-10 777.532,-10 806.237,-10"/>
<polygon fill="midnightblue" stroke="midnightblue" points="806.245,-13.5001 816.245,-10 806.245,-6.5001 806.245,-13.5001"/>
</g>
<!-- Node48&#45;&gt;Node22 -->
<g id="edge53" class="edge"><title>Node48&#45;&gt;Node22</title>
<path fill="none" stroke="midnightblue" d="M698.234,-93.8541C777.406,-112.564 977.548,-159.863 1071.65,-182.1"/>
<polygon fill="midnightblue" stroke="midnightblue" points="1070.96,-185.535 1081.5,-184.428 1072.57,-178.722 1070.96,-185.535"/>
</g>
<!-- Node49 -->
<g id="node49" class="node"><title>Node49</title>
<g id="a_node49"><a xlink:href="classbase__blob.html#a449c3f902fcab7af6c74aa9fee099542" target="_top" xlink:title="base_blob::size">
<polygon fill="white" stroke="black" points="798,-76.5 798,-95.5 888,-95.5 888,-76.5 798,-76.5"/>
<text text-anchor="middle" x="843" y="-83.5" font-family="Helvetica,sans-Serif" font-size="10.00">base_blob::size</text>
</a>
</g>
</g>
<!-- Node48&#45;&gt;Node49 -->
<g id="edge54" class="edge"><title>Node48&#45;&gt;Node49</title>
<path fill="none" stroke="midnightblue" d="M698.292,-86C723.464,-86 758.557,-86 787.763,-86"/>
<polygon fill="midnightblue" stroke="midnightblue" points="787.822,-89.5001 797.822,-86 787.822,-82.5001 787.822,-89.5001"/>
</g>
</g>
</svg>
