<?xml version="1.0" encoding="UTF-8" standalone="no"?>
<!DOCTYPE svg PUBLIC "-//W3C//DTD SVG 1.1//EN"
 "http://www.w3.org/Graphics/SVG/1.1/DTD/svg11.dtd">
<!-- Generated by graphviz version 2.38.0 (20140413.2041)
 -->
<!-- Title: RPCExecutor::reply Pages: 1 -->
<svg width="451pt" height="47pt"
 viewBox="0.00 0.00 451.00 47.00" xmlns="http://www.w3.org/2000/svg" xmlns:xlink="http://www.w3.org/1999/xlink">
<g id="graph0" class="graph" transform="scale(1 1) rotate(0) translate(4 43)">
<title>RPCExecutor::reply</title>
<polygon fill="white" stroke="none" points="-4,4 -4,-43 447,-43 447,4 -4,4"/>
<!-- Node1 -->
<g id="node1" class="node"><title>Node1</title>
<polygon fill="#bfbfbf" stroke="black" points="0,-19.5 0,-38.5 107,-38.5 107,-19.5 0,-19.5"/>
<text text-anchor="middle" x="53.5" y="-26.5" font-family="Helvetica,sans-Serif" font-size="10.00">RPCExecutor::reply</text>
</g>
<!-- Node2 -->
<g id="node2" class="node"><title>Node2</title>
<g id="a_node2"><a xlink:href="class_r_p_c_executor.html#a8cb99abccb018dc52777223241f4525e" target="_top" xlink:title="RPCExecutor::RPCExecutor">
<polygon fill="white" stroke="black" points="299,-19.5 299,-38.5 443,-38.5 443,-19.5 299,-19.5"/>
<text text-anchor="middle" x="371" y="-26.5" font-family="Helvetica,sans-Serif" font-size="10.00">RPCExecutor::RPCExecutor</text>
</a>
</g>
</g>
<!-- Node1&#45;&gt;Node2 -->
<g id="edge1" class="edge"><title>Node1&#45;&gt;Node2</title>
<path fill="none" stroke="midnightblue" d="M117.479,-29C169.877,-29 244.441,-29 298.96,-29"/>
<polygon fill="midnightblue" stroke="midnightblue" points="117.308,-25.5001 107.308,-29 117.308,-32.5001 117.308,-25.5001"/>
</g>
<!-- Node3 -->
<g id="node3" class="node"><title>Node3</title>
<g id="a_node3"><a xlink:href="class_r_p_c_executor.html#ac596acfdaab015d3c9aaa291ec210d78" target="_top" xlink:title="RPCExecutor::request">
<polygon fill="white" stroke="black" points="143,-0.5 143,-19.5 263,-19.5 263,-0.5 143,-0.5"/>
<text text-anchor="middle" x="203" y="-7.5" font-family="Helvetica,sans-Serif" font-size="10.00">RPCExecutor::request</text>
</a>
</g>
</g>
<!-- Node1&#45;&gt;Node3 -->
<g id="edge2" class="edge"><title>Node1&#45;&gt;Node3</title>
<path fill="none" stroke="midnightblue" d="M117.453,-20.8908C125.852,-19.809 134.441,-18.7026 142.772,-17.6293"/>
<polygon fill="midnightblue" stroke="midnightblue" points="116.805,-17.4452 107.334,-22.1942 117.7,-24.3879 116.805,-17.4452"/>
</g>
<!-- Node3&#45;&gt;Node2 -->
<g id="edge3" class="edge"><title>Node3&#45;&gt;Node2</title>
<path fill="none" stroke="midnightblue" d="M273.524,-17.9575C281.868,-18.9126 290.4,-19.8891 298.769,-20.847"/>
<polygon fill="midnightblue" stroke="midnightblue" points="273.794,-14.4657 263.461,-16.8058 272.998,-21.4203 273.794,-14.4657"/>
</g>
</g>
</svg>
