<?xml version="1.0" encoding="UTF-8" standalone="no"?>
<!DOCTYPE svg PUBLIC "-//W3C//DTD SVG 1.1//EN"
 "http://www.w3.org/Graphics/SVG/1.1/DTD/svg11.dtd">
<!-- Generated by graphviz version 2.38.0 (20140413.2041)
 -->
<!-- Title: interfaces::Node::appInitMain Pages: 1 -->
<svg width="783pt" height="96pt"
 viewBox="0.00 0.00 783.00 95.50" xmlns="http://www.w3.org/2000/svg" xmlns:xlink="http://www.w3.org/1999/xlink">
<g id="graph0" class="graph" transform="scale(1 1) rotate(0) translate(4 91.5)">
<title>interfaces::Node::appInitMain</title>
<polygon fill="white" stroke="none" points="-4,4 -4,-91.5 779,-91.5 779,4 -4,4"/>
<!-- Node1 -->
<g id="node1" class="node"><title>Node1</title>
<polygon fill="#bfbfbf" stroke="black" points="0,-49 0,-68 156,-68 156,-49 0,-49"/>
<text text-anchor="middle" x="78" y="-56" font-family="Helvetica,sans-Serif" font-size="10.00">interfaces::Node::appInitMain</text>
</g>
<!-- Node2 -->
<g id="node2" class="node"><title>Node2</title>
<g id="a_node2"><a xlink:href="classinterfaces_1_1_node.html#aa7cc2494c0b0b47c0fbe5373c3bbd0b3" target="_top" xlink:title="interfaces::Node::~Node">
<polygon fill="white" stroke="black" points="192,-68 192,-87 327,-87 327,-68 192,-68"/>
<text text-anchor="middle" x="259.5" y="-75" font-family="Helvetica,sans-Serif" font-size="10.00">interfaces::Node::~Node</text>
</a>
</g>
</g>
<!-- Node1&#45;&gt;Node2 -->
<g id="edge1" class="edge"><title>Node1&#45;&gt;Node2</title>
<path fill="none" stroke="midnightblue" d="M166.24,-67.7343C174.85,-68.6456 183.49,-69.5602 191.844,-70.4445"/>
<polygon fill="midnightblue" stroke="midnightblue" points="166.479,-64.2401 156.166,-66.668 165.742,-71.2012 166.479,-64.2401"/>
</g>
<!-- Node3 -->
<g id="node3" class="node"><title>Node3</title>
<g id="a_node3"><a xlink:href="class_bitcoin_core.html#af34ca069cda1d4362dcc109b4397fb62" target="_top" xlink:title="BitcoinCore::initialize">
<polygon fill="white" stroke="black" points="201.5,-30 201.5,-49 317.5,-49 317.5,-30 201.5,-30"/>
<text text-anchor="middle" x="259.5" y="-37" font-family="Helvetica,sans-Serif" font-size="10.00">BitcoinCore::initialize</text>
</a>
</g>
</g>
<!-- Node1&#45;&gt;Node3 -->
<g id="edge2" class="edge"><title>Node1&#45;&gt;Node3</title>
<path fill="none" stroke="midnightblue" d="M166.195,-49.2705C178.173,-48.0025 190.213,-46.7282 201.458,-45.5378"/>
<polygon fill="midnightblue" stroke="midnightblue" points="165.742,-45.7988 156.166,-50.332 166.479,-52.7599 165.742,-45.7988"/>
</g>
<!-- Node4 -->
<g id="node4" class="node"><title>Node4</title>
<g id="a_node4"><a xlink:href="class_bitcoin_application.html#a61afce9356e452c53ad4c83f5ca19df8" target="_top" xlink:title="BitcoinApplication\l::startThread">
<polygon fill="white" stroke="black" points="363,-24.5 363,-54.5 464,-54.5 464,-24.5 363,-24.5"/>
<text text-anchor="start" x="371" y="-42.5" font-family="Helvetica,sans-Serif" font-size="10.00">BitcoinApplication</text>
<text text-anchor="middle" x="413.5" y="-31.5" font-family="Helvetica,sans-Serif" font-size="10.00">::startThread</text>
</a>
</g>
</g>
<!-- Node3&#45;&gt;Node4 -->
<g id="edge3" class="edge"><title>Node3&#45;&gt;Node4</title>
<path fill="none" stroke="midnightblue" d="M327.739,-39.5C339.469,-39.5 351.481,-39.5 362.637,-39.5"/>
<polygon fill="midnightblue" stroke="midnightblue" points="327.532,-36.0001 317.532,-39.5 327.532,-43.0001 327.532,-36.0001"/>
</g>
<!-- Node5 -->
<g id="node5" class="node"><title>Node5</title>
<g id="a_node5"><a xlink:href="class_bitcoin_application.html#ade19c44b87b00b6b19b433caf4c22ba6" target="_top" xlink:title="Request core initialization. ">
<polygon fill="white" stroke="black" points="503,-49.5 503,-79.5 604,-79.5 604,-49.5 503,-49.5"/>
<text text-anchor="start" x="511" y="-67.5" font-family="Helvetica,sans-Serif" font-size="10.00">BitcoinApplication</text>
<text text-anchor="middle" x="553.5" y="-56.5" font-family="Helvetica,sans-Serif" font-size="10.00">::requestInitialize</text>
</a>
</g>
</g>
<!-- Node4&#45;&gt;Node5 -->
<g id="edge4" class="edge"><title>Node4&#45;&gt;Node5</title>
<path fill="none" stroke="midnightblue" d="M474.447,-50.3599C483.893,-52.0712 493.57,-53.8242 502.752,-55.4877"/>
<polygon fill="midnightblue" stroke="midnightblue" points="474.785,-46.8643 464.321,-48.5256 473.537,-53.7522 474.785,-46.8643"/>
</g>
<!-- Node8 -->
<g id="node8" class="node"><title>Node8</title>
<g id="a_node8"><a xlink:href="class_bitcoin_application.html#a37c560d4c04d14a6da151b82caf8888f" target="_top" xlink:title="Request core shutdown. ">
<polygon fill="white" stroke="black" points="500,-0.5 500,-30.5 607,-30.5 607,-0.5 500,-0.5"/>
<text text-anchor="start" x="508" y="-18.5" font-family="Helvetica,sans-Serif" font-size="10.00">BitcoinApplication</text>
<text text-anchor="middle" x="553.5" y="-7.5" font-family="Helvetica,sans-Serif" font-size="10.00">::requestShutdown</text>
</a>
</g>
</g>
<!-- Node4&#45;&gt;Node8 -->
<g id="edge7" class="edge"><title>Node4&#45;&gt;Node8</title>
<path fill="none" stroke="midnightblue" d="M474.246,-29.1094C482.803,-27.6212 491.554,-26.0993 499.959,-24.6376"/>
<polygon fill="midnightblue" stroke="midnightblue" points="473.574,-25.6737 464.321,-30.8354 474.773,-32.5702 473.574,-25.6737"/>
</g>
<!-- Node6 -->
<g id="node6" class="node"><title>Node6</title>
<g id="a_node6"><a xlink:href="bitcoin_8h.html#a810d06fb8004c57d668eeb540ae582b7" target="_top" xlink:title="GuiMain">
<polygon fill="white" stroke="black" points="643,-30 643,-49 698,-49 698,-30 643,-30"/>
<text text-anchor="middle" x="670.5" y="-37" font-family="Helvetica,sans-Serif" font-size="10.00">GuiMain</text>
</a>
</g>
</g>
<!-- Node5&#45;&gt;Node6 -->
<g id="edge5" class="edge"><title>Node5&#45;&gt;Node6</title>
<path fill="none" stroke="midnightblue" d="M614.256,-51.5095C624.255,-49.3358 634.163,-47.182 642.768,-45.3114"/>
<polygon fill="midnightblue" stroke="midnightblue" points="613.3,-48.1355 604.272,-53.68 614.787,-54.9758 613.3,-48.1355"/>
</g>
<!-- Node7 -->
<g id="node7" class="node"><title>Node7</title>
<g id="a_node7"><a xlink:href="main_8cpp.html#a0ddf1224851353fc92bfbff6f499fa97" target="_top" xlink:title="main">
<polygon fill="white" stroke="black" points="734,-30 734,-49 775,-49 775,-30 734,-30"/>
<text text-anchor="middle" x="754.5" y="-37" font-family="Helvetica,sans-Serif" font-size="10.00">main</text>
</a>
</g>
</g>
<!-- Node6&#45;&gt;Node7 -->
<g id="edge6" class="edge"><title>Node6&#45;&gt;Node7</title>
<path fill="none" stroke="midnightblue" d="M708.434,-39.5C717.205,-39.5 726.227,-39.5 733.872,-39.5"/>
<polygon fill="midnightblue" stroke="midnightblue" points="708.35,-36.0001 698.35,-39.5 708.35,-43.0001 708.35,-36.0001"/>
</g>
<!-- Node8&#45;&gt;Node6 -->
<g id="edge8" class="edge"><title>Node8&#45;&gt;Node6</title>
<path fill="none" stroke="midnightblue" d="M617.094,-28.563C626.108,-30.4443 634.955,-32.2905 642.737,-33.9147"/>
<polygon fill="midnightblue" stroke="midnightblue" points="617.792,-25.1334 607.288,-26.5166 616.362,-31.9858 617.792,-25.1334"/>
</g>
</g>
</svg>
