<?xml version="1.0" encoding="UTF-8" standalone="no"?>
<!DOCTYPE svg PUBLIC "-//W3C//DTD SVG 1.1//EN"
 "http://www.w3.org/Graphics/SVG/1.1/DTD/svg11.dtd">
<!-- Generated by graphviz version 2.38.0 (20140413.2041)
 -->
<!-- Title: GenericTransactionSignatureChecker::CheckSequence Pages: 1 -->
<svg width="1205pt" height="939pt"
 viewBox="0.00 0.00 1205.00 939.47" xmlns="http://www.w3.org/2000/svg" xmlns:xlink="http://www.w3.org/1999/xlink">
<g id="graph0" class="graph" transform="scale(1 1) rotate(0) translate(4 935.472)">
<title>GenericTransactionSignatureChecker::CheckSequence</title>
<polygon fill="white" stroke="none" points="-4,4 -4,-935.472 1201,-935.472 1201,4 -4,4"/>
<!-- Node1 -->
<g id="node1" class="node"><title>Node1</title>
<polygon fill="#bfbfbf" stroke="black" points="0,-615.03 0,-645.03 154,-645.03 154,-615.03 0,-615.03"/>
<text text-anchor="start" x="8" y="-633.03" font-family="Helvetica,sans-Serif" font-size="10.00">GenericTransactionSignature</text>
<text text-anchor="middle" x="77" y="-622.03" font-family="Helvetica,sans-Serif" font-size="10.00">Checker::CheckSequence</text>
</g>
<!-- Node2 -->
<g id="node2" class="node"><title>Node2</title>
<g id="a_node2"><a xlink:href="class_c_s_h_a256.html#a9d7de520a562655da85349372820c883" target="_top" xlink:title="CSHA256::Write">
<polygon fill="white" stroke="black" points="819.5,-731.53 819.5,-750.53 911.5,-750.53 911.5,-731.53 819.5,-731.53"/>
<text text-anchor="middle" x="865.5" y="-738.53" font-family="Helvetica,sans-Serif" font-size="10.00">CSHA256::Write</text>
</a>
</g>
</g>
<!-- Node1&#45;&gt;Node2 -->
<g id="edge1" class="edge"><title>Node1&#45;&gt;Node2</title>
<path fill="none" stroke="midnightblue" d="M83.6564,-645.423C106.982,-705.916 201.842,-924.03 357,-924.03 357,-924.03 357,-924.03 527,-924.03 638.08,-924.03 682.177,-954.044 775,-893.03 823.282,-861.294 849.01,-793.776 859.203,-760.456"/>
<polygon fill="midnightblue" stroke="midnightblue" points="862.647,-761.148 862.075,-750.568 855.925,-759.195 862.647,-761.148"/>
</g>
<!-- Node7 -->
<g id="node7" class="node"><title>Node7</title>
<g id="a_node7"><a xlink:href="classprevector.html#a8430c39b212986d6cd2ba9d6fa939241" target="_top" xlink:title="prevector::size">
<polygon fill="white" stroke="black" points="822,-104.53 822,-123.53 909,-123.53 909,-104.53 822,-104.53"/>
<text text-anchor="middle" x="865.5" y="-111.53" font-family="Helvetica,sans-Serif" font-size="10.00">prevector::size</text>
</a>
</g>
</g>
<!-- Node1&#45;&gt;Node7 -->
<g id="edge6" class="edge"><title>Node1&#45;&gt;Node7</title>
<path fill="none" stroke="midnightblue" d="M77.5849,-614.77C75.8178,-518.558 79.1812,-0.0304678 357,-0.0304678 357,-0.0304678 357,-0.0304678 527,-0.0304678 639.022,-0.0304678 672.629,0.457018 775,-45.0305 803.351,-57.6279 830.825,-80.9882 847.689,-97.0092"/>
<polygon fill="midnightblue" stroke="midnightblue" points="845.468,-99.7322 855.072,-104.205 850.354,-94.7191 845.468,-99.7322"/>
</g>
<!-- Node9 -->
<g id="node9" class="node"><title>Node9</title>
<g id="a_node9"><a xlink:href="interpreter_8cpp.html#a139a577767e128d3fd49a7b7afd4d1cb" target="_top" xlink:title="EvalScript">
<polygon fill="white" stroke="black" points="190,-522.53 190,-541.53 254,-541.53 254,-522.53 190,-522.53"/>
<text text-anchor="middle" x="222" y="-529.53" font-family="Helvetica,sans-Serif" font-size="10.00">EvalScript</text>
</a>
</g>
</g>
<!-- Node1&#45;&gt;Node9 -->
<g id="edge8" class="edge"><title>Node1&#45;&gt;Node9</title>
<path fill="none" stroke="midnightblue" d="M100.03,-614.933C126.778,-596.602 171.642,-565.856 198.569,-547.403"/>
<polygon fill="midnightblue" stroke="midnightblue" points="200.69,-550.192 206.961,-541.652 196.733,-544.418 200.69,-550.192"/>
</g>
<!-- Node21 -->
<g id="node21" class="node"><title>Node21</title>
<g id="a_node21"><a xlink:href="interpreter_8cpp.html#a43bc2157638b796f2e3144963e00db34" target="_top" xlink:title="CastToBool">
<polygon fill="white" stroke="black" points="323.5,-876.53 323.5,-895.53 392.5,-895.53 392.5,-876.53 323.5,-876.53"/>
<text text-anchor="middle" x="358" y="-883.53" font-family="Helvetica,sans-Serif" font-size="10.00">CastToBool</text>
</a>
</g>
</g>
<!-- Node1&#45;&gt;Node21 -->
<g id="edge73" class="edge"><title>Node1&#45;&gt;Node21</title>
<path fill="none" stroke="midnightblue" d="M87.1068,-645.179C113.153,-687.179 192.397,-806.019 290,-867.03 297.143,-871.496 305.361,-874.938 313.539,-877.583"/>
<polygon fill="midnightblue" stroke="midnightblue" points="312.842,-881.024 323.42,-880.429 314.78,-874.298 312.842,-881.024"/>
</g>
<!-- Node3 -->
<g id="node3" class="node"><title>Node3</title>
<g id="a_node3"><a xlink:href="glibc__compat_8cpp.html#a0f46826ab0466591e136db24394923cf" target="_top" xlink:title="memcpy">
<polygon fill="white" stroke="black" points="994.5,-484.53 994.5,-503.53 1053.5,-503.53 1053.5,-484.53 994.5,-484.53"/>
<text text-anchor="middle" x="1024" y="-491.53" font-family="Helvetica,sans-Serif" font-size="10.00">memcpy</text>
</a>
</g>
</g>
<!-- Node2&#45;&gt;Node3 -->
<g id="edge2" class="edge"><title>Node2&#45;&gt;Node3</title>
<path fill="none" stroke="midnightblue" d="M867.339,-731.084C870.864,-695.739 887.641,-575.015 956,-513.03 963.86,-505.904 974.203,-501.43 984.404,-498.629"/>
<polygon fill="midnightblue" stroke="midnightblue" points="985.483,-501.973 994.461,-496.348 983.934,-495.147 985.483,-501.973"/>
</g>
<!-- Node6 -->
<g id="node6" class="node"><title>Node6</title>
<g id="a_node6"><a xlink:href="namespacesha256__shani.html#a97d2e267c87add9a1172d948e05ba471" target="_top" xlink:title="sha256_shani::Transform">
<polygon fill="white" stroke="black" points="956,-522.53 956,-541.53 1092,-541.53 1092,-522.53 956,-522.53"/>
<text text-anchor="middle" x="1024" y="-529.53" font-family="Helvetica,sans-Serif" font-size="10.00">sha256_shani::Transform</text>
</a>
</g>
</g>
<!-- Node2&#45;&gt;Node6 -->
<g id="edge5" class="edge"><title>Node2&#45;&gt;Node6</title>
<path fill="none" stroke="midnightblue" d="M873.631,-731.507C897.971,-699.002 978.018,-592.102 1009.81,-549.642"/>
<polygon fill="midnightblue" stroke="midnightblue" points="1012.63,-551.712 1015.83,-541.61 1007.03,-547.517 1012.63,-551.712"/>
</g>
<!-- Node4 -->
<g id="node4" class="node"><title>Node4</title>
<g id="a_node4"><a xlink:href="glibc__compat_8cpp.html#a9778d49e9029dd75bc53ecbbf9f5e9a1" target="_top" xlink:title="memmove">
<polygon fill="white" stroke="black" points="1128,-389.53 1128,-408.53 1197,-408.53 1197,-389.53 1128,-389.53"/>
<text text-anchor="middle" x="1162.5" y="-396.53" font-family="Helvetica,sans-Serif" font-size="10.00">memmove</text>
</a>
</g>
</g>
<!-- Node3&#45;&gt;Node4 -->
<g id="edge3" class="edge"><title>Node3&#45;&gt;Node4</title>
<path fill="none" stroke="midnightblue" d="M1038.84,-484.399C1062.45,-467.969 1110.7,-434.386 1139.14,-414.591"/>
<polygon fill="midnightblue" stroke="midnightblue" points="1141.42,-417.273 1147.62,-408.688 1137.42,-411.528 1141.42,-417.273"/>
</g>
<!-- Node5 -->
<g id="node5" class="node"><title>Node5</title>
<g id="a_node5"><a xlink:href="glibc__compat_8cpp.html#a424ac71631da5ada2976630ff67051d1" target="_top" xlink:title="__chk_fail">
<polygon fill="white" stroke="black" points="1131.5,-484.53 1131.5,-503.53 1193.5,-503.53 1193.5,-484.53 1131.5,-484.53"/>
<text text-anchor="middle" x="1162.5" y="-491.53" font-family="Helvetica,sans-Serif" font-size="10.00">__chk_fail</text>
</a>
</g>
</g>
<!-- Node3&#45;&gt;Node5 -->
<g id="edge4" class="edge"><title>Node3&#45;&gt;Node5</title>
<path fill="none" stroke="midnightblue" d="M1053.61,-494.03C1073.1,-494.03 1099.18,-494.03 1120.81,-494.03"/>
<polygon fill="midnightblue" stroke="midnightblue" points="1121.03,-497.531 1131.03,-494.03 1121.03,-490.531 1121.03,-497.531"/>
</g>
<!-- Node8 -->
<g id="node8" class="node"><title>Node8</title>
<g id="a_node8"><a xlink:href="classprevector.html#a27fda335354582aa9452867c4b610dab" target="_top" xlink:title="prevector::is_direct">
<polygon fill="white" stroke="black" points="970,-161.53 970,-180.53 1078,-180.53 1078,-161.53 970,-161.53"/>
<text text-anchor="middle" x="1024" y="-168.53" font-family="Helvetica,sans-Serif" font-size="10.00">prevector::is_direct</text>
</a>
</g>
</g>
<!-- Node7&#45;&gt;Node8 -->
<g id="edge7" class="edge"><title>Node7&#45;&gt;Node8</title>
<path fill="none" stroke="midnightblue" d="M893.465,-123.535C901.963,-126.549 911.381,-129.91 920,-133.03 942.537,-141.189 967.787,-150.502 987.646,-157.866"/>
<polygon fill="midnightblue" stroke="midnightblue" points="986.618,-161.218 997.211,-161.417 989.054,-154.656 986.618,-161.218"/>
</g>
<!-- Node9&#45;&gt;Node2 -->
<g id="edge33" class="edge"><title>Node9&#45;&gt;Node2</title>
<path fill="none" stroke="midnightblue" d="M254.279,-538.997C265.513,-541.384 278.297,-543.971 290,-546.03 422.658,-569.373 462.314,-546.144 590,-589.03 691.212,-623.025 798.348,-694.063 843.009,-725.496"/>
<polygon fill="midnightblue" stroke="midnightblue" points="841.149,-728.467 851.328,-731.404 845.202,-722.76 841.149,-728.467"/>
</g>
<!-- Node9&#45;&gt;Node7 -->
<g id="edge19" class="edge"><title>Node9&#45;&gt;Node7</title>
<path fill="none" stroke="midnightblue" d="M223.002,-522.174C223.237,-464.692 227.525,-173.348 290,-117.03 445.804,23.4171 733.339,-64.8697 831.017,-100.86"/>
<polygon fill="midnightblue" stroke="midnightblue" points="830.068,-104.242 840.66,-104.472 832.523,-97.6867 830.068,-104.242"/>
</g>
<!-- Node10 -->
<g id="node10" class="node"><title>Node10</title>
<g id="a_node10"><a xlink:href="classprevector.html#aa9210cbe708412a70868d6e0bca844c9" target="_top" xlink:title="prevector::begin">
<polygon fill="white" stroke="black" points="653,-408.53 653,-427.53 748,-427.53 748,-408.53 653,-408.53"/>
<text text-anchor="middle" x="700.5" y="-415.53" font-family="Helvetica,sans-Serif" font-size="10.00">prevector::begin</text>
</a>
</g>
</g>
<!-- Node9&#45;&gt;Node10 -->
<g id="edge9" class="edge"><title>Node9&#45;&gt;Node10</title>
<path fill="none" stroke="midnightblue" d="M227.643,-522.411C236.776,-504.69 258.928,-467.225 290,-451.03 403.843,-391.695 560.035,-399.483 642.747,-409.339"/>
<polygon fill="midnightblue" stroke="midnightblue" points="642.349,-412.816 652.705,-410.578 643.214,-405.87 642.349,-412.816"/>
</g>
<!-- Node15 -->
<g id="node15" class="node"><title>Node15</title>
<g id="a_node15"><a xlink:href="classprevector.html#aab7f6e13a3cac85cc340fc6b90c5365c" target="_top" xlink:title="prevector::end">
<polygon fill="white" stroke="black" points="657.5,-142.53 657.5,-161.53 743.5,-161.53 743.5,-142.53 657.5,-142.53"/>
<text text-anchor="middle" x="700.5" y="-149.53" font-family="Helvetica,sans-Serif" font-size="10.00">prevector::end</text>
</a>
</g>
</g>
<!-- Node9&#45;&gt;Node15 -->
<g id="edge15" class="edge"><title>Node9&#45;&gt;Node15</title>
<path fill="none" stroke="midnightblue" d="M223.537,-522.363C226.541,-471.726 242.851,-237.433 290,-186.03 384.55,-82.9518 574.485,-117.826 658.229,-139.802"/>
<polygon fill="midnightblue" stroke="midnightblue" points="657.572,-143.25 668.139,-142.473 659.394,-136.491 657.572,-143.25"/>
</g>
<!-- Node16 -->
<g id="node16" class="node"><title>Node16</title>
<g id="a_node16"><a xlink:href="class_c_script.html#ae06205f908e430eaf428922ea3997c1b" target="_top" xlink:title="CScript::GetOp">
<polygon fill="white" stroke="black" points="482,-446.53 482,-465.53 570,-465.53 570,-446.53 482,-446.53"/>
<text text-anchor="middle" x="526" y="-453.53" font-family="Helvetica,sans-Serif" font-size="10.00">CScript::GetOp</text>
</a>
</g>
</g>
<!-- Node9&#45;&gt;Node16 -->
<g id="edge20" class="edge"><title>Node9&#45;&gt;Node16</title>
<path fill="none" stroke="midnightblue" d="M231.898,-522.374C243.811,-510.155 266.216,-489.555 290,-480.03 349.002,-456.403 422.69,-452.587 471.66,-453.255"/>
<polygon fill="midnightblue" stroke="midnightblue" points="471.651,-456.755 481.721,-453.46 471.794,-449.757 471.651,-456.755"/>
</g>
<!-- Node18 -->
<g id="node18" class="node"><title>Node18</title>
<g id="a_node18"><a xlink:href="class_c_script_num.html#aaa803c18a86acc8b928054f052dcc4c4" target="_top" xlink:title="CScriptNum::getvch">
<polygon fill="white" stroke="black" points="301.5,-370.53 301.5,-389.53 414.5,-389.53 414.5,-370.53 301.5,-370.53"/>
<text text-anchor="middle" x="358" y="-377.53" font-family="Helvetica,sans-Serif" font-size="10.00">CScriptNum::getvch</text>
</a>
</g>
</g>
<!-- Node9&#45;&gt;Node18 -->
<g id="edge22" class="edge"><title>Node9&#45;&gt;Node18</title>
<path fill="none" stroke="midnightblue" d="M225.393,-522.491C231.776,-498.96 251.406,-437.626 290,-404.03 294.709,-399.931 300.17,-396.515 305.902,-393.672"/>
<polygon fill="midnightblue" stroke="midnightblue" points="307.307,-396.878 315.063,-389.661 304.499,-390.466 307.307,-396.878"/>
</g>
<!-- Node19 -->
<g id="node19" class="node"><title>Node19</title>
<g id="a_node19"><a xlink:href="class_base_signature_checker.html#a4ce7da7dcff570e662130b644cc38c26" target="_top" xlink:title="BaseSignatureChecker\l::CheckLockTime">
<polygon fill="white" stroke="black" points="295,-321.03 295,-351.03 421,-351.03 421,-321.03 295,-321.03"/>
<text text-anchor="start" x="303" y="-339.03" font-family="Helvetica,sans-Serif" font-size="10.00">BaseSignatureChecker</text>
<text text-anchor="middle" x="358" y="-328.03" font-family="Helvetica,sans-Serif" font-size="10.00">::CheckLockTime</text>
</a>
</g>
</g>
<!-- Node9&#45;&gt;Node19 -->
<g id="edge23" class="edge"><title>Node9&#45;&gt;Node19</title>
<path fill="none" stroke="midnightblue" d="M224.037,-522.411C227.624,-493.785 242.042,-408.213 290,-361.03 291.46,-359.594 293.011,-358.238 294.633,-356.96"/>
<polygon fill="midnightblue" stroke="midnightblue" points="296.901,-359.654 303.269,-351.187 293.01,-353.835 296.901,-359.654"/>
</g>
<!-- Node20 -->
<g id="node20" class="node"><title>Node20</title>
<g id="a_node20"><a xlink:href="class_base_signature_checker.html#a524962f23404a86080a963d996e50b08" target="_top" xlink:title="BaseSignatureChecker\l::CheckSequence">
<polygon fill="white" stroke="black" points="295,-272.03 295,-302.03 421,-302.03 421,-272.03 295,-272.03"/>
<text text-anchor="start" x="303" y="-290.03" font-family="Helvetica,sans-Serif" font-size="10.00">BaseSignatureChecker</text>
<text text-anchor="middle" x="358" y="-279.03" font-family="Helvetica,sans-Serif" font-size="10.00">::CheckSequence</text>
</a>
</g>
</g>
<!-- Node9&#45;&gt;Node20 -->
<g id="edge24" class="edge"><title>Node9&#45;&gt;Node20</title>
<path fill="none" stroke="midnightblue" d="M223.024,-522.125C223.646,-487.968 230.302,-373.766 290,-311.03 290.91,-310.074 291.861,-309.155 292.848,-308.273"/>
<polygon fill="midnightblue" stroke="midnightblue" points="295.086,-310.971 301.032,-302.202 290.915,-305.349 295.086,-310.971"/>
</g>
<!-- Node9&#45;&gt;Node21 -->
<g id="edge25" class="edge"><title>Node9&#45;&gt;Node21</title>
<path fill="none" stroke="midnightblue" d="M224.634,-541.655C233.762,-595.209 278.453,-854.534 290,-867.03 296.2,-873.74 304.577,-878.145 313.306,-881.02"/>
<polygon fill="midnightblue" stroke="midnightblue" points="312.65,-884.467 323.214,-883.657 314.451,-877.702 312.65,-884.467"/>
</g>
<!-- Node22 -->
<g id="node22" class="node"><title>Node22</title>
<g id="a_node22"><a xlink:href="class_c_script_num.html#ab58edf8d8c555acbcac9e1ff9827a8da" target="_top" xlink:title="CScriptNum::getint">
<polygon fill="white" stroke="black" points="304,-233.53 304,-252.53 412,-252.53 412,-233.53 304,-233.53"/>
<text text-anchor="middle" x="358" y="-240.53" font-family="Helvetica,sans-Serif" font-size="10.00">CScriptNum::getint</text>
</a>
</g>
</g>
<!-- Node9&#45;&gt;Node22 -->
<g id="edge26" class="edge"><title>Node9&#45;&gt;Node22</title>
<path fill="none" stroke="midnightblue" d="M224.116,-522.251C229.3,-478.468 252.389,-300.907 290,-262.03 291.605,-260.371 293.344,-258.854 295.186,-257.466"/>
<polygon fill="midnightblue" stroke="midnightblue" points="297.136,-260.377 303.846,-252.178 293.488,-254.403 297.136,-260.377"/>
</g>
<!-- Node23 -->
<g id="node23" class="node"><title>Node23</title>
<g id="a_node23"><a xlink:href="class_c_r_i_p_e_m_d160.html#a221143b9d94af623d07c4f4ba1bf6007" target="_top" xlink:title="CRIPEMD160::Write">
<polygon fill="white" stroke="black" points="812,-522.53 812,-541.53 919,-541.53 919,-522.53 812,-522.53"/>
<text text-anchor="middle" x="865.5" y="-529.53" font-family="Helvetica,sans-Serif" font-size="10.00">CRIPEMD160::Write</text>
</a>
</g>
</g>
<!-- Node9&#45;&gt;Node23 -->
<g id="edge27" class="edge"><title>Node9&#45;&gt;Node23</title>
<path fill="none" stroke="midnightblue" d="M254.375,-532.03C354.402,-532.03 667.069,-532.03 801.753,-532.03"/>
<polygon fill="midnightblue" stroke="midnightblue" points="801.91,-535.531 811.91,-532.03 801.91,-528.531 801.91,-535.531"/>
</g>
<!-- Node24 -->
<g id="node24" class="node"><title>Node24</title>
<g id="a_node24"><a xlink:href="class_c_s_h_a1.html#a4322be694ccb2d9864e0cd0c30496a8a" target="_top" xlink:title="CSHA1::Write">
<polygon fill="white" stroke="black" points="825.5,-484.53 825.5,-503.53 905.5,-503.53 905.5,-484.53 825.5,-484.53"/>
<text text-anchor="middle" x="865.5" y="-491.53" font-family="Helvetica,sans-Serif" font-size="10.00">CSHA1::Write</text>
</a>
</g>
</g>
<!-- Node9&#45;&gt;Node24 -->
<g id="edge30" class="edge"><title>Node9&#45;&gt;Node24</title>
<path fill="none" stroke="midnightblue" d="M254.022,-530.175C265.344,-529.499 278.252,-528.729 290,-528.03 484.585,-516.464 716.247,-502.78 815.462,-496.924"/>
<polygon fill="midnightblue" stroke="midnightblue" points="815.714,-500.415 825.491,-496.332 815.302,-493.428 815.714,-500.415"/>
</g>
<!-- Node25 -->
<g id="node25" class="node"><title>Node25</title>
<g id="a_node25"><a xlink:href="class_c_hash160.html#af56cdd9443013eb68b246aa8450217f2" target="_top" xlink:title="CHash160::Write">
<polygon fill="white" stroke="black" points="478.5,-772.53 478.5,-791.53 573.5,-791.53 573.5,-772.53 478.5,-772.53"/>
<text text-anchor="middle" x="526" y="-779.53" font-family="Helvetica,sans-Serif" font-size="10.00">CHash160::Write</text>
</a>
</g>
</g>
<!-- Node9&#45;&gt;Node25 -->
<g id="edge34" class="edge"><title>Node9&#45;&gt;Node25</title>
<path fill="none" stroke="midnightblue" d="M224.801,-541.801C233.241,-587.086 269.342,-775.037 290,-791.03 348.895,-836.629 443.191,-812.668 492.524,-795.13"/>
<polygon fill="midnightblue" stroke="midnightblue" points="493.878,-798.361 502.053,-791.622 491.46,-791.792 493.878,-798.361"/>
</g>
<!-- Node26 -->
<g id="node26" class="node"><title>Node26</title>
<g id="a_node26"><a xlink:href="class_c_hash256.html#a9cc25033c6435cb28e2e8e377c949a7a" target="_top" xlink:title="CHash256::Write">
<polygon fill="white" stroke="black" points="653,-712.53 653,-731.53 748,-731.53 748,-712.53 653,-712.53"/>
<text text-anchor="middle" x="700.5" y="-719.53" font-family="Helvetica,sans-Serif" font-size="10.00">CHash256::Write</text>
</a>
</g>
</g>
<!-- Node9&#45;&gt;Node26 -->
<g id="edge36" class="edge"><title>Node9&#45;&gt;Node26</title>
<path fill="none" stroke="midnightblue" d="M224.936,-541.89C230.363,-566.783 248.155,-632.501 290,-665.03 351.809,-713.079 384.575,-691.437 462,-703.03 523.36,-712.218 594.349,-717.162 642.619,-719.681"/>
<polygon fill="midnightblue" stroke="midnightblue" points="642.702,-723.19 652.865,-720.197 643.054,-716.199 642.702,-723.19"/>
</g>
<!-- Node27 -->
<g id="node27" class="node"><title>Node27</title>
<g id="a_node27"><a xlink:href="interpreter_8cpp.html#a4bbdb5f5fcbbe292942cb74ee15ab3df" target="_top" xlink:title="FindAndDelete">
<polygon fill="white" stroke="black" points="315,-195.53 315,-214.53 401,-214.53 401,-195.53 315,-195.53"/>
<text text-anchor="middle" x="358" y="-202.53" font-family="Helvetica,sans-Serif" font-size="10.00">FindAndDelete</text>
</a>
</g>
</g>
<!-- Node9&#45;&gt;Node27 -->
<g id="edge38" class="edge"><title>Node9&#45;&gt;Node27</title>
<path fill="none" stroke="midnightblue" d="M223.773,-522.502C227.771,-475.544 247.56,-269.192 290,-224.03 294.347,-219.405 299.729,-215.877 305.538,-213.192"/>
<polygon fill="midnightblue" stroke="midnightblue" points="306.823,-216.448 314.932,-209.629 304.341,-209.903 306.823,-216.448"/>
</g>
<!-- Node32 -->
<g id="node32" class="node"><title>Node32</title>
<g id="a_node32"><a xlink:href="interpreter_8cpp.html#a4e9bf849122ca85e8010906bb23a2a40" target="_top" xlink:title="CheckSignatureEncoding">
<polygon fill="white" stroke="black" points="290,-762.53 290,-781.53 426,-781.53 426,-762.53 290,-762.53"/>
<text text-anchor="middle" x="358" y="-769.53" font-family="Helvetica,sans-Serif" font-size="10.00">CheckSignatureEncoding</text>
</a>
</g>
</g>
<!-- Node9&#45;&gt;Node32 -->
<g id="edge59" class="edge"><title>Node9&#45;&gt;Node32</title>
<path fill="none" stroke="midnightblue" d="M222.869,-541.611C222.947,-575.663 227.929,-692.069 290,-753.03 291.488,-754.492 293.08,-755.843 294.754,-757.091"/>
<polygon fill="midnightblue" stroke="midnightblue" points="293.355,-760.335 303.723,-762.518 296.979,-754.346 293.355,-760.335"/>
</g>
<!-- Node33 -->
<g id="node33" class="node"><title>Node33</title>
<g id="a_node33"><a xlink:href="class_base_signature_checker.html#ae0c63eeb452ee98cd862074f39b07e99" target="_top" xlink:title="BaseSignatureChecker\l::CheckSig">
<polygon fill="white" stroke="black" points="295,-713.03 295,-743.03 421,-743.03 421,-713.03 295,-713.03"/>
<text text-anchor="start" x="303" y="-731.03" font-family="Helvetica,sans-Serif" font-size="10.00">BaseSignatureChecker</text>
<text text-anchor="middle" x="358" y="-720.03" font-family="Helvetica,sans-Serif" font-size="10.00">::CheckSig</text>
</a>
</g>
</g>
<!-- Node9&#45;&gt;Node33 -->
<g id="edge60" class="edge"><title>Node9&#45;&gt;Node33</title>
<path fill="none" stroke="midnightblue" d="M224.327,-541.631C228.643,-569.435 244.721,-651.027 290,-698.03 293.556,-701.722 297.649,-704.994 302.021,-707.887"/>
<polygon fill="midnightblue" stroke="midnightblue" points="300.313,-710.943 310.707,-712.995 303.861,-704.909 300.313,-710.943"/>
</g>
<!-- Node34 -->
<g id="node34" class="node"><title>Node34</title>
<g id="a_node34"><a xlink:href="serialize_8h.html#aff862d80e345fc18ed8a3e0b3a0ce528" target="_top" xlink:title="WriteCompactSize">
<polygon fill="white" stroke="black" points="306,-636.53 306,-655.53 410,-655.53 410,-636.53 306,-636.53"/>
<text text-anchor="middle" x="358" y="-643.53" font-family="Helvetica,sans-Serif" font-size="10.00">WriteCompactSize</text>
</a>
</g>
</g>
<!-- Node9&#45;&gt;Node34 -->
<g id="edge61" class="edge"><title>Node9&#45;&gt;Node34</title>
<path fill="none" stroke="midnightblue" d="M227.13,-541.766C235.822,-561.067 257.888,-604.278 290,-627.03 292.849,-629.049 295.907,-630.854 299.092,-632.467"/>
<polygon fill="midnightblue" stroke="midnightblue" points="297.768,-635.709 308.331,-636.528 300.584,-629.3 297.768,-635.709"/>
</g>
<!-- Node37 -->
<g id="node37" class="node"><title>Node37</title>
<g id="a_node37"><a xlink:href="serialize_8h.html#a4d807cadf9c9de8c09c7f87412daf808" target="_top" xlink:title="Serialize">
<polygon fill="white" stroke="black" points="329.5,-598.53 329.5,-617.53 386.5,-617.53 386.5,-598.53 329.5,-598.53"/>
<text text-anchor="middle" x="358" y="-605.53" font-family="Helvetica,sans-Serif" font-size="10.00">Serialize</text>
</a>
</g>
</g>
<!-- Node9&#45;&gt;Node37 -->
<g id="edge65" class="edge"><title>Node9&#45;&gt;Node37</title>
<path fill="none" stroke="midnightblue" d="M233.174,-541.615C245.711,-553.007 268.057,-571.986 290,-584.03 299.261,-589.114 309.809,-593.478 319.752,-597.038"/>
<polygon fill="midnightblue" stroke="midnightblue" points="318.829,-600.421 329.423,-600.325 321.082,-593.793 318.829,-600.421"/>
</g>
<!-- Node39 -->
<g id="node39" class="node"><title>Node39</title>
<g id="a_node39"><a xlink:href="class_c_hash_writer.html#ae94a937211502eabf19477630090093a" target="_top" xlink:title="CHashWriter::GetHash">
<polygon fill="white" stroke="black" points="296.5,-838.53 296.5,-857.53 419.5,-857.53 419.5,-838.53 296.5,-838.53"/>
<text text-anchor="middle" x="358" y="-845.53" font-family="Helvetica,sans-Serif" font-size="10.00">CHashWriter::GetHash</text>
</a>
</g>
</g>
<!-- Node9&#45;&gt;Node39 -->
<g id="edge67" class="edge"><title>Node9&#45;&gt;Node39</title>
<path fill="none" stroke="midnightblue" d="M224.63,-541.573C232.879,-589.439 270.4,-801.96 290,-824.03 293.45,-827.915 297.574,-831.171 302.057,-833.9"/>
<polygon fill="midnightblue" stroke="midnightblue" points="300.547,-837.059 311.04,-838.525 303.752,-830.836 300.547,-837.059"/>
</g>
<!-- Node11 -->
<g id="node11" class="node"><title>Node11</title>
<g id="a_node11"><a xlink:href="classprevector_1_1iterator.html#ae9dd2b5e8d96f866e4b05d6b7535f285" target="_top" xlink:title="prevector::iterator\l::iterator">
<polygon fill="white" stroke="black" points="813.5,-409.03 813.5,-439.03 917.5,-439.03 917.5,-409.03 813.5,-409.03"/>
<text text-anchor="start" x="821.5" y="-427.03" font-family="Helvetica,sans-Serif" font-size="10.00">prevector::iterator</text>
<text text-anchor="middle" x="865.5" y="-416.03" font-family="Helvetica,sans-Serif" font-size="10.00">::iterator</text>
</a>
</g>
</g>
<!-- Node10&#45;&gt;Node11 -->
<g id="edge10" class="edge"><title>Node10&#45;&gt;Node11</title>
<path fill="none" stroke="midnightblue" d="M748.209,-419.75C765.275,-420.378 784.846,-421.098 803.005,-421.767"/>
<polygon fill="midnightblue" stroke="midnightblue" points="803.09,-425.272 813.212,-422.143 803.348,-418.277 803.09,-425.272"/>
</g>
<!-- Node12 -->
<g id="node12" class="node"><title>Node12</title>
<g id="a_node12"><a xlink:href="classprevector.html#a59f1d7bcbc751cfa0faddd7ffa184846" target="_top" xlink:title="prevector::item_ptr">
<polygon fill="white" stroke="black" points="811,-218.53 811,-237.53 920,-237.53 920,-218.53 811,-218.53"/>
<text text-anchor="middle" x="865.5" y="-225.53" font-family="Helvetica,sans-Serif" font-size="10.00">prevector::item_ptr</text>
</a>
</g>
</g>
<!-- Node10&#45;&gt;Node12 -->
<g id="edge11" class="edge"><title>Node10&#45;&gt;Node12</title>
<path fill="none" stroke="midnightblue" d="M709.807,-408.347C735.742,-378.116 815.484,-285.166 849.198,-245.868"/>
<polygon fill="midnightblue" stroke="midnightblue" points="852.159,-247.791 856.014,-237.922 846.846,-243.233 852.159,-247.791"/>
</g>
<!-- Node12&#45;&gt;Node8 -->
<g id="edge12" class="edge"><title>Node12&#45;&gt;Node8</title>
<path fill="none" stroke="midnightblue" d="M892.695,-218.49C918.537,-209.078 958.241,-194.617 987.032,-184.131"/>
<polygon fill="midnightblue" stroke="midnightblue" points="988.522,-187.313 996.72,-180.602 986.126,-180.736 988.522,-187.313"/>
</g>
<!-- Node13 -->
<g id="node13" class="node"><title>Node13</title>
<g id="a_node13"><a xlink:href="classprevector.html#a20150a43dd87c33f0e855a55bd3418e8" target="_top" xlink:title="prevector::direct_ptr">
<polygon fill="white" stroke="black" points="967,-275.53 967,-294.53 1081,-294.53 1081,-275.53 967,-275.53"/>
<text text-anchor="middle" x="1024" y="-282.53" font-family="Helvetica,sans-Serif" font-size="10.00">prevector::direct_ptr</text>
</a>
</g>
</g>
<!-- Node12&#45;&gt;Node13 -->
<g id="edge13" class="edge"><title>Node12&#45;&gt;Node13</title>
<path fill="none" stroke="midnightblue" d="M892.695,-237.571C918.537,-246.983 958.241,-261.444 987.032,-271.93"/>
<polygon fill="midnightblue" stroke="midnightblue" points="986.126,-275.325 996.72,-275.459 988.522,-268.748 986.126,-275.325"/>
</g>
<!-- Node14 -->
<g id="node14" class="node"><title>Node14</title>
<g id="a_node14"><a xlink:href="classprevector.html#ae3343cc65be9fd678b4a6f8305624de6" target="_top" xlink:title="prevector::indirect_ptr">
<polygon fill="white" stroke="black" points="963,-227.53 963,-246.53 1085,-246.53 1085,-227.53 963,-227.53"/>
<text text-anchor="middle" x="1024" y="-234.53" font-family="Helvetica,sans-Serif" font-size="10.00">prevector::indirect_ptr</text>
</a>
</g>
</g>
<!-- Node12&#45;&gt;Node14 -->
<g id="edge14" class="edge"><title>Node12&#45;&gt;Node14</title>
<path fill="none" stroke="midnightblue" d="M920.358,-231.128C930.744,-231.725 941.767,-232.359 952.587,-232.981"/>
<polygon fill="midnightblue" stroke="midnightblue" points="952.688,-236.493 962.872,-233.573 953.09,-229.504 952.688,-236.493"/>
</g>
<!-- Node15&#45;&gt;Node7 -->
<g id="edge18" class="edge"><title>Node15&#45;&gt;Node7</title>
<path fill="none" stroke="midnightblue" d="M742.632,-142.441C764.238,-137.404 790.909,-131.187 813.786,-125.853"/>
<polygon fill="midnightblue" stroke="midnightblue" points="814.72,-129.23 823.664,-123.551 813.13,-122.412 814.72,-129.23"/>
</g>
<!-- Node15&#45;&gt;Node11 -->
<g id="edge16" class="edge"><title>Node15&#45;&gt;Node11</title>
<path fill="none" stroke="midnightblue" d="M707.301,-161.711C730.348,-200.169 815.84,-342.831 850.133,-400.055"/>
<polygon fill="midnightblue" stroke="midnightblue" points="847.222,-402.007 855.364,-408.785 853.226,-398.409 847.222,-402.007"/>
</g>
<!-- Node15&#45;&gt;Node12 -->
<g id="edge17" class="edge"><title>Node15&#45;&gt;Node12</title>
<path fill="none" stroke="midnightblue" d="M722.144,-161.656C750.558,-174.904 801.902,-198.843 834.541,-214.062"/>
<polygon fill="midnightblue" stroke="midnightblue" points="833.481,-217.429 844.024,-218.483 836.439,-211.085 833.481,-217.429"/>
</g>
<!-- Node17 -->
<g id="node17" class="node"><title>Node17</title>
<g id="a_node17"><a xlink:href="script_8h.html#a7641081d14775e4dd30a9d35e82a7c31" target="_top" xlink:title="GetScriptOp">
<polygon fill="white" stroke="black" points="663,-446.53 663,-465.53 738,-465.53 738,-446.53 663,-446.53"/>
<text text-anchor="middle" x="700.5" y="-453.53" font-family="Helvetica,sans-Serif" font-size="10.00">GetScriptOp</text>
</a>
</g>
</g>
<!-- Node16&#45;&gt;Node17 -->
<g id="edge21" class="edge"><title>Node16&#45;&gt;Node17</title>
<path fill="none" stroke="midnightblue" d="M570.084,-456.03C595.168,-456.03 626.816,-456.03 652.536,-456.03"/>
<polygon fill="midnightblue" stroke="midnightblue" points="652.797,-459.531 662.797,-456.03 652.797,-452.531 652.797,-459.531"/>
</g>
<!-- Node23&#45;&gt;Node3 -->
<g id="edge28" class="edge"><title>Node23&#45;&gt;Node3</title>
<path fill="none" stroke="midnightblue" d="M905.992,-522.441C930.078,-516.593 960.719,-509.153 984.603,-503.354"/>
<polygon fill="midnightblue" stroke="midnightblue" points="985.495,-506.739 994.387,-500.978 983.843,-499.937 985.495,-506.739"/>
</g>
<!-- Node23&#45;&gt;Node6 -->
<g id="edge29" class="edge"><title>Node23&#45;&gt;Node6</title>
<path fill="none" stroke="midnightblue" d="M919.048,-532.03C927.628,-532.03 936.673,-532.03 945.701,-532.03"/>
<polygon fill="midnightblue" stroke="midnightblue" points="945.861,-535.531 955.861,-532.03 945.861,-528.531 945.861,-535.531"/>
</g>
<!-- Node24&#45;&gt;Node3 -->
<g id="edge31" class="edge"><title>Node24&#45;&gt;Node3</title>
<path fill="none" stroke="midnightblue" d="M905.588,-494.03C929.563,-494.03 960.146,-494.03 984.089,-494.03"/>
<polygon fill="midnightblue" stroke="midnightblue" points="984.239,-497.531 994.239,-494.03 984.239,-490.531 984.239,-497.531"/>
</g>
<!-- Node24&#45;&gt;Node6 -->
<g id="edge32" class="edge"><title>Node24&#45;&gt;Node6</title>
<path fill="none" stroke="midnightblue" d="M905.588,-503.521C926.315,-508.554 951.981,-514.786 974.025,-520.139"/>
<polygon fill="midnightblue" stroke="midnightblue" points="973.325,-523.57 983.868,-522.529 974.976,-516.768 973.325,-523.57"/>
</g>
<!-- Node25&#45;&gt;Node2 -->
<g id="edge35" class="edge"><title>Node25&#45;&gt;Node2</title>
<path fill="none" stroke="midnightblue" d="M573.574,-776.373C635.195,-768.887 743.664,-755.71 809.324,-747.733"/>
<polygon fill="midnightblue" stroke="midnightblue" points="809.975,-751.18 819.48,-746.5 809.131,-744.231 809.975,-751.18"/>
</g>
<!-- Node26&#45;&gt;Node2 -->
<g id="edge37" class="edge"><title>Node26&#45;&gt;Node2</title>
<path fill="none" stroke="midnightblue" d="M748.209,-727.475C767.276,-729.698 789.469,-732.285 809.327,-734.599"/>
<polygon fill="midnightblue" stroke="midnightblue" points="809.131,-738.1 819.469,-735.781 809.941,-731.147 809.131,-738.1"/>
</g>
<!-- Node27&#45;&gt;Node7 -->
<g id="edge57" class="edge"><title>Node27&#45;&gt;Node7</title>
<path fill="none" stroke="midnightblue" d="M369.807,-195.449C387.619,-180.256 424.878,-150.937 462,-137.03 580.713,-92.5594 732.918,-99.5017 811.804,-107.368"/>
<polygon fill="midnightblue" stroke="midnightblue" points="811.667,-110.873 821.976,-108.429 812.393,-103.91 811.667,-110.873"/>
</g>
<!-- Node27&#45;&gt;Node10 -->
<g id="edge41" class="edge"><title>Node27&#45;&gt;Node10</title>
<path fill="none" stroke="midnightblue" d="M401.126,-210.985C410.083,-213.804 418.953,-217.947 426,-224.03 455.514,-249.508 435.339,-275.581 462,-304.03 518.42,-364.236 550.657,-357.394 626,-391.03 637.233,-396.045 649.709,-400.889 661.145,-405.055"/>
<polygon fill="midnightblue" stroke="midnightblue" points="660.275,-408.461 670.87,-408.529 662.63,-401.869 660.275,-408.461"/>
</g>
<!-- Node27&#45;&gt;Node15 -->
<g id="edge42" class="edge"><title>Node27&#45;&gt;Node15</title>
<path fill="none" stroke="midnightblue" d="M401.299,-200.538C447.734,-195.374 524.412,-186.16 590,-175.03 609.068,-171.795 629.866,-167.597 648.166,-163.675"/>
<polygon fill="midnightblue" stroke="midnightblue" points="649.017,-167.072 658.048,-161.532 647.533,-160.231 649.017,-167.072"/>
</g>
<!-- Node27&#45;&gt;Node16 -->
<g id="edge58" class="edge"><title>Node27&#45;&gt;Node16</title>
<path fill="none" stroke="midnightblue" d="M401.159,-209.984C410.327,-212.835 419.28,-217.243 426,-224.03 468.782,-267.245 437.526,-300.364 462,-356.03 475.475,-386.678 497.364,-418.88 511.469,-438.206"/>
<polygon fill="midnightblue" stroke="midnightblue" points="508.751,-440.417 517.52,-446.362 514.373,-436.246 508.751,-440.417"/>
</g>
<!-- Node28 -->
<g id="node28" class="node"><title>Node28</title>
<g id="a_node28"><a xlink:href="classprevector.html#a2d6273a734a3e3e4596457a64ff169a5" target="_top" xlink:title="prevector::empty">
<polygon fill="white" stroke="black" points="476.5,-146.53 476.5,-165.53 575.5,-165.53 575.5,-146.53 476.5,-146.53"/>
<text text-anchor="middle" x="526" y="-153.53" font-family="Helvetica,sans-Serif" font-size="10.00">prevector::empty</text>
</a>
</g>
</g>
<!-- Node27&#45;&gt;Node28 -->
<g id="edge39" class="edge"><title>Node27&#45;&gt;Node28</title>
<path fill="none" stroke="midnightblue" d="M391.401,-195.466C417.565,-187.743 454.578,-176.818 483.013,-168.424"/>
<polygon fill="midnightblue" stroke="midnightblue" points="484.081,-171.758 492.681,-165.57 482.099,-165.045 484.081,-171.758"/>
</g>
<!-- Node29 -->
<g id="node29" class="node"><title>Node29</title>
<g id="a_node29"><a xlink:href="classprevector.html#ad4f368a9aa3f0f650e1b2a0894dafe51" target="_top" xlink:title="prevector::insert">
<polygon fill="white" stroke="black" points="478.5,-275.53 478.5,-294.53 573.5,-294.53 573.5,-275.53 478.5,-275.53"/>
<text text-anchor="middle" x="526" y="-282.53" font-family="Helvetica,sans-Serif" font-size="10.00">prevector::insert</text>
</a>
</g>
</g>
<!-- Node27&#45;&gt;Node29 -->
<g id="edge43" class="edge"><title>Node27&#45;&gt;Node29</title>
<path fill="none" stroke="midnightblue" d="M399.669,-214.62C408.511,-217.238 417.699,-220.38 426,-224.03 454.398,-236.518 484.374,-255.992 503.802,-269.567"/>
<polygon fill="midnightblue" stroke="midnightblue" points="502.01,-272.587 512.19,-275.521 506.061,-266.879 502.01,-272.587"/>
</g>
<!-- Node28&#45;&gt;Node7 -->
<g id="edge40" class="edge"><title>Node28&#45;&gt;Node7</title>
<path fill="none" stroke="midnightblue" d="M562.493,-146.435C581.246,-141.708 604.727,-136.33 626,-133.03 689.288,-123.214 762.858,-118.33 811.365,-115.998"/>
<polygon fill="midnightblue" stroke="midnightblue" points="811.796,-119.482 821.625,-115.525 811.474,-112.489 811.796,-119.482"/>
</g>
<!-- Node29&#45;&gt;Node4 -->
<g id="edge55" class="edge"><title>Node29&#45;&gt;Node4</title>
<path fill="none" stroke="midnightblue" d="M573.675,-294.273C579.268,-295.926 584.825,-297.835 590,-300.03 607.479,-307.444 608.196,-316.435 626,-323.03 716.42,-356.524 1006.41,-385.191 1117.57,-395.219"/>
<polygon fill="midnightblue" stroke="midnightblue" points="1117.48,-398.725 1127.75,-396.131 1118.1,-391.753 1117.48,-398.725"/>
</g>
<!-- Node29&#45;&gt;Node7 -->
<g id="edge45" class="edge"><title>Node29&#45;&gt;Node7</title>
<path fill="none" stroke="midnightblue" d="M535.779,-275.329C551.894,-258.148 588.041,-222.453 626,-204.03 687.02,-174.416 715.977,-204.449 775,-171.03 795.245,-159.568 791.5,-145.718 811,-133.03 814.072,-131.031 817.381,-129.212 820.792,-127.563"/>
<polygon fill="midnightblue" stroke="midnightblue" points="822.187,-130.773 829.971,-123.586 819.404,-124.35 822.187,-130.773"/>
</g>
<!-- Node29&#45;&gt;Node10 -->
<g id="edge44" class="edge"><title>Node29&#45;&gt;Node10</title>
<path fill="none" stroke="midnightblue" d="M545.561,-294.562C559.124,-302.219 577.293,-313.991 590,-328.03 612.422,-352.804 600.305,-372.671 626,-394.03 631.202,-398.355 637.203,-401.906 643.488,-404.822"/>
<polygon fill="midnightblue" stroke="midnightblue" points="642.259,-408.101 652.84,-408.655 644.914,-401.624 642.259,-408.101"/>
</g>
<!-- Node29&#45;&gt;Node11 -->
<g id="edge56" class="edge"><title>Node29&#45;&gt;Node11</title>
<path fill="none" stroke="midnightblue" d="M541.692,-294.683C554.575,-303.237 573.735,-316.172 590,-328.03 606.379,-339.972 607.923,-346.862 626,-356.03 630.083,-358.101 734.077,-387.453 803.381,-406.91"/>
<polygon fill="midnightblue" stroke="midnightblue" points="802.764,-410.373 813.338,-409.705 804.656,-403.633 802.764,-410.373"/>
</g>
<!-- Node29&#45;&gt;Node12 -->
<g id="edge54" class="edge"><title>Node29&#45;&gt;Node12</title>
<path fill="none" stroke="midnightblue" d="M573.574,-277.165C632.656,-267.186 734.804,-249.935 800.995,-238.756"/>
<polygon fill="midnightblue" stroke="midnightblue" points="801.616,-242.201 810.894,-237.084 800.45,-235.298 801.616,-242.201"/>
</g>
<!-- Node30 -->
<g id="node30" class="node"><title>Node30</title>
<g id="a_node30"><a xlink:href="classprevector.html#a950bdf62aa22ab779af46d5b36a7da1a" target="_top" xlink:title="prevector::capacity">
<polygon fill="white" stroke="black" points="811.5,-142.53 811.5,-161.53 919.5,-161.53 919.5,-142.53 811.5,-142.53"/>
<text text-anchor="middle" x="865.5" y="-149.53" font-family="Helvetica,sans-Serif" font-size="10.00">prevector::capacity</text>
</a>
</g>
</g>
<!-- Node29&#45;&gt;Node30 -->
<g id="edge46" class="edge"><title>Node29&#45;&gt;Node30</title>
<path fill="none" stroke="midnightblue" d="M546.357,-275.521C566.053,-266.108 597.633,-251.738 626,-242.03 690.66,-219.902 713.622,-234.087 775,-204.03 793.204,-195.116 793.629,-186.476 811,-176.03 817.096,-172.365 823.85,-168.912 830.449,-165.83"/>
<polygon fill="midnightblue" stroke="midnightblue" points="832.212,-168.875 839.911,-161.596 829.353,-162.486 832.212,-168.875"/>
</g>
<!-- Node31 -->
<g id="node31" class="node"><title>Node31</title>
<g id="a_node31"><a xlink:href="classprevector.html#a0e673654d3b7d8d6f79534e17f68741a" target="_top" xlink:title="prevector::change_capacity">
<polygon fill="white" stroke="black" points="626,-294.53 626,-313.53 775,-313.53 775,-294.53 626,-294.53"/>
<text text-anchor="middle" x="700.5" y="-301.53" font-family="Helvetica,sans-Serif" font-size="10.00">prevector::change_capacity</text>
</a>
</g>
</g>
<!-- Node29&#45;&gt;Node31 -->
<g id="edge48" class="edge"><title>Node29&#45;&gt;Node31</title>
<path fill="none" stroke="midnightblue" d="M573.681,-290.172C586.733,-291.61 601.329,-293.217 615.828,-294.814"/>
<polygon fill="midnightblue" stroke="midnightblue" points="615.506,-298.3 625.829,-295.916 616.273,-291.342 615.506,-298.3"/>
</g>
<!-- Node30&#45;&gt;Node8 -->
<g id="edge47" class="edge"><title>Node30&#45;&gt;Node8</title>
<path fill="none" stroke="midnightblue" d="M919.921,-158.516C932.763,-160.075 946.601,-161.755 959.839,-163.362"/>
<polygon fill="midnightblue" stroke="midnightblue" points="959.471,-166.843 969.82,-164.574 960.315,-159.894 959.471,-166.843"/>
</g>
<!-- Node31&#45;&gt;Node3 -->
<g id="edge52" class="edge"><title>Node31&#45;&gt;Node3</title>
<path fill="none" stroke="midnightblue" d="M731.709,-313.55C775.399,-328.096 857.795,-358.491 920,-399.03 954.571,-421.561 988.551,-455.944 1007.54,-476.58"/>
<polygon fill="midnightblue" stroke="midnightblue" points="1005.19,-479.2 1014.5,-484.259 1010.38,-474.499 1005.19,-479.2"/>
</g>
<!-- Node31&#45;&gt;Node7 -->
<g id="edge53" class="edge"><title>Node31&#45;&gt;Node7</title>
<path fill="none" stroke="midnightblue" d="M709.36,-294.47C723.452,-277.093 753.548,-238.898 775,-204.03 793.539,-173.897 784.433,-156.396 811,-133.03 812.91,-131.35 814.98,-129.816 817.156,-128.414"/>
<polygon fill="midnightblue" stroke="midnightblue" points="818.842,-131.481 825.973,-123.645 815.512,-125.324 818.842,-131.481"/>
</g>
<!-- Node31&#45;&gt;Node8 -->
<g id="edge49" class="edge"><title>Node31&#45;&gt;Node8</title>
<path fill="none" stroke="midnightblue" d="M712.155,-294.209C737.375,-271.048 799.477,-214.54 811,-209.03 857.69,-186.707 915.861,-177.415 959.452,-173.588"/>
<polygon fill="midnightblue" stroke="midnightblue" points="959.954,-177.059 969.641,-172.769 959.393,-170.081 959.954,-177.059"/>
</g>
<!-- Node31&#45;&gt;Node13 -->
<g id="edge51" class="edge"><title>Node31&#45;&gt;Node13</title>
<path fill="none" stroke="midnightblue" d="M775.259,-299.671C829.919,-296.441 903.781,-292.076 956.604,-288.954"/>
<polygon fill="midnightblue" stroke="midnightblue" points="957.1,-292.431 966.876,-288.347 956.687,-285.443 957.1,-292.431"/>
</g>
<!-- Node31&#45;&gt;Node14 -->
<g id="edge50" class="edge"><title>Node31&#45;&gt;Node14</title>
<path fill="none" stroke="midnightblue" d="M747.222,-294.502C805.109,-282.439 904.787,-261.666 967.126,-248.675"/>
<polygon fill="midnightblue" stroke="midnightblue" points="968.1,-252.047 977.176,-246.58 966.672,-245.194 968.1,-252.047"/>
</g>
<!-- Node35 -->
<g id="node35" class="node"><title>Node35</title>
<g id="a_node35"><a xlink:href="class_c_size_computer.html#a8f51357462d7960b27155d4f58558177" target="_top" xlink:title="Pretend _nSize bytes are written, without specifying them. ">
<polygon fill="white" stroke="black" points="466,-636.53 466,-655.53 586,-655.53 586,-636.53 466,-636.53"/>
<text text-anchor="middle" x="526" y="-643.53" font-family="Helvetica,sans-Serif" font-size="10.00">CSizeComputer::seek</text>
</a>
</g>
</g>
<!-- Node34&#45;&gt;Node35 -->
<g id="edge62" class="edge"><title>Node34&#45;&gt;Node35</title>
<path fill="none" stroke="midnightblue" d="M410.16,-646.03C424.479,-646.03 440.289,-646.03 455.479,-646.03"/>
<polygon fill="midnightblue" stroke="midnightblue" points="455.871,-649.531 465.871,-646.03 455.871,-642.531 455.871,-649.531"/>
</g>
<!-- Node36 -->
<g id="node36" class="node"><title>Node36</title>
<g id="a_node36"><a xlink:href="serialize_8h.html#a404beecbf8d7aec8d2cdac3cbb71e808" target="_top" xlink:title="Compact Size size &lt; 253 – 1 byte size &lt;= USHRT_MAX – 3 bytes (253 + 2 bytes) size &lt;= UINT_MAX – 5 ...">
<polygon fill="white" stroke="black" points="462,-674.53 462,-693.53 590,-693.53 590,-674.53 462,-674.53"/>
<text text-anchor="middle" x="526" y="-681.53" font-family="Helvetica,sans-Serif" font-size="10.00">GetSizeOfCompactSize</text>
</a>
</g>
</g>
<!-- Node34&#45;&gt;Node36 -->
<g id="edge63" class="edge"><title>Node34&#45;&gt;Node36</title>
<path fill="none" stroke="midnightblue" d="M410.16,-651.454C437.544,-656.889 470.379,-664.7 493.912,-671.511"/>
<polygon fill="midnightblue" stroke="midnightblue" points="493.116,-674.926 503.7,-674.458 495.134,-668.223 493.116,-674.926"/>
</g>
<!-- Node36&#45;&gt;Node34 -->
<g id="edge64" class="edge"><title>Node36&#45;&gt;Node34</title>
<path fill="none" stroke="midnightblue" d="M461.872,-676.154C437.257,-670.961 410.165,-664.366 389.965,-658.515"/>
<polygon fill="midnightblue" stroke="midnightblue" points="390.946,-655.155 380.362,-655.623 388.928,-661.858 390.946,-655.155"/>
</g>
<!-- Node38 -->
<g id="node38" class="node"><title>Node38</title>
<g id="a_node38"><a xlink:href="serialize_8h.html#ab121fe5d3f3371e3c57b45235a8d7802" target="_top" xlink:title="ser_writedata8">
<polygon fill="white" stroke="black" points="482.5,-598.53 482.5,-617.53 569.5,-617.53 569.5,-598.53 482.5,-598.53"/>
<text text-anchor="middle" x="526" y="-605.53" font-family="Helvetica,sans-Serif" font-size="10.00">ser_writedata8</text>
</a>
</g>
</g>
<!-- Node37&#45;&gt;Node38 -->
<g id="edge66" class="edge"><title>Node37&#45;&gt;Node38</title>
<path fill="none" stroke="midnightblue" d="M386.785,-608.03C410.048,-608.03 443.902,-608.03 472.282,-608.03"/>
<polygon fill="midnightblue" stroke="midnightblue" points="472.461,-611.531 482.461,-608.03 472.461,-604.531 472.461,-611.531"/>
</g>
<!-- Node40 -->
<g id="node40" class="node"><title>Node40</title>
<g id="a_node40"><a xlink:href="class_c_hash256.html#aa8a70c1b7cf24ce7d00240a1131cf4e7" target="_top" xlink:title="CHash256::Finalize">
<polygon fill="white" stroke="black" points="472.5,-832.53 472.5,-851.53 579.5,-851.53 579.5,-832.53 472.5,-832.53"/>
<text text-anchor="middle" x="526" y="-839.53" font-family="Helvetica,sans-Serif" font-size="10.00">CHash256::Finalize</text>
</a>
</g>
</g>
<!-- Node39&#45;&gt;Node40 -->
<g id="edge68" class="edge"><title>Node39&#45;&gt;Node40</title>
<path fill="none" stroke="midnightblue" d="M419.87,-845.83C433.585,-845.335 448.169,-844.807 461.971,-844.309"/>
<polygon fill="midnightblue" stroke="midnightblue" points="462.478,-847.793 472.345,-843.934 462.225,-840.797 462.478,-847.793"/>
</g>
<!-- Node40&#45;&gt;Node2 -->
<g id="edge72" class="edge"><title>Node40&#45;&gt;Node2</title>
<path fill="none" stroke="midnightblue" d="M579.564,-845.584C631.352,-847.087 711.686,-843.966 775,-817.03 805.628,-804 833.595,-776.674 849.836,-758.589"/>
<polygon fill="midnightblue" stroke="midnightblue" points="852.902,-760.398 856.827,-750.557 847.622,-755.802 852.902,-760.398"/>
</g>
<!-- Node41 -->
<g id="node41" class="node"><title>Node41</title>
<g id="a_node41"><a xlink:href="class_c_s_h_a256.html#a4259230be0caefa590bc324fc12b9b90" target="_top" xlink:title="CSHA256::Finalize">
<polygon fill="white" stroke="black" points="649,-864.53 649,-883.53 752,-883.53 752,-864.53 649,-864.53"/>
<text text-anchor="middle" x="700.5" y="-871.53" font-family="Helvetica,sans-Serif" font-size="10.00">CSHA256::Finalize</text>
</a>
</g>
</g>
<!-- Node40&#45;&gt;Node41 -->
<g id="edge69" class="edge"><title>Node40&#45;&gt;Node41</title>
<path fill="none" stroke="midnightblue" d="M578.289,-851.545C597.32,-855.075 619.084,-859.113 638.87,-862.783"/>
<polygon fill="midnightblue" stroke="midnightblue" points="638.236,-866.225 648.706,-864.608 639.513,-859.343 638.236,-866.225"/>
</g>
<!-- Node42 -->
<g id="node42" class="node"><title>Node42</title>
<g id="a_node42"><a xlink:href="class_c_s_h_a256.html#a2122395dd5604990eaa0077b43a0e8d4" target="_top" xlink:title="CSHA256::Reset">
<polygon fill="white" stroke="black" points="653,-788.53 653,-807.53 748,-807.53 748,-788.53 653,-788.53"/>
<text text-anchor="middle" x="700.5" y="-795.53" font-family="Helvetica,sans-Serif" font-size="10.00">CSHA256::Reset</text>
</a>
</g>
</g>
<!-- Node40&#45;&gt;Node42 -->
<g id="edge71" class="edge"><title>Node40&#45;&gt;Node42</title>
<path fill="none" stroke="midnightblue" d="M564.43,-832.483C590.199,-825.91 624.638,-817.126 652.291,-810.072"/>
<polygon fill="midnightblue" stroke="midnightblue" points="653.318,-813.422 662.143,-807.559 651.588,-806.639 653.318,-813.422"/>
</g>
<!-- Node41&#45;&gt;Node2 -->
<g id="edge70" class="edge"><title>Node41&#45;&gt;Node2</title>
<path fill="none" stroke="midnightblue" d="M744.612,-864.447C755.105,-860.935 765.912,-856.241 775,-850.03 810.358,-825.868 839.179,-783.843 853.891,-759.642"/>
<polygon fill="midnightblue" stroke="midnightblue" points="857.073,-761.136 859.148,-750.747 851.047,-757.574 857.073,-761.136"/>
</g>
</g>
</svg>
