<?xml version="1.0" encoding="UTF-8" standalone="no"?>
<!DOCTYPE svg PUBLIC "-//W3C//DTD SVG 1.1//EN"
 "http://www.w3.org/Graphics/SVG/1.1/DTD/svg11.dtd">
<!-- Generated by graphviz version 2.49.3 (0)
 -->
<!-- Title: CSHA512::Reset Pages: 1 -->
<svg width="1583pt" height="1057pt"
 viewBox="0.00 0.00 1583.00 1057.00" xmlns="http://www.w3.org/2000/svg" xmlns:xlink="http://www.w3.org/1999/xlink">
<g id="graph0" class="graph" transform="scale(1 1) rotate(0) translate(4 1053)">
<title>CSHA512::Reset</title>
<polygon fill="white" stroke="transparent" points="-4,4 -4,-1053 1579,-1053 1579,4 -4,4"/>
<!-- Node1 -->
<g id="node1" class="node">
<title>Node1</title>
<g id="a_node1"><a xlink:title=" ">
<polygon fill="#bfbfbf" stroke="black" points="1480,-865.5 1480,-884.5 1575,-884.5 1575,-865.5 1480,-865.5"/>
<text text-anchor="middle" x="1527.5" y="-872.5" font-family="Helvetica,sans-Serif" font-size="10.00">CSHA512::Reset</text>
</a>
</g>
</g>
<!-- Node2 -->
<g id="node2" class="node">
<title>Node2</title>
<g id="a_node2"><a xlink:href="class_c_crypter.html#a55ab8ab7270b5e4df07bacf4fb630632" target="_top" xlink:title=" ">
<polygon fill="white" stroke="black" points="1265,-893.5 1265,-912.5 1444,-912.5 1444,-893.5 1265,-893.5"/>
<text text-anchor="middle" x="1354.5" y="-900.5" font-family="Helvetica,sans-Serif" font-size="10.00">CCrypter::BytesToKeySHA512AES</text>
</a>
</g>
</g>
<!-- Node1&#45;&gt;Node2 -->
<g id="edge1" class="edge">
<title>Node1&#45;&gt;Node2</title>
<path fill="none" stroke="midnightblue" d="M1469.73,-884.3C1451.75,-887.24 1431.86,-890.5 1413.78,-893.46"/>
<polygon fill="midnightblue" stroke="midnightblue" points="1470.47,-887.72 1479.77,-882.65 1469.34,-880.81 1470.47,-887.72"/>
</g>
<!-- Node9 -->
<g id="node9" class="node">
<title>Node9</title>
<g id="a_node9"><a xlink:href="random_8cpp.html#a0178c8e55ae07cfbfb79d5bc26333fe3" target="_top" xlink:title="Use repeated SHA512 to strengthen the randomness in seed32, and feed into hasher.">
<polygon fill="white" stroke="black" points="1319.5,-846.5 1319.5,-865.5 1389.5,-865.5 1389.5,-846.5 1319.5,-846.5"/>
<text text-anchor="middle" x="1354.5" y="-853.5" font-family="Helvetica,sans-Serif" font-size="10.00">Strengthen</text>
</a>
</g>
</g>
<!-- Node1&#45;&gt;Node9 -->
<g id="edge8" class="edge">
<title>Node1&#45;&gt;Node9</title>
<path fill="none" stroke="midnightblue" d="M1469.49,-868.67C1443.05,-865.73 1412.51,-862.33 1389.69,-859.8"/>
<polygon fill="midnightblue" stroke="midnightblue" points="1469.45,-872.18 1479.77,-869.81 1470.22,-865.23 1469.45,-872.18"/>
</g>
<!-- Node3 -->
<g id="node3" class="node">
<title>Node3</title>
<g id="a_node3"><a xlink:href="class_c_crypter.html#a5368279e4a1549d3c1d15d8aa2179708" target="_top" xlink:title=" ">
<polygon fill="white" stroke="black" points="1050,-925.5 1050,-944.5 1229,-944.5 1229,-925.5 1050,-925.5"/>
<text text-anchor="middle" x="1139.5" y="-932.5" font-family="Helvetica,sans-Serif" font-size="10.00">CCrypter::SetKeyFromPassphrase</text>
</a>
</g>
</g>
<!-- Node2&#45;&gt;Node3 -->
<g id="edge2" class="edge">
<title>Node2&#45;&gt;Node3</title>
<path fill="none" stroke="midnightblue" d="M1280.1,-914.03C1255.32,-917.75 1227.89,-921.87 1203.95,-925.47"/>
<polygon fill="midnightblue" stroke="midnightblue" points="1280.8,-917.46 1290.17,-912.51 1279.76,-910.54 1280.8,-917.46"/>
</g>
<!-- Node4 -->
<g id="node4" class="node">
<title>Node4</title>
<g id="a_node4"><a xlink:href="wallet__crypto__tests_8cpp.html#adf8fd6ed811b11c551c20f678e7f0c9b" target="_top" xlink:title=" ">
<polygon fill="white" stroke="black" points="851.5,-865.5 851.5,-884.5 994.5,-884.5 994.5,-865.5 851.5,-865.5"/>
<text text-anchor="middle" x="923" y="-872.5" font-family="Helvetica,sans-Serif" font-size="10.00">BOOST_AUTO_TEST_CASE</text>
</a>
</g>
</g>
<!-- Node3&#45;&gt;Node4 -->
<g id="edge3" class="edge">
<title>Node3&#45;&gt;Node4</title>
<path fill="none" stroke="midnightblue" d="M1102.38,-921.94C1077.7,-913.3 1044.13,-902.11 1014,-894 1001.2,-890.55 987.24,-887.34 974.22,-884.58"/>
<polygon fill="midnightblue" stroke="midnightblue" points="1101.45,-925.32 1112.04,-925.35 1103.78,-918.72 1101.45,-925.32"/>
</g>
<!-- Node5 -->
<g id="node5" class="node">
<title>Node5</title>
<g id="a_node5"><a xlink:href="group__map_wallet.html#ga4abcec3066e7c462f4564c159fc15031" target="_top" xlink:title=" ">
<polygon fill="white" stroke="black" points="832,-1029.5 832,-1048.5 1014,-1048.5 1014,-1029.5 832,-1029.5"/>
<text text-anchor="middle" x="923" y="-1036.5" font-family="Helvetica,sans-Serif" font-size="10.00">CWallet::ChangeWalletPassphrase</text>
</a>
</g>
</g>
<!-- Node3&#45;&gt;Node5 -->
<g id="edge4" class="edge">
<title>Node3&#45;&gt;Node5</title>
<path fill="none" stroke="midnightblue" d="M1118.3,-950.81C1094.56,-968.7 1053.39,-997.61 1014,-1015 1000.39,-1021.01 984.94,-1025.8 970.73,-1029.47"/>
<polygon fill="midnightblue" stroke="midnightblue" points="1120.69,-953.39 1126.51,-944.54 1116.44,-947.83 1120.69,-953.39"/>
</g>
<!-- Node6 -->
<g id="node6" class="node">
<title>Node6</title>
<g id="a_node6"><a xlink:href="group__map_wallet.html#gab34fe5bf771619dcbe22a65f013e5469" target="_top" xlink:title=" ">
<polygon fill="white" stroke="black" points="387.5,-990.5 387.5,-1009.5 515.5,-1009.5 515.5,-990.5 387.5,-990.5"/>
<text text-anchor="middle" x="451.5" y="-997.5" font-family="Helvetica,sans-Serif" font-size="10.00">CWallet::EncryptWallet</text>
</a>
</g>
</g>
<!-- Node3&#45;&gt;Node6 -->
<g id="edge5" class="edge">
<title>Node3&#45;&gt;Node6</title>
<path fill="none" stroke="midnightblue" d="M1109.62,-948.69C1084.87,-959.68 1047.93,-974.34 1014,-981 835.98,-1015.95 620.23,-1010.14 515.56,-1004.36"/>
<polygon fill="midnightblue" stroke="midnightblue" points="1111.14,-951.84 1118.8,-944.53 1108.25,-945.47 1111.14,-951.84"/>
</g>
<!-- Node7 -->
<g id="node7" class="node">
<title>Node7</title>
<g id="a_node7"><a xlink:href="class_test_crypter.html#a98e2c77ec91e9861e10663cc1bf7a396" target="_top" xlink:title=" ">
<polygon fill="white" stroke="black" points="847,-942 847,-972 999,-972 999,-942 847,-942"/>
<text text-anchor="start" x="855" y="-960" font-family="Helvetica,sans-Serif" font-size="10.00">TestCrypter::TestPassphrase</text>
<text text-anchor="middle" x="923" y="-949" font-family="Helvetica,sans-Serif" font-size="10.00">Single</text>
</a>
</g>
</g>
<!-- Node3&#45;&gt;Node7 -->
<g id="edge6" class="edge">
<title>Node3&#45;&gt;Node7</title>
<path fill="none" stroke="midnightblue" d="M1039.39,-945.17C1025.83,-946.56 1012.11,-947.96 999.07,-949.3"/>
<polygon fill="midnightblue" stroke="midnightblue" points="1040.12,-948.61 1049.71,-944.11 1039.4,-941.65 1040.12,-948.61"/>
</g>
<!-- Node8 -->
<g id="node8" class="node">
<title>Node8</title>
<g id="a_node8"><a xlink:href="group__map_wallet.html#ga4370ceeca17c1fc58c419e4cdc65b433" target="_top" xlink:title=" ">
<polygon fill="white" stroke="black" points="876,-903.5 876,-922.5 970,-922.5 970,-903.5 876,-903.5"/>
<text text-anchor="middle" x="923" y="-910.5" font-family="Helvetica,sans-Serif" font-size="10.00">CWallet::Unlock</text>
</a>
</g>
</g>
<!-- Node3&#45;&gt;Node8 -->
<g id="edge7" class="edge">
<title>Node3&#45;&gt;Node8</title>
<path fill="none" stroke="midnightblue" d="M1039.72,-924.87C1015.46,-922.38 990.62,-919.83 970.2,-917.74"/>
<polygon fill="midnightblue" stroke="midnightblue" points="1039.4,-928.35 1049.71,-925.89 1040.12,-921.39 1039.4,-928.35"/>
</g>
<!-- Node10 -->
<g id="node10" class="node">
<title>Node10</title>
<g id="a_node10"><a xlink:href="random_8cpp.html#a27dc45ff7a8f4413fec336f8b6d7749e" target="_top" xlink:title="Extract entropy from rng, strengthen it, and feed it into hasher.">
<polygon fill="white" stroke="black" points="1092.5,-827.5 1092.5,-846.5 1186.5,-846.5 1186.5,-827.5 1092.5,-827.5"/>
<text text-anchor="middle" x="1139.5" y="-834.5" font-family="Helvetica,sans-Serif" font-size="10.00">SeedStrengthen</text>
</a>
</g>
</g>
<!-- Node9&#45;&gt;Node10 -->
<g id="edge9" class="edge">
<title>Node9&#45;&gt;Node10</title>
<path fill="none" stroke="midnightblue" d="M1309.1,-852.04C1273.22,-848.84 1222.88,-844.35 1186.56,-841.11"/>
<polygon fill="midnightblue" stroke="midnightblue" points="1309.01,-855.54 1319.28,-852.95 1309.63,-848.57 1309.01,-855.54"/>
</g>
<!-- Node11 -->
<g id="node11" class="node">
<title>Node11</title>
<g id="a_node11"><a xlink:href="random_8cpp.html#aac760c61051f75d8930464ee2b6b4750" target="_top" xlink:title=" ">
<polygon fill="white" stroke="black" points="883,-827.5 883,-846.5 963,-846.5 963,-827.5 883,-827.5"/>
<text text-anchor="middle" x="923" y="-834.5" font-family="Helvetica,sans-Serif" font-size="10.00">SeedPeriodic</text>
</a>
</g>
</g>
<!-- Node10&#45;&gt;Node11 -->
<g id="edge10" class="edge">
<title>Node10&#45;&gt;Node11</title>
<path fill="none" stroke="midnightblue" d="M1082.22,-837C1044.74,-837 996.43,-837 963.11,-837"/>
<polygon fill="midnightblue" stroke="midnightblue" points="1082.48,-840.5 1092.48,-837 1082.48,-833.5 1082.48,-840.5"/>
</g>
<!-- Node160 -->
<g id="node50" class="node">
<title>Node160</title>
<g id="a_node50"><a xlink:href="random_8cpp.html#a2978864f7deaa6e13a1a98df08b0b394" target="_top" xlink:title=" ">
<polygon fill="white" stroke="black" points="885,-789.5 885,-808.5 961,-808.5 961,-789.5 885,-789.5"/>
<text text-anchor="middle" x="923" y="-796.5" font-family="Helvetica,sans-Serif" font-size="10.00">SeedStartup</text>
</a>
</g>
</g>
<!-- Node10&#45;&gt;Node160 -->
<g id="edge54" class="edge">
<title>Node10&#45;&gt;Node160</title>
<path fill="none" stroke="midnightblue" d="M1082.51,-827.08C1044.2,-820.29 994.49,-811.49 961.03,-805.56"/>
<polygon fill="midnightblue" stroke="midnightblue" points="1082.03,-830.55 1092.48,-828.85 1083.25,-823.66 1082.03,-830.55"/>
</g>
<!-- Node12 -->
<g id="node12" class="node">
<title>Node12</title>
<g id="a_node12"><a xlink:href="random_8cpp.html#a8ae9b8a6be2563ac9695b0b0c2828da2" target="_top" xlink:title=" ">
<polygon fill="white" stroke="black" points="734,-827.5 734,-846.5 796,-846.5 796,-827.5 734,-827.5"/>
<text text-anchor="middle" x="765" y="-834.5" font-family="Helvetica,sans-Serif" font-size="10.00">ProcRand</text>
</a>
</g>
</g>
<!-- Node11&#45;&gt;Node12 -->
<g id="edge11" class="edge">
<title>Node11&#45;&gt;Node12</title>
<path fill="none" stroke="midnightblue" d="M872.61,-837C847.64,-837 818.13,-837 796.5,-837"/>
<polygon fill="midnightblue" stroke="midnightblue" points="872.63,-840.5 882.63,-837 872.63,-833.5 872.63,-840.5"/>
</g>
<!-- Node13 -->
<g id="node13" class="node">
<title>Node13</title>
<g id="a_node13"><a xlink:href="random_8cpp.html#a6ee67373bce34cf387d83c86b438ff84" target="_top" xlink:title="Overall design of the RNG and entropy sources.">
<polygon fill="white" stroke="black" points="596,-208.5 596,-227.5 682,-227.5 682,-208.5 596,-208.5"/>
<text text-anchor="middle" x="639" y="-215.5" font-family="Helvetica,sans-Serif" font-size="10.00">GetRandBytes</text>
</a>
</g>
</g>
<!-- Node12&#45;&gt;Node13 -->
<g id="edge12" class="edge">
<title>Node12&#45;&gt;Node13</title>
<path fill="none" stroke="midnightblue" d="M760.07,-817.38C740.71,-720.75 655.89,-297.31 641.94,-227.7"/>
<polygon fill="midnightblue" stroke="midnightblue" points="756.66,-818.16 762.05,-827.28 763.52,-816.78 756.66,-818.16"/>
</g>
<!-- Node150 -->
<g id="node46" class="node">
<title>Node150</title>
<g id="a_node46"><a xlink:href="random_8cpp.html#a72ecdcabd16ee4b868d96beaa9a2f188" target="_top" xlink:title="Gather entropy from various sources, feed it into the internal PRNG, and generate random data using i...">
<polygon fill="white" stroke="black" points="580,-951.5 580,-970.5 698,-970.5 698,-951.5 580,-951.5"/>
<text text-anchor="middle" x="639" y="-958.5" font-family="Helvetica,sans-Serif" font-size="10.00">GetStrongRandBytes</text>
</a>
</g>
</g>
<!-- Node12&#45;&gt;Node150 -->
<g id="edge46" class="edge">
<title>Node12&#45;&gt;Node150</title>
<path fill="none" stroke="midnightblue" d="M750.66,-855.13C737.99,-871.78 717.97,-896.74 698,-916 684.06,-929.45 666.22,-942.79 654.04,-951.41"/>
<polygon fill="midnightblue" stroke="midnightblue" points="753.69,-856.91 756.89,-846.81 748.09,-852.72 753.69,-856.91"/>
</g>
<!-- Node158 -->
<g id="node48" class="node">
<title>Node158</title>
<g id="a_node48"><a xlink:href="random_8cpp.html#a315ac9735459c7f7ba575faa0810d03e" target="_top" xlink:title="Gather entropy from various expensive sources, and feed them to the PRNG state.">
<polygon fill="white" stroke="black" points="589.5,-887.5 589.5,-906.5 688.5,-906.5 688.5,-887.5 589.5,-887.5"/>
<text text-anchor="middle" x="639" y="-894.5" font-family="Helvetica,sans-Serif" font-size="10.00">RandAddPeriodic</text>
</a>
</g>
</g>
<!-- Node12&#45;&gt;Node158 -->
<g id="edge49" class="edge">
<title>Node12&#45;&gt;Node158</title>
<path fill="none" stroke="midnightblue" d="M735.05,-851.01C711.98,-862.17 680.28,-877.51 659.97,-887.34"/>
<polygon fill="midnightblue" stroke="midnightblue" points="736.87,-854.01 744.35,-846.51 733.83,-847.71 736.87,-854.01"/>
</g>
<!-- Node159 -->
<g id="node49" class="node">
<title>Node159</title>
<g id="a_node49"><a xlink:href="random_8cpp.html#aa4c101f3cf6614b5922770a6f5ca7209" target="_top" xlink:title="Initialize global RNG state and log any CPU features that are used.">
<polygon fill="white" stroke="black" points="415,-827.5 415,-846.5 488,-846.5 488,-827.5 415,-827.5"/>
<text text-anchor="middle" x="451.5" y="-834.5" font-family="Helvetica,sans-Serif" font-size="10.00">RandomInit</text>
</a>
</g>
</g>
<!-- Node12&#45;&gt;Node159 -->
<g id="edge51" class="edge">
<title>Node12&#45;&gt;Node159</title>
<path fill="none" stroke="midnightblue" d="M723.79,-837C662.56,-837 546.9,-837 488.37,-837"/>
<polygon fill="midnightblue" stroke="midnightblue" points="723.85,-840.5 733.85,-837 723.85,-833.5 723.85,-840.5"/>
</g>
<!-- Node14 -->
<g id="node14" class="node">
<title>Node14</title>
<g id="a_node14"><a xlink:href="key__tests_8cpp.html#a00ea75e1855ba68e22c41cc748fc5e36" target="_top" xlink:title=" ">
<polygon fill="white" stroke="black" points="380,-94.5 380,-113.5 523,-113.5 523,-94.5 380,-94.5"/>
<text text-anchor="middle" x="451.5" y="-101.5" font-family="Helvetica,sans-Serif" font-size="10.00">BOOST_AUTO_TEST_CASE</text>
</a>
</g>
</g>
<!-- Node13&#45;&gt;Node14 -->
<g id="edge13" class="edge">
<title>Node13&#45;&gt;Node14</title>
<path fill="none" stroke="midnightblue" d="M625.46,-199.99C609.27,-178.18 578.96,-142 544,-123 536.87,-119.13 529.04,-116.04 521.05,-113.59"/>
<polygon fill="midnightblue" stroke="midnightblue" points="622.82,-202.31 631.51,-208.37 628.5,-198.21 622.82,-202.31"/>
</g>
<!-- Node15 -->
<g id="node15" class="node">
<title>Node15</title>
<g id="a_node15"><a xlink:href="class_byte_vector_hash.html#aa5b05ee583ebb48ec5911f64c899e14d" target="_top" xlink:title=" ">
<polygon fill="white" stroke="black" points="362,-56.5 362,-75.5 541,-75.5 541,-56.5 362,-56.5"/>
<text text-anchor="middle" x="451.5" y="-63.5" font-family="Helvetica,sans-Serif" font-size="10.00">ByteVectorHash::ByteVectorHash</text>
</a>
</g>
</g>
<!-- Node13&#45;&gt;Node15 -->
<g id="edge14" class="edge">
<title>Node13&#45;&gt;Node15</title>
<path fill="none" stroke="midnightblue" d="M630.09,-198.87C616.87,-169.42 587.39,-113.44 544,-85 538.17,-81.18 531.71,-78.1 525,-75.63"/>
<polygon fill="midnightblue" stroke="midnightblue" points="627.03,-200.63 634.22,-208.42 633.46,-197.85 627.03,-200.63"/>
</g>
<!-- Node16 -->
<g id="node16" class="node">
<title>Node16</title>
<g id="a_node16"><a xlink:href="class_c_d_b_wrapper.html#ad1b9f0d554cd7e62d2789b7d3fca753a" target="_top" xlink:title="Returns a string (consisting of 8 random bytes) suitable for use as an obfuscating XOR key.">
<polygon fill="white" stroke="black" points="359,-866.5 359,-885.5 544,-885.5 544,-866.5 359,-866.5"/>
<text text-anchor="middle" x="451.5" y="-873.5" font-family="Helvetica,sans-Serif" font-size="10.00">CDBWrapper::CreateObfuscateKey</text>
</a>
</g>
</g>
<!-- Node13&#45;&gt;Node16 -->
<g id="edge15" class="edge">
<title>Node13&#45;&gt;Node16</title>
<path fill="none" stroke="midnightblue" d="M637.99,-238.03C637.51,-335.96 630.44,-763.39 544,-856 540.12,-860.16 535.59,-863.56 530.65,-866.32"/>
<polygon fill="midnightblue" stroke="midnightblue" points="641.49,-237.77 638.02,-227.76 634.49,-237.75 641.49,-237.77"/>
</g>
<!-- Node18 -->
<g id="node18" class="node">
<title>Node18</title>
<g id="a_node18"><a xlink:href="key_8cpp.html#ae4d2893f2f5af1cca247516578171860" target="_top" xlink:title="Initialize the elliptic curve support.">
<polygon fill="white" stroke="black" points="419,-562.5 419,-581.5 484,-581.5 484,-562.5 419,-562.5"/>
<text text-anchor="middle" x="451.5" y="-569.5" font-family="Helvetica,sans-Serif" font-size="10.00">ECC_Start</text>
</a>
</g>
</g>
<!-- Node13&#45;&gt;Node18 -->
<g id="edge17" class="edge">
<title>Node13&#45;&gt;Node18</title>
<path fill="none" stroke="midnightblue" d="M628.07,-236.96C594,-301.97 482.61,-514.53 457.54,-562.38"/>
<polygon fill="midnightblue" stroke="midnightblue" points="631.3,-238.32 632.85,-227.84 625.1,-235.07 631.3,-238.32"/>
</g>
<!-- Node36 -->
<g id="node33" class="node">
<title>Node36</title>
<g id="a_node33"><a xlink:href="request_8cpp.html#aba0ca0057b433bdfcb881fcd6af4b577" target="_top" xlink:title="Generate a new RPC authentication cookie and write it to disk.">
<polygon fill="white" stroke="black" points="392.5,-268.5 392.5,-287.5 510.5,-287.5 510.5,-268.5 392.5,-268.5"/>
<text text-anchor="middle" x="451.5" y="-275.5" font-family="Helvetica,sans-Serif" font-size="10.00">GenerateAuthCookie</text>
</a>
</g>
</g>
<!-- Node13&#45;&gt;Node36 -->
<g id="edge32" class="edge">
<title>Node13&#45;&gt;Node36</title>
<path fill="none" stroke="midnightblue" d="M598.76,-230.69C563.88,-241.98 513.65,-258.22 482.06,-268.44"/>
<polygon fill="midnightblue" stroke="midnightblue" points="600.17,-233.91 608.61,-227.51 598.02,-227.25 600.17,-233.91"/>
</g>
<!-- Node41 -->
<g id="node35" class="node">
<title>Node41</title>
<g id="a_node35"><a xlink:href="random_8cpp.html#a88672f91432a247654f2c06298dd58ee" target="_top" xlink:title=" ">
<polygon fill="white" stroke="red" points="410,-208.5 410,-227.5 493,-227.5 493,-208.5 410,-208.5"/>
<text text-anchor="middle" x="451.5" y="-215.5" font-family="Helvetica,sans-Serif" font-size="10.00">GetRandHash</text>
</a>
</g>
</g>
<!-- Node13&#45;&gt;Node41 -->
<g id="edge34" class="edge">
<title>Node13&#45;&gt;Node41</title>
<path fill="none" stroke="midnightblue" d="M585.83,-218C556.49,-218 520.38,-218 493.15,-218"/>
<polygon fill="midnightblue" stroke="midnightblue" points="585.91,-221.5 595.91,-218 585.91,-214.5 585.91,-221.5"/>
</g>
<!-- Node88 -->
<g id="node44" class="node">
<title>Node88</title>
<g id="a_node44"><a xlink:href="class_tor_controller.html#aee36fcd1cd60d7f4eb007d909894b1c3" target="_top" xlink:title="Callback for PROTOCOLINFO result.">
<polygon fill="white" stroke="red" points="371.5,-170.5 371.5,-189.5 531.5,-189.5 531.5,-170.5 371.5,-170.5"/>
<text text-anchor="middle" x="451.5" y="-177.5" font-family="Helvetica,sans-Serif" font-size="10.00">TorController::protocolinfo_cb</text>
</a>
</g>
</g>
<!-- Node13&#45;&gt;Node88 -->
<g id="edge44" class="edge">
<title>Node13&#45;&gt;Node88</title>
<path fill="none" stroke="midnightblue" d="M585.76,-207.3C558.48,-201.71 525.37,-194.93 498.98,-189.52"/>
<polygon fill="midnightblue" stroke="midnightblue" points="585.41,-210.8 595.91,-209.38 586.81,-203.94 585.41,-210.8"/>
</g>
<!-- Node94 -->
<g id="node45" class="node">
<title>Node94</title>
<g id="a_node45"><a xlink:href="class_c_key.html#ac53425b8d0f89067bce781c485101b20" target="_top" xlink:title="Verify thoroughly whether a private key and a public key match.">
<polygon fill="white" stroke="red" points="396.5,-132.5 396.5,-151.5 506.5,-151.5 506.5,-132.5 396.5,-132.5"/>
<text text-anchor="middle" x="451.5" y="-139.5" font-family="Helvetica,sans-Serif" font-size="10.00">CKey::VerifyPubKey</text>
</a>
</g>
</g>
<!-- Node13&#45;&gt;Node94 -->
<g id="edge45" class="edge">
<title>Node13&#45;&gt;Node94</title>
<path fill="none" stroke="midnightblue" d="M617.16,-202.49C598.79,-189.55 570.86,-171.57 544,-161 532.22,-156.37 519.13,-152.79 506.61,-150.06"/>
<polygon fill="midnightblue" stroke="midnightblue" points="615.19,-205.39 625.36,-208.38 619.28,-199.7 615.19,-205.39"/>
</g>
<!-- Node17 -->
<g id="node17" class="node">
<title>Node17</title>
<g id="a_node17"><a xlink:href="class_c_d_b_wrapper.html#aac6220002df70f327ab09893e08902f5" target="_top" xlink:title=" ">
<polygon fill="white" stroke="black" points="161.5,-872.5 161.5,-891.5 308.5,-891.5 308.5,-872.5 161.5,-872.5"/>
<text text-anchor="middle" x="235" y="-879.5" font-family="Helvetica,sans-Serif" font-size="10.00">CDBWrapper::CDBWrapper</text>
</a>
</g>
</g>
<!-- Node16&#45;&gt;Node17 -->
<g id="edge16" class="edge">
<title>Node16&#45;&gt;Node17</title>
<path fill="none" stroke="midnightblue" d="M348.66,-878.85C335.21,-879.22 321.64,-879.6 308.81,-879.96"/>
<polygon fill="midnightblue" stroke="midnightblue" points="349.01,-882.34 358.91,-878.56 348.82,-875.34 349.01,-882.34"/>
</g>
<!-- Node19 -->
<g id="node19" class="node">
<title>Node19</title>
<g id="a_node19"><a xlink:href="struct_basic_testing_setup.html#a8684b845f50ef68c606ecf9213905b2c" target="_top" xlink:title=" ">
<polygon fill="white" stroke="black" points="0,-285 0,-315 111,-315 111,-285 0,-285"/>
<text text-anchor="start" x="8" y="-303" font-family="Helvetica,sans-Serif" font-size="10.00">BasicTestingSetup::</text>
<text text-anchor="middle" x="55.5" y="-292" font-family="Helvetica,sans-Serif" font-size="10.00">BasicTestingSetup</text>
</a>
</g>
</g>
<!-- Node18&#45;&gt;Node19 -->
<g id="edge18" class="edge">
<title>Node18&#45;&gt;Node19</title>
<path fill="none" stroke="midnightblue" d="M444.91,-552.67C431.51,-510 393.35,-407.55 323,-357 321.91,-356.22 188.77,-327.97 111.12,-311.54"/>
<polygon fill="midnightblue" stroke="midnightblue" points="441.6,-553.82 447.85,-562.38 448.3,-551.79 441.6,-553.82"/>
</g>
<!-- Node20 -->
<g id="node20" class="node">
<title>Node20</title>
<g id="a_node20"><a xlink:href="bench_2checkqueue_8cpp.html#a96f6bb751776a0e5c7e99d1d1c977dbb" target="_top" xlink:title=" ">
<polygon fill="white" stroke="black" points="147,-682.5 147,-701.5 323,-701.5 323,-682.5 147,-682.5"/>
<text text-anchor="middle" x="235" y="-689.5" font-family="Helvetica,sans-Serif" font-size="10.00">CCheckQueueSpeedPrevectorJob</text>
</a>
</g>
</g>
<!-- Node18&#45;&gt;Node20 -->
<g id="edge19" class="edge">
<title>Node18&#45;&gt;Node20</title>
<path fill="none" stroke="midnightblue" d="M434.52,-588.76C411.89,-611.46 368.2,-651.58 323,-673 314.9,-676.84 306,-679.91 297.08,-682.37"/>
<polygon fill="midnightblue" stroke="midnightblue" points="437.11,-591.11 441.61,-581.52 432.11,-586.21 437.11,-591.11"/>
</g>
<!-- Node21 -->
<g id="node21" class="node">
<title>Node21</title>
<g id="a_node21"><a xlink:href="ccoins__caching_8cpp.html#a7cfa90f8931bcd3cd2c261f996e904da" target="_top" xlink:title=" ">
<polygon fill="white" stroke="black" points="190.5,-644.5 190.5,-663.5 279.5,-663.5 279.5,-644.5 190.5,-644.5"/>
<text text-anchor="middle" x="235" y="-651.5" font-family="Helvetica,sans-Serif" font-size="10.00">CCoinsCaching</text>
</a>
</g>
</g>
<!-- Node18&#45;&gt;Node21 -->
<g id="edge20" class="edge">
<title>Node18&#45;&gt;Node21</title>
<path fill="none" stroke="midnightblue" d="M425.28,-586.76C400.12,-600.93 359.98,-622.04 323,-635 309.14,-639.86 293.58,-643.72 279.5,-646.67"/>
<polygon fill="midnightblue" stroke="midnightblue" points="427.2,-589.7 434.15,-581.7 423.73,-583.62 427.2,-589.7"/>
</g>
<!-- Node22 -->
<g id="node22" class="node">
<title>Node22</title>
<g id="a_node22"><a xlink:href="secp256k1__ecdsa__signature__parse__der__lax_8cpp.html#acb4ba76cfea14dcbc5db354e3591dd52" target="_top" xlink:title=" ">
<polygon fill="white" stroke="black" points="191.5,-606.5 191.5,-625.5 278.5,-625.5 278.5,-606.5 191.5,-606.5"/>
<text text-anchor="middle" x="235" y="-613.5" font-family="Helvetica,sans-Serif" font-size="10.00">FUZZ_TARGET</text>
</a>
</g>
</g>
<!-- Node18&#45;&gt;Node22 -->
<g id="edge21" class="edge">
<title>Node18&#45;&gt;Node22</title>
<path fill="none" stroke="midnightblue" d="M408.75,-580.56C371.2,-588.27 316.29,-599.53 278.51,-607.28"/>
<polygon fill="midnightblue" stroke="midnightblue" points="409.76,-583.93 418.85,-578.49 408.35,-577.07 409.76,-583.93"/>
</g>
<!-- Node23 -->
<g id="node23" class="node">
<title>Node23</title>
<g id="a_node23"><a xlink:href="descriptor__parse_8cpp.html#ac8ccdb834b49ddf916b980ba24c44a1c" target="_top" xlink:title=" ">
<polygon fill="white" stroke="black" points="178.5,-557 178.5,-587 291.5,-587 291.5,-557 178.5,-557"/>
<text text-anchor="start" x="186.5" y="-575" font-family="Helvetica,sans-Serif" font-size="10.00">initialize_descriptor</text>
<text text-anchor="middle" x="235" y="-564" font-family="Helvetica,sans-Serif" font-size="10.00">_parse</text>
</a>
</g>
</g>
<!-- Node18&#45;&gt;Node23 -->
<g id="edge22" class="edge">
<title>Node18&#45;&gt;Node23</title>
<path fill="none" stroke="midnightblue" d="M408.51,-572C375.1,-572 328.05,-572 291.52,-572"/>
<polygon fill="midnightblue" stroke="midnightblue" points="408.85,-575.5 418.85,-572 408.85,-568.5 408.85,-575.5"/>
</g>
<!-- Node24 -->
<g id="node24" class="node">
<title>Node24</title>
<g id="a_node24"><a xlink:href="test_2fuzz_2key_8cpp.html#a3cab216bbd0369c329b1d5c75e8e7078" target="_top" xlink:title=" ">
<polygon fill="white" stroke="black" points="194.5,-518.5 194.5,-537.5 275.5,-537.5 275.5,-518.5 194.5,-518.5"/>
<text text-anchor="middle" x="235" y="-525.5" font-family="Helvetica,sans-Serif" font-size="10.00">initialize_key</text>
</a>
</g>
</g>
<!-- Node18&#45;&gt;Node24 -->
<g id="edge23" class="edge">
<title>Node18&#45;&gt;Node24</title>
<path fill="none" stroke="midnightblue" d="M409.01,-563.49C370.55,-555.6 313.73,-543.94 275.82,-536.17"/>
<polygon fill="midnightblue" stroke="midnightblue" points="408.35,-566.93 418.85,-565.51 409.76,-560.07 408.35,-566.93"/>
</g>
<!-- Node25 -->
<g id="node25" class="node">
<title>Node25</title>
<g id="a_node25"><a xlink:href="test_2fuzz_2key__io_8cpp.html#af0255247657a4f2787b3bbe601fe5766" target="_top" xlink:title=" ">
<polygon fill="white" stroke="black" points="187.5,-480.5 187.5,-499.5 282.5,-499.5 282.5,-480.5 187.5,-480.5"/>
<text text-anchor="middle" x="235" y="-487.5" font-family="Helvetica,sans-Serif" font-size="10.00">initialize_key_io</text>
</a>
</g>
</g>
<!-- Node18&#45;&gt;Node25 -->
<g id="edge24" class="edge">
<title>Node18&#45;&gt;Node25</title>
<path fill="none" stroke="midnightblue" d="M425.28,-557.24C400.12,-543.07 359.98,-521.96 323,-509 310.16,-504.5 295.87,-500.85 282.64,-498"/>
<polygon fill="midnightblue" stroke="midnightblue" points="423.73,-560.38 434.15,-562.3 427.2,-554.3 423.73,-560.38"/>
</g>
<!-- Node26 -->
<g id="node26" class="node">
<title>Node26</title>
<g id="a_node26"><a xlink:href="test_2fuzz_2message_8cpp.html#a97ad798be28768b5c63bddcbe7fa5b71" target="_top" xlink:title=" ">
<polygon fill="white" stroke="black" points="181,-442.5 181,-461.5 289,-461.5 289,-442.5 181,-442.5"/>
<text text-anchor="middle" x="235" y="-449.5" font-family="Helvetica,sans-Serif" font-size="10.00">initialize_message</text>
</a>
</g>
</g>
<!-- Node18&#45;&gt;Node26 -->
<g id="edge25" class="edge">
<title>Node18&#45;&gt;Node26</title>
<path fill="none" stroke="midnightblue" d="M434.52,-555.24C411.89,-532.54 368.2,-492.42 323,-471 312.52,-466.04 300.72,-462.35 289.26,-459.62"/>
<polygon fill="midnightblue" stroke="midnightblue" points="432.11,-557.79 441.61,-562.48 437.11,-552.89 432.11,-557.79"/>
</g>
<!-- Node27 -->
<g id="node27" class="node">
<title>Node27</title>
<g id="a_node27"><a xlink:href="script__sigcache_8cpp.html#abca000abd8b26528d83726777a57505e" target="_top" xlink:title=" ">
<polygon fill="white" stroke="black" points="165.5,-404.5 165.5,-423.5 304.5,-423.5 304.5,-404.5 165.5,-404.5"/>
<text text-anchor="middle" x="235" y="-411.5" font-family="Helvetica,sans-Serif" font-size="10.00">initialize_script_sigcache</text>
</a>
</g>
</g>
<!-- Node18&#45;&gt;Node27 -->
<g id="edge26" class="edge">
<title>Node18&#45;&gt;Node27</title>
<path fill="none" stroke="midnightblue" d="M439.21,-553.7C419.55,-523.48 376.03,-463.49 323,-433 316.3,-429.15 308.9,-426.07 301.32,-423.62"/>
<polygon fill="midnightblue" stroke="midnightblue" points="436.41,-555.83 444.73,-562.39 442.32,-552.07 436.41,-555.83"/>
</g>
<!-- Node28 -->
<g id="node28" class="node">
<title>Node28</title>
<g id="a_node28"><a xlink:href="script__sign_8cpp.html#add290901733b6dcf956d7ac112297250" target="_top" xlink:title=" ">
<polygon fill="white" stroke="black" points="177,-366.5 177,-385.5 293,-385.5 293,-366.5 177,-366.5"/>
<text text-anchor="middle" x="235" y="-373.5" font-family="Helvetica,sans-Serif" font-size="10.00">initialize_script_sign</text>
</a>
</g>
</g>
<!-- Node18&#45;&gt;Node28 -->
<g id="edge27" class="edge">
<title>Node18&#45;&gt;Node28</title>
<path fill="none" stroke="midnightblue" d="M442.46,-552.9C425.91,-516.06 384.38,-435.28 323,-395 314.08,-389.15 303.65,-385.07 293.17,-382.23"/>
<polygon fill="midnightblue" stroke="midnightblue" points="439.42,-554.68 446.62,-562.44 445.83,-551.88 439.42,-554.68"/>
</g>
<!-- Node29 -->
<g id="node29" class="node">
<title>Node29</title>
<g id="a_node29"><a xlink:href="bitcoin-wallet_8cpp.html#a0ddf1224851353fc92bfbff6f499fa97" target="_top" xlink:title=" ">
<polygon fill="white" stroke="black" points="214.5,-796.5 214.5,-815.5 255.5,-815.5 255.5,-796.5 214.5,-796.5"/>
<text text-anchor="middle" x="235" y="-803.5" font-family="Helvetica,sans-Serif" font-size="10.00">main</text>
</a>
</g>
</g>
<!-- Node18&#45;&gt;Node29 -->
<g id="edge28" class="edge">
<title>Node18&#45;&gt;Node29</title>
<path fill="none" stroke="midnightblue" d="M444.89,-591.31C431.46,-633.94 393.24,-736.29 323,-787 303.19,-801.3 274.7,-805.18 255.78,-806.06"/>
<polygon fill="midnightblue" stroke="midnightblue" points="448.28,-592.2 447.84,-581.61 441.58,-590.16 448.28,-592.2"/>
</g>
<!-- Node30 -->
<g id="node30" class="node">
<title>Node30</title>
<g id="a_node30"><a xlink:href="class_secp256k1_init.html#a2b66e52b456b58659cb3c4b3adab862b" target="_top" xlink:title=" ">
<polygon fill="white" stroke="black" points="154.5,-758.5 154.5,-777.5 315.5,-777.5 315.5,-758.5 154.5,-758.5"/>
<text text-anchor="middle" x="235" y="-765.5" font-family="Helvetica,sans-Serif" font-size="10.00">Secp256k1Init::Secp256k1Init</text>
</a>
</g>
</g>
<!-- Node18&#45;&gt;Node30 -->
<g id="edge29" class="edge">
<title>Node18&#45;&gt;Node30</title>
<path fill="none" stroke="midnightblue" d="M442.46,-591.1C425.91,-627.94 384.38,-708.72 323,-749 317.05,-752.9 310.44,-756.02 303.58,-758.5"/>
<polygon fill="midnightblue" stroke="midnightblue" points="445.83,-592.12 446.62,-581.56 439.42,-589.32 445.83,-592.12"/>
</g>
<!-- Node31 -->
<g id="node31" class="node">
<title>Node31</title>
<g id="a_node31"><a xlink:href="namespaceinit.html#a7321f0eb95fcb6385f34373d8bc241ff" target="_top" xlink:title=" ">
<polygon fill="white" stroke="red" points="189.5,-834.5 189.5,-853.5 280.5,-853.5 280.5,-834.5 189.5,-834.5"/>
<text text-anchor="middle" x="235" y="-841.5" font-family="Helvetica,sans-Serif" font-size="10.00">init::SetGlobals</text>
</a>
</g>
</g>
<!-- Node18&#45;&gt;Node31 -->
<g id="edge30" class="edge">
<title>Node18&#45;&gt;Node31</title>
<path fill="none" stroke="midnightblue" d="M446.62,-591.7C436.07,-639.77 402.17,-763.62 323,-825 311.03,-834.28 295.47,-839.24 280.83,-841.83"/>
<polygon fill="midnightblue" stroke="midnightblue" points="450.1,-592.17 448.72,-581.67 443.24,-590.74 450.1,-592.17"/>
</g>
<!-- Node35 -->
<g id="node32" class="node">
<title>Node35</title>
<g id="a_node32"><a xlink:href="verify__script_8cpp.html#a6984f9cb29f77b9bbd88be4405584b1f" target="_top" xlink:title=" ">
<polygon fill="white" stroke="black" points="184,-720.5 184,-739.5 286,-739.5 286,-720.5 184,-720.5"/>
<text text-anchor="middle" x="235" y="-727.5" font-family="Helvetica,sans-Serif" font-size="10.00">VerifyScriptBench</text>
</a>
</g>
</g>
<!-- Node18&#45;&gt;Node35 -->
<g id="edge31" class="edge">
<title>Node18&#45;&gt;Node35</title>
<path fill="none" stroke="midnightblue" d="M439.21,-590.3C419.55,-620.52 376.03,-680.51 323,-711 311.88,-717.4 298.82,-721.64 286.25,-724.46"/>
<polygon fill="midnightblue" stroke="midnightblue" points="442.32,-591.93 444.73,-581.61 436.41,-588.17 442.32,-591.93"/>
</g>
<!-- Node37 -->
<g id="node34" class="node">
<title>Node37</title>
<g id="a_node34"><a xlink:href="httprpc_8cpp.html#abb79ecf59b406ace367e8d55f23f726b" target="_top" xlink:title=" ">
<polygon fill="white" stroke="red" points="173.5,-290.5 173.5,-309.5 296.5,-309.5 296.5,-290.5 173.5,-290.5"/>
<text text-anchor="middle" x="235" y="-297.5" font-family="Helvetica,sans-Serif" font-size="10.00">InitRPCAuthentication</text>
</a>
</g>
</g>
<!-- Node36&#45;&gt;Node37 -->
<g id="edge33" class="edge">
<title>Node36&#45;&gt;Node37</title>
<path fill="none" stroke="midnightblue" d="M382.15,-285.01C354.71,-287.82 323.34,-291.04 296.72,-293.77"/>
<polygon fill="midnightblue" stroke="midnightblue" points="382.86,-288.46 392.45,-283.95 382.15,-281.49 382.86,-288.46"/>
</g>
<!-- Node42 -->
<g id="node36" class="node">
<title>Node42</title>
<g id="a_node36"><a xlink:href="wallet__tests_8cpp.html#a7f7c516ae4c87ad51ca350162b6e1742" target="_top" xlink:title=" ">
<polygon fill="white" stroke="red" points="211.5,-126.5 211.5,-145.5 258.5,-145.5 258.5,-126.5 211.5,-126.5"/>
<text text-anchor="middle" x="235" y="-133.5" font-family="Helvetica,sans-Serif" font-size="10.00">AddTx</text>
</a>
</g>
</g>
<!-- Node41&#45;&gt;Node42 -->
<g id="edge35" class="edge">
<title>Node41&#45;&gt;Node42</title>
<path fill="none" stroke="midnightblue" d="M399.64,-213.73C385.74,-210.93 371.17,-206.38 359,-199 337.39,-185.9 344.54,-168.21 323,-155 303.36,-142.96 277.11,-138.5 258.6,-136.87"/>
<polygon fill="midnightblue" stroke="midnightblue" points="399.14,-217.19 409.6,-215.47 400.35,-210.3 399.14,-217.19"/>
</g>
<!-- Node45 -->
<g id="node37" class="node">
<title>Node45</title>
<g id="a_node37"><a xlink:href="validation__chainstatemanager__tests_8cpp.html#a7b48fa2352b1ffcfba78744a50bac701" target="_top" xlink:title="Basic tests for ChainstateManager.">
<polygon fill="white" stroke="black" points="163.5,-88.5 163.5,-107.5 306.5,-107.5 306.5,-88.5 163.5,-88.5"/>
<text text-anchor="middle" x="235" y="-95.5" font-family="Helvetica,sans-Serif" font-size="10.00">BOOST_AUTO_TEST_CASE</text>
</a>
</g>
</g>
<!-- Node41&#45;&gt;Node45 -->
<g id="edge36" class="edge">
<title>Node41&#45;&gt;Node45</title>
<path fill="none" stroke="midnightblue" d="M399.35,-216C385.06,-213.28 370.36,-208.2 359,-199 328.07,-173.94 353.8,-142.21 323,-117 318.1,-112.98 312.53,-109.77 306.64,-107.2"/>
<polygon fill="midnightblue" stroke="midnightblue" points="399.2,-219.52 409.62,-217.59 400.27,-212.6 399.2,-219.52"/>
</g>
<!-- Node46 -->
<g id="node38" class="node">
<title>Node46</title>
<g id="a_node38"><a xlink:href="classi2p_1_1sam_1_1_session.html#a4fc6965ea1de4ce9e2a7fae2c65053c1" target="_top" xlink:title="Create the session if not already created.">
<polygon fill="white" stroke="red" points="160.5,-39 160.5,-69 309.5,-69 309.5,-39 160.5,-39"/>
<text text-anchor="start" x="168.5" y="-57" font-family="Helvetica,sans-Serif" font-size="10.00">i2p::sam::Session::</text>
<text text-anchor="middle" x="235" y="-46" font-family="Helvetica,sans-Serif" font-size="10.00">CreateIfNotCreatedAlready</text>
</a>
</g>
</g>
<!-- Node41&#45;&gt;Node46 -->
<g id="edge37" class="edge">
<title>Node41&#45;&gt;Node46</title>
<path fill="none" stroke="midnightblue" d="M399.8,-217.07C385.12,-214.45 370.08,-209.16 359,-199 317.96,-161.37 362.6,-118.14 323,-79 319.09,-75.13 314.62,-71.86 309.82,-69.08"/>
<polygon fill="midnightblue" stroke="midnightblue" points="399.47,-220.56 409.86,-218.48 400.44,-213.63 399.47,-220.56"/>
</g>
<!-- Node50 -->
<g id="node39" class="node">
<title>Node50</title>
<g id="a_node39"><a xlink:href="duplicate__inputs_8cpp.html#af8758fb7709662be16084ab227b25232" target="_top" xlink:title=" ">
<polygon fill="white" stroke="black" points="188.5,-0.5 188.5,-19.5 281.5,-19.5 281.5,-0.5 188.5,-0.5"/>
<text text-anchor="middle" x="235" y="-7.5" font-family="Helvetica,sans-Serif" font-size="10.00">DuplicateInputs</text>
</a>
</g>
</g>
<!-- Node41&#45;&gt;Node50 -->
<g id="edge38" class="edge">
<title>Node41&#45;&gt;Node50</title>
<path fill="none" stroke="midnightblue" d="M399.66,-217.69C384.83,-215.12 369.74,-209.7 359,-199 304.28,-144.5 377.44,-83.78 323,-29 312.21,-18.14 296.76,-12.84 281.86,-10.42"/>
<polygon fill="midnightblue" stroke="midnightblue" points="399.46,-221.19 409.83,-219.04 400.38,-214.25 399.46,-221.19"/>
</g>
<!-- Node51 -->
<g id="node40" class="node">
<title>Node51</title>
<g id="a_node40"><a xlink:href="validation_8cpp.html#a8404f26b97eec49682f6c6b64a3c8930" target="_top" xlink:title="Initializes the script&#45;execution cache.">
<polygon fill="white" stroke="red" points="166.5,-252.5 166.5,-271.5 303.5,-271.5 303.5,-252.5 166.5,-252.5"/>
<text text-anchor="middle" x="235" y="-259.5" font-family="Helvetica,sans-Serif" font-size="10.00">InitScriptExecutionCache</text>
</a>
</g>
</g>
<!-- Node41&#45;&gt;Node51 -->
<g id="edge39" class="edge">
<title>Node41&#45;&gt;Node51</title>
<path fill="none" stroke="midnightblue" d="M399.73,-228.41C364.15,-235.71 316.97,-245.39 282.39,-252.48"/>
<polygon fill="midnightblue" stroke="midnightblue" points="400.81,-231.77 409.9,-226.33 399.4,-224.91 400.81,-231.77"/>
</g>
<!-- Node53 -->
<g id="node42" class="node">
<title>Node53</title>
<g id="a_node42"><a xlink:href="class_chainstate_manager.html#a734ccf89df9db793d6d9567a51a56419" target="_top" xlink:title="Internal helper for ActivateSnapshot().">
<polygon fill="white" stroke="red" points="153.5,-203 153.5,-233 316.5,-233 316.5,-203 153.5,-203"/>
<text text-anchor="start" x="161.5" y="-221" font-family="Helvetica,sans-Serif" font-size="10.00">ChainstateManager::</text>
<text text-anchor="middle" x="235" y="-210" font-family="Helvetica,sans-Serif" font-size="10.00">PopulateAndValidateSnapshot</text>
</a>
</g>
</g>
<!-- Node41&#45;&gt;Node53 -->
<g id="edge42" class="edge">
<title>Node41&#45;&gt;Node53</title>
<path fill="none" stroke="midnightblue" d="M399.67,-218C374.96,-218 344.65,-218 316.86,-218"/>
<polygon fill="midnightblue" stroke="midnightblue" points="399.9,-221.5 409.9,-218 399.9,-214.5 399.9,-221.5"/>
</g>
<!-- Node55 -->
<g id="node43" class="node">
<title>Node55</title>
<g id="a_node43"><a xlink:href="hashpadding_8cpp.html#a1ba8b269f0e2d2e58bbfd4356bf8a882" target="_top" xlink:title=" ">
<polygon fill="white" stroke="black" points="201,-164.5 201,-183.5 269,-183.5 269,-164.5 201,-164.5"/>
<text text-anchor="middle" x="235" y="-171.5" font-family="Helvetica,sans-Serif" font-size="10.00">PrePadded</text>
</a>
</g>
</g>
<!-- Node41&#45;&gt;Node55 -->
<g id="edge43" class="edge">
<title>Node41&#45;&gt;Node55</title>
<path fill="none" stroke="midnightblue" d="M399.97,-207.63C359.53,-199.34 303.99,-187.95 269.05,-180.78"/>
<polygon fill="midnightblue" stroke="midnightblue" points="399.4,-211.09 409.9,-209.67 400.81,-204.23 399.4,-211.09"/>
</g>
<!-- Node51&#45;&gt;Node19 -->
<g id="edge41" class="edge">
<title>Node51&#45;&gt;Node19</title>
<path fill="none" stroke="midnightblue" d="M179.19,-273.73C157.55,-278.37 132.73,-283.68 111.11,-288.31"/>
<polygon fill="midnightblue" stroke="midnightblue" points="180.16,-277.1 189.21,-271.59 178.7,-270.26 180.16,-277.1"/>
</g>
<!-- Node40 -->
<g id="node41" class="node">
<title>Node40</title>
<g id="a_node41"><a xlink:href="init_8cpp.html#ad2bfca84e560eb87fbfbe9c20f893374" target="_top" xlink:title="Bitcoin core main initialization.">
<polygon fill="white" stroke="red" points="18,-622.5 18,-641.5 93,-641.5 93,-622.5 18,-622.5"/>
<text text-anchor="middle" x="55.5" y="-629.5" font-family="Helvetica,sans-Serif" font-size="10.00">AppInitMain</text>
</a>
</g>
</g>
<!-- Node51&#45;&gt;Node40 -->
<g id="edge40" class="edge">
<title>Node51&#45;&gt;Node40</title>
<path fill="none" stroke="midnightblue" d="M157.36,-273.19C153.62,-275.4 150.13,-277.98 147,-281 95.22,-330.88 63.77,-571.36 57.62,-622.45"/>
<polygon fill="midnightblue" stroke="midnightblue" points="159.06,-276.26 166.47,-268.69 155.96,-269.98 159.06,-276.26"/>
</g>
<!-- Node150&#45;&gt;Node6 -->
<g id="edge47" class="edge">
<title>Node150&#45;&gt;Node6</title>
<path fill="none" stroke="midnightblue" d="M582.52,-972.66C555.45,-978.36 523.29,-985.12 497.73,-990.49"/>
<polygon fill="midnightblue" stroke="midnightblue" points="583.56,-976.02 592.62,-970.54 582.12,-969.17 583.56,-976.02"/>
</g>
<!-- Node151 -->
<g id="node47" class="node">
<title>Node151</title>
<g id="a_node47"><a xlink:href="class_c_key.html#a9d12ed9d297e4286250fd7ea6b59e1a5" target="_top" xlink:title="Generate a new private key using a cryptographic PRNG.">
<polygon fill="white" stroke="red" points="395,-951.5 395,-970.5 508,-970.5 508,-951.5 395,-951.5"/>
<text text-anchor="middle" x="451.5" y="-958.5" font-family="Helvetica,sans-Serif" font-size="10.00">CKey::MakeNewKey</text>
</a>
</g>
</g>
<!-- Node150&#45;&gt;Node151 -->
<g id="edge48" class="edge">
<title>Node150&#45;&gt;Node151</title>
<path fill="none" stroke="midnightblue" d="M569.73,-961C549.5,-961 527.6,-961 508.26,-961"/>
<polygon fill="midnightblue" stroke="midnightblue" points="569.82,-964.5 579.82,-961 569.82,-957.5 569.82,-964.5"/>
</g>
<!-- Node158&#45;&gt;Node40 -->
<g id="edge50" class="edge">
<title>Node158&#45;&gt;Node40</title>
<path fill="none" stroke="midnightblue" d="M579.35,-905.81C464.34,-921.76 214.53,-949.53 147,-901 58.17,-837.16 55.35,-681.75 56.16,-641.6"/>
<polygon fill="midnightblue" stroke="midnightblue" points="579.97,-909.25 589.38,-904.4 578.99,-902.32 579.97,-909.25"/>
</g>
<!-- Node159&#45;&gt;Node29 -->
<g id="edge52" class="edge">
<title>Node159&#45;&gt;Node29</title>
<path fill="none" stroke="midnightblue" d="M404.52,-830.35C358.26,-823.67 289.11,-813.68 255.6,-808.83"/>
<polygon fill="midnightblue" stroke="midnightblue" points="404.2,-833.84 414.6,-831.81 405.2,-826.92 404.2,-833.84"/>
</g>
<!-- Node159&#45;&gt;Node31 -->
<g id="edge53" class="edge">
<title>Node159&#45;&gt;Node31</title>
<path fill="none" stroke="midnightblue" d="M404.19,-838.51C367.57,-839.71 316.75,-841.36 280.58,-842.55"/>
<polygon fill="midnightblue" stroke="midnightblue" points="404.72,-842 414.6,-838.17 404.49,-835 404.72,-842"/>
</g>
<!-- Node160&#45;&gt;Node12 -->
<g id="edge55" class="edge">
<title>Node160&#45;&gt;Node12</title>
<path fill="none" stroke="midnightblue" d="M874.83,-808.29C860.98,-811.2 845.84,-814.55 832,-818 820.2,-820.94 807.32,-824.55 796.1,-827.84"/>
<polygon fill="midnightblue" stroke="midnightblue" points="875.56,-811.71 884.64,-806.26 874.14,-804.86 875.56,-811.71"/>
</g>
</g>
</svg>
