<?xml version="1.0" encoding="UTF-8" standalone="no"?>
<!DOCTYPE svg PUBLIC "-//W3C//DTD SVG 1.1//EN"
 "http://www.w3.org/Graphics/SVG/1.1/DTD/svg11.dtd">
<!-- Generated by graphviz version 2.49.3 (0)
 -->
<!-- Title: LegacyScriptPubKeyMan::ImportScripts Pages: 1 -->
<svg width="1583pt" height="568pt"
 viewBox="0.00 0.00 1583.00 567.50" xmlns="http://www.w3.org/2000/svg" xmlns:xlink="http://www.w3.org/1999/xlink">
<g id="graph0" class="graph" transform="scale(1 1) rotate(0) translate(4 563.5)">
<title>LegacyScriptPubKeyMan::ImportScripts</title>
<polygon fill="white" stroke="transparent" points="-4,4 -4,-563.5 1579,-563.5 1579,4 -4,4"/>
<!-- Node1 -->
<g id="node1" class="node">
<title>Node1</title>
<g id="a_node1"><a xlink:title=" ">
<polygon fill="#bfbfbf" stroke="black" points="0,-120.5 0,-150.5 136,-150.5 136,-120.5 0,-120.5"/>
<text text-anchor="start" x="8" y="-138.5" font-family="Helvetica,sans-Serif" font-size="10.00">LegacyScriptPubKeyMan</text>
<text text-anchor="middle" x="68" y="-127.5" font-family="Helvetica,sans-Serif" font-size="10.00">::ImportScripts</text>
</a>
</g>
</g>
<!-- Node2 -->
<g id="node2" class="node">
<title>Node2</title>
<g id="a_node2"><a xlink:href="class_legacy_script_pub_key_man.html#af9d9b050caa110157ff3c667a38ebed7" target="_top" xlink:title="Adds a script to the store and saves it to disk.">
<polygon fill="white" stroke="black" points="181.5,-186.5 181.5,-216.5 317.5,-216.5 317.5,-186.5 181.5,-186.5"/>
<text text-anchor="start" x="189.5" y="-204.5" font-family="Helvetica,sans-Serif" font-size="10.00">LegacyScriptPubKeyMan</text>
<text text-anchor="middle" x="249.5" y="-193.5" font-family="Helvetica,sans-Serif" font-size="10.00">::AddCScriptWithDB</text>
</a>
</g>
</g>
<!-- Node1&#45;&gt;Node2 -->
<g id="edge1" class="edge">
<title>Node1&#45;&gt;Node2</title>
<path fill="none" stroke="midnightblue" d="M105.49,-150.68C125.09,-158.66 149.74,-168.44 172,-176.5 178.27,-178.77 184.86,-181.06 191.43,-183.29"/>
<polygon fill="midnightblue" stroke="midnightblue" points="190.41,-186.64 201,-186.49 192.63,-180 190.41,-186.64"/>
</g>
<!-- Node46 -->
<g id="node44" class="node">
<title>Node46</title>
<g id="a_node44"><a xlink:href="class_wallet_storage.html#abb4eccf3a96417e1a527fd882d266410" target="_top" xlink:title=" ">
<polygon fill="white" stroke="black" points="172,-148 172,-167 327,-167 327,-148 172,-148"/>
<text text-anchor="middle" x="249.5" y="-155" font-family="Helvetica,sans-Serif" font-size="10.00">WalletStorage::GetDatabase</text>
</a>
</g>
</g>
<!-- Node1&#45;&gt;Node46 -->
<g id="edge48" class="edge">
<title>Node1&#45;&gt;Node46</title>
<path fill="none" stroke="midnightblue" d="M136.09,-143.72C144.47,-144.75 153.12,-145.81 161.74,-146.87"/>
<polygon fill="midnightblue" stroke="midnightblue" points="161.47,-150.36 171.82,-148.1 162.32,-143.41 161.47,-150.36"/>
</g>
<!-- Node47 -->
<g id="node45" class="node">
<title>Node47</title>
<g id="a_node45"><a xlink:href="class_fillable_signing_provider.html#abb4f73cf47a78e2e653f73955a5fee0b" target="_top" xlink:title=" ">
<polygon fill="white" stroke="black" points="185.5,-98.5 185.5,-128.5 313.5,-128.5 313.5,-98.5 185.5,-98.5"/>
<text text-anchor="start" x="193.5" y="-116.5" font-family="Helvetica,sans-Serif" font-size="10.00">FillableSigningProvider</text>
<text text-anchor="middle" x="249.5" y="-105.5" font-family="Helvetica,sans-Serif" font-size="10.00">::HaveCScript</text>
</a>
</g>
</g>
<!-- Node1&#45;&gt;Node47 -->
<g id="edge49" class="edge">
<title>Node1&#45;&gt;Node47</title>
<path fill="none" stroke="midnightblue" d="M136.09,-127.28C148.82,-125.72 162.2,-124.08 175.11,-122.49"/>
<polygon fill="midnightblue" stroke="midnightblue" points="175.85,-125.93 185.35,-121.24 175,-118.98 175.85,-125.93"/>
</g>
<!-- Node48 -->
<g id="node46" class="node">
<title>Node48</title>
<g id="a_node46"><a xlink:href="strencodings_8cpp.html#a16ace928e6a675ba31e23458c9149432" target="_top" xlink:title="Convert a span of bytes to a lower&#45;case hexadecimal string.">
<polygon fill="white" stroke="black" points="606.5,-426 606.5,-445 656.5,-445 656.5,-426 606.5,-426"/>
<text text-anchor="middle" x="631.5" y="-433" font-family="Helvetica,sans-Serif" font-size="10.00">HexStr</text>
</a>
</g>
</g>
<!-- Node1&#45;&gt;Node48 -->
<g id="edge50" class="edge">
<title>Node1&#45;&gt;Node48</title>
<path fill="none" stroke="midnightblue" d="M84.91,-150.6C104.74,-169.16 139.92,-201.29 172,-226.5 253.34,-290.41 269.52,-315.2 363,-359.5 442.39,-397.12 544.07,-419.66 596.24,-429.55"/>
<polygon fill="midnightblue" stroke="midnightblue" points="595.82,-433.03 606.3,-431.41 597.1,-426.15 595.82,-433.03"/>
</g>
<!-- Node49 -->
<g id="node47" class="node">
<title>Node49</title>
<g id="a_node47"><a xlink:href="class_legacy_script_pub_key_man.html#a228a04619c79ffb9893f43a85bfed0be" target="_top" xlink:title="Update wallet first key creation time.">
<polygon fill="white" stroke="black" points="181.5,-49.5 181.5,-79.5 317.5,-79.5 317.5,-49.5 181.5,-49.5"/>
<text text-anchor="start" x="189.5" y="-67.5" font-family="Helvetica,sans-Serif" font-size="10.00">LegacyScriptPubKeyMan</text>
<text text-anchor="middle" x="249.5" y="-56.5" font-family="Helvetica,sans-Serif" font-size="10.00">::UpdateTimeFirstKey</text>
</a>
</g>
</g>
<!-- Node1&#45;&gt;Node49 -->
<g id="edge53" class="edge">
<title>Node1&#45;&gt;Node49</title>
<path fill="none" stroke="midnightblue" d="M100.65,-120.34C120.84,-110.92 147.7,-98.87 172,-89.5 177.82,-87.26 183.93,-85.04 190.06,-82.9"/>
<polygon fill="midnightblue" stroke="midnightblue" points="191.34,-86.16 199.67,-79.62 189.07,-79.54 191.34,-86.16"/>
</g>
<!-- Node51 -->
<g id="node49" class="node">
<title>Node51</title>
<g id="a_node49"><a xlink:href="class_script_pub_key_man.html#af7c289b02d4b0eff3043c1ac4970579d" target="_top" xlink:title="Prepends the wallet name in logging output to ease debugging in multi&#45;wallet use cases.">
<polygon fill="white" stroke="black" points="172,-0.5 172,-30.5 327,-30.5 327,-0.5 172,-0.5"/>
<text text-anchor="start" x="180" y="-18.5" font-family="Helvetica,sans-Serif" font-size="10.00">ScriptPubKeyMan::WalletLog</text>
<text text-anchor="middle" x="249.5" y="-7.5" font-family="Helvetica,sans-Serif" font-size="10.00">Printf</text>
</a>
</g>
</g>
<!-- Node1&#45;&gt;Node51 -->
<g id="edge55" class="edge">
<title>Node1&#45;&gt;Node51</title>
<path fill="none" stroke="midnightblue" d="M81.76,-120.17C99.84,-99.36 134.86,-62.28 172,-40.5 175.66,-38.35 179.53,-36.36 183.51,-34.52"/>
<polygon fill="midnightblue" stroke="midnightblue" points="185.11,-37.65 192.93,-30.5 182.36,-31.21 185.11,-37.65"/>
</g>
<!-- Node3 -->
<g id="node3" class="node">
<title>Node3</title>
<g id="a_node3"><a xlink:href="class_fillable_signing_provider.html#a2f0f015db508bd559e9bf3474c7825fe" target="_top" xlink:title=" ">
<polygon fill="white" stroke="black" points="386,-142.5 386,-172.5 514,-172.5 514,-142.5 386,-142.5"/>
<text text-anchor="start" x="394" y="-160.5" font-family="Helvetica,sans-Serif" font-size="10.00">FillableSigningProvider</text>
<text text-anchor="middle" x="450" y="-149.5" font-family="Helvetica,sans-Serif" font-size="10.00">::AddCScript</text>
</a>
</g>
</g>
<!-- Node2&#45;&gt;Node3 -->
<g id="edge2" class="edge">
<title>Node2&#45;&gt;Node3</title>
<path fill="none" stroke="midnightblue" d="M317.7,-186.6C336.48,-182.44 356.96,-177.9 376.05,-173.67"/>
<polygon fill="midnightblue" stroke="midnightblue" points="376.88,-177.07 385.89,-171.49 375.37,-170.24 376.88,-177.07"/>
</g>
<!-- Node17 -->
<g id="node15" class="node">
<title>Node17</title>
<g id="a_node15"><a xlink:href="hash_8h.html#a086f67aa7715eaceb80502dc10fb19c3" target="_top" xlink:title="Compute the 160&#45;bit hash an object.">
<polygon fill="white" stroke="black" points="420.5,-331 420.5,-350 479.5,-350 479.5,-331 420.5,-331"/>
<text text-anchor="middle" x="450" y="-338" font-family="Helvetica,sans-Serif" font-size="10.00">Hash160</text>
</a>
</g>
</g>
<!-- Node2&#45;&gt;Node17 -->
<g id="edge14" class="edge">
<title>Node2&#45;&gt;Node17</title>
<path fill="none" stroke="midnightblue" d="M272.12,-216.64C310.07,-243.22 388.3,-297.99 426.71,-324.89"/>
<polygon fill="midnightblue" stroke="midnightblue" points="424.95,-327.93 435.15,-330.8 428.96,-322.2 424.95,-327.93"/>
</g>
<!-- Node42 -->
<g id="node40" class="node">
<title>Node42</title>
<g id="a_node40"><a xlink:href="class_wallet_storage.html#aacbf9d656b9e51ed4e12639cecc4874a" target="_top" xlink:title=" ">
<polygon fill="white" stroke="black" points="376.5,-93.5 376.5,-123.5 523.5,-123.5 523.5,-93.5 376.5,-93.5"/>
<text text-anchor="start" x="384.5" y="-111.5" font-family="Helvetica,sans-Serif" font-size="10.00">WalletStorage::UnsetBlank</text>
<text text-anchor="middle" x="450" y="-100.5" font-family="Helvetica,sans-Serif" font-size="10.00">WalletFlag</text>
</a>
</g>
</g>
<!-- Node2&#45;&gt;Node42 -->
<g id="edge44" class="edge">
<title>Node2&#45;&gt;Node42</title>
<path fill="none" stroke="midnightblue" d="M308.54,-186.42C315.03,-183.62 321.33,-180.34 327,-176.5 347.64,-162.53 342.13,-147.12 363,-133.5 366.11,-131.47 369.39,-129.6 372.79,-127.88"/>
<polygon fill="midnightblue" stroke="midnightblue" points="374.35,-131.01 381.98,-123.66 371.43,-124.65 374.35,-131.01"/>
</g>
<!-- Node43 -->
<g id="node41" class="node">
<title>Node43</title>
<g id="a_node41"><a xlink:href="class_wallet_batch.html#a38766ecc7e69fba0f88cdbcb2a0f3590" target="_top" xlink:title=" ">
<polygon fill="white" stroke="black" points="379,-192 379,-211 521,-211 521,-192 379,-192"/>
<text text-anchor="middle" x="450" y="-199" font-family="Helvetica,sans-Serif" font-size="10.00">WalletBatch::WriteCScript</text>
</a>
</g>
</g>
<!-- Node2&#45;&gt;Node43 -->
<g id="edge45" class="edge">
<title>Node2&#45;&gt;Node43</title>
<path fill="none" stroke="midnightblue" d="M317.7,-201.5C334,-201.5 351.59,-201.5 368.44,-201.5"/>
<polygon fill="midnightblue" stroke="midnightblue" points="368.82,-205 378.82,-201.5 368.82,-198 368.82,-205"/>
</g>
<!-- Node4 -->
<g id="node4" class="node">
<title>Node4</title>
<g id="a_node4"><a xlink:href="system_8h.html#a96c5fc7111f69f7dcaba992d95d13e03" target="_top" xlink:title=" ">
<polygon fill="white" stroke="black" points="611.5,-148 611.5,-167 651.5,-167 651.5,-148 611.5,-148"/>
<text text-anchor="middle" x="631.5" y="-155" font-family="Helvetica,sans-Serif" font-size="10.00">error</text>
</a>
</g>
</g>
<!-- Node3&#45;&gt;Node4 -->
<g id="edge3" class="edge">
<title>Node3&#45;&gt;Node4</title>
<path fill="none" stroke="midnightblue" d="M514.03,-157.5C543.64,-157.5 577.52,-157.5 601.08,-157.5"/>
<polygon fill="midnightblue" stroke="midnightblue" points="601.12,-161 611.12,-157.5 601.12,-154 601.12,-161"/>
</g>
<!-- Node15 -->
<g id="node13" class="node">
<title>Node15</title>
<g id="a_node13"><a xlink:href="classprevector.html#a626f7d206dbc24e5610631809762758b" target="_top" xlink:title=" ">
<polygon fill="white" stroke="black" points="587,-110 587,-129 676,-129 676,-110 587,-110"/>
<text text-anchor="middle" x="631.5" y="-117" font-family="Helvetica,sans-Serif" font-size="10.00">prevector::size</text>
</a>
</g>
</g>
<!-- Node3&#45;&gt;Node15 -->
<g id="edge12" class="edge">
<title>Node3&#45;&gt;Node15</title>
<path fill="none" stroke="midnightblue" d="M514.03,-144.16C534.51,-139.82 557.02,-135.06 576.75,-130.88"/>
<polygon fill="midnightblue" stroke="midnightblue" points="577.73,-134.25 586.79,-128.75 576.28,-127.4 577.73,-134.25"/>
</g>
<!-- Node5 -->
<g id="node5" class="node">
<title>Node5</title>
<g id="a_node5"><a xlink:href="namespacetinyformat.html#a05144619d8b16e2b31b2594ca9c6bf1d" target="_top" xlink:title="Format list of arguments to the stream according to given format string.">
<polygon fill="white" stroke="black" points="747,-148 747,-167 854,-167 854,-148 747,-148"/>
<text text-anchor="middle" x="800.5" y="-155" font-family="Helvetica,sans-Serif" font-size="10.00">tinyformat::format</text>
</a>
</g>
</g>
<!-- Node4&#45;&gt;Node5 -->
<g id="edge4" class="edge">
<title>Node4&#45;&gt;Node5</title>
<path fill="none" stroke="midnightblue" d="M651.66,-157.5C672.36,-157.5 706.46,-157.5 736.7,-157.5"/>
<polygon fill="midnightblue" stroke="midnightblue" points="736.78,-161 746.78,-157.5 736.78,-154 736.78,-161"/>
</g>
<!-- Node6 -->
<g id="node6" class="node">
<title>Node6</title>
<g id="a_node6"><a xlink:href="namespacetinyformat.html#aa0e1f6113d2c7d019aac703672a650bd" target="_top" xlink:title="Make type&#45;agnostic format list from list of template arguments.">
<polygon fill="white" stroke="black" points="911,-113 911,-132 1064,-132 1064,-113 911,-113"/>
<text text-anchor="middle" x="987.5" y="-120" font-family="Helvetica,sans-Serif" font-size="10.00">tinyformat::makeFormatList</text>
</a>
</g>
</g>
<!-- Node5&#45;&gt;Node6 -->
<g id="edge5" class="edge">
<title>Node5&#45;&gt;Node6</title>
<path fill="none" stroke="midnightblue" d="M852.05,-147.94C874.89,-143.61 902.06,-138.47 925.98,-133.95"/>
<polygon fill="midnightblue" stroke="midnightblue" points="926.83,-137.35 936.01,-132.05 925.53,-130.47 926.83,-137.35"/>
</g>
<!-- Node7 -->
<g id="node7" class="node">
<title>Node7</title>
<g id="a_node7"><a xlink:href="namespacetinyformat.html#a86ed74eb3ed66a662e96220d877da964" target="_top" xlink:title="Format list of arguments to the stream according to the given format string.">
<polygon fill="white" stroke="black" points="931,-151 931,-170 1044,-170 1044,-151 931,-151"/>
<text text-anchor="middle" x="987.5" y="-158" font-family="Helvetica,sans-Serif" font-size="10.00">tinyformat::vformat</text>
</a>
</g>
</g>
<!-- Node5&#45;&gt;Node7 -->
<g id="edge6" class="edge">
<title>Node5&#45;&gt;Node7</title>
<path fill="none" stroke="midnightblue" d="M854.02,-158.35C874.77,-158.69 898.84,-159.08 920.73,-159.43"/>
<polygon fill="midnightblue" stroke="midnightblue" points="920.89,-162.94 930.94,-159.6 921,-155.94 920.89,-162.94"/>
</g>
<!-- Node8 -->
<g id="node8" class="node">
<title>Node8</title>
<g id="a_node8"><a xlink:href="namespacetinyformat_1_1detail.html#a9fe547bc617c38498e58c12cce507bec" target="_top" xlink:title=" ">
<polygon fill="white" stroke="black" points="1118,-145.5 1118,-175.5 1220,-175.5 1220,-145.5 1118,-145.5"/>
<text text-anchor="start" x="1126" y="-163.5" font-family="Helvetica,sans-Serif" font-size="10.00">tinyformat::detail</text>
<text text-anchor="middle" x="1169" y="-152.5" font-family="Helvetica,sans-Serif" font-size="10.00">::formatImpl</text>
</a>
</g>
</g>
<!-- Node7&#45;&gt;Node8 -->
<g id="edge7" class="edge">
<title>Node7&#45;&gt;Node8</title>
<path fill="none" stroke="midnightblue" d="M1044.31,-160.5C1064.38,-160.5 1087.11,-160.5 1107.56,-160.5"/>
<polygon fill="midnightblue" stroke="midnightblue" points="1107.71,-164 1117.71,-160.5 1107.71,-157 1107.71,-164"/>
</g>
<!-- Node9 -->
<g id="node9" class="node">
<title>Node9</title>
<g id="a_node9"><a xlink:href="classtinyformat_1_1detail_1_1_format_arg.html#acbf435711bbe4a4da7fc81758d7108a9" target="_top" xlink:title=" ">
<polygon fill="white" stroke="black" points="1288.5,-96.5 1288.5,-126.5 1401.5,-126.5 1401.5,-96.5 1288.5,-96.5"/>
<text text-anchor="start" x="1296.5" y="-114.5" font-family="Helvetica,sans-Serif" font-size="10.00">tinyformat::detail</text>
<text text-anchor="middle" x="1345" y="-103.5" font-family="Helvetica,sans-Serif" font-size="10.00">::FormatArg::format</text>
</a>
</g>
</g>
<!-- Node8&#45;&gt;Node9 -->
<g id="edge8" class="edge">
<title>Node8&#45;&gt;Node9</title>
<path fill="none" stroke="midnightblue" d="M1220.33,-146.33C1239.13,-141.03 1260.73,-134.95 1280.57,-129.36"/>
<polygon fill="midnightblue" stroke="midnightblue" points="1281.77,-132.66 1290.45,-126.58 1279.87,-125.92 1281.77,-132.66"/>
</g>
<!-- Node10 -->
<g id="node10" class="node">
<title>Node10</title>
<g id="a_node10"><a xlink:href="namespacetinyformat_1_1detail.html#a3eb54527d28d7124a6f9fa4c1d57deed" target="_top" xlink:title=" ">
<polygon fill="white" stroke="black" points="1275.5,-194.5 1275.5,-224.5 1414.5,-224.5 1414.5,-194.5 1275.5,-194.5"/>
<text text-anchor="start" x="1283.5" y="-212.5" font-family="Helvetica,sans-Serif" font-size="10.00">tinyformat::detail</text>
<text text-anchor="middle" x="1345" y="-201.5" font-family="Helvetica,sans-Serif" font-size="10.00">::printFormatStringLiteral</text>
</a>
</g>
</g>
<!-- Node8&#45;&gt;Node10 -->
<g id="edge9" class="edge">
<title>Node8&#45;&gt;Node10</title>
<path fill="none" stroke="midnightblue" d="M1220.33,-174.67C1239.13,-179.97 1260.73,-186.05 1280.57,-191.64"/>
<polygon fill="midnightblue" stroke="midnightblue" points="1279.87,-195.08 1290.45,-194.42 1281.77,-188.34 1279.87,-195.08"/>
</g>
<!-- Node11 -->
<g id="node11" class="node">
<title>Node11</title>
<g id="a_node11"><a xlink:href="namespacetinyformat_1_1detail.html#abbdd8c3b545f996b866bd22cf6aa444c" target="_top" xlink:title=" ">
<polygon fill="white" stroke="red" points="1274,-145.5 1274,-175.5 1416,-175.5 1416,-145.5 1274,-145.5"/>
<text text-anchor="start" x="1282" y="-163.5" font-family="Helvetica,sans-Serif" font-size="10.00">tinyformat::detail</text>
<text text-anchor="middle" x="1345" y="-152.5" font-family="Helvetica,sans-Serif" font-size="10.00">::streamStateFromFormat</text>
</a>
</g>
</g>
<!-- Node8&#45;&gt;Node11 -->
<g id="edge10" class="edge">
<title>Node8&#45;&gt;Node11</title>
<path fill="none" stroke="midnightblue" d="M1220.33,-160.5C1233.87,-160.5 1248.85,-160.5 1263.59,-160.5"/>
<polygon fill="midnightblue" stroke="midnightblue" points="1263.73,-164 1273.73,-160.5 1263.73,-157 1263.73,-164"/>
</g>
<!-- Node12 -->
<g id="node12" class="node">
<title>Node12</title>
<g id="a_node12"><a xlink:href="namespacetinyformat_1_1detail.html#a67285e0adb9f4164f9fc30a3eb11c771" target="_top" xlink:title=" ">
<polygon fill="white" stroke="black" points="1452,-145.5 1452,-175.5 1575,-175.5 1575,-145.5 1452,-145.5"/>
<text text-anchor="start" x="1460" y="-163.5" font-family="Helvetica,sans-Serif" font-size="10.00">tinyformat::detail</text>
<text text-anchor="middle" x="1513.5" y="-152.5" font-family="Helvetica,sans-Serif" font-size="10.00">::parseIntAndAdvance</text>
</a>
</g>
</g>
<!-- Node11&#45;&gt;Node12 -->
<g id="edge11" class="edge">
<title>Node11&#45;&gt;Node12</title>
<path fill="none" stroke="midnightblue" d="M1416.13,-160.5C1424.6,-160.5 1433.25,-160.5 1441.72,-160.5"/>
<polygon fill="midnightblue" stroke="midnightblue" points="1441.95,-164 1451.95,-160.5 1441.95,-157 1441.95,-164"/>
</g>
<!-- Node16 -->
<g id="node14" class="node">
<title>Node16</title>
<g id="a_node14"><a xlink:href="classprevector.html#a933e204a7e29c6bbc85479d023c00ff8" target="_top" xlink:title=" ">
<polygon fill="white" stroke="black" points="745.5,-110 745.5,-129 855.5,-129 855.5,-110 745.5,-110"/>
<text text-anchor="middle" x="800.5" y="-117" font-family="Helvetica,sans-Serif" font-size="10.00">prevector::is_direct</text>
</a>
</g>
</g>
<!-- Node15&#45;&gt;Node16 -->
<g id="edge13" class="edge">
<title>Node15&#45;&gt;Node16</title>
<path fill="none" stroke="midnightblue" d="M676.38,-119.5C694.4,-119.5 715.63,-119.5 735.34,-119.5"/>
<polygon fill="midnightblue" stroke="midnightblue" points="735.48,-123 745.48,-119.5 735.48,-116 735.48,-123"/>
</g>
<!-- Node18 -->
<g id="node16" class="node">
<title>Node18</title>
<g id="a_node16"><a xlink:href="class_c_hash160.html#a36ddc2ca56965bccc4cc3de5e2e2b89a" target="_top" xlink:title=" ">
<polygon fill="white" stroke="black" points="576.5,-312 576.5,-331 686.5,-331 686.5,-312 576.5,-312"/>
<text text-anchor="middle" x="631.5" y="-319" font-family="Helvetica,sans-Serif" font-size="10.00">CHash160::Finalize</text>
</a>
</g>
</g>
<!-- Node17&#45;&gt;Node18 -->
<g id="edge15" class="edge">
<title>Node17&#45;&gt;Node18</title>
<path fill="none" stroke="midnightblue" d="M479.84,-337.45C503.07,-334.99 536.6,-331.44 566.13,-328.31"/>
<polygon fill="midnightblue" stroke="midnightblue" points="566.81,-331.76 576.39,-327.23 566.08,-324.8 566.81,-331.76"/>
</g>
<!-- Node37 -->
<g id="node35" class="node">
<title>Node37</title>
<g id="a_node35"><a xlink:href="span_8h.html#afa031115bbf9201cd1c99b59e7dd2245" target="_top" xlink:title="Like MakeSpan, but for (const) unsigned char member types only.">
<polygon fill="white" stroke="black" points="583,-502 583,-521 680,-521 680,-502 583,-502"/>
<text text-anchor="middle" x="631.5" y="-509" font-family="Helvetica,sans-Serif" font-size="10.00">MakeUCharSpan</text>
</a>
</g>
</g>
<!-- Node17&#45;&gt;Node37 -->
<g id="edge36" class="edge">
<title>Node17&#45;&gt;Node37</title>
<path fill="none" stroke="midnightblue" d="M461.17,-350.18C490.54,-378.17 575.79,-459.38 612.9,-494.73"/>
<polygon fill="midnightblue" stroke="midnightblue" points="610.79,-497.56 620.45,-501.92 615.62,-492.49 610.79,-497.56"/>
</g>
<!-- Node41 -->
<g id="node39" class="node">
<title>Node41</title>
<g id="a_node39"><a xlink:href="class_c_hash160.html#a3e1aea0cdc99f8557310432fbd3aad07" target="_top" xlink:title=" ">
<polygon fill="white" stroke="black" points="582.5,-350 582.5,-369 680.5,-369 680.5,-350 582.5,-350"/>
<text text-anchor="middle" x="631.5" y="-357" font-family="Helvetica,sans-Serif" font-size="10.00">CHash160::Write</text>
</a>
</g>
</g>
<!-- Node17&#45;&gt;Node41 -->
<g id="edge40" class="edge">
<title>Node17&#45;&gt;Node41</title>
<path fill="none" stroke="midnightblue" d="M479.84,-343.55C504.68,-346.18 541.31,-350.06 572.23,-353.33"/>
<polygon fill="midnightblue" stroke="midnightblue" points="572.16,-356.84 582.47,-354.42 572.9,-349.88 572.16,-356.84"/>
</g>
<!-- Node19 -->
<g id="node17" class="node">
<title>Node19</title>
<g id="a_node17"><a xlink:href="validation_8cpp.html#afb7ea74ba028421697aa7f364741ee6c" target="_top" xlink:title=" ">
<polygon fill="white" stroke="black" points="777,-426 777,-445 824,-445 824,-426 777,-426"/>
<text text-anchor="middle" x="800.5" y="-433" font-family="Helvetica,sans-Serif" font-size="10.00">assert</text>
</a>
</g>
</g>
<!-- Node18&#45;&gt;Node19 -->
<g id="edge16" class="edge">
<title>Node18&#45;&gt;Node19</title>
<path fill="none" stroke="midnightblue" d="M674.87,-331.03C680.36,-333.5 685.59,-336.6 690,-340.5 718.01,-365.25 697.19,-392.69 726,-416.5 737.33,-425.87 752.75,-430.68 766.53,-433.13"/>
<polygon fill="midnightblue" stroke="midnightblue" points="766.27,-436.62 776.66,-434.57 767.26,-429.69 766.27,-436.62"/>
</g>
<!-- Node20 -->
<g id="node18" class="node">
<title>Node20</title>
<g id="a_node18"><a xlink:href="class_span.html#a791cdbdc5584d3bfd062aa9244e0c57f" target="_top" xlink:title=" ">
<polygon fill="white" stroke="black" points="766.5,-312 766.5,-331 834.5,-331 834.5,-312 766.5,-312"/>
<text text-anchor="middle" x="800.5" y="-319" font-family="Helvetica,sans-Serif" font-size="10.00">Span::data</text>
</a>
</g>
</g>
<!-- Node18&#45;&gt;Node20 -->
<g id="edge17" class="edge">
<title>Node18&#45;&gt;Node20</title>
<path fill="none" stroke="midnightblue" d="M686.72,-321.5C709.31,-321.5 735.17,-321.5 756.43,-321.5"/>
<polygon fill="midnightblue" stroke="midnightblue" points="756.46,-325 766.46,-321.5 756.46,-318 756.46,-325"/>
</g>
<!-- Node21 -->
<g id="node19" class="node">
<title>Node21</title>
<g id="a_node19"><a xlink:href="class_c_r_i_p_e_m_d160.html#a2a11566fbf9d1339b819833313fc4e51" target="_top" xlink:title=" ">
<polygon fill="white" stroke="black" points="739,-236 739,-255 862,-255 862,-236 739,-236"/>
<text text-anchor="middle" x="800.5" y="-243" font-family="Helvetica,sans-Serif" font-size="10.00">CRIPEMD160::Finalize</text>
</a>
</g>
</g>
<!-- Node18&#45;&gt;Node21 -->
<g id="edge18" class="edge">
<title>Node18&#45;&gt;Node21</title>
<path fill="none" stroke="midnightblue" d="M647.59,-311.92C665.7,-300.7 697.23,-282.06 726,-269.5 735.5,-265.35 745.96,-261.52 755.94,-258.2"/>
<polygon fill="midnightblue" stroke="midnightblue" points="757.26,-261.45 765.7,-255.04 755.11,-254.79 757.26,-261.45"/>
</g>
<!-- Node22 -->
<g id="node20" class="node">
<title>Node22</title>
<g id="a_node20"><a xlink:href="class_c_r_i_p_e_m_d160.html#a221143b9d94af623d07c4f4ba1bf6007" target="_top" xlink:title=" ">
<polygon fill="white" stroke="black" points="931.5,-274 931.5,-293 1043.5,-293 1043.5,-274 931.5,-274"/>
<text text-anchor="middle" x="987.5" y="-281" font-family="Helvetica,sans-Serif" font-size="10.00">CRIPEMD160::Write</text>
</a>
</g>
</g>
<!-- Node18&#45;&gt;Node22 -->
<g id="edge35" class="edge">
<title>Node18&#45;&gt;Node22</title>
<path fill="none" stroke="midnightblue" d="M673.73,-311.94C689.94,-308.49 708.77,-304.87 726,-302.5 792.12,-293.41 868.32,-288.49 921.16,-285.95"/>
<polygon fill="midnightblue" stroke="midnightblue" points="921.57,-289.44 931.4,-285.48 921.25,-282.44 921.57,-289.44"/>
</g>
<!-- Node28 -->
<g id="node26" class="node">
<title>Node28</title>
<g id="a_node26"><a xlink:href="class_c_s_h_a256.html#a4259230be0caefa590bc324fc12b9b90" target="_top" xlink:title=" ">
<polygon fill="white" stroke="black" points="748,-388 748,-407 853,-407 853,-388 748,-388"/>
<text text-anchor="middle" x="800.5" y="-395" font-family="Helvetica,sans-Serif" font-size="10.00">CSHA256::Finalize</text>
</a>
</g>
</g>
<!-- Node18&#45;&gt;Node28 -->
<g id="edge25" class="edge">
<title>Node18&#45;&gt;Node28</title>
<path fill="none" stroke="midnightblue" d="M664.47,-331.05C672.88,-333.84 681.86,-337.06 690,-340.5 719.75,-353.06 752.42,-370.59 774.26,-382.88"/>
<polygon fill="midnightblue" stroke="midnightblue" points="772.78,-386.06 783.2,-387.96 776.24,-379.98 772.78,-386.06"/>
</g>
<!-- Node36 -->
<g id="node34" class="node">
<title>Node36</title>
<g id="a_node34"><a xlink:href="class_span.html#a14c28485a34145fb36bb08135ac6cf8f" target="_top" xlink:title=" ">
<polygon fill="white" stroke="black" points="767.5,-464 767.5,-483 833.5,-483 833.5,-464 767.5,-464"/>
<text text-anchor="middle" x="800.5" y="-471" font-family="Helvetica,sans-Serif" font-size="10.00">Span::size</text>
</a>
</g>
</g>
<!-- Node18&#45;&gt;Node36 -->
<g id="edge34" class="edge">
<title>Node18&#45;&gt;Node36</title>
<path fill="none" stroke="midnightblue" d="M676.53,-331.05C681.51,-333.51 686.16,-336.61 690,-340.5 727.32,-378.32 687.45,-417.94 726,-454.5 734.51,-462.57 745.97,-467.32 757.32,-470.09"/>
<polygon fill="midnightblue" stroke="midnightblue" points="756.69,-473.54 767.18,-472.05 758.05,-466.67 756.69,-473.54"/>
</g>
<!-- Node21&#45;&gt;Node22 -->
<g id="edge19" class="edge">
<title>Node21&#45;&gt;Node22</title>
<path fill="none" stroke="midnightblue" d="M848.18,-255.09C873.15,-260.22 904.06,-266.57 930.33,-271.96"/>
<polygon fill="midnightblue" stroke="midnightblue" points="929.65,-275.4 940.15,-273.98 931.06,-268.54 929.65,-275.4"/>
</g>
<!-- Node24 -->
<g id="node22" class="node">
<title>Node24</title>
<g id="a_node22"><a xlink:href="crypto_2common_8h.html#ab23d5d245f265908700af234252b751f" target="_top" xlink:title=" ">
<polygon fill="white" stroke="black" points="954.5,-198 954.5,-217 1020.5,-217 1020.5,-198 954.5,-198"/>
<text text-anchor="middle" x="987.5" y="-205" font-family="Helvetica,sans-Serif" font-size="10.00">WriteLE32</text>
</a>
</g>
</g>
<!-- Node21&#45;&gt;Node24 -->
<g id="edge21" class="edge">
<title>Node21&#45;&gt;Node24</title>
<path fill="none" stroke="midnightblue" d="M848.18,-235.91C877.74,-229.84 915.64,-222.06 944.29,-216.17"/>
<polygon fill="midnightblue" stroke="midnightblue" points="945.3,-219.54 954.39,-214.09 943.89,-212.68 945.3,-219.54"/>
</g>
<!-- Node26 -->
<g id="node24" class="node">
<title>Node26</title>
<g id="a_node24"><a xlink:href="crypto_2common_8h.html#aef646eecb56770ade3133c9e7fb041a9" target="_top" xlink:title=" ">
<polygon fill="white" stroke="black" points="954.5,-236 954.5,-255 1020.5,-255 1020.5,-236 954.5,-236"/>
<text text-anchor="middle" x="987.5" y="-243" font-family="Helvetica,sans-Serif" font-size="10.00">WriteLE64</text>
</a>
</g>
</g>
<!-- Node21&#45;&gt;Node26 -->
<g id="edge23" class="edge">
<title>Node21&#45;&gt;Node26</title>
<path fill="none" stroke="midnightblue" d="M862.08,-245.5C888.88,-245.5 919.76,-245.5 944.05,-245.5"/>
<polygon fill="midnightblue" stroke="midnightblue" points="944.37,-249 954.37,-245.5 944.37,-242 944.37,-249"/>
</g>
<!-- Node23 -->
<g id="node21" class="node">
<title>Node23</title>
<g id="a_node21"><a xlink:href="namespacesha256__shani.html#a97d2e267c87add9a1172d948e05ba471" target="_top" xlink:title=" ">
<polygon fill="white" stroke="black" points="1100,-312 1100,-331 1238,-331 1238,-312 1100,-312"/>
<text text-anchor="middle" x="1169" y="-319" font-family="Helvetica,sans-Serif" font-size="10.00">sha256_shani::Transform</text>
</a>
</g>
</g>
<!-- Node22&#45;&gt;Node23 -->
<g id="edge20" class="edge">
<title>Node22&#45;&gt;Node23</title>
<path fill="none" stroke="midnightblue" d="M1033.8,-293.09C1057.91,-298.19 1087.75,-304.51 1113.17,-309.89"/>
<polygon fill="midnightblue" stroke="midnightblue" points="1112.52,-313.33 1123.03,-311.98 1113.97,-306.48 1112.52,-313.33"/>
</g>
<!-- Node25 -->
<g id="node23" class="node">
<title>Node25</title>
<g id="a_node23"><a xlink:href="endian_8h.html#abab10181b2a9a38233ca246e1a653b5e" target="_top" xlink:title=" ">
<polygon fill="white" stroke="black" points="1142.5,-198 1142.5,-217 1195.5,-217 1195.5,-198 1142.5,-198"/>
<text text-anchor="middle" x="1169" y="-205" font-family="Helvetica,sans-Serif" font-size="10.00">htole32</text>
</a>
</g>
</g>
<!-- Node24&#45;&gt;Node25 -->
<g id="edge22" class="edge">
<title>Node24&#45;&gt;Node25</title>
<path fill="none" stroke="midnightblue" d="M1020.59,-207.5C1051.98,-207.5 1099.7,-207.5 1132.28,-207.5"/>
<polygon fill="midnightblue" stroke="midnightblue" points="1132.29,-211 1142.29,-207.5 1132.29,-204 1132.29,-211"/>
</g>
<!-- Node27 -->
<g id="node25" class="node">
<title>Node27</title>
<g id="a_node25"><a xlink:href="endian_8h.html#aac7228dc3b0fe1141e61ca04e370ad6e" target="_top" xlink:title=" ">
<polygon fill="white" stroke="black" points="1142.5,-236 1142.5,-255 1195.5,-255 1195.5,-236 1142.5,-236"/>
<text text-anchor="middle" x="1169" y="-243" font-family="Helvetica,sans-Serif" font-size="10.00">htole64</text>
</a>
</g>
</g>
<!-- Node26&#45;&gt;Node27 -->
<g id="edge24" class="edge">
<title>Node26&#45;&gt;Node27</title>
<path fill="none" stroke="midnightblue" d="M1020.59,-245.5C1051.98,-245.5 1099.7,-245.5 1132.28,-245.5"/>
<polygon fill="midnightblue" stroke="midnightblue" points="1132.29,-249 1142.29,-245.5 1132.29,-242 1132.29,-249"/>
</g>
<!-- Node29 -->
<g id="node27" class="node">
<title>Node29</title>
<g id="a_node27"><a xlink:href="class_c_s_h_a256.html#a9d7de520a562655da85349372820c883" target="_top" xlink:title=" ">
<polygon fill="white" stroke="black" points="940.5,-350 940.5,-369 1034.5,-369 1034.5,-350 940.5,-350"/>
<text text-anchor="middle" x="987.5" y="-357" font-family="Helvetica,sans-Serif" font-size="10.00">CSHA256::Write</text>
</a>
</g>
</g>
<!-- Node28&#45;&gt;Node29 -->
<g id="edge26" class="edge">
<title>Node28&#45;&gt;Node29</title>
<path fill="none" stroke="midnightblue" d="M848.18,-387.91C873.24,-382.76 904.3,-376.38 930.63,-370.98"/>
<polygon fill="midnightblue" stroke="midnightblue" points="931.38,-374.39 940.47,-368.95 929.97,-367.54 931.38,-374.39"/>
</g>
<!-- Node30 -->
<g id="node28" class="node">
<title>Node30</title>
<g id="a_node28"><a xlink:href="crypto_2common_8h.html#aa3a53ff883fd14480eb603d00123a74a" target="_top" xlink:title=" ">
<polygon fill="white" stroke="black" points="953.5,-426 953.5,-445 1021.5,-445 1021.5,-426 953.5,-426"/>
<text text-anchor="middle" x="987.5" y="-433" font-family="Helvetica,sans-Serif" font-size="10.00">WriteBE32</text>
</a>
</g>
</g>
<!-- Node28&#45;&gt;Node30 -->
<g id="edge28" class="edge">
<title>Node28&#45;&gt;Node30</title>
<path fill="none" stroke="midnightblue" d="M848.18,-407.09C877.36,-413.08 914.66,-420.74 943.18,-426.6"/>
<polygon fill="midnightblue" stroke="midnightblue" points="942.75,-430.09 953.25,-428.67 944.16,-423.23 942.75,-430.09"/>
</g>
<!-- Node33 -->
<g id="node31" class="node">
<title>Node33</title>
<g id="a_node31"><a xlink:href="crypto_2common_8h.html#ab960e95bf479af0a88a20800366b6131" target="_top" xlink:title=" ">
<polygon fill="white" stroke="black" points="953.5,-388 953.5,-407 1021.5,-407 1021.5,-388 953.5,-388"/>
<text text-anchor="middle" x="987.5" y="-395" font-family="Helvetica,sans-Serif" font-size="10.00">WriteBE64</text>
</a>
</g>
</g>
<!-- Node28&#45;&gt;Node33 -->
<g id="edge31" class="edge">
<title>Node28&#45;&gt;Node33</title>
<path fill="none" stroke="midnightblue" d="M853.03,-397.5C881.35,-397.5 916.08,-397.5 943.02,-397.5"/>
<polygon fill="midnightblue" stroke="midnightblue" points="943.3,-401 953.3,-397.5 943.3,-394 943.3,-401"/>
</g>
<!-- Node29&#45;&gt;Node23 -->
<g id="edge27" class="edge">
<title>Node29&#45;&gt;Node23</title>
<path fill="none" stroke="midnightblue" d="M1033.8,-349.91C1057.91,-344.81 1087.75,-338.49 1113.17,-333.11"/>
<polygon fill="midnightblue" stroke="midnightblue" points="1113.97,-336.52 1123.03,-331.02 1112.52,-329.67 1113.97,-336.52"/>
</g>
<!-- Node31 -->
<g id="node29" class="node">
<title>Node31</title>
<g id="a_node29"><a xlink:href="endian_8h.html#a3ca91566984b6dca7a0f6fc2694a203c" target="_top" xlink:title=" ">
<polygon fill="white" stroke="black" points="1141,-426 1141,-445 1197,-445 1197,-426 1141,-426"/>
<text text-anchor="middle" x="1169" y="-433" font-family="Helvetica,sans-Serif" font-size="10.00">htobe32</text>
</a>
</g>
</g>
<!-- Node30&#45;&gt;Node31 -->
<g id="edge29" class="edge">
<title>Node30&#45;&gt;Node31</title>
<path fill="none" stroke="midnightblue" d="M1021.84,-435.5C1052.72,-435.5 1098.58,-435.5 1130.67,-435.5"/>
<polygon fill="midnightblue" stroke="midnightblue" points="1130.99,-439 1140.99,-435.5 1130.99,-432 1130.99,-439"/>
</g>
<!-- Node32 -->
<g id="node30" class="node">
<title>Node32</title>
<g id="a_node30"><a xlink:href="byteswap_8h.html#acdd5094f58e4c6e2b0176654b7f20e1c" target="_top" xlink:title=" ">
<polygon fill="white" stroke="black" points="1312.5,-426 1312.5,-445 1377.5,-445 1377.5,-426 1312.5,-426"/>
<text text-anchor="middle" x="1345" y="-433" font-family="Helvetica,sans-Serif" font-size="10.00">bswap_32</text>
</a>
</g>
</g>
<!-- Node31&#45;&gt;Node32 -->
<g id="edge30" class="edge">
<title>Node31&#45;&gt;Node32</title>
<path fill="none" stroke="midnightblue" d="M1197.19,-435.5C1225.3,-435.5 1269.57,-435.5 1302.16,-435.5"/>
<polygon fill="midnightblue" stroke="midnightblue" points="1302.29,-439 1312.29,-435.5 1302.29,-432 1302.29,-439"/>
</g>
<!-- Node34 -->
<g id="node32" class="node">
<title>Node34</title>
<g id="a_node32"><a xlink:href="endian_8h.html#a55844e5fbe9a8ab3e9793335a16e2efc" target="_top" xlink:title=" ">
<polygon fill="white" stroke="black" points="1141,-388 1141,-407 1197,-407 1197,-388 1141,-388"/>
<text text-anchor="middle" x="1169" y="-395" font-family="Helvetica,sans-Serif" font-size="10.00">htobe64</text>
</a>
</g>
</g>
<!-- Node33&#45;&gt;Node34 -->
<g id="edge32" class="edge">
<title>Node33&#45;&gt;Node34</title>
<path fill="none" stroke="midnightblue" d="M1021.84,-397.5C1052.72,-397.5 1098.58,-397.5 1130.67,-397.5"/>
<polygon fill="midnightblue" stroke="midnightblue" points="1130.99,-401 1140.99,-397.5 1130.99,-394 1130.99,-401"/>
</g>
<!-- Node35 -->
<g id="node33" class="node">
<title>Node35</title>
<g id="a_node33"><a xlink:href="byteswap_8h.html#aaf6a6e8515061fb001505d3b9f6164e2" target="_top" xlink:title=" ">
<polygon fill="white" stroke="black" points="1312.5,-388 1312.5,-407 1377.5,-407 1377.5,-388 1312.5,-388"/>
<text text-anchor="middle" x="1345" y="-395" font-family="Helvetica,sans-Serif" font-size="10.00">bswap_64</text>
</a>
</g>
</g>
<!-- Node34&#45;&gt;Node35 -->
<g id="edge33" class="edge">
<title>Node34&#45;&gt;Node35</title>
<path fill="none" stroke="midnightblue" d="M1197.19,-397.5C1225.3,-397.5 1269.57,-397.5 1302.16,-397.5"/>
<polygon fill="midnightblue" stroke="midnightblue" points="1302.29,-401 1312.29,-397.5 1302.29,-394 1302.29,-401"/>
</g>
<!-- Node38 -->
<g id="node36" class="node">
<title>Node38</title>
<g id="a_node36"><a xlink:href="span_8h.html#ae0ff71ebba0ddb89220884bee4dec029" target="_top" xlink:title="MakeSpan for arrays:">
<polygon fill="white" stroke="black" points="767,-540 767,-559 834,-559 834,-540 767,-540"/>
<text text-anchor="middle" x="800.5" y="-547" font-family="Helvetica,sans-Serif" font-size="10.00">MakeSpan</text>
</a>
</g>
</g>
<!-- Node37&#45;&gt;Node38 -->
<g id="edge37" class="edge">
<title>Node37&#45;&gt;Node38</title>
<path fill="none" stroke="midnightblue" d="M674.64,-521.09C699.78,-526.81 731.61,-534.05 756.84,-539.79"/>
<polygon fill="midnightblue" stroke="midnightblue" points="756.33,-543.27 766.85,-542.07 757.88,-536.44 756.33,-543.27"/>
</g>
<!-- Node39 -->
<g id="node37" class="node">
<title>Node39</title>
<g id="a_node37"><a xlink:href="span_8h.html#ad104eb5c93a4f2f8b298630a2be84bb7" target="_top" xlink:title=" ">
<polygon fill="white" stroke="black" points="754.5,-502 754.5,-521 846.5,-521 846.5,-502 754.5,-502"/>
<text text-anchor="middle" x="800.5" y="-509" font-family="Helvetica,sans-Serif" font-size="10.00">UCharSpanCast</text>
</a>
</g>
</g>
<!-- Node37&#45;&gt;Node39 -->
<g id="edge38" class="edge">
<title>Node37&#45;&gt;Node39</title>
<path fill="none" stroke="midnightblue" d="M680.36,-511.5C700.23,-511.5 723.41,-511.5 744.02,-511.5"/>
<polygon fill="midnightblue" stroke="midnightblue" points="744.22,-515 754.22,-511.5 744.22,-508 744.22,-515"/>
</g>
<!-- Node40 -->
<g id="node38" class="node">
<title>Node40</title>
<g id="a_node38"><a xlink:href="span_8h.html#ad150fa0b59e38198809cfce8d0d5d11d" target="_top" xlink:title=" ">
<polygon fill="white" stroke="black" points="953.5,-502 953.5,-521 1021.5,-521 1021.5,-502 953.5,-502"/>
<text text-anchor="middle" x="987.5" y="-509" font-family="Helvetica,sans-Serif" font-size="10.00">UCharCast</text>
</a>
</g>
</g>
<!-- Node39&#45;&gt;Node40 -->
<g id="edge39" class="edge">
<title>Node39&#45;&gt;Node40</title>
<path fill="none" stroke="midnightblue" d="M846.76,-511.5C876.1,-511.5 914.11,-511.5 943.08,-511.5"/>
<polygon fill="midnightblue" stroke="midnightblue" points="943.32,-515 953.32,-511.5 943.32,-508 943.32,-515"/>
</g>
<!-- Node41&#45;&gt;Node20 -->
<g id="edge41" class="edge">
<title>Node41&#45;&gt;Node20</title>
<path fill="none" stroke="midnightblue" d="M674.64,-349.91C699.61,-344.23 731.18,-337.05 756.32,-331.32"/>
<polygon fill="midnightblue" stroke="midnightblue" points="757.34,-334.68 766.32,-329.05 755.79,-327.86 757.34,-334.68"/>
</g>
<!-- Node41&#45;&gt;Node29 -->
<g id="edge43" class="edge">
<title>Node41&#45;&gt;Node29</title>
<path fill="none" stroke="midnightblue" d="M680.61,-359.5C745.61,-359.5 861.27,-359.5 930.22,-359.5"/>
<polygon fill="midnightblue" stroke="midnightblue" points="930.46,-363 940.46,-359.5 930.46,-356 930.46,-363"/>
</g>
<!-- Node41&#45;&gt;Node36 -->
<g id="edge42" class="edge">
<title>Node41&#45;&gt;Node36</title>
<path fill="none" stroke="midnightblue" d="M642.36,-369.09C653.89,-380.34 673.49,-399.61 690,-416.5 706.26,-433.14 705.96,-442.69 726,-454.5 735.46,-460.08 746.56,-464.04 757.22,-466.84"/>
<polygon fill="midnightblue" stroke="midnightblue" points="756.7,-470.32 767.24,-469.19 758.3,-463.5 756.7,-470.32"/>
</g>
<!-- Node44 -->
<g id="node42" class="node">
<title>Node44</title>
<g id="a_node42"><a xlink:href="class_wallet_batch.html#a552eb421cff45a9ed94b1ec77e5c76c3" target="_top" xlink:title=" ">
<polygon fill="white" stroke="black" points="573,-192 573,-211 690,-211 690,-192 573,-192"/>
<text text-anchor="middle" x="631.5" y="-199" font-family="Helvetica,sans-Serif" font-size="10.00">WalletBatch::WriteIC</text>
</a>
</g>
</g>
<!-- Node43&#45;&gt;Node44 -->
<g id="edge46" class="edge">
<title>Node43&#45;&gt;Node44</title>
<path fill="none" stroke="midnightblue" d="M521.17,-201.5C534.8,-201.5 549.07,-201.5 562.63,-201.5"/>
<polygon fill="midnightblue" stroke="midnightblue" points="562.84,-205 572.84,-201.5 562.84,-198 562.84,-205"/>
</g>
<!-- Node45 -->
<g id="node43" class="node">
<title>Node45</title>
<g id="a_node43"><a xlink:href="class_wallet_database.html#ae6e41990d8dd8e4ad19780776197f29f" target="_top" xlink:title=" ">
<polygon fill="white" stroke="black" points="726,-186.5 726,-216.5 875,-216.5 875,-186.5 726,-186.5"/>
<text text-anchor="start" x="734" y="-204.5" font-family="Helvetica,sans-Serif" font-size="10.00">WalletDatabase::Increment</text>
<text text-anchor="middle" x="800.5" y="-193.5" font-family="Helvetica,sans-Serif" font-size="10.00">UpdateCounter</text>
</a>
</g>
</g>
<!-- Node44&#45;&gt;Node45 -->
<g id="edge47" class="edge">
<title>Node44&#45;&gt;Node45</title>
<path fill="none" stroke="midnightblue" d="M690.44,-201.5C698.63,-201.5 707.19,-201.5 715.75,-201.5"/>
<polygon fill="midnightblue" stroke="midnightblue" points="715.78,-205 725.78,-201.5 715.78,-198 715.78,-205"/>
</g>
<!-- Node48&#45;&gt;Node19 -->
<g id="edge51" class="edge">
<title>Node48&#45;&gt;Node19</title>
<path fill="none" stroke="midnightblue" d="M656.78,-435.5C685.72,-435.5 734.2,-435.5 766.51,-435.5"/>
<polygon fill="midnightblue" stroke="midnightblue" points="766.8,-439 776.8,-435.5 766.8,-432 766.8,-439"/>
</g>
<!-- Node48&#45;&gt;Node36 -->
<g id="edge52" class="edge">
<title>Node48&#45;&gt;Node36</title>
<path fill="none" stroke="midnightblue" d="M656.78,-441.03C683.15,-447.02 725.74,-456.72 757.55,-463.95"/>
<polygon fill="midnightblue" stroke="midnightblue" points="756.93,-467.4 767.46,-466.21 758.49,-460.58 756.93,-467.4"/>
</g>
<!-- Node50 -->
<g id="node48" class="node">
<title>Node50</title>
<g id="a_node48"><a xlink:href="validation_8cpp.html#abee2920f50f82cc5721ae2cd3f1c4f95" target="_top" xlink:title=" ">
<polygon fill="white" stroke="black" points="404,-55 404,-74 496,-74 496,-55 404,-55"/>
<text text-anchor="middle" x="450" y="-62" font-family="Helvetica,sans-Serif" font-size="10.00">AssertLockHeld</text>
</a>
</g>
</g>
<!-- Node49&#45;&gt;Node50 -->
<g id="edge54" class="edge">
<title>Node49&#45;&gt;Node50</title>
<path fill="none" stroke="midnightblue" d="M317.7,-64.5C342.39,-64.5 370.05,-64.5 393.58,-64.5"/>
<polygon fill="midnightblue" stroke="midnightblue" points="393.74,-68 403.74,-64.5 393.74,-61 393.74,-68"/>
</g>
<!-- Node52 -->
<g id="node50" class="node">
<title>Node52</title>
<g id="a_node50"><a xlink:href="class_wallet_storage.html#ad6a71e6df9a2e06b6ee708db9a3b33a3" target="_top" xlink:title=" ">
<polygon fill="white" stroke="black" points="363,-6 363,-25 537,-25 537,-6 363,-6"/>
<text text-anchor="middle" x="450" y="-13" font-family="Helvetica,sans-Serif" font-size="10.00">WalletStorage::GetDisplayName</text>
</a>
</g>
</g>
<!-- Node51&#45;&gt;Node52 -->
<g id="edge56" class="edge">
<title>Node51&#45;&gt;Node52</title>
<path fill="none" stroke="midnightblue" d="M327.25,-15.5C335.64,-15.5 344.25,-15.5 352.84,-15.5"/>
<polygon fill="midnightblue" stroke="midnightblue" points="352.89,-19 362.89,-15.5 352.89,-12 352.89,-19"/>
</g>
</g>
</svg>
