<?xml version="1.0" encoding="UTF-8" standalone="no"?>
<!DOCTYPE svg PUBLIC "-//W3C//DTD SVG 1.1//EN"
 "http://www.w3.org/Graphics/SVG/1.1/DTD/svg11.dtd">
<!-- Generated by graphviz version 2.40.1 (20161225.0304)
 -->
<!-- Title: PaymentRequestPlus::getPayTo Pages: 1 -->
<svg width="320pt" height="88pt"
 viewBox="0.00 0.00 320.00 88.00" xmlns="http://www.w3.org/2000/svg" xmlns:xlink="http://www.w3.org/1999/xlink">
<g id="graph0" class="graph" transform="scale(1 1) rotate(0) translate(4 84)">
<title>PaymentRequestPlus::getPayTo</title>
<polygon fill="#ffffff" stroke="transparent" points="-4,4 -4,-84 316,-84 316,4 -4,4"/>
<!-- Node100 -->
<g id="node1" class="node">
<title>Node100</title>
<polygon fill="#bfbfbf" stroke="#000000" points="0,-24.5 0,-54.5 112,-54.5 112,-24.5 0,-24.5"/>
<text text-anchor="start" x="8" y="-42.5" font-family="Helvetica,sans-Serif" font-size="10.00" fill="#000000">PaymentRequestPlus</text>
<text text-anchor="middle" x="56" y="-31.5" font-family="Helvetica,sans-Serif" font-size="10.00" fill="#000000">::getPayTo</text>
</g>
<!-- Node101 -->
<g id="node2" class="node">
<title>Node101</title>
<g id="a_node2"><a xlink:href="class_payment_request_plus.html#ae8186db42936c0f87377205806f3497c" target="_top" xlink:title="PaymentRequestPlus\l::PaymentRequestPlus">
<polygon fill="#ffffff" stroke="#000000" points="171,-49.5 171,-79.5 289,-79.5 289,-49.5 171,-49.5"/>
<text text-anchor="start" x="179" y="-67.5" font-family="Helvetica,sans-Serif" font-size="10.00" fill="#000000">PaymentRequestPlus</text>
<text text-anchor="middle" x="230" y="-56.5" font-family="Helvetica,sans-Serif" font-size="10.00" fill="#000000">::PaymentRequestPlus</text>
</a>
</g>
</g>
<!-- Node100&#45;&gt;Node101 -->
<g id="edge1" class="edge">
<title>Node100&#45;&gt;Node101</title>
<path fill="none" stroke="#191970" d="M122.3245,-49.0294C138.2691,-51.3203 155.1972,-53.7525 170.7937,-55.9933"/>
<polygon fill="#191970" stroke="#191970" points="122.4086,-45.5056 112.0125,-47.5478 121.413,-52.4345 122.4086,-45.5056"/>
</g>
<!-- Node102 -->
<g id="node3" class="node">
<title>Node102</title>
<g id="a_node3"><a xlink:href="class_payment_server.html#a19092e1d4d7c6eee3ec9d4390d11a092" target="_top" xlink:title="PaymentServer::processPayment\lRequest">
<polygon fill="#ffffff" stroke="#000000" points="148,-.5 148,-30.5 312,-30.5 312,-.5 148,-.5"/>
<text text-anchor="start" x="156" y="-18.5" font-family="Helvetica,sans-Serif" font-size="10.00" fill="#000000">PaymentServer::processPayment</text>
<text text-anchor="middle" x="230" y="-7.5" font-family="Helvetica,sans-Serif" font-size="10.00" fill="#000000">Request</text>
</a>
</g>
</g>
<!-- Node100&#45;&gt;Node102 -->
<g id="edge2" class="edge">
<title>Node100&#45;&gt;Node102</title>
<path fill="none" stroke="#191970" d="M122.1028,-30.3824C130.5061,-29.2233 139.186,-28.0261 147.8028,-26.8375"/>
<polygon fill="#191970" stroke="#191970" points="121.4404,-26.9405 112.0125,-31.7741 122.3969,-33.8749 121.4404,-26.9405"/>
</g>
</g>
</svg>
