<?xml version="1.0" encoding="UTF-8" standalone="no"?>
<!DOCTYPE svg PUBLIC "-//W3C//DTD SVG 1.1//EN"
 "http://www.w3.org/Graphics/SVG/1.1/DTD/svg11.dtd">
<!-- Generated by graphviz version 2.49.3 (0)
 -->
<!-- Title: QRImageWidget::copyImage Pages: 1 -->
<svg width="655pt" height="47pt"
 viewBox="0.00 0.00 655.00 47.00" xmlns="http://www.w3.org/2000/svg" xmlns:xlink="http://www.w3.org/1999/xlink">
<g id="graph0" class="graph" transform="scale(1 1) rotate(0) translate(4 43)">
<title>QRImageWidget::copyImage</title>
<polygon fill="white" stroke="transparent" points="-4,4 -4,-43 651,-43 651,4 -4,4"/>
<!-- Node1 -->
<g id="node1" class="node">
<title>Node1</title>
<g id="a_node1"><a xlink:title=" ">
<polygon fill="#bfbfbf" stroke="black" points="0,-0.5 0,-19.5 156,-19.5 156,-0.5 0,-0.5"/>
<text text-anchor="middle" x="78" y="-7.5" font-family="Helvetica,sans-Serif" font-size="10.00">QRImageWidget::copyImage</text>
</a>
</g>
</g>
<!-- Node2 -->
<g id="node2" class="node">
<title>Node2</title>
<g id="a_node2"><a xlink:href="class_q_r_image_widget.html#a717edd656c51439324a2d73e1ac694ad" target="_top" xlink:title=" ">
<polygon fill="white" stroke="black" points="192,-19.5 192,-38.5 356,-38.5 356,-19.5 192,-19.5"/>
<text text-anchor="middle" x="274" y="-26.5" font-family="Helvetica,sans-Serif" font-size="10.00">QRImageWidget::exportImage</text>
</a>
</g>
</g>
<!-- Node1&#45;&gt;Node2 -->
<g id="edge1" class="edge">
<title>Node1&#45;&gt;Node2</title>
<path fill="none" stroke="midnightblue" d="M156.23,-17.56C164.66,-18.39 173.3,-19.24 181.88,-20.08"/>
<polygon fill="midnightblue" stroke="midnightblue" points="181.61,-23.57 191.9,-21.06 182.29,-16.6 181.61,-23.57"/>
</g>
<!-- Node4 -->
<g id="node4" class="node">
<title>Node4</title>
<g id="a_node4"><a xlink:href="namespace_g_u_i_util.html#a9c9a9d1a6df1407ebb988982e369d1a3" target="_top" xlink:title="Returns true if pixmap has been set.">
<polygon fill="white" stroke="black" points="534,-0.5 534,-19.5 647,-19.5 647,-0.5 534,-0.5"/>
<text text-anchor="middle" x="590.5" y="-7.5" font-family="Helvetica,sans-Serif" font-size="10.00">GUIUtil::HasPixmap</text>
</a>
</g>
</g>
<!-- Node1&#45;&gt;Node4 -->
<g id="edge4" class="edge">
<title>Node1&#45;&gt;Node4</title>
<path fill="none" stroke="midnightblue" d="M156.26,-10C256.33,-10 429.1,-10 523.4,-10"/>
<polygon fill="midnightblue" stroke="midnightblue" points="523.66,-13.5 533.66,-10 523.66,-6.5 523.66,-13.5"/>
</g>
<!-- Node3 -->
<g id="node3" class="node">
<title>Node3</title>
<g id="a_node3"><a xlink:href="namespace_g_u_i_util.html#a0e66be941dd5d76c443e8326455278f9" target="_top" xlink:title=" ">
<polygon fill="white" stroke="black" points="392,-19.5 392,-38.5 498,-38.5 498,-19.5 392,-19.5"/>
<text text-anchor="middle" x="445" y="-26.5" font-family="Helvetica,sans-Serif" font-size="10.00">GUIUtil::GetImage</text>
</a>
</g>
</g>
<!-- Node2&#45;&gt;Node3 -->
<g id="edge2" class="edge">
<title>Node2&#45;&gt;Node3</title>
<path fill="none" stroke="midnightblue" d="M356.04,-29C364.71,-29 373.43,-29 381.83,-29"/>
<polygon fill="midnightblue" stroke="midnightblue" points="381.9,-32.5 391.9,-29 381.9,-25.5 381.9,-32.5"/>
</g>
<!-- Node3&#45;&gt;Node4 -->
<g id="edge3" class="edge">
<title>Node3&#45;&gt;Node4</title>
<path fill="none" stroke="midnightblue" d="M498.21,-22.09C506.51,-20.99 515.18,-19.84 523.74,-18.71"/>
<polygon fill="midnightblue" stroke="midnightblue" points="524.24,-22.17 533.7,-17.39 523.33,-15.23 524.24,-22.17"/>
</g>
</g>
</svg>
