<?xml version="1.0" encoding="UTF-8" standalone="no"?>
<!DOCTYPE svg PUBLIC "-//W3C//DTD SVG 1.1//EN"
 "http://www.w3.org/Graphics/SVG/1.1/DTD/svg11.dtd">
<!-- Generated by graphviz version 2.49.3 (0)
 -->
<!-- Title: Sock::operator= Pages: 1 -->
<svg width="471pt" height="28pt"
 viewBox="0.00 0.00 471.00 28.00" xmlns="http://www.w3.org/2000/svg" xmlns:xlink="http://www.w3.org/1999/xlink">
<g id="graph0" class="graph" transform="scale(1 1) rotate(0) translate(4 24)">
<title>Sock::operator=</title>
<polygon fill="white" stroke="transparent" points="-4,4 -4,-24 467,-24 467,4 -4,4"/>
<!-- Node1 -->
<g id="node1" class="node">
<title>Node1</title>
<g id="a_node1"><a xlink:title="Move assignment operator, grab the socket from another object and close ours (if set).">
<polygon fill="#bfbfbf" stroke="black" points="0,-0.5 0,-19.5 95,-19.5 95,-0.5 0,-0.5"/>
<text text-anchor="middle" x="47.5" y="-7.5" font-family="Helvetica,sans-Serif" font-size="10.00">Sock::operator=</text>
</a>
</g>
</g>
<!-- Node2 -->
<g id="node2" class="node">
<title>Node2</title>
<g id="a_node2"><a xlink:href="class_sock.html#acfdd5a8294a745c281bae1c3916d3df4" target="_top" xlink:title="Close if non&#45;empty.">
<polygon fill="white" stroke="black" points="131,-0.5 131,-19.5 205,-19.5 205,-0.5 131,-0.5"/>
<text text-anchor="middle" x="168" y="-7.5" font-family="Helvetica,sans-Serif" font-size="10.00">Sock::Reset</text>
</a>
</g>
</g>
<!-- Node1&#45;&gt;Node2 -->
<g id="edge1" class="edge">
<title>Node1&#45;&gt;Node2</title>
<path fill="none" stroke="midnightblue" d="M95.33,-10C103.61,-10 112.23,-10 120.5,-10"/>
<polygon fill="midnightblue" stroke="midnightblue" points="120.74,-13.5 130.74,-10 120.74,-6.5 120.74,-13.5"/>
</g>
<!-- Node3 -->
<g id="node3" class="node">
<title>Node3</title>
<g id="a_node3"><a xlink:href="sock_8cpp.html#aeb0961aecb19bbca063c3514b25b20c9" target="_top" xlink:title="Close socket and set hSocket to INVALID_SOCKET.">
<polygon fill="white" stroke="black" points="241,-0.5 241,-19.5 317,-19.5 317,-0.5 241,-0.5"/>
<text text-anchor="middle" x="279" y="-7.5" font-family="Helvetica,sans-Serif" font-size="10.00">CloseSocket</text>
</a>
</g>
</g>
<!-- Node2&#45;&gt;Node3 -->
<g id="edge2" class="edge">
<title>Node2&#45;&gt;Node3</title>
<path fill="none" stroke="midnightblue" d="M205.3,-10C213.4,-10 222.1,-10 230.58,-10"/>
<polygon fill="midnightblue" stroke="midnightblue" points="230.75,-13.5 240.75,-10 230.75,-6.5 230.75,-13.5"/>
</g>
<!-- Node4 -->
<g id="node4" class="node">
<title>Node4</title>
<g id="a_node4"><a xlink:href="sock_8cpp.html#a8ddb7d8d6e5b5cfabfdeea132f556977" target="_top" xlink:title="Return readable error string for a network error code.">
<polygon fill="white" stroke="black" points="353,-0.5 353,-19.5 463,-19.5 463,-0.5 353,-0.5"/>
<text text-anchor="middle" x="408" y="-7.5" font-family="Helvetica,sans-Serif" font-size="10.00">NetworkErrorString</text>
</a>
</g>
</g>
<!-- Node3&#45;&gt;Node4 -->
<g id="edge3" class="edge">
<title>Node3&#45;&gt;Node4</title>
<path fill="none" stroke="midnightblue" d="M317.08,-10C325.07,-10 333.75,-10 342.46,-10"/>
<polygon fill="midnightblue" stroke="midnightblue" points="342.65,-13.5 352.65,-10 342.65,-6.5 342.65,-13.5"/>
</g>
</g>
</svg>
