<?xml version="1.0" encoding="UTF-8" standalone="no"?>
<!DOCTYPE svg PUBLIC "-//W3C//DTD SVG 1.1//EN"
 "http://www.w3.org/Graphics/SVG/1.1/DTD/svg11.dtd">
<!-- Generated by graphviz version 2.49.3 (0)
 -->
<!-- Title: CCrypter::SetKeyFromPassphrase Pages: 1 -->
<svg width="405pt" height="192pt"
 viewBox="0.00 0.00 405.00 192.00" xmlns="http://www.w3.org/2000/svg" xmlns:xlink="http://www.w3.org/1999/xlink">
<g id="graph0" class="graph" transform="scale(1 1) rotate(0) translate(4 188)">
<title>CCrypter::SetKeyFromPassphrase</title>
<polygon fill="white" stroke="transparent" points="-4,4 -4,-188 401,-188 401,4 -4,4"/>
<!-- Node1 -->
<g id="node1" class="node">
<title>Node1</title>
<g id="a_node1"><a xlink:title=" ">
<polygon fill="#bfbfbf" stroke="black" points="218,-88.5 218,-107.5 397,-107.5 397,-88.5 218,-88.5"/>
<text text-anchor="middle" x="307.5" y="-95.5" font-family="Helvetica,sans-Serif" font-size="10.00">CCrypter::SetKeyFromPassphrase</text>
</a>
</g>
</g>
<!-- Node2 -->
<g id="node2" class="node">
<title>Node2</title>
<g id="a_node2"><a xlink:href="wallet__crypto__tests_8cpp.html#adf8fd6ed811b11c551c20f678e7f0c9b" target="_top" xlink:title=" ">
<polygon fill="white" stroke="black" points="19.5,-164.5 19.5,-183.5 162.5,-183.5 162.5,-164.5 19.5,-164.5"/>
<text text-anchor="middle" x="91" y="-171.5" font-family="Helvetica,sans-Serif" font-size="10.00">BOOST_AUTO_TEST_CASE</text>
</a>
</g>
</g>
<!-- Node1&#45;&gt;Node2 -->
<g id="edge1" class="edge">
<title>Node1&#45;&gt;Node2</title>
<path fill="none" stroke="midnightblue" d="M279.75,-112.35C255,-125.12 216.88,-143.49 182,-155 170.78,-158.7 158.52,-161.85 146.77,-164.46"/>
<polygon fill="midnightblue" stroke="midnightblue" points="281.62,-115.32 288.86,-107.59 278.38,-109.12 281.62,-115.32"/>
</g>
<!-- Node3 -->
<g id="node3" class="node">
<title>Node3</title>
<g id="a_node3"><a xlink:href="group__map_wallet.html#ga4abcec3066e7c462f4564c159fc15031" target="_top" xlink:title=" ">
<polygon fill="white" stroke="black" points="0,-126.5 0,-145.5 182,-145.5 182,-126.5 0,-126.5"/>
<text text-anchor="middle" x="91" y="-133.5" font-family="Helvetica,sans-Serif" font-size="10.00">CWallet::ChangeWalletPassphrase</text>
</a>
</g>
</g>
<!-- Node1&#45;&gt;Node3 -->
<g id="edge2" class="edge">
<title>Node1&#45;&gt;Node3</title>
<path fill="none" stroke="midnightblue" d="M242.45,-109.35C211.67,-114.8 175.2,-121.26 145.87,-126.46"/>
<polygon fill="midnightblue" stroke="midnightblue" points="243.41,-112.73 252.65,-107.54 242.19,-105.84 243.41,-112.73"/>
</g>
<!-- Node4 -->
<g id="node4" class="node">
<title>Node4</title>
<g id="a_node4"><a xlink:href="group__map_wallet.html#gab34fe5bf771619dcbe22a65f013e5469" target="_top" xlink:title=" ">
<polygon fill="white" stroke="black" points="27,-88.5 27,-107.5 155,-107.5 155,-88.5 27,-88.5"/>
<text text-anchor="middle" x="91" y="-95.5" font-family="Helvetica,sans-Serif" font-size="10.00">CWallet::EncryptWallet</text>
</a>
</g>
</g>
<!-- Node1&#45;&gt;Node4 -->
<g id="edge3" class="edge">
<title>Node1&#45;&gt;Node4</title>
<path fill="none" stroke="midnightblue" d="M207.32,-98C189.59,-98 171.57,-98 155.2,-98"/>
<polygon fill="midnightblue" stroke="midnightblue" points="207.71,-101.5 217.71,-98 207.71,-94.5 207.71,-101.5"/>
</g>
<!-- Node5 -->
<g id="node5" class="node">
<title>Node5</title>
<g id="a_node5"><a xlink:href="class_test_crypter.html#a98e2c77ec91e9861e10663cc1bf7a396" target="_top" xlink:title=" ">
<polygon fill="white" stroke="black" points="15,-39 15,-69 167,-69 167,-39 15,-39"/>
<text text-anchor="start" x="23" y="-57" font-family="Helvetica,sans-Serif" font-size="10.00">TestCrypter::TestPassphrase</text>
<text text-anchor="middle" x="91" y="-46" font-family="Helvetica,sans-Serif" font-size="10.00">Single</text>
</a>
</g>
</g>
<!-- Node1&#45;&gt;Node5 -->
<g id="edge4" class="edge">
<title>Node1&#45;&gt;Node5</title>
<path fill="none" stroke="midnightblue" d="M249.94,-86.4C224.07,-81.09 193.09,-74.74 165.44,-69.07"/>
<polygon fill="midnightblue" stroke="midnightblue" points="249.46,-89.87 259.96,-88.45 250.86,-83.01 249.46,-89.87"/>
</g>
<!-- Node6 -->
<g id="node6" class="node">
<title>Node6</title>
<g id="a_node6"><a xlink:href="group__map_wallet.html#ga4370ceeca17c1fc58c419e4cdc65b433" target="_top" xlink:title=" ">
<polygon fill="white" stroke="black" points="44,-0.5 44,-19.5 138,-19.5 138,-0.5 44,-0.5"/>
<text text-anchor="middle" x="91" y="-7.5" font-family="Helvetica,sans-Serif" font-size="10.00">CWallet::Unlock</text>
</a>
</g>
</g>
<!-- Node1&#45;&gt;Node6 -->
<g id="edge5" class="edge">
<title>Node1&#45;&gt;Node6</title>
<path fill="none" stroke="midnightblue" d="M283.7,-82.98C259.42,-67.61 219.41,-44.05 182,-30 168.06,-24.77 152.38,-20.7 138.05,-17.63"/>
<polygon fill="midnightblue" stroke="midnightblue" points="281.89,-85.98 292.2,-88.43 285.67,-80.09 281.89,-85.98"/>
</g>
</g>
</svg>
