<?xml version="1.0" encoding="UTF-8" standalone="no"?>
<!DOCTYPE svg PUBLIC "-//W3C//DTD SVG 1.1//EN"
 "http://www.w3.org/Graphics/SVG/1.1/DTD/svg11.dtd">
<!-- Generated by graphviz version 2.40.1 (20161225.0304)
 -->
<!-- Title: WalletModel::balanceChanged Pages: 1 -->
<svg width="661pt" height="39pt"
 viewBox="0.00 0.00 661.00 39.00" xmlns="http://www.w3.org/2000/svg" xmlns:xlink="http://www.w3.org/1999/xlink">
<g id="graph0" class="graph" transform="scale(1 1) rotate(0) translate(4 35)">
<title>WalletModel::balanceChanged</title>
<polygon fill="#ffffff" stroke="transparent" points="-4,4 -4,-35 657,-35 657,4 -4,4"/>
<!-- Node44 -->
<g id="node1" class="node">
<title>Node44</title>
<polygon fill="#bfbfbf" stroke="#000000" points="0,-6 0,-25 149,-25 149,-6 0,-6"/>
<text text-anchor="middle" x="74.5" y="-13" font-family="Helvetica,sans-Serif" font-size="10.00" fill="#000000">WalletModel::balanceChanged</text>
</g>
<!-- Node45 -->
<g id="node2" class="node">
<title>Node45</title>
<g id="a_node2"><a xlink:href="class_wallet_model.html#ac17d3b5309bd43b60c7538ec0807f2c6" target="_top" xlink:title="WalletModel::checkBalance\lChanged">
<polygon fill="#ffffff" stroke="#000000" points="185,-.5 185,-30.5 323,-30.5 323,-.5 185,-.5"/>
<text text-anchor="start" x="193" y="-18.5" font-family="Helvetica,sans-Serif" font-size="10.00" fill="#000000">WalletModel::checkBalance</text>
<text text-anchor="middle" x="254" y="-7.5" font-family="Helvetica,sans-Serif" font-size="10.00" fill="#000000">Changed</text>
</a>
</g>
</g>
<!-- Node44&#45;&gt;Node45 -->
<g id="edge1" class="edge">
<title>Node44&#45;&gt;Node45</title>
<path fill="none" stroke="#191970" d="M159.1285,-15.5C167.7422,-15.5 176.4191,-15.5 184.8403,-15.5"/>
<polygon fill="#191970" stroke="#191970" points="159.0648,-12.0001 149.0647,-15.5 159.0647,-19.0001 159.0648,-12.0001"/>
</g>
<!-- Node46 -->
<g id="node3" class="node">
<title>Node46</title>
<g id="a_node3"><a xlink:href="class_wallet_model.html#a51469b2d95cfd4bc0a14ee456fca7b95" target="_top" xlink:title="WalletModel::pollBalance\lChanged">
<polygon fill="#ffffff" stroke="#000000" points="359,-.5 359,-30.5 486,-30.5 486,-.5 359,-.5"/>
<text text-anchor="start" x="367" y="-18.5" font-family="Helvetica,sans-Serif" font-size="10.00" fill="#000000">WalletModel::pollBalance</text>
<text text-anchor="middle" x="422.5" y="-7.5" font-family="Helvetica,sans-Serif" font-size="10.00" fill="#000000">Changed</text>
</a>
</g>
</g>
<!-- Node45&#45;&gt;Node46 -->
<g id="edge2" class="edge">
<title>Node45&#45;&gt;Node46</title>
<path fill="none" stroke="#191970" d="M333.0671,-15.5C341.6711,-15.5 350.3475,-15.5 358.7354,-15.5"/>
<polygon fill="#191970" stroke="#191970" points="333.0216,-12.0001 323.0216,-15.5 333.0215,-19.0001 333.0216,-12.0001"/>
</g>
<!-- Node47 -->
<g id="node4" class="node">
<title>Node47</title>
<g id="a_node4"><a xlink:href="class_wallet_model.html#ac0d2832c06b91e9f0aecb2c7d45fce81" target="_top" xlink:title="WalletModel::WalletModel">
<polygon fill="#ffffff" stroke="#000000" points="522,-6 522,-25 653,-25 653,-6 522,-6"/>
<text text-anchor="middle" x="587.5" y="-13" font-family="Helvetica,sans-Serif" font-size="10.00" fill="#000000">WalletModel::WalletModel</text>
</a>
</g>
</g>
<!-- Node46&#45;&gt;Node47 -->
<g id="edge3" class="edge">
<title>Node46&#45;&gt;Node47</title>
<path fill="none" stroke="#191970" d="M496.5464,-15.5C505.021,-15.5 513.6159,-15.5 521.9682,-15.5"/>
<polygon fill="#191970" stroke="#191970" points="496.2933,-12.0001 486.2933,-15.5 496.2933,-19.0001 496.2933,-12.0001"/>
</g>
</g>
</svg>
