<?xml version="1.0" encoding="UTF-8" standalone="no"?>
<!DOCTYPE svg PUBLIC "-//W3C//DTD SVG 1.1//EN"
 "http://www.w3.org/Graphics/SVG/1.1/DTD/svg11.dtd">
<!-- Generated by graphviz version 2.38.0 (20140413.2041)
 -->
<!-- Title: BerkeleyEnvironment::Directory Pages: 1 -->
<svg width="952pt" height="142pt"
 viewBox="0.00 0.00 952.00 142.00" xmlns="http://www.w3.org/2000/svg" xmlns:xlink="http://www.w3.org/1999/xlink">
<g id="graph0" class="graph" transform="scale(1 1) rotate(0) translate(4 138)">
<title>BerkeleyEnvironment::Directory</title>
<polygon fill="white" stroke="none" points="-4,4 -4,-138 948,-138 948,4 -4,4"/>
<!-- Node1 -->
<g id="node1" class="node"><title>Node1</title>
<polygon fill="#bfbfbf" stroke="black" points="0,-52 0,-82 119,-82 119,-52 0,-52"/>
<text text-anchor="start" x="8" y="-70" font-family="Helvetica,sans-Serif" font-size="10.00">BerkeleyEnvironment</text>
<text text-anchor="middle" x="59.5" y="-59" font-family="Helvetica,sans-Serif" font-size="10.00">::Directory</text>
</g>
<!-- Node2 -->
<g id="node2" class="node"><title>Node2</title>
<g id="a_node2"><a xlink:href="class_berkeley_batch.html#a3fd5c230cbc516ad57eed9fed8b18454" target="_top" xlink:title="BerkeleyBatch::VerifyEnvironment">
<polygon fill="white" stroke="black" points="155,-114.5 155,-133.5 334,-133.5 334,-114.5 155,-114.5"/>
<text text-anchor="middle" x="244.5" y="-121.5" font-family="Helvetica,sans-Serif" font-size="10.00">BerkeleyBatch::VerifyEnvironment</text>
</a>
</g>
</g>
<!-- Node1&#45;&gt;Node2 -->
<g id="edge1" class="edge"><title>Node1&#45;&gt;Node2</title>
<path fill="none" stroke="midnightblue" d="M103.681,-86.17C119.598,-92.7535 137.916,-99.7733 155,-105 166.721,-108.586 179.516,-111.751 191.641,-114.418"/>
<polygon fill="midnightblue" stroke="midnightblue" points="104.688,-82.7967 94.1133,-82.1472 101.975,-89.2495 104.688,-82.7967"/>
</g>
<!-- Node8 -->
<g id="node8" class="node"><title>Node8</title>
<g id="a_node8"><a xlink:href="class_berkeley_batch.html#a7a90b43e500951e81f6c60f9ec0239f1" target="_top" xlink:title="BerkeleyBatch::VerifyDatabaseFile">
<polygon fill="white" stroke="black" points="155,-76.5 155,-95.5 334,-95.5 334,-76.5 155,-76.5"/>
<text text-anchor="middle" x="244.5" y="-83.5" font-family="Helvetica,sans-Serif" font-size="10.00">BerkeleyBatch::VerifyDatabaseFile</text>
</a>
</g>
</g>
<!-- Node1&#45;&gt;Node8 -->
<g id="edge7" class="edge"><title>Node1&#45;&gt;Node8</title>
<path fill="none" stroke="midnightblue" d="M129.215,-74.1344C137.588,-75.0037 146.233,-75.9012 154.844,-76.7953"/>
<polygon fill="midnightblue" stroke="midnightblue" points="129.465,-70.6416 119.157,-73.0901 128.743,-77.6042 129.465,-70.6416"/>
</g>
<!-- Node10 -->
<g id="node10" class="node"><title>Node10</title>
<g id="a_node10"><a xlink:href="class_berkeley_database.html#a1ed1a615fe31ee72e30087a0707b4461" target="_top" xlink:title="Back up the entire database to a file. ">
<polygon fill="white" stroke="black" points="171.5,-38.5 171.5,-57.5 317.5,-57.5 317.5,-38.5 171.5,-38.5"/>
<text text-anchor="middle" x="244.5" y="-45.5" font-family="Helvetica,sans-Serif" font-size="10.00">BerkeleyDatabase::Backup</text>
</a>
</g>
</g>
<!-- Node1&#45;&gt;Node10 -->
<g id="edge10" class="edge"><title>Node1&#45;&gt;Node10</title>
<path fill="none" stroke="midnightblue" d="M129.471,-59.8391C143.17,-58.4168 157.588,-56.9198 171.389,-55.487"/>
<polygon fill="midnightblue" stroke="midnightblue" points="128.743,-56.3958 119.157,-60.9099 129.465,-63.3584 128.743,-56.3958"/>
</g>
<!-- Node11 -->
<g id="node11" class="node"><title>Node11</title>
<g id="a_node11"><a xlink:href="class_berkeley_database.html#a103225e3af28d95103942d46cd819d4d" target="_top" xlink:title="Make sure all changes are flushed to disk. ">
<polygon fill="white" stroke="black" points="177,-0.5 177,-19.5 312,-19.5 312,-0.5 177,-0.5"/>
<text text-anchor="middle" x="244.5" y="-7.5" font-family="Helvetica,sans-Serif" font-size="10.00">BerkeleyDatabase::Flush</text>
</a>
</g>
</g>
<!-- Node1&#45;&gt;Node11 -->
<g id="edge11" class="edge"><title>Node1&#45;&gt;Node11</title>
<path fill="none" stroke="midnightblue" d="M103.681,-47.83C119.598,-41.2465 137.916,-34.2267 155,-29 166.721,-25.4139 179.516,-22.2493 191.641,-19.5821"/>
<polygon fill="midnightblue" stroke="midnightblue" points="101.975,-44.7505 94.1133,-51.8528 104.688,-51.2033 101.975,-44.7505"/>
</g>
<!-- Node3 -->
<g id="node3" class="node"><title>Node3</title>
<g id="a_node3"><a xlink:href="class_wallet_batch.html#a6cc30ea4d8aa4dcd2ad97211a5e95e10" target="_top" xlink:title="WalletBatch::VerifyEnvironment">
<polygon fill="white" stroke="black" points="370.5,-114.5 370.5,-133.5 535.5,-133.5 535.5,-114.5 370.5,-114.5"/>
<text text-anchor="middle" x="453" y="-121.5" font-family="Helvetica,sans-Serif" font-size="10.00">WalletBatch::VerifyEnvironment</text>
</a>
</g>
</g>
<!-- Node2&#45;&gt;Node3 -->
<g id="edge2" class="edge"><title>Node2&#45;&gt;Node3</title>
<path fill="none" stroke="midnightblue" d="M344.467,-124C353.18,-124 361.933,-124 370.478,-124"/>
<polygon fill="midnightblue" stroke="midnightblue" points="344.273,-120.5 334.273,-124 344.273,-127.5 344.273,-120.5"/>
</g>
<!-- Node4 -->
<g id="node4" class="node"><title>Node4</title>
<g id="a_node4"><a xlink:href="class_c_wallet.html#a698a966b418eec1727031667d6f93bcb" target="_top" xlink:title="Verify wallet naming and perform salvage on the wallet if required. ">
<polygon fill="white" stroke="black" points="572,-95.5 572,-114.5 655,-114.5 655,-95.5 572,-95.5"/>
<text text-anchor="middle" x="613.5" y="-102.5" font-family="Helvetica,sans-Serif" font-size="10.00">CWallet::Verify</text>
</a>
</g>
</g>
<!-- Node3&#45;&gt;Node4 -->
<g id="edge3" class="edge"><title>Node3&#45;&gt;Node4</title>
<path fill="none" stroke="midnightblue" d="M543.941,-113.218C553.702,-112.048 563.242,-110.905 571.956,-109.86"/>
<polygon fill="midnightblue" stroke="midnightblue" points="543.227,-109.779 533.714,-114.444 544.06,-116.729 543.227,-109.779"/>
</g>
<!-- Node5 -->
<g id="node5" class="node"><title>Node5</title>
<g id="a_node5"><a xlink:href="wallet_2wallet_8h.html#a7058e0a66c69a84d56417e0489fdce86" target="_top" xlink:title="Responsible for reading and validating the &#45;wallet arguments and verifying the wallet database...">
<polygon fill="white" stroke="black" points="697.5,-114.5 697.5,-133.5 773.5,-133.5 773.5,-114.5 697.5,-114.5"/>
<text text-anchor="middle" x="735.5" y="-121.5" font-family="Helvetica,sans-Serif" font-size="10.00">VerifyWallets</text>
</a>
</g>
</g>
<!-- Node4&#45;&gt;Node5 -->
<g id="edge4" class="edge"><title>Node4&#45;&gt;Node5</title>
<path fill="none" stroke="midnightblue" d="M665.223,-113.031C675.93,-114.726 687.041,-116.486 697.148,-118.086"/>
<polygon fill="midnightblue" stroke="midnightblue" points="665.551,-109.54 655.127,-111.433 664.456,-116.453 665.551,-109.54"/>
</g>
<!-- Node6 -->
<g id="node6" class="node"><title>Node6</title>
<g id="a_node6"><a xlink:href="rpcwallet_8cpp.html#a74b85c92ee6a84277c73b74f2e212bff" target="_top" xlink:title="listtransactions">
<polygon fill="white" stroke="black" points="691,-76.5 691,-95.5 780,-95.5 780,-76.5 691,-76.5"/>
<text text-anchor="middle" x="735.5" y="-83.5" font-family="Helvetica,sans-Serif" font-size="10.00">listtransactions</text>
</a>
</g>
</g>
<!-- Node4&#45;&gt;Node6 -->
<g id="edge5" class="edge"><title>Node4&#45;&gt;Node6</title>
<path fill="none" stroke="midnightblue" d="M665.249,-96.9647C673.688,-95.6286 682.376,-94.253 690.625,-92.9468"/>
<polygon fill="midnightblue" stroke="midnightblue" points="664.456,-93.5466 655.127,-98.5675 665.551,-100.46 664.456,-93.5466"/>
</g>
<!-- Node7 -->
<g id="node7" class="node"><title>Node7</title>
<g id="a_node7"><a xlink:href="rpcwallet_8cpp.html#afca55ac7a3c6c274b8b7b3e6eab9cd86" target="_top" xlink:title="walletcreatefundedpsbt">
<polygon fill="white" stroke="black" points="816,-76.5 816,-95.5 944,-95.5 944,-76.5 816,-76.5"/>
<text text-anchor="middle" x="880" y="-83.5" font-family="Helvetica,sans-Serif" font-size="10.00">walletcreatefundedpsbt</text>
</a>
</g>
</g>
<!-- Node6&#45;&gt;Node7 -->
<g id="edge6" class="edge"><title>Node6&#45;&gt;Node7</title>
<path fill="none" stroke="midnightblue" d="M790.066,-86C798.465,-86 807.213,-86 815.804,-86"/>
<polygon fill="midnightblue" stroke="midnightblue" points="790.029,-82.5001 780.029,-86 790.029,-89.5001 790.029,-82.5001"/>
</g>
<!-- Node9 -->
<g id="node9" class="node"><title>Node9</title>
<g id="a_node9"><a xlink:href="class_wallet_batch.html#a92563e74e5656264cfe5c5603ea230ef" target="_top" xlink:title="WalletBatch::VerifyDatabaseFile">
<polygon fill="white" stroke="black" points="370,-76.5 370,-95.5 536,-95.5 536,-76.5 370,-76.5"/>
<text text-anchor="middle" x="453" y="-83.5" font-family="Helvetica,sans-Serif" font-size="10.00">WalletBatch::VerifyDatabaseFile</text>
</a>
</g>
</g>
<!-- Node8&#45;&gt;Node9 -->
<g id="edge8" class="edge"><title>Node8&#45;&gt;Node9</title>
<path fill="none" stroke="midnightblue" d="M344.281,-86C352.835,-86 361.429,-86 369.829,-86"/>
<polygon fill="midnightblue" stroke="midnightblue" points="344.273,-82.5001 334.273,-86 344.273,-89.5001 344.273,-82.5001"/>
</g>
<!-- Node9&#45;&gt;Node4 -->
<g id="edge9" class="edge"><title>Node9&#45;&gt;Node4</title>
<path fill="none" stroke="midnightblue" d="M543.941,-96.7815C553.702,-97.9516 563.242,-99.0953 571.956,-100.14"/>
<polygon fill="midnightblue" stroke="midnightblue" points="544.06,-93.2708 533.714,-95.5557 543.227,-100.221 544.06,-93.2708"/>
</g>
</g>
</svg>
