<?xml version="1.0" encoding="UTF-8" standalone="no"?>
<!DOCTYPE svg PUBLIC "-//W3C//DTD SVG 1.1//EN"
 "http://www.w3.org/Graphics/SVG/1.1/DTD/svg11.dtd">
<!-- Generated by graphviz version 2.38.0 (20140413.2041)
 -->
<!-- Title: ArgsManagerHelper::AddArgs Pages: 1 -->
<svg width="849pt" height="306pt"
 viewBox="0.00 0.00 849.00 306.31" xmlns="http://www.w3.org/2000/svg" xmlns:xlink="http://www.w3.org/1999/xlink">
<g id="graph0" class="graph" transform="scale(1 1) rotate(0) translate(4 302.31)">
<title>ArgsManagerHelper::AddArgs</title>
<polygon fill="white" stroke="none" points="-4,4 -4,-302.31 845,-302.31 845,4 -4,4"/>
<!-- Node1 -->
<g id="node1" class="node"><title>Node1</title>
<polygon fill="#bfbfbf" stroke="black" points="0,-133.5 0,-163.5 118,-163.5 118,-133.5 0,-133.5"/>
<text text-anchor="start" x="8" y="-151.5" font-family="Helvetica,sans-Serif" font-size="10.00">ArgsManagerHelper::</text>
<text text-anchor="middle" x="59" y="-140.5" font-family="Helvetica,sans-Serif" font-size="10.00">AddArgs</text>
</g>
<!-- Node2 -->
<g id="node2" class="node"><title>Node2</title>
<g id="a_node2"><a xlink:href="class_args_manager.html#a2c4b89fa1b78e03deb12f0164e13385f" target="_top" xlink:title="Return a vector of strings of the given argument. ">
<polygon fill="white" stroke="black" points="154,-139 154,-158 279,-158 279,-139 154,-139"/>
<text text-anchor="middle" x="216.5" y="-146" font-family="Helvetica,sans-Serif" font-size="10.00">ArgsManager::GetArgs</text>
</a>
</g>
</g>
<!-- Node1&#45;&gt;Node2 -->
<g id="edge1" class="edge"><title>Node1&#45;&gt;Node2</title>
<path fill="none" stroke="midnightblue" d="M128.562,-148.5C137.02,-148.5 145.625,-148.5 153.97,-148.5"/>
<polygon fill="midnightblue" stroke="midnightblue" points="128.345,-145 118.345,-148.5 128.345,-152 128.345,-145"/>
</g>
<!-- Node3 -->
<g id="node3" class="node"><title>Node3</title>
<g id="a_node3"><a xlink:href="class_default_request_handler.html#a79e399b51ea29faf9bd596165155aa11" target="_top" xlink:title="DefaultRequestHandler\l::ProcessReply">
<polygon fill="white" stroke="black" points="714,-139.5 714,-169.5 841,-169.5 841,-139.5 714,-139.5"/>
<text text-anchor="start" x="722" y="-157.5" font-family="Helvetica,sans-Serif" font-size="10.00">DefaultRequestHandler</text>
<text text-anchor="middle" x="777.5" y="-146.5" font-family="Helvetica,sans-Serif" font-size="10.00">::ProcessReply</text>
</a>
</g>
</g>
<!-- Node2&#45;&gt;Node3 -->
<g id="edge2" class="edge"><title>Node2&#45;&gt;Node3</title>
<path fill="none" stroke="midnightblue" d="M225.396,-167.344C238.84,-196.634 269.242,-252.05 315,-274.5 473.679,-352.351 688.673,-216.885 755.685,-169.761"/>
<polygon fill="midnightblue" stroke="midnightblue" points="228.588,-165.908 221.351,-158.17 222.183,-168.732 228.588,-165.908"/>
</g>
<!-- Node4 -->
<g id="node4" class="node"><title>Node4</title>
<g id="a_node4"><a xlink:href="class_c_reg_test_params.html#a52c820fd72a630b0d1599a00b45264c8" target="_top" xlink:title="CRegTestParams::UpdateVersion\lBitsParametersFromArgs">
<polygon fill="white" stroke="black" points="315,-234.5 315,-264.5 487,-264.5 487,-234.5 315,-234.5"/>
<text text-anchor="start" x="323" y="-252.5" font-family="Helvetica,sans-Serif" font-size="10.00">CRegTestParams::UpdateVersion</text>
<text text-anchor="middle" x="401" y="-241.5" font-family="Helvetica,sans-Serif" font-size="10.00">BitsParametersFromArgs</text>
</a>
</g>
</g>
<!-- Node2&#45;&gt;Node4 -->
<g id="edge3" class="edge"><title>Node2&#45;&gt;Node4</title>
<path fill="none" stroke="midnightblue" d="M234.466,-165.013C252.898,-182.119 283.895,-208.54 315,-224.5 322.39,-228.292 330.445,-231.597 338.554,-234.451"/>
<polygon fill="midnightblue" stroke="midnightblue" points="236.82,-162.421 227.149,-158.094 232.01,-167.508 236.82,-162.421"/>
</g>
<!-- Node5 -->
<g id="node5" class="node"><title>Node5</title>
<g id="a_node5"><a xlink:href="init_8h.html#a8c93f3a0ec8f251966c4de603f33e56a" target="_top" xlink:title="Initialization: parameter interaction. ">
<polygon fill="white" stroke="black" points="325.5,-196 325.5,-215 476.5,-215 476.5,-196 325.5,-196"/>
<text text-anchor="middle" x="401" y="-203" font-family="Helvetica,sans-Serif" font-size="10.00">AppInitParameterInteraction</text>
</a>
</g>
</g>
<!-- Node2&#45;&gt;Node5 -->
<g id="edge4" class="edge"><title>Node2&#45;&gt;Node5</title>
<path fill="none" stroke="midnightblue" d="M248.563,-161.999C267.508,-169.881 292.358,-179.601 315,-186.5 326.572,-190.026 339.212,-193.204 351.123,-195.907"/>
<polygon fill="midnightblue" stroke="midnightblue" points="249.811,-158.727 239.237,-158.07 247.093,-165.178 249.811,-158.727"/>
</g>
<!-- Node6 -->
<g id="node6" class="node"><title>Node6</title>
<g id="a_node6"><a xlink:href="init_8h.html#a15f6e0c217711d40a5433e55748b731d" target="_top" xlink:title="Bitcoin core main initialization. ">
<polygon fill="white" stroke="black" points="365,-158 365,-177 437,-177 437,-158 365,-158"/>
<text text-anchor="middle" x="401" y="-165" font-family="Helvetica,sans-Serif" font-size="10.00">AppInitMain</text>
</a>
</g>
</g>
<!-- Node2&#45;&gt;Node6 -->
<g id="edge5" class="edge"><title>Node2&#45;&gt;Node6</title>
<path fill="none" stroke="midnightblue" d="M289.231,-155.968C315.189,-158.67 343.358,-161.603 364.794,-163.835"/>
<polygon fill="midnightblue" stroke="midnightblue" points="289.34,-152.46 279.032,-154.906 288.616,-159.423 289.34,-152.46"/>
</g>
<!-- Node7 -->
<g id="node7" class="node"><title>Node7</title>
<g id="a_node7"><a xlink:href="class_wallet_init.html#a2598a13734915bbf831cbd28d09a65fc" target="_top" xlink:title="Wallets parameter interaction. ">
<polygon fill="white" stroke="black" points="318,-120 318,-139 484,-139 484,-120 318,-120"/>
<text text-anchor="middle" x="401" y="-127" font-family="Helvetica,sans-Serif" font-size="10.00">WalletInit::ParameterInteraction</text>
</a>
</g>
</g>
<!-- Node2&#45;&gt;Node7 -->
<g id="edge6" class="edge"><title>Node2&#45;&gt;Node7</title>
<path fill="none" stroke="midnightblue" d="M289.081,-141.048C298.467,-140.071 308.144,-139.063 317.689,-138.069"/>
<polygon fill="midnightblue" stroke="midnightblue" points="288.616,-137.577 279.032,-142.094 289.34,-144.54 288.616,-137.577"/>
</g>
<!-- Node9 -->
<g id="node9" class="node"><title>Node9</title>
<g id="a_node9"><a xlink:href="class_wallet_init.html#a6a7d62bb4e66d3ae681787d9df04b8dd" target="_top" xlink:title="Add wallets that should be opened to list of init interfaces. ">
<polygon fill="white" stroke="black" points="345.5,-82 345.5,-101 456.5,-101 456.5,-82 345.5,-82"/>
<text text-anchor="middle" x="401" y="-89" font-family="Helvetica,sans-Serif" font-size="10.00">WalletInit::Construct</text>
</a>
</g>
</g>
<!-- Node2&#45;&gt;Node9 -->
<g id="edge8" class="edge"><title>Node2&#45;&gt;Node9</title>
<path fill="none" stroke="midnightblue" d="M248.563,-135.001C267.508,-127.119 292.358,-117.399 315,-110.5 326.572,-106.974 339.212,-103.796 351.123,-101.093"/>
<polygon fill="midnightblue" stroke="midnightblue" points="247.093,-131.822 239.237,-138.93 249.811,-138.273 247.093,-131.822"/>
</g>
<!-- Node10 -->
<g id="node10" class="node"><title>Node10</title>
<g id="a_node10"><a xlink:href="server_8h.html#a009fe8e9bab18fcd23b9c273157d182f" target="_top" xlink:title="IsDeprecatedRPCEnabled">
<polygon fill="white" stroke="black" points="332.5,-44 332.5,-63 469.5,-63 469.5,-44 332.5,-44"/>
<text text-anchor="middle" x="401" y="-51" font-family="Helvetica,sans-Serif" font-size="10.00">IsDeprecatedRPCEnabled</text>
</a>
</g>
</g>
<!-- Node2&#45;&gt;Node10 -->
<g id="edge10" class="edge"><title>Node2&#45;&gt;Node10</title>
<path fill="none" stroke="midnightblue" d="M234.217,-131.62C252.475,-114.171 283.358,-87.4355 315,-72.5 323.205,-68.6273 332.232,-65.5262 341.247,-63.0478"/>
<polygon fill="midnightblue" stroke="midnightblue" points="231.466,-129.415 226.76,-138.907 236.358,-134.421 231.466,-129.415"/>
</g>
<!-- Node12 -->
<g id="node12" class="node"><title>Node12</title>
<g id="a_node12"><a xlink:href="class_args_manager.html#aec848fd54ace0df3df48dac446feb7d2" target="_top" xlink:title="ArgsManager::ReadConfigFiles">
<polygon fill="white" stroke="black" points="321,-6 321,-25 481,-25 481,-6 321,-6"/>
<text text-anchor="middle" x="401" y="-13" font-family="Helvetica,sans-Serif" font-size="10.00">ArgsManager::ReadConfigFiles</text>
</a>
</g>
</g>
<!-- Node2&#45;&gt;Node12 -->
<g id="edge12" class="edge"><title>Node2&#45;&gt;Node12</title>
<path fill="none" stroke="midnightblue" d="M228.015,-129.955C243.575,-104.295 275.226,-58.4274 315,-34.5 321.479,-30.6026 328.669,-27.5028 336.046,-25.0377"/>
<polygon fill="midnightblue" stroke="midnightblue" points="224.916,-128.319 222.856,-138.712 230.948,-131.872 224.916,-128.319"/>
</g>
<!-- Node8 -->
<g id="node8" class="node"><title>Node8</title>
<g id="a_node8"><a xlink:href="class_wallet_init.html#ae7a01f085f3d6c05fc97d910a7159fd8" target="_top" xlink:title="Was the wallet component compiled in. ">
<polygon fill="white" stroke="black" points="526,-110 526,-129 675,-129 675,-110 526,-110"/>
<text text-anchor="middle" x="600.5" y="-117" font-family="Helvetica,sans-Serif" font-size="10.00">WalletInit::HasWalletSupport</text>
</a>
</g>
</g>
<!-- Node7&#45;&gt;Node8 -->
<g id="edge7" class="edge"><title>Node7&#45;&gt;Node8</title>
<path fill="none" stroke="midnightblue" d="M494.193,-124.832C504.83,-124.293 515.569,-123.75 525.913,-123.226"/>
<polygon fill="midnightblue" stroke="midnightblue" points="493.852,-121.345 484.042,-125.346 494.206,-128.336 493.852,-121.345"/>
</g>
<!-- Node9&#45;&gt;Node8 -->
<g id="edge9" class="edge"><title>Node9&#45;&gt;Node8</title>
<path fill="none" stroke="midnightblue" d="M466.852,-100.694C487.845,-103.67 511.164,-106.976 532.322,-109.976"/>
<polygon fill="midnightblue" stroke="midnightblue" points="467.145,-97.2008 456.752,-99.2624 466.162,-104.131 467.145,-97.2008"/>
</g>
<!-- Node11 -->
<g id="node11" class="node"><title>Node11</title>
<g id="a_node11"><a xlink:href="class_describe_wallet_address_visitor.html#ac97f51f2fed922f29efe84df174fc73f" target="_top" xlink:title="DescribeWalletAddressVisitor\l::operator()">
<polygon fill="white" stroke="black" points="523,-49.5 523,-79.5 678,-79.5 678,-49.5 523,-49.5"/>
<text text-anchor="start" x="531" y="-67.5" font-family="Helvetica,sans-Serif" font-size="10.00">DescribeWalletAddressVisitor</text>
<text text-anchor="middle" x="600.5" y="-56.5" font-family="Helvetica,sans-Serif" font-size="10.00">::operator()</text>
</a>
</g>
</g>
<!-- Node10&#45;&gt;Node11 -->
<g id="edge11" class="edge"><title>Node10&#45;&gt;Node11</title>
<path fill="none" stroke="midnightblue" d="M479.843,-57.8356C493.953,-58.6214 508.659,-59.4405 522.738,-60.2246"/>
<polygon fill="midnightblue" stroke="midnightblue" points="479.871,-54.3318 469.692,-57.2702 479.482,-61.321 479.871,-54.3318"/>
</g>
<!-- Node13 -->
<g id="node13" class="node"><title>Node13</title>
<g id="a_node13"><a xlink:href="class_c_connection_failed.html#abcc9db4386ec901f5159c44d939c82c5" target="_top" xlink:title="CConnectionFailed::\lCConnectionFailed">
<polygon fill="white" stroke="black" points="545.5,-0.5 545.5,-30.5 655.5,-30.5 655.5,-0.5 545.5,-0.5"/>
<text text-anchor="start" x="553.5" y="-18.5" font-family="Helvetica,sans-Serif" font-size="10.00">CConnectionFailed::</text>
<text text-anchor="middle" x="600.5" y="-7.5" font-family="Helvetica,sans-Serif" font-size="10.00">CConnectionFailed</text>
</a>
</g>
</g>
<!-- Node12&#45;&gt;Node13 -->
<g id="edge13" class="edge"><title>Node12&#45;&gt;Node13</title>
<path fill="none" stroke="midnightblue" d="M491.382,-15.5C509.835,-15.5 528.728,-15.5 545.453,-15.5"/>
<polygon fill="midnightblue" stroke="midnightblue" points="491.193,-12.0001 481.193,-15.5 491.193,-19.0001 491.193,-12.0001"/>
</g>
<!-- Node13&#45;&gt;Node3 -->
<g id="edge14" class="edge"><title>Node13&#45;&gt;Node3</title>
<path fill="none" stroke="midnightblue" d="M664.998,-32.2722C669.541,-34.4145 673.93,-36.8144 678,-39.5 718.811,-66.4291 752.316,-114.935 767.588,-139.448"/>
<polygon fill="midnightblue" stroke="midnightblue" points="666.077,-28.9276 655.505,-28.2279 663.333,-35.3675 666.077,-28.9276"/>
</g>
</g>
</svg>
