<?xml version="1.0" encoding="UTF-8" standalone="no"?>
<!DOCTYPE svg PUBLIC "-//W3C//DTD SVG 1.1//EN"
 "http://www.w3.org/Graphics/SVG/1.1/DTD/svg11.dtd">
<!-- Generated by graphviz version 2.38.0 (20140413.2041)
 -->
<!-- Title: CCoinsViewDB::Upgrade Pages: 1 -->
<svg width="1174pt" height="1104pt"
 viewBox="0.00 0.00 1174.00 1104.00" xmlns="http://www.w3.org/2000/svg" xmlns:xlink="http://www.w3.org/1999/xlink">
<g id="graph0" class="graph" transform="scale(1 1) rotate(0) translate(4 1100)">
<title>CCoinsViewDB::Upgrade</title>
<polygon fill="white" stroke="none" points="-4,4 -4,-1100 1170,-1100 1170,4 -4,4"/>
<!-- Node1 -->
<g id="node1" class="node"><title>Node1</title>
<polygon fill="#bfbfbf" stroke="black" points="0,-164.5 0,-183.5 133,-183.5 133,-164.5 0,-164.5"/>
<text text-anchor="middle" x="66.5" y="-171.5" font-family="Helvetica,sans-Serif" font-size="10.00">CCoinsViewDB::Upgrade</text>
</g>
<!-- Node2 -->
<g id="node2" class="node"><title>Node2</title>
<g id="a_node2"><a xlink:href="util_8h.html#aad133bb6103b53cebf03fd01e2f11ba1" target="_top" xlink:title="Translation function: Call Translate signal on UI interface, which returns a boost::optional result...">
<polygon fill="white" stroke="black" points="221.5,-1038.5 221.5,-1057.5 250.5,-1057.5 250.5,-1038.5 221.5,-1038.5"/>
<text text-anchor="middle" x="236" y="-1045.5" font-family="Helvetica,sans-Serif" font-size="10.00">_</text>
</a>
</g>
</g>
<!-- Node1&#45;&gt;Node2 -->
<g id="edge1" class="edge"><title>Node1&#45;&gt;Node2</title>
<path fill="none" stroke="midnightblue" d="M68.5434,-183.568C75.0785,-242.626 111.951,-563.448 169,-820 186.416,-898.318 215.516,-989.386 228.454,-1028.51"/>
<polygon fill="midnightblue" stroke="midnightblue" points="225.172,-1029.73 231.652,-1038.12 231.814,-1027.52 225.172,-1029.73"/>
</g>
<!-- Node5 -->
<g id="node5" class="node"><title>Node5</title>
<g id="a_node5"><a xlink:href="init_8cpp.html#a6f201ca9fe6b594f1985c12b4482ea5a" target="_top" xlink:title="ShutdownRequested">
<polygon fill="white" stroke="black" points="179,-791.5 179,-810.5 293,-810.5 293,-791.5 179,-791.5"/>
<text text-anchor="middle" x="236" y="-798.5" font-family="Helvetica,sans-Serif" font-size="10.00">ShutdownRequested</text>
</a>
</g>
</g>
<!-- Node1&#45;&gt;Node5 -->
<g id="edge4" class="edge"><title>Node1&#45;&gt;Node5</title>
<path fill="none" stroke="midnightblue" d="M69.6185,-183.784C79.6591,-229.908 123.851,-430.153 169,-592 188.644,-662.417 215.976,-744.855 228.393,-781.61"/>
<polygon fill="midnightblue" stroke="midnightblue" points="225.216,-783.14 231.742,-791.486 231.845,-780.892 225.216,-783.14"/>
</g>
<!-- Node7 -->
<g id="node7" class="node"><title>Node7</title>
<g id="a_node7"><a xlink:href="util_8h.html#a0605c886f88f190fa6a51ae07ca7558a" target="_top" xlink:title="error">
<polygon fill="white" stroke="black" points="216,-563.5 216,-582.5 256,-582.5 256,-563.5 216,-563.5"/>
<text text-anchor="middle" x="236" y="-570.5" font-family="Helvetica,sans-Serif" font-size="10.00">error</text>
</a>
</g>
</g>
<!-- Node1&#45;&gt;Node7 -->
<g id="edge6" class="edge"><title>Node1&#45;&gt;Node7</title>
<path fill="none" stroke="midnightblue" d="M71.6405,-183.863C93.6829,-236.37 197.351,-483.317 227.038,-554.034"/>
<polygon fill="midnightblue" stroke="midnightblue" points="223.906,-555.616 231.004,-563.482 230.361,-552.907 223.906,-555.616"/>
</g>
<!-- Node41 -->
<g id="node41" class="node"><title>Node41</title>
<g id="a_node41"><a xlink:href="class_c_d_b_batch.html#a91b5d889a8d7e56c4f0bbf446e246111" target="_top" xlink:title="CDBBatch::Write">
<polygon fill="white" stroke="black" points="188.5,-126.5 188.5,-145.5 283.5,-145.5 283.5,-126.5 188.5,-126.5"/>
<text text-anchor="middle" x="236" y="-133.5" font-family="Helvetica,sans-Serif" font-size="10.00">CDBBatch::Write</text>
</a>
</g>
</g>
<!-- Node1&#45;&gt;Node41 -->
<g id="edge58" class="edge"><title>Node1&#45;&gt;Node41</title>
<path fill="none" stroke="midnightblue" d="M109.767,-164.411C132.07,-159.351 159.623,-153.1 183.202,-147.751"/>
<polygon fill="midnightblue" stroke="midnightblue" points="184.059,-151.146 193.037,-145.52 182.51,-144.319 184.059,-151.146"/>
</g>
<!-- Node48 -->
<g id="node48" class="node"><title>Node48</title>
<g id="a_node48"><a xlink:href="class_c_d_b_batch.html#a0b9ed3a5fa7fb461cd668c5a5c7ccd42" target="_top" xlink:title="CDBBatch::Erase">
<polygon fill="white" stroke="black" points="187,-164.5 187,-183.5 285,-183.5 285,-164.5 187,-164.5"/>
<text text-anchor="middle" x="236" y="-171.5" font-family="Helvetica,sans-Serif" font-size="10.00">CDBBatch::Erase</text>
</a>
</g>
</g>
<!-- Node1&#45;&gt;Node48 -->
<g id="edge65" class="edge"><title>Node1&#45;&gt;Node48</title>
<path fill="none" stroke="midnightblue" d="M133.22,-174C147.601,-174 162.727,-174 176.791,-174"/>
<polygon fill="midnightblue" stroke="midnightblue" points="176.818,-177.5 186.818,-174 176.818,-170.5 176.818,-177.5"/>
</g>
<!-- Node49 -->
<g id="node49" class="node"><title>Node49</title>
<g id="a_node49"><a xlink:href="class_c_d_b_batch.html#a800cf1185e1ab3c8dab51120d775ec19" target="_top" xlink:title="CDBBatch::SizeEstimate">
<polygon fill="white" stroke="black" points="169,-88.5 169,-107.5 303,-107.5 303,-88.5 169,-88.5"/>
<text text-anchor="middle" x="236" y="-95.5" font-family="Helvetica,sans-Serif" font-size="10.00">CDBBatch::SizeEstimate</text>
</a>
</g>
</g>
<!-- Node1&#45;&gt;Node49 -->
<g id="edge70" class="edge"><title>Node1&#45;&gt;Node49</title>
<path fill="none" stroke="midnightblue" d="M82.084,-164.377C101.325,-152.022 136.556,-130.564 169,-117 174.497,-114.702 180.363,-112.577 186.244,-110.645"/>
<polygon fill="midnightblue" stroke="midnightblue" points="187.585,-113.894 196.093,-107.58 185.505,-107.21 187.585,-113.894"/>
</g>
<!-- Node50 -->
<g id="node50" class="node"><title>Node50</title>
<g id="a_node50"><a xlink:href="class_c_d_b_batch.html#ab592d4377e67f5c91e42e9bdbb483038" target="_top" xlink:title="CDBBatch::Clear">
<polygon fill="white" stroke="black" points="188,-50.5 188,-69.5 284,-69.5 284,-50.5 188,-50.5"/>
<text text-anchor="middle" x="236" y="-57.5" font-family="Helvetica,sans-Serif" font-size="10.00">CDBBatch::Clear</text>
</a>
</g>
</g>
<!-- Node1&#45;&gt;Node50 -->
<g id="edge71" class="edge"><title>Node1&#45;&gt;Node50</title>
<path fill="none" stroke="midnightblue" d="M75.0708,-164.347C90.6026,-145.193 128.07,-102.235 169,-79 172.897,-76.788 177.071,-74.816 181.359,-73.0611"/>
<polygon fill="midnightblue" stroke="midnightblue" points="182.688,-76.3013 190.86,-69.5577 180.266,-69.7336 182.688,-76.3013"/>
</g>
<!-- Node3 -->
<g id="node3" class="node"><title>Node3</title>
<g id="a_node3"><a xlink:href="util_8h.html#a9ed616020f4ef9b1a261b222bbec78e2" target="_top" xlink:title="SetupEnvironment">
<polygon fill="white" stroke="black" points="351,-1038.5 351,-1057.5 457,-1057.5 457,-1038.5 351,-1038.5"/>
<text text-anchor="middle" x="404" y="-1045.5" font-family="Helvetica,sans-Serif" font-size="10.00">SetupEnvironment</text>
</a>
</g>
</g>
<!-- Node2&#45;&gt;Node3 -->
<g id="edge2" class="edge"><title>Node2&#45;&gt;Node3</title>
<path fill="none" stroke="midnightblue" d="M250.584,-1048C270.233,-1048 307.843,-1048 340.784,-1048"/>
<polygon fill="midnightblue" stroke="midnightblue" points="340.833,-1051.5 350.832,-1048 340.832,-1044.5 340.833,-1051.5"/>
</g>
<!-- Node4 -->
<g id="node4" class="node"><title>Node4</title>
<g id="a_node4"><a xlink:href="util_8h.html#a66791919e137c59061e988d2d87ee9a1" target="_top" xlink:title="SetupNetworking">
<polygon fill="white" stroke="black" points="355,-1076.5 355,-1095.5 453,-1095.5 453,-1076.5 355,-1076.5"/>
<text text-anchor="middle" x="404" y="-1083.5" font-family="Helvetica,sans-Serif" font-size="10.00">SetupNetworking</text>
</a>
</g>
</g>
<!-- Node2&#45;&gt;Node4 -->
<g id="edge3" class="edge"><title>Node2&#45;&gt;Node4</title>
<path fill="none" stroke="midnightblue" d="M250.584,-1051.11C272.362,-1056.09 316.202,-1066.13 351.297,-1074.16"/>
<polygon fill="midnightblue" stroke="midnightblue" points="350.875,-1077.66 361.404,-1076.48 352.437,-1070.83 350.875,-1077.66"/>
</g>
<!-- Node6 -->
<g id="node6" class="node"><title>Node6</title>
<g id="a_node6"><a xlink:href="init_8cpp.html#ad099182cc3731bd097628912ebe4cc7d" target="_top" xlink:title="fRequestShutdown">
<polygon fill="white" stroke="black" points="351.5,-1000.5 351.5,-1019.5 456.5,-1019.5 456.5,-1000.5 351.5,-1000.5"/>
<text text-anchor="middle" x="404" y="-1007.5" font-family="Helvetica,sans-Serif" font-size="10.00">fRequestShutdown</text>
</a>
</g>
</g>
<!-- Node5&#45;&gt;Node6 -->
<g id="edge5" class="edge"><title>Node5&#45;&gt;Node6</title>
<path fill="none" stroke="midnightblue" d="M239.664,-810.581C248.534,-840.766 279.901,-934.91 339,-986 343.601,-989.977 348.925,-993.324 354.497,-996.133"/>
<polygon fill="midnightblue" stroke="midnightblue" points="353.468,-999.506 364.027,-1000.37 356.311,-993.109 353.468,-999.506"/>
</g>
<!-- Node8 -->
<g id="node8" class="node"><title>Node8</title>
<g id="a_node8"><a xlink:href="namespacetinyformat.html#ad784060b98bfd4f1b3089fbb7686a676" target="_top" xlink:title="Format list of arguments to the stream according to given format string. ">
<polygon fill="white" stroke="black" points="352,-696.5 352,-715.5 456,-715.5 456,-696.5 352,-696.5"/>
<text text-anchor="middle" x="404" y="-703.5" font-family="Helvetica,sans-Serif" font-size="10.00">tinyformat::format</text>
</a>
</g>
</g>
<!-- Node7&#45;&gt;Node8 -->
<g id="edge7" class="edge"><title>Node7&#45;&gt;Node8</title>
<path fill="none" stroke="midnightblue" d="M242.857,-582.569C256.745,-604.447 293.908,-658.431 339,-687 342.32,-689.103 345.883,-690.983 349.566,-692.661"/>
<polygon fill="midnightblue" stroke="midnightblue" points="348.318,-695.931 358.901,-696.429 350.939,-689.44 348.318,-695.931"/>
</g>
<!-- Node12 -->
<g id="node12" class="node"><title>Node12</title>
<g id="a_node12"><a xlink:href="util_8h.html#aaada8c5faa502eb0c33fc01294955db8" target="_top" xlink:title="PrintExceptionContinue">
<polygon fill="white" stroke="black" points="340,-658.5 340,-677.5 468,-677.5 468,-658.5 340,-658.5"/>
<text text-anchor="middle" x="404" y="-665.5" font-family="Helvetica,sans-Serif" font-size="10.00">PrintExceptionContinue</text>
</a>
</g>
</g>
<!-- Node7&#45;&gt;Node12 -->
<g id="edge11" class="edge"><title>Node7&#45;&gt;Node12</title>
<path fill="none" stroke="midnightblue" d="M247.189,-582.556C264.672,-598.476 302.079,-630.501 339,-649 343.547,-651.278 348.415,-653.333 353.36,-655.175"/>
<polygon fill="midnightblue" stroke="midnightblue" points="352.308,-658.514 362.903,-658.457 354.585,-651.895 352.308,-658.514"/>
</g>
<!-- Node13 -->
<g id="node13" class="node"><title>Node13</title>
<g id="a_node13"><a xlink:href="util_8h.html#aedd7d9ab25c6cfb8c81a4aaa917b104e" target="_top" xlink:title="FileCommit">
<polygon fill="white" stroke="black" points="369,-620.5 369,-639.5 439,-639.5 439,-620.5 369,-620.5"/>
<text text-anchor="middle" x="404" y="-627.5" font-family="Helvetica,sans-Serif" font-size="10.00">FileCommit</text>
</a>
</g>
</g>
<!-- Node7&#45;&gt;Node13 -->
<g id="edge12" class="edge"><title>Node7&#45;&gt;Node13</title>
<path fill="none" stroke="midnightblue" d="M256.037,-580.535C276.423,-588.499 309.786,-601.234 339,-611 345.573,-613.197 352.567,-615.405 359.428,-617.498"/>
<polygon fill="midnightblue" stroke="midnightblue" points="358.733,-620.944 369.318,-620.468 360.747,-614.239 358.733,-620.944"/>
</g>
<!-- Node14 -->
<g id="node14" class="node"><title>Node14</title>
<g id="a_node14"><a xlink:href="util_8h.html#acb8d6b822bc1bfa609bf43bbac1a0d44" target="_top" xlink:title="TruncateFile">
<polygon fill="white" stroke="black" points="368,-582.5 368,-601.5 440,-601.5 440,-582.5 368,-582.5"/>
<text text-anchor="middle" x="404" y="-589.5" font-family="Helvetica,sans-Serif" font-size="10.00">TruncateFile</text>
</a>
</g>
</g>
<!-- Node7&#45;&gt;Node14 -->
<g id="edge13" class="edge"><title>Node7&#45;&gt;Node14</title>
<path fill="none" stroke="midnightblue" d="M256.042,-575.18C280.739,-578.006 324.606,-583.027 358.003,-586.85"/>
<polygon fill="midnightblue" stroke="midnightblue" points="357.665,-590.334 367.999,-587.994 358.461,-583.379 357.665,-590.334"/>
</g>
<!-- Node15 -->
<g id="node15" class="node"><title>Node15</title>
<g id="a_node15"><a xlink:href="util_8h.html#a756a5c49a4bb607d16d9842f8f3ede4f" target="_top" xlink:title="this function tries to raise the file descriptor limit to the requested number. ">
<polygon fill="white" stroke="black" points="339,-544.5 339,-563.5 469,-563.5 469,-544.5 339,-544.5"/>
<text text-anchor="middle" x="404" y="-551.5" font-family="Helvetica,sans-Serif" font-size="10.00">RaiseFileDescriptorLimit</text>
</a>
</g>
</g>
<!-- Node7&#45;&gt;Node15 -->
<g id="edge14" class="edge"><title>Node7&#45;&gt;Node15</title>
<path fill="none" stroke="midnightblue" d="M256.042,-570.82C273.939,-568.772 301.903,-565.571 328.654,-562.509"/>
<polygon fill="midnightblue" stroke="midnightblue" points="329.287,-565.96 338.824,-561.345 328.491,-559.005 329.287,-565.96"/>
</g>
<!-- Node16 -->
<g id="node16" class="node"><title>Node16</title>
<g id="a_node16"><a xlink:href="util_8h.html#a91c763bffc49cf7ed8d45cc44870e55c" target="_top" xlink:title="this function tries to make a particular range of a file allocated (corresponding to disk space) it i...">
<polygon fill="white" stroke="black" points="354,-506.5 354,-525.5 454,-525.5 454,-506.5 354,-506.5"/>
<text text-anchor="middle" x="404" y="-513.5" font-family="Helvetica,sans-Serif" font-size="10.00">AllocateFileRange</text>
</a>
</g>
</g>
<!-- Node7&#45;&gt;Node16 -->
<g id="edge15" class="edge"><title>Node7&#45;&gt;Node16</title>
<path fill="none" stroke="midnightblue" d="M256.037,-565.465C276.423,-557.501 309.786,-544.766 339,-535 345.573,-532.803 352.567,-530.595 359.428,-528.502"/>
<polygon fill="midnightblue" stroke="midnightblue" points="360.747,-531.761 369.318,-525.532 358.733,-525.056 360.747,-531.761"/>
</g>
<!-- Node17 -->
<g id="node17" class="node"><title>Node17</title>
<g id="a_node17"><a xlink:href="util_8h.html#a579657da2b55b131ecd453bf1b0d2314" target="_top" xlink:title="RenameOver">
<polygon fill="white" stroke="black" points="365,-468.5 365,-487.5 443,-487.5 443,-468.5 365,-468.5"/>
<text text-anchor="middle" x="404" y="-475.5" font-family="Helvetica,sans-Serif" font-size="10.00">RenameOver</text>
</a>
</g>
</g>
<!-- Node7&#45;&gt;Node17 -->
<g id="edge16" class="edge"><title>Node7&#45;&gt;Node17</title>
<path fill="none" stroke="midnightblue" d="M247.189,-563.444C264.672,-547.524 302.079,-515.499 339,-497 344.178,-494.406 349.773,-492.1 355.425,-490.07"/>
<polygon fill="midnightblue" stroke="midnightblue" points="356.542,-493.387 364.927,-486.91 354.333,-486.744 356.542,-493.387"/>
</g>
<!-- Node18 -->
<g id="node18" class="node"><title>Node18</title>
<g id="a_node18"><a xlink:href="util_8h.html#a9f16e26cc90b17ed75fcbbe7ce75e7c3" target="_top" xlink:title="LockDirectory">
<polygon fill="white" stroke="black" points="363,-392.5 363,-411.5 445,-411.5 445,-392.5 363,-392.5"/>
<text text-anchor="middle" x="404" y="-399.5" font-family="Helvetica,sans-Serif" font-size="10.00">LockDirectory</text>
</a>
</g>
</g>
<!-- Node7&#45;&gt;Node18 -->
<g id="edge17" class="edge"><title>Node7&#45;&gt;Node18</title>
<path fill="none" stroke="midnightblue" d="M239.386,-563.218C248.465,-534.411 283.191,-453.049 339,-412 343.267,-408.861 348.051,-406.238 353.03,-404.097"/>
<polygon fill="midnightblue" stroke="midnightblue" points="354.556,-407.266 362.762,-400.565 352.168,-400.686 354.556,-407.266"/>
</g>
<!-- Node20 -->
<g id="node20" class="node"><title>Node20</title>
<g id="a_node20"><a xlink:href="util_8h.html#a4d79c90e36d7957a773336ec3d55a842" target="_top" xlink:title="DirIsWritable">
<polygon fill="white" stroke="black" points="366.5,-354.5 366.5,-373.5 441.5,-373.5 441.5,-354.5 366.5,-354.5"/>
<text text-anchor="middle" x="404" y="-361.5" font-family="Helvetica,sans-Serif" font-size="10.00">DirIsWritable</text>
</a>
</g>
</g>
<!-- Node7&#45;&gt;Node20 -->
<g id="edge20" class="edge"><title>Node7&#45;&gt;Node20</title>
<path fill="none" stroke="midnightblue" d="M239.319,-563.421C247.337,-532.369 276.871,-433.587 339,-383 344.254,-378.722 350.445,-375.408 356.872,-372.839"/>
<polygon fill="midnightblue" stroke="midnightblue" points="358.048,-376.136 366.374,-369.584 355.78,-369.513 358.048,-376.136"/>
</g>
<!-- Node22 -->
<g id="node22" class="node"><title>Node22</title>
<g id="a_node22"><a xlink:href="util_8h.html#a851fa89def443bac9d04ddb908cb91bb" target="_top" xlink:title="Release all directory locks. ">
<polygon fill="white" stroke="black" points="342,-316.5 342,-335.5 466,-335.5 466,-316.5 342,-316.5"/>
<text text-anchor="middle" x="404" y="-323.5" font-family="Helvetica,sans-Serif" font-size="10.00">ReleaseDirectoryLocks</text>
</a>
</g>
</g>
<!-- Node7&#45;&gt;Node22 -->
<g id="edge24" class="edge"><title>Node7&#45;&gt;Node22</title>
<path fill="none" stroke="midnightblue" d="M238.452,-563.055C244.144,-527.714 268.216,-407.003 339,-345 340.945,-343.296 343.038,-341.745 345.237,-340.332"/>
<polygon fill="midnightblue" stroke="midnightblue" points="347.004,-343.356 354.162,-335.546 343.695,-337.188 347.004,-343.356"/>
</g>
<!-- Node23 -->
<g id="node23" class="node"><title>Node23</title>
<g id="a_node23"><a xlink:href="util_8h.html#a9042a919d837da9d97311a0c460c597c" target="_top" xlink:title="Ignores exceptions thrown by Boost&#39;s create_directories if the requested directory exists...">
<polygon fill="white" stroke="black" points="347.5,-278.5 347.5,-297.5 460.5,-297.5 460.5,-278.5 347.5,-278.5"/>
<text text-anchor="middle" x="404" y="-285.5" font-family="Helvetica,sans-Serif" font-size="10.00">TryCreateDirectories</text>
</a>
</g>
</g>
<!-- Node7&#45;&gt;Node23 -->
<g id="edge25" class="edge"><title>Node7&#45;&gt;Node23</title>
<path fill="none" stroke="midnightblue" d="M237.722,-563.346C241.127,-524.884 258.952,-381.067 339,-307 340.693,-305.433 342.511,-303.995 344.422,-302.675"/>
<polygon fill="midnightblue" stroke="midnightblue" points="346.355,-305.602 353.313,-297.613 342.891,-299.519 346.355,-305.602"/>
</g>
<!-- Node24 -->
<g id="node24" class="node"><title>Node24</title>
<g id="a_node24"><a xlink:href="util_8h.html#a15cb85964fe08c264605537f44570d3c" target="_top" xlink:title="GetDefaultDataDir">
<polygon fill="white" stroke="black" points="351.5,-240.5 351.5,-259.5 456.5,-259.5 456.5,-240.5 351.5,-240.5"/>
<text text-anchor="middle" x="404" y="-247.5" font-family="Helvetica,sans-Serif" font-size="10.00">GetDefaultDataDir</text>
</a>
</g>
</g>
<!-- Node7&#45;&gt;Node24 -->
<g id="edge26" class="edge"><title>Node7&#45;&gt;Node24</title>
<path fill="none" stroke="midnightblue" d="M237.196,-563.446C238.577,-521.907 249.689,-355.227 339,-269 340.501,-267.551 342.107,-266.212 343.797,-264.974"/>
<polygon fill="midnightblue" stroke="midnightblue" points="346.031,-267.717 352.833,-259.594 342.45,-261.702 346.031,-267.717"/>
</g>
<!-- Node25 -->
<g id="node25" class="node"><title>Node25</title>
<g id="a_node25"><a xlink:href="util_8h.html#a920605cc2c7bfd04f4d08693835fb677" target="_top" xlink:title="GetBlocksDir">
<polygon fill="white" stroke="black" points="541,-810.5 541,-829.5 619,-829.5 619,-810.5 541,-810.5"/>
<text text-anchor="middle" x="580" y="-817.5" font-family="Helvetica,sans-Serif" font-size="10.00">GetBlocksDir</text>
</a>
</g>
</g>
<!-- Node7&#45;&gt;Node25 -->
<g id="edge27" class="edge"><title>Node7&#45;&gt;Node25</title>
<path fill="none" stroke="midnightblue" d="M237.97,-582.977C242.104,-619.482 261.764,-746.492 339,-801 395.346,-840.766 478.759,-837.164 530.941,-829.579"/>
<polygon fill="midnightblue" stroke="midnightblue" points="531.602,-833.018 540.944,-828.02 530.524,-826.101 531.602,-833.018"/>
</g>
<!-- Node33 -->
<g id="node33" class="node"><title>Node33</title>
<g id="a_node33"><a xlink:href="util_8h.html#abb63dfb710832aefb746933af05198d4" target="_top" xlink:title="GetDataDir">
<polygon fill="white" stroke="black" points="704.5,-886.5 704.5,-905.5 775.5,-905.5 775.5,-886.5 704.5,-886.5"/>
<text text-anchor="middle" x="740" y="-893.5" font-family="Helvetica,sans-Serif" font-size="10.00">GetDataDir</text>
</a>
</g>
</g>
<!-- Node7&#45;&gt;Node33 -->
<g id="edge40" class="edge"><title>Node7&#45;&gt;Node33</title>
<path fill="none" stroke="midnightblue" d="M240.512,-582.905C250.998,-612.717 282.617,-704.343 303,-782 322.718,-857.121 278.69,-904.065 339,-953 393.941,-997.579 610.668,-936.509 700.094,-908.611"/>
<polygon fill="midnightblue" stroke="midnightblue" points="701.362,-911.881 709.85,-905.541 699.26,-905.204 701.362,-911.881"/>
</g>
<!-- Node34 -->
<g id="node34" class="node"><title>Node34</title>
<g id="a_node34"><a xlink:href="util_8h.html#abfb50dfe077aced7591f2aba601f605d" target="_top" xlink:title="ClearDatadirCache">
<polygon fill="white" stroke="black" points="350.5,-772.5 350.5,-791.5 457.5,-791.5 457.5,-772.5 350.5,-772.5"/>
<text text-anchor="middle" x="404" y="-779.5" font-family="Helvetica,sans-Serif" font-size="10.00">ClearDatadirCache</text>
</a>
</g>
</g>
<!-- Node7&#45;&gt;Node34 -->
<g id="edge46" class="edge"><title>Node7&#45;&gt;Node34</title>
<path fill="none" stroke="midnightblue" d="M239.319,-582.579C247.337,-613.631 276.871,-712.413 339,-763 341.159,-764.757 343.475,-766.352 345.902,-767.8"/>
<polygon fill="midnightblue" stroke="midnightblue" points="344.574,-771.05 355.08,-772.423 347.723,-764.798 344.574,-771.05"/>
</g>
<!-- Node35 -->
<g id="node35" class="node"><title>Node35</title>
<g id="a_node35"><a xlink:href="util_8h.html#aa634f312705d4811dfa2a5392bddf6cf" target="_top" xlink:title="GetConfigFile">
<polygon fill="white" stroke="black" points="364.5,-886.5 364.5,-905.5 443.5,-905.5 443.5,-886.5 364.5,-886.5"/>
<text text-anchor="middle" x="404" y="-893.5" font-family="Helvetica,sans-Serif" font-size="10.00">GetConfigFile</text>
</a>
</g>
</g>
<!-- Node7&#45;&gt;Node35 -->
<g id="edge47" class="edge"><title>Node7&#45;&gt;Node35</title>
<path fill="none" stroke="midnightblue" d="M240.003,-582.546C255.711,-632.375 328.114,-860.782 339,-872 343.501,-876.639 348.985,-880.39 354.828,-883.421"/>
<polygon fill="midnightblue" stroke="midnightblue" points="353.66,-886.733 364.218,-887.616 356.515,-880.341 353.66,-886.733"/>
</g>
<!-- Node37 -->
<g id="node37" class="node"><title>Node37</title>
<g id="a_node37"><a xlink:href="util_8h.html#aa0172eabeecce5061826cb19990fbde2" target="_top" xlink:title="GetPidFile">
<polygon fill="white" stroke="black" points="372.5,-924.5 372.5,-943.5 435.5,-943.5 435.5,-924.5 372.5,-924.5"/>
<text text-anchor="middle" x="404" y="-931.5" font-family="Helvetica,sans-Serif" font-size="10.00">GetPidFile</text>
</a>
</g>
</g>
<!-- Node7&#45;&gt;Node37 -->
<g id="edge50" class="edge"><title>Node7&#45;&gt;Node37</title>
<path fill="none" stroke="midnightblue" d="M240.168,-582.539C249.938,-612.059 280.311,-704.589 303,-782 320.224,-840.766 296.226,-871.176 339,-915 345.353,-921.509 353.824,-925.812 362.518,-928.651"/>
<polygon fill="midnightblue" stroke="midnightblue" points="361.763,-932.072 372.328,-931.274 363.571,-925.31 361.763,-932.072"/>
</g>
<!-- Node38 -->
<g id="node38" class="node"><title>Node38</title>
<g id="a_node38"><a xlink:href="util_8h.html#a1c0f9b041628dcb399a023bc9913f41d" target="_top" xlink:title="CreatePidFile">
<polygon fill="white" stroke="black" points="365,-430.5 365,-449.5 443,-449.5 443,-430.5 365,-430.5"/>
<text text-anchor="middle" x="404" y="-437.5" font-family="Helvetica,sans-Serif" font-size="10.00">CreatePidFile</text>
</a>
</g>
</g>
<!-- Node7&#45;&gt;Node38 -->
<g id="edge53" class="edge"><title>Node7&#45;&gt;Node38</title>
<path fill="none" stroke="midnightblue" d="M242.857,-563.431C256.745,-541.553 293.908,-487.569 339,-459 344.018,-455.821 349.591,-453.153 355.297,-450.92"/>
<polygon fill="midnightblue" stroke="midnightblue" points="356.658,-454.152 364.95,-447.557 354.355,-447.541 356.658,-454.152"/>
</g>
<!-- Node39 -->
<g id="node39" class="node"><title>Node39</title>
<g id="a_node39"><a xlink:href="util_8h.html#aa803aa631ab8b4bd79fa9d7b2172bf9a" target="_top" xlink:title="runCommand">
<polygon fill="white" stroke="black" points="362.5,-734.5 362.5,-753.5 445.5,-753.5 445.5,-734.5 362.5,-734.5"/>
<text text-anchor="middle" x="404" y="-741.5" font-family="Helvetica,sans-Serif" font-size="10.00">runCommand</text>
</a>
</g>
</g>
<!-- Node7&#45;&gt;Node39 -->
<g id="edge55" class="edge"><title>Node7&#45;&gt;Node39</title>
<path fill="none" stroke="midnightblue" d="M240.641,-582.509C251.369,-609.239 285.495,-685.645 339,-725 343.21,-728.097 347.923,-730.692 352.831,-732.867"/>
<polygon fill="midnightblue" stroke="midnightblue" points="351.838,-736.234 362.428,-736.551 354.346,-729.699 351.838,-736.234"/>
</g>
<!-- Node40 -->
<g id="node40" class="node"><title>Node40</title>
<g id="a_node40"><a xlink:href="util_8h.html#a95a1d5584353ab05e85da8b0e8844c95" target="_top" xlink:title="Most paths passed as configuration arguments are treated as relative to the datadir if they are not a...">
<polygon fill="white" stroke="black" points="522.5,-848.5 522.5,-867.5 637.5,-867.5 637.5,-848.5 522.5,-848.5"/>
<text text-anchor="middle" x="580" y="-855.5" font-family="Helvetica,sans-Serif" font-size="10.00">AbsPathForConfigVal</text>
</a>
</g>
</g>
<!-- Node7&#45;&gt;Node40 -->
<g id="edge56" class="edge"><title>Node7&#45;&gt;Node40</title>
<path fill="none" stroke="midnightblue" d="M239.366,-582.59C250.149,-625.495 295.969,-799.168 339,-832 387.964,-869.359 459.798,-872.395 512.111,-868.202"/>
<polygon fill="midnightblue" stroke="midnightblue" points="512.659,-871.667 522.301,-867.276 512.025,-864.696 512.659,-871.667"/>
</g>
<!-- Node9 -->
<g id="node9" class="node"><title>Node9</title>
<g id="a_node9"><a xlink:href="namespacetinyformat.html#a86ed74eb3ed66a662e96220d877da964" target="_top" xlink:title="Format list of arguments to the stream according to the given format string. ">
<polygon fill="white" stroke="black" points="525,-696.5 525,-715.5 635,-715.5 635,-696.5 525,-696.5"/>
<text text-anchor="middle" x="580" y="-703.5" font-family="Helvetica,sans-Serif" font-size="10.00">tinyformat::vformat</text>
</a>
</g>
</g>
<!-- Node8&#45;&gt;Node9 -->
<g id="edge8" class="edge"><title>Node8&#45;&gt;Node9</title>
<path fill="none" stroke="midnightblue" d="M456.265,-706C474.534,-706 495.348,-706 514.58,-706"/>
<polygon fill="midnightblue" stroke="midnightblue" points="514.773,-709.5 524.773,-706 514.773,-702.5 514.773,-709.5"/>
</g>
<!-- Node11 -->
<g id="node11" class="node"><title>Node11</title>
<g id="a_node11"><a xlink:href="namespacetinyformat.html#ab7fedd020bd6b353233d0ecbd686a007" target="_top" xlink:title="Make type&#45;agnostic format list from list of template arguments. ">
<polygon fill="white" stroke="black" points="505,-658.5 505,-677.5 655,-677.5 655,-658.5 505,-658.5"/>
<text text-anchor="middle" x="580" y="-665.5" font-family="Helvetica,sans-Serif" font-size="10.00">tinyformat::makeFormatList</text>
</a>
</g>
</g>
<!-- Node8&#45;&gt;Node11 -->
<g id="edge10" class="edge"><title>Node8&#45;&gt;Node11</title>
<path fill="none" stroke="midnightblue" d="M448.908,-696.411C472.179,-691.329 500.954,-685.045 525.519,-679.68"/>
<polygon fill="midnightblue" stroke="midnightblue" points="526.385,-683.073 535.408,-677.52 524.892,-676.234 526.385,-683.073"/>
</g>
<!-- Node10 -->
<g id="node10" class="node"><title>Node10</title>
<g id="a_node10"><a xlink:href="namespacetinyformat_1_1detail.html#a079a316938c0e8693efbeb0183b1390d" target="_top" xlink:title="tinyformat::detail\l::formatImpl">
<polygon fill="white" stroke="red" points="691,-685 691,-715 789,-715 789,-685 691,-685"/>
<text text-anchor="start" x="699" y="-703" font-family="Helvetica,sans-Serif" font-size="10.00">tinyformat::detail</text>
<text text-anchor="middle" x="740" y="-692" font-family="Helvetica,sans-Serif" font-size="10.00">::formatImpl</text>
</a>
</g>
</g>
<!-- Node9&#45;&gt;Node10 -->
<g id="edge9" class="edge"><title>Node9&#45;&gt;Node10</title>
<path fill="none" stroke="midnightblue" d="M635.375,-703.935C650.025,-703.379 665.931,-702.775 680.783,-702.211"/>
<polygon fill="midnightblue" stroke="midnightblue" points="681.007,-705.705 690.867,-701.828 680.742,-698.71 681.007,-705.705"/>
</g>
<!-- Node18&#45;&gt;Node7 -->
<g id="edge19" class="edge"><title>Node18&#45;&gt;Node7</title>
<path fill="none" stroke="midnightblue" d="M384.404,-411.529C370.757,-415.402 352.352,-420.18 339,-430 293.689,-463.328 262.276,-523.227 247.202,-554.052"/>
<polygon fill="midnightblue" stroke="midnightblue" points="243.927,-552.784 242.72,-563.31 250.227,-555.835 243.927,-552.784"/>
</g>
<!-- Node19 -->
<g id="node19" class="node"><title>Node19</title>
<g id="a_node19"><a xlink:href="namespacefsbridge.html#a19c84cec4ae9accfbc88a83e48f7ee92" target="_top" xlink:title="fsbridge::fopen">
<polygon fill="white" stroke="black" points="536,-401.5 536,-420.5 624,-420.5 624,-401.5 536,-401.5"/>
<text text-anchor="middle" x="580" y="-408.5" font-family="Helvetica,sans-Serif" font-size="10.00">fsbridge::fopen</text>
</a>
</g>
</g>
<!-- Node18&#45;&gt;Node19 -->
<g id="edge18" class="edge"><title>Node18&#45;&gt;Node19</title>
<path fill="none" stroke="midnightblue" d="M445.356,-404.087C469.286,-405.325 499.9,-406.909 525.788,-408.248"/>
<polygon fill="midnightblue" stroke="midnightblue" points="525.654,-411.745 535.821,-408.767 526.015,-404.755 525.654,-411.745"/>
</g>
<!-- Node20&#45;&gt;Node19 -->
<g id="edge21" class="edge"><title>Node20&#45;&gt;Node19</title>
<path fill="none" stroke="midnightblue" d="M438.284,-373.514C457.712,-379.019 482.712,-386.019 505,-392 513.563,-394.298 522.7,-396.691 531.526,-398.973"/>
<polygon fill="midnightblue" stroke="midnightblue" points="530.756,-402.389 541.313,-401.492 532.501,-395.61 530.756,-402.389"/>
</g>
<!-- Node21 -->
<g id="node21" class="node"><title>Node21</title>
<g id="a_node21"><a xlink:href="utilstrencodings_8cpp.html#aa5ce96ec36f4413f820cec9c1831c070" target="_top" xlink:title="atoi">
<polygon fill="white" stroke="black" points="562.5,-345.5 562.5,-364.5 597.5,-364.5 597.5,-345.5 562.5,-345.5"/>
<text text-anchor="middle" x="580" y="-352.5" font-family="Helvetica,sans-Serif" font-size="10.00">atoi</text>
</a>
</g>
</g>
<!-- Node20&#45;&gt;Node21 -->
<g id="edge22" class="edge"><title>Node20&#45;&gt;Node21</title>
<path fill="none" stroke="midnightblue" d="M441.901,-362.091C474.952,-360.382 522.636,-357.915 552.176,-356.387"/>
<polygon fill="midnightblue" stroke="midnightblue" points="552.372,-359.882 562.178,-355.87 552.01,-352.891 552.372,-359.882"/>
</g>
<!-- Node21&#45;&gt;Node21 -->
<g id="edge23" class="edge"><title>Node21&#45;&gt;Node21</title>
<path fill="none" stroke="midnightblue" d="M562.312,-360.773C541.292,-370.439 547.188,-383 580,-383 606.917,-383 615.721,-374.548 606.412,-366.174"/>
<polygon fill="midnightblue" stroke="midnightblue" points="608.033,-363.061 597.688,-360.773 604.348,-369.013 608.033,-363.061"/>
</g>
<!-- Node26 -->
<g id="node26" class="node"><title>Node26</title>
<g id="a_node26"><a xlink:href="class_args_manager.html#ad515c5fe6f15638602fd06e800381526" target="_top" xlink:title="Return true if the given argument has been manually set. ">
<polygon fill="white" stroke="red" points="838,-772.5 838,-791.5 965,-791.5 965,-772.5 838,-772.5"/>
<text text-anchor="middle" x="901.5" y="-779.5" font-family="Helvetica,sans-Serif" font-size="10.00">ArgsManager::IsArgSet</text>
</a>
</g>
</g>
<!-- Node25&#45;&gt;Node26 -->
<g id="edge28" class="edge"><title>Node25&#45;&gt;Node26</title>
<path fill="none" stroke="midnightblue" d="M619.041,-812.172C640.161,-808.056 666.951,-803.212 691,-800 736.366,-793.941 787.545,-789.499 827.962,-786.544"/>
<polygon fill="midnightblue" stroke="midnightblue" points="828.272,-790.031 837.996,-785.825 827.771,-783.049 828.272,-790.031"/>
</g>
<!-- Node28 -->
<g id="node28" class="node"><title>Node28</title>
<g id="a_node28"><a xlink:href="class_args_manager.html#a565c101a8d753ca2d71c7069a9d411c1" target="_top" xlink:title="Return string argument or default value. ">
<polygon fill="white" stroke="red" points="841.5,-924.5 841.5,-943.5 961.5,-943.5 961.5,-924.5 841.5,-924.5"/>
<text text-anchor="middle" x="901.5" y="-931.5" font-family="Helvetica,sans-Serif" font-size="10.00">ArgsManager::GetArg</text>
</a>
</g>
</g>
<!-- Node25&#45;&gt;Node28 -->
<g id="edge30" class="edge"><title>Node25&#45;&gt;Node28</title>
<path fill="none" stroke="midnightblue" d="M619.312,-823.325C631.78,-826.004 644.974,-830.727 655,-839 683.829,-862.787 660.353,-893.606 691,-915 731.423,-943.218 787.464,-946.961 831.415,-944.194"/>
<polygon fill="midnightblue" stroke="midnightblue" points="831.743,-947.679 841.452,-943.437 831.217,-940.699 831.743,-947.679"/>
</g>
<!-- Node29 -->
<g id="node29" class="node"><title>Node29</title>
<g id="a_node29"><a xlink:href="util_8cpp.html#a7ebe0bd091f7334aaead43904601e008" target="_top" xlink:title="GetDataDir">
<polygon fill="white" stroke="black" points="704.5,-848.5 704.5,-867.5 775.5,-867.5 775.5,-848.5 704.5,-848.5"/>
<text text-anchor="middle" x="740" y="-855.5" font-family="Helvetica,sans-Serif" font-size="10.00">GetDataDir</text>
</a>
</g>
</g>
<!-- Node25&#45;&gt;Node29 -->
<g id="edge32" class="edge"><title>Node25&#45;&gt;Node29</title>
<path fill="none" stroke="midnightblue" d="M619.247,-829.199C641.943,-834.657 670.817,-841.602 694.527,-847.304"/>
<polygon fill="midnightblue" stroke="midnightblue" points="693.797,-850.728 704.338,-849.664 695.434,-843.922 693.797,-850.728"/>
</g>
<!-- Node31 -->
<g id="node31" class="node"><title>Node31</title>
<g id="a_node31"><a xlink:href="chainparamsbase_8cpp.html#a06ef5bfd0efb53d13bbf4276726e84ab" target="_top" xlink:title="Return the currently selected parameters. ">
<polygon fill="white" stroke="black" points="863,-848.5 863,-867.5 940,-867.5 940,-848.5 863,-848.5"/>
<text text-anchor="middle" x="901.5" y="-855.5" font-family="Helvetica,sans-Serif" font-size="10.00">BaseParams</text>
</a>
</g>
</g>
<!-- Node25&#45;&gt;Node31 -->
<g id="edge38" class="edge"><title>Node25&#45;&gt;Node31</title>
<path fill="none" stroke="midnightblue" d="M619.053,-822.585C660.834,-825.63 729.853,-831.271 789,-839 810.058,-841.752 833.223,-845.569 852.957,-849.061"/>
<polygon fill="midnightblue" stroke="midnightblue" points="852.473,-852.53 862.934,-850.85 853.709,-845.64 852.473,-852.53"/>
</g>
<!-- Node32 -->
<g id="node32" class="node"><title>Node32</title>
<g id="a_node32"><a xlink:href="class_c_base_chain_params.html#af56a637b20c9f496108bffc3166ea53a" target="_top" xlink:title="CBaseChainParams::DataDir">
<polygon fill="white" stroke="black" points="825,-810.5 825,-829.5 978,-829.5 978,-810.5 825,-810.5"/>
<text text-anchor="middle" x="901.5" y="-817.5" font-family="Helvetica,sans-Serif" font-size="10.00">CBaseChainParams::DataDir</text>
</a>
</g>
</g>
<!-- Node25&#45;&gt;Node32 -->
<g id="edge39" class="edge"><title>Node25&#45;&gt;Node32</title>
<path fill="none" stroke="midnightblue" d="M619.067,-813.95C640.195,-810.896 666.984,-807.522 691,-806 734.468,-803.245 745.529,-803.282 789,-806 800.866,-806.742 813.4,-807.924 825.612,-809.295"/>
<polygon fill="midnightblue" stroke="midnightblue" points="825.434,-812.798 835.774,-810.485 826.249,-805.845 825.434,-812.798"/>
</g>
<!-- Node27 -->
<g id="node27" class="node"><title>Node27</title>
<g id="a_node27"><a xlink:href="class_args_manager.html#a279ccbf7bbe9de5dceb8c6bfd1736583" target="_top" xlink:title="Return true if the argument was originally passed as a negated option, i.e. ">
<polygon fill="white" stroke="red" points="1014,-848.5 1014,-867.5 1166,-867.5 1166,-848.5 1014,-848.5"/>
<text text-anchor="middle" x="1090" y="-855.5" font-family="Helvetica,sans-Serif" font-size="10.00">ArgsManager::IsArgNegated</text>
</a>
</g>
</g>
<!-- Node26&#45;&gt;Node27 -->
<g id="edge29" class="edge"><title>Node26&#45;&gt;Node27</title>
<path fill="none" stroke="midnightblue" d="M947.732,-791.597C957.829,-794.23 968.388,-797.377 978,-801 1008.86,-812.633 1042.28,-830.59 1064.29,-843.234"/>
<polygon fill="midnightblue" stroke="midnightblue" points="1062.58,-846.29 1072.99,-848.294 1066.1,-840.24 1062.58,-846.29"/>
</g>
<!-- Node28&#45;&gt;Node27 -->
<g id="edge31" class="edge"><title>Node28&#45;&gt;Node27</title>
<path fill="none" stroke="midnightblue" d="M947.732,-924.403C957.829,-921.77 968.388,-918.623 978,-915 1008.86,-903.367 1042.28,-885.41 1064.29,-872.766"/>
<polygon fill="midnightblue" stroke="midnightblue" points="1066.1,-875.76 1072.99,-867.706 1062.58,-869.71 1066.1,-875.76"/>
</g>
<!-- Node29&#45;&gt;Node26 -->
<g id="edge33" class="edge"><title>Node29&#45;&gt;Node26</title>
<path fill="none" stroke="midnightblue" d="M752.19,-848.497C767.606,-835.871 796.695,-813.687 825,-801 830.373,-798.592 836.104,-796.453 841.915,-794.562"/>
<polygon fill="midnightblue" stroke="midnightblue" points="843.155,-797.843 851.721,-791.608 841.136,-791.141 843.155,-797.843"/>
</g>
<!-- Node29&#45;&gt;Node28 -->
<g id="edge34" class="edge"><title>Node29&#45;&gt;Node28</title>
<path fill="none" stroke="midnightblue" d="M770.956,-867.521C777.178,-870.129 783.506,-873.284 789,-877 808.271,-890.033 804.921,-903.25 825,-915 828.844,-917.25 832.95,-919.235 837.186,-920.987"/>
<polygon fill="midnightblue" stroke="midnightblue" points="836.023,-924.288 846.616,-924.46 838.442,-917.72 836.023,-924.288"/>
</g>
<!-- Node30 -->
<g id="node30" class="node"><title>Node30</title>
<g id="a_node30"><a xlink:href="util_8cpp.html#a15cb85964fe08c264605537f44570d3c" target="_top" xlink:title="GetDefaultDataDir">
<polygon fill="white" stroke="black" points="849,-886.5 849,-905.5 954,-905.5 954,-886.5 849,-886.5"/>
<text text-anchor="middle" x="901.5" y="-893.5" font-family="Helvetica,sans-Serif" font-size="10.00">GetDefaultDataDir</text>
</a>
</g>
</g>
<!-- Node29&#45;&gt;Node30 -->
<g id="edge35" class="edge"><title>Node29&#45;&gt;Node30</title>
<path fill="none" stroke="midnightblue" d="M775.609,-866.245C797.593,-871.483 826.4,-878.346 850.808,-884.161"/>
<polygon fill="midnightblue" stroke="midnightblue" points="850.077,-887.585 860.616,-886.498 851.7,-880.776 850.077,-887.585"/>
</g>
<!-- Node29&#45;&gt;Node31 -->
<g id="edge36" class="edge"><title>Node29&#45;&gt;Node31</title>
<path fill="none" stroke="midnightblue" d="M775.609,-858C798.137,-858 827.829,-858 852.61,-858"/>
<polygon fill="midnightblue" stroke="midnightblue" points="852.895,-861.5 862.895,-858 852.895,-854.5 852.895,-861.5"/>
</g>
<!-- Node29&#45;&gt;Node32 -->
<g id="edge37" class="edge"><title>Node29&#45;&gt;Node32</title>
<path fill="none" stroke="midnightblue" d="M775.609,-849.755C797.593,-844.517 826.4,-837.654 850.808,-831.839"/>
<polygon fill="midnightblue" stroke="midnightblue" points="851.7,-835.224 860.616,-829.502 850.077,-828.415 851.7,-835.224"/>
</g>
<!-- Node33&#45;&gt;Node26 -->
<g id="edge41" class="edge"><title>Node33&#45;&gt;Node26</title>
<path fill="none" stroke="midnightblue" d="M774.93,-886.348C780.038,-883.872 784.944,-880.798 789,-877 816.279,-851.451 796.114,-824.718 825,-801 827.057,-799.311 829.243,-797.77 831.528,-796.363"/>
<polygon fill="midnightblue" stroke="midnightblue" points="833.491,-799.288 840.759,-791.579 830.27,-793.073 833.491,-799.288"/>
</g>
<!-- Node33&#45;&gt;Node28 -->
<g id="edge42" class="edge"><title>Node33&#45;&gt;Node28</title>
<path fill="none" stroke="midnightblue" d="M775.609,-904.245C797.593,-909.483 826.4,-916.346 850.808,-922.161"/>
<polygon fill="midnightblue" stroke="midnightblue" points="850.077,-925.585 860.616,-924.498 851.7,-918.776 850.077,-925.585"/>
</g>
<!-- Node33&#45;&gt;Node30 -->
<g id="edge43" class="edge"><title>Node33&#45;&gt;Node30</title>
<path fill="none" stroke="midnightblue" d="M775.609,-896C794.117,-896 817.462,-896 838.946,-896"/>
<polygon fill="midnightblue" stroke="midnightblue" points="838.987,-899.5 848.987,-896 838.987,-892.5 838.987,-899.5"/>
</g>
<!-- Node33&#45;&gt;Node31 -->
<g id="edge44" class="edge"><title>Node33&#45;&gt;Node31</title>
<path fill="none" stroke="midnightblue" d="M775.609,-887.755C798.237,-882.364 828.095,-875.25 852.942,-869.33"/>
<polygon fill="midnightblue" stroke="midnightblue" points="853.978,-872.682 862.895,-866.959 852.356,-865.872 853.978,-872.682"/>
</g>
<!-- Node33&#45;&gt;Node32 -->
<g id="edge45" class="edge"><title>Node33&#45;&gt;Node32</title>
<path fill="none" stroke="midnightblue" d="M770.956,-886.479C777.178,-883.871 783.506,-880.716 789,-877 808.271,-863.967 804.921,-850.75 825,-839 828.844,-836.75 832.95,-834.765 837.186,-833.013"/>
<polygon fill="midnightblue" stroke="midnightblue" points="838.442,-836.28 846.616,-829.54 836.023,-829.712 838.442,-836.28"/>
</g>
<!-- Node36 -->
<g id="node36" class="node"><title>Node36</title>
<g id="a_node36"><a xlink:href="util_8cpp.html#a162859252c5665f520a6d4bce967947c" target="_top" xlink:title="Most paths passed as configuration arguments are treated as relative to the datadir if they are not a...">
<polygon fill="white" stroke="black" points="522.5,-886.5 522.5,-905.5 637.5,-905.5 637.5,-886.5 522.5,-886.5"/>
<text text-anchor="middle" x="580" y="-893.5" font-family="Helvetica,sans-Serif" font-size="10.00">AbsPathForConfigVal</text>
</a>
</g>
</g>
<!-- Node35&#45;&gt;Node36 -->
<g id="edge48" class="edge"><title>Node35&#45;&gt;Node36</title>
<path fill="none" stroke="midnightblue" d="M443.616,-896C463.763,-896 488.985,-896 512.181,-896"/>
<polygon fill="midnightblue" stroke="midnightblue" points="512.323,-899.5 522.323,-896 512.323,-892.5 512.323,-899.5"/>
</g>
<!-- Node36&#45;&gt;Node29 -->
<g id="edge49" class="edge"><title>Node36&#45;&gt;Node29</title>
<path fill="none" stroke="midnightblue" d="M620.87,-886.411C643.247,-881.029 671.228,-874.3 694.34,-868.741"/>
<polygon fill="midnightblue" stroke="midnightblue" points="695.343,-872.1 704.247,-866.358 693.706,-865.294 695.343,-872.1"/>
</g>
<!-- Node37&#45;&gt;Node28 -->
<g id="edge52" class="edge"><title>Node37&#45;&gt;Node28</title>
<path fill="none" stroke="midnightblue" d="M435.872,-936.057C501.1,-940.108 657.737,-948.289 789,-943 802.663,-942.449 817.245,-941.521 831.207,-940.464"/>
<polygon fill="midnightblue" stroke="midnightblue" points="831.546,-943.948 841.241,-939.675 830.998,-936.97 831.546,-943.948"/>
</g>
<!-- Node37&#45;&gt;Node36 -->
<g id="edge51" class="edge"><title>Node37&#45;&gt;Node36</title>
<path fill="none" stroke="midnightblue" d="M435.707,-927.294C460.405,-921.9 495.711,-914.19 525.096,-907.772"/>
<polygon fill="midnightblue" stroke="midnightblue" points="526.193,-911.115 535.216,-905.562 524.7,-904.276 526.193,-911.115"/>
</g>
<!-- Node38&#45;&gt;Node19 -->
<g id="edge54" class="edge"><title>Node38&#45;&gt;Node19</title>
<path fill="none" stroke="midnightblue" d="M443.185,-433.636C467.402,-429.6 499.079,-424.32 525.749,-419.875"/>
<polygon fill="midnightblue" stroke="midnightblue" points="526.411,-423.313 535.7,-418.217 525.26,-416.408 526.411,-423.313"/>
</g>
<!-- Node40&#45;&gt;Node29 -->
<g id="edge57" class="edge"><title>Node40&#45;&gt;Node29</title>
<path fill="none" stroke="midnightblue" d="M637.595,-858C656.248,-858 676.718,-858 694.352,-858"/>
<polygon fill="midnightblue" stroke="midnightblue" points="694.372,-861.5 704.372,-858 694.372,-854.5 694.372,-861.5"/>
</g>
<!-- Node42 -->
<g id="node42" class="node"><title>Node42</title>
<g id="a_node42"><a xlink:href="class_c_data_stream.html#a5542e71bd7af2ab7cd7be0f381d39cb5" target="_top" xlink:title="CDataStream::reserve">
<polygon fill="white" stroke="black" points="341.5,-126.5 341.5,-145.5 466.5,-145.5 466.5,-126.5 341.5,-126.5"/>
<text text-anchor="middle" x="404" y="-133.5" font-family="Helvetica,sans-Serif" font-size="10.00">CDataStream::reserve</text>
</a>
</g>
</g>
<!-- Node41&#45;&gt;Node42 -->
<g id="edge59" class="edge"><title>Node41&#45;&gt;Node42</title>
<path fill="none" stroke="midnightblue" d="M283.682,-136C298.392,-136 314.998,-136 331.044,-136"/>
<polygon fill="midnightblue" stroke="midnightblue" points="331.482,-139.5 341.482,-136 331.482,-132.5 331.482,-139.5"/>
</g>
<!-- Node43 -->
<g id="node43" class="node"><title>Node43</title>
<g id="a_node43"><a xlink:href="class_c_data_stream.html#a1c0a87d9ea725d5d83562dfda15fbeeb" target="_top" xlink:title="CDataStream::data">
<polygon fill="white" stroke="black" points="349,-88.5 349,-107.5 459,-107.5 459,-88.5 349,-88.5"/>
<text text-anchor="middle" x="404" y="-95.5" font-family="Helvetica,sans-Serif" font-size="10.00">CDataStream::data</text>
</a>
</g>
</g>
<!-- Node41&#45;&gt;Node43 -->
<g id="edge60" class="edge"><title>Node41&#45;&gt;Node43</title>
<path fill="none" stroke="midnightblue" d="M278.889,-126.411C300.893,-121.374 328.055,-115.156 351.352,-109.823"/>
<polygon fill="midnightblue" stroke="midnightblue" points="352.446,-113.163 361.412,-107.52 350.884,-106.34 352.446,-113.163"/>
</g>
<!-- Node44 -->
<g id="node44" class="node"><title>Node44</title>
<g id="a_node44"><a xlink:href="class_c_data_stream.html#ac6567f6d600d644d9855b52bb59049cd" target="_top" xlink:title="CDataStream::size">
<polygon fill="white" stroke="black" points="350.5,-202.5 350.5,-221.5 457.5,-221.5 457.5,-202.5 350.5,-202.5"/>
<text text-anchor="middle" x="404" y="-209.5" font-family="Helvetica,sans-Serif" font-size="10.00">CDataStream::size</text>
</a>
</g>
</g>
<!-- Node41&#45;&gt;Node44 -->
<g id="edge61" class="edge"><title>Node41&#45;&gt;Node44</title>
<path fill="none" stroke="midnightblue" d="M282.379,-145.579C289.555,-148.064 296.684,-151.159 303,-155 322.878,-167.088 319.173,-180.83 339,-193 342.403,-195.089 346.05,-196.96 349.812,-198.633"/>
<polygon fill="midnightblue" stroke="midnightblue" points="348.745,-201.975 359.332,-202.399 351.32,-195.466 348.745,-201.975"/>
</g>
<!-- Node45 -->
<g id="node45" class="node"><title>Node45</title>
<g id="a_node45"><a xlink:href="class_c_data_stream.html#a5b631dc9cc9d5ba6a5b6ee910bd7d8a8" target="_top" xlink:title="XOR the contents of this stream with a certain key. ">
<polygon fill="white" stroke="black" points="352,-0.5 352,-19.5 456,-19.5 456,-0.5 352,-0.5"/>
<text text-anchor="middle" x="404" y="-7.5" font-family="Helvetica,sans-Serif" font-size="10.00">CDataStream::Xor</text>
</a>
</g>
</g>
<!-- Node41&#45;&gt;Node45 -->
<g id="edge62" class="edge"><title>Node41&#45;&gt;Node45</title>
<path fill="none" stroke="midnightblue" d="M283.782,-128.31C290.79,-125.598 297.498,-121.938 303,-117 334.45,-88.7762 307.667,-57.3539 339,-29 340.746,-27.4203 342.617,-25.9717 344.584,-24.6433"/>
<polygon fill="midnightblue" stroke="midnightblue" points="346.685,-27.4792 353.718,-19.5551 343.278,-21.364 346.685,-27.4792"/>
</g>
<!-- Node46 -->
<g id="node46" class="node"><title>Node46</title>
<g id="a_node46"><a xlink:href="namespacedbwrapper__private.html#ab98d46ebc2a1c16becdf271f913b33a3" target="_top" xlink:title="Work around circular dependency, as well as for testing in dbwrapper_tests. ">
<polygon fill="white" stroke="black" points="348.5,-39 348.5,-69 459.5,-69 459.5,-39 348.5,-39"/>
<text text-anchor="start" x="356.5" y="-57" font-family="Helvetica,sans-Serif" font-size="10.00">dbwrapper_private::</text>
<text text-anchor="middle" x="404" y="-46" font-family="Helvetica,sans-Serif" font-size="10.00">GetObfuscateKey</text>
</a>
</g>
</g>
<!-- Node41&#45;&gt;Node46 -->
<g id="edge63" class="edge"><title>Node41&#45;&gt;Node46</title>
<path fill="none" stroke="midnightblue" d="M282.379,-126.421C289.555,-123.936 296.684,-120.841 303,-117 322.878,-104.912 319.7,-91.99 339,-79 341.857,-77.0768 344.885,-75.2693 348.007,-73.576"/>
<polygon fill="midnightblue" stroke="midnightblue" points="349.6,-76.6924 356.995,-69.1049 346.483,-70.4251 349.6,-76.6924"/>
</g>
<!-- Node47 -->
<g id="node47" class="node"><title>Node47</title>
<g id="a_node47"><a xlink:href="class_c_data_stream.html#ade6ed9a3a481e333900e6496707b9692" target="_top" xlink:title="CDataStream::clear">
<polygon fill="white" stroke="black" points="348,-164.5 348,-183.5 460,-183.5 460,-164.5 348,-164.5"/>
<text text-anchor="middle" x="404" y="-171.5" font-family="Helvetica,sans-Serif" font-size="10.00">CDataStream::clear</text>
</a>
</g>
</g>
<!-- Node41&#45;&gt;Node47 -->
<g id="edge64" class="edge"><title>Node41&#45;&gt;Node47</title>
<path fill="none" stroke="midnightblue" d="M278.889,-145.589C300.893,-150.626 328.055,-156.844 351.352,-162.177"/>
<polygon fill="midnightblue" stroke="midnightblue" points="350.884,-165.66 361.412,-164.48 352.446,-158.837 350.884,-165.66"/>
</g>
<!-- Node48&#45;&gt;Node42 -->
<g id="edge66" class="edge"><title>Node48&#45;&gt;Node42</title>
<path fill="none" stroke="midnightblue" d="M278.889,-164.411C300.893,-159.374 328.055,-153.156 351.352,-147.823"/>
<polygon fill="midnightblue" stroke="midnightblue" points="352.446,-151.163 361.412,-145.52 350.884,-144.34 352.446,-151.163"/>
</g>
<!-- Node48&#45;&gt;Node43 -->
<g id="edge67" class="edge"><title>Node48&#45;&gt;Node43</title>
<path fill="none" stroke="midnightblue" d="M282.379,-164.421C289.555,-161.936 296.684,-158.841 303,-155 322.878,-142.912 319.173,-129.17 339,-117 342.403,-114.911 346.05,-113.04 349.812,-111.367"/>
<polygon fill="midnightblue" stroke="midnightblue" points="351.32,-114.534 359.332,-107.601 348.745,-108.025 351.32,-114.534"/>
</g>
<!-- Node48&#45;&gt;Node44 -->
<g id="edge68" class="edge"><title>Node48&#45;&gt;Node44</title>
<path fill="none" stroke="midnightblue" d="M278.889,-183.589C300.893,-188.626 328.055,-194.844 351.352,-200.177"/>
<polygon fill="midnightblue" stroke="midnightblue" points="350.884,-203.66 361.412,-202.48 352.446,-196.837 350.884,-203.66"/>
</g>
<!-- Node48&#45;&gt;Node47 -->
<g id="edge69" class="edge"><title>Node48&#45;&gt;Node47</title>
<path fill="none" stroke="midnightblue" d="M285.014,-174C301.423,-174 320.065,-174 337.608,-174"/>
<polygon fill="midnightblue" stroke="midnightblue" points="337.784,-177.5 347.784,-174 337.784,-170.5 337.784,-177.5"/>
</g>
</g>
</svg>
