<?xml version="1.0" encoding="UTF-8" standalone="no"?>
<!DOCTYPE svg PUBLIC "-//W3C//DTD SVG 1.1//EN"
 "http://www.w3.org/Graphics/SVG/1.1/DTD/svg11.dtd">
<!-- Generated by graphviz version 2.38.0 (20140413.2041)
 -->
<!-- Title: WalletController::getWallets Pages: 1 -->
<svg width="918pt" height="88pt"
 viewBox="0.00 0.00 918.00 88.00" xmlns="http://www.w3.org/2000/svg" xmlns:xlink="http://www.w3.org/1999/xlink">
<g id="graph0" class="graph" transform="scale(1 1) rotate(0) translate(4 84)">
<title>WalletController::getWallets</title>
<polygon fill="white" stroke="none" points="-4,4 -4,-84 914,-84 914,4 -4,4"/>
<!-- Node1 -->
<g id="node1" class="node"><title>Node1</title>
<polygon fill="#bfbfbf" stroke="black" points="0,-33 0,-52 146,-52 146,-33 0,-33"/>
<text text-anchor="middle" x="73" y="-40" font-family="Helvetica,sans-Serif" font-size="10.00">WalletController::getWallets</text>
</g>
<!-- Node2 -->
<g id="node2" class="node"><title>Node2</title>
<g id="a_node2"><a xlink:href="class_bitcoin_g_u_i.html#a99d71e1f8478ab937ce2522c8d3815e3" target="_top" xlink:title="Set the client model. ">
<polygon fill="white" stroke="black" points="182,-33 182,-52 325,-52 325,-33 182,-33"/>
<text text-anchor="middle" x="253.5" y="-40" font-family="Helvetica,sans-Serif" font-size="10.00">BitcoinGUI::setClientModel</text>
</a>
</g>
</g>
<!-- Node1&#45;&gt;Node2 -->
<g id="edge1" class="edge"><title>Node1&#45;&gt;Node2</title>
<path fill="none" stroke="midnightblue" d="M156.128,-42.5C164.731,-42.5 173.423,-42.5 181.882,-42.5"/>
<polygon fill="midnightblue" stroke="midnightblue" points="156.088,-39.0001 146.088,-42.5 156.088,-46.0001 156.088,-39.0001"/>
</g>
<!-- Node3 -->
<g id="node3" class="node"><title>Node3</title>
<g id="a_node3"><a xlink:href="class_bitcoin_application.html#a37c560d4c04d14a6da151b82caf8888f" target="_top" xlink:title="Request core shutdown. ">
<polygon fill="white" stroke="black" points="635,-49.5 635,-79.5 742,-79.5 742,-49.5 635,-49.5"/>
<text text-anchor="start" x="643" y="-67.5" font-family="Helvetica,sans-Serif" font-size="10.00">BitcoinApplication</text>
<text text-anchor="middle" x="688.5" y="-56.5" font-family="Helvetica,sans-Serif" font-size="10.00">::requestShutdown</text>
</a>
</g>
</g>
<!-- Node2&#45;&gt;Node3 -->
<g id="edge2" class="edge"><title>Node2&#45;&gt;Node3</title>
<path fill="none" stroke="midnightblue" d="M335.192,-46.5998C422.75,-51.0485 560.016,-58.0227 634.734,-61.819"/>
<polygon fill="midnightblue" stroke="midnightblue" points="335.197,-43.0957 325.033,-46.0836 334.842,-50.0867 335.197,-43.0957"/>
</g>
<!-- Node6 -->
<g id="node6" class="node"><title>Node6</title>
<g id="a_node6"><a xlink:href="class_bitcoin_application.html#a5bcf1bf32a7508326e0dd630a59a887d" target="_top" xlink:title="BitcoinApplication\l::initializeResult">
<polygon fill="white" stroke="black" points="361,-5.5 361,-35.5 462,-35.5 462,-5.5 361,-5.5"/>
<text text-anchor="start" x="369" y="-23.5" font-family="Helvetica,sans-Serif" font-size="10.00">BitcoinApplication</text>
<text text-anchor="middle" x="411.5" y="-12.5" font-family="Helvetica,sans-Serif" font-size="10.00">::initializeResult</text>
</a>
</g>
</g>
<!-- Node2&#45;&gt;Node6 -->
<g id="edge5" class="edge"><title>Node2&#45;&gt;Node6</title>
<path fill="none" stroke="midnightblue" d="M332.133,-31.5518C341.868,-30.1789 351.61,-28.805 360.754,-27.5155"/>
<polygon fill="midnightblue" stroke="midnightblue" points="331.43,-28.1162 322.017,-32.9784 332.407,-35.0476 331.43,-28.1162"/>
</g>
<!-- Node4 -->
<g id="node4" class="node"><title>Node4</title>
<g id="a_node4"><a xlink:href="bitcoin_8h.html#a810d06fb8004c57d668eeb540ae582b7" target="_top" xlink:title="GuiMain">
<polygon fill="white" stroke="black" points="778,-30 778,-49 833,-49 833,-30 778,-30"/>
<text text-anchor="middle" x="805.5" y="-37" font-family="Helvetica,sans-Serif" font-size="10.00">GuiMain</text>
</a>
</g>
</g>
<!-- Node3&#45;&gt;Node4 -->
<g id="edge3" class="edge"><title>Node3&#45;&gt;Node4</title>
<path fill="none" stroke="midnightblue" d="M752.094,-50.8927C761.108,-48.933 769.955,-47.0099 777.737,-45.318"/>
<polygon fill="midnightblue" stroke="midnightblue" points="751.316,-47.4799 742.288,-53.0244 752.803,-54.3201 751.316,-47.4799"/>
</g>
<!-- Node5 -->
<g id="node5" class="node"><title>Node5</title>
<g id="a_node5"><a xlink:href="main_8cpp.html#a0ddf1224851353fc92bfbff6f499fa97" target="_top" xlink:title="main">
<polygon fill="white" stroke="black" points="869,-30 869,-49 910,-49 910,-30 869,-30"/>
<text text-anchor="middle" x="889.5" y="-37" font-family="Helvetica,sans-Serif" font-size="10.00">main</text>
</a>
</g>
</g>
<!-- Node4&#45;&gt;Node5 -->
<g id="edge4" class="edge"><title>Node4&#45;&gt;Node5</title>
<path fill="none" stroke="midnightblue" d="M843.434,-39.5C852.205,-39.5 861.227,-39.5 868.872,-39.5"/>
<polygon fill="midnightblue" stroke="midnightblue" points="843.35,-36.0001 833.35,-39.5 843.35,-43.0001 843.35,-36.0001"/>
</g>
<!-- Node7 -->
<g id="node7" class="node"><title>Node7</title>
<g id="a_node7"><a xlink:href="class_bitcoin_application.html#a61afce9356e452c53ad4c83f5ca19df8" target="_top" xlink:title="BitcoinApplication\l::startThread">
<polygon fill="white" stroke="black" points="498,-5.5 498,-35.5 599,-35.5 599,-5.5 498,-5.5"/>
<text text-anchor="start" x="506" y="-23.5" font-family="Helvetica,sans-Serif" font-size="10.00">BitcoinApplication</text>
<text text-anchor="middle" x="548.5" y="-12.5" font-family="Helvetica,sans-Serif" font-size="10.00">::startThread</text>
</a>
</g>
</g>
<!-- Node6&#45;&gt;Node7 -->
<g id="edge6" class="edge"><title>Node6&#45;&gt;Node7</title>
<path fill="none" stroke="midnightblue" d="M472.207,-20.5C480.67,-20.5 489.299,-20.5 497.552,-20.5"/>
<polygon fill="midnightblue" stroke="midnightblue" points="472.002,-17.0001 462.002,-20.5 472.002,-24.0001 472.002,-17.0001"/>
</g>
<!-- Node7&#45;&gt;Node3 -->
<g id="edge9" class="edge"><title>Node7&#45;&gt;Node3</title>
<path fill="none" stroke="midnightblue" d="M606.335,-38.6215C617.573,-42.2044 629.255,-45.9291 640.138,-49.3991"/>
<polygon fill="midnightblue" stroke="midnightblue" points="607.196,-35.2224 596.606,-35.5192 605.07,-41.8917 607.196,-35.2224"/>
</g>
<!-- Node8 -->
<g id="node8" class="node"><title>Node8</title>
<g id="a_node8"><a xlink:href="class_bitcoin_application.html#ade19c44b87b00b6b19b433caf4c22ba6" target="_top" xlink:title="Request core initialization. ">
<polygon fill="white" stroke="black" points="638,-0.5 638,-30.5 739,-30.5 739,-0.5 638,-0.5"/>
<text text-anchor="start" x="646" y="-18.5" font-family="Helvetica,sans-Serif" font-size="10.00">BitcoinApplication</text>
<text text-anchor="middle" x="688.5" y="-7.5" font-family="Helvetica,sans-Serif" font-size="10.00">::requestInitialize</text>
</a>
</g>
</g>
<!-- Node7&#45;&gt;Node8 -->
<g id="edge7" class="edge"><title>Node7&#45;&gt;Node8</title>
<path fill="none" stroke="midnightblue" d="M609.447,-18.328C618.893,-17.9858 628.57,-17.6352 637.752,-17.3025"/>
<polygon fill="midnightblue" stroke="midnightblue" points="609.188,-14.835 599.321,-18.6949 609.441,-21.8304 609.188,-14.835"/>
</g>
<!-- Node8&#45;&gt;Node4 -->
<g id="edge8" class="edge"><title>Node8&#45;&gt;Node4</title>
<path fill="none" stroke="midnightblue" d="M749.256,-27.9709C759.255,-30.0576 769.163,-32.1253 777.768,-33.9211"/>
<polygon fill="midnightblue" stroke="midnightblue" points="749.776,-24.504 739.272,-25.8872 748.346,-31.3564 749.776,-24.504"/>
</g>
</g>
</svg>
