<?xml version="1.0" encoding="UTF-8" standalone="no"?>
<!DOCTYPE svg PUBLIC "-//W3C//DTD SVG 1.1//EN"
 "http://www.w3.org/Graphics/SVG/1.1/DTD/svg11.dtd">
<!-- Generated by graphviz version 2.38.0 (20140413.2041)
 -->
<!-- Title: PartiallyDownloadedBlock::InitData Pages: 1 -->
<svg width="1660pt" height="513pt"
 viewBox="0.00 0.00 1660.00 513.00" xmlns="http://www.w3.org/2000/svg" xmlns:xlink="http://www.w3.org/1999/xlink">
<g id="graph0" class="graph" transform="scale(1 1) rotate(0) translate(4 509)">
<title>PartiallyDownloadedBlock::InitData</title>
<polygon fill="white" stroke="none" points="-4,4 -4,-509 1656,-509 1656,4 -4,4"/>
<!-- Node1 -->
<g id="node1" class="node"><title>Node1</title>
<polygon fill="#bfbfbf" stroke="black" points="0,-297 0,-327 137,-327 137,-297 0,-297"/>
<text text-anchor="start" x="8" y="-315" font-family="Helvetica,sans-Serif" font-size="10.00">PartiallyDownloadedBlock</text>
<text text-anchor="middle" x="68.5" y="-304" font-family="Helvetica,sans-Serif" font-size="10.00">::InitData</text>
</g>
<!-- Node2 -->
<g id="node2" class="node"><title>Node2</title>
<g id="a_node2"><a xlink:href="class_c_block_header.html#a5c179f4a8b5728ba381a26d0450403b8" target="_top" xlink:title="CBlockHeader::IsNull">
<polygon fill="white" stroke="black" points="192.5,-371.5 192.5,-390.5 308.5,-390.5 308.5,-371.5 192.5,-371.5"/>
<text text-anchor="middle" x="250.5" y="-378.5" font-family="Helvetica,sans-Serif" font-size="10.00">CBlockHeader::IsNull</text>
</a>
</g>
</g>
<!-- Node1&#45;&gt;Node2 -->
<g id="edge1" class="edge"><title>Node1&#45;&gt;Node2</title>
<path fill="none" stroke="midnightblue" d="M97.8829,-327.203C118.342,-337.721 146.844,-351.484 173,-361 180.881,-363.867 189.358,-366.505 197.696,-368.86"/>
<polygon fill="midnightblue" stroke="midnightblue" points="196.81,-372.246 207.378,-371.491 198.646,-365.491 196.81,-372.246"/>
</g>
<!-- Node3 -->
<g id="node3" class="node"><title>Node3</title>
<g id="a_node3"><a xlink:href="class_c_block_header.html#ae1165e54882d364b030fb33673d64dbd" target="_top" xlink:title="CBlockHeader::GetHash">
<polygon fill="white" stroke="black" points="364,-390.5 364,-409.5 496,-409.5 496,-390.5 364,-390.5"/>
<text text-anchor="middle" x="430" y="-397.5" font-family="Helvetica,sans-Serif" font-size="10.00">CBlockHeader::GetHash</text>
</a>
</g>
</g>
<!-- Node1&#45;&gt;Node3 -->
<g id="edge32" class="edge"><title>Node1&#45;&gt;Node3</title>
<path fill="none" stroke="midnightblue" d="M81.2034,-327.141C98.5611,-348.212 133.375,-385.432 173,-400 237.857,-423.845 318.363,-418.726 371.585,-411.029"/>
<polygon fill="midnightblue" stroke="midnightblue" points="372.165,-414.482 381.524,-409.516 371.111,-407.561 372.165,-414.482"/>
</g>
<!-- Node23 -->
<g id="node23" class="node"><title>Node23</title>
<g id="a_node23"><a xlink:href="class_c_block_header_and_short_tx_i_ds.html#ac9d0ad1cc1d6589d671d1437f343c8f9" target="_top" xlink:title="CBlockHeaderAndShortTxIDs\l::BlockTxCount">
<polygon fill="white" stroke="black" points="173,-322 173,-352 328,-352 328,-322 173,-322"/>
<text text-anchor="start" x="181" y="-340" font-family="Helvetica,sans-Serif" font-size="10.00">CBlockHeaderAndShortTxIDs</text>
<text text-anchor="middle" x="250.5" y="-329" font-family="Helvetica,sans-Serif" font-size="10.00">::BlockTxCount</text>
</a>
</g>
</g>
<!-- Node1&#45;&gt;Node23 -->
<g id="edge28" class="edge"><title>Node1&#45;&gt;Node23</title>
<path fill="none" stroke="midnightblue" d="M137.037,-321.38C145.426,-322.545 154.094,-323.749 162.721,-324.947"/>
<polygon fill="midnightblue" stroke="midnightblue" points="162.426,-328.44 172.812,-326.349 163.389,-321.506 162.426,-328.44"/>
</g>
<!-- Node24 -->
<g id="node24" class="node"><title>Node24</title>
<g id="a_node24"><a xlink:href="class_c_block_header_and_short_tx_i_ds.html#a6e25441e2a7d921e109fa8c3c95d554c" target="_top" xlink:title="CBlockHeaderAndShortTxIDs\l::GetShortID">
<polygon fill="white" stroke="black" points="173,-273 173,-303 328,-303 328,-273 173,-273"/>
<text text-anchor="start" x="181" y="-291" font-family="Helvetica,sans-Serif" font-size="10.00">CBlockHeaderAndShortTxIDs</text>
<text text-anchor="middle" x="250.5" y="-280" font-family="Helvetica,sans-Serif" font-size="10.00">::GetShortID</text>
</a>
</g>
</g>
<!-- Node1&#45;&gt;Node24 -->
<g id="edge29" class="edge"><title>Node1&#45;&gt;Node24</title>
<path fill="none" stroke="midnightblue" d="M137.037,-302.995C145.426,-301.876 154.094,-300.721 162.721,-299.571"/>
<polygon fill="midnightblue" stroke="midnightblue" points="163.362,-303.016 172.812,-298.225 162.437,-296.077 163.362,-303.016"/>
</g>
<!-- Node27 -->
<g id="node27" class="node"><title>Node27</title>
<g id="a_node27"><a xlink:href="classbase__blob.html#a1a26b5da921f48b09b228d1bfda05088" target="_top" xlink:title="base_blob::ToString">
<polygon fill="white" stroke="black" points="195.5,-234.5 195.5,-253.5 305.5,-253.5 305.5,-234.5 195.5,-234.5"/>
<text text-anchor="middle" x="250.5" y="-241.5" font-family="Helvetica,sans-Serif" font-size="10.00">base_blob::ToString</text>
</a>
</g>
</g>
<!-- Node1&#45;&gt;Node27 -->
<g id="edge33" class="edge"><title>Node1&#45;&gt;Node27</title>
<path fill="none" stroke="midnightblue" d="M97.4104,-296.924C117.883,-286.33 146.599,-272.422 173,-263 179.99,-260.505 187.452,-258.215 194.872,-256.154"/>
<polygon fill="midnightblue" stroke="midnightblue" points="195.793,-259.531 204.559,-253.58 193.995,-252.766 195.793,-259.531"/>
</g>
<!-- Node41 -->
<g id="node41" class="node"><title>Node41</title>
<g id="a_node41"><a xlink:href="serialize_8h.html#adb5a4516b4946127a59c79d21efd61ca" target="_top" xlink:title="GetSerializeSize">
<polygon fill="white" stroke="black" points="203,-196.5 203,-215.5 298,-215.5 298,-196.5 203,-196.5"/>
<text text-anchor="middle" x="250.5" y="-203.5" font-family="Helvetica,sans-Serif" font-size="10.00">GetSerializeSize</text>
</a>
</g>
</g>
<!-- Node1&#45;&gt;Node41 -->
<g id="edge48" class="edge"><title>Node1&#45;&gt;Node41</title>
<path fill="none" stroke="midnightblue" d="M83.0351,-296.983C101.472,-277.456 136.398,-243.649 173,-225 179.371,-221.754 186.328,-219.041 193.367,-216.78"/>
<polygon fill="midnightblue" stroke="midnightblue" points="194.355,-220.138 202.968,-213.968 192.387,-213.42 194.355,-220.138"/>
</g>
<!-- Node2&#45;&gt;Node3 -->
<g id="edge2" class="edge"><title>Node2&#45;&gt;Node3</title>
<path fill="none" stroke="midnightblue" d="M308.639,-387.116C322.967,-388.65 338.559,-390.319 353.625,-391.932"/>
<polygon fill="midnightblue" stroke="midnightblue" points="353.633,-395.452 363.949,-393.037 354.378,-388.492 353.633,-395.452"/>
</g>
<!-- Node4 -->
<g id="node4" class="node"><title>Node4</title>
<g id="a_node4"><a xlink:href="hash_8h.html#a6de694e43f17c62025c6883965b65e63" target="_top" xlink:title="Compute the 256&#45;bit hash of an object&#39;s serialization. ">
<polygon fill="white" stroke="black" points="551,-390.5 551,-409.5 633,-409.5 633,-390.5 551,-390.5"/>
<text text-anchor="middle" x="592" y="-397.5" font-family="Helvetica,sans-Serif" font-size="10.00">SerializeHash</text>
</a>
</g>
</g>
<!-- Node3&#45;&gt;Node4 -->
<g id="edge3" class="edge"><title>Node3&#45;&gt;Node4</title>
<path fill="none" stroke="midnightblue" d="M496.078,-400C510.977,-400 526.591,-400 540.754,-400"/>
<polygon fill="midnightblue" stroke="midnightblue" points="540.78,-403.5 550.78,-400 540.78,-396.5 540.78,-403.5"/>
</g>
<!-- Node5 -->
<g id="node5" class="node"><title>Node5</title>
<g id="a_node5"><a xlink:href="class_c_hash_writer.html#ae94a937211502eabf19477630090093a" target="_top" xlink:title="CHashWriter::GetHash">
<polygon fill="white" stroke="black" points="810.5,-485.5 810.5,-504.5 933.5,-504.5 933.5,-485.5 810.5,-485.5"/>
<text text-anchor="middle" x="872" y="-492.5" font-family="Helvetica,sans-Serif" font-size="10.00">CHashWriter::GetHash</text>
</a>
</g>
</g>
<!-- Node4&#45;&gt;Node5 -->
<g id="edge4" class="edge"><title>Node4&#45;&gt;Node5</title>
<path fill="none" stroke="midnightblue" d="M619.149,-409.59C659.653,-424.356 740.084,-453.327 809,-476 815.538,-478.151 822.49,-480.359 829.285,-482.473"/>
<polygon fill="midnightblue" stroke="midnightblue" points="828.474,-485.885 839.061,-485.486 830.536,-479.196 828.474,-485.885"/>
</g>
<!-- Node14 -->
<g id="node14" class="node"><title>Node14</title>
<g id="a_node14"><a xlink:href="hash_8h.html#a3cf0406d24590eaad9a3163c552e9730" target="_top" xlink:title="MurmurHash3">
<polygon fill="white" stroke="black" points="688,-333.5 688,-352.5 773,-352.5 773,-333.5 688,-333.5"/>
<text text-anchor="middle" x="730.5" y="-340.5" font-family="Helvetica,sans-Serif" font-size="10.00">MurmurHash3</text>
</a>
</g>
</g>
<!-- Node4&#45;&gt;Node14 -->
<g id="edge14" class="edge"><title>Node4&#45;&gt;Node14</title>
<path fill="none" stroke="midnightblue" d="M615.847,-390.459C638.091,-381.171 672.112,-366.964 697.137,-356.514"/>
<polygon fill="midnightblue" stroke="midnightblue" points="698.699,-359.655 706.578,-352.572 696.002,-353.195 698.699,-359.655"/>
</g>
<!-- Node16 -->
<g id="node16" class="node"><title>Node16</title>
<g id="a_node16"><a xlink:href="hash_8h.html#a391c1a6a1f947abbc53cc51fc709110e" target="_top" xlink:title="BIP32Hash">
<polygon fill="white" stroke="black" points="696.5,-390.5 696.5,-409.5 764.5,-409.5 764.5,-390.5 696.5,-390.5"/>
<text text-anchor="middle" x="730.5" y="-397.5" font-family="Helvetica,sans-Serif" font-size="10.00">BIP32Hash</text>
</a>
</g>
</g>
<!-- Node4&#45;&gt;Node16 -->
<g id="edge16" class="edge"><title>Node4&#45;&gt;Node16</title>
<path fill="none" stroke="midnightblue" d="M633.216,-400C649.888,-400 669.261,-400 686.24,-400"/>
<polygon fill="midnightblue" stroke="midnightblue" points="686.457,-403.5 696.457,-400 686.457,-396.5 686.457,-403.5"/>
</g>
<!-- Node6 -->
<g id="node6" class="node"><title>Node6</title>
<g id="a_node6"><a xlink:href="class_c_hash256.html#aa8a70c1b7cf24ce7d00240a1131cf4e7" target="_top" xlink:title="CHash256::Finalize">
<polygon fill="white" stroke="black" points="986,-480.5 986,-499.5 1093,-499.5 1093,-480.5 986,-480.5"/>
<text text-anchor="middle" x="1039.5" y="-487.5" font-family="Helvetica,sans-Serif" font-size="10.00">CHash256::Finalize</text>
</a>
</g>
</g>
<!-- Node5&#45;&gt;Node6 -->
<g id="edge5" class="edge"><title>Node5&#45;&gt;Node6</title>
<path fill="none" stroke="midnightblue" d="M933.686,-493.167C947.286,-492.756 961.744,-492.319 975.439,-491.905"/>
<polygon fill="midnightblue" stroke="midnightblue" points="975.845,-495.395 985.735,-491.594 975.634,-488.398 975.845,-495.395"/>
</g>
<!-- Node7 -->
<g id="node7" class="node"><title>Node7</title>
<g id="a_node7"><a xlink:href="class_c_s_h_a256.html#a4259230be0caefa590bc324fc12b9b90" target="_top" xlink:title="CSHA256::Finalize">
<polygon fill="white" stroke="black" points="1144,-461.5 1144,-480.5 1247,-480.5 1247,-461.5 1144,-461.5"/>
<text text-anchor="middle" x="1195.5" y="-468.5" font-family="Helvetica,sans-Serif" font-size="10.00">CSHA256::Finalize</text>
</a>
</g>
</g>
<!-- Node6&#45;&gt;Node7 -->
<g id="edge6" class="edge"><title>Node6&#45;&gt;Node7</title>
<path fill="none" stroke="midnightblue" d="M1093.07,-483.514C1106.19,-481.895 1120.37,-480.146 1133.85,-478.483"/>
<polygon fill="midnightblue" stroke="midnightblue" points="1134.49,-481.93 1143.99,-477.232 1133.64,-474.983 1134.49,-481.93"/>
</g>
<!-- Node8 -->
<g id="node8" class="node"><title>Node8</title>
<g id="a_node8"><a xlink:href="class_c_s_h_a256.html#a9d7de520a562655da85349372820c883" target="_top" xlink:title="CSHA256::Write">
<polygon fill="white" stroke="black" points="1283,-456.5 1283,-475.5 1375,-475.5 1375,-456.5 1283,-456.5"/>
<text text-anchor="middle" x="1329" y="-463.5" font-family="Helvetica,sans-Serif" font-size="10.00">CSHA256::Write</text>
</a>
</g>
</g>
<!-- Node6&#45;&gt;Node8 -->
<g id="edge13" class="edge"><title>Node6&#45;&gt;Node8</title>
<path fill="none" stroke="midnightblue" d="M1093.42,-494.161C1135.32,-496.456 1195.2,-497.513 1247,-490 1262.3,-487.781 1278.73,-483.32 1292.77,-478.84"/>
<polygon fill="midnightblue" stroke="midnightblue" points="1294.13,-482.076 1302.52,-475.606 1291.93,-475.432 1294.13,-482.076"/>
</g>
<!-- Node13 -->
<g id="node13" class="node"><title>Node13</title>
<g id="a_node13"><a xlink:href="class_c_s_h_a256.html#a2122395dd5604990eaa0077b43a0e8d4" target="_top" xlink:title="CSHA256::Reset">
<polygon fill="white" stroke="black" points="1148,-423.5 1148,-442.5 1243,-442.5 1243,-423.5 1148,-423.5"/>
<text text-anchor="middle" x="1195.5" y="-430.5" font-family="Helvetica,sans-Serif" font-size="10.00">CSHA256::Reset</text>
</a>
</g>
</g>
<!-- Node6&#45;&gt;Node13 -->
<g id="edge12" class="edge"><title>Node6&#45;&gt;Node13</title>
<path fill="none" stroke="midnightblue" d="M1066.28,-480.459C1091.71,-471.047 1130.78,-456.586 1159.11,-446.1"/>
<polygon fill="midnightblue" stroke="midnightblue" points="1160.48,-449.325 1168.64,-442.572 1158.05,-442.76 1160.48,-449.325"/>
</g>
<!-- Node7&#45;&gt;Node8 -->
<g id="edge7" class="edge"><title>Node7&#45;&gt;Node8</title>
<path fill="none" stroke="midnightblue" d="M1247.34,-469.067C1255.67,-468.75 1264.33,-468.421 1272.75,-468.101"/>
<polygon fill="midnightblue" stroke="midnightblue" points="1273.01,-471.593 1282.87,-467.716 1272.74,-464.599 1273.01,-471.593"/>
</g>
<!-- Node9 -->
<g id="node9" class="node"><title>Node9</title>
<g id="a_node9"><a xlink:href="glibc__compat_8cpp.html#a0f46826ab0466591e136db24394923cf" target="_top" xlink:title="memcpy">
<polygon fill="white" stroke="black" points="1449.5,-437.5 1449.5,-456.5 1508.5,-456.5 1508.5,-437.5 1449.5,-437.5"/>
<text text-anchor="middle" x="1479" y="-444.5" font-family="Helvetica,sans-Serif" font-size="10.00">memcpy</text>
</a>
</g>
</g>
<!-- Node8&#45;&gt;Node9 -->
<g id="edge8" class="edge"><title>Node8&#45;&gt;Node9</title>
<path fill="none" stroke="midnightblue" d="M1375.21,-460.196C1395.67,-457.569 1419.62,-454.495 1439.25,-451.975"/>
<polygon fill="midnightblue" stroke="midnightblue" points="1439.89,-455.421 1449.37,-450.676 1439,-448.478 1439.89,-455.421"/>
</g>
<!-- Node12 -->
<g id="node12" class="node"><title>Node12</title>
<g id="a_node12"><a xlink:href="namespacesha256__shani.html#a97d2e267c87add9a1172d948e05ba471" target="_top" xlink:title="sha256_shani::Transform">
<polygon fill="white" stroke="black" points="1411,-390.5 1411,-409.5 1547,-409.5 1547,-390.5 1411,-390.5"/>
<text text-anchor="middle" x="1479" y="-397.5" font-family="Helvetica,sans-Serif" font-size="10.00">sha256_shani::Transform</text>
</a>
</g>
</g>
<!-- Node8&#45;&gt;Node12 -->
<g id="edge11" class="edge"><title>Node8&#45;&gt;Node12</title>
<path fill="none" stroke="midnightblue" d="M1349.86,-456.391C1366.19,-448.561 1389.98,-437.316 1411,-428 1421.94,-423.15 1433.98,-418.046 1444.8,-413.544"/>
<polygon fill="midnightblue" stroke="midnightblue" points="1446.43,-416.66 1454.33,-409.603 1443.75,-410.192 1446.43,-416.66"/>
</g>
<!-- Node10 -->
<g id="node10" class="node"><title>Node10</title>
<g id="a_node10"><a xlink:href="glibc__compat_8cpp.html#a9778d49e9029dd75bc53ecbbf9f5e9a1" target="_top" xlink:title="memmove">
<polygon fill="white" stroke="black" points="1583,-456.5 1583,-475.5 1652,-475.5 1652,-456.5 1583,-456.5"/>
<text text-anchor="middle" x="1617.5" y="-463.5" font-family="Helvetica,sans-Serif" font-size="10.00">memmove</text>
</a>
</g>
</g>
<!-- Node9&#45;&gt;Node10 -->
<g id="edge9" class="edge"><title>Node9&#45;&gt;Node10</title>
<path fill="none" stroke="midnightblue" d="M1508.61,-450.983C1527.16,-453.564 1551.67,-456.976 1572.65,-459.896"/>
<polygon fill="midnightblue" stroke="midnightblue" points="1572.23,-463.372 1582.62,-461.284 1573.2,-456.439 1572.23,-463.372"/>
</g>
<!-- Node11 -->
<g id="node11" class="node"><title>Node11</title>
<g id="a_node11"><a xlink:href="glibc__compat_8cpp.html#a424ac71631da5ada2976630ff67051d1" target="_top" xlink:title="__chk_fail">
<polygon fill="white" stroke="black" points="1586.5,-418.5 1586.5,-437.5 1648.5,-437.5 1648.5,-418.5 1586.5,-418.5"/>
<text text-anchor="middle" x="1617.5" y="-425.5" font-family="Helvetica,sans-Serif" font-size="10.00">__chk_fail</text>
</a>
</g>
</g>
<!-- Node9&#45;&gt;Node11 -->
<g id="edge10" class="edge"><title>Node9&#45;&gt;Node11</title>
<path fill="none" stroke="midnightblue" d="M1508.61,-443.017C1528.19,-440.293 1554.41,-436.642 1576.11,-433.623"/>
<polygon fill="midnightblue" stroke="midnightblue" points="1576.61,-437.087 1586.03,-432.242 1575.64,-430.154 1576.61,-437.087"/>
</g>
<!-- Node15 -->
<g id="node15" class="node"><title>Node15</title>
<g id="a_node15"><a xlink:href="hash_8cpp.html#aa8045f521ac28bee04e4980f93272dc0" target="_top" xlink:title="ROTL32">
<polygon fill="white" stroke="black" points="845.5,-295.5 845.5,-314.5 898.5,-314.5 898.5,-295.5 845.5,-295.5"/>
<text text-anchor="middle" x="872" y="-302.5" font-family="Helvetica,sans-Serif" font-size="10.00">ROTL32</text>
</a>
</g>
</g>
<!-- Node14&#45;&gt;Node15 -->
<g id="edge15" class="edge"><title>Node14&#45;&gt;Node15</title>
<path fill="none" stroke="midnightblue" d="M766.702,-333.411C787.788,-327.667 814.511,-320.388 835.628,-314.635"/>
<polygon fill="midnightblue" stroke="midnightblue" points="836.766,-317.953 845.495,-311.948 834.926,-311.199 836.766,-317.953"/>
</g>
<!-- Node17 -->
<g id="node17" class="node"><title>Node17</title>
<g id="a_node17"><a xlink:href="classbase__blob.html#aeee68e00ceeacf49086e98b661e017ff" target="_top" xlink:title="base_blob::begin">
<polygon fill="white" stroke="black" points="823,-447.5 823,-466.5 921,-466.5 921,-447.5 823,-447.5"/>
<text text-anchor="middle" x="872" y="-454.5" font-family="Helvetica,sans-Serif" font-size="10.00">base_blob::begin</text>
</a>
</g>
</g>
<!-- Node16&#45;&gt;Node17 -->
<g id="edge17" class="edge"><title>Node16&#45;&gt;Node17</title>
<path fill="none" stroke="midnightblue" d="M748.992,-409.571C764.469,-417.797 787.819,-429.623 809,-438 814.567,-440.202 820.495,-442.308 826.396,-444.264"/>
<polygon fill="midnightblue" stroke="midnightblue" points="825.64,-447.697 836.23,-447.405 827.769,-441.029 825.64,-447.697"/>
</g>
<!-- Node18 -->
<g id="node18" class="node"><title>Node18</title>
<g id="a_node18"><a xlink:href="classbase__blob.html#a449c3f902fcab7af6c74aa9fee099542" target="_top" xlink:title="base_blob::size">
<polygon fill="white" stroke="black" points="827,-409.5 827,-428.5 917,-428.5 917,-409.5 827,-409.5"/>
<text text-anchor="middle" x="872" y="-416.5" font-family="Helvetica,sans-Serif" font-size="10.00">base_blob::size</text>
</a>
</g>
</g>
<!-- Node16&#45;&gt;Node18 -->
<g id="edge18" class="edge"><title>Node16&#45;&gt;Node18</title>
<path fill="none" stroke="midnightblue" d="M764.56,-404.503C780.118,-406.622 799.081,-409.205 816.667,-411.6"/>
<polygon fill="midnightblue" stroke="midnightblue" points="816.446,-415.102 826.827,-412.984 817.391,-408.166 816.446,-415.102"/>
</g>
<!-- Node19 -->
<g id="node19" class="node"><title>Node19</title>
<g id="a_node19"><a xlink:href="class_c_h_m_a_c___s_h_a512.html#aefdf2b068b668027b67c8822227a5a18" target="_top" xlink:title="CHMAC_SHA512::Write">
<polygon fill="white" stroke="black" points="809,-371.5 809,-390.5 935,-390.5 935,-371.5 809,-371.5"/>
<text text-anchor="middle" x="872" y="-378.5" font-family="Helvetica,sans-Serif" font-size="10.00">CHMAC_SHA512::Write</text>
</a>
</g>
</g>
<!-- Node16&#45;&gt;Node19 -->
<g id="edge19" class="edge"><title>Node16&#45;&gt;Node19</title>
<path fill="none" stroke="midnightblue" d="M764.56,-395.497C774.946,-394.083 786.849,-392.461 798.847,-390.827"/>
<polygon fill="midnightblue" stroke="midnightblue" points="799.481,-394.273 808.917,-389.456 798.536,-387.337 799.481,-394.273"/>
</g>
<!-- Node21 -->
<g id="node21" class="node"><title>Node21</title>
<g id="a_node21"><a xlink:href="class_c_h_m_a_c___s_h_a512.html#a3042ed5129bd381eb18ed2da201d6ed5" target="_top" xlink:title="CHMAC_SHA512::Finalize">
<polygon fill="white" stroke="black" points="971,-338.5 971,-357.5 1108,-357.5 1108,-338.5 971,-338.5"/>
<text text-anchor="middle" x="1039.5" y="-345.5" font-family="Helvetica,sans-Serif" font-size="10.00">CHMAC_SHA512::Finalize</text>
</a>
</g>
</g>
<!-- Node16&#45;&gt;Node21 -->
<g id="edge27" class="edge"><title>Node16&#45;&gt;Node21</title>
<path fill="none" stroke="midnightblue" d="M746.526,-390.39C761.647,-381.273 785.965,-368.089 809,-362 858.319,-348.964 915.59,-345.455 960.583,-345.209"/>
<polygon fill="midnightblue" stroke="midnightblue" points="960.864,-348.709 970.864,-345.208 960.864,-341.709 960.864,-348.709"/>
</g>
<!-- Node20 -->
<g id="node20" class="node"><title>Node20</title>
<g id="a_node20"><a xlink:href="class_c_s_h_a512.html#aefd8260a2c205f11d44670ae68f1aff0" target="_top" xlink:title="CSHA512::Write">
<polygon fill="white" stroke="black" points="1283,-385.5 1283,-404.5 1375,-404.5 1375,-385.5 1283,-385.5"/>
<text text-anchor="middle" x="1329" y="-392.5" font-family="Helvetica,sans-Serif" font-size="10.00">CSHA512::Write</text>
</a>
</g>
</g>
<!-- Node19&#45;&gt;Node20 -->
<g id="edge20" class="edge"><title>Node19&#45;&gt;Node20</title>
<path fill="none" stroke="midnightblue" d="M935.312,-382.917C1024.56,-385.663 1187.4,-390.674 1272.64,-393.297"/>
<polygon fill="midnightblue" stroke="midnightblue" points="1272.79,-396.803 1282.89,-393.612 1273,-389.806 1272.79,-396.803"/>
</g>
<!-- Node19&#45;&gt;Node21 -->
<g id="edge23" class="edge"><title>Node19&#45;&gt;Node21</title>
<path fill="none" stroke="midnightblue" d="M920.869,-371.455C939.567,-367.727 961.173,-363.419 980.727,-359.52"/>
<polygon fill="midnightblue" stroke="midnightblue" points="981.616,-362.911 990.738,-357.524 980.247,-356.047 981.616,-362.911"/>
</g>
<!-- Node20&#45;&gt;Node9 -->
<g id="edge21" class="edge"><title>Node20&#45;&gt;Node9</title>
<path fill="none" stroke="midnightblue" d="M1357.15,-404.538C1380.75,-412.831 1415.16,-424.921 1441.23,-434.082"/>
<polygon fill="midnightblue" stroke="midnightblue" points="1440.18,-437.422 1450.78,-437.435 1442.5,-430.818 1440.18,-437.422"/>
</g>
<!-- Node20&#45;&gt;Node12 -->
<g id="edge22" class="edge"><title>Node20&#45;&gt;Node12</title>
<path fill="none" stroke="midnightblue" d="M1375.21,-396.527C1383.34,-396.802 1392.01,-397.095 1400.75,-397.39"/>
<polygon fill="midnightblue" stroke="midnightblue" points="1400.89,-400.897 1411,-397.736 1401.12,-393.901 1400.89,-400.897"/>
</g>
<!-- Node21&#45;&gt;Node20 -->
<g id="edge26" class="edge"><title>Node21&#45;&gt;Node20</title>
<path fill="none" stroke="midnightblue" d="M1101.52,-357.544C1142.65,-364.027 1198.11,-372.87 1247,-381 1255.3,-382.38 1264.07,-383.867 1272.65,-385.338"/>
<polygon fill="midnightblue" stroke="midnightblue" points="1272.16,-388.804 1282.61,-387.05 1273.34,-381.905 1272.16,-388.804"/>
</g>
<!-- Node22 -->
<g id="node22" class="node"><title>Node22</title>
<g id="a_node22"><a xlink:href="class_c_s_h_a512.html#aef4627aae19eeeb54bf02ea7b222b688" target="_top" xlink:title="CSHA512::Finalize">
<polygon fill="white" stroke="black" points="1144,-309.5 1144,-328.5 1247,-328.5 1247,-309.5 1144,-309.5"/>
<text text-anchor="middle" x="1195.5" y="-316.5" font-family="Helvetica,sans-Serif" font-size="10.00">CSHA512::Finalize</text>
</a>
</g>
</g>
<!-- Node21&#45;&gt;Node22 -->
<g id="edge24" class="edge"><title>Node21&#45;&gt;Node22</title>
<path fill="none" stroke="midnightblue" d="M1091.35,-338.424C1104.96,-335.862 1119.8,-333.067 1133.88,-330.416"/>
<polygon fill="midnightblue" stroke="midnightblue" points="1134.78,-333.807 1143.96,-328.517 1133.49,-326.928 1134.78,-333.807"/>
</g>
<!-- Node22&#45;&gt;Node20 -->
<g id="edge25" class="edge"><title>Node22&#45;&gt;Node20</title>
<path fill="none" stroke="midnightblue" d="M1218.43,-328.684C1227.42,-332.841 1237.84,-337.908 1247,-343 1267.39,-354.331 1289.63,-368.767 1305.64,-379.553"/>
<polygon fill="midnightblue" stroke="midnightblue" points="1304.04,-382.702 1314.28,-385.43 1307.98,-376.913 1304.04,-382.702"/>
</g>
<!-- Node25 -->
<g id="node25" class="node"><title>Node25</title>
<g id="a_node25"><a xlink:href="siphash_8cpp.html#aae60994a4cd54fb47d2bf6b432ab48bc" target="_top" xlink:title="Optimized SipHash&#45;2&#45;4 implementation for uint256. ">
<polygon fill="white" stroke="black" points="383,-294.5 383,-313.5 477,-313.5 477,-294.5 383,-294.5"/>
<text text-anchor="middle" x="430" y="-301.5" font-family="Helvetica,sans-Serif" font-size="10.00">SipHashUint256</text>
</a>
</g>
</g>
<!-- Node24&#45;&gt;Node25 -->
<g id="edge30" class="edge"><title>Node24&#45;&gt;Node25</title>
<path fill="none" stroke="midnightblue" d="M328.064,-294.902C343.089,-296.256 358.589,-297.653 372.797,-298.934"/>
<polygon fill="midnightblue" stroke="midnightblue" points="372.615,-302.432 382.889,-299.844 373.244,-295.46 372.615,-302.432"/>
</g>
<!-- Node26 -->
<g id="node26" class="node"><title>Node26</title>
<g id="a_node26"><a xlink:href="classbase__blob.html#a9262479a68271d46972b8f7d86d15aeb" target="_top" xlink:title="base_blob::GetUint64">
<polygon fill="white" stroke="black" points="532,-294.5 532,-313.5 652,-313.5 652,-294.5 532,-294.5"/>
<text text-anchor="middle" x="592" y="-301.5" font-family="Helvetica,sans-Serif" font-size="10.00">base_blob::GetUint64</text>
</a>
</g>
</g>
<!-- Node25&#45;&gt;Node26 -->
<g id="edge31" class="edge"><title>Node25&#45;&gt;Node26</title>
<path fill="none" stroke="midnightblue" d="M477.279,-304C491.151,-304 506.68,-304 521.697,-304"/>
<polygon fill="midnightblue" stroke="midnightblue" points="521.985,-307.5 531.985,-304 521.985,-300.5 521.985,-307.5"/>
</g>
<!-- Node28 -->
<g id="node28" class="node"><title>Node28</title>
<g id="a_node28"><a xlink:href="classbase__blob.html#ada7be83089951dc9438f384c0587cf29" target="_top" xlink:title="base_blob::base_blob">
<polygon fill="white" stroke="black" points="370,-256.5 370,-275.5 490,-275.5 490,-256.5 370,-256.5"/>
<text text-anchor="middle" x="430" y="-263.5" font-family="Helvetica,sans-Serif" font-size="10.00">base_blob::base_blob</text>
</a>
</g>
</g>
<!-- Node27&#45;&gt;Node28 -->
<g id="edge34" class="edge"><title>Node27&#45;&gt;Node28</title>
<path fill="none" stroke="midnightblue" d="M305.72,-250.72C322.759,-252.832 341.81,-255.193 359.744,-257.416"/>
<polygon fill="midnightblue" stroke="midnightblue" points="359.506,-260.913 369.86,-258.67 360.367,-253.966 359.506,-260.913"/>
</g>
<!-- Node29 -->
<g id="node29" class="node"><title>Node29</title>
<g id="a_node29"><a xlink:href="classbase__blob.html#a9541747b1f91f9469ac0aff90665bd32" target="_top" xlink:title="base_blob::GetHex">
<polygon fill="white" stroke="black" points="376.5,-218.5 376.5,-237.5 483.5,-237.5 483.5,-218.5 376.5,-218.5"/>
<text text-anchor="middle" x="430" y="-225.5" font-family="Helvetica,sans-Serif" font-size="10.00">base_blob::GetHex</text>
</a>
</g>
</g>
<!-- Node27&#45;&gt;Node29 -->
<g id="edge35" class="edge"><title>Node27&#45;&gt;Node29</title>
<path fill="none" stroke="midnightblue" d="M305.72,-239.113C324.82,-237.391 346.448,-235.441 366.197,-233.661"/>
<polygon fill="midnightblue" stroke="midnightblue" points="366.684,-237.131 376.33,-232.748 366.056,-230.16 366.684,-237.131"/>
</g>
<!-- Node31 -->
<g id="node31" class="node"><title>Node31</title>
<g id="a_node31"><a xlink:href="classbase__blob.html#a5ec1f681a2830f4e180fe664c0eb4dd0" target="_top" xlink:title="base_blob::SetHex">
<polygon fill="white" stroke="black" points="376.5,-161.5 376.5,-180.5 483.5,-180.5 483.5,-161.5 376.5,-161.5"/>
<text text-anchor="middle" x="430" y="-168.5" font-family="Helvetica,sans-Serif" font-size="10.00">base_blob::SetHex</text>
</a>
</g>
</g>
<!-- Node27&#45;&gt;Node31 -->
<g id="edge37" class="edge"><title>Node27&#45;&gt;Node31</title>
<path fill="none" stroke="midnightblue" d="M297.783,-234.463C307.888,-231.841 318.421,-228.685 328,-225 355.556,-214.4 385.124,-197.93 405.1,-185.965"/>
<polygon fill="midnightblue" stroke="midnightblue" points="407.098,-188.847 413.823,-180.661 403.461,-182.866 407.098,-188.847"/>
</g>
<!-- Node30 -->
<g id="node30" class="node"><title>Node30</title>
<g id="a_node30"><a xlink:href="strencodings_8h.html#ace13a819ca4e98c22847d26b3b357e75" target="_top" xlink:title="HexStr">
<polygon fill="white" stroke="black" points="567,-228.5 567,-247.5 617,-247.5 617,-228.5 567,-228.5"/>
<text text-anchor="middle" x="592" y="-235.5" font-family="Helvetica,sans-Serif" font-size="10.00">HexStr</text>
</a>
</g>
</g>
<!-- Node29&#45;&gt;Node30 -->
<g id="edge36" class="edge"><title>Node29&#45;&gt;Node30</title>
<path fill="none" stroke="midnightblue" d="M483.833,-231.302C507.817,-232.801 535.497,-234.531 556.717,-235.857"/>
<polygon fill="midnightblue" stroke="midnightblue" points="556.672,-239.361 566.87,-236.492 557.108,-232.375 556.672,-239.361"/>
</g>
<!-- Node32 -->
<g id="node32" class="node"><title>Node32</title>
<g id="a_node32"><a xlink:href="strencodings_8h.html#aa30de1eac29287732050df7168cde03a" target="_top" xlink:title="Tests if the given character is a whitespace character. ">
<polygon fill="white" stroke="black" points="565,-95.5 565,-114.5 619,-114.5 619,-95.5 565,-95.5"/>
<text text-anchor="middle" x="592" y="-102.5" font-family="Helvetica,sans-Serif" font-size="10.00">IsSpace</text>
</a>
</g>
</g>
<!-- Node31&#45;&gt;Node32 -->
<g id="edge38" class="edge"><title>Node31&#45;&gt;Node32</title>
<path fill="none" stroke="midnightblue" d="M454.265,-161.403C481.716,-150.08 527.528,-131.182 558.481,-118.414"/>
<polygon fill="midnightblue" stroke="midnightblue" points="560.056,-121.55 567.966,-114.501 557.387,-115.079 560.056,-121.55"/>
</g>
<!-- Node38 -->
<g id="node38" class="node"><title>Node38</title>
<g id="a_node38"><a xlink:href="strencodings_8h.html#a3556fcd948bc859caaa04f7355a71b16" target="_top" xlink:title="Converts the given character to its lowercase equivalent. ">
<polygon fill="white" stroke="black" points="565,-190.5 565,-209.5 619,-209.5 619,-190.5 565,-190.5"/>
<text text-anchor="middle" x="592" y="-197.5" font-family="Helvetica,sans-Serif" font-size="10.00">ToLower</text>
</a>
</g>
</g>
<!-- Node31&#45;&gt;Node38 -->
<g id="edge44" class="edge"><title>Node31&#45;&gt;Node38</title>
<path fill="none" stroke="midnightblue" d="M483.833,-180.576C507.038,-184.782 533.703,-189.615 554.63,-193.408"/>
<polygon fill="midnightblue" stroke="midnightblue" points="554.237,-196.894 564.701,-195.233 555.486,-190.006 554.237,-196.894"/>
</g>
<!-- Node40 -->
<g id="node40" class="node"><title>Node40</title>
<g id="a_node40"><a xlink:href="strencodings_8cpp.html#aa59e8a8c5a39cb5041f93bb95dd02119" target="_top" xlink:title="HexDigit">
<polygon fill="white" stroke="black" points="563.5,-152.5 563.5,-171.5 620.5,-171.5 620.5,-152.5 563.5,-152.5"/>
<text text-anchor="middle" x="592" y="-159.5" font-family="Helvetica,sans-Serif" font-size="10.00">HexDigit</text>
</a>
</g>
</g>
<!-- Node31&#45;&gt;Node40 -->
<g id="edge47" class="edge"><title>Node31&#45;&gt;Node40</title>
<path fill="none" stroke="midnightblue" d="M483.833,-168.028C506.571,-166.749 532.631,-165.283 553.359,-164.117"/>
<polygon fill="midnightblue" stroke="midnightblue" points="553.579,-167.611 563.367,-163.554 553.186,-160.622 553.579,-167.611"/>
</g>
<!-- Node33 -->
<g id="node33" class="node"><title>Node33</title>
<g id="a_node33"><a xlink:href="strencodings_8h.html#a28581aab6ddb04da2c69bd0f0ffee6ae" target="_top" xlink:title="Convert string to signed 32&#45;bit integer with strict parse error feedback. ">
<polygon fill="white" stroke="black" points="697,-114.5 697,-133.5 764,-133.5 764,-114.5 697,-114.5"/>
<text text-anchor="middle" x="730.5" y="-121.5" font-family="Helvetica,sans-Serif" font-size="10.00">ParseInt32</text>
</a>
</g>
</g>
<!-- Node32&#45;&gt;Node33 -->
<g id="edge39" class="edge"><title>Node32&#45;&gt;Node33</title>
<path fill="none" stroke="midnightblue" d="M619.319,-108.663C638.446,-111.326 664.748,-114.987 686.856,-118.064"/>
<polygon fill="midnightblue" stroke="midnightblue" points="686.613,-121.564 697,-119.476 687.578,-114.631 686.613,-121.564"/>
</g>
<!-- Node34 -->
<g id="node34" class="node"><title>Node34</title>
<g id="a_node34"><a xlink:href="strencodings_8h.html#a7598ac1ae52f69abe5f103fc6e4c9bd9" target="_top" xlink:title="Convert string to signed 64&#45;bit integer with strict parse error feedback. ">
<polygon fill="white" stroke="black" points="697,-76.5 697,-95.5 764,-95.5 764,-76.5 697,-76.5"/>
<text text-anchor="middle" x="730.5" y="-83.5" font-family="Helvetica,sans-Serif" font-size="10.00">ParseInt64</text>
</a>
</g>
</g>
<!-- Node32&#45;&gt;Node34 -->
<g id="edge40" class="edge"><title>Node32&#45;&gt;Node34</title>
<path fill="none" stroke="midnightblue" d="M619.319,-101.337C638.446,-98.6742 664.748,-95.0131 686.856,-91.9357"/>
<polygon fill="midnightblue" stroke="midnightblue" points="687.578,-95.3691 697,-90.5238 686.613,-88.436 687.578,-95.3691"/>
</g>
<!-- Node35 -->
<g id="node35" class="node"><title>Node35</title>
<g id="a_node35"><a xlink:href="strencodings_8h.html#ad4cd67d1bc9cc91801e9c22a0bd94ca7" target="_top" xlink:title="Convert decimal string to unsigned 32&#45;bit integer with strict parse error feedback. ">
<polygon fill="white" stroke="black" points="693.5,-38.5 693.5,-57.5 767.5,-57.5 767.5,-38.5 693.5,-38.5"/>
<text text-anchor="middle" x="730.5" y="-45.5" font-family="Helvetica,sans-Serif" font-size="10.00">ParseUInt32</text>
</a>
</g>
</g>
<!-- Node32&#45;&gt;Node35 -->
<g id="edge41" class="edge"><title>Node32&#45;&gt;Node35</title>
<path fill="none" stroke="midnightblue" d="M615.847,-95.4595C638.091,-86.1706 672.112,-71.9642 697.137,-61.5143"/>
<polygon fill="midnightblue" stroke="midnightblue" points="698.699,-64.6548 706.578,-57.5716 696.002,-58.1953 698.699,-64.6548"/>
</g>
<!-- Node36 -->
<g id="node36" class="node"><title>Node36</title>
<g id="a_node36"><a xlink:href="strencodings_8h.html#ab721ae646504bb11a2ac467cc9013659" target="_top" xlink:title="Convert decimal string to unsigned 64&#45;bit integer with strict parse error feedback. ">
<polygon fill="white" stroke="black" points="693.5,-0.5 693.5,-19.5 767.5,-19.5 767.5,-0.5 693.5,-0.5"/>
<text text-anchor="middle" x="730.5" y="-7.5" font-family="Helvetica,sans-Serif" font-size="10.00">ParseUInt64</text>
</a>
</g>
</g>
<!-- Node32&#45;&gt;Node36 -->
<g id="edge42" class="edge"><title>Node32&#45;&gt;Node36</title>
<path fill="none" stroke="midnightblue" d="M603.191,-95.4337C619.933,-80.0562 654.73,-49.4919 688,-29 690.766,-27.2962 693.711,-25.6508 696.706,-24.0888"/>
<polygon fill="midnightblue" stroke="midnightblue" points="698.272,-27.2192 705.714,-19.678 695.193,-20.9324 698.272,-27.2192"/>
</g>
<!-- Node37 -->
<g id="node37" class="node"><title>Node37</title>
<g id="a_node37"><a xlink:href="strencodings_8h.html#ab126210409626dcb61aeb0e4300a8a46" target="_top" xlink:title="Convert string to double with strict parse error feedback. ">
<polygon fill="white" stroke="black" points="692,-152.5 692,-171.5 769,-171.5 769,-152.5 692,-152.5"/>
<text text-anchor="middle" x="730.5" y="-159.5" font-family="Helvetica,sans-Serif" font-size="10.00">ParseDouble</text>
</a>
</g>
</g>
<!-- Node32&#45;&gt;Node37 -->
<g id="edge43" class="edge"><title>Node32&#45;&gt;Node37</title>
<path fill="none" stroke="midnightblue" d="M615.847,-114.541C638.091,-123.829 672.112,-138.036 697.137,-148.486"/>
<polygon fill="midnightblue" stroke="midnightblue" points="696.002,-151.805 706.578,-152.428 698.699,-145.345 696.002,-151.805"/>
</g>
<!-- Node39 -->
<g id="node39" class="node"><title>Node39</title>
<g id="a_node39"><a xlink:href="strencodings_8h.html#a0112c4a0e8c623b7fc4a52730c57e2d0" target="_top" xlink:title="Converts the given string to its lowercase equivalent. ">
<polygon fill="white" stroke="black" points="698,-190.5 698,-209.5 763,-209.5 763,-190.5 698,-190.5"/>
<text text-anchor="middle" x="730.5" y="-197.5" font-family="Helvetica,sans-Serif" font-size="10.00">Downcase</text>
</a>
</g>
</g>
<!-- Node38&#45;&gt;Node39 -->
<g id="edge45" class="edge"><title>Node38&#45;&gt;Node39</title>
<path fill="none" stroke="midnightblue" d="M619.319,-194.542C638.714,-193.158 665.485,-192.886 687.782,-193.725"/>
<polygon fill="midnightblue" stroke="midnightblue" points="687.837,-197.232 697.991,-194.208 688.168,-190.24 687.837,-197.232"/>
</g>
<!-- Node39&#45;&gt;Node38 -->
<g id="edge46" class="edge"><title>Node39&#45;&gt;Node38</title>
<path fill="none" stroke="midnightblue" d="M697.991,-205.792C677.502,-206.978 650.719,-207.063 629.333,-206.046"/>
<polygon fill="midnightblue" stroke="midnightblue" points="629.507,-202.55 619.319,-205.458 629.096,-209.538 629.507,-202.55"/>
</g>
</g>
</svg>
