<?xml version="1.0" encoding="UTF-8" standalone="no"?>
<!DOCTYPE svg PUBLIC "-//W3C//DTD SVG 1.1//EN"
 "http://www.w3.org/Graphics/SVG/1.1/DTD/svg11.dtd">
<!-- Generated by graphviz version 2.49.3 (0)
 -->
<!-- Title: RPCConsole::setNumConnections Pages: 1 -->
<svg width="775pt" height="116pt"
 viewBox="0.00 0.00 775.00 115.50" xmlns="http://www.w3.org/2000/svg" xmlns:xlink="http://www.w3.org/1999/xlink">
<g id="graph0" class="graph" transform="scale(1 1) rotate(0) translate(4 111.5)">
<title>RPCConsole::setNumConnections</title>
<polygon fill="white" stroke="transparent" points="-4,4 -4,-111.5 771,-111.5 771,4 -4,4"/>
<!-- Node1 -->
<g id="node1" class="node">
<title>Node1</title>
<g id="a_node1"><a xlink:title="Set number of connections shown in the UI.">
<polygon fill="#bfbfbf" stroke="black" points="0,-38.5 0,-57.5 179,-57.5 179,-38.5 0,-38.5"/>
<text text-anchor="middle" x="89.5" y="-45.5" font-family="Helvetica,sans-Serif" font-size="10.00">RPCConsole::setNumConnections</text>
</a>
</g>
</g>
<!-- Node2 -->
<g id="node2" class="node">
<title>Node2</title>
<g id="a_node2"><a xlink:href="class_r_p_c_console.html#a62c423db4ed102ce48dc650e15e49a96" target="_top" xlink:title="Update UI with latest network info from model.">
<polygon fill="white" stroke="black" points="215,-33 215,-63 371,-63 371,-33 215,-33"/>
<text text-anchor="start" x="223" y="-51" font-family="Helvetica,sans-Serif" font-size="10.00">RPCConsole::updateNetwork</text>
<text text-anchor="middle" x="293" y="-40" font-family="Helvetica,sans-Serif" font-size="10.00">State</text>
</a>
</g>
</g>
<!-- Node1&#45;&gt;Node2 -->
<g id="edge1" class="edge">
<title>Node1&#45;&gt;Node2</title>
<path fill="none" stroke="midnightblue" d="M179.17,-48C187.66,-48 196.25,-48 204.72,-48"/>
<polygon fill="midnightblue" stroke="midnightblue" points="204.97,-51.5 214.97,-48 204.97,-44.5 204.97,-51.5"/>
</g>
<!-- Node3 -->
<g id="node3" class="node">
<title>Node3</title>
<g id="a_node3"><a xlink:href="classinterfaces_1_1_node.html#a7dad5e394f6afbacdcacd02640f3762c" target="_top" xlink:title="Get network active.">
<polygon fill="white" stroke="black" points="417,-77 417,-107 577,-107 577,-77 417,-77"/>
<text text-anchor="start" x="425" y="-95" font-family="Helvetica,sans-Serif" font-size="10.00">interfaces::Node::getNetwork</text>
<text text-anchor="middle" x="497" y="-84" font-family="Helvetica,sans-Serif" font-size="10.00">Active</text>
</a>
</g>
</g>
<!-- Node2&#45;&gt;Node3 -->
<g id="edge2" class="edge">
<title>Node2&#45;&gt;Node3</title>
<path fill="none" stroke="midnightblue" d="M362.95,-63.02C380.41,-66.82 399.29,-70.93 417.19,-74.83"/>
<polygon fill="midnightblue" stroke="midnightblue" points="416.5,-78.27 427.02,-76.97 417.99,-71.43 416.5,-78.27"/>
</g>
<!-- Node4 -->
<g id="node4" class="node">
<title>Node4</title>
<g id="a_node4"><a xlink:href="class_client_model.html#ab1a71928e2ff3902e854d301f4cfe6ef" target="_top" xlink:title="Return number of connections, default is in&#45; and outbound (total)">
<polygon fill="white" stroke="black" points="407,-38.5 407,-57.5 587,-57.5 587,-38.5 407,-38.5"/>
<text text-anchor="middle" x="497" y="-45.5" font-family="Helvetica,sans-Serif" font-size="10.00">ClientModel::getNumConnections</text>
</a>
</g>
</g>
<!-- Node2&#45;&gt;Node4 -->
<g id="edge3" class="edge">
<title>Node2&#45;&gt;Node4</title>
<path fill="none" stroke="midnightblue" d="M371.23,-48C379.64,-48 388.28,-48 396.9,-48"/>
<polygon fill="midnightblue" stroke="midnightblue" points="396.99,-51.5 406.99,-48 396.99,-44.5 396.99,-51.5"/>
</g>
<!-- Node6 -->
<g id="node6" class="node">
<title>Node6</title>
<g id="a_node6"><a xlink:href="class_client_model.html#afc7a9590f0081c56aa75feddcb7da9e8" target="_top" xlink:title=" ">
<polygon fill="white" stroke="black" points="444.5,-0.5 444.5,-19.5 549.5,-19.5 549.5,-0.5 444.5,-0.5"/>
<text text-anchor="middle" x="497" y="-7.5" font-family="Helvetica,sans-Serif" font-size="10.00">ClientModel::node</text>
</a>
</g>
</g>
<!-- Node2&#45;&gt;Node6 -->
<g id="edge5" class="edge">
<title>Node2&#45;&gt;Node6</title>
<path fill="none" stroke="midnightblue" d="M371.23,-33.47C392.48,-29.47 415.21,-25.2 435.38,-21.4"/>
<polygon fill="midnightblue" stroke="midnightblue" points="436.18,-24.81 445.36,-19.53 434.89,-17.94 436.18,-24.81"/>
</g>
<!-- Node5 -->
<g id="node5" class="node">
<title>Node5</title>
<g id="a_node5"><a xlink:href="classinterfaces_1_1_node.html#a9b175c84b88d8643c3ac7493ff8648e5" target="_top" xlink:title="Get number of connections.">
<polygon fill="white" stroke="black" points="623,-33 623,-63 767,-63 767,-33 623,-33"/>
<text text-anchor="start" x="631" y="-51" font-family="Helvetica,sans-Serif" font-size="10.00">interfaces::Node::getNode</text>
<text text-anchor="middle" x="695" y="-40" font-family="Helvetica,sans-Serif" font-size="10.00">Count</text>
</a>
</g>
</g>
<!-- Node4&#45;&gt;Node5 -->
<g id="edge4" class="edge">
<title>Node4&#45;&gt;Node5</title>
<path fill="none" stroke="midnightblue" d="M587.11,-48C595.59,-48 604.17,-48 612.57,-48"/>
<polygon fill="midnightblue" stroke="midnightblue" points="612.73,-51.5 622.73,-48 612.73,-44.5 612.73,-51.5"/>
</g>
</g>
</svg>
