<?xml version="1.0" encoding="UTF-8" standalone="no"?>
<!DOCTYPE svg PUBLIC "-//W3C//DTD SVG 1.1//EN"
 "http://www.w3.org/Graphics/SVG/1.1/DTD/svg11.dtd">
<!-- Generated by graphviz version 2.38.0 (20140413.2041)
 -->
<!-- Title: interfaces::Chain::findBlock Pages: 1 -->
<svg width="680pt" height="353pt"
 viewBox="0.00 0.00 680.00 352.50" xmlns="http://www.w3.org/2000/svg" xmlns:xlink="http://www.w3.org/1999/xlink">
<g id="graph0" class="graph" transform="scale(1 1) rotate(0) translate(4 348.5)">
<title>interfaces::Chain::findBlock</title>
<polygon fill="white" stroke="none" points="-4,4 -4,-348.5 676,-348.5 676,4 -4,4"/>
<!-- Node1 -->
<g id="node1" class="node"><title>Node1</title>
<polygon fill="#bfbfbf" stroke="black" points="0,-251 0,-281 103,-281 103,-251 0,-251"/>
<text text-anchor="start" x="8" y="-269" font-family="Helvetica,sans-Serif" font-size="10.00">interfaces::Chain::</text>
<text text-anchor="middle" x="51.5" y="-258" font-family="Helvetica,sans-Serif" font-size="10.00">findBlock</text>
</g>
<!-- Node2 -->
<g id="node2" class="node"><title>Node2</title>
<g id="a_node2"><a xlink:href="classinterfaces_1_1_chain_1_1_lock.html#aba03076266625fffec4225131fae1746" target="_top" xlink:title="interfaces::Chain::\lLock::~Lock">
<polygon fill="white" stroke="black" points="165,-314 165,-344 268,-344 268,-314 165,-314"/>
<text text-anchor="start" x="173" y="-332" font-family="Helvetica,sans-Serif" font-size="10.00">interfaces::Chain::</text>
<text text-anchor="middle" x="216.5" y="-321" font-family="Helvetica,sans-Serif" font-size="10.00">Lock::~Lock</text>
</a>
</g>
</g>
<!-- Node1&#45;&gt;Node2 -->
<g id="edge1" class="edge"><title>Node1&#45;&gt;Node2</title>
<path fill="none" stroke="midnightblue" d="M94.0911,-285.258C108.222,-291.536 124.185,-298.341 139,-304 148.006,-307.44 157.715,-310.842 167.093,-313.977"/>
<polygon fill="midnightblue" stroke="midnightblue" points="95.1943,-281.917 84.6378,-281.016 92.3287,-288.303 95.1943,-281.917"/>
</g>
<!-- Node3 -->
<g id="node3" class="node"><title>Node3</title>
<g id="a_node3"><a xlink:href="class_c_wallet.html#a4f8c7e9bc50d2e5a17e83235607bbbec" target="_top" xlink:title="Compute smart timestamp for a transaction being added to the wallet. ">
<polygon fill="white" stroke="black" points="139,-275.5 139,-294.5 294,-294.5 294,-275.5 139,-275.5"/>
<text text-anchor="middle" x="216.5" y="-282.5" font-family="Helvetica,sans-Serif" font-size="10.00">CWallet::ComputeTimeSmart</text>
</a>
</g>
</g>
<!-- Node1&#45;&gt;Node3 -->
<g id="edge2" class="edge"><title>Node1&#45;&gt;Node3</title>
<path fill="none" stroke="midnightblue" d="M113.194,-273.075C121.551,-274.049 130.221,-275.06 138.82,-276.062"/>
<polygon fill="midnightblue" stroke="midnightblue" points="113.519,-269.589 103.181,-271.908 112.708,-276.542 113.519,-269.589"/>
</g>
<!-- Node4 -->
<g id="node4" class="node"><title>Node4</title>
<g id="a_node4"><a xlink:href="rpcwallet_8h.html#aae9bc665151c5bab626a7ffcaeed9c0d" target="_top" xlink:title="EnsureWalletIsUnlocked">
<polygon fill="white" stroke="black" points="152,-152.5 152,-171.5 281,-171.5 281,-152.5 152,-152.5"/>
<text text-anchor="middle" x="216.5" y="-159.5" font-family="Helvetica,sans-Serif" font-size="10.00">EnsureWalletIsUnlocked</text>
</a>
</g>
</g>
<!-- Node1&#45;&gt;Node4 -->
<g id="edge3" class="edge"><title>Node1&#45;&gt;Node4</title>
<path fill="none" stroke="midnightblue" d="M84.6692,-245.475C119.746,-223.094 174.368,-188.244 200.536,-171.548"/>
<polygon fill="midnightblue" stroke="midnightblue" points="82.7492,-242.548 76.2016,-250.878 86.5144,-248.449 82.7492,-242.548"/>
</g>
<!-- Node13 -->
<g id="node13" class="node"><title>Node13</title>
<g id="a_node13"><a xlink:href="rpcwallet_8cpp.html#a74b85c92ee6a84277c73b74f2e212bff" target="_top" xlink:title="listtransactions">
<polygon fill="white" stroke="black" points="361.5,-266.5 361.5,-285.5 450.5,-285.5 450.5,-266.5 361.5,-266.5"/>
<text text-anchor="middle" x="406" y="-273.5" font-family="Helvetica,sans-Serif" font-size="10.00">listtransactions</text>
</a>
</g>
</g>
<!-- Node1&#45;&gt;Node13 -->
<g id="edge21" class="edge"><title>Node1&#45;&gt;Node13</title>
<path fill="none" stroke="midnightblue" d="M113.501,-264.487C162.348,-263.641 232.608,-263.24 294,-266 316.229,-266.999 340.886,-269.119 361.304,-271.15"/>
<polygon fill="midnightblue" stroke="midnightblue" points="113.346,-260.989 103.413,-264.674 113.476,-267.988 113.346,-260.989"/>
</g>
<!-- Node4&#45;&gt;Node4 -->
<g id="edge14" class="edge"><title>Node4&#45;&gt;Node4</title>
<path fill="none" stroke="midnightblue" d="M185.811,-180.275C186.686,-185.741 196.916,-190 216.5,-190 245.648,-190 254.074,-180.565 241.777,-171.757"/>
<polygon fill="midnightblue" stroke="midnightblue" points="188.814,-182.075 191.223,-171.757 182.906,-178.321 188.814,-182.075"/>
</g>
<!-- Node5 -->
<g id="node5" class="node"><title>Node5</title>
<g id="a_node5"><a xlink:href="rpcwallet_8cpp.html#a2f46e2bb304dda9a197b5a68db6106f7" target="_top" xlink:title="importprivkey">
<polygon fill="white" stroke="black" points="365,-228.5 365,-247.5 447,-247.5 447,-228.5 365,-228.5"/>
<text text-anchor="middle" x="406" y="-235.5" font-family="Helvetica,sans-Serif" font-size="10.00">importprivkey</text>
</a>
</g>
</g>
<!-- Node4&#45;&gt;Node5 -->
<g id="edge4" class="edge"><title>Node4&#45;&gt;Node5</title>
<path fill="none" stroke="midnightblue" d="M242.575,-176.734C264.907,-189.358 298.784,-207.302 330,-219 341.069,-223.148 353.39,-226.689 364.795,-229.551"/>
<polygon fill="midnightblue" stroke="midnightblue" points="244.17,-173.614 233.752,-171.683 240.692,-179.689 244.17,-173.614"/>
</g>
<!-- Node7 -->
<g id="node7" class="node"><title>Node7</title>
<g id="a_node7"><a xlink:href="wallet__tests_8cpp.html#a8c64ef6e0ced69002923098229448758" target="_top" xlink:title="importwallet">
<polygon fill="white" stroke="black" points="368.5,-76.5 368.5,-95.5 443.5,-95.5 443.5,-76.5 368.5,-76.5"/>
<text text-anchor="middle" x="406" y="-83.5" font-family="Helvetica,sans-Serif" font-size="10.00">importwallet</text>
</a>
</g>
</g>
<!-- Node4&#45;&gt;Node7 -->
<g id="edge6" class="edge"><title>Node4&#45;&gt;Node7</title>
<path fill="none" stroke="midnightblue" d="M242.575,-147.266C264.907,-134.642 298.784,-116.698 330,-105 342.201,-100.428 355.923,-96.5928 368.263,-93.5926"/>
<polygon fill="midnightblue" stroke="midnightblue" points="240.692,-144.311 233.752,-152.317 244.17,-150.386 240.692,-144.311"/>
</g>
<!-- Node9 -->
<g id="node9" class="node"><title>Node9</title>
<g id="a_node9"><a xlink:href="rpcwallet_8cpp.html#ab3f51d8e8fe414dbf91c37485e481ae3" target="_top" xlink:title="dumpprivkey">
<polygon fill="white" stroke="black" points="367,-190.5 367,-209.5 445,-209.5 445,-190.5 367,-190.5"/>
<text text-anchor="middle" x="406" y="-197.5" font-family="Helvetica,sans-Serif" font-size="10.00">dumpprivkey</text>
</a>
</g>
</g>
<!-- Node4&#45;&gt;Node9 -->
<g id="edge8" class="edge"><title>Node4&#45;&gt;Node9</title>
<path fill="none" stroke="midnightblue" d="M274.702,-173.593C304.587,-179.65 340.347,-186.897 366.838,-192.266"/>
<polygon fill="midnightblue" stroke="midnightblue" points="275.31,-170.145 264.814,-171.589 273.92,-177.006 275.31,-170.145"/>
</g>
<!-- Node10 -->
<g id="node10" class="node"><title>Node10</title>
<g id="a_node10"><a xlink:href="wallet__tests_8cpp.html#a73ce3a42e0b56b2e4516e55871d8590e" target="_top" xlink:title="dumpwallet">
<polygon fill="white" stroke="black" points="370.5,-38.5 370.5,-57.5 441.5,-57.5 441.5,-38.5 370.5,-38.5"/>
<text text-anchor="middle" x="406" y="-45.5" font-family="Helvetica,sans-Serif" font-size="10.00">dumpwallet</text>
</a>
</g>
</g>
<!-- Node4&#45;&gt;Node10 -->
<g id="edge10" class="edge"><title>Node4&#45;&gt;Node10</title>
<path fill="none" stroke="midnightblue" d="M232.936,-144.858C253.156,-123.454 290.685,-87.2029 330,-67 342.425,-60.6151 357.133,-56.2822 370.218,-53.3878"/>
<polygon fill="midnightblue" stroke="midnightblue" points="230.297,-142.556 226.066,-152.27 235.431,-147.315 230.297,-142.556"/>
</g>
<!-- Node11 -->
<g id="node11" class="node"><title>Node11</title>
<g id="a_node11"><a xlink:href="wallet__tests_8cpp.html#af0e3c9469f1d8f368d3d5f38e5580367" target="_top" xlink:title="importmulti">
<polygon fill="white" stroke="black" points="370,-0.5 370,-19.5 442,-19.5 442,-0.5 370,-0.5"/>
<text text-anchor="middle" x="406" y="-7.5" font-family="Helvetica,sans-Serif" font-size="10.00">importmulti</text>
</a>
</g>
</g>
<!-- Node4&#45;&gt;Node11 -->
<g id="edge12" class="edge"><title>Node4&#45;&gt;Node11</title>
<path fill="none" stroke="midnightblue" d="M227.941,-143.438C245.263,-114.402 282.76,-58.5127 330,-29 341.961,-21.5273 356.728,-16.9882 369.986,-14.2334"/>
<polygon fill="midnightblue" stroke="midnightblue" points="224.859,-141.775 222.855,-152.179 230.91,-145.296 224.859,-141.775"/>
</g>
<!-- Node4&#45;&gt;Node13 -->
<g id="edge15" class="edge"><title>Node4&#45;&gt;Node13</title>
<path fill="none" stroke="midnightblue" d="M235.012,-178.497C261.094,-202.762 309.292,-246.358 330,-257 339.677,-261.973 350.739,-265.701 361.34,-268.474"/>
<polygon fill="midnightblue" stroke="midnightblue" points="237.378,-175.917 227.683,-171.645 232.598,-181.031 237.378,-175.917"/>
</g>
<!-- Node14 -->
<g id="node14" class="node"><title>Node14</title>
<g id="a_node14"><a xlink:href="rpcwallet_8h.html#a7c13054932c9e3b351bd6277fa9361d7" target="_top" xlink:title="signrawtransactionwithwallet">
<polygon fill="white" stroke="black" points="330,-152.5 330,-171.5 482,-171.5 482,-152.5 330,-152.5"/>
<text text-anchor="middle" x="406" y="-159.5" font-family="Helvetica,sans-Serif" font-size="10.00">signrawtransactionwithwallet</text>
</a>
</g>
</g>
<!-- Node4&#45;&gt;Node14 -->
<g id="edge17" class="edge"><title>Node4&#45;&gt;Node14</title>
<path fill="none" stroke="midnightblue" d="M291.263,-162C303.92,-162 317.087,-162 329.782,-162"/>
<polygon fill="midnightblue" stroke="midnightblue" points="291.241,-158.5 281.241,-162 291.241,-165.5 291.241,-158.5"/>
</g>
<!-- Node15 -->
<g id="node15" class="node"><title>Node15</title>
<g id="a_node15"><a xlink:href="rpcwallet_8cpp.html#a61c7a90d1b36888fe11b751e746e18c0" target="_top" xlink:title="sethdseed">
<polygon fill="white" stroke="black" points="372.5,-114.5 372.5,-133.5 439.5,-133.5 439.5,-114.5 372.5,-114.5"/>
<text text-anchor="middle" x="406" y="-121.5" font-family="Helvetica,sans-Serif" font-size="10.00">sethdseed</text>
</a>
</g>
</g>
<!-- Node4&#45;&gt;Node15 -->
<g id="edge19" class="edge"><title>Node4&#45;&gt;Node15</title>
<path fill="none" stroke="midnightblue" d="M274.949,-150.357C306.958,-143.87 345.644,-136.029 372.46,-130.595"/>
<polygon fill="midnightblue" stroke="midnightblue" points="273.92,-146.994 264.814,-152.411 275.31,-153.855 273.92,-146.994"/>
</g>
<!-- Node6 -->
<g id="node6" class="node"><title>Node6</title>
<g id="a_node6"><a xlink:href="rpcwallet_8cpp.html#afca55ac7a3c6c274b8b7b3e6eab9cd86" target="_top" xlink:title="walletcreatefundedpsbt">
<polygon fill="white" stroke="black" points="531,-190.5 531,-209.5 659,-209.5 659,-190.5 531,-190.5"/>
<text text-anchor="middle" x="595" y="-197.5" font-family="Helvetica,sans-Serif" font-size="10.00">walletcreatefundedpsbt</text>
</a>
</g>
</g>
<!-- Node5&#45;&gt;Node6 -->
<g id="edge5" class="edge"><title>Node5&#45;&gt;Node6</title>
<path fill="none" stroke="midnightblue" d="M457.081,-227.823C485.015,-222.147 519.596,-215.12 547.015,-209.548"/>
<polygon fill="midnightblue" stroke="midnightblue" points="456.219,-224.427 447.116,-229.848 457.613,-231.286 456.219,-224.427"/>
</g>
<!-- Node8 -->
<g id="node8" class="node"><title>Node8</title>
<g id="a_node8"><a xlink:href="wallet__tests_8cpp.html#a2a726fa52b0a343883cb50a3f68d0989" target="_top" xlink:title="BOOST_FIXTURE_TEST_CASE">
<polygon fill="white" stroke="black" points="518,-57.5 518,-76.5 672,-76.5 672,-57.5 518,-57.5"/>
<text text-anchor="middle" x="595" y="-64.5" font-family="Helvetica,sans-Serif" font-size="10.00">BOOST_FIXTURE_TEST_CASE</text>
</a>
</g>
</g>
<!-- Node7&#45;&gt;Node8 -->
<g id="edge7" class="edge"><title>Node7&#45;&gt;Node8</title>
<path fill="none" stroke="midnightblue" d="M453.977,-81.227C473.272,-79.2665 496.114,-76.9456 517.691,-74.7533"/>
<polygon fill="midnightblue" stroke="midnightblue" points="453.54,-77.7532 443.945,-82.2462 454.248,-84.7174 453.54,-77.7532"/>
</g>
<!-- Node9&#45;&gt;Node6 -->
<g id="edge9" class="edge"><title>Node9&#45;&gt;Node6</title>
<path fill="none" stroke="midnightblue" d="M455.477,-200C478.431,-200 506.14,-200 530.725,-200"/>
<polygon fill="midnightblue" stroke="midnightblue" points="455.294,-196.5 445.293,-200 455.293,-203.5 455.294,-196.5"/>
</g>
<!-- Node10&#45;&gt;Node8 -->
<g id="edge11" class="edge"><title>Node10&#45;&gt;Node8</title>
<path fill="none" stroke="midnightblue" d="M451.712,-52.543C471.558,-54.5593 495.476,-56.9896 517.992,-59.2772"/>
<polygon fill="midnightblue" stroke="midnightblue" points="452.038,-49.0581 441.735,-51.5292 451.33,-56.0222 452.038,-49.0581"/>
</g>
<!-- Node12 -->
<g id="node12" class="node"><title>Node12</title>
<g id="a_node12"><a xlink:href="wallet__tests_8cpp.html#a102aa881fd1aa3b1be48920b5b27dcc3" target="_top" xlink:title="BOOST_FIXTURE_TEST_CASE">
<polygon fill="white" stroke="black" points="518,-0.5 518,-19.5 672,-19.5 672,-0.5 518,-0.5"/>
<text text-anchor="middle" x="595" y="-7.5" font-family="Helvetica,sans-Serif" font-size="10.00">BOOST_FIXTURE_TEST_CASE</text>
</a>
</g>
</g>
<!-- Node11&#45;&gt;Node12 -->
<g id="edge13" class="edge"><title>Node11&#45;&gt;Node12</title>
<path fill="none" stroke="midnightblue" d="M452.381,-10C472.075,-10 495.683,-10 517.927,-10"/>
<polygon fill="midnightblue" stroke="midnightblue" points="452.173,-6.5001 442.173,-10 452.173,-13.5001 452.173,-6.5001"/>
</g>
<!-- Node13&#45;&gt;Node6 -->
<g id="edge16" class="edge"><title>Node13&#45;&gt;Node6</title>
<path fill="none" stroke="midnightblue" d="M460.589,-263.981C467.864,-261.899 475.171,-259.566 482,-257 517.537,-243.647 556.507,-222.113 577.826,-209.688"/>
<polygon fill="midnightblue" stroke="midnightblue" points="459.465,-260.66 450.736,-266.664 461.304,-267.414 459.465,-260.66"/>
</g>
<!-- Node14&#45;&gt;Node6 -->
<g id="edge18" class="edge"><title>Node14&#45;&gt;Node6</title>
<path fill="none" stroke="midnightblue" d="M464.131,-173.61C490.727,-179.014 521.973,-185.364 547.151,-190.48"/>
<polygon fill="midnightblue" stroke="midnightblue" points="464.685,-170.151 454.188,-171.589 463.291,-177.01 464.685,-170.151"/>
</g>
<!-- Node15&#45;&gt;Node6 -->
<g id="edge20" class="edge"><title>Node15&#45;&gt;Node6</title>
<path fill="none" stroke="midnightblue" d="M449.616,-133.047C460.333,-135.797 471.709,-139.133 482,-143 517.537,-156.353 556.507,-177.887 577.826,-190.312"/>
<polygon fill="midnightblue" stroke="midnightblue" points="450.147,-129.573 439.601,-130.592 448.481,-136.372 450.147,-129.573"/>
</g>
</g>
</svg>
