<?xml version="1.0" encoding="UTF-8" standalone="no"?>
<!DOCTYPE svg PUBLIC "-//W3C//DTD SVG 1.1//EN"
 "http://www.w3.org/Graphics/SVG/1.1/DTD/svg11.dtd">
<!-- Generated by graphviz version 2.38.0 (20140413.2041)
 -->
<!-- Title: BitcoinApplication Pages: 1 -->
<svg width="1187pt" height="839pt"
 viewBox="0.00 0.00 1187.00 838.56" xmlns="http://www.w3.org/2000/svg" xmlns:xlink="http://www.w3.org/1999/xlink">
<g id="graph0" class="graph" transform="scale(1 1) rotate(0) translate(4 834.565)">
<title>BitcoinApplication</title>
<polygon fill="white" stroke="none" points="-4,4 -4,-834.565 1183,-834.565 1183,4 -4,4"/>
<!-- Node1 -->
<g id="node1" class="node"><title>Node1</title>
<polygon fill="#bfbfbf" stroke="black" points="1078,-657.065 1078,-676.065 1179,-676.065 1179,-657.065 1078,-657.065"/>
<text text-anchor="middle" x="1128.5" y="-664.065" font-family="Helvetica,sans-Serif" font-size="10.00">BitcoinApplication</text>
</g>
<!-- Node2 -->
<g id="node2" class="node"><title>Node2</title>
<polygon fill="white" stroke="#bfbfbf" points="904,-748.065 904,-767.065 981,-767.065 981,-748.065 904,-748.065"/>
<text text-anchor="middle" x="942.5" y="-755.065" font-family="Helvetica,sans-Serif" font-size="10.00">QApplication</text>
</g>
<!-- Node2&#45;&gt;Node1 -->
<g id="edge1" class="edge"><title>Node2&#45;&gt;Node1</title>
<path fill="none" stroke="midnightblue" d="M991.161,-754.017C1013.14,-750.846 1038.95,-744.858 1060,-733.565 1086.77,-719.201 1109.93,-690.873 1120.84,-676.074"/>
<polygon fill="midnightblue" stroke="midnightblue" points="990.514,-750.571 981.044,-755.321 991.409,-757.513 990.514,-750.571"/>
</g>
<!-- Node3 -->
<g id="node3" class="node"><title>Node3</title>
<g id="a_node3"><a xlink:href="class_platform_style.html" target="_top" xlink:title="PlatformStyle">
<polygon fill="white" stroke="black" points="392,-83.0646 392,-102.065 473,-102.065 473,-83.0646 392,-83.0646"/>
<text text-anchor="middle" x="432.5" y="-90.0646" font-family="Helvetica,sans-Serif" font-size="10.00">PlatformStyle</text>
</a>
</g>
</g>
<!-- Node3&#45;&gt;Node1 -->
<g id="edge2" class="edge"><title>Node3&#45;&gt;Node1</title>
<path fill="none" stroke="#9a32cd" stroke-dasharray="5,2" d="M483.51,-87.742C586.669,-78.7365 819.022,-63.5969 886,-102.565 1100.52,-227.371 1124.6,-592.199 1127.2,-656.747"/>
<polygon fill="#9a32cd" stroke="#9a32cd" points="483.001,-84.2734 473.35,-88.6457 483.621,-91.2459 483.001,-84.2734"/>
<text text-anchor="middle" x="837.5" y="-105.565" font-family="Helvetica,sans-Serif" font-size="10.00"> platformStyle</text>
</g>
<!-- Node12 -->
<g id="node12" class="node"><title>Node12</title>
<g id="a_node12"><a xlink:href="class_bitcoin_g_u_i.html" target="_top" xlink:title="Bitcoin GUI main class. ">
<polygon fill="white" stroke="black" points="909.5,-255.065 909.5,-274.065 975.5,-274.065 975.5,-255.065 909.5,-255.065"/>
<text text-anchor="middle" x="942.5" y="-262.065" font-family="Helvetica,sans-Serif" font-size="10.00">BitcoinGUI</text>
</a>
</g>
</g>
<!-- Node3&#45;&gt;Node12 -->
<g id="edge23" class="edge"><title>Node3&#45;&gt;Node12</title>
<path fill="none" stroke="#9a32cd" stroke-dasharray="5,2" d="M483.327,-92.957C587.207,-94.6985 822.543,-103.74 886,-149.565 922.304,-175.781 935.871,-232.226 939.979,-254.872"/>
<polygon fill="#9a32cd" stroke="#9a32cd" points="483.153,-89.454 473.101,-92.8022 483.047,-96.4532 483.153,-89.454"/>
<text text-anchor="middle" x="693" y="-116.565" font-family="Helvetica,sans-Serif" font-size="10.00"> platformStyle</text>
</g>
<!-- Node18 -->
<g id="node18" class="node"><title>Node18</title>
<g id="a_node18"><a xlink:href="class_r_p_c_console.html" target="_top" xlink:title="Local Bitcoin RPC console. ">
<polygon fill="white" stroke="black" points="656,-155.065 656,-174.065 730,-174.065 730,-155.065 656,-155.065"/>
<text text-anchor="middle" x="693" y="-162.065" font-family="Helvetica,sans-Serif" font-size="10.00">RPCConsole</text>
</a>
</g>
</g>
<!-- Node3&#45;&gt;Node18 -->
<g id="edge28" class="edge"><title>Node3&#45;&gt;Node18</title>
<path fill="none" stroke="#9a32cd" stroke-dasharray="5,2" d="M473.614,-105.111C485.021,-108.59 497.477,-112.305 509,-115.565 547.899,-126.568 557.948,-128.118 597,-138.565 616.988,-143.912 639.304,-150.013 657.283,-154.96"/>
<polygon fill="#9a32cd" stroke="#9a32cd" points="474.496,-101.72 463.909,-102.132 472.441,-108.412 474.496,-101.72"/>
<text text-anchor="middle" x="553" y="-141.565" font-family="Helvetica,sans-Serif" font-size="10.00"> platformStyle</text>
</g>
<!-- Node21 -->
<g id="node21" class="node"><title>Node21</title>
<g id="a_node21"><a xlink:href="class_wallet_frame.html" target="_top" xlink:title="A container for embedding all wallet&#45;related controls into BitcoinGUI. ">
<polygon fill="white" stroke="black" points="1091.5,-65.0646 1091.5,-84.0646 1165.5,-84.0646 1165.5,-65.0646 1091.5,-65.0646"/>
<text text-anchor="middle" x="1128.5" y="-72.0646" font-family="Helvetica,sans-Serif" font-size="10.00">WalletFrame</text>
</a>
</g>
</g>
<!-- Node3&#45;&gt;Node21 -->
<g id="edge33" class="edge"><title>Node3&#45;&gt;Node21</title>
<path fill="none" stroke="#9a32cd" stroke-dasharray="5,2" d="M461.301,-78.5243C496.183,-61.696 558.32,-34.2994 615,-22.5646 774.289,10.414 820.431,3.47209 981,-22.5646 1016.75,-28.3618 1025.92,-30.3045 1060,-42.5646 1077.45,-48.8423 1096.47,-58.0915 1109.86,-65.0337"/>
<polygon fill="#9a32cd" stroke="#9a32cd" points="459.658,-75.4316 452.212,-82.9687 462.733,-81.72 459.658,-75.4316"/>
<text text-anchor="middle" x="837.5" y="-11.5646" font-family="Helvetica,sans-Serif" font-size="10.00"> platformStyle</text>
</g>
<!-- Node4 -->
<g id="node4" class="node"><title>Node4</title>
<g id="a_node4"><a xlink:href="class_client_model.html" target="_top" xlink:title="Model for Bitcoin network client. ">
<polygon fill="white" stroke="black" points="396.5,-522.065 396.5,-541.065 468.5,-541.065 468.5,-522.065 396.5,-522.065"/>
<text text-anchor="middle" x="432.5" y="-529.065" font-family="Helvetica,sans-Serif" font-size="10.00">ClientModel</text>
</a>
</g>
</g>
<!-- Node4&#45;&gt;Node1 -->
<g id="edge3" class="edge"><title>Node4&#45;&gt;Node1</title>
<path fill="none" stroke="#9a32cd" stroke-dasharray="5,2" d="M459.811,-545.931C474.007,-553.12 492.052,-561.374 509,-566.565 714.669,-629.553 971.652,-654.899 1077.95,-663.172"/>
<polygon fill="#9a32cd" stroke="#9a32cd" points="461.145,-542.68 450.657,-541.174 457.917,-548.891 461.145,-542.68"/>
<text text-anchor="middle" x="837.5" y="-645.565" font-family="Helvetica,sans-Serif" font-size="10.00"> clientModel</text>
</g>
<!-- Node6 -->
<g id="node6" class="node"><title>Node6</title>
<g id="a_node6"><a xlink:href="class_peer_table_model.html" target="_top" xlink:title="Qt model providing information about connected peers, similar to the &quot;getpeerinfo&quot; RPC call...">
<polygon fill="white" stroke="black" points="647.5,-679.065 647.5,-698.065 738.5,-698.065 738.5,-679.065 647.5,-679.065"/>
<text text-anchor="middle" x="693" y="-686.065" font-family="Helvetica,sans-Serif" font-size="10.00">PeerTableModel</text>
</a>
</g>
</g>
<!-- Node4&#45;&gt;Node6 -->
<g id="edge7" class="edge"><title>Node4&#45;&gt;Node6</title>
<path fill="none" stroke="#9a32cd" stroke-dasharray="5,2" d="M443.353,-550.162C455.751,-571.7 479.09,-606.638 509,-625.565 542.978,-647.066 558.899,-633.715 597,-646.565 624.169,-655.727 654.236,-669.71 673.12,-678.991"/>
<polygon fill="#9a32cd" stroke="#9a32cd" points="446.356,-548.36 438.442,-541.315 440.235,-551.757 446.356,-548.36"/>
<text text-anchor="middle" x="553" y="-649.565" font-family="Helvetica,sans-Serif" font-size="10.00"> clientModel</text>
</g>
<!-- Node9 -->
<g id="node9" class="node"><title>Node9</title>
<g id="a_node9"><a xlink:href="class_ban_table_model.html" target="_top" xlink:title="Qt model providing information about connected peers, similar to the &quot;getpeerinfo&quot; RPC call...">
<polygon fill="white" stroke="black" points="649,-553.065 649,-572.065 737,-572.065 737,-553.065 649,-553.065"/>
<text text-anchor="middle" x="693" y="-560.065" font-family="Helvetica,sans-Serif" font-size="10.00">BanTableModel</text>
</a>
</g>
</g>
<!-- Node4&#45;&gt;Node9 -->
<g id="edge12" class="edge"><title>Node4&#45;&gt;Node9</title>
<path fill="none" stroke="#9a32cd" stroke-dasharray="5,2" d="M478.91,-537.71C488.823,-539.015 499.261,-540.361 509,-541.565 556.765,-547.468 611.617,-553.688 648.714,-557.812"/>
<polygon fill="#9a32cd" stroke="#9a32cd" points="479.194,-534.217 468.821,-536.372 478.274,-541.156 479.194,-534.217"/>
<text text-anchor="middle" x="553" y="-554.565" font-family="Helvetica,sans-Serif" font-size="10.00"> clientModel</text>
</g>
<!-- Node4&#45;&gt;Node12 -->
<g id="edge24" class="edge"><title>Node4&#45;&gt;Node12</title>
<path fill="none" stroke="#9a32cd" stroke-dasharray="5,2" d="M473.739,-517.774C479.797,-514.862 485.762,-511.466 491,-507.565 501.131,-500.018 497.846,-491.497 509,-485.565 657.569,-406.545 755.865,-557.249 886,-450.565 941.77,-404.845 943.082,-305.588 942.012,-274.249"/>
<polygon fill="#9a32cd" stroke="#9a32cd" points="471.978,-514.725 464.233,-521.955 474.796,-521.133 471.978,-514.725"/>
<text text-anchor="middle" x="693" y="-492.565" font-family="Helvetica,sans-Serif" font-size="10.00"> clientModel</text>
</g>
<!-- Node4&#45;&gt;Node18 -->
<g id="edge29" class="edge"><title>Node4&#45;&gt;Node18</title>
<path fill="none" stroke="#9a32cd" stroke-dasharray="5,2" d="M477.727,-518.089C482.664,-515.212 487.253,-511.742 491,-507.565 509.875,-486.523 498.517,-472.816 509,-446.565 540.844,-366.819 562.313,-353.115 597,-274.565 606.204,-253.722 601.654,-245.03 615,-226.565 631.387,-203.891 658.123,-184.955 675.386,-174.19"/>
<polygon fill="#9a32cd" stroke="#9a32cd" points="475.96,-515.059 468.573,-522.654 479.084,-521.323 475.96,-515.059"/>
<text text-anchor="middle" x="553" y="-449.565" font-family="Helvetica,sans-Serif" font-size="10.00"> clientModel</text>
</g>
<!-- Node4&#45;&gt;Node21 -->
<g id="edge34" class="edge"><title>Node4&#45;&gt;Node21</title>
<path fill="none" stroke="#9a32cd" stroke-dasharray="5,2" d="M478.859,-525.435C488.775,-524.297 499.227,-523.252 509,-522.565 524.271,-521.491 1048.49,-520.653 1060,-510.565 1126.69,-452.138 1127.96,-142.841 1127.6,-84.1749"/>
<polygon fill="#9a32cd" stroke="#9a32cd" points="478.283,-521.979 468.77,-526.643 479.115,-528.929 478.283,-521.979"/>
<text text-anchor="middle" x="837.5" y="-522.565" font-family="Helvetica,sans-Serif" font-size="10.00"> clientModel</text>
</g>
<!-- Node5 -->
<g id="node5" class="node"><title>Node5</title>
<polygon fill="white" stroke="#bfbfbf" points="202.5,-335.065 202.5,-354.065 257.5,-354.065 257.5,-335.065 202.5,-335.065"/>
<text text-anchor="middle" x="230" y="-342.065" font-family="Helvetica,sans-Serif" font-size="10.00">QObject</text>
</g>
<!-- Node5&#45;&gt;Node4 -->
<g id="edge4" class="edge"><title>Node5&#45;&gt;Node4</title>
<path fill="none" stroke="midnightblue" d="M266.433,-358.137C295.029,-370.941 333.999,-392.919 356,-424.565 377.547,-455.557 349.843,-478.561 374,-507.565 379.815,-514.547 388.005,-519.531 396.385,-523.076"/>
<polygon fill="midnightblue" stroke="midnightblue" points="267.741,-354.89 257.173,-354.146 264.971,-361.318 267.741,-354.89"/>
</g>
<!-- Node26 -->
<g id="node26" class="node"><title>Node26</title>
<g id="a_node26"><a xlink:href="class_notificator.html" target="_top" xlink:title="Cross&#45;platform desktop notification client. ">
<polygon fill="white" stroke="black" points="520,-246.065 520,-265.065 586,-265.065 586,-246.065 520,-246.065"/>
<text text-anchor="middle" x="553" y="-253.065" font-family="Helvetica,sans-Serif" font-size="10.00">Notificator</text>
</a>
</g>
</g>
<!-- Node5&#45;&gt;Node26 -->
<g id="edge42" class="edge"><title>Node5&#45;&gt;Node26</title>
<path fill="none" stroke="midnightblue" d="M267.403,-332.803C296.214,-323.631 337.529,-310.778 374,-300.565 424.645,-286.381 483.95,-271.787 519.713,-263.204"/>
<polygon fill="midnightblue" stroke="midnightblue" points="266.223,-329.506 257.763,-335.884 268.354,-336.174 266.223,-329.506"/>
</g>
<!-- Node6&#45;&gt;Node4 -->
<g id="edge5" class="edge"><title>Node6&#45;&gt;Node4</title>
<path fill="none" stroke="#9a32cd" stroke-dasharray="5,2" d="M637.019,-682.583C586.85,-676.687 519.029,-667.441 509,-659.565 492.706,-646.768 500.853,-634.79 491,-616.565 475.41,-587.727 452.526,-556.432 440.887,-541.11"/>
<polygon fill="#9a32cd" stroke="#9a32cd" points="636.775,-686.079 647.112,-683.753 637.581,-679.125 636.775,-686.079"/>
<text text-anchor="middle" x="553" y="-679.565" font-family="Helvetica,sans-Serif" font-size="10.00"> peerTableModel</text>
</g>
<!-- Node7 -->
<g id="node7" class="node"><title>Node7</title>
<polygon fill="white" stroke="#bfbfbf" points="374,-626.065 374,-645.065 491,-645.065 491,-626.065 374,-626.065"/>
<text text-anchor="middle" x="432.5" y="-633.065" font-family="Helvetica,sans-Serif" font-size="10.00">QAbstractTableModel</text>
</g>
<!-- Node7&#45;&gt;Node6 -->
<g id="edge6" class="edge"><title>Node7&#45;&gt;Node6</title>
<path fill="none" stroke="midnightblue" d="M449.014,-652.537C463.092,-666.581 485.231,-685.489 509,-693.565 554.591,-709.055 610.312,-704.46 648.206,-698.127"/>
<polygon fill="midnightblue" stroke="midnightblue" points="451.526,-650.1 442.063,-645.334 446.489,-654.96 451.526,-650.1"/>
</g>
<!-- Node7&#45;&gt;Node9 -->
<g id="edge11" class="edge"><title>Node7&#45;&gt;Node9</title>
<path fill="none" stroke="midnightblue" d="M477.058,-623.264C528.148,-608.836 611.748,-585.228 658.197,-572.11"/>
<polygon fill="midnightblue" stroke="midnightblue" points="475.967,-619.935 467.294,-626.021 477.869,-626.672 475.967,-619.935"/>
</g>
<!-- Node8 -->
<g id="node8" class="node"><title>Node8</title>
<g id="a_node8"><a xlink:href="classinterfaces_1_1_node.html" target="_top" xlink:title="Top&#45;level interface for a bitcoin node (bitcoind process). ">
<polygon fill="white" stroke="black" points="7.5,-483.065 7.5,-502.065 102.5,-502.065 102.5,-483.065 7.5,-483.065"/>
<text text-anchor="middle" x="55" y="-490.065" font-family="Helvetica,sans-Serif" font-size="10.00">interfaces::Node</text>
</a>
</g>
</g>
<!-- Node8&#45;&gt;Node1 -->
<g id="edge46" class="edge"><title>Node8&#45;&gt;Node1</title>
<path fill="none" stroke="#9a32cd" stroke-dasharray="5,2" d="M58.5847,-512.499C66.3699,-569.541 91.3389,-731.682 128,-768.565 160.757,-801.519 182.535,-795.565 229,-795.565 229,-795.565 229,-795.565 943.5,-795.565 998.102,-795.565 1015.73,-788.519 1060,-756.565 1090.57,-734.504 1113.41,-694.553 1122.8,-676.226"/>
<polygon fill="#9a32cd" stroke="#9a32cd" points="62.0134,-511.731 57.2222,-502.282 55.0748,-512.657 62.0134,-511.731"/>
<text text-anchor="middle" x="553" y="-798.565" font-family="Helvetica,sans-Serif" font-size="10.00"> m_node</text>
</g>
<!-- Node8&#45;&gt;Node4 -->
<g id="edge9" class="edge"><title>Node8&#45;&gt;Node4</title>
<path fill="none" stroke="#9a32cd" stroke-dasharray="5,2" d="M113.024,-498.487C191.771,-506.666 331.431,-521.171 396.422,-527.921"/>
<polygon fill="#9a32cd" stroke="#9a32cd" points="113.106,-494.977 102.798,-497.425 112.383,-501.94 113.106,-494.977"/>
<text text-anchor="middle" x="230" y="-517.565" font-family="Helvetica,sans-Serif" font-size="10.00"> m_node</text>
</g>
<!-- Node8&#45;&gt;Node6 -->
<g id="edge8" class="edge"><title>Node8&#45;&gt;Node6</title>
<path fill="none" stroke="#9a32cd" stroke-dasharray="5,2" d="M69.2385,-510.39C101.404,-552.097 188.454,-655.667 289,-697.565 415.507,-750.28 460.997,-729.478 597,-712.565 619.114,-709.814 643.472,-703.594 661.987,-698.176"/>
<polygon fill="#9a32cd" stroke="#9a32cd" points="71.8969,-508.103 63.0609,-502.257 66.3226,-512.337 71.8969,-508.103"/>
<text text-anchor="middle" x="322.5" y="-722.565" font-family="Helvetica,sans-Serif" font-size="10.00"> m_node</text>
</g>
<!-- Node8&#45;&gt;Node9 -->
<g id="edge13" class="edge"><title>Node8&#45;&gt;Node9</title>
<path fill="none" stroke="#9a32cd" stroke-dasharray="5,2" d="M100.567,-480.448C180.151,-460.752 351.445,-427.181 491,-460.565 567.497,-478.864 647.78,-531.307 678.746,-552.997"/>
<polygon fill="#9a32cd" stroke="#9a32cd" points="99.2533,-477.17 90.4134,-483.01 100.966,-483.957 99.2533,-477.17"/>
<text text-anchor="middle" x="322.5" y="-451.565" font-family="Helvetica,sans-Serif" font-size="10.00"> m_node</text>
</g>
<!-- Node10 -->
<g id="node10" class="node"><title>Node10</title>
<g id="a_node10"><a xlink:href="class_options_model.html" target="_top" xlink:title="Interface from Qt to configuration data structure for Bitcoin client. ">
<polygon fill="white" stroke="black" points="189,-748.065 189,-767.065 271,-767.065 271,-748.065 189,-748.065"/>
<text text-anchor="middle" x="230" y="-755.065" font-family="Helvetica,sans-Serif" font-size="10.00">OptionsModel</text>
</a>
</g>
</g>
<!-- Node8&#45;&gt;Node10 -->
<g id="edge16" class="edge"><title>Node8&#45;&gt;Node10</title>
<path fill="none" stroke="#9a32cd" stroke-dasharray="5,2" d="M55.7003,-512.2C56.1269,-558.085 63.9093,-673.028 128,-733.565 144.181,-748.849 168.256,-754.971 188.842,-757.215"/>
<polygon fill="#9a32cd" stroke="#9a32cd" points="59.2004,-512.104 55.7205,-502.097 52.2004,-512.09 59.2004,-512.104"/>
<text text-anchor="middle" x="149.5" y="-756.565" font-family="Helvetica,sans-Serif" font-size="10.00"> m_node</text>
</g>
<!-- Node8&#45;&gt;Node12 -->
<g id="edge38" class="edge"><title>Node8&#45;&gt;Node12</title>
<path fill="none" stroke="#9a32cd" stroke-dasharray="5,2" d="M66.2835,-473.896C85.9026,-439.874 131.856,-367.435 189,-325.565 260.041,-273.512 288.057,-273.801 374,-254.565 596.062,-204.862 659.906,-227.816 886,-253.565 893.613,-254.432 901.739,-255.791 909.358,-257.263"/>
<polygon fill="#9a32cd" stroke="#9a32cd" points="63.1344,-472.355 61.258,-482.782 69.2275,-475.801 63.1344,-472.355"/>
<text text-anchor="middle" x="432.5" y="-257.565" font-family="Helvetica,sans-Serif" font-size="10.00"> m_node</text>
</g>
<!-- Node8&#45;&gt;Node18 -->
<g id="edge30" class="edge"><title>Node8&#45;&gt;Node18</title>
<path fill="none" stroke="#9a32cd" stroke-dasharray="5,2" d="M58.6675,-473.021C66.5934,-417.843 91.7299,-262.659 128,-228.565 204.38,-156.767 543.336,-160.103 655.686,-163.28"/>
<polygon fill="#9a32cd" stroke="#9a32cd" points="55.2009,-472.54 57.2765,-482.929 62.1329,-473.513 55.2009,-472.54"/>
<text text-anchor="middle" x="322.5" y="-179.565" font-family="Helvetica,sans-Serif" font-size="10.00"> m_node</text>
</g>
<!-- Node9&#45;&gt;Node4 -->
<g id="edge10" class="edge"><title>Node9&#45;&gt;Node4</title>
<path fill="none" stroke="#9a32cd" stroke-dasharray="5,2" d="M648.5,-549.973C637.484,-546.521 625.735,-542.608 615,-538.565 606.807,-535.479 605.564,-532.382 597,-530.565 558.741,-522.445 548.11,-530.306 509,-530.565 495.891,-530.651 481.504,-530.823 468.836,-531"/>
<polygon fill="#9a32cd" stroke="#9a32cd" points="647.773,-553.411 658.36,-553.004 649.83,-546.72 647.773,-553.411"/>
<text text-anchor="middle" x="553" y="-533.565" font-family="Helvetica,sans-Serif" font-size="10.00"> banTableModel</text>
</g>
<!-- Node10&#45;&gt;Node1 -->
<g id="edge47" class="edge"><title>Node10&#45;&gt;Node1</title>
<path fill="none" stroke="#9a32cd" stroke-dasharray="5,2" d="M281.14,-754.826C333.518,-751.883 418.059,-746.905 491,-741.565 710.445,-725.499 970.662,-689.501 1077.72,-673.951"/>
<polygon fill="#9a32cd" stroke="#9a32cd" points="280.895,-751.334 271.106,-755.386 281.286,-758.323 280.895,-751.334"/>
<text text-anchor="middle" x="693" y="-732.565" font-family="Helvetica,sans-Serif" font-size="10.00"> optionsModel</text>
</g>
<!-- Node10&#45;&gt;Node4 -->
<g id="edge14" class="edge"><title>Node10&#45;&gt;Node4</title>
<path fill="none" stroke="#9a32cd" stroke-dasharray="5,2" d="M245.16,-739.646C256.732,-725.145 273.632,-704.293 289,-686.565 337.843,-630.218 399.331,-565.247 422.296,-541.178"/>
<polygon fill="#9a32cd" stroke="#9a32cd" points="242.186,-737.763 238.704,-747.77 247.666,-742.118 242.186,-737.763"/>
<text text-anchor="middle" x="322.5" y="-689.565" font-family="Helvetica,sans-Serif" font-size="10.00"> optionsModel</text>
</g>
<!-- Node27 -->
<g id="node27" class="node"><title>Node27</title>
<g id="a_node27"><a xlink:href="class_unit_display_status_bar_control.html" target="_top" xlink:title="UnitDisplayStatusBarControl">
<polygon fill="white" stroke="black" points="616.5,-354.065 616.5,-373.065 769.5,-373.065 769.5,-354.065 616.5,-354.065"/>
<text text-anchor="middle" x="693" y="-361.065" font-family="Helvetica,sans-Serif" font-size="10.00">UnitDisplayStatusBarControl</text>
</a>
</g>
</g>
<!-- Node10&#45;&gt;Node27 -->
<g id="edge45" class="edge"><title>Node10&#45;&gt;Node27</title>
<path fill="none" stroke="#9a32cd" stroke-dasharray="5,2" d="M236.641,-738.007C245.483,-708.878 264.189,-652.883 289,-609.565 319.359,-556.56 326.555,-540.037 374,-501.565 466.786,-426.327 502.797,-423.559 615,-382.565 624.958,-378.926 635.892,-375.758 646.314,-373.105"/>
<polygon fill="#9a32cd" stroke="#9a32cd" points="233.233,-737.19 233.744,-747.773 239.944,-739.182 233.233,-737.19"/>
<text text-anchor="middle" x="432.5" y="-504.565" font-family="Helvetica,sans-Serif" font-size="10.00"> optionsModel</text>
</g>
<!-- Node11 -->
<g id="node11" class="node"><title>Node11</title>
<polygon fill="white" stroke="#bfbfbf" points="0,-811.065 0,-830.065 110,-830.065 110,-811.065 0,-811.065"/>
<text text-anchor="middle" x="55" y="-818.065" font-family="Helvetica,sans-Serif" font-size="10.00">QAbstractListModel</text>
</g>
<!-- Node11&#45;&gt;Node10 -->
<g id="edge15" class="edge"><title>Node11&#45;&gt;Node10</title>
<path fill="none" stroke="midnightblue" d="M92.0072,-807.452C125.052,-795.419 173.224,-777.876 202.762,-767.12"/>
<polygon fill="midnightblue" stroke="midnightblue" points="90.4737,-804.286 82.275,-810.996 92.869,-810.863 90.4737,-804.286"/>
</g>
<!-- Node12&#45;&gt;Node1 -->
<g id="edge17" class="edge"><title>Node12&#45;&gt;Node1</title>
<path fill="none" stroke="#9a32cd" stroke-dasharray="5,2" d="M952.226,-283.629C984.874,-354.959 1099.18,-604.686 1123.09,-656.935"/>
<polygon fill="#9a32cd" stroke="#9a32cd" points="955.211,-281.741 947.867,-274.105 948.846,-284.655 955.211,-281.741"/>
<text text-anchor="middle" x="1029.5" y="-515.565" font-family="Helvetica,sans-Serif" font-size="10.00"> window</text>
</g>
<!-- Node12&#45;&gt;Node21 -->
<g id="edge35" class="edge"><title>Node12&#45;&gt;Node21</title>
<path fill="none" stroke="#9a32cd" stroke-dasharray="5,2" d="M960.04,-247.486C997.575,-208.726 1088.24,-115.102 1117.92,-84.4563"/>
<polygon fill="#9a32cd" stroke="#9a32cd" points="957.32,-245.263 952.878,-254.881 962.349,-250.133 957.32,-245.263"/>
<text text-anchor="middle" x="1029.5" y="-205.565" font-family="Helvetica,sans-Serif" font-size="10.00"> gui</text>
</g>
<!-- Node13 -->
<g id="node13" class="node"><title>Node13</title>
<polygon fill="white" stroke="#bfbfbf" points="652,-430.065 652,-449.065 734,-449.065 734,-430.065 652,-430.065"/>
<text text-anchor="middle" x="693" y="-437.065" font-family="Helvetica,sans-Serif" font-size="10.00">QMainWindow</text>
</g>
<!-- Node13&#45;&gt;Node12 -->
<g id="edge18" class="edge"><title>Node13&#45;&gt;Node12</title>
<path fill="none" stroke="midnightblue" d="M744.229,-448.975C786.435,-453.915 846.09,-453.581 886,-422.565 934.208,-385.099 940.671,-302.78 941.438,-274.407"/>
<polygon fill="midnightblue" stroke="midnightblue" points="744.535,-445.486 734.166,-447.66 743.628,-452.426 744.535,-445.486"/>
</g>
<!-- Node14 -->
<g id="node14" class="node"><title>Node14</title>
<g id="a_node14"><a xlink:href="class_help_message_dialog.html" target="_top" xlink:title="&quot;Help message&quot; dialog box ">
<polygon fill="white" stroke="black" points="637.5,-392.065 637.5,-411.065 748.5,-411.065 748.5,-392.065 637.5,-392.065"/>
<text text-anchor="middle" x="693" y="-399.065" font-family="Helvetica,sans-Serif" font-size="10.00">HelpMessageDialog</text>
</a>
</g>
</g>
<!-- Node14&#45;&gt;Node12 -->
<g id="edge19" class="edge"><title>Node14&#45;&gt;Node12</title>
<path fill="none" stroke="#9a32cd" stroke-dasharray="5,2" d="M758.833,-408.658C798.924,-409.68 849.514,-404.528 886,-378.565 922.229,-352.784 935.839,-296.71 939.969,-274.201"/>
<polygon fill="#9a32cd" stroke="#9a32cd" points="758.746,-405.152 748.618,-408.261 758.474,-412.147 758.746,-405.152"/>
<text text-anchor="middle" x="837.5" y="-410.565" font-family="Helvetica,sans-Serif" font-size="10.00"> helpMessageDialog</text>
</g>
<!-- Node15 -->
<g id="node15" class="node"><title>Node15</title>
<polygon fill="white" stroke="#bfbfbf" points="405.5,-399.065 405.5,-418.065 459.5,-418.065 459.5,-399.065 405.5,-399.065"/>
<text text-anchor="middle" x="432.5" y="-406.065" font-family="Helvetica,sans-Serif" font-size="10.00">QDialog</text>
</g>
<!-- Node15&#45;&gt;Node14 -->
<g id="edge20" class="edge"><title>Node15&#45;&gt;Node14</title>
<path fill="none" stroke="midnightblue" d="M469.852,-407.58C513.442,-406.4 586.924,-404.41 637.358,-403.044"/>
<polygon fill="midnightblue" stroke="midnightblue" points="469.61,-404.085 459.709,-407.855 469.8,-411.083 469.61,-404.085"/>
</g>
<!-- Node16 -->
<g id="node16" class="node"><title>Node16</title>
<g id="a_node16"><a xlink:href="class_g_u_i_util_1_1_clickable_progress_bar.html" target="_top" xlink:title="GUIUtil::ClickableProgressBar">
<polygon fill="white" stroke="black" points="615,-278.065 615,-297.065 771,-297.065 771,-278.065 615,-278.065"/>
<text text-anchor="middle" x="693" y="-285.065" font-family="Helvetica,sans-Serif" font-size="10.00">GUIUtil::ClickableProgressBar</text>
</a>
</g>
</g>
<!-- Node16&#45;&gt;Node12 -->
<g id="edge21" class="edge"><title>Node16&#45;&gt;Node12</title>
<path fill="none" stroke="#9a32cd" stroke-dasharray="5,2" d="M781.527,-279.431C825.904,-275.307 877.098,-270.549 909.378,-267.55"/>
<polygon fill="#9a32cd" stroke="#9a32cd" points="780.926,-275.971 771.292,-280.382 781.573,-282.941 780.926,-275.971"/>
<text text-anchor="middle" x="837.5" y="-280.565" font-family="Helvetica,sans-Serif" font-size="10.00"> progressBar</text>
</g>
<!-- Node17 -->
<g id="node17" class="node"><title>Node17</title>
<polygon fill="white" stroke="#bfbfbf" points="391,-310.065 391,-329.065 474,-329.065 474,-310.065 391,-310.065"/>
<text text-anchor="middle" x="432.5" y="-317.065" font-family="Helvetica,sans-Serif" font-size="10.00">QProgressBar</text>
</g>
<!-- Node17&#45;&gt;Node16 -->
<g id="edge22" class="edge"><title>Node17&#45;&gt;Node16</title>
<path fill="none" stroke="midnightblue" d="M478.382,-307.637C488.401,-305.319 499.015,-303.127 509,-301.565 543.471,-296.171 581.935,-292.83 614.668,-290.773"/>
<polygon fill="midnightblue" stroke="midnightblue" points="477.517,-304.245 468.608,-309.979 479.149,-311.052 477.517,-304.245"/>
</g>
<!-- Node18&#45;&gt;Node12 -->
<g id="edge25" class="edge"><title>Node18&#45;&gt;Node12</title>
<path fill="none" stroke="#9a32cd" stroke-dasharray="5,2" d="M740.113,-156.608C781.291,-151.947 841.759,-151.328 886,-177.565 915.895,-195.293 932.353,-236.114 938.571,-254.847"/>
<polygon fill="#9a32cd" stroke="#9a32cd" points="739.568,-153.149 730.082,-157.867 740.44,-160.095 739.568,-153.149"/>
<text text-anchor="middle" x="837.5" y="-180.565" font-family="Helvetica,sans-Serif" font-size="10.00"> rpcConsole</text>
</g>
<!-- Node19 -->
<g id="node19" class="node"><title>Node19</title>
<polygon fill="white" stroke="#bfbfbf" points="404.5,-7.0646 404.5,-26.0646 460.5,-26.0646 460.5,-7.0646 404.5,-7.0646"/>
<text text-anchor="middle" x="432.5" y="-14.0646" font-family="Helvetica,sans-Serif" font-size="10.00">QWidget</text>
</g>
<!-- Node19&#45;&gt;Node18 -->
<g id="edge26" class="edge"><title>Node19&#45;&gt;Node18</title>
<path fill="none" stroke="midnightblue" d="M466.956,-30.1293C502.403,-45.7477 558.469,-74.1402 597,-111.565 607.882,-122.134 603.004,-131.279 615,-140.565 626.737,-149.65 641.956,-155.326 655.761,-158.859"/>
<polygon fill="midnightblue" stroke="midnightblue" points="468.105,-26.8132 457.536,-26.0659 465.332,-33.2407 468.105,-26.8132"/>
</g>
<!-- Node25 -->
<g id="node25" class="node"><title>Node25</title>
<g id="a_node25"><a xlink:href="class_modal_overlay.html" target="_top" xlink:title="Modal overlay to display information about the chain&#45;sync state. ">
<polygon fill="white" stroke="black" points="652.5,-32.0646 652.5,-51.0646 733.5,-51.0646 733.5,-32.0646 652.5,-32.0646"/>
<text text-anchor="middle" x="693" y="-39.0646" font-family="Helvetica,sans-Serif" font-size="10.00">ModalOverlay</text>
</a>
</g>
</g>
<!-- Node19&#45;&gt;Node25 -->
<g id="edge40" class="edge"><title>Node19&#45;&gt;Node25</title>
<path fill="none" stroke="midnightblue" d="M470.914,-18.2382C504.101,-19.9236 553.862,-22.9423 597,-27.5646 615.234,-29.5184 635.338,-32.378 652.339,-35.0043"/>
<polygon fill="midnightblue" stroke="midnightblue" points="470.911,-14.7339 460.751,-17.7375 470.567,-21.7254 470.911,-14.7339"/>
</g>
<!-- Node20 -->
<g id="node20" class="node"><title>Node20</title>
<g id="a_node20"><a xlink:href="class_r_p_c_timer_interface.html" target="_top" xlink:title="RPC timer &quot;driver&quot;. ">
<polygon fill="white" stroke="black" points="380.5,-187.065 380.5,-206.065 484.5,-206.065 484.5,-187.065 380.5,-187.065"/>
<text text-anchor="middle" x="432.5" y="-194.065" font-family="Helvetica,sans-Serif" font-size="10.00">RPCTimerInterface</text>
</a>
</g>
</g>
<!-- Node20&#45;&gt;Node18 -->
<g id="edge27" class="edge"><title>Node20&#45;&gt;Node18</title>
<path fill="none" stroke="#9a32cd" stroke-dasharray="5,2" d="M494.632,-188.997C544.699,-182.799 613.858,-174.238 655.616,-169.069"/>
<polygon fill="#9a32cd" stroke="#9a32cd" points="494.066,-185.54 484.571,-190.242 494.926,-192.487 494.066,-185.54"/>
<text text-anchor="middle" x="553" y="-189.565" font-family="Helvetica,sans-Serif" font-size="10.00"> rpcTimerInterface</text>
</g>
<!-- Node21&#45;&gt;Node12 -->
<g id="edge31" class="edge"><title>Node21&#45;&gt;Node12</title>
<path fill="none" stroke="#9a32cd" stroke-dasharray="5,2" d="M1085.56,-63.0292C1058.25,-58.1551 1023.32,-57.2131 999,-75.5646 969.246,-98.0188 949.92,-219.286 944.839,-254.792"/>
<polygon fill="#9a32cd" stroke="#9a32cd" points="1085.12,-66.5109 1095.62,-65.0578 1086.51,-59.6491 1085.12,-66.5109"/>
<text text-anchor="middle" x="1029.5" y="-78.5646" font-family="Helvetica,sans-Serif" font-size="10.00"> walletFrame</text>
</g>
<!-- Node22 -->
<g id="node22" class="node"><title>Node22</title>
<polygon fill="white" stroke="#bfbfbf" points="915.5,-32.0646 915.5,-51.0646 969.5,-51.0646 969.5,-32.0646 915.5,-32.0646"/>
<text text-anchor="middle" x="942.5" y="-39.0646" font-family="Helvetica,sans-Serif" font-size="10.00">QFrame</text>
</g>
<!-- Node22&#45;&gt;Node21 -->
<g id="edge32" class="edge"><title>Node22&#45;&gt;Node21</title>
<path fill="none" stroke="midnightblue" d="M979.653,-44.4551C1002.77,-46.6609 1033.32,-50.2401 1060,-55.5646 1072.42,-58.0426 1085.88,-61.643 1097.5,-65.0448"/>
<polygon fill="midnightblue" stroke="midnightblue" points="979.871,-40.9604 969.594,-43.5369 979.234,-47.9315 979.871,-40.9604"/>
</g>
<!-- Node23 -->
<g id="node23" class="node"><title>Node23</title>
<g id="a_node23"><a xlink:href="class_g_u_i_util_1_1_clickable_label.html" target="_top" xlink:title="GUIUtil::ClickableLabel">
<polygon fill="white" stroke="black" points="631.5,-316.065 631.5,-335.065 754.5,-335.065 754.5,-316.065 631.5,-316.065"/>
<text text-anchor="middle" x="693" y="-323.065" font-family="Helvetica,sans-Serif" font-size="10.00">GUIUtil::ClickableLabel</text>
</a>
</g>
</g>
<!-- Node23&#45;&gt;Node12 -->
<g id="edge36" class="edge"><title>Node23&#45;&gt;Node12</title>
<path fill="none" stroke="#9a32cd" stroke-dasharray="5,2" d="M764.926,-318.481C801.693,-313.538 846.953,-305.449 886,-292.565 899.938,-287.965 914.731,-280.35 925.536,-274.222"/>
<polygon fill="#9a32cd" stroke="#9a32cd" points="764.261,-315.038 754.794,-319.793 765.16,-321.98 764.261,-315.038"/>
<text text-anchor="middle" x="837.5" y="-338.565" font-family="Helvetica,sans-Serif" font-size="10.00"> connectionsControl</text>
<text text-anchor="middle" x="837.5" y="-327.565" font-family="Helvetica,sans-Serif" font-size="10.00">labelProxyIcon</text>
<text text-anchor="middle" x="837.5" y="-316.565" font-family="Helvetica,sans-Serif" font-size="10.00">labelBlocksIcon</text>
</g>
<!-- Node24 -->
<g id="node24" class="node"><title>Node24</title>
<polygon fill="white" stroke="#bfbfbf" points="407.5,-355.065 407.5,-374.065 457.5,-374.065 457.5,-355.065 407.5,-355.065"/>
<text text-anchor="middle" x="432.5" y="-362.065" font-family="Helvetica,sans-Serif" font-size="10.00">QLabel</text>
</g>
<!-- Node24&#45;&gt;Node23 -->
<g id="edge37" class="edge"><title>Node24&#45;&gt;Node23</title>
<path fill="none" stroke="midnightblue" d="M467.748,-359.398C509.412,-353.112 580.489,-342.388 631.463,-334.698"/>
<polygon fill="midnightblue" stroke="midnightblue" points="467.185,-355.943 457.819,-360.896 468.229,-362.864 467.185,-355.943"/>
</g>
<!-- Node24&#45;&gt;Node27 -->
<g id="edge44" class="edge"><title>Node24&#45;&gt;Node27</title>
<path fill="none" stroke="midnightblue" d="M468.27,-364.43C506.016,-364.284 567.455,-364.046 616.408,-363.857"/>
<polygon fill="midnightblue" stroke="midnightblue" points="467.805,-360.932 457.819,-364.471 467.833,-367.932 467.805,-360.932"/>
</g>
<!-- Node25&#45;&gt;Node12 -->
<g id="edge39" class="edge"><title>Node25&#45;&gt;Node12</title>
<path fill="none" stroke="#9a32cd" stroke-dasharray="5,2" d="M743.704,-32.1903C786.38,-27.1536 847.011,-27.5974 886,-60.5646 916.76,-86.5739 935.574,-217.956 940.313,-254.892"/>
<polygon fill="#9a32cd" stroke="#9a32cd" points="742.992,-28.7539 733.536,-33.5328 743.908,-35.6936 742.992,-28.7539"/>
<text text-anchor="middle" x="837.5" y="-63.5646" font-family="Helvetica,sans-Serif" font-size="10.00"> modalOverlay</text>
</g>
<!-- Node26&#45;&gt;Node12 -->
<g id="edge41" class="edge"><title>Node26&#45;&gt;Node12</title>
<path fill="none" stroke="#9a32cd" stroke-dasharray="5,2" d="M596.626,-255.557C640.388,-255.644 710.458,-256.043 771,-257.565 819.275,-258.778 875.197,-261.284 909.457,-262.945"/>
<polygon fill="#9a32cd" stroke="#9a32cd" points="596.364,-252.057 586.358,-255.542 596.353,-259.057 596.364,-252.057"/>
<text text-anchor="middle" x="693" y="-260.565" font-family="Helvetica,sans-Serif" font-size="10.00"> notificator</text>
</g>
<!-- Node27&#45;&gt;Node12 -->
<g id="edge43" class="edge"><title>Node27&#45;&gt;Node12</title>
<path fill="none" stroke="#9a32cd" stroke-dasharray="5,2" d="M779.731,-364.64C822.162,-363.729 868.074,-360.13 886,-349.565 915.304,-332.294 931.968,-292.752 938.395,-274.336"/>
<polygon fill="#9a32cd" stroke="#9a32cd" points="779.549,-361.142 769.609,-364.809 779.666,-368.141 779.549,-361.142"/>
<text text-anchor="middle" x="837.5" y="-366.565" font-family="Helvetica,sans-Serif" font-size="10.00"> unitDisplayControl</text>
</g>
</g>
</svg>
