<?xml version="1.0" encoding="UTF-8" standalone="no"?>
<!DOCTYPE svg PUBLIC "-//W3C//DTD SVG 1.1//EN"
 "http://www.w3.org/Graphics/SVG/1.1/DTD/svg11.dtd">
<!-- Generated by graphviz version 2.38.0 (20140413.2041)
 -->
<!-- Title: CNetAddr::GetHash Pages: 1 -->
<svg width="1021pt" height="730pt"
 viewBox="0.00 0.00 1021.00 730.35" xmlns="http://www.w3.org/2000/svg" xmlns:xlink="http://www.w3.org/1999/xlink">
<g id="graph0" class="graph" transform="scale(1 1) rotate(0) translate(4 726.346)">
<title>CNetAddr::GetHash</title>
<polygon fill="white" stroke="none" points="-4,4 -4,-726.346 1017,-726.346 1017,4 -4,4"/>
<!-- Node1 -->
<g id="node1" class="node"><title>Node1</title>
<polygon fill="#bfbfbf" stroke="black" points="0,-531.846 0,-550.846 111,-550.846 111,-531.846 0,-531.846"/>
<text text-anchor="middle" x="55.5" y="-538.846" font-family="Helvetica,sans-Serif" font-size="10.00">CNetAddr::GetHash</text>
</g>
<!-- Node2 -->
<g id="node2" class="node"><title>Node2</title>
<g id="a_node2"><a xlink:href="hash_8h.html#ab3f6c437460137530d86e09c2c102e99" target="_top" xlink:title="Compute the 256&#45;bit hash of an object. ">
<polygon fill="white" stroke="black" points="189,-550.846 189,-569.846 230,-569.846 230,-550.846 189,-550.846"/>
<text text-anchor="middle" x="209.5" y="-557.846" font-family="Helvetica,sans-Serif" font-size="10.00">Hash</text>
</a>
</g>
</g>
<!-- Node1&#45;&gt;Node2 -->
<g id="edge1" class="edge"><title>Node1&#45;&gt;Node2</title>
<path fill="none" stroke="midnightblue" d="M111.375,-548.206C134.192,-551.058 159.767,-554.255 178.944,-556.652"/>
<polygon fill="midnightblue" stroke="midnightblue" points="178.525,-560.126 188.882,-557.894 179.393,-553.181 178.525,-560.126"/>
</g>
<!-- Node5 -->
<g id="node5" class="node"><title>Node5</title>
<g id="a_node5"><a xlink:href="glibc__compat_8cpp.html#a0f46826ab0466591e136db24394923cf" target="_top" xlink:title="memcpy">
<polygon fill="white" stroke="black" points="810.5,-683.846 810.5,-702.846 869.5,-702.846 869.5,-683.846 810.5,-683.846"/>
<text text-anchor="middle" x="840" y="-690.846" font-family="Helvetica,sans-Serif" font-size="10.00">memcpy</text>
</a>
</g>
</g>
<!-- Node1&#45;&gt;Node5 -->
<g id="edge13" class="edge"><title>Node1&#45;&gt;Node5</title>
<path fill="none" stroke="midnightblue" d="M65.6017,-551.03C100.638,-587.204 231.559,-712.346 366,-712.346 366,-712.346 366,-712.346 522.5,-712.346 622.723,-712.346 740.477,-702.736 800.132,-697.185"/>
<polygon fill="midnightblue" stroke="midnightblue" points="800.606,-700.656 810.233,-696.232 799.948,-693.687 800.606,-700.656"/>
</g>
<!-- Node12 -->
<g id="node12" class="node"><title>Node12</title>
<g id="a_node12"><a xlink:href="class_c_net_addr.html#afc6e370bb97c97f83260bba898ec4731" target="_top" xlink:title="CNetAddr::IsRFC4380">
<polygon fill="white" stroke="black" points="150,-512.846 150,-531.846 269,-531.846 269,-512.846 150,-512.846"/>
<text text-anchor="middle" x="209.5" y="-519.846" font-family="Helvetica,sans-Serif" font-size="10.00">CNetAddr::IsRFC4380</text>
</a>
</g>
</g>
<!-- Node1&#45;&gt;Node12 -->
<g id="edge14" class="edge"><title>Node1&#45;&gt;Node12</title>
<path fill="none" stroke="midnightblue" d="M111.375,-534.487C120.555,-533.339 130.182,-532.136 139.659,-530.951"/>
<polygon fill="midnightblue" stroke="midnightblue" points="140.367,-534.39 149.855,-529.677 139.498,-527.444 140.367,-534.39"/>
</g>
<!-- Node14 -->
<g id="node14" class="node"><title>Node14</title>
<g id="a_node14"><a xlink:href="class_c_net_addr.html#a34a4760424f5c51998fc3baf82ccb5c8" target="_top" xlink:title="CNetAddr::GetNetwork">
<polygon fill="white" stroke="black" points="147,-227.846 147,-246.846 272,-246.846 272,-227.846 147,-227.846"/>
<text text-anchor="middle" x="209.5" y="-234.846" font-family="Helvetica,sans-Serif" font-size="10.00">CNetAddr::GetNetwork</text>
</a>
</g>
</g>
<!-- Node1&#45;&gt;Node14 -->
<g id="edge16" class="edge"><title>Node1&#45;&gt;Node14</title>
<path fill="none" stroke="midnightblue" d="M61.3852,-531.576C83.0045,-488.337 170.278,-313.791 199.164,-256.018"/>
<polygon fill="midnightblue" stroke="midnightblue" points="202.367,-257.438 203.709,-246.929 196.106,-254.308 202.367,-257.438"/>
</g>
<!-- Node3 -->
<g id="node3" class="node"><title>Node3</title>
<g id="a_node3"><a xlink:href="class_c_hash256.html#a9cc25033c6435cb28e2e8e377c949a7a" target="_top" xlink:title="CHash256::Write">
<polygon fill="white" stroke="black" points="319.5,-550.846 319.5,-569.846 414.5,-569.846 414.5,-550.846 319.5,-550.846"/>
<text text-anchor="middle" x="367" y="-557.846" font-family="Helvetica,sans-Serif" font-size="10.00">CHash256::Write</text>
</a>
</g>
</g>
<!-- Node2&#45;&gt;Node3 -->
<g id="edge2" class="edge"><title>Node2&#45;&gt;Node3</title>
<path fill="none" stroke="midnightblue" d="M230.194,-560.346C250.065,-560.346 281.689,-560.346 309.423,-560.346"/>
<polygon fill="midnightblue" stroke="midnightblue" points="309.435,-563.846 319.435,-560.346 309.435,-556.846 309.435,-563.846"/>
</g>
<!-- Node9 -->
<g id="node9" class="node"><title>Node9</title>
<g id="a_node9"><a xlink:href="class_c_hash256.html#aa8a70c1b7cf24ce7d00240a1131cf4e7" target="_top" xlink:title="CHash256::Finalize">
<polygon fill="white" stroke="black" points="313.5,-607.846 313.5,-626.846 420.5,-626.846 420.5,-607.846 313.5,-607.846"/>
<text text-anchor="middle" x="367" y="-614.846" font-family="Helvetica,sans-Serif" font-size="10.00">CHash256::Finalize</text>
</a>
</g>
</g>
<!-- Node2&#45;&gt;Node9 -->
<g id="edge8" class="edge"><title>Node2&#45;&gt;Node9</title>
<path fill="none" stroke="midnightblue" d="M230.194,-567.565C255.341,-576.783 299.311,-592.901 330.399,-604.296"/>
<polygon fill="midnightblue" stroke="midnightblue" points="329.405,-607.66 339.999,-607.815 331.814,-601.087 329.405,-607.66"/>
</g>
<!-- Node4 -->
<g id="node4" class="node"><title>Node4</title>
<g id="a_node4"><a xlink:href="class_c_s_h_a256.html#a9d7de520a562655da85349372820c883" target="_top" xlink:title="CSHA256::Write">
<polygon fill="white" stroke="black" points="630.5,-607.846 630.5,-626.846 722.5,-626.846 722.5,-607.846 630.5,-607.846"/>
<text text-anchor="middle" x="676.5" y="-614.846" font-family="Helvetica,sans-Serif" font-size="10.00">CSHA256::Write</text>
</a>
</g>
</g>
<!-- Node3&#45;&gt;Node4 -->
<g id="edge3" class="edge"><title>Node3&#45;&gt;Node4</title>
<path fill="none" stroke="midnightblue" d="M414.703,-569.003C469.859,-579.227 561.504,-596.215 620.169,-607.09"/>
<polygon fill="midnightblue" stroke="midnightblue" points="619.894,-610.598 630.365,-608.98 621.17,-603.716 619.894,-610.598"/>
</g>
<!-- Node4&#45;&gt;Node5 -->
<g id="edge4" class="edge"><title>Node4&#45;&gt;Node5</title>
<path fill="none" stroke="midnightblue" d="M697.954,-626.972C726.107,-640.22 776.978,-664.159 809.316,-679.377"/>
<polygon fill="midnightblue" stroke="midnightblue" points="808.173,-682.708 818.712,-683.799 811.154,-676.374 808.173,-682.708"/>
</g>
<!-- Node8 -->
<g id="node8" class="node"><title>Node8</title>
<g id="a_node8"><a xlink:href="namespacesha256__shani.html#a97d2e267c87add9a1172d948e05ba471" target="_top" xlink:title="sha256_shani::Transform">
<polygon fill="white" stroke="black" points="772,-607.846 772,-626.846 908,-626.846 908,-607.846 772,-607.846"/>
<text text-anchor="middle" x="840" y="-614.846" font-family="Helvetica,sans-Serif" font-size="10.00">sha256_shani::Transform</text>
</a>
</g>
</g>
<!-- Node4&#45;&gt;Node8 -->
<g id="edge7" class="edge"><title>Node4&#45;&gt;Node8</title>
<path fill="none" stroke="midnightblue" d="M722.917,-617.346C735.035,-617.346 748.476,-617.346 761.788,-617.346"/>
<polygon fill="midnightblue" stroke="midnightblue" points="761.919,-620.846 771.919,-617.346 761.919,-613.846 761.919,-620.846"/>
</g>
<!-- Node6 -->
<g id="node6" class="node"><title>Node6</title>
<g id="a_node6"><a xlink:href="glibc__compat_8cpp.html#a9778d49e9029dd75bc53ecbbf9f5e9a1" target="_top" xlink:title="memmove">
<polygon fill="white" stroke="black" points="944,-702.846 944,-721.846 1013,-721.846 1013,-702.846 944,-702.846"/>
<text text-anchor="middle" x="978.5" y="-709.846" font-family="Helvetica,sans-Serif" font-size="10.00">memmove</text>
</a>
</g>
</g>
<!-- Node5&#45;&gt;Node6 -->
<g id="edge5" class="edge"><title>Node5&#45;&gt;Node6</title>
<path fill="none" stroke="midnightblue" d="M869.615,-697.329C888.157,-699.91 912.673,-703.323 933.648,-706.242"/>
<polygon fill="midnightblue" stroke="midnightblue" points="933.232,-709.718 943.619,-707.63 934.197,-702.785 933.232,-709.718"/>
</g>
<!-- Node7 -->
<g id="node7" class="node"><title>Node7</title>
<g id="a_node7"><a xlink:href="glibc__compat_8cpp.html#a424ac71631da5ada2976630ff67051d1" target="_top" xlink:title="__chk_fail">
<polygon fill="white" stroke="black" points="947.5,-664.846 947.5,-683.846 1009.5,-683.846 1009.5,-664.846 947.5,-664.846"/>
<text text-anchor="middle" x="978.5" y="-671.846" font-family="Helvetica,sans-Serif" font-size="10.00">__chk_fail</text>
</a>
</g>
</g>
<!-- Node5&#45;&gt;Node7 -->
<g id="edge6" class="edge"><title>Node5&#45;&gt;Node7</title>
<path fill="none" stroke="midnightblue" d="M869.615,-689.363C889.186,-686.639 915.412,-682.988 937.106,-679.969"/>
<polygon fill="midnightblue" stroke="midnightblue" points="937.605,-683.433 947.027,-678.588 936.64,-676.5 937.605,-683.433"/>
</g>
<!-- Node9&#45;&gt;Node4 -->
<g id="edge12" class="edge"><title>Node9&#45;&gt;Node4</title>
<path fill="none" stroke="midnightblue" d="M420.512,-617.346C476.062,-617.346 563.352,-617.346 620.007,-617.346"/>
<polygon fill="midnightblue" stroke="midnightblue" points="620.215,-620.846 630.215,-617.346 620.215,-613.846 620.215,-620.846"/>
</g>
<!-- Node10 -->
<g id="node10" class="node"><title>Node10</title>
<g id="a_node10"><a xlink:href="class_c_s_h_a256.html#a4259230be0caefa590bc324fc12b9b90" target="_top" xlink:title="CSHA256::Finalize">
<polygon fill="white" stroke="black" points="470,-664.846 470,-683.846 573,-683.846 573,-664.846 470,-664.846"/>
<text text-anchor="middle" x="521.5" y="-671.846" font-family="Helvetica,sans-Serif" font-size="10.00">CSHA256::Finalize</text>
</a>
</g>
</g>
<!-- Node9&#45;&gt;Node10 -->
<g id="edge9" class="edge"><title>Node9&#45;&gt;Node10</title>
<path fill="none" stroke="midnightblue" d="M390.241,-626.851C409.181,-634.821 437.189,-646.315 462,-655.346 467.721,-657.429 473.796,-659.526 479.782,-661.528"/>
<polygon fill="midnightblue" stroke="midnightblue" points="479.104,-664.99 489.697,-664.789 481.291,-658.34 479.104,-664.99"/>
</g>
<!-- Node11 -->
<g id="node11" class="node"><title>Node11</title>
<g id="a_node11"><a xlink:href="class_c_s_h_a256.html#a2122395dd5604990eaa0077b43a0e8d4" target="_top" xlink:title="CSHA256::Reset">
<polygon fill="white" stroke="black" points="474,-626.846 474,-645.846 569,-645.846 569,-626.846 474,-626.846"/>
<text text-anchor="middle" x="521.5" y="-633.846" font-family="Helvetica,sans-Serif" font-size="10.00">CSHA256::Reset</text>
</a>
</g>
</g>
<!-- Node9&#45;&gt;Node11 -->
<g id="edge11" class="edge"><title>Node9&#45;&gt;Node11</title>
<path fill="none" stroke="midnightblue" d="M420.909,-623.938C434.754,-625.663 449.735,-627.53 463.77,-629.278"/>
<polygon fill="midnightblue" stroke="midnightblue" points="463.437,-632.764 473.793,-630.527 464.302,-625.817 463.437,-632.764"/>
</g>
<!-- Node10&#45;&gt;Node4 -->
<g id="edge10" class="edge"><title>Node10&#45;&gt;Node4</title>
<path fill="none" stroke="midnightblue" d="M553.299,-664.779C562.274,-661.873 572.066,-658.589 581,-655.346 601.994,-647.726 625.274,-638.376 643.475,-630.857"/>
<polygon fill="midnightblue" stroke="midnightblue" points="644.862,-634.071 652.754,-627.001 642.176,-627.606 644.862,-634.071"/>
</g>
<!-- Node13 -->
<g id="node13" class="node"><title>Node13</title>
<g id="a_node13"><a xlink:href="class_c_net_addr.html#a0793d30a6baae6e3d4e06084ec33eddd" target="_top" xlink:title="CNetAddr::GetByte">
<polygon fill="white" stroke="black" points="786,-303.846 786,-322.846 894,-322.846 894,-303.846 786,-303.846"/>
<text text-anchor="middle" x="840" y="-310.846" font-family="Helvetica,sans-Serif" font-size="10.00">CNetAddr::GetByte</text>
</a>
</g>
</g>
<!-- Node12&#45;&gt;Node13 -->
<g id="edge15" class="edge"><title>Node12&#45;&gt;Node13</title>
<path fill="none" stroke="midnightblue" d="M269.194,-527.335C389.585,-536.442 659.579,-550.737 736,-503.346 798.667,-464.485 825.818,-373.319 835.052,-333.055"/>
<polygon fill="midnightblue" stroke="midnightblue" points="838.505,-333.648 837.196,-323.134 831.663,-332.169 838.505,-333.648"/>
</g>
<!-- Node15 -->
<g id="node15" class="node"><title>Node15</title>
<g id="a_node15"><a xlink:href="class_c_net_addr.html#ab6a1988f734e2f0c4a67ebaefe8b01c8" target="_top" xlink:title="CNetAddr::IsInternal">
<polygon fill="white" stroke="black" points="620,-56.8462 620,-75.8462 733,-75.8462 733,-56.8462 620,-56.8462"/>
<text text-anchor="middle" x="676.5" y="-63.8462" font-family="Helvetica,sans-Serif" font-size="10.00">CNetAddr::IsInternal</text>
</a>
</g>
</g>
<!-- Node14&#45;&gt;Node15 -->
<g id="edge17" class="edge"><title>Node14&#45;&gt;Node15</title>
<path fill="none" stroke="midnightblue" d="M213.662,-227.631C223.283,-199.515 254.829,-117.163 308,-71.3462 363.895,-23.1827 389.564,-23.3802 462,-9.34621 513.923,0.713562 530.047,4.83101 581,-9.34621 609.553,-17.2908 638.103,-36.446 656.229,-50.3631"/>
<polygon fill="midnightblue" stroke="midnightblue" points="654.229,-53.244 664.244,-56.7023 658.572,-47.7537 654.229,-53.244"/>
</g>
<!-- Node16 -->
<g id="node16" class="node"><title>Node16</title>
<g id="a_node16"><a xlink:href="class_c_net_addr.html#a35131b2792434d1c9a860c583b610ab6" target="_top" xlink:title="CNetAddr::IsRoutable">
<polygon fill="white" stroke="black" points="308,-227.846 308,-246.846 426,-246.846 426,-227.846 308,-227.846"/>
<text text-anchor="middle" x="367" y="-234.846" font-family="Helvetica,sans-Serif" font-size="10.00">CNetAddr::IsRoutable</text>
</a>
</g>
</g>
<!-- Node14&#45;&gt;Node16 -->
<g id="edge18" class="edge"><title>Node14&#45;&gt;Node16</title>
<path fill="none" stroke="midnightblue" d="M272.405,-237.346C280.714,-237.346 289.275,-237.346 297.687,-237.346"/>
<polygon fill="midnightblue" stroke="midnightblue" points="297.847,-240.846 307.847,-237.346 297.847,-233.846 297.847,-240.846"/>
</g>
<!-- Node19 -->
<g id="node19" class="node"><title>Node19</title>
<g id="a_node19"><a xlink:href="class_c_net_addr.html#a16ff4478f02f06f5a9a038a24d5da2f9" target="_top" xlink:title="CNetAddr::IsIPv4">
<polygon fill="white" stroke="black" points="628.5,-246.846 628.5,-265.846 724.5,-265.846 724.5,-246.846 628.5,-246.846"/>
<text text-anchor="middle" x="676.5" y="-253.846" font-family="Helvetica,sans-Serif" font-size="10.00">CNetAddr::IsIPv4</text>
</a>
</g>
</g>
<!-- Node14&#45;&gt;Node19 -->
<g id="edge49" class="edge"><title>Node14&#45;&gt;Node19</title>
<path fill="none" stroke="midnightblue" d="M225.583,-246.99C263.461,-270.565 366.409,-330.693 462,-351.346 513.696,-362.516 532.164,-371.65 581,-351.346 618.382,-335.804 648.609,-297.493 664.135,-274.551"/>
<polygon fill="midnightblue" stroke="midnightblue" points="667.154,-276.328 669.695,-266.043 661.295,-272.499 667.154,-276.328"/>
</g>
<!-- Node27 -->
<g id="node27" class="node"><title>Node27</title>
<g id="a_node27"><a xlink:href="class_c_net_addr.html#a3fba9e0b18f531c0ed15794a30e8165d" target="_top" xlink:title="CNetAddr::IsTor">
<polygon fill="white" stroke="black" points="476.5,-18.8462 476.5,-37.8462 566.5,-37.8462 566.5,-18.8462 476.5,-18.8462"/>
<text text-anchor="middle" x="521.5" y="-25.8462" font-family="Helvetica,sans-Serif" font-size="10.00">CNetAddr::IsTor</text>
</a>
</g>
</g>
<!-- Node14&#45;&gt;Node27 -->
<g id="edge50" class="edge"><title>Node14&#45;&gt;Node27</title>
<path fill="none" stroke="midnightblue" d="M221.886,-227.526C256.275,-198.206 362.808,-109.843 462,-53.3462 469.301,-49.188 477.428,-45.2935 485.246,-41.8733"/>
<polygon fill="midnightblue" stroke="midnightblue" points="486.697,-45.0599 494.553,-37.9506 483.978,-38.6095 486.697,-45.0599"/>
</g>
<!-- Node16&#45;&gt;Node15 -->
<g id="edge48" class="edge"><title>Node16&#45;&gt;Node15</title>
<path fill="none" stroke="midnightblue" d="M372.479,-227.822C387.043,-197.283 433.746,-102.78 462,-85.3462 505.924,-58.2438 564.921,-54.9316 609.767,-57.5866"/>
<polygon fill="midnightblue" stroke="midnightblue" points="609.753,-61.0943 619.975,-58.3073 610.246,-54.1117 609.753,-61.0943"/>
</g>
<!-- Node17 -->
<g id="node17" class="node"><title>Node17</title>
<g id="a_node17"><a xlink:href="class_c_net_addr.html#a52a1b506f07e5450057e12a8b5a7fbcd" target="_top" xlink:title="CNetAddr::IsValid">
<polygon fill="white" stroke="black" points="472,-94.8462 472,-113.846 571,-113.846 571,-94.8462 472,-94.8462"/>
<text text-anchor="middle" x="521.5" y="-101.846" font-family="Helvetica,sans-Serif" font-size="10.00">CNetAddr::IsValid</text>
</a>
</g>
</g>
<!-- Node16&#45;&gt;Node17 -->
<g id="edge19" class="edge"><title>Node16&#45;&gt;Node17</title>
<path fill="none" stroke="midnightblue" d="M373.25,-227.839C385.737,-206.09 419.377,-152.36 462,-123.346 464.913,-121.363 468.047,-119.576 471.297,-117.967"/>
<polygon fill="midnightblue" stroke="midnightblue" points="472.9,-121.086 480.674,-113.888 470.108,-114.667 472.9,-121.086"/>
</g>
<!-- Node20 -->
<g id="node20" class="node"><title>Node20</title>
<g id="a_node20"><a xlink:href="class_c_net_addr.html#a81b190a7e0b05b93bf3097ba43e5cec1" target="_top" xlink:title="CNetAddr::IsRFC1918">
<polygon fill="white" stroke="black" points="462,-398.846 462,-417.846 581,-417.846 581,-398.846 462,-398.846"/>
<text text-anchor="middle" x="521.5" y="-405.846" font-family="Helvetica,sans-Serif" font-size="10.00">CNetAddr::IsRFC1918</text>
</a>
</g>
</g>
<!-- Node16&#45;&gt;Node20 -->
<g id="edge24" class="edge"><title>Node16&#45;&gt;Node20</title>
<path fill="none" stroke="midnightblue" d="M375.459,-247.101C390.939,-267.18 427.951,-314.352 462,-351.346 474.952,-365.419 490.495,-380.485 502.303,-391.591"/>
<polygon fill="midnightblue" stroke="midnightblue" points="500.103,-394.326 509.803,-398.587 504.878,-389.207 500.103,-394.326"/>
</g>
<!-- Node21 -->
<g id="node21" class="node"><title>Node21</title>
<g id="a_node21"><a xlink:href="class_c_net_addr.html#a7879f3a079c815c2e2b7fc3cd7f65d3a" target="_top" xlink:title="CNetAddr::IsRFC2544">
<polygon fill="white" stroke="black" points="462,-322.846 462,-341.846 581,-341.846 581,-322.846 462,-322.846"/>
<text text-anchor="middle" x="521.5" y="-329.846" font-family="Helvetica,sans-Serif" font-size="10.00">CNetAddr::IsRFC2544</text>
</a>
</g>
</g>
<!-- Node16&#45;&gt;Node21 -->
<g id="edge27" class="edge"><title>Node16&#45;&gt;Node21</title>
<path fill="none" stroke="midnightblue" d="M377.287,-246.856C393.247,-262.708 427.503,-294.636 462,-313.346 465.961,-315.495 470.207,-317.451 474.534,-319.221"/>
<polygon fill="midnightblue" stroke="midnightblue" points="473.47,-322.56 484.062,-322.797 475.93,-316.006 473.47,-322.56"/>
</g>
<!-- Node22 -->
<g id="node22" class="node"><title>Node22</title>
<g id="a_node22"><a xlink:href="class_c_net_addr.html#a3d8e5495fd3a2f92bedf272452a2d4b0" target="_top" xlink:title="CNetAddr::IsRFC3927">
<polygon fill="white" stroke="black" points="462,-246.846 462,-265.846 581,-265.846 581,-246.846 462,-246.846"/>
<text text-anchor="middle" x="521.5" y="-253.846" font-family="Helvetica,sans-Serif" font-size="10.00">CNetAddr::IsRFC3927</text>
</a>
</g>
</g>
<!-- Node16&#45;&gt;Node22 -->
<g id="edge30" class="edge"><title>Node16&#45;&gt;Node22</title>
<path fill="none" stroke="midnightblue" d="M426.089,-244.583C434.498,-245.631 443.22,-246.718 451.813,-247.789"/>
<polygon fill="midnightblue" stroke="midnightblue" points="451.459,-251.271 461.815,-249.035 452.324,-244.325 451.459,-251.271"/>
</g>
<!-- Node23 -->
<g id="node23" class="node"><title>Node23</title>
<g id="a_node23"><a xlink:href="class_c_net_addr.html#a5cba67eb628ea99ea68addfe14913fa3" target="_top" xlink:title="CNetAddr::IsRFC4862">
<polygon fill="white" stroke="black" points="462,-284.846 462,-303.846 581,-303.846 581,-284.846 462,-284.846"/>
<text text-anchor="middle" x="521.5" y="-291.846" font-family="Helvetica,sans-Serif" font-size="10.00">CNetAddr::IsRFC4862</text>
</a>
</g>
</g>
<!-- Node16&#45;&gt;Node23 -->
<g id="edge33" class="edge"><title>Node16&#45;&gt;Node23</title>
<path fill="none" stroke="midnightblue" d="M390.241,-246.851C409.181,-254.821 437.189,-266.315 462,-275.346 467.721,-277.429 473.796,-279.526 479.782,-281.528"/>
<polygon fill="midnightblue" stroke="midnightblue" points="479.104,-284.99 489.697,-284.789 481.291,-278.34 479.104,-284.99"/>
</g>
<!-- Node24 -->
<g id="node24" class="node"><title>Node24</title>
<g id="a_node24"><a xlink:href="class_c_net_addr.html#a9df45c643f24325e9a4749e2f5caad21" target="_top" xlink:title="CNetAddr::IsRFC6598">
<polygon fill="white" stroke="black" points="462,-208.846 462,-227.846 581,-227.846 581,-208.846 462,-208.846"/>
<text text-anchor="middle" x="521.5" y="-215.846" font-family="Helvetica,sans-Serif" font-size="10.00">CNetAddr::IsRFC6598</text>
</a>
</g>
</g>
<!-- Node16&#45;&gt;Node24 -->
<g id="edge34" class="edge"><title>Node16&#45;&gt;Node24</title>
<path fill="none" stroke="midnightblue" d="M426.089,-230.109C434.498,-229.061 443.22,-227.974 451.813,-226.904"/>
<polygon fill="midnightblue" stroke="midnightblue" points="452.324,-230.367 461.815,-225.658 451.459,-223.421 452.324,-230.367"/>
</g>
<!-- Node25 -->
<g id="node25" class="node"><title>Node25</title>
<g id="a_node25"><a xlink:href="class_c_net_addr.html#a1ea17f90b788e435dc303f57874c1fdf" target="_top" xlink:title="CNetAddr::IsRFC5737">
<polygon fill="white" stroke="black" points="462,-170.846 462,-189.846 581,-189.846 581,-170.846 462,-170.846"/>
<text text-anchor="middle" x="521.5" y="-177.846" font-family="Helvetica,sans-Serif" font-size="10.00">CNetAddr::IsRFC5737</text>
</a>
</g>
</g>
<!-- Node16&#45;&gt;Node25 -->
<g id="edge37" class="edge"><title>Node16&#45;&gt;Node25</title>
<path fill="none" stroke="midnightblue" d="M390.241,-227.842C409.181,-219.872 437.189,-208.378 462,-199.346 467.721,-197.264 473.796,-195.166 479.782,-193.164"/>
<polygon fill="midnightblue" stroke="midnightblue" points="481.291,-196.352 489.697,-189.903 479.104,-189.703 481.291,-196.352"/>
</g>
<!-- Node26 -->
<g id="node26" class="node"><title>Node26</title>
<g id="a_node26"><a xlink:href="class_c_net_addr.html#ac47bf0c27f8026497b1933393a6570ba" target="_top" xlink:title="CNetAddr::IsRFC4193">
<polygon fill="white" stroke="black" points="617,-436.846 617,-455.846 736,-455.846 736,-436.846 617,-436.846"/>
<text text-anchor="middle" x="676.5" y="-443.846" font-family="Helvetica,sans-Serif" font-size="10.00">CNetAddr::IsRFC4193</text>
</a>
</g>
</g>
<!-- Node16&#45;&gt;Node26 -->
<g id="edge40" class="edge"><title>Node16&#45;&gt;Node26</title>
<path fill="none" stroke="midnightblue" d="M369.436,-246.967C374.781,-279.02 396.698,-382.665 462,-427.346 503.883,-456.004 561.732,-459.521 606.65,-456.55"/>
<polygon fill="midnightblue" stroke="midnightblue" points="607.202,-460.017 616.897,-455.746 606.654,-453.039 607.202,-460.017"/>
</g>
<!-- Node16&#45;&gt;Node27 -->
<g id="edge42" class="edge"><title>Node16&#45;&gt;Node27</title>
<path fill="none" stroke="midnightblue" d="M372.622,-227.798C390.53,-190.863 454.717,-59.063 462,-52.3462 466.186,-48.4854 471.078,-45.2037 476.217,-42.4251"/>
<polygon fill="midnightblue" stroke="midnightblue" points="478.106,-45.4028 485.637,-37.9504 475.102,-39.0799 478.106,-45.4028"/>
</g>
<!-- Node28 -->
<g id="node28" class="node"><title>Node28</title>
<g id="a_node28"><a xlink:href="class_c_net_addr.html#ad69e51fffff5ee9fcabedda51f10a3ce" target="_top" xlink:title="CNetAddr::IsRFC4843">
<polygon fill="white" stroke="black" points="617,-474.846 617,-493.846 736,-493.846 736,-474.846 617,-474.846"/>
<text text-anchor="middle" x="676.5" y="-481.846" font-family="Helvetica,sans-Serif" font-size="10.00">CNetAddr::IsRFC4843</text>
</a>
</g>
</g>
<!-- Node16&#45;&gt;Node28 -->
<g id="edge43" class="edge"><title>Node16&#45;&gt;Node28</title>
<path fill="none" stroke="midnightblue" d="M368.896,-247.273C372.646,-282.481 390.409,-402.162 462,-456.346 502.876,-487.283 561.22,-493.111 606.591,-491.853"/>
<polygon fill="midnightblue" stroke="midnightblue" points="606.796,-495.347 616.649,-491.453 606.518,-488.353 606.796,-495.347"/>
</g>
<!-- Node29 -->
<g id="node29" class="node"><title>Node29</title>
<g id="a_node29"><a xlink:href="class_c_net_addr.html#a6cfa18f323424408cf7ace36c9a7c2e2" target="_top" xlink:title="CNetAddr::IsLocal">
<polygon fill="white" stroke="black" points="471,-132.846 471,-151.846 572,-151.846 572,-132.846 471,-132.846"/>
<text text-anchor="middle" x="521.5" y="-139.846" font-family="Helvetica,sans-Serif" font-size="10.00">CNetAddr::IsLocal</text>
</a>
</g>
</g>
<!-- Node16&#45;&gt;Node29 -->
<g id="edge45" class="edge"><title>Node16&#45;&gt;Node29</title>
<path fill="none" stroke="midnightblue" d="M377.287,-227.837C393.247,-211.985 427.503,-180.057 462,-161.346 465.961,-159.198 470.207,-157.241 474.534,-155.472"/>
<polygon fill="midnightblue" stroke="midnightblue" points="475.93,-158.686 484.062,-151.895 473.47,-152.133 475.93,-158.686"/>
</g>
<!-- Node17&#45;&gt;Node15 -->
<g id="edge22" class="edge"><title>Node17&#45;&gt;Node15</title>
<path fill="none" stroke="midnightblue" d="M561.108,-94.7572C581.207,-89.7653 605.975,-83.6138 627.319,-78.3129"/>
<polygon fill="midnightblue" stroke="midnightblue" points="628.308,-81.6736 637.169,-75.8663 626.62,-74.88 628.308,-81.6736"/>
</g>
<!-- Node18 -->
<g id="node18" class="node"><title>Node18</title>
<g id="a_node18"><a xlink:href="class_c_net_addr.html#a639dff0ffea6ad930353784686def39b" target="_top" xlink:title="CNetAddr::IsRFC3849">
<polygon fill="white" stroke="black" points="617,-94.8462 617,-113.846 736,-113.846 736,-94.8462 617,-94.8462"/>
<text text-anchor="middle" x="676.5" y="-101.846" font-family="Helvetica,sans-Serif" font-size="10.00">CNetAddr::IsRFC3849</text>
</a>
</g>
</g>
<!-- Node17&#45;&gt;Node18 -->
<g id="edge20" class="edge"><title>Node17&#45;&gt;Node18</title>
<path fill="none" stroke="midnightblue" d="M571.331,-104.346C582.673,-104.346 594.952,-104.346 606.966,-104.346"/>
<polygon fill="midnightblue" stroke="midnightblue" points="606.97,-107.846 616.97,-104.346 606.97,-100.846 606.97,-107.846"/>
</g>
<!-- Node17&#45;&gt;Node19 -->
<g id="edge23" class="edge"><title>Node17&#45;&gt;Node19</title>
<path fill="none" stroke="midnightblue" d="M563.48,-113.912C569.681,-116.393 575.75,-119.49 581,-123.346 622.68,-153.962 652.975,-208.558 666.924,-237.356"/>
<polygon fill="midnightblue" stroke="midnightblue" points="663.896,-239.142 671.315,-246.707 670.233,-236.167 663.896,-239.142"/>
</g>
<!-- Node18&#45;&gt;Node13 -->
<g id="edge21" class="edge"><title>Node18&#45;&gt;Node13</title>
<path fill="none" stroke="midnightblue" d="M711.595,-113.873C720.229,-117.424 729.022,-122.151 736,-128.346 789.292,-175.661 820.938,-257.407 833.16,-294.302"/>
<polygon fill="midnightblue" stroke="midnightblue" points="829.832,-295.385 836.214,-303.841 836.498,-293.25 829.832,-295.385"/>
</g>
<!-- Node20&#45;&gt;Node13 -->
<g id="edge26" class="edge"><title>Node20&#45;&gt;Node13</title>
<path fill="none" stroke="midnightblue" d="M554.296,-398.802C611.881,-381.518 733.392,-345.045 797.455,-325.816"/>
<polygon fill="midnightblue" stroke="midnightblue" points="798.653,-329.111 807.225,-322.884 796.641,-322.406 798.653,-329.111"/>
</g>
<!-- Node20&#45;&gt;Node19 -->
<g id="edge25" class="edge"><title>Node20&#45;&gt;Node19</title>
<path fill="none" stroke="midnightblue" d="M554.563,-398.821C563.664,-395.189 573.208,-390.42 581,-384.346 620.389,-353.645 651.276,-302.466 666.024,-275.046"/>
<polygon fill="midnightblue" stroke="midnightblue" points="669.17,-276.583 670.713,-266.101 662.97,-273.333 669.17,-276.583"/>
</g>
<!-- Node21&#45;&gt;Node13 -->
<g id="edge29" class="edge"><title>Node21&#45;&gt;Node13</title>
<path fill="none" stroke="midnightblue" d="M581.289,-328.817C636.49,-325.503 718.842,-320.559 775.519,-317.157"/>
<polygon fill="midnightblue" stroke="midnightblue" points="776.019,-320.633 785.791,-316.54 775.599,-313.646 776.019,-320.633"/>
</g>
<!-- Node21&#45;&gt;Node19 -->
<g id="edge28" class="edge"><title>Node21&#45;&gt;Node19</title>
<path fill="none" stroke="midnightblue" d="M556.413,-322.785C564.602,-320.081 573.229,-316.895 581,-313.346 607.061,-301.445 634.919,-284 653.583,-271.547"/>
<polygon fill="midnightblue" stroke="midnightblue" points="655.636,-274.384 661.958,-265.882 651.714,-268.586 655.636,-274.384"/>
</g>
<!-- Node22&#45;&gt;Node13 -->
<g id="edge32" class="edge"><title>Node22&#45;&gt;Node13</title>
<path fill="none" stroke="midnightblue" d="M568.591,-265.89C583.968,-269.001 601.206,-272.407 617,-275.346 670.496,-285.301 731.432,-295.661 775.911,-303.045"/>
<polygon fill="midnightblue" stroke="midnightblue" points="775.557,-306.534 785.994,-304.715 776.7,-299.628 775.557,-306.534"/>
</g>
<!-- Node22&#45;&gt;Node19 -->
<g id="edge31" class="edge"><title>Node22&#45;&gt;Node19</title>
<path fill="none" stroke="midnightblue" d="M581.216,-256.346C593.209,-256.346 605.819,-256.346 617.777,-256.346"/>
<polygon fill="midnightblue" stroke="midnightblue" points="618.085,-259.846 628.085,-256.346 618.085,-252.846 618.085,-259.846"/>
</g>
<!-- Node24&#45;&gt;Node13 -->
<g id="edge36" class="edge"><title>Node24&#45;&gt;Node13</title>
<path fill="none" stroke="midnightblue" d="M581.025,-215.166C625.028,-214.745 686.065,-218.424 736,-237.346 770.548,-250.438 803.663,-278.578 822.636,-296.7"/>
<polygon fill="midnightblue" stroke="midnightblue" points="820.272,-299.283 829.865,-303.78 825.17,-294.282 820.272,-299.283"/>
</g>
<!-- Node24&#45;&gt;Node19 -->
<g id="edge35" class="edge"><title>Node24&#45;&gt;Node19</title>
<path fill="none" stroke="midnightblue" d="M561.108,-227.935C581.207,-232.927 605.975,-239.079 627.319,-244.38"/>
<polygon fill="midnightblue" stroke="midnightblue" points="626.62,-247.812 637.169,-246.826 628.308,-241.019 626.62,-247.812"/>
</g>
<!-- Node25&#45;&gt;Node13 -->
<g id="edge39" class="edge"><title>Node25&#45;&gt;Node13</title>
<path fill="none" stroke="midnightblue" d="M581.135,-179.526C625.75,-181.114 687.524,-188.197 736,-212.346 775.184,-231.867 808.879,-271.818 826.312,-295.199"/>
<polygon fill="midnightblue" stroke="midnightblue" points="823.664,-297.509 832.37,-303.547 829.329,-293.398 823.664,-297.509"/>
</g>
<!-- Node25&#45;&gt;Node19 -->
<g id="edge38" class="edge"><title>Node25&#45;&gt;Node19</title>
<path fill="none" stroke="midnightblue" d="M556.413,-189.907C564.602,-192.611 573.229,-195.797 581,-199.346 607.061,-211.248 634.919,-228.693 653.583,-241.145"/>
<polygon fill="midnightblue" stroke="midnightblue" points="651.714,-244.107 661.958,-246.811 655.636,-238.309 651.714,-244.107"/>
</g>
<!-- Node26&#45;&gt;Node13 -->
<g id="edge41" class="edge"><title>Node26&#45;&gt;Node13</title>
<path fill="none" stroke="midnightblue" d="M691.22,-436.757C703.233,-428.245 721.054,-415.334 736,-403.346 766.609,-378.796 800.615,-348.443 820.881,-330.006"/>
<polygon fill="midnightblue" stroke="midnightblue" points="823.407,-332.439 828.43,-323.111 818.686,-327.271 823.407,-332.439"/>
</g>
<!-- Node28&#45;&gt;Node13 -->
<g id="edge44" class="edge"><title>Node28&#45;&gt;Node13</title>
<path fill="none" stroke="midnightblue" d="M718.86,-474.759C724.945,-472.285 730.879,-469.196 736,-465.346 783.822,-429.394 816.886,-364.457 831.127,-332.36"/>
<polygon fill="midnightblue" stroke="midnightblue" points="834.343,-333.74 835.084,-323.171 827.914,-330.972 834.343,-333.74"/>
</g>
<!-- Node29&#45;&gt;Node13 -->
<g id="edge47" class="edge"><title>Node29&#45;&gt;Node13</title>
<path fill="none" stroke="midnightblue" d="M572.24,-140.67C617.936,-141.348 685.958,-148.142 736,-178.346 782.509,-206.418 815.43,-264.025 830.227,-294.103"/>
<polygon fill="midnightblue" stroke="midnightblue" points="827.241,-295.973 834.697,-303.5 833.562,-292.966 827.241,-295.973"/>
</g>
<!-- Node29&#45;&gt;Node19 -->
<g id="edge46" class="edge"><title>Node29&#45;&gt;Node19</title>
<path fill="none" stroke="midnightblue" d="M560.801,-151.886C567.786,-154.422 574.813,-157.544 581,-161.346 614.818,-182.128 645.536,-217.409 662.263,-238.63"/>
<polygon fill="midnightblue" stroke="midnightblue" points="659.667,-240.996 668.544,-246.781 665.212,-236.723 659.667,-240.996"/>
</g>
</g>
</svg>
