<?xml version="1.0" encoding="UTF-8" standalone="no"?>
<!DOCTYPE svg PUBLIC "-//W3C//DTD SVG 1.1//EN"
 "http://www.w3.org/Graphics/SVG/1.1/DTD/svg11.dtd">
<!-- Generated by graphviz version 2.49.3 (0)
 -->
<!-- Title: CoinControlDialog::showMenu Pages: 1 -->
<svg width="506pt" height="172pt"
 viewBox="0.00 0.00 506.00 172.00" xmlns="http://www.w3.org/2000/svg" xmlns:xlink="http://www.w3.org/1999/xlink">
<g id="graph0" class="graph" transform="scale(1 1) rotate(0) translate(4 168)">
<title>CoinControlDialog::showMenu</title>
<polygon fill="white" stroke="transparent" points="-4,4 -4,-168 502,-168 502,4 -4,4"/>
<!-- Node1 -->
<g id="node1" class="node">
<title>Node1</title>
<g id="a_node1"><a xlink:title=" ">
<polygon fill="#bfbfbf" stroke="black" points="0,-73 0,-103 111,-103 111,-73 0,-73"/>
<text text-anchor="start" x="8" y="-91" font-family="Helvetica,sans-Serif" font-size="10.00">CoinControlDialog::</text>
<text text-anchor="middle" x="55.5" y="-80" font-family="Helvetica,sans-Serif" font-size="10.00">showMenu</text>
</a>
</g>
</g>
<!-- Node2 -->
<g id="node2" class="node">
<title>Node2</title>
<g id="a_node2"><a xlink:href="classbase__blob.html#a0bed565d0f3057a0f7f22a4d4260c3d6" target="_top" xlink:title=" ">
<polygon fill="white" stroke="black" points="156.5,-144.5 156.5,-163.5 250.5,-163.5 250.5,-144.5 156.5,-144.5"/>
<text text-anchor="middle" x="203.5" y="-151.5" font-family="Helvetica,sans-Serif" font-size="10.00">base_blob::data</text>
</a>
</g>
</g>
<!-- Node1&#45;&gt;Node2 -->
<g id="edge1" class="edge">
<title>Node1&#45;&gt;Node2</title>
<path fill="none" stroke="midnightblue" d="M82.92,-103.05C100.71,-112.85 124.86,-125.53 147,-135 151.85,-137.08 157.01,-139.09 162.15,-140.98"/>
<polygon fill="midnightblue" stroke="midnightblue" points="161.35,-144.41 171.95,-144.45 163.69,-137.81 161.35,-144.41"/>
</g>
<!-- Node3 -->
<g id="node3" class="node">
<title>Node3</title>
<g id="a_node3"><a xlink:href="classinterfaces_1_1_wallet.html#a9256b94de71bccbf9561be10931e8e02" target="_top" xlink:title="Return whether coin is locked.">
<polygon fill="white" stroke="black" points="152.5,-95 152.5,-125 254.5,-125 254.5,-95 152.5,-95"/>
<text text-anchor="start" x="160.5" y="-113" font-family="Helvetica,sans-Serif" font-size="10.00">interfaces::Wallet</text>
<text text-anchor="middle" x="203.5" y="-102" font-family="Helvetica,sans-Serif" font-size="10.00">::isLockedCoin</text>
</a>
</g>
</g>
<!-- Node1&#45;&gt;Node3 -->
<g id="edge2" class="edge">
<title>Node1&#45;&gt;Node3</title>
<path fill="none" stroke="midnightblue" d="M111.28,-96.25C121.35,-97.77 131.92,-99.37 142.15,-100.91"/>
<polygon fill="midnightblue" stroke="midnightblue" points="141.82,-104.4 152.23,-102.43 142.86,-97.47 141.82,-104.4"/>
</g>
<!-- Node4 -->
<g id="node4" class="node">
<title>Node4</title>
<g id="a_node4"><a xlink:href="uint256_8h.html#a52e679560cc1ebf68f878ed69e38f259" target="_top" xlink:title=" ">
<polygon fill="white" stroke="black" points="174,-56.5 174,-75.5 233,-75.5 233,-56.5 174,-56.5"/>
<text text-anchor="middle" x="203.5" y="-63.5" font-family="Helvetica,sans-Serif" font-size="10.00">uint256S</text>
</a>
</g>
</g>
<!-- Node1&#45;&gt;Node4 -->
<g id="edge3" class="edge">
<title>Node1&#45;&gt;Node4</title>
<path fill="none" stroke="midnightblue" d="M111.28,-79.75C128.67,-77.12 147.53,-74.28 163.57,-71.87"/>
<polygon fill="midnightblue" stroke="midnightblue" points="164.29,-75.3 173.66,-70.35 163.25,-68.38 164.29,-75.3"/>
</g>
<!-- Node9 -->
<g id="node9" class="node">
<title>Node9</title>
<g id="a_node9"><a xlink:href="class_wallet_model.html#aafd08fd0ce515b7c3ccf7e6987a287fb" target="_top" xlink:title=" ">
<polygon fill="white" stroke="black" points="147,-18.5 147,-37.5 260,-37.5 260,-18.5 147,-18.5"/>
<text text-anchor="middle" x="203.5" y="-25.5" font-family="Helvetica,sans-Serif" font-size="10.00">WalletModel::wallet</text>
</a>
</g>
</g>
<!-- Node1&#45;&gt;Node9 -->
<g id="edge9" class="edge">
<title>Node1&#45;&gt;Node9</title>
<path fill="none" stroke="midnightblue" d="M88.01,-72.83C105.26,-64.75 127.12,-54.89 147,-47 152.21,-44.93 157.74,-42.88 163.21,-40.93"/>
<polygon fill="midnightblue" stroke="midnightblue" points="164.64,-44.14 172.93,-37.54 162.33,-37.53 164.64,-44.14"/>
</g>
<!-- Node5 -->
<g id="node5" class="node">
<title>Node5</title>
<g id="a_node5"><a xlink:href="classbase__blob.html#a5ec1f681a2830f4e180fe664c0eb4dd0" target="_top" xlink:title=" ">
<polygon fill="white" stroke="black" points="296,-56.5 296,-75.5 403,-75.5 403,-56.5 296,-56.5"/>
<text text-anchor="middle" x="349.5" y="-63.5" font-family="Helvetica,sans-Serif" font-size="10.00">base_blob::SetHex</text>
</a>
</g>
</g>
<!-- Node4&#45;&gt;Node5 -->
<g id="edge4" class="edge">
<title>Node4&#45;&gt;Node5</title>
<path fill="none" stroke="midnightblue" d="M233.29,-66C248.39,-66 267.51,-66 285.81,-66"/>
<polygon fill="midnightblue" stroke="midnightblue" points="285.86,-69.5 295.86,-66 285.86,-62.5 285.86,-69.5"/>
</g>
<!-- Node6 -->
<g id="node6" class="node">
<title>Node6</title>
<g id="a_node6"><a xlink:href="strencodings_8cpp.html#aa59e8a8c5a39cb5041f93bb95dd02119" target="_top" xlink:title=" ">
<polygon fill="white" stroke="black" points="439,-94.5 439,-113.5 498,-113.5 498,-94.5 439,-94.5"/>
<text text-anchor="middle" x="468.5" y="-101.5" font-family="Helvetica,sans-Serif" font-size="10.00">HexDigit</text>
</a>
</g>
</g>
<!-- Node5&#45;&gt;Node6 -->
<g id="edge5" class="edge">
<title>Node5&#45;&gt;Node6</title>
<path fill="none" stroke="midnightblue" d="M380.02,-75.59C394.94,-80.43 413.21,-86.37 429.19,-91.56"/>
<polygon fill="midnightblue" stroke="midnightblue" points="428.2,-94.92 438.79,-94.68 430.36,-88.26 428.2,-94.92"/>
</g>
<!-- Node7 -->
<g id="node7" class="node">
<title>Node7</title>
<g id="a_node7"><a xlink:href="strencodings_8h.html#aa30de1eac29287732050df7168cde03a" target="_top" xlink:title="Tests if the given character is a whitespace character.">
<polygon fill="white" stroke="black" points="441.5,-56.5 441.5,-75.5 495.5,-75.5 495.5,-56.5 441.5,-56.5"/>
<text text-anchor="middle" x="468.5" y="-63.5" font-family="Helvetica,sans-Serif" font-size="10.00">IsSpace</text>
</a>
</g>
</g>
<!-- Node5&#45;&gt;Node7 -->
<g id="edge6" class="edge">
<title>Node5&#45;&gt;Node7</title>
<path fill="none" stroke="midnightblue" d="M403.18,-66C412.69,-66 422.4,-66 431.3,-66"/>
<polygon fill="midnightblue" stroke="midnightblue" points="431.31,-69.5 441.31,-66 431.31,-62.5 431.31,-69.5"/>
</g>
<!-- Node8 -->
<g id="node8" class="node">
<title>Node8</title>
<g id="a_node8"><a xlink:href="strencodings_8cpp.html#a5846b7d11104258e294e7030c9216b6a" target="_top" xlink:title="Returns the lowercase equivalent of the given string.">
<polygon fill="white" stroke="black" points="440.5,-0.5 440.5,-19.5 496.5,-19.5 496.5,-0.5 440.5,-0.5"/>
<text text-anchor="middle" x="468.5" y="-7.5" font-family="Helvetica,sans-Serif" font-size="10.00">ToLower</text>
</a>
</g>
</g>
<!-- Node5&#45;&gt;Node8 -->
<g id="edge7" class="edge">
<title>Node5&#45;&gt;Node8</title>
<path fill="none" stroke="midnightblue" d="M370.61,-56.37C389.31,-47.42 417.37,-33.99 438.49,-23.88"/>
<polygon fill="midnightblue" stroke="midnightblue" points="440.14,-26.98 447.65,-19.5 437.12,-20.66 440.14,-26.98"/>
</g>
<!-- Node8&#45;&gt;Node8 -->
<g id="edge8" class="edge">
<title>Node8&#45;&gt;Node8</title>
<path fill="none" stroke="midnightblue" d="M450.31,-19.76C441.46,-28.57 447.53,-38 468.5,-38 481.94,-38 489.25,-34.13 490.45,-29.03"/>
<polygon fill="midnightblue" stroke="midnightblue" points="493.69,-27.71 486.69,-19.76 487.2,-30.34 493.69,-27.71"/>
</g>
</g>
</svg>
