<?xml version="1.0" encoding="UTF-8" standalone="no"?>
<!DOCTYPE svg PUBLIC "-//W3C//DTD SVG 1.1//EN"
 "http://www.w3.org/Graphics/SVG/1.1/DTD/svg11.dtd">
<!-- Generated by graphviz version 2.49.3 (0)
 -->
<!-- Title: CDataStream::operator&gt;&gt; Pages: 1 -->
<svg width="383pt" height="28pt"
 viewBox="0.00 0.00 383.00 28.00" xmlns="http://www.w3.org/2000/svg" xmlns:xlink="http://www.w3.org/1999/xlink">
<g id="graph0" class="graph" transform="scale(1 1) rotate(0) translate(4 24)">
<title>CDataStream::operator&gt;&gt;</title>
<polygon fill="white" stroke="transparent" points="-4,4 -4,-24 379,-24 379,4 -4,4"/>
<!-- Node1 -->
<g id="node1" class="node">
<title>Node1</title>
<g id="a_node1"><a xlink:title=" ">
<polygon fill="#bfbfbf" stroke="black" points="0,-0.5 0,-19.5 146,-19.5 146,-0.5 0,-0.5"/>
<text text-anchor="middle" x="73" y="-7.5" font-family="Helvetica,sans-Serif" font-size="10.00">CDataStream::operator&gt;&gt;</text>
</a>
</g>
</g>
<!-- Node2 -->
<g id="node2" class="node">
<title>Node2</title>
<g id="a_node2"><a xlink:href="serialize_8h.html#a831d6932e65a64840bb55376f08fe0a6" target="_top" xlink:title=" ">
<polygon fill="white" stroke="black" points="182,-0.5 182,-19.5 253,-19.5 253,-0.5 182,-0.5"/>
<text text-anchor="middle" x="217.5" y="-7.5" font-family="Helvetica,sans-Serif" font-size="10.00">Unserialize</text>
</a>
</g>
</g>
<!-- Node1&#45;&gt;Node2 -->
<g id="edge1" class="edge">
<title>Node1&#45;&gt;Node2</title>
<path fill="none" stroke="midnightblue" d="M146.08,-10C154.82,-10 163.54,-10 171.72,-10"/>
<polygon fill="midnightblue" stroke="midnightblue" points="171.75,-13.5 181.75,-10 171.75,-6.5 171.75,-13.5"/>
</g>
<!-- Node3 -->
<g id="node3" class="node">
<title>Node3</title>
<g id="a_node3"><a xlink:href="serialize_8h.html#a1d1f53d2d72386236484546b49409188" target="_top" xlink:title=" ">
<polygon fill="white" stroke="black" points="289,-0.5 289,-19.5 375,-19.5 375,-0.5 289,-0.5"/>
<text text-anchor="middle" x="332" y="-7.5" font-family="Helvetica,sans-Serif" font-size="10.00">ser_readdata8</text>
</a>
</g>
</g>
<!-- Node2&#45;&gt;Node3 -->
<g id="edge2" class="edge">
<title>Node2&#45;&gt;Node3</title>
<path fill="none" stroke="midnightblue" d="M253.17,-10C261.25,-10 270.02,-10 278.67,-10"/>
<polygon fill="midnightblue" stroke="midnightblue" points="278.72,-13.5 288.72,-10 278.72,-6.5 278.72,-13.5"/>
</g>
</g>
</svg>
