<?xml version="1.0" encoding="UTF-8" standalone="no"?>
<!DOCTYPE svg PUBLIC "-//W3C//DTD SVG 1.1//EN"
 "http://www.w3.org/Graphics/SVG/1.1/DTD/svg11.dtd">
<!-- Generated by graphviz version 2.49.3 (0)
 -->
<!-- Title: i2p::sam::Session::StreamAccept Pages: 1 -->
<svg width="1383pt" height="724pt"
 viewBox="0.00 0.00 1383.00 723.50" xmlns="http://www.w3.org/2000/svg" xmlns:xlink="http://www.w3.org/1999/xlink">
<g id="graph0" class="graph" transform="scale(1 1) rotate(0) translate(4 719.5)">
<title>i2p::sam::Session::StreamAccept</title>
<polygon fill="white" stroke="transparent" points="-4,4 -4,-719.5 1379,-719.5 1379,4 -4,4"/>
<!-- Node1 -->
<g id="node1" class="node">
<title>Node1</title>
<g id="a_node1"><a xlink:title="Open a new connection to the SAM proxy and issue &quot;STREAM ACCEPT&quot; request using the existing session i...">
<polygon fill="#bfbfbf" stroke="black" points="0,-126.5 0,-156.5 108,-156.5 108,-126.5 0,-126.5"/>
<text text-anchor="start" x="8" y="-144.5" font-family="Helvetica,sans-Serif" font-size="10.00">i2p::sam::Session::</text>
<text text-anchor="middle" x="54" y="-133.5" font-family="Helvetica,sans-Serif" font-size="10.00">StreamAccept</text>
</a>
</g>
</g>
<!-- Node2 -->
<g id="node2" class="node">
<title>Node2</title>
<g id="a_node2"><a xlink:href="classi2p_1_1sam_1_1_session.html#a55e44b865ed1cf47424acbcfd25efdc8" target="_top" xlink:title="Destroy the session, closing the internally used sockets.">
<polygon fill="white" stroke="black" points="144,-134.5 144,-164.5 252,-164.5 252,-134.5 144,-134.5"/>
<text text-anchor="start" x="152" y="-152.5" font-family="Helvetica,sans-Serif" font-size="10.00">i2p::sam::Session::</text>
<text text-anchor="middle" x="198" y="-141.5" font-family="Helvetica,sans-Serif" font-size="10.00">Disconnect</text>
</a>
</g>
</g>
<!-- Node1&#45;&gt;Node2 -->
<g id="edge1" class="edge">
<title>Node1&#45;&gt;Node2</title>
<path fill="none" stroke="midnightblue" d="M108.28,-144.5C116.56,-144.97 125.18,-145.45 133.66,-145.93"/>
<polygon fill="midnightblue" stroke="midnightblue" points="133.71,-149.44 143.89,-146.51 134.11,-142.45 133.71,-149.44"/>
</g>
<!-- Node14 -->
<g id="node8" class="node">
<title>Node14</title>
<g id="a_node8"><a xlink:href="structi2p_1_1sam_1_1_session_1_1_reply.html#a033df38ec662eea0ad62e885f62580d2" target="_top" xlink:title="Get the value of a given key.">
<polygon fill="white" stroke="black" points="487,-0.5 487,-30.5 595,-30.5 595,-0.5 487,-0.5"/>
<text text-anchor="start" x="495" y="-18.5" font-family="Helvetica,sans-Serif" font-size="10.00">i2p::sam::Session::</text>
<text text-anchor="middle" x="541" y="-7.5" font-family="Helvetica,sans-Serif" font-size="10.00">Reply::Get</text>
</a>
</g>
</g>
<!-- Node1&#45;&gt;Node14 -->
<g id="edge7" class="edge">
<title>Node1&#45;&gt;Node14</title>
<path fill="none" stroke="midnightblue" d="M90.98,-126.47C107.03,-120.1 126.28,-112.91 144,-107.5 259.63,-72.16 397.83,-42.92 476.62,-27.44"/>
<polygon fill="midnightblue" stroke="midnightblue" points="477.72,-30.79 486.87,-25.44 476.38,-23.92 477.72,-30.79"/>
</g>
<!-- Node15 -->
<g id="node9" class="node">
<title>Node15</title>
<g id="a_node9"><a xlink:href="classi2p_1_1sam_1_1_session.html#a65dced5639b3ff98e4c2e534392e8572" target="_top" xlink:title="Open a new connection to the SAM proxy.">
<polygon fill="white" stroke="black" points="144,-247.5 144,-277.5 252,-277.5 252,-247.5 144,-247.5"/>
<text text-anchor="start" x="152" y="-265.5" font-family="Helvetica,sans-Serif" font-size="10.00">i2p::sam::Session::</text>
<text text-anchor="middle" x="198" y="-254.5" font-family="Helvetica,sans-Serif" font-size="10.00">Hello</text>
</a>
</g>
</g>
<!-- Node1&#45;&gt;Node15 -->
<g id="edge8" class="edge">
<title>Node1&#45;&gt;Node15</title>
<path fill="none" stroke="midnightblue" d="M72.7,-156.58C97.46,-177.68 142.62,-216.16 171.15,-240.47"/>
<polygon fill="midnightblue" stroke="midnightblue" points="169.2,-243.41 179.08,-247.23 173.74,-238.08 169.2,-243.41"/>
</g>
<!-- Node61 -->
<g id="node40" class="node">
<title>Node61</title>
<g id="a_node40"><a xlink:href="classi2p_1_1sam_1_1_session.html#a0458bb838c28d1729b8fbb8477676878" target="_top" xlink:title="Send request and get a reply from the SAM proxy.">
<polygon fill="white" stroke="black" points="288,-86.5 288,-116.5 432,-116.5 432,-86.5 288,-86.5"/>
<text text-anchor="start" x="296" y="-104.5" font-family="Helvetica,sans-Serif" font-size="10.00">i2p::sam::Session::</text>
<text text-anchor="middle" x="360" y="-93.5" font-family="Helvetica,sans-Serif" font-size="10.00">SendRequestAndGetReply</text>
</a>
</g>
</g>
<!-- Node1&#45;&gt;Node61 -->
<g id="edge72" class="edge">
<title>Node1&#45;&gt;Node61</title>
<path fill="none" stroke="midnightblue" d="M108.06,-130.63C119.86,-128.41 132.33,-126.24 144,-124.5 187.99,-117.96 237.3,-112.55 277.59,-108.62"/>
<polygon fill="midnightblue" stroke="midnightblue" points="278.02,-112.09 287.64,-107.65 277.35,-105.13 278.02,-112.09"/>
</g>
<!-- Node3 -->
<g id="node3" class="node">
<title>Node3</title>
<g id="a_node3"><a xlink:href="classi2p_1_1sam_1_1_session.html#ab5ab85233b3c60892ad4bb49ea5a457b" target="_top" xlink:title="Log a message in the BCLog::I2P category.">
<polygon fill="white" stroke="black" points="297.5,-148 297.5,-167 422.5,-167 422.5,-148 297.5,-148"/>
<text text-anchor="middle" x="360" y="-155" font-family="Helvetica,sans-Serif" font-size="10.00">i2p::sam::Session::Log</text>
</a>
</g>
</g>
<!-- Node2&#45;&gt;Node3 -->
<g id="edge2" class="edge">
<title>Node2&#45;&gt;Node3</title>
<path fill="none" stroke="midnightblue" d="M252.28,-152.16C263.46,-152.72 275.42,-153.32 287.15,-153.91"/>
<polygon fill="midnightblue" stroke="midnightblue" points="287.21,-157.41 297.37,-154.42 287.56,-150.42 287.21,-157.41"/>
</g>
<!-- Node4 -->
<g id="node4" class="node">
<title>Node4</title>
<g id="a_node4"><a xlink:href="namespacetinyformat.html#a05144619d8b16e2b31b2594ca9c6bf1d" target="_top" xlink:title="Format list of arguments to the stream according to given format string.">
<polygon fill="white" stroke="black" points="663,-297 663,-316 770,-316 770,-297 663,-297"/>
<text text-anchor="middle" x="716.5" y="-304" font-family="Helvetica,sans-Serif" font-size="10.00">tinyformat::format</text>
</a>
</g>
</g>
<!-- Node3&#45;&gt;Node4 -->
<g id="edge3" class="edge">
<title>Node3&#45;&gt;Node4</title>
<path fill="none" stroke="midnightblue" d="M422.68,-165.92C476.32,-175.35 554.54,-194.32 614,-230.5 633.87,-242.59 631.75,-254.07 650,-268.5 661.23,-277.38 674.76,-285.58 686.59,-292.07"/>
<polygon fill="midnightblue" stroke="midnightblue" points="685.18,-295.28 695.65,-296.89 688.47,-289.11 685.18,-295.28"/>
</g>
<!-- Node5 -->
<g id="node5" class="node">
<title>Node5</title>
<g id="a_node5"><a xlink:href="namespacetinyformat.html#aa0e1f6113d2c7d019aac703672a650bd" target="_top" xlink:title="Make type&#45;agnostic format list from list of template arguments.">
<polygon fill="white" stroke="black" points="819,-278 819,-297 972,-297 972,-278 819,-278"/>
<text text-anchor="middle" x="895.5" y="-285" font-family="Helvetica,sans-Serif" font-size="10.00">tinyformat::makeFormatList</text>
</a>
</g>
</g>
<!-- Node4&#45;&gt;Node5 -->
<g id="edge4" class="edge">
<title>Node4&#45;&gt;Node5</title>
<path fill="none" stroke="midnightblue" d="M770.13,-300.85C782.31,-299.54 795.58,-298.12 808.77,-296.7"/>
<polygon fill="midnightblue" stroke="midnightblue" points="809.25,-300.17 818.82,-295.62 808.5,-293.21 809.25,-300.17"/>
</g>
<!-- Node6 -->
<g id="node6" class="node">
<title>Node6</title>
<g id="a_node6"><a xlink:href="namespacetinyformat.html#a86ed74eb3ed66a662e96220d877da964" target="_top" xlink:title="Format list of arguments to the stream according to the given format string.">
<polygon fill="white" stroke="black" points="839,-316 839,-335 952,-335 952,-316 839,-316"/>
<text text-anchor="middle" x="895.5" y="-323" font-family="Helvetica,sans-Serif" font-size="10.00">tinyformat::vformat</text>
</a>
</g>
</g>
<!-- Node4&#45;&gt;Node6 -->
<g id="edge5" class="edge">
<title>Node4&#45;&gt;Node6</title>
<path fill="none" stroke="midnightblue" d="M770.13,-312.15C788.61,-314.13 809.61,-316.39 829.02,-318.47"/>
<polygon fill="midnightblue" stroke="midnightblue" points="828.68,-321.95 839,-319.54 829.43,-314.99 828.68,-321.95"/>
</g>
<!-- Node7 -->
<g id="node7" class="node">
<title>Node7</title>
<g id="a_node7"><a xlink:href="namespacetinyformat_1_1detail.html#a9fe547bc617c38498e58c12cce507bec" target="_top" xlink:title=" ">
<polygon fill="white" stroke="red" points="1008,-326.5 1008,-356.5 1110,-356.5 1110,-326.5 1008,-326.5"/>
<text text-anchor="start" x="1016" y="-344.5" font-family="Helvetica,sans-Serif" font-size="10.00">tinyformat::detail</text>
<text text-anchor="middle" x="1059" y="-333.5" font-family="Helvetica,sans-Serif" font-size="10.00">::formatImpl</text>
</a>
</g>
</g>
<!-- Node6&#45;&gt;Node7 -->
<g id="edge6" class="edge">
<title>Node6&#45;&gt;Node7</title>
<path fill="none" stroke="midnightblue" d="M952.08,-331.01C966.76,-332.46 982.67,-334.04 997.59,-335.52"/>
<polygon fill="midnightblue" stroke="midnightblue" points="997.44,-339.02 1007.73,-336.52 998.13,-332.05 997.44,-339.02"/>
</g>
<!-- Node16 -->
<g id="node10" class="node">
<title>Node16</title>
<g id="a_node10"><a xlink:href="netbase_8cpp.html#a97d7b381b9f2ad2c83f13421b6ad3fe7" target="_top" xlink:title="Try to connect to the specified service on the specified socket.">
<polygon fill="white" stroke="black" points="296.5,-316 296.5,-335 423.5,-335 423.5,-316 296.5,-316"/>
<text text-anchor="middle" x="360" y="-323" font-family="Helvetica,sans-Serif" font-size="10.00">ConnectSocketDirectly</text>
</a>
</g>
</g>
<!-- Node15&#45;&gt;Node16 -->
<g id="edge9" class="edge">
<title>Node15&#45;&gt;Node16</title>
<path fill="none" stroke="midnightblue" d="M237.32,-277.59C264.05,-288.11 299.38,-302.03 325.08,-312.15"/>
<polygon fill="midnightblue" stroke="midnightblue" points="323.84,-315.42 334.43,-315.82 326.4,-308.9 323.84,-315.42"/>
</g>
<!-- Node29 -->
<g id="node23" class="node">
<title>Node29</title>
<g id="a_node23"><a xlink:href="class_c_service.html#a225473158bc07c87a6a862160d73cfea" target="_top" xlink:title=" ">
<polygon fill="white" stroke="black" points="489,-468 489,-487 593,-487 593,-468 489,-468"/>
<text text-anchor="middle" x="541" y="-475" font-family="Helvetica,sans-Serif" font-size="10.00">CService::ToString</text>
</a>
</g>
</g>
<!-- Node15&#45;&gt;Node29 -->
<g id="edge71" class="edge">
<title>Node15&#45;&gt;Node29</title>
<path fill="none" stroke="midnightblue" d="M213.7,-277.6C230.77,-294.75 260.16,-323.14 288,-344.5 363.12,-402.15 381.2,-420.64 468,-458.5 473.47,-460.88 479.3,-463.03 485.19,-464.93"/>
<polygon fill="midnightblue" stroke="midnightblue" points="484.52,-468.39 495.11,-467.93 486.54,-461.69 484.52,-468.39"/>
</g>
<!-- Node15&#45;&gt;Node61 -->
<g id="edge50" class="edge">
<title>Node15&#45;&gt;Node61</title>
<path fill="none" stroke="midnightblue" d="M206.75,-247.41C220.33,-222.16 250.56,-170.96 288,-138.5 295.56,-131.94 304.49,-126.15 313.41,-121.21"/>
<polygon fill="midnightblue" stroke="midnightblue" points="315.05,-124.3 322.28,-116.55 311.8,-118.1 315.05,-124.3"/>
</g>
<!-- Node17 -->
<g id="node11" class="node">
<title>Node17</title>
<g id="a_node11"><a xlink:href="class_sock.html#ac13539497caa289d946cee8e0410bb5a" target="_top" xlink:title="connect(2) wrapper.">
<polygon fill="white" stroke="black" points="498,-240 498,-259 584,-259 584,-240 498,-240"/>
<text text-anchor="middle" x="541" y="-247" font-family="Helvetica,sans-Serif" font-size="10.00">Sock::Connect</text>
</a>
</g>
</g>
<!-- Node16&#45;&gt;Node17 -->
<g id="edge10" class="edge">
<title>Node16&#45;&gt;Node17</title>
<path fill="none" stroke="midnightblue" d="M378.85,-315.93C399.83,-304.9 435.87,-286.6 468,-273.5 477.89,-269.47 488.74,-265.58 498.95,-262.15"/>
<polygon fill="midnightblue" stroke="midnightblue" points="500.08,-265.47 508.49,-259.02 497.9,-258.82 500.08,-265.47"/>
</g>
<!-- Node18 -->
<g id="node12" class="node">
<title>Node18</title>
<g id="a_node12"><a xlink:href="class_sock.html#abdceb5fa8e1b1233911dc23c1fbdf01b" target="_top" xlink:title="Get the value of the contained socket.">
<polygon fill="white" stroke="black" points="509.5,-392 509.5,-411 572.5,-411 572.5,-392 509.5,-392"/>
<text text-anchor="middle" x="541" y="-399" font-family="Helvetica,sans-Serif" font-size="10.00">Sock::Get</text>
</a>
</g>
</g>
<!-- Node16&#45;&gt;Node18 -->
<g id="edge11" class="edge">
<title>Node16&#45;&gt;Node18</title>
<path fill="none" stroke="midnightblue" d="M376.41,-335.18C396.73,-347.6 433.9,-369.13 468,-382.5 478.03,-386.43 489.17,-389.82 499.62,-392.6"/>
<polygon fill="midnightblue" stroke="midnightblue" points="498.82,-396.01 509.37,-395.08 500.54,-389.22 498.82,-396.01"/>
</g>
<!-- Node19 -->
<g id="node13" class="node">
<title>Node19</title>
<g id="a_node13"><a xlink:href="class_c_service.html#ac4c6d655fab3af40937f0b0c65581745" target="_top" xlink:title="Obtain the IPv4/6 socket address this represents.">
<polygon fill="white" stroke="black" points="477,-430 477,-449 605,-449 605,-430 477,-430"/>
<text text-anchor="middle" x="541" y="-437" font-family="Helvetica,sans-Serif" font-size="10.00">CService::GetSockAddr</text>
</a>
</g>
</g>
<!-- Node16&#45;&gt;Node19 -->
<g id="edge12" class="edge">
<title>Node16&#45;&gt;Node19</title>
<path fill="none" stroke="midnightblue" d="M369.06,-335.21C385.57,-354.47 425.31,-397.62 468,-420.5 472.26,-422.78 476.82,-424.81 481.49,-426.6"/>
<polygon fill="midnightblue" stroke="midnightblue" points="480.58,-429.99 491.18,-429.95 482.87,-423.37 480.58,-429.99"/>
</g>
<!-- Node26 -->
<g id="node20" class="node">
<title>Node26</title>
<g id="a_node20"><a xlink:href="class_sock.html#abe9e07ed93f547fe7667e42e2dac6384" target="_top" xlink:title="getsockopt(2) wrapper.">
<polygon fill="white" stroke="black" points="489,-316 489,-335 593,-335 593,-316 489,-316"/>
<text text-anchor="middle" x="541" y="-323" font-family="Helvetica,sans-Serif" font-size="10.00">Sock::GetSockOpt</text>
</a>
</g>
</g>
<!-- Node16&#45;&gt;Node26 -->
<g id="edge23" class="edge">
<title>Node16&#45;&gt;Node26</title>
<path fill="none" stroke="midnightblue" d="M423.61,-325.5C441.47,-325.5 460.92,-325.5 478.7,-325.5"/>
<polygon fill="midnightblue" stroke="midnightblue" points="478.96,-329 488.96,-325.5 478.96,-322 478.96,-329"/>
</g>
<!-- Node27 -->
<g id="node21" class="node">
<title>Node27</title>
<g id="a_node21"><a xlink:href="netbase_8cpp.html#a39872d6d7750778230a9b85bd64ae476" target="_top" xlink:title=" ">
<polygon fill="white" stroke="black" points="488,-354 488,-373 594,-373 594,-354 488,-354"/>
<text text-anchor="middle" x="541" y="-361" font-family="Helvetica,sans-Serif" font-size="10.00">LogConnectFailure</text>
</a>
</g>
</g>
<!-- Node16&#45;&gt;Node27 -->
<g id="edge24" class="edge">
<title>Node16&#45;&gt;Node27</title>
<path fill="none" stroke="midnightblue" d="M406.17,-335.09C430.22,-340.19 459.97,-346.51 485.32,-351.89"/>
<polygon fill="midnightblue" stroke="midnightblue" points="484.65,-355.33 495.16,-353.98 486.1,-348.48 484.65,-355.33"/>
</g>
<!-- Node28 -->
<g id="node22" class="node">
<title>Node28</title>
<g id="a_node22"><a xlink:href="sock_8cpp.html#a8ddb7d8d6e5b5cfabfdeea132f556977" target="_top" xlink:title="Return readable error string for a network error code.">
<polygon fill="white" stroke="black" points="661.5,-240 661.5,-259 771.5,-259 771.5,-240 661.5,-240"/>
<text text-anchor="middle" x="716.5" y="-247" font-family="Helvetica,sans-Serif" font-size="10.00">NetworkErrorString</text>
</a>
</g>
</g>
<!-- Node16&#45;&gt;Node28 -->
<g id="edge26" class="edge">
<title>Node16&#45;&gt;Node28</title>
<path fill="none" stroke="midnightblue" d="M405.54,-315.95C470.5,-302.03 591.1,-276.17 661.18,-261.14"/>
<polygon fill="midnightblue" stroke="midnightblue" points="662.1,-264.53 671.14,-259.01 660.63,-257.68 662.1,-264.53"/>
</g>
<!-- Node16&#45;&gt;Node29 -->
<g id="edge27" class="edge">
<title>Node16&#45;&gt;Node29</title>
<path fill="none" stroke="midnightblue" d="M370.12,-335.17C384.01,-350.05 411.06,-379.67 432,-406.5 449.29,-428.66 444.99,-442.36 468,-458.5 471.51,-460.96 475.32,-463.11 479.3,-464.97"/>
<polygon fill="midnightblue" stroke="midnightblue" points="478.22,-468.31 488.8,-468.84 480.86,-461.83 478.22,-468.31"/>
</g>
<!-- Node57 -->
<g id="node36" class="node">
<title>Node57</title>
<g id="a_node36"><a xlink:href="class_sock.html#a3c86c30c38ed49a5e36aed935b7b5668" target="_top" xlink:title="Wait for readiness for input (recv) or output (send).">
<polygon fill="white" stroke="black" points="682.5,-202 682.5,-221 750.5,-221 750.5,-202 682.5,-202"/>
<text text-anchor="middle" x="716.5" y="-209" font-family="Helvetica,sans-Serif" font-size="10.00">Sock::Wait</text>
</a>
</g>
</g>
<!-- Node16&#45;&gt;Node57 -->
<g id="edge46" class="edge">
<title>Node16&#45;&gt;Node57</title>
<path fill="none" stroke="midnightblue" d="M368.25,-315.73C383.87,-295.57 422.95,-249.62 468,-230.5 534.99,-202.07 621.29,-202.88 672.28,-206.72"/>
<polygon fill="midnightblue" stroke="midnightblue" points="672.05,-210.22 682.3,-207.55 672.62,-203.24 672.05,-210.22"/>
</g>
<!-- Node20 -->
<g id="node14" class="node">
<title>Node20</title>
<g id="a_node14"><a xlink:href="class_c_net_addr.html#a3616012f94b27148e5b8e27d943d4884" target="_top" xlink:title="Try to get our IPv6 (or CJDNS) address.">
<polygon fill="white" stroke="black" points="654.5,-392 654.5,-411 778.5,-411 778.5,-392 654.5,-392"/>
<text text-anchor="middle" x="716.5" y="-399" font-family="Helvetica,sans-Serif" font-size="10.00">CNetAddr::GetIn6Addr</text>
</a>
</g>
</g>
<!-- Node19&#45;&gt;Node20 -->
<g id="edge13" class="edge">
<title>Node19&#45;&gt;Node20</title>
<path fill="none" stroke="midnightblue" d="M585.78,-429.91C608.99,-424.83 637.68,-418.54 662.17,-413.18"/>
<polygon fill="midnightblue" stroke="midnightblue" points="663.01,-416.58 672.03,-411.02 661.52,-409.74 663.01,-416.58"/>
</g>
<!-- Node22 -->
<g id="node16" class="node">
<title>Node22</title>
<g id="a_node16"><a xlink:href="class_c_net_addr.html#a4b88aefebd2d5b9405c3603ab1347ccc" target="_top" xlink:title="Check whether this object represents a CJDNS address.">
<polygon fill="white" stroke="black" points="841.5,-430 841.5,-449 949.5,-449 949.5,-430 841.5,-430"/>
<text text-anchor="middle" x="895.5" y="-437" font-family="Helvetica,sans-Serif" font-size="10.00">CNetAddr::IsCJDNS</text>
</a>
</g>
</g>
<!-- Node19&#45;&gt;Node22 -->
<g id="edge20" class="edge">
<title>Node19&#45;&gt;Node22</title>
<path fill="none" stroke="midnightblue" d="M605.02,-439.5C668.8,-439.5 766.88,-439.5 830.88,-439.5"/>
<polygon fill="midnightblue" stroke="midnightblue" points="831.24,-443 841.24,-439.5 831.24,-436 831.24,-443"/>
</g>
<!-- Node23 -->
<g id="node17" class="node">
<title>Node23</title>
<g id="a_node17"><a xlink:href="class_c_net_addr.html#aad5f7a372c56ccf4d773f728b6b46e18" target="_top" xlink:title=" ">
<polygon fill="white" stroke="black" points="846.5,-354 846.5,-373 944.5,-373 944.5,-354 846.5,-354"/>
<text text-anchor="middle" x="895.5" y="-361" font-family="Helvetica,sans-Serif" font-size="10.00">CNetAddr::IsIPv6</text>
</a>
</g>
</g>
<!-- Node19&#45;&gt;Node23 -->
<g id="edge22" class="edge">
<title>Node19&#45;&gt;Node23</title>
<path fill="none" stroke="midnightblue" d="M592.63,-429.97C600.08,-427.5 607.44,-424.39 614,-420.5 634.01,-408.63 629,-392.51 650,-382.5 708.78,-354.47 784.61,-353.15 836.13,-356.63"/>
<polygon fill="midnightblue" stroke="midnightblue" points="836.18,-360.15 846.41,-357.41 836.71,-353.17 836.18,-360.15"/>
</g>
<!-- Node24 -->
<g id="node18" class="node">
<title>Node24</title>
<g id="a_node18"><a xlink:href="class_c_net_addr.html#a4f73432c55d4acb6b9e4c54833eefea6" target="_top" xlink:title="Try to get our IPv4 address.">
<polygon fill="white" stroke="black" points="657.5,-468 657.5,-487 775.5,-487 775.5,-468 657.5,-468"/>
<text text-anchor="middle" x="716.5" y="-475" font-family="Helvetica,sans-Serif" font-size="10.00">CNetAddr::GetInAddr</text>
</a>
</g>
</g>
<!-- Node19&#45;&gt;Node24 -->
<g id="edge17" class="edge">
<title>Node19&#45;&gt;Node24</title>
<path fill="none" stroke="midnightblue" d="M585.78,-449.09C608.99,-454.17 637.68,-460.46 662.17,-465.82"/>
<polygon fill="midnightblue" stroke="midnightblue" points="661.52,-469.26 672.03,-467.98 663.01,-462.42 661.52,-469.26"/>
</g>
<!-- Node25 -->
<g id="node19" class="node">
<title>Node25</title>
<g id="a_node19"><a xlink:href="class_c_net_addr.html#a7021b79e9a33c342b68db09dbb6c2293" target="_top" xlink:title=" ">
<polygon fill="white" stroke="black" points="846.5,-506 846.5,-525 944.5,-525 944.5,-506 846.5,-506"/>
<text text-anchor="middle" x="895.5" y="-513" font-family="Helvetica,sans-Serif" font-size="10.00">CNetAddr::IsIPv4</text>
</a>
</g>
</g>
<!-- Node19&#45;&gt;Node25 -->
<g id="edge21" class="edge">
<title>Node19&#45;&gt;Node25</title>
<path fill="none" stroke="midnightblue" d="M592.63,-449.03C600.08,-451.5 607.44,-454.61 614,-458.5 634.01,-470.37 629,-486.49 650,-496.5 708.78,-524.53 784.61,-525.85 836.13,-522.37"/>
<polygon fill="midnightblue" stroke="midnightblue" points="836.71,-525.83 846.41,-521.59 836.18,-518.85 836.71,-525.83"/>
</g>
<!-- Node21 -->
<g id="node15" class="node">
<title>Node21</title>
<g id="a_node15"><a xlink:href="validation_8cpp.html#afb7ea74ba028421697aa7f364741ee6c" target="_top" xlink:title=" ">
<polygon fill="white" stroke="black" points="1182,-468 1182,-487 1229,-487 1229,-468 1182,-468"/>
<text text-anchor="middle" x="1205.5" y="-475" font-family="Helvetica,sans-Serif" font-size="10.00">assert</text>
</a>
</g>
</g>
<!-- Node20&#45;&gt;Node21 -->
<g id="edge14" class="edge">
<title>Node20&#45;&gt;Node21</title>
<path fill="none" stroke="midnightblue" d="M778.73,-403.44C830.47,-405.7 906.41,-410.51 972,-420.5 1034.24,-429.98 1048.89,-437.34 1110,-452.5 1130.61,-457.61 1153.65,-463.7 1171.82,-468.59"/>
<polygon fill="midnightblue" stroke="midnightblue" points="1171.07,-472.01 1181.64,-471.24 1172.89,-465.25 1171.07,-472.01"/>
</g>
<!-- Node20&#45;&gt;Node22 -->
<g id="edge15" class="edge">
<title>Node20&#45;&gt;Node22</title>
<path fill="none" stroke="midnightblue" d="M762.16,-411.09C785.84,-416.17 815.11,-422.46 840.1,-427.82"/>
<polygon fill="midnightblue" stroke="midnightblue" points="839.64,-431.3 850.16,-429.98 841.11,-424.46 839.64,-431.3"/>
</g>
<!-- Node20&#45;&gt;Node23 -->
<g id="edge16" class="edge">
<title>Node20&#45;&gt;Node23</title>
<path fill="none" stroke="midnightblue" d="M762.16,-391.91C785.84,-386.83 815.11,-380.54 840.1,-375.18"/>
<polygon fill="midnightblue" stroke="midnightblue" points="841.11,-378.54 850.16,-373.02 839.64,-371.7 841.11,-378.54"/>
</g>
<!-- Node24&#45;&gt;Node21 -->
<g id="edge18" class="edge">
<title>Node24&#45;&gt;Node21</title>
<path fill="none" stroke="midnightblue" d="M775.7,-472.58C868.76,-465.06 1046.95,-452.22 1110,-458.5 1130.84,-460.57 1153.88,-465.16 1172,-469.31"/>
<polygon fill="midnightblue" stroke="midnightblue" points="1171.24,-472.72 1181.78,-471.61 1172.85,-465.91 1171.24,-472.72"/>
</g>
<!-- Node24&#45;&gt;Node25 -->
<g id="edge19" class="edge">
<title>Node24&#45;&gt;Node25</title>
<path fill="none" stroke="midnightblue" d="M762.16,-487.09C785.84,-492.17 815.11,-498.46 840.1,-503.82"/>
<polygon fill="midnightblue" stroke="midnightblue" points="839.64,-507.3 850.16,-505.98 841.11,-500.46 839.64,-507.3"/>
</g>
<!-- Node27&#45;&gt;Node4 -->
<g id="edge25" class="edge">
<title>Node27&#45;&gt;Node4</title>
<path fill="none" stroke="midnightblue" d="M581.07,-353.95C591.8,-351.12 603.41,-347.87 614,-344.5 637.16,-337.13 662.79,-327.52 682.5,-319.81"/>
<polygon fill="midnightblue" stroke="midnightblue" points="683.93,-323.01 691.95,-316.09 681.36,-316.5 683.93,-323.01"/>
</g>
<!-- Node30 -->
<g id="node24" class="node">
<title>Node30</title>
<g id="a_node24"><a xlink:href="class_c_service.html#a224204c838b12eeb49ca7eabe6f75004" target="_top" xlink:title=" ">
<polygon fill="white" stroke="black" points="650,-582 650,-601 783,-601 783,-582 650,-582"/>
<text text-anchor="middle" x="716.5" y="-589" font-family="Helvetica,sans-Serif" font-size="10.00">CService::ToStringIPPort</text>
</a>
</g>
</g>
<!-- Node29&#45;&gt;Node30 -->
<g id="edge28" class="edge">
<title>Node29&#45;&gt;Node30</title>
<path fill="none" stroke="midnightblue" d="M556.49,-487.02C586.53,-506.76 655.78,-552.26 692.18,-576.18"/>
<polygon fill="midnightblue" stroke="midnightblue" points="690.4,-579.2 700.68,-581.76 694.24,-573.35 690.4,-579.2"/>
</g>
<!-- Node30&#45;&gt;Node25 -->
<g id="edge31" class="edge">
<title>Node30&#45;&gt;Node25</title>
<path fill="none" stroke="midnightblue" d="M731.69,-581.92C750.78,-569.42 786.14,-547.59 819,-534.5 825.24,-532.01 831.91,-529.78 838.6,-527.78"/>
<polygon fill="midnightblue" stroke="midnightblue" points="839.69,-531.11 848.37,-525.04 837.79,-524.37 839.69,-531.11"/>
</g>
<!-- Node31 -->
<g id="node25" class="node">
<title>Node31</title>
<g id="a_node25"><a xlink:href="class_c_net_addr.html#afc07b09ccfd8406c5aa30ce009727eab" target="_top" xlink:title="Check whether this object represents an I2P address.">
<polygon fill="white" stroke="black" points="849.5,-620 849.5,-639 941.5,-639 941.5,-620 849.5,-620"/>
<text text-anchor="middle" x="895.5" y="-627" font-family="Helvetica,sans-Serif" font-size="10.00">CNetAddr::IsI2P</text>
</a>
</g>
</g>
<!-- Node30&#45;&gt;Node31 -->
<g id="edge29" class="edge">
<title>Node30&#45;&gt;Node31</title>
<path fill="none" stroke="midnightblue" d="M762.16,-601.09C785.84,-606.17 815.11,-612.46 840.1,-617.82"/>
<polygon fill="midnightblue" stroke="midnightblue" points="839.64,-621.3 850.16,-619.98 841.11,-614.46 839.64,-621.3"/>
</g>
<!-- Node32 -->
<g id="node26" class="node">
<title>Node32</title>
<g id="a_node26"><a xlink:href="class_c_net_addr.html#ab0848a1ba29b6f72fcc3b6ba8d7c8fbb" target="_top" xlink:title=" ">
<polygon fill="white" stroke="black" points="838,-582 838,-601 953,-601 953,-582 838,-582"/>
<text text-anchor="middle" x="895.5" y="-589" font-family="Helvetica,sans-Serif" font-size="10.00">CNetAddr::IsInternal</text>
</a>
</g>
</g>
<!-- Node30&#45;&gt;Node32 -->
<g id="edge30" class="edge">
<title>Node30&#45;&gt;Node32</title>
<path fill="none" stroke="midnightblue" d="M783.16,-591.5C797.64,-591.5 813.01,-591.5 827.55,-591.5"/>
<polygon fill="midnightblue" stroke="midnightblue" points="827.96,-595 837.96,-591.5 827.96,-588 827.96,-595"/>
</g>
<!-- Node33 -->
<g id="node27" class="node">
<title>Node33</title>
<g id="a_node27"><a xlink:href="class_c_net_addr.html#a4db37b4997ff3b8c57959f2aa915a9a3" target="_top" xlink:title="Check whether this object represents a TOR address.">
<polygon fill="white" stroke="black" points="849.5,-696 849.5,-715 941.5,-715 941.5,-696 849.5,-696"/>
<text text-anchor="middle" x="895.5" y="-703" font-family="Helvetica,sans-Serif" font-size="10.00">CNetAddr::IsTor</text>
</a>
</g>
</g>
<!-- Node30&#45;&gt;Node33 -->
<g id="edge32" class="edge">
<title>Node30&#45;&gt;Node33</title>
<path fill="none" stroke="midnightblue" d="M725,-601.27C740.42,-620.64 777.68,-663.96 819,-686.5 825.36,-689.97 832.37,-692.82 839.48,-695.16"/>
<polygon fill="midnightblue" stroke="midnightblue" points="838.6,-698.55 849.18,-698.04 840.59,-691.84 838.6,-698.55"/>
</g>
<!-- Node34 -->
<g id="node28" class="node">
<title>Node34</title>
<g id="a_node28"><a xlink:href="class_c_net_addr.html#a0c8d9b5ed3824546ff4dccca3b28b073" target="_top" xlink:title=" ">
<polygon fill="white" stroke="black" points="837,-544 837,-563 954,-563 954,-544 837,-544"/>
<text text-anchor="middle" x="895.5" y="-551" font-family="Helvetica,sans-Serif" font-size="10.00">CNetAddr::ToStringIP</text>
</a>
</g>
</g>
<!-- Node30&#45;&gt;Node34 -->
<g id="edge33" class="edge">
<title>Node30&#45;&gt;Node34</title>
<path fill="none" stroke="midnightblue" d="M762.16,-581.91C785.84,-576.83 815.11,-570.54 840.1,-565.18"/>
<polygon fill="midnightblue" stroke="midnightblue" points="841.11,-568.54 850.16,-563.02 839.64,-561.7 841.11,-568.54"/>
</g>
<!-- Node56 -->
<g id="node35" class="node">
<title>Node56</title>
<g id="a_node35"><a xlink:href="class_c_service.html#a95d6f24b6a613fca24734ba4e38ef3dc" target="_top" xlink:title=" ">
<polygon fill="white" stroke="black" points="833.5,-658 833.5,-677 957.5,-677 957.5,-658 833.5,-658"/>
<text text-anchor="middle" x="895.5" y="-665" font-family="Helvetica,sans-Serif" font-size="10.00">CService::ToStringPort</text>
</a>
</g>
</g>
<!-- Node30&#45;&gt;Node56 -->
<g id="edge45" class="edge">
<title>Node30&#45;&gt;Node56</title>
<path fill="none" stroke="midnightblue" d="M731.69,-601.08C750.78,-613.58 786.14,-635.41 819,-648.5 825.24,-650.99 831.91,-653.22 838.6,-655.22"/>
<polygon fill="midnightblue" stroke="midnightblue" points="837.79,-658.63 848.37,-657.96 839.69,-651.89 837.79,-658.63"/>
</g>
<!-- Node34&#45;&gt;Node21 -->
<g id="edge34" class="edge">
<title>Node34&#45;&gt;Node21</title>
<path fill="none" stroke="midnightblue" d="M935.2,-543.95C996.49,-528.83 1114.81,-499.63 1172,-485.52"/>
<polygon fill="midnightblue" stroke="midnightblue" points="1173.06,-488.86 1181.93,-483.07 1171.39,-482.07 1173.06,-488.86"/>
</g>
<!-- Node35 -->
<g id="node29" class="node">
<title>Node35</title>
<g id="a_node29"><a xlink:href="strencodings_8cpp.html#a7988aa4314a652a2697c92422ccf20e7" target="_top" xlink:title="Base32 encode.">
<polygon fill="white" stroke="red" points="1161.5,-582 1161.5,-601 1249.5,-601 1249.5,-582 1161.5,-582"/>
<text text-anchor="middle" x="1205.5" y="-589" font-family="Helvetica,sans-Serif" font-size="10.00">EncodeBase32</text>
</a>
</g>
</g>
<!-- Node34&#45;&gt;Node35 -->
<g id="edge35" class="edge">
<title>Node34&#45;&gt;Node35</title>
<path fill="none" stroke="midnightblue" d="M950.38,-563.04C957.92,-565.51 965.35,-568.61 972,-572.5 992.08,-584.25 986.63,-601.31 1008,-610.5 1061.41,-633.47 1130.31,-617.66 1170.73,-604.37"/>
<polygon fill="midnightblue" stroke="midnightblue" points="1172.03,-607.63 1180.36,-601.08 1169.77,-601 1172.03,-607.63"/>
</g>
<!-- Node39 -->
<g id="node32" class="node">
<title>Node39</title>
<g id="a_node32"><a xlink:href="netaddress_8cpp.html#ad5b3cda6110f14994b75b1d62d863c18" target="_top" xlink:title=" ">
<polygon fill="white" stroke="black" points="1020.5,-544 1020.5,-563 1097.5,-563 1097.5,-544 1020.5,-544"/>
<text text-anchor="middle" x="1059" y="-551" font-family="Helvetica,sans-Serif" font-size="10.00">IPv4ToString</text>
</a>
</g>
</g>
<!-- Node34&#45;&gt;Node39 -->
<g id="edge38" class="edge">
<title>Node34&#45;&gt;Node39</title>
<path fill="none" stroke="midnightblue" d="M954.35,-553.5C972.49,-553.5 992.31,-553.5 1009.71,-553.5"/>
<polygon fill="midnightblue" stroke="midnightblue" points="1010.2,-557 1020.2,-553.5 1010.2,-550 1010.2,-557"/>
</g>
<!-- Node40 -->
<g id="node33" class="node">
<title>Node40</title>
<g id="a_node33"><a xlink:href="netaddress_8cpp.html#a9a48a4821f2e3db2f3a2be861471417b" target="_top" xlink:title=" ">
<polygon fill="white" stroke="red" points="1020.5,-468 1020.5,-487 1097.5,-487 1097.5,-468 1020.5,-468"/>
<text text-anchor="middle" x="1059" y="-475" font-family="Helvetica,sans-Serif" font-size="10.00">IPv6ToString</text>
</a>
</g>
</g>
<!-- Node34&#45;&gt;Node40 -->
<g id="edge39" class="edge">
<title>Node34&#45;&gt;Node40</title>
<path fill="none" stroke="midnightblue" d="M948.95,-543.91C956.92,-541.43 964.86,-538.35 972,-534.5 991.11,-524.2 990.02,-513.66 1008,-501.5 1013.39,-497.85 1019.42,-494.46 1025.38,-491.44"/>
<polygon fill="midnightblue" stroke="midnightblue" points="1027.08,-494.5 1034.57,-487.02 1024.04,-488.2 1027.08,-494.5"/>
</g>
<!-- Node44 -->
<g id="node34" class="node">
<title>Node44</title>
<g id="a_node34"><a xlink:href="netaddress_8cpp.html#a4883facebdcd8e153f336d6bf711d041" target="_top" xlink:title=" ">
<polygon fill="white" stroke="red" points="1017,-582 1017,-601 1101,-601 1101,-582 1017,-582"/>
<text text-anchor="middle" x="1059" y="-589" font-family="Helvetica,sans-Serif" font-size="10.00">OnionToString</text>
</a>
</g>
</g>
<!-- Node34&#45;&gt;Node44 -->
<g id="edge41" class="edge">
<title>Node34&#45;&gt;Node44</title>
<path fill="none" stroke="midnightblue" d="M937.25,-563.09C958.66,-568.13 985.09,-574.34 1007.75,-579.68"/>
<polygon fill="midnightblue" stroke="midnightblue" points="1007,-583.1 1017.54,-581.98 1008.61,-576.28 1007,-583.1"/>
</g>
<!-- Node36 -->
<g id="node30" class="node">
<title>Node36</title>
<g id="a_node30"><a xlink:href="class_span.html#aba913ab7ea39559834e64d08ce0ce9c4" target="_top" xlink:title=" ">
<polygon fill="white" stroke="black" points="1301,-525 1301,-544 1375,-544 1375,-525 1301,-525"/>
<text text-anchor="middle" x="1338" y="-532" font-family="Helvetica,sans-Serif" font-size="10.00">Span::begin</text>
</a>
</g>
</g>
<!-- Node35&#45;&gt;Node36 -->
<g id="edge36" class="edge">
<title>Node35&#45;&gt;Node36</title>
<path fill="none" stroke="midnightblue" d="M1230.5,-581.91C1241.11,-577.6 1253.72,-572.4 1265,-567.5 1278.97,-561.44 1294.33,-554.44 1307.26,-548.46"/>
<polygon fill="midnightblue" stroke="midnightblue" points="1309.02,-551.5 1316.62,-544.11 1306.07,-545.15 1309.02,-551.5"/>
</g>
<!-- Node37 -->
<g id="node31" class="node">
<title>Node37</title>
<g id="a_node31"><a xlink:href="class_span.html#acc0c9ba9f8d622e4e3f579350d4c2c0a" target="_top" xlink:title=" ">
<polygon fill="white" stroke="black" points="1305.5,-468 1305.5,-487 1370.5,-487 1370.5,-468 1305.5,-468"/>
<text text-anchor="middle" x="1338" y="-475" font-family="Helvetica,sans-Serif" font-size="10.00">Span::end</text>
</a>
</g>
</g>
<!-- Node35&#45;&gt;Node37 -->
<g id="edge37" class="edge">
<title>Node35&#45;&gt;Node37</title>
<path fill="none" stroke="midnightblue" d="M1217.63,-581.78C1239.97,-562.26 1290.51,-518.11 1318.13,-493.99"/>
<polygon fill="midnightblue" stroke="midnightblue" points="1320.67,-496.41 1325.9,-487.19 1316.07,-491.14 1320.67,-496.41"/>
</g>
<!-- Node40&#45;&gt;Node21 -->
<g id="edge40" class="edge">
<title>Node40&#45;&gt;Node21</title>
<path fill="none" stroke="midnightblue" d="M1097.59,-477.5C1120.58,-477.5 1149.72,-477.5 1171.77,-477.5"/>
<polygon fill="midnightblue" stroke="midnightblue" points="1171.96,-481 1181.96,-477.5 1171.96,-474 1171.96,-481"/>
</g>
<!-- Node44&#45;&gt;Node35 -->
<g id="edge43" class="edge">
<title>Node44&#45;&gt;Node35</title>
<path fill="none" stroke="midnightblue" d="M1101.02,-591.5C1116.64,-591.5 1134.66,-591.5 1151.25,-591.5"/>
<polygon fill="midnightblue" stroke="midnightblue" points="1151.36,-595 1161.36,-591.5 1151.36,-588 1151.36,-595"/>
</g>
<!-- Node44&#45;&gt;Node36 -->
<g id="edge42" class="edge">
<title>Node44&#45;&gt;Node36</title>
<path fill="none" stroke="midnightblue" d="M1101.08,-582.24C1115.29,-579.08 1131.33,-575.58 1146,-572.5 1195.36,-562.14 1252.05,-550.95 1290.76,-543.42"/>
<polygon fill="midnightblue" stroke="midnightblue" points="1291.54,-546.83 1300.69,-541.49 1290.21,-539.96 1291.54,-546.83"/>
</g>
<!-- Node44&#45;&gt;Node37 -->
<g id="edge44" class="edge">
<title>Node44&#45;&gt;Node37</title>
<path fill="none" stroke="midnightblue" d="M1089.48,-581.97C1096.4,-579.28 1103.61,-576.09 1110,-572.5 1127.67,-562.57 1128.2,-554.2 1146,-544.5 1194.53,-518.04 1255.54,-498.8 1295.36,-487.9"/>
<polygon fill="midnightblue" stroke="midnightblue" points="1296.51,-491.21 1305.26,-485.24 1294.7,-484.45 1296.51,-491.21"/>
</g>
<!-- Node58 -->
<g id="node37" class="node">
<title>Node58</title>
<g id="a_node37"><a xlink:href="time_8h.html#a02feccaa5f7f0b6fd475711c15c9110a" target="_top" xlink:title=" ">
<polygon fill="white" stroke="black" points="840.5,-240 840.5,-259 950.5,-259 950.5,-240 840.5,-240"/>
<text text-anchor="middle" x="895.5" y="-247" font-family="Helvetica,sans-Serif" font-size="10.00">count_milliseconds</text>
</a>
</g>
</g>
<!-- Node57&#45;&gt;Node58 -->
<g id="edge47" class="edge">
<title>Node57&#45;&gt;Node58</title>
<path fill="none" stroke="midnightblue" d="M750.79,-218.65C775.87,-224.03 810.81,-231.53 839.95,-237.79"/>
<polygon fill="midnightblue" stroke="midnightblue" points="839.48,-241.27 849.99,-239.94 840.95,-234.42 839.48,-241.27"/>
</g>
<!-- Node59 -->
<g id="node38" class="node">
<title>Node59</title>
<g id="a_node38"><a xlink:href="compat_8h.html#a77c0dba75b7b071f7e1d9fa97eb3d8a9" target="_top" xlink:title=" ">
<polygon fill="white" stroke="black" points="841.5,-202 841.5,-221 949.5,-221 949.5,-202 841.5,-202"/>
<text text-anchor="middle" x="895.5" y="-209" font-family="Helvetica,sans-Serif" font-size="10.00">IsSelectableSocket</text>
</a>
</g>
</g>
<!-- Node57&#45;&gt;Node59 -->
<g id="edge48" class="edge">
<title>Node57&#45;&gt;Node59</title>
<path fill="none" stroke="midnightblue" d="M750.79,-211.5C773.35,-211.5 803.87,-211.5 830.98,-211.5"/>
<polygon fill="midnightblue" stroke="midnightblue" points="831.18,-215 841.18,-211.5 831.18,-208 831.18,-215"/>
</g>
<!-- Node60 -->
<g id="node39" class="node">
<title>Node60</title>
<g id="a_node39"><a xlink:href="time_8cpp.html#a0813a315d41aebd2edea6c4298b90a37" target="_top" xlink:title="Convert milliseconds to a struct timeval for e.g.">
<polygon fill="white" stroke="black" points="849,-164 849,-183 942,-183 942,-164 849,-164"/>
<text text-anchor="middle" x="895.5" y="-171" font-family="Helvetica,sans-Serif" font-size="10.00">MillisToTimeval</text>
</a>
</g>
</g>
<!-- Node57&#45;&gt;Node60 -->
<g id="edge49" class="edge">
<title>Node57&#45;&gt;Node60</title>
<path fill="none" stroke="midnightblue" d="M750.79,-204.35C775.87,-198.97 810.81,-191.47 839.95,-185.21"/>
<polygon fill="midnightblue" stroke="midnightblue" points="840.95,-188.58 849.99,-183.06 839.48,-181.73 840.95,-188.58"/>
</g>
<!-- Node61&#45;&gt;Node14 -->
<g id="edge51" class="edge">
<title>Node61&#45;&gt;Node14</title>
<path fill="none" stroke="midnightblue" d="M388.38,-86.33C409.8,-74.66 440.47,-58.41 468,-45.5 475.93,-41.78 484.45,-38.03 492.75,-34.49"/>
<polygon fill="midnightblue" stroke="midnightblue" points="494.12,-37.71 501.99,-30.61 491.41,-31.26 494.12,-37.71"/>
</g>
<!-- Node62 -->
<g id="node41" class="node">
<title>Node62</title>
<g id="a_node41"><a xlink:href="class_sock.html#ada114b340d98abc04a1894904461798c" target="_top" xlink:title="Read from socket until a terminator character is encountered.">
<polygon fill="white" stroke="black" points="468,-88 468,-107 614,-107 614,-88 468,-88"/>
<text text-anchor="middle" x="541" y="-95" font-family="Helvetica,sans-Serif" font-size="10.00">Sock::RecvUntilTerminator</text>
</a>
</g>
</g>
<!-- Node61&#45;&gt;Node62 -->
<g id="edge52" class="edge">
<title>Node61&#45;&gt;Node62</title>
<path fill="none" stroke="midnightblue" d="M432,-99.91C440.49,-99.72 449.21,-99.53 457.84,-99.34"/>
<polygon fill="midnightblue" stroke="midnightblue" points="457.99,-102.83 467.91,-99.11 457.83,-95.84 457.99,-102.83"/>
</g>
<!-- Node65 -->
<g id="node44" class="node">
<title>Node65</title>
<g id="a_node44"><a xlink:href="class_sock.html#a2159094ecc800095d6d47bac5d12e351" target="_top" xlink:title="Send the given data, retrying on transient errors.">
<polygon fill="white" stroke="black" points="482.5,-126 482.5,-145 599.5,-145 599.5,-126 482.5,-126"/>
<text text-anchor="middle" x="541" y="-133" font-family="Helvetica,sans-Serif" font-size="10.00">Sock::SendComplete</text>
</a>
</g>
</g>
<!-- Node61&#45;&gt;Node65 -->
<g id="edge57" class="edge">
<title>Node61&#45;&gt;Node65</title>
<path fill="none" stroke="midnightblue" d="M432,-114.99C447.86,-118 464.52,-121.16 479.88,-124.08"/>
<polygon fill="midnightblue" stroke="midnightblue" points="479.29,-127.53 489.77,-125.96 480.6,-120.65 479.29,-127.53"/>
</g>
<!-- Node278 -->
<g id="node50" class="node">
<title>Node278</title>
<g id="a_node50"><a xlink:href="namespacespanparsing.html#a067afedbf92cfb0ec33b09e596e4a95f" target="_top" xlink:title="Split a string on every instance of sep, returning a vector.">
<polygon fill="white" stroke="black" points="1153.5,-250 1153.5,-269 1257.5,-269 1257.5,-250 1153.5,-250"/>
<text text-anchor="middle" x="1205.5" y="-257" font-family="Helvetica,sans-Serif" font-size="10.00">spanparsing::Split</text>
</a>
</g>
</g>
<!-- Node61&#45;&gt;Node278 -->
<g id="edge68" class="edge">
<title>Node61&#45;&gt;Node278</title>
<path fill="none" stroke="midnightblue" d="M424.11,-86.45C438.47,-83.44 453.71,-80.57 468,-78.5 577.18,-62.65 605.18,-59.5 715.5,-59.5 715.5,-59.5 715.5,-59.5 896.5,-59.5 1029.75,-59.5 1150.71,-192.79 1190.64,-241.75"/>
<polygon fill="midnightblue" stroke="midnightblue" points="1188.15,-244.24 1197.13,-249.85 1193.61,-239.86 1188.15,-244.24"/>
</g>
<!-- Node62&#45;&gt;Node28 -->
<g id="edge54" class="edge">
<title>Node62&#45;&gt;Node28</title>
<path fill="none" stroke="midnightblue" d="M600.23,-107.11C605.27,-109.58 609.98,-112.66 614,-116.5 652.46,-153.16 611.99,-193.37 650,-230.5 651.49,-231.96 653.09,-233.31 654.77,-234.55"/>
<polygon fill="midnightblue" stroke="midnightblue" points="653.4,-237.81 663.77,-239.96 657.01,-231.81 653.4,-237.81"/>
</g>
<!-- Node62&#45;&gt;Node57 -->
<g id="edge56" class="edge">
<title>Node62&#45;&gt;Node57</title>
<path fill="none" stroke="midnightblue" d="M598.27,-107.05C603.94,-109.52 609.33,-112.62 614,-116.5 642.75,-140.38 621.54,-168.27 650,-192.5 656.41,-197.96 664.31,-201.85 672.38,-204.62"/>
<polygon fill="midnightblue" stroke="midnightblue" points="671.64,-208.05 682.22,-207.48 673.59,-201.33 671.64,-208.05"/>
</g>
<!-- Node63 -->
<g id="node42" class="node">
<title>Node63</title>
<g id="a_node42"><a xlink:href="sock_8cpp.html#a14c7dc88410dcc822e507b0878a18596" target="_top" xlink:title=" ">
<polygon fill="white" stroke="black" points="660.5,-126 660.5,-145 772.5,-145 772.5,-126 660.5,-126"/>
<text text-anchor="middle" x="716.5" y="-133" font-family="Helvetica,sans-Serif" font-size="10.00">IOErrorIsPermanent</text>
</a>
</g>
</g>
<!-- Node62&#45;&gt;Node63 -->
<g id="edge53" class="edge">
<title>Node62&#45;&gt;Node63</title>
<path fill="none" stroke="midnightblue" d="M585.78,-107.09C608.99,-112.17 637.68,-118.46 662.17,-123.82"/>
<polygon fill="midnightblue" stroke="midnightblue" points="661.52,-127.26 672.03,-125.98 663.01,-120.42 661.52,-127.26"/>
</g>
<!-- Node64 -->
<g id="node43" class="node">
<title>Node64</title>
<g id="a_node43"><a xlink:href="class_sock.html#ad24e3e8bde38c62e19373de539e9156c" target="_top" xlink:title="recv(2) wrapper.">
<polygon fill="white" stroke="black" points="681.5,-88 681.5,-107 751.5,-107 751.5,-88 681.5,-88"/>
<text text-anchor="middle" x="716.5" y="-95" font-family="Helvetica,sans-Serif" font-size="10.00">Sock::Recv</text>
</a>
</g>
</g>
<!-- Node62&#45;&gt;Node64 -->
<g id="edge55" class="edge">
<title>Node62&#45;&gt;Node64</title>
<path fill="none" stroke="midnightblue" d="M614.07,-97.5C633.35,-97.5 653.62,-97.5 670.93,-97.5"/>
<polygon fill="midnightblue" stroke="midnightblue" points="671.29,-101 681.29,-97.5 671.29,-94 671.29,-101"/>
</g>
<!-- Node65&#45;&gt;Node28 -->
<g id="edge59" class="edge">
<title>Node65&#45;&gt;Node28</title>
<path fill="none" stroke="midnightblue" d="M588.61,-145.13C597.73,-148.57 606.72,-153.22 614,-159.5 640.79,-182.61 622.76,-207.93 650,-230.5 652.03,-232.19 654.21,-233.72 656.49,-235.12"/>
<polygon fill="midnightblue" stroke="midnightblue" points="655.22,-238.4 665.71,-239.87 658.42,-232.18 655.22,-238.4"/>
</g>
<!-- Node65&#45;&gt;Node57 -->
<g id="edge67" class="edge">
<title>Node65&#45;&gt;Node57</title>
<path fill="none" stroke="midnightblue" d="M580.67,-145.1C591.85,-148.73 603.78,-153.49 614,-159.5 632.71,-170.51 631.08,-181.86 650,-192.5 656.97,-196.42 664.81,-199.59 672.59,-202.14"/>
<polygon fill="midnightblue" stroke="midnightblue" points="671.75,-205.54 682.34,-205.04 673.75,-198.83 671.75,-205.54"/>
</g>
<!-- Node65&#45;&gt;Node63 -->
<g id="edge58" class="edge">
<title>Node65&#45;&gt;Node63</title>
<path fill="none" stroke="midnightblue" d="M599.77,-135.5C615.94,-135.5 633.62,-135.5 650.18,-135.5"/>
<polygon fill="midnightblue" stroke="midnightblue" points="650.33,-139 660.33,-135.5 650.33,-132 650.33,-139"/>
</g>
<!-- Node66 -->
<g id="node45" class="node">
<title>Node66</title>
<g id="a_node45"><a xlink:href="class_sock.html#a08c01014e3a85c41c06e9e5e2512a61d" target="_top" xlink:title="send(2) wrapper.">
<polygon fill="white" stroke="black" points="681.5,-164 681.5,-183 751.5,-183 751.5,-164 681.5,-164"/>
<text text-anchor="middle" x="716.5" y="-171" font-family="Helvetica,sans-Serif" font-size="10.00">Sock::Send</text>
</a>
</g>
</g>
<!-- Node65&#45;&gt;Node66 -->
<g id="edge60" class="edge">
<title>Node65&#45;&gt;Node66</title>
<path fill="none" stroke="midnightblue" d="M585.78,-145.09C611.93,-150.81 645.03,-158.07 671.26,-163.81"/>
<polygon fill="midnightblue" stroke="midnightblue" points="670.79,-167.29 681.31,-166.01 672.29,-160.45 670.79,-167.29"/>
</g>
<!-- Node67 -->
<g id="node46" class="node">
<title>Node67</title>
<g id="a_node46"><a xlink:href="rpcwallet_8cpp.html#a52980bfe3ce43e0507e9ecdecefa2230" target="_top" xlink:title=" ">
<polygon fill="white" stroke="red" points="1039,-288 1039,-307 1079,-307 1079,-288 1039,-288"/>
<text text-anchor="middle" x="1059" y="-295" font-family="Helvetica,sans-Serif" font-size="10.00">send</text>
</a>
</g>
</g>
<!-- Node66&#45;&gt;Node67 -->
<g id="edge61" class="edge">
<title>Node66&#45;&gt;Node67</title>
<path fill="none" stroke="midnightblue" d="M751.58,-165.49C771.17,-161.3 796.33,-156.6 819,-154.5 886.71,-148.22 912.81,-121.03 972,-154.5 1019.35,-181.28 1043.51,-245.71 1053.02,-278.15"/>
<polygon fill="midnightblue" stroke="midnightblue" points="1049.66,-279.12 1055.7,-287.82 1056.4,-277.25 1049.66,-279.12"/>
</g>
<!-- Node68 -->
<g id="node47" class="node">
<title>Node68</title>
<g id="a_node47"><a xlink:href="rawtransaction__util_8cpp.html#a71903528afea17b236b3d96699275c44" target="_top" xlink:title="Create a transaction from univalue parameters.">
<polygon fill="white" stroke="red" points="1146,-326 1146,-345 1265,-345 1265,-326 1146,-326"/>
<text text-anchor="middle" x="1205.5" y="-333" font-family="Helvetica,sans-Serif" font-size="10.00">ConstructTransaction</text>
</a>
</g>
</g>
<!-- Node67&#45;&gt;Node68 -->
<g id="edge62" class="edge">
<title>Node67&#45;&gt;Node68</title>
<path fill="none" stroke="midnightblue" d="M1079.19,-302.55C1099.27,-307.83 1131.54,-316.31 1158.31,-323.35"/>
<polygon fill="midnightblue" stroke="midnightblue" points="1157.69,-326.81 1168.26,-325.97 1159.47,-320.04 1157.69,-326.81"/>
</g>
<!-- Node108 -->
<g id="node48" class="node">
<title>Node108</title>
<g id="a_node48"><a xlink:href="strencodings_8cpp.html#a5319d20c493fa005757afa8c77c739ee" target="_top" xlink:title=" ">
<polygon fill="white" stroke="red" points="1161.5,-430 1161.5,-449 1249.5,-449 1249.5,-430 1161.5,-430"/>
<text text-anchor="middle" x="1205.5" y="-437" font-family="Helvetica,sans-Serif" font-size="10.00">EncodeBase64</text>
</a>
</g>
</g>
<!-- Node67&#45;&gt;Node108 -->
<g id="edge63" class="edge">
<title>Node67&#45;&gt;Node108</title>
<path fill="none" stroke="midnightblue" d="M1079.28,-302.11C1089.13,-305.11 1100.91,-309.74 1110,-316.5 1130.37,-331.65 1171.98,-391.17 1192.5,-421.51"/>
<polygon fill="midnightblue" stroke="midnightblue" points="1189.66,-423.57 1198.15,-429.91 1195.47,-419.66 1189.66,-423.57"/>
</g>
<!-- Node109 -->
<g id="node49" class="node">
<title>Node109</title>
<g id="a_node49"><a xlink:href="core__write_8cpp.html#ae2f8819dc2e2c7602a88e5daf58d2cb7" target="_top" xlink:title=" ">
<polygon fill="white" stroke="red" points="1164,-288 1164,-307 1247,-307 1247,-288 1164,-288"/>
<text text-anchor="middle" x="1205.5" y="-295" font-family="Helvetica,sans-Serif" font-size="10.00">EncodeHexTx</text>
</a>
</g>
</g>
<!-- Node67&#45;&gt;Node109 -->
<g id="edge66" class="edge">
<title>Node67&#45;&gt;Node109</title>
<path fill="none" stroke="midnightblue" d="M1079.19,-297.5C1098.17,-297.5 1128.03,-297.5 1153.84,-297.5"/>
<polygon fill="midnightblue" stroke="midnightblue" points="1153.87,-301 1163.87,-297.5 1153.87,-294 1153.87,-301"/>
</g>
<!-- Node108&#45;&gt;Node36 -->
<g id="edge64" class="edge">
<title>Node108&#45;&gt;Node36</title>
<path fill="none" stroke="midnightblue" d="M1245.18,-449.03C1252.06,-451.56 1258.95,-454.68 1265,-458.5 1265.11,-458.57 1299.58,-494.97 1320.78,-517.36"/>
<polygon fill="midnightblue" stroke="midnightblue" points="1318.48,-520.03 1327.9,-524.89 1323.57,-515.22 1318.48,-520.03"/>
</g>
<!-- Node108&#45;&gt;Node37 -->
<g id="edge65" class="edge">
<title>Node108&#45;&gt;Node37</title>
<path fill="none" stroke="midnightblue" d="M1239.43,-449.09C1256.5,-454.06 1277.53,-460.18 1295.68,-465.47"/>
<polygon fill="midnightblue" stroke="midnightblue" points="1294.85,-468.87 1305.43,-468.31 1296.81,-462.15 1294.85,-468.87"/>
</g>
<!-- Node278&#45;&gt;Node36 -->
<g id="edge69" class="edge">
<title>Node278&#45;&gt;Node36</title>
<path fill="none" stroke="midnightblue" d="M1252.98,-269.05C1257.51,-271.52 1261.66,-274.61 1265,-278.5 1329.03,-352.96 1257.31,-408.55 1301,-496.5 1304.92,-504.4 1311.04,-511.77 1317.13,-517.87"/>
<polygon fill="midnightblue" stroke="midnightblue" points="1314.96,-520.63 1324.66,-524.88 1319.73,-515.51 1314.96,-520.63"/>
</g>
<!-- Node278&#45;&gt;Node37 -->
<g id="edge70" class="edge">
<title>Node278&#45;&gt;Node37</title>
<path fill="none" stroke="midnightblue" d="M1251.14,-269.11C1256.23,-271.56 1261.01,-274.64 1265,-278.5 1316.54,-328.36 1331.34,-417.88 1335.47,-457.59"/>
<polygon fill="midnightblue" stroke="midnightblue" points="1331.99,-457.96 1336.38,-467.6 1338.96,-457.33 1331.99,-457.96"/>
</g>
</g>
</svg>
