<?xml version="1.0" encoding="UTF-8" standalone="no"?>
<!DOCTYPE svg PUBLIC "-//W3C//DTD SVG 1.1//EN"
 "http://www.w3.org/Graphics/SVG/1.1/DTD/svg11.dtd">
<!-- Generated by graphviz version 2.49.3 (0)
 -->
<!-- Title: V1TransportDeserializer::Reset Pages: 1 -->
<svg width="316pt" height="137pt"
 viewBox="0.00 0.00 316.00 137.00" xmlns="http://www.w3.org/2000/svg" xmlns:xlink="http://www.w3.org/1999/xlink">
<g id="graph0" class="graph" transform="scale(1 1) rotate(0) translate(4 133)">
<title>V1TransportDeserializer::Reset</title>
<polygon fill="white" stroke="transparent" points="-4,4 -4,-133 312,-133 312,4 -4,4"/>
<!-- Node1 -->
<g id="node1" class="node">
<title>Node1</title>
<g id="a_node1"><a xlink:title=" ">
<polygon fill="#bfbfbf" stroke="black" points="175,-49.5 175,-79.5 308,-79.5 308,-49.5 175,-49.5"/>
<text text-anchor="start" x="183" y="-67.5" font-family="Helvetica,sans-Serif" font-size="10.00">V1TransportDeserializer</text>
<text text-anchor="middle" x="241.5" y="-56.5" font-family="Helvetica,sans-Serif" font-size="10.00">::Reset</text>
</a>
</g>
</g>
<!-- Node2 -->
<g id="node2" class="node">
<title>Node2</title>
<g id="a_node2"><a xlink:href="class_v1_transport_deserializer.html#a2948a50505dd892d9743839608abab9b" target="_top" xlink:title=" ">
<polygon fill="white" stroke="black" points="3,-98.5 3,-128.5 136,-128.5 136,-98.5 3,-98.5"/>
<text text-anchor="start" x="11" y="-116.5" font-family="Helvetica,sans-Serif" font-size="10.00">V1TransportDeserializer</text>
<text text-anchor="middle" x="69.5" y="-105.5" font-family="Helvetica,sans-Serif" font-size="10.00">::GetMessage</text>
</a>
</g>
</g>
<!-- Node1&#45;&gt;Node2 -->
<g id="edge1" class="edge">
<title>Node1&#45;&gt;Node2</title>
<path fill="none" stroke="midnightblue" d="M178.42,-82.39C160.13,-87.66 140.32,-93.38 122.72,-98.45"/>
<polygon fill="midnightblue" stroke="midnightblue" points="179.47,-85.73 188.11,-79.6 177.53,-79.01 179.47,-85.73"/>
</g>
<!-- Node3 -->
<g id="node3" class="node">
<title>Node3</title>
<g id="a_node3"><a xlink:href="class_v1_transport_deserializer.html#a6d30af150c9669f093f1485298a199b2" target="_top" xlink:title="read and deserialize data, advances msg_bytes data pointer">
<polygon fill="white" stroke="black" points="3,-49.5 3,-79.5 136,-79.5 136,-49.5 3,-49.5"/>
<text text-anchor="start" x="11" y="-67.5" font-family="Helvetica,sans-Serif" font-size="10.00">V1TransportDeserializer</text>
<text text-anchor="middle" x="69.5" y="-56.5" font-family="Helvetica,sans-Serif" font-size="10.00">::Read</text>
</a>
</g>
</g>
<!-- Node1&#45;&gt;Node3 -->
<g id="edge2" class="edge">
<title>Node1&#45;&gt;Node3</title>
<path fill="none" stroke="midnightblue" d="M164.54,-64.5C155.04,-64.5 145.38,-64.5 136.05,-64.5"/>
<polygon fill="midnightblue" stroke="midnightblue" points="164.77,-68 174.77,-64.5 164.77,-61 164.77,-68"/>
</g>
<!-- Node4 -->
<g id="node4" class="node">
<title>Node4</title>
<g id="a_node4"><a xlink:href="class_v1_transport_deserializer.html#a710ccc4ee20c1e955fe60f924aaac2d2" target="_top" xlink:title=" ">
<polygon fill="white" stroke="black" points="0,-0.5 0,-30.5 139,-30.5 139,-0.5 0,-0.5"/>
<text text-anchor="start" x="8" y="-18.5" font-family="Helvetica,sans-Serif" font-size="10.00">V1TransportDeserializer</text>
<text text-anchor="middle" x="69.5" y="-7.5" font-family="Helvetica,sans-Serif" font-size="10.00">::V1TransportDeserializer</text>
</a>
</g>
</g>
<!-- Node1&#45;&gt;Node4 -->
<g id="edge3" class="edge">
<title>Node1&#45;&gt;Node4</title>
<path fill="none" stroke="midnightblue" d="M178.42,-46.61C160.13,-41.34 140.32,-35.62 122.72,-30.55"/>
<polygon fill="midnightblue" stroke="midnightblue" points="177.53,-49.99 188.11,-49.4 179.47,-43.27 177.53,-49.99"/>
</g>
</g>
</svg>
