<?xml version="1.0" encoding="UTF-8" standalone="no"?>
<!DOCTYPE svg PUBLIC "-//W3C//DTD SVG 1.1//EN"
 "http://www.w3.org/Graphics/SVG/1.1/DTD/svg11.dtd">
<!-- Generated by graphviz version 2.38.0 (20140413.2041)
 -->
<!-- Title: src/qt/clientmodel.h Pages: 1 -->
<svg width="1586pt" height="84pt"
 viewBox="0.00 0.00 1586.00 84.00" xmlns="http://www.w3.org/2000/svg" xmlns:xlink="http://www.w3.org/1999/xlink">
<g id="graph0" class="graph" transform="scale(1 1) rotate(0) translate(4 80)">
<title>src/qt/clientmodel.h</title>
<polygon fill="white" stroke="none" points="-4,4 -4,-80 1582,-80 1582,4 -4,4"/>
<!-- Node1 -->
<g id="node1" class="node"><title>Node1</title>
<polygon fill="#bfbfbf" stroke="black" points="712,-56.5 712,-75.5 823,-75.5 823,-56.5 712,-56.5"/>
<text text-anchor="middle" x="767.5" y="-63.5" font-family="Helvetica,sans-Serif" font-size="10.00">src/qt/clientmodel.h</text>
</g>
<!-- Node2 -->
<g id="node2" class="node"><title>Node2</title>
<g id="a_node2"><a xlink:href="bantablemodel_8cpp.html" target="_top" xlink:title="src/qt/bantablemodel.cpp">
<polygon fill="white" stroke="black" points="0,-0.5 0,-19.5 139,-19.5 139,-0.5 0,-0.5"/>
<text text-anchor="middle" x="69.5" y="-7.5" font-family="Helvetica,sans-Serif" font-size="10.00">src/qt/bantablemodel.cpp</text>
</a>
</g>
</g>
<!-- Node1&#45;&gt;Node2 -->
<g id="edge1" class="edge"><title>Node1&#45;&gt;Node2</title>
<path fill="none" stroke="midnightblue" d="M701.725,-61.1042C588.569,-54.2039 349.808,-38.7764 148.5,-20 145.476,-19.718 142.389,-19.4179 139.271,-19.1051"/>
<polygon fill="midnightblue" stroke="midnightblue" points="701.756,-64.6125 711.95,-61.7253 702.181,-57.6253 701.756,-64.6125"/>
</g>
<!-- Node3 -->
<g id="node3" class="node"><title>Node3</title>
<g id="a_node3"><a xlink:href="bitcoin_8cpp.html" target="_top" xlink:title="src/qt/bitcoin.cpp">
<polygon fill="white" stroke="black" points="157.5,-0.5 157.5,-19.5 255.5,-19.5 255.5,-0.5 157.5,-0.5"/>
<text text-anchor="middle" x="206.5" y="-7.5" font-family="Helvetica,sans-Serif" font-size="10.00">src/qt/bitcoin.cpp</text>
</a>
</g>
</g>
<!-- Node1&#45;&gt;Node3 -->
<g id="edge2" class="edge"><title>Node1&#45;&gt;Node3</title>
<path fill="none" stroke="midnightblue" d="M701.768,-60.4832C605.574,-53.5642 420.891,-39.1091 264.5,-20 261.567,-19.6416 258.554,-19.2489 255.517,-18.8343"/>
<polygon fill="midnightblue" stroke="midnightblue" points="701.701,-63.9873 711.925,-61.2094 702.2,-57.0051 701.701,-63.9873"/>
</g>
<!-- Node4 -->
<g id="node4" class="node"><title>Node4</title>
<g id="a_node4"><a xlink:href="bitcoingui_8cpp.html" target="_top" xlink:title="src/qt/bitcoingui.cpp">
<polygon fill="white" stroke="black" points="274,-0.5 274,-19.5 387,-19.5 387,-0.5 274,-0.5"/>
<text text-anchor="middle" x="330.5" y="-7.5" font-family="Helvetica,sans-Serif" font-size="10.00">src/qt/bitcoingui.cpp</text>
</a>
</g>
</g>
<!-- Node1&#45;&gt;Node4 -->
<g id="edge3" class="edge"><title>Node1&#45;&gt;Node4</title>
<path fill="none" stroke="midnightblue" d="M701.713,-57.3188C627.521,-48.5869 503.286,-33.7563 396.5,-20 393.403,-19.6011 390.225,-19.1862 387.018,-18.7631"/>
<polygon fill="midnightblue" stroke="midnightblue" points="701.502,-60.8181 711.842,-58.5097 702.319,-53.866 701.502,-60.8181"/>
</g>
<!-- Node5 -->
<g id="node5" class="node"><title>Node5</title>
<g id="a_node5"><a xlink:href="clientmodel_8cpp.html" target="_top" xlink:title="src/qt/clientmodel.cpp">
<polygon fill="white" stroke="black" points="405.5,-0.5 405.5,-19.5 527.5,-19.5 527.5,-0.5 405.5,-0.5"/>
<text text-anchor="middle" x="466.5" y="-7.5" font-family="Helvetica,sans-Serif" font-size="10.00">src/qt/clientmodel.cpp</text>
</a>
</g>
</g>
<!-- Node1&#45;&gt;Node5 -->
<g id="edge4" class="edge"><title>Node1&#45;&gt;Node5</title>
<path fill="none" stroke="midnightblue" d="M709.887,-54.6642C653.004,-44.4592 567.048,-29.0386 513.971,-19.5164"/>
<polygon fill="midnightblue" stroke="midnightblue" points="709.345,-58.1226 719.806,-56.4435 710.581,-51.2326 709.345,-58.1226"/>
</g>
<!-- Node6 -->
<g id="node6" class="node"><title>Node6</title>
<g id="a_node6"><a xlink:href="overviewpage_8cpp.html" target="_top" xlink:title="src/qt/overviewpage.cpp">
<polygon fill="white" stroke="black" points="545.5,-0.5 545.5,-19.5 677.5,-19.5 677.5,-0.5 545.5,-0.5"/>
<text text-anchor="middle" x="611.5" y="-7.5" font-family="Helvetica,sans-Serif" font-size="10.00">src/qt/overviewpage.cpp</text>
</a>
</g>
</g>
<!-- Node1&#45;&gt;Node6 -->
<g id="edge5" class="edge"><title>Node1&#45;&gt;Node6</title>
<path fill="none" stroke="midnightblue" d="M733.33,-53.172C703.956,-43.0039 662.302,-28.5852 636.103,-19.5164"/>
<polygon fill="midnightblue" stroke="midnightblue" points="732.187,-56.4798 742.781,-56.4435 734.476,-49.8649 732.187,-56.4798"/>
</g>
<!-- Node7 -->
<g id="node7" class="node"><title>Node7</title>
<g id="a_node7"><a xlink:href="peertablemodel_8cpp.html" target="_top" xlink:title="src/qt/peertablemodel.cpp">
<polygon fill="white" stroke="black" points="696,-0.5 696,-19.5 839,-19.5 839,-0.5 696,-0.5"/>
<text text-anchor="middle" x="767.5" y="-7.5" font-family="Helvetica,sans-Serif" font-size="10.00">src/qt/peertablemodel.cpp</text>
</a>
</g>
</g>
<!-- Node1&#45;&gt;Node7 -->
<g id="edge6" class="edge"><title>Node1&#45;&gt;Node7</title>
<path fill="none" stroke="midnightblue" d="M767.5,-45.8045C767.5,-36.9102 767.5,-26.7798 767.5,-19.7511"/>
<polygon fill="midnightblue" stroke="midnightblue" points="764,-46.083 767.5,-56.083 771,-46.083 764,-46.083"/>
</g>
<!-- Node8 -->
<g id="node8" class="node"><title>Node8</title>
<g id="a_node8"><a xlink:href="rpcconsole_8cpp.html" target="_top" xlink:title="src/qt/rpcconsole.cpp">
<polygon fill="white" stroke="black" points="857,-0.5 857,-19.5 976,-19.5 976,-0.5 857,-0.5"/>
<text text-anchor="middle" x="916.5" y="-7.5" font-family="Helvetica,sans-Serif" font-size="10.00">src/qt/rpcconsole.cpp</text>
</a>
</g>
</g>
<!-- Node1&#45;&gt;Node8 -->
<g id="edge7" class="edge"><title>Node1&#45;&gt;Node8</title>
<path fill="none" stroke="midnightblue" d="M800.871,-52.9058C828.884,-42.7536 868.196,-28.5063 893.001,-19.5164"/>
<polygon fill="midnightblue" stroke="midnightblue" points="799.319,-49.7456 791.109,-56.4435 801.704,-56.3267 799.319,-49.7456"/>
</g>
<!-- Node9 -->
<g id="node9" class="node"><title>Node9</title>
<g id="a_node9"><a xlink:href="sendcoinsdialog_8cpp.html" target="_top" xlink:title="src/qt/sendcoinsdialog.cpp">
<polygon fill="white" stroke="black" points="994,-0.5 994,-19.5 1137,-19.5 1137,-0.5 994,-0.5"/>
<text text-anchor="middle" x="1065.5" y="-7.5" font-family="Helvetica,sans-Serif" font-size="10.00">src/qt/sendcoinsdialog.cpp</text>
</a>
</g>
</g>
<!-- Node1&#45;&gt;Node9 -->
<g id="edge8" class="edge"><title>Node1&#45;&gt;Node9</title>
<path fill="none" stroke="midnightblue" d="M824.889,-54.6007C881.207,-44.3953 966.062,-29.0189 1018.5,-19.5164"/>
<polygon fill="midnightblue" stroke="midnightblue" points="823.935,-51.2165 814.719,-56.4435 825.183,-58.1043 823.935,-51.2165"/>
</g>
<!-- Node10 -->
<g id="node10" class="node"><title>Node10</title>
<g id="a_node10"><a xlink:href="trafficgraphwidget_8cpp.html" target="_top" xlink:title="src/qt/trafficgraphwidget.cpp">
<polygon fill="white" stroke="black" points="1155.5,-0.5 1155.5,-19.5 1307.5,-19.5 1307.5,-0.5 1155.5,-0.5"/>
<text text-anchor="middle" x="1231.5" y="-7.5" font-family="Helvetica,sans-Serif" font-size="10.00">src/qt/trafficgraphwidget.cpp</text>
</a>
</g>
</g>
<!-- Node1&#45;&gt;Node10 -->
<g id="edge9" class="edge"><title>Node1&#45;&gt;Node10</title>
<path fill="none" stroke="midnightblue" d="M833.153,-57.3594C919.012,-47.3672 1068.98,-29.9137 1158.38,-19.5095"/>
<polygon fill="midnightblue" stroke="midnightblue" points="832.537,-53.9074 823.008,-58.54 833.346,-60.8604 832.537,-53.9074"/>
</g>
<!-- Node11 -->
<g id="node11" class="node"><title>Node11</title>
<g id="a_node11"><a xlink:href="utilitydialog_8cpp.html" target="_top" xlink:title="src/qt/utilitydialog.cpp">
<polygon fill="white" stroke="black" points="1326,-0.5 1326,-19.5 1447,-19.5 1447,-0.5 1326,-0.5"/>
<text text-anchor="middle" x="1386.5" y="-7.5" font-family="Helvetica,sans-Serif" font-size="10.00">src/qt/utilitydialog.cpp</text>
</a>
</g>
</g>
<!-- Node1&#45;&gt;Node11 -->
<g id="edge10" class="edge"><title>Node1&#45;&gt;Node11</title>
<path fill="none" stroke="midnightblue" d="M833.565,-60.5725C936.775,-53.433 1142.49,-38.3085 1316.5,-20 1319.55,-19.6795 1322.67,-19.3357 1325.81,-18.9763"/>
<polygon fill="midnightblue" stroke="midnightblue" points="833.035,-57.1007 823.299,-61.2797 833.516,-64.0841 833.035,-57.1007"/>
</g>
<!-- Node12 -->
<g id="node12" class="node"><title>Node12</title>
<g id="a_node12"><a xlink:href="walletview_8cpp.html" target="_top" xlink:title="src/qt/walletview.cpp">
<polygon fill="white" stroke="black" points="1465,-0.5 1465,-19.5 1578,-19.5 1578,-0.5 1465,-0.5"/>
<text text-anchor="middle" x="1521.5" y="-7.5" font-family="Helvetica,sans-Serif" font-size="10.00">src/qt/walletview.cpp</text>
</a>
</g>
</g>
<!-- Node1&#45;&gt;Node12 -->
<g id="edge11" class="edge"><title>Node1&#45;&gt;Node12</title>
<path fill="none" stroke="midnightblue" d="M833.431,-62.2841C956.242,-56.872 1228.28,-43.2221 1456.5,-20 1459.22,-19.7232 1462,-19.4192 1464.81,-19.0956"/>
<polygon fill="midnightblue" stroke="midnightblue" points="833.27,-58.7877 823.432,-62.721 833.575,-65.781 833.27,-58.7877"/>
</g>
</g>
</svg>
