<?xml version="1.0" encoding="UTF-8" standalone="no"?>
<!DOCTYPE svg PUBLIC "-//W3C//DTD SVG 1.1//EN"
 "http://www.w3.org/Graphics/SVG/1.1/DTD/svg11.dtd">
<!-- Generated by graphviz version 2.40.1 (20161225.0304)
 -->
<!-- Title: src/wallet/db.h Pages: 1 -->
<svg width="2194pt" height="274pt"
 viewBox="0.00 0.00 2194.24 274.00" xmlns="http://www.w3.org/2000/svg" xmlns:xlink="http://www.w3.org/1999/xlink">
<g id="graph0" class="graph" transform="scale(1 1) rotate(0) translate(4 270)">
<title>src/wallet/db.h</title>
<polygon fill="#ffffff" stroke="transparent" points="-4,4 -4,-270 2190.2371,-270 2190.2371,4 -4,4"/>
<!-- Node55 -->
<g id="node1" class="node">
<title>Node55</title>
<polygon fill="#bfbfbf" stroke="#000000" points="763.5,-246.5 763.5,-265.5 843.5,-265.5 843.5,-246.5 763.5,-246.5"/>
<text text-anchor="middle" x="803.5" y="-253.5" font-family="Helvetica,sans-Serif" font-size="10.00" fill="#000000">src/wallet/db.h</text>
</g>
<!-- Node56 -->
<g id="node2" class="node">
<title>Node56</title>
<g id="a_node2"><a xlink:href="transactiondesc_8cpp.html" target="_top" xlink:title="src/qt/transactiondesc.cpp">
<polygon fill="#ffffff" stroke="#000000" points="53.5,-73 53.5,-92 185.5,-92 185.5,-73 53.5,-73"/>
<text text-anchor="middle" x="119.5" y="-80" font-family="Helvetica,sans-Serif" font-size="10.00" fill="#000000">src/qt/transactiondesc.cpp</text>
</a>
</g>
</g>
<!-- Node55&#45;&gt;Node56 -->
<g id="edge1" class="edge">
<title>Node55&#45;&gt;Node56</title>
<path fill="none" stroke="#191970" d="M753.2594,-251.1373C626.693,-238.3163 297.8426,-201.3017 199.5,-154 168.2766,-138.9819 140.1933,-108.0426 127.1697,-92.2456"/>
<polygon fill="#191970" stroke="#191970" points="753.1446,-254.6433 763.4445,-252.1609 753.8446,-247.6784 753.1446,-254.6433"/>
</g>
<!-- Node57 -->
<g id="node3" class="node">
<title>Node57</title>
<g id="a_node3"><a xlink:href="db_8cpp.html" target="_top" xlink:title="src/wallet/db.cpp">
<polygon fill="#ffffff" stroke="#000000" points="700,-190.5 700,-209.5 791,-209.5 791,-190.5 700,-190.5"/>
<text text-anchor="middle" x="745.5" y="-197.5" font-family="Helvetica,sans-Serif" font-size="10.00" fill="#000000">src/wallet/db.cpp</text>
</a>
</g>
</g>
<!-- Node55&#45;&gt;Node57 -->
<g id="edge2" class="edge">
<title>Node55&#45;&gt;Node57</title>
<path fill="none" stroke="#191970" d="M785.9707,-239.0751C775.9917,-229.4402 763.8524,-217.7196 755.4871,-209.6427"/>
<polygon fill="#191970" stroke="#191970" points="783.772,-241.8175 793.3972,-246.2455 788.6342,-236.7817 783.772,-241.8175"/>
</g>
<!-- Node58 -->
<g id="node4" class="node">
<title>Node58</title>
<g id="a_node4"><a xlink:href="wallet__test__fixture_8cpp.html" target="_top" xlink:title="src/wallet/test/wallet\l_test_fixture.cpp">
<polygon fill="#ffffff" stroke="#000000" points="1872,-.5 1872,-30.5 1979,-30.5 1979,-.5 1872,-.5"/>
<text text-anchor="start" x="1880" y="-18.5" font-family="Helvetica,sans-Serif" font-size="10.00" fill="#000000">src/wallet/test/wallet</text>
<text text-anchor="middle" x="1925.5" y="-7.5" font-family="Helvetica,sans-Serif" font-size="10.00" fill="#000000">_test_fixture.cpp</text>
</a>
</g>
</g>
<!-- Node55&#45;&gt;Node58 -->
<g id="edge3" class="edge">
<title>Node55&#45;&gt;Node58</title>
<path fill="none" stroke="#191970" d="M853.9169,-254.1019C1091.2384,-244.6615 2089.3188,-199.1288 2179.5,-98 2188.6699,-87.717 2188.2208,-77.6665 2179.5,-67 2154.6869,-36.651 2045.9734,-23.7568 1979.0716,-18.6165"/>
<polygon fill="#191970" stroke="#191970" points="853.6969,-250.6078 843.8426,-254.4991 853.9727,-257.6023 853.6969,-250.6078"/>
</g>
<!-- Node59 -->
<g id="node5" class="node">
<title>Node59</title>
<g id="a_node5"><a xlink:href="walletdb_8h.html" target="_top" xlink:title="src/wallet/walletdb.h">
<polygon fill="#ffffff" stroke="#000000" points="809.5,-190.5 809.5,-209.5 915.5,-209.5 915.5,-190.5 809.5,-190.5"/>
<text text-anchor="middle" x="862.5" y="-197.5" font-family="Helvetica,sans-Serif" font-size="10.00" fill="#000000">src/wallet/walletdb.h</text>
</a>
</g>
</g>
<!-- Node55&#45;&gt;Node59 -->
<g id="edge4" class="edge">
<title>Node55&#45;&gt;Node59</title>
<path fill="none" stroke="#191970" d="M821.0307,-239.3607C831.2377,-229.6727 843.7469,-217.7995 852.3408,-209.6427"/>
<polygon fill="#191970" stroke="#191970" points="818.6206,-236.8227 813.777,-246.2455 823.4396,-241.8998 818.6206,-236.8227"/>
</g>
<!-- Node60 -->
<g id="node6" class="node">
<title>Node60</title>
<g id="a_node6"><a xlink:href="rpcwallet_8cpp.html" target="_top" xlink:title="src/wallet/rpcwallet.cpp">
<polygon fill="#ffffff" stroke="#000000" points="0,-6 0,-25 119,-25 119,-6 0,-6"/>
<text text-anchor="middle" x="59.5" y="-13" font-family="Helvetica,sans-Serif" font-size="10.00" fill="#000000">src/wallet/rpcwallet.cpp</text>
</a>
</g>
</g>
<!-- Node59&#45;&gt;Node60 -->
<g id="edge5" class="edge">
<title>Node59&#45;&gt;Node60</title>
<path fill="none" stroke="#191970" d="M799.3243,-189.9748C639.3615,-164.5749 230.7233,-99.5838 227.5,-98 209.4394,-89.1257 211.5569,-77.6772 194.5,-67 163.3501,-47.501 123.6414,-33.4536 95.3709,-25.0039"/>
<polygon fill="#191970" stroke="#191970" points="799.069,-193.478 809.4942,-191.5895 800.1667,-186.5646 799.069,-193.478"/>
</g>
<!-- Node61 -->
<g id="node7" class="node">
<title>Node61</title>
<g id="a_node7"><a xlink:href="wallet_2wallet_8h.html" target="_top" xlink:title="src/wallet/wallet.h">
<polygon fill="#ffffff" stroke="#000000" points="815,-134.5 815,-153.5 910,-153.5 910,-134.5 815,-134.5"/>
<text text-anchor="middle" x="862.5" y="-141.5" font-family="Helvetica,sans-Serif" font-size="10.00" fill="#000000">src/wallet/wallet.h</text>
</a>
</g>
</g>
<!-- Node59&#45;&gt;Node61 -->
<g id="edge6" class="edge">
<title>Node59&#45;&gt;Node61</title>
<path fill="none" stroke="#191970" d="M862.5,-180.1575C862.5,-171.155 862.5,-160.9199 862.5,-153.6427"/>
<polygon fill="#191970" stroke="#191970" points="859.0001,-180.2455 862.5,-190.2455 866.0001,-180.2456 859.0001,-180.2455"/>
</g>
<!-- Node81 -->
<g id="node27" class="node">
<title>Node81</title>
<g id="a_node27"><a xlink:href="walletdb_8cpp.html" target="_top" xlink:title="src/wallet/walletdb.cpp">
<polygon fill="#ffffff" stroke="#000000" points="2054.5,-73 2054.5,-92 2170.5,-92 2170.5,-73 2054.5,-73"/>
<text text-anchor="middle" x="2112.5" y="-80" font-family="Helvetica,sans-Serif" font-size="10.00" fill="#000000">src/wallet/walletdb.cpp</text>
</a>
</g>
</g>
<!-- Node59&#45;&gt;Node81 -->
<g id="edge41" class="edge">
<title>Node59&#45;&gt;Node81</title>
<path fill="none" stroke="#191970" d="M925.7926,-197.6922C1103.368,-190.541 1621.0111,-165.0569 2045.5,-98 2055.2881,-96.4538 2065.7722,-94.2808 2075.4719,-92.0501"/>
<polygon fill="#191970" stroke="#191970" points="925.4418,-194.2033 915.5888,-198.0979 925.72,-201.1977 925.4418,-194.2033"/>
</g>
<!-- Node61&#45;&gt;Node56 -->
<g id="edge14" class="edge">
<title>Node61&#45;&gt;Node56</title>
<path fill="none" stroke="#191970" d="M804.7385,-140.855C694.3586,-134.5997 445.8937,-119.3382 237.5,-98 220.6452,-96.2742 202.4812,-94.0637 185.576,-91.856"/>
<polygon fill="#191970" stroke="#191970" points="804.8024,-144.364 814.9834,-141.4321 805.1961,-137.3751 804.8024,-144.364"/>
</g>
<!-- Node61&#45;&gt;Node60 -->
<g id="edge30" class="edge">
<title>Node61&#45;&gt;Node60</title>
<path fill="none" stroke="#191970" d="M804.5815,-143.0599C676.3934,-140.3991 372.3835,-130.7335 275.5,-98 251.4405,-89.8712 250.5258,-77.7123 227.5,-67 186.4256,-47.891 136.4735,-33.6221 101.7644,-25.0081"/>
<polygon fill="#191970" stroke="#191970" points="804.5333,-146.5595 814.6015,-143.261 804.6738,-139.5609 804.5333,-146.5595"/>
</g>
<!-- Node62 -->
<g id="node8" class="node">
<title>Node62</title>
<g id="a_node8"><a xlink:href="coin__selection_8cpp.html" target="_top" xlink:title="src/bench/coin_selection.cpp">
<polygon fill="#ffffff" stroke="#000000" points="891,-73 891,-92 1034,-92 1034,-73 891,-73"/>
<text text-anchor="middle" x="962.5" y="-80" font-family="Helvetica,sans-Serif" font-size="10.00" fill="#000000">src/bench/coin_selection.cpp</text>
</a>
</g>
</g>
<!-- Node61&#45;&gt;Node62 -->
<g id="edge7" class="edge">
<title>Node61&#45;&gt;Node62</title>
<path fill="none" stroke="#191970" d="M886.7252,-129.1015C905.4756,-117.57 930.8821,-101.945 946.9847,-92.0419"/>
<polygon fill="#191970" stroke="#191970" points="884.8095,-126.1707 878.125,-134.3906 888.4766,-132.1333 884.8095,-126.1707"/>
</g>
<!-- Node63 -->
<g id="node9" class="node">
<title>Node63</title>
<g id="a_node9"><a xlink:href="interfaces_2wallet_8cpp.html" target="_top" xlink:title="src/interfaces/wallet.cpp">
<polygon fill="#ffffff" stroke="#000000" points="1052,-73 1052,-92 1175,-92 1175,-73 1052,-73"/>
<text text-anchor="middle" x="1113.5" y="-80" font-family="Helvetica,sans-Serif" font-size="10.00" fill="#000000">src/interfaces/wallet.cpp</text>
</a>
</g>
</g>
<!-- Node61&#45;&gt;Node63 -->
<g id="edge8" class="edge">
<title>Node61&#45;&gt;Node63</title>
<path fill="none" stroke="#191970" d="M911.2259,-132.0612C958.8614,-120.3895 1030.4617,-102.846 1074.4653,-92.0643"/>
<polygon fill="#191970" stroke="#191970" points="910.3231,-128.6788 901.4434,-134.4581 911.989,-135.4777 910.3231,-128.6788"/>
</g>
<!-- Node64 -->
<g id="node10" class="node">
<title>Node64</title>
<g id="a_node10"><a xlink:href="addresstablemodel_8cpp.html" target="_top" xlink:title="src/qt/addresstablemodel.cpp">
<polygon fill="#ffffff" stroke="#000000" points="1193,-73 1193,-92 1338,-92 1338,-73 1193,-73"/>
<text text-anchor="middle" x="1265.5" y="-80" font-family="Helvetica,sans-Serif" font-size="10.00" fill="#000000">src/qt/addresstablemodel.cpp</text>
</a>
</g>
</g>
<!-- Node61&#45;&gt;Node64 -->
<g id="edge9" class="edge">
<title>Node61&#45;&gt;Node64</title>
<path fill="none" stroke="#191970" d="M920.14,-136.5262C984.4816,-128.0007 1091.6398,-113.256 1183.5,-98 1194.3623,-96.196 1206.0021,-94.097 1217.0005,-92.0373"/>
<polygon fill="#191970" stroke="#191970" points="919.6458,-133.061 910.1901,-137.8402 920.5623,-140.0007 919.6458,-133.061"/>
</g>
<!-- Node65 -->
<g id="node11" class="node">
<title>Node65</title>
<g id="a_node11"><a xlink:href="coincontroldialog_8cpp.html" target="_top" xlink:title="src/qt/coincontroldialog.cpp">
<polygon fill="#ffffff" stroke="#000000" points="675.5,-6 675.5,-25 811.5,-25 811.5,-6 675.5,-6"/>
<text text-anchor="middle" x="743.5" y="-13" font-family="Helvetica,sans-Serif" font-size="10.00" fill="#000000">src/qt/coincontroldialog.cpp</text>
</a>
</g>
</g>
<!-- Node61&#45;&gt;Node65 -->
<g id="edge10" class="edge">
<title>Node61&#45;&gt;Node65</title>
<path fill="none" stroke="#191970" d="M846.4943,-126.7166C821.1581,-99.3577 772.6324,-46.9581 752.5481,-25.2705"/>
<polygon fill="#191970" stroke="#191970" points="844.193,-129.3826 853.5557,-134.3416 849.329,-124.6264 844.193,-129.3826"/>
</g>
<!-- Node66 -->
<g id="node12" class="node">
<title>Node66</title>
<g id="a_node12"><a xlink:href="paymentserver_8cpp.html" target="_top" xlink:title="src/qt/paymentserver.cpp">
<polygon fill="#ffffff" stroke="#000000" points="1558.5,-73 1558.5,-92 1686.5,-92 1686.5,-73 1558.5,-73"/>
<text text-anchor="middle" x="1622.5" y="-80" font-family="Helvetica,sans-Serif" font-size="10.00" fill="#000000">src/qt/paymentserver.cpp</text>
</a>
</g>
</g>
<!-- Node61&#45;&gt;Node66 -->
<g id="edge11" class="edge">
<title>Node61&#45;&gt;Node66</title>
<path fill="none" stroke="#191970" d="M920.4958,-142.6062C1038.4666,-139.217 1314.6792,-128.4564 1544.5,-98 1555.9969,-96.4764 1568.3469,-94.2838 1579.7524,-92.0254"/>
<polygon fill="#191970" stroke="#191970" points="920.1503,-139.1144 910.2523,-142.8932 920.3465,-146.1116 920.1503,-139.1144"/>
</g>
<!-- Node67 -->
<g id="node13" class="node">
<title>Node67</title>
<g id="a_node13"><a xlink:href="receivecoinsdialog_8cpp.html" target="_top" xlink:title="src/qt/receivecoinsdialog.cpp">
<polygon fill="#ffffff" stroke="#000000" points="1705,-73 1705,-92 1848,-92 1848,-73 1705,-73"/>
<text text-anchor="middle" x="1776.5" y="-80" font-family="Helvetica,sans-Serif" font-size="10.00" fill="#000000">src/qt/receivecoinsdialog.cpp</text>
</a>
</g>
</g>
<!-- Node61&#45;&gt;Node67 -->
<g id="edge12" class="edge">
<title>Node61&#45;&gt;Node67</title>
<path fill="none" stroke="#191970" d="M920.2985,-143.4671C1056.082,-141.6363 1405.8234,-133.552 1695.5,-98 1707.5794,-96.5175 1720.5671,-94.3107 1732.5283,-92.024"/>
<polygon fill="#191970" stroke="#191970" points="920.0809,-139.9695 910.1267,-143.5978 920.1709,-146.9689 920.0809,-139.9695"/>
</g>
<!-- Node68 -->
<g id="node14" class="node">
<title>Node68</title>
<g id="a_node14"><a xlink:href="signverifymessagedialog_8cpp.html" target="_top" xlink:title="src/qt/signverifymessagedialog.cpp">
<polygon fill="#ffffff" stroke="#000000" points="1866.5,-73 1866.5,-92 2036.5,-92 2036.5,-73 1866.5,-73"/>
<text text-anchor="middle" x="1951.5" y="-80" font-family="Helvetica,sans-Serif" font-size="10.00" fill="#000000">src/qt/signverifymessagedialog.cpp</text>
</a>
</g>
</g>
<!-- Node61&#45;&gt;Node68 -->
<g id="edge13" class="edge">
<title>Node61&#45;&gt;Node68</title>
<path fill="none" stroke="#191970" d="M920.2602,-142.2214C1104.0267,-136.4224 1673.838,-117.3205 1857.5,-98 1871.4817,-96.5292 1886.5417,-94.3263 1900.4225,-92.0396"/>
<polygon fill="#191970" stroke="#191970" points="920.1418,-138.7233 910.2568,-142.536 920.3619,-145.7199 920.1418,-138.7233"/>
</g>
<!-- Node69 -->
<g id="node15" class="node">
<title>Node69</title>
<g id="a_node15"><a xlink:href="walletmodel_8cpp.html" target="_top" xlink:title="src/qt/walletmodel.cpp">
<polygon fill="#ffffff" stroke="#000000" points="830,-6 830,-25 945,-25 945,-6 830,-6"/>
<text text-anchor="middle" x="887.5" y="-13" font-family="Helvetica,sans-Serif" font-size="10.00" fill="#000000">src/qt/walletmodel.cpp</text>
</a>
</g>
</g>
<!-- Node61&#45;&gt;Node69 -->
<g id="edge15" class="edge">
<title>Node61&#45;&gt;Node69</title>
<path fill="none" stroke="#191970" d="M853.8643,-125.042C847.8769,-109.2186 842.0406,-86.2294 848.5,-67 854.0713,-50.4147 867.3347,-34.9188 876.8467,-25.3434"/>
<polygon fill="#191970" stroke="#191970" points="850.6351,-126.3923 857.693,-134.294 857.1032,-123.7156 850.6351,-126.3923"/>
</g>
<!-- Node70 -->
<g id="node16" class="node">
<title>Node70</title>
<g id="a_node16"><a xlink:href="coincontrol_8h.html" target="_top" xlink:title="src/wallet/coincontrol.h">
<polygon fill="#ffffff" stroke="#000000" points="394,-73 394,-92 511,-92 511,-73 394,-73"/>
<text text-anchor="middle" x="452.5" y="-80" font-family="Helvetica,sans-Serif" font-size="10.00" fill="#000000">src/wallet/coincontrol.h</text>
</a>
</g>
</g>
<!-- Node61&#45;&gt;Node70 -->
<g id="edge16" class="edge">
<title>Node61&#45;&gt;Node70</title>
<path fill="none" stroke="#191970" d="M804.7012,-137.9283C736.314,-130.3569 619.1524,-116.1676 519.5,-98 510.221,-96.3083 500.2885,-94.1847 490.9894,-92.0568"/>
<polygon fill="#191970" stroke="#191970" points="804.5161,-141.4289 814.8385,-139.0416 805.2804,-134.4708 804.5161,-141.4289"/>
</g>
<!-- Node72 -->
<g id="node18" class="node">
<title>Node72</title>
<g id="a_node18"><a xlink:href="feebumper_8cpp.html" target="_top" xlink:title="src/wallet/feebumper.cpp">
<polygon fill="#ffffff" stroke="#000000" points="137.5,-6 137.5,-25 263.5,-25 263.5,-6 137.5,-6"/>
<text text-anchor="middle" x="200.5" y="-13" font-family="Helvetica,sans-Serif" font-size="10.00" fill="#000000">src/wallet/feebumper.cpp</text>
</a>
</g>
</g>
<!-- Node61&#45;&gt;Node72 -->
<g id="edge26" class="edge">
<title>Node61&#45;&gt;Node72</title>
<path fill="none" stroke="#191970" d="M804.6494,-141.9523C688.2812,-137.3274 429.8213,-124.3624 345.5,-98 292.4245,-81.4064 237.3997,-43.2969 213.2046,-25.2793"/>
<polygon fill="#191970" stroke="#191970" points="804.6597,-145.4553 814.7888,-142.3484 804.933,-138.4606 804.6597,-145.4553"/>
</g>
<!-- Node73 -->
<g id="node19" class="node">
<title>Node73</title>
<g id="a_node19"><a xlink:href="wallet_2fees_8cpp.html" target="_top" xlink:title="src/wallet/fees.cpp">
<polygon fill="#ffffff" stroke="#000000" points="282,-6 282,-25 381,-25 381,-6 282,-6"/>
<text text-anchor="middle" x="331.5" y="-13" font-family="Helvetica,sans-Serif" font-size="10.00" fill="#000000">src/wallet/fees.cpp</text>
</a>
</g>
</g>
<!-- Node61&#45;&gt;Node73 -->
<g id="edge27" class="edge">
<title>Node61&#45;&gt;Node73</title>
<path fill="none" stroke="#191970" d="M804.4952,-141.6251C682.8756,-136.2039 409.4908,-121.5376 374.5,-98 348.7688,-80.6911 337.4469,-42.9393 333.3941,-25.1452"/>
<polygon fill="#191970" stroke="#191970" points="804.5886,-145.1325 814.7328,-142.0756 804.8964,-138.1393 804.5886,-145.1325"/>
</g>
<!-- Node74 -->
<g id="node20" class="node">
<title>Node74</title>
<g id="a_node20"><a xlink:href="coinselector__tests_8cpp.html" target="_top" xlink:title="src/wallet/test/coinselector\l_tests.cpp">
<polygon fill="#ffffff" stroke="#000000" points="963.5,-.5 963.5,-30.5 1097.5,-30.5 1097.5,-.5 963.5,-.5"/>
<text text-anchor="start" x="971.5" y="-18.5" font-family="Helvetica,sans-Serif" font-size="10.00" fill="#000000">src/wallet/test/coinselector</text>
<text text-anchor="middle" x="1030.5" y="-7.5" font-family="Helvetica,sans-Serif" font-size="10.00" fill="#000000">_tests.cpp</text>
</a>
</g>
</g>
<!-- Node61&#45;&gt;Node74 -->
<g id="edge32" class="edge">
<title>Node61&#45;&gt;Node74</title>
<path fill="none" stroke="#191970" d="M862.3467,-124.3252C863.2624,-107.1503 867.2586,-82.598 881.5,-67 893.726,-53.6094 933.2114,-40.284 968.4632,-30.5434"/>
<polygon fill="#191970" stroke="#191970" points="858.8465,-124.2994 862.1131,-134.378 865.8446,-124.4621 858.8465,-124.2994"/>
</g>
<!-- Node75 -->
<g id="node21" class="node">
<title>Node75</title>
<g id="a_node21"><a xlink:href="wallet__tests_8cpp.html" target="_top" xlink:title="src/wallet/test/wallet\l_tests.cpp">
<polygon fill="#ffffff" stroke="#000000" points="1313,-.5 1313,-30.5 1420,-30.5 1420,-.5 1313,-.5"/>
<text text-anchor="start" x="1321" y="-18.5" font-family="Helvetica,sans-Serif" font-size="10.00" fill="#000000">src/wallet/test/wallet</text>
<text text-anchor="middle" x="1366.5" y="-7.5" font-family="Helvetica,sans-Serif" font-size="10.00" fill="#000000">_tests.cpp</text>
</a>
</g>
</g>
<!-- Node61&#45;&gt;Node75 -->
<g id="edge38" class="edge">
<title>Node61&#45;&gt;Node75</title>
<path fill="none" stroke="#191970" d="M920.5013,-142.2134C1042.0462,-137.9416 1314.8846,-125.3872 1346.5,-98 1365.7712,-81.3061 1368.1298,-49.4989 1367.6334,-30.6288"/>
<polygon fill="#191970" stroke="#191970" points="920.1426,-138.7236 910.2691,-142.566 920.3837,-145.7194 920.1426,-138.7236"/>
</g>
<!-- Node76 -->
<g id="node22" class="node">
<title>Node76</title>
<g id="a_node22"><a xlink:href="wallet_2wallet_8cpp.html" target="_top" xlink:title="src/wallet/wallet.cpp">
<polygon fill="#ffffff" stroke="#000000" points="399.5,-6 399.5,-25 505.5,-25 505.5,-6 399.5,-6"/>
<text text-anchor="middle" x="452.5" y="-13" font-family="Helvetica,sans-Serif" font-size="10.00" fill="#000000">src/wallet/wallet.cpp</text>
</a>
</g>
</g>
<!-- Node61&#45;&gt;Node76 -->
<g id="edge39" class="edge">
<title>Node61&#45;&gt;Node76</title>
<path fill="none" stroke="#191970" d="M804.6913,-142.7014C683.6248,-139.3831 412.2792,-128.5808 384.5,-98 361.4115,-72.5829 407.2049,-40.8173 434.3818,-25.1524"/>
<polygon fill="#191970" stroke="#191970" points="804.7947,-146.2053 814.8843,-142.9728 804.9811,-139.2078 804.7947,-146.2053"/>
</g>
<!-- Node77 -->
<g id="node23" class="node">
<title>Node77</title>
<g id="a_node23"><a xlink:href="wallet_2init_8cpp.html" target="_top" xlink:title="src/wallet/init.cpp">
<polygon fill="#ffffff" stroke="#000000" points="529,-73 529,-92 622,-92 622,-73 529,-73"/>
<text text-anchor="middle" x="575.5" y="-80" font-family="Helvetica,sans-Serif" font-size="10.00" fill="#000000">src/wallet/init.cpp</text>
</a>
</g>
</g>
<!-- Node61&#45;&gt;Node77 -->
<g id="edge28" class="edge">
<title>Node61&#45;&gt;Node77</title>
<path fill="none" stroke="#191970" d="M804.9694,-133.7584C758.0791,-125.1198 690.2468,-111.9595 631.5,-98 623.9428,-96.2043 615.8655,-94.0865 608.2646,-92.0029"/>
<polygon fill="#191970" stroke="#191970" points="804.474,-137.2258 814.9411,-135.5855 805.7356,-130.3404 804.474,-137.2258"/>
</g>
<!-- Node78 -->
<g id="node24" class="node">
<title>Node78</title>
<g id="a_node24"><a xlink:href="rpcdump_8cpp.html" target="_top" xlink:title="src/wallet/rpcdump.cpp">
<polygon fill="#ffffff" stroke="#000000" points="640.5,-73 640.5,-92 758.5,-92 758.5,-73 640.5,-73"/>
<text text-anchor="middle" x="699.5" y="-80" font-family="Helvetica,sans-Serif" font-size="10.00" fill="#000000">src/wallet/rpcdump.cpp</text>
</a>
</g>
</g>
<!-- Node61&#45;&gt;Node78 -->
<g id="edge29" class="edge">
<title>Node61&#45;&gt;Node78</title>
<path fill="none" stroke="#191970" d="M827.5129,-130.7993C796.6289,-119.1468 752.3496,-102.4402 724.7899,-92.0419"/>
<polygon fill="#191970" stroke="#191970" points="826.4395,-134.1351 837.0313,-134.3906 828.9106,-127.5858 826.4395,-134.1351"/>
</g>
<!-- Node79 -->
<g id="node25" class="node">
<title>Node79</title>
<g id="a_node25"><a xlink:href="accounting__tests_8cpp.html" target="_top" xlink:title="src/wallet/test/accounting\l_tests.cpp">
<polygon fill="#ffffff" stroke="#000000" points="1452.5,-.5 1452.5,-30.5 1580.5,-30.5 1580.5,-.5 1452.5,-.5"/>
<text text-anchor="start" x="1460.5" y="-18.5" font-family="Helvetica,sans-Serif" font-size="10.00" fill="#000000">src/wallet/test/accounting</text>
<text text-anchor="middle" x="1516.5" y="-7.5" font-family="Helvetica,sans-Serif" font-size="10.00" fill="#000000">_tests.cpp</text>
</a>
</g>
</g>
<!-- Node61&#45;&gt;Node79 -->
<g id="edge31" class="edge">
<title>Node61&#45;&gt;Node79</title>
<path fill="none" stroke="#191970" d="M920.4491,-141.9272C1075.5375,-136.1108 1489.7622,-118.702 1510.5,-98 1527.981,-80.5492 1524.6804,-49.3061 1520.6323,-30.6817"/>
<polygon fill="#191970" stroke="#191970" points="920.0398,-138.44 910.177,-142.3097 920.3003,-145.4351 920.0398,-138.44"/>
</g>
<!-- Node80 -->
<g id="node26" class="node">
<title>Node80</title>
<g id="a_node26"><a xlink:href="wallet__test__fixture_8h.html" target="_top" xlink:title="src/wallet/test/wallet\l_test_fixture.h">
<polygon fill="#ffffff" stroke="#000000" points="1395,-67.5 1395,-97.5 1502,-97.5 1502,-67.5 1395,-67.5"/>
<text text-anchor="start" x="1403" y="-85.5" font-family="Helvetica,sans-Serif" font-size="10.00" fill="#000000">src/wallet/test/wallet</text>
<text text-anchor="middle" x="1448.5" y="-74.5" font-family="Helvetica,sans-Serif" font-size="10.00" fill="#000000">_test_fixture.h</text>
</a>
</g>
</g>
<!-- Node61&#45;&gt;Node80 -->
<g id="edge33" class="edge">
<title>Node61&#45;&gt;Node80</title>
<path fill="none" stroke="#191970" d="M920.3422,-141.4258C1016.3915,-136.5789 1214.6426,-124.1437 1380.5,-98 1385.1647,-97.2647 1389.9863,-96.3937 1394.8087,-95.4455"/>
<polygon fill="#191970" stroke="#191970" points="920.071,-137.9349 910.2565,-141.9257 920.4175,-144.9263 920.071,-137.9349"/>
</g>
<!-- Node61&#45;&gt;Node81 -->
<g id="edge40" class="edge">
<title>Node61&#45;&gt;Node81</title>
<path fill="none" stroke="#191970" d="M920.1681,-143.1973C1126.0171,-140.1074 1824.1275,-127.6409 2045.5,-98 2055.7952,-96.6215 2066.831,-94.3898 2076.9149,-92.044"/>
<polygon fill="#191970" stroke="#191970" points="920.1152,-139.6976 910.1683,-143.3458 920.2192,-146.6968 920.1152,-139.6976"/>
</g>
<!-- Node70&#45;&gt;Node60 -->
<g id="edge22" class="edge">
<title>Node70&#45;&gt;Node60</title>
<path fill="none" stroke="#191970" d="M383.5387,-72.8316C317.795,-63.3091 216.1118,-47.786 128.5,-31 119.2151,-29.2211 109.2732,-27.11 99.9096,-25.0275"/>
<polygon fill="#191970" stroke="#191970" points="383.3767,-76.3443 393.7739,-74.3076 384.3759,-69.416 383.3767,-76.3443"/>
</g>
<!-- Node70&#45;&gt;Node65 -->
<g id="edge17" class="edge">
<title>Node70&#45;&gt;Node65</title>
<path fill="none" stroke="#191970" d="M503.3477,-70.7291C508.7999,-69.4692 514.2648,-68.2074 519.5,-67 583.0734,-52.3383 656.8117,-35.3977 701.7991,-25.0696"/>
<polygon fill="#191970" stroke="#191970" points="502.5548,-67.32 493.6001,-72.9825 504.1315,-74.1401 502.5548,-67.32"/>
</g>
<!-- Node70&#45;&gt;Node69 -->
<g id="edge19" class="edge">
<title>Node70&#45;&gt;Node69</title>
<path fill="none" stroke="#191970" d="M500.4977,-70.7359C506.866,-69.3691 513.3257,-68.0801 519.5,-67 652.2156,-43.7824 687.7844,-54.2176 820.5,-31 829.9084,-29.3541 839.9796,-27.2232 849.3804,-25.0711"/>
<polygon fill="#191970" stroke="#191970" points="499.6233,-67.3447 490.6196,-72.9289 501.1405,-74.1783 499.6233,-67.3447"/>
</g>
<!-- Node71 -->
<g id="node17" class="node">
<title>Node71</title>
<g id="a_node17"><a xlink:href="sendcoinsdialog_8cpp.html" target="_top" xlink:title="src/qt/sendcoinsdialog.cpp">
<polygon fill="#ffffff" stroke="#000000" points="524,-6 524,-25 657,-25 657,-6 524,-6"/>
<text text-anchor="middle" x="590.5" y="-13" font-family="Helvetica,sans-Serif" font-size="10.00" fill="#000000">src/qt/sendcoinsdialog.cpp</text>
</a>
</g>
</g>
<!-- Node70&#45;&gt;Node71 -->
<g id="edge18" class="edge">
<title>Node70&#45;&gt;Node71</title>
<path fill="none" stroke="#191970" d="M481.5391,-68.4013C508.3406,-55.389 547.4166,-36.4173 570.7646,-25.0817"/>
<polygon fill="#191970" stroke="#191970" points="479.7392,-65.3844 472.272,-72.9005 482.7965,-71.6815 479.7392,-65.3844"/>
</g>
<!-- Node70&#45;&gt;Node72 -->
<g id="edge20" class="edge">
<title>Node70&#45;&gt;Node72</title>
<path fill="none" stroke="#191970" d="M406.9793,-70.3973C358.1233,-57.4078 281.5051,-37.0371 236.6222,-25.1039"/>
<polygon fill="#191970" stroke="#191970" points="406.0986,-73.7846 416.6622,-72.9717 407.8972,-67.0197 406.0986,-73.7846"/>
</g>
<!-- Node70&#45;&gt;Node73 -->
<g id="edge21" class="edge">
<title>Node70&#45;&gt;Node73</title>
<path fill="none" stroke="#191970" d="M426.105,-67.8846C402.639,-54.891 369.0066,-36.2681 348.8042,-25.0817"/>
<polygon fill="#191970" stroke="#191970" points="424.7198,-71.1183 435.1637,-72.9005 428.1107,-64.9944 424.7198,-71.1183"/>
</g>
<!-- Node70&#45;&gt;Node74 -->
<g id="edge23" class="edge">
<title>Node70&#45;&gt;Node74</title>
<path fill="none" stroke="#191970" d="M499.7458,-70.6736C506.3508,-69.2829 513.0749,-68.0043 519.5,-67 710.7294,-37.1096 761.8614,-58.1433 953.5,-31 956.7403,-30.541 960.0499,-30.0319 963.3872,-29.486"/>
<polygon fill="#191970" stroke="#191970" points="498.536,-67.3563 489.5246,-72.9281 500.0438,-74.192 498.536,-67.3563"/>
</g>
<!-- Node70&#45;&gt;Node75 -->
<g id="edge24" class="edge">
<title>Node70&#45;&gt;Node75</title>
<path fill="none" stroke="#191970" d="M498.7658,-70.7422C505.6808,-69.2921 512.7522,-67.9787 519.5,-67 529.3639,-65.5693 1128.33,-29.725 1312.9324,-18.6977"/>
<polygon fill="#191970" stroke="#191970" points="497.813,-67.3682 488.8025,-72.9415 499.3219,-74.2036 497.813,-67.3682"/>
</g>
<!-- Node70&#45;&gt;Node76 -->
<g id="edge25" class="edge">
<title>Node70&#45;&gt;Node76</title>
<path fill="none" stroke="#191970" d="M452.5,-62.6079C452.5,-50.214 452.5,-34.8263 452.5,-25.0817"/>
<polygon fill="#191970" stroke="#191970" points="449.0001,-62.9005 452.5,-72.9005 456.0001,-62.9006 449.0001,-62.9005"/>
</g>
<!-- Node80&#45;&gt;Node58 -->
<g id="edge36" class="edge">
<title>Node80&#45;&gt;Node58</title>
<path fill="none" stroke="#191970" d="M1512.3983,-72.5341C1524.7053,-70.6598 1537.4989,-68.7426 1549.5,-67 1664.258,-50.3363 1798.9425,-32.2434 1871.9135,-22.5626"/>
<polygon fill="#191970" stroke="#191970" points="1511.5586,-69.1217 1502.2028,-74.0936 1512.6171,-76.0413 1511.5586,-69.1217"/>
</g>
<!-- Node80&#45;&gt;Node74 -->
<g id="edge35" class="edge">
<title>Node80&#45;&gt;Node74</title>
<path fill="none" stroke="#191970" d="M1384.5799,-72.2544C1306.938,-59.8094 1176.5716,-38.9134 1097.5457,-26.2466"/>
<polygon fill="#191970" stroke="#191970" points="1384.2816,-75.7512 1394.7095,-73.8781 1385.3895,-68.8394 1384.2816,-75.7512"/>
</g>
<!-- Node80&#45;&gt;Node75 -->
<g id="edge37" class="edge">
<title>Node80&#45;&gt;Node75</title>
<path fill="none" stroke="#191970" d="M1421.9183,-60.7808C1409.8722,-50.9383 1395.9233,-39.541 1385.0334,-30.6432"/>
<polygon fill="#191970" stroke="#191970" points="1419.9346,-63.6797 1429.8929,-67.2967 1424.3637,-58.2591 1419.9346,-63.6797"/>
</g>
<!-- Node80&#45;&gt;Node79 -->
<g id="edge34" class="edge">
<title>Node80&#45;&gt;Node79</title>
<path fill="none" stroke="#191970" d="M1471.1214,-60.2113C1480.9767,-50.5009 1492.2739,-39.3698 1501.1308,-30.6432"/>
<polygon fill="#191970" stroke="#191970" points="1468.597,-57.785 1463.9303,-67.2967 1473.51,-62.7713 1468.597,-57.785"/>
</g>
</g>
</svg>
