<?xml version="1.0" encoding="UTF-8" standalone="no"?>
<!DOCTYPE svg PUBLIC "-//W3C//DTD SVG 1.1//EN"
 "http://www.w3.org/Graphics/SVG/1.1/DTD/svg11.dtd">
<!-- Generated by graphviz version 2.49.3 (0)
 -->
<!-- Title: src/secp256k1/src/modules Pages: 1 -->
<svg width="434pt" height="159pt"
 viewBox="0.00 0.00 434.00 159.00" xmlns="http://www.w3.org/2000/svg" xmlns:xlink="http://www.w3.org/1999/xlink">
<g id="graph0" class="graph" transform="scale(1 1) rotate(0) translate(4 155)">
<title>src/secp256k1/src/modules</title>
<polygon fill="white" stroke="transparent" points="-4,4 -4,-155 430,-155 430,4 -4,4"/>
<g id="clust1" class="cluster">
<title>clusterdir_8db2ef784512d48b2a7d00369dfaac28</title>
<g id="a_clust1"><a xlink:href="dir_8db2ef784512d48b2a7d00369dfaac28.html" target="_top" xlink:title="src">
<polygon fill="#ddddee" stroke="black" points="8,-56 8,-143 418,-143 418,-56 8,-56"/>
<text text-anchor="middle" x="213" y="-131" font-family="Helvetica,sans-Serif" font-size="10.00">src</text>
</a>
</g>
</g>
<g id="clust2" class="cluster">
<title>clusterdir_403fe05abfd2d392aa3c0b8c300f7bf6</title>
<g id="a_clust2"><a xlink:href="dir_403fe05abfd2d392aa3c0b8c300f7bf6.html" target="_top">
<polygon fill="#eeeeff" stroke="black" points="16,-64 16,-116 410,-116 410,-64 16,-64"/>
</a>
</g>
</g>
<!-- dir_403fe05abfd2d392aa3c0b8c300f7bf6 -->
<g id="node1" class="node">
<title>dir_403fe05abfd2d392aa3c0b8c300f7bf6</title>
<text text-anchor="middle" x="372" y="-87.5" font-family="Helvetica,sans-Serif" font-size="10.00">modules</text>
</g>
<!-- dir_bcb1f3910925b7851a7694c76e379388 -->
<g id="node2" class="node">
<title>dir_bcb1f3910925b7851a7694c76e379388</title>
<g id="a_node2"><a xlink:href="dir_bcb1f3910925b7851a7694c76e379388.html" target="_top" xlink:title="ecdh">
<polygon fill="white" stroke="black" points="324,-108 270,-108 270,-72 324,-72 324,-108"/>
<text text-anchor="middle" x="297" y="-87.5" font-family="Helvetica,sans-Serif" font-size="10.00">ecdh</text>
</a>
</g>
</g>
<!-- dir_1b4df0b9bba47cf333db333897c5a5a4 -->
<g id="node6" class="node">
<title>dir_1b4df0b9bba47cf333db333897c5a5a4</title>
<g id="a_node6"><a xlink:href="dir_1b4df0b9bba47cf333db333897c5a5a4.html" target="_top" xlink:title="include">
<polygon fill="none" stroke="black" points="206,-36 152,-36 152,0 206,0 206,-36"/>
<text text-anchor="middle" x="179" y="-15.5" font-family="Helvetica,sans-Serif" font-size="10.00">include</text>
</a>
</g>
</g>
<!-- dir_bcb1f3910925b7851a7694c76e379388&#45;&gt;dir_1b4df0b9bba47cf333db333897c5a5a4 -->
<g id="edge4" class="edge">
<title>dir_bcb1f3910925b7851a7694c76e379388&#45;&gt;dir_1b4df0b9bba47cf333db333897c5a5a4</title>
<path fill="none" stroke="black" d="M280.35,-71.69C274.56,-66.24 267.8,-60.48 261,-56 246.99,-46.76 230.29,-38.76 215.63,-32.58"/>
<polygon fill="black" stroke="black" points="216.92,-29.33 206.34,-28.79 214.28,-35.81 216.92,-29.33"/>
<g id="a_edge4&#45;headlabel"><a xlink:href="dir_000041_000039.html" target="_top" xlink:title="1">
<text text-anchor="middle" x="221.32" y="-25.56" font-family="Helvetica,sans-Serif" font-size="10.00">1</text>
</a>
</g>
</g>
<!-- dir_b68a39d9adc98a0639234b8b172f8281 -->
<g id="node3" class="node">
<title>dir_b68a39d9adc98a0639234b8b172f8281</title>
<g id="a_node3"><a xlink:href="dir_b68a39d9adc98a0639234b8b172f8281.html" target="_top" xlink:title="extrakeys">
<polygon fill="white" stroke="black" points="251.5,-108 186.5,-108 186.5,-72 251.5,-72 251.5,-108"/>
<text text-anchor="middle" x="219" y="-87.5" font-family="Helvetica,sans-Serif" font-size="10.00">extrakeys</text>
</a>
</g>
</g>
<!-- dir_b68a39d9adc98a0639234b8b172f8281&#45;&gt;dir_1b4df0b9bba47cf333db333897c5a5a4 -->
<g id="edge3" class="edge">
<title>dir_b68a39d9adc98a0639234b8b172f8281&#45;&gt;dir_1b4df0b9bba47cf333db333897c5a5a4</title>
<path fill="none" stroke="black" d="M209.11,-71.7C204.51,-63.64 198.94,-53.89 193.85,-44.98"/>
<polygon fill="black" stroke="black" points="196.77,-43.05 188.77,-36.1 190.7,-46.52 196.77,-43.05"/>
<g id="a_edge3&#45;headlabel"><a xlink:href="dir_000042_000039.html" target="_top" xlink:title="4">
<text text-anchor="middle" x="201.02" y="-42.26" font-family="Helvetica,sans-Serif" font-size="10.00">4</text>
</a>
</g>
</g>
<!-- dir_27f6b90a2e23ffca0ad215073d764470 -->
<g id="node4" class="node">
<title>dir_27f6b90a2e23ffca0ad215073d764470</title>
<g id="a_node4"><a xlink:href="dir_27f6b90a2e23ffca0ad215073d764470.html" target="_top" xlink:title="recovery">
<polygon fill="white" stroke="black" points="168.5,-108 109.5,-108 109.5,-72 168.5,-72 168.5,-108"/>
<text text-anchor="middle" x="139" y="-87.5" font-family="Helvetica,sans-Serif" font-size="10.00">recovery</text>
</a>
</g>
</g>
<!-- dir_27f6b90a2e23ffca0ad215073d764470&#45;&gt;dir_1b4df0b9bba47cf333db333897c5a5a4 -->
<g id="edge1" class="edge">
<title>dir_27f6b90a2e23ffca0ad215073d764470&#45;&gt;dir_1b4df0b9bba47cf333db333897c5a5a4</title>
<path fill="none" stroke="black" d="M148.89,-71.7C153.49,-63.64 159.06,-53.89 164.15,-44.98"/>
<polygon fill="black" stroke="black" points="167.3,-46.52 169.23,-36.1 161.23,-43.05 167.3,-46.52"/>
<g id="a_edge1&#45;headlabel"><a xlink:href="dir_000043_000039.html" target="_top" xlink:title="2">
<text text-anchor="middle" x="167.99" y="-48.55" font-family="Helvetica,sans-Serif" font-size="10.00">2</text>
</a>
</g>
</g>
<!-- dir_ab996d31fbe6f08bc000dc8dbcb734ee -->
<g id="node5" class="node">
<title>dir_ab996d31fbe6f08bc000dc8dbcb734ee</title>
<g id="a_node5"><a xlink:href="dir_ab996d31fbe6f08bc000dc8dbcb734ee.html" target="_top" xlink:title="schnorrsig">
<polygon fill="white" stroke="black" points="91.5,-108 24.5,-108 24.5,-72 91.5,-72 91.5,-108"/>
<text text-anchor="middle" x="58" y="-87.5" font-family="Helvetica,sans-Serif" font-size="10.00">schnorrsig</text>
</a>
</g>
</g>
<!-- dir_ab996d31fbe6f08bc000dc8dbcb734ee&#45;&gt;dir_1b4df0b9bba47cf333db333897c5a5a4 -->
<g id="edge2" class="edge">
<title>dir_ab996d31fbe6f08bc000dc8dbcb734ee&#45;&gt;dir_1b4df0b9bba47cf333db333897c5a5a4</title>
<path fill="none" stroke="black" d="M78.36,-71.96C85.32,-66.53 93.29,-60.71 101,-56 114.07,-48.01 129.13,-40.5 142.52,-34.37"/>
<polygon fill="black" stroke="black" points="144.22,-37.44 151.91,-30.15 141.36,-31.05 144.22,-37.44"/>
<g id="a_edge2&#45;headlabel"><a xlink:href="dir_000044_000039.html" target="_top" xlink:title="4">
<text text-anchor="middle" x="142.1" y="-39" font-family="Helvetica,sans-Serif" font-size="10.00">4</text>
</a>
</g>
</g>
</g>
</svg>
