<?xml version="1.0" encoding="UTF-8" standalone="no"?>
<!DOCTYPE svg PUBLIC "-//W3C//DTD SVG 1.1//EN"
 "http://www.w3.org/Graphics/SVG/1.1/DTD/svg11.dtd">
<!-- Generated by graphviz version 2.49.3 (0)
 -->
<!-- Title: secp256k1_ecmult_gen_blind Pages: 1 -->
<svg width="1032pt" height="614pt"
 viewBox="0.00 0.00 1032.00 614.00" xmlns="http://www.w3.org/2000/svg" xmlns:xlink="http://www.w3.org/1999/xlink">
<g id="graph0" class="graph" transform="scale(1 1) rotate(0) translate(4 610)">
<title>secp256k1_ecmult_gen_blind</title>
<polygon fill="white" stroke="transparent" points="-4,4 -4,-610 1028,-610 1028,4 -4,4"/>
<!-- Node1 -->
<g id="node1" class="node">
<title>Node1</title>
<g id="a_node1"><a xlink:title=" ">
<polygon fill="#bfbfbf" stroke="black" points="893,-44.5 893,-74.5 1024,-74.5 1024,-44.5 893,-44.5"/>
<text text-anchor="start" x="901" y="-62.5" font-family="Helvetica,sans-Serif" font-size="10.00">secp256k1_ecmult_gen</text>
<text text-anchor="middle" x="958.5" y="-51.5" font-family="Helvetica,sans-Serif" font-size="10.00">_blind</text>
</a>
</g>
</g>
<!-- Node2 -->
<g id="node2" class="node">
<title>Node2</title>
<g id="a_node2"><a xlink:href="secp256k1_8c.html#aba25f5f986a05a1cd06f5452b26ff868" target="_top" xlink:title="Updates the context randomization to protect against side&#45;channel leakage.">
<polygon fill="white" stroke="black" points="689,-88 689,-107 857,-107 857,-88 689,-88"/>
<text text-anchor="middle" x="773" y="-95" font-family="Helvetica,sans-Serif" font-size="10.00">secp256k1_context_randomize</text>
</a>
</g>
</g>
<!-- Node1&#45;&gt;Node2 -->
<g id="edge1" class="edge">
<title>Node1&#45;&gt;Node2</title>
<path fill="none" stroke="midnightblue" d="M882.81,-74.97C861.53,-79.37 838.99,-84.04 819.97,-87.98"/>
<polygon fill="midnightblue" stroke="midnightblue" points="883.72,-78.35 892.8,-72.9 882.3,-71.5 883.72,-78.35"/>
</g>
<!-- Node23 -->
<g id="node23" class="node">
<title>Node23</title>
<g id="a_node23"><a xlink:href="tests_8c.html#ab353fbc77d15cd48e25d995ea3f33795" target="_top" xlink:title=" ">
<polygon fill="white" stroke="black" points="709.5,-50 709.5,-69 836.5,-69 836.5,-50 709.5,-50"/>
<text text-anchor="middle" x="773" y="-57" font-family="Helvetica,sans-Serif" font-size="10.00">test_ecmult_gen_blind</text>
</a>
</g>
</g>
<!-- Node1&#45;&gt;Node23 -->
<g id="edge23" class="edge">
<title>Node1&#45;&gt;Node23</title>
<path fill="none" stroke="midnightblue" d="M882.39,-59.5C867.16,-59.5 851.31,-59.5 836.57,-59.5"/>
<polygon fill="midnightblue" stroke="midnightblue" points="882.8,-63 892.8,-59.5 882.8,-56 882.8,-63"/>
</g>
<!-- Node25 -->
<g id="node25" class="node">
<title>Node25</title>
<g id="a_node25"><a xlink:href="tests_8c.html#a375b2994cf6e867644abdf5ae3f93abe" target="_top" xlink:title=" ">
<polygon fill="white" stroke="black" points="709.5,-0.5 709.5,-30.5 836.5,-30.5 836.5,-0.5 709.5,-0.5"/>
<text text-anchor="start" x="717.5" y="-18.5" font-family="Helvetica,sans-Serif" font-size="10.00">test_ecmult_gen_blind</text>
<text text-anchor="middle" x="773" y="-7.5" font-family="Helvetica,sans-Serif" font-size="10.00">_reset</text>
</a>
</g>
</g>
<!-- Node1&#45;&gt;Node25 -->
<g id="edge26" class="edge">
<title>Node1&#45;&gt;Node25</title>
<path fill="none" stroke="midnightblue" d="M885.03,-42.12C869.04,-38.29 852.23,-34.26 836.67,-30.53"/>
<polygon fill="midnightblue" stroke="midnightblue" points="884.32,-45.55 894.86,-44.48 885.95,-38.75 884.32,-45.55"/>
</g>
<!-- Node3 -->
<g id="node3" class="node">
<title>Node3</title>
<g id="a_node3"><a xlink:href="key_8cpp.html#ae4d2893f2f5af1cca247516578171860" target="_top" xlink:title="Initialize the elliptic curve support.">
<polygon fill="white" stroke="black" points="558.5,-297 558.5,-316 623.5,-316 623.5,-297 558.5,-297"/>
<text text-anchor="middle" x="591" y="-304" font-family="Helvetica,sans-Serif" font-size="10.00">ECC_Start</text>
</a>
</g>
</g>
<!-- Node2&#45;&gt;Node3 -->
<g id="edge2" class="edge">
<title>Node2&#45;&gt;Node3</title>
<path fill="none" stroke="midnightblue" d="M757.12,-114.77C720.78,-156.98 628.38,-264.26 600.25,-296.92"/>
<polygon fill="midnightblue" stroke="midnightblue" points="759.92,-116.88 763.8,-107.02 754.62,-112.32 759.92,-116.88"/>
</g>
<!-- Node21 -->
<g id="node21" class="node">
<title>Node21</title>
<g id="a_node21"><a xlink:href="tests_8c.html#a3c04138a5bfe5d72780bb7e82a18e627" target="_top" xlink:title=" ">
<polygon fill="white" stroke="black" points="384.5,-31 384.5,-50 425.5,-50 425.5,-31 384.5,-31"/>
<text text-anchor="middle" x="405" y="-38" font-family="Helvetica,sans-Serif" font-size="10.00">main</text>
</a>
</g>
</g>
<!-- Node2&#45;&gt;Node21 -->
<g id="edge20" class="edge">
<title>Node2&#45;&gt;Node21</title>
<path fill="none" stroke="midnightblue" d="M678.73,-99.02C632.84,-97.55 577.18,-92.45 529,-78.5 511.62,-73.47 509.99,-65.71 493,-59.5 470.64,-51.33 443.7,-46.11 425.78,-43.25"/>
<polygon fill="midnightblue" stroke="midnightblue" points="678.87,-102.52 688.96,-99.29 679.06,-95.52 678.87,-102.52"/>
</g>
<!-- Node22 -->
<g id="node22" class="node">
<title>Node22</title>
<g id="a_node22"><a xlink:href="tests_8c.html#af55ae25ed3b9557cf2c08ffd454eef43" target="_top" xlink:title=" ">
<polygon fill="white" stroke="black" points="539,-50 539,-69 643,-69 643,-50 539,-50"/>
<text text-anchor="middle" x="591" y="-57" font-family="Helvetica,sans-Serif" font-size="10.00">run_context_tests</text>
</a>
</g>
</g>
<!-- Node2&#45;&gt;Node22 -->
<g id="edge21" class="edge">
<title>Node2&#45;&gt;Node22</title>
<path fill="none" stroke="midnightblue" d="M716.67,-85.82C691.14,-80.43 661.22,-74.11 637.09,-69.02"/>
<polygon fill="midnightblue" stroke="midnightblue" points="716.07,-89.27 726.58,-87.91 717.52,-82.42 716.07,-89.27"/>
</g>
<!-- Node4 -->
<g id="node4" class="node">
<title>Node4</title>
<g id="a_node4"><a xlink:href="struct_basic_testing_setup.html#a8684b845f50ef68c606ecf9213905b2c" target="_top" xlink:title=" ">
<polygon fill="white" stroke="black" points="349.5,-575.5 349.5,-605.5 460.5,-605.5 460.5,-575.5 349.5,-575.5"/>
<text text-anchor="start" x="357.5" y="-593.5" font-family="Helvetica,sans-Serif" font-size="10.00">BasicTestingSetup::</text>
<text text-anchor="middle" x="405" y="-582.5" font-family="Helvetica,sans-Serif" font-size="10.00">BasicTestingSetup</text>
</a>
</g>
</g>
<!-- Node3&#45;&gt;Node4 -->
<g id="edge3" class="edge">
<title>Node3&#45;&gt;Node4</title>
<path fill="none" stroke="midnightblue" d="M588.5,-326.22C583.76,-374.42 564.81,-499.12 493,-565.5 484,-573.82 472.41,-579.39 460.64,-583.12"/>
<polygon fill="midnightblue" stroke="midnightblue" points="591.99,-326.44 589.39,-316.17 585.02,-325.82 591.99,-326.44"/>
</g>
<!-- Node5 -->
<g id="node5" class="node">
<title>Node5</title>
<g id="a_node5"><a xlink:href="bench_2checkqueue_8cpp.html#a96f6bb751776a0e5c7e99d1d1c977dbb" target="_top" xlink:title=" ">
<polygon fill="white" stroke="black" points="317,-537 317,-556 493,-556 493,-537 317,-537"/>
<text text-anchor="middle" x="405" y="-544" font-family="Helvetica,sans-Serif" font-size="10.00">CCheckQueueSpeedPrevectorJob</text>
</a>
</g>
</g>
<!-- Node3&#45;&gt;Node5 -->
<g id="edge4" class="edge">
<title>Node3&#45;&gt;Node5</title>
<path fill="none" stroke="midnightblue" d="M587.38,-326.22C580.49,-369.78 557.72,-474.51 493,-527.5 488.33,-531.32 483.07,-534.42 477.5,-536.92"/>
<polygon fill="midnightblue" stroke="midnightblue" points="590.84,-326.72 588.83,-316.31 583.91,-325.7 590.84,-326.72"/>
</g>
<!-- Node6 -->
<g id="node6" class="node">
<title>Node6</title>
<g id="a_node6"><a xlink:href="ccoins__caching_8cpp.html#a7cfa90f8931bcd3cd2c261f996e904da" target="_top" xlink:title=" ">
<polygon fill="white" stroke="black" points="360.5,-499 360.5,-518 449.5,-518 449.5,-499 360.5,-499"/>
<text text-anchor="middle" x="405" y="-506" font-family="Helvetica,sans-Serif" font-size="10.00">CCoinsCaching</text>
</a>
</g>
</g>
<!-- Node3&#45;&gt;Node6 -->
<g id="edge5" class="edge">
<title>Node3&#45;&gt;Node6</title>
<path fill="none" stroke="midnightblue" d="M585.44,-326.16C575.58,-364.1 548.53,-447.36 493,-489.5 480.68,-498.85 464.72,-503.79 449.83,-506.34"/>
<polygon fill="midnightblue" stroke="midnightblue" points="588.87,-326.88 587.87,-316.34 582.08,-325.2 588.87,-326.88"/>
</g>
<!-- Node7 -->
<g id="node7" class="node">
<title>Node7</title>
<g id="a_node7"><a xlink:href="secp256k1__ecdsa__signature__parse__der__lax_8cpp.html#acb4ba76cfea14dcbc5db354e3591dd52" target="_top" xlink:title=" ">
<polygon fill="white" stroke="black" points="361.5,-461 361.5,-480 448.5,-480 448.5,-461 361.5,-461"/>
<text text-anchor="middle" x="405" y="-468" font-family="Helvetica,sans-Serif" font-size="10.00">FUZZ_TARGET</text>
</a>
</g>
</g>
<!-- Node3&#45;&gt;Node7 -->
<g id="edge6" class="edge">
<title>Node3&#45;&gt;Node7</title>
<path fill="none" stroke="midnightblue" d="M582.83,-325.54C569.95,-357.02 539.77,-419.63 493,-451.5 480.1,-460.29 463.83,-465.1 448.87,-467.71"/>
<polygon fill="midnightblue" stroke="midnightblue" points="586.13,-326.73 586.54,-316.14 579.61,-324.16 586.13,-326.73"/>
</g>
<!-- Node8 -->
<g id="node8" class="node">
<title>Node8</title>
<g id="a_node8"><a xlink:href="descriptor__parse_8cpp.html#ac8ccdb834b49ddf916b980ba24c44a1c" target="_top" xlink:title=" ">
<polygon fill="white" stroke="black" points="348.5,-411.5 348.5,-441.5 461.5,-441.5 461.5,-411.5 348.5,-411.5"/>
<text text-anchor="start" x="356.5" y="-429.5" font-family="Helvetica,sans-Serif" font-size="10.00">initialize_descriptor</text>
<text text-anchor="middle" x="405" y="-418.5" font-family="Helvetica,sans-Serif" font-size="10.00">_parse</text>
</a>
</g>
</g>
<!-- Node3&#45;&gt;Node8 -->
<g id="edge7" class="edge">
<title>Node3&#45;&gt;Node8</title>
<path fill="none" stroke="midnightblue" d="M576.66,-324.11C559.55,-345.48 527.91,-381.17 493,-401.5 483.36,-407.12 472.37,-411.54 461.53,-415"/>
<polygon fill="midnightblue" stroke="midnightblue" points="579.46,-326.2 582.87,-316.17 573.95,-321.89 579.46,-326.2"/>
</g>
<!-- Node9 -->
<g id="node9" class="node">
<title>Node9</title>
<g id="a_node9"><a xlink:href="test_2fuzz_2key_8cpp.html#a3cab216bbd0369c329b1d5c75e8e7078" target="_top" xlink:title=" ">
<polygon fill="white" stroke="black" points="364.5,-373 364.5,-392 445.5,-392 445.5,-373 364.5,-373"/>
<text text-anchor="middle" x="405" y="-380" font-family="Helvetica,sans-Serif" font-size="10.00">initialize_key</text>
</a>
</g>
</g>
<!-- Node3&#45;&gt;Node9 -->
<g id="edge8" class="edge">
<title>Node3&#45;&gt;Node9</title>
<path fill="none" stroke="midnightblue" d="M568.65,-321.74C549.64,-334.63 520.64,-352.68 493,-363.5 478.03,-369.36 460.86,-373.6 445.76,-376.56"/>
<polygon fill="midnightblue" stroke="midnightblue" points="570.64,-324.61 576.88,-316.05 566.66,-318.85 570.64,-324.61"/>
</g>
<!-- Node10 -->
<g id="node10" class="node">
<title>Node10</title>
<g id="a_node10"><a xlink:href="test_2fuzz_2key__io_8cpp.html#af0255247657a4f2787b3bbe601fe5766" target="_top" xlink:title=" ">
<polygon fill="white" stroke="black" points="357.5,-335 357.5,-354 452.5,-354 452.5,-335 357.5,-335"/>
<text text-anchor="middle" x="405" y="-342" font-family="Helvetica,sans-Serif" font-size="10.00">initialize_key_io</text>
</a>
</g>
</g>
<!-- Node3&#45;&gt;Node10 -->
<g id="edge9" class="edge">
<title>Node3&#45;&gt;Node10</title>
<path fill="none" stroke="midnightblue" d="M548.27,-315.12C519.61,-321.04 481.56,-328.89 452.03,-334.99"/>
<polygon fill="midnightblue" stroke="midnightblue" points="549.28,-318.48 558.37,-313.03 547.87,-311.63 549.28,-318.48"/>
</g>
<!-- Node11 -->
<g id="node11" class="node">
<title>Node11</title>
<g id="a_node11"><a xlink:href="test_2fuzz_2message_8cpp.html#a97ad798be28768b5c63bddcbe7fa5b71" target="_top" xlink:title=" ">
<polygon fill="white" stroke="black" points="351,-297 351,-316 459,-316 459,-297 351,-297"/>
<text text-anchor="middle" x="405" y="-304" font-family="Helvetica,sans-Serif" font-size="10.00">initialize_message</text>
</a>
</g>
</g>
<!-- Node3&#45;&gt;Node11 -->
<g id="edge10" class="edge">
<title>Node3&#45;&gt;Node11</title>
<path fill="none" stroke="midnightblue" d="M548.31,-306.5C521.9,-306.5 487.52,-306.5 459.16,-306.5"/>
<polygon fill="midnightblue" stroke="midnightblue" points="548.37,-310 558.37,-306.5 548.37,-303 548.37,-310"/>
</g>
<!-- Node12 -->
<g id="node12" class="node">
<title>Node12</title>
<g id="a_node12"><a xlink:href="script__sigcache_8cpp.html#abca000abd8b26528d83726777a57505e" target="_top" xlink:title=" ">
<polygon fill="white" stroke="black" points="335.5,-259 335.5,-278 474.5,-278 474.5,-259 335.5,-259"/>
<text text-anchor="middle" x="405" y="-266" font-family="Helvetica,sans-Serif" font-size="10.00">initialize_script_sigcache</text>
</a>
</g>
</g>
<!-- Node3&#45;&gt;Node12 -->
<g id="edge11" class="edge">
<title>Node3&#45;&gt;Node12</title>
<path fill="none" stroke="midnightblue" d="M548.27,-297.88C519.61,-291.96 481.56,-284.11 452.03,-278.01"/>
<polygon fill="midnightblue" stroke="midnightblue" points="547.87,-301.37 558.37,-299.97 549.28,-294.52 547.87,-301.37"/>
</g>
<!-- Node13 -->
<g id="node13" class="node">
<title>Node13</title>
<g id="a_node13"><a xlink:href="script__sign_8cpp.html#add290901733b6dcf956d7ac112297250" target="_top" xlink:title=" ">
<polygon fill="white" stroke="black" points="347,-221 347,-240 463,-240 463,-221 347,-221"/>
<text text-anchor="middle" x="405" y="-228" font-family="Helvetica,sans-Serif" font-size="10.00">initialize_script_sign</text>
</a>
</g>
</g>
<!-- Node3&#45;&gt;Node13 -->
<g id="edge12" class="edge">
<title>Node3&#45;&gt;Node13</title>
<path fill="none" stroke="midnightblue" d="M568.65,-291.26C549.64,-278.37 520.64,-260.32 493,-249.5 483.35,-245.72 472.8,-242.62 462.47,-240.1"/>
<polygon fill="midnightblue" stroke="midnightblue" points="566.66,-294.15 576.88,-296.95 570.64,-288.39 566.66,-294.15"/>
</g>
<!-- Node14 -->
<g id="node14" class="node">
<title>Node14</title>
<g id="a_node14"><a xlink:href="bitcoin-wallet_8cpp.html#a0ddf1224851353fc92bfbff6f499fa97" target="_top" xlink:title=" ">
<polygon fill="white" stroke="black" points="384.5,-183 384.5,-202 425.5,-202 425.5,-183 384.5,-183"/>
<text text-anchor="middle" x="405" y="-190" font-family="Helvetica,sans-Serif" font-size="10.00">main</text>
</a>
</g>
</g>
<!-- Node3&#45;&gt;Node14 -->
<g id="edge13" class="edge">
<title>Node3&#45;&gt;Node14</title>
<path fill="none" stroke="midnightblue" d="M577.12,-288.85C560.3,-267.14 528.73,-230.79 493,-211.5 471.78,-200.04 444.11,-195.49 425.74,-193.69"/>
<polygon fill="midnightblue" stroke="midnightblue" points="574.39,-291.04 583.21,-296.91 579.98,-286.82 574.39,-291.04"/>
</g>
<!-- Node15 -->
<g id="node15" class="node">
<title>Node15</title>
<g id="a_node15"><a xlink:href="class_secp256k1_init.html#a2b66e52b456b58659cb3c4b3adab862b" target="_top" xlink:title=" ">
<polygon fill="white" stroke="black" points="324.5,-145 324.5,-164 485.5,-164 485.5,-145 324.5,-145"/>
<text text-anchor="middle" x="405" y="-152" font-family="Helvetica,sans-Serif" font-size="10.00">Secp256k1Init::Secp256k1Init</text>
</a>
</g>
</g>
<!-- Node3&#45;&gt;Node15 -->
<g id="edge14" class="edge">
<title>Node3&#45;&gt;Node15</title>
<path fill="none" stroke="midnightblue" d="M581.81,-287.8C567.98,-258.53 537.11,-202.27 493,-173.5 487.04,-169.62 480.42,-166.51 473.56,-164.04"/>
<polygon fill="midnightblue" stroke="midnightblue" points="578.65,-289.3 585.99,-296.94 585.01,-286.39 578.65,-289.3"/>
</g>
<!-- Node16 -->
<g id="node16" class="node">
<title>Node16</title>
<g id="a_node16"><a xlink:href="namespaceinit.html#a7321f0eb95fcb6385f34373d8bc241ff" target="_top" xlink:title=" ">
<polygon fill="white" stroke="black" points="359.5,-107 359.5,-126 450.5,-126 450.5,-107 359.5,-107"/>
<text text-anchor="middle" x="405" y="-114" font-family="Helvetica,sans-Serif" font-size="10.00">init::SetGlobals</text>
</a>
</g>
</g>
<!-- Node3&#45;&gt;Node16 -->
<g id="edge15" class="edge">
<title>Node3&#45;&gt;Node16</title>
<path fill="none" stroke="midnightblue" d="M584.76,-287.14C573.98,-251.22 545.8,-174.39 493,-135.5 480.8,-126.51 465.19,-121.62 450.57,-119.01"/>
<polygon fill="midnightblue" stroke="midnightblue" points="581.43,-288.24 587.55,-296.89 588.16,-286.31 581.43,-288.24"/>
</g>
<!-- Node20 -->
<g id="node20" class="node">
<title>Node20</title>
<g id="a_node20"><a xlink:href="verify__script_8cpp.html#a6984f9cb29f77b9bbd88be4405584b1f" target="_top" xlink:title=" ">
<polygon fill="white" stroke="black" points="354,-69 354,-88 456,-88 456,-69 354,-69"/>
<text text-anchor="middle" x="405" y="-76" font-family="Helvetica,sans-Serif" font-size="10.00">VerifyScriptBench</text>
</a>
</g>
</g>
<!-- Node3&#45;&gt;Node20 -->
<g id="edge19" class="edge">
<title>Node3&#45;&gt;Node20</title>
<path fill="none" stroke="midnightblue" d="M586.82,-286.72C579,-244.83 554.76,-147 493,-97.5 482.63,-89.18 469.4,-84.31 456.42,-81.51"/>
<polygon fill="midnightblue" stroke="midnightblue" points="583.4,-287.5 588.57,-296.74 590.3,-286.29 583.4,-287.5"/>
</g>
<!-- Node17 -->
<g id="node17" class="node">
<title>Node17</title>
<g id="a_node17"><a xlink:href="init_8cpp.html#a9b9eb8049d0171e22b36e976d02158a5" target="_top" xlink:title="Initialization sanity checks: ecc init, sanity checks, dir lock.">
<polygon fill="white" stroke="black" points="164,-107 164,-126 281,-126 281,-107 164,-107"/>
<text text-anchor="middle" x="222.5" y="-114" font-family="Helvetica,sans-Serif" font-size="10.00">AppInitSanityChecks</text>
</a>
</g>
</g>
<!-- Node16&#45;&gt;Node17 -->
<g id="edge16" class="edge">
<title>Node16&#45;&gt;Node17</title>
<path fill="none" stroke="midnightblue" d="M349.12,-116.5C327.64,-116.5 302.99,-116.5 281.24,-116.5"/>
<polygon fill="midnightblue" stroke="midnightblue" points="349.38,-120 359.38,-116.5 349.38,-113 349.38,-120"/>
</g>
<!-- Node18 -->
<g id="node18" class="node">
<title>Node18</title>
<g id="a_node18"><a xlink:href="bitcoind_8cpp.html#a111f3c7b82a1c083ce04328e970f5aca" target="_top" xlink:title=" ">
<polygon fill="white" stroke="black" points="77,-107 77,-126 128,-126 128,-107 77,-107"/>
<text text-anchor="middle" x="102.5" y="-114" font-family="Helvetica,sans-Serif" font-size="10.00">AppInit</text>
</a>
</g>
</g>
<!-- Node17&#45;&gt;Node18 -->
<g id="edge17" class="edge">
<title>Node17&#45;&gt;Node18</title>
<path fill="none" stroke="midnightblue" d="M153.84,-116.5C144.65,-116.5 135.74,-116.5 128.04,-116.5"/>
<polygon fill="midnightblue" stroke="midnightblue" points="153.88,-120 163.88,-116.5 153.88,-113 153.88,-120"/>
</g>
<!-- Node19 -->
<g id="node19" class="node">
<title>Node19</title>
<g id="a_node19"><a xlink:href="bitcoind_8cpp.html#a0ddf1224851353fc92bfbff6f499fa97" target="_top" xlink:title=" ">
<polygon fill="white" stroke="black" points="0,-107 0,-126 41,-126 41,-107 0,-107"/>
<text text-anchor="middle" x="20.5" y="-114" font-family="Helvetica,sans-Serif" font-size="10.00">main</text>
</a>
</g>
</g>
<!-- Node18&#45;&gt;Node19 -->
<g id="edge18" class="edge">
<title>Node18&#45;&gt;Node19</title>
<path fill="none" stroke="midnightblue" d="M66.59,-116.5C57.83,-116.5 48.73,-116.5 41.02,-116.5"/>
<polygon fill="midnightblue" stroke="midnightblue" points="66.63,-120 76.63,-116.5 66.63,-113 66.63,-120"/>
</g>
<!-- Node22&#45;&gt;Node21 -->
<g id="edge22" class="edge">
<title>Node22&#45;&gt;Node21</title>
<path fill="none" stroke="midnightblue" d="M528.41,-53.14C492.74,-49.46 450.2,-45.06 425.82,-42.55"/>
<polygon fill="midnightblue" stroke="midnightblue" points="528.44,-56.66 538.75,-54.21 529.16,-49.7 528.44,-56.66"/>
</g>
<!-- Node24 -->
<g id="node24" class="node">
<title>Node24</title>
<g id="a_node24"><a xlink:href="tests_8c.html#ac3003b8a1d7eed5ebb0497a3f0dd97b6" target="_top" xlink:title=" ">
<polygon fill="white" stroke="black" points="529,-12 529,-31 653,-31 653,-12 529,-12"/>
<text text-anchor="middle" x="591" y="-19" font-family="Helvetica,sans-Serif" font-size="10.00">run_ecmult_gen_blind</text>
</a>
</g>
</g>
<!-- Node23&#45;&gt;Node24 -->
<g id="edge24" class="edge">
<title>Node23&#45;&gt;Node24</title>
<path fill="none" stroke="midnightblue" d="M716.67,-47.82C691.14,-42.43 661.22,-36.11 637.09,-31.02"/>
<polygon fill="midnightblue" stroke="midnightblue" points="716.07,-51.27 726.58,-49.91 717.52,-44.42 716.07,-51.27"/>
</g>
<!-- Node24&#45;&gt;Node21 -->
<g id="edge25" class="edge">
<title>Node24&#45;&gt;Node21</title>
<path fill="none" stroke="midnightblue" d="M518.76,-28.86C485.34,-32.31 448.06,-36.16 425.84,-38.45"/>
<polygon fill="midnightblue" stroke="midnightblue" points="519.4,-32.31 528.99,-27.8 518.68,-25.35 519.4,-32.31"/>
</g>
<!-- Node25&#45;&gt;Node24 -->
<g id="edge27" class="edge">
<title>Node25&#45;&gt;Node24</title>
<path fill="none" stroke="midnightblue" d="M698.93,-17.94C683.77,-18.44 667.95,-18.97 653.26,-19.46"/>
<polygon fill="midnightblue" stroke="midnightblue" points="699.42,-21.42 709.3,-17.59 699.19,-14.43 699.42,-21.42"/>
</g>
</g>
</svg>
