<?xml version="1.0" encoding="UTF-8" standalone="no"?>
<!DOCTYPE svg PUBLIC "-//W3C//DTD SVG 1.1//EN"
 "http://www.w3.org/Graphics/SVG/1.1/DTD/svg11.dtd">
<!-- Generated by graphviz version 2.49.3 (0)
 -->
<!-- Title: secp256k1_ecmult_gen Pages: 1 -->
<svg width="336pt" height="256pt"
 viewBox="0.00 0.00 336.00 256.00" xmlns="http://www.w3.org/2000/svg" xmlns:xlink="http://www.w3.org/1999/xlink">
<g id="graph0" class="graph" transform="scale(1 1) rotate(0) translate(4 252)">
<title>secp256k1_ecmult_gen</title>
<polygon fill="white" stroke="transparent" points="-4,4 -4,-252 332,-252 332,4 -4,4"/>
<!-- Node1 -->
<g id="node1" class="node">
<title>Node1</title>
<g id="a_node1"><a xlink:title=" ">
<polygon fill="#bfbfbf" stroke="black" points="0,-114.5 0,-133.5 131,-133.5 131,-114.5 0,-114.5"/>
<text text-anchor="middle" x="65.5" y="-121.5" font-family="Helvetica,sans-Serif" font-size="10.00">secp256k1_ecmult_gen</text>
</a>
</g>
</g>
<!-- Node2 -->
<g id="node2" class="node">
<title>Node2</title>
<g id="a_node2"><a xlink:href="group_8h.html#a34793cf48794f089bb28597d1a9f23b2" target="_top" xlink:title="Clear a secp256k1_ge to prevent leaking sensitive information.">
<polygon fill="white" stroke="black" points="189.5,-228.5 189.5,-247.5 305.5,-247.5 305.5,-228.5 189.5,-228.5"/>
<text text-anchor="middle" x="247.5" y="-235.5" font-family="Helvetica,sans-Serif" font-size="10.00">secp256k1_ge_clear</text>
</a>
</g>
</g>
<!-- Node1&#45;&gt;Node2 -->
<g id="edge1" class="edge">
<title>Node1&#45;&gt;Node2</title>
<path fill="none" stroke="midnightblue" d="M73.65,-133.52C88.69,-152.82 125.61,-196.61 167,-219 171.22,-221.29 175.72,-223.3 180.34,-225.07"/>
<polygon fill="midnightblue" stroke="midnightblue" points="179.37,-228.44 189.97,-228.38 181.65,-221.82 179.37,-228.44"/>
</g>
<!-- Node3 -->
<g id="node3" class="node">
<title>Node3</title>
<g id="a_node3"><a xlink:href="group_8h.html#a8c1e7f328284d9ba56404bb8d99bf765" target="_top" xlink:title="Convert a group element back from the storage type.">
<polygon fill="white" stroke="black" points="169,-190.5 169,-209.5 326,-209.5 326,-190.5 169,-190.5"/>
<text text-anchor="middle" x="247.5" y="-197.5" font-family="Helvetica,sans-Serif" font-size="10.00">secp256k1_ge_from_storage</text>
</a>
</g>
</g>
<!-- Node1&#45;&gt;Node3 -->
<g id="edge2" class="edge">
<title>Node1&#45;&gt;Node3</title>
<path fill="none" stroke="midnightblue" d="M80.51,-133.64C99.37,-146.22 134.34,-168.13 167,-181 173.39,-183.52 180.2,-185.76 187.05,-187.74"/>
<polygon fill="midnightblue" stroke="midnightblue" points="186.49,-191.22 197.06,-190.47 188.33,-184.47 186.49,-191.22"/>
</g>
<!-- Node4 -->
<g id="node4" class="node">
<title>Node4</title>
<g id="a_node4"><a xlink:href="group_8h.html#a9a5ec01f9c5a8fcbae1a83217cd96069" target="_top" xlink:title="If flag is true, set *r equal to *a; otherwise leave it.">
<polygon fill="white" stroke="black" points="167,-152.5 167,-171.5 328,-171.5 328,-152.5 167,-152.5"/>
<text text-anchor="middle" x="247.5" y="-159.5" font-family="Helvetica,sans-Serif" font-size="10.00">secp256k1_ge_storage_cmov</text>
</a>
</g>
</g>
<!-- Node1&#45;&gt;Node4 -->
<g id="edge3" class="edge">
<title>Node1&#45;&gt;Node4</title>
<path fill="none" stroke="midnightblue" d="M111.92,-133.59C136.1,-138.69 166.03,-145.01 191.51,-150.39"/>
<polygon fill="midnightblue" stroke="midnightblue" points="190.9,-153.84 201.41,-152.48 192.34,-146.99 190.9,-153.84"/>
</g>
<!-- Node5 -->
<g id="node5" class="node">
<title>Node5</title>
<g id="a_node5"><a xlink:href="group_8h.html#a586b55d5921edcd68799f584c0a3c58d" target="_top" xlink:title="Set r equal to the sum of a and b (with b given in affine coordinates, and not infinity).">
<polygon fill="white" stroke="black" points="182.5,-114.5 182.5,-133.5 312.5,-133.5 312.5,-114.5 182.5,-114.5"/>
<text text-anchor="middle" x="247.5" y="-121.5" font-family="Helvetica,sans-Serif" font-size="10.00">secp256k1_gej_add_ge</text>
</a>
</g>
</g>
<!-- Node1&#45;&gt;Node5 -->
<g id="edge4" class="edge">
<title>Node1&#45;&gt;Node5</title>
<path fill="none" stroke="midnightblue" d="M131.23,-124C144.48,-124 158.53,-124 172.09,-124"/>
<polygon fill="midnightblue" stroke="midnightblue" points="172.34,-127.5 182.34,-124 172.34,-120.5 172.34,-127.5"/>
</g>
<!-- Node6 -->
<g id="node6" class="node">
<title>Node6</title>
<g id="a_node6"><a xlink:href="scalar_8h.html#a83257652850276cd74c7cdd1f9444d9c" target="_top" xlink:title="Add two scalars together (modulo the group order).">
<polygon fill="white" stroke="black" points="184,-76.5 184,-95.5 311,-95.5 311,-76.5 184,-76.5"/>
<text text-anchor="middle" x="247.5" y="-83.5" font-family="Helvetica,sans-Serif" font-size="10.00">secp256k1_scalar_add</text>
</a>
</g>
</g>
<!-- Node1&#45;&gt;Node6 -->
<g id="edge5" class="edge">
<title>Node1&#45;&gt;Node6</title>
<path fill="none" stroke="midnightblue" d="M111.92,-114.41C136.1,-109.31 166.03,-102.99 191.51,-97.61"/>
<polygon fill="midnightblue" stroke="midnightblue" points="192.34,-101.01 201.41,-95.52 190.9,-94.16 192.34,-101.01"/>
</g>
<!-- Node7 -->
<g id="node7" class="node">
<title>Node7</title>
<g id="a_node7"><a xlink:href="scalar_8h.html#ad8fb9bc2a828903963bf37806d8edd11" target="_top" xlink:title="Clear a scalar to prevent the leak of sensitive data.">
<polygon fill="white" stroke="black" points="181,-38.5 181,-57.5 314,-57.5 314,-38.5 181,-38.5"/>
<text text-anchor="middle" x="247.5" y="-45.5" font-family="Helvetica,sans-Serif" font-size="10.00">secp256k1_scalar_clear</text>
</a>
</g>
</g>
<!-- Node1&#45;&gt;Node7 -->
<g id="edge6" class="edge">
<title>Node1&#45;&gt;Node7</title>
<path fill="none" stroke="midnightblue" d="M80.51,-114.36C99.37,-101.78 134.34,-79.87 167,-67 173.39,-64.48 180.2,-62.24 187.05,-60.26"/>
<polygon fill="midnightblue" stroke="midnightblue" points="188.33,-63.53 197.06,-57.53 186.49,-56.78 188.33,-63.53"/>
</g>
<!-- Node8 -->
<g id="node8" class="node">
<title>Node8</title>
<g id="a_node8"><a xlink:href="scalar_8h.html#a70d7af05e9c9a579ed5cb20d9f22eeba" target="_top" xlink:title="Access bits from a scalar.">
<polygon fill="white" stroke="black" points="173.5,-0.5 173.5,-19.5 321.5,-19.5 321.5,-0.5 173.5,-0.5"/>
<text text-anchor="middle" x="247.5" y="-7.5" font-family="Helvetica,sans-Serif" font-size="10.00">secp256k1_scalar_get_bits</text>
</a>
</g>
</g>
<!-- Node1&#45;&gt;Node8 -->
<g id="edge7" class="edge">
<title>Node1&#45;&gt;Node8</title>
<path fill="none" stroke="midnightblue" d="M73.65,-114.48C88.69,-95.18 125.61,-51.39 167,-29 171.22,-26.71 175.72,-24.7 180.34,-22.93"/>
<polygon fill="midnightblue" stroke="midnightblue" points="181.65,-26.18 189.97,-19.62 179.37,-19.56 181.65,-26.18"/>
</g>
</g>
</svg>
