<?xml version="1.0" encoding="UTF-8" standalone="no"?>
<!DOCTYPE svg PUBLIC "-//W3C//DTD SVG 1.1//EN"
 "http://www.w3.org/Graphics/SVG/1.1/DTD/svg11.dtd">
<!-- Generated by graphviz version 2.49.3 (0)
 -->
<!-- Title: src/fs.cpp Pages: 1 -->
<svg width="675pt" height="196pt"
 viewBox="0.00 0.00 675.00 196.00" xmlns="http://www.w3.org/2000/svg" xmlns:xlink="http://www.w3.org/1999/xlink">
<g id="graph0" class="graph" transform="scale(1 1) rotate(0) translate(4 192)">
<title>src/fs.cpp</title>
<polygon fill="white" stroke="transparent" points="-4,4 -4,-192 671,-192 671,4 -4,4"/>
<!-- Node1 -->
<g id="node1" class="node">
<title>Node1</title>
<g id="a_node1"><a xlink:title=" ">
<polygon fill="#bfbfbf" stroke="black" points="234.5,-168.5 234.5,-187.5 297.5,-187.5 297.5,-168.5 234.5,-168.5"/>
<text text-anchor="middle" x="266" y="-175.5" font-family="Helvetica,sans-Serif" font-size="10.00">src/fs.cpp</text>
</a>
</g>
</g>
<!-- Node2 -->
<g id="node2" class="node">
<title>Node2</title>
<g id="a_node2"><a xlink:href="fs_8h.html" target="_top" xlink:title=" ">
<polygon fill="white" stroke="black" points="120.5,-112.5 120.5,-131.5 155.5,-131.5 155.5,-112.5 120.5,-112.5"/>
<text text-anchor="middle" x="138" y="-119.5" font-family="Helvetica,sans-Serif" font-size="10.00">fs.h</text>
</a>
</g>
</g>
<!-- Node1&#45;&gt;Node2 -->
<g id="edge1" class="edge">
<title>Node1&#45;&gt;Node2</title>
<path fill="none" stroke="midnightblue" d="M245.72,-168.44C223.91,-159.24 189.13,-144.57 165.01,-134.4"/>
<polygon fill="midnightblue" stroke="midnightblue" points="166.29,-131.14 155.71,-130.47 163.57,-137.58 166.29,-131.14"/>
</g>
<!-- Node4 -->
<g id="node4" class="node">
<title>Node4</title>
<g id="a_node4"><a xlink:title=" ">
<polygon fill="white" stroke="#bfbfbf" points="0,-56.5 0,-75.5 44,-75.5 44,-56.5 0,-56.5"/>
<text text-anchor="middle" x="22" y="-63.5" font-family="Helvetica,sans-Serif" font-size="10.00">string</text>
</a>
</g>
</g>
<!-- Node1&#45;&gt;Node4 -->
<g id="edge14" class="edge">
<title>Node1&#45;&gt;Node4</title>
<path fill="none" stroke="midnightblue" d="M234.23,-171.16C202.04,-164.48 151.36,-151.83 111,-132 84.09,-118.78 56.78,-97.39 39.64,-82.79"/>
<polygon fill="midnightblue" stroke="midnightblue" points="41.5,-79.77 31.66,-75.85 36.91,-85.05 41.5,-79.77"/>
</g>
<!-- Node13 -->
<g id="node13" class="node">
<title>Node13</title>
<g id="a_node13"><a xlink:title=" ">
<polygon fill="white" stroke="#bfbfbf" points="174,-112.5 174,-131.5 224,-131.5 224,-112.5 174,-112.5"/>
<text text-anchor="middle" x="199" y="-119.5" font-family="Helvetica,sans-Serif" font-size="10.00">cstring</text>
</a>
</g>
</g>
<!-- Node1&#45;&gt;Node13 -->
<g id="edge12" class="edge">
<title>Node1&#45;&gt;Node13</title>
<path fill="none" stroke="midnightblue" d="M255.24,-168.32C245.23,-160.26 230.11,-148.08 218.07,-138.37"/>
<polygon fill="midnightblue" stroke="midnightblue" points="219.94,-135.38 209.96,-131.83 215.55,-140.83 219.94,-135.38"/>
</g>
<!-- Node14 -->
<g id="node14" class="node">
<title>Node14</title>
<g id="a_node14"><a xlink:title=" ">
<polygon fill="white" stroke="#bfbfbf" points="242.5,-112.5 242.5,-131.5 289.5,-131.5 289.5,-112.5 242.5,-112.5"/>
<text text-anchor="middle" x="266" y="-119.5" font-family="Helvetica,sans-Serif" font-size="10.00">fcntl.h</text>
</a>
</g>
</g>
<!-- Node1&#45;&gt;Node14 -->
<g id="edge13" class="edge">
<title>Node1&#45;&gt;Node14</title>
<path fill="none" stroke="midnightblue" d="M266,-168.08C266,-161.01 266,-150.86 266,-141.99"/>
<polygon fill="midnightblue" stroke="midnightblue" points="269.5,-141.75 266,-131.75 262.5,-141.75 269.5,-141.75"/>
</g>
<!-- Node15 -->
<g id="node15" class="node">
<title>Node15</title>
<g id="a_node15"><a xlink:title=" ">
<polygon fill="white" stroke="#bfbfbf" points="308,-112.5 308,-131.5 368,-131.5 368,-112.5 308,-112.5"/>
<text text-anchor="middle" x="338" y="-119.5" font-family="Helvetica,sans-Serif" font-size="10.00">sys/file.h</text>
</a>
</g>
</g>
<!-- Node1&#45;&gt;Node15 -->
<g id="edge15" class="edge">
<title>Node1&#45;&gt;Node15</title>
<path fill="none" stroke="midnightblue" d="M277.57,-168.32C288.42,-160.18 304.88,-147.84 317.88,-138.09"/>
<polygon fill="midnightblue" stroke="midnightblue" points="320.32,-140.63 326.22,-131.83 316.12,-135.03 320.32,-140.63"/>
</g>
<!-- Node16 -->
<g id="node16" class="node">
<title>Node16</title>
<g id="a_node16"><a xlink:title=" ">
<polygon fill="white" stroke="#bfbfbf" points="386,-112.5 386,-131.5 474,-131.5 474,-112.5 386,-112.5"/>
<text text-anchor="middle" x="430" y="-119.5" font-family="Helvetica,sans-Serif" font-size="10.00">sys/utsname.h</text>
</a>
</g>
</g>
<!-- Node1&#45;&gt;Node16 -->
<g id="edge16" class="edge">
<title>Node1&#45;&gt;Node16</title>
<path fill="none" stroke="midnightblue" d="M291.99,-168.44C319.7,-159.32 363.75,-144.81 394.62,-134.65"/>
<polygon fill="midnightblue" stroke="midnightblue" points="395.73,-137.97 404.14,-131.52 393.54,-131.32 395.73,-137.97"/>
</g>
<!-- Node17 -->
<g id="node17" class="node">
<title>Node17</title>
<g id="a_node17"><a xlink:title=" ">
<polygon fill="white" stroke="#bfbfbf" points="492,-112.5 492,-131.5 548,-131.5 548,-112.5 492,-112.5"/>
<text text-anchor="middle" x="520" y="-119.5" font-family="Helvetica,sans-Serif" font-size="10.00">unistd.h</text>
</a>
</g>
</g>
<!-- Node1&#45;&gt;Node17 -->
<g id="edge17" class="edge">
<title>Node1&#45;&gt;Node17</title>
<path fill="none" stroke="midnightblue" d="M297.7,-170.78C338.13,-162.77 410.44,-148.18 481.7,-132.24"/>
<polygon fill="midnightblue" stroke="midnightblue" points="482.75,-135.59 491.74,-129.98 481.22,-128.76 482.75,-135.59"/>
</g>
<!-- Node3 -->
<g id="node3" class="node">
<title>Node3</title>
<g id="a_node3"><a xlink:title=" ">
<polygon fill="white" stroke="#bfbfbf" points="62,-56.5 62,-75.5 112,-75.5 112,-56.5 62,-56.5"/>
<text text-anchor="middle" x="87" y="-63.5" font-family="Helvetica,sans-Serif" font-size="10.00">stdio.h</text>
</a>
</g>
</g>
<!-- Node2&#45;&gt;Node3 -->
<g id="edge2" class="edge">
<title>Node2&#45;&gt;Node3</title>
<path fill="none" stroke="midnightblue" d="M129.58,-112.08C122.15,-104.22 111.15,-92.57 102.19,-83.08"/>
<polygon fill="midnightblue" stroke="midnightblue" points="104.68,-80.62 95.26,-75.75 99.59,-85.42 104.68,-80.62"/>
</g>
<!-- Node2&#45;&gt;Node4 -->
<g id="edge3" class="edge">
<title>Node2&#45;&gt;Node4</title>
<path fill="none" stroke="midnightblue" d="M120.38,-112.8C101.61,-104.06 71.64,-90.11 49.7,-79.9"/>
<polygon fill="midnightblue" stroke="midnightblue" points="51.1,-76.68 40.55,-75.64 48.14,-83.03 51.1,-76.68"/>
</g>
<!-- Node5 -->
<g id="node5" class="node">
<title>Node5</title>
<g id="a_node5"><a xlink:title=" ">
<polygon fill="white" stroke="#bfbfbf" points="130.5,-56.5 130.5,-75.5 249.5,-75.5 249.5,-56.5 130.5,-56.5"/>
<text text-anchor="middle" x="190" y="-63.5" font-family="Helvetica,sans-Serif" font-size="10.00">boost/filesystem.hpp</text>
</a>
</g>
</g>
<!-- Node2&#45;&gt;Node5 -->
<g id="edge4" class="edge">
<title>Node2&#45;&gt;Node5</title>
<path fill="none" stroke="midnightblue" d="M146.59,-112.08C154.16,-104.22 165.38,-92.57 174.51,-83.08"/>
<polygon fill="midnightblue" stroke="midnightblue" points="177.16,-85.38 181.57,-75.75 172.12,-80.53 177.16,-85.38"/>
</g>
<!-- Node6 -->
<g id="node6" class="node">
<title>Node6</title>
<g id="a_node6"><a xlink:title=" ">
<polygon fill="white" stroke="#bfbfbf" points="268,-56.5 268,-75.5 428,-75.5 428,-56.5 268,-56.5"/>
<text text-anchor="middle" x="348" y="-63.5" font-family="Helvetica,sans-Serif" font-size="10.00">boost/filesystem/fstream.hpp</text>
</a>
</g>
</g>
<!-- Node2&#45;&gt;Node6 -->
<g id="edge5" class="edge">
<title>Node2&#45;&gt;Node6</title>
<path fill="none" stroke="midnightblue" d="M155.65,-114.89C158.76,-113.88 161.96,-112.88 165,-112 210.25,-98.92 262.48,-86.32 299.53,-77.8"/>
<polygon fill="midnightblue" stroke="midnightblue" points="300.59,-81.14 309.56,-75.5 299.03,-74.32 300.59,-81.14"/>
</g>
<!-- Node7 -->
<g id="node7" class="node">
<title>Node7</title>
<g id="a_node7"><a xlink:href="tinyformat_8h.html" target="_top" xlink:title=" ">
<polygon fill="white" stroke="black" points="446.5,-56.5 446.5,-75.5 523.5,-75.5 523.5,-56.5 446.5,-56.5"/>
<text text-anchor="middle" x="485" y="-63.5" font-family="Helvetica,sans-Serif" font-size="10.00">tinyformat.h</text>
</a>
</g>
</g>
<!-- Node2&#45;&gt;Node7 -->
<g id="edge6" class="edge">
<title>Node2&#45;&gt;Node7</title>
<path fill="none" stroke="midnightblue" d="M155.58,-114.61C158.69,-113.63 161.92,-112.71 165,-112 280.69,-85.32 314.8,-94.71 436.2,-76.03"/>
<polygon fill="midnightblue" stroke="midnightblue" points="436.92,-79.46 446.26,-74.45 435.84,-72.54 436.92,-79.46"/>
</g>
<!-- Node8 -->
<g id="node8" class="node">
<title>Node8</title>
<g id="a_node8"><a xlink:title=" ">
<polygon fill="white" stroke="#bfbfbf" points="297,-0.5 297,-19.5 361,-19.5 361,-0.5 297,-0.5"/>
<text text-anchor="middle" x="329" y="-7.5" font-family="Helvetica,sans-Serif" font-size="10.00">algorithm</text>
</a>
</g>
</g>
<!-- Node7&#45;&gt;Node8 -->
<g id="edge7" class="edge">
<title>Node7&#45;&gt;Node8</title>
<path fill="none" stroke="midnightblue" d="M460.28,-56.44C434.15,-47.4 392.74,-33.06 363.42,-22.92"/>
<polygon fill="midnightblue" stroke="midnightblue" points="364.2,-19.48 353.6,-19.52 361.91,-26.1 364.2,-19.48"/>
</g>
<!-- Node9 -->
<g id="node9" class="node">
<title>Node9</title>
<g id="a_node9"><a xlink:title=" ">
<polygon fill="white" stroke="#bfbfbf" points="379,-0.5 379,-19.5 439,-19.5 439,-0.5 379,-0.5"/>
<text text-anchor="middle" x="409" y="-7.5" font-family="Helvetica,sans-Serif" font-size="10.00">iostream</text>
</a>
</g>
</g>
<!-- Node7&#45;&gt;Node9 -->
<g id="edge8" class="edge">
<title>Node7&#45;&gt;Node9</title>
<path fill="none" stroke="midnightblue" d="M472.79,-56.32C461.22,-48.11 443.62,-35.6 429.84,-25.81"/>
<polygon fill="midnightblue" stroke="midnightblue" points="431.61,-22.77 421.43,-19.83 427.56,-28.48 431.61,-22.77"/>
</g>
<!-- Node10 -->
<g id="node10" class="node">
<title>Node10</title>
<g id="a_node10"><a xlink:title=" ">
<polygon fill="white" stroke="#bfbfbf" points="457,-0.5 457,-19.5 513,-19.5 513,-0.5 457,-0.5"/>
<text text-anchor="middle" x="485" y="-7.5" font-family="Helvetica,sans-Serif" font-size="10.00">sstream</text>
</a>
</g>
</g>
<!-- Node7&#45;&gt;Node10 -->
<g id="edge9" class="edge">
<title>Node7&#45;&gt;Node10</title>
<path fill="none" stroke="midnightblue" d="M485,-56.08C485,-49.01 485,-38.86 485,-29.99"/>
<polygon fill="midnightblue" stroke="midnightblue" points="488.5,-29.75 485,-19.75 481.5,-29.75 488.5,-29.75"/>
</g>
<!-- Node11 -->
<g id="node11" class="node">
<title>Node11</title>
<g id="a_node11"><a xlink:title=" ">
<polygon fill="white" stroke="#bfbfbf" points="531.5,-0.5 531.5,-19.5 596.5,-19.5 596.5,-0.5 531.5,-0.5"/>
<text text-anchor="middle" x="564" y="-7.5" font-family="Helvetica,sans-Serif" font-size="10.00">stdexcept</text>
</a>
</g>
</g>
<!-- Node7&#45;&gt;Node11 -->
<g id="edge10" class="edge">
<title>Node7&#45;&gt;Node11</title>
<path fill="none" stroke="midnightblue" d="M497.69,-56.32C509.9,-47.98 528.58,-35.21 543,-25.35"/>
<polygon fill="midnightblue" stroke="midnightblue" points="545.06,-28.19 551.34,-19.65 541.11,-22.41 545.06,-28.19"/>
</g>
<!-- Node12 -->
<g id="node12" class="node">
<title>Node12</title>
<g id="a_node12"><a xlink:title=" ">
<polygon fill="white" stroke="#bfbfbf" points="615,-0.5 615,-19.5 667,-19.5 667,-0.5 615,-0.5"/>
<text text-anchor="middle" x="641" y="-7.5" font-family="Helvetica,sans-Serif" font-size="10.00">cassert</text>
</a>
</g>
</g>
<!-- Node7&#45;&gt;Node12 -->
<g id="edge11" class="edge">
<title>Node7&#45;&gt;Node12</title>
<path fill="none" stroke="midnightblue" d="M509.72,-56.44C535.85,-47.4 577.26,-33.06 606.58,-22.92"/>
<polygon fill="midnightblue" stroke="midnightblue" points="608.09,-26.1 616.4,-19.52 605.8,-19.48 608.09,-26.1"/>
</g>
</g>
</svg>
