<?xml version="1.0" encoding="UTF-8" standalone="no"?>
<!DOCTYPE svg PUBLIC "-//W3C//DTD SVG 1.1//EN"
 "http://www.w3.org/Graphics/SVG/1.1/DTD/svg11.dtd">
<!-- Generated by graphviz version 2.40.1 (20161225.0304)
 -->
<!-- Title: memcpy Pages: 1 -->
<svg width="591pt" height="1631pt"
 viewBox="0.00 0.00 591.00 1630.50" xmlns="http://www.w3.org/2000/svg" xmlns:xlink="http://www.w3.org/1999/xlink">
<g id="graph0" class="graph" transform="scale(1 1) rotate(0) translate(4 1626.5)">
<title>memcpy</title>
<polygon fill="#ffffff" stroke="transparent" points="-4,4 -4,-1626.5 587,-1626.5 587,4 -4,4"/>
<!-- Node220 -->
<g id="node1" class="node">
<title>Node220</title>
<polygon fill="#bfbfbf" stroke="#000000" points="0,-795.5 0,-814.5 54,-814.5 54,-795.5 0,-795.5"/>
<text text-anchor="middle" x="27" y="-802.5" font-family="Helvetica,sans-Serif" font-size="10.00" fill="#000000">memcpy</text>
</g>
<!-- Node221 -->
<g id="node2" class="node">
<title>Node221</title>
<g id="a_node2"><a xlink:href="glibc__sanity_8cpp.html#a5f0bdd4402f85d9b30074959e99699f5" target="_top" xlink:title="memcpy_int">
<polygon fill="#ffffff" stroke="#000000" points="129.5,-1555.5 129.5,-1574.5 199.5,-1574.5 199.5,-1555.5 129.5,-1555.5"/>
<text text-anchor="middle" x="164.5" y="-1562.5" font-family="Helvetica,sans-Serif" font-size="10.00" fill="#000000">memcpy_int</text>
</a>
</g>
</g>
<!-- Node220&#45;&gt;Node221 -->
<g id="edge1" class="edge">
<title>Node220&#45;&gt;Node221</title>
<path fill="none" stroke="#191970" d="M27.336,-824.8217C29.4133,-937.0153 42.0352,-1489.394 90,-1546 99.6646,-1557.4058 115.1325,-1562.4682 129.4758,-1564.5546"/>
<polygon fill="#191970" stroke="#191970" points="30.8317,-824.5418 27.154,-814.6057 23.8328,-824.6665 30.8317,-824.5418"/>
</g>
<!-- Node222 -->
<g id="node3" class="node">
<title>Node222</title>
<g id="a_node3"><a xlink:href="compressor_8h.html#aa6bd98842f2ceb1777745343d6ec0c9a" target="_top" xlink:title="DecompressScript">
<polygon fill="#ffffff" stroke="#000000" points="115.5,-1517.5 115.5,-1536.5 213.5,-1536.5 213.5,-1517.5 115.5,-1517.5"/>
<text text-anchor="middle" x="164.5" y="-1524.5" font-family="Helvetica,sans-Serif" font-size="10.00" fill="#000000">DecompressScript</text>
</a>
</g>
</g>
<!-- Node220&#45;&gt;Node222 -->
<g id="edge2" class="edge">
<title>Node220&#45;&gt;Node222</title>
<path fill="none" stroke="#191970" d="M27.432,-824.8131C29.9771,-933.5174 44.4964,-1454.5462 90,-1508 96.4892,-1515.623 105.5706,-1520.4102 115.1682,-1523.3689"/>
<polygon fill="#191970" stroke="#191970" points="30.9267,-824.5333 27.2006,-814.6153 23.9285,-824.6922 30.9267,-824.5333"/>
</g>
<!-- Node224 -->
<g id="node5" class="node">
<title>Node224</title>
<g id="a_node5"><a xlink:href="class_c_h_m_a_c___s_h_a256.html#a63236821773ad9edb3fba4623eef39b2" target="_top" xlink:title="CHMAC_SHA256::CHMAC\l_SHA256">
<polygon fill="#ffffff" stroke="#000000" points="278.5,-1357 278.5,-1387 418.5,-1387 418.5,-1357 278.5,-1357"/>
<text text-anchor="start" x="286.5" y="-1375" font-family="Helvetica,sans-Serif" font-size="10.00" fill="#000000">CHMAC_SHA256::CHMAC</text>
<text text-anchor="middle" x="348.5" y="-1364" font-family="Helvetica,sans-Serif" font-size="10.00" fill="#000000">_SHA256</text>
</a>
</g>
</g>
<!-- Node220&#45;&gt;Node224 -->
<g id="edge4" class="edge">
<title>Node220&#45;&gt;Node224</title>
<path fill="none" stroke="#191970" d="M28.1007,-825.0985C33.227,-915.4206 55.9602,-1280.9832 90,-1318 102.7819,-1331.8997 206.1731,-1350.2738 278.2558,-1361.6064"/>
<polygon fill="#191970" stroke="#191970" points="31.5811,-824.6478 27.5286,-814.8587 24.592,-825.0383 31.5811,-824.6478"/>
</g>
<!-- Node225 -->
<g id="node6" class="node">
<title>Node225</title>
<g id="a_node6"><a xlink:href="class_c_h_m_a_c___s_h_a512.html#a03e1288c20422f66b7e732aafda804e5" target="_top" xlink:title="CHMAC_SHA512::CHMAC\l_SHA512">
<polygon fill="#ffffff" stroke="#000000" points="278.5,-1406 278.5,-1436 418.5,-1436 418.5,-1406 278.5,-1406"/>
<text text-anchor="start" x="286.5" y="-1424" font-family="Helvetica,sans-Serif" font-size="10.00" fill="#000000">CHMAC_SHA512::CHMAC</text>
<text text-anchor="middle" x="348.5" y="-1413" font-family="Helvetica,sans-Serif" font-size="10.00" fill="#000000">_SHA512</text>
</a>
</g>
</g>
<!-- Node220&#45;&gt;Node225 -->
<g id="edge5" class="edge">
<title>Node220&#45;&gt;Node225</title>
<path fill="none" stroke="#191970" d="M27.6731,-824.9829C31.1764,-923.3299 48.7661,-1352.8685 90,-1394 115.6767,-1419.613 211.0325,-1423.7056 278.4361,-1423.2054"/>
<polygon fill="#191970" stroke="#191970" points="31.1681,-824.7757 27.3226,-814.9034 24.1723,-825.019 31.1681,-824.7757"/>
</g>
<!-- Node226 -->
<g id="node7" class="node">
<title>Node226</title>
<g id="a_node7"><a xlink:href="class_c_r_i_p_e_m_d160.html#a221143b9d94af623d07c4f4ba1bf6007" target="_top" xlink:title="CRIPEMD160::Write">
<polygon fill="#ffffff" stroke="#000000" points="110,-1479.5 110,-1498.5 219,-1498.5 219,-1479.5 110,-1479.5"/>
<text text-anchor="middle" x="164.5" y="-1486.5" font-family="Helvetica,sans-Serif" font-size="10.00" fill="#000000">CRIPEMD160::Write</text>
</a>
</g>
</g>
<!-- Node220&#45;&gt;Node226 -->
<g id="edge6" class="edge">
<title>Node220&#45;&gt;Node226</title>
<path fill="none" stroke="#191970" d="M27.5363,-824.7174C30.564,-929.6555 46.9421,-1419.6787 90,-1470 95.2936,-1476.1866 102.2945,-1480.5037 109.8884,-1483.491"/>
<polygon fill="#191970" stroke="#191970" points="31.0311,-824.4805 27.2514,-814.5828 24.0339,-824.6773 31.0311,-824.4805"/>
</g>
<!-- Node299 -->
<g id="node11" class="node">
<title>Node299</title>
<g id="a_node11"><a xlink:href="class_c_s_h_a1.html#a4322be694ccb2d9864e0cd0c30496a8a" target="_top" xlink:title="CSHA1::Write">
<polygon fill="#ffffff" stroke="#000000" points="124.5,-1365.5 124.5,-1384.5 204.5,-1384.5 204.5,-1365.5 124.5,-1365.5"/>
<text text-anchor="middle" x="164.5" y="-1372.5" font-family="Helvetica,sans-Serif" font-size="10.00" fill="#000000">CSHA1::Write</text>
</a>
</g>
</g>
<!-- Node220&#45;&gt;Node299 -->
<g id="edge10" class="edge">
<title>Node220&#45;&gt;Node299</title>
<path fill="none" stroke="#191970" d="M28.026,-824.8044C33.0161,-917.9232 55.9036,-1309.4355 90,-1351 98.5321,-1361.4009 111.6067,-1367.3466 124.4346,-1370.7274"/>
<polygon fill="#191970" stroke="#191970" points="31.5068,-824.3461 27.4845,-814.5446 24.5165,-824.7152 31.5068,-824.3461"/>
</g>
<!-- Node300 -->
<g id="node12" class="node">
<title>Node300</title>
<g id="a_node12"><a xlink:href="class_c_s_h_a256.html#a9d7de520a562655da85349372820c883" target="_top" xlink:title="CSHA256::Write">
<polygon fill="#ffffff" stroke="#ff0000" points="119.5,-1289.5 119.5,-1308.5 209.5,-1308.5 209.5,-1289.5 119.5,-1289.5"/>
<text text-anchor="middle" x="164.5" y="-1296.5" font-family="Helvetica,sans-Serif" font-size="10.00" fill="#000000">CSHA256::Write</text>
</a>
</g>
</g>
<!-- Node220&#45;&gt;Node300 -->
<g id="edge11" class="edge">
<title>Node220&#45;&gt;Node300</title>
<path fill="none" stroke="#191970" d="M28.4234,-824.9339C34.6625,-909.9916 60.5974,-1239.8214 90,-1275 97.4944,-1283.9667 108.3611,-1289.6173 119.4886,-1293.168"/>
<polygon fill="#191970" stroke="#191970" points="31.9034,-824.5294 27.6895,-814.8087 24.9217,-825.0356 31.9034,-824.5294"/>
</g>
<!-- Node350 -->
<g id="node17" class="node">
<title>Node350</title>
<g id="a_node17"><a xlink:href="class_c_net_addr.html#abdd315e9a3685f16031eb951acb7c8b5" target="_top" xlink:title="Transform an arbitrary string into a non&#45;routable ipv6 address. ">
<polygon fill="#ffffff" stroke="#000000" points="292,-1166.5 292,-1185.5 405,-1185.5 405,-1166.5 292,-1166.5"/>
<text text-anchor="middle" x="348.5" y="-1173.5" font-family="Helvetica,sans-Serif" font-size="10.00" fill="#000000">CNetAddr::SetInternal</text>
</a>
</g>
</g>
<!-- Node220&#45;&gt;Node350 -->
<g id="edge33" class="edge">
<title>Node220&#45;&gt;Node350</title>
<path fill="none" stroke="#191970" d="M28.3681,-825.0438C34.1669,-907.0766 57.9013,-1214.1969 90,-1242 140.0556,-1285.3569 179.6197,-1271.315 239,-1242 262.5939,-1230.3521 253.0639,-1209.5311 275,-1195 280.8235,-1191.1423 287.3861,-1188.0676 294.1321,-1185.617"/>
<polygon fill="#191970" stroke="#191970" points="31.8295,-824.3668 27.6438,-814.6339 24.8464,-824.8527 31.8295,-824.3668"/>
</g>
<!-- Node352 -->
<g id="node18" class="node">
<title>Node352</title>
<g id="a_node18"><a xlink:href="class_c_s_h_a512.html#aefd8260a2c205f11d44670ae68f1aff0" target="_top" xlink:title="CSHA512::Write">
<polygon fill="#ffffff" stroke="#ff0000" points="119.5,-1441.5 119.5,-1460.5 209.5,-1460.5 209.5,-1441.5 119.5,-1441.5"/>
<text text-anchor="middle" x="164.5" y="-1448.5" font-family="Helvetica,sans-Serif" font-size="10.00" fill="#000000">CSHA512::Write</text>
</a>
</g>
</g>
<!-- Node220&#45;&gt;Node352 -->
<g id="edge19" class="edge">
<title>Node220&#45;&gt;Node352</title>
<path fill="none" stroke="#191970" d="M27.7385,-824.9689C31.6478,-926.1241 51.2256,-1379.0555 90,-1427 97.3486,-1436.0865 108.1675,-1441.7766 119.2957,-1445.3266"/>
<polygon fill="#191970" stroke="#191970" points="31.2326,-824.7444 27.3561,-814.8843 24.2376,-825.0097 31.2326,-824.7444"/>
</g>
<!-- Node347 -->
<g id="node19" class="node">
<title>Node347</title>
<g id="a_node19"><a xlink:href="class_c_key.html#ae79008cec2eb799a2efd37e010996acf" target="_top" xlink:title="Derive BIP32 child key. ">
<polygon fill="#ffffff" stroke="#ff0000" points="126.5,-1213.5 126.5,-1232.5 202.5,-1232.5 202.5,-1213.5 126.5,-1213.5"/>
<text text-anchor="middle" x="164.5" y="-1220.5" font-family="Helvetica,sans-Serif" font-size="10.00" fill="#000000">CKey::Derive</text>
</a>
</g>
</g>
<!-- Node220&#45;&gt;Node347 -->
<g id="edge21" class="edge">
<title>Node220&#45;&gt;Node347</title>
<path fill="none" stroke="#191970" d="M27.3422,-824.7091C29.0048,-897.1518 38.4467,-1147.4084 90,-1204 99.2587,-1214.1635 113.1271,-1219.2243 126.3971,-1221.6432"/>
<polygon fill="#191970" stroke="#191970" points="30.8406,-824.5924 27.1369,-814.6661 23.8421,-824.7356 30.8406,-824.5924"/>
</g>
<!-- Node358 -->
<g id="node20" class="node">
<title>Node358</title>
<g id="a_node20"><a xlink:href="struct_c_ext_key.html#a589df63664c6d12bfe071b747a245b1d" target="_top" xlink:title="CExtKey::Derive">
<polygon fill="#ffffff" stroke="#ff0000" points="119,-1175.5 119,-1194.5 210,-1194.5 210,-1175.5 119,-1175.5"/>
<text text-anchor="middle" x="164.5" y="-1182.5" font-family="Helvetica,sans-Serif" font-size="10.00" fill="#000000">CExtKey::Derive</text>
</a>
</g>
</g>
<!-- Node220&#45;&gt;Node358 -->
<g id="edge22" class="edge">
<title>Node220&#45;&gt;Node358</title>
<path fill="none" stroke="#191970" d="M27.7144,-824.9898C30.5611,-893.2353 43.318,-1115.5809 90,-1166 97.5269,-1174.1294 108.0043,-1178.9847 118.7278,-1181.8343"/>
<polygon fill="#191970" stroke="#191970" points="31.2024,-824.6118 27.3152,-814.7558 24.2078,-824.8847 31.2024,-824.6118"/>
</g>
<!-- Node357 -->
<g id="node21" class="node">
<title>Node357</title>
<g id="a_node21"><a xlink:href="struct_c_ext_key.html#a8593d6ce0dadfca0f8c2f71ebb4e1fe0" target="_top" xlink:title="CExtKey::SetSeed">
<polygon fill="#ffffff" stroke="#ff0000" points="114.5,-1137.5 114.5,-1156.5 214.5,-1156.5 214.5,-1137.5 114.5,-1137.5"/>
<text text-anchor="middle" x="164.5" y="-1144.5" font-family="Helvetica,sans-Serif" font-size="10.00" fill="#000000">CExtKey::SetSeed</text>
</a>
</g>
</g>
<!-- Node220&#45;&gt;Node357 -->
<g id="edge23" class="edge">
<title>Node220&#45;&gt;Node357</title>
<path fill="none" stroke="#191970" d="M28.1585,-824.9073C32.2473,-888.2577 48.0831,-1083.6193 90,-1128 96.5074,-1134.8898 105.1357,-1139.4194 114.2079,-1142.368"/>
<polygon fill="#191970" stroke="#191970" points="31.6368,-824.4465 27.528,-814.6808 24.6501,-824.8773 31.6368,-824.4465"/>
</g>
<!-- Node359 -->
<g id="node22" class="node">
<title>Node359</title>
<g id="a_node22"><a xlink:href="struct_c_ext_key.html#a4ea6bbc6c9bda4f8d77cade114155569" target="_top" xlink:title="CExtKey::Neuter">
<polygon fill="#ffffff" stroke="#000000" points="118.5,-1099.5 118.5,-1118.5 210.5,-1118.5 210.5,-1099.5 118.5,-1099.5"/>
<text text-anchor="middle" x="164.5" y="-1106.5" font-family="Helvetica,sans-Serif" font-size="10.00" fill="#000000">CExtKey::Neuter</text>
</a>
</g>
</g>
<!-- Node220&#45;&gt;Node359 -->
<g id="edge24" class="edge">
<title>Node220&#45;&gt;Node359</title>
<path fill="none" stroke="#191970" d="M28.713,-824.8144C34.1383,-882.9872 52.8213,-1051.6061 90,-1090 97.5213,-1097.7671 107.7414,-1102.5212 118.1995,-1105.3914"/>
<polygon fill="#191970" stroke="#191970" points="32.1871,-824.369 27.8031,-814.7237 25.2154,-824.9977 32.1871,-824.369"/>
</g>
<!-- Node360 -->
<g id="node23" class="node">
<title>Node360</title>
<g id="a_node23"><a xlink:href="struct_c_ext_key.html#aaeb1d3aa4f5e00b32fa0728e0f8af512" target="_top" xlink:title="CExtKey::Encode">
<polygon fill="#ffffff" stroke="#ff0000" points="117,-1061.5 117,-1080.5 212,-1080.5 212,-1061.5 117,-1061.5"/>
<text text-anchor="middle" x="164.5" y="-1068.5" font-family="Helvetica,sans-Serif" font-size="10.00" fill="#000000">CExtKey::Encode</text>
</a>
</g>
</g>
<!-- Node220&#45;&gt;Node360 -->
<g id="edge25" class="edge">
<title>Node220&#45;&gt;Node360</title>
<path fill="none" stroke="#191970" d="M29.4056,-824.5468C36.2557,-877.0722 57.4932,-1019.494 90,-1052 97.2677,-1059.2675 106.9034,-1063.8821 116.8251,-1066.7822"/>
<polygon fill="#191970" stroke="#191970" points="32.8637,-823.9948 28.1313,-814.5156 25.9195,-824.8769 32.8637,-823.9948"/>
</g>
<!-- Node361 -->
<g id="node24" class="node">
<title>Node361</title>
<g id="a_node24"><a xlink:href="struct_c_ext_key.html#a8f5d323b07f6509d94fef18c9f428431" target="_top" xlink:title="CExtKey::Decode">
<polygon fill="#ffffff" stroke="#ff0000" points="116.5,-1023.5 116.5,-1042.5 212.5,-1042.5 212.5,-1023.5 116.5,-1023.5"/>
<text text-anchor="middle" x="164.5" y="-1030.5" font-family="Helvetica,sans-Serif" font-size="10.00" fill="#000000">CExtKey::Decode</text>
</a>
</g>
</g>
<!-- Node220&#45;&gt;Node361 -->
<g id="edge26" class="edge">
<title>Node220&#45;&gt;Node361</title>
<path fill="none" stroke="#191970" d="M30.3806,-824.5766C38.8278,-871.2872 62.1881,-987.3607 90,-1014 97.2296,-1020.9248 106.6175,-1025.4229 116.2786,-1028.3218"/>
<polygon fill="#191970" stroke="#191970" points="33.791,-823.7627 28.6011,-814.526 26.8982,-824.9831 33.791,-823.7627"/>
</g>
<!-- Node362 -->
<g id="node25" class="node">
<title>Node362</title>
<g id="a_node25"><a xlink:href="class_c_key.html#aaa13d5f08456bba094210c5eeabf64c8" target="_top" xlink:title="Initialize using begin and end iterators to byte data. ">
<polygon fill="#ffffff" stroke="#ff0000" points="133.5,-985.5 133.5,-1004.5 195.5,-1004.5 195.5,-985.5 133.5,-985.5"/>
<text text-anchor="middle" x="164.5" y="-992.5" font-family="Helvetica,sans-Serif" font-size="10.00" fill="#000000">CKey::Set</text>
</a>
</g>
</g>
<!-- Node220&#45;&gt;Node362 -->
<g id="edge27" class="edge">
<title>Node220&#45;&gt;Node362</title>
<path fill="none" stroke="#191970" d="M28.4778,-824.9874C32.2235,-860.739 45.2639,-935.6611 90,-976 101.7966,-986.6371 118.724,-991.4905 133.4631,-993.6388"/>
<polygon fill="#191970" stroke="#191970" points="31.9475,-824.4933 27.5598,-814.8497 24.976,-825.1246 31.9475,-824.4933"/>
</g>
<!-- Node363 -->
<g id="node26" class="node">
<title>Node363</title>
<g id="a_node26"><a xlink:href="class_c_net_message.html#a3e58f5f29b23d1377f8fd15fc75c78ac" target="_top" xlink:title="CNetMessage::readHeader">
<polygon fill="#ffffff" stroke="#000000" points="96.5,-947.5 96.5,-966.5 232.5,-966.5 232.5,-947.5 96.5,-947.5"/>
<text text-anchor="middle" x="164.5" y="-954.5" font-family="Helvetica,sans-Serif" font-size="10.00" fill="#000000">CNetMessage::readHeader</text>
</a>
</g>
</g>
<!-- Node220&#45;&gt;Node363 -->
<g id="edge28" class="edge">
<title>Node220&#45;&gt;Node363</title>
<path fill="none" stroke="#191970" d="M30.7766,-824.6104C37.4492,-853.8187 54.1529,-908.4703 90,-938 94.6361,-941.8191 99.9444,-944.8826 105.5452,-947.3382"/>
<polygon fill="#191970" stroke="#191970" points="34.188,-823.8248 28.6914,-814.7673 27.3399,-825.2756 34.188,-823.8248"/>
</g>
<!-- Node364 -->
<g id="node27" class="node">
<title>Node364</title>
<g id="a_node27"><a xlink:href="class_c_net_message.html#adbc1669a56462daea5f37e5e99117f8c" target="_top" xlink:title="CNetMessage::readData">
<polygon fill="#ffffff" stroke="#000000" points="102,-909.5 102,-928.5 227,-928.5 227,-909.5 102,-909.5"/>
<text text-anchor="middle" x="164.5" y="-916.5" font-family="Helvetica,sans-Serif" font-size="10.00" fill="#000000">CNetMessage::readData</text>
</a>
</g>
</g>
<!-- Node220&#45;&gt;Node364 -->
<g id="edge29" class="edge">
<title>Node220&#45;&gt;Node364</title>
<path fill="none" stroke="#191970" d="M34.5304,-823.966C44.1342,-845.6711 62.8212,-880.7005 90,-900 95.4416,-903.8641 101.5996,-906.9435 107.9864,-909.3975"/>
<polygon fill="#191970" stroke="#191970" points="37.6545,-822.3665 30.548,-814.5084 31.2031,-825.083 37.6545,-822.3665"/>
</g>
<!-- Node318 -->
<g id="node28" class="node">
<title>Node318</title>
<g id="a_node28"><a xlink:href="class_c_connman.html#adc69330bc472e50487030c031d5063db" target="_top" xlink:title="CConnman::PushMessage">
<polygon fill="#ffffff" stroke="#000000" points="97.5,-871.5 97.5,-890.5 231.5,-890.5 231.5,-871.5 97.5,-871.5"/>
<text text-anchor="middle" x="164.5" y="-878.5" font-family="Helvetica,sans-Serif" font-size="10.00" fill="#000000">CConnman::PushMessage</text>
</a>
</g>
</g>
<!-- Node220&#45;&gt;Node318 -->
<g id="edge30" class="edge">
<title>Node220&#45;&gt;Node318</title>
<path fill="none" stroke="#191970" d="M41.786,-822.3169C53.5994,-835.0887 71.2366,-851.9297 90,-862 97.1743,-865.8505 105.1596,-868.9447 113.162,-871.4245"/>
<polygon fill="#191970" stroke="#191970" points="44.184,-819.7477 34.9106,-814.6237 38.9646,-824.4122 44.184,-819.7477"/>
</g>
<!-- Node365 -->
<g id="node29" class="node">
<title>Node365</title>
<g id="a_node29"><a xlink:href="class_c_net_addr.html#a1c6087345e5ca07a151451cd6deb974f" target="_top" xlink:title="CNetAddr::SetIP">
<polygon fill="#ffffff" stroke="#000000" points="119,-833.5 119,-852.5 210,-852.5 210,-833.5 119,-833.5"/>
<text text-anchor="middle" x="164.5" y="-840.5" font-family="Helvetica,sans-Serif" font-size="10.00" fill="#000000">CNetAddr::SetIP</text>
</a>
</g>
</g>
<!-- Node220&#45;&gt;Node365 -->
<g id="edge31" class="edge">
<title>Node220&#45;&gt;Node365</title>
<path fill="none" stroke="#191970" d="M63.931,-816.429C72.4711,-818.9908 81.5355,-821.6454 90,-824 101.5738,-827.2195 114.2177,-830.5236 125.7488,-833.4549"/>
<polygon fill="#191970" stroke="#191970" points="64.7992,-813.035 54.214,-813.4877 62.7712,-819.7348 64.7992,-813.035"/>
</g>
<!-- Node366 -->
<g id="node30" class="node">
<title>Node366</title>
<g id="a_node30"><a xlink:href="class_c_net_addr.html#a1f0b23aca4ca78c11735d13f3583b7ad" target="_top" xlink:title="Set raw IPv4 or IPv6 address (in network byte order) ">
<polygon fill="#ffffff" stroke="#ff0000" points="114,-795.5 114,-814.5 215,-814.5 215,-795.5 114,-795.5"/>
<text text-anchor="middle" x="164.5" y="-802.5" font-family="Helvetica,sans-Serif" font-size="10.00" fill="#000000">CNetAddr::SetRaw</text>
</a>
</g>
</g>
<!-- Node220&#45;&gt;Node366 -->
<g id="edge32" class="edge">
<title>Node220&#45;&gt;Node366</title>
<path fill="none" stroke="#191970" d="M64.2404,-805C79.4734,-805 97.34,-805 113.738,-805"/>
<polygon fill="#191970" stroke="#191970" points="64.1656,-801.5001 54.1656,-805 64.1655,-808.5001 64.1656,-801.5001"/>
</g>
<!-- Node368 -->
<g id="node31" class="node">
<title>Node368</title>
<g id="a_node31"><a xlink:href="class_c_net_addr.html#a4f73432c55d4acb6b9e4c54833eefea6" target="_top" xlink:title="CNetAddr::GetInAddr">
<polygon fill="#ffffff" stroke="#ff0000" points="109.5,-757.5 109.5,-776.5 219.5,-776.5 219.5,-757.5 109.5,-757.5"/>
<text text-anchor="middle" x="164.5" y="-764.5" font-family="Helvetica,sans-Serif" font-size="10.00" fill="#000000">CNetAddr::GetInAddr</text>
</a>
</g>
</g>
<!-- Node220&#45;&gt;Node368 -->
<g id="edge34" class="edge">
<title>Node220&#45;&gt;Node368</title>
<path fill="none" stroke="#191970" d="M63.931,-793.571C72.4711,-791.0092 81.5355,-788.3546 90,-786 101.5738,-782.7805 114.2177,-779.4764 125.7488,-776.5451"/>
<polygon fill="#191970" stroke="#191970" points="62.7712,-790.2652 54.214,-796.5123 64.7992,-796.965 62.7712,-790.2652"/>
</g>
<!-- Node381 -->
<g id="node32" class="node">
<title>Node381</title>
<g id="a_node32"><a xlink:href="class_c_net_addr.html#a3616012f94b27148e5b8e27d943d4884" target="_top" xlink:title="CNetAddr::GetIn6Addr">
<polygon fill="#ffffff" stroke="#ff0000" points="106.5,-719.5 106.5,-738.5 222.5,-738.5 222.5,-719.5 106.5,-719.5"/>
<text text-anchor="middle" x="164.5" y="-726.5" font-family="Helvetica,sans-Serif" font-size="10.00" fill="#000000">CNetAddr::GetIn6Addr</text>
</a>
</g>
</g>
<!-- Node220&#45;&gt;Node381 -->
<g id="edge35" class="edge">
<title>Node220&#45;&gt;Node381</title>
<path fill="none" stroke="#191970" d="M41.786,-787.6831C53.5994,-774.9113 71.2366,-758.0703 90,-748 97.1743,-744.1495 105.1596,-741.0553 113.162,-738.5755"/>
<polygon fill="#191970" stroke="#191970" points="38.9646,-785.5878 34.9106,-795.3763 44.184,-790.2523 38.9646,-785.5878"/>
</g>
<!-- Node319 -->
<g id="node33" class="node">
<title>Node319</title>
<g id="a_node33"><a xlink:href="class_c_net_addr.html#a8fae7d32e83e9fbb9ce0216f896133c9" target="_top" xlink:title="CNetAddr::GetHash">
<polygon fill="#ffffff" stroke="#ff0000" points="112,-681.5 112,-700.5 217,-700.5 217,-681.5 112,-681.5"/>
<text text-anchor="middle" x="164.5" y="-688.5" font-family="Helvetica,sans-Serif" font-size="10.00" fill="#000000">CNetAddr::GetHash</text>
</a>
</g>
</g>
<!-- Node220&#45;&gt;Node319 -->
<g id="edge36" class="edge">
<title>Node220&#45;&gt;Node319</title>
<path fill="none" stroke="#191970" d="M34.5304,-786.034C44.1342,-764.3289 62.8212,-729.2995 90,-710 96.53,-705.3631 104.0914,-701.8561 111.8421,-699.204"/>
<polygon fill="#191970" stroke="#191970" points="31.2031,-784.917 30.548,-795.4916 37.6545,-787.6335 31.2031,-784.917"/>
</g>
<!-- Node382 -->
<g id="node34" class="node">
<title>Node382</title>
<g id="a_node34"><a xlink:href="class_c_service.html#af21ea7db4318330b337c8bfdcc55aff0" target="_top" xlink:title="CService::GetKey">
<polygon fill="#ffffff" stroke="#ff0000" points="116.5,-643.5 116.5,-662.5 212.5,-662.5 212.5,-643.5 116.5,-643.5"/>
<text text-anchor="middle" x="164.5" y="-650.5" font-family="Helvetica,sans-Serif" font-size="10.00" fill="#000000">CService::GetKey</text>
</a>
</g>
</g>
<!-- Node220&#45;&gt;Node382 -->
<g id="edge37" class="edge">
<title>Node220&#45;&gt;Node382</title>
<path fill="none" stroke="#191970" d="M30.7766,-785.3896C37.4492,-756.1813 54.1529,-701.5297 90,-672 97.5209,-665.8046 106.8104,-661.5975 116.2483,-658.7486"/>
<polygon fill="#191970" stroke="#191970" points="27.3399,-784.7244 28.6914,-795.2327 34.188,-786.1752 27.3399,-784.7244"/>
</g>
<!-- Node385 -->
<g id="node35" class="node">
<title>Node385</title>
<g id="a_node35"><a xlink:href="classprevector.html#a0e673654d3b7d8d6f79534e17f68741a" target="_top" xlink:title="prevector::change_capacity">
<polygon fill="#ffffff" stroke="#ff0000" points="96,-605.5 96,-624.5 233,-624.5 233,-605.5 96,-605.5"/>
<text text-anchor="middle" x="164.5" y="-612.5" font-family="Helvetica,sans-Serif" font-size="10.00" fill="#000000">prevector::change_capacity</text>
</a>
</g>
</g>
<!-- Node220&#45;&gt;Node385 -->
<g id="edge38" class="edge">
<title>Node220&#45;&gt;Node385</title>
<path fill="none" stroke="#191970" d="M28.4778,-785.0126C32.2235,-749.261 45.2639,-674.3389 90,-634 94.2626,-630.1564 99.1952,-627.0679 104.4524,-624.5893"/>
<polygon fill="#191970" stroke="#191970" points="24.976,-784.8754 27.5598,-795.1503 31.9475,-785.5067 24.976,-784.8754"/>
</g>
<!-- Node406 -->
<g id="node36" class="node">
<title>Node406</title>
<g id="a_node36"><a xlink:href="class_c_message_header.html#af2b7b2dbd21363099e3da99699d93d59" target="_top" xlink:title="CMessageHeader::CMessage\lHeader">
<polygon fill="#ffffff" stroke="#000000" points="90,-556 90,-586 239,-586 239,-556 90,-556"/>
<text text-anchor="start" x="98" y="-574" font-family="Helvetica,sans-Serif" font-size="10.00" fill="#000000">CMessageHeader::CMessage</text>
<text text-anchor="middle" x="164.5" y="-563" font-family="Helvetica,sans-Serif" font-size="10.00" fill="#000000">Header</text>
</a>
</g>
</g>
<!-- Node220&#45;&gt;Node406 -->
<g id="edge39" class="edge">
<title>Node220&#45;&gt;Node406</title>
<path fill="none" stroke="#191970" d="M30.5685,-785.2347C39.351,-738.6051 63.2542,-623.5877 90,-596 93.7036,-592.1798 98.0077,-588.9434 102.6436,-586.2016"/>
<polygon fill="#191970" stroke="#191970" points="27.0864,-784.8172 28.7113,-795.2867 33.9699,-786.0891 27.0864,-784.8172"/>
</g>
<!-- Node356 -->
<g id="node37" class="node">
<title>Node356</title>
<g id="a_node37"><a xlink:href="class_c_pub_key.html#ac28722f47ab8a613bf9982608d13aa1f" target="_top" xlink:title="Derive BIP32 child pubkey. ">
<polygon fill="#ffffff" stroke="#000000" points="302,-441.5 302,-460.5 395,-460.5 395,-441.5 302,-441.5"/>
<text text-anchor="middle" x="348.5" y="-448.5" font-family="Helvetica,sans-Serif" font-size="10.00" fill="#000000">CPubKey::Derive</text>
</a>
</g>
</g>
<!-- Node220&#45;&gt;Node356 -->
<g id="edge40" class="edge">
<title>Node220&#45;&gt;Node356</title>
<path fill="none" stroke="#191970" d="M28.5438,-785.1358C34.8533,-706.4891 59.785,-419.9364 90,-394 164.2757,-330.2421 293.9053,-412.0411 335.3572,-441.3192"/>
<polygon fill="#191970" stroke="#191970" points="25.0492,-784.9302 27.7496,-795.1751 32.0274,-785.4823 25.0492,-784.9302"/>
</g>
<!-- Node407 -->
<g id="node38" class="node">
<title>Node407</title>
<g id="a_node38"><a xlink:href="struct_c_ext_pub_key.html#a255413be17160639462d79d4bac0544c" target="_top" xlink:title="CExtPubKey::Encode">
<polygon fill="#ffffff" stroke="#ff0000" points="108,-479.5 108,-498.5 221,-498.5 221,-479.5 108,-479.5"/>
<text text-anchor="middle" x="164.5" y="-486.5" font-family="Helvetica,sans-Serif" font-size="10.00" fill="#000000">CExtPubKey::Encode</text>
</a>
</g>
</g>
<!-- Node220&#45;&gt;Node407 -->
<g id="edge41" class="edge">
<title>Node220&#45;&gt;Node407</title>
<path fill="none" stroke="#191970" d="M28.523,-785.1609C33.5145,-725.3252 51.3269,-548.2795 90,-508 94.992,-502.8006 101.1929,-498.9493 107.8705,-496.1087"/>
<polygon fill="#191970" stroke="#191970" points="25.0053,-785.2418 27.6932,-795.49 31.9828,-785.8024 25.0053,-785.2418"/>
</g>
<!-- Node408 -->
<g id="node39" class="node">
<title>Node408</title>
<g id="a_node39"><a xlink:href="struct_c_ext_pub_key.html#aa3038d8cc3d641842fcace7c4d942d53" target="_top" xlink:title="CExtPubKey::Decode">
<polygon fill="#ffffff" stroke="#ff0000" points="108,-441.5 108,-460.5 221,-460.5 221,-441.5 108,-441.5"/>
<text text-anchor="middle" x="164.5" y="-448.5" font-family="Helvetica,sans-Serif" font-size="10.00" fill="#000000">CExtPubKey::Decode</text>
</a>
</g>
</g>
<!-- Node220&#45;&gt;Node408 -->
<g id="edge42" class="edge">
<title>Node220&#45;&gt;Node408</title>
<path fill="none" stroke="#191970" d="M28.0006,-785.1964C31.6751,-720.4154 46.5518,-516.3136 90,-470 94.9316,-464.7432 101.0975,-460.8587 107.7576,-458.0015"/>
<polygon fill="#191970" stroke="#191970" points="24.4997,-785.12 27.4561,-795.294 31.4896,-785.4969 24.4997,-785.12"/>
</g>
<!-- Node409 -->
<g id="node40" class="node">
<title>Node409</title>
<g id="a_node40"><a xlink:href="struct_c_ext_pub_key.html#a2dae8fcc00b9617589dd0b1444f95ec8" target="_top" xlink:title="CExtPubKey::Derive">
<polygon fill="#ffffff" stroke="#000000" points="110.5,-403.5 110.5,-422.5 218.5,-422.5 218.5,-403.5 110.5,-403.5"/>
<text text-anchor="middle" x="164.5" y="-410.5" font-family="Helvetica,sans-Serif" font-size="10.00" fill="#000000">CExtPubKey::Derive</text>
</a>
</g>
</g>
<!-- Node220&#45;&gt;Node409 -->
<g id="edge43" class="edge">
<title>Node220&#45;&gt;Node409</title>
<path fill="none" stroke="#191970" d="M27.5828,-785.2438C30.0347,-715.817 41.7488,-484.3998 90,-432 95.5155,-426.0103 102.6324,-421.7963 110.2745,-418.8518"/>
<polygon fill="#191970" stroke="#191970" points="24.0836,-785.1647 27.2547,-795.2738 31.0799,-785.3936 24.0836,-785.1647"/>
</g>
<!-- Node410 -->
<g id="node41" class="node">
<title>Node410</title>
<g id="a_node41"><a xlink:href="class_c_pub_key.html#af59bc1d3be119c1f8b49d3c1e2c0797b" target="_top" xlink:title="Initialize a public key using begin/end iterators to byte data. ">
<polygon fill="#ffffff" stroke="#ff0000" points="124.5,-517.5 124.5,-536.5 204.5,-536.5 204.5,-517.5 124.5,-517.5"/>
<text text-anchor="middle" x="164.5" y="-524.5" font-family="Helvetica,sans-Serif" font-size="10.00" fill="#000000">CPubKey::Set</text>
</a>
</g>
</g>
<!-- Node220&#45;&gt;Node410 -->
<g id="edge44" class="edge">
<title>Node220&#45;&gt;Node410</title>
<path fill="none" stroke="#191970" d="M29.1837,-785.2255C35.5902,-730.7607 56.0511,-580.3279 90,-546 99.0105,-536.8889 111.7397,-531.9393 124.1315,-529.3112"/>
<polygon fill="#191970" stroke="#191970" points="25.6888,-784.9819 28.0301,-795.3148 32.6435,-785.7771 25.6888,-784.9819"/>
</g>
<!-- Node413 -->
<g id="node42" class="node">
<title>Node413</title>
<g id="a_node42"><a xlink:href="class_fast_random_context.html#aaa7592f37a6e2b0ea2ce38f0b0ef0474" target="_top" xlink:title="generate a random uint256. ">
<polygon fill="#ffffff" stroke="#ff0000" points="108,-316 108,-346 221,-346 221,-316 108,-316"/>
<text text-anchor="start" x="116" y="-334" font-family="Helvetica,sans-Serif" font-size="10.00" fill="#000000">FastRandomContext::</text>
<text text-anchor="middle" x="164.5" y="-323" font-family="Helvetica,sans-Serif" font-size="10.00" fill="#000000">rand256</text>
</a>
</g>
</g>
<!-- Node220&#45;&gt;Node413 -->
<g id="edge46" class="edge">
<title>Node220&#45;&gt;Node413</title>
<path fill="none" stroke="#191970" d="M27.2594,-784.8332C28.6421,-707.1581 37.2576,-428.335 90,-361 94.8149,-354.853 101.0882,-349.9597 107.9514,-346.0659"/>
<polygon fill="#191970" stroke="#191970" points="23.755,-785.0961 27.0987,-795.1494 30.7541,-785.2052 23.755,-785.0961"/>
</g>
<!-- Node415 -->
<g id="node43" class="node">
<title>Node415</title>
<g id="a_node43"><a xlink:href="class_signature_cache_hasher.html#a0660dfa23ebde86acd993d116fc039e7" target="_top" xlink:title="SignatureCacheHasher\l::operator()">
<polygon fill="#ffffff" stroke="#000000" points="105.5,-267 105.5,-297 223.5,-297 223.5,-267 105.5,-267"/>
<text text-anchor="start" x="113.5" y="-285" font-family="Helvetica,sans-Serif" font-size="10.00" fill="#000000">SignatureCacheHasher</text>
<text text-anchor="middle" x="164.5" y="-274" font-family="Helvetica,sans-Serif" font-size="10.00" fill="#000000">::operator()</text>
</a>
</g>
</g>
<!-- Node220&#45;&gt;Node415 -->
<g id="edge47" class="edge">
<title>Node220&#45;&gt;Node415</title>
<path fill="none" stroke="#191970" d="M28.248,-785.2585C33.9739,-697.284 58.7924,-343.6302 90,-306 94.2505,-300.8748 99.6032,-296.8323 105.4806,-293.6458"/>
<polygon fill="#191970" stroke="#191970" points="24.7418,-785.245 27.5934,-795.4488 31.7274,-785.6938 24.7418,-785.245"/>
</g>
<!-- Node416 -->
<g id="node44" class="node">
<title>Node416</title>
<g id="a_node44"><a xlink:href="tests_8c.html#a32498e86a99a258f68cd4b1176f47966" target="_top" xlink:title="run_eckey_edge_case_test">
<polygon fill="#ffffff" stroke="#000000" points="96.5,-228.5 96.5,-247.5 232.5,-247.5 232.5,-228.5 96.5,-228.5"/>
<text text-anchor="middle" x="164.5" y="-235.5" font-family="Helvetica,sans-Serif" font-size="10.00" fill="#000000">run_eckey_edge_case_test</text>
</a>
</g>
</g>
<!-- Node220&#45;&gt;Node416 -->
<g id="edge48" class="edge">
<title>Node220&#45;&gt;Node416</title>
<path fill="none" stroke="#191970" d="M27.9519,-785.3622C32.6389,-692.2084 54.4774,-297.6839 90,-257 93.3361,-253.1792 97.3232,-250.0741 101.6947,-247.5563"/>
<polygon fill="#191970" stroke="#191970" points="24.4539,-785.237 27.4552,-795.3979 31.4454,-785.5831 24.4539,-785.237"/>
</g>
<!-- Node417 -->
<g id="node45" class="node">
<title>Node417</title>
<g id="a_node45"><a xlink:href="class_c_vector_writer.html#a8addb154bec272bf0006542899cdfd75" target="_top" xlink:title="CVectorWriter::write">
<polygon fill="#ffffff" stroke="#000000" points="111.5,-190.5 111.5,-209.5 217.5,-209.5 217.5,-190.5 111.5,-190.5"/>
<text text-anchor="middle" x="164.5" y="-197.5" font-family="Helvetica,sans-Serif" font-size="10.00" fill="#000000">CVectorWriter::write</text>
</a>
</g>
</g>
<!-- Node220&#45;&gt;Node417 -->
<g id="edge49" class="edge">
<title>Node220&#45;&gt;Node417</title>
<path fill="none" stroke="#191970" d="M27.8162,-784.9355C31.9728,-687.0704 52.0866,-262.7461 90,-219 95.6823,-212.4435 103.282,-207.9915 111.459,-204.9981"/>
<polygon fill="#191970" stroke="#191970" points="24.3077,-785.0673 27.3883,-795.2044 31.3017,-785.3588 24.3077,-785.0673"/>
</g>
<!-- Node418 -->
<g id="node46" class="node">
<title>Node418</title>
<g id="a_node46"><a xlink:href="class_c_data_stream.html#aa15a60d7ee6d987de444426f2825f284" target="_top" xlink:title="CDataStream::insert">
<polygon fill="#ffffff" stroke="#000000" points="111,-152.5 111,-171.5 218,-171.5 218,-152.5 111,-152.5"/>
<text text-anchor="middle" x="164.5" y="-159.5" font-family="Helvetica,sans-Serif" font-size="10.00" fill="#000000">CDataStream::insert</text>
</a>
</g>
</g>
<!-- Node220&#45;&gt;Node418 -->
<g id="edge50" class="edge">
<title>Node220&#45;&gt;Node418</title>
<path fill="none" stroke="#191970" d="M27.6784,-784.9206C31.2913,-683.2117 49.6391,-227.8761 90,-181 95.4869,-174.6274 102.7851,-170.2407 110.6708,-167.2483"/>
<polygon fill="#191970" stroke="#191970" points="24.1756,-784.9451 27.326,-795.0607 31.1713,-785.1884 24.1756,-784.9451"/>
</g>
<!-- Node419 -->
<g id="node47" class="node">
<title>Node419</title>
<g id="a_node47"><a xlink:href="class_c_data_stream.html#a7578424f13a803da424ce2664c27451c" target="_top" xlink:title="CDataStream::read">
<polygon fill="#ffffff" stroke="#000000" points="114,-114.5 114,-133.5 215,-133.5 215,-114.5 114,-114.5"/>
<text text-anchor="middle" x="164.5" y="-121.5" font-family="Helvetica,sans-Serif" font-size="10.00" fill="#000000">CDataStream::read</text>
</a>
</g>
</g>
<!-- Node220&#45;&gt;Node419 -->
<g id="edge51" class="edge">
<title>Node220&#45;&gt;Node419</title>
<path fill="none" stroke="#191970" d="M27.5426,-785.3713C30.6031,-680.9053 47.124,-193.0872 90,-143 96.163,-135.8005 104.6379,-131.133 113.6684,-128.1468"/>
<polygon fill="#191970" stroke="#191970" points="24.0415,-785.3644 27.2545,-795.4603 31.0386,-785.5643 24.0415,-785.3644"/>
</g>
<!-- Node420 -->
<g id="node48" class="node">
<title>Node420</title>
<g id="a_node48"><a xlink:href="class_c_buffered_file.html#a58985fb633dea4616acf648e01388aaa" target="_top" xlink:title="CBufferedFile::read">
<polygon fill="#ffffff" stroke="#000000" points="114,-76.5 114,-95.5 215,-95.5 215,-76.5 114,-76.5"/>
<text text-anchor="middle" x="164.5" y="-83.5" font-family="Helvetica,sans-Serif" font-size="10.00" fill="#000000">CBufferedFile::read</text>
</a>
</g>
</g>
<!-- Node220&#45;&gt;Node420 -->
<g id="edge52" class="edge">
<title>Node220&#45;&gt;Node420</title>
<path fill="none" stroke="#191970" d="M27.438,-785.2712C30.0154,-677.0296 44.6788,-158.2189 90,-105 96.1445,-97.7847 104.6113,-93.1102 113.6395,-90.1221"/>
<polygon fill="#191970" stroke="#191970" points="23.9354,-785.3475 27.2036,-795.4256 30.9336,-785.5091 23.9354,-785.3475"/>
</g>
<!-- Node421 -->
<g id="node49" class="node">
<title>Node421</title>
<g id="a_node49"><a xlink:href="classbase__blob.html#a874bc08d9039eb202fb2ab95dd9f49a0" target="_top" xlink:title="base_blob\&lt; 256 \&gt;::base_blob">
<polygon fill="#ffffff" stroke="#000000" points="92,-38.5 92,-57.5 237,-57.5 237,-38.5 92,-38.5"/>
<text text-anchor="middle" x="164.5" y="-45.5" font-family="Helvetica,sans-Serif" font-size="10.00" fill="#000000">base_blob&lt; 256 &gt;::base_blob</text>
</a>
</g>
</g>
<!-- Node220&#45;&gt;Node421 -->
<g id="edge53" class="edge">
<title>Node220&#45;&gt;Node421</title>
<path fill="none" stroke="#191970" d="M27.3418,-785.2583C29.4506,-673.5178 42.2183,-123.3702 90,-67 93.1934,-63.2326 97.02,-60.1573 101.23,-57.6527"/>
<polygon fill="#191970" stroke="#191970" points="23.8392,-785.3711 27.1568,-795.433 30.8381,-785.4983 23.8392,-785.3711"/>
</g>
<!-- Node422 -->
<g id="node50" class="node">
<title>Node422</title>
<g id="a_node50"><a xlink:href="class_c_crypter.html#a0d948dd4796e2420e1dd9c1ddbf7974e" target="_top" xlink:title="CCrypter::SetKey">
<polygon fill="#ffffff" stroke="#000000" points="117,-.5 117,-19.5 212,-19.5 212,-.5 117,-.5"/>
<text text-anchor="middle" x="164.5" y="-7.5" font-family="Helvetica,sans-Serif" font-size="10.00" fill="#000000">CCrypter::SetKey</text>
</a>
</g>
</g>
<!-- Node220&#45;&gt;Node422 -->
<g id="edge54" class="edge">
<title>Node220&#45;&gt;Node422</title>
<path fill="none" stroke="#191970" d="M27.2535,-785.3285C28.9093,-670.3723 39.7425,-88.5412 90,-29 96.8017,-20.9419 106.5001,-16.0478 116.6597,-13.1323"/>
<polygon fill="#191970" stroke="#191970" points="23.7519,-785.4333 27.1142,-795.4804 30.7512,-785.5294 23.7519,-785.4333"/>
</g>
<!-- Node223 -->
<g id="node4" class="node">
<title>Node223</title>
<g id="a_node4"><a xlink:href="class_c_script_compressor.html#a6e8b76d96a963cf79fccf6b180a56fff" target="_top" xlink:title="CScriptCompressor::\lUnserialize">
<polygon fill="#ffffff" stroke="#000000" points="294,-1592 294,-1622 403,-1622 403,-1592 294,-1592"/>
<text text-anchor="start" x="302" y="-1610" font-family="Helvetica,sans-Serif" font-size="10.00" fill="#000000">CScriptCompressor::</text>
<text text-anchor="middle" x="348.5" y="-1599" font-family="Helvetica,sans-Serif" font-size="10.00" fill="#000000">Unserialize</text>
</a>
</g>
</g>
<!-- Node222&#45;&gt;Node223 -->
<g id="edge3" class="edge">
<title>Node222&#45;&gt;Node223</title>
<path fill="none" stroke="#191970" d="M223.4771,-1538.837C228.8809,-1540.8655 234.1426,-1543.2346 239,-1546 258.6639,-1557.1951 255.7884,-1570.0453 275,-1582 281.0651,-1585.7741 287.7693,-1589.0571 294.5879,-1591.8905"/>
<polygon fill="#191970" stroke="#191970" points="224.2476,-1535.4039 213.6536,-1535.5417 222.0213,-1542.0404 224.2476,-1535.4039"/>
</g>
<!-- Node227 -->
<g id="node8" class="node">
<title>Node227</title>
<g id="a_node8"><a xlink:href="class_c_hash160.html#a9bb08e1772002ae1a5d85017ba7952ee" target="_top" xlink:title="CHash160::Finalize">
<polygon fill="#ffffff" stroke="#ff0000" points="297,-1553.5 297,-1572.5 400,-1572.5 400,-1553.5 297,-1553.5"/>
<text text-anchor="middle" x="348.5" y="-1560.5" font-family="Helvetica,sans-Serif" font-size="10.00" fill="#000000">CHash160::Finalize</text>
</a>
</g>
</g>
<!-- Node226&#45;&gt;Node227 -->
<g id="edge7" class="edge">
<title>Node226&#45;&gt;Node227</title>
<path fill="none" stroke="#191970" d="M226.4671,-1502.001C230.8185,-1503.7578 235.0434,-1505.7474 239,-1508 258.6639,-1519.1951 255.3543,-1532.773 275,-1544 281.7514,-1547.8583 289.2949,-1550.9473 296.9067,-1553.4168"/>
<polygon fill="#191970" stroke="#191970" points="227.3885,-1498.6128 216.7941,-1498.5155 225.0155,-1505.1983 227.3885,-1498.6128"/>
</g>
<!-- Node297 -->
<g id="node9" class="node">
<title>Node297</title>
<g id="a_node9"><a xlink:href="class_c_affected_keys_visitor.html#a4ebd0f815bc3846d906c796d68d127bf" target="_top" xlink:title="CAffectedKeysVisitor\l::operator()">
<polygon fill="#ffffff" stroke="#000000" points="293,-1504 293,-1534 404,-1534 404,-1504 293,-1504"/>
<text text-anchor="start" x="301" y="-1522" font-family="Helvetica,sans-Serif" font-size="10.00" fill="#000000">CAffectedKeysVisitor</text>
<text text-anchor="middle" x="348.5" y="-1511" font-family="Helvetica,sans-Serif" font-size="10.00" fill="#000000">::operator()</text>
</a>
</g>
</g>
<!-- Node226&#45;&gt;Node297 -->
<g id="edge8" class="edge">
<title>Node226&#45;&gt;Node297</title>
<path fill="none" stroke="#191970" d="M229.2003,-1499.549C249.9303,-1502.9289 272.6938,-1506.6403 292.7292,-1509.9069"/>
<polygon fill="#191970" stroke="#191970" points="229.6408,-1496.0746 219.2079,-1497.9198 228.5143,-1502.9834 229.6408,-1496.0746"/>
</g>
<!-- Node298 -->
<g id="node10" class="node">
<title>Node298</title>
<g id="a_node10"><a xlink:href="class_describe_wallet_address_visitor.html#adfeae0c0a64544469554ab352ea8c891" target="_top" xlink:title="DescribeWalletAddressVisitor\l::operator()">
<polygon fill="#ffffff" stroke="#000000" points="275,-1455 275,-1485 422,-1485 422,-1455 275,-1455"/>
<text text-anchor="start" x="283" y="-1473" font-family="Helvetica,sans-Serif" font-size="10.00" fill="#000000">DescribeWalletAddressVisitor</text>
<text text-anchor="middle" x="348.5" y="-1462" font-family="Helvetica,sans-Serif" font-size="10.00" fill="#000000">::operator()</text>
</a>
</g>
</g>
<!-- Node226&#45;&gt;Node298 -->
<g id="edge9" class="edge">
<title>Node226&#45;&gt;Node298</title>
<path fill="none" stroke="#191970" d="M229.2467,-1482.3142C244.0155,-1480.7892 259.8143,-1479.1578 274.922,-1477.5977"/>
<polygon fill="#191970" stroke="#191970" points="228.7955,-1478.8421 219.2079,-1483.3508 229.5145,-1485.8051 228.7955,-1478.8421"/>
</g>
<!-- Node300&#45;&gt;Node224 -->
<g id="edge12" class="edge">
<title>Node300&#45;&gt;Node224</title>
<path fill="none" stroke="#191970" d="M210.6917,-1311.6816C220.2429,-1314.9097 230.0996,-1318.7025 239,-1323 256.3167,-1331.3612 257.7516,-1338.4987 275,-1347 282.3747,-1350.6348 290.4081,-1353.9568 298.3675,-1356.9088"/>
<polygon fill="#191970" stroke="#191970" points="211.4934,-1308.2627 200.9018,-1308.5246 209.3449,-1314.9249 211.4934,-1308.2627"/>
</g>
<!-- Node301 -->
<g id="node13" class="node">
<title>Node301</title>
<g id="a_node13"><a xlink:href="class_c_h_m_a_c___s_h_a256.html#a1cc600fd485b79dc52e11b12635c6dbe" target="_top" xlink:title="CHMAC_SHA256::Finalize">
<polygon fill="#ffffff" stroke="#000000" points="280.5,-1318.5 280.5,-1337.5 416.5,-1337.5 416.5,-1318.5 280.5,-1318.5"/>
<text text-anchor="middle" x="348.5" y="-1325.5" font-family="Helvetica,sans-Serif" font-size="10.00" fill="#000000">CHMAC_SHA256::Finalize</text>
</a>
</g>
</g>
<!-- Node300&#45;&gt;Node301 -->
<g id="edge13" class="edge">
<title>Node300&#45;&gt;Node301</title>
<path fill="none" stroke="#191970" d="M219.4919,-1307.6672C241.0644,-1311.0672 265.8947,-1314.9807 287.9748,-1318.4607"/>
<polygon fill="#191970" stroke="#191970" points="219.9345,-1304.1938 209.5115,-1306.0942 218.8446,-1311.1085 219.9345,-1304.1938"/>
</g>
<!-- Node302 -->
<g id="node14" class="node">
<title>Node302</title>
<g id="a_node14"><a xlink:href="class_c_h_m_a_c___s_h_a256.html#a24ac9cf00e60d8028ab79df4aed984ff" target="_top" xlink:title="CHMAC_SHA256::Write">
<polygon fill="#ffffff" stroke="#000000" points="458,-1299.5 458,-1318.5 583,-1318.5 583,-1299.5 458,-1299.5"/>
<text text-anchor="middle" x="520.5" y="-1306.5" font-family="Helvetica,sans-Serif" font-size="10.00" fill="#000000">CHMAC_SHA256::Write</text>
</a>
</g>
</g>
<!-- Node300&#45;&gt;Node302 -->
<g id="edge15" class="edge">
<title>Node300&#45;&gt;Node302</title>
<path fill="none" stroke="#191970" d="M219.948,-1300.5575C284.3831,-1302.3675 390.4568,-1305.3471 457.8271,-1307.2395"/>
<polygon fill="#191970" stroke="#191970" points="219.682,-1297.0488 209.5876,-1300.2665 219.4854,-1304.046 219.682,-1297.0488"/>
</g>
<!-- Node303 -->
<g id="node15" class="node">
<title>Node303</title>
<g id="a_node15"><a xlink:href="class_c_hash256.html#aa8a70c1b7cf24ce7d00240a1131cf4e7" target="_top" xlink:title="CHash256::Finalize">
<polygon fill="#ffffff" stroke="#ff0000" points="297,-1242.5 297,-1261.5 400,-1261.5 400,-1242.5 297,-1242.5"/>
<text text-anchor="middle" x="348.5" y="-1249.5" font-family="Helvetica,sans-Serif" font-size="10.00" fill="#000000">CHash256::Finalize</text>
</a>
</g>
</g>
<!-- Node300&#45;&gt;Node303 -->
<g id="edge16" class="edge">
<title>Node300&#45;&gt;Node303</title>
<path fill="none" stroke="#191970" d="M211.4245,-1287.0139C242.3212,-1279.1218 282.2267,-1268.9285 311.0049,-1261.5776"/>
<polygon fill="#191970" stroke="#191970" points="210.5578,-1283.6228 201.7351,-1289.4888 212.2903,-1290.405 210.5578,-1283.6228"/>
</g>
<!-- Node341 -->
<g id="node16" class="node">
<title>Node341</title>
<g id="a_node16"><a xlink:href="class_c_hash256.html#a9cc25033c6435cb28e2e8e377c949a7a" target="_top" xlink:title="CHash256::Write">
<polygon fill="#ffffff" stroke="#ff0000" points="302.5,-1204.5 302.5,-1223.5 394.5,-1223.5 394.5,-1204.5 302.5,-1204.5"/>
<text text-anchor="middle" x="348.5" y="-1211.5" font-family="Helvetica,sans-Serif" font-size="10.00" fill="#000000">CHash256::Write</text>
</a>
</g>
</g>
<!-- Node300&#45;&gt;Node341 -->
<g id="edge17" class="edge">
<title>Node300&#45;&gt;Node341</title>
<path fill="none" stroke="#191970" d="M217.3431,-1286.0259C224.9326,-1283.0283 232.3969,-1279.3917 239,-1275 259.4712,-1261.3848 254.1381,-1246.0088 275,-1233 283.2759,-1227.8394 292.9088,-1224.0747 302.4226,-1221.3301"/>
<polygon fill="#191970" stroke="#191970" points="215.942,-1282.8103 207.718,-1289.4898 218.3124,-1289.3967 215.942,-1282.8103"/>
</g>
<!-- Node300&#45;&gt;Node350 -->
<g id="edge18" class="edge">
<title>Node300&#45;&gt;Node350</title>
<path fill="none" stroke="#191970" d="M219.5987,-1287.1797C226.6487,-1284.031 233.3601,-1280.0452 239,-1275 268.0594,-1249.0049 245.1904,-1220.1314 275,-1195 279.9376,-1190.8373 285.6777,-1187.5721 291.7324,-1185.0132"/>
<polygon fill="#191970" stroke="#191970" points="217.8942,-1284.0873 209.8441,-1290.9754 220.4327,-1290.6108 217.8942,-1284.0873"/>
</g>
<!-- Node301&#45;&gt;Node302 -->
<g id="edge14" class="edge">
<title>Node301&#45;&gt;Node302</title>
<path fill="none" stroke="#191970" d="M427.1816,-1319.3084C437.4587,-1318.1732 447.8762,-1317.0224 457.8414,-1315.9216"/>
<polygon fill="#191970" stroke="#191970" points="426.5284,-1315.8592 416.9732,-1320.4361 427.297,-1322.8169 426.5284,-1315.8592"/>
</g>
<!-- Node352&#45;&gt;Node225 -->
<g id="edge20" class="edge">
<title>Node352&#45;&gt;Node225</title>
<path fill="none" stroke="#191970" d="M219.5314,-1442.0275C238.055,-1439.0073 258.9769,-1435.5962 278.4957,-1432.4137"/>
<polygon fill="#191970" stroke="#191970" points="218.8179,-1438.5975 209.5115,-1443.6612 219.9444,-1445.5063 218.8179,-1438.5975"/>
</g>
<!-- Node410&#45;&gt;Node356 -->
<g id="edge45" class="edge">
<title>Node410&#45;&gt;Node356</title>
<path fill="none" stroke="#191970" d="M214.7469,-515.8741C222.9528,-513.577 231.2874,-510.9457 239,-508 273.837,-494.6948 311.9037,-473.1438 332.716,-460.7028"/>
<polygon fill="#191970" stroke="#191970" points="213.6146,-512.5535 204.8519,-518.5087 215.4158,-519.3178 213.6146,-512.5535"/>
</g>
</g>
</svg>
