<?xml version="1.0" encoding="UTF-8" standalone="no"?>
<!DOCTYPE svg PUBLIC "-//W3C//DTD SVG 1.1//EN"
 "http://www.w3.org/Graphics/SVG/1.1/DTD/svg11.dtd">
<!-- Generated by graphviz version 2.38.0 (20140413.2041)
 -->
<!-- Title: CWallet::AddWatchOnly Pages: 1 -->
<svg width="433pt" height="66pt"
 viewBox="0.00 0.00 433.00 66.00" xmlns="http://www.w3.org/2000/svg" xmlns:xlink="http://www.w3.org/1999/xlink">
<g id="graph0" class="graph" transform="scale(1 1) rotate(0) translate(4 62)">
<title>CWallet::AddWatchOnly</title>
<polygon fill="white" stroke="none" points="-4,4 -4,-62 429,-62 429,4 -4,4"/>
<!-- Node1 -->
<g id="node1" class="node"><title>Node1</title>
<polygon fill="#bfbfbf" stroke="black" points="0,-19.5 0,-38.5 125,-38.5 125,-19.5 0,-19.5"/>
<text text-anchor="middle" x="62.5" y="-26.5" font-family="Helvetica,sans-Serif" font-size="10.00">CWallet::AddWatchOnly</text>
</g>
<!-- Node2 -->
<g id="node2" class="node"><title>Node2</title>
<g id="a_node2"><a xlink:href="rpcwallet_8cpp.html#a9df6d8c784683e22309cb2627d21b1f2" target="_top" xlink:title="abortrescan">
<polygon fill="white" stroke="black" points="161,-38.5 161,-57.5 235,-57.5 235,-38.5 161,-38.5"/>
<text text-anchor="middle" x="198" y="-45.5" font-family="Helvetica,sans-Serif" font-size="10.00">abortrescan</text>
</a>
</g>
</g>
<!-- Node1&#45;&gt;Node2 -->
<g id="edge1" class="edge"><title>Node1&#45;&gt;Node2</title>
<path fill="none" stroke="midnightblue" d="M135.163,-39.1992C144,-40.4569 152.722,-41.6982 160.704,-42.8342"/>
<polygon fill="midnightblue" stroke="midnightblue" points="135.563,-35.721 125.17,-37.777 134.577,-42.6512 135.563,-35.721"/>
</g>
<!-- Node4 -->
<g id="node4" class="node"><title>Node4</title>
<g id="a_node4"><a xlink:href="wallet__tests_8cpp.html#a73ce3a42e0b56b2e4516e55871d8590e" target="_top" xlink:title="dumpwallet">
<polygon fill="white" stroke="black" points="162.5,-0.5 162.5,-19.5 233.5,-19.5 233.5,-0.5 162.5,-0.5"/>
<text text-anchor="middle" x="198" y="-7.5" font-family="Helvetica,sans-Serif" font-size="10.00">dumpwallet</text>
</a>
</g>
</g>
<!-- Node1&#45;&gt;Node4 -->
<g id="edge3" class="edge"><title>Node1&#45;&gt;Node4</title>
<path fill="none" stroke="midnightblue" d="M135.314,-18.7793C144.646,-17.4512 153.845,-16.1419 162.176,-14.9562"/>
<polygon fill="midnightblue" stroke="midnightblue" points="134.577,-15.3488 125.17,-20.223 135.563,-22.279 134.577,-15.3488"/>
</g>
<!-- Node3 -->
<g id="node3" class="node"><title>Node3</title>
<g id="a_node3"><a xlink:href="rpcwallet_8cpp.html#a61c7a90d1b36888fe11b751e746e18c0" target="_top" xlink:title="sethdseed">
<polygon fill="white" stroke="black" points="314.5,-38.5 314.5,-57.5 381.5,-57.5 381.5,-38.5 314.5,-38.5"/>
<text text-anchor="middle" x="348" y="-45.5" font-family="Helvetica,sans-Serif" font-size="10.00">sethdseed</text>
</a>
</g>
</g>
<!-- Node2&#45;&gt;Node3 -->
<g id="edge2" class="edge"><title>Node2&#45;&gt;Node3</title>
<path fill="none" stroke="midnightblue" d="M245.475,-48C267.79,-48 294,-48 314.198,-48"/>
<polygon fill="midnightblue" stroke="midnightblue" points="245.205,-44.5001 235.205,-48 245.205,-51.5001 245.205,-44.5001"/>
</g>
<!-- Node5 -->
<g id="node5" class="node"><title>Node5</title>
<g id="a_node5"><a xlink:href="wallet__tests_8cpp.html#a2a726fa52b0a343883cb50a3f68d0989" target="_top" xlink:title="BOOST_FIXTURE_TEST_CASE">
<polygon fill="white" stroke="black" points="271,-0.5 271,-19.5 425,-19.5 425,-0.5 271,-0.5"/>
<text text-anchor="middle" x="348" y="-7.5" font-family="Helvetica,sans-Serif" font-size="10.00">BOOST_FIXTURE_TEST_CASE</text>
</a>
</g>
</g>
<!-- Node4&#45;&gt;Node5 -->
<g id="edge4" class="edge"><title>Node4&#45;&gt;Node5</title>
<path fill="none" stroke="midnightblue" d="M243.79,-10C252.347,-10 261.524,-10 270.749,-10"/>
<polygon fill="midnightblue" stroke="midnightblue" points="243.699,-6.5001 233.699,-10 243.699,-13.5001 243.699,-6.5001"/>
</g>
</g>
</svg>
