<?xml version="1.0" encoding="UTF-8" standalone="no"?>
<!DOCTYPE svg PUBLIC "-//W3C//DTD SVG 1.1//EN"
 "http://www.w3.org/Graphics/SVG/1.1/DTD/svg11.dtd">
<!-- Generated by graphviz version 2.49.3 (0)
 -->
<!-- Title: CWallet::AddWalletFlags Pages: 1 -->
<svg width="403pt" height="85pt"
 viewBox="0.00 0.00 403.00 85.00" xmlns="http://www.w3.org/2000/svg" xmlns:xlink="http://www.w3.org/1999/xlink">
<g id="graph0" class="graph" transform="scale(1 1) rotate(0) translate(4 81)">
<title>CWallet::AddWalletFlags</title>
<polygon fill="white" stroke="transparent" points="-4,4 -4,-81 399,-81 399,4 -4,4"/>
<!-- Node1 -->
<g id="node1" class="node">
<title>Node1</title>
<g id="a_node1"><a xlink:title="overwrite all flags by the given uint64_t returns false if unknown, non&#45;tolerable flags are present">
<polygon fill="#bfbfbf" stroke="black" points="0,-38.5 0,-57.5 136,-57.5 136,-38.5 0,-38.5"/>
<text text-anchor="middle" x="68" y="-45.5" font-family="Helvetica,sans-Serif" font-size="10.00">CWallet::AddWalletFlags</text>
</a>
</g>
</g>
<!-- Node2 -->
<g id="node2" class="node">
<title>Node2</title>
<g id="a_node2"><a xlink:href="validation_8cpp.html#afb7ea74ba028421697aa7f364741ee6c" target="_top" xlink:title=" ">
<polygon fill="white" stroke="black" points="348,-57.5 348,-76.5 395,-76.5 395,-57.5 348,-57.5"/>
<text text-anchor="middle" x="371.5" y="-64.5" font-family="Helvetica,sans-Serif" font-size="10.00">assert</text>
</a>
</g>
</g>
<!-- Node1&#45;&gt;Node2 -->
<g id="edge1" class="edge">
<title>Node1&#45;&gt;Node2</title>
<path fill="none" stroke="midnightblue" d="M110.85,-57.51C129.47,-61.28 151.72,-65.15 172,-67 230.16,-72.32 298.3,-70.6 337.72,-68.82"/>
<polygon fill="midnightblue" stroke="midnightblue" points="337.99,-72.31 347.81,-68.34 337.66,-65.32 337.99,-72.31"/>
</g>
<!-- Node3 -->
<g id="node3" class="node">
<title>Node3</title>
<g id="a_node3"><a xlink:href="class_c_wallet.html#abb88996d3b157f71686af1d7a88bb35b" target="_top" xlink:title=" ">
<polygon fill="white" stroke="black" points="180,-38.5 180,-57.5 304,-57.5 304,-38.5 180,-38.5"/>
<text text-anchor="middle" x="242" y="-45.5" font-family="Helvetica,sans-Serif" font-size="10.00">CWallet::GetDatabase</text>
</a>
</g>
</g>
<!-- Node1&#45;&gt;Node3 -->
<g id="edge2" class="edge">
<title>Node1&#45;&gt;Node3</title>
<path fill="none" stroke="midnightblue" d="M136.49,-48C147.44,-48 158.81,-48 169.85,-48"/>
<polygon fill="midnightblue" stroke="midnightblue" points="169.87,-51.5 179.87,-48 169.87,-44.5 169.87,-51.5"/>
</g>
<!-- Node4 -->
<g id="node4" class="node">
<title>Node4</title>
<g id="a_node4"><a xlink:href="group__map_wallet.html#ga6dd816a09557109bc8569a593bf3f8dd" target="_top" xlink:title="Loads the flags into the wallet.">
<polygon fill="white" stroke="black" points="172,-0.5 172,-19.5 312,-19.5 312,-0.5 172,-0.5"/>
<text text-anchor="middle" x="242" y="-7.5" font-family="Helvetica,sans-Serif" font-size="10.00">CWallet::LoadWalletFlags</text>
</a>
</g>
</g>
<!-- Node1&#45;&gt;Node4 -->
<g id="edge4" class="edge">
<title>Node1&#45;&gt;Node4</title>
<path fill="none" stroke="midnightblue" d="M112.4,-38.41C135.41,-33.33 163.85,-27.04 188.13,-21.68"/>
<polygon fill="midnightblue" stroke="midnightblue" points="188.9,-25.09 197.91,-19.52 187.39,-18.26 188.9,-25.09"/>
</g>
<!-- Node3&#45;&gt;Node2 -->
<g id="edge3" class="edge">
<title>Node3&#45;&gt;Node2</title>
<path fill="none" stroke="midnightblue" d="M304.14,-57.11C315.71,-58.84 327.4,-60.58 337.67,-62.11"/>
<polygon fill="midnightblue" stroke="midnightblue" points="337.4,-65.61 347.8,-63.62 338.43,-58.68 337.4,-65.61"/>
</g>
</g>
</svg>
