<?xml version="1.0" encoding="UTF-8" standalone="no"?>
<!DOCTYPE svg PUBLIC "-//W3C//DTD SVG 1.1//EN"
 "http://www.w3.org/Graphics/SVG/1.1/DTD/svg11.dtd">
<!-- Generated by graphviz version 2.38.0 (20140413.2041)
 -->
<!-- Title: COutput::ToString Pages: 1 -->
<svg width="534pt" height="66pt"
 viewBox="0.00 0.00 534.00 66.00" xmlns="http://www.w3.org/2000/svg" xmlns:xlink="http://www.w3.org/1999/xlink">
<g id="graph0" class="graph" transform="scale(1 1) rotate(0) translate(4 62)">
<title>COutput::ToString</title>
<polygon fill="white" stroke="none" points="-4,4 -4,-62 530,-62 530,4 -4,4"/>
<!-- Node1 -->
<g id="node1" class="node"><title>Node1</title>
<polygon fill="#bfbfbf" stroke="black" points="0,-19.5 0,-38.5 101,-38.5 101,-19.5 0,-19.5"/>
<text text-anchor="middle" x="50.5" y="-26.5" font-family="Helvetica,sans-Serif" font-size="10.00">COutput::ToString</text>
</g>
<!-- Node2 -->
<g id="node2" class="node"><title>Node2</title>
<g id="a_node2"><a xlink:href="group__map_wallet.html#ga75bb37cc734fc849b64fe4f711260e0a" target="_top" xlink:title="CWalletTx::GetAmounts">
<polygon fill="white" stroke="black" points="160,-38.5 160,-57.5 288,-57.5 288,-38.5 160,-38.5"/>
<text text-anchor="middle" x="224" y="-45.5" font-family="Helvetica,sans-Serif" font-size="10.00">CWalletTx::GetAmounts</text>
</a>
</g>
</g>
<!-- Node1&#45;&gt;Node2 -->
<g id="edge1" class="edge"><title>Node1&#45;&gt;Node2</title>
<path fill="none" stroke="midnightblue" d="M111.206,-35.6146C126.897,-37.353 143.873,-39.2337 159.743,-40.9919"/>
<polygon fill="midnightblue" stroke="midnightblue" points="111.43,-32.1181 101.105,-34.4956 110.659,-39.0755 111.43,-32.1181"/>
</g>
<!-- Node4 -->
<g id="node4" class="node"><title>Node4</title>
<g id="a_node4"><a xlink:href="group__map_wallet.html#ga4c4dfefe50d9cf543fcaf39e245d3423" target="_top" xlink:title="CWalletTx::RelayWalletTransaction">
<polygon fill="white" stroke="black" points="137,-0.5 137,-19.5 311,-19.5 311,-0.5 137,-0.5"/>
<text text-anchor="middle" x="224" y="-7.5" font-family="Helvetica,sans-Serif" font-size="10.00">CWalletTx::RelayWalletTransaction</text>
</a>
</g>
</g>
<!-- Node1&#45;&gt;Node4 -->
<g id="edge3" class="edge"><title>Node1&#45;&gt;Node4</title>
<path fill="none" stroke="midnightblue" d="M111.116,-22.3953C119.493,-21.4672 128.238,-20.4984 136.987,-19.5291"/>
<polygon fill="midnightblue" stroke="midnightblue" points="110.659,-18.9245 101.105,-23.5044 111.43,-25.8819 110.659,-18.9245"/>
</g>
<!-- Node3 -->
<g id="node3" class="node"><title>Node3</title>
<g id="a_node3"><a xlink:href="structtallyitem.html#ae5422f8bac6178b3e7dd634d6bfc454c" target="_top" xlink:title="tallyitem::tallyitem">
<polygon fill="white" stroke="black" points="384,-38.5 384,-57.5 489,-57.5 489,-38.5 384,-38.5"/>
<text text-anchor="middle" x="436.5" y="-45.5" font-family="Helvetica,sans-Serif" font-size="10.00">tallyitem::tallyitem</text>
</a>
</g>
</g>
<!-- Node2&#45;&gt;Node3 -->
<g id="edge2" class="edge"><title>Node2&#45;&gt;Node3</title>
<path fill="none" stroke="midnightblue" d="M298.356,-48C326.499,-48 358.002,-48 383.711,-48"/>
<polygon fill="midnightblue" stroke="midnightblue" points="298.157,-44.5001 288.157,-48 298.157,-51.5001 298.157,-44.5001"/>
</g>
<!-- Node5 -->
<g id="node5" class="node"><title>Node5</title>
<g id="a_node5"><a xlink:href="group__map_wallet.html#gaef8d6e5b4701ca3a64486c4232acc3fa" target="_top" xlink:title="CWallet::ResendWalletTransactions">
<polygon fill="white" stroke="black" points="347,-0.5 347,-19.5 526,-19.5 526,-0.5 347,-0.5"/>
<text text-anchor="middle" x="436.5" y="-7.5" font-family="Helvetica,sans-Serif" font-size="10.00">CWallet::ResendWalletTransactions</text>
</a>
</g>
</g>
<!-- Node4&#45;&gt;Node5 -->
<g id="edge4" class="edge"><title>Node4&#45;&gt;Node5</title>
<path fill="none" stroke="midnightblue" d="M321.434,-10C329.845,-10 338.332,-10 346.678,-10"/>
<polygon fill="midnightblue" stroke="midnightblue" points="321.226,-6.5001 311.226,-10 321.226,-13.5001 321.226,-6.5001"/>
</g>
</g>
</svg>
