<?xml version="1.0" encoding="UTF-8" standalone="no"?>
<!DOCTYPE svg PUBLIC "-//W3C//DTD SVG 1.1//EN"
 "http://www.w3.org/Graphics/SVG/1.1/DTD/svg11.dtd">
<!-- Generated by graphviz version 2.38.0 (20140413.2041)
 -->
<!-- Title: CWallet::ListCoins Pages: 1 -->
<svg width="1270pt" height="419pt"
 viewBox="0.00 0.00 1270.00 419.16" xmlns="http://www.w3.org/2000/svg" xmlns:xlink="http://www.w3.org/1999/xlink">
<g id="graph0" class="graph" transform="scale(1 1) rotate(0) translate(4 415.157)">
<title>CWallet::ListCoins</title>
<polygon fill="white" stroke="none" points="-4,4 -4,-415.157 1266,-415.157 1266,4 -4,4"/>
<!-- Node1 -->
<g id="node1" class="node"><title>Node1</title>
<polygon fill="#bfbfbf" stroke="black" points="0,-76.5 0,-95.5 100,-95.5 100,-76.5 0,-76.5"/>
<text text-anchor="middle" x="50" y="-83.5" font-family="Helvetica,sans-Serif" font-size="10.00">CWallet::ListCoins</text>
</g>
<!-- Node2 -->
<g id="node2" class="node"><title>Node2</title>
<g id="a_node2"><a xlink:href="standard_8cpp.html#a951f7e601746ae076afdf3169ecca2fc" target="_top" xlink:title="Parse a standard scriptPubKey for the destination address. ">
<polygon fill="white" stroke="black" points="136,-95.5 136,-114.5 241,-114.5 241,-95.5 136,-95.5"/>
<text text-anchor="middle" x="188.5" y="-102.5" font-family="Helvetica,sans-Serif" font-size="10.00">ExtractDestination</text>
</a>
</g>
</g>
<!-- Node1&#45;&gt;Node2 -->
<g id="edge1" class="edge"><title>Node1&#45;&gt;Node2</title>
<path fill="none" stroke="midnightblue" d="M100.28,-92.8594C108.622,-94.0207 117.376,-95.2392 125.985,-96.4375"/>
<polygon fill="midnightblue" stroke="midnightblue" points="125.605,-99.9183 135.992,-97.8305 126.571,-92.9851 125.605,-99.9183"/>
</g>
<!-- Node36 -->
<g id="node36" class="node"><title>Node36</title>
<g id="a_node36"><a xlink:href="ismine_8cpp.html#ae1531a999ac1bfa59d70cfc984f1266b" target="_top" xlink:title="IsMine">
<polygon fill="white" stroke="black" points="165,-57.5 165,-76.5 212,-76.5 212,-57.5 165,-57.5"/>
<text text-anchor="middle" x="188.5" y="-64.5" font-family="Helvetica,sans-Serif" font-size="10.00">IsMine</text>
</a>
</g>
</g>
<!-- Node1&#45;&gt;Node36 -->
<g id="edge48" class="edge"><title>Node1&#45;&gt;Node36</title>
<path fill="none" stroke="midnightblue" d="M100.28,-79.1406C118.321,-76.6293 138.283,-73.8507 154.552,-71.5861"/>
<polygon fill="midnightblue" stroke="midnightblue" points="155.231,-75.0255 164.653,-70.1802 154.266,-68.0923 155.231,-75.0255"/>
</g>
<!-- Node3 -->
<g id="node3" class="node"><title>Node3</title>
<g id="a_node3"><a xlink:href="standard_8cpp.html#a81899059ee66f695aaf96a07d5e2ebdc" target="_top" xlink:title="Parse a scriptPubKey and identify script type for standard scripts. ">
<polygon fill="white" stroke="black" points="322.5,-285.5 322.5,-304.5 369.5,-304.5 369.5,-285.5 322.5,-285.5"/>
<text text-anchor="middle" x="346" y="-292.5" font-family="Helvetica,sans-Serif" font-size="10.00">Solver</text>
</a>
</g>
</g>
<!-- Node2&#45;&gt;Node3 -->
<g id="edge2" class="edge"><title>Node2&#45;&gt;Node3</title>
<path fill="none" stroke="midnightblue" d="M196.523,-114.648C211.078,-134.53 245.787,-181.356 277,-219 294.163,-239.699 314.895,-262.587 328.921,-277.782"/>
<polygon fill="midnightblue" stroke="midnightblue" points="326.591,-280.417 335.957,-285.369 331.723,-275.657 326.591,-280.417"/>
</g>
<!-- Node18 -->
<g id="node18" class="node"><title>Node18</title>
<g id="a_node18"><a xlink:href="class_c_pub_key.html#aad6f369d7972f2244466ca6db900c2a4" target="_top" xlink:title="CPubKey::IsValid">
<polygon fill="white" stroke="black" points="299.5,-190.5 299.5,-209.5 392.5,-209.5 392.5,-190.5 299.5,-190.5"/>
<text text-anchor="middle" x="346" y="-197.5" font-family="Helvetica,sans-Serif" font-size="10.00">CPubKey::IsValid</text>
</a>
</g>
</g>
<!-- Node2&#45;&gt;Node18 -->
<g id="edge25" class="edge"><title>Node2&#45;&gt;Node18</title>
<path fill="none" stroke="midnightblue" d="M197.923,-114.7C212.452,-130.834 243.869,-163.165 277,-181 281.23,-183.277 285.758,-185.302 290.394,-187.099"/>
<polygon fill="midnightblue" stroke="midnightblue" points="289.406,-190.461 300.001,-190.474 291.726,-183.857 289.406,-190.461"/>
</g>
<!-- Node20 -->
<g id="node20" class="node"><title>Node20</title>
<g id="a_node20"><a xlink:href="class_c_pub_key.html#a9c1908fef34fd9e1c4b5e0ffd5d3834e" target="_top" xlink:title="Get the KeyID of this public key (hash of its serialization) ">
<polygon fill="white" stroke="black" points="301,-152.5 301,-171.5 391,-171.5 391,-152.5 301,-152.5"/>
<text text-anchor="middle" x="346" y="-159.5" font-family="Helvetica,sans-Serif" font-size="10.00">CPubKey::GetID</text>
</a>
</g>
</g>
<!-- Node2&#45;&gt;Node20 -->
<g id="edge27" class="edge"><title>Node2&#45;&gt;Node20</title>
<path fill="none" stroke="midnightblue" d="M209.344,-114.55C226.877,-122.762 253.276,-134.579 277,-143 283.519,-145.314 290.469,-147.531 297.343,-149.582"/>
<polygon fill="midnightblue" stroke="midnightblue" points="296.721,-153.045 307.3,-152.459 298.665,-146.321 296.721,-153.045"/>
</g>
<!-- Node32 -->
<g id="node32" class="node"><title>Node32</title>
<g id="a_node32"><a xlink:href="classuint160.html#a66918f25b891415f2a9bbbb1dfdbedbd" target="_top" xlink:title="uint160::uint160">
<polygon fill="white" stroke="black" points="298.5,-114.5 298.5,-133.5 393.5,-133.5 393.5,-114.5 298.5,-114.5"/>
<text text-anchor="middle" x="346" y="-121.5" font-family="Helvetica,sans-Serif" font-size="10.00">uint160::uint160</text>
</a>
</g>
</g>
<!-- Node2&#45;&gt;Node32 -->
<g id="edge43" class="edge"><title>Node2&#45;&gt;Node32</title>
<path fill="none" stroke="midnightblue" d="M241.279,-111.327C256.426,-113.178 273.059,-115.21 288.485,-117.095"/>
<polygon fill="midnightblue" stroke="midnightblue" points="288.068,-120.57 298.419,-118.308 288.917,-113.621 288.068,-120.57"/>
</g>
<!-- Node33 -->
<g id="node33" class="node"><title>Node33</title>
<g id="a_node33"><a xlink:href="class_c_script_i_d.html#a116da5a7e94e2abb66011c33705d58e7" target="_top" xlink:title="CScriptID::CScriptID">
<polygon fill="white" stroke="black" points="290.5,-76.5 290.5,-95.5 401.5,-95.5 401.5,-76.5 290.5,-76.5"/>
<text text-anchor="middle" x="346" y="-83.5" font-family="Helvetica,sans-Serif" font-size="10.00">CScriptID::CScriptID</text>
</a>
</g>
</g>
<!-- Node2&#45;&gt;Node33 -->
<g id="edge44" class="edge"><title>Node2&#45;&gt;Node33</title>
<path fill="none" stroke="midnightblue" d="M241.279,-98.6733C253.688,-97.1571 267.094,-95.519 280.017,-93.9401"/>
<polygon fill="midnightblue" stroke="midnightblue" points="280.747,-97.377 290.248,-92.6899 279.898,-90.4287 280.747,-97.377"/>
</g>
<!-- Node34 -->
<g id="node34" class="node"><title>Node34</title>
<g id="a_node34"><a xlink:href="classbase__blob.html#aeee68e00ceeacf49086e98b661e017ff" target="_top" xlink:title="base_blob\&lt; 160 \&gt;::begin">
<polygon fill="white" stroke="black" points="277,-38.5 277,-57.5 415,-57.5 415,-38.5 277,-38.5"/>
<text text-anchor="middle" x="346" y="-45.5" font-family="Helvetica,sans-Serif" font-size="10.00">base_blob&lt; 160 &gt;::begin</text>
</a>
</g>
</g>
<!-- Node2&#45;&gt;Node34 -->
<g id="edge45" class="edge"><title>Node2&#45;&gt;Node34</title>
<path fill="none" stroke="midnightblue" d="M198.763,-95.4494C209.187,-89.5199 226.552,-83.4439 241,-77 254.167,-71.1276 258.536,-66.8002 268.794,-61.6913"/>
<polygon fill="midnightblue" stroke="midnightblue" points="270.308,-64.8487 278.029,-57.5935 267.469,-58.4503 270.308,-64.8487"/>
</g>
<!-- Node2&#45;&gt;Node34 -->
<g id="edge47" class="edge"><title>Node2&#45;&gt;Node34</title>
<path fill="none" stroke="midnightblue" d="M239.951,-95.4651C240.302,-95.3103 240.652,-95.1553 241,-95 257.523,-87.6307 260.192,-82.6945 277,-76 291.557,-70.202 308.531,-65.457 321.878,-61.0385"/>
<polygon fill="midnightblue" stroke="midnightblue" points="323.44,-64.1981 331.69,-57.5511 321.095,-57.6023 323.44,-64.1981"/>
</g>
<!-- Node35 -->
<g id="node35" class="node"><title>Node35</title>
<g id="a_node35"><a xlink:href="classbase__blob.html#ab60d34d18e5b5f74d285480f7b3db00c" target="_top" xlink:title="base_blob\&lt; 160 \&gt;::end">
<polygon fill="white" stroke="black" points="281,-0.5 281,-19.5 411,-19.5 411,-0.5 281,-0.5"/>
<text text-anchor="middle" x="346" y="-7.5" font-family="Helvetica,sans-Serif" font-size="10.00">base_blob&lt; 160 &gt;::end</text>
</a>
</g>
</g>
<!-- Node2&#45;&gt;Node35 -->
<g id="edge46" class="edge"><title>Node2&#45;&gt;Node35</title>
<path fill="none" stroke="midnightblue" d="M224.953,-95.4443C230.67,-92.9435 236.259,-89.8373 241,-86 264.29,-67.1488 252.966,-46.893 277,-29 279.524,-27.1208 282.226,-25.4275 285.044,-23.9016"/>
<polygon fill="midnightblue" stroke="midnightblue" points="286.769,-26.9596 294.367,-19.5756 283.823,-20.6098 286.769,-26.9596"/>
</g>
<!-- Node4 -->
<g id="node4" class="node"><title>Node4</title>
<g id="a_node4"><a xlink:href="class_c_script.html#acba6d6d35776de4ce3a632446f44805f" target="_top" xlink:title="CScript::IsPayToScriptHash">
<polygon fill="white" stroke="black" points="451,-361.5 451,-380.5 594,-380.5 594,-361.5 451,-361.5"/>
<text text-anchor="middle" x="522.5" y="-368.5" font-family="Helvetica,sans-Serif" font-size="10.00">CScript::IsPayToScriptHash</text>
</a>
</g>
</g>
<!-- Node3&#45;&gt;Node4 -->
<g id="edge3" class="edge"><title>Node3&#45;&gt;Node4</title>
<path fill="none" stroke="midnightblue" d="M369.101,-304.625C399.782,-317.988 455.435,-342.227 490.326,-357.423"/>
<polygon fill="midnightblue" stroke="midnightblue" points="489.013,-360.668 499.579,-361.453 491.808,-354.251 489.013,-360.668"/>
</g>
<!-- Node5 -->
<g id="node5" class="node"><title>Node5</title>
<g id="a_node5"><a xlink:href="classprevector.html#a8430c39b212986d6cd2ba9d6fa939241" target="_top" xlink:title="prevector::size">
<polygon fill="white" stroke="black" points="801.5,-342.5 801.5,-361.5 888.5,-361.5 888.5,-342.5 801.5,-342.5"/>
<text text-anchor="middle" x="845" y="-349.5" font-family="Helvetica,sans-Serif" font-size="10.00">prevector::size</text>
</a>
</g>
</g>
<!-- Node3&#45;&gt;Node5 -->
<g id="edge20" class="edge"><title>Node3&#45;&gt;Node5</title>
<path fill="none" stroke="midnightblue" d="M353.645,-304.723C368.332,-325.234 405.859,-372.486 451,-390 576.476,-438.682 740.658,-390.336 810.364,-365.16"/>
<polygon fill="midnightblue" stroke="midnightblue" points="811.774,-368.37 819.947,-361.628 809.353,-361.802 811.774,-368.37"/>
</g>
<!-- Node7 -->
<g id="node7" class="node"><title>Node7</title>
<g id="a_node7"><a xlink:href="classprevector.html#aa9210cbe708412a70868d6e0bca844c9" target="_top" xlink:title="prevector::begin">
<polygon fill="white" stroke="black" points="642.5,-228.5 642.5,-247.5 737.5,-247.5 737.5,-228.5 642.5,-228.5"/>
<text text-anchor="middle" x="690" y="-235.5" font-family="Helvetica,sans-Serif" font-size="10.00">prevector::begin</text>
</a>
</g>
</g>
<!-- Node3&#45;&gt;Node7 -->
<g id="edge6" class="edge"><title>Node3&#45;&gt;Node7</title>
<path fill="none" stroke="midnightblue" d="M368.008,-285.406C388.666,-276.436 421.327,-263.48 451,-257 512.059,-243.667 583.752,-239.449 632.373,-238.233"/>
<polygon fill="midnightblue" stroke="midnightblue" points="632.464,-241.732 642.386,-238.017 632.313,-234.734 632.464,-241.732"/>
</g>
<!-- Node12 -->
<g id="node12" class="node"><title>Node12</title>
<g id="a_node12"><a xlink:href="class_c_script.html#a11e9cac739d4044d83fdd13cdf72ed01" target="_top" xlink:title="CScript::IsWitnessProgram">
<polygon fill="white" stroke="black" points="451,-304.5 451,-323.5 594,-323.5 594,-304.5 451,-304.5"/>
<text text-anchor="middle" x="522.5" y="-311.5" font-family="Helvetica,sans-Serif" font-size="10.00">CScript::IsWitnessProgram</text>
</a>
</g>
</g>
<!-- Node3&#45;&gt;Node12 -->
<g id="edge12" class="edge"><title>Node3&#45;&gt;Node12</title>
<path fill="none" stroke="midnightblue" d="M369.813,-297.484C388,-299.464 414.627,-302.363 440.515,-305.182"/>
<polygon fill="midnightblue" stroke="midnightblue" points="440.444,-308.695 450.764,-306.298 441.202,-301.736 440.444,-308.695"/>
</g>
<!-- Node15 -->
<g id="node15" class="node"><title>Node15</title>
<g id="a_node15"><a xlink:href="class_c_script.html#ac81d0879690dc02cfb6712244e4add43" target="_top" xlink:title="Called by IsStandardTx and P2SH/BIP62 VerifyScript (which makes it consensus&#45;critical). ">
<polygon fill="white" stroke="black" points="468,-266.5 468,-285.5 577,-285.5 577,-266.5 468,-266.5"/>
<text text-anchor="middle" x="522.5" y="-273.5" font-family="Helvetica,sans-Serif" font-size="10.00">CScript::IsPushOnly</text>
</a>
</g>
</g>
<!-- Node3&#45;&gt;Node15 -->
<g id="edge21" class="edge"><title>Node3&#45;&gt;Node15</title>
<path fill="none" stroke="midnightblue" d="M369.813,-292.516C392.057,-290.094 426.926,-286.297 457.627,-282.955"/>
<polygon fill="midnightblue" stroke="midnightblue" points="458.292,-286.403 467.854,-281.841 457.534,-279.444 458.292,-286.403"/>
</g>
<!-- Node4&#45;&gt;Node5 -->
<g id="edge4" class="edge"><title>Node4&#45;&gt;Node5</title>
<path fill="none" stroke="midnightblue" d="M594.019,-371.721C638.777,-371.615 697.876,-370.439 750,-366 763.363,-364.862 777.716,-363.035 791.084,-361.072"/>
<polygon fill="midnightblue" stroke="midnightblue" points="791.72,-364.515 801.081,-359.553 790.669,-357.595 791.72,-364.515"/>
</g>
<!-- Node6 -->
<g id="node6" class="node"><title>Node6</title>
<g id="a_node6"><a xlink:href="classprevector.html#a27fda335354582aa9452867c4b610dab" target="_top" xlink:title="prevector::is_direct">
<polygon fill="white" stroke="black" points="947,-334.5 947,-353.5 1055,-353.5 1055,-334.5 947,-334.5"/>
<text text-anchor="middle" x="1001" y="-341.5" font-family="Helvetica,sans-Serif" font-size="10.00">prevector::is_direct</text>
</a>
</g>
</g>
<!-- Node5&#45;&gt;Node6 -->
<g id="edge5" class="edge"><title>Node5&#45;&gt;Node6</title>
<path fill="none" stroke="midnightblue" d="M888.898,-349.772C903.645,-349.005 920.484,-348.131 936.516,-347.298"/>
<polygon fill="midnightblue" stroke="midnightblue" points="937.099,-350.772 946.904,-346.758 936.736,-343.782 937.099,-350.772"/>
</g>
<!-- Node8 -->
<g id="node8" class="node"><title>Node8</title>
<g id="a_node8"><a xlink:href="classprevector_1_1iterator.html#ae9dd2b5e8d96f866e4b05d6b7535f285" target="_top" xlink:title="prevector::iterator\l::iterator">
<polygon fill="white" stroke="black" points="793,-225 793,-255 897,-255 897,-225 793,-225"/>
<text text-anchor="start" x="801" y="-243" font-family="Helvetica,sans-Serif" font-size="10.00">prevector::iterator</text>
<text text-anchor="middle" x="845" y="-232" font-family="Helvetica,sans-Serif" font-size="10.00">::iterator</text>
</a>
</g>
</g>
<!-- Node7&#45;&gt;Node8 -->
<g id="edge7" class="edge"><title>Node7&#45;&gt;Node8</title>
<path fill="none" stroke="midnightblue" d="M737.736,-238.611C751.874,-238.796 767.618,-239.002 782.564,-239.197"/>
<polygon fill="midnightblue" stroke="midnightblue" points="782.709,-242.699 792.754,-239.33 782.801,-235.7 782.709,-242.699"/>
</g>
<!-- Node9 -->
<g id="node9" class="node"><title>Node9</title>
<g id="a_node9"><a xlink:href="classprevector.html#a59f1d7bcbc751cfa0faddd7ffa184846" target="_top" xlink:title="prevector::item_ptr">
<polygon fill="white" stroke="black" points="790.5,-274.5 790.5,-293.5 899.5,-293.5 899.5,-274.5 790.5,-274.5"/>
<text text-anchor="middle" x="845" y="-281.5" font-family="Helvetica,sans-Serif" font-size="10.00">prevector::item_ptr</text>
</a>
</g>
</g>
<!-- Node7&#45;&gt;Node9 -->
<g id="edge8" class="edge"><title>Node7&#45;&gt;Node9</title>
<path fill="none" stroke="midnightblue" d="M722.702,-247.531C745.883,-254.501 777.538,-264.018 802.698,-271.582"/>
<polygon fill="midnightblue" stroke="midnightblue" points="801.755,-274.953 812.339,-274.481 803.77,-268.25 801.755,-274.953"/>
</g>
<!-- Node9&#45;&gt;Node6 -->
<g id="edge9" class="edge"><title>Node9&#45;&gt;Node6</title>
<path fill="none" stroke="midnightblue" d="M870.402,-293.507C896.121,-303.528 936.836,-319.391 965.762,-330.661"/>
<polygon fill="midnightblue" stroke="midnightblue" points="964.87,-334.069 975.458,-334.438 967.411,-327.547 964.87,-334.069"/>
</g>
<!-- Node10 -->
<g id="node10" class="node"><title>Node10</title>
<g id="a_node10"><a xlink:href="classprevector.html#a20150a43dd87c33f0e855a55bd3418e8" target="_top" xlink:title="prevector::direct_ptr">
<polygon fill="white" stroke="black" points="944,-281.5 944,-300.5 1058,-300.5 1058,-281.5 944,-281.5"/>
<text text-anchor="middle" x="1001" y="-288.5" font-family="Helvetica,sans-Serif" font-size="10.00">prevector::direct_ptr</text>
</a>
</g>
</g>
<!-- Node9&#45;&gt;Node10 -->
<g id="edge10" class="edge"><title>Node9&#45;&gt;Node10</title>
<path fill="none" stroke="midnightblue" d="M899.862,-286.448C910.753,-286.943 922.324,-287.469 933.588,-287.981"/>
<polygon fill="midnightblue" stroke="midnightblue" points="933.668,-291.488 943.817,-288.446 933.986,-284.496 933.668,-291.488"/>
</g>
<!-- Node11 -->
<g id="node11" class="node"><title>Node11</title>
<g id="a_node11"><a xlink:href="classprevector.html#ae3343cc65be9fd678b4a6f8305624de6" target="_top" xlink:title="prevector::indirect_ptr">
<polygon fill="white" stroke="black" points="940,-243.5 940,-262.5 1062,-262.5 1062,-243.5 940,-243.5"/>
<text text-anchor="middle" x="1001" y="-250.5" font-family="Helvetica,sans-Serif" font-size="10.00">prevector::indirect_ptr</text>
</a>
</g>
</g>
<!-- Node9&#45;&gt;Node11 -->
<g id="edge11" class="edge"><title>Node9&#45;&gt;Node11</title>
<path fill="none" stroke="midnightblue" d="M893.462,-274.446C909.05,-271.308 926.543,-267.787 942.778,-264.519"/>
<polygon fill="midnightblue" stroke="midnightblue" points="943.582,-267.927 952.695,-262.522 942.201,-261.065 943.582,-267.927"/>
</g>
<!-- Node12&#45;&gt;Node5 -->
<g id="edge13" class="edge"><title>Node12&#45;&gt;Node5</title>
<path fill="none" stroke="midnightblue" d="M571.604,-323.508C589.839,-326.868 610.825,-330.443 630,-333 684.764,-340.302 747.8,-345.515 791.2,-348.612"/>
<polygon fill="midnightblue" stroke="midnightblue" points="791.025,-352.108 801.245,-349.316 791.514,-345.125 791.025,-352.108"/>
</g>
<!-- Node12&#45;&gt;Node7 -->
<g id="edge15" class="edge"><title>Node12&#45;&gt;Node7</title>
<path fill="none" stroke="midnightblue" d="M572.71,-304.494C580.125,-302.01 587.468,-298.896 594,-295 613.98,-283.082 610.314,-269.397 630,-257 633.193,-254.989 636.618,-253.173 640.151,-251.536"/>
<polygon fill="midnightblue" stroke="midnightblue" points="641.764,-254.657 649.674,-247.608 639.095,-248.185 641.764,-254.657"/>
</g>
<!-- Node13 -->
<g id="node13" class="node"><title>Node13</title>
<g id="a_node13"><a xlink:href="class_c_script.html#a7f975fca06b3e9a17da8ba23c7647e2e" target="_top" xlink:title="Encode/decode small integers: ">
<polygon fill="white" stroke="black" points="630,-304.5 630,-323.5 750,-323.5 750,-304.5 630,-304.5"/>
<text text-anchor="middle" x="690" y="-311.5" font-family="Helvetica,sans-Serif" font-size="10.00">CScript::DecodeOP_N</text>
</a>
</g>
</g>
<!-- Node12&#45;&gt;Node13 -->
<g id="edge14" class="edge"><title>Node12&#45;&gt;Node13</title>
<path fill="none" stroke="midnightblue" d="M594.167,-314C602.599,-314 611.202,-314 619.616,-314"/>
<polygon fill="midnightblue" stroke="midnightblue" points="619.761,-317.5 629.761,-314 619.761,-310.5 619.761,-317.5"/>
</g>
<!-- Node14 -->
<g id="node14" class="node"><title>Node14</title>
<g id="a_node14"><a xlink:href="classprevector.html#aab7f6e13a3cac85cc340fc6b90c5365c" target="_top" xlink:title="prevector::end">
<polygon fill="white" stroke="black" points="647,-266.5 647,-285.5 733,-285.5 733,-266.5 647,-266.5"/>
<text text-anchor="middle" x="690" y="-273.5" font-family="Helvetica,sans-Serif" font-size="10.00">prevector::end</text>
</a>
</g>
</g>
<!-- Node12&#45;&gt;Node14 -->
<g id="edge16" class="edge"><title>Node12&#45;&gt;Node14</title>
<path fill="none" stroke="midnightblue" d="M565.263,-304.411C587.201,-299.374 614.28,-293.156 637.508,-287.823"/>
<polygon fill="midnightblue" stroke="midnightblue" points="638.575,-291.169 647.538,-285.52 637.008,-284.347 638.575,-291.169"/>
</g>
<!-- Node14&#45;&gt;Node5 -->
<g id="edge19" class="edge"><title>Node14&#45;&gt;Node5</title>
<path fill="none" stroke="midnightblue" d="M725.212,-285.523C733.47,-288.228 742.169,-291.424 750,-295 775.961,-306.853 803.665,-324.307 822.218,-336.774"/>
<polygon fill="midnightblue" stroke="midnightblue" points="820.309,-339.708 830.543,-342.447 824.251,-333.924 820.309,-339.708"/>
</g>
<!-- Node14&#45;&gt;Node8 -->
<g id="edge17" class="edge"><title>Node14&#45;&gt;Node8</title>
<path fill="none" stroke="midnightblue" d="M731.6,-266.447C747.289,-262.756 765.583,-258.451 782.8,-254.4"/>
<polygon fill="midnightblue" stroke="midnightblue" points="783.851,-257.748 792.784,-252.051 782.248,-250.934 783.851,-257.748"/>
</g>
<!-- Node14&#45;&gt;Node9 -->
<g id="edge18" class="edge"><title>Node14&#45;&gt;Node9</title>
<path fill="none" stroke="midnightblue" d="M733.213,-278.207C747.724,-278.966 764.311,-279.833 780.154,-280.662"/>
<polygon fill="midnightblue" stroke="midnightblue" points="780.258,-284.172 790.428,-281.199 780.624,-277.181 780.258,-284.172"/>
</g>
<!-- Node15&#45;&gt;Node14 -->
<g id="edge22" class="edge"><title>Node15&#45;&gt;Node14</title>
<path fill="none" stroke="midnightblue" d="M577.233,-276C596.266,-276 617.645,-276 636.568,-276"/>
<polygon fill="midnightblue" stroke="midnightblue" points="636.798,-279.5 646.798,-276 636.798,-272.5 636.798,-279.5"/>
</g>
<!-- Node16 -->
<g id="node16" class="node"><title>Node16</title>
<g id="a_node16"><a xlink:href="class_c_script.html#ae06205f908e430eaf428922ea3997c1b" target="_top" xlink:title="CScript::GetOp">
<polygon fill="white" stroke="black" points="646,-187.5 646,-206.5 734,-206.5 734,-187.5 646,-187.5"/>
<text text-anchor="middle" x="690" y="-194.5" font-family="Helvetica,sans-Serif" font-size="10.00">CScript::GetOp</text>
</a>
</g>
</g>
<!-- Node15&#45;&gt;Node16 -->
<g id="edge23" class="edge"><title>Node15&#45;&gt;Node16</title>
<path fill="none" stroke="midnightblue" d="M539.756,-266.411C560.351,-254.473 597.126,-233.845 630,-219 636.85,-215.907 644.276,-212.888 651.474,-210.128"/>
<polygon fill="midnightblue" stroke="midnightblue" points="652.932,-213.319 661.074,-206.54 650.481,-206.762 652.932,-213.319"/>
</g>
<!-- Node17 -->
<g id="node17" class="node"><title>Node17</title>
<g id="a_node17"><a xlink:href="script_8h.html#a7641081d14775e4dd30a9d35e82a7c31" target="_top" xlink:title="GetScriptOp">
<polygon fill="white" stroke="black" points="807.5,-186.5 807.5,-205.5 882.5,-205.5 882.5,-186.5 807.5,-186.5"/>
<text text-anchor="middle" x="845" y="-193.5" font-family="Helvetica,sans-Serif" font-size="10.00">GetScriptOp</text>
</a>
</g>
</g>
<!-- Node16&#45;&gt;Node17 -->
<g id="edge24" class="edge"><title>Node16&#45;&gt;Node17</title>
<path fill="none" stroke="midnightblue" d="M734.026,-196.719C753.671,-196.59 776.983,-196.438 797.078,-196.307"/>
<polygon fill="midnightblue" stroke="midnightblue" points="797.279,-199.806 807.256,-196.24 797.233,-192.806 797.279,-199.806"/>
</g>
<!-- Node19 -->
<g id="node19" class="node"><title>Node19</title>
<g id="a_node19"><a xlink:href="classbase__blob.html#a449c3f902fcab7af6c74aa9fee099542" target="_top" xlink:title="base_blob\&lt; 160 \&gt;::size">
<polygon fill="white" stroke="black" points="457,-190.5 457,-209.5 588,-209.5 588,-190.5 457,-190.5"/>
<text text-anchor="middle" x="522.5" y="-197.5" font-family="Helvetica,sans-Serif" font-size="10.00">base_blob&lt; 160 &gt;::size</text>
</a>
</g>
</g>
<!-- Node18&#45;&gt;Node19 -->
<g id="edge26" class="edge"><title>Node18&#45;&gt;Node19</title>
<path fill="none" stroke="midnightblue" d="M392.848,-200C409.377,-200 428.487,-200 446.838,-200"/>
<polygon fill="midnightblue" stroke="midnightblue" points="446.933,-203.5 456.933,-200 446.933,-196.5 446.933,-203.5"/>
</g>
<!-- Node20&#45;&gt;Node19 -->
<g id="edge42" class="edge"><title>Node20&#45;&gt;Node19</title>
<path fill="none" stroke="midnightblue" d="M391.034,-171.589C414.372,-176.671 443.23,-182.955 467.866,-188.32"/>
<polygon fill="midnightblue" stroke="midnightblue" points="467.267,-191.772 477.783,-190.48 468.757,-184.932 467.267,-191.772"/>
</g>
<!-- Node21 -->
<g id="node21" class="node"><title>Node21</title>
<g id="a_node21"><a xlink:href="class_c_key_i_d.html#a01dbd3c37820a2ffe89d106c6a7cf53d" target="_top" xlink:title="CKeyID::CKeyID">
<polygon fill="white" stroke="black" points="478,-152.5 478,-171.5 567,-171.5 567,-152.5 478,-152.5"/>
<text text-anchor="middle" x="522.5" y="-159.5" font-family="Helvetica,sans-Serif" font-size="10.00">CKeyID::CKeyID</text>
</a>
</g>
</g>
<!-- Node20&#45;&gt;Node21 -->
<g id="edge28" class="edge"><title>Node20&#45;&gt;Node21</title>
<path fill="none" stroke="midnightblue" d="M391.034,-162C414.268,-162 442.973,-162 467.537,-162"/>
<polygon fill="midnightblue" stroke="midnightblue" points="467.783,-165.5 477.783,-162 467.783,-158.5 467.783,-165.5"/>
</g>
<!-- Node22 -->
<g id="node22" class="node"><title>Node22</title>
<g id="a_node22"><a xlink:href="hash_8h.html#a4490f70ddae16e9e48460a0416a48a6b" target="_top" xlink:title="Compute the 160&#45;bit hash an object. ">
<polygon fill="white" stroke="black" points="493,-114.5 493,-133.5 552,-133.5 552,-114.5 493,-114.5"/>
<text text-anchor="middle" x="522.5" y="-121.5" font-family="Helvetica,sans-Serif" font-size="10.00">Hash160</text>
</a>
</g>
</g>
<!-- Node20&#45;&gt;Node22 -->
<g id="edge29" class="edge"><title>Node20&#45;&gt;Node22</title>
<path fill="none" stroke="midnightblue" d="M391.034,-152.411C419.324,-146.25 455.725,-138.323 482.886,-132.409"/>
<polygon fill="midnightblue" stroke="midnightblue" points="483.781,-135.796 492.807,-130.248 482.291,-128.956 483.781,-135.796"/>
</g>
<!-- Node23 -->
<g id="node23" class="node"><title>Node23</title>
<g id="a_node23"><a xlink:href="class_c_hash160.html#af56cdd9443013eb68b246aa8450217f2" target="_top" xlink:title="CHash160::Write">
<polygon fill="white" stroke="black" points="642.5,-120.5 642.5,-139.5 737.5,-139.5 737.5,-120.5 642.5,-120.5"/>
<text text-anchor="middle" x="690" y="-127.5" font-family="Helvetica,sans-Serif" font-size="10.00">CHash160::Write</text>
</a>
</g>
</g>
<!-- Node22&#45;&gt;Node23 -->
<g id="edge30" class="edge"><title>Node22&#45;&gt;Node23</title>
<path fill="none" stroke="midnightblue" d="M552.328,-125.045C574.336,-125.843 605.357,-126.968 632.284,-127.944"/>
<polygon fill="midnightblue" stroke="midnightblue" points="632.256,-131.445 642.376,-128.31 632.509,-124.45 632.256,-131.445"/>
</g>
<!-- Node28 -->
<g id="node28" class="node"><title>Node28</title>
<g id="a_node28"><a xlink:href="class_c_hash160.html#a9bb08e1772002ae1a5d85017ba7952ee" target="_top" xlink:title="CHash160::Finalize">
<polygon fill="white" stroke="black" points="636.5,-67.5 636.5,-86.5 743.5,-86.5 743.5,-67.5 636.5,-67.5"/>
<text text-anchor="middle" x="690" y="-74.5" font-family="Helvetica,sans-Serif" font-size="10.00">CHash160::Finalize</text>
</a>
</g>
</g>
<!-- Node22&#45;&gt;Node28 -->
<g id="edge35" class="edge"><title>Node22&#45;&gt;Node28</title>
<path fill="none" stroke="midnightblue" d="M552.328,-115.813C578.122,-108.488 616.296,-97.6472 645.748,-89.283"/>
<polygon fill="midnightblue" stroke="midnightblue" points="646.708,-92.6489 655.372,-86.5501 644.796,-85.9151 646.708,-92.6489"/>
</g>
<!-- Node24 -->
<g id="node24" class="node"><title>Node24</title>
<g id="a_node24"><a xlink:href="class_c_s_h_a256.html#a9d7de520a562655da85349372820c883" target="_top" xlink:title="CSHA256::Write">
<polygon fill="white" stroke="black" points="955,-91.5 955,-110.5 1047,-110.5 1047,-91.5 955,-91.5"/>
<text text-anchor="middle" x="1001" y="-98.5" font-family="Helvetica,sans-Serif" font-size="10.00">CSHA256::Write</text>
</a>
</g>
</g>
<!-- Node23&#45;&gt;Node24 -->
<g id="edge31" class="edge"><title>Node23&#45;&gt;Node24</title>
<path fill="none" stroke="midnightblue" d="M737.704,-129.797C780.971,-129.138 847.04,-126.935 904,-120 918.521,-118.232 934.134,-115.504 948.462,-112.662"/>
<polygon fill="midnightblue" stroke="midnightblue" points="949.536,-116.015 958.633,-110.584 948.135,-109.156 949.536,-116.015"/>
</g>
<!-- Node25 -->
<g id="node25" class="node"><title>Node25</title>
<g id="a_node25"><a xlink:href="glibc__compat_8cpp.html#a0f46826ab0466591e136db24394923cf" target="_top" xlink:title="memcpy">
<polygon fill="white" stroke="black" points="1098,-72.5 1098,-91.5 1157,-91.5 1157,-72.5 1098,-72.5"/>
<text text-anchor="middle" x="1127.5" y="-79.5" font-family="Helvetica,sans-Serif" font-size="10.00">memcpy</text>
</a>
</g>
</g>
<!-- Node24&#45;&gt;Node25 -->
<g id="edge32" class="edge"><title>Node24&#45;&gt;Node25</title>
<path fill="none" stroke="midnightblue" d="M1047.3,-94.0868C1060.58,-92.0607 1074.97,-89.8647 1087.79,-87.9073"/>
<polygon fill="midnightblue" stroke="midnightblue" points="1088.33,-91.3651 1097.69,-86.3965 1087.28,-84.4452 1088.33,-91.3651"/>
</g>
<!-- Node26 -->
<g id="node26" class="node"><title>Node26</title>
<g id="a_node26"><a xlink:href="glibc__compat_8cpp.html#a9778d49e9029dd75bc53ecbbf9f5e9a1" target="_top" xlink:title="memmove">
<polygon fill="white" stroke="black" points="1193,-91.5 1193,-110.5 1262,-110.5 1262,-91.5 1193,-91.5"/>
<text text-anchor="middle" x="1227.5" y="-98.5" font-family="Helvetica,sans-Serif" font-size="10.00">memmove</text>
</a>
</g>
</g>
<!-- Node25&#45;&gt;Node26 -->
<g id="edge33" class="edge"><title>Node25&#45;&gt;Node26</title>
<path fill="none" stroke="midnightblue" d="M1157.11,-87.5467C1165.15,-89.1055 1174.08,-90.8371 1182.79,-92.5251"/>
<polygon fill="midnightblue" stroke="midnightblue" points="1182.35,-96.0061 1192.84,-94.4735 1183.69,-89.1341 1182.35,-96.0061"/>
</g>
<!-- Node27 -->
<g id="node27" class="node"><title>Node27</title>
<g id="a_node27"><a xlink:href="glibc__compat_8cpp.html#a424ac71631da5ada2976630ff67051d1" target="_top" xlink:title="__chk_fail">
<polygon fill="white" stroke="black" points="1196.5,-53.5 1196.5,-72.5 1258.5,-72.5 1258.5,-53.5 1196.5,-53.5"/>
<text text-anchor="middle" x="1227.5" y="-60.5" font-family="Helvetica,sans-Serif" font-size="10.00">__chk_fail</text>
</a>
</g>
</g>
<!-- Node25&#45;&gt;Node27 -->
<g id="edge34" class="edge"><title>Node25&#45;&gt;Node27</title>
<path fill="none" stroke="midnightblue" d="M1157.11,-76.4533C1166.25,-74.6811 1176.54,-72.6855 1186.35,-70.7847"/>
<polygon fill="midnightblue" stroke="midnightblue" points="1187.17,-74.1908 1196.32,-68.8514 1185.84,-67.3188 1187.17,-74.1908"/>
</g>
<!-- Node29 -->
<g id="node29" class="node"><title>Node29</title>
<g id="a_node29"><a xlink:href="class_c_s_h_a256.html#a4259230be0caefa590bc324fc12b9b90" target="_top" xlink:title="CSHA256::Finalize">
<polygon fill="white" stroke="black" points="793.5,-91.5 793.5,-110.5 896.5,-110.5 896.5,-91.5 793.5,-91.5"/>
<text text-anchor="middle" x="845" y="-98.5" font-family="Helvetica,sans-Serif" font-size="10.00">CSHA256::Finalize</text>
</a>
</g>
</g>
<!-- Node28&#45;&gt;Node29 -->
<g id="edge36" class="edge"><title>Node28&#45;&gt;Node29</title>
<path fill="none" stroke="midnightblue" d="M743.654,-85.2594C756.466,-87.2692 770.27,-89.4344 783.417,-91.4968"/>
<polygon fill="midnightblue" stroke="midnightblue" points="782.894,-94.9574 793.316,-93.0495 783.979,-88.042 782.894,-94.9574"/>
</g>
<!-- Node30 -->
<g id="node30" class="node"><title>Node30</title>
<g id="a_node30"><a xlink:href="class_c_r_i_p_e_m_d160.html#a221143b9d94af623d07c4f4ba1bf6007" target="_top" xlink:title="CRIPEMD160::Write">
<polygon fill="white" stroke="black" points="947.5,-53.5 947.5,-72.5 1054.5,-72.5 1054.5,-53.5 947.5,-53.5"/>
<text text-anchor="middle" x="1001" y="-60.5" font-family="Helvetica,sans-Serif" font-size="10.00">CRIPEMD160::Write</text>
</a>
</g>
</g>
<!-- Node28&#45;&gt;Node30 -->
<g id="edge38" class="edge"><title>Node28&#45;&gt;Node30</title>
<path fill="none" stroke="midnightblue" d="M743.768,-74.6092C797.317,-72.183 880.219,-68.427 937.137,-65.8482"/>
<polygon fill="midnightblue" stroke="midnightblue" points="937.618,-69.33 947.45,-65.3809 937.302,-62.3372 937.618,-69.33"/>
</g>
<!-- Node31 -->
<g id="node31" class="node"><title>Node31</title>
<g id="a_node31"><a xlink:href="class_c_r_i_p_e_m_d160.html#a2a11566fbf9d1339b819833313fc4e51" target="_top" xlink:title="CRIPEMD160::Finalize">
<polygon fill="white" stroke="black" points="786,-15.5 786,-34.5 904,-34.5 904,-15.5 786,-15.5"/>
<text text-anchor="middle" x="845" y="-22.5" font-family="Helvetica,sans-Serif" font-size="10.00">CRIPEMD160::Finalize</text>
</a>
</g>
</g>
<!-- Node28&#45;&gt;Node31 -->
<g id="edge40" class="edge"><title>Node28&#45;&gt;Node31</title>
<path fill="none" stroke="midnightblue" d="M719.063,-67.4624C743.572,-59.1322 779.351,-46.9721 806.346,-37.7975"/>
<polygon fill="midnightblue" stroke="midnightblue" points="807.515,-41.0969 815.857,-34.565 805.262,-34.4692 807.515,-41.0969"/>
</g>
<!-- Node29&#45;&gt;Node24 -->
<g id="edge37" class="edge"><title>Node29&#45;&gt;Node24</title>
<path fill="none" stroke="midnightblue" d="M896.852,-101C912.232,-101 929.191,-101 944.839,-101"/>
<polygon fill="midnightblue" stroke="midnightblue" points="944.902,-104.5 954.902,-101 944.902,-97.5001 944.902,-104.5"/>
</g>
<!-- Node30&#45;&gt;Node25 -->
<g id="edge39" class="edge"><title>Node30&#45;&gt;Node25</title>
<path fill="none" stroke="midnightblue" d="M1054.8,-71.0577C1065.83,-72.7417 1077.27,-74.4876 1087.69,-76.0771"/>
<polygon fill="midnightblue" stroke="midnightblue" points="1087.3,-79.5576 1097.71,-77.6063 1088.35,-72.6377 1087.3,-79.5576"/>
</g>
<!-- Node31&#45;&gt;Node30 -->
<g id="edge41" class="edge"><title>Node31&#45;&gt;Node30</title>
<path fill="none" stroke="midnightblue" d="M884.861,-34.589C905.091,-39.5809 930.021,-45.7324 951.504,-51.0334"/>
<polygon fill="midnightblue" stroke="midnightblue" points="950.871,-54.4823 961.419,-53.4799 952.548,-47.6861 950.871,-54.4823"/>
</g>
</g>
</svg>
