<?xml version="1.0" encoding="UTF-8" standalone="no"?>
<!DOCTYPE svg PUBLIC "-//W3C//DTD SVG 1.1//EN"
 "http://www.w3.org/Graphics/SVG/1.1/DTD/svg11.dtd">
<!-- Generated by graphviz version 2.40.1 (20161225.0304)
 -->
<!-- Title: CWallet::AddToWallet Pages: 1 -->
<svg width="431pt" height="379pt"
 viewBox="0.00 0.00 431.00 379.00" xmlns="http://www.w3.org/2000/svg" xmlns:xlink="http://www.w3.org/1999/xlink">
<g id="graph0" class="graph" transform="scale(1 1) rotate(0) translate(4 375)">
<title>CWallet::AddToWallet</title>
<polygon fill="#ffffff" stroke="transparent" points="-4,4 -4,-375 427,-375 427,4 -4,4"/>
<!-- Node161 -->
<g id="node1" class="node">
<title>Node161</title>
<polygon fill="#bfbfbf" stroke="#000000" points="0,-171.5 0,-190.5 114,-190.5 114,-171.5 0,-171.5"/>
<text text-anchor="middle" x="57" y="-178.5" font-family="Helvetica,sans-Serif" font-size="10.00" fill="#000000">CWallet::AddToWallet</text>
</g>
<!-- Node162 -->
<g id="node2" class="node">
<title>Node162</title>
<g id="a_node2"><a xlink:href="class_c_merkle_tx.html#a20142f81e7ff0242db646e63e0a973b3" target="_top" xlink:title="CMerkleTx::GetHash">
<polygon fill="#ffffff" stroke="#000000" points="313,-133.5 313,-152.5 423,-152.5 423,-133.5 313,-133.5"/>
<text text-anchor="middle" x="368" y="-140.5" font-family="Helvetica,sans-Serif" font-size="10.00" fill="#000000">CMerkleTx::GetHash</text>
</a>
</g>
</g>
<!-- Node161&#45;&gt;Node162 -->
<g id="edge1" class="edge">
<title>Node161&#45;&gt;Node162</title>
<path fill="none" stroke="#191970" d="M114.1256,-187.1036C158.8931,-190.427 222.5105,-191.92 277,-181 299.804,-176.4299 324.0302,-166.01 341.7482,-157.2354"/>
<polygon fill="#191970" stroke="#191970" points="343.5567,-160.2419 350.8716,-152.5775 340.3737,-154.0074 343.5567,-160.2419"/>
</g>
<!-- Node163 -->
<g id="node3" class="node">
<title>Node163</title>
<g id="a_node3"><a xlink:href="class_c_wallet_tx.html#ab0ee7347584bff886dc24b9f63ff023c" target="_top" xlink:title="CWalletTx::BindWallet">
<polygon fill="#ffffff" stroke="#000000" points="155.5,-304.5 155.5,-323.5 271.5,-323.5 271.5,-304.5 155.5,-304.5"/>
<text text-anchor="middle" x="213.5" y="-311.5" font-family="Helvetica,sans-Serif" font-size="10.00" fill="#000000">CWalletTx::BindWallet</text>
</a>
</g>
</g>
<!-- Node161&#45;&gt;Node163 -->
<g id="edge2" class="edge">
<title>Node161&#45;&gt;Node163</title>
<path fill="none" stroke="#191970" d="M62.1208,-190.5779C74.3208,-212.4744 107.3004,-266.4956 150,-295 152.9609,-296.9766 156.1336,-298.7529 159.4236,-300.3485"/>
<polygon fill="#191970" stroke="#191970" points="158.355,-303.6972 168.9277,-304.383 161.0903,-297.2537 158.355,-303.6972"/>
</g>
<!-- Node164 -->
<g id="node4" class="node">
<title>Node164</title>
<g id="a_node4"><a xlink:href="timedata_8cpp.html#a09f81b9c7650f898cf3cf305b87547e6" target="_top" xlink:title="GetAdjustedTime">
<polygon fill="#ffffff" stroke="#000000" points="167.5,-342.5 167.5,-361.5 259.5,-361.5 259.5,-342.5 167.5,-342.5"/>
<text text-anchor="middle" x="213.5" y="-349.5" font-family="Helvetica,sans-Serif" font-size="10.00" fill="#000000">GetAdjustedTime</text>
</a>
</g>
</g>
<!-- Node161&#45;&gt;Node164 -->
<g id="edge3" class="edge">
<title>Node161&#45;&gt;Node164</title>
<path fill="none" stroke="#191970" d="M60.2054,-190.8866C69.4869,-217.9336 99.0172,-293.7395 150,-333 152.5984,-335.001 155.4053,-336.7919 158.342,-338.3947"/>
<polygon fill="#191970" stroke="#191970" points="156.922,-341.5944 167.463,-342.661 159.8878,-335.2538 156.922,-341.5944"/>
</g>
<!-- Node167 -->
<g id="node7" class="node">
<title>Node167</title>
<g id="a_node7"><a xlink:href="class_c_merkle_tx.html#aff66148b06d22c7ee555b79058211493" target="_top" xlink:title="CMerkleTx::hashUnset">
<polygon fill="#ffffff" stroke="#000000" points="154.5,-266.5 154.5,-285.5 272.5,-285.5 272.5,-266.5 154.5,-266.5"/>
<text text-anchor="middle" x="213.5" y="-273.5" font-family="Helvetica,sans-Serif" font-size="10.00" fill="#000000">CMerkleTx::hashUnset</text>
</a>
</g>
</g>
<!-- Node161&#45;&gt;Node167 -->
<g id="edge6" class="edge">
<title>Node161&#45;&gt;Node167</title>
<path fill="none" stroke="#191970" d="M67.4451,-190.6266C83.9403,-205.4304 117.4976,-233.96 150,-252 157.3259,-256.0662 165.4802,-259.7248 173.4377,-262.8888"/>
<polygon fill="#191970" stroke="#191970" points="172.3861,-266.233 182.9777,-266.4968 174.8624,-259.6856 172.3861,-266.233"/>
</g>
<!-- Node168 -->
<g id="node8" class="node">
<title>Node168</title>
<g id="a_node8"><a xlink:href="classbase__blob.html#aba89c6722866a5850882a509d27d7bbd" target="_top" xlink:title="base_blob::IsNull">
<polygon fill="#ffffff" stroke="#000000" points="322,-256.5 322,-275.5 414,-275.5 414,-256.5 322,-256.5"/>
<text text-anchor="middle" x="368" y="-263.5" font-family="Helvetica,sans-Serif" font-size="10.00" fill="#000000">base_blob::IsNull</text>
</a>
</g>
</g>
<!-- Node161&#45;&gt;Node168 -->
<g id="edge8" class="edge">
<title>Node161&#45;&gt;Node168</title>
<path fill="none" stroke="#191970" d="M91.7704,-190.5032C148.3754,-205.974 260.4034,-236.5926 323.0009,-253.7012"/>
<polygon fill="#191970" stroke="#191970" points="322.4087,-257.1677 332.9777,-256.428 324.2543,-250.4153 322.4087,-257.1677"/>
</g>
<!-- Node169 -->
<g id="node9" class="node">
<title>Node169</title>
<g id="a_node9"><a xlink:href="class_c_merkle_tx.html#a0a2c5cd56d31bbe9b5b870ef6ebb441d" target="_top" xlink:title="CMerkleTx::isAbandoned">
<polygon fill="#ffffff" stroke="#000000" points="150,-152.5 150,-171.5 277,-171.5 277,-152.5 150,-152.5"/>
<text text-anchor="middle" x="213.5" y="-159.5" font-family="Helvetica,sans-Serif" font-size="10.00" fill="#000000">CMerkleTx::isAbandoned</text>
</a>
</g>
</g>
<!-- Node161&#45;&gt;Node169 -->
<g id="edge9" class="edge">
<title>Node161&#45;&gt;Node169</title>
<path fill="none" stroke="#191970" d="M114.3862,-174.033C122.6627,-173.0282 131.2752,-171.9826 139.815,-170.9458"/>
<polygon fill="#191970" stroke="#191970" points="140.2767,-174.4155 149.782,-169.7357 139.433,-167.4665 140.2767,-174.4155"/>
</g>
<!-- Node170 -->
<g id="node10" class="node">
<title>Node170</title>
<g id="a_node10"><a xlink:href="class_c_merkle_tx.html#a3ee9b7ddcfb935d8c61f83cfa4cda519" target="_top" xlink:title="CMerkleTx::SetTx">
<polygon fill="#ffffff" stroke="#000000" points="165,-114.5 165,-133.5 262,-133.5 262,-114.5 165,-114.5"/>
<text text-anchor="middle" x="213.5" y="-121.5" font-family="Helvetica,sans-Serif" font-size="10.00" fill="#000000">CMerkleTx::SetTx</text>
</a>
</g>
</g>
<!-- Node161&#45;&gt;Node170 -->
<g id="edge10" class="edge">
<title>Node161&#45;&gt;Node170</title>
<path fill="none" stroke="#191970" d="M78.5677,-171.4901C97.2712,-163.4117 125.1648,-151.7661 150,-143 156.3428,-140.7612 163.0997,-138.5542 169.7509,-136.4812"/>
<polygon fill="#191970" stroke="#191970" points="170.8148,-139.8159 179.3595,-133.5518 168.7734,-133.1202 170.8148,-139.8159"/>
</g>
<!-- Node171 -->
<g id="node11" class="node">
<title>Node171</title>
<g id="a_node11"><a xlink:href="classbase__blob.html#a7a0d25782830d8b087c4da839f3ccdeb" target="_top" xlink:title="base_blob::ToString">
<polygon fill="#ffffff" stroke="#000000" points="161.5,-76.5 161.5,-95.5 265.5,-95.5 265.5,-76.5 161.5,-76.5"/>
<text text-anchor="middle" x="213.5" y="-83.5" font-family="Helvetica,sans-Serif" font-size="10.00" fill="#000000">base_blob::ToString</text>
</a>
</g>
</g>
<!-- Node161&#45;&gt;Node171 -->
<g id="edge11" class="edge">
<title>Node161&#45;&gt;Node171</title>
<path fill="none" stroke="#191970" d="M66.1202,-171.3966C81.8104,-155.4064 115.5582,-123.2798 150,-105 154.2246,-102.7578 158.7511,-100.7429 163.3703,-98.9405"/>
<polygon fill="#191970" stroke="#191970" points="164.6728,-102.192 172.9148,-95.5347 162.3202,-95.5992 164.6728,-102.192"/>
</g>
<!-- Node172 -->
<g id="node12" class="node">
<title>Node172</title>
<g id="a_node12"><a xlink:href="class_wallet_batch.html#a8c3c129d34433dcc8a60b55e0f7fd64b" target="_top" xlink:title="WalletBatch::WriteTx">
<polygon fill="#ffffff" stroke="#000000" points="158.5,-38.5 158.5,-57.5 268.5,-57.5 268.5,-38.5 158.5,-38.5"/>
<text text-anchor="middle" x="213.5" y="-45.5" font-family="Helvetica,sans-Serif" font-size="10.00" fill="#000000">WalletBatch::WriteTx</text>
</a>
</g>
</g>
<!-- Node161&#45;&gt;Node172 -->
<g id="edge12" class="edge">
<title>Node161&#45;&gt;Node172</title>
<path fill="none" stroke="#191970" d="M62.1208,-171.4221C74.3208,-149.5256 107.3004,-95.5044 150,-67 152.9609,-65.0234 156.1336,-63.2471 159.4236,-61.6515"/>
<polygon fill="#191970" stroke="#191970" points="161.0903,-64.7463 168.9277,-57.617 158.355,-58.3028 161.0903,-64.7463"/>
</g>
<!-- Node174 -->
<g id="node14" class="node">
<title>Node174</title>
<g id="a_node14"><a xlink:href="class_c_wallet_tx.html#ac8a376bcb955e437489504dc596b43cf" target="_top" xlink:title="make sure balances are recalculated ">
<polygon fill="#ffffff" stroke="#000000" points="157.5,-.5 157.5,-19.5 269.5,-19.5 269.5,-.5 157.5,-.5"/>
<text text-anchor="middle" x="213.5" y="-7.5" font-family="Helvetica,sans-Serif" font-size="10.00" fill="#000000">CWalletTx::MarkDirty</text>
</a>
</g>
</g>
<!-- Node161&#45;&gt;Node174 -->
<g id="edge15" class="edge">
<title>Node161&#45;&gt;Node174</title>
<path fill="none" stroke="#191970" d="M60.2054,-171.1134C69.4869,-144.0664 99.0172,-68.2605 150,-29 152.4289,-27.1296 155.0399,-25.4427 157.7689,-23.9214"/>
<polygon fill="#191970" stroke="#191970" points="159.2923,-27.0726 166.8074,-19.6043 156.2754,-20.7561 159.2923,-27.0726"/>
</g>
<!-- Node165 -->
<g id="node5" class="node">
<title>Node165</title>
<g id="a_node5"><a xlink:href="utiltime_8cpp.html#a46fac5fba8ba905b5f9acb364f5d8c6f" target="_top" xlink:title="GetTimeMicros() and GetTimeMillis() both return the system time, but in different units...">
<polygon fill="#ffffff" stroke="#000000" points="341,-313.5 341,-332.5 395,-332.5 395,-313.5 341,-313.5"/>
<text text-anchor="middle" x="368" y="-320.5" font-family="Helvetica,sans-Serif" font-size="10.00" fill="#000000">GetTime</text>
</a>
</g>
</g>
<!-- Node164&#45;&gt;Node165 -->
<g id="edge4" class="edge">
<title>Node164&#45;&gt;Node165</title>
<path fill="none" stroke="#191970" d="M259.8551,-343.299C282.6179,-339.0264 309.6656,-333.9495 331.0169,-329.9418"/>
<polygon fill="#191970" stroke="#191970" points="331.8144,-333.3533 340.997,-328.0685 330.523,-326.4735 331.8144,-333.3533"/>
</g>
<!-- Node166 -->
<g id="node6" class="node">
<title>Node166</title>
<g id="a_node6"><a xlink:href="timedata_8cpp.html#a50ca5344c75631267633f15cfe5e983e" target="_top" xlink:title="&quot;Never go to sea with two chronometers; take one or three.&quot; Our three time sources are: ...">
<polygon fill="#ffffff" stroke="#000000" points="327.5,-351.5 327.5,-370.5 408.5,-370.5 408.5,-351.5 327.5,-351.5"/>
<text text-anchor="middle" x="368" y="-358.5" font-family="Helvetica,sans-Serif" font-size="10.00" fill="#000000">GetTimeOffset</text>
</a>
</g>
</g>
<!-- Node164&#45;&gt;Node166 -->
<g id="edge5" class="edge">
<title>Node164&#45;&gt;Node166</title>
<path fill="none" stroke="#191970" d="M259.8551,-354.7003C278.0042,-355.7575 298.8773,-356.9734 317.4152,-358.0533"/>
<polygon fill="#191970" stroke="#191970" points="317.255,-361.5498 327.4416,-358.6374 317.6621,-354.5617 317.255,-361.5498"/>
</g>
<!-- Node167&#45;&gt;Node168 -->
<g id="edge7" class="edge">
<title>Node167&#45;&gt;Node168</title>
<path fill="none" stroke="#191970" d="M272.7919,-272.1623C285.4235,-271.3448 298.7333,-270.4833 311.2663,-269.6721"/>
<polygon fill="#191970" stroke="#191970" points="311.8264,-273.1432 321.5795,-269.0046 311.3742,-266.1579 311.8264,-273.1432"/>
</g>
<!-- Node172&#45;&gt;Node162 -->
<g id="edge14" class="edge">
<title>Node172&#45;&gt;Node162</title>
<path fill="none" stroke="#191970" d="M254.4527,-57.5848C262.1699,-60.127 270.0066,-63.2403 277,-67 306.4001,-82.8056 335.068,-109.083 352.1341,-126.2232"/>
<polygon fill="#191970" stroke="#191970" points="349.6318,-128.6703 359.1199,-133.385 354.6428,-123.7826 349.6318,-128.6703"/>
</g>
<!-- Node173 -->
<g id="node13" class="node">
<title>Node173</title>
<g id="a_node13"><a xlink:href="class_wallet_batch.html#a552eb421cff45a9ed94b1ec77e5c76c3" target="_top" xlink:title="WalletBatch::WriteIC">
<polygon fill="#ffffff" stroke="#000000" points="313,-38.5 313,-57.5 423,-57.5 423,-38.5 313,-38.5"/>
<text text-anchor="middle" x="368" y="-45.5" font-family="Helvetica,sans-Serif" font-size="10.00" fill="#000000">WalletBatch::WriteIC</text>
</a>
</g>
</g>
<!-- Node172&#45;&gt;Node173 -->
<g id="edge13" class="edge">
<title>Node172&#45;&gt;Node173</title>
<path fill="none" stroke="#191970" d="M268.8417,-48C279.7799,-48 291.3571,-48 302.5919,-48"/>
<polygon fill="#191970" stroke="#191970" points="302.7852,-51.5001 312.7852,-48 302.7852,-44.5001 302.7852,-51.5001"/>
</g>
</g>
</svg>
