<?xml version="1.0" encoding="UTF-8" standalone="no"?>
<!DOCTYPE svg PUBLIC "-//W3C//DTD SVG 1.1//EN"
 "http://www.w3.org/Graphics/SVG/1.1/DTD/svg11.dtd">
<!-- Generated by graphviz version 2.38.0 (20140413.2041)
 -->
<!-- Title: src/qt/guiconstants.h Pages: 1 -->
<svg width="2735pt" height="84pt"
 viewBox="0.00 0.00 2734.50 84.00" xmlns="http://www.w3.org/2000/svg" xmlns:xlink="http://www.w3.org/1999/xlink">
<g id="graph0" class="graph" transform="scale(1 1) rotate(0) translate(4 80)">
<title>src/qt/guiconstants.h</title>
<polygon fill="white" stroke="none" points="-4,4 -4,-80 2730.5,-80 2730.5,4 -4,4"/>
<!-- Node1 -->
<g id="node1" class="node"><title>Node1</title>
<polygon fill="#bfbfbf" stroke="black" points="1238,-56.5 1238,-75.5 1355,-75.5 1355,-56.5 1238,-56.5"/>
<text text-anchor="middle" x="1296.5" y="-63.5" font-family="Helvetica,sans-Serif" font-size="10.00">src/qt/guiconstants.h</text>
</g>
<!-- Node2 -->
<g id="node2" class="node"><title>Node2</title>
<g id="a_node2"><a xlink:href="askpassphrasedialog_8cpp.html" target="_top" xlink:title="src/qt/askpassphrasedialog.cpp">
<polygon fill="white" stroke="black" points="0,-0.5 0,-19.5 167,-19.5 167,-0.5 0,-0.5"/>
<text text-anchor="middle" x="83.5" y="-7.5" font-family="Helvetica,sans-Serif" font-size="10.00">src/qt/askpassphrasedialog.cpp</text>
</a>
</g>
</g>
<!-- Node1&#45;&gt;Node2 -->
<g id="edge1" class="edge"><title>Node1&#45;&gt;Node2</title>
<path fill="none" stroke="midnightblue" d="M1227.66,-63.6113C1052.1,-59.7714 573.446,-47.4293 175.5,-20 172.778,-19.8124 170.012,-19.61 167.22,-19.3957"/>
<polygon fill="midnightblue" stroke="midnightblue" points="1227.71,-67.1132 1237.79,-63.8307 1227.86,-60.1149 1227.71,-67.1132"/>
</g>
<!-- Node3 -->
<g id="node3" class="node"><title>Node3</title>
<g id="a_node3"><a xlink:href="bantablemodel_8cpp.html" target="_top" xlink:title="src/qt/bantablemodel.cpp">
<polygon fill="white" stroke="black" points="185,-0.5 185,-19.5 324,-19.5 324,-0.5 185,-0.5"/>
<text text-anchor="middle" x="254.5" y="-7.5" font-family="Helvetica,sans-Serif" font-size="10.00">src/qt/bantablemodel.cpp</text>
</a>
</g>
</g>
<!-- Node1&#45;&gt;Node3 -->
<g id="edge2" class="edge"><title>Node1&#45;&gt;Node3</title>
<path fill="none" stroke="midnightblue" d="M1227.73,-63.3622C1069.63,-59.2525 668.161,-46.8521 333.5,-20 330.473,-19.7571 327.383,-19.4895 324.262,-19.2032"/>
<polygon fill="midnightblue" stroke="midnightblue" points="1227.7,-66.8626 1237.79,-63.621 1227.88,-59.8649 1227.7,-66.8626"/>
</g>
<!-- Node4 -->
<g id="node4" class="node"><title>Node4</title>
<g id="a_node4"><a xlink:href="bitcoin_8cpp.html" target="_top" xlink:title="src/qt/bitcoin.cpp">
<polygon fill="white" stroke="black" points="342.5,-0.5 342.5,-19.5 440.5,-19.5 440.5,-0.5 342.5,-0.5"/>
<text text-anchor="middle" x="391.5" y="-7.5" font-family="Helvetica,sans-Serif" font-size="10.00">src/qt/bitcoin.cpp</text>
</a>
</g>
</g>
<!-- Node1&#45;&gt;Node4 -->
<g id="edge3" class="edge"><title>Node1&#45;&gt;Node4</title>
<path fill="none" stroke="midnightblue" d="M1227.76,-63.6964C1083.29,-60.4407 737.715,-49.9407 449.5,-20 446.561,-19.6947 443.543,-19.343 440.503,-18.9594"/>
<polygon fill="midnightblue" stroke="midnightblue" points="1227.73,-67.1967 1237.81,-63.9185 1227.89,-60.1984 1227.73,-67.1967"/>
</g>
<!-- Node5 -->
<g id="node5" class="node"><title>Node5</title>
<g id="a_node5"><a xlink:href="bitcoinamountfield_8cpp.html" target="_top" xlink:title="src/qt/bitcoinamountfield.cpp">
<polygon fill="white" stroke="black" points="459,-0.5 459,-19.5 614,-19.5 614,-0.5 459,-0.5"/>
<text text-anchor="middle" x="536.5" y="-7.5" font-family="Helvetica,sans-Serif" font-size="10.00">src/qt/bitcoinamountfield.cpp</text>
</a>
</g>
</g>
<!-- Node1&#45;&gt;Node5 -->
<g id="edge4" class="edge"><title>Node1&#45;&gt;Node5</title>
<path fill="none" stroke="midnightblue" d="M1227.53,-61.2536C1105.44,-54.4303 843.33,-38.9202 622.5,-20 619.808,-19.7693 617.069,-19.5266 614.303,-19.2747"/>
<polygon fill="midnightblue" stroke="midnightblue" points="1227.66,-64.7664 1237.84,-61.8279 1228.05,-57.7772 1227.66,-64.7664"/>
</g>
<!-- Node6 -->
<g id="node6" class="node"><title>Node6</title>
<g id="a_node6"><a xlink:href="bitcoingui_8cpp.html" target="_top" xlink:title="src/qt/bitcoingui.cpp">
<polygon fill="white" stroke="black" points="632,-0.5 632,-19.5 745,-19.5 745,-0.5 632,-0.5"/>
<text text-anchor="middle" x="688.5" y="-7.5" font-family="Helvetica,sans-Serif" font-size="10.00">src/qt/bitcoingui.cpp</text>
</a>
</g>
</g>
<!-- Node1&#45;&gt;Node6 -->
<g id="edge5" class="edge"><title>Node1&#45;&gt;Node6</title>
<path fill="none" stroke="midnightblue" d="M1227.58,-60.4466C1124.52,-53.3726 924.188,-38.6008 754.5,-20 751.396,-19.6598 748.213,-19.2912 745.002,-18.904"/>
<polygon fill="midnightblue" stroke="midnightblue" points="1227.64,-63.9583 1237.85,-61.148 1228.12,-56.9746 1227.64,-63.9583"/>
</g>
<!-- Node7 -->
<g id="node7" class="node"><title>Node7</title>
<g id="a_node7"><a xlink:href="clientmodel_8cpp.html" target="_top" xlink:title="src/qt/clientmodel.cpp">
<polygon fill="white" stroke="black" points="763.5,-0.5 763.5,-19.5 885.5,-19.5 885.5,-0.5 763.5,-0.5"/>
<text text-anchor="middle" x="824.5" y="-7.5" font-family="Helvetica,sans-Serif" font-size="10.00">src/qt/clientmodel.cpp</text>
</a>
</g>
</g>
<!-- Node1&#45;&gt;Node7 -->
<g id="edge6" class="edge"><title>Node1&#45;&gt;Node7</title>
<path fill="none" stroke="midnightblue" d="M1227.92,-57.6694C1147.87,-49.0321 1011.51,-34.0707 894.5,-20 891.58,-19.6489 888.593,-19.2846 885.576,-18.9125"/>
<polygon fill="midnightblue" stroke="midnightblue" points="1227.56,-61.1507 1237.88,-58.7424 1228.31,-54.1909 1227.56,-61.1507"/>
</g>
<!-- Node8 -->
<g id="node8" class="node"><title>Node8</title>
<g id="a_node8"><a xlink:href="intro_8cpp.html" target="_top" xlink:title="src/qt/intro.cpp">
<polygon fill="white" stroke="black" points="904,-0.5 904,-19.5 993,-19.5 993,-0.5 904,-0.5"/>
<text text-anchor="middle" x="948.5" y="-7.5" font-family="Helvetica,sans-Serif" font-size="10.00">src/qt/intro.cpp</text>
</a>
</g>
</g>
<!-- Node1&#45;&gt;Node8 -->
<g id="edge7" class="edge"><title>Node1&#45;&gt;Node8</title>
<path fill="none" stroke="midnightblue" d="M1228.72,-54.992C1168.9,-46.0794 1079.34,-32.5458 1001.5,-20 998.736,-19.5545 995.892,-19.0898 993.024,-18.6166"/>
<polygon fill="midnightblue" stroke="midnightblue" points="1228.39,-58.4813 1238.8,-56.4913 1229.42,-51.5576 1228.39,-58.4813"/>
</g>
<!-- Node9 -->
<g id="node9" class="node"><title>Node9</title>
<g id="a_node9"><a xlink:href="networkstyle_8cpp.html" target="_top" xlink:title="src/qt/networkstyle.cpp">
<polygon fill="white" stroke="black" points="1011,-0.5 1011,-19.5 1138,-19.5 1138,-0.5 1011,-0.5"/>
<text text-anchor="middle" x="1074.5" y="-7.5" font-family="Helvetica,sans-Serif" font-size="10.00">src/qt/networkstyle.cpp</text>
</a>
</g>
</g>
<!-- Node1&#45;&gt;Node9 -->
<g id="edge8" class="edge"><title>Node1&#45;&gt;Node9</title>
<path fill="none" stroke="midnightblue" d="M1251.38,-54.0237C1209.44,-43.8232 1147.85,-28.8414 1109.51,-19.5164"/>
<polygon fill="midnightblue" stroke="midnightblue" points="1250.78,-57.4808 1261.32,-56.4435 1252.43,-50.6791 1250.78,-57.4808"/>
</g>
<!-- Node10 -->
<g id="node10" class="node"><title>Node10</title>
<g id="a_node10"><a xlink:href="optionsdialog_8cpp.html" target="_top" xlink:title="src/qt/optionsdialog.cpp">
<polygon fill="white" stroke="black" points="1156,-0.5 1156,-19.5 1287,-19.5 1287,-0.5 1156,-0.5"/>
<text text-anchor="middle" x="1221.5" y="-7.5" font-family="Helvetica,sans-Serif" font-size="10.00">src/qt/optionsdialog.cpp</text>
</a>
</g>
</g>
<!-- Node1&#45;&gt;Node10 -->
<g id="edge9" class="edge"><title>Node1&#45;&gt;Node10</title>
<path fill="none" stroke="midnightblue" d="M1276.19,-50.3804C1262.64,-40.6204 1245.26,-28.1057 1233.77,-19.8339"/>
<polygon fill="midnightblue" stroke="midnightblue" points="1274.29,-53.3213 1284.45,-56.324 1278.38,-47.6405 1274.29,-53.3213"/>
</g>
<!-- Node11 -->
<g id="node11" class="node"><title>Node11</title>
<g id="a_node11"><a xlink:href="optionsmodel_8cpp.html" target="_top" xlink:title="src/qt/optionsmodel.cpp">
<polygon fill="white" stroke="black" points="1305.5,-0.5 1305.5,-19.5 1437.5,-19.5 1437.5,-0.5 1305.5,-0.5"/>
<text text-anchor="middle" x="1371.5" y="-7.5" font-family="Helvetica,sans-Serif" font-size="10.00">src/qt/optionsmodel.cpp</text>
</a>
</g>
</g>
<!-- Node1&#45;&gt;Node11 -->
<g id="edge10" class="edge"><title>Node1&#45;&gt;Node11</title>
<path fill="none" stroke="midnightblue" d="M1316.81,-50.3804C1330.36,-40.6204 1347.74,-28.1057 1359.23,-19.8339"/>
<polygon fill="midnightblue" stroke="midnightblue" points="1314.62,-47.6405 1308.55,-56.324 1318.71,-53.3213 1314.62,-47.6405"/>
</g>
<!-- Node12 -->
<g id="node12" class="node"><title>Node12</title>
<g id="a_node12"><a xlink:href="overviewpage_8cpp.html" target="_top" xlink:title="src/qt/overviewpage.cpp">
<polygon fill="white" stroke="black" points="1455.5,-0.5 1455.5,-19.5 1587.5,-19.5 1587.5,-0.5 1455.5,-0.5"/>
<text text-anchor="middle" x="1521.5" y="-7.5" font-family="Helvetica,sans-Serif" font-size="10.00">src/qt/overviewpage.cpp</text>
</a>
</g>
</g>
<!-- Node1&#45;&gt;Node12 -->
<g id="edge11" class="edge"><title>Node1&#45;&gt;Node12</title>
<path fill="none" stroke="midnightblue" d="M1341.97,-54.0884C1384.47,-43.8865 1447.08,-28.8612 1486.01,-19.5164"/>
<polygon fill="midnightblue" stroke="midnightblue" points="1341.06,-50.7064 1332.15,-56.4435 1342.69,-57.5131 1341.06,-50.7064"/>
</g>
<!-- Node13 -->
<g id="node13" class="node"><title>Node13</title>
<g id="a_node13"><a xlink:href="peertablemodel_8cpp.html" target="_top" xlink:title="src/qt/peertablemodel.cpp">
<polygon fill="white" stroke="black" points="1606,-0.5 1606,-19.5 1749,-19.5 1749,-0.5 1606,-0.5"/>
<text text-anchor="middle" x="1677.5" y="-7.5" font-family="Helvetica,sans-Serif" font-size="10.00">src/qt/peertablemodel.cpp</text>
</a>
</g>
</g>
<!-- Node1&#45;&gt;Node13 -->
<g id="edge12" class="edge"><title>Node1&#45;&gt;Node13</title>
<path fill="none" stroke="midnightblue" d="M1365.51,-55.2186C1437.46,-45.0216 1549.07,-29.2023 1617.48,-19.5069"/>
<polygon fill="midnightblue" stroke="midnightblue" points="1364.61,-51.8121 1355.2,-56.6808 1365.59,-58.7428 1364.61,-51.8121"/>
</g>
<!-- Node14 -->
<g id="node14" class="node"><title>Node14</title>
<g id="a_node14"><a xlink:href="platformstyle_8cpp.html" target="_top" xlink:title="src/qt/platformstyle.cpp">
<polygon fill="white" stroke="black" points="1767.5,-0.5 1767.5,-19.5 1897.5,-19.5 1897.5,-0.5 1767.5,-0.5"/>
<text text-anchor="middle" x="1832.5" y="-7.5" font-family="Helvetica,sans-Serif" font-size="10.00">src/qt/platformstyle.cpp</text>
</a>
</g>
</g>
<!-- Node1&#45;&gt;Node14 -->
<g id="edge13" class="edge"><title>Node1&#45;&gt;Node14</title>
<path fill="none" stroke="midnightblue" d="M1365.37,-58.8106C1455.69,-50.574 1619.08,-35.2664 1758.5,-20 1761.33,-19.6901 1764.22,-19.367 1767.14,-19.0352"/>
<polygon fill="midnightblue" stroke="midnightblue" points="1364.9,-55.3389 1355.25,-59.731 1365.53,-62.3101 1364.9,-55.3389"/>
</g>
<!-- Node15 -->
<g id="node15" class="node"><title>Node15</title>
<g id="a_node15"><a xlink:href="qvalidatedlineedit_8cpp.html" target="_top" xlink:title="src/qt/qvalidatedlineedit.cpp">
<polygon fill="white" stroke="black" points="1916,-0.5 1916,-19.5 2067,-19.5 2067,-0.5 1916,-0.5"/>
<text text-anchor="middle" x="1991.5" y="-7.5" font-family="Helvetica,sans-Serif" font-size="10.00">src/qt/qvalidatedlineedit.cpp</text>
</a>
</g>
</g>
<!-- Node1&#45;&gt;Node15 -->
<g id="edge14" class="edge"><title>Node1&#45;&gt;Node15</title>
<path fill="none" stroke="midnightblue" d="M1365.24,-60.6452C1478.25,-53.3251 1710.35,-37.6151 1906.5,-20 1909.6,-19.7213 1912.77,-19.4277 1915.97,-19.1236"/>
<polygon fill="midnightblue" stroke="midnightblue" points="1364.76,-57.1687 1355.01,-61.3061 1365.21,-64.1542 1364.76,-57.1687"/>
</g>
<!-- Node16 -->
<g id="node16" class="node"><title>Node16</title>
<g id="a_node16"><a xlink:href="receiverequestdialog_8cpp.html" target="_top" xlink:title="src/qt/receiverequestdialog.cpp">
<polygon fill="white" stroke="black" points="2085,-0.5 2085,-19.5 2252,-19.5 2252,-0.5 2085,-0.5"/>
<text text-anchor="middle" x="2168.5" y="-7.5" font-family="Helvetica,sans-Serif" font-size="10.00">src/qt/receiverequestdialog.cpp</text>
</a>
</g>
</g>
<!-- Node1&#45;&gt;Node16 -->
<g id="edge15" class="edge"><title>Node1&#45;&gt;Node16</title>
<path fill="none" stroke="midnightblue" d="M1365.54,-61.9433C1501.65,-55.7118 1814.22,-40.3867 2076.5,-20 2079.22,-19.7886 2081.98,-19.5655 2084.78,-19.3334"/>
<polygon fill="midnightblue" stroke="midnightblue" points="1365.09,-58.4599 1355.26,-62.4118 1365.41,-65.4526 1365.09,-58.4599"/>
</g>
<!-- Node17 -->
<g id="node17" class="node"><title>Node17</title>
<g id="a_node17"><a xlink:href="transactiontablemodel_8cpp.html" target="_top" xlink:title="src/qt/transactiontablemodel.cpp">
<polygon fill="white" stroke="black" points="2270,-0.5 2270,-19.5 2445,-19.5 2445,-0.5 2270,-0.5"/>
<text text-anchor="middle" x="2357.5" y="-7.5" font-family="Helvetica,sans-Serif" font-size="10.00">src/qt/transactiontablemodel.cpp</text>
</a>
</g>
</g>
<!-- Node1&#45;&gt;Node17 -->
<g id="edge16" class="edge"><title>Node1&#45;&gt;Node17</title>
<path fill="none" stroke="midnightblue" d="M1365.09,-62.9066C1523.24,-57.8379 1925.69,-43.558 2261.5,-20 2264.26,-19.8067 2267.05,-19.6009 2269.88,-19.3851"/>
<polygon fill="midnightblue" stroke="midnightblue" points="1364.91,-59.4104 1355.03,-63.2272 1365.13,-66.4069 1364.91,-59.4104"/>
</g>
<!-- Node18 -->
<g id="node18" class="node"><title>Node18</title>
<g id="a_node18"><a xlink:href="utilitydialog_8cpp.html" target="_top" xlink:title="src/qt/utilitydialog.cpp">
<polygon fill="white" stroke="black" points="2463,-0.5 2463,-19.5 2584,-19.5 2584,-0.5 2463,-0.5"/>
<text text-anchor="middle" x="2523.5" y="-7.5" font-family="Helvetica,sans-Serif" font-size="10.00">src/qt/utilitydialog.cpp</text>
</a>
</g>
</g>
<!-- Node1&#45;&gt;Node18 -->
<g id="edge17" class="edge"><title>Node1&#45;&gt;Node18</title>
<path fill="none" stroke="midnightblue" d="M1365.14,-64.5068C1544.53,-62.747 2042,-54.8444 2454.5,-20 2457.27,-19.7661 2460.1,-19.5016 2462.95,-19.2139"/>
<polygon fill="midnightblue" stroke="midnightblue" points="1365.02,-61.0077 1355.06,-64.6025 1365.09,-68.0074 1365.02,-61.0077"/>
</g>
<!-- Node19 -->
<g id="node19" class="node"><title>Node19</title>
<g id="a_node19"><a xlink:href="walletmodel_8cpp.html" target="_top" xlink:title="src/qt/walletmodel.cpp">
<polygon fill="white" stroke="black" points="2602.5,-0.5 2602.5,-19.5 2726.5,-19.5 2726.5,-0.5 2602.5,-0.5"/>
<text text-anchor="middle" x="2664.5" y="-7.5" font-family="Helvetica,sans-Serif" font-size="10.00">src/qt/walletmodel.cpp</text>
</a>
</g>
</g>
<!-- Node1&#45;&gt;Node19 -->
<g id="edge18" class="edge"><title>Node1&#45;&gt;Node19</title>
<path fill="none" stroke="midnightblue" d="M1365.13,-64.8252C1558.62,-63.8566 2124.93,-57.7473 2593.5,-20 2596.35,-19.7705 2599.26,-19.5096 2602.2,-19.2248"/>
<polygon fill="midnightblue" stroke="midnightblue" points="1365.09,-61.3252 1355.1,-64.8724 1365.12,-68.3252 1365.09,-61.3252"/>
</g>
</g>
</svg>
