<?xml version="1.0" encoding="UTF-8" standalone="no"?>
<!DOCTYPE svg PUBLIC "-//W3C//DTD SVG 1.1//EN"
 "http://www.w3.org/Graphics/SVG/1.1/DTD/svg11.dtd">
<!-- Generated by graphviz version 2.49.3 (0)
 -->
<!-- Title: secp256k1_sha256_finalize Pages: 1 -->
<svg width="1122pt" height="241pt"
 viewBox="0.00 0.00 1122.00 240.50" xmlns="http://www.w3.org/2000/svg" xmlns:xlink="http://www.w3.org/1999/xlink">
<g id="graph0" class="graph" transform="scale(1 1) rotate(0) translate(4 236.5)">
<title>secp256k1_sha256_finalize</title>
<polygon fill="white" stroke="transparent" points="-4,4 -4,-236.5 1118,-236.5 1118,4 -4,4"/>
<!-- Node1 -->
<g id="node1" class="node">
<title>Node1</title>
<g id="a_node1"><a xlink:title=" ">
<polygon fill="#bfbfbf" stroke="black" points="964,-158.5 964,-177.5 1114,-177.5 1114,-158.5 964,-158.5"/>
<text text-anchor="middle" x="1039" y="-165.5" font-family="Helvetica,sans-Serif" font-size="10.00">secp256k1_sha256_finalize</text>
</a>
</g>
</g>
<!-- Node2 -->
<g id="node2" class="node">
<title>Node2</title>
<g id="a_node2"><a xlink:href="hash__impl_8h.html#a3e852ff104bc565cbd72a958e1b58556" target="_top" xlink:title=" ">
<polygon fill="white" stroke="black" points="778.5,-153 778.5,-183 920.5,-183 920.5,-153 778.5,-153"/>
<text text-anchor="start" x="786.5" y="-171" font-family="Helvetica,sans-Serif" font-size="10.00">secp256k1_hmac_sha256</text>
<text text-anchor="middle" x="849.5" y="-160" font-family="Helvetica,sans-Serif" font-size="10.00">_finalize</text>
</a>
</g>
</g>
<!-- Node1&#45;&gt;Node2 -->
<g id="edge1" class="edge">
<title>Node1&#45;&gt;Node2</title>
<path fill="none" stroke="midnightblue" d="M953.8,-168C942.74,-168 931.5,-168 920.71,-168"/>
<polygon fill="midnightblue" stroke="midnightblue" points="953.9,-171.5 963.9,-168 953.9,-164.5 953.9,-171.5"/>
</g>
<!-- Node5 -->
<g id="node5" class="node">
<title>Node5</title>
<g id="a_node5"><a xlink:href="hash__impl_8h.html#afa04d400568fced9e676dcf3cee68105" target="_top" xlink:title=" ">
<polygon fill="white" stroke="black" points="778.5,-202 778.5,-232 920.5,-232 920.5,-202 778.5,-202"/>
<text text-anchor="start" x="786.5" y="-220" font-family="Helvetica,sans-Serif" font-size="10.00">secp256k1_hmac_sha256</text>
<text text-anchor="middle" x="849.5" y="-209" font-family="Helvetica,sans-Serif" font-size="10.00">_initialize</text>
</a>
</g>
</g>
<!-- Node1&#45;&gt;Node5 -->
<g id="edge4" class="edge">
<title>Node1&#45;&gt;Node5</title>
<path fill="none" stroke="midnightblue" d="M991.69,-180.1C966.41,-186.71 934.89,-194.95 908.04,-201.96"/>
<polygon fill="midnightblue" stroke="midnightblue" points="992.61,-183.48 1001.4,-177.56 990.84,-176.71 992.61,-183.48"/>
</g>
<!-- Node6 -->
<g id="node6" class="node">
<title>Node6</title>
<g id="a_node6"><a xlink:href="hash__impl_8h.html#ae0fb2998761b85943c8da7f64abfe1ce" target="_top" xlink:title=" ">
<polygon fill="white" stroke="black" points="771,-71 771,-101 928,-101 928,-71 771,-71"/>
<text text-anchor="start" x="779" y="-89" font-family="Helvetica,sans-Serif" font-size="10.00">secp256k1_sha256_initialize</text>
<text text-anchor="middle" x="849.5" y="-78" font-family="Helvetica,sans-Serif" font-size="10.00">_tagged</text>
</a>
</g>
</g>
<!-- Node1&#45;&gt;Node6 -->
<g id="edge7" class="edge">
<title>Node1&#45;&gt;Node6</title>
<path fill="none" stroke="midnightblue" d="M1006.78,-154.35C973.14,-139.64 919.77,-116.29 884.94,-101.06"/>
<polygon fill="midnightblue" stroke="midnightblue" points="1005.56,-157.63 1016.12,-158.43 1008.36,-151.22 1005.56,-157.63"/>
</g>
<!-- Node3 -->
<g id="node3" class="node">
<title>Node3</title>
<g id="a_node3"><a xlink:href="hash__impl_8h.html#a1c8597fd36091661f9253b6727efa228" target="_top" xlink:title=" ">
<polygon fill="white" stroke="black" points="589,-202 589,-232 732,-232 732,-202 589,-202"/>
<text text-anchor="start" x="597" y="-220" font-family="Helvetica,sans-Serif" font-size="10.00">secp256k1_rfc6979_hmac</text>
<text text-anchor="middle" x="660.5" y="-209" font-family="Helvetica,sans-Serif" font-size="10.00">_sha256_generate</text>
</a>
</g>
</g>
<!-- Node2&#45;&gt;Node3 -->
<g id="edge2" class="edge">
<title>Node2&#45;&gt;Node3</title>
<path fill="none" stroke="midnightblue" d="M781.25,-185.62C760.79,-190.98 738.5,-196.82 718.77,-201.99"/>
<polygon fill="midnightblue" stroke="midnightblue" points="782.34,-188.96 791.12,-183.03 780.56,-182.18 782.34,-188.96"/>
</g>
<!-- Node4 -->
<g id="node4" class="node">
<title>Node4</title>
<g id="a_node4"><a xlink:href="hash__impl_8h.html#aa84777e12130975b3e3e103638a765a1" target="_top" xlink:title=" ">
<polygon fill="white" stroke="black" points="589,-153 589,-183 732,-183 732,-153 589,-153"/>
<text text-anchor="start" x="597" y="-171" font-family="Helvetica,sans-Serif" font-size="10.00">secp256k1_rfc6979_hmac</text>
<text text-anchor="middle" x="660.5" y="-160" font-family="Helvetica,sans-Serif" font-size="10.00">_sha256_initialize</text>
</a>
</g>
</g>
<!-- Node2&#45;&gt;Node4 -->
<g id="edge3" class="edge">
<title>Node2&#45;&gt;Node4</title>
<path fill="none" stroke="midnightblue" d="M768.3,-168C756.25,-168 743.89,-168 732.06,-168"/>
<polygon fill="midnightblue" stroke="midnightblue" points="768.34,-171.5 778.34,-168 768.34,-164.5 768.34,-171.5"/>
</g>
<!-- Node5&#45;&gt;Node3 -->
<g id="edge5" class="edge">
<title>Node5&#45;&gt;Node3</title>
<path fill="none" stroke="midnightblue" d="M768.3,-217C756.25,-217 743.89,-217 732.06,-217"/>
<polygon fill="midnightblue" stroke="midnightblue" points="768.34,-220.5 778.34,-217 768.34,-213.5 768.34,-220.5"/>
</g>
<!-- Node5&#45;&gt;Node4 -->
<g id="edge6" class="edge">
<title>Node5&#45;&gt;Node4</title>
<path fill="none" stroke="midnightblue" d="M781.25,-199.38C760.79,-194.02 738.5,-188.18 718.77,-183.01"/>
<polygon fill="midnightblue" stroke="midnightblue" points="780.56,-202.82 791.12,-201.97 782.34,-196.04 780.56,-202.82"/>
</g>
<!-- Node7 -->
<g id="node7" class="node">
<title>Node7</title>
<g id="a_node7"><a xlink:href="schnorrsig_2main__impl_8h.html#a09c61e5559645ddf8be083144342343d" target="_top" xlink:title=" ">
<polygon fill="white" stroke="black" points="596,-114.5 596,-133.5 725,-133.5 725,-114.5 596,-114.5"/>
<text text-anchor="middle" x="660.5" y="-121.5" font-family="Helvetica,sans-Serif" font-size="10.00">nonce_function_bip340</text>
</a>
</g>
</g>
<!-- Node6&#45;&gt;Node7 -->
<g id="edge8" class="edge">
<title>Node6&#45;&gt;Node7</title>
<path fill="none" stroke="midnightblue" d="M764.55,-103.06C745.22,-106.99 725.34,-111.03 708.25,-114.5"/>
<polygon fill="midnightblue" stroke="midnightblue" points="765.49,-106.44 774.59,-101.02 764.1,-99.58 765.49,-106.44"/>
</g>
<!-- Node9 -->
<g id="node9" class="node">
<title>Node9</title>
<g id="a_node9"><a xlink:href="schnorrsig_2tests__impl_8h.html#a2ecc08a50eb957a118ff4988f65cf87f" target="_top" xlink:title=" ">
<polygon fill="white" stroke="black" points="263.5,-98 263.5,-128 375.5,-128 375.5,-98 263.5,-98"/>
<text text-anchor="start" x="271.5" y="-116" font-family="Helvetica,sans-Serif" font-size="10.00">run_nonce_function</text>
<text text-anchor="middle" x="319.5" y="-105" font-family="Helvetica,sans-Serif" font-size="10.00">_bip340_tests</text>
</a>
</g>
</g>
<!-- Node6&#45;&gt;Node9 -->
<g id="edge14" class="edge">
<title>Node6&#45;&gt;Node9</title>
<path fill="none" stroke="midnightblue" d="M760.85,-90.48C651.37,-96.08 467.36,-105.49 375.76,-110.17"/>
<polygon fill="midnightblue" stroke="midnightblue" points="761.07,-93.98 770.88,-89.97 760.71,-86.98 761.07,-93.98"/>
</g>
<!-- Node12 -->
<g id="node12" class="node">
<title>Node12</title>
<g id="a_node12"><a xlink:href="secp256k1_8c.html#a364d53929192054916b1207a22e701ec" target="_top" xlink:title="Compute a tagged hash as defined in BIP&#45;340.">
<polygon fill="white" stroke="black" points="586,-0.5 586,-19.5 735,-19.5 735,-0.5 586,-0.5"/>
<text text-anchor="middle" x="660.5" y="-7.5" font-family="Helvetica,sans-Serif" font-size="10.00">secp256k1_tagged_sha256</text>
</a>
</g>
</g>
<!-- Node6&#45;&gt;Node12 -->
<g id="edge15" class="edge">
<title>Node6&#45;&gt;Node12</title>
<path fill="none" stroke="midnightblue" d="M808.9,-66.51C787.31,-56.23 759.97,-43.76 735,-34 721.62,-28.77 706.59,-23.72 693.62,-19.61"/>
<polygon fill="midnightblue" stroke="midnightblue" points="807.55,-69.74 818.08,-70.91 810.58,-63.43 807.55,-69.74"/>
</g>
<!-- Node14 -->
<g id="node14" class="node">
<title>Node14</title>
<g id="a_node14"><a xlink:href="schnorrsig_2tests__impl_8h.html#ad2f75756c66b500a9681e085076a0e81" target="_top" xlink:title=" ">
<polygon fill="white" stroke="black" points="254,-39 254,-69 385,-69 385,-39 254,-39"/>
<text text-anchor="start" x="262" y="-57" font-family="Helvetica,sans-Serif" font-size="10.00">test_schnorrsig_sha256</text>
<text text-anchor="middle" x="319.5" y="-46" font-family="Helvetica,sans-Serif" font-size="10.00">_tagged</text>
</a>
</g>
</g>
<!-- Node6&#45;&gt;Node14 -->
<g id="edge18" class="edge">
<title>Node6&#45;&gt;Node14</title>
<path fill="none" stroke="midnightblue" d="M760.85,-80.69C654.98,-74.27 479.37,-63.63 385.08,-57.91"/>
<polygon fill="midnightblue" stroke="midnightblue" points="760.68,-84.18 770.88,-81.3 761.11,-77.2 760.68,-84.18"/>
</g>
<!-- Node8 -->
<g id="node8" class="node">
<title>Node8</title>
<g id="a_node8"><a xlink:href="schnorrsig_2tests__impl_8h.html#ac5feade0e2d42bfe7b2d1aa2cc55abe9" target="_top" xlink:title=" ">
<polygon fill="white" stroke="black" points="421,-153 421,-183 550,-183 550,-153 421,-153"/>
<text text-anchor="start" x="429" y="-171" font-family="Helvetica,sans-Serif" font-size="10.00">nonce_function_bip340</text>
<text text-anchor="middle" x="485.5" y="-160" font-family="Helvetica,sans-Serif" font-size="10.00">_bitflip</text>
</a>
</g>
</g>
<!-- Node7&#45;&gt;Node8 -->
<g id="edge9" class="edge">
<title>Node7&#45;&gt;Node8</title>
<path fill="none" stroke="midnightblue" d="M612.22,-136.03C591.69,-141.25 567.44,-147.41 545.73,-152.93"/>
<polygon fill="midnightblue" stroke="midnightblue" points="613.13,-139.4 621.96,-133.55 611.41,-132.62 613.13,-139.4"/>
</g>
<!-- Node7&#45;&gt;Node9 -->
<g id="edge13" class="edge">
<title>Node7&#45;&gt;Node9</title>
<path fill="none" stroke="midnightblue" d="M585.43,-121.6C522.18,-119.54 432.64,-116.64 375.57,-114.79"/>
<polygon fill="midnightblue" stroke="midnightblue" points="585.63,-125.1 595.74,-121.93 585.86,-118.11 585.63,-125.1"/>
</g>
<!-- Node8&#45;&gt;Node9 -->
<g id="edge10" class="edge">
<title>Node8&#45;&gt;Node9</title>
<path fill="none" stroke="midnightblue" d="M429.94,-149.7C408.94,-142.66 385.23,-134.71 365.26,-128.01"/>
<polygon fill="midnightblue" stroke="midnightblue" points="429.09,-153.11 439.69,-152.97 431.32,-146.47 429.09,-153.11"/>
</g>
<!-- Node10 -->
<g id="node10" class="node">
<title>Node10</title>
<g id="a_node10"><a xlink:href="schnorrsig_2tests__impl_8h.html#ac157ab3450c7cca7e46cdc65e8019392" target="_top" xlink:title=" ">
<polygon fill="white" stroke="black" points="89,-44.5 89,-63.5 206,-63.5 206,-44.5 89,-44.5"/>
<text text-anchor="middle" x="147.5" y="-51.5" font-family="Helvetica,sans-Serif" font-size="10.00">run_schnorrsig_tests</text>
</a>
</g>
</g>
<!-- Node9&#45;&gt;Node10 -->
<g id="edge11" class="edge">
<title>Node9&#45;&gt;Node10</title>
<path fill="none" stroke="midnightblue" d="M265.38,-94.56C235.77,-84.29 200.13,-71.92 176.05,-63.56"/>
<polygon fill="midnightblue" stroke="midnightblue" points="264.57,-97.99 275.16,-97.96 266.86,-91.37 264.57,-97.99"/>
</g>
<!-- Node11 -->
<g id="node11" class="node">
<title>Node11</title>
<g id="a_node11"><a xlink:href="tests_8c.html#a3c04138a5bfe5d72780bb7e82a18e627" target="_top" xlink:title=" ">
<polygon fill="white" stroke="black" points="0,-22.5 0,-41.5 41,-41.5 41,-22.5 0,-22.5"/>
<text text-anchor="middle" x="20.5" y="-29.5" font-family="Helvetica,sans-Serif" font-size="10.00">main</text>
</a>
</g>
</g>
<!-- Node10&#45;&gt;Node11 -->
<g id="edge12" class="edge">
<title>Node10&#45;&gt;Node11</title>
<path fill="none" stroke="midnightblue" d="M82.53,-42.74C67.47,-40.09 52.53,-37.46 41.2,-35.47"/>
<polygon fill="midnightblue" stroke="midnightblue" points="81.94,-46.19 92.4,-44.48 83.16,-39.3 81.94,-46.19"/>
</g>
<!-- Node13 -->
<g id="node13" class="node">
<title>Node13</title>
<g id="a_node13"><a xlink:href="tests_8c.html#ae7c0fa16636a863743dd81647c80d27b" target="_top" xlink:title=" ">
<polygon fill="white" stroke="black" points="77,-3.5 77,-22.5 218,-22.5 218,-3.5 77,-3.5"/>
<text text-anchor="middle" x="147.5" y="-10.5" font-family="Helvetica,sans-Serif" font-size="10.00">run_tagged_sha256_tests</text>
</a>
</g>
</g>
<!-- Node12&#45;&gt;Node13 -->
<g id="edge16" class="edge">
<title>Node12&#45;&gt;Node13</title>
<path fill="none" stroke="midnightblue" d="M575.7,-10.49C475.95,-11.08 311.2,-12.04 218.13,-12.59"/>
<polygon fill="midnightblue" stroke="midnightblue" points="575.76,-13.99 585.74,-10.43 575.72,-6.99 575.76,-13.99"/>
</g>
<!-- Node13&#45;&gt;Node11 -->
<g id="edge17" class="edge">
<title>Node13&#45;&gt;Node11</title>
<path fill="none" stroke="midnightblue" d="M73.54,-24.09C61.63,-25.9 50.24,-27.63 41.17,-29.01"/>
<polygon fill="midnightblue" stroke="midnightblue" points="74.27,-27.52 83.63,-22.56 73.22,-20.6 74.27,-27.52"/>
</g>
<!-- Node14&#45;&gt;Node10 -->
<g id="edge19" class="edge">
<title>Node14&#45;&gt;Node10</title>
<path fill="none" stroke="midnightblue" d="M243.72,-54C231.11,-54 218.2,-54 206.11,-54"/>
<polygon fill="midnightblue" stroke="midnightblue" points="243.75,-57.5 253.75,-54 243.75,-50.5 243.75,-57.5"/>
</g>
</g>
</svg>
