<?xml version="1.0" encoding="UTF-8" standalone="no"?>
<!DOCTYPE svg PUBLIC "-//W3C//DTD SVG 1.1//EN"
 "http://www.w3.org/Graphics/SVG/1.1/DTD/svg11.dtd">
<!-- Generated by graphviz version 2.38.0 (20140413.2041)
 -->
<!-- Title: src/httpserver.cpp Pages: 1 -->
<svg width="2556pt" height="252pt"
 viewBox="0.00 0.00 2556.06 252.00" xmlns="http://www.w3.org/2000/svg" xmlns:xlink="http://www.w3.org/1999/xlink">
<g id="graph0" class="graph" transform="scale(1 1) rotate(0) translate(4 248)">
<title>src/httpserver.cpp</title>
<polygon fill="white" stroke="none" points="-4,4 -4,-248 2552.06,-248 2552.06,4 -4,4"/>
<!-- Node1 -->
<g id="node1" class="node"><title>Node1</title>
<polygon fill="#bfbfbf" stroke="black" points="1168.78,-224.5 1168.78,-243.5 1271.78,-243.5 1271.78,-224.5 1168.78,-224.5"/>
<text text-anchor="middle" x="1220.28" y="-231.5" font-family="Helvetica,sans-Serif" font-size="10.00">src/httpserver.cpp</text>
</g>
<!-- Node2 -->
<g id="node2" class="node"><title>Node2</title>
<g id="a_node2"><a xlink:href="httpserver_8h.html" target="_top" xlink:title="httpserver.h">
<polygon fill="white" stroke="black" points="1389.28,-112.5 1389.28,-131.5 1463.28,-131.5 1463.28,-112.5 1389.28,-112.5"/>
<text text-anchor="middle" x="1426.28" y="-119.5" font-family="Helvetica,sans-Serif" font-size="10.00">httpserver.h</text>
</a>
</g>
</g>
<!-- Node1&#45;&gt;Node2 -->
<g id="edge1" class="edge"><title>Node1&#45;&gt;Node2</title>
<path fill="none" stroke="midnightblue" d="M1195.24,-224.425C1165.51,-212.929 1122.29,-191.26 1142.28,-168 1175.24,-129.654 1311.86,-139.788 1378.96,-131.717"/>
<polygon fill="midnightblue" stroke="midnightblue" points="1379.7,-135.146 1389.1,-130.256 1378.71,-128.218 1379.7,-135.146"/>
</g>
<!-- Node6 -->
<g id="node6" class="node"><title>Node6</title>
<g id="a_node6"><a xlink:href="chainparamsbase_8h.html" target="_top" xlink:title="chainparamsbase.h">
<polygon fill="white" stroke="black" points="406.78,-112.5 406.78,-131.5 517.78,-131.5 517.78,-112.5 406.78,-112.5"/>
<text text-anchor="middle" x="462.28" y="-119.5" font-family="Helvetica,sans-Serif" font-size="10.00">chainparamsbase.h</text>
</a>
</g>
</g>
<!-- Node1&#45;&gt;Node6 -->
<g id="edge5" class="edge"><title>Node1&#45;&gt;Node6</title>
<path fill="none" stroke="midnightblue" d="M1168.66,-228.593C1090.78,-221.658 938.67,-207.009 810.28,-188 703.728,-172.225 579.972,-147.586 512.503,-133.612"/>
<polygon fill="midnightblue" stroke="midnightblue" points="513.07,-130.155 502.567,-131.547 511.645,-137.009 513.07,-130.155"/>
</g>
<!-- Node7 -->
<g id="node7" class="node"><title>Node7</title>
<polygon fill="white" stroke="#bfbfbf" points="318.78,-56.5 318.78,-75.5 375.78,-75.5 375.78,-56.5 318.78,-56.5"/>
<text text-anchor="middle" x="347.28" y="-63.5" font-family="Helvetica,sans-Serif" font-size="10.00">memory</text>
</g>
<!-- Node1&#45;&gt;Node7 -->
<g id="edge70" class="edge"><title>Node1&#45;&gt;Node7</title>
<path fill="none" stroke="midnightblue" d="M1168.75,-232.188C965.54,-228.808 225.789,-214.766 124.28,-188 71.616,-174.113 43.6592,-178.486 15.2798,-132 10.6481,-124.413 9.43176,-118.694 15.2798,-112 53.0021,-68.8199 229.523,-65.4585 308.69,-66.1951"/>
<polygon fill="midnightblue" stroke="midnightblue" points="308.702,-69.6954 318.743,-66.3159 308.786,-62.6959 308.702,-69.6954"/>
</g>
<!-- Node9 -->
<g id="node9" class="node"><title>Node9</title>
<g id="a_node9"><a xlink:href="compat_8h.html" target="_top" xlink:title="compat.h">
<polygon fill="white" stroke="black" points="1890.28,-112.5 1890.28,-131.5 1952.28,-131.5 1952.28,-112.5 1890.28,-112.5"/>
<text text-anchor="middle" x="1921.28" y="-119.5" font-family="Helvetica,sans-Serif" font-size="10.00">compat.h</text>
</a>
</g>
</g>
<!-- Node1&#45;&gt;Node9 -->
<g id="edge9" class="edge"><title>Node1&#45;&gt;Node9</title>
<path fill="none" stroke="midnightblue" d="M1271.83,-232.668C1473.77,-231.119 2201.69,-223.111 2235.28,-188 2241.42,-181.577 2241.1,-174.716 2235.28,-168 2200.48,-127.86 2039.8,-122.663 1962.73,-122.539"/>
<polygon fill="midnightblue" stroke="midnightblue" points="1962.43,-119.039 1952.44,-122.552 1962.44,-126.039 1962.43,-119.039"/>
</g>
<!-- Node14 -->
<g id="node14" class="node"><title>Node14</title>
<polygon fill="white" stroke="#bfbfbf" points="1389.78,-56.5 1389.78,-75.5 1460.78,-75.5 1460.78,-56.5 1389.78,-56.5"/>
<text text-anchor="middle" x="1425.28" y="-63.5" font-family="Helvetica,sans-Serif" font-size="10.00">sys/types.h</text>
</g>
<!-- Node1&#45;&gt;Node14 -->
<g id="edge74" class="edge"><title>Node1&#45;&gt;Node14</title>
<path fill="none" stroke="midnightblue" d="M1206.71,-224.32C1188.12,-211.388 1158.8,-186.593 1175.28,-168 1263.46,-68.4825 1384.1,-231.517 1472.28,-132 1486.65,-115.788 1466.2,-95.28 1447.95,-81.6818"/>
<polygon fill="midnightblue" stroke="midnightblue" points="1449.51,-78.5052 1439.32,-75.6105 1445.48,-84.229 1449.51,-78.5052"/>
</g>
<!-- Node24 -->
<g id="node24" class="node"><title>Node24</title>
<g id="a_node24"><a xlink:href="system_8h.html" target="_top" xlink:title="util/system.h">
<polygon fill="white" stroke="red" points="819.28,-168.5 819.28,-187.5 897.28,-187.5 897.28,-168.5 819.28,-168.5"/>
<text text-anchor="middle" x="858.28" y="-175.5" font-family="Helvetica,sans-Serif" font-size="10.00">util/system.h</text>
</a>
</g>
</g>
<!-- Node1&#45;&gt;Node24 -->
<g id="edge24" class="edge"><title>Node1&#45;&gt;Node24</title>
<path fill="none" stroke="midnightblue" d="M1168.41,-225.263C1098.77,-214.875 975.918,-196.548 907.602,-186.357"/>
<polygon fill="midnightblue" stroke="midnightblue" points="907.934,-182.868 897.527,-184.855 906.901,-189.792 907.934,-182.868"/>
</g>
<!-- Node27 -->
<g id="node27" class="node"><title>Node27</title>
<polygon fill="white" stroke="#bfbfbf" points="356.78,-0.5 356.78,-19.5 405.78,-19.5 405.78,-0.5 356.78,-0.5"/>
<text text-anchor="middle" x="381.28" y="-7.5" font-family="Helvetica,sans-Serif" font-size="10.00">stdio.h</text>
</g>
<!-- Node1&#45;&gt;Node27 -->
<g id="edge71" class="edge"><title>Node1&#45;&gt;Node27</title>
<path fill="none" stroke="midnightblue" d="M1168.63,-232.281C948.569,-229.059 98.1851,-214.906 48.2798,-188 14.6812,-169.886 -14.917,-142.313 8.27983,-112 49.8711,-57.649 262.083,-25.779 346.54,-15.0783"/>
<polygon fill="midnightblue" stroke="midnightblue" points="347.16,-18.5282 356.652,-13.8213 346.296,-11.5816 347.16,-18.5282"/>
</g>
<!-- Node31 -->
<g id="node31" class="node"><title>Node31</title>
<g id="a_node31"><a xlink:href="sync_8h.html" target="_top" xlink:title="sync.h">
<polygon fill="white" stroke="red" points="1185.78,-112.5 1185.78,-131.5 1232.78,-131.5 1232.78,-112.5 1185.78,-112.5"/>
<text text-anchor="middle" x="1209.28" y="-119.5" font-family="Helvetica,sans-Serif" font-size="10.00">sync.h</text>
</a>
</g>
</g>
<!-- Node1&#45;&gt;Node31 -->
<g id="edge64" class="edge"><title>Node1&#45;&gt;Node31</title>
<path fill="none" stroke="midnightblue" d="M1168.58,-224.69C1128.85,-217.124 1078.73,-204.604 1066.28,-188 1060.95,-180.888 1061.02,-175.167 1066.28,-168 1072.92,-158.951 1135.53,-141.667 1175.67,-131.354"/>
<polygon fill="midnightblue" stroke="midnightblue" points="1176.77,-134.687 1185.59,-128.829 1175.04,-127.903 1176.77,-134.687"/>
</g>
<!-- Node36 -->
<g id="node36" class="node"><title>Node36</title>
<g id="a_node36"><a xlink:href="strencodings_8h.html" target="_top" xlink:title="util/strencodings.h">
<polygon fill="white" stroke="red" points="175.28,-168.5 175.28,-187.5 279.28,-187.5 279.28,-168.5 175.28,-168.5"/>
<text text-anchor="middle" x="227.28" y="-175.5" font-family="Helvetica,sans-Serif" font-size="10.00">util/strencodings.h</text>
</a>
</g>
</g>
<!-- Node1&#45;&gt;Node36 -->
<g id="edge49" class="edge"><title>Node1&#45;&gt;Node36</title>
<path fill="none" stroke="midnightblue" d="M1168.64,-230.192C1000.91,-221.07 471.783,-192.296 289.62,-182.39"/>
<polygon fill="midnightblue" stroke="midnightblue" points="289.584,-178.883 279.409,-181.835 289.204,-185.873 289.584,-178.883"/>
</g>
<!-- Node37 -->
<g id="node37" class="node"><title>Node37</title>
<g id="a_node37"><a xlink:href="netbase_8h.html" target="_top" xlink:title="netbase.h">
<polygon fill="white" stroke="red" points="1273.78,-168.5 1273.78,-187.5 1338.78,-187.5 1338.78,-168.5 1273.78,-168.5"/>
<text text-anchor="middle" x="1306.28" y="-175.5" font-family="Helvetica,sans-Serif" font-size="10.00">netbase.h</text>
</a>
</g>
</g>
<!-- Node1&#45;&gt;Node37 -->
<g id="edge53" class="edge"><title>Node1&#45;&gt;Node37</title>
<path fill="none" stroke="midnightblue" d="M1234.1,-224.324C1247.51,-215.9 1268.1,-202.971 1283.87,-193.074"/>
<polygon fill="midnightblue" stroke="midnightblue" points="1285.89,-195.936 1292.5,-187.655 1282.17,-190.008 1285.89,-195.936"/>
</g>
<!-- Node38 -->
<g id="node38" class="node"><title>Node38</title>
<g id="a_node38"><a xlink:href="rpc_2protocol_8h.html" target="_top" xlink:title="rpc/protocol.h">
<polygon fill="white" stroke="red" points="962.78,-112.5 962.78,-131.5 1045.78,-131.5 1045.78,-112.5 962.78,-112.5"/>
<text text-anchor="middle" x="1004.28" y="-119.5" font-family="Helvetica,sans-Serif" font-size="10.00">rpc/protocol.h</text>
</a>
</g>
</g>
<!-- Node1&#45;&gt;Node38 -->
<g id="edge58" class="edge"><title>Node1&#45;&gt;Node38</title>
<path fill="none" stroke="midnightblue" d="M1168.48,-226.526C1135.22,-220.518 1092.25,-209.161 1059.28,-188 1040.3,-175.818 1024.41,-155.068 1014.66,-140.29"/>
<polygon fill="midnightblue" stroke="midnightblue" points="1017.47,-138.183 1009.18,-131.591 1011.55,-141.917 1017.47,-138.183"/>
</g>
<!-- Node39 -->
<g id="node39" class="node"><title>Node39</title>
<g id="a_node39"><a xlink:href="shutdown_8h.html" target="_top" xlink:title="shutdown.h">
<polygon fill="white" stroke="black" points="1184.78,-168.5 1184.78,-187.5 1255.78,-187.5 1255.78,-168.5 1184.78,-168.5"/>
<text text-anchor="middle" x="1220.28" y="-175.5" font-family="Helvetica,sans-Serif" font-size="10.00">shutdown.h</text>
</a>
</g>
</g>
<!-- Node1&#45;&gt;Node39 -->
<g id="edge63" class="edge"><title>Node1&#45;&gt;Node39</title>
<path fill="none" stroke="midnightblue" d="M1220.28,-224.083C1220.28,-217.006 1220.28,-206.861 1220.28,-197.986"/>
<polygon fill="midnightblue" stroke="midnightblue" points="1223.78,-197.751 1220.28,-187.751 1216.78,-197.751 1223.78,-197.751"/>
</g>
<!-- Node40 -->
<g id="node40" class="node"><title>Node40</title>
<g id="a_node40"><a xlink:href="ui__interface_8h.html" target="_top" xlink:title="ui_interface.h">
<polygon fill="white" stroke="black" points="1289.78,-112.5 1289.78,-131.5 1370.78,-131.5 1370.78,-112.5 1289.78,-112.5"/>
<text text-anchor="middle" x="1330.28" y="-119.5" font-family="Helvetica,sans-Serif" font-size="10.00">ui_interface.h</text>
</a>
</g>
</g>
<!-- Node1&#45;&gt;Node40 -->
<g id="edge65" class="edge"><title>Node1&#45;&gt;Node40</title>
<path fill="none" stroke="midnightblue" d="M1173.69,-224.48C1132.02,-214.806 1080.85,-196.554 1104.28,-168 1115.35,-154.505 1216.37,-138.495 1279.55,-129.671"/>
<polygon fill="midnightblue" stroke="midnightblue" points="1280.3,-133.101 1289.73,-128.266 1279.34,-126.167 1280.3,-133.101"/>
</g>
<!-- Node41 -->
<g id="node41" class="node"><title>Node41</title>
<polygon fill="white" stroke="#bfbfbf" points="1356.78,-168.5 1356.78,-187.5 1407.78,-187.5 1407.78,-168.5 1356.78,-168.5"/>
<text text-anchor="middle" x="1382.28" y="-175.5" font-family="Helvetica,sans-Serif" font-size="10.00">stdlib.h</text>
</g>
<!-- Node1&#45;&gt;Node41 -->
<g id="edge72" class="edge"><title>Node1&#45;&gt;Node41</title>
<path fill="none" stroke="midnightblue" d="M1245.95,-224.444C1273.2,-215.359 1316.46,-200.939 1346.93,-190.783"/>
<polygon fill="midnightblue" stroke="midnightblue" points="1348.35,-193.999 1356.73,-187.516 1346.14,-187.358 1348.35,-193.999"/>
</g>
<!-- Node42 -->
<g id="node42" class="node"><title>Node42</title>
<polygon fill="white" stroke="#bfbfbf" points="1425.78,-168.5 1425.78,-187.5 1478.78,-187.5 1478.78,-168.5 1425.78,-168.5"/>
<text text-anchor="middle" x="1452.28" y="-175.5" font-family="Helvetica,sans-Serif" font-size="10.00">string.h</text>
</g>
<!-- Node1&#45;&gt;Node42 -->
<g id="edge73" class="edge"><title>Node1&#45;&gt;Node42</title>
<path fill="none" stroke="midnightblue" d="M1258.64,-224.423C1296.18,-215.978 1355.24,-202.556 1415.82,-188.074"/>
<polygon fill="midnightblue" stroke="midnightblue" points="1416.65,-191.476 1425.56,-185.741 1415.02,-184.669 1416.65,-191.476"/>
</g>
<!-- Node43 -->
<g id="node43" class="node"><title>Node43</title>
<polygon fill="white" stroke="#bfbfbf" points="1496.78,-168.5 1496.78,-187.5 1559.78,-187.5 1559.78,-168.5 1496.78,-168.5"/>
<text text-anchor="middle" x="1528.28" y="-175.5" font-family="Helvetica,sans-Serif" font-size="10.00">sys/stat.h</text>
</g>
<!-- Node1&#45;&gt;Node43 -->
<g id="edge75" class="edge"><title>Node1&#45;&gt;Node43</title>
<path fill="none" stroke="midnightblue" d="M1271.85,-225.078C1323.62,-216.953 1405.9,-203.571 1486.68,-188.036"/>
<polygon fill="midnightblue" stroke="midnightblue" points="1487.37,-191.468 1496.53,-186.131 1486.04,-184.595 1487.37,-191.468"/>
</g>
<!-- Node44 -->
<g id="node44" class="node"><title>Node44</title>
<polygon fill="white" stroke="#bfbfbf" points="1577.78,-168.5 1577.78,-187.5 1630.78,-187.5 1630.78,-168.5 1577.78,-168.5"/>
<text text-anchor="middle" x="1604.28" y="-175.5" font-family="Helvetica,sans-Serif" font-size="10.00">signal.h</text>
</g>
<!-- Node1&#45;&gt;Node44 -->
<g id="edge76" class="edge"><title>Node1&#45;&gt;Node44</title>
<path fill="none" stroke="midnightblue" d="M1271.87,-228.224C1338.08,-221.676 1456.62,-208.54 1567.59,-187.92"/>
<polygon fill="midnightblue" stroke="midnightblue" points="1568.44,-191.322 1577.62,-186.032 1567.14,-184.443 1568.44,-191.322"/>
</g>
<!-- Node45 -->
<g id="node45" class="node"><title>Node45</title>
<polygon fill="white" stroke="#bfbfbf" points="1648.78,-168.5 1648.78,-187.5 1741.78,-187.5 1741.78,-168.5 1648.78,-168.5"/>
<text text-anchor="middle" x="1695.28" y="-175.5" font-family="Helvetica,sans-Serif" font-size="10.00">event2/thread.h</text>
</g>
<!-- Node1&#45;&gt;Node45 -->
<g id="edge77" class="edge"><title>Node1&#45;&gt;Node45</title>
<path fill="none" stroke="midnightblue" d="M1271.99,-228.325C1349.35,-221.138 1500.03,-206.392 1638.6,-188.025"/>
<polygon fill="midnightblue" stroke="midnightblue" points="1639.11,-191.489 1648.56,-186.697 1638.18,-184.55 1639.11,-191.489"/>
</g>
<!-- Node46 -->
<g id="node46" class="node"><title>Node46</title>
<polygon fill="white" stroke="#bfbfbf" points="1759.78,-168.5 1759.78,-187.5 1848.78,-187.5 1848.78,-168.5 1759.78,-168.5"/>
<text text-anchor="middle" x="1804.28" y="-175.5" font-family="Helvetica,sans-Serif" font-size="10.00">event2/buffer.h</text>
</g>
<!-- Node1&#45;&gt;Node46 -->
<g id="edge78" class="edge"><title>Node1&#45;&gt;Node46</title>
<path fill="none" stroke="midnightblue" d="M1271.96,-229.998C1365.21,-224.278 1568.01,-210.459 1749.53,-187.992"/>
<polygon fill="midnightblue" stroke="midnightblue" points="1750.04,-191.456 1759.53,-186.743 1749.17,-184.51 1750.04,-191.456"/>
</g>
<!-- Node47 -->
<g id="node47" class="node"><title>Node47</title>
<polygon fill="white" stroke="#bfbfbf" points="1866.28,-168.5 1866.28,-187.5 1982.28,-187.5 1982.28,-168.5 1866.28,-168.5"/>
<text text-anchor="middle" x="1924.28" y="-175.5" font-family="Helvetica,sans-Serif" font-size="10.00">event2/bufferevent.h</text>
</g>
<!-- Node1&#45;&gt;Node47 -->
<g id="edge79" class="edge"><title>Node1&#45;&gt;Node47</title>
<path fill="none" stroke="midnightblue" d="M1271.98,-230.454C1378.98,-224.946 1632.71,-210.644 1856.25,-188.043"/>
<polygon fill="midnightblue" stroke="midnightblue" points="1856.61,-191.525 1866.2,-187.029 1855.9,-184.561 1856.61,-191.525"/>
</g>
<!-- Node48 -->
<g id="node48" class="node"><title>Node48</title>
<polygon fill="white" stroke="#bfbfbf" points="2000.28,-168.5 2000.28,-187.5 2076.28,-187.5 2076.28,-168.5 2000.28,-168.5"/>
<text text-anchor="middle" x="2038.28" y="-175.5" font-family="Helvetica,sans-Serif" font-size="10.00">event2/util.h</text>
</g>
<!-- Node1&#45;&gt;Node48 -->
<g id="edge80" class="edge"><title>Node1&#45;&gt;Node48</title>
<path fill="none" stroke="midnightblue" d="M1271.92,-232.317C1394.73,-230.191 1713.92,-221.724 1989.91,-188.001"/>
<polygon fill="midnightblue" stroke="midnightblue" points="1990.63,-191.439 2000.13,-186.739 1989.77,-184.492 1990.63,-191.439"/>
</g>
<!-- Node49 -->
<g id="node49" class="node"><title>Node49</title>
<polygon fill="white" stroke="#bfbfbf" points="2094.78,-168.5 2094.78,-187.5 2225.78,-187.5 2225.78,-168.5 2094.78,-168.5"/>
<text text-anchor="middle" x="2160.28" y="-175.5" font-family="Helvetica,sans-Serif" font-size="10.00">event2/keyvalq_struct.h</text>
</g>
<!-- Node1&#45;&gt;Node49 -->
<g id="edge81" class="edge"><title>Node1&#45;&gt;Node49</title>
<path fill="none" stroke="midnightblue" d="M1272.04,-231.526C1404.97,-227.477 1769.45,-214.73 2084.22,-188.028"/>
<polygon fill="midnightblue" stroke="midnightblue" points="2084.79,-191.492 2094.46,-187.153 2084.19,-184.518 2084.79,-191.492"/>
</g>
<!-- Node50 -->
<g id="node50" class="node"><title>Node50</title>
<g id="a_node50"><a xlink:href="events_8h.html" target="_top" xlink:title="support/events.h">
<polygon fill="white" stroke="red" points="24.2798,-112.5 24.2798,-131.5 122.28,-131.5 122.28,-112.5 24.2798,-112.5"/>
<text text-anchor="middle" x="73.2798" y="-119.5" font-family="Helvetica,sans-Serif" font-size="10.00">support/events.h</text>
</a>
</g>
</g>
<!-- Node1&#45;&gt;Node50 -->
<g id="edge82" class="edge"><title>Node1&#45;&gt;Node50</title>
<path fill="none" stroke="midnightblue" d="M1168.6,-232.489C969.909,-230.293 261.589,-220.256 166.28,-188 136.134,-177.798 106.997,-154.584 89.6029,-138.845"/>
<polygon fill="midnightblue" stroke="midnightblue" points="91.7557,-136.067 82.0541,-131.809 86.9829,-141.188 91.7557,-136.067"/>
</g>
<!-- Node3 -->
<g id="node3" class="node"><title>Node3</title>
<polygon fill="white" stroke="#bfbfbf" points="926.28,-0.5 926.28,-19.5 970.28,-19.5 970.28,-0.5 926.28,-0.5"/>
<text text-anchor="middle" x="948.28" y="-7.5" font-family="Helvetica,sans-Serif" font-size="10.00">string</text>
</g>
<!-- Node2&#45;&gt;Node3 -->
<g id="edge2" class="edge"><title>Node2&#45;&gt;Node3</title>
<path fill="none" stroke="midnightblue" d="M1418.33,-112.443C1404.33,-97.996 1373.67,-69.0655 1341.28,-56 1275.91,-29.63 1062.67,-16.6155 980.745,-12.4938"/>
<polygon fill="midnightblue" stroke="midnightblue" points="980.689,-8.98693 970.53,-11.992 980.346,-15.9785 980.689,-8.98693"/>
</g>
<!-- Node4 -->
<g id="node4" class="node"><title>Node4</title>
<polygon fill="white" stroke="#bfbfbf" points="1137.78,-56.5 1137.78,-75.5 1190.78,-75.5 1190.78,-56.5 1137.78,-56.5"/>
<text text-anchor="middle" x="1164.28" y="-63.5" font-family="Helvetica,sans-Serif" font-size="10.00">stdint.h</text>
</g>
<!-- Node2&#45;&gt;Node4 -->
<g id="edge3" class="edge"><title>Node2&#45;&gt;Node4</title>
<path fill="none" stroke="midnightblue" d="M1389.02,-113.32C1339.03,-103.018 1250.8,-84.8327 1201.06,-74.5806"/>
<polygon fill="midnightblue" stroke="midnightblue" points="1201.56,-71.1098 1191.06,-72.519 1200.14,-77.9657 1201.56,-71.1098"/>
</g>
<!-- Node5 -->
<g id="node5" class="node"><title>Node5</title>
<polygon fill="white" stroke="#bfbfbf" points="1269.78,-56.5 1269.78,-75.5 1332.78,-75.5 1332.78,-56.5 1269.78,-56.5"/>
<text text-anchor="middle" x="1301.28" y="-63.5" font-family="Helvetica,sans-Serif" font-size="10.00">functional</text>
</g>
<!-- Node2&#45;&gt;Node5 -->
<g id="edge4" class="edge"><title>Node2&#45;&gt;Node5</title>
<path fill="none" stroke="midnightblue" d="M1406.47,-112.444C1385.99,-103.596 1353.8,-89.6875 1330.42,-79.5865"/>
<polygon fill="midnightblue" stroke="midnightblue" points="1331.56,-76.2692 1320.99,-75.5164 1328.79,-82.6953 1331.56,-76.2692"/>
</g>
<!-- Node6&#45;&gt;Node3 -->
<g id="edge7" class="edge"><title>Node6&#45;&gt;Node3</title>
<path fill="none" stroke="midnightblue" d="M466.042,-112.439C472.897,-97.9838 488.907,-69.0425 512.28,-56 581.563,-17.3393 827.256,-11.8036 916.004,-11.08"/>
<polygon fill="midnightblue" stroke="midnightblue" points="916.049,-14.5799 926.026,-11.0137 916.003,-7.58006 916.049,-14.5799"/>
</g>
<!-- Node6&#45;&gt;Node7 -->
<g id="edge6" class="edge"><title>Node6&#45;&gt;Node7</title>
<path fill="none" stroke="midnightblue" d="M444.058,-112.444C425.384,-103.675 396.124,-89.9355 374.662,-79.8579"/>
<polygon fill="midnightblue" stroke="midnightblue" points="375.956,-76.5988 365.417,-75.5164 372.981,-82.935 375.956,-76.5988"/>
</g>
<!-- Node8 -->
<g id="node8" class="node"><title>Node8</title>
<polygon fill="white" stroke="#bfbfbf" points="521.78,-56.5 521.78,-75.5 568.78,-75.5 568.78,-56.5 521.78,-56.5"/>
<text text-anchor="middle" x="545.28" y="-63.5" font-family="Helvetica,sans-Serif" font-size="10.00">vector</text>
</g>
<!-- Node6&#45;&gt;Node8 -->
<g id="edge8" class="edge"><title>Node6&#45;&gt;Node8</title>
<path fill="none" stroke="midnightblue" d="M475.615,-112.324C488.442,-103.979 508.065,-91.2122 523.22,-81.3524"/>
<polygon fill="midnightblue" stroke="midnightblue" points="525.504,-84.0417 531.978,-75.6545 521.687,-78.1742 525.504,-84.0417"/>
</g>
<!-- Node10 -->
<g id="node10" class="node"><title>Node10</title>
<polygon fill="white" stroke="#bfbfbf" points="2108.28,-56.5 2108.28,-75.5 2154.28,-75.5 2154.28,-56.5 2108.28,-56.5"/>
<text text-anchor="middle" x="2131.28" y="-63.5" font-family="Helvetica,sans-Serif" font-size="10.00">fcntl.h</text>
</g>
<!-- Node9&#45;&gt;Node10 -->
<g id="edge10" class="edge"><title>Node9&#45;&gt;Node10</title>
<path fill="none" stroke="midnightblue" d="M1952.53,-113.365C1986.18,-105.086 2041.53,-91.3028 2098.35,-76.1964"/>
<polygon fill="midnightblue" stroke="midnightblue" points="2099.47,-79.5218 2108.23,-73.5622 2097.66,-72.7584 2099.47,-79.5218"/>
</g>
<!-- Node11 -->
<g id="node11" class="node"><title>Node11</title>
<polygon fill="white" stroke="#bfbfbf" points="2172.28,-56.5 2172.28,-75.5 2248.28,-75.5 2248.28,-56.5 2172.28,-56.5"/>
<text text-anchor="middle" x="2210.28" y="-63.5" font-family="Helvetica,sans-Serif" font-size="10.00">sys/mman.h</text>
</g>
<!-- Node9&#45;&gt;Node11 -->
<g id="edge11" class="edge"><title>Node9&#45;&gt;Node11</title>
<path fill="none" stroke="midnightblue" d="M1952.62,-115.228C1996.96,-107.049 2080.81,-91.5379 2162.16,-76.2043"/>
<polygon fill="midnightblue" stroke="midnightblue" points="2162.89,-79.6289 2172.06,-74.3357 2161.59,-72.7502 2162.89,-79.6289"/>
</g>
<!-- Node12 -->
<g id="node12" class="node"><title>Node12</title>
<polygon fill="white" stroke="#bfbfbf" points="2266.78,-56.5 2266.78,-75.5 2339.78,-75.5 2339.78,-56.5 2266.78,-56.5"/>
<text text-anchor="middle" x="2303.28" y="-63.5" font-family="Helvetica,sans-Serif" font-size="10.00">sys/select.h</text>
</g>
<!-- Node9&#45;&gt;Node12 -->
<g id="edge12" class="edge"><title>Node9&#45;&gt;Node12</title>
<path fill="none" stroke="midnightblue" d="M1952.41,-117.465C2010.21,-110.763 2138.24,-95.2821 2256.69,-76.0057"/>
<polygon fill="midnightblue" stroke="midnightblue" points="2257.36,-79.4437 2266.66,-74.3711 2256.22,-72.536 2257.36,-79.4437"/>
</g>
<!-- Node13 -->
<g id="node13" class="node"><title>Node13</title>
<polygon fill="white" stroke="#bfbfbf" points="2358.28,-56.5 2358.28,-75.5 2434.28,-75.5 2434.28,-56.5 2358.28,-56.5"/>
<text text-anchor="middle" x="2396.28" y="-63.5" font-family="Helvetica,sans-Serif" font-size="10.00">sys/socket.h</text>
</g>
<!-- Node9&#45;&gt;Node13 -->
<g id="edge13" class="edge"><title>Node9&#45;&gt;Node13</title>
<path fill="none" stroke="midnightblue" d="M1952.54,-118.624C2021.86,-113.16 2193.86,-98.5307 2347.98,-76.0794"/>
<polygon fill="midnightblue" stroke="midnightblue" points="2348.72,-79.5081 2358.11,-74.5892 2347.7,-72.5827 2348.72,-79.5081"/>
</g>
<!-- Node9&#45;&gt;Node14 -->
<g id="edge14" class="edge"><title>Node9&#45;&gt;Node14</title>
<path fill="none" stroke="midnightblue" d="M1890.18,-119.008C1818.18,-114.16 1634.33,-100.432 1471.45,-76.2048"/>
<polygon fill="midnightblue" stroke="midnightblue" points="1471.65,-72.6967 1461.24,-74.6692 1470.61,-79.6187 1471.65,-72.6967"/>
</g>
<!-- Node15 -->
<g id="node15" class="node"><title>Node15</title>
<polygon fill="white" stroke="#bfbfbf" points="2452.78,-56.5 2452.78,-75.5 2501.78,-75.5 2501.78,-56.5 2452.78,-56.5"/>
<text text-anchor="middle" x="2477.28" y="-63.5" font-family="Helvetica,sans-Serif" font-size="10.00">net/if.h</text>
</g>
<!-- Node9&#45;&gt;Node15 -->
<g id="edge15" class="edge"><title>Node9&#45;&gt;Node15</title>
<path fill="none" stroke="midnightblue" d="M1952.41,-120.19C2032.32,-117.714 2251.25,-108.427 2442.55,-75.8095"/>
<polygon fill="midnightblue" stroke="midnightblue" points="2443.25,-79.2411 2452.51,-74.0868 2442.06,-72.3436 2443.25,-79.2411"/>
</g>
<!-- Node16 -->
<g id="node16" class="node"><title>Node16</title>
<polygon fill="white" stroke="#bfbfbf" points="1478.78,-56.5 1478.78,-75.5 1549.78,-75.5 1549.78,-56.5 1478.78,-56.5"/>
<text text-anchor="middle" x="1514.28" y="-63.5" font-family="Helvetica,sans-Serif" font-size="10.00">netinet/in.h</text>
</g>
<!-- Node9&#45;&gt;Node16 -->
<g id="edge16" class="edge"><title>Node9&#45;&gt;Node16</title>
<path fill="none" stroke="midnightblue" d="M1890.09,-117.966C1828.73,-111.82 1687.87,-96.8274 1560.21,-76.22"/>
<polygon fill="midnightblue" stroke="midnightblue" points="1560.69,-72.7527 1550.26,-74.598 1559.56,-79.6615 1560.69,-72.7527"/>
</g>
<!-- Node17 -->
<g id="node17" class="node"><title>Node17</title>
<polygon fill="white" stroke="#bfbfbf" points="1567.78,-56.5 1567.78,-75.5 1644.78,-75.5 1644.78,-56.5 1567.78,-56.5"/>
<text text-anchor="middle" x="1606.28" y="-63.5" font-family="Helvetica,sans-Serif" font-size="10.00">netinet/tcp.h</text>
</g>
<!-- Node9&#45;&gt;Node17 -->
<g id="edge17" class="edge"><title>Node9&#45;&gt;Node17</title>
<path fill="none" stroke="midnightblue" d="M1890.01,-115.921C1841.87,-108.06 1746.45,-92.3159 1654.78,-76.0618"/>
<polygon fill="midnightblue" stroke="midnightblue" points="1655.24,-72.5879 1644.78,-74.2833 1654.01,-79.4798 1655.24,-72.5879"/>
</g>
<!-- Node18 -->
<g id="node18" class="node"><title>Node18</title>
<polygon fill="white" stroke="#bfbfbf" points="1663.28,-56.5 1663.28,-75.5 1731.28,-75.5 1731.28,-56.5 1663.28,-56.5"/>
<text text-anchor="middle" x="1697.28" y="-63.5" font-family="Helvetica,sans-Serif" font-size="10.00">arpa/inet.h</text>
</g>
<!-- Node9&#45;&gt;Node18 -->
<g id="edge18" class="edge"><title>Node9&#45;&gt;Node18</title>
<path fill="none" stroke="midnightblue" d="M1890.13,-113.492C1851.43,-104.162 1785.16,-88.1849 1741.28,-77.6077"/>
<polygon fill="midnightblue" stroke="midnightblue" points="1742,-74.1811 1731.46,-75.24 1740.36,-80.9862 1742,-74.1811"/>
</g>
<!-- Node19 -->
<g id="node19" class="node"><title>Node19</title>
<polygon fill="white" stroke="#bfbfbf" points="1749.28,-56.5 1749.28,-75.5 1807.28,-75.5 1807.28,-56.5 1749.28,-56.5"/>
<text text-anchor="middle" x="1778.28" y="-63.5" font-family="Helvetica,sans-Serif" font-size="10.00">ifaddrs.h</text>
</g>
<!-- Node9&#45;&gt;Node19 -->
<g id="edge19" class="edge"><title>Node9&#45;&gt;Node19</title>
<path fill="none" stroke="midnightblue" d="M1898.62,-112.444C1874.88,-103.478 1837.37,-89.314 1810.54,-79.1827"/>
<polygon fill="midnightblue" stroke="midnightblue" points="1811.42,-75.7749 1800.83,-75.5164 1808.95,-82.3235 1811.42,-75.7749"/>
</g>
<!-- Node20 -->
<g id="node20" class="node"><title>Node20</title>
<polygon fill="white" stroke="#bfbfbf" points="1825.78,-56.5 1825.78,-75.5 1876.78,-75.5 1876.78,-56.5 1825.78,-56.5"/>
<text text-anchor="middle" x="1851.28" y="-63.5" font-family="Helvetica,sans-Serif" font-size="10.00">limits.h</text>
</g>
<!-- Node9&#45;&gt;Node20 -->
<g id="edge20" class="edge"><title>Node9&#45;&gt;Node20</title>
<path fill="none" stroke="midnightblue" d="M1910.03,-112.324C1899.48,-104.185 1883.48,-91.8395 1870.84,-82.0874"/>
<polygon fill="midnightblue" stroke="midnightblue" points="1872.79,-79.1707 1862.73,-75.8339 1868.51,-84.7132 1872.79,-79.1707"/>
</g>
<!-- Node21 -->
<g id="node21" class="node"><title>Node21</title>
<polygon fill="white" stroke="#bfbfbf" points="1894.78,-56.5 1894.78,-75.5 1947.78,-75.5 1947.78,-56.5 1894.78,-56.5"/>
<text text-anchor="middle" x="1921.28" y="-63.5" font-family="Helvetica,sans-Serif" font-size="10.00">netdb.h</text>
</g>
<!-- Node9&#45;&gt;Node21 -->
<g id="edge21" class="edge"><title>Node9&#45;&gt;Node21</title>
<path fill="none" stroke="midnightblue" d="M1921.28,-112.083C1921.28,-105.006 1921.28,-94.8611 1921.28,-85.9865"/>
<polygon fill="midnightblue" stroke="midnightblue" points="1924.78,-85.751 1921.28,-75.7511 1917.78,-85.7511 1924.78,-85.751"/>
</g>
<!-- Node22 -->
<g id="node22" class="node"><title>Node22</title>
<polygon fill="white" stroke="#bfbfbf" points="1965.78,-56.5 1965.78,-75.5 2020.78,-75.5 2020.78,-56.5 1965.78,-56.5"/>
<text text-anchor="middle" x="1993.28" y="-63.5" font-family="Helvetica,sans-Serif" font-size="10.00">unistd.h</text>
</g>
<!-- Node9&#45;&gt;Node22 -->
<g id="edge22" class="edge"><title>Node9&#45;&gt;Node22</title>
<path fill="none" stroke="midnightblue" d="M1932.85,-112.324C1943.7,-104.185 1960.16,-91.8395 1973.16,-82.0874"/>
<polygon fill="midnightblue" stroke="midnightblue" points="1975.6,-84.6339 1981.5,-75.8339 1971.4,-79.0339 1975.6,-84.6339"/>
</g>
<!-- Node23 -->
<g id="node23" class="node"><title>Node23</title>
<polygon fill="white" stroke="#bfbfbf" points="2038.78,-56.5 2038.78,-75.5 2089.78,-75.5 2089.78,-56.5 2038.78,-56.5"/>
<text text-anchor="middle" x="2064.28" y="-63.5" font-family="Helvetica,sans-Serif" font-size="10.00">errno.h</text>
</g>
<!-- Node9&#45;&gt;Node23 -->
<g id="edge23" class="edge"><title>Node9&#45;&gt;Node23</title>
<path fill="none" stroke="midnightblue" d="M1943.94,-112.444C1967.68,-103.478 2005.19,-89.314 2032.02,-79.1827"/>
<polygon fill="midnightblue" stroke="midnightblue" points="2033.61,-82.3235 2041.73,-75.5164 2031.14,-75.7749 2033.61,-82.3235"/>
</g>
<!-- Node24&#45;&gt;Node3 -->
<g id="edge47" class="edge"><title>Node24&#45;&gt;Node3</title>
<path fill="none" stroke="midnightblue" d="M862.265,-168.328C871.585,-148.228 895.796,-97.0427 919.28,-56 924.646,-46.622 931.118,-36.4817 936.586,-28.2053"/>
<polygon fill="midnightblue" stroke="midnightblue" points="939.563,-30.0494 942.22,-19.793 933.747,-26.1543 939.563,-30.0494"/>
</g>
<!-- Node24&#45;&gt;Node4 -->
<g id="edge46" class="edge"><title>Node24&#45;&gt;Node4</title>
<path fill="none" stroke="midnightblue" d="M897.325,-175.315C965.092,-171.656 1100.75,-160.852 1137.28,-132 1151.49,-120.774 1158.3,-100.758 1161.51,-85.8939"/>
<polygon fill="midnightblue" stroke="midnightblue" points="1165.01,-86.2232 1163.33,-75.7621 1158.12,-84.9866 1165.01,-86.2232"/>
</g>
<!-- Node24&#45;&gt;Node8 -->
<g id="edge48" class="edge"><title>Node24&#45;&gt;Node8</title>
<path fill="none" stroke="midnightblue" d="M819.28,-175.642C749.691,-172.468 607.88,-162.363 570.28,-132 556.338,-120.741 550.159,-100.731 547.429,-85.8765"/>
<polygon fill="midnightblue" stroke="midnightblue" points="550.858,-85.1377 545.941,-75.7529 543.932,-86.1556 550.858,-85.1377"/>
</g>
<!-- Node24&#45;&gt;Node9 -->
<g id="edge26" class="edge"><title>Node24&#45;&gt;Node9</title>
<path fill="none" stroke="midnightblue" d="M897.373,-175.014C1063.48,-166.576 1709.98,-133.734 1880.08,-125.093"/>
<polygon fill="midnightblue" stroke="midnightblue" points="1880.32,-128.585 1890.13,-124.582 1879.97,-121.594 1880.32,-128.585"/>
</g>
<!-- Node25 -->
<g id="node25" class="node"><title>Node25</title>
<g id="a_node25"><a xlink:href="attributes_8h.html" target="_top" xlink:title="attributes.h">
<polygon fill="white" stroke="black" points="216.28,-112.5 216.28,-131.5 288.28,-131.5 288.28,-112.5 216.28,-112.5"/>
<text text-anchor="middle" x="252.28" y="-119.5" font-family="Helvetica,sans-Serif" font-size="10.00">attributes.h</text>
</a>
</g>
</g>
<!-- Node24&#45;&gt;Node25 -->
<g id="edge25" class="edge"><title>Node24&#45;&gt;Node25</title>
<path fill="none" stroke="midnightblue" d="M818.999,-175.437C728.804,-171.507 499.801,-159.595 298.726,-132.046"/>
<polygon fill="midnightblue" stroke="midnightblue" points="298.953,-128.544 288.567,-130.637 297.991,-135.478 298.953,-128.544"/>
</g>
<!-- Node26 -->
<g id="node26" class="node"><title>Node26</title>
<g id="a_node26"><a xlink:href="fs_8h.html" target="_top" xlink:title="fs.h">
<polygon fill="white" stroke="red" points="786.28,-56.5 786.28,-75.5 820.28,-75.5 820.28,-56.5 786.28,-56.5"/>
<text text-anchor="middle" x="803.28" y="-63.5" font-family="Helvetica,sans-Serif" font-size="10.00">fs.h</text>
</a>
</g>
</g>
<!-- Node24&#45;&gt;Node26 -->
<g id="edge27" class="edge"><title>Node24&#45;&gt;Node26</title>
<path fill="none" stroke="midnightblue" d="M819.094,-170.308C796.901,-164.295 770.921,-153.012 757.28,-132 745.869,-114.424 764.098,-94.8735 780.867,-81.8487"/>
<polygon fill="midnightblue" stroke="midnightblue" points="783.317,-84.3944 789.339,-75.6774 779.195,-78.7364 783.317,-84.3944"/>
</g>
<!-- Node28 -->
<g id="node28" class="node"><title>Node28</title>
<g id="a_node28"><a xlink:href="logging_8h.html" target="_top" xlink:title="logging.h">
<polygon fill="white" stroke="red" points="650.28,-112.5 650.28,-131.5 710.28,-131.5 710.28,-112.5 650.28,-112.5"/>
<text text-anchor="middle" x="680.28" y="-119.5" font-family="Helvetica,sans-Serif" font-size="10.00">logging.h</text>
</a>
</g>
</g>
<!-- Node24&#45;&gt;Node28 -->
<g id="edge30" class="edge"><title>Node24&#45;&gt;Node28</title>
<path fill="none" stroke="midnightblue" d="M830.075,-168.444C799.87,-159.28 751.768,-144.688 718.25,-134.519"/>
<polygon fill="midnightblue" stroke="midnightblue" points="718.938,-131.07 708.352,-131.516 716.906,-137.769 718.938,-131.07"/>
</g>
<!-- Node29 -->
<g id="node29" class="node"><title>Node29</title>
<g id="a_node29"><a xlink:href="tinyformat_8h.html" target="_top" xlink:title="tinyformat.h">
<polygon fill="white" stroke="red" points="586.78,-56.5 586.78,-75.5 661.78,-75.5 661.78,-56.5 586.78,-56.5"/>
<text text-anchor="middle" x="624.28" y="-63.5" font-family="Helvetica,sans-Serif" font-size="10.00">tinyformat.h</text>
</a>
</g>
</g>
<!-- Node24&#45;&gt;Node29 -->
<g id="edge37" class="edge"><title>Node24&#45;&gt;Node29</title>
<path fill="none" stroke="midnightblue" d="M818.898,-173.762C763.468,-168.408 666.386,-155.849 641.28,-132 628.868,-120.21 625.1,-100.574 624.145,-85.9641"/>
<polygon fill="midnightblue" stroke="midnightblue" points="627.633,-85.4743 623.87,-75.5704 620.635,-85.6595 627.633,-85.4743"/>
</g>
<!-- Node30 -->
<g id="node30" class="node"><title>Node30</title>
<polygon fill="white" stroke="#bfbfbf" points="718.28,-56.5 718.28,-75.5 768.28,-75.5 768.28,-56.5 718.28,-56.5"/>
<text text-anchor="middle" x="743.28" y="-63.5" font-family="Helvetica,sans-Serif" font-size="10.00">atomic</text>
</g>
<!-- Node24&#45;&gt;Node30 -->
<g id="edge43" class="edge"><title>Node24&#45;&gt;Node30</title>
<path fill="none" stroke="midnightblue" d="M857.798,-168.365C856.609,-154.819 852.498,-128.426 838.28,-112 829.567,-101.934 799.929,-88.7253 776.047,-79.2256"/>
<polygon fill="midnightblue" stroke="midnightblue" points="777.161,-75.9035 766.573,-75.5282 774.616,-82.4245 777.161,-75.9035"/>
</g>
<!-- Node24&#45;&gt;Node31 -->
<g id="edge36" class="edge"><title>Node24&#45;&gt;Node31</title>
<path fill="none" stroke="midnightblue" d="M897.504,-172.508C956.971,-165.44 1073.39,-150.591 1171.28,-132 1172.74,-131.723 1174.22,-131.428 1175.72,-131.12"/>
<polygon fill="midnightblue" stroke="midnightblue" points="1176.61,-134.507 1185.63,-128.947 1175.12,-127.669 1176.61,-134.507"/>
</g>
<!-- Node32 -->
<g id="node32" class="node"><title>Node32</title>
<g id="a_node32"><a xlink:href="memory_8h.html" target="_top" xlink:title="util/memory.h">
<polygon fill="white" stroke="red" points="306.28,-112.5 306.28,-131.5 388.28,-131.5 388.28,-112.5 306.28,-112.5"/>
<text text-anchor="middle" x="347.28" y="-119.5" font-family="Helvetica,sans-Serif" font-size="10.00">util/memory.h</text>
</a>
</g>
</g>
<!-- Node24&#45;&gt;Node32 -->
<g id="edge38" class="edge"><title>Node24&#45;&gt;Node32</title>
<path fill="none" stroke="midnightblue" d="M818.994,-174.241C740.894,-168.525 560.407,-154.157 398.578,-132.077"/>
<polygon fill="midnightblue" stroke="midnightblue" points="398.823,-128.578 388.438,-130.68 397.867,-135.513 398.823,-128.578"/>
</g>
<!-- Node33 -->
<g id="node33" class="node"><title>Node33</title>
<g id="a_node33"><a xlink:href="time_8h.html" target="_top" xlink:title="util/time.h">
<polygon fill="white" stroke="black" points="1063.78,-112.5 1063.78,-131.5 1128.78,-131.5 1128.78,-112.5 1063.78,-112.5"/>
<text text-anchor="middle" x="1096.28" y="-119.5" font-family="Helvetica,sans-Serif" font-size="10.00">util/time.h</text>
</a>
</g>
</g>
<!-- Node24&#45;&gt;Node33 -->
<g id="edge40" class="edge"><title>Node24&#45;&gt;Node33</title>
<path fill="none" stroke="midnightblue" d="M895.992,-168.444C938.917,-158.704 1008.87,-142.832 1053.72,-132.657"/>
<polygon fill="midnightblue" stroke="midnightblue" points="1054.74,-136.014 1063.72,-130.388 1053.19,-129.188 1054.74,-136.014"/>
</g>
<!-- Node34 -->
<g id="node34" class="node"><title>Node34</title>
<polygon fill="white" stroke="#bfbfbf" points="766.78,-112.5 766.78,-131.5 829.78,-131.5 829.78,-112.5 766.78,-112.5"/>
<text text-anchor="middle" x="798.28" y="-119.5" font-family="Helvetica,sans-Serif" font-size="10.00">exception</text>
</g>
<!-- Node24&#45;&gt;Node34 -->
<g id="edge44" class="edge"><title>Node24&#45;&gt;Node34</title>
<path fill="none" stroke="midnightblue" d="M848.64,-168.324C839.77,-160.341 826.405,-148.313 815.672,-138.653"/>
<polygon fill="midnightblue" stroke="midnightblue" points="817.87,-135.922 808.095,-131.834 813.187,-141.125 817.87,-135.922"/>
</g>
<!-- Node35 -->
<g id="node35" class="node"><title>Node35</title>
<polygon fill="white" stroke="#bfbfbf" points="928.28,-56.5 928.28,-75.5 966.28,-75.5 966.28,-56.5 928.28,-56.5"/>
<text text-anchor="middle" x="947.28" y="-63.5" font-family="Helvetica,sans-Serif" font-size="10.00">map</text>
</g>
<!-- Node24&#45;&gt;Node35 -->
<g id="edge45" class="edge"><title>Node24&#45;&gt;Node35</title>
<path fill="none" stroke="midnightblue" d="M870.474,-168.354C881.737,-159.956 898.461,-146.394 910.28,-132 922.23,-117.445 932.516,-98.52 939.187,-84.8474"/>
<polygon fill="midnightblue" stroke="midnightblue" points="942.459,-86.1137 943.552,-75.5753 936.126,-83.1322 942.459,-86.1137"/>
</g>
<!-- Node26&#45;&gt;Node3 -->
<g id="edge29" class="edge"><title>Node26&#45;&gt;Node3</title>
<path fill="none" stroke="midnightblue" d="M820.483,-58.5934C844.14,-49.7833 887.136,-33.7709 916.674,-22.7704"/>
<polygon fill="midnightblue" stroke="midnightblue" points="917.978,-26.0196 926.128,-19.2496 915.535,-19.4598 917.978,-26.0196"/>
</g>
<!-- Node26&#45;&gt;Node27 -->
<g id="edge28" class="edge"><title>Node26&#45;&gt;Node27</title>
<path fill="none" stroke="midnightblue" d="M786.092,-58.4574C783.182,-57.5214 780.168,-56.6555 777.28,-56 646.298,-26.2699 486.269,-15.753 416.552,-12.4056"/>
<polygon fill="midnightblue" stroke="midnightblue" points="416.307,-8.89074 406.157,-11.9281 415.986,-15.8834 416.307,-8.89074"/>
</g>
<!-- Node28&#45;&gt;Node3 -->
<g id="edge34" class="edge"><title>Node28&#45;&gt;Node3</title>
<path fill="none" stroke="midnightblue" d="M681.554,-112.274C684.108,-98.1049 691.245,-70.2479 709.28,-56 740.937,-30.9902 858.517,-18.2431 916.095,-13.3876"/>
<polygon fill="midnightblue" stroke="midnightblue" points="916.431,-16.872 926.114,-12.5717 915.862,-9.89507 916.431,-16.872"/>
</g>
<!-- Node28&#45;&gt;Node8 -->
<g id="edge35" class="edge"><title>Node28&#45;&gt;Node8</title>
<path fill="none" stroke="midnightblue" d="M658.889,-112.444C636.573,-103.517 601.377,-89.4387 576.072,-79.3168"/>
<polygon fill="midnightblue" stroke="midnightblue" points="577.156,-75.9807 566.571,-75.5164 574.556,-82.4801 577.156,-75.9807"/>
</g>
<!-- Node28&#45;&gt;Node26 -->
<g id="edge31" class="edge"><title>Node28&#45;&gt;Node26</title>
<path fill="none" stroke="midnightblue" d="M699.77,-112.444C720.633,-103.284 753.853,-88.6994 777.013,-78.5316"/>
<polygon fill="midnightblue" stroke="midnightblue" points="778.508,-81.6977 786.258,-74.473 775.695,-75.2882 778.508,-81.6977"/>
</g>
<!-- Node28&#45;&gt;Node29 -->
<g id="edge32" class="edge"><title>Node28&#45;&gt;Node29</title>
<path fill="none" stroke="midnightblue" d="M671.282,-112.324C663.085,-104.42 650.774,-92.5482 640.808,-82.9377"/>
<polygon fill="midnightblue" stroke="midnightblue" points="643.069,-80.2558 633.441,-75.8339 638.21,-85.2947 643.069,-80.2558"/>
</g>
<!-- Node28&#45;&gt;Node30 -->
<g id="edge33" class="edge"><title>Node28&#45;&gt;Node30</title>
<path fill="none" stroke="midnightblue" d="M690.402,-112.324C699.806,-104.263 714.024,-92.0765 725.349,-82.3695"/>
<polygon fill="midnightblue" stroke="midnightblue" points="727.659,-84.9993 732.974,-75.8339 723.103,-79.6844 727.659,-84.9993"/>
</g>
<!-- Node32&#45;&gt;Node7 -->
<g id="edge39" class="edge"><title>Node32&#45;&gt;Node7</title>
<path fill="none" stroke="midnightblue" d="M347.28,-112.083C347.28,-105.006 347.28,-94.8611 347.28,-85.9865"/>
<polygon fill="midnightblue" stroke="midnightblue" points="350.78,-85.751 347.28,-75.7511 343.78,-85.7511 350.78,-85.751"/>
</g>
<!-- Node33&#45;&gt;Node3 -->
<g id="edge42" class="edge"><title>Node33&#45;&gt;Node3</title>
<path fill="none" stroke="midnightblue" d="M1084.67,-112.368C1059.49,-93.6531 999.61,-49.1509 968.236,-25.8324"/>
<polygon fill="midnightblue" stroke="midnightblue" points="969.953,-22.7476 959.839,-19.5914 965.777,-28.3658 969.953,-22.7476"/>
</g>
<!-- Node33&#45;&gt;Node4 -->
<g id="edge41" class="edge"><title>Node33&#45;&gt;Node4</title>
<path fill="none" stroke="midnightblue" d="M1107.21,-112.324C1117.45,-104.185 1133,-91.8395 1145.28,-82.0874"/>
<polygon fill="midnightblue" stroke="midnightblue" points="1147.5,-84.7937 1153.16,-75.8339 1143.15,-79.3119 1147.5,-84.7937"/>
</g>
<!-- Node36&#45;&gt;Node3 -->
<g id="edge51" class="edge"><title>Node36&#45;&gt;Node3</title>
<path fill="none" stroke="midnightblue" d="M218.047,-168.223C205.694,-155.382 186.62,-130.942 198.28,-112 227.245,-64.9442 256.008,-70.6733 309.28,-56 425.483,-23.993 803.016,-13.926 916.029,-11.5917"/>
<polygon fill="midnightblue" stroke="midnightblue" points="916.195,-15.0892 926.123,-11.3895 916.055,-8.09063 916.195,-15.0892"/>
</g>
<!-- Node36&#45;&gt;Node8 -->
<g id="edge52" class="edge"><title>Node36&#45;&gt;Node8</title>
<path fill="none" stroke="midnightblue" d="M220.027,-168.346C209.561,-154.773 192.968,-128.344 207.28,-112 227.155,-89.3035 429.691,-74.2198 511.387,-69.016"/>
<polygon fill="midnightblue" stroke="midnightblue" points="511.871,-72.4927 521.633,-68.375 511.434,-65.5063 511.871,-72.4927"/>
</g>
<!-- Node36&#45;&gt;Node25 -->
<g id="edge50" class="edge"><title>Node36&#45;&gt;Node25</title>
<path fill="none" stroke="midnightblue" d="M231.408,-168.083C234.794,-160.77 239.696,-150.181 243.899,-141.103"/>
<polygon fill="midnightblue" stroke="midnightblue" points="247.203,-142.296 248.228,-131.751 240.851,-139.355 247.203,-142.296"/>
</g>
<!-- Node37&#45;&gt;Node3 -->
<g id="edge56" class="edge"><title>Node37&#45;&gt;Node3</title>
<path fill="none" stroke="midnightblue" d="M1338.87,-169.361C1341.7,-168.844 1344.54,-168.379 1347.28,-168 1618.06,-130.579 1688.8,-153.85 1961.28,-132 2207.26,-112.276 2683.24,-232.984 2511.28,-56 2483.64,-27.5493 1202.78,-13.5316 980.871,-11.3146"/>
<polygon fill="midnightblue" stroke="midnightblue" points="980.583,-7.81166 970.549,-11.2124 980.514,-14.8113 980.583,-7.81166"/>
</g>
<!-- Node37&#45;&gt;Node4 -->
<g id="edge55" class="edge"><title>Node37&#45;&gt;Node4</title>
<path fill="none" stroke="midnightblue" d="M1298.89,-168.294C1287.43,-155.11 1264.28,-129.743 1241.28,-112 1225.54,-99.8595 1206.23,-88.5803 1190.88,-80.3509"/>
<polygon fill="midnightblue" stroke="midnightblue" points="1192.39,-77.1881 1181.91,-75.6406 1189.13,-83.3865 1192.39,-77.1881"/>
</g>
<!-- Node37&#45;&gt;Node8 -->
<g id="edge57" class="edge"><title>Node37&#45;&gt;Node8</title>
<path fill="none" stroke="midnightblue" d="M1273.35,-169.444C1270.29,-168.894 1267.24,-168.4 1264.28,-168 1126.86,-149.417 772.631,-176.471 641.28,-132 610.315,-121.516 579.998,-98.1705 561.972,-82.5037"/>
<polygon fill="midnightblue" stroke="midnightblue" points="563.948,-79.5759 554.161,-75.5196 559.282,-84.7942 563.948,-79.5759"/>
</g>
<!-- Node37&#45;&gt;Node9 -->
<g id="edge54" class="edge"><title>Node37&#45;&gt;Node9</title>
<path fill="none" stroke="midnightblue" d="M1338.88,-169.419C1341.71,-168.89 1344.54,-168.406 1347.28,-168 1545.52,-138.615 1785.3,-127.656 1879.97,-124.285"/>
<polygon fill="midnightblue" stroke="midnightblue" points="1880.13,-127.782 1890,-123.937 1879.88,-120.786 1880.13,-127.782"/>
</g>
<!-- Node38&#45;&gt;Node3 -->
<g id="edge62" class="edge"><title>Node38&#45;&gt;Node3</title>
<path fill="none" stroke="midnightblue" d="M1000.85,-112.431C995.716,-99.8489 985.552,-75.7286 975.28,-56 970.441,-46.7067 964.501,-36.6819 959.426,-28.4583"/>
<polygon fill="midnightblue" stroke="midnightblue" points="962.262,-26.3938 953.983,-19.7835 956.333,-30.1144 962.262,-26.3938"/>
</g>
<!-- Node38&#45;&gt;Node4 -->
<g id="edge61" class="edge"><title>Node38&#45;&gt;Node4</title>
<path fill="none" stroke="midnightblue" d="M1029.63,-112.444C1056.55,-103.359 1099.28,-88.9388 1129.37,-78.7831"/>
<polygon fill="midnightblue" stroke="midnightblue" points="1130.69,-82.0305 1139.05,-75.5164 1128.45,-75.3981 1130.69,-82.0305"/>
</g>
<!-- Node38&#45;&gt;Node26 -->
<g id="edge59" class="edge"><title>Node38&#45;&gt;Node26</title>
<path fill="none" stroke="midnightblue" d="M972.431,-112.444C933.239,-101.914 867.365,-84.2169 830.452,-74.2999"/>
<polygon fill="midnightblue" stroke="midnightblue" points="830.986,-70.8194 820.42,-71.6049 829.17,-77.5797 830.986,-70.8194"/>
</g>
<!-- Node38&#45;&gt;Node35 -->
<g id="edge60" class="edge"><title>Node38&#45;&gt;Node35</title>
<path fill="none" stroke="midnightblue" d="M995.122,-112.324C986.778,-104.42 974.247,-92.5482 964.103,-82.9377"/>
<polygon fill="midnightblue" stroke="midnightblue" points="966.271,-80.1705 956.604,-75.8339 961.457,-85.2522 966.271,-80.1705"/>
</g>
<!-- Node40&#45;&gt;Node3 -->
<g id="edge69" class="edge"><title>Node40&#45;&gt;Node3</title>
<path fill="none" stroke="midnightblue" d="M1316.31,-112.4C1292.96,-98.4121 1244.12,-70.8097 1199.28,-56 1123.27,-30.8945 1029.41,-18.8037 980.837,-13.8676"/>
<polygon fill="midnightblue" stroke="midnightblue" points="980.914,-10.3586 970.621,-12.8679 980.233,-17.3253 980.914,-10.3586"/>
</g>
<!-- Node40&#45;&gt;Node4 -->
<g id="edge68" class="edge"><title>Node40&#45;&gt;Node4</title>
<path fill="none" stroke="midnightblue" d="M1303.98,-112.444C1275.93,-103.32 1231.34,-88.8133 1200.1,-78.6509"/>
<polygon fill="midnightblue" stroke="midnightblue" points="1201.05,-75.2816 1190.46,-75.5164 1198.89,-81.9383 1201.05,-75.2816"/>
</g>
<!-- Node40&#45;&gt;Node5 -->
<g id="edge66" class="edge"><title>Node40&#45;&gt;Node5</title>
<path fill="none" stroke="midnightblue" d="M1325.49,-112.083C1321.52,-104.691 1315.75,-93.9533 1310.85,-84.8111"/>
<polygon fill="midnightblue" stroke="midnightblue" points="1313.79,-82.9051 1305.98,-75.7511 1307.63,-86.217 1313.79,-82.9051"/>
</g>
<!-- Node40&#45;&gt;Node7 -->
<g id="edge67" class="edge"><title>Node40&#45;&gt;Node7</title>
<path fill="none" stroke="midnightblue" d="M1289.56,-116.437C1274.41,-114.858 1257.08,-113.188 1241.28,-112 917.798,-87.6732 836.238,-92.8341 512.28,-76 469.107,-73.7566 419.589,-71.0358 386.155,-69.177"/>
<polygon fill="midnightblue" stroke="midnightblue" points="386.072,-65.6671 375.893,-68.6055 385.683,-72.6563 386.072,-65.6671"/>
</g>
<!-- Node50&#45;&gt;Node7 -->
<g id="edge83" class="edge"><title>Node50&#45;&gt;Node7</title>
<path fill="none" stroke="midnightblue" d="M116.696,-112.444C169.636,-102.01 258.289,-84.5383 308.857,-74.5725"/>
<polygon fill="midnightblue" stroke="midnightblue" points="309.607,-77.992 318.741,-72.6243 308.253,-71.1241 309.607,-77.992"/>
</g>
</g>
</svg>
