<?xml version="1.0" encoding="UTF-8" standalone="no"?>
<!DOCTYPE svg PUBLIC "-//W3C//DTD SVG 1.1//EN"
 "http://www.w3.org/Graphics/SVG/1.1/DTD/svg11.dtd">
<!-- Generated by graphviz version 2.49.3 (0)
 -->
<!-- Title: EncodeSecret Pages: 1 -->
<svg width="464pt" height="223pt"
 viewBox="0.00 0.00 464.00 223.00" xmlns="http://www.w3.org/2000/svg" xmlns:xlink="http://www.w3.org/1999/xlink">
<g id="graph0" class="graph" transform="scale(1 1) rotate(0) translate(4 219)">
<title>EncodeSecret</title>
<polygon fill="white" stroke="transparent" points="-4,4 -4,-219 460,-219 460,4 -4,4"/>
<!-- Node1 -->
<g id="node1" class="node">
<title>Node1</title>
<g id="a_node1"><a xlink:title=" ">
<polygon fill="#bfbfbf" stroke="black" points="373,-95.5 373,-114.5 456,-114.5 456,-95.5 373,-95.5"/>
<text text-anchor="middle" x="414.5" y="-102.5" font-family="Helvetica,sans-Serif" font-size="10.00">EncodeSecret</text>
</a>
</g>
</g>
<!-- Node2 -->
<g id="node2" class="node">
<title>Node2</title>
<g id="a_node2"><a xlink:href="wallet__tests_8cpp.html#ab1217aa15483f2550de6d22f579f2969" target="_top" xlink:title=" ">
<polygon fill="white" stroke="black" points="239,-193.5 239,-212.5 292,-212.5 292,-193.5 239,-193.5"/>
<text text-anchor="middle" x="265.5" y="-200.5" font-family="Helvetica,sans-Serif" font-size="10.00">AddKey</text>
</a>
</g>
</g>
<!-- Node1&#45;&gt;Node2 -->
<g id="edge1" class="edge">
<title>Node1&#45;&gt;Node2</title>
<path fill="none" stroke="midnightblue" d="M399.92,-122.77C385.9,-139.96 362.53,-165.61 337,-181 323.27,-189.27 306.14,-194.71 292.21,-198.11"/>
<polygon fill="midnightblue" stroke="midnightblue" points="402.89,-124.66 406.36,-114.65 397.4,-120.31 402.89,-124.66"/>
</g>
<!-- Node4 -->
<g id="node4" class="node">
<title>Node4</title>
<g id="a_node4"><a xlink:href="key__io__tests_8cpp.html#ae81a92696cf079965357abe772fe87d2" target="_top" xlink:title=" ">
<polygon fill="white" stroke="black" points="194,-152.5 194,-171.5 337,-171.5 337,-152.5 194,-152.5"/>
<text text-anchor="middle" x="265.5" y="-159.5" font-family="Helvetica,sans-Serif" font-size="10.00">BOOST_AUTO_TEST_CASE</text>
</a>
</g>
</g>
<!-- Node1&#45;&gt;Node4 -->
<g id="edge3" class="edge">
<title>Node1&#45;&gt;Node4</title>
<path fill="none" stroke="midnightblue" d="M387.7,-119.41C373.13,-127.14 354.41,-136.41 337,-143 327.64,-146.55 317.34,-149.72 307.57,-152.4"/>
<polygon fill="midnightblue" stroke="midnightblue" points="389.48,-122.43 396.62,-114.6 386.16,-116.27 389.48,-122.43"/>
</g>
<!-- Node5 -->
<g id="node5" class="node">
<title>Node5</title>
<g id="a_node5"><a xlink:href="wallet_2test_2util_8cpp.html#adbb105faba42f8133dfa41e114ce4b78" target="_top" xlink:title=" ">
<polygon fill="white" stroke="black" points="208,-114.5 208,-133.5 323,-133.5 323,-114.5 208,-114.5"/>
<text text-anchor="middle" x="265.5" y="-121.5" font-family="Helvetica,sans-Serif" font-size="10.00">CreateSyncedWallet</text>
</a>
</g>
</g>
<!-- Node1&#45;&gt;Node5 -->
<g id="edge4" class="edge">
<title>Node1&#45;&gt;Node5</title>
<path fill="none" stroke="midnightblue" d="M362.92,-111.54C350.1,-113.19 336.25,-114.98 323.15,-116.68"/>
<polygon fill="midnightblue" stroke="midnightblue" points="363.47,-115 372.94,-110.24 362.58,-108.05 363.47,-115"/>
</g>
<!-- Node8 -->
<g id="node8" class="node">
<title>Node8</title>
<g id="a_node8"><a xlink:href="rpcdump_8cpp.html#abc913300d07bc7b7573126048a1d3b60" target="_top" xlink:title=" ">
<polygon fill="white" stroke="black" points="225.5,-76.5 225.5,-95.5 305.5,-95.5 305.5,-76.5 225.5,-76.5"/>
<text text-anchor="middle" x="265.5" y="-83.5" font-family="Helvetica,sans-Serif" font-size="10.00">dumpprivkey</text>
</a>
</g>
</g>
<!-- Node1&#45;&gt;Node8 -->
<g id="edge7" class="edge">
<title>Node1&#45;&gt;Node8</title>
<path fill="none" stroke="midnightblue" d="M362.81,-98.45C344.1,-96.03 323.19,-93.33 305.66,-91.06"/>
<polygon fill="midnightblue" stroke="midnightblue" points="362.58,-101.95 372.94,-99.76 363.47,-95 362.58,-101.95"/>
</g>
<!-- Node10 -->
<g id="node10" class="node">
<title>Node10</title>
<g id="a_node10"><a xlink:href="rpcdump_8cpp.html#a5e0e8a39d9dd61d74fa4b97ccb541bb9" target="_top" xlink:title=" ">
<polygon fill="white" stroke="black" points="228.5,-38.5 228.5,-57.5 302.5,-57.5 302.5,-38.5 228.5,-38.5"/>
<text text-anchor="middle" x="265.5" y="-45.5" font-family="Helvetica,sans-Serif" font-size="10.00">dumpwallet</text>
</a>
</g>
</g>
<!-- Node1&#45;&gt;Node10 -->
<g id="edge9" class="edge">
<title>Node1&#45;&gt;Node10</title>
<path fill="none" stroke="midnightblue" d="M387.7,-90.59C373.13,-82.86 354.41,-73.59 337,-67 326.09,-62.87 313.92,-59.25 302.8,-56.32"/>
<polygon fill="midnightblue" stroke="midnightblue" points="386.16,-93.73 396.62,-95.4 389.48,-87.57 386.16,-93.73"/>
</g>
<!-- Node12 -->
<g id="node12" class="node">
<title>Node12</title>
<g id="a_node12"><a xlink:href="test_2fuzz_2key_8cpp.html#a66251cfb4c3b2a863b8f17cf902a79ed" target="_top" xlink:title=" ">
<polygon fill="white" stroke="black" points="209.5,-0.5 209.5,-19.5 321.5,-19.5 321.5,-0.5 209.5,-0.5"/>
<text text-anchor="middle" x="265.5" y="-7.5" font-family="Helvetica,sans-Serif" font-size="10.00">FUZZ_TARGET_INIT</text>
</a>
</g>
</g>
<!-- Node1&#45;&gt;Node12 -->
<g id="edge12" class="edge">
<title>Node1&#45;&gt;Node12</title>
<path fill="none" stroke="midnightblue" d="M400.27,-87.29C386.38,-69.93 362.97,-43.96 337,-29 330.3,-25.14 322.79,-22.04 315.24,-19.56"/>
<polygon fill="midnightblue" stroke="midnightblue" points="397.73,-89.73 406.63,-95.48 403.26,-85.44 397.73,-89.73"/>
</g>
<!-- Node3 -->
<g id="node3" class="node">
<title>Node3</title>
<g id="a_node3"><a xlink:href="wallet__tests_8cpp.html#aaa523842972d408c5762c7a71b1ecc0c" target="_top" xlink:title=" ">
<polygon fill="white" stroke="black" points="0,-195.5 0,-214.5 158,-214.5 158,-195.5 0,-195.5"/>
<text text-anchor="middle" x="79" y="-202.5" font-family="Helvetica,sans-Serif" font-size="10.00">BOOST_FIXTURE_TEST_CASE</text>
</a>
</g>
</g>
<!-- Node2&#45;&gt;Node3 -->
<g id="edge2" class="edge">
<title>Node2&#45;&gt;Node3</title>
<path fill="none" stroke="midnightblue" d="M228.61,-203.39C208.5,-203.61 182.61,-203.89 158.08,-204.15"/>
<polygon fill="midnightblue" stroke="midnightblue" points="228.88,-206.89 238.85,-203.28 228.81,-199.89 228.88,-206.89"/>
</g>
<!-- Node6 -->
<g id="node6" class="node">
<title>Node6</title>
<g id="a_node6"><a xlink:href="spend__tests_8cpp.html#ae5d7cf585ea5ac103ece3be1e513670a" target="_top" xlink:title=" ">
<polygon fill="white" stroke="black" points="0,-157.5 0,-176.5 158,-176.5 158,-157.5 0,-157.5"/>
<text text-anchor="middle" x="79" y="-164.5" font-family="Helvetica,sans-Serif" font-size="10.00">BOOST_FIXTURE_TEST_CASE</text>
</a>
</g>
</g>
<!-- Node5&#45;&gt;Node6 -->
<g id="edge5" class="edge">
<title>Node5&#45;&gt;Node6</title>
<path fill="none" stroke="midnightblue" d="M213.54,-135.88C184.33,-142.69 148.16,-151.12 120.83,-157.48"/>
<polygon fill="midnightblue" stroke="midnightblue" points="214.61,-139.22 223.55,-133.54 213.02,-132.4 214.61,-139.22"/>
</g>
<!-- Node7 -->
<g id="node7" class="node">
<title>Node7</title>
<g id="a_node7"><a xlink:href="class_list_coins_testing_setup.html#adadca010ddbfc563e99928862ade6027" target="_top" xlink:title=" ">
<polygon fill="white" stroke="black" points="14.5,-108 14.5,-138 143.5,-138 143.5,-108 14.5,-108"/>
<text text-anchor="start" x="22.5" y="-126" font-family="Helvetica,sans-Serif" font-size="10.00">ListCoinsTestingSetup</text>
<text text-anchor="middle" x="79" y="-115" font-family="Helvetica,sans-Serif" font-size="10.00">::ListCoinsTestingSetup</text>
</a>
</g>
</g>
<!-- Node5&#45;&gt;Node7 -->
<g id="edge6" class="edge">
<title>Node5&#45;&gt;Node7</title>
<path fill="none" stroke="midnightblue" d="M197.68,-123.64C180.04,-123.54 161.06,-123.44 143.59,-123.34"/>
<polygon fill="midnightblue" stroke="midnightblue" points="197.87,-127.14 207.89,-123.69 197.91,-120.14 197.87,-127.14"/>
</g>
<!-- Node9 -->
<g id="node9" class="node">
<title>Node9</title>
<g id="a_node9"><a xlink:href="rpcwallet_8cpp.html#a0f1fb991b53dfc0965c1652a3a032941" target="_top" xlink:title=" ">
<polygon fill="white" stroke="black" points="9,-69.5 9,-88.5 149,-88.5 149,-69.5 9,-69.5"/>
<text text-anchor="middle" x="79" y="-76.5" font-family="Helvetica,sans-Serif" font-size="10.00">GetWalletRPCCommands</text>
</a>
</g>
</g>
<!-- Node8&#45;&gt;Node9 -->
<g id="edge8" class="edge">
<title>Node8&#45;&gt;Node9</title>
<path fill="none" stroke="midnightblue" d="M215.15,-84.13C194.92,-83.36 171.16,-82.46 149.25,-81.63"/>
<polygon fill="midnightblue" stroke="midnightblue" points="215.25,-87.63 225.37,-84.52 215.51,-80.64 215.25,-87.63"/>
</g>
<!-- Node10&#45;&gt;Node9 -->
<g id="edge11" class="edge">
<title>Node10&#45;&gt;Node9</title>
<path fill="none" stroke="midnightblue" d="M218.6,-55.71C193.78,-59.88 162.92,-65.07 136.62,-69.49"/>
<polygon fill="midnightblue" stroke="midnightblue" points="219.21,-59.16 228.49,-54.05 218.05,-52.26 219.21,-59.16"/>
</g>
<!-- Node11 -->
<g id="node11" class="node">
<title>Node11</title>
<g id="a_node11"><a xlink:href="wallet__tests_8cpp.html#a2a726fa52b0a343883cb50a3f68d0989" target="_top" xlink:title=" ">
<polygon fill="white" stroke="black" points="0,-31.5 0,-50.5 158,-50.5 158,-31.5 0,-31.5"/>
<text text-anchor="middle" x="79" y="-38.5" font-family="Helvetica,sans-Serif" font-size="10.00">BOOST_FIXTURE_TEST_CASE</text>
</a>
</g>
</g>
<!-- Node10&#45;&gt;Node11 -->
<g id="edge10" class="edge">
<title>Node10&#45;&gt;Node11</title>
<path fill="none" stroke="midnightblue" d="M218.45,-46.25C200.24,-45.56 178.8,-44.75 158.29,-43.97"/>
<polygon fill="midnightblue" stroke="midnightblue" points="218.36,-49.75 228.49,-46.63 218.63,-42.76 218.36,-49.75"/>
</g>
</g>
</svg>
