<?xml version="1.0" encoding="UTF-8" standalone="no"?>
<!DOCTYPE svg PUBLIC "-//W3C//DTD SVG 1.1//EN"
 "http://www.w3.org/Graphics/SVG/1.1/DTD/svg11.dtd">
<!-- Generated by graphviz version 2.38.0 (20140413.2041)
 -->
<!-- Title: SigHasLowR Pages: 1 -->
<svg width="1795pt" height="477pt"
 viewBox="0.00 0.00 1795.00 477.11" xmlns="http://www.w3.org/2000/svg" xmlns:xlink="http://www.w3.org/1999/xlink">
<g id="graph0" class="graph" transform="scale(1 1) rotate(0) translate(4 473.106)">
<title>SigHasLowR</title>
<polygon fill="white" stroke="none" points="-4,4 -4,-473.106 1791,-473.106 1791,4 -4,4"/>
<!-- Node1 -->
<g id="node1" class="node"><title>Node1</title>
<polygon fill="#bfbfbf" stroke="black" points="0,-48 0,-67 74,-67 74,-48 0,-48"/>
<text text-anchor="middle" x="37" y="-55" font-family="Helvetica,sans-Serif" font-size="10.00">SigHasLowR</text>
</g>
<!-- Node2 -->
<g id="node2" class="node"><title>Node2</title>
<g id="a_node2"><a xlink:href="class_c_key.html#adb8d6c2037396a4d4f0bc90a447613d3" target="_top" xlink:title="Create a DER&#45;serialized signature. ">
<polygon fill="white" stroke="black" points="110,-48 110,-67 176,-67 176,-48 110,-48"/>
<text text-anchor="middle" x="143" y="-55" font-family="Helvetica,sans-Serif" font-size="10.00">CKey::Sign</text>
</a>
</g>
</g>
<!-- Node1&#45;&gt;Node2 -->
<g id="edge1" class="edge"><title>Node1&#45;&gt;Node2</title>
<path fill="none" stroke="midnightblue" d="M84.1029,-57.5C92.7758,-57.5 101.67,-57.5 109.805,-57.5"/>
<polygon fill="midnightblue" stroke="midnightblue" points="84.0823,-54.0001 74.0823,-57.5 84.0822,-61.0001 84.0823,-54.0001"/>
</g>
<!-- Node3 -->
<g id="node3" class="node"><title>Node3</title>
<g id="a_node3"><a xlink:href="class_c_key.html#a3890764f7a2e5d9cdeffb3e102e4545d" target="_top" xlink:title="Verify thoroughly whether a private key and a public key match. ">
<polygon fill="white" stroke="black" points="212,-232 212,-251 318,-251 318,-232 212,-232"/>
<text text-anchor="middle" x="265" y="-239" font-family="Helvetica,sans-Serif" font-size="10.00">CKey::VerifyPubKey</text>
</a>
</g>
</g>
<!-- Node2&#45;&gt;Node3 -->
<g id="edge2" class="edge"><title>Node2&#45;&gt;Node3</title>
<path fill="none" stroke="midnightblue" d="M155.93,-75.7934C181.072,-114.344 238.747,-202.779 257.779,-231.962"/>
<polygon fill="midnightblue" stroke="midnightblue" points="158.677,-73.5977 150.283,-67.1336 152.814,-77.4216 158.677,-73.5977"/>
</g>
<!-- Node10 -->
<g id="node10" class="node"><title>Node10</title>
<g id="a_node10"><a xlink:href="class_c_key.html#abdc7d807f7a1b27ff3ad9dd5164a2273" target="_top" xlink:title="Check whether the public key corresponding to this private key is (to be) compressed. ">
<polygon fill="white" stroke="black" points="560.5,-49 560.5,-68 673.5,-68 673.5,-49 560.5,-49"/>
<text text-anchor="middle" x="617" y="-56" font-family="Helvetica,sans-Serif" font-size="10.00">CKey::IsCompressed</text>
</a>
</g>
</g>
<!-- Node2&#45;&gt;Node10 -->
<g id="edge55" class="edge"><title>Node2&#45;&gt;Node10</title>
<path fill="none" stroke="midnightblue" d="M186.172,-57.5893C271.51,-57.7701 464.659,-58.1794 560.256,-58.3819"/>
<polygon fill="midnightblue" stroke="midnightblue" points="186.079,-54.0892 176.071,-57.5679 186.064,-61.0892 186.079,-54.0892"/>
</g>
<!-- Node27 -->
<g id="node27" class="node"><title>Node27</title>
<g id="a_node27"><a xlink:href="class_mutable_transaction_signature_creator.html#ad66cfa8bc9e1222e30125c90d1ecaddf" target="_top" xlink:title="Create a singular (non&#45;script) signature. ">
<polygon fill="white" stroke="black" points="741,-0.5 741,-30.5 896,-30.5 896,-0.5 741,-0.5"/>
<text text-anchor="start" x="749" y="-18.5" font-family="Helvetica,sans-Serif" font-size="10.00">MutableTransactionSignature</text>
<text text-anchor="middle" x="818.5" y="-7.5" font-family="Helvetica,sans-Serif" font-size="10.00">Creator::CreateSig</text>
</a>
</g>
</g>
<!-- Node2&#45;&gt;Node27 -->
<g id="edge56" class="edge"><title>Node2&#45;&gt;Node27</title>
<path fill="none" stroke="midnightblue" d="M186.164,-54.8706C297.138,-47.9502 598.546,-29.1541 740.981,-20.2718"/>
<polygon fill="midnightblue" stroke="midnightblue" points="185.794,-51.3868 176.031,-55.5025 186.23,-58.3732 185.794,-51.3868"/>
</g>
<!-- Node4 -->
<g id="node4" class="node"><title>Node4</title>
<g id="a_node4"><a xlink:href="group__map_wallet.html#ga5abb589b31879b8f4bf1890c22f15f64" target="_top" xlink:title="keystore implementation Generate a new key ">
<polygon fill="white" stroke="black" points="354,-327 354,-346 493,-346 493,-327 354,-327"/>
<text text-anchor="middle" x="423.5" y="-334" font-family="Helvetica,sans-Serif" font-size="10.00">CWallet::GenerateNewKey</text>
</a>
</g>
</g>
<!-- Node3&#45;&gt;Node4 -->
<g id="edge3" class="edge"><title>Node3&#45;&gt;Node4</title>
<path fill="none" stroke="midnightblue" d="M282.86,-258.078C299.688,-273.868 326.878,-297.403 354,-312.5 364.57,-318.384 376.845,-323.23 388.06,-326.989"/>
<polygon fill="midnightblue" stroke="midnightblue" points="285.125,-255.401 275.478,-251.021 280.288,-260.461 285.125,-255.401"/>
</g>
<!-- Node5 -->
<g id="node5" class="node"><title>Node5</title>
<g id="a_node5"><a xlink:href="group__map_wallet.html#gaf72003c77abf215cc1576ab6c50125f7" target="_top" xlink:title="CWallet::DeriveNewSeed">
<polygon fill="white" stroke="black" points="357,-372 357,-391 490,-391 490,-372 357,-372"/>
<text text-anchor="middle" x="423.5" y="-379" font-family="Helvetica,sans-Serif" font-size="10.00">CWallet::DeriveNewSeed</text>
</a>
</g>
</g>
<!-- Node3&#45;&gt;Node5 -->
<g id="edge4" class="edge"><title>Node3&#45;&gt;Node5</title>
<path fill="none" stroke="midnightblue" d="M275.919,-260.022C290.134,-284.953 318.541,-329.205 354,-355.5 363.604,-362.622 375.391,-368.02 386.463,-371.999"/>
<polygon fill="midnightblue" stroke="midnightblue" points="278.937,-258.248 271.025,-251.203 272.816,-261.645 278.937,-258.248"/>
</g>
<!-- Node9 -->
<g id="node9" class="node"><title>Node9</title>
<g id="a_node9"><a xlink:href="class_c_key.html#acdb99e6886c2828bdd32c64a3c9e4e18" target="_top" xlink:title="Load private key and check that public key matches. ">
<polygon fill="white" stroke="black" points="389.5,-124 389.5,-143 457.5,-143 457.5,-124 389.5,-124"/>
<text text-anchor="middle" x="423.5" y="-131" font-family="Helvetica,sans-Serif" font-size="10.00">CKey::Load</text>
</a>
</g>
</g>
<!-- Node3&#45;&gt;Node9 -->
<g id="edge8" class="edge"><title>Node3&#45;&gt;Node9</title>
<path fill="none" stroke="midnightblue" d="M283.005,-224.276C299.939,-207.763 327.207,-182.851 354,-165.5 367.772,-156.581 384.426,-148.743 397.865,-143.056"/>
<polygon fill="midnightblue" stroke="midnightblue" points="280.213,-222.115 275.569,-231.638 285.138,-227.089 280.213,-222.115"/>
</g>
<!-- Node3&#45;&gt;Node10 -->
<g id="edge41" class="edge"><title>Node3&#45;&gt;Node10</title>
<path fill="none" stroke="midnightblue" d="M273.688,-222.439C286.127,-194.158 313.441,-141.522 354,-114.5 387.242,-92.3532 493.807,-74.717 560.349,-65.5075"/>
<polygon fill="midnightblue" stroke="midnightblue" points="270.458,-221.091 269.781,-231.664 276.903,-223.821 270.458,-221.091"/>
</g>
<!-- Node14 -->
<g id="node14" class="node"><title>Node14</title>
<g id="a_node14"><a xlink:href="wallet__tests_8cpp.html#a73ce3a42e0b56b2e4516e55871d8590e" target="_top" xlink:title="dumpwallet">
<polygon fill="white" stroke="black" points="982.5,-144 982.5,-163 1053.5,-163 1053.5,-144 982.5,-144"/>
<text text-anchor="middle" x="1018" y="-151" font-family="Helvetica,sans-Serif" font-size="10.00">dumpwallet</text>
</a>
</g>
</g>
<!-- Node3&#45;&gt;Node14 -->
<g id="edge54" class="edge"><title>Node3&#45;&gt;Node14</title>
<path fill="none" stroke="midnightblue" d="M328.203,-248.705C467.855,-263.668 801.461,-292.296 896,-236.5 924.106,-219.912 905.807,-191.968 932,-172.5 946.442,-161.766 965.824,-156.906 982.433,-154.778"/>
<polygon fill="midnightblue" stroke="midnightblue" points="328.409,-245.206 318.09,-247.608 327.655,-252.166 328.409,-245.206"/>
</g>
<!-- Node30 -->
<g id="node30" class="node"><title>Node30</title>
<g id="a_node30"><a xlink:href="key_8h.html#a55cc40f04bf887c1000667caccb0684a" target="_top" xlink:title="Check that required EC support is available at runtime. ">
<polygon fill="white" stroke="black" points="366,-175 366,-194 481,-194 481,-175 366,-175"/>
<text text-anchor="middle" x="423.5" y="-182" font-family="Helvetica,sans-Serif" font-size="10.00">ECC_InitSanityCheck</text>
</a>
</g>
</g>
<!-- Node3&#45;&gt;Node30 -->
<g id="edge38" class="edge"><title>Node3&#45;&gt;Node30</title>
<path fill="none" stroke="midnightblue" d="M300.58,-228.334C316.773,-222.22 336.343,-214.903 354,-208.5 367.386,-203.646 382.302,-198.401 394.788,-194.056"/>
<polygon fill="midnightblue" stroke="midnightblue" points="299.095,-225.154 290.981,-231.967 301.573,-231.701 299.095,-225.154"/>
</g>
<!-- Node33 -->
<g id="node33" class="node"><title>Node33</title>
<g id="a_node33"><a xlink:href="class_c_crypter.html#ac5a813381a88db619331a9d5492cd339" target="_top" xlink:title="CCrypter::Decrypt">
<polygon fill="white" stroke="black" points="967,-88 967,-107 1069,-107 1069,-88 967,-88"/>
<text text-anchor="middle" x="1018" y="-95" font-family="Helvetica,sans-Serif" font-size="10.00">CCrypter::Decrypt</text>
</a>
</g>
</g>
<!-- Node3&#45;&gt;Node33 -->
<g id="edge42" class="edge"><title>Node3&#45;&gt;Node33</title>
<path fill="none" stroke="midnightblue" d="M328.379,-240.81C414.12,-238.799 572.803,-231.252 705,-203.5 816.974,-179.993 944.418,-128.518 994.817,-107.123"/>
<polygon fill="midnightblue" stroke="midnightblue" points="328.213,-237.313 318.291,-241.029 328.365,-244.311 328.213,-237.313"/>
</g>
<!-- Node38 -->
<g id="node38" class="node"><title>Node38</title>
<g id="a_node38"><a xlink:href="rpcwallet_8cpp.html#a2f46e2bb304dda9a197b5a68db6106f7" target="_top" xlink:title="importprivkey">
<polygon fill="white" stroke="black" points="382.5,-429 382.5,-448 464.5,-448 464.5,-429 382.5,-429"/>
<text text-anchor="middle" x="423.5" y="-436" font-family="Helvetica,sans-Serif" font-size="10.00">importprivkey</text>
</a>
</g>
</g>
<!-- Node3&#45;&gt;Node38 -->
<g id="edge50" class="edge"><title>Node3&#45;&gt;Node38</title>
<path fill="none" stroke="midnightblue" d="M272.669,-260.894C284.604,-293.248 312.33,-358.789 354,-400.5 366.399,-412.911 383.696,-422.463 397.806,-428.886"/>
<polygon fill="midnightblue" stroke="midnightblue" points="275.893,-259.514 269.229,-251.277 269.301,-261.871 275.893,-259.514"/>
</g>
<!-- Node39 -->
<g id="node39" class="node"><title>Node39</title>
<g id="a_node39"><a xlink:href="wallet__tests_8cpp.html#a8c64ef6e0ced69002923098229448758" target="_top" xlink:title="importwallet">
<polygon fill="white" stroke="black" points="781,-327 781,-346 856,-346 856,-327 781,-327"/>
<text text-anchor="middle" x="818.5" y="-334" font-family="Helvetica,sans-Serif" font-size="10.00">importwallet</text>
</a>
</g>
</g>
<!-- Node3&#45;&gt;Node39 -->
<g id="edge52" class="edge"><title>Node3&#45;&gt;Node39</title>
<path fill="none" stroke="midnightblue" d="M296.523,-254.892C313.213,-261.715 334.42,-269.586 354,-274.5 509.913,-313.626 701.916,-329.318 780.915,-334.42"/>
<polygon fill="midnightblue" stroke="midnightblue" points="297.842,-251.65 287.265,-251.026 295.144,-258.109 297.842,-251.65"/>
</g>
<!-- Node6 -->
<g id="node6" class="node"><title>Node6</title>
<g id="a_node6"><a xlink:href="rpcwallet_8cpp.html#a61c7a90d1b36888fe11b751e746e18c0" target="_top" xlink:title="sethdseed">
<polygon fill="white" stroke="black" points="1394.5,-296 1394.5,-315 1461.5,-315 1461.5,-296 1394.5,-296"/>
<text text-anchor="middle" x="1428" y="-303" font-family="Helvetica,sans-Serif" font-size="10.00">sethdseed</text>
</a>
</g>
</g>
<!-- Node5&#45;&gt;Node6 -->
<g id="edge5" class="edge"><title>Node5&#45;&gt;Node6</title>
<path fill="none" stroke="midnightblue" d="M500.599,-383.001C626.491,-384.671 885.879,-384.674 1104,-362.5 1211.07,-351.615 1336.1,-325.734 1394.21,-312.933"/>
<polygon fill="midnightblue" stroke="midnightblue" points="500.35,-379.497 490.302,-382.857 500.252,-386.496 500.35,-379.497"/>
</g>
<!-- Node8 -->
<g id="node8" class="node"><title>Node8</title>
<g id="a_node8"><a xlink:href="psbt__wallet__tests_8cpp.html#a0508d4d7e942faaa45c8e03ed7151dc4" target="_top" xlink:title="BOOST_AUTO_TEST_CASE">
<polygon fill="white" stroke="black" points="545.5,-410 545.5,-429 688.5,-429 688.5,-410 545.5,-410"/>
<text text-anchor="middle" x="617" y="-417" font-family="Helvetica,sans-Serif" font-size="10.00">BOOST_AUTO_TEST_CASE</text>
</a>
</g>
</g>
<!-- Node5&#45;&gt;Node8 -->
<g id="edge7" class="edge"><title>Node5&#45;&gt;Node8</title>
<path fill="none" stroke="midnightblue" d="M482.646,-393.038C509.959,-398.458 542.126,-404.841 568.024,-409.98"/>
<polygon fill="midnightblue" stroke="midnightblue" points="483.314,-389.602 472.824,-391.089 481.951,-396.469 483.314,-389.602"/>
</g>
<!-- Node7 -->
<g id="node7" class="node"><title>Node7</title>
<g id="a_node7"><a xlink:href="rpcwallet_8cpp.html#afca55ac7a3c6c274b8b7b3e6eab9cd86" target="_top" xlink:title="walletcreatefundedpsbt">
<polygon fill="white" stroke="black" points="1540,-315 1540,-334 1668,-334 1668,-315 1540,-315"/>
<text text-anchor="middle" x="1604" y="-322" font-family="Helvetica,sans-Serif" font-size="10.00">walletcreatefundedpsbt</text>
</a>
</g>
</g>
<!-- Node6&#45;&gt;Node7 -->
<g id="edge6" class="edge"><title>Node6&#45;&gt;Node7</title>
<path fill="none" stroke="midnightblue" d="M1471.7,-310.162C1492.18,-312.399 1517.13,-315.124 1539.76,-317.595"/>
<polygon fill="midnightblue" stroke="midnightblue" points="1472.05,-306.68 1461.73,-309.074 1471.29,-313.639 1472.05,-306.68"/>
</g>
<!-- Node9&#45;&gt;Node10 -->
<g id="edge9" class="edge"><title>Node9&#45;&gt;Node10</title>
<path fill="none" stroke="midnightblue" d="M467.155,-121.452C475.987,-118.168 485.024,-114.193 493,-109.5 511.451,-98.6443 509.922,-87.2109 529,-77.5 538.645,-72.5908 549.52,-68.9458 560.231,-66.2405"/>
<polygon fill="midnightblue" stroke="midnightblue" points="466.001,-118.147 457.71,-124.744 468.305,-124.757 466.001,-118.147"/>
</g>
<!-- Node29 -->
<g id="node29" class="node"><title>Node29</title>
<g id="a_node29"><a xlink:href="class_c_wallet_scan_state.html#a8012f2b0c336f7ee0b842d875f4fa4e6" target="_top" xlink:title="CWalletScanState::CWallet\lScanState">
<polygon fill="white" stroke="black" points="546,-87.5 546,-117.5 688,-117.5 688,-87.5 546,-87.5"/>
<text text-anchor="start" x="554" y="-105.5" font-family="Helvetica,sans-Serif" font-size="10.00">CWalletScanState::CWallet</text>
<text text-anchor="middle" x="617" y="-94.5" font-family="Helvetica,sans-Serif" font-size="10.00">ScanState</text>
</a>
</g>
</g>
<!-- Node9&#45;&gt;Node29 -->
<g id="edge37" class="edge"><title>Node9&#45;&gt;Node29</title>
<path fill="none" stroke="midnightblue" d="M467.975,-126.462C490.95,-122.743 519.715,-118.087 545.763,-113.87"/>
<polygon fill="midnightblue" stroke="midnightblue" points="467.169,-123.047 457.857,-128.1 468.288,-129.957 467.169,-123.047"/>
</g>
<!-- Node11 -->
<g id="node11" class="node"><title>Node11</title>
<g id="a_node11"><a xlink:href="class_c_key.html#a1bae09b7447a951d8fc3328b7dcc3a3f" target="_top" xlink:title="Derive BIP32 child key. ">
<polygon fill="white" stroke="black" points="780.5,-88 780.5,-107 856.5,-107 856.5,-88 780.5,-88"/>
<text text-anchor="middle" x="818.5" y="-95" font-family="Helvetica,sans-Serif" font-size="10.00">CKey::Derive</text>
</a>
</g>
</g>
<!-- Node10&#45;&gt;Node11 -->
<g id="edge10" class="edge"><title>Node10&#45;&gt;Node11</title>
<path fill="none" stroke="midnightblue" d="M683.848,-64.9817C721.025,-71.4321 765.332,-80.671 792.432,-87.9407"/>
<polygon fill="midnightblue" stroke="midnightblue" points="684.016,-61.4604 673.572,-63.2403 682.847,-68.362 684.016,-61.4604"/>
</g>
<!-- Node12 -->
<g id="node12" class="node"><title>Node12</title>
<g id="a_node12"><a xlink:href="key__io_8h.html#a675809f738ce55f530880389fa330f66" target="_top" xlink:title="EncodeSecret">
<polygon fill="white" stroke="black" points="777,-50 777,-69 860,-69 860,-50 777,-50"/>
<text text-anchor="middle" x="818.5" y="-57" font-family="Helvetica,sans-Serif" font-size="10.00">EncodeSecret</text>
</a>
</g>
</g>
<!-- Node10&#45;&gt;Node12 -->
<g id="edge12" class="edge"><title>Node10&#45;&gt;Node12</title>
<path fill="none" stroke="midnightblue" d="M683.775,-58.8297C714.47,-58.9836 750.04,-59.1619 776.775,-59.2959"/>
<polygon fill="midnightblue" stroke="midnightblue" points="683.589,-55.3288 673.572,-58.7786 683.554,-62.3287 683.589,-55.3288"/>
</g>
<!-- Node16 -->
<g id="node16" class="node"><title>Node16</title>
<g id="a_node16"><a xlink:href="keystore_8h.html#a2325e8758e074d2f2cd564ba7da2d0e8" target="_top" xlink:title="Checks if a CKey is in the given CKeyStore compressed or otherwise. ">
<polygon fill="white" stroke="black" points="789.5,-289 789.5,-308 847.5,-308 847.5,-289 789.5,-289"/>
<text text-anchor="middle" x="818.5" y="-296" font-family="Helvetica,sans-Serif" font-size="10.00">HaveKey</text>
</a>
</g>
</g>
<!-- Node10&#45;&gt;Node16 -->
<g id="edge17" class="edge"><title>Node10&#45;&gt;Node16</title>
<path fill="none" stroke="midnightblue" d="M683.296,-66.01C691.096,-68.7994 698.562,-72.5295 705,-77.5 742.656,-106.573 799.138,-250.151 813.878,-288.867"/>
<polygon fill="midnightblue" stroke="midnightblue" points="684.25,-62.6417 673.663,-63.0538 682.196,-69.3337 684.25,-62.6417"/>
</g>
<!-- Node10&#45;&gt;Node27 -->
<g id="edge35" class="edge"><title>Node10&#45;&gt;Node27</title>
<path fill="none" stroke="midnightblue" d="M672.319,-46.7922C695.614,-41.7712 723.113,-35.8441 747.878,-30.5063"/>
<polygon fill="midnightblue" stroke="midnightblue" points="671.314,-43.4284 662.276,-48.9569 672.789,-50.2713 671.314,-43.4284"/>
</g>
<!-- Node11&#45;&gt;Node10 -->
<g id="edge11" class="edge"><title>Node11&#45;&gt;Node10</title>
<path fill="none" stroke="midnightblue" d="M770.369,-94.1206C730.41,-87.8455 674.668,-76.5518 642.863,-68.0043"/>
<polygon fill="midnightblue" stroke="midnightblue" points="770.008,-97.6057 780.419,-95.6401 771.054,-90.6844 770.008,-97.6057"/>
</g>
<!-- Node13 -->
<g id="node13" class="node"><title>Node13</title>
<g id="a_node13"><a xlink:href="rpcwallet_8cpp.html#ab3f51d8e8fe414dbf91c37485e481ae3" target="_top" xlink:title="dumpprivkey">
<polygon fill="white" stroke="black" points="1189,-50 1189,-69 1267,-69 1267,-50 1189,-50"/>
<text text-anchor="middle" x="1228" y="-57" font-family="Helvetica,sans-Serif" font-size="10.00">dumpprivkey</text>
</a>
</g>
</g>
<!-- Node12&#45;&gt;Node13 -->
<g id="edge13" class="edge"><title>Node12&#45;&gt;Node13</title>
<path fill="none" stroke="midnightblue" d="M870.235,-59.5C953.02,-59.5 1115.3,-59.5 1188.98,-59.5"/>
<polygon fill="midnightblue" stroke="midnightblue" points="870.062,-56.0001 860.062,-59.5 870.062,-63.0001 870.062,-56.0001"/>
</g>
<!-- Node12&#45;&gt;Node14 -->
<g id="edge15" class="edge"><title>Node12&#45;&gt;Node14</title>
<path fill="none" stroke="midnightblue" d="M870.022,-66.2992C879.219,-69.0846 888.319,-73 896,-78.5 920.056,-95.7266 907.743,-117.558 932,-134.5 946.628,-144.717 965.83,-149.552 982.282,-151.796"/>
<polygon fill="midnightblue" stroke="midnightblue" points="870.627,-62.84 860.067,-63.6987 868.858,-69.6127 870.627,-62.84"/>
</g>
<!-- Node13&#45;&gt;Node7 -->
<g id="edge14" class="edge"><title>Node13&#45;&gt;Node7</title>
<path fill="none" stroke="midnightblue" d="M1277.33,-48.5833C1336.67,-38.1206 1437.58,-30.2192 1504,-78.5 1585.92,-138.054 1600.15,-276.927 1602.54,-314.807"/>
<polygon fill="midnightblue" stroke="midnightblue" points="1276.66,-45.1483 1267.46,-50.4144 1277.93,-52.0308 1276.66,-45.1483"/>
</g>
<!-- Node15 -->
<g id="node15" class="node"><title>Node15</title>
<g id="a_node15"><a xlink:href="wallet__tests_8cpp.html#a2a726fa52b0a343883cb50a3f68d0989" target="_top" xlink:title="BOOST_FIXTURE_TEST_CASE">
<polygon fill="white" stroke="black" points="1151,-216 1151,-235 1305,-235 1305,-216 1151,-216"/>
<text text-anchor="middle" x="1228" y="-223" font-family="Helvetica,sans-Serif" font-size="10.00">BOOST_FIXTURE_TEST_CASE</text>
</a>
</g>
</g>
<!-- Node14&#45;&gt;Node15 -->
<g id="edge16" class="edge"><title>Node14&#45;&gt;Node15</title>
<path fill="none" stroke="midnightblue" d="M1063.81,-159.249C1077.21,-162.08 1091.62,-166.281 1104,-172.5 1122.87,-181.976 1121.26,-193.763 1140,-203.5 1150.09,-208.745 1161.5,-212.787 1172.66,-215.887"/>
<polygon fill="midnightblue" stroke="midnightblue" points="1064.29,-155.777 1053.81,-157.34 1062.98,-162.653 1064.29,-155.777"/>
</g>
<!-- Node16&#45;&gt;Node6 -->
<g id="edge34" class="edge"><title>Node16&#45;&gt;Node6</title>
<path fill="none" stroke="midnightblue" d="M857.654,-298.94C968.661,-300.219 1290.18,-303.923 1394.15,-305.121"/>
<polygon fill="midnightblue" stroke="midnightblue" points="857.622,-295.439 847.583,-298.824 857.542,-302.439 857.622,-295.439"/>
</g>
<!-- Node17 -->
<g id="node17" class="node"><title>Node17</title>
<g id="a_node17"><a xlink:href="group__map_wallet.html#gafb01fcc10d890174b2db560a7f27b58a" target="_top" xlink:title="CWallet::DeriveNewChildKey">
<polygon fill="white" stroke="black" points="944,-220 944,-239 1092,-239 1092,-220 944,-220"/>
<text text-anchor="middle" x="1018" y="-227" font-family="Helvetica,sans-Serif" font-size="10.00">CWallet::DeriveNewChildKey</text>
</a>
</g>
</g>
<!-- Node16&#45;&gt;Node17 -->
<g id="edge18" class="edge"><title>Node16&#45;&gt;Node17</title>
<path fill="none" stroke="midnightblue" d="M857.368,-288.454C869.887,-284.652 883.743,-279.915 896,-274.5 912.943,-267.014 914.951,-260.741 932,-253.5 945.69,-247.685 961.209,-242.832 975.206,-239.045"/>
<polygon fill="midnightblue" stroke="midnightblue" points="856.281,-285.125 847.67,-291.298 858.251,-291.842 856.281,-285.125"/>
</g>
<!-- Node18 -->
<g id="node18" class="node"><title>Node18</title>
<g id="a_node18"><a xlink:href="group___actions.html#gaa869ffae7560168064463f3157633a8b" target="_top" xlink:title="Reserves a key from the keypool and sets nIndex to its index. ">
<polygon fill="white" stroke="black" points="932,-182 932,-201 1104,-201 1104,-182 932,-182"/>
<text text-anchor="middle" x="1018" y="-189" font-family="Helvetica,sans-Serif" font-size="10.00">CWallet::ReserveKeyFromKeyPool</text>
</a>
</g>
</g>
<!-- Node16&#45;&gt;Node18 -->
<g id="edge19" class="edge"><title>Node16&#45;&gt;Node18</title>
<path fill="none" stroke="midnightblue" d="M857.583,-292.517C870.811,-288.979 885.057,-283.371 896,-274.5 921.352,-253.948 905.807,-229.968 932,-210.5 937.219,-206.621 943.082,-203.51 949.227,-201.017"/>
<polygon fill="midnightblue" stroke="midnightblue" points="856.667,-289.137 847.737,-294.839 858.274,-295.95 856.667,-289.137"/>
</g>
<!-- Node19 -->
<g id="node19" class="node"><title>Node19</title>
<g id="a_node19"><a xlink:href="class_c_crypto_key_store.html#a1cb434078a9ea686c0acf168d2c81252" target="_top" xlink:title="CCryptoKeyStore::IsCrypted">
<polygon fill="white" stroke="black" points="943.5,-334 943.5,-353 1092.5,-353 1092.5,-334 943.5,-334"/>
<text text-anchor="middle" x="1018" y="-341" font-family="Helvetica,sans-Serif" font-size="10.00">CCryptoKeyStore::IsCrypted</text>
</a>
</g>
</g>
<!-- Node16&#45;&gt;Node19 -->
<g id="edge20" class="edge"><title>Node16&#45;&gt;Node19</title>
<path fill="none" stroke="midnightblue" d="M857.711,-307.206C891.34,-314.869 940.22,-326.006 974.949,-333.919"/>
<polygon fill="midnightblue" stroke="midnightblue" points="858.325,-303.756 847.797,-304.947 856.769,-310.582 858.325,-303.756"/>
</g>
<!-- Node20 -->
<g id="node20" class="node"><title>Node20</title>
<g id="a_node20"><a xlink:href="rpcwallet_8h.html#ad35d45071ce42aaef4b74910e36eda5a" target="_top" xlink:title="HelpRequiringPassphrase">
<polygon fill="white" stroke="black" points="1159.5,-391 1159.5,-410 1296.5,-410 1296.5,-391 1159.5,-391"/>
<text text-anchor="middle" x="1228" y="-398" font-family="Helvetica,sans-Serif" font-size="10.00">HelpRequiringPassphrase</text>
</a>
</g>
</g>
<!-- Node19&#45;&gt;Node20 -->
<g id="edge21" class="edge"><title>Node19&#45;&gt;Node20</title>
<path fill="none" stroke="midnightblue" d="M1063.7,-355.75C1102.13,-366.281 1156.78,-381.258 1192.07,-390.928"/>
<polygon fill="midnightblue" stroke="midnightblue" points="1064.38,-352.308 1053.81,-353.041 1062.53,-359.059 1064.38,-352.308"/>
</g>
<!-- Node24 -->
<g id="node24" class="node"><title>Node24</title>
<g id="a_node24"><a xlink:href="rpcwallet_8cpp.html#a74b85c92ee6a84277c73b74f2e212bff" target="_top" xlink:title="listtransactions">
<polygon fill="white" stroke="black" points="1383.5,-258 1383.5,-277 1472.5,-277 1472.5,-258 1383.5,-258"/>
<text text-anchor="middle" x="1428" y="-265" font-family="Helvetica,sans-Serif" font-size="10.00">listtransactions</text>
</a>
</g>
</g>
<!-- Node19&#45;&gt;Node24 -->
<g id="edge33" class="edge"><title>Node19&#45;&gt;Node24</title>
<path fill="none" stroke="midnightblue" d="M1080.34,-332.073C1163.65,-316.556 1310.5,-289.2 1383.41,-275.62"/>
<polygon fill="midnightblue" stroke="midnightblue" points="1079.45,-328.679 1070.26,-333.952 1080.73,-335.561 1079.45,-328.679"/>
</g>
<!-- Node20&#45;&gt;Node6 -->
<g id="edge30" class="edge"><title>Node20&#45;&gt;Node6</title>
<path fill="none" stroke="midnightblue" d="M1295.77,-387.358C1302.94,-384.436 1309.85,-380.864 1316,-376.5 1338.92,-360.232 1328.91,-340.526 1352,-324.5 1364.36,-315.923 1380.26,-311.214 1394.24,-308.63"/>
<polygon fill="midnightblue" stroke="midnightblue" points="1294.08,-384.248 1285.88,-390.955 1296.47,-390.827 1294.08,-384.248"/>
</g>
<!-- Node21 -->
<g id="node21" class="node"><title>Node21</title>
<g id="a_node21"><a xlink:href="rawtransaction_8cpp.html#a5b2abfea4548c97e780cfae39f9ac11b" target="_top" xlink:title="signrawtransaction">
<polygon fill="white" stroke="black" points="1550.5,-448 1550.5,-467 1657.5,-467 1657.5,-448 1550.5,-448"/>
<text text-anchor="middle" x="1604" y="-455" font-family="Helvetica,sans-Serif" font-size="10.00">signrawtransaction</text>
</a>
</g>
</g>
<!-- Node20&#45;&gt;Node21 -->
<g id="edge22" class="edge"><title>Node20&#45;&gt;Node21</title>
<path fill="none" stroke="midnightblue" d="M1263.54,-413.451C1287.9,-422.022 1321.51,-432.712 1352,-438.5 1419.62,-451.337 1499.04,-455.57 1550.15,-456.927"/>
<polygon fill="midnightblue" stroke="midnightblue" points="1264.62,-410.12 1254.02,-410.047 1262.26,-416.711 1264.62,-410.12"/>
</g>
<!-- Node23 -->
<g id="node23" class="node"><title>Node23</title>
<g id="a_node23"><a xlink:href="rpcwallet_8cpp.html#a7424e87562c3781c88662ebfb6ef7e4a" target="_top" xlink:title="GetLabelDestination">
<polygon fill="white" stroke="black" points="1371,-372 1371,-391 1485,-391 1485,-372 1371,-372"/>
<text text-anchor="middle" x="1428" y="-379" font-family="Helvetica,sans-Serif" font-size="10.00">GetLabelDestination</text>
</a>
</g>
</g>
<!-- Node20&#45;&gt;Node23 -->
<g id="edge24" class="edge"><title>Node20&#45;&gt;Node23</title>
<path fill="none" stroke="midnightblue" d="M1306.65,-393.049C1328.09,-390.991 1350.94,-388.799 1370.9,-386.884"/>
<polygon fill="midnightblue" stroke="midnightblue" points="1306.21,-389.575 1296.59,-394.014 1306.88,-396.543 1306.21,-389.575"/>
</g>
<!-- Node20&#45;&gt;Node24 -->
<g id="edge25" class="edge"><title>Node20&#45;&gt;Node24</title>
<path fill="none" stroke="midnightblue" d="M1242.98,-382.856C1263.94,-357.615 1306,-311.496 1352,-286.5 1361.56,-281.305 1372.58,-277.495 1383.18,-274.714"/>
<polygon fill="midnightblue" stroke="midnightblue" points="1240.07,-380.881 1236.47,-390.844 1245.5,-385.302 1240.07,-380.881"/>
</g>
<!-- Node25 -->
<g id="node25" class="node"><title>Node25</title>
<g id="a_node25"><a xlink:href="rpcwallet_8h.html#a7c13054932c9e3b351bd6277fa9361d7" target="_top" xlink:title="signrawtransactionwithwallet">
<polygon fill="white" stroke="black" points="1352,-410 1352,-429 1504,-429 1504,-410 1352,-410"/>
<text text-anchor="middle" x="1428" y="-417" font-family="Helvetica,sans-Serif" font-size="10.00">signrawtransactionwithwallet</text>
</a>
</g>
</g>
<!-- Node20&#45;&gt;Node25 -->
<g id="edge27" class="edge"><title>Node20&#45;&gt;Node25</title>
<path fill="none" stroke="midnightblue" d="M1306.75,-407.961C1321.61,-409.386 1337.13,-410.877 1351.91,-412.294"/>
<polygon fill="midnightblue" stroke="midnightblue" points="1306.88,-404.457 1296.59,-406.986 1306.21,-411.425 1306.88,-404.457"/>
</g>
<!-- Node26 -->
<g id="node26" class="node"><title>Node26</title>
<g id="a_node26"><a xlink:href="rpcwallet_8cpp.html#a9c99ceacf389a1ce91977c6f7ffa5022" target="_top" xlink:title="walletprocesspsbt">
<polygon fill="white" stroke="black" points="1377,-334 1377,-353 1479,-353 1479,-334 1377,-334"/>
<text text-anchor="middle" x="1428" y="-341" font-family="Helvetica,sans-Serif" font-size="10.00">walletprocesspsbt</text>
</a>
</g>
</g>
<!-- Node20&#45;&gt;Node26 -->
<g id="edge31" class="edge"><title>Node20&#45;&gt;Node26</title>
<path fill="none" stroke="midnightblue" d="M1276.93,-388.217C1289.71,-384.689 1303.44,-380.662 1316,-376.5 1332.3,-371.099 1335.65,-367.729 1352,-362.5 1362.75,-359.063 1374.52,-355.836 1385.48,-353.051"/>
<polygon fill="midnightblue" stroke="midnightblue" points="1275.67,-384.934 1266.94,-390.933 1277.5,-391.689 1275.67,-384.934"/>
</g>
<!-- Node22 -->
<g id="node22" class="node"><title>Node22</title>
<g id="a_node22"><a xlink:href="rawtransaction_8cpp.html#a6b6a0c0d5bd5b55553ea48b3da2e796c" target="_top" xlink:title="converttopsbt">
<polygon fill="white" stroke="black" points="1704,-448 1704,-467 1787,-467 1787,-448 1704,-448"/>
<text text-anchor="middle" x="1745.5" y="-455" font-family="Helvetica,sans-Serif" font-size="10.00">converttopsbt</text>
</a>
</g>
</g>
<!-- Node21&#45;&gt;Node22 -->
<g id="edge23" class="edge"><title>Node21&#45;&gt;Node22</title>
<path fill="none" stroke="midnightblue" d="M1667.9,-457.5C1680.11,-457.5 1692.61,-457.5 1703.87,-457.5"/>
<polygon fill="midnightblue" stroke="midnightblue" points="1667.74,-454 1657.74,-457.5 1667.74,-461 1667.74,-454"/>
</g>
<!-- Node24&#45;&gt;Node7 -->
<g id="edge26" class="edge"><title>Node24&#45;&gt;Node7</title>
<path fill="none" stroke="midnightblue" d="M1480.44,-279.672C1488.37,-281.796 1496.44,-284.1 1504,-286.5 1530.67,-294.965 1560.57,-306.774 1580.46,-314.972"/>
<polygon fill="midnightblue" stroke="midnightblue" points="1481.07,-276.219 1470.51,-277.083 1479.3,-282.993 1481.07,-276.219"/>
</g>
<!-- Node25&#45;&gt;Node7 -->
<g id="edge29" class="edge"><title>Node25&#45;&gt;Node7</title>
<path fill="none" stroke="midnightblue" d="M1488.51,-406.838C1493.85,-404.984 1499.09,-402.88 1504,-400.5 1540.46,-382.824 1576.48,-350.419 1593.25,-334.235"/>
<polygon fill="midnightblue" stroke="midnightblue" points="1487.3,-403.549 1478.83,-409.913 1489.42,-410.22 1487.3,-403.549"/>
</g>
<!-- Node25&#45;&gt;Node21 -->
<g id="edge28" class="edge"><title>Node25&#45;&gt;Node21</title>
<path fill="none" stroke="midnightblue" d="M1482.81,-431.253C1507.42,-436.626 1536.19,-442.909 1559.41,-447.98"/>
<polygon fill="midnightblue" stroke="midnightblue" points="1483.42,-427.803 1472.91,-429.089 1481.93,-434.642 1483.42,-427.803"/>
</g>
<!-- Node26&#45;&gt;Node7 -->
<g id="edge32" class="edge"><title>Node26&#45;&gt;Node7</title>
<path fill="none" stroke="midnightblue" d="M1489.28,-336.917C1505.6,-335.136 1523.3,-333.203 1539.77,-331.404"/>
<polygon fill="midnightblue" stroke="midnightblue" points="1488.89,-333.44 1479.33,-338.004 1489.65,-340.398 1488.89,-333.44"/>
</g>
<!-- Node28 -->
<g id="node28" class="node"><title>Node28</title>
<g id="a_node28"><a xlink:href="sign_8h.html#ac425c440cbc90e69519067760dc68df7" target="_top" xlink:title="SignSignature">
<polygon fill="white" stroke="black" points="976,-6 976,-25 1060,-25 1060,-6 976,-6"/>
<text text-anchor="middle" x="1018" y="-13" font-family="Helvetica,sans-Serif" font-size="10.00">SignSignature</text>
</a>
</g>
</g>
<!-- Node27&#45;&gt;Node28 -->
<g id="edge36" class="edge"><title>Node27&#45;&gt;Node28</title>
<path fill="none" stroke="midnightblue" d="M906.399,-15.5C930.511,-15.5 955.579,-15.5 975.741,-15.5"/>
<polygon fill="midnightblue" stroke="midnightblue" points="906.141,-12.0001 896.141,-15.5 906.141,-19.0001 906.141,-12.0001"/>
</g>
<!-- Node31 -->
<g id="node31" class="node"><title>Node31</title>
<g id="a_node31"><a xlink:href="struct_c_importing_now.html#a0e449b23ac612ff3ff491d989fd08a18" target="_top" xlink:title="CImportingNow::~CImportingNow">
<polygon fill="white" stroke="black" points="529,-137 529,-156 705,-156 705,-137 529,-137"/>
<text text-anchor="middle" x="617" y="-144" font-family="Helvetica,sans-Serif" font-size="10.00">CImportingNow::~CImportingNow</text>
</a>
</g>
</g>
<!-- Node30&#45;&gt;Node31 -->
<g id="edge39" class="edge"><title>Node30&#45;&gt;Node31</title>
<path fill="none" stroke="midnightblue" d="M482.646,-172.962C509.959,-167.542 542.126,-161.159 568.024,-156.02"/>
<polygon fill="midnightblue" stroke="midnightblue" points="481.951,-169.531 472.824,-174.911 483.314,-176.398 481.951,-169.531"/>
</g>
<!-- Node32 -->
<g id="node32" class="node"><title>Node32</title>
<g id="a_node32"><a xlink:href="struct_c_ext_key.html#aff923572d1c4e4708790cb0ecc922a24" target="_top" xlink:title="CExtKey::Unserialize">
<polygon fill="white" stroke="black" points="560.5,-175 560.5,-194 673.5,-194 673.5,-175 560.5,-175"/>
<text text-anchor="middle" x="617" y="-182" font-family="Helvetica,sans-Serif" font-size="10.00">CExtKey::Unserialize</text>
</a>
</g>
</g>
<!-- Node30&#45;&gt;Node32 -->
<g id="edge40" class="edge"><title>Node30&#45;&gt;Node32</title>
<path fill="none" stroke="midnightblue" d="M491.361,-184.5C513.93,-184.5 538.86,-184.5 560.456,-184.5"/>
<polygon fill="midnightblue" stroke="midnightblue" points="491.179,-181 481.179,-184.5 491.179,-188 491.179,-181"/>
</g>
<!-- Node33&#45;&gt;Node33 -->
<g id="edge47" class="edge"><title>Node33&#45;&gt;Node33</title>
<path fill="none" stroke="midnightblue" d="M980.875,-115.004C980.881,-120.836 993.256,-125.5 1018,-125.5 1053.19,-125.5 1063.36,-116.065 1048.52,-107.257"/>
<polygon fill="midnightblue" stroke="midnightblue" points="983.656,-117.137 987.482,-107.257 978.33,-112.594 983.656,-117.137"/>
</g>
<!-- Node34 -->
<g id="node34" class="node"><title>Node34</title>
<g id="a_node34"><a xlink:href="group__map_wallet.html#ga002c61a2b74f2c46063340c568e6cc1b" target="_top" xlink:title="CWallet::Unlock">
<polygon fill="white" stroke="black" points="1183.5,-128 1183.5,-147 1272.5,-147 1272.5,-128 1183.5,-128"/>
<text text-anchor="middle" x="1228" y="-135" font-family="Helvetica,sans-Serif" font-size="10.00">CWallet::Unlock</text>
</a>
</g>
</g>
<!-- Node33&#45;&gt;Node34 -->
<g id="edge43" class="edge"><title>Node33&#45;&gt;Node34</title>
<path fill="none" stroke="midnightblue" d="M1078.67,-108.976C1112.11,-115.406 1153.07,-123.283 1183.47,-129.128"/>
<polygon fill="midnightblue" stroke="midnightblue" points="1079.04,-105.482 1068.56,-107.03 1077.72,-112.356 1079.04,-105.482"/>
</g>
<!-- Node35 -->
<g id="node35" class="node"><title>Node35</title>
<g id="a_node35"><a xlink:href="group__map_wallet.html#ga4abcec3066e7c462f4564c159fc15031" target="_top" xlink:title="CWallet::ChangeWalletPassphrase">
<polygon fill="white" stroke="black" points="1140,-175 1140,-194 1316,-194 1316,-175 1140,-175"/>
<text text-anchor="middle" x="1228" y="-182" font-family="Helvetica,sans-Serif" font-size="10.00">CWallet::ChangeWalletPassphrase</text>
</a>
</g>
</g>
<!-- Node33&#45;&gt;Node35 -->
<g id="edge45" class="edge"><title>Node33&#45;&gt;Node35</title>
<path fill="none" stroke="midnightblue" d="M1052.62,-110.876C1068.45,-117.491 1087.45,-125.891 1104,-134.5 1120.64,-143.151 1122.96,-148.684 1140,-156.5 1156.15,-163.908 1174.83,-170.193 1190.72,-174.92"/>
<polygon fill="midnightblue" stroke="midnightblue" points="1053.81,-107.578 1043.23,-107.002 1051.14,-114.05 1053.81,-107.578"/>
</g>
<!-- Node36 -->
<g id="node36" class="node"><title>Node36</title>
<g id="a_node36"><a xlink:href="class_test_crypter.html#a93c08804ea02ced9541291535625590d" target="_top" xlink:title="TestCrypter::TestDecrypt">
<polygon fill="white" stroke="black" points="1161.5,-88 1161.5,-107 1294.5,-107 1294.5,-88 1161.5,-88"/>
<text text-anchor="middle" x="1228" y="-95" font-family="Helvetica,sans-Serif" font-size="10.00">TestCrypter::TestDecrypt</text>
</a>
</g>
</g>
<!-- Node33&#45;&gt;Node36 -->
<g id="edge48" class="edge"><title>Node33&#45;&gt;Node36</title>
<path fill="none" stroke="midnightblue" d="M1079.42,-97.5C1105.06,-97.5 1135.02,-97.5 1161.22,-97.5"/>
<polygon fill="midnightblue" stroke="midnightblue" points="1079.09,-94.0001 1069.09,-97.5 1079.09,-101 1079.09,-94.0001"/>
</g>
<!-- Node34&#45;&gt;Node24 -->
<g id="edge44" class="edge"><title>Node34&#45;&gt;Node24</title>
<path fill="none" stroke="midnightblue" d="M1281.12,-150.235C1293.01,-154.224 1305.29,-159.263 1316,-165.5 1360.56,-191.443 1402.27,-237.86 1419.13,-257.878"/>
<polygon fill="midnightblue" stroke="midnightblue" points="1281.86,-146.797 1271.27,-147.126 1279.75,-153.473 1281.86,-146.797"/>
</g>
<!-- Node35&#45;&gt;Node24 -->
<g id="edge46" class="edge"><title>Node35&#45;&gt;Node24</title>
<path fill="none" stroke="midnightblue" d="M1286.17,-196.738C1296.25,-199.521 1306.54,-202.776 1316,-206.5 1352.42,-220.839 1391.86,-244.729 1412.51,-257.956"/>
<polygon fill="midnightblue" stroke="midnightblue" points="1286.76,-193.273 1276.2,-194.112 1284.98,-200.043 1286.76,-193.273"/>
</g>
<!-- Node37 -->
<g id="node37" class="node"><title>Node37</title>
<g id="a_node37"><a xlink:href="wallet__crypto__tests_8cpp.html#aee84e10c9cfc1d150e3e60eab1245ce4" target="_top" xlink:title="BOOST_AUTO_TEST_CASE">
<polygon fill="white" stroke="black" points="1356.5,-88 1356.5,-107 1499.5,-107 1499.5,-88 1356.5,-88"/>
<text text-anchor="middle" x="1428" y="-95" font-family="Helvetica,sans-Serif" font-size="10.00">BOOST_AUTO_TEST_CASE</text>
</a>
</g>
</g>
<!-- Node36&#45;&gt;Node37 -->
<g id="edge49" class="edge"><title>Node36&#45;&gt;Node37</title>
<path fill="none" stroke="midnightblue" d="M1305.03,-97.5C1321.92,-97.5 1339.76,-97.5 1356.42,-97.5"/>
<polygon fill="midnightblue" stroke="midnightblue" points="1304.66,-94.0001 1294.66,-97.5 1304.66,-101 1304.66,-94.0001"/>
</g>
<!-- Node38&#45;&gt;Node7 -->
<g id="edge51" class="edge"><title>Node38&#45;&gt;Node7</title>
<path fill="none" stroke="midnightblue" d="M474.701,-442.482C549.384,-448.053 694.196,-457.5 817.5,-457.5 817.5,-457.5 817.5,-457.5 1229,-457.5 1351.51,-457.5 1394.35,-493.147 1504,-438.5 1551.63,-414.765 1585.97,-356.989 1598.15,-334.084"/>
<polygon fill="midnightblue" stroke="midnightblue" points="474.873,-438.985 464.638,-441.723 474.346,-445.965 474.873,-438.985"/>
</g>
<!-- Node39&#45;&gt;Node15 -->
<g id="edge53" class="edge"><title>Node39&#45;&gt;Node15</title>
<path fill="none" stroke="midnightblue" d="M865.872,-325.201C875.825,-322.715 886.273,-320.059 896,-317.5 1005.3,-288.742 1134.16,-252.148 1193.73,-235.077"/>
<polygon fill="midnightblue" stroke="midnightblue" points="864.991,-321.814 856.13,-327.621 866.679,-328.607 864.991,-321.814"/>
</g>
</g>
</svg>
