<?xml version="1.0" encoding="UTF-8" standalone="no"?>
<!DOCTYPE svg PUBLIC "-//W3C//DTD SVG 1.1//EN"
 "http://www.w3.org/Graphics/SVG/1.1/DTD/svg11.dtd">
<!-- Generated by graphviz version 2.38.0 (20140413.2041)
 -->
<!-- Title: src/key_io.h Pages: 1 -->
<svg width="3992pt" height="95pt"
 viewBox="0.00 0.00 3991.50 95.00" xmlns="http://www.w3.org/2000/svg" xmlns:xlink="http://www.w3.org/1999/xlink">
<g id="graph0" class="graph" transform="scale(1 1) rotate(0) translate(4 91)">
<title>src/key_io.h</title>
<polygon fill="white" stroke="none" points="-4,4 -4,-91 3987.5,-91 3987.5,4 -4,4"/>
<!-- Node1 -->
<g id="node1" class="node"><title>Node1</title>
<polygon fill="#bfbfbf" stroke="black" points="2071.5,-67.5 2071.5,-86.5 2144.5,-86.5 2144.5,-67.5 2071.5,-67.5"/>
<text text-anchor="middle" x="2108" y="-74.5" font-family="Helvetica,sans-Serif" font-size="10.00">src/key_io.h</text>
</g>
<!-- Node2 -->
<g id="node2" class="node"><title>Node2</title>
<g id="a_node2"><a xlink:href="wallet__balance_8cpp.html" target="_top" xlink:title="src/bench/wallet_balance.cpp">
<polygon fill="white" stroke="black" points="0,-6 0,-25 156,-25 156,-6 0,-6"/>
<text text-anchor="middle" x="78" y="-13" font-family="Helvetica,sans-Serif" font-size="10.00">src/bench/wallet_balance.cpp</text>
</a>
</g>
</g>
<!-- Node1&#45;&gt;Node2 -->
<g id="edge1" class="edge"><title>Node1&#45;&gt;Node2</title>
<path fill="none" stroke="midnightblue" d="M2061.23,-75.8189C1803.06,-74.6826 549.964,-67.3527 165,-31 150.822,-29.6612 135.464,-27.3815 121.654,-25.0212"/>
<polygon fill="midnightblue" stroke="midnightblue" points="2061.37,-79.3195 2071.38,-75.8627 2061.4,-72.3195 2061.37,-79.3195"/>
</g>
<!-- Node3 -->
<g id="node3" class="node"><title>Node3</title>
<g id="a_node3"><a xlink:href="bitcoin-tx_8cpp.html" target="_top" xlink:title="src/bitcoin&#45;tx.cpp">
<polygon fill="white" stroke="black" points="174,-6 174,-25 272,-25 272,-6 174,-6"/>
<text text-anchor="middle" x="223" y="-13" font-family="Helvetica,sans-Serif" font-size="10.00">src/bitcoin&#45;tx.cpp</text>
</a>
</g>
</g>
<!-- Node1&#45;&gt;Node3 -->
<g id="edge2" class="edge"><title>Node1&#45;&gt;Node3</title>
<path fill="none" stroke="midnightblue" d="M2061.21,-76.2424C1812.15,-77.3212 639.965,-79.6844 281,-31 271.435,-29.7027 261.165,-27.4344 251.965,-25.0717"/>
<polygon fill="midnightblue" stroke="midnightblue" points="2061.38,-79.7418 2071.37,-76.1969 2061.35,-72.7419 2061.38,-79.7418"/>
</g>
<!-- Node4 -->
<g id="node4" class="node"><title>Node4</title>
<g id="a_node4"><a xlink:href="core__write_8cpp.html" target="_top" xlink:title="src/core_write.cpp">
<polygon fill="white" stroke="black" points="290.5,-6 290.5,-25 393.5,-25 393.5,-6 290.5,-6"/>
<text text-anchor="middle" x="342" y="-13" font-family="Helvetica,sans-Serif" font-size="10.00">src/core_write.cpp</text>
</a>
</g>
</g>
<!-- Node1&#45;&gt;Node4 -->
<g id="edge3" class="edge"><title>Node1&#45;&gt;Node4</title>
<path fill="none" stroke="midnightblue" d="M2061.29,-76.0977C1822.44,-76.3946 735.911,-75.2477 402,-31 392.12,-29.6908 381.5,-27.4192 371.982,-25.0572"/>
<polygon fill="midnightblue" stroke="midnightblue" points="2061.38,-79.5976 2071.37,-76.0836 2061.37,-72.5976 2061.38,-79.5976"/>
</g>
<!-- Node5 -->
<g id="node5" class="node"><title>Node5</title>
<g id="a_node5"><a xlink:href="httprpc_8cpp.html" target="_top" xlink:title="src/httprpc.cpp">
<polygon fill="white" stroke="black" points="411.5,-6 411.5,-25 500.5,-25 500.5,-6 411.5,-6"/>
<text text-anchor="middle" x="456" y="-13" font-family="Helvetica,sans-Serif" font-size="10.00">src/httprpc.cpp</text>
</a>
</g>
</g>
<!-- Node1&#45;&gt;Node5 -->
<g id="edge4" class="edge"><title>Node1&#45;&gt;Node5</title>
<path fill="none" stroke="midnightblue" d="M2061.27,-76.1885C1831.48,-76.8862 819.948,-77.2298 509,-31 500.225,-29.6953 490.831,-27.425 482.425,-25.0628"/>
<polygon fill="midnightblue" stroke="midnightblue" points="2061.32,-79.6885 2071.31,-76.1563 2061.29,-72.6885 2061.32,-79.6885"/>
</g>
<!-- Node6 -->
<g id="node6" class="node"><title>Node6</title>
<g id="a_node6"><a xlink:href="key__io_8cpp.html" target="_top" xlink:title="src/key_io.cpp">
<polygon fill="white" stroke="black" points="518,-6 518,-25 602,-25 602,-6 518,-6"/>
<text text-anchor="middle" x="560" y="-13" font-family="Helvetica,sans-Serif" font-size="10.00">src/key_io.cpp</text>
</a>
</g>
</g>
<!-- Node1&#45;&gt;Node6 -->
<g id="edge5" class="edge"><title>Node1&#45;&gt;Node6</title>
<path fill="none" stroke="midnightblue" d="M2061.06,-76.1802C1839.78,-76.7863 899.548,-76.5822 610,-31 601.697,-29.6929 592.828,-27.4218 584.9,-25.0597"/>
<polygon fill="midnightblue" stroke="midnightblue" points="2061.36,-79.6794 2071.35,-76.1499 2061.34,-72.6794 2061.36,-79.6794"/>
</g>
<!-- Node7 -->
<g id="node7" class="node"><title>Node7</title>
<g id="a_node7"><a xlink:href="addresstablemodel_8cpp.html" target="_top" xlink:title="src/qt/addresstablemodel.cpp">
<polygon fill="white" stroke="black" points="619.5,-6 619.5,-25 778.5,-25 778.5,-6 619.5,-6"/>
<text text-anchor="middle" x="699" y="-13" font-family="Helvetica,sans-Serif" font-size="10.00">src/qt/addresstablemodel.cpp</text>
</a>
</g>
</g>
<!-- Node1&#45;&gt;Node7 -->
<g id="edge6" class="edge"><title>Node1&#45;&gt;Node7</title>
<path fill="none" stroke="midnightblue" d="M2061.17,-75.2177C1856.8,-71.6786 1041.9,-56.2348 787,-31 772.824,-29.5966 757.472,-27.3292 743.62,-25.0001"/>
<polygon fill="midnightblue" stroke="midnightblue" points="2061.21,-78.7189 2071.27,-75.3915 2061.33,-71.7199 2061.21,-78.7189"/>
</g>
<!-- Node8 -->
<g id="node8" class="node"><title>Node8</title>
<g id="a_node8"><a xlink:href="bitcoinaddressvalidator_8cpp.html" target="_top" xlink:title="src/qt/bitcoinaddressvalidator.cpp">
<polygon fill="white" stroke="black" points="796.5,-6 796.5,-25 973.5,-25 973.5,-6 796.5,-6"/>
<text text-anchor="middle" x="885" y="-13" font-family="Helvetica,sans-Serif" font-size="10.00">src/qt/bitcoinaddressvalidator.cpp</text>
</a>
</g>
</g>
<!-- Node1&#45;&gt;Node8 -->
<g id="edge7" class="edge"><title>Node1&#45;&gt;Node8</title>
<path fill="none" stroke="midnightblue" d="M2061.43,-75.9182C1907.34,-75.2674 1400.11,-70.0871 983,-31 967.503,-29.5478 950.715,-27.3102 935.486,-25.024"/>
<polygon fill="midnightblue" stroke="midnightblue" points="2061.47,-79.4183 2071.48,-75.9562 2061.5,-72.4183 2061.47,-79.4183"/>
</g>
<!-- Node9 -->
<g id="node9" class="node"><title>Node9</title>
<g id="a_node9"><a xlink:href="coincontroldialog_8cpp.html" target="_top" xlink:title="src/qt/coincontroldialog.cpp">
<polygon fill="white" stroke="black" points="992,-6 992,-25 1140,-25 1140,-6 992,-6"/>
<text text-anchor="middle" x="1066" y="-13" font-family="Helvetica,sans-Serif" font-size="10.00">src/qt/coincontroldialog.cpp</text>
</a>
</g>
</g>
<!-- Node1&#45;&gt;Node9 -->
<g id="edge8" class="edge"><title>Node1&#45;&gt;Node9</title>
<path fill="none" stroke="midnightblue" d="M2060.97,-75.8884C1921.43,-75.1078 1497.76,-69.4916 1149,-31 1135.91,-29.5558 1121.77,-27.3349 1108.93,-25.0619"/>
<polygon fill="midnightblue" stroke="midnightblue" points="2061.27,-79.3899 2071.29,-75.9401 2061.3,-72.39 2061.27,-79.3899"/>
</g>
<!-- Node10 -->
<g id="node10" class="node"><title>Node10</title>
<g id="a_node10"><a xlink:href="guiutil_8cpp.html" target="_top" xlink:title="src/qt/guiutil.cpp">
<polygon fill="white" stroke="black" points="1158.5,-6 1158.5,-25 1253.5,-25 1253.5,-6 1158.5,-6"/>
<text text-anchor="middle" x="1206" y="-13" font-family="Helvetica,sans-Serif" font-size="10.00">src/qt/guiutil.cpp</text>
</a>
</g>
</g>
<!-- Node1&#45;&gt;Node10 -->
<g id="edge9" class="edge"><title>Node1&#45;&gt;Node10</title>
<path fill="none" stroke="midnightblue" d="M2060.95,-74.7384C1906.81,-70.4101 1417.95,-55.0884 1262,-31 1252.97,-29.6049 1243.28,-27.3694 1234.55,-25.0673"/>
<polygon fill="midnightblue" stroke="midnightblue" points="2060.95,-78.2395 2071.04,-75.0193 2061.14,-71.2422 2060.95,-78.2395"/>
</g>
<!-- Node11 -->
<g id="node11" class="node"><title>Node11</title>
<g id="a_node11"><a xlink:href="paymentserver_8cpp.html" target="_top" xlink:title="src/qt/paymentserver.cpp">
<polygon fill="white" stroke="black" points="1271.5,-6 1271.5,-25 1410.5,-25 1410.5,-6 1271.5,-6"/>
<text text-anchor="middle" x="1341" y="-13" font-family="Helvetica,sans-Serif" font-size="10.00">src/qt/paymentserver.cpp</text>
</a>
</g>
</g>
<!-- Node1&#45;&gt;Node11 -->
<g id="edge10" class="edge"><title>Node1&#45;&gt;Node11</title>
<path fill="none" stroke="midnightblue" d="M2061.01,-74.8512C1949.3,-71.7026 1659.25,-61.0689 1419,-31 1406.84,-29.4776 1393.7,-27.2612 1381.74,-25.0174"/>
<polygon fill="midnightblue" stroke="midnightblue" points="2061.16,-78.3567 2071.25,-75.133 2061.35,-71.3593 2061.16,-78.3567"/>
</g>
<!-- Node12 -->
<g id="node12" class="node"><title>Node12</title>
<g id="a_node12"><a xlink:href="sendcoinsdialog_8cpp.html" target="_top" xlink:title="src/qt/sendcoinsdialog.cpp">
<polygon fill="white" stroke="black" points="1428.5,-6 1428.5,-25 1571.5,-25 1571.5,-6 1428.5,-6"/>
<text text-anchor="middle" x="1500" y="-13" font-family="Helvetica,sans-Serif" font-size="10.00">src/qt/sendcoinsdialog.cpp</text>
</a>
</g>
</g>
<!-- Node1&#45;&gt;Node12 -->
<g id="edge11" class="edge"><title>Node1&#45;&gt;Node12</title>
<path fill="none" stroke="midnightblue" d="M2061.26,-73.5005C1968.97,-68.238 1756.94,-54.5222 1580,-31 1567.97,-29.4003 1554.99,-27.2391 1543.06,-25.074"/>
<polygon fill="midnightblue" stroke="midnightblue" points="2061.2,-77.003 2071.38,-74.0714 2061.6,-70.0141 2061.2,-77.003"/>
</g>
<!-- Node13 -->
<g id="node13" class="node"><title>Node13</title>
<g id="a_node13"><a xlink:href="signverifymessagedialog_8cpp.html" target="_top" xlink:title="src/qt/signverifymessagedialog.cpp">
<polygon fill="white" stroke="black" points="1589.5,-6 1589.5,-25 1774.5,-25 1774.5,-6 1589.5,-6"/>
<text text-anchor="middle" x="1682" y="-13" font-family="Helvetica,sans-Serif" font-size="10.00">src/qt/signverifymessagedialog.cpp</text>
</a>
</g>
</g>
<!-- Node1&#45;&gt;Node13 -->
<g id="edge12" class="edge"><title>Node1&#45;&gt;Node13</title>
<path fill="none" stroke="midnightblue" d="M2061.4,-69.6224C1998.28,-60.9671 1882.11,-44.9759 1783,-31 1769.41,-29.083 1754.79,-26.9979 1741.01,-25.022"/>
<polygon fill="midnightblue" stroke="midnightblue" points="2061.05,-73.1075 2071.44,-70.9981 2062,-66.1724 2061.05,-73.1075"/>
</g>
<!-- Node14 -->
<g id="node14" class="node"><title>Node14</title>
<g id="a_node14"><a xlink:href="transactiondesc_8cpp.html" target="_top" xlink:title="src/qt/transactiondesc.cpp">
<polygon fill="white" stroke="black" points="1792.5,-6 1792.5,-25 1935.5,-25 1935.5,-6 1792.5,-6"/>
<text text-anchor="middle" x="1864" y="-13" font-family="Helvetica,sans-Serif" font-size="10.00">src/qt/transactiondesc.cpp</text>
</a>
</g>
</g>
<!-- Node1&#45;&gt;Node14 -->
<g id="edge13" class="edge"><title>Node1&#45;&gt;Node14</title>
<path fill="none" stroke="midnightblue" d="M2063.06,-65.0412C2015.69,-53.49 1942.08,-35.5394 1898.89,-25.0091"/>
<polygon fill="midnightblue" stroke="midnightblue" points="2062.5,-68.5063 2073.04,-67.4751 2064.15,-61.7056 2062.5,-68.5063"/>
</g>
<!-- Node15 -->
<g id="node15" class="node"><title>Node15</title>
<g id="a_node15"><a xlink:href="transactionrecord_8cpp.html" target="_top" xlink:title="src/qt/transactionrecord.cpp">
<polygon fill="white" stroke="black" points="1954,-6 1954,-25 2106,-25 2106,-6 1954,-6"/>
<text text-anchor="middle" x="2030" y="-13" font-family="Helvetica,sans-Serif" font-size="10.00">src/qt/transactionrecord.cpp</text>
</a>
</g>
</g>
<!-- Node1&#45;&gt;Node15 -->
<g id="edge14" class="edge"><title>Node1&#45;&gt;Node15</title>
<path fill="none" stroke="midnightblue" d="M2088.72,-61.2938C2073.76,-49.8803 2053.54,-34.4577 2041.15,-25.0091"/>
<polygon fill="midnightblue" stroke="midnightblue" points="2086.75,-64.1928 2096.82,-67.4751 2091,-58.6272 2086.75,-64.1928"/>
</g>
<!-- Node16 -->
<g id="node16" class="node"><title>Node16</title>
<g id="a_node16"><a xlink:href="walletmodel_8cpp.html" target="_top" xlink:title="src/qt/walletmodel.cpp">
<polygon fill="white" stroke="black" points="2124,-6 2124,-25 2248,-25 2248,-6 2124,-6"/>
<text text-anchor="middle" x="2186" y="-13" font-family="Helvetica,sans-Serif" font-size="10.00">src/qt/walletmodel.cpp</text>
</a>
</g>
</g>
<!-- Node1&#45;&gt;Node16 -->
<g id="edge15" class="edge"><title>Node1&#45;&gt;Node16</title>
<path fill="none" stroke="midnightblue" d="M2127.28,-61.2938C2142.24,-49.8803 2162.46,-34.4577 2174.85,-25.0091"/>
<polygon fill="midnightblue" stroke="midnightblue" points="2125,-58.6272 2119.18,-67.4751 2129.25,-64.1928 2125,-58.6272"/>
</g>
<!-- Node17 -->
<g id="node17" class="node"><title>Node17</title>
<g id="a_node17"><a xlink:href="blockchain_8cpp.html" target="_top" xlink:title="src/rpc/blockchain.cpp">
<polygon fill="white" stroke="black" points="2266,-6 2266,-25 2388,-25 2388,-6 2266,-6"/>
<text text-anchor="middle" x="2327" y="-13" font-family="Helvetica,sans-Serif" font-size="10.00">src/rpc/blockchain.cpp</text>
</a>
</g>
</g>
<!-- Node1&#45;&gt;Node17 -->
<g id="edge16" class="edge"><title>Node1&#45;&gt;Node17</title>
<path fill="none" stroke="midnightblue" d="M2149.14,-64.8225C2191.68,-53.2645 2257.17,-35.4732 2295.68,-25.0091"/>
<polygon fill="midnightblue" stroke="midnightblue" points="2148.11,-61.4756 2139.38,-67.4751 2149.95,-68.2307 2148.11,-61.4756"/>
</g>
<!-- Node18 -->
<g id="node18" class="node"><title>Node18</title>
<g id="a_node18"><a xlink:href="mining_8cpp.html" target="_top" xlink:title="src/rpc/mining.cpp">
<polygon fill="white" stroke="black" points="2406,-6 2406,-25 2510,-25 2510,-6 2406,-6"/>
<text text-anchor="middle" x="2458" y="-13" font-family="Helvetica,sans-Serif" font-size="10.00">src/rpc/mining.cpp</text>
</a>
</g>
</g>
<!-- Node1&#45;&gt;Node18 -->
<g id="edge17" class="edge"><title>Node1&#45;&gt;Node18</title>
<path fill="none" stroke="midnightblue" d="M2154.85,-69.8629C2212.18,-62.0876 2312.1,-47.6737 2397,-31 2405.87,-29.2589 2415.39,-27.1226 2424.22,-25.0304"/>
<polygon fill="midnightblue" stroke="midnightblue" points="2154.1,-66.4326 2144.66,-71.2366 2155.04,-73.3699 2154.1,-66.4326"/>
</g>
<!-- Node19 -->
<g id="node19" class="node"><title>Node19</title>
<g id="a_node19"><a xlink:href="misc_8cpp.html" target="_top" xlink:title="src/rpc/misc.cpp">
<polygon fill="white" stroke="black" points="2528.5,-6 2528.5,-25 2623.5,-25 2623.5,-6 2528.5,-6"/>
<text text-anchor="middle" x="2576" y="-13" font-family="Helvetica,sans-Serif" font-size="10.00">src/rpc/misc.cpp</text>
</a>
</g>
</g>
<!-- Node1&#45;&gt;Node19 -->
<g id="edge18" class="edge"><title>Node1&#45;&gt;Node19</title>
<path fill="none" stroke="midnightblue" d="M2154.8,-73.0189C2231.4,-67.6608 2388.13,-54.6901 2519,-31 2527.74,-29.4176 2537.12,-27.2361 2545.7,-25.0454"/>
<polygon fill="midnightblue" stroke="midnightblue" points="2154.27,-69.547 2144.53,-73.7248 2154.75,-76.5305 2154.27,-69.547"/>
</g>
<!-- Node20 -->
<g id="node20" class="node"><title>Node20</title>
<g id="a_node20"><a xlink:href="rawtransaction_8cpp.html" target="_top" xlink:title="src/rpc/rawtransaction.cpp">
<polygon fill="white" stroke="black" points="2641.5,-6 2641.5,-25 2784.5,-25 2784.5,-6 2641.5,-6"/>
<text text-anchor="middle" x="2713" y="-13" font-family="Helvetica,sans-Serif" font-size="10.00">src/rpc/rawtransaction.cpp</text>
</a>
</g>
</g>
<!-- Node1&#45;&gt;Node20 -->
<g id="edge19" class="edge"><title>Node1&#45;&gt;Node20</title>
<path fill="none" stroke="midnightblue" d="M2154.82,-73.4649C2246.77,-68.1602 2457.28,-54.403 2633,-31 2645.03,-29.3974 2658.01,-27.2352 2669.94,-25.0702"/>
<polygon fill="midnightblue" stroke="midnightblue" points="2154.51,-69.9768 2144.73,-74.0407 2154.91,-76.9654 2154.51,-69.9768"/>
</g>
<!-- Node21 -->
<g id="node21" class="node"><title>Node21</title>
<g id="a_node21"><a xlink:href="rawtransaction__util_8cpp.html" target="_top" xlink:title="src/rpc/rawtransaction\l_util.cpp">
<polygon fill="white" stroke="black" points="2803,-0.5 2803,-30.5 2925,-30.5 2925,-0.5 2803,-0.5"/>
<text text-anchor="start" x="2811" y="-18.5" font-family="Helvetica,sans-Serif" font-size="10.00">src/rpc/rawtransaction</text>
<text text-anchor="middle" x="2864" y="-7.5" font-family="Helvetica,sans-Serif" font-size="10.00">_util.cpp</text>
</a>
</g>
</g>
<!-- Node1&#45;&gt;Node21 -->
<g id="edge20" class="edge"><title>Node1&#45;&gt;Node21</title>
<path fill="none" stroke="midnightblue" d="M2154.83,-75.1649C2266.14,-72.6936 2555.11,-63.4174 2794,-31 2796.83,-30.6162 2799.71,-30.1842 2802.62,-29.716"/>
<polygon fill="midnightblue" stroke="midnightblue" points="2154.54,-71.6701 2144.62,-75.3834 2154.69,-78.6685 2154.54,-71.6701"/>
</g>
<!-- Node22 -->
<g id="node22" class="node"><title>Node22</title>
<g id="a_node22"><a xlink:href="server_8cpp.html" target="_top" xlink:title="src/rpc/server.cpp">
<polygon fill="white" stroke="black" points="2943.5,-6 2943.5,-25 3044.5,-25 3044.5,-6 2943.5,-6"/>
<text text-anchor="middle" x="2994" y="-13" font-family="Helvetica,sans-Serif" font-size="10.00">src/rpc/server.cpp</text>
</a>
</g>
</g>
<!-- Node1&#45;&gt;Node22 -->
<g id="edge21" class="edge"><title>Node1&#45;&gt;Node22</title>
<path fill="none" stroke="midnightblue" d="M2155,-76.4319C2281.58,-76.9511 2639.96,-74.1686 2934,-31 2943.65,-29.5834 2954.02,-27.3418 2963.38,-25.0406"/>
<polygon fill="midnightblue" stroke="midnightblue" points="2154.89,-72.9314 2144.88,-76.3811 2154.86,-79.9313 2154.89,-72.9314"/>
</g>
<!-- Node23 -->
<g id="node23" class="node"><title>Node23</title>
<g id="a_node23"><a xlink:href="util_8cpp.html" target="_top" xlink:title="src/rpc/util.cpp">
<polygon fill="white" stroke="black" points="3063,-6 3063,-25 3149,-25 3149,-6 3063,-6"/>
<text text-anchor="middle" x="3106" y="-13" font-family="Helvetica,sans-Serif" font-size="10.00">src/rpc/util.cpp</text>
</a>
</g>
</g>
<!-- Node1&#45;&gt;Node23 -->
<g id="edge22" class="edge"><title>Node1&#45;&gt;Node23</title>
<path fill="none" stroke="midnightblue" d="M2154.95,-75.1601C2320.69,-71.9774 2877.88,-59.3736 3054,-31 3062.51,-29.6285 3071.62,-27.3701 3079.8,-25.0394"/>
<polygon fill="midnightblue" stroke="midnightblue" points="2154.54,-71.6672 2144.6,-75.3562 2154.67,-78.6659 2154.54,-71.6672"/>
</g>
<!-- Node24 -->
<g id="node24" class="node"><title>Node24</title>
<g id="a_node24"><a xlink:href="descriptor_8cpp.html" target="_top" xlink:title="src/script/descriptor.cpp">
<polygon fill="white" stroke="black" points="3167.5,-6 3167.5,-25 3298.5,-25 3298.5,-6 3167.5,-6"/>
<text text-anchor="middle" x="3233" y="-13" font-family="Helvetica,sans-Serif" font-size="10.00">src/script/descriptor.cpp</text>
</a>
</g>
</g>
<!-- Node1&#45;&gt;Node24 -->
<g id="edge23" class="edge"><title>Node1&#45;&gt;Node24</title>
<path fill="none" stroke="midnightblue" d="M2154.99,-76.459C2303.01,-77.3768 2772.66,-76.2547 3158,-31 3169.99,-29.5924 3182.93,-27.3533 3194.63,-25.0517"/>
<polygon fill="midnightblue" stroke="midnightblue" points="2154.91,-72.9585 2144.89,-76.39 2154.87,-79.9584 2154.91,-72.9585"/>
</g>
<!-- Node25 -->
<g id="node25" class="node"><title>Node25</title>
<g id="a_node25"><a xlink:href="rpcdump_8cpp.html" target="_top" xlink:title="src/wallet/rpcdump.cpp">
<polygon fill="white" stroke="black" points="3316.5,-6 3316.5,-25 3443.5,-25 3443.5,-6 3316.5,-6"/>
<text text-anchor="middle" x="3380" y="-13" font-family="Helvetica,sans-Serif" font-size="10.00">src/wallet/rpcdump.cpp</text>
</a>
</g>
</g>
<!-- Node1&#45;&gt;Node25 -->
<g id="edge24" class="edge"><title>Node1&#45;&gt;Node25</title>
<path fill="none" stroke="midnightblue" d="M2154.57,-75.2583C2346.71,-72.0427 3078.54,-58.2275 3308,-31 3319.65,-29.6177 3332.22,-27.3563 3343.56,-25.0261"/>
<polygon fill="midnightblue" stroke="midnightblue" points="2154.46,-71.7595 2144.52,-75.425 2154.57,-78.7586 2154.46,-71.7595"/>
</g>
<!-- Node26 -->
<g id="node26" class="node"><title>Node26</title>
<g id="a_node26"><a xlink:href="rpcwallet_8cpp.html" target="_top" xlink:title="src/wallet/rpcwallet.cpp">
<polygon fill="white" stroke="black" points="3462,-6 3462,-25 3588,-25 3588,-6 3462,-6"/>
<text text-anchor="middle" x="3525" y="-13" font-family="Helvetica,sans-Serif" font-size="10.00">src/wallet/rpcwallet.cpp</text>
</a>
</g>
</g>
<!-- Node1&#45;&gt;Node26 -->
<g id="edge25" class="edge"><title>Node1&#45;&gt;Node26</title>
<path fill="none" stroke="midnightblue" d="M2155.02,-75.4702C2362.06,-72.9768 3193.68,-61.2399 3453,-31 3464.65,-29.6412 3477.23,-27.3864 3488.56,-25.055"/>
<polygon fill="midnightblue" stroke="midnightblue" points="2154.75,-71.973 2144.79,-75.5919 2154.83,-78.9726 2154.75,-71.973"/>
</g>
<!-- Node27 -->
<g id="node27" class="node"><title>Node27</title>
<g id="a_node27"><a xlink:href="psbt__wallet__tests_8cpp.html" target="_top" xlink:title="src/wallet/test/psbt\l_wallet_tests.cpp">
<polygon fill="white" stroke="black" points="3606.5,-0.5 3606.5,-30.5 3713.5,-30.5 3713.5,-0.5 3606.5,-0.5"/>
<text text-anchor="start" x="3614.5" y="-18.5" font-family="Helvetica,sans-Serif" font-size="10.00">src/wallet/test/psbt</text>
<text text-anchor="middle" x="3660" y="-7.5" font-family="Helvetica,sans-Serif" font-size="10.00">_wallet_tests.cpp</text>
</a>
</g>
</g>
<!-- Node1&#45;&gt;Node27 -->
<g id="edge26" class="edge"><title>Node1&#45;&gt;Node27</title>
<path fill="none" stroke="midnightblue" d="M2154.97,-75.8194C2375.35,-74.7823 3308.2,-68.2336 3597,-31 3600.01,-30.6125 3603.08,-30.1455 3606.17,-29.62"/>
<polygon fill="midnightblue" stroke="midnightblue" points="2154.71,-72.3205 2144.72,-75.866 2154.74,-79.3204 2154.71,-72.3205"/>
</g>
<!-- Node28 -->
<g id="node28" class="node"><title>Node28</title>
<g id="a_node28"><a xlink:href="wallet_2wallet_8cpp.html" target="_top" xlink:title="src/wallet/wallet.cpp">
<polygon fill="white" stroke="black" points="3731.5,-6 3731.5,-25 3842.5,-25 3842.5,-6 3731.5,-6"/>
<text text-anchor="middle" x="3787" y="-13" font-family="Helvetica,sans-Serif" font-size="10.00">src/wallet/wallet.cpp</text>
</a>
</g>
</g>
<!-- Node1&#45;&gt;Node28 -->
<g id="edge27" class="edge"><title>Node1&#45;&gt;Node28</title>
<path fill="none" stroke="midnightblue" d="M2154.78,-75.927C2385.96,-75.3785 3407.81,-70.7106 3723,-31 3733.51,-29.6756 3744.83,-27.3998 3754.99,-25.0387"/>
<polygon fill="midnightblue" stroke="midnightblue" points="2154.68,-72.4271 2144.69,-75.9495 2154.7,-79.4271 2154.68,-72.4271"/>
</g>
<!-- Node29 -->
<g id="node29" class="node"><title>Node29</title>
<g id="a_node29"><a xlink:href="walletdb_8cpp.html" target="_top" xlink:title="src/wallet/walletdb.cpp">
<polygon fill="white" stroke="black" points="3860.5,-6 3860.5,-25 3983.5,-25 3983.5,-6 3860.5,-6"/>
<text text-anchor="middle" x="3922" y="-13" font-family="Helvetica,sans-Serif" font-size="10.00">src/wallet/walletdb.cpp</text>
</a>
</g>
</g>
<!-- Node1&#45;&gt;Node29 -->
<g id="edge28" class="edge"><title>Node1&#45;&gt;Node29</title>
<path fill="none" stroke="midnightblue" d="M2154.94,-75.9221C2397.36,-75.3473 3509.58,-70.562 3852,-31 3863.47,-29.6753 3875.84,-27.3995 3886.95,-25.0384"/>
<polygon fill="midnightblue" stroke="midnightblue" points="2154.7,-72.4225 2144.71,-75.9451 2154.71,-79.4225 2154.7,-72.4225"/>
</g>
</g>
</svg>
