<?xml version="1.0" encoding="UTF-8" standalone="no"?>
<!DOCTYPE svg PUBLIC "-//W3C//DTD SVG 1.1//EN"
 "http://www.w3.org/Graphics/SVG/1.1/DTD/svg11.dtd">
<!-- Generated by graphviz version 2.38.0 (20140413.2041)
 -->
<!-- Title: HaveKey Pages: 1 -->
<svg width="990pt" height="417pt"
 viewBox="0.00 0.00 990.00 417.00" xmlns="http://www.w3.org/2000/svg" xmlns:xlink="http://www.w3.org/1999/xlink">
<g id="graph0" class="graph" transform="scale(1 1) rotate(0) translate(4 413)">
<title>HaveKey</title>
<polygon fill="white" stroke="none" points="-4,4 -4,-413 986,-413 986,4 -4,4"/>
<!-- Node1 -->
<g id="node1" class="node"><title>Node1</title>
<polygon fill="#bfbfbf" stroke="black" points="0,-332.5 0,-351.5 58,-351.5 58,-332.5 0,-332.5"/>
<text text-anchor="middle" x="29" y="-339.5" font-family="Helvetica,sans-Serif" font-size="10.00">HaveKey</text>
</g>
<!-- Node2 -->
<g id="node2" class="node"><title>Node2</title>
<g id="a_node2"><a xlink:href="group__map_wallet.html#gafb01fcc10d890174b2db560a7f27b58a" target="_top" xlink:title="CWallet::DeriveNewChildKey">
<polygon fill="white" stroke="black" points="106,-389.5 106,-408.5 254,-408.5 254,-389.5 106,-389.5"/>
<text text-anchor="middle" x="180" y="-396.5" font-family="Helvetica,sans-Serif" font-size="10.00">CWallet::DeriveNewChildKey</text>
</a>
</g>
</g>
<!-- Node1&#45;&gt;Node2 -->
<g id="edge1" class="edge"><title>Node1&#45;&gt;Node2</title>
<path fill="none" stroke="midnightblue" d="M51.994,-357.418C63.9458,-365.176 79.2609,-374.149 94,-380 103.557,-383.794 114.034,-386.912 124.268,-389.447"/>
<polygon fill="midnightblue" stroke="midnightblue" points="53.8347,-354.438 43.5752,-351.794 49.9464,-360.259 53.8347,-354.438"/>
</g>
<!-- Node3 -->
<g id="node3" class="node"><title>Node3</title>
<g id="a_node3"><a xlink:href="group___actions.html#gaa869ffae7560168064463f3157633a8b" target="_top" xlink:title="Reserves a key from the keypool and sets nIndex to its index. ">
<polygon fill="white" stroke="black" points="94,-351.5 94,-370.5 266,-370.5 266,-351.5 94,-351.5"/>
<text text-anchor="middle" x="180" y="-358.5" font-family="Helvetica,sans-Serif" font-size="10.00">CWallet::ReserveKeyFromKeyPool</text>
</a>
</g>
</g>
<!-- Node1&#45;&gt;Node3 -->
<g id="edge2" class="edge"><title>Node1&#45;&gt;Node3</title>
<path fill="none" stroke="midnightblue" d="M68.1692,-346.867C79.2507,-348.28 91.7524,-349.874 104.263,-351.47"/>
<polygon fill="midnightblue" stroke="midnightblue" points="68.3882,-343.367 58.0258,-345.574 67.5027,-350.311 68.3882,-343.367"/>
</g>
<!-- Node4 -->
<g id="node4" class="node"><title>Node4</title>
<g id="a_node4"><a xlink:href="class_c_crypto_key_store.html#a1cb434078a9ea686c0acf168d2c81252" target="_top" xlink:title="CCryptoKeyStore::IsCrypted">
<polygon fill="white" stroke="black" points="105.5,-199.5 105.5,-218.5 254.5,-218.5 254.5,-199.5 105.5,-199.5"/>
<text text-anchor="middle" x="180" y="-206.5" font-family="Helvetica,sans-Serif" font-size="10.00">CCryptoKeyStore::IsCrypted</text>
</a>
</g>
</g>
<!-- Node1&#45;&gt;Node4 -->
<g id="edge3" class="edge"><title>Node1&#45;&gt;Node4</title>
<path fill="none" stroke="midnightblue" d="M48.3046,-325.661C79.6224,-297.706 142.562,-241.525 167.979,-218.837"/>
<polygon fill="midnightblue" stroke="midnightblue" points="45.8453,-323.165 40.7157,-332.435 50.5067,-328.387 45.8453,-323.165"/>
</g>
<!-- Node17 -->
<g id="node17" class="node"><title>Node17</title>
<g id="a_node17"><a xlink:href="rpcwallet_8cpp.html#a61c7a90d1b36888fe11b751e746e18c0" target="_top" xlink:title="sethdseed">
<polygon fill="white" stroke="black" points="682.5,-304.5 682.5,-323.5 749.5,-323.5 749.5,-304.5 682.5,-304.5"/>
<text text-anchor="middle" x="716" y="-311.5" font-family="Helvetica,sans-Serif" font-size="10.00">sethdseed</text>
</a>
</g>
</g>
<!-- Node1&#45;&gt;Node17 -->
<g id="edge29" class="edge"><title>Node1&#45;&gt;Node17</title>
<path fill="none" stroke="midnightblue" d="M68.4826,-340.427C190.699,-335.431 568.653,-319.982 682.329,-315.335"/>
<polygon fill="midnightblue" stroke="midnightblue" points="67.9785,-336.945 58.1299,-340.85 68.2645,-343.939 67.9785,-336.945"/>
</g>
<!-- Node5 -->
<g id="node5" class="node"><title>Node5</title>
<g id="a_node5"><a xlink:href="rpcwallet_8h.html#ad35d45071ce42aaef4b74910e36eda5a" target="_top" xlink:title="HelpRequiringPassphrase">
<polygon fill="white" stroke="black" points="302,-199.5 302,-218.5 439,-218.5 439,-199.5 302,-199.5"/>
<text text-anchor="middle" x="370.5" y="-206.5" font-family="Helvetica,sans-Serif" font-size="10.00">HelpRequiringPassphrase</text>
</a>
</g>
</g>
<!-- Node4&#45;&gt;Node5 -->
<g id="edge4" class="edge"><title>Node4&#45;&gt;Node5</title>
<path fill="none" stroke="midnightblue" d="M264.947,-209C277.247,-209 289.784,-209 301.706,-209"/>
<polygon fill="midnightblue" stroke="midnightblue" points="264.689,-205.5 254.689,-209 264.689,-212.5 264.689,-205.5"/>
</g>
<!-- Node15 -->
<g id="node15" class="node"><title>Node15</title>
<g id="a_node15"><a xlink:href="rpcwallet_8cpp.html#a74b85c92ee6a84277c73b74f2e212bff" target="_top" xlink:title="listtransactions">
<polygon fill="white" stroke="black" points="671.5,-0.5 671.5,-19.5 760.5,-19.5 760.5,-0.5 671.5,-0.5"/>
<text text-anchor="middle" x="716" y="-7.5" font-family="Helvetica,sans-Serif" font-size="10.00">listtransactions</text>
</a>
</g>
</g>
<!-- Node4&#45;&gt;Node15 -->
<g id="edge28" class="edge"><title>Node4&#45;&gt;Node15</title>
<path fill="none" stroke="midnightblue" d="M201.972,-193.394C248.42,-159.71 364.612,-80.2348 475,-43 541.155,-20.6853 622.429,-13.4344 671.397,-11.0942"/>
<polygon fill="midnightblue" stroke="midnightblue" points="199.638,-190.764 193.635,-199.494 203.772,-196.414 199.638,-190.764"/>
</g>
<!-- Node6 -->
<g id="node6" class="node"><title>Node6</title>
<g id="a_node6"><a xlink:href="rpcwallet_8h.html#aae9bc665151c5bab626a7ffcaeed9c0d" target="_top" xlink:title="EnsureWalletIsUnlocked">
<polygon fill="white" stroke="black" points="475,-143.5 475,-162.5 604,-162.5 604,-143.5 475,-143.5"/>
<text text-anchor="middle" x="539.5" y="-150.5" font-family="Helvetica,sans-Serif" font-size="10.00">EnsureWalletIsUnlocked</text>
</a>
</g>
</g>
<!-- Node5&#45;&gt;Node6 -->
<g id="edge5" class="edge"><title>Node5&#45;&gt;Node6</title>
<path fill="none" stroke="midnightblue" d="M409.7,-196.19C440.295,-185.931 482.528,-171.769 510.166,-162.501"/>
<polygon fill="midnightblue" stroke="midnightblue" points="408.577,-192.875 400.208,-199.373 410.802,-199.512 408.577,-192.875"/>
</g>
<!-- Node5&#45;&gt;Node15 -->
<g id="edge23" class="edge"><title>Node5&#45;&gt;Node15</title>
<path fill="none" stroke="midnightblue" d="M390.085,-192.929C431.806,-157.703 537.322,-73.3125 640,-29 649.866,-24.7421 660.89,-21.2899 671.385,-18.5557"/>
<polygon fill="midnightblue" stroke="midnightblue" points="387.736,-190.332 382.392,-199.48 392.274,-195.661 387.736,-190.332"/>
</g>
<!-- Node16 -->
<g id="node16" class="node"><title>Node16</title>
<g id="a_node16"><a xlink:href="rpcwallet_8h.html#a7c13054932c9e3b351bd6277fa9361d7" target="_top" xlink:title="signrawtransactionwithwallet">
<polygon fill="white" stroke="black" points="640,-228.5 640,-247.5 792,-247.5 792,-228.5 640,-228.5"/>
<text text-anchor="middle" x="716" y="-235.5" font-family="Helvetica,sans-Serif" font-size="10.00">signrawtransactionwithwallet</text>
</a>
</g>
</g>
<!-- Node5&#45;&gt;Node16 -->
<g id="edge24" class="edge"><title>Node5&#45;&gt;Node16</title>
<path fill="none" stroke="midnightblue" d="M449.192,-215.187C494.379,-218.826 552.419,-223.569 604,-228 615.567,-228.994 627.809,-230.071 639.775,-231.138"/>
<polygon fill="midnightblue" stroke="midnightblue" points="449.416,-211.694 439.168,-214.381 448.855,-218.671 449.416,-211.694"/>
</g>
<!-- Node5&#45;&gt;Node17 -->
<g id="edge25" class="edge"><title>Node5&#45;&gt;Node17</title>
<path fill="none" stroke="midnightblue" d="M394.115,-224.12C414.463,-237.06 445.594,-255.253 475,-266 546.439,-292.109 635.312,-305.174 682.313,-310.671"/>
<polygon fill="midnightblue" stroke="midnightblue" points="395.867,-221.084 385.571,-218.589 392.064,-226.961 395.867,-221.084"/>
</g>
<!-- Node18 -->
<g id="node18" class="node"><title>Node18</title>
<g id="a_node18"><a xlink:href="rpcwallet_8cpp.html#a9c99ceacf389a1ce91977c6f7ffa5022" target="_top" xlink:title="walletprocesspsbt">
<polygon fill="white" stroke="black" points="488.5,-237.5 488.5,-256.5 590.5,-256.5 590.5,-237.5 488.5,-237.5"/>
<text text-anchor="middle" x="539.5" y="-244.5" font-family="Helvetica,sans-Serif" font-size="10.00">walletprocesspsbt</text>
</a>
</g>
</g>
<!-- Node5&#45;&gt;Node18 -->
<g id="edge26" class="edge"><title>Node5&#45;&gt;Node18</title>
<path fill="none" stroke="midnightblue" d="M423.465,-220.824C447.009,-226.182 474.474,-232.431 496.662,-237.48"/>
<polygon fill="midnightblue" stroke="midnightblue" points="424.168,-217.395 413.641,-218.589 422.615,-224.221 424.168,-217.395"/>
</g>
<!-- Node6&#45;&gt;Node6 -->
<g id="edge16" class="edge"><title>Node6&#45;&gt;Node6</title>
<path fill="none" stroke="midnightblue" d="M508.063,-171.275C508.959,-176.741 519.438,-181 539.5,-181 569.359,-181 577.991,-171.565 565.394,-162.757"/>
<polygon fill="midnightblue" stroke="midnightblue" points="511.085,-173.048 513.606,-162.757 505.218,-169.229 511.085,-173.048"/>
</g>
<!-- Node7 -->
<g id="node7" class="node"><title>Node7</title>
<g id="a_node7"><a xlink:href="rpcwallet_8cpp.html#a2f46e2bb304dda9a197b5a68db6106f7" target="_top" xlink:title="importprivkey">
<polygon fill="white" stroke="black" points="675,-190.5 675,-209.5 757,-209.5 757,-190.5 675,-190.5"/>
<text text-anchor="middle" x="716" y="-197.5" font-family="Helvetica,sans-Serif" font-size="10.00">importprivkey</text>
</a>
</g>
</g>
<!-- Node6&#45;&gt;Node7 -->
<g id="edge6" class="edge"><title>Node6&#45;&gt;Node7</title>
<path fill="none" stroke="midnightblue" d="M583.531,-165.375C601.024,-170.336 621.45,-176.041 640,-181 651.809,-184.157 664.699,-187.47 676.41,-190.43"/>
<polygon fill="midnightblue" stroke="midnightblue" points="584.183,-161.921 573.607,-162.551 582.267,-168.654 584.183,-161.921"/>
</g>
<!-- Node9 -->
<g id="node9" class="node"><title>Node9</title>
<g id="a_node9"><a xlink:href="wallet__tests_8cpp.html#a8c64ef6e0ced69002923098229448758" target="_top" xlink:title="importwallet">
<polygon fill="white" stroke="black" points="678.5,-114.5 678.5,-133.5 753.5,-133.5 753.5,-114.5 678.5,-114.5"/>
<text text-anchor="middle" x="716" y="-121.5" font-family="Helvetica,sans-Serif" font-size="10.00">importwallet</text>
</a>
</g>
</g>
<!-- Node6&#45;&gt;Node9 -->
<g id="edge8" class="edge"><title>Node6&#45;&gt;Node9</title>
<path fill="none" stroke="midnightblue" d="M608.194,-141.75C632.043,-137.787 657.947,-133.482 678.271,-130.104"/>
<polygon fill="midnightblue" stroke="midnightblue" points="607.412,-138.332 598.121,-143.424 608.56,-145.237 607.412,-138.332"/>
</g>
<!-- Node11 -->
<g id="node11" class="node"><title>Node11</title>
<g id="a_node11"><a xlink:href="rpcwallet_8cpp.html#ab3f51d8e8fe414dbf91c37485e481ae3" target="_top" xlink:title="dumpprivkey">
<polygon fill="white" stroke="black" points="677,-152.5 677,-171.5 755,-171.5 755,-152.5 677,-152.5"/>
<text text-anchor="middle" x="716" y="-159.5" font-family="Helvetica,sans-Serif" font-size="10.00">dumpprivkey</text>
</a>
</g>
</g>
<!-- Node6&#45;&gt;Node11 -->
<g id="edge10" class="edge"><title>Node6&#45;&gt;Node11</title>
<path fill="none" stroke="midnightblue" d="M614.585,-156.821C636.057,-157.928 658.618,-159.092 676.904,-160.035"/>
<polygon fill="midnightblue" stroke="midnightblue" points="614.654,-153.32 604.486,-156.3 614.293,-160.311 614.654,-153.32"/>
</g>
<!-- Node12 -->
<g id="node12" class="node"><title>Node12</title>
<g id="a_node12"><a xlink:href="wallet__tests_8cpp.html#a73ce3a42e0b56b2e4516e55871d8590e" target="_top" xlink:title="dumpwallet">
<polygon fill="white" stroke="black" points="680.5,-76.5 680.5,-95.5 751.5,-95.5 751.5,-76.5 680.5,-76.5"/>
<text text-anchor="middle" x="716" y="-83.5" font-family="Helvetica,sans-Serif" font-size="10.00">dumpwallet</text>
</a>
</g>
</g>
<!-- Node6&#45;&gt;Node12 -->
<g id="edge12" class="edge"><title>Node6&#45;&gt;Node12</title>
<path fill="none" stroke="midnightblue" d="M566.621,-138.603C586.334,-128.186 614.287,-114.351 640,-105 652.876,-100.318 667.398,-96.3501 680.21,-93.2713"/>
<polygon fill="midnightblue" stroke="midnightblue" points="564.814,-135.601 557.652,-143.408 568.12,-141.771 564.814,-135.601"/>
</g>
<!-- Node13 -->
<g id="node13" class="node"><title>Node13</title>
<g id="a_node13"><a xlink:href="wallet__tests_8cpp.html#af0e3c9469f1d8f368d3d5f38e5580367" target="_top" xlink:title="importmulti">
<polygon fill="white" stroke="black" points="680,-38.5 680,-57.5 752,-57.5 752,-38.5 680,-38.5"/>
<text text-anchor="middle" x="716" y="-45.5" font-family="Helvetica,sans-Serif" font-size="10.00">importmulti</text>
</a>
</g>
</g>
<!-- Node6&#45;&gt;Node13 -->
<g id="edge14" class="edge"><title>Node6&#45;&gt;Node13</title>
<path fill="none" stroke="midnightblue" d="M558.988,-136.202C585.162,-112.548 630.865,-71.7609 640,-67 652.269,-60.6059 666.806,-56.2814 679.8,-53.3961"/>
<polygon fill="midnightblue" stroke="midnightblue" points="556.31,-133.905 551.247,-143.212 561.009,-139.094 556.31,-133.905"/>
</g>
<!-- Node6&#45;&gt;Node15 -->
<g id="edge17" class="edge"><title>Node6&#45;&gt;Node15</title>
<path fill="none" stroke="midnightblue" d="M561.747,-137.067C574.982,-126.428 591.759,-111.573 604,-96 624.89,-69.4234 613.356,-49.804 640,-29 648.999,-21.9734 660.291,-17.5183 671.36,-14.7017"/>
<polygon fill="midnightblue" stroke="midnightblue" points="559.358,-134.492 553.644,-143.414 563.675,-140.003 559.358,-134.492"/>
</g>
<!-- Node6&#45;&gt;Node16 -->
<g id="edge19" class="edge"><title>Node6&#45;&gt;Node16</title>
<path fill="none" stroke="midnightblue" d="M563.699,-168.315C575.731,-176.266 590.663,-186.144 604,-195 620.019,-205.638 622.426,-211.193 640,-219 648.47,-222.763 657.823,-225.877 666.967,-228.42"/>
<polygon fill="midnightblue" stroke="midnightblue" points="565.411,-165.252 555.138,-162.66 561.553,-171.092 565.411,-165.252"/>
</g>
<!-- Node6&#45;&gt;Node17 -->
<g id="edge21" class="edge"><title>Node6&#45;&gt;Node17</title>
<path fill="none" stroke="midnightblue" d="M555.493,-170.273C574.331,-191.588 608.072,-228.502 640,-257 660.132,-274.969 685.469,-293.454 700.938,-304.325"/>
<polygon fill="midnightblue" stroke="midnightblue" points="558.044,-167.874 548.818,-162.665 552.782,-172.49 558.044,-167.874"/>
</g>
<!-- Node8 -->
<g id="node8" class="node"><title>Node8</title>
<g id="a_node8"><a xlink:href="rpcwallet_8cpp.html#afca55ac7a3c6c274b8b7b3e6eab9cd86" target="_top" xlink:title="walletcreatefundedpsbt">
<polygon fill="white" stroke="black" points="841,-209.5 841,-228.5 969,-228.5 969,-209.5 841,-209.5"/>
<text text-anchor="middle" x="905" y="-216.5" font-family="Helvetica,sans-Serif" font-size="10.00">walletcreatefundedpsbt</text>
</a>
</g>
</g>
<!-- Node7&#45;&gt;Node8 -->
<g id="edge7" class="edge"><title>Node7&#45;&gt;Node8</title>
<path fill="none" stroke="midnightblue" d="M767.181,-205.099C789.81,-207.398 816.784,-210.138 840.777,-212.576"/>
<polygon fill="midnightblue" stroke="midnightblue" points="767.419,-201.605 757.116,-204.076 766.711,-208.569 767.419,-201.605"/>
</g>
<!-- Node10 -->
<g id="node10" class="node"><title>Node10</title>
<g id="a_node10"><a xlink:href="wallet__tests_8cpp.html#a2a726fa52b0a343883cb50a3f68d0989" target="_top" xlink:title="BOOST_FIXTURE_TEST_CASE">
<polygon fill="white" stroke="black" points="828,-95.5 828,-114.5 982,-114.5 982,-95.5 828,-95.5"/>
<text text-anchor="middle" x="905" y="-102.5" font-family="Helvetica,sans-Serif" font-size="10.00">BOOST_FIXTURE_TEST_CASE</text>
</a>
</g>
</g>
<!-- Node9&#45;&gt;Node10 -->
<g id="edge9" class="edge"><title>Node9&#45;&gt;Node10</title>
<path fill="none" stroke="midnightblue" d="M763.977,-119.227C783.272,-117.266 806.114,-114.946 827.691,-112.753"/>
<polygon fill="midnightblue" stroke="midnightblue" points="763.54,-115.753 753.945,-120.246 764.248,-122.717 763.54,-115.753"/>
</g>
<!-- Node11&#45;&gt;Node8 -->
<g id="edge11" class="edge"><title>Node11&#45;&gt;Node8</title>
<path fill="none" stroke="midnightblue" d="M765.229,-173.619C774.163,-175.941 783.39,-178.453 792,-181 821.535,-189.737 854.911,-201.281 877.486,-209.344"/>
<polygon fill="midnightblue" stroke="midnightblue" points="765.869,-170.17 755.313,-171.086 764.136,-176.952 765.869,-170.17"/>
</g>
<!-- Node12&#45;&gt;Node10 -->
<g id="edge13" class="edge"><title>Node12&#45;&gt;Node10</title>
<path fill="none" stroke="midnightblue" d="M761.712,-90.543C781.558,-92.5593 805.476,-94.9896 827.992,-97.2772"/>
<polygon fill="midnightblue" stroke="midnightblue" points="762.038,-87.0581 751.735,-89.5292 761.33,-94.0222 762.038,-87.0581"/>
</g>
<!-- Node14 -->
<g id="node14" class="node"><title>Node14</title>
<g id="a_node14"><a xlink:href="wallet__tests_8cpp.html#acc117bb030f4fc677e16addf014e9908" target="_top" xlink:title="BOOST_FIXTURE_TEST_CASE">
<polygon fill="white" stroke="black" points="828,-38.5 828,-57.5 982,-57.5 982,-38.5 828,-38.5"/>
<text text-anchor="middle" x="905" y="-45.5" font-family="Helvetica,sans-Serif" font-size="10.00">BOOST_FIXTURE_TEST_CASE</text>
</a>
</g>
</g>
<!-- Node13&#45;&gt;Node14 -->
<g id="edge15" class="edge"><title>Node13&#45;&gt;Node14</title>
<path fill="none" stroke="midnightblue" d="M762.381,-48C782.075,-48 805.683,-48 827.927,-48"/>
<polygon fill="midnightblue" stroke="midnightblue" points="762.173,-44.5001 752.173,-48 762.173,-51.5001 762.173,-44.5001"/>
</g>
<!-- Node15&#45;&gt;Node8 -->
<g id="edge18" class="edge"><title>Node15&#45;&gt;Node8</title>
<path fill="none" stroke="midnightblue" d="M770.557,-16.7648C778.392,-19.5944 785.871,-23.5335 792,-29 825.696,-59.0547 805.624,-84.7821 828,-124 847.573,-158.306 879.104,-193.184 894.679,-209.493"/>
<polygon fill="midnightblue" stroke="midnightblue" points="771.475,-13.3861 760.89,-13.8357 769.445,-20.0853 771.475,-13.3861"/>
</g>
<!-- Node16&#45;&gt;Node8 -->
<g id="edge20" class="edge"><title>Node16&#45;&gt;Node8</title>
<path fill="none" stroke="midnightblue" d="M802.545,-229.308C815.458,-227.996 828.575,-226.664 840.901,-225.411"/>
<polygon fill="midnightblue" stroke="midnightblue" points="801.847,-225.861 792.252,-230.354 802.554,-232.825 801.847,-225.861"/>
</g>
<!-- Node17&#45;&gt;Node8 -->
<g id="edge22" class="edge"><title>Node17&#45;&gt;Node8</title>
<path fill="none" stroke="midnightblue" d="M759.5,-302.477C770.31,-298.987 781.76,-294.788 792,-290 830.165,-272.156 870.998,-243.542 891.183,-228.674"/>
<polygon fill="midnightblue" stroke="midnightblue" points="758.323,-299.178 749.806,-305.481 760.394,-305.865 758.323,-299.178"/>
</g>
<!-- Node18&#45;&gt;Node8 -->
<g id="edge27" class="edge"><title>Node18&#45;&gt;Node8</title>
<path fill="none" stroke="midnightblue" d="M601.206,-256.252C652.411,-262.427 727.463,-267.65 792,-257 824.617,-251.617 860.507,-237.975 882.652,-228.591"/>
<polygon fill="midnightblue" stroke="midnightblue" points="601.332,-252.74 590.974,-254.967 600.46,-259.685 601.332,-252.74"/>
</g>
</g>
</svg>
