<?xml version="1.0" encoding="UTF-8" standalone="no"?>
<!DOCTYPE svg PUBLIC "-//W3C//DTD SVG 1.1//EN"
 "http://www.w3.org/Graphics/SVG/1.1/DTD/svg11.dtd">
<!-- Generated by graphviz version 2.38.0 (20140413.2041)
 -->
<!-- Title: StartWallets Pages: 1 -->
<svg width="810pt" height="328pt"
 viewBox="0.00 0.00 810.00 327.50" xmlns="http://www.w3.org/2000/svg" xmlns:xlink="http://www.w3.org/1999/xlink">
<g id="graph0" class="graph" transform="scale(1 1) rotate(0) translate(4 323.5)">
<title>StartWallets</title>
<polygon fill="white" stroke="none" points="-4,4 -4,-323.5 806,-323.5 806,4 -4,4"/>
<!-- Node1 -->
<g id="node1" class="node"><title>Node1</title>
<polygon fill="#bfbfbf" stroke="black" points="0,-201 0,-220 74,-220 74,-201 0,-201"/>
<text text-anchor="middle" x="37" y="-208" font-family="Helvetica,sans-Serif" font-size="10.00">StartWallets</text>
</g>
<!-- Node2 -->
<g id="node2" class="node"><title>Node2</title>
<g id="a_node2"><a xlink:href="dummywallet_8cpp.html#ab8562a8762a7793fdf5b8ae9465e1b85" target="_top" xlink:title="GetWallets">
<polygon fill="white" stroke="black" points="340.5,-244 340.5,-263 407.5,-263 407.5,-244 340.5,-244"/>
<text text-anchor="middle" x="374" y="-251" font-family="Helvetica,sans-Serif" font-size="10.00">GetWallets</text>
</a>
</g>
</g>
<!-- Node1&#45;&gt;Node2 -->
<g id="edge1" class="edge"><title>Node1&#45;&gt;Node2</title>
<path fill="none" stroke="midnightblue" d="M74.1692,-215.143C136.48,-223.141 263.772,-239.48 330.318,-248.021"/>
<polygon fill="midnightblue" stroke="midnightblue" points="330.093,-251.521 340.458,-249.323 330.985,-244.578 330.093,-251.521"/>
</g>
<!-- Node3 -->
<g id="node3" class="node"><title>Node3</title>
<g id="a_node3"><a xlink:href="class_c_scheduler.html#aab114cb7085474e0f1a47aa2b54e9cae" target="_top" xlink:title="CScheduler::scheduleEvery">
<polygon fill="white" stroke="black" points="110,-277 110,-296 256,-296 256,-277 110,-277"/>
<text text-anchor="middle" x="183" y="-284" font-family="Helvetica,sans-Serif" font-size="10.00">CScheduler::scheduleEvery</text>
</a>
</g>
</g>
<!-- Node1&#45;&gt;Node3 -->
<g id="edge2" class="edge"><title>Node1&#45;&gt;Node3</title>
<path fill="none" stroke="midnightblue" d="M52.8977,-220.046C67.2714,-229.099 89.7678,-242.862 110,-253.5 122.899,-260.282 137.458,-267.105 150.092,-272.772"/>
<polygon fill="midnightblue" stroke="midnightblue" points="148.758,-276.009 159.319,-276.861 151.594,-269.609 148.758,-276.009"/>
</g>
<!-- Node6 -->
<g id="node6" class="node"><title>Node6</title>
<g id="a_node6"><a xlink:href="walletdb_8cpp.html#a1e1e0409e1e009a4202a703e38ad2cd9" target="_top" xlink:title="Compacts BDB state so that wallet.dat is self&#45;contained (if there are changes) ">
<polygon fill="white" stroke="black" points="116,-173 116,-192 250,-192 250,-173 116,-173"/>
<text text-anchor="middle" x="183" y="-180" font-family="Helvetica,sans-Serif" font-size="10.00">MaybeCompactWalletDB</text>
</a>
</g>
</g>
<!-- Node1&#45;&gt;Node6 -->
<g id="edge6" class="edge"><title>Node1&#45;&gt;Node6</title>
<path fill="none" stroke="midnightblue" d="M74.3373,-203.434C89.0338,-200.577 106.382,-197.203 122.811,-194.009"/>
<polygon fill="midnightblue" stroke="midnightblue" points="123.742,-197.394 132.89,-192.049 122.406,-190.522 123.742,-197.394"/>
</g>
<!-- Node20 -->
<g id="node20" class="node"><title>Node20</title>
<g id="a_node20"><a xlink:href="wallet_2wallet_8cpp.html#a3dd76d3c4b1bd804a23bf22519423623" target="_top" xlink:title="Called periodically by the schedule thread. ">
<polygon fill="white" stroke="black" points="120,-83 120,-102 246,-102 246,-83 120,-83"/>
<text text-anchor="middle" x="183" y="-90" font-family="Helvetica,sans-Serif" font-size="10.00">MaybeResendWalletTxs</text>
</a>
</g>
</g>
<!-- Node1&#45;&gt;Node20 -->
<g id="edge22" class="edge"><title>Node1&#45;&gt;Node20</title>
<path fill="none" stroke="midnightblue" d="M49.7841,-200.844C74.4662,-180.618 131.821,-133.619 162.238,-108.694"/>
<polygon fill="midnightblue" stroke="midnightblue" points="164.537,-111.335 170.053,-102.29 160.1,-105.921 164.537,-111.335"/>
</g>
<!-- Node4 -->
<g id="node4" class="node"><title>Node4</title>
<g id="a_node4"><a xlink:href="class_c_scheduler.html#a9e6aac0524218996342cdf494e10d61b" target="_top" xlink:title="CScheduler::scheduleFromNow">
<polygon fill="white" stroke="black" points="292,-282 292,-301 456,-301 456,-282 292,-282"/>
<text text-anchor="middle" x="374" y="-289" font-family="Helvetica,sans-Serif" font-size="10.00">CScheduler::scheduleFromNow</text>
</a>
</g>
</g>
<!-- Node3&#45;&gt;Node4 -->
<g id="edge3" class="edge"><title>Node3&#45;&gt;Node4</title>
<path fill="none" stroke="midnightblue" d="M256.262,-288.412C264.651,-288.634 273.287,-288.862 281.887,-289.09"/>
<polygon fill="midnightblue" stroke="midnightblue" points="281.858,-292.59 291.947,-289.356 282.043,-285.592 281.858,-292.59"/>
</g>
<!-- Node4&#45;&gt;Node4 -->
<g id="edge5" class="edge"><title>Node4&#45;&gt;Node4</title>
<path fill="none" stroke="midnightblue" d="M344.715,-301.257C330.469,-310.065 340.23,-319.5 374,-319.5 397.744,-319.5 409.619,-314.836 409.625,-309.004"/>
<polygon fill="midnightblue" stroke="midnightblue" points="412.327,-306.779 403.285,-301.257 406.909,-311.212 412.327,-306.779"/>
</g>
<!-- Node5 -->
<g id="node5" class="node"><title>Node5</title>
<g id="a_node5"><a xlink:href="class_c_scheduler.html#a5b5accdef59aa10c5a99f4ee86a1740f" target="_top" xlink:title="CScheduler::schedule">
<polygon fill="white" stroke="black" points="510,-282 510,-301 630,-301 630,-282 510,-282"/>
<text text-anchor="middle" x="570" y="-289" font-family="Helvetica,sans-Serif" font-size="10.00">CScheduler::schedule</text>
</a>
</g>
</g>
<!-- Node4&#45;&gt;Node5 -->
<g id="edge4" class="edge"><title>Node4&#45;&gt;Node5</title>
<path fill="none" stroke="midnightblue" d="M456.149,-291.5C470.604,-291.5 485.541,-291.5 499.629,-291.5"/>
<polygon fill="midnightblue" stroke="midnightblue" points="499.719,-295 509.719,-291.5 499.719,-288 499.719,-295"/>
</g>
<!-- Node6&#45;&gt;Node2 -->
<g id="edge14" class="edge"><title>Node6&#45;&gt;Node2</title>
<path fill="none" stroke="midnightblue" d="M201.082,-192.173C221.962,-203.652 258.643,-222.717 292,-234.5 304.251,-238.828 317.894,-242.46 330.437,-245.351"/>
<polygon fill="midnightblue" stroke="midnightblue" points="329.694,-248.771 340.213,-247.51 331.203,-241.936 329.694,-248.771"/>
</g>
<!-- Node7 -->
<g id="node7" class="node"><title>Node7</title>
<g id="a_node7"><a xlink:href="class_args_manager.html#a690fd2e1bae8f2de37bbcf0583d0b3ad" target="_top" xlink:title="Return boolean argument or default value. ">
<polygon fill="white" stroke="black" points="303.5,-72 303.5,-91 444.5,-91 444.5,-72 303.5,-72"/>
<text text-anchor="middle" x="374" y="-79" font-family="Helvetica,sans-Serif" font-size="10.00">ArgsManager::GetBoolArg</text>
</a>
</g>
</g>
<!-- Node6&#45;&gt;Node7 -->
<g id="edge7" class="edge"><title>Node6&#45;&gt;Node7</title>
<path fill="none" stroke="midnightblue" d="M199.9,-172.889C220.786,-160.376 258.718,-138.036 292,-120.5 308.695,-111.704 327.688,-102.517 343.084,-95.2705"/>
<polygon fill="midnightblue" stroke="midnightblue" points="344.577,-98.4364 352.153,-91.0303 341.612,-92.0952 344.577,-98.4364"/>
</g>
<!-- Node13 -->
<g id="node13" class="node"><title>Node13</title>
<g id="a_node13"><a xlink:href="class_c_wallet.html#a442efc448102527a157e651f375a7116" target="_top" xlink:title="Get database handle used by this wallet. ">
<polygon fill="white" stroke="black" points="313,-206 313,-225 435,-225 435,-206 313,-206"/>
<text text-anchor="middle" x="374" y="-213" font-family="Helvetica,sans-Serif" font-size="10.00">CWallet::GetDBHandle</text>
</a>
</g>
</g>
<!-- Node6&#45;&gt;Node13 -->
<g id="edge15" class="edge"><title>Node6&#45;&gt;Node13</title>
<path fill="none" stroke="midnightblue" d="M238.413,-192.001C260.262,-195.816 285.62,-200.243 308.395,-204.22"/>
<polygon fill="midnightblue" stroke="midnightblue" points="307.864,-207.68 318.317,-205.952 309.068,-200.784 307.864,-207.68"/>
</g>
<!-- Node14 -->
<g id="node14" class="node"><title>Node14</title>
<g id="a_node14"><a xlink:href="time_8cpp.html#a46fac5fba8ba905b5f9acb364f5d8c6f" target="_top" xlink:title="GetTimeMicros() and GetTimeMillis() both return the system time, but in different units...">
<polygon fill="white" stroke="black" points="345.5,-168 345.5,-187 402.5,-187 402.5,-168 345.5,-168"/>
<text text-anchor="middle" x="374" y="-175" font-family="Helvetica,sans-Serif" font-size="10.00">GetTime</text>
</a>
</g>
</g>
<!-- Node6&#45;&gt;Node14 -->
<g id="edge16" class="edge"><title>Node6&#45;&gt;Node14</title>
<path fill="none" stroke="midnightblue" d="M250.103,-180.751C278.478,-180.001 310.618,-179.15 334.912,-178.508"/>
<polygon fill="midnightblue" stroke="midnightblue" points="335.24,-182 345.144,-178.237 335.055,-175.003 335.24,-182"/>
</g>
<!-- Node15 -->
<g id="node15" class="node"><title>Node15</title>
<g id="a_node15"><a xlink:href="class_berkeley_batch.html#a75cb5ceff1a83033d06e8c8f2a6d7d2a" target="_top" xlink:title="BerkeleyBatch::PeriodicFlush">
<polygon fill="white" stroke="black" points="297,-130 297,-149 451,-149 451,-130 297,-130"/>
<text text-anchor="middle" x="374" y="-137" font-family="Helvetica,sans-Serif" font-size="10.00">BerkeleyBatch::PeriodicFlush</text>
</a>
</g>
</g>
<!-- Node6&#45;&gt;Node15 -->
<g id="edge17" class="edge"><title>Node6&#45;&gt;Node15</title>
<path fill="none" stroke="midnightblue" d="M225.945,-172.957C254.085,-166.555 291.34,-158.079 321.311,-151.26"/>
<polygon fill="midnightblue" stroke="midnightblue" points="322.198,-154.648 331.172,-149.016 320.645,-147.822 322.198,-154.648"/>
</g>
<!-- Node8 -->
<g id="node8" class="node"><title>Node8</title>
<g id="a_node8"><a xlink:href="class_args_manager.html#a279ccbf7bbe9de5dceb8c6bfd1736583" target="_top" xlink:title="Return true if the argument was originally passed as a negated option, i.e. ">
<polygon fill="white" stroke="black" points="494,-7 494,-26 646,-26 646,-7 494,-7"/>
<text text-anchor="middle" x="570" y="-14" font-family="Helvetica,sans-Serif" font-size="10.00">ArgsManager::IsArgNegated</text>
</a>
</g>
</g>
<!-- Node7&#45;&gt;Node8 -->
<g id="edge8" class="edge"><title>Node7&#45;&gt;Node8</title>
<path fill="none" stroke="midnightblue" d="M428.661,-71.9272C437.978,-69.4208 447.422,-66.3172 456,-62.5 473.797,-54.5802 474.348,-45.7375 492,-37.5 498.897,-34.2814 506.38,-31.4771 513.879,-29.0577"/>
<polygon fill="midnightblue" stroke="midnightblue" points="515.135,-32.3345 523.698,-26.0961 513.114,-25.6327 515.135,-32.3345"/>
</g>
<!-- Node10 -->
<g id="node10" class="node"><title>Node10</title>
<g id="a_node10"><a xlink:href="class_args_manager_helper.html#aa4f8f77dc468b29cffe50513c78a87cd" target="_top" xlink:title="ArgsManagerHelper::\lGetArg">
<polygon fill="white" stroke="black" points="511,-47.5 511,-77.5 629,-77.5 629,-47.5 511,-47.5"/>
<text text-anchor="start" x="519" y="-65.5" font-family="Helvetica,sans-Serif" font-size="10.00">ArgsManagerHelper::</text>
<text text-anchor="middle" x="570" y="-54.5" font-family="Helvetica,sans-Serif" font-size="10.00">GetArg</text>
</a>
</g>
</g>
<!-- Node7&#45;&gt;Node10 -->
<g id="edge10" class="edge"><title>Node7&#45;&gt;Node10</title>
<path fill="none" stroke="midnightblue" d="M444.764,-74.6674C462.919,-72.8893 482.46,-70.9756 500.546,-69.2042"/>
<polygon fill="midnightblue" stroke="midnightblue" points="501.104,-72.6665 510.715,-68.2083 500.421,-65.6998 501.104,-72.6665"/>
</g>
<!-- Node9 -->
<g id="node9" class="node"><title>Node9</title>
<g id="a_node9"><a xlink:href="class_args_manager_helper.html#a863ddbcfbd113cf88cf622a0a4e32c1d" target="_top" xlink:title="Convert regular argument into the network&#45;specific setting. ">
<polygon fill="white" stroke="black" points="684,-0.5 684,-30.5 802,-30.5 802,-0.5 684,-0.5"/>
<text text-anchor="start" x="692" y="-18.5" font-family="Helvetica,sans-Serif" font-size="10.00">ArgsManagerHelper::</text>
<text text-anchor="middle" x="743" y="-7.5" font-family="Helvetica,sans-Serif" font-size="10.00">NetworkArg</text>
</a>
</g>
</g>
<!-- Node8&#45;&gt;Node9 -->
<g id="edge9" class="edge"><title>Node8&#45;&gt;Node9</title>
<path fill="none" stroke="midnightblue" d="M646.003,-16.0614C655.196,-16.0076 664.554,-15.9529 673.642,-15.8998"/>
<polygon fill="midnightblue" stroke="midnightblue" points="673.786,-19.3991 683.765,-15.8406 673.745,-12.3992 673.786,-19.3991"/>
</g>
<!-- Node10&#45;&gt;Node9 -->
<g id="edge12" class="edge"><title>Node10&#45;&gt;Node9</title>
<path fill="none" stroke="midnightblue" d="M625.576,-47.4997C642.08,-42.9633 660.362,-37.9385 677.453,-33.2409"/>
<polygon fill="midnightblue" stroke="midnightblue" points="678.642,-36.5442 687.356,-30.519 676.786,-29.7945 678.642,-36.5442"/>
</g>
<!-- Node11 -->
<g id="node11" class="node"><title>Node11</title>
<g id="a_node11"><a xlink:href="class_args_manager_helper.html#a1804a95992b4e10d04f0b92c53032b29" target="_top" xlink:title="Return true/false if an argument is set in a map, and also return the first (or last) of the possibly...">
<polygon fill="white" stroke="black" points="684,-49.5 684,-79.5 802,-79.5 802,-49.5 684,-49.5"/>
<text text-anchor="start" x="692" y="-67.5" font-family="Helvetica,sans-Serif" font-size="10.00">ArgsManagerHelper::</text>
<text text-anchor="middle" x="743" y="-56.5" font-family="Helvetica,sans-Serif" font-size="10.00">GetArgHelper</text>
</a>
</g>
</g>
<!-- Node10&#45;&gt;Node11 -->
<g id="edge11" class="edge"><title>Node10&#45;&gt;Node11</title>
<path fill="none" stroke="midnightblue" d="M629.37,-63.1827C643.678,-63.35 659.116,-63.5306 673.838,-63.7028"/>
<polygon fill="midnightblue" stroke="midnightblue" points="673.853,-67.2031 683.893,-63.8204 673.934,-60.2036 673.853,-67.2031"/>
</g>
<!-- Node12 -->
<g id="node12" class="node"><title>Node12</title>
<g id="a_node12"><a xlink:href="class_args_manager_helper.html#a43f3488403e4f0433ade323e48008359" target="_top" xlink:title="Determine whether to use config settings in the default section, See also comments around ArgsManager...">
<polygon fill="white" stroke="black" points="684,-98.5 684,-128.5 802,-128.5 802,-98.5 684,-98.5"/>
<text text-anchor="start" x="692" y="-116.5" font-family="Helvetica,sans-Serif" font-size="10.00">ArgsManagerHelper::</text>
<text text-anchor="middle" x="743" y="-105.5" font-family="Helvetica,sans-Serif" font-size="10.00">UseDefaultSection</text>
</a>
</g>
</g>
<!-- Node10&#45;&gt;Node12 -->
<g id="edge13" class="edge"><title>Node10&#45;&gt;Node12</title>
<path fill="none" stroke="midnightblue" d="M621.381,-77.5258C640.343,-83.1814 662.096,-89.6688 681.86,-95.5635"/>
<polygon fill="midnightblue" stroke="midnightblue" points="681.101,-98.9894 691.684,-98.4935 683.102,-92.2814 681.101,-98.9894"/>
</g>
<!-- Node16 -->
<g id="node16" class="node"><title>Node16</title>
<g id="a_node16"><a xlink:href="class_berkeley_database.html#a613ff711faa19bc0a970fb598ab4f886" target="_top" xlink:title="Return whether this database handle is a dummy for testing. ">
<polygon fill="white" stroke="black" points="492,-97 492,-116 648,-116 648,-97 492,-97"/>
<text text-anchor="middle" x="570" y="-104" font-family="Helvetica,sans-Serif" font-size="10.00">BerkeleyDatabase::IsDummy</text>
</a>
</g>
</g>
<!-- Node15&#45;&gt;Node16 -->
<g id="edge18" class="edge"><title>Node15&#45;&gt;Node16</title>
<path fill="none" stroke="midnightblue" d="M430.853,-129.999C453.38,-126.167 479.542,-121.717 503,-117.727"/>
<polygon fill="midnightblue" stroke="midnightblue" points="503.598,-121.175 512.87,-116.048 502.425,-114.274 503.598,-121.175"/>
</g>
<!-- Node17 -->
<g id="node17" class="node"><title>Node17</title>
<g id="a_node17"><a xlink:href="time_8cpp.html#a139d0fe6387b9e230a9b8bb12d9b43b9" target="_top" xlink:title="GetTimeMillis">
<polygon fill="white" stroke="black" points="530,-234 530,-253 610,-253 610,-234 530,-234"/>
<text text-anchor="middle" x="570" y="-241" font-family="Helvetica,sans-Serif" font-size="10.00">GetTimeMillis</text>
</a>
</g>
</g>
<!-- Node15&#45;&gt;Node17 -->
<g id="edge19" class="edge"><title>Node15&#45;&gt;Node17</title>
<path fill="none" stroke="midnightblue" d="M439.217,-149.12C445.213,-151.588 450.932,-154.665 456,-158.5 482.335,-178.425 465.903,-203.264 492,-223.5 500.104,-229.784 509.985,-234.105 519.93,-237.074"/>
<polygon fill="midnightblue" stroke="midnightblue" points="519.276,-240.519 529.832,-239.614 521.016,-233.739 519.276,-240.519"/>
</g>
<!-- Node18 -->
<g id="node18" class="node"><title>Node18</title>
<g id="a_node18"><a xlink:href="class_berkeley_environment.html#af201da324fc94c4ada667ff2601647f6" target="_top" xlink:title="BerkeleyEnvironment\l::CloseDb">
<polygon fill="white" stroke="black" points="510.5,-184.5 510.5,-214.5 629.5,-214.5 629.5,-184.5 510.5,-184.5"/>
<text text-anchor="start" x="518.5" y="-202.5" font-family="Helvetica,sans-Serif" font-size="10.00">BerkeleyEnvironment</text>
<text text-anchor="middle" x="570" y="-191.5" font-family="Helvetica,sans-Serif" font-size="10.00">::CloseDb</text>
</a>
</g>
</g>
<!-- Node15&#45;&gt;Node18 -->
<g id="edge20" class="edge"><title>Node15&#45;&gt;Node18</title>
<path fill="none" stroke="midnightblue" d="M422.535,-149.076C433.63,-151.744 445.321,-154.91 456,-158.5 472.596,-164.079 475.651,-168.232 492,-174.5 497.856,-176.745 504.011,-178.967 510.181,-181.106"/>
<polygon fill="midnightblue" stroke="midnightblue" points="509.256,-184.488 519.851,-184.39 511.508,-177.86 509.256,-184.488"/>
</g>
<!-- Node19 -->
<g id="node19" class="node"><title>Node19</title>
<g id="a_node19"><a xlink:href="class_berkeley_environment.html#ac5eda28daa4264a1272e73814dac49c7" target="_top" xlink:title="BerkeleyEnvironment\l::CheckpointLSN">
<polygon fill="white" stroke="black" points="510.5,-135.5 510.5,-165.5 629.5,-165.5 629.5,-135.5 510.5,-135.5"/>
<text text-anchor="start" x="518.5" y="-153.5" font-family="Helvetica,sans-Serif" font-size="10.00">BerkeleyEnvironment</text>
<text text-anchor="middle" x="570" y="-142.5" font-family="Helvetica,sans-Serif" font-size="10.00">::CheckpointLSN</text>
</a>
</g>
</g>
<!-- Node15&#45;&gt;Node19 -->
<g id="edge21" class="edge"><title>Node15&#45;&gt;Node19</title>
<path fill="none" stroke="midnightblue" d="M451.117,-143.816C467.314,-144.734 484.326,-145.699 500.229,-146.601"/>
<polygon fill="midnightblue" stroke="midnightblue" points="500.318,-150.111 510.5,-147.183 500.714,-143.122 500.318,-150.111"/>
</g>
<!-- Node21 -->
<g id="node21" class="node"><title>Node21</title>
<g id="a_node21"><a xlink:href="wallet_2wallet_8cpp.html#ab8562a8762a7793fdf5b8ae9465e1b85" target="_top" xlink:title="GetWallets">
<polygon fill="white" stroke="black" points="340.5,-34 340.5,-53 407.5,-53 407.5,-34 340.5,-34"/>
<text text-anchor="middle" x="374" y="-41" font-family="Helvetica,sans-Serif" font-size="10.00">GetWallets</text>
</a>
</g>
</g>
<!-- Node20&#45;&gt;Node21 -->
<g id="edge23" class="edge"><title>Node20&#45;&gt;Node21</title>
<path fill="none" stroke="midnightblue" d="M216.994,-82.9611C238.332,-76.8848 266.739,-68.9684 292,-62.5 304.353,-59.3369 317.819,-56.0959 330.161,-53.2069"/>
<polygon fill="midnightblue" stroke="midnightblue" points="331.265,-56.5435 340.215,-50.8723 329.682,-49.7249 331.265,-56.5435"/>
</g>
</g>
</svg>
