<?xml version="1.0" encoding="UTF-8" standalone="no"?>
<!DOCTYPE svg PUBLIC "-//W3C//DTD SVG 1.1//EN"
 "http://www.w3.org/Graphics/SVG/1.1/DTD/svg11.dtd">
<!-- Generated by graphviz version 2.38.0 (20140413.2041)
 -->
<!-- Title: src/consensus/merkle.h Pages: 1 -->
<svg width="1364pt" height="420pt"
 viewBox="0.00 0.00 1363.50 420.00" xmlns="http://www.w3.org/2000/svg" xmlns:xlink="http://www.w3.org/1999/xlink">
<g id="graph0" class="graph" transform="scale(1 1) rotate(0) translate(4 416)">
<title>src/consensus/merkle.h</title>
<polygon fill="white" stroke="none" points="-4,4 -4,-416 1359.5,-416 1359.5,4 -4,4"/>
<!-- Node1 -->
<g id="node1" class="node"><title>Node1</title>
<polygon fill="#bfbfbf" stroke="black" points="706,-392.5 706,-411.5 836,-411.5 836,-392.5 706,-392.5"/>
<text text-anchor="middle" x="771" y="-399.5" font-family="Helvetica,sans-Serif" font-size="10.00">src/consensus/merkle.h</text>
</g>
<!-- Node2 -->
<g id="node2" class="node"><title>Node2</title>
<polygon fill="white" stroke="#bfbfbf" points="144.5,-0.5 144.5,-19.5 197.5,-19.5 197.5,-0.5 144.5,-0.5"/>
<text text-anchor="middle" x="171" y="-7.5" font-family="Helvetica,sans-Serif" font-size="10.00">stdint.h</text>
</g>
<!-- Node1&#45;&gt;Node2 -->
<g id="edge1" class="edge"><title>Node1&#45;&gt;Node2</title>
<path fill="none" stroke="midnightblue" d="M705.929,-398.526C520.052,-390.599 0,-362.07 0,-291 0,-291 0,-291 0,-121 0,-57.5934 84.1879,-29.0106 134.421,-17.5994"/>
<polygon fill="midnightblue" stroke="midnightblue" points="135.24,-21.0034 144.281,-15.4797 133.769,-14.1597 135.24,-21.0034"/>
</g>
<!-- Node3 -->
<g id="node3" class="node"><title>Node3</title>
<polygon fill="white" stroke="#bfbfbf" points="1164.5,-112.5 1164.5,-131.5 1211.5,-131.5 1211.5,-112.5 1164.5,-112.5"/>
<text text-anchor="middle" x="1188" y="-119.5" font-family="Helvetica,sans-Serif" font-size="10.00">vector</text>
</g>
<!-- Node1&#45;&gt;Node3 -->
<g id="edge2" class="edge"><title>Node1&#45;&gt;Node3</title>
<path fill="none" stroke="midnightblue" d="M785.651,-392.352C832.902,-364.317 985.159,-272.84 1105,-188 1128.02,-171.7 1153.41,-151.465 1169.97,-137.943"/>
<polygon fill="midnightblue" stroke="midnightblue" points="1172.26,-140.591 1177.76,-131.539 1167.82,-135.182 1172.26,-140.591"/>
</g>
<!-- Node4 -->
<g id="node4" class="node"><title>Node4</title>
<g id="a_node4"><a xlink:href="transaction_8h.html" target="_top" xlink:title="primitives/transaction.h">
<polygon fill="white" stroke="black" points="613.5,-280.5 613.5,-299.5 742.5,-299.5 742.5,-280.5 613.5,-280.5"/>
<text text-anchor="middle" x="678" y="-287.5" font-family="Helvetica,sans-Serif" font-size="10.00">primitives/transaction.h</text>
</a>
</g>
</g>
<!-- Node1&#45;&gt;Node4 -->
<g id="edge3" class="edge"><title>Node1&#45;&gt;Node4</title>
<path fill="none" stroke="midnightblue" d="M756.456,-392.484C743.542,-384.37 724.789,-371.166 712,-356 700.093,-341.88 690.765,-322.897 684.915,-309.092"/>
<polygon fill="midnightblue" stroke="midnightblue" points="688.119,-307.679 681.135,-299.712 681.627,-310.295 688.119,-307.679"/>
</g>
<!-- Node29 -->
<g id="node29" class="node"><title>Node29</title>
<g id="a_node29"><a xlink:href="uint256_8h.html" target="_top" xlink:title="uint256.h">
<polygon fill="white" stroke="black" points="1180,-224.5 1180,-243.5 1242,-243.5 1242,-224.5 1180,-224.5"/>
<text text-anchor="middle" x="1211" y="-231.5" font-family="Helvetica,sans-Serif" font-size="10.00">uint256.h</text>
</a>
</g>
</g>
<!-- Node1&#45;&gt;Node29 -->
<g id="edge63" class="edge"><title>Node1&#45;&gt;Node29</title>
<path fill="none" stroke="midnightblue" d="M836.099,-401.608C934.805,-401.228 1116.13,-395.03 1166,-356 1197.81,-331.1 1207.14,-281.278 1209.87,-253.973"/>
<polygon fill="midnightblue" stroke="midnightblue" points="1213.37,-254.035 1210.68,-243.788 1206.4,-253.477 1213.37,-254.035"/>
</g>
<!-- Node31 -->
<g id="node31" class="node"><title>Node31</title>
<g id="a_node31"><a xlink:href="block_8h.html" target="_top" xlink:title="primitives/block.h">
<polygon fill="white" stroke="black" points="721,-336.5 721,-355.5 821,-355.5 821,-336.5 721,-336.5"/>
<text text-anchor="middle" x="771" y="-343.5" font-family="Helvetica,sans-Serif" font-size="10.00">primitives/block.h</text>
</a>
</g>
</g>
<!-- Node1&#45;&gt;Node31 -->
<g id="edge59" class="edge"><title>Node1&#45;&gt;Node31</title>
<path fill="none" stroke="midnightblue" d="M771,-392.083C771,-385.006 771,-374.861 771,-365.986"/>
<polygon fill="midnightblue" stroke="midnightblue" points="774.5,-365.751 771,-355.751 767.5,-365.751 774.5,-365.751"/>
</g>
<!-- Node4&#45;&gt;Node2 -->
<g id="edge4" class="edge"><title>Node4&#45;&gt;Node2</title>
<path fill="none" stroke="midnightblue" d="M613.408,-284.631C450.907,-272.777 38,-236.956 38,-179 38,-179 38,-179 38,-121 38,-70.5873 95.4436,-38.9269 134.827,-23.1445"/>
<polygon fill="midnightblue" stroke="midnightblue" points="136.321,-26.3204 144.405,-19.4724 133.815,-19.7843 136.321,-26.3204"/>
</g>
<!-- Node5 -->
<g id="node5" class="node"><title>Node5</title>
<g id="a_node5"><a xlink:href="amount_8h.html" target="_top" xlink:title="amount.h">
<polygon fill="white" stroke="black" points="311.5,-224.5 311.5,-243.5 374.5,-243.5 374.5,-224.5 311.5,-224.5"/>
<text text-anchor="middle" x="343" y="-231.5" font-family="Helvetica,sans-Serif" font-size="10.00">amount.h</text>
</a>
</g>
</g>
<!-- Node4&#45;&gt;Node5 -->
<g id="edge5" class="edge"><title>Node4&#45;&gt;Node5</title>
<path fill="none" stroke="midnightblue" d="M624.918,-280.444C558.296,-269.704 445.413,-251.508 384.665,-241.716"/>
<polygon fill="midnightblue" stroke="midnightblue" points="385.094,-238.24 374.664,-240.104 383.98,-245.151 385.094,-238.24"/>
</g>
<!-- Node6 -->
<g id="node6" class="node"><title>Node6</title>
<g id="a_node6"><a xlink:href="script_8h.html" target="_top" xlink:title="script/script.h">
<polygon fill="white" stroke="black" points="565.5,-224.5 565.5,-243.5 646.5,-243.5 646.5,-224.5 565.5,-224.5"/>
<text text-anchor="middle" x="606" y="-231.5" font-family="Helvetica,sans-Serif" font-size="10.00">script/script.h</text>
</a>
</g>
</g>
<!-- Node4&#45;&gt;Node6 -->
<g id="edge7" class="edge"><title>Node4&#45;&gt;Node6</title>
<path fill="none" stroke="midnightblue" d="M666.432,-280.324C655.58,-272.185 639.119,-259.839 626.117,-250.087"/>
<polygon fill="midnightblue" stroke="midnightblue" points="627.879,-247.034 617.779,-243.834 623.679,-252.634 627.879,-247.034"/>
</g>
<!-- Node18 -->
<g id="node18" class="node"><title>Node18</title>
<g id="a_node18"><a xlink:href="serialize_8h.html" target="_top" xlink:title="serialize.h">
<polygon fill="white" stroke="black" points="706.5,-168.5 706.5,-187.5 771.5,-187.5 771.5,-168.5 706.5,-168.5"/>
<text text-anchor="middle" x="739" y="-175.5" font-family="Helvetica,sans-Serif" font-size="10.00">serialize.h</text>
</a>
</g>
</g>
<!-- Node4&#45;&gt;Node18 -->
<g id="edge51" class="edge"><title>Node4&#45;&gt;Node18</title>
<path fill="none" stroke="midnightblue" d="M682.787,-280.368C692.764,-262.376 715.958,-220.55 729.225,-196.627"/>
<polygon fill="midnightblue" stroke="midnightblue" points="732.447,-198.034 734.236,-187.591 726.325,-194.639 732.447,-198.034"/>
</g>
<!-- Node4&#45;&gt;Node29 -->
<g id="edge52" class="edge"><title>Node4&#45;&gt;Node29</title>
<path fill="none" stroke="midnightblue" d="M742.558,-282.459C853.576,-271.212 1077.6,-248.515 1169.86,-239.168"/>
<polygon fill="midnightblue" stroke="midnightblue" points="1170.33,-242.638 1179.93,-238.148 1169.63,-235.674 1170.33,-242.638"/>
</g>
<!-- Node5&#45;&gt;Node2 -->
<g id="edge6" class="edge"><title>Node5&#45;&gt;Node2</title>
<path fill="none" stroke="midnightblue" d="M311.367,-231.97C251.793,-229.292 126.546,-219.913 100,-188 62.4829,-142.897 71.7222,-107.402 100,-56 107.887,-41.6632 122.486,-31.2525 136.403,-24.0792"/>
<polygon fill="midnightblue" stroke="midnightblue" points="138.292,-27.0578 145.839,-19.6217 135.302,-20.7285 138.292,-27.0578"/>
</g>
<!-- Node6&#45;&gt;Node2 -->
<g id="edge47" class="edge"><title>Node6&#45;&gt;Node2</title>
<path fill="none" stroke="midnightblue" d="M565.246,-231.395C465.291,-227.075 214.132,-213.747 187,-188 143.392,-146.618 156.896,-65.6946 165.837,-29.3926"/>
<polygon fill="midnightblue" stroke="midnightblue" points="169.24,-30.2134 168.397,-19.6521 162.47,-28.434 169.24,-30.2134"/>
</g>
<!-- Node6&#45;&gt;Node3 -->
<g id="edge50" class="edge"><title>Node6&#45;&gt;Node3</title>
<path fill="none" stroke="midnightblue" d="M646.672,-232.275C716.26,-230.12 862.07,-221.599 980,-188 1000.27,-182.225 1003.21,-175.243 1023,-168 1023.2,-167.927 1106.56,-145.201 1154.7,-132.077"/>
<polygon fill="midnightblue" stroke="midnightblue" points="1155.67,-135.441 1164.4,-129.434 1153.83,-128.687 1155.67,-135.441"/>
</g>
<!-- Node7 -->
<g id="node7" class="node"><title>Node7</title>
<g id="a_node7"><a xlink:href="common_8h.html" target="_top" xlink:title="crypto/common.h">
<polygon fill="white" stroke="black" points="196.5,-168.5 196.5,-187.5 297.5,-187.5 297.5,-168.5 196.5,-168.5"/>
<text text-anchor="middle" x="247" y="-175.5" font-family="Helvetica,sans-Serif" font-size="10.00">crypto/common.h</text>
</a>
</g>
</g>
<!-- Node6&#45;&gt;Node7 -->
<g id="edge8" class="edge"><title>Node6&#45;&gt;Node7</title>
<path fill="none" stroke="midnightblue" d="M565.235,-226.918C509.438,-218.586 405.862,-203.094 307.629,-188.244"/>
<polygon fill="midnightblue" stroke="midnightblue" points="307.94,-184.751 297.529,-186.716 306.893,-191.672 307.94,-184.751"/>
</g>
<!-- Node8 -->
<g id="node8" class="node"><title>Node8</title>
<polygon fill="white" stroke="#bfbfbf" points="346.5,-56.5 346.5,-75.5 399.5,-75.5 399.5,-56.5 346.5,-56.5"/>
<text text-anchor="middle" x="373" y="-63.5" font-family="Helvetica,sans-Serif" font-size="10.00">string.h</text>
</g>
<!-- Node6&#45;&gt;Node8 -->
<g id="edge48" class="edge"><title>Node6&#45;&gt;Node8</title>
<path fill="none" stroke="midnightblue" d="M566.663,-224.487C519.3,-212.195 440.577,-184.902 396,-132 384.801,-118.71 378.907,-99.5873 375.903,-85.5228"/>
<polygon fill="midnightblue" stroke="midnightblue" points="379.317,-84.738 374.067,-75.5357 372.433,-86.0037 379.317,-84.738"/>
</g>
<!-- Node11 -->
<g id="node11" class="node"><title>Node11</title>
<g id="a_node11"><a xlink:href="prevector_8h.html" target="_top" xlink:title="prevector.h">
<polygon fill="white" stroke="black" points="503.5,-112.5 503.5,-131.5 574.5,-131.5 574.5,-112.5 503.5,-112.5"/>
<text text-anchor="middle" x="539" y="-119.5" font-family="Helvetica,sans-Serif" font-size="10.00">prevector.h</text>
</a>
</g>
</g>
<!-- Node6&#45;&gt;Node11 -->
<g id="edge15" class="edge"><title>Node6&#45;&gt;Node11</title>
<path fill="none" stroke="midnightblue" d="M600.743,-224.368C589.735,-206.296 564.08,-164.176 549.542,-140.307"/>
<polygon fill="midnightblue" stroke="midnightblue" points="552.424,-138.311 544.233,-131.591 546.446,-141.953 552.424,-138.311"/>
</g>
<!-- Node12 -->
<g id="node12" class="node"><title>Node12</title>
<polygon fill="white" stroke="#bfbfbf" points="1027,-56.5 1027,-75.5 1083,-75.5 1083,-56.5 1027,-56.5"/>
<text text-anchor="middle" x="1055" y="-63.5" font-family="Helvetica,sans-Serif" font-size="10.00">assert.h</text>
</g>
<!-- Node6&#45;&gt;Node12 -->
<g id="edge43" class="edge"><title>Node6&#45;&gt;Node12</title>
<path fill="none" stroke="midnightblue" d="M646.708,-225.231C745.944,-206.002 994.392,-156.013 1024,-132 1038.39,-120.327 1046.51,-100.382 1050.8,-85.6563"/>
<polygon fill="midnightblue" stroke="midnightblue" points="1054.27,-86.1924 1053.37,-75.6364 1047.49,-84.4534 1054.27,-86.1924"/>
</g>
<!-- Node6&#45;&gt;Node18 -->
<g id="edge24" class="edge"><title>Node6&#45;&gt;Node18</title>
<path fill="none" stroke="midnightblue" d="M627.074,-224.444C649.06,-215.517 683.734,-201.439 708.664,-191.317"/>
<polygon fill="midnightblue" stroke="midnightblue" points="710.076,-194.521 718.024,-187.516 707.442,-188.035 710.076,-194.521"/>
</g>
<!-- Node20 -->
<g id="node20" class="node"><title>Node20</title>
<polygon fill="white" stroke="#bfbfbf" points="405,-112.5 405,-131.5 447,-131.5 447,-112.5 405,-112.5"/>
<text text-anchor="middle" x="426" y="-119.5" font-family="Helvetica,sans-Serif" font-size="10.00">limits</text>
</g>
<!-- Node6&#45;&gt;Node20 -->
<g id="edge45" class="edge"><title>Node6&#45;&gt;Node20</title>
<path fill="none" stroke="midnightblue" d="M591.876,-224.368C560.856,-205.412 486.546,-160.001 448.815,-136.942"/>
<polygon fill="midnightblue" stroke="midnightblue" points="450.417,-133.819 440.059,-131.591 446.766,-139.792 450.417,-133.819"/>
</g>
<!-- Node24 -->
<g id="node24" class="node"><title>Node24</title>
<polygon fill="white" stroke="#bfbfbf" points="1102,-112.5 1102,-131.5 1146,-131.5 1146,-112.5 1102,-112.5"/>
<text text-anchor="middle" x="1124" y="-119.5" font-family="Helvetica,sans-Serif" font-size="10.00">string</text>
</g>
<!-- Node6&#45;&gt;Node24 -->
<g id="edge49" class="edge"><title>Node6&#45;&gt;Node24</title>
<path fill="none" stroke="midnightblue" d="M646.758,-230.981C710.659,-227.051 837.885,-216.139 942,-188 964.311,-181.97 968.365,-176.128 990,-168 1024.43,-155.066 1064.46,-141.855 1091.75,-133.123"/>
<polygon fill="midnightblue" stroke="midnightblue" points="1093.07,-136.373 1101.54,-130.005 1090.95,-129.703 1093.07,-136.373"/>
</g>
<!-- Node27 -->
<g id="node27" class="node"><title>Node27</title>
<polygon fill="white" stroke="#bfbfbf" points="315.5,-168.5 315.5,-187.5 362.5,-187.5 362.5,-168.5 315.5,-168.5"/>
<text text-anchor="middle" x="339" y="-175.5" font-family="Helvetica,sans-Serif" font-size="10.00">climits</text>
</g>
<!-- Node6&#45;&gt;Node27 -->
<g id="edge44" class="edge"><title>Node6&#45;&gt;Node27</title>
<path fill="none" stroke="midnightblue" d="M565.364,-225.504C519.507,-216.932 442.735,-202.237 377,-188 375.551,-187.686 374.071,-187.36 372.578,-187.026"/>
<polygon fill="midnightblue" stroke="midnightblue" points="373.214,-183.581 362.685,-184.758 371.65,-190.404 373.214,-183.581"/>
</g>
<!-- Node28 -->
<g id="node28" class="node"><title>Node28</title>
<polygon fill="white" stroke="#bfbfbf" points="1032,-168.5 1032,-187.5 1096,-187.5 1096,-168.5 1032,-168.5"/>
<text text-anchor="middle" x="1064" y="-175.5" font-family="Helvetica,sans-Serif" font-size="10.00">stdexcept</text>
</g>
<!-- Node6&#45;&gt;Node28 -->
<g id="edge46" class="edge"><title>Node6&#45;&gt;Node28</title>
<path fill="none" stroke="midnightblue" d="M646.79,-229.695C720.938,-223.431 882.667,-208.592 1018,-188 1019.27,-187.807 1020.55,-187.604 1021.85,-187.393"/>
<polygon fill="midnightblue" stroke="midnightblue" points="1022.64,-190.808 1031.89,-185.641 1021.44,-183.912 1022.64,-190.808"/>
</g>
<!-- Node7&#45;&gt;Node2 -->
<g id="edge9" class="edge"><title>Node7&#45;&gt;Node2</title>
<path fill="none" stroke="midnightblue" d="M231.635,-168.377C219.176,-160.545 202.222,-147.813 193,-132 174.15,-99.6774 170.798,-54.9055 170.559,-29.8757"/>
<polygon fill="midnightblue" stroke="midnightblue" points="174.061,-29.6211 170.631,-19.597 167.061,-29.5724 174.061,-29.6211"/>
</g>
<!-- Node7&#45;&gt;Node8 -->
<g id="edge10" class="edge"><title>Node7&#45;&gt;Node8</title>
<path fill="none" stroke="midnightblue" d="M260.298,-168.291C273.187,-159.635 293.07,-145.706 309,-132 326.895,-116.604 345.649,-97.0992 358.195,-83.4908"/>
<polygon fill="midnightblue" stroke="midnightblue" points="360.992,-85.6178 365.141,-75.8691 355.818,-80.9027 360.992,-85.6178"/>
</g>
<!-- Node9 -->
<g id="node9" class="node"><title>Node9</title>
<g id="a_node9"><a xlink:href="endian_8h.html" target="_top" xlink:title="compat/endian.h">
<polygon fill="white" stroke="black" points="202,-112.5 202,-131.5 300,-131.5 300,-112.5 202,-112.5"/>
<text text-anchor="middle" x="251" y="-119.5" font-family="Helvetica,sans-Serif" font-size="10.00">compat/endian.h</text>
</a>
</g>
</g>
<!-- Node7&#45;&gt;Node9 -->
<g id="edge11" class="edge"><title>Node7&#45;&gt;Node9</title>
<path fill="none" stroke="midnightblue" d="M247.661,-168.083C248.185,-161.006 248.936,-150.861 249.594,-141.986"/>
<polygon fill="midnightblue" stroke="midnightblue" points="253.103,-141.982 250.352,-131.751 246.123,-141.465 253.103,-141.982"/>
</g>
<!-- Node9&#45;&gt;Node2 -->
<g id="edge14" class="edge"><title>Node9&#45;&gt;Node2</title>
<path fill="none" stroke="midnightblue" d="M241.681,-112.22C232.719,-103.511 219.083,-89.5435 209,-76 197.803,-60.9607 187.224,-42.3685 180.085,-28.9262"/>
<polygon fill="midnightblue" stroke="midnightblue" points="183.058,-27.0567 175.344,-19.7948 176.846,-30.2826 183.058,-27.0567"/>
</g>
<!-- Node10 -->
<g id="node10" class="node"><title>Node10</title>
<g id="a_node10"><a xlink:href="byteswap_8h.html" target="_top" xlink:title="compat/byteswap.h">
<polygon fill="white" stroke="black" points="218,-56.5 218,-75.5 328,-75.5 328,-56.5 218,-56.5"/>
<text text-anchor="middle" x="273" y="-63.5" font-family="Helvetica,sans-Serif" font-size="10.00">compat/byteswap.h</text>
</a>
</g>
</g>
<!-- Node9&#45;&gt;Node10 -->
<g id="edge12" class="edge"><title>Node9&#45;&gt;Node10</title>
<path fill="none" stroke="midnightblue" d="M254.633,-112.083C257.612,-104.77 261.926,-94.1814 265.625,-85.1034"/>
<polygon fill="midnightblue" stroke="midnightblue" points="268.903,-86.3326 269.435,-75.7511 262.42,-83.6914 268.903,-86.3326"/>
</g>
<!-- Node10&#45;&gt;Node2 -->
<g id="edge13" class="edge"><title>Node10&#45;&gt;Node2</title>
<path fill="none" stroke="midnightblue" d="M256.612,-56.324C240.329,-47.7034 215.133,-34.3643 196.284,-24.3855"/>
<polygon fill="midnightblue" stroke="midnightblue" points="197.823,-21.2402 187.347,-19.6545 194.548,-27.4267 197.823,-21.2402"/>
</g>
<!-- Node11&#45;&gt;Node2 -->
<g id="edge18" class="edge"><title>Node11&#45;&gt;Node2</title>
<path fill="none" stroke="midnightblue" d="M521.314,-112.472C502.755,-103.494 472.754,-88.9007 447,-76 429.583,-67.2756 426.424,-62.326 408,-56 339.32,-32.4181 254.955,-20.1372 207.657,-14.6668"/>
<polygon fill="midnightblue" stroke="midnightblue" points="207.911,-11.1736 197.584,-13.5406 207.134,-18.1302 207.911,-11.1736"/>
</g>
<!-- Node11&#45;&gt;Node8 -->
<g id="edge19" class="edge"><title>Node11&#45;&gt;Node8</title>
<path fill="none" stroke="midnightblue" d="M512.697,-112.444C484.649,-103.32 440.056,-88.8133 408.816,-78.6509"/>
<polygon fill="midnightblue" stroke="midnightblue" points="409.772,-75.2816 399.18,-75.5164 407.607,-81.9383 409.772,-75.2816"/>
</g>
<!-- Node11&#45;&gt;Node12 -->
<g id="edge16" class="edge"><title>Node11&#45;&gt;Node12</title>
<path fill="none" stroke="midnightblue" d="M574.963,-113.318C577.677,-112.839 580.378,-112.392 583,-112 743.306,-88.0332 936.255,-74.3124 1016.79,-69.2551"/>
<polygon fill="midnightblue" stroke="midnightblue" points="1017.18,-72.7377 1026.94,-68.6262 1016.75,-65.7511 1017.18,-72.7377"/>
</g>
<!-- Node13 -->
<g id="node13" class="node"><title>Node13</title>
<polygon fill="white" stroke="#bfbfbf" points="526.5,-56.5 526.5,-75.5 577.5,-75.5 577.5,-56.5 526.5,-56.5"/>
<text text-anchor="middle" x="552" y="-63.5" font-family="Helvetica,sans-Serif" font-size="10.00">stdlib.h</text>
</g>
<!-- Node11&#45;&gt;Node13 -->
<g id="edge17" class="edge"><title>Node11&#45;&gt;Node13</title>
<path fill="none" stroke="midnightblue" d="M541.147,-112.083C542.869,-104.927 545.347,-94.6353 547.5,-85.6911"/>
<polygon fill="midnightblue" stroke="midnightblue" points="550.955,-86.2925 549.893,-75.7511 544.15,-84.6541 550.955,-86.2925"/>
</g>
<!-- Node14 -->
<g id="node14" class="node"><title>Node14</title>
<polygon fill="white" stroke="#bfbfbf" points="752,-56.5 752,-75.5 814,-75.5 814,-56.5 752,-56.5"/>
<text text-anchor="middle" x="783" y="-63.5" font-family="Helvetica,sans-Serif" font-size="10.00">algorithm</text>
</g>
<!-- Node11&#45;&gt;Node14 -->
<g id="edge20" class="edge"><title>Node11&#45;&gt;Node14</title>
<path fill="none" stroke="midnightblue" d="M574.756,-113.16C613.504,-104.654 677.429,-90.5903 742.041,-76.2068"/>
<polygon fill="midnightblue" stroke="midnightblue" points="742.994,-79.5804 751.994,-73.9898 741.472,-72.7478 742.994,-79.5804"/>
</g>
<!-- Node15 -->
<g id="node15" class="node"><title>Node15</title>
<polygon fill="white" stroke="#bfbfbf" points="596,-56.5 596,-75.5 648,-75.5 648,-56.5 596,-56.5"/>
<text text-anchor="middle" x="622" y="-63.5" font-family="Helvetica,sans-Serif" font-size="10.00">cstddef</text>
</g>
<!-- Node11&#45;&gt;Node15 -->
<g id="edge21" class="edge"><title>Node11&#45;&gt;Node15</title>
<path fill="none" stroke="midnightblue" d="M552.335,-112.324C565.162,-103.979 584.785,-91.2122 599.94,-81.3524"/>
<polygon fill="midnightblue" stroke="midnightblue" points="602.224,-84.0417 608.698,-75.6545 598.407,-78.1742 602.224,-84.0417"/>
</g>
<!-- Node16 -->
<g id="node16" class="node"><title>Node16</title>
<polygon fill="white" stroke="#bfbfbf" points="456,-56.5 456,-75.5 508,-75.5 508,-56.5 456,-56.5"/>
<text text-anchor="middle" x="482" y="-63.5" font-family="Helvetica,sans-Serif" font-size="10.00">iterator</text>
</g>
<!-- Node11&#45;&gt;Node16 -->
<g id="edge22" class="edge"><title>Node11&#45;&gt;Node16</title>
<path fill="none" stroke="midnightblue" d="M529.842,-112.324C521.499,-104.42 508.968,-92.5482 498.823,-82.9377"/>
<polygon fill="midnightblue" stroke="midnightblue" points="500.991,-80.1705 491.325,-75.8339 496.177,-85.2522 500.991,-80.1705"/>
</g>
<!-- Node17 -->
<g id="node17" class="node"><title>Node17</title>
<polygon fill="white" stroke="#bfbfbf" points="666,-56.5 666,-75.5 734,-75.5 734,-56.5 666,-56.5"/>
<text text-anchor="middle" x="700" y="-63.5" font-family="Helvetica,sans-Serif" font-size="10.00">type_traits</text>
</g>
<!-- Node11&#45;&gt;Node17 -->
<g id="edge23" class="edge"><title>Node11&#45;&gt;Node17</title>
<path fill="none" stroke="midnightblue" d="M564.511,-112.444C591.596,-103.359 634.59,-88.9388 664.869,-78.7831"/>
<polygon fill="midnightblue" stroke="midnightblue" points="666.24,-82.0148 674.608,-75.5164 664.014,-75.3781 666.24,-82.0148"/>
</g>
<!-- Node18&#45;&gt;Node2 -->
<g id="edge33" class="edge"><title>Node18&#45;&gt;Node2</title>
<path fill="none" stroke="midnightblue" d="M723.942,-168.385C704.117,-155.945 673.493,-132.223 689,-112 728.277,-60.7784 867.042,-103.187 823,-56 780.925,-10.9206 340.152,-9.95237 208.15,-10.6858"/>
<polygon fill="midnightblue" stroke="midnightblue" points="207.743,-7.18817 197.765,-10.7507 207.787,-14.188 207.743,-7.18817"/>
</g>
<!-- Node18&#45;&gt;Node3 -->
<g id="edge37" class="edge"><title>Node18&#45;&gt;Node3</title>
<path fill="none" stroke="midnightblue" d="M771.622,-175.235C840.525,-171.131 1006.02,-159.289 1154.13,-131.859"/>
<polygon fill="midnightblue" stroke="midnightblue" points="1155.13,-135.232 1164.31,-129.943 1153.84,-128.353 1155.13,-135.232"/>
</g>
<!-- Node18&#45;&gt;Node8 -->
<g id="edge35" class="edge"><title>Node18&#45;&gt;Node8</title>
<path fill="none" stroke="midnightblue" d="M706.464,-174.268C658.739,-169.543 567.457,-157.762 494,-132 491.467,-131.112 432.63,-99.313 397.951,-80.5281"/>
<polygon fill="midnightblue" stroke="midnightblue" points="399.337,-77.2982 388.877,-75.6114 396.002,-83.4528 399.337,-77.2982"/>
</g>
<!-- Node18&#45;&gt;Node9 -->
<g id="edge25" class="edge"><title>Node18&#45;&gt;Node9</title>
<path fill="none" stroke="midnightblue" d="M706.223,-173.373C625.048,-164.391 413.76,-141.01 310.1,-129.54"/>
<polygon fill="midnightblue" stroke="midnightblue" points="310.435,-126.056 300.111,-128.434 309.665,-133.013 310.435,-126.056"/>
</g>
<!-- Node18&#45;&gt;Node11 -->
<g id="edge38" class="edge"><title>Node18&#45;&gt;Node11</title>
<path fill="none" stroke="midnightblue" d="M707.309,-168.444C672.932,-159.162 617.923,-144.309 580.211,-134.127"/>
<polygon fill="midnightblue" stroke="midnightblue" points="581.109,-130.744 570.542,-131.516 579.284,-137.502 581.109,-130.744"/>
</g>
<!-- Node18&#45;&gt;Node12 -->
<g id="edge27" class="edge"><title>Node18&#45;&gt;Node12</title>
<path fill="none" stroke="midnightblue" d="M771.831,-174.036C832.549,-168.111 959.694,-153.5 998,-132 1018.16,-120.685 1034.7,-99.4543 1044.67,-84.3367"/>
<polygon fill="midnightblue" stroke="midnightblue" points="1047.64,-86.1849 1050.01,-75.8572 1041.72,-82.4566 1047.64,-86.1849"/>
</g>
<!-- Node18&#45;&gt;Node14 -->
<g id="edge26" class="edge"><title>Node18&#45;&gt;Node14</title>
<path fill="none" stroke="midnightblue" d="M771.627,-175.841C831.005,-172.971 953.009,-163.317 979,-132 1022.45,-79.6512 893.792,-69.1951 824.304,-67.2889"/>
<polygon fill="midnightblue" stroke="midnightblue" points="824.178,-63.7853 814.102,-67.0585 824.02,-70.7835 824.178,-63.7853"/>
</g>
<!-- Node19 -->
<g id="node19" class="node"><title>Node19</title>
<polygon fill="white" stroke="#bfbfbf" points="698,-112.5 698,-131.5 728,-131.5 728,-112.5 698,-112.5"/>
<text text-anchor="middle" x="713" y="-119.5" font-family="Helvetica,sans-Serif" font-size="10.00">ios</text>
</g>
<!-- Node18&#45;&gt;Node19 -->
<g id="edge28" class="edge"><title>Node18&#45;&gt;Node19</title>
<path fill="none" stroke="midnightblue" d="M734.707,-168.083C731.148,-160.691 725.978,-149.953 721.576,-140.811"/>
<polygon fill="midnightblue" stroke="midnightblue" points="724.705,-139.243 717.213,-131.751 718.398,-142.279 724.705,-139.243"/>
</g>
<!-- Node18&#45;&gt;Node20 -->
<g id="edge29" class="edge"><title>Node18&#45;&gt;Node20</title>
<path fill="none" stroke="midnightblue" d="M706.295,-172.692C654.148,-165.602 549.058,-150.409 461,-132 459.722,-131.733 458.42,-131.45 457.107,-131.155"/>
<polygon fill="midnightblue" stroke="midnightblue" points="457.567,-127.666 447.026,-128.738 455.935,-134.473 457.567,-127.666"/>
</g>
<!-- Node21 -->
<g id="node21" class="node"><title>Node21</title>
<polygon fill="white" stroke="#bfbfbf" points="746,-112.5 746,-131.5 784,-131.5 784,-112.5 746,-112.5"/>
<text text-anchor="middle" x="765" y="-119.5" font-family="Helvetica,sans-Serif" font-size="10.00">map</text>
</g>
<!-- Node18&#45;&gt;Node21 -->
<g id="edge30" class="edge"><title>Node18&#45;&gt;Node21</title>
<path fill="none" stroke="midnightblue" d="M743.293,-168.083C746.852,-160.691 752.022,-149.953 756.424,-140.811"/>
<polygon fill="midnightblue" stroke="midnightblue" points="759.602,-142.279 760.787,-131.751 753.295,-139.243 759.602,-142.279"/>
</g>
<!-- Node22 -->
<g id="node22" class="node"><title>Node22</title>
<polygon fill="white" stroke="#bfbfbf" points="802.5,-112.5 802.5,-131.5 859.5,-131.5 859.5,-112.5 802.5,-112.5"/>
<text text-anchor="middle" x="831" y="-119.5" font-family="Helvetica,sans-Serif" font-size="10.00">memory</text>
</g>
<!-- Node18&#45;&gt;Node22 -->
<g id="edge31" class="edge"><title>Node18&#45;&gt;Node22</title>
<path fill="none" stroke="midnightblue" d="M753.781,-168.324C768.267,-159.822 790.573,-146.729 807.493,-136.797"/>
<polygon fill="midnightblue" stroke="midnightblue" points="809.403,-139.735 816.255,-131.655 805.859,-133.698 809.403,-139.735"/>
</g>
<!-- Node23 -->
<g id="node23" class="node"><title>Node23</title>
<polygon fill="white" stroke="#bfbfbf" points="878,-112.5 878,-131.5 910,-131.5 910,-112.5 878,-112.5"/>
<text text-anchor="middle" x="894" y="-119.5" font-family="Helvetica,sans-Serif" font-size="10.00">set</text>
</g>
<!-- Node18&#45;&gt;Node23 -->
<g id="edge32" class="edge"><title>Node18&#45;&gt;Node23</title>
<path fill="none" stroke="midnightblue" d="M763.56,-168.444C792.119,-158.494 839.049,-142.144 868.148,-132.006"/>
<polygon fill="midnightblue" stroke="midnightblue" points="869.346,-135.296 877.638,-128.7 867.043,-128.685 869.346,-135.296"/>
</g>
<!-- Node18&#45;&gt;Node24 -->
<g id="edge34" class="edge"><title>Node18&#45;&gt;Node24</title>
<path fill="none" stroke="midnightblue" d="M771.825,-172.396C844.643,-162.183 1018.98,-137.73 1091.5,-127.559"/>
<polygon fill="midnightblue" stroke="midnightblue" points="1092.42,-130.964 1101.83,-126.109 1091.45,-124.032 1092.42,-130.964"/>
</g>
<!-- Node25 -->
<g id="node25" class="node"><title>Node25</title>
<polygon fill="white" stroke="#bfbfbf" points="928,-112.5 928,-131.5 970,-131.5 970,-112.5 928,-112.5"/>
<text text-anchor="middle" x="949" y="-119.5" font-family="Helvetica,sans-Serif" font-size="10.00">utility</text>
</g>
<!-- Node18&#45;&gt;Node25 -->
<g id="edge36" class="edge"><title>Node18&#45;&gt;Node25</title>
<path fill="none" stroke="midnightblue" d="M771.636,-169.324C805.812,-161.179 861.264,-147.667 917.894,-132.215"/>
<polygon fill="midnightblue" stroke="midnightblue" points="919.013,-135.537 927.73,-129.514 917.16,-128.787 919.013,-135.537"/>
</g>
<!-- Node26 -->
<g id="node26" class="node"><title>Node26</title>
<g id="a_node26"><a xlink:href="span_8h.html" target="_top" xlink:title="span.h">
<polygon fill="white" stroke="black" points="592.5,-112.5 592.5,-131.5 641.5,-131.5 641.5,-112.5 592.5,-112.5"/>
<text text-anchor="middle" x="617" y="-119.5" font-family="Helvetica,sans-Serif" font-size="10.00">span.h</text>
</a>
</g>
</g>
<!-- Node18&#45;&gt;Node26 -->
<g id="edge39" class="edge"><title>Node18&#45;&gt;Node26</title>
<path fill="none" stroke="midnightblue" d="M719.669,-168.444C699.68,-159.596 668.257,-145.687 645.436,-135.586"/>
<polygon fill="midnightblue" stroke="midnightblue" points="646.802,-132.363 636.241,-131.516 643.968,-138.764 646.802,-132.363"/>
</g>
<!-- Node26&#45;&gt;Node14 -->
<g id="edge42" class="edge"><title>Node26&#45;&gt;Node14</title>
<path fill="none" stroke="midnightblue" d="M641.852,-112.916C669.682,-103.862 715.04,-89.1073 746.807,-78.7735"/>
<polygon fill="midnightblue" stroke="midnightblue" points="748.178,-82.0084 756.604,-75.5865 746.012,-75.3517 748.178,-82.0084"/>
</g>
<!-- Node26&#45;&gt;Node15 -->
<g id="edge41" class="edge"><title>Node26&#45;&gt;Node15</title>
<path fill="none" stroke="midnightblue" d="M617.826,-112.083C618.481,-105.006 619.42,-94.8611 620.242,-85.9865"/>
<polygon fill="midnightblue" stroke="midnightblue" points="623.753,-86.0312 621.19,-75.7511 616.783,-85.3858 623.753,-86.0312"/>
</g>
<!-- Node26&#45;&gt;Node17 -->
<g id="edge40" class="edge"><title>Node26&#45;&gt;Node17</title>
<path fill="none" stroke="midnightblue" d="M630.335,-112.324C643.162,-103.979 662.785,-91.2122 677.94,-81.3524"/>
<polygon fill="midnightblue" stroke="midnightblue" points="680.224,-84.0417 686.698,-75.6545 676.407,-78.1742 680.224,-84.0417"/>
</g>
<!-- Node29&#45;&gt;Node2 -->
<g id="edge56" class="edge"><title>Node29&#45;&gt;Node2</title>
<path fill="none" stroke="midnightblue" d="M1220.02,-224.34C1228.07,-215.932 1239.3,-202.363 1244,-188 1249.82,-170.235 1247.89,-123.747 1239,-112 1196.8,-56.2557 1160.43,-70.3279 1092,-56 918.709,-19.716 357.306,-12.5383 207.841,-11.2572"/>
<polygon fill="midnightblue" stroke="midnightblue" points="207.831,-7.75708 197.802,-11.1748 207.773,-14.7568 207.831,-7.75708"/>
</g>
<!-- Node29&#45;&gt;Node3 -->
<g id="edge58" class="edge"><title>Node29&#45;&gt;Node3</title>
<path fill="none" stroke="midnightblue" d="M1209.2,-224.368C1205.48,-206.617 1196.92,-165.666 1191.89,-141.597"/>
<polygon fill="midnightblue" stroke="midnightblue" points="1195.27,-140.663 1189.8,-131.591 1188.42,-142.096 1195.27,-140.663"/>
</g>
<!-- Node29&#45;&gt;Node12 -->
<g id="edge53" class="edge"><title>Node29&#45;&gt;Node12</title>
<path fill="none" stroke="midnightblue" d="M1215.19,-224.278C1224.88,-202.71 1246.08,-146.151 1220,-112 1204.69,-91.957 1137.04,-78.6987 1093.26,-72.0467"/>
<polygon fill="midnightblue" stroke="midnightblue" points="1093.63,-68.5638 1083.23,-70.5741 1092.61,-75.4896 1093.63,-68.5638"/>
</g>
<!-- Node29&#45;&gt;Node24 -->
<g id="edge57" class="edge"><title>Node29&#45;&gt;Node24</title>
<path fill="none" stroke="midnightblue" d="M1204.17,-224.368C1189.75,-206.135 1155.97,-163.426 1137.19,-139.675"/>
<polygon fill="midnightblue" stroke="midnightblue" points="1139.74,-137.264 1130.8,-131.591 1134.25,-141.606 1139.74,-137.264"/>
</g>
<!-- Node29&#45;&gt;Node28 -->
<g id="edge55" class="edge"><title>Node29&#45;&gt;Node28</title>
<path fill="none" stroke="midnightblue" d="M1187.71,-224.444C1163.19,-215.438 1124.4,-201.189 1096.8,-191.049"/>
<polygon fill="midnightblue" stroke="midnightblue" points="1097.78,-187.679 1087.18,-187.516 1095.36,-194.25 1097.78,-187.679"/>
</g>
<!-- Node30 -->
<g id="node30" class="node"><title>Node30</title>
<polygon fill="white" stroke="#bfbfbf" points="1306.5,-168.5 1306.5,-187.5 1355.5,-187.5 1355.5,-168.5 1306.5,-168.5"/>
<text text-anchor="middle" x="1331" y="-175.5" font-family="Helvetica,sans-Serif" font-size="10.00">cstring</text>
</g>
<!-- Node29&#45;&gt;Node30 -->
<g id="edge54" class="edge"><title>Node29&#45;&gt;Node30</title>
<path fill="none" stroke="midnightblue" d="M1230.01,-224.444C1249.59,-215.636 1280.31,-201.812 1302.73,-191.722"/>
<polygon fill="midnightblue" stroke="midnightblue" points="1304.39,-194.812 1312.07,-187.516 1301.52,-188.428 1304.39,-194.812"/>
</g>
<!-- Node31&#45;&gt;Node4 -->
<g id="edge60" class="edge"><title>Node31&#45;&gt;Node4</title>
<path fill="none" stroke="midnightblue" d="M756.058,-336.324C741.415,-327.822 718.866,-314.729 701.762,-304.797"/>
<polygon fill="midnightblue" stroke="midnightblue" points="703.31,-301.649 692.905,-299.655 699.795,-307.703 703.31,-301.649"/>
</g>
<!-- Node31&#45;&gt;Node18 -->
<g id="edge61" class="edge"><title>Node31&#45;&gt;Node18</title>
<path fill="none" stroke="midnightblue" d="M769.28,-336.075C764.242,-309.945 749.45,-233.211 742.581,-197.577"/>
<polygon fill="midnightblue" stroke="midnightblue" points="745.981,-196.725 740.652,-187.568 739.108,-198.05 745.981,-196.725"/>
</g>
<!-- Node31&#45;&gt;Node29 -->
<g id="edge62" class="edge"><title>Node31&#45;&gt;Node29</title>
<path fill="none" stroke="midnightblue" d="M805.16,-336.46C885.002,-316.5 1083.59,-266.853 1169.88,-245.28"/>
<polygon fill="midnightblue" stroke="midnightblue" points="1170.98,-248.613 1179.83,-242.792 1169.28,-241.822 1170.98,-248.613"/>
</g>
</g>
</svg>
