<?xml version="1.0" encoding="UTF-8" standalone="no"?>
<!DOCTYPE svg PUBLIC "-//W3C//DTD SVG 1.1//EN"
 "http://www.w3.org/Graphics/SVG/1.1/DTD/svg11.dtd">
<!-- Generated by graphviz version 2.38.0 (20140413.2041)
 -->
<!-- Title: src/consensus/merkle.h Pages: 1 -->
<svg width="2018pt" height="420pt"
 viewBox="0.00 0.00 2017.50 420.00" xmlns="http://www.w3.org/2000/svg" xmlns:xlink="http://www.w3.org/1999/xlink">
<g id="graph0" class="graph" transform="scale(1 1) rotate(0) translate(4 416)">
<title>src/consensus/merkle.h</title>
<polygon fill="white" stroke="none" points="-4,4 -4,-416 2013.5,-416 2013.5,4 -4,4"/>
<!-- Node1 -->
<g id="node1" class="node"><title>Node1</title>
<polygon fill="#bfbfbf" stroke="black" points="1559.5,-392.5 1559.5,-411.5 1689.5,-411.5 1689.5,-392.5 1559.5,-392.5"/>
<text text-anchor="middle" x="1624.5" y="-399.5" font-family="Helvetica,sans-Serif" font-size="10.00">src/consensus/merkle.h</text>
</g>
<!-- Node2 -->
<g id="node2" class="node"><title>Node2</title>
<polygon fill="white" stroke="#bfbfbf" points="1624,-0.5 1624,-19.5 1677,-19.5 1677,-0.5 1624,-0.5"/>
<text text-anchor="middle" x="1650.5" y="-7.5" font-family="Helvetica,sans-Serif" font-size="10.00">stdint.h</text>
</g>
<!-- Node1&#45;&gt;Node2 -->
<g id="edge1" class="edge"><title>Node1&#45;&gt;Node2</title>
<path fill="none" stroke="midnightblue" d="M1559.38,-399.474C1359.39,-393.93 767.5,-370.784 767.5,-291 767.5,-291 767.5,-291 767.5,-121 767.5,-34.3206 1446.19,-15.0784 1613.54,-11.6512"/>
<polygon fill="midnightblue" stroke="midnightblue" points="1613.66,-15.1496 1623.59,-11.452 1613.52,-8.15094 1613.66,-15.1496"/>
</g>
<!-- Node3 -->
<g id="node3" class="node"><title>Node3</title>
<polygon fill="white" stroke="#bfbfbf" points="1804,-112.5 1804,-131.5 1851,-131.5 1851,-112.5 1804,-112.5"/>
<text text-anchor="middle" x="1827.5" y="-119.5" font-family="Helvetica,sans-Serif" font-size="10.00">vector</text>
</g>
<!-- Node1&#45;&gt;Node3 -->
<g id="edge2" class="edge"><title>Node1&#45;&gt;Node3</title>
<path fill="none" stroke="midnightblue" d="M1689.81,-395.839C1799.65,-385.342 2009.5,-356.692 2009.5,-291 2009.5,-291 2009.5,-291 2009.5,-233 2009.5,-164.467 1913.81,-137.486 1861.2,-127.831"/>
<polygon fill="midnightblue" stroke="midnightblue" points="1861.74,-124.373 1851.29,-126.124 1860.55,-131.271 1861.74,-124.373"/>
</g>
<!-- Node4 -->
<g id="node4" class="node"><title>Node4</title>
<g id="a_node4"><a xlink:href="transaction_8h.html" target="_top" xlink:title="primitives/transaction.h">
<polygon fill="white" stroke="black" points="1560,-280.5 1560,-299.5 1689,-299.5 1689,-280.5 1560,-280.5"/>
<text text-anchor="middle" x="1624.5" y="-287.5" font-family="Helvetica,sans-Serif" font-size="10.00">primitives/transaction.h</text>
</a>
</g>
</g>
<!-- Node1&#45;&gt;Node4 -->
<g id="edge3" class="edge"><title>Node1&#45;&gt;Node4</title>
<path fill="none" stroke="midnightblue" d="M1624.5,-392.368C1624.5,-374.617 1624.5,-333.666 1624.5,-309.597"/>
<polygon fill="midnightblue" stroke="midnightblue" points="1628,-309.591 1624.5,-299.591 1621,-309.591 1628,-309.591"/>
</g>
<!-- Node44 -->
<g id="node44" class="node"><title>Node44</title>
<g id="a_node44"><a xlink:href="uint256_8h.html" target="_top" xlink:title="uint256.h">
<polygon fill="white" stroke="black" points="1640.5,-224.5 1640.5,-243.5 1702.5,-243.5 1702.5,-224.5 1640.5,-224.5"/>
<text text-anchor="middle" x="1671.5" y="-231.5" font-family="Helvetica,sans-Serif" font-size="10.00">uint256.h</text>
</a>
</g>
</g>
<!-- Node1&#45;&gt;Node44 -->
<g id="edge79" class="edge"><title>Node1&#45;&gt;Node44</title>
<path fill="none" stroke="midnightblue" d="M1633.77,-392.377C1650.4,-376.188 1684.78,-339.317 1697.5,-300 1702.86,-283.437 1694.08,-265.06 1685.31,-252.084"/>
<polygon fill="midnightblue" stroke="midnightblue" points="1687.88,-249.666 1679.13,-243.693 1682.24,-253.819 1687.88,-249.666"/>
</g>
<!-- Node46 -->
<g id="node46" class="node"><title>Node46</title>
<g id="a_node46"><a xlink:href="block_8h.html" target="_top" xlink:title="primitives/block.h">
<polygon fill="white" stroke="black" points="1488.5,-336.5 1488.5,-355.5 1588.5,-355.5 1588.5,-336.5 1488.5,-336.5"/>
<text text-anchor="middle" x="1538.5" y="-343.5" font-family="Helvetica,sans-Serif" font-size="10.00">primitives/block.h</text>
</a>
</g>
</g>
<!-- Node1&#45;&gt;Node46 -->
<g id="edge75" class="edge"><title>Node1&#45;&gt;Node46</title>
<path fill="none" stroke="midnightblue" d="M1610.68,-392.324C1597.27,-383.9 1576.68,-370.971 1560.91,-361.074"/>
<polygon fill="midnightblue" stroke="midnightblue" points="1562.61,-358.008 1552.28,-355.655 1558.89,-363.936 1562.61,-358.008"/>
</g>
<!-- Node4&#45;&gt;Node2 -->
<g id="edge4" class="edge"><title>Node4&#45;&gt;Node2</title>
<path fill="none" stroke="midnightblue" d="M1689.2,-288.611C1762.16,-284.268 1877.84,-264.758 1933.5,-188 1941.37,-177.143 1948.1,-142.678 1930.5,-112 1907.99,-72.7601 1887.09,-73.8118 1845.5,-56 1793.02,-33.5225 1727.57,-21.3605 1687.43,-15.5322"/>
<polygon fill="midnightblue" stroke="midnightblue" points="1687.68,-12.0344 1677.3,-14.1186 1686.72,-18.9672 1687.68,-12.0344"/>
</g>
<!-- Node5 -->
<g id="node5" class="node"><title>Node5</title>
<g id="a_node5"><a xlink:href="amount_8h.html" target="_top" xlink:title="amount.h">
<polygon fill="white" stroke="black" points="1918,-224.5 1918,-243.5 1981,-243.5 1981,-224.5 1918,-224.5"/>
<text text-anchor="middle" x="1949.5" y="-231.5" font-family="Helvetica,sans-Serif" font-size="10.00">amount.h</text>
</a>
</g>
</g>
<!-- Node4&#45;&gt;Node5 -->
<g id="edge5" class="edge"><title>Node4&#45;&gt;Node5</title>
<path fill="none" stroke="midnightblue" d="M1680.7,-280.497C1737.12,-271.831 1826.46,-257.745 1903.5,-244 1904.95,-243.741 1906.43,-243.473 1907.92,-243.2"/>
<polygon fill="midnightblue" stroke="midnightblue" points="1908.67,-246.621 1917.85,-241.336 1907.38,-239.741 1908.67,-246.621"/>
</g>
<!-- Node6 -->
<g id="node6" class="node"><title>Node6</title>
<g id="a_node6"><a xlink:href="script_8h.html" target="_top" xlink:title="script/script.h">
<polygon fill="white" stroke="black" points="1376,-224.5 1376,-243.5 1457,-243.5 1457,-224.5 1376,-224.5"/>
<text text-anchor="middle" x="1416.5" y="-231.5" font-family="Helvetica,sans-Serif" font-size="10.00">script/script.h</text>
</a>
</g>
</g>
<!-- Node4&#45;&gt;Node6 -->
<g id="edge7" class="edge"><title>Node4&#45;&gt;Node6</title>
<path fill="none" stroke="midnightblue" d="M1591.54,-280.444C1555.71,-271.142 1498.34,-256.246 1459.11,-246.062"/>
<polygon fill="midnightblue" stroke="midnightblue" points="1459.86,-242.642 1449.3,-243.516 1458.1,-249.417 1459.86,-242.642"/>
</g>
<!-- Node32 -->
<g id="node32" class="node"><title>Node32</title>
<g id="a_node32"><a xlink:href="serialize_8h.html" target="_top" xlink:title="serialize.h">
<polygon fill="white" stroke="black" points="1124,-168.5 1124,-187.5 1189,-187.5 1189,-168.5 1124,-168.5"/>
<text text-anchor="middle" x="1156.5" y="-175.5" font-family="Helvetica,sans-Serif" font-size="10.00">serialize.h</text>
</a>
</g>
</g>
<!-- Node4&#45;&gt;Node32 -->
<g id="edge66" class="edge"><title>Node4&#45;&gt;Node32</title>
<path fill="none" stroke="midnightblue" d="M1562.8,-280.499C1510.24,-272.721 1432.92,-260.002 1366.5,-244 1303.26,-228.763 1231.14,-205.002 1190,-190.821"/>
<polygon fill="midnightblue" stroke="midnightblue" points="1191.07,-187.489 1180.47,-187.519 1188.78,-194.102 1191.07,-187.489"/>
</g>
<!-- Node4&#45;&gt;Node44 -->
<g id="edge67" class="edge"><title>Node4&#45;&gt;Node44</title>
<path fill="none" stroke="midnightblue" d="M1632.26,-280.083C1639.04,-272.298 1649.04,-260.801 1657.26,-251.367"/>
<polygon fill="midnightblue" stroke="midnightblue" points="1659.96,-253.592 1663.88,-243.751 1654.68,-248.996 1659.96,-253.592"/>
</g>
<!-- Node5&#45;&gt;Node2 -->
<g id="edge6" class="edge"><title>Node5&#45;&gt;Node2</title>
<path fill="none" stroke="midnightblue" d="M1959.66,-224.185C1968.41,-215.87 1980.4,-202.539 1985.5,-188 2004.92,-132.64 2024.12,-100.159 1985.5,-56 1947.13,-12.1264 1766.58,-9.24673 1687.62,-10.158"/>
<polygon fill="midnightblue" stroke="midnightblue" points="1687.13,-6.66464 1677.18,-10.3079 1687.23,-13.6639 1687.13,-6.66464"/>
</g>
<!-- Node6&#45;&gt;Node2 -->
<g id="edge62" class="edge"><title>Node6&#45;&gt;Node2</title>
<path fill="none" stroke="midnightblue" d="M1416.99,-224.305C1418.62,-202.797 1425.58,-146.365 1454.5,-112 1496.69,-61.8702 1570.09,-33.6236 1614.09,-20.4078"/>
<polygon fill="midnightblue" stroke="midnightblue" points="1615.19,-23.7358 1623.82,-17.5899 1613.24,-17.0126 1615.19,-23.7358"/>
</g>
<!-- Node6&#45;&gt;Node3 -->
<g id="edge65" class="edge"><title>Node6&#45;&gt;Node3</title>
<path fill="none" stroke="midnightblue" d="M1457.06,-231.376C1537.92,-227.568 1715.99,-216.165 1769.5,-188 1790.34,-177.032 1807.28,-155.364 1817.36,-140.067"/>
<polygon fill="midnightblue" stroke="midnightblue" points="1820.37,-141.85 1822.72,-131.519 1814.44,-138.13 1820.37,-141.85"/>
</g>
<!-- Node7 -->
<g id="node7" class="node"><title>Node7</title>
<g id="a_node7"><a xlink:href="common_8h.html" target="_top" xlink:title="crypto/common.h">
<polygon fill="white" stroke="black" points="1660,-168.5 1660,-187.5 1761,-187.5 1761,-168.5 1660,-168.5"/>
<text text-anchor="middle" x="1710.5" y="-175.5" font-family="Helvetica,sans-Serif" font-size="10.00">crypto/common.h</text>
</a>
</g>
</g>
<!-- Node6&#45;&gt;Node7 -->
<g id="edge8" class="edge"><title>Node6&#45;&gt;Node7</title>
<path fill="none" stroke="midnightblue" d="M1457.07,-225.548C1508.19,-216.159 1596.32,-199.972 1654,-189.377"/>
<polygon fill="midnightblue" stroke="midnightblue" points="1654.85,-192.78 1664.05,-187.531 1653.58,-185.895 1654.85,-192.78"/>
</g>
<!-- Node8 -->
<g id="node8" class="node"><title>Node8</title>
<polygon fill="white" stroke="#bfbfbf" points="1396,-56.5 1396,-75.5 1449,-75.5 1449,-56.5 1396,-56.5"/>
<text text-anchor="middle" x="1422.5" y="-63.5" font-family="Helvetica,sans-Serif" font-size="10.00">string.h</text>
</g>
<!-- Node6&#45;&gt;Node8 -->
<g id="edge63" class="edge"><title>Node6&#45;&gt;Node8</title>
<path fill="none" stroke="midnightblue" d="M1416.82,-224.075C1417.77,-197.945 1420.54,-121.211 1421.83,-85.577"/>
<polygon fill="midnightblue" stroke="midnightblue" points="1425.33,-85.688 1422.19,-75.5681 1418.33,-85.4351 1425.33,-85.688"/>
</g>
<!-- Node11 -->
<g id="node11" class="node"><title>Node11</title>
<g id="a_node11"><a xlink:href="prevector_8h.html" target="_top" xlink:title="prevector.h">
<polygon fill="white" stroke="black" points="1124,-112.5 1124,-131.5 1195,-131.5 1195,-112.5 1124,-112.5"/>
<text text-anchor="middle" x="1159.5" y="-119.5" font-family="Helvetica,sans-Serif" font-size="10.00">prevector.h</text>
</a>
</g>
</g>
<!-- Node6&#45;&gt;Node11 -->
<g id="edge15" class="edge"><title>Node6&#45;&gt;Node11</title>
<path fill="none" stroke="midnightblue" d="M1381.43,-224.491C1351.56,-216.687 1307.83,-203.935 1271.5,-188 1238.35,-173.46 1202.6,-151.499 1180.63,-137.203"/>
<polygon fill="midnightblue" stroke="midnightblue" points="1182.38,-134.166 1172.11,-131.589 1178.53,-140.012 1182.38,-134.166"/>
</g>
<!-- Node12 -->
<g id="node12" class="node"><title>Node12</title>
<polygon fill="white" stroke="#bfbfbf" points="1321.5,-56.5 1321.5,-75.5 1377.5,-75.5 1377.5,-56.5 1321.5,-56.5"/>
<text text-anchor="middle" x="1349.5" y="-63.5" font-family="Helvetica,sans-Serif" font-size="10.00">assert.h</text>
</g>
<!-- Node6&#45;&gt;Node12 -->
<g id="edge58" class="edge"><title>Node6&#45;&gt;Node12</title>
<path fill="none" stroke="midnightblue" d="M1375.92,-226.562C1353.14,-220.646 1326.54,-209.376 1312.5,-188 1297.22,-164.743 1329.68,-157.637 1340.5,-132 1346.67,-117.387 1348.79,-99.4448 1349.44,-86.1157"/>
<polygon fill="midnightblue" stroke="midnightblue" points="1352.95,-85.8743 1349.7,-75.7894 1345.95,-85.6983 1352.95,-85.8743"/>
</g>
<!-- Node6&#45;&gt;Node32 -->
<g id="edge39" class="edge"><title>Node6&#45;&gt;Node32</title>
<path fill="none" stroke="midnightblue" d="M1375.88,-224.562C1327.74,-214.565 1247.92,-197.987 1198.99,-187.824"/>
<polygon fill="midnightblue" stroke="midnightblue" points="1199.54,-184.364 1189.03,-185.757 1198.11,-191.218 1199.54,-184.364"/>
</g>
<!-- Node35 -->
<g id="node35" class="node"><title>Node35</title>
<polygon fill="white" stroke="#bfbfbf" points="1289.5,-112.5 1289.5,-131.5 1331.5,-131.5 1331.5,-112.5 1289.5,-112.5"/>
<text text-anchor="middle" x="1310.5" y="-119.5" font-family="Helvetica,sans-Serif" font-size="10.00">limits</text>
</g>
<!-- Node6&#45;&gt;Node35 -->
<g id="edge60" class="edge"><title>Node6&#45;&gt;Node35</title>
<path fill="none" stroke="midnightblue" d="M1375.85,-231.788C1343.91,-228.431 1301.3,-218.112 1279.5,-188 1268.34,-172.594 1281.4,-152.542 1293.82,-138.807"/>
<polygon fill="midnightblue" stroke="midnightblue" points="1296.43,-141.148 1300.88,-131.534 1291.41,-136.274 1296.43,-141.148"/>
</g>
<!-- Node39 -->
<g id="node39" class="node"><title>Node39</title>
<polygon fill="white" stroke="#bfbfbf" points="1463.5,-112.5 1463.5,-131.5 1507.5,-131.5 1507.5,-112.5 1463.5,-112.5"/>
<text text-anchor="middle" x="1485.5" y="-119.5" font-family="Helvetica,sans-Serif" font-size="10.00">string</text>
</g>
<!-- Node6&#45;&gt;Node39 -->
<g id="edge64" class="edge"><title>Node6&#45;&gt;Node39</title>
<path fill="none" stroke="midnightblue" d="M1423.42,-224.27C1430.34,-215.37 1441.14,-201.056 1449.5,-188 1459.47,-172.415 1469.57,-153.888 1476.53,-140.61"/>
<polygon fill="midnightblue" stroke="midnightblue" points="1479.69,-142.104 1481.17,-131.614 1473.47,-138.89 1479.69,-142.104"/>
</g>
<!-- Node42 -->
<g id="node42" class="node"><title>Node42</title>
<polygon fill="white" stroke="#bfbfbf" points="1322,-168.5 1322,-187.5 1369,-187.5 1369,-168.5 1322,-168.5"/>
<text text-anchor="middle" x="1345.5" y="-175.5" font-family="Helvetica,sans-Serif" font-size="10.00">climits</text>
</g>
<!-- Node6&#45;&gt;Node42 -->
<g id="edge59" class="edge"><title>Node6&#45;&gt;Node42</title>
<path fill="none" stroke="midnightblue" d="M1405.09,-224.324C1394.39,-216.185 1378.16,-203.839 1365.34,-194.087"/>
<polygon fill="midnightblue" stroke="midnightblue" points="1367.19,-191.102 1357.11,-187.834 1362.96,-196.673 1367.19,-191.102"/>
</g>
<!-- Node43 -->
<g id="node43" class="node"><title>Node43</title>
<polygon fill="white" stroke="#bfbfbf" points="1501.5,-168.5 1501.5,-187.5 1565.5,-187.5 1565.5,-168.5 1501.5,-168.5"/>
<text text-anchor="middle" x="1533.5" y="-175.5" font-family="Helvetica,sans-Serif" font-size="10.00">stdexcept</text>
</g>
<!-- Node6&#45;&gt;Node43 -->
<g id="edge61" class="edge"><title>Node6&#45;&gt;Node43</title>
<path fill="none" stroke="midnightblue" d="M1435.04,-224.444C1454.12,-215.636 1484.07,-201.812 1505.94,-191.722"/>
<polygon fill="midnightblue" stroke="midnightblue" points="1507.43,-194.885 1515.05,-187.516 1504.5,-188.529 1507.43,-194.885"/>
</g>
<!-- Node7&#45;&gt;Node2 -->
<g id="edge9" class="edge"><title>Node7&#45;&gt;Node2</title>
<path fill="none" stroke="midnightblue" d="M1724.29,-168.189C1735.33,-160.241 1750,-147.447 1756.5,-132 1769.6,-100.865 1775.14,-84.1672 1756.5,-56 1741.15,-32.8056 1711.18,-21.5309 1687.01,-16.0707"/>
<polygon fill="midnightblue" stroke="midnightblue" points="1687.56,-12.6116 1677.07,-14.0688 1686.18,-19.4738 1687.56,-12.6116"/>
</g>
<!-- Node7&#45;&gt;Node8 -->
<g id="edge10" class="edge"><title>Node7&#45;&gt;Node8</title>
<path fill="none" stroke="midnightblue" d="M1698.19,-168.419C1678.02,-154.707 1636.28,-127.796 1597.5,-112 1551.36,-93.2033 1495.11,-80.4092 1459.06,-73.4045"/>
<polygon fill="midnightblue" stroke="midnightblue" points="1459.48,-69.9218 1449,-71.4992 1458.18,-76.7995 1459.48,-69.9218"/>
</g>
<!-- Node9 -->
<g id="node9" class="node"><title>Node9</title>
<g id="a_node9"><a xlink:href="endian_8h.html" target="_top" xlink:title="compat/endian.h">
<polygon fill="white" stroke="black" points="1649.5,-112.5 1649.5,-131.5 1747.5,-131.5 1747.5,-112.5 1649.5,-112.5"/>
<text text-anchor="middle" x="1698.5" y="-119.5" font-family="Helvetica,sans-Serif" font-size="10.00">compat/endian.h</text>
</a>
</g>
</g>
<!-- Node7&#45;&gt;Node9 -->
<g id="edge11" class="edge"><title>Node7&#45;&gt;Node9</title>
<path fill="none" stroke="midnightblue" d="M1708.52,-168.083C1706.93,-160.927 1704.64,-150.635 1702.65,-141.691"/>
<polygon fill="midnightblue" stroke="midnightblue" points="1706.03,-140.754 1700.44,-131.751 1699.2,-142.272 1706.03,-140.754"/>
</g>
<!-- Node9&#45;&gt;Node2 -->
<g id="edge14" class="edge"><title>Node9&#45;&gt;Node2</title>
<path fill="none" stroke="midnightblue" d="M1674.03,-112.438C1657.93,-105.378 1638.12,-93.626 1628.5,-76 1620.15,-60.7071 1628.52,-41.6734 1637.23,-28.1642"/>
<polygon fill="midnightblue" stroke="midnightblue" points="1640.22,-29.9996 1643.12,-19.8082 1634.5,-25.9692 1640.22,-29.9996"/>
</g>
<!-- Node10 -->
<g id="node10" class="node"><title>Node10</title>
<g id="a_node10"><a xlink:href="byteswap_8h.html" target="_top" xlink:title="compat/byteswap.h">
<polygon fill="white" stroke="black" points="1637.5,-56.5 1637.5,-75.5 1747.5,-75.5 1747.5,-56.5 1637.5,-56.5"/>
<text text-anchor="middle" x="1692.5" y="-63.5" font-family="Helvetica,sans-Serif" font-size="10.00">compat/byteswap.h</text>
</a>
</g>
</g>
<!-- Node9&#45;&gt;Node10 -->
<g id="edge12" class="edge"><title>Node9&#45;&gt;Node10</title>
<path fill="none" stroke="midnightblue" d="M1697.51,-112.083C1696.71,-104.927 1695.57,-94.6353 1694.58,-85.6911"/>
<polygon fill="midnightblue" stroke="midnightblue" points="1698.06,-85.3034 1693.47,-75.7511 1691.1,-86.0765 1698.06,-85.3034"/>
</g>
<!-- Node10&#45;&gt;Node2 -->
<g id="edge13" class="edge"><title>Node10&#45;&gt;Node2</title>
<path fill="none" stroke="midnightblue" d="M1685.56,-56.083C1679.57,-48.3768 1670.75,-37.0333 1663.45,-27.6531"/>
<polygon fill="midnightblue" stroke="midnightblue" points="1666.21,-25.4958 1657.31,-19.7511 1660.68,-29.7934 1666.21,-25.4958"/>
</g>
<!-- Node11&#45;&gt;Node2 -->
<g id="edge18" class="edge"><title>Node11&#45;&gt;Node2</title>
<path fill="none" stroke="midnightblue" d="M1183.36,-112.358C1206.62,-103.752 1242.87,-89.8589 1273.5,-76 1291.25,-67.9698 1293.91,-61.8144 1312.5,-56 1418.52,-22.8436 1550.71,-14.1165 1613.75,-11.8199"/>
<polygon fill="midnightblue" stroke="midnightblue" points="1614.1,-15.3104 1623.98,-11.4824 1613.87,-8.31419 1614.1,-15.3104"/>
</g>
<!-- Node11&#45;&gt;Node8 -->
<g id="edge19" class="edge"><title>Node11&#45;&gt;Node8</title>
<path fill="none" stroke="midnightblue" d="M1195,-114.523C1237.85,-106.582 1312.32,-92.3903 1385.9,-76.0452"/>
<polygon fill="midnightblue" stroke="midnightblue" points="1386.8,-79.4288 1395.8,-73.8309 1385.28,-72.5975 1386.8,-79.4288"/>
</g>
<!-- Node11&#45;&gt;Node12 -->
<g id="edge16" class="edge"><title>Node11&#45;&gt;Node12</title>
<path fill="none" stroke="midnightblue" d="M1189.61,-112.444C1222.7,-103.038 1275.92,-87.9127 1311.77,-77.7227"/>
<polygon fill="midnightblue" stroke="midnightblue" points="1312.73,-81.0889 1321.39,-74.9883 1310.82,-74.3556 1312.73,-81.0889"/>
</g>
<!-- Node13 -->
<g id="node13" class="node"><title>Node13</title>
<polygon fill="white" stroke="#bfbfbf" points="1214,-56.5 1214,-75.5 1265,-75.5 1265,-56.5 1214,-56.5"/>
<text text-anchor="middle" x="1239.5" y="-63.5" font-family="Helvetica,sans-Serif" font-size="10.00">stdlib.h</text>
</g>
<!-- Node11&#45;&gt;Node13 -->
<g id="edge17" class="edge"><title>Node11&#45;&gt;Node13</title>
<path fill="none" stroke="midnightblue" d="M1172.35,-112.324C1184.72,-103.979 1203.63,-91.2122 1218.24,-81.3524"/>
<polygon fill="midnightblue" stroke="midnightblue" points="1220.35,-84.1503 1226.68,-75.6545 1216.43,-78.3483 1220.35,-84.1503"/>
</g>
<!-- Node14 -->
<g id="node14" class="node"><title>Node14</title>
<polygon fill="white" stroke="#bfbfbf" points="1035.5,-56.5 1035.5,-75.5 1087.5,-75.5 1087.5,-56.5 1035.5,-56.5"/>
<text text-anchor="middle" x="1061.5" y="-63.5" font-family="Helvetica,sans-Serif" font-size="10.00">cstddef</text>
</g>
<!-- Node11&#45;&gt;Node14 -->
<g id="edge20" class="edge"><title>Node11&#45;&gt;Node14</title>
<path fill="none" stroke="midnightblue" d="M1143.75,-112.324C1128.18,-103.743 1104.12,-90.486 1086.04,-80.5224"/>
<polygon fill="midnightblue" stroke="midnightblue" points="1087.65,-77.4152 1077.21,-75.6545 1084.28,-83.546 1087.65,-77.4152"/>
</g>
<!-- Node15 -->
<g id="node15" class="node"><title>Node15</title>
<polygon fill="white" stroke="#bfbfbf" points="1143.5,-56.5 1143.5,-75.5 1195.5,-75.5 1195.5,-56.5 1143.5,-56.5"/>
<text text-anchor="middle" x="1169.5" y="-63.5" font-family="Helvetica,sans-Serif" font-size="10.00">iterator</text>
</g>
<!-- Node11&#45;&gt;Node15 -->
<g id="edge21" class="edge"><title>Node11&#45;&gt;Node15</title>
<path fill="none" stroke="midnightblue" d="M1161.15,-112.083C1162.48,-104.927 1164.38,-94.6353 1166.04,-85.6911"/>
<polygon fill="midnightblue" stroke="midnightblue" points="1169.5,-86.2212 1167.88,-75.7511 1162.62,-84.9466 1169.5,-86.2212"/>
</g>
<!-- Node16 -->
<g id="node16" class="node"><title>Node16</title>
<polygon fill="white" stroke="#bfbfbf" points="1129.5,-0.5 1129.5,-19.5 1197.5,-19.5 1197.5,-0.5 1129.5,-0.5"/>
<text text-anchor="middle" x="1163.5" y="-7.5" font-family="Helvetica,sans-Serif" font-size="10.00">type_traits</text>
</g>
<!-- Node11&#45;&gt;Node16 -->
<g id="edge22" class="edge"><title>Node11&#45;&gt;Node16</title>
<path fill="none" stroke="midnightblue" d="M1152.26,-112.324C1142.88,-100.006 1128.42,-76.6457 1134.5,-56 1137.51,-45.7645 1143.65,-35.6599 1149.51,-27.627"/>
<polygon fill="midnightblue" stroke="midnightblue" points="1152.43,-29.5773 1155.83,-19.5413 1146.91,-25.2694 1152.43,-29.5773"/>
</g>
<!-- Node17 -->
<g id="node17" class="node"><title>Node17</title>
<g id="a_node17"><a xlink:href="compat_8h.html" target="_top" xlink:title="compat.h">
<polygon fill="white" stroke="black" points="639.5,-56.5 639.5,-75.5 701.5,-75.5 701.5,-56.5 639.5,-56.5"/>
<text text-anchor="middle" x="670.5" y="-63.5" font-family="Helvetica,sans-Serif" font-size="10.00">compat.h</text>
</a>
</g>
</g>
<!-- Node11&#45;&gt;Node17 -->
<g id="edge23" class="edge"><title>Node11&#45;&gt;Node17</title>
<path fill="none" stroke="midnightblue" d="M1123.94,-117.073C1035.5,-107.306 805.971,-81.96 711.77,-71.5574"/>
<polygon fill="midnightblue" stroke="midnightblue" points="712.085,-68.071 701.761,-70.4521 711.317,-75.0287 712.085,-68.071"/>
</g>
<!-- Node17&#45;&gt;Node16 -->
<g id="edge24" class="edge"><title>Node17&#45;&gt;Node16</title>
<path fill="none" stroke="midnightblue" d="M701.896,-58.268C706.447,-57.4243 711.084,-56.636 715.5,-56 891.133,-30.7072 939.997,-45.9806 1119.27,-20.0131"/>
<polygon fill="midnightblue" stroke="midnightblue" points="1119.91,-23.4559 1129.3,-18.5374 1118.89,-16.5305 1119.91,-23.4559"/>
</g>
<!-- Node18 -->
<g id="node18" class="node"><title>Node18</title>
<polygon fill="white" stroke="#bfbfbf" points="785.5,-0.5 785.5,-19.5 831.5,-19.5 831.5,-0.5 785.5,-0.5"/>
<text text-anchor="middle" x="808.5" y="-7.5" font-family="Helvetica,sans-Serif" font-size="10.00">fcntl.h</text>
</g>
<!-- Node17&#45;&gt;Node18 -->
<g id="edge25" class="edge"><title>Node17&#45;&gt;Node18</title>
<path fill="none" stroke="midnightblue" d="M692.367,-56.4435C715.279,-47.4776 751.475,-33.314 777.366,-23.1827"/>
<polygon fill="midnightblue" stroke="midnightblue" points="778.699,-26.4198 786.736,-19.5164 776.148,-19.9011 778.699,-26.4198"/>
</g>
<!-- Node19 -->
<g id="node19" class="node"><title>Node19</title>
<polygon fill="white" stroke="#bfbfbf" points="849.5,-0.5 849.5,-19.5 925.5,-19.5 925.5,-0.5 849.5,-0.5"/>
<text text-anchor="middle" x="887.5" y="-7.5" font-family="Helvetica,sans-Serif" font-size="10.00">sys/mman.h</text>
</g>
<!-- Node17&#45;&gt;Node19 -->
<g id="edge26" class="edge"><title>Node17&#45;&gt;Node19</title>
<path fill="none" stroke="midnightblue" d="M701.591,-57.2631C738.804,-48.0026 801.368,-32.4338 843.523,-21.9435"/>
<polygon fill="midnightblue" stroke="midnightblue" points="844.386,-25.3357 853.245,-19.5243 842.696,-18.5428 844.386,-25.3357"/>
</g>
<!-- Node20 -->
<g id="node20" class="node"><title>Node20</title>
<polygon fill="white" stroke="#bfbfbf" points="944,-0.5 944,-19.5 1017,-19.5 1017,-0.5 944,-0.5"/>
<text text-anchor="middle" x="980.5" y="-7.5" font-family="Helvetica,sans-Serif" font-size="10.00">sys/select.h</text>
</g>
<!-- Node17&#45;&gt;Node20 -->
<g id="edge27" class="edge"><title>Node17&#45;&gt;Node20</title>
<path fill="none" stroke="midnightblue" d="M701.945,-58.5675C706.488,-57.6798 711.111,-56.7995 715.5,-56 809.416,-38.8946 835.742,-37.5444 933.819,-20.0726"/>
<polygon fill="midnightblue" stroke="midnightblue" points="934.635,-23.4822 943.861,-18.2724 933.4,-16.592 934.635,-23.4822"/>
</g>
<!-- Node21 -->
<g id="node21" class="node"><title>Node21</title>
<polygon fill="white" stroke="#bfbfbf" points="1035.5,-0.5 1035.5,-19.5 1111.5,-19.5 1111.5,-0.5 1035.5,-0.5"/>
<text text-anchor="middle" x="1073.5" y="-7.5" font-family="Helvetica,sans-Serif" font-size="10.00">sys/socket.h</text>
</g>
<!-- Node17&#45;&gt;Node21 -->
<g id="edge28" class="edge"><title>Node17&#45;&gt;Node21</title>
<path fill="none" stroke="midnightblue" d="M701.912,-58.3769C706.461,-57.5173 711.093,-56.6954 715.5,-56 849.297,-34.8876 886.627,-40.5082 1025.14,-19.9401"/>
<polygon fill="midnightblue" stroke="midnightblue" points="1025.92,-23.3619 1035.29,-18.4132 1024.88,-16.4398 1025.92,-23.3619"/>
</g>
<!-- Node22 -->
<g id="node22" class="node"><title>Node22</title>
<polygon fill="white" stroke="#bfbfbf" points="0,-0.5 0,-19.5 71,-19.5 71,-0.5 0,-0.5"/>
<text text-anchor="middle" x="35.5" y="-7.5" font-family="Helvetica,sans-Serif" font-size="10.00">sys/types.h</text>
</g>
<!-- Node17&#45;&gt;Node22 -->
<g id="edge29" class="edge"><title>Node17&#45;&gt;Node22</title>
<path fill="none" stroke="midnightblue" d="M639.143,-57.4588C636.232,-56.9058 633.318,-56.4066 630.5,-56 390.925,-21.4371 324.535,-51.8113 81.6529,-20.1236"/>
<polygon fill="midnightblue" stroke="midnightblue" points="81.8238,-16.6157 71.4502,-18.7698 80.9029,-23.5549 81.8238,-16.6157"/>
</g>
<!-- Node23 -->
<g id="node23" class="node"><title>Node23</title>
<polygon fill="white" stroke="#bfbfbf" points="89,-0.5 89,-19.5 138,-19.5 138,-0.5 89,-0.5"/>
<text text-anchor="middle" x="113.5" y="-7.5" font-family="Helvetica,sans-Serif" font-size="10.00">net/if.h</text>
</g>
<!-- Node17&#45;&gt;Node23 -->
<g id="edge30" class="edge"><title>Node17&#45;&gt;Node23</title>
<path fill="none" stroke="midnightblue" d="M639.139,-57.4859C636.229,-56.9272 633.316,-56.4192 630.5,-56 420.375,-24.7199 360.88,-55.5828 148.169,-19.9872"/>
<polygon fill="midnightblue" stroke="midnightblue" points="148.697,-16.5268 138.252,-18.2984 147.522,-23.4275 148.697,-16.5268"/>
</g>
<!-- Node24 -->
<g id="node24" class="node"><title>Node24</title>
<polygon fill="white" stroke="#bfbfbf" points="156,-0.5 156,-19.5 227,-19.5 227,-0.5 156,-0.5"/>
<text text-anchor="middle" x="191.5" y="-7.5" font-family="Helvetica,sans-Serif" font-size="10.00">netinet/in.h</text>
</g>
<!-- Node17&#45;&gt;Node24 -->
<g id="edge31" class="edge"><title>Node17&#45;&gt;Node24</title>
<path fill="none" stroke="midnightblue" d="M639.132,-57.5359C636.223,-56.9667 633.313,-56.4427 630.5,-56 459.591,-29.1021 411.667,-45.0831 237.477,-20.1523"/>
<polygon fill="midnightblue" stroke="midnightblue" points="237.861,-16.6713 227.461,-18.6939 236.852,-23.5983 237.861,-16.6713"/>
</g>
<!-- Node25 -->
<g id="node25" class="node"><title>Node25</title>
<polygon fill="white" stroke="#bfbfbf" points="245,-0.5 245,-19.5 322,-19.5 322,-0.5 245,-0.5"/>
<text text-anchor="middle" x="283.5" y="-7.5" font-family="Helvetica,sans-Serif" font-size="10.00">netinet/tcp.h</text>
</g>
<!-- Node17&#45;&gt;Node25 -->
<g id="edge32" class="edge"><title>Node17&#45;&gt;Node25</title>
<path fill="none" stroke="midnightblue" d="M639.117,-57.6227C636.212,-57.0353 633.306,-56.4833 630.5,-56 501.814,-33.8347 465.551,-40.0171 332.415,-20.0382"/>
<polygon fill="midnightblue" stroke="midnightblue" points="332.648,-16.5334 322.235,-18.4882 331.595,-23.4536 332.648,-16.5334"/>
</g>
<!-- Node26 -->
<g id="node26" class="node"><title>Node26</title>
<polygon fill="white" stroke="#bfbfbf" points="340.5,-0.5 340.5,-19.5 408.5,-19.5 408.5,-0.5 340.5,-0.5"/>
<text text-anchor="middle" x="374.5" y="-7.5" font-family="Helvetica,sans-Serif" font-size="10.00">arpa/inet.h</text>
</g>
<!-- Node17&#45;&gt;Node26 -->
<g id="edge33" class="edge"><title>Node17&#45;&gt;Node26</title>
<path fill="none" stroke="midnightblue" d="M639.091,-57.7651C636.191,-57.1478 633.294,-56.5499 630.5,-56 539.426,-38.0714 513.539,-37.8332 418.758,-20.1749"/>
<polygon fill="midnightblue" stroke="midnightblue" points="419.218,-16.7002 408.744,-18.2925 417.925,-23.5797 419.218,-16.7002"/>
</g>
<!-- Node27 -->
<g id="node27" class="node"><title>Node27</title>
<polygon fill="white" stroke="#bfbfbf" points="426.5,-0.5 426.5,-19.5 484.5,-19.5 484.5,-0.5 426.5,-0.5"/>
<text text-anchor="middle" x="455.5" y="-7.5" font-family="Helvetica,sans-Serif" font-size="10.00">ifaddrs.h</text>
</g>
<!-- Node17&#45;&gt;Node27 -->
<g id="edge34" class="edge"><title>Node17&#45;&gt;Node27</title>
<path fill="none" stroke="midnightblue" d="M639.237,-57.1479C600.934,-47.5276 536.027,-31.2253 494.498,-20.7948"/>
<polygon fill="midnightblue" stroke="midnightblue" points="495.281,-17.383 484.73,-18.3415 493.576,-24.1721 495.281,-17.383"/>
</g>
<!-- Node28 -->
<g id="node28" class="node"><title>Node28</title>
<polygon fill="white" stroke="#bfbfbf" points="503,-0.5 503,-19.5 554,-19.5 554,-0.5 503,-0.5"/>
<text text-anchor="middle" x="528.5" y="-7.5" font-family="Helvetica,sans-Serif" font-size="10.00">limits.h</text>
</g>
<!-- Node17&#45;&gt;Node28 -->
<g id="edge35" class="edge"><title>Node17&#45;&gt;Node28</title>
<path fill="none" stroke="midnightblue" d="M648,-56.4435C624.423,-47.4776 587.178,-33.314 560.536,-23.1827"/>
<polygon fill="midnightblue" stroke="midnightblue" points="561.486,-19.7995 550.895,-19.5164 558.998,-26.3424 561.486,-19.7995"/>
</g>
<!-- Node29 -->
<g id="node29" class="node"><title>Node29</title>
<polygon fill="white" stroke="#bfbfbf" points="572,-0.5 572,-19.5 625,-19.5 625,-0.5 572,-0.5"/>
<text text-anchor="middle" x="598.5" y="-7.5" font-family="Helvetica,sans-Serif" font-size="10.00">netdb.h</text>
</g>
<!-- Node17&#45;&gt;Node29 -->
<g id="edge36" class="edge"><title>Node17&#45;&gt;Node29</title>
<path fill="none" stroke="midnightblue" d="M658.932,-56.324C648.08,-48.1849 631.619,-35.8395 618.617,-26.0874"/>
<polygon fill="midnightblue" stroke="midnightblue" points="620.379,-23.0339 610.279,-19.8339 616.179,-28.6339 620.379,-23.0339"/>
</g>
<!-- Node30 -->
<g id="node30" class="node"><title>Node30</title>
<polygon fill="white" stroke="#bfbfbf" points="643,-0.5 643,-19.5 698,-19.5 698,-0.5 643,-0.5"/>
<text text-anchor="middle" x="670.5" y="-7.5" font-family="Helvetica,sans-Serif" font-size="10.00">unistd.h</text>
</g>
<!-- Node17&#45;&gt;Node30 -->
<g id="edge37" class="edge"><title>Node17&#45;&gt;Node30</title>
<path fill="none" stroke="midnightblue" d="M670.5,-56.083C670.5,-49.0059 670.5,-38.8611 670.5,-29.9865"/>
<polygon fill="midnightblue" stroke="midnightblue" points="674,-29.751 670.5,-19.7511 667,-29.7511 674,-29.751"/>
</g>
<!-- Node31 -->
<g id="node31" class="node"><title>Node31</title>
<polygon fill="white" stroke="#bfbfbf" points="716,-0.5 716,-19.5 767,-19.5 767,-0.5 716,-0.5"/>
<text text-anchor="middle" x="741.5" y="-7.5" font-family="Helvetica,sans-Serif" font-size="10.00">errno.h</text>
</g>
<!-- Node17&#45;&gt;Node31 -->
<g id="edge38" class="edge"><title>Node17&#45;&gt;Node31</title>
<path fill="none" stroke="midnightblue" d="M681.907,-56.324C692.609,-48.1849 708.841,-35.8395 721.663,-26.0874"/>
<polygon fill="midnightblue" stroke="midnightblue" points="724.044,-28.6734 729.885,-19.8339 719.807,-23.1018 724.044,-28.6734"/>
</g>
<!-- Node32&#45;&gt;Node2 -->
<g id="edge48" class="edge"><title>Node32&#45;&gt;Node2</title>
<path fill="none" stroke="midnightblue" d="M1146.3,-168.391C1131.24,-155.758 1102.08,-131.575 1076.5,-112 1054.75,-95.3592 1038.98,-100.372 1026.5,-76 1022.45,-68.0886 1020.44,-62.5075 1026.5,-56 1066.58,-12.9301 1485.77,-10.5305 1613.66,-10.8101"/>
<polygon fill="midnightblue" stroke="midnightblue" points="1613.73,-14.3102 1623.74,-10.8392 1613.75,-7.31027 1613.73,-14.3102"/>
</g>
<!-- Node32&#45;&gt;Node3 -->
<g id="edge52" class="edge"><title>Node32&#45;&gt;Node3</title>
<path fill="none" stroke="midnightblue" d="M1189.07,-175.146C1279.34,-169.88 1540.32,-153.794 1756.5,-132 1768.74,-130.766 1782.13,-129.141 1793.95,-127.611"/>
<polygon fill="midnightblue" stroke="midnightblue" points="1794.41,-131.081 1803.87,-126.304 1793.5,-124.141 1794.41,-131.081"/>
</g>
<!-- Node32&#45;&gt;Node8 -->
<g id="edge50" class="edge"><title>Node32&#45;&gt;Node8</title>
<path fill="none" stroke="midnightblue" d="M1174.62,-168.391C1192.92,-159.586 1221.94,-145.344 1246.5,-132 1261.9,-123.631 1264.49,-119.138 1280.5,-112 1315.26,-96.5069 1356.97,-83.9568 1386.17,-76.0853"/>
<polygon fill="midnightblue" stroke="midnightblue" points="1387.17,-79.4413 1395.94,-73.499 1385.37,-72.6743 1387.17,-79.4413"/>
</g>
<!-- Node32&#45;&gt;Node9 -->
<g id="edge40" class="edge"><title>Node32&#45;&gt;Node9</title>
<path fill="none" stroke="midnightblue" d="M1189.18,-173.744C1278.05,-164.89 1525.04,-140.282 1639.22,-128.906"/>
<polygon fill="midnightblue" stroke="midnightblue" points="1639.59,-132.387 1649.19,-127.913 1638.89,-125.422 1639.59,-132.387"/>
</g>
<!-- Node32&#45;&gt;Node11 -->
<g id="edge53" class="edge"><title>Node32&#45;&gt;Node11</title>
<path fill="none" stroke="midnightblue" d="M1157,-168.083C1157.39,-161.006 1157.95,-150.861 1158.45,-141.986"/>
<polygon fill="midnightblue" stroke="midnightblue" points="1161.95,-141.93 1159.01,-131.751 1154.96,-141.542 1161.95,-141.93"/>
</g>
<!-- Node32&#45;&gt;Node12 -->
<g id="edge42" class="edge"><title>Node32&#45;&gt;Node12</title>
<path fill="none" stroke="midnightblue" d="M1166.95,-168.449C1183.39,-155.246 1216.63,-129.588 1247.5,-112 1269.9,-99.2373 1296.61,-87.5729 1317.07,-79.3192"/>
<polygon fill="midnightblue" stroke="midnightblue" points="1318.56,-82.492 1326.57,-75.5515 1315.98,-75.9851 1318.56,-82.492"/>
</g>
<!-- Node33 -->
<g id="node33" class="node"><title>Node33</title>
<polygon fill="white" stroke="#bfbfbf" points="559.5,-56.5 559.5,-75.5 621.5,-75.5 621.5,-56.5 559.5,-56.5"/>
<text text-anchor="middle" x="590.5" y="-63.5" font-family="Helvetica,sans-Serif" font-size="10.00">algorithm</text>
</g>
<!-- Node32&#45;&gt;Node33 -->
<g id="edge41" class="edge"><title>Node32&#45;&gt;Node33</title>
<path fill="none" stroke="midnightblue" d="M1123.82,-176.136C1030.12,-173.311 762.075,-162.693 680.5,-132 651.355,-121.034 623.151,-98.0205 606.308,-82.5335"/>
<polygon fill="midnightblue" stroke="midnightblue" points="608.669,-79.9488 598.998,-75.6212 603.859,-85.035 608.669,-79.9488"/>
</g>
<!-- Node34 -->
<g id="node34" class="node"><title>Node34</title>
<polygon fill="white" stroke="#bfbfbf" points="795.5,-112.5 795.5,-131.5 825.5,-131.5 825.5,-112.5 795.5,-112.5"/>
<text text-anchor="middle" x="810.5" y="-119.5" font-family="Helvetica,sans-Serif" font-size="10.00">ios</text>
</g>
<!-- Node32&#45;&gt;Node34 -->
<g id="edge43" class="edge"><title>Node32&#45;&gt;Node34</title>
<path fill="none" stroke="midnightblue" d="M1123.59,-174.8C1066.52,-170.473 945.533,-159.037 835.505,-131.742"/>
<polygon fill="midnightblue" stroke="midnightblue" points="836.128,-128.289 825.574,-129.227 834.409,-135.075 836.128,-128.289"/>
</g>
<!-- Node32&#45;&gt;Node35 -->
<g id="edge44" class="edge"><title>Node32&#45;&gt;Node35</title>
<path fill="none" stroke="midnightblue" d="M1180.9,-168.444C1207.61,-159.079 1250.48,-144.046 1279.54,-133.857"/>
<polygon fill="midnightblue" stroke="midnightblue" points="1280.91,-137.085 1289.19,-130.473 1278.59,-130.479 1280.91,-137.085"/>
</g>
<!-- Node36 -->
<g id="node36" class="node"><title>Node36</title>
<polygon fill="white" stroke="#bfbfbf" points="843.5,-112.5 843.5,-131.5 881.5,-131.5 881.5,-112.5 843.5,-112.5"/>
<text text-anchor="middle" x="862.5" y="-119.5" font-family="Helvetica,sans-Serif" font-size="10.00">map</text>
</g>
<!-- Node32&#45;&gt;Node36 -->
<g id="edge45" class="edge"><title>Node32&#45;&gt;Node36</title>
<path fill="none" stroke="midnightblue" d="M1123.85,-173.012C1075.19,-166.738 980.691,-153.279 891.663,-131.991"/>
<polygon fill="midnightblue" stroke="midnightblue" points="892.22,-128.524 881.676,-129.564 890.567,-135.326 892.22,-128.524"/>
</g>
<!-- Node37 -->
<g id="node37" class="node"><title>Node37</title>
<polygon fill="white" stroke="#bfbfbf" points="900,-112.5 900,-131.5 957,-131.5 957,-112.5 900,-112.5"/>
<text text-anchor="middle" x="928.5" y="-119.5" font-family="Helvetica,sans-Serif" font-size="10.00">memory</text>
</g>
<!-- Node32&#45;&gt;Node37 -->
<g id="edge46" class="edge"><title>Node32&#45;&gt;Node37</title>
<path fill="none" stroke="midnightblue" d="M1123.83,-169.263C1082.37,-159.442 1010.94,-142.526 966.908,-132.097"/>
<polygon fill="midnightblue" stroke="midnightblue" points="967.681,-128.683 957.144,-129.784 966.068,-135.495 967.681,-128.683"/>
</g>
<!-- Node38 -->
<g id="node38" class="node"><title>Node38</title>
<polygon fill="white" stroke="#bfbfbf" points="975.5,-112.5 975.5,-131.5 1007.5,-131.5 1007.5,-112.5 975.5,-112.5"/>
<text text-anchor="middle" x="991.5" y="-119.5" font-family="Helvetica,sans-Serif" font-size="10.00">set</text>
</g>
<!-- Node32&#45;&gt;Node38 -->
<g id="edge47" class="edge"><title>Node32&#45;&gt;Node38</title>
<path fill="none" stroke="midnightblue" d="M1129.05,-168.483C1102.63,-160.222 1061.36,-147.138 1017.1,-132.124"/>
<polygon fill="midnightblue" stroke="midnightblue" points="1018.2,-128.804 1007.61,-128.892 1015.95,-135.43 1018.2,-128.804"/>
</g>
<!-- Node32&#45;&gt;Node39 -->
<g id="edge49" class="edge"><title>Node32&#45;&gt;Node39</title>
<path fill="none" stroke="midnightblue" d="M1189.25,-171.625C1252.4,-161.26 1390.3,-138.626 1453.14,-128.312"/>
<polygon fill="midnightblue" stroke="midnightblue" points="1453.96,-131.724 1463.26,-126.65 1452.83,-124.816 1453.96,-131.724"/>
</g>
<!-- Node40 -->
<g id="node40" class="node"><title>Node40</title>
<polygon fill="white" stroke="#bfbfbf" points="1025.5,-112.5 1025.5,-131.5 1067.5,-131.5 1067.5,-112.5 1025.5,-112.5"/>
<text text-anchor="middle" x="1046.5" y="-119.5" font-family="Helvetica,sans-Serif" font-size="10.00">utility</text>
</g>
<!-- Node32&#45;&gt;Node40 -->
<g id="edge51" class="edge"><title>Node32&#45;&gt;Node40</title>
<path fill="none" stroke="midnightblue" d="M1138.83,-168.324C1121.11,-159.625 1093.6,-146.12 1073.21,-136.113"/>
<polygon fill="midnightblue" stroke="midnightblue" points="1074.65,-132.919 1064.13,-131.655 1071.56,-139.203 1074.65,-132.919"/>
</g>
<!-- Node41 -->
<g id="node41" class="node"><title>Node41</title>
<g id="a_node41"><a xlink:href="span_8h.html" target="_top" xlink:title="span.h">
<polygon fill="white" stroke="black" points="690,-112.5 690,-131.5 739,-131.5 739,-112.5 690,-112.5"/>
<text text-anchor="middle" x="714.5" y="-119.5" font-family="Helvetica,sans-Serif" font-size="10.00">span.h</text>
</a>
</g>
</g>
<!-- Node32&#45;&gt;Node41 -->
<g id="edge54" class="edge"><title>Node32&#45;&gt;Node41</title>
<path fill="none" stroke="midnightblue" d="M1123.83,-173.064C1059.33,-165.284 911.093,-147.364 786.5,-132 774.316,-130.498 760.974,-128.835 749.122,-127.351"/>
<polygon fill="midnightblue" stroke="midnightblue" points="749.514,-123.873 739.157,-126.103 748.644,-130.819 749.514,-123.873"/>
</g>
<!-- Node41&#45;&gt;Node14 -->
<g id="edge56" class="edge"><title>Node41&#45;&gt;Node14</title>
<path fill="none" stroke="midnightblue" d="M739.177,-117.16C799.412,-107.786 954.198,-83.6982 1025.08,-72.6683"/>
<polygon fill="midnightblue" stroke="midnightblue" points="1025.96,-76.0728 1035.3,-71.0767 1024.88,-69.1561 1025.96,-76.0728"/>
</g>
<!-- Node41&#45;&gt;Node16 -->
<g id="edge55" class="edge"><title>Node41&#45;&gt;Node16</title>
<path fill="none" stroke="midnightblue" d="M716.868,-112.478C721.36,-98.082 732.592,-69.2275 753.5,-56 820.317,-13.7284 1024.44,-31.0694 1119.36,-19.853"/>
<polygon fill="midnightblue" stroke="midnightblue" points="1119.85,-23.3188 1129.29,-18.5089 1118.91,-16.3821 1119.85,-23.3188"/>
</g>
<!-- Node41&#45;&gt;Node33 -->
<g id="edge57" class="edge"><title>Node41&#45;&gt;Node33</title>
<path fill="none" stroke="midnightblue" d="M694.852,-112.444C674.535,-103.596 642.597,-89.6875 619.402,-79.5865"/>
<polygon fill="midnightblue" stroke="midnightblue" points="620.622,-76.3002 610.056,-75.5164 617.827,-82.7181 620.622,-76.3002"/>
</g>
<!-- Node44&#45;&gt;Node2 -->
<g id="edge71" class="edge"><title>Node44&#45;&gt;Node2</title>
<path fill="none" stroke="midnightblue" d="M1702.55,-231.969C1761.69,-229.283 1887,-219.878 1913.5,-188 1985.41,-101.484 1774.81,-40.2825 1687,-19.1278"/>
<polygon fill="midnightblue" stroke="midnightblue" points="1687.71,-15.6992 1677.18,-16.8043 1686.1,-22.5114 1687.71,-15.6992"/>
</g>
<!-- Node44&#45;&gt;Node3 -->
<g id="edge73" class="edge"><title>Node44&#45;&gt;Node3</title>
<path fill="none" stroke="midnightblue" d="M1702.68,-230.007C1732.25,-225.59 1776.11,-214.708 1803.5,-188 1816,-175.807 1822.04,-156.537 1824.93,-142.139"/>
<polygon fill="midnightblue" stroke="midnightblue" points="1828.45,-142.303 1826.63,-131.866 1821.55,-141.159 1828.45,-142.303"/>
</g>
<!-- Node44&#45;&gt;Node7 -->
<g id="edge74" class="edge"><title>Node44&#45;&gt;Node7</title>
<path fill="none" stroke="midnightblue" d="M1677.94,-224.083C1683.45,-216.455 1691.53,-205.264 1698.26,-195.941"/>
<polygon fill="midnightblue" stroke="midnightblue" points="1701.16,-197.907 1704.18,-187.751 1695.49,-193.809 1701.16,-197.907"/>
</g>
<!-- Node44&#45;&gt;Node12 -->
<g id="edge68" class="edge"><title>Node44&#45;&gt;Node12</title>
<path fill="none" stroke="midnightblue" d="M1663.74,-224.429C1651.75,-211.422 1627.65,-186.281 1604.5,-168 1568.12,-139.267 1558.92,-130.69 1516.5,-112 1504.65,-106.781 1432.98,-88.1716 1387.46,-76.5817"/>
<polygon fill="midnightblue" stroke="midnightblue" points="1388.17,-73.1516 1377.62,-74.0814 1386.45,-79.9361 1388.17,-73.1516"/>
</g>
<!-- Node44&#45;&gt;Node39 -->
<g id="edge72" class="edge"><title>Node44&#45;&gt;Node39</title>
<path fill="none" stroke="midnightblue" d="M1659.56,-224.302C1641.55,-211.348 1606.17,-186.525 1574.5,-168 1554.58,-156.346 1531.27,-144.627 1513.5,-136.07"/>
<polygon fill="midnightblue" stroke="midnightblue" points="1514.79,-132.808 1504.26,-131.662 1511.78,-139.126 1514.79,-132.808"/>
</g>
<!-- Node44&#45;&gt;Node43 -->
<g id="edge70" class="edge"><title>Node44&#45;&gt;Node43</title>
<path fill="none" stroke="midnightblue" d="M1649.63,-224.444C1626.72,-215.478 1590.52,-201.314 1564.63,-191.183"/>
<polygon fill="midnightblue" stroke="midnightblue" points="1565.85,-187.901 1555.26,-187.516 1563.3,-194.42 1565.85,-187.901"/>
</g>
<!-- Node45 -->
<g id="node45" class="node"><title>Node45</title>
<polygon fill="white" stroke="#bfbfbf" points="1856,-168.5 1856,-187.5 1905,-187.5 1905,-168.5 1856,-168.5"/>
<text text-anchor="middle" x="1880.5" y="-175.5" font-family="Helvetica,sans-Serif" font-size="10.00">cstring</text>
</g>
<!-- Node44&#45;&gt;Node45 -->
<g id="edge69" class="edge"><title>Node44&#45;&gt;Node45</title>
<path fill="none" stroke="midnightblue" d="M1702.79,-224.916C1741.23,-214.982 1806.25,-198.185 1846.08,-187.894"/>
<polygon fill="midnightblue" stroke="midnightblue" points="1847.06,-191.254 1855.87,-185.364 1845.31,-184.477 1847.06,-191.254"/>
</g>
<!-- Node46&#45;&gt;Node4 -->
<g id="edge76" class="edge"><title>Node46&#45;&gt;Node4</title>
<path fill="none" stroke="midnightblue" d="M1552.32,-336.324C1565.73,-327.9 1586.32,-314.971 1602.09,-305.074"/>
<polygon fill="midnightblue" stroke="midnightblue" points="1604.11,-307.936 1610.72,-299.655 1600.39,-302.008 1604.11,-307.936"/>
</g>
<!-- Node46&#45;&gt;Node32 -->
<g id="edge77" class="edge"><title>Node46&#45;&gt;Node32</title>
<path fill="none" stroke="midnightblue" d="M1516.71,-336.458C1473.73,-319.513 1375.11,-280.15 1293.5,-244 1254.74,-226.831 1210.54,-205.546 1183.08,-192.114"/>
<polygon fill="midnightblue" stroke="midnightblue" points="1184.62,-188.971 1174.1,-187.71 1181.54,-195.256 1184.62,-188.971"/>
</g>
<!-- Node46&#45;&gt;Node44 -->
<g id="edge78" class="edge"><title>Node46&#45;&gt;Node44</title>
<path fill="none" stroke="midnightblue" d="M1537.59,-336.304C1536.66,-322.673 1536.92,-296.168 1550.5,-280 1570.31,-256.413 1603.73,-245.182 1630.43,-239.838"/>
<polygon fill="midnightblue" stroke="midnightblue" points="1631.07,-243.279 1640.29,-238.065 1629.83,-236.39 1631.07,-243.279"/>
</g>
</g>
</svg>
