<?xml version="1.0" encoding="UTF-8" standalone="no"?>
<!DOCTYPE svg PUBLIC "-//W3C//DTD SVG 1.1//EN"
 "http://www.w3.org/Graphics/SVG/1.1/DTD/svg11.dtd">
<!-- Generated by graphviz version 2.49.3 (0)
 -->
<!-- Title: GUIUtil::TextWidth Pages: 1 -->
<svg width="1620pt" height="450pt"
 viewBox="0.00 0.00 1620.00 449.50" xmlns="http://www.w3.org/2000/svg" xmlns:xlink="http://www.w3.org/1999/xlink">
<g id="graph0" class="graph" transform="scale(1 1) rotate(0) translate(4 445.5)">
<title>GUIUtil::TextWidth</title>
<polygon fill="white" stroke="transparent" points="-4,4 -4,-445.5 1616,-445.5 1616,4 -4,4"/>
<!-- Node1 -->
<g id="node1" class="node">
<title>Node1</title>
<g id="a_node1"><a xlink:title="Returns the distance in pixels appropriate for drawing a subsequent character after text.">
<polygon fill="#bfbfbf" stroke="black" points="1505,-214 1505,-233 1612,-233 1612,-214 1505,-214"/>
<text text-anchor="middle" x="1558.5" y="-221" font-family="Helvetica,sans-Serif" font-size="10.00">GUIUtil::TextWidth</text>
</a>
</g>
</g>
<!-- Node2 -->
<g id="node2" class="node">
<title>Node2</title>
<g id="a_node2"><a xlink:href="namespace_g_u_i_util.html#afeddfe0c71ab8039dc1fe0b7255eacd7" target="_top" xlink:title=" ">
<polygon fill="white" stroke="black" points="1291.5,-338 1291.5,-357 1458.5,-357 1458.5,-338 1291.5,-338"/>
<text text-anchor="middle" x="1375" y="-345" font-family="Helvetica,sans-Serif" font-size="10.00">GUIUtil::calculateIdealFontSize</text>
</a>
</g>
</g>
<!-- Node1&#45;&gt;Node2 -->
<g id="edge1" class="edge">
<title>Node1&#45;&gt;Node2</title>
<path fill="none" stroke="midnightblue" d="M1542.97,-240.85C1526.57,-259.55 1498.34,-289.23 1469,-308.5 1449.54,-321.28 1425.2,-331.31 1406.3,-338"/>
<polygon fill="midnightblue" stroke="midnightblue" points="1545.76,-242.97 1549.63,-233.11 1540.46,-238.4 1545.76,-242.97"/>
</g>
<!-- Node8 -->
<g id="node8" class="node">
<title>Node8</title>
<g id="a_node8"><a xlink:href="class_amount_spin_box.html#aab62a51d94a4dc86d69624769205c289" target="_top" xlink:title=" ">
<polygon fill="white" stroke="black" points="1281,-280 1281,-299 1469,-299 1469,-280 1281,-280"/>
<text text-anchor="middle" x="1375" y="-287" font-family="Helvetica,sans-Serif" font-size="10.00">AmountSpinBox::minimumSizeHint</text>
</a>
</g>
</g>
<!-- Node1&#45;&gt;Node8 -->
<g id="edge7" class="edge">
<title>Node1&#45;&gt;Node8</title>
<path fill="none" stroke="midnightblue" d="M1533.91,-238.43C1516.56,-248.81 1492.07,-262.21 1469,-270.5 1458.45,-274.29 1446.95,-277.4 1435.74,-279.94"/>
<polygon fill="midnightblue" stroke="midnightblue" points="1536.05,-241.23 1542.76,-233.03 1532.4,-235.25 1536.05,-241.23"/>
</g>
<!-- Node9 -->
<g id="node9" class="node">
<title>Node9</title>
<g id="a_node9"><a xlink:href="namespace_g_u_i_util.html#a6302698df1b7ffbc2ce12f1575b35542" target="_top" xlink:title=" ">
<polygon fill="white" stroke="black" points="1294.5,-192 1294.5,-211 1455.5,-211 1455.5,-192 1294.5,-192"/>
<text text-anchor="middle" x="1375" y="-199" font-family="Helvetica,sans-Serif" font-size="10.00">GUIUtil::PolishProgressDialog</text>
</a>
</g>
</g>
<!-- Node1&#45;&gt;Node9 -->
<g id="edge8" class="edge">
<title>Node1&#45;&gt;Node9</title>
<path fill="none" stroke="midnightblue" d="M1494.43,-215.86C1481.61,-214.3 1467.97,-212.65 1454.69,-211.04"/>
<polygon fill="midnightblue" stroke="midnightblue" points="1494.17,-219.35 1504.51,-217.08 1495.01,-212.4 1494.17,-219.35"/>
</g>
<!-- Node27 -->
<g id="node27" class="node">
<title>Node27</title>
<g id="a_node27"><a xlink:href="class_splash_screen.html#ae4734cbdb8ff7c358b37496ae551df78" target="_top" xlink:title=" ">
<polygon fill="white" stroke="black" points="1298.5,-154 1298.5,-173 1451.5,-173 1451.5,-154 1298.5,-154"/>
<text text-anchor="middle" x="1375" y="-161" font-family="Helvetica,sans-Serif" font-size="10.00">SplashScreen::SplashScreen</text>
</a>
</g>
</g>
<!-- Node1&#45;&gt;Node27 -->
<g id="edge30" class="edge">
<title>Node1&#45;&gt;Node27</title>
<path fill="none" stroke="midnightblue" d="M1531.11,-209.3C1513.85,-200.51 1490.58,-189.6 1469,-182.5 1457.73,-178.79 1445.44,-175.67 1433.6,-173.09"/>
<polygon fill="midnightblue" stroke="midnightblue" points="1529.54,-212.43 1540.03,-213.92 1532.76,-206.21 1529.54,-212.43"/>
</g>
<!-- Node28 -->
<g id="node28" class="node">
<title>Node28</title>
<g id="a_node28"><a xlink:href="class_unit_display_status_bar_control.html#a7db4ef1ea7a6a457d7981ee1719b62c1" target="_top" xlink:title=" ">
<polygon fill="white" stroke="black" points="1294,-104.5 1294,-134.5 1456,-134.5 1456,-104.5 1294,-104.5"/>
<text text-anchor="start" x="1302" y="-122.5" font-family="Helvetica,sans-Serif" font-size="10.00">UnitDisplayStatusBarControl</text>
<text text-anchor="middle" x="1375" y="-111.5" font-family="Helvetica,sans-Serif" font-size="10.00">::UnitDisplayStatusBarControl</text>
</a>
</g>
</g>
<!-- Node1&#45;&gt;Node28 -->
<g id="edge31" class="edge">
<title>Node1&#45;&gt;Node28</title>
<path fill="none" stroke="midnightblue" d="M1542.46,-205.93C1526.14,-187.93 1498.43,-160.41 1469,-144.5 1461.94,-140.68 1454.26,-137.42 1446.44,-134.63"/>
<polygon fill="midnightblue" stroke="midnightblue" points="1540.28,-208.73 1549.52,-213.9 1545.52,-204.09 1540.28,-208.73"/>
</g>
<!-- Node29 -->
<g id="node29" class="node">
<title>Node29</title>
<g id="a_node29"><a xlink:href="class_send_coins_dialog.html#ac42a9db733fbb2e06882660400c49517" target="_top" xlink:title=" ">
<polygon fill="white" stroke="black" points="1291,-230.5 1291,-260.5 1459,-260.5 1459,-230.5 1291,-230.5"/>
<text text-anchor="start" x="1299" y="-248.5" font-family="Helvetica,sans-Serif" font-size="10.00">SendCoinsDialog::updateSmart</text>
<text text-anchor="middle" x="1375" y="-237.5" font-family="Helvetica,sans-Serif" font-size="10.00">FeeLabel</text>
</a>
</g>
</g>
<!-- Node1&#45;&gt;Node29 -->
<g id="edge32" class="edge">
<title>Node1&#45;&gt;Node29</title>
<path fill="none" stroke="midnightblue" d="M1494.28,-231.16C1482.92,-232.54 1470.93,-233.99 1459.11,-235.43"/>
<polygon fill="midnightblue" stroke="midnightblue" points="1495.01,-234.6 1504.51,-229.92 1494.17,-227.65 1495.01,-234.6"/>
</g>
<!-- Node3 -->
<g id="node3" class="node">
<title>Node3</title>
<g id="a_node3"><a xlink:href="class_q_r_image_widget.html#a82bd3be243a6f6727ee0d1ab2ad03526" target="_top" xlink:title=" ">
<polygon fill="white" stroke="black" points="1081.5,-358 1081.5,-377 1212.5,-377 1212.5,-358 1081.5,-358"/>
<text text-anchor="middle" x="1147" y="-365" font-family="Helvetica,sans-Serif" font-size="10.00">QRImageWidget::setQR</text>
</a>
</g>
</g>
<!-- Node2&#45;&gt;Node3 -->
<g id="edge2" class="edge">
<title>Node2&#45;&gt;Node3</title>
<path fill="none" stroke="midnightblue" d="M1281.3,-355.7C1258.24,-357.74 1234.02,-359.89 1212.64,-361.78"/>
<polygon fill="midnightblue" stroke="midnightblue" points="1281.8,-359.17 1291.45,-354.81 1281.18,-352.2 1281.8,-359.17"/>
</g>
<!-- Node4 -->
<g id="node4" class="node">
<title>Node4</title>
<g id="a_node4"><a xlink:href="class_receive_request_dialog.html#a43344270ef71e68ad9c7a931cc0ca9ed" target="_top" xlink:title=" ">
<polygon fill="white" stroke="black" points="874.5,-353.5 874.5,-383.5 1001.5,-383.5 1001.5,-353.5 874.5,-353.5"/>
<text text-anchor="start" x="882.5" y="-371.5" font-family="Helvetica,sans-Serif" font-size="10.00">ReceiveRequestDialog</text>
<text text-anchor="middle" x="938" y="-360.5" font-family="Helvetica,sans-Serif" font-size="10.00">::setInfo</text>
</a>
</g>
</g>
<!-- Node3&#45;&gt;Node4 -->
<g id="edge3" class="edge">
<title>Node3&#45;&gt;Node4</title>
<path fill="none" stroke="midnightblue" d="M1071.07,-367.86C1048.33,-367.97 1023.59,-368.09 1001.74,-368.2"/>
<polygon fill="midnightblue" stroke="midnightblue" points="1071.37,-371.36 1081.36,-367.81 1071.34,-364.36 1071.37,-371.36"/>
</g>
<!-- Node5 -->
<g id="node5" class="node">
<title>Node5</title>
<g id="a_node5"><a xlink:href="class_receive_coins_dialog.html#a9db8de31f6889288cb22c061aa51e0cd" target="_top" xlink:title=" ">
<polygon fill="white" stroke="black" points="678.5,-350.5 678.5,-380.5 825.5,-380.5 825.5,-350.5 678.5,-350.5"/>
<text text-anchor="start" x="686.5" y="-368.5" font-family="Helvetica,sans-Serif" font-size="10.00">ReceiveCoinsDialog</text>
<text text-anchor="middle" x="752" y="-357.5" font-family="Helvetica,sans-Serif" font-size="10.00">::on_receiveButton_clicked</text>
</a>
</g>
</g>
<!-- Node4&#45;&gt;Node5 -->
<g id="edge4" class="edge">
<title>Node4&#45;&gt;Node5</title>
<path fill="none" stroke="midnightblue" d="M864.34,-367.32C851.58,-367.11 838.29,-366.89 825.53,-366.68"/>
<polygon fill="midnightblue" stroke="midnightblue" points="864.39,-370.82 874.45,-367.48 864.51,-363.82 864.39,-370.82"/>
</g>
<!-- Node6 -->
<g id="node6" class="node">
<title>Node6</title>
<g id="a_node6"><a xlink:href="class_receive_coins_dialog.html#a5eabd6106c8e3b275305b84c0303f314" target="_top" xlink:title=" ">
<polygon fill="white" stroke="black" points="682,-400 682,-441 822,-441 822,-400 682,-400"/>
<text text-anchor="start" x="690" y="-429" font-family="Helvetica,sans-Serif" font-size="10.00">ReceiveCoinsDialog</text>
<text text-anchor="start" x="690" y="-418" font-family="Helvetica,sans-Serif" font-size="10.00">::on_recentRequestsView</text>
<text text-anchor="middle" x="752" y="-407" font-family="Helvetica,sans-Serif" font-size="10.00">_doubleClicked</text>
</a>
</g>
</g>
<!-- Node4&#45;&gt;Node6 -->
<g id="edge5" class="edge">
<title>Node4&#45;&gt;Node6</title>
<path fill="none" stroke="midnightblue" d="M874.12,-386.27C857.4,-391 839.25,-396.12 822.22,-400.94"/>
<polygon fill="midnightblue" stroke="midnightblue" points="875.11,-389.63 883.78,-383.54 873.2,-382.89 875.11,-389.63"/>
</g>
<!-- Node7 -->
<g id="node7" class="node">
<title>Node7</title>
<g id="a_node7"><a xlink:href="class_receive_coins_dialog.html#a56df78045de75af55f4c4045ad4b7fcd" target="_top" xlink:title=" ">
<polygon fill="white" stroke="black" points="504,-400 504,-441 641,-441 641,-400 504,-400"/>
<text text-anchor="start" x="512" y="-429" font-family="Helvetica,sans-Serif" font-size="10.00">ReceiveCoinsDialog</text>
<text text-anchor="start" x="512" y="-418" font-family="Helvetica,sans-Serif" font-size="10.00">::on_showRequestButton</text>
<text text-anchor="middle" x="572.5" y="-407" font-family="Helvetica,sans-Serif" font-size="10.00">_clicked</text>
</a>
</g>
</g>
<!-- Node6&#45;&gt;Node7 -->
<g id="edge6" class="edge">
<title>Node6&#45;&gt;Node7</title>
<path fill="none" stroke="midnightblue" d="M671.77,-420.5C661.59,-420.5 651.25,-420.5 641.28,-420.5"/>
<polygon fill="midnightblue" stroke="midnightblue" points="671.87,-424 681.87,-420.5 671.87,-417 671.87,-424"/>
</g>
<!-- Node10 -->
<g id="node10" class="node">
<title>Node10</title>
<g id="a_node10"><a xlink:href="class_bitcoin_g_u_i.html#a89029e61a405a976ba8117d4b38568f0" target="_top" xlink:title="Show progress dialog e.g.">
<polygon fill="white" stroke="black" points="1076,-154 1076,-173 1218,-173 1218,-154 1076,-154"/>
<text text-anchor="middle" x="1147" y="-161" font-family="Helvetica,sans-Serif" font-size="10.00">BitcoinGUI::showProgress</text>
</a>
</g>
</g>
<!-- Node9&#45;&gt;Node10 -->
<g id="edge9" class="edge">
<title>Node9&#45;&gt;Node10</title>
<path fill="none" stroke="midnightblue" d="M1307.36,-190.3C1274.76,-184.81 1235.93,-178.28 1204.76,-173.04"/>
<polygon fill="midnightblue" stroke="midnightblue" points="1306.82,-193.75 1317.26,-191.96 1307.98,-186.85 1306.82,-193.75"/>
</g>
<!-- Node20 -->
<g id="node20" class="node">
<title>Node20</title>
<g id="a_node20"><a xlink:href="class_wallet_view.html#a8a1f4b689abc0f1073c547ec1f871a26" target="_top" xlink:title="Show progress dialog e.g.">
<polygon fill="white" stroke="black" points="1075,-192 1075,-211 1219,-211 1219,-192 1075,-192"/>
<text text-anchor="middle" x="1147" y="-199" font-family="Helvetica,sans-Serif" font-size="10.00">WalletView::showProgress</text>
</a>
</g>
</g>
<!-- Node9&#45;&gt;Node20 -->
<g id="edge23" class="edge">
<title>Node9&#45;&gt;Node20</title>
<path fill="none" stroke="midnightblue" d="M1284.15,-201.5C1262.51,-201.5 1239.7,-201.5 1219.06,-201.5"/>
<polygon fill="midnightblue" stroke="midnightblue" points="1284.32,-205 1294.32,-201.5 1284.32,-198 1284.32,-205"/>
</g>
<!-- Node22 -->
<g id="node22" class="node">
<title>Node22</title>
<g id="a_node22"><a xlink:href="class_wallet_controller_activity.html#ac8cd9c626cd43099080c30cdf67f6c86" target="_top" xlink:title=" ">
<polygon fill="white" stroke="black" points="1080.5,-74.5 1080.5,-104.5 1213.5,-104.5 1213.5,-74.5 1080.5,-74.5"/>
<text text-anchor="start" x="1088.5" y="-92.5" font-family="Helvetica,sans-Serif" font-size="10.00">WalletControllerActivity</text>
<text text-anchor="middle" x="1147" y="-81.5" font-family="Helvetica,sans-Serif" font-size="10.00">::showProgressDialog</text>
</a>
</g>
</g>
<!-- Node9&#45;&gt;Node22 -->
<g id="edge25" class="edge">
<title>Node9&#45;&gt;Node22</title>
<path fill="none" stroke="midnightblue" d="M1293.58,-188.42C1289.22,-186.68 1285,-184.72 1281,-182.5 1260.66,-171.2 1263.32,-158.84 1245,-144.5 1224.88,-128.75 1199.72,-114.62 1180.06,-104.63"/>
<polygon fill="midnightblue" stroke="midnightblue" points="1292.68,-191.81 1303.28,-191.86 1295.02,-185.22 1292.68,-191.81"/>
</g>
<!-- Node11 -->
<g id="node11" class="node">
<title>Node11</title>
<g id="a_node11"><a xlink:href="class_bitcoin_g_u_i.html#a1591636d24646b9852c2bee83329d3e1" target="_top" xlink:title="Set the client model.">
<polygon fill="white" stroke="black" points="864,-154 864,-173 1012,-173 1012,-154 864,-154"/>
<text text-anchor="middle" x="938" y="-161" font-family="Helvetica,sans-Serif" font-size="10.00">BitcoinGUI::setClientModel</text>
</a>
</g>
</g>
<!-- Node10&#45;&gt;Node11 -->
<g id="edge10" class="edge">
<title>Node10&#45;&gt;Node11</title>
<path fill="none" stroke="midnightblue" d="M1065.67,-163.5C1048.06,-163.5 1029.51,-163.5 1012.19,-163.5"/>
<polygon fill="midnightblue" stroke="midnightblue" points="1065.92,-167 1075.92,-163.5 1065.92,-160 1065.92,-167"/>
</g>
<!-- Node12 -->
<g id="node12" class="node">
<title>Node12</title>
<g id="a_node12"><a xlink:href="class_bitcoin_application.html#a3ff77a2e6ccf75ea700118b50636bdf1" target="_top" xlink:title=" ">
<polygon fill="white" stroke="black" points="520,-139.5 520,-169.5 625,-169.5 625,-139.5 520,-139.5"/>
<text text-anchor="start" x="528" y="-157.5" font-family="Helvetica,sans-Serif" font-size="10.00">BitcoinApplication</text>
<text text-anchor="middle" x="572.5" y="-146.5" font-family="Helvetica,sans-Serif" font-size="10.00">::initializeResult</text>
</a>
</g>
</g>
<!-- Node11&#45;&gt;Node12 -->
<g id="edge11" class="edge">
<title>Node11&#45;&gt;Node12</title>
<path fill="none" stroke="midnightblue" d="M853.7,-161.44C783.28,-159.69 684.61,-157.25 625.1,-155.78"/>
<polygon fill="midnightblue" stroke="midnightblue" points="853.79,-164.94 863.88,-161.69 853.97,-157.94 853.79,-164.94"/>
</g>
<!-- Node18 -->
<g id="node18" class="node">
<title>Node18</title>
<g id="a_node18"><a xlink:href="class_bitcoin_application.html#a37c560d4c04d14a6da151b82caf8888f" target="_top" xlink:title="Request core shutdown.">
<polygon fill="white" stroke="black" points="698.5,-183.5 698.5,-213.5 805.5,-213.5 805.5,-183.5 698.5,-183.5"/>
<text text-anchor="start" x="706.5" y="-201.5" font-family="Helvetica,sans-Serif" font-size="10.00">BitcoinApplication</text>
<text text-anchor="middle" x="752" y="-190.5" font-family="Helvetica,sans-Serif" font-size="10.00">::requestShutdown</text>
</a>
</g>
</g>
<!-- Node11&#45;&gt;Node18 -->
<g id="edge17" class="edge">
<title>Node11&#45;&gt;Node18</title>
<path fill="none" stroke="midnightblue" d="M876.77,-174.96C853.86,-179.31 827.96,-184.24 805.79,-188.46"/>
<polygon fill="midnightblue" stroke="midnightblue" points="877.55,-178.37 886.72,-173.06 876.24,-171.49 877.55,-178.37"/>
</g>
<!-- Node13 -->
<g id="node13" class="node">
<title>Node13</title>
<g id="a_node13"><a xlink:href="class_bitcoin_application.html#a61afce9356e452c53ad4c83f5ca19df8" target="_top" xlink:title=" ">
<polygon fill="white" stroke="black" points="363,-137.5 363,-167.5 468,-167.5 468,-137.5 363,-137.5"/>
<text text-anchor="start" x="371" y="-155.5" font-family="Helvetica,sans-Serif" font-size="10.00">BitcoinApplication</text>
<text text-anchor="middle" x="415.5" y="-144.5" font-family="Helvetica,sans-Serif" font-size="10.00">::startThread</text>
</a>
</g>
</g>
<!-- Node12&#45;&gt;Node13 -->
<g id="edge12" class="edge">
<title>Node12&#45;&gt;Node13</title>
<path fill="none" stroke="midnightblue" d="M509.55,-153.7C495.82,-153.52 481.42,-153.34 468.15,-153.17"/>
<polygon fill="midnightblue" stroke="midnightblue" points="509.84,-157.2 519.89,-153.83 509.93,-150.21 509.84,-157.2"/>
</g>
<!-- Node14 -->
<g id="node14" class="node">
<title>Node14</title>
<g id="a_node14"><a xlink:href="class_bitcoin_application.html#ade19c44b87b00b6b19b433caf4c22ba6" target="_top" xlink:title="Request core initialization.">
<polygon fill="white" stroke="black" points="222,-134.5 222,-164.5 327,-164.5 327,-134.5 222,-134.5"/>
<text text-anchor="start" x="230" y="-152.5" font-family="Helvetica,sans-Serif" font-size="10.00">BitcoinApplication</text>
<text text-anchor="middle" x="274.5" y="-141.5" font-family="Helvetica,sans-Serif" font-size="10.00">::requestInitialize</text>
</a>
</g>
</g>
<!-- Node13&#45;&gt;Node14 -->
<g id="edge13" class="edge">
<title>Node13&#45;&gt;Node14</title>
<path fill="none" stroke="midnightblue" d="M352.56,-151.16C344.12,-150.98 335.53,-150.8 327.3,-150.62"/>
<polygon fill="midnightblue" stroke="midnightblue" points="352.67,-154.67 362.74,-151.38 352.82,-147.67 352.67,-154.67"/>
</g>
<!-- Node15 -->
<g id="node15" class="node">
<title>Node15</title>
<g id="a_node15"><a xlink:href="class_app_tests.html#adcda657f85c5475682e7201f782894e0" target="_top" xlink:title="Entry point for BitcoinApplication tests.">
<polygon fill="white" stroke="black" points="77,-189 77,-208 186,-208 186,-189 77,-189"/>
<text text-anchor="middle" x="131.5" y="-196" font-family="Helvetica,sans-Serif" font-size="10.00">AppTests::appTests</text>
</a>
</g>
</g>
<!-- Node14&#45;&gt;Node15 -->
<g id="edge14" class="edge">
<title>Node14&#45;&gt;Node15</title>
<path fill="none" stroke="midnightblue" d="M220.47,-167.93C199.91,-175.08 177.23,-182.95 160.05,-188.92"/>
<polygon fill="midnightblue" stroke="midnightblue" points="221.75,-171.19 230.04,-164.6 219.45,-164.58 221.75,-171.19"/>
</g>
<!-- Node16 -->
<g id="node16" class="node">
<title>Node16</title>
<g id="a_node16"><a xlink:href="bitcoin_8cpp.html#a810d06fb8004c57d668eeb540ae582b7" target="_top" xlink:title=" ">
<polygon fill="white" stroke="black" points="103,-146 103,-165 160,-165 160,-146 103,-146"/>
<text text-anchor="middle" x="131.5" y="-153" font-family="Helvetica,sans-Serif" font-size="10.00">GuiMain</text>
</a>
</g>
</g>
<!-- Node14&#45;&gt;Node16 -->
<g id="edge15" class="edge">
<title>Node14&#45;&gt;Node16</title>
<path fill="none" stroke="midnightblue" d="M211.6,-152.13C193.58,-152.9 174.79,-153.7 160.06,-154.33"/>
<polygon fill="midnightblue" stroke="midnightblue" points="211.96,-155.62 221.8,-151.7 211.66,-148.63 211.96,-155.62"/>
</g>
<!-- Node17 -->
<g id="node17" class="node">
<title>Node17</title>
<g id="a_node17"><a xlink:href="qt_2main_8cpp.html#a0ddf1224851353fc92bfbff6f499fa97" target="_top" xlink:title=" ">
<polygon fill="white" stroke="black" points="0,-146 0,-165 41,-165 41,-146 0,-146"/>
<text text-anchor="middle" x="20.5" y="-153" font-family="Helvetica,sans-Serif" font-size="10.00">main</text>
</a>
</g>
</g>
<!-- Node16&#45;&gt;Node17 -->
<g id="edge16" class="edge">
<title>Node16&#45;&gt;Node17</title>
<path fill="none" stroke="midnightblue" d="M92.58,-155.5C75.22,-155.5 55.39,-155.5 41.09,-155.5"/>
<polygon fill="midnightblue" stroke="midnightblue" points="92.99,-159 102.99,-155.5 92.99,-152 92.99,-159"/>
</g>
<!-- Node18&#45;&gt;Node12 -->
<g id="edge22" class="edge">
<title>Node18&#45;&gt;Node12</title>
<path fill="none" stroke="midnightblue" d="M688.27,-182.95C667.61,-177.83 644.89,-172.2 625.16,-167.3"/>
<polygon fill="midnightblue" stroke="midnightblue" points="687.68,-186.41 698.22,-185.42 689.36,-179.61 687.68,-186.41"/>
</g>
<!-- Node18&#45;&gt;Node15 -->
<g id="edge18" class="edge">
<title>Node18&#45;&gt;Node15</title>
<path fill="none" stroke="midnightblue" d="M688.27,-207.49C672.84,-209.42 656.35,-211.26 641,-212.5 455.32,-227.54 406.56,-248.79 222,-223.5 200.58,-220.56 177.06,-213.85 159.51,-208.12"/>
<polygon fill="midnightblue" stroke="midnightblue" points="688.76,-210.96 698.23,-206.21 687.86,-204.01 688.76,-210.96"/>
</g>
<!-- Node19 -->
<g id="node19" class="node">
<title>Node19</title>
<g id="a_node19"><a xlink:href="class_bitcoin_application.html#a6703e53287323f1437ea445e1c635151" target="_top" xlink:title="Create main window.">
<polygon fill="white" stroke="black" points="222,-183.5 222,-213.5 327,-213.5 327,-183.5 222,-183.5"/>
<text text-anchor="start" x="230" y="-201.5" font-family="Helvetica,sans-Serif" font-size="10.00">BitcoinApplication</text>
<text text-anchor="middle" x="274.5" y="-190.5" font-family="Helvetica,sans-Serif" font-size="10.00">::createWindow</text>
</a>
</g>
</g>
<!-- Node18&#45;&gt;Node19 -->
<g id="edge19" class="edge">
<title>Node18&#45;&gt;Node19</title>
<path fill="none" stroke="midnightblue" d="M688.27,-198.5C593.43,-198.5 415.31,-198.5 327.35,-198.5"/>
<polygon fill="midnightblue" stroke="midnightblue" points="688.3,-202 698.3,-198.5 688.3,-195 688.3,-202"/>
</g>
<!-- Node19&#45;&gt;Node15 -->
<g id="edge20" class="edge">
<title>Node19&#45;&gt;Node15</title>
<path fill="none" stroke="midnightblue" d="M211.56,-198.5C203.07,-198.5 194.41,-198.5 186.09,-198.5"/>
<polygon fill="midnightblue" stroke="midnightblue" points="211.8,-202 221.8,-198.5 211.8,-195 211.8,-202"/>
</g>
<!-- Node19&#45;&gt;Node16 -->
<g id="edge21" class="edge">
<title>Node19&#45;&gt;Node16</title>
<path fill="none" stroke="midnightblue" d="M214.48,-180.5C195.66,-174.76 175.72,-168.68 160.22,-163.95"/>
<polygon fill="midnightblue" stroke="midnightblue" points="213.6,-183.89 224.19,-183.46 215.64,-177.2 213.6,-183.89"/>
</g>
<!-- Node21 -->
<g id="node21" class="node">
<title>Node21</title>
<g id="a_node21"><a xlink:href="class_wallet_view.html#a79d29a17c35d1abb09c5898d2d4f2220" target="_top" xlink:title=" ">
<polygon fill="white" stroke="black" points="686.5,-233 686.5,-252 817.5,-252 817.5,-233 686.5,-233"/>
<text text-anchor="middle" x="752" y="-240" font-family="Helvetica,sans-Serif" font-size="10.00">WalletView::WalletView</text>
</a>
</g>
</g>
<!-- Node20&#45;&gt;Node21 -->
<g id="edge24" class="edge">
<title>Node20&#45;&gt;Node21</title>
<path fill="none" stroke="midnightblue" d="M1064.54,-205.81C1007.88,-209.3 930.67,-215.04 863,-223.5 843.1,-225.99 821.31,-229.57 802.41,-232.95"/>
<polygon fill="midnightblue" stroke="midnightblue" points="1065.1,-209.28 1074.87,-205.18 1064.68,-202.29 1065.1,-209.28"/>
</g>
<!-- Node23 -->
<g id="node23" class="node">
<title>Node23</title>
<g id="a_node23"><a xlink:href="class_create_wallet_activity.html#adf4fad6d0e5136922b7bc7a3c41e60ad" target="_top" xlink:title=" ">
<polygon fill="white" stroke="black" points="879.5,-98.5 879.5,-128.5 996.5,-128.5 996.5,-98.5 879.5,-98.5"/>
<text text-anchor="start" x="887.5" y="-116.5" font-family="Helvetica,sans-Serif" font-size="10.00">CreateWalletActivity</text>
<text text-anchor="middle" x="938" y="-105.5" font-family="Helvetica,sans-Serif" font-size="10.00">::createWallet</text>
</a>
</g>
</g>
<!-- Node22&#45;&gt;Node23 -->
<g id="edge26" class="edge">
<title>Node22&#45;&gt;Node23</title>
<path fill="none" stroke="midnightblue" d="M1069.97,-98.31C1045.72,-101.13 1019.3,-104.19 996.58,-106.82"/>
<polygon fill="midnightblue" stroke="midnightblue" points="1070.69,-101.76 1080.22,-97.13 1069.88,-94.8 1070.69,-101.76"/>
</g>
<!-- Node25 -->
<g id="node25" class="node">
<title>Node25</title>
<g id="a_node25"><a xlink:href="class_load_wallets_activity.html#afe27ce5df2edeadbe0298d993f8262ce" target="_top" xlink:title=" ">
<polygon fill="white" stroke="black" points="881.5,-49.5 881.5,-79.5 994.5,-79.5 994.5,-49.5 881.5,-49.5"/>
<text text-anchor="start" x="889.5" y="-67.5" font-family="Helvetica,sans-Serif" font-size="10.00">LoadWalletsActivity</text>
<text text-anchor="middle" x="938" y="-56.5" font-family="Helvetica,sans-Serif" font-size="10.00">::load</text>
</a>
</g>
</g>
<!-- Node22&#45;&gt;Node25 -->
<g id="edge28" class="edge">
<title>Node22&#45;&gt;Node25</title>
<path fill="none" stroke="midnightblue" d="M1070.03,-80.33C1045.03,-77.31 1017.72,-74.01 994.53,-71.21"/>
<polygon fill="midnightblue" stroke="midnightblue" points="1069.87,-83.83 1080.22,-81.56 1070.71,-76.88 1069.87,-83.83"/>
</g>
<!-- Node26 -->
<g id="node26" class="node">
<title>Node26</title>
<g id="a_node26"><a xlink:href="class_open_wallet_activity.html#a91fcecde5df5780118ecba02e7ac60f9" target="_top" xlink:title=" ">
<polygon fill="white" stroke="black" points="883,-0.5 883,-30.5 993,-30.5 993,-0.5 883,-0.5"/>
<text text-anchor="start" x="891" y="-18.5" font-family="Helvetica,sans-Serif" font-size="10.00">OpenWalletActivity</text>
<text text-anchor="middle" x="938" y="-7.5" font-family="Helvetica,sans-Serif" font-size="10.00">::open</text>
</a>
</g>
</g>
<!-- Node22&#45;&gt;Node26 -->
<g id="edge29" class="edge">
<title>Node22&#45;&gt;Node26</title>
<path fill="none" stroke="midnightblue" d="M1098.13,-70.9C1072.9,-61.25 1041.39,-49.43 1013,-39.5 1004.46,-36.51 995.32,-33.44 986.48,-30.54"/>
<polygon fill="midnightblue" stroke="midnightblue" points="1096.88,-74.16 1107.47,-74.48 1099.39,-67.63 1096.88,-74.16"/>
</g>
<!-- Node24 -->
<g id="node24" class="node">
<title>Node24</title>
<g id="a_node24"><a xlink:href="class_create_wallet_activity.html#a4730a02fc7b46e8c8f4e0d0fc58d5b78" target="_top" xlink:title=" ">
<polygon fill="white" stroke="black" points="693.5,-95.5 693.5,-125.5 810.5,-125.5 810.5,-95.5 693.5,-95.5"/>
<text text-anchor="start" x="701.5" y="-113.5" font-family="Helvetica,sans-Serif" font-size="10.00">CreateWalletActivity</text>
<text text-anchor="middle" x="752" y="-102.5" font-family="Helvetica,sans-Serif" font-size="10.00">::askPassphrase</text>
</a>
</g>
</g>
<!-- Node23&#45;&gt;Node24 -->
<g id="edge27" class="edge">
<title>Node23&#45;&gt;Node24</title>
<path fill="none" stroke="midnightblue" d="M869.08,-112.39C849.83,-112.08 829.08,-111.74 810.51,-111.44"/>
<polygon fill="midnightblue" stroke="midnightblue" points="869.23,-115.9 879.29,-112.56 869.34,-108.9 869.23,-115.9"/>
</g>
<!-- Node30 -->
<g id="node30" class="node">
<title>Node30</title>
<g id="a_node30"><a xlink:href="class_send_coins_dialog.html#a73a6c1b1850a334ee652ac167713a2aa" target="_top" xlink:title=" ">
<polygon fill="white" stroke="black" points="863,-233 863,-252 1013,-252 1013,-233 863,-233"/>
<text text-anchor="middle" x="938" y="-240" font-family="Helvetica,sans-Serif" font-size="10.00">SendCoinsDialog::setModel</text>
</a>
</g>
</g>
<!-- Node29&#45;&gt;Node30 -->
<g id="edge33" class="edge">
<title>Node29&#45;&gt;Node30</title>
<path fill="none" stroke="midnightblue" d="M1280.83,-244.86C1200.82,-244.31 1087.03,-243.52 1013.11,-243.01"/>
<polygon fill="midnightblue" stroke="midnightblue" points="1280.88,-248.36 1290.9,-244.93 1280.92,-241.36 1280.88,-248.36"/>
</g>
<!-- Node31 -->
<g id="node31" class="node">
<title>Node31</title>
<g id="a_node31"><a xlink:href="class_send_coins_dialog.html#a74815ad8502b126200b6fd2e59e9f042" target="_top" xlink:title=" ">
<polygon fill="white" stroke="black" points="1049,-268 1049,-287 1245,-287 1245,-268 1049,-268"/>
<text text-anchor="middle" x="1147" y="-275" font-family="Helvetica,sans-Serif" font-size="10.00">SendCoinsDialog::updateDisplayUnit</text>
</a>
</g>
</g>
<!-- Node29&#45;&gt;Node31 -->
<g id="edge35" class="edge">
<title>Node29&#45;&gt;Node31</title>
<path fill="none" stroke="midnightblue" d="M1280.78,-258.7C1258.77,-261.82 1235.73,-265.08 1215.14,-267.99"/>
<polygon fill="midnightblue" stroke="midnightblue" points="1281.4,-262.15 1290.81,-257.28 1280.42,-255.22 1281.4,-262.15"/>
</g>
<!-- Node32 -->
<g id="node32" class="node">
<title>Node32</title>
<g id="a_node32"><a xlink:href="class_send_coins_dialog.html#a2abc013653a3608529c812981dc103e0" target="_top" xlink:title=" ">
<polygon fill="white" stroke="black" points="1058,-306.5 1058,-336.5 1236,-336.5 1236,-306.5 1058,-306.5"/>
<text text-anchor="start" x="1066" y="-324.5" font-family="Helvetica,sans-Serif" font-size="10.00">SendCoinsDialog::updateNumber</text>
<text text-anchor="middle" x="1147" y="-313.5" font-family="Helvetica,sans-Serif" font-size="10.00">OfBlocks</text>
</a>
</g>
</g>
<!-- Node29&#45;&gt;Node32 -->
<g id="edge37" class="edge">
<title>Node29&#45;&gt;Node32</title>
<path fill="none" stroke="midnightblue" d="M1296.64,-263.94C1291.27,-265.94 1286,-268.12 1281,-270.5 1263.18,-278.98 1262.87,-288.11 1245,-296.5 1236.81,-300.34 1227.95,-303.66 1219.02,-306.5"/>
<polygon fill="midnightblue" stroke="midnightblue" points="1298.11,-267.14 1306.4,-260.55 1295.81,-260.53 1298.11,-267.14"/>
</g>
<!-- Node30&#45;&gt;Node21 -->
<g id="edge34" class="edge">
<title>Node30&#45;&gt;Node21</title>
<path fill="none" stroke="midnightblue" d="M852.69,-242.5C840.94,-242.5 829.02,-242.5 817.71,-242.5"/>
<polygon fill="midnightblue" stroke="midnightblue" points="852.96,-246 862.96,-242.5 852.96,-239 852.96,-246"/>
</g>
<!-- Node31&#45;&gt;Node30 -->
<g id="edge36" class="edge">
<title>Node31&#45;&gt;Node30</title>
<path fill="none" stroke="midnightblue" d="M1079.51,-266.26C1052.36,-261.67 1021.29,-256.41 995.28,-252.02"/>
<polygon fill="midnightblue" stroke="midnightblue" points="1079.27,-269.77 1089.71,-267.98 1080.43,-262.86 1079.27,-269.77"/>
</g>
<!-- Node33 -->
<g id="node33" class="node">
<title>Node33</title>
<g id="a_node33"><a xlink:href="class_send_coins_dialog.html#a360a23c02bd0e581b78603ccb863eb79" target="_top" xlink:title=" ">
<polygon fill="white" stroke="black" points="863.5,-304.5 863.5,-334.5 1012.5,-334.5 1012.5,-304.5 863.5,-304.5"/>
<text text-anchor="start" x="871.5" y="-322.5" font-family="Helvetica,sans-Serif" font-size="10.00">SendCoinsDialog::setClient</text>
<text text-anchor="middle" x="938" y="-311.5" font-family="Helvetica,sans-Serif" font-size="10.00">Model</text>
</a>
</g>
</g>
<!-- Node32&#45;&gt;Node33 -->
<g id="edge38" class="edge">
<title>Node32&#45;&gt;Node33</title>
<path fill="none" stroke="midnightblue" d="M1047.61,-320.55C1035.85,-320.44 1024,-320.32 1012.67,-320.21"/>
<polygon fill="midnightblue" stroke="midnightblue" points="1047.88,-324.05 1057.91,-320.65 1047.95,-317.05 1047.88,-324.05"/>
</g>
<!-- Node34 -->
<g id="node34" class="node">
<title>Node34</title>
<g id="a_node34"><a xlink:href="class_wallet_view.html#a46d9a8d93adfdcc29cae9ff0d44c313e" target="_top" xlink:title="Set the client model.">
<polygon fill="white" stroke="black" points="677,-310 677,-329 827,-329 827,-310 677,-310"/>
<text text-anchor="middle" x="752" y="-317" font-family="Helvetica,sans-Serif" font-size="10.00">WalletView::setClientModel</text>
</a>
</g>
</g>
<!-- Node33&#45;&gt;Node34 -->
<g id="edge39" class="edge">
<title>Node33&#45;&gt;Node34</title>
<path fill="none" stroke="midnightblue" d="M853.35,-319.5C844.66,-319.5 835.87,-319.5 827.3,-319.5"/>
<polygon fill="midnightblue" stroke="midnightblue" points="853.49,-323 863.49,-319.5 853.49,-316 853.49,-323"/>
</g>
<!-- Node35 -->
<g id="node35" class="node">
<title>Node35</title>
<g id="a_node35"><a xlink:href="class_wallet_frame.html#a077cea8ed9089a7ce4400f647f86d135" target="_top" xlink:title=" ">
<polygon fill="white" stroke="black" points="509.5,-310 509.5,-329 635.5,-329 635.5,-310 509.5,-310"/>
<text text-anchor="middle" x="572.5" y="-317" font-family="Helvetica,sans-Serif" font-size="10.00">WalletFrame::addView</text>
</a>
</g>
</g>
<!-- Node34&#45;&gt;Node35 -->
<g id="edge40" class="edge">
<title>Node34&#45;&gt;Node35</title>
<path fill="none" stroke="midnightblue" d="M666.75,-319.5C656.27,-319.5 645.7,-319.5 635.64,-319.5"/>
<polygon fill="midnightblue" stroke="midnightblue" points="666.75,-323 676.75,-319.5 666.75,-316 666.75,-323"/>
</g>
</g>
</svg>
