<?xml version="1.0" encoding="UTF-8" standalone="no"?>
<!DOCTYPE svg PUBLIC "-//W3C//DTD SVG 1.1//EN"
 "http://www.w3.org/Graphics/SVG/1.1/DTD/svg11.dtd">
<!-- Generated by graphviz version 2.49.3 (0)
 -->
<!-- Title: init::SanityChecks Pages: 1 -->
<svg width="1099pt" height="845pt"
 viewBox="0.00 0.00 1099.00 845.00" xmlns="http://www.w3.org/2000/svg" xmlns:xlink="http://www.w3.org/1999/xlink">
<g id="graph0" class="graph" transform="scale(1 1) rotate(0) translate(4 841)">
<title>init::SanityChecks</title>
<polygon fill="white" stroke="transparent" points="-4,4 -4,-841 1095,-841 1095,4 -4,4"/>
<!-- Node1 -->
<g id="node1" class="node">
<title>Node1</title>
<g id="a_node1"><a xlink:title="Ensure a usable environment with all necessary library support.">
<polygon fill="#bfbfbf" stroke="black" points="0,-248.5 0,-267.5 104,-267.5 104,-248.5 0,-248.5"/>
<text text-anchor="middle" x="52" y="-255.5" font-family="Helvetica,sans-Serif" font-size="10.00">init::SanityChecks</text>
</a>
</g>
</g>
<!-- Node2 -->
<g id="node2" class="node">
<title>Node2</title>
<g id="a_node2"><a xlink:href="time_8cpp.html#ad8f81ed84bdb8681ce120e3683c48b5a" target="_top" xlink:title="Sanity check epoch match normal Unix epoch.">
<polygon fill="white" stroke="black" points="145.5,-779.5 145.5,-798.5 257.5,-798.5 257.5,-779.5 145.5,-779.5"/>
<text text-anchor="middle" x="201.5" y="-786.5" font-family="Helvetica,sans-Serif" font-size="10.00">ChronoSanityCheck</text>
</a>
</g>
</g>
<!-- Node1&#45;&gt;Node2 -->
<g id="edge1" class="edge">
<title>Node1&#45;&gt;Node2</title>
<path fill="none" stroke="midnightblue" d="M55.69,-267.67C73.17,-330.62 170.86,-682.31 195.07,-769.46"/>
<polygon fill="midnightblue" stroke="midnightblue" points="191.71,-770.45 197.76,-779.15 198.46,-768.58 191.71,-770.45"/>
</g>
<!-- Node6 -->
<g id="node6" class="node">
<title>Node6</title>
<g id="a_node6"><a xlink:href="key_8cpp.html#adc8d142f5bcd2ca6646462fb45a7945d" target="_top" xlink:title="Check that required EC support is available at runtime.">
<polygon fill="white" stroke="black" points="142.5,-324.5 142.5,-343.5 260.5,-343.5 260.5,-324.5 142.5,-324.5"/>
<text text-anchor="middle" x="201.5" y="-331.5" font-family="Helvetica,sans-Serif" font-size="10.00">ECC_InitSanityCheck</text>
</a>
</g>
</g>
<!-- Node1&#45;&gt;Node6 -->
<g id="edge6" class="edge">
<title>Node1&#45;&gt;Node6</title>
<path fill="none" stroke="midnightblue" d="M71.68,-267.63C97.28,-280.82 143.45,-304.61 173.01,-319.83"/>
<polygon fill="midnightblue" stroke="midnightblue" points="171.48,-322.98 181.97,-324.45 174.68,-316.76 171.48,-322.98"/>
</g>
<!-- Node116 -->
<g id="node37" class="node">
<title>Node116</title>
<g id="a_node37"><a xlink:href="glibcxx__sanity_8cpp.html#a27574b50d8065308bac0ac675586fd02" target="_top" xlink:title=" ">
<polygon fill="white" stroke="black" points="146,-267.5 146,-286.5 257,-286.5 257,-267.5 146,-267.5"/>
<text text-anchor="middle" x="201.5" y="-274.5" font-family="Helvetica,sans-Serif" font-size="10.00">glibcxx_sanity_test</text>
</a>
</g>
</g>
<!-- Node1&#45;&gt;Node116 -->
<g id="edge50" class="edge">
<title>Node1&#45;&gt;Node116</title>
<path fill="none" stroke="midnightblue" d="M104.17,-264.59C114.39,-265.91 125.24,-267.31 135.84,-268.67"/>
<polygon fill="midnightblue" stroke="midnightblue" points="135.53,-272.16 145.9,-269.97 136.43,-265.22 135.53,-272.16"/>
</g>
<!-- Node118 -->
<g id="node39" class="node">
<title>Node118</title>
<g id="a_node39"><a xlink:href="ui__interface_8cpp.html#ac45da4747e2edcea279f5083d6e18b70" target="_top" xlink:title="Show error message.">
<polygon fill="white" stroke="black" points="173.5,-229.5 173.5,-248.5 229.5,-248.5 229.5,-229.5 173.5,-229.5"/>
<text text-anchor="middle" x="201.5" y="-236.5" font-family="Helvetica,sans-Serif" font-size="10.00">InitError</text>
</a>
</g>
</g>
<!-- Node1&#45;&gt;Node118 -->
<g id="edge52" class="edge">
<title>Node1&#45;&gt;Node118</title>
<path fill="none" stroke="midnightblue" d="M104.17,-251.41C123.65,-248.9 145.45,-246.09 163.38,-243.78"/>
<polygon fill="midnightblue" stroke="midnightblue" points="163.97,-247.23 173.44,-242.49 163.08,-240.29 163.97,-247.23"/>
</g>
<!-- Node119 -->
<g id="node40" class="node">
<title>Node119</title>
<g id="a_node40"><a xlink:href="random_8cpp.html#a7fb6c441a23070a7f510fd48b5ca2a18" target="_top" xlink:title="Check that OS randomness is available and returning the requested number of bytes.">
<polygon fill="white" stroke="black" points="140,-191.5 140,-210.5 263,-210.5 263,-191.5 140,-191.5"/>
<text text-anchor="middle" x="201.5" y="-198.5" font-family="Helvetica,sans-Serif" font-size="10.00">Random_SanityCheck</text>
</a>
</g>
</g>
<!-- Node1&#45;&gt;Node119 -->
<g id="edge53" class="edge">
<title>Node1&#45;&gt;Node119</title>
<path fill="none" stroke="midnightblue" d="M73.14,-248.47C90.61,-240.38 116.69,-228.72 140,-220 145.89,-217.8 152.16,-215.63 158.35,-213.6"/>
<polygon fill="midnightblue" stroke="midnightblue" points="159.49,-216.91 167.94,-210.52 157.35,-210.24 159.49,-216.91"/>
</g>
<!-- Node120 -->
<g id="node50" class="node">
<title>Node120</title>
<g id="a_node50"><a xlink:href="translation_8h.html#adff31aba0266455557bf721860f481b8" target="_top" xlink:title="Mark a bilingual_str as untranslated.">
<polygon fill="white" stroke="black" points="161.5,-153.5 161.5,-172.5 241.5,-172.5 241.5,-153.5 161.5,-153.5"/>
<text text-anchor="middle" x="201.5" y="-160.5" font-family="Helvetica,sans-Serif" font-size="10.00">Untranslated</text>
</a>
</g>
</g>
<!-- Node1&#45;&gt;Node120 -->
<g id="edge65" class="edge">
<title>Node1&#45;&gt;Node120</title>
<path fill="none" stroke="midnightblue" d="M61.42,-248.41C75.95,-232.44 107.29,-200.35 140,-182 143.89,-179.82 148.05,-177.86 152.32,-176.09"/>
<polygon fill="midnightblue" stroke="midnightblue" points="153.62,-179.34 161.74,-172.54 151.15,-172.79 153.62,-179.34"/>
</g>
<!-- Node3 -->
<g id="node3" class="node">
<title>Node3</title>
<g id="a_node3"><a xlink:href="time_8cpp.html#ad11e03a8d791f8cafff278a2c7de8c9a" target="_top" xlink:title="DEPRECATED Use either GetTimeSeconds (not mockable) or GetTime&lt;T&gt; (mockable)">
<polygon fill="white" stroke="black" points="336.5,-779.5 336.5,-798.5 395.5,-798.5 395.5,-779.5 336.5,-779.5"/>
<text text-anchor="middle" x="366" y="-786.5" font-family="Helvetica,sans-Serif" font-size="10.00">GetTime</text>
</a>
</g>
</g>
<!-- Node2&#45;&gt;Node3 -->
<g id="edge2" class="edge">
<title>Node2&#45;&gt;Node3</title>
<path fill="none" stroke="midnightblue" d="M257.52,-789C279.94,-789 305.35,-789 325.83,-789"/>
<polygon fill="midnightblue" stroke="midnightblue" points="326.05,-792.5 336.05,-789 326.05,-785.5 326.05,-792.5"/>
</g>
<!-- Node5 -->
<g id="node5" class="node">
<title>Node5</title>
<g id="a_node5"><a xlink:href="time_8cpp.html#a3f7dd7433910d4d5aea5296836cf7257" target="_top" xlink:title="For testing.">
<polygon fill="white" stroke="black" points="501,-817.5 501,-836.5 575,-836.5 575,-817.5 501,-817.5"/>
<text text-anchor="middle" x="538" y="-824.5" font-family="Helvetica,sans-Serif" font-size="10.00">nMockTime</text>
</a>
</g>
</g>
<!-- Node2&#45;&gt;Node5 -->
<g id="edge5" class="edge">
<title>Node2&#45;&gt;Node5</title>
<path fill="none" stroke="midnightblue" d="M245.56,-798.57C262.18,-801.98 281.41,-805.57 299,-808 365.37,-817.15 442.81,-822.32 490.88,-824.89"/>
<polygon fill="midnightblue" stroke="midnightblue" points="490.81,-828.39 500.98,-825.41 491.17,-821.4 490.81,-828.39"/>
</g>
<!-- Node4 -->
<g id="node4" class="node">
<title>Node4</title>
<g id="a_node4"><a xlink:href="validation_8cpp.html#afb7ea74ba028421697aa7f364741ee6c" target="_top" xlink:title=" ">
<polygon fill="white" stroke="black" points="861,-589.5 861,-608.5 908,-608.5 908,-589.5 861,-589.5"/>
<text text-anchor="middle" x="884.5" y="-596.5" font-family="Helvetica,sans-Serif" font-size="10.00">assert</text>
</a>
</g>
</g>
<!-- Node3&#45;&gt;Node4 -->
<g id="edge3" class="edge">
<title>Node3&#45;&gt;Node4</title>
<path fill="none" stroke="midnightblue" d="M395.54,-794.37C465.93,-806.05 651.19,-827.2 777,-754 830.48,-722.89 863.14,-652.91 876.5,-618.65"/>
<polygon fill="midnightblue" stroke="midnightblue" points="879.93,-619.47 880.16,-608.88 873.37,-617.01 879.93,-619.47"/>
</g>
<!-- Node3&#45;&gt;Node5 -->
<g id="edge4" class="edge">
<title>Node3&#45;&gt;Node5</title>
<path fill="none" stroke="midnightblue" d="M395.84,-795.45C421.88,-801.27 460.66,-809.94 490.98,-816.71"/>
<polygon fill="midnightblue" stroke="midnightblue" points="490.39,-820.17 500.91,-818.93 491.92,-813.34 490.39,-820.17"/>
</g>
<!-- Node7 -->
<g id="node7" class="node">
<title>Node7</title>
<g id="a_node7"><a xlink:href="class_c_key.html#aa1085c59603a62db6ec776300f250337" target="_top" xlink:title="Compute the public key from a private key.">
<polygon fill="white" stroke="black" points="488,-305.5 488,-324.5 588,-324.5 588,-305.5 488,-305.5"/>
<text text-anchor="middle" x="538" y="-312.5" font-family="Helvetica,sans-Serif" font-size="10.00">CKey::GetPubKey</text>
</a>
</g>
</g>
<!-- Node6&#45;&gt;Node7 -->
<g id="edge7" class="edge">
<title>Node6&#45;&gt;Node7</title>
<path fill="none" stroke="midnightblue" d="M260.77,-330.69C321.55,-327.24 416.34,-321.85 477.55,-318.38"/>
<polygon fill="midnightblue" stroke="midnightblue" points="478.04,-321.85 487.83,-317.79 477.65,-314.87 478.04,-321.85"/>
</g>
<!-- Node34 -->
<g id="node22" class="node">
<title>Node34</title>
<g id="a_node22"><a xlink:href="class_c_key.html#a9d12ed9d297e4286250fd7ea6b59e1a5" target="_top" xlink:title="Generate a new private key using a cryptographic PRNG.">
<polygon fill="white" stroke="black" points="309.5,-343.5 309.5,-362.5 422.5,-362.5 422.5,-343.5 309.5,-343.5"/>
<text text-anchor="middle" x="366" y="-350.5" font-family="Helvetica,sans-Serif" font-size="10.00">CKey::MakeNewKey</text>
</a>
</g>
</g>
<!-- Node6&#45;&gt;Node34 -->
<g id="edge24" class="edge">
<title>Node6&#45;&gt;Node34</title>
<path fill="none" stroke="midnightblue" d="M260.71,-340.81C273.21,-342.27 286.51,-343.82 299.27,-345.32"/>
<polygon fill="midnightblue" stroke="midnightblue" points="299.03,-348.81 309.37,-346.5 299.85,-341.86 299.03,-348.81"/>
</g>
<!-- Node69 -->
<g id="node27" class="node">
<title>Node69</title>
<g id="a_node27"><a xlink:href="class_c_key.html#ac53425b8d0f89067bce781c485101b20" target="_top" xlink:title="Verify thoroughly whether a private key and a public key match.">
<polygon fill="white" stroke="black" points="311,-551.5 311,-570.5 421,-570.5 421,-551.5 311,-551.5"/>
<text text-anchor="middle" x="366" y="-558.5" font-family="Helvetica,sans-Serif" font-size="10.00">CKey::VerifyPubKey</text>
</a>
</g>
</g>
<!-- Node6&#45;&gt;Node69 -->
<g id="edge31" class="edge">
<title>Node6&#45;&gt;Node69</title>
<path fill="none" stroke="midnightblue" d="M209.48,-343.75C234.43,-378.61 319.42,-497.33 352.08,-542.95"/>
<polygon fill="midnightblue" stroke="midnightblue" points="349.38,-545.19 358.04,-551.28 355.07,-541.11 349.38,-545.19"/>
</g>
<!-- Node7&#45;&gt;Node4 -->
<g id="edge8" class="edge">
<title>Node7&#45;&gt;Node4</title>
<path fill="none" stroke="midnightblue" d="M588.02,-317.12C648.91,-320.66 748.28,-329.76 777,-352 796.43,-367.05 855.9,-524.3 876.44,-579.77"/>
<polygon fill="midnightblue" stroke="midnightblue" points="873.26,-581.26 880,-589.43 879.82,-578.84 873.26,-581.26"/>
</g>
<!-- Node8 -->
<g id="node8" class="node">
<title>Node8</title>
<g id="a_node8"><a xlink:href="class_c_key.html#a0bd3b7bace202d624322c6744228517a" target="_top" xlink:title=" ">
<polygon fill="white" stroke="black" points="673,-551.5 673,-570.5 747,-570.5 747,-551.5 673,-551.5"/>
<text text-anchor="middle" x="710" y="-558.5" font-family="Helvetica,sans-Serif" font-size="10.00">CKey::begin</text>
</a>
</g>
</g>
<!-- Node7&#45;&gt;Node8 -->
<g id="edge9" class="edge">
<title>Node7&#45;&gt;Node8</title>
<path fill="none" stroke="midnightblue" d="M545.82,-324.55C559.1,-343.49 588.73,-387.51 607,-428 628.85,-476.43 604.95,-504.91 643,-542 648.64,-547.5 655.77,-551.43 663.24,-554.23"/>
<polygon fill="midnightblue" stroke="midnightblue" points="662.21,-557.57 672.8,-557.2 664.3,-550.89 662.21,-557.57"/>
</g>
<!-- Node9 -->
<g id="node9" class="node">
<title>Node9</title>
<g id="a_node9"><a xlink:href="class_c_pub_key.html#a7148af6171758393ccff101b13cc4440" target="_top" xlink:title=" ">
<polygon fill="white" stroke="black" points="664,-197.5 664,-216.5 756,-216.5 756,-197.5 664,-197.5"/>
<text text-anchor="middle" x="710" y="-204.5" font-family="Helvetica,sans-Serif" font-size="10.00">CPubKey::begin</text>
</a>
</g>
</g>
<!-- Node7&#45;&gt;Node9 -->
<g id="edge10" class="edge">
<title>Node7&#45;&gt;Node9</title>
<path fill="none" stroke="midnightblue" d="M588.22,-306.55C594.99,-303.93 601.49,-300.49 607,-296 634.11,-273.89 615.97,-248.22 643,-226 646.51,-223.11 650.45,-220.66 654.6,-218.58"/>
<polygon fill="midnightblue" stroke="midnightblue" points="656.11,-221.74 663.94,-214.6 653.37,-215.3 656.11,-221.74"/>
</g>
<!-- Node10 -->
<g id="node10" class="node">
<title>Node10</title>
<g id="a_node10"><a xlink:href="class_c_pub_key.html#a4fa94293cf8577fd039b9a133f6c7f30" target="_top" xlink:title=" ">
<polygon fill="white" stroke="black" points="661.5,-361.5 661.5,-380.5 758.5,-380.5 758.5,-361.5 661.5,-361.5"/>
<text text-anchor="middle" x="710" y="-368.5" font-family="Helvetica,sans-Serif" font-size="10.00">CPubKey::IsValid</text>
</a>
</g>
</g>
<!-- Node7&#45;&gt;Node10 -->
<g id="edge11" class="edge">
<title>Node7&#45;&gt;Node10</title>
<path fill="none" stroke="midnightblue" d="M568.22,-324.63C596.49,-333.94 639.5,-348.1 670.53,-358.33"/>
<polygon fill="midnightblue" stroke="midnightblue" points="669.56,-361.69 680.16,-361.5 671.75,-355.05 669.56,-361.69"/>
</g>
<!-- Node11 -->
<g id="node11" class="node">
<title>Node11</title>
<g id="a_node11"><a xlink:href="class_c_pub_key.html#a6bb28fcf0a5f799c69f5b7269363b309" target="_top" xlink:title="Simple read&#45;only vector&#45;like interface to the pubkey data.">
<polygon fill="white" stroke="black" points="842.5,-380.5 842.5,-399.5 926.5,-399.5 926.5,-380.5 842.5,-380.5"/>
<text text-anchor="middle" x="884.5" y="-387.5" font-family="Helvetica,sans-Serif" font-size="10.00">CPubKey::size</text>
</a>
</g>
</g>
<!-- Node7&#45;&gt;Node11 -->
<g id="edge23" class="edge">
<title>Node7&#45;&gt;Node11</title>
<path fill="none" stroke="midnightblue" d="M588.14,-307.91C637.17,-302.65 714.08,-299.37 777,-319 811.9,-329.89 845.92,-356.1 865.78,-373.45"/>
<polygon fill="midnightblue" stroke="midnightblue" points="863.61,-376.2 873.39,-380.27 868.28,-370.98 863.61,-376.2"/>
</g>
<!-- Node13 -->
<g id="node13" class="node">
<title>Node13</title>
<g id="a_node13"><a xlink:href="secp256k1_8c.html#ac5806cffd3278e64f863027eaa8e1284" target="_top" xlink:title="Compute the public key for a secret key.">
<polygon fill="white" stroke="black" points="647,-99 647,-129 773,-129 773,-99 647,-99"/>
<text text-anchor="start" x="655" y="-117" font-family="Helvetica,sans-Serif" font-size="10.00">secp256k1_ec_pubkey</text>
<text text-anchor="middle" x="710" y="-106" font-family="Helvetica,sans-Serif" font-size="10.00">_create</text>
</a>
</g>
</g>
<!-- Node7&#45;&gt;Node13 -->
<g id="edge14" class="edge">
<title>Node7&#45;&gt;Node13</title>
<path fill="none" stroke="midnightblue" d="M588.28,-308.15C595.28,-305.33 601.84,-301.41 607,-296 656.68,-243.85 595.35,-192 643,-138 643.86,-137.02 644.77,-136.09 645.71,-135.19"/>
<polygon fill="midnightblue" stroke="midnightblue" points="647.88,-137.93 653.6,-129.01 643.57,-132.42 647.88,-137.93"/>
</g>
<!-- Node27 -->
<g id="node19" class="node">
<title>Node27</title>
<g id="a_node19"><a xlink:href="secp256k1_8c.html#a3b0440ba2ccd06e9262b94b41b680df1" target="_top" xlink:title="Serialize a pubkey object into a serialized byte sequence.">
<polygon fill="white" stroke="black" points="647,-236 647,-266 773,-266 773,-236 647,-236"/>
<text text-anchor="start" x="655" y="-254" font-family="Helvetica,sans-Serif" font-size="10.00">secp256k1_ec_pubkey</text>
<text text-anchor="middle" x="710" y="-243" font-family="Helvetica,sans-Serif" font-size="10.00">_serialize</text>
</a>
</g>
</g>
<!-- Node7&#45;&gt;Node27 -->
<g id="edge20" class="edge">
<title>Node7&#45;&gt;Node27</title>
<path fill="none" stroke="midnightblue" d="M576.71,-305.5C586.65,-302.71 597.31,-299.47 607,-296 618.73,-291.8 644.46,-280.44 667.15,-270.19"/>
<polygon fill="midnightblue" stroke="midnightblue" points="668.64,-273.35 676.31,-266.03 665.75,-266.98 668.64,-273.35"/>
</g>
<!-- Node10&#45;&gt;Node11 -->
<g id="edge12" class="edge">
<title>Node10&#45;&gt;Node11</title>
<path fill="none" stroke="midnightblue" d="M758.59,-376.24C781.44,-378.76 808.85,-381.78 832.16,-384.35"/>
<polygon fill="midnightblue" stroke="midnightblue" points="831.89,-387.84 842.22,-385.45 832.66,-380.88 831.89,-387.84"/>
</g>
<!-- Node12 -->
<g id="node12" class="node">
<title>Node12</title>
<g id="a_node12"><a xlink:href="class_c_pub_key.html#a7dc71b3f037c84268dc22de97d7b65fb" target="_top" xlink:title="Compute the length of a pubkey with a given first byte.">
<polygon fill="white" stroke="black" points="992,-380.5 992,-399.5 1091,-399.5 1091,-380.5 992,-380.5"/>
<text text-anchor="middle" x="1041.5" y="-387.5" font-family="Helvetica,sans-Serif" font-size="10.00">CPubKey::GetLen</text>
</a>
</g>
</g>
<!-- Node11&#45;&gt;Node12 -->
<g id="edge13" class="edge">
<title>Node11&#45;&gt;Node12</title>
<path fill="none" stroke="midnightblue" d="M926.63,-390C943.51,-390 963.36,-390 981.72,-390"/>
<polygon fill="midnightblue" stroke="midnightblue" points="981.73,-393.5 991.73,-390 981.73,-386.5 981.73,-393.5"/>
</g>
<!-- Node14 -->
<g id="node14" class="node">
<title>Node14</title>
<g id="a_node14"><a xlink:href="secp256k1_8c.html#a6eb48ce9f422bf6c197e7995748fefe4" target="_top" xlink:title=" ">
<polygon fill="white" stroke="red" points="821.5,-126 821.5,-156 947.5,-156 947.5,-126 821.5,-126"/>
<text text-anchor="start" x="829.5" y="-144" font-family="Helvetica,sans-Serif" font-size="10.00">secp256k1_ec_pubkey</text>
<text text-anchor="middle" x="884.5" y="-133" font-family="Helvetica,sans-Serif" font-size="10.00">_create_helper</text>
</a>
</g>
</g>
<!-- Node13&#45;&gt;Node14 -->
<g id="edge15" class="edge">
<title>Node13&#45;&gt;Node14</title>
<path fill="none" stroke="midnightblue" d="M773.28,-123.75C785.61,-125.68 798.66,-127.72 811.29,-129.7"/>
<polygon fill="midnightblue" stroke="midnightblue" points="810.89,-133.18 821.31,-131.27 811.98,-126.26 810.89,-133.18"/>
</g>
<!-- Node19 -->
<g id="node15" class="node">
<title>Node19</title>
<g id="a_node15"><a xlink:href="ecmult__gen_8h.html#a9a40662d6ed2cbab43dbddc25f570f97" target="_top" xlink:title=" ">
<polygon fill="white" stroke="black" points="819,-77 819,-107 950,-107 950,-77 819,-77"/>
<text text-anchor="start" x="827" y="-95" font-family="Helvetica,sans-Serif" font-size="10.00">secp256k1_ecmult_gen</text>
<text text-anchor="middle" x="884.5" y="-84" font-family="Helvetica,sans-Serif" font-size="10.00">_context_is_built</text>
</a>
</g>
</g>
<!-- Node13&#45;&gt;Node19 -->
<g id="edge16" class="edge">
<title>Node13&#45;&gt;Node19</title>
<path fill="none" stroke="midnightblue" d="M773.28,-106.06C784.89,-104.58 797.13,-103.02 809.06,-101.49"/>
<polygon fill="midnightblue" stroke="midnightblue" points="809.51,-104.96 818.99,-100.23 808.63,-98.02 809.51,-104.96"/>
</g>
<!-- Node20 -->
<g id="node16" class="node">
<title>Node20</title>
<g id="a_node16"><a xlink:href="secp256k1_2src_2util_8h.html#ae9923f02975d54c33640ba8b6d7ff86a" target="_top" xlink:title=" ">
<polygon fill="white" stroke="black" points="821.5,-38.5 821.5,-57.5 947.5,-57.5 947.5,-38.5 821.5,-38.5"/>
<text text-anchor="middle" x="884.5" y="-45.5" font-family="Helvetica,sans-Serif" font-size="10.00">secp256k1_memczero</text>
</a>
</g>
</g>
<!-- Node13&#45;&gt;Node20 -->
<g id="edge17" class="edge">
<title>Node13&#45;&gt;Node20</title>
<path fill="none" stroke="midnightblue" d="M754.45,-98.87C762.07,-95.84 769.85,-92.5 777,-89 793.84,-80.75 795.77,-74.4 813,-67 818.52,-64.63 824.41,-62.48 830.35,-60.56"/>
<polygon fill="midnightblue" stroke="midnightblue" points="831.78,-63.79 840.33,-57.54 829.75,-57.09 831.78,-63.79"/>
</g>
<!-- Node21 -->
<g id="node17" class="node">
<title>Node21</title>
<g id="a_node17"><a xlink:href="secp256k1_8c.html#aa061c9c5c861017bef990e5c4653e0f4" target="_top" xlink:title=" ">
<polygon fill="white" stroke="red" points="815.5,-0.5 815.5,-19.5 953.5,-19.5 953.5,-0.5 815.5,-0.5"/>
<text text-anchor="middle" x="884.5" y="-7.5" font-family="Helvetica,sans-Serif" font-size="10.00">secp256k1_pubkey_save</text>
</a>
</g>
</g>
<!-- Node13&#45;&gt;Node21 -->
<g id="edge18" class="edge">
<title>Node13&#45;&gt;Node21</title>
<path fill="none" stroke="midnightblue" d="M761.64,-98.95C767.13,-96.14 772.39,-92.85 777,-89 800.86,-69.06 788.18,-47.74 813,-29 815.5,-27.11 818.17,-25.41 820.96,-23.88"/>
<polygon fill="midnightblue" stroke="midnightblue" points="822.64,-26.96 830.2,-19.54 819.66,-20.62 822.64,-26.96"/>
</g>
<!-- Node26 -->
<g id="node18" class="node">
<title>Node26</title>
<g id="a_node18"><a xlink:href="scalar_8h.html#ad8fb9bc2a828903963bf37806d8edd11" target="_top" xlink:title="Clear a scalar to prevent the leak of sensitive data.">
<polygon fill="white" stroke="black" points="818,-175.5 818,-194.5 951,-194.5 951,-175.5 818,-175.5"/>
<text text-anchor="middle" x="884.5" y="-182.5" font-family="Helvetica,sans-Serif" font-size="10.00">secp256k1_scalar_clear</text>
</a>
</g>
</g>
<!-- Node13&#45;&gt;Node26 -->
<g id="edge19" class="edge">
<title>Node13&#45;&gt;Node26</title>
<path fill="none" stroke="midnightblue" d="M757.91,-129.11C764.46,-131.77 771,-134.75 777,-138 794.59,-147.52 795.08,-156.12 813,-165 818.61,-167.78 824.67,-170.23 830.8,-172.37"/>
<polygon fill="midnightblue" stroke="midnightblue" points="829.84,-175.74 840.43,-175.5 832,-169.08 829.84,-175.74"/>
</g>
<!-- Node28 -->
<g id="node20" class="node">
<title>Node28</title>
<g id="a_node20"><a xlink:href="eckey_8h.html#ae1f52342d70928f16c8e606da59e6aa6" target="_top" xlink:title=" ">
<polygon fill="white" stroke="black" points="813,-266 813,-296 956,-296 956,-266 813,-266"/>
<text text-anchor="start" x="821" y="-284" font-family="Helvetica,sans-Serif" font-size="10.00">secp256k1_eckey_pubkey</text>
<text text-anchor="middle" x="884.5" y="-273" font-family="Helvetica,sans-Serif" font-size="10.00">_serialize</text>
</a>
</g>
</g>
<!-- Node27&#45;&gt;Node28 -->
<g id="edge21" class="edge">
<title>Node27&#45;&gt;Node28</title>
<path fill="none" stroke="midnightblue" d="M773.28,-261.83C782.9,-263.5 792.96,-265.25 802.92,-266.99"/>
<polygon fill="midnightblue" stroke="midnightblue" points="802.37,-270.44 812.82,-268.71 803.57,-263.55 802.37,-270.44"/>
</g>
<!-- Node29 -->
<g id="node21" class="node">
<title>Node29</title>
<g id="a_node21"><a xlink:href="secp256k1_8c.html#a9966ec041e71010d1593ae2211ffb843" target="_top" xlink:title=" ">
<polygon fill="white" stroke="red" points="816.5,-227.5 816.5,-246.5 952.5,-246.5 952.5,-227.5 816.5,-227.5"/>
<text text-anchor="middle" x="884.5" y="-234.5" font-family="Helvetica,sans-Serif" font-size="10.00">secp256k1_pubkey_load</text>
</a>
</g>
</g>
<!-- Node27&#45;&gt;Node29 -->
<g id="edge22" class="edge">
<title>Node27&#45;&gt;Node29</title>
<path fill="none" stroke="midnightblue" d="M773.28,-245.95C783.99,-245.08 795.24,-244.16 806.29,-243.27"/>
<polygon fill="midnightblue" stroke="midnightblue" points="806.68,-246.75 816.36,-242.45 806.11,-239.77 806.68,-246.75"/>
</g>
<!-- Node35 -->
<g id="node23" class="node">
<title>Node35</title>
<g id="a_node23"><a xlink:href="class_c_key.html#acec869bc75fa8f4d619ab025d367a97c" target="_top" xlink:title="Check whether the 32&#45;byte array pointed to by vch is valid keydata.">
<polygon fill="white" stroke="black" points="499.5,-267.5 499.5,-286.5 576.5,-286.5 576.5,-267.5 499.5,-267.5"/>
<text text-anchor="middle" x="538" y="-274.5" font-family="Helvetica,sans-Serif" font-size="10.00">CKey::Check</text>
</a>
</g>
</g>
<!-- Node34&#45;&gt;Node35 -->
<g id="edge25" class="edge">
<title>Node34&#45;&gt;Node35</title>
<path fill="none" stroke="midnightblue" d="M381.65,-343.34C400.97,-330.95 436.37,-309.45 469,-296 475.47,-293.33 482.44,-290.91 489.36,-288.75"/>
<polygon fill="midnightblue" stroke="midnightblue" points="490.8,-291.98 499.41,-285.79 488.82,-285.26 490.8,-291.98"/>
</g>
<!-- Node37 -->
<g id="node25" class="node">
<title>Node37</title>
<g id="a_node25"><a xlink:href="random_8cpp.html#a72ecdcabd16ee4b868d96beaa9a2f188" target="_top" xlink:title="Gather entropy from various sources, feed it into the internal PRNG, and generate random data using i...">
<polygon fill="white" stroke="black" points="479,-551.5 479,-570.5 597,-570.5 597,-551.5 479,-551.5"/>
<text text-anchor="middle" x="538" y="-558.5" font-family="Helvetica,sans-Serif" font-size="10.00">GetStrongRandBytes</text>
</a>
</g>
</g>
<!-- Node34&#45;&gt;Node37 -->
<g id="edge28" class="edge">
<title>Node34&#45;&gt;Node37</title>
<path fill="none" stroke="midnightblue" d="M369.3,-362.57C377.27,-393.58 406.67,-492.19 469,-542 471.29,-543.83 473.74,-545.48 476.31,-546.98"/>
<polygon fill="midnightblue" stroke="midnightblue" points="474.9,-550.18 485.42,-551.47 478,-543.91 474.9,-550.18"/>
</g>
<!-- Node36 -->
<g id="node24" class="node">
<title>Node36</title>
<g id="a_node24"><a xlink:href="secp256k1_8c.html#a6015346bdaee22c65e5ebca71693d9b1" target="_top" xlink:title="Verify an ECDSA secret key.">
<polygon fill="white" stroke="red" points="647.5,-148 647.5,-178 772.5,-178 772.5,-148 647.5,-148"/>
<text text-anchor="start" x="655.5" y="-166" font-family="Helvetica,sans-Serif" font-size="10.00">secp256k1_ec_seckey</text>
<text text-anchor="middle" x="710" y="-155" font-family="Helvetica,sans-Serif" font-size="10.00">_verify</text>
</a>
</g>
</g>
<!-- Node35&#45;&gt;Node36 -->
<g id="edge26" class="edge">
<title>Node35&#45;&gt;Node36</title>
<path fill="none" stroke="midnightblue" d="M576.56,-272.28C587.26,-269.49 598.36,-265.05 607,-258 634.11,-235.89 616.91,-211.3 643,-188 644.75,-186.44 646.6,-184.98 648.53,-183.6"/>
<polygon fill="midnightblue" stroke="midnightblue" points="650.76,-186.33 657.45,-178.11 647.1,-180.37 650.76,-186.33"/>
</g>
<!-- Node36&#45;&gt;Node26 -->
<g id="edge27" class="edge">
<title>Node36&#45;&gt;Node26</title>
<path fill="none" stroke="midnightblue" d="M772.79,-170.88C784.08,-172.32 795.98,-173.84 807.62,-175.32"/>
<polygon fill="midnightblue" stroke="midnightblue" points="807.41,-178.82 817.77,-176.62 808.29,-171.88 807.41,-178.82"/>
</g>
<!-- Node38 -->
<g id="node26" class="node">
<title>Node38</title>
<g id="a_node26"><a xlink:href="random_8cpp.html#a8ae9b8a6be2563ac9695b0b0c2828da2" target="_top" xlink:title=" ">
<polygon fill="white" stroke="red" points="679,-627.5 679,-646.5 741,-646.5 741,-627.5 679,-627.5"/>
<text text-anchor="middle" x="710" y="-634.5" font-family="Helvetica,sans-Serif" font-size="10.00">ProcRand</text>
</a>
</g>
</g>
<!-- Node37&#45;&gt;Node38 -->
<g id="edge29" class="edge">
<title>Node37&#45;&gt;Node38</title>
<path fill="none" stroke="midnightblue" d="M584.8,-570.6C592.46,-573.1 600.14,-576.19 607,-580 625.97,-590.54 624.44,-601.74 643,-613 651.11,-617.92 660.4,-622.07 669.39,-625.46"/>
<polygon fill="midnightblue" stroke="midnightblue" points="668.36,-628.81 678.96,-628.84 670.69,-622.21 668.36,-628.81"/>
</g>
<!-- Node38&#45;&gt;Node4 -->
<g id="edge30" class="edge">
<title>Node38&#45;&gt;Node4</title>
<path fill="none" stroke="midnightblue" d="M741.05,-630.38C771.75,-623.62 819.28,-613.15 850.88,-606.19"/>
<polygon fill="midnightblue" stroke="midnightblue" points="851.92,-609.54 860.94,-603.97 850.42,-602.7 851.92,-609.54"/>
</g>
<!-- Node70 -->
<g id="node28" class="node">
<title>Node70</title>
<g id="a_node28"><a xlink:href="class_c_hash256.html#a0d56fbcf8ffbc7f6b37d5cbc45d87435" target="_top" xlink:title=" ">
<polygon fill="white" stroke="red" points="483,-703.5 483,-722.5 593,-722.5 593,-703.5 483,-703.5"/>
<text text-anchor="middle" x="538" y="-710.5" font-family="Helvetica,sans-Serif" font-size="10.00">CHash256::Finalize</text>
</a>
</g>
</g>
<!-- Node69&#45;&gt;Node70 -->
<g id="edge32" class="edge">
<title>Node69&#45;&gt;Node70</title>
<path fill="none" stroke="midnightblue" d="M371.65,-570.75C383.9,-595.4 419.58,-660.59 469,-694 471.93,-695.98 475.07,-697.76 478.32,-699.35"/>
<polygon fill="midnightblue" stroke="midnightblue" points="477.18,-702.67 487.75,-703.37 479.92,-696.23 477.18,-702.67"/>
</g>
<!-- Node79 -->
<g id="node31" class="node">
<title>Node79</title>
<g id="a_node31"><a xlink:href="random_8cpp.html#a6ee67373bce34cf387d83c86b438ff84" target="_top" xlink:title="Overall design of the RNG and entropy sources.">
<polygon fill="white" stroke="black" points="495,-627.5 495,-646.5 581,-646.5 581,-627.5 495,-627.5"/>
<text text-anchor="middle" x="538" y="-634.5" font-family="Helvetica,sans-Serif" font-size="10.00">GetRandBytes</text>
</a>
</g>
</g>
<!-- Node69&#45;&gt;Node79 -->
<g id="edge36" class="edge">
<title>Node69&#45;&gt;Node79</title>
<path fill="none" stroke="midnightblue" d="M381.65,-570.66C400.97,-583.05 436.37,-604.55 469,-618 474.73,-620.36 480.84,-622.53 486.97,-624.49"/>
<polygon fill="midnightblue" stroke="midnightblue" points="485.97,-627.84 496.55,-627.4 488,-621.15 485.97,-627.84"/>
</g>
<!-- Node80 -->
<g id="node32" class="node">
<title>Node80</title>
<g id="a_node32"><a xlink:href="class_c_pub_key.html#a25f8b70340ad20ddab0f80ec4cee9396" target="_top" xlink:title="Check whether this is a compressed public key.">
<polygon fill="white" stroke="black" points="643,-399.5 643,-418.5 777,-418.5 777,-399.5 643,-399.5"/>
<text text-anchor="middle" x="710" y="-406.5" font-family="Helvetica,sans-Serif" font-size="10.00">CPubKey::IsCompressed</text>
</a>
</g>
</g>
<!-- Node69&#45;&gt;Node80 -->
<g id="edge38" class="edge">
<title>Node69&#45;&gt;Node80</title>
<path fill="none" stroke="midnightblue" d="M370.96,-551.41C382.05,-525.97 416.08,-456.76 469,-428 518.82,-400.93 583.23,-397.21 632.78,-399.7"/>
<polygon fill="midnightblue" stroke="midnightblue" points="632.61,-403.2 642.8,-400.3 633.03,-396.21 632.61,-403.2"/>
</g>
<!-- Node81 -->
<g id="node33" class="node">
<title>Node81</title>
<g id="a_node33"><a xlink:href="span_8h.html#afa031115bbf9201cd1c99b59e7dd2245" target="_top" xlink:title="Like MakeSpan, but for (const) unsigned char member types only.">
<polygon fill="white" stroke="red" points="489.5,-589.5 489.5,-608.5 586.5,-608.5 586.5,-589.5 489.5,-589.5"/>
<text text-anchor="middle" x="538" y="-596.5" font-family="Helvetica,sans-Serif" font-size="10.00">MakeUCharSpan</text>
</a>
</g>
</g>
<!-- Node69&#45;&gt;Node81 -->
<g id="edge40" class="edge">
<title>Node69&#45;&gt;Node81</title>
<path fill="none" stroke="midnightblue" d="M409.9,-570.59C432.53,-575.65 460.5,-581.9 484.43,-587.25"/>
<polygon fill="midnightblue" stroke="midnightblue" points="483.89,-590.71 494.41,-589.48 485.41,-583.88 483.89,-590.71"/>
</g>
<!-- Node85 -->
<g id="node34" class="node">
<title>Node85</title>
<g id="a_node34"><a xlink:href="class_c_key.html#a58eae0abed8da2f52c940f894b5ace06" target="_top" xlink:title="Create a DER&#45;serialized signature.">
<polygon fill="white" stroke="red" points="504,-513.5 504,-532.5 572,-532.5 572,-513.5 504,-513.5"/>
<text text-anchor="middle" x="538" y="-520.5" font-family="Helvetica,sans-Serif" font-size="10.00">CKey::Sign</text>
</a>
</g>
</g>
<!-- Node69&#45;&gt;Node85 -->
<g id="edge41" class="edge">
<title>Node69&#45;&gt;Node85</title>
<path fill="none" stroke="midnightblue" d="M409.9,-551.41C435.6,-545.67 468.18,-538.38 493.91,-532.63"/>
<polygon fill="midnightblue" stroke="midnightblue" points="494.77,-536.03 503.77,-530.43 493.25,-529.19 494.77,-536.03"/>
</g>
<!-- Node102 -->
<g id="node35" class="node">
<title>Node102</title>
<g id="a_node35"><a xlink:href="class_c_pub_key.html#a5b3fef213b227394ca9d0a1e3baa957e" target="_top" xlink:title="Verify a DER signature (~72 bytes).">
<polygon fill="white" stroke="red" points="492,-437.5 492,-456.5 584,-456.5 584,-437.5 492,-437.5"/>
<text text-anchor="middle" x="538" y="-444.5" font-family="Helvetica,sans-Serif" font-size="10.00">CPubKey::Verify</text>
</a>
</g>
</g>
<!-- Node69&#45;&gt;Node102 -->
<g id="edge44" class="edge">
<title>Node69&#45;&gt;Node102</title>
<path fill="none" stroke="midnightblue" d="M381.2,-551.48C410.63,-531.74 478.48,-486.24 514.15,-462.32"/>
<polygon fill="midnightblue" stroke="midnightblue" points="516.12,-465.21 522.48,-456.74 512.22,-459.4 516.12,-465.21"/>
</g>
<!-- Node115 -->
<g id="node36" class="node">
<title>Node115</title>
<g id="a_node36"><a xlink:href="class_c_hash256.html#a530077f33cd5344f161ae7c84093a0e1" target="_top" xlink:title=" ">
<polygon fill="white" stroke="red" points="489,-665.5 489,-684.5 587,-684.5 587,-665.5 489,-665.5"/>
<text text-anchor="middle" x="538" y="-672.5" font-family="Helvetica,sans-Serif" font-size="10.00">CHash256::Write</text>
</a>
</g>
</g>
<!-- Node69&#45;&gt;Node115 -->
<g id="edge48" class="edge">
<title>Node69&#45;&gt;Node115</title>
<path fill="none" stroke="midnightblue" d="M374.6,-570.68C390.2,-589.88 427.84,-632.92 469,-656 472.96,-658.22 477.19,-660.19 481.54,-661.95"/>
<polygon fill="midnightblue" stroke="midnightblue" points="480.58,-665.32 491.17,-665.44 482.97,-658.74 480.58,-665.32"/>
</g>
<!-- Node70&#45;&gt;Node4 -->
<g id="edge33" class="edge">
<title>Node70&#45;&gt;Node4</title>
<path fill="none" stroke="midnightblue" d="M563.09,-722.56C607.77,-738.69 705.45,-766.37 777,-732 826.59,-708.18 860.33,-648.78 875.09,-618.06"/>
<polygon fill="midnightblue" stroke="midnightblue" points="878.33,-619.38 879.35,-608.84 871.98,-616.44 878.33,-619.38"/>
</g>
<!-- Node71 -->
<g id="node29" class="node">
<title>Node71</title>
<g id="a_node29"><a xlink:href="class_span.html#a791cdbdc5584d3bfd062aa9244e0c57f" target="_top" xlink:title=" ">
<polygon fill="white" stroke="black" points="676,-665.5 676,-684.5 744,-684.5 744,-665.5 676,-665.5"/>
<text text-anchor="middle" x="710" y="-672.5" font-family="Helvetica,sans-Serif" font-size="10.00">Span::data</text>
</a>
</g>
</g>
<!-- Node70&#45;&gt;Node71 -->
<g id="edge34" class="edge">
<title>Node70&#45;&gt;Node71</title>
<path fill="none" stroke="midnightblue" d="M581.9,-703.41C607.6,-697.67 640.18,-690.38 665.91,-684.63"/>
<polygon fill="midnightblue" stroke="midnightblue" points="666.77,-688.03 675.77,-682.43 665.25,-681.19 666.77,-688.03"/>
</g>
<!-- Node72 -->
<g id="node30" class="node">
<title>Node72</title>
<g id="a_node30"><a xlink:href="class_c_s_h_a256.html#a4259230be0caefa590bc324fc12b9b90" target="_top" xlink:title=" ">
<polygon fill="white" stroke="red" points="657.5,-703.5 657.5,-722.5 762.5,-722.5 762.5,-703.5 657.5,-703.5"/>
<text text-anchor="middle" x="710" y="-710.5" font-family="Helvetica,sans-Serif" font-size="10.00">CSHA256::Finalize</text>
</a>
</g>
</g>
<!-- Node70&#45;&gt;Node72 -->
<g id="edge35" class="edge">
<title>Node70&#45;&gt;Node72</title>
<path fill="none" stroke="midnightblue" d="M593.26,-713C610.4,-713 629.46,-713 647.09,-713"/>
<polygon fill="midnightblue" stroke="midnightblue" points="647.28,-716.5 657.28,-713 647.28,-709.5 647.28,-716.5"/>
</g>
<!-- Node79&#45;&gt;Node38 -->
<g id="edge37" class="edge">
<title>Node79&#45;&gt;Node38</title>
<path fill="none" stroke="midnightblue" d="M581.02,-637C607.84,-637 642.41,-637 668.86,-637"/>
<polygon fill="midnightblue" stroke="midnightblue" points="668.93,-640.5 678.93,-637 668.93,-633.5 668.93,-640.5"/>
</g>
<!-- Node80&#45;&gt;Node11 -->
<g id="edge39" class="edge">
<title>Node80&#45;&gt;Node11</title>
<path fill="none" stroke="midnightblue" d="M777.2,-401.71C795.38,-399.71 814.81,-397.57 832.02,-395.67"/>
<polygon fill="midnightblue" stroke="midnightblue" points="832.86,-399.1 842.42,-394.52 832.1,-392.14 832.86,-399.1"/>
</g>
<!-- Node85&#45;&gt;Node4 -->
<g id="edge42" class="edge">
<title>Node85&#45;&gt;Node4</title>
<path fill="none" stroke="midnightblue" d="M572.28,-528.52C583.83,-531.39 596.5,-535.67 607,-542 626.92,-554.01 622.01,-569.97 643,-580 711.16,-612.56 802.66,-608.67 850.77,-603.53"/>
<polygon fill="midnightblue" stroke="midnightblue" points="851.38,-606.98 860.91,-602.36 850.58,-600.03 851.38,-606.98"/>
</g>
<!-- Node85&#45;&gt;Node8 -->
<g id="edge43" class="edge">
<title>Node85&#45;&gt;Node8</title>
<path fill="none" stroke="midnightblue" d="M572.18,-530.42C598.11,-536.21 634.45,-544.34 663.16,-550.75"/>
<polygon fill="midnightblue" stroke="midnightblue" points="662.44,-554.18 672.96,-552.94 663.97,-547.35 662.44,-554.18"/>
</g>
<!-- Node102&#45;&gt;Node4 -->
<g id="edge45" class="edge">
<title>Node102&#45;&gt;Node4</title>
<path fill="none" stroke="midnightblue" d="M584.29,-451.17C633.96,-457.23 714.87,-471.52 777,-504 814.99,-523.86 850.28,-560.28 869.16,-581.79"/>
<polygon fill="midnightblue" stroke="midnightblue" points="866.61,-584.19 875.78,-589.5 871.92,-579.63 866.61,-584.19"/>
</g>
<!-- Node102&#45;&gt;Node10 -->
<g id="edge46" class="edge">
<title>Node102&#45;&gt;Node10</title>
<path fill="none" stroke="midnightblue" d="M553.98,-437.4C573.73,-425.08 609.88,-403.65 643,-390 648.58,-387.7 654.53,-385.57 660.49,-383.63"/>
<polygon fill="midnightblue" stroke="midnightblue" points="661.95,-386.84 670.47,-380.54 659.88,-380.15 661.95,-386.84"/>
</g>
<!-- Node102&#45;&gt;Node11 -->
<g id="edge47" class="edge">
<title>Node102&#45;&gt;Node11</title>
<path fill="none" stroke="midnightblue" d="M584.25,-446.91C632.51,-445.99 710.94,-442.16 777,-428 803.18,-422.39 831.7,-411.97 852.63,-403.46"/>
<polygon fill="midnightblue" stroke="midnightblue" points="854.07,-406.65 861.96,-399.58 851.38,-400.18 854.07,-406.65"/>
</g>
<!-- Node115&#45;&gt;Node71 -->
<g id="edge49" class="edge">
<title>Node115&#45;&gt;Node71</title>
<path fill="none" stroke="midnightblue" d="M587.26,-675C611.97,-675 641.82,-675 665.77,-675"/>
<polygon fill="midnightblue" stroke="midnightblue" points="665.98,-678.5 675.98,-675 665.98,-671.5 665.98,-678.5"/>
</g>
<!-- Node117 -->
<g id="node38" class="node">
<title>Node117</title>
<g id="a_node38"><a xlink:href="glibcxx__sanity_8cpp.html#a73a18ad4043c4cb690074feed1724a7e" target="_top" xlink:title=" ">
<polygon fill="white" stroke="black" points="303,-267.5 303,-286.5 429,-286.5 429,-267.5 303,-267.5"/>
<text text-anchor="middle" x="366" y="-274.5" font-family="Helvetica,sans-Serif" font-size="10.00">sanity_test_range_fmt</text>
</a>
</g>
</g>
<!-- Node116&#45;&gt;Node117 -->
<g id="edge51" class="edge">
<title>Node116&#45;&gt;Node117</title>
<path fill="none" stroke="midnightblue" d="M257.06,-277C268.4,-277 280.52,-277 292.39,-277"/>
<polygon fill="midnightblue" stroke="midnightblue" points="292.73,-280.5 302.73,-277 292.73,-273.5 292.73,-280.5"/>
</g>
<!-- Node62 -->
<g id="node41" class="node">
<title>Node62</title>
<g id="a_node41"><a xlink:href="random_8cpp.html#ad5a1de953fbf69ebdf3db0387a8271d3" target="_top" xlink:title="Get 32 bytes of system entropy.">
<polygon fill="white" stroke="black" points="330,-117.5 330,-136.5 402,-136.5 402,-117.5 330,-117.5"/>
<text text-anchor="middle" x="366" y="-124.5" font-family="Helvetica,sans-Serif" font-size="10.00">GetOSRand</text>
</a>
</g>
</g>
<!-- Node119&#45;&gt;Node62 -->
<g id="edge54" class="edge">
<title>Node119&#45;&gt;Node62</title>
<path fill="none" stroke="midnightblue" d="M236.83,-191.46C245.49,-188.72 254.68,-185.51 263,-182 290.52,-170.38 320.43,-153.74 340.7,-141.81"/>
<polygon fill="midnightblue" stroke="midnightblue" points="342.76,-144.66 349.56,-136.53 339.18,-138.64 342.76,-144.66"/>
</g>
<!-- Node42 -->
<g id="node44" class="node">
<title>Node42</title>
<g id="a_node44"><a xlink:href="random_8cpp.html#afb692c2693344fde8ce5532d32141446" target="_top" xlink:title=" ">
<polygon fill="white" stroke="black" points="299,-191.5 299,-210.5 433,-210.5 433,-191.5 299,-191.5"/>
<text text-anchor="middle" x="366" y="-198.5" font-family="Helvetica,sans-Serif" font-size="10.00">GetPerformanceCounter</text>
</a>
</g>
</g>
<!-- Node119&#45;&gt;Node42 -->
<g id="edge58" class="edge">
<title>Node119&#45;&gt;Node42</title>
<path fill="none" stroke="midnightblue" d="M263.01,-201C271.44,-201 280.19,-201 288.86,-201"/>
<polygon fill="midnightblue" stroke="midnightblue" points="288.99,-204.5 298.99,-201 288.99,-197.5 288.99,-204.5"/>
</g>
<!-- Node56 -->
<g id="node45" class="node">
<title>Node56</title>
<g id="a_node45"><a xlink:href="server_8cpp.html#a5a17d4abbbc321825cc2442dd560d666" target="_top" xlink:title=" ">
<polygon fill="white" stroke="black" points="347,-229.5 347,-248.5 385,-248.5 385,-229.5 347,-229.5"/>
<text text-anchor="middle" x="366" y="-236.5" font-family="Helvetica,sans-Serif" font-size="10.00">stop</text>
</a>
</g>
</g>
<!-- Node119&#45;&gt;Node56 -->
<g id="edge59" class="edge">
<title>Node119&#45;&gt;Node56</title>
<path fill="none" stroke="midnightblue" d="M243.51,-210.59C272.76,-217.43 311.32,-226.45 337.08,-232.47"/>
<polygon fill="midnightblue" stroke="midnightblue" points="336.41,-235.91 346.94,-234.78 338,-229.09 336.41,-235.91"/>
</g>
<!-- Node48 -->
<g id="node48" class="node">
<title>Node48</title>
<g id="a_node48"><a xlink:href="class_c_s_h_a512.html#aefd8260a2c205f11d44670ae68f1aff0" target="_top" xlink:title=" ">
<polygon fill="white" stroke="black" points="319,-60.5 319,-79.5 413,-79.5 413,-60.5 319,-60.5"/>
<text text-anchor="middle" x="366" y="-67.5" font-family="Helvetica,sans-Serif" font-size="10.00">CSHA512::Write</text>
</a>
</g>
</g>
<!-- Node119&#45;&gt;Node48 -->
<g id="edge63" class="edge">
<title>Node119&#45;&gt;Node48</title>
<path fill="none" stroke="midnightblue" d="M247.65,-191.43C253.2,-188.97 258.5,-185.88 263,-182 290.71,-158.13 274.05,-134.75 299,-108 308.18,-98.16 320.49,-90.13 332,-84.04"/>
<polygon fill="midnightblue" stroke="midnightblue" points="333.59,-87.16 340.98,-79.57 330.46,-80.89 333.59,-87.16"/>
</g>
<!-- Node63 -->
<g id="node42" class="node">
<title>Node63</title>
<g id="a_node42"><a xlink:href="random_8cpp.html#a33681ded2d3b238986f64b12b00adb88" target="_top" xlink:title="Fallback: get 32 bytes of system entropy from /dev/urandom.">
<polygon fill="white" stroke="black" points="487.5,-117.5 487.5,-136.5 588.5,-136.5 588.5,-117.5 487.5,-117.5"/>
<text text-anchor="middle" x="538" y="-124.5" font-family="Helvetica,sans-Serif" font-size="10.00">GetDevURandom</text>
</a>
</g>
</g>
<!-- Node62&#45;&gt;Node63 -->
<g id="edge55" class="edge">
<title>Node62&#45;&gt;Node63</title>
<path fill="none" stroke="midnightblue" d="M402.22,-127C423.85,-127 452.11,-127 477.17,-127"/>
<polygon fill="midnightblue" stroke="midnightblue" points="477.32,-130.5 487.32,-127 477.32,-123.5 477.32,-130.5"/>
</g>
<!-- Node64 -->
<g id="node43" class="node">
<title>Node64</title>
<g id="a_node43"><a xlink:href="random_8cpp.html#ac2fd3df4be152041d5339aafd81e5d17" target="_top" xlink:title=" ">
<polygon fill="white" stroke="black" points="673,-60.5 673,-79.5 747,-79.5 747,-60.5 673,-60.5"/>
<text text-anchor="middle" x="710" y="-67.5" font-family="Helvetica,sans-Serif" font-size="10.00">RandFailure</text>
</a>
</g>
</g>
<!-- Node62&#45;&gt;Node64 -->
<g id="edge57" class="edge">
<title>Node62&#45;&gt;Node64</title>
<path fill="none" stroke="midnightblue" d="M402.36,-120.17C421.97,-116.44 446.81,-111.82 469,-108 536.2,-96.42 614.22,-84.32 662.61,-76.96"/>
<polygon fill="midnightblue" stroke="midnightblue" points="663.4,-80.38 672.76,-75.42 662.35,-73.46 663.4,-80.38"/>
</g>
<!-- Node63&#45;&gt;Node64 -->
<g id="edge56" class="edge">
<title>Node63&#45;&gt;Node64</title>
<path fill="none" stroke="midnightblue" d="M566.86,-117.39C579.19,-113.08 593.85,-107.87 607,-103 623.1,-97.03 626.73,-94.49 643,-89 649.6,-86.77 656.63,-84.57 663.55,-82.5"/>
<polygon fill="midnightblue" stroke="midnightblue" points="664.93,-85.74 673.54,-79.57 662.96,-79.02 664.93,-85.74"/>
</g>
<!-- Node57 -->
<g id="node46" class="node">
<title>Node57</title>
<g id="a_node46"><a xlink:href="shutdown_8cpp.html#ac7140c7327b1e6a8d46470b1cd0e8e1b" target="_top" xlink:title="Request shutdown of the application.">
<polygon fill="white" stroke="red" points="666,-513.5 666,-532.5 754,-532.5 754,-513.5 666,-513.5"/>
<text text-anchor="middle" x="710" y="-520.5" font-family="Helvetica,sans-Serif" font-size="10.00">StartShutdown</text>
</a>
</g>
</g>
<!-- Node56&#45;&gt;Node57 -->
<g id="edge60" class="edge">
<title>Node56&#45;&gt;Node57</title>
<path fill="none" stroke="midnightblue" d="M385.14,-239.2C400.18,-240.39 420.98,-244.59 433,-258 495.63,-327.85 404.74,-397.64 469,-466 475.48,-472.9 587.49,-497.46 656.17,-511.99"/>
<polygon fill="midnightblue" stroke="midnightblue" points="655.46,-515.42 665.97,-514.06 656.91,-508.57 655.46,-515.42"/>
</g>
<!-- Node60 -->
<g id="node47" class="node">
<title>Node60</title>
<g id="a_node47"><a xlink:href="time_8cpp.html#a31a1bae0d4cc067165c23c609f2c37ee" target="_top" xlink:title=" ">
<polygon fill="white" stroke="black" points="479.5,-229.5 479.5,-248.5 596.5,-248.5 596.5,-229.5 479.5,-229.5"/>
<text text-anchor="middle" x="538" y="-236.5" font-family="Helvetica,sans-Serif" font-size="10.00">UninterruptibleSleep</text>
</a>
</g>
</g>
<!-- Node56&#45;&gt;Node60 -->
<g id="edge62" class="edge">
<title>Node56&#45;&gt;Node60</title>
<path fill="none" stroke="midnightblue" d="M385.19,-239C405.28,-239 438.81,-239 469.26,-239"/>
<polygon fill="midnightblue" stroke="midnightblue" points="469.44,-242.5 479.44,-239 469.44,-235.5 469.44,-242.5"/>
</g>
<!-- Node57&#45;&gt;Node4 -->
<g id="edge61" class="edge">
<title>Node57&#45;&gt;Node4</title>
<path fill="none" stroke="midnightblue" d="M749.16,-532.5C758.4,-535.21 768.16,-538.41 777,-542 806.45,-553.96 838.36,-571.74 859.49,-584.26"/>
<polygon fill="midnightblue" stroke="midnightblue" points="857.75,-587.29 868.13,-589.43 861.35,-581.29 857.75,-587.29"/>
</g>
<!-- Node49 -->
<g id="node49" class="node">
<title>Node49</title>
<g id="a_node49"><a xlink:href="namespacesha256__shani.html#a97d2e267c87add9a1172d948e05ba471" target="_top" xlink:title=" ">
<polygon fill="white" stroke="black" points="469,-41.5 469,-60.5 607,-60.5 607,-41.5 469,-41.5"/>
<text text-anchor="middle" x="538" y="-48.5" font-family="Helvetica,sans-Serif" font-size="10.00">sha256_shani::Transform</text>
</a>
</g>
</g>
<!-- Node48&#45;&gt;Node49 -->
<g id="edge64" class="edge">
<title>Node48&#45;&gt;Node49</title>
<path fill="none" stroke="midnightblue" d="M413,-64.86C427.12,-63.28 443.07,-61.5 458.71,-59.75"/>
<polygon fill="midnightblue" stroke="midnightblue" points="459.38,-63.2 468.92,-58.61 458.6,-56.24 459.38,-63.2"/>
</g>
</g>
</svg>
