<?xml version="1.0" encoding="UTF-8" standalone="no"?>
<!DOCTYPE svg PUBLIC "-//W3C//DTD SVG 1.1//EN"
 "http://www.w3.org/Graphics/SVG/1.1/DTD/svg11.dtd">
<!-- Generated by graphviz version 2.49.3 (0)
 -->
<!-- Title: util::ThreadGetInternalName Pages: 1 -->
<svg width="1225pt" height="594pt"
 viewBox="0.00 0.00 1225.00 593.56" xmlns="http://www.w3.org/2000/svg" xmlns:xlink="http://www.w3.org/1999/xlink">
<g id="graph0" class="graph" transform="scale(1 1) rotate(0) translate(4 589.56)">
<title>util::ThreadGetInternalName</title>
<polygon fill="white" stroke="transparent" points="-4,4 -4,-589.56 1221,-589.56 1221,4 -4,4"/>
<!-- Node1 -->
<g id="node1" class="node">
<title>Node1</title>
<g id="a_node1"><a xlink:title="Get the thread&#39;s internal (in&#45;memory) name; used e.g.">
<polygon fill="#bfbfbf" stroke="black" points="1061,-528.06 1061,-547.06 1217,-547.06 1217,-528.06 1061,-528.06"/>
<text text-anchor="middle" x="1139" y="-535.06" font-family="Helvetica,sans-Serif" font-size="10.00">util::ThreadGetInternalName</text>
</a>
</g>
</g>
<!-- Node2 -->
<g id="node2" class="node">
<title>Node2</title>
<g id="a_node2"><a xlink:href="class_b_c_log_1_1_logger.html#aeb842c7b96c99dfd0cd70b7065b20a77" target="_top" xlink:title="Send a string to the log output.">
<polygon fill="white" stroke="black" points="879,-566.06 879,-585.06 1025,-585.06 1025,-566.06 879,-566.06"/>
<text text-anchor="middle" x="952" y="-573.06" font-family="Helvetica,sans-Serif" font-size="10.00">BCLog::Logger::LogPrintStr</text>
</a>
</g>
</g>
<!-- Node1&#45;&gt;Node2 -->
<g id="edge1" class="edge">
<title>Node1&#45;&gt;Node2</title>
<path fill="none" stroke="midnightblue" d="M1081.48,-549.17C1055.17,-554.57 1024.26,-560.92 999.35,-566.04"/>
<polygon fill="midnightblue" stroke="midnightblue" points="1082.23,-552.59 1091.32,-547.15 1080.82,-545.73 1082.23,-552.59"/>
</g>
<!-- Node4 -->
<g id="node4" class="node">
<title>Node4</title>
<g id="a_node4"><a xlink:href="util__threadnames__tests_8cpp.html#a987adaa7473b1f775ea950155b5d6bf0" target="_top" xlink:title="Run a bunch of threads to all call util::ThreadRename.">
<polygon fill="white" stroke="black" points="901.5,-528.06 901.5,-547.06 1002.5,-547.06 1002.5,-528.06 901.5,-528.06"/>
<text text-anchor="middle" x="952" y="-535.06" font-family="Helvetica,sans-Serif" font-size="10.00">RenameEnMasse</text>
</a>
</g>
</g>
<!-- Node1&#45;&gt;Node4 -->
<g id="edge3" class="edge">
<title>Node1&#45;&gt;Node4</title>
<path fill="none" stroke="midnightblue" d="M1050.64,-537.56C1034.12,-537.56 1017.38,-537.56 1002.54,-537.56"/>
<polygon fill="midnightblue" stroke="midnightblue" points="1050.88,-541.06 1060.88,-537.56 1050.88,-534.06 1050.88,-541.06"/>
</g>
<!-- Node6 -->
<g id="node6" class="node">
<title>Node6</title>
<g id="a_node6"><a xlink:href="syscall__sandbox_8cpp.html#accb657540539a6c2a9c28533c9eae760" target="_top" xlink:title="Force the current thread (and threads created from the current thread) into a restricted&#45;service oper...">
<polygon fill="white" stroke="black" points="883,-272.06 883,-291.06 1021,-291.06 1021,-272.06 883,-272.06"/>
<text text-anchor="middle" x="952" y="-279.06" font-family="Helvetica,sans-Serif" font-size="10.00">SetSyscallSandboxPolicy</text>
</a>
</g>
</g>
<!-- Node1&#45;&gt;Node6 -->
<g id="edge5" class="edge">
<title>Node1&#45;&gt;Node6</title>
<path fill="none" stroke="midnightblue" d="M1125,-519.57C1088.79,-469.47 987.63,-329.48 960.03,-291.29"/>
<polygon fill="midnightblue" stroke="midnightblue" points="1122.28,-521.78 1130.97,-527.84 1127.95,-517.68 1122.28,-521.78"/>
</g>
<!-- Node3 -->
<g id="node3" class="node">
<title>Node3</title>
<g id="a_node3"><a xlink:href="logging_8h.html#a0f3dd4fc9bf952db6fe1b11b7d7d936e" target="_top" xlink:title=" ">
<polygon fill="white" stroke="black" points="713,-566.06 713,-585.06 778,-585.06 778,-566.06 713,-566.06"/>
<text text-anchor="middle" x="745.5" y="-573.06" font-family="Helvetica,sans-Serif" font-size="10.00">LogPrintf_</text>
</a>
</g>
</g>
<!-- Node2&#45;&gt;Node3 -->
<g id="edge2" class="edge">
<title>Node2&#45;&gt;Node3</title>
<path fill="none" stroke="midnightblue" d="M868.67,-575.56C836.8,-575.56 802.26,-575.56 778.06,-575.56"/>
<polygon fill="midnightblue" stroke="midnightblue" points="868.9,-579.06 878.9,-575.56 868.9,-572.06 868.9,-579.06"/>
</g>
<!-- Node5 -->
<g id="node5" class="node">
<title>Node5</title>
<g id="a_node5"><a xlink:href="util__threadnames__tests_8cpp.html#a53c2aed73e388d246cb5b6ba8b6b74e3" target="_top" xlink:title="Rename a bunch of threads with the same basename (expect_multiple=true), ensuring suffixes are applie...">
<polygon fill="white" stroke="black" points="674,-528.06 674,-547.06 817,-547.06 817,-528.06 674,-528.06"/>
<text text-anchor="middle" x="745.5" y="-535.06" font-family="Helvetica,sans-Serif" font-size="10.00">BOOST_AUTO_TEST_CASE</text>
</a>
</g>
</g>
<!-- Node4&#45;&gt;Node5 -->
<g id="edge4" class="edge">
<title>Node4&#45;&gt;Node5</title>
<path fill="none" stroke="midnightblue" d="M891.44,-537.56C868.21,-537.56 841.39,-537.56 817.19,-537.56"/>
<polygon fill="midnightblue" stroke="midnightblue" points="891.5,-541.06 901.5,-537.56 891.5,-534.06 891.5,-541.06"/>
</g>
<!-- Node7 -->
<g id="node7" class="node">
<title>Node7</title>
<g id="a_node7"><a xlink:href="bitcoind_8cpp.html#a111f3c7b82a1c083ce04328e970f5aca" target="_top" xlink:title=" ">
<polygon fill="white" stroke="black" points="77,-364.06 77,-383.06 128,-383.06 128,-364.06 77,-364.06"/>
<text text-anchor="middle" x="102.5" y="-371.06" font-family="Helvetica,sans-Serif" font-size="10.00">AppInit</text>
</a>
</g>
</g>
<!-- Node6&#45;&gt;Node7 -->
<g id="edge6" class="edge">
<title>Node6&#45;&gt;Node7</title>
<path fill="none" stroke="midnightblue" d="M944.47,-301.11C931.5,-336.51 898.81,-410.5 843,-442.56 726.58,-509.44 675.77,-461.56 541.5,-461.56 541.5,-461.56 541.5,-461.56 353,-461.56 259.53,-461.56 157,-405.95 118.88,-383.14"/>
<polygon fill="midnightblue" stroke="midnightblue" points="947.85,-302.05 947.87,-291.46 941.25,-299.73 947.85,-302.05"/>
</g>
<!-- Node9 -->
<g id="node9" class="node">
<title>Node9</title>
<g id="a_node9"><a xlink:href="httpserver_8cpp.html#aa6a7bc27265043bc0193220c5ae3a55f" target="_top" xlink:title="Simple wrapper to set thread name and run work queue.">
<polygon fill="white" stroke="black" points="687,-376.06 687,-395.06 804,-395.06 804,-376.06 687,-376.06"/>
<text text-anchor="middle" x="745.5" y="-383.06" font-family="Helvetica,sans-Serif" font-size="10.00">HTTPWorkQueueRun</text>
</a>
</g>
</g>
<!-- Node6&#45;&gt;Node9 -->
<g id="edge8" class="edge">
<title>Node6&#45;&gt;Node9</title>
<path fill="none" stroke="midnightblue" d="M934.67,-298.59C914.87,-318.17 879.59,-349.75 843,-366.56 830.9,-372.12 817.21,-376.05 804.03,-378.84"/>
<polygon fill="midnightblue" stroke="midnightblue" points="937.38,-300.82 941.93,-291.26 932.41,-295.9 937.38,-300.82"/>
</g>
<!-- Node13 -->
<g id="node13" class="node">
<title>Node13</title>
<g id="a_node13"><a xlink:href="class_c_scheduler.html#a14d2800815da93577858ea078aed1fba" target="_top" xlink:title="Services the queue &#39;forever&#39;.">
<polygon fill="white" stroke="black" points="673.5,-338.06 673.5,-357.06 817.5,-357.06 817.5,-338.06 673.5,-338.06"/>
<text text-anchor="middle" x="745.5" y="-345.06" font-family="Helvetica,sans-Serif" font-size="10.00">CScheduler::serviceQueue</text>
</a>
</g>
</g>
<!-- Node6&#45;&gt;Node13 -->
<g id="edge13" class="edge">
<title>Node6&#45;&gt;Node13</title>
<path fill="none" stroke="midnightblue" d="M922.35,-295.61C900.92,-305.66 870.66,-318.9 843,-327.56 829.86,-331.68 815.44,-335.18 801.84,-338.05"/>
<polygon fill="midnightblue" stroke="midnightblue" points="924.01,-298.7 931.54,-291.24 921,-292.37 924.01,-298.7"/>
</g>
<!-- Node15 -->
<g id="node15" class="node">
<title>Node15</title>
<g id="a_node15"><a xlink:href="class_c_check_queue.html#ab44da9c10663907f314ddaba740269f1" target="_top" xlink:title="Create a pool of new worker threads.">
<polygon fill="white" stroke="black" points="671.5,-288.56 671.5,-318.56 819.5,-318.56 819.5,-288.56 671.5,-288.56"/>
<text text-anchor="start" x="679.5" y="-306.56" font-family="Helvetica,sans-Serif" font-size="10.00">CCheckQueue::StartWorker</text>
<text text-anchor="middle" x="745.5" y="-295.56" font-family="Helvetica,sans-Serif" font-size="10.00">Threads</text>
</a>
</g>
</g>
<!-- Node6&#45;&gt;Node15 -->
<g id="edge15" class="edge">
<title>Node6&#45;&gt;Node15</title>
<path fill="none" stroke="midnightblue" d="M872.75,-289.98C855.28,-291.86 836.82,-293.84 819.56,-295.7"/>
<polygon fill="midnightblue" stroke="midnightblue" points="873.34,-293.43 882.9,-288.88 872.59,-286.47 873.34,-293.43"/>
</g>
<!-- Node16 -->
<g id="node16" class="node">
<title>Node16</title>
<g id="a_node16"><a xlink:href="class_c_connman.html#aa7c6970ed98a4a7bafbc071d24897d13" target="_top" xlink:title=" ">
<polygon fill="white" stroke="black" points="648.5,-86.06 648.5,-105.06 842.5,-105.06 842.5,-86.06 648.5,-86.06"/>
<text text-anchor="middle" x="745.5" y="-93.06" font-family="Helvetica,sans-Serif" font-size="10.00">CConnman::ThreadDNSAddressSeed</text>
</a>
</g>
</g>
<!-- Node6&#45;&gt;Node16 -->
<g id="edge16" class="edge">
<title>Node6&#45;&gt;Node16</title>
<path fill="none" stroke="midnightblue" d="M944.25,-262.01C930.92,-226.48 897.66,-151.6 843,-114.56 837.35,-110.73 831.1,-107.63 824.59,-105.13"/>
<polygon fill="midnightblue" stroke="midnightblue" points="941.06,-263.47 947.75,-271.68 947.64,-261.09 941.06,-263.47"/>
</g>
<!-- Node18 -->
<g id="node18" class="node">
<title>Node18</title>
<g id="a_node18"><a xlink:href="httpserver_8cpp.html#abb9f6ea8819672bd9a62d3695070709c" target="_top" xlink:title="Event dispatcher thread.">
<polygon fill="white" stroke="black" points="707.5,-414.06 707.5,-433.06 783.5,-433.06 783.5,-414.06 707.5,-414.06"/>
<text text-anchor="middle" x="745.5" y="-421.06" font-family="Helvetica,sans-Serif" font-size="10.00">ThreadHTTP</text>
</a>
</g>
</g>
<!-- Node6&#45;&gt;Node18 -->
<g id="edge18" class="edge">
<title>Node6&#45;&gt;Node18</title>
<path fill="none" stroke="midnightblue" d="M940.52,-299.76C923.69,-327.2 887.94,-378.69 843,-404.56 825.09,-414.87 802.56,-419.68 783.77,-421.88"/>
<polygon fill="midnightblue" stroke="midnightblue" points="943.54,-301.52 945.66,-291.14 937.53,-297.94 943.54,-301.52"/>
</g>
<!-- Node19 -->
<g id="node19" class="node">
<title>Node19</title>
<g id="a_node19"><a xlink:href="blockstorage_8cpp.html#a38dabbdabba054942a90bc2df6f05411" target="_top" xlink:title=" ">
<polygon fill="white" stroke="black" points="312.5,-108.06 312.5,-127.06 395.5,-127.06 395.5,-108.06 312.5,-108.06"/>
<text text-anchor="middle" x="354" y="-115.06" font-family="Helvetica,sans-Serif" font-size="10.00">ThreadImport</text>
</a>
</g>
</g>
<!-- Node6&#45;&gt;Node19 -->
<g id="edge20" class="edge">
<title>Node6&#45;&gt;Node19</title>
<path fill="none" stroke="midnightblue" d="M949.23,-262C943.69,-213.88 922.02,-89.91 843,-38.56 683.6,65.03 434.71,-69.78 370.52,-108"/>
<polygon fill="midnightblue" stroke="midnightblue" points="945.76,-262.45 950.27,-272.04 952.72,-261.73 945.76,-262.45"/>
</g>
<!-- Node20 -->
<g id="node20" class="node">
<title>Node20</title>
<g id="a_node20"><a xlink:href="class_c_connman.html#aacdbb7148575a31bb33bc345e2bf22a9" target="_top" xlink:title=" ">
<polygon fill="white" stroke="black" points="650,-212.06 650,-231.06 841,-231.06 841,-212.06 650,-212.06"/>
<text text-anchor="middle" x="745.5" y="-219.06" font-family="Helvetica,sans-Serif" font-size="10.00">CConnman::ThreadMessageHandler</text>
</a>
</g>
</g>
<!-- Node6&#45;&gt;Node20 -->
<g id="edge22" class="edge">
<title>Node6&#45;&gt;Node20</title>
<path fill="none" stroke="midnightblue" d="M919.53,-268C898.23,-259.23 869.3,-248.08 843,-240.56 830.28,-236.92 816.41,-233.74 803.27,-231.08"/>
<polygon fill="midnightblue" stroke="midnightblue" points="918.45,-271.34 929.03,-271.97 921.15,-264.88 918.45,-271.34"/>
</g>
<!-- Node21 -->
<g id="node21" class="node">
<title>Node21</title>
<g id="a_node21"><a xlink:href="class_c_connman.html#a0b787caf95e52a346a2b31a580d60a62" target="_top" xlink:title=" ">
<polygon fill="white" stroke="black" points="662.5,-162.56 662.5,-192.56 828.5,-192.56 828.5,-162.56 662.5,-162.56"/>
<text text-anchor="start" x="670.5" y="-180.56" font-family="Helvetica,sans-Serif" font-size="10.00">CConnman::ThreadOpenAdded</text>
<text text-anchor="middle" x="745.5" y="-169.56" font-family="Helvetica,sans-Serif" font-size="10.00">Connections</text>
</a>
</g>
</g>
<!-- Node6&#45;&gt;Node21 -->
<g id="edge24" class="edge">
<title>Node6&#45;&gt;Node21</title>
<path fill="none" stroke="midnightblue" d="M933.3,-265.29C912.96,-247.43 877.87,-219.08 843,-202.56 834.95,-198.74 826.23,-195.45 817.44,-192.62"/>
<polygon fill="midnightblue" stroke="midnightblue" points="931.04,-267.97 940.83,-272.02 935.71,-262.75 931.04,-267.97"/>
</g>
<!-- Node22 -->
<g id="node22" class="node">
<title>Node22</title>
<g id="a_node22"><a xlink:href="class_c_connman.html#a55e9feafc3bab78e5c9d408c207faa45" target="_top" xlink:title=" ">
<polygon fill="white" stroke="black" points="648,-48.06 648,-67.06 843,-67.06 843,-48.06 648,-48.06"/>
<text text-anchor="middle" x="745.5" y="-55.06" font-family="Helvetica,sans-Serif" font-size="10.00">CConnman::ThreadOpenConnections</text>
</a>
</g>
</g>
<!-- Node6&#45;&gt;Node22 -->
<g id="edge26" class="edge">
<title>Node6&#45;&gt;Node22</title>
<path fill="none" stroke="midnightblue" d="M946.7,-262C936.51,-220.61 906.83,-124.1 843,-76.56 837.93,-72.79 832.32,-69.71 826.41,-67.2"/>
<polygon fill="midnightblue" stroke="midnightblue" points="943.33,-262.97 949.02,-271.91 950.15,-261.38 943.33,-262.97"/>
</g>
<!-- Node23 -->
<g id="node23" class="node">
<title>Node23</title>
<g id="a_node23"><a xlink:href="class_c_connman.html#a765597cbfe99c083d8fa3d61bb464e34" target="_top" xlink:title=" ">
<polygon fill="white" stroke="black" points="655.5,-124.06 655.5,-143.06 835.5,-143.06 835.5,-124.06 655.5,-124.06"/>
<text text-anchor="middle" x="745.5" y="-131.06" font-family="Helvetica,sans-Serif" font-size="10.00">CConnman::ThreadSocketHandler</text>
</a>
</g>
</g>
<!-- Node6&#45;&gt;Node23 -->
<g id="edge27" class="edge">
<title>Node6&#45;&gt;Node23</title>
<path fill="none" stroke="midnightblue" d="M940.99,-262.89C924.57,-234.22 889.1,-179.83 843,-152.56 836.53,-148.73 829.44,-145.66 822.12,-143.2"/>
<polygon fill="midnightblue" stroke="midnightblue" points="938.06,-264.83 945.99,-271.87 944.18,-261.43 938.06,-264.83"/>
</g>
<!-- Node24 -->
<g id="node24" class="node">
<title>Node24</title>
<g id="a_node24"><a xlink:href="class_base_index.html#a96a7407421fbf877509248bbe64f8d87" target="_top" xlink:title="Sync the index with the block index starting from the current best block.">
<polygon fill="white" stroke="black" points="680,-490.06 680,-509.06 811,-509.06 811,-490.06 680,-490.06"/>
<text text-anchor="middle" x="745.5" y="-497.06" font-family="Helvetica,sans-Serif" font-size="10.00">BaseIndex::ThreadSync</text>
</a>
</g>
</g>
<!-- Node6&#45;&gt;Node24 -->
<g id="edge29" class="edge">
<title>Node6&#45;&gt;Node24</title>
<path fill="none" stroke="midnightblue" d="M945.8,-301.2C934.31,-340.67 902.88,-429.73 843,-475.56 833.68,-482.69 822.5,-487.73 811.11,-491.28"/>
<polygon fill="midnightblue" stroke="midnightblue" points="949.2,-302.04 948.52,-291.46 942.46,-300.15 949.2,-302.04"/>
</g>
<!-- Node27 -->
<g id="node27" class="node">
<title>Node27</title>
<g id="a_node27"><a xlink:href="torcontrol_8cpp.html#a52a3efff23634500bb42c6474f306091" target="_top" xlink:title=" ">
<polygon fill="white" stroke="black" points="695.5,-250.06 695.5,-269.06 795.5,-269.06 795.5,-250.06 695.5,-250.06"/>
<text text-anchor="middle" x="745.5" y="-257.06" font-family="Helvetica,sans-Serif" font-size="10.00">TorControlThread</text>
</a>
</g>
</g>
<!-- Node6&#45;&gt;Node27 -->
<g id="edge32" class="edge">
<title>Node6&#45;&gt;Node27</title>
<path fill="none" stroke="midnightblue" d="M872.71,-273.14C846.77,-270.35 818.65,-267.32 795.55,-264.84"/>
<polygon fill="midnightblue" stroke="midnightblue" points="872.59,-276.64 882.9,-274.23 873.34,-269.68 872.59,-276.64"/>
</g>
<!-- Node8 -->
<g id="node8" class="node">
<title>Node8</title>
<g id="a_node8"><a xlink:href="bitcoind_8cpp.html#a0ddf1224851353fc92bfbff6f499fa97" target="_top" xlink:title=" ">
<polygon fill="white" stroke="black" points="0,-364.06 0,-383.06 41,-383.06 41,-364.06 0,-364.06"/>
<text text-anchor="middle" x="20.5" y="-371.06" font-family="Helvetica,sans-Serif" font-size="10.00">main</text>
</a>
</g>
</g>
<!-- Node7&#45;&gt;Node8 -->
<g id="edge7" class="edge">
<title>Node7&#45;&gt;Node8</title>
<path fill="none" stroke="midnightblue" d="M66.59,-373.56C57.83,-373.56 48.73,-373.56 41.02,-373.56"/>
<polygon fill="midnightblue" stroke="midnightblue" points="66.63,-377.06 76.63,-373.56 66.63,-370.06 66.63,-377.06"/>
</g>
<!-- Node10 -->
<g id="node10" class="node">
<title>Node10</title>
<g id="a_node10"><a xlink:href="httpserver_8cpp.html#a4fd74612426e28d4678557f401066d96" target="_top" xlink:title="Start HTTP server.">
<polygon fill="white" stroke="black" points="492,-376.06 492,-395.06 589,-395.06 589,-376.06 492,-376.06"/>
<text text-anchor="middle" x="540.5" y="-383.06" font-family="Helvetica,sans-Serif" font-size="10.00">StartHTTPServer</text>
</a>
</g>
</g>
<!-- Node9&#45;&gt;Node10 -->
<g id="edge9" class="edge">
<title>Node9&#45;&gt;Node10</title>
<path fill="none" stroke="midnightblue" d="M676.54,-385.56C647.94,-385.56 615.33,-385.56 589.33,-385.56"/>
<polygon fill="midnightblue" stroke="midnightblue" points="676.87,-389.06 686.87,-385.56 676.87,-382.06 676.87,-389.06"/>
</g>
<!-- Node11 -->
<g id="node11" class="node">
<title>Node11</title>
<g id="a_node11"><a xlink:href="init_8cpp.html#a29beb68bc259d98d5c425eb14f63ea81" target="_top" xlink:title=" ">
<polygon fill="white" stroke="black" points="310,-360.06 310,-379.06 398,-379.06 398,-360.06 310,-360.06"/>
<text text-anchor="middle" x="354" y="-367.06" font-family="Helvetica,sans-Serif" font-size="10.00">AppInitServers</text>
</a>
</g>
</g>
<!-- Node10&#45;&gt;Node11 -->
<g id="edge10" class="edge">
<title>Node10&#45;&gt;Node11</title>
<path fill="none" stroke="midnightblue" d="M481.88,-380.56C454.85,-378.22 423.18,-375.47 398.25,-373.31"/>
<polygon fill="midnightblue" stroke="midnightblue" points="481.72,-384.06 491.99,-381.44 482.33,-377.09 481.72,-384.06"/>
</g>
<!-- Node12 -->
<g id="node12" class="node">
<title>Node12</title>
<g id="a_node12"><a xlink:href="init_8cpp.html#ad2bfca84e560eb87fbfbe9c20f893374" target="_top" xlink:title="Bitcoin core main initialization.">
<polygon fill="white" stroke="black" points="164,-326.06 164,-345.06 239,-345.06 239,-326.06 164,-326.06"/>
<text text-anchor="middle" x="201.5" y="-333.06" font-family="Helvetica,sans-Serif" font-size="10.00">AppInitMain</text>
</a>
</g>
</g>
<!-- Node11&#45;&gt;Node12 -->
<g id="edge11" class="edge">
<title>Node11&#45;&gt;Node12</title>
<path fill="none" stroke="midnightblue" d="M300.92,-357.79C280.56,-353.19 257.7,-348.03 239.14,-343.84"/>
<polygon fill="midnightblue" stroke="midnightblue" points="300.15,-361.21 310.68,-360 301.69,-354.38 300.15,-361.21"/>
</g>
<!-- Node12&#45;&gt;Node7 -->
<g id="edge12" class="edge">
<title>Node12&#45;&gt;Node7</title>
<path fill="none" stroke="midnightblue" d="M166.64,-348.82C153.91,-353.81 139.69,-359.38 127.97,-363.97"/>
<polygon fill="midnightblue" stroke="midnightblue" points="167.99,-352.05 176.02,-345.15 165.44,-345.54 167.99,-352.05"/>
</g>
<!-- Node14 -->
<g id="node14" class="node">
<title>Node14</title>
<g id="a_node14"><a xlink:href="scheduler__tests_8cpp.html#a91a2352fec3bcf7a3519b11eb897d286" target="_top" xlink:title=" ">
<polygon fill="white" stroke="black" points="469,-338.06 469,-357.06 612,-357.06 612,-338.06 469,-338.06"/>
<text text-anchor="middle" x="540.5" y="-345.06" font-family="Helvetica,sans-Serif" font-size="10.00">BOOST_AUTO_TEST_CASE</text>
</a>
</g>
</g>
<!-- Node13&#45;&gt;Node14 -->
<g id="edge14" class="edge">
<title>Node13&#45;&gt;Node14</title>
<path fill="none" stroke="midnightblue" d="M662.89,-347.56C646.13,-347.56 628.61,-347.56 612.27,-347.56"/>
<polygon fill="midnightblue" stroke="midnightblue" points="663.22,-351.06 673.22,-347.56 663.22,-344.06 663.22,-351.06"/>
</g>
<!-- Node17 -->
<g id="node17" class="node">
<title>Node17</title>
<g id="a_node17"><a xlink:href="class_c_connman.html#aa4709e5604e0f4369dada0a211493565" target="_top" xlink:title=" ">
<polygon fill="white" stroke="black" points="491,-146.06 491,-165.06 590,-165.06 590,-146.06 491,-146.06"/>
<text text-anchor="middle" x="540.5" y="-153.06" font-family="Helvetica,sans-Serif" font-size="10.00">CConnman::Start</text>
</a>
</g>
</g>
<!-- Node16&#45;&gt;Node17 -->
<g id="edge17" class="edge">
<title>Node16&#45;&gt;Node17</title>
<path fill="none" stroke="midnightblue" d="M677.56,-107.18C667.58,-109.36 657.47,-111.83 648,-114.56 617.92,-123.24 584.4,-136.82 563.15,-145.95"/>
<polygon fill="midnightblue" stroke="midnightblue" points="678.4,-110.58 687.47,-105.09 676.96,-103.73 678.4,-110.58"/>
</g>
<!-- Node18&#45;&gt;Node10 -->
<g id="edge19" class="edge">
<title>Node18&#45;&gt;Node10</title>
<path fill="none" stroke="midnightblue" d="M697.12,-414.69C664.67,-408.62 621.78,-400.59 589.25,-394.5"/>
<polygon fill="midnightblue" stroke="midnightblue" points="696.79,-418.19 707.27,-416.59 698.08,-411.31 696.79,-418.19"/>
</g>
<!-- Node19&#45;&gt;Node12 -->
<g id="edge21" class="edge">
<title>Node19&#45;&gt;Node12</title>
<path fill="none" stroke="midnightblue" d="M340.58,-135.55C310.07,-179.74 232.23,-292.5 209.08,-326.02"/>
<polygon fill="midnightblue" stroke="midnightblue" points="343.54,-137.43 346.34,-127.21 337.78,-133.45 343.54,-137.43"/>
</g>
<!-- Node20&#45;&gt;Node17 -->
<g id="edge23" class="edge">
<title>Node20&#45;&gt;Node17</title>
<path fill="none" stroke="midnightblue" d="M678.95,-209.85C668.51,-207.45 657.89,-204.68 648,-201.56 616.31,-191.55 581.23,-175.33 560.29,-165.07"/>
<polygon fill="midnightblue" stroke="midnightblue" points="678.37,-213.31 688.89,-212.05 679.88,-206.47 678.37,-213.31"/>
</g>
<!-- Node21&#45;&gt;Node17 -->
<g id="edge25" class="edge">
<title>Node21&#45;&gt;Node17</title>
<path fill="none" stroke="midnightblue" d="M652.1,-167.55C630.67,-165.22 608.7,-162.84 590.04,-160.82"/>
<polygon fill="midnightblue" stroke="midnightblue" points="651.91,-171.04 662.22,-168.64 652.66,-164.09 651.91,-171.04"/>
</g>
<!-- Node23&#45;&gt;Node17 -->
<g id="edge28" class="edge">
<title>Node23&#45;&gt;Node17</title>
<path fill="none" stroke="midnightblue" d="M646.43,-144.19C626.85,-146.31 607.09,-148.45 590.09,-150.29"/>
<polygon fill="midnightblue" stroke="midnightblue" points="647.08,-147.64 656.64,-143.08 646.32,-140.68 647.08,-147.64"/>
</g>
<!-- Node25 -->
<g id="node25" class="node">
<title>Node25</title>
<g id="a_node25"><a xlink:href="class_base_index.html#ae54f18a228b5680dbbf181adbd06ec1d" target="_top" xlink:title="Start initializes the sync state and registers the instance as a ValidationInterface so that it stays...">
<polygon fill="white" stroke="black" points="492,-490.06 492,-509.06 589,-509.06 589,-490.06 492,-490.06"/>
<text text-anchor="middle" x="540.5" y="-497.06" font-family="Helvetica,sans-Serif" font-size="10.00">BaseIndex::Start</text>
</a>
</g>
</g>
<!-- Node24&#45;&gt;Node25 -->
<g id="edge30" class="edge">
<title>Node24&#45;&gt;Node25</title>
<path fill="none" stroke="midnightblue" d="M669.8,-499.56C642.82,-499.56 613.12,-499.56 589.09,-499.56"/>
<polygon fill="midnightblue" stroke="midnightblue" points="669.99,-503.06 679.99,-499.56 669.99,-496.06 669.99,-503.06"/>
</g>
<!-- Node26 -->
<g id="node26" class="node">
<title>Node26</title>
<g id="a_node26"><a xlink:href="blockfilter__index__tests_8cpp.html#a40f8bbdd01faa299aeb86329fabb3eb4" target="_top" xlink:title=" ">
<polygon fill="white" stroke="black" points="275,-490.06 275,-509.06 433,-509.06 433,-490.06 275,-490.06"/>
<text text-anchor="middle" x="354" y="-497.06" font-family="Helvetica,sans-Serif" font-size="10.00">BOOST_FIXTURE_TEST_CASE</text>
</a>
</g>
</g>
<!-- Node25&#45;&gt;Node26 -->
<g id="edge31" class="edge">
<title>Node25&#45;&gt;Node26</title>
<path fill="none" stroke="midnightblue" d="M481.61,-499.56C466.24,-499.56 449.38,-499.56 433.13,-499.56"/>
<polygon fill="midnightblue" stroke="midnightblue" points="481.99,-503.06 491.99,-499.56 481.99,-496.06 481.99,-503.06"/>
</g>
<!-- Node28 -->
<g id="node28" class="node">
<title>Node28</title>
<g id="a_node28"><a xlink:href="torcontrol_8cpp.html#aea858fac1029984bdd92142eca936f86" target="_top" xlink:title=" ">
<polygon fill="white" stroke="black" points="309.5,-291.06 309.5,-310.06 398.5,-310.06 398.5,-291.06 309.5,-291.06"/>
<text text-anchor="middle" x="354" y="-298.06" font-family="Helvetica,sans-Serif" font-size="10.00">StartTorControl</text>
</a>
</g>
</g>
<!-- Node27&#45;&gt;Node28 -->
<g id="edge33" class="edge">
<title>Node27&#45;&gt;Node28</title>
<path fill="none" stroke="midnightblue" d="M684.9,-265.83C605.93,-274.15 468.47,-288.62 398.54,-295.98"/>
<polygon fill="midnightblue" stroke="midnightblue" points="685.59,-269.28 695.17,-264.75 684.86,-262.32 685.59,-269.28"/>
</g>
<!-- Node28&#45;&gt;Node12 -->
<g id="edge34" class="edge">
<title>Node28&#45;&gt;Node12</title>
<path fill="none" stroke="midnightblue" d="M302.01,-312.42C281.41,-317.21 258.09,-322.63 239.21,-327.02"/>
<polygon fill="midnightblue" stroke="midnightblue" points="302.93,-315.8 311.88,-310.12 301.34,-308.98 302.93,-315.8"/>
</g>
</g>
</svg>
