<?xml version="1.0" encoding="UTF-8" standalone="no"?>
<!DOCTYPE svg PUBLIC "-//W3C//DTD SVG 1.1//EN"
 "http://www.w3.org/Graphics/SVG/1.1/DTD/svg11.dtd">
<!-- Generated by graphviz version 2.38.0 (20140413.2041)
 -->
<!-- Title: dbwrapper_private::GetObfuscateKey Pages: 1 -->
<svg width="1377pt" height="395pt"
 viewBox="0.00 0.00 1377.00 395.00" xmlns="http://www.w3.org/2000/svg" xmlns:xlink="http://www.w3.org/1999/xlink">
<g id="graph0" class="graph" transform="scale(1 1) rotate(0) translate(4 391)">
<title>dbwrapper_private::GetObfuscateKey</title>
<polygon fill="white" stroke="none" points="-4,4 -4,-391 1373,-391 1373,4 -4,4"/>
<!-- Node1 -->
<g id="node1" class="node"><title>Node1</title>
<polygon fill="#bfbfbf" stroke="black" points="0,-90 0,-120 111,-120 111,-90 0,-90"/>
<text text-anchor="start" x="8" y="-108" font-family="Helvetica,sans-Serif" font-size="10.00">dbwrapper_private::</text>
<text text-anchor="middle" x="55.5" y="-97" font-family="Helvetica,sans-Serif" font-size="10.00">GetObfuscateKey</text>
</g>
<!-- Node2 -->
<g id="node2" class="node"><title>Node2</title>
<g id="a_node2"><a xlink:href="classdbwrapper__error.html#a63dabb120653f4566e52a1de80e9111b" target="_top" xlink:title="dbwrapper_error::dbwrapper\l_error">
<polygon fill="white" stroke="black" points="147,-134 147,-164 299,-164 299,-134 147,-134"/>
<text text-anchor="start" x="155" y="-152" font-family="Helvetica,sans-Serif" font-size="10.00">dbwrapper_error::dbwrapper</text>
<text text-anchor="middle" x="223" y="-141" font-family="Helvetica,sans-Serif" font-size="10.00">_error</text>
</a>
</g>
</g>
<!-- Node1&#45;&gt;Node2 -->
<g id="edge1" class="edge"><title>Node1&#45;&gt;Node2</title>
<path fill="none" stroke="midnightblue" d="M121.122,-122.181C135.745,-126.068 151.162,-130.167 165.423,-133.958"/>
<polygon fill="midnightblue" stroke="midnightblue" points="121.713,-118.716 111.15,-119.529 119.915,-125.481 121.713,-118.716"/>
</g>
<!-- Node3 -->
<g id="node3" class="node"><title>Node3</title>
<g id="a_node3"><a xlink:href="class_c_d_b_batch.html#a91b5d889a8d7e56c4f0bbf446e246111" target="_top" xlink:title="CDBBatch::Write">
<polygon fill="white" stroke="black" points="175.5,-95.5 175.5,-114.5 270.5,-114.5 270.5,-95.5 175.5,-95.5"/>
<text text-anchor="middle" x="223" y="-102.5" font-family="Helvetica,sans-Serif" font-size="10.00">CDBBatch::Write</text>
</a>
</g>
</g>
<!-- Node1&#45;&gt;Node3 -->
<g id="edge2" class="edge"><title>Node1&#45;&gt;Node3</title>
<path fill="none" stroke="midnightblue" d="M121.329,-105C139.394,-105 158.657,-105 175.444,-105"/>
<polygon fill="midnightblue" stroke="midnightblue" points="121.15,-101.5 111.15,-105 121.15,-108.5 121.15,-101.5"/>
</g>
<!-- Node20 -->
<g id="node20" class="node"><title>Node20</title>
<g id="a_node20"><a xlink:href="class_c_d_b_iterator.html#a1b99353b18b45216db24940526838e7a" target="_top" xlink:title="CDBIterator::GetValue">
<polygon fill="white" stroke="black" points="162,-57.5 162,-76.5 284,-76.5 284,-57.5 162,-57.5"/>
<text text-anchor="middle" x="223" y="-64.5" font-family="Helvetica,sans-Serif" font-size="10.00">CDBIterator::GetValue</text>
</a>
</g>
</g>
<!-- Node1&#45;&gt;Node20 -->
<g id="edge22" class="edge"><title>Node1&#45;&gt;Node20</title>
<path fill="none" stroke="midnightblue" d="M121.122,-90.1623C141.096,-85.5762 162.551,-80.6499 180.518,-76.5246"/>
<polygon fill="midnightblue" stroke="midnightblue" points="120.113,-86.8029 111.15,-92.4521 121.679,-93.6254 120.113,-86.8029"/>
</g>
<!-- Node4 -->
<g id="node4" class="node"><title>Node4</title>
<g id="a_node4"><a xlink:href="class_c_d_b_wrapper.html#a6600aa8c2b30880dd7e032ea21f74aed" target="_top" xlink:title="CDBWrapper::Write">
<polygon fill="white" stroke="black" points="363.5,-247.5 363.5,-266.5 469.5,-266.5 469.5,-247.5 363.5,-247.5"/>
<text text-anchor="middle" x="416.5" y="-254.5" font-family="Helvetica,sans-Serif" font-size="10.00">CDBWrapper::Write</text>
</a>
</g>
</g>
<!-- Node3&#45;&gt;Node4 -->
<g id="edge3" class="edge"><title>Node3&#45;&gt;Node4</title>
<path fill="none" stroke="midnightblue" d="M280.405,-114.516C286.994,-116.983 293.365,-120.089 299,-124 322.093,-140.026 317.023,-154.391 335,-176 357.951,-203.587 388.689,-232.655 404.73,-247.32"/>
<polygon fill="midnightblue" stroke="midnightblue" points="281.248,-111.109 270.656,-111.338 279.079,-117.765 281.248,-111.109"/>
</g>
<!-- Node13 -->
<g id="node13" class="node"><title>Node13</title>
<g id="a_node13"><a xlink:href="class_tx_index_1_1_d_b.html#a7eeb3325ee83f6fe2736278a7952ba5c" target="_top" xlink:title="Migrate txindex data from the block tree DB, where it may be for older nodes that have not been upgra...">
<polygon fill="white" stroke="black" points="745,-190.5 745,-209.5 883,-209.5 883,-190.5 745,-190.5"/>
<text text-anchor="middle" x="814" y="-197.5" font-family="Helvetica,sans-Serif" font-size="10.00">TxIndex::DB::MigrateData</text>
</a>
</g>
</g>
<!-- Node3&#45;&gt;Node13 -->
<g id="edge18" class="edge"><title>Node3&#45;&gt;Node13</title>
<path fill="none" stroke="midnightblue" d="M278.93,-117.304C285.765,-119.305 292.598,-121.54 299,-124 315.888,-130.489 317.69,-137.738 335,-143 489.78,-190.05 536.666,-159.472 697,-181 717.226,-183.716 739.35,-187.209 758.804,-190.458"/>
<polygon fill="midnightblue" stroke="midnightblue" points="279.533,-113.839 268.961,-114.54 277.662,-120.585 279.533,-113.839"/>
</g>
<!-- Node16 -->
<g id="node16" class="node"><title>Node16</title>
<g id="a_node16"><a xlink:href="class_tx_index_1_1_d_b.html#a1a74538fe62aa9bea4c4ad27a090b902" target="_top" xlink:title="Write a batch of transaction positions to the DB. ">
<polygon fill="white" stroke="black" points="357.5,-114.5 357.5,-133.5 475.5,-133.5 475.5,-114.5 357.5,-114.5"/>
<text text-anchor="middle" x="416.5" y="-121.5" font-family="Helvetica,sans-Serif" font-size="10.00">TxIndex::DB::WriteTxs</text>
</a>
</g>
</g>
<!-- Node3&#45;&gt;Node16 -->
<g id="edge17" class="edge"><title>Node3&#45;&gt;Node16</title>
<path fill="none" stroke="midnightblue" d="M280.934,-110.649C305.093,-113.046 333.221,-115.837 357.496,-118.245"/>
<polygon fill="midnightblue" stroke="midnightblue" points="281.143,-107.152 270.846,-109.648 280.452,-114.118 281.143,-107.152"/>
</g>
<!-- Node17 -->
<g id="node17" class="node"><title>Node17</title>
<g id="a_node17"><a xlink:href="class_c_coins_view_d_b.html#aeb6c04068de59681a8bbc85f81f50c34" target="_top" xlink:title="Do a bulk modification (multiple Coin changes + BestBlock change). ">
<polygon fill="white" stroke="black" points="345,-76.5 345,-95.5 488,-95.5 488,-76.5 345,-76.5"/>
<text text-anchor="middle" x="416.5" y="-83.5" font-family="Helvetica,sans-Serif" font-size="10.00">CCoinsViewDB::BatchWrite</text>
</a>
</g>
</g>
<!-- Node3&#45;&gt;Node17 -->
<g id="edge19" class="edge"><title>Node3&#45;&gt;Node17</title>
<path fill="none" stroke="midnightblue" d="M281.052,-99.3395C301.088,-97.3516 323.842,-95.094 344.859,-93.0088"/>
<polygon fill="midnightblue" stroke="midnightblue" points="280.452,-95.8818 270.846,-100.352 281.143,-102.848 280.452,-95.8818"/>
</g>
<!-- Node18 -->
<g id="node18" class="node"><title>Node18</title>
<g id="a_node18"><a xlink:href="class_c_block_tree_d_b.html#aa4b53c1cae368f02f56244af5f2499d7" target="_top" xlink:title="CBlockTreeDB::WriteBatchSync">
<polygon fill="white" stroke="black" points="335,-38.5 335,-57.5 498,-57.5 498,-38.5 335,-38.5"/>
<text text-anchor="middle" x="416.5" y="-45.5" font-family="Helvetica,sans-Serif" font-size="10.00">CBlockTreeDB::WriteBatchSync</text>
</a>
</g>
</g>
<!-- Node3&#45;&gt;Node18 -->
<g id="edge20" class="edge"><title>Node3&#45;&gt;Node18</title>
<path fill="none" stroke="midnightblue" d="M278.93,-92.6962C285.765,-90.6949 292.598,-88.4602 299,-86 315.888,-79.5106 318.06,-73.3513 335,-67 344.815,-63.32 355.579,-60.1938 365.951,-57.6047"/>
<polygon fill="midnightblue" stroke="midnightblue" points="277.662,-89.4154 268.961,-95.4603 279.533,-96.1608 277.662,-89.4154"/>
</g>
<!-- Node19 -->
<g id="node19" class="node"><title>Node19</title>
<g id="a_node19"><a xlink:href="class_c_coins_view_d_b.html#a72c1d718a15df89eadab97ce3b34fa56" target="_top" xlink:title="Attempt to update from an older database format. Returns whether an error occurred. ">
<polygon fill="white" stroke="black" points="350,-0.5 350,-19.5 483,-19.5 483,-0.5 350,-0.5"/>
<text text-anchor="middle" x="416.5" y="-7.5" font-family="Helvetica,sans-Serif" font-size="10.00">CCoinsViewDB::Upgrade</text>
</a>
</g>
</g>
<!-- Node3&#45;&gt;Node19 -->
<g id="edge21" class="edge"><title>Node3&#45;&gt;Node19</title>
<path fill="none" stroke="midnightblue" d="M280.566,-95.7115C287.129,-93.206 293.449,-90.0286 299,-86 323.25,-68.4009 310.607,-46.4005 335,-29 340.377,-25.164 346.422,-22.0931 352.719,-19.6361"/>
<polygon fill="midnightblue" stroke="midnightblue" points="279.239,-92.4638 270.841,-98.9225 281.434,-99.1109 279.239,-92.4638"/>
</g>
<!-- Node5 -->
<g id="node5" class="node"><title>Node5</title>
<g id="a_node5"><a xlink:href="class_c_d_b_wrapper.html#aac6220002df70f327ab09893e08902f5" target="_top" xlink:title="CDBWrapper::CDBWrapper">
<polygon fill="white" stroke="black" points="544,-354.5 544,-373.5 687,-373.5 687,-354.5 544,-354.5"/>
<text text-anchor="middle" x="615.5" y="-361.5" font-family="Helvetica,sans-Serif" font-size="10.00">CDBWrapper::CDBWrapper</text>
</a>
</g>
</g>
<!-- Node4&#45;&gt;Node5 -->
<g id="edge4" class="edge"><title>Node4&#45;&gt;Node5</title>
<path fill="none" stroke="midnightblue" d="M434.476,-273.517C455.908,-293.44 494.741,-326.549 534,-345 542.187,-348.848 551.22,-351.953 560.187,-354.447"/>
<polygon fill="midnightblue" stroke="midnightblue" points="436.819,-270.915 427.15,-266.585 432.008,-276 436.819,-270.915"/>
</g>
<!-- Node6 -->
<g id="node6" class="node"><title>Node6</title>
<g id="a_node6"><a xlink:href="class_base_index_1_1_d_b.html#abe7afe749f8e643c2eaacb626cbe4f65" target="_top" xlink:title="Write block locator of the chain that the txindex is in sync with. ">
<polygon fill="white" stroke="black" points="547,-305 547,-335 684,-335 684,-305 547,-305"/>
<text text-anchor="start" x="555" y="-323" font-family="Helvetica,sans-Serif" font-size="10.00">BaseIndex::DB::WriteBest</text>
<text text-anchor="middle" x="615.5" y="-312" font-family="Helvetica,sans-Serif" font-size="10.00">Block</text>
</a>
</g>
</g>
<!-- Node4&#45;&gt;Node6 -->
<g id="edge5" class="edge"><title>Node4&#45;&gt;Node6</title>
<path fill="none" stroke="midnightblue" d="M457.268,-269.718C489.085,-279.893 533.783,-294.187 567.392,-304.935"/>
<polygon fill="midnightblue" stroke="midnightblue" points="458.011,-266.281 447.42,-266.568 455.879,-272.948 458.011,-266.281"/>
</g>
<!-- Node4&#45;&gt;Node13 -->
<g id="edge13" class="edge"><title>Node4&#45;&gt;Node13</title>
<path fill="none" stroke="midnightblue" d="M479.537,-264.957C536.79,-270.438 623.765,-274.021 697,-257 736.341,-247.856 777.708,-223.391 798.801,-209.671"/>
<polygon fill="midnightblue" stroke="midnightblue" points="479.855,-261.471 469.555,-263.953 479.155,-268.436 479.855,-261.471"/>
</g>
<!-- Node14 -->
<g id="node14" class="node"><title>Node14</title>
<g id="a_node14"><a xlink:href="class_c_block_tree_d_b.html#a55914903b15bc119d0c4952af8fdf721" target="_top" xlink:title="CBlockTreeDB::WriteReindexing">
<polygon fill="white" stroke="black" points="534,-228.5 534,-247.5 697,-247.5 697,-228.5 534,-228.5"/>
<text text-anchor="middle" x="615.5" y="-235.5" font-family="Helvetica,sans-Serif" font-size="10.00">CBlockTreeDB::WriteReindexing</text>
</a>
</g>
</g>
<!-- Node4&#45;&gt;Node14 -->
<g id="edge14" class="edge"><title>Node4&#45;&gt;Node14</title>
<path fill="none" stroke="midnightblue" d="M479.949,-250.977C497.091,-249.324 515.922,-247.508 533.926,-245.771"/>
<polygon fill="midnightblue" stroke="midnightblue" points="479.135,-247.539 469.517,-251.983 479.807,-254.507 479.135,-247.539"/>
</g>
<!-- Node15 -->
<g id="node15" class="node"><title>Node15</title>
<g id="a_node15"><a xlink:href="class_c_block_tree_d_b.html#af2f65b70ac5d8a198d4f29a7e909c08a" target="_top" xlink:title="CBlockTreeDB::WriteFlag">
<polygon fill="white" stroke="black" points="550,-190.5 550,-209.5 681,-209.5 681,-190.5 550,-190.5"/>
<text text-anchor="middle" x="615.5" y="-197.5" font-family="Helvetica,sans-Serif" font-size="10.00">CBlockTreeDB::WriteFlag</text>
</a>
</g>
</g>
<!-- Node4&#45;&gt;Node15 -->
<g id="edge15" class="edge"><title>Node4&#45;&gt;Node15</title>
<path fill="none" stroke="midnightblue" d="M454.231,-244.148C477.045,-236.383 507.057,-226.559 534,-219 545.89,-215.664 558.876,-212.425 570.88,-209.595"/>
<polygon fill="midnightblue" stroke="midnightblue" points="452.934,-240.892 444.609,-247.446 455.203,-247.514 452.934,-240.892"/>
</g>
<!-- Node7 -->
<g id="node7" class="node"><title>Node7</title>
<g id="a_node7"><a xlink:href="class_base_index.html#a96a7407421fbf877509248bbe64f8d87" target="_top" xlink:title="Sync the index with the block index starting from the current best block. ">
<polygon fill="white" stroke="black" points="750,-348.5 750,-367.5 878,-367.5 878,-348.5 750,-348.5"/>
<text text-anchor="middle" x="814" y="-355.5" font-family="Helvetica,sans-Serif" font-size="10.00">BaseIndex::ThreadSync</text>
</a>
</g>
</g>
<!-- Node6&#45;&gt;Node7 -->
<g id="edge6" class="edge"><title>Node6&#45;&gt;Node7</title>
<path fill="none" stroke="midnightblue" d="M694.084,-335.003C717.598,-339.551 742.767,-344.418 763.866,-348.498"/>
<polygon fill="midnightblue" stroke="midnightblue" points="694.607,-331.54 684.124,-333.077 693.278,-338.413 694.607,-331.54"/>
</g>
<!-- Node11 -->
<g id="node11" class="node"><title>Node11</title>
<g id="a_node11"><a xlink:href="class_base_index.html#aec33bcb4ab5a0b0de416b4f3c4a1774b" target="_top" xlink:title="Write the current chain block locator to the DB. ">
<polygon fill="white" stroke="black" points="742.5,-310.5 742.5,-329.5 885.5,-329.5 885.5,-310.5 742.5,-310.5"/>
<text text-anchor="middle" x="814" y="-317.5" font-family="Helvetica,sans-Serif" font-size="10.00">BaseIndex::WriteBestBlock</text>
</a>
</g>
</g>
<!-- Node6&#45;&gt;Node11 -->
<g id="edge11" class="edge"><title>Node6&#45;&gt;Node11</title>
<path fill="none" stroke="midnightblue" d="M694.38,-320C710.176,-320 726.706,-320 742.239,-320"/>
<polygon fill="midnightblue" stroke="midnightblue" points="694.124,-316.5 684.124,-320 694.124,-323.5 694.124,-316.5"/>
</g>
<!-- Node12 -->
<g id="node12" class="node"><title>Node12</title>
<g id="a_node12"><a xlink:href="class_base_index.html#a770e60b2fcbc0b8adaaeb54f18eb9c8a" target="_top" xlink:title="Notifies listeners of the new active block chain on&#45;disk. ">
<polygon fill="white" stroke="black" points="733,-272.5 733,-291.5 895,-291.5 895,-272.5 733,-272.5"/>
<text text-anchor="middle" x="814" y="-279.5" font-family="Helvetica,sans-Serif" font-size="10.00">BaseIndex::ChainStateFlushed</text>
</a>
</g>
</g>
<!-- Node6&#45;&gt;Node12 -->
<g id="edge12" class="edge"><title>Node6&#45;&gt;Node12</title>
<path fill="none" stroke="midnightblue" d="M694.084,-304.997C717.598,-300.449 742.767,-295.582 763.866,-291.502"/>
<polygon fill="midnightblue" stroke="midnightblue" points="693.278,-301.587 684.124,-306.923 694.607,-308.46 693.278,-301.587"/>
</g>
<!-- Node8 -->
<g id="node8" class="node"><title>Node8</title>
<g id="a_node8"><a xlink:href="class_base_index.html#a2babb71bb9b93aadba06dae6e62d721b" target="_top" xlink:title="Start initializes the sync state and registers the instance as a ValidationInterface so that it stays...">
<polygon fill="white" stroke="black" points="931,-367.5 931,-386.5 1027,-386.5 1027,-367.5 931,-367.5"/>
<text text-anchor="middle" x="979" y="-374.5" font-family="Helvetica,sans-Serif" font-size="10.00">BaseIndex::Start</text>
</a>
</g>
</g>
<!-- Node7&#45;&gt;Node8 -->
<g id="edge7" class="edge"><title>Node7&#45;&gt;Node8</title>
<path fill="none" stroke="midnightblue" d="M888.001,-366.509C902.536,-368.204 917.435,-369.94 930.823,-371.501"/>
<polygon fill="midnightblue" stroke="midnightblue" points="888.358,-363.027 878.02,-365.346 887.548,-369.98 888.358,-363.027"/>
</g>
<!-- Node9 -->
<g id="node9" class="node"><title>Node9</title>
<g id="a_node9"><a xlink:href="class_base_index.html#a8960ca12b00a8a6c38428a07849ef88a" target="_top" xlink:title="Write update index entries for a newly connected block. ">
<polygon fill="white" stroke="black" points="1063,-348.5 1063,-367.5 1184,-367.5 1184,-348.5 1063,-348.5"/>
<text text-anchor="middle" x="1123.5" y="-355.5" font-family="Helvetica,sans-Serif" font-size="10.00">BaseIndex::WriteBlock</text>
</a>
</g>
</g>
<!-- Node8&#45;&gt;Node9 -->
<g id="edge8" class="edge"><title>Node8&#45;&gt;Node9</title>
<path fill="none" stroke="midnightblue" d="M1037.17,-369.377C1045.6,-368.253 1054.31,-367.092 1062.79,-365.961"/>
<polygon fill="midnightblue" stroke="midnightblue" points="1036.5,-365.935 1027.05,-370.726 1037.43,-372.874 1036.5,-365.935"/>
</g>
<!-- Node9&#45;&gt;Node7 -->
<g id="edge9" class="edge"><title>Node9&#45;&gt;Node7</title>
<path fill="none" stroke="midnightblue" d="M1052.68,-358C1000.27,-358 929.108,-358 878.341,-358"/>
<polygon fill="midnightblue" stroke="midnightblue" points="1052.89,-361.5 1062.89,-358 1052.89,-354.5 1052.89,-361.5"/>
</g>
<!-- Node10 -->
<g id="node10" class="node"><title>Node10</title>
<g id="a_node10"><a xlink:href="class_base_index.html#ab3f7a06bc635950918ee072262887223" target="_top" xlink:title="Notifies listeners of a block being connected. ">
<polygon fill="white" stroke="black" points="1220,-348.5 1220,-367.5 1369,-367.5 1369,-348.5 1220,-348.5"/>
<text text-anchor="middle" x="1294.5" y="-355.5" font-family="Helvetica,sans-Serif" font-size="10.00">BaseIndex::BlockConnected</text>
</a>
</g>
</g>
<!-- Node9&#45;&gt;Node10 -->
<g id="edge10" class="edge"><title>Node9&#45;&gt;Node10</title>
<path fill="none" stroke="midnightblue" d="M1194.29,-358C1202.75,-358 1211.42,-358 1219.94,-358"/>
<polygon fill="midnightblue" stroke="midnightblue" points="1194.08,-354.5 1184.08,-358 1194.08,-361.5 1194.08,-354.5"/>
</g>
<!-- Node15&#45;&gt;Node13 -->
<g id="edge16" class="edge"><title>Node15&#45;&gt;Node13</title>
<path fill="none" stroke="midnightblue" d="M691.349,-200C708.974,-200 727.666,-200 744.972,-200"/>
<polygon fill="midnightblue" stroke="midnightblue" points="691.114,-196.5 681.114,-200 691.114,-203.5 691.114,-196.5"/>
</g>
</g>
</svg>
