<?xml version="1.0" encoding="UTF-8" standalone="no"?>
<!DOCTYPE svg PUBLIC "-//W3C//DTD SVG 1.1//EN"
 "http://www.w3.org/Graphics/SVG/1.1/DTD/svg11.dtd">
<!-- Generated by graphviz version 2.40.1 (20161225.0304)
 -->
<!-- Title: src/net.h Pages: 1 -->
<svg width="4106pt" height="252pt"
 viewBox="0.00 0.00 4105.50 252.00" xmlns="http://www.w3.org/2000/svg" xmlns:xlink="http://www.w3.org/1999/xlink">
<g id="graph0" class="graph" transform="scale(1 1) rotate(0) translate(4 248)">
<title>src/net.h</title>
<polygon fill="#ffffff" stroke="transparent" points="-4,4 -4,-248 4101.5,-248 4101.5,4 -4,4"/>
<!-- Node86 -->
<g id="node1" class="node">
<title>Node86</title>
<polygon fill="#bfbfbf" stroke="#000000" points="2939,-224.5 2939,-243.5 2994,-243.5 2994,-224.5 2939,-224.5"/>
<text text-anchor="middle" x="2966.5" y="-231.5" font-family="Helvetica,sans-Serif" font-size="10.00" fill="#000000">src/net.h</text>
</g>
<!-- Node87 -->
<g id="node2" class="node">
<title>Node87</title>
<g id="a_node2"><a xlink:href="init_8cpp.html" target="_top" xlink:title="src/init.cpp">
<polygon fill="#ffffff" stroke="#000000" points="2442,-112.5 2442,-131.5 2507,-131.5 2507,-112.5 2442,-112.5"/>
<text text-anchor="middle" x="2474.5" y="-119.5" font-family="Helvetica,sans-Serif" font-size="10.00" fill="#000000">src/init.cpp</text>
</a>
</g>
</g>
<!-- Node86&#45;&gt;Node87 -->
<g id="edge1" class="edge">
<title>Node86&#45;&gt;Node87</title>
<path fill="none" stroke="#191970" d="M2928.5371,-232.4875C2799.9254,-227.1822 2387.5959,-208.6212 2368.5,-188 2342.6499,-160.085 2402.06,-139.4258 2441.9795,-129.1933"/>
<polygon fill="#191970" stroke="#191970" points="2928.5613,-235.9913 2938.6961,-232.9032 2928.8476,-228.9972 2928.5613,-235.9913"/>
</g>
<!-- Node88 -->
<g id="node3" class="node">
<title>Node88</title>
<g id="a_node3"><a xlink:href="node_8cpp.html" target="_top" xlink:title="src/interfaces/node.cpp">
<polygon fill="#ffffff" stroke="#000000" points="2482,-56.5 2482,-75.5 2601,-75.5 2601,-56.5 2482,-56.5"/>
<text text-anchor="middle" x="2541.5" y="-63.5" font-family="Helvetica,sans-Serif" font-size="10.00" fill="#000000">src/interfaces/node.cpp</text>
</a>
</g>
</g>
<!-- Node86&#45;&gt;Node88 -->
<g id="edge2" class="edge">
<title>Node86&#45;&gt;Node88</title>
<path fill="none" stroke="#191970" d="M2928.516,-232.6217C2795.9298,-227.6292 2360.6095,-209.6415 2340.5,-188 2317.0531,-162.7669 2349.4585,-131.4402 2375.5,-112 2393.9527,-98.225 2450.2761,-84.3767 2492.2295,-75.5281"/>
<polygon fill="#191970" stroke="#191970" points="2928.4838,-236.1228 2938.6075,-232.9985 2928.7451,-229.1277 2928.4838,-236.1228"/>
</g>
<!-- Node89 -->
<g id="node4" class="node">
<title>Node89</title>
<g id="a_node4"><a xlink:href="node_8h.html" target="_top" xlink:title="src/interfaces/node.h">
<polygon fill="#ffffff" stroke="#000000" points="1615.5,-112.5 1615.5,-131.5 1723.5,-131.5 1723.5,-112.5 1615.5,-112.5"/>
<text text-anchor="middle" x="1669.5" y="-119.5" font-family="Helvetica,sans-Serif" font-size="10.00" fill="#000000">src/interfaces/node.h</text>
</a>
</g>
</g>
<!-- Node86&#45;&gt;Node89 -->
<g id="edge3" class="edge">
<title>Node86&#45;&gt;Node89</title>
<path fill="none" stroke="#191970" d="M2928.6603,-232.1577C2822.8189,-226.871 2514.7736,-210.5703 2259.5,-188 2061.6056,-170.503 1827.2395,-141.9384 1723.5099,-128.8916"/>
<polygon fill="#191970" stroke="#191970" points="2928.678,-235.6628 2938.8393,-232.6633 2929.0253,-228.6715 2928.678,-235.6628"/>
</g>
<!-- Node94 -->
<g id="node9" class="node">
<title>Node94</title>
<g id="a_node9"><a xlink:href="clientmodel_8cpp.html" target="_top" xlink:title="src/qt/clientmodel.cpp">
<polygon fill="#ffffff" stroke="#000000" points="3201,-56.5 3201,-75.5 3314,-75.5 3314,-56.5 3201,-56.5"/>
<text text-anchor="middle" x="3257.5" y="-63.5" font-family="Helvetica,sans-Serif" font-size="10.00" fill="#000000">src/qt/clientmodel.cpp</text>
</a>
</g>
</g>
<!-- Node86&#45;&gt;Node94 -->
<g id="edge50" class="edge">
<title>Node86&#45;&gt;Node94</title>
<path fill="none" stroke="#191970" d="M2987.81,-218.4696C3007.1635,-204.6158 3036.6963,-184.0945 3063.5,-168 3125.3203,-130.8795 3201.9193,-92.8242 3237.5433,-75.558"/>
<polygon fill="#191970" stroke="#191970" points="2985.7486,-215.6409 2979.6805,-224.3258 2989.8402,-221.3206 2985.7486,-215.6409"/>
</g>
<!-- Node99 -->
<g id="node14" class="node">
<title>Node99</title>
<g id="a_node14"><a xlink:href="optionsmodel_8cpp.html" target="_top" xlink:title="src/qt/optionsmodel.cpp">
<polygon fill="#ffffff" stroke="#000000" points="0,-56.5 0,-75.5 121,-75.5 121,-56.5 0,-56.5"/>
<text text-anchor="middle" x="60.5" y="-63.5" font-family="Helvetica,sans-Serif" font-size="10.00" fill="#000000">src/qt/optionsmodel.cpp</text>
</a>
</g>
</g>
<!-- Node86&#45;&gt;Node99 -->
<g id="edge51" class="edge">
<title>Node86&#45;&gt;Node99</title>
<path fill="none" stroke="#191970" d="M2928.5818,-232.1699C2804.2592,-226.1489 2397.6889,-206.2934 2061.5,-188 1203.1053,-141.2912 985.877,-161.7519 130.5,-76 127.4463,-75.6939 124.3214,-75.3521 121.1684,-74.9847"/>
<polygon fill="#191970" stroke="#191970" points="2928.5667,-235.6732 2938.7243,-232.6608 2928.9052,-228.6814 2928.5667,-235.6732"/>
</g>
<!-- Node112 -->
<g id="node27" class="node">
<title>Node112</title>
<g id="a_node27"><a xlink:href="interfaces_2wallet_8cpp.html" target="_top" xlink:title="src/interfaces/wallet.cpp">
<polygon fill="#ffffff" stroke="#000000" points="2378,-168.5 2378,-187.5 2501,-187.5 2501,-168.5 2378,-168.5"/>
<text text-anchor="middle" x="2439.5" y="-175.5" font-family="Helvetica,sans-Serif" font-size="10.00" fill="#000000">src/interfaces/wallet.cpp</text>
</a>
</g>
</g>
<!-- Node86&#45;&gt;Node112 -->
<g id="edge27" class="edge">
<title>Node86&#45;&gt;Node112</title>
<path fill="none" stroke="#191970" d="M2928.6457,-230.6896C2850.4309,-223.7377 2665.3519,-206.7082 2510.5,-188 2507.4105,-187.6267 2504.2472,-187.231 2501.0542,-186.8208"/>
<polygon fill="#191970" stroke="#191970" points="2928.6889,-234.207 2938.9587,-231.6028 2929.3064,-227.2343 2928.6889,-234.207"/>
</g>
<!-- Node113 -->
<g id="node28" class="node">
<title>Node113</title>
<g id="a_node28"><a xlink:href="miner_8cpp.html" target="_top" xlink:title="src/miner.cpp">
<polygon fill="#ffffff" stroke="#000000" points="2519.5,-168.5 2519.5,-187.5 2595.5,-187.5 2595.5,-168.5 2519.5,-168.5"/>
<text text-anchor="middle" x="2557.5" y="-175.5" font-family="Helvetica,sans-Serif" font-size="10.00" fill="#000000">src/miner.cpp</text>
</a>
</g>
</g>
<!-- Node86&#45;&gt;Node113 -->
<g id="edge28" class="edge">
<title>Node86&#45;&gt;Node113</title>
<path fill="none" stroke="#191970" d="M2928.3339,-230.2068C2862.1595,-223.3945 2721.9458,-207.9207 2604.5,-188 2601.6213,-187.5117 2598.6512,-186.97 2595.6685,-186.3987"/>
<polygon fill="#191970" stroke="#191970" points="2928.3768,-233.7293 2938.6807,-231.2633 2929.088,-226.7655 2928.3768,-233.7293"/>
</g>
<!-- Node114 -->
<g id="node29" class="node">
<title>Node114</title>
<g id="a_node29"><a xlink:href="net_8cpp.html" target="_top" xlink:title="src/net.cpp">
<polygon fill="#ffffff" stroke="#000000" points="2614,-168.5 2614,-187.5 2679,-187.5 2679,-168.5 2614,-168.5"/>
<text text-anchor="middle" x="2646.5" y="-175.5" font-family="Helvetica,sans-Serif" font-size="10.00" fill="#000000">src/net.cpp</text>
</a>
</g>
</g>
<!-- Node86&#45;&gt;Node114 -->
<g id="edge29" class="edge">
<title>Node86&#45;&gt;Node114</title>
<path fill="none" stroke="#191970" d="M2929.013,-228.203C2876.3145,-219.9356 2777.3795,-203.9826 2693.5,-188 2688.8289,-187.11 2683.9078,-186.1205 2679.0797,-185.12"/>
<polygon fill="#191970" stroke="#191970" points="2928.4974,-231.6648 2938.9181,-229.7518 2929.5788,-224.7489 2928.4974,-231.6648"/>
</g>
<!-- Node115 -->
<g id="node30" class="node">
<title>Node115</title>
<g id="a_node30"><a xlink:href="net__processing_8h.html" target="_top" xlink:title="src/net_processing.h">
<polygon fill="#ffffff" stroke="#000000" points="2736,-168.5 2736,-187.5 2843,-187.5 2843,-168.5 2736,-168.5"/>
<text text-anchor="middle" x="2789.5" y="-175.5" font-family="Helvetica,sans-Serif" font-size="10.00" fill="#000000">src/net_processing.h</text>
</a>
</g>
</g>
<!-- Node86&#45;&gt;Node115 -->
<g id="edge30" class="edge">
<title>Node86&#45;&gt;Node115</title>
<path fill="none" stroke="#191970" d="M2929.2163,-222.204C2896.6234,-211.8922 2849.8996,-197.1095 2819.6259,-187.5314"/>
<polygon fill="#191970" stroke="#191970" points="2928.2538,-225.5704 2938.8438,-225.25 2930.3653,-218.8965 2928.2538,-225.5704"/>
</g>
<!-- Node117 -->
<g id="node32" class="node">
<title>Node117</title>
<g id="a_node32"><a xlink:href="peertablemodel_8h.html" target="_top" xlink:title="src/qt/peertablemodel.h">
<polygon fill="#ffffff" stroke="#000000" points="2902,-112.5 2902,-131.5 3021,-131.5 3021,-112.5 2902,-112.5"/>
<text text-anchor="middle" x="2961.5" y="-119.5" font-family="Helvetica,sans-Serif" font-size="10.00" fill="#000000">src/qt/peertablemodel.h</text>
</a>
</g>
</g>
<!-- Node86&#45;&gt;Node117 -->
<g id="edge52" class="edge">
<title>Node86&#45;&gt;Node117</title>
<path fill="none" stroke="#191970" d="M2980.5294,-216.1684C2989.1261,-203.0396 2997.587,-184.6511 2992.5,-168 2988.2231,-154.0006 2978.0963,-140.4087 2970.5741,-131.6757"/>
<polygon fill="#191970" stroke="#191970" points="2977.667,-214.1542 2974.721,-224.3312 2983.3705,-218.2126 2977.667,-214.1542"/>
</g>
<!-- Node119 -->
<g id="node34" class="node">
<title>Node119</title>
<g id="a_node34"><a xlink:href="rpcconsole_8h.html" target="_top" xlink:title="src/qt/rpcconsole.h">
<polygon fill="#ffffff" stroke="#000000" points="2766.5,-56.5 2766.5,-75.5 2866.5,-75.5 2866.5,-56.5 2766.5,-56.5"/>
<text text-anchor="middle" x="2816.5" y="-63.5" font-family="Helvetica,sans-Serif" font-size="10.00" fill="#000000">src/qt/rpcconsole.h</text>
</a>
</g>
</g>
<!-- Node86&#45;&gt;Node119 -->
<g id="edge53" class="edge">
<title>Node86&#45;&gt;Node119</title>
<path fill="none" stroke="#191970" d="M2928.3437,-232.5294C2798.0881,-227.327 2377.9484,-208.9754 2358.5,-188 2318.0497,-144.3737 2350.5635,-144.6537 2432.5,-112 2567.0918,-58.3618 2612.9893,-95.917 2756.5,-76 2759.7426,-75.55 2763.0798,-75.0623 2766.4409,-74.5527"/>
<polygon fill="#191970" stroke="#191970" points="2928.4958,-236.038 2938.6265,-232.9367 2928.7729,-229.0435 2928.4958,-236.038"/>
</g>
<!-- Node121 -->
<g id="node36" class="node">
<title>Node121</title>
<g id="a_node36"><a xlink:href="rpc_2net_8cpp.html" target="_top" xlink:title="src/rpc/net.cpp">
<polygon fill="#ffffff" stroke="#000000" points="2627.5,-112.5 2627.5,-131.5 2709.5,-131.5 2709.5,-112.5 2627.5,-112.5"/>
<text text-anchor="middle" x="2668.5" y="-119.5" font-family="Helvetica,sans-Serif" font-size="10.00" fill="#000000">src/rpc/net.cpp</text>
</a>
</g>
</g>
<!-- Node86&#45;&gt;Node121 -->
<g id="edge56" class="edge">
<title>Node86&#45;&gt;Node121</title>
<path fill="none" stroke="#191970" d="M2928.6732,-229.7788C2870.0485,-222.7359 2760.4583,-207.4251 2726.5,-188 2702.4017,-174.2151 2683.2531,-146.6721 2674.1964,-131.9006"/>
<polygon fill="#191970" stroke="#191970" points="2928.3129,-233.2604 2938.6543,-230.957 2929.1336,-226.3087 2928.3129,-233.2604"/>
</g>
<!-- Node122 -->
<g id="node37" class="node">
<title>Node122</title>
<g id="a_node37"><a xlink:href="netmessagemaker_8h.html" target="_top" xlink:title="src/netmessagemaker.h">
<polygon fill="#ffffff" stroke="#000000" points="2861.5,-168.5 2861.5,-187.5 2983.5,-187.5 2983.5,-168.5 2861.5,-168.5"/>
<text text-anchor="middle" x="2922.5" y="-175.5" font-family="Helvetica,sans-Serif" font-size="10.00" fill="#000000">src/netmessagemaker.h</text>
</a>
</g>
</g>
<!-- Node86&#45;&gt;Node122 -->
<g id="edge43" class="edge">
<title>Node86&#45;&gt;Node122</title>
<path fill="none" stroke="#191970" d="M2952.5231,-216.2112C2945.0871,-206.7472 2936.234,-195.4797 2930.0764,-187.6427"/>
<polygon fill="#191970" stroke="#191970" points="2949.9054,-218.5447 2958.8358,-224.2455 2955.4097,-214.22 2949.9054,-218.5447"/>
</g>
<!-- Node123 -->
<g id="node38" class="node">
<title>Node123</title>
<g id="a_node38"><a xlink:href="bantablemodel_8h.html" target="_top" xlink:title="src/qt/bantablemodel.h">
<polygon fill="#ffffff" stroke="#000000" points="3199.5,-112.5 3199.5,-131.5 3315.5,-131.5 3315.5,-112.5 3199.5,-112.5"/>
<text text-anchor="middle" x="3257.5" y="-119.5" font-family="Helvetica,sans-Serif" font-size="10.00" fill="#000000">src/qt/bantablemodel.h</text>
</a>
</g>
</g>
<!-- Node86&#45;&gt;Node123 -->
<g id="edge45" class="edge">
<title>Node86&#45;&gt;Node123</title>
<path fill="none" stroke="#191970" d="M2995.6032,-220.1105C3033.5363,-202.0485 3096.3684,-172.2878 3107.5,-168 3145.6273,-153.3137 3190.5726,-140.045 3221.2561,-131.5749"/>
<polygon fill="#191970" stroke="#191970" points="2994.0644,-216.9667 2986.5423,-224.4279 2997.0754,-223.286 2994.0644,-216.9667"/>
</g>
<!-- Node125 -->
<g id="node40" class="node">
<title>Node125</title>
<g id="a_node40"><a xlink:href="mining_8cpp.html" target="_top" xlink:title="src/rpc/mining.cpp">
<polygon fill="#ffffff" stroke="#000000" points="3116,-168.5 3116,-187.5 3213,-187.5 3213,-168.5 3116,-168.5"/>
<text text-anchor="middle" x="3164.5" y="-175.5" font-family="Helvetica,sans-Serif" font-size="10.00" fill="#000000">src/rpc/mining.cpp</text>
</a>
</g>
</g>
<!-- Node86&#45;&gt;Node125 -->
<g id="edge54" class="edge">
<title>Node86&#45;&gt;Node125</title>
<path fill="none" stroke="#191970" d="M3003.7923,-223.4527C3040.26,-213.1386 3095.3076,-197.5696 3130.5751,-187.5949"/>
<polygon fill="#191970" stroke="#191970" points="3002.701,-220.124 2994.0311,-226.2134 3004.6062,-226.8597 3002.701,-220.124"/>
</g>
<!-- Node126 -->
<g id="node41" class="node">
<title>Node126</title>
<g id="a_node41"><a xlink:href="misc_8cpp.html" target="_top" xlink:title="src/rpc/misc.cpp">
<polygon fill="#ffffff" stroke="#000000" points="3231,-168.5 3231,-187.5 3320,-187.5 3320,-168.5 3231,-168.5"/>
<text text-anchor="middle" x="3275.5" y="-175.5" font-family="Helvetica,sans-Serif" font-size="10.00" fill="#000000">src/rpc/misc.cpp</text>
</a>
</g>
</g>
<!-- Node86&#45;&gt;Node126 -->
<g id="edge55" class="edge">
<title>Node86&#45;&gt;Node126</title>
<path fill="none" stroke="#191970" d="M3004.1852,-227.3341C3054.1263,-218.4762 3144.9693,-202.2796 3222.5,-188 3225.2627,-187.4912 3228.1057,-186.9643 3230.9722,-186.4305"/>
<polygon fill="#191970" stroke="#191970" points="3003.4043,-223.9179 2994.1687,-229.1096 3004.6261,-230.8105 3003.4043,-223.9179"/>
</g>
<!-- Node127 -->
<g id="node42" class="node">
<title>Node127</title>
<g id="a_node42"><a xlink:href="rawtransaction_8cpp.html" target="_top" xlink:title="src/rpc/rawtransaction.cpp">
<polygon fill="#ffffff" stroke="#000000" points="3338.5,-168.5 3338.5,-187.5 3470.5,-187.5 3470.5,-168.5 3338.5,-168.5"/>
<text text-anchor="middle" x="3404.5" y="-175.5" font-family="Helvetica,sans-Serif" font-size="10.00" fill="#000000">src/rpc/rawtransaction.cpp</text>
</a>
</g>
</g>
<!-- Node86&#45;&gt;Node127 -->
<g id="edge57" class="edge">
<title>Node86&#45;&gt;Node127</title>
<path fill="none" stroke="#191970" d="M3004.2196,-229.3021C3070.1892,-221.0674 3210.8057,-203.4334 3329.5,-188 3332.3658,-187.6274 3335.293,-187.2449 3338.2497,-186.8571"/>
<polygon fill="#191970" stroke="#191970" points="3003.7773,-225.8301 2994.2876,-230.5412 3004.644,-232.7762 3003.7773,-225.8301"/>
</g>
<!-- Node128 -->
<g id="node43" class="node">
<title>Node128</title>
<g id="a_node43"><a xlink:href="torcontrol_8cpp.html" target="_top" xlink:title="src/torcontrol.cpp">
<polygon fill="#ffffff" stroke="#000000" points="3488.5,-168.5 3488.5,-187.5 3580.5,-187.5 3580.5,-168.5 3488.5,-168.5"/>
<text text-anchor="middle" x="3534.5" y="-175.5" font-family="Helvetica,sans-Serif" font-size="10.00" fill="#000000">src/torcontrol.cpp</text>
</a>
</g>
</g>
<!-- Node86&#45;&gt;Node128 -->
<g id="edge58" class="edge">
<title>Node86&#45;&gt;Node128</title>
<path fill="none" stroke="#191970" d="M3004.335,-231.7828C3089.4775,-226.5365 3302.5372,-211.9716 3479.5,-188 3482.3852,-187.6092 3485.3495,-187.1726 3488.3347,-186.7064"/>
<polygon fill="#191970" stroke="#191970" points="3003.8938,-228.3031 2994.1252,-232.4049 3004.3195,-235.2902 3003.8938,-228.3031"/>
</g>
<!-- Node129 -->
<g id="node44" class="node">
<title>Node129</title>
<g id="a_node44"><a xlink:href="feebumper_8cpp.html" target="_top" xlink:title="src/wallet/feebumper.cpp">
<polygon fill="#ffffff" stroke="#000000" points="3598.5,-168.5 3598.5,-187.5 3724.5,-187.5 3724.5,-168.5 3598.5,-168.5"/>
<text text-anchor="middle" x="3661.5" y="-175.5" font-family="Helvetica,sans-Serif" font-size="10.00" fill="#000000">src/wallet/feebumper.cpp</text>
</a>
</g>
</g>
<!-- Node86&#45;&gt;Node129 -->
<g id="edge59" class="edge">
<title>Node86&#45;&gt;Node129</title>
<path fill="none" stroke="#191970" d="M3004.4125,-232.0521C3101.7486,-226.8665 3368.3458,-211.498 3589.5,-188 3592.3864,-187.6933 3595.3352,-187.361 3598.3121,-187.0102"/>
<polygon fill="#191970" stroke="#191970" points="3003.9922,-228.5694 2994.1908,-232.5923 3004.3616,-235.5596 3003.9922,-228.5694"/>
</g>
<!-- Node130 -->
<g id="node45" class="node">
<title>Node130</title>
<g id="a_node45"><a xlink:href="wallet_2init_8cpp.html" target="_top" xlink:title="src/wallet/init.cpp">
<polygon fill="#ffffff" stroke="#000000" points="3743,-168.5 3743,-187.5 3836,-187.5 3836,-168.5 3743,-168.5"/>
<text text-anchor="middle" x="3789.5" y="-175.5" font-family="Helvetica,sans-Serif" font-size="10.00" fill="#000000">src/wallet/init.cpp</text>
</a>
</g>
</g>
<!-- Node86&#45;&gt;Node130 -->
<g id="edge60" class="edge">
<title>Node86&#45;&gt;Node130</title>
<path fill="none" stroke="#191970" d="M3004.2115,-233.2968C3115.9215,-230.8794 3454.7097,-221.1372 3733.5,-188 3736.5402,-187.6386 3739.6652,-187.2182 3742.81,-186.7582"/>
<polygon fill="#191970" stroke="#191970" points="3004.0437,-229.7994 2994.1193,-233.5084 3004.1906,-236.7979 3004.0437,-229.7994"/>
</g>
<!-- Node131 -->
<g id="node46" class="node">
<title>Node131</title>
<g id="a_node46"><a xlink:href="rpcwallet_8cpp.html" target="_top" xlink:title="src/wallet/rpcwallet.cpp">
<polygon fill="#ffffff" stroke="#000000" points="3854,-168.5 3854,-187.5 3973,-187.5 3973,-168.5 3854,-168.5"/>
<text text-anchor="middle" x="3913.5" y="-175.5" font-family="Helvetica,sans-Serif" font-size="10.00" fill="#000000">src/wallet/rpcwallet.cpp</text>
</a>
</g>
</g>
<!-- Node86&#45;&gt;Node131 -->
<g id="edge61" class="edge">
<title>Node86&#45;&gt;Node131</title>
<path fill="none" stroke="#191970" d="M3004.6145,-233.2809C3127.0288,-230.6989 3521.1324,-220.2663 3845.5,-188 3848.231,-187.7283 3851.0202,-187.4248 3853.835,-187.0972"/>
<polygon fill="#191970" stroke="#191970" points="3004.2083,-229.7885 2994.2825,-233.4937 3004.3525,-236.787 3004.2083,-229.7885"/>
</g>
<!-- Node132 -->
<g id="node47" class="node">
<title>Node132</title>
<g id="a_node47"><a xlink:href="wallet_2wallet_8cpp.html" target="_top" xlink:title="src/wallet/wallet.cpp">
<polygon fill="#ffffff" stroke="#000000" points="3991.5,-168.5 3991.5,-187.5 4097.5,-187.5 4097.5,-168.5 3991.5,-168.5"/>
<text text-anchor="middle" x="4044.5" y="-175.5" font-family="Helvetica,sans-Serif" font-size="10.00" fill="#000000">src/wallet/wallet.cpp</text>
</a>
</g>
</g>
<!-- Node86&#45;&gt;Node132 -->
<g id="edge62" class="edge">
<title>Node86&#45;&gt;Node132</title>
<path fill="none" stroke="#191970" d="M3004.3398,-232.8691C3164.4833,-227.9934 3787.1954,-208.1047 3982.5,-188 3985.4283,-187.6986 3988.4286,-187.3495 3991.4532,-186.9661"/>
<polygon fill="#191970" stroke="#191970" points="3003.9337,-229.3798 2994.0444,-233.1813 3004.1459,-236.3765 3003.9337,-229.3798"/>
</g>
<!-- Node89&#45;&gt;Node88 -->
<g id="edge4" class="edge">
<title>Node89&#45;&gt;Node88</title>
<path fill="none" stroke="#191970" d="M1734.0265,-119.9605C1869.9366,-115.2954 2195.5554,-102.1737 2467.5,-76 2472.1456,-75.5529 2476.948,-75.0338 2481.7712,-74.4717"/>
<polygon fill="#191970" stroke="#191970" points="1733.6702,-116.4705 1723.7948,-120.308 1733.9079,-123.4665 1733.6702,-116.4705"/>
</g>
<!-- Node90 -->
<g id="node5" class="node">
<title>Node90</title>
<g id="a_node5"><a xlink:href="addresstablemodel_8cpp.html" target="_top" xlink:title="src/qt/addresstablemodel.cpp">
<polygon fill="#ffffff" stroke="#000000" points="1670,-56.5 1670,-75.5 1815,-75.5 1815,-56.5 1670,-56.5"/>
<text text-anchor="middle" x="1742.5" y="-63.5" font-family="Helvetica,sans-Serif" font-size="10.00" fill="#000000">src/qt/addresstablemodel.cpp</text>
</a>
</g>
</g>
<!-- Node89&#45;&gt;Node90 -->
<g id="edge5" class="edge">
<title>Node89&#45;&gt;Node90</title>
<path fill="none" stroke="#191970" d="M1690.451,-105.928C1703.2107,-96.1397 1719.0885,-83.9595 1729.9301,-75.6427"/>
<polygon fill="#191970" stroke="#191970" points="1688.0196,-103.3819 1682.2156,-112.2455 1692.2803,-108.9359 1688.0196,-103.3819"/>
</g>
<!-- Node91 -->
<g id="node6" class="node">
<title>Node91</title>
<g id="a_node6"><a xlink:href="bantablemodel_8cpp.html" target="_top" xlink:title="src/qt/bantablemodel.cpp">
<polygon fill="#ffffff" stroke="#000000" points="3056.5,-56.5 3056.5,-75.5 3182.5,-75.5 3182.5,-56.5 3056.5,-56.5"/>
<text text-anchor="middle" x="3119.5" y="-63.5" font-family="Helvetica,sans-Serif" font-size="10.00" fill="#000000">src/qt/bantablemodel.cpp</text>
</a>
</g>
</g>
<!-- Node89&#45;&gt;Node91 -->
<g id="edge6" class="edge">
<title>Node89&#45;&gt;Node91</title>
<path fill="none" stroke="#191970" d="M1733.9602,-120.7449C1970.0666,-116.0078 2787.387,-98.3432 3047.5,-76 3050.3919,-75.7516 3053.3454,-75.4671 3056.326,-75.155"/>
<polygon fill="#191970" stroke="#191970" points="1733.7473,-117.2483 1723.8193,-120.9476 1733.8872,-124.2469 1733.7473,-117.2483"/>
</g>
<!-- Node92 -->
<g id="node7" class="node">
<title>Node92</title>
<g id="a_node7"><a xlink:href="bitcoin_8cpp.html" target="_top" xlink:title="src/qt/bitcoin.cpp">
<polygon fill="#ffffff" stroke="#000000" points="1833.5,-56.5 1833.5,-75.5 1925.5,-75.5 1925.5,-56.5 1833.5,-56.5"/>
<text text-anchor="middle" x="1879.5" y="-63.5" font-family="Helvetica,sans-Serif" font-size="10.00" fill="#000000">src/qt/bitcoin.cpp</text>
</a>
</g>
</g>
<!-- Node89&#45;&gt;Node92 -->
<g id="edge7" class="edge">
<title>Node89&#45;&gt;Node92</title>
<path fill="none" stroke="#191970" d="M1715.5504,-109.7199C1754.1645,-99.4228 1808.5139,-84.9296 1843.8708,-75.5011"/>
<polygon fill="#191970" stroke="#191970" points="1714.3608,-106.4147 1705.6003,-112.3733 1716.1645,-113.1784 1714.3608,-106.4147"/>
</g>
<!-- Node93 -->
<g id="node8" class="node">
<title>Node93</title>
<g id="a_node8"><a xlink:href="bitcoingui_8cpp.html" target="_top" xlink:title="src/qt/bitcoingui.cpp">
<polygon fill="#ffffff" stroke="#000000" points="1435.5,-.5 1435.5,-19.5 1539.5,-19.5 1539.5,-.5 1435.5,-.5"/>
<text text-anchor="middle" x="1487.5" y="-7.5" font-family="Helvetica,sans-Serif" font-size="10.00" fill="#000000">src/qt/bitcoingui.cpp</text>
</a>
</g>
</g>
<!-- Node89&#45;&gt;Node93 -->
<g id="edge8" class="edge">
<title>Node89&#45;&gt;Node93</title>
<path fill="none" stroke="#191970" d="M1605.0242,-121.0188C1338.6989,-116.816 337.1889,-99.4723 314.5,-76 308.3222,-69.6089 308.339,-62.4074 314.5,-56 334.1989,-35.5134 1210.635,-15.7942 1435.4104,-11.0674"/>
<polygon fill="#191970" stroke="#191970" points="1605.2468,-124.5227 1615.3006,-121.1802 1605.3568,-117.5235 1605.2468,-124.5227"/>
</g>
<!-- Node89&#45;&gt;Node94 -->
<g id="edge9" class="edge">
<title>Node89&#45;&gt;Node94</title>
<path fill="none" stroke="#191970" d="M1733.8925,-121.0862C1985.3921,-117.357 2901.7941,-102.2297 3191.5,-76 3194.5009,-75.7283 3197.573,-75.4086 3200.6709,-75.0536"/>
<polygon fill="#191970" stroke="#191970" points="1733.7681,-117.5876 1723.8208,-121.2347 1733.8713,-124.5868 1733.7681,-117.5876"/>
</g>
<!-- Node95 -->
<g id="node10" class="node">
<title>Node95</title>
<g id="a_node10"><a xlink:href="coincontroldialog_8cpp.html" target="_top" xlink:title="src/qt/coincontroldialog.cpp">
<polygon fill="#ffffff" stroke="#000000" points="1943.5,-56.5 1943.5,-75.5 2079.5,-75.5 2079.5,-56.5 1943.5,-56.5"/>
<text text-anchor="middle" x="2011.5" y="-63.5" font-family="Helvetica,sans-Serif" font-size="10.00" fill="#000000">src/qt/coincontroldialog.cpp</text>
</a>
</g>
</g>
<!-- Node89&#45;&gt;Node95 -->
<g id="edge10" class="edge">
<title>Node89&#45;&gt;Node95</title>
<path fill="none" stroke="#191970" d="M1733.9211,-111.4515C1797.0383,-101.1165 1892.373,-85.5062 1953.2717,-75.5345"/>
<polygon fill="#191970" stroke="#191970" points="1732.9939,-108.0566 1723.6909,-113.1266 1734.1251,-114.9646 1732.9939,-108.0566"/>
</g>
<!-- Node96 -->
<g id="node11" class="node">
<title>Node96</title>
<g id="a_node11"><a xlink:href="guiutil_8cpp.html" target="_top" xlink:title="src/qt/guiutil.cpp">
<polygon fill="#ffffff" stroke="#000000" points="2098,-56.5 2098,-75.5 2187,-75.5 2187,-56.5 2098,-56.5"/>
<text text-anchor="middle" x="2142.5" y="-63.5" font-family="Helvetica,sans-Serif" font-size="10.00" fill="#000000">src/qt/guiutil.cpp</text>
</a>
</g>
</g>
<!-- Node89&#45;&gt;Node96 -->
<g id="edge11" class="edge">
<title>Node89&#45;&gt;Node96</title>
<path fill="none" stroke="#191970" d="M1733.7794,-116.4279C1816.1775,-108.945 1963.3531,-94.4317 2088.5,-76 2091.5184,-75.5554 2094.626,-75.0658 2097.7533,-74.5492"/>
<polygon fill="#191970" stroke="#191970" points="1733.2141,-112.9646 1723.5692,-117.3493 1733.8433,-119.9363 1733.2141,-112.9646"/>
</g>
<!-- Node97 -->
<g id="node12" class="node">
<title>Node97</title>
<g id="a_node12"><a xlink:href="intro_8cpp.html" target="_top" xlink:title="src/qt/intro.cpp">
<polygon fill="#ffffff" stroke="#000000" points="2205.5,-56.5 2205.5,-75.5 2287.5,-75.5 2287.5,-56.5 2205.5,-56.5"/>
<text text-anchor="middle" x="2246.5" y="-63.5" font-family="Helvetica,sans-Serif" font-size="10.00" fill="#000000">src/qt/intro.cpp</text>
</a>
</g>
</g>
<!-- Node89&#45;&gt;Node97 -->
<g id="edge12" class="edge">
<title>Node89&#45;&gt;Node97</title>
<path fill="none" stroke="#191970" d="M1734.0452,-118.5731C1833.4965,-112.7937 2030.0355,-99.3895 2195.5,-76 2198.7162,-75.5454 2202.0364,-75.0208 2205.3678,-74.4551"/>
<polygon fill="#191970" stroke="#191970" points="1733.64,-115.0906 1723.8572,-119.1582 1734.0414,-122.079 1733.64,-115.0906"/>
</g>
<!-- Node98 -->
<g id="node13" class="node">
<title>Node98</title>
<g id="a_node13"><a xlink:href="optionsdialog_8cpp.html" target="_top" xlink:title="src/qt/optionsdialog.cpp">
<polygon fill="#ffffff" stroke="#000000" points="2305.5,-56.5 2305.5,-75.5 2425.5,-75.5 2425.5,-56.5 2305.5,-56.5"/>
<text text-anchor="middle" x="2365.5" y="-63.5" font-family="Helvetica,sans-Serif" font-size="10.00" fill="#000000">src/qt/optionsdialog.cpp</text>
</a>
</g>
</g>
<!-- Node89&#45;&gt;Node98 -->
<g id="edge13" class="edge">
<title>Node89&#45;&gt;Node98</title>
<path fill="none" stroke="#191970" d="M1733.9849,-118.7764C1847.7816,-112.7517 2091.5857,-98.3374 2296.5,-76 2299.3879,-75.6852 2302.3408,-75.3415 2305.3211,-74.9772"/>
<polygon fill="#191970" stroke="#191970" points="1733.515,-115.2962 1723.7124,-119.3162 1733.8823,-122.2866 1733.515,-115.2962"/>
</g>
<!-- Node89&#45;&gt;Node99 -->
<g id="edge14" class="edge">
<title>Node89&#45;&gt;Node99</title>
<path fill="none" stroke="#191970" d="M1605.247,-121.0405C1352.1878,-117.1125 423.8811,-101.2603 130.5,-76 127.4423,-75.7367 124.3142,-75.4295 121.1586,-75.0894"/>
<polygon fill="#191970" stroke="#191970" points="1605.3247,-124.542 1615.3776,-121.197 1605.4329,-117.5429 1605.3247,-124.542"/>
</g>
<!-- Node100 -->
<g id="node15" class="node">
<title>Node100</title>
<g id="a_node15"><a xlink:href="paymentserver_8cpp.html" target="_top" xlink:title="src/qt/paymentserver.cpp">
<polygon fill="#ffffff" stroke="#000000" points="139.5,-56.5 139.5,-75.5 267.5,-75.5 267.5,-56.5 139.5,-56.5"/>
<text text-anchor="middle" x="203.5" y="-63.5" font-family="Helvetica,sans-Serif" font-size="10.00" fill="#000000">src/qt/paymentserver.cpp</text>
</a>
</g>
</g>
<!-- Node89&#45;&gt;Node100 -->
<g id="edge15" class="edge">
<title>Node89&#45;&gt;Node100</title>
<path fill="none" stroke="#191970" d="M1604.9818,-120.6717C1367.716,-115.6605 543.7635,-97.1102 281.5,-76 277.0092,-75.6385 272.3801,-75.2041 267.7229,-74.7215"/>
<polygon fill="#191970" stroke="#191970" points="1605.0993,-124.1748 1615.1708,-120.8862 1605.2467,-117.1764 1605.0993,-124.1748"/>
</g>
<!-- Node101 -->
<g id="node16" class="node">
<title>Node101</title>
<g id="a_node16"><a xlink:href="peertablemodel_8cpp.html" target="_top" xlink:title="src/qt/peertablemodel.cpp">
<polygon fill="#ffffff" stroke="#000000" points="2619,-56.5 2619,-75.5 2748,-75.5 2748,-56.5 2619,-56.5"/>
<text text-anchor="middle" x="2683.5" y="-63.5" font-family="Helvetica,sans-Serif" font-size="10.00" fill="#000000">src/qt/peertablemodel.cpp</text>
</a>
</g>
</g>
<!-- Node89&#45;&gt;Node101 -->
<g id="edge16" class="edge">
<title>Node89&#45;&gt;Node101</title>
<path fill="none" stroke="#191970" d="M1733.7712,-120.7466C1886.1235,-117.3629 2281.0615,-106.1725 2609.5,-76 2612.5983,-75.7154 2615.7661,-75.3962 2618.9631,-75.0515"/>
<polygon fill="#191970" stroke="#191970" points="1733.5785,-117.2499 1723.6574,-120.9676 1733.7315,-124.2482 1733.5785,-117.2499"/>
</g>
<!-- Node102 -->
<g id="node17" class="node">
<title>Node102</title>
<g id="a_node17"><a xlink:href="rpcconsole_8cpp.html" target="_top" xlink:title="src/qt/rpcconsole.cpp">
<polygon fill="#ffffff" stroke="#000000" points="2831.5,-.5 2831.5,-19.5 2941.5,-19.5 2941.5,-.5 2831.5,-.5"/>
<text text-anchor="middle" x="2886.5" y="-7.5" font-family="Helvetica,sans-Serif" font-size="10.00" fill="#000000">src/qt/rpcconsole.cpp</text>
</a>
</g>
</g>
<!-- Node89&#45;&gt;Node102 -->
<g id="edge17" class="edge">
<title>Node89&#45;&gt;Node102</title>
<path fill="none" stroke="#191970" d="M1733.7046,-121.6089C1893.0828,-120.0832 2303.3808,-112.6087 2434.5,-76 2452.8822,-70.8677 2454.2308,-61.5212 2472.5,-56 2622.1897,-10.7616 2667.418,-40.0774 2822.5,-20 2825.3997,-19.6246 2828.3706,-19.2223 2831.3683,-18.8024"/>
<polygon fill="#191970" stroke="#191970" points="1733.5429,-118.1101 1723.5752,-121.701 1733.6066,-125.1098 1733.5429,-118.1101"/>
</g>
<!-- Node103 -->
<g id="node18" class="node">
<title>Node103</title>
<g id="a_node18"><a xlink:href="sendcoinsdialog_8cpp.html" target="_top" xlink:title="src/qt/sendcoinsdialog.cpp">
<polygon fill="#ffffff" stroke="#000000" points="324,-56.5 324,-75.5 457,-75.5 457,-56.5 324,-56.5"/>
<text text-anchor="middle" x="390.5" y="-63.5" font-family="Helvetica,sans-Serif" font-size="10.00" fill="#000000">src/qt/sendcoinsdialog.cpp</text>
</a>
</g>
</g>
<!-- Node89&#45;&gt;Node103 -->
<g id="edge18" class="edge">
<title>Node89&#45;&gt;Node103</title>
<path fill="none" stroke="#191970" d="M1605.2906,-121.6766C1425.1788,-120.3104 899.9554,-113.1796 465.5,-76 462.7515,-75.7648 459.9492,-75.5009 457.1205,-75.2146"/>
<polygon fill="#191970" stroke="#191970" points="1605.3614,-125.1771 1615.3865,-121.7499 1605.4122,-118.1773 1605.3614,-125.1771"/>
</g>
<!-- Node104 -->
<g id="node19" class="node">
<title>Node104</title>
<g id="a_node19"><a xlink:href="splashscreen_8cpp.html" target="_top" xlink:title="src/qt/splashscreen.cpp">
<polygon fill="#ffffff" stroke="#000000" points="475,-56.5 475,-75.5 596,-75.5 596,-56.5 475,-56.5"/>
<text text-anchor="middle" x="535.5" y="-63.5" font-family="Helvetica,sans-Serif" font-size="10.00" fill="#000000">src/qt/splashscreen.cpp</text>
</a>
</g>
</g>
<!-- Node89&#45;&gt;Node104 -->
<g id="edge19" class="edge">
<title>Node89&#45;&gt;Node104</title>
<path fill="none" stroke="#191970" d="M1605.369,-121.4306C1439.6141,-119.4816 983.5123,-111.0859 605.5,-76 602.4441,-75.7164 599.3175,-75.3928 596.1631,-75.0397"/>
<polygon fill="#191970" stroke="#191970" points="1605.3559,-124.9306 1615.3951,-121.5448 1605.4356,-117.9311 1605.3559,-124.9306"/>
</g>
<!-- Node105 -->
<g id="node20" class="node">
<title>Node105</title>
<g id="a_node20"><a xlink:href="trafficgraphwidget_8cpp.html" target="_top" xlink:title="src/qt/trafficgraphwidget.cpp">
<polygon fill="#ffffff" stroke="#000000" points="614.5,-56.5 614.5,-75.5 754.5,-75.5 754.5,-56.5 614.5,-56.5"/>
<text text-anchor="middle" x="684.5" y="-63.5" font-family="Helvetica,sans-Serif" font-size="10.00" fill="#000000">src/qt/trafficgraphwidget.cpp</text>
</a>
</g>
</g>
<!-- Node89&#45;&gt;Node105 -->
<g id="edge20" class="edge">
<title>Node89&#45;&gt;Node105</title>
<path fill="none" stroke="#191970" d="M1604.9755,-120.3899C1456.3232,-116.3165 1078.3332,-103.8789 763.5,-76 760.6081,-75.7439 757.6591,-75.4626 754.6818,-75.1618"/>
<polygon fill="#191970" stroke="#191970" points="1605.187,-123.8968 1615.2781,-120.6689 1605.3765,-116.8994 1605.187,-123.8968"/>
</g>
<!-- Node106 -->
<g id="node21" class="node">
<title>Node106</title>
<g id="a_node21"><a xlink:href="transactiondesc_8cpp.html" target="_top" xlink:title="src/qt/transactiondesc.cpp">
<polygon fill="#ffffff" stroke="#000000" points="772.5,-56.5 772.5,-75.5 904.5,-75.5 904.5,-56.5 772.5,-56.5"/>
<text text-anchor="middle" x="838.5" y="-63.5" font-family="Helvetica,sans-Serif" font-size="10.00" fill="#000000">src/qt/transactiondesc.cpp</text>
</a>
</g>
</g>
<!-- Node89&#45;&gt;Node106 -->
<g id="edge21" class="edge">
<title>Node89&#45;&gt;Node106</title>
<path fill="none" stroke="#191970" d="M1605.0842,-119.6413C1474.4359,-114.5132 1168.9932,-100.7736 913.5,-76 910.6236,-75.7211 907.6876,-75.4163 904.7236,-75.092"/>
<polygon fill="#191970" stroke="#191970" points="1605.181,-123.1477 1615.3096,-120.0391 1605.4532,-116.1529 1605.181,-123.1477"/>
</g>
<!-- Node107 -->
<g id="node22" class="node">
<title>Node107</title>
<g id="a_node22"><a xlink:href="transactiontablemodel_8cpp.html" target="_top" xlink:title="src/qt/transactiontablemodel.cpp">
<polygon fill="#ffffff" stroke="#000000" points="922.5,-56.5 922.5,-75.5 1080.5,-75.5 1080.5,-56.5 922.5,-56.5"/>
<text text-anchor="middle" x="1001.5" y="-63.5" font-family="Helvetica,sans-Serif" font-size="10.00" fill="#000000">src/qt/transactiontablemodel.cpp</text>
</a>
</g>
</g>
<!-- Node89&#45;&gt;Node107 -->
<g id="edge22" class="edge">
<title>Node89&#45;&gt;Node107</title>
<path fill="none" stroke="#191970" d="M1605.4845,-117.6376C1498.5269,-110.1887 1276.7555,-94.0599 1089.5,-76 1086.592,-75.7195 1083.631,-75.4256 1080.6407,-75.1218"/>
<polygon fill="#191970" stroke="#191970" points="1605.2533,-121.1299 1615.4718,-118.3312 1605.7383,-114.1467 1605.2533,-121.1299"/>
</g>
<!-- Node108 -->
<g id="node23" class="node">
<title>Node108</title>
<g id="a_node23"><a xlink:href="utilitydialog_8cpp.html" target="_top" xlink:title="src/qt/utilitydialog.cpp">
<polygon fill="#ffffff" stroke="#000000" points="1098.5,-56.5 1098.5,-75.5 1210.5,-75.5 1210.5,-56.5 1098.5,-56.5"/>
<text text-anchor="middle" x="1154.5" y="-63.5" font-family="Helvetica,sans-Serif" font-size="10.00" fill="#000000">src/qt/utilitydialog.cpp</text>
</a>
</g>
</g>
<!-- Node89&#45;&gt;Node108 -->
<g id="edge23" class="edge">
<title>Node89&#45;&gt;Node108</title>
<path fill="none" stroke="#191970" d="M1605.3407,-116.4743C1517.9376,-108.7111 1356.6224,-93.5449 1219.5,-76 1216.6687,-75.6377 1213.7705,-75.2509 1210.8455,-74.8476"/>
<polygon fill="#191970" stroke="#191970" points="1605.0993,-119.9665 1615.3688,-117.3613 1605.7161,-112.9937 1605.0993,-119.9665"/>
</g>
<!-- Node109 -->
<g id="node24" class="node">
<title>Node109</title>
<g id="a_node24"><a xlink:href="walletmodel_8cpp.html" target="_top" xlink:title="src/qt/walletmodel.cpp">
<polygon fill="#ffffff" stroke="#000000" points="1229,-56.5 1229,-75.5 1344,-75.5 1344,-56.5 1229,-56.5"/>
<text text-anchor="middle" x="1286.5" y="-63.5" font-family="Helvetica,sans-Serif" font-size="10.00" fill="#000000">src/qt/walletmodel.cpp</text>
</a>
</g>
</g>
<!-- Node89&#45;&gt;Node109 -->
<g id="edge24" class="edge">
<title>Node89&#45;&gt;Node109</title>
<path fill="none" stroke="#191970" d="M1605.4058,-112.8195C1541.3615,-103.6177 1440.0923,-88.9909 1352.5,-76 1349.7487,-75.592 1346.9332,-75.1725 1344.0897,-74.7474"/>
<polygon fill="#191970" stroke="#191970" points="1604.9611,-116.2914 1615.3571,-114.2486 1605.9563,-109.3625 1604.9611,-116.2914"/>
</g>
<!-- Node110 -->
<g id="node25" class="node">
<title>Node110</title>
<g id="a_node25"><a xlink:href="walletmodeltransaction_8cpp.html" target="_top" xlink:title="src/qt/walletmodeltransaction.cpp">
<polygon fill="#ffffff" stroke="#000000" points="1362,-56.5 1362,-75.5 1525,-75.5 1525,-56.5 1362,-56.5"/>
<text text-anchor="middle" x="1443.5" y="-63.5" font-family="Helvetica,sans-Serif" font-size="10.00" fill="#000000">src/qt/walletmodeltransaction.cpp</text>
</a>
</g>
</g>
<!-- Node89&#45;&gt;Node110 -->
<g id="edge25" class="edge">
<title>Node89&#45;&gt;Node110</title>
<path fill="none" stroke="#191970" d="M1620.9988,-109.982C1579.4153,-99.6781 1520.312,-85.0331 1481.9348,-75.5237"/>
<polygon fill="#191970" stroke="#191970" points="1620.3577,-113.4289 1630.906,-112.4369 1622.0414,-106.6344 1620.3577,-113.4289"/>
</g>
<!-- Node111 -->
<g id="node26" class="node">
<title>Node111</title>
<g id="a_node26"><a xlink:href="walletview_8cpp.html" target="_top" xlink:title="src/qt/walletview.cpp">
<polygon fill="#ffffff" stroke="#000000" points="1543,-56.5 1543,-75.5 1652,-75.5 1652,-56.5 1543,-56.5"/>
<text text-anchor="middle" x="1597.5" y="-63.5" font-family="Helvetica,sans-Serif" font-size="10.00" fill="#000000">src/qt/walletview.cpp</text>
</a>
</g>
</g>
<!-- Node89&#45;&gt;Node111 -->
<g id="edge26" class="edge">
<title>Node89&#45;&gt;Node111</title>
<path fill="none" stroke="#191970" d="M1648.836,-105.928C1636.2511,-96.1397 1620.5908,-83.9595 1609.8977,-75.6427"/>
<polygon fill="#191970" stroke="#191970" points="1646.9162,-108.8688 1656.9586,-112.2455 1651.2138,-103.3434 1646.9162,-108.8688"/>
</g>
<!-- Node115&#45;&gt;Node87 -->
<g id="edge31" class="edge">
<title>Node115&#45;&gt;Node87</title>
<path fill="none" stroke="#191970" d="M2725.8093,-166.6772C2659.6815,-154.9212 2558.8424,-136.9942 2507.3104,-127.833"/>
<polygon fill="#191970" stroke="#191970" points="2725.2492,-170.1324 2735.7075,-168.4369 2726.4745,-163.2405 2725.2492,-170.1324"/>
</g>
<!-- Node115&#45;&gt;Node88 -->
<g id="edge32" class="edge">
<title>Node115&#45;&gt;Node88</title>
<path fill="none" stroke="#191970" d="M2775.378,-160.723C2762.1825,-145.693 2741.1604,-124.4263 2718.5,-112 2696.368,-99.8635 2633.449,-85.058 2588.9457,-75.5806"/>
<polygon fill="#191970" stroke="#191970" points="2772.7146,-162.9939 2781.8643,-168.3357 2778.0428,-158.454 2772.7146,-162.9939"/>
</g>
<!-- Node116 -->
<g id="node31" class="node">
<title>Node116</title>
<g id="a_node31"><a xlink:href="net__processing_8cpp.html" target="_top" xlink:title="src/net_processing.cpp">
<polygon fill="#ffffff" stroke="#000000" points="2765.5,-112.5 2765.5,-131.5 2883.5,-131.5 2883.5,-112.5 2765.5,-112.5"/>
<text text-anchor="middle" x="2824.5" y="-119.5" font-family="Helvetica,sans-Serif" font-size="10.00" fill="#000000">src/net_processing.cpp</text>
</a>
</g>
</g>
<!-- Node115&#45;&gt;Node116 -->
<g id="edge33" class="edge">
<title>Node115&#45;&gt;Node116</title>
<path fill="none" stroke="#191970" d="M2800.9815,-159.6296C2806.8196,-150.2887 2813.6752,-139.3197 2818.4733,-131.6427"/>
<polygon fill="#191970" stroke="#191970" points="2797.9286,-157.9105 2795.5965,-168.2455 2803.8646,-161.6206 2797.9286,-157.9105"/>
</g>
<!-- Node115&#45;&gt;Node117 -->
<g id="edge34" class="edge">
<title>Node115&#45;&gt;Node117</title>
<path fill="none" stroke="#191970" d="M2828.8435,-165.1905C2860.3551,-154.9309 2903.8519,-140.7691 2932.318,-131.5011"/>
<polygon fill="#191970" stroke="#191970" points="2827.493,-161.9493 2819.0679,-168.3733 2829.6601,-168.6054 2827.493,-161.9493"/>
</g>
<!-- Node115&#45;&gt;Node121 -->
<g id="edge42" class="edge">
<title>Node115&#45;&gt;Node121</title>
<path fill="none" stroke="#191970" d="M2759.4896,-164.1109C2737.5475,-153.9559 2708.3612,-140.4482 2689.0292,-131.5011"/>
<polygon fill="#191970" stroke="#191970" points="2758.1541,-167.3494 2768.6994,-168.3733 2761.0942,-160.9968 2758.1541,-167.3494"/>
</g>
<!-- Node117&#45;&gt;Node94 -->
<g id="edge35" class="edge">
<title>Node117&#45;&gt;Node94</title>
<path fill="none" stroke="#191970" d="M3021.9401,-110.5654C3076.5314,-100.2373 3155.9403,-85.214 3207.1606,-75.5237"/>
<polygon fill="#191970" stroke="#191970" points="3021.2229,-107.1389 3012.0479,-112.4369 3022.5242,-114.0169 3021.2229,-107.1389"/>
</g>
<!-- Node117&#45;&gt;Node101 -->
<g id="edge37" class="edge">
<title>Node117&#45;&gt;Node101</title>
<path fill="none" stroke="#191970" d="M2904.0959,-110.4366C2852.8453,-100.1127 2778.6842,-85.1738 2730.7782,-75.5237"/>
<polygon fill="#191970" stroke="#191970" points="2903.5317,-113.8932 2914.026,-112.4369 2904.9141,-107.031 2903.5317,-113.8932"/>
</g>
<!-- Node118 -->
<g id="node33" class="node">
<title>Node118</title>
<g id="a_node33"><a xlink:href="moc__peertablemodel_8cpp.html" target="_top" xlink:title="src/qt/moc_peertablemodel.cpp">
<polygon fill="#ffffff" stroke="#000000" points="2885,-56.5 2885,-75.5 3038,-75.5 3038,-56.5 2885,-56.5"/>
<text text-anchor="middle" x="2961.5" y="-63.5" font-family="Helvetica,sans-Serif" font-size="10.00" fill="#000000">src/qt/moc_peertablemodel.cpp</text>
</a>
</g>
</g>
<!-- Node117&#45;&gt;Node118 -->
<g id="edge36" class="edge">
<title>Node117&#45;&gt;Node118</title>
<path fill="none" stroke="#191970" d="M2961.5,-102.1575C2961.5,-93.155 2961.5,-82.9199 2961.5,-75.6427"/>
<polygon fill="#191970" stroke="#191970" points="2958.0001,-102.2455 2961.5,-112.2455 2965.0001,-102.2456 2958.0001,-102.2455"/>
</g>
<!-- Node117&#45;&gt;Node119 -->
<g id="edge38" class="edge">
<title>Node117&#45;&gt;Node119</title>
<path fill="none" stroke="#191970" d="M2926.9435,-108.6541C2900.5014,-98.4419 2864.6831,-84.6086 2841.1011,-75.5011"/>
<polygon fill="#191970" stroke="#191970" points="2925.9842,-112.0354 2936.5736,-112.3733 2928.5061,-105.5055 2925.9842,-112.0354"/>
</g>
<!-- Node119&#45;&gt;Node93 -->
<g id="edge39" class="edge">
<title>Node119&#45;&gt;Node93</title>
<path fill="none" stroke="#191970" d="M2756.8056,-56.031C2756.7037,-56.0206 2756.6018,-56.0103 2756.5,-56 2514.5399,-31.5541 1747.109,-15.0785 1539.6364,-10.992"/>
<polygon fill="#191970" stroke="#191970" points="2756.1344,-59.4762 2766.4745,-57.167 2756.9513,-52.524 2756.1344,-59.4762"/>
</g>
<!-- Node119&#45;&gt;Node102 -->
<g id="edge41" class="edge">
<title>Node119&#45;&gt;Node102</title>
<path fill="none" stroke="#191970" d="M2836.59,-49.928C2848.8253,-40.1397 2864.0507,-27.9595 2874.4467,-19.6427"/>
<polygon fill="#191970" stroke="#191970" points="2834.3153,-47.2655 2828.6931,-56.2455 2838.6882,-52.7316 2834.3153,-47.2655"/>
</g>
<!-- Node120 -->
<g id="node35" class="node">
<title>Node120</title>
<g id="a_node35"><a xlink:href="moc__rpcconsole_8cpp.html" target="_top" xlink:title="src/qt/moc_rpcconsole.cpp">
<polygon fill="#ffffff" stroke="#000000" points="2679.5,-.5 2679.5,-19.5 2813.5,-19.5 2813.5,-.5 2679.5,-.5"/>
<text text-anchor="middle" x="2746.5" y="-7.5" font-family="Helvetica,sans-Serif" font-size="10.00" fill="#000000">src/qt/moc_rpcconsole.cpp</text>
</a>
</g>
</g>
<!-- Node119&#45;&gt;Node120 -->
<g id="edge40" class="edge">
<title>Node119&#45;&gt;Node120</title>
<path fill="none" stroke="#191970" d="M2796.41,-49.928C2784.1747,-40.1397 2768.9493,-27.9595 2758.5533,-19.6427"/>
<polygon fill="#191970" stroke="#191970" points="2794.3118,-52.7316 2804.3069,-56.2455 2798.6847,-47.2655 2794.3118,-52.7316"/>
</g>
<!-- Node122&#45;&gt;Node116 -->
<g id="edge44" class="edge">
<title>Node122&#45;&gt;Node116</title>
<path fill="none" stroke="#191970" d="M2896.3314,-163.0465C2878.8942,-153.0824 2856.4889,-140.2794 2841.3747,-131.6427"/>
<polygon fill="#191970" stroke="#191970" points="2895.0108,-166.323 2905.4297,-168.2455 2898.4838,-160.2453 2895.0108,-166.323"/>
</g>
<!-- Node123&#45;&gt;Node91 -->
<g id="edge46" class="edge">
<title>Node123&#45;&gt;Node91</title>
<path fill="none" stroke="#191970" d="M3224.2787,-108.5189C3199.146,-98.3201 3165.2582,-84.5685 3142.9135,-75.5011"/>
<polygon fill="#191970" stroke="#191970" points="3223.1947,-111.8562 3233.777,-112.3733 3225.8269,-105.3699 3223.1947,-111.8562"/>
</g>
<!-- Node123&#45;&gt;Node94 -->
<g id="edge47" class="edge">
<title>Node123&#45;&gt;Node94</title>
<path fill="none" stroke="#191970" d="M3257.5,-102.1575C3257.5,-93.155 3257.5,-82.9199 3257.5,-75.6427"/>
<polygon fill="#191970" stroke="#191970" points="3254.0001,-102.2455 3257.5,-112.2455 3261.0001,-102.2456 3254.0001,-102.2455"/>
</g>
<!-- Node123&#45;&gt;Node102 -->
<g id="edge49" class="edge">
<title>Node123&#45;&gt;Node102</title>
<path fill="none" stroke="#191970" d="M3288.3982,-107.8229C3312.8187,-94.7387 3340.228,-74.5813 3323.5,-56 3298.3939,-28.1124 3053.7531,-15.92 2941.856,-11.7701"/>
<polygon fill="#191970" stroke="#191970" points="3286.6005,-104.8109 3279.2834,-112.4732 3289.7817,-111.0462 3286.6005,-104.8109"/>
</g>
<!-- Node124 -->
<g id="node39" class="node">
<title>Node124</title>
<g id="a_node39"><a xlink:href="moc__bantablemodel_8cpp.html" target="_top" xlink:title="src/qt/moc_bantablemodel.cpp">
<polygon fill="#ffffff" stroke="#000000" points="3370.5,-56.5 3370.5,-75.5 3520.5,-75.5 3520.5,-56.5 3370.5,-56.5"/>
<text text-anchor="middle" x="3445.5" y="-63.5" font-family="Helvetica,sans-Serif" font-size="10.00" fill="#000000">src/qt/moc_bantablemodel.cpp</text>
</a>
</g>
</g>
<!-- Node123&#45;&gt;Node124 -->
<g id="edge48" class="edge">
<title>Node123&#45;&gt;Node124</title>
<path fill="none" stroke="#191970" d="M3299.6117,-109.4561C3334.1218,-99.1765 3382.2199,-84.8494 3413.6034,-75.5011"/>
<polygon fill="#191970" stroke="#191970" points="3298.403,-106.1641 3289.8184,-112.3733 3300.4014,-112.8728 3298.403,-106.1641"/>
</g>
</g>
</svg>
