<?xml version="1.0" encoding="UTF-8" standalone="no"?>
<!DOCTYPE svg PUBLIC "-//W3C//DTD SVG 1.1//EN"
 "http://www.w3.org/Graphics/SVG/1.1/DTD/svg11.dtd">
<!-- Generated by graphviz version 2.38.0 (20140413.2041)
 -->
<!-- Title: GetLocalAddress Pages: 1 -->
<svg width="758pt" height="306pt"
 viewBox="0.00 0.00 758.00 305.50" xmlns="http://www.w3.org/2000/svg" xmlns:xlink="http://www.w3.org/1999/xlink">
<g id="graph0" class="graph" transform="scale(1 1) rotate(0) translate(4 301.5)">
<title>GetLocalAddress</title>
<polygon fill="white" stroke="none" points="-4,4 -4,-301.5 754,-301.5 754,4 -4,4"/>
<!-- Node1 -->
<g id="node1" class="node"><title>Node1</title>
<polygon fill="#bfbfbf" stroke="black" points="0,-104.5 0,-123.5 98,-123.5 98,-104.5 0,-104.5"/>
<text text-anchor="middle" x="49" y="-111.5" font-family="Helvetica,sans-Serif" font-size="10.00">GetLocalAddress</text>
</g>
<!-- Node2 -->
<g id="node2" class="node"><title>Node2</title>
<g id="a_node2"><a xlink:href="net_8cpp.html#af6d341a24d761a509fca026458cf2f72" target="_top" xlink:title="GetListenPort">
<polygon fill="white" stroke="black" points="142.5,-202.5 142.5,-221.5 224.5,-221.5 224.5,-202.5 142.5,-202.5"/>
<text text-anchor="middle" x="183.5" y="-209.5" font-family="Helvetica,sans-Serif" font-size="10.00">GetListenPort</text>
</a>
</g>
</g>
<!-- Node1&#45;&gt;Node2 -->
<g id="edge1" class="edge"><title>Node1&#45;&gt;Node2</title>
<path fill="none" stroke="midnightblue" d="M63.189,-123.755C86.1064,-140.705 133.471,-175.737 161.132,-196.196"/>
<polygon fill="midnightblue" stroke="midnightblue" points="159.243,-199.152 169.364,-202.285 163.406,-193.524 159.243,-199.152"/>
</g>
<!-- Node10 -->
<g id="node10" class="node"><title>Node10</title>
<g id="a_node10"><a xlink:href="net_8cpp.html#a51605827c953a7843f9b165eada26857" target="_top" xlink:title="GetLocal">
<polygon fill="white" stroke="black" points="154,-104.5 154,-123.5 213,-123.5 213,-104.5 154,-104.5"/>
<text text-anchor="middle" x="183.5" y="-111.5" font-family="Helvetica,sans-Serif" font-size="10.00">GetLocal</text>
</a>
</g>
</g>
<!-- Node1&#45;&gt;Node10 -->
<g id="edge10" class="edge"><title>Node1&#45;&gt;Node10</title>
<path fill="none" stroke="midnightblue" d="M98.2104,-114C113.069,-114 129.239,-114 143.405,-114"/>
<polygon fill="midnightblue" stroke="midnightblue" points="143.793,-117.5 153.793,-114 143.793,-110.5 143.793,-117.5"/>
</g>
<!-- Node17 -->
<g id="node17" class="node"><title>Node17</title>
<g id="a_node17"><a xlink:href="timedata_8cpp.html#a09f81b9c7650f898cf3cf305b87547e6" target="_top" xlink:title="GetAdjustedTime">
<polygon fill="white" stroke="black" points="134,-38.5 134,-57.5 233,-57.5 233,-38.5 134,-38.5"/>
<text text-anchor="middle" x="183.5" y="-45.5" font-family="Helvetica,sans-Serif" font-size="10.00">GetAdjustedTime</text>
</a>
</g>
</g>
<!-- Node1&#45;&gt;Node17 -->
<g id="edge17" class="edge"><title>Node1&#45;&gt;Node17</title>
<path fill="none" stroke="midnightblue" d="M69.2666,-104.403C91.542,-93.3074 128.417,-74.9393 154.009,-62.192"/>
<polygon fill="midnightblue" stroke="midnightblue" points="155.82,-65.2001 163.21,-57.6085 152.699,-58.9344 155.82,-65.2001"/>
</g>
<!-- Node3 -->
<g id="node3" class="node"><title>Node3</title>
<g id="a_node3"><a xlink:href="class_args_manager.html#a565c101a8d753ca2d71c7069a9d411c1" target="_top" xlink:title="Return string argument or default value. ">
<polygon fill="white" stroke="black" points="278.5,-240.5 278.5,-259.5 398.5,-259.5 398.5,-240.5 278.5,-240.5"/>
<text text-anchor="middle" x="338.5" y="-247.5" font-family="Helvetica,sans-Serif" font-size="10.00">ArgsManager::GetArg</text>
</a>
</g>
</g>
<!-- Node2&#45;&gt;Node3 -->
<g id="edge2" class="edge"><title>Node2&#45;&gt;Node3</title>
<path fill="none" stroke="midnightblue" d="M223.108,-221.589C243.207,-226.581 267.975,-232.732 289.319,-238.033"/>
<polygon fill="midnightblue" stroke="midnightblue" points="288.62,-241.466 299.169,-240.48 290.308,-234.673 288.62,-241.466"/>
</g>
<!-- Node9 -->
<g id="node9" class="node"><title>Node9</title>
<g id="a_node9"><a xlink:href="chainparams_8cpp.html#ace5c5b706d71a324a417dd2db394fd4a" target="_top" xlink:title="Return the currently selected parameters. ">
<polygon fill="white" stroke="black" points="312,-202.5 312,-221.5 365,-221.5 365,-202.5 312,-202.5"/>
<text text-anchor="middle" x="338.5" y="-209.5" font-family="Helvetica,sans-Serif" font-size="10.00">Params</text>
</a>
</g>
</g>
<!-- Node2&#45;&gt;Node9 -->
<g id="edge9" class="edge"><title>Node2&#45;&gt;Node9</title>
<path fill="none" stroke="midnightblue" d="M224.699,-212C248.654,-212 278.791,-212 301.887,-212"/>
<polygon fill="midnightblue" stroke="midnightblue" points="301.956,-215.5 311.956,-212 301.956,-208.5 301.956,-215.5"/>
</g>
<!-- Node4 -->
<g id="node4" class="node"><title>Node4</title>
<g id="a_node4"><a xlink:href="class_args_manager.html#a279ccbf7bbe9de5dceb8c6bfd1736583" target="_top" xlink:title="Return true if the argument was originally passed as a negated option, i.e. ">
<polygon fill="white" stroke="black" points="444,-270.5 444,-289.5 596,-289.5 596,-270.5 444,-270.5"/>
<text text-anchor="middle" x="520" y="-277.5" font-family="Helvetica,sans-Serif" font-size="10.00">ArgsManager::IsArgNegated</text>
</a>
</g>
</g>
<!-- Node3&#45;&gt;Node4 -->
<g id="edge3" class="edge"><title>Node3&#45;&gt;Node4</title>
<path fill="none" stroke="midnightblue" d="M396.788,-259.575C414.362,-262.512 433.855,-265.77 452.016,-268.805"/>
<polygon fill="midnightblue" stroke="midnightblue" points="451.508,-272.268 461.948,-270.465 452.662,-265.364 451.508,-272.268"/>
</g>
<!-- Node6 -->
<g id="node6" class="node"><title>Node6</title>
<g id="a_node6"><a xlink:href="class_args_manager_helper.html#aa4f8f77dc468b29cffe50513c78a87cd" target="_top" xlink:title="ArgsManagerHelper::\lGetArg">
<polygon fill="white" stroke="black" points="461,-219 461,-249 579,-249 579,-219 461,-219"/>
<text text-anchor="start" x="469" y="-237" font-family="Helvetica,sans-Serif" font-size="10.00">ArgsManagerHelper::</text>
<text text-anchor="middle" x="520" y="-226" font-family="Helvetica,sans-Serif" font-size="10.00">GetArg</text>
</a>
</g>
</g>
<!-- Node3&#45;&gt;Node6 -->
<g id="edge5" class="edge"><title>Node3&#45;&gt;Node6</title>
<path fill="none" stroke="midnightblue" d="M398.772,-244.717C415.263,-243.247 433.311,-241.638 450.294,-240.124"/>
<polygon fill="midnightblue" stroke="midnightblue" points="451.057,-243.57 460.707,-239.196 450.436,-236.598 451.057,-243.57"/>
</g>
<!-- Node5 -->
<g id="node5" class="node"><title>Node5</title>
<g id="a_node5"><a xlink:href="class_args_manager_helper.html#a863ddbcfbd113cf88cf622a0a4e32c1d" target="_top" xlink:title="Convert regular argument into the network&#45;specific setting. ">
<polygon fill="white" stroke="black" points="632,-267 632,-297 750,-297 750,-267 632,-267"/>
<text text-anchor="start" x="640" y="-285" font-family="Helvetica,sans-Serif" font-size="10.00">ArgsManagerHelper::</text>
<text text-anchor="middle" x="691" y="-274" font-family="Helvetica,sans-Serif" font-size="10.00">NetworkArg</text>
</a>
</g>
</g>
<!-- Node4&#45;&gt;Node5 -->
<g id="edge4" class="edge"><title>Node4&#45;&gt;Node5</title>
<path fill="none" stroke="midnightblue" d="M596.11,-280.889C604.634,-280.99 613.286,-281.092 621.715,-281.192"/>
<polygon fill="midnightblue" stroke="midnightblue" points="621.821,-284.693 631.862,-281.312 621.904,-277.694 621.821,-284.693"/>
</g>
<!-- Node6&#45;&gt;Node5 -->
<g id="edge7" class="edge"><title>Node6&#45;&gt;Node5</title>
<path fill="none" stroke="midnightblue" d="M574.009,-249.056C590.84,-253.836 609.617,-259.169 627.076,-264.128"/>
<polygon fill="midnightblue" stroke="midnightblue" points="626.603,-267.632 637.179,-266.998 628.516,-260.899 626.603,-267.632"/>
</g>
<!-- Node7 -->
<g id="node7" class="node"><title>Node7</title>
<g id="a_node7"><a xlink:href="class_args_manager_helper.html#a1804a95992b4e10d04f0b92c53032b29" target="_top" xlink:title="Return true/false if an argument is set in a map, and also return the first (or last) of the possibly...">
<polygon fill="white" stroke="black" points="632,-218 632,-248 750,-248 750,-218 632,-218"/>
<text text-anchor="start" x="640" y="-236" font-family="Helvetica,sans-Serif" font-size="10.00">ArgsManagerHelper::</text>
<text text-anchor="middle" x="691" y="-225" font-family="Helvetica,sans-Serif" font-size="10.00">GetArgHelper</text>
</a>
</g>
</g>
<!-- Node6&#45;&gt;Node7 -->
<g id="edge6" class="edge"><title>Node6&#45;&gt;Node7</title>
<path fill="none" stroke="midnightblue" d="M579.16,-233.656C592.836,-233.575 607.535,-233.488 621.614,-233.405"/>
<polygon fill="midnightblue" stroke="midnightblue" points="621.754,-236.904 631.733,-233.345 621.712,-229.904 621.754,-236.904"/>
</g>
<!-- Node8 -->
<g id="node8" class="node"><title>Node8</title>
<g id="a_node8"><a xlink:href="class_args_manager_helper.html#a43f3488403e4f0433ade323e48008359" target="_top" xlink:title="Determine whether to use config settings in the default section, See also comments around ArgsManager...">
<polygon fill="white" stroke="black" points="632,-169 632,-199 750,-199 750,-169 632,-169"/>
<text text-anchor="start" x="640" y="-187" font-family="Helvetica,sans-Serif" font-size="10.00">ArgsManagerHelper::</text>
<text text-anchor="middle" x="691" y="-176" font-family="Helvetica,sans-Serif" font-size="10.00">UseDefaultSection</text>
</a>
</g>
</g>
<!-- Node6&#45;&gt;Node8 -->
<g id="edge8" class="edge"><title>Node6&#45;&gt;Node8</title>
<path fill="none" stroke="midnightblue" d="M571.706,-218.998C589.838,-213.634 610.455,-207.534 629.342,-201.946"/>
<polygon fill="midnightblue" stroke="midnightblue" points="630.442,-205.271 639.038,-199.077 628.456,-198.558 630.442,-205.271"/>
</g>
<!-- Node11 -->
<g id="node11" class="node"><title>Node11</title>
<g id="a_node11"><a xlink:href="glibc__compat_8cpp.html#a0f46826ab0466591e136db24394923cf" target="_top" xlink:title="memcpy">
<polygon fill="white" stroke="black" points="309,-164.5 309,-183.5 368,-183.5 368,-164.5 309,-164.5"/>
<text text-anchor="middle" x="338.5" y="-171.5" font-family="Helvetica,sans-Serif" font-size="10.00">memcpy</text>
</a>
</g>
</g>
<!-- Node10&#45;&gt;Node11 -->
<g id="edge11" class="edge"><title>Node10&#45;&gt;Node11</title>
<path fill="none" stroke="midnightblue" d="M201.893,-123.594C218.696,-132.583 245.051,-145.954 269,-155 278.511,-158.593 288.995,-161.841 298.84,-164.594"/>
<polygon fill="midnightblue" stroke="midnightblue" points="298.235,-168.055 308.801,-167.277 300.056,-161.296 298.235,-168.055"/>
</g>
<!-- Node14 -->
<g id="node14" class="node"><title>Node14</title>
<g id="a_node14"><a xlink:href="protocol_8cpp.html#a4a92bd3e5b80138a55fafae4c4770ecd" target="_top" xlink:title="Gets the set of service flags which are &quot;desirable&quot; for a given peer. ">
<polygon fill="white" stroke="black" points="269,-126.5 269,-145.5 408,-145.5 408,-126.5 269,-126.5"/>
<text text-anchor="middle" x="338.5" y="-133.5" font-family="Helvetica,sans-Serif" font-size="10.00">GetDesirableServiceFlags</text>
</a>
</g>
</g>
<!-- Node10&#45;&gt;Node14 -->
<g id="edge14" class="edge"><title>Node10&#45;&gt;Node14</title>
<path fill="none" stroke="midnightblue" d="M213.278,-118.138C227.027,-120.115 244.199,-122.584 261.349,-125.05"/>
<polygon fill="midnightblue" stroke="midnightblue" points="261.021,-128.539 271.417,-126.498 262.017,-121.61 261.021,-128.539"/>
</g>
<!-- Node15 -->
<g id="node15" class="node"><title>Node15</title>
<g id="a_node15"><a xlink:href="time_8cpp.html#a46fac5fba8ba905b5f9acb364f5d8c6f" target="_top" xlink:title="GetTimeMicros() and GetTimeMillis() both return the system time, but in different units...">
<polygon fill="white" stroke="black" points="310,-38.5 310,-57.5 367,-57.5 367,-38.5 310,-38.5"/>
<text text-anchor="middle" x="338.5" y="-45.5" font-family="Helvetica,sans-Serif" font-size="10.00">GetTime</text>
</a>
</g>
</g>
<!-- Node10&#45;&gt;Node15 -->
<g id="edge15" class="edge"><title>Node10&#45;&gt;Node15</title>
<path fill="none" stroke="midnightblue" d="M199.226,-104.389C215.677,-93.9946 243.372,-77.5071 269,-67 278.763,-62.9972 289.646,-59.5488 299.811,-56.731"/>
<polygon fill="midnightblue" stroke="midnightblue" points="300.895,-60.0647 309.669,-54.1261 299.107,-53.297 300.895,-60.0647"/>
</g>
<!-- Node16 -->
<g id="node16" class="node"><title>Node16</title>
<g id="a_node16"><a xlink:href="class_fast_random_context.html#ae9499b1ae58e3547a6979c870c708ccf" target="_top" xlink:title="Generate a random integer in the range [0..range). ">
<polygon fill="white" stroke="black" points="279,-77 279,-107 398,-107 398,-77 279,-77"/>
<text text-anchor="start" x="287" y="-95" font-family="Helvetica,sans-Serif" font-size="10.00">FastRandomContext::</text>
<text text-anchor="middle" x="338.5" y="-84" font-family="Helvetica,sans-Serif" font-size="10.00">randrange</text>
</a>
</g>
</g>
<!-- Node10&#45;&gt;Node16 -->
<g id="edge16" class="edge"><title>Node10&#45;&gt;Node16</title>
<path fill="none" stroke="midnightblue" d="M213.278,-109.862C228.979,-107.604 249.146,-104.705 268.643,-101.901"/>
<polygon fill="midnightblue" stroke="midnightblue" points="269.351,-105.335 278.751,-100.448 268.355,-98.4065 269.351,-105.335"/>
</g>
<!-- Node12 -->
<g id="node12" class="node"><title>Node12</title>
<g id="a_node12"><a xlink:href="glibc__compat_8cpp.html#a9778d49e9029dd75bc53ecbbf9f5e9a1" target="_top" xlink:title="memmove">
<polygon fill="white" stroke="black" points="485.5,-172.5 485.5,-191.5 554.5,-191.5 554.5,-172.5 485.5,-172.5"/>
<text text-anchor="middle" x="520" y="-179.5" font-family="Helvetica,sans-Serif" font-size="10.00">memmove</text>
</a>
</g>
</g>
<!-- Node11&#45;&gt;Node12 -->
<g id="edge12" class="edge"><title>Node11&#45;&gt;Node12</title>
<path fill="none" stroke="midnightblue" d="M368.34,-175.285C397.134,-176.569 441.767,-178.558 474.989,-180.038"/>
<polygon fill="midnightblue" stroke="midnightblue" points="475.194,-183.551 485.339,-180.5 475.505,-176.558 475.194,-183.551"/>
</g>
<!-- Node13 -->
<g id="node13" class="node"><title>Node13</title>
<g id="a_node13"><a xlink:href="glibc__compat_8cpp.html#a424ac71631da5ada2976630ff67051d1" target="_top" xlink:title="__chk_fail">
<polygon fill="white" stroke="black" points="489,-134.5 489,-153.5 551,-153.5 551,-134.5 489,-134.5"/>
<text text-anchor="middle" x="520" y="-141.5" font-family="Helvetica,sans-Serif" font-size="10.00">__chk_fail</text>
</a>
</g>
</g>
<!-- Node11&#45;&gt;Node13 -->
<g id="edge13" class="edge"><title>Node11&#45;&gt;Node13</title>
<path fill="none" stroke="midnightblue" d="M368.34,-169.18C398.247,-164.182 445.24,-156.328 478.787,-150.721"/>
<polygon fill="midnightblue" stroke="midnightblue" points="479.446,-154.159 488.733,-149.059 478.292,-147.255 479.446,-154.159"/>
</g>
<!-- Node17&#45;&gt;Node15 -->
<g id="edge18" class="edge"><title>Node17&#45;&gt;Node15</title>
<path fill="none" stroke="midnightblue" d="M233.331,-48C254.681,-48 279.353,-48 299.326,-48"/>
<polygon fill="midnightblue" stroke="midnightblue" points="299.593,-51.5001 309.593,-48 299.593,-44.5001 299.593,-51.5001"/>
</g>
<!-- Node18 -->
<g id="node18" class="node"><title>Node18</title>
<g id="a_node18"><a xlink:href="timedata_8cpp.html#a50ca5344c75631267633f15cfe5e983e" target="_top" xlink:title="&quot;Never go to sea with two chronometers; take one or three.&quot; Our three time sources are: ...">
<polygon fill="white" stroke="black" points="295.5,-0.5 295.5,-19.5 381.5,-19.5 381.5,-0.5 295.5,-0.5"/>
<text text-anchor="middle" x="338.5" y="-7.5" font-family="Helvetica,sans-Serif" font-size="10.00">GetTimeOffset</text>
</a>
</g>
</g>
<!-- Node17&#45;&gt;Node18 -->
<g id="edge19" class="edge"><title>Node17&#45;&gt;Node18</title>
<path fill="none" stroke="midnightblue" d="M223.108,-38.411C243.207,-33.4191 267.975,-27.2676 289.319,-21.9666"/>
<polygon fill="midnightblue" stroke="midnightblue" points="290.308,-25.3274 299.169,-19.5201 288.62,-18.5338 290.308,-25.3274"/>
</g>
</g>
</svg>
