<?xml version="1.0" encoding="UTF-8" standalone="no"?>
<!DOCTYPE svg PUBLIC "-//W3C//DTD SVG 1.1//EN"
 "http://www.w3.org/Graphics/SVG/1.1/DTD/svg11.dtd">
<!-- Generated by graphviz version 2.40.1 (20161225.0304)
 -->
<!-- Title: ConnectSocketDirectly Pages: 1 -->
<svg width="1067pt" height="116pt"
 viewBox="0.00 0.00 1067.00 115.50" xmlns="http://www.w3.org/2000/svg" xmlns:xlink="http://www.w3.org/1999/xlink">
<g id="graph0" class="graph" transform="scale(1 1) rotate(0) translate(4 111.5)">
<title>ConnectSocketDirectly</title>
<polygon fill="#ffffff" stroke="transparent" points="-4,4 -4,-111.5 1063,-111.5 1063,4 -4,4"/>
<!-- Node36 -->
<g id="node1" class="node">
<title>Node36</title>
<polygon fill="#bfbfbf" stroke="#000000" points="0,-50 0,-69 118,-69 118,-50 0,-50"/>
<text text-anchor="middle" x="59" y="-57" font-family="Helvetica,sans-Serif" font-size="10.00" fill="#000000">ConnectSocketDirectly</text>
</g>
<!-- Node37 -->
<g id="node2" class="node">
<title>Node37</title>
<g id="a_node2"><a xlink:href="class_c_connman.html#a65aba17d8735bd9612d4ca9abb35789f" target="_top" xlink:title="CConnman::ConnectNode">
<polygon fill="#ffffff" stroke="#000000" points="304,-50 304,-69 436,-69 436,-50 304,-50"/>
<text text-anchor="middle" x="370" y="-57" font-family="Helvetica,sans-Serif" font-size="10.00" fill="#000000">CConnman::ConnectNode</text>
</a>
</g>
</g>
<!-- Node36&#45;&gt;Node37 -->
<g id="edge1" class="edge">
<title>Node36&#45;&gt;Node37</title>
<path fill="none" stroke="#191970" d="M128.4524,-59.5C180.8992,-59.5 252.4067,-59.5 303.9929,-59.5"/>
<polygon fill="#191970" stroke="#191970" points="128.2288,-56.0001 118.2288,-59.5 128.2287,-63.0001 128.2288,-56.0001"/>
</g>
<!-- Node42 -->
<g id="node7" class="node">
<title>Node42</title>
<g id="a_node7"><a xlink:href="netbase_8h.html#ae3f12916e6bd6663ea42955886a3026f" target="_top" xlink:title="ConnectThroughProxy">
<polygon fill="#ffffff" stroke="#000000" points="154,-31 154,-50 268,-50 268,-31 154,-31"/>
<text text-anchor="middle" x="211" y="-38" font-family="Helvetica,sans-Serif" font-size="10.00" fill="#000000">ConnectThroughProxy</text>
</a>
</g>
</g>
<!-- Node36&#45;&gt;Node42 -->
<g id="edge7" class="edge">
<title>Node36&#45;&gt;Node42</title>
<path fill="none" stroke="#191970" d="M128.1548,-50.8556C136.7007,-49.7874 145.3629,-48.7046 153.7045,-47.6619"/>
<polygon fill="#191970" stroke="#191970" points="127.691,-47.3863 118.2024,-52.0997 128.5593,-54.3322 127.691,-47.3863"/>
</g>
<!-- Node38 -->
<g id="node3" class="node">
<title>Node38</title>
<g id="a_node3"><a xlink:href="class_c_connman.html#a5e42e06d446f31b4f2012796ff8d3e42" target="_top" xlink:title="CConnman::OpenNetworkConnection">
<polygon fill="#ffffff" stroke="#000000" points="472,-50 472,-69 654,-69 654,-50 472,-50"/>
<text text-anchor="middle" x="563" y="-57" font-family="Helvetica,sans-Serif" font-size="10.00" fill="#000000">CConnman::OpenNetworkConnection</text>
</a>
</g>
</g>
<!-- Node37&#45;&gt;Node38 -->
<g id="edge2" class="edge">
<title>Node37&#45;&gt;Node38</title>
<path fill="none" stroke="#191970" d="M446.2269,-59.5C454.5897,-59.5 463.1652,-59.5 471.6866,-59.5"/>
<polygon fill="#191970" stroke="#191970" points="446.1497,-56.0001 436.1496,-59.5 446.1496,-63.0001 446.1497,-56.0001"/>
</g>
<!-- Node39 -->
<g id="node4" class="node">
<title>Node39</title>
<g id="a_node4"><a xlink:href="class_c_connman.html#a161f1b41271db1a10cec61a825524b5d" target="_top" xlink:title="CConnman::ProcessOneShot">
<polygon fill="#ffffff" stroke="#000000" points="693.5,-88 693.5,-107 839.5,-107 839.5,-88 693.5,-88"/>
<text text-anchor="middle" x="766.5" y="-95" font-family="Helvetica,sans-Serif" font-size="10.00" fill="#000000">CConnman::ProcessOneShot</text>
</a>
</g>
</g>
<!-- Node38&#45;&gt;Node39 -->
<g id="edge3" class="edge">
<title>Node38&#45;&gt;Node39</title>
<path fill="none" stroke="#191970" d="M624.1471,-70.9181C653.2642,-76.3552 687.6879,-82.7832 715.39,-87.9561"/>
<polygon fill="#191970" stroke="#191970" points="624.5615,-67.4351 614.089,-69.04 623.2766,-74.3162 624.5615,-67.4351"/>
</g>
<!-- Node40 -->
<g id="node5" class="node">
<title>Node40</title>
<g id="a_node5"><a xlink:href="class_c_connman.html#a55e9feafc3bab78e5c9d408c207faa45" target="_top" xlink:title="CConnman::ThreadOpenConnections">
<polygon fill="#ffffff" stroke="#000000" points="879,-69 879,-88 1059,-88 1059,-69 879,-69"/>
<text text-anchor="middle" x="969" y="-76" font-family="Helvetica,sans-Serif" font-size="10.00" fill="#000000">CConnman::ThreadOpenConnections</text>
</a>
</g>
</g>
<!-- Node38&#45;&gt;Node40 -->
<g id="edge5" class="edge">
<title>Node38&#45;&gt;Node40</title>
<path fill="none" stroke="#191970" d="M664.1073,-64.2316C730.0247,-67.3164 815.2936,-71.3068 878.8895,-74.283"/>
<polygon fill="#191970" stroke="#191970" points="664.267,-60.7354 654.1143,-63.764 663.9397,-67.7277 664.267,-60.7354"/>
</g>
<!-- Node41 -->
<g id="node6" class="node">
<title>Node41</title>
<g id="a_node6"><a xlink:href="class_c_connman.html#a0b787caf95e52a346a2b31a580d60a62" target="_top" xlink:title="CConnman::ThreadOpenAdded\lConnections">
<polygon fill="#ffffff" stroke="#000000" points="690,-.5 690,-30.5 843,-30.5 843,-.5 690,-.5"/>
<text text-anchor="start" x="698" y="-18.5" font-family="Helvetica,sans-Serif" font-size="10.00" fill="#000000">CConnman::ThreadOpenAdded</text>
<text text-anchor="middle" x="766.5" y="-7.5" font-family="Helvetica,sans-Serif" font-size="10.00" fill="#000000">Connections</text>
</a>
</g>
</g>
<!-- Node38&#45;&gt;Node41 -->
<g id="edge6" class="edge">
<title>Node38&#45;&gt;Node41</title>
<path fill="none" stroke="#191970" d="M616.982,-47.8282C641.461,-42.5355 670.7113,-36.2111 696.8227,-30.5654"/>
<polygon fill="#191970" stroke="#191970" points="616.1909,-44.4183 607.1565,-49.9527 617.6703,-51.2602 616.1909,-44.4183"/>
</g>
<!-- Node39&#45;&gt;Node40 -->
<g id="edge4" class="edge">
<title>Node39&#45;&gt;Node40</title>
<path fill="none" stroke="#191970" d="M849.8371,-89.6807C859.359,-88.7873 869.0992,-87.8734 878.7062,-86.972"/>
<polygon fill="#191970" stroke="#191970" points="849.2364,-86.2216 839.6071,-90.6406 849.8904,-93.191 849.2364,-86.2216"/>
</g>
<!-- Node42&#45;&gt;Node37 -->
<g id="edge8" class="edge">
<title>Node42&#45;&gt;Node37</title>
<path fill="none" stroke="#191970" d="M278.495,-48.5654C286.8639,-49.5655 295.4145,-50.5873 303.7642,-51.585"/>
<polygon fill="#191970" stroke="#191970" points="278.7473,-45.0708 268.4026,-47.3594 277.9167,-52.0213 278.7473,-45.0708"/>
</g>
</g>
</svg>
