<?xml version="1.0" encoding="UTF-8" standalone="no"?>
<!DOCTYPE svg PUBLIC "-//W3C//DTD SVG 1.1//EN"
 "http://www.w3.org/Graphics/SVG/1.1/DTD/svg11.dtd">
<!-- Generated by graphviz version 2.38.0 (20140413.2041)
 -->
<!-- Title: src/netmessagemaker.h Pages: 1 -->
<svg width="2313pt" height="476pt"
 viewBox="0.00 0.00 2313.24 476.00" xmlns="http://www.w3.org/2000/svg" xmlns:xlink="http://www.w3.org/1999/xlink">
<g id="graph0" class="graph" transform="scale(1 1) rotate(0) translate(4 472)">
<title>src/netmessagemaker.h</title>
<polygon fill="white" stroke="none" points="-4,4 -4,-472 2309.24,-472 2309.24,4 -4,4"/>
<!-- Node1 -->
<g id="node1" class="node"><title>Node1</title>
<polygon fill="#bfbfbf" stroke="black" points="866.744,-448.5 866.744,-467.5 999.744,-467.5 999.744,-448.5 866.744,-448.5"/>
<text text-anchor="middle" x="933.244" y="-455.5" font-family="Helvetica,sans-Serif" font-size="10.00">src/netmessagemaker.h</text>
</g>
<!-- Node2 -->
<g id="node2" class="node"><title>Node2</title>
<g id="a_node2"><a xlink:href="net_8h.html" target="_top" xlink:title="net.h">
<polygon fill="white" stroke="black" points="1400.74,-392.5 1400.74,-411.5 1441.74,-411.5 1441.74,-392.5 1400.74,-392.5"/>
<text text-anchor="middle" x="1421.24" y="-399.5" font-family="Helvetica,sans-Serif" font-size="10.00">net.h</text>
</a>
</g>
</g>
<!-- Node1&#45;&gt;Node2 -->
<g id="edge1" class="edge"><title>Node1&#45;&gt;Node2</title>
<path fill="none" stroke="midnightblue" d="M999.82,-449.633C1106.69,-437.808 1312.39,-415.045 1390.31,-406.423"/>
<polygon fill="midnightblue" stroke="midnightblue" points="1390.88,-409.882 1400.43,-405.303 1390.11,-402.924 1390.88,-409.882"/>
</g>
<!-- Node6 -->
<g id="node6" class="node"><title>Node6</title>
<g id="a_node6"><a xlink:href="serialize_8h.html" target="_top" xlink:title="serialize.h">
<polygon fill="white" stroke="black" points="370.744,-168.5 370.744,-187.5 435.744,-187.5 435.744,-168.5 370.744,-168.5"/>
<text text-anchor="middle" x="403.244" y="-175.5" font-family="Helvetica,sans-Serif" font-size="10.00">serialize.h</text>
</a>
</g>
</g>
<!-- Node1&#45;&gt;Node6 -->
<g id="edge132" class="edge"><title>Node1&#45;&gt;Node6</title>
<path fill="none" stroke="midnightblue" d="M866.596,-454.665C740.215,-448.412 478.244,-425.932 478.244,-347 478.244,-347 478.244,-347 478.244,-289 478.244,-249.444 444.727,-213.616 422.505,-194.209"/>
<polygon fill="midnightblue" stroke="midnightblue" points="424.544,-191.351 414.635,-187.602 420.043,-196.712 424.544,-191.351"/>
</g>
<!-- Node3 -->
<g id="node3" class="node"><title>Node3</title>
<g id="a_node3"><a xlink:href="addrdb_8h.html" target="_top" xlink:title="addrdb.h">
<polygon fill="white" stroke="black" points="1391.74,-224.5 1391.74,-243.5 1450.74,-243.5 1450.74,-224.5 1391.74,-224.5"/>
<text text-anchor="middle" x="1421.24" y="-231.5" font-family="Helvetica,sans-Serif" font-size="10.00">addrdb.h</text>
</a>
</g>
</g>
<!-- Node2&#45;&gt;Node3 -->
<g id="edge2" class="edge"><title>Node2&#45;&gt;Node3</title>
<path fill="none" stroke="midnightblue" d="M1421.24,-392.075C1421.24,-365.945 1421.24,-289.211 1421.24,-253.577"/>
<polygon fill="midnightblue" stroke="midnightblue" points="1424.74,-253.568 1421.24,-243.568 1417.74,-253.568 1424.74,-253.568"/>
</g>
<!-- Node8 -->
<g id="node8" class="node"><title>Node8</title>
<polygon fill="white" stroke="#bfbfbf" points="963.744,-56.5 963.744,-75.5 1016.74,-75.5 1016.74,-56.5 963.744,-56.5"/>
<text text-anchor="middle" x="990.244" y="-63.5" font-family="Helvetica,sans-Serif" font-size="10.00">stdint.h</text>
</g>
<!-- Node2&#45;&gt;Node8 -->
<g id="edge127" class="edge"><title>Node2&#45;&gt;Node8</title>
<path fill="none" stroke="midnightblue" d="M1441.89,-401.053C1494.68,-400.582 1638.22,-395.469 1749.24,-356 1870.98,-312.724 1996.33,-205.567 1907.24,-112 1876.41,-79.6147 1194.82,-69.4266 1027.22,-67.4066"/>
<polygon fill="midnightblue" stroke="midnightblue" points="1027.2,-63.9062 1017.16,-67.2878 1027.12,-70.9057 1027.2,-63.9062"/>
</g>
<!-- Node14 -->
<g id="node14" class="node"><title>Node14</title>
<polygon fill="white" stroke="#bfbfbf" points="1841.74,-112.5 1841.74,-131.5 1898.74,-131.5 1898.74,-112.5 1841.74,-112.5"/>
<text text-anchor="middle" x="1870.24" y="-119.5" font-family="Helvetica,sans-Serif" font-size="10.00">memory</text>
</g>
<!-- Node2&#45;&gt;Node14 -->
<g id="edge129" class="edge"><title>Node2&#45;&gt;Node14</title>
<path fill="none" stroke="midnightblue" d="M1441.79,-400.235C1489.96,-397.925 1613.39,-388.989 1710.24,-356 1759.2,-339.326 1770.61,-330.676 1812.24,-300 1841.09,-278.746 1856.24,-276.983 1870.24,-244 1884.56,-210.28 1879.37,-166.354 1874.61,-141.772"/>
<polygon fill="midnightblue" stroke="midnightblue" points="1877.96,-140.718 1872.46,-131.666 1871.12,-142.176 1877.96,-140.718"/>
</g>
<!-- Node21 -->
<g id="node21" class="node"><title>Node21</title>
<g id="a_node21"><a xlink:href="compat_8h.html" target="_top" xlink:title="compat.h">
<polygon fill="white" stroke="red" points="1834.24,-56.5 1834.24,-75.5 1896.24,-75.5 1896.24,-56.5 1834.24,-56.5"/>
<text text-anchor="middle" x="1865.24" y="-63.5" font-family="Helvetica,sans-Serif" font-size="10.00">compat.h</text>
</a>
</g>
</g>
<!-- Node2&#45;&gt;Node21 -->
<g id="edge91" class="edge"><title>Node2&#45;&gt;Node21</title>
<path fill="none" stroke="midnightblue" d="M1441.91,-400.875C1540.03,-400.085 1959.19,-394.481 2083.24,-356 2137.48,-339.176 2193.24,-347.786 2193.24,-291 2193.24,-291 2193.24,-291 2193.24,-177 2193.24,-117.132 1994.33,-83.7993 1906.31,-71.9798"/>
<polygon fill="midnightblue" stroke="midnightblue" points="1906.77,-68.5097 1896.4,-70.6767 1905.86,-75.4501 1906.77,-68.5097"/>
</g>
<!-- Node30 -->
<g id="node30" class="node"><title>Node30</title>
<polygon fill="white" stroke="#bfbfbf" points="2237.24,-0.5 2237.24,-19.5 2305.24,-19.5 2305.24,-0.5 2237.24,-0.5"/>
<text text-anchor="middle" x="2271.24" y="-7.5" font-family="Helvetica,sans-Serif" font-size="10.00">arpa/inet.h</text>
</g>
<!-- Node2&#45;&gt;Node30 -->
<g id="edge131" class="edge"><title>Node2&#45;&gt;Node30</title>
<path fill="none" stroke="midnightblue" d="M1441.95,-400.586C1569.5,-397.953 2244.4,-382.783 2278.24,-356 2301.85,-337.323 2297.24,-321.098 2297.24,-291 2297.24,-291 2297.24,-291 2297.24,-121 2297.24,-87.9292 2285.98,-50.7291 2278.28,-29.1685"/>
<polygon fill="midnightblue" stroke="midnightblue" points="2281.51,-27.8308 2274.75,-19.675 2274.95,-30.2679 2281.51,-27.8308"/>
</g>
<!-- Node32 -->
<g id="node32" class="node"><title>Node32</title>
<g id="a_node32"><a xlink:href="addrman_8h.html" target="_top" xlink:title="addrman.h">
<polygon fill="white" stroke="black" points="1247.74,-336.5 1247.74,-355.5 1316.74,-355.5 1316.74,-336.5 1247.74,-336.5"/>
<text text-anchor="middle" x="1282.24" y="-343.5" font-family="Helvetica,sans-Serif" font-size="10.00">addrman.h</text>
</a>
</g>
</g>
<!-- Node2&#45;&gt;Node32 -->
<g id="edge40" class="edge"><title>Node2&#45;&gt;Node32</title>
<path fill="none" stroke="midnightblue" d="M1400.73,-393.032C1377.83,-384.135 1340.49,-369.629 1313.85,-359.279"/>
<polygon fill="midnightblue" stroke="midnightblue" points="1314.81,-355.895 1304.22,-355.536 1312.27,-362.42 1314.81,-355.895"/>
</g>
<!-- Node33 -->
<g id="node33" class="node"><title>Node33</title>
<g id="a_node33"><a xlink:href="netaddress_8h.html" target="_top" xlink:title="netaddress.h">
<polygon fill="white" stroke="black" points="833.244,-224.5 833.244,-243.5 913.244,-243.5 913.244,-224.5 833.244,-224.5"/>
<text text-anchor="middle" x="873.244" y="-231.5" font-family="Helvetica,sans-Serif" font-size="10.00">netaddress.h</text>
</a>
</g>
</g>
<!-- Node2&#45;&gt;Node33 -->
<g id="edge100" class="edge"><title>Node2&#45;&gt;Node33</title>
<path fill="none" stroke="midnightblue" d="M1400.32,-400.142C1328.74,-396.974 1094.28,-384.6 1025.24,-356 966.788,-331.784 912.383,-278.084 887.482,-251.114"/>
<polygon fill="midnightblue" stroke="midnightblue" points="890.038,-248.724 880.729,-243.665 884.852,-253.425 890.038,-248.724"/>
</g>
<!-- Node34 -->
<g id="node34" class="node"><title>Node34</title>
<g id="a_node34"><a xlink:href="protocol_8h.html" target="_top" xlink:title="protocol.h">
<polygon fill="white" stroke="red" points="1250.74,-280.5 1250.74,-299.5 1315.74,-299.5 1315.74,-280.5 1250.74,-280.5"/>
<text text-anchor="middle" x="1283.24" y="-287.5" font-family="Helvetica,sans-Serif" font-size="10.00">protocol.h</text>
</a>
</g>
</g>
<!-- Node2&#45;&gt;Node34 -->
<g id="edge105" class="edge"><title>Node2&#45;&gt;Node34</title>
<path fill="none" stroke="midnightblue" d="M1410.42,-392.368C1386.94,-373.653 1331.11,-329.151 1301.85,-305.832"/>
<polygon fill="midnightblue" stroke="midnightblue" points="1304.02,-303.088 1294.02,-299.591 1299.66,-308.561 1304.02,-303.088"/>
</g>
<!-- Node35 -->
<g id="node35" class="node"><title>Node35</title>
<g id="a_node35"><a xlink:href="uint256_8h.html" target="_top" xlink:title="uint256.h">
<polygon fill="white" stroke="red" points="883.244,-168.5 883.244,-187.5 945.244,-187.5 945.244,-168.5 883.244,-168.5"/>
<text text-anchor="middle" x="914.244" y="-175.5" font-family="Helvetica,sans-Serif" font-size="10.00">uint256.h</text>
</a>
</g>
</g>
<!-- Node2&#45;&gt;Node35 -->
<g id="edge121" class="edge"><title>Node2&#45;&gt;Node35</title>
<path fill="none" stroke="midnightblue" d="M1400.68,-400.238C1325.1,-397.227 1063.1,-384.889 985.244,-356 903.523,-325.675 864.612,-321.256 824.244,-244 810.932,-218.523 843.677,-200.67 873.333,-190.204"/>
<polygon fill="midnightblue" stroke="midnightblue" points="874.807,-193.403 883.201,-186.938 872.607,-186.758 874.807,-193.403"/>
</g>
<!-- Node36 -->
<g id="node36" class="node"><title>Node36</title>
<polygon fill="white" stroke="#bfbfbf" points="1811.24,-224.5 1811.24,-243.5 1861.24,-243.5 1861.24,-224.5 1811.24,-224.5"/>
<text text-anchor="middle" x="1836.24" y="-231.5" font-family="Helvetica,sans-Serif" font-size="10.00">atomic</text>
</g>
<!-- Node2&#45;&gt;Node36 -->
<g id="edge125" class="edge"><title>Node2&#45;&gt;Node36</title>
<path fill="none" stroke="midnightblue" d="M1441.78,-399.898C1500.64,-395.845 1673.04,-377.638 1787.24,-300 1804.91,-287.993 1818.79,-267.51 1827.2,-252.743"/>
<polygon fill="midnightblue" stroke="midnightblue" points="1830.46,-254.07 1832.13,-243.607 1824.3,-250.746 1830.46,-254.07"/>
</g>
<!-- Node37 -->
<g id="node37" class="node"><title>Node37</title>
<g id="a_node37"><a xlink:href="random_8h.html" target="_top" xlink:title="random.h">
<polygon fill="white" stroke="red" points="969.744,-224.5 969.744,-243.5 1032.74,-243.5 1032.74,-224.5 969.744,-224.5"/>
<text text-anchor="middle" x="1001.24" y="-231.5" font-family="Helvetica,sans-Serif" font-size="10.00">random.h</text>
</a>
</g>
</g>
<!-- Node2&#45;&gt;Node37 -->
<g id="edge106" class="edge"><title>Node2&#45;&gt;Node37</title>
<path fill="none" stroke="midnightblue" d="M1400.29,-401.237C1329.83,-401.622 1102.76,-399.406 1047.24,-356 1015.33,-331.047 1005.55,-281.246 1002.56,-253.959"/>
<polygon fill="midnightblue" stroke="midnightblue" points="1006.03,-253.428 1001.65,-243.781 999.056,-254.053 1006.03,-253.428"/>
</g>
<!-- Node38 -->
<g id="node38" class="node"><title>Node38</title>
<g id="a_node38"><a xlink:href="sync_8h.html" target="_top" xlink:title="sync.h">
<polygon fill="white" stroke="red" points="1993.74,-224.5 1993.74,-243.5 2040.74,-243.5 2040.74,-224.5 1993.74,-224.5"/>
<text text-anchor="middle" x="2017.24" y="-231.5" font-family="Helvetica,sans-Serif" font-size="10.00">sync.h</text>
</a>
</g>
</g>
<!-- Node2&#45;&gt;Node38 -->
<g id="edge120" class="edge"><title>Node2&#45;&gt;Node38</title>
<path fill="none" stroke="midnightblue" d="M1441.86,-400.682C1532.63,-399.086 1897,-390.607 2005.24,-356 2051.2,-341.307 2074.51,-342.004 2098.24,-300 2112.17,-275.357 2078.56,-256.494 2050.47,-245.589"/>
<polygon fill="midnightblue" stroke="midnightblue" points="2051.45,-242.22 2040.85,-242.068 2049.04,-248.793 2051.45,-242.22"/>
</g>
<!-- Node39 -->
<g id="node39" class="node"><title>Node39</title>
<polygon fill="white" stroke="#bfbfbf" points="2059.74,-168.5 2059.74,-187.5 2162.74,-187.5 2162.74,-168.5 2059.74,-168.5"/>
<text text-anchor="middle" x="2111.24" y="-175.5" font-family="Helvetica,sans-Serif" font-size="10.00">condition_variable</text>
</g>
<!-- Node2&#45;&gt;Node39 -->
<g id="edge130" class="edge"><title>Node2&#45;&gt;Node39</title>
<path fill="none" stroke="midnightblue" d="M1441.96,-401.247C1537.49,-402.123 1935.7,-402.853 2049.24,-356 2084.49,-341.455 2098.35,-334.663 2114.24,-300 2129.58,-266.539 2122.53,-222.216 2116.54,-197.563"/>
<polygon fill="midnightblue" stroke="midnightblue" points="2119.88,-196.508 2113.95,-187.73 2113.11,-198.291 2119.88,-196.508"/>
</g>
<!-- Node40 -->
<g id="node40" class="node"><title>Node40</title>
<polygon fill="white" stroke="#bfbfbf" points="1993.24,-168.5 1993.24,-187.5 2041.24,-187.5 2041.24,-168.5 1993.24,-168.5"/>
<text text-anchor="middle" x="2017.24" y="-175.5" font-family="Helvetica,sans-Serif" font-size="10.00">thread</text>
</g>
<!-- Node2&#45;&gt;Node40 -->
<g id="edge128" class="edge"><title>Node2&#45;&gt;Node40</title>
<path fill="none" stroke="midnightblue" d="M1441.94,-400.52C1533.52,-398.221 1899.49,-387.136 1939.24,-356 1988.04,-317.78 1955.59,-278.959 1984.24,-224 1989.44,-214.033 1996.71,-203.856 2003.1,-195.708"/>
<polygon fill="midnightblue" stroke="midnightblue" points="2005.96,-197.736 2009.55,-187.768 2000.53,-193.321 2005.96,-197.736"/>
</g>
<!-- Node43 -->
<g id="node43" class="node"><title>Node43</title>
<g id="a_node43"><a xlink:href="amount_8h.html" target="_top" xlink:title="amount.h">
<polygon fill="white" stroke="black" points="1115.74,-168.5 1115.74,-187.5 1178.74,-187.5 1178.74,-168.5 1115.74,-168.5"/>
<text text-anchor="middle" x="1147.24" y="-175.5" font-family="Helvetica,sans-Serif" font-size="10.00">amount.h</text>
</a>
</g>
</g>
<!-- Node2&#45;&gt;Node43 -->
<g id="edge86" class="edge"><title>Node2&#45;&gt;Node43</title>
<path fill="none" stroke="midnightblue" d="M1400.54,-399.33C1365.29,-395.764 1292.2,-385.196 1238.24,-356 1174.08,-321.279 1147.32,-310.909 1118.24,-244 1111.05,-227.452 1121.5,-208.635 1131.8,-195.521"/>
<polygon fill="midnightblue" stroke="midnightblue" points="1134.55,-197.692 1138.37,-187.807 1129.22,-193.155 1134.55,-197.692"/>
</g>
<!-- Node44 -->
<g id="node44" class="node"><title>Node44</title>
<g id="a_node44"><a xlink:href="bloom_8h.html" target="_top" xlink:title="bloom.h">
<polygon fill="white" stroke="black" points="607.244,-224.5 607.244,-243.5 663.244,-243.5 663.244,-224.5 607.244,-224.5"/>
<text text-anchor="middle" x="635.244" y="-231.5" font-family="Helvetica,sans-Serif" font-size="10.00">bloom.h</text>
</a>
</g>
</g>
<!-- Node2&#45;&gt;Node44 -->
<g id="edge88" class="edge"><title>Node2&#45;&gt;Node44</title>
<path fill="none" stroke="midnightblue" d="M1400.69,-400.589C1305.87,-398.533 910.2,-388.149 791.244,-356 736.75,-341.272 719.427,-337.513 677.244,-300 662.379,-286.78 650.659,-267.109 643.42,-252.871"/>
<polygon fill="midnightblue" stroke="midnightblue" points="646.459,-251.117 638.958,-243.634 640.156,-254.161 646.459,-251.117"/>
</g>
<!-- Node45 -->
<g id="node45" class="node"><title>Node45</title>
<g id="a_node45"><a xlink:href="hash_8h.html" target="_top" xlink:title="hash.h">
<polygon fill="white" stroke="red" points="539.744,-224.5 539.744,-243.5 588.744,-243.5 588.744,-224.5 539.744,-224.5"/>
<text text-anchor="middle" x="564.244" y="-231.5" font-family="Helvetica,sans-Serif" font-size="10.00">hash.h</text>
</a>
</g>
</g>
<!-- Node2&#45;&gt;Node45 -->
<g id="edge92" class="edge"><title>Node2&#45;&gt;Node45</title>
<path fill="none" stroke="midnightblue" d="M1400.47,-401.234C1298.93,-402.142 854.588,-403.299 726.244,-356 664.155,-333.118 605.669,-278.33 579.143,-251.028"/>
<polygon fill="midnightblue" stroke="midnightblue" points="581.402,-248.326 571.969,-243.504 576.336,-253.156 581.402,-248.326"/>
</g>
<!-- Node46 -->
<g id="node46" class="node"><title>Node46</title>
<g id="a_node46"><a xlink:href="limitedmap_8h.html" target="_top" xlink:title="limitedmap.h">
<polygon fill="white" stroke="black" points="1515.24,-168.5 1515.24,-187.5 1595.24,-187.5 1595.24,-168.5 1515.24,-168.5"/>
<text text-anchor="middle" x="1555.24" y="-175.5" font-family="Helvetica,sans-Serif" font-size="10.00">limitedmap.h</text>
</a>
</g>
</g>
<!-- Node2&#45;&gt;Node46 -->
<g id="edge97" class="edge"><title>Node2&#45;&gt;Node46</title>
<path fill="none" stroke="midnightblue" d="M1426.5,-392.297C1446.42,-359.286 1517.58,-241.404 1544.67,-196.522"/>
<polygon fill="midnightblue" stroke="midnightblue" points="1547.71,-198.254 1549.88,-187.884 1541.72,-194.636 1547.71,-198.254"/>
</g>
<!-- Node47 -->
<g id="node47" class="node"><title>Node47</title>
<g id="a_node47"><a xlink:href="feerate_8h.html" target="_top" xlink:title="policy/feerate.h">
<polygon fill="white" stroke="black" points="1127.24,-224.5 1127.24,-243.5 1217.24,-243.5 1217.24,-224.5 1127.24,-224.5"/>
<text text-anchor="middle" x="1172.24" y="-231.5" font-family="Helvetica,sans-Serif" font-size="10.00">policy/feerate.h</text>
</a>
</g>
</g>
<!-- Node2&#45;&gt;Node47 -->
<g id="edge101" class="edge"><title>Node2&#45;&gt;Node47</title>
<path fill="none" stroke="midnightblue" d="M1416.86,-392.495C1405.04,-370.43 1370.29,-310.924 1324.24,-280 1307.15,-268.52 1258.11,-255.087 1220.31,-245.905"/>
<polygon fill="midnightblue" stroke="midnightblue" points="1221.02,-242.476 1210.48,-243.55 1219.39,-249.283 1221.02,-242.476"/>
</g>
<!-- Node48 -->
<g id="node48" class="node"><title>Node48</title>
<g id="a_node48"><a xlink:href="streams_8h.html" target="_top" xlink:title="streams.h">
<polygon fill="white" stroke="red" points="309.744,-224.5 309.744,-243.5 374.744,-243.5 374.744,-224.5 309.744,-224.5"/>
<text text-anchor="middle" x="342.244" y="-231.5" font-family="Helvetica,sans-Serif" font-size="10.00">streams.h</text>
</a>
</g>
</g>
<!-- Node2&#45;&gt;Node48 -->
<g id="edge107" class="edge"><title>Node2&#45;&gt;Node48</title>
<path fill="none" stroke="midnightblue" d="M1400.5,-400.514C1296.03,-397.948 826.824,-384.98 684.244,-356 563.43,-331.444 427.417,-273.696 370.084,-247.873"/>
<polygon fill="midnightblue" stroke="midnightblue" points="371.181,-244.527 360.629,-243.581 368.288,-250.901 371.181,-244.527"/>
</g>
<!-- Node49 -->
<g id="node49" class="node"><title>Node49</title>
<g id="a_node49"><a xlink:href="threadinterrupt_8h.html" target="_top" xlink:title="threadinterrupt.h">
<polygon fill="white" stroke="red" points="1991.24,-280.5 1991.24,-299.5 2089.24,-299.5 2089.24,-280.5 1991.24,-280.5"/>
<text text-anchor="middle" x="2040.24" y="-287.5" font-family="Helvetica,sans-Serif" font-size="10.00">threadinterrupt.h</text>
</a>
</g>
</g>
<!-- Node2&#45;&gt;Node49 -->
<g id="edge122" class="edge"><title>Node2&#45;&gt;Node49</title>
<path fill="none" stroke="midnightblue" d="M1442.01,-401.249C1530.96,-402.026 1879.7,-402.028 1977.24,-356 1999.37,-345.559 2017.89,-323.777 2029,-308.31"/>
<polygon fill="midnightblue" stroke="midnightblue" points="2032.16,-309.882 2034.93,-299.653 2026.39,-305.926 2032.16,-309.882"/>
</g>
<!-- Node50 -->
<g id="node50" class="node"><title>Node50</title>
<polygon fill="white" stroke="#bfbfbf" points="2221.74,-336.5 2221.74,-355.5 2268.74,-355.5 2268.74,-336.5 2221.74,-336.5"/>
<text text-anchor="middle" x="2245.24" y="-343.5" font-family="Helvetica,sans-Serif" font-size="10.00">deque</text>
</g>
<!-- Node2&#45;&gt;Node50 -->
<g id="edge126" class="edge"><title>Node2&#45;&gt;Node50</title>
<path fill="none" stroke="midnightblue" d="M1442.02,-401.143C1533.07,-401.491 1905.64,-400.003 2207.24,-356 2208.71,-355.786 2210.21,-355.543 2211.71,-355.277"/>
<polygon fill="midnightblue" stroke="midnightblue" points="2212.54,-358.679 2221.65,-353.264 2211.16,-351.819 2212.54,-358.679"/>
</g>
<!-- Node4 -->
<g id="node4" class="node"><title>Node4</title>
<g id="a_node4"><a xlink:href="fs_8h.html" target="_top" xlink:title="fs.h">
<polygon fill="white" stroke="red" points="1425.24,-168.5 1425.24,-187.5 1459.24,-187.5 1459.24,-168.5 1425.24,-168.5"/>
<text text-anchor="middle" x="1442.24" y="-175.5" font-family="Helvetica,sans-Serif" font-size="10.00">fs.h</text>
</a>
</g>
</g>
<!-- Node3&#45;&gt;Node4 -->
<g id="edge3" class="edge"><title>Node3&#45;&gt;Node4</title>
<path fill="none" stroke="midnightblue" d="M1424.71,-224.083C1427.56,-216.77 1431.67,-206.181 1435.2,-197.103"/>
<polygon fill="midnightblue" stroke="midnightblue" points="1438.48,-198.34 1438.84,-187.751 1431.95,-195.803 1438.48,-198.34"/>
</g>
<!-- Node5 -->
<g id="node5" class="node"><title>Node5</title>
<polygon fill="white" stroke="#bfbfbf" points="1261.24,-112.5 1261.24,-131.5 1305.24,-131.5 1305.24,-112.5 1261.24,-112.5"/>
<text text-anchor="middle" x="1283.24" y="-119.5" font-family="Helvetica,sans-Serif" font-size="10.00">string</text>
</g>
<!-- Node3&#45;&gt;Node5 -->
<g id="edge38" class="edge"><title>Node3&#45;&gt;Node5</title>
<path fill="none" stroke="midnightblue" d="M1416.68,-224.41C1409.15,-210.924 1393,-184.612 1373.24,-168 1355.9,-153.419 1333.03,-142.062 1314.69,-134.405"/>
<polygon fill="midnightblue" stroke="midnightblue" points="1315.88,-131.111 1305.29,-130.638 1313.27,-137.608 1315.88,-131.111"/>
</g>
<!-- Node3&#45;&gt;Node6 -->
<g id="edge5" class="edge"><title>Node3&#45;&gt;Node6</title>
<path fill="none" stroke="midnightblue" d="M1391.51,-231.627C1353.27,-229.861 1284.81,-226.7 1226.24,-224 881.999,-208.132 790.913,-232.981 445.852,-187.994"/>
<polygon fill="midnightblue" stroke="midnightblue" points="446.2,-184.509 435.829,-186.677 445.288,-191.45 446.2,-184.509"/>
</g>
<!-- Node13 -->
<g id="node13" class="node"><title>Node13</title>
<polygon fill="white" stroke="#bfbfbf" points="1473.24,-112.5 1473.24,-131.5 1511.24,-131.5 1511.24,-112.5 1473.24,-112.5"/>
<text text-anchor="middle" x="1492.24" y="-119.5" font-family="Helvetica,sans-Serif" font-size="10.00">map</text>
</g>
<!-- Node3&#45;&gt;Node13 -->
<g id="edge39" class="edge"><title>Node3&#45;&gt;Node13</title>
<path fill="none" stroke="midnightblue" d="M1433.14,-224.19C1443.63,-215.877 1458.7,-202.548 1468.24,-188 1477.62,-173.697 1483.99,-155.23 1487.79,-141.638"/>
<polygon fill="midnightblue" stroke="midnightblue" points="1491.28,-142.122 1490.4,-131.564 1484.51,-140.37 1491.28,-142.122"/>
</g>
<!-- Node4&#45;&gt;Node5 -->
<g id="edge4" class="edge"><title>Node4&#45;&gt;Node5</title>
<path fill="none" stroke="midnightblue" d="M1425.23,-171.221C1399.02,-162.32 1348.33,-145.106 1315.15,-133.836"/>
<polygon fill="midnightblue" stroke="midnightblue" points="1316.06,-130.448 1305.46,-130.546 1313.81,-137.076 1316.06,-130.448"/>
</g>
<!-- Node6&#45;&gt;Node5 -->
<g id="edge16" class="edge"><title>Node6&#45;&gt;Node5</title>
<path fill="none" stroke="midnightblue" d="M435.832,-169.346C438.667,-168.832 441.5,-168.372 444.244,-168 604.681,-146.236 1117.75,-128.38 1251.25,-124.019"/>
<polygon fill="midnightblue" stroke="midnightblue" points="1251.36,-127.518 1261.24,-123.695 1251.13,-120.521 1251.36,-127.518"/>
</g>
<!-- Node7 -->
<g id="node7" class="node"><title>Node7</title>
<g id="a_node7"><a xlink:href="endian_8h.html" target="_top" xlink:title="compat/endian.h">
<polygon fill="white" stroke="red" points="452.244,-112.5 452.244,-131.5 550.244,-131.5 550.244,-112.5 452.244,-112.5"/>
<text text-anchor="middle" x="501.244" y="-119.5" font-family="Helvetica,sans-Serif" font-size="10.00">compat/endian.h</text>
</a>
</g>
</g>
<!-- Node6&#45;&gt;Node7 -->
<g id="edge6" class="edge"><title>Node6&#45;&gt;Node7</title>
<path fill="none" stroke="midnightblue" d="M418.99,-168.324C434.563,-159.743 458.621,-146.486 476.704,-136.522"/>
<polygon fill="midnightblue" stroke="midnightblue" points="478.469,-139.546 485.538,-131.655 475.09,-133.415 478.469,-139.546"/>
</g>
<!-- Node6&#45;&gt;Node8 -->
<g id="edge15" class="edge"><title>Node6&#45;&gt;Node8</title>
<path fill="none" stroke="midnightblue" d="M435.885,-169.669C438.709,-169.085 441.524,-168.521 444.244,-168 541.555,-149.372 571.07,-165.691 664.244,-132 680.731,-126.039 681.73,-117.885 698.244,-112 786.304,-80.6205 896.977,-71.113 953.433,-68.2394"/>
<polygon fill="midnightblue" stroke="midnightblue" points="953.827,-71.7249 963.653,-67.7624 953.5,-64.7325 953.827,-71.7249"/>
</g>
<!-- Node9 -->
<g id="node9" class="node"><title>Node9</title>
<polygon fill="white" stroke="#bfbfbf" points="372.244,-112.5 372.244,-131.5 434.244,-131.5 434.244,-112.5 372.244,-112.5"/>
<text text-anchor="middle" x="403.244" y="-119.5" font-family="Helvetica,sans-Serif" font-size="10.00">algorithm</text>
</g>
<!-- Node6&#45;&gt;Node9 -->
<g id="edge8" class="edge"><title>Node6&#45;&gt;Node9</title>
<path fill="none" stroke="midnightblue" d="M403.244,-168.083C403.244,-161.006 403.244,-150.861 403.244,-141.986"/>
<polygon fill="midnightblue" stroke="midnightblue" points="406.744,-141.751 403.244,-131.751 399.744,-141.751 406.744,-141.751"/>
</g>
<!-- Node10 -->
<g id="node10" class="node"><title>Node10</title>
<polygon fill="white" stroke="#bfbfbf" points="432.244,-56.5 432.244,-75.5 488.244,-75.5 488.244,-56.5 432.244,-56.5"/>
<text text-anchor="middle" x="460.244" y="-63.5" font-family="Helvetica,sans-Serif" font-size="10.00">assert.h</text>
</g>
<!-- Node6&#45;&gt;Node10 -->
<g id="edge9" class="edge"><title>Node6&#45;&gt;Node10</title>
<path fill="none" stroke="midnightblue" d="M391.101,-168.322C375.123,-155.805 350.481,-131.991 363.244,-112 376.18,-91.7382 400.848,-80.4606 422.07,-74.2625"/>
<polygon fill="midnightblue" stroke="midnightblue" points="423.057,-77.6217 431.832,-71.6844 421.27,-70.8537 423.057,-77.6217"/>
</g>
<!-- Node11 -->
<g id="node11" class="node"><title>Node11</title>
<polygon fill="white" stroke="#bfbfbf" points="38.2442,-112.5 38.2442,-131.5 68.2442,-131.5 68.2442,-112.5 38.2442,-112.5"/>
<text text-anchor="middle" x="53.2442" y="-119.5" font-family="Helvetica,sans-Serif" font-size="10.00">ios</text>
</g>
<!-- Node6&#45;&gt;Node11 -->
<g id="edge10" class="edge"><title>Node6&#45;&gt;Node11</title>
<path fill="none" stroke="midnightblue" d="M370.396,-174.882C312.76,-170.649 189.707,-159.31 78.0497,-131.688"/>
<polygon fill="midnightblue" stroke="midnightblue" points="78.8702,-128.285 68.3177,-129.231 77.1567,-135.072 78.8702,-128.285"/>
</g>
<!-- Node12 -->
<g id="node12" class="node"><title>Node12</title>
<polygon fill="white" stroke="#bfbfbf" points="146.244,-112.5 146.244,-131.5 188.244,-131.5 188.244,-112.5 146.244,-112.5"/>
<text text-anchor="middle" x="167.244" y="-119.5" font-family="Helvetica,sans-Serif" font-size="10.00">limits</text>
</g>
<!-- Node6&#45;&gt;Node12 -->
<g id="edge11" class="edge"><title>Node6&#45;&gt;Node12</title>
<path fill="none" stroke="midnightblue" d="M370.445,-169.988C330.593,-161.393 261.351,-146.212 202.244,-132 200.975,-131.695 199.68,-131.38 198.373,-131.058"/>
<polygon fill="midnightblue" stroke="midnightblue" points="198.868,-127.574 188.317,-128.533 197.163,-134.363 198.868,-127.574"/>
</g>
<!-- Node6&#45;&gt;Node13 -->
<g id="edge12" class="edge"><title>Node6&#45;&gt;Node13</title>
<path fill="none" stroke="midnightblue" d="M435.828,-169.309C438.663,-168.804 441.498,-168.355 444.244,-168 828.04,-118.323 927.655,-149.771 1314.24,-132 1366.63,-129.592 1427.66,-126.428 1462.94,-124.564"/>
<polygon fill="midnightblue" stroke="midnightblue" points="1463.22,-128.054 1473.02,-124.03 1462.85,-121.064 1463.22,-128.054"/>
</g>
<!-- Node6&#45;&gt;Node14 -->
<g id="edge13" class="edge"><title>Node6&#45;&gt;Node14</title>
<path fill="none" stroke="midnightblue" d="M435.824,-169.28C438.661,-168.781 441.496,-168.342 444.244,-168 514.943,-159.201 1610.67,-129.863 1831.6,-124.018"/>
<polygon fill="midnightblue" stroke="midnightblue" points="1831.84,-127.513 1841.74,-123.75 1831.65,-120.515 1831.84,-127.513"/>
</g>
<!-- Node15 -->
<g id="node15" class="node"><title>Node15</title>
<polygon fill="white" stroke="#bfbfbf" points="854.244,-112.5 854.244,-131.5 886.244,-131.5 886.244,-112.5 854.244,-112.5"/>
<text text-anchor="middle" x="870.244" y="-119.5" font-family="Helvetica,sans-Serif" font-size="10.00">set</text>
</g>
<!-- Node6&#45;&gt;Node15 -->
<g id="edge14" class="edge"><title>Node6&#45;&gt;Node15</title>
<path fill="none" stroke="midnightblue" d="M435.848,-169.454C438.679,-168.917 441.507,-168.422 444.244,-168 620.658,-140.81 669.725,-169.471 844.244,-132 844.346,-131.978 844.449,-131.956 844.551,-131.933"/>
<polygon fill="midnightblue" stroke="midnightblue" points="845.503,-135.302 854.19,-129.238 843.617,-128.56 845.503,-135.302"/>
</g>
<!-- Node16 -->
<g id="node16" class="node"><title>Node16</title>
<polygon fill="white" stroke="#bfbfbf" points="189.744,-56.5 189.744,-75.5 242.744,-75.5 242.744,-56.5 189.744,-56.5"/>
<text text-anchor="middle" x="216.244" y="-63.5" font-family="Helvetica,sans-Serif" font-size="10.00">string.h</text>
</g>
<!-- Node6&#45;&gt;Node16 -->
<g id="edge17" class="edge"><title>Node6&#45;&gt;Node16</title>
<path fill="none" stroke="midnightblue" d="M370.532,-177.287C332.898,-175.808 271.626,-167.566 235.244,-132 223.038,-120.068 218.566,-100.763 216.981,-86.286"/>
<polygon fill="midnightblue" stroke="midnightblue" points="220.446,-85.6669 216.237,-75.9441 213.464,-86.1696 220.446,-85.6669"/>
</g>
<!-- Node17 -->
<g id="node17" class="node"><title>Node17</title>
<polygon fill="white" stroke="#bfbfbf" points="86.2442,-112.5 86.2442,-131.5 128.244,-131.5 128.244,-112.5 86.2442,-112.5"/>
<text text-anchor="middle" x="107.244" y="-119.5" font-family="Helvetica,sans-Serif" font-size="10.00">utility</text>
</g>
<!-- Node6&#45;&gt;Node17 -->
<g id="edge18" class="edge"><title>Node6&#45;&gt;Node17</title>
<path fill="none" stroke="midnightblue" d="M370.638,-172.811C322.046,-166.281 227.623,-152.491 138.464,-132.047"/>
<polygon fill="midnightblue" stroke="midnightblue" points="138.995,-128.577 128.462,-129.72 137.409,-135.395 138.995,-128.577"/>
</g>
<!-- Node18 -->
<g id="node18" class="node"><title>Node18</title>
<polygon fill="white" stroke="#bfbfbf" points="788.744,-112.5 788.744,-131.5 835.744,-131.5 835.744,-112.5 788.744,-112.5"/>
<text text-anchor="middle" x="812.244" y="-119.5" font-family="Helvetica,sans-Serif" font-size="10.00">vector</text>
</g>
<!-- Node6&#45;&gt;Node18 -->
<g id="edge19" class="edge"><title>Node6&#45;&gt;Node18</title>
<path fill="none" stroke="midnightblue" d="M435.864,-169.549C438.692,-168.991 441.514,-168.465 444.244,-168 566.554,-147.145 713.325,-132.182 778.368,-126.063"/>
<polygon fill="midnightblue" stroke="midnightblue" points="778.82,-129.536 788.452,-125.124 778.171,-122.566 778.82,-129.536"/>
</g>
<!-- Node19 -->
<g id="node19" class="node"><title>Node19</title>
<g id="a_node19"><a xlink:href="prevector_8h.html" target="_top" xlink:title="prevector.h">
<polygon fill="white" stroke="red" points="244.744,-112.5 244.744,-131.5 315.744,-131.5 315.744,-112.5 244.744,-112.5"/>
<text text-anchor="middle" x="280.244" y="-119.5" font-family="Helvetica,sans-Serif" font-size="10.00">prevector.h</text>
</a>
</g>
</g>
<!-- Node6&#45;&gt;Node19 -->
<g id="edge20" class="edge"><title>Node6&#45;&gt;Node19</title>
<path fill="none" stroke="midnightblue" d="M383.754,-168.444C363.602,-159.596 331.921,-145.687 308.913,-135.586"/>
<polygon fill="midnightblue" stroke="midnightblue" points="310.206,-132.332 299.643,-131.516 307.392,-138.741 310.206,-132.332"/>
</g>
<!-- Node31 -->
<g id="node31" class="node"><title>Node31</title>
<g id="a_node31"><a xlink:href="span_8h.html" target="_top" xlink:title="span.h">
<polygon fill="white" stroke="red" points="606.744,-112.5 606.744,-131.5 655.744,-131.5 655.744,-112.5 606.744,-112.5"/>
<text text-anchor="middle" x="631.244" y="-119.5" font-family="Helvetica,sans-Serif" font-size="10.00">span.h</text>
</a>
</g>
</g>
<!-- Node6&#45;&gt;Node31 -->
<g id="edge36" class="edge"><title>Node6&#45;&gt;Node31</title>
<path fill="none" stroke="midnightblue" d="M435.911,-169.263C478.659,-159.139 553.243,-141.474 596.836,-131.149"/>
<polygon fill="midnightblue" stroke="midnightblue" points="597.766,-134.526 606.69,-128.815 596.153,-127.714 597.766,-134.526"/>
</g>
<!-- Node7&#45;&gt;Node8 -->
<g id="edge7" class="edge"><title>Node7&#45;&gt;Node8</title>
<path fill="none" stroke="midnightblue" d="M550.37,-115.575C648.484,-104.74 866.712,-80.6416 953.559,-71.0512"/>
<polygon fill="midnightblue" stroke="midnightblue" points="954.166,-74.5054 963.722,-69.9289 953.398,-67.5477 954.166,-74.5054"/>
</g>
<!-- Node19&#45;&gt;Node8 -->
<g id="edge22" class="edge"><title>Node19&#45;&gt;Node8</title>
<path fill="none" stroke="midnightblue" d="M315.759,-116.862C330.445,-115.226 347.654,-113.404 363.244,-112 587.183,-91.8294 856.775,-74.979 953.495,-69.169"/>
<polygon fill="midnightblue" stroke="midnightblue" points="953.859,-72.6536 963.632,-68.5625 953.441,-65.6661 953.859,-72.6536"/>
</g>
<!-- Node19&#45;&gt;Node10 -->
<g id="edge21" class="edge"><title>Node19&#45;&gt;Node10</title>
<path fill="none" stroke="midnightblue" d="M308.766,-112.444C339.4,-103.253 388.239,-88.6017 422.146,-78.4296"/>
<polygon fill="midnightblue" stroke="midnightblue" points="423.58,-81.6535 432.152,-75.4275 421.568,-74.9487 423.58,-81.6535"/>
</g>
<!-- Node19&#45;&gt;Node16 -->
<g id="edge23" class="edge"><title>Node19&#45;&gt;Node16</title>
<path fill="none" stroke="midnightblue" d="M269.962,-112.324C260.408,-104.263 245.965,-92.0765 234.46,-82.3695"/>
<polygon fill="midnightblue" stroke="midnightblue" points="236.614,-79.6076 226.714,-75.8339 232.1,-84.9577 236.614,-79.6076"/>
</g>
<!-- Node20 -->
<g id="node20" class="node"><title>Node20</title>
<polygon fill="white" stroke="#bfbfbf" points="597.244,-0.5 597.244,-19.5 665.244,-19.5 665.244,-0.5 597.244,-0.5"/>
<text text-anchor="middle" x="631.244" y="-7.5" font-family="Helvetica,sans-Serif" font-size="10.00">type_traits</text>
</g>
<!-- Node19&#45;&gt;Node20 -->
<g id="edge24" class="edge"><title>Node19&#45;&gt;Node20</title>
<path fill="none" stroke="midnightblue" d="M296.09,-112.434C322,-98.744 375.352,-71.8627 423.244,-56 478.488,-37.7022 544.494,-24.8852 587.105,-17.7317"/>
<polygon fill="midnightblue" stroke="midnightblue" points="587.85,-21.1561 597.149,-16.0778 586.713,-14.2492 587.85,-21.1561"/>
</g>
<!-- Node19&#45;&gt;Node21 -->
<g id="edge25" class="edge"><title>Node19&#45;&gt;Node21</title>
<path fill="none" stroke="midnightblue" d="M316.142,-116.489C330.734,-114.817 347.772,-113.069 363.244,-112 941.57,-72.0428 1647.58,-67.5472 1823.88,-67.0566"/>
<polygon fill="midnightblue" stroke="midnightblue" points="1824.02,-70.5564 1834.01,-67.0313 1824,-63.5564 1824.02,-70.5564"/>
</g>
<!-- Node21&#45;&gt;Node20 -->
<g id="edge26" class="edge"><title>Node21&#45;&gt;Node20</title>
<path fill="none" stroke="midnightblue" d="M1834.12,-63.6382C1666.66,-56.31 872.975,-21.5782 675.71,-12.9458"/>
<polygon fill="midnightblue" stroke="midnightblue" points="675.578,-9.43681 665.435,-12.4962 675.272,-16.4301 675.578,-9.43681"/>
</g>
<!-- Node22 -->
<g id="node22" class="node"><title>Node22</title>
<polygon fill="white" stroke="#bfbfbf" points="2053.24,-0.5 2053.24,-19.5 2099.24,-19.5 2099.24,-0.5 2053.24,-0.5"/>
<text text-anchor="middle" x="2076.24" y="-7.5" font-family="Helvetica,sans-Serif" font-size="10.00">fcntl.h</text>
</g>
<!-- Node21&#45;&gt;Node22 -->
<g id="edge27" class="edge"><title>Node21&#45;&gt;Node22</title>
<path fill="none" stroke="midnightblue" d="M1896.48,-57.2905C1932.06,-48.4654 1991.91,-33.4866 2043.24,-20 2043.34,-19.9736 2043.45,-19.9471 2043.55,-19.9206"/>
<polygon fill="midnightblue" stroke="midnightblue" points="2044.42,-23.3097 2053.18,-17.349 2042.62,-16.5465 2044.42,-23.3097"/>
</g>
<!-- Node23 -->
<g id="node23" class="node"><title>Node23</title>
<polygon fill="white" stroke="#bfbfbf" points="2117.24,-0.5 2117.24,-19.5 2193.24,-19.5 2193.24,-0.5 2117.24,-0.5"/>
<text text-anchor="middle" x="2155.24" y="-7.5" font-family="Helvetica,sans-Serif" font-size="10.00">sys/mman.h</text>
</g>
<!-- Node21&#45;&gt;Node23 -->
<g id="edge28" class="edge"><title>Node21&#45;&gt;Node23</title>
<path fill="none" stroke="midnightblue" d="M1896.33,-59.3066C1940.74,-51.1568 2025.21,-35.6095 2107.06,-20.2143"/>
<polygon fill="midnightblue" stroke="midnightblue" points="2107.85,-23.6277 2117.03,-18.3381 2106.55,-16.7486 2107.85,-23.6277"/>
</g>
<!-- Node24 -->
<g id="node24" class="node"><title>Node24</title>
<polygon fill="white" stroke="#bfbfbf" points="1526.74,-0.5 1526.74,-19.5 1599.74,-19.5 1599.74,-0.5 1526.74,-0.5"/>
<text text-anchor="middle" x="1563.24" y="-7.5" font-family="Helvetica,sans-Serif" font-size="10.00">sys/select.h</text>
</g>
<!-- Node21&#45;&gt;Node24 -->
<g id="edge29" class="edge"><title>Node21&#45;&gt;Node24</title>
<path fill="none" stroke="midnightblue" d="M1834.08,-59.7201C1787.63,-51.8085 1697.25,-36.247 1609.97,-20.1043"/>
<polygon fill="midnightblue" stroke="midnightblue" points="1610.36,-16.6181 1599.89,-18.2357 1609.08,-23.5007 1610.36,-16.6181"/>
</g>
<!-- Node25 -->
<g id="node25" class="node"><title>Node25</title>
<polygon fill="white" stroke="#bfbfbf" points="1618.24,-0.5 1618.24,-19.5 1694.24,-19.5 1694.24,-0.5 1618.24,-0.5"/>
<text text-anchor="middle" x="1656.24" y="-7.5" font-family="Helvetica,sans-Serif" font-size="10.00">sys/socket.h</text>
</g>
<!-- Node21&#45;&gt;Node25 -->
<g id="edge30" class="edge"><title>Node21&#45;&gt;Node25</title>
<path fill="none" stroke="midnightblue" d="M1833.95,-56.9157C1798.16,-47.6665 1739.33,-32.4659 1699.24,-22.1088"/>
<polygon fill="midnightblue" stroke="midnightblue" points="1700.03,-18.6995 1689.48,-19.5865 1698.28,-25.4769 1700.03,-18.6995"/>
</g>
<!-- Node26 -->
<g id="node26" class="node"><title>Node26</title>
<polygon fill="white" stroke="#bfbfbf" points="1712.74,-0.5 1712.74,-19.5 1783.74,-19.5 1783.74,-0.5 1712.74,-0.5"/>
<text text-anchor="middle" x="1748.24" y="-7.5" font-family="Helvetica,sans-Serif" font-size="10.00">sys/types.h</text>
</g>
<!-- Node21&#45;&gt;Node26 -->
<g id="edge31" class="edge"><title>Node21&#45;&gt;Node26</title>
<path fill="none" stroke="midnightblue" d="M1846.71,-56.4435C1827.62,-47.6356 1797.67,-33.8116 1775.81,-23.722"/>
<polygon fill="midnightblue" stroke="midnightblue" points="1777.24,-20.5292 1766.7,-19.5164 1774.31,-26.8849 1777.24,-20.5292"/>
</g>
<!-- Node27 -->
<g id="node27" class="node"><title>Node27</title>
<polygon fill="white" stroke="#bfbfbf" points="1801.74,-0.5 1801.74,-19.5 1850.74,-19.5 1850.74,-0.5 1801.74,-0.5"/>
<text text-anchor="middle" x="1826.24" y="-7.5" font-family="Helvetica,sans-Serif" font-size="10.00">net/if.h</text>
</g>
<!-- Node21&#45;&gt;Node27 -->
<g id="edge32" class="edge"><title>Node21&#45;&gt;Node27</title>
<path fill="none" stroke="midnightblue" d="M1858.8,-56.083C1853.3,-48.4554 1845.21,-37.2645 1838.48,-27.9408"/>
<polygon fill="midnightblue" stroke="midnightblue" points="1841.26,-25.8087 1832.56,-19.7511 1835.58,-29.9071 1841.26,-25.8087"/>
</g>
<!-- Node28 -->
<g id="node28" class="node"><title>Node28</title>
<polygon fill="white" stroke="#bfbfbf" points="1868.74,-0.5 1868.74,-19.5 1939.74,-19.5 1939.74,-0.5 1868.74,-0.5"/>
<text text-anchor="middle" x="1904.24" y="-7.5" font-family="Helvetica,sans-Serif" font-size="10.00">netinet/in.h</text>
</g>
<!-- Node21&#45;&gt;Node28 -->
<g id="edge33" class="edge"><title>Node21&#45;&gt;Node28</title>
<path fill="none" stroke="midnightblue" d="M1871.68,-56.083C1877.19,-48.4554 1885.28,-37.2645 1892.01,-27.9408"/>
<polygon fill="midnightblue" stroke="midnightblue" points="1894.91,-29.9071 1897.92,-19.7511 1889.23,-25.8087 1894.91,-29.9071"/>
</g>
<!-- Node29 -->
<g id="node29" class="node"><title>Node29</title>
<polygon fill="white" stroke="#bfbfbf" points="1957.74,-0.5 1957.74,-19.5 2034.74,-19.5 2034.74,-0.5 1957.74,-0.5"/>
<text text-anchor="middle" x="1996.24" y="-7.5" font-family="Helvetica,sans-Serif" font-size="10.00">netinet/tcp.h</text>
</g>
<!-- Node21&#45;&gt;Node29 -->
<g id="edge34" class="edge"><title>Node21&#45;&gt;Node29</title>
<path fill="none" stroke="midnightblue" d="M1886,-56.4435C1907.56,-47.5566 1941.51,-33.5632 1966.04,-23.4514"/>
<polygon fill="midnightblue" stroke="midnightblue" points="1967.67,-26.5634 1975.58,-19.5164 1965,-20.0917 1967.67,-26.5634"/>
</g>
<!-- Node21&#45;&gt;Node30 -->
<g id="edge35" class="edge"><title>Node21&#45;&gt;Node30</title>
<path fill="none" stroke="midnightblue" d="M1896.43,-60.8524C1968.01,-51.3315 2144.29,-27.885 2227.03,-16.8812"/>
<polygon fill="midnightblue" stroke="midnightblue" points="2227.66,-20.3277 2237.11,-15.5397 2226.74,-13.3888 2227.66,-20.3277"/>
</g>
<!-- Node31&#45;&gt;Node20 -->
<g id="edge37" class="edge"><title>Node31&#45;&gt;Node20</title>
<path fill="none" stroke="midnightblue" d="M631.244,-112.368C631.244,-94.617 631.244,-53.6664 631.244,-29.5974"/>
<polygon fill="midnightblue" stroke="midnightblue" points="634.744,-29.5914 631.244,-19.5914 627.744,-29.5915 634.744,-29.5914"/>
</g>
<!-- Node32&#45;&gt;Node8 -->
<g id="edge84" class="edge"><title>Node32&#45;&gt;Node8</title>
<path fill="none" stroke="midnightblue" d="M1316.82,-342.523C1411.58,-334.015 1665.5,-298.836 1620.24,-168 1609.9,-138.086 1604.16,-126.917 1576.24,-112 1527.92,-86.1813 1148.24,-72.0114 1027.19,-68.1167"/>
<polygon fill="midnightblue" stroke="midnightblue" points="1027.06,-64.6109 1016.95,-67.7921 1026.84,-71.6074 1027.06,-64.6109"/>
</g>
<!-- Node32&#45;&gt;Node13 -->
<g id="edge82" class="edge"><title>Node32&#45;&gt;Node13</title>
<path fill="none" stroke="midnightblue" d="M1316.96,-343.449C1406.09,-339.113 1637.62,-325.48 1660.24,-300 1700.54,-254.617 1668.18,-210.899 1625.24,-168 1597.29,-140.072 1551.42,-129.47 1521.52,-125.449"/>
<polygon fill="midnightblue" stroke="midnightblue" points="1521.63,-121.939 1511.29,-124.246 1520.81,-128.891 1521.63,-121.939"/>
</g>
<!-- Node32&#45;&gt;Node15 -->
<g id="edge83" class="edge"><title>Node32&#45;&gt;Node15</title>
<path fill="none" stroke="midnightblue" d="M1257.17,-336.375C1207.45,-319.277 1100.41,-282.507 1092.24,-280 1034.11,-262.149 1015.73,-268.891 960.244,-244 949.84,-239.332 879.984,-197.853 874.244,-188 866.152,-174.11 865.815,-155.597 867.115,-141.882"/>
<polygon fill="midnightblue" stroke="midnightblue" points="870.62,-142.069 868.457,-131.697 863.68,-141.154 870.62,-142.069"/>
</g>
<!-- Node32&#45;&gt;Node18 -->
<g id="edge85" class="edge"><title>Node32&#45;&gt;Node18</title>
<path fill="none" stroke="midnightblue" d="M1247.64,-341.338C1152.64,-330.682 890.513,-297.046 824.244,-244 796.02,-221.407 788.75,-203.565 795.244,-168 796.932,-158.757 800.419,-148.948 803.799,-140.855"/>
<polygon fill="midnightblue" stroke="midnightblue" points="807.008,-142.252 807.878,-131.693 800.613,-139.405 807.008,-142.252"/>
</g>
<!-- Node32&#45;&gt;Node33 -->
<g id="edge41" class="edge"><title>Node32&#45;&gt;Node33</title>
<path fill="none" stroke="midnightblue" d="M1250.49,-336.46C1177.25,-316.762 996.515,-268.154 914.685,-246.146"/>
<polygon fill="midnightblue" stroke="midnightblue" points="915.543,-242.752 904.977,-243.535 913.725,-249.512 915.543,-242.752"/>
</g>
<!-- Node32&#45;&gt;Node34 -->
<g id="edge48" class="edge"><title>Node32&#45;&gt;Node34</title>
<path fill="none" stroke="midnightblue" d="M1282.41,-336.083C1282.54,-329.006 1282.73,-318.861 1282.89,-309.986"/>
<polygon fill="midnightblue" stroke="midnightblue" points="1286.4,-309.814 1283.08,-299.751 1279.4,-309.685 1286.4,-309.814"/>
</g>
<!-- Node32&#45;&gt;Node37 -->
<g id="edge59" class="edge"><title>Node32&#45;&gt;Node37</title>
<path fill="none" stroke="midnightblue" d="M1266.9,-336.32C1242.83,-322.946 1194.46,-297.062 1151.24,-280 1115.35,-265.827 1073.14,-253.536 1042.66,-245.397"/>
<polygon fill="midnightblue" stroke="midnightblue" points="1043.36,-241.962 1032.79,-242.799 1041.57,-248.731 1043.36,-241.962"/>
</g>
<!-- Node32&#45;&gt;Node38 -->
<g id="edge63" class="edge"><title>Node32&#45;&gt;Node38</title>
<path fill="none" stroke="midnightblue" d="M1316.83,-344.137C1399.05,-341.606 1612.38,-332.208 1787.24,-300 1858.42,-286.89 1939.37,-261.472 1983.74,-246.603"/>
<polygon fill="midnightblue" stroke="midnightblue" points="1985.07,-249.849 1993.42,-243.331 1982.83,-243.217 1985.07,-249.849"/>
</g>
<!-- Node41 -->
<g id="node41" class="node"><title>Node41</title>
<g id="a_node41"><a xlink:href="timedata_8h.html" target="_top" xlink:title="timedata.h">
<polygon fill="white" stroke="black" points="453.744,-168.5 453.744,-187.5 522.744,-187.5 522.744,-168.5 453.744,-168.5"/>
<text text-anchor="middle" x="488.244" y="-175.5" font-family="Helvetica,sans-Serif" font-size="10.00">timedata.h</text>
</a>
</g>
</g>
<!-- Node32&#45;&gt;Node41 -->
<g id="edge66" class="edge"><title>Node32&#45;&gt;Node41</title>
<path fill="none" stroke="midnightblue" d="M1247.67,-345.649C1170.86,-346.214 980.804,-342.749 829.244,-300 754.632,-278.955 745.191,-250.243 672.244,-224 625.857,-207.312 570.703,-194.738 532.956,-187.182"/>
<polygon fill="midnightblue" stroke="midnightblue" points="533.28,-183.678 522.792,-185.184 531.93,-190.547 533.28,-183.678"/>
</g>
<!-- Node42 -->
<g id="node42" class="node"><title>Node42</title>
<g id="a_node42"><a xlink:href="util_8h.html" target="_top" xlink:title="util.h">
<polygon fill="white" stroke="red" points="1611.24,-280.5 1611.24,-299.5 1651.24,-299.5 1651.24,-280.5 1611.24,-280.5"/>
<text text-anchor="middle" x="1631.24" y="-287.5" font-family="Helvetica,sans-Serif" font-size="10.00">util.h</text>
</a>
</g>
</g>
<!-- Node32&#45;&gt;Node42 -->
<g id="edge71" class="edge"><title>Node32&#45;&gt;Node42</title>
<path fill="none" stroke="midnightblue" d="M1316.98,-339.625C1385.42,-329.037 1536.6,-305.644 1601.12,-295.662"/>
<polygon fill="midnightblue" stroke="midnightblue" points="1601.71,-299.112 1611.06,-294.124 1600.64,-292.194 1601.71,-299.112"/>
</g>
<!-- Node33&#45;&gt;Node5 -->
<g id="edge46" class="edge"><title>Node33&#45;&gt;Node5</title>
<path fill="none" stroke="midnightblue" d="M902.976,-224.469C947.209,-211.83 1033,-187.525 1106.24,-168 1156.85,-154.509 1215.85,-139.691 1251.34,-130.877"/>
<polygon fill="midnightblue" stroke="midnightblue" points="1252.26,-134.253 1261.13,-128.449 1250.58,-127.459 1252.26,-134.253"/>
</g>
<!-- Node33&#45;&gt;Node6 -->
<g id="edge43" class="edge"><title>Node33&#45;&gt;Node6</title>
<path fill="none" stroke="midnightblue" d="M833.125,-230.293C758.681,-224.946 593.986,-211.597 446.026,-188.136"/>
<polygon fill="midnightblue" stroke="midnightblue" points="446.283,-184.632 435.855,-186.502 445.174,-191.544 446.283,-184.632"/>
</g>
<!-- Node33&#45;&gt;Node8 -->
<g id="edge45" class="edge"><title>Node33&#45;&gt;Node8</title>
<path fill="none" stroke="midnightblue" d="M899.381,-224.473C917.242,-217.374 940.145,-205.563 954.244,-188 978.517,-157.765 986.434,-111.535 989.009,-85.8551"/>
<polygon fill="midnightblue" stroke="midnightblue" points="992.518,-85.8884 989.856,-75.6335 985.542,-85.3103 992.518,-85.8884"/>
</g>
<!-- Node33&#45;&gt;Node18 -->
<g id="edge47" class="edge"><title>Node33&#45;&gt;Node18</title>
<path fill="none" stroke="midnightblue" d="M848.775,-224.438C832.677,-217.378 812.867,-205.626 803.244,-188 795.327,-173.498 799.269,-154.566 804.174,-140.877"/>
<polygon fill="midnightblue" stroke="midnightblue" points="807.425,-142.175 807.932,-131.592 800.936,-139.548 807.425,-142.175"/>
</g>
<!-- Node33&#45;&gt;Node21 -->
<g id="edge42" class="edge"><title>Node33&#45;&gt;Node21</title>
<path fill="none" stroke="midnightblue" d="M913.49,-228.436C928.189,-226.875 944.956,-225.217 960.244,-224 1103.13,-212.622 1465.19,-222.763 1604.24,-188 1698.14,-164.527 1799.43,-107.259 1843.13,-80.8083"/>
<polygon fill="midnightblue" stroke="midnightblue" points="1845.08,-83.7135 1851.79,-75.5092 1841.43,-77.7424 1845.08,-83.7135"/>
</g>
<!-- Node33&#45;&gt;Node31 -->
<g id="edge44" class="edge"><title>Node33&#45;&gt;Node31</title>
<path fill="none" stroke="midnightblue" d="M854.255,-224.368C811.844,-205.091 709.242,-158.454 659.381,-135.789"/>
<polygon fill="midnightblue" stroke="midnightblue" points="660.697,-132.543 650.145,-131.591 657.801,-138.916 660.697,-132.543"/>
</g>
<!-- Node34&#45;&gt;Node5 -->
<g id="edge58" class="edge"><title>Node34&#45;&gt;Node5</title>
<path fill="none" stroke="midnightblue" d="M1283.24,-280.075C1283.24,-253.945 1283.24,-177.211 1283.24,-141.577"/>
<polygon fill="midnightblue" stroke="midnightblue" points="1286.74,-141.568 1283.24,-131.568 1279.74,-141.568 1286.74,-141.568"/>
</g>
<!-- Node34&#45;&gt;Node6 -->
<g id="edge50" class="edge"><title>Node34&#45;&gt;Node6</title>
<path fill="none" stroke="midnightblue" d="M1250.63,-286.351C1175.37,-280.117 983.789,-263.565 824.244,-244 742.418,-233.966 542.501,-205.425 445.751,-188.167"/>
<polygon fill="midnightblue" stroke="midnightblue" points="446.34,-184.717 435.876,-186.378 445.092,-191.605 446.34,-184.717"/>
</g>
<!-- Node34&#45;&gt;Node8 -->
<g id="edge57" class="edge"><title>Node34&#45;&gt;Node8</title>
<path fill="none" stroke="midnightblue" d="M1315.89,-283.863C1390.75,-271.328 1570.91,-236.603 1604.24,-188 1609.27,-180.669 1607.82,-176.138 1604.24,-168 1589.44,-134.307 1576.97,-126.736 1543.24,-112 1450.13,-71.3164 1134.91,-67.1263 1026.91,-66.9109"/>
<polygon fill="midnightblue" stroke="midnightblue" points="1026.82,-63.4109 1016.82,-66.9014 1026.82,-70.4109 1026.82,-63.4109"/>
</g>
<!-- Node34&#45;&gt;Node33 -->
<g id="edge49" class="edge"><title>Node34&#45;&gt;Node33</title>
<path fill="none" stroke="midnightblue" d="M1250.73,-284.718C1179.38,-275.321 1008.69,-252.84 923.455,-241.613"/>
<polygon fill="midnightblue" stroke="midnightblue" points="923.868,-238.137 913.497,-240.302 922.954,-245.077 923.868,-238.137"/>
</g>
<!-- Node34&#45;&gt;Node35 -->
<g id="edge51" class="edge"><title>Node34&#45;&gt;Node35</title>
<path fill="none" stroke="midnightblue" d="M1250.57,-280.524C1217.2,-271.765 1163.95,-257.506 1118.24,-244 1058.76,-226.422 990.155,-204.144 949.587,-190.761"/>
<polygon fill="midnightblue" stroke="midnightblue" points="950.493,-187.374 939.9,-187.558 948.295,-194.02 950.493,-187.374"/>
</g>
<!-- Node34&#45;&gt;Node36 -->
<g id="edge56" class="edge"><title>Node34&#45;&gt;Node36</title>
<path fill="none" stroke="midnightblue" d="M1315.77,-285.824C1412.93,-276.336 1700.47,-248.258 1801.04,-238.438"/>
<polygon fill="midnightblue" stroke="midnightblue" points="1801.38,-241.921 1810.99,-237.466 1800.7,-234.954 1801.38,-241.921"/>
</g>
<!-- Node35&#45;&gt;Node5 -->
<g id="edge54" class="edge"><title>Node35&#45;&gt;Node5</title>
<path fill="none" stroke="midnightblue" d="M945.387,-172.443C1014.63,-162.309 1180.79,-137.994 1251.03,-127.715"/>
<polygon fill="midnightblue" stroke="midnightblue" points="1251.67,-131.158 1261.06,-126.247 1250.66,-124.232 1251.67,-131.158"/>
</g>
<!-- Node35&#45;&gt;Node8 -->
<g id="edge53" class="edge"><title>Node35&#45;&gt;Node8</title>
<path fill="none" stroke="midnightblue" d="M920.208,-168.368C932.75,-150.215 962.054,-107.802 978.506,-83.9902"/>
<polygon fill="midnightblue" stroke="midnightblue" points="981.504,-85.8083 984.308,-75.5914 975.744,-81.8292 981.504,-85.8083"/>
</g>
<!-- Node35&#45;&gt;Node10 -->
<g id="edge52" class="edge"><title>Node35&#45;&gt;Node10</title>
<path fill="none" stroke="midnightblue" d="M914.527,-168.218C914.461,-153.969 912.043,-126 895.244,-112 865.036,-86.8261 598.843,-72.9262 498.391,-68.5395"/>
<polygon fill="midnightblue" stroke="midnightblue" points="498.508,-65.0413 488.367,-68.1094 498.207,-72.0349 498.508,-65.0413"/>
</g>
<!-- Node35&#45;&gt;Node18 -->
<g id="edge55" class="edge"><title>Node35&#45;&gt;Node18</title>
<path fill="none" stroke="midnightblue" d="M897.856,-168.324C881.573,-159.703 856.377,-146.364 837.528,-136.386"/>
<polygon fill="midnightblue" stroke="midnightblue" points="839.067,-133.24 828.592,-131.655 835.792,-139.427 839.067,-133.24"/>
</g>
<!-- Node37&#45;&gt;Node8 -->
<g id="edge61" class="edge"><title>Node37&#45;&gt;Node8</title>
<path fill="none" stroke="midnightblue" d="M1002.48,-224.427C1005.12,-204.536 1010.59,-153.758 1004.24,-112 1002.88,-103.001 1000.05,-93.3251 997.299,-85.2601"/>
<polygon fill="midnightblue" stroke="midnightblue" points="1000.56,-83.9759 993.844,-75.7782 993.979,-86.3722 1000.56,-83.9759"/>
</g>
<!-- Node37&#45;&gt;Node12 -->
<g id="edge62" class="edge"><title>Node37&#45;&gt;Node12</title>
<path fill="none" stroke="midnightblue" d="M969.377,-229.007C954.994,-227.298 937.781,-225.383 922.244,-224 673.382,-201.853 606.418,-236.091 361.244,-188 301.089,-176.201 233.875,-150.77 196.457,-135.45"/>
<polygon fill="midnightblue" stroke="midnightblue" points="197.744,-132.194 187.166,-131.601 195.065,-138.662 197.744,-132.194"/>
</g>
<!-- Node37&#45;&gt;Node35 -->
<g id="edge60" class="edge"><title>Node37&#45;&gt;Node35</title>
<path fill="none" stroke="midnightblue" d="M987.266,-224.324C973.695,-215.9 952.864,-202.971 936.919,-193.074"/>
<polygon fill="midnightblue" stroke="midnightblue" points="938.53,-189.954 928.188,-187.655 934.838,-195.902 938.53,-189.954"/>
</g>
<!-- Node38&#45;&gt;Node39 -->
<g id="edge64" class="edge"><title>Node38&#45;&gt;Node39</title>
<path fill="none" stroke="midnightblue" d="M2032.35,-224.324C2047.15,-215.822 2069.94,-202.729 2087.23,-192.797"/>
<polygon fill="midnightblue" stroke="midnightblue" points="2089.25,-195.671 2096.18,-187.655 2085.76,-189.601 2089.25,-195.671"/>
</g>
<!-- Node38&#45;&gt;Node40 -->
<g id="edge65" class="edge"><title>Node38&#45;&gt;Node40</title>
<path fill="none" stroke="midnightblue" d="M2017.24,-224.083C2017.24,-217.006 2017.24,-206.861 2017.24,-197.986"/>
<polygon fill="midnightblue" stroke="midnightblue" points="2020.74,-197.751 2017.24,-187.751 2013.74,-197.751 2020.74,-197.751"/>
</g>
<!-- Node41&#45;&gt;Node8 -->
<g id="edge69" class="edge"><title>Node41&#45;&gt;Node8</title>
<path fill="none" stroke="midnightblue" d="M523.042,-170.35C573.888,-160.495 665.948,-142.095 698.244,-132 720.303,-125.105 724.089,-118.577 746.244,-112 818.186,-90.6426 905.213,-77.5134 953.475,-71.3044"/>
<polygon fill="midnightblue" stroke="midnightblue" points="953.967,-74.7702 963.451,-70.0489 953.093,-67.825 953.967,-74.7702"/>
</g>
<!-- Node41&#45;&gt;Node9 -->
<g id="edge67" class="edge"><title>Node41&#45;&gt;Node9</title>
<path fill="none" stroke="midnightblue" d="M474.587,-168.324C461.328,-159.9 440.976,-146.971 425.398,-137.074"/>
<polygon fill="midnightblue" stroke="midnightblue" points="427.185,-134.063 416.867,-131.655 423.431,-139.971 427.185,-134.063"/>
</g>
<!-- Node41&#45;&gt;Node10 -->
<g id="edge68" class="edge"><title>Node41&#45;&gt;Node10</title>
<path fill="none" stroke="midnightblue" d="M511.187,-168.404C537.406,-157.202 574.806,-136.167 559.244,-112 545.771,-91.0766 519.926,-79.7696 498.022,-73.7234"/>
<polygon fill="midnightblue" stroke="midnightblue" points="498.843,-70.321 488.293,-71.2999 497.151,-77.1134 498.843,-70.321"/>
</g>
<!-- Node41&#45;&gt;Node18 -->
<g id="edge70" class="edge"><title>Node41&#45;&gt;Node18</title>
<path fill="none" stroke="midnightblue" d="M522.918,-171.221C585.572,-160.779 716.869,-138.896 778.693,-128.592"/>
<polygon fill="midnightblue" stroke="midnightblue" points="779.41,-132.021 788.698,-126.924 778.259,-125.116 779.41,-132.021"/>
</g>
<!-- Node42&#45;&gt;Node4 -->
<g id="edge73" class="edge"><title>Node42&#45;&gt;Node4</title>
<path fill="none" stroke="midnightblue" d="M1616.41,-280.368C1583.71,-261.332 1505.16,-215.615 1465.7,-192.65"/>
<polygon fill="midnightblue" stroke="midnightblue" points="1467.41,-189.597 1457.01,-187.591 1463.89,-195.647 1467.41,-189.597"/>
</g>
<!-- Node42&#45;&gt;Node5 -->
<g id="edge80" class="edge"><title>Node42&#45;&gt;Node5</title>
<path fill="none" stroke="midnightblue" d="M1610.92,-287.147C1558.71,-282.103 1421.24,-266.949 1382.24,-244 1339.52,-218.854 1307.36,-167.988 1292.44,-140.909"/>
<polygon fill="midnightblue" stroke="midnightblue" points="1295.38,-138.975 1287.58,-131.799 1289.2,-142.269 1295.38,-138.975"/>
</g>
<!-- Node42&#45;&gt;Node8 -->
<g id="edge79" class="edge"><title>Node42&#45;&gt;Node8</title>
<path fill="none" stroke="midnightblue" d="M1637.52,-280.221C1647.75,-266.477 1669.3,-239.819 1693.24,-224 1731.26,-198.879 1763.29,-225.454 1789.24,-188 1810.05,-157.973 1766,-120.386 1751.24,-112 1687.89,-75.9926 1170.31,-68.6343 1026.94,-67.2811"/>
<polygon fill="midnightblue" stroke="midnightblue" points="1026.92,-63.7809 1016.89,-67.1904 1026.86,-70.7806 1026.92,-63.7809"/>
</g>
<!-- Node42&#45;&gt;Node13 -->
<g id="edge76" class="edge"><title>Node42&#45;&gt;Node13</title>
<path fill="none" stroke="midnightblue" d="M1631.87,-280.193C1632.94,-258.431 1632.67,-201.465 1604.24,-168 1583.38,-143.435 1547.16,-132.144 1521.56,-127.044"/>
<polygon fill="midnightblue" stroke="midnightblue" points="1522.12,-123.588 1511.66,-125.27 1520.88,-130.478 1522.12,-123.588"/>
</g>
<!-- Node42&#45;&gt;Node14 -->
<g id="edge77" class="edge"><title>Node42&#45;&gt;Node14</title>
<path fill="none" stroke="midnightblue" d="M1642.75,-280.324C1660.85,-266.955 1697.42,-241.079 1731.24,-224 1771.92,-203.462 1791.6,-216.389 1827.24,-188 1842.92,-175.519 1854.84,-155.732 1862.12,-141.265"/>
<polygon fill="midnightblue" stroke="midnightblue" points="1865.46,-142.388 1866.57,-131.852 1859.13,-139.391 1865.46,-142.388"/>
</g>
<!-- Node42&#45;&gt;Node15 -->
<g id="edge78" class="edge"><title>Node42&#45;&gt;Node15</title>
<path fill="none" stroke="midnightblue" d="M1611,-288.251C1564.15,-285.985 1445.12,-277.148 1352.24,-244 1288.85,-221.375 1285,-189.595 1221.24,-168 1104.84,-128.569 956.023,-123.285 896.534,-122.859"/>
<polygon fill="midnightblue" stroke="midnightblue" points="896.504,-119.358 886.493,-122.828 896.482,-126.358 896.504,-119.358"/>
</g>
<!-- Node42&#45;&gt;Node18 -->
<g id="edge81" class="edge"><title>Node42&#45;&gt;Node18</title>
<path fill="none" stroke="midnightblue" d="M1610.95,-289.052C1559.07,-288.578 1418.02,-283.459 1309.24,-244 1294.23,-238.554 1202.35,-173.19 1187.24,-168 1045.81,-119.396 997.535,-158.442 846.06,-131.803"/>
<polygon fill="midnightblue" stroke="midnightblue" points="846.397,-128.307 835.931,-129.951 845.139,-135.193 846.397,-128.307"/>
</g>
<!-- Node42&#45;&gt;Node21 -->
<g id="edge72" class="edge"><title>Node42&#45;&gt;Node21</title>
<path fill="none" stroke="midnightblue" d="M1651.31,-282.502C1691.54,-268.908 1783.97,-234.807 1851.24,-188 1880.14,-167.897 1893.77,-164.519 1907.24,-132 1914.81,-113.738 1899.81,-94.9976 1885.68,-82.3607"/>
<polygon fill="midnightblue" stroke="midnightblue" points="1887.56,-79.3773 1877.64,-75.6753 1883.09,-84.7599 1887.56,-79.3773"/>
</g>
<!-- Node42&#45;&gt;Node36 -->
<g id="edge75" class="edge"><title>Node42&#45;&gt;Node36</title>
<path fill="none" stroke="midnightblue" d="M1651.27,-283.724C1686.06,-274.56 1758.06,-255.594 1801.26,-244.216"/>
<polygon fill="midnightblue" stroke="midnightblue" points="1802.28,-247.567 1811.06,-241.635 1800.49,-240.798 1802.28,-247.567"/>
</g>
<!-- Node42&#45;&gt;Node38 -->
<g id="edge74" class="edge"><title>Node42&#45;&gt;Node38</title>
<path fill="none" stroke="midnightblue" d="M1651.45,-286.173C1713.97,-277.426 1904.73,-250.74 1983.09,-239.778"/>
<polygon fill="midnightblue" stroke="midnightblue" points="1983.96,-243.191 1993.38,-238.339 1982.99,-236.258 1983.96,-243.191"/>
</g>
<!-- Node43&#45;&gt;Node8 -->
<g id="edge87" class="edge"><title>Node43&#45;&gt;Node8</title>
<path fill="none" stroke="midnightblue" d="M1136.91,-168.423C1121.31,-155.624 1090.69,-130.996 1063.24,-112 1047.18,-100.878 1028.4,-89.332 1013.91,-80.72"/>
<polygon fill="midnightblue" stroke="midnightblue" points="1015.47,-77.5787 1005.08,-75.5185 1011.92,-83.61 1015.47,-77.5787"/>
</g>
<!-- Node44&#45;&gt;Node6 -->
<g id="edge89" class="edge"><title>Node44&#45;&gt;Node6</title>
<path fill="none" stroke="midnightblue" d="M607.026,-226.301C603.729,-225.523 600.413,-224.743 597.244,-224 545.065,-211.769 484.949,-197.852 445.638,-188.774"/>
<polygon fill="midnightblue" stroke="midnightblue" points="446.395,-185.357 435.864,-186.518 444.821,-192.178 446.395,-185.357"/>
</g>
<!-- Node44&#45;&gt;Node18 -->
<g id="edge90" class="edge"><title>Node44&#45;&gt;Node18</title>
<path fill="none" stroke="midnightblue" d="M640.421,-224.159C648.938,-210.329 667.183,-183.556 689.244,-168 704,-157.595 747.785,-142.782 778.902,-133.034"/>
<polygon fill="midnightblue" stroke="midnightblue" points="779.991,-136.361 788.507,-130.059 777.92,-129.674 779.991,-136.361"/>
</g>
<!-- Node45&#45;&gt;Node6 -->
<g id="edge94" class="edge"><title>Node45&#45;&gt;Node6</title>
<path fill="none" stroke="midnightblue" d="M539.441,-224.681C512.417,-215.617 468.969,-201.044 438.428,-190.801"/>
<polygon fill="midnightblue" stroke="midnightblue" points="439.201,-187.369 428.607,-187.507 436.975,-194.005 439.201,-187.369"/>
</g>
<!-- Node45&#45;&gt;Node18 -->
<g id="edge96" class="edge"><title>Node45&#45;&gt;Node18</title>
<path fill="none" stroke="midnightblue" d="M575.459,-224.3C593.49,-210.663 630.441,-184.15 665.244,-168 685.493,-158.604 742.041,-142.274 778.807,-132.084"/>
<polygon fill="midnightblue" stroke="midnightblue" points="779.895,-135.414 788.606,-129.383 778.035,-128.666 779.895,-135.414"/>
</g>
<!-- Node45&#45;&gt;Node19 -->
<g id="edge93" class="edge"><title>Node45&#45;&gt;Node19</title>
<path fill="none" stroke="midnightblue" d="M539.637,-231.17C500.23,-227.462 421.297,-216.801 361.244,-188 335.73,-175.763 311.057,-154.102 295.783,-139.17"/>
<polygon fill="midnightblue" stroke="midnightblue" points="297.853,-136.288 288.318,-131.669 292.891,-141.226 297.853,-136.288"/>
</g>
<!-- Node45&#45;&gt;Node35 -->
<g id="edge95" class="edge"><title>Node45&#45;&gt;Node35</title>
<path fill="none" stroke="midnightblue" d="M589.042,-226.047C592.127,-225.297 595.249,-224.593 598.244,-224 717.434,-200.407 749.387,-207.925 869.244,-188 870.345,-187.817 871.459,-187.627 872.583,-187.432"/>
<polygon fill="midnightblue" stroke="midnightblue" points="873.615,-190.801 882.821,-185.557 872.354,-183.916 873.615,-190.801"/>
</g>
<!-- Node46&#45;&gt;Node10 -->
<g id="edge98" class="edge"><title>Node46&#45;&gt;Node10</title>
<path fill="none" stroke="midnightblue" d="M1553.47,-168.386C1549.97,-153.851 1540.66,-124.792 1520.24,-112 1476.13,-84.3622 683.014,-70.4408 498.415,-67.5668"/>
<polygon fill="midnightblue" stroke="midnightblue" points="498.415,-64.0665 488.362,-67.4119 498.307,-71.0656 498.415,-64.0665"/>
</g>
<!-- Node46&#45;&gt;Node13 -->
<g id="edge99" class="edge"><title>Node46&#45;&gt;Node13</title>
<path fill="none" stroke="midnightblue" d="M1545.12,-168.324C1535.72,-160.263 1521.5,-148.077 1510.18,-138.369"/>
<polygon fill="midnightblue" stroke="midnightblue" points="1512.42,-135.684 1502.55,-131.834 1507.87,-140.999 1512.42,-135.684"/>
</g>
<!-- Node47&#45;&gt;Node5 -->
<g id="edge104" class="edge"><title>Node47&#45;&gt;Node5</title>
<path fill="none" stroke="midnightblue" d="M1180.95,-224.368C1199.6,-205.894 1243.59,-162.293 1267.36,-138.744"/>
<polygon fill="midnightblue" stroke="midnightblue" points="1269.94,-141.117 1274.57,-131.591 1265.01,-136.144 1269.94,-141.117"/>
</g>
<!-- Node47&#45;&gt;Node6 -->
<g id="edge103" class="edge"><title>Node47&#45;&gt;Node6</title>
<path fill="none" stroke="midnightblue" d="M1127.08,-229.804C1101.84,-228.04 1069.79,-225.842 1041.24,-224 779.348,-207.107 709.297,-224.163 446.085,-188.054"/>
<polygon fill="midnightblue" stroke="midnightblue" points="446.221,-184.539 435.835,-186.634 445.261,-191.473 446.221,-184.539"/>
</g>
<!-- Node47&#45;&gt;Node43 -->
<g id="edge102" class="edge"><title>Node47&#45;&gt;Node43</title>
<path fill="none" stroke="midnightblue" d="M1168.12,-224.083C1164.73,-216.77 1159.83,-206.181 1155.63,-197.103"/>
<polygon fill="midnightblue" stroke="midnightblue" points="1158.67,-195.355 1151.3,-187.751 1152.32,-198.296 1158.67,-195.355"/>
</g>
<!-- Node48&#45;&gt;Node5 -->
<g id="edge116" class="edge"><title>Node48&#45;&gt;Node5</title>
<path fill="none" stroke="midnightblue" d="M374.918,-228.869C458.159,-218.377 685,-189.971 874.244,-168 1014.34,-151.735 1181.62,-133.792 1250.82,-126.434"/>
<polygon fill="midnightblue" stroke="midnightblue" points="1251.49,-129.882 1261.07,-125.346 1250.75,-122.921 1251.49,-129.882"/>
</g>
<!-- Node48&#45;&gt;Node6 -->
<g id="edge108" class="edge"><title>Node48&#45;&gt;Node6</title>
<path fill="none" stroke="midnightblue" d="M352.045,-224.324C361.062,-216.341 374.65,-204.313 385.562,-194.653"/>
<polygon fill="midnightblue" stroke="midnightblue" points="388.097,-197.083 393.265,-187.834 383.458,-191.842 388.097,-197.083"/>
</g>
<!-- Node48&#45;&gt;Node8 -->
<g id="edge115" class="edge"><title>Node48&#45;&gt;Node8</title>
<path fill="none" stroke="midnightblue" d="M374.764,-225.6C412.486,-216.937 476.506,-201.989 531.244,-188 622.753,-164.614 647.554,-164.476 736.244,-132 756.036,-124.753 759.255,-118.685 779.244,-112 838.806,-92.0809 910.863,-78.9501 953.495,-72.2604"/>
<polygon fill="midnightblue" stroke="midnightblue" points="954.064,-75.7142 963.417,-70.7369 953.001,-68.7953 954.064,-75.7142"/>
</g>
<!-- Node48&#45;&gt;Node9 -->
<g id="edge109" class="edge"><title>Node48&#45;&gt;Node9</title>
<path fill="none" stroke="midnightblue" d="M336.816,-224.429C329.336,-211.422 317.893,-186.282 328.244,-168 336.591,-153.258 351.906,-142.819 366.531,-135.732"/>
<polygon fill="midnightblue" stroke="midnightblue" points="368.241,-138.803 375.962,-131.547 365.402,-132.404 368.241,-138.803"/>
</g>
<!-- Node48&#45;&gt;Node10 -->
<g id="edge110" class="edge"><title>Node48&#45;&gt;Node10</title>
<path fill="none" stroke="midnightblue" d="M309.682,-231.601C214.21,-226.415 -53.2367,-203.541 29.2442,-112 55.3267,-83.0525 321.452,-71.4866 422.028,-68.1276"/>
<polygon fill="midnightblue" stroke="midnightblue" points="422.185,-71.6244 432.066,-67.8014 421.958,-64.6281 422.185,-71.6244"/>
</g>
<!-- Node48&#45;&gt;Node11 -->
<g id="edge111" class="edge"><title>Node48&#45;&gt;Node11</title>
<path fill="none" stroke="midnightblue" d="M309.601,-224.685C278.904,-216.521 231.872,-203.117 192.244,-188 151.012,-172.271 104.938,-149.681 77.5541,-135.695"/>
<polygon fill="midnightblue" stroke="midnightblue" points="78.8477,-132.425 68.3545,-130.961 75.6444,-138.649 78.8477,-132.425"/>
</g>
<!-- Node48&#45;&gt;Node12 -->
<g id="edge112" class="edge"><title>Node48&#45;&gt;Node12</title>
<path fill="none" stroke="midnightblue" d="M328.512,-224.368C298.354,-205.412 226.109,-160.001 189.425,-136.942"/>
<polygon fill="midnightblue" stroke="midnightblue" points="191.241,-133.95 180.912,-131.591 187.516,-139.876 191.241,-133.95"/>
</g>
<!-- Node48&#45;&gt;Node13 -->
<g id="edge113" class="edge"><title>Node48&#45;&gt;Node13</title>
<path fill="none" stroke="midnightblue" d="M374.812,-231.266C466.282,-226.253 733.272,-210.643 954.244,-188 1022.03,-181.054 1038.62,-176.39 1106.24,-168 1239.16,-151.509 1398.05,-133.534 1462.7,-126.293"/>
<polygon fill="midnightblue" stroke="midnightblue" points="1463.4,-129.737 1472.95,-125.147 1462.63,-122.78 1463.4,-129.737"/>
</g>
<!-- Node48&#45;&gt;Node15 -->
<g id="edge114" class="edge"><title>Node48&#45;&gt;Node15</title>
<path fill="none" stroke="midnightblue" d="M374.899,-227.997C455.436,-215.32 669.692,-179.538 844.244,-132 844.345,-131.973 844.446,-131.945 844.547,-131.917"/>
<polygon fill="midnightblue" stroke="midnightblue" points="845.602,-135.255 854.122,-128.958 843.535,-128.567 845.602,-135.255"/>
</g>
<!-- Node48&#45;&gt;Node16 -->
<g id="edge117" class="edge"><title>Node48&#45;&gt;Node16</title>
<path fill="none" stroke="midnightblue" d="M309.73,-233.061C236.855,-232.491 63.6603,-226.965 23.2442,-188 -1.28257,-164.354 -8.08057,-138.57 13.2442,-112 33.6858,-86.5308 126.64,-74.5845 179.393,-69.7686"/>
<polygon fill="midnightblue" stroke="midnightblue" points="179.716,-73.2538 189.374,-68.8986 179.108,-66.2803 179.716,-73.2538"/>
</g>
<!-- Node48&#45;&gt;Node17 -->
<g id="edge118" class="edge"><title>Node48&#45;&gt;Node17</title>
<path fill="none" stroke="midnightblue" d="M320.731,-224.482C298.982,-215.747 264.499,-201.558 235.244,-188 198.952,-171.18 157.855,-149.902 132.243,-136.367"/>
<polygon fill="midnightblue" stroke="midnightblue" points="133.701,-133.178 123.227,-131.584 130.421,-139.362 133.701,-133.178"/>
</g>
<!-- Node48&#45;&gt;Node18 -->
<g id="edge119" class="edge"><title>Node48&#45;&gt;Node18</title>
<path fill="none" stroke="midnightblue" d="M341.955,-224.211C342.013,-209.952 344.42,-181.969 361.244,-168 377.305,-154.665 676.725,-132.511 778.622,-125.326"/>
<polygon fill="midnightblue" stroke="midnightblue" points="778.946,-128.812 788.677,-124.621 778.456,-121.829 778.946,-128.812"/>
</g>
<!-- Node49&#45;&gt;Node36 -->
<g id="edge123" class="edge"><title>Node49&#45;&gt;Node36</title>
<path fill="none" stroke="midnightblue" d="M2007.92,-280.444C1970.59,-270.561 1909.4,-254.364 1871.04,-244.212"/>
<polygon fill="midnightblue" stroke="midnightblue" points="1871.91,-240.819 1861.34,-241.644 1870.11,-247.586 1871.91,-240.819"/>
</g>
<!-- Node49&#45;&gt;Node39 -->
<g id="edge124" class="edge"><title>Node49&#45;&gt;Node39</title>
<path fill="none" stroke="midnightblue" d="M2045.82,-280.368C2057.48,-262.296 2084.67,-220.176 2100.07,-196.307"/>
<polygon fill="midnightblue" stroke="midnightblue" points="2103.22,-197.891 2105.7,-187.591 2097.34,-194.095 2103.22,-197.891"/>
</g>
</g>
</svg>
