<?xml version="1.0" encoding="UTF-8" standalone="no"?>
<!DOCTYPE svg PUBLIC "-//W3C//DTD SVG 1.1//EN"
 "http://www.w3.org/Graphics/SVG/1.1/DTD/svg11.dtd">
<!-- Generated by graphviz version 2.38.0 (20140413.2041)
 -->
<!-- Title: noui_connect Pages: 1 -->
<svg width="665pt" height="104pt"
 viewBox="0.00 0.00 665.00 104.00" xmlns="http://www.w3.org/2000/svg" xmlns:xlink="http://www.w3.org/1999/xlink">
<g id="graph0" class="graph" transform="scale(1 1) rotate(0) translate(4 100)">
<title>noui_connect</title>
<polygon fill="white" stroke="none" points="-4,4 -4,-100 661,-100 661,4 -4,4"/>
<!-- Node1 -->
<g id="node1" class="node"><title>Node1</title>
<polygon fill="#bfbfbf" stroke="black" points="0,-38.5 0,-57.5 80,-57.5 80,-38.5 0,-38.5"/>
<text text-anchor="middle" x="40" y="-45.5" font-family="Helvetica,sans-Serif" font-size="10.00">noui_connect</text>
</g>
<!-- Node2 -->
<g id="node2" class="node"><title>Node2</title>
<g id="a_node2"><a xlink:href="noui_8cpp.html#aabdfddd694af6a82a3bb3a3371edcaa4" target="_top" xlink:title="Non&#45;GUI handler, which logs and prints messages. ">
<polygon fill="white" stroke="black" points="292,-57.5 292,-76.5 450,-76.5 450,-57.5 292,-57.5"/>
<text text-anchor="middle" x="371" y="-64.5" font-family="Helvetica,sans-Serif" font-size="10.00">noui_ThreadSafeMessageBox</text>
</a>
</g>
</g>
<!-- Node1&#45;&gt;Node2 -->
<g id="edge1" class="edge"><title>Node1&#45;&gt;Node2</title>
<path fill="none" stroke="midnightblue" d="M71.3243,-57.505C84.8501,-61.2691 101.072,-65.1385 116,-67 170.742,-73.8262 232.639,-73.9808 281.624,-72.3541"/>
<polygon fill="midnightblue" stroke="midnightblue" points="282.008,-75.8426 291.874,-71.9818 281.754,-68.8472 282.008,-75.8426"/>
</g>
<!-- Node6 -->
<g id="node6" class="node"><title>Node6</title>
<g id="a_node6"><a xlink:href="noui_8cpp.html#a392762a24f6a062492065960ced65a30" target="_top" xlink:title="Non&#45;GUI handler, which logs and prints questions. ">
<polygon fill="white" stroke="black" points="116,-38.5 116,-57.5 256,-57.5 256,-38.5 116,-38.5"/>
<text text-anchor="middle" x="186" y="-45.5" font-family="Helvetica,sans-Serif" font-size="10.00">noui_ThreadSafeQuestion</text>
</a>
</g>
</g>
<!-- Node1&#45;&gt;Node6 -->
<g id="edge5" class="edge"><title>Node1&#45;&gt;Node6</title>
<path fill="none" stroke="midnightblue" d="M80.3486,-48C88.2492,-48 96.8151,-48 105.529,-48"/>
<polygon fill="midnightblue" stroke="midnightblue" points="105.794,-51.5001 115.794,-48 105.794,-44.5001 105.794,-51.5001"/>
</g>
<!-- Node7 -->
<g id="node7" class="node"><title>Node7</title>
<g id="a_node7"><a xlink:href="noui_8cpp.html#a796eae0de41d0d373e3e066fab04554a" target="_top" xlink:title="Non&#45;GUI handler, which only logs a message. ">
<polygon fill="white" stroke="black" points="136.5,-0.5 136.5,-19.5 235.5,-19.5 235.5,-0.5 136.5,-0.5"/>
<text text-anchor="middle" x="186" y="-7.5" font-family="Helvetica,sans-Serif" font-size="10.00">noui_InitMessage</text>
</a>
</g>
</g>
<!-- Node1&#45;&gt;Node7 -->
<g id="edge7" class="edge"><title>Node1&#45;&gt;Node7</title>
<path fill="none" stroke="midnightblue" d="M77.3373,-38.411C96.0829,-33.4642 119.143,-27.3789 139.107,-22.1108"/>
<polygon fill="midnightblue" stroke="midnightblue" points="140.148,-25.4558 148.924,-19.5201 138.362,-18.6875 140.148,-25.4558"/>
</g>
<!-- Node3 -->
<g id="node3" class="node"><title>Node3</title>
<g id="a_node3"><a xlink:href="system_8h.html#aad133bb6103b53cebf03fd01e2f11ba1" target="_top" xlink:title="Translation function. ">
<polygon fill="white" stroke="black" points="486,-57.5 486,-76.5 515,-76.5 515,-57.5 486,-57.5"/>
<text text-anchor="middle" x="500.5" y="-64.5" font-family="Helvetica,sans-Serif" font-size="10.00">_</text>
</a>
</g>
</g>
<!-- Node2&#45;&gt;Node3 -->
<g id="edge2" class="edge"><title>Node2&#45;&gt;Node3</title>
<path fill="none" stroke="midnightblue" d="M450.205,-67C459.487,-67 468.337,-67 475.911,-67"/>
<polygon fill="midnightblue" stroke="midnightblue" points="475.997,-70.5001 485.997,-67 475.997,-63.5001 475.997,-70.5001"/>
</g>
<!-- Node4 -->
<g id="node4" class="node"><title>Node4</title>
<g id="a_node4"><a xlink:href="system_8h.html#a9ed616020f4ef9b1a261b222bbec78e2" target="_top" xlink:title="SetupEnvironment">
<polygon fill="white" stroke="black" points="551,-76.5 551,-95.5 657,-95.5 657,-76.5 551,-76.5"/>
<text text-anchor="middle" x="604" y="-83.5" font-family="Helvetica,sans-Serif" font-size="10.00">SetupEnvironment</text>
</a>
</g>
</g>
<!-- Node3&#45;&gt;Node4 -->
<g id="edge3" class="edge"><title>Node3&#45;&gt;Node4</title>
<path fill="none" stroke="midnightblue" d="M515.189,-69.5624C522.413,-70.9147 531.839,-72.6793 541.829,-74.5493"/>
<polygon fill="midnightblue" stroke="midnightblue" points="541.472,-78.0432 551.946,-76.443 542.76,-71.1627 541.472,-78.0432"/>
</g>
<!-- Node5 -->
<g id="node5" class="node"><title>Node5</title>
<g id="a_node5"><a xlink:href="system_8h.html#a66791919e137c59061e988d2d87ee9a1" target="_top" xlink:title="SetupNetworking">
<polygon fill="white" stroke="black" points="555,-38.5 555,-57.5 653,-57.5 653,-38.5 555,-38.5"/>
<text text-anchor="middle" x="604" y="-45.5" font-family="Helvetica,sans-Serif" font-size="10.00">SetupNetworking</text>
</a>
</g>
</g>
<!-- Node3&#45;&gt;Node5 -->
<g id="edge4" class="edge"><title>Node3&#45;&gt;Node5</title>
<path fill="none" stroke="midnightblue" d="M515.189,-64.4376C523.06,-62.9641 533.547,-61.001 544.528,-58.9454"/>
<polygon fill="midnightblue" stroke="midnightblue" points="545.506,-62.3234 554.691,-57.0431 544.218,-55.4429 545.506,-62.3234"/>
</g>
<!-- Node6&#45;&gt;Node2 -->
<g id="edge6" class="edge"><title>Node6&#45;&gt;Node2</title>
<path fill="none" stroke="midnightblue" d="M256.184,-55.1831C264.551,-56.0517 273.182,-56.9478 281.774,-57.84"/>
<polygon fill="midnightblue" stroke="midnightblue" points="281.517,-61.332 291.825,-58.8835 282.24,-54.3694 281.517,-61.332"/>
</g>
</g>
</svg>
