<?xml version="1.0" encoding="UTF-8" standalone="no"?>
<!DOCTYPE svg PUBLIC "-//W3C//DTD SVG 1.1//EN"
 "http://www.w3.org/Graphics/SVG/1.1/DTD/svg11.dtd">
<!-- Generated by graphviz version 2.49.3 (0)
 -->
<!-- Title: HasNoNewUnconfirmed Pages: 1 -->
<svg width="445pt" height="180pt"
 viewBox="0.00 0.00 445.00 180.00" xmlns="http://www.w3.org/2000/svg" xmlns:xlink="http://www.w3.org/1999/xlink">
<g id="graph0" class="graph" transform="scale(1 1) rotate(0) translate(4 176)">
<title>HasNoNewUnconfirmed</title>
<polygon fill="white" stroke="transparent" points="-4,4 -4,-176 441,-176 441,4 -4,4"/>
<!-- Node1 -->
<g id="node1" class="node">
<title>Node1</title>
<g id="a_node1"><a xlink:title="BIP125 Rule #2: &quot;The replacement transaction may only include an unconfirmed input if that input was ...">
<polygon fill="#bfbfbf" stroke="black" points="0,-76.5 0,-95.5 133,-95.5 133,-76.5 0,-76.5"/>
<text text-anchor="middle" x="66.5" y="-83.5" font-family="Helvetica,sans-Serif" font-size="10.00">HasNoNewUnconfirmed</text>
</a>
</g>
</g>
<!-- Node2 -->
<g id="node2" class="node">
<title>Node2</title>
<g id="a_node2"><a xlink:href="validation_8cpp.html#abee2920f50f82cc5721ae2cd3f1c4f95" target="_top" xlink:title=" ">
<polygon fill="white" stroke="black" points="186.5,-152.5 186.5,-171.5 278.5,-171.5 278.5,-152.5 186.5,-152.5"/>
<text text-anchor="middle" x="232.5" y="-159.5" font-family="Helvetica,sans-Serif" font-size="10.00">AssertLockHeld</text>
</a>
</g>
</g>
<!-- Node1&#45;&gt;Node2 -->
<g id="edge1" class="edge">
<title>Node1&#45;&gt;Node2</title>
<path fill="none" stroke="midnightblue" d="M82.12,-95.55C101.39,-107.82 136.66,-129.2 169,-143 174.35,-145.28 180.06,-147.41 185.77,-149.36"/>
<polygon fill="midnightblue" stroke="midnightblue" points="184.74,-152.7 195.33,-152.46 186.9,-146.04 184.74,-152.7"/>
</g>
<!-- Node3 -->
<g id="node3" class="node">
<title>Node3</title>
<g id="a_node3"><a xlink:href="class_c_tx_mem_pool.html#ab77186eadbcdfa33d217c5eddb99edfb" target="_top" xlink:title=" ">
<polygon fill="white" stroke="black" points="174.5,-114.5 174.5,-133.5 290.5,-133.5 290.5,-114.5 174.5,-114.5"/>
<text text-anchor="middle" x="232.5" y="-121.5" font-family="Helvetica,sans-Serif" font-size="10.00">CTxMemPool::exists</text>
</a>
</g>
</g>
<!-- Node1&#45;&gt;Node3 -->
<g id="edge2" class="edge">
<title>Node1&#45;&gt;Node3</title>
<path fill="none" stroke="midnightblue" d="M108.88,-95.59C130.62,-100.63 157.46,-106.84 180.47,-112.18"/>
<polygon fill="midnightblue" stroke="midnightblue" points="179.88,-115.63 190.41,-114.48 181.46,-108.81 179.88,-115.63"/>
</g>
<!-- Node6 -->
<g id="node6" class="node">
<title>Node6</title>
<g id="a_node6"><a xlink:href="class_c_transaction.html#a2e50229b13290d32e73b75f3dcf86995" target="_top" xlink:title=" ">
<polygon fill="white" stroke="black" points="169,-76.5 169,-95.5 296,-95.5 296,-76.5 169,-76.5"/>
<text text-anchor="middle" x="232.5" y="-83.5" font-family="Helvetica,sans-Serif" font-size="10.00">CTransaction::GetHash</text>
</a>
</g>
</g>
<!-- Node1&#45;&gt;Node6 -->
<g id="edge5" class="edge">
<title>Node1&#45;&gt;Node6</title>
<path fill="none" stroke="midnightblue" d="M133.26,-86C141.62,-86 150.22,-86 158.69,-86"/>
<polygon fill="midnightblue" stroke="midnightblue" points="158.92,-89.5 168.92,-86 158.92,-82.5 158.92,-89.5"/>
</g>
<!-- Node7 -->
<g id="node7" class="node">
<title>Node7</title>
<g id="a_node7"><a xlink:href="classbase__blob.html#a7a0d25782830d8b087c4da839f3ccdeb" target="_top" xlink:title=" ">
<polygon fill="white" stroke="black" points="177,-38.5 177,-57.5 288,-57.5 288,-38.5 177,-38.5"/>
<text text-anchor="middle" x="232.5" y="-45.5" font-family="Helvetica,sans-Serif" font-size="10.00">base_blob::ToString</text>
</a>
</g>
</g>
<!-- Node1&#45;&gt;Node7 -->
<g id="edge6" class="edge">
<title>Node1&#45;&gt;Node7</title>
<path fill="none" stroke="midnightblue" d="M108.88,-76.41C130.62,-71.37 157.46,-65.16 180.47,-59.82"/>
<polygon fill="midnightblue" stroke="midnightblue" points="181.46,-63.19 190.41,-57.52 179.88,-56.37 181.46,-63.19"/>
</g>
<!-- Node8 -->
<g id="node8" class="node">
<title>Node8</title>
<g id="a_node8"><a xlink:href="class_gen_txid.html#afe1d77c1c9a1b912448fe7e3320d3bdf" target="_top" xlink:title=" ">
<polygon fill="white" stroke="black" points="190.5,-0.5 190.5,-19.5 274.5,-19.5 274.5,-0.5 190.5,-0.5"/>
<text text-anchor="middle" x="232.5" y="-7.5" font-family="Helvetica,sans-Serif" font-size="10.00">GenTxid::Txid</text>
</a>
</g>
</g>
<!-- Node1&#45;&gt;Node8 -->
<g id="edge7" class="edge">
<title>Node1&#45;&gt;Node8</title>
<path fill="none" stroke="midnightblue" d="M82.12,-76.45C101.39,-64.18 136.66,-42.8 169,-29 174.35,-26.72 180.06,-24.59 185.77,-22.64"/>
<polygon fill="midnightblue" stroke="midnightblue" points="186.9,-25.96 195.33,-19.54 184.74,-19.3 186.9,-25.96"/>
</g>
<!-- Node4 -->
<g id="node4" class="node">
<title>Node4</title>
<g id="a_node4"><a xlink:href="class_gen_txid.html#a21c9786f1a1f222ae43e59f9035ffe51" target="_top" xlink:title=" ">
<polygon fill="white" stroke="black" points="332,-133.5 332,-152.5 437,-152.5 437,-133.5 332,-133.5"/>
<text text-anchor="middle" x="384.5" y="-140.5" font-family="Helvetica,sans-Serif" font-size="10.00">GenTxid::GetHash</text>
</a>
</g>
</g>
<!-- Node3&#45;&gt;Node4 -->
<g id="edge3" class="edge">
<title>Node3&#45;&gt;Node4</title>
<path fill="none" stroke="midnightblue" d="M290.64,-131.24C300.82,-132.53 311.47,-133.88 321.77,-135.18"/>
<polygon fill="midnightblue" stroke="midnightblue" points="321.57,-138.68 331.93,-136.47 322.45,-131.74 321.57,-138.68"/>
</g>
<!-- Node5 -->
<g id="node5" class="node">
<title>Node5</title>
<g id="a_node5"><a xlink:href="class_gen_txid.html#a0c7ed36356bf1013ea81e13a05e3a1c6" target="_top" xlink:title=" ">
<polygon fill="white" stroke="black" points="334.5,-95.5 334.5,-114.5 434.5,-114.5 434.5,-95.5 334.5,-95.5"/>
<text text-anchor="middle" x="384.5" y="-102.5" font-family="Helvetica,sans-Serif" font-size="10.00">GenTxid::IsWtxid</text>
</a>
</g>
</g>
<!-- Node3&#45;&gt;Node5 -->
<g id="edge4" class="edge">
<title>Node3&#45;&gt;Node5</title>
<path fill="none" stroke="midnightblue" d="M290.64,-116.76C301.67,-115.37 313.24,-113.9 324.34,-112.49"/>
<polygon fill="midnightblue" stroke="midnightblue" points="324.88,-115.95 334.36,-111.22 324,-109.01 324.88,-115.95"/>
</g>
</g>
</svg>
