<?xml version="1.0" encoding="UTF-8" standalone="no"?>
<!DOCTYPE svg PUBLIC "-//W3C//DTD SVG 1.1//EN"
 "http://www.w3.org/Graphics/SVG/1.1/DTD/svg11.dtd">
<!-- Generated by graphviz version 2.38.0 (20140413.2041)
 -->
<!-- Title: CombinePSBTs Pages: 1 -->
<svg width="272pt" height="88pt"
 viewBox="0.00 0.00 272.00 88.00" xmlns="http://www.w3.org/2000/svg" xmlns:xlink="http://www.w3.org/1999/xlink">
<g id="graph0" class="graph" transform="scale(1 1) rotate(0) translate(4 84)">
<title>CombinePSBTs</title>
<polygon fill="white" stroke="none" points="-4,4 -4,-84 268,-84 268,4 -4,4"/>
<!-- Node1 -->
<g id="node1" class="node"><title>Node1</title>
<polygon fill="#bfbfbf" stroke="black" points="0,-30 0,-49 88,-49 88,-30 0,-30"/>
<text text-anchor="middle" x="44" y="-37" font-family="Helvetica,sans-Serif" font-size="10.00">CombinePSBTs</text>
</g>
<!-- Node2 -->
<g id="node2" class="node"><title>Node2</title>
<g id="a_node2"><a xlink:href="struct_partially_signed_transaction.html#a1fcb0eccd190d1a6523259637479875c" target="_top" xlink:title="Merge psbt into this. ">
<polygon fill="white" stroke="black" points="124,-49.5 124,-79.5 264,-79.5 264,-49.5 124,-49.5"/>
<text text-anchor="start" x="132" y="-67.5" font-family="Helvetica,sans-Serif" font-size="10.00">PartiallySignedTransaction</text>
<text text-anchor="middle" x="194" y="-56.5" font-family="Helvetica,sans-Serif" font-size="10.00">::Merge</text>
</a>
</g>
</g>
<!-- Node1&#45;&gt;Node2 -->
<g id="edge1" class="edge"><title>Node1&#45;&gt;Node2</title>
<path fill="none" stroke="midnightblue" d="M88.2056,-46.7982C96.3264,-48.17 105.049,-49.6435 113.87,-51.1335"/>
<polygon fill="midnightblue" stroke="midnightblue" points="113.4,-54.6036 123.844,-52.8182 114.566,-47.7014 113.4,-54.6036"/>
</g>
<!-- Node3 -->
<g id="node3" class="node"><title>Node3</title>
<g id="a_node3"><a xlink:href="struct_partially_signed_transaction.html#a11dbcf6ba6b72cad936560161bdf57dd" target="_top" xlink:title="PartiallySignedTransaction\l::IsSane">
<polygon fill="white" stroke="black" points="124,-0.5 124,-30.5 264,-30.5 264,-0.5 124,-0.5"/>
<text text-anchor="start" x="132" y="-18.5" font-family="Helvetica,sans-Serif" font-size="10.00">PartiallySignedTransaction</text>
<text text-anchor="middle" x="194" y="-7.5" font-family="Helvetica,sans-Serif" font-size="10.00">::IsSane</text>
</a>
</g>
</g>
<!-- Node1&#45;&gt;Node3 -->
<g id="edge2" class="edge"><title>Node1&#45;&gt;Node3</title>
<path fill="none" stroke="midnightblue" d="M88.2056,-32.4937C96.3264,-31.1768 105.049,-29.7623 113.87,-28.3319"/>
<polygon fill="midnightblue" stroke="midnightblue" points="114.533,-31.7702 123.844,-26.7146 113.412,-24.8605 114.533,-31.7702"/>
</g>
</g>
</svg>
