<?xml version="1.0" encoding="UTF-8" standalone="no"?>
<!DOCTYPE svg PUBLIC "-//W3C//DTD SVG 1.1//EN"
 "http://www.w3.org/Graphics/SVG/1.1/DTD/svg11.dtd">
<!-- Generated by graphviz version 2.38.0 (20140413.2041)
 -->
<!-- Title: Shuffle Pages: 1 -->
<svg width="811pt" height="332pt"
 viewBox="0.00 0.00 811.00 332.00" xmlns="http://www.w3.org/2000/svg" xmlns:xlink="http://www.w3.org/1999/xlink">
<g id="graph0" class="graph" transform="scale(1 1) rotate(0) translate(4 328)">
<title>Shuffle</title>
<polygon fill="white" stroke="none" points="-4,4 -4,-328 807,-328 807,4 -4,4"/>
<!-- Node1 -->
<g id="node1" class="node"><title>Node1</title>
<polygon fill="#bfbfbf" stroke="black" points="0,-149.5 0,-168.5 50,-168.5 50,-149.5 0,-149.5"/>
<text text-anchor="middle" x="25" y="-156.5" font-family="Helvetica,sans-Serif" font-size="10.00">Shuffle</text>
</g>
<!-- Node2 -->
<g id="node2" class="node"><title>Node2</title>
<g id="a_node2"><a xlink:href="group___actions.html#ga04c446d786f3fc77d196b352bb28c76a" target="_top" xlink:title="Select a set of coins such that nValueRet &gt;= nTargetValue and at least all coins from coinControl are...">
<polygon fill="white" stroke="black" points="101,-187.5 101,-206.5 214,-206.5 214,-187.5 101,-187.5"/>
<text text-anchor="middle" x="157.5" y="-194.5" font-family="Helvetica,sans-Serif" font-size="10.00">CWallet::SelectCoins</text>
</a>
</g>
</g>
<!-- Node1&#45;&gt;Node2 -->
<g id="edge1" class="edge"><title>Node1&#45;&gt;Node2</title>
<path fill="none" stroke="midnightblue" d="M59.8048,-169.987C68.3317,-172.681 77.4835,-175.505 86,-178 96.9486,-181.207 108.912,-184.508 119.825,-187.439"/>
<polygon fill="midnightblue" stroke="midnightblue" points="60.7483,-166.615 50.1577,-166.913 58.6228,-173.284 60.7483,-166.615"/>
</g>
<!-- Node3 -->
<g id="node3" class="node"><title>Node3</title>
<g id="a_node3"><a xlink:href="group___actions.html#ga42068df76177627faf57b6902f83b8c2" target="_top" xlink:title="Create a new transaction paying the recipients with a set of coins selected by SelectCoins(); Also cr...">
<polygon fill="white" stroke="black" points="86,-149.5 86,-168.5 229,-168.5 229,-149.5 86,-149.5"/>
<text text-anchor="middle" x="157.5" y="-156.5" font-family="Helvetica,sans-Serif" font-size="10.00">CWallet::CreateTransaction</text>
</a>
</g>
</g>
<!-- Node1&#45;&gt;Node3 -->
<g id="edge2" class="edge"><title>Node1&#45;&gt;Node3</title>
<path fill="none" stroke="midnightblue" d="M60.4496,-159C68.3349,-159 76.9991,-159 85.7963,-159"/>
<polygon fill="midnightblue" stroke="midnightblue" points="60.2402,-155.5 50.2402,-159 60.2402,-162.5 60.2402,-155.5"/>
</g>
<!-- Node19 -->
<g id="node19" class="node"><title>Node19</title>
<g id="a_node19"><a xlink:href="coinselection_8h.html#a18bc5dae6dd2a951ff37c36259aea48a" target="_top" xlink:title="KnapsackSolver">
<polygon fill="white" stroke="black" points="111.5,-83.5 111.5,-102.5 203.5,-102.5 203.5,-83.5 111.5,-83.5"/>
<text text-anchor="middle" x="157.5" y="-90.5" font-family="Helvetica,sans-Serif" font-size="10.00">KnapsackSolver</text>
</a>
</g>
</g>
<!-- Node1&#45;&gt;Node19 -->
<g id="edge25" class="edge"><title>Node1&#45;&gt;Node19</title>
<path fill="none" stroke="midnightblue" d="M54.0351,-144.821C79.2322,-132.078 115.552,-113.709 137.501,-102.609"/>
<polygon fill="midnightblue" stroke="midnightblue" points="52.3199,-141.767 44.9758,-149.403 55.4791,-148.013 52.3199,-141.767"/>
</g>
<!-- Node4 -->
<g id="node4" class="node"><title>Node4</title>
<g id="a_node4"><a xlink:href="namespacefeebumper.html#a7ce8c12d48338418fbb04b8337fb21ef" target="_top" xlink:title="Create bumpfee transaction based on feerate estimates. ">
<polygon fill="white" stroke="black" points="265,-273 265,-303 423,-303 423,-273 265,-273"/>
<text text-anchor="start" x="273" y="-291" font-family="Helvetica,sans-Serif" font-size="10.00">feebumper::CreateRateBump</text>
<text text-anchor="middle" x="344" y="-280" font-family="Helvetica,sans-Serif" font-size="10.00">Transaction</text>
</a>
</g>
</g>
<!-- Node3&#45;&gt;Node4 -->
<g id="edge3" class="edge"><title>Node3&#45;&gt;Node4</title>
<path fill="none" stroke="midnightblue" d="M218.131,-172.353C221.914,-174.022 225.573,-175.896 229,-178 249.383,-190.514 248.076,-201.1 265,-218 284.828,-237.8 309.027,-259.109 325.162,-272.947"/>
<polygon fill="midnightblue" stroke="midnightblue" points="219.127,-168.985 208.539,-168.613 216.584,-175.507 219.127,-168.985"/>
</g>
<!-- Node7 -->
<g id="node7" class="node"><title>Node7</title>
<g id="a_node7"><a xlink:href="rpcwallet_8h.html#aae9bc665151c5bab626a7ffcaeed9c0d" target="_top" xlink:title="EnsureWalletIsUnlocked">
<polygon fill="white" stroke="black" points="279.5,-171.5 279.5,-190.5 408.5,-190.5 408.5,-171.5 279.5,-171.5"/>
<text text-anchor="middle" x="344" y="-178.5" font-family="Helvetica,sans-Serif" font-size="10.00">EnsureWalletIsUnlocked</text>
</a>
</g>
</g>
<!-- Node3&#45;&gt;Node7 -->
<g id="edge6" class="edge"><title>Node3&#45;&gt;Node7</title>
<path fill="none" stroke="midnightblue" d="M239.249,-168.629C252.708,-170.233 266.498,-171.878 279.451,-173.422"/>
<polygon fill="midnightblue" stroke="midnightblue" points="239.385,-165.12 229.041,-167.411 238.556,-172.071 239.385,-165.12"/>
</g>
<!-- Node17 -->
<g id="node17" class="node"><title>Node17</title>
<g id="a_node17"><a xlink:href="class_list_coins_testing_setup.html#a8ce37c5d8d073c901b91153f83c47ee8" target="_top" xlink:title="ListCoinsTestingSetup\l::AddTx">
<polygon fill="white" stroke="black" points="283.5,-122 283.5,-152 404.5,-152 404.5,-122 283.5,-122"/>
<text text-anchor="start" x="291.5" y="-140" font-family="Helvetica,sans-Serif" font-size="10.00">ListCoinsTestingSetup</text>
<text text-anchor="middle" x="344" y="-129" font-family="Helvetica,sans-Serif" font-size="10.00">::AddTx</text>
</a>
</g>
</g>
<!-- Node3&#45;&gt;Node17 -->
<g id="edge23" class="edge"><title>Node3&#45;&gt;Node17</title>
<path fill="none" stroke="midnightblue" d="M239.215,-149.375C254.032,-147.609 269.251,-145.794 283.313,-144.117"/>
<polygon fill="midnightblue" stroke="midnightblue" points="238.556,-145.929 229.041,-150.589 239.385,-152.88 238.556,-145.929"/>
</g>
<!-- Node5 -->
<g id="node5" class="node"><title>Node5</title>
<g id="a_node5"><a xlink:href="rpcwallet_8h.html#a7c13054932c9e3b351bd6277fa9361d7" target="_top" xlink:title="signrawtransactionwithwallet">
<polygon fill="white" stroke="black" points="460,-304.5 460,-323.5 612,-323.5 612,-304.5 460,-304.5"/>
<text text-anchor="middle" x="536" y="-311.5" font-family="Helvetica,sans-Serif" font-size="10.00">signrawtransactionwithwallet</text>
</a>
</g>
</g>
<!-- Node4&#45;&gt;Node5 -->
<g id="edge4" class="edge"><title>Node4&#45;&gt;Node5</title>
<path fill="none" stroke="midnightblue" d="M433.029,-300.046C443.894,-301.533 454.88,-303.036 465.417,-304.478"/>
<polygon fill="midnightblue" stroke="midnightblue" points="433.485,-296.576 423.103,-298.688 432.536,-303.511 433.485,-296.576"/>
</g>
<!-- Node6 -->
<g id="node6" class="node"><title>Node6</title>
<g id="a_node6"><a xlink:href="rpcwallet_8cpp.html#afca55ac7a3c6c274b8b7b3e6eab9cd86" target="_top" xlink:title="walletcreatefundedpsbt">
<polygon fill="white" stroke="black" points="662,-228.5 662,-247.5 790,-247.5 790,-228.5 662,-228.5"/>
<text text-anchor="middle" x="726" y="-235.5" font-family="Helvetica,sans-Serif" font-size="10.00">walletcreatefundedpsbt</text>
</a>
</g>
</g>
<!-- Node5&#45;&gt;Node6 -->
<g id="edge5" class="edge"><title>Node5&#45;&gt;Node6</title>
<path fill="none" stroke="midnightblue" d="M592.629,-301.643C599.562,-299.651 606.495,-297.433 613,-295 648.558,-281.702 687.52,-260.149 708.833,-247.705"/>
<polygon fill="midnightblue" stroke="midnightblue" points="591.25,-298.391 582.523,-304.399 593.092,-305.145 591.25,-298.391"/>
</g>
<!-- Node7&#45;&gt;Node5 -->
<g id="edge20" class="edge"><title>Node7&#45;&gt;Node5</title>
<path fill="none" stroke="midnightblue" d="M361.095,-198.072C389.673,-228.237 447.374,-288.417 459,-295 465.864,-298.887 473.519,-301.987 481.255,-304.459"/>
<polygon fill="midnightblue" stroke="midnightblue" points="363.598,-195.626 354.185,-190.764 358.512,-200.435 363.598,-195.626"/>
</g>
<!-- Node7&#45;&gt;Node7 -->
<g id="edge17" class="edge"><title>Node7&#45;&gt;Node7</title>
<path fill="none" stroke="midnightblue" d="M309.143,-198.891C309.653,-204.541 321.272,-209 344,-209 377.059,-209 386.615,-199.565 372.668,-190.757"/>
<polygon fill="midnightblue" stroke="midnightblue" points="312.062,-200.835 315.332,-190.757 306.491,-196.596 312.062,-200.835"/>
</g>
<!-- Node8 -->
<g id="node8" class="node"><title>Node8</title>
<g id="a_node8"><a xlink:href="rpcwallet_8cpp.html#a2f46e2bb304dda9a197b5a68db6106f7" target="_top" xlink:title="importprivkey">
<polygon fill="white" stroke="black" points="495,-266.5 495,-285.5 577,-285.5 577,-266.5 495,-266.5"/>
<text text-anchor="middle" x="536" y="-273.5" font-family="Helvetica,sans-Serif" font-size="10.00">importprivkey</text>
</a>
</g>
</g>
<!-- Node7&#45;&gt;Node8 -->
<g id="edge7" class="edge"><title>Node7&#45;&gt;Node8</title>
<path fill="none" stroke="midnightblue" d="M364.334,-196.937C386.086,-214.112 423.089,-241.114 459,-257 470.194,-261.952 482.911,-265.77 494.696,-268.64"/>
<polygon fill="midnightblue" stroke="midnightblue" points="366.506,-194.192 356.515,-190.665 362.126,-199.653 366.506,-194.192"/>
</g>
<!-- Node9 -->
<g id="node9" class="node"><title>Node9</title>
<g id="a_node9"><a xlink:href="wallet__tests_8cpp.html#a8c64ef6e0ced69002923098229448758" target="_top" xlink:title="importwallet">
<polygon fill="white" stroke="black" points="498.5,-114.5 498.5,-133.5 573.5,-133.5 573.5,-114.5 498.5,-114.5"/>
<text text-anchor="middle" x="536" y="-121.5" font-family="Helvetica,sans-Serif" font-size="10.00">importwallet</text>
</a>
</g>
</g>
<!-- Node7&#45;&gt;Node9 -->
<g id="edge9" class="edge"><title>Node7&#45;&gt;Node9</title>
<path fill="none" stroke="midnightblue" d="M399.047,-168.739C407.162,-166.44 415.365,-163.851 423,-161 439.759,-154.743 442.223,-149.206 459,-143 471.501,-138.376 485.568,-134.508 498.17,-131.494"/>
<polygon fill="midnightblue" stroke="midnightblue" points="397.971,-165.405 389.234,-171.398 399.802,-172.161 397.971,-165.405"/>
</g>
<!-- Node11 -->
<g id="node11" class="node"><title>Node11</title>
<g id="a_node11"><a xlink:href="rpcwallet_8cpp.html#ab3f51d8e8fe414dbf91c37485e481ae3" target="_top" xlink:title="dumpprivkey">
<polygon fill="white" stroke="black" points="497,-228.5 497,-247.5 575,-247.5 575,-228.5 497,-228.5"/>
<text text-anchor="middle" x="536" y="-235.5" font-family="Helvetica,sans-Serif" font-size="10.00">dumpprivkey</text>
</a>
</g>
</g>
<!-- Node7&#45;&gt;Node11 -->
<g id="edge11" class="edge"><title>Node7&#45;&gt;Node11</title>
<path fill="none" stroke="midnightblue" d="M381.7,-194.03C403.935,-201.725 432.945,-211.413 459,-219 471.275,-222.574 484.782,-226.086 496.962,-229.098"/>
<polygon fill="midnightblue" stroke="midnightblue" points="382.591,-190.634 371.996,-190.65 380.288,-197.245 382.591,-190.634"/>
</g>
<!-- Node12 -->
<g id="node12" class="node"><title>Node12</title>
<g id="a_node12"><a xlink:href="wallet__tests_8cpp.html#a73ce3a42e0b56b2e4516e55871d8590e" target="_top" xlink:title="dumpwallet">
<polygon fill="white" stroke="black" points="500.5,-76.5 500.5,-95.5 571.5,-95.5 571.5,-76.5 500.5,-76.5"/>
<text text-anchor="middle" x="536" y="-83.5" font-family="Helvetica,sans-Serif" font-size="10.00">dumpwallet</text>
</a>
</g>
</g>
<!-- Node7&#45;&gt;Node12 -->
<g id="edge13" class="edge"><title>Node7&#45;&gt;Node12</title>
<path fill="none" stroke="midnightblue" d="M412.476,-167.306C416.173,-165.462 419.715,-163.372 423,-161 446.991,-143.683 434.957,-122.245 459,-105 470.936,-96.4389 486.327,-91.7197 500.134,-89.1244"/>
<polygon fill="midnightblue" stroke="midnightblue" points="410.809,-164.213 403.022,-171.397 413.589,-170.638 410.809,-164.213"/>
</g>
<!-- Node13 -->
<g id="node13" class="node"><title>Node13</title>
<g id="a_node13"><a xlink:href="wallet__tests_8cpp.html#af0e3c9469f1d8f368d3d5f38e5580367" target="_top" xlink:title="importmulti">
<polygon fill="white" stroke="black" points="500,-38.5 500,-57.5 572,-57.5 572,-38.5 500,-38.5"/>
<text text-anchor="middle" x="536" y="-45.5" font-family="Helvetica,sans-Serif" font-size="10.00">importmulti</text>
</a>
</g>
</g>
<!-- Node7&#45;&gt;Node13 -->
<g id="edge15" class="edge"><title>Node7&#45;&gt;Node13</title>
<path fill="none" stroke="midnightblue" d="M415.516,-166.611C418.163,-164.936 420.675,-163.073 423,-161 456.396,-131.232 425.515,-96.667 459,-67 470.198,-57.079 485.805,-52.1758 499.964,-49.8101"/>
<polygon fill="midnightblue" stroke="midnightblue" points="413.829,-163.544 406.659,-171.343 417.128,-169.718 413.829,-163.544"/>
</g>
<!-- Node15 -->
<g id="node15" class="node"><title>Node15</title>
<g id="a_node15"><a xlink:href="rpcwallet_8cpp.html#a74b85c92ee6a84277c73b74f2e212bff" target="_top" xlink:title="listtransactions">
<polygon fill="white" stroke="black" points="491.5,-190.5 491.5,-209.5 580.5,-209.5 580.5,-190.5 491.5,-190.5"/>
<text text-anchor="middle" x="536" y="-197.5" font-family="Helvetica,sans-Serif" font-size="10.00">listtransactions</text>
</a>
</g>
</g>
<!-- Node7&#45;&gt;Node15 -->
<g id="edge18" class="edge"><title>Node7&#45;&gt;Node15</title>
<path fill="none" stroke="midnightblue" d="M418.559,-188.356C443.144,-190.814 469.75,-193.475 491.315,-195.632"/>
<polygon fill="midnightblue" stroke="midnightblue" points="418.83,-184.866 408.531,-187.353 418.133,-191.831 418.83,-184.866"/>
</g>
<!-- Node16 -->
<g id="node16" class="node"><title>Node16</title>
<g id="a_node16"><a xlink:href="rpcwallet_8cpp.html#a61c7a90d1b36888fe11b751e746e18c0" target="_top" xlink:title="sethdseed">
<polygon fill="white" stroke="black" points="502.5,-152.5 502.5,-171.5 569.5,-171.5 569.5,-152.5 502.5,-152.5"/>
<text text-anchor="middle" x="536" y="-159.5" font-family="Helvetica,sans-Serif" font-size="10.00">sethdseed</text>
</a>
</g>
</g>
<!-- Node7&#45;&gt;Node16 -->
<g id="edge21" class="edge"><title>Node7&#45;&gt;Node16</title>
<path fill="none" stroke="midnightblue" d="M418.653,-173.635C447.653,-170.735 479.451,-167.555 502.464,-165.254"/>
<polygon fill="midnightblue" stroke="midnightblue" points="418.133,-170.169 408.531,-174.647 418.83,-177.134 418.133,-170.169"/>
</g>
<!-- Node8&#45;&gt;Node6 -->
<g id="edge8" class="edge"><title>Node8&#45;&gt;Node6</title>
<path fill="none" stroke="midnightblue" d="M587.349,-265.823C615.433,-260.147 650.198,-253.12 677.763,-247.548"/>
<polygon fill="midnightblue" stroke="midnightblue" points="586.439,-262.436 577.331,-267.848 587.826,-269.297 586.439,-262.436"/>
</g>
<!-- Node10 -->
<g id="node10" class="node"><title>Node10</title>
<g id="a_node10"><a xlink:href="wallet__tests_8cpp.html#a2a726fa52b0a343883cb50a3f68d0989" target="_top" xlink:title="BOOST_FIXTURE_TEST_CASE">
<polygon fill="white" stroke="black" points="649,-95.5 649,-114.5 803,-114.5 803,-95.5 649,-95.5"/>
<text text-anchor="middle" x="726" y="-102.5" font-family="Helvetica,sans-Serif" font-size="10.00">BOOST_FIXTURE_TEST_CASE</text>
</a>
</g>
</g>
<!-- Node9&#45;&gt;Node10 -->
<g id="edge10" class="edge"><title>Node9&#45;&gt;Node10</title>
<path fill="none" stroke="midnightblue" d="M583.878,-119.262C603.482,-117.281 626.774,-114.927 648.728,-112.708"/>
<polygon fill="midnightblue" stroke="midnightblue" points="583.292,-115.804 573.695,-120.292 583.996,-122.768 583.292,-115.804"/>
</g>
<!-- Node11&#45;&gt;Node6 -->
<g id="edge12" class="edge"><title>Node11&#45;&gt;Node6</title>
<path fill="none" stroke="midnightblue" d="M585.054,-238C608.404,-238 636.77,-238 661.843,-238"/>
<polygon fill="midnightblue" stroke="midnightblue" points="585.045,-234.5 575.045,-238 585.045,-241.5 585.045,-234.5"/>
</g>
<!-- Node12&#45;&gt;Node10 -->
<g id="edge14" class="edge"><title>Node12&#45;&gt;Node10</title>
<path fill="none" stroke="midnightblue" d="M582.003,-90.5482C602.06,-92.5752 626.247,-95.0197 648.978,-97.3169"/>
<polygon fill="midnightblue" stroke="midnightblue" points="582.222,-87.0526 571.921,-89.5292 581.518,-94.0171 582.222,-87.0526"/>
</g>
<!-- Node14 -->
<g id="node14" class="node"><title>Node14</title>
<g id="a_node14"><a xlink:href="wallet__tests_8cpp.html#a102aa881fd1aa3b1be48920b5b27dcc3" target="_top" xlink:title="BOOST_FIXTURE_TEST_CASE">
<polygon fill="white" stroke="black" points="649,-38.5 649,-57.5 803,-57.5 803,-38.5 649,-38.5"/>
<text text-anchor="middle" x="726" y="-45.5" font-family="Helvetica,sans-Serif" font-size="10.00">BOOST_FIXTURE_TEST_CASE</text>
</a>
</g>
</g>
<!-- Node13&#45;&gt;Node14 -->
<g id="edge16" class="edge"><title>Node13&#45;&gt;Node14</title>
<path fill="none" stroke="midnightblue" d="M582.402,-48C602.361,-48 626.351,-48 648.912,-48"/>
<polygon fill="midnightblue" stroke="midnightblue" points="582.361,-44.5001 572.361,-48 582.361,-51.5001 582.361,-44.5001"/>
</g>
<!-- Node15&#45;&gt;Node6 -->
<g id="edge19" class="edge"><title>Node15&#45;&gt;Node6</title>
<path fill="none" stroke="midnightblue" d="M590.447,-210.803C617.93,-216.358 651.134,-223.07 677.681,-228.436"/>
<polygon fill="midnightblue" stroke="midnightblue" points="591.099,-207.364 580.604,-208.813 589.712,-214.225 591.099,-207.364"/>
</g>
<!-- Node16&#45;&gt;Node6 -->
<g id="edge22" class="edge"><title>Node16&#45;&gt;Node6</title>
<path fill="none" stroke="midnightblue" d="M579.548,-170.841C590.593,-173.622 602.369,-177.024 613,-181 648.558,-194.298 687.52,-215.851 708.833,-228.295"/>
<polygon fill="midnightblue" stroke="midnightblue" points="580.205,-167.399 569.664,-168.463 578.568,-174.205 580.205,-167.399"/>
</g>
<!-- Node18 -->
<g id="node18" class="node"><title>Node18</title>
<g id="a_node18"><a xlink:href="wallet__tests_8cpp.html#a5124bfced35ed545732a62fc7c82f9b1" target="_top" xlink:title="BOOST_FIXTURE_TEST_CASE">
<polygon fill="white" stroke="black" points="459,-0.5 459,-19.5 613,-19.5 613,-0.5 459,-0.5"/>
<text text-anchor="middle" x="536" y="-7.5" font-family="Helvetica,sans-Serif" font-size="10.00">BOOST_FIXTURE_TEST_CASE</text>
</a>
</g>
</g>
<!-- Node17&#45;&gt;Node18 -->
<g id="edge24" class="edge"><title>Node17&#45;&gt;Node18</title>
<path fill="none" stroke="midnightblue" d="M413.422,-119.167C416.835,-117.041 420.06,-114.662 423,-112 452.805,-85.0105 428.331,-55.0038 459,-29 463.564,-25.1299 468.805,-22.0289 474.354,-19.5469"/>
<polygon fill="midnightblue" stroke="midnightblue" points="411.728,-116.103 404.605,-123.946 415.064,-122.257 411.728,-116.103"/>
</g>
<!-- Node20 -->
<g id="node20" class="node"><title>Node20</title>
<g id="a_node20"><a xlink:href="group___actions.html#ga68cfe5d9f1b41d7811fd8542308e7193" target="_top" xlink:title="Shuffle and select coins until nTargetValue is reached while avoiding small change; This method is st...">
<polygon fill="white" stroke="black" points="268,-83.5 268,-102.5 420,-102.5 420,-83.5 268,-83.5"/>
<text text-anchor="middle" x="344" y="-90.5" font-family="Helvetica,sans-Serif" font-size="10.00">CWallet::SelectCoinsMinConf</text>
</a>
</g>
</g>
<!-- Node19&#45;&gt;Node20 -->
<g id="edge26" class="edge"><title>Node19&#45;&gt;Node20</title>
<path fill="none" stroke="midnightblue" d="M213.898,-93C230.836,-93 249.758,-93 267.781,-93"/>
<polygon fill="midnightblue" stroke="midnightblue" points="213.634,-89.5001 203.634,-93 213.634,-96.5001 213.634,-89.5001"/>
</g>
<!-- Node21 -->
<g id="node21" class="node"><title>Node21</title>
<g id="a_node21"><a xlink:href="struct_output_group.html#a24e82790c3258c394c66df892724cc67" target="_top" xlink:title="OutputGroup::OutputGroup">
<polygon fill="white" stroke="black" points="270.5,-45.5 270.5,-64.5 417.5,-64.5 417.5,-45.5 270.5,-45.5"/>
<text text-anchor="middle" x="344" y="-52.5" font-family="Helvetica,sans-Serif" font-size="10.00">OutputGroup::OutputGroup</text>
</a>
</g>
</g>
<!-- Node19&#45;&gt;Node21 -->
<g id="edge27" class="edge"><title>Node19&#45;&gt;Node21</title>
<path fill="none" stroke="midnightblue" d="M213.529,-81.6661C240.037,-76.2065 271.472,-69.7321 296.728,-64.5302"/>
<polygon fill="midnightblue" stroke="midnightblue" points="212.722,-78.2588 203.634,-83.7042 214.134,-85.1148 212.722,-78.2588"/>
</g>
</g>
</svg>
