<?xml version="1.0" encoding="UTF-8" standalone="no"?>
<!DOCTYPE svg PUBLIC "-//W3C//DTD SVG 1.1//EN"
 "http://www.w3.org/Graphics/SVG/1.1/DTD/svg11.dtd">
<!-- Generated by graphviz version 2.38.0 (20140413.2041)
 -->
<!-- Title: LockingCallbackOpenSSL Pages: 1 -->
<svg width="1369pt" height="360pt"
 viewBox="0.00 0.00 1369.00 360.00" xmlns="http://www.w3.org/2000/svg" xmlns:xlink="http://www.w3.org/1999/xlink">
<g id="graph0" class="graph" transform="scale(1 1) rotate(0) translate(4 356)">
<title>LockingCallbackOpenSSL</title>
<polygon fill="white" stroke="none" points="-4,4 -4,-356 1365,-356 1365,4 -4,4"/>
<!-- Node1 -->
<g id="node1" class="node"><title>Node1</title>
<polygon fill="#bfbfbf" stroke="black" points="0,-101.5 0,-120.5 137,-120.5 137,-101.5 0,-101.5"/>
<text text-anchor="middle" x="68.5" y="-108.5" font-family="Helvetica,sans-Serif" font-size="10.00">LockingCallbackOpenSSL</text>
</g>
<!-- Node2 -->
<g id="node2" class="node"><title>Node2</title>
<g id="a_node2"><a xlink:href="random_8h.html#ad5a1de953fbf69ebdf3db0387a8271d3" target="_top" xlink:title="Get 32 bytes of system entropy. ">
<polygon fill="white" stroke="black" points="173,-101.5 173,-120.5 245,-120.5 245,-101.5 173,-101.5"/>
<text text-anchor="middle" x="209" y="-108.5" font-family="Helvetica,sans-Serif" font-size="10.00">GetOSRand</text>
</a>
</g>
</g>
<!-- Node1&#45;&gt;Node2 -->
<g id="edge1" class="edge"><title>Node1&#45;&gt;Node2</title>
<path fill="none" stroke="midnightblue" d="M147.249,-104.295C156.172,-104.391 164.903,-104.638 172.838,-105.037"/>
<polygon fill="midnightblue" stroke="midnightblue" points="147.142,-100.795 137.127,-104.252 147.112,-107.795 147.142,-100.795"/>
</g>
<!-- Node2&#45;&gt;Node1 -->
<g id="edge2" class="edge"><title>Node2&#45;&gt;Node1</title>
<path fill="none" stroke="midnightblue" d="M162.753,-117.376C154.542,-117.642 145.818,-117.766 137.127,-117.748"/>
<polygon fill="midnightblue" stroke="midnightblue" points="162.989,-120.869 172.838,-116.963 162.703,-113.875 162.989,-120.869"/>
</g>
<!-- Node3 -->
<g id="node3" class="node"><title>Node3</title>
<g id="a_node3"><a xlink:href="random_8h.html#a7fb6c441a23070a7f510fd48b5ca2a18" target="_top" xlink:title="Check that OS randomness is available and returning the requested number of bytes. ">
<polygon fill="white" stroke="black" points="281,-120.5 281,-139.5 402,-139.5 402,-120.5 281,-120.5"/>
<text text-anchor="middle" x="341.5" y="-127.5" font-family="Helvetica,sans-Serif" font-size="10.00">Random_SanityCheck</text>
</a>
</g>
</g>
<!-- Node2&#45;&gt;Node3 -->
<g id="edge3" class="edge"><title>Node2&#45;&gt;Node3</title>
<path fill="none" stroke="midnightblue" d="M255.398,-117.61C263.589,-118.802 272.24,-120.062 280.765,-121.303"/>
<polygon fill="midnightblue" stroke="midnightblue" points="255.715,-114.119 245.315,-116.142 254.707,-121.046 255.715,-114.119"/>
</g>
<!-- Node5 -->
<g id="node5" class="node"><title>Node5</title>
<g id="a_node5"><a xlink:href="random_8h.html#a53b77748e581672effd7b8a896138bce" target="_top" xlink:title="More efficient than using std::shuffle on a FastRandomContext. ">
<polygon fill="white" stroke="black" points="501,-82.5 501,-101.5 551,-101.5 551,-82.5 501,-82.5"/>
<text text-anchor="middle" x="526" y="-89.5" font-family="Helvetica,sans-Serif" font-size="10.00">Shuffle</text>
</a>
</g>
</g>
<!-- Node2&#45;&gt;Node5 -->
<g id="edge31" class="edge"><title>Node2&#45;&gt;Node5</title>
<path fill="none" stroke="midnightblue" d="M255.58,-108.251C323.328,-104.164 448.236,-96.6302 500.743,-93.4631"/>
<polygon fill="midnightblue" stroke="midnightblue" points="254.989,-104.78 245.218,-108.876 255.41,-111.767 254.989,-104.78"/>
</g>
<!-- Node4 -->
<g id="node4" class="node"><title>Node4</title>
<g id="a_node4"><a xlink:href="struct_c_importing_now.html#a0e449b23ac612ff3ff491d989fd08a18" target="_top" xlink:title="CImportingNow::~CImportingNow">
<polygon fill="white" stroke="black" points="438,-120.5 438,-139.5 614,-139.5 614,-120.5 438,-120.5"/>
<text text-anchor="middle" x="526" y="-127.5" font-family="Helvetica,sans-Serif" font-size="10.00">CImportingNow::~CImportingNow</text>
</a>
</g>
</g>
<!-- Node3&#45;&gt;Node4 -->
<g id="edge4" class="edge"><title>Node3&#45;&gt;Node4</title>
<path fill="none" stroke="midnightblue" d="M412.097,-130C420.494,-130 429.15,-130 437.758,-130"/>
<polygon fill="midnightblue" stroke="midnightblue" points="412.005,-126.5 402.005,-130 412.005,-133.5 412.005,-126.5"/>
</g>
<!-- Node3&#45;&gt;Node5 -->
<g id="edge5" class="edge"><title>Node3&#45;&gt;Node5</title>
<path fill="none" stroke="midnightblue" d="M398.448,-118.351C432.717,-111.215 474.839,-102.445 500.801,-97.0387"/>
<polygon fill="midnightblue" stroke="midnightblue" points="397.629,-114.946 388.552,-120.411 399.056,-121.799 397.629,-114.946"/>
</g>
<!-- Node6 -->
<g id="node6" class="node"><title>Node6</title>
<g id="a_node6"><a xlink:href="group___actions.html#ga04c446d786f3fc77d196b352bb28c76a" target="_top" xlink:title="Select a set of coins such that nValueRet &gt;= nTargetValue and at least all coins from coinControl are...">
<polygon fill="white" stroke="black" points="665,-120.5 665,-139.5 778,-139.5 778,-120.5 665,-120.5"/>
<text text-anchor="middle" x="721.5" y="-127.5" font-family="Helvetica,sans-Serif" font-size="10.00">CWallet::SelectCoins</text>
</a>
</g>
</g>
<!-- Node5&#45;&gt;Node6 -->
<g id="edge6" class="edge"><title>Node5&#45;&gt;Node6</title>
<path fill="none" stroke="midnightblue" d="M560.93,-98.6632C591.663,-104.699 637.294,-113.66 671.897,-120.455"/>
<polygon fill="midnightblue" stroke="midnightblue" points="561.603,-95.2286 551.116,-96.7359 560.254,-102.097 561.603,-95.2286"/>
</g>
<!-- Node7 -->
<g id="node7" class="node"><title>Node7</title>
<g id="a_node7"><a xlink:href="group___actions.html#ga42068df76177627faf57b6902f83b8c2" target="_top" xlink:title="Create a new transaction paying the recipients with a set of coins selected by SelectCoins(); Also cr...">
<polygon fill="white" stroke="black" points="650,-82.5 650,-101.5 793,-101.5 793,-82.5 650,-82.5"/>
<text text-anchor="middle" x="721.5" y="-89.5" font-family="Helvetica,sans-Serif" font-size="10.00">CWallet::CreateTransaction</text>
</a>
</g>
</g>
<!-- Node5&#45;&gt;Node7 -->
<g id="edge7" class="edge"><title>Node5&#45;&gt;Node7</title>
<path fill="none" stroke="midnightblue" d="M561.331,-92C585.814,-92 619.6,-92 649.749,-92"/>
<polygon fill="midnightblue" stroke="midnightblue" points="561.116,-88.5001 551.116,-92 561.116,-95.5001 561.116,-88.5001"/>
</g>
<!-- Node22 -->
<g id="node22" class="node"><title>Node22</title>
<g id="a_node22"><a xlink:href="coinselection_8h.html#a18bc5dae6dd2a951ff37c36259aea48a" target="_top" xlink:title="KnapsackSolver">
<polygon fill="white" stroke="black" points="675.5,-38.5 675.5,-57.5 767.5,-57.5 767.5,-38.5 675.5,-38.5"/>
<text text-anchor="middle" x="721.5" y="-45.5" font-family="Helvetica,sans-Serif" font-size="10.00">KnapsackSolver</text>
</a>
</g>
</g>
<!-- Node5&#45;&gt;Node22 -->
<g id="edge28" class="edge"><title>Node5&#45;&gt;Node22</title>
<path fill="none" stroke="midnightblue" d="M561.102,-84.2454C593.795,-76.8115 643.231,-65.5703 678.37,-57.58"/>
<polygon fill="midnightblue" stroke="midnightblue" points="560.091,-80.8861 551.116,-86.5163 561.643,-87.7118 560.091,-80.8861"/>
</g>
<!-- Node8 -->
<g id="node8" class="node"><title>Node8</title>
<g id="a_node8"><a xlink:href="rpcwallet_8h.html#aae9bc665151c5bab626a7ffcaeed9c0d" target="_top" xlink:title="EnsureWalletIsUnlocked">
<polygon fill="white" stroke="black" points="840.5,-180.5 840.5,-199.5 969.5,-199.5 969.5,-180.5 840.5,-180.5"/>
<text text-anchor="middle" x="905" y="-187.5" font-family="Helvetica,sans-Serif" font-size="10.00">EnsureWalletIsUnlocked</text>
</a>
</g>
</g>
<!-- Node7&#45;&gt;Node8 -->
<g id="edge8" class="edge"><title>Node7&#45;&gt;Node8</title>
<path fill="none" stroke="midnightblue" d="M777.183,-104.644C782.624,-106.521 787.984,-108.633 793,-111 833.216,-129.977 874.228,-163.687 893.178,-180.256"/>
<polygon fill="midnightblue" stroke="midnightblue" points="777.951,-101.216 767.36,-101.518 775.828,-107.886 777.951,-101.216"/>
</g>
<!-- Node20 -->
<g id="node20" class="node"><title>Node20</title>
<g id="a_node20"><a xlink:href="class_list_coins_testing_setup.html#a8ce37c5d8d073c901b91153f83c47ee8" target="_top" xlink:title="ListCoinsTestingSetup\l::AddTx">
<polygon fill="white" stroke="black" points="844.5,-77 844.5,-107 965.5,-107 965.5,-77 844.5,-77"/>
<text text-anchor="start" x="852.5" y="-95" font-family="Helvetica,sans-Serif" font-size="10.00">ListCoinsTestingSetup</text>
<text text-anchor="middle" x="905" y="-84" font-family="Helvetica,sans-Serif" font-size="10.00">::AddTx</text>
</a>
</g>
</g>
<!-- Node7&#45;&gt;Node20 -->
<g id="edge26" class="edge"><title>Node7&#45;&gt;Node20</title>
<path fill="none" stroke="midnightblue" d="M803.2,-92C817.047,-92 831.21,-92 844.378,-92"/>
<polygon fill="midnightblue" stroke="midnightblue" points="803.192,-88.5001 793.192,-92 803.192,-95.5001 803.192,-88.5001"/>
</g>
<!-- Node8&#45;&gt;Node8 -->
<g id="edge19" class="edge"><title>Node8&#45;&gt;Node8</title>
<path fill="none" stroke="midnightblue" d="M870.892,-207.891C871.392,-213.541 882.761,-218 905,-218 937.348,-218 946.698,-208.565 933.051,-199.757"/>
<polygon fill="midnightblue" stroke="midnightblue" points="873.784,-209.868 876.949,-199.757 868.169,-205.688 873.784,-209.868"/>
</g>
<!-- Node9 -->
<g id="node9" class="node"><title>Node9</title>
<g id="a_node9"><a xlink:href="rpcwallet_8cpp.html#a2f46e2bb304dda9a197b5a68db6106f7" target="_top" xlink:title="importprivkey">
<polygon fill="white" stroke="black" points="1053,-332.5 1053,-351.5 1135,-351.5 1135,-332.5 1053,-332.5"/>
<text text-anchor="middle" x="1094" y="-339.5" font-family="Helvetica,sans-Serif" font-size="10.00">importprivkey</text>
</a>
</g>
</g>
<!-- Node8&#45;&gt;Node9 -->
<g id="edge9" class="edge"><title>Node8&#45;&gt;Node9</title>
<path fill="none" stroke="midnightblue" d="M916.227,-208.581C933.214,-237.644 970.073,-293.569 1017,-323 1027.72,-329.72 1040.68,-334.065 1052.84,-336.874"/>
<polygon fill="midnightblue" stroke="midnightblue" points="919.233,-206.788 911.242,-199.832 913.151,-210.253 919.233,-206.788"/>
</g>
<!-- Node11 -->
<g id="node11" class="node"><title>Node11</title>
<g id="a_node11"><a xlink:href="wallet__tests_8cpp.html#a8c64ef6e0ced69002923098229448758" target="_top" xlink:title="importwallet">
<polygon fill="white" stroke="black" points="1056.5,-142.5 1056.5,-161.5 1131.5,-161.5 1131.5,-142.5 1056.5,-142.5"/>
<text text-anchor="middle" x="1094" y="-149.5" font-family="Helvetica,sans-Serif" font-size="10.00">importwallet</text>
</a>
</g>
</g>
<!-- Node8&#45;&gt;Node11 -->
<g id="edge11" class="edge"><title>Node8&#45;&gt;Node11</title>
<path fill="none" stroke="midnightblue" d="M963.223,-178.372C993.564,-172.206 1029.94,-164.815 1056.44,-159.428"/>
<polygon fill="midnightblue" stroke="midnightblue" points="962.291,-174.99 953.188,-180.411 963.685,-181.849 962.291,-174.99"/>
</g>
<!-- Node13 -->
<g id="node13" class="node"><title>Node13</title>
<g id="a_node13"><a xlink:href="rpcwallet_8cpp.html#ab3f51d8e8fe414dbf91c37485e481ae3" target="_top" xlink:title="dumpprivkey">
<polygon fill="white" stroke="black" points="1055,-294.5 1055,-313.5 1133,-313.5 1133,-294.5 1055,-294.5"/>
<text text-anchor="middle" x="1094" y="-301.5" font-family="Helvetica,sans-Serif" font-size="10.00">dumpprivkey</text>
</a>
</g>
</g>
<!-- Node8&#45;&gt;Node13 -->
<g id="edge13" class="edge"><title>Node8&#45;&gt;Node13</title>
<path fill="none" stroke="midnightblue" d="M921.172,-207.17C941.061,-228.604 978.025,-264.886 1017,-285 1028.6,-290.988 1042.19,-295.157 1054.64,-298.029"/>
<polygon fill="midnightblue" stroke="midnightblue" points="923.736,-204.787 914.417,-199.747 918.559,-209.499 923.736,-204.787"/>
</g>
<!-- Node14 -->
<g id="node14" class="node"><title>Node14</title>
<g id="a_node14"><a xlink:href="wallet__tests_8cpp.html#a73ce3a42e0b56b2e4516e55871d8590e" target="_top" xlink:title="dumpwallet">
<polygon fill="white" stroke="black" points="1058.5,-104.5 1058.5,-123.5 1129.5,-123.5 1129.5,-104.5 1058.5,-104.5"/>
<text text-anchor="middle" x="1094" y="-111.5" font-family="Helvetica,sans-Serif" font-size="10.00">dumpwallet</text>
</a>
</g>
</g>
<!-- Node8&#45;&gt;Node14 -->
<g id="edge15" class="edge"><title>Node8&#45;&gt;Node14</title>
<path fill="none" stroke="midnightblue" d="M930.327,-175.44C952.332,-162.777 985.951,-144.676 1017,-133 1030.24,-128.021 1045.26,-123.952 1058.44,-120.875"/>
<polygon fill="midnightblue" stroke="midnightblue" points="928.525,-172.439 921.648,-180.499 932.05,-178.487 928.525,-172.439"/>
</g>
<!-- Node15 -->
<g id="node15" class="node"><title>Node15</title>
<g id="a_node15"><a xlink:href="wallet__tests_8cpp.html#af0e3c9469f1d8f368d3d5f38e5580367" target="_top" xlink:title="importmulti">
<polygon fill="white" stroke="black" points="1058,-66.5 1058,-85.5 1130,-85.5 1130,-66.5 1058,-66.5"/>
<text text-anchor="middle" x="1094" y="-73.5" font-family="Helvetica,sans-Serif" font-size="10.00">importmulti</text>
</a>
</g>
</g>
<!-- Node8&#45;&gt;Node15 -->
<g id="edge17" class="edge"><title>Node8&#45;&gt;Node15</title>
<path fill="none" stroke="midnightblue" d="M921.172,-172.83C941.061,-151.396 978.025,-115.114 1017,-95 1029.57,-88.5132 1044.47,-84.1611 1057.73,-81.28"/>
<polygon fill="midnightblue" stroke="midnightblue" points="918.559,-170.501 914.417,-180.253 923.736,-175.213 918.559,-170.501"/>
</g>
<!-- Node17 -->
<g id="node17" class="node"><title>Node17</title>
<g id="a_node17"><a xlink:href="rpcwallet_8cpp.html#a74b85c92ee6a84277c73b74f2e212bff" target="_top" xlink:title="listtransactions">
<polygon fill="white" stroke="black" points="1049.5,-256.5 1049.5,-275.5 1138.5,-275.5 1138.5,-256.5 1049.5,-256.5"/>
<text text-anchor="middle" x="1094" y="-263.5" font-family="Helvetica,sans-Serif" font-size="10.00">listtransactions</text>
</a>
</g>
</g>
<!-- Node8&#45;&gt;Node17 -->
<g id="edge20" class="edge"><title>Node8&#45;&gt;Node17</title>
<path fill="none" stroke="midnightblue" d="M930.327,-204.56C952.332,-217.223 985.951,-235.324 1017,-247 1027.31,-250.878 1038.71,-254.204 1049.47,-256.939"/>
<polygon fill="midnightblue" stroke="midnightblue" points="932.05,-201.513 921.648,-199.501 928.525,-207.561 932.05,-201.513"/>
</g>
<!-- Node18 -->
<g id="node18" class="node"><title>Node18</title>
<g id="a_node18"><a xlink:href="rpcwallet_8h.html#a7c13054932c9e3b351bd6277fa9361d7" target="_top" xlink:title="signrawtransactionwithwallet">
<polygon fill="white" stroke="black" points="1018,-218.5 1018,-237.5 1170,-237.5 1170,-218.5 1018,-218.5"/>
<text text-anchor="middle" x="1094" y="-225.5" font-family="Helvetica,sans-Serif" font-size="10.00">signrawtransactionwithwallet</text>
</a>
</g>
</g>
<!-- Node8&#45;&gt;Node18 -->
<g id="edge22" class="edge"><title>Node8&#45;&gt;Node18</title>
<path fill="none" stroke="midnightblue" d="M963.131,-201.61C989.727,-207.014 1020.97,-213.364 1046.15,-218.48"/>
<polygon fill="midnightblue" stroke="midnightblue" points="963.685,-198.151 953.188,-199.589 962.291,-205.01 963.685,-198.151"/>
</g>
<!-- Node19 -->
<g id="node19" class="node"><title>Node19</title>
<g id="a_node19"><a xlink:href="rpcwallet_8cpp.html#a61c7a90d1b36888fe11b751e746e18c0" target="_top" xlink:title="sethdseed">
<polygon fill="white" stroke="black" points="1060.5,-180.5 1060.5,-199.5 1127.5,-199.5 1127.5,-180.5 1060.5,-180.5"/>
<text text-anchor="middle" x="1094" y="-187.5" font-family="Helvetica,sans-Serif" font-size="10.00">sethdseed</text>
</a>
</g>
</g>
<!-- Node8&#45;&gt;Node19 -->
<g id="edge24" class="edge"><title>Node8&#45;&gt;Node19</title>
<path fill="none" stroke="midnightblue" d="M979.727,-190C1007.65,-190 1038.04,-190 1060.31,-190"/>
<polygon fill="midnightblue" stroke="midnightblue" points="979.571,-186.5 969.571,-190 979.571,-193.5 979.571,-186.5"/>
</g>
<!-- Node10 -->
<g id="node10" class="node"><title>Node10</title>
<g id="a_node10"><a xlink:href="rpcwallet_8cpp.html#afca55ac7a3c6c274b8b7b3e6eab9cd86" target="_top" xlink:title="walletcreatefundedpsbt">
<polygon fill="white" stroke="black" points="1220,-256.5 1220,-275.5 1348,-275.5 1348,-256.5 1220,-256.5"/>
<text text-anchor="middle" x="1284" y="-263.5" font-family="Helvetica,sans-Serif" font-size="10.00">walletcreatefundedpsbt</text>
</a>
</g>
</g>
<!-- Node9&#45;&gt;Node10 -->
<g id="edge10" class="edge"><title>Node9&#45;&gt;Node10</title>
<path fill="none" stroke="midnightblue" d="M1145.1,-331.187C1153.84,-328.817 1162.76,-326.081 1171,-323 1206.56,-309.702 1245.52,-288.149 1266.83,-275.705"/>
<polygon fill="midnightblue" stroke="midnightblue" points="1144.16,-327.814 1135.36,-333.706 1145.91,-334.591 1144.16,-327.814"/>
</g>
<!-- Node12 -->
<g id="node12" class="node"><title>Node12</title>
<g id="a_node12"><a xlink:href="wallet__tests_8cpp.html#a2a726fa52b0a343883cb50a3f68d0989" target="_top" xlink:title="BOOST_FIXTURE_TEST_CASE">
<polygon fill="white" stroke="black" points="1207,-123.5 1207,-142.5 1361,-142.5 1361,-123.5 1207,-123.5"/>
<text text-anchor="middle" x="1284" y="-130.5" font-family="Helvetica,sans-Serif" font-size="10.00">BOOST_FIXTURE_TEST_CASE</text>
</a>
</g>
</g>
<!-- Node11&#45;&gt;Node12 -->
<g id="edge12" class="edge"><title>Node11&#45;&gt;Node12</title>
<path fill="none" stroke="midnightblue" d="M1141.88,-147.262C1161.48,-145.281 1184.77,-142.927 1206.73,-140.708"/>
<polygon fill="midnightblue" stroke="midnightblue" points="1141.29,-143.804 1131.69,-148.292 1142,-150.768 1141.29,-143.804"/>
</g>
<!-- Node13&#45;&gt;Node10 -->
<g id="edge14" class="edge"><title>Node13&#45;&gt;Node10</title>
<path fill="none" stroke="midnightblue" d="M1143.15,-294.267C1171.57,-288.523 1207.39,-281.283 1235.67,-275.568"/>
<polygon fill="midnightblue" stroke="midnightblue" points="1142.15,-290.898 1133.04,-296.31 1143.54,-297.759 1142.15,-290.898"/>
</g>
<!-- Node14&#45;&gt;Node12 -->
<g id="edge16" class="edge"><title>Node14&#45;&gt;Node12</title>
<path fill="none" stroke="midnightblue" d="M1140,-118.548C1160.06,-120.575 1184.25,-123.02 1206.98,-125.317"/>
<polygon fill="midnightblue" stroke="midnightblue" points="1140.22,-115.053 1129.92,-117.529 1139.52,-122.017 1140.22,-115.053"/>
</g>
<!-- Node16 -->
<g id="node16" class="node"><title>Node16</title>
<g id="a_node16"><a xlink:href="wallet__tests_8cpp.html#a102aa881fd1aa3b1be48920b5b27dcc3" target="_top" xlink:title="BOOST_FIXTURE_TEST_CASE">
<polygon fill="white" stroke="black" points="1207,-66.5 1207,-85.5 1361,-85.5 1361,-66.5 1207,-66.5"/>
<text text-anchor="middle" x="1284" y="-73.5" font-family="Helvetica,sans-Serif" font-size="10.00">BOOST_FIXTURE_TEST_CASE</text>
</a>
</g>
</g>
<!-- Node15&#45;&gt;Node16 -->
<g id="edge18" class="edge"><title>Node15&#45;&gt;Node16</title>
<path fill="none" stroke="midnightblue" d="M1140.4,-76C1160.36,-76 1184.35,-76 1206.91,-76"/>
<polygon fill="midnightblue" stroke="midnightblue" points="1140.36,-72.5001 1130.36,-76 1140.36,-79.5001 1140.36,-72.5001"/>
</g>
<!-- Node17&#45;&gt;Node10 -->
<g id="edge21" class="edge"><title>Node17&#45;&gt;Node10</title>
<path fill="none" stroke="midnightblue" d="M1148.81,-266C1170.91,-266 1196.67,-266 1219.68,-266"/>
<polygon fill="midnightblue" stroke="midnightblue" points="1148.6,-262.5 1138.6,-266 1148.6,-269.5 1148.6,-262.5"/>
</g>
<!-- Node18&#45;&gt;Node10 -->
<g id="edge23" class="edge"><title>Node18&#45;&gt;Node10</title>
<path fill="none" stroke="midnightblue" d="M1152.44,-239.61C1179.17,-245.014 1210.59,-251.364 1235.9,-256.48"/>
<polygon fill="midnightblue" stroke="midnightblue" points="1152.94,-236.14 1142.44,-237.589 1151.55,-243.001 1152.94,-236.14"/>
</g>
<!-- Node19&#45;&gt;Node10 -->
<g id="edge25" class="edge"><title>Node19&#45;&gt;Node10</title>
<path fill="none" stroke="midnightblue" d="M1137.55,-198.841C1148.59,-201.622 1160.37,-205.024 1171,-209 1206.56,-222.298 1245.52,-243.851 1266.83,-256.295"/>
<polygon fill="midnightblue" stroke="midnightblue" points="1138.2,-195.399 1127.66,-196.463 1136.57,-202.205 1138.2,-195.399"/>
</g>
<!-- Node21 -->
<g id="node21" class="node"><title>Node21</title>
<g id="a_node21"><a xlink:href="wallet__tests_8cpp.html#a5124bfced35ed545732a62fc7c82f9b1" target="_top" xlink:title="BOOST_FIXTURE_TEST_CASE">
<polygon fill="white" stroke="black" points="1017,-28.5 1017,-47.5 1171,-47.5 1171,-28.5 1017,-28.5"/>
<text text-anchor="middle" x="1094" y="-35.5" font-family="Helvetica,sans-Serif" font-size="10.00">BOOST_FIXTURE_TEST_CASE</text>
</a>
</g>
</g>
<!-- Node20&#45;&gt;Node21 -->
<g id="edge27" class="edge"><title>Node20&#45;&gt;Node21</title>
<path fill="none" stroke="midnightblue" d="M961.089,-73.9063C978.867,-68.2617 998.706,-62.1659 1017,-57 1028.65,-53.7106 1041.38,-50.4119 1053.04,-47.508"/>
<polygon fill="midnightblue" stroke="midnightblue" points="959.908,-70.6093 951.448,-76.987 962.039,-77.2772 959.908,-70.6093"/>
</g>
<!-- Node23 -->
<g id="node23" class="node"><title>Node23</title>
<g id="a_node23"><a xlink:href="group___actions.html#ga68cfe5d9f1b41d7811fd8542308e7193" target="_top" xlink:title="Shuffle and select coins until nTargetValue is reached while avoiding small change; This method is st...">
<polygon fill="white" stroke="black" points="829,-38.5 829,-57.5 981,-57.5 981,-38.5 829,-38.5"/>
<text text-anchor="middle" x="905" y="-45.5" font-family="Helvetica,sans-Serif" font-size="10.00">CWallet::SelectCoinsMinConf</text>
</a>
</g>
</g>
<!-- Node22&#45;&gt;Node23 -->
<g id="edge29" class="edge"><title>Node22&#45;&gt;Node23</title>
<path fill="none" stroke="midnightblue" d="M778.095,-48C794.133,-48 811.903,-48 828.916,-48"/>
<polygon fill="midnightblue" stroke="midnightblue" points="777.832,-44.5001 767.832,-48 777.832,-51.5001 777.832,-44.5001"/>
</g>
<!-- Node24 -->
<g id="node24" class="node"><title>Node24</title>
<g id="a_node24"><a xlink:href="struct_output_group.html#a24e82790c3258c394c66df892724cc67" target="_top" xlink:title="OutputGroup::OutputGroup">
<polygon fill="white" stroke="black" points="831.5,-0.5 831.5,-19.5 978.5,-19.5 978.5,-0.5 831.5,-0.5"/>
<text text-anchor="middle" x="905" y="-7.5" font-family="Helvetica,sans-Serif" font-size="10.00">OutputGroup::OutputGroup</text>
</a>
</g>
</g>
<!-- Node22&#45;&gt;Node24 -->
<g id="edge30" class="edge"><title>Node22&#45;&gt;Node24</title>
<path fill="none" stroke="midnightblue" d="M777.866,-36.4081C803.729,-30.9934 834.138,-24.6268 858.617,-19.5017"/>
<polygon fill="midnightblue" stroke="midnightblue" points="776.902,-33.034 767.832,-38.509 778.337,-39.8854 776.902,-33.034"/>
</g>
</g>
</svg>
