<?xml version="1.0" encoding="UTF-8" standalone="no"?>
<!DOCTYPE svg PUBLIC "-//W3C//DTD SVG 1.1//EN"
 "http://www.w3.org/Graphics/SVG/1.1/DTD/svg11.dtd">
<!-- Generated by graphviz version 2.49.3 (0)
 -->
<!-- Title: FUZZ_TARGET_INIT Pages: 1 -->
<svg width="493pt" height="165pt"
 viewBox="0.00 0.00 493.00 164.50" xmlns="http://www.w3.org/2000/svg" xmlns:xlink="http://www.w3.org/1999/xlink">
<g id="graph0" class="graph" transform="scale(1 1) rotate(0) translate(4 160.5)">
<title>FUZZ_TARGET_INIT</title>
<polygon fill="white" stroke="transparent" points="-4,4 -4,-160.5 489,-160.5 489,4 -4,4"/>
<!-- Node1 -->
<g id="node1" class="node">
<title>Node1</title>
<g id="a_node1"><a xlink:title=" ">
<polygon fill="#bfbfbf" stroke="black" points="0,-60.5 0,-79.5 112,-79.5 112,-60.5 0,-60.5"/>
<text text-anchor="middle" x="56" y="-67.5" font-family="Helvetica,sans-Serif" font-size="10.00">FUZZ_TARGET_INIT</text>
</a>
</g>
</g>
<!-- Node2 -->
<g id="node2" class="node">
<title>Node2</title>
<g id="a_node2"><a xlink:href="class_fuzzed_data_provider.html#a531929f3e4793b5e86567907357197c2" target="_top" xlink:title=" ">
<polygon fill="white" stroke="black" points="176,-126 176,-156 290,-156 290,-126 176,-126"/>
<text text-anchor="start" x="184" y="-144" font-family="Helvetica,sans-Serif" font-size="10.00">FuzzedDataProvider</text>
<text text-anchor="middle" x="233" y="-133" font-family="Helvetica,sans-Serif" font-size="10.00">::ConsumeBool</text>
</a>
</g>
</g>
<!-- Node1&#45;&gt;Node2 -->
<g id="edge1" class="edge">
<title>Node1&#45;&gt;Node2</title>
<path fill="none" stroke="midnightblue" d="M73.31,-79.68C91.17,-89.98 120.89,-106.25 148,-117 153.83,-119.31 159.97,-121.5 166.16,-123.55"/>
<polygon fill="midnightblue" stroke="midnightblue" points="165.31,-126.95 175.9,-126.65 167.43,-120.28 165.31,-126.95"/>
</g>
<!-- Node3 -->
<g id="node3" class="node">
<title>Node3</title>
<g id="a_node3"><a xlink:href="class_fuzzed_data_provider.html#a2330fe37d3bf4e16f3a3b1c98303b02b" target="_top" xlink:title=" ">
<polygon fill="white" stroke="black" points="148,-77 148,-107 318,-107 318,-77 148,-77"/>
<text text-anchor="start" x="156" y="-95" font-family="Helvetica,sans-Serif" font-size="10.00">FuzzedDataProvider</text>
<text text-anchor="middle" x="233" y="-84" font-family="Helvetica,sans-Serif" font-size="10.00">::ConsumeRandomLengthString</text>
</a>
</g>
</g>
<!-- Node1&#45;&gt;Node3 -->
<g id="edge2" class="edge">
<title>Node1&#45;&gt;Node3</title>
<path fill="none" stroke="midnightblue" d="M112.37,-76.96C120.5,-77.98 129.07,-79.06 137.72,-80.15"/>
<polygon fill="midnightblue" stroke="midnightblue" points="137.54,-83.65 147.9,-81.43 138.41,-76.71 137.54,-83.65"/>
</g>
<!-- Node5 -->
<g id="node5" class="node">
<title>Node5</title>
<g id="a_node5"><a xlink:href="test_2fuzz_2util_8cpp.html#a31c2e02f1d90cc631df867f89d322fd3" target="_top" xlink:title=" ">
<polygon fill="white" stroke="black" points="189.5,-38.5 189.5,-57.5 276.5,-57.5 276.5,-38.5 189.5,-38.5"/>
<text text-anchor="middle" x="233" y="-45.5" font-family="Helvetica,sans-Serif" font-size="10.00">ConsumeTime</text>
</a>
</g>
</g>
<!-- Node1&#45;&gt;Node5 -->
<g id="edge4" class="edge">
<title>Node1&#45;&gt;Node5</title>
<path fill="none" stroke="midnightblue" d="M112.37,-63.04C133.8,-60.35 158.21,-57.28 179.37,-54.62"/>
<polygon fill="midnightblue" stroke="midnightblue" points="179.98,-58.07 189.47,-53.35 179.11,-51.12 179.98,-58.07"/>
</g>
<!-- Node7 -->
<g id="node7" class="node">
<title>Node7</title>
<g id="a_node7"><a xlink:href="time_8cpp.html#a79d4c36b511d6690ab0bbde0e0da9251" target="_top" xlink:title="DEPRECATED Use SetMockTime with chrono type.">
<polygon fill="white" stroke="black" points="191.5,-0.5 191.5,-19.5 274.5,-19.5 274.5,-0.5 191.5,-0.5"/>
<text text-anchor="middle" x="233" y="-7.5" font-family="Helvetica,sans-Serif" font-size="10.00">SetMockTime</text>
</a>
</g>
</g>
<!-- Node1&#45;&gt;Node7 -->
<g id="edge6" class="edge">
<title>Node1&#45;&gt;Node7</title>
<path fill="none" stroke="midnightblue" d="M75.38,-60.39C93.46,-51.27 122.04,-37.69 148,-29 158.64,-25.44 170.26,-22.34 181.37,-19.72"/>
<polygon fill="midnightblue" stroke="midnightblue" points="182.4,-23.08 191.38,-17.47 180.86,-16.25 182.4,-23.08"/>
</g>
<!-- Node4 -->
<g id="node4" class="node">
<title>Node4</title>
<g id="a_node4"><a xlink:href="class_fuzzed_data_provider.html#a14b9d9a51909ad40791b0b3b1905532f" target="_top" xlink:title=" ">
<polygon fill="white" stroke="black" points="362.5,-77 362.5,-107 476.5,-107 476.5,-77 362.5,-77"/>
<text text-anchor="start" x="370.5" y="-95" font-family="Helvetica,sans-Serif" font-size="10.00">FuzzedDataProvider</text>
<text text-anchor="middle" x="419.5" y="-84" font-family="Helvetica,sans-Serif" font-size="10.00">::Advance</text>
</a>
</g>
</g>
<!-- Node3&#45;&gt;Node4 -->
<g id="edge3" class="edge">
<title>Node3&#45;&gt;Node4</title>
<path fill="none" stroke="midnightblue" d="M318.15,-92C329.65,-92 341.31,-92 352.43,-92"/>
<polygon fill="midnightblue" stroke="midnightblue" points="352.46,-95.5 362.46,-92 352.46,-88.5 352.46,-95.5"/>
</g>
<!-- Node6 -->
<g id="node6" class="node">
<title>Node6</title>
<g id="a_node6"><a xlink:href="time_8cpp.html#aa51512a587dfb94d706cb9012c92d1b6" target="_top" xlink:title=" ">
<polygon fill="white" stroke="black" points="354,-38.5 354,-57.5 485,-57.5 485,-38.5 354,-38.5"/>
<text text-anchor="middle" x="419.5" y="-45.5" font-family="Helvetica,sans-Serif" font-size="10.00">ParseISO8601DateTime</text>
</a>
</g>
</g>
<!-- Node5&#45;&gt;Node6 -->
<g id="edge5" class="edge">
<title>Node5&#45;&gt;Node6</title>
<path fill="none" stroke="midnightblue" d="M276.79,-48C296.73,-48 321.04,-48 343.86,-48"/>
<polygon fill="midnightblue" stroke="midnightblue" points="343.87,-51.5 353.87,-48 343.87,-44.5 343.87,-51.5"/>
</g>
<!-- Node8 -->
<g id="node8" class="node">
<title>Node8</title>
<g id="a_node8"><a xlink:href="time_8cpp.html#a3f7dd7433910d4d5aea5296836cf7257" target="_top" xlink:title="For testing.">
<polygon fill="white" stroke="black" points="382.5,-0.5 382.5,-19.5 456.5,-19.5 456.5,-0.5 382.5,-0.5"/>
<text text-anchor="middle" x="419.5" y="-7.5" font-family="Helvetica,sans-Serif" font-size="10.00">nMockTime</text>
</a>
</g>
</g>
<!-- Node7&#45;&gt;Node8 -->
<g id="edge7" class="edge">
<title>Node7&#45;&gt;Node8</title>
<path fill="none" stroke="midnightblue" d="M274.95,-10C303.72,-10 342.26,-10 372.16,-10"/>
<polygon fill="midnightblue" stroke="midnightblue" points="372.35,-13.5 382.35,-10 372.35,-6.5 372.35,-13.5"/>
</g>
</g>
</svg>
