<?xml version="1.0" encoding="UTF-8" standalone="no"?>
<!DOCTYPE svg PUBLIC "-//W3C//DTD SVG 1.1//EN"
 "http://www.w3.org/Graphics/SVG/1.1/DTD/svg11.dtd">
<!-- Generated by graphviz version 2.40.1 (20161225.0304)
 -->
<!-- Title: JSONRPCReplyObj Pages: 1 -->
<svg width="247pt" height="66pt"
 viewBox="0.00 0.00 247.00 66.00" xmlns="http://www.w3.org/2000/svg" xmlns:xlink="http://www.w3.org/1999/xlink">
<g id="graph0" class="graph" transform="scale(1 1) rotate(0) translate(4 62)">
<title>JSONRPCReplyObj</title>
<polygon fill="#ffffff" stroke="transparent" points="-4,4 -4,-62 243,-62 243,4 -4,4"/>
<!-- Node102 -->
<g id="node1" class="node">
<title>Node102</title>
<polygon fill="#bfbfbf" stroke="#000000" points="0,-19.5 0,-38.5 106,-38.5 106,-19.5 0,-19.5"/>
<text text-anchor="middle" x="53" y="-26.5" font-family="Helvetica,sans-Serif" font-size="10.00" fill="#000000">JSONRPCReplyObj</text>
</g>
<!-- Node103 -->
<g id="node2" class="node">
<title>Node103</title>
<g id="a_node2"><a xlink:href="class_uni_value.html#a3661be0f5580daceb23e5338e3a0df22" target="_top" xlink:title="UniValue::isNull">
<polygon fill="#ffffff" stroke="#000000" points="147,-38.5 147,-57.5 234,-57.5 234,-38.5 147,-38.5"/>
<text text-anchor="middle" x="190.5" y="-45.5" font-family="Helvetica,sans-Serif" font-size="10.00" fill="#000000">UniValue::isNull</text>
</a>
</g>
</g>
<!-- Node102&#45;&gt;Node103 -->
<g id="edge1" class="edge">
<title>Node102&#45;&gt;Node103</title>
<path fill="none" stroke="#191970" d="M106.1611,-36.3459C116.2499,-37.74 126.8114,-39.1994 136.9133,-40.5953"/>
<polygon fill="#191970" stroke="#191970" points="136.4424,-44.0634 146.8274,-41.9652 137.4006,-37.1293 136.4424,-44.0634"/>
</g>
<!-- Node104 -->
<g id="node3" class="node">
<title>Node104</title>
<g id="a_node3"><a xlink:href="class_uni_value.html#abab649c2dbd593233de6364254456026" target="_top" xlink:title="UniValue::pushKV">
<polygon fill="#ffffff" stroke="#000000" points="142,-.5 142,-19.5 239,-19.5 239,-.5 142,-.5"/>
<text text-anchor="middle" x="190.5" y="-7.5" font-family="Helvetica,sans-Serif" font-size="10.00" fill="#000000">UniValue::pushKV</text>
</a>
</g>
</g>
<!-- Node102&#45;&gt;Node104 -->
<g id="edge2" class="edge">
<title>Node102&#45;&gt;Node104</title>
<path fill="none" stroke="#191970" d="M106.1611,-21.6541C114.6345,-20.4832 123.4414,-19.2663 132.0294,-18.0796"/>
<polygon fill="#191970" stroke="#191970" points="132.5505,-21.5409 141.9773,-16.705 131.5923,-14.6068 132.5505,-21.5409"/>
</g>
</g>
</svg>
