<?xml version="1.0" encoding="UTF-8" standalone="no"?>
<!DOCTYPE svg PUBLIC "-//W3C//DTD SVG 1.1//EN"
 "http://www.w3.org/Graphics/SVG/1.1/DTD/svg11.dtd">
<!-- Generated by graphviz version 2.38.0 (20140413.2041)
 -->
<!-- Title: RPCErrorFromTransactionError Pages: 1 -->
<svg width="643pt" height="85pt"
 viewBox="0.00 0.00 643.00 85.00" xmlns="http://www.w3.org/2000/svg" xmlns:xlink="http://www.w3.org/1999/xlink">
<g id="graph0" class="graph" transform="scale(1 1) rotate(0) translate(4 81)">
<title>RPCErrorFromTransactionError</title>
<polygon fill="white" stroke="none" points="-4,4 -4,-81 639,-81 639,4 -4,4"/>
<!-- Node1 -->
<g id="node1" class="node"><title>Node1</title>
<polygon fill="#bfbfbf" stroke="black" points="0,-19.5 0,-38.5 160,-38.5 160,-19.5 0,-19.5"/>
<text text-anchor="middle" x="80" y="-26.5" font-family="Helvetica,sans-Serif" font-size="10.00">RPCErrorFromTransactionError</text>
</g>
<!-- Node2 -->
<g id="node2" class="node"><title>Node2</title>
<g id="a_node2"><a xlink:href="rpc_2util_8h.html#a3e7fc899379e99b7283ad1c441f2da6d" target="_top" xlink:title="JSONRPCTransactionError">
<polygon fill="white" stroke="black" points="196,-19.5 196,-38.5 333,-38.5 333,-19.5 196,-19.5"/>
<text text-anchor="middle" x="264.5" y="-26.5" font-family="Helvetica,sans-Serif" font-size="10.00">JSONRPCTransactionError</text>
</a>
</g>
</g>
<!-- Node1&#45;&gt;Node2 -->
<g id="edge1" class="edge"><title>Node1&#45;&gt;Node2</title>
<path fill="none" stroke="midnightblue" d="M170.281,-29C178.85,-29 187.441,-29 195.754,-29"/>
<polygon fill="midnightblue" stroke="midnightblue" points="170.251,-25.5001 160.251,-29 170.251,-32.5001 170.251,-25.5001"/>
</g>
<!-- Node3 -->
<g id="node3" class="node"><title>Node3</title>
<g id="a_node3"><a xlink:href="rawtransaction_8cpp.html#a220a68cf9c7fa672caf17951c5d280bd" target="_top" xlink:title="combinepsbt">
<polygon fill="white" stroke="black" points="380.5,-57.5 380.5,-76.5 459.5,-76.5 459.5,-57.5 380.5,-57.5"/>
<text text-anchor="middle" x="420" y="-64.5" font-family="Helvetica,sans-Serif" font-size="10.00">combinepsbt</text>
</a>
</g>
</g>
<!-- Node2&#45;&gt;Node3 -->
<g id="edge2" class="edge"><title>Node2&#45;&gt;Node3</title>
<path fill="none" stroke="midnightblue" d="M314.135,-41.04C335.58,-46.3488 360.423,-52.4988 380.544,-57.4799"/>
<polygon fill="midnightblue" stroke="midnightblue" points="314.783,-37.5947 304.235,-38.589 313.1,-44.3896 314.783,-37.5947"/>
</g>
<!-- Node5 -->
<g id="node5" class="node"><title>Node5</title>
<g id="a_node5"><a xlink:href="rpcwallet_8cpp.html#a9c99ceacf389a1ce91977c6f7ffa5022" target="_top" xlink:title="walletprocesspsbt">
<polygon fill="white" stroke="black" points="369,-19.5 369,-38.5 471,-38.5 471,-19.5 369,-19.5"/>
<text text-anchor="middle" x="420" y="-26.5" font-family="Helvetica,sans-Serif" font-size="10.00">walletprocesspsbt</text>
</a>
</g>
</g>
<!-- Node2&#45;&gt;Node5 -->
<g id="edge4" class="edge"><title>Node2&#45;&gt;Node5</title>
<path fill="none" stroke="midnightblue" d="M343.347,-29C351.942,-29 360.518,-29 368.645,-29"/>
<polygon fill="midnightblue" stroke="midnightblue" points="343.274,-25.5001 333.274,-29 343.274,-32.5001 343.274,-25.5001"/>
</g>
<!-- Node6 -->
<g id="node6" class="node"><title>Node6</title>
<g id="a_node6"><a xlink:href="rpcwallet_8cpp.html#afca55ac7a3c6c274b8b7b3e6eab9cd86" target="_top" xlink:title="walletcreatefundedpsbt">
<polygon fill="white" stroke="black" points="507,-0.5 507,-19.5 635,-19.5 635,-0.5 507,-0.5"/>
<text text-anchor="middle" x="571" y="-7.5" font-family="Helvetica,sans-Serif" font-size="10.00">walletcreatefundedpsbt</text>
</a>
</g>
</g>
<!-- Node2&#45;&gt;Node6 -->
<g id="edge6" class="edge"><title>Node2&#45;&gt;Node6</title>
<path fill="none" stroke="midnightblue" d="M317.5,-17.5488C333.892,-14.4531 352.125,-11.5361 369,-10 415.047,-5.80852 467.273,-5.95588 506.947,-7.07354"/>
<polygon fill="midnightblue" stroke="midnightblue" points="316.705,-14.138 307.56,-19.4887 318.046,-21.0083 316.705,-14.138"/>
</g>
<!-- Node4 -->
<g id="node4" class="node"><title>Node4</title>
<g id="a_node4"><a xlink:href="rawtransaction_8cpp.html#ad42de5fabb97fd8179f7874ccaae708a" target="_top" xlink:title="analyzepsbt">
<polygon fill="white" stroke="black" points="534,-57.5 534,-76.5 608,-76.5 608,-57.5 534,-57.5"/>
<text text-anchor="middle" x="571" y="-64.5" font-family="Helvetica,sans-Serif" font-size="10.00">analyzepsbt</text>
</a>
</g>
</g>
<!-- Node3&#45;&gt;Node4 -->
<g id="edge3" class="edge"><title>Node3&#45;&gt;Node4</title>
<path fill="none" stroke="midnightblue" d="M470.038,-67C490.903,-67 514.798,-67 533.992,-67"/>
<polygon fill="midnightblue" stroke="midnightblue" points="469.759,-63.5001 459.759,-67 469.759,-70.5001 469.759,-63.5001"/>
</g>
<!-- Node5&#45;&gt;Node6 -->
<g id="edge5" class="edge"><title>Node5&#45;&gt;Node6</title>
<path fill="none" stroke="midnightblue" d="M481.189,-21.3249C489.647,-20.2464 498.36,-19.1353 506.871,-18.05"/>
<polygon fill="midnightblue" stroke="midnightblue" points="480.506,-17.8835 471.029,-22.6204 481.392,-24.8273 480.506,-17.8835"/>
</g>
</g>
</svg>
