<?xml version="1.0" encoding="UTF-8" standalone="no"?>
<!DOCTYPE svg PUBLIC "-//W3C//DTD SVG 1.1//EN"
 "http://www.w3.org/Graphics/SVG/1.1/DTD/svg11.dtd">
<!-- Generated by graphviz version 2.38.0 (20140413.2041)
 -->
<!-- Title: importaddress Pages: 1 -->
<svg width="892pt" height="955pt"
 viewBox="0.00 0.00 892.00 955.00" xmlns="http://www.w3.org/2000/svg" xmlns:xlink="http://www.w3.org/1999/xlink">
<g id="graph0" class="graph" transform="scale(1 1) rotate(0) translate(4 951)">
<title>importaddress</title>
<polygon fill="white" stroke="none" points="-4,4 -4,-951 888,-951 888,4 -4,4"/>
<!-- Node1 -->
<g id="node1" class="node"><title>Node1</title>
<polygon fill="#bfbfbf" stroke="black" points="0,-498.5 0,-517.5 86,-517.5 86,-498.5 0,-498.5"/>
<text text-anchor="middle" x="43" y="-505.5" font-family="Helvetica,sans-Serif" font-size="10.00">importaddress</text>
</g>
<!-- Node2 -->
<g id="node2" class="node"><title>Node2</title>
<g id="a_node2"><a xlink:href="rpcwallet_8cpp.html#a13cf9bdc928d8ca0b67e34791da05ddc" target="_top" xlink:title="Figures out what wallet, if any, to use for a JSONRPCRequest. ">
<polygon fill="white" stroke="black" points="137,-805.5 137,-824.5 295,-824.5 295,-805.5 137,-805.5"/>
<text text-anchor="middle" x="216" y="-812.5" font-family="Helvetica,sans-Serif" font-size="10.00">GetWalletForJSONRPCRequest</text>
</a>
</g>
</g>
<!-- Node1&#45;&gt;Node2 -->
<g id="edge1" class="edge"><title>Node1&#45;&gt;Node2</title>
<path fill="none" stroke="midnightblue" d="M43.5852,-517.556C42.4203,-556.965 43.395,-708.536 122,-788 127.365,-793.424 133.75,-797.773 140.624,-801.258"/>
<polygon fill="midnightblue" stroke="midnightblue" points="139.69,-804.671 150.253,-805.495 142.509,-798.264 139.69,-804.671"/>
</g>
<!-- Node9 -->
<g id="node9" class="node"><title>Node9</title>
<g id="a_node9"><a xlink:href="rpc_2protocol_8cpp.html#a40b75d3d265c4a2e1d5fe3e129743884" target="_top" xlink:title="JSONRPCError">
<polygon fill="white" stroke="black" points="402.5,-744.5 402.5,-763.5 485.5,-763.5 485.5,-744.5 402.5,-744.5"/>
<text text-anchor="middle" x="444" y="-751.5" font-family="Helvetica,sans-Serif" font-size="10.00">JSONRPCError</text>
</a>
</g>
</g>
<!-- Node1&#45;&gt;Node9 -->
<g id="edge35" class="edge"><title>Node1&#45;&gt;Node9</title>
<path fill="none" stroke="midnightblue" d="M43.4699,-517.551C41.9515,-555.498 42.022,-696.385 122,-755 207.335,-817.541 342.635,-786.774 406.865,-766.696"/>
<polygon fill="midnightblue" stroke="midnightblue" points="408.097,-769.976 416.545,-763.581 405.953,-763.312 408.097,-769.976"/>
</g>
<!-- Node21 -->
<g id="node21" class="node"><title>Node21</title>
<g id="a_node21"><a xlink:href="rpcwallet_8cpp.html#ae44c9e4546fdf6e182276fada0126649" target="_top" xlink:title="EnsureWalletIsAvailable">
<polygon fill="white" stroke="black" points="152.5,-726.5 152.5,-745.5 279.5,-745.5 279.5,-726.5 152.5,-726.5"/>
<text text-anchor="middle" x="216" y="-733.5" font-family="Helvetica,sans-Serif" font-size="10.00">EnsureWalletIsAvailable</text>
</a>
</g>
</g>
<!-- Node1&#45;&gt;Node21 -->
<g id="edge20" class="edge"><title>Node1&#45;&gt;Node21</title>
<path fill="none" stroke="midnightblue" d="M44.4615,-517.731C46.6039,-551.218 58.4264,-662.625 122,-717 128.076,-722.197 135.189,-726.106 142.728,-729.029"/>
<polygon fill="midnightblue" stroke="midnightblue" points="141.866,-732.43 152.459,-732.228 144.052,-725.78 141.866,-732.43"/>
</g>
<!-- Node23 -->
<g id="node23" class="node"><title>Node23</title>
<g id="a_node23"><a xlink:href="class_uni_value.html#a61ee4ef0fa78da6d936dddf408a51a13" target="_top" xlink:title="UniValue::size">
<polygon fill="white" stroke="black" points="174.5,-688.5 174.5,-707.5 257.5,-707.5 257.5,-688.5 174.5,-688.5"/>
<text text-anchor="middle" x="216" y="-695.5" font-family="Helvetica,sans-Serif" font-size="10.00">UniValue::size</text>
</a>
</g>
</g>
<!-- Node1&#45;&gt;Node23 -->
<g id="edge23" class="edge"><title>Node1&#45;&gt;Node23</title>
<path fill="none" stroke="midnightblue" d="M45.3236,-517.601C49.902,-546.922 67.8726,-635.924 122,-679 133.943,-688.505 149.419,-693.619 164.307,-696.275"/>
<polygon fill="midnightblue" stroke="midnightblue" points="164.072,-699.778 174.47,-697.746 165.074,-692.85 164.072,-699.778"/>
</g>
<!-- Node24 -->
<g id="node24" class="node"><title>Node24</title>
<g id="a_node24"><a xlink:href="server_8cpp.html#a26bafe3d526ee8cbc84b3c0b0dc3a43b" target="_top" xlink:title="HelpExampleCli">
<polygon fill="white" stroke="black" points="170.5,-650.5 170.5,-669.5 261.5,-669.5 261.5,-650.5 170.5,-650.5"/>
<text text-anchor="middle" x="216" y="-657.5" font-family="Helvetica,sans-Serif" font-size="10.00">HelpExampleCli</text>
</a>
</g>
</g>
<!-- Node1&#45;&gt;Node24 -->
<g id="edge24" class="edge"><title>Node1&#45;&gt;Node24</title>
<path fill="none" stroke="midnightblue" d="M46.6316,-517.567C53.9743,-542.347 77.1514,-608.917 122,-641 133.108,-648.946 146.77,-653.738 160.169,-656.587"/>
<polygon fill="midnightblue" stroke="midnightblue" points="159.857,-660.086 170.317,-658.405 161.092,-653.196 159.857,-660.086"/>
</g>
<!-- Node25 -->
<g id="node25" class="node"><title>Node25</title>
<g id="a_node25"><a xlink:href="server_8cpp.html#a9ef4f8fb114508ceb861a0e8c3e0d26e" target="_top" xlink:title="HelpExampleRpc">
<polygon fill="white" stroke="black" points="167.5,-612.5 167.5,-631.5 264.5,-631.5 264.5,-612.5 167.5,-612.5"/>
<text text-anchor="middle" x="216" y="-619.5" font-family="Helvetica,sans-Serif" font-size="10.00">HelpExampleRpc</text>
</a>
</g>
</g>
<!-- Node1&#45;&gt;Node25 -->
<g id="edge25" class="edge"><title>Node1&#45;&gt;Node25</title>
<path fill="none" stroke="midnightblue" d="M48.9422,-517.651C59.4861,-537.192 86.1776,-581.408 122,-603 132.585,-609.38 144.951,-613.653 157.144,-616.505"/>
<polygon fill="midnightblue" stroke="midnightblue" points="156.805,-620.008 167.304,-618.582 158.207,-613.15 156.805,-620.008"/>
</g>
<!-- Node26 -->
<g id="node26" class="node"><title>Node26</title>
<g id="a_node26"><a xlink:href="class_uni_value.html#a70c4bfad8015106cc480042462f413c1" target="_top" xlink:title="UniValue::isNull">
<polygon fill="white" stroke="black" points="171,-574.5 171,-593.5 261,-593.5 261,-574.5 171,-574.5"/>
<text text-anchor="middle" x="216" y="-581.5" font-family="Helvetica,sans-Serif" font-size="10.00">UniValue::isNull</text>
</a>
</g>
</g>
<!-- Node1&#45;&gt;Node26 -->
<g id="edge26" class="edge"><title>Node1&#45;&gt;Node26</title>
<path fill="none" stroke="midnightblue" d="M54.1813,-517.723C68.2592,-530.598 95.0023,-553.063 122,-565 134.13,-570.363 147.826,-574.232 160.903,-577.017"/>
<polygon fill="midnightblue" stroke="midnightblue" points="160.261,-580.457 170.747,-578.941 161.604,-573.587 160.261,-580.457"/>
</g>
<!-- Node27 -->
<g id="node27" class="node"><title>Node27</title>
<g id="a_node27"><a xlink:href="class_uni_value.html#a9f69bbd4ccf8d083934cbb510c039cef" target="_top" xlink:title="UniValue::get_str">
<polygon fill="white" stroke="black" points="167,-536.5 167,-555.5 265,-555.5 265,-536.5 167,-536.5"/>
<text text-anchor="middle" x="216" y="-543.5" font-family="Helvetica,sans-Serif" font-size="10.00">UniValue::get_str</text>
</a>
</g>
</g>
<!-- Node1&#45;&gt;Node27 -->
<g id="edge27" class="edge"><title>Node1&#45;&gt;Node27</title>
<path fill="none" stroke="midnightblue" d="M82.0192,-517.563C94.7101,-520.674 108.943,-524.077 122,-527 133.194,-529.506 145.177,-532.054 156.691,-534.436"/>
<polygon fill="midnightblue" stroke="midnightblue" points="156.159,-537.899 166.658,-536.481 157.566,-531.042 156.159,-537.899"/>
</g>
<!-- Node29 -->
<g id="node29" class="node"><title>Node29</title>
<g id="a_node29"><a xlink:href="class_uni_value.html#a05cba948c8295915ae7b36493d2ee4e6" target="_top" xlink:title="UniValue::get_bool">
<polygon fill="white" stroke="black" points="163,-498.5 163,-517.5 269,-517.5 269,-498.5 163,-498.5"/>
<text text-anchor="middle" x="216" y="-505.5" font-family="Helvetica,sans-Serif" font-size="10.00">UniValue::get_bool</text>
</a>
</g>
</g>
<!-- Node1&#45;&gt;Node29 -->
<g id="edge29" class="edge"><title>Node1&#45;&gt;Node29</title>
<path fill="none" stroke="midnightblue" d="M86.2697,-508C106.249,-508 130.501,-508 152.546,-508"/>
<polygon fill="midnightblue" stroke="midnightblue" points="152.827,-511.5 162.827,-508 152.827,-504.5 152.827,-511.5"/>
</g>
<!-- Node35 -->
<g id="node35" class="node"><title>Node35</title>
<g id="a_node35"><a xlink:href="class_wallet_rescan_reserver.html#aac546d40754d9594428795cce418df6a" target="_top" xlink:title="WalletRescanReserver\l::reserve">
<polygon fill="white" stroke="black" points="156.5,-449 156.5,-479 275.5,-479 275.5,-449 156.5,-449"/>
<text text-anchor="start" x="164.5" y="-467" font-family="Helvetica,sans-Serif" font-size="10.00">WalletRescanReserver</text>
<text text-anchor="middle" x="216" y="-456" font-family="Helvetica,sans-Serif" font-size="10.00">::reserve</text>
</a>
</g>
</g>
<!-- Node1&#45;&gt;Node35 -->
<g id="edge36" class="edge"><title>Node1&#45;&gt;Node35</title>
<path fill="none" stroke="midnightblue" d="M81.1045,-498.453C100.271,-493.521 124.276,-487.344 146.647,-481.588"/>
<polygon fill="midnightblue" stroke="midnightblue" points="147.638,-484.947 156.451,-479.065 145.894,-478.168 147.638,-484.947"/>
</g>
<!-- Node36 -->
<g id="node36" class="node"><title>Node36</title>
<g id="a_node36"><a xlink:href="class_c_wallet.html#a1f5d867670b11d16e3b720d475c3989a" target="_top" xlink:title="Interface for accessing chain state. ">
<polygon fill="white" stroke="black" points="174.5,-410.5 174.5,-429.5 257.5,-429.5 257.5,-410.5 174.5,-410.5"/>
<text text-anchor="middle" x="216" y="-417.5" font-family="Helvetica,sans-Serif" font-size="10.00">CWallet::chain</text>
</a>
</g>
</g>
<!-- Node1&#45;&gt;Node36 -->
<g id="edge37" class="edge"><title>Node1&#45;&gt;Node36</title>
<path fill="none" stroke="midnightblue" d="M51.9756,-498.221C64.9617,-483.001 92.2341,-453.855 122,-439 134.933,-432.546 149.921,-428.284 164.038,-425.47"/>
<polygon fill="midnightblue" stroke="midnightblue" points="164.894,-428.872 174.121,-423.666 163.661,-421.981 164.894,-428.872"/>
</g>
<!-- Node37 -->
<g id="node37" class="node"><title>Node37</title>
<g id="a_node37"><a xlink:href="classinterfaces_1_1_chain.html#ad3a8681b5aeabaebe0e31ee762aa53da" target="_top" xlink:title="Return Lock interface. ">
<polygon fill="white" stroke="black" points="155,-372.5 155,-391.5 277,-391.5 277,-372.5 155,-372.5"/>
<text text-anchor="middle" x="216" y="-379.5" font-family="Helvetica,sans-Serif" font-size="10.00">interfaces::Chain::lock</text>
</a>
</g>
</g>
<!-- Node1&#45;&gt;Node37 -->
<g id="edge38" class="edge"><title>Node1&#45;&gt;Node37</title>
<path fill="none" stroke="midnightblue" d="M48.012,-498.448C57.4711,-477.183 83.3224,-425.857 122,-401 129.075,-396.453 137.024,-392.964 145.219,-390.292"/>
<polygon fill="midnightblue" stroke="midnightblue" points="146.263,-393.634 154.913,-387.516 144.336,-386.904 146.263,-393.634"/>
</g>
<!-- Node38 -->
<g id="node38" class="node"><title>Node38</title>
<g id="a_node38"><a xlink:href="key__io_8cpp.html#a8a781e21ad4ecccd9c97c7d890ef7d6f" target="_top" xlink:title="DecodeDestination">
<polygon fill="white" stroke="black" points="162,-316.5 162,-335.5 270,-335.5 270,-316.5 162,-316.5"/>
<text text-anchor="middle" x="216" y="-323.5" font-family="Helvetica,sans-Serif" font-size="10.00">DecodeDestination</text>
</a>
</g>
</g>
<!-- Node1&#45;&gt;Node38 -->
<g id="edge39" class="edge"><title>Node1&#45;&gt;Node38</title>
<path fill="none" stroke="midnightblue" d="M46.624,-498.424C54.0919,-472.875 77.8273,-402.369 122,-363 134.025,-352.283 149.535,-344.476 164.429,-338.877"/>
<polygon fill="midnightblue" stroke="midnightblue" points="165.797,-342.107 174.085,-335.508 163.491,-335.497 165.797,-342.107"/>
</g>
<!-- Node40 -->
<g id="node40" class="node"><title>Node40</title>
<g id="a_node40"><a xlink:href="standard_8cpp.html#adb3a21e4afe9c672720b182ddc7cad7c" target="_top" xlink:title="Check whether a CTxDestination is a CNoDestination. ">
<polygon fill="white" stroke="black" points="165.5,-278.5 165.5,-297.5 266.5,-297.5 266.5,-278.5 165.5,-278.5"/>
<text text-anchor="middle" x="216" y="-285.5" font-family="Helvetica,sans-Serif" font-size="10.00">IsValidDestination</text>
</a>
</g>
</g>
<!-- Node1&#45;&gt;Node40 -->
<g id="edge42" class="edge"><title>Node1&#45;&gt;Node40</title>
<path fill="none" stroke="midnightblue" d="M44.6291,-498.179C47.2856,-465.401 60.5036,-358.911 122,-307 131.346,-299.111 143.09,-294.199 155.055,-291.201"/>
<polygon fill="midnightblue" stroke="midnightblue" points="156.033,-294.573 165.111,-289.11 154.608,-287.719 156.033,-294.573"/>
</g>
<!-- Node41 -->
<g id="node41" class="node"><title>Node41</title>
<g id="a_node41"><a xlink:href="strencodings_8cpp.html#a9f23401f4b871ed693f7a96a9ba40c58" target="_top" xlink:title="IsHex">
<polygon fill="white" stroke="black" points="194.5,-240.5 194.5,-259.5 237.5,-259.5 237.5,-240.5 194.5,-240.5"/>
<text text-anchor="middle" x="216" y="-247.5" font-family="Helvetica,sans-Serif" font-size="10.00">IsHex</text>
</a>
</g>
</g>
<!-- Node1&#45;&gt;Node41 -->
<g id="edge43" class="edge"><title>Node1&#45;&gt;Node41</title>
<path fill="none" stroke="midnightblue" d="M43.9471,-498.453C44.2991,-462.3 50.6714,-332.632 122,-269 138.782,-254.029 164.101,-249.62 184.086,-248.767"/>
<polygon fill="midnightblue" stroke="midnightblue" points="184.318,-252.264 194.263,-248.611 184.211,-245.265 184.318,-252.264"/>
</g>
<!-- Node43 -->
<g id="node43" class="node"><title>Node43</title>
<g id="a_node43"><a xlink:href="strencodings_8cpp.html#a5a787187ddd5c52baae692350ec5a2cb" target="_top" xlink:title="ParseHex">
<polygon fill="white" stroke="black" points="185,-202.5 185,-221.5 247,-221.5 247,-202.5 185,-202.5"/>
<text text-anchor="middle" x="216" y="-209.5" font-family="Helvetica,sans-Serif" font-size="10.00">ParseHex</text>
</a>
</g>
</g>
<!-- Node1&#45;&gt;Node43 -->
<g id="edge45" class="edge"><title>Node1&#45;&gt;Node43</title>
<path fill="none" stroke="midnightblue" d="M43.4519,-498.369C41.7608,-458.678 40.9482,-306.344 122,-231 136.09,-217.902 156.669,-212.799 174.888,-211.122"/>
<polygon fill="midnightblue" stroke="midnightblue" points="175.224,-214.608 184.992,-210.506 174.798,-207.621 175.224,-214.608"/>
</g>
<!-- Node45 -->
<g id="node45" class="node"><title>Node45</title>
<g id="a_node45"><a xlink:href="group__map_wallet.html#ga796c23450c8482e10e0c75ae5c1fa8ed" target="_top" xlink:title="CWallet::ReacceptWalletTransactions">
<polygon fill="white" stroke="black" points="122,-98.5 122,-117.5 310,-117.5 310,-98.5 122,-98.5"/>
<text text-anchor="middle" x="216" y="-105.5" font-family="Helvetica,sans-Serif" font-size="10.00">CWallet::ReacceptWalletTransactions</text>
</a>
</g>
</g>
<!-- Node1&#45;&gt;Node45 -->
<g id="edge48" class="edge"><title>Node1&#45;&gt;Node45</title>
<path fill="none" stroke="midnightblue" d="M44.379,-498.495C46.3612,-458.439 58.0688,-300.499 122,-193 139.414,-163.719 170.063,-138.604 191.396,-123.425"/>
<polygon fill="midnightblue" stroke="midnightblue" points="193.667,-126.11 199.903,-117.544 189.687,-120.351 193.667,-126.11"/>
</g>
<!-- Node3 -->
<g id="node3" class="node"><title>Node3</title>
<g id="a_node3"><a xlink:href="rpcwallet_8cpp.html#af704ea42262521346e3be551cfbc5a7f" target="_top" xlink:title="GetWalletNameFromJSONRPCRequest">
<polygon fill="white" stroke="black" points="346,-904.5 346,-923.5 542,-923.5 542,-904.5 346,-904.5"/>
<text text-anchor="middle" x="444" y="-911.5" font-family="Helvetica,sans-Serif" font-size="10.00">GetWalletNameFromJSONRPCRequest</text>
</a>
</g>
</g>
<!-- Node2&#45;&gt;Node3 -->
<g id="edge2" class="edge"><title>Node2&#45;&gt;Node3</title>
<path fill="none" stroke="midnightblue" d="M237.938,-824.589C263.405,-836.212 307.736,-856.314 346,-873 367.407,-882.335 391.6,-892.562 410.471,-900.467"/>
<polygon fill="midnightblue" stroke="midnightblue" points="409.234,-903.743 419.81,-904.371 411.934,-897.285 409.234,-903.743"/>
</g>
<!-- Node5 -->
<g id="node5" class="node"><title>Node5</title>
<g id="a_node5"><a xlink:href="wallet_2wallet_8cpp.html#a59fb74ca7a0b34f8f86ec58464a72f8a" target="_top" xlink:title="GetWallet">
<polygon fill="white" stroke="black" points="413,-844.5 413,-863.5 475,-863.5 475,-844.5 413,-844.5"/>
<text text-anchor="middle" x="444" y="-851.5" font-family="Helvetica,sans-Serif" font-size="10.00">GetWallet</text>
</a>
</g>
</g>
<!-- Node2&#45;&gt;Node5 -->
<g id="edge4" class="edge"><title>Node2&#45;&gt;Node5</title>
<path fill="none" stroke="midnightblue" d="M272.286,-824.54C312.606,-831.498 366.326,-840.769 402.653,-847.037"/>
<polygon fill="midnightblue" stroke="midnightblue" points="402.423,-850.55 412.873,-848.801 403.614,-843.651 402.423,-850.55"/>
</g>
<!-- Node2&#45;&gt;Node9 -->
<g id="edge8" class="edge"><title>Node2&#45;&gt;Node9</title>
<path fill="none" stroke="midnightblue" d="M252.312,-805.469C291.504,-794.89 354.861,-777.79 397.683,-766.232"/>
<polygon fill="midnightblue" stroke="midnightblue" points="398.821,-769.55 407.563,-763.565 396.997,-762.792 398.821,-769.55"/>
</g>
<!-- Node20 -->
<g id="node20" class="node"><title>Node20</title>
<g id="a_node20"><a xlink:href="dummywallet_8cpp.html#ab8562a8762a7793fdf5b8ae9465e1b85" target="_top" xlink:title="GetWallets">
<polygon fill="white" stroke="black" points="410.5,-805.5 410.5,-824.5 477.5,-824.5 477.5,-805.5 410.5,-805.5"/>
<text text-anchor="middle" x="444" y="-812.5" font-family="Helvetica,sans-Serif" font-size="10.00">GetWallets</text>
</a>
</g>
</g>
<!-- Node2&#45;&gt;Node20 -->
<g id="edge19" class="edge"><title>Node2&#45;&gt;Node20</title>
<path fill="none" stroke="midnightblue" d="M295.093,-815C330.359,-815 370.655,-815 400.272,-815"/>
<polygon fill="midnightblue" stroke="midnightblue" points="400.277,-818.5 410.277,-815 400.277,-811.5 400.277,-818.5"/>
</g>
<!-- Node4 -->
<g id="node4" class="node"><title>Node4</title>
<g id="a_node4"><a xlink:href="httpserver_8cpp.html#a5c344a7490a1962254ceda09e73c8891" target="_top" xlink:title="urlDecode">
<polygon fill="white" stroke="black" points="615.5,-927.5 615.5,-946.5 680.5,-946.5 680.5,-927.5 615.5,-927.5"/>
<text text-anchor="middle" x="648" y="-934.5" font-family="Helvetica,sans-Serif" font-size="10.00">urlDecode</text>
</a>
</g>
</g>
<!-- Node3&#45;&gt;Node4 -->
<g id="edge3" class="edge"><title>Node3&#45;&gt;Node4</title>
<path fill="none" stroke="midnightblue" d="M528.619,-923.521C555.042,-926.53 583.102,-929.724 605.268,-932.248"/>
<polygon fill="midnightblue" stroke="midnightblue" points="604.994,-935.74 615.326,-933.394 605.786,-928.785 604.994,-935.74"/>
</g>
<!-- Node6 -->
<g id="node6" class="node"><title>Node6</title>
<g id="a_node6"><a xlink:href="class_c_wallet.html#aeba3694fe7d6e81318d77191f75bdb19" target="_top" xlink:title="Prepends the wallet name in logging output to ease debugging in multi&#45;wallet use cases. ">
<polygon fill="white" stroke="black" points="584.5,-889.5 584.5,-908.5 711.5,-908.5 711.5,-889.5 584.5,-889.5"/>
<text text-anchor="middle" x="648" y="-896.5" font-family="Helvetica,sans-Serif" font-size="10.00">CWallet::WalletLogPrintf</text>
</a>
</g>
</g>
<!-- Node5&#45;&gt;Node6 -->
<g id="edge5" class="edge"><title>Node5&#45;&gt;Node6</title>
<path fill="none" stroke="midnightblue" d="M475.241,-860.737C506.663,-867.737 556.445,-878.827 594.343,-887.269"/>
<polygon fill="midnightblue" stroke="midnightblue" points="593.675,-890.706 604.197,-889.465 595.197,-883.874 593.675,-890.706"/>
</g>
<!-- Node7 -->
<g id="node7" class="node"><title>Node7</title>
<g id="a_node7"><a xlink:href="group__map_wallet.html#gaf766f26b1180b375f02a622dda88a246" target="_top" xlink:title="Blocks until the wallet state is up&#45;to&#45;date to /at least/ the current chain at the time this function...">
<polygon fill="white" stroke="red" points="578,-840 578,-870 718,-870 718,-840 578,-840"/>
<text text-anchor="start" x="586" y="-858" font-family="Helvetica,sans-Serif" font-size="10.00">CWallet::BlockUntilSynced</text>
<text text-anchor="middle" x="648" y="-847" font-family="Helvetica,sans-Serif" font-size="10.00">ToCurrentChain</text>
</a>
</g>
</g>
<!-- Node5&#45;&gt;Node7 -->
<g id="edge6" class="edge"><title>Node5&#45;&gt;Node7</title>
<path fill="none" stroke="midnightblue" d="M475.241,-854.15C499.573,-854.27 534.915,-854.445 567.223,-854.605"/>
<polygon fill="midnightblue" stroke="midnightblue" points="567.571,-858.107 577.588,-854.656 567.605,-851.107 567.571,-858.107"/>
</g>
<!-- Node8 -->
<g id="node8" class="node"><title>Node8</title>
<g id="a_node8"><a xlink:href="group__map_wallet.html#ga1933d34612a6a438d6c45bad608ce87c" target="_top" xlink:title="Flush wallet (bitdb flush) ">
<polygon fill="white" stroke="black" points="607,-801.5 607,-820.5 689,-820.5 689,-801.5 607,-801.5"/>
<text text-anchor="middle" x="648" y="-808.5" font-family="Helvetica,sans-Serif" font-size="10.00">CWallet::Flush</text>
</a>
</g>
</g>
<!-- Node5&#45;&gt;Node8 -->
<g id="edge7" class="edge"><title>Node5&#45;&gt;Node8</title>
<path fill="none" stroke="midnightblue" d="M475.168,-847.879C494.324,-843.968 519.631,-838.756 542,-834 559.853,-830.204 579.39,-825.952 596.719,-822.146"/>
<polygon fill="midnightblue" stroke="midnightblue" points="597.624,-825.53 606.638,-819.963 596.119,-818.694 597.624,-825.53"/>
</g>
<!-- Node10 -->
<g id="node10" class="node"><title>Node10</title>
<g id="a_node10"><a xlink:href="system_8h.html#a0605c886f88f190fa6a51ae07ca7558a" target="_top" xlink:title="error">
<polygon fill="white" stroke="red" points="628,-763.5 628,-782.5 668,-782.5 668,-763.5 628,-763.5"/>
<text text-anchor="middle" x="648" y="-770.5" font-family="Helvetica,sans-Serif" font-size="10.00">error</text>
</a>
</g>
</g>
<!-- Node9&#45;&gt;Node10 -->
<g id="edge9" class="edge"><title>Node9&#45;&gt;Node10</title>
<path fill="none" stroke="midnightblue" d="M485.878,-757.845C525.056,-761.53 583.211,-767 617.89,-770.262"/>
<polygon fill="midnightblue" stroke="midnightblue" points="617.567,-773.747 627.851,-771.199 618.223,-766.778 617.567,-773.747"/>
</g>
<!-- Node17 -->
<g id="node17" class="node"><title>Node17</title>
<g id="a_node17"><a xlink:href="class_uni_value.html#abab649c2dbd593233de6364254456026" target="_top" xlink:title="UniValue::pushKV">
<polygon fill="white" stroke="red" points="597.5,-725.5 597.5,-744.5 698.5,-744.5 698.5,-725.5 597.5,-725.5"/>
<text text-anchor="middle" x="648" y="-732.5" font-family="Helvetica,sans-Serif" font-size="10.00">UniValue::pushKV</text>
</a>
</g>
</g>
<!-- Node9&#45;&gt;Node17 -->
<g id="edge16" class="edge"><title>Node9&#45;&gt;Node17</title>
<path fill="none" stroke="midnightblue" d="M485.878,-750.155C514.901,-747.425 554.338,-743.716 586.93,-740.65"/>
<polygon fill="midnightblue" stroke="midnightblue" points="587.621,-744.101 597.25,-739.679 586.966,-737.131 587.621,-744.101"/>
</g>
<!-- Node18 -->
<g id="node18" class="node"><title>Node18</title>
<g id="a_node18"><a xlink:href="class_args_manager.html#a565c101a8d753ca2d71c7069a9d411c1" target="_top" xlink:title="Return string argument or default value. ">
<polygon fill="white" stroke="red" points="588,-687.5 588,-706.5 708,-706.5 708,-687.5 588,-687.5"/>
<text text-anchor="middle" x="648" y="-694.5" font-family="Helvetica,sans-Serif" font-size="10.00">ArgsManager::GetArg</text>
</a>
</g>
</g>
<!-- Node9&#45;&gt;Node18 -->
<g id="edge17" class="edge"><title>Node9&#45;&gt;Node18</title>
<path fill="none" stroke="midnightblue" d="M485.819,-748.724C503.418,-745.758 524.039,-741.344 542,-735 559.059,-728.975 561.18,-722.663 578,-716 583.989,-713.628 590.382,-711.437 596.77,-709.452"/>
<polygon fill="midnightblue" stroke="midnightblue" points="598.146,-712.694 606.745,-706.504 596.163,-705.981 598.146,-712.694"/>
</g>
<!-- Node19 -->
<g id="node19" class="node"><title>Node19</title>
<g id="a_node19"><a xlink:href="system_8cpp.html#a162859252c5665f520a6d4bce967947c" target="_top" xlink:title="Most paths passed as configuration arguments are treated as relative to the datadir if they are not a...">
<polygon fill="white" stroke="red" points="590.5,-649.5 590.5,-668.5 705.5,-668.5 705.5,-649.5 590.5,-649.5"/>
<text text-anchor="middle" x="648" y="-656.5" font-family="Helvetica,sans-Serif" font-size="10.00">AbsPathForConfigVal</text>
</a>
</g>
</g>
<!-- Node9&#45;&gt;Node19 -->
<g id="edge18" class="edge"><title>Node9&#45;&gt;Node19</title>
<path fill="none" stroke="midnightblue" d="M485.564,-753.259C504.12,-751.203 525.576,-746.247 542,-735 566.722,-718.07 553.933,-695.848 578,-678 580.514,-676.136 583.201,-674.455 586.003,-672.938"/>
<polygon fill="midnightblue" stroke="midnightblue" points="587.675,-676.021 595.271,-668.635 584.727,-669.672 587.675,-676.021"/>
</g>
<!-- Node11 -->
<g id="node11" class="node"><title>Node11</title>
<g id="a_node11"><a xlink:href="namespacetinyformat.html#ad784060b98bfd4f1b3089fbb7686a676" target="_top" xlink:title="Format list of arguments to the stream according to given format string. ">
<polygon fill="white" stroke="red" points="767,-858.5 767,-877.5 871,-877.5 871,-858.5 767,-858.5"/>
<text text-anchor="middle" x="819" y="-865.5" font-family="Helvetica,sans-Serif" font-size="10.00">tinyformat::format</text>
</a>
</g>
</g>
<!-- Node10&#45;&gt;Node11 -->
<g id="edge10" class="edge"><title>Node10&#45;&gt;Node11</title>
<path fill="none" stroke="midnightblue" d="M668.2,-774.524C683.035,-776.534 703.429,-781.194 718,-792 742.067,-809.848 730.111,-830.914 754,-849 756.462,-850.864 759.104,-852.546 761.863,-854.063"/>
<polygon fill="midnightblue" stroke="midnightblue" points="760.455,-857.268 770.992,-858.371 763.442,-850.938 760.455,-857.268"/>
</g>
<!-- Node12 -->
<g id="node12" class="node"><title>Node12</title>
<g id="a_node12"><a xlink:href="system_8h.html#aaada8c5faa502eb0c33fc01294955db8" target="_top" xlink:title="PrintExceptionContinue">
<polygon fill="white" stroke="black" points="755,-820.5 755,-839.5 883,-839.5 883,-820.5 755,-820.5"/>
<text text-anchor="middle" x="819" y="-827.5" font-family="Helvetica,sans-Serif" font-size="10.00">PrintExceptionContinue</text>
</a>
</g>
</g>
<!-- Node10&#45;&gt;Node12 -->
<g id="edge11" class="edge"><title>Node10&#45;&gt;Node12</title>
<path fill="none" stroke="midnightblue" d="M668.104,-777.082C682.161,-780.367 701.597,-785.502 718,-792 734.82,-798.663 737.247,-804.17 754,-811 759.569,-813.27 765.51,-815.401 771.444,-817.355"/>
<polygon fill="midnightblue" stroke="midnightblue" points="770.765,-820.811 781.355,-820.471 772.865,-814.133 770.765,-820.811"/>
</g>
<!-- Node13 -->
<g id="node13" class="node"><title>Node13</title>
<g id="a_node13"><a xlink:href="system_8h.html#aedd7d9ab25c6cfb8c81a4aaa917b104e" target="_top" xlink:title="FileCommit">
<polygon fill="white" stroke="black" points="784,-782.5 784,-801.5 854,-801.5 854,-782.5 784,-782.5"/>
<text text-anchor="middle" x="819" y="-789.5" font-family="Helvetica,sans-Serif" font-size="10.00">FileCommit</text>
</a>
</g>
</g>
<!-- Node10&#45;&gt;Node13 -->
<g id="edge12" class="edge"><title>Node10&#45;&gt;Node13</title>
<path fill="none" stroke="midnightblue" d="M668.058,-775.143C693.483,-778.001 739.275,-783.149 773.588,-787.007"/>
<polygon fill="midnightblue" stroke="midnightblue" points="773.504,-790.52 783.833,-788.159 774.287,-783.563 773.504,-790.52"/>
</g>
<!-- Node14 -->
<g id="node14" class="node"><title>Node14</title>
<g id="a_node14"><a xlink:href="system_8h.html#acb8d6b822bc1bfa609bf43bbac1a0d44" target="_top" xlink:title="TruncateFile">
<polygon fill="white" stroke="black" points="783,-744.5 783,-763.5 855,-763.5 855,-744.5 783,-744.5"/>
<text text-anchor="middle" x="819" y="-751.5" font-family="Helvetica,sans-Serif" font-size="10.00">TruncateFile</text>
</a>
</g>
</g>
<!-- Node10&#45;&gt;Node14 -->
<g id="edge13" class="edge"><title>Node10&#45;&gt;Node14</title>
<path fill="none" stroke="midnightblue" d="M668.058,-770.857C693.248,-768.025 738.431,-762.946 772.635,-759.1"/>
<polygon fill="midnightblue" stroke="midnightblue" points="773.316,-762.546 782.863,-757.95 772.534,-755.59 773.316,-762.546"/>
</g>
<!-- Node15 -->
<g id="node15" class="node"><title>Node15</title>
<g id="a_node15"><a xlink:href="system_8h.html#a756a5c49a4bb607d16d9842f8f3ede4f" target="_top" xlink:title="this function tries to raise the file descriptor limit to the requested number. ">
<polygon fill="white" stroke="black" points="754,-706.5 754,-725.5 884,-725.5 884,-706.5 754,-706.5"/>
<text text-anchor="middle" x="819" y="-713.5" font-family="Helvetica,sans-Serif" font-size="10.00">RaiseFileDescriptorLimit</text>
</a>
</g>
</g>
<!-- Node10&#45;&gt;Node15 -->
<g id="edge14" class="edge"><title>Node10&#45;&gt;Node15</title>
<path fill="none" stroke="midnightblue" d="M668.104,-768.918C682.161,-765.633 701.597,-760.498 718,-754 734.82,-747.337 737.247,-741.83 754,-735 759.569,-732.73 765.51,-730.599 771.444,-728.645"/>
<polygon fill="midnightblue" stroke="midnightblue" points="772.865,-731.867 781.355,-725.529 770.765,-725.189 772.865,-731.867"/>
</g>
<!-- Node16 -->
<g id="node16" class="node"><title>Node16</title>
<g id="a_node16"><a xlink:href="system_8h.html#a91c763bffc49cf7ed8d45cc44870e55c" target="_top" xlink:title="this function tries to make a particular range of a file allocated (corresponding to disk space) it i...">
<polygon fill="white" stroke="black" points="769,-668.5 769,-687.5 869,-687.5 869,-668.5 769,-668.5"/>
<text text-anchor="middle" x="819" y="-675.5" font-family="Helvetica,sans-Serif" font-size="10.00">AllocateFileRange</text>
</a>
</g>
</g>
<!-- Node10&#45;&gt;Node16 -->
<g id="edge15" class="edge"><title>Node10&#45;&gt;Node16</title>
<path fill="none" stroke="midnightblue" d="M668.2,-771.476C683.035,-769.466 703.429,-764.806 718,-754 742.067,-736.152 730.111,-715.086 754,-697 756.462,-695.136 759.104,-693.454 761.863,-691.937"/>
<polygon fill="midnightblue" stroke="midnightblue" points="763.442,-695.062 770.992,-687.629 760.455,-688.732 763.442,-695.062"/>
</g>
<!-- Node21&#45;&gt;Node9 -->
<g id="edge22" class="edge"><title>Node21&#45;&gt;Node9</title>
<path fill="none" stroke="midnightblue" d="M279.653,-740.99C315.169,-743.819 359.025,-747.312 392.35,-749.966"/>
<polygon fill="midnightblue" stroke="midnightblue" points="392.086,-753.456 402.333,-750.761 392.642,-746.478 392.086,-753.456"/>
</g>
<!-- Node22 -->
<g id="node22" class="node"><title>Node22</title>
<g id="a_node22"><a xlink:href="wallet_2wallet_8cpp.html#a9bc62b5b6dea0a67f248bc07019a851f" target="_top" xlink:title="HasWallets">
<polygon fill="white" stroke="black" points="410,-706.5 410,-725.5 478,-725.5 478,-706.5 410,-706.5"/>
<text text-anchor="middle" x="444" y="-713.5" font-family="Helvetica,sans-Serif" font-size="10.00">HasWallets</text>
</a>
</g>
</g>
<!-- Node21&#45;&gt;Node22 -->
<g id="edge21" class="edge"><title>Node21&#45;&gt;Node22</title>
<path fill="none" stroke="midnightblue" d="M279.653,-730.455C317.892,-727.072 365.799,-722.832 399.82,-719.821"/>
<polygon fill="midnightblue" stroke="midnightblue" points="400.254,-723.297 409.907,-718.929 399.637,-716.324 400.254,-723.297"/>
</g>
<!-- Node28 -->
<g id="node28" class="node"><title>Node28</title>
<g id="a_node28"><a xlink:href="class_uni_value.html#ae8e17c2a90b668d0771a0523d70cd70d" target="_top" xlink:title="UniValue::getValStr">
<polygon fill="white" stroke="black" points="389.5,-536.5 389.5,-555.5 498.5,-555.5 498.5,-536.5 389.5,-536.5"/>
<text text-anchor="middle" x="444" y="-543.5" font-family="Helvetica,sans-Serif" font-size="10.00">UniValue::getValStr</text>
</a>
</g>
</g>
<!-- Node27&#45;&gt;Node28 -->
<g id="edge28" class="edge"><title>Node27&#45;&gt;Node28</title>
<path fill="none" stroke="midnightblue" d="M265.205,-546C298.36,-546 342.756,-546 378.889,-546"/>
<polygon fill="midnightblue" stroke="midnightblue" points="379.329,-549.5 389.329,-546 379.329,-542.5 379.329,-549.5"/>
</g>
<!-- Node30 -->
<g id="node30" class="node"><title>Node30</title>
<g id="a_node30"><a xlink:href="class_uni_value.html#ab28e9956f511cfe0db77e41cd6e488f3" target="_top" xlink:title="UniValue::getBool">
<polygon fill="white" stroke="black" points="393.5,-498.5 393.5,-517.5 494.5,-517.5 494.5,-498.5 393.5,-498.5"/>
<text text-anchor="middle" x="444" y="-505.5" font-family="Helvetica,sans-Serif" font-size="10.00">UniValue::getBool</text>
</a>
</g>
</g>
<!-- Node29&#45;&gt;Node30 -->
<g id="edge30" class="edge"><title>Node29&#45;&gt;Node30</title>
<path fill="none" stroke="midnightblue" d="M269.133,-508C303.184,-508 347.746,-508 383.231,-508"/>
<polygon fill="midnightblue" stroke="midnightblue" points="383.455,-511.5 393.455,-508 383.455,-504.5 383.455,-511.5"/>
</g>
<!-- Node31 -->
<g id="node31" class="node"><title>Node31</title>
<g id="a_node31"><a xlink:href="class_uni_value.html#a74fc2d8e439542b82228c0d0bb0626a4" target="_top" xlink:title="UniValue::isTrue">
<polygon fill="white" stroke="black" points="602,-555.5 602,-574.5 694,-574.5 694,-555.5 602,-555.5"/>
<text text-anchor="middle" x="648" y="-562.5" font-family="Helvetica,sans-Serif" font-size="10.00">UniValue::isTrue</text>
</a>
</g>
</g>
<!-- Node30&#45;&gt;Node31 -->
<g id="edge31" class="edge"><title>Node30&#45;&gt;Node31</title>
<path fill="none" stroke="midnightblue" d="M494.595,-514.835C510.036,-517.724 526.952,-521.685 542,-527 559.059,-533.025 561.18,-539.337 578,-546 583.989,-548.372 590.382,-550.563 596.77,-552.548"/>
<polygon fill="midnightblue" stroke="midnightblue" points="596.163,-556.019 606.745,-555.496 598.146,-549.306 596.163,-556.019"/>
</g>
<!-- Node32 -->
<g id="node32" class="node"><title>Node32</title>
<g id="a_node32"><a xlink:href="class_uni_value.html#af4df6d15c7f9e06b1743f0b562777281" target="_top" xlink:title="UniValue::getObjMap">
<polygon fill="white" stroke="black" points="590,-517.5 590,-536.5 706,-536.5 706,-517.5 590,-517.5"/>
<text text-anchor="middle" x="648" y="-524.5" font-family="Helvetica,sans-Serif" font-size="10.00">UniValue::getObjMap</text>
</a>
</g>
</g>
<!-- Node30&#45;&gt;Node32 -->
<g id="edge32" class="edge"><title>Node30&#45;&gt;Node32</title>
<path fill="none" stroke="midnightblue" d="M494.673,-512.672C520.267,-515.08 551.85,-518.05 579.61,-520.661"/>
<polygon fill="midnightblue" stroke="midnightblue" points="579.362,-524.153 589.646,-521.605 580.017,-517.184 579.362,-524.153"/>
</g>
<!-- Node33 -->
<g id="node33" class="node"><title>Node33</title>
<g id="a_node33"><a xlink:href="class_uni_value.html#ab3c9de0667c16c44c5fcfa8b5f34b5a4" target="_top" xlink:title="UniValue::checkObject">
<polygon fill="white" stroke="red" points="586.5,-479.5 586.5,-498.5 709.5,-498.5 709.5,-479.5 586.5,-479.5"/>
<text text-anchor="middle" x="648" y="-486.5" font-family="Helvetica,sans-Serif" font-size="10.00">UniValue::checkObject</text>
</a>
</g>
</g>
<!-- Node30&#45;&gt;Node33 -->
<g id="edge33" class="edge"><title>Node30&#45;&gt;Node33</title>
<path fill="none" stroke="midnightblue" d="M494.673,-503.328C519.223,-501.019 549.282,-498.191 576.193,-495.66"/>
<polygon fill="midnightblue" stroke="midnightblue" points="576.706,-499.127 586.334,-494.706 576.05,-492.158 576.706,-499.127"/>
</g>
<!-- Node34 -->
<g id="node34" class="node"><title>Node34</title>
<g id="a_node34"><a xlink:href="class_uni_value.html#a589bf5a126cb73c489ee93cce1588724" target="_top" xlink:title="UniValue::operator[]">
<polygon fill="white" stroke="red" points="591.5,-441.5 591.5,-460.5 704.5,-460.5 704.5,-441.5 591.5,-441.5"/>
<text text-anchor="middle" x="648" y="-448.5" font-family="Helvetica,sans-Serif" font-size="10.00">UniValue::operator[]</text>
</a>
</g>
</g>
<!-- Node30&#45;&gt;Node34 -->
<g id="edge34" class="edge"><title>Node30&#45;&gt;Node34</title>
<path fill="none" stroke="midnightblue" d="M478.043,-498.464C504.939,-490.725 543.896,-479.567 578,-470 585.91,-467.781 594.336,-465.441 602.485,-463.19"/>
<polygon fill="midnightblue" stroke="midnightblue" points="603.523,-466.535 612.234,-460.503 601.663,-459.786 603.523,-466.535"/>
</g>
<!-- Node38&#45;&gt;Node38 -->
<g id="edge40" class="edge"><title>Node38&#45;&gt;Node38</title>
<path fill="none" stroke="midnightblue" d="M189.49,-335.757C176.593,-344.565 185.43,-354 216,-354 236.539,-354 247.268,-349.741 248.186,-344.275"/>
<polygon fill="midnightblue" stroke="midnightblue" points="250.968,-342.138 242.51,-335.757 245.143,-346.02 250.968,-342.138"/>
</g>
<!-- Node39 -->
<g id="node39" class="node"><title>Node39</title>
<g id="a_node39"><a xlink:href="chainparams_8cpp.html#ace5c5b706d71a324a417dd2db394fd4a" target="_top" xlink:title="Return the currently selected parameters. ">
<polygon fill="white" stroke="black" points="417.5,-316.5 417.5,-335.5 470.5,-335.5 470.5,-316.5 417.5,-316.5"/>
<text text-anchor="middle" x="444" y="-323.5" font-family="Helvetica,sans-Serif" font-size="10.00">Params</text>
</a>
</g>
</g>
<!-- Node38&#45;&gt;Node39 -->
<g id="edge41" class="edge"><title>Node38&#45;&gt;Node39</title>
<path fill="none" stroke="midnightblue" d="M270.273,-326C312.438,-326 370.172,-326 407.034,-326"/>
<polygon fill="midnightblue" stroke="midnightblue" points="407.305,-329.5 417.305,-326 407.305,-322.5 407.305,-329.5"/>
</g>
<!-- Node42 -->
<g id="node42" class="node"><title>Node42</title>
<g id="a_node42"><a xlink:href="strencodings_8cpp.html#aa59e8a8c5a39cb5041f93bb95dd02119" target="_top" xlink:title="HexDigit">
<polygon fill="white" stroke="black" points="415.5,-240.5 415.5,-259.5 472.5,-259.5 472.5,-240.5 415.5,-240.5"/>
<text text-anchor="middle" x="444" y="-247.5" font-family="Helvetica,sans-Serif" font-size="10.00">HexDigit</text>
</a>
</g>
</g>
<!-- Node41&#45;&gt;Node42 -->
<g id="edge44" class="edge"><title>Node41&#45;&gt;Node42</title>
<path fill="none" stroke="midnightblue" d="M237.856,-250C275.931,-250 357.191,-250 405.225,-250"/>
<polygon fill="midnightblue" stroke="midnightblue" points="405.231,-253.5 415.231,-250 405.231,-246.5 405.231,-253.5"/>
</g>
<!-- Node43&#45;&gt;Node42 -->
<g id="edge47" class="edge"><title>Node43&#45;&gt;Node42</title>
<path fill="none" stroke="midnightblue" d="M247.011,-217.046C287.807,-223.906 360.764,-236.173 405.234,-243.65"/>
<polygon fill="midnightblue" stroke="midnightblue" points="404.907,-247.144 415.349,-245.351 406.068,-240.241 404.907,-247.144"/>
</g>
<!-- Node44 -->
<g id="node44" class="node"><title>Node44</title>
<g id="a_node44"><a xlink:href="strencodings_8h.html#aa30de1eac29287732050df7168cde03a" target="_top" xlink:title="Tests if the given character is a whitespace character. ">
<polygon fill="white" stroke="red" points="417,-202.5 417,-221.5 471,-221.5 471,-202.5 417,-202.5"/>
<text text-anchor="middle" x="444" y="-209.5" font-family="Helvetica,sans-Serif" font-size="10.00">IsSpace</text>
</a>
</g>
</g>
<!-- Node43&#45;&gt;Node44 -->
<g id="edge46" class="edge"><title>Node43&#45;&gt;Node44</title>
<path fill="none" stroke="midnightblue" d="M247.011,-212C288.251,-212 362.359,-212 406.678,-212"/>
<polygon fill="midnightblue" stroke="midnightblue" points="406.731,-215.5 416.73,-212 406.73,-208.5 406.731,-215.5"/>
</g>
<!-- Node46 -->
<g id="node46" class="node"><title>Node46</title>
<g id="a_node46"><a xlink:href="class_c_merkle_tx.html#a0229887ee125fa7c45a90e9cca77bf94" target="_top" xlink:title="CMerkleTx::GetHash">
<polygon fill="white" stroke="black" points="387.5,-164.5 387.5,-183.5 500.5,-183.5 500.5,-164.5 387.5,-164.5"/>
<text text-anchor="middle" x="444" y="-171.5" font-family="Helvetica,sans-Serif" font-size="10.00">CMerkleTx::GetHash</text>
</a>
</g>
</g>
<!-- Node45&#45;&gt;Node46 -->
<g id="edge49" class="edge"><title>Node45&#45;&gt;Node46</title>
<path fill="none" stroke="midnightblue" d="M240.928,-117.665C266.585,-127.761 308.678,-143.553 346,-154 356.95,-157.065 368.715,-159.881 380.144,-162.372"/>
<polygon fill="midnightblue" stroke="midnightblue" points="379.563,-165.827 390.072,-164.476 381.014,-158.979 379.563,-165.827"/>
</g>
<!-- Node47 -->
<g id="node47" class="node"><title>Node47</title>
<g id="a_node47"><a xlink:href="class_c_merkle_tx.html#a401cca34b744b1bf5993d4fe1e871190" target="_top" xlink:title="Return depth of transaction in blockchain: &lt;0 : conflicts with a transaction this deep in the blockch...">
<polygon fill="white" stroke="red" points="369.5,-115 369.5,-145 518.5,-145 518.5,-115 369.5,-115"/>
<text text-anchor="start" x="377.5" y="-133" font-family="Helvetica,sans-Serif" font-size="10.00">CMerkleTx::GetDepthInMain</text>
<text text-anchor="middle" x="444" y="-122" font-family="Helvetica,sans-Serif" font-size="10.00">Chain</text>
</a>
</g>
</g>
<!-- Node45&#45;&gt;Node47 -->
<g id="edge50" class="edge"><title>Node45&#45;&gt;Node47</title>
<path fill="none" stroke="midnightblue" d="M310.228,-117.075C326.386,-118.648 343.101,-120.275 358.995,-121.823"/>
<polygon fill="midnightblue" stroke="midnightblue" points="359.015,-125.341 369.307,-122.826 359.693,-118.374 359.015,-125.341"/>
</g>
<!-- Node48 -->
<g id="node48" class="node"><title>Node48</title>
<g id="a_node48"><a xlink:href="class_c_merkle_tx.html#a639c70fc4b2520a87c32a98ecd75d403" target="_top" xlink:title="CMerkleTx::IsCoinBase">
<polygon fill="white" stroke="red" points="382,-76.5 382,-95.5 506,-95.5 506,-76.5 382,-76.5"/>
<text text-anchor="middle" x="444" y="-83.5" font-family="Helvetica,sans-Serif" font-size="10.00">CMerkleTx::IsCoinBase</text>
</a>
</g>
</g>
<!-- Node45&#45;&gt;Node48 -->
<g id="edge51" class="edge"><title>Node45&#45;&gt;Node48</title>
<path fill="none" stroke="midnightblue" d="M310.228,-98.9247C330.832,-96.919 352.343,-94.8251 371.901,-92.9211"/>
<polygon fill="midnightblue" stroke="midnightblue" points="372.323,-96.3967 381.937,-91.9442 371.644,-89.4297 372.323,-96.3967"/>
</g>
<!-- Node49 -->
<g id="node49" class="node"><title>Node49</title>
<g id="a_node49"><a xlink:href="class_c_merkle_tx.html#ada8e2d9091cb1b14250f32ef1ad46a30" target="_top" xlink:title="CMerkleTx::isAbandoned">
<polygon fill="white" stroke="black" points="377,-38.5 377,-57.5 511,-57.5 511,-38.5 377,-38.5"/>
<text text-anchor="middle" x="444" y="-45.5" font-family="Helvetica,sans-Serif" font-size="10.00">CMerkleTx::isAbandoned</text>
</a>
</g>
</g>
<!-- Node45&#45;&gt;Node49 -->
<g id="edge52" class="edge"><title>Node45&#45;&gt;Node49</title>
<path fill="none" stroke="midnightblue" d="M243.919,-98.4522C269.837,-89.4966 310.258,-76.1486 346,-67 356.501,-64.3123 367.725,-61.7942 378.676,-59.5256"/>
<polygon fill="midnightblue" stroke="midnightblue" points="379.519,-62.926 388.628,-57.5147 378.133,-56.0647 379.519,-62.926"/>
</g>
<!-- Node50 -->
<g id="node50" class="node"><title>Node50</title>
<g id="a_node50"><a xlink:href="class_c_wallet_tx.html#ac32e1bb5bc7aa9f9f9959d81380dcc7f" target="_top" xlink:title="Pass this transaction to the mempool. ">
<polygon fill="white" stroke="red" points="359,-0.5 359,-19.5 529,-19.5 529,-0.5 359,-0.5"/>
<text text-anchor="middle" x="444" y="-7.5" font-family="Helvetica,sans-Serif" font-size="10.00">CWalletTx::AcceptToMemoryPool</text>
</a>
</g>
</g>
<!-- Node45&#45;&gt;Node50 -->
<g id="edge53" class="edge"><title>Node45&#45;&gt;Node50</title>
<path fill="none" stroke="midnightblue" d="M229.379,-98.3009C251.479,-81.49 299.75,-47.0162 346,-29 352.816,-26.345 360.051,-24.0474 367.377,-22.0617"/>
<polygon fill="midnightblue" stroke="midnightblue" points="368.548,-25.3763 377.393,-19.5432 366.841,-18.5877 368.548,-25.3763"/>
</g>
</g>
</svg>
