<?xml version="1.0" encoding="UTF-8" standalone="no"?>
<!DOCTYPE svg PUBLIC "-//W3C//DTD SVG 1.1//EN"
 "http://www.w3.org/Graphics/SVG/1.1/DTD/svg11.dtd">
<!-- Generated by graphviz version 2.38.0 (20140413.2041)
 -->
<!-- Title: rescanblockchain Pages: 1 -->
<svg width="915pt" height="929pt"
 viewBox="0.00 0.00 915.00 928.54" xmlns="http://www.w3.org/2000/svg" xmlns:xlink="http://www.w3.org/1999/xlink">
<g id="graph0" class="graph" transform="scale(1 1) rotate(0) translate(4 924.539)">
<title>rescanblockchain</title>
<polygon fill="white" stroke="none" points="-4,4 -4,-924.539 911,-924.539 911,4 -4,4"/>
<!-- Node1 -->
<g id="node1" class="node"><title>Node1</title>
<polygon fill="#bfbfbf" stroke="black" points="0,-556.5 0,-575.5 99,-575.5 99,-556.5 0,-556.5"/>
<text text-anchor="middle" x="49.5" y="-563.5" font-family="Helvetica,sans-Serif" font-size="10.00">rescanblockchain</text>
</g>
<!-- Node2 -->
<g id="node2" class="node"><title>Node2</title>
<g id="a_node2"><a xlink:href="rpcwallet_8cpp.html#a13cf9bdc928d8ca0b67e34791da05ddc" target="_top" xlink:title="Figures out what wallet, if any, to use for a JSONRPCRequest. ">
<polygon fill="white" stroke="black" points="147.5,-765.5 147.5,-784.5 305.5,-784.5 305.5,-765.5 147.5,-765.5"/>
<text text-anchor="middle" x="226.5" y="-772.5" font-family="Helvetica,sans-Serif" font-size="10.00">GetWalletForJSONRPCRequest</text>
</a>
</g>
</g>
<!-- Node1&#45;&gt;Node2 -->
<g id="edge1" class="edge"><title>Node1&#45;&gt;Node2</title>
<path fill="none" stroke="midnightblue" d="M51.9856,-575.8C57.191,-606.637 77.5142,-702.503 135,-751 139.892,-755.127 145.42,-758.552 151.273,-761.394"/>
<polygon fill="midnightblue" stroke="midnightblue" points="150.12,-764.707 160.693,-765.396 152.858,-758.265 150.12,-764.707"/>
</g>
<!-- Node8 -->
<g id="node8" class="node"><title>Node8</title>
<g id="a_node8"><a xlink:href="class_c_chain.html#a7482d06d8e8143f46326cf9c12c06daf" target="_top" xlink:title="Returns the index entry for the tip of this chain, or nullptr if none. ">
<polygon fill="white" stroke="black" points="807,-727.5 807,-746.5 877,-746.5 877,-727.5 807,-727.5"/>
<text text-anchor="middle" x="842" y="-734.5" font-family="Helvetica,sans-Serif" font-size="10.00">CChain::Tip</text>
</a>
</g>
</g>
<!-- Node1&#45;&gt;Node8 -->
<g id="edge38" class="edge"><title>Node1&#45;&gt;Node8</title>
<path fill="none" stroke="midnightblue" d="M50.882,-575.659C52.8365,-611.053 64.6417,-734.681 135,-794 341.457,-968.064 491.771,-941.961 741,-838 781.21,-821.227 813.522,-779.547 829.704,-755.295"/>
<polygon fill="midnightblue" stroke="midnightblue" points="832.797,-756.958 835.277,-746.657 826.914,-753.163 832.797,-756.958"/>
</g>
<!-- Node11 -->
<g id="node11" class="node"><title>Node11</title>
<g id="a_node11"><a xlink:href="rpc_2protocol_8cpp.html#a40b75d3d265c4a2e1d5fe3e129743884" target="_top" xlink:title="JSONRPCError">
<polygon fill="white" stroke="black" points="410.5,-689.5 410.5,-708.5 493.5,-708.5 493.5,-689.5 410.5,-689.5"/>
<text text-anchor="middle" x="452" y="-696.5" font-family="Helvetica,sans-Serif" font-size="10.00">JSONRPCError</text>
</a>
</g>
</g>
<!-- Node1&#45;&gt;Node11 -->
<g id="edge34" class="edge"><title>Node1&#45;&gt;Node11</title>
<path fill="none" stroke="midnightblue" d="M52.4108,-575.846C58.4988,-604.165 80.3493,-685.854 135,-718 178.58,-743.635 322.745,-722.607 400.401,-708.749"/>
<polygon fill="midnightblue" stroke="midnightblue" points="401.227,-712.157 410.443,-706.931 399.98,-705.269 401.227,-712.157"/>
</g>
<!-- Node22 -->
<g id="node22" class="node"><title>Node22</title>
<g id="a_node22"><a xlink:href="class_uni_value.html#abab649c2dbd593233de6364254456026" target="_top" xlink:title="UniValue::pushKV">
<polygon fill="white" stroke="black" points="613,-439.5 613,-458.5 714,-458.5 714,-439.5 613,-439.5"/>
<text text-anchor="middle" x="663.5" y="-446.5" font-family="Helvetica,sans-Serif" font-size="10.00">UniValue::pushKV</text>
</a>
</g>
</g>
<!-- Node1&#45;&gt;Node22 -->
<g id="edge56" class="edge"><title>Node1&#45;&gt;Node22</title>
<path fill="none" stroke="midnightblue" d="M51.2996,-556.195C54.5508,-523.559 69.9131,-418.287 135,-376 203.203,-331.689 244.694,-340.767 318,-376 341.085,-387.095 331.441,-408.872 354,-421 432.122,-463 537.628,-462.505 602.809,-456.837"/>
<polygon fill="midnightblue" stroke="midnightblue" points="603.285,-460.308 612.914,-455.888 602.631,-453.338 603.285,-460.308"/>
</g>
<!-- Node28 -->
<g id="node28" class="node"><title>Node28</title>
<g id="a_node28"><a xlink:href="rpcwallet_8cpp.html#ae44c9e4546fdf6e182276fada0126649" target="_top" xlink:title="EnsureWalletIsAvailable">
<polygon fill="white" stroke="black" points="163,-689.5 163,-708.5 290,-708.5 290,-689.5 163,-689.5"/>
<text text-anchor="middle" x="226.5" y="-696.5" font-family="Helvetica,sans-Serif" font-size="10.00">EnsureWalletIsAvailable</text>
</a>
</g>
</g>
<!-- Node1&#45;&gt;Node28 -->
<g id="edge28" class="edge"><title>Node1&#45;&gt;Node28</title>
<path fill="none" stroke="midnightblue" d="M54.752,-575.825C64.9942,-598.242 93.3091,-653.281 135,-680 140.631,-683.609 146.825,-686.546 153.251,-688.935"/>
<polygon fill="midnightblue" stroke="midnightblue" points="152.199,-692.273 162.792,-692.057 154.376,-685.62 152.199,-692.273"/>
</g>
<!-- Node30 -->
<g id="node30" class="node"><title>Node30</title>
<g id="a_node30"><a xlink:href="class_uni_value.html#a61ee4ef0fa78da6d936dddf408a51a13" target="_top" xlink:title="UniValue::size">
<polygon fill="white" stroke="black" points="185,-613.5 185,-632.5 268,-632.5 268,-613.5 185,-613.5"/>
<text text-anchor="middle" x="226.5" y="-620.5" font-family="Helvetica,sans-Serif" font-size="10.00">UniValue::size</text>
</a>
</g>
</g>
<!-- Node1&#45;&gt;Node30 -->
<g id="edge31" class="edge"><title>Node1&#45;&gt;Node30</title>
<path fill="none" stroke="midnightblue" d="M68.8361,-575.638C85.6516,-584.137 111.446,-596.331 135,-604 147.773,-608.159 161.864,-611.629 175.047,-614.416"/>
<polygon fill="midnightblue" stroke="midnightblue" points="174.419,-617.86 184.915,-616.414 175.809,-610.999 174.419,-617.86"/>
</g>
<!-- Node31 -->
<g id="node31" class="node"><title>Node31</title>
<g id="a_node31"><a xlink:href="server_8cpp.html#a26bafe3d526ee8cbc84b3c0b0dc3a43b" target="_top" xlink:title="HelpExampleCli">
<polygon fill="white" stroke="black" points="181,-575.5 181,-594.5 272,-594.5 272,-575.5 181,-575.5"/>
<text text-anchor="middle" x="226.5" y="-582.5" font-family="Helvetica,sans-Serif" font-size="10.00">HelpExampleCli</text>
</a>
</g>
</g>
<!-- Node1&#45;&gt;Node31 -->
<g id="edge32" class="edge"><title>Node1&#45;&gt;Node31</title>
<path fill="none" stroke="midnightblue" d="M99.2473,-571.293C121.436,-573.702 147.791,-576.563 170.668,-579.047"/>
<polygon fill="midnightblue" stroke="midnightblue" points="170.587,-582.559 180.907,-580.158 171.343,-575.599 170.587,-582.559"/>
</g>
<!-- Node32 -->
<g id="node32" class="node"><title>Node32</title>
<g id="a_node32"><a xlink:href="server_8cpp.html#a9ef4f8fb114508ceb861a0e8c3e0d26e" target="_top" xlink:title="HelpExampleRpc">
<polygon fill="white" stroke="black" points="178,-537.5 178,-556.5 275,-556.5 275,-537.5 178,-537.5"/>
<text text-anchor="middle" x="226.5" y="-544.5" font-family="Helvetica,sans-Serif" font-size="10.00">HelpExampleRpc</text>
</a>
</g>
</g>
<!-- Node1&#45;&gt;Node32 -->
<g id="edge33" class="edge"><title>Node1&#45;&gt;Node32</title>
<path fill="none" stroke="midnightblue" d="M99.2473,-560.707C120.559,-558.394 145.715,-555.662 167.94,-553.249"/>
<polygon fill="midnightblue" stroke="midnightblue" points="168.357,-556.725 177.921,-552.166 167.601,-549.766 168.357,-556.725"/>
</g>
<!-- Node33 -->
<g id="node33" class="node"><title>Node33</title>
<g id="a_node33"><a xlink:href="class_c_wallet.html#a1f5d867670b11d16e3b720d475c3989a" target="_top" xlink:title="Interface for accessing chain state. ">
<polygon fill="white" stroke="black" points="185,-499.5 185,-518.5 268,-518.5 268,-499.5 185,-499.5"/>
<text text-anchor="middle" x="226.5" y="-506.5" font-family="Helvetica,sans-Serif" font-size="10.00">CWallet::chain</text>
</a>
</g>
</g>
<!-- Node1&#45;&gt;Node33 -->
<g id="edge35" class="edge"><title>Node1&#45;&gt;Node33</title>
<path fill="none" stroke="midnightblue" d="M68.8361,-556.362C85.6516,-547.863 111.446,-535.669 135,-528 147.773,-523.841 161.864,-520.371 175.047,-517.584"/>
<polygon fill="midnightblue" stroke="midnightblue" points="175.809,-521.001 184.915,-515.586 174.419,-514.14 175.809,-521.001"/>
</g>
<!-- Node34 -->
<g id="node34" class="node"><title>Node34</title>
<g id="a_node34"><a xlink:href="classinterfaces_1_1_chain.html#ad3a8681b5aeabaebe0e31ee762aa53da" target="_top" xlink:title="Return Lock interface. ">
<polygon fill="white" stroke="black" points="165.5,-461.5 165.5,-480.5 287.5,-480.5 287.5,-461.5 165.5,-461.5"/>
<text text-anchor="middle" x="226.5" y="-468.5" font-family="Helvetica,sans-Serif" font-size="10.00">interfaces::Chain::lock</text>
</a>
</g>
</g>
<!-- Node1&#45;&gt;Node34 -->
<g id="edge36" class="edge"><title>Node1&#45;&gt;Node34</title>
<path fill="none" stroke="midnightblue" d="M58.2174,-556.316C71.8566,-539.907 101.923,-506.79 135,-490 141.397,-486.753 148.319,-484.06 155.387,-481.828"/>
<polygon fill="midnightblue" stroke="midnightblue" points="156.425,-485.171 165.08,-479.059 154.503,-478.44 156.425,-485.171"/>
</g>
<!-- Node35 -->
<g id="node35" class="node"><title>Node35</title>
<g id="a_node35"><a xlink:href="class_c_chain.html#a1eee0372da596a8fc68369e480adc2f1" target="_top" xlink:title="Returns the index entry for the genesis block of this chain, or nullptr if none. ">
<polygon fill="white" stroke="black" points="179,-423.5 179,-442.5 274,-442.5 274,-423.5 179,-423.5"/>
<text text-anchor="middle" x="226.5" y="-430.5" font-family="Helvetica,sans-Serif" font-size="10.00">CChain::Genesis</text>
</a>
</g>
</g>
<!-- Node1&#45;&gt;Node35 -->
<g id="edge37" class="edge"><title>Node1&#45;&gt;Node35</title>
<path fill="none" stroke="midnightblue" d="M54.752,-556.175C64.9942,-533.758 93.3091,-478.719 135,-452 145.138,-445.503 157.103,-441.182 168.955,-438.32"/>
<polygon fill="midnightblue" stroke="midnightblue" points="169.774,-441.724 178.841,-436.243 168.335,-434.874 169.774,-441.724"/>
</g>
<!-- Node36 -->
<g id="node36" class="node"><title>Node36</title>
<g id="a_node36"><a xlink:href="class_uni_value.html#a70c4bfad8015106cc480042462f413c1" target="_top" xlink:title="UniValue::isNull">
<polygon fill="white" stroke="black" points="181.5,-385.5 181.5,-404.5 271.5,-404.5 271.5,-385.5 181.5,-385.5"/>
<text text-anchor="middle" x="226.5" y="-392.5" font-family="Helvetica,sans-Serif" font-size="10.00">UniValue::isNull</text>
</a>
</g>
</g>
<!-- Node1&#45;&gt;Node36 -->
<g id="edge39" class="edge"><title>Node1&#45;&gt;Node36</title>
<path fill="none" stroke="midnightblue" d="M52.8624,-556.297C60.0278,-529.058 84.2048,-451.44 135,-414 145.503,-406.258 158.459,-401.517 171.251,-398.652"/>
<polygon fill="midnightblue" stroke="midnightblue" points="172.247,-402.026 181.425,-396.734 170.95,-395.147 172.247,-402.026"/>
</g>
<!-- Node37 -->
<g id="node37" class="node"><title>Node37</title>
<g id="a_node37"><a xlink:href="class_uni_value.html#ad22273eb84c91fff70a61ad11faa7121" target="_top" xlink:title="UniValue::get_int">
<polygon fill="white" stroke="black" points="177.5,-651.5 177.5,-670.5 275.5,-670.5 275.5,-651.5 177.5,-651.5"/>
<text text-anchor="middle" x="226.5" y="-658.5" font-family="Helvetica,sans-Serif" font-size="10.00">UniValue::get_int</text>
</a>
</g>
</g>
<!-- Node1&#45;&gt;Node37 -->
<g id="edge40" class="edge"><title>Node1&#45;&gt;Node37</title>
<path fill="none" stroke="midnightblue" d="M58.2174,-575.684C71.8566,-592.093 101.923,-625.21 135,-642 144.974,-647.063 156.222,-650.777 167.312,-653.502"/>
<polygon fill="midnightblue" stroke="midnightblue" points="166.892,-656.994 177.412,-655.737 168.404,-650.159 166.892,-656.994"/>
</g>
<!-- Node40 -->
<g id="node40" class="node"><title>Node40</title>
<g id="a_node40"><a xlink:href="group__map_wallet.html#ga7fc0d2a7f6be4d9a5ca8727252ddafc4" target="_top" xlink:title="Scan the block chain (starting in pindexStart) for transactions from or to us. ">
<polygon fill="white" stroke="black" points="135,-221.5 135,-240.5 318,-240.5 318,-221.5 135,-221.5"/>
<text text-anchor="middle" x="226.5" y="-228.5" font-family="Helvetica,sans-Serif" font-size="10.00">CWallet::ScanForWalletTransactions</text>
</a>
</g>
</g>
<!-- Node1&#45;&gt;Node40 -->
<g id="edge43" class="edge"><title>Node1&#45;&gt;Node40</title>
<path fill="none" stroke="midnightblue" d="M53.0165,-556.168C61.484,-524.046 90.9065,-419.848 135,-343 156.088,-306.247 188.925,-269.063 208.708,-248.132"/>
<polygon fill="midnightblue" stroke="midnightblue" points="211.444,-250.335 215.838,-240.694 206.391,-245.491 211.444,-250.335"/>
</g>
<!-- Node3 -->
<g id="node3" class="node"><title>Node3</title>
<g id="a_node3"><a xlink:href="rpcwallet_8cpp.html#af704ea42262521346e3be551cfbc5a7f" target="_top" xlink:title="GetWalletNameFromJSONRPCRequest">
<polygon fill="white" stroke="black" points="354,-806.5 354,-825.5 550,-825.5 550,-806.5 354,-806.5"/>
<text text-anchor="middle" x="452" y="-813.5" font-family="Helvetica,sans-Serif" font-size="10.00">GetWalletNameFromJSONRPCRequest</text>
</a>
</g>
</g>
<!-- Node2&#45;&gt;Node3 -->
<g id="edge2" class="edge"><title>Node2&#45;&gt;Node3</title>
<path fill="none" stroke="midnightblue" d="M279.337,-784.509C312.083,-790.516 354.573,-798.311 389.087,-804.642"/>
<polygon fill="midnightblue" stroke="midnightblue" points="388.59,-808.109 399.057,-806.471 389.853,-801.224 388.59,-808.109"/>
</g>
<!-- Node5 -->
<g id="node5" class="node"><title>Node5</title>
<g id="a_node5"><a xlink:href="wallet_2wallet_8cpp.html#a59fb74ca7a0b34f8f86ec58464a72f8a" target="_top" xlink:title="GetWallet">
<polygon fill="white" stroke="black" points="421,-727.5 421,-746.5 483,-746.5 483,-727.5 421,-727.5"/>
<text text-anchor="middle" x="452" y="-734.5" font-family="Helvetica,sans-Serif" font-size="10.00">GetWallet</text>
</a>
</g>
</g>
<!-- Node2&#45;&gt;Node5 -->
<g id="edge4" class="edge"><title>Node2&#45;&gt;Node5</title>
<path fill="none" stroke="midnightblue" d="M283.61,-765.46C323.271,-758.717 375.486,-749.839 410.98,-743.804"/>
<polygon fill="midnightblue" stroke="midnightblue" points="411.702,-747.232 420.974,-742.105 410.529,-740.331 411.702,-747.232"/>
</g>
<!-- Node2&#45;&gt;Node11 -->
<g id="edge10" class="edge"><title>Node2&#45;&gt;Node11</title>
<path fill="none" stroke="midnightblue" d="M280.833,-765.416C293.476,-761.925 306.592,-757.241 318,-751 337.042,-740.583 334.626,-727.785 354,-718 368.199,-710.829 384.833,-706.36 400.277,-703.576"/>
<polygon fill="midnightblue" stroke="midnightblue" points="400.898,-707.021 410.216,-701.979 399.787,-700.11 400.898,-707.021"/>
</g>
<!-- Node27 -->
<g id="node27" class="node"><title>Node27</title>
<g id="a_node27"><a xlink:href="dummywallet_8cpp.html#ab8562a8762a7793fdf5b8ae9465e1b85" target="_top" xlink:title="GetWallets">
<polygon fill="white" stroke="black" points="418.5,-765.5 418.5,-784.5 485.5,-784.5 485.5,-765.5 418.5,-765.5"/>
<text text-anchor="middle" x="452" y="-772.5" font-family="Helvetica,sans-Serif" font-size="10.00">GetWallets</text>
</a>
</g>
</g>
<!-- Node2&#45;&gt;Node27 -->
<g id="edge27" class="edge"><title>Node2&#45;&gt;Node27</title>
<path fill="none" stroke="midnightblue" d="M305.669,-775C340.088,-775 379.192,-775 408.161,-775"/>
<polygon fill="midnightblue" stroke="midnightblue" points="408.348,-778.5 418.348,-775 408.348,-771.5 408.348,-778.5"/>
</g>
<!-- Node4 -->
<g id="node4" class="node"><title>Node4</title>
<g id="a_node4"><a xlink:href="httpserver_8cpp.html#a5c344a7490a1962254ceda09e73c8891" target="_top" xlink:title="urlDecode">
<polygon fill="white" stroke="black" points="631,-809.5 631,-828.5 696,-828.5 696,-809.5 631,-809.5"/>
<text text-anchor="middle" x="663.5" y="-816.5" font-family="Helvetica,sans-Serif" font-size="10.00">urlDecode</text>
</a>
</g>
</g>
<!-- Node3&#45;&gt;Node4 -->
<g id="edge3" class="edge"><title>Node3&#45;&gt;Node4</title>
<path fill="none" stroke="midnightblue" d="M550.084,-817.39C574.876,-817.745 600.243,-818.108 620.592,-818.4"/>
<polygon fill="midnightblue" stroke="midnightblue" points="620.696,-821.902 630.745,-818.545 620.797,-814.902 620.696,-821.902"/>
</g>
<!-- Node6 -->
<g id="node6" class="node"><title>Node6</title>
<g id="a_node6"><a xlink:href="class_c_wallet.html#aeba3694fe7d6e81318d77191f75bdb19" target="_top" xlink:title="Prepends the wallet name in logging output to ease debugging in multi&#45;wallet use cases. ">
<polygon fill="white" stroke="black" points="600,-645.5 600,-664.5 727,-664.5 727,-645.5 600,-645.5"/>
<text text-anchor="middle" x="663.5" y="-652.5" font-family="Helvetica,sans-Serif" font-size="10.00">CWallet::WalletLogPrintf</text>
</a>
</g>
</g>
<!-- Node5&#45;&gt;Node6 -->
<g id="edge5" class="edge"><title>Node5&#45;&gt;Node6</title>
<path fill="none" stroke="midnightblue" d="M483.316,-736.326C503.465,-734.665 529.827,-730.072 550,-718 571.681,-705.026 564.65,-687.512 586,-674 589.352,-671.879 592.925,-669.994 596.627,-668.32"/>
<polygon fill="midnightblue" stroke="midnightblue" points="598.041,-671.525 606.04,-664.577 595.455,-665.02 598.041,-671.525"/>
</g>
<!-- Node7 -->
<g id="node7" class="node"><title>Node7</title>
<g id="a_node7"><a xlink:href="group__map_wallet.html#gaf766f26b1180b375f02a622dda88a246" target="_top" xlink:title="Blocks until the wallet state is up&#45;to&#45;date to /at least/ the current chain at the time this function...">
<polygon fill="white" stroke="red" points="593.5,-722 593.5,-752 733.5,-752 733.5,-722 593.5,-722"/>
<text text-anchor="start" x="601.5" y="-740" font-family="Helvetica,sans-Serif" font-size="10.00">CWallet::BlockUntilSynced</text>
<text text-anchor="middle" x="663.5" y="-729" font-family="Helvetica,sans-Serif" font-size="10.00">ToCurrentChain</text>
</a>
</g>
</g>
<!-- Node5&#45;&gt;Node7 -->
<g id="edge6" class="edge"><title>Node5&#45;&gt;Node7</title>
<path fill="none" stroke="midnightblue" d="M483.016,-737C509.069,-737 547.992,-737 582.939,-737"/>
<polygon fill="midnightblue" stroke="midnightblue" points="583.156,-740.5 593.155,-737 583.155,-733.5 583.156,-740.5"/>
</g>
<!-- Node9 -->
<g id="node9" class="node"><title>Node9</title>
<g id="a_node9"><a xlink:href="group__map_wallet.html#ga1933d34612a6a438d6c45bad608ce87c" target="_top" xlink:title="Flush wallet (bitdb flush) ">
<polygon fill="white" stroke="black" points="622.5,-771.5 622.5,-790.5 704.5,-790.5 704.5,-771.5 622.5,-771.5"/>
<text text-anchor="middle" x="663.5" y="-778.5" font-family="Helvetica,sans-Serif" font-size="10.00">CWallet::Flush</text>
</a>
</g>
</g>
<!-- Node5&#45;&gt;Node9 -->
<g id="edge8" class="edge"><title>Node5&#45;&gt;Node9</title>
<path fill="none" stroke="midnightblue" d="M483.188,-742.71C502.351,-746.385 527.66,-751.331 550,-756 570.513,-760.288 593.073,-765.252 612.571,-769.621"/>
<polygon fill="midnightblue" stroke="midnightblue" points="611.937,-773.066 622.461,-771.845 613.473,-766.236 611.937,-773.066"/>
</g>
<!-- Node10 -->
<g id="node10" class="node"><title>Node10</title>
<g id="a_node10"><a xlink:href="validationinterface_8cpp.html#a5e1776de1f87b4d045e9e2a198236b63" target="_top" xlink:title="Unregister a wallet from core. ">
<polygon fill="white" stroke="black" points="586,-683.5 586,-702.5 741,-702.5 741,-683.5 586,-683.5"/>
<text text-anchor="middle" x="663.5" y="-690.5" font-family="Helvetica,sans-Serif" font-size="10.00">UnregisterValidationInterface</text>
</a>
</g>
</g>
<!-- Node5&#45;&gt;Node10 -->
<g id="edge9" class="edge"><title>Node5&#45;&gt;Node10</title>
<path fill="none" stroke="midnightblue" d="M483.188,-731.29C502.351,-727.615 527.66,-722.669 550,-718 569.921,-713.836 591.773,-709.034 610.875,-704.759"/>
<polygon fill="midnightblue" stroke="midnightblue" points="611.892,-708.118 620.882,-702.511 610.358,-701.288 611.892,-708.118"/>
</g>
<!-- Node7&#45;&gt;Node8 -->
<g id="edge7" class="edge"><title>Node7&#45;&gt;Node8</title>
<path fill="none" stroke="midnightblue" d="M733.751,-737C754.938,-737 777.658,-737 796.708,-737"/>
<polygon fill="midnightblue" stroke="midnightblue" points="796.881,-740.5 806.881,-737 796.881,-733.5 796.881,-740.5"/>
</g>
<!-- Node12 -->
<g id="node12" class="node"><title>Node12</title>
<g id="a_node12"><a xlink:href="system_8h.html#a0605c886f88f190fa6a51ae07ca7558a" target="_top" xlink:title="error">
<polygon fill="white" stroke="red" points="643.5,-183.5 643.5,-202.5 683.5,-202.5 683.5,-183.5 643.5,-183.5"/>
<text text-anchor="middle" x="663.5" y="-190.5" font-family="Helvetica,sans-Serif" font-size="10.00">error</text>
</a>
</g>
</g>
<!-- Node11&#45;&gt;Node12 -->
<g id="edge11" class="edge"><title>Node11&#45;&gt;Node12</title>
<path fill="none" stroke="midnightblue" d="M493.538,-701.275C513.24,-700.115 535.692,-695.048 550,-680 588.676,-639.323 573.334,-484.681 586,-430 605.126,-347.431 639.817,-252.35 655.021,-212.332"/>
<polygon fill="midnightblue" stroke="midnightblue" points="658.376,-213.356 658.684,-202.766 651.839,-210.853 658.376,-213.356"/>
</g>
<!-- Node11&#45;&gt;Node22 -->
<g id="edge22" class="edge"><title>Node11&#45;&gt;Node22</title>
<path fill="none" stroke="midnightblue" d="M493.608,-700.283C512.847,-698.785 534.87,-693.715 550,-680 591.255,-642.604 561.909,-610.2 586,-560 603.088,-524.393 630.888,-487.498 647.853,-466.484"/>
<polygon fill="midnightblue" stroke="midnightblue" points="650.562,-468.701 654.192,-458.748 645.147,-464.265 650.562,-468.701"/>
</g>
<!-- Node25 -->
<g id="node25" class="node"><title>Node25</title>
<g id="a_node25"><a xlink:href="class_args_manager.html#a565c101a8d753ca2d71c7069a9d411c1" target="_top" xlink:title="Return string argument or default value. ">
<polygon fill="white" stroke="red" points="603.5,-569.5 603.5,-588.5 723.5,-588.5 723.5,-569.5 603.5,-569.5"/>
<text text-anchor="middle" x="663.5" y="-576.5" font-family="Helvetica,sans-Serif" font-size="10.00">ArgsManager::GetArg</text>
</a>
</g>
</g>
<!-- Node11&#45;&gt;Node25 -->
<g id="edge25" class="edge"><title>Node11&#45;&gt;Node25</title>
<path fill="none" stroke="midnightblue" d="M493.876,-699.379C512.721,-697.598 534.329,-692.551 550,-680 581.067,-655.12 555.565,-623.649 586,-598 588.564,-595.839 591.337,-593.918 594.257,-592.211"/>
<polygon fill="midnightblue" stroke="midnightblue" points="595.974,-595.267 603.393,-587.702 592.876,-588.989 595.974,-595.267"/>
</g>
<!-- Node26 -->
<g id="node26" class="node"><title>Node26</title>
<g id="a_node26"><a xlink:href="system_8cpp.html#a162859252c5665f520a6d4bce967947c" target="_top" xlink:title="Most paths passed as configuration arguments are treated as relative to the datadir if they are not a...">
<polygon fill="white" stroke="red" points="606,-607.5 606,-626.5 721,-626.5 721,-607.5 606,-607.5"/>
<text text-anchor="middle" x="663.5" y="-614.5" font-family="Helvetica,sans-Serif" font-size="10.00">AbsPathForConfigVal</text>
</a>
</g>
</g>
<!-- Node11&#45;&gt;Node26 -->
<g id="edge26" class="edge"><title>Node11&#45;&gt;Node26</title>
<path fill="none" stroke="midnightblue" d="M493.931,-697.22C512.142,-694.912 533.213,-690.045 550,-680 571.681,-667.026 564.65,-649.512 586,-636 589.352,-633.879 592.925,-631.994 596.627,-630.32"/>
<polygon fill="midnightblue" stroke="midnightblue" points="598.041,-633.525 606.04,-626.577 595.455,-627.02 598.041,-633.525"/>
</g>
<!-- Node13 -->
<g id="node13" class="node"><title>Node13</title>
<g id="a_node13"><a xlink:href="namespacetinyformat.html#ad784060b98bfd4f1b3089fbb7686a676" target="_top" xlink:title="Format list of arguments to the stream according to given format string. ">
<polygon fill="white" stroke="red" points="790,-95.5 790,-114.5 894,-114.5 894,-95.5 790,-95.5"/>
<text text-anchor="middle" x="842" y="-102.5" font-family="Helvetica,sans-Serif" font-size="10.00">tinyformat::format</text>
</a>
</g>
</g>
<!-- Node12&#45;&gt;Node13 -->
<g id="edge12" class="edge"><title>Node12&#45;&gt;Node13</title>
<path fill="none" stroke="midnightblue" d="M677.719,-183.293C698.12,-168.691 738.913,-140.98 777,-124 782.095,-121.729 787.535,-119.64 793.012,-117.745"/>
<polygon fill="midnightblue" stroke="midnightblue" points="794.416,-120.969 802.843,-114.547 792.25,-114.313 794.416,-120.969"/>
</g>
<!-- Node14 -->
<g id="node14" class="node"><title>Node14</title>
<g id="a_node14"><a xlink:href="system_8h.html#aaada8c5faa502eb0c33fc01294955db8" target="_top" xlink:title="PrintExceptionContinue">
<polygon fill="white" stroke="black" points="778,-57.5 778,-76.5 906,-76.5 906,-57.5 778,-57.5"/>
<text text-anchor="middle" x="842" y="-64.5" font-family="Helvetica,sans-Serif" font-size="10.00">PrintExceptionContinue</text>
</a>
</g>
</g>
<!-- Node12&#45;&gt;Node14 -->
<g id="edge13" class="edge"><title>Node12&#45;&gt;Node14</title>
<path fill="none" stroke="midnightblue" d="M671.843,-183.443C688.344,-162.617 730.57,-112.86 777,-86 780.725,-83.8453 784.715,-81.916 788.815,-80.1919"/>
<polygon fill="midnightblue" stroke="midnightblue" points="790.391,-83.3384 798.51,-76.5324 787.919,-76.7894 790.391,-83.3384"/>
</g>
<!-- Node15 -->
<g id="node15" class="node"><title>Node15</title>
<g id="a_node15"><a xlink:href="system_8h.html#aedd7d9ab25c6cfb8c81a4aaa917b104e" target="_top" xlink:title="FileCommit">
<polygon fill="white" stroke="black" points="807,-361.5 807,-380.5 877,-380.5 877,-361.5 807,-361.5"/>
<text text-anchor="middle" x="842" y="-368.5" font-family="Helvetica,sans-Serif" font-size="10.00">FileCommit</text>
</a>
</g>
</g>
<!-- Node12&#45;&gt;Node15 -->
<g id="edge14" class="edge"><title>Node12&#45;&gt;Node15</title>
<path fill="none" stroke="midnightblue" d="M683.56,-199.097C700.92,-205.592 726.059,-217.516 741,-236 774.935,-277.98 738.595,-314.066 777,-352 782.624,-357.555 789.794,-361.499 797.287,-364.296"/>
<polygon fill="midnightblue" stroke="midnightblue" points="796.271,-367.645 806.859,-367.259 798.342,-360.958 796.271,-367.645"/>
</g>
<!-- Node16 -->
<g id="node16" class="node"><title>Node16</title>
<g id="a_node16"><a xlink:href="system_8h.html#acb8d6b822bc1bfa609bf43bbac1a0d44" target="_top" xlink:title="TruncateFile">
<polygon fill="white" stroke="black" points="806,-323.5 806,-342.5 878,-342.5 878,-323.5 806,-323.5"/>
<text text-anchor="middle" x="842" y="-330.5" font-family="Helvetica,sans-Serif" font-size="10.00">TruncateFile</text>
</a>
</g>
</g>
<!-- Node12&#45;&gt;Node16 -->
<g id="edge15" class="edge"><title>Node12&#45;&gt;Node16</title>
<path fill="none" stroke="midnightblue" d="M683.676,-199.829C700.633,-206.703 725.083,-218.762 741,-236 766.901,-264.052 748.132,-289.012 777,-314 782.543,-318.798 789.253,-322.385 796.217,-325.066"/>
<polygon fill="midnightblue" stroke="midnightblue" points="795.19,-328.413 805.782,-328.19 797.363,-321.759 795.19,-328.413"/>
</g>
<!-- Node17 -->
<g id="node17" class="node"><title>Node17</title>
<g id="a_node17"><a xlink:href="system_8h.html#a756a5c49a4bb607d16d9842f8f3ede4f" target="_top" xlink:title="this function tries to raise the file descriptor limit to the requested number. ">
<polygon fill="white" stroke="black" points="777,-285.5 777,-304.5 907,-304.5 907,-285.5 777,-285.5"/>
<text text-anchor="middle" x="842" y="-292.5" font-family="Helvetica,sans-Serif" font-size="10.00">RaiseFileDescriptorLimit</text>
</a>
</g>
</g>
<!-- Node12&#45;&gt;Node17 -->
<g id="edge16" class="edge"><title>Node12&#45;&gt;Node17</title>
<path fill="none" stroke="midnightblue" d="M683.809,-201.666C699.961,-209.41 723.159,-221.718 741,-236 759.672,-250.947 756.778,-263.229 777,-276 780.323,-278.098 783.888,-279.974 787.573,-281.65"/>
<polygon fill="midnightblue" stroke="midnightblue" points="786.328,-284.921 796.911,-285.414 788.945,-278.429 786.328,-284.921"/>
</g>
<!-- Node18 -->
<g id="node18" class="node"><title>Node18</title>
<g id="a_node18"><a xlink:href="system_8h.html#a91c763bffc49cf7ed8d45cc44870e55c" target="_top" xlink:title="this function tries to make a particular range of a file allocated (corresponding to disk space) it i...">
<polygon fill="white" stroke="black" points="792,-247.5 792,-266.5 892,-266.5 892,-247.5 792,-247.5"/>
<text text-anchor="middle" x="842" y="-254.5" font-family="Helvetica,sans-Serif" font-size="10.00">AllocateFileRange</text>
</a>
</g>
</g>
<!-- Node12&#45;&gt;Node18 -->
<g id="edge17" class="edge"><title>Node12&#45;&gt;Node18</title>
<path fill="none" stroke="midnightblue" d="M683.806,-201.353C706.053,-210.83 743.818,-226.465 777,-238 783.399,-240.224 790.213,-242.424 796.918,-244.493"/>
<polygon fill="midnightblue" stroke="midnightblue" points="796.019,-247.878 806.603,-247.42 798.044,-241.177 796.019,-247.878"/>
</g>
<!-- Node19 -->
<g id="node19" class="node"><title>Node19</title>
<g id="a_node19"><a xlink:href="system_8h.html#a579657da2b55b131ecd453bf1b0d2314" target="_top" xlink:title="RenameOver">
<polygon fill="white" stroke="black" points="803,-209.5 803,-228.5 881,-228.5 881,-209.5 803,-209.5"/>
<text text-anchor="middle" x="842" y="-216.5" font-family="Helvetica,sans-Serif" font-size="10.00">RenameOver</text>
</a>
</g>
</g>
<!-- Node12&#45;&gt;Node19 -->
<g id="edge18" class="edge"><title>Node12&#45;&gt;Node19</title>
<path fill="none" stroke="midnightblue" d="M683.725,-195.832C709.665,-199.653 756.76,-206.591 792.676,-211.881"/>
<polygon fill="midnightblue" stroke="midnightblue" points="792.551,-215.401 802.954,-213.396 793.571,-208.475 792.551,-215.401"/>
</g>
<!-- Node20 -->
<g id="node20" class="node"><title>Node20</title>
<g id="a_node20"><a xlink:href="system_8h.html#a9f16e26cc90b17ed75fcbbe7ce75e7c3" target="_top" xlink:title="LockDirectory">
<polygon fill="white" stroke="red" points="801,-171.5 801,-190.5 883,-190.5 883,-171.5 801,-171.5"/>
<text text-anchor="middle" x="842" y="-178.5" font-family="Helvetica,sans-Serif" font-size="10.00">LockDirectory</text>
</a>
</g>
</g>
<!-- Node12&#45;&gt;Node20 -->
<g id="edge19" class="edge"><title>Node12&#45;&gt;Node20</title>
<path fill="none" stroke="midnightblue" d="M683.725,-187.291C709.177,-183.213 754.996,-179.51 790.638,-178.26"/>
<polygon fill="midnightblue" stroke="midnightblue" points="790.971,-181.752 800.866,-177.964 790.769,-174.755 790.971,-181.752"/>
</g>
<!-- Node21 -->
<g id="node21" class="node"><title>Node21</title>
<g id="a_node21"><a xlink:href="system_8h.html#a4d79c90e36d7957a773336ec3d55a842" target="_top" xlink:title="DirIsWritable">
<polygon fill="white" stroke="red" points="804.5,-133.5 804.5,-152.5 879.5,-152.5 879.5,-133.5 804.5,-133.5"/>
<text text-anchor="middle" x="842" y="-140.5" font-family="Helvetica,sans-Serif" font-size="10.00">DirIsWritable</text>
</a>
</g>
</g>
<!-- Node12&#45;&gt;Node21 -->
<g id="edge21" class="edge"><title>Node12&#45;&gt;Node21</title>
<path fill="none" stroke="midnightblue" d="M683.725,-187.554C710.838,-179.873 761.063,-165.645 797.477,-155.33"/>
<polygon fill="midnightblue" stroke="midnightblue" points="798.683,-158.626 807.35,-152.532 796.775,-151.891 798.683,-158.626"/>
</g>
<!-- Node20&#45;&gt;Node12 -->
<g id="edge20" class="edge"><title>Node20&#45;&gt;Node12</title>
<path fill="none" stroke="midnightblue" d="M800.866,-189.493C768.246,-193.199 722.995,-196.078 693.73,-196.184"/>
<polygon fill="midnightblue" stroke="midnightblue" points="693.756,-192.685 683.725,-196.095 693.693,-199.684 693.756,-192.685"/>
</g>
<!-- Node23 -->
<g id="node23" class="node"><title>Node23</title>
<g id="a_node23"><a xlink:href="class_uni_value.html#a0b2da6f10943e899d304a28ef1a12094" target="_top" xlink:title="UniValue::findKey">
<polygon fill="white" stroke="black" points="793,-451.5 793,-470.5 891,-470.5 891,-451.5 793,-451.5"/>
<text text-anchor="middle" x="842" y="-458.5" font-family="Helvetica,sans-Serif" font-size="10.00">UniValue::findKey</text>
</a>
</g>
</g>
<!-- Node22&#45;&gt;Node23 -->
<g id="edge23" class="edge"><title>Node22&#45;&gt;Node23</title>
<path fill="none" stroke="midnightblue" d="M714.135,-452.375C735.532,-453.829 760.703,-455.541 782.958,-457.054"/>
<polygon fill="midnightblue" stroke="midnightblue" points="782.74,-460.547 792.955,-457.733 783.215,-453.563 782.74,-460.547"/>
</g>
<!-- Node24 -->
<g id="node24" class="node"><title>Node24</title>
<g id="a_node24"><a xlink:href="class_uni_value.html#a505a2087cb7d9ee51d24a97a5cc7910c" target="_top" xlink:title="UniValue::__pushKV">
<polygon fill="white" stroke="black" points="786.5,-413.5 786.5,-432.5 897.5,-432.5 897.5,-413.5 786.5,-413.5"/>
<text text-anchor="middle" x="842" y="-420.5" font-family="Helvetica,sans-Serif" font-size="10.00">UniValue::__pushKV</text>
</a>
</g>
</g>
<!-- Node22&#45;&gt;Node24 -->
<g id="edge24" class="edge"><title>Node22&#45;&gt;Node24</title>
<path fill="none" stroke="midnightblue" d="M714.135,-441.688C733.5,-438.836 755.954,-435.528 776.542,-432.495"/>
<polygon fill="midnightblue" stroke="midnightblue" points="777.094,-435.952 786.477,-431.032 776.074,-429.027 777.094,-435.952"/>
</g>
<!-- Node28&#45;&gt;Node11 -->
<g id="edge30" class="edge"><title>Node28&#45;&gt;Node11</title>
<path fill="none" stroke="midnightblue" d="M290.054,-699C324.78,-699 367.423,-699 400.09,-699"/>
<polygon fill="midnightblue" stroke="midnightblue" points="400.322,-702.5 410.322,-699 400.322,-695.5 400.322,-702.5"/>
</g>
<!-- Node29 -->
<g id="node29" class="node"><title>Node29</title>
<g id="a_node29"><a xlink:href="wallet_2wallet_8cpp.html#a9bc62b5b6dea0a67f248bc07019a851f" target="_top" xlink:title="HasWallets">
<polygon fill="white" stroke="black" points="418,-651.5 418,-670.5 486,-670.5 486,-651.5 418,-651.5"/>
<text text-anchor="middle" x="452" y="-658.5" font-family="Helvetica,sans-Serif" font-size="10.00">HasWallets</text>
</a>
</g>
</g>
<!-- Node28&#45;&gt;Node29 -->
<g id="edge29" class="edge"><title>Node28&#45;&gt;Node29</title>
<path fill="none" stroke="midnightblue" d="M283.61,-689.46C322.094,-682.917 372.398,-674.364 407.777,-668.349"/>
<polygon fill="midnightblue" stroke="midnightblue" points="408.52,-671.773 417.792,-666.646 407.347,-664.872 408.52,-671.773"/>
</g>
<!-- Node38 -->
<g id="node38" class="node"><title>Node38</title>
<g id="a_node38"><a xlink:href="strencodings_8cpp.html#a880a215d9e931432b095084c756a49bb" target="_top" xlink:title="Convert string to signed 32&#45;bit integer with strict parse error feedback. ">
<polygon fill="white" stroke="black" points="418.5,-613.5 418.5,-632.5 485.5,-632.5 485.5,-613.5 418.5,-613.5"/>
<text text-anchor="middle" x="452" y="-620.5" font-family="Helvetica,sans-Serif" font-size="10.00">ParseInt32</text>
</a>
</g>
</g>
<!-- Node37&#45;&gt;Node38 -->
<g id="edge41" class="edge"><title>Node37&#45;&gt;Node38</title>
<path fill="none" stroke="midnightblue" d="M275.721,-652.801C315.133,-646.1 370.332,-636.715 408.196,-630.278"/>
<polygon fill="midnightblue" stroke="midnightblue" points="409.117,-633.671 418.389,-628.545 407.944,-626.77 409.117,-633.671"/>
</g>
<!-- Node39 -->
<g id="node39" class="node"><title>Node39</title>
<g id="a_node39"><a xlink:href="class_uni_value.html#ae8e17c2a90b668d0771a0523d70cd70d" target="_top" xlink:title="UniValue::getValStr">
<polygon fill="white" stroke="black" points="397.5,-575.5 397.5,-594.5 506.5,-594.5 506.5,-575.5 397.5,-575.5"/>
<text text-anchor="middle" x="452" y="-582.5" font-family="Helvetica,sans-Serif" font-size="10.00">UniValue::getValStr</text>
</a>
</g>
</g>
<!-- Node37&#45;&gt;Node39 -->
<g id="edge42" class="edge"><title>Node37&#45;&gt;Node39</title>
<path fill="none" stroke="midnightblue" d="M275.931,-656.379C290.126,-653.589 305.247,-649.128 318,-642 338.308,-630.649 333.616,-615.213 354,-604 364.175,-598.402 375.75,-594.437 387.272,-591.631"/>
<polygon fill="midnightblue" stroke="midnightblue" points="388.314,-594.987 397.348,-589.452 386.835,-588.145 388.314,-594.987"/>
</g>
<!-- Node40&#45;&gt;Node8 -->
<g id="edge50" class="edge"><title>Node40&#45;&gt;Node8</title>
<path fill="none" stroke="midnightblue" d="M318.213,-235.863C398.72,-241.232 509.65,-251.519 550,-269 651.874,-313.136 678.986,-337.91 741,-430 805.476,-525.746 830.929,-666.102 838.419,-717.347"/>
<polygon fill="midnightblue" stroke="midnightblue" points="834.972,-717.967 839.82,-727.387 841.905,-716.999 834.972,-717.967"/>
</g>
<!-- Node41 -->
<g id="node41" class="node"><title>Node41</title>
<g id="a_node41"><a xlink:href="time_8cpp.html#a46fac5fba8ba905b5f9acb364f5d8c6f" target="_top" xlink:title="GetTimeMicros() and GetTimeMillis() both return the system time, but in different units...">
<polygon fill="white" stroke="black" points="423.5,-126.5 423.5,-145.5 480.5,-145.5 480.5,-126.5 423.5,-126.5"/>
<text text-anchor="middle" x="452" y="-133.5" font-family="Helvetica,sans-Serif" font-size="10.00">GetTime</text>
</a>
</g>
</g>
<!-- Node40&#45;&gt;Node41 -->
<g id="edge44" class="edge"><title>Node40&#45;&gt;Node41</title>
<path fill="none" stroke="midnightblue" d="M240.019,-221.422C261.895,-205.174 309.045,-172.293 354,-155 372.832,-147.756 394.827,-143.158 413.107,-140.304"/>
<polygon fill="midnightblue" stroke="midnightblue" points="413.717,-143.752 423.112,-138.855 412.714,-136.825 413.717,-143.752"/>
</g>
<!-- Node42 -->
<g id="node42" class="node"><title>Node42</title>
<g id="a_node42"><a xlink:href="chainparams_8cpp.html#ace5c5b706d71a324a417dd2db394fd4a" target="_top" xlink:title="Return the currently selected parameters. ">
<polygon fill="white" stroke="black" points="425.5,-88.5 425.5,-107.5 478.5,-107.5 478.5,-88.5 425.5,-88.5"/>
<text text-anchor="middle" x="452" y="-95.5" font-family="Helvetica,sans-Serif" font-size="10.00">Params</text>
</a>
</g>
</g>
<!-- Node40&#45;&gt;Node42 -->
<g id="edge45" class="edge"><title>Node40&#45;&gt;Node42</title>
<path fill="none" stroke="midnightblue" d="M234.88,-221.486C252.702,-199.241 300.58,-143.697 354,-117 373.039,-107.485 396.399,-102.73 415.424,-100.356"/>
<polygon fill="midnightblue" stroke="midnightblue" points="415.926,-103.822 425.492,-99.2672 415.173,-96.863 415.926,-103.822"/>
</g>
<!-- Node43 -->
<g id="node43" class="node"><title>Node43</title>
<g id="a_node43"><a xlink:href="class_wallet_rescan_reserver.html#ae9bd5f4a2139e94106b7a74353b1241a" target="_top" xlink:title="WalletRescanReserver\l::isReserved">
<polygon fill="white" stroke="black" points="392.5,-39 392.5,-69 511.5,-69 511.5,-39 392.5,-39"/>
<text text-anchor="start" x="400.5" y="-57" font-family="Helvetica,sans-Serif" font-size="10.00">WalletRescanReserver</text>
<text text-anchor="middle" x="452" y="-46" font-family="Helvetica,sans-Serif" font-size="10.00">::isReserved</text>
</a>
</g>
</g>
<!-- Node40&#45;&gt;Node43 -->
<g id="edge46" class="edge"><title>Node40&#45;&gt;Node43</title>
<path fill="none" stroke="midnightblue" d="M232.596,-221.393C247.425,-194.406 293.377,-117.386 354,-79 362.74,-73.4655 372.657,-69.1532 382.73,-65.794"/>
<polygon fill="midnightblue" stroke="midnightblue" points="383.852,-69.1113 392.403,-62.8565 381.818,-62.4133 383.852,-69.1113"/>
</g>
<!-- Node44 -->
<g id="node44" class="node"><title>Node44</title>
<g id="a_node44"><a xlink:href="system_8h.html#aad133bb6103b53cebf03fd01e2f11ba1" target="_top" xlink:title="Translation function. ">
<polygon fill="white" stroke="red" points="437.5,-0.5 437.5,-19.5 466.5,-19.5 466.5,-0.5 437.5,-0.5"/>
<text text-anchor="middle" x="452" y="-7.5" font-family="Helvetica,sans-Serif" font-size="10.00">_</text>
</a>
</g>
</g>
<!-- Node40&#45;&gt;Node44 -->
<g id="edge47" class="edge"><title>Node40&#45;&gt;Node44</title>
<path fill="none" stroke="midnightblue" d="M230.406,-221.455C240.928,-188.632 280.353,-79.641 354,-29 375.694,-14.0825 406.226,-10.2212 427.21,-9.52184"/>
<polygon fill="midnightblue" stroke="midnightblue" points="427.532,-13.0185 437.492,-9.40533 427.453,-6.01896 427.532,-13.0185"/>
</g>
<!-- Node45 -->
<g id="node45" class="node"><title>Node45</title>
<g id="a_node45"><a xlink:href="validation_8cpp.html#a38412dd688f31cbca0f6d28a9adc0310" target="_top" xlink:title="Guess how far we are in the verification process at the given block index require cs_main if pindex h...">
<polygon fill="white" stroke="red" points="381.5,-392.5 381.5,-411.5 522.5,-411.5 522.5,-392.5 381.5,-392.5"/>
<text text-anchor="middle" x="452" y="-399.5" font-family="Helvetica,sans-Serif" font-size="10.00">GuessVerificationProgress</text>
</a>
</g>
</g>
<!-- Node40&#45;&gt;Node45 -->
<g id="edge48" class="edge"><title>Node40&#45;&gt;Node45</title>
<path fill="none" stroke="midnightblue" d="M235.216,-240.627C261.451,-273.312 346.026,-378.273 354,-383 359.473,-386.244 365.396,-388.947 371.523,-391.198"/>
<polygon fill="midnightblue" stroke="midnightblue" points="370.692,-394.608 381.285,-394.375 372.859,-387.952 370.692,-394.608"/>
</g>
<!-- Node46 -->
<g id="node46" class="node"><title>Node46</title>
<g id="a_node46"><a xlink:href="class_c_chain_params.html#aed2b6d5342825a6442d78f60660bca4d" target="_top" xlink:title="CChainParams::TxData">
<polygon fill="white" stroke="black" points="389,-354.5 389,-373.5 515,-373.5 515,-354.5 389,-354.5"/>
<text text-anchor="middle" x="452" y="-361.5" font-family="Helvetica,sans-Serif" font-size="10.00">CChainParams::TxData</text>
</a>
</g>
</g>
<!-- Node40&#45;&gt;Node46 -->
<g id="edge49" class="edge"><title>Node40&#45;&gt;Node46</title>
<path fill="none" stroke="midnightblue" d="M234.88,-240.514C252.702,-262.759 300.58,-318.303 354,-345 361.807,-348.902 370.341,-352.003 379.004,-354.468"/>
<polygon fill="midnightblue" stroke="midnightblue" points="378.251,-357.888 388.808,-356.989 379.995,-351.109 378.251,-357.888"/>
</g>
<!-- Node47 -->
<g id="node47" class="node"><title>Node47</title>
<g id="a_node47"><a xlink:href="shutdown_8cpp.html#a6f201ca9fe6b594f1985c12b4482ea5a" target="_top" xlink:title="ShutdownRequested">
<polygon fill="white" stroke="black" points="395,-316.5 395,-335.5 509,-335.5 509,-316.5 395,-316.5"/>
<text text-anchor="middle" x="452" y="-323.5" font-family="Helvetica,sans-Serif" font-size="10.00">ShutdownRequested</text>
</a>
</g>
</g>
<!-- Node40&#45;&gt;Node47 -->
<g id="edge51" class="edge"><title>Node40&#45;&gt;Node47</title>
<path fill="none" stroke="midnightblue" d="M240.019,-240.578C261.895,-256.826 309.045,-289.707 354,-307 363.771,-310.758 374.393,-313.804 384.906,-316.264"/>
<polygon fill="midnightblue" stroke="midnightblue" points="384.404,-319.737 394.92,-318.447 385.895,-312.898 384.404,-319.737"/>
</g>
<!-- Node48 -->
<g id="node48" class="node"><title>Node48</title>
<g id="a_node48"><a xlink:href="validation_8cpp.html#a578c1df234b05798180f0235d469a5ba" target="_top" xlink:title="Functions for disk access for blocks. ">
<polygon fill="white" stroke="red" points="397,-164.5 397,-183.5 507,-183.5 507,-164.5 397,-164.5"/>
<text text-anchor="middle" x="452" y="-171.5" font-family="Helvetica,sans-Serif" font-size="10.00">ReadBlockFromDisk</text>
</a>
</g>
</g>
<!-- Node40&#45;&gt;Node48 -->
<g id="edge52" class="edge"><title>Node40&#45;&gt;Node48</title>
<path fill="none" stroke="midnightblue" d="M256.417,-221.427C281.913,-213.2 320.165,-201.374 354,-193 364.713,-190.349 376.165,-187.83 387.309,-185.545"/>
<polygon fill="midnightblue" stroke="midnightblue" points="388.31,-188.914 397.426,-183.516 386.933,-182.051 388.31,-188.914"/>
</g>
<!-- Node49 -->
<g id="node49" class="node"><title>Node49</title>
<g id="a_node49"><a xlink:href="class_c_chain.html#a1ab1fe2932227af222699c64847e838b" target="_top" xlink:title="Efficiently check whether a block is present in this chain. ">
<polygon fill="white" stroke="black" points="403,-278.5 403,-297.5 501,-297.5 501,-278.5 403,-278.5"/>
<text text-anchor="middle" x="452" y="-285.5" font-family="Helvetica,sans-Serif" font-size="10.00">CChain::Contains</text>
</a>
</g>
</g>
<!-- Node40&#45;&gt;Node49 -->
<g id="edge54" class="edge"><title>Node40&#45;&gt;Node49</title>
<path fill="none" stroke="midnightblue" d="M263.456,-240.509C288.757,-247.168 323.423,-256.229 354,-264 369.585,-267.961 386.602,-272.2 401.97,-275.996"/>
<polygon fill="midnightblue" stroke="midnightblue" points="401.251,-279.424 411.799,-278.42 402.927,-272.628 401.251,-279.424"/>
</g>
<!-- Node50 -->
<g id="node50" class="node"><title>Node50</title>
<g id="a_node50"><a xlink:href="class_c_chain.html#acd3c27582e3d60b93363fda5d9f3775a" target="_top" xlink:title="Find the successor of a block in this chain, or nullptr if the given index is not found or is the tip...">
<polygon fill="white" stroke="black" points="412.5,-202.5 412.5,-221.5 491.5,-221.5 491.5,-202.5 412.5,-202.5"/>
<text text-anchor="middle" x="452" y="-209.5" font-family="Helvetica,sans-Serif" font-size="10.00">CChain::Next</text>
</a>
</g>
</g>
<!-- Node40&#45;&gt;Node50 -->
<g id="edge55" class="edge"><title>Node40&#45;&gt;Node50</title>
<path fill="none" stroke="midnightblue" d="M318.084,-223.299C346.883,-220.851 377.628,-218.237 402.287,-216.141"/>
<polygon fill="midnightblue" stroke="midnightblue" points="402.792,-219.611 412.46,-215.276 402.199,-212.636 402.792,-219.611"/>
</g>
<!-- Node48&#45;&gt;Node12 -->
<g id="edge53" class="edge"><title>Node48&#45;&gt;Node12</title>
<path fill="none" stroke="midnightblue" d="M507.224,-178.918C547.308,-182.553 600.373,-187.366 632.939,-190.319"/>
<polygon fill="midnightblue" stroke="midnightblue" points="632.873,-193.827 643.149,-191.245 633.506,-186.856 632.873,-193.827"/>
</g>
</g>
</svg>
