<?xml version="1.0" encoding="UTF-8" standalone="no"?>
<!DOCTYPE svg PUBLIC "-//W3C//DTD SVG 1.1//EN"
 "http://www.w3.org/Graphics/SVG/1.1/DTD/svg11.dtd">
<!-- Generated by graphviz version 2.49.3 (0)
 -->
<!-- Title: bumpfee Pages: 1 -->
<svg width="982pt" height="1434pt"
 viewBox="0.00 0.00 982.00 1434.00" xmlns="http://www.w3.org/2000/svg" xmlns:xlink="http://www.w3.org/1999/xlink">
<g id="graph0" class="graph" transform="scale(1 1) rotate(0) translate(4 1430)">
<title>bumpfee</title>
<polygon fill="white" stroke="transparent" points="-4,4 -4,-1430 978,-1430 978,4 -4,4"/>
<!-- Node1 -->
<g id="node1" class="node">
<title>Node1</title>
<g id="a_node1"><a xlink:title=" ">
<polygon fill="#bfbfbf" stroke="black" points="0,-418.5 0,-437.5 60,-437.5 60,-418.5 0,-418.5"/>
<text text-anchor="middle" x="30" y="-425.5" font-family="Helvetica,sans-Serif" font-size="10.00">bumpfee</text>
</a>
</g>
</g>
<!-- Node2 -->
<g id="node2" class="node">
<title>Node2</title>
<g id="a_node2"><a xlink:href="rpcwallet_8cpp.html#a09d4fde10c059f903bc22986003ebc35" target="_top" xlink:title=" ">
<polygon fill="white" stroke="black" points="96,-418.5 96,-437.5 192,-437.5 192,-418.5 96,-418.5"/>
<text text-anchor="middle" x="144" y="-425.5" font-family="Helvetica,sans-Serif" font-size="10.00">bumpfee_helper</text>
</a>
</g>
</g>
<!-- Node1&#45;&gt;Node2 -->
<g id="edge1" class="edge">
<title>Node1&#45;&gt;Node2</title>
<path fill="none" stroke="midnightblue" d="M60.13,-428C68.05,-428 76.89,-428 85.78,-428"/>
<polygon fill="midnightblue" stroke="midnightblue" points="85.79,-431.5 95.79,-428 85.79,-424.5 85.79,-431.5"/>
</g>
<!-- Node3 -->
<g id="node3" class="node">
<title>Node3</title>
<g id="a_node3"><a xlink:href="vector_8h.html#a56f3051110695bb710625b2f90f09eb3" target="_top" xlink:title="Concatenate two vectors, moving elements.">
<polygon fill="white" stroke="black" points="296.5,-1311.5 296.5,-1330.5 329.5,-1330.5 329.5,-1311.5 296.5,-1311.5"/>
<text text-anchor="middle" x="313" y="-1318.5" font-family="Helvetica,sans-Serif" font-size="10.00">Cat</text>
</a>
</g>
</g>
<!-- Node2&#45;&gt;Node3 -->
<g id="edge2" class="edge">
<title>Node2&#45;&gt;Node3</title>
<path fill="none" stroke="midnightblue" d="M145.24,-437.57C147.58,-528.2 167.72,-1233.48 228,-1302 242.27,-1318.22 267.18,-1322.18 286.18,-1322.56"/>
<polygon fill="midnightblue" stroke="midnightblue" points="286.33,-1326.06 296.29,-1322.44 286.25,-1319.06 286.33,-1326.06"/>
</g>
<!-- Node4 -->
<g id="node4" class="node">
<title>Node4</title>
<g id="a_node4"><a xlink:href="namespacefeebumper.html#a57269b81bd5c8613496a5e27b584497b" target="_top" xlink:title="Commit the bumpfee transaction.">
<polygon fill="white" stroke="black" points="228,-1273.5 228,-1292.5 398,-1292.5 398,-1273.5 228,-1273.5"/>
<text text-anchor="middle" x="313" y="-1280.5" font-family="Helvetica,sans-Serif" font-size="10.00">feebumper::CommitTransaction</text>
</a>
</g>
</g>
<!-- Node2&#45;&gt;Node4 -->
<g id="edge3" class="edge">
<title>Node2&#45;&gt;Node4</title>
<path fill="none" stroke="midnightblue" d="M145.57,-437.51C149.13,-494.87 170.17,-800.34 228,-1042 248.26,-1126.65 286.89,-1223.3 303.77,-1263.68"/>
<polygon fill="midnightblue" stroke="midnightblue" points="300.63,-1265.26 307.74,-1273.11 307.08,-1262.54 300.63,-1265.26"/>
</g>
<!-- Node13 -->
<g id="node11" class="node">
<title>Node13</title>
<g id="a_node11"><a xlink:href="namespacefeebumper.html#a8930f8cd4321de4955fbac8ca2e3af64" target="_top" xlink:title="Create bumpfee transaction based on feerate estimates.">
<polygon fill="white" stroke="black" points="233.5,-1002 233.5,-1032 392.5,-1032 392.5,-1002 233.5,-1002"/>
<text text-anchor="start" x="241.5" y="-1020" font-family="Helvetica,sans-Serif" font-size="10.00">feebumper::CreateRateBump</text>
<text text-anchor="middle" x="313" y="-1009" font-family="Helvetica,sans-Serif" font-size="10.00">Transaction</text>
</a>
</g>
</g>
<!-- Node2&#45;&gt;Node13 -->
<g id="edge11" class="edge">
<title>Node2&#45;&gt;Node13</title>
<path fill="none" stroke="midnightblue" d="M146.31,-437.63C152.49,-482.18 180.55,-672.41 228,-822 248.07,-885.27 281.47,-956.01 299.51,-992.41"/>
<polygon fill="midnightblue" stroke="midnightblue" points="296.57,-994.35 304.17,-1001.73 302.83,-991.22 296.57,-994.35"/>
</g>
<!-- Node180 -->
<g id="node16" class="node">
<title>Node180</title>
<g id="a_node16"><a xlink:href="system_8h.html#a96c5fc7111f69f7dcaba992d95d13e03" target="_top" xlink:title=" ">
<polygon fill="white" stroke="black" points="791,-798.5 791,-817.5 831,-817.5 831,-798.5 791,-798.5"/>
<text text-anchor="middle" x="811" y="-805.5" font-family="Helvetica,sans-Serif" font-size="10.00">error</text>
</a>
</g>
</g>
<!-- Node2&#45;&gt;Node180 -->
<g id="edge34" class="edge">
<title>Node2&#45;&gt;Node180</title>
<path fill="none" stroke="midnightblue" d="M144.49,-437.54C142.82,-479.04 141.88,-645.58 228,-732 306.5,-810.76 674.18,-810.47 780.89,-808.67"/>
<polygon fill="midnightblue" stroke="midnightblue" points="781.01,-812.17 790.94,-808.48 780.88,-805.17 781.01,-812.17"/>
</g>
<!-- Node267 -->
<g id="node23" class="node">
<title>Node267</title>
<g id="a_node23"><a xlink:href="strencodings_8cpp.html#a5319d20c493fa005757afa8c77c739ee" target="_top" xlink:title=" ">
<polygon fill="white" stroke="black" points="269,-703.5 269,-722.5 357,-722.5 357,-703.5 269,-703.5"/>
<text text-anchor="middle" x="313" y="-710.5" font-family="Helvetica,sans-Serif" font-size="10.00">EncodeBase64</text>
</a>
</g>
</g>
<!-- Node2&#45;&gt;Node267 -->
<g id="edge27" class="edge">
<title>Node2&#45;&gt;Node267</title>
<path fill="none" stroke="midnightblue" d="M145.57,-437.88C148.18,-474.17 161.86,-601.85 228,-675 237.85,-685.89 251.42,-693.86 264.79,-699.59"/>
<polygon fill="midnightblue" stroke="midnightblue" points="263.85,-702.98 274.43,-703.39 266.41,-696.47 263.85,-702.98"/>
</g>
<!-- Node268 -->
<g id="node27" class="node">
<title>Node268</title>
<g id="a_node27"><a xlink:href="rpcwallet_8cpp.html#a6272e8ec945c32ab0d3e27cb0eab078b" target="_top" xlink:title=" ">
<polygon fill="white" stroke="black" points="246,-266.5 246,-285.5 380,-285.5 380,-266.5 246,-266.5"/>
<text text-anchor="middle" x="313" y="-273.5" font-family="Helvetica,sans-Serif" font-size="10.00">EnsureWalletIsUnlocked</text>
</a>
</g>
</g>
<!-- Node2&#45;&gt;Node268 -->
<g id="edge31" class="edge">
<title>Node2&#45;&gt;Node268</title>
<path fill="none" stroke="midnightblue" d="M148.03,-418.48C156.4,-393.8 182.29,-327.47 228,-295 230.74,-293.05 233.65,-291.3 236.68,-289.72"/>
<polygon fill="midnightblue" stroke="midnightblue" points="238.37,-292.8 246.05,-285.5 235.5,-286.42 238.37,-292.8"/>
</g>
<!-- Node269 -->
<g id="node28" class="node">
<title>Node269</title>
<g id="a_node28"><a xlink:href="request_8cpp.html#a40b75d3d265c4a2e1d5fe3e129743884" target="_top" xlink:title=" ">
<polygon fill="white" stroke="black" points="659.5,-399.5 659.5,-418.5 742.5,-418.5 742.5,-399.5 659.5,-399.5"/>
<text text-anchor="middle" x="701" y="-406.5" font-family="Helvetica,sans-Serif" font-size="10.00">JSONRPCError</text>
</a>
</g>
</g>
<!-- Node2&#45;&gt;Node269 -->
<g id="edge50" class="edge">
<title>Node2&#45;&gt;Node269</title>
<path fill="none" stroke="midnightblue" d="M145.31,-418.24C147.01,-383.67 157.91,-266.58 228,-219 299.36,-170.55 540.98,-231.63 611,-282 650.54,-310.44 678.64,-362.1 691.72,-389.96"/>
<polygon fill="midnightblue" stroke="midnightblue" points="688.68,-391.72 695.99,-399.38 695.05,-388.83 688.68,-391.72"/>
</g>
<!-- Node270 -->
<g id="node29" class="node">
<title>Node270</title>
<g id="a_node29"><a xlink:href="class_uni_value.html#aad13d343dbda293251205e37d8b83c27" target="_top" xlink:title=" ">
<polygon fill="white" stroke="black" points="265.5,-418.5 265.5,-437.5 360.5,-437.5 360.5,-418.5 265.5,-418.5"/>
<text text-anchor="middle" x="313" y="-425.5" font-family="Helvetica,sans-Serif" font-size="10.00">UniValue::exists</text>
</a>
</g>
</g>
<!-- Node2&#45;&gt;Node270 -->
<g id="edge35" class="edge">
<title>Node2&#45;&gt;Node270</title>
<path fill="none" stroke="midnightblue" d="M192.41,-428C211.96,-428 234.78,-428 255.21,-428"/>
<polygon fill="midnightblue" stroke="midnightblue" points="255.34,-431.5 265.34,-428 255.34,-424.5 255.34,-431.5"/>
</g>
<!-- Node272 -->
<g id="node31" class="node">
<title>Node272</title>
<g id="a_node31"><a xlink:href="util_2fees_8cpp.html#a32fab8b174c9dcbab0d46d5ea4608a6b" target="_top" xlink:title=" ">
<polygon fill="white" stroke="black" points="280,-608.5 280,-627.5 346,-627.5 346,-608.5 280,-608.5"/>
<text text-anchor="middle" x="313" y="-615.5" font-family="Helvetica,sans-Serif" font-size="10.00">FeeModes</text>
</a>
</g>
</g>
<!-- Node2&#45;&gt;Node272 -->
<g id="edge37" class="edge">
<title>Node2&#45;&gt;Node272</title>
<path fill="none" stroke="midnightblue" d="M146.66,-437.56C152.24,-466.78 173.19,-555.52 228,-599 239.69,-608.27 255.03,-613.2 269.39,-615.77"/>
<polygon fill="midnightblue" stroke="midnightblue" points="269.22,-619.28 279.62,-617.25 270.22,-612.35 269.22,-619.28"/>
</g>
<!-- Node192 -->
<g id="node34" class="node">
<title>Node192</title>
<g id="a_node34"><a xlink:href="class_uni_value.html#ae8a27d40aa1b1322ea95ff4fb2dec2b1" target="_top" xlink:title=" ">
<polygon fill="white" stroke="black" points="259,-570.5 259,-589.5 367,-589.5 367,-570.5 259,-570.5"/>
<text text-anchor="middle" x="313" y="-577.5" font-family="Helvetica,sans-Serif" font-size="10.00">UniValue::get_bool</text>
</a>
</g>
</g>
<!-- Node2&#45;&gt;Node192 -->
<g id="edge40" class="edge">
<title>Node2&#45;&gt;Node192</title>
<path fill="none" stroke="midnightblue" d="M148.03,-437.52C156.4,-462.2 182.29,-528.53 228,-561 234.34,-565.51 241.58,-568.96 249.08,-571.62"/>
<polygon fill="midnightblue" stroke="midnightblue" points="248.09,-574.97 258.68,-574.56 250.14,-568.28 248.09,-574.97"/>
</g>
<!-- Node275 -->
<g id="node36" class="node">
<title>Node275</title>
<g id="a_node36"><a xlink:href="classbase__blob.html#ad7263503f949fb3c6c520ebb1f28e378" target="_top" xlink:title=" ">
<polygon fill="white" stroke="black" points="258.5,-646.5 258.5,-665.5 367.5,-665.5 367.5,-646.5 258.5,-646.5"/>
<text text-anchor="middle" x="313" y="-653.5" font-family="Helvetica,sans-Serif" font-size="10.00">base_blob::GetHex</text>
</a>
</g>
</g>
<!-- Node2&#45;&gt;Node275 -->
<g id="edge42" class="edge">
<title>Node2&#45;&gt;Node275</title>
<path fill="none" stroke="midnightblue" d="M145.75,-437.7C148.89,-471.08 163.92,-582.18 228,-637 233.99,-642.13 241.08,-645.95 248.56,-648.78"/>
<polygon fill="midnightblue" stroke="midnightblue" points="247.59,-652.15 258.18,-651.87 249.73,-645.48 247.59,-652.15"/>
</g>
<!-- Node277 -->
<g id="node38" class="node">
<title>Node277</title>
<g id="a_node38"><a xlink:href="rpcwallet_8cpp.html#a40a4438a7a21fe2b62f41ca59c87c52a" target="_top" xlink:title="Figures out what wallet, if any, to use for a JSONRPCRequest.">
<polygon fill="white" stroke="red" points="231.5,-494.5 231.5,-513.5 394.5,-513.5 394.5,-494.5 231.5,-494.5"/>
<text text-anchor="middle" x="313" y="-501.5" font-family="Helvetica,sans-Serif" font-size="10.00">GetWalletForJSONRPCRequest</text>
</a>
</g>
</g>
<!-- Node2&#45;&gt;Node277 -->
<g id="edge45" class="edge">
<title>Node2&#45;&gt;Node277</title>
<path fill="none" stroke="midnightblue" d="M155.99,-437.61C171.15,-450.36 199.81,-472.68 228,-485 233.75,-487.52 239.88,-489.72 246.1,-491.64"/>
<polygon fill="midnightblue" stroke="midnightblue" points="245.34,-495.06 255.92,-494.44 247.26,-488.33 245.34,-495.06"/>
</g>
<!-- Node282 -->
<g id="node40" class="node">
<title>Node282</title>
<g id="a_node40"><a xlink:href="rpc_2util_8cpp.html#a26bafe3d526ee8cbc84b3c0b0dc3a43b" target="_top" xlink:title=" ">
<polygon fill="white" stroke="black" points="265.5,-380.5 265.5,-399.5 360.5,-399.5 360.5,-380.5 265.5,-380.5"/>
<text text-anchor="middle" x="313" y="-387.5" font-family="Helvetica,sans-Serif" font-size="10.00">HelpExampleCli</text>
</a>
</g>
</g>
<!-- Node2&#45;&gt;Node282 -->
<g id="edge49" class="edge">
<title>Node2&#45;&gt;Node282</title>
<path fill="none" stroke="midnightblue" d="M186.79,-418.41C199.98,-415.39 214.59,-412.05 228,-409 238.27,-406.66 249.26,-404.17 259.78,-401.79"/>
<polygon fill="midnightblue" stroke="midnightblue" points="260.71,-405.17 269.69,-399.55 259.17,-398.34 260.71,-405.17"/>
</g>
<!-- Node283 -->
<g id="node41" class="node">
<title>Node283</title>
<g id="a_node41"><a xlink:href="rpc_2util_8cpp.html#adb231eaeb57d26011655ee8aaa5315e2" target="_top" xlink:title="Utilities: convert hex&#45;encoded Values (throws error if not hex).">
<polygon fill="white" stroke="red" points="276,-532.5 276,-551.5 350,-551.5 350,-532.5 276,-532.5"/>
<text text-anchor="middle" x="313" y="-539.5" font-family="Helvetica,sans-Serif" font-size="10.00">ParseHashV</text>
</a>
</g>
</g>
<!-- Node2&#45;&gt;Node283 -->
<g id="edge51" class="edge">
<title>Node2&#45;&gt;Node283</title>
<path fill="none" stroke="midnightblue" d="M150.46,-437.59C162.06,-457.01 191.13,-501.02 228,-523 239.35,-529.77 252.87,-534.13 265.72,-536.93"/>
<polygon fill="midnightblue" stroke="midnightblue" points="265.34,-540.42 275.82,-538.87 266.66,-533.55 265.34,-540.42"/>
</g>
<!-- Node290 -->
<g id="node42" class="node">
<title>Node290</title>
<g id="a_node42"><a xlink:href="class_uni_value.html#a944cd1b59b040cd24c9f46b55a68d49a" target="_top" xlink:title=" ">
<polygon fill="white" stroke="black" points="254,-304.5 254,-323.5 372,-323.5 372,-304.5 254,-304.5"/>
<text text-anchor="middle" x="313" y="-311.5" font-family="Helvetica,sans-Serif" font-size="10.00">UniValue::push_back</text>
</a>
</g>
</g>
<!-- Node2&#45;&gt;Node290 -->
<g id="edge53" class="edge">
<title>Node2&#45;&gt;Node290</title>
<path fill="none" stroke="midnightblue" d="M150.46,-418.41C162.06,-398.99 191.13,-354.98 228,-333 233.02,-330.01 238.46,-327.49 244.08,-325.36"/>
<polygon fill="midnightblue" stroke="midnightblue" points="245.3,-328.65 253.67,-322.15 243.08,-322.01 245.3,-328.65"/>
</g>
<!-- Node291 -->
<g id="node43" class="node">
<title>Node291</title>
<g id="a_node43"><a xlink:href="class_uni_value.html#abab649c2dbd593233de6364254456026" target="_top" xlink:title=" ">
<polygon fill="white" stroke="red" points="261.5,-342.5 261.5,-361.5 364.5,-361.5 364.5,-342.5 261.5,-342.5"/>
<text text-anchor="middle" x="313" y="-349.5" font-family="Helvetica,sans-Serif" font-size="10.00">UniValue::pushKV</text>
</a>
</g>
</g>
<!-- Node2&#45;&gt;Node291 -->
<g id="edge54" class="edge">
<title>Node2&#45;&gt;Node291</title>
<path fill="none" stroke="midnightblue" d="M155.99,-418.39C171.15,-405.64 199.81,-383.32 228,-371 235.4,-367.76 243.42,-365.05 251.47,-362.78"/>
<polygon fill="midnightblue" stroke="midnightblue" points="252.47,-366.13 261.26,-360.22 250.7,-359.36 252.47,-366.13"/>
</g>
<!-- Node293 -->
<g id="node44" class="node">
<title>Node293</title>
<g id="a_node44"><a xlink:href="rpc_2util_8cpp.html#a1d3e3ccc5d3ba3ee1314be41a2039e0f" target="_top" xlink:title="Type&#45;check arguments; throws JSONRPCError if wrong type given.">
<polygon fill="white" stroke="red" points="268.5,-228.5 268.5,-247.5 357.5,-247.5 357.5,-228.5 268.5,-228.5"/>
<text text-anchor="middle" x="313" y="-235.5" font-family="Helvetica,sans-Serif" font-size="10.00">RPCTypeCheck</text>
</a>
</g>
</g>
<!-- Node2&#45;&gt;Node293 -->
<g id="edge56" class="edge">
<title>Node2&#45;&gt;Node293</title>
<path fill="none" stroke="midnightblue" d="M146.66,-418.44C152.24,-389.22 173.19,-300.48 228,-257 236.7,-250.1 247.42,-245.6 258.26,-242.7"/>
<polygon fill="midnightblue" stroke="midnightblue" points="259.21,-246.07 268.19,-240.45 257.66,-239.24 259.21,-246.07"/>
</g>
<!-- Node299 -->
<g id="node45" class="node">
<title>Node299</title>
<g id="a_node45"><a xlink:href="rpc_2util_8cpp.html#aec45a2addcbf2231658dce8bbfbb792c" target="_top" xlink:title=" ">
<polygon fill="white" stroke="red" points="260.5,-456.5 260.5,-475.5 365.5,-475.5 365.5,-456.5 260.5,-456.5"/>
<text text-anchor="middle" x="313" y="-463.5" font-family="Helvetica,sans-Serif" font-size="10.00">RPCTypeCheckObj</text>
</a>
</g>
</g>
<!-- Node2&#45;&gt;Node299 -->
<g id="edge57" class="edge">
<title>Node2&#45;&gt;Node299</title>
<path fill="none" stroke="midnightblue" d="M186.79,-437.59C199.98,-440.61 214.59,-443.95 228,-447 238.27,-449.34 249.26,-451.83 259.78,-454.21"/>
<polygon fill="midnightblue" stroke="midnightblue" points="259.17,-457.66 269.69,-456.45 260.71,-450.83 259.17,-457.66"/>
</g>
<!-- Node302 -->
<g id="node46" class="node">
<title>Node302</title>
<g id="a_node46"><a xlink:href="rpcwallet_8cpp.html#a0bb19f5cd785f6f02d0169af7396c06b" target="_top" xlink:title="Update coin control with fee estimation based on the given parameters.">
<polygon fill="white" stroke="red" points="253,-152.5 253,-171.5 373,-171.5 373,-152.5 253,-152.5"/>
<text text-anchor="middle" x="313" y="-159.5" font-family="Helvetica,sans-Serif" font-size="10.00">SetFeeEstimateMode</text>
</a>
</g>
</g>
<!-- Node2&#45;&gt;Node302 -->
<g id="edge59" class="edge">
<title>Node2&#45;&gt;Node302</title>
<path fill="none" stroke="midnightblue" d="M145.28,-418.49C146.87,-382.46 157.45,-252.97 228,-186 232.44,-181.79 237.57,-178.3 243.06,-175.43"/>
<polygon fill="midnightblue" stroke="midnightblue" points="244.9,-178.44 252.57,-171.14 242.02,-172.06 244.9,-178.44"/>
</g>
<!-- Node314 -->
<g id="node47" class="node">
<title>Node314</title>
<g id="a_node47"><a xlink:href="namespacefeebumper.html#ad5a2294b582c8b9c26cf1d2bcfc0df34" target="_top" xlink:title="Sign the new transaction,.">
<polygon fill="white" stroke="black" points="237,-114.5 237,-133.5 389,-133.5 389,-114.5 237,-114.5"/>
<text text-anchor="middle" x="313" y="-121.5" font-family="Helvetica,sans-Serif" font-size="10.00">feebumper::SignTransaction</text>
</a>
</g>
</g>
<!-- Node2&#45;&gt;Node314 -->
<g id="edge61" class="edge">
<title>Node2&#45;&gt;Node314</title>
<path fill="none" stroke="midnightblue" d="M144.59,-418.4C143.45,-378.15 144.67,-221.4 228,-143 229.51,-141.58 231.1,-140.26 232.77,-139.02"/>
<polygon fill="midnightblue" stroke="midnightblue" points="234.91,-141.82 241.6,-133.6 231.25,-135.85 234.91,-141.82"/>
</g>
<!-- Node315 -->
<g id="node48" class="node">
<title>Node315</title>
<g id="a_node48"><a xlink:href="class_c_data_stream.html#aac770a2b809917189c4476ee899b2d8b" target="_top" xlink:title=" ">
<polygon fill="white" stroke="red" points="262.5,-76.5 262.5,-95.5 363.5,-95.5 363.5,-76.5 262.5,-76.5"/>
<text text-anchor="middle" x="313" y="-83.5" font-family="Helvetica,sans-Serif" font-size="10.00">CDataStream::str</text>
</a>
</g>
</g>
<!-- Node2&#45;&gt;Node315 -->
<g id="edge62" class="edge">
<title>Node2&#45;&gt;Node315</title>
<path fill="none" stroke="midnightblue" d="M146.14,-418.27C152.06,-369.34 180.86,-150.79 228,-105 234.77,-98.42 243.32,-93.93 252.35,-90.9"/>
<polygon fill="midnightblue" stroke="midnightblue" points="253.57,-94.19 262.27,-88.16 251.7,-87.45 253.57,-94.19"/>
</g>
<!-- Node256 -->
<g id="node49" class="node">
<title>Node256</title>
<g id="a_node49"><a xlink:href="class_c_fee_rate.html#a150357ec36fe517adf4a9876089c3a8e" target="_top" xlink:title=" ">
<polygon fill="white" stroke="black" points="259,-38.5 259,-57.5 367,-57.5 367,-38.5 259,-38.5"/>
<text text-anchor="middle" x="313" y="-45.5" font-family="Helvetica,sans-Serif" font-size="10.00">CFeeRate::ToString</text>
</a>
</g>
</g>
<!-- Node2&#45;&gt;Node256 -->
<g id="edge63" class="edge">
<title>Node2&#45;&gt;Node256</title>
<path fill="none" stroke="midnightblue" d="M145.87,-418.19C150.69,-365.75 175.95,-118.86 228,-67 233.87,-61.15 241.14,-56.94 248.93,-53.94"/>
<polygon fill="midnightblue" stroke="midnightblue" points="250.16,-57.22 258.62,-50.84 248.03,-50.55 250.16,-57.22"/>
</g>
<!-- Node318 -->
<g id="node50" class="node">
<title>Node318</title>
<g id="a_node50"><a xlink:href="core__write_8cpp.html#af7d87ece476c2d6ed5382abf4baa210e" target="_top" xlink:title=" ">
<polygon fill="white" stroke="black" points="259.5,-0.5 259.5,-19.5 366.5,-19.5 366.5,-0.5 259.5,-0.5"/>
<text text-anchor="middle" x="313" y="-7.5" font-family="Helvetica,sans-Serif" font-size="10.00">ValueFromAmount</text>
</a>
</g>
</g>
<!-- Node2&#45;&gt;Node318 -->
<g id="edge64" class="edge">
<title>Node2&#45;&gt;Node318</title>
<path fill="none" stroke="midnightblue" d="M145.63,-418.28C149.42,-362.86 170.97,-87.03 228,-29 234.03,-22.87 241.58,-18.53 249.68,-15.5"/>
<polygon fill="midnightblue" stroke="midnightblue" points="250.85,-18.8 259.37,-12.5 248.78,-12.11 250.85,-18.8"/>
</g>
<!-- Node5 -->
<g id="node5" class="node">
<title>Node5</title>
<g id="a_node5"><a xlink:href="class_c_wallet_tx.html#a8235bd17d83c9ed101ca88950ab922ef" target="_top" xlink:title=" ">
<polygon fill="white" stroke="black" points="465.5,-1368.5 465.5,-1387.5 579.5,-1387.5 579.5,-1368.5 465.5,-1368.5"/>
<text text-anchor="middle" x="522.5" y="-1375.5" font-family="Helvetica,sans-Serif" font-size="10.00">CWalletTx::GetHash</text>
</a>
</g>
</g>
<!-- Node4&#45;&gt;Node5 -->
<g id="edge4" class="edge">
<title>Node4&#45;&gt;Node5</title>
<path fill="none" stroke="midnightblue" d="M379.93,-1292.53C386.35,-1295.01 392.5,-1298.12 398,-1302 422.47,-1319.29 409.45,-1341.82 434,-1359 440.45,-1363.51 447.77,-1366.98 455.36,-1369.65"/>
<polygon fill="midnightblue" stroke="midnightblue" points="454.5,-1373.04 465.08,-1372.61 456.54,-1366.35 454.5,-1373.04"/>
</g>
<!-- Node6 -->
<g id="node6" class="node">
<title>Node6</title>
<g id="a_node6"><a xlink:href="classbase__blob.html#aba89c6722866a5850882a509d27d7bbd" target="_top" xlink:title=" ">
<polygon fill="white" stroke="black" points="472.5,-1330.5 472.5,-1349.5 572.5,-1349.5 572.5,-1330.5 472.5,-1330.5"/>
<text text-anchor="middle" x="522.5" y="-1337.5" font-family="Helvetica,sans-Serif" font-size="10.00">base_blob::IsNull</text>
</a>
</g>
</g>
<!-- Node4&#45;&gt;Node6 -->
<g id="edge5" class="edge">
<title>Node4&#45;&gt;Node6</title>
<path fill="none" stroke="midnightblue" d="M366.15,-1292.55C376.84,-1295.13 387.9,-1298.27 398,-1302 414.97,-1308.27 417,-1314.8 434,-1321 443,-1324.28 452.73,-1327.08 462.32,-1329.45"/>
<polygon fill="midnightblue" stroke="midnightblue" points="461.7,-1332.9 472.24,-1331.75 463.29,-1326.08 461.7,-1332.9"/>
</g>
<!-- Node7 -->
<g id="node7" class="node">
<title>Node7</title>
<g id="a_node7"><a xlink:href="primitives_2transaction_8h.html#aca31166567483fee6deca52ac53569e1" target="_top" xlink:title=" ">
<polygon fill="white" stroke="black" points="465,-1292.5 465,-1311.5 580,-1311.5 580,-1292.5 465,-1292.5"/>
<text text-anchor="middle" x="522.5" y="-1299.5" font-family="Helvetica,sans-Serif" font-size="10.00">MakeTransactionRef</text>
</a>
</g>
</g>
<!-- Node4&#45;&gt;Node7 -->
<g id="edge6" class="edge">
<title>Node4&#45;&gt;Node7</title>
<path fill="none" stroke="midnightblue" d="M398.1,-1290.7C416.97,-1292.43 436.74,-1294.24 454.79,-1295.89"/>
<polygon fill="midnightblue" stroke="midnightblue" points="454.63,-1299.39 464.91,-1296.82 455.27,-1292.42 454.63,-1299.39"/>
</g>
<!-- Node8 -->
<g id="node8" class="node">
<title>Node8</title>
<g id="a_node8"><a xlink:href="feebumper_8cpp.html#ad7fff0e3e0673d743033eae5fc723d06" target="_top" xlink:title="Check whether transaction has descendant in wallet or mempool, or has been mined, or conflicts with a...">
<polygon fill="white" stroke="red" points="466,-1216.5 466,-1235.5 579,-1235.5 579,-1216.5 466,-1216.5"/>
<text text-anchor="middle" x="522.5" y="-1223.5" font-family="Helvetica,sans-Serif" font-size="10.00">PreconditionChecks</text>
</a>
</g>
</g>
<!-- Node4&#45;&gt;Node8 -->
<g id="edge7" class="edge">
<title>Node4&#45;&gt;Node8</title>
<path fill="none" stroke="midnightblue" d="M348.66,-1273.46C372.62,-1266.87 405.25,-1257.9 434,-1250 447.93,-1246.17 463.12,-1242.01 476.87,-1238.24"/>
<polygon fill="midnightblue" stroke="midnightblue" points="477.87,-1241.59 486.58,-1235.57 476.01,-1234.84 477.87,-1241.59"/>
</g>
<!-- Node11 -->
<g id="node9" class="node">
<title>Node11</title>
<g id="a_node9"><a xlink:href="translation_8h.html#adff31aba0266455557bf721860f481b8" target="_top" xlink:title="Mark a bilingual_str as untranslated.">
<polygon fill="white" stroke="black" points="661,-1197.5 661,-1216.5 741,-1216.5 741,-1197.5 661,-1197.5"/>
<text text-anchor="middle" x="701" y="-1204.5" font-family="Helvetica,sans-Serif" font-size="10.00">Untranslated</text>
</a>
</g>
</g>
<!-- Node4&#45;&gt;Node11 -->
<g id="edge10" class="edge">
<title>Node4&#45;&gt;Node11</title>
<path fill="none" stroke="midnightblue" d="M398.1,-1278.45C458.24,-1273.7 540.65,-1264.12 611,-1245 632.28,-1239.22 655.13,-1229.38 672.35,-1221.16"/>
<polygon fill="midnightblue" stroke="midnightblue" points="674.34,-1224.08 681.78,-1216.55 671.26,-1217.79 674.34,-1224.08"/>
</g>
<!-- Node12 -->
<g id="node10" class="node">
<title>Node12</title>
<g id="a_node10"><a xlink:href="classbase__blob.html#a7a0d25782830d8b087c4da839f3ccdeb" target="_top" xlink:title=" ">
<polygon fill="white" stroke="black" points="467,-1406.5 467,-1425.5 578,-1425.5 578,-1406.5 467,-1406.5"/>
<text text-anchor="middle" x="522.5" y="-1413.5" font-family="Helvetica,sans-Serif" font-size="10.00">base_blob::ToString</text>
</a>
</g>
</g>
<!-- Node4&#45;&gt;Node12 -->
<g id="edge9" class="edge">
<title>Node4&#45;&gt;Node12</title>
<path fill="none" stroke="midnightblue" d="M383.26,-1292.57C388.59,-1295.07 393.6,-1298.17 398,-1302 432.08,-1331.62 399.79,-1367.53 434,-1397 440.67,-1402.75 448.68,-1406.89 457.1,-1409.84"/>
<polygon fill="midnightblue" stroke="midnightblue" points="456.16,-1413.21 466.74,-1412.7 458.15,-1406.5 456.16,-1413.21"/>
</g>
<!-- Node8&#45;&gt;Node11 -->
<g id="edge8" class="edge">
<title>Node8&#45;&gt;Node11</title>
<path fill="none" stroke="midnightblue" d="M579.35,-1219.99C602.28,-1217.52 628.6,-1214.69 650.79,-1212.3"/>
<polygon fill="midnightblue" stroke="midnightblue" points="651.43,-1215.75 660.99,-1211.2 650.68,-1208.79 651.43,-1215.75"/>
</g>
<!-- Node13&#45;&gt;Node8 -->
<g id="edge23" class="edge">
<title>Node13&#45;&gt;Node8</title>
<path fill="none" stroke="midnightblue" d="M319.43,-1032.13C332.95,-1067.55 371.58,-1156.34 434,-1202 440.76,-1206.95 448.49,-1210.87 456.49,-1213.99"/>
<polygon fill="midnightblue" stroke="midnightblue" points="455.38,-1217.31 465.97,-1217.29 457.68,-1210.7 455.38,-1217.31"/>
</g>
<!-- Node13&#45;&gt;Node11 -->
<g id="edge26" class="edge">
<title>Node13&#45;&gt;Node11</title>
<path fill="none" stroke="midnightblue" d="M321.04,-1032.24C336.48,-1063.76 376.59,-1135.96 434,-1169 469.93,-1189.68 584.2,-1199.96 650.7,-1204.32"/>
<polygon fill="midnightblue" stroke="midnightblue" points="650.74,-1207.82 660.94,-1204.96 651.18,-1200.84 650.74,-1207.82"/>
</g>
<!-- Node14 -->
<g id="node12" class="node">
<title>Node14</title>
<g id="a_node12"><a xlink:href="receive_8cpp.html#abfb505bccc01a47840fa88332d242819" target="_top" xlink:title="filter decides which addresses will count towards the debit">
<polygon fill="white" stroke="red" points="647,-1016.5 647,-1035.5 755,-1035.5 755,-1016.5 647,-1016.5"/>
<text text-anchor="middle" x="701" y="-1023.5" font-family="Helvetica,sans-Serif" font-size="10.00">CachedTxGetDebit</text>
</a>
</g>
</g>
<!-- Node13&#45;&gt;Node14 -->
<g id="edge12" class="edge">
<title>Node13&#45;&gt;Node14</title>
<path fill="none" stroke="midnightblue" d="M392.53,-1014.85C452.44,-1013.73 536.97,-1013.27 611,-1017 619.36,-1017.42 628.15,-1018.06 636.81,-1018.82"/>
<polygon fill="midnightblue" stroke="midnightblue" points="636.61,-1022.31 646.89,-1019.74 637.25,-1015.34 636.61,-1022.31"/>
</g>
<!-- Node20 -->
<g id="node13" class="node">
<title>Node20</title>
<g id="a_node13"><a xlink:href="spend_8cpp.html#a8ec1300324fb7315717d52a95a850b4b" target="_top" xlink:title="Calculate the size of the transaction assuming all signatures are max size Use DummySignatureCreator,...">
<polygon fill="white" stroke="red" points="434,-1026.5 434,-1045.5 611,-1045.5 611,-1026.5 434,-1026.5"/>
<text text-anchor="middle" x="522.5" y="-1033.5" font-family="Helvetica,sans-Serif" font-size="10.00">CalculateMaximumSignedTxSize</text>
</a>
</g>
</g>
<!-- Node13&#45;&gt;Node20 -->
<g id="edge13" class="edge">
<title>Node13&#45;&gt;Node20</title>
<path fill="none" stroke="midnightblue" d="M392.74,-1024.21C402.8,-1025.13 413.2,-1026.08 423.51,-1027.03"/>
<polygon fill="midnightblue" stroke="midnightblue" points="423.51,-1030.54 433.79,-1027.97 424.15,-1023.57 423.51,-1030.54"/>
</g>
<!-- Node24 -->
<g id="node14" class="node">
<title>Node24</title>
<g id="a_node14"><a xlink:href="feebumper_8cpp.html#abf95aadeba0140b080f5918c38b72608" target="_top" xlink:title="Check if the user provided a valid feeRate.">
<polygon fill="white" stroke="red" points="479.5,-1064.5 479.5,-1083.5 565.5,-1083.5 565.5,-1064.5 479.5,-1064.5"/>
<text text-anchor="middle" x="522.5" y="-1071.5" font-family="Helvetica,sans-Serif" font-size="10.00">CheckFeeRate</text>
</a>
</g>
</g>
<!-- Node13&#45;&gt;Node24 -->
<g id="edge14" class="edge">
<title>Node13&#45;&gt;Node24</title>
<path fill="none" stroke="midnightblue" d="M358.16,-1032.07C380.71,-1039.48 408.66,-1048.25 434,-1055 445.39,-1058.03 457.7,-1060.93 469.39,-1063.52"/>
<polygon fill="midnightblue" stroke="midnightblue" points="468.96,-1067 479.47,-1065.7 470.44,-1060.16 468.96,-1067"/>
</g>
<!-- Node31 -->
<g id="node15" class="node">
<title>Node31</title>
<g id="a_node15"><a xlink:href="spend_8cpp.html#a9e6b5239975f542c3b1ef3d8a89c59c1" target="_top" xlink:title="Create a new transaction paying the recipients with a set of coins selected by SelectCoins(); Also cr...">
<polygon fill="white" stroke="red" points="649,-921.5 649,-940.5 753,-940.5 753,-921.5 649,-921.5"/>
<text text-anchor="middle" x="701" y="-928.5" font-family="Helvetica,sans-Serif" font-size="10.00">CreateTransaction</text>
</a>
</g>
</g>
<!-- Node13&#45;&gt;Node31 -->
<g id="edge17" class="edge">
<title>Node13&#45;&gt;Node31</title>
<path fill="none" stroke="midnightblue" d="M381.68,-1001.92C457.41,-985.05 578.51,-958.07 647.45,-942.71"/>
<polygon fill="midnightblue" stroke="midnightblue" points="648.23,-946.12 657.23,-940.53 646.71,-939.29 648.23,-946.12"/>
</g>
<!-- Node258 -->
<g id="node18" class="node">
<title>Node258</title>
<g id="a_node18"><a xlink:href="feebumper_8cpp.html#a74441ce74b95d25a0475b0d5b9e40dba" target="_top" xlink:title=" ">
<polygon fill="white" stroke="red" points="472.5,-912.5 472.5,-931.5 572.5,-931.5 572.5,-912.5 472.5,-912.5"/>
<text text-anchor="middle" x="522.5" y="-919.5" font-family="Helvetica,sans-Serif" font-size="10.00">EstimateFeeRate</text>
</a>
</g>
</g>
<!-- Node13&#45;&gt;Node258 -->
<g id="edge20" class="edge">
<title>Node13&#45;&gt;Node258</title>
<path fill="none" stroke="midnightblue" d="M335.62,-1001.8C358.96,-985.97 397.67,-961.4 434,-946 444.66,-941.48 456.4,-937.58 467.74,-934.31"/>
<polygon fill="midnightblue" stroke="midnightblue" points="468.84,-937.64 477.55,-931.61 466.98,-930.89 468.84,-937.64"/>
</g>
<!-- Node259 -->
<g id="node19" class="node">
<title>Node259</title>
<g id="a_node19"><a xlink:href="standard_8cpp.html#a951f7e601746ae076afdf3169ecca2fc" target="_top" xlink:title="Parse a standard scriptPubKey for the destination address.">
<polygon fill="white" stroke="red" points="469,-874.5 469,-893.5 576,-893.5 576,-874.5 469,-874.5"/>
<text text-anchor="middle" x="522.5" y="-881.5" font-family="Helvetica,sans-Serif" font-size="10.00">ExtractDestination</text>
</a>
</g>
</g>
<!-- Node13&#45;&gt;Node259 -->
<g id="edge21" class="edge">
<title>Node13&#45;&gt;Node259</title>
<path fill="none" stroke="midnightblue" d="M325.41,-1001.7C344.82,-976.85 386.76,-928 434,-903 441.79,-898.88 450.41,-895.65 459.13,-893.12"/>
<polygon fill="midnightblue" stroke="midnightblue" points="460.17,-896.47 468.96,-890.56 458.4,-889.7 460.17,-896.47"/>
</g>
<!-- Node263 -->
<g id="node20" class="node">
<title>Node263</title>
<g id="a_node20"><a xlink:href="receive_8cpp.html#ab1bf45feaa20447cf31dbe6d222d44f3" target="_top" xlink:title=" ">
<polygon fill="white" stroke="red" points="475,-836.5 475,-855.5 570,-855.5 570,-836.5 475,-836.5"/>
<text text-anchor="middle" x="522.5" y="-843.5" font-family="Helvetica,sans-Serif" font-size="10.00">OutputIsChange</text>
</a>
</g>
</g>
<!-- Node13&#45;&gt;Node263 -->
<g id="edge22" class="edge">
<title>Node13&#45;&gt;Node263</title>
<path fill="none" stroke="midnightblue" d="M321.47,-1001.62C337.46,-970.46 378.1,-899.9 434,-865 443.29,-859.2 454.09,-855.15 464.87,-852.34"/>
<polygon fill="midnightblue" stroke="midnightblue" points="465.75,-855.72 474.72,-850.08 464.19,-848.9 465.75,-855.72"/>
</g>
<!-- Node265 -->
<g id="node21" class="node">
<title>Node265</title>
<g id="a_node21"><a xlink:href="classprevector.html#af34b1eea43f461465aa29fe7ca67449d" target="_top" xlink:title=" ">
<polygon fill="white" stroke="red" points="462,-1140.5 462,-1159.5 583,-1159.5 583,-1140.5 462,-1140.5"/>
<text text-anchor="middle" x="522.5" y="-1147.5" font-family="Helvetica,sans-Serif" font-size="10.00">prevector::push_back</text>
</a>
</g>
</g>
<!-- Node13&#45;&gt;Node265 -->
<g id="edge24" class="edge">
<title>Node13&#45;&gt;Node265</title>
<path fill="none" stroke="midnightblue" d="M325.41,-1032.3C344.82,-1057.15 386.76,-1106 434,-1131 439.59,-1133.96 445.61,-1136.46 451.79,-1138.57"/>
<polygon fill="midnightblue" stroke="midnightblue" points="451,-1141.98 461.59,-1141.57 453.05,-1135.29 451,-1141.98"/>
</g>
<!-- Node266 -->
<g id="node22" class="node">
<title>Node266</title>
<g id="a_node22"><a xlink:href="class_c_coin_control.html#a7903e85623ba9b21583bd4018d17546c" target="_top" xlink:title=" ">
<polygon fill="white" stroke="black" points="464.5,-1102.5 464.5,-1121.5 580.5,-1121.5 580.5,-1102.5 464.5,-1102.5"/>
<text text-anchor="middle" x="522.5" y="-1109.5" font-family="Helvetica,sans-Serif" font-size="10.00">CCoinControl::Select</text>
</a>
</g>
</g>
<!-- Node13&#45;&gt;Node266 -->
<g id="edge25" class="edge">
<title>Node13&#45;&gt;Node266</title>
<path fill="none" stroke="midnightblue" d="M333.2,-1032.19C355.97,-1049.46 395.67,-1077.28 434,-1093 440.38,-1095.62 447.17,-1097.9 454.05,-1099.88"/>
<polygon fill="midnightblue" stroke="midnightblue" points="453.57,-1103.37 464.14,-1102.57 455.38,-1096.61 453.57,-1103.37"/>
</g>
<!-- Node24&#45;&gt;Node11 -->
<g id="edge16" class="edge">
<title>Node24&#45;&gt;Node11</title>
<path fill="none" stroke="midnightblue" d="M565.82,-1077.2C580.96,-1079.84 597.57,-1084.57 611,-1093 648.73,-1116.7 676.91,-1162.32 690.66,-1188.08"/>
<polygon fill="midnightblue" stroke="midnightblue" points="687.66,-1189.91 695.36,-1197.19 693.89,-1186.7 687.66,-1189.91"/>
</g>
<!-- Node24&#45;&gt;Node14 -->
<g id="edge15" class="edge">
<title>Node24&#45;&gt;Node14</title>
<path fill="none" stroke="midnightblue" d="M565.55,-1065.77C580.03,-1062.7 596.3,-1058.98 611,-1055 628.41,-1050.29 647.45,-1044.21 663.43,-1038.84"/>
<polygon fill="midnightblue" stroke="midnightblue" points="664.61,-1042.14 672.95,-1035.6 662.35,-1035.51 664.61,-1042.14"/>
</g>
<!-- Node31&#45;&gt;Node180 -->
<g id="edge18" class="edge">
<title>Node31&#45;&gt;Node180</title>
<path fill="none" stroke="midnightblue" d="M710.47,-921.35C728.69,-900.6 771.79,-851.51 794.84,-825.26"/>
<polygon fill="midnightblue" stroke="midnightblue" points="797.6,-827.43 801.56,-817.61 792.34,-822.81 797.6,-827.43"/>
</g>
<!-- Node181 -->
<g id="node17" class="node">
<title>Node181</title>
<g id="a_node17"><a xlink:href="namespacetinyformat.html#a05144619d8b16e2b31b2594ca9c6bf1d" target="_top" xlink:title="Format list of arguments to the stream according to given format string.">
<polygon fill="white" stroke="red" points="867,-798.5 867,-817.5 974,-817.5 974,-798.5 867,-798.5"/>
<text text-anchor="middle" x="920.5" y="-805.5" font-family="Helvetica,sans-Serif" font-size="10.00">tinyformat::format</text>
</a>
</g>
</g>
<!-- Node180&#45;&gt;Node181 -->
<g id="edge19" class="edge">
<title>Node180&#45;&gt;Node181</title>
<path fill="none" stroke="midnightblue" d="M831.22,-808C838.58,-808 847.44,-808 856.67,-808"/>
<polygon fill="midnightblue" stroke="midnightblue" points="856.78,-811.5 866.78,-808 856.78,-804.5 856.78,-811.5"/>
</g>
<!-- Node166 -->
<g id="node24" class="node">
<title>Node166</title>
<g id="a_node24"><a xlink:href="class_span.html#aba913ab7ea39559834e64d08ce0ce9c4" target="_top" xlink:title=" ">
<polygon fill="white" stroke="black" points="485.5,-684.5 485.5,-703.5 559.5,-703.5 559.5,-684.5 485.5,-684.5"/>
<text text-anchor="middle" x="522.5" y="-691.5" font-family="Helvetica,sans-Serif" font-size="10.00">Span::begin</text>
</a>
</g>
</g>
<!-- Node267&#45;&gt;Node166 -->
<g id="edge28" class="edge">
<title>Node267&#45;&gt;Node166</title>
<path fill="none" stroke="midnightblue" d="M357.25,-709.04C391.73,-705.88 439.92,-701.47 475.19,-698.24"/>
<polygon fill="midnightblue" stroke="midnightblue" points="475.59,-701.72 485.23,-697.32 474.95,-694.75 475.59,-701.72"/>
</g>
<!-- Node167 -->
<g id="node25" class="node">
<title>Node167</title>
<g id="a_node25"><a xlink:href="class_span.html#acc0c9ba9f8d622e4e3f579350d4c2c0a" target="_top" xlink:title=" ">
<polygon fill="white" stroke="black" points="490,-760.5 490,-779.5 555,-779.5 555,-760.5 490,-760.5"/>
<text text-anchor="middle" x="522.5" y="-767.5" font-family="Helvetica,sans-Serif" font-size="10.00">Span::end</text>
</a>
</g>
</g>
<!-- Node267&#45;&gt;Node167 -->
<g id="edge29" class="edge">
<title>Node267&#45;&gt;Node167</title>
<path fill="none" stroke="midnightblue" d="M348.66,-722.54C372.62,-729.13 405.25,-738.1 434,-746 449.06,-750.14 465.57,-754.67 480.16,-758.67"/>
<polygon fill="midnightblue" stroke="midnightblue" points="479.34,-762.07 489.91,-761.34 481.19,-755.32 479.34,-762.07"/>
</g>
<!-- Node77 -->
<g id="node26" class="node">
<title>Node77</title>
<g id="a_node26"><a xlink:href="class_span.html#a14c28485a34145fb36bb08135ac6cf8f" target="_top" xlink:title=" ">
<polygon fill="white" stroke="black" points="668,-684.5 668,-703.5 734,-703.5 734,-684.5 668,-684.5"/>
<text text-anchor="middle" x="701" y="-691.5" font-family="Helvetica,sans-Serif" font-size="10.00">Span::size</text>
</a>
</g>
</g>
<!-- Node267&#45;&gt;Node77 -->
<g id="edge30" class="edge">
<title>Node267&#45;&gt;Node77</title>
<path fill="none" stroke="midnightblue" d="M357.43,-715.84C415.43,-718.99 521.26,-722.47 611,-713 626.45,-711.37 643.16,-708.19 657.88,-704.89"/>
<polygon fill="midnightblue" stroke="midnightblue" points="658.77,-708.28 667.71,-702.6 657.18,-701.46 658.77,-708.28"/>
</g>
<!-- Node268&#45;&gt;Node269 -->
<g id="edge32" class="edge">
<title>Node268&#45;&gt;Node269</title>
<path fill="none" stroke="midnightblue" d="M380.16,-279C442.44,-284.02 536.95,-297.39 611,-333 640.58,-347.23 668.28,-373.77 684.68,-391.41"/>
<polygon fill="midnightblue" stroke="midnightblue" points="682.48,-394.2 691.78,-399.27 687.67,-389.5 682.48,-394.2"/>
</g>
<!-- Node269&#45;&gt;Node180 -->
<g id="edge33" class="edge">
<title>Node269&#45;&gt;Node180</title>
<path fill="none" stroke="midnightblue" d="M704.67,-418.86C718.85,-471.26 785.45,-717.3 804.75,-788.6"/>
<polygon fill="midnightblue" stroke="midnightblue" points="801.43,-789.74 807.42,-798.48 808.19,-787.91 801.43,-789.74"/>
</g>
<!-- Node271 -->
<g id="node30" class="node">
<title>Node271</title>
<g id="a_node30"><a xlink:href="class_uni_value.html#a85f3a2f520375b464fb506b2ede5c3df" target="_top" xlink:title=" ">
<polygon fill="white" stroke="black" points="471.5,-342.5 471.5,-361.5 573.5,-361.5 573.5,-342.5 471.5,-342.5"/>
<text text-anchor="middle" x="522.5" y="-349.5" font-family="Helvetica,sans-Serif" font-size="10.00">UniValue::findKey</text>
</a>
</g>
</g>
<!-- Node270&#45;&gt;Node271 -->
<g id="edge36" class="edge">
<title>Node270&#45;&gt;Node271</title>
<path fill="none" stroke="midnightblue" d="M360.86,-421.88C373.39,-419.06 386.61,-414.96 398,-409 417.23,-398.93 415,-386.5 434,-376 442.49,-371.31 451.97,-367.48 461.45,-364.38"/>
<polygon fill="midnightblue" stroke="midnightblue" points="462.75,-367.65 471.31,-361.4 460.72,-360.95 462.75,-367.65"/>
</g>
<!-- Node273 -->
<g id="node32" class="node">
<title>Node273</title>
<g id="a_node32"><a xlink:href="util_2fees_8cpp.html#a2adc35cc7fe0bbdacb691bb6c7e41e91" target="_top" xlink:title=" ">
<polygon fill="white" stroke="black" points="481.5,-608.5 481.5,-627.5 563.5,-627.5 563.5,-608.5 481.5,-608.5"/>
<text text-anchor="middle" x="522.5" y="-615.5" font-family="Helvetica,sans-Serif" font-size="10.00">FeeModeMap</text>
</a>
</g>
</g>
<!-- Node272&#45;&gt;Node273 -->
<g id="edge38" class="edge">
<title>Node272&#45;&gt;Node273</title>
<path fill="none" stroke="midnightblue" d="M346.42,-618C379.9,-618 432.6,-618 471.44,-618"/>
<polygon fill="midnightblue" stroke="midnightblue" points="471.49,-621.5 481.49,-618 471.49,-614.5 471.49,-621.5"/>
</g>
<!-- Node274 -->
<g id="node33" class="node">
<title>Node274</title>
<g id="a_node33"><a xlink:href="string_8h.html#a2d2fed244106143037218040e400b8ee" target="_top" xlink:title="Join a list of items.">
<polygon fill="white" stroke="black" points="505,-570.5 505,-589.5 540,-589.5 540,-570.5 505,-570.5"/>
<text text-anchor="middle" x="522.5" y="-577.5" font-family="Helvetica,sans-Serif" font-size="10.00">Join</text>
</a>
</g>
</g>
<!-- Node272&#45;&gt;Node274 -->
<g id="edge39" class="edge">
<title>Node272&#45;&gt;Node274</title>
<path fill="none" stroke="midnightblue" d="M346.42,-612.06C387.19,-604.6 456.45,-591.91 494.49,-584.95"/>
<polygon fill="midnightblue" stroke="midnightblue" points="495.58,-588.31 504.78,-583.06 494.32,-581.42 495.58,-588.31"/>
</g>
<!-- Node193 -->
<g id="node35" class="node">
<title>Node193</title>
<g id="a_node35"><a xlink:href="class_uni_value.html#acb5c848d20cb741dbe65e28bc513baa8" target="_top" xlink:title=" ">
<polygon fill="white" stroke="red" points="470.5,-532.5 470.5,-551.5 574.5,-551.5 574.5,-532.5 470.5,-532.5"/>
<text text-anchor="middle" x="522.5" y="-539.5" font-family="Helvetica,sans-Serif" font-size="10.00">UniValue::getBool</text>
</a>
</g>
</g>
<!-- Node192&#45;&gt;Node193 -->
<g id="edge41" class="edge">
<title>Node192&#45;&gt;Node193</title>
<path fill="none" stroke="midnightblue" d="M366.09,-570.46C394.78,-565.21 430.55,-558.66 460.53,-553.16"/>
<polygon fill="midnightblue" stroke="midnightblue" points="461.26,-556.59 470.46,-551.35 460,-549.71 461.26,-556.59"/>
</g>
<!-- Node276 -->
<g id="node37" class="node">
<title>Node276</title>
<g id="a_node37"><a xlink:href="strencodings_8cpp.html#a16ace928e6a675ba31e23458c9149432" target="_top" xlink:title="Convert a span of bytes to a lower&#45;case hexadecimal string.">
<polygon fill="white" stroke="red" points="497.5,-646.5 497.5,-665.5 547.5,-665.5 547.5,-646.5 497.5,-646.5"/>
<text text-anchor="middle" x="522.5" y="-653.5" font-family="Helvetica,sans-Serif" font-size="10.00">HexStr</text>
</a>
</g>
</g>
<!-- Node275&#45;&gt;Node276 -->
<g id="edge43" class="edge">
<title>Node275&#45;&gt;Node276</title>
<path fill="none" stroke="midnightblue" d="M367.71,-656C405.36,-656 454.57,-656 487.07,-656"/>
<polygon fill="midnightblue" stroke="midnightblue" points="487.41,-659.5 497.41,-656 487.41,-652.5 487.41,-659.5"/>
</g>
<!-- Node276&#45;&gt;Node77 -->
<g id="edge44" class="edge">
<title>Node276&#45;&gt;Node77</title>
<path fill="none" stroke="midnightblue" d="M547.67,-661.2C576.03,-667.31 623.54,-677.54 657.97,-684.95"/>
<polygon fill="midnightblue" stroke="midnightblue" points="657.24,-688.37 667.75,-687.06 658.71,-681.53 657.24,-688.37"/>
</g>
<!-- Node277&#45;&gt;Node269 -->
<g id="edge48" class="edge">
<title>Node277&#45;&gt;Node269</title>
<path fill="none" stroke="midnightblue" d="M386.77,-494.48C447.55,-485.47 536.06,-469.9 611,-447 631.82,-440.64 654.36,-430.98 671.55,-423"/>
<polygon fill="midnightblue" stroke="midnightblue" points="673.46,-425.97 681,-418.52 670.46,-419.64 673.46,-425.97"/>
</g>
<!-- Node278 -->
<g id="node39" class="node">
<title>Node278</title>
<g id="a_node39"><a xlink:href="rpcwallet_8cpp.html#adfcbdc968355be9c0ea292e1ad2239df" target="_top" xlink:title=" ">
<polygon fill="white" stroke="black" points="463,-418.5 463,-437.5 582,-437.5 582,-418.5 463,-418.5"/>
<text text-anchor="middle" x="522.5" y="-425.5" font-family="Helvetica,sans-Serif" font-size="10.00">EnsureWalletContext</text>
</a>
</g>
</g>
<!-- Node277&#45;&gt;Node278 -->
<g id="edge46" class="edge">
<title>Node277&#45;&gt;Node278</title>
<path fill="none" stroke="midnightblue" d="M374.12,-494.44C382.39,-491.98 390.58,-488.88 398,-485 417.23,-474.93 415,-462.5 434,-452 442.39,-447.36 451.74,-443.57 461.11,-440.49"/>
<polygon fill="midnightblue" stroke="midnightblue" points="462.3,-443.79 470.85,-437.53 460.26,-437.09 462.3,-443.79"/>
</g>
<!-- Node278&#45;&gt;Node269 -->
<g id="edge47" class="edge">
<title>Node278&#45;&gt;Node269</title>
<path fill="none" stroke="midnightblue" d="M582.27,-421.67C603.99,-419.34 628.4,-416.71 649.33,-414.45"/>
<polygon fill="midnightblue" stroke="midnightblue" points="649.74,-417.93 659.31,-413.38 648.99,-410.97 649.74,-417.93"/>
</g>
<!-- Node283&#45;&gt;Node269 -->
<g id="edge52" class="edge">
<title>Node283&#45;&gt;Node269</title>
<path fill="none" stroke="midnightblue" d="M350.04,-535.59C423.9,-522.3 587.53,-492.09 611,-481 639.72,-467.43 667.28,-442.74 683.92,-426.1"/>
<polygon fill="midnightblue" stroke="midnightblue" points="686.7,-428.27 691.17,-418.66 681.69,-423.38 686.7,-428.27"/>
</g>
<!-- Node291&#45;&gt;Node271 -->
<g id="edge55" class="edge">
<title>Node291&#45;&gt;Node271</title>
<path fill="none" stroke="midnightblue" d="M364.76,-352C393.86,-352 430.57,-352 461.15,-352"/>
<polygon fill="midnightblue" stroke="midnightblue" points="461.26,-355.5 471.26,-352 461.26,-348.5 461.26,-355.5"/>
</g>
<!-- Node299&#45;&gt;Node269 -->
<g id="edge58" class="edge">
<title>Node299&#45;&gt;Node269</title>
<path fill="none" stroke="midnightblue" d="M365.54,-459.37C376.71,-456.58 388.12,-452.62 398,-447 418.22,-435.49 412.63,-418.19 434,-409 503.89,-378.94 593.99,-387.57 649.34,-397.54"/>
<polygon fill="midnightblue" stroke="midnightblue" points="648.78,-401 659.26,-399.41 650.08,-394.12 648.78,-401"/>
</g>
<!-- Node302&#45;&gt;Node269 -->
<g id="edge60" class="edge">
<title>Node302&#45;&gt;Node269</title>
<path fill="none" stroke="midnightblue" d="M357.18,-152.47C419.69,-141.3 536.08,-130.7 611,-186 678.26,-235.64 694.76,-344.36 698.75,-389.13"/>
<polygon fill="midnightblue" stroke="midnightblue" points="695.27,-389.58 699.53,-399.29 702.25,-389.05 695.27,-389.58"/>
</g>
</g>
</svg>
