<?xml version="1.0" encoding="UTF-8" standalone="no"?>
<!DOCTYPE svg PUBLIC "-//W3C//DTD SVG 1.1//EN"
 "http://www.w3.org/Graphics/SVG/1.1/DTD/svg11.dtd">
<!-- Generated by graphviz version 2.49.3 (0)
 -->
<!-- Title: upgradewallet Pages: 1 -->
<svg width="1772pt" height="427pt"
 viewBox="0.00 0.00 1772.00 427.28" xmlns="http://www.w3.org/2000/svg" xmlns:xlink="http://www.w3.org/1999/xlink">
<g id="graph0" class="graph" transform="scale(1 1) rotate(0) translate(4 423.28)">
<title>upgradewallet</title>
<polygon fill="white" stroke="transparent" points="-4,4 -4,-423.28 1768,-423.28 1768,4 -4,4"/>
<!-- Node1 -->
<g id="node1" class="node">
<title>Node1</title>
<g id="a_node1"><a xlink:title=" ">
<polygon fill="#bfbfbf" stroke="black" points="0,-190.5 0,-209.5 86,-209.5 86,-190.5 0,-190.5"/>
<text text-anchor="middle" x="43" y="-197.5" font-family="Helvetica,sans-Serif" font-size="10.00">upgradewallet</text>
</a>
</g>
</g>
<!-- Node2 -->
<g id="node2" class="node">
<title>Node2</title>
<g id="a_node2"><a xlink:href="rpcwallet_8cpp.html#a6272e8ec945c32ab0d3e27cb0eab078b" target="_top" xlink:title=" ">
<polygon fill="white" stroke="black" points="136.5,-228.5 136.5,-247.5 270.5,-247.5 270.5,-228.5 136.5,-228.5"/>
<text text-anchor="middle" x="203.5" y="-235.5" font-family="Helvetica,sans-Serif" font-size="10.00">EnsureWalletIsUnlocked</text>
</a>
</g>
</g>
<!-- Node1&#45;&gt;Node2 -->
<g id="edge1" class="edge">
<title>Node1&#45;&gt;Node2</title>
<path fill="none" stroke="midnightblue" d="M82.87,-209.53C95.36,-212.57 109.26,-215.94 122,-219 131.74,-221.34 142.15,-223.81 152.14,-226.17"/>
<polygon fill="midnightblue" stroke="midnightblue" points="151.41,-229.6 161.95,-228.49 153.02,-222.78 151.41,-229.6"/>
</g>
<!-- Node4 -->
<g id="node4" class="node">
<title>Node4</title>
<g id="a_node4"><a xlink:href="system_8h.html#a96c5fc7111f69f7dcaba992d95d13e03" target="_top" xlink:title=" ">
<polygon fill="white" stroke="black" points="715,-342.5 715,-361.5 755,-361.5 755,-342.5 715,-342.5"/>
<text text-anchor="middle" x="735" y="-349.5" font-family="Helvetica,sans-Serif" font-size="10.00">error</text>
</a>
</g>
</g>
<!-- Node1&#45;&gt;Node4 -->
<g id="edge15" class="edge">
<title>Node1&#45;&gt;Node4</title>
<path fill="none" stroke="midnightblue" d="M48.33,-209.5C58.45,-230.77 85.57,-282.81 122,-314 196.45,-377.74 225.41,-387.35 321,-409 463.35,-441.24 637.69,-387.32 705.31,-362.98"/>
<polygon fill="midnightblue" stroke="midnightblue" points="706.67,-366.2 714.86,-359.48 704.26,-359.63 706.67,-366.2"/>
</g>
<!-- Node15 -->
<g id="node15" class="node">
<title>Node15</title>
<g id="a_node15"><a xlink:href="rpcwallet_8cpp.html#a40a4438a7a21fe2b62f41ca59c87c52a" target="_top" xlink:title="Figures out what wallet, if any, to use for a JSONRPCRequest.">
<polygon fill="white" stroke="black" points="122,-285.5 122,-304.5 285,-304.5 285,-285.5 122,-285.5"/>
<text text-anchor="middle" x="203.5" y="-292.5" font-family="Helvetica,sans-Serif" font-size="10.00">GetWalletForJSONRPCRequest</text>
</a>
</g>
</g>
<!-- Node1&#45;&gt;Node15 -->
<g id="edge16" class="edge">
<title>Node1&#45;&gt;Node15</title>
<path fill="none" stroke="midnightblue" d="M55.67,-209.62C70.51,-221.6 97.2,-242.27 122,-257 137.26,-266.07 155.03,-274.64 169.98,-281.35"/>
<polygon fill="midnightblue" stroke="midnightblue" points="168.79,-284.65 179.35,-285.47 171.61,-278.24 168.79,-284.65"/>
</g>
<!-- Node20 -->
<g id="node20" class="node">
<title>Node20</title>
<g id="a_node20"><a xlink:href="rpc_2util_8cpp.html#a26bafe3d526ee8cbc84b3c0b0dc3a43b" target="_top" xlink:title=" ">
<polygon fill="white" stroke="black" points="156,-190.5 156,-209.5 251,-209.5 251,-190.5 156,-190.5"/>
<text text-anchor="middle" x="203.5" y="-197.5" font-family="Helvetica,sans-Serif" font-size="10.00">HelpExampleCli</text>
</a>
</g>
</g>
<!-- Node1&#45;&gt;Node20 -->
<g id="edge23" class="edge">
<title>Node1&#45;&gt;Node20</title>
<path fill="none" stroke="midnightblue" d="M86.06,-200C104.33,-200 126.02,-200 145.7,-200"/>
<polygon fill="midnightblue" stroke="midnightblue" points="145.77,-203.5 155.77,-200 145.77,-196.5 145.77,-203.5"/>
</g>
<!-- Node21 -->
<g id="node21" class="node">
<title>Node21</title>
<g id="a_node21"><a xlink:href="rpc_2util_8cpp.html#a9ef4f8fb114508ceb861a0e8c3e0d26e" target="_top" xlink:title=" ">
<polygon fill="white" stroke="black" points="153.5,-152.5 153.5,-171.5 253.5,-171.5 253.5,-152.5 153.5,-152.5"/>
<text text-anchor="middle" x="203.5" y="-159.5" font-family="Helvetica,sans-Serif" font-size="10.00">HelpExampleRpc</text>
</a>
</g>
</g>
<!-- Node1&#45;&gt;Node21 -->
<g id="edge24" class="edge">
<title>Node1&#45;&gt;Node21</title>
<path fill="none" stroke="midnightblue" d="M82.87,-190.47C95.36,-187.43 109.26,-184.06 122,-181 131.74,-178.66 142.15,-176.19 152.14,-173.83"/>
<polygon fill="midnightblue" stroke="midnightblue" points="153.02,-177.22 161.95,-171.51 151.41,-170.4 153.02,-177.22"/>
</g>
<!-- Node22 -->
<g id="node22" class="node">
<title>Node22</title>
<g id="a_node22"><a xlink:href="class_uni_value.html#abab649c2dbd593233de6364254456026" target="_top" xlink:title=" ">
<polygon fill="white" stroke="black" points="152,-114.5 152,-133.5 255,-133.5 255,-114.5 152,-114.5"/>
<text text-anchor="middle" x="203.5" y="-121.5" font-family="Helvetica,sans-Serif" font-size="10.00">UniValue::pushKV</text>
</a>
</g>
</g>
<!-- Node1&#45;&gt;Node22 -->
<g id="edge25" class="edge">
<title>Node1&#45;&gt;Node22</title>
<path fill="none" stroke="midnightblue" d="M54.24,-190.4C68.37,-177.66 95.19,-155.34 122,-143 128.22,-140.14 134.92,-137.68 141.7,-135.58"/>
<polygon fill="midnightblue" stroke="midnightblue" points="142.99,-138.85 151.65,-132.75 141.07,-132.12 142.99,-138.85"/>
</g>
<!-- Node25 -->
<g id="node25" class="node">
<title>Node25</title>
<g id="a_node25"><a xlink:href="rpc_2util_8cpp.html#a1d3e3ccc5d3ba3ee1314be41a2039e0f" target="_top" xlink:title="Type&#45;check arguments; throws JSONRPCError if wrong type given.">
<polygon fill="white" stroke="black" points="159,-57.5 159,-76.5 248,-76.5 248,-57.5 159,-57.5"/>
<text text-anchor="middle" x="203.5" y="-64.5" font-family="Helvetica,sans-Serif" font-size="10.00">RPCTypeCheck</text>
</a>
</g>
</g>
<!-- Node1&#45;&gt;Node25 -->
<g id="edge28" class="edge">
<title>Node1&#45;&gt;Node25</title>
<path fill="none" stroke="midnightblue" d="M49.76,-190.46C61.39,-171.89 89.35,-130.45 122,-105 134.87,-94.96 150.83,-86.74 165.13,-80.54"/>
<polygon fill="midnightblue" stroke="midnightblue" points="166.81,-83.64 174.71,-76.58 164.13,-77.17 166.81,-83.64"/>
</g>
<!-- Node3 -->
<g id="node3" class="node">
<title>Node3</title>
<g id="a_node3"><a xlink:href="request_8cpp.html#a40b75d3d265c4a2e1d5fe3e129743884" target="_top" xlink:title=" ">
<polygon fill="white" stroke="black" points="561.5,-266.5 561.5,-285.5 644.5,-285.5 644.5,-266.5 561.5,-266.5"/>
<text text-anchor="middle" x="603" y="-273.5" font-family="Helvetica,sans-Serif" font-size="10.00">JSONRPCError</text>
</a>
</g>
</g>
<!-- Node2&#45;&gt;Node3 -->
<g id="edge2" class="edge">
<title>Node2&#45;&gt;Node3</title>
<path fill="none" stroke="midnightblue" d="M251.9,-228.49C272.96,-224.72 298.12,-220.85 321,-219 410.48,-211.75 437.57,-191.4 523,-219 547.44,-226.9 570.69,-245.49 585.55,-259.3"/>
<polygon fill="midnightblue" stroke="midnightblue" points="583.28,-261.97 592.91,-266.39 588.13,-256.93 583.28,-261.97"/>
</g>
<!-- Node3&#45;&gt;Node4 -->
<g id="edge3" class="edge">
<title>Node3&#45;&gt;Node4</title>
<path fill="none" stroke="midnightblue" d="M620.46,-285.63C642.74,-298.65 682.67,-321.99 708.75,-337.24"/>
<polygon fill="midnightblue" stroke="midnightblue" points="707.27,-340.43 717.67,-342.45 710.8,-334.38 707.27,-340.43"/>
</g>
<!-- Node5 -->
<g id="node5" class="node">
<title>Node5</title>
<g id="a_node5"><a xlink:href="namespacetinyformat.html#a05144619d8b16e2b31b2594ca9c6bf1d" target="_top" xlink:title="Format list of arguments to the stream according to given format string.">
<polygon fill="white" stroke="black" points="823,-342.5 823,-361.5 930,-361.5 930,-342.5 823,-342.5"/>
<text text-anchor="middle" x="876.5" y="-349.5" font-family="Helvetica,sans-Serif" font-size="10.00">tinyformat::format</text>
</a>
</g>
</g>
<!-- Node4&#45;&gt;Node5 -->
<g id="edge4" class="edge">
<title>Node4&#45;&gt;Node5</title>
<path fill="none" stroke="midnightblue" d="M755.1,-352C770.05,-352 791.71,-352 812.56,-352"/>
<polygon fill="midnightblue" stroke="midnightblue" points="812.7,-355.5 822.7,-352 812.7,-348.5 812.7,-355.5"/>
</g>
<!-- Node6 -->
<g id="node6" class="node">
<title>Node6</title>
<g id="a_node6"><a xlink:href="namespacetinyformat.html#aa0e1f6113d2c7d019aac703672a650bd" target="_top" xlink:title="Make type&#45;agnostic format list from list of template arguments.">
<polygon fill="white" stroke="black" points="966,-361.5 966,-380.5 1119,-380.5 1119,-361.5 966,-361.5"/>
<text text-anchor="middle" x="1042.5" y="-368.5" font-family="Helvetica,sans-Serif" font-size="10.00">tinyformat::makeFormatList</text>
</a>
</g>
</g>
<!-- Node5&#45;&gt;Node6 -->
<g id="edge5" class="edge">
<title>Node5&#45;&gt;Node6</title>
<path fill="none" stroke="midnightblue" d="M930.29,-358.12C938.44,-359.06 947.02,-360.05 955.67,-361.06"/>
<polygon fill="midnightblue" stroke="midnightblue" points="955.48,-364.56 965.81,-362.23 956.28,-357.6 955.48,-364.56"/>
</g>
<!-- Node7 -->
<g id="node7" class="node">
<title>Node7</title>
<g id="a_node7"><a xlink:href="namespacetinyformat.html#a86ed74eb3ed66a662e96220d877da964" target="_top" xlink:title="Format list of arguments to the stream according to the given format string.">
<polygon fill="white" stroke="black" points="986,-323.5 986,-342.5 1099,-342.5 1099,-323.5 986,-323.5"/>
<text text-anchor="middle" x="1042.5" y="-330.5" font-family="Helvetica,sans-Serif" font-size="10.00">tinyformat::vformat</text>
</a>
</g>
</g>
<!-- Node5&#45;&gt;Node7 -->
<g id="edge6" class="edge">
<title>Node5&#45;&gt;Node7</title>
<path fill="none" stroke="midnightblue" d="M930.29,-345.88C944.75,-344.21 960.6,-342.37 975.68,-340.63"/>
<polygon fill="midnightblue" stroke="midnightblue" points="976.45,-344.06 985.98,-339.43 975.64,-337.11 976.45,-344.06"/>
</g>
<!-- Node8 -->
<g id="node8" class="node">
<title>Node8</title>
<g id="a_node8"><a xlink:href="namespacetinyformat_1_1detail.html#a9fe547bc617c38498e58c12cce507bec" target="_top" xlink:title=" ">
<polygon fill="white" stroke="black" points="1155,-318 1155,-348 1257,-348 1257,-318 1155,-318"/>
<text text-anchor="start" x="1163" y="-336" font-family="Helvetica,sans-Serif" font-size="10.00">tinyformat::detail</text>
<text text-anchor="middle" x="1206" y="-325" font-family="Helvetica,sans-Serif" font-size="10.00">::formatImpl</text>
</a>
</g>
</g>
<!-- Node7&#45;&gt;Node8 -->
<g id="edge7" class="edge">
<title>Node7&#45;&gt;Node8</title>
<path fill="none" stroke="midnightblue" d="M1099.08,-333C1113.76,-333 1129.67,-333 1144.59,-333"/>
<polygon fill="midnightblue" stroke="midnightblue" points="1144.73,-336.5 1154.73,-333 1144.73,-329.5 1144.73,-336.5"/>
</g>
<!-- Node9 -->
<g id="node9" class="node">
<title>Node9</title>
<g id="a_node9"><a xlink:href="classtinyformat_1_1detail_1_1_format_arg.html#acbf435711bbe4a4da7fc81758d7108a9" target="_top" xlink:title=" ">
<polygon fill="white" stroke="black" points="1307.5,-367 1307.5,-397 1420.5,-397 1420.5,-367 1307.5,-367"/>
<text text-anchor="start" x="1315.5" y="-385" font-family="Helvetica,sans-Serif" font-size="10.00">tinyformat::detail</text>
<text text-anchor="middle" x="1364" y="-374" font-family="Helvetica,sans-Serif" font-size="10.00">::FormatArg::format</text>
</a>
</g>
</g>
<!-- Node8&#45;&gt;Node9 -->
<g id="edge8" class="edge">
<title>Node8&#45;&gt;Node9</title>
<path fill="none" stroke="midnightblue" d="M1255.08,-348.1C1271.02,-353.11 1288.92,-358.73 1305.5,-363.94"/>
<polygon fill="midnightblue" stroke="midnightblue" points="1304.49,-367.29 1315.08,-366.95 1306.59,-360.61 1304.49,-367.29"/>
</g>
<!-- Node10 -->
<g id="node10" class="node">
<title>Node10</title>
<g id="a_node10"><a xlink:href="namespacetinyformat_1_1detail.html#a3eb54527d28d7124a6f9fa4c1d57deed" target="_top" xlink:title=" ">
<polygon fill="white" stroke="black" points="1294.5,-318 1294.5,-348 1433.5,-348 1433.5,-318 1294.5,-318"/>
<text text-anchor="start" x="1302.5" y="-336" font-family="Helvetica,sans-Serif" font-size="10.00">tinyformat::detail</text>
<text text-anchor="middle" x="1364" y="-325" font-family="Helvetica,sans-Serif" font-size="10.00">::printFormatStringLiteral</text>
</a>
</g>
</g>
<!-- Node8&#45;&gt;Node10 -->
<g id="edge9" class="edge">
<title>Node8&#45;&gt;Node10</title>
<path fill="none" stroke="midnightblue" d="M1257.22,-333C1265.92,-333 1275.15,-333 1284.39,-333"/>
<polygon fill="midnightblue" stroke="midnightblue" points="1284.4,-336.5 1294.4,-333 1284.4,-329.5 1284.4,-336.5"/>
</g>
<!-- Node11 -->
<g id="node11" class="node">
<title>Node11</title>
<g id="a_node11"><a xlink:href="namespacetinyformat_1_1detail.html#abbdd8c3b545f996b866bd22cf6aa444c" target="_top" xlink:title=" ">
<polygon fill="white" stroke="black" points="1293,-269 1293,-299 1435,-299 1435,-269 1293,-269"/>
<text text-anchor="start" x="1301" y="-287" font-family="Helvetica,sans-Serif" font-size="10.00">tinyformat::detail</text>
<text text-anchor="middle" x="1364" y="-276" font-family="Helvetica,sans-Serif" font-size="10.00">::streamStateFromFormat</text>
</a>
</g>
</g>
<!-- Node8&#45;&gt;Node11 -->
<g id="edge10" class="edge">
<title>Node8&#45;&gt;Node11</title>
<path fill="none" stroke="midnightblue" d="M1255.08,-317.9C1271.02,-312.89 1288.92,-307.27 1305.5,-302.06"/>
<polygon fill="midnightblue" stroke="midnightblue" points="1306.59,-305.39 1315.08,-299.05 1304.49,-298.71 1306.59,-305.39"/>
</g>
<!-- Node12 -->
<g id="node12" class="node">
<title>Node12</title>
<g id="a_node12"><a xlink:href="namespacetinyformat_1_1detail.html#a67285e0adb9f4164f9fc30a3eb11c771" target="_top" xlink:title=" ">
<polygon fill="white" stroke="black" points="1641,-291 1641,-321 1764,-321 1764,-291 1641,-291"/>
<text text-anchor="start" x="1649" y="-309" font-family="Helvetica,sans-Serif" font-size="10.00">tinyformat::detail</text>
<text text-anchor="middle" x="1702.5" y="-298" font-family="Helvetica,sans-Serif" font-size="10.00">::parseIntAndAdvance</text>
</a>
</g>
</g>
<!-- Node11&#45;&gt;Node12 -->
<g id="edge11" class="edge">
<title>Node11&#45;&gt;Node12</title>
<path fill="none" stroke="midnightblue" d="M1435.13,-288.59C1492.46,-292.33 1573.15,-297.61 1630.67,-301.37"/>
<polygon fill="midnightblue" stroke="midnightblue" points="1630.56,-304.87 1640.77,-302.03 1631.01,-297.88 1630.56,-304.87"/>
</g>
<!-- Node13 -->
<g id="node13" class="node">
<title>Node13</title>
<g id="a_node13"><a xlink:href="namespacetinyformat_1_1detail.html#ae1e94cbdd9e7cf26f17856a1792664e1" target="_top" xlink:title=" ">
<polygon fill="white" stroke="black" points="1471,-247 1471,-277 1605,-277 1605,-247 1471,-247"/>
<text text-anchor="start" x="1479" y="-265" font-family="Helvetica,sans-Serif" font-size="10.00">tinyformat::detail</text>
<text text-anchor="middle" x="1538" y="-254" font-family="Helvetica,sans-Serif" font-size="10.00">::parseWidthOrPrecision</text>
</a>
</g>
</g>
<!-- Node11&#45;&gt;Node13 -->
<g id="edge12" class="edge">
<title>Node11&#45;&gt;Node13</title>
<path fill="none" stroke="midnightblue" d="M1435.46,-274.99C1443.77,-273.93 1452.28,-272.84 1460.66,-271.76"/>
<polygon fill="midnightblue" stroke="midnightblue" points="1461.33,-275.21 1470.81,-270.47 1460.45,-268.26 1461.33,-275.21"/>
</g>
<!-- Node13&#45;&gt;Node12 -->
<g id="edge13" class="edge">
<title>Node13&#45;&gt;Node12</title>
<path fill="none" stroke="midnightblue" d="M1594.47,-277.02C1607.86,-280.65 1622.29,-284.55 1636.09,-288.29"/>
<polygon fill="midnightblue" stroke="midnightblue" points="1635.44,-291.74 1646.01,-290.97 1637.27,-284.98 1635.44,-291.74"/>
</g>
<!-- Node14 -->
<g id="node14" class="node">
<title>Node14</title>
<g id="a_node14"><a xlink:href="classtinyformat_1_1detail_1_1_format_arg.html#a91b69f66ce9dc8ca2914dce8985d7a1a" target="_top" xlink:title=" ">
<polygon fill="white" stroke="black" points="1651.5,-242 1651.5,-272 1753.5,-272 1753.5,-242 1651.5,-242"/>
<text text-anchor="start" x="1659.5" y="-260" font-family="Helvetica,sans-Serif" font-size="10.00">tinyformat::detail</text>
<text text-anchor="middle" x="1702.5" y="-249" font-family="Helvetica,sans-Serif" font-size="10.00">::FormatArg::toInt</text>
</a>
</g>
</g>
<!-- Node13&#45;&gt;Node14 -->
<g id="edge14" class="edge">
<title>Node13&#45;&gt;Node14</title>
<path fill="none" stroke="midnightblue" d="M1605.09,-259.97C1617.06,-259.6 1629.47,-259.22 1641.25,-258.85"/>
<polygon fill="midnightblue" stroke="midnightblue" points="1641.53,-262.35 1651.42,-258.54 1641.32,-255.35 1641.53,-262.35"/>
</g>
<!-- Node15&#45;&gt;Node3 -->
<g id="edge22" class="edge">
<title>Node15&#45;&gt;Node3</title>
<path fill="none" stroke="midnightblue" d="M285.42,-291.13C364.93,-287.33 483.81,-281.65 550.99,-278.44"/>
<polygon fill="midnightblue" stroke="midnightblue" points="551.49,-281.92 561.31,-277.94 551.15,-274.93 551.49,-281.92"/>
</g>
<!-- Node16 -->
<g id="node16" class="node">
<title>Node16</title>
<g id="a_node16"><a xlink:href="rpcwallet_8cpp.html#adfcbdc968355be9c0ea292e1ad2239df" target="_top" xlink:title=" ">
<polygon fill="white" stroke="black" points="362.5,-380.5 362.5,-399.5 481.5,-399.5 481.5,-380.5 362.5,-380.5"/>
<text text-anchor="middle" x="422" y="-387.5" font-family="Helvetica,sans-Serif" font-size="10.00">EnsureWalletContext</text>
</a>
</g>
</g>
<!-- Node15&#45;&gt;Node16 -->
<g id="edge17" class="edge">
<title>Node15&#45;&gt;Node16</title>
<path fill="none" stroke="midnightblue" d="M215.88,-304.65C235.8,-321 278.89,-354.04 321,-371 330.91,-374.99 341.73,-378.16 352.46,-380.67"/>
<polygon fill="midnightblue" stroke="midnightblue" points="351.75,-384.1 362.26,-382.79 353.23,-377.25 351.75,-384.1"/>
</g>
<!-- Node17 -->
<g id="node17" class="node">
<title>Node17</title>
<g id="a_node17"><a xlink:href="wallet_2wallet_8cpp.html#aa28273281d0319a08708afcd3a4d118e" target="_top" xlink:title=" ">
<polygon fill="white" stroke="black" points="389.5,-228.5 389.5,-247.5 454.5,-247.5 454.5,-228.5 389.5,-228.5"/>
<text text-anchor="middle" x="422" y="-235.5" font-family="Helvetica,sans-Serif" font-size="10.00">GetWallet</text>
</a>
</g>
</g>
<!-- Node15&#45;&gt;Node17 -->
<g id="edge19" class="edge">
<title>Node15&#45;&gt;Node17</title>
<path fill="none" stroke="midnightblue" d="M237.04,-285.4C260.35,-278.62 292.53,-269.45 321,-262 340.15,-256.99 361.47,-251.82 379.48,-247.57"/>
<polygon fill="midnightblue" stroke="midnightblue" points="380.46,-250.93 389.39,-245.24 378.86,-244.12 380.46,-250.93"/>
</g>
<!-- Node18 -->
<g id="node18" class="node">
<title>Node18</title>
<g id="a_node18"><a xlink:href="rpcwallet_8cpp.html#af704ea42262521346e3be551cfbc5a7f" target="_top" xlink:title=" ">
<polygon fill="white" stroke="black" points="321,-342.5 321,-361.5 523,-361.5 523,-342.5 321,-342.5"/>
<text text-anchor="middle" x="422" y="-349.5" font-family="Helvetica,sans-Serif" font-size="10.00">GetWalletNameFromJSONRPCRequest</text>
</a>
</g>
</g>
<!-- Node15&#45;&gt;Node18 -->
<g id="edge20" class="edge">
<title>Node15&#45;&gt;Node18</title>
<path fill="none" stroke="midnightblue" d="M230.59,-304.57C254.02,-312.91 289.47,-324.9 321,-333 331.61,-335.73 342.95,-338.25 354.05,-340.5"/>
<polygon fill="midnightblue" stroke="midnightblue" points="353.65,-343.99 364.13,-342.5 355,-337.12 353.65,-343.99"/>
</g>
<!-- Node19 -->
<g id="node19" class="node">
<title>Node19</title>
<g id="a_node19"><a xlink:href="wallet_2wallet_8cpp.html#a8e3280b9a934262e94003e33190a96db" target="_top" xlink:title=" ">
<polygon fill="white" stroke="black" points="387,-304.5 387,-323.5 457,-323.5 457,-304.5 387,-304.5"/>
<text text-anchor="middle" x="422" y="-311.5" font-family="Helvetica,sans-Serif" font-size="10.00">GetWallets</text>
</a>
</g>
</g>
<!-- Node15&#45;&gt;Node19 -->
<g id="edge21" class="edge">
<title>Node15&#45;&gt;Node19</title>
<path fill="none" stroke="midnightblue" d="M285.12,-302.07C316.11,-304.79 350.34,-307.8 376.69,-310.11"/>
<polygon fill="midnightblue" stroke="midnightblue" points="376.47,-313.61 386.74,-310.99 377.08,-306.63 376.47,-313.61"/>
</g>
<!-- Node16&#45;&gt;Node3 -->
<g id="edge18" class="edge">
<title>Node16&#45;&gt;Node3</title>
<path fill="none" stroke="midnightblue" d="M481.75,-385.74C495.95,-382.89 510.59,-378.31 523,-371 554.55,-352.41 579.16,-316.36 592.05,-294.41"/>
<polygon fill="midnightblue" stroke="midnightblue" points="595.1,-296.12 596.98,-285.69 589.01,-292.67 595.1,-296.12"/>
</g>
<!-- Node23 -->
<g id="node23" class="node">
<title>Node23</title>
<g id="a_node23"><a xlink:href="class_uni_value.html#a505a2087cb7d9ee51d24a97a5cc7910c" target="_top" xlink:title=" ">
<polygon fill="white" stroke="black" points="365.5,-152.5 365.5,-171.5 478.5,-171.5 478.5,-152.5 365.5,-152.5"/>
<text text-anchor="middle" x="422" y="-159.5" font-family="Helvetica,sans-Serif" font-size="10.00">UniValue::__pushKV</text>
</a>
</g>
</g>
<!-- Node22&#45;&gt;Node23 -->
<g id="edge26" class="edge">
<title>Node22&#45;&gt;Node23</title>
<path fill="none" stroke="midnightblue" d="M255.26,-132.91C285.61,-138.24 324.47,-145.06 356.92,-150.75"/>
<polygon fill="midnightblue" stroke="midnightblue" points="356.32,-154.2 366.77,-152.48 357.53,-147.31 356.32,-154.2"/>
</g>
<!-- Node24 -->
<g id="node24" class="node">
<title>Node24</title>
<g id="a_node24"><a xlink:href="class_uni_value.html#a85f3a2f520375b464fb506b2ede5c3df" target="_top" xlink:title=" ">
<polygon fill="white" stroke="black" points="371,-114.5 371,-133.5 473,-133.5 473,-114.5 371,-114.5"/>
<text text-anchor="middle" x="422" y="-121.5" font-family="Helvetica,sans-Serif" font-size="10.00">UniValue::findKey</text>
</a>
</g>
</g>
<!-- Node22&#45;&gt;Node24 -->
<g id="edge27" class="edge">
<title>Node22&#45;&gt;Node24</title>
<path fill="none" stroke="midnightblue" d="M255.26,-124C286.86,-124 327.67,-124 360.89,-124"/>
<polygon fill="midnightblue" stroke="midnightblue" points="360.93,-127.5 370.93,-124 360.93,-120.5 360.93,-127.5"/>
</g>
<!-- Node26 -->
<g id="node26" class="node">
<title>Node26</title>
<g id="a_node26"><a xlink:href="class_uni_value.html#a3661be0f5580daceb23e5338e3a0df22" target="_top" xlink:title=" ">
<polygon fill="white" stroke="black" points="375,-76.5 375,-95.5 469,-95.5 469,-76.5 375,-76.5"/>
<text text-anchor="middle" x="422" y="-83.5" font-family="Helvetica,sans-Serif" font-size="10.00">UniValue::isNull</text>
</a>
</g>
</g>
<!-- Node25&#45;&gt;Node26 -->
<g id="edge29" class="edge">
<title>Node25&#45;&gt;Node26</title>
<path fill="none" stroke="midnightblue" d="M248.05,-70.82C281.69,-73.77 328.48,-77.88 364.92,-81.08"/>
<polygon fill="midnightblue" stroke="midnightblue" points="364.63,-84.57 374.9,-81.95 365.24,-77.59 364.63,-84.57"/>
</g>
<!-- Node27 -->
<g id="node27" class="node">
<title>Node27</title>
<g id="a_node27"><a xlink:href="rpc_2util_8cpp.html#a34ca526f05cc7f2281e634a5be48c121" target="_top" xlink:title="Type&#45;check one argument; throws JSONRPCError if wrong type given.">
<polygon fill="white" stroke="black" points="353.5,-38.5 353.5,-57.5 490.5,-57.5 490.5,-38.5 353.5,-38.5"/>
<text text-anchor="middle" x="422" y="-45.5" font-family="Helvetica,sans-Serif" font-size="10.00">RPCTypeCheckArgument</text>
</a>
</g>
</g>
<!-- Node25&#45;&gt;Node27 -->
<g id="edge30" class="edge">
<title>Node25&#45;&gt;Node27</title>
<path fill="none" stroke="midnightblue" d="M248.05,-63.18C275.24,-60.79 311.02,-57.65 342.99,-54.85"/>
<polygon fill="midnightblue" stroke="midnightblue" points="343.56,-58.31 353.21,-53.95 342.95,-51.34 343.56,-58.31"/>
</g>
<!-- Node31 -->
<g id="node31" class="node">
<title>Node31</title>
<g id="a_node31"><a xlink:href="class_uni_value.html#a5a7394aeb8d5584db7a90c2c041726b1" target="_top" xlink:title=" ">
<polygon fill="white" stroke="black" points="379,-0.5 379,-19.5 465,-19.5 465,-0.5 379,-0.5"/>
<text text-anchor="middle" x="422" y="-7.5" font-family="Helvetica,sans-Serif" font-size="10.00">UniValue::size</text>
</a>
</g>
</g>
<!-- Node25&#45;&gt;Node31 -->
<g id="edge35" class="edge">
<title>Node25&#45;&gt;Node31</title>
<path fill="none" stroke="midnightblue" d="M230.59,-57.43C254.02,-49.09 289.47,-37.1 321,-29 336.44,-25.03 353.42,-21.5 368.94,-18.59"/>
<polygon fill="midnightblue" stroke="midnightblue" points="369.69,-22.01 378.89,-16.77 368.43,-15.13 369.69,-22.01"/>
</g>
<!-- Node27&#45;&gt;Node3 -->
<g id="edge31" class="edge">
<title>Node27&#45;&gt;Node3</title>
<path fill="none" stroke="midnightblue" d="M490.69,-51.19C502.43,-54.31 513.8,-59.27 523,-67 581.77,-116.36 596.89,-214.27 600.72,-256.19"/>
<polygon fill="midnightblue" stroke="midnightblue" points="597.24,-256.54 601.52,-266.23 604.22,-255.99 597.24,-256.54"/>
</g>
<!-- Node28 -->
<g id="node28" class="node">
<title>Node28</title>
<g id="a_node28"><a xlink:href="class_uni_value.html#a5b33bfd4be1574e610eee5a7cdae77d1" target="_top" xlink:title=" ">
<polygon fill="white" stroke="black" points="559,-57.5 559,-76.5 647,-76.5 647,-57.5 559,-57.5"/>
<text text-anchor="middle" x="603" y="-64.5" font-family="Helvetica,sans-Serif" font-size="10.00">UniValue::type</text>
</a>
</g>
</g>
<!-- Node27&#45;&gt;Node28 -->
<g id="edge32" class="edge">
<title>Node27&#45;&gt;Node28</title>
<path fill="none" stroke="midnightblue" d="M490.67,-55.18C509.88,-57.22 530.51,-59.41 548.74,-61.35"/>
<polygon fill="midnightblue" stroke="midnightblue" points="548.56,-64.85 558.87,-62.42 549.3,-57.89 548.56,-64.85"/>
</g>
<!-- Node30 -->
<g id="node30" class="node">
<title>Node30</title>
<g id="a_node30"><a xlink:href="univalue_8cpp.html#afef3e6f59953164935c334e389892fbf" target="_top" xlink:title=" ">
<polygon fill="white" stroke="black" points="563,-19.5 563,-38.5 643,-38.5 643,-19.5 563,-19.5"/>
<text text-anchor="middle" x="603" y="-26.5" font-family="Helvetica,sans-Serif" font-size="10.00">uvTypeName</text>
</a>
</g>
</g>
<!-- Node27&#45;&gt;Node30 -->
<g id="edge34" class="edge">
<title>Node27&#45;&gt;Node30</title>
<path fill="none" stroke="midnightblue" d="M490.67,-40.82C511.32,-38.63 533.61,-36.26 552.79,-34.22"/>
<polygon fill="midnightblue" stroke="midnightblue" points="553.22,-37.7 562.8,-33.16 552.48,-30.74 553.22,-37.7"/>
</g>
<!-- Node29 -->
<g id="node29" class="node">
<title>Node29</title>
<g id="a_node29"><a xlink:href="class_uni_value.html#a2dbc9c5aa9d209338b0bef650f3d1987" target="_top" xlink:title=" ">
<polygon fill="white" stroke="black" points="683,-57.5 683,-76.5 787,-76.5 787,-57.5 683,-57.5"/>
<text text-anchor="middle" x="735" y="-64.5" font-family="Helvetica,sans-Serif" font-size="10.00">UniValue::getType</text>
</a>
</g>
</g>
<!-- Node28&#45;&gt;Node29 -->
<g id="edge33" class="edge">
<title>Node28&#45;&gt;Node29</title>
<path fill="none" stroke="midnightblue" d="M647.29,-67C655.46,-67 664.16,-67 672.76,-67"/>
<polygon fill="midnightblue" stroke="midnightblue" points="672.79,-70.5 682.79,-67 672.79,-63.5 672.79,-70.5"/>
</g>
</g>
</svg>
