<?xml version="1.0" encoding="UTF-8" standalone="no"?>
<!DOCTYPE svg PUBLIC "-//W3C//DTD SVG 1.1//EN"
 "http://www.w3.org/Graphics/SVG/1.1/DTD/svg11.dtd">
<!-- Generated by graphviz version 2.49.3 (0)
 -->
<!-- Title: SetFeeEstimateMode Pages: 1 -->
<svg width="1578pt" height="426pt"
 viewBox="0.00 0.00 1578.00 426.00" xmlns="http://www.w3.org/2000/svg" xmlns:xlink="http://www.w3.org/1999/xlink">
<g id="graph0" class="graph" transform="scale(1 1) rotate(0) translate(4 422)">
<title>SetFeeEstimateMode</title>
<polygon fill="white" stroke="transparent" points="-4,4 -4,-422 1574,-422 1574,4 -4,4"/>
<!-- Node1 -->
<g id="node1" class="node">
<title>Node1</title>
<g id="a_node1"><a xlink:title="Update coin control with fee estimation based on the given parameters.">
<polygon fill="#bfbfbf" stroke="black" points="0,-208.5 0,-227.5 120,-227.5 120,-208.5 0,-208.5"/>
<text text-anchor="middle" x="60" y="-215.5" font-family="Helvetica,sans-Serif" font-size="10.00">SetFeeEstimateMode</text>
</a>
</g>
</g>
<!-- Node2 -->
<g id="node2" class="node">
<title>Node2</title>
<g id="a_node2"><a xlink:href="bitcoin-tx_8cpp.html#a58ca09453ed4aac5e1af948b1c6a241f" target="_top" xlink:title=" ">
<polygon fill="white" stroke="black" points="174,-208.5 174,-227.5 281,-227.5 281,-208.5 174,-208.5"/>
<text text-anchor="middle" x="227.5" y="-215.5" font-family="Helvetica,sans-Serif" font-size="10.00">AmountFromValue</text>
</a>
</g>
</g>
<!-- Node1&#45;&gt;Node2 -->
<g id="edge1" class="edge">
<title>Node1&#45;&gt;Node2</title>
<path fill="none" stroke="midnightblue" d="M120.28,-218C134.39,-218 149.49,-218 163.74,-218"/>
<polygon fill="midnightblue" stroke="midnightblue" points="163.95,-221.5 173.95,-218 163.95,-214.5 163.95,-221.5"/>
</g>
<!-- Node10 -->
<g id="node10" class="node">
<title>Node10</title>
<g id="a_node10"><a xlink:href="util_2fees_8cpp.html#a792d01095df2d205c4a33d8d3ab2471d" target="_top" xlink:title=" ">
<polygon fill="white" stroke="black" points="170.5,-123.5 170.5,-142.5 284.5,-142.5 284.5,-123.5 170.5,-123.5"/>
<text text-anchor="middle" x="227.5" y="-130.5" font-family="Helvetica,sans-Serif" font-size="10.00">FeeModeFromString</text>
</a>
</g>
</g>
<!-- Node1&#45;&gt;Node10 -->
<g id="edge9" class="edge">
<title>Node1&#45;&gt;Node10</title>
<path fill="none" stroke="midnightblue" d="M79.66,-208.41C108.67,-193.52 164.75,-164.72 198.58,-147.34"/>
<polygon fill="midnightblue" stroke="midnightblue" points="200.61,-150.23 207.9,-142.55 197.41,-144.01 200.61,-150.23"/>
</g>
<!-- Node13 -->
<g id="node13" class="node">
<title>Node13</title>
<g id="a_node13"><a xlink:href="class_uni_value.html#a087ea6ccec615333371fa1aaf83ab7df" target="_top" xlink:title=" ">
<polygon fill="white" stroke="black" points="177.5,-379.5 177.5,-398.5 277.5,-398.5 277.5,-379.5 177.5,-379.5"/>
<text text-anchor="middle" x="227.5" y="-386.5" font-family="Helvetica,sans-Serif" font-size="10.00">UniValue::get_str</text>
</a>
</g>
</g>
<!-- Node1&#45;&gt;Node13 -->
<g id="edge13" class="edge">
<title>Node1&#45;&gt;Node13</title>
<path fill="none" stroke="midnightblue" d="M65.97,-227.84C78.37,-251.6 112.79,-312.91 156,-351 166.97,-360.67 180.83,-368.81 193.35,-375.04"/>
<polygon fill="midnightblue" stroke="midnightblue" points="192.06,-378.3 202.59,-379.43 195.06,-371.98 192.06,-378.3"/>
</g>
<!-- Node14 -->
<g id="node14" class="node">
<title>Node14</title>
<g id="a_node14"><a xlink:href="util_2fees_8cpp.html#abc483954c40f7d4102f9d42a9da152ed" target="_top" xlink:title=" ">
<polygon fill="white" stroke="black" points="156,-74 156,-104 299,-104 299,-74 156,-74"/>
<text text-anchor="start" x="164" y="-92" font-family="Helvetica,sans-Serif" font-size="10.00">InvalidEstimateModeError</text>
<text text-anchor="middle" x="227.5" y="-81" font-family="Helvetica,sans-Serif" font-size="10.00">Message</text>
</a>
</g>
</g>
<!-- Node1&#45;&gt;Node14 -->
<g id="edge15" class="edge">
<title>Node1&#45;&gt;Node14</title>
<path fill="none" stroke="midnightblue" d="M67.41,-208.22C81.24,-187.86 115.85,-140.63 156,-114 158.96,-112.04 162.09,-110.21 165.32,-108.51"/>
<polygon fill="midnightblue" stroke="midnightblue" points="167.12,-111.53 174.63,-104.05 164.1,-105.21 167.12,-111.53"/>
</g>
<!-- Node17 -->
<g id="node17" class="node">
<title>Node17</title>
<g id="a_node17"><a xlink:href="class_uni_value.html#a3661be0f5580daceb23e5338e3a0df22" target="_top" xlink:title=" ">
<polygon fill="white" stroke="black" points="180.5,-35.5 180.5,-54.5 274.5,-54.5 274.5,-35.5 180.5,-35.5"/>
<text text-anchor="middle" x="227.5" y="-42.5" font-family="Helvetica,sans-Serif" font-size="10.00">UniValue::isNull</text>
</a>
</g>
</g>
<!-- Node1&#45;&gt;Node17 -->
<g id="edge19" class="edge">
<title>Node1&#45;&gt;Node17</title>
<path fill="none" stroke="midnightblue" d="M64.11,-208.3C73.35,-181.05 103.36,-103.24 156,-64 160.45,-60.69 165.43,-57.95 170.64,-55.69"/>
<polygon fill="midnightblue" stroke="midnightblue" points="172.06,-58.9 180.2,-52.12 169.6,-52.34 172.06,-58.9"/>
</g>
<!-- Node18 -->
<g id="node18" class="node">
<title>Node18</title>
<g id="a_node18"><a xlink:href="request_8cpp.html#a40b75d3d265c4a2e1d5fe3e129743884" target="_top" xlink:title=" ">
<polygon fill="white" stroke="black" points="343.5,-322.5 343.5,-341.5 426.5,-341.5 426.5,-322.5 343.5,-322.5"/>
<text text-anchor="middle" x="385" y="-329.5" font-family="Helvetica,sans-Serif" font-size="10.00">JSONRPCError</text>
</a>
</g>
</g>
<!-- Node1&#45;&gt;Node18 -->
<g id="edge20" class="edge">
<title>Node1&#45;&gt;Node18</title>
<path fill="none" stroke="midnightblue" d="M87.98,-227.52C145.81,-247.93 281.76,-295.92 347.34,-319.06"/>
<polygon fill="midnightblue" stroke="midnightblue" points="346.27,-322.4 356.87,-322.42 348.6,-315.79 346.27,-322.4"/>
</g>
<!-- Node30 -->
<g id="node30" class="node">
<title>Node30</title>
<g id="a_node30"><a xlink:href="rpc_2util_8cpp.html#ae928fea7d8ddf182a6ccc24e2156b065" target="_top" xlink:title="Parse a confirm target option and raise an RPC error if it is invalid.">
<polygon fill="white" stroke="black" points="172,-322.5 172,-341.5 283,-341.5 283,-322.5 172,-322.5"/>
<text text-anchor="middle" x="227.5" y="-329.5" font-family="Helvetica,sans-Serif" font-size="10.00">ParseConfirmTarget</text>
</a>
</g>
</g>
<!-- Node1&#45;&gt;Node30 -->
<g id="edge33" class="edge">
<title>Node1&#45;&gt;Node30</title>
<path fill="none" stroke="midnightblue" d="M73.03,-227.57C90.81,-241.57 125.3,-268.23 156,-289 170.57,-298.86 187.37,-309.14 200.91,-317.18"/>
<polygon fill="midnightblue" stroke="midnightblue" points="199.3,-320.3 209.7,-322.35 202.86,-314.26 199.3,-320.3"/>
</g>
<!-- Node3 -->
<g id="node3" class="node">
<title>Node3</title>
<g id="a_node3"><a xlink:href="class_uni_value.html#a46cb80a3205cfa12f8a6d4de7d6fe6e8" target="_top" xlink:title=" ">
<polygon fill="white" stroke="black" points="477,-398.5 477,-417.5 587,-417.5 587,-398.5 477,-398.5"/>
<text text-anchor="middle" x="532" y="-405.5" font-family="Helvetica,sans-Serif" font-size="10.00">UniValue::getValStr</text>
</a>
</g>
</g>
<!-- Node2&#45;&gt;Node3 -->
<g id="edge2" class="edge">
<title>Node2&#45;&gt;Node3</title>
<path fill="none" stroke="midnightblue" d="M256.78,-227.62C270,-232.62 285.72,-239.3 299,-247 316.53,-257.17 317.33,-265.07 335,-275 376.45,-298.3 400.08,-280.74 435,-313 462.45,-338.36 442.84,-364.42 471,-389 472.94,-390.7 475.04,-392.24 477.25,-393.65"/>
<polygon fill="midnightblue" stroke="midnightblue" points="475.72,-396.8 486.19,-398.43 479.01,-390.63 475.72,-396.8"/>
</g>
<!-- Node4 -->
<g id="node4" class="node">
<title>Node4</title>
<g id="a_node4"><a xlink:href="class_uni_value.html#ac5271a9bb4ece86f00052bb5603eaa78" target="_top" xlink:title=" ">
<polygon fill="white" stroke="black" points="336,-132.5 336,-151.5 434,-151.5 434,-132.5 336,-132.5"/>
<text text-anchor="middle" x="385" y="-139.5" font-family="Helvetica,sans-Serif" font-size="10.00">UniValue::isNum</text>
</a>
</g>
</g>
<!-- Node2&#45;&gt;Node4 -->
<g id="edge3" class="edge">
<title>Node2&#45;&gt;Node4</title>
<path fill="none" stroke="midnightblue" d="M244.79,-208.48C265.41,-196.61 302.22,-176.06 335,-161 339.17,-159.08 343.59,-157.19 348.01,-155.38"/>
<polygon fill="midnightblue" stroke="midnightblue" points="349.56,-158.52 357.56,-151.58 346.98,-152.02 349.56,-158.52"/>
</g>
<!-- Node5 -->
<g id="node5" class="node">
<title>Node5</title>
<g id="a_node5"><a xlink:href="class_uni_value.html#a8abe13a4663ccfda54ae2440ed445c5a" target="_top" xlink:title=" ">
<polygon fill="white" stroke="black" points="341,-246.5 341,-265.5 429,-265.5 429,-246.5 341,-246.5"/>
<text text-anchor="middle" x="385" y="-253.5" font-family="Helvetica,sans-Serif" font-size="10.00">UniValue::isStr</text>
</a>
</g>
</g>
<!-- Node2&#45;&gt;Node5 -->
<g id="edge4" class="edge">
<title>Node2&#45;&gt;Node5</title>
<path fill="none" stroke="midnightblue" d="M267.74,-227.59C288.26,-232.6 313.57,-238.79 335.33,-244.11"/>
<polygon fill="midnightblue" stroke="midnightblue" points="334.5,-247.51 345.04,-246.48 336.16,-240.71 334.5,-247.51"/>
</g>
<!-- Node6 -->
<g id="node6" class="node">
<title>Node6</title>
<g id="a_node6"><a xlink:href="amount_8h.html#a12db56a9a1c931941f0943ecbb278aae" target="_top" xlink:title=" ">
<polygon fill="white" stroke="black" points="345,-170.5 345,-189.5 425,-189.5 425,-170.5 345,-170.5"/>
<text text-anchor="middle" x="385" y="-177.5" font-family="Helvetica,sans-Serif" font-size="10.00">MoneyRange</text>
</a>
</g>
</g>
<!-- Node2&#45;&gt;Node6 -->
<g id="edge5" class="edge">
<title>Node2&#45;&gt;Node6</title>
<path fill="none" stroke="midnightblue" d="M267.74,-208.41C288.26,-203.4 313.57,-197.21 335.33,-191.89"/>
<polygon fill="midnightblue" stroke="midnightblue" points="336.16,-195.29 345.04,-189.52 334.5,-188.49 336.16,-195.29"/>
</g>
<!-- Node7 -->
<g id="node7" class="node">
<title>Node7</title>
<g id="a_node7"><a xlink:href="strencodings_8cpp.html#a88871b16821d50d5f98a07312f8f1ffb" target="_top" xlink:title="Parse number as fixed point according to JSON number syntax.">
<polygon fill="white" stroke="black" points="338.5,-208.5 338.5,-227.5 431.5,-227.5 431.5,-208.5 338.5,-208.5"/>
<text text-anchor="middle" x="385" y="-215.5" font-family="Helvetica,sans-Serif" font-size="10.00">ParseFixedPoint</text>
</a>
</g>
</g>
<!-- Node2&#45;&gt;Node7 -->
<g id="edge6" class="edge">
<title>Node2&#45;&gt;Node7</title>
<path fill="none" stroke="midnightblue" d="M281.15,-218C296.25,-218 312.77,-218 328.07,-218"/>
<polygon fill="midnightblue" stroke="midnightblue" points="328.43,-221.5 338.43,-218 328.43,-214.5 328.43,-221.5"/>
</g>
<!-- Node8 -->
<g id="node8" class="node">
<title>Node8</title>
<g id="a_node8"><a xlink:href="strencodings_8h.html#a41d53846b822ba6e6df3e59760de114b" target="_top" xlink:title="Tests if the given character is a decimal digit.">
<polygon fill="white" stroke="black" points="508,-189.5 508,-208.5 556,-208.5 556,-189.5 508,-189.5"/>
<text text-anchor="middle" x="532" y="-196.5" font-family="Helvetica,sans-Serif" font-size="10.00">IsDigit</text>
</a>
</g>
</g>
<!-- Node7&#45;&gt;Node8 -->
<g id="edge7" class="edge">
<title>Node7&#45;&gt;Node8</title>
<path fill="none" stroke="midnightblue" d="M431.88,-211.99C453.26,-209.19 478.23,-205.92 497.75,-203.36"/>
<polygon fill="midnightblue" stroke="midnightblue" points="498.24,-206.82 507.7,-202.05 497.33,-199.88 498.24,-206.82"/>
</g>
<!-- Node9 -->
<g id="node9" class="node">
<title>Node9</title>
<g id="a_node9"><a xlink:href="strencodings_8cpp.html#aa8fc3d6b0477d2406bdbbac99136c946" target="_top" xlink:title="Helper function for ParseFixedPoint.">
<polygon fill="white" stroke="black" points="471,-227.5 471,-246.5 593,-246.5 593,-227.5 471,-227.5"/>
<text text-anchor="middle" x="532" y="-234.5" font-family="Helvetica,sans-Serif" font-size="10.00">ProcessMantissaDigit</text>
</a>
</g>
</g>
<!-- Node7&#45;&gt;Node9 -->
<g id="edge8" class="edge">
<title>Node7&#45;&gt;Node9</title>
<path fill="none" stroke="midnightblue" d="M431.88,-224.01C441.05,-225.21 450.89,-226.5 460.67,-227.78"/>
<polygon fill="midnightblue" stroke="midnightblue" points="460.45,-231.29 470.82,-229.11 461.36,-224.34 460.45,-231.29"/>
</g>
<!-- Node11 -->
<g id="node11" class="node">
<title>Node11</title>
<g id="a_node11"><a xlink:href="util_2fees_8cpp.html#a2adc35cc7fe0bbdacb691bb6c7e41e91" target="_top" xlink:title=" ">
<polygon fill="white" stroke="black" points="491,-38.5 491,-57.5 573,-57.5 573,-38.5 491,-38.5"/>
<text text-anchor="middle" x="532" y="-45.5" font-family="Helvetica,sans-Serif" font-size="10.00">FeeModeMap</text>
</a>
</g>
</g>
<!-- Node10&#45;&gt;Node11 -->
<g id="edge10" class="edge">
<title>Node10&#45;&gt;Node11</title>
<path fill="none" stroke="midnightblue" d="M277.69,-123.4C285.18,-120.73 292.56,-117.33 299,-113 320.55,-98.52 312.24,-79.48 335,-67 379.76,-42.45 439,-40.07 480.6,-42.36"/>
<polygon fill="midnightblue" stroke="midnightblue" points="480.56,-45.87 490.77,-43.03 481.02,-38.88 480.56,-45.87"/>
</g>
<!-- Node12 -->
<g id="node12" class="node">
<title>Node12</title>
<g id="a_node12"><a xlink:href="strencodings_8cpp.html#ace193645bff5c1ceac3d0b6f931f75da" target="_top" xlink:title="Returns the uppercase equivalent of the given string.">
<polygon fill="white" stroke="black" points="357,-76.5 357,-95.5 413,-95.5 413,-76.5 357,-76.5"/>
<text text-anchor="middle" x="385" y="-83.5" font-family="Helvetica,sans-Serif" font-size="10.00">ToUpper</text>
</a>
</g>
</g>
<!-- Node10&#45;&gt;Node12 -->
<g id="edge11" class="edge">
<title>Node10&#45;&gt;Node12</title>
<path fill="none" stroke="midnightblue" d="M262.99,-123.45C274.47,-120.21 287.3,-116.52 299,-113 314.78,-108.26 332.14,-102.79 347.02,-98.02"/>
<polygon fill="midnightblue" stroke="midnightblue" points="348.44,-101.24 356.89,-94.85 346.3,-94.58 348.44,-101.24"/>
</g>
<!-- Node12&#45;&gt;Node12 -->
<g id="edge12" class="edge">
<title>Node12&#45;&gt;Node12</title>
<path fill="none" stroke="midnightblue" d="M362.5,-95.76C351.55,-104.57 359.05,-114 385,-114 402.03,-114 411.11,-109.94 412.25,-104.65"/>
<polygon fill="midnightblue" stroke="midnightblue" points="415.3,-102.93 407.5,-95.76 409.12,-106.23 415.3,-102.93"/>
</g>
<!-- Node13&#45;&gt;Node3 -->
<g id="edge14" class="edge">
<title>Node13&#45;&gt;Node3</title>
<path fill="none" stroke="midnightblue" d="M277.78,-392.09C329.23,-395.33 410.17,-400.41 466.64,-403.96"/>
<polygon fill="midnightblue" stroke="midnightblue" points="466.69,-407.47 476.89,-404.6 467.13,-400.48 466.69,-407.47"/>
</g>
<!-- Node15 -->
<g id="node15" class="node">
<title>Node15</title>
<g id="a_node15"><a xlink:href="util_2fees_8cpp.html#a32fab8b174c9dcbab0d46d5ea4608a6b" target="_top" xlink:title=" ">
<polygon fill="white" stroke="black" points="352,-0.5 352,-19.5 418,-19.5 418,-0.5 352,-0.5"/>
<text text-anchor="middle" x="385" y="-7.5" font-family="Helvetica,sans-Serif" font-size="10.00">FeeModes</text>
</a>
</g>
</g>
<!-- Node14&#45;&gt;Node15 -->
<g id="edge16" class="edge">
<title>Node14&#45;&gt;Node15</title>
<path fill="none" stroke="midnightblue" d="M278.04,-73.96C285.26,-71.05 292.46,-67.73 299,-64 317.1,-53.69 317.52,-45.33 335,-34 340.43,-30.48 346.44,-27.14 352.35,-24.12"/>
<polygon fill="midnightblue" stroke="midnightblue" points="353.99,-27.21 361.43,-19.67 350.91,-20.92 353.99,-27.21"/>
</g>
<!-- Node15&#45;&gt;Node11 -->
<g id="edge17" class="edge">
<title>Node15&#45;&gt;Node11</title>
<path fill="none" stroke="midnightblue" d="M418.18,-18.43C437.79,-23.57 463.16,-30.22 484.88,-35.91"/>
<polygon fill="midnightblue" stroke="midnightblue" points="484.01,-39.3 494.57,-38.45 485.79,-32.53 484.01,-39.3"/>
</g>
<!-- Node16 -->
<g id="node16" class="node">
<title>Node16</title>
<g id="a_node16"><a xlink:href="string_8h.html#a2d2fed244106143037218040e400b8ee" target="_top" xlink:title="Join a list of items.">
<polygon fill="white" stroke="black" points="514.5,-0.5 514.5,-19.5 549.5,-19.5 549.5,-0.5 514.5,-0.5"/>
<text text-anchor="middle" x="532" y="-7.5" font-family="Helvetica,sans-Serif" font-size="10.00">Join</text>
</a>
</g>
</g>
<!-- Node15&#45;&gt;Node16 -->
<g id="edge18" class="edge">
<title>Node15&#45;&gt;Node16</title>
<path fill="none" stroke="midnightblue" d="M418.18,-10C443.94,-10 479.65,-10 503.95,-10"/>
<polygon fill="midnightblue" stroke="midnightblue" points="504.23,-13.5 514.23,-10 504.23,-6.5 504.23,-13.5"/>
</g>
<!-- Node19 -->
<g id="node19" class="node">
<title>Node19</title>
<g id="a_node19"><a xlink:href="system_8h.html#a96c5fc7111f69f7dcaba992d95d13e03" target="_top" xlink:title=" ">
<polygon fill="white" stroke="black" points="512,-322.5 512,-341.5 552,-341.5 552,-322.5 512,-322.5"/>
<text text-anchor="middle" x="532" y="-329.5" font-family="Helvetica,sans-Serif" font-size="10.00">error</text>
</a>
</g>
</g>
<!-- Node18&#45;&gt;Node19 -->
<g id="edge21" class="edge">
<title>Node18&#45;&gt;Node19</title>
<path fill="none" stroke="midnightblue" d="M426.78,-332C450.57,-332 480.03,-332 501.56,-332"/>
<polygon fill="midnightblue" stroke="midnightblue" points="501.72,-335.5 511.72,-332 501.72,-328.5 501.72,-335.5"/>
</g>
<!-- Node20 -->
<g id="node20" class="node">
<title>Node20</title>
<g id="a_node20"><a xlink:href="namespacetinyformat.html#a05144619d8b16e2b31b2594ca9c6bf1d" target="_top" xlink:title="Format list of arguments to the stream according to given format string.">
<polygon fill="white" stroke="black" points="629,-322.5 629,-341.5 736,-341.5 736,-322.5 629,-322.5"/>
<text text-anchor="middle" x="682.5" y="-329.5" font-family="Helvetica,sans-Serif" font-size="10.00">tinyformat::format</text>
</a>
</g>
</g>
<!-- Node19&#45;&gt;Node20 -->
<g id="edge22" class="edge">
<title>Node19&#45;&gt;Node20</title>
<path fill="none" stroke="midnightblue" d="M552.11,-332C569.04,-332 594.73,-332 618.77,-332"/>
<polygon fill="midnightblue" stroke="midnightblue" points="618.94,-335.5 628.94,-332 618.94,-328.5 618.94,-335.5"/>
</g>
<!-- Node21 -->
<g id="node21" class="node">
<title>Node21</title>
<g id="a_node21"><a xlink:href="namespacetinyformat.html#aa0e1f6113d2c7d019aac703672a650bd" target="_top" xlink:title="Make type&#45;agnostic format list from list of template arguments.">
<polygon fill="white" stroke="black" points="772,-341.5 772,-360.5 925,-360.5 925,-341.5 772,-341.5"/>
<text text-anchor="middle" x="848.5" y="-348.5" font-family="Helvetica,sans-Serif" font-size="10.00">tinyformat::makeFormatList</text>
</a>
</g>
</g>
<!-- Node20&#45;&gt;Node21 -->
<g id="edge23" class="edge">
<title>Node20&#45;&gt;Node21</title>
<path fill="none" stroke="midnightblue" d="M736.29,-338.12C744.44,-339.06 753.02,-340.05 761.67,-341.06"/>
<polygon fill="midnightblue" stroke="midnightblue" points="761.48,-344.56 771.81,-342.23 762.28,-337.6 761.48,-344.56"/>
</g>
<!-- Node22 -->
<g id="node22" class="node">
<title>Node22</title>
<g id="a_node22"><a xlink:href="namespacetinyformat.html#a86ed74eb3ed66a662e96220d877da964" target="_top" xlink:title="Format list of arguments to the stream according to the given format string.">
<polygon fill="white" stroke="black" points="792,-303.5 792,-322.5 905,-322.5 905,-303.5 792,-303.5"/>
<text text-anchor="middle" x="848.5" y="-310.5" font-family="Helvetica,sans-Serif" font-size="10.00">tinyformat::vformat</text>
</a>
</g>
</g>
<!-- Node20&#45;&gt;Node22 -->
<g id="edge24" class="edge">
<title>Node20&#45;&gt;Node22</title>
<path fill="none" stroke="midnightblue" d="M736.29,-325.88C750.75,-324.21 766.6,-322.37 781.68,-320.63"/>
<polygon fill="midnightblue" stroke="midnightblue" points="782.45,-324.06 791.98,-319.43 781.64,-317.11 782.45,-324.06"/>
</g>
<!-- Node23 -->
<g id="node23" class="node">
<title>Node23</title>
<g id="a_node23"><a xlink:href="namespacetinyformat_1_1detail.html#a9fe547bc617c38498e58c12cce507bec" target="_top" xlink:title=" ">
<polygon fill="white" stroke="black" points="961,-298 961,-328 1063,-328 1063,-298 961,-298"/>
<text text-anchor="start" x="969" y="-316" font-family="Helvetica,sans-Serif" font-size="10.00">tinyformat::detail</text>
<text text-anchor="middle" x="1012" y="-305" font-family="Helvetica,sans-Serif" font-size="10.00">::formatImpl</text>
</a>
</g>
</g>
<!-- Node22&#45;&gt;Node23 -->
<g id="edge25" class="edge">
<title>Node22&#45;&gt;Node23</title>
<path fill="none" stroke="midnightblue" d="M905.08,-313C919.76,-313 935.67,-313 950.59,-313"/>
<polygon fill="midnightblue" stroke="midnightblue" points="950.73,-316.5 960.73,-313 950.73,-309.5 950.73,-316.5"/>
</g>
<!-- Node24 -->
<g id="node24" class="node">
<title>Node24</title>
<g id="a_node24"><a xlink:href="classtinyformat_1_1detail_1_1_format_arg.html#acbf435711bbe4a4da7fc81758d7108a9" target="_top" xlink:title=" ">
<polygon fill="white" stroke="black" points="1113.5,-347 1113.5,-377 1226.5,-377 1226.5,-347 1113.5,-347"/>
<text text-anchor="start" x="1121.5" y="-365" font-family="Helvetica,sans-Serif" font-size="10.00">tinyformat::detail</text>
<text text-anchor="middle" x="1170" y="-354" font-family="Helvetica,sans-Serif" font-size="10.00">::FormatArg::format</text>
</a>
</g>
</g>
<!-- Node23&#45;&gt;Node24 -->
<g id="edge26" class="edge">
<title>Node23&#45;&gt;Node24</title>
<path fill="none" stroke="midnightblue" d="M1061.08,-328.1C1077.02,-333.11 1094.92,-338.73 1111.5,-343.94"/>
<polygon fill="midnightblue" stroke="midnightblue" points="1110.49,-347.29 1121.08,-346.95 1112.59,-340.61 1110.49,-347.29"/>
</g>
<!-- Node25 -->
<g id="node25" class="node">
<title>Node25</title>
<g id="a_node25"><a xlink:href="namespacetinyformat_1_1detail.html#a3eb54527d28d7124a6f9fa4c1d57deed" target="_top" xlink:title=" ">
<polygon fill="white" stroke="black" points="1100.5,-298 1100.5,-328 1239.5,-328 1239.5,-298 1100.5,-298"/>
<text text-anchor="start" x="1108.5" y="-316" font-family="Helvetica,sans-Serif" font-size="10.00">tinyformat::detail</text>
<text text-anchor="middle" x="1170" y="-305" font-family="Helvetica,sans-Serif" font-size="10.00">::printFormatStringLiteral</text>
</a>
</g>
</g>
<!-- Node23&#45;&gt;Node25 -->
<g id="edge27" class="edge">
<title>Node23&#45;&gt;Node25</title>
<path fill="none" stroke="midnightblue" d="M1063.22,-313C1071.92,-313 1081.15,-313 1090.39,-313"/>
<polygon fill="midnightblue" stroke="midnightblue" points="1090.4,-316.5 1100.4,-313 1090.4,-309.5 1090.4,-316.5"/>
</g>
<!-- Node26 -->
<g id="node26" class="node">
<title>Node26</title>
<g id="a_node26"><a xlink:href="namespacetinyformat_1_1detail.html#abbdd8c3b545f996b866bd22cf6aa444c" target="_top" xlink:title=" ">
<polygon fill="white" stroke="black" points="1099,-249 1099,-279 1241,-279 1241,-249 1099,-249"/>
<text text-anchor="start" x="1107" y="-267" font-family="Helvetica,sans-Serif" font-size="10.00">tinyformat::detail</text>
<text text-anchor="middle" x="1170" y="-256" font-family="Helvetica,sans-Serif" font-size="10.00">::streamStateFromFormat</text>
</a>
</g>
</g>
<!-- Node23&#45;&gt;Node26 -->
<g id="edge28" class="edge">
<title>Node23&#45;&gt;Node26</title>
<path fill="none" stroke="midnightblue" d="M1061.08,-297.9C1077.02,-292.89 1094.92,-287.27 1111.5,-282.06"/>
<polygon fill="midnightblue" stroke="midnightblue" points="1112.59,-285.39 1121.08,-279.05 1110.49,-278.71 1112.59,-285.39"/>
</g>
<!-- Node27 -->
<g id="node27" class="node">
<title>Node27</title>
<g id="a_node27"><a xlink:href="namespacetinyformat_1_1detail.html#a67285e0adb9f4164f9fc30a3eb11c771" target="_top" xlink:title=" ">
<polygon fill="white" stroke="black" points="1447,-271 1447,-301 1570,-301 1570,-271 1447,-271"/>
<text text-anchor="start" x="1455" y="-289" font-family="Helvetica,sans-Serif" font-size="10.00">tinyformat::detail</text>
<text text-anchor="middle" x="1508.5" y="-278" font-family="Helvetica,sans-Serif" font-size="10.00">::parseIntAndAdvance</text>
</a>
</g>
</g>
<!-- Node26&#45;&gt;Node27 -->
<g id="edge29" class="edge">
<title>Node26&#45;&gt;Node27</title>
<path fill="none" stroke="midnightblue" d="M1241.13,-268.59C1298.46,-272.33 1379.15,-277.61 1436.67,-281.37"/>
<polygon fill="midnightblue" stroke="midnightblue" points="1436.56,-284.87 1446.77,-282.03 1437.01,-277.88 1436.56,-284.87"/>
</g>
<!-- Node28 -->
<g id="node28" class="node">
<title>Node28</title>
<g id="a_node28"><a xlink:href="namespacetinyformat_1_1detail.html#ae1e94cbdd9e7cf26f17856a1792664e1" target="_top" xlink:title=" ">
<polygon fill="white" stroke="black" points="1277,-227 1277,-257 1411,-257 1411,-227 1277,-227"/>
<text text-anchor="start" x="1285" y="-245" font-family="Helvetica,sans-Serif" font-size="10.00">tinyformat::detail</text>
<text text-anchor="middle" x="1344" y="-234" font-family="Helvetica,sans-Serif" font-size="10.00">::parseWidthOrPrecision</text>
</a>
</g>
</g>
<!-- Node26&#45;&gt;Node28 -->
<g id="edge30" class="edge">
<title>Node26&#45;&gt;Node28</title>
<path fill="none" stroke="midnightblue" d="M1241.46,-254.99C1249.77,-253.93 1258.28,-252.84 1266.66,-251.76"/>
<polygon fill="midnightblue" stroke="midnightblue" points="1267.33,-255.21 1276.81,-250.47 1266.45,-248.26 1267.33,-255.21"/>
</g>
<!-- Node28&#45;&gt;Node27 -->
<g id="edge31" class="edge">
<title>Node28&#45;&gt;Node27</title>
<path fill="none" stroke="midnightblue" d="M1400.47,-257.02C1413.86,-260.65 1428.29,-264.55 1442.09,-268.29"/>
<polygon fill="midnightblue" stroke="midnightblue" points="1441.44,-271.74 1452.01,-270.97 1443.27,-264.98 1441.44,-271.74"/>
</g>
<!-- Node29 -->
<g id="node29" class="node">
<title>Node29</title>
<g id="a_node29"><a xlink:href="classtinyformat_1_1detail_1_1_format_arg.html#a91b69f66ce9dc8ca2914dce8985d7a1a" target="_top" xlink:title=" ">
<polygon fill="white" stroke="black" points="1457.5,-222 1457.5,-252 1559.5,-252 1559.5,-222 1457.5,-222"/>
<text text-anchor="start" x="1465.5" y="-240" font-family="Helvetica,sans-Serif" font-size="10.00">tinyformat::detail</text>
<text text-anchor="middle" x="1508.5" y="-229" font-family="Helvetica,sans-Serif" font-size="10.00">::FormatArg::toInt</text>
</a>
</g>
</g>
<!-- Node28&#45;&gt;Node29 -->
<g id="edge32" class="edge">
<title>Node28&#45;&gt;Node29</title>
<path fill="none" stroke="midnightblue" d="M1411.09,-239.97C1423.06,-239.6 1435.47,-239.22 1447.25,-238.85"/>
<polygon fill="midnightblue" stroke="midnightblue" points="1447.53,-242.35 1457.42,-238.54 1447.32,-235.35 1447.53,-242.35"/>
</g>
<!-- Node30&#45;&gt;Node18 -->
<g id="edge37" class="edge">
<title>Node30&#45;&gt;Node18</title>
<path fill="none" stroke="midnightblue" d="M283.32,-332C299.53,-332 317.2,-332 333.15,-332"/>
<polygon fill="midnightblue" stroke="midnightblue" points="333.35,-335.5 343.35,-332 333.35,-328.5 333.35,-335.5"/>
</g>
<!-- Node31 -->
<g id="node31" class="node">
<title>Node31</title>
<g id="a_node31"><a xlink:href="class_uni_value.html#af45edc6e67eaa6d1f271ce18e435a376" target="_top" xlink:title=" ">
<polygon fill="white" stroke="black" points="335,-360.5 335,-379.5 435,-379.5 435,-360.5 335,-360.5"/>
<text text-anchor="middle" x="385" y="-367.5" font-family="Helvetica,sans-Serif" font-size="10.00">UniValue::get_int</text>
</a>
</g>
</g>
<!-- Node30&#45;&gt;Node31 -->
<g id="edge34" class="edge">
<title>Node30&#45;&gt;Node31</title>
<path fill="none" stroke="midnightblue" d="M267.74,-341.59C288.26,-346.6 313.57,-352.79 335.33,-358.11"/>
<polygon fill="midnightblue" stroke="midnightblue" points="334.5,-361.51 345.04,-360.48 336.16,-354.71 334.5,-361.51"/>
</g>
<!-- Node31&#45;&gt;Node3 -->
<g id="edge35" class="edge">
<title>Node31&#45;&gt;Node3</title>
<path fill="none" stroke="midnightblue" d="M422.59,-379.59C441.47,-384.54 464.69,-390.62 484.79,-395.89"/>
<polygon fill="midnightblue" stroke="midnightblue" points="484.11,-399.33 494.67,-398.48 485.89,-392.56 484.11,-399.33"/>
</g>
<!-- Node32 -->
<g id="node32" class="node">
<title>Node32</title>
<g id="a_node32"><a xlink:href="strencodings_8cpp.html#a880a215d9e931432b095084c756a49bb" target="_top" xlink:title="Convert string to signed 32&#45;bit integer with strict parse error feedback.">
<polygon fill="white" stroke="black" points="498,-360.5 498,-379.5 566,-379.5 566,-360.5 498,-360.5"/>
<text text-anchor="middle" x="532" y="-367.5" font-family="Helvetica,sans-Serif" font-size="10.00">ParseInt32</text>
</a>
</g>
</g>
<!-- Node31&#45;&gt;Node32 -->
<g id="edge36" class="edge">
<title>Node31&#45;&gt;Node32</title>
<path fill="none" stroke="midnightblue" d="M435.09,-370C452.07,-370 470.98,-370 487.48,-370"/>
<polygon fill="midnightblue" stroke="midnightblue" points="487.94,-373.5 497.94,-370 487.94,-366.5 487.94,-373.5"/>
</g>
</g>
</svg>
