<?xml version="1.0" encoding="UTF-8" standalone="no"?>
<!DOCTYPE svg PUBLIC "-//W3C//DTD SVG 1.1//EN"
 "http://www.w3.org/Graphics/SVG/1.1/DTD/svg11.dtd">
<!-- Generated by graphviz version 2.49.3 (0)
 -->
<!-- Title: src/scheduler.h Pages: 1 -->
<svg width="1840pt" height="308pt"
 viewBox="0.00 0.00 1839.50 308.00" xmlns="http://www.w3.org/2000/svg" xmlns:xlink="http://www.w3.org/1999/xlink">
<g id="graph0" class="graph" transform="scale(1 1) rotate(0) translate(4 304)">
<title>src/scheduler.h</title>
<polygon fill="white" stroke="transparent" points="-4,4 -4,-304 1835.5,-304 1835.5,4 -4,4"/>
<!-- Node1 -->
<g id="node1" class="node">
<title>Node1</title>
<g id="a_node1"><a xlink:title=" ">
<polygon fill="#bfbfbf" stroke="black" points="243.5,-280.5 243.5,-299.5 332.5,-299.5 332.5,-280.5 243.5,-280.5"/>
<text text-anchor="middle" x="288" y="-287.5" font-family="Helvetica,sans-Serif" font-size="10.00">src/scheduler.h</text>
</a>
</g>
</g>
<!-- Node2 -->
<g id="node2" class="node">
<title>Node2</title>
<g id="a_node2"><a xlink:title=" ">
<polygon fill="white" stroke="#bfbfbf" points="112.5,-168.5 112.5,-187.5 219.5,-187.5 219.5,-168.5 112.5,-168.5"/>
<text text-anchor="middle" x="166" y="-175.5" font-family="Helvetica,sans-Serif" font-size="10.00">condition_variable</text>
</a>
</g>
</g>
<!-- Node1&#45;&gt;Node2 -->
<g id="edge1" class="edge">
<title>Node1&#45;&gt;Node2</title>
<path fill="none" stroke="midnightblue" d="M278.43,-280.37C257.85,-261.81 209.16,-217.91 183.12,-194.44"/>
<polygon fill="midnightblue" stroke="midnightblue" points="185.3,-191.69 175.53,-187.59 180.61,-196.89 185.3,-191.69"/>
</g>
<!-- Node3 -->
<g id="node3" class="node">
<title>Node3</title>
<g id="a_node3"><a xlink:title=" ">
<polygon fill="white" stroke="#bfbfbf" points="356.5,-224.5 356.5,-243.5 421.5,-243.5 421.5,-224.5 356.5,-224.5"/>
<text text-anchor="middle" x="389" y="-231.5" font-family="Helvetica,sans-Serif" font-size="10.00">functional</text>
</a>
</g>
</g>
<!-- Node1&#45;&gt;Node3 -->
<g id="edge2" class="edge">
<title>Node1&#45;&gt;Node3</title>
<path fill="none" stroke="midnightblue" d="M304.23,-280.32C320.35,-271.7 345.3,-258.36 363.96,-248.39"/>
<polygon fill="midnightblue" stroke="midnightblue" points="365.64,-251.46 372.81,-243.65 362.34,-245.28 365.64,-251.46"/>
</g>
<!-- Node4 -->
<g id="node4" class="node">
<title>Node4</title>
<g id="a_node4"><a xlink:title=" ">
<polygon fill="white" stroke="#bfbfbf" points="189,-112.5 189,-131.5 221,-131.5 221,-112.5 189,-112.5"/>
<text text-anchor="middle" x="205" y="-119.5" font-family="Helvetica,sans-Serif" font-size="10.00">list</text>
</a>
</g>
</g>
<!-- Node1&#45;&gt;Node4 -->
<g id="edge3" class="edge">
<title>Node1&#45;&gt;Node4</title>
<path fill="none" stroke="midnightblue" d="M249.95,-280.41C205.92,-268.2 135.46,-241.16 104,-188 84.81,-155.58 143.01,-136.55 178.92,-128.15"/>
<polygon fill="midnightblue" stroke="midnightblue" points="179.8,-131.54 188.81,-125.97 178.29,-124.71 179.8,-131.54"/>
</g>
<!-- Node5 -->
<g id="node5" class="node">
<title>Node5</title>
<g id="a_node5"><a xlink:title=" ">
<polygon fill="white" stroke="#bfbfbf" points="440,-224.5 440,-243.5 478,-243.5 478,-224.5 440,-224.5"/>
<text text-anchor="middle" x="459" y="-231.5" font-family="Helvetica,sans-Serif" font-size="10.00">map</text>
</a>
</g>
</g>
<!-- Node1&#45;&gt;Node5 -->
<g id="edge4" class="edge">
<title>Node1&#45;&gt;Node5</title>
<path fill="none" stroke="midnightblue" d="M315.43,-280.42C342.32,-272 384.71,-258.7 430.02,-244.3"/>
<polygon fill="midnightblue" stroke="midnightblue" points="431.26,-247.58 439.73,-241.21 429.13,-240.91 431.26,-247.58"/>
</g>
<!-- Node6 -->
<g id="node6" class="node">
<title>Node6</title>
<g id="a_node6"><a xlink:title=" ">
<polygon fill="white" stroke="#bfbfbf" points="238,-168.5 238,-187.5 286,-187.5 286,-168.5 238,-168.5"/>
<text text-anchor="middle" x="262" y="-175.5" font-family="Helvetica,sans-Serif" font-size="10.00">thread</text>
</a>
</g>
</g>
<!-- Node1&#45;&gt;Node6 -->
<g id="edge5" class="edge">
<title>Node1&#45;&gt;Node6</title>
<path fill="none" stroke="midnightblue" d="M285.96,-280.37C281.76,-262.62 272.08,-221.67 266.4,-197.6"/>
<polygon fill="midnightblue" stroke="midnightblue" points="269.74,-196.52 264.03,-187.59 262.92,-198.13 269.74,-196.52"/>
</g>
<!-- Node7 -->
<g id="node7" class="node">
<title>Node7</title>
<g id="a_node7"><a xlink:href="sync_8h.html" target="_top" xlink:title=" ">
<polygon fill="white" stroke="black" points="290,-224.5 290,-243.5 338,-243.5 338,-224.5 290,-224.5"/>
<text text-anchor="middle" x="314" y="-231.5" font-family="Helvetica,sans-Serif" font-size="10.00">sync.h</text>
</a>
</g>
</g>
<!-- Node1&#45;&gt;Node7 -->
<g id="edge6" class="edge">
<title>Node1&#45;&gt;Node7</title>
<path fill="none" stroke="midnightblue" d="M292.29,-280.08C295.85,-272.69 301.02,-261.95 305.42,-252.81"/>
<polygon fill="midnightblue" stroke="midnightblue" points="308.6,-254.28 309.79,-243.75 302.29,-251.24 308.6,-254.28"/>
</g>
<!-- Node7&#45;&gt;Node2 -->
<g id="edge63" class="edge">
<title>Node7&#45;&gt;Node2</title>
<path fill="none" stroke="midnightblue" d="M290.55,-224.44C265.87,-215.44 226.81,-201.19 199.02,-191.05"/>
<polygon fill="midnightblue" stroke="midnightblue" points="199.94,-187.66 189.34,-187.52 197.54,-194.23 199.94,-187.66"/>
</g>
<!-- Node7&#45;&gt;Node6 -->
<g id="edge66" class="edge">
<title>Node7&#45;&gt;Node6</title>
<path fill="none" stroke="midnightblue" d="M305.41,-224.08C297.84,-216.22 286.62,-204.57 277.49,-195.08"/>
<polygon fill="midnightblue" stroke="midnightblue" points="279.88,-192.53 270.43,-187.75 274.84,-197.38 279.88,-192.53"/>
</g>
<!-- Node8 -->
<g id="node8" class="node">
<title>Node8</title>
<g id="a_node8"><a xlink:href="logging_8h.html" target="_top" xlink:title=" ">
<polygon fill="white" stroke="black" points="450,-168.5 450,-187.5 512,-187.5 512,-168.5 450,-168.5"/>
<text text-anchor="middle" x="481" y="-175.5" font-family="Helvetica,sans-Serif" font-size="10.00">logging.h</text>
</a>
</g>
</g>
<!-- Node7&#45;&gt;Node8 -->
<g id="edge7" class="edge">
<title>Node7&#45;&gt;Node8</title>
<path fill="none" stroke="midnightblue" d="M338.28,-225.15C366.32,-216.08 412.71,-201.08 444.96,-190.65"/>
<polygon fill="midnightblue" stroke="midnightblue" points="446.04,-193.98 454.48,-187.58 443.89,-187.32 446.04,-193.98"/>
</g>
<!-- Node11 -->
<g id="node11" class="node">
<title>Node11</title>
<g id="a_node11"><a xlink:title=" ">
<polygon fill="white" stroke="#bfbfbf" points="970,-56.5 970,-75.5 1014,-75.5 1014,-56.5 970,-56.5"/>
<text text-anchor="middle" x="992" y="-63.5" font-family="Helvetica,sans-Serif" font-size="10.00">string</text>
</a>
</g>
</g>
<!-- Node7&#45;&gt;Node11 -->
<g id="edge65" class="edge">
<title>Node7&#45;&gt;Node11</title>
<path fill="none" stroke="midnightblue" d="M338.1,-226.41C341.42,-225.57 344.79,-224.74 348,-224 555,-176.35 612.55,-189.61 817,-132 824.2,-129.97 912.17,-97.01 960.57,-78.82"/>
<polygon fill="midnightblue" stroke="midnightblue" points="961.84,-82.09 969.97,-75.29 959.38,-75.53 961.84,-82.09"/>
</g>
<!-- Node20 -->
<g id="node20" class="node">
<title>Node20</title>
<g id="a_node20"><a xlink:href="threadsafety_8h.html" target="_top" xlink:title=" ">
<polygon fill="white" stroke="black" points="239,-112.5 239,-131.5 325,-131.5 325,-112.5 239,-112.5"/>
<text text-anchor="middle" x="282" y="-119.5" font-family="Helvetica,sans-Serif" font-size="10.00">threadsafety.h</text>
</a>
</g>
</g>
<!-- Node7&#45;&gt;Node20 -->
<g id="edge61" class="edge">
<title>Node7&#45;&gt;Node20</title>
<path fill="none" stroke="midnightblue" d="M319.1,-224.28C325.86,-211.51 336.06,-187.15 328,-168 322.97,-156.05 313.06,-145.69 303.71,-137.93"/>
<polygon fill="midnightblue" stroke="midnightblue" points="305.84,-135.15 295.79,-131.81 301.56,-140.69 305.84,-135.15"/>
</g>
<!-- Node21 -->
<g id="node21" class="node">
<title>Node21</title>
<g id="a_node21"><a xlink:title=" ">
<polygon fill="white" stroke="#bfbfbf" points="0,-56.5 0,-75.5 48,-75.5 48,-56.5 0,-56.5"/>
<text text-anchor="middle" x="24" y="-63.5" font-family="Helvetica,sans-Serif" font-size="10.00">mutex</text>
</a>
</g>
</g>
<!-- Node7&#45;&gt;Node21 -->
<g id="edge64" class="edge">
<title>Node7&#45;&gt;Node21</title>
<path fill="none" stroke="midnightblue" d="M313.93,-224.13C313.34,-210.26 310.15,-183.44 295,-168 257.49,-129.77 230.33,-150.32 180,-132 134.72,-115.52 83.34,-93.43 52.31,-79.72"/>
<polygon fill="midnightblue" stroke="midnightblue" points="53.55,-76.44 42.99,-75.58 50.71,-82.83 53.55,-76.44"/>
</g>
<!-- Node30 -->
<g id="node30" class="node">
<title>Node30</title>
<g id="a_node30"><a xlink:href="timer_8h.html" target="_top" xlink:title=" ">
<polygon fill="white" stroke="black" points="1011,-168.5 1011,-187.5 1101,-187.5 1101,-168.5 1011,-168.5"/>
<text text-anchor="middle" x="1056" y="-175.5" font-family="Helvetica,sans-Serif" font-size="10.00">logging/timer.h</text>
</a>
</g>
</g>
<!-- Node7&#45;&gt;Node30 -->
<g id="edge37" class="edge">
<title>Node7&#45;&gt;Node30</title>
<path fill="none" stroke="midnightblue" d="M338.02,-226.02C341.35,-225.23 344.75,-224.53 348,-224 598.12,-183.39 664.12,-204.19 917,-188 944.57,-186.24 975.22,-184.25 1000.71,-182.6"/>
<polygon fill="midnightblue" stroke="midnightblue" points="1001.18,-186.08 1010.93,-181.94 1000.72,-179.09 1001.18,-186.08"/>
</g>
<!-- Node32 -->
<g id="node32" class="node">
<title>Node32</title>
<g id="a_node32"><a xlink:href="macros_8h.html" target="_top" xlink:title=" ">
<polygon fill="white" stroke="black" points="881,-112.5 881,-131.5 961,-131.5 961,-112.5 881,-112.5"/>
<text text-anchor="middle" x="921" y="-119.5" font-family="Helvetica,sans-Serif" font-size="10.00">util/macros.h</text>
</a>
</g>
</g>
<!-- Node7&#45;&gt;Node32 -->
<g id="edge62" class="edge">
<title>Node7&#45;&gt;Node32</title>
<path fill="none" stroke="midnightblue" d="M338.02,-226.04C341.35,-225.25 344.75,-224.54 348,-224 460.52,-205.32 756.98,-236.96 860,-188 881.76,-177.66 899.61,-155.85 910.27,-140.36"/>
<polygon fill="midnightblue" stroke="midnightblue" points="913.4,-141.96 915.94,-131.68 907.54,-138.13 913.4,-141.96"/>
</g>
<!-- Node8&#45;&gt;Node4 -->
<g id="edge33" class="edge">
<title>Node8&#45;&gt;Node4</title>
<path fill="none" stroke="midnightblue" d="M449.72,-173.11C403.64,-167.02 314.75,-153.85 230.7,-131.8"/>
<polygon fill="midnightblue" stroke="midnightblue" points="231.58,-128.41 221.01,-129.21 229.77,-135.18 231.58,-128.41"/>
</g>
<!-- Node9 -->
<g id="node9" class="node">
<title>Node9</title>
<g id="a_node9"><a xlink:href="fs_8h.html" target="_top" xlink:title=" ">
<polygon fill="white" stroke="black" points="555.5,-112.5 555.5,-131.5 590.5,-131.5 590.5,-112.5 555.5,-112.5"/>
<text text-anchor="middle" x="573" y="-119.5" font-family="Helvetica,sans-Serif" font-size="10.00">fs.h</text>
</a>
</g>
</g>
<!-- Node8&#45;&gt;Node9 -->
<g id="edge8" class="edge">
<title>Node8&#45;&gt;Node9</title>
<path fill="none" stroke="midnightblue" d="M495.78,-168.32C510.27,-159.82 532.57,-146.73 549.49,-136.8"/>
<polygon fill="midnightblue" stroke="midnightblue" points="551.4,-139.74 558.26,-131.65 547.86,-133.7 551.4,-139.74"/>
</g>
<!-- Node8&#45;&gt;Node11 -->
<g id="edge35" class="edge">
<title>Node8&#45;&gt;Node11</title>
<path fill="none" stroke="midnightblue" d="M512.15,-174.07C566.08,-168.6 680.07,-155.21 774,-132 800.47,-125.46 805.97,-120.11 832,-112 885.94,-95.19 902.13,-92.54 960.29,-76.17"/>
<polygon fill="midnightblue" stroke="midnightblue" points="961.33,-79.51 969.99,-73.42 959.42,-72.78 961.33,-79.51"/>
</g>
<!-- Node14 -->
<g id="node14" class="node">
<title>Node14</title>
<g id="a_node14"><a xlink:href="tinyformat_8h.html" target="_top" xlink:title=" ">
<polygon fill="white" stroke="black" points="874.5,-56.5 874.5,-75.5 951.5,-75.5 951.5,-56.5 874.5,-56.5"/>
<text text-anchor="middle" x="913" y="-63.5" font-family="Helvetica,sans-Serif" font-size="10.00">tinyformat.h</text>
</a>
</g>
</g>
<!-- Node8&#45;&gt;Node14 -->
<g id="edge19" class="edge">
<title>Node8&#45;&gt;Node14</title>
<path fill="none" stroke="midnightblue" d="M512.15,-171.95C549.85,-165.29 614.88,-152.01 668,-132 685.86,-125.27 688.07,-118.53 706,-112 720.75,-106.63 807.91,-88.4 864.33,-76.86"/>
<polygon fill="midnightblue" stroke="midnightblue" points="865.04,-80.29 874.14,-74.86 863.64,-73.43 865.04,-80.29"/>
</g>
<!-- Node8&#45;&gt;Node20 -->
<g id="edge20" class="edge">
<title>Node8&#45;&gt;Node20</title>
<path fill="none" stroke="midnightblue" d="M449.91,-168.56C415.79,-159.3 360.87,-144.4 323.19,-134.18"/>
<polygon fill="midnightblue" stroke="midnightblue" points="324.1,-130.8 313.53,-131.56 322.27,-137.55 324.1,-130.8"/>
</g>
<!-- Node8&#45;&gt;Node21 -->
<g id="edge34" class="edge">
<title>Node8&#45;&gt;Node21</title>
<path fill="none" stroke="midnightblue" d="M458.61,-168.46C436.39,-159.82 401.48,-145.81 372,-132 354.72,-123.91 352.19,-117.76 334,-112 218.77,-75.49 180.73,-99.07 58.2,-75.95"/>
<polygon fill="midnightblue" stroke="midnightblue" points="58.55,-72.45 48.06,-73.97 57.2,-79.32 58.55,-72.45"/>
</g>
<!-- Node22 -->
<g id="node22" class="node">
<title>Node22</title>
<g id="a_node22"><a xlink:href="string_8h.html" target="_top" xlink:title=" ">
<polygon fill="white" stroke="black" points="381,-112.5 381,-131.5 453,-131.5 453,-112.5 381,-112.5"/>
<text text-anchor="middle" x="417" y="-119.5" font-family="Helvetica,sans-Serif" font-size="10.00">util/string.h</text>
</a>
</g>
</g>
<!-- Node8&#45;&gt;Node22 -->
<g id="edge22" class="edge">
<title>Node8&#45;&gt;Node22</title>
<path fill="none" stroke="midnightblue" d="M470.72,-168.32C461.16,-160.26 446.72,-148.08 435.22,-138.37"/>
<polygon fill="midnightblue" stroke="midnightblue" points="437.37,-135.61 427.47,-131.83 432.86,-140.96 437.37,-135.61"/>
</g>
<!-- Node27 -->
<g id="node27" class="node">
<title>Node27</title>
<g id="a_node27"><a xlink:title=" ">
<polygon fill="white" stroke="#bfbfbf" points="425.5,-56.5 425.5,-75.5 472.5,-75.5 472.5,-56.5 425.5,-56.5"/>
<text text-anchor="middle" x="449" y="-63.5" font-family="Helvetica,sans-Serif" font-size="10.00">vector</text>
</a>
</g>
</g>
<!-- Node8&#45;&gt;Node27 -->
<g id="edge36" class="edge">
<title>Node8&#45;&gt;Node27</title>
<path fill="none" stroke="midnightblue" d="M478.49,-168.37C473.3,-150.54 461.3,-109.3 454.32,-85.27"/>
<polygon fill="midnightblue" stroke="midnightblue" points="457.65,-84.22 451.5,-75.59 450.93,-86.17 457.65,-84.22"/>
</g>
<!-- Node28 -->
<g id="node28" class="node">
<title>Node28</title>
<g id="a_node28"><a xlink:title=" ">
<polygon fill="white" stroke="#bfbfbf" points="609,-112.5 609,-131.5 659,-131.5 659,-112.5 609,-112.5"/>
<text text-anchor="middle" x="634" y="-119.5" font-family="Helvetica,sans-Serif" font-size="10.00">atomic</text>
</a>
</g>
</g>
<!-- Node8&#45;&gt;Node28 -->
<g id="edge31" class="edge">
<title>Node8&#45;&gt;Node28</title>
<path fill="none" stroke="midnightblue" d="M505.24,-168.44C530.87,-159.4 571.49,-145.06 600.24,-134.92"/>
<polygon fill="midnightblue" stroke="midnightblue" points="601.61,-138.15 609.87,-131.52 599.28,-131.54 601.61,-138.15"/>
</g>
<!-- Node29 -->
<g id="node29" class="node">
<title>Node29</title>
<g id="a_node29"><a xlink:title=" ">
<polygon fill="white" stroke="#bfbfbf" points="715,-112.5 715,-131.5 765,-131.5 765,-112.5 715,-112.5"/>
<text text-anchor="middle" x="740" y="-119.5" font-family="Helvetica,sans-Serif" font-size="10.00">cstdint</text>
</a>
</g>
</g>
<!-- Node8&#45;&gt;Node29 -->
<g id="edge32" class="edge">
<title>Node8&#45;&gt;Node29</title>
<path fill="none" stroke="midnightblue" d="M512.02,-170.91C554.66,-162.48 633.76,-146.63 701,-132 702.26,-131.73 703.54,-131.44 704.84,-131.16"/>
<polygon fill="midnightblue" stroke="midnightblue" points="705.86,-134.51 714.85,-128.9 704.32,-127.69 705.86,-134.51"/>
</g>
<!-- Node10 -->
<g id="node10" class="node">
<title>Node10</title>
<g id="a_node10"><a xlink:title=" ">
<polygon fill="white" stroke="#bfbfbf" points="669,-56.5 669,-75.5 719,-75.5 719,-56.5 669,-56.5"/>
<text text-anchor="middle" x="694" y="-63.5" font-family="Helvetica,sans-Serif" font-size="10.00">stdio.h</text>
</a>
</g>
</g>
<!-- Node9&#45;&gt;Node10 -->
<g id="edge9" class="edge">
<title>Node9&#45;&gt;Node10</title>
<path fill="none" stroke="midnightblue" d="M590.59,-113.15C610.21,-104.39 642.22,-90.11 665.43,-79.75"/>
<polygon fill="midnightblue" stroke="midnightblue" points="667.08,-82.85 674.78,-75.58 664.23,-76.45 667.08,-82.85"/>
</g>
<!-- Node9&#45;&gt;Node11 -->
<g id="edge10" class="edge">
<title>Node9&#45;&gt;Node11</title>
<path fill="none" stroke="midnightblue" d="M590.56,-114.52C593.67,-113.55 596.91,-112.66 600,-112 754.45,-78.99 800.8,-105.47 959.64,-75.91"/>
<polygon fill="midnightblue" stroke="midnightblue" points="960.6,-79.29 969.77,-73.98 959.29,-72.42 960.6,-79.29"/>
</g>
<!-- Node12 -->
<g id="node12" class="node">
<title>Node12</title>
<g id="a_node12"><a xlink:title=" ">
<polygon fill="white" stroke="#bfbfbf" points="737.5,-56.5 737.5,-75.5 856.5,-75.5 856.5,-56.5 737.5,-56.5"/>
<text text-anchor="middle" x="797" y="-63.5" font-family="Helvetica,sans-Serif" font-size="10.00">boost/filesystem.hpp</text>
</a>
</g>
</g>
<!-- Node9&#45;&gt;Node12 -->
<g id="edge11" class="edge">
<title>Node9&#45;&gt;Node12</title>
<path fill="none" stroke="midnightblue" d="M590.64,-114.85C593.74,-113.84 596.95,-112.85 600,-112 648.32,-98.46 704.15,-86 744.01,-77.64"/>
<polygon fill="midnightblue" stroke="midnightblue" points="744.97,-81.02 754.04,-75.56 743.54,-74.17 744.97,-81.02"/>
</g>
<!-- Node13 -->
<g id="node13" class="node">
<title>Node13</title>
<g id="a_node13"><a xlink:title=" ">
<polygon fill="white" stroke="#bfbfbf" points="491,-56.5 491,-75.5 651,-75.5 651,-56.5 491,-56.5"/>
<text text-anchor="middle" x="571" y="-63.5" font-family="Helvetica,sans-Serif" font-size="10.00">boost/filesystem/fstream.hpp</text>
</a>
</g>
</g>
<!-- Node9&#45;&gt;Node13 -->
<g id="edge12" class="edge">
<title>Node9&#45;&gt;Node13</title>
<path fill="none" stroke="midnightblue" d="M572.67,-112.08C572.41,-105.01 572.03,-94.86 571.7,-85.99"/>
<polygon fill="midnightblue" stroke="midnightblue" points="575.19,-85.61 571.32,-75.75 568.2,-85.87 575.19,-85.61"/>
</g>
<!-- Node9&#45;&gt;Node14 -->
<g id="edge13" class="edge">
<title>Node9&#45;&gt;Node14</title>
<path fill="none" stroke="midnightblue" d="M590.58,-114.61C593.69,-113.64 596.92,-112.72 600,-112 713.03,-85.76 746.44,-94.7 864.17,-76.21"/>
<polygon fill="midnightblue" stroke="midnightblue" points="864.98,-79.62 874.3,-74.58 863.87,-72.71 864.98,-79.62"/>
</g>
<!-- Node15 -->
<g id="node15" class="node">
<title>Node15</title>
<g id="a_node15"><a xlink:title=" ">
<polygon fill="white" stroke="#bfbfbf" points="310,-0.5 310,-19.5 374,-19.5 374,-0.5 310,-0.5"/>
<text text-anchor="middle" x="342" y="-7.5" font-family="Helvetica,sans-Serif" font-size="10.00">algorithm</text>
</a>
</g>
</g>
<!-- Node14&#45;&gt;Node15 -->
<g id="edge14" class="edge">
<title>Node14&#45;&gt;Node15</title>
<path fill="none" stroke="midnightblue" d="M874.32,-57.26C871.51,-56.8 868.72,-56.37 866,-56 675.56,-29.89 626.45,-37.26 435,-20 418.43,-18.51 400.22,-16.77 384.33,-15.22"/>
<polygon fill="midnightblue" stroke="midnightblue" points="384.56,-11.72 374.27,-14.23 383.88,-18.69 384.56,-11.72"/>
</g>
<!-- Node16 -->
<g id="node16" class="node">
<title>Node16</title>
<g id="a_node16"><a xlink:title=" ">
<polygon fill="white" stroke="#bfbfbf" points="614,-0.5 614,-19.5 674,-19.5 674,-0.5 614,-0.5"/>
<text text-anchor="middle" x="644" y="-7.5" font-family="Helvetica,sans-Serif" font-size="10.00">iostream</text>
</a>
</g>
</g>
<!-- Node14&#45;&gt;Node16 -->
<g id="edge15" class="edge">
<title>Node14&#45;&gt;Node16</title>
<path fill="none" stroke="midnightblue" d="M874.33,-57.53C818.95,-46.82 719.78,-27.54 684,-20 683.9,-19.98 683.8,-19.96 683.7,-19.94"/>
<polygon fill="midnightblue" stroke="midnightblue" points="684.63,-16.56 674.12,-17.87 683.16,-23.4 684.63,-16.56"/>
</g>
<!-- Node17 -->
<g id="node17" class="node">
<title>Node17</title>
<g id="a_node17"><a xlink:title=" ">
<polygon fill="white" stroke="#bfbfbf" points="444,-0.5 444,-19.5 500,-19.5 500,-0.5 444,-0.5"/>
<text text-anchor="middle" x="472" y="-7.5" font-family="Helvetica,sans-Serif" font-size="10.00">sstream</text>
</a>
</g>
</g>
<!-- Node14&#45;&gt;Node17 -->
<g id="edge16" class="edge">
<title>Node14&#45;&gt;Node17</title>
<path fill="none" stroke="midnightblue" d="M874.31,-57.34C871.5,-56.86 868.71,-56.41 866,-56 719.66,-34.07 681.82,-38.47 535,-20 526.98,-18.99 518.41,-17.83 510.24,-16.67"/>
<polygon fill="midnightblue" stroke="midnightblue" points="510.59,-13.19 500.2,-15.23 509.6,-20.12 510.59,-13.19"/>
</g>
<!-- Node18 -->
<g id="node18" class="node">
<title>Node18</title>
<g id="a_node18"><a xlink:title=" ">
<polygon fill="white" stroke="#bfbfbf" points="692.5,-0.5 692.5,-19.5 757.5,-19.5 757.5,-0.5 692.5,-0.5"/>
<text text-anchor="middle" x="725" y="-7.5" font-family="Helvetica,sans-Serif" font-size="10.00">stdexcept</text>
</a>
</g>
</g>
<!-- Node14&#45;&gt;Node18 -->
<g id="edge17" class="edge">
<title>Node14&#45;&gt;Node18</title>
<path fill="none" stroke="midnightblue" d="M883.21,-56.44C851.17,-47.24 800.07,-32.56 764.65,-22.39"/>
<polygon fill="midnightblue" stroke="midnightblue" points="765.23,-18.91 754.65,-19.52 763.29,-25.64 765.23,-18.91"/>
</g>
<!-- Node19 -->
<g id="node19" class="node">
<title>Node19</title>
<g id="a_node19"><a xlink:title=" ">
<polygon fill="white" stroke="#bfbfbf" points="544,-0.5 544,-19.5 596,-19.5 596,-0.5 544,-0.5"/>
<text text-anchor="middle" x="570" y="-7.5" font-family="Helvetica,sans-Serif" font-size="10.00">cassert</text>
</a>
</g>
</g>
<!-- Node14&#45;&gt;Node19 -->
<g id="edge18" class="edge">
<title>Node14&#45;&gt;Node19</title>
<path fill="none" stroke="midnightblue" d="M874.3,-57.42C871.49,-56.93 868.71,-56.45 866,-56 753.62,-37.5 721.63,-42.33 606.23,-20.05"/>
<polygon fill="midnightblue" stroke="midnightblue" points="606.79,-16.59 596.3,-18.11 605.44,-23.46 606.79,-16.59"/>
</g>
<!-- Node20&#45;&gt;Node21 -->
<g id="edge21" class="edge">
<title>Node20&#45;&gt;Node21</title>
<path fill="none" stroke="midnightblue" d="M238.67,-113.25C195.36,-105.3 126.63,-92.13 58.19,-76.16"/>
<polygon fill="midnightblue" stroke="midnightblue" points="58.64,-72.67 48.1,-73.78 57.03,-79.48 58.64,-72.67"/>
</g>
<!-- Node22&#45;&gt;Node11 -->
<g id="edge29" class="edge">
<title>Node22&#45;&gt;Node11</title>
<path fill="none" stroke="midnightblue" d="M453.29,-118.42C561.6,-110.67 879.54,-87.49 959.72,-75.68"/>
<polygon fill="midnightblue" stroke="midnightblue" points="960.48,-79.11 969.78,-74.03 959.34,-72.2 960.48,-79.11"/>
</g>
<!-- Node22&#45;&gt;Node15 -->
<g id="edge24" class="edge">
<title>Node22&#45;&gt;Node15</title>
<path fill="none" stroke="midnightblue" d="M380.95,-114.94C358.4,-109.08 331.06,-97.74 317,-76 307.2,-60.84 317.33,-41.26 327.48,-27.56"/>
<polygon fill="midnightblue" stroke="midnightblue" points="330.41,-29.51 333.95,-19.52 324.95,-25.12 330.41,-29.51"/>
</g>
<!-- Node22&#45;&gt;Node17 -->
<g id="edge28" class="edge">
<title>Node22&#45;&gt;Node17</title>
<path fill="none" stroke="midnightblue" d="M384.97,-112.45C351.6,-101.92 306.69,-82.16 326,-56 338.91,-38.52 395.1,-24.98 433.89,-17.5"/>
<polygon fill="midnightblue" stroke="midnightblue" points="434.64,-20.92 443.83,-15.64 433.35,-14.04 434.64,-20.92"/>
</g>
<!-- Node23 -->
<g id="node23" class="node">
<title>Node23</title>
<g id="a_node23"><a xlink:href="attributes_8h.html" target="_top" xlink:title=" ">
<polygon fill="white" stroke="black" points="334.5,-56.5 334.5,-75.5 407.5,-75.5 407.5,-56.5 334.5,-56.5"/>
<text text-anchor="middle" x="371" y="-63.5" font-family="Helvetica,sans-Serif" font-size="10.00">attributes.h</text>
</a>
</g>
</g>
<!-- Node22&#45;&gt;Node23 -->
<g id="edge23" class="edge">
<title>Node22&#45;&gt;Node23</title>
<path fill="none" stroke="midnightblue" d="M409.4,-112.08C402.77,-104.3 392.98,-92.8 384.94,-83.37"/>
<polygon fill="midnightblue" stroke="midnightblue" points="387.6,-81.09 378.45,-75.75 382.27,-85.63 387.6,-81.09"/>
</g>
<!-- Node24 -->
<g id="node24" class="node">
<title>Node24</title>
<g id="a_node24"><a xlink:title=" ">
<polygon fill="white" stroke="#bfbfbf" points="66,-56.5 66,-75.5 108,-75.5 108,-56.5 66,-56.5"/>
<text text-anchor="middle" x="87" y="-63.5" font-family="Helvetica,sans-Serif" font-size="10.00">array</text>
</a>
</g>
</g>
<!-- Node22&#45;&gt;Node24 -->
<g id="edge25" class="edge">
<title>Node22&#45;&gt;Node24</title>
<path fill="none" stroke="midnightblue" d="M380.98,-114.36C376.28,-113.54 371.53,-112.73 367,-112 259.32,-94.56 228.36,-99.87 118.05,-75.95"/>
<polygon fill="midnightblue" stroke="midnightblue" points="118.72,-72.52 108.2,-73.79 117.22,-79.35 118.72,-72.52"/>
</g>
<!-- Node25 -->
<g id="node25" class="node">
<title>Node25</title>
<g id="a_node25"><a xlink:title=" ">
<polygon fill="white" stroke="#bfbfbf" points="126,-56.5 126,-75.5 176,-75.5 176,-56.5 126,-56.5"/>
<text text-anchor="middle" x="151" y="-63.5" font-family="Helvetica,sans-Serif" font-size="10.00">cstring</text>
</a>
</g>
</g>
<!-- Node22&#45;&gt;Node25 -->
<g id="edge26" class="edge">
<title>Node22&#45;&gt;Node25</title>
<path fill="none" stroke="midnightblue" d="M381,-114.32C329.23,-104.67 235.36,-86.99 186.02,-76.09"/>
<polygon fill="midnightblue" stroke="midnightblue" points="186.73,-72.66 176.2,-73.87 185.19,-79.49 186.73,-72.66"/>
</g>
<!-- Node26 -->
<g id="node26" class="node">
<title>Node26</title>
<g id="a_node26"><a xlink:title=" ">
<polygon fill="white" stroke="#bfbfbf" points="194,-56.5 194,-75.5 240,-75.5 240,-56.5 194,-56.5"/>
<text text-anchor="middle" x="217" y="-63.5" font-family="Helvetica,sans-Serif" font-size="10.00">locale</text>
</a>
</g>
</g>
<!-- Node22&#45;&gt;Node26 -->
<g id="edge27" class="edge">
<title>Node22&#45;&gt;Node26</title>
<path fill="none" stroke="midnightblue" d="M385.31,-112.44C348.36,-102.47 287.58,-86.06 250.05,-75.92"/>
<polygon fill="midnightblue" stroke="midnightblue" points="250.69,-72.47 240.12,-73.24 248.87,-79.23 250.69,-72.47"/>
</g>
<!-- Node22&#45;&gt;Node27 -->
<g id="edge30" class="edge">
<title>Node22&#45;&gt;Node27</title>
<path fill="none" stroke="midnightblue" d="M422.28,-112.08C426.71,-104.61 433.16,-93.72 438.62,-84.52"/>
<polygon fill="midnightblue" stroke="midnightblue" points="441.73,-86.14 443.81,-75.75 435.71,-82.57 441.73,-86.14"/>
</g>
<!-- Node30&#45;&gt;Node11 -->
<g id="edge60" class="edge">
<title>Node30&#45;&gt;Node11</title>
<path fill="none" stroke="midnightblue" d="M1045.09,-168.47C1035.14,-160.16 1020.71,-146.65 1012,-132 1003.42,-117.57 998.2,-99.12 995.26,-85.56"/>
<polygon fill="midnightblue" stroke="midnightblue" points="998.65,-84.67 993.29,-75.52 991.78,-86.01 998.65,-84.67"/>
</g>
<!-- Node31 -->
<g id="node31" class="node">
<title>Node31</title>
<g id="a_node31"><a xlink:title=" ">
<polygon fill="white" stroke="#bfbfbf" points="1195,-112.5 1195,-131.5 1257,-131.5 1257,-112.5 1195,-112.5"/>
<text text-anchor="middle" x="1226" y="-119.5" font-family="Helvetica,sans-Serif" font-size="10.00">logging.h</text>
</a>
</g>
</g>
<!-- Node30&#45;&gt;Node31 -->
<g id="edge38" class="edge">
<title>Node30&#45;&gt;Node31</title>
<path fill="none" stroke="midnightblue" d="M1082.94,-168.44C1111.66,-159.32 1157.33,-144.81 1189.32,-134.65"/>
<polygon fill="midnightblue" stroke="midnightblue" points="1190.72,-137.88 1199.19,-131.52 1188.6,-131.21 1190.72,-137.88"/>
</g>
<!-- Node30&#45;&gt;Node32 -->
<g id="edge39" class="edge">
<title>Node30&#45;&gt;Node32</title>
<path fill="none" stroke="midnightblue" d="M1034.61,-168.44C1012.29,-159.52 977.1,-145.44 951.79,-135.32"/>
<polygon fill="midnightblue" stroke="midnightblue" points="952.88,-131.98 942.29,-131.52 950.28,-138.48 952.88,-131.98"/>
</g>
<!-- Node33 -->
<g id="node33" class="node">
<title>Node33</title>
<g id="a_node33"><a xlink:href="time_8h.html" target="_top" xlink:title=" ">
<polygon fill="white" stroke="black" points="1109.5,-112.5 1109.5,-131.5 1176.5,-131.5 1176.5,-112.5 1109.5,-112.5"/>
<text text-anchor="middle" x="1143" y="-119.5" font-family="Helvetica,sans-Serif" font-size="10.00">util/time.h</text>
</a>
</g>
</g>
<!-- Node30&#45;&gt;Node33 -->
<g id="edge40" class="edge">
<title>Node30&#45;&gt;Node33</title>
<path fill="none" stroke="midnightblue" d="M1069.98,-168.32C1083.55,-159.9 1104.38,-146.97 1120.32,-137.07"/>
<polygon fill="midnightblue" stroke="midnightblue" points="1122.41,-139.9 1129.06,-131.65 1118.71,-133.95 1122.41,-139.9"/>
</g>
<!-- Node49 -->
<g id="node48" class="node">
<title>Node49</title>
<g id="a_node48"><a xlink:title=" ">
<polygon fill="white" stroke="#bfbfbf" points="1264,-56.5 1264,-75.5 1314,-75.5 1314,-56.5 1264,-56.5"/>
<text text-anchor="middle" x="1289" y="-63.5" font-family="Helvetica,sans-Serif" font-size="10.00">chrono</text>
</a>
</g>
</g>
<!-- Node30&#45;&gt;Node49 -->
<g id="edge59" class="edge">
<title>Node30&#45;&gt;Node49</title>
<path fill="none" stroke="midnightblue" d="M1101.21,-172.48C1155.39,-166.2 1241.91,-153.17 1266,-132 1279.33,-120.29 1284.93,-100.35 1287.29,-85.64"/>
<polygon fill="midnightblue" stroke="midnightblue" points="1290.77,-85.98 1288.53,-75.63 1283.83,-85.12 1290.77,-85.98"/>
</g>
<!-- Node51 -->
<g id="node50" class="node">
<title>Node51</title>
<g id="a_node50"><a xlink:href="types_8h.html" target="_top" xlink:title=" ">
<polygon fill="white" stroke="black" points="1020.5,-112.5 1020.5,-131.5 1091.5,-131.5 1091.5,-112.5 1020.5,-112.5"/>
<text text-anchor="middle" x="1056" y="-119.5" font-family="Helvetica,sans-Serif" font-size="10.00">util/types.h</text>
</a>
</g>
</g>
<!-- Node30&#45;&gt;Node51 -->
<g id="edge58" class="edge">
<title>Node30&#45;&gt;Node51</title>
<path fill="none" stroke="midnightblue" d="M1056,-168.08C1056,-161.01 1056,-150.86 1056,-141.99"/>
<polygon fill="midnightblue" stroke="midnightblue" points="1059.5,-141.75 1056,-131.75 1052.5,-141.75 1059.5,-141.75"/>
</g>
<!-- Node33&#45;&gt;Node11 -->
<g id="edge57" class="edge">
<title>Node33&#45;&gt;Node11</title>
<path fill="none" stroke="midnightblue" d="M1119.07,-112.44C1093.33,-103.24 1052.28,-88.56 1023.83,-78.38"/>
<polygon fill="midnightblue" stroke="midnightblue" points="1024.93,-75.06 1014.34,-74.99 1022.58,-81.65 1024.93,-75.06"/>
</g>
<!-- Node34 -->
<g id="node34" class="node">
<title>Node34</title>
<g id="a_node34"><a xlink:href="compat_8h.html" target="_top" xlink:title=" ">
<polygon fill="white" stroke="red" points="1112,-56.5 1112,-75.5 1174,-75.5 1174,-56.5 1112,-56.5"/>
<text text-anchor="middle" x="1143" y="-63.5" font-family="Helvetica,sans-Serif" font-size="10.00">compat.h</text>
</a>
</g>
</g>
<!-- Node33&#45;&gt;Node34 -->
<g id="edge41" class="edge">
<title>Node33&#45;&gt;Node34</title>
<path fill="none" stroke="midnightblue" d="M1143,-112.08C1143,-105.01 1143,-94.86 1143,-85.99"/>
<polygon fill="midnightblue" stroke="midnightblue" points="1146.5,-85.75 1143,-75.75 1139.5,-85.75 1146.5,-85.75"/>
</g>
<!-- Node33&#45;&gt;Node49 -->
<g id="edge55" class="edge">
<title>Node33&#45;&gt;Node49</title>
<path fill="none" stroke="midnightblue" d="M1166.13,-112.44C1190.48,-103.44 1229.01,-89.19 1256.42,-79.05"/>
<polygon fill="midnightblue" stroke="midnightblue" points="1257.81,-82.27 1265.97,-75.52 1255.38,-75.7 1257.81,-82.27"/>
</g>
<!-- Node50 -->
<g id="node49" class="node">
<title>Node50</title>
<g id="a_node49"><a xlink:title=" ">
<polygon fill="white" stroke="#bfbfbf" points="1192.5,-56.5 1192.5,-75.5 1245.5,-75.5 1245.5,-56.5 1192.5,-56.5"/>
<text text-anchor="middle" x="1219" y="-63.5" font-family="Helvetica,sans-Serif" font-size="10.00">stdint.h</text>
</a>
</g>
</g>
<!-- Node33&#45;&gt;Node50 -->
<g id="edge56" class="edge">
<title>Node33&#45;&gt;Node50</title>
<path fill="none" stroke="midnightblue" d="M1155.21,-112.32C1166.78,-104.11 1184.38,-91.6 1198.16,-81.81"/>
<polygon fill="midnightblue" stroke="midnightblue" points="1200.44,-84.48 1206.57,-75.83 1196.39,-78.77 1200.44,-84.48"/>
</g>
<!-- Node35 -->
<g id="node35" class="node">
<title>Node35</title>
<g id="a_node35"><a xlink:title=" ">
<polygon fill="white" stroke="#bfbfbf" points="992.5,-0.5 992.5,-19.5 1039.5,-19.5 1039.5,-0.5 992.5,-0.5"/>
<text text-anchor="middle" x="1016" y="-7.5" font-family="Helvetica,sans-Serif" font-size="10.00">fcntl.h</text>
</a>
</g>
</g>
<!-- Node34&#45;&gt;Node35 -->
<g id="edge42" class="edge">
<title>Node34&#45;&gt;Node35</title>
<path fill="none" stroke="midnightblue" d="M1122.88,-56.44C1101.98,-47.56 1069.07,-33.56 1045.28,-23.45"/>
<polygon fill="midnightblue" stroke="midnightblue" points="1046.6,-20.21 1036.03,-19.52 1043.86,-26.65 1046.6,-20.21"/>
</g>
<!-- Node36 -->
<g id="node36" class="node">
<title>Node36</title>
<g id="a_node36"><a xlink:title=" ">
<polygon fill="white" stroke="#bfbfbf" points="1057.5,-0.5 1057.5,-19.5 1134.5,-19.5 1134.5,-0.5 1057.5,-0.5"/>
<text text-anchor="middle" x="1096" y="-7.5" font-family="Helvetica,sans-Serif" font-size="10.00">sys/mman.h</text>
</a>
</g>
</g>
<!-- Node34&#45;&gt;Node36 -->
<g id="edge43" class="edge">
<title>Node34&#45;&gt;Node36</title>
<path fill="none" stroke="midnightblue" d="M1135.24,-56.08C1128.46,-48.3 1118.46,-36.8 1110.24,-27.37"/>
<polygon fill="midnightblue" stroke="midnightblue" points="1112.82,-25 1103.62,-19.75 1107.54,-29.59 1112.82,-25"/>
</g>
<!-- Node37 -->
<g id="node37" class="node">
<title>Node37</title>
<g id="a_node37"><a xlink:title=" ">
<polygon fill="white" stroke="#bfbfbf" points="1153,-0.5 1153,-19.5 1227,-19.5 1227,-0.5 1153,-0.5"/>
<text text-anchor="middle" x="1190" y="-7.5" font-family="Helvetica,sans-Serif" font-size="10.00">sys/select.h</text>
</a>
</g>
</g>
<!-- Node34&#45;&gt;Node37 -->
<g id="edge44" class="edge">
<title>Node34&#45;&gt;Node37</title>
<path fill="none" stroke="midnightblue" d="M1150.76,-56.08C1157.54,-48.3 1167.54,-36.8 1175.76,-27.37"/>
<polygon fill="midnightblue" stroke="midnightblue" points="1178.46,-29.59 1182.38,-19.75 1173.18,-25 1178.46,-29.59"/>
</g>
<!-- Node38 -->
<g id="node38" class="node">
<title>Node38</title>
<g id="a_node38"><a xlink:title=" ">
<polygon fill="white" stroke="#bfbfbf" points="1245.5,-0.5 1245.5,-19.5 1322.5,-19.5 1322.5,-0.5 1245.5,-0.5"/>
<text text-anchor="middle" x="1284" y="-7.5" font-family="Helvetica,sans-Serif" font-size="10.00">sys/socket.h</text>
</a>
</g>
</g>
<!-- Node34&#45;&gt;Node38 -->
<g id="edge45" class="edge">
<title>Node34&#45;&gt;Node38</title>
<path fill="none" stroke="midnightblue" d="M1165.34,-56.44C1188.75,-47.48 1225.74,-33.31 1252.19,-23.18"/>
<polygon fill="midnightblue" stroke="midnightblue" points="1253.68,-26.36 1261.76,-19.52 1251.17,-19.82 1253.68,-26.36"/>
</g>
<!-- Node39 -->
<g id="node39" class="node">
<title>Node39</title>
<g id="a_node39"><a xlink:title=" ">
<polygon fill="white" stroke="#bfbfbf" points="1341,-0.5 1341,-19.5 1413,-19.5 1413,-0.5 1341,-0.5"/>
<text text-anchor="middle" x="1377" y="-7.5" font-family="Helvetica,sans-Serif" font-size="10.00">sys/types.h</text>
</a>
</g>
</g>
<!-- Node34&#45;&gt;Node39 -->
<g id="edge46" class="edge">
<title>Node34&#45;&gt;Node39</title>
<path fill="none" stroke="midnightblue" d="M1174.07,-57.83C1214.26,-48.55 1284.6,-32.32 1331,-21.62"/>
<polygon fill="midnightblue" stroke="midnightblue" points="1331.84,-25.01 1340.8,-19.35 1330.27,-18.19 1331.84,-25.01"/>
</g>
<!-- Node40 -->
<g id="node40" class="node">
<title>Node40</title>
<g id="a_node40"><a xlink:title=" ">
<polygon fill="white" stroke="#bfbfbf" points="1431,-0.5 1431,-19.5 1481,-19.5 1481,-0.5 1431,-0.5"/>
<text text-anchor="middle" x="1456" y="-7.5" font-family="Helvetica,sans-Serif" font-size="10.00">net/if.h</text>
</a>
</g>
</g>
<!-- Node34&#45;&gt;Node40 -->
<g id="edge47" class="edge">
<title>Node34&#45;&gt;Node40</title>
<path fill="none" stroke="midnightblue" d="M1174.3,-57.91C1177.57,-57.23 1180.85,-56.58 1184,-56 1286.01,-37.11 1315.48,-41.43 1420.74,-20.07"/>
<polygon fill="midnightblue" stroke="midnightblue" points="1421.73,-23.44 1430.82,-17.99 1420.32,-16.58 1421.73,-23.44"/>
</g>
<!-- Node41 -->
<g id="node41" class="node">
<title>Node41</title>
<g id="a_node41"><a xlink:title=" ">
<polygon fill="white" stroke="#bfbfbf" points="1499,-0.5 1499,-19.5 1571,-19.5 1571,-0.5 1499,-0.5"/>
<text text-anchor="middle" x="1535" y="-7.5" font-family="Helvetica,sans-Serif" font-size="10.00">netinet/in.h</text>
</a>
</g>
</g>
<!-- Node34&#45;&gt;Node41 -->
<g id="edge48" class="edge">
<title>Node34&#45;&gt;Node41</title>
<path fill="none" stroke="midnightblue" d="M1174.28,-57.8C1177.55,-57.15 1180.84,-56.53 1184,-56 1315.88,-33.82 1353.02,-41.08 1488.75,-20.08"/>
<polygon fill="midnightblue" stroke="midnightblue" points="1489.36,-23.53 1498.7,-18.52 1488.27,-16.61 1489.36,-23.53"/>
</g>
<!-- Node42 -->
<g id="node42" class="node">
<title>Node42</title>
<g id="a_node42"><a xlink:title=" ">
<polygon fill="white" stroke="#bfbfbf" points="1589,-0.5 1589,-19.5 1667,-19.5 1667,-0.5 1589,-0.5"/>
<text text-anchor="middle" x="1628" y="-7.5" font-family="Helvetica,sans-Serif" font-size="10.00">netinet/tcp.h</text>
</a>
</g>
</g>
<!-- Node34&#45;&gt;Node42 -->
<g id="edge49" class="edge">
<title>Node34&#45;&gt;Node42</title>
<path fill="none" stroke="midnightblue" d="M1174.26,-57.71C1177.54,-57.08 1180.83,-56.49 1184,-56 1355.41,-29.5 1403.19,-43.76 1578.67,-20.06"/>
<polygon fill="midnightblue" stroke="midnightblue" points="1579.33,-23.5 1588.76,-18.67 1578.37,-16.56 1579.33,-23.5"/>
</g>
<!-- Node43 -->
<g id="node43" class="node">
<title>Node43</title>
<g id="a_node43"><a xlink:title=" ">
<polygon fill="white" stroke="#bfbfbf" points="1685.5,-0.5 1685.5,-19.5 1754.5,-19.5 1754.5,-0.5 1685.5,-0.5"/>
<text text-anchor="middle" x="1720" y="-7.5" font-family="Helvetica,sans-Serif" font-size="10.00">arpa/inet.h</text>
</a>
</g>
</g>
<!-- Node34&#45;&gt;Node43 -->
<g id="edge50" class="edge">
<title>Node34&#45;&gt;Node43</title>
<path fill="none" stroke="midnightblue" d="M1174.25,-57.66C1177.53,-57.03 1180.83,-56.46 1184,-56 1397.68,-24.89 1457.03,-49.27 1675.31,-19.89"/>
<polygon fill="midnightblue" stroke="midnightblue" points="1676.05,-23.32 1685.49,-18.5 1675.1,-16.39 1676.05,-23.32"/>
</g>
<!-- Node44 -->
<g id="node44" class="node">
<title>Node44</title>
<g id="a_node44"><a xlink:title=" ">
<polygon fill="white" stroke="#bfbfbf" points="1772.5,-0.5 1772.5,-19.5 1831.5,-19.5 1831.5,-0.5 1772.5,-0.5"/>
<text text-anchor="middle" x="1802" y="-7.5" font-family="Helvetica,sans-Serif" font-size="10.00">ifaddrs.h</text>
</a>
</g>
</g>
<!-- Node34&#45;&gt;Node44 -->
<g id="edge51" class="edge">
<title>Node34&#45;&gt;Node44</title>
<path fill="none" stroke="midnightblue" d="M1174.25,-57.62C1177.53,-57 1180.82,-56.44 1184,-56 1436.53,-20.66 1506.75,-56.95 1762.27,-20.02"/>
<polygon fill="midnightblue" stroke="midnightblue" points="1762.84,-23.48 1772.22,-18.56 1761.82,-16.55 1762.84,-23.48"/>
</g>
<!-- Node45 -->
<g id="node45" class="node">
<title>Node45</title>
<g id="a_node45"><a xlink:title=" ">
<polygon fill="white" stroke="#bfbfbf" points="775.5,-0.5 775.5,-19.5 828.5,-19.5 828.5,-0.5 775.5,-0.5"/>
<text text-anchor="middle" x="802" y="-7.5" font-family="Helvetica,sans-Serif" font-size="10.00">limits.h</text>
</a>
</g>
</g>
<!-- Node34&#45;&gt;Node45 -->
<g id="edge52" class="edge">
<title>Node34&#45;&gt;Node45</title>
<path fill="none" stroke="midnightblue" d="M1111.65,-61.41C1057.86,-55.03 944.37,-40.58 838.56,-19.93"/>
<polygon fill="midnightblue" stroke="midnightblue" points="839.16,-16.48 828.67,-17.98 837.8,-23.35 839.16,-16.48"/>
</g>
<!-- Node46 -->
<g id="node46" class="node">
<title>Node46</title>
<g id="a_node46"><a xlink:title=" ">
<polygon fill="white" stroke="#bfbfbf" points="846.5,-0.5 846.5,-19.5 899.5,-19.5 899.5,-0.5 846.5,-0.5"/>
<text text-anchor="middle" x="873" y="-7.5" font-family="Helvetica,sans-Serif" font-size="10.00">netdb.h</text>
</a>
</g>
</g>
<!-- Node34&#45;&gt;Node46 -->
<g id="edge53" class="edge">
<title>Node34&#45;&gt;Node46</title>
<path fill="none" stroke="midnightblue" d="M1111.85,-59.57C1068.74,-51.94 988.26,-37.25 909.76,-20.07"/>
<polygon fill="midnightblue" stroke="midnightblue" points="910.22,-16.58 899.7,-17.85 908.71,-23.42 910.22,-16.58"/>
</g>
<!-- Node47 -->
<g id="node47" class="node">
<title>Node47</title>
<g id="a_node47"><a xlink:title=" ">
<polygon fill="white" stroke="#bfbfbf" points="918,-0.5 918,-19.5 974,-19.5 974,-0.5 918,-0.5"/>
<text text-anchor="middle" x="946" y="-7.5" font-family="Helvetica,sans-Serif" font-size="10.00">unistd.h</text>
</a>
</g>
</g>
<!-- Node34&#45;&gt;Node47 -->
<g id="edge54" class="edge">
<title>Node34&#45;&gt;Node47</title>
<path fill="none" stroke="midnightblue" d="M1111.78,-56.44C1077.17,-46.96 1021.33,-31.65 984.16,-21.46"/>
<polygon fill="midnightblue" stroke="midnightblue" points="984.77,-18 974.2,-18.73 982.92,-24.75 984.77,-18"/>
</g>
</g>
</svg>
