<?xml version="1.0" encoding="UTF-8" standalone="no"?>
<!DOCTYPE svg PUBLIC "-//W3C//DTD SVG 1.1//EN"
 "http://www.w3.org/Graphics/SVG/1.1/DTD/svg11.dtd">
<!-- Generated by graphviz version 2.38.0 (20140413.2041)
 -->
<!-- Title: src/script/script.h Pages: 1 -->
<svg width="1129pt" height="252pt"
 viewBox="0.00 0.00 1128.84 252.00" xmlns="http://www.w3.org/2000/svg" xmlns:xlink="http://www.w3.org/1999/xlink">
<g id="graph0" class="graph" transform="scale(1 1) rotate(0) translate(4 248)">
<title>src/script/script.h</title>
<polygon fill="white" stroke="none" points="-4,4 -4,-248 1124.84,-248 1124.84,4 -4,4"/>
<!-- Node1 -->
<g id="node1" class="node"><title>Node1</title>
<polygon fill="#bfbfbf" stroke="black" points="584.344,-224.5 584.344,-243.5 682.344,-243.5 682.344,-224.5 584.344,-224.5"/>
<text text-anchor="middle" x="633.344" y="-231.5" font-family="Helvetica,sans-Serif" font-size="10.00">src/script/script.h</text>
</g>
<!-- Node2 -->
<g id="node2" class="node"><title>Node2</title>
<g id="a_node2"><a xlink:href="common_8h.html" target="_top" xlink:title="crypto/common.h">
<polygon fill="white" stroke="black" points="124.844,-168.5 124.844,-187.5 225.844,-187.5 225.844,-168.5 124.844,-168.5"/>
<text text-anchor="middle" x="175.344" y="-175.5" font-family="Helvetica,sans-Serif" font-size="10.00">crypto/common.h</text>
</a>
</g>
</g>
<!-- Node1&#45;&gt;Node2 -->
<g id="edge1" class="edge"><title>Node1&#45;&gt;Node2</title>
<path fill="none" stroke="midnightblue" d="M584.147,-227.444C510.619,-219.103 367.711,-202.748 246.344,-188 243.076,-187.603 239.723,-187.191 236.339,-186.773"/>
<polygon fill="midnightblue" stroke="midnightblue" points="236.499,-183.266 226.143,-185.504 235.634,-190.212 236.499,-183.266"/>
</g>
<!-- Node3 -->
<g id="node3" class="node"><title>Node3</title>
<polygon fill="white" stroke="#bfbfbf" points="96.8442,-0.5 96.8442,-19.5 149.844,-19.5 149.844,-0.5 96.8442,-0.5"/>
<text text-anchor="middle" x="123.344" y="-7.5" font-family="Helvetica,sans-Serif" font-size="10.00">stdint.h</text>
</g>
<!-- Node1&#45;&gt;Node3 -->
<g id="edge40" class="edge"><title>Node1&#45;&gt;Node3</title>
<path fill="none" stroke="midnightblue" d="M584.018,-232.219C471.687,-229.878 200.014,-220.89 115.344,-188 45.9802,-161.055 -29.2308,-117.716 12.3442,-56 28.7838,-31.5961 60.9635,-20.4218 86.4598,-15.3079"/>
<polygon fill="midnightblue" stroke="midnightblue" points="87.322,-18.7097 96.559,-13.5205 86.1021,-11.8169 87.322,-18.7097"/>
</g>
<!-- Node4 -->
<g id="node4" class="node"><title>Node4</title>
<polygon fill="white" stroke="#bfbfbf" points="193.844,-56.5 193.844,-75.5 246.844,-75.5 246.844,-56.5 193.844,-56.5"/>
<text text-anchor="middle" x="220.344" y="-63.5" font-family="Helvetica,sans-Serif" font-size="10.00">string.h</text>
</g>
<!-- Node1&#45;&gt;Node4 -->
<g id="edge41" class="edge"><title>Node1&#45;&gt;Node4</title>
<path fill="none" stroke="midnightblue" d="M583.997,-225.446C544.107,-218.424 486.958,-206.268 439.344,-188 362.7,-158.594 279.868,-106.663 241.753,-81.4891"/>
<polygon fill="midnightblue" stroke="midnightblue" points="243.32,-78.3274 233.057,-75.6955 239.439,-84.1529 243.32,-78.3274"/>
</g>
<!-- Node7 -->
<g id="node7" class="node"><title>Node7</title>
<g id="a_node7"><a xlink:href="prevector_8h.html" target="_top" xlink:title="prevector.h">
<polygon fill="white" stroke="black" points="427.844,-112.5 427.844,-131.5 498.844,-131.5 498.844,-112.5 427.844,-112.5"/>
<text text-anchor="middle" x="463.344" y="-119.5" font-family="Helvetica,sans-Serif" font-size="10.00">prevector.h</text>
</a>
</g>
</g>
<!-- Node1&#45;&gt;Node7 -->
<g id="edge8" class="edge"><title>Node1&#45;&gt;Node7</title>
<path fill="none" stroke="midnightblue" d="M620.005,-224.368C590.832,-205.492 521.121,-160.385 485.346,-137.237"/>
<polygon fill="midnightblue" stroke="midnightblue" points="486.919,-134.085 476.622,-131.591 483.116,-139.962 486.919,-134.085"/>
</g>
<!-- Node8 -->
<g id="node8" class="node"><title>Node8</title>
<polygon fill="white" stroke="#bfbfbf" points="265.344,-56.5 265.344,-75.5 321.344,-75.5 321.344,-56.5 265.344,-56.5"/>
<text text-anchor="middle" x="293.344" y="-63.5" font-family="Helvetica,sans-Serif" font-size="10.00">assert.h</text>
</g>
<!-- Node1&#45;&gt;Node8 -->
<g id="edge36" class="edge"><title>Node1&#45;&gt;Node8</title>
<path fill="none" stroke="midnightblue" d="M600.276,-224.446C548.415,-210.164 445.876,-178.382 368.344,-132 345.388,-118.267 322.692,-97.2853 308.383,-82.8973"/>
<polygon fill="midnightblue" stroke="midnightblue" points="310.832,-80.3947 301.349,-75.6703 305.816,-85.2773 310.832,-80.3947"/>
</g>
<!-- Node14 -->
<g id="node14" class="node"><title>Node14</title>
<g id="a_node14"><a xlink:href="serialize_8h.html" target="_top" xlink:title="serialize.h">
<polygon fill="white" stroke="black" points="600.844,-168.5 600.844,-187.5 665.844,-187.5 665.844,-168.5 600.844,-168.5"/>
<text text-anchor="middle" x="633.344" y="-175.5" font-family="Helvetica,sans-Serif" font-size="10.00">serialize.h</text>
</a>
</g>
</g>
<!-- Node1&#45;&gt;Node14 -->
<g id="edge17" class="edge"><title>Node1&#45;&gt;Node14</title>
<path fill="none" stroke="midnightblue" d="M633.344,-224.083C633.344,-217.006 633.344,-206.861 633.344,-197.986"/>
<polygon fill="midnightblue" stroke="midnightblue" points="636.844,-197.751 633.344,-187.751 629.844,-197.751 636.844,-197.751"/>
</g>
<!-- Node16 -->
<g id="node16" class="node"><title>Node16</title>
<polygon fill="white" stroke="#bfbfbf" points="951.344,-112.5 951.344,-131.5 993.344,-131.5 993.344,-112.5 951.344,-112.5"/>
<text text-anchor="middle" x="972.344" y="-119.5" font-family="Helvetica,sans-Serif" font-size="10.00">limits</text>
</g>
<!-- Node1&#45;&gt;Node16 -->
<g id="edge38" class="edge"><title>Node1&#45;&gt;Node16</title>
<path fill="none" stroke="midnightblue" d="M641.814,-224.14C656.114,-209.778 686.601,-181.65 718.344,-168 808.082,-129.413 841.936,-152.953 941.306,-131.92"/>
<polygon fill="midnightblue" stroke="midnightblue" points="942.126,-135.323 951.131,-129.742 940.611,-128.489 942.126,-135.323"/>
</g>
<!-- Node20 -->
<g id="node20" class="node"><title>Node20</title>
<polygon fill="white" stroke="#bfbfbf" points="1011.34,-112.5 1011.34,-131.5 1055.34,-131.5 1055.34,-112.5 1011.34,-112.5"/>
<text text-anchor="middle" x="1033.34" y="-119.5" font-family="Helvetica,sans-Serif" font-size="10.00">string</text>
</g>
<!-- Node1&#45;&gt;Node20 -->
<g id="edge42" class="edge"><title>Node1&#45;&gt;Node20</title>
<path fill="none" stroke="midnightblue" d="M649.52,-224.265C681.607,-206.963 750.719,-169.837 756.344,-168 858.303,-134.694 892.371,-154.232 1001.04,-131.989"/>
<polygon fill="midnightblue" stroke="midnightblue" points="1002.03,-135.357 1011.09,-129.858 1000.58,-128.509 1002.03,-135.357"/>
</g>
<!-- Node22 -->
<g id="node22" class="node"><title>Node22</title>
<polygon fill="white" stroke="#bfbfbf" points="1073.84,-112.5 1073.84,-131.5 1120.84,-131.5 1120.84,-112.5 1073.84,-112.5"/>
<text text-anchor="middle" x="1097.34" y="-119.5" font-family="Helvetica,sans-Serif" font-size="10.00">vector</text>
</g>
<!-- Node1&#45;&gt;Node22 -->
<g id="edge43" class="edge"><title>Node1&#45;&gt;Node22</title>
<path fill="none" stroke="midnightblue" d="M658.818,-224.481C683.191,-216.07 720.803,-202.41 752.344,-188 769.347,-180.232 771.559,-173.753 789.344,-168 903.533,-131.062 941.493,-154.935 1063.54,-131.859"/>
<polygon fill="midnightblue" stroke="midnightblue" points="1064.5,-135.237 1073.64,-129.878 1063.16,-128.367 1064.5,-135.237"/>
</g>
<!-- Node24 -->
<g id="node24" class="node"><title>Node24</title>
<polygon fill="white" stroke="#bfbfbf" points="798.844,-168.5 798.844,-187.5 845.844,-187.5 845.844,-168.5 798.844,-168.5"/>
<text text-anchor="middle" x="822.344" y="-175.5" font-family="Helvetica,sans-Serif" font-size="10.00">climits</text>
</g>
<!-- Node1&#45;&gt;Node24 -->
<g id="edge37" class="edge"><title>Node1&#45;&gt;Node24</title>
<path fill="none" stroke="midnightblue" d="M663.292,-224.444C697.492,-214.672 753.298,-198.727 788.896,-188.557"/>
<polygon fill="midnightblue" stroke="midnightblue" points="790.153,-191.838 798.806,-185.725 788.23,-185.107 790.153,-191.838"/>
</g>
<!-- Node25 -->
<g id="node25" class="node"><title>Node25</title>
<polygon fill="white" stroke="#bfbfbf" points="864.344,-168.5 864.344,-187.5 928.344,-187.5 928.344,-168.5 864.344,-168.5"/>
<text text-anchor="middle" x="896.344" y="-175.5" font-family="Helvetica,sans-Serif" font-size="10.00">stdexcept</text>
</g>
<!-- Node1&#45;&gt;Node25 -->
<g id="edge39" class="edge"><title>Node1&#45;&gt;Node25</title>
<path fill="none" stroke="midnightblue" d="M676.151,-224.419C720.691,-215.458 792.445,-200.934 854.344,-188 854.445,-187.979 854.545,-187.958 854.646,-187.937"/>
<polygon fill="midnightblue" stroke="midnightblue" points="855.185,-191.4 864.248,-185.913 853.741,-184.551 855.185,-191.4"/>
</g>
<!-- Node2&#45;&gt;Node3 -->
<g id="edge2" class="edge"><title>Node2&#45;&gt;Node3</title>
<path fill="none" stroke="midnightblue" d="M145.407,-168.47C107.028,-155.656 42.5504,-127.293 18.3442,-76 3.28953,-44.0994 50.9578,-26.3547 86.9435,-17.7469"/>
<polygon fill="midnightblue" stroke="midnightblue" points="87.7282,-21.1579 96.7216,-15.5572 86.1985,-14.3271 87.7282,-21.1579"/>
</g>
<!-- Node2&#45;&gt;Node4 -->
<g id="edge3" class="edge"><title>Node2&#45;&gt;Node4</title>
<path fill="none" stroke="midnightblue" d="M181.462,-168.413C187.487,-159.625 196.597,-145.396 202.344,-132 208.837,-116.868 213.628,-98.7465 216.628,-85.4863"/>
<polygon fill="midnightblue" stroke="midnightblue" points="220.06,-86.1738 218.724,-75.6634 213.214,-84.7126 220.06,-86.1738"/>
</g>
<!-- Node5 -->
<g id="node5" class="node"><title>Node5</title>
<g id="a_node5"><a xlink:href="endian_8h.html" target="_top" xlink:title="compat/endian.h">
<polygon fill="white" stroke="black" points="95.3442,-112.5 95.3442,-131.5 193.344,-131.5 193.344,-112.5 95.3442,-112.5"/>
<text text-anchor="middle" x="144.344" y="-119.5" font-family="Helvetica,sans-Serif" font-size="10.00">compat/endian.h</text>
</a>
</g>
</g>
<!-- Node2&#45;&gt;Node5 -->
<g id="edge4" class="edge"><title>Node2&#45;&gt;Node5</title>
<path fill="none" stroke="midnightblue" d="M170.225,-168.083C165.937,-160.613 159.686,-149.724 154.402,-140.52"/>
<polygon fill="midnightblue" stroke="midnightblue" points="157.382,-138.681 149.368,-131.751 151.311,-142.166 157.382,-138.681"/>
</g>
<!-- Node5&#45;&gt;Node3 -->
<g id="edge7" class="edge"><title>Node5&#45;&gt;Node3</title>
<path fill="none" stroke="midnightblue" d="M146.026,-112.439C148.18,-99.8661 151.101,-75.7576 146.344,-56 144.037,-46.4183 139.327,-36.5813 134.766,-28.5579"/>
<polygon fill="midnightblue" stroke="midnightblue" points="137.634,-26.537 129.449,-19.8095 131.652,-30.1727 137.634,-26.537"/>
</g>
<!-- Node6 -->
<g id="node6" class="node"><title>Node6</title>
<g id="a_node6"><a xlink:href="byteswap_8h.html" target="_top" xlink:title="compat/byteswap.h">
<polygon fill="white" stroke="black" points="27.3442,-56.5 27.3442,-75.5 137.344,-75.5 137.344,-56.5 27.3442,-56.5"/>
<text text-anchor="middle" x="82.3442" y="-63.5" font-family="Helvetica,sans-Serif" font-size="10.00">compat/byteswap.h</text>
</a>
</g>
</g>
<!-- Node5&#45;&gt;Node6 -->
<g id="edge5" class="edge"><title>Node5&#45;&gt;Node6</title>
<path fill="none" stroke="midnightblue" d="M134.383,-112.324C125.218,-104.341 111.407,-92.3128 100.316,-82.6529"/>
<polygon fill="midnightblue" stroke="midnightblue" points="102.326,-79.7624 92.4868,-75.8339 97.7289,-85.041 102.326,-79.7624"/>
</g>
<!-- Node6&#45;&gt;Node3 -->
<g id="edge6" class="edge"><title>Node6&#45;&gt;Node3</title>
<path fill="none" stroke="midnightblue" d="M89.1145,-56.083C94.9058,-48.4554 103.403,-37.2645 110.482,-27.9408"/>
<polygon fill="midnightblue" stroke="midnightblue" points="113.44,-29.8321 116.7,-19.7511 107.865,-25.5991 113.44,-29.8321"/>
</g>
<!-- Node7&#45;&gt;Node3 -->
<g id="edge11" class="edge"><title>Node7&#45;&gt;Node3</title>
<path fill="none" stroke="midnightblue" d="M444.665,-112.435C425.426,-103.547 394.627,-89.1343 368.344,-76 351.272,-67.4686 348.277,-62.5312 330.344,-56 272.684,-35 202.248,-22.2577 160.186,-15.9301"/>
<polygon fill="midnightblue" stroke="midnightblue" points="160.531,-12.4433 150.129,-14.4584 159.517,-19.3695 160.531,-12.4433"/>
</g>
<!-- Node7&#45;&gt;Node4 -->
<g id="edge12" class="edge"><title>Node7&#45;&gt;Node4</title>
<path fill="none" stroke="midnightblue" d="M427.739,-113.609C388.372,-105.36 322.839,-91.4017 256.802,-76.0506"/>
<polygon fill="midnightblue" stroke="midnightblue" points="257.592,-72.641 247.058,-73.7761 256.001,-79.4578 257.592,-72.641"/>
</g>
<!-- Node7&#45;&gt;Node8 -->
<g id="edge9" class="edge"><title>Node7&#45;&gt;Node8</title>
<path fill="none" stroke="midnightblue" d="M436.407,-112.444C407.684,-103.32 362.016,-88.8133 330.023,-78.6509"/>
<polygon fill="midnightblue" stroke="midnightblue" points="330.746,-75.2081 320.155,-75.5164 328.626,-81.8797 330.746,-75.2081"/>
</g>
<!-- Node9 -->
<g id="node9" class="node"><title>Node9</title>
<polygon fill="white" stroke="#bfbfbf" points="377.844,-56.5 377.844,-75.5 428.844,-75.5 428.844,-56.5 377.844,-56.5"/>
<text text-anchor="middle" x="403.344" y="-63.5" font-family="Helvetica,sans-Serif" font-size="10.00">stdlib.h</text>
</g>
<!-- Node7&#45;&gt;Node9 -->
<g id="edge10" class="edge"><title>Node7&#45;&gt;Node9</title>
<path fill="none" stroke="midnightblue" d="M453.704,-112.324C444.835,-104.341 431.469,-92.3128 420.736,-82.6529"/>
<polygon fill="midnightblue" stroke="midnightblue" points="422.934,-79.922 413.16,-75.8339 418.251,-85.1251 422.934,-79.922"/>
</g>
<!-- Node10 -->
<g id="node10" class="node"><title>Node10</title>
<polygon fill="white" stroke="#bfbfbf" points="711.344,-56.5 711.344,-75.5 773.344,-75.5 773.344,-56.5 711.344,-56.5"/>
<text text-anchor="middle" x="742.344" y="-63.5" font-family="Helvetica,sans-Serif" font-size="10.00">algorithm</text>
</g>
<!-- Node7&#45;&gt;Node10 -->
<g id="edge13" class="edge"><title>Node7&#45;&gt;Node10</title>
<path fill="none" stroke="midnightblue" d="M499.054,-114.681C543.922,-106.654 623.524,-92.1179 700.998,-76.2255"/>
<polygon fill="midnightblue" stroke="midnightblue" points="701.837,-79.6263 710.924,-74.1793 700.423,-72.7704 701.837,-79.6263"/>
</g>
<!-- Node11 -->
<g id="node11" class="node"><title>Node11</title>
<polygon fill="white" stroke="#bfbfbf" points="555.344,-56.5 555.344,-75.5 607.344,-75.5 607.344,-56.5 555.344,-56.5"/>
<text text-anchor="middle" x="581.344" y="-63.5" font-family="Helvetica,sans-Serif" font-size="10.00">cstddef</text>
</g>
<!-- Node7&#45;&gt;Node11 -->
<g id="edge14" class="edge"><title>Node7&#45;&gt;Node11</title>
<path fill="none" stroke="midnightblue" d="M482.042,-112.444C501.289,-103.636 531.497,-89.8116 553.544,-79.722"/>
<polygon fill="midnightblue" stroke="midnightblue" points="555.098,-82.8603 562.734,-75.5164 552.185,-76.4951 555.098,-82.8603"/>
</g>
<!-- Node12 -->
<g id="node12" class="node"><title>Node12</title>
<polygon fill="white" stroke="#bfbfbf" points="447.344,-56.5 447.344,-75.5 499.344,-75.5 499.344,-56.5 447.344,-56.5"/>
<text text-anchor="middle" x="473.344" y="-63.5" font-family="Helvetica,sans-Serif" font-size="10.00">iterator</text>
</g>
<!-- Node7&#45;&gt;Node12 -->
<g id="edge15" class="edge"><title>Node7&#45;&gt;Node12</title>
<path fill="none" stroke="midnightblue" d="M464.995,-112.083C466.321,-104.927 468.227,-94.6353 469.883,-85.6911"/>
<polygon fill="midnightblue" stroke="midnightblue" points="473.344,-86.2212 471.724,-75.7511 466.461,-84.9466 473.344,-86.2212"/>
</g>
<!-- Node13 -->
<g id="node13" class="node"><title>Node13</title>
<polygon fill="white" stroke="#bfbfbf" points="625.344,-56.5 625.344,-75.5 693.344,-75.5 693.344,-56.5 625.344,-56.5"/>
<text text-anchor="middle" x="659.344" y="-63.5" font-family="Helvetica,sans-Serif" font-size="10.00">type_traits</text>
</g>
<!-- Node7&#45;&gt;Node13 -->
<g id="edge16" class="edge"><title>Node7&#45;&gt;Node13</title>
<path fill="none" stroke="midnightblue" d="M494.401,-112.444C527.948,-103.201 581.541,-88.4356 618.485,-78.2572"/>
<polygon fill="midnightblue" stroke="midnightblue" points="619.722,-81.5469 628.433,-75.5164 617.862,-74.7984 619.722,-81.5469"/>
</g>
<!-- Node14&#45;&gt;Node3 -->
<g id="edge26" class="edge"><title>Node14&#45;&gt;Node3</title>
<path fill="none" stroke="midnightblue" d="M607.04,-168.404C588.215,-161.156 563.301,-149.191 546.344,-132 519.824,-105.114 539.26,-77.6884 508.344,-56 452.739,-16.9915 245.437,-11.5217 160.251,-10.9527"/>
<polygon fill="midnightblue" stroke="midnightblue" points="160.028,-7.45175 150.012,-10.9044 159.995,-14.4517 160.028,-7.45175"/>
</g>
<!-- Node14&#45;&gt;Node4 -->
<g id="edge28" class="edge"><title>Node14&#45;&gt;Node4</title>
<path fill="none" stroke="midnightblue" d="M600.53,-174.045C549.868,-168.901 449.928,-156.436 368.344,-132 323.42,-118.544 274.082,-94.9583 245.235,-80.2013"/>
<polygon fill="midnightblue" stroke="midnightblue" points="246.764,-77.0514 236.274,-75.5626 243.546,-83.268 246.764,-77.0514"/>
</g>
<!-- Node14&#45;&gt;Node5 -->
<g id="edge18" class="edge"><title>Node14&#45;&gt;Node5</title>
<path fill="none" stroke="midnightblue" d="M600.5,-173.373C519.159,-164.391 307.438,-141.01 203.565,-129.54"/>
<polygon fill="midnightblue" stroke="midnightblue" points="203.88,-126.053 193.556,-128.434 203.111,-133.011 203.88,-126.053"/>
</g>
<!-- Node14&#45;&gt;Node7 -->
<g id="edge31" class="edge"><title>Node14&#45;&gt;Node7</title>
<path fill="none" stroke="midnightblue" d="M606.407,-168.444C577.684,-159.32 532.016,-144.813 500.023,-134.651"/>
<polygon fill="midnightblue" stroke="midnightblue" points="500.746,-131.208 490.155,-131.516 498.626,-137.88 500.746,-131.208"/>
</g>
<!-- Node14&#45;&gt;Node8 -->
<g id="edge20" class="edge"><title>Node14&#45;&gt;Node8</title>
<path fill="none" stroke="midnightblue" d="M600.534,-172.974C557.703,-167.082 480.836,-154.311 418.344,-132 380.722,-118.568 340.228,-95.8189 315.838,-81.1078"/>
<polygon fill="midnightblue" stroke="midnightblue" points="317.379,-77.9472 307.022,-75.715 313.726,-83.9187 317.379,-77.9472"/>
</g>
<!-- Node14&#45;&gt;Node10 -->
<g id="edge19" class="edge"><title>Node14&#45;&gt;Node10</title>
<path fill="none" stroke="midnightblue" d="M633.717,-168.408C634.729,-154.919 638.478,-128.605 652.344,-112 665.099,-96.7266 684.321,-86.1359 701.73,-79.0846"/>
<polygon fill="midnightblue" stroke="midnightblue" points="703.043,-82.3301 711.163,-75.5241 700.571,-75.7811 703.043,-82.3301"/>
</g>
<!-- Node15 -->
<g id="node15" class="node"><title>Node15</title>
<polygon fill="white" stroke="#bfbfbf" points="661.344,-112.5 661.344,-131.5 691.344,-131.5 691.344,-112.5 661.344,-112.5"/>
<text text-anchor="middle" x="676.344" y="-119.5" font-family="Helvetica,sans-Serif" font-size="10.00">ios</text>
</g>
<!-- Node14&#45;&gt;Node15 -->
<g id="edge21" class="edge"><title>Node14&#45;&gt;Node15</title>
<path fill="none" stroke="midnightblue" d="M640.445,-168.083C646.581,-160.377 655.614,-149.033 663.083,-139.653"/>
<polygon fill="midnightblue" stroke="midnightblue" points="665.884,-141.754 669.376,-131.751 660.408,-137.394 665.884,-141.754"/>
</g>
<!-- Node14&#45;&gt;Node16 -->
<g id="edge22" class="edge"><title>Node14&#45;&gt;Node16</title>
<path fill="none" stroke="midnightblue" d="M665.921,-170.532C670.749,-169.64 675.671,-168.768 680.344,-168 793.156,-149.462 825.719,-156.544 941.205,-131.953"/>
<polygon fill="midnightblue" stroke="midnightblue" points="942.111,-135.338 951.145,-129.803 940.631,-128.496 942.111,-135.338"/>
</g>
<!-- Node17 -->
<g id="node17" class="node"><title>Node17</title>
<polygon fill="white" stroke="#bfbfbf" points="709.344,-112.5 709.344,-131.5 747.344,-131.5 747.344,-112.5 709.344,-112.5"/>
<text text-anchor="middle" x="728.344" y="-119.5" font-family="Helvetica,sans-Serif" font-size="10.00">map</text>
</g>
<!-- Node14&#45;&gt;Node17 -->
<g id="edge23" class="edge"><title>Node14&#45;&gt;Node17</title>
<path fill="none" stroke="midnightblue" d="M648.608,-168.324C663.566,-159.822 686.599,-146.729 704.071,-136.797"/>
<polygon fill="midnightblue" stroke="midnightblue" points="706.155,-139.639 713.119,-131.655 702.695,-133.553 706.155,-139.639"/>
</g>
<!-- Node18 -->
<g id="node18" class="node"><title>Node18</title>
<polygon fill="white" stroke="#bfbfbf" points="765.844,-112.5 765.844,-131.5 822.844,-131.5 822.844,-112.5 765.844,-112.5"/>
<text text-anchor="middle" x="794.344" y="-119.5" font-family="Helvetica,sans-Serif" font-size="10.00">memory</text>
</g>
<!-- Node14&#45;&gt;Node18 -->
<g id="edge24" class="edge"><title>Node14&#45;&gt;Node18</title>
<path fill="none" stroke="midnightblue" d="M658.855,-168.444C685.94,-159.359 728.934,-144.939 759.213,-134.783"/>
<polygon fill="midnightblue" stroke="midnightblue" points="760.585,-138.015 768.953,-131.516 758.359,-131.378 760.585,-138.015"/>
</g>
<!-- Node19 -->
<g id="node19" class="node"><title>Node19</title>
<polygon fill="white" stroke="#bfbfbf" points="841.344,-112.5 841.344,-131.5 873.344,-131.5 873.344,-112.5 841.344,-112.5"/>
<text text-anchor="middle" x="857.344" y="-119.5" font-family="Helvetica,sans-Serif" font-size="10.00">set</text>
</g>
<!-- Node14&#45;&gt;Node19 -->
<g id="edge25" class="edge"><title>Node14&#45;&gt;Node19</title>
<path fill="none" stroke="midnightblue" d="M665.858,-170.752C705.316,-162.908 773.723,-148.467 831.344,-132 831.445,-131.971 831.545,-131.942 831.646,-131.913"/>
<polygon fill="midnightblue" stroke="midnightblue" points="832.723,-135.244 841.204,-128.894 830.615,-128.569 832.723,-135.244"/>
</g>
<!-- Node14&#45;&gt;Node20 -->
<g id="edge27" class="edge"><title>Node14&#45;&gt;Node20</title>
<path fill="none" stroke="midnightblue" d="M666.042,-173.318C744.736,-164.417 942,-141.849 1000.97,-131.811"/>
<polygon fill="midnightblue" stroke="midnightblue" points="1001.91,-135.195 1011.1,-129.923 1000.63,-128.314 1001.91,-135.195"/>
</g>
<!-- Node21 -->
<g id="node21" class="node"><title>Node21</title>
<polygon fill="white" stroke="#bfbfbf" points="891.344,-112.5 891.344,-131.5 933.344,-131.5 933.344,-112.5 891.344,-112.5"/>
<text text-anchor="middle" x="912.344" y="-119.5" font-family="Helvetica,sans-Serif" font-size="10.00">utility</text>
</g>
<!-- Node14&#45;&gt;Node21 -->
<g id="edge29" class="edge"><title>Node14&#45;&gt;Node21</title>
<path fill="none" stroke="midnightblue" d="M665.95,-170.7C670.774,-169.784 675.688,-168.861 680.344,-168 766.952,-151.991 791.944,-153.041 881.378,-132.013"/>
<polygon fill="midnightblue" stroke="midnightblue" points="882.202,-135.415 891.121,-129.696 880.582,-128.605 882.202,-135.415"/>
</g>
<!-- Node14&#45;&gt;Node22 -->
<g id="edge30" class="edge"><title>Node14&#45;&gt;Node22</title>
<path fill="none" stroke="midnightblue" d="M665.944,-174.287C749.546,-167.224 970.925,-147.823 1063.77,-131.747"/>
<polygon fill="midnightblue" stroke="midnightblue" points="1064.44,-135.183 1073.66,-129.954 1063.19,-128.295 1064.44,-135.183"/>
</g>
<!-- Node23 -->
<g id="node23" class="node"><title>Node23</title>
<g id="a_node23"><a xlink:href="span_8h.html" target="_top" xlink:title="span.h">
<polygon fill="white" stroke="black" points="555.844,-112.5 555.844,-131.5 604.844,-131.5 604.844,-112.5 555.844,-112.5"/>
<text text-anchor="middle" x="580.344" y="-119.5" font-family="Helvetica,sans-Serif" font-size="10.00">span.h</text>
</a>
</g>
</g>
<!-- Node14&#45;&gt;Node23 -->
<g id="edge32" class="edge"><title>Node14&#45;&gt;Node23</title>
<path fill="none" stroke="midnightblue" d="M624.592,-168.083C616.874,-160.22 605.44,-148.569 596.128,-139.081"/>
<polygon fill="midnightblue" stroke="midnightblue" points="598.436,-136.436 588.933,-131.751 593.44,-141.34 598.436,-136.436"/>
</g>
<!-- Node23&#45;&gt;Node10 -->
<g id="edge35" class="edge"><title>Node23&#45;&gt;Node10</title>
<path fill="none" stroke="midnightblue" d="M604.949,-112.799C632.184,-103.72 676.307,-89.0123 707.183,-78.7203"/>
<polygon fill="midnightblue" stroke="midnightblue" points="708.324,-82.0294 716.704,-75.5467 706.11,-75.3886 708.324,-82.0294"/>
</g>
<!-- Node23&#45;&gt;Node11 -->
<g id="edge34" class="edge"><title>Node23&#45;&gt;Node11</title>
<path fill="none" stroke="midnightblue" d="M580.509,-112.083C580.64,-105.006 580.828,-94.8611 580.993,-85.9865"/>
<polygon fill="midnightblue" stroke="midnightblue" points="584.496,-85.8142 581.182,-75.7511 577.497,-85.6845 584.496,-85.8142"/>
</g>
<!-- Node23&#45;&gt;Node13 -->
<g id="edge33" class="edge"><title>Node23&#45;&gt;Node13</title>
<path fill="none" stroke="midnightblue" d="M593.037,-112.324C605.245,-103.979 623.923,-91.2122 638.347,-81.3524"/>
<polygon fill="midnightblue" stroke="midnightblue" points="640.402,-84.1871 646.683,-75.6545 636.452,-78.4082 640.402,-84.1871"/>
</g>
</g>
</svg>
