<?xml version="1.0" encoding="UTF-8" standalone="no"?>
<!DOCTYPE svg PUBLIC "-//W3C//DTD SVG 1.1//EN"
 "http://www.w3.org/Graphics/SVG/1.1/DTD/svg11.dtd">
<!-- Generated by graphviz version 2.40.1 (20161225.0304)
 -->
<!-- Title: src/secp256k1/src/hash.h Pages: 1 -->
<svg width="137pt" height="84pt"
 viewBox="0.00 0.00 137.00 84.00" xmlns="http://www.w3.org/2000/svg" xmlns:xlink="http://www.w3.org/1999/xlink">
<g id="graph0" class="graph" transform="scale(1 1) rotate(0) translate(4 80)">
<title>src/secp256k1/src/hash.h</title>
<polygon fill="#ffffff" stroke="transparent" points="-4,4 -4,-80 133,-80 133,4 -4,4"/>
<!-- Node0 -->
<g id="node1" class="node">
<title>Node0</title>
<polygon fill="#bfbfbf" stroke="#000000" points="0,-56.5 0,-75.5 129,-75.5 129,-56.5 0,-56.5"/>
<text text-anchor="middle" x="64.5" y="-63.5" font-family="Helvetica,sans-Serif" font-size="10.00" fill="#000000">src/secp256k1/src/hash.h</text>
</g>
<!-- Node1 -->
<g id="node2" class="node">
<title>Node1</title>
<polygon fill="#ffffff" stroke="#bfbfbf" points="7.5,-.5 7.5,-19.5 55.5,-19.5 55.5,-.5 7.5,-.5"/>
<text text-anchor="middle" x="31.5" y="-7.5" font-family="Helvetica,sans-Serif" font-size="10.00" fill="#000000">stdlib.h</text>
</g>
<!-- Node0&#45;&gt;Node1 -->
<g id="edge1" class="edge">
<title>Node0&#45;&gt;Node1</title>
<path fill="none" stroke="#191970" d="M58.7518,-56.2455C54.2565,-48.617 47.8752,-37.7881 42.4175,-28.5267"/>
<polygon fill="#191970" stroke="#191970" points="45.2747,-26.4811 37.1823,-19.6427 39.2439,-30.035 45.2747,-26.4811"/>
</g>
<!-- Node2 -->
<g id="node3" class="node">
<title>Node2</title>
<polygon fill="#ffffff" stroke="#bfbfbf" points="74,-.5 74,-19.5 123,-19.5 123,-.5 74,-.5"/>
<text text-anchor="middle" x="98.5" y="-7.5" font-family="Helvetica,sans-Serif" font-size="10.00" fill="#000000">stdint.h</text>
</g>
<!-- Node0&#45;&gt;Node2 -->
<g id="edge2" class="edge">
<title>Node0&#45;&gt;Node2</title>
<path fill="none" stroke="#191970" d="M70.4223,-56.2455C75.1027,-48.5367 81.7673,-37.5598 87.4289,-28.2348"/>
<polygon fill="#191970" stroke="#191970" points="90.4475,-30.007 92.6455,-19.6427 84.4639,-26.3741 90.4475,-30.007"/>
</g>
</g>
</svg>
