<?xml version="1.0" encoding="UTF-8" standalone="no"?>
<!DOCTYPE svg PUBLIC "-//W3C//DTD SVG 1.1//EN"
 "http://www.w3.org/Graphics/SVG/1.1/DTD/svg11.dtd">
<!-- Generated by graphviz version 2.38.0 (20140413.2041)
 -->
<!-- Title: secp256k1_ec_pubkey_serialize Pages: 1 -->
<svg width="1393pt" height="1125pt"
 viewBox="0.00 0.00 1393.00 1124.79" xmlns="http://www.w3.org/2000/svg" xmlns:xlink="http://www.w3.org/1999/xlink">
<g id="graph0" class="graph" transform="scale(1 1) rotate(0) translate(4 1120.79)">
<title>secp256k1_ec_pubkey_serialize</title>
<polygon fill="white" stroke="none" points="-4,4 -4,-1120.79 1389,-1120.79 1389,4 -4,4"/>
<!-- Node1 -->
<g id="node1" class="node"><title>Node1</title>
<polygon fill="#bfbfbf" stroke="black" points="0,-323 0,-353 125,-353 125,-323 0,-323"/>
<text text-anchor="start" x="8" y="-341" font-family="Helvetica,sans-Serif" font-size="10.00">secp256k1_ec_pubkey</text>
<text text-anchor="middle" x="62.5" y="-330" font-family="Helvetica,sans-Serif" font-size="10.00">_serialize</text>
</g>
<!-- Node2 -->
<g id="node2" class="node"><title>Node2</title>
<g id="a_node2"><a xlink:href="class_c_key.html#ae4b61da6ec62f676fe6362ac5fc26aca" target="_top" xlink:title="Compute the public key from a private key. ">
<polygon fill="white" stroke="black" points="206.5,-798.5 206.5,-817.5 303.5,-817.5 303.5,-798.5 206.5,-798.5"/>
<text text-anchor="middle" x="255" y="-805.5" font-family="Helvetica,sans-Serif" font-size="10.00">CKey::GetPubKey</text>
</a>
</g>
</g>
<!-- Node1&#45;&gt;Node2 -->
<g id="edge1" class="edge"><title>Node1&#45;&gt;Node2</title>
<path fill="none" stroke="midnightblue" d="M72.2021,-362.469C88.7309,-408.631 126.138,-511.603 161,-597 193.077,-675.573 235.805,-768.711 249.545,-798.407"/>
<polygon fill="midnightblue" stroke="midnightblue" points="75.4805,-361.242 68.8202,-353.003 68.8885,-363.597 75.4805,-361.242"/>
</g>
<!-- Node27 -->
<g id="node27" class="node"><title>Node27</title>
<g id="a_node27"><a xlink:href="class_c_pub_key.html#a169505e735a02db385486b0affeb565c" target="_top" xlink:title="Recover a public key from a compact signature. ">
<polygon fill="white" stroke="black" points="183,-568.5 183,-587.5 327,-587.5 327,-568.5 183,-568.5"/>
<text text-anchor="middle" x="255" y="-575.5" font-family="Helvetica,sans-Serif" font-size="10.00">CPubKey::RecoverCompact</text>
</a>
</g>
</g>
<!-- Node1&#45;&gt;Node27 -->
<g id="edge35" class="edge"><title>Node1&#45;&gt;Node27</title>
<path fill="none" stroke="midnightblue" d="M67.025,-363.321C74.9012,-409.797 98.4305,-508.566 161,-559 167.415,-564.171 174.872,-568.047 182.719,-570.936"/>
<polygon fill="midnightblue" stroke="midnightblue" points="70.4436,-362.531 65.4204,-353.203 63.53,-363.628 70.4436,-362.531"/>
</g>
<!-- Node29 -->
<g id="node29" class="node"><title>Node29</title>
<g id="a_node29"><a xlink:href="class_c_pub_key.html#a572689418fecf47b300a11519bc3da36" target="_top" xlink:title="Turn this public key into an uncompressed public key. ">
<polygon fill="white" stroke="black" points="193,-530.5 193,-549.5 317,-549.5 317,-530.5 193,-530.5"/>
<text text-anchor="middle" x="255" y="-537.5" font-family="Helvetica,sans-Serif" font-size="10.00">CPubKey::Decompress</text>
</a>
</g>
</g>
<!-- Node1&#45;&gt;Node29 -->
<g id="edge37" class="edge"><title>Node1&#45;&gt;Node29</title>
<path fill="none" stroke="midnightblue" d="M69.4491,-362.947C80.357,-402.968 107.514,-481.061 161,-521 170.243,-527.902 181.385,-532.45 192.696,-535.415"/>
<polygon fill="midnightblue" stroke="midnightblue" points="72.8141,-361.98 66.907,-353.185 66.04,-363.744 72.8141,-361.98"/>
</g>
<!-- Node30 -->
<g id="node30" class="node"><title>Node30</title>
<g id="a_node30"><a xlink:href="class_c_pub_key.html#add183528b09791bdd0f982e63308d263" target="_top" xlink:title="Derive BIP32 child pubkey. ">
<polygon fill="white" stroke="black" points="208,-492.5 208,-511.5 302,-511.5 302,-492.5 208,-492.5"/>
<text text-anchor="middle" x="255" y="-499.5" font-family="Helvetica,sans-Serif" font-size="10.00">CPubKey::Derive</text>
</a>
</g>
</g>
<!-- Node1&#45;&gt;Node30 -->
<g id="edge38" class="edge"><title>Node1&#45;&gt;Node30</title>
<path fill="none" stroke="midnightblue" d="M73.0373,-362.29C87.1477,-394.892 116.777,-452.151 161,-482 174.689,-491.239 191.874,-496.312 207.735,-499.064"/>
<polygon fill="midnightblue" stroke="midnightblue" points="76.2473,-360.894 69.1574,-353.021 69.7902,-363.597 76.2473,-360.894"/>
</g>
<!-- Node31 -->
<g id="node31" class="node"><title>Node31</title>
<g id="a_node31"><a xlink:href="lax__der__privatekey__parsing_8h.html#ab0172ae6ae0adcf65b3d94960ece8e31" target="_top" xlink:title="Export a private key in DER format. ">
<polygon fill="white" stroke="black" points="193,-38.5 193,-57.5 317,-57.5 317,-38.5 193,-38.5"/>
<text text-anchor="middle" x="255" y="-45.5" font-family="Helvetica,sans-Serif" font-size="10.00">ec_privkey_export_der</text>
</a>
</g>
</g>
<!-- Node1&#45;&gt;Node31 -->
<g id="edge39" class="edge"><title>Node1&#45;&gt;Node31</title>
<path fill="none" stroke="midnightblue" d="M65.2068,-312.482C70.1632,-259.488 89.1904,-137.045 161,-72 169.898,-63.9401 181.148,-58.5154 192.722,-54.8812"/>
<polygon fill="midnightblue" stroke="midnightblue" points="61.6987,-312.432 64.3488,-322.69 68.6741,-313.019 61.6987,-312.432"/>
</g>
<!-- Node32 -->
<g id="node32" class="node"><title>Node32</title>
<g id="a_node32"><a xlink:href="tests_8c.html#a3fc9dc1908215215a68690ea1bfa8bcd" target="_top" xlink:title="test_ecdsa_end_to_end">
<polygon fill="white" stroke="black" points="413.5,-76.5 413.5,-95.5 544.5,-95.5 544.5,-76.5 413.5,-76.5"/>
<text text-anchor="middle" x="479" y="-83.5" font-family="Helvetica,sans-Serif" font-size="10.00">test_ecdsa_end_to_end</text>
</a>
</g>
</g>
<!-- Node1&#45;&gt;Node32 -->
<g id="edge66" class="edge"><title>Node1&#45;&gt;Node32</title>
<path fill="none" stroke="midnightblue" d="M65.9505,-312.79C72.1442,-264.304 93.1372,-158.564 161,-110 200.049,-82.0561 332.462,-81.011 413.282,-83.2086"/>
<polygon fill="midnightblue" stroke="midnightblue" points="62.4699,-312.421 64.7853,-322.76 69.4226,-313.234 62.4699,-312.421"/>
</g>
<!-- Node37 -->
<g id="node37" class="node"><title>Node37</title>
<g id="a_node37"><a xlink:href="bench__recover_8c.html#a6bbc6888c36d93d55e5410b25121db10" target="_top" xlink:title="bench_recover">
<polygon fill="white" stroke="black" points="211.5,-240.5 211.5,-259.5 298.5,-259.5 298.5,-240.5 211.5,-240.5"/>
<text text-anchor="middle" x="255" y="-247.5" font-family="Helvetica,sans-Serif" font-size="10.00">bench_recover</text>
</a>
</g>
</g>
<!-- Node1&#45;&gt;Node37 -->
<g id="edge47" class="edge"><title>Node1&#45;&gt;Node37</title>
<path fill="none" stroke="midnightblue" d="M87.8695,-316.38C106.608,-300.894 133.815,-280.773 161,-269 176.727,-262.189 195.024,-257.776 211.208,-254.937"/>
<polygon fill="midnightblue" stroke="midnightblue" points="85.5192,-313.783 80.1344,-322.908 90.0339,-319.133 85.5192,-313.783"/>
</g>
<!-- Node39 -->
<g id="node39" class="node"><title>Node39</title>
<g id="a_node39"><a xlink:href="bench__verify_8c.html#a840291bc02cba5474a4cb46a9b9566fe" target="_top" xlink:title="main">
<polygon fill="white" stroke="black" points="234.5,-328.5 234.5,-347.5 275.5,-347.5 275.5,-328.5 234.5,-328.5"/>
<text text-anchor="middle" x="255" y="-335.5" font-family="Helvetica,sans-Serif" font-size="10.00">main</text>
</a>
</g>
</g>
<!-- Node1&#45;&gt;Node39 -->
<g id="edge49" class="edge"><title>Node1&#45;&gt;Node39</title>
<path fill="none" stroke="midnightblue" d="M135.459,-338C171.01,-338 211.173,-338 234.438,-338"/>
<polygon fill="midnightblue" stroke="midnightblue" points="135.087,-334.5 125.087,-338 135.087,-341.5 135.087,-334.5"/>
</g>
<!-- Node40 -->
<g id="node40" class="node"><title>Node40</title>
<g id="a_node40"><a xlink:href="org__bitcoin___native_secp256k1_8h.html#a31055a418464416f227eaa2c7cf5f554" target="_top" xlink:title="Java_org_bitcoin_NativeSecp256k1\l_secp256k1_1ec_1pubkey_1create">
<polygon fill="white" stroke="black" points="163,-279 163,-309 347,-309 347,-279 163,-279"/>
<text text-anchor="start" x="171" y="-297" font-family="Helvetica,sans-Serif" font-size="10.00">Java_org_bitcoin_NativeSecp256k1</text>
<text text-anchor="middle" x="255" y="-286" font-family="Helvetica,sans-Serif" font-size="10.00">_secp256k1_1ec_1pubkey_1create</text>
</a>
</g>
</g>
<!-- Node1&#45;&gt;Node40 -->
<g id="edge50" class="edge"><title>Node1&#45;&gt;Node40</title>
<path fill="none" stroke="midnightblue" d="M135.317,-321.412C152.951,-317.339 171.726,-313.003 189.017,-309.009"/>
<polygon fill="midnightblue" stroke="midnightblue" points="134.043,-318.114 125.087,-323.775 135.618,-324.935 134.043,-318.114"/>
</g>
<!-- Node43 -->
<g id="node43" class="node"><title>Node43</title>
<g id="a_node43"><a xlink:href="org__bitcoin___native_secp256k1_8h.html#a0c747bbb40251a6555c91676c575f129" target="_top" xlink:title="Java_org_bitcoin_NativeSecp256k1\l_secp256k1_1pubkey_1tweak_1add">
<polygon fill="white" stroke="black" points="385,-172 385,-202 573,-202 573,-172 385,-172"/>
<text text-anchor="start" x="393" y="-190" font-family="Helvetica,sans-Serif" font-size="10.00">Java_org_bitcoin_NativeSecp256k1</text>
<text text-anchor="middle" x="479" y="-179" font-family="Helvetica,sans-Serif" font-size="10.00">_secp256k1_1pubkey_1tweak_1add</text>
</a>
</g>
</g>
<!-- Node1&#45;&gt;Node43 -->
<g id="edge53" class="edge"><title>Node1&#45;&gt;Node43</title>
<path fill="none" stroke="midnightblue" d="M77.8646,-314.27C94.4987,-289.08 124.364,-250.3 161,-231 198.79,-211.092 305.531,-199.226 384.77,-192.923"/>
<polygon fill="midnightblue" stroke="midnightblue" points="74.7987,-312.568 72.3468,-322.875 80.6912,-316.346 74.7987,-312.568"/>
</g>
<!-- Node45 -->
<g id="node45" class="node"><title>Node45</title>
<g id="a_node45"><a xlink:href="org__bitcoin___native_secp256k1_8h.html#afaedb25dd95647f3ce376a99f84489c0" target="_top" xlink:title="Java_org_bitcoin_NativeSecp256k1\l_secp256k1_1pubkey_1tweak_1mul">
<polygon fill="white" stroke="black" points="161,-153 161,-183 349,-183 349,-153 161,-153"/>
<text text-anchor="start" x="169" y="-171" font-family="Helvetica,sans-Serif" font-size="10.00">Java_org_bitcoin_NativeSecp256k1</text>
<text text-anchor="middle" x="255" y="-160" font-family="Helvetica,sans-Serif" font-size="10.00">_secp256k1_1pubkey_1tweak_1mul</text>
</a>
</g>
</g>
<!-- Node1&#45;&gt;Node45 -->
<g id="edge55" class="edge"><title>Node1&#45;&gt;Node45</title>
<path fill="none" stroke="midnightblue" d="M74.3128,-313.63C89.3687,-282.415 119.542,-228.691 161,-198 169.181,-191.944 178.636,-187.078 188.318,-183.178"/>
<polygon fill="midnightblue" stroke="midnightblue" points="71.0352,-312.376 69.9606,-322.917 77.3736,-315.347 71.0352,-312.376"/>
</g>
<!-- Node46 -->
<g id="node46" class="node"><title>Node46</title>
<g id="a_node46"><a xlink:href="ecdh_2tests__impl_8h.html#ab13157e14f777c18f14fefc834d067c5" target="_top" xlink:title="test_ecdh_generator\l_basepoint">
<polygon fill="white" stroke="black" points="197,-443 197,-473 313,-473 313,-443 197,-443"/>
<text text-anchor="start" x="205" y="-461" font-family="Helvetica,sans-Serif" font-size="10.00">test_ecdh_generator</text>
<text text-anchor="middle" x="255" y="-450" font-family="Helvetica,sans-Serif" font-size="10.00">_basepoint</text>
</a>
</g>
</g>
<!-- Node1&#45;&gt;Node46 -->
<g id="edge57" class="edge"><title>Node1&#45;&gt;Node46</title>
<path fill="none" stroke="midnightblue" d="M82.8372,-360.761C101.122,-380.986 130.271,-410.047 161,-428 171.986,-434.418 184.518,-439.651 196.746,-443.842"/>
<polygon fill="midnightblue" stroke="midnightblue" points="85.405,-358.382 76.1518,-353.221 80.1672,-363.026 85.405,-358.382"/>
</g>
<!-- Node48 -->
<g id="node48" class="node"><title>Node48</title>
<g id="a_node48"><a xlink:href="tests_8c.html#ab33610b81949f135f12a8f2aab3dc192" target="_top" xlink:title="ec_pubkey_parse_pointtest">
<polygon fill="white" stroke="black" points="181,-366.5 181,-385.5 329,-385.5 329,-366.5 181,-366.5"/>
<text text-anchor="middle" x="255" y="-373.5" font-family="Helvetica,sans-Serif" font-size="10.00">ec_pubkey_parse_pointtest</text>
</a>
</g>
</g>
<!-- Node1&#45;&gt;Node48 -->
<g id="edge60" class="edge"><title>Node1&#45;&gt;Node48</title>
<path fill="none" stroke="midnightblue" d="M135.117,-352.286C158.865,-357.023 184.704,-362.177 206.208,-366.467"/>
<polygon fill="midnightblue" stroke="midnightblue" points="135.578,-348.809 125.087,-350.285 134.209,-355.674 135.578,-348.809"/>
</g>
<!-- Node49 -->
<g id="node49" class="node"><title>Node49</title>
<g id="a_node49"><a xlink:href="tests_8c.html#a24bd2af11fcef9c3f2abb62862d6fe97" target="_top" xlink:title="run_ec_pubkey_parse_test">
<polygon fill="white" stroke="black" points="406.5,-366.5 406.5,-385.5 551.5,-385.5 551.5,-366.5 406.5,-366.5"/>
<text text-anchor="middle" x="479" y="-373.5" font-family="Helvetica,sans-Serif" font-size="10.00">run_ec_pubkey_parse_test</text>
</a>
</g>
</g>
<!-- Node1&#45;&gt;Node49 -->
<g id="edge63" class="edge"><title>Node1&#45;&gt;Node49</title>
<path fill="none" stroke="midnightblue" d="M90.5556,-359.121C109.201,-372.285 135.186,-388.008 161,-395 259.716,-421.738 381.814,-399.751 441.577,-385.613"/>
<polygon fill="midnightblue" stroke="midnightblue" points="92.4254,-356.153 82.279,-353.103 88.3091,-361.815 92.4254,-356.153"/>
</g>
<!-- Node50 -->
<g id="node50" class="node"><title>Node50</title>
<g id="a_node50"><a xlink:href="tests_8c.html#a32498e86a99a258f68cd4b1176f47966" target="_top" xlink:title="run_eckey_edge_case_test">
<polygon fill="white" stroke="black" points="629.5,-114.5 629.5,-133.5 775.5,-133.5 775.5,-114.5 629.5,-114.5"/>
<text text-anchor="middle" x="702.5" y="-121.5" font-family="Helvetica,sans-Serif" font-size="10.00">run_eckey_edge_case_test</text>
</a>
</g>
</g>
<!-- Node1&#45;&gt;Node50 -->
<g id="edge64" class="edge"><title>Node1&#45;&gt;Node50</title>
<path fill="none" stroke="midnightblue" d="M67.6748,-312.857C76.3589,-269.515 100.822,-181.669 161,-143 199.385,-118.334 491.08,-120.171 629.29,-122.485"/>
<polygon fill="midnightblue" stroke="midnightblue" points="64.2021,-312.386 65.7948,-322.86 71.0817,-313.679 64.2021,-312.386"/>
</g>
<!-- Node3 -->
<g id="node3" class="node"><title>Node3</title>
<g id="a_node3"><a xlink:href="group__map_wallet.html#ga5abb589b31879b8f4bf1890c22f15f64" target="_top" xlink:title="keystore implementation Generate a new key ">
<polygon fill="white" stroke="black" points="409.5,-684.5 409.5,-703.5 548.5,-703.5 548.5,-684.5 409.5,-684.5"/>
<text text-anchor="middle" x="479" y="-691.5" font-family="Helvetica,sans-Serif" font-size="10.00">CWallet::GenerateNewKey</text>
</a>
</g>
</g>
<!-- Node2&#45;&gt;Node3 -->
<g id="edge2" class="edge"><title>Node2&#45;&gt;Node3</title>
<path fill="none" stroke="midnightblue" d="M273.081,-791.543C296.406,-770.04 340.436,-732.802 385,-713 393.735,-709.119 403.285,-706.021 412.833,-703.551"/>
<polygon fill="midnightblue" stroke="midnightblue" points="270.628,-789.045 265.727,-798.439 275.416,-794.152 270.628,-789.045"/>
</g>
<!-- Node4 -->
<g id="node4" class="node"><title>Node4</title>
<g id="a_node4"><a xlink:href="group__map_wallet.html#gafb01fcc10d890174b2db560a7f27b58a" target="_top" xlink:title="CWallet::DeriveNewChildKey">
<polygon fill="white" stroke="black" points="1035,-760.5 1035,-779.5 1183,-779.5 1183,-760.5 1035,-760.5"/>
<text text-anchor="middle" x="1109" y="-767.5" font-family="Helvetica,sans-Serif" font-size="10.00">CWallet::DeriveNewChildKey</text>
</a>
</g>
</g>
<!-- Node2&#45;&gt;Node4 -->
<g id="edge3" class="edge"><title>Node2&#45;&gt;Node4</title>
<path fill="none" stroke="midnightblue" d="M314.045,-805.411C464.821,-798.686 868.685,-780.674 1034.94,-773.258"/>
<polygon fill="midnightblue" stroke="midnightblue" points="313.467,-801.933 303.633,-805.876 313.779,-808.926 313.467,-801.933"/>
</g>
<!-- Node5 -->
<g id="node5" class="node"><title>Node5</title>
<g id="a_node5"><a xlink:href="group__map_wallet.html#gaf72003c77abf215cc1576ab6c50125f7" target="_top" xlink:title="CWallet::DeriveNewSeed">
<polygon fill="white" stroke="black" points="843,-608.5 843,-627.5 976,-627.5 976,-608.5 843,-608.5"/>
<text text-anchor="middle" x="909.5" y="-615.5" font-family="Helvetica,sans-Serif" font-size="10.00">CWallet::DeriveNewSeed</text>
</a>
</g>
</g>
<!-- Node2&#45;&gt;Node5 -->
<g id="edge4" class="edge"><title>Node2&#45;&gt;Node5</title>
<path fill="none" stroke="midnightblue" d="M264.398,-789.145C281.343,-753.686 323.336,-677.78 385,-646 462.97,-605.816 720.302,-610.27 842.701,-614.924"/>
<polygon fill="midnightblue" stroke="midnightblue" points="261.147,-787.838 260.118,-798.383 267.498,-790.781 261.147,-787.838"/>
</g>
<!-- Node7 -->
<g id="node7" class="node"><title>Node7</title>
<g id="a_node7"><a xlink:href="class_c_key.html#a1bae09b7447a951d8fc3328b7dcc3a3f" target="_top" xlink:title="Derive BIP32 child key. ">
<polygon fill="white" stroke="black" points="441,-988.5 441,-1007.5 517,-1007.5 517,-988.5 441,-988.5"/>
<text text-anchor="middle" x="479" y="-995.5" font-family="Helvetica,sans-Serif" font-size="10.00">CKey::Derive</text>
</a>
</g>
</g>
<!-- Node2&#45;&gt;Node7 -->
<g id="edge6" class="edge"><title>Node2&#45;&gt;Node7</title>
<path fill="none" stroke="midnightblue" d="M264.578,-827.038C281.827,-862.991 324.32,-940.702 385,-979 401.584,-989.467 422.845,-994.308 440.852,-996.492"/>
<polygon fill="midnightblue" stroke="midnightblue" points="267.615,-825.27 260.214,-817.689 261.272,-828.231 267.615,-825.27"/>
</g>
<!-- Node8 -->
<g id="node8" class="node"><title>Node8</title>
<g id="a_node8"><a xlink:href="class_c_key.html#abdc7d807f7a1b27ff3ad9dd5164a2273" target="_top" xlink:title="Check whether the public key corresponding to this private key is (to be) compressed. ">
<polygon fill="white" stroke="black" points="646,-1016.5 646,-1035.5 759,-1035.5 759,-1016.5 646,-1016.5"/>
<text text-anchor="middle" x="702.5" y="-1023.5" font-family="Helvetica,sans-Serif" font-size="10.00">CKey::IsCompressed</text>
</a>
</g>
</g>
<!-- Node2&#45;&gt;Node8 -->
<g id="edge21" class="edge"><title>Node2&#45;&gt;Node8</title>
<path fill="none" stroke="midnightblue" d="M261.204,-827.481C273.927,-870.749 311.108,-974.386 385,-1017 474.047,-1068.35 601.881,-1049.49 664.323,-1035.58"/>
<polygon fill="midnightblue" stroke="midnightblue" points="264.572,-826.53 258.489,-817.855 257.835,-828.43 264.572,-826.53"/>
</g>
<!-- Node10 -->
<g id="node10" class="node"><title>Node10</title>
<g id="a_node10"><a xlink:href="wallet__tests_8cpp.html#a73ce3a42e0b56b2e4516e55871d8590e" target="_top" xlink:title="dumpwallet">
<polygon fill="white" stroke="black" points="1073.5,-1021.5 1073.5,-1040.5 1144.5,-1040.5 1144.5,-1021.5 1073.5,-1021.5"/>
<text text-anchor="middle" x="1109" y="-1028.5" font-family="Helvetica,sans-Serif" font-size="10.00">dumpwallet</text>
</a>
</g>
</g>
<!-- Node2&#45;&gt;Node10 -->
<g id="edge33" class="edge"><title>Node2&#45;&gt;Node10</title>
<path fill="none" stroke="midnightblue" d="M259.649,-827.673C269.699,-875.492 302.694,-997.52 385,-1047 621.19,-1188.99 983.881,-1075.73 1082.5,-1040.54"/>
<polygon fill="midnightblue" stroke="midnightblue" points="263.045,-826.804 257.661,-817.679 256.18,-828.17 263.045,-826.804"/>
</g>
<!-- Node12 -->
<g id="node12" class="node"><title>Node12</title>
<g id="a_node12"><a xlink:href="keystore_8h.html#a2325e8758e074d2f2cd564ba7da2d0e8" target="_top" xlink:title="Checks if a CKey is in the given CKeyStore compressed or otherwise. ">
<polygon fill="white" stroke="black" points="880.5,-798.5 880.5,-817.5 938.5,-817.5 938.5,-798.5 880.5,-798.5"/>
<text text-anchor="middle" x="909.5" y="-805.5" font-family="Helvetica,sans-Serif" font-size="10.00">HaveKey</text>
</a>
</g>
</g>
<!-- Node2&#45;&gt;Node12 -->
<g id="edge24" class="edge"><title>Node2&#45;&gt;Node12</title>
<path fill="none" stroke="midnightblue" d="M313.867,-808C448.986,-808 781.288,-808 880.25,-808"/>
<polygon fill="midnightblue" stroke="midnightblue" points="313.716,-804.5 303.716,-808 313.715,-811.5 313.716,-804.5"/>
</g>
<!-- Node16 -->
<g id="node16" class="node"><title>Node16</title>
<g id="a_node16"><a xlink:href="key_8h.html#a55cc40f04bf887c1000667caccb0684a" target="_top" xlink:title="Check that required EC support is available at runtime. ">
<polygon fill="white" stroke="black" points="421.5,-950.5 421.5,-969.5 536.5,-969.5 536.5,-950.5 421.5,-950.5"/>
<text text-anchor="middle" x="479" y="-957.5" font-family="Helvetica,sans-Serif" font-size="10.00">ECC_InitSanityCheck</text>
</a>
</g>
</g>
<!-- Node2&#45;&gt;Node16 -->
<g id="edge18" class="edge"><title>Node2&#45;&gt;Node16</title>
<path fill="none" stroke="midnightblue" d="M267.929,-826.002C288.26,-855.144 332.558,-912.276 385,-941 395.985,-947.017 408.644,-951.135 421.015,-953.953"/>
<polygon fill="midnightblue" stroke="midnightblue" points="270.719,-823.881 262.19,-817.596 264.937,-827.828 270.719,-823.881"/>
</g>
<!-- Node19 -->
<g id="node19" class="node"><title>Node19</title>
<g id="a_node19"><a xlink:href="class_c_basic_key_store.html#a9c437c32a05f9977bc5fabe6a976a4bc" target="_top" xlink:title="CBasicKeyStore::GetPubKey">
<polygon fill="white" stroke="black" points="404.5,-912.5 404.5,-931.5 553.5,-931.5 553.5,-912.5 404.5,-912.5"/>
<text text-anchor="middle" x="479" y="-919.5" font-family="Helvetica,sans-Serif" font-size="10.00">CBasicKeyStore::GetPubKey</text>
</a>
</g>
</g>
<!-- Node2&#45;&gt;Node19 -->
<g id="edge22" class="edge"><title>Node2&#45;&gt;Node19</title>
<path fill="none" stroke="midnightblue" d="M273.081,-824.457C296.406,-845.96 340.436,-883.198 385,-903 393.735,-906.881 403.285,-909.979 412.833,-912.449"/>
<polygon fill="midnightblue" stroke="midnightblue" points="275.416,-821.848 265.727,-817.561 270.628,-826.955 275.416,-821.848"/>
</g>
<!-- Node21 -->
<g id="node21" class="node"><title>Node21</title>
<g id="a_node21"><a xlink:href="class_c_basic_key_store.html#a07950fc7f9bba7f2460d89a882ac544b" target="_top" xlink:title="CBasicKeyStore::AddKey">
<polygon fill="white" stroke="black" points="412.5,-874.5 412.5,-893.5 545.5,-893.5 545.5,-874.5 412.5,-874.5"/>
<text text-anchor="middle" x="479" y="-881.5" font-family="Helvetica,sans-Serif" font-size="10.00">CBasicKeyStore::AddKey</text>
</a>
</g>
</g>
<!-- Node2&#45;&gt;Node21 -->
<g id="edge25" class="edge"><title>Node2&#45;&gt;Node21</title>
<path fill="none" stroke="midnightblue" d="M283.424,-822.187C309.09,-834.961 348.803,-853.453 385,-865 396.618,-868.706 409.29,-871.857 421.436,-874.465"/>
<polygon fill="midnightblue" stroke="midnightblue" points="284.816,-818.97 274.311,-817.597 281.668,-825.221 284.816,-818.97"/>
</g>
<!-- Node23 -->
<g id="node23" class="node"><title>Node23</title>
<g id="a_node23"><a xlink:href="class_c_crypto_key_store.html#a8c0f6b63fb04193df16243c4459b7c61" target="_top" xlink:title="will encrypt previously unencrypted keys ">
<polygon fill="white" stroke="black" points="398.5,-836.5 398.5,-855.5 559.5,-855.5 559.5,-836.5 398.5,-836.5"/>
<text text-anchor="middle" x="479" y="-843.5" font-family="Helvetica,sans-Serif" font-size="10.00">CCryptoKeyStore::EncryptKeys</text>
</a>
</g>
</g>
<!-- Node2&#45;&gt;Node23 -->
<g id="edge28" class="edge"><title>Node2&#45;&gt;Node23</title>
<path fill="none" stroke="midnightblue" d="M313.717,-817.879C347.174,-823.606 389.099,-830.783 422.221,-836.452"/>
<polygon fill="midnightblue" stroke="midnightblue" points="314.072,-814.389 303.625,-816.152 312.891,-821.289 314.072,-814.389"/>
</g>
<!-- Node24 -->
<g id="node24" class="node"><title>Node24</title>
<g id="a_node24"><a xlink:href="rpcwallet_8cpp.html#a2f46e2bb304dda9a197b5a68db6106f7" target="_top" xlink:title="importprivkey">
<polygon fill="white" stroke="black" points="868.5,-646.5 868.5,-665.5 950.5,-665.5 950.5,-646.5 868.5,-646.5"/>
<text text-anchor="middle" x="909.5" y="-653.5" font-family="Helvetica,sans-Serif" font-size="10.00">importprivkey</text>
</a>
</g>
</g>
<!-- Node2&#45;&gt;Node24 -->
<g id="edge29" class="edge"><title>Node2&#45;&gt;Node24</title>
<path fill="none" stroke="midnightblue" d="M267.151,-789.445C286.639,-759.006 330.101,-699.416 385,-675 471.11,-636.703 760.9,-647.962 868.146,-653.638"/>
<polygon fill="midnightblue" stroke="midnightblue" points="264,-787.883 261.682,-798.221 269.941,-791.585 264,-787.883"/>
</g>
<!-- Node25 -->
<g id="node25" class="node"><title>Node25</title>
<g id="a_node25"><a xlink:href="wallet__tests_8cpp.html#a8c64ef6e0ced69002923098229448758" target="_top" xlink:title="importwallet">
<polygon fill="white" stroke="black" points="1071.5,-589.5 1071.5,-608.5 1146.5,-608.5 1146.5,-589.5 1071.5,-589.5"/>
<text text-anchor="middle" x="1109" y="-596.5" font-family="Helvetica,sans-Serif" font-size="10.00">importwallet</text>
</a>
</g>
</g>
<!-- Node2&#45;&gt;Node25 -->
<g id="edge31" class="edge"><title>Node2&#45;&gt;Node25</title>
<path fill="none" stroke="midnightblue" d="M261.959,-788.604C275.805,-747.327 314.462,-651.353 385,-612 503.952,-545.636 940.734,-582.439 1071.06,-595.193"/>
<polygon fill="midnightblue" stroke="midnightblue" points="258.576,-787.688 258.836,-798.28 265.238,-789.838 258.576,-787.688"/>
</g>
<!-- Node26 -->
<g id="node26" class="node"><title>Node26</title>
<g id="a_node26"><a xlink:href="wallet__tests_8cpp.html#acc117bb030f4fc677e16addf014e9908" target="_top" xlink:title="BOOST_FIXTURE_TEST_CASE">
<polygon fill="white" stroke="black" points="402,-722.5 402,-741.5 556,-741.5 556,-722.5 402,-722.5"/>
<text text-anchor="middle" x="479" y="-729.5" font-family="Helvetica,sans-Serif" font-size="10.00">BOOST_FIXTURE_TEST_CASE</text>
</a>
</g>
</g>
<!-- Node2&#45;&gt;Node26 -->
<g id="edge34" class="edge"><title>Node2&#45;&gt;Node26</title>
<path fill="none" stroke="midnightblue" d="M286.413,-794.427C312.293,-783.197 350.627,-767.309 385,-756 401.473,-750.58 419.91,-745.603 435.997,-741.603"/>
<polygon fill="midnightblue" stroke="midnightblue" points="284.898,-791.27 277.139,-798.484 287.703,-797.683 284.898,-791.27"/>
</g>
<!-- Node6 -->
<g id="node6" class="node"><title>Node6</title>
<g id="a_node6"><a xlink:href="rpcwallet_8cpp.html#a61c7a90d1b36888fe11b751e746e18c0" target="_top" xlink:title="sethdseed">
<polygon fill="white" stroke="black" points="1075.5,-646.5 1075.5,-665.5 1142.5,-665.5 1142.5,-646.5 1075.5,-646.5"/>
<text text-anchor="middle" x="1109" y="-653.5" font-family="Helvetica,sans-Serif" font-size="10.00">sethdseed</text>
</a>
</g>
</g>
<!-- Node5&#45;&gt;Node6 -->
<g id="edge5" class="edge"><title>Node5&#45;&gt;Node6</title>
<path fill="none" stroke="midnightblue" d="M970.079,-629.463C1004.66,-636.117 1046.89,-644.242 1075.44,-649.735"/>
<polygon fill="midnightblue" stroke="midnightblue" points="970.564,-625.992 960.083,-627.54 969.241,-632.866 970.564,-625.992"/>
</g>
<!-- Node7&#45;&gt;Node8 -->
<g id="edge7" class="edge"><title>Node7&#45;&gt;Node8</title>
<path fill="none" stroke="midnightblue" d="M527.271,-998.328C569.015,-1001.97 628.925,-1009.73 666.5,-1016.49"/>
<polygon fill="midnightblue" stroke="midnightblue" points="527.326,-994.821 517.074,-997.495 526.756,-1001.8 527.326,-994.821"/>
</g>
<!-- Node8&#45;&gt;Node7 -->
<g id="edge8" class="edge"><title>Node8&#45;&gt;Node7</title>
<path fill="none" stroke="midnightblue" d="M635.754,-1023.92C596.199,-1019.89 547.416,-1013.34 515.097,-1007.53"/>
<polygon fill="midnightblue" stroke="midnightblue" points="635.562,-1027.41 645.856,-1024.91 636.247,-1020.45 635.562,-1027.41"/>
</g>
<!-- Node9 -->
<g id="node9" class="node"><title>Node9</title>
<g id="a_node9"><a xlink:href="key__io_8h.html#a675809f738ce55f530880389fa330f66" target="_top" xlink:title="EncodeSecret">
<polygon fill="white" stroke="red" points="868,-1021.5 868,-1040.5 951,-1040.5 951,-1021.5 868,-1021.5"/>
<text text-anchor="middle" x="909.5" y="-1028.5" font-family="Helvetica,sans-Serif" font-size="10.00">EncodeSecret</text>
</a>
</g>
</g>
<!-- Node8&#45;&gt;Node9 -->
<g id="edge9" class="edge"><title>Node8&#45;&gt;Node9</title>
<path fill="none" stroke="midnightblue" d="M769.519,-1027.61C801.821,-1028.4 839.682,-1029.32 867.723,-1030.01"/>
<polygon fill="midnightblue" stroke="midnightblue" points="769.329,-1024.1 759.246,-1027.36 769.158,-1031.1 769.329,-1024.1"/>
</g>
<!-- Node8&#45;&gt;Node12 -->
<g id="edge12" class="edge"><title>Node8&#45;&gt;Node12</title>
<path fill="none" stroke="midnightblue" d="M768.795,-1019.93C778.51,-1017.01 787.949,-1012.86 796,-1007 831.13,-981.417 888.485,-853.972 904.331,-817.666"/>
<polygon fill="midnightblue" stroke="midnightblue" points="767.834,-1016.57 759.03,-1022.46 769.588,-1023.34 767.834,-1016.57"/>
</g>
<!-- Node15 -->
<g id="node15" class="node"><title>Node15</title>
<g id="a_node15"><a xlink:href="class_mutable_transaction_signature_creator.html#ad66cfa8bc9e1222e30125c90d1ecaddf" target="_top" xlink:title="Create a singular (non&#45;script) signature. ">
<polygon fill="white" stroke="red" points="832,-972 832,-1002 987,-1002 987,-972 832,-972"/>
<text text-anchor="start" x="840" y="-990" font-family="Helvetica,sans-Serif" font-size="10.00">MutableTransactionSignature</text>
<text text-anchor="middle" x="909.5" y="-979" font-family="Helvetica,sans-Serif" font-size="10.00">Creator::CreateSig</text>
</a>
</g>
</g>
<!-- Node8&#45;&gt;Node15 -->
<g id="edge17" class="edge"><title>Node8&#45;&gt;Node15</title>
<path fill="none" stroke="midnightblue" d="M763.537,-1014.58C784.86,-1010.52 809.163,-1005.9 831.694,-1001.61"/>
<polygon fill="midnightblue" stroke="midnightblue" points="762.818,-1011.15 753.649,-1016.46 764.127,-1018.03 762.818,-1011.15"/>
</g>
<!-- Node9&#45;&gt;Node10 -->
<g id="edge10" class="edge"><title>Node9&#45;&gt;Node10</title>
<path fill="none" stroke="midnightblue" d="M961.497,-1031C996.648,-1031 1042.43,-1031 1073.39,-1031"/>
<polygon fill="midnightblue" stroke="midnightblue" points="961.422,-1027.5 951.422,-1031 961.422,-1034.5 961.422,-1027.5"/>
</g>
<!-- Node11 -->
<g id="node11" class="node"><title>Node11</title>
<g id="a_node11"><a xlink:href="wallet__tests_8cpp.html#a2a726fa52b0a343883cb50a3f68d0989" target="_top" xlink:title="BOOST_FIXTURE_TEST_CASE">
<polygon fill="white" stroke="black" points="1231,-814.5 1231,-833.5 1385,-833.5 1385,-814.5 1231,-814.5"/>
<text text-anchor="middle" x="1308" y="-821.5" font-family="Helvetica,sans-Serif" font-size="10.00">BOOST_FIXTURE_TEST_CASE</text>
</a>
</g>
</g>
<!-- Node10&#45;&gt;Node11 -->
<g id="edge11" class="edge"><title>Node10&#45;&gt;Node11</title>
<path fill="none" stroke="midnightblue" d="M1126.31,-1013.86C1165.94,-972.221 1266.29,-866.774 1297.55,-833.926"/>
<polygon fill="midnightblue" stroke="midnightblue" points="1123.6,-1011.64 1119.24,-1021.29 1128.67,-1016.46 1123.6,-1011.64"/>
</g>
<!-- Node12&#45;&gt;Node4 -->
<g id="edge13" class="edge"><title>Node12&#45;&gt;Node4</title>
<path fill="none" stroke="midnightblue" d="M948.856,-800.62C980.098,-794.609 1024.43,-786.079 1058.38,-779.548"/>
<polygon fill="midnightblue" stroke="midnightblue" points="947.956,-797.229 938.797,-802.556 949.278,-804.103 947.956,-797.229"/>
</g>
<!-- Node12&#45;&gt;Node6 -->
<g id="edge16" class="edge"><title>Node12&#45;&gt;Node6</title>
<path fill="none" stroke="midnightblue" d="M931.017,-792.21C971.939,-760.715 1062.61,-690.932 1095.65,-665.505"/>
<polygon fill="midnightblue" stroke="midnightblue" points="928.645,-789.619 922.855,-798.492 932.914,-795.166 928.645,-789.619"/>
</g>
<!-- Node13 -->
<g id="node13" class="node"><title>Node13</title>
<g id="a_node13"><a xlink:href="group___actions.html#gaa869ffae7560168064463f3157633a8b" target="_top" xlink:title="Reserves a key from the keypool and sets nIndex to its index. ">
<polygon fill="white" stroke="black" points="1023,-836.5 1023,-855.5 1195,-855.5 1195,-836.5 1023,-836.5"/>
<text text-anchor="middle" x="1109" y="-843.5" font-family="Helvetica,sans-Serif" font-size="10.00">CWallet::ReserveKeyFromKeyPool</text>
</a>
</g>
</g>
<!-- Node12&#45;&gt;Node13 -->
<g id="edge14" class="edge"><title>Node12&#45;&gt;Node13</title>
<path fill="none" stroke="midnightblue" d="M948.856,-815.38C980.098,-821.391 1024.43,-829.921 1058.38,-836.452"/>
<polygon fill="midnightblue" stroke="midnightblue" points="949.278,-811.897 938.797,-813.444 947.956,-818.771 949.278,-811.897"/>
</g>
<!-- Node14 -->
<g id="node14" class="node"><title>Node14</title>
<g id="a_node14"><a xlink:href="class_c_crypto_key_store.html#a1cb434078a9ea686c0acf168d2c81252" target="_top" xlink:title="CCryptoKeyStore::IsCrypted">
<polygon fill="white" stroke="red" points="1034.5,-798.5 1034.5,-817.5 1183.5,-817.5 1183.5,-798.5 1034.5,-798.5"/>
<text text-anchor="middle" x="1109" y="-805.5" font-family="Helvetica,sans-Serif" font-size="10.00">CCryptoKeyStore::IsCrypted</text>
</a>
</g>
</g>
<!-- Node12&#45;&gt;Node14 -->
<g id="edge15" class="edge"><title>Node12&#45;&gt;Node14</title>
<path fill="none" stroke="midnightblue" d="M948.992,-808C973.192,-808 1005.21,-808 1034.17,-808"/>
<polygon fill="midnightblue" stroke="midnightblue" points="948.797,-804.5 938.797,-808 948.797,-811.5 948.797,-804.5"/>
</g>
<!-- Node17 -->
<g id="node17" class="node"><title>Node17</title>
<g id="a_node17"><a xlink:href="struct_c_importing_now.html#a0e449b23ac612ff3ff491d989fd08a18" target="_top" xlink:title="CImportingNow::~CImportingNow">
<polygon fill="white" stroke="black" points="614.5,-978.5 614.5,-997.5 790.5,-997.5 790.5,-978.5 614.5,-978.5"/>
<text text-anchor="middle" x="702.5" y="-985.5" font-family="Helvetica,sans-Serif" font-size="10.00">CImportingNow::~CImportingNow</text>
</a>
</g>
</g>
<!-- Node16&#45;&gt;Node17 -->
<g id="edge19" class="edge"><title>Node16&#45;&gt;Node17</title>
<path fill="none" stroke="midnightblue" d="M546.862,-968.452C571.846,-971.61 600.385,-975.218 626.088,-978.467"/>
<polygon fill="midnightblue" stroke="midnightblue" points="547.114,-964.956 536.754,-967.174 546.236,-971.901 547.114,-964.956"/>
</g>
<!-- Node18 -->
<g id="node18" class="node"><title>Node18</title>
<g id="a_node18"><a xlink:href="struct_c_ext_key.html#aff923572d1c4e4708790cb0ecc922a24" target="_top" xlink:title="CExtKey::Unserialize">
<polygon fill="white" stroke="black" points="646,-940.5 646,-959.5 759,-959.5 759,-940.5 646,-940.5"/>
<text text-anchor="middle" x="702.5" y="-947.5" font-family="Helvetica,sans-Serif" font-size="10.00">CExtKey::Unserialize</text>
</a>
</g>
</g>
<!-- Node16&#45;&gt;Node18 -->
<g id="edge20" class="edge"><title>Node16&#45;&gt;Node18</title>
<path fill="none" stroke="midnightblue" d="M546.788,-956.985C578.358,-955.559 615.618,-953.877 645.66,-952.521"/>
<polygon fill="midnightblue" stroke="midnightblue" points="546.586,-953.49 536.754,-957.438 546.902,-960.483 546.586,-953.49"/>
</g>
<!-- Node20 -->
<g id="node20" class="node"><title>Node20</title>
<g id="a_node20"><a xlink:href="class_c_crypto_key_store.html#af57d6ee7c31e1d9673e811a32aaa5ebc" target="_top" xlink:title="CCryptoKeyStore::GetPubKey">
<polygon fill="white" stroke="red" points="625,-902.5 625,-921.5 780,-921.5 780,-902.5 625,-902.5"/>
<text text-anchor="middle" x="702.5" y="-909.5" font-family="Helvetica,sans-Serif" font-size="10.00">CCryptoKeyStore::GetPubKey</text>
</a>
</g>
</g>
<!-- Node19&#45;&gt;Node20 -->
<g id="edge23" class="edge"><title>Node19&#45;&gt;Node20</title>
<path fill="none" stroke="midnightblue" d="M563.767,-918.218C583.756,-917.316 604.994,-916.357 624.654,-915.469"/>
<polygon fill="midnightblue" stroke="midnightblue" points="563.588,-914.723 553.756,-918.67 563.904,-921.715 563.588,-914.723"/>
</g>
<!-- Node22 -->
<g id="node22" class="node"><title>Node22</title>
<g id="a_node22"><a xlink:href="rawtransaction_8h.html#a69f132a19b8e91bd9b0b1330b5323f0a" target="_top" xlink:title="Sign a transaction with the given keystore and previous transactions. ">
<polygon fill="white" stroke="red" points="656.5,-846.5 656.5,-865.5 748.5,-865.5 748.5,-846.5 656.5,-846.5"/>
<text text-anchor="middle" x="702.5" y="-853.5" font-family="Helvetica,sans-Serif" font-size="10.00">SignTransaction</text>
</a>
</g>
</g>
<!-- Node21&#45;&gt;Node22 -->
<g id="edge26" class="edge"><title>Node21&#45;&gt;Node22</title>
<path fill="none" stroke="midnightblue" d="M555.788,-874.42C589.294,-870.184 627.557,-865.347 656.463,-861.693"/>
<polygon fill="midnightblue" stroke="midnightblue" points="555.04,-870.986 545.558,-875.713 555.918,-877.931 555.04,-870.986"/>
</g>
<!-- Node22&#45;&gt;Node22 -->
<g id="edge27" class="edge"><title>Node22&#45;&gt;Node22</title>
<path fill="none" stroke="midnightblue" d="M663.894,-873.114C663.315,-879.126 676.184,-884 702.5,-884 739.113,-884 749.697,-874.565 734.251,-865.757"/>
<polygon fill="midnightblue" stroke="midnightblue" points="666.492,-875.459 670.749,-865.757 661.371,-870.687 666.492,-875.459"/>
</g>
<!-- Node24&#45;&gt;Node6 -->
<g id="edge30" class="edge"><title>Node24&#45;&gt;Node6</title>
<path fill="none" stroke="midnightblue" d="M961.241,-656C997.21,-656 1044.41,-656 1075.44,-656"/>
<polygon fill="midnightblue" stroke="midnightblue" points="960.944,-652.5 950.944,-656 960.944,-659.5 960.944,-652.5"/>
</g>
<!-- Node25&#45;&gt;Node11 -->
<g id="edge32" class="edge"><title>Node25&#45;&gt;Node11</title>
<path fill="none" stroke="midnightblue" d="M1152.72,-612.169C1167.27,-618.113 1182.9,-626.263 1195,-637 1255.29,-690.5 1292.79,-784.428 1303.68,-814.473"/>
<polygon fill="midnightblue" stroke="midnightblue" points="1153.95,-608.893 1143.36,-608.576 1151.44,-615.428 1153.95,-608.893"/>
</g>
<!-- Node28 -->
<g id="node28" class="node"><title>Node28</title>
<g id="a_node28"><a xlink:href="class_sign_verify_message_dialog.html#ae37dec200b27f23c409221511447ae1e" target="_top" xlink:title="SignVerifyMessageDialog\l::on_verifyMessageButton\l_VM_clicked">
<polygon fill="white" stroke="black" points="409,-510.5 409,-551.5 549,-551.5 549,-510.5 409,-510.5"/>
<text text-anchor="start" x="417" y="-539.5" font-family="Helvetica,sans-Serif" font-size="10.00">SignVerifyMessageDialog</text>
<text text-anchor="start" x="417" y="-528.5" font-family="Helvetica,sans-Serif" font-size="10.00">::on_verifyMessageButton</text>
<text text-anchor="middle" x="479" y="-517.5" font-family="Helvetica,sans-Serif" font-size="10.00">_VM_clicked</text>
</a>
</g>
</g>
<!-- Node27&#45;&gt;Node28 -->
<g id="edge36" class="edge"><title>Node27&#45;&gt;Node28</title>
<path fill="none" stroke="midnightblue" d="M313.137,-566.441C324.997,-564.01 337.41,-561.442 349,-559 368.398,-554.913 389.415,-550.392 408.742,-546.196"/>
<polygon fill="midnightblue" stroke="midnightblue" points="312.431,-563.013 303.335,-568.446 313.833,-569.871 312.431,-563.013"/>
</g>
<!-- Node31&#45;&gt;Node32 -->
<g id="edge40" class="edge"><title>Node31&#45;&gt;Node32</title>
<path fill="none" stroke="midnightblue" d="M321.875,-59.2759C353.814,-64.7429 391.759,-71.2381 422.244,-76.4561"/>
<polygon fill="midnightblue" stroke="midnightblue" points="322.181,-55.7774 311.733,-57.54 321,-62.677 322.181,-55.7774"/>
</g>
<!-- Node35 -->
<g id="node35" class="node"><title>Node35</title>
<g id="a_node35"><a xlink:href="tests_8c.html#abbcb27d1eb13654db9b2e281ffce021e" target="_top" xlink:title="test_ecdsa_edge_cases">
<polygon fill="white" stroke="black" points="413.5,-0.5 413.5,-19.5 544.5,-19.5 544.5,-0.5 413.5,-0.5"/>
<text text-anchor="middle" x="479" y="-7.5" font-family="Helvetica,sans-Serif" font-size="10.00">test_ecdsa_edge_cases</text>
</a>
</g>
</g>
<!-- Node31&#45;&gt;Node35 -->
<g id="edge43" class="edge"><title>Node31&#45;&gt;Node35</title>
<path fill="none" stroke="midnightblue" d="M321.875,-36.7241C353.814,-31.2571 391.759,-24.7619 422.244,-19.5439"/>
<polygon fill="midnightblue" stroke="midnightblue" points="321,-33.323 311.733,-38.46 322.181,-40.2226 321,-33.323"/>
</g>
<!-- Node36 -->
<g id="node36" class="node"><title>Node36</title>
<g id="a_node36"><a xlink:href="tests_8c.html#ad6c8109b62ea1d0ed1b382678a2a08b1" target="_top" xlink:title="run_ecdsa_edge_cases">
<polygon fill="white" stroke="black" points="638.5,-38.5 638.5,-57.5 766.5,-57.5 766.5,-38.5 638.5,-38.5"/>
<text text-anchor="middle" x="702.5" y="-45.5" font-family="Helvetica,sans-Serif" font-size="10.00">run_ecdsa_edge_cases</text>
</a>
</g>
</g>
<!-- Node31&#45;&gt;Node36 -->
<g id="edge46" class="edge"><title>Node31&#45;&gt;Node36</title>
<path fill="none" stroke="midnightblue" d="M327.196,-48C413.106,-48 556.217,-48 638.354,-48"/>
<polygon fill="midnightblue" stroke="midnightblue" points="327.011,-44.5001 317.011,-48 327.011,-51.5001 327.011,-44.5001"/>
</g>
<!-- Node33 -->
<g id="node33" class="node"><title>Node33</title>
<g id="a_node33"><a xlink:href="tests_8c.html#ab05096657be701bf9ca8616475bb9491" target="_top" xlink:title="run_ecdsa_end_to_end">
<polygon fill="white" stroke="black" points="638.5,-76.5 638.5,-95.5 766.5,-95.5 766.5,-76.5 638.5,-76.5"/>
<text text-anchor="middle" x="702.5" y="-83.5" font-family="Helvetica,sans-Serif" font-size="10.00">run_ecdsa_end_to_end</text>
</a>
</g>
</g>
<!-- Node32&#45;&gt;Node33 -->
<g id="edge41" class="edge"><title>Node32&#45;&gt;Node33</title>
<path fill="none" stroke="midnightblue" d="M554.875,-86C581.975,-86 612.287,-86 638.285,-86"/>
<polygon fill="midnightblue" stroke="midnightblue" points="554.662,-82.5001 544.662,-86 554.662,-89.5001 554.662,-82.5001"/>
</g>
<!-- Node34 -->
<g id="node34" class="node"><title>Node34</title>
<g id="a_node34"><a xlink:href="tests_8c.html#a3c04138a5bfe5d72780bb7e82a18e627" target="_top" xlink:title="main">
<polygon fill="white" stroke="black" points="889,-114.5 889,-133.5 930,-133.5 930,-114.5 889,-114.5"/>
<text text-anchor="middle" x="909.5" y="-121.5" font-family="Helvetica,sans-Serif" font-size="10.00">main</text>
</a>
</g>
</g>
<!-- Node33&#45;&gt;Node34 -->
<g id="edge42" class="edge"><title>Node33&#45;&gt;Node34</title>
<path fill="none" stroke="midnightblue" d="M764.883,-97.3783C807.091,-105.202 860.448,-115.093 888.756,-120.34"/>
<polygon fill="midnightblue" stroke="midnightblue" points="765.436,-93.9213 754.966,-95.54 764.16,-100.804 765.436,-93.9213"/>
</g>
<!-- Node35&#45;&gt;Node36 -->
<g id="edge44" class="edge"><title>Node35&#45;&gt;Node36</title>
<path fill="none" stroke="midnightblue" d="M545.727,-21.2759C577.593,-26.7429 615.453,-33.2381 645.869,-38.4561"/>
<polygon fill="midnightblue" stroke="midnightblue" points="546.056,-17.7813 535.608,-19.54 544.872,-24.6805 546.056,-17.7813"/>
</g>
<!-- Node36&#45;&gt;Node34 -->
<g id="edge45" class="edge"><title>Node36&#45;&gt;Node34</title>
<path fill="none" stroke="midnightblue" d="M771.874,-59.891C780.093,-61.9505 788.297,-64.3117 796,-67 832.383,-79.6975 871.913,-101.877 893.067,-114.5"/>
<polygon fill="midnightblue" stroke="midnightblue" points="772.412,-56.4216 761.875,-57.5266 770.801,-63.2338 772.412,-56.4216"/>
</g>
<!-- Node38 -->
<g id="node38" class="node"><title>Node38</title>
<g id="a_node38"><a xlink:href="bench__recover_8c.html#a840291bc02cba5474a4cb46a9b9566fe" target="_top" xlink:title="main">
<polygon fill="white" stroke="black" points="458.5,-240.5 458.5,-259.5 499.5,-259.5 499.5,-240.5 458.5,-240.5"/>
<text text-anchor="middle" x="479" y="-247.5" font-family="Helvetica,sans-Serif" font-size="10.00">main</text>
</a>
</g>
</g>
<!-- Node37&#45;&gt;Node38 -->
<g id="edge48" class="edge"><title>Node37&#45;&gt;Node38</title>
<path fill="none" stroke="midnightblue" d="M308.777,-250C356.867,-250 425.295,-250 458.469,-250"/>
<polygon fill="midnightblue" stroke="midnightblue" points="308.541,-246.5 298.541,-250 308.541,-253.5 308.541,-246.5"/>
</g>
<!-- Node41 -->
<g id="node41" class="node"><title>Node41</title>
<g id="a_node41"><a xlink:href="org__bitcoin___native_secp256k1_8h.html#a2c21e1e2a6a6601cdf665f442c9dab9f" target="_top" xlink:title="Java_org_bitcoin_NativeSecp256k1\l_secp256k1_1ec_1seckey_1verify">
<polygon fill="white" stroke="black" points="387.5,-279 387.5,-309 570.5,-309 570.5,-279 387.5,-279"/>
<text text-anchor="start" x="395.5" y="-297" font-family="Helvetica,sans-Serif" font-size="10.00">Java_org_bitcoin_NativeSecp256k1</text>
<text text-anchor="middle" x="479" y="-286" font-family="Helvetica,sans-Serif" font-size="10.00">_secp256k1_1ec_1seckey_1verify</text>
</a>
</g>
</g>
<!-- Node40&#45;&gt;Node41 -->
<g id="edge51" class="edge"><title>Node40&#45;&gt;Node41</title>
<path fill="none" stroke="midnightblue" d="M357.274,-294C367.338,-294 377.511,-294 387.456,-294"/>
<polygon fill="midnightblue" stroke="midnightblue" points="357.257,-290.5 347.257,-294 357.257,-297.5 357.257,-290.5"/>
</g>
<!-- Node42 -->
<g id="node42" class="node"><title>Node42</title>
<g id="a_node42"><a xlink:href="org__bitcoin___native_secp256k1_8h.html#af21372e4bdbf737d45ae35c9726e2efb" target="_top" xlink:title="Java_org_bitcoin_NativeSecp256k1\l_secp256k1_1ecdsa_1sign">
<polygon fill="white" stroke="red" points="611,-279 611,-309 794,-309 794,-279 611,-279"/>
<text text-anchor="start" x="619" y="-297" font-family="Helvetica,sans-Serif" font-size="10.00">Java_org_bitcoin_NativeSecp256k1</text>
<text text-anchor="middle" x="702.5" y="-286" font-family="Helvetica,sans-Serif" font-size="10.00">_secp256k1_1ecdsa_1sign</text>
</a>
</g>
</g>
<!-- Node41&#45;&gt;Node42 -->
<g id="edge52" class="edge"><title>Node41&#45;&gt;Node42</title>
<path fill="none" stroke="midnightblue" d="M580.74,-294C590.797,-294 600.965,-294 610.909,-294"/>
<polygon fill="midnightblue" stroke="midnightblue" points="580.732,-290.5 570.732,-294 580.732,-297.5 580.732,-290.5"/>
</g>
<!-- Node44 -->
<g id="node44" class="node"><title>Node44</title>
<g id="a_node44"><a xlink:href="org__bitcoin___native_secp256k1_8h.html#a91e5ac4a689d2ba275226176f22f21c1" target="_top" xlink:title="Java_org_bitcoin_NativeSecp256k1\l_secp256k1_1privkey_1tweak_1mul">
<polygon fill="white" stroke="red" points="609,-172 609,-202 796,-202 796,-172 609,-172"/>
<text text-anchor="start" x="617" y="-190" font-family="Helvetica,sans-Serif" font-size="10.00">Java_org_bitcoin_NativeSecp256k1</text>
<text text-anchor="middle" x="702.5" y="-179" font-family="Helvetica,sans-Serif" font-size="10.00">_secp256k1_1privkey_1tweak_1mul</text>
</a>
</g>
</g>
<!-- Node43&#45;&gt;Node44 -->
<g id="edge54" class="edge"><title>Node43&#45;&gt;Node44</title>
<path fill="none" stroke="midnightblue" d="M583.498,-187C591.897,-187 600.352,-187 608.668,-187"/>
<polygon fill="midnightblue" stroke="midnightblue" points="583.294,-183.5 573.294,-187 583.294,-190.5 583.294,-183.5"/>
</g>
<!-- Node45&#45;&gt;Node43 -->
<g id="edge56" class="edge"><title>Node45&#45;&gt;Node43</title>
<path fill="none" stroke="midnightblue" d="M359.147,-176.828C367.67,-177.557 376.255,-178.292 384.7,-179.015"/>
<polygon fill="midnightblue" stroke="midnightblue" points="359.445,-173.341 349.183,-175.975 358.848,-180.315 359.445,-173.341"/>
</g>
<!-- Node47 -->
<g id="node47" class="node"><title>Node47</title>
<g id="a_node47"><a xlink:href="ecdh_2tests__impl_8h.html#aab6cd779f0b87dc8a7afdf4eaf873407" target="_top" xlink:title="run_ecdh_tests">
<polygon fill="white" stroke="black" points="657.5,-405.5 657.5,-424.5 747.5,-424.5 747.5,-405.5 657.5,-405.5"/>
<text text-anchor="middle" x="702.5" y="-412.5" font-family="Helvetica,sans-Serif" font-size="10.00">run_ecdh_tests</text>
</a>
</g>
</g>
<!-- Node46&#45;&gt;Node47 -->
<g id="edge58" class="edge"><title>Node46&#45;&gt;Node47</title>
<path fill="none" stroke="midnightblue" d="M323.415,-451.493C415.828,-442.573 579.276,-426.797 657.452,-419.252"/>
<polygon fill="midnightblue" stroke="midnightblue" points="322.947,-448.022 313.329,-452.467 323.619,-454.99 322.947,-448.022"/>
</g>
<!-- Node47&#45;&gt;Node34 -->
<g id="edge59" class="edge"><title>Node47&#45;&gt;Node34</title>
<path fill="none" stroke="midnightblue" d="M746.682,-401.745C763.734,-394.787 782.449,-384.778 796,-371 868.03,-297.764 898.964,-170.144 906.561,-133.87"/>
<polygon fill="midnightblue" stroke="midnightblue" points="744.973,-398.651 736.885,-405.494 747.475,-405.189 744.973,-398.651"/>
</g>
<!-- Node48&#45;&gt;Node49 -->
<g id="edge61" class="edge"><title>Node48&#45;&gt;Node49</title>
<path fill="none" stroke="midnightblue" d="M339.604,-376C361.55,-376 385.02,-376 406.282,-376"/>
<polygon fill="midnightblue" stroke="midnightblue" points="339.306,-372.5 329.306,-376 339.306,-379.5 339.306,-372.5"/>
</g>
<!-- Node49&#45;&gt;Node34 -->
<g id="edge62" class="edge"><title>Node49&#45;&gt;Node34</title>
<path fill="none" stroke="midnightblue" d="M562.089,-379.183C630.487,-377.842 727.457,-366.255 796,-318 864.447,-269.813 897.275,-165.73 906.034,-133.626"/>
<polygon fill="midnightblue" stroke="midnightblue" points="561.744,-375.687 551.789,-379.312 561.832,-382.686 561.744,-375.687"/>
</g>
<!-- Node50&#45;&gt;Node34 -->
<g id="edge65" class="edge"><title>Node50&#45;&gt;Node34</title>
<path fill="none" stroke="midnightblue" d="M786.25,-124C823.797,-124 865.018,-124 888.719,-124"/>
<polygon fill="midnightblue" stroke="midnightblue" points="785.775,-120.5 775.775,-124 785.775,-127.5 785.775,-120.5"/>
</g>
</g>
</svg>
