<?xml version="1.0" encoding="UTF-8" standalone="no"?>
<!DOCTYPE svg PUBLIC "-//W3C//DTD SVG 1.1//EN"
 "http://www.w3.org/Graphics/SVG/1.1/DTD/svg11.dtd">
<!-- Generated by graphviz version 2.49.3 (0)
 -->
<!-- Title: secp256k1_ecdsa_signature_parse_der Pages: 1 -->
<svg width="564pt" height="78pt"
 viewBox="0.00 0.00 564.00 77.50" xmlns="http://www.w3.org/2000/svg" xmlns:xlink="http://www.w3.org/1999/xlink">
<g id="graph0" class="graph" transform="scale(1 1) rotate(0) translate(4 73.5)">
<title>secp256k1_ecdsa_signature_parse_der</title>
<polygon fill="white" stroke="transparent" points="-4,4 -4,-73.5 560,-73.5 560,4 -4,4"/>
<!-- Node1 -->
<g id="node1" class="node">
<title>Node1</title>
<g id="a_node1"><a xlink:title="Parse a DER ECDSA signature.">
<polygon fill="#bfbfbf" stroke="black" points="0,-17 0,-47 154,-47 154,-17 0,-17"/>
<text text-anchor="start" x="8" y="-35" font-family="Helvetica,sans-Serif" font-size="10.00">secp256k1_ecdsa_signature</text>
<text text-anchor="middle" x="77" y="-24" font-family="Helvetica,sans-Serif" font-size="10.00">_parse_der</text>
</a>
</g>
</g>
<!-- Node2 -->
<g id="node2" class="node">
<title>Node2</title>
<g id="a_node2"><a xlink:href="ecdsa_8h.html#aae25c4b1cdf2ccaddc49b42d43cc82a1" target="_top" xlink:title=" ">
<polygon fill="white" stroke="black" points="220,-39 220,-69 342,-69 342,-39 220,-39"/>
<text text-anchor="start" x="228" y="-57" font-family="Helvetica,sans-Serif" font-size="10.00">secp256k1_ecdsa_sig</text>
<text text-anchor="middle" x="281" y="-46" font-family="Helvetica,sans-Serif" font-size="10.00">_parse</text>
</a>
</g>
</g>
<!-- Node1&#45;&gt;Node2 -->
<g id="edge1" class="edge">
<title>Node1&#45;&gt;Node2</title>
<path fill="none" stroke="midnightblue" d="M154.08,-40.29C172.3,-42.27 191.68,-44.38 209.63,-46.34"/>
<polygon fill="midnightblue" stroke="midnightblue" points="209.4,-49.83 219.72,-47.44 210.16,-42.87 209.4,-49.83"/>
</g>
<!-- Node3 -->
<g id="node3" class="node">
<title>Node3</title>
<g id="a_node3"><a xlink:href="secp256k1_8c.html#a94e522f94c4819bebf8e854952eb6a8f" target="_top" xlink:title=" ">
<polygon fill="white" stroke="black" points="190,-0.5 190,-19.5 372,-19.5 372,-0.5 190,-0.5"/>
<text text-anchor="middle" x="281" y="-7.5" font-family="Helvetica,sans-Serif" font-size="10.00">secp256k1_ecdsa_signature_save</text>
</a>
</g>
</g>
<!-- Node1&#45;&gt;Node3 -->
<g id="edge2" class="edge">
<title>Node1&#45;&gt;Node3</title>
<path fill="none" stroke="midnightblue" d="M154.08,-23.71C163.28,-22.71 172.77,-21.68 182.23,-20.65"/>
<polygon fill="midnightblue" stroke="midnightblue" points="182.89,-24.1 192.46,-19.53 182.14,-17.14 182.89,-24.1"/>
</g>
<!-- Node4 -->
<g id="node4" class="node">
<title>Node4</title>
<g id="a_node4"><a xlink:href="scalar_8h.html#a4fa08f8af5a23f505b44c9ef1bec1831" target="_top" xlink:title="Convert a scalar to a byte array.">
<polygon fill="white" stroke="black" points="408,-0.5 408,-19.5 556,-19.5 556,-0.5 408,-0.5"/>
<text text-anchor="middle" x="482" y="-7.5" font-family="Helvetica,sans-Serif" font-size="10.00">secp256k1_scalar_get_b32</text>
</a>
</g>
</g>
<!-- Node3&#45;&gt;Node4 -->
<g id="edge3" class="edge">
<title>Node3&#45;&gt;Node4</title>
<path fill="none" stroke="midnightblue" d="M372.18,-10C380.66,-10 389.24,-10 397.65,-10"/>
<polygon fill="midnightblue" stroke="midnightblue" points="397.82,-13.5 407.82,-10 397.82,-6.5 397.82,-13.5"/>
</g>
</g>
</svg>
