<?xml version="1.0" encoding="UTF-8" standalone="no"?>
<!DOCTYPE svg PUBLIC "-//W3C//DTD SVG 1.1//EN"
 "http://www.w3.org/Graphics/SVG/1.1/DTD/svg11.dtd">
<!-- Generated by graphviz version 2.38.0 (20140413.2041)
 -->
<!-- Title: secp256k1_ecdsa_signature_serialize_der Pages: 1 -->
<svg width="2006pt" height="702pt"
 viewBox="0.00 0.00 2006.00 702.33" xmlns="http://www.w3.org/2000/svg" xmlns:xlink="http://www.w3.org/1999/xlink">
<g id="graph0" class="graph" transform="scale(1 1) rotate(0) translate(4 698.333)">
<title>secp256k1_ecdsa_signature_serialize_der</title>
<polygon fill="white" stroke="none" points="-4,4 -4,-698.333 2002,-698.333 2002,4 -4,4"/>
<!-- Node1 -->
<g id="node1" class="node"><title>Node1</title>
<polygon fill="#bfbfbf" stroke="black" points="0,-93 0,-123 152,-123 152,-93 0,-93"/>
<text text-anchor="start" x="8" y="-111" font-family="Helvetica,sans-Serif" font-size="10.00">secp256k1_ecdsa_signature</text>
<text text-anchor="middle" x="76" y="-100" font-family="Helvetica,sans-Serif" font-size="10.00">_serialize_der</text>
</g>
<!-- Node2 -->
<g id="node2" class="node"><title>Node2</title>
<g id="a_node2"><a xlink:href="class_c_key.html#a3b161899b4fa79f5a7036d2ccf12ce3a" target="_top" xlink:title="Create a DER&#45;serialized signature. ">
<polygon fill="white" stroke="black" points="246.5,-424.5 246.5,-443.5 312.5,-443.5 312.5,-424.5 246.5,-424.5"/>
<text text-anchor="middle" x="279.5" y="-431.5" font-family="Helvetica,sans-Serif" font-size="10.00">CKey::Sign</text>
</a>
</g>
</g>
<!-- Node1&#45;&gt;Node2 -->
<g id="edge1" class="edge"><title>Node1&#45;&gt;Node2</title>
<path fill="none" stroke="midnightblue" d="M91.9393,-132.17C132.798,-198.274 245.168,-380.073 272.466,-424.237"/>
<polygon fill="midnightblue" stroke="midnightblue" points="94.6834,-129.952 86.4485,-123.286 88.7291,-133.633 94.6834,-129.952"/>
</g>
<!-- Node36 -->
<g id="node36" class="node"><title>Node36</title>
<g id="a_node36"><a xlink:href="bench__verify_8c.html#a840291bc02cba5474a4cb46a9b9566fe" target="_top" xlink:title="main">
<polygon fill="white" stroke="black" points="259,-164.5 259,-183.5 300,-183.5 300,-164.5 259,-164.5"/>
<text text-anchor="middle" x="279.5" y="-171.5" font-family="Helvetica,sans-Serif" font-size="10.00">main</text>
</a>
</g>
</g>
<!-- Node1&#45;&gt;Node36 -->
<g id="edge52" class="edge"><title>Node1&#45;&gt;Node36</title>
<path fill="none" stroke="midnightblue" d="M118.383,-127.181C138.989,-136.206 164.469,-146.587 188,-154 211.942,-161.542 240.311,-167.319 258.821,-170.682"/>
<polygon fill="midnightblue" stroke="midnightblue" points="119.547,-123.868 108.987,-123.012 116.708,-130.267 119.547,-123.868"/>
</g>
<!-- Node37 -->
<g id="node37" class="node"><title>Node37</title>
<g id="a_node37"><a xlink:href="org__bitcoin___native_secp256k1_8h.html#af21372e4bdbf737d45ae35c9726e2efb" target="_top" xlink:title="Java_org_bitcoin_NativeSecp256k1\l_secp256k1_1ecdsa_1sign">
<polygon fill="white" stroke="black" points="188,-115 188,-145 371,-145 371,-115 188,-115"/>
<text text-anchor="start" x="196" y="-133" font-family="Helvetica,sans-Serif" font-size="10.00">Java_org_bitcoin_NativeSecp256k1</text>
<text text-anchor="middle" x="279.5" y="-122" font-family="Helvetica,sans-Serif" font-size="10.00">_secp256k1_1ecdsa_1sign</text>
</a>
</g>
</g>
<!-- Node1&#45;&gt;Node37 -->
<g id="edge53" class="edge"><title>Node1&#45;&gt;Node37</title>
<path fill="none" stroke="midnightblue" d="M162.229,-117.305C170.663,-118.226 179.247,-119.163 187.734,-120.09"/>
<polygon fill="midnightblue" stroke="midnightblue" points="162.352,-113.798 152.031,-116.192 161.592,-120.757 162.352,-113.798"/>
</g>
<!-- Node42 -->
<g id="node42" class="node"><title>Node42</title>
<g id="a_node42"><a xlink:href="tests_8c.html#a3fc9dc1908215215a68690ea1bfa8bcd" target="_top" xlink:title="test_ecdsa_end_to_end">
<polygon fill="white" stroke="black" points="214,-0.5 214,-19.5 345,-19.5 345,-0.5 214,-0.5"/>
<text text-anchor="middle" x="279.5" y="-7.5" font-family="Helvetica,sans-Serif" font-size="10.00">test_ecdsa_end_to_end</text>
</a>
</g>
</g>
<!-- Node1&#45;&gt;Node42 -->
<g id="edge58" class="edge"><title>Node1&#45;&gt;Node42</title>
<path fill="none" stroke="midnightblue" d="M101.3,-86.1699C122.655,-68.1526 155.339,-43.3021 188,-29 196.824,-25.1362 206.483,-22.0398 216.101,-19.5634"/>
<polygon fill="midnightblue" stroke="midnightblue" points="98.9979,-83.5331 93.6934,-92.7044 103.559,-88.8428 98.9979,-83.5331"/>
</g>
<!-- Node45 -->
<g id="node45" class="node"><title>Node45</title>
<g id="a_node45"><a xlink:href="tests_8c.html#a1cb741ffd2cea46124f7abc2c506717a" target="_top" xlink:title="test_ecdsa_der_parse">
<polygon fill="white" stroke="black" points="218.5,-76.5 218.5,-95.5 340.5,-95.5 340.5,-76.5 218.5,-76.5"/>
<text text-anchor="middle" x="279.5" y="-83.5" font-family="Helvetica,sans-Serif" font-size="10.00">test_ecdsa_der_parse</text>
</a>
</g>
</g>
<!-- Node1&#45;&gt;Node45 -->
<g id="edge61" class="edge"><title>Node1&#45;&gt;Node45</title>
<path fill="none" stroke="midnightblue" d="M162.107,-98.7079C180.96,-96.6495 200.561,-94.5094 218.184,-92.5854"/>
<polygon fill="midnightblue" stroke="midnightblue" points="161.592,-95.2432 152.031,-99.808 162.352,-102.202 161.592,-95.2432"/>
</g>
<!-- Node47 -->
<g id="node47" class="node"><title>Node47</title>
<g id="a_node47"><a xlink:href="tests_8c.html#abbcb27d1eb13654db9b2e281ffce021e" target="_top" xlink:title="test_ecdsa_edge_cases">
<polygon fill="white" stroke="black" points="214,-38.5 214,-57.5 345,-57.5 345,-38.5 214,-38.5"/>
<text text-anchor="middle" x="279.5" y="-45.5" font-family="Helvetica,sans-Serif" font-size="10.00">test_ecdsa_edge_cases</text>
</a>
</g>
</g>
<!-- Node1&#45;&gt;Node47 -->
<g id="edge64" class="edge"><title>Node1&#45;&gt;Node47</title>
<path fill="none" stroke="midnightblue" d="M122.941,-89.3061C142.737,-81.7026 166.285,-73.2533 188,-67 200.342,-63.4459 213.808,-60.2577 226.49,-57.5537"/>
<polygon fill="midnightblue" stroke="midnightblue" points="121.601,-86.0718 113.548,-92.9574 124.137,-92.5961 121.601,-86.0718"/>
</g>
<!-- Node3 -->
<g id="node3" class="node"><title>Node3</title>
<g id="a_node3"><a xlink:href="class_c_key.html#a3890764f7a2e5d9cdeffb3e102e4545d" target="_top" xlink:title="Verify thoroughly whether a private key and a public key match. ">
<polygon fill="white" stroke="black" points="445.5,-335.5 445.5,-354.5 551.5,-354.5 551.5,-335.5 445.5,-335.5"/>
<text text-anchor="middle" x="498.5" y="-342.5" font-family="Helvetica,sans-Serif" font-size="10.00">CKey::VerifyPubKey</text>
</a>
</g>
</g>
<!-- Node2&#45;&gt;Node3 -->
<g id="edge2" class="edge"><title>Node2&#45;&gt;Node3</title>
<path fill="none" stroke="midnightblue" d="M313.15,-420.609C357.386,-402.466 435.28,-370.519 474.116,-354.591"/>
<polygon fill="midnightblue" stroke="midnightblue" points="311.647,-417.443 303.723,-424.475 314.303,-423.919 311.647,-417.443"/>
</g>
<!-- Node8 -->
<g id="node8" class="node"><title>Node8</title>
<g id="a_node8"><a xlink:href="class_c_key.html#abdc7d807f7a1b27ff3ad9dd5164a2273" target="_top" xlink:title="Check whether the public key corresponding to this private key is (to be) compressed. ">
<polygon fill="white" stroke="black" points="880,-506.5 880,-525.5 993,-525.5 993,-506.5 880,-506.5"/>
<text text-anchor="middle" x="936.5" y="-513.5" font-family="Helvetica,sans-Serif" font-size="10.00">CKey::IsCompressed</text>
</a>
</g>
</g>
<!-- Node2&#45;&gt;Node8 -->
<g id="edge50" class="edge"><title>Node2&#45;&gt;Node8</title>
<path fill="none" stroke="midnightblue" d="M319.22,-446.633C382.536,-466.557 512.551,-504.407 626,-518 706.756,-527.676 727.669,-518.643 809,-518 832.172,-517.817 857.729,-517.445 879.77,-517.071"/>
<polygon fill="midnightblue" stroke="midnightblue" points="320.234,-443.283 309.644,-443.596 318.118,-449.955 320.234,-443.283"/>
</g>
<!-- Node23 -->
<g id="node23" class="node"><title>Node23</title>
<g id="a_node23"><a xlink:href="class_mutable_transaction_signature_creator.html#ad66cfa8bc9e1222e30125c90d1ecaddf" target="_top" xlink:title="Create a singular (non&#45;script) signature. ">
<polygon fill="white" stroke="black" points="1078,-583 1078,-613 1233,-613 1233,-583 1078,-583"/>
<text text-anchor="start" x="1086" y="-601" font-family="Helvetica,sans-Serif" font-size="10.00">MutableTransactionSignature</text>
<text text-anchor="middle" x="1155.5" y="-590" font-family="Helvetica,sans-Serif" font-size="10.00">Creator::CreateSig</text>
</a>
</g>
</g>
<!-- Node2&#45;&gt;Node23 -->
<g id="edge51" class="edge"><title>Node2&#45;&gt;Node23</title>
<path fill="none" stroke="midnightblue" d="M301.306,-449.552C325.395,-466.684 366.917,-493.582 407,-507 642.389,-585.798 939.815,-597.768 1077.76,-598.694"/>
<polygon fill="midnightblue" stroke="midnightblue" points="303.118,-446.543 292.966,-443.513 299.013,-452.213 303.118,-446.543"/>
</g>
<!-- Node4 -->
<g id="node4" class="node"><title>Node4</title>
<g id="a_node4"><a xlink:href="group__map_wallet.html#ga5abb589b31879b8f4bf1890c22f15f64" target="_top" xlink:title="keystore implementation Generate a new key ">
<polygon fill="white" stroke="black" points="648,-240.5 648,-259.5 787,-259.5 787,-240.5 648,-240.5"/>
<text text-anchor="middle" x="717.5" y="-247.5" font-family="Helvetica,sans-Serif" font-size="10.00">CWallet::GenerateNewKey</text>
</a>
</g>
</g>
<!-- Node3&#45;&gt;Node4 -->
<g id="edge3" class="edge"><title>Node3&#45;&gt;Node4</title>
<path fill="none" stroke="midnightblue" d="M522.322,-329.852C546.998,-314.042 587.923,-289.445 626,-274 640.46,-268.135 656.802,-263.293 671.581,-259.533"/>
<polygon fill="midnightblue" stroke="midnightblue" points="520.186,-327.066 513.7,-335.444 523.995,-332.939 520.186,-327.066"/>
</g>
<!-- Node5 -->
<g id="node5" class="node"><title>Node5</title>
<g id="a_node5"><a xlink:href="group__map_wallet.html#gaf72003c77abf215cc1576ab6c50125f7" target="_top" xlink:title="CWallet::DeriveNewSeed">
<polygon fill="white" stroke="black" points="1712.5,-354.5 1712.5,-373.5 1845.5,-373.5 1845.5,-354.5 1712.5,-354.5"/>
<text text-anchor="middle" x="1779" y="-361.5" font-family="Helvetica,sans-Serif" font-size="10.00">CWallet::DeriveNewSeed</text>
</a>
</g>
</g>
<!-- Node3&#45;&gt;Node5 -->
<g id="edge4" class="edge"><title>Node3&#45;&gt;Node5</title>
<path fill="none" stroke="midnightblue" d="M562.028,-349.438C646.659,-355.053 802.399,-364 935.5,-364 935.5,-364 935.5,-364 1370,-364 1490.77,-364 1631.65,-364 1712.28,-364"/>
<polygon fill="midnightblue" stroke="midnightblue" points="562.028,-345.93 551.816,-348.754 561.56,-352.915 562.028,-345.93"/>
</g>
<!-- Node7 -->
<g id="node7" class="node"><title>Node7</title>
<g id="a_node7"><a xlink:href="class_c_key.html#acdb99e6886c2828bdd32c64a3c9e4e18" target="_top" xlink:title="Load private key and check that public key matches. ">
<polygon fill="white" stroke="black" points="683.5,-456.5 683.5,-475.5 751.5,-475.5 751.5,-456.5 683.5,-456.5"/>
<text text-anchor="middle" x="717.5" y="-463.5" font-family="Helvetica,sans-Serif" font-size="10.00">CKey::Load</text>
</a>
</g>
</g>
<!-- Node3&#45;&gt;Node7 -->
<g id="edge6" class="edge"><title>Node3&#45;&gt;Node7</title>
<path fill="none" stroke="midnightblue" d="M516.596,-361.735C539.595,-383.344 582.641,-420.696 626,-442 643.944,-450.817 665.537,-456.702 683.13,-460.437"/>
<polygon fill="midnightblue" stroke="midnightblue" points="518.716,-358.92 509.066,-354.545 513.882,-363.983 518.716,-358.92"/>
</g>
<!-- Node3&#45;&gt;Node8 -->
<g id="edge36" class="edge"><title>Node3&#45;&gt;Node8</title>
<path fill="none" stroke="midnightblue" d="M509.994,-363.663C528.719,-394.948 571.126,-457.269 626,-485 707.091,-525.98 815.279,-526.484 879.92,-522.015"/>
<polygon fill="midnightblue" stroke="midnightblue" points="512.818,-361.558 504.76,-354.679 506.769,-365.081 512.818,-361.558"/>
</g>
<!-- Node12 -->
<g id="node12" class="node"><title>Node12</title>
<g id="a_node12"><a xlink:href="wallet__tests_8cpp.html#a73ce3a42e0b56b2e4516e55871d8590e" target="_top" xlink:title="dumpwallet">
<polygon fill="white" stroke="black" points="1333.5,-316.5 1333.5,-335.5 1404.5,-335.5 1404.5,-316.5 1333.5,-316.5"/>
<text text-anchor="middle" x="1369" y="-323.5" font-family="Helvetica,sans-Serif" font-size="10.00">dumpwallet</text>
</a>
</g>
</g>
<!-- Node3&#45;&gt;Node12 -->
<g id="edge49" class="edge"><title>Node3&#45;&gt;Node12</title>
<path fill="none" stroke="midnightblue" d="M561.595,-343.642C731.72,-339.92 1201.39,-329.645 1333.2,-326.761"/>
<polygon fill="midnightblue" stroke="midnightblue" points="561.471,-340.143 551.55,-343.861 561.624,-347.142 561.471,-340.143"/>
</g>
<!-- Node26 -->
<g id="node26" class="node"><title>Node26</title>
<g id="a_node26"><a xlink:href="key_8h.html#a55cc40f04bf887c1000667caccb0684a" target="_top" xlink:title="Check that required EC support is available at runtime. ">
<polygon fill="white" stroke="black" points="660,-164.5 660,-183.5 775,-183.5 775,-164.5 660,-164.5"/>
<text text-anchor="middle" x="717.5" y="-171.5" font-family="Helvetica,sans-Serif" font-size="10.00">ECC_InitSanityCheck</text>
</a>
</g>
</g>
<!-- Node3&#45;&gt;Node26 -->
<g id="edge33" class="edge"><title>Node3&#45;&gt;Node26</title>
<path fill="none" stroke="midnightblue" d="M510.029,-326.758C529.053,-295.471 572.218,-231.698 626,-198 636.193,-191.613 648.055,-186.914 659.77,-183.459"/>
<polygon fill="midnightblue" stroke="midnightblue" points="507.019,-324.972 504.915,-335.356 513.035,-328.55 507.019,-324.972"/>
</g>
<!-- Node29 -->
<g id="node29" class="node"><title>Node29</title>
<g id="a_node29"><a xlink:href="class_c_crypter.html#ac5a813381a88db619331a9d5492cd339" target="_top" xlink:title="CCrypter::Decrypt">
<polygon fill="white" stroke="black" points="1318,-440.5 1318,-459.5 1420,-459.5 1420,-440.5 1318,-440.5"/>
<text text-anchor="middle" x="1369" y="-447.5" font-family="Helvetica,sans-Serif" font-size="10.00">CCrypter::Decrypt</text>
</a>
</g>
</g>
<!-- Node3&#45;&gt;Node29 -->
<g id="edge37" class="edge"><title>Node3&#45;&gt;Node29</title>
<path fill="none" stroke="midnightblue" d="M540.113,-357.335C564.747,-364.38 596.935,-372.815 626,-378 883.693,-423.967 1197.34,-442.242 1317.69,-447.89"/>
<polygon fill="midnightblue" stroke="midnightblue" points="540.969,-353.939 530.39,-354.515 539.019,-360.662 540.969,-353.939"/>
</g>
<!-- Node34 -->
<g id="node34" class="node"><title>Node34</title>
<g id="a_node34"><a xlink:href="rpcwallet_8cpp.html#a2f46e2bb304dda9a197b5a68db6106f7" target="_top" xlink:title="importprivkey">
<polygon fill="white" stroke="black" points="1114.5,-211.5 1114.5,-230.5 1196.5,-230.5 1196.5,-211.5 1114.5,-211.5"/>
<text text-anchor="middle" x="1155.5" y="-218.5" font-family="Helvetica,sans-Serif" font-size="10.00">importprivkey</text>
</a>
</g>
</g>
<!-- Node3&#45;&gt;Node34 -->
<g id="edge45" class="edge"><title>Node3&#45;&gt;Node34</title>
<path fill="none" stroke="midnightblue" d="M512.425,-327.055C532.951,-300.255 575.851,-250.809 626,-231 714.553,-196.021 1006.77,-211.176 1114.32,-218.174"/>
<polygon fill="midnightblue" stroke="midnightblue" points="509.522,-325.093 506.344,-335.2 515.131,-329.281 509.522,-325.093"/>
</g>
<!-- Node35 -->
<g id="node35" class="node"><title>Node35</title>
<g id="a_node35"><a xlink:href="wallet__tests_8cpp.html#a8c64ef6e0ced69002923098229448758" target="_top" xlink:title="importwallet">
<polygon fill="white" stroke="black" points="899,-278.5 899,-297.5 974,-297.5 974,-278.5 899,-278.5"/>
<text text-anchor="middle" x="936.5" y="-285.5" font-family="Helvetica,sans-Serif" font-size="10.00">importwallet</text>
</a>
</g>
</g>
<!-- Node3&#45;&gt;Node35 -->
<g id="edge47" class="edge"><title>Node3&#45;&gt;Node35</title>
<path fill="none" stroke="midnightblue" d="M539.578,-332.593C564.261,-325.442 596.687,-316.92 626,-312 723.531,-295.631 840.263,-290.397 898.558,-288.746"/>
<polygon fill="midnightblue" stroke="midnightblue" points="538.45,-329.277 529.845,-335.458 540.426,-335.992 538.45,-329.277"/>
</g>
<!-- Node6 -->
<g id="node6" class="node"><title>Node6</title>
<g id="a_node6"><a xlink:href="rpcwallet_8cpp.html#a61c7a90d1b36888fe11b751e746e18c0" target="_top" xlink:title="sethdseed">
<polygon fill="white" stroke="black" points="1911,-506.5 1911,-525.5 1978,-525.5 1978,-506.5 1911,-506.5"/>
<text text-anchor="middle" x="1944.5" y="-513.5" font-family="Helvetica,sans-Serif" font-size="10.00">sethdseed</text>
</a>
</g>
</g>
<!-- Node5&#45;&gt;Node6 -->
<g id="edge5" class="edge"><title>Node5&#45;&gt;Node6</title>
<path fill="none" stroke="midnightblue" d="M1835.73,-377.212C1842.57,-380.138 1849.19,-383.691 1855,-388 1899.28,-420.816 1929.19,-482.613 1939.51,-506.364"/>
<polygon fill="midnightblue" stroke="midnightblue" points="1836.91,-373.916 1826.32,-373.599 1834.4,-380.451 1836.91,-373.916"/>
</g>
<!-- Node7&#45;&gt;Node8 -->
<g id="edge7" class="edge"><title>Node7&#45;&gt;Node8</title>
<path fill="none" stroke="midnightblue" d="M761.74,-476.975C786.14,-483.073 817.219,-490.682 845,-497 859.089,-500.204 874.457,-503.504 888.464,-506.436"/>
<polygon fill="midnightblue" stroke="midnightblue" points="762.272,-473.5 751.721,-474.462 760.569,-480.29 762.272,-473.5"/>
</g>
<!-- Node25 -->
<g id="node25" class="node"><title>Node25</title>
<g id="a_node25"><a xlink:href="class_c_wallet_scan_state.html#a8012f2b0c336f7ee0b842d875f4fa4e6" target="_top" xlink:title="CWalletScanState::CWallet\lScanState">
<polygon fill="white" stroke="black" points="865.5,-457 865.5,-487 1007.5,-487 1007.5,-457 865.5,-457"/>
<text text-anchor="start" x="873.5" y="-475" font-family="Helvetica,sans-Serif" font-size="10.00">CWalletScanState::CWallet</text>
<text text-anchor="middle" x="936.5" y="-464" font-family="Helvetica,sans-Serif" font-size="10.00">ScanState</text>
</a>
</g>
</g>
<!-- Node7&#45;&gt;Node25 -->
<g id="edge32" class="edge"><title>Node7&#45;&gt;Node25</title>
<path fill="none" stroke="midnightblue" d="M762.313,-467.211C791.806,-468.027 831.342,-469.12 865.193,-470.056"/>
<polygon fill="midnightblue" stroke="midnightblue" points="762.024,-463.702 751.931,-466.924 761.83,-470.699 762.024,-463.702"/>
</g>
<!-- Node9 -->
<g id="node9" class="node"><title>Node9</title>
<g id="a_node9"><a xlink:href="class_c_key.html#a1bae09b7447a951d8fc3328b7dcc3a3f" target="_top" xlink:title="Derive BIP32 child key. ">
<polygon fill="white" stroke="black" points="1117.5,-506.5 1117.5,-525.5 1193.5,-525.5 1193.5,-506.5 1117.5,-506.5"/>
<text text-anchor="middle" x="1155.5" y="-513.5" font-family="Helvetica,sans-Serif" font-size="10.00">CKey::Derive</text>
</a>
</g>
</g>
<!-- Node8&#45;&gt;Node9 -->
<g id="edge8" class="edge"><title>Node8&#45;&gt;Node9</title>
<path fill="none" stroke="midnightblue" d="M1003.42,-509.735C1040.82,-508.839 1086.25,-509.184 1117.46,-510.772"/>
<polygon fill="midnightblue" stroke="midnightblue" points="1003,-506.245 993.101,-510.021 1003.19,-513.242 1003,-506.245"/>
</g>
<!-- Node10 -->
<g id="node10" class="node"><title>Node10</title>
<g id="a_node10"><a xlink:href="key__io_8h.html#a675809f738ce55f530880389fa330f66" target="_top" xlink:title="EncodeSecret">
<polygon fill="white" stroke="black" points="1114,-392.5 1114,-411.5 1197,-411.5 1197,-392.5 1114,-392.5"/>
<text text-anchor="middle" x="1155.5" y="-399.5" font-family="Helvetica,sans-Serif" font-size="10.00">EncodeSecret</text>
</a>
</g>
</g>
<!-- Node8&#45;&gt;Node10 -->
<g id="edge10" class="edge"><title>Node8&#45;&gt;Node10</title>
<path fill="none" stroke="midnightblue" d="M1002.98,-505.833C1011.59,-503.468 1020.14,-500.563 1028,-497 1077.03,-474.778 1125.14,-430.896 1144.99,-411.547"/>
<polygon fill="midnightblue" stroke="midnightblue" points="1002.12,-502.441 993.279,-508.281 1003.83,-509.229 1002.12,-502.441"/>
</g>
<!-- Node14 -->
<g id="node14" class="node"><title>Node14</title>
<g id="a_node14"><a xlink:href="keystore_8h.html#a2325e8758e074d2f2cd564ba7da2d0e8" target="_top" xlink:title="Checks if a CKey is in the given CKeyStore compressed or otherwise. ">
<polygon fill="white" stroke="black" points="1126.5,-544.5 1126.5,-563.5 1184.5,-563.5 1184.5,-544.5 1126.5,-544.5"/>
<text text-anchor="middle" x="1155.5" y="-551.5" font-family="Helvetica,sans-Serif" font-size="10.00">HaveKey</text>
</a>
</g>
</g>
<!-- Node8&#45;&gt;Node14 -->
<g id="edge15" class="edge"><title>Node8&#45;&gt;Node14</title>
<path fill="none" stroke="midnightblue" d="M1001.98,-527.291C1043.31,-534.529 1094.91,-543.565 1126.25,-549.053"/>
<polygon fill="midnightblue" stroke="midnightblue" points="1002.43,-523.817 991.978,-525.54 1001.22,-530.712 1002.43,-523.817"/>
</g>
<!-- Node8&#45;&gt;Node23 -->
<g id="edge30" class="edge"><title>Node8&#45;&gt;Node23</title>
<path fill="none" stroke="midnightblue" d="M965.421,-530.082C990.718,-542.476 1029.24,-560.453 1064,-573 1073.81,-576.542 1084.37,-579.876 1094.7,-582.884"/>
<polygon fill="midnightblue" stroke="midnightblue" points="966.924,-526.921 956.409,-525.628 963.823,-533.196 966.924,-526.921"/>
</g>
<!-- Node9&#45;&gt;Node8 -->
<g id="edge9" class="edge"><title>Node9&#45;&gt;Node8</title>
<path fill="none" stroke="midnightblue" d="M1107.43,-521.678C1073.83,-522.999 1028.49,-523.099 993.101,-521.979"/>
<polygon fill="midnightblue" stroke="midnightblue" points="1107.63,-525.172 1117.46,-521.228 1107.32,-518.179 1107.63,-525.172"/>
</g>
<!-- Node11 -->
<g id="node11" class="node"><title>Node11</title>
<g id="a_node11"><a xlink:href="rpcwallet_8cpp.html#ab3f51d8e8fe414dbf91c37485e481ae3" target="_top" xlink:title="dumpprivkey">
<polygon fill="white" stroke="black" points="1540,-392.5 1540,-411.5 1618,-411.5 1618,-392.5 1540,-392.5"/>
<text text-anchor="middle" x="1579" y="-399.5" font-family="Helvetica,sans-Serif" font-size="10.00">dumpprivkey</text>
</a>
</g>
</g>
<!-- Node10&#45;&gt;Node11 -->
<g id="edge11" class="edge"><title>Node10&#45;&gt;Node11</title>
<path fill="none" stroke="midnightblue" d="M1207.56,-402C1293.21,-402 1463.89,-402 1539.93,-402"/>
<polygon fill="midnightblue" stroke="midnightblue" points="1207.3,-398.5 1197.3,-402 1207.3,-405.5 1207.3,-398.5"/>
</g>
<!-- Node10&#45;&gt;Node12 -->
<g id="edge13" class="edge"><title>Node10&#45;&gt;Node12</title>
<path fill="none" stroke="midnightblue" d="M1192.91,-388.915C1235.19,-373.725 1303.89,-349.038 1341.43,-335.547"/>
<polygon fill="midnightblue" stroke="midnightblue" points="1191.51,-385.699 1183.29,-392.375 1193.88,-392.287 1191.51,-385.699"/>
</g>
<!-- Node11&#45;&gt;Node6 -->
<g id="edge12" class="edge"><title>Node11&#45;&gt;Node6</title>
<path fill="none" stroke="midnightblue" d="M1628.42,-395.03C1685.55,-389.061 1782,-386.197 1855,-421 1895.08,-440.11 1925.88,-486.066 1937.95,-506.233"/>
<polygon fill="midnightblue" stroke="midnightblue" points="1627.77,-391.58 1618.22,-396.172 1628.55,-398.537 1627.77,-391.58"/>
</g>
<!-- Node13 -->
<g id="node13" class="node"><title>Node13</title>
<g id="a_node13"><a xlink:href="wallet__tests_8cpp.html#a2a726fa52b0a343883cb50a3f68d0989" target="_top" xlink:title="BOOST_FIXTURE_TEST_CASE">
<polygon fill="white" stroke="black" points="1502,-297.5 1502,-316.5 1656,-316.5 1656,-297.5 1502,-297.5"/>
<text text-anchor="middle" x="1579" y="-304.5" font-family="Helvetica,sans-Serif" font-size="10.00">BOOST_FIXTURE_TEST_CASE</text>
</a>
</g>
</g>
<!-- Node12&#45;&gt;Node13 -->
<g id="edge14" class="edge"><title>Node12&#45;&gt;Node13</title>
<path fill="none" stroke="midnightblue" d="M1414.84,-321.904C1440.14,-319.593 1472.43,-316.644 1501.6,-313.979"/>
<polygon fill="midnightblue" stroke="midnightblue" points="1414.45,-318.425 1404.81,-322.82 1415.09,-325.396 1414.45,-318.425"/>
</g>
<!-- Node14&#45;&gt;Node6 -->
<g id="edge29" class="edge"><title>Node14&#45;&gt;Node6</title>
<path fill="none" stroke="midnightblue" d="M1194.69,-547.039C1219.72,-542.782 1253.19,-537.657 1283,-535 1523.24,-513.581 1814.38,-514.529 1910.77,-515.551"/>
<polygon fill="midnightblue" stroke="midnightblue" points="1193.78,-543.646 1184.52,-548.801 1194.97,-550.543 1193.78,-543.646"/>
</g>
<!-- Node15 -->
<g id="node15" class="node"><title>Node15</title>
<g id="a_node15"><a xlink:href="group__map_wallet.html#gafb01fcc10d890174b2db560a7f27b58a" target="_top" xlink:title="CWallet::DeriveNewChildKey">
<polygon fill="white" stroke="black" points="1295,-582.5 1295,-601.5 1443,-601.5 1443,-582.5 1295,-582.5"/>
<text text-anchor="middle" x="1369" y="-589.5" font-family="Helvetica,sans-Serif" font-size="10.00">CWallet::DeriveNewChildKey</text>
</a>
</g>
</g>
<!-- Node14&#45;&gt;Node15 -->
<g id="edge16" class="edge"><title>Node14&#45;&gt;Node15</title>
<path fill="none" stroke="midnightblue" d="M1194.48,-560.823C1228.08,-566.86 1277.45,-575.731 1314.95,-582.469"/>
<polygon fill="midnightblue" stroke="midnightblue" points="1195.05,-557.37 1184.59,-559.046 1193.81,-564.259 1195.05,-557.37"/>
</g>
<!-- Node16 -->
<g id="node16" class="node"><title>Node16</title>
<g id="a_node16"><a xlink:href="group___actions.html#gaa869ffae7560168064463f3157633a8b" target="_top" xlink:title="Reserves a key from the keypool and sets nIndex to its index. ">
<polygon fill="white" stroke="black" points="1283,-620.5 1283,-639.5 1455,-639.5 1455,-620.5 1283,-620.5"/>
<text text-anchor="middle" x="1369" y="-627.5" font-family="Helvetica,sans-Serif" font-size="10.00">CWallet::ReserveKeyFromKeyPool</text>
</a>
</g>
</g>
<!-- Node14&#45;&gt;Node16 -->
<g id="edge17" class="edge"><title>Node14&#45;&gt;Node16</title>
<path fill="none" stroke="midnightblue" d="M1194.6,-557.433C1211.47,-560.177 1231.05,-565.115 1247,-574 1267.04,-585.167 1262.97,-599.809 1283,-611 1290,-614.909 1297.74,-618.014 1305.62,-620.48"/>
<polygon fill="midnightblue" stroke="midnightblue" points="1194.9,-553.94 1184.5,-555.992 1193.91,-560.87 1194.9,-553.94"/>
</g>
<!-- Node17 -->
<g id="node17" class="node"><title>Node17</title>
<g id="a_node17"><a xlink:href="class_c_crypto_key_store.html#a1cb434078a9ea686c0acf168d2c81252" target="_top" xlink:title="CCryptoKeyStore::IsCrypted">
<polygon fill="white" stroke="black" points="1294.5,-544.5 1294.5,-563.5 1443.5,-563.5 1443.5,-544.5 1294.5,-544.5"/>
<text text-anchor="middle" x="1369" y="-551.5" font-family="Helvetica,sans-Serif" font-size="10.00">CCryptoKeyStore::IsCrypted</text>
</a>
</g>
</g>
<!-- Node14&#45;&gt;Node17 -->
<g id="edge18" class="edge"><title>Node14&#45;&gt;Node17</title>
<path fill="none" stroke="midnightblue" d="M1194.64,-554C1222.32,-554 1260.65,-554 1294.22,-554"/>
<polygon fill="midnightblue" stroke="midnightblue" points="1194.59,-550.5 1184.59,-554 1194.59,-557.5 1194.59,-550.5"/>
</g>
<!-- Node18 -->
<g id="node18" class="node"><title>Node18</title>
<g id="a_node18"><a xlink:href="rpcwallet_8h.html#ad35d45071ce42aaef4b74910e36eda5a" target="_top" xlink:title="HelpRequiringPassphrase">
<polygon fill="white" stroke="black" points="1510.5,-620.5 1510.5,-639.5 1647.5,-639.5 1647.5,-620.5 1510.5,-620.5"/>
<text text-anchor="middle" x="1579" y="-627.5" font-family="Helvetica,sans-Serif" font-size="10.00">HelpRequiringPassphrase</text>
</a>
</g>
</g>
<!-- Node17&#45;&gt;Node18 -->
<g id="edge19" class="edge"><title>Node17&#45;&gt;Node18</title>
<path fill="none" stroke="midnightblue" d="M1440.83,-566.796C1445.73,-568.599 1450.51,-570.656 1455,-573 1474.24,-583.041 1472.01,-595.488 1491,-606 1502.24,-612.222 1515.21,-616.921 1527.64,-620.433"/>
<polygon fill="midnightblue" stroke="midnightblue" points="1441.87,-563.454 1431.28,-563.631 1439.67,-570.099 1441.87,-563.454"/>
</g>
<!-- Node21 -->
<g id="node21" class="node"><title>Node21</title>
<g id="a_node21"><a xlink:href="rpcwallet_8cpp.html#a74b85c92ee6a84277c73b74f2e212bff" target="_top" xlink:title="listtransactions">
<polygon fill="white" stroke="black" points="1734.5,-544.5 1734.5,-563.5 1823.5,-563.5 1823.5,-544.5 1734.5,-544.5"/>
<text text-anchor="middle" x="1779" y="-551.5" font-family="Helvetica,sans-Serif" font-size="10.00">listtransactions</text>
</a>
</g>
</g>
<!-- Node17&#45;&gt;Node21 -->
<g id="edge28" class="edge"><title>Node17&#45;&gt;Node21</title>
<path fill="none" stroke="midnightblue" d="M1429.25,-565.19C1448.83,-568.383 1470.78,-571.422 1491,-573 1568.99,-579.086 1589.06,-579.622 1667,-573 1689.4,-571.096 1714.08,-567.069 1734.46,-563.21"/>
<polygon fill="midnightblue" stroke="midnightblue" points="1429.69,-561.715 1419.25,-563.513 1428.53,-568.618 1429.69,-561.715"/>
</g>
<!-- Node18&#45;&gt;Node6 -->
<g id="edge27" class="edge"><title>Node18&#45;&gt;Node6</title>
<path fill="none" stroke="midnightblue" d="M1648.27,-618.799C1717.11,-606.98 1818.28,-588.021 1855,-573 1884.77,-560.822 1915.44,-538.447 1931.7,-525.653"/>
<polygon fill="midnightblue" stroke="midnightblue" points="1647.63,-615.358 1638.36,-620.49 1648.81,-622.258 1647.63,-615.358"/>
</g>
<!-- Node19 -->
<g id="node19" class="node"><title>Node19</title>
<g id="a_node19"><a xlink:href="rawtransaction_8cpp.html#a5b2abfea4548c97e780cfae39f9ac11b" target="_top" xlink:title="signrawtransaction">
<polygon fill="white" stroke="black" points="1891,-658.5 1891,-677.5 1998,-677.5 1998,-658.5 1891,-658.5"/>
<text text-anchor="middle" x="1944.5" y="-665.5" font-family="Helvetica,sans-Serif" font-size="10.00">signrawtransaction</text>
</a>
</g>
</g>
<!-- Node18&#45;&gt;Node19 -->
<g id="edge20" class="edge"><title>Node18&#45;&gt;Node19</title>
<path fill="none" stroke="midnightblue" d="M1603.9,-644.904C1627.9,-658.93 1666.48,-678.949 1703,-687 1773.96,-702.644 1859.21,-688.356 1906.78,-677.522"/>
<polygon fill="midnightblue" stroke="midnightblue" points="1605.53,-641.8 1595.15,-639.677 1601.94,-647.81 1605.53,-641.8"/>
</g>
<!-- Node20 -->
<g id="node20" class="node"><title>Node20</title>
<g id="a_node20"><a xlink:href="rpcwallet_8cpp.html#a7424e87562c3781c88662ebfb6ef7e4a" target="_top" xlink:title="GetLabelDestination">
<polygon fill="white" stroke="black" points="1722,-658.5 1722,-677.5 1836,-677.5 1836,-658.5 1722,-658.5"/>
<text text-anchor="middle" x="1779" y="-665.5" font-family="Helvetica,sans-Serif" font-size="10.00">GetLabelDestination</text>
</a>
</g>
</g>
<!-- Node18&#45;&gt;Node20 -->
<g id="edge21" class="edge"><title>Node18&#45;&gt;Node20</title>
<path fill="none" stroke="midnightblue" d="M1639.87,-641.489C1668.12,-646.911 1701.44,-653.306 1728.27,-658.456"/>
<polygon fill="midnightblue" stroke="midnightblue" points="1640.19,-637.988 1629.71,-639.54 1638.87,-644.862 1640.19,-637.988"/>
</g>
<!-- Node18&#45;&gt;Node21 -->
<g id="edge22" class="edge"><title>Node18&#45;&gt;Node21</title>
<path fill="none" stroke="midnightblue" d="M1637.39,-617.618C1647.52,-614.472 1657.77,-610.633 1667,-606 1685.12,-596.909 1685.07,-587.457 1703,-578 1714.25,-572.068 1727.22,-567.279 1739.18,-563.585"/>
<polygon fill="midnightblue" stroke="midnightblue" points="1636.38,-614.268 1627.76,-620.425 1638.34,-620.988 1636.38,-614.268"/>
</g>
<!-- Node22 -->
<g id="node22" class="node"><title>Node22</title>
<g id="a_node22"><a xlink:href="rpcwallet_8h.html#a7c13054932c9e3b351bd6277fa9361d7" target="_top" xlink:title="signrawtransactionwithwallet">
<polygon fill="white" stroke="black" points="1703,-620.5 1703,-639.5 1855,-639.5 1855,-620.5 1703,-620.5"/>
<text text-anchor="middle" x="1779" y="-627.5" font-family="Helvetica,sans-Serif" font-size="10.00">signrawtransactionwithwallet</text>
</a>
</g>
</g>
<!-- Node18&#45;&gt;Node22 -->
<g id="edge24" class="edge"><title>Node18&#45;&gt;Node22</title>
<path fill="none" stroke="midnightblue" d="M1657.75,-630C1672.61,-630 1688.13,-630 1702.91,-630"/>
<polygon fill="midnightblue" stroke="midnightblue" points="1657.59,-626.5 1647.59,-630 1657.59,-633.5 1657.59,-626.5"/>
</g>
<!-- Node21&#45;&gt;Node6 -->
<g id="edge23" class="edge"><title>Node21&#45;&gt;Node6</title>
<path fill="none" stroke="midnightblue" d="M1831.31,-542.074C1857.28,-536.039 1888.02,-528.894 1910.75,-523.611"/>
<polygon fill="midnightblue" stroke="midnightblue" points="1830.21,-538.738 1821.26,-544.411 1831.79,-545.556 1830.21,-538.738"/>
</g>
<!-- Node22&#45;&gt;Node6 -->
<g id="edge26" class="edge"><title>Node22&#45;&gt;Node6</title>
<path fill="none" stroke="midnightblue" d="M1831.57,-617.168C1839.71,-614.119 1847.8,-610.43 1855,-606 1891.02,-583.831 1923.03,-543.935 1936.6,-525.641"/>
<polygon fill="midnightblue" stroke="midnightblue" points="1830.36,-613.885 1822.05,-620.459 1832.64,-620.501 1830.36,-613.885"/>
</g>
<!-- Node22&#45;&gt;Node19 -->
<g id="edge25" class="edge"><title>Node22&#45;&gt;Node19</title>
<path fill="none" stroke="midnightblue" d="M1831.18,-641.896C1854.17,-647.237 1880.91,-653.454 1902.54,-658.48"/>
<polygon fill="midnightblue" stroke="midnightblue" points="1831.79,-638.444 1821.26,-639.589 1830.21,-645.262 1831.79,-638.444"/>
</g>
<!-- Node24 -->
<g id="node24" class="node"><title>Node24</title>
<g id="a_node24"><a xlink:href="sign_8h.html#ac425c440cbc90e69519067760dc68df7" target="_top" xlink:title="SignSignature">
<polygon fill="white" stroke="black" points="1327,-658.5 1327,-677.5 1411,-677.5 1411,-658.5 1327,-658.5"/>
<text text-anchor="middle" x="1369" y="-665.5" font-family="Helvetica,sans-Serif" font-size="10.00">SignSignature</text>
</a>
</g>
</g>
<!-- Node23&#45;&gt;Node24 -->
<g id="edge31" class="edge"><title>Node23&#45;&gt;Node24</title>
<path fill="none" stroke="midnightblue" d="M1198.8,-617.073C1223.08,-627.509 1254.36,-640.09 1283,-649 1297.01,-653.357 1312.6,-657.139 1326.57,-660.158"/>
<polygon fill="midnightblue" stroke="midnightblue" points="1200.09,-613.816 1189.52,-613.043 1197.3,-620.237 1200.09,-613.816"/>
</g>
<!-- Node27 -->
<g id="node27" class="node"><title>Node27</title>
<g id="a_node27"><a xlink:href="struct_c_importing_now.html#a0e449b23ac612ff3ff491d989fd08a18" target="_top" xlink:title="CImportingNow::~CImportingNow">
<polygon fill="white" stroke="black" points="848.5,-126.5 848.5,-145.5 1024.5,-145.5 1024.5,-126.5 848.5,-126.5"/>
<text text-anchor="middle" x="936.5" y="-133.5" font-family="Helvetica,sans-Serif" font-size="10.00">CImportingNow::~CImportingNow</text>
</a>
</g>
</g>
<!-- Node26&#45;&gt;Node27 -->
<g id="edge34" class="edge"><title>Node26&#45;&gt;Node27</title>
<path fill="none" stroke="midnightblue" d="M782.891,-162.724C814.111,-157.257 851.202,-150.762 880.999,-145.544"/>
<polygon fill="midnightblue" stroke="midnightblue" points="782.225,-159.288 772.978,-164.46 783.432,-166.183 782.225,-159.288"/>
</g>
<!-- Node28 -->
<g id="node28" class="node"><title>Node28</title>
<g id="a_node28"><a xlink:href="struct_c_ext_key.html#aff923572d1c4e4708790cb0ecc922a24" target="_top" xlink:title="CExtKey::Unserialize">
<polygon fill="white" stroke="black" points="880,-164.5 880,-183.5 993,-183.5 993,-164.5 880,-164.5"/>
<text text-anchor="middle" x="936.5" y="-171.5" font-family="Helvetica,sans-Serif" font-size="10.00">CExtKey::Unserialize</text>
</a>
</g>
</g>
<!-- Node26&#45;&gt;Node28 -->
<g id="edge35" class="edge"><title>Node26&#45;&gt;Node28</title>
<path fill="none" stroke="midnightblue" d="M785.294,-174C815.596,-174 851.018,-174 879.851,-174"/>
<polygon fill="midnightblue" stroke="midnightblue" points="785.231,-170.5 775.231,-174 785.231,-177.5 785.231,-170.5"/>
</g>
<!-- Node29&#45;&gt;Node29 -->
<g id="edge42" class="edge"><title>Node29&#45;&gt;Node29</title>
<path fill="none" stroke="midnightblue" d="M1329.72,-466.618C1328.35,-472.856 1341.44,-478 1369,-478 1406.53,-478 1417.23,-468.461 1401.11,-459.612"/>
<polygon fill="midnightblue" stroke="midnightblue" points="1332.19,-469.104 1336.89,-459.612 1327.3,-464.096 1332.19,-469.104"/>
</g>
<!-- Node30 -->
<g id="node30" class="node"><title>Node30</title>
<g id="a_node30"><a xlink:href="group__map_wallet.html#ga002c61a2b74f2c46063340c568e6cc1b" target="_top" xlink:title="CWallet::Unlock">
<polygon fill="white" stroke="black" points="1534.5,-544.5 1534.5,-563.5 1623.5,-563.5 1623.5,-544.5 1534.5,-544.5"/>
<text text-anchor="middle" x="1579" y="-551.5" font-family="Helvetica,sans-Serif" font-size="10.00">CWallet::Unlock</text>
</a>
</g>
</g>
<!-- Node29&#45;&gt;Node30 -->
<g id="edge38" class="edge"><title>Node29&#45;&gt;Node30</title>
<path fill="none" stroke="midnightblue" d="M1398.27,-464.136C1441.29,-485.644 1522.05,-526.025 1558.85,-544.426"/>
<polygon fill="midnightblue" stroke="midnightblue" points="1399.7,-460.939 1389.2,-459.598 1396.57,-467.2 1399.7,-460.939"/>
</g>
<!-- Node31 -->
<g id="node31" class="node"><title>Node31</title>
<g id="a_node31"><a xlink:href="group__map_wallet.html#ga4abcec3066e7c462f4564c159fc15031" target="_top" xlink:title="CWallet::ChangeWalletPassphrase">
<polygon fill="white" stroke="black" points="1491,-468.5 1491,-487.5 1667,-487.5 1667,-468.5 1491,-468.5"/>
<text text-anchor="middle" x="1579" y="-475.5" font-family="Helvetica,sans-Serif" font-size="10.00">CWallet::ChangeWalletPassphrase</text>
</a>
</g>
</g>
<!-- Node29&#45;&gt;Node31 -->
<g id="edge40" class="edge"><title>Node29&#45;&gt;Node31</title>
<path fill="none" stroke="midnightblue" d="M1430.14,-458.096C1454.2,-461.334 1482.09,-465.089 1507.12,-468.458"/>
<polygon fill="midnightblue" stroke="midnightblue" points="1430.46,-454.608 1420.09,-456.742 1429.53,-461.545 1430.46,-454.608"/>
</g>
<!-- Node32 -->
<g id="node32" class="node"><title>Node32</title>
<g id="a_node32"><a xlink:href="class_test_crypter.html#a93c08804ea02ced9541291535625590d" target="_top" xlink:title="TestCrypter::TestDecrypt">
<polygon fill="white" stroke="black" points="1512.5,-430.5 1512.5,-449.5 1645.5,-449.5 1645.5,-430.5 1512.5,-430.5"/>
<text text-anchor="middle" x="1579" y="-437.5" font-family="Helvetica,sans-Serif" font-size="10.00">TestCrypter::TestDecrypt</text>
</a>
</g>
</g>
<!-- Node29&#45;&gt;Node32 -->
<g id="edge43" class="edge"><title>Node29&#45;&gt;Node32</title>
<path fill="none" stroke="midnightblue" d="M1430.08,-447.112C1455.79,-445.875 1485.9,-444.428 1512.22,-443.163"/>
<polygon fill="midnightblue" stroke="midnightblue" points="1429.91,-443.616 1420.09,-447.592 1430.24,-450.608 1429.91,-443.616"/>
</g>
<!-- Node30&#45;&gt;Node21 -->
<g id="edge39" class="edge"><title>Node30&#45;&gt;Node21</title>
<path fill="none" stroke="midnightblue" d="M1634.28,-554C1665.7,-554 1704.73,-554 1734.18,-554"/>
<polygon fill="midnightblue" stroke="midnightblue" points="1633.94,-550.5 1623.94,-554 1633.94,-557.5 1633.94,-550.5"/>
</g>
<!-- Node31&#45;&gt;Node21 -->
<g id="edge41" class="edge"><title>Node31&#45;&gt;Node21</title>
<path fill="none" stroke="midnightblue" d="M1614.59,-491.278C1654.21,-506.483 1718.13,-531.019 1753.13,-544.453"/>
<polygon fill="midnightblue" stroke="midnightblue" points="1615.67,-487.941 1605.08,-487.625 1613.16,-494.477 1615.67,-487.941"/>
</g>
<!-- Node33 -->
<g id="node33" class="node"><title>Node33</title>
<g id="a_node33"><a xlink:href="wallet__crypto__tests_8cpp.html#aee84e10c9cfc1d150e3e60eab1245ce4" target="_top" xlink:title="BOOST_AUTO_TEST_CASE">
<polygon fill="white" stroke="black" points="1707.5,-430.5 1707.5,-449.5 1850.5,-449.5 1850.5,-430.5 1707.5,-430.5"/>
<text text-anchor="middle" x="1779" y="-437.5" font-family="Helvetica,sans-Serif" font-size="10.00">BOOST_AUTO_TEST_CASE</text>
</a>
</g>
</g>
<!-- Node32&#45;&gt;Node33 -->
<g id="edge44" class="edge"><title>Node32&#45;&gt;Node33</title>
<path fill="none" stroke="midnightblue" d="M1656.03,-440C1672.92,-440 1690.76,-440 1707.42,-440"/>
<polygon fill="midnightblue" stroke="midnightblue" points="1655.66,-436.5 1645.66,-440 1655.66,-443.5 1655.66,-436.5"/>
</g>
<!-- Node34&#45;&gt;Node6 -->
<g id="edge46" class="edge"><title>Node34&#45;&gt;Node6</title>
<path fill="none" stroke="midnightblue" d="M1206.87,-214.434C1332.14,-201.03 1661.59,-184.13 1855,-345 1909.23,-390.103 1934.19,-477.023 1941.28,-506.187"/>
<polygon fill="midnightblue" stroke="midnightblue" points="1206.35,-210.97 1196.79,-215.552 1207.12,-217.927 1206.35,-210.97"/>
</g>
<!-- Node35&#45;&gt;Node13 -->
<g id="edge48" class="edge"><title>Node35&#45;&gt;Node13</title>
<path fill="none" stroke="midnightblue" d="M984.321,-289.389C1093.94,-292.641 1368.08,-300.773 1501.99,-304.745"/>
<polygon fill="midnightblue" stroke="midnightblue" points="984.336,-285.888 974.237,-289.09 984.128,-292.885 984.336,-285.888"/>
</g>
<!-- Node38 -->
<g id="node38" class="node"><title>Node38</title>
<g id="a_node38"><a xlink:href="org__bitcoin___native_secp256k1_8h.html#a0910303b495ea32d6ff021d106401a3f" target="_top" xlink:title="Java_org_bitcoin_NativeSecp256k1\l_secp256k1_1ecdsa_1verify">
<polygon fill="white" stroke="black" points="407,-115 407,-145 590,-145 590,-115 407,-115"/>
<text text-anchor="start" x="415" y="-133" font-family="Helvetica,sans-Serif" font-size="10.00">Java_org_bitcoin_NativeSecp256k1</text>
<text text-anchor="middle" x="498.5" y="-122" font-family="Helvetica,sans-Serif" font-size="10.00">_secp256k1_1ecdsa_1verify</text>
</a>
</g>
</g>
<!-- Node37&#45;&gt;Node38 -->
<g id="edge54" class="edge"><title>Node37&#45;&gt;Node38</title>
<path fill="none" stroke="midnightblue" d="M381.5,-130C389.922,-130 398.405,-130 406.745,-130"/>
<polygon fill="midnightblue" stroke="midnightblue" points="381.27,-126.5 371.27,-130 381.27,-133.5 381.27,-126.5"/>
</g>
<!-- Node39 -->
<g id="node39" class="node"><title>Node39</title>
<g id="a_node39"><a xlink:href="org__bitcoin___native_secp256k1_8h.html#ae9e370a68f645ab4e7db6ec174f0a194" target="_top" xlink:title="Java_org_bitcoin_NativeSecp256k1\l_secp256k1_1destroy_1context">
<polygon fill="white" stroke="black" points="626,-96 626,-126 809,-126 809,-96 626,-96"/>
<text text-anchor="start" x="634" y="-114" font-family="Helvetica,sans-Serif" font-size="10.00">Java_org_bitcoin_NativeSecp256k1</text>
<text text-anchor="middle" x="717.5" y="-103" font-family="Helvetica,sans-Serif" font-size="10.00">_secp256k1_1destroy_1context</text>
</a>
</g>
</g>
<!-- Node38&#45;&gt;Node39 -->
<g id="edge55" class="edge"><title>Node38&#45;&gt;Node39</title>
<path fill="none" stroke="midnightblue" d="M600.5,-121.157C608.922,-120.419 617.405,-119.676 625.745,-118.946"/>
<polygon fill="midnightblue" stroke="midnightblue" points="599.927,-117.693 590.27,-122.052 600.537,-124.667 599.927,-117.693"/>
</g>
<!-- Node40 -->
<g id="node40" class="node"><title>Node40</title>
<g id="a_node40"><a xlink:href="org__bitcoin___native_secp256k1_8h.html#af9ebcabe37bfdc8663728455acf5f832" target="_top" xlink:title="Java_org_bitcoin_NativeSecp256k1\l_secp256k1_1context_1randomize">
<polygon fill="white" stroke="black" points="845,-77 845,-107 1028,-107 1028,-77 845,-77"/>
<text text-anchor="start" x="853" y="-95" font-family="Helvetica,sans-Serif" font-size="10.00">Java_org_bitcoin_NativeSecp256k1</text>
<text text-anchor="middle" x="936.5" y="-84" font-family="Helvetica,sans-Serif" font-size="10.00">_secp256k1_1context_1randomize</text>
</a>
</g>
</g>
<!-- Node39&#45;&gt;Node40 -->
<g id="edge56" class="edge"><title>Node39&#45;&gt;Node40</title>
<path fill="none" stroke="midnightblue" d="M819.5,-102.157C827.922,-101.419 836.405,-100.676 844.745,-99.9463"/>
<polygon fill="midnightblue" stroke="midnightblue" points="818.927,-98.6934 809.27,-103.052 819.537,-105.667 818.927,-98.6934"/>
</g>
<!-- Node41 -->
<g id="node41" class="node"><title>Node41</title>
<g id="a_node41"><a xlink:href="org__bitcoin___native_secp256k1_8h.html#a740d3ac07d74676d105dacef51a11c54" target="_top" xlink:title="Java_org_bitcoin_NativeSecp256k1\l_secp256k1_1ctx_1clone">
<polygon fill="white" stroke="black" points="1064,-77 1064,-107 1247,-107 1247,-77 1064,-77"/>
<text text-anchor="start" x="1072" y="-95" font-family="Helvetica,sans-Serif" font-size="10.00">Java_org_bitcoin_NativeSecp256k1</text>
<text text-anchor="middle" x="1155.5" y="-84" font-family="Helvetica,sans-Serif" font-size="10.00">_secp256k1_1ctx_1clone</text>
</a>
</g>
</g>
<!-- Node40&#45;&gt;Node41 -->
<g id="edge57" class="edge"><title>Node40&#45;&gt;Node41</title>
<path fill="none" stroke="midnightblue" d="M1038.5,-92C1046.92,-92 1055.41,-92 1063.74,-92"/>
<polygon fill="midnightblue" stroke="midnightblue" points="1038.27,-88.5001 1028.27,-92 1038.27,-95.5001 1038.27,-88.5001"/>
</g>
<!-- Node43 -->
<g id="node43" class="node"><title>Node43</title>
<g id="a_node43"><a xlink:href="tests_8c.html#ab05096657be701bf9ca8616475bb9491" target="_top" xlink:title="run_ecdsa_end_to_end">
<polygon fill="white" stroke="black" points="434.5,-0.5 434.5,-19.5 562.5,-19.5 562.5,-0.5 434.5,-0.5"/>
<text text-anchor="middle" x="498.5" y="-7.5" font-family="Helvetica,sans-Serif" font-size="10.00">run_ecdsa_end_to_end</text>
</a>
</g>
</g>
<!-- Node42&#45;&gt;Node43 -->
<g id="edge59" class="edge"><title>Node42&#45;&gt;Node43</title>
<path fill="none" stroke="midnightblue" d="M355.127,-10C380.925,-10 409.563,-10 434.35,-10"/>
<polygon fill="midnightblue" stroke="midnightblue" points="355.02,-6.5001 345.02,-10 355.02,-13.5001 355.02,-6.5001"/>
</g>
<!-- Node44 -->
<g id="node44" class="node"><title>Node44</title>
<g id="a_node44"><a xlink:href="tests_8c.html#a3c04138a5bfe5d72780bb7e82a18e627" target="_top" xlink:title="main">
<polygon fill="white" stroke="black" points="697,-38.5 697,-57.5 738,-57.5 738,-38.5 697,-38.5"/>
<text text-anchor="middle" x="717.5" y="-45.5" font-family="Helvetica,sans-Serif" font-size="10.00">main</text>
</a>
</g>
</g>
<!-- Node43&#45;&gt;Node44 -->
<g id="edge60" class="edge"><title>Node43&#45;&gt;Node44</title>
<path fill="none" stroke="midnightblue" d="M564.05,-21.3037C609.453,-29.2544 667.212,-39.3689 696.909,-44.5693"/>
<polygon fill="midnightblue" stroke="midnightblue" points="564.432,-17.8174 553.978,-19.54 563.225,-24.7125 564.432,-17.8174"/>
</g>
<!-- Node46 -->
<g id="node46" class="node"><title>Node46</title>
<g id="a_node46"><a xlink:href="tests_8c.html#aed8d29b89e89ae8bf370483684b1f7d2" target="_top" xlink:title="run_ecdsa_der_parse">
<polygon fill="white" stroke="black" points="439,-76.5 439,-95.5 558,-95.5 558,-76.5 439,-76.5"/>
<text text-anchor="middle" x="498.5" y="-83.5" font-family="Helvetica,sans-Serif" font-size="10.00">run_ecdsa_der_parse</text>
</a>
</g>
</g>
<!-- Node45&#45;&gt;Node46 -->
<g id="edge62" class="edge"><title>Node45&#45;&gt;Node46</title>
<path fill="none" stroke="midnightblue" d="M350.915,-86C379.29,-86 411.644,-86 438.725,-86"/>
<polygon fill="midnightblue" stroke="midnightblue" points="350.658,-82.5001 340.658,-86 350.658,-89.5001 350.658,-82.5001"/>
</g>
<!-- Node46&#45;&gt;Node44 -->
<g id="edge63" class="edge"><title>Node46&#45;&gt;Node44</title>
<path fill="none" stroke="midnightblue" d="M564.05,-74.6963C609.453,-66.7456 667.212,-56.6311 696.909,-51.4307"/>
<polygon fill="midnightblue" stroke="midnightblue" points="563.225,-71.2875 553.978,-76.46 564.432,-78.1826 563.225,-71.2875"/>
</g>
<!-- Node48 -->
<g id="node48" class="node"><title>Node48</title>
<g id="a_node48"><a xlink:href="tests_8c.html#ad6c8109b62ea1d0ed1b382678a2a08b1" target="_top" xlink:title="run_ecdsa_edge_cases">
<polygon fill="white" stroke="black" points="434.5,-38.5 434.5,-57.5 562.5,-57.5 562.5,-38.5 434.5,-38.5"/>
<text text-anchor="middle" x="498.5" y="-45.5" font-family="Helvetica,sans-Serif" font-size="10.00">run_ecdsa_edge_cases</text>
</a>
</g>
</g>
<!-- Node47&#45;&gt;Node48 -->
<g id="edge65" class="edge"><title>Node47&#45;&gt;Node48</title>
<path fill="none" stroke="midnightblue" d="M355.127,-48C380.925,-48 409.563,-48 434.35,-48"/>
<polygon fill="midnightblue" stroke="midnightblue" points="355.02,-44.5001 345.02,-48 355.02,-51.5001 355.02,-44.5001"/>
</g>
<!-- Node48&#45;&gt;Node44 -->
<g id="edge66" class="edge"><title>Node48&#45;&gt;Node44</title>
<path fill="none" stroke="midnightblue" d="M572.621,-48C616.426,-48 668.871,-48 696.765,-48"/>
<polygon fill="midnightblue" stroke="midnightblue" points="572.557,-44.5001 562.557,-48 572.557,-51.5001 572.557,-44.5001"/>
</g>
</g>
</svg>
