<?xml version="1.0" encoding="UTF-8" standalone="no"?>
<!DOCTYPE svg PUBLIC "-//W3C//DTD SVG 1.1//EN"
 "http://www.w3.org/Graphics/SVG/1.1/DTD/svg11.dtd">
<!-- Generated by graphviz version 2.49.3 (0)
 -->
<!-- Title: DecodeDouble Pages: 1 -->
<svg width="275pt" height="66pt"
 viewBox="0.00 0.00 275.00 66.00" xmlns="http://www.w3.org/2000/svg" xmlns:xlink="http://www.w3.org/1999/xlink">
<g id="graph0" class="graph" transform="scale(1 1) rotate(0) translate(4 62)">
<title>DecodeDouble</title>
<polygon fill="white" stroke="transparent" points="-4,4 -4,-62 271,-62 271,4 -4,4"/>
<!-- Node1 -->
<g id="node1" class="node">
<title>Node1</title>
<g id="a_node1"><a xlink:title=" ">
<polygon fill="#bfbfbf" stroke="black" points="179,-19.5 179,-38.5 267,-38.5 267,-19.5 179,-19.5"/>
<text text-anchor="middle" x="223" y="-26.5" font-family="Helvetica,sans-Serif" font-size="10.00">DecodeDouble</text>
</a>
</g>
</g>
<!-- Node2 -->
<g id="node2" class="node">
<title>Node2</title>
<g id="a_node2"><a xlink:href="serfloat__tests_8cpp.html#a4a1f85163fa1c6f83d80c181c8182dae" target="_top" xlink:title=" ">
<polygon fill="white" stroke="black" points="0,-38.5 0,-57.5 143,-57.5 143,-38.5 0,-38.5"/>
<text text-anchor="middle" x="71.5" y="-45.5" font-family="Helvetica,sans-Serif" font-size="10.00">BOOST_AUTO_TEST_CASE</text>
</a>
</g>
</g>
<!-- Node1&#45;&gt;Node2 -->
<g id="edge1" class="edge">
<title>Node1&#45;&gt;Node2</title>
<path fill="none" stroke="midnightblue" d="M168.58,-35.79C160.36,-36.83 151.77,-37.93 143.25,-39.01"/>
<polygon fill="midnightblue" stroke="midnightblue" points="169.28,-39.23 178.76,-34.5 168.4,-32.28 169.28,-39.23"/>
</g>
<!-- Node3 -->
<g id="node3" class="node">
<title>Node3</title>
<g id="a_node3"><a xlink:href="float_8cpp.html#a3d8d1a5a92394a86ca5b3bfd827f9754" target="_top" xlink:title=" ">
<polygon fill="white" stroke="black" points="28,-0.5 28,-19.5 115,-19.5 115,-0.5 28,-0.5"/>
<text text-anchor="middle" x="71.5" y="-7.5" font-family="Helvetica,sans-Serif" font-size="10.00">FUZZ_TARGET</text>
</a>
</g>
</g>
<!-- Node1&#45;&gt;Node3 -->
<g id="edge2" class="edge">
<title>Node1&#45;&gt;Node3</title>
<path fill="none" stroke="midnightblue" d="M168.65,-22.22C151.08,-19.99 131.79,-17.54 115.13,-15.42"/>
<polygon fill="midnightblue" stroke="midnightblue" points="168.4,-25.72 178.76,-23.5 169.28,-18.77 168.4,-25.72"/>
</g>
</g>
</svg>
