<?xml version="1.0" encoding="UTF-8" standalone="no"?>
<!DOCTYPE svg PUBLIC "-//W3C//DTD SVG 1.1//EN"
 "http://www.w3.org/Graphics/SVG/1.1/DTD/svg11.dtd">
<!-- Generated by graphviz version 2.38.0 (20140413.2041)
 -->
<!-- Title: src/serialize.h Pages: 1 -->
<svg width="972pt" height="196pt"
 viewBox="0.00 0.00 971.93 196.00" xmlns="http://www.w3.org/2000/svg" xmlns:xlink="http://www.w3.org/1999/xlink">
<g id="graph0" class="graph" transform="scale(1 1) rotate(0) translate(4 192)">
<title>src/serialize.h</title>
<polygon fill="white" stroke="none" points="-4,4 -4,-192 967.935,-192 967.935,4 -4,4"/>
<!-- Node1 -->
<g id="node1" class="node"><title>Node1</title>
<polygon fill="#bfbfbf" stroke="black" points="478.435,-168.5 478.435,-187.5 560.435,-187.5 560.435,-168.5 478.435,-168.5"/>
<text text-anchor="middle" x="519.435" y="-175.5" font-family="Helvetica,sans-Serif" font-size="10.00">src/serialize.h</text>
</g>
<!-- Node2 -->
<g id="node2" class="node"><title>Node2</title>
<g id="a_node2"><a xlink:href="endian_8h.html" target="_top" xlink:title="compat/endian.h">
<polygon fill="white" stroke="black" points="29.4349,-112.5 29.4349,-131.5 127.435,-131.5 127.435,-112.5 29.4349,-112.5"/>
<text text-anchor="middle" x="78.4349" y="-119.5" font-family="Helvetica,sans-Serif" font-size="10.00">compat/endian.h</text>
</a>
</g>
</g>
<!-- Node1&#45;&gt;Node2 -->
<g id="edge1" class="edge"><title>Node1&#45;&gt;Node2</title>
<path fill="none" stroke="midnightblue" d="M478.343,-171.968C399.899,-162.363 228.552,-141.382 137.712,-130.258"/>
<polygon fill="midnightblue" stroke="midnightblue" points="137.929,-126.759 127.577,-129.017 137.078,-133.707 137.929,-126.759"/>
</g>
<!-- Node4 -->
<g id="node4" class="node"><title>Node4</title>
<polygon fill="white" stroke="#bfbfbf" points="9.93487,-0.5 9.93487,-19.5 62.9349,-19.5 62.9349,-0.5 9.93487,-0.5"/>
<text text-anchor="middle" x="36.4349" y="-7.5" font-family="Helvetica,sans-Serif" font-size="10.00">stdint.h</text>
</g>
<!-- Node1&#45;&gt;Node4 -->
<g id="edge12" class="edge"><title>Node1&#45;&gt;Node4</title>
<path fill="none" stroke="midnightblue" d="M478.212,-176.013C364.871,-172.924 54.6728,-161.806 20.4349,-132 -5.41137,-109.499 -2.24038,-88.8742 7.43487,-56 10.4473,-45.7645 16.5895,-35.6599 22.4488,-27.627"/>
<polygon fill="midnightblue" stroke="midnightblue" points="25.3665,-29.5773 28.762,-19.5413 19.849,-25.2694 25.3665,-29.5773"/>
</g>
<!-- Node5 -->
<g id="node5" class="node"><title>Node5</title>
<polygon fill="white" stroke="#bfbfbf" points="151.435,-56.5 151.435,-75.5 213.435,-75.5 213.435,-56.5 151.435,-56.5"/>
<text text-anchor="middle" x="182.435" y="-63.5" font-family="Helvetica,sans-Serif" font-size="10.00">algorithm</text>
</g>
<!-- Node1&#45;&gt;Node5 -->
<g id="edge5" class="edge"><title>Node1&#45;&gt;Node5</title>
<path fill="none" stroke="midnightblue" d="M478.234,-174.927C407.037,-170.669 264.645,-158.968 223.435,-132 206.563,-120.959 195.323,-100.302 188.945,-85.2295"/>
<polygon fill="midnightblue" stroke="midnightblue" points="192.191,-83.9192 185.297,-75.874 185.669,-86.4623 192.191,-83.9192"/>
</g>
<!-- Node6 -->
<g id="node6" class="node"><title>Node6</title>
<polygon fill="white" stroke="#bfbfbf" points="565.435,-56.5 565.435,-75.5 621.435,-75.5 621.435,-56.5 565.435,-56.5"/>
<text text-anchor="middle" x="593.435" y="-63.5" font-family="Helvetica,sans-Serif" font-size="10.00">assert.h</text>
</g>
<!-- Node1&#45;&gt;Node6 -->
<g id="edge6" class="edge"><title>Node1&#45;&gt;Node6</title>
<path fill="none" stroke="midnightblue" d="M502.091,-168.428C480.157,-156.418 447,-133.622 462.435,-112 468.07,-104.106 518.63,-88.2895 555.253,-77.6714"/>
<polygon fill="midnightblue" stroke="midnightblue" points="556.519,-80.9495 565.164,-74.8253 554.587,-74.2214 556.519,-80.9495"/>
</g>
<!-- Node7 -->
<g id="node7" class="node"><title>Node7</title>
<polygon fill="white" stroke="#bfbfbf" points="504.435,-112.5 504.435,-131.5 534.435,-131.5 534.435,-112.5 504.435,-112.5"/>
<text text-anchor="middle" x="519.435" y="-119.5" font-family="Helvetica,sans-Serif" font-size="10.00">ios</text>
</g>
<!-- Node1&#45;&gt;Node7 -->
<g id="edge7" class="edge"><title>Node1&#45;&gt;Node7</title>
<path fill="none" stroke="midnightblue" d="M519.435,-168.083C519.435,-161.006 519.435,-150.861 519.435,-141.986"/>
<polygon fill="midnightblue" stroke="midnightblue" points="522.935,-141.751 519.435,-131.751 515.935,-141.751 522.935,-141.751"/>
</g>
<!-- Node8 -->
<g id="node8" class="node"><title>Node8</title>
<polygon fill="white" stroke="#bfbfbf" points="552.435,-112.5 552.435,-131.5 594.435,-131.5 594.435,-112.5 552.435,-112.5"/>
<text text-anchor="middle" x="573.435" y="-119.5" font-family="Helvetica,sans-Serif" font-size="10.00">limits</text>
</g>
<!-- Node1&#45;&gt;Node8 -->
<g id="edge8" class="edge"><title>Node1&#45;&gt;Node8</title>
<path fill="none" stroke="midnightblue" d="M528.352,-168.083C536.215,-160.22 547.866,-148.569 557.354,-139.081"/>
<polygon fill="midnightblue" stroke="midnightblue" points="560.088,-141.297 564.684,-131.751 555.138,-136.347 560.088,-141.297"/>
</g>
<!-- Node9 -->
<g id="node9" class="node"><title>Node9</title>
<polygon fill="white" stroke="#bfbfbf" points="612.435,-112.5 612.435,-131.5 650.435,-131.5 650.435,-112.5 612.435,-112.5"/>
<text text-anchor="middle" x="631.435" y="-119.5" font-family="Helvetica,sans-Serif" font-size="10.00">map</text>
</g>
<!-- Node1&#45;&gt;Node9 -->
<g id="edge9" class="edge"><title>Node1&#45;&gt;Node9</title>
<path fill="none" stroke="midnightblue" d="M537.43,-168.324C555.473,-159.625 583.482,-146.12 604.238,-136.113"/>
<polygon fill="midnightblue" stroke="midnightblue" points="605.997,-139.15 613.485,-131.655 602.957,-132.845 605.997,-139.15"/>
</g>
<!-- Node10 -->
<g id="node10" class="node"><title>Node10</title>
<polygon fill="white" stroke="#bfbfbf" points="668.935,-112.5 668.935,-131.5 725.935,-131.5 725.935,-112.5 668.935,-112.5"/>
<text text-anchor="middle" x="697.435" y="-119.5" font-family="Helvetica,sans-Serif" font-size="10.00">memory</text>
</g>
<!-- Node1&#45;&gt;Node10 -->
<g id="edge10" class="edge"><title>Node1&#45;&gt;Node10</title>
<path fill="none" stroke="midnightblue" d="M547.639,-168.444C577.845,-159.28 625.946,-144.688 659.464,-134.519"/>
<polygon fill="midnightblue" stroke="midnightblue" points="660.809,-137.769 669.362,-131.516 658.777,-131.07 660.809,-137.769"/>
</g>
<!-- Node11 -->
<g id="node11" class="node"><title>Node11</title>
<polygon fill="white" stroke="#bfbfbf" points="744.435,-112.5 744.435,-131.5 776.435,-131.5 776.435,-112.5 744.435,-112.5"/>
<text text-anchor="middle" x="760.435" y="-119.5" font-family="Helvetica,sans-Serif" font-size="10.00">set</text>
</g>
<!-- Node1&#45;&gt;Node11 -->
<g id="edge11" class="edge"><title>Node1&#45;&gt;Node11</title>
<path fill="none" stroke="midnightblue" d="M560.454,-170.223C602.161,-162.941 668.742,-150.245 734.683,-131.894"/>
<polygon fill="midnightblue" stroke="midnightblue" points="735.734,-135.234 744.405,-129.145 733.83,-128.498 735.734,-135.234"/>
</g>
<!-- Node12 -->
<g id="node12" class="node"><title>Node12</title>
<polygon fill="white" stroke="#bfbfbf" points="794.435,-112.5 794.435,-131.5 838.435,-131.5 838.435,-112.5 794.435,-112.5"/>
<text text-anchor="middle" x="816.435" y="-119.5" font-family="Helvetica,sans-Serif" font-size="10.00">string</text>
</g>
<!-- Node1&#45;&gt;Node12 -->
<g id="edge13" class="edge"><title>Node1&#45;&gt;Node12</title>
<path fill="none" stroke="midnightblue" d="M560.736,-171.516C611.333,-164.466 699.804,-151.073 784.402,-132.025"/>
<polygon fill="midnightblue" stroke="midnightblue" points="785.193,-135.435 794.164,-129.798 783.636,-128.61 785.193,-135.435"/>
</g>
<!-- Node13 -->
<g id="node13" class="node"><title>Node13</title>
<polygon fill="white" stroke="#bfbfbf" points="639.935,-56.5 639.935,-75.5 692.935,-75.5 692.935,-56.5 639.935,-56.5"/>
<text text-anchor="middle" x="666.435" y="-63.5" font-family="Helvetica,sans-Serif" font-size="10.00">string.h</text>
</g>
<!-- Node1&#45;&gt;Node13 -->
<g id="edge14" class="edge"><title>Node1&#45;&gt;Node13</title>
<path fill="none" stroke="midnightblue" d="M511.227,-168.193C499.838,-154.877 482.068,-129.339 495.435,-112 496.487,-110.635 580.251,-89.031 630.137,-76.2616"/>
<polygon fill="midnightblue" stroke="midnightblue" points="631.106,-79.6265 639.927,-73.7577 629.372,-72.8448 631.106,-79.6265"/>
</g>
<!-- Node14 -->
<g id="node14" class="node"><title>Node14</title>
<polygon fill="white" stroke="#bfbfbf" points="856.435,-112.5 856.435,-131.5 898.435,-131.5 898.435,-112.5 856.435,-112.5"/>
<text text-anchor="middle" x="877.435" y="-119.5" font-family="Helvetica,sans-Serif" font-size="10.00">utility</text>
</g>
<!-- Node1&#45;&gt;Node14 -->
<g id="edge15" class="edge"><title>Node1&#45;&gt;Node14</title>
<path fill="none" stroke="midnightblue" d="M560.443,-173.436C621,-167.724 737.99,-154.978 846.135,-131.987"/>
<polygon fill="midnightblue" stroke="midnightblue" points="847.201,-135.337 856.236,-129.803 845.722,-128.495 847.201,-135.337"/>
</g>
<!-- Node15 -->
<g id="node15" class="node"><title>Node15</title>
<polygon fill="white" stroke="#bfbfbf" points="916.935,-112.5 916.935,-131.5 963.935,-131.5 963.935,-112.5 916.935,-112.5"/>
<text text-anchor="middle" x="940.435" y="-119.5" font-family="Helvetica,sans-Serif" font-size="10.00">vector</text>
</g>
<!-- Node1&#45;&gt;Node15 -->
<g id="edge16" class="edge"><title>Node1&#45;&gt;Node15</title>
<path fill="none" stroke="midnightblue" d="M560.524,-174.281C629.948,-169.243 774.957,-156.811 906.865,-131.821"/>
<polygon fill="midnightblue" stroke="midnightblue" points="907.583,-135.247 916.742,-129.921 906.261,-128.373 907.583,-135.247"/>
</g>
<!-- Node16 -->
<g id="node16" class="node"><title>Node16</title>
<g id="a_node16"><a xlink:href="prevector_8h.html" target="_top" xlink:title="prevector.h">
<polygon fill="white" stroke="black" points="338.935,-112.5 338.935,-131.5 409.935,-131.5 409.935,-112.5 338.935,-112.5"/>
<text text-anchor="middle" x="374.435" y="-119.5" font-family="Helvetica,sans-Serif" font-size="10.00">prevector.h</text>
</a>
</g>
</g>
<!-- Node1&#45;&gt;Node16 -->
<g id="edge17" class="edge"><title>Node1&#45;&gt;Node16</title>
<path fill="none" stroke="midnightblue" d="M496.459,-168.444C472.278,-159.438 434.017,-145.189 406.789,-135.049"/>
<polygon fill="midnightblue" stroke="midnightblue" points="407.896,-131.727 397.303,-131.516 405.453,-138.286 407.896,-131.727"/>
</g>
<!-- Node21 -->
<g id="node21" class="node"><title>Node21</title>
<g id="a_node21"><a xlink:href="span_8h.html" target="_top" xlink:title="span.h">
<polygon fill="white" stroke="black" points="232.935,-112.5 232.935,-131.5 281.935,-131.5 281.935,-112.5 232.935,-112.5"/>
<text text-anchor="middle" x="257.435" y="-119.5" font-family="Helvetica,sans-Serif" font-size="10.00">span.h</text>
</a>
</g>
</g>
<!-- Node1&#45;&gt;Node21 -->
<g id="edge26" class="edge"><title>Node1&#45;&gt;Node21</title>
<path fill="none" stroke="midnightblue" d="M478.209,-168.503C426.923,-157.933 340.267,-140.072 292.19,-130.163"/>
<polygon fill="midnightblue" stroke="midnightblue" points="292.76,-126.707 282.259,-128.116 291.347,-133.563 292.76,-126.707"/>
</g>
<!-- Node3 -->
<g id="node3" class="node"><title>Node3</title>
<g id="a_node3"><a xlink:href="byteswap_8h.html" target="_top" xlink:title="compat/byteswap.h">
<polygon fill="white" stroke="black" points="23.4349,-56.5 23.4349,-75.5 133.435,-75.5 133.435,-56.5 23.4349,-56.5"/>
<text text-anchor="middle" x="78.4349" y="-63.5" font-family="Helvetica,sans-Serif" font-size="10.00">compat/byteswap.h</text>
</a>
</g>
</g>
<!-- Node2&#45;&gt;Node3 -->
<g id="edge2" class="edge"><title>Node2&#45;&gt;Node3</title>
<path fill="none" stroke="midnightblue" d="M78.4349,-112.083C78.4349,-105.006 78.4349,-94.8611 78.4349,-85.9865"/>
<polygon fill="midnightblue" stroke="midnightblue" points="81.935,-85.751 78.4349,-75.7511 74.935,-85.7511 81.935,-85.751"/>
</g>
<!-- Node2&#45;&gt;Node4 -->
<g id="edge4" class="edge"><title>Node2&#45;&gt;Node4</title>
<path fill="none" stroke="midnightblue" d="M56.9522,-112.36C42.0433,-105.09 23.3241,-93.117 14.4349,-76 6.40466,-60.5372 14.7298,-41.5278 23.3438,-28.0706"/>
<polygon fill="midnightblue" stroke="midnightblue" points="26.297,-29.9547 29.156,-19.7529 20.5591,-25.9451 26.297,-29.9547"/>
</g>
<!-- Node3&#45;&gt;Node4 -->
<g id="edge3" class="edge"><title>Node3&#45;&gt;Node4</title>
<path fill="none" stroke="midnightblue" d="M71.4994,-56.083C65.5057,-48.3768 56.683,-37.0333 49.3872,-27.6531"/>
<polygon fill="midnightblue" stroke="midnightblue" points="52.1434,-25.4958 43.2413,-19.7511 46.618,-29.7934 52.1434,-25.4958"/>
</g>
<!-- Node16&#45;&gt;Node4 -->
<g id="edge20" class="edge"><title>Node16&#45;&gt;Node4</title>
<path fill="none" stroke="midnightblue" d="M410.265,-117.321C463.162,-110.565 552.423,-93.3089 518.435,-56 488.583,-23.2308 180.573,-13.9103 73.1502,-11.6454"/>
<polygon fill="midnightblue" stroke="midnightblue" points="73.1726,-8.14521 63.1037,-11.442 73.0308,-15.1438 73.1726,-8.14521"/>
</g>
<!-- Node16&#45;&gt;Node5 -->
<g id="edge22" class="edge"><title>Node16&#45;&gt;Node5</title>
<path fill="none" stroke="midnightblue" d="M344.012,-112.444C311.15,-103.201 258.65,-88.4356 222.46,-78.2572"/>
<polygon fill="midnightblue" stroke="midnightblue" points="223.29,-74.8547 212.716,-75.5164 221.394,-81.5932 223.29,-74.8547"/>
</g>
<!-- Node16&#45;&gt;Node6 -->
<g id="edge18" class="edge"><title>Node16&#45;&gt;Node6</title>
<path fill="none" stroke="midnightblue" d="M409.136,-112.444C448.941,-102.629 514.006,-86.5852 555.227,-76.421"/>
<polygon fill="midnightblue" stroke="midnightblue" points="556.292,-79.7633 565.164,-73.971 554.617,-72.9669 556.292,-79.7633"/>
</g>
<!-- Node16&#45;&gt;Node13 -->
<g id="edge21" class="edge"><title>Node16&#45;&gt;Node13</title>
<path fill="none" stroke="midnightblue" d="M410.205,-115.534C457.947,-108.06 545.327,-93.7541 629.738,-76.0184"/>
<polygon fill="midnightblue" stroke="midnightblue" points="630.691,-79.3941 639.748,-73.8958 629.239,-72.5464 630.691,-79.3941"/>
</g>
<!-- Node17 -->
<g id="node17" class="node"><title>Node17</title>
<polygon fill="white" stroke="#bfbfbf" points="387.935,-56.5 387.935,-75.5 438.935,-75.5 438.935,-56.5 387.935,-56.5"/>
<text text-anchor="middle" x="413.435" y="-63.5" font-family="Helvetica,sans-Serif" font-size="10.00">stdlib.h</text>
</g>
<!-- Node16&#45;&gt;Node17 -->
<g id="edge19" class="edge"><title>Node16&#45;&gt;Node17</title>
<path fill="none" stroke="midnightblue" d="M380.875,-112.083C386.384,-104.455 394.466,-93.2645 401.2,-83.9408"/>
<polygon fill="midnightblue" stroke="midnightblue" points="404.097,-85.9071 407.115,-75.7511 398.422,-81.8087 404.097,-85.9071"/>
</g>
<!-- Node18 -->
<g id="node18" class="node"><title>Node18</title>
<polygon fill="white" stroke="#bfbfbf" points="231.435,-56.5 231.435,-75.5 283.435,-75.5 283.435,-56.5 231.435,-56.5"/>
<text text-anchor="middle" x="257.435" y="-63.5" font-family="Helvetica,sans-Serif" font-size="10.00">cstddef</text>
</g>
<!-- Node16&#45;&gt;Node18 -->
<g id="edge23" class="edge"><title>Node16&#45;&gt;Node18</title>
<path fill="none" stroke="midnightblue" d="M355.896,-112.444C336.812,-103.636 306.86,-89.8116 284.999,-79.722"/>
<polygon fill="midnightblue" stroke="midnightblue" points="286.433,-76.5292 275.887,-75.5164 283.5,-82.8849 286.433,-76.5292"/>
</g>
<!-- Node19 -->
<g id="node19" class="node"><title>Node19</title>
<polygon fill="white" stroke="#bfbfbf" points="457.435,-56.5 457.435,-75.5 509.435,-75.5 509.435,-56.5 457.435,-56.5"/>
<text text-anchor="middle" x="483.435" y="-63.5" font-family="Helvetica,sans-Serif" font-size="10.00">iterator</text>
</g>
<!-- Node16&#45;&gt;Node19 -->
<g id="edge24" class="edge"><title>Node16&#45;&gt;Node19</title>
<path fill="none" stroke="midnightblue" d="M391.948,-112.324C409.507,-103.625 436.766,-90.1202 456.966,-80.113"/>
<polygon fill="midnightblue" stroke="midnightblue" points="458.559,-83.23 465.966,-75.6545 455.451,-76.9575 458.559,-83.23"/>
</g>
<!-- Node20 -->
<g id="node20" class="node"><title>Node20</title>
<polygon fill="white" stroke="#bfbfbf" points="301.435,-56.5 301.435,-75.5 369.435,-75.5 369.435,-56.5 301.435,-56.5"/>
<text text-anchor="middle" x="335.435" y="-63.5" font-family="Helvetica,sans-Serif" font-size="10.00">type_traits</text>
</g>
<!-- Node16&#45;&gt;Node20 -->
<g id="edge25" class="edge"><title>Node16&#45;&gt;Node20</title>
<path fill="none" stroke="midnightblue" d="M367.995,-112.083C362.486,-104.455 354.404,-93.2645 347.67,-83.9408"/>
<polygon fill="midnightblue" stroke="midnightblue" points="350.447,-81.8087 341.755,-75.7511 344.773,-85.9071 350.447,-81.8087"/>
</g>
<!-- Node21&#45;&gt;Node5 -->
<g id="edge29" class="edge"><title>Node21&#45;&gt;Node5</title>
<path fill="none" stroke="midnightblue" d="M245.385,-112.324C233.972,-104.107 216.604,-91.6017 203,-81.8069"/>
<polygon fill="midnightblue" stroke="midnightblue" points="204.865,-78.8366 194.704,-75.8339 200.774,-84.5174 204.865,-78.8366"/>
</g>
<!-- Node21&#45;&gt;Node18 -->
<g id="edge28" class="edge"><title>Node21&#45;&gt;Node18</title>
<path fill="none" stroke="midnightblue" d="M257.435,-112.083C257.435,-105.006 257.435,-94.8611 257.435,-85.9865"/>
<polygon fill="midnightblue" stroke="midnightblue" points="260.935,-85.751 257.435,-75.7511 253.935,-85.7511 260.935,-85.751"/>
</g>
<!-- Node21&#45;&gt;Node20 -->
<g id="edge27" class="edge"><title>Node21&#45;&gt;Node20</title>
<path fill="none" stroke="midnightblue" d="M269.967,-112.324C282.021,-103.979 300.462,-91.2122 314.704,-81.3524"/>
<polygon fill="midnightblue" stroke="midnightblue" points="316.704,-84.2243 322.934,-75.6545 312.72,-78.469 316.704,-84.2243"/>
</g>
</g>
</svg>
