<?xml version="1.0" encoding="UTF-8" standalone="no"?>
<!DOCTYPE svg PUBLIC "-//W3C//DTD SVG 1.1//EN"
 "http://www.w3.org/Graphics/SVG/1.1/DTD/svg11.dtd">
<!-- Generated by graphviz version 2.40.1 (20161225.0304)
 -->
<!-- Title: GetSizeOfCompactSize Pages: 1 -->
<svg width="710pt" height="237pt"
 viewBox="0.00 0.00 710.00 237.00" xmlns="http://www.w3.org/2000/svg" xmlns:xlink="http://www.w3.org/1999/xlink">
<g id="graph0" class="graph" transform="scale(1 1) rotate(0) translate(4 233)">
<title>GetSizeOfCompactSize</title>
<polygon fill="#ffffff" stroke="transparent" points="-4,4 -4,-233 706,-233 706,4 -4,4"/>
<!-- Node59 -->
<g id="node1" class="node">
<title>Node59</title>
<polygon fill="#bfbfbf" stroke="#000000" points="0,-114.5 0,-133.5 122,-133.5 122,-114.5 0,-114.5"/>
<text text-anchor="middle" x="61" y="-121.5" font-family="Helvetica,sans-Serif" font-size="10.00" fill="#000000">GetSizeOfCompactSize</text>
</g>
<!-- Node60 -->
<g id="node2" class="node">
<title>Node60</title>
<g id="a_node2"><a xlink:href="class_tx_index.html#ab299b61b0caa60029e782f9f93177c19" target="_top" xlink:title="Write update index entries for a newly connected block. ">
<polygon fill="#ffffff" stroke="#000000" points="158,-152.5 158,-171.5 264,-171.5 264,-152.5 158,-152.5"/>
<text text-anchor="middle" x="211" y="-159.5" font-family="Helvetica,sans-Serif" font-size="10.00" fill="#000000">TxIndex::WriteBlock</text>
</a>
</g>
</g>
<!-- Node59&#45;&gt;Node60 -->
<g id="edge1" class="edge">
<title>Node59&#45;&gt;Node60</title>
<path fill="none" stroke="#191970" d="M108.811,-136.1121C129.7016,-141.4044 153.8472,-147.5213 173.4209,-152.4799"/>
<polygon fill="#191970" stroke="#191970" points="109.4047,-132.652 98.8513,-133.589 107.6856,-139.4377 109.4047,-132.652"/>
</g>
<!-- Node61 -->
<g id="node3" class="node">
<title>Node61</title>
<g id="a_node3"><a xlink:href="serialize_8h.html#aff862d80e345fc18ed8a3e0b3a0ce528" target="_top" xlink:title="WriteCompactSize">
<polygon fill="#ffffff" stroke="#000000" points="161.5,-114.5 161.5,-133.5 260.5,-133.5 260.5,-114.5 161.5,-114.5"/>
<text text-anchor="middle" x="211" y="-121.5" font-family="Helvetica,sans-Serif" font-size="10.00" fill="#000000">WriteCompactSize</text>
</a>
</g>
</g>
<!-- Node59&#45;&gt;Node61 -->
<g id="edge2" class="edge">
<title>Node59&#45;&gt;Node61</title>
<path fill="none" stroke="#191970" d="M132.1357,-117.258C141.9089,-117.2176 151.7697,-117.3305 161.0522,-117.5965"/>
<polygon fill="#191970" stroke="#191970" points="131.9765,-113.7592 122.0107,-117.3555 132.044,-120.7589 131.9765,-113.7592"/>
</g>
<!-- Node61&#45;&gt;Node59 -->
<g id="edge6" class="edge">
<title>Node61&#45;&gt;Node59</title>
<path fill="none" stroke="#191970" d="M150.894,-130.6303C141.384,-130.785 131.5412,-130.7898 122.0107,-130.6445"/>
<polygon fill="#191970" stroke="#191970" points="151.1328,-134.1259 161.0522,-130.4035 150.9765,-127.1277 151.1328,-134.1259"/>
</g>
<!-- Node62 -->
<g id="node4" class="node">
<title>Node62</title>
<g id="a_node4"><a xlink:href="struct_c_ext_key.html#a8dd703c3282bdeb6adbc7fc7e65eddb5" target="_top" xlink:title="CExtKey::Serialize">
<polygon fill="#ffffff" stroke="#000000" points="308.5,-209.5 308.5,-228.5 408.5,-228.5 408.5,-209.5 308.5,-209.5"/>
<text text-anchor="middle" x="358.5" y="-216.5" font-family="Helvetica,sans-Serif" font-size="10.00" fill="#000000">CExtKey::Serialize</text>
</a>
</g>
</g>
<!-- Node61&#45;&gt;Node62 -->
<g id="edge3" class="edge">
<title>Node61&#45;&gt;Node62</title>
<path fill="none" stroke="#191970" d="M256.7595,-138.0603C259.3102,-139.5523 261.7479,-141.1942 264,-143 287.3764,-161.7436 276.3435,-181.6112 300,-200 304.9743,-203.8666 310.763,-206.9601 316.7265,-209.4316"/>
<polygon fill="#191970" stroke="#191970" points="258.2662,-134.9005 247.7583,-133.5457 255.1279,-141.1576 258.2662,-134.9005"/>
</g>
<!-- Node63 -->
<g id="node5" class="node">
<title>Node63</title>
<g id="a_node5"><a xlink:href="class_c_pub_key.html#a88b755b401263dc7b12d863f7703d56b" target="_top" xlink:title="Implement serialization, as if this was a byte vector. ">
<polygon fill="#ffffff" stroke="#000000" points="307.5,-171.5 307.5,-190.5 409.5,-190.5 409.5,-171.5 307.5,-171.5"/>
<text text-anchor="middle" x="358.5" y="-178.5" font-family="Helvetica,sans-Serif" font-size="10.00" fill="#000000">CPubKey::Serialize</text>
</a>
</g>
</g>
<!-- Node61&#45;&gt;Node63 -->
<g id="edge4" class="edge">
<title>Node61&#45;&gt;Node63</title>
<path fill="none" stroke="#191970" d="M249.351,-137.0191C254.3224,-138.9192 259.3121,-140.935 264,-143 280.5566,-150.2931 283.3353,-154.9576 300,-162 308.1641,-165.4501 317.1837,-168.6602 325.6458,-171.4234"/>
<polygon fill="#191970" stroke="#191970" points="250.4907,-133.7089 239.8975,-133.5249 248.0639,-140.2748 250.4907,-133.7089"/>
</g>
<!-- Node64 -->
<g id="node6" class="node">
<title>Node64</title>
<g id="a_node6"><a xlink:href="struct_c_ext_pub_key.html#a643b4974e037c2b4154210802d6d0bef" target="_top" xlink:title="CExtPubKey::Serialize">
<polygon fill="#ffffff" stroke="#000000" points="300,-133.5 300,-152.5 417,-152.5 417,-133.5 300,-133.5"/>
<text text-anchor="middle" x="358.5" y="-140.5" font-family="Helvetica,sans-Serif" font-size="10.00" fill="#000000">CExtPubKey::Serialize</text>
</a>
</g>
</g>
<!-- Node61&#45;&gt;Node64 -->
<g id="edge5" class="edge">
<title>Node61&#45;&gt;Node64</title>
<path fill="none" stroke="#191970" d="M270.4832,-131.6622C280.1859,-132.9121 290.2311,-134.206 299.9119,-135.4531"/>
<polygon fill="#191970" stroke="#191970" points="270.8909,-128.1859 260.5257,-130.3796 269.9966,-135.1286 270.8909,-128.1859"/>
</g>
<!-- Node65 -->
<g id="node7" class="node">
<title>Node65</title>
<g id="a_node7"><a xlink:href="class_limited_string.html#a48b15a808820d1fb29759d390414d4b1" target="_top" xlink:title="LimitedString::Serialize">
<polygon fill="#ffffff" stroke="#000000" points="300,-95.5 300,-114.5 417,-114.5 417,-95.5 300,-95.5"/>
<text text-anchor="middle" x="358.5" y="-102.5" font-family="Helvetica,sans-Serif" font-size="10.00" fill="#000000">LimitedString::Serialize</text>
</a>
</g>
</g>
<!-- Node61&#45;&gt;Node65 -->
<g id="edge7" class="edge">
<title>Node61&#45;&gt;Node65</title>
<path fill="none" stroke="#191970" d="M270.4832,-116.3378C280.1859,-115.0879 290.2311,-113.794 299.9119,-112.5469"/>
<polygon fill="#191970" stroke="#191970" points="269.9966,-112.8714 260.5257,-117.6204 270.8909,-119.8141 269.9966,-112.8714"/>
</g>
<!-- Node66 -->
<g id="node8" class="node">
<title>Node66</title>
<g id="a_node8"><a xlink:href="serialize_8h.html#aec781a8385ba6989984757a15b45aac5" target="_top" xlink:title="Forward declarations. ">
<polygon fill="#ffffff" stroke="#000000" points="331.5,-57.5 331.5,-76.5 385.5,-76.5 385.5,-57.5 331.5,-57.5"/>
<text text-anchor="middle" x="358.5" y="-64.5" font-family="Helvetica,sans-Serif" font-size="10.00" fill="#000000">Serialize</text>
</a>
</g>
</g>
<!-- Node61&#45;&gt;Node66 -->
<g id="edge8" class="edge">
<title>Node61&#45;&gt;Node66</title>
<path fill="none" stroke="#191970" d="M241.4573,-110.1956C258.5206,-102.6647 280.2748,-93.3973 300,-86 310.0985,-82.2129 321.3345,-78.4566 331.2385,-75.2963"/>
<polygon fill="#191970" stroke="#191970" points="239.7173,-107.1389 232.0036,-114.4017 242.5629,-113.5344 239.7173,-107.1389"/>
</g>
<!-- Node67 -->
<g id="node9" class="node">
<title>Node67</title>
<g id="a_node9"><a xlink:href="serialize_8h.html#a5f8f6e82f0b5e6bd182441352f5153cd" target="_top" xlink:title="prevector prevectors of unsigned char are a special case and are intended to be serialized as a singl...">
<polygon fill="#ffffff" stroke="#000000" points="320,-19.5 320,-38.5 397,-38.5 397,-19.5 320,-19.5"/>
<text text-anchor="middle" x="358.5" y="-26.5" font-family="Helvetica,sans-Serif" font-size="10.00" fill="#000000">Serialize_impl</text>
</a>
</g>
</g>
<!-- Node61&#45;&gt;Node67 -->
<g id="edge9" class="edge">
<title>Node61&#45;&gt;Node67</title>
<path fill="none" stroke="#191970" d="M226.9728,-106.8776C243.7166,-89.8251 271.5093,-63.9517 300,-48 306.7086,-44.2439 314.271,-41.0977 321.6764,-38.5154"/>
<polygon fill="#191970" stroke="#191970" points="224.0928,-104.8232 219.686,-114.4581 229.1394,-109.6743 224.0928,-104.8232"/>
</g>
<!-- Node68 -->
<g id="node10" class="node">
<title>Node68</title>
<g id="a_node10"><a xlink:href="serialize_8h.html#a35ad282a6aaa50b2e2fa7ae4df4aac7b" target="_top" xlink:title="WrapBigEndian">
<polygon fill="#ffffff" stroke="#000000" points="453,-38.5 453,-57.5 537,-57.5 537,-38.5 453,-38.5"/>
<text text-anchor="middle" x="495" y="-45.5" font-family="Helvetica,sans-Serif" font-size="10.00" fill="#000000">WrapBigEndian</text>
</a>
</g>
</g>
<!-- Node67&#45;&gt;Node68 -->
<g id="edge10" class="edge">
<title>Node67&#45;&gt;Node68</title>
<path fill="none" stroke="#191970" d="M407.297,-35.7923C422.1758,-37.8633 438.4004,-40.1217 452.8036,-42.1265"/>
<polygon fill="#191970" stroke="#191970" points="407.6374,-32.306 397.2503,-34.3938 406.6723,-39.2391 407.6374,-32.306"/>
</g>
<!-- Node70 -->
<g id="node12" class="node">
<title>Node70</title>
<g id="a_node12"><a xlink:href="serialize_8h.html#a9d2c702de5faf93aa7b0500c8e14657d" target="_top" xlink:title="Serialize">
<polygon fill="#ffffff" stroke="#000000" points="468,-.5 468,-19.5 522,-19.5 522,-.5 468,-.5"/>
<text text-anchor="middle" x="495" y="-7.5" font-family="Helvetica,sans-Serif" font-size="10.00" fill="#000000">Serialize</text>
</a>
</g>
</g>
<!-- Node67&#45;&gt;Node70 -->
<g id="edge12" class="edge">
<title>Node67&#45;&gt;Node70</title>
<path fill="none" stroke="#191970" d="M407.3185,-22.2048C427.6856,-19.3698 450.5713,-16.1842 467.8535,-13.7786"/>
<polygon fill="#191970" stroke="#191970" points="406.6723,-18.7609 397.2503,-23.6062 407.6374,-25.694 406.6723,-18.7609"/>
</g>
<!-- Node69 -->
<g id="node11" class="node">
<title>Node69</title>
<g id="a_node11"><a xlink:href="class_c_service.html#a83cc6fb0b19d0669fbdd7370937632bb" target="_top" xlink:title="CService::SerializationOp">
<polygon fill="#ffffff" stroke="#000000" points="573,-38.5 573,-57.5 702,-57.5 702,-38.5 573,-38.5"/>
<text text-anchor="middle" x="637.5" y="-45.5" font-family="Helvetica,sans-Serif" font-size="10.00" fill="#000000">CService::SerializationOp</text>
</a>
</g>
</g>
<!-- Node68&#45;&gt;Node69 -->
<g id="edge11" class="edge">
<title>Node68&#45;&gt;Node69</title>
<path fill="none" stroke="#191970" d="M547.5705,-48C555.8043,-48 564.3962,-48 572.8625,-48"/>
<polygon fill="#191970" stroke="#191970" points="547.3689,-44.5001 537.3689,-48 547.3688,-51.5001 547.3689,-44.5001"/>
</g>
</g>
</svg>
