<?xml version="1.0" encoding="UTF-8" standalone="no"?>
<!DOCTYPE svg PUBLIC "-//W3C//DTD SVG 1.1//EN"
 "http://www.w3.org/Graphics/SVG/1.1/DTD/svg11.dtd">
<!-- Generated by graphviz version 2.38.0 (20140413.2041)
 -->
<!-- Title: HelpExampleRpc Pages: 1 -->
<svg width="681pt" height="1230pt"
 viewBox="0.00 0.00 681.00 1229.89" xmlns="http://www.w3.org/2000/svg" xmlns:xlink="http://www.w3.org/1999/xlink">
<g id="graph0" class="graph" transform="scale(1 1) rotate(0) translate(4 1225.89)">
<title>HelpExampleRpc</title>
<polygon fill="white" stroke="none" points="-4,4 -4,-1225.89 677,-1225.89 677,4 -4,4"/>
<!-- Node1 -->
<g id="node1" class="node"><title>Node1</title>
<polygon fill="#bfbfbf" stroke="black" points="0,-602.385 0,-621.385 97,-621.385 97,-602.385 0,-602.385"/>
<text text-anchor="middle" x="48.5" y="-609.385" font-family="Helvetica,sans-Serif" font-size="10.00">HelpExampleRpc</text>
</g>
<!-- Node2 -->
<g id="node2" class="node"><title>Node2</title>
<g id="a_node2"><a xlink:href="blockchain_8h.html#a6b596f07acd85fe676c798170fd8ddbe" target="_top" xlink:title="Block description to JSON. ">
<polygon fill="white" stroke="black" points="165.5,-1012.39 165.5,-1031.39 240.5,-1031.39 240.5,-1012.39 165.5,-1012.39"/>
<text text-anchor="middle" x="203" y="-1019.39" font-family="Helvetica,sans-Serif" font-size="10.00">blockToJSON</text>
</a>
</g>
</g>
<!-- Node1&#45;&gt;Node2 -->
<g id="edge1" class="edge"><title>Node1&#45;&gt;Node2</title>
<path fill="none" stroke="midnightblue" d="M51.2537,-631.762C57.8862,-702.689 83.6029,-942.079 133,-997.885 141.322,-1007.29 153.527,-1013.01 165.366,-1016.49"/>
<polygon fill="midnightblue" stroke="midnightblue" points="54.7157,-631.185 50.3226,-621.544 47.7446,-631.82 54.7157,-631.185"/>
</g>
<!-- Node4 -->
<g id="node4" class="node"><title>Node4</title>
<g id="a_node4"><a xlink:href="blockchain_8h.html#a3b8a8939a31de29ceb0ea581341eeb92" target="_top" xlink:title="Mempool to JSON. ">
<polygon fill="white" stroke="black" points="337,-956.385 337,-975.385 433,-975.385 433,-956.385 337,-956.385"/>
<text text-anchor="middle" x="385" y="-963.385" font-family="Helvetica,sans-Serif" font-size="10.00">mempoolToJSON</text>
</a>
</g>
</g>
<!-- Node1&#45;&gt;Node4 -->
<g id="edge9" class="edge"><title>Node1&#45;&gt;Node4</title>
<path fill="none" stroke="midnightblue" d="M51.0933,-631.881C56.978,-700.072 79.9547,-921.607 133,-963.885 198.259,-1015.9 306.338,-991.214 356.656,-975.474"/>
<polygon fill="midnightblue" stroke="midnightblue" points="54.5592,-631.325 50.241,-621.65 47.5833,-631.906 54.5592,-631.325"/>
</g>
<!-- Node5 -->
<g id="node5" class="node"><title>Node5</title>
<g id="a_node5"><a xlink:href="blockchain_8h.html#ac5ec0fb7871f93c9889aecd50e2e408f" target="_top" xlink:title="Callback for when block tip changed. ">
<polygon fill="white" stroke="black" points="140.5,-1050.39 140.5,-1069.39 265.5,-1069.39 265.5,-1050.39 140.5,-1050.39"/>
<text text-anchor="middle" x="203" y="-1057.39" font-family="Helvetica,sans-Serif" font-size="10.00">RPCNotifyBlockChange</text>
</a>
</g>
</g>
<!-- Node1&#45;&gt;Node5 -->
<g id="edge6" class="edge"><title>Node1&#45;&gt;Node5</title>
<path fill="none" stroke="midnightblue" d="M50.6426,-631.606C55.434,-707.529 76.3528,-979.732 133,-1040.89 136.546,-1044.71 140.786,-1047.8 145.397,-1050.28"/>
<polygon fill="midnightblue" stroke="midnightblue" points="54.1299,-631.29 50.0295,-621.521 47.1428,-631.715 54.1299,-631.29"/>
</g>
<!-- Node8 -->
<g id="node8" class="node"><title>Node8</title>
<g id="a_node8"><a xlink:href="struct_c_coins_stats.html#a3f68ce1f423e40599c8d3c4bf2d97aa9" target="_top" xlink:title="CCoinsStats::CCoinsStats">
<polygon fill="white" stroke="black" points="133,-1088.39 133,-1107.39 273,-1107.39 273,-1088.39 133,-1088.39"/>
<text text-anchor="middle" x="203" y="-1095.39" font-family="Helvetica,sans-Serif" font-size="10.00">CCoinsStats::CCoinsStats</text>
</a>
</g>
</g>
<!-- Node1&#45;&gt;Node8 -->
<g id="edge10" class="edge"><title>Node1&#45;&gt;Node8</title>
<path fill="none" stroke="midnightblue" d="M50.31,-631.779C53.9802,-712.128 71.631,-1011.61 133,-1078.89 136.517,-1082.74 140.737,-1085.84 145.335,-1088.33"/>
<polygon fill="midnightblue" stroke="midnightblue" points="53.7972,-631.407 49.8663,-621.568 46.8038,-631.711 53.7972,-631.407"/>
</g>
<!-- Node9 -->
<g id="node9" class="node"><title>Node9</title>
<g id="a_node9"><a xlink:href="blockchain_8cpp.html#a0d3ec9ae23b08828dd7ca646766ca637" target="_top" xlink:title="gettxout">
<polygon fill="white" stroke="black" points="174.5,-1202.39 174.5,-1221.39 231.5,-1221.39 231.5,-1202.39 174.5,-1202.39"/>
<text text-anchor="middle" x="203" y="-1209.39" font-family="Helvetica,sans-Serif" font-size="10.00">gettxout</text>
</a>
</g>
</g>
<!-- Node1&#45;&gt;Node9 -->
<g id="edge11" class="edge"><title>Node1&#45;&gt;Node9</title>
<path fill="none" stroke="midnightblue" d="M49.6955,-631.464C50.9837,-722.104 60.6781,-1100.26 133,-1187.89 143.092,-1200.11 159.779,-1206.12 174.215,-1209.07"/>
<polygon fill="midnightblue" stroke="midnightblue" points="53.1953,-631.414 49.5722,-621.458 46.1958,-631.5 53.1953,-631.414"/>
</g>
<!-- Node10 -->
<g id="node10" class="node"><title>Node10</title>
<g id="a_node10"><a xlink:href="blockchain_8h.html#a7305038a43cc5f399ca00e00c6f07186" target="_top" xlink:title="Mempool information to JSON. ">
<polygon fill="white" stroke="black" points="328.5,-1164.39 328.5,-1183.39 441.5,-1183.39 441.5,-1164.39 328.5,-1164.39"/>
<text text-anchor="middle" x="385" y="-1171.39" font-family="Helvetica,sans-Serif" font-size="10.00">mempoolInfoToJSON</text>
</a>
</g>
</g>
<!-- Node1&#45;&gt;Node10 -->
<g id="edge19" class="edge"><title>Node1&#45;&gt;Node10</title>
<path fill="none" stroke="midnightblue" d="M49.4133,-631.608C49.4652,-720.447 54.5505,-1082.26 133,-1154.89 160.418,-1180.27 263.199,-1180.22 328.429,-1177.39"/>
<polygon fill="midnightblue" stroke="midnightblue" points="52.9133,-631.553 49.4297,-621.547 45.9133,-631.541 52.9133,-631.553"/>
</g>
<!-- Node11 -->
<g id="node11" class="node"><title>Node11</title>
<g id="a_node11"><a xlink:href="blockchain_8cpp.html#a474625d5c1ef0c47e33c078fb53f6ba4" target="_top" xlink:title="getblockchaininfo">
<polygon fill="white" stroke="black" points="153,-1126.39 153,-1145.39 253,-1145.39 253,-1126.39 153,-1126.39"/>
<text text-anchor="middle" x="203" y="-1133.39" font-family="Helvetica,sans-Serif" font-size="10.00">getblockchaininfo</text>
</a>
</g>
</g>
<!-- Node1&#45;&gt;Node11 -->
<g id="edge15" class="edge"><title>Node1&#45;&gt;Node11</title>
<path fill="none" stroke="midnightblue" d="M50.0161,-631.753C52.6076,-716.079 66.8435,-1043.4 133,-1116.89 138.321,-1122.8 145.293,-1126.94 152.76,-1129.83"/>
<polygon fill="midnightblue" stroke="midnightblue" points="53.5079,-631.415 49.7235,-621.519 46.5108,-631.615 53.5079,-631.415"/>
</g>
<!-- Node12 -->
<g id="node12" class="node"><title>Node12</title>
<g id="a_node12"><a xlink:href="struct_compare_blocks_by_height.html#aa47bd2a287c9176951c76ff2fae72bd4" target="_top" xlink:title="CompareBlocksByHeight\l::operator()">
<polygon fill="white" stroke="black" points="135.5,-924.885 135.5,-954.885 270.5,-954.885 270.5,-924.885 135.5,-924.885"/>
<text text-anchor="start" x="143.5" y="-942.885" font-family="Helvetica,sans-Serif" font-size="10.00">CompareBlocksByHeight</text>
<text text-anchor="middle" x="203" y="-931.885" font-family="Helvetica,sans-Serif" font-size="10.00">::operator()</text>
</a>
</g>
</g>
<!-- Node1&#45;&gt;Node12 -->
<g id="edge18" class="edge"><title>Node1&#45;&gt;Node12</title>
<path fill="none" stroke="midnightblue" d="M49.483,-631.703C50.4866,-683.793 60.1363,-826.293 133,-909.885 138.321,-915.99 145.113,-920.898 152.349,-924.83"/>
<polygon fill="midnightblue" stroke="midnightblue" points="52.9808,-631.465 49.38,-621.5 45.9812,-631.535 52.9808,-631.465"/>
</g>
<!-- Node13 -->
<g id="node13" class="node"><title>Node13</title>
<g id="a_node13"><a xlink:href="mining_8h.html#aeae629d66e8abfac91fb0b43f5f1962e" target="_top" xlink:title="Check bounds on a command line confirm target. ">
<polygon fill="white" stroke="black" points="148,-772.385 148,-791.385 258,-791.385 258,-772.385 148,-772.385"/>
<text text-anchor="middle" x="203" y="-779.385" font-family="Helvetica,sans-Serif" font-size="10.00">ParseConfirmTarget</text>
</a>
</g>
</g>
<!-- Node1&#45;&gt;Node13 -->
<g id="edge20" class="edge"><title>Node1&#45;&gt;Node13</title>
<path fill="none" stroke="midnightblue" d="M54.8572,-631.391C64.756,-663.715 89.0231,-728.245 133,-762.885 137.88,-766.729 143.486,-769.797 149.349,-772.244"/>
<polygon fill="midnightblue" stroke="midnightblue" points="58.2058,-630.372 52.0433,-621.754 51.4864,-632.334 58.2058,-630.372"/>
</g>
<!-- Node14 -->
<g id="node14" class="node"><title>Node14</title>
<g id="a_node14"><a xlink:href="classsubmitblock___state_catcher.html#a89abec4d0d8ea6b2cd651439e3a4f45f" target="_top" xlink:title="Notifies listeners of a block validation result. ">
<polygon fill="white" stroke="black" points="313.5,-823.885 313.5,-853.885 456.5,-853.885 456.5,-823.885 313.5,-823.885"/>
<text text-anchor="start" x="321.5" y="-841.885" font-family="Helvetica,sans-Serif" font-size="10.00">submitblock_StateCatcher</text>
<text text-anchor="middle" x="385" y="-830.885" font-family="Helvetica,sans-Serif" font-size="10.00">::BlockChecked</text>
</a>
</g>
</g>
<!-- Node1&#45;&gt;Node14 -->
<g id="edge32" class="edge"><title>Node1&#45;&gt;Node14</title>
<path fill="none" stroke="midnightblue" d="M50.448,-632.058C53.7187,-676.025 68.2702,-780.276 133,-826.885 186.459,-865.379 264.18,-862.637 318.942,-853.912"/>
<polygon fill="midnightblue" stroke="midnightblue" points="53.9243,-631.564 49.8137,-621.799 46.9376,-631.996 53.9243,-631.564"/>
</g>
<!-- Node15 -->
<g id="node15" class="node"><title>Node15</title>
<g id="a_node15"><a xlink:href="rpcwallet_8cpp.html#a7424e87562c3781c88662ebfb6ef7e4a" target="_top" xlink:title="GetLabelDestination">
<polygon fill="white" stroke="black" points="328,-772.385 328,-791.385 442,-791.385 442,-772.385 328,-772.385"/>
<text text-anchor="middle" x="385" y="-779.385" font-family="Helvetica,sans-Serif" font-size="10.00">GetLabelDestination</text>
</a>
</g>
</g>
<!-- Node1&#45;&gt;Node15 -->
<g id="edge69" class="edge"><title>Node1&#45;&gt;Node15</title>
<path fill="none" stroke="midnightblue" d="M51.394,-631.777C56.4205,-672.012 74.0574,-762.487 133,-800.885 205.684,-848.235 316.56,-810.732 362.701,-791.497"/>
<polygon fill="midnightblue" stroke="midnightblue" points="54.8503,-631.189 50.2666,-621.637 47.8932,-631.962 54.8503,-631.189"/>
</g>
<!-- Node16 -->
<g id="node16" class="node"><title>Node16</title>
<g id="a_node16"><a xlink:href="rpcwallet_8cpp.html#a74b85c92ee6a84277c73b74f2e212bff" target="_top" xlink:title="listtransactions">
<polygon fill="white" stroke="black" points="340.5,-280.385 340.5,-299.385 429.5,-299.385 429.5,-280.385 340.5,-280.385"/>
<text text-anchor="middle" x="385" y="-287.385" font-family="Helvetica,sans-Serif" font-size="10.00">listtransactions</text>
</a>
</g>
</g>
<!-- Node1&#45;&gt;Node16 -->
<g id="edge71" class="edge"><title>Node1&#45;&gt;Node16</title>
<path fill="none" stroke="midnightblue" d="M52.0032,-592.052C60.1792,-530.68 88.1794,-345.781 133,-308.885 193.057,-259.447 290.945,-269.573 345.021,-280.333"/>
<polygon fill="midnightblue" stroke="midnightblue" points="48.4886,-591.939 50.6702,-602.307 55.4302,-592.841 48.4886,-591.939"/>
</g>
<!-- Node17 -->
<g id="node17" class="node"><title>Node17</title>
<g id="a_node17"><a xlink:href="rpcwallet_8cpp.html#a61c7a90d1b36888fe11b751e746e18c0" target="_top" xlink:title="sethdseed">
<polygon fill="white" stroke="black" points="551.5,-356.385 551.5,-375.385 618.5,-375.385 618.5,-356.385 551.5,-356.385"/>
<text text-anchor="middle" x="585" y="-363.385" font-family="Helvetica,sans-Serif" font-size="10.00">sethdseed</text>
</a>
</g>
</g>
<!-- Node1&#45;&gt;Node17 -->
<g id="edge77" class="edge"><title>Node1&#45;&gt;Node17</title>
<path fill="none" stroke="midnightblue" d="M107.058,-614.248C192.446,-614.848 354.075,-604.522 461,-526.885 520.773,-483.485 565.249,-402.949 579.303,-375.408"/>
<polygon fill="midnightblue" stroke="midnightblue" points="107.074,-610.748 97.0316,-614.124 106.988,-617.747 107.074,-610.748"/>
</g>
<!-- Node18 -->
<g id="node18" class="node"><title>Node18</title>
<g id="a_node18"><a xlink:href="rpcwallet_8h.html#a7c13054932c9e3b351bd6277fa9361d7" target="_top" xlink:title="signrawtransactionwithwallet">
<polygon fill="white" stroke="black" points="309,-697.385 309,-716.385 461,-716.385 461,-697.385 309,-697.385"/>
<text text-anchor="middle" x="385" y="-704.385" font-family="Helvetica,sans-Serif" font-size="10.00">signrawtransactionwithwallet</text>
</a>
</g>
</g>
<!-- Node1&#45;&gt;Node18 -->
<g id="edge72" class="edge"><title>Node1&#45;&gt;Node18</title>
<path fill="none" stroke="midnightblue" d="M68.4738,-628.552C84.5307,-641.695 108.743,-659.348 133,-668.885 189.5,-691.1 257.87,-700.41 308.977,-704.272"/>
<polygon fill="midnightblue" stroke="midnightblue" points="70.3486,-625.555 60.4438,-621.794 65.8412,-630.911 70.3486,-625.555"/>
</g>
<!-- Node19 -->
<g id="node19" class="node"><title>Node19</title>
<g id="a_node19"><a xlink:href="rawtransaction_8cpp.html#a5b2abfea4548c97e780cfae39f9ac11b" target="_top" xlink:title="signrawtransaction">
<polygon fill="white" stroke="black" points="531.5,-796.385 531.5,-815.385 638.5,-815.385 638.5,-796.385 531.5,-796.385"/>
<text text-anchor="middle" x="585" y="-803.385" font-family="Helvetica,sans-Serif" font-size="10.00">signrawtransaction</text>
</a>
</g>
</g>
<!-- Node1&#45;&gt;Node19 -->
<g id="edge37" class="edge"><title>Node1&#45;&gt;Node19</title>
<path fill="none" stroke="midnightblue" d="M49.2771,-631.679C49.936,-679.87 59.1005,-803.324 133,-857.885 250.29,-944.483 318.624,-894.272 461,-862.885 502.371,-853.765 546.373,-829.29 568.854,-815.562"/>
<polygon fill="midnightblue" stroke="midnightblue" points="52.777,-631.607 49.2537,-621.615 45.7771,-631.623 52.777,-631.607"/>
</g>
<!-- Node20 -->
<g id="node20" class="node"><title>Node20</title>
<g id="a_node20"><a xlink:href="mining_8h.html#a4910d289954727eb7c4c24a6b3c50c55" target="_top" xlink:title="Generate blocks (mine) ">
<polygon fill="white" stroke="black" points="157.5,-432.385 157.5,-451.385 248.5,-451.385 248.5,-432.385 157.5,-432.385"/>
<text text-anchor="middle" x="203" y="-439.385" font-family="Helvetica,sans-Serif" font-size="10.00">generateBlocks</text>
</a>
</g>
</g>
<!-- Node1&#45;&gt;Node20 -->
<g id="edge28" class="edge"><title>Node1&#45;&gt;Node20</title>
<path fill="none" stroke="midnightblue" d="M57.5372,-592.949C70.1584,-565.042 96.955,-512.545 133,-478.885 145.716,-467.01 162.966,-457.76 177.037,-451.479"/>
<polygon fill="midnightblue" stroke="midnightblue" points="54.2247,-591.788 53.4044,-602.351 60.6329,-594.605 54.2247,-591.788"/>
</g>
<!-- Node22 -->
<g id="node22" class="node"><title>Node22</title>
<g id="a_node22"><a xlink:href="misc_8cpp.html#a102e2c91951128d7a170700149aae5c3" target="_top" xlink:title="logging">
<polygon fill="white" stroke="black" points="177.5,-564.385 177.5,-583.385 228.5,-583.385 228.5,-564.385 177.5,-564.385"/>
<text text-anchor="middle" x="203" y="-571.385" font-family="Helvetica,sans-Serif" font-size="10.00">logging</text>
</a>
</g>
</g>
<!-- Node1&#45;&gt;Node22 -->
<g id="edge33" class="edge"><title>Node1&#45;&gt;Node22</title>
<path fill="none" stroke="midnightblue" d="M97.8371,-599.841C124.299,-593.247 155.965,-585.356 177.382,-580.02"/>
<polygon fill="midnightblue" stroke="midnightblue" points="96.8392,-596.482 87.9822,-602.296 98.5318,-603.275 96.8392,-596.482"/>
</g>
<!-- Node23 -->
<g id="node23" class="node"><title>Node23</title>
<g id="a_node23"><a xlink:href="rawtransaction_8h.html#a69f132a19b8e91bd9b0b1330b5323f0a" target="_top" xlink:title="Sign a transaction with the given keystore and previous transactions. ">
<polygon fill="white" stroke="black" points="157,-716.385 157,-735.385 249,-735.385 249,-716.385 157,-716.385"/>
<text text-anchor="middle" x="203" y="-723.385" font-family="Helvetica,sans-Serif" font-size="10.00">SignTransaction</text>
</a>
</g>
</g>
<!-- Node1&#45;&gt;Node23 -->
<g id="edge34" class="edge"><title>Node1&#45;&gt;Node23</title>
<path fill="none" stroke="midnightblue" d="M61.8577,-629.763C76.6318,-649.905 103.137,-682.372 133,-701.885 142.343,-707.991 153.416,-712.734 163.926,-716.331"/>
<polygon fill="midnightblue" stroke="midnightblue" points="64.5889,-627.565 55.9253,-621.466 58.8948,-631.636 64.5889,-627.565"/>
</g>
<!-- Node24 -->
<g id="node24" class="node"><title>Node24</title>
<g id="a_node24"><a xlink:href="server_8cpp.html#a339426c1fe47913c35e14314d3e5795a" target="_top" xlink:title="stop">
<polygon fill="white" stroke="black" points="184,-640.385 184,-659.385 222,-659.385 222,-640.385 184,-640.385"/>
<text text-anchor="middle" x="203" y="-647.385" font-family="Helvetica,sans-Serif" font-size="10.00">stop</text>
</a>
</g>
</g>
<!-- Node1&#45;&gt;Node24 -->
<g id="edge38" class="edge"><title>Node1&#45;&gt;Node24</title>
<path fill="none" stroke="midnightblue" d="M98.0285,-623.978C127.27,-631.264 162.808,-640.119 183.851,-645.363"/>
<polygon fill="midnightblue" stroke="midnightblue" points="98.5318,-620.496 87.9822,-621.474 96.8392,-627.288 98.5318,-620.496"/>
</g>
<!-- Node28 -->
<g id="node28" class="node"><title>Node28</title>
<g id="a_node28"><a xlink:href="rpcwallet_8cpp.html#a2f46e2bb304dda9a197b5a68db6106f7" target="_top" xlink:title="importprivkey">
<polygon fill="white" stroke="black" points="344,-166.385 344,-185.385 426,-185.385 426,-166.385 344,-166.385"/>
<text text-anchor="middle" x="385" y="-173.385" font-family="Helvetica,sans-Serif" font-size="10.00">importprivkey</text>
</a>
</g>
</g>
<!-- Node1&#45;&gt;Node28 -->
<g id="edge42" class="edge"><title>Node1&#45;&gt;Node28</title>
<path fill="none" stroke="midnightblue" d="M50.4196,-591.908C54.3459,-516.201 72.3773,-248.525 133,-194.885 163.274,-168.098 280.873,-170.105 343.775,-173.278"/>
<polygon fill="midnightblue" stroke="midnightblue" points="46.9017,-592.188 49.9062,-602.348 53.8932,-592.532 46.9017,-592.188"/>
</g>
<!-- Node29 -->
<g id="node29" class="node"><title>Node29</title>
<g id="a_node29"><a xlink:href="rpcwallet_8cpp.html#a9df6d8c784683e22309cb2627d21b1f2" target="_top" xlink:title="abortrescan">
<polygon fill="white" stroke="black" points="348,-394.385 348,-413.385 422,-413.385 422,-394.385 348,-394.385"/>
<text text-anchor="middle" x="385" y="-401.385" font-family="Helvetica,sans-Serif" font-size="10.00">abortrescan</text>
</a>
</g>
</g>
<!-- Node1&#45;&gt;Node29 -->
<g id="edge44" class="edge"><title>Node1&#45;&gt;Node29</title>
<path fill="none" stroke="midnightblue" d="M51.6391,-592.355C57.1187,-552.788 75.5497,-463.482 133,-422.885 197.241,-377.49 295.234,-386.538 347.755,-395.912"/>
<polygon fill="midnightblue" stroke="midnightblue" points="48.161,-591.962 50.3925,-602.32 55.1069,-592.831 48.161,-591.962"/>
</g>
<!-- Node30 -->
<g id="node30" class="node"><title>Node30</title>
<g id="a_node30"><a xlink:href="rpcwallet_8cpp.html#aba44e0021b6111a1f0a8c54bbff34130" target="_top" xlink:title="importaddress">
<polygon fill="white" stroke="black" points="342,-356.385 342,-375.385 428,-375.385 428,-356.385 342,-356.385"/>
<text text-anchor="middle" x="385" y="-363.385" font-family="Helvetica,sans-Serif" font-size="10.00">importaddress</text>
</a>
</g>
</g>
<!-- Node1&#45;&gt;Node30 -->
<g id="edge46" class="edge"><title>Node1&#45;&gt;Node30</title>
<path fill="none" stroke="midnightblue" d="M50.0817,-591.977C52.5903,-546.649 65.6626,-435.751 133,-384.885 164.863,-360.817 279.145,-361.429 341.936,-363.75"/>
<polygon fill="midnightblue" stroke="midnightblue" points="46.5832,-591.87 49.645,-602.012 53.5766,-592.174 46.5832,-591.87"/>
</g>
<!-- Node31 -->
<g id="node31" class="node"><title>Node31</title>
<g id="a_node31"><a xlink:href="rpcwallet_8cpp.html#a85478b0b9837a3e5467dce66fcb5ffb0" target="_top" xlink:title="removeprunedfunds">
<polygon fill="white" stroke="black" points="146.5,-318.385 146.5,-337.385 259.5,-337.385 259.5,-318.385 146.5,-318.385"/>
<text text-anchor="middle" x="203" y="-325.385" font-family="Helvetica,sans-Serif" font-size="10.00">removeprunedfunds</text>
</a>
</g>
</g>
<!-- Node1&#45;&gt;Node31 -->
<g id="edge48" class="edge"><title>Node1&#45;&gt;Node31</title>
<path fill="none" stroke="midnightblue" d="M50.1009,-592.094C52.6258,-544.181 65.6879,-420.832 133,-351.885 139.202,-345.533 147.171,-340.86 155.478,-337.423"/>
<polygon fill="midnightblue" stroke="midnightblue" points="46.5935,-592.195 49.6667,-602.334 53.5872,-592.491 46.5935,-592.195"/>
</g>
<!-- Node32 -->
<g id="node32" class="node"><title>Node32</title>
<g id="a_node32"><a xlink:href="rpcwallet_8cpp.html#a1e79cb342ad4f0bf7b02a2b1e18af7ff" target="_top" xlink:title="importpubkey">
<polygon fill="white" stroke="black" points="161.5,-128.385 161.5,-147.385 244.5,-147.385 244.5,-128.385 161.5,-128.385"/>
<text text-anchor="middle" x="203" y="-135.385" font-family="Helvetica,sans-Serif" font-size="10.00">importpubkey</text>
</a>
</g>
</g>
<!-- Node1&#45;&gt;Node32 -->
<g id="edge50" class="edge"><title>Node1&#45;&gt;Node32</title>
<path fill="none" stroke="midnightblue" d="M50.5977,-591.835C55.2769,-513.376 75.9917,-228.242 133,-161.885 140.273,-153.419 150.699,-147.938 161.251,-144.389"/>
<polygon fill="midnightblue" stroke="midnightblue" points="47.0801,-592.042 50.0011,-602.226 54.0686,-592.443 47.0801,-592.042"/>
</g>
<!-- Node33 -->
<g id="node33" class="node"><title>Node33</title>
<g id="a_node33"><a xlink:href="wallet__tests_8cpp.html#a8c64ef6e0ced69002923098229448758" target="_top" xlink:title="importwallet">
<polygon fill="white" stroke="black" points="347.5,-14.3853 347.5,-33.3853 422.5,-33.3853 422.5,-14.3853 347.5,-14.3853"/>
<text text-anchor="middle" x="385" y="-21.3853" font-family="Helvetica,sans-Serif" font-size="10.00">importwallet</text>
</a>
</g>
</g>
<!-- Node1&#45;&gt;Node33 -->
<g id="edge52" class="edge"><title>Node1&#45;&gt;Node33</title>
<path fill="none" stroke="midnightblue" d="M49.1984,-591.892C48.257,-499.403 49.4619,-114.321 133,-37.8853 193.213,17.2084 299.388,-0.716194 352.249,-14.381"/>
<polygon fill="midnightblue" stroke="midnightblue" points="45.7012,-592.15 49.3247,-602.106 52.7007,-592.063 45.7012,-592.15"/>
</g>
<!-- Node35 -->
<g id="node35" class="node"><title>Node35</title>
<g id="a_node35"><a xlink:href="rpcwallet_8cpp.html#ab3f51d8e8fe414dbf91c37485e481ae3" target="_top" xlink:title="dumpprivkey">
<polygon fill="white" stroke="black" points="346,-242.385 346,-261.385 424,-261.385 424,-242.385 346,-242.385"/>
<text text-anchor="middle" x="385" y="-249.385" font-family="Helvetica,sans-Serif" font-size="10.00">dumpprivkey</text>
</a>
</g>
</g>
<!-- Node1&#45;&gt;Node35 -->
<g id="edge54" class="edge"><title>Node1&#45;&gt;Node35</title>
<path fill="none" stroke="midnightblue" d="M51.2968,-592.006C57.7731,-525.182 82.2671,-310.458 133,-267.885 164.274,-241.641 283.788,-245.201 345.942,-249.026"/>
<polygon fill="midnightblue" stroke="midnightblue" points="47.8034,-591.772 50.3521,-602.056 54.7727,-592.428 47.8034,-591.772"/>
</g>
<!-- Node36 -->
<g id="node36" class="node"><title>Node36</title>
<g id="a_node36"><a xlink:href="wallet__tests_8cpp.html#a73ce3a42e0b56b2e4516e55871d8590e" target="_top" xlink:title="dumpwallet">
<polygon fill="white" stroke="black" points="349.5,-52.3853 349.5,-71.3853 420.5,-71.3853 420.5,-52.3853 349.5,-52.3853"/>
<text text-anchor="middle" x="385" y="-59.3853" font-family="Helvetica,sans-Serif" font-size="10.00">dumpwallet</text>
</a>
</g>
</g>
<!-- Node1&#45;&gt;Node36 -->
<g id="edge56" class="edge"><title>Node1&#45;&gt;Node36</title>
<path fill="none" stroke="midnightblue" d="M49.4899,-591.764C49.8965,-503.47 56.3657,-151.592 133,-80.8853 191.938,-26.5067 295.346,-40.3228 349.19,-52.5097"/>
<polygon fill="midnightblue" stroke="midnightblue" points="45.9894,-592.005 49.466,-602.013 52.9894,-592.021 45.9894,-592.005"/>
</g>
<!-- Node37 -->
<g id="node37" class="node"><title>Node37</title>
<g id="a_node37"><a xlink:href="rpcwallet_8h.html#aae9bc665151c5bab626a7ffcaeed9c0d" target="_top" xlink:title="EnsureWalletIsUnlocked">
<polygon fill="white" stroke="black" points="138.5,-204.385 138.5,-223.385 267.5,-223.385 267.5,-204.385 138.5,-204.385"/>
<text text-anchor="middle" x="203" y="-211.385" font-family="Helvetica,sans-Serif" font-size="10.00">EnsureWalletIsUnlocked</text>
</a>
</g>
</g>
<!-- Node1&#45;&gt;Node37 -->
<g id="edge58" class="edge"><title>Node1&#45;&gt;Node37</title>
<path fill="none" stroke="midnightblue" d="M51.3871,-592.169C58.3904,-522.87 84.9947,-291.759 133,-237.885 138.653,-231.541 146.074,-226.874 153.949,-223.44"/>
<polygon fill="midnightblue" stroke="midnightblue" points="47.8983,-591.885 50.3994,-602.18 54.8644,-592.572 47.8983,-591.885"/>
</g>
<!-- Node40 -->
<g id="node40" class="node"><title>Node40</title>
<g id="a_node40"><a xlink:href="structtallyitem.html#ae5422f8bac6178b3e7dd634d6bfc454c" target="_top" xlink:title="tallyitem::tallyitem">
<polygon fill="white" stroke="black" points="150.5,-90.3853 150.5,-109.385 255.5,-109.385 255.5,-90.3853 150.5,-90.3853"/>
<text text-anchor="middle" x="203" y="-97.3853" font-family="Helvetica,sans-Serif" font-size="10.00">tallyitem::tallyitem</text>
</a>
</g>
</g>
<!-- Node1&#45;&gt;Node40 -->
<g id="edge70" class="edge"><title>Node1&#45;&gt;Node40</title>
<path fill="none" stroke="midnightblue" d="M50.1061,-591.952C53.0366,-508.776 68.3718,-190.389 133,-118.885 137.749,-113.631 143.804,-109.775 150.348,-106.954"/>
<polygon fill="midnightblue" stroke="midnightblue" points="46.6037,-591.967 49.7711,-602.078 53.5999,-592.199 46.6037,-591.967"/>
</g>
<!-- Node41 -->
<g id="node41" class="node"><title>Node41</title>
<g id="a_node41"><a xlink:href="rpcwallet_8cpp.html#a151535abf7394b299deb8d0a333de70b" target="_top" xlink:title="rescanblockchain">
<polygon fill="white" stroke="black" points="153.5,-526.385 153.5,-545.385 252.5,-545.385 252.5,-526.385 153.5,-526.385"/>
<text text-anchor="middle" x="203" y="-533.385" font-family="Helvetica,sans-Serif" font-size="10.00">rescanblockchain</text>
</a>
</g>
</g>
<!-- Node1&#45;&gt;Node41 -->
<g id="edge73" class="edge"><title>Node1&#45;&gt;Node41</title>
<path fill="none" stroke="midnightblue" d="M69.0726,-595.753C85.3168,-583.069 109.484,-565.78 133,-554.885 141.117,-551.125 150.127,-547.977 158.884,-545.394"/>
<polygon fill="midnightblue" stroke="midnightblue" points="66.5544,-593.284 60.9177,-602.255 70.9185,-598.757 66.5544,-593.284"/>
</g>
<!-- Node42 -->
<g id="node42" class="node"><title>Node42</title>
<g id="a_node42"><a xlink:href="rpcwallet_8h.html#a3f008088e017b871e32cfae02b622bc8" target="_top" xlink:title="getaddressinfo">
<polygon fill="white" stroke="black" points="159,-488.385 159,-507.385 247,-507.385 247,-488.385 159,-488.385"/>
<text text-anchor="middle" x="203" y="-495.385" font-family="Helvetica,sans-Serif" font-size="10.00">getaddressinfo</text>
</a>
</g>
</g>
<!-- Node1&#45;&gt;Node42 -->
<g id="edge75" class="edge"><title>Node1&#45;&gt;Node42</title>
<path fill="none" stroke="midnightblue" d="M60.7598,-593.578C74.9607,-572.027 101.383,-536.673 133,-516.885 140.794,-512.007 149.847,-508.362 158.781,-505.644"/>
<polygon fill="midnightblue" stroke="midnightblue" points="57.721,-591.833 55.281,-602.144 63.6179,-595.605 57.721,-591.833"/>
</g>
<!-- Node3 -->
<g id="node3" class="node"><title>Node3</title>
<g id="a_node3"><a xlink:href="struct_c_coin.html#a2a0a2532bdacb03b087b3b0a400830ec" target="_top" xlink:title="CCoin::SerializationOp">
<polygon fill="white" stroke="black" points="524,-1069.39 524,-1088.39 646,-1088.39 646,-1069.39 524,-1069.39"/>
<text text-anchor="middle" x="585" y="-1076.39" font-family="Helvetica,sans-Serif" font-size="10.00">CCoin::SerializationOp</text>
</a>
</g>
</g>
<!-- Node2&#45;&gt;Node3 -->
<g id="edge2" class="edge"><title>Node2&#45;&gt;Node3</title>
<path fill="none" stroke="midnightblue" d="M250.721,-1022.18C302.538,-1023.24 388.408,-1027.17 461,-1040.89 495.699,-1047.44 534.42,-1060.38 558.98,-1069.32"/>
<polygon fill="midnightblue" stroke="midnightblue" points="250.572,-1018.68 240.512,-1022 250.448,-1025.68 250.572,-1018.68"/>
</g>
<!-- Node2&#45;&gt;Node4 -->
<g id="edge3" class="edge"><title>Node2&#45;&gt;Node4</title>
<path fill="none" stroke="midnightblue" d="M244.746,-1009.21C277.756,-998.939 323.542,-984.695 353.461,-975.386"/>
<polygon fill="midnightblue" stroke="midnightblue" points="243.452,-1005.95 234.943,-1012.26 245.531,-1012.63 243.452,-1005.95"/>
</g>
<!-- Node4&#45;&gt;Node3 -->
<g id="edge4" class="edge"><title>Node4&#45;&gt;Node3</title>
<path fill="none" stroke="midnightblue" d="M412.187,-980.441C426.613,-988.486 444.824,-998.688 461,-1007.89 499.152,-1029.58 543.715,-1055.43 567.328,-1069.17"/>
<polygon fill="midnightblue" stroke="midnightblue" points="413.753,-977.306 403.313,-975.497 410.346,-983.421 413.753,-977.306"/>
</g>
<!-- Node4&#45;&gt;Node4 -->
<g id="edge5" class="edge"><title>Node4&#45;&gt;Node4</title>
<path fill="none" stroke="midnightblue" d="M350.892,-983.777C351.392,-989.426 362.761,-993.885 385,-993.885 417.348,-993.885 426.698,-984.451 413.051,-975.642"/>
<polygon fill="midnightblue" stroke="midnightblue" points="353.784,-985.754 356.949,-975.642 348.169,-981.573 353.784,-985.754"/>
</g>
<!-- Node6 -->
<g id="node6" class="node"><title>Node6</title>
<g id="a_node6"><a xlink:href="init_8h.html#ac5f038c2b480cf9ef5e19e3eba8dbaf9" target="_top" xlink:title="Shutdown">
<polygon fill="white" stroke="black" points="353,-1088.39 353,-1107.39 417,-1107.39 417,-1088.39 353,-1088.39"/>
<text text-anchor="middle" x="385" y="-1095.39" font-family="Helvetica,sans-Serif" font-size="10.00">Shutdown</text>
</a>
</g>
</g>
<!-- Node5&#45;&gt;Node6 -->
<g id="edge7" class="edge"><title>Node5&#45;&gt;Node6</title>
<path fill="none" stroke="midnightblue" d="M259.55,-1071.61C290.201,-1078.08 327.13,-1085.88 352.762,-1091.29"/>
<polygon fill="midnightblue" stroke="midnightblue" points="259.929,-1068.12 249.422,-1069.47 258.483,-1074.96 259.929,-1068.12"/>
</g>
<!-- Node7 -->
<g id="node7" class="node"><title>Node7</title>
<g id="a_node7"><a xlink:href="init_8h.html#a50b568a1d0cbbcde470f678bbbd60ecf" target="_top" xlink:title="Bitcoin core main initialization. ">
<polygon fill="white" stroke="black" points="349,-1050.39 349,-1069.39 421,-1069.39 421,-1050.39 349,-1050.39"/>
<text text-anchor="middle" x="385" y="-1057.39" font-family="Helvetica,sans-Serif" font-size="10.00">AppInitMain</text>
</a>
</g>
</g>
<!-- Node5&#45;&gt;Node7 -->
<g id="edge8" class="edge"><title>Node5&#45;&gt;Node7</title>
<path fill="none" stroke="midnightblue" d="M275.942,-1059.89C301.057,-1059.89 328.128,-1059.89 348.892,-1059.89"/>
<polygon fill="midnightblue" stroke="midnightblue" points="275.694,-1056.39 265.694,-1059.89 275.694,-1063.39 275.694,-1056.39"/>
</g>
<!-- Node9&#45;&gt;Node10 -->
<g id="edge12" class="edge"><title>Node9&#45;&gt;Node10</title>
<path fill="none" stroke="midnightblue" d="M241.633,-1203.94C269.906,-1197.97 308.752,-1189.77 338.725,-1183.44"/>
<polygon fill="midnightblue" stroke="midnightblue" points="240.792,-1200.54 231.731,-1206.03 242.238,-1207.39 240.792,-1200.54"/>
</g>
<!-- Node10&#45;&gt;Node3 -->
<g id="edge13" class="edge"><title>Node10&#45;&gt;Node3</title>
<path fill="none" stroke="midnightblue" d="M431.101,-1161.18C441.097,-1157.89 451.53,-1154.08 461,-1149.89 502.262,-1131.63 547.385,-1103.19 569.765,-1088.46"/>
<polygon fill="midnightblue" stroke="midnightblue" points="429.774,-1157.93 421.302,-1164.29 431.893,-1164.6 429.774,-1157.93"/>
</g>
<!-- Node10&#45;&gt;Node10 -->
<g id="edge14" class="edge"><title>Node10&#45;&gt;Node10</title>
<path fill="none" stroke="midnightblue" d="M350.892,-1191.78C351.392,-1197.43 362.761,-1201.89 385,-1201.89 417.348,-1201.89 426.698,-1192.45 413.051,-1183.64"/>
<polygon fill="midnightblue" stroke="midnightblue" points="353.784,-1193.75 356.949,-1183.64 348.169,-1189.57 353.784,-1193.75"/>
</g>
<!-- Node11&#45;&gt;Node3 -->
<g id="edge16" class="edge"><title>Node11&#45;&gt;Node3</title>
<path fill="none" stroke="midnightblue" d="M263.343,-1135.29C315.751,-1133.86 394.026,-1129.54 461,-1116.89 495.699,-1110.33 534.42,-1097.39 558.98,-1088.45"/>
<polygon fill="midnightblue" stroke="midnightblue" points="263.128,-1131.79 253.217,-1135.53 263.3,-1138.79 263.128,-1131.79"/>
</g>
<!-- Node11&#45;&gt;Node10 -->
<g id="edge17" class="edge"><title>Node11&#45;&gt;Node10</title>
<path fill="none" stroke="midnightblue" d="M259.331,-1147.57C284.857,-1152.96 314.776,-1159.27 338.905,-1164.37"/>
<polygon fill="midnightblue" stroke="midnightblue" points="259.929,-1144.12 249.422,-1145.47 258.483,-1150.96 259.929,-1144.12"/>
</g>
<!-- Node13&#45;&gt;Node14 -->
<g id="edge21" class="edge"><title>Node13&#45;&gt;Node14</title>
<path fill="none" stroke="midnightblue" d="M243.764,-794.477C271.123,-803.141 307.593,-814.69 336.484,-823.838"/>
<polygon fill="midnightblue" stroke="midnightblue" points="244.718,-791.108 234.128,-791.426 242.605,-797.782 244.718,-791.108"/>
</g>
<!-- Node13&#45;&gt;Node15 -->
<g id="edge22" class="edge"><title>Node13&#45;&gt;Node15</title>
<path fill="none" stroke="midnightblue" d="M268.035,-781.885C287.565,-781.885 308.88,-781.885 327.847,-781.885"/>
<polygon fill="midnightblue" stroke="midnightblue" points="268.006,-778.385 258.006,-781.885 268.006,-785.385 268.006,-778.385"/>
</g>
<!-- Node13&#45;&gt;Node16 -->
<g id="edge23" class="edge"><title>Node13&#45;&gt;Node16</title>
<path fill="none" stroke="midnightblue" d="M266.621,-768.981C268.952,-767.19 271.1,-765.168 273,-762.885 332.365,-691.571 264.219,-428.154 309,-346.885 321.076,-324.97 345.507,-308.89 363.211,-299.499"/>
<polygon fill="midnightblue" stroke="midnightblue" points="264.775,-766.007 258.077,-774.216 268.432,-771.976 264.775,-766.007"/>
</g>
<!-- Node13&#45;&gt;Node18 -->
<g id="edge25" class="edge"><title>Node13&#45;&gt;Node18</title>
<path fill="none" stroke="midnightblue" d="M253.484,-769.545C260.112,-767.519 266.769,-765.288 273,-762.885 307.841,-749.453 346.284,-728.601 367.549,-716.492"/>
<polygon fill="midnightblue" stroke="midnightblue" points="252.462,-766.197 243.845,-772.362 254.426,-772.916 252.462,-766.197"/>
</g>
<!-- Node16&#45;&gt;Node17 -->
<g id="edge24" class="edge"><title>Node16&#45;&gt;Node17</title>
<path fill="none" stroke="midnightblue" d="M427.705,-302.494C438.608,-305.991 450.302,-309.921 461,-313.885 497.305,-327.337 538.587,-345.367 562.902,-356.278"/>
<polygon fill="midnightblue" stroke="midnightblue" points="428.556,-299.093 417.966,-299.416 426.446,-305.767 428.556,-299.093"/>
</g>
<!-- Node18&#45;&gt;Node17 -->
<g id="edge27" class="edge"><title>Node18&#45;&gt;Node17</title>
<path fill="none" stroke="midnightblue" d="M425.678,-693.217C438.266,-687.321 451.392,-679.329 461,-668.885 504.434,-621.671 567.041,-421.674 581.118,-375.448"/>
<polygon fill="midnightblue" stroke="midnightblue" points="424.002,-690.129 416.225,-697.323 426.791,-696.549 424.002,-690.129"/>
</g>
<!-- Node18&#45;&gt;Node19 -->
<g id="edge26" class="edge"><title>Node18&#45;&gt;Node19</title>
<path fill="none" stroke="midnightblue" d="M414.515,-721.143C455.481,-741.626 529.893,-778.832 564.867,-796.319"/>
<polygon fill="midnightblue" stroke="midnightblue" points="415.855,-717.9 405.346,-716.558 412.725,-724.161 415.855,-717.9"/>
</g>
<!-- Node20&#45;&gt;Node20 -->
<g id="edge29" class="edge"><title>Node20&#45;&gt;Node20</title>
<path fill="none" stroke="midnightblue" d="M174.254,-460.539C175.456,-465.822 185.038,-469.885 203,-469.885 230.371,-469.885 238.283,-460.451 226.736,-451.642"/>
<polygon fill="midnightblue" stroke="midnightblue" points="177.407,-462.073 179.264,-451.642 171.308,-458.639 177.407,-462.073"/>
</g>
<!-- Node21 -->
<g id="node21" class="node"><title>Node21</title>
<g id="a_node21"><a xlink:href="rpcwallet_8cpp.html#a236a42206aa464fbb10bae6e6243092b" target="_top" xlink:title="generate">
<polygon fill="white" stroke="black" points="355,-432.385 355,-451.385 415,-451.385 415,-432.385 355,-432.385"/>
<text text-anchor="middle" x="385" y="-439.385" font-family="Helvetica,sans-Serif" font-size="10.00">generate</text>
</a>
</g>
</g>
<!-- Node20&#45;&gt;Node21 -->
<g id="edge30" class="edge"><title>Node20&#45;&gt;Node21</title>
<path fill="none" stroke="midnightblue" d="M259.358,-441.885C290.864,-441.885 329.054,-441.885 354.791,-441.885"/>
<polygon fill="midnightblue" stroke="midnightblue" points="258.957,-438.385 248.957,-441.885 258.957,-445.385 258.957,-438.385"/>
</g>
<!-- Node21&#45;&gt;Node17 -->
<g id="edge31" class="edge"><title>Node21&#45;&gt;Node17</title>
<path fill="none" stroke="midnightblue" d="M425.147,-433.427C436.817,-430.516 449.545,-426.951 461,-422.885 499.594,-409.188 542.547,-387.778 566.104,-375.468"/>
<polygon fill="midnightblue" stroke="midnightblue" points="424.128,-430.072 415.223,-435.813 425.764,-436.878 424.128,-430.072"/>
</g>
<!-- Node23&#45;&gt;Node18 -->
<g id="edge36" class="edge"><title>Node23&#45;&gt;Node18</title>
<path fill="none" stroke="midnightblue" d="M259.419,-720.036C275.027,-718.388 292.272,-716.568 308.829,-714.82"/>
<polygon fill="midnightblue" stroke="midnightblue" points="258.999,-716.56 249.422,-721.091 259.734,-723.522 258.999,-716.56"/>
</g>
<!-- Node23&#45;&gt;Node23 -->
<g id="edge35" class="edge"><title>Node23&#45;&gt;Node23</title>
<path fill="none" stroke="midnightblue" d="M174.254,-744.539C175.456,-749.822 185.038,-753.885 203,-753.885 230.371,-753.885 238.283,-744.451 226.736,-735.642"/>
<polygon fill="midnightblue" stroke="midnightblue" points="177.407,-746.073 179.264,-735.642 171.308,-742.639 177.407,-746.073"/>
</g>
<!-- Node25 -->
<g id="node25" class="node"><title>Node25</title>
<g id="a_node25"><a xlink:href="random_8h.html#a7fb6c441a23070a7f510fd48b5ca2a18" target="_top" xlink:title="Check that OS randomness is available and returning the requested number of bytes. ">
<polygon fill="white" stroke="black" points="324.5,-640.385 324.5,-659.385 445.5,-659.385 445.5,-640.385 324.5,-640.385"/>
<text text-anchor="middle" x="385" y="-647.385" font-family="Helvetica,sans-Serif" font-size="10.00">Random_SanityCheck</text>
</a>
</g>
</g>
<!-- Node24&#45;&gt;Node25 -->
<g id="edge39" class="edge"><title>Node24&#45;&gt;Node25</title>
<path fill="none" stroke="midnightblue" d="M232.333,-649.885C256.922,-649.885 293.34,-649.885 324.326,-649.885"/>
<polygon fill="midnightblue" stroke="midnightblue" points="232.25,-646.385 222.25,-649.885 232.25,-653.385 232.25,-646.385"/>
</g>
<!-- Node26 -->
<g id="node26" class="node"><title>Node26</title>
<g id="a_node26"><a xlink:href="struct_c_importing_now.html#a0e449b23ac612ff3ff491d989fd08a18" target="_top" xlink:title="CImportingNow::~CImportingNow">
<polygon fill="white" stroke="black" points="497,-618.385 497,-637.385 673,-637.385 673,-618.385 497,-618.385"/>
<text text-anchor="middle" x="585" y="-625.385" font-family="Helvetica,sans-Serif" font-size="10.00">CImportingNow::~CImportingNow</text>
</a>
</g>
</g>
<!-- Node25&#45;&gt;Node26 -->
<g id="edge40" class="edge"><title>Node25&#45;&gt;Node26</title>
<path fill="none" stroke="midnightblue" d="M456.004,-642.107C469.746,-640.58 484.306,-638.962 498.489,-637.387"/>
<polygon fill="midnightblue" stroke="midnightblue" points="455.227,-638.672 445.675,-643.255 456,-645.629 455.227,-638.672"/>
</g>
<!-- Node27 -->
<g id="node27" class="node"><title>Node27</title>
<g id="a_node27"><a xlink:href="class_fast_random_context.html#a9798d55b00a02401d19ac20616ab1b85" target="_top" xlink:title="FastRandomContext::\loperator()">
<polygon fill="white" stroke="black" points="525.5,-656.885 525.5,-686.885 644.5,-686.885 644.5,-656.885 525.5,-656.885"/>
<text text-anchor="start" x="533.5" y="-674.885" font-family="Helvetica,sans-Serif" font-size="10.00">FastRandomContext::</text>
<text text-anchor="middle" x="585" y="-663.885" font-family="Helvetica,sans-Serif" font-size="10.00">operator()</text>
</a>
</g>
</g>
<!-- Node25&#45;&gt;Node27 -->
<g id="edge41" class="edge"><title>Node25&#45;&gt;Node27</title>
<path fill="none" stroke="midnightblue" d="M455.637,-657.623C478.454,-660.158 503.559,-662.947 525.469,-665.382"/>
<polygon fill="midnightblue" stroke="midnightblue" points="456,-654.142 445.675,-656.516 455.227,-661.099 456,-654.142"/>
</g>
<!-- Node28&#45;&gt;Node17 -->
<g id="edge43" class="edge"><title>Node28&#45;&gt;Node17</title>
<path fill="none" stroke="midnightblue" d="M435.879,-187.012C444.72,-190.297 453.49,-194.508 461,-199.885 522.535,-243.946 566.192,-328.145 579.639,-356.385"/>
<polygon fill="midnightblue" stroke="midnightblue" points="436.906,-183.665 426.312,-183.799 434.678,-190.301 436.906,-183.665"/>
</g>
<!-- Node29&#45;&gt;Node17 -->
<g id="edge45" class="edge"><title>Node29&#45;&gt;Node17</title>
<path fill="none" stroke="midnightblue" d="M432.225,-395.014C468.717,-388.01 518.728,-378.412 551.2,-372.18"/>
<polygon fill="midnightblue" stroke="midnightblue" points="431.477,-391.593 422.316,-396.916 432.797,-398.468 431.477,-391.593"/>
</g>
<!-- Node30&#45;&gt;Node17 -->
<g id="edge47" class="edge"><title>Node30&#45;&gt;Node17</title>
<path fill="none" stroke="midnightblue" d="M438.754,-365.885C474.573,-365.885 520.811,-365.885 551.384,-365.885"/>
<polygon fill="midnightblue" stroke="midnightblue" points="438.476,-362.385 428.476,-365.885 438.476,-369.385 438.476,-362.385"/>
</g>
<!-- Node31&#45;&gt;Node17 -->
<g id="edge49" class="edge"><title>Node31&#45;&gt;Node17</title>
<path fill="none" stroke="midnightblue" d="M269.609,-331.295C321.62,-334.345 396.093,-339.485 461,-346.885 491.807,-350.398 526.725,-355.943 551.465,-360.137"/>
<polygon fill="midnightblue" stroke="midnightblue" points="269.701,-327.795 259.516,-330.713 269.298,-334.783 269.701,-327.795"/>
</g>
<!-- Node32&#45;&gt;Node17 -->
<g id="edge51" class="edge"><title>Node32&#45;&gt;Node17</title>
<path fill="none" stroke="midnightblue" d="M254.763,-127.221C319.68,-114.748 427.691,-98.2619 461,-118.885 506.516,-147.066 566.309,-314.307 580.757,-356.316"/>
<polygon fill="midnightblue" stroke="midnightblue" points="253.875,-123.828 244.733,-129.182 255.218,-130.698 253.875,-123.828"/>
</g>
<!-- Node34 -->
<g id="node34" class="node"><title>Node34</title>
<g id="a_node34"><a xlink:href="wallet__tests_8cpp.html#a2a726fa52b0a343883cb50a3f68d0989" target="_top" xlink:title="BOOST_FIXTURE_TEST_CASE">
<polygon fill="white" stroke="black" points="508,-33.3853 508,-52.3853 662,-52.3853 662,-33.3853 508,-33.3853"/>
<text text-anchor="middle" x="585" y="-40.3853" font-family="Helvetica,sans-Serif" font-size="10.00">BOOST_FIXTURE_TEST_CASE</text>
</a>
</g>
</g>
<!-- Node33&#45;&gt;Node34 -->
<g id="edge53" class="edge"><title>Node33&#45;&gt;Node34</title>
<path fill="none" stroke="midnightblue" d="M432.974,-28.3929C455.271,-30.5326 482.487,-33.1442 507.642,-35.558"/>
<polygon fill="midnightblue" stroke="midnightblue" points="433.067,-24.8858 422.778,-27.4145 432.398,-31.8538 433.067,-24.8858"/>
</g>
<!-- Node35&#45;&gt;Node17 -->
<g id="edge55" class="edge"><title>Node35&#45;&gt;Node17</title>
<path fill="none" stroke="midnightblue" d="M433.947,-260.911C443.17,-263.508 452.574,-266.785 461,-270.885 508.31,-293.907 554.913,-336.977 574.436,-356.196"/>
<polygon fill="midnightblue" stroke="midnightblue" points="434.624,-257.471 424.066,-258.352 432.869,-264.247 434.624,-257.471"/>
</g>
<!-- Node36&#45;&gt;Node34 -->
<g id="edge57" class="edge"><title>Node36&#45;&gt;Node34</title>
<path fill="none" stroke="midnightblue" d="M430.983,-57.5688C453.736,-55.3854 481.976,-52.6755 507.978,-50.1804"/>
<polygon fill="midnightblue" stroke="midnightblue" points="430.563,-54.0929 420.943,-58.5322 431.231,-61.0609 430.563,-54.0929"/>
</g>
<!-- Node37&#45;&gt;Node15 -->
<g id="edge65" class="edge"><title>Node37&#45;&gt;Node15</title>
<path fill="none" stroke="midnightblue" d="M220.889,-230.91C237.366,-248.7 261.567,-278.246 273,-308.885 338.033,-483.17 218.549,-563.333 309,-725.885 321.01,-747.469 345.199,-763.164 362.87,-772.354"/>
<polygon fill="midnightblue" stroke="midnightblue" points="223.365,-228.434 213.936,-223.601 218.293,-233.259 223.365,-228.434"/>
</g>
<!-- Node37&#45;&gt;Node16 -->
<g id="edge66" class="edge"><title>Node37&#45;&gt;Node16</title>
<path fill="none" stroke="midnightblue" d="M227.469,-228.84C248.226,-241.519 279.684,-259.423 309,-270.885 318.883,-274.75 329.808,-278.038 340.192,-280.738"/>
<polygon fill="midnightblue" stroke="midnightblue" points="229.074,-225.717 218.73,-223.424 225.386,-231.667 229.074,-225.717"/>
</g>
<!-- Node37&#45;&gt;Node17 -->
<g id="edge68" class="edge"><title>Node37&#45;&gt;Node17</title>
<path fill="none" stroke="midnightblue" d="M277.616,-205.415C331.102,-202.479 403.827,-205.33 461,-232.885 519.647,-261.151 563.871,-330.664 578.652,-356.239"/>
<polygon fill="midnightblue" stroke="midnightblue" points="277.285,-201.928 267.524,-206.049 277.724,-208.915 277.285,-201.928"/>
</g>
<!-- Node37&#45;&gt;Node18 -->
<g id="edge67" class="edge"><title>Node37&#45;&gt;Node18</title>
<path fill="none" stroke="midnightblue" d="M220.802,-230.942C237.211,-248.758 261.36,-278.325 273,-308.885 301.617,-384.019 263.554,-602.563 309,-668.885 318.324,-682.492 334.029,-691.49 348.666,-697.297"/>
<polygon fill="midnightblue" stroke="midnightblue" points="223.295,-228.483 213.881,-223.622 218.208,-233.293 223.295,-228.483"/>
</g>
<!-- Node37&#45;&gt;Node28 -->
<g id="edge59" class="edge"><title>Node37&#45;&gt;Node28</title>
<path fill="none" stroke="midnightblue" d="M259.231,-202.226C286.537,-196.461 318.89,-189.631 343.808,-184.37"/>
<polygon fill="midnightblue" stroke="midnightblue" points="258.483,-198.806 249.422,-204.296 259.929,-205.655 258.483,-198.806"/>
</g>
<!-- Node37&#45;&gt;Node33 -->
<g id="edge60" class="edge"><title>Node37&#45;&gt;Node33</title>
<path fill="none" stroke="midnightblue" d="M228.924,-198.615C243.639,-188.443 261.564,-173.85 273,-156.885 302.698,-112.827 270.36,-79.3553 309,-42.8853 319.257,-33.2046 333.717,-28.2688 347.207,-25.8141"/>
<polygon fill="midnightblue" stroke="midnightblue" points="226.663,-195.915 220.264,-204.36 230.532,-201.749 226.663,-195.915"/>
</g>
<!-- Node37&#45;&gt;Node35 -->
<g id="edge61" class="edge"><title>Node37&#45;&gt;Node35</title>
<path fill="none" stroke="midnightblue" d="M259.483,-225.598C287.507,-231.514 320.792,-238.541 345.895,-243.841"/>
<polygon fill="midnightblue" stroke="midnightblue" points="259.929,-222.115 249.422,-223.474 258.483,-228.964 259.929,-222.115"/>
</g>
<!-- Node37&#45;&gt;Node36 -->
<g id="edge62" class="edge"><title>Node37&#45;&gt;Node36</title>
<path fill="none" stroke="midnightblue" d="M224.641,-197.92C238.65,-186.825 257.392,-171.467 273,-156.885 290,-141.003 291.682,-134.419 309,-118.885 329.088,-100.867 354.438,-82.3964 369.922,-71.5418"/>
<polygon fill="midnightblue" stroke="midnightblue" points="222.304,-195.305 216.6,-204.233 226.627,-200.811 222.304,-195.305"/>
</g>
<!-- Node38 -->
<g id="node38" class="node"><title>Node38</title>
<g id="a_node38"><a xlink:href="wallet__tests_8cpp.html#af0e3c9469f1d8f368d3d5f38e5580367" target="_top" xlink:title="importmulti">
<polygon fill="white" stroke="black" points="349,-128.385 349,-147.385 421,-147.385 421,-128.385 349,-128.385"/>
<text text-anchor="middle" x="385" y="-135.385" font-family="Helvetica,sans-Serif" font-size="10.00">importmulti</text>
</a>
</g>
</g>
<!-- Node37&#45;&gt;Node38 -->
<g id="edge63" class="edge"><title>Node37&#45;&gt;Node38</title>
<path fill="none" stroke="midnightblue" d="M227.469,-198.931C248.226,-186.251 279.684,-168.348 309,-156.885 321.635,-151.945 335.974,-147.945 348.706,-144.913"/>
<polygon fill="midnightblue" stroke="midnightblue" points="225.386,-196.104 218.73,-204.347 229.074,-202.054 225.386,-196.104"/>
</g>
<!-- Node39 -->
<g id="node39" class="node"><title>Node39</title>
<g id="a_node39"><a xlink:href="wallet__tests_8cpp.html#acc117bb030f4fc677e16addf014e9908" target="_top" xlink:title="BOOST_FIXTURE_TEST_CASE">
<polygon fill="white" stroke="black" points="508,-128.385 508,-147.385 662,-147.385 662,-128.385 508,-128.385"/>
<text text-anchor="middle" x="585" y="-135.385" font-family="Helvetica,sans-Serif" font-size="10.00">BOOST_FIXTURE_TEST_CASE</text>
</a>
</g>
</g>
<!-- Node38&#45;&gt;Node39 -->
<g id="edge64" class="edge"><title>Node38&#45;&gt;Node39</title>
<path fill="none" stroke="midnightblue" d="M431.403,-137.885C454.058,-137.885 482.073,-137.885 507.89,-137.885"/>
<polygon fill="midnightblue" stroke="midnightblue" points="431.398,-134.385 421.398,-137.885 431.398,-141.385 431.398,-134.385"/>
</g>
<!-- Node41&#45;&gt;Node17 -->
<g id="edge74" class="edge"><title>Node41&#45;&gt;Node17</title>
<path fill="none" stroke="midnightblue" d="M262.933,-535.995C317.266,-533.81 398.686,-524.604 461,-491.885 516.485,-462.752 561.981,-399.48 577.906,-375.426"/>
<polygon fill="midnightblue" stroke="midnightblue" points="262.655,-532.502 252.778,-536.334 262.889,-539.498 262.655,-532.502"/>
</g>
<!-- Node42&#45;&gt;Node17 -->
<g id="edge76" class="edge"><title>Node42&#45;&gt;Node17</title>
<path fill="none" stroke="midnightblue" d="M257.451,-498.032C310.956,-496.405 394.642,-488.966 461,-460.885 509.952,-440.17 556.402,-395.08 575.212,-375.397"/>
<polygon fill="midnightblue" stroke="midnightblue" points="257.078,-494.54 247.167,-498.284 257.25,-501.538 257.078,-494.54"/>
</g>
</g>
</svg>
