<?xml version="1.0" encoding="UTF-8" standalone="no"?>
<!DOCTYPE svg PUBLIC "-//W3C//DTD SVG 1.1//EN"
 "http://www.w3.org/Graphics/SVG/1.1/DTD/svg11.dtd">
<!-- Generated by graphviz version 2.49.3 (0)
 -->
<!-- Title: InsecureRandBits Pages: 1 -->
<svg width="467pt" height="291pt"
 viewBox="0.00 0.00 467.00 290.50" xmlns="http://www.w3.org/2000/svg" xmlns:xlink="http://www.w3.org/1999/xlink">
<g id="graph0" class="graph" transform="scale(1 1) rotate(0) translate(4 286.5)">
<title>InsecureRandBits</title>
<polygon fill="white" stroke="transparent" points="-4,4 -4,-286.5 463,-286.5 463,4 -4,4"/>
<!-- Node1 -->
<g id="node1" class="node">
<title>Node1</title>
<g id="a_node1"><a xlink:title=" ">
<polygon fill="#bfbfbf" stroke="black" points="358,-137 358,-156 459,-156 459,-137 358,-137"/>
<text text-anchor="middle" x="408.5" y="-144" font-family="Helvetica,sans-Serif" font-size="10.00">InsecureRandBits</text>
</a>
</g>
</g>
<!-- Node2 -->
<g id="node2" class="node">
<title>Node2</title>
<g id="a_node2"><a xlink:href="base58__tests_8cpp.html#a5aeba58ef70b8a53e0c58e70ac6d8598" target="_top" xlink:title=" ">
<polygon fill="white" stroke="black" points="179,-263 179,-282 322,-282 322,-263 179,-263"/>
<text text-anchor="middle" x="250.5" y="-270" font-family="Helvetica,sans-Serif" font-size="10.00">BOOST_AUTO_TEST_CASE</text>
</a>
</g>
</g>
<!-- Node1&#45;&gt;Node2 -->
<g id="edge1" class="edge">
<title>Node1&#45;&gt;Node2</title>
<path fill="none" stroke="midnightblue" d="M397.67,-165.05C383.95,-189.12 356.79,-230.71 322,-253.5 316.06,-257.39 309.35,-260.49 302.48,-262.95"/>
<polygon fill="midnightblue" stroke="midnightblue" points="400.79,-166.64 402.56,-156.2 394.66,-163.26 400.79,-166.64"/>
</g>
<!-- Node3 -->
<g id="node3" class="node">
<title>Node3</title>
<g id="a_node3"><a xlink:href="class_c_partial_merkle_tree_tester.html#a16ba9afcb58236df8fdf58cd545a4110" target="_top" xlink:title=" ">
<polygon fill="white" stroke="black" points="182,-213.5 182,-243.5 319,-243.5 319,-213.5 182,-213.5"/>
<text text-anchor="start" x="190" y="-231.5" font-family="Helvetica,sans-Serif" font-size="10.00">CPartialMerkleTreeTester</text>
<text text-anchor="middle" x="250.5" y="-220.5" font-family="Helvetica,sans-Serif" font-size="10.00">::Damage</text>
</a>
</g>
</g>
<!-- Node1&#45;&gt;Node3 -->
<g id="edge2" class="edge">
<title>Node1&#45;&gt;Node3</title>
<path fill="none" stroke="midnightblue" d="M386.89,-162.36C370.1,-174.75 345.42,-191.77 322,-203.5 314.8,-207.11 306.95,-210.43 299.2,-213.4"/>
<polygon fill="midnightblue" stroke="midnightblue" points="389.44,-164.82 395.35,-156.02 385.24,-159.22 389.44,-164.82"/>
</g>
<!-- Node5 -->
<g id="node5" class="node">
<title>Node5</title>
<g id="a_node5"><a xlink:href="script__tests_8cpp.html#a74d547b207408b1cca38ceadd5c5400c" target="_top" xlink:title=" ">
<polygon fill="white" stroke="black" points="225.5,-175 225.5,-194 275.5,-194 275.5,-175 225.5,-175"/>
<text text-anchor="middle" x="250.5" y="-182" font-family="Helvetica,sans-Serif" font-size="10.00">DoTest</text>
</a>
</g>
</g>
<!-- Node1&#45;&gt;Node5 -->
<g id="edge4" class="edge">
<title>Node1&#45;&gt;Node5</title>
<path fill="none" stroke="midnightblue" d="M358.29,-158.49C330.79,-165.19 297.73,-173.24 275.76,-178.59"/>
<polygon fill="midnightblue" stroke="midnightblue" points="359.25,-161.86 368.13,-156.09 357.59,-155.06 359.25,-161.86"/>
</g>
<!-- Node7 -->
<g id="node7" class="node">
<title>Node7</title>
<g id="a_node7"><a xlink:href="sighash__tests_8cpp.html#aa77837bcfc6faae3b1f24301193dc2d4" target="_top" xlink:title=" ">
<polygon fill="white" stroke="black" points="194,-137 194,-156 307,-156 307,-137 194,-137"/>
<text text-anchor="middle" x="250.5" y="-144" font-family="Helvetica,sans-Serif" font-size="10.00">RandomTransaction</text>
</a>
</g>
</g>
<!-- Node1&#45;&gt;Node7 -->
<g id="edge6" class="edge">
<title>Node1&#45;&gt;Node7</title>
<path fill="none" stroke="midnightblue" d="M347.67,-146.5C334.32,-146.5 320.21,-146.5 307.04,-146.5"/>
<polygon fill="midnightblue" stroke="midnightblue" points="347.71,-150 357.71,-146.5 347.71,-143 347.71,-150"/>
</g>
<!-- Node9 -->
<g id="node9" class="node">
<title>Node9</title>
<g id="a_node9"><a xlink:href="coins__tests_8cpp.html#acf33aeacb890c07f3c6326c77bc96161" target="_top" xlink:title=" ">
<polygon fill="white" stroke="black" points="206,-99 206,-118 295,-118 295,-99 206,-99"/>
<text text-anchor="middle" x="250.5" y="-106" font-family="Helvetica,sans-Serif" font-size="10.00">SimulationTest</text>
</a>
</g>
</g>
<!-- Node1&#45;&gt;Node9 -->
<g id="edge8" class="edge">
<title>Node1&#45;&gt;Node9</title>
<path fill="none" stroke="midnightblue" d="M358.37,-134.53C336.51,-129.21 311.12,-123.02 290.58,-118.02"/>
<polygon fill="midnightblue" stroke="midnightblue" points="357.59,-137.94 368.13,-136.91 359.25,-131.14 357.59,-137.94"/>
</g>
<!-- Node11 -->
<g id="node11" class="node">
<title>Node11</title>
<g id="a_node11"><a xlink:href="class_version_bits_tester.html#a05b3967e52f27c50bfe28800ba72db04" target="_top" xlink:title=" ">
<polygon fill="white" stroke="black" points="197,-49.5 197,-79.5 304,-79.5 304,-49.5 197,-49.5"/>
<text text-anchor="start" x="205" y="-67.5" font-family="Helvetica,sans-Serif" font-size="10.00">VersionBitsTester::</text>
<text text-anchor="middle" x="250.5" y="-56.5" font-family="Helvetica,sans-Serif" font-size="10.00">TestState</text>
</a>
</g>
</g>
<!-- Node1&#45;&gt;Node11 -->
<g id="edge10" class="edge">
<title>Node1&#45;&gt;Node11</title>
<path fill="none" stroke="midnightblue" d="M386.89,-130.64C370.1,-118.25 345.42,-101.23 322,-89.5 314.8,-85.89 306.95,-82.57 299.2,-79.6"/>
<polygon fill="midnightblue" stroke="midnightblue" points="385.24,-133.78 395.35,-136.98 389.44,-128.18 385.24,-133.78"/>
</g>
<!-- Node12 -->
<g id="node12" class="node">
<title>Node12</title>
<g id="a_node12"><a xlink:href="class_version_bits_tester.html#af628cd23021715a2d3caea0c1569c9e5" target="_top" xlink:title=" ">
<polygon fill="white" stroke="black" points="190.5,-0.5 190.5,-30.5 310.5,-30.5 310.5,-0.5 190.5,-0.5"/>
<text text-anchor="start" x="198.5" y="-18.5" font-family="Helvetica,sans-Serif" font-size="10.00">VersionBitsTester::</text>
<text text-anchor="middle" x="250.5" y="-7.5" font-family="Helvetica,sans-Serif" font-size="10.00">TestStateSinceHeight</text>
</a>
</g>
</g>
<!-- Node1&#45;&gt;Node12 -->
<g id="edge11" class="edge">
<title>Node1&#45;&gt;Node12</title>
<path fill="none" stroke="midnightblue" d="M397.44,-128.29C383.47,-104.59 356.03,-63.41 322,-39.5 317.13,-36.08 311.74,-33.12 306.16,-30.55"/>
<polygon fill="midnightblue" stroke="midnightblue" points="394.42,-130.06 402.43,-136.99 400.5,-126.58 394.42,-130.06"/>
</g>
<!-- Node4 -->
<g id="node4" class="node">
<title>Node4</title>
<g id="a_node4"><a xlink:href="pmt__tests_8cpp.html#a703fa61d302c79b01d5bf7f15398ce64" target="_top" xlink:title=" ">
<polygon fill="white" stroke="black" points="0,-219 0,-238 143,-238 143,-219 0,-219"/>
<text text-anchor="middle" x="71.5" y="-226" font-family="Helvetica,sans-Serif" font-size="10.00">BOOST_AUTO_TEST_CASE</text>
</a>
</g>
</g>
<!-- Node3&#45;&gt;Node4 -->
<g id="edge3" class="edge">
<title>Node3&#45;&gt;Node4</title>
<path fill="none" stroke="midnightblue" d="M171.61,-228.5C162.11,-228.5 152.45,-228.5 143.07,-228.5"/>
<polygon fill="midnightblue" stroke="midnightblue" points="171.83,-232 181.83,-228.5 171.83,-225 171.83,-232"/>
</g>
<!-- Node6 -->
<g id="node6" class="node">
<title>Node6</title>
<g id="a_node6"><a xlink:href="script__tests_8cpp.html#a6187c433c9b91f38c29448be9c7daa79" target="_top" xlink:title=" ">
<polygon fill="white" stroke="black" points="0,-175 0,-194 143,-194 143,-175 0,-175"/>
<text text-anchor="middle" x="71.5" y="-182" font-family="Helvetica,sans-Serif" font-size="10.00">BOOST_AUTO_TEST_CASE</text>
</a>
</g>
</g>
<!-- Node5&#45;&gt;Node6 -->
<g id="edge5" class="edge">
<title>Node5&#45;&gt;Node6</title>
<path fill="none" stroke="midnightblue" d="M215.2,-184.5C194.79,-184.5 168.13,-184.5 143.39,-184.5"/>
<polygon fill="midnightblue" stroke="midnightblue" points="215.26,-188 225.26,-184.5 215.26,-181 215.26,-188"/>
</g>
<!-- Node8 -->
<g id="node8" class="node">
<title>Node8</title>
<g id="a_node8"><a xlink:href="sighash__tests_8cpp.html#aa971a51f18b5c3be6ac1c08ba6c1a2dd" target="_top" xlink:title=" ">
<polygon fill="white" stroke="black" points="0,-137 0,-156 143,-156 143,-137 0,-137"/>
<text text-anchor="middle" x="71.5" y="-144" font-family="Helvetica,sans-Serif" font-size="10.00">BOOST_AUTO_TEST_CASE</text>
</a>
</g>
</g>
<!-- Node7&#45;&gt;Node8 -->
<g id="edge7" class="edge">
<title>Node7&#45;&gt;Node8</title>
<path fill="none" stroke="midnightblue" d="M183.97,-146.5C170.66,-146.5 156.6,-146.5 143.12,-146.5"/>
<polygon fill="midnightblue" stroke="midnightblue" points="183.98,-150 193.98,-146.5 183.98,-143 183.98,-150"/>
</g>
<!-- Node10 -->
<g id="node10" class="node">
<title>Node10</title>
<g id="a_node10"><a xlink:href="coins__tests_8cpp.html#aa662f4d14ca07b95ddf6d7e2d224e4e4" target="_top" xlink:title=" ">
<polygon fill="white" stroke="black" points="0,-99 0,-118 143,-118 143,-99 0,-99"/>
<text text-anchor="middle" x="71.5" y="-106" font-family="Helvetica,sans-Serif" font-size="10.00">BOOST_AUTO_TEST_CASE</text>
</a>
</g>
</g>
<!-- Node9&#45;&gt;Node10 -->
<g id="edge9" class="edge">
<title>Node9&#45;&gt;Node10</title>
<path fill="none" stroke="midnightblue" d="M195.74,-108.5C179.22,-108.5 160.78,-108.5 143.3,-108.5"/>
<polygon fill="midnightblue" stroke="midnightblue" points="195.75,-112 205.75,-108.5 195.75,-105 195.75,-112"/>
</g>
</g>
</svg>
