<?xml version="1.0" encoding="UTF-8" standalone="no"?>
<!DOCTYPE svg PUBLIC "-//W3C//DTD SVG 1.1//EN"
 "http://www.w3.org/Graphics/SVG/1.1/DTD/svg11.dtd">
<!-- Generated by graphviz version 2.49.3 (0)
 -->
<!-- Title: src/crypto/sha1.cpp Pages: 1 -->
<svg width="875pt" height="252pt"
 viewBox="0.00 0.00 874.50 252.00" xmlns="http://www.w3.org/2000/svg" xmlns:xlink="http://www.w3.org/1999/xlink">
<g id="graph0" class="graph" transform="scale(1 1) rotate(0) translate(4 248)">
<title>src/crypto/sha1.cpp</title>
<polygon fill="white" stroke="transparent" points="-4,4 -4,-248 870.5,-248 870.5,4 -4,4"/>
<!-- Node1 -->
<g id="node1" class="node">
<title>Node1</title>
<g id="a_node1"><a xlink:title=" ">
<polygon fill="#bfbfbf" stroke="black" points="164,-224.5 164,-243.5 275,-243.5 275,-224.5 164,-224.5"/>
<text text-anchor="middle" x="219.5" y="-231.5" font-family="Helvetica,sans-Serif" font-size="10.00">src/crypto/sha1.cpp</text>
</a>
</g>
</g>
<!-- Node2 -->
<g id="node2" class="node">
<title>Node2</title>
<g id="a_node2"><a xlink:href="sha1_8h.html" target="_top" xlink:title=" ">
<polygon fill="white" stroke="black" points="40,-168.5 40,-187.5 123,-187.5 123,-168.5 40,-168.5"/>
<text text-anchor="middle" x="81.5" y="-175.5" font-family="Helvetica,sans-Serif" font-size="10.00">crypto/sha1.h</text>
</a>
</g>
</g>
<!-- Node1&#45;&gt;Node2 -->
<g id="edge1" class="edge">
<title>Node1&#45;&gt;Node2</title>
<path fill="none" stroke="midnightblue" d="M197.63,-224.44C174.72,-215.48 138.52,-201.31 112.63,-191.18"/>
<polygon fill="midnightblue" stroke="midnightblue" points="113.85,-187.9 103.26,-187.52 111.3,-194.42 113.85,-187.9"/>
</g>
<!-- Node5 -->
<g id="node5" class="node">
<title>Node5</title>
<g id="a_node5"><a xlink:href="crypto_2common_8h.html" target="_top" xlink:title=" ">
<polygon fill="white" stroke="black" points="168.5,-168.5 168.5,-187.5 270.5,-187.5 270.5,-168.5 168.5,-168.5"/>
<text text-anchor="middle" x="219.5" y="-175.5" font-family="Helvetica,sans-Serif" font-size="10.00">crypto/common.h</text>
</a>
</g>
</g>
<!-- Node1&#45;&gt;Node5 -->
<g id="edge4" class="edge">
<title>Node1&#45;&gt;Node5</title>
<path fill="none" stroke="midnightblue" d="M219.5,-224.08C219.5,-217.01 219.5,-206.86 219.5,-197.99"/>
<polygon fill="midnightblue" stroke="midnightblue" points="223,-197.75 219.5,-187.75 216,-197.75 223,-197.75"/>
</g>
<!-- Node6 -->
<g id="node6" class="node">
<title>Node6</title>
<g id="a_node6"><a xlink:href="string_8h.html" target="_top" xlink:title=" ">
<polygon fill="white" stroke="black" points="483,-112.5 483,-131.5 536,-131.5 536,-112.5 483,-112.5"/>
<text text-anchor="middle" x="509.5" y="-119.5" font-family="Helvetica,sans-Serif" font-size="10.00">string.h</text>
</a>
</g>
</g>
<!-- Node1&#45;&gt;Node6 -->
<g id="edge19" class="edge">
<title>Node1&#45;&gt;Node6</title>
<path fill="none" stroke="midnightblue" d="M242.26,-224.37C293.5,-204.93 418.09,-157.67 477.26,-135.23"/>
<polygon fill="midnightblue" stroke="midnightblue" points="478.74,-138.41 486.85,-131.59 476.26,-131.87 478.74,-138.41"/>
</g>
<!-- Node3 -->
<g id="node3" class="node">
<title>Node3</title>
<g id="a_node3"><a xlink:title=" ">
<polygon fill="white" stroke="#bfbfbf" points="112,-0.5 112,-19.5 165,-19.5 165,-0.5 112,-0.5"/>
<text text-anchor="middle" x="138.5" y="-7.5" font-family="Helvetica,sans-Serif" font-size="10.00">stdint.h</text>
</a>
</g>
</g>
<!-- Node2&#45;&gt;Node3 -->
<g id="edge2" class="edge">
<title>Node2&#45;&gt;Node3</title>
<path fill="none" stroke="midnightblue" d="M81.93,-168.41C83.21,-148.04 88.09,-95.6 105.5,-56 110.02,-45.71 117.23,-35.5 123.75,-27.42"/>
<polygon fill="midnightblue" stroke="midnightblue" points="126.6,-29.46 130.4,-19.57 121.27,-24.94 126.6,-29.46"/>
</g>
<!-- Node4 -->
<g id="node4" class="node">
<title>Node4</title>
<g id="a_node4"><a xlink:title=" ">
<polygon fill="white" stroke="#bfbfbf" points="0,-112.5 0,-131.5 53,-131.5 53,-112.5 0,-112.5"/>
<text text-anchor="middle" x="26.5" y="-119.5" font-family="Helvetica,sans-Serif" font-size="10.00">stdlib.h</text>
</a>
</g>
</g>
<!-- Node2&#45;&gt;Node4 -->
<g id="edge3" class="edge">
<title>Node2&#45;&gt;Node4</title>
<path fill="none" stroke="midnightblue" d="M72.42,-168.08C64.33,-160.14 52.3,-148.34 42.59,-138.8"/>
<polygon fill="midnightblue" stroke="midnightblue" points="45,-136.26 35.41,-131.75 40.1,-141.25 45,-136.26"/>
</g>
<!-- Node5&#45;&gt;Node3 -->
<g id="edge5" class="edge">
<title>Node5&#45;&gt;Node3</title>
<path fill="none" stroke="midnightblue" d="M202.77,-168.48C189.44,-160.78 171.42,-148.2 161.5,-132 141.93,-100.04 138.38,-55.14 138.08,-29.98"/>
<polygon fill="midnightblue" stroke="midnightblue" points="141.58,-29.67 138.13,-19.65 134.58,-29.63 141.58,-29.67"/>
</g>
<!-- Node5&#45;&gt;Node6 -->
<g id="edge6" class="edge">
<title>Node5&#45;&gt;Node6</title>
<path fill="none" stroke="midnightblue" d="M265.45,-168.44C322.95,-157.74 420.24,-139.62 472.95,-129.81"/>
<polygon fill="midnightblue" stroke="midnightblue" points="473.68,-133.23 482.87,-127.96 472.39,-126.35 473.68,-133.23"/>
</g>
<!-- Node15 -->
<g id="node15" class="node">
<title>Node15</title>
<g id="a_node15"><a xlink:href="endian_8h.html" target="_top" xlink:title=" ">
<polygon fill="white" stroke="black" points="170.5,-112.5 170.5,-131.5 268.5,-131.5 268.5,-112.5 170.5,-112.5"/>
<text text-anchor="middle" x="219.5" y="-119.5" font-family="Helvetica,sans-Serif" font-size="10.00">compat/endian.h</text>
</a>
</g>
</g>
<!-- Node5&#45;&gt;Node15 -->
<g id="edge15" class="edge">
<title>Node5&#45;&gt;Node15</title>
<path fill="none" stroke="midnightblue" d="M219.5,-168.08C219.5,-161.01 219.5,-150.86 219.5,-141.99"/>
<polygon fill="midnightblue" stroke="midnightblue" points="223,-141.75 219.5,-131.75 216,-141.75 223,-141.75"/>
</g>
<!-- Node7 -->
<g id="node7" class="node">
<title>Node7</title>
<g id="a_node7"><a xlink:href="attributes_8h.html" target="_top" xlink:title=" ">
<polygon fill="white" stroke="black" points="583,-56.5 583,-75.5 656,-75.5 656,-56.5 583,-56.5"/>
<text text-anchor="middle" x="619.5" y="-63.5" font-family="Helvetica,sans-Serif" font-size="10.00">attributes.h</text>
</a>
</g>
</g>
<!-- Node6&#45;&gt;Node7 -->
<g id="edge7" class="edge">
<title>Node6&#45;&gt;Node7</title>
<path fill="none" stroke="midnightblue" d="M527.17,-112.32C544.89,-103.62 572.4,-90.12 592.79,-80.11"/>
<polygon fill="midnightblue" stroke="midnightblue" points="594.44,-83.2 601.87,-75.65 591.35,-76.92 594.44,-83.2"/>
</g>
<!-- Node8 -->
<g id="node8" class="node">
<title>Node8</title>
<g id="a_node8"><a xlink:title=" ">
<polygon fill="white" stroke="#bfbfbf" points="674.5,-56.5 674.5,-75.5 738.5,-75.5 738.5,-56.5 674.5,-56.5"/>
<text text-anchor="middle" x="706.5" y="-63.5" font-family="Helvetica,sans-Serif" font-size="10.00">algorithm</text>
</a>
</g>
</g>
<!-- Node6&#45;&gt;Node8 -->
<g id="edge8" class="edge">
<title>Node6&#45;&gt;Node8</title>
<path fill="none" stroke="midnightblue" d="M536.07,-113.72C569.23,-104.63 626.32,-88.98 665.2,-78.32"/>
<polygon fill="midnightblue" stroke="midnightblue" points="666.44,-81.61 675.16,-75.59 664.59,-74.86 666.44,-81.61"/>
</g>
<!-- Node9 -->
<g id="node9" class="node">
<title>Node9</title>
<g id="a_node9"><a xlink:title=" ">
<polygon fill="white" stroke="#bfbfbf" points="756.5,-56.5 756.5,-75.5 798.5,-75.5 798.5,-56.5 756.5,-56.5"/>
<text text-anchor="middle" x="777.5" y="-63.5" font-family="Helvetica,sans-Serif" font-size="10.00">array</text>
</a>
</g>
</g>
<!-- Node6&#45;&gt;Node9 -->
<g id="edge9" class="edge">
<title>Node6&#45;&gt;Node9</title>
<path fill="none" stroke="midnightblue" d="M536.11,-116.9C578.58,-110.16 664.46,-95.72 746.31,-76.09"/>
<polygon fill="midnightblue" stroke="midnightblue" points="747.38,-79.43 756.27,-73.67 745.73,-72.63 747.38,-79.43"/>
</g>
<!-- Node10 -->
<g id="node10" class="node">
<title>Node10</title>
<g id="a_node10"><a xlink:title=" ">
<polygon fill="white" stroke="#bfbfbf" points="816.5,-56.5 816.5,-75.5 866.5,-75.5 866.5,-56.5 816.5,-56.5"/>
<text text-anchor="middle" x="841.5" y="-63.5" font-family="Helvetica,sans-Serif" font-size="10.00">cstring</text>
</a>
</g>
</g>
<!-- Node6&#45;&gt;Node10 -->
<g id="edge10" class="edge">
<title>Node6&#45;&gt;Node10</title>
<path fill="none" stroke="midnightblue" d="M536.39,-117.94C587.25,-111.93 701.19,-97.45 806.49,-76.02"/>
<polygon fill="midnightblue" stroke="midnightblue" points="807.23,-79.44 816.32,-73.99 805.82,-72.58 807.23,-79.44"/>
</g>
<!-- Node11 -->
<g id="node11" class="node">
<title>Node11</title>
<g id="a_node11"><a xlink:title=" ">
<polygon fill="white" stroke="#bfbfbf" points="317.5,-56.5 317.5,-75.5 363.5,-75.5 363.5,-56.5 317.5,-56.5"/>
<text text-anchor="middle" x="340.5" y="-63.5" font-family="Helvetica,sans-Serif" font-size="10.00">locale</text>
</a>
</g>
</g>
<!-- Node6&#45;&gt;Node11 -->
<g id="edge11" class="edge">
<title>Node6&#45;&gt;Node11</title>
<path fill="none" stroke="midnightblue" d="M482.72,-112.44C453.08,-102.97 405.27,-87.7 373.38,-77.5"/>
<polygon fill="midnightblue" stroke="midnightblue" points="374.21,-74.1 363.62,-74.39 372.08,-80.77 374.21,-74.1"/>
</g>
<!-- Node12 -->
<g id="node12" class="node">
<title>Node12</title>
<g id="a_node12"><a xlink:title=" ">
<polygon fill="white" stroke="#bfbfbf" points="381.5,-56.5 381.5,-75.5 437.5,-75.5 437.5,-56.5 381.5,-56.5"/>
<text text-anchor="middle" x="409.5" y="-63.5" font-family="Helvetica,sans-Serif" font-size="10.00">sstream</text>
</a>
</g>
</g>
<!-- Node6&#45;&gt;Node12 -->
<g id="edge12" class="edge">
<title>Node6&#45;&gt;Node12</title>
<path fill="none" stroke="midnightblue" d="M493.43,-112.32C477.54,-103.74 452.99,-90.49 434.54,-80.52"/>
<polygon fill="midnightblue" stroke="midnightblue" points="435.99,-77.33 425.53,-75.65 432.66,-83.49 435.99,-77.33"/>
</g>
<!-- Node13 -->
<g id="node13" class="node">
<title>Node13</title>
<g id="a_node13"><a xlink:title=" ">
<polygon fill="white" stroke="#bfbfbf" points="455.5,-56.5 455.5,-75.5 499.5,-75.5 499.5,-56.5 455.5,-56.5"/>
<text text-anchor="middle" x="477.5" y="-63.5" font-family="Helvetica,sans-Serif" font-size="10.00">string</text>
</a>
</g>
</g>
<!-- Node6&#45;&gt;Node13 -->
<g id="edge13" class="edge">
<title>Node6&#45;&gt;Node13</title>
<path fill="none" stroke="midnightblue" d="M504.22,-112.08C499.79,-104.61 493.34,-93.72 487.88,-84.52"/>
<polygon fill="midnightblue" stroke="midnightblue" points="490.79,-82.57 482.69,-75.75 484.77,-86.14 490.79,-82.57"/>
</g>
<!-- Node14 -->
<g id="node14" class="node">
<title>Node14</title>
<g id="a_node14"><a xlink:title=" ">
<polygon fill="white" stroke="#bfbfbf" points="518,-56.5 518,-75.5 565,-75.5 565,-56.5 518,-56.5"/>
<text text-anchor="middle" x="541.5" y="-63.5" font-family="Helvetica,sans-Serif" font-size="10.00">vector</text>
</a>
</g>
</g>
<!-- Node6&#45;&gt;Node14 -->
<g id="edge14" class="edge">
<title>Node6&#45;&gt;Node14</title>
<path fill="none" stroke="midnightblue" d="M514.78,-112.08C519.21,-104.61 525.66,-93.72 531.12,-84.52"/>
<polygon fill="midnightblue" stroke="midnightblue" points="534.23,-86.14 536.31,-75.75 528.21,-82.57 534.23,-86.14"/>
</g>
<!-- Node15&#45;&gt;Node3 -->
<g id="edge18" class="edge">
<title>Node15&#45;&gt;Node3</title>
<path fill="none" stroke="midnightblue" d="M209.94,-112.26C200.75,-103.58 186.78,-89.63 176.5,-76 165.21,-61.03 154.65,-42.43 147.53,-28.96"/>
<polygon fill="midnightblue" stroke="midnightblue" points="150.51,-27.1 142.81,-19.82 144.29,-30.31 150.51,-27.1"/>
</g>
<!-- Node16 -->
<g id="node16" class="node">
<title>Node16</title>
<g id="a_node16"><a xlink:href="byteswap_8h.html" target="_top" xlink:title=" ">
<polygon fill="white" stroke="black" points="186,-56.5 186,-75.5 299,-75.5 299,-56.5 186,-56.5"/>
<text text-anchor="middle" x="242.5" y="-63.5" font-family="Helvetica,sans-Serif" font-size="10.00">compat/byteswap.h</text>
</a>
</g>
</g>
<!-- Node15&#45;&gt;Node16 -->
<g id="edge16" class="edge">
<title>Node15&#45;&gt;Node16</title>
<path fill="none" stroke="midnightblue" d="M223.3,-112.08C226.41,-104.77 230.92,-94.18 234.79,-85.1"/>
<polygon fill="midnightblue" stroke="midnightblue" points="238.07,-86.32 238.77,-75.75 231.63,-83.58 238.07,-86.32"/>
</g>
<!-- Node16&#45;&gt;Node3 -->
<g id="edge17" class="edge">
<title>Node16&#45;&gt;Node3</title>
<path fill="none" stroke="midnightblue" d="M225.79,-56.32C209.19,-47.7 183.5,-34.36 164.28,-24.39"/>
<polygon fill="midnightblue" stroke="midnightblue" points="165.66,-21.16 155.17,-19.65 162.43,-27.37 165.66,-21.16"/>
</g>
</g>
</svg>
