<?xml version="1.0" encoding="UTF-8" standalone="no"?>
<!DOCTYPE svg PUBLIC "-//W3C//DTD SVG 1.1//EN"
 "http://www.w3.org/Graphics/SVG/1.1/DTD/svg11.dtd">
<!-- Generated by graphviz version 2.49.3 (0)
 -->
<!-- Title: src/script/sigcache.h Pages: 1 -->
<svg width="1055pt" height="95pt"
 viewBox="0.00 0.00 1054.50 95.00" xmlns="http://www.w3.org/2000/svg" xmlns:xlink="http://www.w3.org/1999/xlink">
<g id="graph0" class="graph" transform="scale(1 1) rotate(0) translate(4 91)">
<title>src/script/sigcache.h</title>
<polygon fill="white" stroke="transparent" points="-4,4 -4,-91 1050.5,-91 1050.5,4 -4,4"/>
<!-- Node1 -->
<g id="node1" class="node">
<title>Node1</title>
<g id="a_node1"><a xlink:title=" ">
<polygon fill="#bfbfbf" stroke="black" points="469,-67.5 469,-86.5 585,-86.5 585,-67.5 469,-67.5"/>
<text text-anchor="middle" x="527" y="-74.5" font-family="Helvetica,sans-Serif" font-size="10.00">src/script/sigcache.h</text>
</a>
</g>
</g>
<!-- Node2 -->
<g id="node2" class="node">
<title>Node2</title>
<g id="a_node2"><a xlink:href="init_8cpp.html" target="_top" xlink:title=" ">
<polygon fill="white" stroke="black" points="0,-6 0,-25 70,-25 70,-6 0,-6"/>
<text text-anchor="middle" x="35" y="-13" font-family="Helvetica,sans-Serif" font-size="10.00">src/init.cpp</text>
</a>
</g>
</g>
<!-- Node1&#45;&gt;Node2 -->
<g id="edge1" class="edge">
<title>Node1&#45;&gt;Node2</title>
<path fill="none" stroke="midnightblue" d="M458.56,-73.76C370.07,-69.81 211.58,-59.15 79,-31 72.08,-29.53 64.71,-27.36 58.03,-25.14"/>
<polygon fill="midnightblue" stroke="midnightblue" points="458.6,-77.27 468.74,-74.2 458.9,-70.27 458.6,-77.27"/>
</g>
<!-- Node3 -->
<g id="node3" class="node">
<title>Node3</title>
<g id="a_node3"><a xlink:href="sigcache_8cpp.html" target="_top" xlink:title=" ">
<polygon fill="white" stroke="black" points="88.5,-6 88.5,-25 215.5,-25 215.5,-6 88.5,-6"/>
<text text-anchor="middle" x="152" y="-13" font-family="Helvetica,sans-Serif" font-size="10.00">src/script/sigcache.cpp</text>
</a>
</g>
</g>
<!-- Node1&#45;&gt;Node3 -->
<g id="edge2" class="edge">
<title>Node1&#45;&gt;Node3</title>
<path fill="none" stroke="midnightblue" d="M459.03,-66.83C397.72,-58.32 305.15,-44.92 225,-31 214.69,-29.21 203.59,-27.1 193.24,-25.05"/>
<polygon fill="midnightblue" stroke="midnightblue" points="458.59,-70.3 468.97,-68.2 459.54,-63.36 458.59,-70.3"/>
</g>
<!-- Node4 -->
<g id="node4" class="node">
<title>Node4</title>
<g id="a_node4"><a xlink:href="cuckoocache__tests_8cpp.html" target="_top" xlink:title=" ">
<polygon fill="white" stroke="black" points="234,-0.5 234,-30.5 352,-30.5 352,-0.5 234,-0.5"/>
<text text-anchor="start" x="242" y="-18.5" font-family="Helvetica,sans-Serif" font-size="10.00">src/test/cuckoocache</text>
<text text-anchor="middle" x="293" y="-7.5" font-family="Helvetica,sans-Serif" font-size="10.00">_tests.cpp</text>
</a>
</g>
</g>
<!-- Node1&#45;&gt;Node4 -->
<g id="edge3" class="edge">
<title>Node1&#45;&gt;Node4</title>
<path fill="none" stroke="midnightblue" d="M483.67,-64.98C445.45,-55.27 389.55,-41.05 348.15,-30.52"/>
<polygon fill="midnightblue" stroke="midnightblue" points="482.92,-68.4 493.47,-67.48 484.64,-61.62 482.92,-68.4"/>
</g>
<!-- Node5 -->
<g id="node5" class="node">
<title>Node5</title>
<g id="a_node5"><a xlink:href="cuckoocache_8cpp.html" target="_top" xlink:title=" ">
<polygon fill="white" stroke="black" points="370.5,-6 370.5,-25 531.5,-25 531.5,-6 370.5,-6"/>
<text text-anchor="middle" x="451" y="-13" font-family="Helvetica,sans-Serif" font-size="10.00">src/test/fuzz/cuckoocache.cpp</text>
</a>
</g>
</g>
<!-- Node1&#45;&gt;Node5 -->
<g id="edge4" class="edge">
<title>Node1&#45;&gt;Node5</title>
<path fill="none" stroke="midnightblue" d="M508.22,-61.29C493.64,-49.88 473.94,-34.46 461.87,-25.01"/>
<polygon fill="midnightblue" stroke="midnightblue" points="506.08,-64.07 516.11,-67.48 510.39,-58.55 506.08,-64.07"/>
</g>
<!-- Node6 -->
<g id="node6" class="node">
<title>Node6</title>
<g id="a_node6"><a xlink:href="script__sigcache_8cpp.html" target="_top" xlink:title=" ">
<polygon fill="white" stroke="black" points="550,-0.5 550,-30.5 656,-30.5 656,-0.5 550,-0.5"/>
<text text-anchor="start" x="558" y="-18.5" font-family="Helvetica,sans-Serif" font-size="10.00">src/test/fuzz/script</text>
<text text-anchor="middle" x="603" y="-7.5" font-family="Helvetica,sans-Serif" font-size="10.00">_sigcache.cpp</text>
</a>
</g>
</g>
<!-- Node1&#45;&gt;Node6 -->
<g id="edge5" class="edge">
<title>Node1&#45;&gt;Node6</title>
<path fill="none" stroke="midnightblue" d="M545.91,-61.2C557.89,-51.81 573.3,-39.75 585.09,-30.52"/>
<polygon fill="midnightblue" stroke="midnightblue" points="543.61,-58.55 537.89,-67.48 547.92,-64.07 543.61,-58.55"/>
</g>
<!-- Node7 -->
<g id="node7" class="node">
<title>Node7</title>
<g id="a_node7"><a xlink:href="script__tests_8cpp.html" target="_top" xlink:title=" ">
<polygon fill="white" stroke="black" points="674,-6 674,-25 806,-25 806,-6 674,-6"/>
<text text-anchor="middle" x="740" y="-13" font-family="Helvetica,sans-Serif" font-size="10.00">src/test/script_tests.cpp</text>
</a>
</g>
</g>
<!-- Node1&#45;&gt;Node7 -->
<g id="edge6" class="edge">
<title>Node1&#45;&gt;Node7</title>
<path fill="none" stroke="midnightblue" d="M567.28,-64.75C608.66,-53.19 672.16,-35.45 709.54,-25.01"/>
<polygon fill="midnightblue" stroke="midnightblue" points="566.21,-61.41 557.52,-67.48 568.09,-68.16 566.21,-61.41"/>
</g>
<!-- Node8 -->
<g id="node8" class="node">
<title>Node8</title>
<g id="a_node8"><a xlink:href="setup__common_8cpp.html" target="_top" xlink:title=" ">
<polygon fill="white" stroke="black" points="824.5,-0.5 824.5,-30.5 925.5,-30.5 925.5,-0.5 824.5,-0.5"/>
<text text-anchor="start" x="832.5" y="-18.5" font-family="Helvetica,sans-Serif" font-size="10.00">src/test/util/setup</text>
<text text-anchor="middle" x="875" y="-7.5" font-family="Helvetica,sans-Serif" font-size="10.00">_common.cpp</text>
</a>
</g>
</g>
<!-- Node1&#45;&gt;Node8 -->
<g id="edge7" class="edge">
<title>Node1&#45;&gt;Node8</title>
<path fill="none" stroke="midnightblue" d="M595.4,-66.93C653.93,-58.78 740.31,-45.83 815,-31 818.05,-30.39 821.18,-29.74 824.33,-29.06"/>
<polygon fill="midnightblue" stroke="midnightblue" points="594.59,-63.5 585.17,-68.34 595.55,-70.44 594.59,-63.5"/>
</g>
<!-- Node9 -->
<g id="node9" class="node">
<title>Node9</title>
<g id="a_node9"><a xlink:href="validation_8cpp.html" target="_top" xlink:title=" ">
<polygon fill="white" stroke="black" points="943.5,-6 943.5,-25 1046.5,-25 1046.5,-6 943.5,-6"/>
<text text-anchor="middle" x="995" y="-13" font-family="Helvetica,sans-Serif" font-size="10.00">src/validation.cpp</text>
</a>
</g>
</g>
<!-- Node1&#45;&gt;Node9 -->
<g id="edge8" class="edge">
<title>Node1&#45;&gt;Node9</title>
<path fill="none" stroke="midnightblue" d="M595.2,-71.15C676.53,-64.74 816.36,-51.79 935,-31 944.18,-29.39 954.05,-27.2 963.09,-25.01"/>
<polygon fill="midnightblue" stroke="midnightblue" points="594.8,-67.67 585.1,-71.93 595.34,-74.65 594.8,-67.67"/>
</g>
</g>
</svg>
