<?xml version="1.0" encoding="UTF-8" standalone="no"?>
<!DOCTYPE svg PUBLIC "-//W3C//DTD SVG 1.1//EN"
 "http://www.w3.org/Graphics/SVG/1.1/DTD/svg11.dtd">
<!-- Generated by graphviz version 2.40.1 (20161225.0304)
 -->
<!-- Title: CombineSignatures Pages: 1 -->
<svg width="293pt" height="46pt"
 viewBox="0.00 0.00 293.00 46.00" xmlns="http://www.w3.org/2000/svg" xmlns:xlink="http://www.w3.org/1999/xlink">
<g id="graph0" class="graph" transform="scale(1 1) rotate(0) translate(4 42)">
<title>CombineSignatures</title>
<polygon fill="#ffffff" stroke="transparent" points="-4,4 -4,-42 289,-42 289,4 -4,4"/>
<!-- Node63 -->
<g id="node1" class="node">
<title>Node63</title>
<polygon fill="#bfbfbf" stroke="#000000" points="0,-.5 0,-19.5 102,-19.5 102,-.5 0,-.5"/>
<text text-anchor="middle" x="51" y="-7.5" font-family="Helvetica,sans-Serif" font-size="10.00" fill="#000000">CombineSignatures</text>
</g>
<!-- Node63&#45;&gt;Node63 -->
<g id="edge1" class="edge">
<title>Node63&#45;&gt;Node63</title>
<path fill="none" stroke="#191970" d="M21.0599,-28.2746C21.9135,-33.741 31.8936,-38 51,-38 79.4375,-38 87.6577,-28.5653 75.6606,-19.7571"/>
<polygon fill="#191970" stroke="#191970" points="24.0458,-30.1007 26.3394,-19.7571 18.096,-26.4128 24.0458,-30.1007"/>
</g>
<!-- Node64 -->
<g id="node2" class="node">
<title>Node64</title>
<g id="a_node2"><a xlink:href="struct_signature_data.html#aee920d76f133d8d46195452fee5c1fa2" target="_top" xlink:title="SignatureData::SignatureData">
<polygon fill="#ffffff" stroke="#000000" points="138,-.5 138,-19.5 285,-19.5 285,-.5 138,-.5"/>
<text text-anchor="middle" x="211.5" y="-7.5" font-family="Helvetica,sans-Serif" font-size="10.00" fill="#000000">SignatureData::SignatureData</text>
</a>
</g>
</g>
<!-- Node63&#45;&gt;Node64 -->
<g id="edge2" class="edge">
<title>Node63&#45;&gt;Node64</title>
<path fill="none" stroke="#191970" d="M112.2883,-10C120.68,-10 129.3651,-10 137.9473,-10"/>
<polygon fill="#191970" stroke="#191970" points="112.2245,-6.5001 102.2245,-10 112.2245,-13.5001 112.2245,-6.5001"/>
</g>
</g>
</svg>
