<?xml version="1.0" encoding="UTF-8" standalone="no"?>
<!DOCTYPE svg PUBLIC "-//W3C//DTD SVG 1.1//EN"
 "http://www.w3.org/Graphics/SVG/1.1/DTD/svg11.dtd">
<!-- Generated by graphviz version 2.38.0 (20140413.2041)
 -->
<!-- Title: EncodeBase64 Pages: 1 -->
<svg width="647pt" height="583pt"
 viewBox="0.00 0.00 647.00 582.50" xmlns="http://www.w3.org/2000/svg" xmlns:xlink="http://www.w3.org/1999/xlink">
<g id="graph0" class="graph" transform="scale(1 1) rotate(0) translate(4 578.5)">
<title>EncodeBase64</title>
<polygon fill="white" stroke="none" points="-4,4 -4,-578.5 643,-578.5 643,4 -4,4"/>
<!-- Node1 -->
<g id="node1" class="node"><title>Node1</title>
<polygon fill="#bfbfbf" stroke="black" points="0,-332.5 0,-351.5 88,-351.5 88,-332.5 0,-332.5"/>
<text text-anchor="middle" x="44" y="-339.5" font-family="Helvetica,sans-Serif" font-size="10.00">EncodeBase64</text>
</g>
<!-- Node2 -->
<g id="node2" class="node"><title>Node2</title>
<g id="a_node2"><a xlink:href="class_default_request_handler.html#a79e399b51ea29faf9bd596165155aa11" target="_top" xlink:title="DefaultRequestHandler\l::ProcessReply">
<polygon fill="white" stroke="black" points="129,-544 129,-574 256,-574 256,-544 129,-544"/>
<text text-anchor="start" x="137" y="-562" font-family="Helvetica,sans-Serif" font-size="10.00">DefaultRequestHandler</text>
<text text-anchor="middle" x="192.5" y="-551" font-family="Helvetica,sans-Serif" font-size="10.00">::ProcessReply</text>
</a>
</g>
</g>
<!-- Node1&#45;&gt;Node2 -->
<g id="edge1" class="edge"><title>Node1&#45;&gt;Node2</title>
<path fill="none" stroke="midnightblue" d="M47.64,-361.485C53.8651,-399.993 72.9804,-486.319 124,-535 127.599,-538.434 131.722,-541.381 136.116,-543.91"/>
<polygon fill="midnightblue" stroke="midnightblue" points="51.0965,-360.933 46.155,-351.561 44.1735,-361.969 51.0965,-360.933"/>
</g>
<!-- Node3 -->
<g id="node3" class="node"><title>Node3</title>
<g id="a_node3"><a xlink:href="class_sign_verify_message_dialog.html#a2ef91b4ace68d63ab1c1d3cc6c13b5f9" target="_top" xlink:title="SignVerifyMessageDialog\l::on_signMessageButton\l_SM_clicked">
<polygon fill="white" stroke="black" points="124,-484.5 124,-525.5 261,-525.5 261,-484.5 124,-484.5"/>
<text text-anchor="start" x="132" y="-513.5" font-family="Helvetica,sans-Serif" font-size="10.00">SignVerifyMessageDialog</text>
<text text-anchor="start" x="132" y="-502.5" font-family="Helvetica,sans-Serif" font-size="10.00">::on_signMessageButton</text>
<text text-anchor="middle" x="192.5" y="-491.5" font-family="Helvetica,sans-Serif" font-size="10.00">_SM_clicked</text>
</a>
</g>
</g>
<!-- Node1&#45;&gt;Node3 -->
<g id="edge2" class="edge"><title>Node1&#45;&gt;Node3</title>
<path fill="none" stroke="midnightblue" d="M52.033,-361.295C63.2475,-389.658 87.6862,-442.729 124,-475 127.93,-478.493 132.333,-481.636 136.956,-484.452"/>
<polygon fill="midnightblue" stroke="midnightblue" points="55.2186,-359.825 48.3853,-351.729 48.678,-362.319 55.2186,-359.825"/>
</g>
<!-- Node4 -->
<g id="node4" class="node"><title>Node4</title>
<g id="a_node4"><a xlink:href="misc_8cpp.html#ac83965fd04331e12058ef7b84ec835cd" target="_top" xlink:title="deriveaddresses">
<polygon fill="white" stroke="black" points="145,-446.5 145,-465.5 240,-465.5 240,-446.5 145,-446.5"/>
<text text-anchor="middle" x="192.5" y="-453.5" font-family="Helvetica,sans-Serif" font-size="10.00">deriveaddresses</text>
</a>
</g>
</g>
<!-- Node1&#45;&gt;Node4 -->
<g id="edge3" class="edge"><title>Node1&#45;&gt;Node4</title>
<path fill="none" stroke="midnightblue" d="M55.611,-360.581C68.874,-382.141 93.5742,-417.251 124,-437 130.331,-441.11 137.555,-444.343 144.867,-446.884"/>
<polygon fill="midnightblue" stroke="midnightblue" points="58.4657,-358.534 50.3425,-351.732 52.4511,-362.115 58.4657,-358.534"/>
</g>
<!-- Node6 -->
<g id="node6" class="node"><title>Node6</title>
<g id="a_node6"><a xlink:href="rawtransaction_8cpp.html#a220a68cf9c7fa672caf17951c5d280bd" target="_top" xlink:title="combinepsbt">
<polygon fill="white" stroke="black" points="153,-408.5 153,-427.5 232,-427.5 232,-408.5 153,-408.5"/>
<text text-anchor="middle" x="192.5" y="-415.5" font-family="Helvetica,sans-Serif" font-size="10.00">combinepsbt</text>
</a>
</g>
</g>
<!-- Node1&#45;&gt;Node6 -->
<g id="edge5" class="edge"><title>Node1&#45;&gt;Node6</title>
<path fill="none" stroke="midnightblue" d="M65.8659,-357.742C81.3288,-368.899 103.234,-383.663 124,-394 135.246,-399.598 148.124,-404.514 159.597,-408.416"/>
<polygon fill="midnightblue" stroke="midnightblue" points="67.6965,-354.744 57.5633,-351.65 63.5556,-360.388 67.6965,-354.744"/>
</g>
<!-- Node7 -->
<g id="node7" class="node"><title>Node7</title>
<g id="a_node7"><a xlink:href="rawtransaction_8cpp.html#a6b6a0c0d5bd5b55553ea48b3da2e796c" target="_top" xlink:title="converttopsbt">
<polygon fill="white" stroke="black" points="331.5,-380.5 331.5,-399.5 414.5,-399.5 414.5,-380.5 331.5,-380.5"/>
<text text-anchor="middle" x="373" y="-387.5" font-family="Helvetica,sans-Serif" font-size="10.00">converttopsbt</text>
</a>
</g>
</g>
<!-- Node1&#45;&gt;Node7 -->
<g id="edge11" class="edge"><title>Node1&#45;&gt;Node7</title>
<path fill="none" stroke="midnightblue" d="M90.3978,-353.901C101.347,-356.498 113.048,-359.05 124,-361 196.552,-373.919 282.109,-382.468 331.404,-386.754"/>
<polygon fill="midnightblue" stroke="midnightblue" points="91.1404,-350.479 80.5967,-351.518 89.487,-357.281 91.1404,-350.479"/>
</g>
<!-- Node8 -->
<g id="node8" class="node"><title>Node8</title>
<g id="a_node8"><a xlink:href="rawtransaction_8cpp.html#a5edaef38949646889470912893a56b88" target="_top" xlink:title="finalizepsbt">
<polygon fill="white" stroke="black" points="157,-332.5 157,-351.5 228,-351.5 228,-332.5 157,-332.5"/>
<text text-anchor="middle" x="192.5" y="-339.5" font-family="Helvetica,sans-Serif" font-size="10.00">finalizepsbt</text>
</a>
</g>
</g>
<!-- Node1&#45;&gt;Node8 -->
<g id="edge7" class="edge"><title>Node1&#45;&gt;Node8</title>
<path fill="none" stroke="midnightblue" d="M98.1899,-342C117.79,-342 139.467,-342 156.99,-342"/>
<polygon fill="midnightblue" stroke="midnightblue" points="98.1625,-338.5 88.1625,-342 98.1624,-345.5 98.1625,-338.5"/>
</g>
<!-- Node9 -->
<g id="node9" class="node"><title>Node9</title>
<g id="a_node9"><a xlink:href="rawtransaction_8cpp.html#ab96b0b3cf82a8f50975ee74c26c4dbf8" target="_top" xlink:title="createpsbt">
<polygon fill="white" stroke="black" points="158.5,-294.5 158.5,-313.5 226.5,-313.5 226.5,-294.5 158.5,-294.5"/>
<text text-anchor="middle" x="192.5" y="-301.5" font-family="Helvetica,sans-Serif" font-size="10.00">createpsbt</text>
</a>
</g>
</g>
<!-- Node1&#45;&gt;Node9 -->
<g id="edge9" class="edge"><title>Node1&#45;&gt;Node9</title>
<path fill="none" stroke="midnightblue" d="M91.8986,-329.835C113.43,-324.25 138.466,-317.756 158.051,-312.676"/>
<polygon fill="midnightblue" stroke="midnightblue" points="90.769,-326.512 81.9681,-332.411 92.5266,-333.288 90.769,-326.512"/>
</g>
<!-- Node10 -->
<g id="node10" class="node"><title>Node10</title>
<g id="a_node10"><a xlink:href="strencodings_8h.html#ad00e71aa1ead536a941d6f7d7c0292ae" target="_top" xlink:title="EncodeBase64">
<polygon fill="white" stroke="black" points="148.5,-256.5 148.5,-275.5 236.5,-275.5 236.5,-256.5 148.5,-256.5"/>
<text text-anchor="middle" x="192.5" y="-263.5" font-family="Helvetica,sans-Serif" font-size="10.00">EncodeBase64</text>
</a>
</g>
</g>
<!-- Node1&#45;&gt;Node10 -->
<g id="edge12" class="edge"><title>Node1&#45;&gt;Node10</title>
<path fill="none" stroke="midnightblue" d="M63.3882,-325.846C78.6824,-313.151 101.51,-295.855 124,-285 131.784,-281.243 140.443,-278.108 148.892,-275.54"/>
<polygon fill="midnightblue" stroke="midnightblue" points="61.0771,-323.217 55.7165,-332.356 65.606,-328.555 61.0771,-323.217"/>
</g>
<!-- Node11 -->
<g id="node11" class="node"><title>Node11</title>
<g id="a_node11"><a xlink:href="rpcwallet_8h.html#aae9bc665151c5bab626a7ffcaeed9c0d" target="_top" xlink:title="EnsureWalletIsUnlocked">
<polygon fill="white" stroke="black" points="128,-200.5 128,-219.5 257,-219.5 257,-200.5 128,-200.5"/>
<text text-anchor="middle" x="192.5" y="-207.5" font-family="Helvetica,sans-Serif" font-size="10.00">EnsureWalletIsUnlocked</text>
</a>
</g>
</g>
<!-- Node1&#45;&gt;Node11 -->
<g id="edge13" class="edge"><title>Node1&#45;&gt;Node11</title>
<path fill="none" stroke="midnightblue" d="M56.8886,-323.933C71.0487,-303.415 96.2943,-269.832 124,-247 137.716,-235.696 155.4,-226.151 169.226,-219.588"/>
<polygon fill="midnightblue" stroke="midnightblue" points="53.8959,-322.111 51.1937,-332.355 59.6946,-326.032 53.8959,-322.111"/>
</g>
<!-- Node13 -->
<g id="node13" class="node"><title>Node13</title>
<g id="a_node13"><a xlink:href="rpcwallet_8cpp.html#afca55ac7a3c6c274b8b7b3e6eab9cd86" target="_top" xlink:title="walletcreatefundedpsbt">
<polygon fill="white" stroke="black" points="498,-114.5 498,-133.5 626,-133.5 626,-114.5 498,-114.5"/>
<text text-anchor="middle" x="562" y="-121.5" font-family="Helvetica,sans-Serif" font-size="10.00">walletcreatefundedpsbt</text>
</a>
</g>
</g>
<!-- Node1&#45;&gt;Node13 -->
<g id="edge33" class="edge"><title>Node1&#45;&gt;Node13</title>
<path fill="none" stroke="midnightblue" d="M51.7073,-322.772C63.0267,-292.298 88.2369,-232.151 124,-191 186.054,-119.597 206.937,-95.9435 297,-67 361.316,-46.3309 383.307,-51.245 449,-67 487.189,-76.1588 527.046,-100.618 547.345,-114.333"/>
<polygon fill="midnightblue" stroke="midnightblue" points="48.3952,-321.64 48.2883,-332.234 54.9785,-324.019 48.3952,-321.64"/>
</g>
<!-- Node23 -->
<g id="node23" class="node"><title>Node23</title>
<g id="a_node23"><a xlink:href="rpcwallet_8cpp.html#a9c99ceacf389a1ce91977c6f7ffa5022" target="_top" xlink:title="walletprocesspsbt">
<polygon fill="white" stroke="black" points="141.5,-0.5 141.5,-19.5 243.5,-19.5 243.5,-0.5 141.5,-0.5"/>
<text text-anchor="middle" x="192.5" y="-7.5" font-family="Helvetica,sans-Serif" font-size="10.00">walletprocesspsbt</text>
</a>
</g>
</g>
<!-- Node1&#45;&gt;Node23 -->
<g id="edge31" class="edge"><title>Node1&#45;&gt;Node23</title>
<path fill="none" stroke="midnightblue" d="M47.6636,-321.936C56.1731,-260.622 84.4793,-77.2711 124,-34 129.787,-27.6633 137.359,-22.999 145.332,-19.5658"/>
<polygon fill="midnightblue" stroke="midnightblue" points="44.1473,-321.819 46.2673,-332.2 51.0834,-322.763 44.1473,-321.819"/>
</g>
<!-- Node5 -->
<g id="node5" class="node"><title>Node5</title>
<g id="a_node5"><a xlink:href="misc_8cpp.html#a102e2c91951128d7a170700149aae5c3" target="_top" xlink:title="logging">
<polygon fill="white" stroke="black" points="347.5,-446.5 347.5,-465.5 398.5,-465.5 398.5,-446.5 347.5,-446.5"/>
<text text-anchor="middle" x="373" y="-453.5" font-family="Helvetica,sans-Serif" font-size="10.00">logging</text>
</a>
</g>
</g>
<!-- Node4&#45;&gt;Node5 -->
<g id="edge4" class="edge"><title>Node4&#45;&gt;Node5</title>
<path fill="none" stroke="midnightblue" d="M250.73,-456C283.343,-456 322.532,-456 347.356,-456"/>
<polygon fill="midnightblue" stroke="midnightblue" points="250.399,-452.5 240.399,-456 250.399,-459.5 250.399,-452.5"/>
</g>
<!-- Node6&#45;&gt;Node7 -->
<g id="edge6" class="edge"><title>Node6&#45;&gt;Node7</title>
<path fill="none" stroke="midnightblue" d="M242.216,-410.358C270.221,-405.965 304.986,-400.512 331.485,-396.355"/>
<polygon fill="midnightblue" stroke="midnightblue" points="241.569,-406.917 232.232,-411.924 242.653,-413.832 241.569,-406.917"/>
</g>
<!-- Node8&#45;&gt;Node7 -->
<g id="edge8" class="edge"><title>Node8&#45;&gt;Node7</title>
<path fill="none" stroke="midnightblue" d="M236.642,-354.349C255.19,-359.59 277.131,-365.701 297,-371 308.81,-374.15 321.701,-377.461 333.412,-380.421"/>
<polygon fill="midnightblue" stroke="midnightblue" points="237.578,-350.976 227.003,-351.617 235.669,-357.711 237.578,-350.976"/>
</g>
<!-- Node9&#45;&gt;Node7 -->
<g id="edge10" class="edge"><title>Node9&#45;&gt;Node7</title>
<path fill="none" stroke="midnightblue" d="M236.291,-311.501C244.94,-314.233 253.631,-317.949 261,-323 282.996,-338.076 274.808,-356.215 297,-371 307.172,-377.777 319.59,-382.137 331.371,-384.942"/>
<polygon fill="midnightblue" stroke="midnightblue" points="237.188,-308.118 226.616,-308.816 235.316,-314.863 237.188,-308.118"/>
</g>
<!-- Node11&#45;&gt;Node11 -->
<g id="edge24" class="edge"><title>Node11&#45;&gt;Node11</title>
<path fill="none" stroke="midnightblue" d="M164.874,-228.654C166.029,-233.937 175.238,-238 192.5,-238 218.805,-238 226.408,-228.565 215.311,-219.757"/>
<polygon fill="midnightblue" stroke="midnightblue" points="168.008,-230.218 169.689,-219.757 161.851,-226.886 168.008,-230.218"/>
</g>
<!-- Node12 -->
<g id="node12" class="node"><title>Node12</title>
<g id="a_node12"><a xlink:href="rpcwallet_8cpp.html#a2f46e2bb304dda9a197b5a68db6106f7" target="_top" xlink:title="importprivkey">
<polygon fill="white" stroke="black" points="332,-114.5 332,-133.5 414,-133.5 414,-114.5 332,-114.5"/>
<text text-anchor="middle" x="373" y="-121.5" font-family="Helvetica,sans-Serif" font-size="10.00">importprivkey</text>
</a>
</g>
</g>
<!-- Node11&#45;&gt;Node12 -->
<g id="edge14" class="edge"><title>Node11&#45;&gt;Node12</title>
<path fill="none" stroke="midnightblue" d="M213.556,-194.161C233.621,-179.027 265.895,-156.568 297,-143 307.958,-138.22 320.361,-134.468 331.881,-131.606"/>
<polygon fill="midnightblue" stroke="midnightblue" points="211.298,-191.482 205.494,-200.346 215.558,-197.036 211.298,-191.482"/>
</g>
<!-- Node14 -->
<g id="node14" class="node"><title>Node14</title>
<g id="a_node14"><a xlink:href="wallet__tests_8cpp.html#a8c64ef6e0ced69002923098229448758" target="_top" xlink:title="importwallet">
<polygon fill="white" stroke="black" points="335.5,-304.5 335.5,-323.5 410.5,-323.5 410.5,-304.5 335.5,-304.5"/>
<text text-anchor="middle" x="373" y="-311.5" font-family="Helvetica,sans-Serif" font-size="10.00">importwallet</text>
</a>
</g>
</g>
<!-- Node11&#45;&gt;Node14 -->
<g id="edge16" class="edge"><title>Node11&#45;&gt;Node14</title>
<path fill="none" stroke="midnightblue" d="M225.742,-224.123C237.55,-230.176 250.563,-237.95 261,-247 281.147,-264.47 274.808,-280.215 297,-295 308.29,-302.522 322.346,-307.066 335.227,-309.811"/>
<polygon fill="midnightblue" stroke="midnightblue" points="227.123,-220.902 216.603,-219.646 224.044,-227.189 227.123,-220.902"/>
</g>
<!-- Node16 -->
<g id="node16" class="node"><title>Node16</title>
<g id="a_node16"><a xlink:href="rpcwallet_8cpp.html#ab3f51d8e8fe414dbf91c37485e481ae3" target="_top" xlink:title="dumpprivkey">
<polygon fill="white" stroke="black" points="334,-76.5 334,-95.5 412,-95.5 412,-76.5 334,-76.5"/>
<text text-anchor="middle" x="373" y="-83.5" font-family="Helvetica,sans-Serif" font-size="10.00">dumpprivkey</text>
</a>
</g>
</g>
<!-- Node11&#45;&gt;Node16 -->
<g id="edge18" class="edge"><title>Node11&#45;&gt;Node16</title>
<path fill="none" stroke="midnightblue" d="M206.15,-192.08C223.775,-168.478 257.984,-127.357 297,-105 308.188,-98.5888 321.532,-94.3142 333.842,-91.4752"/>
<polygon fill="midnightblue" stroke="midnightblue" points="203.098,-190.326 200.035,-200.468 208.754,-194.449 203.098,-190.326"/>
</g>
<!-- Node17 -->
<g id="node17" class="node"><title>Node17</title>
<g id="a_node17"><a xlink:href="wallet__tests_8cpp.html#a73ce3a42e0b56b2e4516e55871d8590e" target="_top" xlink:title="dumpwallet">
<polygon fill="white" stroke="black" points="337.5,-266.5 337.5,-285.5 408.5,-285.5 408.5,-266.5 337.5,-266.5"/>
<text text-anchor="middle" x="373" y="-273.5" font-family="Helvetica,sans-Serif" font-size="10.00">dumpwallet</text>
</a>
</g>
</g>
<!-- Node11&#45;&gt;Node17 -->
<g id="edge20" class="edge"><title>Node11&#45;&gt;Node17</title>
<path fill="none" stroke="midnightblue" d="M220.87,-224.05C241.423,-234.198 270.473,-247.7 297,-257 309.929,-261.533 324.462,-265.47 337.268,-268.566"/>
<polygon fill="midnightblue" stroke="midnightblue" points="222.298,-220.851 211.788,-219.511 219.168,-227.112 222.298,-220.851"/>
</g>
<!-- Node18 -->
<g id="node18" class="node"><title>Node18</title>
<g id="a_node18"><a xlink:href="wallet__tests_8cpp.html#af0e3c9469f1d8f368d3d5f38e5580367" target="_top" xlink:title="importmulti">
<polygon fill="white" stroke="black" points="337,-342.5 337,-361.5 409,-361.5 409,-342.5 337,-342.5"/>
<text text-anchor="middle" x="373" y="-349.5" font-family="Helvetica,sans-Serif" font-size="10.00">importmulti</text>
</a>
</g>
</g>
<!-- Node11&#45;&gt;Node18 -->
<g id="edge22" class="edge"><title>Node11&#45;&gt;Node18</title>
<path fill="none" stroke="midnightblue" d="M229.278,-223.962C240.566,-229.74 252.339,-237.378 261,-247 288.722,-277.797 265.61,-305.952 297,-333 307.99,-342.47 323.055,-347.331 336.802,-349.787"/>
<polygon fill="midnightblue" stroke="midnightblue" points="230.523,-220.678 219.989,-219.543 227.516,-227 230.523,-220.678"/>
</g>
<!-- Node20 -->
<g id="node20" class="node"><title>Node20</title>
<g id="a_node20"><a xlink:href="rpcwallet_8cpp.html#a74b85c92ee6a84277c73b74f2e212bff" target="_top" xlink:title="listtransactions">
<polygon fill="white" stroke="black" points="328.5,-228.5 328.5,-247.5 417.5,-247.5 417.5,-228.5 328.5,-228.5"/>
<text text-anchor="middle" x="373" y="-235.5" font-family="Helvetica,sans-Serif" font-size="10.00">listtransactions</text>
</a>
</g>
</g>
<!-- Node11&#45;&gt;Node20 -->
<g id="edge25" class="edge"><title>Node11&#45;&gt;Node20</title>
<path fill="none" stroke="midnightblue" d="M264.525,-221.141C286.052,-224.518 309.055,-228.126 328.234,-231.135"/>
<polygon fill="midnightblue" stroke="midnightblue" points="264.852,-217.65 254.43,-219.558 263.767,-224.565 264.852,-217.65"/>
</g>
<!-- Node21 -->
<g id="node21" class="node"><title>Node21</title>
<g id="a_node21"><a xlink:href="rpcwallet_8h.html#a7c13054932c9e3b351bd6277fa9361d7" target="_top" xlink:title="signrawtransactionwithwallet">
<polygon fill="white" stroke="black" points="297,-190.5 297,-209.5 449,-209.5 449,-190.5 297,-190.5"/>
<text text-anchor="middle" x="373" y="-197.5" font-family="Helvetica,sans-Serif" font-size="10.00">signrawtransactionwithwallet</text>
</a>
</g>
</g>
<!-- Node11&#45;&gt;Node21 -->
<g id="edge27" class="edge"><title>Node11&#45;&gt;Node21</title>
<path fill="none" stroke="midnightblue" d="M267.232,-205.869C276.979,-205.323 286.98,-204.763 296.753,-204.216"/>
<polygon fill="midnightblue" stroke="midnightblue" points="266.975,-202.378 257.187,-206.432 267.367,-209.367 266.975,-202.378"/>
</g>
<!-- Node22 -->
<g id="node22" class="node"><title>Node22</title>
<g id="a_node22"><a xlink:href="rpcwallet_8cpp.html#a61c7a90d1b36888fe11b751e746e18c0" target="_top" xlink:title="sethdseed">
<polygon fill="white" stroke="black" points="339.5,-152.5 339.5,-171.5 406.5,-171.5 406.5,-152.5 339.5,-152.5"/>
<text text-anchor="middle" x="373" y="-159.5" font-family="Helvetica,sans-Serif" font-size="10.00">sethdseed</text>
</a>
</g>
</g>
<!-- Node11&#45;&gt;Node22 -->
<g id="edge29" class="edge"><title>Node11&#45;&gt;Node22</title>
<path fill="none" stroke="midnightblue" d="M236.642,-197.651C255.19,-192.41 277.131,-186.299 297,-181 310.887,-177.296 326.268,-173.369 339.467,-170.053"/>
<polygon fill="midnightblue" stroke="midnightblue" points="235.669,-194.289 227.003,-200.383 237.578,-201.024 235.669,-194.289"/>
</g>
<!-- Node12&#45;&gt;Node13 -->
<g id="edge15" class="edge"><title>Node12&#45;&gt;Node13</title>
<path fill="none" stroke="midnightblue" d="M424.181,-124C446.81,-124 473.784,-124 497.777,-124"/>
<polygon fill="midnightblue" stroke="midnightblue" points="424.116,-120.5 414.116,-124 424.116,-127.5 424.116,-120.5"/>
</g>
<!-- Node15 -->
<g id="node15" class="node"><title>Node15</title>
<g id="a_node15"><a xlink:href="wallet__tests_8cpp.html#a2a726fa52b0a343883cb50a3f68d0989" target="_top" xlink:title="BOOST_FIXTURE_TEST_CASE">
<polygon fill="white" stroke="black" points="485,-285.5 485,-304.5 639,-304.5 639,-285.5 485,-285.5"/>
<text text-anchor="middle" x="562" y="-292.5" font-family="Helvetica,sans-Serif" font-size="10.00">BOOST_FIXTURE_TEST_CASE</text>
</a>
</g>
</g>
<!-- Node14&#45;&gt;Node15 -->
<g id="edge17" class="edge"><title>Node14&#45;&gt;Node15</title>
<path fill="none" stroke="midnightblue" d="M420.977,-309.227C440.272,-307.266 463.114,-304.946 484.691,-302.753"/>
<polygon fill="midnightblue" stroke="midnightblue" points="420.54,-305.753 410.945,-310.246 421.248,-312.717 420.54,-305.753"/>
</g>
<!-- Node16&#45;&gt;Node13 -->
<g id="edge19" class="edge"><title>Node16&#45;&gt;Node13</title>
<path fill="none" stroke="midnightblue" d="M422.353,-95.8257C450.621,-101.57 486.133,-108.786 514.14,-114.478"/>
<polygon fill="midnightblue" stroke="midnightblue" points="422.79,-92.3431 412.293,-93.7816 421.396,-99.2029 422.79,-92.3431"/>
</g>
<!-- Node17&#45;&gt;Node15 -->
<g id="edge21" class="edge"><title>Node17&#45;&gt;Node15</title>
<path fill="none" stroke="midnightblue" d="M418.712,-280.543C438.558,-282.559 462.476,-284.99 484.992,-287.277"/>
<polygon fill="midnightblue" stroke="midnightblue" points="419.038,-277.058 408.735,-279.529 418.33,-284.022 419.038,-277.058"/>
</g>
<!-- Node19 -->
<g id="node19" class="node"><title>Node19</title>
<g id="a_node19"><a xlink:href="wallet__tests_8cpp.html#a102aa881fd1aa3b1be48920b5b27dcc3" target="_top" xlink:title="BOOST_FIXTURE_TEST_CASE">
<polygon fill="white" stroke="black" points="485,-342.5 485,-361.5 639,-361.5 639,-342.5 485,-342.5"/>
<text text-anchor="middle" x="562" y="-349.5" font-family="Helvetica,sans-Serif" font-size="10.00">BOOST_FIXTURE_TEST_CASE</text>
</a>
</g>
</g>
<!-- Node18&#45;&gt;Node19 -->
<g id="edge23" class="edge"><title>Node18&#45;&gt;Node19</title>
<path fill="none" stroke="midnightblue" d="M419.381,-352C439.075,-352 462.683,-352 484.927,-352"/>
<polygon fill="midnightblue" stroke="midnightblue" points="419.173,-348.5 409.173,-352 419.173,-355.5 419.173,-348.5"/>
</g>
<!-- Node20&#45;&gt;Node13 -->
<g id="edge26" class="edge"><title>Node20&#45;&gt;Node13</title>
<path fill="none" stroke="midnightblue" d="M427.433,-227.679C434.879,-225.325 442.275,-222.465 449,-219 493.197,-196.227 535.047,-153.027 552.481,-133.732"/>
<polygon fill="midnightblue" stroke="midnightblue" points="426.309,-224.36 417.667,-230.489 428.245,-231.087 426.309,-224.36"/>
</g>
<!-- Node21&#45;&gt;Node13 -->
<g id="edge28" class="edge"><title>Node21&#45;&gt;Node13</title>
<path fill="none" stroke="midnightblue" d="M428.625,-187.683C435.556,-185.677 442.495,-183.444 449,-181 484.537,-167.647 523.507,-146.113 544.826,-133.688"/>
<polygon fill="midnightblue" stroke="midnightblue" points="427.24,-184.433 418.526,-190.459 429.096,-191.183 427.24,-184.433"/>
</g>
<!-- Node22&#45;&gt;Node13 -->
<g id="edge30" class="edge"><title>Node22&#45;&gt;Node13</title>
<path fill="none" stroke="midnightblue" d="M416.432,-153.378C445.509,-147.469 484.091,-139.629 514.084,-133.534"/>
<polygon fill="midnightblue" stroke="midnightblue" points="415.676,-149.96 406.573,-155.381 417.07,-156.819 415.676,-149.96"/>
</g>
<!-- Node23&#45;&gt;Node13 -->
<g id="edge32" class="edge"><title>Node23&#45;&gt;Node13</title>
<path fill="none" stroke="midnightblue" d="M253.818,-6.08303C307.1,-4.8213 385.909,-8.41294 449,-34 494.076,-52.2808 535.466,-94.9313 552.631,-114.219"/>
<polygon fill="midnightblue" stroke="midnightblue" points="253.404,-2.59387 243.514,-6.39501 253.615,-9.59067 253.404,-2.59387"/>
</g>
</g>
</svg>
