<?xml version="1.0" encoding="UTF-8" standalone="no"?>
<!DOCTYPE svg PUBLIC "-//W3C//DTD SVG 1.1//EN"
 "http://www.w3.org/Graphics/SVG/1.1/DTD/svg11.dtd">
<!-- Generated by graphviz version 2.38.0 (20140413.2041)
 -->
<!-- Title: PSBTInput::FromSignatureData Pages: 1 -->
<svg width="820pt" height="154pt"
 viewBox="0.00 0.00 820.00 154.00" xmlns="http://www.w3.org/2000/svg" xmlns:xlink="http://www.w3.org/1999/xlink">
<g id="graph0" class="graph" transform="scale(1 1) rotate(0) translate(4 150)">
<title>PSBTInput::FromSignatureData</title>
<polygon fill="white" stroke="none" points="-4,4 -4,-150 816,-150 816,4 -4,4"/>
<!-- Node1 -->
<g id="node1" class="node"><title>Node1</title>
<polygon fill="#bfbfbf" stroke="black" points="0,-82.5 0,-101.5 165,-101.5 165,-82.5 0,-82.5"/>
<text text-anchor="middle" x="82.5" y="-89.5" font-family="Helvetica,sans-Serif" font-size="10.00">PSBTInput::FromSignatureData</text>
</g>
<!-- Node2 -->
<g id="node2" class="node"><title>Node2</title>
<g id="a_node2"><a xlink:href="sign_8h.html#a26455fb3baf3e7fe356ddd33816a5723" target="_top" xlink:title="Signs a PSBTInput, verifying that all provided data matches what is being signed. ...">
<polygon fill="white" stroke="black" points="201,-82.5 201,-101.5 287,-101.5 287,-82.5 201,-82.5"/>
<text text-anchor="middle" x="244" y="-89.5" font-family="Helvetica,sans-Serif" font-size="10.00">SignPSBTInput</text>
</a>
</g>
</g>
<!-- Node1&#45;&gt;Node2 -->
<g id="edge1" class="edge"><title>Node1&#45;&gt;Node2</title>
<path fill="none" stroke="midnightblue" d="M175.266,-92C184.198,-92 192.924,-92 200.982,-92"/>
<polygon fill="midnightblue" stroke="midnightblue" points="175.119,-88.5001 165.119,-92 175.119,-95.5001 175.119,-88.5001"/>
</g>
<!-- Node3 -->
<g id="node3" class="node"><title>Node3</title>
<g id="a_node3"><a xlink:href="rawtransaction_8cpp.html#a5edaef38949646889470912893a56b88" target="_top" xlink:title="finalizepsbt">
<polygon fill="white" stroke="black" points="360.5,-126.5 360.5,-145.5 431.5,-145.5 431.5,-126.5 360.5,-126.5"/>
<text text-anchor="middle" x="396" y="-133.5" font-family="Helvetica,sans-Serif" font-size="10.00">finalizepsbt</text>
</a>
</g>
</g>
<!-- Node2&#45;&gt;Node3 -->
<g id="edge2" class="edge"><title>Node2&#45;&gt;Node3</title>
<path fill="none" stroke="midnightblue" d="M283.171,-104.673C295.806,-108.75 309.967,-113.195 323,-117 335.162,-120.551 348.563,-124.168 360.473,-127.279"/>
<polygon fill="midnightblue" stroke="midnightblue" points="284.009,-101.265 273.416,-101.501 281.844,-107.922 284.009,-101.265"/>
</g>
<!-- Node5 -->
<g id="node5" class="node"><title>Node5</title>
<g id="a_node5"><a xlink:href="struct_partially_signed_transaction.html#ad225d3ca4c91abcd8e1731534a6addff" target="_top" xlink:title="PartiallySignedTransaction\l::PartiallySignedTransaction">
<polygon fill="white" stroke="black" points="323,-77 323,-107 469,-107 469,-77 323,-77"/>
<text text-anchor="start" x="331" y="-95" font-family="Helvetica,sans-Serif" font-size="10.00">PartiallySignedTransaction</text>
<text text-anchor="middle" x="396" y="-84" font-family="Helvetica,sans-Serif" font-size="10.00">::PartiallySignedTransaction</text>
</a>
</g>
</g>
<!-- Node2&#45;&gt;Node5 -->
<g id="edge4" class="edge"><title>Node2&#45;&gt;Node5</title>
<path fill="none" stroke="midnightblue" d="M297.343,-92C305.559,-92 314.177,-92 322.746,-92"/>
<polygon fill="midnightblue" stroke="midnightblue" points="297.183,-88.5001 287.183,-92 297.183,-95.5001 297.183,-88.5001"/>
</g>
<!-- Node6 -->
<g id="node6" class="node"><title>Node6</title>
<g id="a_node6"><a xlink:href="rpcwallet_8h.html#ab2cdd07070dae2e6b1a2ea36a619b233" target="_top" xlink:title="FillPSBT">
<polygon fill="white" stroke="black" points="369.5,-38.5 369.5,-57.5 422.5,-57.5 422.5,-38.5 369.5,-38.5"/>
<text text-anchor="middle" x="396" y="-45.5" font-family="Helvetica,sans-Serif" font-size="10.00">FillPSBT</text>
</a>
</g>
</g>
<!-- Node2&#45;&gt;Node6 -->
<g id="edge5" class="edge"><title>Node2&#45;&gt;Node6</title>
<path fill="none" stroke="midnightblue" d="M283.171,-79.327C295.806,-75.2497 309.967,-70.8054 323,-67 338.264,-62.5431 355.481,-57.9829 369.252,-54.4475"/>
<polygon fill="midnightblue" stroke="midnightblue" points="281.844,-76.0782 273.416,-82.4991 284.009,-82.7351 281.844,-76.0782"/>
</g>
<!-- Node4 -->
<g id="node4" class="node"><title>Node4</title>
<g id="a_node4"><a xlink:href="rawtransaction_8cpp.html#a6b6a0c0d5bd5b55553ea48b3da2e796c" target="_top" xlink:title="converttopsbt">
<polygon fill="white" stroke="black" points="535,-126.5 535,-145.5 618,-145.5 618,-126.5 535,-126.5"/>
<text text-anchor="middle" x="576.5" y="-133.5" font-family="Helvetica,sans-Serif" font-size="10.00">converttopsbt</text>
</a>
</g>
</g>
<!-- Node3&#45;&gt;Node4 -->
<g id="edge3" class="edge"><title>Node3&#45;&gt;Node4</title>
<path fill="none" stroke="midnightblue" d="M441.957,-136C470.498,-136 507.134,-136 534.812,-136"/>
<polygon fill="midnightblue" stroke="midnightblue" points="441.84,-132.5 431.84,-136 441.84,-139.5 441.84,-132.5"/>
</g>
<!-- Node7 -->
<g id="node7" class="node"><title>Node7</title>
<g id="a_node7"><a xlink:href="rpcwallet_8cpp.html#a9c99ceacf389a1ce91977c6f7ffa5022" target="_top" xlink:title="walletprocesspsbt">
<polygon fill="white" stroke="black" points="525.5,-76.5 525.5,-95.5 627.5,-95.5 627.5,-76.5 525.5,-76.5"/>
<text text-anchor="middle" x="576.5" y="-83.5" font-family="Helvetica,sans-Serif" font-size="10.00">walletprocesspsbt</text>
</a>
</g>
</g>
<!-- Node6&#45;&gt;Node7 -->
<g id="edge6" class="edge"><title>Node6&#45;&gt;Node7</title>
<path fill="none" stroke="midnightblue" d="M432.406,-55.5373C460.599,-61.5393 500.24,-69.9782 530.651,-76.4524"/>
<polygon fill="midnightblue" stroke="midnightblue" points="433.084,-52.1035 422.575,-53.4445 431.627,-58.95 433.084,-52.1035"/>
</g>
<!-- Node8 -->
<g id="node8" class="node"><title>Node8</title>
<g id="a_node8"><a xlink:href="rpcwallet_8cpp.html#afca55ac7a3c6c274b8b7b3e6eab9cd86" target="_top" xlink:title="walletcreatefundedpsbt">
<polygon fill="white" stroke="black" points="684,-57.5 684,-76.5 812,-76.5 812,-57.5 684,-57.5"/>
<text text-anchor="middle" x="748" y="-64.5" font-family="Helvetica,sans-Serif" font-size="10.00">walletcreatefundedpsbt</text>
</a>
</g>
</g>
<!-- Node6&#45;&gt;Node8 -->
<g id="edge8" class="edge"><title>Node6&#45;&gt;Node8</title>
<path fill="none" stroke="midnightblue" d="M433.062,-49.9576C492.174,-53.1666 610.43,-59.5862 683.732,-63.5655"/>
<polygon fill="midnightblue" stroke="midnightblue" points="432.911,-46.4444 422.736,-49.3971 432.532,-53.4341 432.911,-46.4444"/>
</g>
<!-- Node9 -->
<g id="node9" class="node"><title>Node9</title>
<g id="a_node9"><a xlink:href="psbt__wallet__tests_8cpp.html#a0508d4d7e942faaa45c8e03ed7151dc4" target="_top" xlink:title="BOOST_AUTO_TEST_CASE">
<polygon fill="white" stroke="black" points="505,-0.5 505,-19.5 648,-19.5 648,-0.5 505,-0.5"/>
<text text-anchor="middle" x="576.5" y="-7.5" font-family="Helvetica,sans-Serif" font-size="10.00">BOOST_AUTO_TEST_CASE</text>
</a>
</g>
</g>
<!-- Node6&#45;&gt;Node9 -->
<g id="edge9" class="edge"><title>Node6&#45;&gt;Node9</title>
<path fill="none" stroke="midnightblue" d="M432.406,-40.4627C460.599,-34.4607 500.24,-26.0218 530.651,-19.5476"/>
<polygon fill="midnightblue" stroke="midnightblue" points="431.627,-37.05 422.575,-42.5555 433.084,-43.8965 431.627,-37.05"/>
</g>
<!-- Node7&#45;&gt;Node8 -->
<g id="edge7" class="edge"><title>Node7&#45;&gt;Node8</title>
<path fill="none" stroke="midnightblue" d="M638.002,-79.2181C652.886,-77.5496 668.86,-75.759 683.866,-74.077"/>
<polygon fill="midnightblue" stroke="midnightblue" points="637.445,-75.7585 627.897,-80.3508 638.224,-82.715 637.445,-75.7585"/>
</g>
</g>
</svg>
