<?xml version="1.0" encoding="UTF-8" standalone="no"?>
<!DOCTYPE svg PUBLIC "-//W3C//DTD SVG 1.1//EN"
 "http://www.w3.org/Graphics/SVG/1.1/DTD/svg11.dtd">
<!-- Generated by graphviz version 2.49.3 (0)
 -->
<!-- Title: CNodeCombinedStats Pages: 1 -->
<svg width="213pt" height="287pt"
 viewBox="0.00 0.00 213.00 287.00" xmlns="http://www.w3.org/2000/svg" xmlns:xlink="http://www.w3.org/1999/xlink">
<g id="graph0" class="graph" transform="scale(1 1) rotate(0) translate(4 283)">
<title>CNodeCombinedStats</title>
<polygon fill="white" stroke="transparent" points="-4,4 -4,-283 209,-283 209,4 -4,4"/>
<!-- Node1 -->
<g id="node1" class="node">
<title>Node1</title>
<g id="a_node1"><a xlink:title=" ">
<polygon fill="#bfbfbf" stroke="black" points="27.5,-0.5 27.5,-19.5 150.5,-19.5 150.5,-0.5 27.5,-0.5"/>
<text text-anchor="middle" x="89" y="-7.5" font-family="Helvetica,sans-Serif" font-size="10.00">CNodeCombinedStats</text>
</a>
</g>
</g>
<!-- Node2 -->
<g id="node2" class="node">
<title>Node2</title>
<g id="a_node2"><a xlink:href="class_c_node_stats.html" target="_top" xlink:title=" ">
<polygon fill="white" stroke="black" points="0,-67.5 0,-86.5 74,-86.5 74,-67.5 0,-67.5"/>
<text text-anchor="middle" x="37" y="-74.5" font-family="Helvetica,sans-Serif" font-size="10.00">CNodeStats</text>
</a>
</g>
</g>
<!-- Node2&#45;&gt;Node1 -->
<g id="edge1" class="edge">
<title>Node2&#45;&gt;Node1</title>
<path fill="none" stroke="#9a32cd" stroke-dasharray="5,2" d="M50.38,-59.27C60.52,-46.6 74.04,-29.7 82.1,-19.63"/>
<polygon fill="#9a32cd" stroke="#9a32cd" points="47.53,-57.24 44.01,-67.23 52.99,-61.61 47.53,-57.24"/>
<text text-anchor="middle" x="92" y="-41" font-family="Helvetica,sans-Serif" font-size="10.00"> nodeStats</text>
</g>
<!-- Node3 -->
<g id="node3" class="node">
<title>Node3</title>
<g id="a_node3"><a xlink:href="class_c_address.html" target="_top" xlink:title="A CService with information about it as peer.">
<polygon fill="white" stroke="black" points="6,-145.5 6,-164.5 68,-164.5 68,-145.5 6,-145.5"/>
<text text-anchor="middle" x="37" y="-152.5" font-family="Helvetica,sans-Serif" font-size="10.00">CAddress</text>
</a>
</g>
</g>
<!-- Node3&#45;&gt;Node2 -->
<g id="edge2" class="edge">
<title>Node3&#45;&gt;Node2</title>
<path fill="none" stroke="#9a32cd" stroke-dasharray="5,2" d="M37,-135.22C37,-119.7 37,-98.36 37,-86.62"/>
<polygon fill="#9a32cd" stroke="#9a32cd" points="33.5,-135.28 37,-145.28 40.5,-135.28 33.5,-135.28"/>
<text text-anchor="middle" x="59" y="-119" font-family="Helvetica,sans-Serif" font-size="10.00"> addr</text>
<text text-anchor="middle" x="59" y="-108" font-family="Helvetica,sans-Serif" font-size="10.00">addrBind</text>
</g>
<!-- Node4 -->
<g id="node4" class="node">
<title>Node4</title>
<g id="a_node4"><a xlink:href="class_c_service.html" target="_top" xlink:title="A combination of a network address (CNetAddr) and a (TCP) port.">
<polygon fill="white" stroke="black" points="7.5,-202.5 7.5,-221.5 66.5,-221.5 66.5,-202.5 7.5,-202.5"/>
<text text-anchor="middle" x="37" y="-209.5" font-family="Helvetica,sans-Serif" font-size="10.00">CService</text>
</a>
</g>
</g>
<!-- Node4&#45;&gt;Node3 -->
<g id="edge3" class="edge">
<title>Node4&#45;&gt;Node3</title>
<path fill="none" stroke="midnightblue" d="M37,-192.12C37,-182.82 37,-172.06 37,-164.71"/>
<polygon fill="midnightblue" stroke="midnightblue" points="33.5,-192.41 37,-202.41 40.5,-192.41 33.5,-192.41"/>
</g>
<!-- Node5 -->
<g id="node5" class="node">
<title>Node5</title>
<g id="a_node5"><a xlink:href="class_c_net_addr.html" target="_top" xlink:title="Network address.">
<polygon fill="white" stroke="black" points="5.5,-259.5 5.5,-278.5 68.5,-278.5 68.5,-259.5 5.5,-259.5"/>
<text text-anchor="middle" x="37" y="-266.5" font-family="Helvetica,sans-Serif" font-size="10.00">CNetAddr</text>
</a>
</g>
</g>
<!-- Node5&#45;&gt;Node4 -->
<g id="edge4" class="edge">
<title>Node5&#45;&gt;Node4</title>
<path fill="none" stroke="midnightblue" d="M37,-249.12C37,-239.82 37,-229.06 37,-221.71"/>
<polygon fill="midnightblue" stroke="midnightblue" points="33.5,-249.41 37,-259.41 40.5,-249.41 33.5,-249.41"/>
</g>
<!-- Node6 -->
<g id="node6" class="node">
<title>Node6</title>
<g id="a_node6"><a xlink:href="struct_c_node_state_stats.html" target="_top" xlink:title=" ">
<polygon fill="white" stroke="black" points="92.5,-67.5 92.5,-86.5 191.5,-86.5 191.5,-67.5 92.5,-67.5"/>
<text text-anchor="middle" x="142" y="-74.5" font-family="Helvetica,sans-Serif" font-size="10.00">CNodeStateStats</text>
</a>
</g>
</g>
<!-- Node6&#45;&gt;Node1 -->
<g id="edge5" class="edge">
<title>Node6&#45;&gt;Node1</title>
<path fill="none" stroke="#9a32cd" stroke-dasharray="5,2" d="M133.36,-58.34C129.69,-51.65 125.08,-44.16 120,-38 114.37,-31.17 106.92,-24.62 100.74,-19.69"/>
<polygon fill="#9a32cd" stroke="#9a32cd" points="130.31,-60.06 138.01,-67.34 136.53,-56.85 130.31,-60.06"/>
<text text-anchor="middle" x="166" y="-41" font-family="Helvetica,sans-Serif" font-size="10.00"> nodeStateStats</text>
</g>
</g>
</svg>
