<?xml version="1.0" encoding="UTF-8" standalone="no"?>
<!DOCTYPE svg PUBLIC "-//W3C//DTD SVG 1.1//EN"
 "http://www.w3.org/Graphics/SVG/1.1/DTD/svg11.dtd">
<!-- Generated by graphviz version 2.49.3 (0)
 -->
<!-- Title: CExtKey::Encode Pages: 1 -->
<svg width="570pt" height="85pt"
 viewBox="0.00 0.00 570.00 85.00" xmlns="http://www.w3.org/2000/svg" xmlns:xlink="http://www.w3.org/1999/xlink">
<g id="graph0" class="graph" transform="scale(1 1) rotate(0) translate(4 81)">
<title>CExtKey::Encode</title>
<polygon fill="white" stroke="transparent" points="-4,4 -4,-81 566,-81 566,4 -4,4"/>
<!-- Node1 -->
<g id="node1" class="node">
<title>Node1</title>
<g id="a_node1"><a xlink:title=" ">
<polygon fill="#bfbfbf" stroke="black" points="464,-19.5 464,-38.5 562,-38.5 562,-19.5 464,-19.5"/>
<text text-anchor="middle" x="513" y="-26.5" font-family="Helvetica,sans-Serif" font-size="10.00">CExtKey::Encode</text>
</a>
</g>
</g>
<!-- Node2 -->
<g id="node2" class="node">
<title>Node2</title>
<g id="a_node2"><a xlink:href="key__io_8cpp.html#a42149c57abf012b68e3ffb7a04636e8f" target="_top" xlink:title=" ">
<polygon fill="white" stroke="black" points="342,-19.5 342,-38.5 428,-38.5 428,-19.5 342,-19.5"/>
<text text-anchor="middle" x="385" y="-26.5" font-family="Helvetica,sans-Serif" font-size="10.00">EncodeExtKey</text>
</a>
</g>
</g>
<!-- Node1&#45;&gt;Node2 -->
<g id="edge1" class="edge">
<title>Node1&#45;&gt;Node2</title>
<path fill="none" stroke="midnightblue" d="M453.4,-29C444.92,-29 436.34,-29 428.26,-29"/>
<polygon fill="midnightblue" stroke="midnightblue" points="453.65,-32.5 463.65,-29 453.65,-25.5 453.65,-32.5"/>
</g>
<!-- Node3 -->
<g id="node3" class="node">
<title>Node3</title>
<g id="a_node3"><a xlink:href="rpcdump_8cpp.html#a5e0e8a39d9dd61d74fa4b97ccb541bb9" target="_top" xlink:title=" ">
<polygon fill="white" stroke="black" points="213,-38.5 213,-57.5 287,-57.5 287,-38.5 213,-38.5"/>
<text text-anchor="middle" x="250" y="-45.5" font-family="Helvetica,sans-Serif" font-size="10.00">dumpwallet</text>
</a>
</g>
</g>
<!-- Node2&#45;&gt;Node3 -->
<g id="edge2" class="edge">
<title>Node2&#45;&gt;Node3</title>
<path fill="none" stroke="midnightblue" d="M331.83,-36.45C316.98,-38.57 301.13,-40.84 287.43,-42.8"/>
<polygon fill="midnightblue" stroke="midnightblue" points="332.51,-39.89 341.92,-35.01 331.52,-32.96 332.51,-39.89"/>
</g>
<!-- Node6 -->
<g id="node6" class="node">
<title>Node6</title>
<g id="a_node6"><a xlink:href="test_2fuzz_2key__io_8cpp.html#aa82a9e6c03d629d431b2fe4bd5d4f339" target="_top" xlink:title=" ">
<polygon fill="white" stroke="black" points="194,-0.5 194,-19.5 306,-19.5 306,-0.5 194,-0.5"/>
<text text-anchor="middle" x="250" y="-7.5" font-family="Helvetica,sans-Serif" font-size="10.00">FUZZ_TARGET_INIT</text>
</a>
</g>
</g>
<!-- Node2&#45;&gt;Node6 -->
<g id="edge5" class="edge">
<title>Node2&#45;&gt;Node6</title>
<path fill="none" stroke="midnightblue" d="M331.92,-21.56C323.56,-20.37 314.88,-19.13 306.44,-17.92"/>
<polygon fill="midnightblue" stroke="midnightblue" points="331.52,-25.04 341.92,-22.99 332.51,-18.11 331.52,-25.04"/>
</g>
<!-- Node4 -->
<g id="node4" class="node">
<title>Node4</title>
<g id="a_node4"><a xlink:href="wallet__tests_8cpp.html#a2a726fa52b0a343883cb50a3f68d0989" target="_top" xlink:title=" ">
<polygon fill="white" stroke="black" points="0,-57.5 0,-76.5 158,-76.5 158,-57.5 0,-57.5"/>
<text text-anchor="middle" x="79" y="-64.5" font-family="Helvetica,sans-Serif" font-size="10.00">BOOST_FIXTURE_TEST_CASE</text>
</a>
</g>
</g>
<!-- Node3&#45;&gt;Node4 -->
<g id="edge3" class="edge">
<title>Node3&#45;&gt;Node4</title>
<path fill="none" stroke="midnightblue" d="M202.6,-53.22C188.85,-54.76 173.4,-56.5 158.22,-58.21"/>
<polygon fill="midnightblue" stroke="midnightblue" points="203.2,-56.67 212.75,-52.08 202.42,-49.72 203.2,-56.67"/>
</g>
<!-- Node5 -->
<g id="node5" class="node">
<title>Node5</title>
<g id="a_node5"><a xlink:href="rpcwallet_8cpp.html#a0f1fb991b53dfc0965c1652a3a032941" target="_top" xlink:title=" ">
<polygon fill="white" stroke="black" points="9,-19.5 9,-38.5 149,-38.5 149,-19.5 9,-19.5"/>
<text text-anchor="middle" x="79" y="-26.5" font-family="Helvetica,sans-Serif" font-size="10.00">GetWalletRPCCommands</text>
</a>
</g>
</g>
<!-- Node3&#45;&gt;Node5 -->
<g id="edge4" class="edge">
<title>Node3&#45;&gt;Node5</title>
<path fill="none" stroke="midnightblue" d="M202.34,-42.75C185.94,-40.91 167.13,-38.8 149.26,-36.79"/>
<polygon fill="midnightblue" stroke="midnightblue" points="202.42,-46.28 212.75,-43.92 203.2,-39.33 202.42,-46.28"/>
</g>
</g>
</svg>
