<?xml version="1.0" encoding="UTF-8" standalone="no"?>
<!DOCTYPE svg PUBLIC "-//W3C//DTD SVG 1.1//EN"
 "http://www.w3.org/Graphics/SVG/1.1/DTD/svg11.dtd">
<!-- Generated by graphviz version 2.38.0 (20140413.2041)
 -->
<!-- Title: GetAdjustedTime Pages: 1 -->
<svg width="1088pt" height="688pt"
 viewBox="0.00 0.00 1088.00 688.00" xmlns="http://www.w3.org/2000/svg" xmlns:xlink="http://www.w3.org/1999/xlink">
<g id="graph0" class="graph" transform="scale(1 1) rotate(0) translate(4 684)">
<title>GetAdjustedTime</title>
<polygon fill="white" stroke="none" points="-4,4 -4,-684 1084,-684 1084,4 -4,4"/>
<!-- Node1 -->
<g id="node1" class="node"><title>Node1</title>
<polygon fill="#bfbfbf" stroke="black" points="0,-394.5 0,-413.5 99,-413.5 99,-394.5 0,-394.5"/>
<text text-anchor="middle" x="49.5" y="-401.5" font-family="Helvetica,sans-Serif" font-size="10.00">GetAdjustedTime</text>
</g>
<!-- Node2 -->
<g id="node2" class="node"><title>Node2</title>
<g id="a_node2"><a xlink:href="class_c_addr_man.html#a0f280b5874a6507b463cae6075063ec2" target="_top" xlink:title="Add an entry to the &quot;new&quot; table. ">
<polygon fill="white" stroke="black" points="166,-660.5 166,-679.5 262,-679.5 262,-660.5 166,-660.5"/>
<text text-anchor="middle" x="214" y="-667.5" font-family="Helvetica,sans-Serif" font-size="10.00">CAddrMan::Add_</text>
</a>
</g>
</g>
<!-- Node1&#45;&gt;Node2 -->
<g id="edge1" class="edge"><title>Node1&#45;&gt;Node2</title>
<path fill="none" stroke="midnightblue" d="M51.1384,-423.551C53.7647,-470.255 67.1352,-589.027 135,-651 143.542,-658.801 154.745,-663.54 165.984,-666.384"/>
<polygon fill="midnightblue" stroke="midnightblue" points="54.634,-423.371 50.6834,-413.541 47.6412,-423.689 54.634,-423.371"/>
</g>
<!-- Node3 -->
<g id="node3" class="node"><title>Node3</title>
<g id="a_node3"><a xlink:href="class_c_addr_man.html#affa9aa35cc02b08ccb908a249ee23472" target="_top" xlink:title="See if any to&#45;be&#45;evicted tried table entries have been tested and if so resolve the collisions...">
<polygon fill="white" stroke="black" points="135,-622.5 135,-641.5 293,-641.5 293,-622.5 135,-622.5"/>
<text text-anchor="middle" x="214" y="-629.5" font-family="Helvetica,sans-Serif" font-size="10.00">CAddrMan::ResolveCollisions_</text>
</a>
</g>
</g>
<!-- Node1&#45;&gt;Node3 -->
<g id="edge2" class="edge"><title>Node1&#45;&gt;Node3</title>
<path fill="none" stroke="midnightblue" d="M52.5301,-423.608C57.9119,-465.151 76.4131,-562.361 135,-613 139.429,-616.828 144.504,-619.911 149.894,-622.391"/>
<polygon fill="midnightblue" stroke="midnightblue" points="56.0047,-423.186 51.3598,-413.664 49.0527,-424.005 56.0047,-423.186"/>
</g>
<!-- Node4 -->
<g id="node4" class="node"><title>Node4</title>
<g id="a_node4"><a xlink:href="class_c_addr_info.html#aee08d115a3314aa8c960fbff960f62b2" target="_top" xlink:title="Calculate in which &quot;new&quot; bucket this entry belongs, using its default source. ">
<polygon fill="white" stroke="black" points="144,-584.5 144,-603.5 284,-603.5 284,-584.5 144,-584.5"/>
<text text-anchor="middle" x="214" y="-591.5" font-family="Helvetica,sans-Serif" font-size="10.00">CAddrInfo::GetNewBucket</text>
</a>
</g>
</g>
<!-- Node1&#45;&gt;Node4 -->
<g id="edge3" class="edge"><title>Node1&#45;&gt;Node4</title>
<path fill="none" stroke="midnightblue" d="M54.4904,-423.659C62.8247,-459.496 85.5601,-535.396 135,-575 139.786,-578.834 145.231,-581.911 150.968,-584.379"/>
<polygon fill="midnightblue" stroke="midnightblue" points="57.8306,-422.55 52.2749,-413.528 50.9922,-424.045 57.8306,-422.55"/>
</g>
<!-- Node5 -->
<g id="node5" class="node"><title>Node5</title>
<g id="a_node5"><a xlink:href="init_8h.html#a15f6e0c217711d40a5433e55748b731d" target="_top" xlink:title="Bitcoin core main initialization. ">
<polygon fill="white" stroke="black" points="178,-546.5 178,-565.5 250,-565.5 250,-546.5 178,-546.5"/>
<text text-anchor="middle" x="214" y="-553.5" font-family="Helvetica,sans-Serif" font-size="10.00">AppInitMain</text>
</a>
</g>
</g>
<!-- Node1&#45;&gt;Node5 -->
<g id="edge4" class="edge"><title>Node1&#45;&gt;Node5</title>
<path fill="none" stroke="midnightblue" d="M58.0978,-423.132C70.1887,-451.146 96.4491,-503.123 135,-532 147.474,-541.344 163.629,-547.089 177.999,-550.603"/>
<polygon fill="midnightblue" stroke="midnightblue" points="61.2332,-421.557 54.1616,-413.667 54.7698,-424.245 61.2332,-421.557"/>
</g>
<!-- Node6 -->
<g id="node6" class="node"><title>Node6</title>
<g id="a_node6"><a xlink:href="miner_8h.html#a9c09903c7d6401b5405db02af064179c" target="_top" xlink:title="UpdateTime">
<polygon fill="white" stroke="black" points="176.5,-470.5 176.5,-489.5 251.5,-489.5 251.5,-470.5 176.5,-470.5"/>
<text text-anchor="middle" x="214" y="-477.5" font-family="Helvetica,sans-Serif" font-size="10.00">UpdateTime</text>
</a>
</g>
</g>
<!-- Node1&#45;&gt;Node6 -->
<g id="edge5" class="edge"><title>Node1&#45;&gt;Node6</title>
<path fill="none" stroke="midnightblue" d="M69.9723,-420.092C86.3809,-432.898 110.965,-450.376 135,-461 148.003,-466.747 163.027,-470.931 176.397,-473.885"/>
<polygon fill="midnightblue" stroke="midnightblue" points="71.752,-417.034 61.7529,-413.531 67.3852,-422.505 71.752,-417.034"/>
</g>
<!-- Node7 -->
<g id="node7" class="node"><title>Node7</title>
<g id="a_node7"><a xlink:href="class_block_assembler.html#acd45f01ed2556e805c82907def19efcb" target="_top" xlink:title="Construct a new block template with coinbase to scriptPubKeyIn. ">
<polygon fill="white" stroke="black" points="350,-487 350,-517 502,-517 502,-487 350,-487"/>
<text text-anchor="start" x="358" y="-505" font-family="Helvetica,sans-Serif" font-size="10.00">BlockAssembler::CreateNew</text>
<text text-anchor="middle" x="426" y="-494" font-family="Helvetica,sans-Serif" font-size="10.00">Block</text>
</a>
</g>
</g>
<!-- Node1&#45;&gt;Node7 -->
<g id="edge7" class="edge"><title>Node1&#45;&gt;Node7</title>
<path fill="none" stroke="midnightblue" d="M60.3687,-422.396C73.7967,-445.249 100.193,-483.159 135,-499 203.626,-530.232 291.197,-525.951 352.067,-517.018"/>
<polygon fill="midnightblue" stroke="midnightblue" points="63.3851,-420.619 55.4212,-413.632 57.2893,-424.061 63.3851,-420.619"/>
</g>
<!-- Node8 -->
<g id="node8" class="node"><title>Node8</title>
<g id="a_node8"><a xlink:href="net_8h.html#a01304c8caa7997b48da307d19d1d284a" target="_top" xlink:title="GetLocalAddress">
<polygon fill="white" stroke="black" points="165,-356.5 165,-375.5 263,-375.5 263,-356.5 165,-356.5"/>
<text text-anchor="middle" x="214" y="-363.5" font-family="Helvetica,sans-Serif" font-size="10.00">GetLocalAddress</text>
</a>
</g>
</g>
<!-- Node1&#45;&gt;Node8 -->
<g id="edge8" class="edge"><title>Node1&#45;&gt;Node8</title>
<path fill="none" stroke="midnightblue" d="M101.371,-392.104C124.212,-386.763 150.795,-380.546 172.289,-375.52"/>
<polygon fill="midnightblue" stroke="midnightblue" points="100.446,-388.726 91.5056,-394.411 102.04,-395.542 100.446,-388.726"/>
</g>
<!-- Node10 -->
<g id="node10" class="node"><title>Node10</title>
<g id="a_node10"><a xlink:href="class_peer_logic_validation.html#a04dab16e6310bf18d432111cb6b126ad" target="_top" xlink:title="Send queued protocol messages to be sent to a give node. ">
<polygon fill="white" stroke="black" points="581.5,-386 581.5,-416 691.5,-416 691.5,-386 581.5,-386"/>
<text text-anchor="start" x="589.5" y="-404" font-family="Helvetica,sans-Serif" font-size="10.00">PeerLogicValidation</text>
<text text-anchor="middle" x="636.5" y="-393" font-family="Helvetica,sans-Serif" font-size="10.00">::SendMessages</text>
</a>
</g>
</g>
<!-- Node1&#45;&gt;Node10 -->
<g id="edge22" class="edge"><title>Node1&#45;&gt;Node10</title>
<path fill="none" stroke="midnightblue" d="M109.631,-403.697C223.46,-403.113 471.471,-401.841 581.299,-401.278"/>
<polygon fill="midnightblue" stroke="midnightblue" points="109.352,-400.198 99.3706,-403.749 109.388,-407.198 109.352,-400.198"/>
</g>
<!-- Node11 -->
<g id="node11" class="node"><title>Node11</title>
<g id="a_node11"><a xlink:href="net__processing_8cpp.html#a4c3f4b7e7b0e61fb40a351f816b363c5" target="_top" xlink:title="while">
<polygon fill="white" stroke="black" points="616.5,-307.5 616.5,-326.5 656.5,-326.5 656.5,-307.5 616.5,-307.5"/>
<text text-anchor="middle" x="636.5" y="-314.5" font-family="Helvetica,sans-Serif" font-size="10.00">while</text>
</a>
</g>
</g>
<!-- Node1&#45;&gt;Node11 -->
<g id="edge21" class="edge"><title>Node1&#45;&gt;Node11</title>
<path fill="none" stroke="midnightblue" d="M68.6226,-387.852C84.8059,-374.447 109.786,-356.149 135,-347 312.157,-282.716 547.634,-305.706 616.083,-314.331"/>
<polygon fill="midnightblue" stroke="midnightblue" points="66.3482,-385.192 61.007,-394.342 70.8884,-390.52 66.3482,-385.192"/>
</g>
<!-- Node12 -->
<g id="node12" class="node"><title>Node12</title>
<g id="a_node12"><a xlink:href="class_c_connman.html#a65aba17d8735bd9612d4ca9abb35789f" target="_top" xlink:title="CConnman::ConnectNode">
<polygon fill="white" stroke="black" points="143.5,-122.5 143.5,-141.5 284.5,-141.5 284.5,-122.5 143.5,-122.5"/>
<text text-anchor="middle" x="214" y="-129.5" font-family="Helvetica,sans-Serif" font-size="10.00">CConnman::ConnectNode</text>
</a>
</g>
</g>
<!-- Node1&#45;&gt;Node12 -->
<g id="edge12" class="edge"><title>Node1&#45;&gt;Node12</title>
<path fill="none" stroke="midnightblue" d="M52.236,-384.386C57.1642,-339.917 75.0342,-230.311 135,-166 145.679,-154.548 160.887,-146.75 175.043,-141.544"/>
<polygon fill="midnightblue" stroke="midnightblue" points="48.7426,-384.146 51.224,-394.446 55.7075,-384.846 48.7426,-384.146"/>
</g>
<!-- Node15 -->
<g id="node15" class="node"><title>Node15</title>
<g id="a_node15"><a xlink:href="class_c_connman.html#a55e9feafc3bab78e5c9d408c207faa45" target="_top" xlink:title="CConnman::ThreadOpenConnections">
<polygon fill="white" stroke="black" points="750,-124.5 750,-143.5 944,-143.5 944,-124.5 750,-124.5"/>
<text text-anchor="middle" x="847" y="-131.5" font-family="Helvetica,sans-Serif" font-size="10.00">CConnman::ThreadOpenConnections</text>
</a>
</g>
</g>
<!-- Node1&#45;&gt;Node15 -->
<g id="edge20" class="edge"><title>Node1&#45;&gt;Node15</title>
<path fill="none" stroke="midnightblue" d="M52.1107,-384.077C56.6808,-341.994 73.7029,-244.21 135,-199 147.235,-189.976 558.551,-156.588 749.885,-141.495"/>
<polygon fill="midnightblue" stroke="midnightblue" points="48.614,-383.876 51.1431,-394.164 55.582,-384.544 48.614,-383.876"/>
</g>
<!-- Node18 -->
<g id="node18" class="node"><title>Node18</title>
<g id="a_node18"><a xlink:href="class_c_median_filter.html#afbfe7258f17cec5cc7f2f105d03b0567" target="_top" xlink:title="CMedianFilter::sorted">
<polygon fill="white" stroke="black" points="155.5,-258.5 155.5,-277.5 272.5,-277.5 272.5,-258.5 155.5,-258.5"/>
<text text-anchor="middle" x="214" y="-265.5" font-family="Helvetica,sans-Serif" font-size="10.00">CMedianFilter::sorted</text>
</a>
</g>
</g>
<!-- Node1&#45;&gt;Node18 -->
<g id="edge23" class="edge"><title>Node1&#45;&gt;Node18</title>
<path fill="none" stroke="midnightblue" d="M59.8643,-385.14C73.1885,-360.21 99.9418,-316.58 135,-292 143.933,-285.737 154.549,-281.071 165.027,-277.606"/>
<polygon fill="midnightblue" stroke="midnightblue" points="56.6217,-383.791 55.1352,-394.281 62.839,-387.008 56.6217,-383.791"/>
</g>
<!-- Node20 -->
<g id="node20" class="node"><title>Node20</title>
<g id="a_node20"><a xlink:href="validation_8h.html#abcdc523b36a20cb4ac877ae806bd9e0e" target="_top" xlink:title="Transaction validation functions. ">
<polygon fill="white" stroke="black" points="175.5,-38.5 175.5,-57.5 252.5,-57.5 252.5,-38.5 175.5,-38.5"/>
<text text-anchor="middle" x="214" y="-45.5" font-family="Helvetica,sans-Serif" font-size="10.00">CheckFinalTx</text>
</a>
</g>
</g>
<!-- Node1&#45;&gt;Node20 -->
<g id="edge27" class="edge"><title>Node1&#45;&gt;Node20</title>
<path fill="none" stroke="midnightblue" d="M52.2275,-384.386C57.3692,-335.001 76.0834,-203.057 135,-113 150.923,-88.6608 178.723,-68.694 196.475,-57.5743"/>
<polygon fill="midnightblue" stroke="midnightblue" points="48.7415,-384.073 51.2605,-394.364 55.7089,-384.749 48.7415,-384.073"/>
</g>
<!-- Node23 -->
<g id="node23" class="node"><title>Node23</title>
<g id="a_node23"><a xlink:href="class_c_chain_state.html#ab70c11d94a3f6e5cae415521437ef627" target="_top" xlink:title="If a block header hasn&#39;t already been seen, call CheckBlockHeader on it, ensure that it doesn&#39;t desce...">
<polygon fill="white" stroke="black" points="143.5,-209 143.5,-239 284.5,-239 284.5,-209 143.5,-209"/>
<text text-anchor="start" x="151.5" y="-227" font-family="Helvetica,sans-Serif" font-size="10.00">CChainState::AcceptBlock</text>
<text text-anchor="middle" x="214" y="-216" font-family="Helvetica,sans-Serif" font-size="10.00">Header</text>
</a>
</g>
</g>
<!-- Node1&#45;&gt;Node23 -->
<g id="edge33" class="edge"><title>Node1&#45;&gt;Node23</title>
<path fill="none" stroke="midnightblue" d="M55.8558,-384.655C65.8981,-351.939 90.6484,-285.674 135,-249 139.712,-245.103 145.042,-241.811 150.649,-239.028"/>
<polygon fill="midnightblue" stroke="midnightblue" points="52.4617,-383.792 53.007,-394.372 59.179,-385.761 52.4617,-383.792"/>
</g>
<!-- Node27 -->
<g id="node27" class="node"><title>Node27</title>
<g id="a_node27"><a xlink:href="validation_8h.html#a0ec350d618710819b35262406646a0ab" target="_top" xlink:title="Check a block is completely valid from start to finish (only works on top of our current best block) ...">
<polygon fill="white" stroke="black" points="166.5,-432.5 166.5,-451.5 261.5,-451.5 261.5,-432.5 166.5,-432.5"/>
<text text-anchor="middle" x="214" y="-439.5" font-family="Helvetica,sans-Serif" font-size="10.00">TestBlockValidity</text>
</a>
</g>
</g>
<!-- Node1&#45;&gt;Node27 -->
<g id="edge38" class="edge"><title>Node1&#45;&gt;Node27</title>
<path fill="none" stroke="midnightblue" d="M101.371,-415.896C124.212,-421.237 150.795,-427.454 172.289,-432.48"/>
<polygon fill="midnightblue" stroke="midnightblue" points="102.04,-412.458 91.5056,-413.589 100.446,-419.274 102.04,-412.458"/>
</g>
<!-- Node6&#45;&gt;Node7 -->
<g id="edge6" class="edge"><title>Node6&#45;&gt;Node7</title>
<path fill="none" stroke="midnightblue" d="M261.842,-484.907C287.683,-487.614 320.389,-491.041 349.723,-494.114"/>
<polygon fill="midnightblue" stroke="midnightblue" points="261.889,-481.393 251.579,-483.832 261.16,-488.355 261.889,-481.393"/>
</g>
<!-- Node9 -->
<g id="node9" class="node"><title>Node9</title>
<g id="a_node9"><a xlink:href="net_8h.html#a0cde2b3256757536c42c0bd3037847d1" target="_top" xlink:title="AdvertiseLocal">
<polygon fill="white" stroke="black" points="383,-372.5 383,-391.5 469,-391.5 469,-372.5 383,-372.5"/>
<text text-anchor="middle" x="426" y="-379.5" font-family="Helvetica,sans-Serif" font-size="10.00">AdvertiseLocal</text>
</a>
</g>
</g>
<!-- Node8&#45;&gt;Node9 -->
<g id="edge9" class="edge"><title>Node8&#45;&gt;Node9</title>
<path fill="none" stroke="midnightblue" d="M273.195,-370.434C307.935,-373.081 351.268,-376.382 382.734,-378.78"/>
<polygon fill="midnightblue" stroke="midnightblue" points="273.415,-366.941 263.178,-369.671 272.883,-373.92 273.415,-366.941"/>
</g>
<!-- Node8&#45;&gt;Node11 -->
<g id="edge11" class="edge"><title>Node8&#45;&gt;Node11</title>
<path fill="none" stroke="midnightblue" d="M273.356,-359.2C369.329,-348.016 555.865,-326.28 616.183,-319.251"/>
<polygon fill="midnightblue" stroke="midnightblue" points="272.764,-355.745 263.237,-360.379 273.575,-362.698 272.764,-355.745"/>
</g>
<!-- Node9&#45;&gt;Node10 -->
<g id="edge10" class="edge"><title>Node9&#45;&gt;Node10</title>
<path fill="none" stroke="midnightblue" d="M479.419,-386.777C510.58,-389.616 550.027,-393.211 581.467,-396.076"/>
<polygon fill="midnightblue" stroke="midnightblue" points="479.469,-383.267 469.193,-385.845 478.834,-390.238 479.469,-383.267"/>
</g>
<!-- Node13 -->
<g id="node13" class="node"><title>Node13</title>
<g id="a_node13"><a xlink:href="class_c_connman.html#a5e42e06d446f31b4f2012796ff8d3e42" target="_top" xlink:title="CConnman::OpenNetworkConnection">
<polygon fill="white" stroke="black" points="329,-113.5 329,-132.5 523,-132.5 523,-113.5 329,-113.5"/>
<text text-anchor="middle" x="426" y="-120.5" font-family="Helvetica,sans-Serif" font-size="10.00">CConnman::OpenNetworkConnection</text>
</a>
</g>
</g>
<!-- Node12&#45;&gt;Node13 -->
<g id="edge13" class="edge"><title>Node12&#45;&gt;Node13</title>
<path fill="none" stroke="midnightblue" d="M294.771,-128.581C305.948,-128.102 317.531,-127.606 328.971,-127.116"/>
<polygon fill="midnightblue" stroke="midnightblue" points="294.476,-125.091 284.635,-129.016 294.776,-132.084 294.476,-125.091"/>
</g>
<!-- Node14 -->
<g id="node14" class="node"><title>Node14</title>
<g id="a_node14"><a xlink:href="class_c_connman.html#a161f1b41271db1a10cec61a825524b5d" target="_top" xlink:title="CConnman::ProcessOneShot">
<polygon fill="white" stroke="black" points="559,-94.5 559,-113.5 714,-113.5 714,-94.5 559,-94.5"/>
<text text-anchor="middle" x="636.5" y="-101.5" font-family="Helvetica,sans-Serif" font-size="10.00">CConnman::ProcessOneShot</text>
</a>
</g>
</g>
<!-- Node13&#45;&gt;Node14 -->
<g id="edge14" class="edge"><title>Node13&#45;&gt;Node14</title>
<path fill="none" stroke="midnightblue" d="M533.132,-113.329C541.758,-112.542 550.367,-111.758 558.723,-110.996"/>
<polygon fill="midnightblue" stroke="midnightblue" points="532.652,-109.858 523.011,-114.251 533.288,-116.829 532.652,-109.858"/>
</g>
<!-- Node13&#45;&gt;Node15 -->
<g id="edge17" class="edge"><title>Node13&#45;&gt;Node15</title>
<path fill="none" stroke="midnightblue" d="M533.248,-125.789C599.955,-127.541 685.285,-129.781 749.958,-131.479"/>
<polygon fill="midnightblue" stroke="midnightblue" points="533.216,-122.287 523.127,-125.524 533.032,-129.285 533.216,-122.287"/>
</g>
<!-- Node17 -->
<g id="node17" class="node"><title>Node17</title>
<g id="a_node17"><a xlink:href="class_c_connman.html#a0b787caf95e52a346a2b31a580d60a62" target="_top" xlink:title="CConnman::ThreadOpenAdded\lConnections">
<polygon fill="white" stroke="black" points="764.5,-67 764.5,-97 929.5,-97 929.5,-67 764.5,-67"/>
<text text-anchor="start" x="772.5" y="-85" font-family="Helvetica,sans-Serif" font-size="10.00">CConnman::ThreadOpenAdded</text>
<text text-anchor="middle" x="847" y="-74" font-family="Helvetica,sans-Serif" font-size="10.00">Connections</text>
</a>
</g>
</g>
<!-- Node13&#45;&gt;Node17 -->
<g id="edge18" class="edge"><title>Node13&#45;&gt;Node17</title>
<path fill="none" stroke="midnightblue" d="M461.86,-110.167C488.149,-101.181 525.314,-89.9319 559,-85 627.655,-74.9483 706.538,-74.9441 764.208,-77.0309"/>
<polygon fill="midnightblue" stroke="midnightblue" points="460.638,-106.886 452.347,-113.483 462.942,-113.496 460.638,-106.886"/>
</g>
<!-- Node14&#45;&gt;Node15 -->
<g id="edge15" class="edge"><title>Node14&#45;&gt;Node15</title>
<path fill="none" stroke="midnightblue" d="M713.897,-114.992C735.548,-118.108 758.929,-121.472 779.915,-124.491"/>
<polygon fill="midnightblue" stroke="midnightblue" points="714.154,-111.493 703.757,-113.533 713.157,-118.422 714.154,-111.493"/>
</g>
<!-- Node16 -->
<g id="node16" class="node"><title>Node16</title>
<g id="a_node16"><a xlink:href="class_c_connman.html#aa4709e5604e0f4369dada0a211493565" target="_top" xlink:title="CConnman::Start">
<polygon fill="white" stroke="black" points="980,-98.5 980,-117.5 1080,-117.5 1080,-98.5 980,-98.5"/>
<text text-anchor="middle" x="1030" y="-105.5" font-family="Helvetica,sans-Serif" font-size="10.00">CConnman::Start</text>
</a>
</g>
</g>
<!-- Node15&#45;&gt;Node16 -->
<g id="edge16" class="edge"><title>Node15&#45;&gt;Node16</title>
<path fill="none" stroke="midnightblue" d="M924.403,-123.025C943.198,-120.325 962.824,-117.506 979.931,-115.049"/>
<polygon fill="midnightblue" stroke="midnightblue" points="923.771,-119.58 914.37,-124.466 924.766,-126.509 923.771,-119.58"/>
</g>
<!-- Node17&#45;&gt;Node16 -->
<g id="edge19" class="edge"><title>Node17&#45;&gt;Node16</title>
<path fill="none" stroke="midnightblue" d="M939.838,-95.1922C953.69,-97.182 967.5,-99.1657 979.97,-100.957"/>
<polygon fill="midnightblue" stroke="midnightblue" points="940.159,-91.7024 929.763,-93.7449 939.163,-98.6313 940.159,-91.7024"/>
</g>
<!-- Node19 -->
<g id="node19" class="node"><title>Node19</title>
<g id="a_node19"><a xlink:href="timedata_8h.html#ad8af089fc8835e11c7d77f6b473fccae" target="_top" xlink:title="AddTimeData">
<polygon fill="white" stroke="black" points="385,-258.5 385,-277.5 467,-277.5 467,-258.5 385,-258.5"/>
<text text-anchor="middle" x="426" y="-265.5" font-family="Helvetica,sans-Serif" font-size="10.00">AddTimeData</text>
</a>
</g>
</g>
<!-- Node18&#45;&gt;Node19 -->
<g id="edge24" class="edge"><title>Node18&#45;&gt;Node19</title>
<path fill="none" stroke="midnightblue" d="M282.891,-261.64C316.514,-260.905 355.964,-261.209 384.756,-262.553"/>
<polygon fill="midnightblue" stroke="midnightblue" points="282.568,-258.147 272.661,-261.901 282.747,-265.144 282.568,-258.147"/>
</g>
<!-- Node19&#45;&gt;Node11 -->
<g id="edge25" class="edge"><title>Node19&#45;&gt;Node11</title>
<path fill="none" stroke="midnightblue" d="M477.022,-279.756C521.805,-290.28 585.089,-305.153 616.41,-312.514"/>
<polygon fill="midnightblue" stroke="midnightblue" points="477.736,-276.328 467.201,-277.448 476.135,-283.143 477.736,-276.328"/>
</g>
<!-- Node19&#45;&gt;Node18 -->
<g id="edge26" class="edge"><title>Node19&#45;&gt;Node18</title>
<path fill="none" stroke="midnightblue" d="M374.697,-273.859C343.99,-274.961 304.625,-275.041 272.661,-274.099"/>
<polygon fill="midnightblue" stroke="midnightblue" points="374.908,-277.354 384.756,-273.447 374.621,-270.36 374.908,-277.354"/>
</g>
<!-- Node21 -->
<g id="node21" class="node"><title>Node21</title>
<g id="a_node21"><a xlink:href="class_c_tx_mem_pool.html#a14d49e10e7c1a12335bf983891c1ed07" target="_top" xlink:title="CTxMemPool::removeForReorg">
<polygon fill="white" stroke="black" points="344.5,-0.5 344.5,-19.5 507.5,-19.5 507.5,-0.5 344.5,-0.5"/>
<text text-anchor="middle" x="426" y="-7.5" font-family="Helvetica,sans-Serif" font-size="10.00">CTxMemPool::removeForReorg</text>
</a>
</g>
</g>
<!-- Node20&#45;&gt;Node21 -->
<g id="edge28" class="edge"><title>Node20&#45;&gt;Node21</title>
<path fill="none" stroke="midnightblue" d="M262.751,-39.3594C295.421,-33.4477 338.74,-25.6089 372.4,-19.5181"/>
<polygon fill="midnightblue" stroke="midnightblue" points="261.761,-35.9816 252.544,-41.2064 263.007,-42.8697 261.761,-35.9816"/>
</g>
<!-- Node22 -->
<g id="node22" class="node"><title>Node22</title>
<g id="a_node22"><a xlink:href="validation_8h.html#a666c20fae7b9d75f2d9f4fedd059995a" target="_top" xlink:title="Check if transaction will be BIP 68 final in the next block to be created. ">
<polygon fill="white" stroke="black" points="576,-0.5 576,-19.5 697,-19.5 697,-0.5 576,-0.5"/>
<text text-anchor="middle" x="636.5" y="-7.5" font-family="Helvetica,sans-Serif" font-size="10.00">CheckSequenceLocks</text>
</a>
</g>
</g>
<!-- Node20&#45;&gt;Node22 -->
<g id="edge32" class="edge"><title>Node20&#45;&gt;Node22</title>
<path fill="none" stroke="midnightblue" d="M262.604,-46.6239C323.238,-44.5133 431.179,-39.5559 523,-29 543.761,-26.6133 566.516,-22.9669 586.097,-19.5045"/>
<polygon fill="midnightblue" stroke="midnightblue" points="262.444,-43.1272 252.568,-46.9622 262.68,-50.1232 262.444,-43.1272"/>
</g>
<!-- Node21&#45;&gt;Node22 -->
<g id="edge29" class="edge"><title>Node21&#45;&gt;Node22</title>
<path fill="none" stroke="midnightblue" d="M517.805,-3.30015C537.438,-3.15296 557.719,-3.32978 575.798,-3.83063"/>
<polygon fill="midnightblue" stroke="midnightblue" points="517.574,0.197733 507.612,-3.40666 517.648,-6.80188 517.574,0.197733"/>
</g>
<!-- Node22&#45;&gt;Node21 -->
<g id="edge30" class="edge"><title>Node22&#45;&gt;Node21</title>
<path fill="none" stroke="midnightblue" d="M565.641,-16.4123C547.023,-16.7908 526.756,-16.8511 507.612,-16.5933"/>
<polygon fill="midnightblue" stroke="midnightblue" points="565.885,-19.9076 575.798,-16.1694 565.717,-12.9096 565.885,-19.9076"/>
</g>
<!-- Node22&#45;&gt;Node22 -->
<g id="edge31" class="edge"><title>Node22&#45;&gt;Node22</title>
<path fill="none" stroke="midnightblue" d="M597.223,-26.618C595.847,-32.8557 608.939,-38 636.5,-38 674.029,-38 684.731,-28.4613 668.605,-19.6119"/>
<polygon fill="midnightblue" stroke="midnightblue" points="599.687,-29.1036 604.395,-19.6119 594.796,-24.0963 599.687,-29.1036"/>
</g>
<!-- Node24 -->
<g id="node24" class="node"><title>Node24</title>
<g id="a_node24"><a xlink:href="validation_8h.html#ad959cc64d22660f1f561798040bb1f6a" target="_top" xlink:title="Process incoming block headers. ">
<polygon fill="white" stroke="black" points="356,-217.5 356,-236.5 496,-236.5 496,-217.5 356,-217.5"/>
<text text-anchor="middle" x="426" y="-224.5" font-family="Helvetica,sans-Serif" font-size="10.00">ProcessNewBlockHeaders</text>
</a>
</g>
</g>
<!-- Node23&#45;&gt;Node24 -->
<g id="edge34" class="edge"><title>Node23&#45;&gt;Node24</title>
<path fill="none" stroke="midnightblue" d="M294.719,-225.139C314.867,-225.427 336.336,-225.733 355.911,-226.013"/>
<polygon fill="midnightblue" stroke="midnightblue" points="294.684,-221.638 284.635,-224.995 294.584,-228.637 294.684,-221.638"/>
</g>
<!-- Node24&#45;&gt;Node11 -->
<g id="edge36" class="edge"><title>Node24&#45;&gt;Node11</title>
<path fill="none" stroke="midnightblue" d="M505.559,-240.04C511.689,-242.527 517.59,-245.484 523,-249 545.36,-263.531 536.864,-282.13 559,-297 576.321,-308.635 600.042,-313.504 616.458,-315.54"/>
<polygon fill="midnightblue" stroke="midnightblue" points="506.371,-236.612 495.777,-236.506 503.993,-243.195 506.371,-236.612"/>
</g>
<!-- Node25 -->
<g id="node25" class="node"><title>Node25</title>
<g id="a_node25"><a xlink:href="class_peer_logic_validation.html#a124965d7310e0df08cc027d4e1cbbe7b" target="_top" xlink:title="Overridden from CValidationInterface. ">
<polygon fill="white" stroke="black" points="581.5,-258 581.5,-288 691.5,-288 691.5,-258 581.5,-258"/>
<text text-anchor="start" x="589.5" y="-276" font-family="Helvetica,sans-Serif" font-size="10.00">PeerLogicValidation</text>
<text text-anchor="middle" x="636.5" y="-265" font-family="Helvetica,sans-Serif" font-size="10.00">::BlockChecked</text>
</a>
</g>
</g>
<!-- Node24&#45;&gt;Node25 -->
<g id="edge35" class="edge"><title>Node24&#45;&gt;Node25</title>
<path fill="none" stroke="midnightblue" d="M480.363,-238.773C511.287,-245.596 550.127,-254.165 581.208,-261.022"/>
<polygon fill="midnightblue" stroke="midnightblue" points="480.721,-235.268 470.201,-236.531 479.212,-242.104 480.721,-235.268"/>
</g>
<!-- Node26 -->
<g id="node26" class="node"><title>Node26</title>
<g id="a_node26"><a xlink:href="classsubmitblock___state_catcher.html#a89abec4d0d8ea6b2cd651439e3a4f45f" target="_top" xlink:title="Notifies listeners of a block validation result. ">
<polygon fill="white" stroke="black" points="565,-209 565,-239 708,-239 708,-209 565,-209"/>
<text text-anchor="start" x="573" y="-227" font-family="Helvetica,sans-Serif" font-size="10.00">submitblock_StateCatcher</text>
<text text-anchor="middle" x="636.5" y="-216" font-family="Helvetica,sans-Serif" font-size="10.00">::BlockChecked</text>
</a>
</g>
</g>
<!-- Node24&#45;&gt;Node26 -->
<g id="edge37" class="edge"><title>Node24&#45;&gt;Node26</title>
<path fill="none" stroke="midnightblue" d="M506.363,-225.858C525.575,-225.582 545.983,-225.288 564.767,-225.018"/>
<polygon fill="midnightblue" stroke="midnightblue" points="506.086,-222.362 496.138,-226.005 506.187,-229.361 506.086,-222.362"/>
</g>
<!-- Node27&#45;&gt;Node7 -->
<g id="edge40" class="edge"><title>Node27&#45;&gt;Node7</title>
<path fill="none" stroke="midnightblue" d="M270.098,-454.109C277.852,-456.193 285.672,-458.502 293,-461 309.572,-466.65 312.473,-471.219 329,-477 339.323,-480.611 350.431,-483.969 361.301,-486.977"/>
<polygon fill="midnightblue" stroke="midnightblue" points="270.912,-450.705 260.355,-451.593 269.162,-457.482 270.912,-450.705"/>
</g>
<!-- Node28 -->
<g id="node28" class="node"><title>Node28</title>
<g id="a_node28"><a xlink:href="class_c_script_check.html#a4bad3434ddad70669f634879a8af132e" target="_top" xlink:title="CScriptCheck::GetScriptError">
<polygon fill="white" stroke="black" points="348.5,-448.5 348.5,-467.5 503.5,-467.5 503.5,-448.5 348.5,-448.5"/>
<text text-anchor="middle" x="426" y="-455.5" font-family="Helvetica,sans-Serif" font-size="10.00">CScriptCheck::GetScriptError</text>
</a>
</g>
</g>
<!-- Node27&#45;&gt;Node28 -->
<g id="edge39" class="edge"><title>Node27&#45;&gt;Node28</title>
<path fill="none" stroke="midnightblue" d="M271.78,-446.326C295.36,-448.123 323.083,-450.235 348.419,-452.165"/>
<polygon fill="midnightblue" stroke="midnightblue" points="271.843,-442.821 261.606,-445.551 271.311,-449.801 271.843,-442.821"/>
</g>
</g>
</svg>
