<?xml version="1.0" encoding="UTF-8" standalone="no"?>
<!DOCTYPE svg PUBLIC "-//W3C//DTD SVG 1.1//EN"
 "http://www.w3.org/Graphics/SVG/1.1/DTD/svg11.dtd">
<!-- Generated by graphviz version 2.40.1 (20161225.0304)
 -->
<!-- Title: src/index/txindex.h Pages: 1 -->
<svg width="2375pt" height="476pt"
 viewBox="0.00 0.00 2375.00 476.00" xmlns="http://www.w3.org/2000/svg" xmlns:xlink="http://www.w3.org/1999/xlink">
<g id="graph0" class="graph" transform="scale(1 1) rotate(0) translate(4 472)">
<title>src/index/txindex.h</title>
<polygon fill="#ffffff" stroke="transparent" points="-4,4 -4,-472 2371,-472 2371,4 -4,4"/>
<!-- Node0 -->
<g id="node1" class="node">
<title>Node0</title>
<polygon fill="#bfbfbf" stroke="#000000" points="775.5,-448.5 775.5,-467.5 874.5,-467.5 874.5,-448.5 775.5,-448.5"/>
<text text-anchor="middle" x="825" y="-455.5" font-family="Helvetica,sans-Serif" font-size="10.00" fill="#000000">src/index/txindex.h</text>
</g>
<!-- Node1 -->
<g id="node2" class="node">
<title>Node1</title>
<g id="a_node2"><a xlink:href="chain_8h.html" target="_top" xlink:title="chain.h">
<polygon fill="#ffffff" stroke="#000000" points="371,-280.5 371,-299.5 419,-299.5 419,-280.5 371,-280.5"/>
<text text-anchor="middle" x="395" y="-287.5" font-family="Helvetica,sans-Serif" font-size="10.00" fill="#000000">chain.h</text>
</a>
</g>
</g>
<!-- Node0&#45;&gt;Node1 -->
<g id="edge1" class="edge">
<title>Node0&#45;&gt;Node1</title>
<path fill="none" stroke="#191970" d="M800.6493,-448.4862C727.921,-420.0715 512.179,-335.7816 428.6022,-303.1283"/>
<polygon fill="#191970" stroke="#191970" points="429.6717,-299.7886 419.0836,-299.4094 427.1243,-306.3086 429.6717,-299.7886"/>
</g>
<!-- Node53 -->
<g id="node27" class="node">
<title>Node53</title>
<g id="a_node27"><a xlink:href="base_8h.html" target="_top" xlink:title="index/base.h">
<polygon fill="#ffffff" stroke="#000000" points="790,-280.5 790,-299.5 862,-299.5 862,-280.5 790,-280.5"/>
<text text-anchor="middle" x="826" y="-287.5" font-family="Helvetica,sans-Serif" font-size="10.00" fill="#000000">index/base.h</text>
</a>
</g>
</g>
<!-- Node0&#45;&gt;Node53 -->
<g id="edge57" class="edge">
<title>Node0&#45;&gt;Node53</title>
<path fill="none" stroke="#191970" d="M825.0566,-448.4862C825.2147,-421.9293 825.6633,-346.5651 825.88,-310.1655"/>
<polygon fill="#191970" stroke="#191970" points="829.3818,-309.8486 825.9415,-299.8279 822.3819,-309.8068 829.3818,-309.8486"/>
</g>
<!-- Node87 -->
<g id="node44" class="node">
<title>Node87</title>
<g id="a_node44"><a xlink:href="txdb_8h.html" target="_top" xlink:title="txdb.h">
<polygon fill="#ffffff" stroke="#000000" points="1420,-392.5 1420,-411.5 1464,-411.5 1464,-392.5 1420,-392.5"/>
<text text-anchor="middle" x="1442" y="-399.5" font-family="Helvetica,sans-Serif" font-size="10.00" fill="#000000">txdb.h</text>
</a>
</g>
</g>
<!-- Node0&#45;&gt;Node87 -->
<g id="edge103" class="edge">
<title>Node0&#45;&gt;Node87</title>
<path fill="none" stroke="#191970" d="M874.7086,-453.4884C996.7195,-442.4144 1308.3895,-414.1267 1409.6732,-404.934"/>
<polygon fill="#191970" stroke="#191970" points="1410.2447,-408.3966 1419.8874,-404.007 1409.6119,-401.4253 1410.2447,-408.3966"/>
</g>
<!-- Node2 -->
<g id="node3" class="node">
<title>Node2</title>
<g id="a_node3"><a xlink:href="arith__uint256_8h.html" target="_top" xlink:title="arith_uint256.h">
<polygon fill="#ffffff" stroke="#000000" points="299,-56.5 299,-75.5 379,-75.5 379,-56.5 299,-56.5"/>
<text text-anchor="middle" x="339" y="-63.5" font-family="Helvetica,sans-Serif" font-size="10.00" fill="#000000">arith_uint256.h</text>
</a>
</g>
</g>
<!-- Node1&#45;&gt;Node2 -->
<g id="edge2" class="edge">
<title>Node1&#45;&gt;Node2</title>
<path fill="none" stroke="#191970" d="M392.5938,-280.375C384.1033,-246.4133 355.4368,-131.7472 343.8848,-85.5392"/>
<polygon fill="#191970" stroke="#191970" points="347.2182,-84.4417 341.3973,-75.5891 340.4272,-86.1395 347.2182,-84.4417"/>
</g>
<!-- Node8 -->
<g id="node9" class="node">
<title>Node8</title>
<polygon fill="#ffffff" stroke="#bfbfbf" points="1170,-.5 1170,-19.5 1214,-19.5 1214,-.5 1170,-.5"/>
<text text-anchor="middle" x="1192" y="-7.5" font-family="Helvetica,sans-Serif" font-size="10.00" fill="#000000">vector</text>
</g>
<!-- Node1&#45;&gt;Node8 -->
<g id="edge56" class="edge">
<title>Node1&#45;&gt;Node8</title>
<path fill="none" stroke="#191970" d="M419.164,-288.6588C486.5083,-284.613 674.9661,-271.1063 730,-244 773.1359,-222.7539 764.5314,-190.5503 807,-168 879.0562,-129.7391 913.9169,-168.261 987,-132 1032.6934,-109.3287 1029.4157,-82.5007 1073,-56 1100.6123,-39.2108 1135.4029,-26.6175 1160.2211,-18.8907"/>
<polygon fill="#191970" stroke="#191970" points="1161.3067,-22.219 1169.8666,-15.9758 1159.2817,-15.5183 1161.3067,-22.219"/>
</g>
<!-- Node9 -->
<g id="node10" class="node">
<title>Node9</title>
<g id="a_node10"><a xlink:href="params_8h.html" target="_top" xlink:title="consensus/params.h">
<polygon fill="#ffffff" stroke="#000000" points="815.5,-168.5 815.5,-187.5 922.5,-187.5 922.5,-168.5 815.5,-168.5"/>
<text text-anchor="middle" x="869" y="-175.5" font-family="Helvetica,sans-Serif" font-size="10.00" fill="#000000">consensus/params.h</text>
</a>
</g>
</g>
<!-- Node1&#45;&gt;Node9 -->
<g id="edge9" class="edge">
<title>Node1&#45;&gt;Node9</title>
<path fill="none" stroke="#191970" d="M419.1801,-288.3392C490.4955,-283.2275 698.9754,-266.6931 763,-244 795.7501,-232.3919 829.0426,-209.4475 849.3602,-193.9124"/>
<polygon fill="#191970" stroke="#191970" points="851.7602,-196.4789 857.484,-187.5632 847.4496,-190.9635 851.7602,-196.4789"/>
</g>
<!-- Node10 -->
<g id="node11" class="node">
<title>Node10</title>
<g id="a_node11"><a xlink:href="uint256_8h.html" target="_top" xlink:title="uint256.h">
<polygon fill="#ffffff" stroke="#000000" points="443,-112.5 443,-131.5 499,-131.5 499,-112.5 443,-112.5"/>
<text text-anchor="middle" x="471" y="-119.5" font-family="Helvetica,sans-Serif" font-size="10.00" fill="#000000">uint256.h</text>
</a>
</g>
</g>
<!-- Node1&#45;&gt;Node10 -->
<g id="edge55" class="edge">
<title>Node1&#45;&gt;Node10</title>
<path fill="none" stroke="#191970" d="M394.8612,-280.4177C394.9599,-258.8507 397.5334,-205.4579 419,-168 425.8359,-156.0718 436.9033,-145.641 447.0744,-137.7413"/>
<polygon fill="#191970" stroke="#191970" points="449.2932,-140.4546 455.2948,-131.7235 445.1583,-134.8063 449.2932,-140.4546"/>
</g>
<!-- Node17 -->
<g id="node15" class="node">
<title>Node17</title>
<g id="a_node15"><a xlink:href="block_8h.html" target="_top" xlink:title="primitives/block.h">
<polygon fill="#ffffff" stroke="#000000" points="854.5,-224.5 854.5,-243.5 947.5,-243.5 947.5,-224.5 854.5,-224.5"/>
<text text-anchor="middle" x="901" y="-231.5" font-family="Helvetica,sans-Serif" font-size="10.00" fill="#000000">primitives/block.h</text>
</a>
</g>
</g>
<!-- Node1&#45;&gt;Node17 -->
<g id="edge22" class="edge">
<title>Node1&#45;&gt;Node17</title>
<path fill="none" stroke="#191970" d="M419.065,-287.3367C495.4566,-278.8823 733.9097,-252.4922 844.1105,-240.2961"/>
<polygon fill="#191970" stroke="#191970" points="844.8107,-243.74 854.365,-239.1612 844.0407,-236.7825 844.8107,-243.74"/>
</g>
<!-- Node49 -->
<g id="node23" class="node">
<title>Node49</title>
<g id="a_node23"><a xlink:href="tinyformat_8h.html" target="_top" xlink:title="tinyformat.h">
<polygon fill="#ffffff" stroke="#000000" points="61,-56.5 61,-75.5 129,-75.5 129,-56.5 61,-56.5"/>
<text text-anchor="middle" x="95" y="-63.5" font-family="Helvetica,sans-Serif" font-size="10.00" fill="#000000">tinyformat.h</text>
</a>
</g>
</g>
<!-- Node1&#45;&gt;Node49 -->
<g id="edge49" class="edge">
<title>Node1&#45;&gt;Node49</title>
<path fill="none" stroke="#191970" d="M382.1094,-280.375C335.2786,-245.4081 173.8687,-124.8886 115.9196,-81.6199"/>
<polygon fill="#191970" stroke="#191970" points="117.9494,-78.7676 107.8426,-75.5891 113.7614,-84.3766 117.9494,-78.7676"/>
</g>
<!-- Node3 -->
<g id="node4" class="node">
<title>Node3</title>
<polygon fill="#ffffff" stroke="#bfbfbf" points="419,-.5 419,-19.5 471,-19.5 471,-.5 419,-.5"/>
<text text-anchor="middle" x="445" y="-7.5" font-family="Helvetica,sans-Serif" font-size="10.00" fill="#000000">assert.h</text>
</g>
<!-- Node2&#45;&gt;Node3 -->
<g id="edge3" class="edge">
<title>Node2&#45;&gt;Node3</title>
<path fill="none" stroke="#191970" d="M357.4638,-56.2455C374.1074,-47.4527 398.7993,-34.4079 417.7192,-24.4125"/>
<polygon fill="#191970" stroke="#191970" points="419.5408,-27.4086 426.7478,-19.6427 416.2709,-21.2193 419.5408,-27.4086"/>
</g>
<!-- Node4 -->
<g id="node5" class="node">
<title>Node4</title>
<polygon fill="#ffffff" stroke="#bfbfbf" points="309,-.5 309,-19.5 355,-19.5 355,-.5 309,-.5"/>
<text text-anchor="middle" x="332" y="-7.5" font-family="Helvetica,sans-Serif" font-size="10.00" fill="#000000">cstring</text>
</g>
<!-- Node2&#45;&gt;Node4 -->
<g id="edge4" class="edge">
<title>Node2&#45;&gt;Node4</title>
<path fill="none" stroke="#191970" d="M337.7807,-56.2455C336.8673,-48.9382 335.5868,-38.6944 334.4631,-29.7046"/>
<polygon fill="#191970" stroke="#191970" points="337.9187,-29.1313 333.2053,-19.6427 330.9728,-29.9996 337.9187,-29.1313"/>
</g>
<!-- Node5 -->
<g id="node6" class="node">
<title>Node5</title>
<polygon fill="#ffffff" stroke="#bfbfbf" points="217.5,-.5 217.5,-19.5 276.5,-19.5 276.5,-.5 217.5,-.5"/>
<text text-anchor="middle" x="247" y="-7.5" font-family="Helvetica,sans-Serif" font-size="10.00" fill="#000000">stdexcept</text>
</g>
<!-- Node2&#45;&gt;Node5 -->
<g id="edge5" class="edge">
<title>Node2&#45;&gt;Node5</title>
<path fill="none" stroke="#191970" d="M322.9748,-56.2455C308.8592,-47.6534 288.0737,-35.0014 271.8101,-25.1018"/>
<polygon fill="#191970" stroke="#191970" points="273.2034,-21.8525 262.8415,-19.6427 269.5637,-27.8319 273.2034,-21.8525"/>
</g>
<!-- Node6 -->
<g id="node7" class="node">
<title>Node6</title>
<polygon fill="#ffffff" stroke="#bfbfbf" points="940.5,-.5 940.5,-19.5 989.5,-19.5 989.5,-.5 940.5,-.5"/>
<text text-anchor="middle" x="965" y="-7.5" font-family="Helvetica,sans-Serif" font-size="10.00" fill="#000000">stdint.h</text>
</g>
<!-- Node2&#45;&gt;Node6 -->
<g id="edge6" class="edge">
<title>Node2&#45;&gt;Node6</title>
<path fill="none" stroke="#191970" d="M379.3646,-63.3536C498.4396,-55.4814 844.7567,-32.0958 930.1831,-19.5787"/>
<polygon fill="#191970" stroke="#191970" points="930.9611,-22.9979 940.262,-17.9241 929.827,-16.0904 930.9611,-22.9979"/>
</g>
<!-- Node7 -->
<g id="node8" class="node">
<title>Node7</title>
<polygon fill="#ffffff" stroke="#bfbfbf" points="1592.5,-.5 1592.5,-19.5 1633.5,-19.5 1633.5,-.5 1592.5,-.5"/>
<text text-anchor="middle" x="1613" y="-7.5" font-family="Helvetica,sans-Serif" font-size="10.00" fill="#000000">string</text>
</g>
<!-- Node2&#45;&gt;Node7 -->
<g id="edge7" class="edge">
<title>Node2&#45;&gt;Node7</title>
<path fill="none" stroke="#191970" d="M379.0391,-63.9269C419.6025,-61.8458 484.1575,-58.5861 540,-56 952.1851,-36.9116 1453.5716,-16.4504 1581.9211,-11.2542"/>
<polygon fill="#191970" stroke="#191970" points="1582.3312,-14.7406 1592.1815,-10.8392 1582.0482,-7.7463 1582.3312,-14.7406"/>
</g>
<!-- Node2&#45;&gt;Node8 -->
<g id="edge8" class="edge">
<title>Node2&#45;&gt;Node8</title>
<path fill="none" stroke="#191970" d="M379.2825,-63.3554C525.5916,-53.7501 1027.2402,-20.8166 1159.7084,-12.12"/>
<polygon fill="#191970" stroke="#191970" points="1160.2398,-15.5927 1169.989,-11.445 1159.7812,-8.6077 1160.2398,-15.5927"/>
</g>
<!-- Node9&#45;&gt;Node7 -->
<g id="edge21" class="edge">
<title>Node9&#45;&gt;Node7</title>
<path fill="none" stroke="#191970" d="M922.5973,-169.3628C925.7771,-168.8907 928.9295,-168.4329 932,-168 952.6747,-165.0852 1664.1692,-91.6413 1678,-76 1694.6257,-57.198 1666.8244,-36.7922 1642.5845,-23.7255"/>
<polygon fill="#191970" stroke="#191970" points="1644.0632,-20.5504 1633.5687,-19.0955 1640.8654,-26.7773 1644.0632,-20.5504"/>
</g>
<!-- Node9&#45;&gt;Node10 -->
<g id="edge10" class="edge">
<title>Node9&#45;&gt;Node10</title>
<path fill="none" stroke="#191970" d="M815.1935,-169.9775C810.3957,-169.2954 805.6112,-168.6272 801,-168 673.1808,-150.6149 639.9339,-154.9734 513,-132 511.7554,-131.7747 510.4923,-131.5357 509.2187,-131.2857"/>
<polygon fill="#191970" stroke="#191970" points="509.8861,-127.8495 499.3778,-129.2011 508.4353,-134.6976 509.8861,-127.8495"/>
</g>
<!-- Node15 -->
<g id="node13" class="node">
<title>Node15</title>
<polygon fill="#ffffff" stroke="#bfbfbf" points="803,-.5 803,-19.5 843,-19.5 843,-.5 803,-.5"/>
<text text-anchor="middle" x="823" y="-7.5" font-family="Helvetica,sans-Serif" font-size="10.00" fill="#000000">limits</text>
</g>
<!-- Node9&#45;&gt;Node15 -->
<g id="edge19" class="edge">
<title>Node9&#45;&gt;Node15</title>
<path fill="none" stroke="#191970" d="M815.375,-169.2125C730.8672,-154.1486 572.904,-120.6503 540,-76 534.7267,-68.8442 534.2408,-62.7709 540,-56 556.2631,-36.88 722.592,-19.3322 792.4087,-12.7493"/>
<polygon fill="#191970" stroke="#191970" points="793.1143,-16.1989 802.7475,-11.7884 792.4664,-9.2289 793.1143,-16.1989"/>
</g>
<!-- Node16 -->
<g id="node14" class="node">
<title>Node16</title>
<polygon fill="#ffffff" stroke="#bfbfbf" points="2026.5,-.5 2026.5,-19.5 2061.5,-19.5 2061.5,-.5 2026.5,-.5"/>
<text text-anchor="middle" x="2044" y="-7.5" font-family="Helvetica,sans-Serif" font-size="10.00" fill="#000000">map</text>
</g>
<!-- Node9&#45;&gt;Node16 -->
<g id="edge20" class="edge">
<title>Node9&#45;&gt;Node16</title>
<path fill="none" stroke="#191970" d="M922.5588,-169.0385C925.7483,-168.6479 928.9134,-168.2966 932,-168 1048.5316,-156.8025 1881.5145,-186.7334 1985,-132 2022.8224,-111.9958 2036.682,-58.8456 2041.5375,-29.7376"/>
<polygon fill="#191970" stroke="#191970" points="2045.0434,-29.9525 2043.0302,-19.5507 2038.1173,-28.9376 2045.0434,-29.9525"/>
</g>
<!-- Node10&#45;&gt;Node3 -->
<g id="edge11" class="edge">
<title>Node10&#45;&gt;Node3</title>
<path fill="none" stroke="#191970" d="M458.5788,-112.18C448.9984,-103.7529 436.4865,-90.6707 431,-76 425.2456,-60.6129 429.9983,-42.2762 435.4726,-28.84"/>
<polygon fill="#191970" stroke="#191970" points="438.6972,-30.2037 439.6373,-19.6506 432.3214,-27.314 438.6972,-30.2037"/>
</g>
<!-- Node10&#45;&gt;Node4 -->
<g id="edge12" class="edge">
<title>Node10&#45;&gt;Node4</title>
<path fill="none" stroke="#191970" d="M442.6966,-118.9916C396.6106,-113.4451 308.6097,-99.9308 290,-76 277.4332,-59.84 294.2241,-39.8299 310.1588,-26.1053"/>
<polygon fill="#191970" stroke="#191970" points="312.6816,-28.5663 318.2535,-19.5549 308.2782,-23.1247 312.6816,-28.5663"/>
</g>
<!-- Node10&#45;&gt;Node5 -->
<g id="edge13" class="edge">
<title>Node10&#45;&gt;Node5</title>
<path fill="none" stroke="#191970" d="M442.6429,-118.0006C396.2838,-110.9939 306.9254,-95.3836 282,-76 267.0057,-64.3394 257.7126,-44.4201 252.5049,-29.5077"/>
<polygon fill="#191970" stroke="#191970" points="255.7634,-28.2035 249.4118,-19.7237 249.089,-30.3136 255.7634,-28.2035"/>
</g>
<!-- Node10&#45;&gt;Node6 -->
<g id="edge14" class="edge">
<title>Node10&#45;&gt;Node6</title>
<path fill="none" stroke="#191970" d="M477.7171,-112.2754C488.7414,-97.2089 512.2434,-68.6457 540,-56 695.8612,15.0094 757.3032,-50.2587 930.3202,-19.7187"/>
<polygon fill="#191970" stroke="#191970" points="931.057,-23.1418 940.2541,-17.8822 929.7845,-16.2585 931.057,-23.1418"/>
</g>
<!-- Node10&#45;&gt;Node7 -->
<g id="edge15" class="edge">
<title>Node10&#45;&gt;Node7</title>
<path fill="none" stroke="#191970" d="M499.0199,-120.9498C654.1376,-115.1026 1402.346,-86.4485 1450,-76 1499.9984,-65.0375 1554.4195,-40.1262 1586.0258,-24.2383"/>
<polygon fill="#191970" stroke="#191970" points="1587.7552,-27.2852 1595.0721,-19.6227 1584.5738,-21.05 1587.7552,-27.2852"/>
</g>
<!-- Node10&#45;&gt;Node8 -->
<g id="edge16" class="edge">
<title>Node10&#45;&gt;Node8</title>
<path fill="none" stroke="#191970" d="M499.2641,-117.6095C613.2448,-99.9037 1038.7764,-33.8017 1159.7408,-15.0111"/>
<polygon fill="#191970" stroke="#191970" points="1160.4999,-18.4353 1169.8441,-13.4417 1159.4253,-11.5182 1160.4999,-18.4353"/>
</g>
<!-- Node11 -->
<g id="node12" class="node">
<title>Node11</title>
<g id="a_node12"><a xlink:href="common_8h.html" target="_top" xlink:title="crypto/common.h">
<polygon fill="#ffffff" stroke="#ff0000" points="549,-56.5 549,-75.5 641,-75.5 641,-56.5 549,-56.5"/>
<text text-anchor="middle" x="595" y="-63.5" font-family="Helvetica,sans-Serif" font-size="10.00" fill="#000000">crypto/common.h</text>
</a>
</g>
</g>
<!-- Node10&#45;&gt;Node11 -->
<g id="edge17" class="edge">
<title>Node10&#45;&gt;Node11</title>
<path fill="none" stroke="#191970" d="M492.3164,-112.3733C512.2216,-103.3838 542.1436,-89.8706 564.56,-79.7471"/>
<polygon fill="#191970" stroke="#191970" points="566.2887,-82.8068 573.9618,-75.5011 563.4075,-76.4272 566.2887,-82.8068"/>
</g>
<!-- Node11&#45;&gt;Node6 -->
<g id="edge18" class="edge">
<title>Node11&#45;&gt;Node6</title>
<path fill="none" stroke="#191970" d="M641.1618,-58.1369C645.8327,-57.3921 650.5083,-56.667 655,-56 774.1375,-38.3077 808.1763,-45.1426 930.1272,-19.8942"/>
<polygon fill="#191970" stroke="#191970" points="931.1651,-23.2526 940.2318,-17.7712 929.7258,-16.4022 931.1651,-23.2526"/>
</g>
<!-- Node17&#45;&gt;Node10 -->
<g id="edge48" class="edge">
<title>Node17&#45;&gt;Node10</title>
<path fill="none" stroke="#191970" d="M880.4015,-224.4656C848.7307,-210.1724 785.8735,-183.2456 730,-168 635.6853,-142.2653 608.8319,-151.3335 513,-132 511.7601,-131.7499 510.5012,-131.4892 509.2311,-131.2206"/>
<polygon fill="#191970" stroke="#191970" points="509.9278,-127.7902 499.4076,-129.0455 508.4144,-134.6246 509.9278,-127.7902"/>
</g>
<!-- Node18 -->
<g id="node16" class="node">
<title>Node18</title>
<g id="a_node16"><a xlink:href="transaction_8h.html" target="_top" xlink:title="primitives/transaction.h">
<polygon fill="#ffffff" stroke="#000000" points="941,-168.5 941,-187.5 1059,-187.5 1059,-168.5 941,-168.5"/>
<text text-anchor="middle" x="1000" y="-175.5" font-family="Helvetica,sans-Serif" font-size="10.00" fill="#000000">primitives/transaction.h</text>
</a>
</g>
</g>
<!-- Node17&#45;&gt;Node18 -->
<g id="edge23" class="edge">
<title>Node17&#45;&gt;Node18</title>
<path fill="none" stroke="#191970" d="M918.2445,-224.2455C933.5761,-215.5731 956.2199,-202.7645 973.7916,-192.825"/>
<polygon fill="#191970" stroke="#191970" points="975.9724,-195.6126 982.9531,-187.6427 972.5259,-189.5198 975.9724,-195.6126"/>
</g>
<!-- Node41 -->
<g id="node19" class="node">
<title>Node41</title>
<g id="a_node19"><a xlink:href="serialize_8h.html" target="_top" xlink:title="serialize.h">
<polygon fill="#ffffff" stroke="#ff0000" points="1191.5,-56.5 1191.5,-75.5 1252.5,-75.5 1252.5,-56.5 1191.5,-56.5"/>
<text text-anchor="middle" x="1222" y="-63.5" font-family="Helvetica,sans-Serif" font-size="10.00" fill="#000000">serialize.h</text>
</a>
</g>
</g>
<!-- Node17&#45;&gt;Node41 -->
<g id="edge47" class="edge">
<title>Node17&#45;&gt;Node41</title>
<path fill="none" stroke="#191970" d="M945.0451,-224.4789C979.1865,-216.4782 1027.3661,-203.822 1068,-188 1086.1521,-180.9319 1089.145,-175.7882 1107,-168 1149.914,-149.2813 1174.7804,-166.8903 1206,-132 1217.1664,-119.5207 1220.8674,-100.5729 1221.9495,-86.1756"/>
<polygon fill="#191970" stroke="#191970" points="1225.461,-85.9426 1222.3485,-75.8152 1218.4662,-85.6731 1225.461,-85.9426"/>
</g>
<!-- Node18&#45;&gt;Node6 -->
<g id="edge24" class="edge">
<title>Node18&#45;&gt;Node6</title>
<path fill="none" stroke="#191970" d="M944.6908,-168.4874C879.8362,-157.0695 780.4126,-138.6311 775,-132 769.3792,-125.1138 770.5052,-119.6687 775,-112 792.2159,-82.6275 880.87,-43.5071 930.7663,-23.3149"/>
<polygon fill="#191970" stroke="#191970" points="932.2149,-26.5051 940.1962,-19.5374 929.6118,-20.0071 932.2149,-26.5051"/>
</g>
<!-- Node18&#45;&gt;Node10 -->
<g id="edge46" class="edge">
<title>Node18&#45;&gt;Node10</title>
<path fill="none" stroke="#191970" d="M940.6839,-169.111C937.7493,-168.7234 934.8423,-168.3506 932,-168 775.386,-148.6812 588.0636,-131.9561 509.0846,-125.1958"/>
<polygon fill="#191970" stroke="#191970" points="509.3755,-121.7079 499.1144,-124.3461 508.7811,-128.6827 509.3755,-121.7079"/>
</g>
<!-- Node19 -->
<g id="node17" class="node">
<title>Node19</title>
<g id="a_node17"><a xlink:href="amount_8h.html" target="_top" xlink:title="amount.h">
<polygon fill="#ffffff" stroke="#000000" points="783.5,-112.5 783.5,-131.5 840.5,-131.5 840.5,-112.5 783.5,-112.5"/>
<text text-anchor="middle" x="812" y="-119.5" font-family="Helvetica,sans-Serif" font-size="10.00" fill="#000000">amount.h</text>
</a>
</g>
</g>
<!-- Node18&#45;&gt;Node19 -->
<g id="edge25" class="edge">
<title>Node18&#45;&gt;Node19</title>
<path fill="none" stroke="#191970" d="M967.6816,-168.3733C935.0984,-158.6676 884.8121,-143.6887 850.258,-133.396"/>
<polygon fill="#191970" stroke="#191970" points="851.1003,-129.995 840.5172,-130.4945 849.1019,-136.7037 851.1003,-129.995"/>
</g>
<!-- Node20 -->
<g id="node18" class="node">
<title>Node20</title>
<g id="a_node18"><a xlink:href="script_8h.html" target="_top" xlink:title="script/script.h">
<polygon fill="#ffffff" stroke="#ff0000" points="902,-112.5 902,-131.5 978,-131.5 978,-112.5 902,-112.5"/>
<text text-anchor="middle" x="940" y="-119.5" font-family="Helvetica,sans-Serif" font-size="10.00" fill="#000000">script/script.h</text>
</a>
</g>
</g>
<!-- Node18&#45;&gt;Node20 -->
<g id="edge27" class="edge">
<title>Node18&#45;&gt;Node20</title>
<path fill="none" stroke="#191970" d="M989.5488,-168.2455C980.7731,-160.0549 968.0446,-148.1749 957.686,-138.5069"/>
<polygon fill="#191970" stroke="#191970" points="960.0301,-135.9072 950.3314,-131.6427 955.2539,-141.0246 960.0301,-135.9072"/>
</g>
<!-- Node18&#45;&gt;Node41 -->
<g id="edge45" class="edge">
<title>Node18&#45;&gt;Node41</title>
<path fill="none" stroke="#191970" d="M1058.8392,-168.4406C1104.905,-160.0273 1164.3564,-146.8307 1184,-132 1199.4539,-120.3325 1209.6626,-100.4141 1215.5697,-85.5038"/>
<polygon fill="#191970" stroke="#191970" points="1218.9986,-86.3156 1219.1243,-75.7215 1212.4195,-83.9249 1218.9986,-86.3156"/>
</g>
<!-- Node19&#45;&gt;Node6 -->
<g id="edge26" class="edge">
<title>Node19&#45;&gt;Node6</title>
<path fill="none" stroke="#191970" d="M825.0447,-112.4509C851.4666,-93.1094 911.523,-49.1465 943.7024,-25.5904"/>
<polygon fill="#191970" stroke="#191970" points="945.9866,-28.2559 951.9883,-19.5249 941.8518,-22.6075 945.9866,-28.2559"/>
</g>
<!-- Node20&#45;&gt;Node3 -->
<g id="edge39" class="edge">
<title>Node20&#45;&gt;Node3</title>
<path fill="none" stroke="#191970" d="M901.752,-117.7246C802.524,-106.6168 544.2255,-77.5945 540,-76 510.2893,-64.7883 481.0371,-42.2464 463.0122,-26.6487"/>
<polygon fill="#191970" stroke="#191970" points="464.9129,-23.6555 455.1128,-19.6295 460.2633,-28.8882 464.9129,-23.6555"/>
</g>
<!-- Node20&#45;&gt;Node5 -->
<g id="edge41" class="edge">
<title>Node20&#45;&gt;Node5</title>
<path fill="none" stroke="#191970" d="M901.94,-117.375C885.9206,-115.5312 867.0706,-113.4963 850,-112 787.8875,-106.5558 343.8351,-107.4545 290,-76 272.3472,-65.6859 260.6477,-44.9098 253.9685,-29.4086"/>
<polygon fill="#191970" stroke="#191970" points="257.0668,-27.7256 250.135,-19.7131 250.5571,-30.2995 257.0668,-27.7256"/>
</g>
<!-- Node20&#45;&gt;Node6 -->
<g id="edge42" class="edge">
<title>Node20&#45;&gt;Node6</title>
<path fill="none" stroke="#191970" d="M942.1315,-112.4509C946.2274,-94.1013 955.2699,-53.5908 960.6765,-29.3693"/>
<polygon fill="#191970" stroke="#191970" points="964.1112,-30.0472 962.8739,-19.5249 957.2794,-28.5222 964.1112,-30.0472"/>
</g>
<!-- Node20&#45;&gt;Node7 -->
<g id="edge43" class="edge">
<title>Node20&#45;&gt;Node7</title>
<path fill="none" stroke="#191970" d="M978.4066,-119.5286C1103.9308,-111.377 1495.4913,-85.3304 1521,-76 1550.1915,-65.3226 1578.4214,-42.655 1595.7403,-26.883"/>
<polygon fill="#191970" stroke="#191970" points="1598.4193,-29.1691 1603.3223,-19.777 1593.6324,-24.0616 1598.4193,-29.1691"/>
</g>
<!-- Node20&#45;&gt;Node8 -->
<g id="edge44" class="edge">
<title>Node20&#45;&gt;Node8</title>
<path fill="none" stroke="#191970" d="M951.2403,-112.363C968.2959,-98.1823 1002.2077,-71.6831 1035,-56 1076.1553,-36.3173 1127.4702,-23.2252 1159.9957,-16.2017"/>
<polygon fill="#191970" stroke="#191970" points="1160.7899,-19.6114 1169.859,-14.1339 1159.3535,-12.7603 1160.7899,-19.6114"/>
</g>
<!-- Node20&#45;&gt;Node11 -->
<g id="edge28" class="edge">
<title>Node20&#45;&gt;Node11</title>
<path fill="none" stroke="#191970" d="M901.7608,-115.7931C840.8943,-105.9133 721.6638,-86.5599 651.1129,-75.1082"/>
<polygon fill="#191970" stroke="#191970" points="651.5014,-71.6255 641.0698,-73.478 650.3798,-78.5351 651.5014,-71.6255"/>
</g>
<!-- Node20&#45;&gt;Node15 -->
<g id="edge40" class="edge">
<title>Node20&#45;&gt;Node15</title>
<path fill="none" stroke="#191970" d="M904.5756,-112.3818C884.6022,-105.301 860.6015,-93.7594 845,-76 833.678,-63.1121 828.1472,-44.2091 825.4667,-29.9326"/>
<polygon fill="#191970" stroke="#191970" points="828.8672,-29.0216 823.8718,-19.6783 821.9503,-30.0975 828.8672,-29.0216"/>
</g>
<!-- Node20&#45;&gt;Node41 -->
<g id="edge29" class="edge">
<title>Node20&#45;&gt;Node41</title>
<path fill="none" stroke="#191970" d="M978.0318,-114.4476C1031.1369,-103.9019 1127.0897,-84.8474 1181.4912,-74.0443"/>
<polygon fill="#191970" stroke="#191970" points="1182.3425,-77.4437 1191.4692,-72.0629 1180.979,-70.5777 1182.3425,-77.4437"/>
</g>
<!-- Node41&#45;&gt;Node3 -->
<g id="edge31" class="edge">
<title>Node41&#45;&gt;Node3</title>
<path fill="none" stroke="#191970" d="M1191.0612,-63.7702C1067.9467,-54.8971 613.1236,-22.117 481.1304,-12.604"/>
<polygon fill="#191970" stroke="#191970" points="481.3558,-9.1112 471.13,-11.8832 480.8525,-16.0931 481.3558,-9.1112"/>
</g>
<!-- Node41&#45;&gt;Node6 -->
<g id="edge35" class="edge">
<title>Node41&#45;&gt;Node6</title>
<path fill="none" stroke="#191970" d="M1191.2551,-59.3007C1143.0166,-48.7896 1049.8623,-28.4914 999.4375,-17.5039"/>
<polygon fill="#191970" stroke="#191970" points="1000.1686,-14.0811 989.6527,-15.3718 998.6783,-20.9207 1000.1686,-14.0811"/>
</g>
<!-- Node41&#45;&gt;Node7 -->
<g id="edge36" class="edge">
<title>Node41&#45;&gt;Node7</title>
<path fill="none" stroke="#191970" d="M1252.6811,-61.6058C1325.7783,-51.1366 1509.5422,-24.8175 1582.4783,-14.3714"/>
<polygon fill="#191970" stroke="#191970" points="1583.006,-17.8316 1592.4088,-12.9491 1582.0135,-10.9023 1583.006,-17.8316"/>
</g>
<!-- Node41&#45;&gt;Node8 -->
<g id="edge38" class="edge">
<title>Node41&#45;&gt;Node8</title>
<path fill="none" stroke="#191970" d="M1216.7744,-56.2455C1212.6877,-48.617 1206.8865,-37.7881 1201.925,-28.5267"/>
<polygon fill="#191970" stroke="#191970" points="1204.9732,-26.8047 1197.1657,-19.6427 1198.8028,-30.1103 1204.9732,-26.8047"/>
</g>
<!-- Node41&#45;&gt;Node15 -->
<g id="edge32" class="edge">
<title>Node41&#45;&gt;Node15</title>
<path fill="none" stroke="#191970" d="M1191.443,-63.8177C1128.399,-58.9504 979.5445,-45.5702 857,-20 855.7126,-19.7314 854.4031,-19.4379 853.0842,-19.1255"/>
<polygon fill="#191970" stroke="#191970" points="853.5625,-15.6319 843.0003,-16.4626 851.7752,-22.3999 853.5625,-15.6319"/>
</g>
<!-- Node41&#45;&gt;Node16 -->
<g id="edge33" class="edge">
<title>Node41&#45;&gt;Node16</title>
<path fill="none" stroke="#191970" d="M1252.7789,-63.1992C1276.366,-61.0941 1309.7263,-58.2058 1339,-56 1602.2443,-36.1641 1921.1704,-17.1672 2016.0804,-11.6193"/>
<polygon fill="#191970" stroke="#191970" points="2016.5038,-15.1007 2026.2831,-11.0244 2016.0963,-8.1125 2016.5038,-15.1007"/>
</g>
<!-- Node42 -->
<g id="node20" class="node">
<title>Node42</title>
<polygon fill="#ffffff" stroke="#bfbfbf" points="866,-.5 866,-19.5 922,-19.5 922,-.5 866,-.5"/>
<text text-anchor="middle" x="894" y="-7.5" font-family="Helvetica,sans-Serif" font-size="10.00" fill="#000000">algorithm</text>
</g>
<!-- Node41&#45;&gt;Node42 -->
<g id="edge30" class="edge">
<title>Node41&#45;&gt;Node42</title>
<path fill="none" stroke="#191970" d="M1191.3371,-62.1629C1138.2217,-55.2878 1025.784,-39.7264 932,-20 931.8999,-19.9789 931.7996,-19.9578 931.6992,-19.9365"/>
<polygon fill="#191970" stroke="#191970" points="932.6768,-16.57 922.147,-17.7423 931.1096,-23.3923 932.6768,-16.57"/>
</g>
<!-- Node44 -->
<g id="node21" class="node">
<title>Node44</title>
<polygon fill="#ffffff" stroke="#bfbfbf" points="2227,-.5 2227,-19.5 2279,-19.5 2279,-.5 2227,-.5"/>
<text text-anchor="middle" x="2253" y="-7.5" font-family="Helvetica,sans-Serif" font-size="10.00" fill="#000000">memory</text>
</g>
<!-- Node41&#45;&gt;Node44 -->
<g id="edge34" class="edge">
<title>Node41&#45;&gt;Node44</title>
<path fill="none" stroke="#191970" d="M1252.7693,-63.0646C1276.3514,-60.889 1309.7096,-57.9713 1339,-56 1663.9913,-34.1271 1745.714,-36.9351 2071,-20 2121.4788,-17.372 2179.8208,-14.1303 2216.561,-12.0639"/>
<polygon fill="#191970" stroke="#191970" points="2216.9941,-15.5451 2226.7814,-11.488 2216.6003,-8.5562 2216.9941,-15.5451"/>
</g>
<!-- Node46 -->
<g id="node22" class="node">
<title>Node46</title>
<polygon fill="#ffffff" stroke="#bfbfbf" points="1699,-.5 1699,-19.5 1739,-19.5 1739,-.5 1699,-.5"/>
<text text-anchor="middle" x="1719" y="-7.5" font-family="Helvetica,sans-Serif" font-size="10.00" fill="#000000">utility</text>
</g>
<!-- Node41&#45;&gt;Node46 -->
<g id="edge37" class="edge">
<title>Node41&#45;&gt;Node46</title>
<path fill="none" stroke="#191970" d="M1252.6644,-62.883C1322.1687,-55.7669 1497.0039,-37.5789 1643,-20 1658.0563,-18.1871 1674.7673,-16.0068 1688.6766,-14.1453"/>
<polygon fill="#191970" stroke="#191970" points="1689.2502,-17.5997 1698.6931,-12.7953 1688.3152,-10.6624 1689.2502,-17.5997"/>
</g>
<!-- Node49&#45;&gt;Node5 -->
<g id="edge54" class="edge">
<title>Node49&#45;&gt;Node5</title>
<path fill="none" stroke="#191970" d="M121.1297,-56.3733C146.0768,-47.1822 183.8592,-33.2624 211.5206,-23.0713"/>
<polygon fill="#191970" stroke="#191970" points="213.0378,-26.2424 221.2112,-19.5011 210.6178,-19.674 213.0378,-26.2424"/>
</g>
<!-- Node49&#45;&gt;Node42 -->
<g id="edge50" class="edge">
<title>Node49&#45;&gt;Node42</title>
<path fill="none" stroke="#191970" d="M129.0763,-64.2779C267.0075,-57.2595 779.96,-30.6828 852,-20 853.2512,-19.8145 854.5199,-19.6099 855.7984,-19.3897"/>
<polygon fill="#191970" stroke="#191970" points="856.5266,-22.8137 865.6631,-17.4494 855.1756,-15.9452 856.5266,-22.8137"/>
</g>
<!-- Node50 -->
<g id="node24" class="node">
<title>Node50</title>
<polygon fill="#ffffff" stroke="#bfbfbf" points="70.5,-.5 70.5,-19.5 119.5,-19.5 119.5,-.5 70.5,-.5"/>
<text text-anchor="middle" x="95" y="-7.5" font-family="Helvetica,sans-Serif" font-size="10.00" fill="#000000">cassert</text>
</g>
<!-- Node49&#45;&gt;Node50 -->
<g id="edge51" class="edge">
<title>Node49&#45;&gt;Node50</title>
<path fill="none" stroke="#191970" d="M95,-56.2455C95,-48.9382 95,-38.6944 95,-29.7046"/>
<polygon fill="#191970" stroke="#191970" points="98.5001,-29.6426 95,-19.6427 91.5001,-29.6427 98.5001,-29.6426"/>
</g>
<!-- Node51 -->
<g id="node25" class="node">
<title>Node51</title>
<polygon fill="#ffffff" stroke="#bfbfbf" points="138,-.5 138,-19.5 192,-19.5 192,-.5 138,-.5"/>
<text text-anchor="middle" x="165" y="-7.5" font-family="Helvetica,sans-Serif" font-size="10.00" fill="#000000">iostream</text>
</g>
<!-- Node49&#45;&gt;Node51 -->
<g id="edge52" class="edge">
<title>Node49&#45;&gt;Node51</title>
<path fill="none" stroke="#191970" d="M107.1931,-56.2455C117.6321,-47.8943 132.8655,-35.7076 145.074,-25.9408"/>
<polygon fill="#191970" stroke="#191970" points="147.3244,-28.6227 152.9467,-19.6427 142.9515,-23.1566 147.3244,-28.6227"/>
</g>
<!-- Node52 -->
<g id="node26" class="node">
<title>Node52</title>
<polygon fill="#ffffff" stroke="#bfbfbf" points="0,-.5 0,-19.5 52,-19.5 52,-.5 0,-.5"/>
<text text-anchor="middle" x="26" y="-7.5" font-family="Helvetica,sans-Serif" font-size="10.00" fill="#000000">sstream</text>
</g>
<!-- Node49&#45;&gt;Node52 -->
<g id="edge53" class="edge">
<title>Node49&#45;&gt;Node52</title>
<path fill="none" stroke="#191970" d="M82.9811,-56.2455C72.7902,-47.9746 57.9638,-35.9416 45.9893,-26.2232"/>
<polygon fill="#191970" stroke="#191970" points="47.8514,-23.2268 37.8812,-19.6427 43.4402,-28.662 47.8514,-23.2268"/>
</g>
<!-- Node53&#45;&gt;Node10 -->
<g id="edge98" class="edge">
<title>Node53&#45;&gt;Node10</title>
<path fill="none" stroke="#191970" d="M789.7494,-283.8633C711.4783,-269.8739 530.4533,-233.2998 490,-188 478.7197,-175.3683 474.1078,-156.4372 472.2371,-142.085"/>
<polygon fill="#191970" stroke="#191970" points="475.6862,-141.3853 471.2495,-131.7642 468.718,-142.0521 475.6862,-141.3853"/>
</g>
<!-- Node53&#45;&gt;Node17 -->
<g id="edge91" class="edge">
<title>Node53&#45;&gt;Node17</title>
<path fill="none" stroke="#191970" d="M839.064,-280.2455C850.3562,-271.814 866.8845,-259.4729 880.0271,-249.6598"/>
<polygon fill="#191970" stroke="#191970" points="882.1669,-252.4301 888.0857,-243.6427 877.9789,-246.8211 882.1669,-252.4301"/>
</g>
<!-- Node53&#45;&gt;Node18 -->
<g id="edge92" class="edge">
<title>Node53&#45;&gt;Node18</title>
<path fill="none" stroke="#191970" d="M826.1772,-280.4987C826.9658,-266.2487 830.5611,-239.3777 846,-224 859.611,-210.4429 903.1333,-198.1617 940.4522,-189.706"/>
<polygon fill="#191970" stroke="#191970" points="941.2738,-193.1089 950.2824,-187.5326 939.7626,-186.274 941.2738,-193.1089"/>
</g>
<!-- Node54 -->
<g id="node28" class="node">
<title>Node54</title>
<g id="a_node28"><a xlink:href="dbwrapper_8h.html" target="_top" xlink:title="dbwrapper.h">
<polygon fill="#ffffff" stroke="#000000" points="1584,-168.5 1584,-187.5 1654,-187.5 1654,-168.5 1584,-168.5"/>
<text text-anchor="middle" x="1619" y="-175.5" font-family="Helvetica,sans-Serif" font-size="10.00" fill="#000000">dbwrapper.h</text>
</a>
</g>
</g>
<!-- Node53&#45;&gt;Node54 -->
<g id="edge58" class="edge">
<title>Node53&#45;&gt;Node54</title>
<path fill="none" stroke="#191970" d="M862.0458,-286.1578C961.0119,-275.5997 1230.8753,-246.7444 1250,-244 1367.1861,-227.1835 1504.1525,-200.9402 1573.6156,-187.1587"/>
<polygon fill="#191970" stroke="#191970" points="1574.6435,-190.5228 1583.7678,-185.1378 1573.2768,-183.6575 1574.6435,-190.5228"/>
</g>
<!-- Node83 -->
<g id="node38" class="node">
<title>Node83</title>
<g id="a_node38"><a xlink:href="threadinterrupt_8h.html" target="_top" xlink:title="threadinterrupt.h">
<polygon fill="#ffffff" stroke="#000000" points="633.5,-224.5 633.5,-243.5 720.5,-243.5 720.5,-224.5 633.5,-224.5"/>
<text text-anchor="middle" x="677" y="-231.5" font-family="Helvetica,sans-Serif" font-size="10.00" fill="#000000">threadinterrupt.h</text>
</a>
</g>
</g>
<!-- Node53&#45;&gt;Node83 -->
<g id="edge93" class="edge">
<title>Node53&#45;&gt;Node83</title>
<path fill="none" stroke="#191970" d="M800.386,-280.3733C775.9313,-271.1822 738.8946,-257.2624 711.7791,-247.0713"/>
<polygon fill="#191970" stroke="#191970" points="712.8719,-243.7431 702.2798,-243.5011 710.4091,-250.2956 712.8719,-243.7431"/>
</g>
<!-- Node85 -->
<g id="node42" class="node">
<title>Node85</title>
<g id="a_node42"><a xlink:href="validationinterface_8h.html" target="_top" xlink:title="validationinterface.h">
<polygon fill="#ffffff" stroke="#000000" points="1043,-224.5 1043,-243.5 1147,-243.5 1147,-224.5 1043,-224.5"/>
<text text-anchor="middle" x="1095" y="-231.5" font-family="Helvetica,sans-Serif" font-size="10.00" fill="#000000">validationinterface.h</text>
</a>
</g>
</g>
<!-- Node53&#45;&gt;Node85 -->
<g id="edge99" class="edge">
<title>Node53&#45;&gt;Node85</title>
<path fill="none" stroke="#191970" d="M862.2785,-282.4476C907.6813,-272.9957 985.9172,-256.7087 1039.0214,-245.6535"/>
<polygon fill="#191970" stroke="#191970" points="1039.8836,-249.0492 1048.9603,-243.5845 1038.4568,-242.1961 1039.8836,-249.0492"/>
</g>
<!-- Node54&#45;&gt;Node41 -->
<g id="edge64" class="edge">
<title>Node54&#45;&gt;Node41</title>
<path fill="none" stroke="#191970" d="M1608.5595,-168.279C1592.0162,-153.4844 1558.1409,-125.6035 1524,-112 1500.149,-102.4965 1339.5873,-81.0507 1262.7815,-71.1668"/>
<polygon fill="#191970" stroke="#191970" points="1262.8866,-67.6517 1252.5227,-69.8513 1261.9963,-74.5948 1262.8866,-67.6517"/>
</g>
<!-- Node55 -->
<g id="node29" class="node">
<title>Node55</title>
<g id="a_node29"><a xlink:href="clientversion_8h.html" target="_top" xlink:title="clientversion.h">
<polygon fill="#ffffff" stroke="#000000" points="1573,-56.5 1573,-75.5 1653,-75.5 1653,-56.5 1573,-56.5"/>
<text text-anchor="middle" x="1613" y="-63.5" font-family="Helvetica,sans-Serif" font-size="10.00" fill="#000000">clientversion.h</text>
</a>
</g>
</g>
<!-- Node54&#45;&gt;Node55 -->
<g id="edge59" class="edge">
<title>Node54&#45;&gt;Node55</title>
<path fill="none" stroke="#191970" d="M1654.0558,-176.3779C1713.0577,-172.8325 1828.211,-162.1365 1853,-132 1858.6468,-125.1351 1858.663,-118.8515 1853,-112 1829.4451,-83.5017 1726.7121,-72.4859 1663.5363,-68.3573"/>
<polygon fill="#191970" stroke="#191970" points="1663.5702,-64.8528 1653.3735,-67.73 1663.1389,-71.8395 1663.5702,-64.8528"/>
</g>
<!-- Node56 -->
<g id="node30" class="node">
<title>Node56</title>
<g id="a_node30"><a xlink:href="fs_8h.html" target="_top" xlink:title="fs.h">
<polygon fill="#ffffff" stroke="#ff0000" points="1963.5,-56.5 1963.5,-75.5 1996.5,-75.5 1996.5,-56.5 1963.5,-56.5"/>
<text text-anchor="middle" x="1980" y="-63.5" font-family="Helvetica,sans-Serif" font-size="10.00" fill="#000000">fs.h</text>
</a>
</g>
</g>
<!-- Node54&#45;&gt;Node56 -->
<g id="edge62" class="edge">
<title>Node54&#45;&gt;Node56</title>
<path fill="none" stroke="#191970" d="M1654.1831,-174.8364C1743.7455,-166.6166 1974.0906,-144.3664 1985,-132 1996.011,-119.5185 1992.9614,-100.0327 1988.2372,-85.4643"/>
<polygon fill="#191970" stroke="#191970" points="1991.4449,-84.0483 1984.6784,-75.8957 1984.884,-86.4886 1991.4449,-84.0483"/>
</g>
<!-- Node61 -->
<g id="node31" class="node">
<title>Node61</title>
<g id="a_node31"><a xlink:href="streams_8h.html" target="_top" xlink:title="streams.h">
<polygon fill="#ffffff" stroke="#ff0000" points="1115,-112.5 1115,-131.5 1175,-131.5 1175,-112.5 1115,-112.5"/>
<text text-anchor="middle" x="1145" y="-119.5" font-family="Helvetica,sans-Serif" font-size="10.00" fill="#000000">streams.h</text>
</a>
</g>
</g>
<!-- Node54&#45;&gt;Node61 -->
<g id="edge65" class="edge">
<title>Node54&#45;&gt;Node61</title>
<path fill="none" stroke="#191970" d="M1583.7602,-173.8366C1497.5088,-163.6466 1276.2095,-137.5015 1185.1066,-126.7383"/>
<polygon fill="#191970" stroke="#191970" points="1185.5103,-123.2618 1175.1687,-125.5642 1184.6889,-130.2134 1185.5103,-123.2618"/>
</g>
<!-- Node64 -->
<g id="node32" class="node">
<title>Node64</title>
<g id="a_node32"><a xlink:href="util_8h.html" target="_top" xlink:title="util.h">
<polygon fill="#ffffff" stroke="#ff0000" points="1938,-112.5 1938,-131.5 1976,-131.5 1976,-112.5 1938,-112.5"/>
<text text-anchor="middle" x="1957" y="-119.5" font-family="Helvetica,sans-Serif" font-size="10.00" fill="#000000">util.h</text>
</a>
</g>
</g>
<!-- Node54&#45;&gt;Node64 -->
<g id="edge75" class="edge">
<title>Node54&#45;&gt;Node64</title>
<path fill="none" stroke="#191970" d="M1654.2154,-172.1655C1721.1866,-161.0697 1865.7453,-137.1191 1927.7674,-126.8433"/>
<polygon fill="#191970" stroke="#191970" points="1928.3784,-130.2898 1937.6718,-125.2023 1927.2342,-123.384 1928.3784,-130.2898"/>
</g>
<!-- Node79 -->
<g id="node34" class="node">
<title>Node79</title>
<g id="a_node34"><a xlink:href="utilstrencodings_8h.html" target="_top" xlink:title="utilstrencodings.h">
<polygon fill="#ffffff" stroke="#000000" points="1347.5,-56.5 1347.5,-75.5 1440.5,-75.5 1440.5,-56.5 1347.5,-56.5"/>
<text text-anchor="middle" x="1394" y="-63.5" font-family="Helvetica,sans-Serif" font-size="10.00" fill="#000000">utilstrencodings.h</text>
</a>
</g>
</g>
<!-- Node54&#45;&gt;Node79 -->
<g id="edge84" class="edge">
<title>Node54&#45;&gt;Node79</title>
<path fill="none" stroke="#191970" d="M1618.3122,-168.3263C1616.7454,-153.8513 1611.6313,-126.6902 1595,-112 1584.1074,-102.3787 1506.1528,-86.4537 1450.6003,-76.094"/>
<polygon fill="#191970" stroke="#191970" points="1450.9793,-72.6048 1440.5094,-74.2272 1449.7058,-79.488 1450.9793,-72.6048"/>
</g>
<!-- Node80 -->
<g id="node35" class="node">
<title>Node80</title>
<g id="a_node35"><a xlink:href="version_8h.html" target="_top" xlink:title="version.h">
<polygon fill="#ffffff" stroke="#000000" points="1459,-112.5 1459,-131.5 1515,-131.5 1515,-112.5 1459,-112.5"/>
<text text-anchor="middle" x="1487" y="-119.5" font-family="Helvetica,sans-Serif" font-size="10.00" fill="#000000">version.h</text>
</a>
</g>
</g>
<!-- Node54&#45;&gt;Node80 -->
<g id="edge88" class="edge">
<title>Node54&#45;&gt;Node80</title>
<path fill="none" stroke="#191970" d="M1596.3084,-168.3733C1574.9289,-159.3032 1542.6943,-145.6279 1518.7638,-135.4755"/>
<polygon fill="#191970" stroke="#191970" points="1519.9683,-132.1846 1509.3955,-131.5011 1517.2344,-138.6287 1519.9683,-132.1846"/>
</g>
<!-- Node81 -->
<g id="node36" class="node">
<title>Node81</title>
<polygon fill="#ffffff" stroke="#bfbfbf" points="1774.5,-112.5 1774.5,-131.5 1843.5,-131.5 1843.5,-112.5 1774.5,-112.5"/>
<text text-anchor="middle" x="1809" y="-119.5" font-family="Helvetica,sans-Serif" font-size="10.00" fill="#000000">leveldb/db.h</text>
</g>
<!-- Node54&#45;&gt;Node81 -->
<g id="edge89" class="edge">
<title>Node54&#45;&gt;Node81</title>
<path fill="none" stroke="#191970" d="M1651.6622,-168.3733C1683.5298,-158.9807 1732.1531,-144.6496 1766.907,-134.4064"/>
<polygon fill="#191970" stroke="#191970" points="1768.1615,-137.6855 1776.764,-131.5011 1766.1825,-130.9711 1768.1615,-137.6855"/>
</g>
<!-- Node82 -->
<g id="node37" class="node">
<title>Node82</title>
<polygon fill="#ffffff" stroke="#bfbfbf" points="1647.5,-112.5 1647.5,-131.5 1756.5,-131.5 1756.5,-112.5 1647.5,-112.5"/>
<text text-anchor="middle" x="1702" y="-119.5" font-family="Helvetica,sans-Serif" font-size="10.00" fill="#000000">leveldb/write_batch.h</text>
</g>
<!-- Node54&#45;&gt;Node82 -->
<g id="edge90" class="edge">
<title>Node54&#45;&gt;Node82</title>
<path fill="none" stroke="#191970" d="M1633.4575,-168.2455C1646.0732,-159.7337 1664.5944,-147.2375 1679.2045,-137.3801"/>
<polygon fill="#191970" stroke="#191970" points="1681.3761,-140.1371 1687.7082,-131.6427 1677.4609,-134.3343 1681.3761,-140.1371"/>
</g>
<!-- Node55&#45;&gt;Node7 -->
<g id="edge60" class="edge">
<title>Node55&#45;&gt;Node7</title>
<path fill="none" stroke="#191970" d="M1613,-56.2455C1613,-48.9382 1613,-38.6944 1613,-29.7046"/>
<polygon fill="#191970" stroke="#191970" points="1616.5001,-29.6426 1613,-19.6427 1609.5001,-29.6427 1616.5001,-29.6426"/>
</g>
<!-- Node55&#45;&gt;Node8 -->
<g id="edge61" class="edge">
<title>Node55&#45;&gt;Node8</title>
<path fill="none" stroke="#191970" d="M1572.6328,-60.6305C1489.4612,-49.5673 1300.4493,-24.4256 1224.4943,-14.3223"/>
<polygon fill="#191970" stroke="#191970" points="1224.5084,-10.7934 1214.1342,-12.9442 1223.5854,-17.7323 1224.5084,-10.7934"/>
</g>
<!-- Node56&#45;&gt;Node7 -->
<g id="edge63" class="edge">
<title>Node56&#45;&gt;Node7</title>
<path fill="none" stroke="#191970" d="M1963.418,-60.0569C1958.7961,-58.5636 1953.7418,-57.0805 1949,-56 1934.1664,-52.6198 1724.2007,-24.7044 1643.9115,-14.0819"/>
<polygon fill="#191970" stroke="#191970" points="1644.2832,-10.6007 1633.9107,-12.7595 1643.3655,-17.5403 1644.2832,-10.6007"/>
</g>
<!-- Node61&#45;&gt;Node3 -->
<g id="edge68" class="edge">
<title>Node61&#45;&gt;Node3</title>
<path fill="none" stroke="#191970" d="M1114.9219,-117.1875C1002.0228,-99.1237 603.7279,-35.3965 481.1634,-15.7861"/>
<polygon fill="#191970" stroke="#191970" points="481.5907,-12.3101 471.1633,-14.1861 480.4847,-19.2222 481.5907,-12.3101"/>
</g>
<!-- Node61&#45;&gt;Node6 -->
<g id="edge71" class="edge">
<title>Node61&#45;&gt;Node6</title>
<path fill="none" stroke="#191970" d="M1129.6533,-112.4509C1098.303,-92.9441 1026.7034,-48.3932 989.0925,-24.9909"/>
<polygon fill="#191970" stroke="#191970" points="990.6475,-21.8362 980.3079,-19.5249 986.9494,-27.7797 990.6475,-21.8362"/>
</g>
<!-- Node61&#45;&gt;Node7 -->
<g id="edge72" class="edge">
<title>Node61&#45;&gt;Node7</title>
<path fill="none" stroke="#191970" d="M1175.2446,-119.859C1284.6325,-112.0464 1653.712,-85.0582 1662,-76 1676.7868,-59.8391 1656.2267,-39.331 1637.3903,-25.4985"/>
<polygon fill="#191970" stroke="#191970" points="1639.1975,-22.492 1628.9903,-19.6523 1635.1988,-28.2375 1639.1975,-22.492"/>
</g>
<!-- Node61&#45;&gt;Node8 -->
<g id="edge74" class="edge">
<title>Node61&#45;&gt;Node8</title>
<path fill="none" stroke="#191970" d="M1149.0072,-112.4509C1156.7422,-94.0186 1173.8608,-53.2254 1184.0087,-29.043"/>
<polygon fill="#191970" stroke="#191970" points="1187.3607,-30.1002 1188.0029,-19.5249 1180.906,-27.3915 1187.3607,-30.1002"/>
</g>
<!-- Node61&#45;&gt;Node15 -->
<g id="edge69" class="edge">
<title>Node61&#45;&gt;Node15</title>
<path fill="none" stroke="#191970" d="M1114.9524,-113.8327C1083.7393,-105.1604 1033.5987,-90.7006 991,-76 942.0073,-59.0928 886.1973,-36.4839 852.8278,-22.5975"/>
<polygon fill="#191970" stroke="#191970" points="853.8008,-19.2108 843.2245,-18.5839 851.1014,-25.6694 853.8008,-19.2108"/>
</g>
<!-- Node61&#45;&gt;Node16 -->
<g id="edge70" class="edge">
<title>Node61&#45;&gt;Node16</title>
<path fill="none" stroke="#191970" d="M1175.2595,-120.6425C1259.1051,-116.6342 1501.4053,-103.3788 1701,-76 1732.2795,-71.7093 1939.6621,-30.7213 2015.9249,-15.5825"/>
<polygon fill="#191970" stroke="#191970" points="2017.0623,-18.9251 2026.1889,-13.5439 2015.6986,-12.0592 2017.0623,-18.9251"/>
</g>
<!-- Node61&#45;&gt;Node41 -->
<g id="edge66" class="edge">
<title>Node61&#45;&gt;Node41</title>
<path fill="none" stroke="#191970" d="M1158.4124,-112.2455C1170.0057,-103.814 1186.9748,-91.4729 1200.4678,-81.6598"/>
<polygon fill="#191970" stroke="#191970" points="1202.7126,-84.355 1208.7413,-75.6427 1198.5953,-78.6938 1202.7126,-84.355"/>
</g>
<!-- Node61&#45;&gt;Node42 -->
<g id="edge67" class="edge">
<title>Node61&#45;&gt;Node42</title>
<path fill="none" stroke="#191970" d="M1122.8439,-112.3827C1101.5707,-103.1275 1068.5463,-88.7047 1040,-76 1000.0432,-58.2169 954.0954,-37.3822 924.5872,-23.952"/>
<polygon fill="#191970" stroke="#191970" points="925.7941,-20.6558 915.2428,-19.6964 922.8928,-27.0263 925.7941,-20.6558"/>
</g>
<!-- Node61&#45;&gt;Node46 -->
<g id="edge73" class="edge">
<title>Node61&#45;&gt;Node46</title>
<path fill="none" stroke="#191970" d="M1175.3516,-120.9577C1281.9442,-117.083 1635.0575,-102.3583 1678,-76 1695.187,-65.4505 1706.2827,-44.714 1712.5401,-29.2864"/>
<polygon fill="#191970" stroke="#191970" points="1715.9203,-30.2374 1716.1146,-19.6443 1709.3567,-27.8041 1715.9203,-30.2374"/>
</g>
<!-- Node64&#45;&gt;Node6 -->
<g id="edge81" class="edge">
<title>Node64&#45;&gt;Node6</title>
<path fill="none" stroke="#191970" d="M1937.8453,-120.0081C1916.9894,-117.8743 1882.6455,-114.463 1853,-112 1624.7822,-93.0391 1565.0047,-112.9422 1339,-76 1304.1053,-70.2962 1296.6254,-63.1594 1262,-56 1167.9146,-36.5463 1055.5224,-21.2795 999.8332,-14.2409"/>
<polygon fill="#191970" stroke="#191970" points="1000.1499,-10.7533 989.7925,-12.9836 999.2801,-17.6991 1000.1499,-10.7533"/>
</g>
<!-- Node64&#45;&gt;Node7 -->
<g id="edge82" class="edge">
<title>Node64&#45;&gt;Node7</title>
<path fill="none" stroke="#191970" d="M1953.0979,-112.0158C1946.7193,-97.1351 1932.5688,-69.4515 1911,-56 1899.7015,-48.9536 1718.0732,-24.0442 1644.0414,-14.1224"/>
<polygon fill="#191970" stroke="#191970" points="1644.3081,-10.627 1633.9325,-12.7712 1643.3806,-17.5653 1644.3081,-10.627"/>
</g>
<!-- Node64&#45;&gt;Node8 -->
<g id="edge83" class="edge">
<title>Node64&#45;&gt;Node8</title>
<path fill="none" stroke="#191970" d="M1947.0969,-112.3618C1929.6417,-95.6147 1893.7578,-62.3207 1878,-56 1816.9775,-31.5229 1352.8521,-15.1049 1224.6923,-11.0048"/>
<polygon fill="#191970" stroke="#191970" points="1224.4666,-7.496 1214.3608,-10.6778 1224.245,-14.4925 1224.4666,-7.496"/>
</g>
<!-- Node64&#45;&gt;Node16 -->
<g id="edge79" class="edge">
<title>Node64&#45;&gt;Node16</title>
<path fill="none" stroke="#191970" d="M1969.2393,-112.2776C1979.7806,-103.5146 1994.9908,-89.905 2006,-76 2017.7557,-61.1521 2028.2525,-42.258 2035.219,-28.4935"/>
<polygon fill="#191970" stroke="#191970" points="2038.3651,-30.0271 2039.6352,-19.5087 2032.0829,-26.9392 2038.3651,-30.0271"/>
</g>
<!-- Node64&#45;&gt;Node44 -->
<g id="edge80" class="edge">
<title>Node64&#45;&gt;Node44</title>
<path fill="none" stroke="#191970" d="M1976.4214,-114.6514C2025.622,-96.0349 2155.694,-46.8185 2218.3285,-23.119"/>
<polygon fill="#191970" stroke="#191970" points="2219.665,-26.3555 2227.7792,-19.543 2217.1877,-19.8085 2219.665,-26.3555"/>
</g>
<!-- Node64&#45;&gt;Node49 -->
<g id="edge77" class="edge">
<title>Node64&#45;&gt;Node49</title>
<path fill="none" stroke="#191970" d="M1937.8645,-119.7385C1917.025,-117.3742 1882.6951,-113.7673 1853,-112 1159.3764,-70.7197 984.3719,-101.7959 290,-76 238.2244,-74.0765 178.7642,-70.8853 139.251,-68.6257"/>
<polygon fill="#191970" stroke="#191970" points="139.3405,-65.1252 129.1557,-68.0438 138.9377,-72.1136 139.3405,-65.1252"/>
</g>
<!-- Node64&#45;&gt;Node56 -->
<g id="edge76" class="edge">
<title>Node64&#45;&gt;Node56</title>
<path fill="none" stroke="#191970" d="M1961.0063,-112.2455C1964.0735,-104.7776 1968.4003,-94.2427 1972.1497,-85.1137"/>
<polygon fill="#191970" stroke="#191970" points="1975.4779,-86.2226 1976.0396,-75.6427 1969.0028,-83.5631 1975.4779,-86.2226"/>
</g>
<!-- Node66 -->
<g id="node33" class="node">
<title>Node66</title>
<polygon fill="#ffffff" stroke="#bfbfbf" points="1823,-56.5 1823,-75.5 1869,-75.5 1869,-56.5 1823,-56.5"/>
<text text-anchor="middle" x="1846" y="-63.5" font-family="Helvetica,sans-Serif" font-size="10.00" fill="#000000">atomic</text>
</g>
<!-- Node64&#45;&gt;Node66 -->
<g id="edge78" class="edge">
<title>Node64&#45;&gt;Node66</title>
<path fill="none" stroke="#191970" d="M1937.9184,-112.3733C1920.2598,-103.4644 1893.7947,-90.1127 1873.7902,-80.0203"/>
<polygon fill="#191970" stroke="#191970" points="1875.3372,-76.8806 1864.8326,-75.5011 1872.1842,-83.1303 1875.3372,-76.8806"/>
</g>
<!-- Node79&#45;&gt;Node6 -->
<g id="edge85" class="edge">
<title>Node79&#45;&gt;Node6</title>
<path fill="none" stroke="#191970" d="M1347.4016,-58.1732C1342.5424,-57.4132 1337.6734,-56.6749 1333,-56 1210.7619,-38.3471 1065.0954,-21.3221 999.7414,-13.8952"/>
<polygon fill="#191970" stroke="#191970" points="999.9216,-10.3934 989.5913,-12.7457 999.1338,-17.3489 999.9216,-10.3934"/>
</g>
<!-- Node79&#45;&gt;Node7 -->
<g id="edge86" class="edge">
<title>Node79&#45;&gt;Node7</title>
<path fill="none" stroke="#191970" d="M1431.6474,-56.3733C1474.3076,-45.4647 1543.0182,-27.8949 1582.4808,-17.804"/>
<polygon fill="#191970" stroke="#191970" points="1583.4988,-21.1564 1592.32,-15.288 1581.7646,-14.3746 1583.4988,-21.1564"/>
</g>
<!-- Node79&#45;&gt;Node8 -->
<g id="edge87" class="edge">
<title>Node79&#45;&gt;Node8</title>
<path fill="none" stroke="#191970" d="M1359.275,-56.3733C1321.228,-45.8256 1260.7161,-29.05 1223.8491,-18.8294"/>
<polygon fill="#191970" stroke="#191970" points="1224.6876,-15.43 1214.116,-16.1312 1222.8175,-22.1756 1224.6876,-15.43"/>
</g>
<!-- Node83&#45;&gt;Node66 -->
<g id="edge94" class="edge">
<title>Node83&#45;&gt;Node66</title>
<path fill="none" stroke="#191970" d="M720.6638,-231.4117C884.4539,-221.7025 1453,-188 1453,-188 1540.0791,-168.2022 1553.7744,-138.6704 1639,-112 1699.1162,-93.1873 1771.345,-78.973 1812.639,-71.6144"/>
<polygon fill="#191970" stroke="#191970" points="1813.4468,-75.0262 1822.6911,-69.85 1812.2366,-68.1316 1813.4468,-75.0262"/>
</g>
<!-- Node84 -->
<g id="node39" class="node">
<title>Node84</title>
<polygon fill="#ffffff" stroke="#bfbfbf" points="499,-168.5 499,-187.5 545,-187.5 545,-168.5 499,-168.5"/>
<text text-anchor="middle" x="522" y="-175.5" font-family="Helvetica,sans-Serif" font-size="10.00" fill="#000000">chrono</text>
</g>
<!-- Node83&#45;&gt;Node84 -->
<g id="edge95" class="edge">
<title>Node83&#45;&gt;Node84</title>
<path fill="none" stroke="#191970" d="M650.3546,-224.3733C623.8744,-214.8062 583.2128,-200.1156 554.7712,-189.8399"/>
<polygon fill="#191970" stroke="#191970" points="555.8583,-186.5113 545.264,-186.4051 553.4797,-193.0948 555.8583,-186.5113"/>
</g>
<!-- Node72 -->
<g id="node40" class="node">
<title>Node72</title>
<polygon fill="#ffffff" stroke="#bfbfbf" points="563.5,-168.5 563.5,-187.5 658.5,-187.5 658.5,-168.5 563.5,-168.5"/>
<text text-anchor="middle" x="611" y="-175.5" font-family="Helvetica,sans-Serif" font-size="10.00" fill="#000000">condition_variable</text>
</g>
<!-- Node83&#45;&gt;Node72 -->
<g id="edge96" class="edge">
<title>Node83&#45;&gt;Node72</title>
<path fill="none" stroke="#191970" d="M665.5037,-224.2455C655.7558,-215.9746 641.5741,-203.9416 630.1202,-194.2232"/>
<polygon fill="#191970" stroke="#191970" points="632.2541,-191.4437 622.3646,-187.6427 627.7253,-196.7813 632.2541,-191.4437"/>
</g>
<!-- Node69 -->
<g id="node41" class="node">
<title>Node69</title>
<polygon fill="#ffffff" stroke="#bfbfbf" points="677,-168.5 677,-187.5 721,-187.5 721,-168.5 677,-168.5"/>
<text text-anchor="middle" x="699" y="-175.5" font-family="Helvetica,sans-Serif" font-size="10.00" fill="#000000">mutex</text>
</g>
<!-- Node83&#45;&gt;Node69 -->
<g id="edge97" class="edge">
<title>Node83&#45;&gt;Node69</title>
<path fill="none" stroke="#191970" d="M680.8321,-224.2455C683.7659,-216.7776 687.9047,-206.2427 691.491,-197.1137"/>
<polygon fill="#191970" stroke="#191970" points="694.8129,-198.23 695.2118,-187.6427 688.2976,-195.6704 694.8129,-198.23"/>
</g>
<!-- Node85&#45;&gt;Node18 -->
<g id="edge100" class="edge">
<title>Node85&#45;&gt;Node18</title>
<path fill="none" stroke="#191970" d="M1078.4523,-224.2455C1063.7401,-215.5731 1042.0112,-202.7645 1025.1495,-192.825"/>
<polygon fill="#191970" stroke="#191970" points="1026.7502,-189.7057 1016.3581,-187.6427 1023.1954,-195.736 1026.7502,-189.7057"/>
</g>
<!-- Node85&#45;&gt;Node44 -->
<g id="edge102" class="edge">
<title>Node85&#45;&gt;Node44</title>
<path fill="none" stroke="#191970" d="M1147.1991,-225.1201C1150.1728,-224.7148 1153.1222,-224.3373 1156,-224 1380.3645,-197.6999 1438.603,-214.0213 1663,-188 1667.8493,-187.4377 2005.3549,-133.5015 2010,-132 2094.9801,-104.5302 2187.0725,-51.0304 2229.3517,-24.9774"/>
<polygon fill="#191970" stroke="#191970" points="2231.4205,-27.8126 2238.0651,-19.5604 2227.7246,-21.8678 2231.4205,-27.8126"/>
</g>
<!-- Node86 -->
<g id="node43" class="node">
<title>Node86</title>
<polygon fill="#ffffff" stroke="#bfbfbf" points="1115.5,-168.5 1115.5,-187.5 1174.5,-187.5 1174.5,-168.5 1115.5,-168.5"/>
<text text-anchor="middle" x="1145" y="-175.5" font-family="Helvetica,sans-Serif" font-size="10.00" fill="#000000">functional</text>
</g>
<!-- Node85&#45;&gt;Node86 -->
<g id="edge101" class="edge">
<title>Node85&#45;&gt;Node86</title>
<path fill="none" stroke="#191970" d="M1103.7093,-224.2455C1110.8073,-216.2958 1121.0084,-204.8706 1129.495,-195.3656"/>
<polygon fill="#191970" stroke="#191970" points="1132.3411,-197.4331 1136.3905,-187.6427 1127.1195,-192.771 1132.3411,-197.4331"/>
</g>
<!-- Node87&#45;&gt;Node1 -->
<g id="edge130" class="edge">
<title>Node87&#45;&gt;Node1</title>
<path fill="none" stroke="#191970" d="M1419.7764,-401.2225C1310.9536,-397.1099 823.7474,-375.159 433,-300 431.7188,-299.7536 430.417,-299.4881 429.1047,-299.2079"/>
<polygon fill="#191970" stroke="#191970" points="429.5458,-295.7165 419.0107,-296.8405 427.9473,-302.5315 429.5458,-295.7165"/>
</g>
<!-- Node87&#45;&gt;Node7 -->
<g id="edge134" class="edge">
<title>Node87&#45;&gt;Node7</title>
<path fill="none" stroke="#191970" d="M1464.3007,-401.1817C1591.0422,-396.2432 2215,-367.9716 2215,-290 2215,-290 2215,-290 2215,-234 2215,-111.9881 2117.9264,-104.5736 2006,-56 1876.3314,.2733 1830.3144,-37.1028 1690,-20 1674.7516,-18.1414 1657.8214,-15.956 1643.728,-14.1031"/>
<polygon fill="#191970" stroke="#191970" points="1643.9509,-10.6022 1633.5785,-12.7618 1643.0337,-17.5418 1643.9509,-10.6022"/>
</g>
<!-- Node87&#45;&gt;Node8 -->
<g id="edge136" class="edge">
<title>Node87&#45;&gt;Node8</title>
<path fill="none" stroke="#191970" d="M1436.0718,-392.2498C1413.8183,-356.4909 1331.3377,-231.339 1230,-168 1181.3368,-137.5841 1140.4605,-177.888 1106,-132 1077.7162,-94.3369 1132.9465,-48.656 1167.3598,-25.328"/>
<polygon fill="#191970" stroke="#191970" points="1169.5847,-28.0537 1176.0123,-19.6313 1165.7353,-22.2071 1169.5847,-28.0537"/>
</g>
<!-- Node87&#45;&gt;Node16 -->
<g id="edge132" class="edge">
<title>Node87&#45;&gt;Node16</title>
<path fill="none" stroke="#191970" d="M1464.0515,-401.9131C1570.7903,-401.2953 2034.2787,-396.2978 2172,-356 2230.045,-339.0158 2291,-350.4787 2291,-290 2291,-290 2291,-290 2291,-122 2291,-74.2764 2136.1226,-31.9053 2071.6486,-16.3342"/>
<polygon fill="#191970" stroke="#191970" points="2072.3018,-12.8921 2061.7636,-13.9866 2070.6842,-19.7026 2072.3018,-12.8921"/>
</g>
<!-- Node87&#45;&gt;Node17 -->
<g id="edge131" class="edge">
<title>Node87&#45;&gt;Node17</title>
<path fill="none" stroke="#191970" d="M1419.9878,-400.6512C1330.6921,-394.7494 996.6418,-368.37 921,-300 908.1179,-288.3563 903.4129,-268.7226 901.7544,-253.8891"/>
<polygon fill="#191970" stroke="#191970" points="905.2282,-253.4057 900.995,-243.6934 898.2475,-253.9257 905.2282,-253.4057"/>
</g>
<!-- Node87&#45;&gt;Node44 -->
<g id="edge133" class="edge">
<title>Node87&#45;&gt;Node44</title>
<path fill="none" stroke="#191970" d="M1464.249,-401.8653C1576.3072,-401.0105 2079.4372,-395.0271 2230,-356 2295.4241,-339.0415 2367,-357.5863 2367,-290 2367,-290 2367,-290 2367,-122 2367,-75.4628 2318.0617,-41.828 2284.3136,-24.1659"/>
<polygon fill="#191970" stroke="#191970" points="2285.7576,-20.9746 2275.251,-19.6105 2282.6138,-27.2289 2285.7576,-20.9746"/>
</g>
<!-- Node87&#45;&gt;Node46 -->
<g id="edge135" class="edge">
<title>Node87&#45;&gt;Node46</title>
<path fill="none" stroke="#191970" d="M1464.3002,-401.3258C1563.4245,-398.1887 1964.5604,-383.9755 2087,-356 2164.4006,-338.3152 2253,-369.3952 2253,-290 2253,-290 2253,-290 2253,-178 2253,-131.5625 2211.6706,-136.1389 2172,-112 2118.6054,-79.5102 2103.149,-72.9902 2043,-56 1937.7031,-26.2569 1807.4674,-15.2314 1749.4084,-11.5942"/>
<polygon fill="#191970" stroke="#191970" points="1749.2989,-8.0815 1739.1082,-10.98 1748.8821,-15.0691 1749.2989,-8.0815"/>
</g>
<!-- Node87&#45;&gt;Node54 -->
<g id="edge129" class="edge">
<title>Node87&#45;&gt;Node54</title>
<path fill="none" stroke="#191970" d="M1449.6055,-392.375C1476.8385,-357.9107 1569.7437,-240.3356 1605.1457,-195.5331"/>
<polygon fill="#191970" stroke="#191970" points="1607.9691,-197.6053 1611.4229,-187.5891 1602.4768,-193.2653 1607.9691,-197.6053"/>
</g>
<!-- Node88 -->
<g id="node45" class="node">
<title>Node88</title>
<g id="a_node45"><a xlink:href="coins_8h.html" target="_top" xlink:title="coins.h">
<polygon fill="#ffffff" stroke="#000000" points="1245,-336.5 1245,-355.5 1293,-355.5 1293,-336.5 1245,-336.5"/>
<text text-anchor="middle" x="1269" y="-343.5" font-family="Helvetica,sans-Serif" font-size="10.00" fill="#000000">coins.h</text>
</a>
</g>
</g>
<!-- Node87&#45;&gt;Node88 -->
<g id="edge104" class="edge">
<title>Node87&#45;&gt;Node88</title>
<path fill="none" stroke="#191970" d="M1419.7374,-394.7936C1390.0851,-385.1952 1337.3602,-368.1282 1302.7897,-356.9377"/>
<polygon fill="#191970" stroke="#191970" points="1303.7143,-353.5583 1293.1224,-353.8084 1301.5585,-360.218 1303.7143,-353.5583"/>
</g>
<!-- Node88&#45;&gt;Node3 -->
<g id="edge126" class="edge">
<title>Node88&#45;&gt;Node3</title>
<path fill="none" stroke="#191970" d="M1244.7547,-345.6243C1118.8453,-343.5438 538.6087,-332.3331 362,-300 267.8482,-282.7629 157,-329.7167 157,-234 157,-234 157,-234 157,-122 157,-68.5846 331.2619,-30.5007 408.6808,-16.2171"/>
<polygon fill="#191970" stroke="#191970" points="409.7177,-19.5863 418.934,-14.3604 408.4703,-12.6983 409.7177,-19.5863"/>
</g>
<!-- Node88&#45;&gt;Node6 -->
<g id="edge127" class="edge">
<title>Node88&#45;&gt;Node6</title>
<path fill="none" stroke="#191970" d="M1269.1869,-336.3387C1269.2456,-315.0566 1267.4362,-262.9311 1250,-224 1236.8345,-194.6044 1231.0182,-185.5342 1204,-168 1153.3506,-135.1296 1124.2477,-163.9295 1073,-132 1029.5929,-104.9555 993.6299,-55.2605 976.2466,-28.3974"/>
<polygon fill="#191970" stroke="#191970" points="979.0017,-26.2049 970.7035,-19.6177 973.0826,-29.9419 979.0017,-26.2049"/>
</g>
<!-- Node88&#45;&gt;Node10 -->
<g id="edge125" class="edge">
<title>Node88&#45;&gt;Node10</title>
<path fill="none" stroke="#191970" d="M1244.9742,-344.9691C1173.7427,-341.6488 957.6563,-329.6714 781,-300 677.2448,-282.5732 646.463,-288.2228 551,-244 512.604,-226.2133 494.0533,-225.2623 474,-188 466.441,-173.9541 466.2091,-155.6928 467.5744,-141.9404"/>
<polygon fill="#191970" stroke="#191970" points="471.0955,-142.0201 468.9711,-131.6404 464.159,-141.0794 471.0955,-142.0201"/>
</g>
<!-- Node88&#45;&gt;Node18 -->
<g id="edge105" class="edge">
<title>Node88&#45;&gt;Node18</title>
<path fill="none" stroke="#191970" d="M1244.6953,-341.1653C1198.4145,-330.8437 1096.6722,-302.6554 1034,-244 1020.3691,-231.2427 1011.2786,-211.7932 1005.9541,-197.3083"/>
<polygon fill="#191970" stroke="#191970" points="1009.2577,-196.1515 1002.7317,-187.8051 1002.6285,-198.3995 1009.2577,-196.1515"/>
</g>
<!-- Node88&#45;&gt;Node41 -->
<g id="edge124" class="edge">
<title>Node88&#45;&gt;Node41</title>
<path fill="none" stroke="#191970" d="M1272.8624,-336.3228C1276.3038,-327.1446 1281.0833,-312.8807 1283,-300 1295.3321,-217.1256 1306.216,-187.0681 1269,-112 1263.1949,-100.2905 1253.1841,-89.8556 1243.8895,-81.8965"/>
<polygon fill="#191970" stroke="#191970" points="1246.0141,-79.1137 1236.0295,-75.5697 1241.6248,-84.5666 1246.0141,-79.1137"/>
</g>
<!-- Node89 -->
<g id="node46" class="node">
<title>Node89</title>
<g id="a_node46"><a xlink:href="compressor_8h.html" target="_top" xlink:title="compressor.h">
<polygon fill="#ffffff" stroke="#ff0000" points="1165,-224.5 1165,-243.5 1241,-243.5 1241,-224.5 1165,-224.5"/>
<text text-anchor="middle" x="1203" y="-231.5" font-family="Helvetica,sans-Serif" font-size="10.00" fill="#000000">compressor.h</text>
</a>
</g>
</g>
<!-- Node88&#45;&gt;Node89 -->
<g id="edge106" class="edge">
<title>Node88&#45;&gt;Node89</title>
<path fill="none" stroke="#191970" d="M1263.3729,-336.4509C1252.4136,-317.8533 1228.0399,-276.4919 1213.8407,-252.3964"/>
<polygon fill="#191970" stroke="#191970" points="1216.7052,-250.3633 1208.6129,-243.5249 1210.6745,-253.9172 1216.7052,-250.3633"/>
</g>
<!-- Node90 -->
<g id="node47" class="node">
<title>Node90</title>
<g id="a_node47"><a xlink:href="core__memusage_8h.html" target="_top" xlink:title="core_memusage.h">
<polygon fill="#ffffff" stroke="#000000" points="929.5,-280.5 929.5,-299.5 1026.5,-299.5 1026.5,-280.5 929.5,-280.5"/>
<text text-anchor="middle" x="978" y="-287.5" font-family="Helvetica,sans-Serif" font-size="10.00" fill="#000000">core_memusage.h</text>
</a>
</g>
</g>
<!-- Node88&#45;&gt;Node90 -->
<g id="edge110" class="edge">
<title>Node88&#45;&gt;Node90</title>
<path fill="none" stroke="#191970" d="M1244.69,-341.3218C1199.2432,-332.576 1100.2501,-313.5258 1036.4901,-301.2558"/>
<polygon fill="#191970" stroke="#191970" points="1037.0543,-297.8003 1026.5731,-299.3474 1035.7315,-304.6741 1037.0543,-297.8003"/>
</g>
<!-- Node91 -->
<g id="node48" class="node">
<title>Node91</title>
<g id="a_node48"><a xlink:href="memusage_8h.html" target="_top" xlink:title="memusage.h">
<polygon fill="#ffffff" stroke="#ff0000" points="1871.5,-224.5 1871.5,-243.5 1944.5,-243.5 1944.5,-224.5 1871.5,-224.5"/>
<text text-anchor="middle" x="1908" y="-231.5" font-family="Helvetica,sans-Serif" font-size="10.00" fill="#000000">memusage.h</text>
</a>
</g>
</g>
<!-- Node88&#45;&gt;Node91 -->
<g id="edge123" class="edge">
<title>Node88&#45;&gt;Node91</title>
<path fill="none" stroke="#191970" d="M1293.448,-345.5902C1362.0512,-343.9996 1561.8675,-336.342 1723,-300 1778.7959,-287.4158 1840.8946,-262.9891 1877.0847,-247.6405"/>
<polygon fill="#191970" stroke="#191970" points="1878.767,-250.7274 1886.5783,-243.5695 1876.0083,-244.2939 1878.767,-250.7274"/>
</g>
<!-- Node93 -->
<g id="node49" class="node">
<title>Node93</title>
<polygon fill="#ffffff" stroke="#bfbfbf" points="1798.5,-168.5 1798.5,-187.5 1881.5,-187.5 1881.5,-168.5 1798.5,-168.5"/>
<text text-anchor="middle" x="1840" y="-175.5" font-family="Helvetica,sans-Serif" font-size="10.00" fill="#000000">unordered_map</text>
</g>
<!-- Node88&#45;&gt;Node93 -->
<g id="edge128" class="edge">
<title>Node88&#45;&gt;Node93</title>
<path fill="none" stroke="#191970" d="M1293.1704,-338.8886C1381.2566,-312.9718 1685.7724,-223.3769 1798.0212,-190.351"/>
<polygon fill="#191970" stroke="#191970" points="1799.0425,-193.699 1807.648,-187.5186 1797.0667,-186.9836 1799.0425,-193.699"/>
</g>
<!-- Node94 -->
<g id="node50" class="node">
<title>Node94</title>
<g id="a_node50"><a xlink:href="hash_8h.html" target="_top" xlink:title="hash.h">
<polygon fill="#ffffff" stroke="#ff0000" points="1398,-168.5 1398,-187.5 1444,-187.5 1444,-168.5 1398,-168.5"/>
<text text-anchor="middle" x="1421" y="-175.5" font-family="Helvetica,sans-Serif" font-size="10.00" fill="#000000">hash.h</text>
</a>
</g>
</g>
<!-- Node88&#45;&gt;Node94 -->
<g id="edge118" class="edge">
<title>Node88&#45;&gt;Node94</title>
<path fill="none" stroke="#191970" d="M1281.0548,-336.2789C1291.9218,-327.3004 1308.124,-313.3698 1321,-300 1354.5224,-265.1919 1389.3432,-220.4053 1407.7455,-195.9341"/>
<polygon fill="#191970" stroke="#191970" points="1410.7799,-197.7202 1413.9576,-187.6131 1405.1706,-193.5325 1410.7799,-197.7202"/>
</g>
<!-- Node89&#45;&gt;Node18 -->
<g id="edge107" class="edge">
<title>Node89&#45;&gt;Node18</title>
<path fill="none" stroke="#191970" d="M1168.1031,-224.3733C1133.9089,-214.9404 1081.6585,-200.5265 1044.4958,-190.2747"/>
<polygon fill="#191970" stroke="#191970" points="1045.0123,-186.7865 1034.4416,-187.5011 1043.1507,-193.5345 1045.0123,-186.7865"/>
</g>
<!-- Node89&#45;&gt;Node20 -->
<g id="edge108" class="edge">
<title>Node89&#45;&gt;Node20</title>
<path fill="none" stroke="#191970" d="M1203.178,-224.3056C1202.8814,-209.8034 1200.0487,-182.6074 1184,-168 1182.1793,-166.3428 1058.5983,-143.6069 988.0375,-130.7336"/>
<polygon fill="#191970" stroke="#191970" points="988.4981,-127.26 978.0324,-128.9095 987.2425,-134.1465 988.4981,-127.26"/>
</g>
<!-- Node89&#45;&gt;Node41 -->
<g id="edge109" class="edge">
<title>Node89&#45;&gt;Node41</title>
<path fill="none" stroke="#191970" d="M1209.828,-224.4791C1221.8082,-207.1204 1246.1797,-168.7214 1255,-132 1257.076,-123.3569 1257.7214,-120.4621 1255,-112 1251.6054,-101.4445 1244.7942,-91.2592 1238.2369,-83.1676"/>
<polygon fill="#191970" stroke="#191970" points="1240.8431,-80.8307 1231.6492,-75.5654 1235.553,-85.4149 1240.8431,-80.8307"/>
</g>
<!-- Node90&#45;&gt;Node17 -->
<g id="edge112" class="edge">
<title>Node90&#45;&gt;Node17</title>
<path fill="none" stroke="#191970" d="M964.5876,-280.2455C952.9943,-271.814 936.0252,-259.4729 922.5322,-249.6598"/>
<polygon fill="#191970" stroke="#191970" points="924.4047,-246.6938 914.2587,-243.6427 920.2874,-252.355 924.4047,-246.6938"/>
</g>
<!-- Node90&#45;&gt;Node18 -->
<g id="edge111" class="edge">
<title>Node90&#45;&gt;Node18</title>
<path fill="none" stroke="#191970" d="M979.8757,-280.4509C983.4801,-262.1013 991.4375,-221.5908 996.1953,-197.3693"/>
<polygon fill="#191970" stroke="#191970" points="999.6359,-198.012 998.129,-187.5249 992.7671,-196.6627 999.6359,-198.012"/>
</g>
<!-- Node90&#45;&gt;Node91 -->
<g id="edge113" class="edge">
<title>Node90&#45;&gt;Node91</title>
<path fill="none" stroke="#191970" d="M1026.6914,-287.068C1187.8084,-277.3664 1702.3994,-246.3803 1861.0057,-236.8298"/>
<polygon fill="#191970" stroke="#191970" points="1861.5947,-240.3007 1871.3662,-236.2059 1861.1739,-233.3134 1861.5947,-240.3007"/>
</g>
<!-- Node91&#45;&gt;Node8 -->
<g id="edge116" class="edge">
<title>Node91&#45;&gt;Node8</title>
<path fill="none" stroke="#191970" d="M1907.1579,-224.3639C1904.4544,-200.1397 1893.6228,-136.8649 1853,-112 1797.8009,-78.2131 1627.9942,-85.6561 1564,-76 1555.5278,-74.7216 1312.935,-31.5387 1224.1508,-15.7269"/>
<polygon fill="#191970" stroke="#191970" points="1224.5709,-12.2467 1214.1121,-13.939 1223.3434,-19.1383 1224.5709,-12.2467"/>
</g>
<!-- Node91&#45;&gt;Node16 -->
<g id="edge114" class="edge">
<title>Node91&#45;&gt;Node16</title>
<path fill="none" stroke="#191970" d="M1922.4402,-224.3316C1953.5167,-202.4403 2025.5762,-145.5391 2046,-76 2050.4418,-60.8764 2049.5352,-42.9587 2047.7441,-29.6114"/>
<polygon fill="#191970" stroke="#191970" points="2051.1825,-28.9485 2046.1296,-19.6363 2044.2724,-30.067 2051.1825,-28.9485"/>
</g>
<!-- Node91&#45;&gt;Node44 -->
<g id="edge115" class="edge">
<title>Node91&#45;&gt;Node44</title>
<path fill="none" stroke="#191970" d="M1944.7357,-230.5941C2020.6199,-221.3504 2193.697,-188.3497 2267,-76 2276.1677,-61.9488 2270.6939,-42.9598 2264.0927,-28.9573"/>
<polygon fill="#191970" stroke="#191970" points="2267.0254,-27.0135 2259.28,-19.7844 2260.8268,-30.2657 2267.0254,-27.0135"/>
</g>
<!-- Node91&#45;&gt;Node93 -->
<g id="edge117" class="edge">
<title>Node91&#45;&gt;Node93</title>
<path fill="none" stroke="#191970" d="M1896.1553,-224.2455C1886.112,-215.9746 1871.5005,-203.9416 1859.6996,-194.2232"/>
<polygon fill="#191970" stroke="#191970" points="1861.6533,-191.298 1851.709,-187.6427 1857.2033,-196.7015 1861.6533,-191.298"/>
</g>
<!-- Node94&#45;&gt;Node8 -->
<g id="edge122" class="edge">
<title>Node94&#45;&gt;Node8</title>
<path fill="none" stroke="#191970" d="M1419.1051,-168.3326C1415.9221,-154.3517 1408.2915,-128.3745 1393,-112 1368.2112,-85.4556 1273.6919,-43.7776 1223.5981,-22.8688"/>
<polygon fill="#191970" stroke="#191970" points="1224.7835,-19.5714 1214.2055,-18.9746 1222.1025,-26.0377 1224.7835,-19.5714"/>
</g>
<!-- Node94&#45;&gt;Node10 -->
<g id="edge120" class="edge">
<title>Node94&#45;&gt;Node10</title>
<path fill="none" stroke="#191970" d="M1397.9874,-176.6435C1272.2314,-169.2305 667.9982,-133.6125 509.2643,-124.2556"/>
<polygon fill="#191970" stroke="#191970" points="509.2281,-120.7475 499.0394,-123.6528 508.8161,-127.7353 509.2281,-120.7475"/>
</g>
<!-- Node94&#45;&gt;Node41 -->
<g id="edge119" class="edge">
<title>Node94&#45;&gt;Node41</title>
<path fill="none" stroke="#191970" d="M1415.957,-168.4202C1407.921,-154.0679 1390.8612,-127.0648 1369,-112 1351.6405,-100.0373 1299.8994,-85.3603 1262.7149,-75.8507"/>
<polygon fill="#191970" stroke="#191970" points="1263.2061,-72.365 1252.6537,-73.3121 1261.4935,-79.1523 1263.2061,-72.365"/>
</g>
<!-- Node94&#45;&gt;Node80 -->
<g id="edge121" class="edge">
<title>Node94&#45;&gt;Node80</title>
<path fill="none" stroke="#191970" d="M1432.4963,-168.2455C1442.2442,-159.9746 1456.4259,-147.9416 1467.8798,-138.2232"/>
<polygon fill="#191970" stroke="#191970" points="1470.2747,-140.7813 1475.6354,-131.6427 1465.7459,-135.4437 1470.2747,-140.7813"/>
</g>
</g>
</svg>
