<?xml version="1.0" encoding="UTF-8" standalone="no"?>
<!DOCTYPE svg PUBLIC "-//W3C//DTD SVG 1.1//EN"
 "http://www.w3.org/Graphics/SVG/1.1/DTD/svg11.dtd">
<!-- Generated by graphviz version 2.49.3 (0)
 -->
<!-- Title: RegisterValidationInterface Pages: 1 -->
<svg width="561pt" height="66pt"
 viewBox="0.00 0.00 561.00 66.00" xmlns="http://www.w3.org/2000/svg" xmlns:xlink="http://www.w3.org/1999/xlink">
<g id="graph0" class="graph" transform="scale(1 1) rotate(0) translate(4 62)">
<title>RegisterValidationInterface</title>
<polygon fill="white" stroke="transparent" points="-4,4 -4,-62 557,-62 557,4 -4,4"/>
<!-- Node1 -->
<g id="node1" class="node">
<title>Node1</title>
<g id="a_node1"><a xlink:title="Register subscriber.">
<polygon fill="#bfbfbf" stroke="black" points="404,-19.5 404,-38.5 553,-38.5 553,-19.5 404,-19.5"/>
<text text-anchor="middle" x="478.5" y="-26.5" font-family="Helvetica,sans-Serif" font-size="10.00">RegisterValidationInterface</text>
</a>
</g>
</g>
<!-- Node2 -->
<g id="node2" class="node">
<title>Node2</title>
<g id="a_node2"><a xlink:href="init_8cpp.html#ad2bfca84e560eb87fbfbe9c20f893374" target="_top" xlink:title="Bitcoin core main initialization.">
<polygon fill="white" stroke="black" points="282,-38.5 282,-57.5 357,-57.5 357,-38.5 282,-38.5"/>
<text text-anchor="middle" x="319.5" y="-45.5" font-family="Helvetica,sans-Serif" font-size="10.00">AppInitMain</text>
</a>
</g>
</g>
<!-- Node1&#45;&gt;Node2 -->
<g id="edge1" class="edge">
<title>Node1&#45;&gt;Node2</title>
<path fill="none" stroke="midnightblue" d="M393.42,-39.18C380.75,-40.71 368.28,-42.22 357.33,-43.54"/>
<polygon fill="midnightblue" stroke="midnightblue" points="394.09,-42.62 403.6,-37.94 393.25,-35.67 394.09,-42.62"/>
</g>
<!-- Node5 -->
<g id="node5" class="node">
<title>Node5</title>
<g id="a_node5"><a xlink:href="class_base_index.html#ae54f18a228b5680dbbf181adbd06ec1d" target="_top" xlink:title="Start initializes the sync state and registers the instance as a ValidationInterface so that it stays...">
<polygon fill="white" stroke="black" points="271,-0.5 271,-19.5 368,-19.5 368,-0.5 271,-0.5"/>
<text text-anchor="middle" x="319.5" y="-7.5" font-family="Helvetica,sans-Serif" font-size="10.00">BaseIndex::Start</text>
</a>
</g>
</g>
<!-- Node1&#45;&gt;Node5 -->
<g id="edge4" class="edge">
<title>Node1&#45;&gt;Node5</title>
<path fill="none" stroke="midnightblue" d="M393.39,-18.82C384.71,-17.77 376.12,-16.73 368.04,-15.75"/>
<polygon fill="midnightblue" stroke="midnightblue" points="393.25,-22.33 403.6,-20.06 394.09,-15.38 393.25,-22.33"/>
</g>
<!-- Node3 -->
<g id="node3" class="node">
<title>Node3</title>
<g id="a_node3"><a xlink:href="bitcoind_8cpp.html#a111f3c7b82a1c083ce04328e970f5aca" target="_top" xlink:title=" ">
<polygon fill="white" stroke="black" points="130.5,-38.5 130.5,-57.5 181.5,-57.5 181.5,-38.5 130.5,-38.5"/>
<text text-anchor="middle" x="156" y="-45.5" font-family="Helvetica,sans-Serif" font-size="10.00">AppInit</text>
</a>
</g>
</g>
<!-- Node2&#45;&gt;Node3 -->
<g id="edge2" class="edge">
<title>Node2&#45;&gt;Node3</title>
<path fill="none" stroke="midnightblue" d="M271.82,-48C242.51,-48 205.86,-48 181.96,-48"/>
<polygon fill="midnightblue" stroke="midnightblue" points="271.85,-51.5 281.85,-48 271.85,-44.5 271.85,-51.5"/>
</g>
<!-- Node4 -->
<g id="node4" class="node">
<title>Node4</title>
<g id="a_node4"><a xlink:href="bitcoind_8cpp.html#a0ddf1224851353fc92bfbff6f499fa97" target="_top" xlink:title=" ">
<polygon fill="white" stroke="black" points="0,-38.5 0,-57.5 41,-57.5 41,-38.5 0,-38.5"/>
<text text-anchor="middle" x="20.5" y="-45.5" font-family="Helvetica,sans-Serif" font-size="10.00">main</text>
</a>
</g>
</g>
<!-- Node3&#45;&gt;Node4 -->
<g id="edge3" class="edge">
<title>Node3&#45;&gt;Node4</title>
<path fill="none" stroke="midnightblue" d="M120,-48C94.93,-48 62.08,-48 41.38,-48"/>
<polygon fill="midnightblue" stroke="midnightblue" points="120.2,-51.5 130.2,-48 120.2,-44.5 120.2,-51.5"/>
</g>
<!-- Node6 -->
<g id="node6" class="node">
<title>Node6</title>
<g id="a_node6"><a xlink:href="blockfilter__index__tests_8cpp.html#a40f8bbdd01faa299aeb86329fabb3eb4" target="_top" xlink:title=" ">
<polygon fill="white" stroke="black" points="77,-0.5 77,-19.5 235,-19.5 235,-0.5 77,-0.5"/>
<text text-anchor="middle" x="156" y="-7.5" font-family="Helvetica,sans-Serif" font-size="10.00">BOOST_FIXTURE_TEST_CASE</text>
</a>
</g>
</g>
<!-- Node5&#45;&gt;Node6 -->
<g id="edge5" class="edge">
<title>Node5&#45;&gt;Node6</title>
<path fill="none" stroke="midnightblue" d="M260.65,-10C252.36,-10 243.73,-10 235.14,-10"/>
<polygon fill="midnightblue" stroke="midnightblue" points="260.92,-13.5 270.92,-10 260.92,-6.5 260.92,-13.5"/>
</g>
</g>
</svg>
