<?xml version="1.0" encoding="UTF-8" standalone="no"?>
<!DOCTYPE svg PUBLIC "-//W3C//DTD SVG 1.1//EN"
 "http://www.w3.org/Graphics/SVG/1.1/DTD/svg11.dtd">
<!-- Generated by graphviz version 2.38.0 (20140413.2041)
 -->
<!-- Title: UnregisterValidationInterface Pages: 1 -->
<svg width="1334pt" height="405pt"
 viewBox="0.00 0.00 1334.00 405.13" xmlns="http://www.w3.org/2000/svg" xmlns:xlink="http://www.w3.org/1999/xlink">
<g id="graph0" class="graph" transform="scale(1 1) rotate(0) translate(4 401.135)">
<title>UnregisterValidationInterface</title>
<polygon fill="white" stroke="none" points="-4,4 -4,-401.135 1330,-401.135 1330,4 -4,4"/>
<!-- Node1 -->
<g id="node1" class="node"><title>Node1</title>
<polygon fill="#bfbfbf" stroke="black" points="0,-102.541 0,-121.541 155,-121.541 155,-102.541 0,-102.541"/>
<text text-anchor="middle" x="77.5" y="-109.541" font-family="Helvetica,sans-Serif" font-size="10.00">UnregisterValidationInterface</text>
</g>
<!-- Node2 -->
<g id="node2" class="node"><title>Node2</title>
<g id="a_node2"><a xlink:href="class_base_index.html#a0a8a238dd17aadc16839592098e9c42c" target="_top" xlink:title="Stops the instance from staying in sync with blockchain updates. ">
<polygon fill="white" stroke="black" points="560.5,-1.54093 560.5,-20.5409 655.5,-20.5409 655.5,-1.54093 560.5,-1.54093"/>
<text text-anchor="middle" x="608" y="-8.54093" font-family="Helvetica,sans-Serif" font-size="10.00">BaseIndex::Stop</text>
</a>
</g>
</g>
<!-- Node1&#45;&gt;Node2 -->
<g id="edge1" class="edge"><title>Node1&#45;&gt;Node2</title>
<path fill="none" stroke="midnightblue" d="M95.9492,-95.5108C116.736,-76.9876 153.398,-47.8751 191,-35.0409 318.857,8.59886 481.551,1.34069 560.215,-5.77941"/>
<polygon fill="midnightblue" stroke="midnightblue" points="93.3259,-93.1665 88.3007,-102.494 98.0457,-98.336 93.3259,-93.1665"/>
</g>
<!-- Node8 -->
<g id="node8" class="node"><title>Node8</title>
<g id="a_node8"><a xlink:href="init_8h.html#ac5f038c2b480cf9ef5e19e3eba8dbaf9" target="_top" xlink:title="Shutdown">
<polygon fill="white" stroke="black" points="576,-127.541 576,-146.541 640,-146.541 640,-127.541 576,-127.541"/>
<text text-anchor="middle" x="608" y="-134.541" font-family="Helvetica,sans-Serif" font-size="10.00">Shutdown</text>
</a>
</g>
</g>
<!-- Node1&#45;&gt;Node8 -->
<g id="edge9" class="edge"><title>Node1&#45;&gt;Node8</title>
<path fill="none" stroke="midnightblue" d="M165.335,-116.149C285.488,-121.832 496.588,-131.818 575.8,-135.565"/>
<polygon fill="midnightblue" stroke="midnightblue" points="165.22,-112.639 155.066,-115.663 164.889,-119.631 165.22,-112.639"/>
</g>
<!-- Node9 -->
<g id="node9" class="node"><title>Node9</title>
<g id="a_node9"><a xlink:href="classsubmitblock___state_catcher.html#a89abec4d0d8ea6b2cd651439e3a4f45f" target="_top" xlink:title="Notifies listeners of a block validation result. ">
<polygon fill="white" stroke="black" points="536.5,-204.041 536.5,-234.041 679.5,-234.041 679.5,-204.041 536.5,-204.041"/>
<text text-anchor="start" x="544.5" y="-222.041" font-family="Helvetica,sans-Serif" font-size="10.00">submitblock_StateCatcher</text>
<text text-anchor="middle" x="608" y="-211.041" font-family="Helvetica,sans-Serif" font-size="10.00">::BlockChecked</text>
</a>
</g>
</g>
<!-- Node1&#45;&gt;Node9 -->
<g id="edge10" class="edge"><title>Node1&#45;&gt;Node9</title>
<path fill="none" stroke="midnightblue" d="M93.9663,-129.197C114.003,-150.07 151.119,-184.341 191,-199.041 306.164,-241.491 451.509,-236.439 536.374,-228.216"/>
<polygon fill="midnightblue" stroke="midnightblue" points="96.3117,-126.58 86.9237,-121.67 91.2002,-131.363 96.3117,-126.58"/>
</g>
<!-- Node10 -->
<g id="node10" class="node"><title>Node10</title>
<g id="a_node10"><a xlink:href="class_c_validation_interface.html#a07bcbde7de90f5cfbc76f185465d4281" target="_top" xlink:title="Notifies listeners that a block which builds directly on our current tip has been received and connec...">
<polygon fill="white" stroke="black" points="191,-160.041 191,-190.041 303,-190.041 303,-160.041 191,-160.041"/>
<text text-anchor="start" x="199" y="-178.041" font-family="Helvetica,sans-Serif" font-size="10.00">CValidationInterface</text>
<text text-anchor="middle" x="247" y="-167.041" font-family="Helvetica,sans-Serif" font-size="10.00">::NewPoWValidBlock</text>
</a>
</g>
</g>
<!-- Node1&#45;&gt;Node10 -->
<g id="edge11" class="edge"><title>Node1&#45;&gt;Node10</title>
<path fill="none" stroke="midnightblue" d="M113.372,-125.157C140.351,-135.304 177.741,-149.367 205.946,-159.976"/>
<polygon fill="midnightblue" stroke="midnightblue" points="114.532,-121.854 103.94,-121.609 112.067,-128.406 114.532,-121.854"/>
</g>
<!-- Node15 -->
<g id="node15" class="node"><title>Node15</title>
<g id="a_node15"><a xlink:href="rpcwallet_8cpp.html#a74b85c92ee6a84277c73b74f2e212bff" target="_top" xlink:title="listtransactions">
<polygon fill="white" stroke="black" points="742.5,-165.541 742.5,-184.541 831.5,-184.541 831.5,-165.541 742.5,-165.541"/>
<text text-anchor="middle" x="787" y="-172.541" font-family="Helvetica,sans-Serif" font-size="10.00">listtransactions</text>
</a>
</g>
</g>
<!-- Node1&#45;&gt;Node15 -->
<g id="edge29" class="edge"><title>Node1&#45;&gt;Node15</title>
<path fill="none" stroke="midnightblue" d="M112.434,-99.0478C207.664,-64.739 483.646,19.8124 686,-68.0409 733.112,-88.495 768.137,-143.29 780.817,-165.497"/>
<polygon fill="midnightblue" stroke="midnightblue" points="111.205,-95.7708 103.014,-102.492 113.608,-102.345 111.205,-95.7708"/>
</g>
<!-- Node19 -->
<g id="node19" class="node"><title>Node19</title>
<g id="a_node19"><a xlink:href="struct_wallet_testing_setup.html#a33e783ffa83796a3611f0b0d9796e0ad" target="_top" xlink:title="WalletTestingSetup\l::~WalletTestingSetup">
<polygon fill="white" stroke="black" points="548,-78.0409 548,-108.041 668,-108.041 668,-78.0409 548,-78.0409"/>
<text text-anchor="start" x="556" y="-96.0409" font-family="Helvetica,sans-Serif" font-size="10.00">WalletTestingSetup</text>
<text text-anchor="middle" x="608" y="-85.0409" font-family="Helvetica,sans-Serif" font-size="10.00">::~WalletTestingSetup</text>
</a>
</g>
</g>
<!-- Node1&#45;&gt;Node19 -->
<g id="edge30" class="edge"><title>Node1&#45;&gt;Node19</title>
<path fill="none" stroke="midnightblue" d="M165.283,-108.921C273.289,-105.038 454.841,-98.5112 547.978,-95.1628"/>
<polygon fill="midnightblue" stroke="midnightblue" points="164.934,-105.431 155.066,-109.288 165.185,-112.427 164.934,-105.431"/>
</g>
<!-- Node3 -->
<g id="node3" class="node"><title>Node3</title>
<g id="a_node3"><a xlink:href="class_base_index.html#a2c103bcce27f46a14cc210c53d10b595" target="_top" xlink:title="Destructor interrupts sync thread if running and blocks until it exits. ">
<polygon fill="white" stroke="black" points="722,-39.5409 722,-58.5409 852,-58.5409 852,-39.5409 722,-39.5409"/>
<text text-anchor="middle" x="787" y="-46.5409" font-family="Helvetica,sans-Serif" font-size="10.00">BaseIndex::~BaseIndex</text>
</a>
</g>
</g>
<!-- Node2&#45;&gt;Node3 -->
<g id="edge2" class="edge"><title>Node2&#45;&gt;Node3</title>
<path fill="none" stroke="midnightblue" d="M663.742,-22.7935C688.77,-28.1667 718.035,-34.4495 741.657,-39.5209"/>
<polygon fill="midnightblue" stroke="midnightblue" points="664.176,-19.307 653.665,-20.6299 662.707,-26.1511 664.176,-19.307"/>
</g>
<!-- Node4 -->
<g id="node4" class="node"><title>Node4</title>
<g id="a_node4"><a xlink:href="class_base_index.html#a8960ca12b00a8a6c38428a07849ef88a" target="_top" xlink:title="Write update index entries for a newly connected block. ">
<polygon fill="white" stroke="black" points="888,-39.5409 888,-58.5409 1009,-58.5409 1009,-39.5409 888,-39.5409"/>
<text text-anchor="middle" x="948.5" y="-46.5409" font-family="Helvetica,sans-Serif" font-size="10.00">BaseIndex::WriteBlock</text>
</a>
</g>
</g>
<!-- Node2&#45;&gt;Node4 -->
<g id="edge8" class="edge"><title>Node2&#45;&gt;Node4</title>
<path fill="none" stroke="midnightblue" d="M665.922,-13.5843C715.298,-16.2449 788.601,-21.287 852,-30.0409 869.416,-32.4456 888.442,-36.0323 904.897,-39.4436"/>
<polygon fill="midnightblue" stroke="midnightblue" points="665.93,-10.08 655.761,-13.0522 665.564,-17.0704 665.93,-10.08"/>
</g>
<!-- Node3&#45;&gt;Node4 -->
<g id="edge3" class="edge"><title>Node3&#45;&gt;Node4</title>
<path fill="none" stroke="midnightblue" d="M862.626,-49.0409C871.048,-49.0409 879.548,-49.0409 887.746,-49.0409"/>
<polygon fill="midnightblue" stroke="midnightblue" points="862.415,-45.541 852.415,-49.0409 862.415,-52.541 862.415,-45.541"/>
</g>
<!-- Node5 -->
<g id="node5" class="node"><title>Node5</title>
<g id="a_node5"><a xlink:href="class_base_index.html#a96a7407421fbf877509248bbe64f8d87" target="_top" xlink:title="Sync the index with the block index starting from the current best block. ">
<polygon fill="white" stroke="black" points="1055.5,-20.5409 1055.5,-39.5409 1183.5,-39.5409 1183.5,-20.5409 1055.5,-20.5409"/>
<text text-anchor="middle" x="1119.5" y="-27.5409" font-family="Helvetica,sans-Serif" font-size="10.00">BaseIndex::ThreadSync</text>
</a>
</g>
</g>
<!-- Node4&#45;&gt;Node5 -->
<g id="edge4" class="edge"><title>Node4&#45;&gt;Node5</title>
<path fill="none" stroke="midnightblue" d="M1019.08,-41.2184C1031.12,-39.8643 1043.59,-38.4632 1055.44,-37.13"/>
<polygon fill="midnightblue" stroke="midnightblue" points="1018.63,-37.7468 1009.08,-42.3422 1019.41,-44.703 1018.63,-37.7468"/>
</g>
<!-- Node7 -->
<g id="node7" class="node"><title>Node7</title>
<g id="a_node7"><a xlink:href="class_base_index.html#ab3f7a06bc635950918ee072262887223" target="_top" xlink:title="Notifies listeners of a block being connected. ">
<polygon fill="white" stroke="black" points="1045,-96.5409 1045,-115.541 1194,-115.541 1194,-96.5409 1045,-96.5409"/>
<text text-anchor="middle" x="1119.5" y="-103.541" font-family="Helvetica,sans-Serif" font-size="10.00">BaseIndex::BlockConnected</text>
</a>
</g>
</g>
<!-- Node4&#45;&gt;Node7 -->
<g id="edge7" class="edge"><title>Node4&#45;&gt;Node7</title>
<path fill="none" stroke="midnightblue" d="M986.55,-62.0084C1004.22,-68.1515 1025.68,-75.5488 1045,-82.0409 1059.38,-86.8723 1075.38,-92.1146 1088.78,-96.4638"/>
<polygon fill="midnightblue" stroke="midnightblue" points="987.221,-58.536 976.626,-58.5526 984.919,-65.1467 987.221,-58.536"/>
</g>
<!-- Node6 -->
<g id="node6" class="node"><title>Node6</title>
<g id="a_node6"><a xlink:href="class_base_index.html#a2babb71bb9b93aadba06dae6e62d721b" target="_top" xlink:title="Start initializes the sync state and registers the instance as a ValidationInterface so that it stays...">
<polygon fill="white" stroke="black" points="1230,-58.5409 1230,-77.5409 1326,-77.5409 1326,-58.5409 1230,-58.5409"/>
<text text-anchor="middle" x="1278" y="-65.5409" font-family="Helvetica,sans-Serif" font-size="10.00">BaseIndex::Start</text>
</a>
</g>
</g>
<!-- Node5&#45;&gt;Node6 -->
<g id="edge5" class="edge"><title>Node5&#45;&gt;Node6</title>
<path fill="none" stroke="midnightblue" d="M1169.79,-42.0089C1191.72,-47.334 1217.18,-53.5171 1237.79,-58.5209"/>
<polygon fill="midnightblue" stroke="midnightblue" points="1170.54,-38.5884 1159.99,-39.6299 1168.88,-45.3907 1170.54,-38.5884"/>
</g>
<!-- Node6&#45;&gt;Node4 -->
<g id="edge6" class="edge"><title>Node6&#45;&gt;Node4</title>
<path fill="none" stroke="midnightblue" d="M1219.65,-64.7139C1160.62,-61.2893 1069.06,-55.9772 1009.19,-52.5037"/>
<polygon fill="midnightblue" stroke="midnightblue" points="1219.73,-68.2244 1229.92,-65.3095 1220.14,-61.2361 1219.73,-68.2244"/>
</g>
<!-- Node11 -->
<g id="node11" class="node"><title>Node11</title>
<g id="a_node11"><a xlink:href="validationinterface_8h.html#ade8ef59282b5f7521ecfd870a8e3b137" target="_top" xlink:title="Register a wallet to receive updates from core. ">
<polygon fill="white" stroke="black" points="345,-253.541 345,-272.541 488,-272.541 488,-253.541 345,-253.541"/>
<text text-anchor="middle" x="416.5" y="-260.541" font-family="Helvetica,sans-Serif" font-size="10.00">RegisterValidationInterface</text>
</a>
</g>
</g>
<!-- Node10&#45;&gt;Node11 -->
<g id="edge12" class="edge"><title>Node10&#45;&gt;Node11</title>
<path fill="none" stroke="midnightblue" d="M296.869,-194.515C333.986,-212.776 382.231,-238.979 403.979,-253.355"/>
<polygon fill="midnightblue" stroke="midnightblue" points="298.219,-191.28 287.695,-190.056 295.159,-197.576 298.219,-191.28"/>
</g>
<!-- Node18 -->
<g id="node18" class="node"><title>Node18</title>
<g id="a_node18"><a xlink:href="validationinterface_8h.html#a5e1776de1f87b4d045e9e2a198236b63" target="_top" xlink:title="Unregister a wallet from core. ">
<polygon fill="white" stroke="black" points="339,-165.541 339,-184.541 494,-184.541 494,-165.541 339,-165.541"/>
<text text-anchor="middle" x="416.5" y="-172.541" font-family="Helvetica,sans-Serif" font-size="10.00">UnregisterValidationInterface</text>
</a>
</g>
</g>
<!-- Node10&#45;&gt;Node18 -->
<g id="edge22" class="edge"><title>Node10&#45;&gt;Node18</title>
<path fill="none" stroke="midnightblue" d="M313.318,-168.438C321.646,-168.303 330.23,-168.261 338.717,-168.312"/>
<polygon fill="midnightblue" stroke="midnightblue" points="313.234,-164.939 303.31,-168.649 313.382,-171.938 313.234,-164.939"/>
</g>
<!-- Node11&#45;&gt;Node6 -->
<g id="edge13" class="edge"><title>Node11&#45;&gt;Node6</title>
<path fill="none" stroke="midnightblue" d="M429.934,-280.945C448.456,-305.959 485.886,-350.488 530,-370.041 634.304,-416.272 671.909,-389.041 786,-389.041 786,-389.041 786,-389.041 949.5,-389.041 1132.22,-389.041 1250.53,-131.058 1273.07,-77.6478"/>
<polygon fill="midnightblue" stroke="midnightblue" points="432.675,-278.762 423.988,-272.695 426.996,-282.854 432.675,-278.762"/>
</g>
<!-- Node11&#45;&gt;Node9 -->
<g id="edge19" class="edge"><title>Node11&#45;&gt;Node9</title>
<path fill="none" stroke="midnightblue" d="M468.377,-251.228C491.047,-245.964 518.017,-239.702 542.116,-234.106"/>
<polygon fill="midnightblue" stroke="midnightblue" points="467.568,-247.822 458.619,-253.494 469.151,-254.641 467.568,-247.822"/>
</g>
<!-- Node11&#45;&gt;Node10 -->
<g id="edge20" class="edge"><title>Node11&#45;&gt;Node10</title>
<path fill="none" stroke="midnightblue" d="M378.258,-249.199C344.3,-233.036 295.405,-206.968 268.204,-190.24"/>
<polygon fill="midnightblue" stroke="midnightblue" points="376.869,-252.412 387.41,-253.478 379.834,-246.072 376.869,-252.412"/>
</g>
<!-- Node12 -->
<g id="node12" class="node"><title>Node12</title>
<g id="a_node12"><a xlink:href="init_8h.html#a50b568a1d0cbbcde470f678bbbd60ecf" target="_top" xlink:title="Bitcoin core main initialization. ">
<polygon fill="white" stroke="black" points="572,-341.541 572,-360.541 644,-360.541 644,-341.541 572,-341.541"/>
<text text-anchor="middle" x="608" y="-348.541" font-family="Helvetica,sans-Serif" font-size="10.00">AppInitMain</text>
</a>
</g>
</g>
<!-- Node11&#45;&gt;Node12 -->
<g id="edge14" class="edge"><title>Node11&#45;&gt;Node12</title>
<path fill="none" stroke="midnightblue" d="M438.484,-278.662C460.316,-294.235 496.001,-317.825 530,-332.041 543.211,-337.565 558.396,-341.737 571.771,-344.743"/>
<polygon fill="midnightblue" stroke="midnightblue" points="440.442,-275.759 430.29,-272.727 436.336,-281.428 440.442,-275.759"/>
</g>
<!-- Node13 -->
<g id="node13" class="node"><title>Node13</title>
<g id="a_node13"><a xlink:href="class_c_wallet.html#a4e2993ef73d9b72e53839b66b6bd7a5d" target="_top" xlink:title="CWallet::CreateWalletFromFile">
<polygon fill="white" stroke="black" points="530,-253.541 530,-272.541 686,-272.541 686,-253.541 530,-253.541"/>
<text text-anchor="middle" x="608" y="-260.541" font-family="Helvetica,sans-Serif" font-size="10.00">CWallet::CreateWalletFromFile</text>
</a>
</g>
</g>
<!-- Node11&#45;&gt;Node13 -->
<g id="edge15" class="edge"><title>Node11&#45;&gt;Node13</title>
<path fill="none" stroke="midnightblue" d="M498.358,-263.041C508.748,-263.041 519.366,-263.041 529.697,-263.041"/>
<polygon fill="midnightblue" stroke="midnightblue" points="498.063,-259.541 488.063,-263.041 498.063,-266.541 498.063,-259.541"/>
</g>
<!-- Node17 -->
<g id="node17" class="node"><title>Node17</title>
<g id="a_node17"><a xlink:href="struct_wallet_testing_setup.html#a0125ada997b4b16803624bfd537d8902" target="_top" xlink:title="WalletTestingSetup\l::WalletTestingSetup">
<polygon fill="white" stroke="black" points="552,-292.041 552,-322.041 664,-322.041 664,-292.041 552,-292.041"/>
<text text-anchor="start" x="560" y="-310.041" font-family="Helvetica,sans-Serif" font-size="10.00">WalletTestingSetup</text>
<text text-anchor="middle" x="608" y="-299.041" font-family="Helvetica,sans-Serif" font-size="10.00">::WalletTestingSetup</text>
</a>
</g>
</g>
<!-- Node11&#45;&gt;Node17 -->
<g id="edge21" class="edge"><title>Node11&#45;&gt;Node17</title>
<path fill="none" stroke="midnightblue" d="M468.565,-274.898C494.336,-280.882 525.628,-288.147 551.936,-294.256"/>
<polygon fill="midnightblue" stroke="midnightblue" points="469.151,-271.441 458.619,-272.588 467.568,-278.259 469.151,-271.441"/>
</g>
<!-- Node14 -->
<g id="node14" class="node"><title>Node14</title>
<g id="a_node14"><a xlink:href="class_wallet_init.html#aebeab31fbacb7c241dc2d7fe7587fe8e" target="_top" xlink:title="Load wallet databases. ">
<polygon fill="white" stroke="black" points="742,-253.541 742,-272.541 832,-272.541 832,-253.541 742,-253.541"/>
<text text-anchor="middle" x="787" y="-260.541" font-family="Helvetica,sans-Serif" font-size="10.00">WalletInit::Open</text>
</a>
</g>
</g>
<!-- Node13&#45;&gt;Node14 -->
<g id="edge16" class="edge"><title>Node13&#45;&gt;Node14</title>
<path fill="none" stroke="midnightblue" d="M696.413,-263.041C712.117,-263.041 727.868,-263.041 741.685,-263.041"/>
<polygon fill="midnightblue" stroke="midnightblue" points="696.12,-259.541 686.12,-263.041 696.12,-266.541 696.12,-259.541"/>
</g>
<!-- Node13&#45;&gt;Node15 -->
<g id="edge17" class="edge"><title>Node13&#45;&gt;Node15</title>
<path fill="none" stroke="midnightblue" d="M666.233,-250.534C673.016,-248.365 679.746,-245.876 686,-243.041 720.992,-227.177 757.057,-199.245 774.779,-184.606"/>
<polygon fill="midnightblue" stroke="midnightblue" points="664.891,-247.282 656.303,-253.487 666.886,-253.991 664.891,-247.282"/>
</g>
<!-- Node16 -->
<g id="node16" class="node"><title>Node16</title>
<g id="a_node16"><a xlink:href="rpcwallet_8cpp.html#a61c7a90d1b36888fe11b751e746e18c0" target="_top" xlink:title="sethdseed">
<polygon fill="white" stroke="black" points="915,-165.541 915,-184.541 982,-184.541 982,-165.541 915,-165.541"/>
<text text-anchor="middle" x="948.5" y="-172.541" font-family="Helvetica,sans-Serif" font-size="10.00">sethdseed</text>
</a>
</g>
</g>
<!-- Node15&#45;&gt;Node16 -->
<g id="edge18" class="edge"><title>Node15&#45;&gt;Node16</title>
<path fill="none" stroke="midnightblue" d="M841.723,-175.041C865.967,-175.041 893.815,-175.041 914.85,-175.041"/>
<polygon fill="midnightblue" stroke="midnightblue" points="841.584,-171.541 831.584,-175.041 841.584,-178.541 841.584,-171.541"/>
</g>
<!-- Node18&#45;&gt;Node2 -->
<g id="edge23" class="edge"><title>Node18&#45;&gt;Node2</title>
<path fill="none" stroke="midnightblue" d="M433.801,-158.303C455.171,-136.655 494.159,-98.1552 530,-68.0409 551.138,-50.2799 577.239,-31.5858 592.979,-20.6368"/>
<polygon fill="midnightblue" stroke="midnightblue" points="431.273,-155.883 426.764,-165.47 436.268,-160.787 431.273,-155.883"/>
</g>
<!-- Node18&#45;&gt;Node8 -->
<g id="edge24" class="edge"><title>Node18&#45;&gt;Node8</title>
<path fill="none" stroke="midnightblue" d="M475.337,-163.443C508.424,-156.808 548.63,-148.746 575.841,-143.289"/>
<polygon fill="midnightblue" stroke="midnightblue" points="474.435,-160.054 465.319,-165.452 475.812,-166.917 474.435,-160.054"/>
</g>
<!-- Node18&#45;&gt;Node9 -->
<g id="edge25" class="edge"><title>Node18&#45;&gt;Node9</title>
<path fill="none" stroke="midnightblue" d="M468.377,-186.854C491.047,-192.118 518.017,-198.38 542.116,-203.976"/>
<polygon fill="midnightblue" stroke="midnightblue" points="469.151,-183.441 458.619,-184.588 467.568,-190.259 469.151,-183.441"/>
</g>
<!-- Node18&#45;&gt;Node10 -->
<g id="edge26" class="edge"><title>Node18&#45;&gt;Node10</title>
<path fill="none" stroke="midnightblue" d="M328.621,-181.787C320.018,-181.764 311.46,-181.646 303.31,-181.432"/>
<polygon fill="midnightblue" stroke="midnightblue" points="328.723,-185.287 338.717,-181.77 328.712,-178.287 328.723,-185.287"/>
</g>
<!-- Node18&#45;&gt;Node15 -->
<g id="edge27" class="edge"><title>Node18&#45;&gt;Node15</title>
<path fill="none" stroke="midnightblue" d="M504.649,-175.041C579.449,-175.041 684.14,-175.041 742.433,-175.041"/>
<polygon fill="midnightblue" stroke="midnightblue" points="504.301,-171.541 494.301,-175.041 504.301,-178.541 504.301,-171.541"/>
</g>
<!-- Node18&#45;&gt;Node19 -->
<g id="edge28" class="edge"><title>Node18&#45;&gt;Node19</title>
<path fill="none" stroke="midnightblue" d="M443.161,-160.597C465.623,-148.307 499.363,-130.686 530,-118.041 538.575,-114.502 547.846,-111.126 556.885,-108.064"/>
<polygon fill="midnightblue" stroke="midnightblue" points="441.33,-157.611 434.267,-165.508 444.713,-163.739 441.33,-157.611"/>
</g>
</g>
</svg>
