<?xml version="1.0" encoding="UTF-8" standalone="no"?>
<!DOCTYPE svg PUBLIC "-//W3C//DTD SVG 1.1//EN"
 "http://www.w3.org/Graphics/SVG/1.1/DTD/svg11.dtd">
<!-- Generated by graphviz version 2.38.0 (20140413.2041)
 -->
<!-- Title: src/bench/verify_script.cpp Pages: 1 -->
<svg width="2129pt" height="453pt"
 viewBox="0.00 0.00 2128.62 453.00" xmlns="http://www.w3.org/2000/svg" xmlns:xlink="http://www.w3.org/1999/xlink">
<g id="graph0" class="graph" transform="scale(1 1) rotate(0) translate(4 449)">
<title>src/bench/verify_script.cpp</title>
<polygon fill="white" stroke="none" points="-4,4 -4,-449 2124.62,-449 2124.62,4 -4,4"/>
<!-- Node1 -->
<g id="node1" class="node"><title>Node1</title>
<polygon fill="#bfbfbf" stroke="black" points="1020.55,-425.5 1020.55,-444.5 1163.55,-444.5 1163.55,-425.5 1020.55,-425.5"/>
<text text-anchor="middle" x="1092.05" y="-432.5" font-family="Helvetica,sans-Serif" font-size="10.00">src/bench/verify_script.cpp</text>
</g>
<!-- Node2 -->
<g id="node2" class="node"><title>Node2</title>
<g id="a_node2"><a xlink:href="bench_2bench_8h.html" target="_top" xlink:title="bench/bench.h">
<polygon fill="white" stroke="black" points="216.553,-185 216.553,-204 303.553,-204 303.553,-185 216.553,-185"/>
<text text-anchor="middle" x="260.053" y="-192" font-family="Helvetica,sans-Serif" font-size="10.00">bench/bench.h</text>
</a>
</g>
</g>
<!-- Node1&#45;&gt;Node2 -->
<g id="edge1" class="edge"><title>Node1&#45;&gt;Node2</title>
<path fill="none" stroke="midnightblue" d="M1020.13,-434.648C915.493,-434.107 715.799,-427.455 551.053,-389 484.987,-373.579 469.878,-363.046 409.053,-333 365.794,-311.631 351.178,-310.078 316.053,-277 296.098,-258.208 279.251,-231.155 269.397,-213.454"/>
<polygon fill="midnightblue" stroke="midnightblue" points="272.26,-211.388 264.433,-204.247 266.098,-214.71 272.26,-211.388"/>
</g>
<!-- Node11 -->
<g id="node11" class="node"><title>Node11</title>
<g id="a_node11"><a xlink:href="key_8h.html" target="_top" xlink:title="key.h">
<polygon fill="white" stroke="black" points="1071.55,-369.5 1071.55,-388.5 1112.55,-388.5 1112.55,-369.5 1071.55,-369.5"/>
<text text-anchor="middle" x="1092.05" y="-376.5" font-family="Helvetica,sans-Serif" font-size="10.00">key.h</text>
</a>
</g>
</g>
<!-- Node1&#45;&gt;Node11 -->
<g id="edge10" class="edge"><title>Node1&#45;&gt;Node11</title>
<path fill="none" stroke="midnightblue" d="M1092.05,-425.083C1092.05,-418.006 1092.05,-407.861 1092.05,-398.986"/>
<polygon fill="midnightblue" stroke="midnightblue" points="1095.55,-398.751 1092.05,-388.751 1088.55,-398.751 1095.55,-398.751"/>
</g>
<!-- Node38 -->
<g id="node38" class="node"><title>Node38</title>
<g id="a_node38"><a xlink:href="script_8h.html" target="_top" xlink:title="script/script.h">
<polygon fill="white" stroke="black" points="927.553,-252 927.553,-271 1008.55,-271 1008.55,-252 927.553,-252"/>
<text text-anchor="middle" x="968.053" y="-259" font-family="Helvetica,sans-Serif" font-size="10.00">script/script.h</text>
</a>
</g>
</g>
<!-- Node1&#45;&gt;Node38 -->
<g id="edge71" class="edge"><title>Node1&#45;&gt;Node38</title>
<path fill="none" stroke="midnightblue" d="M1085.73,-425.26C1066.16,-398.191 1006.31,-315.413 980.317,-279.462"/>
<polygon fill="midnightblue" stroke="midnightblue" points="982.908,-277.072 974.212,-271.019 977.235,-281.174 982.908,-277.072"/>
</g>
<!-- Node40 -->
<g id="node40" class="node"><title>Node40</title>
<g id="a_node40"><a xlink:href="sign_8h.html" target="_top" xlink:title="script/sign.h">
<polygon fill="white" stroke="black" points="1374.05,-369.5 1374.05,-388.5 1448.05,-388.5 1448.05,-369.5 1374.05,-369.5"/>
<text text-anchor="middle" x="1411.05" y="-376.5" font-family="Helvetica,sans-Serif" font-size="10.00">script/sign.h</text>
</a>
</g>
</g>
<!-- Node1&#45;&gt;Node40 -->
<g id="edge83" class="edge"><title>Node1&#45;&gt;Node40</title>
<path fill="none" stroke="midnightblue" d="M1143.45,-425.5C1197.42,-416.545 1284.73,-401.969 1360.05,-389 1361.32,-388.781 1362.61,-388.559 1363.91,-388.333"/>
<polygon fill="midnightblue" stroke="midnightblue" points="1364.76,-391.738 1374.01,-386.574 1363.56,-384.842 1364.76,-391.738"/>
</g>
<!-- Node45 -->
<g id="node45" class="node"><title>Node45</title>
<g id="a_node45"><a xlink:href="streams_8h.html" target="_top" xlink:title="streams.h">
<polygon fill="white" stroke="black" points="1737.55,-252 1737.55,-271 1802.55,-271 1802.55,-252 1737.55,-252"/>
<text text-anchor="middle" x="1770.05" y="-259" font-family="Helvetica,sans-Serif" font-size="10.00">streams.h</text>
</a>
</g>
</g>
<!-- Node1&#45;&gt;Node45 -->
<g id="edge115" class="edge"><title>Node1&#45;&gt;Node45</title>
<path fill="none" stroke="midnightblue" d="M1107.16,-425.388C1147.53,-402.799 1261.89,-341.62 1365.05,-313 1493.58,-277.342 1652.07,-266.819 1726.97,-263.747"/>
<polygon fill="midnightblue" stroke="midnightblue" points="1727.54,-267.227 1737.4,-263.345 1727.27,-260.232 1727.54,-267.227"/>
</g>
<!-- Node48 -->
<g id="node48" class="node"><title>Node48</title>
<g id="a_node48"><a xlink:href="standard_8h.html" target="_top" xlink:title="script/standard.h">
<polygon fill="white" stroke="black" points="325.053,-252 325.053,-271 423.053,-271 423.053,-252 325.053,-252"/>
<text text-anchor="middle" x="374.053" y="-259" font-family="Helvetica,sans-Serif" font-size="10.00">script/standard.h</text>
</a>
</g>
</g>
<!-- Node1&#45;&gt;Node48 -->
<g id="edge110" class="edge"><title>Node1&#45;&gt;Node48</title>
<path fill="none" stroke="midnightblue" d="M1020.44,-429.057C872.116,-417.846 536.85,-387.165 437.053,-333 414.139,-320.564 395.407,-296.422 384.489,-279.886"/>
<polygon fill="midnightblue" stroke="midnightblue" points="387.288,-277.763 378.99,-271.175 381.368,-281.5 387.288,-277.763"/>
</g>
<!-- Node50 -->
<g id="node50" class="node"><title>Node50</title>
<polygon fill="white" stroke="#bfbfbf" points="1466.55,-369.5 1466.55,-388.5 1507.55,-388.5 1507.55,-369.5 1466.55,-369.5"/>
<text text-anchor="middle" x="1487.05" y="-376.5" font-family="Helvetica,sans-Serif" font-size="10.00">array</text>
</g>
<!-- Node1&#45;&gt;Node50 -->
<g id="edge116" class="edge"><title>Node1&#45;&gt;Node50</title>
<path fill="none" stroke="midnightblue" d="M1163.63,-428.768C1235.41,-422.711 1349.15,-410.909 1456.48,-388.764"/>
<polygon fill="midnightblue" stroke="midnightblue" points="1457.45,-392.138 1466.51,-386.66 1456.01,-385.287 1457.45,-392.138"/>
</g>
<!-- Node3 -->
<g id="node3" class="node"><title>Node3</title>
<polygon fill="white" stroke="#bfbfbf" points="351.553,-118 351.553,-137 414.553,-137 414.553,-118 351.553,-118"/>
<text text-anchor="middle" x="383.053" y="-125" font-family="Helvetica,sans-Serif" font-size="10.00">functional</text>
</g>
<!-- Node2&#45;&gt;Node3 -->
<g id="edge2" class="edge"><title>Node2&#45;&gt;Node3</title>
<path fill="none" stroke="midnightblue" d="M276.386,-184.869C297.155,-173.893 333.239,-154.824 357.623,-141.938"/>
<polygon fill="midnightblue" stroke="midnightblue" points="359.446,-144.934 366.652,-137.167 356.175,-138.745 359.446,-144.934"/>
</g>
<!-- Node4 -->
<g id="node4" class="node"><title>Node4</title>
<polygon fill="white" stroke="#bfbfbf" points="1225.05,-118 1225.05,-137 1267.05,-137 1267.05,-118 1225.05,-118"/>
<text text-anchor="middle" x="1246.05" y="-125" font-family="Helvetica,sans-Serif" font-size="10.00">limits</text>
</g>
<!-- Node2&#45;&gt;Node4 -->
<g id="edge3" class="edge"><title>Node2&#45;&gt;Node4</title>
<path fill="none" stroke="midnightblue" d="M285.979,-184.996C294.225,-182.637 303.442,-180.353 312.053,-179 510.443,-147.819 1019.92,-190.479 1215.05,-143 1217.04,-142.515 1219.06,-141.898 1221.06,-141.193"/>
<polygon fill="midnightblue" stroke="midnightblue" points="1222.86,-144.235 1230.73,-137.137 1220.15,-137.78 1222.86,-144.235"/>
</g>
<!-- Node5 -->
<g id="node5" class="node"><title>Node5</title>
<polygon fill="white" stroke="#bfbfbf" points="1285.05,-118 1285.05,-137 1323.05,-137 1323.05,-118 1285.05,-118"/>
<text text-anchor="middle" x="1304.05" y="-125" font-family="Helvetica,sans-Serif" font-size="10.00">map</text>
</g>
<!-- Node2&#45;&gt;Node5 -->
<g id="edge4" class="edge"><title>Node2&#45;&gt;Node5</title>
<path fill="none" stroke="midnightblue" d="M285.977,-184.983C294.223,-182.623 303.44,-180.342 312.053,-179 523.866,-145.983 1068.75,-197.609 1276.05,-143 1277.73,-142.559 1279.41,-142.006 1281.09,-141.374"/>
<polygon fill="midnightblue" stroke="midnightblue" points="1282.67,-144.5 1290.3,-137.148 1279.75,-138.137 1282.67,-144.5"/>
</g>
<!-- Node6 -->
<g id="node6" class="node"><title>Node6</title>
<polygon fill="white" stroke="#bfbfbf" points="1059.05,-118 1059.05,-137 1103.05,-137 1103.05,-118 1059.05,-118"/>
<text text-anchor="middle" x="1081.05" y="-125" font-family="Helvetica,sans-Serif" font-size="10.00">string</text>
</g>
<!-- Node2&#45;&gt;Node6 -->
<g id="edge5" class="edge"><title>Node2&#45;&gt;Node6</title>
<path fill="none" stroke="midnightblue" d="M286.257,-184.997C294.436,-182.667 303.545,-180.401 312.053,-179 602.358,-131.205 680.137,-170.596 973.053,-143 998.511,-140.602 1027.19,-136.694 1048.6,-133.539"/>
<polygon fill="midnightblue" stroke="midnightblue" points="1049.4,-136.958 1058.77,-132.015 1048.36,-130.035 1049.4,-136.958"/>
</g>
<!-- Node7 -->
<g id="node7" class="node"><title>Node7</title>
<polygon fill="white" stroke="#bfbfbf" points="1159.55,-118 1159.55,-137 1206.55,-137 1206.55,-118 1159.55,-118"/>
<text text-anchor="middle" x="1183.05" y="-125" font-family="Helvetica,sans-Serif" font-size="10.00">vector</text>
</g>
<!-- Node2&#45;&gt;Node7 -->
<g id="edge6" class="edge"><title>Node2&#45;&gt;Node7</title>
<path fill="none" stroke="midnightblue" d="M286.249,-184.947C294.428,-182.616 303.538,-180.361 312.053,-179 663.509,-122.839 758.835,-186.742 1112.05,-143 1124.41,-141.469 1137.83,-138.954 1149.64,-136.445"/>
<polygon fill="midnightblue" stroke="midnightblue" points="1150.53,-139.834 1159.54,-134.266 1149.02,-132.998 1150.53,-139.834"/>
</g>
<!-- Node8 -->
<g id="node8" class="node"><title>Node8</title>
<polygon fill="white" stroke="#bfbfbf" points="27.0526,-118 27.0526,-137 77.0526,-137 77.0526,-118 27.0526,-118"/>
<text text-anchor="middle" x="52.0526" y="-125" font-family="Helvetica,sans-Serif" font-size="10.00">chrono</text>
</g>
<!-- Node2&#45;&gt;Node8 -->
<g id="edge7" class="edge"><title>Node2&#45;&gt;Node8</title>
<path fill="none" stroke="midnightblue" d="M225.985,-184.916C190.624,-175.704 133.897,-160.075 86.0526,-143 84.1941,-142.337 82.2916,-141.624 80.3823,-140.882"/>
<polygon fill="midnightblue" stroke="midnightblue" points="81.535,-137.572 70.9536,-137.039 78.8926,-144.055 81.535,-137.572"/>
</g>
<!-- Node9 -->
<g id="node9" class="node"><title>Node9</title>
<polygon fill="white" stroke="#bfbfbf" points="95.0526,-112.5 95.0526,-142.5 205.053,-142.5 205.053,-112.5 95.0526,-112.5"/>
<text text-anchor="start" x="103.053" y="-130.5" font-family="Helvetica,sans-Serif" font-size="10.00">boost/preprocessor</text>
<text text-anchor="middle" x="150.053" y="-119.5" font-family="Helvetica,sans-Serif" font-size="10.00">/cat.hpp</text>
</g>
<!-- Node2&#45;&gt;Node9 -->
<g id="edge8" class="edge"><title>Node2&#45;&gt;Node9</title>
<path fill="none" stroke="midnightblue" d="M245.218,-184.734C229.279,-175.316 203.447,-160.051 182.716,-147.801"/>
<polygon fill="midnightblue" stroke="midnightblue" points="184.285,-144.663 173.896,-142.589 180.724,-150.69 184.285,-144.663"/>
</g>
<!-- Node10 -->
<g id="node10" class="node"><title>Node10</title>
<polygon fill="white" stroke="#bfbfbf" points="223.053,-112.5 223.053,-142.5 333.053,-142.5 333.053,-112.5 223.053,-112.5"/>
<text text-anchor="start" x="231.053" y="-130.5" font-family="Helvetica,sans-Serif" font-size="10.00">boost/preprocessor</text>
<text text-anchor="middle" x="278.053" y="-119.5" font-family="Helvetica,sans-Serif" font-size="10.00">/stringize.hpp</text>
</g>
<!-- Node2&#45;&gt;Node10 -->
<g id="edge9" class="edge"><title>Node2&#45;&gt;Node10</title>
<path fill="none" stroke="midnightblue" d="M262.48,-184.734C264.772,-176.456 268.315,-163.662 271.443,-152.367"/>
<polygon fill="midnightblue" stroke="midnightblue" points="274.855,-153.16 274.151,-142.589 268.109,-151.292 274.855,-153.16"/>
</g>
<!-- Node11&#45;&gt;Node7 -->
<g id="edge70" class="edge"><title>Node11&#45;&gt;Node7</title>
<path fill="none" stroke="midnightblue" d="M1088.86,-369.151C1084.77,-356.627 1078.57,-333.023 1082.05,-313 1092.88,-250.672 1095.56,-232.028 1130.05,-179 1138.89,-165.417 1152.07,-152.837 1163.08,-143.631"/>
<polygon fill="midnightblue" stroke="midnightblue" points="1165.36,-146.283 1170.96,-137.287 1160.98,-140.829 1165.36,-146.283"/>
</g>
<!-- Node12 -->
<g id="node12" class="node"><title>Node12</title>
<g id="a_node12"><a xlink:href="pubkey_8h.html" target="_top" xlink:title="pubkey.h">
<polygon fill="white" stroke="black" points="1091.55,-313.5 1091.55,-332.5 1150.55,-332.5 1150.55,-313.5 1091.55,-313.5"/>
<text text-anchor="middle" x="1121.05" y="-320.5" font-family="Helvetica,sans-Serif" font-size="10.00">pubkey.h</text>
</a>
</g>
</g>
<!-- Node11&#45;&gt;Node12 -->
<g id="edge11" class="edge"><title>Node11&#45;&gt;Node12</title>
<path fill="none" stroke="midnightblue" d="M1096.84,-369.083C1100.81,-361.691 1106.58,-350.953 1111.49,-341.811"/>
<polygon fill="midnightblue" stroke="midnightblue" points="1114.71,-343.217 1116.35,-332.751 1108.54,-339.905 1114.71,-343.217"/>
</g>
<!-- Node23 -->
<g id="node23" class="node"><title>Node23</title>
<g id="a_node23"><a xlink:href="serialize_8h.html" target="_top" xlink:title="serialize.h">
<polygon fill="white" stroke="black" points="1650.55,-185 1650.55,-204 1715.55,-204 1715.55,-185 1650.55,-185"/>
<text text-anchor="middle" x="1683.05" y="-192" font-family="Helvetica,sans-Serif" font-size="10.00">serialize.h</text>
</a>
</g>
</g>
<!-- Node11&#45;&gt;Node23 -->
<g id="edge59" class="edge"><title>Node11&#45;&gt;Node23</title>
<path fill="none" stroke="midnightblue" d="M1112.57,-372.006C1185.08,-350.768 1435.85,-276.795 1641.05,-210 1643.65,-209.156 1646.32,-208.269 1649.01,-207.366"/>
<polygon fill="midnightblue" stroke="midnightblue" points="1650.33,-210.614 1658.67,-204.081 1648.08,-203.987 1650.33,-210.614"/>
</g>
<!-- Node31 -->
<g id="node31" class="node"><title>Node31</title>
<g id="a_node31"><a xlink:href="uint256_8h.html" target="_top" xlink:title="uint256.h">
<polygon fill="white" stroke="black" points="717.053,-185 717.053,-204 779.053,-204 779.053,-185 717.053,-185"/>
<text text-anchor="middle" x="748.053" y="-192" font-family="Helvetica,sans-Serif" font-size="10.00">uint256.h</text>
</a>
</g>
</g>
<!-- Node11&#45;&gt;Node31 -->
<g id="edge68" class="edge"><title>Node11&#45;&gt;Node31</title>
<path fill="none" stroke="midnightblue" d="M1071.42,-369.842C1031.7,-353.861 942.231,-316.527 871.053,-277 833.124,-255.937 791.546,-227.072 767.748,-209.948"/>
<polygon fill="midnightblue" stroke="midnightblue" points="769.693,-207.035 759.542,-204 765.585,-212.703 769.693,-207.035"/>
</g>
<!-- Node33 -->
<g id="node33" class="node"><title>Node33</title>
<polygon fill="white" stroke="#bfbfbf" points="433.053,-118 433.053,-137 497.053,-137 497.053,-118 433.053,-118"/>
<text text-anchor="middle" x="465.053" y="-125" font-family="Helvetica,sans-Serif" font-size="10.00">stdexcept</text>
</g>
<!-- Node11&#45;&gt;Node33 -->
<g id="edge69" class="edge"><title>Node11&#45;&gt;Node33</title>
<path fill="none" stroke="midnightblue" d="M1071.26,-376.387C1001.19,-370.424 768.196,-346.26 590.053,-277 536.345,-256.119 511.538,-257.594 479.053,-210 466.372,-191.421 463.969,-165.056 464.013,-147.394"/>
<polygon fill="midnightblue" stroke="midnightblue" points="467.517,-147.313 464.312,-137.214 460.52,-147.107 467.517,-147.313"/>
</g>
<!-- Node35 -->
<g id="node35" class="node"><title>Node35</title>
<g id="a_node35"><a xlink:href="secure_8h.html" target="_top" xlink:title="support/allocators\l/secure.h">
<polygon fill="white" stroke="black" points="1196.55,-246.5 1196.55,-276.5 1299.55,-276.5 1299.55,-246.5 1196.55,-246.5"/>
<text text-anchor="start" x="1204.55" y="-264.5" font-family="Helvetica,sans-Serif" font-size="10.00">support/allocators</text>
<text text-anchor="middle" x="1248.05" y="-253.5" font-family="Helvetica,sans-Serif" font-size="10.00">/secure.h</text>
</a>
</g>
</g>
<!-- Node11&#45;&gt;Node35 -->
<g id="edge60" class="edge"><title>Node11&#45;&gt;Node35</title>
<path fill="none" stroke="midnightblue" d="M1105.61,-369.339C1119.3,-360.494 1140.95,-346.221 1159.05,-333 1181.08,-316.917 1205.29,-297.625 1222.9,-283.291"/>
<polygon fill="midnightblue" stroke="midnightblue" points="1225.44,-285.729 1230.97,-276.689 1221.01,-280.311 1225.44,-285.729"/>
</g>
<!-- Node12&#45;&gt;Node7 -->
<g id="edge58" class="edge"><title>Node12&#45;&gt;Node7</title>
<path fill="none" stroke="midnightblue" d="M1119.53,-313.4C1117.31,-299.138 1114.07,-269.804 1120.05,-246 1129.82,-207.107 1155.22,-167.041 1170.62,-145.203"/>
<polygon fill="midnightblue" stroke="midnightblue" points="1173.52,-147.172 1176.54,-137.016 1167.84,-143.073 1173.52,-147.172"/>
</g>
<!-- Node13 -->
<g id="node13" class="node"><title>Node13</title>
<g id="a_node13"><a xlink:href="hash_8h.html" target="_top" xlink:title="hash.h">
<polygon fill="white" stroke="red" points="1129.55,-252 1129.55,-271 1178.55,-271 1178.55,-252 1129.55,-252"/>
<text text-anchor="middle" x="1154.05" y="-259" font-family="Helvetica,sans-Serif" font-size="10.00">hash.h</text>
</a>
</g>
</g>
<!-- Node12&#45;&gt;Node13 -->
<g id="edge12" class="edge"><title>Node12&#45;&gt;Node13</title>
<path fill="none" stroke="midnightblue" d="M1125.78,-313.475C1130.63,-304.727 1138.32,-290.869 1144.45,-279.809"/>
<polygon fill="midnightblue" stroke="midnightblue" points="1147.54,-281.452 1149.33,-271.009 1141.42,-278.057 1147.54,-281.452"/>
</g>
<!-- Node12&#45;&gt;Node23 -->
<g id="edge55" class="edge"><title>Node12&#45;&gt;Node23</title>
<path fill="none" stroke="midnightblue" d="M1150.68,-318.387C1188.53,-312.994 1255.42,-300.817 1308.05,-277 1329.85,-267.137 1329.74,-254.625 1352.05,-246 1472.78,-199.332 1514.97,-239.279 1641.05,-210 1644.46,-209.208 1647.98,-208.242 1651.47,-207.187"/>
<polygon fill="midnightblue" stroke="midnightblue" points="1652.65,-210.483 1661.07,-204.054 1650.48,-203.828 1652.65,-210.483"/>
</g>
<!-- Node12&#45;&gt;Node31 -->
<g id="edge56" class="edge"><title>Node12&#45;&gt;Node31</title>
<path fill="none" stroke="midnightblue" d="M1091.3,-319.216C1050.66,-314.577 976.193,-303.061 918.053,-277 896.554,-267.363 895.711,-257.327 875.053,-246 845.904,-230.017 810.622,-216.403 784.651,-207.352"/>
<polygon fill="midnightblue" stroke="midnightblue" points="785.78,-204.039 775.185,-204.111 783.512,-210.662 785.78,-204.039"/>
</g>
<!-- Node12&#45;&gt;Node33 -->
<g id="edge57" class="edge"><title>Node12&#45;&gt;Node33</title>
<path fill="none" stroke="midnightblue" d="M1091.44,-320.071C981.87,-312.422 600.932,-281.103 506.053,-210 485.392,-194.517 474.419,-165.707 469.174,-146.82"/>
<polygon fill="midnightblue" stroke="midnightblue" points="472.544,-145.871 466.717,-137.022 465.754,-147.573 472.544,-145.871"/>
</g>
<!-- Node13&#45;&gt;Node7 -->
<g id="edge54" class="edge"><title>Node13&#45;&gt;Node7</title>
<path fill="none" stroke="midnightblue" d="M1155.96,-251.839C1160.61,-230.674 1172.63,-175.948 1178.98,-147.033"/>
<polygon fill="midnightblue" stroke="midnightblue" points="1182.45,-147.539 1181.18,-137.021 1175.62,-146.037 1182.45,-147.539"/>
</g>
<!-- Node14 -->
<g id="node14" class="node"><title>Node14</title>
<g id="a_node14"><a xlink:href="prevector_8h.html" target="_top" xlink:title="prevector.h">
<polygon fill="white" stroke="black" points="1765.55,-118 1765.55,-137 1836.55,-137 1836.55,-118 1765.55,-118"/>
<text text-anchor="middle" x="1801.05" y="-125" font-family="Helvetica,sans-Serif" font-size="10.00">prevector.h</text>
</a>
</g>
</g>
<!-- Node13&#45;&gt;Node14 -->
<g id="edge13" class="edge"><title>Node13&#45;&gt;Node14</title>
<path fill="none" stroke="midnightblue" d="M1170.44,-251.933C1175.62,-249.601 1181.46,-247.349 1187.05,-246 1252.95,-230.116 1748.07,-257.878 1796.05,-210 1812.25,-193.838 1810.01,-165.656 1806.14,-147.037"/>
<polygon fill="midnightblue" stroke="midnightblue" points="1809.49,-146.004 1803.74,-137.108 1802.69,-147.65 1809.49,-146.004"/>
</g>
<!-- Node13&#45;&gt;Node23 -->
<g id="edge23" class="edge"><title>Node13&#45;&gt;Node23</title>
<path fill="none" stroke="midnightblue" d="M1170.79,-251.85C1175.89,-249.575 1181.59,-247.375 1187.05,-246 1383.34,-196.597 1442.91,-251.358 1641.05,-210 1644.56,-209.269 1648.17,-208.326 1651.74,-207.272"/>
<polygon fill="midnightblue" stroke="midnightblue" points="1653.11,-210.506 1661.55,-204.094 1650.96,-203.847 1653.11,-210.506"/>
</g>
<!-- Node13&#45;&gt;Node31 -->
<g id="edge43" class="edge"><title>Node13&#45;&gt;Node31</title>
<path fill="none" stroke="midnightblue" d="M1129.32,-256.96C1074.59,-249.067 939.088,-229.203 826.053,-210 814.08,-207.966 801.101,-205.613 789.231,-203.402"/>
<polygon fill="midnightblue" stroke="midnightblue" points="789.611,-199.912 779.137,-201.507 788.319,-206.792 789.611,-199.912"/>
</g>
<!-- Node15 -->
<g id="node15" class="node"><title>Node15</title>
<polygon fill="white" stroke="#bfbfbf" points="1457.05,-56.5 1457.05,-75.5 1513.05,-75.5 1513.05,-56.5 1457.05,-56.5"/>
<text text-anchor="middle" x="1485.05" y="-63.5" font-family="Helvetica,sans-Serif" font-size="10.00">assert.h</text>
</g>
<!-- Node14&#45;&gt;Node15 -->
<g id="edge14" class="edge"><title>Node14&#45;&gt;Node15</title>
<path fill="none" stroke="midnightblue" d="M1773.69,-117.952C1766.38,-115.836 1758.45,-113.693 1751.05,-112 1670.75,-93.6273 1575.23,-79.259 1523.31,-72.0652"/>
<polygon fill="midnightblue" stroke="midnightblue" points="1523.6,-68.5725 1513.22,-70.6815 1522.65,-75.5076 1523.6,-68.5725"/>
</g>
<!-- Node16 -->
<g id="node16" class="node"><title>Node16</title>
<polygon fill="white" stroke="#bfbfbf" points="1569.55,-56.5 1569.55,-75.5 1620.55,-75.5 1620.55,-56.5 1569.55,-56.5"/>
<text text-anchor="middle" x="1595.05" y="-63.5" font-family="Helvetica,sans-Serif" font-size="10.00">stdlib.h</text>
</g>
<!-- Node14&#45;&gt;Node16 -->
<g id="edge15" class="edge"><title>Node14&#45;&gt;Node16</title>
<path fill="none" stroke="midnightblue" d="M1771.71,-117.982C1764.93,-116.016 1757.74,-113.934 1751.05,-112 1709.64,-100.022 1662.03,-86.2936 1630.4,-77.1822"/>
<polygon fill="midnightblue" stroke="midnightblue" points="1631.31,-73.7997 1620.73,-74.3943 1629.37,-80.5261 1631.31,-73.7997"/>
</g>
<!-- Node17 -->
<g id="node17" class="node"><title>Node17</title>
<polygon fill="white" stroke="#bfbfbf" points="827.553,-0.5 827.553,-19.5 880.553,-19.5 880.553,-0.5 827.553,-0.5"/>
<text text-anchor="middle" x="854.053" y="-7.5" font-family="Helvetica,sans-Serif" font-size="10.00">stdint.h</text>
</g>
<!-- Node14&#45;&gt;Node17 -->
<g id="edge16" class="edge"><title>Node14&#45;&gt;Node17</title>
<path fill="none" stroke="midnightblue" d="M1776.21,-117.997C1749.24,-108.553 1705.07,-92.4563 1668.05,-76 1650.25,-68.086 1647.85,-61.1193 1629.05,-56 1487.41,-17.4195 1025.61,-11.914 891.119,-11.1298"/>
<polygon fill="midnightblue" stroke="midnightblue" points="890.944,-7.62896 880.925,-11.076 890.907,-14.6289 890.944,-7.62896"/>
</g>
<!-- Node18 -->
<g id="node18" class="node"><title>Node18</title>
<polygon fill="white" stroke="#bfbfbf" points="1385.55,-56.5 1385.55,-75.5 1438.55,-75.5 1438.55,-56.5 1385.55,-56.5"/>
<text text-anchor="middle" x="1412.05" y="-63.5" font-family="Helvetica,sans-Serif" font-size="10.00">string.h</text>
</g>
<!-- Node14&#45;&gt;Node18 -->
<g id="edge17" class="edge"><title>Node14&#45;&gt;Node18</title>
<path fill="none" stroke="midnightblue" d="M1765.55,-120.415C1749.53,-117.73 1730.35,-114.6 1713.05,-112 1598.73,-94.8191 1566.52,-98.2392 1448.85,-75.9542"/>
<polygon fill="midnightblue" stroke="midnightblue" points="1449.2,-72.4576 1438.72,-74.0128 1447.88,-79.3325 1449.2,-72.4576"/>
</g>
<!-- Node19 -->
<g id="node19" class="node"><title>Node19</title>
<polygon fill="white" stroke="#bfbfbf" points="1865.05,-56.5 1865.05,-75.5 1917.05,-75.5 1917.05,-56.5 1865.05,-56.5"/>
<text text-anchor="middle" x="1891.05" y="-63.5" font-family="Helvetica,sans-Serif" font-size="10.00">cstddef</text>
</g>
<!-- Node14&#45;&gt;Node19 -->
<g id="edge18" class="edge"><title>Node14&#45;&gt;Node19</title>
<path fill="none" stroke="midnightblue" d="M1813.95,-117.975C1828.52,-108.343 1852.45,-92.5175 1869.8,-81.0517"/>
<polygon fill="midnightblue" stroke="midnightblue" points="1871.77,-83.9437 1878.18,-75.5091 1867.91,-78.1044 1871.77,-83.9437"/>
</g>
<!-- Node20 -->
<g id="node20" class="node"><title>Node20</title>
<polygon fill="white" stroke="#bfbfbf" points="1677.05,-56.5 1677.05,-75.5 1729.05,-75.5 1729.05,-56.5 1677.05,-56.5"/>
<text text-anchor="middle" x="1703.05" y="-63.5" font-family="Helvetica,sans-Serif" font-size="10.00">iterator</text>
</g>
<!-- Node14&#45;&gt;Node20 -->
<g id="edge19" class="edge"><title>Node14&#45;&gt;Node20</title>
<path fill="none" stroke="midnightblue" d="M1787.01,-117.975C1771,-108.255 1744.6,-92.2266 1725.68,-80.7372"/>
<polygon fill="midnightblue" stroke="midnightblue" points="1727.43,-77.7072 1717.07,-75.5091 1723.8,-83.6907 1727.43,-77.7072"/>
</g>
<!-- Node21 -->
<g id="node21" class="node"><title>Node21</title>
<polygon fill="white" stroke="#bfbfbf" points="1782.05,-0.5 1782.05,-19.5 1850.05,-19.5 1850.05,-0.5 1782.05,-0.5"/>
<text text-anchor="middle" x="1816.05" y="-7.5" font-family="Helvetica,sans-Serif" font-size="10.00">type_traits</text>
</g>
<!-- Node14&#45;&gt;Node21 -->
<g id="edge20" class="edge"><title>Node14&#45;&gt;Node21</title>
<path fill="none" stroke="midnightblue" d="M1793.89,-117.771C1783.83,-104.405 1767.65,-78.0923 1776.05,-56 1780.39,-44.5976 1789.08,-34.2394 1797.26,-26.343"/>
<polygon fill="midnightblue" stroke="midnightblue" points="1799.69,-28.8633 1804.79,-19.5728 1795.01,-23.6595 1799.69,-28.8633"/>
</g>
<!-- Node22 -->
<g id="node22" class="node"><title>Node22</title>
<g id="a_node22"><a xlink:href="compat_8h.html" target="_top" xlink:title="compat.h">
<polygon fill="white" stroke="red" points="1785.05,-56.5 1785.05,-75.5 1847.05,-75.5 1847.05,-56.5 1785.05,-56.5"/>
<text text-anchor="middle" x="1816.05" y="-63.5" font-family="Helvetica,sans-Serif" font-size="10.00">compat.h</text>
</a>
</g>
</g>
<!-- Node14&#45;&gt;Node22 -->
<g id="edge21" class="edge"><title>Node14&#45;&gt;Node22</title>
<path fill="none" stroke="midnightblue" d="M1803.2,-117.975C1805.34,-109.492 1808.69,-96.2043 1811.43,-85.3222"/>
<polygon fill="midnightblue" stroke="midnightblue" points="1814.86,-86.0613 1813.91,-75.5091 1808.07,-84.3501 1814.86,-86.0613"/>
</g>
<!-- Node22&#45;&gt;Node21 -->
<g id="edge22" class="edge"><title>Node22&#45;&gt;Node21</title>
<path fill="none" stroke="midnightblue" d="M1816.05,-56.083C1816.05,-49.0059 1816.05,-38.8611 1816.05,-29.9865"/>
<polygon fill="midnightblue" stroke="midnightblue" points="1819.55,-29.751 1816.05,-19.7511 1812.55,-29.7511 1819.55,-29.751"/>
</g>
<!-- Node23&#45;&gt;Node4 -->
<g id="edge29" class="edge"><title>Node23&#45;&gt;Node4</title>
<path fill="none" stroke="midnightblue" d="M1661.53,-184.988C1655.04,-182.716 1647.83,-180.484 1641.05,-179 1481.81,-144.164 1432.97,-187.15 1276.05,-143 1274.17,-142.471 1272.27,-141.83 1270.38,-141.115"/>
<polygon fill="midnightblue" stroke="midnightblue" points="1271.78,-137.908 1261.21,-137.105 1268.97,-144.321 1271.78,-137.908"/>
</g>
<!-- Node23&#45;&gt;Node5 -->
<g id="edge30" class="edge"><title>Node23&#45;&gt;Node5</title>
<path fill="none" stroke="midnightblue" d="M1661.08,-184.912C1654.7,-182.694 1647.67,-180.509 1641.05,-179 1506.25,-148.26 1464.27,-183.45 1332.05,-143 1330.58,-142.55 1329.09,-142.023 1327.61,-141.443"/>
<polygon fill="midnightblue" stroke="midnightblue" points="1328.71,-138.092 1318.16,-137.065 1325.76,-144.444 1328.71,-138.092"/>
</g>
<!-- Node23&#45;&gt;Node6 -->
<g id="edge34" class="edge"><title>Node23&#45;&gt;Node6</title>
<path fill="none" stroke="midnightblue" d="M1661.55,-184.88C1655.06,-182.606 1647.85,-180.398 1641.05,-179 1426.73,-134.928 1366.71,-173.568 1150.05,-143 1137.99,-141.298 1124.88,-138.728 1113.35,-136.221"/>
<polygon fill="midnightblue" stroke="midnightblue" points="1113.82,-132.739 1103.29,-133.964 1112.28,-139.569 1113.82,-132.739"/>
</g>
<!-- Node23&#45;&gt;Node7 -->
<g id="edge37" class="edge"><title>Node23&#45;&gt;Node7</title>
<path fill="none" stroke="midnightblue" d="M1661.54,-184.929C1655.05,-182.656 1647.84,-180.437 1641.05,-179 1455.59,-139.768 1399.76,-189.762 1216.05,-143 1213.75,-142.414 1211.4,-141.683 1209.08,-140.862"/>
<polygon fill="midnightblue" stroke="midnightblue" points="1210.38,-137.614 1199.8,-137.131 1207.77,-144.109 1210.38,-137.614"/>
</g>
<!-- Node23&#45;&gt;Node14 -->
<g id="edge38" class="edge"><title>Node23&#45;&gt;Node14</title>
<path fill="none" stroke="midnightblue" d="M1698.97,-184.734C1718.87,-173.769 1753.16,-154.881 1776.46,-142.049"/>
<polygon fill="midnightblue" stroke="midnightblue" points="1778.32,-145.018 1785.39,-137.127 1774.94,-138.887 1778.32,-145.018"/>
</g>
<!-- Node23&#45;&gt;Node15 -->
<g id="edge27" class="edge"><title>Node23&#45;&gt;Node15</title>
<path fill="none" stroke="midnightblue" d="M1658.66,-184.956C1652.9,-182.971 1646.77,-180.888 1641.05,-179 1590.6,-162.329 1568.17,-176.653 1527.05,-143 1508.6,-127.897 1496.92,-102.444 1490.68,-85.1965"/>
<polygon fill="midnightblue" stroke="midnightblue" points="1493.99,-84.0519 1487.49,-75.6836 1487.35,-86.2775 1493.99,-84.0519"/>
</g>
<!-- Node23&#45;&gt;Node17 -->
<g id="edge33" class="edge"><title>Node23&#45;&gt;Node17</title>
<path fill="none" stroke="midnightblue" d="M1659.49,-184.917C1625.92,-172.524 1567.52,-150.304 1560.05,-143 1529.89,-113.498 1556.56,-80.2797 1522.05,-56 1470.28,-19.5728 1022.88,-12.5557 890.686,-11.2733"/>
<polygon fill="midnightblue" stroke="midnightblue" points="890.685,-7.77324 880.654,-11.1813 890.621,-14.7729 890.685,-7.77324"/>
</g>
<!-- Node23&#45;&gt;Node18 -->
<g id="edge35" class="edge"><title>Node23&#45;&gt;Node18</title>
<path fill="none" stroke="midnightblue" d="M1659.18,-184.875C1653.28,-182.852 1646.96,-180.772 1641.05,-179 1579.1,-160.431 1557.39,-172.933 1500.05,-143 1470.53,-127.585 1442.5,-100.469 1426.31,-83.1387"/>
<polygon fill="midnightblue" stroke="midnightblue" points="1428.68,-80.544 1419.36,-75.5116 1423.51,-85.2598 1428.68,-80.544"/>
</g>
<!-- Node24 -->
<g id="node24" class="node"><title>Node24</title>
<g id="a_node24"><a xlink:href="endian_8h.html" target="_top" xlink:title="compat/endian.h">
<polygon fill="white" stroke="red" points="901.053,-56.5 901.053,-75.5 999.053,-75.5 999.053,-56.5 901.053,-56.5"/>
<text text-anchor="middle" x="950.053" y="-63.5" font-family="Helvetica,sans-Serif" font-size="10.00">compat/endian.h</text>
</a>
</g>
</g>
<!-- Node23&#45;&gt;Node24 -->
<g id="edge24" class="edge"><title>Node23&#45;&gt;Node24</title>
<path fill="none" stroke="midnightblue" d="M1660.13,-184.93C1653.99,-182.815 1647.31,-180.677 1641.05,-179 1559.72,-157.207 1533.17,-174.413 1455.05,-143 1431.49,-133.526 1431.03,-120.368 1407.05,-112 1335.12,-86.8937 1115.85,-74.1922 1009.35,-69.3675"/>
<polygon fill="midnightblue" stroke="midnightblue" points="1009.24,-65.8593 999.094,-68.9116 1008.93,-72.8524 1009.24,-65.8593"/>
</g>
<!-- Node25 -->
<g id="node25" class="node"><title>Node25</title>
<polygon fill="white" stroke="#bfbfbf" points="1973.05,-56.5 1973.05,-75.5 2035.05,-75.5 2035.05,-56.5 1973.05,-56.5"/>
<text text-anchor="middle" x="2004.05" y="-63.5" font-family="Helvetica,sans-Serif" font-size="10.00">algorithm</text>
</g>
<!-- Node23&#45;&gt;Node25 -->
<g id="edge26" class="edge"><title>Node23&#45;&gt;Node25</title>
<path fill="none" stroke="midnightblue" d="M1715.73,-191.139C1761.65,-186.772 1846.92,-174.765 1912.05,-143 1916.26,-140.95 1960.31,-103.974 1985.9,-82.3666"/>
<polygon fill="midnightblue" stroke="midnightblue" points="1988.41,-84.8292 1993.79,-75.7007 1983.89,-79.483 1988.41,-84.8292"/>
</g>
<!-- Node26 -->
<g id="node26" class="node"><title>Node26</title>
<polygon fill="white" stroke="#bfbfbf" points="1960.05,-118 1960.05,-137 1990.05,-137 1990.05,-118 1960.05,-118"/>
<text text-anchor="middle" x="1975.05" y="-125" font-family="Helvetica,sans-Serif" font-size="10.00">ios</text>
</g>
<!-- Node23&#45;&gt;Node26 -->
<g id="edge28" class="edge"><title>Node23&#45;&gt;Node26</title>
<path fill="none" stroke="midnightblue" d="M1715.77,-190.135C1766.25,-184.3 1865.69,-170.229 1946.05,-143 1947.67,-142.454 1949.3,-141.834 1950.93,-141.166"/>
<polygon fill="midnightblue" stroke="midnightblue" points="1952.41,-144.339 1960.04,-136.984 1949.49,-137.977 1952.41,-144.339"/>
</g>
<!-- Node27 -->
<g id="node27" class="node"><title>Node27</title>
<polygon fill="white" stroke="#bfbfbf" points="1341.55,-118 1341.55,-137 1398.55,-137 1398.55,-118 1341.55,-118"/>
<text text-anchor="middle" x="1370.05" y="-125" font-family="Helvetica,sans-Serif" font-size="10.00">memory</text>
</g>
<!-- Node23&#45;&gt;Node27 -->
<g id="edge31" class="edge"><title>Node23&#45;&gt;Node27</title>
<path fill="none" stroke="midnightblue" d="M1660.6,-184.934C1654.34,-182.769 1647.49,-180.606 1641.05,-179 1541.52,-154.165 1512.68,-167.477 1413.05,-143 1409.66,-142.166 1406.15,-141.187 1402.67,-140.136"/>
<polygon fill="midnightblue" stroke="midnightblue" points="1403.64,-136.772 1393.05,-137.052 1401.5,-143.438 1403.64,-136.772"/>
</g>
<!-- Node28 -->
<g id="node28" class="node"><title>Node28</title>
<polygon fill="white" stroke="#bfbfbf" points="2008.05,-118 2008.05,-137 2040.05,-137 2040.05,-118 2008.05,-118"/>
<text text-anchor="middle" x="2024.05" y="-125" font-family="Helvetica,sans-Serif" font-size="10.00">set</text>
</g>
<!-- Node23&#45;&gt;Node28 -->
<g id="edge32" class="edge"><title>Node23&#45;&gt;Node28</title>
<path fill="none" stroke="midnightblue" d="M1715.87,-192.196C1774.37,-189.016 1899.87,-178.311 1999.05,-143 2000.09,-142.63 2001.14,-142.216 2002.18,-141.769"/>
<polygon fill="midnightblue" stroke="midnightblue" points="2003.95,-144.796 2011.26,-137.124 2000.76,-138.564 2003.95,-144.796"/>
</g>
<!-- Node29 -->
<g id="node29" class="node"><title>Node29</title>
<polygon fill="white" stroke="#bfbfbf" points="2058.05,-118 2058.05,-137 2100.05,-137 2100.05,-118 2058.05,-118"/>
<text text-anchor="middle" x="2079.05" y="-125" font-family="Helvetica,sans-Serif" font-size="10.00">utility</text>
</g>
<!-- Node23&#45;&gt;Node29 -->
<g id="edge36" class="edge"><title>Node23&#45;&gt;Node29</title>
<path fill="none" stroke="midnightblue" d="M1715.6,-192.409C1780.4,-189.502 1929.63,-179.114 2049.05,-143 2050.73,-142.493 2052.43,-141.904 2054.12,-141.259"/>
<polygon fill="midnightblue" stroke="midnightblue" points="2055.79,-144.349 2063.55,-137.134 2052.98,-137.936 2055.79,-144.349"/>
</g>
<!-- Node30 -->
<g id="node30" class="node"><title>Node30</title>
<g id="a_node30"><a xlink:href="span_8h.html" target="_top" xlink:title="span.h">
<polygon fill="white" stroke="black" points="1854.55,-118 1854.55,-137 1903.55,-137 1903.55,-118 1854.55,-118"/>
<text text-anchor="middle" x="1879.05" y="-125" font-family="Helvetica,sans-Serif" font-size="10.00">span.h</text>
</a>
</g>
</g>
<!-- Node23&#45;&gt;Node30 -->
<g id="edge39" class="edge"><title>Node23&#45;&gt;Node30</title>
<path fill="none" stroke="midnightblue" d="M1713.82,-184.915C1746.63,-175.523 1799.99,-159.585 1845.05,-143 1846.71,-142.39 1848.4,-141.745 1850.1,-141.077"/>
<polygon fill="midnightblue" stroke="midnightblue" points="1851.84,-144.149 1859.77,-137.123 1849.19,-137.67 1851.84,-144.149"/>
</g>
<!-- Node24&#45;&gt;Node17 -->
<g id="edge25" class="edge"><title>Node24&#45;&gt;Node17</title>
<path fill="none" stroke="midnightblue" d="M934.629,-56.324C919.513,-47.8215 896.237,-34.7288 878.581,-24.7975"/>
<polygon fill="midnightblue" stroke="midnightblue" points="879.87,-21.5066 869.438,-19.6545 876.438,-27.6077 879.87,-21.5066"/>
</g>
<!-- Node30&#45;&gt;Node19 -->
<g id="edge41" class="edge"><title>Node30&#45;&gt;Node19</title>
<path fill="none" stroke="midnightblue" d="M1880.77,-117.975C1882.48,-109.492 1885.16,-96.2043 1887.36,-85.3222"/>
<polygon fill="midnightblue" stroke="midnightblue" points="1890.79,-86.0037 1889.34,-75.5091 1883.93,-84.6197 1890.79,-86.0037"/>
</g>
<!-- Node30&#45;&gt;Node21 -->
<g id="edge40" class="edge"><title>Node30&#45;&gt;Node21</title>
<path fill="none" stroke="midnightblue" d="M1892.3,-117.805C1910.92,-104.483 1940.98,-78.2279 1926.05,-56 1911.36,-34.1152 1883.94,-22.8664 1860.15,-17.0882"/>
<polygon fill="midnightblue" stroke="midnightblue" points="1860.74,-13.6349 1850.23,-14.9317 1859.26,-20.4753 1860.74,-13.6349"/>
</g>
<!-- Node30&#45;&gt;Node25 -->
<g id="edge42" class="edge"><title>Node30&#45;&gt;Node25</title>
<path fill="none" stroke="midnightblue" d="M1896.96,-117.975C1917.94,-107.99 1952.9,-91.3476 1977.15,-79.8075"/>
<polygon fill="midnightblue" stroke="midnightblue" points="1978.65,-82.9673 1986.18,-75.5091 1975.64,-76.6468 1978.65,-82.9673"/>
</g>
<!-- Node31&#45;&gt;Node6 -->
<g id="edge48" class="edge"><title>Node31&#45;&gt;Node6</title>
<path fill="none" stroke="midnightblue" d="M779.151,-187.446C827.778,-177.978 924.774,-159.083 1007.05,-143 1020.84,-140.305 1036.07,-137.321 1049.11,-134.765"/>
<polygon fill="midnightblue" stroke="midnightblue" points="1049.9,-138.178 1059.04,-132.82 1048.55,-131.309 1049.9,-138.178"/>
</g>
<!-- Node31&#45;&gt;Node7 -->
<g id="edge49" class="edge"><title>Node31&#45;&gt;Node7</title>
<path fill="none" stroke="midnightblue" d="M779.105,-187.296C793.373,-184.556 810.538,-181.416 826.053,-179 952.641,-159.284 985.644,-163.833 1112.05,-143 1124.34,-140.975 1137.74,-138.347 1149.56,-135.886"/>
<polygon fill="midnightblue" stroke="midnightblue" points="1150.41,-139.284 1159.47,-133.786 1148.96,-132.436 1150.41,-139.284"/>
</g>
<!-- Node31&#45;&gt;Node15 -->
<g id="edge44" class="edge"><title>Node31&#45;&gt;Node15</title>
<path fill="none" stroke="midnightblue" d="M779.217,-187.158C832.064,-176.294 937.025,-154.214 973.053,-143 1008.28,-132.036 1014.19,-120.647 1050.05,-112 1222.29,-70.474 1272.19,-104.488 1447.05,-76 1447.15,-75.9836 1447.25,-75.9672 1447.35,-75.9506"/>
<polygon fill="midnightblue" stroke="midnightblue" points="1447.75,-79.4382 1456.92,-74.1331 1446.44,-72.5612 1447.75,-79.4382"/>
</g>
<!-- Node31&#45;&gt;Node17 -->
<g id="edge47" class="edge"><title>Node31&#45;&gt;Node17</title>
<path fill="none" stroke="midnightblue" d="M745.942,-184.969C742.594,-169.635 737.466,-136.711 748.053,-112 764.798,-72.9157 804.918,-41.7852 830.716,-24.9018"/>
<polygon fill="midnightblue" stroke="midnightblue" points="832.61,-27.8449 839.182,-19.5344 828.862,-21.933 832.61,-27.8449"/>
</g>
<!-- Node32 -->
<g id="node32" class="node"><title>Node32</title>
<polygon fill="white" stroke="#bfbfbf" points="757.553,-118 757.553,-137 806.553,-137 806.553,-118 757.553,-118"/>
<text text-anchor="middle" x="782.053" y="-125" font-family="Helvetica,sans-Serif" font-size="10.00">cstring</text>
</g>
<!-- Node31&#45;&gt;Node32 -->
<g id="edge45" class="edge"><title>Node31&#45;&gt;Node32</title>
<path fill="none" stroke="midnightblue" d="M752.638,-184.734C757.787,-174.89 766.277,-158.66 772.815,-146.159"/>
<polygon fill="midnightblue" stroke="midnightblue" points="776.006,-147.611 777.54,-137.127 769.803,-144.366 776.006,-147.611"/>
</g>
<!-- Node31&#45;&gt;Node33 -->
<g id="edge46" class="edge"><title>Node31&#45;&gt;Node33</title>
<path fill="none" stroke="midnightblue" d="M725.67,-184.973C719.674,-182.858 713.16,-180.709 707.053,-179 637.934,-159.66 555.851,-144.038 507.235,-135.529"/>
<polygon fill="midnightblue" stroke="midnightblue" points="507.543,-132.03 497.093,-133.772 506.348,-138.928 507.543,-132.03"/>
</g>
<!-- Node34 -->
<g id="node34" class="node"><title>Node34</title>
<g id="a_node34"><a xlink:href="common_8h.html" target="_top" xlink:title="crypto/common.h">
<polygon fill="white" stroke="black" points="863.553,-118 863.553,-137 964.553,-137 964.553,-118 863.553,-118"/>
<text text-anchor="middle" x="914.053" y="-125" font-family="Helvetica,sans-Serif" font-size="10.00">crypto/common.h</text>
</a>
</g>
</g>
<!-- Node31&#45;&gt;Node34 -->
<g id="edge50" class="edge"><title>Node31&#45;&gt;Node34</title>
<path fill="none" stroke="midnightblue" d="M770.096,-184.869C798.949,-173.571 849.706,-153.696 882.593,-140.818"/>
<polygon fill="midnightblue" stroke="midnightblue" points="884.147,-143.969 892.182,-137.064 881.595,-137.451 884.147,-143.969"/>
</g>
<!-- Node34&#45;&gt;Node17 -->
<g id="edge51" class="edge"><title>Node34&#45;&gt;Node17</title>
<path fill="none" stroke="midnightblue" d="M909.543,-117.819C899.77,-99.006 876.467,-54.1475 863.38,-28.9553"/>
<polygon fill="midnightblue" stroke="midnightblue" points="866.331,-27.0426 858.615,-19.782 860.119,-30.2696 866.331,-27.0426"/>
</g>
<!-- Node34&#45;&gt;Node18 -->
<g id="edge52" class="edge"><title>Node34&#45;&gt;Node18</title>
<path fill="none" stroke="midnightblue" d="M948.991,-117.925C958.683,-115.76 969.239,-113.599 979.053,-112 1124.8,-88.2516 1300.31,-74.5405 1375.24,-69.3793"/>
<polygon fill="midnightblue" stroke="midnightblue" points="1375.81,-72.8487 1385.55,-68.6796 1375.34,-65.8648 1375.81,-72.8487"/>
</g>
<!-- Node34&#45;&gt;Node24 -->
<g id="edge53" class="edge"><title>Node34&#45;&gt;Node24</title>
<path fill="none" stroke="midnightblue" d="M919.211,-117.975C924.504,-109.227 932.888,-95.3691 939.58,-84.3093"/>
<polygon fill="midnightblue" stroke="midnightblue" points="942.722,-85.8768 944.904,-75.5091 936.733,-82.2531 942.722,-85.8768"/>
</g>
<!-- Node35&#45;&gt;Node6 -->
<g id="edge67" class="edge"><title>Node35&#45;&gt;Node6</title>
<path fill="none" stroke="midnightblue" d="M1230.18,-246.374C1198.49,-221.327 1132.74,-169.355 1100.18,-143.617"/>
<polygon fill="midnightblue" stroke="midnightblue" points="1101.95,-140.552 1091.93,-137.097 1097.6,-146.044 1101.95,-140.552"/>
</g>
<!-- Node36 -->
<g id="node36" class="node"><title>Node36</title>
<g id="a_node36"><a xlink:href="lockedpool_8h.html" target="_top" xlink:title="support/lockedpool.h">
<polygon fill="white" stroke="red" points="1281.05,-185 1281.05,-204 1397.05,-204 1397.05,-185 1281.05,-185"/>
<text text-anchor="middle" x="1339.05" y="-192" font-family="Helvetica,sans-Serif" font-size="10.00">support/lockedpool.h</text>
</a>
</g>
</g>
<!-- Node35&#45;&gt;Node36 -->
<g id="edge61" class="edge"><title>Node35&#45;&gt;Node36</title>
<path fill="none" stroke="midnightblue" d="M1267.8,-246.396C1282.92,-235.597 1303.69,-220.756 1318.91,-209.887"/>
<polygon fill="midnightblue" stroke="midnightblue" points="1321.04,-212.667 1327.14,-204.007 1316.97,-206.971 1321.04,-212.667"/>
</g>
<!-- Node37 -->
<g id="node37" class="node"><title>Node37</title>
<g id="a_node37"><a xlink:href="cleanse_8h.html" target="_top" xlink:title="support/cleanse.h">
<polygon fill="white" stroke="black" points="1569.05,-118 1569.05,-137 1671.05,-137 1671.05,-118 1569.05,-118"/>
<text text-anchor="middle" x="1620.05" y="-125" font-family="Helvetica,sans-Serif" font-size="10.00">support/cleanse.h</text>
</a>
</g>
</g>
<!-- Node35&#45;&gt;Node37 -->
<g id="edge65" class="edge"><title>Node35&#45;&gt;Node37</title>
<path fill="none" stroke="midnightblue" d="M1299.78,-258.84C1417.23,-254.539 1696.06,-241.124 1724.05,-210 1749.86,-181.307 1696.83,-155.127 1657.44,-140.55"/>
<polygon fill="midnightblue" stroke="midnightblue" points="1658.37,-137.166 1647.77,-137.1 1656.01,-143.758 1658.37,-137.166"/>
</g>
<!-- Node36&#45;&gt;Node5 -->
<g id="edge63" class="edge"><title>Node36&#45;&gt;Node5</title>
<path fill="none" stroke="midnightblue" d="M1334.33,-184.734C1329.03,-174.89 1320.29,-158.66 1313.56,-146.159"/>
<polygon fill="midnightblue" stroke="midnightblue" points="1316.52,-144.273 1308.7,-137.127 1310.36,-147.591 1316.52,-144.273"/>
</g>
<!-- Node36&#45;&gt;Node17 -->
<g id="edge62" class="edge"><title>Node36&#45;&gt;Node17</title>
<path fill="none" stroke="midnightblue" d="M1280.9,-191.724C1158.28,-187.381 882.178,-174.207 854.053,-143 826.015,-111.892 838.006,-57.9337 847.165,-29.5994"/>
<polygon fill="midnightblue" stroke="midnightblue" points="850.599,-30.3786 850.562,-19.7838 843.984,-28.089 850.599,-30.3786"/>
</g>
<!-- Node36&#45;&gt;Node27 -->
<g id="edge64" class="edge"><title>Node36&#45;&gt;Node27</title>
<path fill="none" stroke="midnightblue" d="M1343.23,-184.734C1347.93,-174.89 1355.67,-158.66 1361.63,-146.159"/>
<polygon fill="midnightblue" stroke="midnightblue" points="1364.79,-147.66 1365.94,-137.127 1358.47,-144.647 1364.79,-147.66"/>
</g>
<!-- Node37&#45;&gt;Node16 -->
<g id="edge66" class="edge"><title>Node37&#45;&gt;Node16</title>
<path fill="none" stroke="midnightblue" d="M1616.47,-117.975C1612.87,-109.404 1607.21,-95.9269 1602.61,-84.983"/>
<polygon fill="midnightblue" stroke="midnightblue" points="1605.73,-83.3726 1598.63,-75.5091 1599.27,-86.0842 1605.73,-83.3726"/>
</g>
<!-- Node38&#45;&gt;Node4 -->
<g id="edge77" class="edge"><title>Node38&#45;&gt;Node4</title>
<path fill="none" stroke="midnightblue" d="M986.293,-251.839C1033.93,-229.222 1162.27,-168.284 1218.74,-141.467"/>
<polygon fill="midnightblue" stroke="midnightblue" points="1220.57,-144.472 1228.11,-137.021 1217.57,-138.149 1220.57,-144.472"/>
</g>
<!-- Node38&#45;&gt;Node6 -->
<g id="edge81" class="edge"><title>Node38&#45;&gt;Node6</title>
<path fill="none" stroke="midnightblue" d="M965.964,-251.985C962.586,-236.096 957.744,-201.505 973.053,-179 977.78,-172.051 1019.98,-153.591 1050.21,-141.024"/>
<polygon fill="midnightblue" stroke="midnightblue" points="1051.63,-144.224 1059.53,-137.173 1048.95,-137.754 1051.63,-144.224"/>
</g>
<!-- Node38&#45;&gt;Node7 -->
<g id="edge82" class="edge"><title>Node38&#45;&gt;Node7</title>
<path fill="none" stroke="midnightblue" d="M974.677,-251.663C987.404,-235.237 1016.88,-199.786 1049.05,-179 1087.33,-154.271 1102.43,-159.123 1145.05,-143 1146.93,-142.288 1148.87,-141.555 1150.82,-140.814"/>
<polygon fill="midnightblue" stroke="midnightblue" points="1152.45,-143.937 1160.56,-137.109 1149.96,-137.395 1152.45,-143.937"/>
</g>
<!-- Node38&#45;&gt;Node14 -->
<g id="edge73" class="edge"><title>Node38&#45;&gt;Node14</title>
<path fill="none" stroke="midnightblue" d="M1008.66,-256.23C1039.26,-253.109 1082.26,-248.928 1120.05,-246 1254.11,-235.614 1602.21,-266.865 1724.05,-210 1753.76,-196.134 1777.71,-165.232 1790.62,-145.715"/>
<polygon fill="midnightblue" stroke="midnightblue" points="1793.64,-147.491 1796.04,-137.173 1787.73,-143.738 1793.64,-147.491"/>
</g>
<!-- Node38&#45;&gt;Node15 -->
<g id="edge75" class="edge"><title>Node38&#45;&gt;Node15</title>
<path fill="none" stroke="midnightblue" d="M970.106,-251.786C974.442,-235.249 986.08,-199.168 1009.05,-179 1045.5,-147.007 1069.74,-166.685 1112.05,-143 1131.07,-132.355 1130,-120.537 1150.05,-112 1272.39,-59.9195 1316.15,-99.3587 1447.05,-76 1447.15,-75.9821 1447.25,-75.9642 1447.35,-75.9461"/>
<polygon fill="midnightblue" stroke="midnightblue" points="1447.78,-79.4293 1456.9,-74.0372 1446.41,-72.5651 1447.78,-79.4293"/>
</g>
<!-- Node38&#45;&gt;Node17 -->
<g id="edge79" class="edge"><title>Node38&#45;&gt;Node17</title>
<path fill="none" stroke="midnightblue" d="M927.236,-261.025C838.524,-261.266 632.232,-256.663 584.053,-210 533.772,-161.301 557.24,-92.3622 617.053,-56 679.899,-17.7934 768.05,-10.8293 817.213,-10.223"/>
<polygon fill="midnightblue" stroke="midnightblue" points="817.395,-13.7224 827.38,-10.1824 817.367,-6.72243 817.395,-13.7224"/>
</g>
<!-- Node38&#45;&gt;Node18 -->
<g id="edge80" class="edge"><title>Node38&#45;&gt;Node18</title>
<path fill="none" stroke="midnightblue" d="M964.133,-251.855C957.718,-236.34 946.85,-203.138 959.053,-179 981.712,-134.178 1003.4,-130.59 1050.05,-112 1108.68,-88.6403 1295.43,-74.3783 1375.27,-69.2068"/>
<polygon fill="midnightblue" stroke="midnightblue" points="1375.6,-72.693 1385.36,-68.5652 1375.16,-65.7071 1375.6,-72.693"/>
</g>
<!-- Node38&#45;&gt;Node23 -->
<g id="edge74" class="edge"><title>Node38&#45;&gt;Node23</title>
<path fill="none" stroke="midnightblue" d="M1008.67,-256.335C1039.27,-253.267 1082.27,-249.107 1120.05,-246 1351.38,-226.977 1413.6,-256.274 1641.05,-210 1644.56,-209.286 1648.18,-208.355 1651.75,-207.308"/>
<polygon fill="midnightblue" stroke="midnightblue" points="1653.12,-210.543 1661.56,-204.138 1650.97,-203.882 1653.12,-210.543"/>
</g>
<!-- Node38&#45;&gt;Node33 -->
<g id="edge78" class="edge"><title>Node38&#45;&gt;Node33</title>
<path fill="none" stroke="midnightblue" d="M927.423,-258.811C836.074,-254.499 617.294,-241.147 551.053,-210 519.556,-195.19 492.125,-164.354 477.145,-145.146"/>
<polygon fill="midnightblue" stroke="midnightblue" points="479.817,-142.877 470.998,-137.005 474.231,-147.095 479.817,-142.877"/>
</g>
<!-- Node38&#45;&gt;Node34 -->
<g id="edge72" class="edge"><title>Node38&#45;&gt;Node34</title>
<path fill="none" stroke="midnightblue" d="M938.408,-251.942C898.795,-240.212 832.766,-219.513 826.053,-210 818.108,-198.743 819.148,-190.923 826.053,-179 836.576,-160.827 856.383,-148.628 874.545,-140.78"/>
<polygon fill="midnightblue" stroke="midnightblue" points="875.849,-144.028 883.834,-137.065 873.25,-137.529 875.849,-144.028"/>
</g>
<!-- Node39 -->
<g id="node39" class="node"><title>Node39</title>
<polygon fill="white" stroke="#bfbfbf" points="835.553,-185 835.553,-204 882.553,-204 882.553,-185 835.553,-185"/>
<text text-anchor="middle" x="859.053" y="-192" font-family="Helvetica,sans-Serif" font-size="10.00">climits</text>
</g>
<!-- Node38&#45;&gt;Node39 -->
<g id="edge76" class="edge"><title>Node38&#45;&gt;Node39</title>
<path fill="none" stroke="midnightblue" d="M953.352,-251.734C935.129,-240.867 903.853,-222.216 882.35,-209.393"/>
<polygon fill="midnightblue" stroke="midnightblue" points="883.901,-206.243 873.52,-204.127 880.316,-212.255 883.901,-206.243"/>
</g>
<!-- Node40&#45;&gt;Node12 -->
<g id="edge86" class="edge"><title>Node40&#45;&gt;Node12</title>
<path fill="none" stroke="midnightblue" d="M1374.03,-371.106C1319.26,-360.908 1217.08,-341.881 1160.79,-331.399"/>
<polygon fill="midnightblue" stroke="midnightblue" points="1161.31,-327.936 1150.84,-329.546 1160.03,-334.817 1161.31,-327.936"/>
</g>
<!-- Node41 -->
<g id="node41" class="node"><title>Node41</title>
<polygon fill="white" stroke="#bfbfbf" points="1374.05,-313.5 1374.05,-332.5 1480.05,-332.5 1480.05,-313.5 1374.05,-313.5"/>
<text text-anchor="middle" x="1427.05" y="-320.5" font-family="Helvetica,sans-Serif" font-size="10.00">boost/optional.hpp</text>
</g>
<!-- Node40&#45;&gt;Node41 -->
<g id="edge84" class="edge"><title>Node40&#45;&gt;Node41</title>
<path fill="none" stroke="midnightblue" d="M1413.69,-369.083C1415.84,-361.849 1418.93,-351.409 1421.6,-342.397"/>
<polygon fill="midnightblue" stroke="midnightblue" points="1424.97,-343.333 1424.46,-332.751 1418.26,-341.345 1424.97,-343.333"/>
</g>
<!-- Node42 -->
<g id="node42" class="node"><title>Node42</title>
<polygon fill="white" stroke="#bfbfbf" points="1536.55,-313.5 1536.55,-332.5 1585.55,-332.5 1585.55,-313.5 1536.55,-313.5"/>
<text text-anchor="middle" x="1561.05" y="-320.5" font-family="Helvetica,sans-Serif" font-size="10.00">hash.h</text>
</g>
<!-- Node40&#45;&gt;Node42 -->
<g id="edge85" class="edge"><title>Node40&#45;&gt;Node42</title>
<path fill="none" stroke="midnightblue" d="M1434.82,-369.444C1459.95,-360.399 1499.76,-346.064 1527.95,-335.916"/>
<polygon fill="midnightblue" stroke="midnightblue" points="1529.17,-339.197 1537.4,-332.516 1526.8,-332.611 1529.17,-339.197"/>
</g>
<!-- Node43 -->
<g id="node43" class="node"><title>Node43</title>
<g id="a_node43"><a xlink:href="interpreter_8h.html" target="_top" xlink:title="script/interpreter.h">
<polygon fill="white" stroke="red" points="593.553,-185 593.553,-204 698.553,-204 698.553,-185 593.553,-185"/>
<text text-anchor="middle" x="646.053" y="-192" font-family="Helvetica,sans-Serif" font-size="10.00">script/interpreter.h</text>
</a>
</g>
</g>
<!-- Node40&#45;&gt;Node43 -->
<g id="edge87" class="edge"><title>Node40&#45;&gt;Node43</title>
<path fill="none" stroke="midnightblue" d="M1373.79,-374.477C1312.52,-368.334 1186.86,-354.253 1082.05,-333 988.647,-314.059 966.016,-305.444 875.053,-277 803.87,-254.742 721.829,-224.373 677.848,-207.7"/>
<polygon fill="midnightblue" stroke="midnightblue" points="678.878,-204.347 668.287,-204.064 676.389,-210.89 678.878,-204.347"/>
</g>
<!-- Node40&#45;&gt;Node45 -->
<g id="edge92" class="edge"><title>Node40&#45;&gt;Node45</title>
<path fill="none" stroke="midnightblue" d="M1425.88,-369.358C1454.72,-352.592 1516.51,-316.942 1527.05,-313 1594.69,-287.71 1677.9,-273.89 1727.32,-267.361"/>
<polygon fill="midnightblue" stroke="midnightblue" points="1727.86,-270.82 1737.33,-266.076 1726.97,-263.877 1727.86,-270.82"/>
</g>
<!-- Node43&#45;&gt;Node6 -->
<g id="edge91" class="edge"><title>Node43&#45;&gt;Node6</title>
<path fill="none" stroke="midnightblue" d="M680.04,-184.937C689.106,-182.821 698.921,-180.682 708.053,-179 716.448,-177.454 959.756,-144.772 1048.81,-132.825"/>
<polygon fill="midnightblue" stroke="midnightblue" points="1049.43,-136.272 1058.87,-131.474 1048.5,-129.335 1049.43,-136.272"/>
</g>
<!-- Node43&#45;&gt;Node7 -->
<g id="edge89" class="edge"><title>Node43&#45;&gt;Node7</title>
<path fill="none" stroke="midnightblue" d="M678.702,-184.956C688.12,-182.739 698.448,-180.543 708.053,-179 886.037,-150.403 933.682,-169.077 1112.05,-143 1124.38,-141.198 1137.79,-138.622 1149.6,-136.139"/>
<polygon fill="midnightblue" stroke="midnightblue" points="1150.47,-139.533 1159.5,-134.003 1148.99,-132.69 1150.47,-139.533"/>
</g>
<!-- Node43&#45;&gt;Node17 -->
<g id="edge90" class="edge"><title>Node43&#45;&gt;Node17</title>
<path fill="none" stroke="midnightblue" d="M627.593,-184.853C612.24,-176.532 591.437,-162.359 582.053,-143 576.043,-130.602 574.187,-123.312 582.053,-112 635.77,-34.7527 755.901,-16.4609 816.935,-12.2166"/>
<polygon fill="midnightblue" stroke="midnightblue" points="817.491,-15.6896 827.262,-11.5943 817.07,-8.70224 817.491,-15.6896"/>
</g>
<!-- Node44 -->
<g id="node44" class="node"><title>Node44</title>
<g id="a_node44"><a xlink:href="script__error_8h.html" target="_top" xlink:title="script/script_error.h">
<polygon fill="white" stroke="black" points="591.553,-118 591.553,-137 700.553,-137 700.553,-118 591.553,-118"/>
<text text-anchor="middle" x="646.053" y="-125" font-family="Helvetica,sans-Serif" font-size="10.00">script/script_error.h</text>
</a>
</g>
</g>
<!-- Node43&#45;&gt;Node44 -->
<g id="edge88" class="edge"><title>Node43&#45;&gt;Node44</title>
<path fill="none" stroke="midnightblue" d="M646.053,-184.734C646.053,-175.183 646.053,-159.618 646.053,-147.283"/>
<polygon fill="midnightblue" stroke="midnightblue" points="649.553,-147.127 646.053,-137.127 642.553,-147.127 649.553,-147.127"/>
</g>
<!-- Node45&#45;&gt;Node4 -->
<g id="edge101" class="edge"><title>Node45&#45;&gt;Node4</title>
<path fill="none" stroke="midnightblue" d="M1737.26,-260.207C1681.36,-258.564 1565.13,-250.125 1477.05,-210 1457.22,-200.964 1458.67,-188.497 1439.05,-179 1372.28,-146.674 1346.15,-167.307 1276.05,-143 1274.44,-142.44 1272.79,-141.815 1271.15,-141.149"/>
<polygon fill="midnightblue" stroke="midnightblue" points="1272.51,-137.922 1261.95,-137.034 1269.65,-144.312 1272.51,-137.922"/>
</g>
<!-- Node45&#45;&gt;Node5 -->
<g id="edge102" class="edge"><title>Node45&#45;&gt;Node5</title>
<path fill="none" stroke="midnightblue" d="M1737.16,-258.3C1688.06,-254.049 1593.49,-242.092 1520.05,-210 1498.46,-200.566 1498.43,-188.907 1477.05,-179 1416.81,-151.078 1394.18,-166.428 1332.05,-143 1330.84,-142.544 1329.62,-142.048 1328.39,-141.524"/>
<polygon fill="midnightblue" stroke="midnightblue" points="1329.7,-138.27 1319.16,-137.144 1326.69,-144.594 1329.7,-138.27"/>
</g>
<!-- Node45&#45;&gt;Node6 -->
<g id="edge106" class="edge"><title>Node45&#45;&gt;Node6</title>
<path fill="none" stroke="midnightblue" d="M1737.42,-260.567C1656.98,-260.01 1443.3,-254.127 1272.05,-210 1209.82,-193.966 1141.66,-160.75 1105.99,-142.052"/>
<polygon fill="midnightblue" stroke="midnightblue" points="1107.3,-138.783 1096.82,-137.189 1104.02,-144.967 1107.3,-138.783"/>
</g>
<!-- Node45&#45;&gt;Node7 -->
<g id="edge109" class="edge"><title>Node45&#45;&gt;Node7</title>
<path fill="none" stroke="midnightblue" d="M1737.52,-258.003C1664.81,-252.031 1491.46,-235.494 1439.05,-210 1420.96,-201.197 1423.99,-188.126 1406.05,-179 1329.45,-140.022 1298.14,-168.45 1216.05,-143 1214.12,-142.402 1212.16,-141.725 1210.2,-140.998"/>
<polygon fill="midnightblue" stroke="midnightblue" points="1211.16,-137.613 1200.58,-137.082 1208.52,-144.096 1211.16,-137.613"/>
</g>
<!-- Node45&#45;&gt;Node15 -->
<g id="edge99" class="edge"><title>Node45&#45;&gt;Node15</title>
<path fill="none" stroke="midnightblue" d="M1802.92,-253.842C1826.65,-247.132 1857.05,-234.175 1872.05,-210 1879.32,-198.294 1880.22,-190.093 1872.05,-179 1840.03,-135.539 1804.36,-167.099 1756.05,-143 1734.97,-132.482 1734.66,-121.386 1713.05,-112 1679.5,-97.4283 1579.11,-80.9243 1523.38,-72.5347"/>
<polygon fill="midnightblue" stroke="midnightblue" points="1523.6,-69.0288 1513.19,-71.0164 1522.57,-75.9523 1523.6,-69.0288"/>
</g>
<!-- Node45&#45;&gt;Node17 -->
<g id="edge104" class="edge"><title>Node45&#45;&gt;Node17</title>
<path fill="none" stroke="midnightblue" d="M1791.26,-251.875C1815.16,-242.063 1855.13,-225.402 1889.05,-210 1917.83,-196.934 1923.25,-189.508 1953.05,-179 2020.16,-155.342 2064.75,-198.685 2109.05,-143 2147.25,-94.9853 2052.66,-59.3831 2044.05,-56 1934.63,-12.9964 1080.2,-10.8858 891.047,-10.9497"/>
<polygon fill="midnightblue" stroke="midnightblue" points="890.792,-7.44978 880.794,-10.9556 890.796,-14.4498 890.792,-7.44978"/>
</g>
<!-- Node45&#45;&gt;Node18 -->
<g id="edge107" class="edge"><title>Node45&#45;&gt;Node18</title>
<path fill="none" stroke="midnightblue" d="M1768.34,-251.907C1765,-236.474 1756.64,-203.399 1742.05,-179 1736.85,-170.294 1689.01,-116.765 1680.05,-112 1590.73,-64.4647 1552.66,-94.7108 1448.66,-75.8681"/>
<polygon fill="midnightblue" stroke="midnightblue" points="1449.21,-72.4089 1438.73,-73.956 1447.89,-79.2828 1449.21,-72.4089"/>
</g>
<!-- Node45&#45;&gt;Node23 -->
<g id="edge97" class="edge"><title>Node45&#45;&gt;Node23</title>
<path fill="none" stroke="midnightblue" d="M1758.32,-251.734C1744.1,-241.111 1719.93,-223.049 1702.81,-210.264"/>
<polygon fill="midnightblue" stroke="midnightblue" points="1704.71,-207.309 1694.6,-204.127 1700.52,-212.916 1704.71,-207.309"/>
</g>
<!-- Node45&#45;&gt;Node25 -->
<g id="edge98" class="edge"><title>Node45&#45;&gt;Node25</title>
<path fill="none" stroke="midnightblue" d="M1802.81,-259.01C1873.25,-255.204 2036.19,-242.986 2079.05,-210 2115.15,-182.22 2134.13,-150.028 2109.05,-112 2094.88,-90.5099 2068.09,-79.2436 2045.12,-73.3581"/>
<polygon fill="midnightblue" stroke="midnightblue" points="2045.75,-69.913 2035.22,-71.0831 2044.18,-76.735 2045.75,-69.913"/>
</g>
<!-- Node45&#45;&gt;Node26 -->
<g id="edge100" class="edge"><title>Node45&#45;&gt;Node26</title>
<path fill="none" stroke="midnightblue" d="M1802.63,-258.868C1863.98,-255.041 1992.92,-243.156 2020.05,-210 2037.07,-189.203 2013.01,-161.046 1994.04,-143.859"/>
<polygon fill="midnightblue" stroke="midnightblue" points="1996.21,-141.112 1986.36,-137.219 1991.64,-146.407 1996.21,-141.112"/>
</g>
<!-- Node45&#45;&gt;Node28 -->
<g id="edge103" class="edge"><title>Node45&#45;&gt;Node28</title>
<path fill="none" stroke="midnightblue" d="M1802.81,-259.321C1867.43,-256.235 2007.63,-245.509 2037.05,-210 2051.86,-192.127 2042.72,-164.237 2034.01,-146.166"/>
<polygon fill="midnightblue" stroke="midnightblue" points="2037.1,-144.514 2029.37,-137.263 2030.89,-147.748 2037.1,-144.514"/>
</g>
<!-- Node45&#45;&gt;Node29 -->
<g id="edge108" class="edge"><title>Node45&#45;&gt;Node29</title>
<path fill="none" stroke="midnightblue" d="M1802.61,-258.948C1869.28,-255.118 2018.17,-243.004 2055.05,-210 2072.71,-194.199 2077.66,-166.133 2078.89,-147.419"/>
<polygon fill="midnightblue" stroke="midnightblue" points="2082.4,-147.288 2079.26,-137.168 2075.41,-147.035 2082.4,-147.288"/>
</g>
<!-- Node46 -->
<g id="node46" class="node"><title>Node46</title>
<g id="a_node46"><a xlink:href="zeroafterfree_8h.html" target="_top" xlink:title="support/allocators\l/zeroafterfree.h">
<polygon fill="white" stroke="black" points="1529.55,-179.5 1529.55,-209.5 1632.55,-209.5 1632.55,-179.5 1529.55,-179.5"/>
<text text-anchor="start" x="1537.55" y="-197.5" font-family="Helvetica,sans-Serif" font-size="10.00">support/allocators</text>
<text text-anchor="middle" x="1581.05" y="-186.5" font-family="Helvetica,sans-Serif" font-size="10.00">/zeroafterfree.h</text>
</a>
</g>
</g>
<!-- Node45&#45;&gt;Node46 -->
<g id="edge93" class="edge"><title>Node45&#45;&gt;Node46</title>
<path fill="none" stroke="midnightblue" d="M1744.95,-251.869C1716.1,-241.946 1668.02,-225.408 1631.37,-212.805"/>
<polygon fill="midnightblue" stroke="midnightblue" points="1632.44,-209.471 1621.84,-209.528 1630.16,-216.09 1632.44,-209.471"/>
</g>
<!-- Node47 -->
<g id="node47" class="node"><title>Node47</title>
<polygon fill="white" stroke="#bfbfbf" points="1962.55,-185 1962.55,-204 2011.55,-204 2011.55,-185 1962.55,-185"/>
<text text-anchor="middle" x="1987.05" y="-192" font-family="Helvetica,sans-Serif" font-size="10.00">stdio.h</text>
</g>
<!-- Node45&#45;&gt;Node47 -->
<g id="edge105" class="edge"><title>Node45&#45;&gt;Node47</title>
<path fill="none" stroke="midnightblue" d="M1802.77,-252.055C1838.65,-242.598 1897.83,-226.431 1948.05,-210 1950.46,-209.214 1952.93,-208.372 1955.41,-207.503"/>
<polygon fill="midnightblue" stroke="midnightblue" points="1956.67,-210.772 1964.89,-204.089 1954.29,-204.187 1956.67,-210.772"/>
</g>
<!-- Node46&#45;&gt;Node7 -->
<g id="edge96" class="edge"><title>Node46&#45;&gt;Node7</title>
<path fill="none" stroke="midnightblue" d="M1529.38,-188.132C1443.19,-178.881 1273.84,-159.35 1216.05,-143 1213.9,-142.391 1211.7,-141.669 1209.52,-140.878"/>
<polygon fill="midnightblue" stroke="midnightblue" points="1210.77,-137.608 1200.19,-137.101 1208.15,-144.097 1210.77,-137.608"/>
</g>
<!-- Node46&#45;&gt;Node27 -->
<g id="edge95" class="edge"><title>Node46&#45;&gt;Node27</title>
<path fill="none" stroke="midnightblue" d="M1532.76,-179.447C1499.12,-169.543 1453.24,-155.812 1413.05,-143 1410.31,-142.125 1407.47,-141.204 1404.62,-140.269"/>
<polygon fill="midnightblue" stroke="midnightblue" points="1405.61,-136.909 1395.02,-137.075 1403.4,-143.551 1405.61,-136.909"/>
</g>
<!-- Node46&#45;&gt;Node37 -->
<g id="edge94" class="edge"><title>Node46&#45;&gt;Node37</title>
<path fill="none" stroke="midnightblue" d="M1589.52,-179.396C1595.42,-169.562 1603.33,-156.378 1609.62,-145.892"/>
<polygon fill="midnightblue" stroke="midnightblue" points="1612.69,-147.57 1614.84,-137.195 1606.69,-143.969 1612.69,-147.57"/>
</g>
<!-- Node48&#45;&gt;Node17 -->
<g id="edge114" class="edge"><title>Node48&#45;&gt;Node17</title>
<path fill="none" stroke="midnightblue" d="M324.737,-257.262C207.301,-247.83 -72.5692,-214.229 18.0526,-112 71.9159,-51.2377 661.925,-19.8713 816.931,-12.642"/>
<polygon fill="midnightblue" stroke="midnightblue" points="817.498,-16.1197 827.326,-12.1632 817.176,-9.12714 817.498,-16.1197"/>
</g>
<!-- Node48&#45;&gt;Node31 -->
<g id="edge112" class="edge"><title>Node48&#45;&gt;Node31</title>
<path fill="none" stroke="midnightblue" d="M423.155,-255.993C488.624,-249.319 607.785,-234.842 707.053,-210 710.104,-209.236 713.247,-208.338 716.373,-207.367"/>
<polygon fill="midnightblue" stroke="midnightblue" points="717.778,-210.588 726.158,-204.105 715.564,-203.948 717.778,-210.588"/>
</g>
<!-- Node48&#45;&gt;Node43 -->
<g id="edge111" class="edge"><title>Node48&#45;&gt;Node43</title>
<path fill="none" stroke="midnightblue" d="M409.892,-251.936C458.815,-240.244 546.544,-219.28 600.203,-206.457"/>
<polygon fill="midnightblue" stroke="midnightblue" points="601.222,-209.812 610.134,-204.083 599.595,-203.004 601.222,-209.812"/>
</g>
<!-- Node49 -->
<g id="node49" class="node"><title>Node49</title>
<polygon fill="white" stroke="#bfbfbf" points="321.553,-185 321.553,-204 422.553,-204 422.553,-185 321.553,-185"/>
<text text-anchor="middle" x="372.053" y="-192" font-family="Helvetica,sans-Serif" font-size="10.00">boost/variant.hpp</text>
</g>
<!-- Node48&#45;&gt;Node49 -->
<g id="edge113" class="edge"><title>Node48&#45;&gt;Node49</title>
<path fill="none" stroke="midnightblue" d="M373.783,-251.734C373.489,-242.183 373.01,-226.618 372.631,-214.283"/>
<polygon fill="midnightblue" stroke="midnightblue" points="376.124,-214.015 372.318,-204.127 369.127,-214.23 376.124,-214.015"/>
</g>
</g>
</svg>
