<?xml version="1.0" encoding="UTF-8" standalone="no"?>
<!DOCTYPE svg PUBLIC "-//W3C//DTD SVG 1.1//EN"
 "http://www.w3.org/Graphics/SVG/1.1/DTD/svg11.dtd">
<!-- Generated by graphviz version 2.49.3 (0)
 -->
<!-- Title: src/version.h Pages: 1 -->
<svg width="5319pt" height="218pt"
 viewBox="0.00 0.00 5319.00 218.00" xmlns="http://www.w3.org/2000/svg" xmlns:xlink="http://www.w3.org/1999/xlink">
<g id="graph0" class="graph" transform="scale(1 1) rotate(0) translate(4 214)">
<title>src/version.h</title>
<polygon fill="white" stroke="transparent" points="-4,4 -4,-214 5315,-214 5315,4 -4,4"/>
<!-- Node1 -->
<g id="node1" class="node">
<title>Node1</title>
<g id="a_node1"><a xlink:title=" ">
<polygon fill="#bfbfbf" stroke="black" points="3712.5,-190.5 3712.5,-209.5 3791.5,-209.5 3791.5,-190.5 3712.5,-190.5"/>
<text text-anchor="middle" x="3752" y="-197.5" font-family="Helvetica,sans-Serif" font-size="10.00">src/version.h</text>
</a>
</g>
</g>
<!-- Node2 -->
<g id="node2" class="node">
<title>Node2</title>
<g id="a_node2"><a xlink:href="coins_8cpp.html" target="_top" xlink:title=" ">
<polygon fill="white" stroke="black" points="292,-129 292,-148 372,-148 372,-129 292,-129"/>
<text text-anchor="middle" x="332" y="-136" font-family="Helvetica,sans-Serif" font-size="10.00">src/coins.cpp</text>
</a>
</g>
</g>
<!-- Node1&#45;&gt;Node2 -->
<g id="edge1" class="edge">
<title>Node1&#45;&gt;Node2</title>
<path fill="none" stroke="midnightblue" d="M3702.19,-199.08C3310.22,-199.64 728.22,-201.48 386,-154 376.96,-152.75 367.28,-150.46 358.65,-148.06"/>
<polygon fill="midnightblue" stroke="midnightblue" points="3702.37,-202.58 3712.36,-199.07 3702.36,-195.58 3702.37,-202.58"/>
</g>
<!-- Node3 -->
<g id="node3" class="node">
<title>Node3</title>
<g id="a_node3"><a xlink:href="consensus_2validation_8h.html" target="_top" xlink:title=" ">
<polygon fill="white" stroke="red" points="1945,-129 1945,-148 2091,-148 2091,-129 1945,-129"/>
<text text-anchor="middle" x="2018" y="-136" font-family="Helvetica,sans-Serif" font-size="10.00">src/consensus/validation.h</text>
</a>
</g>
</g>
<!-- Node1&#45;&gt;Node3 -->
<g id="edge2" class="edge">
<title>Node1&#45;&gt;Node3</title>
<path fill="none" stroke="midnightblue" d="M3702.07,-197.29C3457.09,-188.88 2382.32,-152 2091.04,-142.01"/>
<polygon fill="midnightblue" stroke="midnightblue" points="3701.99,-200.79 3712.11,-197.63 3702.23,-193.79 3701.99,-200.79"/>
</g>
<!-- Node222 -->
<g id="node23" class="node">
<title>Node222</title>
<g id="a_node23"><a xlink:href="test_2fuzz_2block_8cpp.html" target="_top" xlink:title=" ">
<polygon fill="white" stroke="black" points="2652.5,-62 2652.5,-81 2777.5,-81 2777.5,-62 2652.5,-62"/>
<text text-anchor="middle" x="2715" y="-69" font-family="Helvetica,sans-Serif" font-size="10.00">src/test/fuzz/block.cpp</text>
</a>
</g>
</g>
<!-- Node1&#45;&gt;Node222 -->
<g id="edge40" class="edge">
<title>Node1&#45;&gt;Node222</title>
<path fill="none" stroke="midnightblue" d="M3701.88,-198.67C3587,-197.29 3296.05,-190.18 3056,-154 2938.33,-136.27 2801.51,-98.09 2743.42,-81.03"/>
<polygon fill="midnightblue" stroke="midnightblue" points="3702.08,-202.18 3712.12,-198.79 3702.16,-195.18 3702.08,-202.18"/>
</g>
<!-- Node223 -->
<g id="node26" class="node">
<title>Node223</title>
<g id="a_node26"><a xlink:href="test_2fuzz_2transaction_8cpp.html" target="_top" xlink:title=" ">
<polygon fill="white" stroke="black" points="2796,-62 2796,-81 2950,-81 2950,-62 2796,-62"/>
<text text-anchor="middle" x="2873" y="-69" font-family="Helvetica,sans-Serif" font-size="10.00">src/test/fuzz/transaction.cpp</text>
</a>
</g>
</g>
<!-- Node1&#45;&gt;Node223 -->
<g id="edge48" class="edge">
<title>Node1&#45;&gt;Node223</title>
<path fill="none" stroke="midnightblue" d="M3702.49,-197.49C3606.53,-193.99 3388.74,-183.28 3208,-154 3093.08,-135.38 2959.41,-98.01 2901.81,-81.13"/>
<polygon fill="midnightblue" stroke="midnightblue" points="3702.37,-200.99 3712.49,-197.84 3702.62,-193.99 3702.37,-200.99"/>
</g>
<!-- Node224 -->
<g id="node27" class="node">
<title>Node224</title>
<g id="a_node27"><a xlink:href="tx__in_8cpp.html" target="_top" xlink:title=" ">
<polygon fill="white" stroke="black" points="2968.5,-62 2968.5,-81 3091.5,-81 3091.5,-62 2968.5,-62"/>
<text text-anchor="middle" x="3030" y="-69" font-family="Helvetica,sans-Serif" font-size="10.00">src/test/fuzz/tx_in.cpp</text>
</a>
</g>
</g>
<!-- Node1&#45;&gt;Node224 -->
<g id="edge49" class="edge">
<title>Node1&#45;&gt;Node224</title>
<path fill="none" stroke="midnightblue" d="M3702.35,-195.93C3624.74,-190.61 3470.2,-177.87 3341,-154 3234.52,-134.33 3110.82,-97.67 3057.15,-81.06"/>
<polygon fill="midnightblue" stroke="midnightblue" points="3702.12,-199.43 3712.33,-196.61 3702.59,-192.44 3702.12,-199.43"/>
</g>
<!-- Node225 -->
<g id="node28" class="node">
<title>Node225</title>
<g id="a_node28"><a xlink:href="tx__out_8cpp.html" target="_top" xlink:title=" ">
<polygon fill="white" stroke="black" points="3110,-62 3110,-81 3240,-81 3240,-62 3110,-62"/>
<text text-anchor="middle" x="3175" y="-69" font-family="Helvetica,sans-Serif" font-size="10.00">src/test/fuzz/tx_out.cpp</text>
</a>
</g>
</g>
<!-- Node1&#45;&gt;Node225 -->
<g id="edge50" class="edge">
<title>Node1&#45;&gt;Node225</title>
<path fill="none" stroke="midnightblue" d="M3702.17,-192.96C3644.85,-185.59 3548.06,-171.88 3466,-154 3367.32,-132.5 3252.5,-97.25 3201.62,-81.09"/>
<polygon fill="midnightblue" stroke="midnightblue" points="3702.04,-196.47 3712.41,-194.26 3702.93,-189.53 3702.04,-196.47"/>
</g>
<!-- Node183 -->
<g id="node30" class="node">
<title>Node183</title>
<g id="a_node30"><a xlink:href="sighash__tests_8cpp.html" target="_top" xlink:title=" ">
<polygon fill="white" stroke="black" points="3258.5,-62 3258.5,-81 3401.5,-81 3401.5,-62 3258.5,-62"/>
<text text-anchor="middle" x="3330" y="-69" font-family="Helvetica,sans-Serif" font-size="10.00">src/test/sighash_tests.cpp</text>
</a>
</g>
</g>
<!-- Node1&#45;&gt;Node183 -->
<g id="edge64" class="edge">
<title>Node1&#45;&gt;Node183</title>
<path fill="none" stroke="midnightblue" d="M3702.28,-188.92C3663.29,-180.64 3607.8,-168.02 3560,-154 3482.16,-131.16 3392.07,-96.89 3351.62,-81.06"/>
<polygon fill="midnightblue" stroke="midnightblue" points="3701.82,-192.4 3712.32,-191.04 3703.26,-185.55 3701.82,-192.4"/>
</g>
<!-- Node229 -->
<g id="node31" class="node">
<title>Node229</title>
<g id="a_node31"><a xlink:href="core__read_8cpp.html" target="_top" xlink:title=" ">
<polygon fill="white" stroke="black" points="3856,-129 3856,-148 3958,-148 3958,-129 3856,-129"/>
<text text-anchor="middle" x="3907" y="-136" font-family="Helvetica,sans-Serif" font-size="10.00">src/core_read.cpp</text>
</a>
</g>
</g>
<!-- Node1&#45;&gt;Node229 -->
<g id="edge32" class="edge">
<title>Node1&#45;&gt;Node229</title>
<path fill="none" stroke="midnightblue" d="M3783.83,-186.78C3813.95,-175.22 3858.38,-158.16 3884.83,-148.01"/>
<polygon fill="midnightblue" stroke="midnightblue" points="3782.29,-183.62 3774.21,-190.48 3784.8,-190.16 3782.29,-183.62"/>
</g>
<!-- Node230 -->
<g id="node32" class="node">
<title>Node230</title>
<g id="a_node32"><a xlink:href="hash_8h.html" target="_top" xlink:title=" ">
<polygon fill="white" stroke="red" points="754,-129 754,-148 820,-148 820,-129 754,-129"/>
<text text-anchor="middle" x="787" y="-136" font-family="Helvetica,sans-Serif" font-size="10.00">src/hash.h</text>
</a>
</g>
</g>
<!-- Node1&#45;&gt;Node230 -->
<g id="edge33" class="edge">
<title>Node1&#45;&gt;Node230</title>
<path fill="none" stroke="midnightblue" d="M3702.16,-198C3340.02,-190.73 1118.42,-146.15 820.11,-140.16"/>
<polygon fill="midnightblue" stroke="midnightblue" points="3702.26,-201.5 3712.33,-198.2 3702.4,-194.5 3702.26,-201.5"/>
</g>
<!-- Node385 -->
<g id="node33" class="node">
<title>Node385</title>
<g id="a_node33"><a xlink:href="protocol_8h.html" target="_top" xlink:title=" ">
<polygon fill="white" stroke="red" points="3976.5,-129 3976.5,-148 4059.5,-148 4059.5,-129 3976.5,-129"/>
<text text-anchor="middle" x="4018" y="-136" font-family="Helvetica,sans-Serif" font-size="10.00">src/protocol.h</text>
</a>
</g>
</g>
<!-- Node1&#45;&gt;Node385 -->
<g id="edge36" class="edge">
<title>Node1&#45;&gt;Node385</title>
<path fill="none" stroke="midnightblue" d="M3801.9,-189.59C3845.62,-181.11 3910.78,-167.86 3967,-154 3974.24,-152.22 3982,-150.11 3989.24,-148.06"/>
<polygon fill="midnightblue" stroke="midnightblue" points="3800.97,-186.21 3791.82,-191.54 3802.3,-193.08 3800.97,-186.21"/>
</g>
<!-- Node44 -->
<g id="node34" class="node">
<title>Node44</title>
<g id="a_node34"><a xlink:href="rest_8cpp.html" target="_top" xlink:title=" ">
<polygon fill="white" stroke="black" points="4077.5,-129 4077.5,-148 4150.5,-148 4150.5,-129 4077.5,-129"/>
<text text-anchor="middle" x="4114" y="-136" font-family="Helvetica,sans-Serif" font-size="10.00">src/rest.cpp</text>
</a>
</g>
</g>
<!-- Node1&#45;&gt;Node44 -->
<g id="edge37" class="edge">
<title>Node1&#45;&gt;Node44</title>
<path fill="none" stroke="midnightblue" d="M3801.72,-194.59C3864.54,-188.42 3975.74,-175.48 4069,-154 4075.88,-152.42 4083.21,-150.26 4089.92,-148.09"/>
<polygon fill="midnightblue" stroke="midnightblue" points="3801.3,-191.12 3791.69,-195.56 3801.98,-198.08 3801.3,-191.12"/>
</g>
<!-- Node252 -->
<g id="node35" class="node">
<title>Node252</title>
<g id="a_node35"><a xlink:href="rpc_2net_8cpp.html" target="_top" xlink:title=" ">
<polygon fill="white" stroke="black" points="4169,-129 4169,-148 4257,-148 4257,-129 4169,-129"/>
<text text-anchor="middle" x="4213" y="-136" font-family="Helvetica,sans-Serif" font-size="10.00">src/rpc/net.cpp</text>
</a>
</g>
</g>
<!-- Node1&#45;&gt;Node252 -->
<g id="edge38" class="edge">
<title>Node1&#45;&gt;Node252</title>
<path fill="none" stroke="midnightblue" d="M3802.09,-196.02C3879.43,-190.85 4032.3,-178.35 4160,-154 4168.25,-152.43 4177.09,-150.22 4185.14,-148.01"/>
<polygon fill="midnightblue" stroke="midnightblue" points="3801.44,-192.56 3791.69,-196.7 3801.9,-199.54 3801.44,-192.56"/>
</g>
<!-- Node366 -->
<g id="node36" class="node">
<title>Node366</title>
<g id="a_node36"><a xlink:href="bitcoinconsensus_8cpp.html" target="_top" xlink:title=" ">
<polygon fill="white" stroke="black" points="4275,-129 4275,-148 4443,-148 4443,-129 4275,-129"/>
<text text-anchor="middle" x="4359" y="-136" font-family="Helvetica,sans-Serif" font-size="10.00">src/script/bitcoinconsensus.cpp</text>
</a>
</g>
</g>
<!-- Node1&#45;&gt;Node366 -->
<g id="edge39" class="edge">
<title>Node1&#45;&gt;Node366</title>
<path fill="none" stroke="midnightblue" d="M3801.89,-195.75C3893.86,-189.52 4096.25,-174.64 4266,-154 4279.79,-152.32 4294.67,-150.16 4308.41,-148.02"/>
<polygon fill="midnightblue" stroke="midnightblue" points="3801.5,-192.27 3791.76,-196.44 3801.97,-199.26 3801.5,-192.27"/>
</g>
<!-- Node364 -->
<g id="node37" class="node">
<title>Node364</title>
<g id="a_node37"><a xlink:href="deserialize_8cpp.html" target="_top" xlink:title=" ">
<polygon fill="white" stroke="black" points="0,-62 0,-81 152,-81 152,-62 0,-62"/>
<text text-anchor="middle" x="76" y="-69" font-family="Helvetica,sans-Serif" font-size="10.00">src/test/fuzz/deserialize.cpp</text>
</a>
</g>
</g>
<!-- Node1&#45;&gt;Node364 -->
<g id="edge41" class="edge">
<title>Node1&#45;&gt;Node364</title>
<path fill="none" stroke="midnightblue" d="M3702.37,-198.78C3293.87,-196.95 499.65,-183.34 419,-154 398.52,-146.55 400.87,-131.95 381,-123 290.66,-82.31 258.72,-103.33 161,-87 149.63,-85.1 137.41,-83.03 125.88,-81.07"/>
<polygon fill="midnightblue" stroke="midnightblue" points="3702.38,-202.28 3712.4,-198.83 3702.41,-195.28 3702.38,-202.28"/>
</g>
<!-- Node71 -->
<g id="node38" class="node">
<title>Node71</title>
<g id="a_node38"><a xlink:href="float_8cpp.html" target="_top" xlink:title=" ">
<polygon fill="white" stroke="black" points="3842.5,-62 3842.5,-81 3963.5,-81 3963.5,-62 3842.5,-62"/>
<text text-anchor="middle" x="3903" y="-69" font-family="Helvetica,sans-Serif" font-size="10.00">src/test/fuzz/float.cpp</text>
</a>
</g>
</g>
<!-- Node1&#45;&gt;Node71 -->
<g id="edge42" class="edge">
<title>Node1&#45;&gt;Node71</title>
<path fill="none" stroke="midnightblue" d="M3702.04,-194.84C3636.28,-187.5 3533.37,-168.49 3573,-123 3611.31,-79.02 3775.52,-96.92 3833,-87 3843.15,-85.25 3854.08,-83.11 3864.21,-81.02"/>
<polygon fill="midnightblue" stroke="midnightblue" points="3701.94,-198.35 3712.25,-195.92 3702.68,-191.39 3701.94,-198.35"/>
</g>
<!-- Node75 -->
<g id="node39" class="node">
<title>Node75</title>
<g id="a_node39"><a xlink:href="integer_8cpp.html" target="_top" xlink:title=" ">
<polygon fill="white" stroke="black" points="3981.5,-62 3981.5,-81 4114.5,-81 4114.5,-62 3981.5,-62"/>
<text text-anchor="middle" x="4048" y="-69" font-family="Helvetica,sans-Serif" font-size="10.00">src/test/fuzz/integer.cpp</text>
</a>
</g>
</g>
<!-- Node1&#45;&gt;Node75 -->
<g id="edge43" class="edge">
<title>Node1&#45;&gt;Node75</title>
<path fill="none" stroke="midnightblue" d="M3741.48,-181.45C3732.85,-164.53 3724.12,-139.17 3738,-123 3772.41,-82.91 3920.94,-96.02 3973,-87 3983.45,-85.19 3994.7,-83.09 4005.22,-81.07"/>
<polygon fill="midnightblue" stroke="midnightblue" points="3738.48,-183.25 3746.38,-190.31 3744.6,-179.86 3738.48,-183.25"/>
</g>
<!-- Node91 -->
<g id="node40" class="node">
<title>Node91</title>
<g id="a_node40"><a xlink:href="process__message_8cpp.html" target="_top" xlink:title=" ">
<polygon fill="white" stroke="black" points="4133,-56.5 4133,-86.5 4249,-86.5 4249,-56.5 4133,-56.5"/>
<text text-anchor="start" x="4141" y="-74.5" font-family="Helvetica,sans-Serif" font-size="10.00">src/test/fuzz/process</text>
<text text-anchor="middle" x="4191" y="-63.5" font-family="Helvetica,sans-Serif" font-size="10.00">_message.cpp</text>
</a>
</g>
</g>
<!-- Node1&#45;&gt;Node91 -->
<g id="edge44" class="edge">
<title>Node1&#45;&gt;Node91</title>
<path fill="none" stroke="midnightblue" d="M3752.4,-180.27C3753.87,-162.61 3759.03,-136.84 3776,-123 3836.26,-73.87 4047.22,-99.24 4124,-87 4126.94,-86.53 4129.94,-86.02 4132.97,-85.47"/>
<polygon fill="midnightblue" stroke="midnightblue" points="3748.91,-180.11 3751.89,-190.27 3755.9,-180.47 3748.91,-180.11"/>
</g>
<!-- Node382 -->
<g id="node41" class="node">
<title>Node382</title>
<g id="a_node41"><a xlink:href="test_2fuzz_2psbt_8cpp.html" target="_top" xlink:title=" ">
<polygon fill="white" stroke="black" points="4461,-129 4461,-148 4581,-148 4581,-129 4461,-129"/>
<text text-anchor="middle" x="4521" y="-136" font-family="Helvetica,sans-Serif" font-size="10.00">src/test/fuzz/psbt.cpp</text>
</a>
</g>
</g>
<!-- Node1&#45;&gt;Node382 -->
<g id="edge45" class="edge">
<title>Node1&#45;&gt;Node382</title>
<path fill="none" stroke="midnightblue" d="M3801.92,-198.24C3917.04,-195.94 4209.8,-187.06 4452,-154 4462.92,-152.51 4474.68,-150.28 4485.36,-148"/>
<polygon fill="midnightblue" stroke="midnightblue" points="3801.6,-194.74 3791.67,-198.43 3801.73,-201.74 3801.6,-194.74"/>
</g>
<!-- Node384 -->
<g id="node42" class="node">
<title>Node384</title>
<g id="a_node42"><a xlink:href="script__flags_8cpp.html" target="_top" xlink:title=" ">
<polygon fill="white" stroke="black" points="4599,-123.5 4599,-153.5 4705,-153.5 4705,-123.5 4599,-123.5"/>
<text text-anchor="start" x="4607" y="-141.5" font-family="Helvetica,sans-Serif" font-size="10.00">src/test/fuzz/script</text>
<text text-anchor="middle" x="4652" y="-130.5" font-family="Helvetica,sans-Serif" font-size="10.00">_flags.cpp</text>
</a>
</g>
</g>
<!-- Node1&#45;&gt;Node384 -->
<g id="edge46" class="edge">
<title>Node1&#45;&gt;Node384</title>
<path fill="none" stroke="midnightblue" d="M3801.56,-199.37C3931.58,-199.69 4292.99,-196.37 4590,-154 4592.85,-153.59 4595.75,-153.12 4598.68,-152.6"/>
<polygon fill="midnightblue" stroke="midnightblue" points="3801.52,-195.87 3791.51,-199.34 3801.5,-202.87 3801.52,-195.87"/>
</g>
<!-- Node111 -->
<g id="node43" class="node">
<title>Node111</title>
<g id="a_node43"><a xlink:href="test_2fuzz_2string_8cpp.html" target="_top" xlink:title=" ">
<polygon fill="white" stroke="black" points="4267.5,-62 4267.5,-81 4394.5,-81 4394.5,-62 4267.5,-62"/>
<text text-anchor="middle" x="4331" y="-69" font-family="Helvetica,sans-Serif" font-size="10.00">src/test/fuzz/string.cpp</text>
</a>
</g>
</g>
<!-- Node1&#45;&gt;Node111 -->
<g id="edge47" class="edge">
<title>Node1&#45;&gt;Node111</title>
<path fill="none" stroke="midnightblue" d="M3760.75,-181.54C3770.86,-163.42 3789.32,-135.96 3814,-123 3901.63,-76.96 4159.96,-100.67 4258,-87 4269.26,-85.43 4281.41,-83.23 4292.5,-81.01"/>
<polygon fill="midnightblue" stroke="midnightblue" points="3757.59,-180.01 3756,-190.49 3763.78,-183.29 3757.59,-180.01"/>
</g>
<!-- Node116 -->
<g id="node44" class="node">
<title>Node116</title>
<g id="a_node44"><a xlink:href="test_2fuzz_2util_8cpp.html" target="_top" xlink:title=" ">
<polygon fill="white" stroke="black" points="4412.5,-62 4412.5,-81 4527.5,-81 4527.5,-62 4412.5,-62"/>
<text text-anchor="middle" x="4470" y="-69" font-family="Helvetica,sans-Serif" font-size="10.00">src/test/fuzz/util.cpp</text>
</a>
</g>
</g>
<!-- Node1&#45;&gt;Node116 -->
<g id="edge51" class="edge">
<title>Node1&#45;&gt;Node116</title>
<path fill="none" stroke="midnightblue" d="M3772.03,-184.19C3783.56,-175.55 3798.24,-164.34 3811,-154 3827.4,-140.7 3827.45,-130.98 3847,-123 3961.83,-76.1 4281.18,-104.36 4404,-87 4414.45,-85.52 4425.72,-83.29 4435.92,-81.02"/>
<polygon fill="midnightblue" stroke="midnightblue" points="3769.84,-181.45 3763.91,-190.24 3774.02,-187.07 3769.84,-181.45"/>
</g>
<!-- Node46 -->
<g id="node45" class="node">
<title>Node46</title>
<g id="a_node45"><a xlink:href="test_2fuzz_2util_8h.html" target="_top" xlink:title=" ">
<polygon fill="white" stroke="red" points="3582,-129 3582,-148 3686,-148 3686,-129 3582,-129"/>
<text text-anchor="middle" x="3634" y="-136" font-family="Helvetica,sans-Serif" font-size="10.00">src/test/fuzz/util.h</text>
</a>
</g>
</g>
<!-- Node1&#45;&gt;Node46 -->
<g id="edge52" class="edge">
<title>Node1&#45;&gt;Node46</title>
<path fill="none" stroke="midnightblue" d="M3725.95,-185.87C3703.08,-174.33 3670.49,-157.9 3650.88,-148.01"/>
<polygon fill="midnightblue" stroke="midnightblue" points="3724.59,-189.1 3735.09,-190.48 3727.74,-182.85 3724.59,-189.1"/>
</g>
<!-- Node165 -->
<g id="node46" class="node">
<title>Node165</title>
<g id="a_node46"><a xlink:href="net__tests_8cpp.html" target="_top" xlink:title=" ">
<polygon fill="white" stroke="black" points="4723.5,-129 4723.5,-148 4844.5,-148 4844.5,-129 4723.5,-129"/>
<text text-anchor="middle" x="4784" y="-136" font-family="Helvetica,sans-Serif" font-size="10.00">src/test/net_tests.cpp</text>
</a>
</g>
</g>
<!-- Node1&#45;&gt;Node165 -->
<g id="edge61" class="edge">
<title>Node1&#45;&gt;Node165</title>
<path fill="none" stroke="midnightblue" d="M3801.77,-199.43C3944.44,-200.06 4366.87,-197.79 4714,-154 4725.2,-152.59 4737.29,-150.35 4748.21,-148.04"/>
<polygon fill="midnightblue" stroke="midnightblue" points="3801.61,-195.93 3791.59,-199.37 3801.58,-202.93 3801.61,-195.93"/>
</g>
<!-- Node166 -->
<g id="node47" class="node">
<title>Node166</title>
<g id="a_node47"><a xlink:href="netbase__tests_8cpp.html" target="_top" xlink:title=" ">
<polygon fill="white" stroke="black" points="4863,-129 4863,-148 5007,-148 5007,-129 4863,-129"/>
<text text-anchor="middle" x="4935" y="-136" font-family="Helvetica,sans-Serif" font-size="10.00">src/test/netbase_tests.cpp</text>
</a>
</g>
</g>
<!-- Node1&#45;&gt;Node166 -->
<g id="edge62" class="edge">
<title>Node1&#45;&gt;Node166</title>
<path fill="none" stroke="midnightblue" d="M3801.89,-199.38C3957.83,-200.04 4449.77,-198.23 4854,-154 4866.92,-152.59 4880.89,-150.35 4893.53,-148.04"/>
<polygon fill="midnightblue" stroke="midnightblue" points="3801.7,-195.88 3791.68,-199.33 3801.66,-202.88 3801.7,-195.88"/>
</g>
<!-- Node167 -->
<g id="node48" class="node">
<title>Node167</title>
<g id="a_node48"><a xlink:href="pmt__tests_8cpp.html" target="_top" xlink:title=" ">
<polygon fill="white" stroke="black" points="5025.5,-129 5025.5,-148 5150.5,-148 5150.5,-129 5025.5,-129"/>
<text text-anchor="middle" x="5088" y="-136" font-family="Helvetica,sans-Serif" font-size="10.00">src/test/pmt_tests.cpp</text>
</a>
</g>
</g>
<!-- Node1&#45;&gt;Node167 -->
<g id="edge63" class="edge">
<title>Node1&#45;&gt;Node167</title>
<path fill="none" stroke="midnightblue" d="M3801.8,-198.31C4005.32,-195.34 4774.59,-182.41 5016,-154 5027.65,-152.63 5040.23,-150.37 5051.56,-148.04"/>
<polygon fill="midnightblue" stroke="midnightblue" points="3801.65,-194.81 3791.7,-198.46 3801.75,-201.81 3801.65,-194.81"/>
</g>
<!-- Node194 -->
<g id="node49" class="node">
<title>Node194</title>
<g id="a_node49"><a xlink:href="uint256__tests_8cpp.html" target="_top" xlink:title=" ">
<polygon fill="white" stroke="black" points="5169,-129 5169,-148 5311,-148 5311,-129 5169,-129"/>
<text text-anchor="middle" x="5240" y="-136" font-family="Helvetica,sans-Serif" font-size="10.00">src/test/uint256_tests.cpp</text>
</a>
</g>
</g>
<!-- Node1&#45;&gt;Node194 -->
<g id="edge65" class="edge">
<title>Node1&#45;&gt;Node194</title>
<path fill="none" stroke="midnightblue" d="M3801.99,-198.39C4019.99,-195.58 4888.56,-182.78 5160,-154 5172.91,-152.63 5186.88,-150.37 5199.47,-148.04"/>
<polygon fill="midnightblue" stroke="midnightblue" points="3801.77,-194.89 3791.81,-198.52 3801.86,-201.89 3801.77,-194.89"/>
</g>
<!-- Node403 -->
<g id="node50" class="node">
<title>Node403</title>
<g id="a_node50"><a xlink:href="undo_8h.html" target="_top" xlink:title=" ">
<polygon fill="white" stroke="red" points="428.5,-129 428.5,-148 495.5,-148 495.5,-129 428.5,-129"/>
<text text-anchor="middle" x="462" y="-136" font-family="Helvetica,sans-Serif" font-size="10.00">src/undo.h</text>
</a>
</g>
</g>
<!-- Node1&#45;&gt;Node403 -->
<g id="edge66" class="edge">
<title>Node1&#45;&gt;Node403</title>
<path fill="none" stroke="midnightblue" d="M3702.05,-198.93C3414.84,-198.39 1944.71,-193.7 745,-154 654.77,-151.01 548.49,-144.86 495.53,-141.61"/>
<polygon fill="midnightblue" stroke="midnightblue" points="3702.14,-202.43 3712.15,-198.95 3702.16,-195.43 3702.14,-202.43"/>
</g>
<!-- Node4 -->
<g id="node4" class="node">
<title>Node4</title>
<g id="a_node4"><a xlink:href="block__assemble_8cpp.html" target="_top" xlink:title=" ">
<polygon fill="white" stroke="black" points="2469.5,-62 2469.5,-81 2634.5,-81 2634.5,-62 2469.5,-62"/>
<text text-anchor="middle" x="2552" y="-69" font-family="Helvetica,sans-Serif" font-size="10.00">src/bench/block_assemble.cpp</text>
</a>
</g>
</g>
<!-- Node3&#45;&gt;Node4 -->
<g id="edge3" class="edge">
<title>Node3&#45;&gt;Node4</title>
<path fill="none" stroke="midnightblue" d="M2101.27,-129.05C2190.23,-119.78 2335.28,-103.95 2460,-87 2473.14,-85.21 2487.3,-83.09 2500.48,-81.02"/>
<polygon fill="midnightblue" stroke="midnightblue" points="2100.83,-125.58 2091.24,-130.1 2101.55,-132.54 2100.83,-125.58"/>
</g>
<!-- Node5 -->
<g id="node5" class="node">
<title>Node5</title>
<g id="a_node5"><a xlink:href="checkblock_8cpp.html" target="_top" xlink:title=" ">
<polygon fill="white" stroke="black" points="847.5,-62 847.5,-81 988.5,-81 988.5,-62 847.5,-62"/>
<text text-anchor="middle" x="918" y="-69" font-family="Helvetica,sans-Serif" font-size="10.00">src/bench/checkblock.cpp</text>
</a>
</g>
</g>
<!-- Node3&#45;&gt;Node5 -->
<g id="edge4" class="edge">
<title>Node3&#45;&gt;Node5</title>
<path fill="none" stroke="midnightblue" d="M1934.86,-137.1C1760.45,-135.45 1343.78,-127.22 997,-87 984.53,-85.55 971.07,-83.33 958.85,-81.06"/>
<polygon fill="midnightblue" stroke="midnightblue" points="1934.97,-140.6 1945,-137.19 1935.03,-133.6 1934.97,-140.6"/>
</g>
<!-- Node6 -->
<g id="node6" class="node">
<title>Node6</title>
<g id="a_node6"><a xlink:href="duplicate__inputs_8cpp.html" target="_top" xlink:title=" ">
<polygon fill="white" stroke="black" points="1006.5,-56.5 1006.5,-86.5 1117.5,-86.5 1117.5,-56.5 1006.5,-56.5"/>
<text text-anchor="start" x="1014.5" y="-74.5" font-family="Helvetica,sans-Serif" font-size="10.00">src/bench/duplicate</text>
<text text-anchor="middle" x="1062" y="-63.5" font-family="Helvetica,sans-Serif" font-size="10.00">_inputs.cpp</text>
</a>
</g>
</g>
<!-- Node3&#45;&gt;Node6 -->
<g id="edge5" class="edge">
<title>Node3&#45;&gt;Node6</title>
<path fill="none" stroke="midnightblue" d="M1934.61,-137.39C1776.23,-136.16 1421.34,-128.52 1126,-87 1123.29,-86.62 1120.53,-86.18 1117.75,-85.7"/>
<polygon fill="midnightblue" stroke="midnightblue" points="1934.73,-140.89 1944.75,-137.46 1934.78,-133.89 1934.73,-140.89"/>
</g>
<!-- Node7 -->
<g id="node7" class="node">
<title>Node7</title>
<g id="a_node7"><a xlink:href="blockencodings_8cpp.html" target="_top" xlink:title=" ">
<polygon fill="white" stroke="black" points="1135.5,-62 1135.5,-81 1264.5,-81 1264.5,-62 1135.5,-62"/>
<text text-anchor="middle" x="1200" y="-69" font-family="Helvetica,sans-Serif" font-size="10.00">src/blockencodings.cpp</text>
</a>
</g>
</g>
<!-- Node3&#45;&gt;Node7 -->
<g id="edge6" class="edge">
<title>Node3&#45;&gt;Node7</title>
<path fill="none" stroke="midnightblue" d="M1934.76,-135.26C1796.86,-130.79 1512.56,-118.34 1274,-87 1262.45,-85.48 1249.98,-83.27 1238.64,-81.02"/>
<polygon fill="midnightblue" stroke="midnightblue" points="1934.72,-138.76 1944.83,-135.58 1934.95,-131.77 1934.72,-138.76"/>
</g>
<!-- Node8 -->
<g id="node8" class="node">
<title>Node8</title>
<g id="a_node8"><a xlink:href="tx__check_8cpp.html" target="_top" xlink:title=" ">
<polygon fill="white" stroke="black" points="1283,-62 1283,-81 1435,-81 1435,-62 1283,-62"/>
<text text-anchor="middle" x="1359" y="-69" font-family="Helvetica,sans-Serif" font-size="10.00">src/consensus/tx_check.cpp</text>
</a>
</g>
</g>
<!-- Node3&#45;&gt;Node8 -->
<g id="edge7" class="edge">
<title>Node3&#45;&gt;Node8</title>
<path fill="none" stroke="midnightblue" d="M1934.65,-132.3C1822.75,-124.83 1617.9,-109.44 1444,-87 1431.23,-85.35 1417.45,-83.17 1404.78,-81.01"/>
<polygon fill="midnightblue" stroke="midnightblue" points="1934.64,-135.81 1944.85,-132.97 1935.11,-128.82 1934.64,-135.81"/>
</g>
<!-- Node9 -->
<g id="node9" class="node">
<title>Node9</title>
<g id="a_node9"><a xlink:href="tx__verify_8cpp.html" target="_top" xlink:title=" ">
<polygon fill="white" stroke="black" points="1453.5,-62 1453.5,-81 1602.5,-81 1602.5,-62 1453.5,-62"/>
<text text-anchor="middle" x="1528" y="-69" font-family="Helvetica,sans-Serif" font-size="10.00">src/consensus/tx_verify.cpp</text>
</a>
</g>
</g>
<!-- Node3&#45;&gt;Node9 -->
<g id="edge8" class="edge">
<title>Node3&#45;&gt;Node9</title>
<path fill="none" stroke="midnightblue" d="M1934.85,-128.32C1852.68,-118.97 1723.46,-103.54 1612,-87 1600,-85.22 1587.06,-83.09 1575.03,-81.02"/>
<polygon fill="midnightblue" stroke="midnightblue" points="1934.55,-131.81 1944.88,-129.46 1935.34,-124.85 1934.55,-131.81"/>
</g>
<!-- Node10 -->
<g id="node10" class="node">
<title>Node10</title>
<g id="a_node10"><a xlink:href="core__write_8cpp.html" target="_top" xlink:title=" ">
<polygon fill="white" stroke="black" points="475.5,-62 475.5,-81 580.5,-81 580.5,-62 475.5,-62"/>
<text text-anchor="middle" x="528" y="-69" font-family="Helvetica,sans-Serif" font-size="10.00">src/core_write.cpp</text>
</a>
</g>
</g>
<!-- Node3&#45;&gt;Node10 -->
<g id="edge9" class="edge">
<title>Node3&#45;&gt;Node10</title>
<path fill="none" stroke="midnightblue" d="M1934.32,-136.68C1669.6,-133.73 852.37,-121.98 590,-87 579.92,-85.66 569.08,-83.41 559.32,-81.07"/>
<polygon fill="midnightblue" stroke="midnightblue" points="1934.6,-140.18 1944.64,-136.79 1934.67,-133.18 1934.6,-140.18"/>
</g>
<!-- Node11 -->
<g id="node11" class="node">
<title>Node11</title>
<g id="a_node11"><a xlink:href="miner_8cpp.html" target="_top" xlink:title=" ">
<polygon fill="white" stroke="black" points="1621,-62 1621,-81 1703,-81 1703,-62 1621,-62"/>
<text text-anchor="middle" x="1662" y="-69" font-family="Helvetica,sans-Serif" font-size="10.00">src/miner.cpp</text>
</a>
</g>
</g>
<!-- Node3&#45;&gt;Node11 -->
<g id="edge10" class="edge">
<title>Node3&#45;&gt;Node11</title>
<path fill="none" stroke="midnightblue" d="M1942.37,-127.57C1880.15,-118.79 1789.85,-104.65 1712,-87 1704.6,-85.32 1696.67,-83.18 1689.36,-81.07"/>
<polygon fill="midnightblue" stroke="midnightblue" points="1942.11,-131.07 1952.5,-128.99 1943.08,-124.13 1942.11,-131.07"/>
</g>
<!-- Node12 -->
<g id="node12" class="node">
<title>Node12</title>
<g id="a_node12"><a xlink:href="net__processing_8cpp.html" target="_top" xlink:title=" ">
<polygon fill="white" stroke="black" points="599,-62 599,-81 727,-81 727,-62 599,-62"/>
<text text-anchor="middle" x="663" y="-69" font-family="Helvetica,sans-Serif" font-size="10.00">src/net_processing.cpp</text>
</a>
</g>
</g>
<!-- Node3&#45;&gt;Node12 -->
<g id="edge11" class="edge">
<title>Node3&#45;&gt;Node12</title>
<path fill="none" stroke="midnightblue" d="M1934.62,-135.92C1688.75,-131.01 969.33,-114.6 736,-87 724.19,-85.6 711.45,-83.34 699.96,-81.01"/>
<polygon fill="midnightblue" stroke="midnightblue" points="1934.85,-139.43 1944.91,-136.13 1934.99,-132.43 1934.85,-139.43"/>
</g>
<!-- Node13 -->
<g id="node13" class="node">
<title>Node13</title>
<g id="a_node13"><a xlink:href="blockstorage_8cpp.html" target="_top" xlink:title=" ">
<polygon fill="white" stroke="black" points="170,-62 170,-81 314,-81 314,-62 170,-62"/>
<text text-anchor="middle" x="242" y="-69" font-family="Helvetica,sans-Serif" font-size="10.00">src/node/blockstorage.cpp</text>
</a>
</g>
</g>
<!-- Node3&#45;&gt;Node13 -->
<g id="edge12" class="edge">
<title>Node3&#45;&gt;Node13</title>
<path fill="none" stroke="midnightblue" d="M1934.3,-136.64C1638.17,-133.34 640.79,-120 323,-87 309.93,-85.64 295.79,-83.39 283.04,-81.06"/>
<polygon fill="midnightblue" stroke="midnightblue" points="1934.5,-140.14 1944.54,-136.75 1934.58,-133.14 1934.5,-140.14"/>
</g>
<!-- Node14 -->
<g id="node14" class="node">
<title>Node14</title>
<g id="a_node14"><a xlink:href="node_2transaction_8cpp.html" target="_top" xlink:title=" ">
<polygon fill="white" stroke="black" points="1721,-62 1721,-81 1857,-81 1857,-62 1721,-62"/>
<text text-anchor="middle" x="1789" y="-69" font-family="Helvetica,sans-Serif" font-size="10.00">src/node/transaction.cpp</text>
</a>
</g>
</g>
<!-- Node3&#45;&gt;Node14 -->
<g id="edge13" class="edge">
<title>Node3&#45;&gt;Node14</title>
<path fill="none" stroke="midnightblue" d="M1977.81,-126.09C1932.5,-113.23 1859.88,-92.62 1819.17,-81.06"/>
<polygon fill="midnightblue" stroke="midnightblue" points="1977.01,-129.5 1987.59,-128.87 1978.93,-122.77 1977.01,-129.5"/>
</g>
<!-- Node15 -->
<g id="node15" class="node">
<title>Node15</title>
<g id="a_node15"><a xlink:href="packages_8cpp.html" target="_top" xlink:title=" ">
<polygon fill="white" stroke="black" points="1829,-0.5 1829,-19.5 1961,-19.5 1961,-0.5 1829,-0.5"/>
<text text-anchor="middle" x="1895" y="-7.5" font-family="Helvetica,sans-Serif" font-size="10.00">src/policy/packages.cpp</text>
</a>
</g>
</g>
<!-- Node3&#45;&gt;Node15 -->
<g id="edge14" class="edge">
<title>Node3&#45;&gt;Node15</title>
<path fill="none" stroke="midnightblue" d="M1963.74,-125.96C1941.81,-118.5 1918.33,-106.42 1904,-87 1889.17,-66.9 1891.27,-35.34 1893.43,-19.98"/>
<polygon fill="midnightblue" stroke="midnightblue" points="1962.75,-129.31 1973.34,-128.97 1964.85,-122.64 1962.75,-129.31"/>
</g>
<!-- Node16 -->
<g id="node16" class="node">
<title>Node16</title>
<g id="a_node16"><a xlink:href="packages_8h.html" target="_top" xlink:title=" ">
<polygon fill="white" stroke="red" points="1913.5,-62 1913.5,-81 2034.5,-81 2034.5,-62 1913.5,-62"/>
<text text-anchor="middle" x="1974" y="-69" font-family="Helvetica,sans-Serif" font-size="10.00">src/policy/packages.h</text>
</a>
</g>
</g>
<!-- Node3&#45;&gt;Node16 -->
<g id="edge15" class="edge">
<title>Node3&#45;&gt;Node16</title>
<path fill="none" stroke="midnightblue" d="M2006.43,-120.4C1997.88,-107.77 1986.59,-91.1 1979.84,-81.13"/>
<polygon fill="midnightblue" stroke="midnightblue" points="2003.56,-122.41 2012.07,-128.73 2009.36,-118.49 2003.56,-122.41"/>
</g>
<!-- Node17 -->
<g id="node17" class="node">
<title>Node17</title>
<g id="a_node17"><a xlink:href="rawtransaction_8cpp.html" target="_top" xlink:title=" ">
<polygon fill="white" stroke="black" points="1984.5,-0.5 1984.5,-19.5 2129.5,-19.5 2129.5,-0.5 1984.5,-0.5"/>
<text text-anchor="middle" x="2057" y="-7.5" font-family="Helvetica,sans-Serif" font-size="10.00">src/rpc/rawtransaction.cpp</text>
</a>
</g>
</g>
<!-- Node3&#45;&gt;Node17 -->
<g id="edge21" class="edge">
<title>Node3&#45;&gt;Node17</title>
<path fill="none" stroke="midnightblue" d="M2028.13,-120.06C2033.27,-110.56 2039.2,-98.44 2043,-87 2050.87,-63.32 2054.7,-33.93 2056.2,-19.63"/>
<polygon fill="midnightblue" stroke="midnightblue" points="2025.03,-118.44 2023.2,-128.88 2031.14,-121.86 2025.03,-118.44"/>
</g>
<!-- Node220 -->
<g id="node18" class="node">
<title>Node220</title>
<g id="a_node18"><a xlink:href="policy_8cpp.html" target="_top" xlink:title=" ">
<polygon fill="white" stroke="black" points="2091,-62 2091,-81 2205,-81 2205,-62 2091,-62"/>
<text text-anchor="middle" x="2148" y="-69" font-family="Helvetica,sans-Serif" font-size="10.00">src/policy/policy.cpp</text>
</a>
</g>
</g>
<!-- Node3&#45;&gt;Node220 -->
<g id="edge18" class="edge">
<title>Node3&#45;&gt;Node220</title>
<path fill="none" stroke="midnightblue" d="M2044.45,-124.27C2070.2,-111.4 2108.58,-92.21 2130.67,-81.17"/>
<polygon fill="midnightblue" stroke="midnightblue" points="2042.64,-121.27 2035.26,-128.87 2045.77,-127.53 2042.64,-121.27"/>
</g>
<!-- Node39 -->
<g id="node19" class="node">
<title>Node39</title>
<g id="a_node19"><a xlink:href="blockchain_8cpp.html" target="_top" xlink:title=" ">
<polygon fill="white" stroke="black" points="332.5,-62 332.5,-81 457.5,-81 457.5,-62 332.5,-62"/>
<text text-anchor="middle" x="395" y="-69" font-family="Helvetica,sans-Serif" font-size="10.00">src/rpc/blockchain.cpp</text>
</a>
</g>
</g>
<!-- Node3&#45;&gt;Node39 -->
<g id="edge19" class="edge">
<title>Node3&#45;&gt;Node39</title>
<path fill="none" stroke="midnightblue" d="M1934.8,-136.65C1655.71,-133.49 754.28,-120.88 466,-87 454.5,-85.65 442.1,-83.4 430.93,-81.06"/>
<polygon fill="midnightblue" stroke="midnightblue" points="1934.82,-140.15 1944.85,-136.76 1934.89,-133.15 1934.82,-140.15"/>
</g>
<!-- Node25 -->
<g id="node20" class="node">
<title>Node25</title>
<g id="a_node20"><a xlink:href="rpc_2mining_8cpp.html" target="_top" xlink:title=" ">
<polygon fill="white" stroke="black" points="2223,-62 2223,-81 2329,-81 2329,-62 2223,-62"/>
<text text-anchor="middle" x="2276" y="-69" font-family="Helvetica,sans-Serif" font-size="10.00">src/rpc/mining.cpp</text>
</a>
</g>
</g>
<!-- Node3&#45;&gt;Node25 -->
<g id="edge20" class="edge">
<title>Node3&#45;&gt;Node25</title>
<path fill="none" stroke="midnightblue" d="M2061.72,-126.48C2112.62,-113.66 2195.58,-92.76 2241.93,-81.08"/>
<polygon fill="midnightblue" stroke="midnightblue" points="2060.84,-123.1 2051.99,-128.94 2062.55,-129.89 2060.84,-123.1"/>
</g>
<!-- Node221 -->
<g id="node21" class="node">
<title>Node221</title>
<g id="a_node21"><a xlink:href="signet_8cpp.html" target="_top" xlink:title=" ">
<polygon fill="white" stroke="black" points="745,-62 745,-81 829,-81 829,-62 745,-62"/>
<text text-anchor="middle" x="787" y="-69" font-family="Helvetica,sans-Serif" font-size="10.00">src/signet.cpp</text>
</a>
</g>
</g>
<!-- Node3&#45;&gt;Node221 -->
<g id="edge22" class="edge">
<title>Node3&#45;&gt;Node221</title>
<path fill="none" stroke="midnightblue" d="M1934.73,-136.47C1702.28,-133.19 1049.56,-121.12 838,-87 829.64,-85.65 820.7,-83.4 812.68,-81.07"/>
<polygon fill="midnightblue" stroke="midnightblue" points="1934.77,-139.97 1944.82,-136.61 1934.87,-132.97 1934.77,-139.97"/>
</g>
<!-- Node26 -->
<g id="node22" class="node">
<title>Node26</title>
<g id="a_node22"><a xlink:href="blockfilter__index__tests_8cpp.html" target="_top" xlink:title=" ">
<polygon fill="white" stroke="black" points="2347,-56.5 2347,-86.5 2451,-86.5 2451,-56.5 2347,-56.5"/>
<text text-anchor="start" x="2355" y="-74.5" font-family="Helvetica,sans-Serif" font-size="10.00">src/test/blockfilter</text>
<text text-anchor="middle" x="2399" y="-63.5" font-family="Helvetica,sans-Serif" font-size="10.00">_index_tests.cpp</text>
</a>
</g>
</g>
<!-- Node3&#45;&gt;Node26 -->
<g id="edge23" class="edge">
<title>Node3&#45;&gt;Node26</title>
<path fill="none" stroke="midnightblue" d="M2091.55,-127.53C2156.6,-118.33 2253.94,-103.6 2338,-87 2340.88,-86.43 2343.84,-85.82 2346.81,-85.18"/>
<polygon fill="midnightblue" stroke="midnightblue" points="2090.81,-124.1 2081.4,-128.96 2091.79,-131.03 2090.81,-124.1"/>
</g>
<!-- Node3&#45;&gt;Node222 -->
<g id="edge24" class="edge">
<title>Node3&#45;&gt;Node222</title>
<path fill="none" stroke="midnightblue" d="M2101.67,-133.88C2221.89,-127.98 2450.26,-114.1 2643,-87 2654.11,-85.44 2666.09,-83.24 2677.03,-81.02"/>
<polygon fill="midnightblue" stroke="midnightblue" points="2101.25,-130.4 2091.44,-134.38 2101.59,-137.39 2101.25,-130.4"/>
</g>
<!-- Node57 -->
<g id="node24" class="node">
<title>Node57</title>
<g id="a_node24"><a xlink:href="coins__view_8cpp.html" target="_top" xlink:title=" ">
<polygon fill="white" stroke="black" points="3720,-56.5 3720,-86.5 3824,-86.5 3824,-56.5 3720,-56.5"/>
<text text-anchor="start" x="3728" y="-74.5" font-family="Helvetica,sans-Serif" font-size="10.00">src/test/fuzz/coins</text>
<text text-anchor="middle" x="3772" y="-63.5" font-family="Helvetica,sans-Serif" font-size="10.00">_view.cpp</text>
</a>
</g>
</g>
<!-- Node3&#45;&gt;Node57 -->
<g id="edge25" class="edge">
<title>Node3&#45;&gt;Node57</title>
<path fill="none" stroke="midnightblue" d="M2101.67,-137.26C2397.7,-136.04 3394.63,-128.87 3711,-87 3713.91,-86.61 3716.89,-86.15 3719.89,-85.62"/>
<polygon fill="midnightblue" stroke="midnightblue" points="2101.43,-133.76 2091.44,-137.3 2101.45,-140.76 2101.43,-133.76"/>
</g>
<!-- Node108 -->
<g id="node25" class="node">
<title>Node108</title>
<g id="a_node25"><a xlink:href="test_2fuzz_2signet_8cpp.html" target="_top" xlink:title=" ">
<polygon fill="white" stroke="black" points="3419.5,-62 3419.5,-81 3548.5,-81 3548.5,-62 3419.5,-62"/>
<text text-anchor="middle" x="3484" y="-69" font-family="Helvetica,sans-Serif" font-size="10.00">src/test/fuzz/signet.cpp</text>
</a>
</g>
</g>
<!-- Node3&#45;&gt;Node108 -->
<g id="edge26" class="edge">
<title>Node3&#45;&gt;Node108</title>
<path fill="none" stroke="midnightblue" d="M2101.38,-136.23C2361.37,-131.98 3155.12,-116.86 3411,-87 3422.81,-85.62 3435.56,-83.36 3447.04,-81.03"/>
<polygon fill="midnightblue" stroke="midnightblue" points="2101.19,-132.73 2091.25,-136.39 2101.3,-139.73 2101.19,-132.73"/>
</g>
<!-- Node3&#45;&gt;Node223 -->
<g id="edge27" class="edge">
<title>Node3&#45;&gt;Node223</title>
<path fill="none" stroke="midnightblue" d="M2101.33,-134.74C2242.58,-129.45 2537.86,-115.76 2786,-87 2799.39,-85.45 2813.85,-83.25 2827.07,-81.03"/>
<polygon fill="midnightblue" stroke="midnightblue" points="2100.88,-131.25 2091.02,-135.12 2101.14,-138.25 2100.88,-131.25"/>
</g>
<!-- Node3&#45;&gt;Node224 -->
<g id="edge28" class="edge">
<title>Node3&#45;&gt;Node224</title>
<path fill="none" stroke="midnightblue" d="M2101.29,-137.15C2265.87,-135.56 2644.09,-127.38 2959,-87 2970.23,-85.56 2982.34,-83.34 2993.32,-81.07"/>
<polygon fill="midnightblue" stroke="midnightblue" points="2101.21,-133.65 2091.24,-137.25 2101.27,-140.65 2101.21,-133.65"/>
</g>
<!-- Node3&#45;&gt;Node225 -->
<g id="edge29" class="edge">
<title>Node3&#45;&gt;Node225</title>
<path fill="none" stroke="midnightblue" d="M2101.15,-137.7C2282.98,-137.24 2729.35,-131.24 3100,-87 3111.98,-85.57 3124.92,-83.32 3136.63,-81.02"/>
<polygon fill="midnightblue" stroke="midnightblue" points="2101.11,-134.2 2091.12,-137.72 2101.13,-141.2 2101.11,-134.2"/>
</g>
<!-- Node27 -->
<g id="node29" class="node">
<title>Node27</title>
<g id="a_node29"><a xlink:href="tx__pool_8cpp.html" target="_top" xlink:title=" ">
<polygon fill="white" stroke="black" points="3566.5,-62 3566.5,-81 3701.5,-81 3701.5,-62 3566.5,-62"/>
<text text-anchor="middle" x="3634" y="-69" font-family="Helvetica,sans-Serif" font-size="10.00">src/test/fuzz/tx_pool.cpp</text>
</a>
</g>
</g>
<!-- Node3&#45;&gt;Node27 -->
<g id="edge30" class="edge">
<title>Node3&#45;&gt;Node27</title>
<path fill="none" stroke="midnightblue" d="M2101.02,-136.48C2378.44,-132.82 3271.9,-118.79 3558,-87 3570.28,-85.64 3583.55,-83.38 3595.51,-81.05"/>
<polygon fill="midnightblue" stroke="midnightblue" points="2100.98,-132.98 2091.02,-136.61 2101.07,-139.98 2100.98,-132.98"/>
</g>
<!-- Node3&#45;&gt;Node183 -->
<g id="edge31" class="edge">
<title>Node3&#45;&gt;Node183</title>
<path fill="none" stroke="midnightblue" d="M2101.19,-137.98C2300.16,-138.29 2819,-134.09 3249,-87 3261.92,-85.58 3275.89,-83.34 3288.53,-81.04"/>
<polygon fill="midnightblue" stroke="midnightblue" points="2101.11,-134.48 2091.1,-137.96 2101.1,-141.48 2101.11,-134.48"/>
</g>
<!-- Node16&#45;&gt;Node15 -->
<g id="edge16" class="edge">
<title>Node16&#45;&gt;Node15</title>
<path fill="none" stroke="midnightblue" d="M1954.47,-55.79C1939.32,-44.38 1918.84,-28.96 1906.3,-19.51"/>
<polygon fill="midnightblue" stroke="midnightblue" points="1952.59,-58.75 1962.68,-61.98 1956.8,-53.16 1952.59,-58.75"/>
</g>
<!-- Node16&#45;&gt;Node17 -->
<g id="edge17" class="edge">
<title>Node16&#45;&gt;Node17</title>
<path fill="none" stroke="midnightblue" d="M1994.07,-56.11C2010.03,-44.67 2031.83,-29.05 2045.13,-19.51"/>
<polygon fill="midnightblue" stroke="midnightblue" points="1991.98,-53.3 1985.89,-61.98 1996.06,-58.99 1991.98,-53.3"/>
</g>
<!-- Node230&#45;&gt;Node12 -->
<g id="edge34" class="edge">
<title>Node230&#45;&gt;Node12</title>
<path fill="none" stroke="midnightblue" d="M761.44,-124.1C736.89,-111.23 700.51,-92.16 679.53,-81.17"/>
<polygon fill="midnightblue" stroke="midnightblue" points="760.05,-127.33 770.53,-128.87 763.3,-121.13 760.05,-127.33"/>
</g>
<!-- Node230&#45;&gt;Node221 -->
<g id="edge35" class="edge">
<title>Node230&#45;&gt;Node221</title>
<path fill="none" stroke="midnightblue" d="M787,-118.54C787,-106.17 787,-90.62 787,-81.13"/>
<polygon fill="midnightblue" stroke="midnightblue" points="783.5,-118.73 787,-128.73 790.5,-118.73 783.5,-118.73"/>
</g>
<!-- Node46&#45;&gt;Node57 -->
<g id="edge53" class="edge">
<title>Node46&#45;&gt;Node57</title>
<path fill="none" stroke="midnightblue" d="M3661.66,-124.47C3684.99,-113.49 3718.31,-97.79 3742.22,-86.53"/>
<polygon fill="midnightblue" stroke="midnightblue" points="3659.88,-121.44 3652.33,-128.87 3662.86,-127.77 3659.88,-121.44"/>
</g>
<!-- Node46&#45;&gt;Node108 -->
<g id="edge57" class="edge">
<title>Node46&#45;&gt;Node108</title>
<path fill="none" stroke="midnightblue" d="M3604.65,-124.78C3574.94,-111.91 3529.82,-92.35 3504,-81.17"/>
<polygon fill="midnightblue" stroke="midnightblue" points="3603.51,-128.1 3614.08,-128.87 3606.3,-121.68 3603.51,-128.1"/>
</g>
<!-- Node46&#45;&gt;Node27 -->
<g id="edge59" class="edge">
<title>Node46&#45;&gt;Node27</title>
<path fill="none" stroke="midnightblue" d="M3634,-118.54C3634,-106.17 3634,-90.62 3634,-81.13"/>
<polygon fill="midnightblue" stroke="midnightblue" points="3630.5,-118.73 3634,-128.73 3637.5,-118.73 3630.5,-118.73"/>
</g>
<!-- Node46&#45;&gt;Node71 -->
<g id="edge54" class="edge">
<title>Node46&#45;&gt;Node71</title>
<path fill="none" stroke="midnightblue" d="M3679.26,-126.56C3732.29,-113.75 3819.05,-92.78 3867.48,-81.08"/>
<polygon fill="midnightblue" stroke="midnightblue" points="3678.34,-123.18 3669.44,-128.94 3679.99,-129.99 3678.34,-123.18"/>
</g>
<!-- Node46&#45;&gt;Node75 -->
<g id="edge55" class="edge">
<title>Node46&#45;&gt;Node75</title>
<path fill="none" stroke="midnightblue" d="M3680.37,-126.79C3686.94,-125.43 3693.63,-124.12 3700,-123 3820.54,-101.85 3852.2,-106.62 3973,-87 3983.73,-85.26 3995.29,-83.14 4006.03,-81.07"/>
<polygon fill="midnightblue" stroke="midnightblue" points="3679.25,-123.45 3670.2,-128.97 3680.71,-130.3 3679.25,-123.45"/>
</g>
<!-- Node46&#45;&gt;Node91 -->
<g id="edge56" class="edge">
<title>Node46&#45;&gt;Node91</title>
<path fill="none" stroke="midnightblue" d="M3696.36,-128.34C3710.06,-126.45 3724.51,-124.57 3738,-123 3909.15,-103.1 3953.71,-113.27 4124,-87 4126.94,-86.55 4129.95,-86.04 4132.97,-85.5"/>
<polygon fill="midnightblue" stroke="midnightblue" points="3695.47,-124.92 3686.05,-129.77 3696.44,-131.86 3695.47,-124.92"/>
</g>
<!-- Node46&#45;&gt;Node111 -->
<g id="edge58" class="edge">
<title>Node46&#45;&gt;Node111</title>
<path fill="none" stroke="midnightblue" d="M3696.24,-130.77C3721.04,-128.19 3749.86,-125.31 3776,-123 3989.98,-104.09 4045.14,-115.98 4258,-87 4269.27,-85.47 4281.41,-83.27 4292.5,-81.06"/>
<polygon fill="midnightblue" stroke="midnightblue" points="3695.81,-127.3 3686.23,-131.82 3696.54,-134.26 3695.81,-127.3"/>
</g>
<!-- Node46&#45;&gt;Node116 -->
<g id="edge60" class="edge">
<title>Node46&#45;&gt;Node116</title>
<path fill="none" stroke="midnightblue" d="M3696.33,-132.18C3730.97,-129.3 3774.86,-125.77 3814,-123 4076.05,-104.45 4143.81,-123.3 4404,-87 4414.46,-85.54 4425.72,-83.32 4435.93,-81.04"/>
<polygon fill="midnightblue" stroke="midnightblue" points="3696.03,-128.69 3686.36,-133.01 3696.61,-135.67 3696.03,-128.69"/>
</g>
<!-- Node403&#45;&gt;Node10 -->
<g id="edge67" class="edge">
<title>Node403&#45;&gt;Node10</title>
<path fill="none" stroke="midnightblue" d="M478.25,-121.5C491.19,-108.75 508.81,-91.39 519.24,-81.13"/>
<polygon fill="midnightblue" stroke="midnightblue" points="475.57,-119.22 470.9,-128.73 480.48,-124.21 475.57,-119.22"/>
</g>
<!-- Node403&#45;&gt;Node13 -->
<g id="edge68" class="edge">
<title>Node403&#45;&gt;Node13</title>
<path fill="none" stroke="midnightblue" d="M424.2,-126.05C420.75,-125.02 417.31,-123.99 414,-123 363.89,-108.08 305.48,-90.99 271.24,-81.01"/>
<polygon fill="midnightblue" stroke="midnightblue" points="423.25,-129.42 433.84,-128.95 425.27,-122.72 423.25,-129.42"/>
</g>
<!-- Node403&#45;&gt;Node39 -->
<g id="edge69" class="edge">
<title>Node403&#45;&gt;Node39</title>
<path fill="none" stroke="midnightblue" d="M445.5,-121.5C432.36,-108.75 414.48,-91.39 403.89,-81.13"/>
<polygon fill="midnightblue" stroke="midnightblue" points="443.35,-124.28 452.96,-128.73 448.22,-119.26 443.35,-124.28"/>
</g>
<!-- Node403&#45;&gt;Node364 -->
<g id="edge70" class="edge">
<title>Node403&#45;&gt;Node364</title>
<path fill="none" stroke="midnightblue" d="M426.61,-126.15C422.38,-124.99 418.11,-123.91 414,-123 303.1,-98.51 273.21,-104.55 161,-87 149.17,-85.15 136.43,-83.04 124.51,-81.01"/>
<polygon fill="midnightblue" stroke="midnightblue" points="425.7,-129.53 436.28,-128.95 427.65,-122.81 425.7,-129.53"/>
</g>
</g>
</svg>
