<?xml version="1.0" encoding="UTF-8" standalone="no"?>
<!DOCTYPE svg PUBLIC "-//W3C//DTD SVG 1.1//EN"
 "http://www.w3.org/Graphics/SVG/1.1/DTD/svg11.dtd">
<!-- Generated by graphviz version 2.38.0 (20140413.2041)
 -->
<!-- Title: src/versionbits.h Pages: 1 -->
<svg width="2098pt" height="476pt"
 viewBox="0.00 0.00 2097.50 476.00" xmlns="http://www.w3.org/2000/svg" xmlns:xlink="http://www.w3.org/1999/xlink">
<g id="graph0" class="graph" transform="scale(1 1) rotate(0) translate(4 472)">
<title>src/versionbits.h</title>
<polygon fill="white" stroke="none" points="-4,4 -4,-472 2093.5,-472 2093.5,4 -4,4"/>
<!-- Node1 -->
<g id="node1" class="node"><title>Node1</title>
<polygon fill="#bfbfbf" stroke="black" points="504,-448.5 504,-467.5 599,-467.5 599,-448.5 504,-448.5"/>
<text text-anchor="middle" x="551.5" y="-455.5" font-family="Helvetica,sans-Serif" font-size="10.00">src/versionbits.h</text>
</g>
<!-- Node2 -->
<g id="node2" class="node"><title>Node2</title>
<g id="a_node2"><a xlink:href="chain_8h.html" target="_top" xlink:title="chain.h">
<polygon fill="white" stroke="black" points="695,-392.5 695,-411.5 746,-411.5 746,-392.5 695,-392.5"/>
<text text-anchor="middle" x="720.5" y="-399.5" font-family="Helvetica,sans-Serif" font-size="10.00">chain.h</text>
</a>
</g>
</g>
<!-- Node1&#45;&gt;Node2 -->
<g id="edge1" class="edge"><title>Node1&#45;&gt;Node2</title>
<path fill="none" stroke="midnightblue" d="M578.279,-448.444C607.169,-439.212 653.303,-424.471 685.154,-414.294"/>
<polygon fill="midnightblue" stroke="midnightblue" points="686.493,-417.541 694.953,-411.163 684.362,-410.873 686.493,-417.541"/>
</g>
<!-- Node13 -->
<g id="node13" class="node"><title>Node13</title>
<polygon fill="white" stroke="#bfbfbf" points="375.5,-112.5 375.5,-131.5 413.5,-131.5 413.5,-112.5 375.5,-112.5"/>
<text text-anchor="middle" x="394.5" y="-119.5" font-family="Helvetica,sans-Serif" font-size="10.00">map</text>
</g>
<!-- Node1&#45;&gt;Node13 -->
<g id="edge90" class="edge"><title>Node1&#45;&gt;Node13</title>
<path fill="none" stroke="midnightblue" d="M507.978,-448.471C457.905,-435.833 382.5,-406.864 382.5,-347 382.5,-347 382.5,-347 382.5,-233 382.5,-200.758 387.658,-163.512 391.211,-141.681"/>
<polygon fill="midnightblue" stroke="midnightblue" points="394.712,-141.967 392.931,-131.523 387.81,-140.798 394.712,-141.967"/>
</g>
<!-- Node3 -->
<g id="node3" class="node"><title>Node3</title>
<g id="a_node3"><a xlink:href="arith__uint256_8h.html" target="_top" xlink:title="arith_uint256.h">
<polygon fill="white" stroke="black" points="642,-168.5 642,-187.5 731,-187.5 731,-168.5 642,-168.5"/>
<text text-anchor="middle" x="686.5" y="-175.5" font-family="Helvetica,sans-Serif" font-size="10.00">arith_uint256.h</text>
</a>
</g>
</g>
<!-- Node2&#45;&gt;Node3 -->
<g id="edge2" class="edge"><title>Node2&#45;&gt;Node3</title>
<path fill="none" stroke="midnightblue" d="M719.474,-392.499C716.352,-366.936 706.505,-288.551 695.5,-224 694.009,-215.253 692.112,-205.599 690.444,-197.484"/>
<polygon fill="midnightblue" stroke="midnightblue" points="693.849,-196.669 688.372,-187.6 686.998,-198.105 693.849,-196.669"/>
</g>
<!-- Node10 -->
<g id="node10" class="node"><title>Node10</title>
<polygon fill="white" stroke="#bfbfbf" points="714,-112.5 714,-131.5 761,-131.5 761,-112.5 714,-112.5"/>
<text text-anchor="middle" x="737.5" y="-119.5" font-family="Helvetica,sans-Serif" font-size="10.00">vector</text>
</g>
<!-- Node2&#45;&gt;Node10 -->
<g id="edge89" class="edge"><title>Node2&#45;&gt;Node10</title>
<path fill="none" stroke="midnightblue" d="M732.195,-392.468C753.735,-375.665 797.5,-335.99 797.5,-291 797.5,-291 797.5,-291 797.5,-233 797.5,-195.883 770.846,-159.378 753.069,-139.158"/>
<polygon fill="midnightblue" stroke="midnightblue" points="755.428,-136.552 746.097,-131.535 750.263,-141.276 755.428,-136.552"/>
</g>
<!-- Node11 -->
<g id="node11" class="node"><title>Node11</title>
<g id="a_node11"><a xlink:href="params_8h.html" target="_top" xlink:title="consensus/params.h">
<polygon fill="white" stroke="black" points="535.5,-224.5 535.5,-243.5 651.5,-243.5 651.5,-224.5 535.5,-224.5"/>
<text text-anchor="middle" x="593.5" y="-231.5" font-family="Helvetica,sans-Serif" font-size="10.00">consensus/params.h</text>
</a>
</g>
</g>
<!-- Node2&#45;&gt;Node11 -->
<g id="edge10" class="edge"><title>Node2&#45;&gt;Node11</title>
<path fill="none" stroke="midnightblue" d="M708.161,-392.314C696.746,-383.887 679.744,-370.306 667.5,-356 639.061,-322.77 614.461,-277.401 602.064,-252.735"/>
<polygon fill="midnightblue" stroke="midnightblue" points="605.085,-250.948 597.523,-243.528 598.807,-254.045 605.085,-250.948"/>
</g>
<!-- Node12 -->
<g id="node12" class="node"><title>Node12</title>
<g id="a_node12"><a xlink:href="uint256_8h.html" target="_top" xlink:title="uint256.h">
<polygon fill="white" stroke="black" points="562.5,-168.5 562.5,-187.5 624.5,-187.5 624.5,-168.5 562.5,-168.5"/>
<text text-anchor="middle" x="593.5" y="-175.5" font-family="Helvetica,sans-Serif" font-size="10.00">uint256.h</text>
</a>
</g>
</g>
<!-- Node2&#45;&gt;Node12 -->
<g id="edge88" class="edge"><title>Node2&#45;&gt;Node12</title>
<path fill="none" stroke="midnightblue" d="M717.917,-392.325C707.861,-358.705 671.344,-238.173 660.5,-224 650.331,-210.708 635.066,-200.024 621.675,-192.407"/>
<polygon fill="midnightblue" stroke="midnightblue" points="623.254,-189.282 612.789,-187.63 619.939,-195.448 623.254,-189.282"/>
</g>
<!-- Node14 -->
<g id="node14" class="node"><title>Node14</title>
<g id="a_node14"><a xlink:href="flatfile_8h.html" target="_top" xlink:title="flatfile.h">
<polygon fill="white" stroke="black" points="437.5,-224.5 437.5,-243.5 491.5,-243.5 491.5,-224.5 437.5,-224.5"/>
<text text-anchor="middle" x="464.5" y="-231.5" font-family="Helvetica,sans-Serif" font-size="10.00">flatfile.h</text>
</a>
</g>
</g>
<!-- Node2&#45;&gt;Node14 -->
<g id="edge21" class="edge"><title>Node2&#45;&gt;Node14</title>
<path fill="none" stroke="midnightblue" d="M706.637,-392.467C692.095,-383.486 668.602,-368.889 648.5,-356 589.368,-318.085 520.339,-272.269 486.077,-249.421"/>
<polygon fill="midnightblue" stroke="midnightblue" points="487.632,-246.252 477.372,-243.612 483.747,-252.074 487.632,-246.252"/>
</g>
<!-- Node34 -->
<g id="node34" class="node"><title>Node34</title>
<g id="a_node34"><a xlink:href="block_8h.html" target="_top" xlink:title="primitives/block.h">
<polygon fill="white" stroke="black" points="860.5,-336.5 860.5,-355.5 960.5,-355.5 960.5,-336.5 860.5,-336.5"/>
<text text-anchor="middle" x="910.5" y="-343.5" font-family="Helvetica,sans-Serif" font-size="10.00">primitives/block.h</text>
</a>
</g>
</g>
<!-- Node2&#45;&gt;Node34 -->
<g id="edge58" class="edge"><title>Node2&#45;&gt;Node34</title>
<path fill="none" stroke="midnightblue" d="M746.124,-393.717C777.974,-384.665 832.7,-369.111 870.192,-358.456"/>
<polygon fill="midnightblue" stroke="midnightblue" points="871.614,-361.691 880.276,-355.59 869.7,-354.957 871.614,-361.691"/>
</g>
<!-- Node40 -->
<g id="node40" class="node"><title>Node40</title>
<g id="a_node40"><a xlink:href="tinyformat_8h.html" target="_top" xlink:title="tinyformat.h">
<polygon fill="white" stroke="black" points="1886,-168.5 1886,-187.5 1961,-187.5 1961,-168.5 1886,-168.5"/>
<text text-anchor="middle" x="1923.5" y="-175.5" font-family="Helvetica,sans-Serif" font-size="10.00">tinyformat.h</text>
</a>
</g>
</g>
<!-- Node2&#45;&gt;Node40 -->
<g id="edge82" class="edge"><title>Node2&#45;&gt;Node40</title>
<path fill="none" stroke="midnightblue" d="M746.153,-401.218C901.938,-402.029 1720.51,-398.797 1903.5,-244 1916.86,-232.698 1921.45,-212.694 1922.95,-197.853"/>
<polygon fill="midnightblue" stroke="midnightblue" points="1926.46,-197.941 1923.59,-187.741 1919.47,-197.5 1926.46,-197.941"/>
</g>
<!-- Node4 -->
<g id="node4" class="node"><title>Node4</title>
<polygon fill="white" stroke="#bfbfbf" points="903.5,-56.5 903.5,-75.5 959.5,-75.5 959.5,-56.5 903.5,-56.5"/>
<text text-anchor="middle" x="931.5" y="-63.5" font-family="Helvetica,sans-Serif" font-size="10.00">assert.h</text>
</g>
<!-- Node3&#45;&gt;Node4 -->
<g id="edge3" class="edge"><title>Node3&#45;&gt;Node4</title>
<path fill="none" stroke="midnightblue" d="M686.221,-168.401C686.268,-154.416 688.537,-126.817 704.5,-112 731.459,-86.9769 835.982,-74.7282 893.322,-69.7814"/>
<polygon fill="midnightblue" stroke="midnightblue" points="893.774,-73.2561 903.45,-68.9413 893.195,-66.28 893.774,-73.2561"/>
</g>
<!-- Node5 -->
<g id="node5" class="node"><title>Node5</title>
<polygon fill="white" stroke="#bfbfbf" points="570,-112.5 570,-131.5 619,-131.5 619,-112.5 570,-112.5"/>
<text text-anchor="middle" x="594.5" y="-119.5" font-family="Helvetica,sans-Serif" font-size="10.00">cstring</text>
</g>
<!-- Node3&#45;&gt;Node5 -->
<g id="edge4" class="edge"><title>Node3&#45;&gt;Node5</title>
<path fill="none" stroke="midnightblue" d="M671.719,-168.324C657.233,-159.822 634.927,-146.729 618.007,-136.797"/>
<polygon fill="midnightblue" stroke="midnightblue" points="619.641,-133.698 609.245,-131.655 616.097,-139.735 619.641,-133.698"/>
</g>
<!-- Node6 -->
<g id="node6" class="node"><title>Node6</title>
<polygon fill="white" stroke="#bfbfbf" points="861.5,-112.5 861.5,-131.5 903.5,-131.5 903.5,-112.5 861.5,-112.5"/>
<text text-anchor="middle" x="882.5" y="-119.5" font-family="Helvetica,sans-Serif" font-size="10.00">limits</text>
</g>
<!-- Node3&#45;&gt;Node6 -->
<g id="edge5" class="edge"><title>Node3&#45;&gt;Node6</title>
<path fill="none" stroke="midnightblue" d="M719.016,-168.461C750.57,-160.113 800.045,-146.865 851.574,-132.213"/>
<polygon fill="midnightblue" stroke="midnightblue" points="852.56,-135.572 861.215,-129.462 850.639,-128.84 852.56,-135.572"/>
</g>
<!-- Node7 -->
<g id="node7" class="node"><title>Node7</title>
<polygon fill="white" stroke="#bfbfbf" points="779.5,-112.5 779.5,-131.5 843.5,-131.5 843.5,-112.5 779.5,-112.5"/>
<text text-anchor="middle" x="811.5" y="-119.5" font-family="Helvetica,sans-Serif" font-size="10.00">stdexcept</text>
</g>
<!-- Node3&#45;&gt;Node7 -->
<g id="edge6" class="edge"><title>Node3&#45;&gt;Node7</title>
<path fill="none" stroke="midnightblue" d="M706.307,-168.444C726.787,-159.596 758.983,-145.687 782.365,-135.586"/>
<polygon fill="midnightblue" stroke="midnightblue" points="783.994,-138.695 791.786,-131.516 781.218,-132.269 783.994,-138.695"/>
</g>
<!-- Node8 -->
<g id="node8" class="node"><title>Node8</title>
<polygon fill="white" stroke="#bfbfbf" points="1498,-0.5 1498,-19.5 1551,-19.5 1551,-0.5 1498,-0.5"/>
<text text-anchor="middle" x="1524.5" y="-7.5" font-family="Helvetica,sans-Serif" font-size="10.00">stdint.h</text>
</g>
<!-- Node3&#45;&gt;Node8 -->
<g id="edge7" class="edge"><title>Node3&#45;&gt;Node8</title>
<path fill="none" stroke="midnightblue" d="M683.832,-168.337C680.228,-154.752 675.631,-128.308 688.5,-112 747.274,-37.5184 800.963,-71.8992 894.5,-56 1117.48,-18.098 1390.14,-12.0595 1487.66,-11.1438"/>
<polygon fill="midnightblue" stroke="midnightblue" points="1487.9,-14.642 1497.87,-11.061 1487.84,-7.64224 1487.9,-14.642"/>
</g>
<!-- Node9 -->
<g id="node9" class="node"><title>Node9</title>
<polygon fill="white" stroke="#bfbfbf" points="431.5,-112.5 431.5,-131.5 475.5,-131.5 475.5,-112.5 431.5,-112.5"/>
<text text-anchor="middle" x="453.5" y="-119.5" font-family="Helvetica,sans-Serif" font-size="10.00">string</text>
</g>
<!-- Node3&#45;&gt;Node9 -->
<g id="edge8" class="edge"><title>Node3&#45;&gt;Node9</title>
<path fill="none" stroke="midnightblue" d="M649.58,-168.444C604.296,-157.948 528.283,-140.332 485.415,-130.397"/>
<polygon fill="midnightblue" stroke="midnightblue" points="486.055,-126.952 475.523,-128.104 484.475,-133.772 486.055,-126.952"/>
</g>
<!-- Node3&#45;&gt;Node10 -->
<g id="edge9" class="edge"><title>Node3&#45;&gt;Node10</title>
<path fill="none" stroke="midnightblue" d="M694.922,-168.083C702.348,-160.22 713.352,-148.569 722.312,-139.081"/>
<polygon fill="midnightblue" stroke="midnightblue" points="724.913,-141.424 729.235,-131.751 719.824,-136.618 724.913,-141.424"/>
</g>
<!-- Node11&#45;&gt;Node6 -->
<g id="edge18" class="edge"><title>Node11&#45;&gt;Node6</title>
<path fill="none" stroke="midnightblue" d="M625.221,-224.487C655.063,-216.183 700.816,-202.685 739.5,-188 781.236,-172.157 828.068,-149.997 856.413,-136.077"/>
<polygon fill="midnightblue" stroke="midnightblue" points="858.216,-139.091 865.629,-131.521 855.114,-132.815 858.216,-139.091"/>
</g>
<!-- Node11&#45;&gt;Node9 -->
<g id="edge20" class="edge"><title>Node11&#45;&gt;Node9</title>
<path fill="none" stroke="midnightblue" d="M577.468,-224.456C562.223,-216.028 538.946,-202.356 520.5,-188 501.224,-172.998 481.421,-153.131 468.394,-139.326"/>
<polygon fill="midnightblue" stroke="midnightblue" points="470.596,-136.554 461.224,-131.613 465.469,-141.32 470.596,-136.554"/>
</g>
<!-- Node11&#45;&gt;Node12 -->
<g id="edge11" class="edge"><title>Node11&#45;&gt;Node12</title>
<path fill="none" stroke="midnightblue" d="M593.5,-224.083C593.5,-217.006 593.5,-206.861 593.5,-197.986"/>
<polygon fill="midnightblue" stroke="midnightblue" points="597,-197.751 593.5,-187.751 590,-197.751 597,-197.751"/>
</g>
<!-- Node11&#45;&gt;Node13 -->
<g id="edge19" class="edge"><title>Node11&#45;&gt;Node13</title>
<path fill="none" stroke="midnightblue" d="M572.433,-224.351C552.297,-215.847 521.279,-202.122 495.5,-188 466.636,-172.189 434.973,-151.167 414.933,-137.37"/>
<polygon fill="midnightblue" stroke="midnightblue" points="416.806,-134.409 406.595,-131.583 412.815,-140.16 416.806,-134.409"/>
</g>
<!-- Node12&#45;&gt;Node4 -->
<g id="edge12" class="edge"><title>Node12&#45;&gt;Node4</title>
<path fill="none" stroke="midnightblue" d="M582.993,-168.168C568.348,-154.82 545.225,-129.24 560.5,-112 582.333,-87.3592 802.748,-73.5043 893.139,-68.8212"/>
<polygon fill="midnightblue" stroke="midnightblue" points="893.434,-72.3108 903.243,-68.308 893.079,-65.3198 893.434,-72.3108"/>
</g>
<!-- Node12&#45;&gt;Node5 -->
<g id="edge13" class="edge"><title>Node12&#45;&gt;Node5</title>
<path fill="none" stroke="midnightblue" d="M593.665,-168.083C593.796,-161.006 593.984,-150.861 594.148,-141.986"/>
<polygon fill="midnightblue" stroke="midnightblue" points="597.652,-141.814 594.338,-131.751 590.653,-141.685 597.652,-141.814"/>
</g>
<!-- Node12&#45;&gt;Node7 -->
<g id="edge14" class="edge"><title>Node12&#45;&gt;Node7</title>
<path fill="none" stroke="midnightblue" d="M624.734,-169.263C662.773,-159.841 727.178,-143.887 769.524,-133.398"/>
<polygon fill="midnightblue" stroke="midnightblue" points="770.393,-136.788 779.258,-130.986 768.71,-129.994 770.393,-136.788"/>
</g>
<!-- Node12&#45;&gt;Node8 -->
<g id="edge15" class="edge"><title>Node12&#45;&gt;Node8</title>
<path fill="none" stroke="midnightblue" d="M580.819,-168.377C563.789,-155.726 537.225,-131.522 551.5,-112 599.952,-45.7384 646.773,-70.8757 727.5,-56 876.29,-28.5822 1351.02,-15.1994 1487.49,-11.8551"/>
<polygon fill="midnightblue" stroke="midnightblue" points="1487.9,-15.3461 1497.81,-11.6054 1487.73,-8.34816 1487.9,-15.3461"/>
</g>
<!-- Node12&#45;&gt;Node9 -->
<g id="edge16" class="edge"><title>Node12&#45;&gt;Node9</title>
<path fill="none" stroke="midnightblue" d="M571.317,-168.444C548.072,-159.478 511.351,-145.314 485.085,-135.183"/>
<polygon fill="midnightblue" stroke="midnightblue" points="486.169,-131.85 475.58,-131.516 483.65,-138.381 486.169,-131.85"/>
</g>
<!-- Node12&#45;&gt;Node10 -->
<g id="edge17" class="edge"><title>Node12&#45;&gt;Node10</title>
<path fill="none" stroke="midnightblue" d="M616.317,-168.444C640.332,-159.438 678.329,-145.189 705.369,-135.049"/>
<polygon fill="midnightblue" stroke="midnightblue" points="706.655,-138.305 714.79,-131.516 704.197,-131.751 706.655,-138.305"/>
</g>
<!-- Node14&#45;&gt;Node9 -->
<g id="edge22" class="edge"><title>Node14&#45;&gt;Node9</title>
<path fill="none" stroke="midnightblue" d="M463.637,-224.368C461.862,-206.617 457.767,-165.666 455.36,-141.597"/>
<polygon fill="midnightblue" stroke="midnightblue" points="458.837,-141.193 454.359,-131.591 451.872,-141.89 458.837,-141.193"/>
</g>
<!-- Node15 -->
<g id="node15" class="node"><title>Node15</title>
<g id="a_node15"><a xlink:href="fs_8h.html" target="_top" xlink:title="fs.h">
<polygon fill="white" stroke="black" points="282.5,-168.5 282.5,-187.5 316.5,-187.5 316.5,-168.5 282.5,-168.5"/>
<text text-anchor="middle" x="299.5" y="-175.5" font-family="Helvetica,sans-Serif" font-size="10.00">fs.h</text>
</a>
</g>
</g>
<!-- Node14&#45;&gt;Node15 -->
<g id="edge23" class="edge"><title>Node14&#45;&gt;Node15</title>
<path fill="none" stroke="midnightblue" d="M438.355,-224.444C407.821,-214.451 357.56,-198.001 326.615,-187.874"/>
<polygon fill="midnightblue" stroke="midnightblue" points="327.51,-184.484 316.918,-184.7 325.333,-191.137 327.51,-184.484"/>
</g>
<!-- Node19 -->
<g id="node19" class="node"><title>Node19</title>
<g id="a_node19"><a xlink:href="serialize_8h.html" target="_top" xlink:title="serialize.h">
<polygon fill="white" stroke="black" points="982,-168.5 982,-187.5 1047,-187.5 1047,-168.5 982,-168.5"/>
<text text-anchor="middle" x="1014.5" y="-175.5" font-family="Helvetica,sans-Serif" font-size="10.00">serialize.h</text>
</a>
</g>
</g>
<!-- Node14&#45;&gt;Node19 -->
<g id="edge28" class="edge"><title>Node14&#45;&gt;Node19</title>
<path fill="none" stroke="midnightblue" d="M491.621,-228.75C502.453,-227.134 515.051,-225.358 526.5,-224 690.741,-204.52 886.934,-188.677 971.851,-182.18"/>
<polygon fill="midnightblue" stroke="midnightblue" points="972.18,-185.665 981.886,-181.416 971.649,-178.685 972.18,-185.665"/>
</g>
<!-- Node15&#45;&gt;Node9 -->
<g id="edge25" class="edge"><title>Node15&#45;&gt;Node9</title>
<path fill="none" stroke="midnightblue" d="M316.569,-171.015C341.867,-162.144 389.752,-145.353 421.651,-134.168"/>
<polygon fill="midnightblue" stroke="midnightblue" points="423.119,-137.362 431.397,-130.75 420.802,-130.757 423.119,-137.362"/>
</g>
<!-- Node16 -->
<g id="node16" class="node"><title>Node16</title>
<polygon fill="white" stroke="#bfbfbf" points="175,-112.5 175,-131.5 224,-131.5 224,-112.5 175,-112.5"/>
<text text-anchor="middle" x="199.5" y="-119.5" font-family="Helvetica,sans-Serif" font-size="10.00">stdio.h</text>
</g>
<!-- Node15&#45;&gt;Node16 -->
<g id="edge24" class="edge"><title>Node15&#45;&gt;Node16</title>
<path fill="none" stroke="midnightblue" d="M283.433,-168.324C267.542,-159.743 242.993,-146.486 224.542,-136.522"/>
<polygon fill="midnightblue" stroke="midnightblue" points="225.989,-133.326 215.527,-131.655 222.663,-139.486 225.989,-133.326"/>
</g>
<!-- Node17 -->
<g id="node17" class="node"><title>Node17</title>
<polygon fill="white" stroke="#bfbfbf" points="241.5,-112.5 241.5,-131.5 357.5,-131.5 357.5,-112.5 241.5,-112.5"/>
<text text-anchor="middle" x="299.5" y="-119.5" font-family="Helvetica,sans-Serif" font-size="10.00">boost/filesystem.hpp</text>
</g>
<!-- Node15&#45;&gt;Node17 -->
<g id="edge26" class="edge"><title>Node15&#45;&gt;Node17</title>
<path fill="none" stroke="midnightblue" d="M299.5,-168.083C299.5,-161.006 299.5,-150.861 299.5,-141.986"/>
<polygon fill="midnightblue" stroke="midnightblue" points="303,-141.751 299.5,-131.751 296,-141.751 303,-141.751"/>
</g>
<!-- Node18 -->
<g id="node18" class="node"><title>Node18</title>
<polygon fill="white" stroke="#bfbfbf" points="0,-112.5 0,-131.5 157,-131.5 157,-112.5 0,-112.5"/>
<text text-anchor="middle" x="78.5" y="-119.5" font-family="Helvetica,sans-Serif" font-size="10.00">boost/filesystem/fstream.hpp</text>
</g>
<!-- Node15&#45;&gt;Node18 -->
<g id="edge27" class="edge"><title>Node15&#45;&gt;Node18</title>
<path fill="none" stroke="midnightblue" d="M282.159,-172.763C248.339,-164.499 172.609,-145.995 123.63,-134.027"/>
<polygon fill="midnightblue" stroke="midnightblue" points="124.155,-130.553 113.61,-131.579 122.493,-137.352 124.155,-130.553"/>
</g>
<!-- Node19&#45;&gt;Node4 -->
<g id="edge34" class="edge"><title>Node19&#45;&gt;Node4</title>
<path fill="none" stroke="midnightblue" d="M1007.99,-168.368C994.229,-150.135 962.003,-107.426 944.082,-83.6752"/>
<polygon fill="midnightblue" stroke="midnightblue" points="946.8,-81.4659 937.983,-75.5914 941.212,-85.6821 946.8,-81.4659"/>
</g>
<!-- Node19&#45;&gt;Node6 -->
<g id="edge36" class="edge"><title>Node19&#45;&gt;Node6</title>
<path fill="none" stroke="midnightblue" d="M993.584,-168.444C971.764,-159.517 937.35,-145.439 912.608,-135.317"/>
<polygon fill="midnightblue" stroke="midnightblue" points="913.899,-132.063 903.318,-131.516 911.248,-138.542 913.899,-132.063"/>
</g>
<!-- Node19&#45;&gt;Node8 -->
<g id="edge40" class="edge"><title>Node19&#45;&gt;Node8</title>
<path fill="none" stroke="midnightblue" d="M1047.17,-169.817C1049.99,-169.201 1052.79,-168.589 1055.5,-168 1129.69,-151.86 1174.8,-191.075 1222.5,-132 1269.45,-73.852 1022.34,-111.402 1072.5,-56 1100.2,-25.405 1384.85,-14.7561 1487.69,-11.8906"/>
<polygon fill="midnightblue" stroke="midnightblue" points="1488,-15.3836 1497.91,-11.6151 1487.81,-8.3861 1488,-15.3836"/>
</g>
<!-- Node19&#45;&gt;Node9 -->
<g id="edge41" class="edge"><title>Node19&#45;&gt;Node9</title>
<path fill="none" stroke="midnightblue" d="M981.913,-173.863C882.524,-164.296 584.026,-135.564 485.468,-126.077"/>
<polygon fill="midnightblue" stroke="midnightblue" points="485.799,-122.593 475.51,-125.119 485.129,-129.561 485.799,-122.593"/>
</g>
<!-- Node19&#45;&gt;Node10 -->
<g id="edge44" class="edge"><title>Node19&#45;&gt;Node10</title>
<path fill="none" stroke="midnightblue" d="M981.958,-171.891C936.849,-164.614 852.589,-150.324 771.148,-131.985"/>
<polygon fill="midnightblue" stroke="midnightblue" points="771.76,-128.535 761.233,-129.728 770.207,-135.36 771.76,-128.535"/>
</g>
<!-- Node19&#45;&gt;Node13 -->
<g id="edge37" class="edge"><title>Node19&#45;&gt;Node13</title>
<path fill="none" stroke="midnightblue" d="M981.802,-175.529C877.036,-170.66 549.693,-154.209 423.758,-131.713"/>
<polygon fill="midnightblue" stroke="midnightblue" points="424.099,-128.216 413.624,-129.802 422.802,-135.095 424.099,-128.216"/>
</g>
<!-- Node20 -->
<g id="node20" class="node"><title>Node20</title>
<g id="a_node20"><a xlink:href="endian_8h.html" target="_top" xlink:title="compat/endian.h">
<polygon fill="white" stroke="black" points="1503.5,-112.5 1503.5,-131.5 1601.5,-131.5 1601.5,-112.5 1503.5,-112.5"/>
<text text-anchor="middle" x="1552.5" y="-119.5" font-family="Helvetica,sans-Serif" font-size="10.00">compat/endian.h</text>
</a>
</g>
</g>
<!-- Node19&#45;&gt;Node20 -->
<g id="edge29" class="edge"><title>Node19&#45;&gt;Node20</title>
<path fill="none" stroke="midnightblue" d="M1047.1,-169.454C1049.94,-168.917 1052.76,-168.422 1055.5,-168 1231.91,-140.81 1277.74,-148.245 1455.5,-132 1467.61,-130.894 1480.56,-129.699 1492.93,-128.553"/>
<polygon fill="midnightblue" stroke="midnightblue" points="1493.52,-132.013 1503.16,-127.605 1492.88,-125.043 1493.52,-132.013"/>
</g>
<!-- Node22 -->
<g id="node22" class="node"><title>Node22</title>
<polygon fill="white" stroke="#bfbfbf" points="1237.5,-56.5 1237.5,-75.5 1299.5,-75.5 1299.5,-56.5 1237.5,-56.5"/>
<text text-anchor="middle" x="1268.5" y="-63.5" font-family="Helvetica,sans-Serif" font-size="10.00">algorithm</text>
</g>
<!-- Node19&#45;&gt;Node22 -->
<g id="edge33" class="edge"><title>Node19&#45;&gt;Node22</title>
<path fill="none" stroke="midnightblue" d="M1047.12,-169.578C1049.95,-169.014 1052.77,-168.479 1055.5,-168 1115.55,-157.454 1287.31,-177.855 1327.5,-132 1343.3,-113.968 1317.4,-93.5506 1295.08,-80.4898"/>
<polygon fill="midnightblue" stroke="midnightblue" points="1296.62,-77.3405 1286.18,-75.5357 1293.22,-83.4571 1296.62,-77.3405"/>
</g>
<!-- Node23 -->
<g id="node23" class="node"><title>Node23</title>
<polygon fill="white" stroke="#bfbfbf" points="997.5,-112.5 997.5,-131.5 1027.5,-131.5 1027.5,-112.5 997.5,-112.5"/>
<text text-anchor="middle" x="1012.5" y="-119.5" font-family="Helvetica,sans-Serif" font-size="10.00">ios</text>
</g>
<!-- Node19&#45;&gt;Node23 -->
<g id="edge35" class="edge"><title>Node19&#45;&gt;Node23</title>
<path fill="none" stroke="midnightblue" d="M1014.17,-168.083C1013.91,-161.006 1013.53,-150.861 1013.2,-141.986"/>
<polygon fill="midnightblue" stroke="midnightblue" points="1016.69,-141.615 1012.82,-131.751 1009.7,-141.874 1016.69,-141.615"/>
</g>
<!-- Node24 -->
<g id="node24" class="node"><title>Node24</title>
<polygon fill="white" stroke="#bfbfbf" points="1046,-112.5 1046,-131.5 1103,-131.5 1103,-112.5 1046,-112.5"/>
<text text-anchor="middle" x="1074.5" y="-119.5" font-family="Helvetica,sans-Serif" font-size="10.00">memory</text>
</g>
<!-- Node19&#45;&gt;Node24 -->
<g id="edge38" class="edge"><title>Node19&#45;&gt;Node24</title>
<path fill="none" stroke="midnightblue" d="M1024.14,-168.324C1033.01,-160.341 1046.37,-148.313 1057.11,-138.653"/>
<polygon fill="midnightblue" stroke="midnightblue" points="1059.59,-141.125 1064.68,-131.834 1054.91,-135.922 1059.59,-141.125"/>
</g>
<!-- Node25 -->
<g id="node25" class="node"><title>Node25</title>
<polygon fill="white" stroke="#bfbfbf" points="1121.5,-112.5 1121.5,-131.5 1153.5,-131.5 1153.5,-112.5 1121.5,-112.5"/>
<text text-anchor="middle" x="1137.5" y="-119.5" font-family="Helvetica,sans-Serif" font-size="10.00">set</text>
</g>
<!-- Node19&#45;&gt;Node25 -->
<g id="edge39" class="edge"><title>Node19&#45;&gt;Node25</title>
<path fill="none" stroke="midnightblue" d="M1033.99,-168.444C1055.09,-159.18 1088.83,-144.367 1112.02,-134.187"/>
<polygon fill="midnightblue" stroke="midnightblue" points="1113.49,-137.362 1121.24,-130.137 1110.68,-130.952 1113.49,-137.362"/>
</g>
<!-- Node26 -->
<g id="node26" class="node"><title>Node26</title>
<polygon fill="white" stroke="#bfbfbf" points="1700,-56.5 1700,-75.5 1753,-75.5 1753,-56.5 1700,-56.5"/>
<text text-anchor="middle" x="1726.5" y="-63.5" font-family="Helvetica,sans-Serif" font-size="10.00">string.h</text>
</g>
<!-- Node19&#45;&gt;Node26 -->
<g id="edge42" class="edge"><title>Node19&#45;&gt;Node26</title>
<path fill="none" stroke="midnightblue" d="M1047.09,-169.379C1049.93,-168.858 1052.76,-168.388 1055.5,-168 1300.25,-133.402 1373.48,-202.153 1610.5,-132 1629.69,-126.32 1676.1,-98.5133 1704.06,-81.1605"/>
<polygon fill="midnightblue" stroke="midnightblue" points="1706.14,-83.9891 1712.76,-75.7234 1702.43,-78.0518 1706.14,-83.9891"/>
</g>
<!-- Node27 -->
<g id="node27" class="node"><title>Node27</title>
<polygon fill="white" stroke="#bfbfbf" points="1171.5,-112.5 1171.5,-131.5 1213.5,-131.5 1213.5,-112.5 1171.5,-112.5"/>
<text text-anchor="middle" x="1192.5" y="-119.5" font-family="Helvetica,sans-Serif" font-size="10.00">utility</text>
</g>
<!-- Node19&#45;&gt;Node27 -->
<g id="edge43" class="edge"><title>Node19&#45;&gt;Node27</title>
<path fill="none" stroke="midnightblue" d="M1042.7,-168.444C1075.13,-158.606 1128.18,-142.512 1161.67,-132.352"/>
<polygon fill="midnightblue" stroke="midnightblue" points="1162.84,-135.655 1171.4,-129.403 1160.81,-128.956 1162.84,-135.655"/>
</g>
<!-- Node28 -->
<g id="node28" class="node"><title>Node28</title>
<g id="a_node28"><a xlink:href="prevector_8h.html" target="_top" xlink:title="prevector.h">
<polygon fill="white" stroke="black" points="1376,-112.5 1376,-131.5 1447,-131.5 1447,-112.5 1376,-112.5"/>
<text text-anchor="middle" x="1411.5" y="-119.5" font-family="Helvetica,sans-Serif" font-size="10.00">prevector.h</text>
</a>
</g>
</g>
<!-- Node19&#45;&gt;Node28 -->
<g id="edge45" class="edge"><title>Node19&#45;&gt;Node28</title>
<path fill="none" stroke="midnightblue" d="M1047.12,-169.535C1049.95,-168.98 1052.77,-168.459 1055.5,-168 1190.54,-145.292 1226.05,-152.139 1361.5,-132 1362.94,-131.785 1364.41,-131.56 1365.89,-131.328"/>
<polygon fill="midnightblue" stroke="midnightblue" points="1366.46,-134.781 1375.76,-129.706 1365.33,-127.874 1366.46,-134.781"/>
</g>
<!-- Node33 -->
<g id="node33" class="node"><title>Node33</title>
<g id="a_node33"><a xlink:href="span_8h.html" target="_top" xlink:title="span.h">
<polygon fill="white" stroke="black" points="1270,-112.5 1270,-131.5 1319,-131.5 1319,-112.5 1270,-112.5"/>
<text text-anchor="middle" x="1294.5" y="-119.5" font-family="Helvetica,sans-Serif" font-size="10.00">span.h</text>
</a>
</g>
</g>
<!-- Node19&#45;&gt;Node33 -->
<g id="edge54" class="edge"><title>Node19&#45;&gt;Node33</title>
<path fill="none" stroke="midnightblue" d="M1047.15,-169.716C1049.97,-169.122 1052.78,-168.542 1055.5,-168 1144.07,-150.314 1167.03,-150.16 1255.5,-132 1256.95,-131.703 1258.42,-131.393 1259.91,-131.075"/>
<polygon fill="midnightblue" stroke="midnightblue" points="1260.77,-134.469 1269.78,-128.895 1259.26,-127.634 1260.77,-134.469"/>
</g>
<!-- Node20&#45;&gt;Node8 -->
<g id="edge32" class="edge"><title>Node20&#45;&gt;Node8</title>
<path fill="none" stroke="midnightblue" d="M1550.3,-112.368C1545.78,-94.617 1535.36,-53.6664 1529.23,-29.5974"/>
<polygon fill="midnightblue" stroke="midnightblue" points="1532.55,-28.419 1526.69,-19.5914 1525.76,-30.1458 1532.55,-28.419"/>
</g>
<!-- Node21 -->
<g id="node21" class="node"><title>Node21</title>
<g id="a_node21"><a xlink:href="byteswap_8h.html" target="_top" xlink:title="compat/byteswap.h">
<polygon fill="white" stroke="black" points="1571.5,-56.5 1571.5,-75.5 1681.5,-75.5 1681.5,-56.5 1571.5,-56.5"/>
<text text-anchor="middle" x="1626.5" y="-63.5" font-family="Helvetica,sans-Serif" font-size="10.00">compat/byteswap.h</text>
</a>
</g>
</g>
<!-- Node20&#45;&gt;Node21 -->
<g id="edge30" class="edge"><title>Node20&#45;&gt;Node21</title>
<path fill="none" stroke="midnightblue" d="M1564.39,-112.324C1575.65,-104.107 1592.79,-91.6017 1606.21,-81.8069"/>
<polygon fill="midnightblue" stroke="midnightblue" points="1608.38,-84.5559 1614.39,-75.8339 1604.25,-78.9014 1608.38,-84.5559"/>
</g>
<!-- Node21&#45;&gt;Node8 -->
<g id="edge31" class="edge"><title>Node21&#45;&gt;Node8</title>
<path fill="none" stroke="midnightblue" d="M1610.11,-56.324C1593.83,-47.7034 1568.63,-34.3643 1549.78,-24.3855"/>
<polygon fill="midnightblue" stroke="midnightblue" points="1551.32,-21.2402 1540.85,-19.6545 1548.05,-27.4267 1551.32,-21.2402"/>
</g>
<!-- Node28&#45;&gt;Node4 -->
<g id="edge46" class="edge"><title>Node28&#45;&gt;Node4</title>
<path fill="none" stroke="midnightblue" d="M1375.81,-116.985C1287.72,-107.075 1060.53,-81.5153 969.775,-71.3059"/>
<polygon fill="midnightblue" stroke="midnightblue" points="969.983,-67.8074 959.654,-70.1674 969.2,-74.7635 969.983,-67.8074"/>
</g>
<!-- Node28&#45;&gt;Node8 -->
<g id="edge48" class="edge"><title>Node28&#45;&gt;Node8</title>
<path fill="none" stroke="midnightblue" d="M1420.37,-112.368C1439.35,-93.8941 1484.14,-50.2926 1508.33,-26.7436"/>
<polygon fill="midnightblue" stroke="midnightblue" points="1510.95,-29.0747 1515.67,-19.5914 1506.07,-24.0588 1510.95,-29.0747"/>
</g>
<!-- Node28&#45;&gt;Node22 -->
<g id="edge50" class="edge"><title>Node28&#45;&gt;Node22</title>
<path fill="none" stroke="midnightblue" d="M1388.84,-112.444C1365.1,-103.478 1327.59,-89.314 1300.76,-79.1827"/>
<polygon fill="midnightblue" stroke="midnightblue" points="1301.64,-75.7749 1291.05,-75.5164 1299.17,-82.3235 1301.64,-75.7749"/>
</g>
<!-- Node28&#45;&gt;Node26 -->
<g id="edge49" class="edge"><title>Node28&#45;&gt;Node26</title>
<path fill="none" stroke="midnightblue" d="M1447.35,-116.213C1498.81,-109.125 1596.76,-94.8273 1689.95,-75.9584"/>
<polygon fill="midnightblue" stroke="midnightblue" points="1690.73,-79.3717 1699.82,-73.9381 1689.32,-72.5138 1690.73,-79.3717"/>
</g>
<!-- Node29 -->
<g id="node29" class="node"><title>Node29</title>
<polygon fill="white" stroke="#bfbfbf" points="1318,-56.5 1318,-75.5 1369,-75.5 1369,-56.5 1318,-56.5"/>
<text text-anchor="middle" x="1343.5" y="-63.5" font-family="Helvetica,sans-Serif" font-size="10.00">stdlib.h</text>
</g>
<!-- Node28&#45;&gt;Node29 -->
<g id="edge47" class="edge"><title>Node28&#45;&gt;Node29</title>
<path fill="none" stroke="midnightblue" d="M1400.57,-112.324C1390.33,-104.185 1374.78,-91.8395 1362.5,-82.0874"/>
<polygon fill="midnightblue" stroke="midnightblue" points="1364.63,-79.3119 1354.62,-75.8339 1360.28,-84.7937 1364.63,-79.3119"/>
</g>
<!-- Node30 -->
<g id="node30" class="node"><title>Node30</title>
<polygon fill="white" stroke="#bfbfbf" points="1167.5,-56.5 1167.5,-75.5 1219.5,-75.5 1219.5,-56.5 1167.5,-56.5"/>
<text text-anchor="middle" x="1193.5" y="-63.5" font-family="Helvetica,sans-Serif" font-size="10.00">cstddef</text>
</g>
<!-- Node28&#45;&gt;Node30 -->
<g id="edge51" class="edge"><title>Node28&#45;&gt;Node30</title>
<path fill="none" stroke="midnightblue" d="M1376.39,-112.483C1341.55,-104.005 1286.35,-90.5067 1229.71,-76.286"/>
<polygon fill="midnightblue" stroke="midnightblue" points="1230.42,-72.8555 1219.87,-73.8115 1228.71,-79.6442 1230.42,-72.8555"/>
</g>
<!-- Node31 -->
<g id="node31" class="node"><title>Node31</title>
<polygon fill="white" stroke="#bfbfbf" points="1387.5,-56.5 1387.5,-75.5 1439.5,-75.5 1439.5,-56.5 1387.5,-56.5"/>
<text text-anchor="middle" x="1413.5" y="-63.5" font-family="Helvetica,sans-Serif" font-size="10.00">iterator</text>
</g>
<!-- Node28&#45;&gt;Node31 -->
<g id="edge52" class="edge"><title>Node28&#45;&gt;Node31</title>
<path fill="none" stroke="midnightblue" d="M1411.83,-112.083C1412.09,-105.006 1412.47,-94.8611 1412.8,-85.9865"/>
<polygon fill="midnightblue" stroke="midnightblue" points="1416.3,-85.8738 1413.18,-75.7511 1409.31,-85.6147 1416.3,-85.8738"/>
</g>
<!-- Node32 -->
<g id="node32" class="node"><title>Node32</title>
<polygon fill="white" stroke="#bfbfbf" points="1081.5,-56.5 1081.5,-75.5 1149.5,-75.5 1149.5,-56.5 1081.5,-56.5"/>
<text text-anchor="middle" x="1115.5" y="-63.5" font-family="Helvetica,sans-Serif" font-size="10.00">type_traits</text>
</g>
<!-- Node28&#45;&gt;Node32 -->
<g id="edge53" class="edge"><title>Node28&#45;&gt;Node32</title>
<path fill="none" stroke="midnightblue" d="M1375.82,-115.005C1328.65,-107 1242.68,-92.1487 1159.6,-76.169"/>
<polygon fill="midnightblue" stroke="midnightblue" points="1160.23,-72.7262 1149.75,-74.2659 1158.9,-79.5991 1160.23,-72.7262"/>
</g>
<!-- Node33&#45;&gt;Node22 -->
<g id="edge57" class="edge"><title>Node33&#45;&gt;Node22</title>
<path fill="none" stroke="midnightblue" d="M1290.21,-112.083C1286.65,-104.691 1281.48,-93.9533 1277.08,-84.8111"/>
<polygon fill="midnightblue" stroke="midnightblue" points="1280.21,-83.2427 1272.71,-75.7511 1273.9,-86.2795 1280.21,-83.2427"/>
</g>
<!-- Node33&#45;&gt;Node30 -->
<g id="edge56" class="edge"><title>Node33&#45;&gt;Node30</title>
<path fill="none" stroke="midnightblue" d="M1278.27,-112.324C1262.15,-103.703 1237.2,-90.3643 1218.54,-80.3855"/>
<polygon fill="midnightblue" stroke="midnightblue" points="1220.16,-77.283 1209.69,-75.6545 1216.86,-83.456 1220.16,-77.283"/>
</g>
<!-- Node33&#45;&gt;Node32 -->
<g id="edge55" class="edge"><title>Node33&#45;&gt;Node32</title>
<path fill="none" stroke="midnightblue" d="M1269.99,-113.605C1240.01,-104.561 1188.92,-89.1503 1153.76,-78.5414"/>
<polygon fill="midnightblue" stroke="midnightblue" points="1154.43,-75.0883 1143.84,-75.5509 1152.41,-81.79 1154.43,-75.0883"/>
</g>
<!-- Node34&#45;&gt;Node12 -->
<g id="edge81" class="edge"><title>Node34&#45;&gt;Node12</title>
<path fill="none" stroke="midnightblue" d="M896.417,-336.441C862.445,-315.936 773.062,-262.82 695.5,-224 671.85,-212.163 644.387,-200.142 623.92,-191.506"/>
<polygon fill="midnightblue" stroke="midnightblue" points="625.058,-188.187 614.482,-187.553 622.354,-194.644 625.058,-188.187"/>
</g>
<!-- Node34&#45;&gt;Node19 -->
<g id="edge80" class="edge"><title>Node34&#45;&gt;Node19</title>
<path fill="none" stroke="midnightblue" d="M909.703,-336.425C908.186,-315.193 907.037,-259.339 932.5,-224 943.192,-209.162 960.347,-198.669 976.209,-191.571"/>
<polygon fill="midnightblue" stroke="midnightblue" points="977.947,-194.64 985.849,-187.582 975.271,-188.172 977.947,-194.64"/>
</g>
<!-- Node35 -->
<g id="node35" class="node"><title>Node35</title>
<g id="a_node35"><a xlink:href="primitives_2transaction_8h.html" target="_top" xlink:title="primitives/transaction.h">
<polygon fill="white" stroke="black" points="965,-280.5 965,-299.5 1094,-299.5 1094,-280.5 965,-280.5"/>
<text text-anchor="middle" x="1029.5" y="-287.5" font-family="Helvetica,sans-Serif" font-size="10.00">primitives/transaction.h</text>
</a>
</g>
</g>
<!-- Node34&#45;&gt;Node35 -->
<g id="edge59" class="edge"><title>Node34&#45;&gt;Node35</title>
<path fill="none" stroke="midnightblue" d="M929.356,-336.444C948.766,-327.636 979.23,-313.812 1001.46,-303.722"/>
<polygon fill="midnightblue" stroke="midnightblue" points="1003.07,-306.836 1010.73,-299.516 1000.18,-300.462 1003.07,-306.836"/>
</g>
<!-- Node35&#45;&gt;Node8 -->
<g id="edge60" class="edge"><title>Node35&#45;&gt;Node8</title>
<path fill="none" stroke="midnightblue" d="M1094.24,-284.107C1239.8,-272.316 1588.37,-239.449 1693.5,-188 1725.97,-172.108 1730.98,-161.051 1752.5,-132 1773.93,-103.074 1803.65,-83.5694 1780.5,-56 1752.95,-23.18 1625.37,-14.2896 1561.35,-11.8867"/>
<polygon fill="midnightblue" stroke="midnightblue" points="1561.39,-8.38616 1551.28,-11.5427 1561.15,-15.3821 1561.39,-8.38616"/>
</g>
<!-- Node35&#45;&gt;Node12 -->
<g id="edge79" class="edge"><title>Node35&#45;&gt;Node12</title>
<path fill="none" stroke="midnightblue" d="M995.651,-280.46C916.631,-260.524 720.23,-210.973 634.557,-189.358"/>
<polygon fill="midnightblue" stroke="midnightblue" points="635.226,-185.918 624.674,-186.865 633.514,-192.705 635.226,-185.918"/>
</g>
<!-- Node35&#45;&gt;Node19 -->
<g id="edge78" class="edge"><title>Node35&#45;&gt;Node19</title>
<path fill="none" stroke="midnightblue" d="M1030.95,-280.08C1032.73,-267.472 1035.11,-243.769 1031.5,-224 1029.81,-214.757 1026.33,-204.948 1022.95,-196.855"/>
<polygon fill="midnightblue" stroke="midnightblue" points="1026.13,-195.405 1018.87,-187.693 1019.74,-198.252 1026.13,-195.405"/>
</g>
<!-- Node36 -->
<g id="node36" class="node"><title>Node36</title>
<g id="a_node36"><a xlink:href="amount_8h.html" target="_top" xlink:title="amount.h">
<polygon fill="white" stroke="black" points="1832,-224.5 1832,-243.5 1895,-243.5 1895,-224.5 1832,-224.5"/>
<text text-anchor="middle" x="1863.5" y="-231.5" font-family="Helvetica,sans-Serif" font-size="10.00">amount.h</text>
</a>
</g>
</g>
<!-- Node35&#45;&gt;Node36 -->
<g id="edge61" class="edge"><title>Node35&#45;&gt;Node36</title>
<path fill="none" stroke="midnightblue" d="M1094.12,-288.283C1229.04,-286.134 1550.34,-277.604 1817.5,-244 1818.96,-243.816 1820.45,-243.613 1821.95,-243.394"/>
<polygon fill="midnightblue" stroke="midnightblue" points="1822.61,-246.832 1831.92,-241.766 1821.48,-239.924 1822.61,-246.832"/>
</g>
<!-- Node37 -->
<g id="node37" class="node"><title>Node37</title>
<g id="a_node37"><a xlink:href="script_8h.html" target="_top" xlink:title="script/script.h">
<polygon fill="white" stroke="black" points="942,-224.5 942,-243.5 1023,-243.5 1023,-224.5 942,-224.5"/>
<text text-anchor="middle" x="982.5" y="-231.5" font-family="Helvetica,sans-Serif" font-size="10.00">script/script.h</text>
</a>
</g>
</g>
<!-- Node35&#45;&gt;Node37 -->
<g id="edge63" class="edge"><title>Node35&#45;&gt;Node37</title>
<path fill="none" stroke="midnightblue" d="M1021.74,-280.083C1014.96,-272.298 1004.96,-260.801 996.745,-251.367"/>
<polygon fill="midnightblue" stroke="midnightblue" points="999.322,-248.996 990.117,-243.751 994.042,-253.592 999.322,-248.996"/>
</g>
<!-- Node36&#45;&gt;Node8 -->
<g id="edge62" class="edge"><title>Node36&#45;&gt;Node8</title>
<path fill="none" stroke="midnightblue" d="M1865.13,-224.438C1870.01,-195.844 1881.43,-102.828 1833.5,-56 1795.52,-18.8982 1634.77,-12.2276 1561.35,-11.1409"/>
<polygon fill="midnightblue" stroke="midnightblue" points="1561.22,-7.63917 1551.18,-11.0182 1561.13,-14.6387 1561.22,-7.63917"/>
</g>
<!-- Node37&#45;&gt;Node4 -->
<g id="edge70" class="edge"><title>Node37&#45;&gt;Node4</title>
<path fill="none" stroke="midnightblue" d="M979.758,-224.075C971.73,-197.945 948.155,-121.211 937.207,-85.577"/>
<polygon fill="midnightblue" stroke="midnightblue" points="940.415,-84.0992 934.132,-75.5681 933.724,-86.1551 940.415,-84.0992"/>
</g>
<!-- Node37&#45;&gt;Node6 -->
<g id="edge72" class="edge"><title>Node37&#45;&gt;Node6</title>
<path fill="none" stroke="midnightblue" d="M972.802,-224.364C963.056,-215.538 947.762,-201.279 935.5,-188 921.053,-172.355 905.816,-153.371 895.405,-139.97"/>
<polygon fill="midnightblue" stroke="midnightblue" points="897.91,-137.486 889.039,-131.694 892.362,-141.754 897.91,-137.486"/>
</g>
<!-- Node37&#45;&gt;Node7 -->
<g id="edge73" class="edge"><title>Node37&#45;&gt;Node7</title>
<path fill="none" stroke="midnightblue" d="M969.082,-224.368C939.738,-205.492 869.617,-160.385 833.632,-137.237"/>
<polygon fill="midnightblue" stroke="midnightblue" points="835.159,-134.058 824.856,-131.591 831.372,-139.945 835.159,-134.058"/>
</g>
<!-- Node37&#45;&gt;Node8 -->
<g id="edge74" class="edge"><title>Node37&#45;&gt;Node8</title>
<path fill="none" stroke="midnightblue" d="M1023.11,-228.684C1124.66,-217.22 1386.42,-183.336 1455.5,-132 1490.64,-105.885 1510.59,-56.186 1519.26,-29.3246"/>
<polygon fill="midnightblue" stroke="midnightblue" points="1522.64,-30.23 1522.21,-19.644 1515.94,-28.1892 1522.64,-30.23"/>
</g>
<!-- Node37&#45;&gt;Node9 -->
<g id="edge76" class="edge"><title>Node37&#45;&gt;Node9</title>
<path fill="none" stroke="midnightblue" d="M941.773,-231.158C849.006,-226.573 624.531,-213.162 553.5,-188 549.185,-186.471 503.104,-156.032 475.025,-137.357"/>
<polygon fill="midnightblue" stroke="midnightblue" points="476.88,-134.388 466.617,-131.759 473.001,-140.214 476.88,-134.388"/>
</g>
<!-- Node37&#45;&gt;Node10 -->
<g id="edge77" class="edge"><title>Node37&#45;&gt;Node10</title>
<path fill="none" stroke="midnightblue" d="M962.111,-224.346C941.098,-215.388 907.419,-200.92 878.5,-188 838.873,-170.296 793.315,-149.148 764.963,-135.893"/>
<polygon fill="midnightblue" stroke="midnightblue" points="766.23,-132.622 755.69,-131.552 763.262,-138.962 766.23,-132.622"/>
</g>
<!-- Node37&#45;&gt;Node19 -->
<g id="edge69" class="edge"><title>Node37&#45;&gt;Node19</title>
<path fill="none" stroke="midnightblue" d="M987.784,-224.083C992.211,-216.613 998.663,-205.724 1004.12,-196.52"/>
<polygon fill="midnightblue" stroke="midnightblue" points="1007.23,-198.138 1009.31,-187.751 1001.21,-194.57 1007.23,-198.138"/>
</g>
<!-- Node37&#45;&gt;Node26 -->
<g id="edge75" class="edge"><title>Node37&#45;&gt;Node26</title>
<path fill="none" stroke="midnightblue" d="M1023.12,-232.697C1162.4,-231.336 1615.05,-224.149 1668.5,-188 1703.61,-164.256 1718.11,-113.148 1723.56,-85.5623"/>
<polygon fill="midnightblue" stroke="midnightblue" points="1727.02,-86.0916 1725.33,-75.6328 1720.13,-84.8641 1727.02,-86.0916"/>
</g>
<!-- Node37&#45;&gt;Node28 -->
<g id="edge68" class="edge"><title>Node37&#45;&gt;Node28</title>
<path fill="none" stroke="midnightblue" d="M1015.81,-224.46C1092.71,-204.742 1282.59,-156.055 1368.29,-134.078"/>
<polygon fill="midnightblue" stroke="midnightblue" points="1369.4,-137.409 1378.22,-131.535 1367.66,-130.628 1369.4,-137.409"/>
</g>
<!-- Node38 -->
<g id="node38" class="node"><title>Node38</title>
<g id="a_node38"><a xlink:href="common_8h.html" target="_top" xlink:title="crypto/common.h">
<polygon fill="white" stroke="black" points="1559,-168.5 1559,-187.5 1660,-187.5 1660,-168.5 1559,-168.5"/>
<text text-anchor="middle" x="1609.5" y="-175.5" font-family="Helvetica,sans-Serif" font-size="10.00">crypto/common.h</text>
</a>
</g>
</g>
<!-- Node37&#45;&gt;Node38 -->
<g id="edge64" class="edge"><title>Node37&#45;&gt;Node38</title>
<path fill="none" stroke="midnightblue" d="M1023.16,-229.499C1130.32,-220.269 1420.98,-195.236 1548.33,-184.268"/>
<polygon fill="midnightblue" stroke="midnightblue" points="1549.01,-187.722 1558.68,-183.377 1548.41,-180.748 1549.01,-187.722"/>
</g>
<!-- Node39 -->
<g id="node39" class="node"><title>Node39</title>
<polygon fill="white" stroke="#bfbfbf" points="1065,-168.5 1065,-187.5 1112,-187.5 1112,-168.5 1065,-168.5"/>
<text text-anchor="middle" x="1088.5" y="-175.5" font-family="Helvetica,sans-Serif" font-size="10.00">climits</text>
</g>
<!-- Node37&#45;&gt;Node39 -->
<g id="edge71" class="edge"><title>Node37&#45;&gt;Node39</title>
<path fill="none" stroke="midnightblue" d="M999.531,-224.324C1016.53,-215.664 1042.88,-202.242 1062.49,-192.249"/>
<polygon fill="midnightblue" stroke="midnightblue" points="1064.19,-195.312 1071.51,-187.655 1061.01,-189.075 1064.19,-195.312"/>
</g>
<!-- Node38&#45;&gt;Node8 -->
<g id="edge65" class="edge"><title>Node38&#45;&gt;Node8</title>
<path fill="none" stroke="midnightblue" d="M1638,-168.43C1692.73,-150.573 1803.55,-106.79 1761.5,-56 1736.56,-25.873 1621.84,-15.753 1561.64,-12.4829"/>
<polygon fill="midnightblue" stroke="midnightblue" points="1561.58,-8.97548 1551.41,-11.9651 1561.22,-15.9665 1561.58,-8.97548"/>
</g>
<!-- Node38&#45;&gt;Node20 -->
<g id="edge67" class="edge"><title>Node38&#45;&gt;Node20</title>
<path fill="none" stroke="midnightblue" d="M1600.34,-168.324C1592,-160.42 1579.47,-148.548 1569.32,-138.938"/>
<polygon fill="midnightblue" stroke="midnightblue" points="1571.49,-136.171 1561.82,-131.834 1566.68,-141.252 1571.49,-136.171"/>
</g>
<!-- Node38&#45;&gt;Node26 -->
<g id="edge66" class="edge"><title>Node38&#45;&gt;Node26</title>
<path fill="none" stroke="midnightblue" d="M1618.68,-168.368C1638.33,-149.894 1684.71,-106.293 1709.75,-82.7436"/>
<polygon fill="midnightblue" stroke="midnightblue" points="1712.47,-84.9912 1717.36,-75.5914 1707.68,-79.8912 1712.47,-84.9912"/>
</g>
<!-- Node40&#45;&gt;Node7 -->
<g id="edge87" class="edge"><title>Node40&#45;&gt;Node7</title>
<path fill="none" stroke="midnightblue" d="M1885.89,-175.604C1709.05,-169.017 964.567,-141.026 853.745,-131.634"/>
<polygon fill="midnightblue" stroke="midnightblue" points="853.938,-128.136 843.636,-130.608 853.231,-135.1 853.938,-128.136"/>
</g>
<!-- Node40&#45;&gt;Node22 -->
<g id="edge83" class="edge"><title>Node40&#45;&gt;Node22</title>
<path fill="none" stroke="midnightblue" d="M1887.54,-168.479C1829.53,-154.971 1711.56,-128.486 1610.5,-112 1480.35,-90.7689 1443.51,-98.4629 1310.08,-76.1159"/>
<polygon fill="midnightblue" stroke="midnightblue" points="1310.33,-72.6072 1299.88,-74.3808 1309.15,-79.5081 1310.33,-72.6072"/>
</g>
<!-- Node41 -->
<g id="node41" class="node"><title>Node41</title>
<polygon fill="white" stroke="#bfbfbf" points="1885.5,-112.5 1885.5,-131.5 1937.5,-131.5 1937.5,-112.5 1885.5,-112.5"/>
<text text-anchor="middle" x="1911.5" y="-119.5" font-family="Helvetica,sans-Serif" font-size="10.00">cassert</text>
</g>
<!-- Node40&#45;&gt;Node41 -->
<g id="edge84" class="edge"><title>Node40&#45;&gt;Node41</title>
<path fill="none" stroke="midnightblue" d="M1921.52,-168.083C1919.93,-160.927 1917.64,-150.635 1915.65,-141.691"/>
<polygon fill="midnightblue" stroke="midnightblue" points="1919.03,-140.754 1913.44,-131.751 1912.2,-142.272 1919.03,-140.754"/>
</g>
<!-- Node42 -->
<g id="node42" class="node"><title>Node42</title>
<polygon fill="white" stroke="#bfbfbf" points="1956,-112.5 1956,-131.5 2015,-131.5 2015,-112.5 1956,-112.5"/>
<text text-anchor="middle" x="1985.5" y="-119.5" font-family="Helvetica,sans-Serif" font-size="10.00">iostream</text>
</g>
<!-- Node40&#45;&gt;Node42 -->
<g id="edge85" class="edge"><title>Node40&#45;&gt;Node42</title>
<path fill="none" stroke="midnightblue" d="M1933.46,-168.324C1942.63,-160.341 1956.44,-148.313 1967.53,-138.653"/>
<polygon fill="midnightblue" stroke="midnightblue" points="1970.12,-141.041 1975.36,-131.834 1965.52,-135.762 1970.12,-141.041"/>
</g>
<!-- Node43 -->
<g id="node43" class="node"><title>Node43</title>
<polygon fill="white" stroke="#bfbfbf" points="2033.5,-112.5 2033.5,-131.5 2089.5,-131.5 2089.5,-112.5 2033.5,-112.5"/>
<text text-anchor="middle" x="2061.5" y="-119.5" font-family="Helvetica,sans-Serif" font-size="10.00">sstream</text>
</g>
<!-- Node40&#45;&gt;Node43 -->
<g id="edge86" class="edge"><title>Node40&#45;&gt;Node43</title>
<path fill="none" stroke="midnightblue" d="M1945.37,-168.444C1968.28,-159.478 2004.48,-145.314 2030.37,-135.183"/>
<polygon fill="midnightblue" stroke="midnightblue" points="2031.7,-138.42 2039.74,-131.516 2029.15,-131.901 2031.7,-138.42"/>
</g>
</g>
</svg>
