<?xml version="1.0" encoding="UTF-8" standalone="no"?>
<!DOCTYPE svg PUBLIC "-//W3C//DTD SVG 1.1//EN"
 "http://www.w3.org/Graphics/SVG/1.1/DTD/svg11.dtd">
<!-- Generated by graphviz version 2.38.0 (20140413.2041)
 -->
<!-- Title: GetMinimumFeeRate Pages: 1 -->
<svg width="640pt" height="379pt"
 viewBox="0.00 0.00 640.00 379.00" xmlns="http://www.w3.org/2000/svg" xmlns:xlink="http://www.w3.org/1999/xlink">
<g id="graph0" class="graph" transform="scale(1 1) rotate(0) translate(4 375)">
<title>GetMinimumFeeRate</title>
<polygon fill="white" stroke="none" points="-4,4 -4,-375 636,-375 636,4 -4,4"/>
<!-- Node1 -->
<g id="node1" class="node"><title>Node1</title>
<polygon fill="#bfbfbf" stroke="black" points="0,-123 0,-142 116,-142 116,-123 0,-123"/>
<text text-anchor="middle" x="58" y="-130" font-family="Helvetica,sans-Serif" font-size="10.00">GetMinimumFeeRate</text>
</g>
<!-- Node2 -->
<g id="node2" class="node"><title>Node2</title>
<g id="a_node2"><a xlink:href="class_c_block_policy_estimator.html#ad44d2b70827f08c73d35bdcb634ec4e8" target="_top" xlink:title="Estimate feerate needed to get be included in a block within confTarget blocks. ">
<polygon fill="white" stroke="black" points="158,-242.5 158,-272.5 280,-272.5 280,-242.5 158,-242.5"/>
<text text-anchor="start" x="166" y="-260.5" font-family="Helvetica,sans-Serif" font-size="10.00">CBlockPolicyEstimator</text>
<text text-anchor="middle" x="219" y="-249.5" font-family="Helvetica,sans-Serif" font-size="10.00">::estimateSmartFee</text>
</a>
</g>
</g>
<!-- Node1&#45;&gt;Node2 -->
<g id="edge1" class="edge"><title>Node1&#45;&gt;Node2</title>
<path fill="none" stroke="midnightblue" d="M71.2125,-142.101C96.6599,-162.107 155.894,-208.674 190.841,-236.149"/>
<polygon fill="midnightblue" stroke="midnightblue" points="188.723,-238.936 198.748,-242.365 193.05,-233.433 188.723,-238.936"/>
</g>
<!-- Node8 -->
<g id="node8" class="node"><title>Node8</title>
<g id="a_node8"><a xlink:href="class_c_tx_mem_pool.html#a56f7bb294117be90abcde1d915eefdd3" target="_top" xlink:title="The minimum fee to get into the mempool, which may itself not be enough for larger&#45;sized transactions...">
<polygon fill="white" stroke="black" points="152,-142 152,-161 286,-161 286,-142 152,-142"/>
<text text-anchor="middle" x="219" y="-149" font-family="Helvetica,sans-Serif" font-size="10.00">CTxMemPool::GetMinFee</text>
</a>
</g>
</g>
<!-- Node1&#45;&gt;Node8 -->
<g id="edge7" class="edge"><title>Node1&#45;&gt;Node8</title>
<path fill="none" stroke="midnightblue" d="M116.403,-139.359C124.65,-140.345 133.242,-141.372 141.784,-142.392"/>
<polygon fill="midnightblue" stroke="midnightblue" points="141.419,-145.874 151.764,-143.585 142.25,-138.923 141.419,-145.874"/>
</g>
<!-- Node12 -->
<g id="node12" class="node"><title>Node12</title>
<g id="a_node12"><a xlink:href="class_args_manager.html#a565c101a8d753ca2d71c7069a9d411c1" target="_top" xlink:title="Return string argument or default value. ">
<polygon fill="white" stroke="black" points="159,-104 159,-123 279,-123 279,-104 159,-104"/>
<text text-anchor="middle" x="219" y="-111" font-family="Helvetica,sans-Serif" font-size="10.00">ArgsManager::GetArg</text>
</a>
</g>
</g>
<!-- Node1&#45;&gt;Node12 -->
<g id="edge11" class="edge"><title>Node1&#45;&gt;Node12</title>
<path fill="none" stroke="midnightblue" d="M116.403,-125.641C126.851,-124.392 137.853,-123.077 148.604,-121.793"/>
<polygon fill="midnightblue" stroke="midnightblue" points="149.294,-125.235 158.808,-120.573 148.464,-118.285 149.294,-125.235"/>
</g>
<!-- Node18 -->
<g id="node18" class="node"><title>Node18</title>
<g id="a_node18"><a xlink:href="wallet_2fees_8cpp.html#adeb821b9da50bff91c5d87a5b9437bb4" target="_top" xlink:title="Return the minimum required feerate taking into account the minimum relay feerate and user set minimu...">
<polygon fill="white" stroke="black" points="162.5,-66 162.5,-85 275.5,-85 275.5,-66 162.5,-66"/>
<text text-anchor="middle" x="219" y="-73" font-family="Helvetica,sans-Serif" font-size="10.00">GetRequiredFeeRate</text>
</a>
</g>
</g>
<!-- Node1&#45;&gt;Node18 -->
<g id="edge18" class="edge"><title>Node1&#45;&gt;Node18</title>
<path fill="none" stroke="midnightblue" d="M80.5448,-122.925C99.234,-114.805 127.119,-103.136 152,-94.5 158.509,-92.2408 165.442,-90.0334 172.276,-87.9697"/>
<polygon fill="midnightblue" stroke="midnightblue" points="173.553,-91.2422 182.156,-85.0595 171.575,-84.5274 173.553,-91.2422"/>
</g>
<!-- Node3 -->
<g id="node3" class="node"><title>Node3</title>
<g id="a_node3"><a xlink:href="class_c_block_policy_estimator.html#aa1190c8276ed40774ee972d084bfd501" target="_top" xlink:title="Calculation of highest target that reasonable estimate can be provided for. ">
<polygon fill="white" stroke="black" points="337,-316.5 337,-346.5 459,-346.5 459,-316.5 337,-316.5"/>
<text text-anchor="start" x="345" y="-334.5" font-family="Helvetica,sans-Serif" font-size="10.00">CBlockPolicyEstimator</text>
<text text-anchor="middle" x="398" y="-323.5" font-family="Helvetica,sans-Serif" font-size="10.00">::MaxUsableEstimate</text>
</a>
</g>
</g>
<!-- Node2&#45;&gt;Node3 -->
<g id="edge2" class="edge"><title>Node2&#45;&gt;Node3</title>
<path fill="none" stroke="midnightblue" d="M248.073,-272.643C268.283,-283.202 296.388,-297.189 322,-307.5 326.791,-309.429 331.802,-311.311 336.863,-313.119"/>
<polygon fill="midnightblue" stroke="midnightblue" points="336.018,-316.53 346.613,-316.495 338.309,-309.915 336.018,-316.53"/>
</g>
<!-- Node6 -->
<g id="node6" class="node"><title>Node6</title>
<g id="a_node6"><a xlink:href="class_c_block_policy_estimator.html#a31f06439558e93eb79f014ffea3af75b" target="_top" xlink:title="Helper for estimateSmartFee. ">
<polygon fill="white" stroke="black" points="332.5,-267.5 332.5,-297.5 463.5,-297.5 463.5,-267.5 332.5,-267.5"/>
<text text-anchor="start" x="340.5" y="-285.5" font-family="Helvetica,sans-Serif" font-size="10.00">CBlockPolicyEstimator</text>
<text text-anchor="middle" x="398" y="-274.5" font-family="Helvetica,sans-Serif" font-size="10.00">::estimateCombinedFee</text>
</a>
</g>
</g>
<!-- Node2&#45;&gt;Node6 -->
<g id="edge5" class="edge"><title>Node2&#45;&gt;Node6</title>
<path fill="none" stroke="midnightblue" d="M280.418,-266.034C293.876,-267.935 308.301,-269.972 322.258,-271.943"/>
<polygon fill="midnightblue" stroke="midnightblue" points="321.926,-275.431 332.317,-273.364 322.905,-268.5 321.926,-275.431"/>
</g>
<!-- Node7 -->
<g id="node7" class="node"><title>Node7</title>
<g id="a_node7"><a xlink:href="class_c_block_policy_estimator.html#a76c9d6730cd237e9f721961c83fb5e91" target="_top" xlink:title="Helper for estimateSmartFee. ">
<polygon fill="white" stroke="black" points="326,-218.5 326,-248.5 470,-248.5 470,-218.5 326,-218.5"/>
<text text-anchor="start" x="334" y="-236.5" font-family="Helvetica,sans-Serif" font-size="10.00">CBlockPolicyEstimator</text>
<text text-anchor="middle" x="398" y="-225.5" font-family="Helvetica,sans-Serif" font-size="10.00">::estimateConservativeFee</text>
</a>
</g>
</g>
<!-- Node2&#45;&gt;Node7 -->
<g id="edge6" class="edge"><title>Node2&#45;&gt;Node7</title>
<path fill="none" stroke="midnightblue" d="M280.418,-249.308C291.841,-247.759 303.961,-246.115 315.899,-244.497"/>
<polygon fill="midnightblue" stroke="midnightblue" points="316.427,-247.957 325.866,-243.145 315.486,-241.021 316.427,-247.957"/>
</g>
<!-- Node4 -->
<g id="node4" class="node"><title>Node4</title>
<g id="a_node4"><a xlink:href="class_c_block_policy_estimator.html#aaab088a1f71ab4492b89ae69dab103a5" target="_top" xlink:title="Number of blocks of data recorded while fee estimates have been running. ">
<polygon fill="white" stroke="black" points="510,-340.5 510,-370.5 632,-370.5 632,-340.5 510,-340.5"/>
<text text-anchor="start" x="518" y="-358.5" font-family="Helvetica,sans-Serif" font-size="10.00">CBlockPolicyEstimator</text>
<text text-anchor="middle" x="571" y="-347.5" font-family="Helvetica,sans-Serif" font-size="10.00">::BlockSpan</text>
</a>
</g>
</g>
<!-- Node3&#45;&gt;Node4 -->
<g id="edge3" class="edge"><title>Node3&#45;&gt;Node4</title>
<path fill="none" stroke="midnightblue" d="M459.288,-339.962C472.391,-341.8 486.361,-343.761 499.809,-345.649"/>
<polygon fill="midnightblue" stroke="midnightblue" points="499.579,-349.151 509.968,-347.074 500.552,-342.218 499.579,-349.151"/>
</g>
<!-- Node5 -->
<g id="node5" class="node"><title>Node5</title>
<g id="a_node5"><a xlink:href="class_c_block_policy_estimator.html#abc6267b35a79628fee4d0ebb9e577705" target="_top" xlink:title="Number of blocks of recorded fee estimate data represented in saved data file. ">
<polygon fill="white" stroke="black" points="510,-291.5 510,-321.5 632,-321.5 632,-291.5 510,-291.5"/>
<text text-anchor="start" x="518" y="-309.5" font-family="Helvetica,sans-Serif" font-size="10.00">CBlockPolicyEstimator</text>
<text text-anchor="middle" x="571" y="-298.5" font-family="Helvetica,sans-Serif" font-size="10.00">::HistoricalBlockSpan</text>
</a>
</g>
</g>
<!-- Node3&#45;&gt;Node5 -->
<g id="edge4" class="edge"><title>Node3&#45;&gt;Node5</title>
<path fill="none" stroke="midnightblue" d="M459.288,-322.686C472.391,-320.77 486.361,-318.728 499.809,-316.762"/>
<polygon fill="midnightblue" stroke="midnightblue" points="500.58,-320.186 509.968,-315.277 499.567,-313.26 500.58,-320.186"/>
</g>
<!-- Node9 -->
<g id="node9" class="node"><title>Node9</title>
<g id="a_node9"><a xlink:href="time_8cpp.html#a46fac5fba8ba905b5f9acb364f5d8c6f" target="_top" xlink:title="GetTimeMicros() and GetTimeMillis() both return the system time, but in different units...">
<polygon fill="white" stroke="black" points="369.5,-180 369.5,-199 426.5,-199 426.5,-180 369.5,-180"/>
<text text-anchor="middle" x="398" y="-187" font-family="Helvetica,sans-Serif" font-size="10.00">GetTime</text>
</a>
</g>
</g>
<!-- Node8&#45;&gt;Node9 -->
<g id="edge8" class="edge"><title>Node8&#45;&gt;Node9</title>
<path fill="none" stroke="midnightblue" d="M264.665,-161.089C293.906,-167.367 331.688,-175.478 359.392,-181.426"/>
<polygon fill="midnightblue" stroke="midnightblue" points="358.965,-184.914 369.477,-183.591 360.435,-178.07 358.965,-184.914"/>
</g>
<!-- Node10 -->
<g id="node10" class="node"><title>Node10</title>
<g id="a_node10"><a xlink:href="class_c_fee_rate.html#a5cf990404e896b332cf6fb836244b4a6" target="_top" xlink:title="Return the fee in satoshis for a size of 1000 bytes. ">
<polygon fill="white" stroke="black" points="336.5,-142 336.5,-161 459.5,-161 459.5,-142 336.5,-142"/>
<text text-anchor="middle" x="398" y="-149" font-family="Helvetica,sans-Serif" font-size="10.00">CFeeRate::GetFeePerK</text>
</a>
</g>
</g>
<!-- Node8&#45;&gt;Node10 -->
<g id="edge9" class="edge"><title>Node8&#45;&gt;Node10</title>
<path fill="none" stroke="midnightblue" d="M286.16,-151.5C299.305,-151.5 313.154,-151.5 326.44,-151.5"/>
<polygon fill="midnightblue" stroke="midnightblue" points="326.47,-155 336.47,-151.5 326.47,-148 326.47,-155"/>
</g>
<!-- Node11 -->
<g id="node11" class="node"><title>Node11</title>
<g id="a_node11"><a xlink:href="class_c_fee_rate.html#a81dd5e0549a587d5a0c68096ee1da202" target="_top" xlink:title="Return the fee in satoshis for the given size in bytes. ">
<polygon fill="white" stroke="black" points="520.5,-148 520.5,-167 621.5,-167 621.5,-148 520.5,-148"/>
<text text-anchor="middle" x="571" y="-155" font-family="Helvetica,sans-Serif" font-size="10.00">CFeeRate::GetFee</text>
</a>
</g>
</g>
<!-- Node10&#45;&gt;Node11 -->
<g id="edge10" class="edge"><title>Node10&#45;&gt;Node11</title>
<path fill="none" stroke="midnightblue" d="M459.77,-153.632C476.226,-154.21 494.019,-154.834 510.409,-155.409"/>
<polygon fill="midnightblue" stroke="midnightblue" points="510.292,-158.907 520.409,-155.76 510.538,-151.911 510.292,-158.907"/>
</g>
<!-- Node13 -->
<g id="node13" class="node"><title>Node13</title>
<g id="a_node13"><a xlink:href="class_args_manager.html#a279ccbf7bbe9de5dceb8c6bfd1736583" target="_top" xlink:title="Return true if the argument was originally passed as a negated option, i.e. ">
<polygon fill="white" stroke="black" points="322,-104 322,-123 474,-123 474,-104 322,-104"/>
<text text-anchor="middle" x="398" y="-111" font-family="Helvetica,sans-Serif" font-size="10.00">ArgsManager::IsArgNegated</text>
</a>
</g>
</g>
<!-- Node12&#45;&gt;Node13 -->
<g id="edge12" class="edge"><title>Node12&#45;&gt;Node13</title>
<path fill="none" stroke="midnightblue" d="M279.431,-113.5C289.705,-113.5 300.568,-113.5 311.373,-113.5"/>
<polygon fill="midnightblue" stroke="midnightblue" points="311.694,-117 321.694,-113.5 311.694,-110 311.694,-117"/>
</g>
<!-- Node15 -->
<g id="node15" class="node"><title>Node15</title>
<g id="a_node15"><a xlink:href="class_args_manager_helper.html#aa4f8f77dc468b29cffe50513c78a87cd" target="_top" xlink:title="ArgsManagerHelper::\lGetArg">
<polygon fill="white" stroke="black" points="339,-51.5 339,-81.5 457,-81.5 457,-51.5 339,-51.5"/>
<text text-anchor="start" x="347" y="-69.5" font-family="Helvetica,sans-Serif" font-size="10.00">ArgsManagerHelper::</text>
<text text-anchor="middle" x="398" y="-58.5" font-family="Helvetica,sans-Serif" font-size="10.00">GetArg</text>
</a>
</g>
</g>
<!-- Node12&#45;&gt;Node15 -->
<g id="edge14" class="edge"><title>Node12&#45;&gt;Node15</title>
<path fill="none" stroke="midnightblue" d="M255.819,-103.989C277.221,-98.3057 305.087,-90.9063 330.402,-84.1843"/>
<polygon fill="midnightblue" stroke="midnightblue" points="331.56,-87.4981 340.327,-81.5488 329.763,-80.7326 331.56,-87.4981"/>
</g>
<!-- Node14 -->
<g id="node14" class="node"><title>Node14</title>
<g id="a_node14"><a xlink:href="class_args_manager_helper.html#a863ddbcfbd113cf88cf622a0a4e32c1d" target="_top" xlink:title="Convert regular argument into the network&#45;specific setting. ">
<polygon fill="white" stroke="black" points="512,-98.5 512,-128.5 630,-128.5 630,-98.5 512,-98.5"/>
<text text-anchor="start" x="520" y="-116.5" font-family="Helvetica,sans-Serif" font-size="10.00">ArgsManagerHelper::</text>
<text text-anchor="middle" x="571" y="-105.5" font-family="Helvetica,sans-Serif" font-size="10.00">NetworkArg</text>
</a>
</g>
</g>
<!-- Node13&#45;&gt;Node14 -->
<g id="edge13" class="edge"><title>Node13&#45;&gt;Node14</title>
<path fill="none" stroke="midnightblue" d="M474.003,-113.5C483.196,-113.5 492.554,-113.5 501.642,-113.5"/>
<polygon fill="midnightblue" stroke="midnightblue" points="501.765,-117 511.765,-113.5 501.765,-110 501.765,-117"/>
</g>
<!-- Node15&#45;&gt;Node14 -->
<g id="edge16" class="edge"><title>Node15&#45;&gt;Node14</title>
<path fill="none" stroke="midnightblue" d="M453.576,-81.5003C470.08,-86.0367 488.362,-91.0615 505.453,-95.7591"/>
<polygon fill="midnightblue" stroke="midnightblue" points="504.786,-99.2055 515.356,-98.481 506.642,-92.4558 504.786,-99.2055"/>
</g>
<!-- Node16 -->
<g id="node16" class="node"><title>Node16</title>
<g id="a_node16"><a xlink:href="class_args_manager_helper.html#a1804a95992b4e10d04f0b92c53032b29" target="_top" xlink:title="Return true/false if an argument is set in a map, and also return the first (or last) of the possibly...">
<polygon fill="white" stroke="black" points="512,-49.5 512,-79.5 630,-79.5 630,-49.5 512,-49.5"/>
<text text-anchor="start" x="520" y="-67.5" font-family="Helvetica,sans-Serif" font-size="10.00">ArgsManagerHelper::</text>
<text text-anchor="middle" x="571" y="-56.5" font-family="Helvetica,sans-Serif" font-size="10.00">GetArgHelper</text>
</a>
</g>
</g>
<!-- Node15&#45;&gt;Node16 -->
<g id="edge15" class="edge"><title>Node15&#45;&gt;Node16</title>
<path fill="none" stroke="midnightblue" d="M457.37,-65.8173C471.678,-65.65 487.116,-65.4694 501.838,-65.2972"/>
<polygon fill="midnightblue" stroke="midnightblue" points="501.934,-68.7964 511.893,-65.1796 501.853,-61.7969 501.934,-68.7964"/>
</g>
<!-- Node17 -->
<g id="node17" class="node"><title>Node17</title>
<g id="a_node17"><a xlink:href="class_args_manager_helper.html#a43f3488403e4f0433ade323e48008359" target="_top" xlink:title="Determine whether to use config settings in the default section, See also comments around ArgsManager...">
<polygon fill="white" stroke="black" points="512,-0.5 512,-30.5 630,-30.5 630,-0.5 512,-0.5"/>
<text text-anchor="start" x="520" y="-18.5" font-family="Helvetica,sans-Serif" font-size="10.00">ArgsManagerHelper::</text>
<text text-anchor="middle" x="571" y="-7.5" font-family="Helvetica,sans-Serif" font-size="10.00">UseDefaultSection</text>
</a>
</g>
</g>
<!-- Node15&#45;&gt;Node17 -->
<g id="edge17" class="edge"><title>Node15&#45;&gt;Node17</title>
<path fill="none" stroke="midnightblue" d="M449.381,-51.4742C468.343,-45.8186 490.096,-39.3312 509.86,-33.4365"/>
<polygon fill="midnightblue" stroke="midnightblue" points="511.102,-36.7186 519.684,-30.5065 509.101,-30.0106 511.102,-36.7186"/>
</g>
</g>
</svg>
