<?xml version="1.0" encoding="UTF-8" standalone="no"?>
<!DOCTYPE svg PUBLIC "-//W3C//DTD SVG 1.1//EN"
 "http://www.w3.org/Graphics/SVG/1.1/DTD/svg11.dtd">
<!-- Generated by graphviz version 2.49.3 (0)
 -->
<!-- Title: LoadWallet Pages: 1 -->
<svg width="1172pt" height="164pt"
 viewBox="0.00 0.00 1172.00 164.00" xmlns="http://www.w3.org/2000/svg" xmlns:xlink="http://www.w3.org/1999/xlink">
<g id="graph0" class="graph" transform="scale(1 1) rotate(0) translate(4 160)">
<title>LoadWallet</title>
<polygon fill="white" stroke="transparent" points="-4,4 -4,-160 1168,-160 1168,4 -4,4"/>
<!-- Node1 -->
<g id="node1" class="node">
<title>Node1</title>
<g id="a_node1"><a xlink:title=" ">
<polygon fill="#bfbfbf" stroke="black" points="0,-82 0,-101 71,-101 71,-82 0,-82"/>
<text text-anchor="middle" x="35.5" y="-89" font-family="Helvetica,sans-Serif" font-size="10.00">LoadWallet</text>
</a>
</g>
</g>
<!-- Node2 -->
<g id="node2" class="node">
<title>Node2</title>
<g id="a_node2"><a xlink:href="system_8h.html#a96c5fc7111f69f7dcaba992d95d13e03" target="_top" xlink:title=" ">
<polygon fill="white" stroke="black" points="127,-101 127,-120 167,-120 167,-101 127,-101"/>
<text text-anchor="middle" x="147" y="-108" font-family="Helvetica,sans-Serif" font-size="10.00">error</text>
</a>
</g>
</g>
<!-- Node1&#45;&gt;Node2 -->
<g id="edge1" class="edge">
<title>Node1&#45;&gt;Node2</title>
<path fill="none" stroke="midnightblue" d="M71.15,-97.51C85.83,-100.06 102.74,-102.99 116.78,-105.43"/>
<polygon fill="midnightblue" stroke="midnightblue" points="116.41,-108.92 126.86,-107.18 117.61,-102.02 116.41,-108.92"/>
</g>
<!-- Node13 -->
<g id="node13" class="node">
<title>Node13</title>
<g id="a_node13"><a xlink:href="translation_8h.html#adff31aba0266455557bf721860f481b8" target="_top" xlink:title="Mark a bilingual_str as untranslated.">
<polygon fill="white" stroke="black" points="107,-63 107,-82 187,-82 187,-63 107,-63"/>
<text text-anchor="middle" x="147" y="-70" font-family="Helvetica,sans-Serif" font-size="10.00">Untranslated</text>
</a>
</g>
</g>
<!-- Node1&#45;&gt;Node13 -->
<g id="edge13" class="edge">
<title>Node1&#45;&gt;Node13</title>
<path fill="none" stroke="midnightblue" d="M71.15,-85.49C79.25,-84.08 88.04,-82.56 96.65,-81.06"/>
<polygon fill="midnightblue" stroke="midnightblue" points="97.37,-84.49 106.62,-79.33 96.17,-77.59 97.37,-84.49"/>
</g>
<!-- Node3 -->
<g id="node3" class="node">
<title>Node3</title>
<g id="a_node3"><a xlink:href="namespacetinyformat.html#a05144619d8b16e2b31b2594ca9c6bf1d" target="_top" xlink:title="Format list of arguments to the stream according to given format string.">
<polygon fill="white" stroke="black" points="223,-101 223,-120 330,-120 330,-101 223,-101"/>
<text text-anchor="middle" x="276.5" y="-108" font-family="Helvetica,sans-Serif" font-size="10.00">tinyformat::format</text>
</a>
</g>
</g>
<!-- Node2&#45;&gt;Node3 -->
<g id="edge2" class="edge">
<title>Node2&#45;&gt;Node3</title>
<path fill="none" stroke="midnightblue" d="M167.09,-110.5C179.34,-110.5 196.02,-110.5 212.62,-110.5"/>
<polygon fill="midnightblue" stroke="midnightblue" points="212.9,-114 222.9,-110.5 212.9,-107 212.9,-114"/>
</g>
<!-- Node4 -->
<g id="node4" class="node">
<title>Node4</title>
<g id="a_node4"><a xlink:href="namespacetinyformat.html#aa0e1f6113d2c7d019aac703672a650bd" target="_top" xlink:title="Make type&#45;agnostic format list from list of template arguments.">
<polygon fill="white" stroke="black" points="366,-120 366,-139 519,-139 519,-120 366,-120"/>
<text text-anchor="middle" x="442.5" y="-127" font-family="Helvetica,sans-Serif" font-size="10.00">tinyformat::makeFormatList</text>
</a>
</g>
</g>
<!-- Node3&#45;&gt;Node4 -->
<g id="edge3" class="edge">
<title>Node3&#45;&gt;Node4</title>
<path fill="none" stroke="midnightblue" d="M330.29,-116.62C338.44,-117.56 347.02,-118.55 355.67,-119.56"/>
<polygon fill="midnightblue" stroke="midnightblue" points="355.48,-123.06 365.81,-120.73 356.28,-116.1 355.48,-123.06"/>
</g>
<!-- Node5 -->
<g id="node5" class="node">
<title>Node5</title>
<g id="a_node5"><a xlink:href="namespacetinyformat.html#a86ed74eb3ed66a662e96220d877da964" target="_top" xlink:title="Format list of arguments to the stream according to the given format string.">
<polygon fill="white" stroke="black" points="386,-82 386,-101 499,-101 499,-82 386,-82"/>
<text text-anchor="middle" x="442.5" y="-89" font-family="Helvetica,sans-Serif" font-size="10.00">tinyformat::vformat</text>
</a>
</g>
</g>
<!-- Node3&#45;&gt;Node5 -->
<g id="edge4" class="edge">
<title>Node3&#45;&gt;Node5</title>
<path fill="none" stroke="midnightblue" d="M330.29,-104.38C344.75,-102.71 360.6,-100.87 375.68,-99.13"/>
<polygon fill="midnightblue" stroke="midnightblue" points="376.45,-102.56 385.98,-97.93 375.64,-95.61 376.45,-102.56"/>
</g>
<!-- Node6 -->
<g id="node6" class="node">
<title>Node6</title>
<g id="a_node6"><a xlink:href="namespacetinyformat_1_1detail.html#a9fe547bc617c38498e58c12cce507bec" target="_top" xlink:title=" ">
<polygon fill="white" stroke="black" points="555,-76.5 555,-106.5 657,-106.5 657,-76.5 555,-76.5"/>
<text text-anchor="start" x="563" y="-94.5" font-family="Helvetica,sans-Serif" font-size="10.00">tinyformat::detail</text>
<text text-anchor="middle" x="606" y="-83.5" font-family="Helvetica,sans-Serif" font-size="10.00">::formatImpl</text>
</a>
</g>
</g>
<!-- Node5&#45;&gt;Node6 -->
<g id="edge5" class="edge">
<title>Node5&#45;&gt;Node6</title>
<path fill="none" stroke="midnightblue" d="M499.08,-91.5C513.76,-91.5 529.67,-91.5 544.59,-91.5"/>
<polygon fill="midnightblue" stroke="midnightblue" points="544.73,-95 554.73,-91.5 544.73,-88 544.73,-95"/>
</g>
<!-- Node7 -->
<g id="node7" class="node">
<title>Node7</title>
<g id="a_node7"><a xlink:href="classtinyformat_1_1detail_1_1_format_arg.html#acbf435711bbe4a4da7fc81758d7108a9" target="_top" xlink:title=" ">
<polygon fill="white" stroke="black" points="707.5,-125.5 707.5,-155.5 820.5,-155.5 820.5,-125.5 707.5,-125.5"/>
<text text-anchor="start" x="715.5" y="-143.5" font-family="Helvetica,sans-Serif" font-size="10.00">tinyformat::detail</text>
<text text-anchor="middle" x="764" y="-132.5" font-family="Helvetica,sans-Serif" font-size="10.00">::FormatArg::format</text>
</a>
</g>
</g>
<!-- Node6&#45;&gt;Node7 -->
<g id="edge6" class="edge">
<title>Node6&#45;&gt;Node7</title>
<path fill="none" stroke="midnightblue" d="M655.08,-106.6C671.02,-111.61 688.92,-117.23 705.5,-122.44"/>
<polygon fill="midnightblue" stroke="midnightblue" points="704.49,-125.79 715.08,-125.45 706.59,-119.11 704.49,-125.79"/>
</g>
<!-- Node8 -->
<g id="node8" class="node">
<title>Node8</title>
<g id="a_node8"><a xlink:href="namespacetinyformat_1_1detail.html#a3eb54527d28d7124a6f9fa4c1d57deed" target="_top" xlink:title=" ">
<polygon fill="white" stroke="black" points="694.5,-76.5 694.5,-106.5 833.5,-106.5 833.5,-76.5 694.5,-76.5"/>
<text text-anchor="start" x="702.5" y="-94.5" font-family="Helvetica,sans-Serif" font-size="10.00">tinyformat::detail</text>
<text text-anchor="middle" x="764" y="-83.5" font-family="Helvetica,sans-Serif" font-size="10.00">::printFormatStringLiteral</text>
</a>
</g>
</g>
<!-- Node6&#45;&gt;Node8 -->
<g id="edge7" class="edge">
<title>Node6&#45;&gt;Node8</title>
<path fill="none" stroke="midnightblue" d="M657.22,-91.5C665.92,-91.5 675.15,-91.5 684.39,-91.5"/>
<polygon fill="midnightblue" stroke="midnightblue" points="684.4,-95 694.4,-91.5 684.4,-88 684.4,-95"/>
</g>
<!-- Node9 -->
<g id="node9" class="node">
<title>Node9</title>
<g id="a_node9"><a xlink:href="namespacetinyformat_1_1detail.html#abbdd8c3b545f996b866bd22cf6aa444c" target="_top" xlink:title=" ">
<polygon fill="white" stroke="black" points="693,-27.5 693,-57.5 835,-57.5 835,-27.5 693,-27.5"/>
<text text-anchor="start" x="701" y="-45.5" font-family="Helvetica,sans-Serif" font-size="10.00">tinyformat::detail</text>
<text text-anchor="middle" x="764" y="-34.5" font-family="Helvetica,sans-Serif" font-size="10.00">::streamStateFromFormat</text>
</a>
</g>
</g>
<!-- Node6&#45;&gt;Node9 -->
<g id="edge8" class="edge">
<title>Node6&#45;&gt;Node9</title>
<path fill="none" stroke="midnightblue" d="M655.08,-76.4C671.02,-71.39 688.92,-65.77 705.5,-60.56"/>
<polygon fill="midnightblue" stroke="midnightblue" points="706.59,-63.89 715.08,-57.55 704.49,-57.21 706.59,-63.89"/>
</g>
<!-- Node10 -->
<g id="node10" class="node">
<title>Node10</title>
<g id="a_node10"><a xlink:href="namespacetinyformat_1_1detail.html#a67285e0adb9f4164f9fc30a3eb11c771" target="_top" xlink:title=" ">
<polygon fill="white" stroke="black" points="1041,-49.5 1041,-79.5 1164,-79.5 1164,-49.5 1041,-49.5"/>
<text text-anchor="start" x="1049" y="-67.5" font-family="Helvetica,sans-Serif" font-size="10.00">tinyformat::detail</text>
<text text-anchor="middle" x="1102.5" y="-56.5" font-family="Helvetica,sans-Serif" font-size="10.00">::parseIntAndAdvance</text>
</a>
</g>
</g>
<!-- Node9&#45;&gt;Node10 -->
<g id="edge9" class="edge">
<title>Node9&#45;&gt;Node10</title>
<path fill="none" stroke="midnightblue" d="M835.13,-47.09C892.46,-50.83 973.15,-56.11 1030.67,-59.87"/>
<polygon fill="midnightblue" stroke="midnightblue" points="1030.56,-63.37 1040.77,-60.53 1031.01,-56.38 1030.56,-63.37"/>
</g>
<!-- Node11 -->
<g id="node11" class="node">
<title>Node11</title>
<g id="a_node11"><a xlink:href="namespacetinyformat_1_1detail.html#ae1e94cbdd9e7cf26f17856a1792664e1" target="_top" xlink:title=" ">
<polygon fill="white" stroke="black" points="871,-5.5 871,-35.5 1005,-35.5 1005,-5.5 871,-5.5"/>
<text text-anchor="start" x="879" y="-23.5" font-family="Helvetica,sans-Serif" font-size="10.00">tinyformat::detail</text>
<text text-anchor="middle" x="938" y="-12.5" font-family="Helvetica,sans-Serif" font-size="10.00">::parseWidthOrPrecision</text>
</a>
</g>
</g>
<!-- Node9&#45;&gt;Node11 -->
<g id="edge10" class="edge">
<title>Node9&#45;&gt;Node11</title>
<path fill="none" stroke="midnightblue" d="M835.46,-33.49C843.77,-32.43 852.28,-31.34 860.66,-30.26"/>
<polygon fill="midnightblue" stroke="midnightblue" points="861.33,-33.71 870.81,-28.97 860.45,-26.76 861.33,-33.71"/>
</g>
<!-- Node11&#45;&gt;Node10 -->
<g id="edge11" class="edge">
<title>Node11&#45;&gt;Node10</title>
<path fill="none" stroke="midnightblue" d="M994.47,-35.52C1007.86,-39.15 1022.29,-43.05 1036.09,-46.79"/>
<polygon fill="midnightblue" stroke="midnightblue" points="1035.44,-50.24 1046.01,-49.47 1037.27,-43.48 1035.44,-50.24"/>
</g>
<!-- Node12 -->
<g id="node12" class="node">
<title>Node12</title>
<g id="a_node12"><a xlink:href="classtinyformat_1_1detail_1_1_format_arg.html#a91b69f66ce9dc8ca2914dce8985d7a1a" target="_top" xlink:title=" ">
<polygon fill="white" stroke="black" points="1051.5,-0.5 1051.5,-30.5 1153.5,-30.5 1153.5,-0.5 1051.5,-0.5"/>
<text text-anchor="start" x="1059.5" y="-18.5" font-family="Helvetica,sans-Serif" font-size="10.00">tinyformat::detail</text>
<text text-anchor="middle" x="1102.5" y="-7.5" font-family="Helvetica,sans-Serif" font-size="10.00">::FormatArg::toInt</text>
</a>
</g>
</g>
<!-- Node11&#45;&gt;Node12 -->
<g id="edge12" class="edge">
<title>Node11&#45;&gt;Node12</title>
<path fill="none" stroke="midnightblue" d="M1005.09,-18.47C1017.06,-18.1 1029.47,-17.72 1041.25,-17.35"/>
<polygon fill="midnightblue" stroke="midnightblue" points="1041.53,-20.85 1051.42,-17.04 1041.32,-13.85 1041.53,-20.85"/>
</g>
</g>
</svg>
