<?xml version="1.0" encoding="UTF-8" standalone="no"?>
<!DOCTYPE svg PUBLIC "-//W3C//DTD SVG 1.1//EN"
 "http://www.w3.org/Graphics/SVG/1.1/DTD/svg11.dtd">
<!-- Generated by graphviz version 2.40.1 (20161225.0304)
 -->
<!-- Title: GetMinimumFeeRate Pages: 1 -->
<svg width="615pt" height="328pt"
 viewBox="0.00 0.00 615.00 328.00" xmlns="http://www.w3.org/2000/svg" xmlns:xlink="http://www.w3.org/1999/xlink">
<g id="graph0" class="graph" transform="scale(1 1) rotate(0) translate(4 324)">
<title>GetMinimumFeeRate</title>
<polygon fill="#ffffff" stroke="transparent" points="-4,4 -4,-324 611,-324 611,4 -4,4"/>
<!-- Node26 -->
<g id="node1" class="node">
<title>Node26</title>
<polygon fill="#bfbfbf" stroke="#000000" points="0,-107 0,-126 110,-126 110,-107 0,-107"/>
<text text-anchor="middle" x="55" y="-114" font-family="Helvetica,sans-Serif" font-size="10.00" fill="#000000">GetMinimumFeeRate</text>
</g>
<!-- Node27 -->
<g id="node2" class="node">
<title>Node27</title>
<g id="a_node2"><a xlink:href="class_c_block_policy_estimator.html#af766877edc815e15192134ff3401658c" target="_top" xlink:title="Estimate feerate needed to get be included in a block within confTarget blocks. ">
<polygon fill="#ffffff" stroke="#000000" points="152.5,-191.5 152.5,-221.5 270.5,-221.5 270.5,-191.5 152.5,-191.5"/>
<text text-anchor="start" x="160.5" y="-209.5" font-family="Helvetica,sans-Serif" font-size="10.00" fill="#000000">CBlockPolicyEstimator</text>
<text text-anchor="middle" x="211.5" y="-198.5" font-family="Helvetica,sans-Serif" font-size="10.00" fill="#000000">::estimateSmartFee</text>
</a>
</g>
</g>
<!-- Node26&#45;&gt;Node27 -->
<g id="edge1" class="edge">
<title>Node26&#45;&gt;Node27</title>
<path fill="none" stroke="#191970" d="M71.7482,-126.1316C96.6147,-140.4318 143.8656,-167.6048 176.4936,-186.3685"/>
<polygon fill="#191970" stroke="#191970" points="174.8642,-189.469 185.2779,-191.4202 178.3539,-183.4008 174.8642,-189.469"/>
</g>
<!-- Node33 -->
<g id="node8" class="node">
<title>Node33</title>
<g id="a_node8"><a xlink:href="class_c_tx_mem_pool.html#a232651541c3393c81153ffc289e7b71d" target="_top" xlink:title="The minimum fee to get into the mempool, which may itself not be enough for larger&#45;sized transactions...">
<polygon fill="#ffffff" stroke="#000000" points="146,-107 146,-126 277,-126 277,-107 146,-107"/>
<text text-anchor="middle" x="211.5" y="-114" font-family="Helvetica,sans-Serif" font-size="10.00" fill="#000000">CTxMemPool::GetMinFee</text>
</a>
</g>
</g>
<!-- Node26&#45;&gt;Node33 -->
<g id="edge7" class="edge">
<title>Node26&#45;&gt;Node33</title>
<path fill="none" stroke="#191970" d="M110.176,-116.5C118.462,-116.5 127.1271,-116.5 135.7516,-116.5"/>
<polygon fill="#191970" stroke="#191970" points="135.8323,-120.0001 145.8323,-116.5 135.8322,-113.0001 135.8323,-120.0001"/>
</g>
<!-- Node37 -->
<g id="node12" class="node">
<title>Node37</title>
<g id="a_node12"><a xlink:href="class_args_manager.html#adb5d644d273b3a259f792affcdca8283" target="_top" xlink:title="Return string argument or default value. ">
<polygon fill="#ffffff" stroke="#000000" points="156,-50 156,-69 267,-69 267,-50 156,-50"/>
<text text-anchor="middle" x="211.5" y="-57" font-family="Helvetica,sans-Serif" font-size="10.00" fill="#000000">ArgsManager::GetArg</text>
</a>
</g>
</g>
<!-- Node26&#45;&gt;Node37 -->
<g id="edge11" class="edge">
<title>Node26&#45;&gt;Node37</title>
<path fill="none" stroke="#191970" d="M81.1946,-106.9595C107.0367,-97.5473 146.7414,-83.0862 175.5321,-72.6001"/>
<polygon fill="#191970" stroke="#191970" points="177.0216,-75.7826 185.22,-69.0716 174.626,-69.2053 177.0216,-75.7826"/>
</g>
<!-- Node28 -->
<g id="node3" class="node">
<title>Node28</title>
<g id="a_node3"><a xlink:href="class_c_block_policy_estimator.html#ae6b52f035c5946e6f29af903400c4972" target="_top" xlink:title="Calculation of highest target that reasonable estimate can be provided for. ">
<polygon fill="#ffffff" stroke="#000000" points="324,-265.5 324,-295.5 442,-295.5 442,-265.5 324,-265.5"/>
<text text-anchor="start" x="332" y="-283.5" font-family="Helvetica,sans-Serif" font-size="10.00" fill="#000000">CBlockPolicyEstimator</text>
<text text-anchor="middle" x="383" y="-272.5" font-family="Helvetica,sans-Serif" font-size="10.00" fill="#000000">::MaxUsableEstimate</text>
</a>
</g>
</g>
<!-- Node27&#45;&gt;Node28 -->
<g id="edge2" class="edge">
<title>Node27&#45;&gt;Node28</title>
<path fill="none" stroke="#191970" d="M239.9252,-221.7169C260.0305,-232.178 287.7876,-246.018 313,-256.5 317.4374,-258.3449 322.0726,-260.163 326.7531,-261.9228"/>
<polygon fill="#191970" stroke="#191970" points="325.7811,-265.2941 336.3749,-265.4431 328.1863,-258.7202 325.7811,-265.2941"/>
</g>
<!-- Node31 -->
<g id="node6" class="node">
<title>Node31</title>
<g id="a_node6"><a xlink:href="class_c_block_policy_estimator.html#ad6be71975c32281e23234c14068e009f" target="_top" xlink:title="Helper for estimateSmartFee. ">
<polygon fill="#ffffff" stroke="#000000" points="322.5,-216.5 322.5,-246.5 443.5,-246.5 443.5,-216.5 322.5,-216.5"/>
<text text-anchor="start" x="330.5" y="-234.5" font-family="Helvetica,sans-Serif" font-size="10.00" fill="#000000">CBlockPolicyEstimator</text>
<text text-anchor="middle" x="383" y="-223.5" font-family="Helvetica,sans-Serif" font-size="10.00" fill="#000000">::estimateCombinedFee</text>
</a>
</g>
</g>
<!-- Node27&#45;&gt;Node31 -->
<g id="edge5" class="edge">
<title>Node27&#45;&gt;Node31</title>
<path fill="none" stroke="#191970" d="M270.5206,-215.1036C284.009,-217.0698 298.4779,-219.179 312.3969,-221.208"/>
<polygon fill="#191970" stroke="#191970" points="312.0127,-224.6889 322.413,-222.6681 313.0225,-217.7621 312.0127,-224.6889"/>
</g>
<!-- Node32 -->
<g id="node7" class="node">
<title>Node32</title>
<g id="a_node7"><a xlink:href="class_c_block_policy_estimator.html#ac5707c649c1c5989a314a4e0be0e72ac" target="_top" xlink:title="Helper for estimateSmartFee. ">
<polygon fill="#ffffff" stroke="#000000" points="316,-167.5 316,-197.5 450,-197.5 450,-167.5 316,-167.5"/>
<text text-anchor="start" x="324" y="-185.5" font-family="Helvetica,sans-Serif" font-size="10.00" fill="#000000">CBlockPolicyEstimator</text>
<text text-anchor="middle" x="383" y="-174.5" font-family="Helvetica,sans-Serif" font-size="10.00" fill="#000000">::estimateConservativeFee</text>
</a>
</g>
</g>
<!-- Node27&#45;&gt;Node32 -->
<g id="edge6" class="edge">
<title>Node27&#45;&gt;Node32</title>
<path fill="none" stroke="#191970" d="M270.5206,-198.2406C281.9508,-196.641 294.0851,-194.9429 305.9922,-193.2766"/>
<polygon fill="#191970" stroke="#191970" points="306.5019,-196.7395 315.9203,-191.8872 305.5317,-189.807 306.5019,-196.7395"/>
</g>
<!-- Node29 -->
<g id="node4" class="node">
<title>Node29</title>
<g id="a_node4"><a xlink:href="class_c_block_policy_estimator.html#ad870b8402333d44c86c35ce1f40e21d7" target="_top" xlink:title="Number of blocks of data recorded while fee estimates have been running. ">
<polygon fill="#ffffff" stroke="#000000" points="489,-289.5 489,-319.5 607,-319.5 607,-289.5 489,-289.5"/>
<text text-anchor="start" x="497" y="-307.5" font-family="Helvetica,sans-Serif" font-size="10.00" fill="#000000">CBlockPolicyEstimator</text>
<text text-anchor="middle" x="548" y="-296.5" font-family="Helvetica,sans-Serif" font-size="10.00" fill="#000000">::BlockSpan</text>
</a>
</g>
</g>
<!-- Node28&#45;&gt;Node29 -->
<g id="edge3" class="edge">
<title>Node28&#45;&gt;Node29</title>
<path fill="none" stroke="#191970" d="M442.1027,-289.0968C453.9505,-290.8201 466.5002,-292.6455 478.6584,-294.414"/>
<polygon fill="#191970" stroke="#191970" points="478.3557,-297.9067 488.7553,-295.8826 479.3633,-290.9796 478.3557,-297.9067"/>
</g>
<!-- Node30 -->
<g id="node5" class="node">
<title>Node30</title>
<g id="a_node5"><a xlink:href="class_c_block_policy_estimator.html#a12176ac3e097524b3e7e24a7515d7ea3" target="_top" xlink:title="Number of blocks of recorded fee estimate data represented in saved data file. ">
<polygon fill="#ffffff" stroke="#000000" points="489,-240.5 489,-270.5 607,-270.5 607,-240.5 489,-240.5"/>
<text text-anchor="start" x="497" y="-258.5" font-family="Helvetica,sans-Serif" font-size="10.00" fill="#000000">CBlockPolicyEstimator</text>
<text text-anchor="middle" x="548" y="-247.5" font-family="Helvetica,sans-Serif" font-size="10.00" fill="#000000">::HistoricalBlockSpan</text>
</a>
</g>
</g>
<!-- Node28&#45;&gt;Node30 -->
<g id="edge4" class="edge">
<title>Node28&#45;&gt;Node30</title>
<path fill="none" stroke="#191970" d="M442.1027,-271.545C453.9505,-269.7499 466.5002,-267.8485 478.6584,-266.0063"/>
<polygon fill="#191970" stroke="#191970" points="479.3925,-269.4351 488.7553,-264.4765 478.3438,-262.5141 479.3925,-269.4351"/>
</g>
<!-- Node34 -->
<g id="node9" class="node">
<title>Node34</title>
<g id="a_node9"><a xlink:href="utiltime_8cpp.html#a46fac5fba8ba905b5f9acb364f5d8c6f" target="_top" xlink:title="GetTimeMicros() and GetTimeMillis() both return the system time, but in different units...">
<polygon fill="#ffffff" stroke="#000000" points="356,-129 356,-148 410,-148 410,-129 356,-129"/>
<text text-anchor="middle" x="383" y="-136" font-family="Helvetica,sans-Serif" font-size="10.00" fill="#000000">GetTime</text>
</a>
</g>
</g>
<!-- Node33&#45;&gt;Node34 -->
<g id="edge8" class="edge">
<title>Node33&#45;&gt;Node34</title>
<path fill="none" stroke="#191970" d="M277.3159,-124.9429C300.4824,-127.9147 325.7039,-131.1501 345.6962,-133.7147"/>
<polygon fill="#191970" stroke="#191970" points="345.2716,-137.1888 355.6357,-134.9897 346.1623,-130.2457 345.2716,-137.1888"/>
</g>
<!-- Node35 -->
<g id="node10" class="node">
<title>Node35</title>
<g id="a_node10"><a xlink:href="class_c_fee_rate.html#ac772be79983433d442d6b871d2fb6e11" target="_top" xlink:title="Return the fee in satoshis for a size of 1000 bytes. ">
<polygon fill="#ffffff" stroke="#000000" points="322,-91 322,-110 444,-110 444,-91 322,-91"/>
<text text-anchor="middle" x="383" y="-98" font-family="Helvetica,sans-Serif" font-size="10.00" fill="#000000">CFeeRate::GetFeePerK</text>
</a>
</g>
</g>
<!-- Node33&#45;&gt;Node35 -->
<g id="edge9" class="edge">
<title>Node33&#45;&gt;Node35</title>
<path fill="none" stroke="#191970" d="M277.3159,-110.3597C288.5257,-109.3139 300.2167,-108.2232 311.5636,-107.1646"/>
<polygon fill="#191970" stroke="#191970" points="312.2322,-110.6175 321.8638,-106.2037 311.5819,-103.6478 312.2322,-110.6175"/>
</g>
<!-- Node36 -->
<g id="node11" class="node">
<title>Node36</title>
<g id="a_node11"><a xlink:href="class_c_fee_rate.html#a1173705aceba99303d6485d1c2f3f9a8" target="_top" xlink:title="Return the fee in satoshis for the given size in bytes. ">
<polygon fill="#ffffff" stroke="#000000" points="498,-92 498,-111 598,-111 598,-92 498,-92"/>
<text text-anchor="middle" x="548" y="-99" font-family="Helvetica,sans-Serif" font-size="10.00" fill="#000000">CFeeRate::GetFee</text>
</a>
</g>
</g>
<!-- Node35&#45;&gt;Node36 -->
<g id="edge10" class="edge">
<title>Node35&#45;&gt;Node36</title>
<path fill="none" stroke="#191970" d="M444.4399,-100.8724C458.5959,-100.9582 473.6385,-101.0493 487.7436,-101.1348"/>
<polygon fill="#191970" stroke="#191970" points="487.8015,-104.6351 497.8225,-101.1959 487.844,-97.6353 487.8015,-104.6351"/>
</g>
<!-- Node38 -->
<g id="node13" class="node">
<title>Node38</title>
<g id="a_node13"><a xlink:href="class_args_manager.html#a113a1b8c5471d2fff0108058be8b86af" target="_top" xlink:title="Return true if the argument was originally passed as a negated option, i.e. ">
<polygon fill="#ffffff" stroke="#000000" points="313,-50 313,-69 453,-69 453,-50 313,-50"/>
<text text-anchor="middle" x="383" y="-57" font-family="Helvetica,sans-Serif" font-size="10.00" fill="#000000">ArgsManager::IsArgNegated</text>
</a>
</g>
</g>
<!-- Node37&#45;&gt;Node38 -->
<g id="edge12" class="edge">
<title>Node37&#45;&gt;Node38</title>
<path fill="none" stroke="#191970" d="M267.1811,-59.5C278.5664,-59.5 290.7614,-59.5 302.8095,-59.5"/>
<polygon fill="#191970" stroke="#191970" points="302.8743,-63.0001 312.8743,-59.5 302.8742,-56.0001 302.8743,-63.0001"/>
</g>
<!-- Node40 -->
<g id="node15" class="node">
<title>Node40</title>
<g id="a_node15"><a xlink:href="class_args_manager_helper.html#aa4f8f77dc468b29cffe50513c78a87cd" target="_top" xlink:title="ArgsManagerHelper::\lGetArg">
<polygon fill="#ffffff" stroke="#000000" points="328.5,-.5 328.5,-30.5 437.5,-30.5 437.5,-.5 328.5,-.5"/>
<text text-anchor="start" x="336.5" y="-18.5" font-family="Helvetica,sans-Serif" font-size="10.00" fill="#000000">ArgsManagerHelper::</text>
<text text-anchor="middle" x="383" y="-7.5" font-family="Helvetica,sans-Serif" font-size="10.00" fill="#000000">GetArg</text>
</a>
</g>
</g>
<!-- Node37&#45;&gt;Node40 -->
<g id="edge14" class="edge">
<title>Node37&#45;&gt;Node40</title>
<path fill="none" stroke="#191970" d="M248.7129,-49.9527C269.0562,-44.7334 294.8339,-38.1199 318.3532,-32.0858"/>
<polygon fill="#191970" stroke="#191970" points="319.4557,-35.4163 328.2722,-29.541 317.7161,-28.6359 319.4557,-35.4163"/>
</g>
<!-- Node39 -->
<g id="node14" class="node">
<title>Node39</title>
<g id="a_node14"><a xlink:href="class_args_manager_helper.html#a863ddbcfbd113cf88cf622a0a4e32c1d" target="_top" xlink:title="Convert regular argument into the network&#45;specific setting. ">
<polygon fill="#ffffff" stroke="#000000" points="493.5,-42.5 493.5,-72.5 602.5,-72.5 602.5,-42.5 493.5,-42.5"/>
<text text-anchor="start" x="501.5" y="-60.5" font-family="Helvetica,sans-Serif" font-size="10.00" fill="#000000">ArgsManagerHelper::</text>
<text text-anchor="middle" x="548" y="-49.5" font-family="Helvetica,sans-Serif" font-size="10.00" fill="#000000">NetworkArg</text>
</a>
</g>
</g>
<!-- Node38&#45;&gt;Node39 -->
<g id="edge13" class="edge">
<title>Node38&#45;&gt;Node39</title>
<path fill="none" stroke="#191970" d="M453.4535,-58.646C463.3348,-58.5262 473.4518,-58.4036 483.2208,-58.2852"/>
<polygon fill="#191970" stroke="#191970" points="483.294,-61.7847 493.2508,-58.1636 483.2091,-54.7852 483.294,-61.7847"/>
</g>
</g>
</svg>
