<?xml version="1.0" encoding="UTF-8" standalone="no"?>
<!DOCTYPE svg PUBLIC "-//W3C//DTD SVG 1.1//EN"
 "http://www.w3.org/Graphics/SVG/1.1/DTD/svg11.dtd">
<!-- Generated by graphviz version 2.38.0 (20140413.2041)
 -->
<!-- Title: HasWallets Pages: 1 -->
<svg width="901pt" height="844pt"
 viewBox="0.00 0.00 901.00 844.00" xmlns="http://www.w3.org/2000/svg" xmlns:xlink="http://www.w3.org/1999/xlink">
<g id="graph0" class="graph" transform="scale(1 1) rotate(0) translate(4 840)">
<title>HasWallets</title>
<polygon fill="white" stroke="none" points="-4,4 -4,-840 897,-840 897,4 -4,4"/>
<!-- Node1 -->
<g id="node1" class="node"><title>Node1</title>
<polygon fill="#bfbfbf" stroke="black" points="0,-417.5 0,-436.5 68,-436.5 68,-417.5 0,-417.5"/>
<text text-anchor="middle" x="34" y="-424.5" font-family="Helvetica,sans-Serif" font-size="10.00">HasWallets</text>
</g>
<!-- Node2 -->
<g id="node2" class="node"><title>Node2</title>
<g id="a_node2"><a xlink:href="rpcwallet_8h.html#a2fb6c6dc387554e482ce3284dd9faec8" target="_top" xlink:title="EnsureWalletIsAvailable">
<polygon fill="white" stroke="black" points="104,-417.5 104,-436.5 231,-436.5 231,-417.5 104,-417.5"/>
<text text-anchor="middle" x="167.5" y="-424.5" font-family="Helvetica,sans-Serif" font-size="10.00">EnsureWalletIsAvailable</text>
</a>
</g>
</g>
<!-- Node1&#45;&gt;Node2 -->
<g id="edge1" class="edge"><title>Node1&#45;&gt;Node2</title>
<path fill="none" stroke="midnightblue" d="M78.2486,-427C86.4556,-427 95.1945,-427 103.861,-427"/>
<polygon fill="midnightblue" stroke="midnightblue" points="78.183,-423.5 68.183,-427 78.183,-430.5 78.183,-423.5"/>
</g>
<!-- Node3 -->
<g id="node3" class="node"><title>Node3</title>
<g id="a_node3"><a xlink:href="rpcwallet_8cpp.html#a2f46e2bb304dda9a197b5a68db6106f7" target="_top" xlink:title="importprivkey">
<polygon fill="white" stroke="black" points="467,-322.5 467,-341.5 549,-341.5 549,-322.5 467,-322.5"/>
<text text-anchor="middle" x="508" y="-329.5" font-family="Helvetica,sans-Serif" font-size="10.00">importprivkey</text>
</a>
</g>
</g>
<!-- Node2&#45;&gt;Node3 -->
<g id="edge2" class="edge"><title>Node2&#45;&gt;Node3</title>
<path fill="none" stroke="midnightblue" d="M197.26,-413.057C216.622,-404.092 242.92,-392.719 267,-385 335.875,-362.922 418.758,-346.846 466.905,-338.502"/>
<polygon fill="midnightblue" stroke="midnightblue" points="195.649,-409.947 188.085,-417.366 198.624,-416.283 195.649,-409.947"/>
</g>
<!-- Node4 -->
<g id="node4" class="node"><title>Node4</title>
<g id="a_node4"><a xlink:href="rpcwallet_8cpp.html#afca55ac7a3c6c274b8b7b3e6eab9cd86" target="_top" xlink:title="walletcreatefundedpsbt">
<polygon fill="white" stroke="black" points="633,-531.5 633,-550.5 761,-550.5 761,-531.5 633,-531.5"/>
<text text-anchor="middle" x="697" y="-538.5" font-family="Helvetica,sans-Serif" font-size="10.00">walletcreatefundedpsbt</text>
</a>
</g>
</g>
<!-- Node2&#45;&gt;Node4 -->
<g id="edge52" class="edge"><title>Node2&#45;&gt;Node4</title>
<path fill="none" stroke="midnightblue" d="M178.17,-445.523C193.278,-472.489 225.142,-522.05 267,-547 388.636,-619.503 444.285,-602.056 584,-579 616.617,-573.617 652.507,-559.975 674.652,-550.591"/>
<polygon fill="midnightblue" stroke="midnightblue" points="181.224,-443.814 173.374,-436.698 175.074,-447.156 181.224,-443.814"/>
</g>
<!-- Node5 -->
<g id="node5" class="node"><title>Node5</title>
<g id="a_node5"><a xlink:href="rpcwallet_8cpp.html#a9df6d8c784683e22309cb2627d21b1f2" target="_top" xlink:title="abortrescan">
<polygon fill="white" stroke="black" points="471,-550.5 471,-569.5 545,-569.5 545,-550.5 471,-550.5"/>
<text text-anchor="middle" x="508" y="-557.5" font-family="Helvetica,sans-Serif" font-size="10.00">abortrescan</text>
</a>
</g>
</g>
<!-- Node2&#45;&gt;Node5 -->
<g id="edge4" class="edge"><title>Node2&#45;&gt;Node5</title>
<path fill="none" stroke="midnightblue" d="M182.615,-444.384C200.156,-464.728 232.073,-497.815 267,-515 333.946,-547.94 422.279,-556.857 470.949,-559.213"/>
<polygon fill="midnightblue" stroke="midnightblue" points="185.125,-441.93 176.01,-436.529 179.767,-446.435 185.125,-441.93"/>
</g>
<!-- Node6 -->
<g id="node6" class="node"><title>Node6</title>
<g id="a_node6"><a xlink:href="rpcwallet_8cpp.html#aba44e0021b6111a1f0a8c54bbff34130" target="_top" xlink:title="importaddress">
<polygon fill="white" stroke="black" points="465,-512.5 465,-531.5 551,-531.5 551,-512.5 465,-512.5"/>
<text text-anchor="middle" x="508" y="-519.5" font-family="Helvetica,sans-Serif" font-size="10.00">importaddress</text>
</a>
</g>
</g>
<!-- Node2&#45;&gt;Node6 -->
<g id="edge6" class="edge"><title>Node2&#45;&gt;Node6</title>
<path fill="none" stroke="midnightblue" d="M188.939,-442.862C208.035,-456.82 237.892,-476.508 267,-487 333.351,-510.917 415.621,-518.52 464.573,-520.918"/>
<polygon fill="midnightblue" stroke="midnightblue" points="190.827,-439.904 180.722,-436.72 186.636,-445.511 190.827,-439.904"/>
</g>
<!-- Node7 -->
<g id="node7" class="node"><title>Node7</title>
<g id="a_node7"><a xlink:href="rpcwallet_8cpp.html#a4b35e53468d94704834a928013d7e716" target="_top" xlink:title="importprunedfunds">
<polygon fill="white" stroke="black" points="454,-474.5 454,-493.5 562,-493.5 562,-474.5 454,-474.5"/>
<text text-anchor="middle" x="508" y="-481.5" font-family="Helvetica,sans-Serif" font-size="10.00">importprunedfunds</text>
</a>
</g>
</g>
<!-- Node2&#45;&gt;Node7 -->
<g id="edge8" class="edge"><title>Node2&#45;&gt;Node7</title>
<path fill="none" stroke="midnightblue" d="M197.473,-440.735C216.736,-449.221 242.842,-459.507 267,-465 330.173,-479.365 404.829,-483.301 453.905,-484.169"/>
<polygon fill="midnightblue" stroke="midnightblue" points="198.893,-437.536 188.338,-436.619 196.018,-443.918 198.893,-437.536"/>
</g>
<!-- Node8 -->
<g id="node8" class="node"><title>Node8</title>
<g id="a_node8"><a xlink:href="rpcwallet_8cpp.html#a85478b0b9837a3e5467dce66fcb5ffb0" target="_top" xlink:title="removeprunedfunds">
<polygon fill="white" stroke="black" points="275,-436.5 275,-455.5 388,-455.5 388,-436.5 275,-436.5"/>
<text text-anchor="middle" x="331.5" y="-443.5" font-family="Helvetica,sans-Serif" font-size="10.00">removeprunedfunds</text>
</a>
</g>
</g>
<!-- Node2&#45;&gt;Node8 -->
<g id="edge10" class="edge"><title>Node2&#45;&gt;Node8</title>
<path fill="none" stroke="midnightblue" d="M241.385,-435.548C252.64,-436.868 264.107,-438.213 274.903,-439.479"/>
<polygon fill="midnightblue" stroke="midnightblue" points="241.473,-432.035 231.133,-434.346 240.658,-438.987 241.473,-432.035"/>
</g>
<!-- Node9 -->
<g id="node9" class="node"><title>Node9</title>
<g id="a_node9"><a xlink:href="rpcwallet_8cpp.html#a1e79cb342ad4f0bf7b02a2b1e18af7ff" target="_top" xlink:title="importpubkey">
<polygon fill="white" stroke="black" points="290,-816.5 290,-835.5 373,-835.5 373,-816.5 290,-816.5"/>
<text text-anchor="middle" x="331.5" y="-823.5" font-family="Helvetica,sans-Serif" font-size="10.00">importpubkey</text>
</a>
</g>
</g>
<!-- Node2&#45;&gt;Node9 -->
<g id="edge12" class="edge"><title>Node2&#45;&gt;Node9</title>
<path fill="none" stroke="midnightblue" d="M171.037,-446.677C180.464,-516.873 215.598,-753.654 267,-807 273.148,-813.381 281.342,-817.642 289.796,-820.481"/>
<polygon fill="midnightblue" stroke="midnightblue" points="174.481,-446.019 169.704,-436.562 167.541,-446.934 174.481,-446.019"/>
</g>
<!-- Node10 -->
<g id="node10" class="node"><title>Node10</title>
<g id="a_node10"><a xlink:href="wallet__tests_8cpp.html#a8c64ef6e0ced69002923098229448758" target="_top" xlink:title="importwallet">
<polygon fill="white" stroke="black" points="470.5,-171.5 470.5,-190.5 545.5,-190.5 545.5,-171.5 470.5,-171.5"/>
<text text-anchor="middle" x="508" y="-178.5" font-family="Helvetica,sans-Serif" font-size="10.00">importwallet</text>
</a>
</g>
</g>
<!-- Node2&#45;&gt;Node10 -->
<g id="edge14" class="edge"><title>Node2&#45;&gt;Node10</title>
<path fill="none" stroke="midnightblue" d="M170.087,-407.299C174.988,-360.951 194.298,-245.081 267,-194 327.603,-151.419 419.546,-161.636 470.235,-171.906"/>
<polygon fill="midnightblue" stroke="midnightblue" points="166.601,-406.986 169.146,-417.27 173.57,-407.643 166.601,-406.986"/>
</g>
<!-- Node12 -->
<g id="node12" class="node"><title>Node12</title>
<g id="a_node12"><a xlink:href="rpcwallet_8cpp.html#ab3f51d8e8fe414dbf91c37485e481ae3" target="_top" xlink:title="dumpprivkey">
<polygon fill="white" stroke="black" points="469,-284.5 469,-303.5 547,-303.5 547,-284.5 469,-284.5"/>
<text text-anchor="middle" x="508" y="-291.5" font-family="Helvetica,sans-Serif" font-size="10.00">dumpprivkey</text>
</a>
</g>
</g>
<!-- Node2&#45;&gt;Node12 -->
<g id="edge16" class="edge"><title>Node2&#45;&gt;Node12</title>
<path fill="none" stroke="midnightblue" d="M185.059,-409.984C203.434,-392.104 234.769,-364.471 267,-349 333.669,-316.999 419.834,-303.132 468.699,-297.504"/>
<polygon fill="midnightblue" stroke="midnightblue" points="182.192,-407.9 177.572,-417.434 187.129,-412.862 182.192,-407.9"/>
</g>
<!-- Node13 -->
<g id="node13" class="node"><title>Node13</title>
<g id="a_node13"><a xlink:href="wallet__tests_8cpp.html#a73ce3a42e0b56b2e4516e55871d8590e" target="_top" xlink:title="dumpwallet">
<polygon fill="white" stroke="black" points="472.5,-133.5 472.5,-152.5 543.5,-152.5 543.5,-133.5 472.5,-133.5"/>
<text text-anchor="middle" x="508" y="-140.5" font-family="Helvetica,sans-Serif" font-size="10.00">dumpwallet</text>
</a>
</g>
</g>
<!-- Node2&#45;&gt;Node13 -->
<g id="edge18" class="edge"><title>Node2&#45;&gt;Node13</title>
<path fill="none" stroke="midnightblue" d="M168.952,-407.271C171.296,-356.342 185.28,-220.172 267,-159 327.342,-113.831 421.905,-124.403 472.434,-134.568"/>
<polygon fill="midnightblue" stroke="midnightblue" points="165.453,-407.177 168.595,-417.295 172.449,-407.426 165.453,-407.177"/>
</g>
<!-- Node14 -->
<g id="node14" class="node"><title>Node14</title>
<g id="a_node14"><a xlink:href="wallet__tests_8cpp.html#af0e3c9469f1d8f368d3d5f38e5580367" target="_top" xlink:title="importmulti">
<polygon fill="white" stroke="black" points="472,-95.5 472,-114.5 544,-114.5 544,-95.5 472,-95.5"/>
<text text-anchor="middle" x="508" y="-102.5" font-family="Helvetica,sans-Serif" font-size="10.00">importmulti</text>
</a>
</g>
</g>
<!-- Node2&#45;&gt;Node14 -->
<g id="edge20" class="edge"><title>Node2&#45;&gt;Node14</title>
<path fill="none" stroke="midnightblue" d="M167.984,-407.285C167.724,-351.813 175.399,-193.765 267,-122 326.187,-75.6302 420.794,-86.0634 471.751,-96.3449"/>
<polygon fill="midnightblue" stroke="midnightblue" points="164.488,-407.55 168.133,-417.498 171.487,-407.448 164.488,-407.55"/>
</g>
<!-- Node16 -->
<g id="node16" class="node"><title>Node16</title>
<g id="a_node16"><a xlink:href="rpcwallet_8h.html#aae9bc665151c5bab626a7ffcaeed9c0d" target="_top" xlink:title="EnsureWalletIsUnlocked">
<polygon fill="white" stroke="black" points="267,-228.5 267,-247.5 396,-247.5 396,-228.5 267,-228.5"/>
<text text-anchor="middle" x="331.5" y="-235.5" font-family="Helvetica,sans-Serif" font-size="10.00">EnsureWalletIsUnlocked</text>
</a>
</g>
</g>
<!-- Node2&#45;&gt;Node16 -->
<g id="edge22" class="edge"><title>Node2&#45;&gt;Node16</title>
<path fill="none" stroke="midnightblue" d="M177.909,-408.246C193.465,-378.53 226.851,-319.909 267,-280 280.405,-266.675 298.648,-255.131 312.141,-247.537"/>
<polygon fill="midnightblue" stroke="midnightblue" points="174.625,-406.979 173.168,-417.473 180.851,-410.178 174.625,-406.979"/>
</g>
<!-- Node17 -->
<g id="node17" class="node"><title>Node17</title>
<g id="a_node17"><a xlink:href="rpcwallet_8cpp.html#a74b85c92ee6a84277c73b74f2e212bff" target="_top" xlink:title="listtransactions">
<polygon fill="white" stroke="black" points="463.5,-398.5 463.5,-417.5 552.5,-417.5 552.5,-398.5 463.5,-398.5"/>
<text text-anchor="middle" x="508" y="-405.5" font-family="Helvetica,sans-Serif" font-size="10.00">listtransactions</text>
</a>
</g>
</g>
<!-- Node2&#45;&gt;Node17 -->
<g id="edge39" class="edge"><title>Node2&#45;&gt;Node17</title>
<path fill="none" stroke="midnightblue" d="M241.524,-422.901C309.054,-419.111 407.191,-413.602 463.293,-410.453"/>
<polygon fill="midnightblue" stroke="midnightblue" points="241.164,-419.416 231.376,-423.471 241.556,-426.405 241.164,-419.416"/>
</g>
<!-- Node18 -->
<g id="node18" class="node"><title>Node18</title>
<g id="a_node18"><a xlink:href="rpcwallet_8h.html#a7c13054932c9e3b351bd6277fa9361d7" target="_top" xlink:title="signrawtransactionwithwallet">
<polygon fill="white" stroke="black" points="432,-228.5 432,-247.5 584,-247.5 584,-228.5 432,-228.5"/>
<text text-anchor="middle" x="508" y="-235.5" font-family="Helvetica,sans-Serif" font-size="10.00">signrawtransactionwithwallet</text>
</a>
</g>
</g>
<!-- Node2&#45;&gt;Node18 -->
<g id="edge42" class="edge"><title>Node2&#45;&gt;Node18</title>
<path fill="none" stroke="midnightblue" d="M170.963,-407.111C177.517,-363.827 199.747,-261.565 267,-219 336.576,-174.965 441.193,-209.954 485.719,-228.421"/>
<polygon fill="midnightblue" stroke="midnightblue" points="167.468,-406.831 169.561,-417.217 174.402,-407.793 167.468,-406.831"/>
</g>
<!-- Node21 -->
<g id="node21" class="node"><title>Node21</title>
<g id="a_node21"><a xlink:href="rpcwallet_8cpp.html#a61c7a90d1b36888fe11b751e746e18c0" target="_top" xlink:title="sethdseed">
<polygon fill="white" stroke="black" points="474.5,-360.5 474.5,-379.5 541.5,-379.5 541.5,-360.5 474.5,-360.5"/>
<text text-anchor="middle" x="508" y="-367.5" font-family="Helvetica,sans-Serif" font-size="10.00">sethdseed</text>
</a>
</g>
</g>
<!-- Node2&#45;&gt;Node21 -->
<g id="edge49" class="edge"><title>Node2&#45;&gt;Node21</title>
<path fill="none" stroke="midnightblue" d="M233.574,-415.714C244.723,-413.797 256.193,-411.833 267,-410 341.131,-397.425 428.204,-382.999 474.382,-375.375"/>
<polygon fill="midnightblue" stroke="midnightblue" points="232.715,-412.311 223.454,-417.458 233.903,-419.209 232.715,-412.311"/>
</g>
<!-- Node22 -->
<g id="node22" class="node"><title>Node22</title>
<g id="a_node22"><a xlink:href="class_witnessifier.html#a5b29f730e26f9448de0300e1ff910c70" target="_top" xlink:title="Witnessifier::operator()">
<polygon fill="white" stroke="black" points="269,-38.5 269,-57.5 394,-57.5 394,-38.5 269,-38.5"/>
<text text-anchor="middle" x="331.5" y="-45.5" font-family="Helvetica,sans-Serif" font-size="10.00">Witnessifier::operator()</text>
</a>
</g>
</g>
<!-- Node2&#45;&gt;Node22 -->
<g id="edge37" class="edge"><title>Node2&#45;&gt;Node22</title>
<path fill="none" stroke="midnightblue" d="M168.125,-407.134C168.096,-348.095 176.023,-171.627 267,-72 272.801,-65.647 280.458,-60.9656 288.439,-57.5191"/>
<polygon fill="midnightblue" stroke="midnightblue" points="164.626,-407.35 168.214,-417.319 171.626,-407.288 164.626,-407.35"/>
</g>
<!-- Node23 -->
<g id="node23" class="node"><title>Node23</title>
<g id="a_node23"><a xlink:href="structtallyitem.html#ae5422f8bac6178b3e7dd634d6bfc454c" target="_top" xlink:title="tallyitem::tallyitem">
<polygon fill="white" stroke="black" points="279,-0.5 279,-19.5 384,-19.5 384,-0.5 279,-0.5"/>
<text text-anchor="middle" x="331.5" y="-7.5" font-family="Helvetica,sans-Serif" font-size="10.00">tallyitem::tallyitem</text>
</a>
</g>
</g>
<!-- Node2&#45;&gt;Node23 -->
<g id="edge38" class="edge"><title>Node2&#45;&gt;Node23</title>
<path fill="none" stroke="midnightblue" d="M170.79,-407.327C179.582,-335.02 213.394,-85.2498 267,-29 270.652,-25.1681 275.042,-22.0998 279.786,-19.6444"/>
<polygon fill="midnightblue" stroke="midnightblue" points="167.303,-407.007 169.594,-417.352 174.254,-407.836 167.303,-407.007"/>
</g>
<!-- Node24 -->
<g id="node24" class="node"><title>Node24</title>
<g id="a_node24"><a xlink:href="rpcwallet_8cpp.html#aaaebd94e806360dd08e7254b09c7997b" target="_top" xlink:title="FundTransaction">
<polygon fill="white" stroke="black" points="285,-778.5 285,-797.5 378,-797.5 378,-778.5 285,-778.5"/>
<text text-anchor="middle" x="331.5" y="-785.5" font-family="Helvetica,sans-Serif" font-size="10.00">FundTransaction</text>
</a>
</g>
</g>
<!-- Node2&#45;&gt;Node24 -->
<g id="edge40" class="edge"><title>Node2&#45;&gt;Node24</title>
<path fill="none" stroke="midnightblue" d="M168.058,-446.836C167.881,-504.957 175.519,-676.571 267,-769 271.938,-773.989 278.128,-777.679 284.693,-780.406"/>
<polygon fill="midnightblue" stroke="midnightblue" points="171.558,-446.822 168.175,-436.782 164.559,-446.74 171.558,-446.822"/>
</g>
<!-- Node25 -->
<g id="node25" class="node"><title>Node25</title>
<g id="a_node25"><a xlink:href="rpcwallet_8cpp.html#a236a42206aa464fbb10bae6e6243092b" target="_top" xlink:title="generate">
<polygon fill="white" stroke="black" points="301.5,-740.5 301.5,-759.5 361.5,-759.5 361.5,-740.5 301.5,-740.5"/>
<text text-anchor="middle" x="331.5" y="-747.5" font-family="Helvetica,sans-Serif" font-size="10.00">generate</text>
</a>
</g>
</g>
<!-- Node2&#45;&gt;Node25 -->
<g id="edge43" class="edge"><title>Node2&#45;&gt;Node25</title>
<path fill="none" stroke="midnightblue" d="M168.895,-446.735C171.063,-500.414 184.582,-650.425 267,-731 276.133,-739.929 289.285,-744.687 301.252,-747.212"/>
<polygon fill="midnightblue" stroke="midnightblue" points="172.387,-446.427 168.578,-436.541 165.391,-446.645 172.387,-446.427"/>
</g>
<!-- Node26 -->
<g id="node26" class="node"><title>Node26</title>
<g id="a_node26"><a xlink:href="rpcwallet_8cpp.html#a151535abf7394b299deb8d0a333de70b" target="_top" xlink:title="rescanblockchain">
<polygon fill="white" stroke="black" points="282,-702.5 282,-721.5 381,-721.5 381,-702.5 282,-702.5"/>
<text text-anchor="middle" x="331.5" y="-709.5" font-family="Helvetica,sans-Serif" font-size="10.00">rescanblockchain</text>
</a>
</g>
</g>
<!-- Node2&#45;&gt;Node26 -->
<g id="edge45" class="edge"><title>Node2&#45;&gt;Node26</title>
<path fill="none" stroke="midnightblue" d="M169.963,-446.862C174.661,-495.997 193.682,-624.225 267,-693 271.28,-697.015 276.375,-700.184 281.791,-702.686"/>
<polygon fill="midnightblue" stroke="midnightblue" points="173.428,-446.306 169.088,-436.641 166.454,-446.903 173.428,-446.306"/>
</g>
<!-- Node27 -->
<g id="node27" class="node"><title>Node27</title>
<g id="a_node27"><a xlink:href="rpcwallet_8h.html#a3f008088e017b871e32cfae02b622bc8" target="_top" xlink:title="getaddressinfo">
<polygon fill="white" stroke="black" points="287.5,-664.5 287.5,-683.5 375.5,-683.5 375.5,-664.5 287.5,-664.5"/>
<text text-anchor="middle" x="331.5" y="-671.5" font-family="Helvetica,sans-Serif" font-size="10.00">getaddressinfo</text>
</a>
</g>
</g>
<!-- Node2&#45;&gt;Node27 -->
<g id="edge47" class="edge"><title>Node2&#45;&gt;Node27</title>
<path fill="none" stroke="midnightblue" d="M171.369,-446.98C178.777,-491.17 202.679,-597.8 267,-655 272.761,-660.123 279.856,-663.866 287.193,-666.601"/>
<polygon fill="midnightblue" stroke="midnightblue" points="174.8,-446.27 169.793,-436.933 167.885,-447.355 174.8,-446.27"/>
</g>
<!-- Node28 -->
<g id="node28" class="node"><title>Node28</title>
<g id="a_node28"><a xlink:href="rpcwallet_8cpp.html#a9c99ceacf389a1ce91977c6f7ffa5022" target="_top" xlink:title="walletprocesspsbt">
<polygon fill="white" stroke="black" points="280.5,-626.5 280.5,-645.5 382.5,-645.5 382.5,-626.5 280.5,-626.5"/>
<text text-anchor="middle" x="331.5" y="-633.5" font-family="Helvetica,sans-Serif" font-size="10.00">walletprocesspsbt</text>
</a>
</g>
</g>
<!-- Node2&#45;&gt;Node28 -->
<g id="edge50" class="edge"><title>Node2&#45;&gt;Node28</title>
<path fill="none" stroke="midnightblue" d="M173.874,-446.652C185.053,-483.995 214.262,-565.61 267,-612 274.079,-618.227 282.935,-622.906 291.766,-626.396"/>
<polygon fill="midnightblue" stroke="midnightblue" points="177.104,-445.217 170.978,-436.572 170.376,-447.15 177.104,-445.217"/>
</g>
<!-- Node3&#45;&gt;Node4 -->
<g id="edge3" class="edge"><title>Node3&#45;&gt;Node4</title>
<path fill="none" stroke="midnightblue" d="M559.278,-338.881C568.083,-341.664 576.737,-345.557 584,-351 649.572,-400.141 683.78,-499.895 693.24,-531.304"/>
<polygon fill="midnightblue" stroke="midnightblue" points="559.907,-335.425 549.34,-336.188 558.076,-342.182 559.907,-335.425"/>
</g>
<!-- Node5&#45;&gt;Node4 -->
<g id="edge5" class="edge"><title>Node5&#45;&gt;Node4</title>
<path fill="none" stroke="midnightblue" d="M555.071,-555.319C578.496,-552.939 607.322,-550.01 632.788,-547.423"/>
<polygon fill="midnightblue" stroke="midnightblue" points="554.65,-551.844 545.055,-556.337 555.358,-558.808 554.65,-551.844"/>
</g>
<!-- Node6&#45;&gt;Node4 -->
<g id="edge7" class="edge"><title>Node6&#45;&gt;Node4</title>
<path fill="none" stroke="midnightblue" d="M561.627,-527.347C583.74,-529.594 609.65,-532.226 632.786,-534.577"/>
<polygon fill="midnightblue" stroke="midnightblue" points="561.736,-523.84 551.433,-526.311 561.028,-530.804 561.736,-523.84"/>
</g>
<!-- Node7&#45;&gt;Node4 -->
<g id="edge9" class="edge"><title>Node7&#45;&gt;Node4</title>
<path fill="none" stroke="midnightblue" d="M558.961,-496.071C567.351,-498.265 575.946,-500.617 584,-503 613.535,-511.737 646.911,-523.281 669.486,-531.344"/>
<polygon fill="midnightblue" stroke="midnightblue" points="559.807,-492.674 549.25,-493.575 558.064,-499.454 559.807,-492.674"/>
</g>
<!-- Node8&#45;&gt;Node4 -->
<g id="edge11" class="edge"><title>Node8&#45;&gt;Node4</title>
<path fill="none" stroke="midnightblue" d="M398.201,-441.846C450.076,-440.705 523.537,-443.897 584,-465 626.153,-479.712 667.43,-514.45 685.911,-531.384"/>
<polygon fill="midnightblue" stroke="midnightblue" points="398.022,-438.35 388.124,-442.129 398.218,-445.347 398.022,-438.35"/>
</g>
<!-- Node9&#45;&gt;Node4 -->
<g id="edge13" class="edge"><title>Node9&#45;&gt;Node4</title>
<path fill="none" stroke="midnightblue" d="M383.391,-828.889C438.434,-829.34 526.062,-821.971 584,-777 662.459,-716.1 688.644,-586.685 694.574,-550.548"/>
<polygon fill="midnightblue" stroke="midnightblue" points="383.23,-825.385 373.171,-828.712 383.109,-832.384 383.23,-825.385"/>
</g>
<!-- Node11 -->
<g id="node11" class="node"><title>Node11</title>
<g id="a_node11"><a xlink:href="wallet__tests_8cpp.html#a2a726fa52b0a343883cb50a3f68d0989" target="_top" xlink:title="BOOST_FIXTURE_TEST_CASE">
<polygon fill="white" stroke="black" points="620,-152.5 620,-171.5 774,-171.5 774,-152.5 620,-152.5"/>
<text text-anchor="middle" x="697" y="-159.5" font-family="Helvetica,sans-Serif" font-size="10.00">BOOST_FIXTURE_TEST_CASE</text>
</a>
</g>
</g>
<!-- Node10&#45;&gt;Node11 -->
<g id="edge15" class="edge"><title>Node10&#45;&gt;Node11</title>
<path fill="none" stroke="midnightblue" d="M555.977,-176.227C575.272,-174.266 598.114,-171.946 619.691,-169.753"/>
<polygon fill="midnightblue" stroke="midnightblue" points="555.54,-172.753 545.945,-177.246 556.248,-179.717 555.54,-172.753"/>
</g>
<!-- Node12&#45;&gt;Node4 -->
<g id="edge17" class="edge"><title>Node12&#45;&gt;Node4</title>
<path fill="none" stroke="midnightblue" d="M557.319,-299.725C566.889,-302.573 576.333,-306.785 584,-313 658.687,-373.539 687.39,-496.309 694.266,-531.422"/>
<polygon fill="midnightblue" stroke="midnightblue" points="557.921,-296.268 547.37,-297.225 556.215,-303.057 557.921,-296.268"/>
</g>
<!-- Node13&#45;&gt;Node11 -->
<g id="edge19" class="edge"><title>Node13&#45;&gt;Node11</title>
<path fill="none" stroke="midnightblue" d="M553.712,-147.543C573.558,-149.559 597.476,-151.99 619.992,-154.277"/>
<polygon fill="midnightblue" stroke="midnightblue" points="554.038,-144.058 543.735,-146.529 553.33,-151.022 554.038,-144.058"/>
</g>
<!-- Node15 -->
<g id="node15" class="node"><title>Node15</title>
<g id="a_node15"><a xlink:href="wallet__tests_8cpp.html#acc117bb030f4fc677e16addf014e9908" target="_top" xlink:title="BOOST_FIXTURE_TEST_CASE">
<polygon fill="white" stroke="black" points="620,-95.5 620,-114.5 774,-114.5 774,-95.5 620,-95.5"/>
<text text-anchor="middle" x="697" y="-102.5" font-family="Helvetica,sans-Serif" font-size="10.00">BOOST_FIXTURE_TEST_CASE</text>
</a>
</g>
</g>
<!-- Node14&#45;&gt;Node15 -->
<g id="edge21" class="edge"><title>Node14&#45;&gt;Node15</title>
<path fill="none" stroke="midnightblue" d="M554.381,-105C574.075,-105 597.683,-105 619.927,-105"/>
<polygon fill="midnightblue" stroke="midnightblue" points="554.173,-101.5 544.173,-105 554.173,-108.5 554.173,-101.5"/>
</g>
<!-- Node16&#45;&gt;Node3 -->
<g id="edge23" class="edge"><title>Node16&#45;&gt;Node3</title>
<path fill="none" stroke="midnightblue" d="M349.801,-254.501C368.601,-271.554 400.225,-297.768 432,-313 442.78,-318.168 455.129,-322.039 466.654,-324.89"/>
<polygon fill="midnightblue" stroke="midnightblue" points="352.056,-251.819 342.339,-247.598 347.303,-256.958 352.056,-251.819"/>
</g>
<!-- Node16&#45;&gt;Node10 -->
<g id="edge24" class="edge"><title>Node16&#45;&gt;Node10</title>
<path fill="none" stroke="midnightblue" d="M371.244,-225.344C403.411,-214.837 448.471,-200.118 477.697,-190.572"/>
<polygon fill="midnightblue" stroke="midnightblue" points="370.126,-222.027 361.707,-228.459 372.3,-228.681 370.126,-222.027"/>
</g>
<!-- Node16&#45;&gt;Node12 -->
<g id="edge25" class="edge"><title>Node16&#45;&gt;Node12</title>
<path fill="none" stroke="midnightblue" d="M372.415,-250.81C404.385,-261.069 448.514,-275.231 477.394,-284.499"/>
<polygon fill="midnightblue" stroke="midnightblue" points="373.089,-247.35 362.498,-247.627 370.95,-254.015 373.089,-247.35"/>
</g>
<!-- Node16&#45;&gt;Node13 -->
<g id="edge26" class="edge"><title>Node16&#45;&gt;Node13</title>
<path fill="none" stroke="midnightblue" d="M349.76,-221.268C368.525,-203.979 400.12,-177.408 432,-162 444.578,-155.921 459.314,-151.646 472.379,-148.712"/>
<polygon fill="midnightblue" stroke="midnightblue" points="347.202,-218.869 342.312,-228.268 351.996,-223.969 347.202,-218.869"/>
</g>
<!-- Node16&#45;&gt;Node14 -->
<g id="edge27" class="edge"><title>Node16&#45;&gt;Node14</title>
<path fill="none" stroke="midnightblue" d="M343.422,-219.613C359.529,-194.142 392.1,-148.499 432,-124 443.904,-116.69 458.514,-112.184 471.667,-109.41"/>
<polygon fill="midnightblue" stroke="midnightblue" points="340.335,-217.95 338.074,-228.301 346.296,-221.62 340.335,-217.95"/>
</g>
<!-- Node16&#45;&gt;Node16 -->
<g id="edge28" class="edge"><title>Node16&#45;&gt;Node16</title>
<path fill="none" stroke="midnightblue" d="M300.811,-256.275C301.686,-261.741 311.916,-266 331.5,-266 360.648,-266 369.074,-256.565 356.777,-247.757"/>
<polygon fill="midnightblue" stroke="midnightblue" points="303.814,-258.075 306.223,-247.757 297.906,-254.321 303.814,-258.075"/>
</g>
<!-- Node16&#45;&gt;Node17 -->
<g id="edge29" class="edge"><title>Node16&#45;&gt;Node17</title>
<path fill="none" stroke="midnightblue" d="M339.698,-257.179C352.86,-289.551 383.957,-354.837 432,-389 441.195,-395.539 452.431,-399.832 463.378,-402.65"/>
<polygon fill="midnightblue" stroke="midnightblue" points="342.833,-255.587 335.923,-247.555 336.316,-258.143 342.833,-255.587"/>
</g>
<!-- Node16&#45;&gt;Node18 -->
<g id="edge31" class="edge"><title>Node16&#45;&gt;Node18</title>
<path fill="none" stroke="midnightblue" d="M406.564,-238C414.91,-238 423.421,-238 431.782,-238"/>
<polygon fill="midnightblue" stroke="midnightblue" points="406.487,-234.5 396.486,-238 406.486,-241.5 406.487,-234.5"/>
</g>
<!-- Node16&#45;&gt;Node21 -->
<g id="edge35" class="edge"><title>Node16&#45;&gt;Node21</title>
<path fill="none" stroke="midnightblue" d="M343.462,-256.224C359.617,-281.469 392.245,-326.709 432,-351 444.723,-358.774 460.513,-363.378 474.318,-366.1"/>
<polygon fill="midnightblue" stroke="midnightblue" points="346.355,-254.249 338.096,-247.613 340.414,-257.951 346.355,-254.249"/>
</g>
<!-- Node17&#45;&gt;Node4 -->
<g id="edge30" class="edge"><title>Node17&#45;&gt;Node4</title>
<path fill="none" stroke="midnightblue" d="M560.204,-420.863C568.448,-423.916 576.671,-427.599 584,-432 630.29,-459.796 672.291,-510.243 688.7,-531.329"/>
<polygon fill="midnightblue" stroke="midnightblue" points="561.164,-417.493 550.57,-417.563 558.896,-424.115 561.164,-417.493"/>
</g>
<!-- Node18&#45;&gt;Node4 -->
<g id="edge34" class="edge"><title>Node18&#45;&gt;Node4</title>
<path fill="none" stroke="midnightblue" d="M549.526,-251.613C561.822,-257.304 574.56,-264.978 584,-275 659.584,-355.243 687.973,-494.016 694.463,-531.459"/>
<polygon fill="midnightblue" stroke="midnightblue" points="550.84,-248.369 540.27,-247.642 548.08,-254.802 550.84,-248.369"/>
</g>
<!-- Node19 -->
<g id="node19" class="node"><title>Node19</title>
<g id="a_node19"><a xlink:href="rawtransaction_8cpp.html#a5b2abfea4548c97e780cfae39f9ac11b" target="_top" xlink:title="signrawtransaction">
<polygon fill="white" stroke="black" points="643.5,-228.5 643.5,-247.5 750.5,-247.5 750.5,-228.5 643.5,-228.5"/>
<text text-anchor="middle" x="697" y="-235.5" font-family="Helvetica,sans-Serif" font-size="10.00">signrawtransaction</text>
</a>
</g>
</g>
<!-- Node18&#45;&gt;Node19 -->
<g id="edge32" class="edge"><title>Node18&#45;&gt;Node19</title>
<path fill="none" stroke="midnightblue" d="M594.538,-238C611.158,-238 628.117,-238 643.292,-238"/>
<polygon fill="midnightblue" stroke="midnightblue" points="594.252,-234.5 584.252,-238 594.252,-241.5 594.252,-234.5"/>
</g>
<!-- Node20 -->
<g id="node20" class="node"><title>Node20</title>
<g id="a_node20"><a xlink:href="rawtransaction_8cpp.html#a6b6a0c0d5bd5b55553ea48b3da2e796c" target="_top" xlink:title="converttopsbt">
<polygon fill="white" stroke="black" points="810,-228.5 810,-247.5 893,-247.5 893,-228.5 810,-228.5"/>
<text text-anchor="middle" x="851.5" y="-235.5" font-family="Helvetica,sans-Serif" font-size="10.00">converttopsbt</text>
</a>
</g>
</g>
<!-- Node19&#45;&gt;Node20 -->
<g id="edge33" class="edge"><title>Node19&#45;&gt;Node20</title>
<path fill="none" stroke="midnightblue" d="M761.012,-238C777.459,-238 794.754,-238 809.708,-238"/>
<polygon fill="midnightblue" stroke="midnightblue" points="760.909,-234.5 750.909,-238 760.909,-241.5 760.909,-234.5"/>
</g>
<!-- Node21&#45;&gt;Node4 -->
<g id="edge36" class="edge"><title>Node21&#45;&gt;Node4</title>
<path fill="none" stroke="midnightblue" d="M551.71,-375.506C562.872,-378.32 574.442,-382.573 584,-389 640.852,-427.226 679.525,-504.347 691.81,-531.376"/>
<polygon fill="midnightblue" stroke="midnightblue" points="552.161,-372.021 541.644,-373.304 550.665,-378.86 552.161,-372.021"/>
</g>
<!-- Node24&#45;&gt;Node4 -->
<g id="edge41" class="edge"><title>Node24&#45;&gt;Node4</title>
<path fill="none" stroke="midnightblue" d="M388.496,-790.035C443.242,-789.256 526.523,-780.401 584,-739 652.898,-689.373 685.067,-583.447 693.604,-550.791"/>
<polygon fill="midnightblue" stroke="midnightblue" points="388.262,-786.536 378.282,-790.092 388.301,-793.536 388.262,-786.536"/>
</g>
<!-- Node25&#45;&gt;Node4 -->
<g id="edge44" class="edge"><title>Node25&#45;&gt;Node4</title>
<path fill="none" stroke="midnightblue" d="M372.14,-751.563C424.758,-751.758 518.626,-745.395 584,-703 644.531,-663.745 681.366,-579.147 692.446,-550.618"/>
<polygon fill="midnightblue" stroke="midnightblue" points="371.916,-748.06 361.875,-751.439 371.832,-755.06 371.916,-748.06"/>
</g>
<!-- Node26&#45;&gt;Node4 -->
<g id="edge46" class="edge"><title>Node26&#45;&gt;Node4</title>
<path fill="none" stroke="midnightblue" d="M391.07,-712.872C444.527,-711.243 524.095,-702.559 584,-669 636.81,-639.415 676.862,-575.132 690.724,-550.694"/>
<polygon fill="midnightblue" stroke="midnightblue" points="390.989,-709.373 381.072,-713.104 391.151,-716.371 390.989,-709.373"/>
</g>
<!-- Node27&#45;&gt;Node4 -->
<g id="edge48" class="edge"><title>Node27&#45;&gt;Node4</title>
<path fill="none" stroke="midnightblue" d="M386.071,-674.946C438.724,-673.936 520.231,-667.089 584,-638 630.104,-616.969 671.575,-570.865 688.242,-550.731"/>
<polygon fill="midnightblue" stroke="midnightblue" points="385.894,-671.448 375.939,-675.075 385.983,-678.447 385.894,-671.448"/>
</g>
<!-- Node28&#45;&gt;Node4 -->
<g id="edge51" class="edge"><title>Node28&#45;&gt;Node4</title>
<path fill="none" stroke="midnightblue" d="M392.681,-638.034C444.692,-637.983 521.176,-633.524 584,-612 624.728,-598.047 665.716,-566.594 684.853,-550.652"/>
<polygon fill="midnightblue" stroke="midnightblue" points="392.632,-634.533 382.616,-637.989 392.6,-641.533 392.632,-634.533"/>
</g>
</g>
</svg>
