<?xml version="1.0" encoding="UTF-8" standalone="no"?>
<!DOCTYPE svg PUBLIC "-//W3C//DTD SVG 1.1//EN"
 "http://www.w3.org/Graphics/SVG/1.1/DTD/svg11.dtd">
<!-- Generated by graphviz version 2.49.3 (0)
 -->
<!-- Title: src/wallet/context.h Pages: 1 -->
<svg width="962pt" height="95pt"
 viewBox="0.00 0.00 961.50 95.00" xmlns="http://www.w3.org/2000/svg" xmlns:xlink="http://www.w3.org/1999/xlink">
<g id="graph0" class="graph" transform="scale(1 1) rotate(0) translate(4 91)">
<title>src/wallet/context.h</title>
<polygon fill="white" stroke="transparent" points="-4,4 -4,-91 957.5,-91 957.5,4 -4,4"/>
<!-- Node1 -->
<g id="node1" class="node">
<title>Node1</title>
<g id="a_node1"><a xlink:title=" ">
<polygon fill="#bfbfbf" stroke="black" points="431.5,-67.5 431.5,-86.5 544.5,-86.5 544.5,-67.5 431.5,-67.5"/>
<text text-anchor="middle" x="488" y="-74.5" font-family="Helvetica,sans-Serif" font-size="10.00">src/wallet/context.h</text>
</a>
</g>
</g>
<!-- Node2 -->
<g id="node2" class="node">
<title>Node2</title>
<g id="a_node2"><a xlink:href="wallet_2context_8cpp.html" target="_top" xlink:title=" ">
<polygon fill="white" stroke="black" points="0,-6 0,-25 124,-25 124,-6 0,-6"/>
<text text-anchor="middle" x="62" y="-13" font-family="Helvetica,sans-Serif" font-size="10.00">src/wallet/context.cpp</text>
</a>
</g>
</g>
<!-- Node1&#45;&gt;Node2 -->
<g id="edge1" class="edge">
<title>Node1&#45;&gt;Node2</title>
<path fill="none" stroke="midnightblue" d="M421.02,-69.03C349.49,-61.24 232.9,-47.51 133,-31 122.57,-29.28 111.35,-27.12 100.96,-25.01"/>
<polygon fill="midnightblue" stroke="midnightblue" points="420.93,-72.54 431.24,-70.14 421.68,-65.58 420.93,-72.54"/>
</g>
<!-- Node3 -->
<g id="node3" class="node">
<title>Node3</title>
<g id="a_node3"><a xlink:href="wallet_2interfaces_8cpp.html" target="_top" xlink:title=" ">
<polygon fill="white" stroke="black" points="142,-6 142,-25 278,-25 278,-6 142,-6"/>
<text text-anchor="middle" x="210" y="-13" font-family="Helvetica,sans-Serif" font-size="10.00">src/wallet/interfaces.cpp</text>
</a>
</g>
</g>
<!-- Node1&#45;&gt;Node3 -->
<g id="edge2" class="edge">
<title>Node1&#45;&gt;Node3</title>
<path fill="none" stroke="midnightblue" d="M438.15,-65.33C384.24,-53.79 299.37,-35.63 249.76,-25.01"/>
<polygon fill="midnightblue" stroke="midnightblue" points="437.66,-68.8 448.17,-67.48 439.12,-61.96 437.66,-68.8"/>
</g>
<!-- Node4 -->
<g id="node4" class="node">
<title>Node4</title>
<g id="a_node4"><a xlink:href="load_8cpp.html" target="_top" xlink:title=" ">
<polygon fill="white" stroke="black" points="296,-6 296,-25 404,-25 404,-6 296,-6"/>
<text text-anchor="middle" x="350" y="-13" font-family="Helvetica,sans-Serif" font-size="10.00">src/wallet/load.cpp</text>
</a>
</g>
</g>
<!-- Node1&#45;&gt;Node4 -->
<g id="edge3" class="edge">
<title>Node1&#45;&gt;Node4</title>
<path fill="none" stroke="midnightblue" d="M458.96,-63.48C432.16,-51.92 393.08,-35.08 369.74,-25.01"/>
<polygon fill="midnightblue" stroke="midnightblue" points="457.66,-66.73 468.23,-67.48 460.43,-60.3 457.66,-66.73"/>
</g>
<!-- Node5 -->
<g id="node5" class="node">
<title>Node5</title>
<g id="a_node5"><a xlink:href="rpcwallet_8cpp.html" target="_top" xlink:title=" ">
<polygon fill="white" stroke="black" points="422,-6 422,-25 554,-25 554,-6 422,-6"/>
<text text-anchor="middle" x="488" y="-13" font-family="Helvetica,sans-Serif" font-size="10.00">src/wallet/rpcwallet.cpp</text>
</a>
</g>
</g>
<!-- Node1&#45;&gt;Node5 -->
<g id="edge4" class="edge">
<title>Node1&#45;&gt;Node5</title>
<path fill="none" stroke="midnightblue" d="M488,-57.32C488,-46.5 488,-33.4 488,-25.01"/>
<polygon fill="midnightblue" stroke="midnightblue" points="484.5,-57.48 488,-67.48 491.5,-57.48 484.5,-57.48"/>
</g>
<!-- Node6 -->
<g id="node6" class="node">
<title>Node6</title>
<g id="a_node6"><a xlink:href="notifications_8cpp.html" target="_top" xlink:title=" ">
<polygon fill="white" stroke="black" points="572.5,-0.5 572.5,-30.5 681.5,-30.5 681.5,-0.5 572.5,-0.5"/>
<text text-anchor="start" x="580.5" y="-18.5" font-family="Helvetica,sans-Serif" font-size="10.00">src/wallet/test/fuzz</text>
<text text-anchor="middle" x="627" y="-7.5" font-family="Helvetica,sans-Serif" font-size="10.00">/notifications.cpp</text>
</a>
</g>
</g>
<!-- Node1&#45;&gt;Node6 -->
<g id="edge5" class="edge">
<title>Node1&#45;&gt;Node6</title>
<path fill="none" stroke="midnightblue" d="M517.29,-63.46C539.81,-53.82 570.9,-40.51 594.24,-30.52"/>
<polygon fill="midnightblue" stroke="midnightblue" points="515.73,-60.32 507.92,-67.48 518.49,-66.76 515.73,-60.32"/>
</g>
<!-- Node7 -->
<g id="node7" class="node">
<title>Node7</title>
<g id="a_node7"><a xlink:href="wallet__tests_8cpp.html" target="_top" xlink:title=" ">
<polygon fill="white" stroke="black" points="699.5,-0.5 699.5,-30.5 818.5,-30.5 818.5,-0.5 699.5,-0.5"/>
<text text-anchor="start" x="707.5" y="-18.5" font-family="Helvetica,sans-Serif" font-size="10.00">src/wallet/test/wallet</text>
<text text-anchor="middle" x="759" y="-7.5" font-family="Helvetica,sans-Serif" font-size="10.00">_tests.cpp</text>
</a>
</g>
</g>
<!-- Node1&#45;&gt;Node7 -->
<g id="edge6" class="edge">
<title>Node1&#45;&gt;Node7</title>
<path fill="none" stroke="midnightblue" d="M536.76,-65.29C582.32,-55.29 650.46,-40.33 699.27,-29.62"/>
<polygon fill="midnightblue" stroke="midnightblue" points="535.84,-61.91 526.83,-67.48 537.35,-68.75 535.84,-61.91"/>
</g>
<!-- Node8 -->
<g id="node8" class="node">
<title>Node8</title>
<g id="a_node8"><a xlink:href="wallet_2wallet_8cpp.html" target="_top" xlink:title=" ">
<polygon fill="white" stroke="black" points="836.5,-6 836.5,-25 953.5,-25 953.5,-6 836.5,-6"/>
<text text-anchor="middle" x="895" y="-13" font-family="Helvetica,sans-Serif" font-size="10.00">src/wallet/wallet.cpp</text>
</a>
</g>
</g>
<!-- Node1&#45;&gt;Node8 -->
<g id="edge7" class="edge">
<title>Node1&#45;&gt;Node8</title>
<path fill="none" stroke="midnightblue" d="M555.02,-68.76C623.77,-60.96 733.7,-47.42 828,-31 837.85,-29.29 848.45,-27.13 858.24,-25.02"/>
<polygon fill="midnightblue" stroke="midnightblue" points="554.31,-65.32 544.77,-69.92 555.09,-72.28 554.31,-65.32"/>
</g>
</g>
</svg>
