<?xml version="1.0" encoding="UTF-8" standalone="no"?>
<!DOCTYPE svg PUBLIC "-//W3C//DTD SVG 1.1//EN"
 "http://www.w3.org/Graphics/SVG/1.1/DTD/svg11.dtd">
<!-- Generated by graphviz version 2.38.0 (20140413.2041)
 -->
<!-- Title: GetDiscardRate Pages: 1 -->
<svg width="778pt" height="230pt"
 viewBox="0.00 0.00 778.00 230.00" xmlns="http://www.w3.org/2000/svg" xmlns:xlink="http://www.w3.org/1999/xlink">
<g id="graph0" class="graph" transform="scale(1 1) rotate(0) translate(4 226)">
<title>GetDiscardRate</title>
<polygon fill="white" stroke="none" points="-4,4 -4,-226 774,-226 774,4 -4,4"/>
<!-- Node1 -->
<g id="node1" class="node"><title>Node1</title>
<polygon fill="#bfbfbf" stroke="black" points="0,-131.5 0,-150.5 92,-150.5 92,-131.5 0,-131.5"/>
<text text-anchor="middle" x="46" y="-138.5" font-family="Helvetica,sans-Serif" font-size="10.00">GetDiscardRate</text>
</g>
<!-- Node2 -->
<g id="node2" class="node"><title>Node2</title>
<g id="a_node2"><a xlink:href="group___actions.html#ga5539f17c0c649b8512436763faf0ac45" target="_top" xlink:title="Shuffle and select coins until nTargetValue is reached while avoiding small change; This method is st...">
<polygon fill="white" stroke="black" points="132.5,-191.5 132.5,-210.5 284.5,-210.5 284.5,-191.5 132.5,-191.5"/>
<text text-anchor="middle" x="208.5" y="-198.5" font-family="Helvetica,sans-Serif" font-size="10.00">CWallet::SelectCoinsMinConf</text>
</a>
</g>
</g>
<!-- Node1&#45;&gt;Node2 -->
<g id="edge1" class="edge"><title>Node1&#45;&gt;Node2</title>
<path fill="none" stroke="midnightblue" d="M82.1252,-154.131C112.25,-165.392 154.944,-181.353 181.922,-191.438"/>
<polygon fill="midnightblue" stroke="midnightblue" points="83.0242,-150.73 72.4317,-150.507 80.573,-157.287 83.0242,-150.73"/>
</g>
<!-- Node4 -->
<g id="node4" class="node"><title>Node4</title>
<g id="a_node4"><a xlink:href="group___actions.html#gac583d3981eaba225db79414b5159ef31" target="_top" xlink:title="Create a new transaction paying the recipients with a set of coins selected by SelectCoins(); Also cr...">
<polygon fill="white" stroke="black" points="137,-131.5 137,-150.5 280,-150.5 280,-131.5 137,-131.5"/>
<text text-anchor="middle" x="208.5" y="-138.5" font-family="Helvetica,sans-Serif" font-size="10.00">CWallet::CreateTransaction</text>
</a>
</g>
</g>
<!-- Node1&#45;&gt;Node4 -->
<g id="edge3" class="edge"><title>Node1&#45;&gt;Node4</title>
<path fill="none" stroke="midnightblue" d="M102.174,-141C113.358,-141 125.264,-141 136.896,-141"/>
<polygon fill="midnightblue" stroke="midnightblue" points="102.135,-137.5 92.1353,-141 102.135,-144.5 102.135,-137.5"/>
</g>
<!-- Node8 -->
<g id="node8" class="node"><title>Node8</title>
<g id="a_node8"><a xlink:href="namespacefeebumper.html#a7e40f2905a1758fc62bf6ec2880b2af4" target="_top" xlink:title="Create bumpfee transaction. ">
<polygon fill="white" stroke="black" points="128,-76.5 128,-95.5 289,-95.5 289,-76.5 128,-76.5"/>
<text text-anchor="middle" x="208.5" y="-83.5" font-family="Helvetica,sans-Serif" font-size="10.00">feebumper::CreateTransaction</text>
</a>
</g>
</g>
<!-- Node1&#45;&gt;Node8 -->
<g id="edge7" class="edge"><title>Node1&#45;&gt;Node8</title>
<path fill="none" stroke="midnightblue" d="M84.7629,-128.059C113.828,-118.1 153.341,-104.559 179.595,-95.5626"/>
<polygon fill="midnightblue" stroke="midnightblue" points="83.2823,-124.867 74.957,-131.42 85.5516,-131.489 83.2823,-124.867"/>
</g>
<!-- Node3 -->
<g id="node3" class="node"><title>Node3</title>
<g id="a_node3"><a xlink:href="coinselector__tests_8cpp.html#a6ff234f5d157019167e308c177fe7ad0" target="_top" xlink:title="BOOST_AUTO_TEST_CASE">
<polygon fill="white" stroke="black" points="329.5,-202.5 329.5,-221.5 472.5,-221.5 472.5,-202.5 329.5,-202.5"/>
<text text-anchor="middle" x="401" y="-209.5" font-family="Helvetica,sans-Serif" font-size="10.00">BOOST_AUTO_TEST_CASE</text>
</a>
</g>
</g>
<!-- Node2&#45;&gt;Node3 -->
<g id="edge2" class="edge"><title>Node2&#45;&gt;Node3</title>
<path fill="none" stroke="midnightblue" d="M294.654,-205.917C306.268,-206.588 318.084,-207.27 329.402,-207.923"/>
<polygon fill="midnightblue" stroke="midnightblue" points="294.702,-202.414 284.517,-205.332 294.299,-209.402 294.702,-202.414"/>
</g>
<!-- Node5 -->
<g id="node5" class="node"><title>Node5</title>
<g id="a_node5"><a xlink:href="rpcwallet_8cpp.html#a7424e87562c3781c88662ebfb6ef7e4a" target="_top" xlink:title="GetLabelDestination">
<polygon fill="white" stroke="black" points="344,-164.5 344,-183.5 458,-183.5 458,-164.5 344,-164.5"/>
<text text-anchor="middle" x="401" y="-171.5" font-family="Helvetica,sans-Serif" font-size="10.00">GetLabelDestination</text>
</a>
</g>
</g>
<!-- Node4&#45;&gt;Node5 -->
<g id="edge4" class="edge"><title>Node4&#45;&gt;Node5</title>
<path fill="none" stroke="midnightblue" d="M274.334,-152.231C297.268,-156.204 322.831,-160.632 344.883,-164.452"/>
<polygon fill="midnightblue" stroke="midnightblue" points="274.796,-148.759 264.345,-150.501 273.601,-155.656 274.796,-148.759"/>
</g>
<!-- Node6 -->
<g id="node6" class="node"><title>Node6</title>
<g id="a_node6"><a xlink:href="class_list_coins_testing_setup.html#a8ce37c5d8d073c901b91153f83c47ee8" target="_top" xlink:title="ListCoinsTestingSetup\l::AddTx">
<polygon fill="white" stroke="black" points="340.5,-115 340.5,-145 461.5,-145 461.5,-115 340.5,-115"/>
<text text-anchor="start" x="348.5" y="-133" font-family="Helvetica,sans-Serif" font-size="10.00">ListCoinsTestingSetup</text>
<text text-anchor="middle" x="401" y="-122" font-family="Helvetica,sans-Serif" font-size="10.00">::AddTx</text>
</a>
</g>
</g>
<!-- Node4&#45;&gt;Node6 -->
<g id="edge5" class="edge"><title>Node4&#45;&gt;Node6</title>
<path fill="none" stroke="midnightblue" d="M290.49,-136.323C307.229,-135.357 324.569,-134.356 340.379,-133.443"/>
<polygon fill="midnightblue" stroke="midnightblue" points="289.946,-132.849 280.164,-136.92 290.35,-139.837 289.946,-132.849"/>
</g>
<!-- Node7 -->
<g id="node7" class="node"><title>Node7</title>
<g id="a_node7"><a xlink:href="wallet__tests_8cpp.html#a5124bfced35ed545732a62fc7c82f9b1" target="_top" xlink:title="BOOST_FIXTURE_TEST_CASE">
<polygon fill="white" stroke="black" points="513,-120.5 513,-139.5 667,-139.5 667,-120.5 513,-120.5"/>
<text text-anchor="middle" x="590" y="-127.5" font-family="Helvetica,sans-Serif" font-size="10.00">BOOST_FIXTURE_TEST_CASE</text>
</a>
</g>
</g>
<!-- Node6&#45;&gt;Node7 -->
<g id="edge6" class="edge"><title>Node6&#45;&gt;Node7</title>
<path fill="none" stroke="midnightblue" d="M471.758,-130C485.136,-130 499.21,-130 512.78,-130"/>
<polygon fill="midnightblue" stroke="midnightblue" points="471.682,-126.5 461.682,-130 471.682,-133.5 471.682,-126.5"/>
</g>
<!-- Node9 -->
<g id="node9" class="node"><title>Node9</title>
<g id="a_node9"><a xlink:href="group___actions.html#ga15a558d8fa0db299f38ed1e45a60aaaf" target="_top" xlink:title="Insert additional inputs into the transaction by calling CreateTransaction();. ">
<polygon fill="white" stroke="black" points="334,-76.5 334,-95.5 468,-95.5 468,-76.5 334,-76.5"/>
<text text-anchor="middle" x="401" y="-83.5" font-family="Helvetica,sans-Serif" font-size="10.00">CWallet::FundTransaction</text>
</a>
</g>
</g>
<!-- Node8&#45;&gt;Node9 -->
<g id="edge8" class="edge"><title>Node8&#45;&gt;Node9</title>
<path fill="none" stroke="midnightblue" d="M299.366,-86C311.002,-86 322.745,-86 333.899,-86"/>
<polygon fill="midnightblue" stroke="midnightblue" points="299.185,-82.5001 289.185,-86 299.185,-89.5001 299.185,-82.5001"/>
</g>
<!-- Node12 -->
<g id="node12" class="node"><title>Node12</title>
<g id="a_node12"><a xlink:href="rpcwallet_8h.html#a7c13054932c9e3b351bd6277fa9361d7" target="_top" xlink:title="signrawtransactionwithwallet">
<polygon fill="white" stroke="black" points="325,-38.5 325,-57.5 477,-57.5 477,-38.5 325,-38.5"/>
<text text-anchor="middle" x="401" y="-45.5" font-family="Helvetica,sans-Serif" font-size="10.00">signrawtransactionwithwallet</text>
</a>
</g>
</g>
<!-- Node8&#45;&gt;Node12 -->
<g id="edge11" class="edge"><title>Node8&#45;&gt;Node12</title>
<path fill="none" stroke="midnightblue" d="M267.7,-74.3905C294.794,-68.986 326.625,-62.6365 352.274,-57.5201"/>
<polygon fill="midnightblue" stroke="midnightblue" points="266.693,-71.0223 257.571,-76.411 268.063,-77.8871 266.693,-71.0223"/>
</g>
<!-- Node10 -->
<g id="node10" class="node"><title>Node10</title>
<g id="a_node10"><a xlink:href="rpcwallet_8cpp.html#a74b85c92ee6a84277c73b74f2e212bff" target="_top" xlink:title="listtransactions">
<polygon fill="white" stroke="black" points="545.5,-76.5 545.5,-95.5 634.5,-95.5 634.5,-76.5 545.5,-76.5"/>
<text text-anchor="middle" x="590" y="-83.5" font-family="Helvetica,sans-Serif" font-size="10.00">listtransactions</text>
</a>
</g>
</g>
<!-- Node9&#45;&gt;Node10 -->
<g id="edge9" class="edge"><title>Node9&#45;&gt;Node10</title>
<path fill="none" stroke="midnightblue" d="M478.237,-86C501.118,-86 525.426,-86 545.424,-86"/>
<polygon fill="midnightblue" stroke="midnightblue" points="478.192,-82.5001 468.192,-86 478.192,-89.5001 478.192,-82.5001"/>
</g>
<!-- Node11 -->
<g id="node11" class="node"><title>Node11</title>
<g id="a_node11"><a xlink:href="rpcwallet_8cpp.html#a61c7a90d1b36888fe11b751e746e18c0" target="_top" xlink:title="sethdseed">
<polygon fill="white" stroke="black" points="703,-57.5 703,-76.5 770,-76.5 770,-57.5 703,-57.5"/>
<text text-anchor="middle" x="736.5" y="-64.5" font-family="Helvetica,sans-Serif" font-size="10.00">sethdseed</text>
</a>
</g>
</g>
<!-- Node10&#45;&gt;Node11 -->
<g id="edge10" class="edge"><title>Node10&#45;&gt;Node11</title>
<path fill="none" stroke="midnightblue" d="M644.755,-78.9319C664.294,-76.3627 685.768,-73.5392 702.919,-71.284"/>
<polygon fill="midnightblue" stroke="midnightblue" points="644.205,-75.4739 634.747,-80.2478 645.118,-82.4142 644.205,-75.4739"/>
</g>
<!-- Node12&#45;&gt;Node11 -->
<g id="edge13" class="edge"><title>Node12&#45;&gt;Node11</title>
<path fill="none" stroke="midnightblue" d="M487.431,-52.8671C557.679,-56.8693 653.425,-62.3241 702.909,-65.1432"/>
<polygon fill="midnightblue" stroke="midnightblue" points="487.443,-49.3622 477.26,-52.2877 487.044,-56.3509 487.443,-49.3622"/>
</g>
<!-- Node13 -->
<g id="node13" class="node"><title>Node13</title>
<g id="a_node13"><a xlink:href="rawtransaction_8cpp.html#a5b2abfea4548c97e780cfae39f9ac11b" target="_top" xlink:title="signrawtransaction">
<polygon fill="white" stroke="black" points="536.5,-0.5 536.5,-19.5 643.5,-19.5 643.5,-0.5 536.5,-0.5"/>
<text text-anchor="middle" x="590" y="-7.5" font-family="Helvetica,sans-Serif" font-size="10.00">signrawtransaction</text>
</a>
</g>
</g>
<!-- Node12&#45;&gt;Node13 -->
<g id="edge12" class="edge"><title>Node12&#45;&gt;Node13</title>
<path fill="none" stroke="midnightblue" d="M459.131,-36.3905C485.727,-30.986 516.973,-24.6365 542.151,-19.5201"/>
<polygon fill="midnightblue" stroke="midnightblue" points="458.291,-32.9896 449.188,-38.411 459.685,-39.8494 458.291,-32.9896"/>
</g>
</g>
</svg>
