<?xml version="1.0" encoding="UTF-8" standalone="no"?>
<!DOCTYPE svg PUBLIC "-//W3C//DTD SVG 1.1//EN"
 "http://www.w3.org/Graphics/SVG/1.1/DTD/svg11.dtd">
<!-- Generated by graphviz version 2.38.0 (20140413.2041)
 -->
<!-- Title: src/wallet/wallet.h Pages: 1 -->
<svg width="2743pt" height="162pt"
 viewBox="0.00 0.00 2743.00 162.00" xmlns="http://www.w3.org/2000/svg" xmlns:xlink="http://www.w3.org/1999/xlink">
<g id="graph0" class="graph" transform="scale(1 1) rotate(0) translate(4 158)">
<title>src/wallet/wallet.h</title>
<polygon fill="white" stroke="none" points="-4,4 -4,-158 2739,-158 2739,4 -4,4"/>
<!-- Node1 -->
<g id="node1" class="node"><title>Node1</title>
<polygon fill="#bfbfbf" stroke="black" points="1449,-134.5 1449,-153.5 1549,-153.5 1549,-134.5 1449,-134.5"/>
<text text-anchor="middle" x="1499" y="-141.5" font-family="Helvetica,sans-Serif" font-size="10.00">src/wallet/wallet.h</text>
</g>
<!-- Node2 -->
<g id="node2" class="node"><title>Node2</title>
<g id="a_node2"><a xlink:href="coin__selection_8cpp.html" target="_top" xlink:title="src/bench/coin_selection.cpp">
<polygon fill="white" stroke="black" points="0,-73 0,-92 154,-92 154,-73 0,-73"/>
<text text-anchor="middle" x="77" y="-80" font-family="Helvetica,sans-Serif" font-size="10.00">src/bench/coin_selection.cpp</text>
</a>
</g>
</g>
<!-- Node1&#45;&gt;Node2 -->
<g id="edge1" class="edge"><title>Node1&#45;&gt;Node2</title>
<path fill="none" stroke="midnightblue" d="M1438.84,-142.041C1212.98,-138.276 415.713,-123.446 163,-98 149.14,-96.6044 134.135,-94.3393 120.598,-92.0097"/>
<polygon fill="midnightblue" stroke="midnightblue" points="1438.78,-145.541 1448.84,-142.207 1438.9,-138.542 1438.78,-145.541"/>
</g>
<!-- Node3 -->
<g id="node3" class="node"><title>Node3</title>
<g id="a_node3"><a xlink:href="interfaces_2wallet_8cpp.html" target="_top" xlink:title="src/interfaces/wallet.cpp">
<polygon fill="white" stroke="black" points="172.5,-73 172.5,-92 303.5,-92 303.5,-73 172.5,-73"/>
<text text-anchor="middle" x="238" y="-80" font-family="Helvetica,sans-Serif" font-size="10.00">src/interfaces/wallet.cpp</text>
</a>
</g>
</g>
<!-- Node1&#45;&gt;Node3 -->
<g id="edge2" class="edge"><title>Node1&#45;&gt;Node3</title>
<path fill="none" stroke="midnightblue" d="M1438.69,-141.956C1229.2,-138.133 533.715,-123.766 312,-98 300.036,-96.6097 287.114,-94.346 275.468,-92.0162"/>
<polygon fill="midnightblue" stroke="midnightblue" points="1438.82,-145.458 1448.88,-142.14 1438.95,-138.46 1438.82,-145.458"/>
</g>
<!-- Node4 -->
<g id="node4" class="node"><title>Node4</title>
<g id="a_node4"><a xlink:href="addresstablemodel_8cpp.html" target="_top" xlink:title="src/qt/addresstablemodel.cpp">
<polygon fill="white" stroke="black" points="321.5,-73 321.5,-92 480.5,-92 480.5,-73 321.5,-73"/>
<text text-anchor="middle" x="401" y="-80" font-family="Helvetica,sans-Serif" font-size="10.00">src/qt/addresstablemodel.cpp</text>
</a>
</g>
</g>
<!-- Node1&#45;&gt;Node4 -->
<g id="edge3" class="edge"><title>Node1&#45;&gt;Node4</title>
<path fill="none" stroke="midnightblue" d="M1438.58,-142.606C1282.11,-141.086 850.967,-133.711 494,-98 479.366,-96.536 463.527,-94.3093 449.139,-92.037"/>
<polygon fill="midnightblue" stroke="midnightblue" points="1438.9,-146.109 1448.93,-142.702 1438.96,-139.11 1438.9,-146.109"/>
</g>
<!-- Node5 -->
<g id="node5" class="node"><title>Node5</title>
<g id="a_node5"><a xlink:href="coincontroldialog_8cpp.html" target="_top" xlink:title="src/qt/coincontroldialog.cpp">
<polygon fill="white" stroke="black" points="486,-6 486,-25 634,-25 634,-6 486,-6"/>
<text text-anchor="middle" x="560" y="-13" font-family="Helvetica,sans-Serif" font-size="10.00">src/qt/coincontroldialog.cpp</text>
</a>
</g>
</g>
<!-- Node1&#45;&gt;Node5 -->
<g id="edge4" class="edge"><title>Node1&#45;&gt;Node5</title>
<path fill="none" stroke="midnightblue" d="M1438.89,-142.477C1231.75,-140.386 558.566,-131.061 527,-98 506.76,-76.8015 535.443,-41.557 551.049,-25.2597"/>
<polygon fill="midnightblue" stroke="midnightblue" points="1438.94,-145.978 1448.98,-142.577 1439.01,-138.978 1438.94,-145.978"/>
</g>
<!-- Node6 -->
<g id="node6" class="node"><title>Node6</title>
<g id="a_node6"><a xlink:href="paymentserver_8cpp.html" target="_top" xlink:title="src/qt/paymentserver.cpp">
<polygon fill="white" stroke="black" points="536.5,-73 536.5,-92 675.5,-92 675.5,-73 536.5,-73"/>
<text text-anchor="middle" x="606" y="-80" font-family="Helvetica,sans-Serif" font-size="10.00">src/qt/paymentserver.cpp</text>
</a>
</g>
</g>
<!-- Node1&#45;&gt;Node6 -->
<g id="edge5" class="edge"><title>Node1&#45;&gt;Node6</title>
<path fill="none" stroke="midnightblue" d="M1438.55,-142.318C1303.03,-140.207 964.765,-131.706 684,-98 671.692,-96.5224 658.398,-94.2916 646.332,-92.0198"/>
<polygon fill="midnightblue" stroke="midnightblue" points="1438.67,-145.82 1448.72,-142.47 1438.78,-138.82 1438.67,-145.82"/>
</g>
<!-- Node7 -->
<g id="node7" class="node"><title>Node7</title>
<g id="a_node7"><a xlink:href="receivecoinsdialog_8cpp.html" target="_top" xlink:title="src/qt/receivecoinsdialog.cpp">
<polygon fill="white" stroke="black" points="693.5,-73 693.5,-92 848.5,-92 848.5,-73 693.5,-73"/>
<text text-anchor="middle" x="771" y="-80" font-family="Helvetica,sans-Serif" font-size="10.00">src/qt/receivecoinsdialog.cpp</text>
</a>
</g>
</g>
<!-- Node1&#45;&gt;Node7 -->
<g id="edge6" class="edge"><title>Node1&#45;&gt;Node7</title>
<path fill="none" stroke="midnightblue" d="M1438.74,-140.682C1324.93,-135.881 1070.72,-123.136 858,-98 844.77,-96.4367 830.485,-94.2613 817.389,-92.0704"/>
<polygon fill="midnightblue" stroke="midnightblue" points="1438.84,-144.189 1448.98,-141.109 1439.13,-137.195 1438.84,-144.189"/>
</g>
<!-- Node8 -->
<g id="node8" class="node"><title>Node8</title>
<g id="a_node8"><a xlink:href="signverifymessagedialog_8cpp.html" target="_top" xlink:title="src/qt/signverifymessagedialog.cpp">
<polygon fill="white" stroke="black" points="866.5,-73 866.5,-92 1051.5,-92 1051.5,-73 866.5,-73"/>
<text text-anchor="middle" x="959" y="-80" font-family="Helvetica,sans-Serif" font-size="10.00">src/qt/signverifymessagedialog.cpp</text>
</a>
</g>
</g>
<!-- Node1&#45;&gt;Node8 -->
<g id="edge7" class="edge"><title>Node1&#45;&gt;Node8</title>
<path fill="none" stroke="midnightblue" d="M1438.48,-137.532C1353.9,-129.718 1195.57,-114.471 1061,-98 1046.44,-96.2181 1030.74,-94.09 1016.13,-92.0203"/>
<polygon fill="midnightblue" stroke="midnightblue" points="1438.4,-141.039 1448.68,-138.47 1439.04,-134.068 1438.4,-141.039"/>
</g>
<!-- Node9 -->
<g id="node9" class="node"><title>Node9</title>
<g id="a_node9"><a xlink:href="transactiondesc_8cpp.html" target="_top" xlink:title="src/qt/transactiondesc.cpp">
<polygon fill="white" stroke="black" points="1069.5,-73 1069.5,-92 1212.5,-92 1212.5,-73 1069.5,-73"/>
<text text-anchor="middle" x="1141" y="-80" font-family="Helvetica,sans-Serif" font-size="10.00">src/qt/transactiondesc.cpp</text>
</a>
</g>
</g>
<!-- Node1&#45;&gt;Node9 -->
<g id="edge8" class="edge"><title>Node1&#45;&gt;Node9</title>
<path fill="none" stroke="midnightblue" d="M1438.91,-133.113C1383.79,-124.031 1299.89,-110.174 1227,-98 1215.5,-96.0793 1203.14,-94.0023 1191.47,-92.0366"/>
<polygon fill="midnightblue" stroke="midnightblue" points="1438.42,-136.58 1448.86,-134.752 1439.56,-129.673 1438.42,-136.58"/>
</g>
<!-- Node10 -->
<g id="node10" class="node"><title>Node10</title>
<g id="a_node10"><a xlink:href="walletmodel_8cpp.html" target="_top" xlink:title="src/qt/walletmodel.cpp">
<polygon fill="white" stroke="black" points="706,-6 706,-25 830,-25 830,-6 706,-6"/>
<text text-anchor="middle" x="768" y="-13" font-family="Helvetica,sans-Serif" font-size="10.00">src/qt/walletmodel.cpp</text>
</a>
</g>
</g>
<!-- Node1&#45;&gt;Node10 -->
<g id="edge9" class="edge"><title>Node1&#45;&gt;Node10</title>
<path fill="none" stroke="midnightblue" d="M1438.44,-141.288C1387.13,-137.686 1312.9,-127.284 1255,-98 1237.04,-88.9176 1240.34,-75.2777 1222,-67 1066.16,3.3302 1008.11,-56.1419 839,-31 828.174,-29.3905 816.506,-27.2003 805.819,-25.0099"/>
<polygon fill="midnightblue" stroke="midnightblue" points="1438.5,-144.799 1448.7,-141.94 1438.94,-137.813 1438.5,-144.799"/>
</g>
<!-- Node11 -->
<g id="node11" class="node"><title>Node11</title>
<g id="a_node11"><a xlink:href="coincontrol_8h.html" target="_top" xlink:title="src/wallet/coincontrol.h">
<polygon fill="white" stroke="black" points="1307.5,-73 1307.5,-92 1432.5,-92 1432.5,-73 1307.5,-73"/>
<text text-anchor="middle" x="1370" y="-80" font-family="Helvetica,sans-Serif" font-size="10.00">src/wallet/coincontrol.h</text>
</a>
</g>
</g>
<!-- Node1&#45;&gt;Node11 -->
<g id="edge10" class="edge"><title>Node1&#45;&gt;Node11</title>
<path fill="none" stroke="midnightblue" d="M1471.19,-130.174C1446.16,-118.629 1410.08,-101.987 1388.45,-92.0091"/>
<polygon fill="midnightblue" stroke="midnightblue" points="1469.97,-133.465 1480.52,-134.475 1472.9,-127.108 1469.97,-133.465"/>
</g>
<!-- Node14 -->
<g id="node14" class="node"><title>Node14</title>
<g id="a_node14"><a xlink:href="feebumper_8cpp.html" target="_top" xlink:title="src/wallet/feebumper.cpp">
<polygon fill="white" stroke="black" points="848,-6 848,-25 984,-25 984,-6 848,-6"/>
<text text-anchor="middle" x="916" y="-13" font-family="Helvetica,sans-Serif" font-size="10.00">src/wallet/feebumper.cpp</text>
</a>
</g>
</g>
<!-- Node1&#45;&gt;Node14 -->
<g id="edge21" class="edge"><title>Node1&#45;&gt;Node14</title>
<path fill="none" stroke="midnightblue" d="M1438.74,-135.737C1398,-129.33 1343.69,-117.824 1299,-98 1277.13,-88.2994 1277.26,-75.7712 1255,-67 1146.06,-24.0646 1109.59,-49.7059 994,-31 982.987,-29.2178 971.134,-27.1117 960.075,-25.0652"/>
<polygon fill="midnightblue" stroke="midnightblue" points="1438.38,-139.222 1448.79,-137.258 1439.43,-132.301 1438.38,-139.222"/>
</g>
<!-- Node15 -->
<g id="node15" class="node"><title>Node15</title>
<g id="a_node15"><a xlink:href="wallet_2fees_8cpp.html" target="_top" xlink:title="src/wallet/fees.cpp">
<polygon fill="white" stroke="black" points="1319,-6 1319,-25 1423,-25 1423,-6 1319,-6"/>
<text text-anchor="middle" x="1371" y="-13" font-family="Helvetica,sans-Serif" font-size="10.00">src/wallet/fees.cpp</text>
</a>
</g>
</g>
<!-- Node1&#45;&gt;Node15 -->
<g id="edge22" class="edge"><title>Node1&#45;&gt;Node15</title>
<path fill="none" stroke="midnightblue" d="M1488.37,-125.852C1477.81,-109.615 1460.56,-85.0952 1442,-67 1424.46,-49.8927 1400.68,-34.214 1385.59,-25.0065"/>
<polygon fill="midnightblue" stroke="midnightblue" points="1485.45,-127.784 1493.77,-134.344 1491.36,-124.028 1485.45,-127.784"/>
</g>
<!-- Node16 -->
<g id="node16" class="node"><title>Node16</title>
<g id="a_node16"><a xlink:href="rpcwallet_8cpp.html" target="_top" xlink:title="src/wallet/rpcwallet.cpp">
<polygon fill="white" stroke="black" points="1571,-6 1571,-25 1697,-25 1697,-6 1571,-6"/>
<text text-anchor="middle" x="1634" y="-13" font-family="Helvetica,sans-Serif" font-size="10.00">src/wallet/rpcwallet.cpp</text>
</a>
</g>
</g>
<!-- Node1&#45;&gt;Node16 -->
<g id="edge29" class="edge"><title>Node1&#45;&gt;Node16</title>
<path fill="none" stroke="midnightblue" d="M1510.8,-125.881C1522.46,-109.665 1541.34,-85.1596 1561,-67 1579.34,-50.0588 1603.7,-34.336 1619.12,-25.0737"/>
<polygon fill="midnightblue" stroke="midnightblue" points="1507.72,-124.17 1504.82,-134.36 1513.45,-128.204 1507.72,-124.17"/>
</g>
<!-- Node17 -->
<g id="node17" class="node"><title>Node17</title>
<g id="a_node17"><a xlink:href="coinselector__tests_8cpp.html" target="_top" xlink:title="src/wallet/test/coinselector\l_tests.cpp">
<polygon fill="white" stroke="black" points="1715.5,-0.5 1715.5,-30.5 1858.5,-30.5 1858.5,-0.5 1715.5,-0.5"/>
<text text-anchor="start" x="1723.5" y="-18.5" font-family="Helvetica,sans-Serif" font-size="10.00">src/wallet/test/coinselector</text>
<text text-anchor="middle" x="1787" y="-7.5" font-family="Helvetica,sans-Serif" font-size="10.00">_tests.cpp</text>
</a>
</g>
</g>
<!-- Node1&#45;&gt;Node17 -->
<g id="edge30" class="edge"><title>Node1&#45;&gt;Node17</title>
<path fill="none" stroke="midnightblue" d="M1519.67,-128.441C1531.83,-119.767 1547.43,-108.446 1561,-98 1578.27,-84.7044 1579.6,-76.9363 1599,-67 1620.73,-55.8686 1677.83,-41.2138 1723.44,-30.5598"/>
<polygon fill="midnightblue" stroke="midnightblue" points="1517.63,-125.595 1511.5,-134.238 1521.68,-131.303 1517.63,-125.595"/>
</g>
<!-- Node18 -->
<g id="node18" class="node"><title>Node18</title>
<g id="a_node18"><a xlink:href="wallet__tests_8cpp.html" target="_top" xlink:title="src/wallet/test/wallet\l_tests.cpp">
<polygon fill="white" stroke="black" points="1876.5,-0.5 1876.5,-30.5 1989.5,-30.5 1989.5,-0.5 1876.5,-0.5"/>
<text text-anchor="start" x="1884.5" y="-18.5" font-family="Helvetica,sans-Serif" font-size="10.00">src/wallet/test/wallet</text>
<text text-anchor="middle" x="1933" y="-7.5" font-family="Helvetica,sans-Serif" font-size="10.00">_tests.cpp</text>
</a>
</g>
</g>
<!-- Node1&#45;&gt;Node18 -->
<g id="edge38" class="edge"><title>Node1&#45;&gt;Node18</title>
<path fill="none" stroke="midnightblue" d="M1530.31,-130.449C1549.33,-122.276 1573.77,-110.78 1594,-98 1612.43,-86.3608 1612.08,-75.8444 1632,-67 1728.97,-23.9456 1763.72,-50.5619 1868,-31 1870.73,-30.4884 1873.51,-29.9453 1876.33,-29.381"/>
<polygon fill="midnightblue" stroke="midnightblue" points="1528.77,-127.301 1520.91,-134.409 1531.48,-133.753 1528.77,-127.301"/>
</g>
<!-- Node19 -->
<g id="node19" class="node"><title>Node19</title>
<g id="a_node19"><a xlink:href="wallet_2wallet_8cpp.html" target="_top" xlink:title="src/wallet/wallet.cpp">
<polygon fill="white" stroke="black" points="1441.5,-6 1441.5,-25 1552.5,-25 1552.5,-6 1441.5,-6"/>
<text text-anchor="middle" x="1497" y="-13" font-family="Helvetica,sans-Serif" font-size="10.00">src/wallet/wallet.cpp</text>
</a>
</g>
</g>
<!-- Node1&#45;&gt;Node19 -->
<g id="edge39" class="edge"><title>Node1&#45;&gt;Node19</title>
<path fill="none" stroke="midnightblue" d="M1498.7,-124.306C1498.27,-96.5761 1497.46,-45.6279 1497.14,-25.2557"/>
<polygon fill="midnightblue" stroke="midnightblue" points="1495.2,-124.362 1498.86,-134.305 1502.2,-124.251 1495.2,-124.362"/>
</g>
<!-- Node20 -->
<g id="node20" class="node"><title>Node20</title>
<g id="a_node20"><a xlink:href="wallet_2init_8cpp.html" target="_top" xlink:title="src/wallet/init.cpp">
<polygon fill="white" stroke="black" points="1641,-73 1641,-92 1739,-92 1739,-73 1641,-73"/>
<text text-anchor="middle" x="1690" y="-80" font-family="Helvetica,sans-Serif" font-size="10.00">src/wallet/init.cpp</text>
</a>
</g>
</g>
<!-- Node1&#45;&gt;Node20 -->
<g id="edge23" class="edge"><title>Node1&#45;&gt;Node20</title>
<path fill="none" stroke="midnightblue" d="M1536.3,-131.381C1573.43,-119.815 1629.52,-102.341 1662.69,-92.0091"/>
<polygon fill="midnightblue" stroke="midnightblue" points="1534.87,-128.159 1526.37,-134.475 1536.95,-134.842 1534.87,-128.159"/>
</g>
<!-- Node21 -->
<g id="node21" class="node"><title>Node21</title>
<g id="a_node21"><a xlink:href="psbtwallet_8h.html" target="_top" xlink:title="src/wallet/psbtwallet.h">
<polygon fill="white" stroke="black" points="1756.5,-73 1756.5,-92 1877.5,-92 1877.5,-73 1756.5,-73"/>
<text text-anchor="middle" x="1817" y="-80" font-family="Helvetica,sans-Serif" font-size="10.00">src/wallet/psbtwallet.h</text>
</a>
</g>
</g>
<!-- Node1&#45;&gt;Node21 -->
<g id="edge24" class="edge"><title>Node1&#45;&gt;Node21</title>
<path fill="none" stroke="midnightblue" d="M1558.77,-132.688C1609.27,-123.859 1683.46,-110.61 1748,-98 1757.49,-96.1456 1767.69,-94.0548 1777.27,-92.0502"/>
<polygon fill="midnightblue" stroke="midnightblue" points="1557.93,-129.281 1548.68,-134.448 1559.14,-136.177 1557.93,-129.281"/>
</g>
<!-- Node23 -->
<g id="node23" class="node"><title>Node23</title>
<g id="a_node23"><a xlink:href="psbt__wallet__tests_8cpp.html" target="_top" xlink:title="src/wallet/test/psbt\l_wallet_tests.cpp">
<polygon fill="white" stroke="black" points="2158.5,-0.5 2158.5,-30.5 2265.5,-30.5 2265.5,-0.5 2158.5,-0.5"/>
<text text-anchor="start" x="2166.5" y="-18.5" font-family="Helvetica,sans-Serif" font-size="10.00">src/wallet/test/psbt</text>
<text text-anchor="middle" x="2212" y="-7.5" font-family="Helvetica,sans-Serif" font-size="10.00">_wallet_tests.cpp</text>
</a>
</g>
</g>
<!-- Node1&#45;&gt;Node23 -->
<g id="edge32" class="edge"><title>Node1&#45;&gt;Node23</title>
<path fill="none" stroke="midnightblue" d="M1559.08,-141.771C1737.96,-137.822 2256.3,-124.159 2281,-98 2302.38,-75.3527 2265.98,-47.3309 2238.43,-30.742"/>
<polygon fill="midnightblue" stroke="midnightblue" points="1558.97,-138.273 1549.05,-141.99 1559.12,-145.271 1558.97,-138.273"/>
</g>
<!-- Node24 -->
<g id="node24" class="node"><title>Node24</title>
<g id="a_node24"><a xlink:href="rpcdump_8cpp.html" target="_top" xlink:title="src/wallet/rpcdump.cpp">
<polygon fill="white" stroke="black" points="2026.5,-73 2026.5,-92 2153.5,-92 2153.5,-73 2026.5,-73"/>
<text text-anchor="middle" x="2090" y="-80" font-family="Helvetica,sans-Serif" font-size="10.00">src/wallet/rpcdump.cpp</text>
</a>
</g>
</g>
<!-- Node1&#45;&gt;Node24 -->
<g id="edge28" class="edge"><title>Node1&#45;&gt;Node24</title>
<path fill="none" stroke="midnightblue" d="M1559.53,-139.961C1656.62,-134.591 1853.02,-121.689 2018,-98 2028.98,-96.4233 2040.81,-94.2437 2051.65,-92.0529"/>
<polygon fill="midnightblue" stroke="midnightblue" points="1559.11,-136.479 1549.32,-140.518 1559.49,-143.468 1559.11,-136.479"/>
</g>
<!-- Node25 -->
<g id="node25" class="node"><title>Node25</title>
<g id="a_node25"><a xlink:href="init__tests_8cpp.html" target="_top" xlink:title="src/wallet/test/init\l_tests.cpp">
<polygon fill="white" stroke="black" points="2172,-67.5 2172,-97.5 2272,-97.5 2272,-67.5 2172,-67.5"/>
<text text-anchor="start" x="2180" y="-85.5" font-family="Helvetica,sans-Serif" font-size="10.00">src/wallet/test/init</text>
<text text-anchor="middle" x="2222" y="-74.5" font-family="Helvetica,sans-Serif" font-size="10.00">_tests.cpp</text>
</a>
</g>
</g>
<!-- Node1&#45;&gt;Node25 -->
<g id="edge31" class="edge"><title>Node1&#45;&gt;Node25</title>
<path fill="none" stroke="midnightblue" d="M1559.5,-142.398C1676.68,-140.462 1942.46,-132.308 2163,-98 2165.92,-97.546 2168.9,-97.0179 2171.91,-96.4372"/>
<polygon fill="midnightblue" stroke="midnightblue" points="1559.25,-138.902 1549.31,-142.557 1559.36,-145.901 1559.25,-138.902"/>
</g>
<!-- Node26 -->
<g id="node26" class="node"><title>Node26</title>
<g id="a_node26"><a xlink:href="wallet__test__fixture_8h.html" target="_top" xlink:title="src/wallet/test/wallet\l_test_fixture.h">
<polygon fill="white" stroke="black" points="1895.5,-67.5 1895.5,-97.5 2008.5,-97.5 2008.5,-67.5 1895.5,-67.5"/>
<text text-anchor="start" x="1903.5" y="-85.5" font-family="Helvetica,sans-Serif" font-size="10.00">src/wallet/test/wallet</text>
<text text-anchor="middle" x="1952" y="-74.5" font-family="Helvetica,sans-Serif" font-size="10.00">_test_fixture.h</text>
</a>
</g>
</g>
<!-- Node1&#45;&gt;Node26 -->
<g id="edge33" class="edge"><title>Node1&#45;&gt;Node26</title>
<path fill="none" stroke="midnightblue" d="M1559.56,-137.943C1636.14,-131.097 1771.89,-117.46 1887,-98 1889.74,-97.5374 1892.53,-97.0342 1895.35,-96.5019"/>
<polygon fill="midnightblue" stroke="midnightblue" points="1558.81,-134.496 1549.15,-138.864 1559.42,-141.468 1558.81,-134.496"/>
</g>
<!-- Node28 -->
<g id="node28" class="node"><title>Node28</title>
<g id="a_node28"><a xlink:href="walletdb_8cpp.html" target="_top" xlink:title="src/wallet/walletdb.cpp">
<polygon fill="white" stroke="black" points="2328.5,-73 2328.5,-92 2451.5,-92 2451.5,-73 2328.5,-73"/>
<text text-anchor="middle" x="2390" y="-80" font-family="Helvetica,sans-Serif" font-size="10.00">src/wallet/walletdb.cpp</text>
</a>
</g>
</g>
<!-- Node1&#45;&gt;Node28 -->
<g id="edge40" class="edge"><title>Node1&#45;&gt;Node28</title>
<path fill="none" stroke="midnightblue" d="M1559.46,-142.414C1695.01,-140.5 2033.32,-132.369 2314,-98 2326,-96.5307 2338.96,-94.3023 2350.71,-92.0302"/>
<polygon fill="midnightblue" stroke="midnightblue" points="1559.24,-138.917 1549.29,-142.552 1559.33,-145.916 1559.24,-138.917"/>
</g>
<!-- Node29 -->
<g id="node29" class="node"><title>Node29</title>
<g id="a_node29"><a xlink:href="wallettool_8cpp.html" target="_top" xlink:title="src/wallet/wallettool.cpp">
<polygon fill="white" stroke="black" points="2469.5,-73 2469.5,-92 2598.5,-92 2598.5,-73 2469.5,-73"/>
<text text-anchor="middle" x="2534" y="-80" font-family="Helvetica,sans-Serif" font-size="10.00">src/wallet/wallettool.cpp</text>
</a>
</g>
</g>
<!-- Node1&#45;&gt;Node29 -->
<g id="edge41" class="edge"><title>Node1&#45;&gt;Node29</title>
<path fill="none" stroke="midnightblue" d="M1559.09,-143.297C1710.86,-143.374 2121.72,-139.396 2461,-98 2472.67,-96.5759 2485.27,-94.3321 2496.66,-92.0312"/>
<polygon fill="midnightblue" stroke="midnightblue" points="1559.04,-139.797 1549.04,-143.286 1559.04,-146.797 1559.04,-139.797"/>
</g>
<!-- Node30 -->
<g id="node30" class="node"><title>Node30</title>
<g id="a_node30"><a xlink:href="wallettool_8h.html" target="_top" xlink:title="src/wallet/wallettool.h">
<polygon fill="white" stroke="black" points="2617,-73 2617,-92 2735,-92 2735,-73 2617,-73"/>
<text text-anchor="middle" x="2676" y="-80" font-family="Helvetica,sans-Serif" font-size="10.00">src/wallet/wallettool.h</text>
</a>
</g>
</g>
<!-- Node1&#45;&gt;Node30 -->
<g id="edge42" class="edge"><title>Node1&#45;&gt;Node30</title>
<path fill="none" stroke="midnightblue" d="M1559.04,-141.907C1759.15,-138.051 2402.35,-123.908 2608,-98 2619.02,-96.6119 2630.9,-94.3488 2641.6,-92.0189"/>
<polygon fill="midnightblue" stroke="midnightblue" points="1558.94,-138.408 1549,-142.098 1559.07,-145.406 1558.94,-138.408"/>
</g>
<!-- Node11&#45;&gt;Node5 -->
<g id="edge11" class="edge"><title>Node11&#45;&gt;Node5</title>
<path fill="none" stroke="midnightblue" d="M1297.3,-73.951C1273.34,-71.5762 1246.54,-69.0429 1222,-67 988.925,-47.5955 929.998,-51.3117 697,-31 676.628,-29.224 654.582,-27.017 634.253,-24.8648"/>
<polygon fill="midnightblue" stroke="midnightblue" points="1297.09,-77.4468 1307.39,-74.9571 1297.78,-70.4814 1297.09,-77.4468"/>
</g>
<!-- Node11&#45;&gt;Node10 -->
<g id="edge13" class="edge"><title>Node11&#45;&gt;Node10</title>
<path fill="none" stroke="midnightblue" d="M1297.29,-71.8955C1283.27,-70.1669 1268.69,-68.4545 1255,-67 1070.46,-47.3886 1022.66,-57.6109 839,-31 828.168,-29.4305 816.498,-27.2531 805.811,-25.0623"/>
<polygon fill="midnightblue" stroke="midnightblue" points="1297.03,-75.3895 1307.38,-73.1536 1297.89,-68.4432 1297.03,-75.3895"/>
</g>
<!-- Node12 -->
<g id="node12" class="node"><title>Node12</title>
<g id="a_node12"><a xlink:href="sendcoinsdialog_8cpp.html" target="_top" xlink:title="src/qt/sendcoinsdialog.cpp">
<polygon fill="white" stroke="black" points="1002.5,-6 1002.5,-25 1145.5,-25 1145.5,-6 1002.5,-6"/>
<text text-anchor="middle" x="1074" y="-13" font-family="Helvetica,sans-Serif" font-size="10.00">src/qt/sendcoinsdialog.cpp</text>
</a>
</g>
</g>
<!-- Node11&#45;&gt;Node12 -->
<g id="edge12" class="edge"><title>Node11&#45;&gt;Node12</title>
<path fill="none" stroke="midnightblue" d="M1320.93,-70.7236C1262.64,-57.9244 1166.6,-36.8334 1113.09,-25.0834"/>
<polygon fill="midnightblue" stroke="midnightblue" points="1320.48,-74.2092 1331,-72.9355 1321.98,-67.3721 1320.48,-74.2092"/>
</g>
<!-- Node13 -->
<g id="node13" class="node"><title>Node13</title>
<g id="a_node13"><a xlink:href="coincontrol_8cpp.html" target="_top" xlink:title="src/wallet/coincontrol.cpp">
<polygon fill="white" stroke="black" points="1163.5,-6 1163.5,-25 1300.5,-25 1300.5,-6 1163.5,-6"/>
<text text-anchor="middle" x="1232" y="-13" font-family="Helvetica,sans-Serif" font-size="10.00">src/wallet/coincontrol.cpp</text>
</a>
</g>
</g>
<!-- Node11&#45;&gt;Node13 -->
<g id="edge14" class="edge"><title>Node11&#45;&gt;Node13</title>
<path fill="none" stroke="midnightblue" d="M1342.28,-68.4436C1314.95,-55.5691 1273.95,-36.2573 1250.4,-25.1672"/>
<polygon fill="midnightblue" stroke="midnightblue" points="1341.14,-71.7737 1351.67,-72.8685 1344.12,-65.441 1341.14,-71.7737"/>
</g>
<!-- Node11&#45;&gt;Node14 -->
<g id="edge15" class="edge"><title>Node11&#45;&gt;Node14</title>
<path fill="none" stroke="midnightblue" d="M1317.48,-71.1288C1309.3,-69.6528 1300.93,-68.2231 1293,-67 1160.71,-46.6038 1126.31,-51.2419 994,-31 982.699,-29.2711 970.527,-27.1391 959.237,-25.0471"/>
<polygon fill="midnightblue" stroke="midnightblue" points="1316.85,-74.5722 1327.32,-72.9414 1318.12,-67.688 1316.85,-74.5722"/>
</g>
<!-- Node11&#45;&gt;Node15 -->
<g id="edge16" class="edge"><title>Node11&#45;&gt;Node15</title>
<path fill="none" stroke="midnightblue" d="M1370.29,-62.537C1370.48,-50.1703 1370.72,-34.6198 1370.87,-25.1273"/>
<polygon fill="midnightblue" stroke="midnightblue" points="1366.79,-62.6811 1370.13,-72.7338 1373.79,-62.7889 1366.79,-62.6811"/>
</g>
<!-- Node11&#45;&gt;Node16 -->
<g id="edge17" class="edge"><title>Node11&#45;&gt;Node16</title>
<path fill="none" stroke="midnightblue" d="M1414.74,-70.4841C1466.82,-57.6627 1551.71,-36.7605 1599.14,-25.0834"/>
<polygon fill="midnightblue" stroke="midnightblue" points="1413.66,-67.1462 1404.78,-72.9355 1415.33,-73.9433 1413.66,-67.1462"/>
</g>
<!-- Node11&#45;&gt;Node17 -->
<g id="edge18" class="edge"><title>Node11&#45;&gt;Node17</title>
<path fill="none" stroke="midnightblue" d="M1440.34,-71.5119C1508.38,-61.7121 1614.37,-46.0836 1706,-31 1709.1,-30.4895 1712.27,-29.9596 1715.47,-29.4175"/>
<polygon fill="midnightblue" stroke="midnightblue" points="1439.57,-68.0868 1430.17,-72.9742 1440.56,-75.0156 1439.57,-68.0868"/>
</g>
<!-- Node11&#45;&gt;Node18 -->
<g id="edge19" class="edge"><title>Node11&#45;&gt;Node18</title>
<path fill="none" stroke="midnightblue" d="M1442.84,-76.8278C1540.17,-69.966 1717.82,-55.2772 1868,-31 1870.74,-30.5572 1873.54,-30.0699 1876.36,-29.5505"/>
<polygon fill="midnightblue" stroke="midnightblue" points="1442.54,-73.3397 1432.81,-77.5269 1443.03,-80.3228 1442.54,-73.3397"/>
</g>
<!-- Node11&#45;&gt;Node19 -->
<g id="edge20" class="edge"><title>Node11&#45;&gt;Node19</title>
<path fill="none" stroke="midnightblue" d="M1395.84,-68.2739C1421,-55.3999 1458.49,-36.2086 1480.07,-25.1672"/>
<polygon fill="midnightblue" stroke="midnightblue" points="1394.17,-65.1968 1386.86,-72.8685 1397.36,-71.428 1394.17,-65.1968"/>
</g>
<!-- Node21&#45;&gt;Node16 -->
<g id="edge26" class="edge"><title>Node21&#45;&gt;Node16</title>
<path fill="none" stroke="midnightblue" d="M1783.04,-69.4363C1746.73,-56.5417 1690.09,-36.4243 1658.11,-25.0637"/>
<polygon fill="midnightblue" stroke="midnightblue" points="1782.1,-72.8195 1792.7,-72.8685 1784.45,-66.2233 1782.1,-72.8195"/>
</g>
<!-- Node22 -->
<g id="node22" class="node"><title>Node22</title>
<g id="a_node22"><a xlink:href="psbtwallet_8cpp.html" target="_top" xlink:title="src/wallet/psbtwallet.cpp">
<polygon fill="white" stroke="black" points="2008,-6 2008,-25 2140,-25 2140,-6 2008,-6"/>
<text text-anchor="middle" x="2074" y="-13" font-family="Helvetica,sans-Serif" font-size="10.00">src/wallet/psbtwallet.cpp</text>
</a>
</g>
</g>
<!-- Node21&#45;&gt;Node22 -->
<g id="edge25" class="edge"><title>Node21&#45;&gt;Node22</title>
<path fill="none" stroke="midnightblue" d="M1860.87,-70.4039C1911.59,-57.5757 1993.99,-36.7361 2040.06,-25.0834"/>
<polygon fill="midnightblue" stroke="midnightblue" points="1859.7,-67.0903 1850.86,-72.9355 1861.42,-73.8767 1859.7,-67.0903"/>
</g>
<!-- Node21&#45;&gt;Node23 -->
<g id="edge27" class="edge"><title>Node21&#45;&gt;Node23</title>
<path fill="none" stroke="midnightblue" d="M1865.96,-70.9184C1873.01,-69.524 1880.18,-68.1736 1887,-67 2002.84,-47.068 2033.39,-52.2029 2149,-31 2152.09,-30.4331 2155.26,-29.8168 2158.45,-29.1686"/>
<polygon fill="midnightblue" stroke="midnightblue" points="1864.9,-67.5636 1855.79,-72.9775 1866.28,-74.4246 1864.9,-67.5636"/>
</g>
<!-- Node26&#45;&gt;Node17 -->
<g id="edge34" class="edge"><title>Node26&#45;&gt;Node17</title>
<path fill="none" stroke="midnightblue" d="M1906.77,-63.6815C1880.31,-53.2568 1847.37,-40.2805 1822.73,-30.5765"/>
<polygon fill="midnightblue" stroke="midnightblue" points="1905.61,-66.9871 1916.2,-67.396 1908.18,-60.4742 1905.61,-66.9871"/>
</g>
<!-- Node26&#45;&gt;Node18 -->
<g id="edge37" class="edge"><title>Node26&#45;&gt;Node18</title>
<path fill="none" stroke="midnightblue" d="M1945.04,-57.6971C1942.38,-48.5871 1939.43,-38.4929 1937.11,-30.5765"/>
<polygon fill="midnightblue" stroke="midnightblue" points="1941.71,-58.7796 1947.88,-67.396 1948.43,-56.8156 1941.71,-58.7796"/>
</g>
<!-- Node26&#45;&gt;Node23 -->
<g id="edge35" class="edge"><title>Node26&#45;&gt;Node23</title>
<path fill="none" stroke="midnightblue" d="M2018,-65.0005C2061.42,-54.1456 2117.53,-40.1178 2158.23,-29.9431"/>
<polygon fill="midnightblue" stroke="midnightblue" points="2016.95,-61.6551 2008.1,-67.476 2018.65,-68.4461 2016.95,-61.6551"/>
</g>
<!-- Node27 -->
<g id="node27" class="node"><title>Node27</title>
<g id="a_node27"><a xlink:href="wallet__test__fixture_8cpp.html" target="_top" xlink:title="src/wallet/test/wallet\l_test_fixture.cpp">
<polygon fill="white" stroke="black" points="2283.5,-0.5 2283.5,-30.5 2396.5,-30.5 2396.5,-0.5 2283.5,-0.5"/>
<text text-anchor="start" x="2291.5" y="-18.5" font-family="Helvetica,sans-Serif" font-size="10.00">src/wallet/test/wallet</text>
<text text-anchor="middle" x="2340" y="-7.5" font-family="Helvetica,sans-Serif" font-size="10.00">_test_fixture.cpp</text>
</a>
</g>
</g>
<!-- Node26&#45;&gt;Node27 -->
<g id="edge36" class="edge"><title>Node26&#45;&gt;Node27</title>
<path fill="none" stroke="midnightblue" d="M2018.69,-66.9697C2133.22,-46.8626 2164.62,-51.01 2275,-31 2277.73,-30.505 2280.52,-29.9755 2283.33,-29.4221"/>
<polygon fill="midnightblue" stroke="midnightblue" points="2018.06,-63.5264 2008.83,-68.7241 2019.28,-70.4182 2018.06,-63.5264"/>
</g>
<!-- Node31 -->
<g id="node31" class="node"><title>Node31</title>
<g id="a_node31"><a xlink:href="bitcoin-wallet_8cpp.html" target="_top" xlink:title="src/bitcoin&#45;wallet.cpp">
<polygon fill="white" stroke="black" points="2618,-6 2618,-25 2734,-25 2734,-6 2618,-6"/>
<text text-anchor="middle" x="2676" y="-13" font-family="Helvetica,sans-Serif" font-size="10.00">src/bitcoin&#45;wallet.cpp</text>
</a>
</g>
</g>
<!-- Node30&#45;&gt;Node31 -->
<g id="edge43" class="edge"><title>Node30&#45;&gt;Node31</title>
<path fill="none" stroke="midnightblue" d="M2676,-62.537C2676,-50.1703 2676,-34.6198 2676,-25.1273"/>
<polygon fill="midnightblue" stroke="midnightblue" points="2672.5,-62.7338 2676,-72.7338 2679.5,-62.7338 2672.5,-62.7338"/>
</g>
</g>
</svg>
