<?xml version="1.0" encoding="UTF-8" standalone="no"?>
<!DOCTYPE svg PUBLIC "-//W3C//DTD SVG 1.1//EN"
 "http://www.w3.org/Graphics/SVG/1.1/DTD/svg11.dtd">
<!-- Generated by graphviz version 2.38.0 (20140413.2041)
 -->
<!-- Title: GetWarnings Pages: 1 -->
<svg width="379pt" height="103pt"
 viewBox="0.00 0.00 379.00 103.00" xmlns="http://www.w3.org/2000/svg" xmlns:xlink="http://www.w3.org/1999/xlink">
<g id="graph0" class="graph" transform="scale(1 1) rotate(0) translate(4 99)">
<title>GetWarnings</title>
<polygon fill="white" stroke="none" points="-4,4 -4,-99 375,-99 375,4 -4,4"/>
<!-- Node1 -->
<g id="node1" class="node"><title>Node1</title>
<polygon fill="#bfbfbf" stroke="black" points="0,-28.5 0,-47.5 77,-47.5 77,-28.5 0,-28.5"/>
<text text-anchor="middle" x="38.5" y="-35.5" font-family="Helvetica,sans-Serif" font-size="10.00">GetWarnings</text>
</g>
<!-- Node2 -->
<g id="node2" class="node"><title>Node2</title>
<g id="a_node2"><a xlink:href="blockchain_8cpp.html#a474625d5c1ef0c47e33c078fb53f6ba4" target="_top" xlink:title="getblockchaininfo">
<polygon fill="white" stroke="black" points="113,-56.5 113,-75.5 213,-75.5 213,-56.5 113,-56.5"/>
<text text-anchor="middle" x="163" y="-63.5" font-family="Helvetica,sans-Serif" font-size="10.00">getblockchaininfo</text>
</a>
</g>
</g>
<!-- Node1&#45;&gt;Node2 -->
<g id="edge1" class="edge"><title>Node1&#45;&gt;Node2</title>
<path fill="none" stroke="midnightblue" d="M87.1017,-48.8804C98.0601,-51.3852 109.633,-54.0303 120.317,-56.4726"/>
<polygon fill="midnightblue" stroke="midnightblue" points="87.7821,-45.4457 77.2536,-46.6294 86.2223,-52.2697 87.7821,-45.4457"/>
</g>
<!-- Node5 -->
<g id="node5" class="node"><title>Node5</title>
<g id="a_node5"><a xlink:href="mining_8h.html#a4910d289954727eb7c4c24a6b3c50c55" target="_top" xlink:title="Generate blocks (mine) ">
<polygon fill="white" stroke="black" points="117.5,-0.5 117.5,-19.5 208.5,-19.5 208.5,-0.5 117.5,-0.5"/>
<text text-anchor="middle" x="163" y="-7.5" font-family="Helvetica,sans-Serif" font-size="10.00">generateBlocks</text>
</a>
</g>
</g>
<!-- Node1&#45;&gt;Node5 -->
<g id="edge4" class="edge"><title>Node1&#45;&gt;Node5</title>
<path fill="none" stroke="midnightblue" d="M87.1017,-27.1196C98.0601,-24.6148 109.633,-21.9697 120.317,-19.5274"/>
<polygon fill="midnightblue" stroke="midnightblue" points="86.2223,-23.7303 77.2536,-29.3706 87.7821,-30.5543 86.2223,-23.7303"/>
</g>
<!-- Node3 -->
<g id="node3" class="node"><title>Node3</title>
<g id="a_node3"><a xlink:href="struct_c_coin.html#a2a0a2532bdacb03b087b3b0a400830ec" target="_top" xlink:title="CCoin::SerializationOp">
<polygon fill="white" stroke="black" points="249,-75.5 249,-94.5 371,-94.5 371,-75.5 249,-75.5"/>
<text text-anchor="middle" x="310" y="-82.5" font-family="Helvetica,sans-Serif" font-size="10.00">CCoin::SerializationOp</text>
</a>
</g>
</g>
<!-- Node2&#45;&gt;Node3 -->
<g id="edge2" class="edge"><title>Node2&#45;&gt;Node3</title>
<path fill="none" stroke="midnightblue" d="M223.253,-73.7642C231.713,-74.8727 240.422,-76.0139 248.898,-77.1245"/>
<polygon fill="midnightblue" stroke="midnightblue" points="223.46,-70.2615 213.09,-72.4325 222.551,-77.2022 223.46,-70.2615"/>
</g>
<!-- Node4 -->
<g id="node4" class="node"><title>Node4</title>
<g id="a_node4"><a xlink:href="blockchain_8cpp.html#af8ae2be64c52204527fac00aefc1151c" target="_top" xlink:title="scantxoutset">
<polygon fill="white" stroke="black" points="270.5,-37.5 270.5,-56.5 349.5,-56.5 349.5,-37.5 270.5,-37.5"/>
<text text-anchor="middle" x="310" y="-44.5" font-family="Helvetica,sans-Serif" font-size="10.00">scantxoutset</text>
</a>
</g>
</g>
<!-- Node2&#45;&gt;Node4 -->
<g id="edge3" class="edge"><title>Node2&#45;&gt;Node4</title>
<path fill="none" stroke="midnightblue" d="M223.381,-58.2191C239.282,-56.1354 256.055,-53.9376 270.5,-52.0449"/>
<polygon fill="midnightblue" stroke="midnightblue" points="222.551,-54.7978 213.09,-59.5675 223.46,-61.7385 222.551,-54.7978"/>
</g>
<!-- Node5&#45;&gt;Node5 -->
<g id="edge5" class="edge"><title>Node5&#45;&gt;Node5</title>
<path fill="none" stroke="midnightblue" d="M139.935,-29.0292C141.193,-34.128 148.881,-38 163,-38 185.039,-38 191.41,-28.5653 182.112,-19.7571"/>
<polygon fill="midnightblue" stroke="midnightblue" points="143.185,-30.3286 143.888,-19.7571 136.746,-27.5831 143.185,-30.3286"/>
</g>
</g>
</svg>
